<svg width="358" height="140" xmlns="http://www.w3.org/2000/svg" xmlns:xlink="http://www.w3.org/1999/xlink" xml:space="preserve" overflow="hidden"><g><path d="M356.199 84.113C356.432 83.9836 356.665 83.8283 356.872 83.673 357.027 83.5436 357.182 83.3883 357.286 83.2071 357.364 83.0519 357.415 82.8707 357.415 82.7154L357.415 89.5997C357.415 89.7809 357.364 89.9362 357.286 90.0915 357.182 90.2726 357.027 90.4279 356.872 90.5573 356.665 90.7385 356.432 90.8679 356.199 90.9973 355.888 91.1526 355.578 91.282 355.267 91.3855L355.267 84.4753C355.578 84.3718 355.888 84.2424 356.199 84.113Z" stroke="#000000" stroke-width="0.724666" stroke-linecap="round" stroke-linejoin="round" fill="#DADBDB" transform="matrix(1.00062 0 0 1 0 0.250932)"/><path d="M347.503 62.2954C347.814 62.1918 348.124 62.0624 348.409 61.933 348.642 61.8036 348.875 61.6483 349.082 61.4931 349.237 61.3637 349.392 61.2084 349.496 61.0272 349.599 60.8719 349.651 60.6908 349.651 60.5355L349.651 67.4198C349.651 67.601 349.599 67.7562 349.496 67.9115 349.392 68.0927 349.237 68.248 349.082 68.3774 348.875 68.5585 348.642 68.688 348.409 68.8174 348.124 68.9726 347.814 69.1021 347.503 69.2056L347.503 62.2954Z" stroke="#000000" stroke-width="0.724666" stroke-linecap="round" stroke-linejoin="round" fill="#DADBDB" transform="matrix(1.00062 0 0 1 0 0.250932)"/><path d="M347.503 69.2056 334.226 73.7347 329.335 72.0525 329.335 68.5068 347.503 62.2954 347.503 69.2056Z" stroke="#000000" stroke-width="0.724666" stroke-linecap="round" stroke-linejoin="round" fill="#DADBDB" transform="matrix(1.00062 0 0 1 0 0.250932)"/><path d="M329.335 68.5068 329.335 72.0525C329.024 71.9489 328.714 71.8454 328.429 71.6901 328.196 71.5607 327.963 71.4313 327.756 71.2502 327.575 71.1208 327.445 70.9655 327.342 70.7843 327.238 70.629 327.187 70.4479 327.187 70.2926 327.187 70.1114 327.238 69.9561 327.342 69.8008 327.445 69.6197 327.575 69.4644 327.756 69.335 327.963 69.1538 328.196 69.0244 328.429 68.895 328.714 68.7397 329.024 68.6103 329.335 68.5068Z" stroke="#000000" stroke-width="0.724666" stroke-linecap="round" stroke-linejoin="round" fill="#DADBDB" transform="matrix(1.00062 0 0 1 0 0.250932)"/><path d="M323.123 62.7612 321.027 63.4859 321.027 62.0624 323.123 62.7612Z" stroke="#000000" stroke-width="0.724666" stroke-linecap="round" stroke-linejoin="round" fill="#DADBDB" transform="matrix(1.00062 0 0 1 0 0.250932)"/><path d="M321.027 62.0624 321.027 63.4859 321.027 73.0877 318.439 73.9677 310.675 76.6334 310.675 63.0718 321.027 59.5261 321.027 62.0624Z" stroke="#000000" stroke-width="0.724666" stroke-linecap="round" stroke-linejoin="round" fill="#DADBDB" transform="matrix(1.00062 0 0 1 0 0.250932)"/><path d="M318.956 79.4544C318.956 79.4544 318.827 79.6097 318.749 79.6615 318.698 79.7132 318.646 79.7391 318.568 79.7909L318.568 78.2639C318.723 78.3674 318.879 78.4709 318.982 78.6262 319.06 78.7556 319.112 78.885 319.112 79.0144 319.112 79.1697 319.06 79.325 318.956 79.4544Z" stroke="#000000" stroke-width="0.724666" stroke-linecap="round" stroke-linejoin="round" fill="#DADBDB" transform="matrix(1.00062 0 0 1 0 0.250932)"/><path d="M321.027 63.4859 323.123 62.7612 323.123 76.5557 318.568 78.1086 318.439 78.1604 318.439 73.9677 321.027 73.0877 321.027 63.4859Z" stroke="#000000" stroke-width="0.724666" stroke-linecap="round" stroke-linejoin="round" fill="#DADBDB" transform="matrix(1.00062 0 0 1 0 0.250932)"/><path d="M318.439 82.8966 283.163 94.9571 283.163 65.2975 318.439 53.237 318.439 54.9711 308.061 58.5168 308.061 75.7534 310.675 76.6334 318.439 73.9677 318.439 78.1604 318.439 82.8966Z" stroke="#000000" stroke-width="0.724666" stroke-linecap="round" stroke-linejoin="round" fill="#DADBDB" transform="matrix(1.00062 0 0 1 0 0.250932)"/><path d="M321.027 59.5261 310.675 63.0718 308.061 58.5168 318.439 54.9711 321.027 59.5261Z" stroke="#000000" stroke-width="0.724666" stroke-linecap="round" stroke-linejoin="round" fill="#DADBDB" transform="matrix(1.00062 0 0 1 0 0.250932)"/><path d="M310.675 63.0718 310.675 76.6334 308.061 75.7534 308.061 58.5168 310.675 63.0718Z" stroke="#000000" stroke-width="0.724666" stroke-linecap="round" stroke-linejoin="round" fill="#DADBDB" transform="matrix(1.00062 0 0 1 0 0.250932)"/><path d="M309.355 52.5641 312.227 53.5476 309.355 54.5311 309.355 52.5641Z" stroke="#000000" stroke-width="0.724666" stroke-linecap="round" stroke-linejoin="round" fill="#DADBDB" transform="matrix(1.00062 0 0 1 0 0.250932)"/><path d="M313.004 53.2888 312.227 53.5476 309.355 52.5641 309.355 52.0465 313.004 53.2888Z" stroke="#000000" stroke-width="0.724666" stroke-linecap="round" stroke-linejoin="round" fill="#DADBDB" transform="matrix(1.00062 0 0 1 0 0.250932)"/><path d="M306.508 53.5476 309.355 52.5641 309.355 54.5311 306.508 53.5476Z" stroke="#000000" stroke-width="0.724666" stroke-linecap="round" stroke-linejoin="round" fill="#DADBDB" transform="matrix(1.00062 0 0 1 0 0.250932)"/><path d="M309.355 52.5641 306.508 53.5476 305.731 53.2888 309.355 52.0465 309.355 52.5641Z" stroke="#000000" stroke-width="0.724666" stroke-linecap="round" stroke-linejoin="round" fill="#DADBDB" transform="matrix(1.00062 0 0 1 0 0.250932)"/><path d="M302.781 50.3125 305.602 51.2701 302.781 52.2536 302.781 50.3125Z" stroke="#000000" stroke-width="0.724666" stroke-linecap="round" stroke-linejoin="round" fill="#DADBDB" transform="matrix(1.00062 0 0 1 0 0.250932)"/><path d="M302.781 54.8158 305.654 55.7993 302.781 56.7827 302.781 54.8158Z" stroke="#000000" stroke-width="0.724666" stroke-linecap="round" stroke-linejoin="round" fill="#DADBDB" transform="matrix(1.00062 0 0 1 0 0.250932)"/><path d="M302.781 49.769 306.404 51.0113 305.602 51.2701 302.781 50.3125 302.781 49.769Z" stroke="#000000" stroke-width="0.724666" stroke-linecap="round" stroke-linejoin="round" fill="#DADBDB" transform="matrix(1.00062 0 0 1 0 0.250932)"/><path d="M306.404 55.5404 305.654 55.7993 302.781 54.8158 302.781 54.2982 306.404 55.5404Z" stroke="#000000" stroke-width="0.724666" stroke-linecap="round" stroke-linejoin="round" fill="#DADBDB" transform="matrix(1.00062 0 0 1 0 0.250932)"/><path d="M299.908 55.7993 302.781 54.8158 302.781 56.7827 299.908 55.7993Z" stroke="#000000" stroke-width="0.724666" stroke-linecap="round" stroke-linejoin="round" fill="#DADBDB" transform="matrix(1.00062 0 0 1 0 0.250932)"/><path d="M299.96 51.2701 302.781 50.3125 302.781 52.2536 299.96 51.2701Z" stroke="#000000" stroke-width="0.724666" stroke-linecap="round" stroke-linejoin="round" fill="#DADBDB" transform="matrix(1.00062 0 0 1 0 0.250932)"/><path d="M299.158 55.5404 302.781 54.2982 302.781 54.8158 299.908 55.7993 299.158 55.5404Z" stroke="#000000" stroke-width="0.724666" stroke-linecap="round" stroke-linejoin="round" fill="#DADBDB" transform="matrix(1.00062 0 0 1 0 0.250932)"/><path d="M299.158 51.0113 302.781 49.769 302.781 50.3125 299.96 51.2701 299.158 51.0113Z" stroke="#000000" stroke-width="0.724666" stroke-linecap="round" stroke-linejoin="round" fill="#DADBDB" transform="matrix(1.00062 0 0 1 0 0.250932)"/><path d="M296.181 52.5641 299.054 53.5476 296.181 54.5311 296.181 52.5641Z" stroke="#000000" stroke-width="0.724666" stroke-linecap="round" stroke-linejoin="round" fill="#DADBDB" transform="matrix(1.00062 0 0 1 0 0.250932)"/><path d="M296.181 57.0674 299.054 58.0509 296.181 59.0344 296.181 57.0674Z" stroke="#000000" stroke-width="0.724666" stroke-linecap="round" stroke-linejoin="round" fill="#DADBDB" transform="matrix(1.00062 0 0 1 0 0.250932)"/><path d="M299.054 58.0509 296.181 57.0674 296.181 56.5498 299.83 57.7921 299.054 58.0509Z" stroke="#000000" stroke-width="0.724666" stroke-linecap="round" stroke-linejoin="round" fill="#DADBDB" transform="matrix(1.00062 0 0 1 0 0.250932)"/><path d="M299.054 53.5476 296.181 52.5641 296.181 52.0465 299.83 53.2888 299.054 53.5476Z" stroke="#000000" stroke-width="0.724666" stroke-linecap="round" stroke-linejoin="round" fill="#DADBDB" transform="matrix(1.00062 0 0 1 0 0.250932)"/><path d="M296.181 57.0674 296.181 59.0344 293.334 58.0509 296.181 57.0674Z" stroke="#000000" stroke-width="0.724666" stroke-linecap="round" stroke-linejoin="round" fill="#DADBDB" transform="matrix(1.00062 0 0 1 0 0.250932)"/><path d="M296.181 52.5641 296.181 54.5311 293.334 53.5476 296.181 52.5641Z" stroke="#000000" stroke-width="0.724666" stroke-linecap="round" stroke-linejoin="round" fill="#DADBDB" transform="matrix(1.00062 0 0 1 0 0.250932)"/><path d="M292.558 53.2888 296.181 52.0465 296.181 52.5641 293.334 53.5476 292.558 53.2888Z" stroke="#000000" stroke-width="0.724666" stroke-linecap="round" stroke-linejoin="round" fill="#DADBDB" transform="matrix(1.00062 0 0 1 0 0.250932)"/><path d="M292.558 57.7921 296.181 56.5498 296.181 57.0674 293.334 58.0509 292.558 57.7921Z" stroke="#000000" stroke-width="0.724666" stroke-linecap="round" stroke-linejoin="round" fill="#DADBDB" transform="matrix(1.00062 0 0 1 0 0.250932)"/><path d="M289.607 54.8158 292.48 55.7993 289.607 56.7827 289.607 54.8158Z" stroke="#000000" stroke-width="0.724666" stroke-linecap="round" stroke-linejoin="round" fill="#DADBDB" transform="matrix(1.00062 0 0 1 0 0.250932)"/><path d="M289.607 59.3191 292.48 60.3025 289.607 61.286 289.607 59.3191Z" stroke="#000000" stroke-width="0.724666" stroke-linecap="round" stroke-linejoin="round" fill="#DADBDB" transform="matrix(1.00062 0 0 1 0 0.250932)"/><path d="M293.231 60.0437 292.48 60.3025 289.607 59.3191 289.607 58.8014 293.231 60.0437Z" stroke="#000000" stroke-width="0.724666" stroke-linecap="round" stroke-linejoin="round" fill="#DADBDB" transform="matrix(1.00062 0 0 1 0 0.250932)"/><path d="M293.231 55.5404 292.48 55.7993 289.607 54.8158 289.607 54.2982 293.231 55.5404Z" stroke="#000000" stroke-width="0.724666" stroke-linecap="round" stroke-linejoin="round" fill="#DADBDB" transform="matrix(1.00062 0 0 1 0 0.250932)"/><path d="M286.735 60.3025 289.607 59.3191 289.607 61.286 286.735 60.3025Z" stroke="#000000" stroke-width="0.724666" stroke-linecap="round" stroke-linejoin="round" fill="#DADBDB" transform="matrix(1.00062 0 0 1 0 0.250932)"/><path d="M286.735 55.7993 289.607 54.8158 289.607 56.7827 286.735 55.7993Z" stroke="#000000" stroke-width="0.724666" stroke-linecap="round" stroke-linejoin="round" fill="#DADBDB" transform="matrix(1.00062 0 0 1 0 0.250932)"/><path d="M289.607 54.8158 286.735 55.7993 285.958 55.5404 289.607 54.2982 289.607 54.8158Z" stroke="#000000" stroke-width="0.724666" stroke-linecap="round" stroke-linejoin="round" fill="#DADBDB" transform="matrix(1.00062 0 0 1 0 0.250932)"/><path d="M289.607 59.3191 286.735 60.3025 285.958 60.0437 289.607 58.8014 289.607 59.3191Z" stroke="#000000" stroke-width="0.724666" stroke-linecap="round" stroke-linejoin="round" fill="#DADBDB" transform="matrix(1.00062 0 0 1 0 0.250932)"/><path d="M283.008 59.0344 283.008 57.0674 285.881 58.0509 283.008 59.0344Z" stroke="#000000" stroke-width="0.724666" stroke-linecap="round" stroke-linejoin="round" fill="#DADBDB" transform="matrix(1.00062 0 0 1 0 0.250932)"/><path d="M283.008 63.5376 283.008 61.5707 285.881 62.5542 283.008 63.5376Z" stroke="#000000" stroke-width="0.724666" stroke-linecap="round" stroke-linejoin="round" fill="#DADBDB" transform="matrix(1.00062 0 0 1 0 0.250932)"/><path d="M283.008 61.0531 286.657 62.2954 285.881 62.5542 283.008 61.5707 283.008 61.0531Z" stroke="#000000" stroke-width="0.724666" stroke-linecap="round" stroke-linejoin="round" fill="#DADBDB" transform="matrix(1.00062 0 0 1 0 0.250932)"/><path d="M283.008 56.5498 286.657 57.7921 285.881 58.0509 283.008 57.0674 283.008 56.5498Z" stroke="#000000" stroke-width="0.724666" stroke-linecap="round" stroke-linejoin="round" fill="#DADBDB" transform="matrix(1.00062 0 0 1 0 0.250932)"/><path d="M280.135 62.5542 283.008 61.5707 283.008 63.5376 280.135 62.5542Z" stroke="#000000" stroke-width="0.724666" stroke-linecap="round" stroke-linejoin="round" fill="#DADBDB" transform="matrix(1.00062 0 0 1 0 0.250932)"/><path d="M280.135 58.0509 283.008 57.0674 283.008 59.0344 280.135 58.0509Z" stroke="#000000" stroke-width="0.724666" stroke-linecap="round" stroke-linejoin="round" fill="#DADBDB" transform="matrix(1.00062 0 0 1 0 0.250932)"/><path d="M283.008 61.5707 280.135 62.5542 279.384 62.2954 283.008 61.0531 283.008 61.5707Z" stroke="#000000" stroke-width="0.724666" stroke-linecap="round" stroke-linejoin="round" fill="#DADBDB" transform="matrix(1.00062 0 0 1 0 0.250932)"/><path d="M283.008 57.0674 280.135 58.0509 279.384 57.7921 283.008 56.5498 283.008 57.0674Z" stroke="#000000" stroke-width="0.724666" stroke-linecap="round" stroke-linejoin="round" fill="#DADBDB" transform="matrix(1.00062 0 0 1 0 0.250932)"/><path d="M276.434 59.3191 279.281 60.3025 276.434 61.286 276.434 59.3191Z" stroke="#000000" stroke-width="0.724666" stroke-linecap="round" stroke-linejoin="round" fill="#DADBDB" transform="matrix(1.00062 0 0 1 0 0.250932)"/><path d="M276.434 59.3191 276.434 58.8014 280.057 60.0437 279.281 60.3025 276.434 59.3191Z" stroke="#000000" stroke-width="0.724666" stroke-linecap="round" stroke-linejoin="round" fill="#DADBDB" transform="matrix(1.00062 0 0 1 0 0.250932)"/><path d="M273.561 60.3025 276.434 59.3191 276.434 61.286 273.561 60.3025Z" stroke="#000000" stroke-width="0.724666" stroke-linecap="round" stroke-linejoin="round" fill="#DADBDB" transform="matrix(1.00062 0 0 1 0 0.250932)"/><path d="M309.355 52.0465 305.731 53.2888 306.508 53.5476 309.355 54.5311 312.227 53.5476 313.004 53.2888 309.355 52.0465ZM302.781 54.2982 299.158 55.5404 299.908 55.7993 302.781 56.7827 305.654 55.7993 306.404 55.5404 302.781 54.2982ZM302.781 52.2536 305.602 51.2701 306.404 51.0113 302.781 49.769 299.158 51.0113 299.96 51.2701 302.781 52.2536ZM296.181 56.5498 292.558 57.7921 293.334 58.0509 296.181 59.0344 299.054 58.0509 299.83 57.7921 296.181 56.5498ZM296.181 52.0465 292.558 53.2888 293.334 53.5476 296.181 54.5311 299.054 53.5476 299.83 53.2888 296.181 52.0465ZM286.735 55.7993 289.607 56.7827 292.48 55.7993 293.231 55.5404 289.607 54.2982 285.958 55.5404 286.735 55.7993ZM289.607 58.8014 285.958 60.0437 286.735 60.3025 289.607 61.286 292.48 60.3025 293.231 60.0437 289.607 58.8014ZM280.135 58.0509 283.008 59.0344 285.881 58.0509 286.657 57.7921 283.008 56.5498 279.384 57.7921 280.135 58.0509ZM283.008 61.0531 279.384 62.2954 280.135 62.5542 283.008 63.5376 285.881 62.5542 286.657 62.2954 283.008 61.0531ZM272.785 60.0437 273.561 60.3025 276.434 61.286 279.281 60.3025 280.057 60.0437 276.434 58.8014 272.785 60.0437ZM283.163 65.2975 267.609 59.992 302.884 47.9315 318.439 53.237 283.163 65.2975Z" stroke="#000000" stroke-width="0.724666" stroke-linecap="round" stroke-linejoin="round" fill="#DADBDB" transform="matrix(1.00062 0 0 1 0 0.250932)"/><path d="M274.829 94.103 274.829 93.0678 275.062 92.9901C275.062 92.9901 275.244 93.1454 275.295 93.2489 275.347 93.3007 275.373 93.4042 275.373 93.4819 275.373 93.5854 275.321 93.6889 275.269 93.7666 275.192 93.8701 275.088 93.9736 274.985 94.0254L274.829 94.103Z" stroke="#000000" stroke-width="0.724666" stroke-linecap="round" stroke-linejoin="round" fill="#DADBDB" transform="matrix(1.00062 0 0 1 0 0.250932)"/><path d="M272.785 60.0437 276.434 58.8014 276.434 59.3191 273.561 60.3025 272.785 60.0437Z" stroke="#000000" stroke-width="0.724666" stroke-linecap="round" stroke-linejoin="round" fill="#DADBDB" transform="matrix(1.00062 0 0 1 0 0.250932)"/><path d="M267.609 76.4263 267.609 73.683 267.609 73.4759 267.609 68.5068 267.609 59.992 283.163 65.2975 283.163 94.9571 280.575 94.0512 280.575 92.0067 279.281 91.5408 279.281 77.7721 271.491 75.1064 267.609 76.4263Z" stroke="#000000" stroke-width="0.724666" stroke-linecap="round" stroke-linejoin="round" fill="#DADBDB" transform="matrix(1.00062 0 0 1 0 0.250932)"/><path d="M274.829 93.0678 270.714 94.4912 270.714 80.6967 279.281 77.7721 279.281 91.5408 275.062 92.9901 274.829 93.0678Z" stroke="#000000" stroke-width="0.724666" stroke-linecap="round" stroke-linejoin="round" fill="#DADBDB" transform="matrix(1.00062 0 0 1 0 0.250932)"/><path d="M270.714 80.6967 262.95 78.031 267.609 76.4263 271.491 75.1064 279.281 77.7721 270.714 80.6967Z" stroke="#000000" stroke-width="0.724666" stroke-linecap="round" stroke-linejoin="round" fill="#DADBDB" transform="matrix(1.00062 0 0 1 0 0.250932)"/><path d="M262.95 91.8255 262.95 80.5673 262.95 80.3602 262.95 78.031 270.714 80.6967 270.714 94.4912 268.954 93.896 268.954 93.8701 268.463 93.7148 262.95 91.8255Z" stroke="#000000" stroke-width="0.724666" stroke-linecap="round" stroke-linejoin="round" fill="#DADBDB" transform="matrix(1.00062 0 0 1 0 0.250932)"/><path d="M268.385 35.2498C268.696 35.1463 269.006 35.0169 269.291 34.8616 269.524 34.7322 269.757 34.6028 269.964 34.4216 270.145 34.2922 270.274 34.1369 270.404 33.9558 270.481 33.8005 270.533 33.6452 270.533 33.464L270.533 40.3742C270.533 40.5295 270.481 40.7107 270.404 40.866 270.274 41.0471 270.145 41.2024 269.964 41.3318 269.757 41.4871 269.524 41.6424 269.291 41.7718 269.006 41.9012 268.696 42.0306 268.385 42.1341L268.385 35.2498Z" stroke="#000000" stroke-width="0.724666" stroke-linecap="round" stroke-linejoin="round" fill="#DADBDB" transform="matrix(1.00062 0 0 1 0 0.250932)"/><path d="M269.42 94.3359C269.213 94.2583 269.006 94.1806 268.799 94.0512 268.67 93.9477 268.54 93.8442 268.463 93.7148L268.954 93.8701 268.954 93.8701C268.954 93.8701 270.714 94.4912 270.714 94.4912L274.829 93.0678 274.829 94.103C274.829 94.103 274.622 94.2324 274.493 94.2842 274.312 94.3618 274.105 94.4136 273.872 94.4653 273.639 94.5171 273.406 94.5689 273.147 94.5947 272.888 94.6206 272.604 94.6465 272.345 94.6724 271.801 94.6724 271.232 94.6724 270.689 94.5947 270.559 94.5947 270.43 94.5689 270.326 94.543 270.249 94.543 270.145 94.5171 270.067 94.5171 269.86 94.4653 269.627 94.4136 269.42 94.3359Z" stroke="#000000" stroke-width="0.724666" stroke-linecap="round" stroke-linejoin="round" fill="#DADBDB" transform="matrix(1.00062 0 0 1 0 0.250932)"/><path d="M268.385 42.1341 255.134 46.6892 255.108 46.6892 250.217 45.0069 250.217 41.4612 268.385 35.2498 268.385 42.1341Z" stroke="#000000" stroke-width="0.724666" stroke-linecap="round" stroke-linejoin="round" fill="#DADBDB" transform="matrix(1.00062 0 0 1 0 0.250932)"/><path d="M267.609 68.5068 267.609 73.4759 171.125 106.474 67.368 70.9914 171.125 35.5086 267.609 68.5068Z" stroke="#000000" stroke-width="0.724666" stroke-linecap="round" stroke-linejoin="round" fill="#F5D129" transform="matrix(1.00062 0 0 1 0 0.250932)"/><path d="M262.95 78.031 262.95 80.3602 171.125 111.78 171.125 106.681 267.609 73.683 267.609 76.4263 262.95 78.031Z" stroke="#000000" stroke-width="0.724666" stroke-linecap="round" stroke-linejoin="round" fill="#F5D129" transform="matrix(1.00062 0 0 1 0 0.250932)"/><path d="M262.95 80.5673 171.125 111.987 171.125 111.78 262.95 80.3602 262.95 80.5673Z" stroke="#000000" stroke-width="0.724666" stroke-linecap="round" stroke-linejoin="round" fill="#DADBDB" transform="matrix(1.00062 0 0 1 0 0.250932)"/><path d="M250.217 41.4612 250.217 45.0069C249.906 44.9034 249.621 44.774 249.311 44.6187 249.078 44.5152 248.845 44.3599 248.638 44.1787 248.483 44.0493 248.327 43.894 248.224 43.7129 248.146 43.5835 248.069 43.4023 248.069 43.2211 248.069 43.0658 248.146 42.8847 248.224 42.7294 248.327 42.5482 248.483 42.3929 248.638 42.2635 248.845 42.1083 249.078 41.953 249.311 41.8494 249.621 41.6942 249.906 41.5648 250.217 41.4612Z" stroke="#000000" stroke-width="0.724666" stroke-linecap="round" stroke-linejoin="round" fill="#DADBDB" transform="matrix(1.00062 0 0 1 0 0.250932)"/><path d="M217.814 131.501 355.267 84.4753 355.267 91.3855 217.814 138.385 217.814 131.501Z" stroke="#000000" stroke-width="0.724666" stroke-linecap="round" stroke-linejoin="round" fill="#DADBDB" transform="matrix(1.00062 0 0 1 0 0.250932)"/><path d="M213.518 125.755C212.612 125.781 211.732 125.755 210.826 125.704 209.972 125.652 209.144 125.548 208.29 125.393 207.565 125.264 206.84 125.082 206.141 124.85 205.753 124.72 205.365 124.565 205.003 124.384 204.692 124.228 204.407 124.047 204.149 123.84 203.942 123.659 203.76 123.478 203.631 123.245 203.528 123.064 203.45 122.831 203.45 122.624 203.45 121.847 204.278 121.252 205.003 120.89 205.287 120.734 205.546 120.631 205.831 120.527 206.141 120.398 206.478 120.294 206.789 120.217 207.177 120.113 207.539 120.01 207.901 119.932 208.29 119.855 208.704 119.777 209.118 119.725 209.972 119.596 210.852 119.544 211.732 119.518 212.612 119.466 213.518 119.518 214.398 119.518 215.252 119.596 216.106 119.673 216.934 119.829 217.684 119.958 218.409 120.139 219.108 120.372 219.496 120.527 219.884 120.683 220.247 120.864 220.531 121.019 220.842 121.2 221.101 121.407 221.282 121.563 221.489 121.77 221.618 122.003 221.722 122.184 221.799 122.391 221.799 122.598 221.799 123.374 220.971 123.97 220.247 124.358 219.962 124.487 219.703 124.617 219.418 124.72 219.108 124.824 218.771 124.927 218.435 125.031 218.073 125.134 217.71 125.212 217.322 125.29 216.934 125.367 216.52 125.445 216.132 125.497 215.252 125.626 214.398 125.704 213.518 125.729Z" stroke="#000000" stroke-width="0.724666" stroke-linecap="round" stroke-linejoin="round" fill="#DADBDB" transform="matrix(1.00062 0 0 1 0 0.250932)"/><path d="M209.817 132.044C210.748 132.174 211.68 132.226 212.612 132.226 213.543 132.226 214.501 132.174 215.433 132.044 216.235 131.941 217.037 131.76 217.814 131.501L217.814 138.385C217.037 138.67 216.235 138.825 215.433 138.929 214.501 139.058 213.543 139.136 212.612 139.136 211.68 139.136 210.748 139.058 209.817 138.929 209.014 138.825 208.212 138.67 207.436 138.385L207.436 131.501C208.212 131.76 209.014 131.941 209.817 132.044Z" stroke="#000000" stroke-width="0.724666" stroke-linecap="round" stroke-linejoin="round" fill="#DADBDB" transform="matrix(1.00062 0 0 1 0 0.250932)"/><path d="M209.118 19.2554C210.024 19.2554 210.929 19.2554 211.809 19.3072 212.663 19.3589 213.518 19.4624 214.346 19.6177 215.07 19.7471 215.795 19.9283 216.52 20.1612 216.908 20.2906 217.27 20.4459 217.658 20.653 217.943 20.7824 218.228 20.9635 218.487 21.1706 218.694 21.3518 218.875 21.5329 219.03 21.7659 219.134 21.947 219.185 22.1799 219.185 22.387 219.185 23.1634 218.383 23.7587 217.658 24.121 217.374 24.2763 217.089 24.3798 216.83 24.4833 216.494 24.6128 216.183 24.7163 215.847 24.8198 215.485 24.9233 215.122 25.001 214.734 25.0786 214.346 25.1563 213.932 25.2339 213.543 25.2857 212.663 25.4151 211.809 25.4668 210.929 25.4927 210.024 25.5445 209.118 25.5186 208.238 25.4668 207.384 25.3892 206.53 25.3115 205.702 25.1563 204.977 25.0268 204.252 24.8457 203.528 24.6128 203.139 24.4575 202.777 24.3022 202.389 24.121 202.104 23.9657 201.819 23.8104 201.561 23.5775 201.354 23.4222 201.172 23.2152 201.043 23.0081 200.914 22.8011 200.862 22.594 200.862 22.387 200.862 21.6106 201.664 21.0153 202.389 20.653 202.673 20.4977 202.958 20.3942 203.217 20.2648 203.553 20.1612 203.864 20.0577 204.2 19.9542 204.563 19.8507 204.951 19.773 205.313 19.6954 205.702 19.6177 206.116 19.5401 206.504 19.4883 207.384 19.3589 208.264 19.2813 209.118 19.2554Z" stroke="#000000" stroke-width="0.724666" stroke-linecap="round" stroke-linejoin="round" fill="#DADBDB" transform="matrix(1.00062 0 0 1 0 0.250932)"/><path d="M171.772 13.2769C170.866 13.2251 169.96 13.1216 169.054 12.9405 168.252 12.8111 167.475 12.6299 166.699 12.3711 166.285 12.2158 165.871 12.0605 165.483 11.8535 165.146 11.6723 164.836 11.4911 164.551 11.2582 164.344 11.077 164.137 10.87 164.007 10.6371 163.878 10.43 163.8 10.1971 163.8 9.96415 163.8 9.78299 163.852 9.6277 163.904 9.47242 163.981 9.29125 164.111 9.13596 164.24 8.98068 164.396 8.79951 164.577 8.64423 164.758 8.51482 164.991 8.35954 165.224 8.20425 165.483 8.07485 165.767 7.94544 166.078 7.81604 166.363 7.68663 166.725 7.55723 167.061 7.4537 167.424 7.35018 168.252 7.11725 169.08 6.96197 169.908 6.83256 170.866 6.70316 171.798 6.62551 172.729 6.59963 173.713 6.54787 174.67 6.57375 175.654 6.6514 176.56 6.70316 177.465 6.80668 178.371 6.98785 179.174 7.11725 179.95 7.29842 180.726 7.55723 181.141 7.71251 181.555 7.8678 181.943 8.07485 182.279 8.25601 182.59 8.43718 182.875 8.67011 183.082 8.85127 183.289 9.05832 183.418 9.29125 183.547 9.4983 183.625 9.73122 183.625 9.96415 183.625 10.1453 183.573 10.3006 183.496 10.4559 183.444 10.6371 183.315 10.7923 183.185 10.9476 183.03 11.1288 182.849 11.2841 182.668 11.4135 182.435 11.5688 182.202 11.7241 181.943 11.8535 181.658 11.9829 181.348 12.1123 181.063 12.2417 180.701 12.3711 180.338 12.4746 180.002 12.5781 179.174 12.8111 178.345 12.9663 177.491 13.0957 176.56 13.2251 175.628 13.3028 174.67 13.3287 173.713 13.3546 172.755 13.3546 171.772 13.2769Z" stroke="#000000" stroke-width="0.724666" stroke-linecap="round" stroke-linejoin="round" fill="#DADBDB" transform="matrix(1.00062 0 0 1 0 0.250932)"/><path d="M267.609 73.683 171.125 106.681 171.125 106.474 267.609 73.4759 267.609 73.683Z" stroke="#000000" stroke-width="0.724666" stroke-linecap="round" stroke-linejoin="round" fill="#DADBDB" transform="matrix(1.00062 0 0 1 0 0.250932)"/><path d="M159.09 15.4768 158.107 15.1145 159.09 14.778 159.09 15.4768Z" stroke="#000000" stroke-width="0.724666" stroke-linecap="round" stroke-linejoin="round" fill="#DADBDB" transform="matrix(1.00062 0 0 1 0 0.250932)"/><path d="M159.09 18.2202 156.994 17.5214 156.994 16.8226 159.09 17.5473 159.09 18.2202Z" stroke="#000000" stroke-width="0.724666" stroke-linecap="round" stroke-linejoin="round" fill="#DADBDB" transform="matrix(1.00062 0 0 1 0 0.250932)"/><path d="M157.304 15.3991 158.081 15.1145 158.107 15.1145 159.09 15.4768 159.918 15.1921 159.918 17.2626 157.304 16.3567 157.304 15.3991Z" stroke="#000000" stroke-width="0.724666" stroke-linecap="round" stroke-linejoin="round" fill="#DADBDB" transform="matrix(1.00062 0 0 1 0 0.250932)"/><path d="M157.563 20.3942 158.314 20.1095 158.339 20.1095 158.339 20.1871 158.339 21.6882 157.563 21.9729 157.563 20.3942Z" stroke="#000000" stroke-width="0.724666" stroke-linecap="round" stroke-linejoin="round" fill="#DADBDB" transform="matrix(1.00062 0 0 1 0 0.250932)"/><path d="M156.994 18.9448 156.994 17.5214 159.09 18.2202 156.994 18.9448Z" stroke="#000000" stroke-width="0.724666" stroke-linecap="round" stroke-linejoin="round" fill="#DADBDB" transform="matrix(1.00062 0 0 1 0 0.250932)"/><path d="M159.09 17.5473 156.994 16.8226 156.994 16.4861 157.304 16.3567 159.918 17.2626 159.09 17.5473Z" stroke="#000000" stroke-width="0.724666" stroke-linecap="round" stroke-linejoin="round" fill="#DADBDB" transform="matrix(1.00062 0 0 1 0 0.250932)"/><path d="M156.994 15.5027 157.304 15.3991 157.304 16.3567 156.994 16.4861 156.994 15.5027Z" stroke="#000000" stroke-width="0.724666" stroke-linecap="round" stroke-linejoin="round" fill="#DADBDB" transform="matrix(1.00062 0 0 1 0 0.250932)"/><path d="M155.751 21.0671 155.751 22.594 154.975 22.8528 154.975 21.2741 155.751 21.0153 155.751 21.0671Z" stroke="#000000" stroke-width="0.724666" stroke-linecap="round" stroke-linejoin="round" fill="#DADBDB" transform="matrix(1.00062 0 0 1 0 0.250932)"/><path d="M155.7 15.1921 155.7 17.9614 155.441 18.039 155.337 18.0908 154.923 18.2202 154.923 15.4509 155.7 15.1921Z" stroke="#000000" stroke-width="0.724666" stroke-linecap="round" stroke-linejoin="round" fill="#DADBDB" transform="matrix(1.00062 0 0 1 0 0.250932)"/><path d="M155.648 20.9635 155.493 20.9118 155.493 20.9118C155.493 20.9118 155.57 20.9118 155.622 20.9635Z" stroke="#000000" stroke-width="0.724666" stroke-linecap="round" stroke-linejoin="round" fill="#DADBDB" transform="matrix(1.00062 0 0 1 0 0.250932)"/><path d="M155.337 19.0742 155.337 18.0908 155.441 18.039 155.441 19.1001 155.337 19.0742Z" stroke="#000000" stroke-width="0.724666" stroke-linecap="round" stroke-linejoin="round" fill="#DADBDB" transform="matrix(1.00062 0 0 1 0 0.250932)"/><path d="M155.441 19.126 158.314 20.1095 157.563 20.3942 154.664 19.3848 154.664 19.3072 155.337 19.0742 155.441 19.1001 155.441 19.126Z" stroke="#000000" stroke-width="0.724666" stroke-linecap="round" stroke-linejoin="round" fill="#DADBDB" transform="matrix(1.00062 0 0 1 0 0.250932)"/><path d="M155.493 20.9118 155.234 20.8341 155.311 20.8341C155.311 20.8341 155.467 20.86 155.467 20.86 155.493 20.86 155.518 20.86 155.518 20.86L155.518 20.86Z" stroke="#000000" stroke-width="0.724666" stroke-linecap="round" stroke-linejoin="round" fill="#DADBDB" transform="matrix(1.00062 0 0 1 0 0.250932)"/><path d="M154.664 19.3072 154.664 18.2978 154.923 18.2202 155.337 18.0908 155.337 19.0742 154.664 19.3072Z" stroke="#000000" stroke-width="0.724666" stroke-linecap="round" stroke-linejoin="round" fill="#DADBDB" transform="matrix(1.00062 0 0 1 0 0.250932)"/><path d="M154.664 15.3733 154.923 15.4509 154.923 18.2202 154.664 18.2978 154.664 15.3733Z" stroke="#000000" stroke-width="0.724666" stroke-linecap="round" stroke-linejoin="round" fill="#DADBDB" transform="matrix(1.00062 0 0 1 0 0.250932)"/><path d="M154.664 15.3733 155.441 15.0886 155.7 15.1921 154.923 15.4509 154.664 15.3733Z" stroke="#000000" stroke-width="0.724666" stroke-linecap="round" stroke-linejoin="round" fill="#DADBDB" transform="matrix(1.00062 0 0 1 0 0.250932)"/><path d="M152.387 22.1541 153.163 21.8953 153.163 21.9729 153.163 23.474 152.387 23.7328 152.387 22.1541Z" stroke="#000000" stroke-width="0.724666" stroke-linecap="round" stroke-linejoin="round" fill="#DADBDB" transform="matrix(1.00062 0 0 1 0 0.250932)"/><path d="M153.06 21.8435 152.904 21.7917 152.904 21.7917C152.904 21.7917 152.982 21.7917 153.034 21.8435Z" stroke="#000000" stroke-width="0.724666" stroke-linecap="round" stroke-linejoin="round" fill="#DADBDB" transform="matrix(1.00062 0 0 1 0 0.250932)"/><path d="M152.335 16.3309 153.111 16.072 153.111 18.8413 152.853 18.9448 152.723 18.9707 152.723 18.9966 152.335 19.126 152.335 16.3309Z" stroke="#000000" stroke-width="0.724666" stroke-linecap="round" stroke-linejoin="round" fill="#DADBDB" transform="matrix(1.00062 0 0 1 0 0.250932)"/><path d="M152.904 21.7917 152.672 21.7141C152.672 21.7141 152.723 21.7141 152.723 21.7141L152.879 21.7659 152.904 21.7659Z" stroke="#000000" stroke-width="0.724666" stroke-linecap="round" stroke-linejoin="round" fill="#DADBDB" transform="matrix(1.00062 0 0 1 0 0.250932)"/><path d="M154.975 21.2741 152.076 20.2648 152.076 20.1871 152.723 19.9801 154.664 20.6271 155.234 20.8341 155.493 20.9118 155.648 20.9635 155.751 21.0153 154.975 21.2741Z" stroke="#000000" stroke-width="0.724666" stroke-linecap="round" stroke-linejoin="round" fill="#DADBDB" transform="matrix(1.00062 0 0 1 0 0.250932)"/><path d="M152.723 19.9801 152.076 20.1871 152.076 19.2036 152.335 19.126 152.723 18.9966 152.723 19.9801Z" stroke="#000000" stroke-width="0.724666" stroke-linecap="round" stroke-linejoin="round" fill="#DADBDB" transform="matrix(1.00062 0 0 1 0 0.250932)"/><path d="M152.076 19.2036 152.076 16.2532 152.335 16.3309 152.335 19.126 152.076 19.2036Z" stroke="#000000" stroke-width="0.724666" stroke-linecap="round" stroke-linejoin="round" fill="#DADBDB" transform="matrix(1.00062 0 0 1 0 0.250932)"/><path d="M152.335 16.3309 152.076 16.2532 152.853 15.9944 153.111 16.072 152.335 16.3309Z" stroke="#000000" stroke-width="0.724666" stroke-linecap="round" stroke-linejoin="round" fill="#DADBDB" transform="matrix(1.00062 0 0 1 0 0.250932)"/><path d="M150.575 10.2747 151.869 10.7147 150.575 11.1547 150.575 10.2747Z" stroke="#000000" stroke-width="0.724666" stroke-linecap="round" stroke-linejoin="round" fill="#DADBDB" transform="matrix(1.00062 0 0 1 0 0.250932)"/><path d="M150.575 24.3539 149.799 24.6128 149.799 23.034 150.575 22.7752 150.575 22.8528 150.575 24.3539Z" stroke="#000000" stroke-width="0.724666" stroke-linecap="round" stroke-linejoin="round" fill="#DADBDB" transform="matrix(1.00062 0 0 1 0 0.250932)"/><path d="M150.316 22.6976 150.083 22.594C150.083 22.594 150.083 22.594 150.135 22.594L150.29 22.6458 150.342 22.6458C150.342 22.6458 150.394 22.6458 150.42 22.7234L150.316 22.7234Z" stroke="#000000" stroke-width="0.724666" stroke-linecap="round" stroke-linejoin="round" fill="#DADBDB" transform="matrix(1.00062 0 0 1 0 0.250932)"/><path d="M150.006 22.5682C150.006 22.5682 150.032 22.5682 150.058 22.594L150.006 22.594Z" stroke="#000000" stroke-width="0.724666" stroke-linecap="round" stroke-linejoin="round" fill="#DADBDB" transform="matrix(1.00062 0 0 1 0 0.250932)"/><path d="M150.575 9.78299 149.747 9.4983 150.058 9.36889 152.904 10.3524 151.869 10.7147 150.575 10.2747 150.575 9.78299Z" stroke="#000000" stroke-width="0.724666" stroke-linecap="round" stroke-linejoin="round" fill="#DADBDB" transform="matrix(1.00062 0 0 1 0 0.250932)"/><path d="M149.488 21.1706 149.488 21.0671 150.135 20.86 152.076 21.507 152.568 21.6882 152.594 21.6882C152.594 21.6882 152.646 21.7141 152.646 21.7141 152.672 21.6882 152.672 21.7141 152.672 21.7141L152.904 21.7917 153.06 21.8435 153.163 21.8953 152.387 22.1541 149.488 21.1706Z" stroke="#000000" stroke-width="0.724666" stroke-linecap="round" stroke-linejoin="round" fill="#DADBDB" transform="matrix(1.00062 0 0 1 0 0.250932)"/><path d="M149.747 17.2367 150.523 16.952 150.523 19.7471 150.265 19.8248 150.135 19.8765 149.747 20.0059 149.747 17.2367Z" stroke="#000000" stroke-width="0.724666" stroke-linecap="round" stroke-linejoin="round" fill="#DADBDB" transform="matrix(1.00062 0 0 1 0 0.250932)"/><path d="M149.488 21.0671 149.488 20.0836 149.747 20.0059 150.135 19.8765 150.135 20.86 149.488 21.0671Z" stroke="#000000" stroke-width="0.724666" stroke-linecap="round" stroke-linejoin="round" fill="#DADBDB" transform="matrix(1.00062 0 0 1 0 0.250932)"/><path d="M149.747 17.2367 149.488 17.1332 150.265 16.8744 150.523 16.952 149.747 17.2367Z" stroke="#000000" stroke-width="0.724666" stroke-linecap="round" stroke-linejoin="round" fill="#DADBDB" transform="matrix(1.00062 0 0 1 0 0.250932)"/><path d="M149.488 20.0836 149.488 17.1332 149.747 17.2367 149.747 20.0059 149.488 20.0836Z" stroke="#000000" stroke-width="0.724666" stroke-linecap="round" stroke-linejoin="round" fill="#DADBDB" transform="matrix(1.00062 0 0 1 0 0.250932)"/><path d="M147.211 23.9398 147.961 23.6552 147.987 23.6552 147.987 23.7328 147.987 23.7587 147.987 25.2339 147.211 25.5186 147.211 23.9398Z" stroke="#000000" stroke-width="0.724666" stroke-linecap="round" stroke-linejoin="round" fill="#DADBDB" transform="matrix(1.00062 0 0 1 0 0.250932)"/><path d="M147.78 23.5775 147.728 23.5775C147.728 23.5775 147.78 23.5775 147.78 23.5775Z" stroke="#000000" stroke-width="0.724666" stroke-linecap="round" stroke-linejoin="round" fill="none" transform="matrix(1.00062 0 0 1 0 0.250932)"/><path d="M147.677 20.7047 147.677 21.7917 147.547 21.74 147.547 20.7565 147.677 20.7047Z" stroke="#000000" stroke-width="0.724666" stroke-linecap="round" stroke-linejoin="round" fill="#DADBDB" transform="matrix(1.00062 0 0 1 0 0.250932)"/><path d="M149.799 23.034 146.874 22.0505 146.874 21.9729 147.547 21.74 147.677 21.7917 149.488 22.4129 149.954 22.5682 150.032 22.5682C150.032 22.5682 150.032 22.594 150.032 22.594L150.058 22.594 150.29 22.6976 150.394 22.6976C150.394 22.6976 150.42 22.7234 150.42 22.7234L150.549 22.7752 149.773 23.034Z" stroke="#000000" stroke-width="0.724666" stroke-linecap="round" stroke-linejoin="round" fill="#DADBDB" transform="matrix(1.00062 0 0 1 0 0.250932)"/><path d="M147.728 23.5516 147.495 23.474 147.547 23.474 147.702 23.5258 147.728 23.5258Z" stroke="#000000" stroke-width="0.724666" stroke-linecap="round" stroke-linejoin="round" fill="#DADBDB" transform="matrix(1.00062 0 0 1 0 0.250932)"/><path d="M147.418 23.4481C147.418 23.4481 147.444 23.4481 147.469 23.4481L147.418 23.4481Z" stroke="#000000" stroke-width="0.724666" stroke-linecap="round" stroke-linejoin="round" fill="none" transform="matrix(1.00062 0 0 1 0 0.250932)"/><path d="M147.133 18.1166 147.935 17.8578 147.935 20.6271 147.677 20.7047 147.547 20.7565 147.133 20.8859 147.133 18.1166Z" stroke="#000000" stroke-width="0.724666" stroke-linecap="round" stroke-linejoin="round" fill="#DADBDB" transform="matrix(1.00062 0 0 1 0 0.250932)"/><path d="M147.133 20.8859 147.547 20.7565 147.547 21.74 146.874 21.9729 146.874 20.9635 147.133 20.8859Z" stroke="#000000" stroke-width="0.724666" stroke-linecap="round" stroke-linejoin="round" fill="#DADBDB" transform="matrix(1.00062 0 0 1 0 0.250932)"/><path d="M147.935 17.8578 147.133 18.1166 146.874 18.039 147.677 17.7543 147.935 17.8578Z" stroke="#000000" stroke-width="0.724666" stroke-linecap="round" stroke-linejoin="round" fill="#DADBDB" transform="matrix(1.00062 0 0 1 0 0.250932)"/><path d="M147.133 18.1166 147.133 20.8859 146.874 20.9635 146.874 18.039 147.133 18.1166Z" stroke="#000000" stroke-width="0.724666" stroke-linecap="round" stroke-linejoin="round" fill="#DADBDB" transform="matrix(1.00062 0 0 1 0 0.250932)"/><path d="M146.512 11.1806 150.575 9.78299 150.575 10.2747 150.575 11.1547 147.858 12.0864 146.512 11.6205 146.512 11.1806Z" stroke="#000000" stroke-width="0.724666" stroke-linecap="round" stroke-linejoin="round" fill="#DADBDB" transform="matrix(1.00062 0 0 1 0 0.250932)"/><path d="M145.451 11.7241 146.124 11.4911 146.512 11.6205 147.858 12.0864 147.081 12.3452 145.451 11.8017 145.451 11.7241Z" stroke="#000000" stroke-width="0.724666" stroke-linecap="round" stroke-linejoin="round" fill="#DADBDB" transform="matrix(1.00062 0 0 1 0 0.250932)"/><path d="M145.451 12.9146 145.451 11.8017 147.081 12.3452 145.451 12.9146Z" stroke="#000000" stroke-width="0.724666" stroke-linecap="round" stroke-linejoin="round" fill="#DADBDB" transform="matrix(1.00062 0 0 1 0 0.250932)"/><path d="M144.597 24.8198 145.373 24.561 145.373 24.6128 145.373 24.6386 145.373 26.1397 144.597 26.3985 144.597 24.8198Z" stroke="#000000" stroke-width="0.724666" stroke-linecap="round" stroke-linejoin="round" fill="#DADBDB" transform="matrix(1.00062 0 0 1 0 0.250932)"/><path d="M145.27 24.5092 145.114 24.4575 145.14 24.4575C145.14 24.4575 145.218 24.4833 145.27 24.5092Z" stroke="#000000" stroke-width="0.724666" stroke-linecap="round" stroke-linejoin="round" fill="#DADBDB" transform="matrix(1.00062 0 0 1 0 0.250932)"/><path d="M144.959 21.6364 145.063 21.6106 145.063 22.6458 144.959 22.6199 144.959 21.6364Z" stroke="#000000" stroke-width="0.724666" stroke-linecap="round" stroke-linejoin="round" fill="#DADBDB" transform="matrix(1.00062 0 0 1 0 0.250932)"/><path d="M144.959 21.6364 144.545 21.7659 144.545 18.9966 145.321 18.7378 145.321 21.507 145.063 21.6106 144.959 21.6364Z" stroke="#000000" stroke-width="0.724666" stroke-linecap="round" stroke-linejoin="round" fill="#DADBDB" transform="matrix(1.00062 0 0 1 0 0.250932)"/><path d="M144.907 24.3539 144.907 24.3539 145.088 24.4057C145.088 24.4057 145.114 24.4057 145.114 24.4057L145.088 24.4057C145.088 24.4057 144.83 24.3539 144.83 24.3539L144.881 24.3539Z" stroke="#000000" stroke-width="0.724666" stroke-linecap="round" stroke-linejoin="round" fill="#DADBDB" transform="matrix(1.00062 0 0 1 0 0.250932)"/><path d="M144.907 24.3539 144.855 24.3539C144.855 24.3539 144.778 24.3539 144.778 24.3539 144.778 24.3281 144.804 24.3281 144.83 24.3281 144.855 24.3281 144.881 24.3539 144.907 24.3539Z" stroke="#000000" stroke-width="0.724666" stroke-linecap="round" stroke-linejoin="round" fill="#DADBDB" transform="matrix(1.00062 0 0 1 0 0.250932)"/><path d="M147.211 23.9398 144.286 22.9305 144.286 22.8528 144.959 22.6199 145.063 22.6199 145.063 22.6717 146.874 23.2669 147.366 23.4481 147.444 23.4481C147.444 23.4481 147.444 23.4481 147.444 23.4481L147.469 23.4481 147.702 23.5258 147.702 23.5258C147.702 23.5258 147.754 23.5516 147.754 23.5516L147.935 23.6293 147.185 23.914Z" stroke="#000000" stroke-width="0.724666" stroke-linecap="round" stroke-linejoin="round" fill="#DADBDB" transform="matrix(1.00062 0 0 1 0 0.250932)"/><path d="M143.898 12.0605 145.451 11.517 145.451 11.7241 145.451 11.8017 145.451 12.9146 145.27 12.9663 143.898 12.5005 143.898 12.0605Z" stroke="#000000" stroke-width="0.724666" stroke-linecap="round" stroke-linejoin="round" fill="#DADBDB" transform="matrix(1.00062 0 0 1 0 0.250932)"/><path d="M144.959 22.6199 144.286 22.8528 144.286 21.8435 144.545 21.7659 144.959 21.6364 144.959 22.6199Z" stroke="#000000" stroke-width="0.724666" stroke-linecap="round" stroke-linejoin="round" fill="#DADBDB" transform="matrix(1.00062 0 0 1 0 0.250932)"/><path d="M144.286 18.9189 144.545 18.9966 144.545 21.7659 144.286 21.8435 144.286 18.9189Z" stroke="#000000" stroke-width="0.724666" stroke-linecap="round" stroke-linejoin="round" fill="#DADBDB" transform="matrix(1.00062 0 0 1 0 0.250932)"/><path d="M144.286 18.9189 145.063 18.6601 145.321 18.7378 144.545 18.9966 144.286 18.9189Z" stroke="#000000" stroke-width="0.724666" stroke-linecap="round" stroke-linejoin="round" fill="#DADBDB" transform="matrix(1.00062 0 0 1 0 0.250932)"/><path d="M145.451 11.517 144.027 11.0253 144.674 10.7923C144.674 10.7923 144.804 10.7406 144.855 10.7406L145.037 10.7406C145.192 10.7665 145.321 10.7923 145.425 10.87 145.554 10.9217 145.684 11.0253 145.787 11.1288 145.917 11.2323 146.02 11.3617 146.124 11.4911L145.451 11.7241 145.451 11.517Z" stroke="#000000" stroke-width="0.724666" stroke-linecap="round" stroke-linejoin="round" fill="#DADBDB" transform="matrix(1.00062 0 0 1 0 0.250932)"/><path d="M143.898 10.2747 146.512 11.1806 146.512 11.6205 146.124 11.4911C146.124 11.4911 145.917 11.2323 145.787 11.1288 145.684 11.0253 145.554 10.9217 145.425 10.87 145.321 10.7923 145.192 10.7665 145.037 10.7406L144.855 10.7406C144.855 10.7406 144.752 10.7665 144.674 10.7923L144.027 11.0253 143.898 11.0253 143.898 10.2747Z" stroke="#000000" stroke-width="0.724666" stroke-linecap="round" stroke-linejoin="round" fill="#DADBDB" transform="matrix(1.00062 0 0 1 0 0.250932)"/><path d="M143.898 10.2747 143.898 10.9994 142.863 10.6371 143.898 10.2747Z" stroke="#000000" stroke-width="0.724666" stroke-linecap="round" stroke-linejoin="round" fill="#DADBDB" transform="matrix(1.00062 0 0 1 0 0.250932)"/><path d="M142.863 12.6816 144.467 13.251 142.863 13.7945 142.863 12.6816Z" stroke="#000000" stroke-width="0.724666" stroke-linecap="round" stroke-linejoin="round" fill="#DADBDB" transform="matrix(1.00062 0 0 1 0 0.250932)"/><path d="M144.467 13.251 142.863 12.6816 142.863 12.604 143.536 12.3711 143.898 12.5005 145.27 12.9663 144.493 13.251 144.467 13.251Z" stroke="#000000" stroke-width="0.724666" stroke-linecap="round" stroke-linejoin="round" fill="#DADBDB" transform="matrix(1.00062 0 0 1 0 0.250932)"/><path d="M141.31 12.9405 142.863 12.397 142.863 12.604 142.863 12.6816 142.863 13.7945 142.681 13.8722 142.656 13.8722 141.31 13.4063 141.31 12.9405Z" stroke="#000000" stroke-width="0.724666" stroke-linecap="round" stroke-linejoin="round" fill="#DADBDB" transform="matrix(1.00062 0 0 1 0 0.250932)"/><path d="M142.474 25.4151 142.552 25.3374C142.552 25.3374 142.681 25.3633 142.707 25.4151 142.733 25.4409 142.785 25.4927 142.785 25.5186L142.474 25.6221 142.474 25.4409 142.474 25.4409Z" stroke="#000000" stroke-width="0.724666" stroke-linecap="round" stroke-linejoin="round" fill="#DADBDB" transform="matrix(1.00062 0 0 1 0 0.250932)"/><path d="M142.345 25.5962 142.474 25.4409 142.474 25.6221 142.345 25.5962Z" stroke="#000000" stroke-width="0.724666" stroke-linecap="round" stroke-linejoin="round" fill="#DADBDB" transform="matrix(1.00062 0 0 1 0 0.250932)"/><path d="M142.345 22.5423 141.957 22.6717 141.957 19.9024 142.733 19.6177 142.733 22.387 142.474 22.4905 142.345 22.5164 142.345 22.5423Z" stroke="#000000" stroke-width="0.724666" stroke-linecap="round" stroke-linejoin="round" fill="#DADBDB" transform="matrix(1.00062 0 0 1 0 0.250932)"/><path d="M142.112 25.2339 142.293 25.2339 141.957 25.3633 142.034 25.2857C142.034 25.2857 142.086 25.2857 142.112 25.2339Z" stroke="#000000" stroke-width="0.724666" stroke-linecap="round" stroke-linejoin="round" fill="#DADBDB" transform="matrix(1.00062 0 0 1 0 0.250932)"/><path d="M144.597 24.8198 141.698 23.8363 141.698 23.7328 142.345 23.5258 144.286 24.1728 144.778 24.3539 144.855 24.3798 145.114 24.4575 145.27 24.5092 145.373 24.561 144.597 24.8198Z" stroke="#000000" stroke-width="0.724666" stroke-linecap="round" stroke-linejoin="round" fill="#DADBDB" transform="matrix(1.00062 0 0 1 0 0.250932)"/><path d="M141.698 25.6998 141.957 25.3633 142.293 25.2339C142.293 25.2339 142.319 25.2339 142.345 25.2339L142.5 25.2857C142.5 25.2857 142.5 25.2857 142.552 25.3115L142.474 25.3892 142.474 25.3892C142.474 25.3892 142.345 25.5703 142.345 25.5703L141.698 25.7774 141.698 25.6739Z" stroke="#000000" stroke-width="0.724666" stroke-linecap="round" stroke-linejoin="round" fill="#DADBDB" transform="matrix(1.00062 0 0 1 0 0.250932)"/><path d="M142.345 23.5258 141.698 23.7328 141.698 22.7493 141.957 22.6717 142.345 22.5423 142.345 23.5258Z" stroke="#000000" stroke-width="0.724666" stroke-linecap="round" stroke-linejoin="round" fill="#DADBDB" transform="matrix(1.00062 0 0 1 0 0.250932)"/><path d="M141.698 19.7989 142.474 19.5401 142.733 19.6177 141.957 19.9024 141.698 19.7989Z" stroke="#000000" stroke-width="0.724666" stroke-linecap="round" stroke-linejoin="round" fill="#DADBDB" transform="matrix(1.00062 0 0 1 0 0.250932)"/><path d="M141.698 19.7989 141.957 19.9024 141.957 22.6717 141.698 22.7493 141.698 19.7989Z" stroke="#000000" stroke-width="0.724666" stroke-linecap="round" stroke-linejoin="round" fill="#DADBDB" transform="matrix(1.00062 0 0 1 0 0.250932)"/><path d="M142.397 12.2417 141.439 11.9052C141.439 11.9052 141.594 11.8793 141.672 11.9052 141.75 11.9052 141.827 11.9311 141.905 11.957 142.034 11.9829 142.164 12.0605 142.267 12.1382 142.319 12.164 142.345 12.1899 142.397 12.2417Z" stroke="#000000" stroke-width="0.724666" stroke-linecap="round" stroke-linejoin="round" fill="#DADBDB" transform="matrix(1.00062 0 0 1 0 0.250932)"/><path d="M143.199 12.0087C143.199 12.0087 143.432 12.2417 143.536 12.3711L142.863 12.604 142.863 12.397 142.397 12.2417C142.397 12.2417 142.319 12.164 142.267 12.1382 142.164 12.0605 142.034 11.9829 141.905 11.957 141.827 11.957 141.75 11.9052 141.672 11.9052 141.594 11.8793 141.517 11.9052 141.439 11.9052L142.086 11.6723C142.086 11.6723 142.216 11.6723 142.267 11.6205L142.449 11.6205C142.449 11.6205 142.707 11.6982 142.837 11.7499 142.966 11.8017 143.096 11.9052 143.199 12.0087Z" stroke="#000000" stroke-width="0.724666" stroke-linecap="round" stroke-linejoin="round" fill="#DADBDB" transform="matrix(1.00062 0 0 1 0 0.250932)"/><path d="M141.31 11.1806 143.898 12.0605 143.898 12.5005 143.536 12.3711C143.536 12.3711 143.329 12.1123 143.199 12.0087 143.096 11.9052 142.966 11.8017 142.837 11.7499 142.707 11.6982 142.578 11.6464 142.449 11.6205L142.267 11.6205C142.267 11.6205 142.138 11.6205 142.086 11.6723L141.439 11.9052 141.31 11.9052 141.31 11.1806Z" stroke="#000000" stroke-width="0.724666" stroke-linecap="round" stroke-linejoin="round" fill="#DADBDB" transform="matrix(1.00062 0 0 1 0 0.250932)"/><path d="M140.275 11.517 141.31 11.1806 141.31 11.8793 140.275 11.517Z" stroke="#000000" stroke-width="0.724666" stroke-linecap="round" stroke-linejoin="round" fill="#DADBDB" transform="matrix(1.00062 0 0 1 0 0.250932)"/><path d="M140.275 13.5875 141.879 14.131 140.275 14.6745 140.275 13.5875Z" stroke="#000000" stroke-width="0.724666" stroke-linecap="round" stroke-linejoin="round" fill="#DADBDB" transform="matrix(1.00062 0 0 1 0 0.250932)"/><path d="M140.275 13.484 140.922 13.2769 141.31 13.4063 142.656 13.8722 141.879 14.131 140.275 13.5875 140.275 13.484Z" stroke="#000000" stroke-width="0.724666" stroke-linecap="round" stroke-linejoin="round" fill="#DADBDB" transform="matrix(1.00062 0 0 1 0 0.250932)"/><path d="M138.722 13.8204 140.275 13.3028 140.275 13.484 140.275 13.5875 140.275 14.6745 140.068 14.7521 138.722 14.2863 138.722 13.8204Z" stroke="#000000" stroke-width="0.724666" stroke-linecap="round" stroke-linejoin="round" fill="#DADBDB" transform="matrix(1.00062 0 0 1 0 0.250932)"/><path d="M140.145 24.7163 137.557 23.8104 137.557 22.827 138.075 22.6458 138.075 21.9729 140.145 21.2482 140.145 24.7163Z" stroke="#000000" stroke-width="0.724666" stroke-linecap="round" stroke-linejoin="round" fill="#DADBDB" transform="matrix(1.00062 0 0 1 0 0.250932)"/><path d="M139.317 12.8369C139.317 12.8369 139.162 12.7852 139.084 12.7852L138.851 12.7852 139.498 12.5522C139.498 12.5522 139.628 12.5264 139.679 12.5264 139.731 12.5264 139.809 12.5264 139.86 12.5264 139.99 12.5264 140.119 12.5781 140.249 12.6299 140.378 12.7075 140.507 12.7852 140.611 12.8887 140.74 12.9922 140.844 13.1216 140.922 13.2769L140.275 13.484 140.275 13.3028 139.783 13.1216C139.783 13.1216 139.705 13.0699 139.679 13.0181 139.576 12.9405 139.446 12.8887 139.317 12.8369Z" stroke="#000000" stroke-width="0.724666" stroke-linecap="round" stroke-linejoin="round" fill="#DADBDB" transform="matrix(1.00062 0 0 1 0 0.250932)"/><path d="M139.498 12.5522 138.851 12.7852 138.722 12.7852 138.722 12.0605 141.31 12.9405 141.31 13.4063 140.922 13.2769C140.844 13.1216 140.74 12.9922 140.611 12.8887 140.507 12.7852 140.378 12.7075 140.249 12.6299 140.119 12.5781 139.99 12.5264 139.86 12.5264 139.809 12.5264 139.731 12.5264 139.679 12.5264 139.628 12.5264 139.55 12.5264 139.498 12.5522Z" stroke="#000000" stroke-width="0.724666" stroke-linecap="round" stroke-linejoin="round" fill="#DADBDB" transform="matrix(1.00062 0 0 1 0 0.250932)"/><path d="M139.084 12.7852C139.084 12.7852 139.239 12.8111 139.317 12.8369 139.446 12.8887 139.576 12.9405 139.679 13.0181 139.679 13.0699 139.757 13.0957 139.783 13.1216L138.799 12.7852 139.084 12.7852Z" stroke="#000000" stroke-width="0.724666" stroke-linecap="round" stroke-linejoin="round" fill="#DADBDB" transform="matrix(1.00062 0 0 1 0 0.250932)"/><path d="M137.686 12.397 138.722 12.0605 138.722 12.7593 137.686 12.397Z" stroke="#000000" stroke-width="0.724666" stroke-linecap="round" stroke-linejoin="round" fill="#DADBDB" transform="matrix(1.00062 0 0 1 0 0.250932)"/><path d="M138.075 24.7163 137.246 25.001 137.246 24.4316 138.075 24.7163Z" stroke="#000000" stroke-width="0.724666" stroke-linecap="round" stroke-linejoin="round" fill="#DADBDB" transform="matrix(1.00062 0 0 1 0 0.250932)"/><path d="M137.686 14.3898 138.333 14.1569 138.722 14.2863 140.068 14.7521 139.291 15.0109 137.686 14.4674 137.686 14.3898Z" stroke="#000000" stroke-width="0.724666" stroke-linecap="round" stroke-linejoin="round" fill="#DADBDB" transform="matrix(1.00062 0 0 1 0 0.250932)"/><path d="M137.686 14.4674 139.291 15.0109 137.686 15.5544 137.686 14.4674Z" stroke="#000000" stroke-width="0.724666" stroke-linecap="round" stroke-linejoin="round" fill="#DADBDB" transform="matrix(1.00062 0 0 1 0 0.250932)"/><path d="M137.557 23.8104 137.246 23.914 137.246 22.9305 137.557 22.827 137.557 23.8104Z" stroke="#000000" stroke-width="0.724666" stroke-linecap="round" stroke-linejoin="round" fill="#DADBDB" transform="matrix(1.00062 0 0 1 0 0.250932)"/><path d="M138.075 24.7163 137.246 24.4316 137.246 23.914 137.557 23.8104 140.145 24.7163 138.075 25.4151 138.075 24.7163Z" stroke="#000000" stroke-width="0.724666" stroke-linecap="round" stroke-linejoin="round" fill="#DADBDB" transform="matrix(1.00062 0 0 1 0 0.250932)"/><path d="M136.134 14.7262 137.686 14.1827 137.686 14.3898 137.686 14.4674 137.686 15.5544 137.686 15.5803 137.479 15.6321 136.134 15.1662 136.134 14.7262Z" stroke="#000000" stroke-width="0.724666" stroke-linecap="round" stroke-linejoin="round" fill="#DADBDB" transform="matrix(1.00062 0 0 1 0 0.250932)"/><path d="M137.195 14.0016 136.237 13.691C136.237 13.691 136.392 13.6651 136.47 13.6651 136.574 13.691 136.651 13.691 136.729 13.7169 136.858 13.7686 136.962 13.8463 137.091 13.9239 137.091 13.9498 137.169 13.9757 137.195 14.0016Z" stroke="#000000" stroke-width="0.724666" stroke-linecap="round" stroke-linejoin="round" fill="#DADBDB" transform="matrix(1.00062 0 0 1 0 0.250932)"/><path d="M136.729 13.7169C136.729 13.7169 136.574 13.691 136.47 13.6651 136.392 13.6651 136.315 13.6651 136.237 13.691L136.91 13.4581C136.91 13.4581 137.014 13.4063 137.091 13.4063L137.272 13.4063C137.272 13.4063 137.531 13.4581 137.661 13.5098 137.79 13.5875 137.894 13.6651 138.023 13.7686 138.152 13.8981 138.256 14.0275 138.333 14.1569L137.686 14.3898 137.686 14.1827 137.195 14.0016C137.195 14.0016 137.117 13.9498 137.091 13.9239 136.962 13.8463 136.858 13.7686 136.729 13.7169Z" stroke="#000000" stroke-width="0.724666" stroke-linecap="round" stroke-linejoin="round" fill="#DADBDB" transform="matrix(1.00062 0 0 1 0 0.250932)"/><path d="M137.246 25.001 138.075 24.7163 138.075 25.4151 140.145 24.7163 140.145 21.2482 138.075 21.9729 138.075 22.6458 137.557 22.827 137.246 22.9305 137.246 25.001ZM157.304 15.3991 156.994 15.5027 156.994 18.9448 159.09 18.2202 159.09 17.5473 159.918 17.2626 159.918 15.1921 159.09 15.4768 159.09 14.778 158.107 15.1145 158.107 15.1145 157.33 15.3991ZM155.7 17.9614 155.7 15.1921 155.441 15.0886 154.664 15.3733 154.664 20.6271 152.723 19.9801 152.723 18.9966 152.723 18.9966C152.723 18.9966 152.853 18.9448 152.853 18.9448L153.111 18.8413 153.111 16.072 152.853 15.9944 152.076 16.2532 152.076 21.507 150.135 20.86 150.135 19.8765 150.265 19.8248 150.523 19.7471 150.523 16.952 150.265 16.8744 149.488 17.1332 149.488 22.4129 147.677 21.7917 147.677 20.7047 147.935 20.6271 147.935 17.8578 147.677 17.7543 146.874 18.039 146.874 23.2669 145.063 22.6717 145.063 22.6717 145.063 21.6106 145.321 21.507 145.321 18.7378 145.063 18.6601 144.286 18.9189 144.286 24.1728 142.345 23.5258 142.345 22.5423 142.345 22.5423C142.345 22.5423 142.474 22.4905 142.474 22.4905L142.733 22.387 142.733 19.6177 142.474 19.5401 141.698 19.7989 141.698 25.9068 136.211 27.7702 136.211 20.8859 160.953 12.4228 160.953 19.3072 158.339 20.1871 158.339 20.1095 158.339 20.1095 155.467 19.126 155.467 19.126 155.467 18.039 155.725 17.9614Z" stroke="#000000" stroke-width="0.724666" stroke-linecap="round" stroke-linejoin="round" fill="#DADBDB" transform="matrix(1.00062 0 0 1 0 0.250932)"/><path d="M136.237 13.691 136.237 13.691 136.16 13.6392 136.16 12.9405 138.748 13.8204 138.748 14.2863 138.359 14.1569C138.359 14.1569 138.178 13.8981 138.049 13.7686 137.919 13.6651 137.816 13.5875 137.686 13.5098 137.557 13.4581 137.428 13.4063 137.298 13.4063L137.117 13.4063C137.117 13.4063 136.988 13.4063 136.936 13.4581L136.263 13.691Z" stroke="#000000" stroke-width="0.724666" stroke-linecap="round" stroke-linejoin="round" fill="#DADBDB" transform="matrix(1.00062 0 0 1 0 0.250932)"/><path d="M135.098 13.3028 136.134 12.9405 136.134 13.6392 135.098 13.3028Z" stroke="#000000" stroke-width="0.724666" stroke-linecap="round" stroke-linejoin="round" fill="#DADBDB" transform="matrix(1.00062 0 0 1 0 0.250932)"/><path d="M135.098 16.4603 135.098 15.3474 136.703 15.8909 135.098 16.4603Z" stroke="#000000" stroke-width="0.724666" stroke-linecap="round" stroke-linejoin="round" fill="#DADBDB" transform="matrix(1.00062 0 0 1 0 0.250932)"/><path d="M135.098 15.2697 135.745 15.0368 136.134 15.1662 137.479 15.6321 136.703 15.8909 135.098 15.3474 135.098 15.2697Z" stroke="#000000" stroke-width="0.724666" stroke-linecap="round" stroke-linejoin="round" fill="#DADBDB" transform="matrix(1.00062 0 0 1 0 0.250932)"/><path d="M133.52 15.6062 135.098 15.0627 135.098 15.2697 135.098 15.3474 135.098 16.4603 134.891 16.512 133.52 16.072 133.52 15.6062Z" stroke="#000000" stroke-width="0.724666" stroke-linecap="round" stroke-linejoin="round" fill="#DADBDB" transform="matrix(1.00062 0 0 1 0 0.250932)"/><path d="M160.953 12.4228 136.211 20.8859 129.198 18.479 132.484 17.3402 134.115 16.7967 134.891 16.512 135.098 16.4603 136.703 15.8909 137.479 15.6321 137.686 15.5803 137.686 15.5544 139.291 15.0109 140.068 14.7521 140.275 14.6745 141.879 14.131 142.656 13.8722 142.681 13.8722 142.863 13.7945 144.467 13.251 144.493 13.251 145.27 12.9663 145.451 12.9146 147.081 12.3452 147.858 12.0864 150.575 11.1547 151.869 10.7147 152.904 10.3524 153.914 10.0159 160.953 12.4228Z" stroke="#000000" stroke-width="0.724666" stroke-linecap="round" stroke-linejoin="round" fill="#DADBDB" transform="matrix(1.00062 0 0 1 0 0.250932)"/><path d="M134.115 14.6227C134.244 14.6486 134.374 14.7262 134.477 14.8039 134.529 14.8298 134.555 14.8556 134.581 14.8815L133.675 14.571C133.675 14.571 133.804 14.5451 133.882 14.571 133.96 14.571 134.037 14.5968 134.115 14.6227Z" stroke="#000000" stroke-width="0.724666" stroke-linecap="round" stroke-linejoin="round" fill="#DADBDB" transform="matrix(1.00062 0 0 1 0 0.250932)"/><path d="M134.477 14.8039C134.477 14.8039 134.244 14.6486 134.115 14.6227 134.037 14.6227 133.96 14.571 133.882 14.571 133.804 14.5451 133.753 14.5451 133.675 14.571L134.322 14.338C134.322 14.338 134.425 14.3121 134.477 14.2863L134.684 14.2863C134.684 14.2863 134.943 14.338 135.047 14.4157 135.202 14.4674 135.305 14.571 135.435 14.6745 135.538 14.778 135.642 14.9074 135.745 15.0368L135.098 15.2697 135.098 15.0627 134.607 14.9074C134.607 14.9074 134.607 14.9074 134.581 14.9074 134.581 14.9074 134.529 14.8556 134.477 14.8298Z" stroke="#000000" stroke-width="0.724666" stroke-linecap="round" stroke-linejoin="round" fill="#DADBDB" transform="matrix(1.00062 0 0 1 0 0.250932)"/><path d="M133.623 14.571 133.52 14.571 133.52 13.8204 136.134 14.7262 136.134 15.1662 135.745 15.0368C135.642 14.9074 135.538 14.778 135.435 14.6745 135.305 14.571 135.202 14.4674 135.047 14.4157 134.943 14.338 134.814 14.3121 134.684 14.2863L134.477 14.2863C134.477 14.2863 134.374 14.3121 134.322 14.338L133.675 14.571 133.623 14.571Z" stroke="#000000" stroke-width="0.724666" stroke-linecap="round" stroke-linejoin="round" fill="#DADBDB" transform="matrix(1.00062 0 0 1 0 0.250932)"/><path d="M132.484 14.1827 133.52 13.8204 133.52 14.5192 132.484 14.1827Z" stroke="#000000" stroke-width="0.724666" stroke-linecap="round" stroke-linejoin="round" fill="#DADBDB" transform="matrix(1.00062 0 0 1 0 0.250932)"/><path d="M132.484 16.2273 134.115 16.7967 132.484 17.3402 132.484 16.2273Z" stroke="#000000" stroke-width="0.724666" stroke-linecap="round" stroke-linejoin="round" fill="#DADBDB" transform="matrix(1.00062 0 0 1 0 0.250932)"/><path d="M134.115 16.7967 132.484 16.2273 132.484 16.1497 133.157 15.9426 133.52 16.072 134.891 16.512 134.115 16.7967Z" stroke="#000000" stroke-width="0.724666" stroke-linecap="round" stroke-linejoin="round" fill="#DADBDB" transform="matrix(1.00062 0 0 1 0 0.250932)"/><path d="M128.421 17.3402 132.484 15.9685 132.484 16.1497 132.484 16.2273 132.484 17.3402 129.198 18.479 129.172 18.479 128.421 18.1943 128.421 17.3402Z" stroke="#000000" stroke-width="0.724666" stroke-linecap="round" stroke-linejoin="round" fill="#DADBDB" transform="matrix(1.00062 0 0 1 0 0.250932)"/><path d="M131.889 15.1921C131.889 15.1921 131.786 15.1921 131.708 15.218L131.061 15.4509 130.932 15.4509 130.932 14.7262 133.52 15.6062 133.52 16.072 133.157 15.9426C133.054 15.7874 132.95 15.658 132.821 15.5544 132.717 15.4509 132.588 15.3733 132.459 15.2956 132.329 15.2439 132.2 15.1921 132.07 15.1921 132.019 15.1921 131.967 15.1921 131.889 15.1921Z" stroke="#000000" stroke-width="0.724666" stroke-linecap="round" stroke-linejoin="round" fill="#DADBDB" transform="matrix(1.00062 0 0 1 0 0.250932)"/><path d="M131.708 15.218C131.708 15.218 131.837 15.1921 131.889 15.1921 131.967 15.1921 132.019 15.1921 132.07 15.1921 132.2 15.1921 132.329 15.2439 132.459 15.2956 132.588 15.3733 132.717 15.4509 132.821 15.5544 132.95 15.658 133.054 15.7874 133.157 15.9426L132.484 16.1497 132.484 15.9685 131.035 15.4509 131.035 15.4509 131.682 15.218Z" stroke="#000000" stroke-width="0.724666" stroke-linecap="round" stroke-linejoin="round" fill="#DADBDB" transform="matrix(1.00062 0 0 1 0 0.250932)"/><path d="M130.932 15.425 129.896 15.0627 130.932 14.7262 130.932 15.425Z" stroke="#000000" stroke-width="0.724666" stroke-linecap="round" stroke-linejoin="round" fill="#DADBDB" transform="matrix(1.00062 0 0 1 0 0.250932)"/><path d="M129.172 19.1778 125.315 17.8578 126.351 17.4955 128.421 18.1943 129.172 18.479 129.172 19.1778Z" stroke="#000000" stroke-width="0.724666" stroke-linecap="round" stroke-linejoin="round" fill="#DADBDB" transform="matrix(1.00062 0 0 1 0 0.250932)"/><path d="M125.315 17.8578 129.172 19.1778 129.172 18.479 129.198 18.479 136.211 20.8859 136.211 27.7702 125.315 24.0434 125.315 23.1893 125.315 20.2389 125.315 19.7213 125.315 17.8578Z" stroke="#000000" stroke-width="0.724666" stroke-linecap="round" stroke-linejoin="round" fill="#DADBDB" transform="matrix(1.00062 0 0 1 0 0.250932)"/><path d="M143.898 12.0605 141.31 11.1806 140.275 11.517 141.31 11.8793 141.413 11.8793C141.413 11.8793 141.439 11.9052 141.439 11.9052L142.397 12.2417 142.863 12.397 141.31 12.9405 138.722 12.0605 137.686 12.397 138.722 12.7593 138.799 12.7593C138.799 12.7593 139.783 13.1216 139.783 13.1216L140.275 13.3028 138.722 13.8204 136.134 12.9405 135.098 13.3028 136.134 13.6392 136.211 13.691 136.211 13.691 137.169 14.0016 137.661 14.1827 136.108 14.7262 133.494 13.8204 132.459 14.1827 133.494 14.5192 133.494 14.5192C133.494 14.5192 133.597 14.571 133.597 14.571L133.649 14.571 134.555 14.8815C134.555 14.8815 134.581 14.8815 134.581 14.8815L135.072 15.0368 133.494 15.5803 130.906 14.7004 129.87 15.0368 130.906 15.3991 131.009 15.3991C131.009 15.3991 132.459 15.9426 132.459 15.9426L128.395 17.3143 124.125 15.865 125.937 15.2439 121.925 13.8722 140.456 7.53135 144.467 8.90304 146.279 8.28189 146.848 8.48894 149.721 9.47242 150.549 9.7571 146.486 11.1547 143.872 10.2488 142.837 10.6112 143.872 10.9735 143.976 10.9735C143.976 10.9735 144.001 10.9735 144.001 10.9735L145.425 11.4652 143.872 12.0087Z" stroke="#000000" stroke-width="0.724666" stroke-linecap="round" stroke-linejoin="round" fill="#DADBDB" transform="matrix(1.00062 0 0 1 0 0.250932)"/><path d="M123.737 19.6954 124.487 19.4366 125.315 19.7213 125.315 20.2389 123.737 19.6954Z" stroke="#000000" stroke-width="0.724666" stroke-linecap="round" stroke-linejoin="round" fill="#DADBDB" transform="matrix(1.00062 0 0 1 0 0.250932)"/><path d="M124.151 19.333 124.151 17.8061 124.151 16.3567 124.151 16.2532 124.151 15.8909 128.421 17.3402 128.421 18.1943 126.351 17.4955 125.315 17.8578 125.315 19.7213 124.487 19.4366 124.151 19.333Z" stroke="#000000" stroke-width="0.724666" stroke-linecap="round" stroke-linejoin="round" fill="#DADBDB" transform="matrix(1.00062 0 0 1 0 0.250932)"/><path d="M124.151 16.2532 124.151 16.3567 123.995 16.305 124.151 16.2532Z" stroke="#000000" stroke-width="0.724666" stroke-linecap="round" stroke-linejoin="round" fill="#DADBDB" transform="matrix(1.00062 0 0 1 0 0.250932)"/><path d="M124.487 19.4366 123.737 19.6954 123.737 19.3589C123.737 19.0742 123.737 18.8154 123.84 18.5566 123.944 18.2978 124.021 18.039 124.151 17.8061L124.151 19.333 124.487 19.4366Z" stroke="#000000" stroke-width="0.724666" stroke-linecap="round" stroke-linejoin="round" fill="#DADBDB" transform="matrix(1.00062 0 0 1 0 0.250932)"/><path d="M121.951 13.8981 125.962 15.2697 124.151 15.8909 124.151 16.2532 123.995 16.305C123.763 16.3826 123.555 16.512 123.4 16.6673 123.297 16.745 123.193 16.8485 123.116 16.952 123.038 17.0296 122.986 17.1332 122.934 17.2367L122.65 16.7708 121.951 15.6321 121.951 13.8981Z" stroke="#000000" stroke-width="0.724666" stroke-linecap="round" stroke-linejoin="round" fill="#DADBDB" transform="matrix(1.00062 0 0 1 0 0.250932)"/><path d="M125.315 23.1893 122.443 22.2317 122.443 18.9189 123.737 19.3589 123.737 19.6954 125.315 20.2389 125.315 23.1893Z" stroke="#000000" stroke-width="0.724666" stroke-linecap="round" stroke-linejoin="round" fill="#DADBDB" transform="matrix(1.00062 0 0 1 0 0.250932)"/><path d="M122.546 18.0908C122.624 17.8061 122.753 17.5473 122.883 17.2885 122.883 17.2885 122.908 17.2885 122.934 17.2367 122.986 17.1332 123.038 17.0296 123.116 16.952 123.193 16.8485 123.297 16.745 123.4 16.6673 123.555 16.512 123.763 16.3826 123.995 16.305L124.151 16.3567 124.151 17.8061C124.021 18.039 123.918 18.2978 123.84 18.5566 123.763 18.8154 123.737 19.0742 123.737 19.3589L122.443 18.9189C122.443 18.6343 122.443 18.3496 122.546 18.0908Z" stroke="#000000" stroke-width="0.724666" stroke-linecap="round" stroke-linejoin="round" fill="#DADBDB" transform="matrix(1.00062 0 0 1 0 0.250932)"/><path d="M171.125 106.681 171.125 111.78 67.368 76.2969 67.368 71.1984 171.125 106.681Z" stroke="#000000" stroke-width="0.724666" stroke-linecap="round" stroke-linejoin="round" fill="#F5D129" transform="matrix(1.00062 0 0 1 0 0.250932)"/><path d="M67.368 70.9914 171.125 106.474 171.125 106.681 67.368 71.1984 67.368 70.9914Z" stroke="#000000" stroke-width="0.724666" stroke-linecap="round" stroke-linejoin="round" fill="#DADBDB" transform="matrix(1.00062 0 0 1 0 0.250932)"/><path d="M171.125 111.78 171.125 111.987 67.368 76.504 67.368 76.2969 171.125 111.78Z" stroke="#000000" stroke-width="0.724666" stroke-linecap="round" stroke-linejoin="round" fill="#DADBDB" transform="matrix(1.00062 0 0 1 0 0.250932)"/><path d="M24.6645 56.5239C25.5962 56.3686 26.5538 56.291 27.4855 56.2651 28.469 56.2392 29.4266 56.2651 30.3842 56.3169 31.3159 56.3945 32.2217 56.498 33.1276 56.6533 33.9299 56.8086 34.7063 56.9898 35.4569 57.2486 35.8709 57.4039 36.285 57.5592 36.6991 57.7662 37.0097 57.9215 37.3203 58.1027 37.605 58.3356 37.8379 58.5168 38.0191 58.7238 38.1744 58.9826 38.2779 59.1897 38.3555 59.4226 38.3555 59.6555 38.3555 59.8108 38.3296 59.992 38.252 60.1472 38.1744 60.3284 38.0708 60.4837 37.9414 60.6131 37.7861 60.7943 37.605 60.9496 37.4238 61.079 37.1909 61.2601 36.9321 61.3895 36.6991 61.5189 36.4144 61.6742 36.1039 61.8036 35.7933 61.9072 35.4569 62.0366 35.0945 62.166 34.7322 62.2695 33.9299 62.5024 33.1017 62.6577 32.2476 62.7612 31.3159 62.9165 30.3842 62.9942 29.4266 63.02 28.469 63.0459 27.4855 63.02 26.5279 62.9683 25.6221 62.8906 24.6904 62.7871 23.7846 62.6318 23.0081 62.4765 22.2058 62.2954 21.4553 62.0366 21.0412 61.8813 20.6271 61.726 20.213 61.5189 19.9024 61.3637 19.5919 61.1825 19.3072 60.9496 19.1001 60.7684 18.8931 60.5613 18.7378 60.3025 18.6343 60.0955 18.5566 59.8626 18.5566 59.6555 18.5566 59.4743 18.6084 59.2932 18.6601 59.1379 18.7378 58.9567 18.8413 58.8014 18.9707 58.672 19.126 58.4909 19.3072 58.3356 19.5142 58.2062 19.7213 58.025 19.9801 57.8956 20.213 57.7662 20.5236 57.6109 20.8083 57.4815 21.1188 57.378 21.4553 57.2486 21.8176 57.1192 22.1799 57.0157 22.9823 56.7827 23.8363 56.6274 24.6645 56.5239Z" stroke="#000000" stroke-width="0.724666" stroke-linecap="round" stroke-linejoin="round" fill="#DADBDB" transform="matrix(1.00062 0 0 1 0 0.250932)"/><path d="M357.286 82.2237C357.182 82.0425 357.027 81.8872 356.872 81.7578 356.665 81.5767 356.432 81.4472 356.199 81.3178 355.888 81.1626 355.578 81.0331 355.267 80.9296L334.226 73.7347 329.335 72.0525C329.024 71.9489 328.714 71.8454 328.429 71.6901 328.196 71.5607 327.963 71.4313 327.756 71.2502 327.575 71.1208 327.445 70.9655 327.342 70.7843 327.238 70.629 327.187 70.4479 327.187 70.2926 327.187 70.1114 327.238 69.9561 327.342 69.8008 327.445 69.6197 327.575 69.4644 327.756 69.335 327.963 69.1538 328.196 69.0244 328.429 68.895 328.714 68.7397 329.024 68.6103 329.335 68.5068L347.503 62.2954C347.814 62.1918 348.124 62.0624 348.409 61.933 348.642 61.8036 348.875 61.6483 349.082 61.4931 349.237 61.3637 349.392 61.2084 349.496 61.0272 349.599 60.8719 349.651 60.6908 349.651 60.5355 349.651 60.3543 349.599 60.199 349.496 60.0437 349.392 59.8626 349.237 59.7073 349.082 59.5779 348.875 59.3967 348.642 59.2673 348.409 59.1379 348.124 58.9826 347.814 58.8532 347.503 58.7497L307.284 45.0069C306.534 44.7481 305.731 44.5669 304.903 44.4634 304.282 44.3858 303.635 44.334 303.014 44.3081 302.703 44.3081 302.418 44.3081 302.108 44.3081 301.176 44.3081 300.219 44.3599 299.287 44.4893 298.485 44.5928 297.682 44.774 296.906 45.0328L278.763 51.2442C277.987 51.503 277.185 51.6583 276.382 51.7877 275.451 51.9171 274.519 51.9689 273.561 51.9689 272.604 51.9689 271.698 51.9171 270.766 51.7877 269.964 51.6583 269.162 51.503 268.385 51.2442L255.134 46.715 255.134 46.715 250.243 45.0328C249.932 44.9293 249.647 44.7999 249.337 44.6446 249.104 44.5411 248.871 44.3858 248.664 44.2046 248.509 44.0752 248.353 43.9199 248.25 43.7387 248.172 43.6093 248.094 43.4282 248.094 43.247 248.094 43.0917 248.172 42.9106 248.25 42.7553 248.353 42.5741 248.509 42.4188 248.664 42.2894 248.871 42.1341 249.104 41.9788 249.337 41.8753 249.647 41.72 249.932 41.5906 250.243 41.4871L268.411 35.2757C268.722 35.1722 269.032 35.0428 269.317 34.8875 269.55 34.7581 269.783 34.6287 269.99 34.4475 270.171 34.3181 270.3 34.1628 270.43 33.9816 270.507 33.8264 270.559 33.6711 270.559 33.4899 270.559 33.3346 270.507 33.1535 270.43 32.9982 270.3 32.817 270.171 32.6617 269.99 32.5323 269.783 32.377 269.55 32.2217 269.317 32.0923 269.032 31.9629 268.722 31.8335 268.411 31.73L178.889 1.087C178.138 0.828189 177.336 0.672904 176.508 0.543499 175.576 0.414095 174.644 0.362333 173.713 0.362333 172.781 0.362333 171.823 0.414095 170.892 0.543499 170.089 0.672904 169.287 0.828189 168.537 1.087L146.874 8.51482 149.747 9.4983 150.058 9.36889 152.904 10.3524 153.914 10.0159 160.953 12.4228 160.953 19.3072 158.339 20.1871 158.339 21.6882 157.563 21.9729 157.563 20.3942 154.664 19.3848 154.664 20.6271 155.234 20.8341 155.311 20.8341C155.311 20.8341 155.467 20.8341 155.467 20.8341 155.467 20.8341 155.518 20.86 155.518 20.86 155.57 20.8859 155.596 20.9118 155.648 20.9377L155.751 20.9894 155.751 22.5682 154.975 22.827 154.975 21.2482 152.076 20.2389 152.076 21.4812 152.568 21.6623 152.568 21.6623C152.568 21.6623 152.62 21.6882 152.62 21.6882 152.646 21.6623 152.646 21.6882 152.646 21.6882 152.672 21.6623 152.697 21.6882 152.697 21.6882L152.853 21.74 152.904 21.74C152.904 21.74 152.982 21.7917 153.034 21.8176L153.137 21.8694 153.137 23.4481 152.361 23.7069 152.361 22.1282 149.462 21.1447 149.462 22.387 149.928 22.5423 149.98 22.5423C149.98 22.5423 150.006 22.5423 150.032 22.5682L150.058 22.5682C150.058 22.5682 150.083 22.5682 150.109 22.5682L150.265 22.6199 150.316 22.6199C150.316 22.6199 150.368 22.6458 150.394 22.6976L150.42 22.6976 150.549 22.7493 150.549 24.3281 149.773 24.5869 149.773 23.0081 146.848 22.0247 146.848 23.2411 147.34 23.4222 147.392 23.4222C147.392 23.4222 147.418 23.4222 147.444 23.4481L147.521 23.4481 147.677 23.4999 147.677 23.4999 147.728 23.5516 147.909 23.6293 147.935 23.6293 147.935 23.7069 147.935 23.7069 147.935 25.208 147.159 25.4927 147.159 23.914 144.234 22.9046 144.234 24.1469 144.726 24.3281C144.726 24.3281 144.752 24.3022 144.778 24.3022 144.804 24.3022 144.83 24.3281 144.855 24.3281L144.881 24.3281 145.063 24.3798C145.063 24.3798 145.063 24.4057 145.063 24.4057 145.114 24.4316 145.14 24.4575 145.192 24.4833L145.295 24.5351 145.295 24.5869 145.295 24.5869 145.295 26.1138 144.519 26.3727 144.519 24.7939 141.62 23.8104 141.62 25.6739 141.879 25.3374 141.957 25.2598C141.957 25.2598 142.009 25.2339 142.034 25.208L142.216 25.208C142.216 25.208 142.242 25.2339 142.267 25.2339L142.423 25.2857C142.423 25.2857 142.449 25.2857 142.474 25.3115 142.526 25.3374 142.604 25.3374 142.63 25.3892 142.656 25.4151 142.707 25.4668 142.707 25.4927L142.397 25.5962 142.267 25.5962C142.267 25.5962 141.62 25.7774 141.62 25.7774L141.62 25.8809 136.134 27.7443 125.238 24.0175 125.238 23.1634 122.365 22.2058 122.365 18.8931C122.365 18.6084 122.391 18.3237 122.468 18.0649 122.546 17.7802 122.676 17.5214 122.805 17.2626 122.805 17.2626 122.831 17.2626 122.857 17.2108L122.572 16.745 2.51045 57.8697C2.19988 57.9733 1.91519 58.1027 1.60462 58.2579 1.37169 58.3615 1.13876 58.5168 0.931713 58.672 0.776428 58.8273 0.621142 58.9567 0.517618 59.1638 0.439976 59.2932 0.362333 59.4743 0.362333 59.6555 0.362333 59.8108 0.439976 59.992 0.517618 60.1214 0.621142 60.3284 0.776428 60.4578 0.931713 60.6131 1.13876 60.7684 1.37169 60.9237 1.60462 61.0272 1.91519 61.1825 2.19988 61.3119 2.51045 61.4154L168.951 118.328 207.436 131.501C208.212 131.76 209.014 131.941 209.817 132.044 210.748 132.174 211.68 132.226 212.612 132.226 213.543 132.226 214.501 132.174 215.433 132.044 216.235 131.941 217.037 131.76 217.814 131.501L355.267 84.4753C355.578 84.3718 355.888 84.2424 356.199 84.113 356.432 83.9836 356.665 83.8283 356.872 83.673 357.027 83.5436 357.182 83.3883 357.286 83.2071 357.364 83.0519 357.415 82.8707 357.415 82.7154 357.415 82.5342 357.364 82.379 357.286 82.2237ZM202.389 20.653C202.673 20.4977 202.958 20.3942 203.217 20.2648 203.553 20.1612 203.864 20.0577 204.2 19.9542 204.563 19.8507 204.951 19.773 205.313 19.6954 205.702 19.6177 206.116 19.5401 206.504 19.4883 207.384 19.3589 208.264 19.2813 209.118 19.2554 210.024 19.2295 210.929 19.2554 211.809 19.3072 212.663 19.3589 213.518 19.4624 214.346 19.6177 215.07 19.7471 215.795 19.9283 216.52 20.1612 216.908 20.2906 217.27 20.4459 217.658 20.653 217.943 20.7824 218.228 20.9635 218.487 21.1706 218.694 21.3518 218.875 21.5329 219.03 21.7659 219.134 21.947 219.185 22.1799 219.185 22.387 219.185 23.1634 218.383 23.7587 217.658 24.121 217.374 24.2763 217.089 24.3798 216.83 24.4833 216.494 24.6128 216.183 24.7163 215.847 24.8198 215.485 24.9233 215.122 25.001 214.734 25.0786 214.346 25.1563 213.932 25.2339 213.543 25.2857 212.663 25.4151 211.809 25.4668 210.929 25.4927 210.024 25.5445 209.118 25.5186 208.238 25.4668 207.384 25.3892 206.53 25.3115 205.702 25.1563 204.977 25.0268 204.252 24.8457 203.528 24.6128 203.139 24.4575 202.777 24.3022 202.389 24.121 202.104 23.9657 201.819 23.8104 201.561 23.5775 201.354 23.4222 201.172 23.2152 201.043 23.0081 200.914 22.8011 200.862 22.594 200.862 22.387 200.862 21.6106 201.664 21.0153 202.389 20.653ZM163.904 9.47242C163.981 9.29125 164.111 9.13596 164.24 8.98068 164.396 8.79951 164.577 8.64423 164.758 8.51482 164.991 8.35954 165.224 8.20425 165.483 8.07485 165.767 7.94544 166.078 7.81604 166.363 7.68663 166.725 7.55723 167.061 7.4537 167.424 7.35018 168.252 7.11725 169.08 6.96197 169.908 6.83256 170.866 6.70316 171.798 6.62551 172.729 6.59963 173.713 6.54787 174.67 6.57375 175.654 6.6514 176.56 6.70316 177.465 6.80668 178.371 6.98785 179.174 7.11725 179.95 7.29842 180.726 7.55723 181.141 7.71251 181.555 7.8678 181.943 8.07485 182.279 8.25601 182.59 8.43718 182.875 8.67011 183.082 8.85127 183.289 9.05832 183.418 9.29125 183.547 9.4983 183.625 9.73122 183.625 9.96415 183.625 10.1453 183.573 10.3006 183.496 10.4559 183.444 10.6371 183.315 10.7923 183.185 10.9476 183.03 11.1288 182.849 11.2841 182.668 11.4135 182.435 11.5688 182.202 11.7241 181.943 11.8535 181.658 11.9829 181.348 12.1123 181.063 12.2417 180.701 12.3711 180.338 12.4746 180.002 12.5781 179.174 12.8111 178.345 12.9663 177.491 13.0957 176.56 13.2251 175.628 13.3028 174.67 13.3287 173.713 13.3546 172.755 13.3546 171.772 13.2769 170.866 13.2251 169.96 13.1216 169.054 12.9405 168.252 12.8111 167.475 12.6299 166.699 12.3711 166.285 12.2158 165.871 12.0605 165.483 11.8535 165.146 11.6723 164.836 11.4911 164.551 11.2582 164.344 11.077 164.137 10.87 164.007 10.6371 163.878 10.43 163.8 10.1971 163.8 9.96415 163.8 9.78299 163.852 9.6277 163.904 9.47242ZM38.252 60.1472C38.1744 60.3284 38.0708 60.4837 37.9414 60.6131 37.7861 60.7943 37.605 60.9496 37.4238 61.079 37.1909 61.2601 36.9321 61.3895 36.6991 61.5189 36.4144 61.6742 36.1039 61.8036 35.7933 61.9072 35.4569 62.0366 35.0945 62.166 34.7322 62.2695 33.9299 62.5024 33.1017 62.6577 32.2476 62.7612 31.3159 62.9165 30.3842 62.9942 29.4266 63.02 28.469 63.0459 27.4855 63.02 26.5279 62.9683 25.6221 62.8906 24.6904 62.7871 23.7846 62.6318 23.0081 62.4765 22.2058 62.2954 21.4553 62.0366 21.0412 61.8813 20.6271 61.726 20.213 61.5189 19.9024 61.3637 19.5919 61.1825 19.3072 60.9496 19.1001 60.7684 18.8931 60.5613 18.7378 60.3025 18.6343 60.0955 18.5566 59.8626 18.5566 59.6555 18.5566 59.4743 18.6084 59.2932 18.6601 59.1379 18.7378 58.9567 18.8413 58.8014 18.9707 58.672 19.126 58.4909 19.3072 58.3356 19.5142 58.2062 19.7213 58.025 19.9801 57.8956 20.213 57.7662 20.5236 57.6109 20.8083 57.4815 21.1188 57.378 21.4553 57.2486 21.8176 57.1192 22.1799 57.0157 22.9823 56.7827 23.8363 56.6274 24.6645 56.5239 25.5962 56.3686 26.5538 56.291 27.4855 56.2651 28.469 56.2392 29.4266 56.2651 30.3842 56.3169 31.3159 56.3945 32.2217 56.498 33.1276 56.6533 33.9299 56.8086 34.7063 56.9898 35.4569 57.2486 35.8709 57.4039 36.285 57.5592 36.6991 57.7662 37.0097 57.9215 37.3203 58.1027 37.605 58.3356 37.8379 58.5168 38.0191 58.7238 38.1744 58.9826 38.2779 59.1897 38.3555 59.4226 38.3555 59.6555 38.3555 59.8108 38.3296 59.992 38.252 60.1472ZM220.247 124.384C219.962 124.513 219.703 124.642 219.418 124.746 219.108 124.85 218.771 124.953 218.435 125.057 218.073 125.16 217.71 125.238 217.322 125.315 216.934 125.393 216.52 125.471 216.132 125.522 215.252 125.652 214.398 125.729 213.518 125.755 212.612 125.781 211.732 125.755 210.826 125.704 209.972 125.652 209.144 125.548 208.29 125.393 207.565 125.264 206.84 125.082 206.141 124.85 205.753 124.72 205.365 124.565 205.003 124.384 204.692 124.228 204.407 124.047 204.149 123.84 203.942 123.659 203.76 123.478 203.631 123.245 203.528 123.064 203.45 122.831 203.45 122.624 203.45 121.847 204.278 121.252 205.003 120.89 205.287 120.734 205.546 120.631 205.831 120.527 206.141 120.398 206.478 120.294 206.789 120.217 207.177 120.113 207.539 120.01 207.901 119.932 208.29 119.855 208.704 119.777 209.118 119.725 209.972 119.596 210.852 119.544 211.732 119.518 212.612 119.466 213.518 119.518 214.398 119.544 215.252 119.622 216.106 119.699 216.934 119.855 217.684 119.984 218.409 120.165 219.108 120.398 219.496 120.553 219.884 120.709 220.247 120.89 220.531 121.045 220.842 121.226 221.101 121.433 221.282 121.589 221.489 121.796 221.618 122.029 221.722 122.21 221.799 122.417 221.799 122.624 221.799 123.4 220.971 123.995 220.247 124.384ZM318.956 79.4544C318.956 79.4544 318.827 79.6097 318.749 79.6615 318.698 79.7132 318.646 79.7391 318.568 79.7909L318.568 78.2639C318.723 78.3674 318.879 78.4709 318.982 78.6262 319.06 78.7556 319.112 78.885 319.112 79.0144 319.112 79.1697 319.06 79.325 318.956 79.4544ZM323.123 76.5557 318.568 78.1086 318.439 78.1604 318.439 82.8966 283.163 94.9571 280.575 94.0512 280.575 92.0067 279.281 91.5408 275.062 92.9901C275.062 92.9901 275.244 93.1454 275.295 93.2489 275.347 93.3007 275.373 93.4042 275.373 93.4819 275.373 93.5854 275.321 93.6889 275.269 93.7666 275.192 93.8701 275.088 93.9736 274.985 94.0254 274.933 94.0512 274.881 94.0771 274.829 94.103 274.726 94.1806 274.622 94.2324 274.493 94.2842 274.312 94.3618 274.105 94.4136 273.872 94.4653 273.639 94.5171 273.406 94.5689 273.147 94.5947 272.888 94.5947 272.604 94.6465 272.345 94.6724 271.801 94.6983 271.232 94.6724 270.689 94.5947 270.559 94.5947 270.43 94.5689 270.326 94.543 270.249 94.543 270.145 94.5171 270.067 94.5171 269.86 94.4653 269.627 94.4136 269.42 94.3359 269.213 94.2583 269.006 94.1806 268.799 94.0512 268.67 93.9477 268.54 93.8442 268.463 93.7148L262.95 91.8255 262.95 80.5673 171.125 111.987 67.368 76.504 67.368 70.9914 171.125 35.5086 267.609 68.5068 267.609 59.992 302.884 47.9315 318.439 53.237 318.439 54.9711 321.027 59.5261 321.027 62.0624 323.123 62.7612 323.123 76.5557Z" stroke="#000000" stroke-width="0.724666" stroke-linecap="round" stroke-linejoin="round" fill="#DADBDB" transform="matrix(1.00062 0 0 1 0 0.250932)"/><path d="M207.436 131.501 207.436 138.385 2.51045 68.2997 2.51045 61.4154 168.951 118.328 207.436 131.501Z" stroke="#000000" stroke-width="0.724666" stroke-linecap="round" stroke-linejoin="round" fill="#DADBDB" transform="matrix(1.00062 0 0 1 0 0.250932)"/><path d="M2.51045 61.4154 2.51045 68.2997C2.19988 68.1962 1.91519 68.0927 1.60462 67.9374 1.37169 67.808 1.13876 67.6786 0.931713 67.4974 0.776428 67.368 0.621142 67.2127 0.517618 67.0316 0.439976 66.8763 0.362333 66.6951 0.362333 66.5398L0.362333 59.6555C0.362333 59.8108 0.439976 59.992 0.517618 60.1214 0.621142 60.3284 0.776428 60.4578 0.931713 60.6131 1.13876 60.7684 1.37169 60.9237 1.60462 61.0272 1.91519 61.1825 2.19988 61.3119 2.51045 61.4154Z" stroke="#000000" stroke-width="0.724666" stroke-linecap="round" stroke-linejoin="round" fill="#DADBDB" transform="matrix(1.00062 0 0 1 0 0.250932)"/><path d="M132.096 105.594 140.352 101.712" stroke="#DA2016" stroke-width="0.724666" stroke-linecap="round" stroke-linejoin="round" fill="none" transform="matrix(1.00062 0 0 1 0 0.250932)"/><path d="M212.793 97.7263 264.063 115.791" stroke="#DA2016" stroke-width="0.724666" stroke-linecap="round" stroke-linejoin="round" fill="none" transform="matrix(1.00062 0 0 1 0 0.250932)"/><text fill="#E71F22" font-family="Arial,Arial_MSFontService,sans-serif" font-weight="400" font-size="7" transform="matrix(2.5897 0 0 2.58809 105.996 129)">2</text><text fill="#E71F22" font-family="Arial,Arial_MSFontService,sans-serif" font-weight="400" font-size="7" transform="matrix(2.5897 0 0 2.58809 116.355 129)">mm</text><text fill="#E71F22" font-family="Arial,Arial_MSFontService,sans-serif" font-weight="400" font-size="7" transform="matrix(2.5897 0 0 2.58809 237.32 107)">10</text><text fill="#E71F22" font-family="Arial,Arial_MSFontService,sans-serif" font-weight="400" font-size="7" transform="matrix(2.5897 0 0 2.58809 258.038 107)">mm</text></g></svg>