<svg width="390" height="193" xmlns="http://www.w3.org/2000/svg" xmlns:xlink="http://www.w3.org/1999/xlink" xml:space="preserve" overflow="hidden"><g><path d="M387.243 103.596 387.035 103.734C386.828 103.861 386.62 103.977 386.389 104.058L297.258 137.697C297.258 137.697 297.235 137.616 297.223 137.57L387.243 103.596Z" stroke="#000000" stroke-width="0.323232" stroke-linecap="round" stroke-linejoin="round" fill="#DADBDB" transform="matrix(1 0 0 1.0016 0.120106 0)"/><path d="M369.927 100.998 380.386 97.0503 380.386 97.3274 369.927 101.287 369.927 100.998Z" stroke="#000000" stroke-width="0.323232" stroke-linecap="round" stroke-linejoin="round" fill="#DADBDB" transform="matrix(1 0 0 1.0016 0.120106 0)"/><path d="M380.386 94.4991 369.927 98.4472 232.288 7.03029 242.655 3.11688 242.747 3.08225 380.386 94.4991Z" stroke="#000000" stroke-width="0.323232" stroke-linecap="round" stroke-linejoin="round" fill="#F5D129" transform="matrix(1 0 0 1.0016 0.120106 0)"/><path d="M380.386 94.603 380.386 97.0503 369.927 100.998 369.927 98.4472 380.386 94.4991 380.386 94.603Z" stroke="#000000" stroke-width="0.323232" stroke-linecap="round" stroke-linejoin="round" fill="#F5D129" transform="matrix(1 0 0 1.0016 0.120106 0)"/><path d="M369.927 100.998 232.3 9.59306 232.288 7.03029 369.927 98.4472 369.927 100.998Z" stroke="#000000" stroke-width="0.323232" stroke-linecap="round" stroke-linejoin="round" fill="#F5D129" transform="matrix(1 0 0 1.0016 0.120106 0)"/><path d="M389.598 100.721 389.598 102.707 387.243 103.596 297.223 137.57C297.223 137.57 297.212 137.489 297.2 137.454 297.062 136.9 296.877 136.369 296.646 135.861 296.634 135.838 296.634 135.827 296.623 135.804L389.598 100.721Z" stroke="#000000" stroke-width="0.323232" stroke-linecap="round" stroke-linejoin="round" fill="#DADBDB" transform="matrix(1 0 0 1.0016 0.120106 0)"/><path d="M295.48 133.91 360.161 109.495 360.161 109.783 295.642 134.13C295.595 134.049 295.538 133.98 295.48 133.91Z" stroke="#000000" stroke-width="0.323232" stroke-linecap="round" stroke-linejoin="round" fill="#DADBDB" transform="matrix(1 0 0 1.0016 0.120106 0)"/><path d="M360.161 109.495 295.48 133.91C295.307 133.691 295.111 133.483 294.903 133.287 294.787 133.218 294.66 133.137 294.533 133.079 294.176 132.883 293.795 132.733 293.402 132.652L292.548 132.467 360.161 106.944 360.161 109.495Z" stroke="#000000" stroke-width="0.323232" stroke-linecap="round" stroke-linejoin="round" fill="#F5D129" transform="matrix(1 0 0 1.0016 0.120106 0)"/><path d="M282.632 130.309C282.435 130.262 282.239 130.216 282.043 130.182 281.258 129.847 280.484 129.501 279.722 129.12L279.734 129.12C279.734 129.12 352.288 101.726 352.288 101.726L360.161 106.944 292.548 132.467 282.632 130.309Z" stroke="#000000" stroke-width="0.323232" stroke-linecap="round" stroke-linejoin="round" fill="#F5D129" transform="matrix(1 0 0 1.0016 0.120106 0)"/><path d="M282.632 130.309 249.789 142.695C248.946 142.349 248.103 141.98 247.284 141.587 244.652 140.34 242.112 138.874 239.676 137.27L239.549 137.189 272.242 124.848C273.062 125.391 273.881 125.91 274.712 126.407 276.34 127.388 278.014 128.3 279.722 129.12 280.484 129.501 281.258 129.847 282.043 130.182 282.239 130.216 282.435 130.262 282.632 130.309Z" stroke="#000000" stroke-width="0.323232" stroke-linecap="round" stroke-linejoin="round" fill="#DADBDB" transform="matrix(1 0 0 1.0016 0.120106 0)"/><path d="M272.242 124.848 239.549 137.189 237.749 135.988 270.441 123.648 272.242 124.848Z" stroke="#000000" stroke-width="0.323232" stroke-linecap="round" stroke-linejoin="round" fill="#DADBDB" transform="matrix(1 0 0 1.0016 0.120106 0)"/><path d="M270.441 123.648 237.749 135.988C237.264 135.665 236.802 135.307 236.375 134.903 235.901 134.476 235.463 134.003 235.047 133.518 234.609 132.987 234.193 132.433 233.812 131.855 233.408 131.255 233.027 130.62 232.681 129.974L265.385 117.633C265.72 118.28 266.101 118.915 266.505 119.515 266.886 120.092 267.301 120.646 267.751 121.177 268.167 121.674 268.606 122.135 269.079 122.574 269.506 122.967 269.956 123.324 270.441 123.648Z" stroke="#000000" stroke-width="0.323232" stroke-linecap="round" stroke-linejoin="round" fill="#DADBDB" transform="matrix(1 0 0 1.0016 0.120106 0)"/><path d="M262.014 111.353 265.385 117.633 232.681 129.974 229.321 123.694 262.014 111.353Z" stroke="#000000" stroke-width="0.323232" stroke-linecap="round" stroke-linejoin="round" fill="#DADBDB" transform="matrix(1 0 0 1.0016 0.120106 0)"/><path d="M253.044 147.879 293.402 132.652C293.795 132.733 294.176 132.883 294.533 133.079 294.66 133.137 294.787 133.218 294.903 133.287 295.111 133.483 295.307 133.691 295.48 133.91 295.538 133.98 295.595 134.049 295.642 134.13 295.722 134.222 295.792 134.326 295.861 134.43 296.15 134.857 296.404 135.33 296.623 135.804 296.634 135.827 296.634 135.838 296.646 135.861 296.877 136.369 297.062 136.9 297.2 137.454 297.212 137.489 297.223 137.535 297.223 137.57 297.223 137.616 297.246 137.651 297.258 137.697 297.35 138.135 297.419 138.574 297.443 139.024 297.466 139.405 297.466 139.786 297.419 140.167 297.373 140.502 297.304 140.825 297.177 141.125 297.119 141.264 297.062 141.391 296.981 141.518 296.911 141.622 296.842 141.737 296.75 141.829 296.669 141.922 296.577 142.003 296.473 142.072 296.38 142.141 296.277 142.199 296.161 142.234L254.314 158.037C254.418 157.991 254.522 157.933 254.626 157.864 254.718 157.795 254.811 157.714 254.903 157.622 254.984 157.529 255.064 157.425 255.134 157.31 255.203 157.183 255.272 157.056 255.33 156.917 255.445 156.617 255.515 156.294 255.561 155.959 255.607 155.59 255.619 155.197 255.596 154.816 255.561 154.309 255.48 153.789 255.353 153.293 255.226 152.762 255.053 152.242 254.834 151.746 254.626 151.249 254.372 150.776 254.083 150.337 253.818 149.922 253.506 149.541 253.171 149.195 253.137 149.16 253.09 149.125 253.056 149.091L253.056 148.329C253.056 148.213 253.044 148.098 253.044 147.982L253.044 147.879Z" stroke="#000000" stroke-width="0.323232" stroke-linecap="round" stroke-linejoin="round" fill="#DADBDB" transform="matrix(1 0 0 1.0016 0.120106 0)"/><path d="M254.303 102.187 221.598 114.528 204.329 103.053 237.021 90.7127 254.303 102.187Z" stroke="#000000" stroke-width="0.323232" stroke-linecap="round" stroke-linejoin="round" fill="#DADBDB" transform="matrix(1 0 0 1.0016 0.120106 0)"/><path d="M253.61 149.991 177.062 178.886 177.062 178.597 253.414 149.783 253.425 149.783C253.495 149.841 253.552 149.91 253.61 149.991Z" stroke="#000000" stroke-width="0.323232" stroke-linecap="round" stroke-linejoin="round" fill="#DADBDB" transform="matrix(1 0 0 1.0016 0.120106 0)"/><path d="M253.206 144.392 253.217 144.104 249.789 142.695 282.632 130.309 292.548 132.467 293.402 132.652 253.044 147.879 253.067 147.359 253.206 144.392Z" stroke="#000000" stroke-width="0.323232" stroke-linecap="round" stroke-linejoin="round" fill="#DADBDB" transform="matrix(1 0 0 1.0016 0.120106 0)"/><path d="M253.206 144.392 253.067 147.359 177.062 176.046 169.189 170.828 246.672 141.576C246.672 141.576 246.672 141.576 246.684 141.576 247.665 142.072 248.669 142.534 249.685 142.949L249.812 143.007 249.824 143.007 253.206 144.392Z" stroke="#000000" stroke-width="0.323232" stroke-linecap="round" stroke-linejoin="round" fill="#F5D129" transform="matrix(1 0 0 1.0016 0.120106 0)"/><path d="M253.414 149.783 177.062 178.597 177.062 176.046 253.067 147.359 253.044 147.879 253.044 147.982C253.044 148.098 253.056 148.213 253.056 148.329L253.056 149.091 253.021 149.345C253.16 149.483 253.298 149.622 253.425 149.772L253.414 149.772Z" stroke="#000000" stroke-width="0.323232" stroke-linecap="round" stroke-linejoin="round" fill="#F5D129" transform="matrix(1 0 0 1.0016 0.120106 0)"/><path d="M252.467 157.379 255.261 156.329C255.226 156.444 255.191 156.571 255.145 156.687 255.099 156.814 255.041 156.929 254.972 157.044 254.903 157.148 254.834 157.252 254.741 157.345 254.672 157.425 254.58 157.506 254.487 157.575 254.395 157.633 254.303 157.691 254.199 157.726 254.072 157.772 253.956 157.795 253.829 157.806 253.691 157.806 253.564 157.806 253.425 157.795 253.287 157.783 253.148 157.726 253.01 157.668 252.86 157.61 252.721 157.541 252.583 157.46 252.548 157.437 252.502 157.414 252.467 157.379Z" stroke="#000000" stroke-width="0.323232" stroke-linecap="round" stroke-linejoin="round" fill="#DADBDB" transform="matrix(1 0 0 1.0016 0.120106 0)"/><path d="M249.662 155.521 255.191 153.431 255.203 153.431C255.307 153.847 255.365 154.285 255.399 154.713 255.422 155.07 255.411 155.428 255.365 155.786 255.342 155.971 255.307 156.156 255.261 156.329L252.467 157.379 249.662 155.521Z" stroke="#000000" stroke-width="0.323232" stroke-linecap="round" stroke-linejoin="round" fill="#DADBDB" transform="matrix(1 0 0 1.0016 0.120106 0)"/><path d="M252.583 157.46C252.721 157.541 252.86 157.61 253.01 157.668 253.148 157.726 253.287 157.772 253.425 157.795 253.564 157.818 253.691 157.818 253.829 157.806 253.956 157.795 254.072 157.772 254.199 157.726 254.303 157.691 254.395 157.633 254.487 157.575 254.58 157.506 254.672 157.425 254.741 157.345 254.834 157.252 254.903 157.148 254.972 157.044 255.041 156.929 255.099 156.814 255.145 156.687 255.191 156.571 255.226 156.444 255.261 156.329 255.307 156.156 255.342 155.971 255.365 155.786 255.411 155.428 255.422 155.07 255.399 154.713 255.365 154.285 255.307 153.847 255.203 153.431 255.203 153.362 255.18 153.304 255.168 153.235 255.03 152.727 254.857 152.231 254.649 151.746 254.637 151.723 254.626 151.688 254.603 151.665 254.406 151.226 254.187 150.811 253.91 150.407 253.818 150.268 253.714 150.118 253.61 149.991 253.552 149.91 253.495 149.841 253.425 149.772 253.298 149.622 253.16 149.483 253.021 149.345L253.056 149.091C253.056 149.091 253.137 149.16 253.171 149.195 253.506 149.541 253.818 149.922 254.083 150.337 254.372 150.776 254.626 151.249 254.834 151.746 255.053 152.242 255.226 152.762 255.353 153.293 255.48 153.789 255.561 154.309 255.596 154.816 255.619 155.197 255.607 155.59 255.561 155.959 255.515 156.294 255.445 156.617 255.33 156.917 255.272 157.056 255.203 157.183 255.134 157.31 255.064 157.425 254.984 157.529 254.903 157.622 254.811 157.714 254.718 157.795 254.626 157.864 254.522 157.933 254.418 157.991 254.314 158.037 254.176 158.083 254.037 158.118 253.887 158.118 253.737 158.13 253.587 158.118 253.437 158.095 253.275 158.06 253.114 158.003 252.963 157.933 252.79 157.864 252.629 157.772 252.467 157.668L249.523 155.717 249.662 155.659 249.662 155.521 252.467 157.379C252.467 157.379 252.548 157.437 252.583 157.46Z" stroke="#000000" stroke-width="0.323232" stroke-linecap="round" stroke-linejoin="round" fill="#DADBDB" transform="matrix(1 0 0 1.0016 0.120106 0)"/><path d="M232.3 9.59306 369.927 100.998 369.927 101.287 232.3 9.85857 232.3 9.59306Z" stroke="#000000" stroke-width="0.323232" stroke-linecap="round" stroke-linejoin="round" fill="#DADBDB" transform="matrix(1 0 0 1.0016 0.120106 0)"/><path d="M262.014 111.353 229.321 123.694C228.802 122.724 228.248 121.778 227.636 120.866 227.059 120.011 226.435 119.169 225.777 118.372 225.154 117.633 224.496 116.929 223.792 116.271 223.145 115.671 222.464 115.117 221.737 114.62 221.691 114.586 221.645 114.563 221.598 114.528L254.303 102.187C255.041 102.672 255.734 103.238 256.38 103.838 257.108 104.496 257.777 105.212 258.401 105.951 259.082 106.759 259.717 107.613 260.305 108.49 260.917 109.414 261.495 110.372 262.014 111.353Z" stroke="#000000" stroke-width="0.323232" stroke-linecap="round" stroke-linejoin="round" fill="#DADBDB" transform="matrix(1 0 0 1.0016 0.120106 0)"/><path d="M233.685 131.994C233.281 131.382 232.9 130.759 232.554 130.112L229.194 123.821C228.675 122.863 228.121 121.916 227.509 121.004 226.932 120.138 226.308 119.307 225.639 118.511 225.027 117.783 224.357 117.079 223.653 116.433 223.007 115.844 222.326 115.29 221.61 114.805L204.329 103.342 204.329 103.053 221.598 114.528C221.598 114.528 221.691 114.586 221.737 114.62 222.464 115.117 223.145 115.671 223.792 116.271 224.496 116.929 225.154 117.633 225.777 118.372 226.435 119.169 227.059 120.011 227.636 120.866 228.248 121.778 228.802 122.724 229.321 123.694L232.681 129.974C233.027 130.62 233.408 131.255 233.812 131.855 234.193 132.433 234.609 132.987 235.047 133.518 235.463 134.003 235.901 134.476 236.375 134.903 236.802 135.307 237.264 135.665 237.749 135.988L239.549 137.189 239.676 137.27C242.112 138.874 244.652 140.34 247.284 141.587 248.103 141.98 248.946 142.349 249.789 142.695L253.217 144.104 253.217 144.392C253.217 144.392 249.824 143.007 249.824 143.007L249.812 143.007 249.685 142.949C248.669 142.534 247.665 142.072 246.684 141.576 246.672 141.576 246.672 141.576 246.672 141.576 245.114 140.814 243.578 139.982 242.101 139.082 241.235 138.563 240.392 138.032 239.549 137.466L237.749 136.277 237.61 136.173C237.125 135.85 236.675 135.469 236.236 135.065 235.774 134.626 235.336 134.153 234.92 133.656 234.482 133.125 234.066 132.571 233.685 131.994Z" stroke="#000000" stroke-width="0.323232" stroke-linecap="round" stroke-linejoin="round" fill="#DADBDB" transform="matrix(1 0 0 1.0016 0.120106 0)"/><path d="M220.559 14.2222 220.559 16.7734 37.4603 85.8758 37.4603 83.3245 220.559 14.2222Z" stroke="#000000" stroke-width="0.323232" stroke-linecap="round" stroke-linejoin="round" fill="#F5D129" transform="matrix(1 0 0 1.0016 0.120106 0)"/><path d="M220.559 17.0505 37.4603 86.1528 37.4603 85.8758 220.559 16.7734 220.559 17.0505Z" stroke="#000000" stroke-width="0.323232" stroke-linecap="round" stroke-linejoin="round" fill="#DADBDB" transform="matrix(1 0 0 1.0016 0.120106 0)"/><path d="M213.448 9.5007 220.559 14.2222 37.4603 83.3245 29.5872 78.0951 212.687 8.99277 213.448 9.5007Z" stroke="#000000" stroke-width="0.323232" stroke-linecap="round" stroke-linejoin="round" fill="#F5D129" transform="matrix(1 0 0 1.0016 0.120106 0)"/><path d="M177.062 176.046 177.062 178.597 169.2 173.368 169.189 170.828 177.062 176.046Z" stroke="#000000" stroke-width="0.323232" stroke-linecap="round" stroke-linejoin="round" fill="#F5D129" transform="matrix(1 0 0 1.0016 0.120106 0)"/><path d="M177.062 178.597 177.062 178.886 169.2 173.656 169.2 173.368 177.062 178.597Z" stroke="#000000" stroke-width="0.323232" stroke-linecap="round" stroke-linejoin="round" fill="#DADBDB" transform="matrix(1 0 0 1.0016 0.120106 0)"/><path d="M158.049 178.412 147.59 182.36 9.95092 90.932 20.4098 86.984 158.049 178.412Z" stroke="#000000" stroke-width="0.323232" stroke-linecap="round" stroke-linejoin="round" fill="#F5D129" transform="matrix(1 0 0 1.0016 0.120106 0)"/><path d="M154.782 191.469C154.701 191.492 154.632 191.515 154.562 191.538 154.355 191.596 154.147 191.642 153.928 191.642L249.662 155.521 249.662 155.659 249.523 155.717 154.782 191.469Z" stroke="#000000" stroke-width="0.323232" stroke-linecap="round" stroke-linejoin="round" fill="#DADBDB" transform="matrix(1 0 0 1.0016 0.120106 0)"/><path d="M151.561 190.557 254.603 151.665C254.603 151.665 254.637 151.723 254.649 151.746 254.857 152.231 255.03 152.727 255.168 153.235 255.168 153.304 255.203 153.362 255.203 153.431L255.191 153.431 249.662 155.521 153.928 191.642 153.916 191.642 151.573 192.531 151.573 190.557Z" stroke="#000000" stroke-width="0.323232" stroke-linecap="round" stroke-linejoin="round" fill="#DADBDB" transform="matrix(1 0 0 1.0016 0.120106 0)"/><path d="M158.06 180.952 147.59 184.912 147.59 182.36 158.049 178.412 158.06 180.952Z" stroke="#000000" stroke-width="0.323232" stroke-linecap="round" stroke-linejoin="round" fill="#F5D129" transform="matrix(1 0 0 1.0016 0.120106 0)"/><path d="M147.59 184.912 158.06 180.952 158.06 181.241 147.59 185.189 147.59 184.912Z" stroke="#000000" stroke-width="0.323232" stroke-linecap="round" stroke-linejoin="round" fill="#DADBDB" transform="matrix(1 0 0 1.0016 0.120106 0)"/><path d="M147.59 184.912 147.59 185.189 9.96247 93.7719 9.96247 93.4832 147.59 184.912Z" stroke="#000000" stroke-width="0.323232" stroke-linecap="round" stroke-linejoin="round" fill="#DADBDB" transform="matrix(1 0 0 1.0016 0.120106 0)"/><path d="M37.4603 85.8758 37.4603 86.1528 29.5988 80.9349 29.5988 80.6463 37.4603 85.8758Z" stroke="#000000" stroke-width="0.323232" stroke-linecap="round" stroke-linejoin="round" fill="#DADBDB" transform="matrix(1 0 0 1.0016 0.120106 0)"/><path d="M37.4603 83.3245 37.4603 85.8758 29.5988 80.6463 29.5872 78.8801 29.5872 78.0951 37.4603 83.3245Z" stroke="#000000" stroke-width="0.323232" stroke-linecap="round" stroke-linejoin="round" fill="#F5D129" transform="matrix(1 0 0 1.0016 0.120106 0)"/><path d="M147.59 185.189 158.06 181.241 158.06 178.412C158.06 178.412 20.4098 86.984 20.4098 86.984L9.95092 90.932 9.95092 93.4832C9.95092 93.4832 9.96247 93.7719 9.96247 93.7719L147.59 185.189ZM254.603 151.665 151.561 190.557 0.161616 89.997 29.5872 78.8801 29.5872 80.6463C29.5872 80.6463 29.5988 80.9349 29.5988 80.9349L37.4603 86.1528 220.559 17.0505 220.559 14.2222 213.448 9.5007 238.199 0.161616 242.655 3.11688 232.288 7.03029 232.288 9.59306C232.288 9.59306 232.288 9.85857 232.288 9.85857L369.916 101.287 380.375 97.3274 380.375 94.603 389.587 100.721 296.611 135.804C296.392 135.33 296.138 134.857 295.849 134.43 295.78 134.326 295.711 134.222 295.63 134.13L360.149 109.783 360.149 106.944 352.276 101.726 279.722 129.108 279.711 129.108C278.002 128.3 276.329 127.388 274.701 126.407 273.87 125.91 273.05 125.391 272.23 124.848L270.43 123.648C269.945 123.324 269.494 122.967 269.067 122.574 268.594 122.135 268.155 121.674 267.74 121.177 267.29 120.646 266.874 120.092 266.493 119.515 266.089 118.915 265.708 118.28 265.373 117.633L262.002 111.353C261.483 110.372 260.906 109.414 260.294 108.49 259.705 107.613 259.07 106.759 258.389 105.951 257.766 105.212 257.096 104.496 256.369 103.838 255.723 103.238 255.03 102.672 254.291 102.187L237.01 90.7127 204.317 103.053 204.317 103.342 221.598 114.805C222.314 115.29 222.995 115.844 223.642 116.433 224.346 117.079 225.015 117.783 225.627 118.511 226.297 119.307 226.92 120.138 227.497 121.004 228.109 121.916 228.663 122.863 229.183 123.821L232.542 130.112C232.888 130.759 233.269 131.382 233.673 131.994 234.054 132.571 234.47 133.125 234.909 133.656 235.324 134.153 235.763 134.626 236.225 135.065 236.663 135.469 237.114 135.85 237.598 136.173L237.737 136.277 239.538 137.466C240.381 138.032 241.223 138.563 242.089 139.082 243.567 139.982 245.102 140.814 246.66 141.576L169.177 170.828 169.177 173.368C169.177 173.368 169.189 173.656 169.189 173.656L177.05 178.886 253.598 149.991C253.702 150.118 253.806 150.268 253.899 150.407 254.176 150.811 254.395 151.226 254.591 151.665Z" stroke="#000000" stroke-width="0.323232" stroke-linecap="round" stroke-linejoin="round" fill="#DADBDB" transform="matrix(1 0 0 1.0016 0.120106 0)"/><path d="M9.95092 90.932 147.59 182.36 147.59 184.912 9.96247 93.4832 9.95092 90.932Z" stroke="#000000" stroke-width="0.323232" stroke-linecap="round" stroke-linejoin="round" fill="#F5D129" transform="matrix(1 0 0 1.0016 0.120106 0)"/><path d="M0.161616 89.997 151.561 190.557 151.573 192.531 0.17316 91.971 0.161616 89.997Z" stroke="#000000" stroke-width="0.323232" stroke-linecap="round" stroke-linejoin="round" fill="#DADBDB" transform="matrix(1 0 0 1.0016 0.120106 0)"/><path d="M132.086 177.616 134.43 176.381" stroke="#DA2016" stroke-width="0.323232" stroke-linecap="round" stroke-linejoin="round" fill="none" transform="matrix(1 0 0 1.0016 0.120106 0)"/><path d="M195.174 172.052 196.779 173.275" stroke="#DA2016" stroke-width="0.323232" stroke-linecap="round" stroke-linejoin="round" fill="none" transform="matrix(1 0 0 1.0016 0.120106 0)"/><text fill="#E71F22" font-family="Arial,Arial_MSFontService,sans-serif" font-weight="400" font-size="7" transform="matrix(1.1544 0 0 1.15624 120.535 188)">1</text><text fill="#E71F22" font-family="Arial,Arial_MSFontService,sans-serif" font-weight="400" font-size="7" transform="matrix(1.1544 0 0 1.15624 125.153 188)">mm</text><text fill="#E71F22" font-family="Arial,Arial_MSFontService,sans-serif" font-weight="400" font-size="7" transform="matrix(1.1544 0 0 1.15624 196.253 181)">1</text><text fill="#E71F22" font-family="Arial,Arial_MSFontService,sans-serif" font-weight="400" font-size="7" transform="matrix(1.1544 0 0 1.15624 200.87 181)">mm</text></g></svg>