<?xml version="1.0" encoding="UTF-8"?>
<svg id="Layer_2" data-name="Layer 2" xmlns="http://www.w3.org/2000/svg" viewBox="0 0 848.46 206.27">
  <defs>
    <style>
      .cls-1 {
        letter-spacing: -.03em;
      }

      .cls-1, .cls-2, .cls-3, .cls-4, .cls-5 {
        fill: #006ac5;
      }

      .cls-1, .cls-2, .cls-3, .cls-5 {
        font-family: NHaasGroteskDSPro-65Md, 'Neue Haas Grotesk Display Pro';
        font-weight: 500;
      }

      .cls-6 {
        font-size: 132.31px;
      }

      .cls-7 {
        font-family: NHaasGroteskDSPro-45Lt, 'Neue Haas Grotesk Display Pro';
        font-size: 73.31px;
      }

      .cls-7, .cls-8 {
        fill: #333;
      }

      .cls-2 {
        letter-spacing: -.03em;
      }

      .cls-9 {
        letter-spacing: .07em;
      }

      .cls-10 {
        letter-spacing: .06em;
      }

      .cls-11 {
        letter-spacing: .07em;
      }

      .cls-8 {
        font-family: NHaasGroteskDSPro-55Rg, 'Neue Haas Grotesk Display Pro';
      }

      .cls-3 {
        letter-spacing: 0em;
      }

      .cls-4 {
        stroke-width: 0px;
      }

      .cls-5 {
        letter-spacing: .07em;
      }
    </style>
  </defs>
  <g id="Layer_1-2" data-name="Layer 1">
    <g>
      <g>
        <text class="cls-6" transform="translate(243.29 113.45)"><tspan class="cls-2" x="0" y="0">R</tspan><tspan class="cls-1" x="81.5" y="0">ea</tspan><tspan class="cls-5" x="214.6" y="0">l</tspan><tspan class="cls-3" x="254.03" y="0">Io</tspan><tspan class="cls-5" x="363.97" y="0">T</tspan><tspan class="cls-8" x="454.07" y="0">Kit</tspan></text>
        <text class="cls-7" transform="translate(250.57 190.58)"><tspan class="cls-11" x="0" y="0">with Sen</tspan><tspan class="cls-9" x="291.62" y="0">s</tspan><tspan class="cls-11" x="330.11" y="0">o</tspan><tspan class="cls-10" x="373.95" y="0">r</tspan><tspan class="cls-11" x="401.22" y="0">s</tspan></text>
      </g>
      <path class="cls-4" d="m193.79,120.26c-1.72,2.44-3.43,4.89-5.17,7.32-1.86,2.58-5.44,3.2-8.03,1.37-14.06-9.88-28.09-19.79-42.14-29.69-3.93-2.77-7.88-5.52-11.79-8.33-3.28-2.36-3.6-4.45-1.28-7.83,1.82-2.64,3.68-5.26,5.53-7.87,2.83-3.98,4.14-4.28,8.95-1.78,3.83-5.45,7.7-10.95,11.57-16.45q6.59-9.35,17.96-9.41c.8,0,1.63-.23,2.4-.09,7.92,1.53,12.81-2.14,16.34-8.91,1.84-3.52,4.5-6.62,6.86-9.86,1.14-1.56,2.19-2.43,3.35-2.64,0-12.22-9.91-22.13-22.13-22.13H22.13C9.91,3.96,0,13.87,0,26.09v154.09c0,12.22,9.91,22.13,22.13,22.13h50.46c2.83-4.09,5.67-8.16,8.64-12.15,1.49-2,1.6-3.71.77-5.98-1.89-5.15-3.43-10.43-5.25-15.61-.96-2.73-.6-4.96,1.14-7.35,5.27-7.2,10.33-14.56,15.61-22.04-4.04-4.03-4.12-5.03-.93-9.56,1.91-2.72,3.79-5.45,5.76-8.13,1.8-2.43,4.12-2.85,6.58-1.13,2.23,1.56,4.29,3.38,6.83,5.4,3.64-5.25,6.6-10.01,10.09-14.34,1.43-1.77,4.05-3.61,6.09-3.57,2.19.04,4.92,1.78,6.38,3.61,1.78,2.22,1.32,5.22-.46,7.7-3.34,4.65-6.68,9.29-9.8,13.62,6.07,4.28,11.91,8.39,18.12,12.76,2.71-3.91,5.79-8.41,8.94-12.85,3.02-4.26,7.34-5.35,10.87-2.82,3.64,2.61,3.98,6.71.85,11.2-3.07,4.39-6.2,8.74-9.67,13.62,2.31,1.49,4.35,2.72,6.3,4.09,3.55,2.5,3.91,4.53,1.49,8.03-1.75,2.55-3.55,5.06-5.34,7.59-3.01,4.25-4.18,4.55-9.14,2.06-4.42,6.29-9.17,12.46-13.26,19.05-2.53,4.08-5.43,6.47-9.79,6.81h52.79c12.22,0,22.13-9.91,22.13-22.13v-77.38c-1.83,2.61-3.66,5.22-5.53,7.85,4.09,4.08,4.16,5.08.98,9.61Zm-161.2,7.67c-.07,0-.14,0-.2,0-1.01,0-1.88-.77-1.99-1.8-4.28-42.45,23.84-81.67,65.42-91.24,1.07-.25,2.15.42,2.4,1.5.25,1.08-.42,2.15-1.5,2.4-39.62,9.12-66.42,46.49-62.34,86.94.11,1.1-.69,2.08-1.79,2.19Zm26.13-12.04c.11,1.1-.69,2.08-1.79,2.19-.07,0-.14,0-.2,0-1.01,0-1.88-.77-1.99-1.8-2.59-25.67,14.42-49.39,39.56-55.18,1.07-.24,2.15.42,2.4,1.5.25,1.08-.42,2.15-1.5,2.4-23.18,5.33-38.87,27.21-36.48,50.88Zm40.2-31.96c-13.4,3.08-22.47,15.73-21.09,29.41.11,1.1-.69,2.08-1.79,2.19-.07,0-.14,0-.2,0-1.01,0-1.88-.77-1.99-1.8-1.58-15.68,8.81-30.17,24.17-33.71,1.07-.25,2.15.42,2.4,1.5.25,1.08-.42,2.15-1.5,2.4Z"/>
    </g>
  </g>
</svg>