<svg xmlns="http://www.w3.org/2000/svg" viewBox="0 0 68.375 27.03"><defs><style>.cls-1{fill:#fff;}.cls-2{fill:#97999b;}.cls-3{fill:#006ac6;}.cls-4{fill:#f09620;}</style></defs><g id="Layer_2" data-name="Layer 2"><g id="Layer_1-2" data-name="Layer 1"><rect class="cls-1" x="15.232" width="27.706" height="7.984"/><rect class="cls-2" x="0.982" width="14.287" height="7.984"/><path class="cls-1" d="M13.085,5.449a6.96,6.96,0,0,0-.948-.256c-.166-.037-.327-.081-.485-.132a1.631,1.631,0,0,1-.42-.2.969.969,0,0,1-.3-.312.881.881,0,0,1-.112-.46,1.244,1.244,0,0,1,.156-.656,1.158,1.158,0,0,1,.412-.4,1.8,1.8,0,0,1,.576-.207,3.484,3.484,0,0,1,.657-.061,3.33,3.33,0,0,1,.652.064,1.734,1.734,0,0,1,.564.216,1.312,1.312,0,0,1,.412.4,1.365,1.365,0,0,1,.2.637h-1.08a.5.5,0,0,0-.248-.444,1.129,1.129,0,0,0-.528-.116,1.951,1.951,0,0,0-.208.012.651.651,0,0,0-.2.052.41.41,0,0,0-.157.116.308.308,0,0,0-.064.2.312.312,0,0,0,.113.248.861.861,0,0,0,.291.156,3.709,3.709,0,0,0,.413.108c.154.032.312.067.472.1a4.874,4.874,0,0,1,.484.136,1.592,1.592,0,0,1,.42.212,1.01,1.01,0,0,1,.3.328.96.96,0,0,1,.112.484,1.256,1.256,0,0,1-.592,1.129,1.765,1.765,0,0,1-.6.236,3.553,3.553,0,0,1-.692.068,3.442,3.442,0,0,1-.7-.072,1.864,1.864,0,0,1-.612-.24,1.316,1.316,0,0,1-.628-1.137h1.081a.626.626,0,0,0,.075.316.663.663,0,0,0,.2.217.836.836,0,0,0,.276.123,1.284,1.284,0,0,0,.324.041,1.262,1.262,0,0,0,.252-.028.869.869,0,0,0,.24-.089.531.531,0,0,0,.18-.16.418.418,0,0,0,.072-.252C13.425,5.663,13.311,5.535,13.085,5.449Z"/><rect class="cls-3" x="9.37" y="1.662" width="1.136" height="0.936"/><rect class="cls-1" x="9.37" y="2.872" width="1.136" height="4.137"/><polygon class="cls-1" points="3.029 1.296 3.933 5.185 3.95 5.185 4.942 1.296 6.118 1.296 7.095 5.233 7.11 5.233 8.047 1.296 9.279 1.296 7.743 7.01 6.494 7.01 5.526 3.121 5.51 3.121 4.558 7.01 3.285 7.01 1.773 1.296 3.029 1.296"/><polygon class="cls-4" points="23.342 1.251 22.14 1.251 22.14 7.004 26.215 7.004 26.215 5.97 23.342 5.97 23.342 1.251"/><path class="cls-4" d="M28.768,1.075a2.506,2.506,0,0,0-1.885.672,3.041,3.041,0,0,0-.874,2.373,3.1,3.1,0,0,0,.874,2.373,2.506,2.506,0,0,0,1.885.671,2.506,2.506,0,0,0,1.885-.671,3.109,3.109,0,0,0,.871-2.373,3.047,3.047,0,0,0-.871-2.373A2.506,2.506,0,0,0,28.768,1.075ZM29.9,5.619a1.375,1.375,0,0,1-1.134.527,1.392,1.392,0,0,1-1.14-.527,2.337,2.337,0,0,1-.425-1.5,2.335,2.335,0,0,1,.425-1.5,1.392,1.392,0,0,1,1.14-.527,1.371,1.371,0,0,1,1.134.529,2.356,2.356,0,0,1,.42,1.5A2.355,2.355,0,0,1,29.9,5.619Z"/><path class="cls-4" d="M34.326,2.168a1.185,1.185,0,0,1,.952.375,1.65,1.65,0,0,1,.294.624h1.2a2.072,2.072,0,0,0-.394-1.073,2.683,2.683,0,0,0-3.869-.242,3.18,3.18,0,0,0-.8,2.323,3.2,3.2,0,0,0,.7,2.193,2.44,2.44,0,0,0,1.93.8,2.3,2.3,0,0,0,1.628-.589,2.6,2.6,0,0,0,.79-1.53h-1.2a1.8,1.8,0,0,1-.3.667,1.125,1.125,0,0,1-.943.414,1.227,1.227,0,0,1-.994-.482,2.266,2.266,0,0,1-.392-1.45,2.587,2.587,0,0,1,.371-1.5A1.175,1.175,0,0,1,34.326,2.168Z"/><polygon class="cls-4" points="39.553 3.617 41.914 1.251 40.36 1.251 38.137 3.622 38.137 1.251 36.955 1.251 36.955 7.004 38.137 7.004 38.137 5.08 38.716 4.493 40.489 7.004 42.035 7.004 39.553 3.617"/><path class="cls-4" d="M21.062,3.39H20.23V1.243H16.281V7h5.151V3.39ZM17.483,2.3h1.544v1.1H17.483Zm0,3.5v-1.2H20.23v1.2Z"/><path d="M3.325,21.475c0,2.077,1.619,2.886,3.456,2.886,1.2,0,3.04-.349,3.04-1.946,0-1.706-2.362-1.946-4.636-2.581C2.866,19.266.526,18.281.526,15.4c0-3.215,3.018-4.725,5.839-4.725,3.259,0,6.256,1.422,6.256,5.031H9.3c-.11-1.859-1.422-2.362-3.083-2.362-1.095,0-2.363.459-2.363,1.771,0,1.2.744,1.378,4.658,2.362,1.16.263,4.637,1.028,4.637,4.549,0,2.865-2.23,5.009-6.495,5.009C3.194,27.03-.065,25.324,0,21.475Z"/><path d="M16.969,21.759c.088,1.99,1.028,2.865,2.778,2.865A2.554,2.554,0,0,0,22.2,23.159H24.93a5.064,5.064,0,0,1-5.293,3.805c-3.565,0-5.774-2.449-5.774-5.949a5.671,5.671,0,0,1,5.774-5.971c3.85,0,5.73,3.237,5.49,6.715Zm5.053-1.969c-.285-1.574-.963-2.4-2.472-2.4a2.433,2.433,0,0,0-2.581,2.4Z"/><path d="M26.086,15.351h2.952v1.574H29.1a3.984,3.984,0,0,1,3.456-1.881c3.3,0,4.133,1.86,4.133,4.659v6.955H33.587V20.272c0-1.859-.525-2.778-1.99-2.778-1.684,0-2.405.94-2.405,3.237v5.927H26.086Z"/><path d="M40.583,22.984c0,1.334,1.181,1.9,2.384,1.9.875,0,2.034-.349,2.034-1.443,0-.94-1.312-1.291-3.521-1.75-1.815-.415-3.587-1.006-3.587-3.018,0-2.887,2.493-3.631,4.921-3.631,2.45,0,4.746.832,4.986,3.609H44.848c-.087-1.2-1.006-1.531-2.122-1.531-.7,0-1.727.11-1.727,1.05,0,1.115,1.772,1.269,3.521,1.684,1.815.416,3.587,1.072,3.587,3.172,0,2.974-2.6,3.936-5.162,3.936-2.624,0-5.2-.984-5.315-3.98Z"/><path d="M54.534,15.044c3.565,0,5.861,2.363,5.861,5.971a5.545,5.545,0,0,1-5.861,5.949c-3.543,0-5.839-2.362-5.839-5.949C48.7,17.407,50.991,15.044,54.534,15.044Zm0,9.58c2.122,0,2.756-1.793,2.756-3.609s-.634-3.63-2.756-3.63c-2.1,0-2.734,1.815-2.734,3.63S52.434,24.624,54.534,24.624Z"/><path d="M61.092,15.351h2.952v2.1h.044A3.975,3.975,0,0,1,67.7,15.044a2.309,2.309,0,0,1,.679.11v2.887a5.65,5.65,0,0,0-1.116-.109c-2.3,0-3.061,1.618-3.061,3.63v5.1H61.092Z"/></g></g></svg>