<svg xmlns="http://www.w3.org/2000/svg" viewBox="0 0 91.54 27.22"><defs><style>.cls-1{fill:#fff;}.cls-2{fill:#97999b;}.cls-3{fill:#006ac6;}.cls-4{fill:#f09620;}</style></defs><g id="Layer_2" data-name="Layer 2"><g id="Layer_1-2" data-name="Layer 1"><rect class="cls-1" x="14.31" width="27.71" height="7.98"/><rect class="cls-2" x="0.06" width="14.29" height="7.98"/><path class="cls-1" d="M12.16,5.45a7.85,7.85,0,0,0-.95-.26,3.92,3.92,0,0,1-.49-.13,1.62,1.62,0,0,1-.42-.2,1.11,1.11,0,0,1-.3-.31.92.92,0,0,1-.11-.46,1.19,1.19,0,0,1,.17-.66,1.21,1.21,0,0,1,.41-.4,1.69,1.69,0,0,1,.57-.2,3,3,0,0,1,.66-.07,3.5,3.5,0,0,1,.65.07,2,2,0,0,1,.57.21,1.56,1.56,0,0,1,.41.4,1.37,1.37,0,0,1,.2.64H12.44a.49.49,0,0,0-.24-.44,1.24,1.24,0,0,0-.53-.12h-.21a.66.66,0,0,0-.2.06.42.42,0,0,0-.16.11.36.36,0,0,0-.06.2.33.33,0,0,0,.11.25,1.18,1.18,0,0,0,.29.16,3.2,3.2,0,0,0,.42.1l.47.1.48.14a1.65,1.65,0,0,1,.42.21,1,1,0,0,1,.3.33.92.92,0,0,1,.11.48,1.23,1.23,0,0,1-.59,1.13,1.65,1.65,0,0,1-.6.24,3.49,3.49,0,0,1-1.39,0,2.16,2.16,0,0,1-.61-.24A1.45,1.45,0,0,1,10,6.35a1.31,1.31,0,0,1-.19-.69H10.9A.55.55,0,0,0,11,6a.53.53,0,0,0,.2.22.66.66,0,0,0,.27.12,1.26,1.26,0,0,0,.33.05l.25,0,.24-.09a.69.69,0,0,0,.18-.16.45.45,0,0,0,.07-.25C12.51,5.66,12.38,5.53,12.16,5.45Z"/><rect class="cls-3" x="8.44" y="1.66" width="1.14" height="0.94"/><rect class="cls-1" x="8.44" y="2.87" width="1.14" height="4.14"/><polygon class="cls-1" points="2.1 1.3 3.01 5.18 3.02 5.18 4.02 1.3 5.19 1.3 6.17 5.23 6.18 5.23 7.12 1.3 8.35 1.3 6.82 7.01 5.57 7.01 4.6 3.12 4.58 3.12 3.63 7.01 2.36 7.01 0.85 1.3 2.1 1.3"/><polygon class="cls-4" points="22.42 1.25 21.21 1.25 21.21 7 25.29 7 25.29 5.97 22.42 5.97 22.42 1.25"/><path class="cls-4" d="M27.84,1.08A2.48,2.48,0,0,0,26,1.75a3.06,3.06,0,0,0-.88,2.37A3.08,3.08,0,0,0,26,6.49a2.46,2.46,0,0,0,1.88.67,2.49,2.49,0,0,0,1.89-.67,3.11,3.11,0,0,0,.87-2.37,3.06,3.06,0,0,0-.87-2.37A2.49,2.49,0,0,0,27.84,1.08ZM29,5.62a1.49,1.49,0,0,1-2.28,0,2.31,2.31,0,0,1-.42-1.5,2.29,2.29,0,0,1,.42-1.5,1.49,1.49,0,0,1,2.28,0,2.43,2.43,0,0,1,.42,1.5A2.43,2.43,0,0,1,29,5.62Z"/><path class="cls-4" d="M33.4,2.17a1.16,1.16,0,0,1,1,.37,1.53,1.53,0,0,1,.3.63h1.2a2.11,2.11,0,0,0-.39-1.08,2.69,2.69,0,0,0-3.78-.32l-.09.08a3.16,3.16,0,0,0-.8,2.33,3.17,3.17,0,0,0,.7,2.19,2.47,2.47,0,0,0,1.93.8,2.33,2.33,0,0,0,1.63-.59,2.67,2.67,0,0,0,.79-1.53h-1.2a1.69,1.69,0,0,1-.3.67,1.13,1.13,0,0,1-.94.41,1.19,1.19,0,0,1-1-.48A2.29,2.29,0,0,1,32,4.2a2.55,2.55,0,0,1,.38-1.5A1.16,1.16,0,0,1,33.4,2.17Z"/><polygon class="cls-4" points="38.63 3.62 40.99 1.25 39.44 1.25 37.21 3.62 37.21 1.25 36.03 1.25 36.03 7 37.21 7 37.21 5.08 37.79 4.49 39.56 7 41.11 7 38.63 3.62"/><path class="cls-4" d="M20.14,3.39H19.3V1.24H15.36V7h5.15V3.39ZM16.56,2.3H18.1V3.4H16.56Zm0,3.5V4.6H19.3V5.8Z"/><path d="M3.34,21.63c0,2.1,1.63,2.91,3.48,2.91,1.21,0,3.06-.35,3.06-2s-2.38-2-4.66-2.6S.53,18.42.53,15.52c0-3.24,3-4.75,5.87-4.75,3.28,0,6.3,1.43,6.3,5.06H9.35c-.11-1.87-1.43-2.38-3.1-2.38-1.1,0-2.38.46-2.38,1.78s.75,1.39,4.69,2.38c1.17.26,4.66,1,4.66,4.57,0,2.89-2.24,5-6.53,5-3.48,0-6.76-1.71-6.69-5.59Z"/><path d="M19.78,15.17c3.59,0,5.9,2.37,5.9,6s-2.31,6-5.9,6-5.88-2.38-5.88-6S16.21,15.17,19.78,15.17Zm0,9.63c2.13,0,2.77-1.8,2.77-3.63s-.64-3.65-2.77-3.65S17,19.35,17,21.17,17.67,24.8,19.78,24.8Z"/><path d="M27,11.14h3.12V26.85H27Z"/><path d="M42.58,26.85h-3V25.27h-.07a4,4,0,0,1-3.48,1.89c-3.32,0-4.16-1.87-4.16-4.69v-7H35V21.9c0,1.87.53,2.79,2,2.79,1.69,0,2.42-.94,2.42-3.25v-6h3.13Z"/><path d="M48.24,15.47h2.29v2.09H48.24V23.2c0,1.05.26,1.32,1.32,1.32a4.85,4.85,0,0,0,1-.09v2.44A11.77,11.77,0,0,1,48.7,27c-1.93,0-3.58-.42-3.58-2.7V17.56h-1.9V15.47h1.9V12.06h3.12Z"/><path d="M54.78,13.71H51.66V11.14h3.12Zm-3.12,1.76h3.12V26.85H51.66Z"/><path d="M62,15.17c3.58,0,5.89,2.37,5.89,6s-2.31,6-5.89,6-5.88-2.38-5.88-6S58.43,15.17,62,15.17Zm0,9.63c2.13,0,2.77-1.8,2.77-3.63s-.64-3.65-2.77-3.65-2.75,1.83-2.75,3.65S59.88,24.8,62,24.8Z"/><path d="M69.2,15.47h3v1.59h.07a4,4,0,0,1,3.47-1.89c3.33,0,4.16,1.87,4.16,4.68v7H76.75V20.42c0-1.87-.53-2.79-2-2.79-1.7,0-2.42.95-2.42,3.26v6H69.2Z"/><path d="M84,23.15c0,1.34,1.19,1.92,2.4,1.92.88,0,2-.36,2-1.45s-1.32-1.3-3.54-1.77c-1.83-.41-3.61-1-3.61-3,0-2.91,2.51-3.65,4.95-3.65s4.78.83,5,3.63h-3c-.09-1.21-1-1.54-2.13-1.54-.71,0-1.74.11-1.74,1,0,1.12,1.78,1.28,3.54,1.7s3.61,1.07,3.61,3.19c0,3-2.62,4-5.2,4s-5.23-1-5.34-4Z"/></g></g></svg>