<?xml version="1.0" encoding="UTF-8"?><svg id="Layer_2" xmlns="http://www.w3.org/2000/svg" viewBox="0 0 108.44 27.14"><defs><style>.cls-1{fill:#fff;}.cls-2{fill:#f09620;}.cls-3{fill:#97999b;}.cls-4{fill:#006ac6;}</style></defs><g id="Layer_1-2"><g><g><path d="M0,11.12H11.75v2.9H3.46v3.37h7.61v2.68H3.46v3.85H11.93v2.9H0V11.12Z"/><path d="M13.33,15.45h2.97v1.58h.07c.79-1.3,2.16-1.89,3.48-1.89,3.32,0,4.16,1.87,4.16,4.69v7h-3.12v-6.42c0-1.87-.53-2.79-2-2.79-1.69,0-2.42,.95-2.42,3.26v5.96h-3.12V15.45Z"/><path d="M33.36,19.46c-.2-1.3-.97-1.96-2.31-1.96-2,0-2.66,2.02-2.66,3.7s.64,3.59,2.6,3.59c1.47,0,2.29-.9,2.49-2.31h3.01c-.42,3.01-2.46,4.66-5.48,4.66-3.43,0-5.74-2.42-5.74-5.83s2.11-6.16,5.81-6.16c2.68,0,5.17,1.41,5.35,4.31h-3.06Z"/><path d="M37.65,11.12h3.12v15.71h-3.12V11.12Z"/><path d="M47.99,15.14c3.59,0,5.9,2.38,5.9,6.01s-2.31,5.98-5.9,5.98-5.88-2.38-5.88-5.98,2.31-6.01,5.88-6.01Zm0,9.64c2.13,0,2.77-1.8,2.77-3.63s-.64-3.65-2.77-3.65-2.75,1.83-2.75,3.65,.64,3.63,2.75,3.63Z"/><path d="M57.49,23.13c0,1.34,1.19,1.91,2.4,1.91,.88,0,2.05-.35,2.05-1.45,0-.95-1.32-1.3-3.54-1.76-1.83-.42-3.61-1.01-3.61-3.04,0-2.9,2.51-3.65,4.95-3.65s4.77,.84,5.02,3.63h-2.97c-.09-1.21-1.01-1.54-2.13-1.54-.7,0-1.74,.11-1.74,1.06,0,1.12,1.78,1.28,3.54,1.69,1.83,.42,3.61,1.08,3.61,3.19,0,2.99-2.62,3.96-5.19,3.96s-5.24-.99-5.35-4h2.97Z"/><path d="M76.89,26.83h-2.97v-1.58h-.07c-.79,1.3-2.16,1.89-3.48,1.89-3.32,0-4.16-1.87-4.16-4.69v-7h3.12v6.42c0,1.87,.53,2.79,2,2.79,1.69,0,2.42-.95,2.42-3.26v-5.96h3.12v11.38Z"/><path d="M78.65,15.45h2.97v2.11h.04c.59-1.43,2.07-2.42,3.63-2.42,.24,0,.46,.04,.68,.11v2.9c-.29-.07-.75-.11-1.12-.11-2.31,0-3.08,1.63-3.08,3.65v5.13h-3.12V15.45Z"/><path d="M89.15,21.9c.09,2,1.03,2.88,2.79,2.88,1.25,0,2.27-.77,2.46-1.47h2.75c-.88,2.71-2.75,3.83-5.32,3.83-3.59,0-5.81-2.46-5.81-5.98s2.35-6.01,5.81-6.01c3.87,0,5.77,3.26,5.52,6.75h-8.21Zm5.08-1.98c-.29-1.58-.97-2.42-2.49-2.42-2.02,0-2.53,1.54-2.6,2.42h5.08Z"/><path d="M100.87,23.13c0,1.34,1.19,1.91,2.4,1.91,.88,0,2.05-.35,2.05-1.45,0-.95-1.32-1.3-3.54-1.76-1.83-.42-3.61-1.01-3.61-3.04,0-2.9,2.51-3.65,4.95-3.65s4.77,.84,5.02,3.63h-2.97c-.09-1.21-1.01-1.54-2.13-1.54-.7,0-1.74,.11-1.74,1.06,0,1.12,1.78,1.28,3.54,1.69,1.83,.42,3.61,1.08,3.61,3.19,0,2.99-2.62,3.96-5.19,3.96s-5.24-.99-5.35-4h2.97Z"/></g><g id="WisBlock-Solutions-v"><g id="Layer_2-2"><g id="Layer_1-2"><rect class="cls-1" x="14.25" width="27.71" height="7.98"/><rect class="cls-3" width="14.29" height="7.98"/><path class="cls-1" d="M12.1,5.45c-.31-.11-.63-.19-.95-.26-.17-.03-.33-.08-.49-.13-.15-.05-.29-.11-.42-.2-.12-.08-.22-.19-.3-.31-.08-.14-.11-.3-.11-.46,0-.23,.05-.46,.17-.66,.1-.16,.24-.3,.41-.4,.18-.1,.37-.17,.57-.2,.22-.05,.44-.07,.66-.07,.22,0,.44,.03,.65,.07,.2,.04,.39,.11,.57,.21,.16,.11,.3,.24,.41,.4,.12,.19,.19,.41,.2,.64h-1.09c0-.18-.09-.35-.24-.44-.17-.08-.35-.12-.53-.12h-.21c-.07,0-.14,.03-.2,.06-.06,.02-.12,.06-.16,.11-.04,.06-.06,.13-.06,.2,0,.1,.04,.19,.11,.25,.09,.07,.19,.12,.29,.16,.14,.04,.28,.08,.42,.1l.47,.1,.48,.14c.15,.05,.29,.12,.42,.21,.12,.09,.23,.2,.3,.33,.08,.15,.12,.31,.11,.48,.03,.46-.2,.89-.59,1.13-.18,.12-.39,.2-.6,.24-.46,.09-.93,.09-1.39,0-.21-.05-.42-.13-.61-.24-.18-.11-.33-.26-.45-.44-.13-.21-.19-.45-.19-.69h1.09c0,.12,.03,.24,.1,.34,.04,.09,.11,.17,.2,.22,.08,.06,.17,.1,.27,.12,.11,.03,.22,.05,.33,.05h.25l.24-.09c.07-.04,.13-.1,.18-.16,.05-.07,.07-.16,.07-.25-.03-.23-.16-.36-.38-.44Z"/><rect class="cls-4" x="8.38" y="1.66" width="1.14" height=".94"/><rect class="cls-1" x="8.38" y="2.87" width="1.14" height="4.14"/><polygon class="cls-1" points="2.04 1.3 2.95 5.18 2.96 5.18 3.96 1.3 5.13 1.3 6.11 5.23 6.12 5.23 7.06 1.3 8.29 1.3 6.76 7.01 5.51 7.01 4.54 3.12 4.52 3.12 3.57 7.01 2.3 7.01 .79 1.3 2.04 1.3"/><polygon class="cls-2" points="22.36 1.25 21.15 1.25 21.15 7 25.23 7 25.23 5.97 22.36 5.97 22.36 1.25"/><path class="cls-2" d="M27.78,1.08c-.68-.04-1.34,.2-1.84,.67-.62,.63-.94,1.49-.88,2.37-.06,.88,.26,1.74,.88,2.37,.5,.48,1.19,.72,1.88,.67,.7,.05,1.38-.19,1.89-.67,.61-.63,.93-1.49,.87-2.37,.06-.88-.25-1.74-.87-2.37-.52-.49-1.22-.73-1.93-.67Zm1.16,4.54c-.53,.63-1.47,.71-2.1,.18-.07-.05-.13-.12-.18-.18-.31-.44-.46-.97-.42-1.5-.04-.53,.11-1.06,.42-1.5,.53-.63,1.47-.71,2.1-.18,.07,.05,.13,.12,.18,.18,.3,.44,.45,.97,.42,1.5,.03,.53-.12,1.06-.42,1.5Z"/><path class="cls-2" d="M33.34,2.17c.37-.05,.75,.09,1,.37,.15,.18,.25,.4,.3,.63h1.2c-.03-.39-.16-.76-.39-1.08-.96-1.13-2.65-1.27-3.78-.32l-.09,.08c-.57,.64-.86,1.48-.8,2.33-.05,.79,.2,1.57,.7,2.19,.49,.54,1.2,.83,1.93,.8,.6,.02,1.18-.19,1.63-.59,.43-.41,.7-.95,.79-1.53h-1.2c-.05,.24-.15,.47-.3,.67-.23,.28-.58,.43-.94,.41-.39,.01-.77-.16-1-.48-.31-.42-.47-.93-.45-1.45-.03-.53,.1-1.05,.38-1.5,.22-.34,.61-.55,1.02-.53Z"/><polygon class="cls-2" points="38.57 3.62 40.93 1.25 39.38 1.25 37.15 3.62 37.15 1.25 35.97 1.25 35.97 7 37.15 7 37.15 5.08 37.73 4.49 39.5 7 41.05 7 38.57 3.62"/><path class="cls-2" d="M20.08,3.39h-.84V1.24h-3.94V7h5.15V3.39h-.37Zm-3.58-1.09h1.54v1.1h-1.54v-1.1Zm0,3.5v-1.2h2.74v1.2h-2.74Z"/></g></g></g></g></g></svg>