<svg xmlns="http://www.w3.org/2000/svg" viewBox="0 0 57.02 33.44"><defs><style>.cls-1{fill:#fff;}.cls-2{fill:#97999b;}.cls-3{fill:#006ac6;}.cls-4{fill:#f09620;}</style></defs><g id="Layer_2" data-name="Layer 2"><g id="Layer_1-2" data-name="Layer 1"><rect class="cls-1" x="18.46" width="34.27" height="9.88"/><rect class="cls-2" x="0.83" width="17.67" height="9.88"/><path class="cls-1" d="M15.81,6.74a10.22,10.22,0,0,0-1.18-.32c-.2,0-.4-.1-.6-.16A1.92,1.92,0,0,1,13.51,6a1.19,1.19,0,0,1-.36-.38A1.15,1.15,0,0,1,13,5.06a1.52,1.52,0,0,1,.19-.81,1.36,1.36,0,0,1,.51-.5,2.08,2.08,0,0,1,.71-.26,4.47,4.47,0,0,1,.82-.08,4.26,4.26,0,0,1,.8.08,2.43,2.43,0,0,1,.7.27,1.52,1.52,0,0,1,.51.5,1.57,1.57,0,0,1,.24.79H16.16a.62.62,0,0,0-.31-.55,1.33,1.33,0,0,0-.65-.15l-.26,0a.92.92,0,0,0-.25.06.75.75,0,0,0-.2.15.37.37,0,0,0-.08.25.4.4,0,0,0,.14.31,1.23,1.23,0,0,0,.36.19,4.71,4.71,0,0,0,.51.13l.59.13c.2,0,.4.1.6.17a2.11,2.11,0,0,1,.52.26,1.29,1.29,0,0,1,.36.41,1.11,1.11,0,0,1,.14.6,1.54,1.54,0,0,1-.73,1.39,2.27,2.27,0,0,1-.75.3,4.8,4.8,0,0,1-.85.08,4.31,4.31,0,0,1-.88-.09,2.27,2.27,0,0,1-.75-.3,1.7,1.7,0,0,1-.55-.55A1.67,1.67,0,0,1,12.89,7h1.34a.8.8,0,0,0,.09.39.78.78,0,0,0,.24.27,1,1,0,0,0,.35.15,1.68,1.68,0,0,0,.4,0,1.2,1.2,0,0,0,.31,0,.83.83,0,0,0,.29-.1.74.74,0,0,0,.23-.2.52.52,0,0,0,.09-.31C16.23,7,16.09,6.85,15.81,6.74Z"/><rect class="cls-3" x="11.21" y="2.06" width="1.41" height="1.16"/><rect class="cls-1" x="11.21" y="3.55" width="1.41" height="5.12"/><polygon class="cls-1" points="3.37 1.6 4.49 6.41 4.5 6.41 5.73 1.6 7.19 1.6 8.4 6.47 8.41 6.47 9.57 1.6 11.1 1.6 9.2 8.67 7.65 8.67 6.46 3.86 6.44 3.86 5.26 8.67 3.68 8.67 1.81 1.6 3.37 1.6"/><polygon class="cls-4" points="28.49 1.55 27.01 1.55 27.01 8.66 32.05 8.66 32.05 7.38 28.49 7.38 28.49 1.55"/><path class="cls-4" d="M35.21,1.33a3.14,3.14,0,0,0-2.34.83A3.76,3.76,0,0,0,31.79,5.1,3.84,3.84,0,0,0,32.87,8a3.1,3.1,0,0,0,2.34.83A3.09,3.09,0,0,0,37.54,8,3.84,3.84,0,0,0,38.61,5.1a3.76,3.76,0,0,0-1.07-2.94A3.13,3.13,0,0,0,35.21,1.33ZM36.61,7A1.84,1.84,0,0,1,33.8,7a2.81,2.81,0,0,1-.53-1.85,2.84,2.84,0,0,1,.53-1.86,1.84,1.84,0,0,1,2.81,0,3,3,0,0,1,.52,1.86A2.93,2.93,0,0,1,36.61,7Z"/><path class="cls-4" d="M42.08,2.68a1.48,1.48,0,0,1,1.18.47,1.91,1.91,0,0,1,.36.77h1.49a2.56,2.56,0,0,0-.49-1.33,3.31,3.31,0,0,0-4.78-.3,3.92,3.92,0,0,0-1,2.87,4,4,0,0,0,.87,2.72,3,3,0,0,0,2.38,1,2.85,2.85,0,0,0,2-.73,3.14,3.14,0,0,0,1-1.89H43.62a2.3,2.3,0,0,1-.37.83,1.41,1.41,0,0,1-1.17.51A1.51,1.51,0,0,1,40.85,7a2.81,2.81,0,0,1-.48-1.79,3.14,3.14,0,0,1,.46-1.85A1.43,1.43,0,0,1,42.08,2.68Z"/><polygon class="cls-4" points="48.55 4.47 51.47 1.55 49.55 1.55 46.8 4.48 46.8 1.55 45.33 1.55 45.33 8.66 46.8 8.66 46.8 6.28 47.51 5.56 49.7 8.66 51.62 8.66 48.55 4.47"/><path class="cls-4" d="M25.67,4.19h-1V1.54H19.76V8.65h6.37V4.19ZM21.25,2.84h1.91V4.19H21.25Zm0,4.33V5.68h3.39V7.17Z"/><path d="M13.72,20.15A4.22,4.22,0,0,0,9.5,16.77c-3.82,0-5.25,3.25-5.25,6.63,0,3.22,1.43,6.46,5.25,6.46,2.59,0,4.05-1.75,4.38-4.32H18c-.43,4.84-3.73,7.9-8.49,7.9-6,0-9.5-4.47-9.5-10,0-5.74,3.54-10.2,9.5-10.2,4.22,0,7.81,2.49,8.33,7Z"/><path d="M26.18,18.61c4.41,0,7.25,2.92,7.25,7.39s-2.84,7.35-7.25,7.35S19,30.43,19,26,21.8,18.61,26.18,18.61Zm0,11.85c2.63,0,3.41-2.22,3.41-4.46s-.78-4.5-3.41-4.5S22.8,23.75,22.8,26,23.59,30.46,26.18,30.46Z"/><path d="M34.29,19H38v2.6h0a4.91,4.91,0,0,1,4.46-3,2.6,2.6,0,0,1,.84.14v3.57a7.07,7.07,0,0,0-1.38-.14c-2.84,0-3.78,2-3.78,4.49V33H34.29Z"/><path d="M46.9,26.92c.11,2.46,1.27,3.54,3.44,3.54a3.18,3.18,0,0,0,3-1.81h3.38a6.26,6.26,0,0,1-6.55,4.7c-4.41,0-7.14-3-7.14-7.35S46,18.61,50.2,18.61c4.76,0,7.09,4,6.79,8.31Zm6.25-2.44c-.35-1.95-1.19-3-3.06-3a3,3,0,0,0-3.19,3Z"/></g></g></svg>