<svg xmlns="http://www.w3.org/2000/svg" viewBox="0 0 59.052 27.219"><defs><style>.cls-1{fill:#fff;}.cls-2{fill:#97999b;}.cls-3{fill:#006ac6;}.cls-4{fill:#f09620;}</style></defs><g id="Layer_2" data-name="Layer 2"><g id="Layer_1-2" data-name="Layer 1"><path d="M0,11.171H4.872L8.553,21.994H8.6l3.484-10.823h4.871V26.91h-3.24V15.756h-.044L9.81,26.91H7.143L3.285,15.866H3.24V26.91H0Z"/><path d="M24.533,15.2c3.594,0,5.909,2.381,5.909,6.019,0,3.615-2.315,6-5.909,6-3.57,0-5.885-2.381-5.885-6C18.648,17.585,20.963,15.2,24.533,15.2Zm0,9.656c2.139,0,2.779-1.808,2.779-3.637s-.64-3.66-2.779-3.66c-2.116,0-2.755,1.83-2.755,3.66S22.417,24.86,24.533,24.86Z"/><path d="M35.775,15.513h2.293v2.094H35.775V23.25c0,1.059.264,1.324,1.323,1.324a4.418,4.418,0,0,0,.97-.089v2.447a12.038,12.038,0,0,1-1.83.111c-1.94,0-3.594-.419-3.594-2.712V17.607H30.749V15.513h1.895V12.1h3.131Z"/><path d="M44.437,15.2c3.594,0,5.908,2.381,5.908,6.019,0,3.615-2.314,6-5.908,6-3.571,0-5.886-2.381-5.886-6C38.551,17.585,40.866,15.2,44.437,15.2Zm0,9.656c2.139,0,2.778-1.808,2.778-3.637s-.639-3.66-2.778-3.66c-2.116,0-2.755,1.83-2.755,3.66S42.321,24.86,44.437,24.86Z"/><path d="M51.71,15.513h2.976V17.63h.045A4,4,0,0,1,58.368,15.2a2.377,2.377,0,0,1,.684.11v2.911a5.729,5.729,0,0,0-1.125-.111c-2.314,0-3.086,1.632-3.086,3.66V26.91H51.71Z"/><rect class="cls-1" x="14.25" width="27.706" height="7.984"/><rect class="cls-2" width="14.287" height="7.984"/><path class="cls-1" d="M12.1,5.449a6.96,6.96,0,0,0-.948-.256q-.249-.056-.484-.132a1.623,1.623,0,0,1-.421-.2.98.98,0,0,1-.3-.312.891.891,0,0,1-.112-.46A1.244,1.244,0,0,1,10,3.433a1.15,1.15,0,0,1,.412-.4,1.794,1.794,0,0,1,.576-.207,3.465,3.465,0,0,1,.656-.061,3.322,3.322,0,0,1,.652.064,1.734,1.734,0,0,1,.564.216,1.315,1.315,0,0,1,.413.4,1.376,1.376,0,0,1,.2.637H12.387a.5.5,0,0,0-.248-.444,1.124,1.124,0,0,0-.528-.116,1.966,1.966,0,0,0-.208.012.651.651,0,0,0-.2.052.415.415,0,0,0-.156.116.3.3,0,0,0-.064.2.311.311,0,0,0,.112.248.857.857,0,0,0,.292.156,3.631,3.631,0,0,0,.412.108c.155.032.312.067.472.1a4.726,4.726,0,0,1,.484.136,1.584,1.584,0,0,1,.421.212,1.033,1.033,0,0,1,.3.328.971.971,0,0,1,.112.484,1.254,1.254,0,0,1-.593,1.129,1.757,1.757,0,0,1-.6.236,3.538,3.538,0,0,1-.692.068,3.425,3.425,0,0,1-.7-.072,1.847,1.847,0,0,1-.612-.24,1.373,1.373,0,0,1-.44-.444,1.4,1.4,0,0,1-.189-.693h1.081a.616.616,0,0,0,.076.316.66.66,0,0,0,.2.217.846.846,0,0,0,.276.123,1.284,1.284,0,0,0,.324.041,1.262,1.262,0,0,0,.252-.028.869.869,0,0,0,.24-.089.531.531,0,0,0,.18-.16.418.418,0,0,0,.072-.252Q12.443,5.578,12.1,5.449Z"/><rect class="cls-3" x="8.388" y="1.662" width="1.136" height="0.936"/><rect class="cls-1" x="8.388" y="2.872" width="1.136" height="4.137"/><polygon class="cls-1" points="2.048 1.296 2.952 5.185 2.968 5.185 3.96 1.296 5.136 1.296 6.113 5.233 6.129 5.233 7.065 1.296 8.298 1.296 6.761 7.01 5.512 7.01 4.544 3.121 4.528 3.121 3.576 7.01 2.304 7.01 0.791 1.296 2.048 1.296"/><polygon class="cls-4" points="22.36 1.251 21.158 1.251 21.158 7.004 25.233 7.004 25.233 5.97 22.36 5.97 22.36 1.251"/><path class="cls-4" d="M27.787,1.075a2.509,2.509,0,0,0-1.886.672,3.041,3.041,0,0,0-.874,2.373A3.1,3.1,0,0,0,25.9,6.493a2.508,2.508,0,0,0,1.886.671,2.507,2.507,0,0,0,1.885-.671,3.112,3.112,0,0,0,.87-2.373,3.05,3.05,0,0,0-.87-2.373A2.508,2.508,0,0,0,27.787,1.075ZM28.92,5.619a1.372,1.372,0,0,1-1.133.527,1.389,1.389,0,0,1-1.14-.527,2.331,2.331,0,0,1-.426-1.5,2.329,2.329,0,0,1,.426-1.5,1.389,1.389,0,0,1,1.14-.527,1.368,1.368,0,0,1,1.133.529,2.356,2.356,0,0,1,.42,1.5A2.355,2.355,0,0,1,28.92,5.619Z"/><path class="cls-4" d="M33.344,2.168a1.184,1.184,0,0,1,.952.375,1.65,1.65,0,0,1,.3.624h1.2A2.081,2.081,0,0,0,35.4,2.094a2.683,2.683,0,0,0-3.869-.242,3.181,3.181,0,0,0-.8,2.323,3.2,3.2,0,0,0,.7,2.193,2.441,2.441,0,0,0,1.931.8,2.3,2.3,0,0,0,1.627-.589,2.589,2.589,0,0,0,.79-1.53H34.587a1.82,1.82,0,0,1-.3.667,1.128,1.128,0,0,1-.943.414,1.229,1.229,0,0,1-.995-.482,2.267,2.267,0,0,1-.391-1.45,2.579,2.579,0,0,1,.371-1.5A1.174,1.174,0,0,1,33.344,2.168Z"/><polygon class="cls-4" points="38.571 3.617 40.932 1.251 39.379 1.251 37.156 3.622 37.156 1.251 35.973 1.251 35.973 7.004 37.156 7.004 37.156 5.08 37.735 4.493 39.507 7.004 41.053 7.004 38.571 3.617"/><path class="cls-4" d="M20.08,3.39h-.832V1.243H15.3V7H20.45V3.39ZM16.5,2.3h1.544v1.1H16.5Zm0,3.5v-1.2h2.746v1.2Z"/></g></g></svg>