<svg xmlns="http://www.w3.org/2000/svg" viewBox="0 0 58.72 33.35"><defs><style>.cls-1{fill:#fff;}.cls-2{fill:#97999b;}.cls-3{fill:#006ac6;}.cls-4{fill:#f09620;}</style></defs><g id="Layer_2" data-name="Layer 2"><g id="Layer_1-2" data-name="Layer 1"><rect class="cls-1" x="17.63" width="34.27" height="9.88"/><rect class="cls-2" width="17.67" height="9.88"/><path class="cls-1" d="M15,6.74a10,10,0,0,0-1.17-.32,5.25,5.25,0,0,1-.6-.16A1.67,1.67,0,0,1,12.68,6a1.34,1.34,0,0,1-.37-.38,1.15,1.15,0,0,1-.14-.57,1.52,1.52,0,0,1,.2-.81,1.36,1.36,0,0,1,.51-.5,2.08,2.08,0,0,1,.71-.26,4.36,4.36,0,0,1,.81-.08,4.28,4.28,0,0,1,.81.08,2.55,2.55,0,0,1,.7.27,1.73,1.73,0,0,1,.51.5,1.8,1.8,0,0,1,.24.79H15.32A.62.62,0,0,0,15,4.5a1.4,1.4,0,0,0-.66-.15l-.25,0a1,1,0,0,0-.26.06.7.7,0,0,0-.19.15.37.37,0,0,0-.08.25.4.4,0,0,0,.14.31,1,1,0,0,0,.36.19,4.71,4.71,0,0,0,.51.13l.58.13a5.25,5.25,0,0,1,.6.17,2,2,0,0,1,.52.26,1.32,1.32,0,0,1,.37.41,1.21,1.21,0,0,1,.14.6,1.56,1.56,0,0,1-.21.84,1.61,1.61,0,0,1-.52.55,2.27,2.27,0,0,1-.75.3,4.91,4.91,0,0,1-.86.08,4.14,4.14,0,0,1-.87-.09,2.32,2.32,0,0,1-.76-.3A1.63,1.63,0,0,1,12.06,7h1.33a.71.71,0,0,0,.1.39.78.78,0,0,0,.24.27,1,1,0,0,0,.34.15,1.75,1.75,0,0,0,.4,0,1.15,1.15,0,0,0,.31,0,1,1,0,0,0,.3-.1.7.7,0,0,0,.22-.2.52.52,0,0,0,.09-.31C15.39,7,15.25,6.85,15,6.74Z"/><rect class="cls-3" x="10.38" y="2.06" width="1.41" height="1.16"/><rect class="cls-1" x="10.38" y="3.55" width="1.41" height="5.12"/><polygon class="cls-1" points="2.53 1.6 3.65 6.41 3.67 6.41 4.9 1.6 6.35 1.6 7.56 6.47 7.58 6.47 8.74 1.6 10.26 1.6 8.36 8.67 6.82 8.67 5.62 3.86 5.6 3.86 4.42 8.67 2.85 8.67 0.98 1.6 2.53 1.6"/><polygon class="cls-4" points="27.66 1.55 26.17 1.55 26.17 8.66 31.21 8.66 31.21 7.38 27.66 7.38 27.66 1.55"/><path class="cls-4" d="M34.37,1.33A3.11,3.11,0,0,0,32,2.16,3.76,3.76,0,0,0,31,5.1,3.84,3.84,0,0,0,32,8a3.07,3.07,0,0,0,2.33.83A3.06,3.06,0,0,0,36.7,8,3.84,3.84,0,0,0,37.78,5.1,3.76,3.76,0,0,0,36.7,2.16,3.1,3.1,0,0,0,34.37,1.33ZM35.77,7a1.7,1.7,0,0,1-1.4.65A1.73,1.73,0,0,1,33,7a2.87,2.87,0,0,1-.52-1.85A2.9,2.9,0,0,1,33,3.24a1.73,1.73,0,0,1,1.41-.65,1.7,1.7,0,0,1,1.4.65,2.92,2.92,0,0,1,.52,1.86A2.87,2.87,0,0,1,35.77,7Z"/><path class="cls-4" d="M41.25,2.68a1.44,1.44,0,0,1,1.17.47,2,2,0,0,1,.37.77h1.49a2.65,2.65,0,0,0-.49-1.33A3.32,3.32,0,0,0,39,2.29a3.92,3.92,0,0,0-1,2.87,4,4,0,0,0,.87,2.72,3,3,0,0,0,2.39,1,2.81,2.81,0,0,0,2-.73,3.15,3.15,0,0,0,1-1.89H42.78a2.14,2.14,0,0,1-.37.83,1.37,1.37,0,0,1-1.16.51A1.51,1.51,0,0,1,40,7a2.81,2.81,0,0,1-.49-1.79A3.22,3.22,0,0,1,40,3.34,1.46,1.46,0,0,1,41.25,2.68Z"/><polygon class="cls-4" points="47.71 4.47 50.63 1.55 48.71 1.55 45.96 4.48 45.96 1.55 44.5 1.55 44.5 8.66 45.96 8.66 45.96 6.28 46.68 5.56 48.87 8.66 50.78 8.66 47.71 4.47"/><path class="cls-4" d="M24.84,4.19h-1V1.54H18.93V8.65H25.3V4.19ZM20.41,2.84h1.91V4.19H20.41Zm0,4.33V5.68h3.4V7.17Z"/><path d="M0,13.66H9.09c3.68,0,6.17,1.19,6.17,4.79a4.2,4.2,0,0,1-2.62,4,4.69,4.69,0,0,1,3.54,4.9c0,3.92-3.32,5.6-6.81,5.6H0Zm4.25,7.82h4.3c1.52,0,2.6-.68,2.6-2.3,0-1.81-1.41-2.22-2.92-2.22h-4Zm0,8.2H8.8c1.65,0,3.14-.55,3.14-2.55s-1.22-2.76-3.06-2.76H4.25Z"/><path d="M17.4,23.29c.21-3.57,3.43-4.68,6.57-4.68,2.79,0,6.14.62,6.14,4v7.27A7.21,7.21,0,0,0,30.6,33H26.7a6.3,6.3,0,0,1-.27-1.36,6.39,6.39,0,0,1-4.71,1.73C19.05,33.35,17,32,17,29.16c.06-6.36,9.47-2.95,9.31-6.09,0-1.62-1.14-1.89-2.49-1.89s-2.41.6-2.54,2.11Zm8.87,2.84c-.65.57-2,.6-3.19.81S20.8,27.59,20.8,29s1.11,1.78,2.36,1.78a2.84,2.84,0,0,0,3.11-3.21Z"/><path d="M35,28.43c0,1.65,1.46,2.35,3,2.35,1.08,0,2.51-.43,2.51-1.78,0-1.16-1.62-1.6-4.35-2.17-2.25-.51-4.44-1.24-4.44-3.73,0-3.57,3.08-4.49,6.09-4.49s5.87,1,6.16,4.46H40.25c-.11-1.48-1.24-1.89-2.62-1.89-.87,0-2.14.14-2.14,1.3,0,1.38,2.19,1.57,4.36,2.08s4.43,1.33,4.43,3.93c0,3.67-3.22,4.86-6.38,4.86s-6.44-1.21-6.58-4.92Z"/><path d="M48.61,26.92c.11,2.46,1.27,3.54,3.43,3.54a3.16,3.16,0,0,0,3-1.81h3.38a6.26,6.26,0,0,1-6.54,4.7c-4.41,0-7.14-3-7.14-7.35s2.89-7.39,7.14-7.39c4.76,0,7.09,4,6.79,8.31Zm6.25-2.44c-.35-1.95-1.19-3-3.06-3a3,3,0,0,0-3.19,3Z"/></g></g></svg>