<svg xmlns="http://www.w3.org/2000/svg" viewBox="0 0 85.95 27.155"><defs><style>.cls-1{fill:#fff;}.cls-2{fill:#97999b;}.cls-3{fill:#006ac6;}.cls-4{fill:#f09620;}</style></defs><g id="Layer_2" data-name="Layer 2"><g id="Layer_1-2" data-name="Layer 1"><path d="M0,11.191H3.446V26.848H0Z"/><path d="M5.485,15.511h2.96V17.09h.066A3.993,3.993,0,0,1,11.975,15.2c3.312,0,4.145,1.863,4.145,4.67v6.974H13.006v-6.4c0-1.864-.526-2.785-2-2.785-1.688,0-2.412.943-2.412,3.245v5.943H5.485Z"/><path d="M21.775,15.511h2.281v2.083H21.775v5.613c0,1.053.263,1.317,1.316,1.317a4.365,4.365,0,0,0,.965-.089v2.434a11.9,11.9,0,0,1-1.82.111c-1.93,0-3.574-.417-3.574-2.7V17.594H16.776V15.511h1.886v-3.4h3.113Z"/><path d="M27.454,21.936c.087,2,1.031,2.873,2.785,2.873a2.564,2.564,0,0,0,2.456-1.47h2.74a5.076,5.076,0,0,1-5.306,3.816c-3.574,0-5.789-2.456-5.789-5.964A5.686,5.686,0,0,1,30.129,15.2c3.86,0,5.745,3.245,5.5,6.732Zm5.065-1.973c-.285-1.579-.965-2.413-2.477-2.413a2.44,2.44,0,0,0-2.588,2.413Z"/><path d="M36.816,15.511h2.96v2.105h.044A3.983,3.983,0,0,1,43.438,15.2a2.337,2.337,0,0,1,.679.109v2.895A5.651,5.651,0,0,0,43,18.1c-2.3,0-3.07,1.623-3.07,3.641v5.109H36.816Z"/><path d="M45.366,17.594H43.5V15.511h1.864v-.877c0-2.017,1.25-3.443,3.794-3.443.548,0,1.118.066,1.644.087V13.6a9.9,9.9,0,0,0-1.14-.066c-.855,0-1.184.351-1.184,1.294v.68h2.149v2.083H48.48v9.254H45.366Z"/><path d="M51.2,19c.175-2.894,2.785-3.793,5.329-3.793,2.258,0,4.977.5,4.977,3.223v5.9a5.81,5.81,0,0,0,.4,2.522H58.741a4.673,4.673,0,0,1-.219-1.1,5.169,5.169,0,0,1-3.816,1.4c-2.171,0-3.859-1.075-3.859-3.4.044-5.153,7.675-2.39,7.543-4.934,0-1.315-.921-1.535-2.017-1.535-1.206,0-1.951.482-2.061,1.71Zm7.192,2.3a6.206,6.206,0,0,1-2.587.658c-.965.175-1.842.526-1.842,1.666s.9,1.448,1.907,1.448a2.306,2.306,0,0,0,2.522-2.61Z"/><path d="M70.975,19.5a2.084,2.084,0,0,0-2.3-1.952c-2,0-2.653,2.018-2.653,3.684,0,1.645.635,3.575,2.587,3.575a2.37,2.37,0,0,0,2.478-2.3h3a5.067,5.067,0,0,1-5.46,4.649,5.5,5.5,0,0,1-5.723-5.811c0-3.531,2.1-6.14,5.789-6.14,2.675,0,5.153,1.4,5.328,4.3Z"/><path d="M77.75,21.936c.088,2,1.031,2.873,2.785,2.873a2.563,2.563,0,0,0,2.456-1.47h2.741a5.078,5.078,0,0,1-5.307,3.816c-3.574,0-5.789-2.456-5.789-5.964A5.686,5.686,0,0,1,80.425,15.2c3.86,0,5.745,3.245,5.5,6.732Zm5.065-1.973c-.285-1.579-.964-2.413-2.477-2.413a2.44,2.44,0,0,0-2.588,2.413Z"/><rect class="cls-1" x="14.25" width="27.706" height="7.984"/><rect class="cls-2" width="14.287" height="7.984"/><path class="cls-1" d="M12.1,5.449a6.96,6.96,0,0,0-.948-.256q-.249-.056-.484-.132a1.623,1.623,0,0,1-.421-.2.98.98,0,0,1-.3-.312.891.891,0,0,1-.112-.46A1.244,1.244,0,0,1,10,3.433a1.15,1.15,0,0,1,.412-.4,1.794,1.794,0,0,1,.576-.207,3.465,3.465,0,0,1,.656-.061,3.322,3.322,0,0,1,.652.064,1.734,1.734,0,0,1,.564.216,1.315,1.315,0,0,1,.413.4,1.376,1.376,0,0,1,.2.637H12.387a.5.5,0,0,0-.248-.444,1.124,1.124,0,0,0-.528-.116,1.966,1.966,0,0,0-.208.012.651.651,0,0,0-.2.052.415.415,0,0,0-.156.116.3.3,0,0,0-.064.2.311.311,0,0,0,.112.248.857.857,0,0,0,.292.156,3.631,3.631,0,0,0,.412.108c.155.032.312.067.472.1a4.726,4.726,0,0,1,.484.136,1.584,1.584,0,0,1,.421.212,1.033,1.033,0,0,1,.3.328.971.971,0,0,1,.112.484,1.254,1.254,0,0,1-.593,1.129,1.757,1.757,0,0,1-.6.236,3.538,3.538,0,0,1-.692.068,3.425,3.425,0,0,1-.7-.072,1.847,1.847,0,0,1-.612-.24,1.373,1.373,0,0,1-.44-.444,1.4,1.4,0,0,1-.189-.693h1.081a.616.616,0,0,0,.076.316.66.66,0,0,0,.2.217.846.846,0,0,0,.276.123,1.284,1.284,0,0,0,.324.041,1.262,1.262,0,0,0,.252-.028.869.869,0,0,0,.24-.089.531.531,0,0,0,.18-.16.418.418,0,0,0,.072-.252Q12.443,5.578,12.1,5.449Z"/><rect class="cls-3" x="8.388" y="1.662" width="1.136" height="0.936"/><rect class="cls-1" x="8.388" y="2.872" width="1.136" height="4.137"/><polygon class="cls-1" points="2.048 1.296 2.952 5.185 2.968 5.185 3.96 1.296 5.136 1.296 6.113 5.233 6.129 5.233 7.065 1.296 8.298 1.296 6.761 7.01 5.512 7.01 4.544 3.121 4.528 3.121 3.576 7.01 2.304 7.01 0.791 1.296 2.048 1.296"/><polygon class="cls-4" points="22.36 1.251 21.158 1.251 21.158 7.004 25.233 7.004 25.233 5.97 22.36 5.97 22.36 1.251"/><path class="cls-4" d="M27.787,1.075a2.509,2.509,0,0,0-1.886.672,3.041,3.041,0,0,0-.874,2.373A3.1,3.1,0,0,0,25.9,6.493a2.508,2.508,0,0,0,1.886.671,2.507,2.507,0,0,0,1.885-.671,3.112,3.112,0,0,0,.87-2.373,3.05,3.05,0,0,0-.87-2.373A2.508,2.508,0,0,0,27.787,1.075ZM28.92,5.619a1.372,1.372,0,0,1-1.133.527,1.389,1.389,0,0,1-1.14-.527,2.331,2.331,0,0,1-.426-1.5,2.329,2.329,0,0,1,.426-1.5,1.389,1.389,0,0,1,1.14-.527,1.368,1.368,0,0,1,1.133.529,2.356,2.356,0,0,1,.42,1.5A2.355,2.355,0,0,1,28.92,5.619Z"/><path class="cls-4" d="M33.344,2.168a1.184,1.184,0,0,1,.952.375,1.65,1.65,0,0,1,.3.624h1.2A2.081,2.081,0,0,0,35.4,2.094a2.683,2.683,0,0,0-3.869-.242,3.181,3.181,0,0,0-.8,2.323,3.2,3.2,0,0,0,.7,2.193,2.441,2.441,0,0,0,1.931.8,2.3,2.3,0,0,0,1.627-.589,2.589,2.589,0,0,0,.79-1.53H34.587a1.82,1.82,0,0,1-.3.667,1.128,1.128,0,0,1-.943.414,1.229,1.229,0,0,1-.995-.482,2.267,2.267,0,0,1-.391-1.45,2.579,2.579,0,0,1,.371-1.5A1.174,1.174,0,0,1,33.344,2.168Z"/><polygon class="cls-4" points="38.571 3.617 40.932 1.251 39.379 1.251 37.156 3.622 37.156 1.251 35.973 1.251 35.973 7.004 37.156 7.004 37.156 5.08 37.735 4.493 39.507 7.004 41.053 7.004 38.571 3.617"/><path class="cls-4" d="M20.08,3.39h-.832V1.243H15.3V7H20.45V3.39ZM16.5,2.3h1.544v1.1H16.5Zm0,3.5v-1.2h2.746v1.2Z"/></g></g></svg>