<svg xmlns="http://www.w3.org/2000/svg" xmlns:xlink="http://www.w3.org/1999/xlink" viewBox="0 0 75.76 26.98"><defs><style>.cls-1{fill:none;}.cls-2{clip-path:url(#clip-path);}.cls-3{fill:#96989a;}.cls-4{fill:#fff;}.cls-5{fill:#256bb3;}.cls-6{fill:#e4562c;}</style><clipPath id="clip-path" transform="translate(0 0)"><rect class="cls-1" width="75.76" height="26.98"/></clipPath></defs><g id="Layer_2" data-name="Layer 2"><g id="Layer_1-2" data-name="Layer 1"><g id="WisDuo-Module"><g class="cls-2"><rect class="cls-3" width="14.29" height="7.99"/><rect class="cls-4" x="14.29" width="16.75" height="7.99"/><g class="cls-2"><path class="cls-4" d="M12.1,5.45a6.5,6.5,0,0,0-.94-.26,3.92,3.92,0,0,1-.49-.13,1.63,1.63,0,0,1-.42-.2A1,1,0,0,1,10,4.55a.85.85,0,0,1-.12-.46A1.2,1.2,0,0,1,10,3.43a1.12,1.12,0,0,1,.41-.4A1.74,1.74,0,0,1,11,2.82a3.49,3.49,0,0,1,.65-.06,3.6,3.6,0,0,1,.66.06,2,2,0,0,1,.56.22,1.42,1.42,0,0,1,.41.4,1.34,1.34,0,0,1,.2.64H12.39a.49.49,0,0,0-.25-.44,1.12,1.12,0,0,0-.53-.12H11.4l-.2.05A.61.61,0,0,0,11,3.7a.33.33,0,0,0-.06.21.3.3,0,0,0,.11.24.81.81,0,0,0,.29.16,3.44,3.44,0,0,0,.41.11l.48.1a4.34,4.34,0,0,1,.48.14,1.38,1.38,0,0,1,.42.21,1.18,1.18,0,0,1,.3.33,1,1,0,0,1,.11.48,1.35,1.35,0,0,1-.16.69,1.39,1.39,0,0,1-.43.44,1.94,1.94,0,0,1-.61.24,3.85,3.85,0,0,1-.69.06A3.26,3.26,0,0,1,11,7a2,2,0,0,1-.62-.24,1.54,1.54,0,0,1-.44-.44,1.47,1.47,0,0,1-.18-.69h1.08A.62.62,0,0,0,10.9,6a.7.7,0,0,0,.2.22,1.11,1.11,0,0,0,.27.12,1.24,1.24,0,0,0,.33,0l.25,0a.62.62,0,0,0,.24-.08.69.69,0,0,0,.18-.16.44.44,0,0,0,.07-.26c0-.17-.11-.3-.34-.38" transform="translate(0 0)"/><rect class="cls-5" x="8.39" y="1.66" width="1.14" height="0.94"/><rect class="cls-4" x="8.39" y="2.87" width="1.14" height="4.14"/><polygon class="cls-4" points="2.05 1.3 2.95 5.18 2.97 5.18 3.96 1.3 5.14 1.3 6.11 5.23 6.13 5.23 7.07 1.3 8.3 1.3 6.76 7.01 5.51 7.01 4.54 3.12 4.53 3.12 3.58 7.01 2.3 7.01 0.79 1.3 2.05 1.3"/><path class="cls-6" d="M19.78,2a2,2,0,0,0-1-.75,3,3,0,0,0-.92-.13H15.28V7h2.57a2.14,2.14,0,0,0,2-1.11,3.87,3.87,0,0,0,.48-2,5,5,0,0,0-.11-1,2.76,2.76,0,0,0-.43-1m-.91,3.16A1.25,1.25,0,0,1,17.64,6H16.49V2.11h1.15a1.19,1.19,0,0,1,1.13.49A2.77,2.77,0,0,1,19.06,4a3.14,3.14,0,0,1-.19,1.13" transform="translate(0 0)"/><path class="cls-6" d="M23.38,5a1.64,1.64,0,0,1-.11.68.79.79,0,0,1-.8.48.6.6,0,0,1-.61-.34,1.33,1.33,0,0,1-.09-.56V2.63H20.59V5.28a2.64,2.64,0,0,0,.19,1.14,1.3,1.3,0,0,0,1.31.7A1.78,1.78,0,0,0,22.68,7a1.6,1.6,0,0,0,.52-.33.65.65,0,0,0,.15-.18.58.58,0,0,0,.08-.12V7h1.12V5h-.64V4h.64V2.63H23.38Z" transform="translate(0 0)"/><path class="cls-6" d="M27.31,1.67A2.73,2.73,0,0,0,24.61,4h1.33A1.44,1.44,0,1,1,26,5H24.65a2.73,2.73,0,1,0,2.66-3.36" transform="translate(0 0)"/><polygon points="0.2 11.06 5.03 11.06 8.68 21.79 8.73 21.79 12.18 11.06 17.01 11.06 17.01 26.67 13.8 26.67 13.8 15.61 13.76 15.61 9.93 26.67 7.28 26.67 3.46 15.71 3.41 15.71 3.41 26.67 0.2 26.67 0.2 11.06"/><path d="M25.19,15.06c3.56,0,5.86,2.36,5.86,6A5.55,5.55,0,0,1,25.19,27c-3.54,0-5.84-2.37-5.84-5.95s2.3-6,5.84-6m0,9.58c2.12,0,2.76-1.8,2.76-3.61s-.64-3.63-2.76-3.63S22.46,19.21,22.46,21s.63,3.61,2.73,3.61" transform="translate(0 0)"/><path d="M41.13,25.23h0A3.76,3.76,0,0,1,37.65,27c-3.41,0-5.07-2.91-5.07-6.06s1.68-5.86,5-5.86a3.89,3.89,0,0,1,3.34,1.68h0V11.06h3.1V26.67H41.13ZM38.42,17.4c-2,0-2.74,1.77-2.74,3.61s.81,3.63,2.74,3.63,2.67-1.8,2.67-3.66-.66-3.58-2.67-3.58" transform="translate(0 0)"/><path d="M57,26.67h-3V25.1H54A4,4,0,0,1,50.55,27c-3.3,0-4.13-1.86-4.13-4.66v-7h3.11v6.39c0,1.86.52,2.78,2,2.78,1.68,0,2.4-.94,2.4-3.24V15.36H57Z" transform="translate(0 0)"/><rect x="59.47" y="11.06" width="3.1" height="15.62"/><path d="M67.58,21.77c.09,2,1,2.87,2.78,2.87a2.55,2.55,0,0,0,2.45-1.47h2.74A5.08,5.08,0,0,1,70.25,27c-3.56,0-5.77-2.45-5.77-5.95a5.67,5.67,0,0,1,5.77-6c3.85,0,5.73,3.23,5.49,6.71Zm5.06-2c-.29-1.57-1-2.4-2.47-2.4a2.44,2.44,0,0,0-2.59,2.4Z" transform="translate(0 0)"/></g></g></g></g></g></svg>