<svg xmlns="http://www.w3.org/2000/svg" xmlns:xlink="http://www.w3.org/1999/xlink" viewBox="0 0 104.62 33.37"><defs><style>.cls-1{fill:none;}.cls-2{clip-path:url(#clip-path);}.cls-3{fill:#96989a;}.cls-4{fill:#fff;}.cls-5{fill:#256bb3;}.cls-6{fill:#e4562c;}</style><clipPath id="clip-path" transform="translate(0 0)"><rect class="cls-1" width="104.62" height="33.37"/></clipPath></defs><g id="Layer_2" data-name="Layer 2"><g id="Layer_1-2" data-name="Layer 1"><g id="WisDuo-Breakout"><g class="cls-2"><rect class="cls-3" width="17.67" height="9.88"/><rect class="cls-4" x="17.67" width="20.72" height="9.88"/><g class="cls-2"><path class="cls-4" d="M15,6.74a8.32,8.32,0,0,0-1.17-.32,5.25,5.25,0,0,1-.6-.16A1.67,1.67,0,0,1,12.68,6a1.34,1.34,0,0,1-.37-.38,1.15,1.15,0,0,1-.14-.57,1.52,1.52,0,0,1,.2-.81,1.36,1.36,0,0,1,.51-.5,2.08,2.08,0,0,1,.71-.26,4.14,4.14,0,0,1,1.62,0,2.55,2.55,0,0,1,.7.27,1.73,1.73,0,0,1,.51.5,1.8,1.8,0,0,1,.24.79H15.32A.62.62,0,0,0,15,4.5a1.4,1.4,0,0,0-.66-.15l-.25,0a1,1,0,0,0-.26.06.55.55,0,0,0-.19.15.37.37,0,0,0-.08.25.41.41,0,0,0,.14.31,1,1,0,0,0,.36.19,4.71,4.71,0,0,0,.51.13l.58.13a5.25,5.25,0,0,1,.6.17,2,2,0,0,1,.52.26,1.32,1.32,0,0,1,.37.41,1.21,1.21,0,0,1,.14.6,1.58,1.58,0,0,1-.74,1.39,2.13,2.13,0,0,1-.74.3,4.91,4.91,0,0,1-.86.08,4.14,4.14,0,0,1-.87-.09,2.32,2.32,0,0,1-.76-.3A1.63,1.63,0,0,1,12.06,7h1.33a.71.71,0,0,0,.1.39.78.78,0,0,0,.24.27,1,1,0,0,0,.34.15,1.75,1.75,0,0,0,.4,0,1.15,1.15,0,0,0,.31,0,1,1,0,0,0,.3-.11.57.57,0,0,0,.22-.19.54.54,0,0,0,.09-.31c0-.22-.14-.37-.42-.48" transform="translate(0 0)"/><rect class="cls-5" x="10.38" y="2.06" width="1.4" height="1.16"/><rect class="cls-4" x="10.38" y="3.55" width="1.4" height="5.12"/><polygon class="cls-4" points="2.53 1.6 3.65 6.41 3.67 6.41 4.9 1.6 6.35 1.6 7.56 6.47 7.58 6.47 8.74 1.6 10.26 1.6 8.36 8.67 6.82 8.67 5.62 3.86 5.6 3.86 4.42 8.67 2.85 8.67 0.98 1.6 2.53 1.6"/><path class="cls-6" d="M24.47,2.43a2.42,2.42,0,0,0-1.25-.94,4.06,4.06,0,0,0-1.14-.16H18.91V8.69h3.17a2.68,2.68,0,0,0,2.47-1.37,4.93,4.93,0,0,0,.58-2.49A5.38,5.38,0,0,0,25,3.61a3.12,3.12,0,0,0-.52-1.18M23.34,6.34a1.55,1.55,0,0,1-1.52,1.07H20.4V2.61h1.42a1.48,1.48,0,0,1,1.4.6,3.52,3.52,0,0,1,.35,1.73,3.91,3.91,0,0,1-.23,1.4" transform="translate(0 0)"/><path class="cls-6" d="M28.93,6.21a2.16,2.16,0,0,1-.14.84,1,1,0,0,1-1,.59A.77.77,0,0,1,27,7.23a1.79,1.79,0,0,1-.11-.7V3.25H25.47V6.53a3.43,3.43,0,0,0,.23,1.41,1.62,1.62,0,0,0,1.62.87,2.24,2.24,0,0,0,.73-.11,1.89,1.89,0,0,0,.65-.41,1.37,1.37,0,0,0,.19-.22l.1-.15v.77h1.38V6.22h-.8V4.94h.8V3.25H28.93Z" transform="translate(0 0)"/><path class="cls-6" d="M33.78,2.06a3.37,3.37,0,0,0-3.34,2.88h1.65a1.77,1.77,0,1,1,.11,1.28H30.49a3.38,3.38,0,1,0,3.29-4.16" transform="translate(0 0)"/><path d="M0,13.68H9.09c3.68,0,6.17,1.19,6.17,4.78a4.2,4.2,0,0,1-2.63,4,4.67,4.67,0,0,1,3.55,4.89c0,3.93-3.33,5.6-6.82,5.6H0Zm4.25,7.81h4.3c1.51,0,2.6-.67,2.6-2.3,0-1.81-1.41-2.21-2.93-2.21h-4Zm0,8.2H8.79c1.65,0,3.14-.54,3.14-2.54s-1.22-2.76-3.06-2.76H4.25Z" transform="translate(0 0)"/><path d="M17,19h3.65V21.6h.06a4.9,4.9,0,0,1,4.46-3,2.89,2.89,0,0,1,.84.13v3.57a7.11,7.11,0,0,0-1.38-.13c-2.84,0-3.79,2-3.79,4.49V33H17Z" transform="translate(0 0)"/><path d="M29.62,26.93c.1,2.46,1.27,3.55,3.43,3.55a3.15,3.15,0,0,0,3-1.82h3.38a6.26,6.26,0,0,1-6.54,4.71c-4.41,0-7.15-3-7.15-7.36a7,7,0,0,1,7.15-7.38c4.76,0,7.09,4,6.79,8.3Zm6.25-2.43c-.36-1.95-1.19-3-3.06-3a3,3,0,0,0-3.19,3Z" transform="translate(0 0)"/><path d="M40.73,23.31c.22-3.57,3.44-4.68,6.58-4.68,2.78,0,6.14.62,6.14,4v7.28A7.21,7.21,0,0,0,53.93,33H50a5.14,5.14,0,0,1-.27-1.35,6.39,6.39,0,0,1-4.71,1.73c-2.68,0-4.76-1.32-4.76-4.19.05-6.36,9.47-2.95,9.31-6.09,0-1.62-1.14-1.89-2.49-1.89s-2.41.59-2.55,2.11Zm8.88,2.84c-.65.57-2,.59-3.2.81s-2.27.65-2.27,2.06,1.11,1.78,2.36,1.78a2.84,2.84,0,0,0,3.11-3.22Z" transform="translate(0 0)"/><polygon points="54.61 13.68 58.45 13.68 58.45 24.04 63.29 19.01 67.84 19.01 62.56 24.15 68.43 32.99 63.78 32.99 59.94 26.74 58.45 28.18 58.45 32.99 54.61 32.99 54.61 13.68"/><path d="M73.87,18.63c4.41,0,7.25,2.92,7.25,7.38s-2.84,7.36-7.25,7.36S66.64,30.45,66.64,26s2.84-7.38,7.23-7.38m0,11.85c2.62,0,3.4-2.22,3.4-4.47s-.78-4.49-3.4-4.49S70.48,23.77,70.48,26s.79,4.47,3.39,4.47" transform="translate(0 0)"/><path d="M95.1,33H91.45V31h-.08a4.94,4.94,0,0,1-4.28,2.33C83,33.37,82,31.07,82,27.61V19h3.84v7.9c0,2.3.65,3.44,2.46,3.44,2.08,0,3-1.16,3-4V19H95.1Z" transform="translate(0 0)"/><path d="M101.8,19h2.82v2.57H101.8V28.5c0,1.3.33,1.62,1.63,1.62a5.51,5.51,0,0,0,1.19-.1v3a14.58,14.58,0,0,1-2.25.13c-2.38,0-4.41-.51-4.41-3.32V21.58H95.64V19H98v-4.2h3.84Z" transform="translate(0 0)"/></g></g></g></g></g></svg>