<svg xmlns="http://www.w3.org/2000/svg" viewBox="0 0 126.05 27.83"><defs><style>.cls-1{fill:#97999b;}.cls-2{fill:#fff;}.cls-3{fill:#006ac6;}.cls-4{fill:#00929f;}</style></defs><g id="Layer_2" data-name="Layer 2"><g id="Layer_1-2" data-name="Layer 1"><rect class="cls-1" x="10.8" y="-10.6" width="27.18" height="48.64" transform="translate(10.55 38.04) rotate(-89.71)"/><rect class="cls-2" x="73.75" y="-24.59" width="27.18" height="77.27" transform="translate(72.85 101.31) rotate(-89.71)"/><path class="cls-2" d="M41.25,18.76A23.12,23.12,0,0,0,38,17.88c-.57-.13-1.11-.29-1.65-.46A5.93,5.93,0,0,1,35,16.73a3.3,3.3,0,0,1-1-1.07,3,3,0,0,1-.37-1.57,4.19,4.19,0,0,1,.54-2.23,4,4,0,0,1,1.41-1.37,6.13,6.13,0,0,1,2-.69,11.62,11.62,0,0,1,4.45,0,5.83,5.83,0,0,1,1.92.75A4.46,4.46,0,0,1,45.26,12a4.63,4.63,0,0,1,.66,2.17l-3.68,0a1.7,1.7,0,0,0-.84-1.52,3.84,3.84,0,0,0-1.79-.4,6,6,0,0,0-.71,0,2.18,2.18,0,0,0-.7.17,1.46,1.46,0,0,0-.53.39,1,1,0,0,0-.22.7,1,1,0,0,0,.38.84,2.9,2.9,0,0,0,1,.54,11.69,11.69,0,0,0,1.4.37l1.6.37a14.3,14.3,0,0,1,1.65.47,5.35,5.35,0,0,1,1.43.73,3.47,3.47,0,0,1,1,1.12,3.25,3.25,0,0,1,.37,1.65,4.27,4.27,0,0,1-2,3.83,5.93,5.93,0,0,1-2.06.79,11.65,11.65,0,0,1-2.36.22,11.92,11.92,0,0,1-2.4-.25,6.52,6.52,0,0,1-2.08-.83,4.49,4.49,0,0,1-2.12-3.88l3.68,0a2.12,2.12,0,0,0,.25,1.07,2.18,2.18,0,0,0,.67.74,2.61,2.61,0,0,0,.94.43,4.28,4.28,0,0,0,2,.05,3.06,3.06,0,0,0,.82-.29,1.89,1.89,0,0,0,.61-.55,1.36,1.36,0,0,0,.25-.85C42.4,19.5,42,19.06,41.25,18.76Z"/><rect class="cls-3" x="29" y="5.48" width="3.19" height="3.87" transform="translate(23.03 37.97) rotate(-89.71)"/><rect class="cls-2" x="23.5" y="15.04" width="14.09" height="3.87" transform="translate(13.41 47.44) rotate(-89.71)"/><polygon class="cls-2" points="7.09 4.45 10.1 17.7 10.15 17.7 13.6 4.48 17.6 4.5 20.86 17.92 20.91 17.92 24.17 4.54 28.37 4.56 23.04 23.98 18.78 23.96 15.56 10.7 15.5 10.7 12.19 23.93 7.86 23.91 2.81 4.43 7.09 4.45"/><path class="cls-4" d="M60.88,4,52.16,4l-.11,20.21,8.72.05C66.94,24.24,70,19.89,70,14,70,7.35,66.11,4,60.88,4Zm-.4,16.48-4,0,.06-12.74,3.17,0c4.39,0,5.82,2.63,5.8,6.71C65.53,18.91,63.06,20.48,60.48,20.47Z"/><path class="cls-4" d="M80.94,17.35c0,3-1,4.18-3.13,4.17-1.9,0-2.57-1.2-2.56-3.61l0-8.26-4,0,0,9c0,3.62,1,6,5.32,6.05A5.15,5.15,0,0,0,81,22.27h.08v2l3.83,0L85,9.7l-4,0Z"/><rect class="cls-4" x="81.41" y="15.02" width="14.64" height="4.02" transform="translate(71.24 105.68) rotate(-89.71)"/><path class="cls-4" d="M100.92,9.38a5.17,5.17,0,0,0-4.49,2.41h-.08v-2l-3.82,0-.08,14.64,4,0,0-7.67c0-3,1-4.19,3.14-4.18,1.89,0,2.57,1.21,2.55,3.61l0,8.27,4,0,0-9C106.26,11.81,105.19,9.4,100.92,9.38Z"/><path class="cls-4" d="M115,9.45c-4.59,0-7.58,3-7.6,7.69s2.93,7.72,7.52,7.74,7.6-3,7.63-7.66S119.63,9.48,115,9.45Z"/><polygon class="cls-2" points="119.17 18.56 116.36 18.55 116.34 21.36 113.6 21.35 113.61 18.53 110.8 18.52 110.81 15.77 113.63 15.79 113.64 12.97 116.39 12.99 116.37 15.8 119.19 15.81 119.17 18.56"/><rect class="cls-4" x="87.47" y="2.17" width="2.78" height="8.47" transform="matrix(0.01, -1, 1, 0.01, 82, 95.22)"/></g></g></svg>