<svg xmlns="http://www.w3.org/2000/svg" viewBox="0 0 150.73 24.43"><defs><style>.cls-1{fill:none;}.cls-2{fill:#fff;}.cls-3{fill:#97999b;}.cls-4{fill:#276bb5;}.cls-5{fill:#582d83;}.cls-6{fill:#010101;}.cls-7{fill:#96989a;}</style></defs><g id="Layer_2" data-name="Layer 2"><g id="Layer_1-2" data-name="Layer 1"><rect class="cls-1" width="102.79" height="24.43"/><rect class="cls-2" x="43.69" width="59.1" height="24.43"/><rect class="cls-3" width="43.69" height="24.43"/><rect class="cls-1" width="102.79" height="24.43"/><path class="cls-2" d="M37,16.66a21.05,21.05,0,0,0-2.9-.78c-.5-.11-1-.24-1.49-.4a6.15,6.15,0,0,1-1.36-.61,3.47,3.47,0,0,1-.83-1,2.67,2.67,0,0,1-.33-1.41,3.83,3.83,0,0,1,.47-2.07,3.54,3.54,0,0,1,1.26-1.23,6,6,0,0,1,1.74-.63,10.76,10.76,0,0,1,4,0,5.49,5.49,0,0,1,1.74.66,4.11,4.11,0,0,1,1.25,1.24,3.92,3.92,0,0,1,.61,1.94h-3.3A1.53,1.53,0,0,0,37.1,11a3.64,3.64,0,0,0-1.62-.35h-.64a1.84,1.84,0,0,0-.61.16,1.45,1.45,0,0,0-.49.36,1.06,1.06,0,0,0,.16,1.38,2.9,2.9,0,0,0,.88.48c.42.13.83.24,1.26.33l1.46.49a9.47,9.47,0,0,1,1.47.42,5.18,5.18,0,0,1,1.29.64,3.44,3.44,0,0,1,.9,1,3,3,0,0,1,.35,1.47,3.81,3.81,0,0,1-1.83,3.48,5.3,5.3,0,0,1-1.84.71,10.81,10.81,0,0,1-2.12.21,11.11,11.11,0,0,1-2.15-.21,6.09,6.09,0,0,1-1.88-.78,4.05,4.05,0,0,1-1.34-1.36,4.4,4.4,0,0,1-.57-2.12h3.3a2,2,0,0,0,.23,1A2.21,2.21,0,0,0,34,19a2.73,2.73,0,0,0,.83.38,4.21,4.21,0,0,0,1,.12,4.82,4.82,0,0,0,.76,0,2.09,2.09,0,0,0,.73-.28,1.73,1.73,0,0,0,.56-.48A1.33,1.33,0,0,0,38.1,18c0-.52-.34-.92-1-1.18"/><rect class="cls-4" x="25.66" y="5.09" width="3.47" height="2.87"/><rect class="cls-2" x="25.66" y="8.79" width="3.47" height="12.65"/><polygon class="cls-2" points="6.25 3.96 9.03 15.86 9.07 15.86 12.11 3.96 15.71 3.96 18.69 16 18.75 16 21.61 3.96 25.38 3.96 20.67 21.44 16.87 21.44 13.9 9.54 13.85 9.54 10.95 21.44 7.04 21.44 2.42 3.96 6.25 3.96"/><path class="cls-5" d="M78.39,12.16c0-3.14-3.15-3.73-5.77-3.73-3,0-6,1-6.19,4.41h3.62c.14-1.44,1-2,2.39-2s2.35.26,2.35,1.74c.14,2.95-8.69-.26-8.69,5.71,0,2.7,2,3.95,4.49,3.95A6,6,0,0,0,75,20.6a6.28,6.28,0,0,0,.26,1.29h3.66A6.78,6.78,0,0,1,78.46,19Zm-3.6,4.69a2.67,2.67,0,0,1-2.29,3,2.36,2.36,0,0,1-.65,0c-1.16,0-2.2-.36-2.2-1.73s1-1.74,2.13-1.93a7.29,7.29,0,0,0,3-.77Z"/><path class="cls-5" d="M84.5,4.71H80.89v4H78.7v2.43h2.19v7.75C80.89,21.51,82.8,22,85,22a12.33,12.33,0,0,0,2.1-.12V19a4.59,4.59,0,0,1-1.11.1c-1.22,0-1.53-.29-1.53-1.53v-6.5H87.1V8.69H84.5Z"/><path class="cls-5" d="M94.14,19.42c-2,0-3.14-1-3.23-3.33h9.49c.27-4-1.91-7.8-6.4-7.8a6.57,6.57,0,0,0-6.71,6.43v.52a6.42,6.42,0,0,0,5.88,6.93,5.61,5.61,0,0,0,.82,0,5.87,5.87,0,0,0,6.15-4.43H97a2.94,2.94,0,0,1-2.83,1.74m-.24-8.41c1.74,0,2.55,1,2.88,2.8h-5.9a2.81,2.81,0,0,1,2.82-2.8h.17"/><path class="cls-5" d="M65.11,14.8V10.86H57.33a2,2,0,0,0-1.91,2,1.93,1.93,0,0,0,1.86,2h3.84V18.2H56.77a5.74,5.74,0,0,1-5.64-4.92,5.08,5.08,0,0,1,0-.78,4.82,4.82,0,0,1,0-.76A5.75,5.75,0,0,1,56.84,6.8h4.43v-4h-4.6a10.27,10.27,0,0,0-7,3.06,8.8,8.8,0,0,0-2.59,6.43h0v.09h0a8.74,8.74,0,0,0,2.59,6.43A10.36,10.36,0,0,0,57,21.9H63.1a2,2,0,0,0,1.42-.59,2,2,0,0,0,.6-1.41V18.1h0Z"/><path class="cls-6" d="M123.47,2c5.92,0,9.43,4.43,9.43,10.13s-3.47,10-9.43,10-9.47-4.48-9.47-10S117.56,2,123.47,2Zm0,16.56c3.79,0,5.21-3.23,5.21-6.43s-1.42-6.59-5.21-6.59-5.21,3.24-5.21,6.59,1.42,6.41,5.21,6.41Z"/><path class="cls-6" d="M138.67,15.25c0,2.56,2,3.48,4.24,3.48,1.47,0,3.73-.42,3.73-2.38s-2.9-2.4-5.7-3.18-5.71-1.91-5.71-5.46C135.23,3.84,139,2,142.46,2c4,0,7.67,1.74,7.67,6.19h-4.2c0-2.3-1.74-3-3.72-3-1.35,0-2.9.56-2.9,2.17s.91,1.74,5.72,2.9c1.42.33,5.7,1.27,5.7,5.6,0,3.47-2.75,6.15-8,6.15-4.25,0-8.25-2.1-8.18-6.83Z"/><rect class="cls-7" x="107.26" y="2.66" width="0.76" height="19.11"/></g></g></svg>