<svg xmlns="http://www.w3.org/2000/svg" viewBox="0 0 121.2 38.05"><defs><style>.cls-1{fill:#fff;}.cls-2{fill:#97999b;}.cls-3{fill:#006ac6;}.cls-4{fill:#8842be;}</style></defs><g id="Layer_2" data-name="Layer 2"><g id="Layer_1-2" data-name="Layer 1"><rect class="cls-1" x="17.67" width="23.91" height="9.88"/><rect class="cls-2" width="17.67" height="9.88"/><path class="cls-1" d="M15,6.74a10,10,0,0,0-1.17-.32,5.25,5.25,0,0,1-.6-.16A1.67,1.67,0,0,1,12.68,6a1.34,1.34,0,0,1-.37-.38,1.15,1.15,0,0,1-.14-.57,1.52,1.52,0,0,1,.2-.81,1.36,1.36,0,0,1,.51-.5,2.08,2.08,0,0,1,.71-.26,4.14,4.14,0,0,1,1.62,0,2.55,2.55,0,0,1,.7.27,1.73,1.73,0,0,1,.51.5,1.8,1.8,0,0,1,.24.79H15.32A.62.62,0,0,0,15,4.5a1.4,1.4,0,0,0-.66-.15l-.25,0a1,1,0,0,0-.26.06.7.7,0,0,0-.19.15.37.37,0,0,0-.08.25.4.4,0,0,0,.14.31,1,1,0,0,0,.36.19,4.71,4.71,0,0,0,.51.13l.58.13a5.25,5.25,0,0,1,.6.17,2,2,0,0,1,.52.26,1.32,1.32,0,0,1,.37.41,1.21,1.21,0,0,1,.14.6,1.58,1.58,0,0,1-.74,1.39,2.13,2.13,0,0,1-.74.3,4.91,4.91,0,0,1-.86.08,4.14,4.14,0,0,1-.87-.09,2.32,2.32,0,0,1-.76-.3A1.63,1.63,0,0,1,12.06,7h1.33a.71.71,0,0,0,.1.39.78.78,0,0,0,.24.27,1,1,0,0,0,.34.15,1.75,1.75,0,0,0,.4,0,1.15,1.15,0,0,0,.31,0,1.32,1.32,0,0,0,.3-.1.7.7,0,0,0,.22-.2.54.54,0,0,0,.09-.31C15.39,7,15.25,6.85,15,6.74Z"/><rect class="cls-3" x="10.38" y="2.06" width="1.41" height="1.16"/><rect class="cls-1" x="10.38" y="3.55" width="1.41" height="5.12"/><polygon class="cls-1" points="2.53 1.6 3.65 6.41 3.67 6.41 4.9 1.6 6.35 1.6 7.56 6.47 7.58 6.47 8.74 1.6 10.26 1.6 8.36 8.67 6.82 8.67 5.62 3.86 5.6 3.86 4.42 8.67 2.85 8.67 0.98 1.6 2.53 1.6"/><path class="cls-4" d="M31.71,4.91c0-1.28-1.28-1.51-2.34-1.51s-2.42.42-2.5,1.77h1.46c.05-.57.4-.8,1-.8s.95.11.95.72c.06,1.2-3.52-.1-3.54,2.32C26.71,8.5,27.5,9,28.52,9a2.41,2.41,0,0,0,1.79-.66,2.28,2.28,0,0,0,.1.52h1.48a2.82,2.82,0,0,1-.18-1.19ZM30.25,6.8A1.09,1.09,0,0,1,29.06,8c-.47,0-.89-.14-.89-.67s.41-.7.86-.79a2.83,2.83,0,0,0,1.22-.31Z"/><path class="cls-4" d="M34.18,1.9H32.72V3.5h-.89v1h.89V7.61c0,1.07.77,1.26,1.67,1.26a5.86,5.86,0,0,0,.86,0V7.68a2.19,2.19,0,0,1-.46,0c-.49,0-.61-.12-.61-.61V4.47h1.07v-1H34.18Z"/><path class="cls-4" d="M38.07,7.86c-.82,0-1.26-.41-1.3-1.35H40.6c.12-1.64-.77-3.16-2.58-3.16a2.67,2.67,0,0,0-2.71,2.81A2.6,2.6,0,0,0,38,9a2.38,2.38,0,0,0,2.49-1.79H39.23A1.22,1.22,0,0,1,38.07,7.86ZM38,4.45c.71,0,1,.39,1.16,1.13H36.77A1.14,1.14,0,0,1,38,4.45Z"/><path class="cls-4" d="M26.34,6V4.39H23.22a.81.81,0,0,0-.78.8.8.8,0,0,0,.78.79h1.52V7.33H23a2.34,2.34,0,0,1-2.31-2c0-.13,0-.22,0-.31s0-.19,0-.32a2.34,2.34,0,0,1,2.31-2h1.79V1.11H22.92a4.19,4.19,0,0,0-2.84,1.24A3.6,3.6,0,0,0,19,5v.13a3.62,3.62,0,0,0,1,2.61,4.21,4.21,0,0,0,3,1.24h2.45a.81.81,0,0,0,.82-.8h0V7.46h0Z"/><path d="M0,13.81H8.33c5,0,8.77,3.17,8.77,9.55,0,5.6-2.87,9.77-8.77,9.77H0ZM4.25,29.56H8c2.47,0,4.82-1.52,4.82-5.79,0-3.9-1.38-6.38-5.57-6.38h-3Z"/><path d="M22.26,27.07c.11,2.46,1.27,3.54,3.44,3.54a3.16,3.16,0,0,0,3-1.81h3.38a6.26,6.26,0,0,1-6.55,4.71c-4.41,0-7.14-3-7.14-7.36a7,7,0,0,1,7.14-7.38c4.76,0,7.09,4,6.79,8.3Zm6.25-2.43c-.35-1.95-1.19-3-3.06-3a3,3,0,0,0-3.19,3Z"/><path d="M41.27,33.13H37l-4.79-14h4l2.95,9.55h.06l2.94-9.55H46Z"/><path d="M49.14,27.07c.11,2.46,1.28,3.54,3.44,3.54a3.15,3.15,0,0,0,3-1.81H59a6.26,6.26,0,0,1-6.55,4.71c-4.41,0-7.14-3-7.14-7.36a7,7,0,0,1,7.14-7.38c4.77,0,7.09,4,6.8,8.3Zm6.25-2.43c-.35-1.95-1.19-3-3-3a3,3,0,0,0-3.2,3Z"/><path d="M60.53,13.81h3.84V33.13H60.53Z"/><path d="M72.57,18.77c4.41,0,7.25,2.92,7.25,7.38S77,33.51,72.57,33.51s-7.23-2.92-7.23-7.36S68.19,18.77,72.57,18.77Zm0,11.84c2.62,0,3.41-2.21,3.41-4.46s-.79-4.49-3.41-4.49-3.38,2.25-3.38,4.49S70,30.61,72.57,30.61Z"/><path d="M81.76,19.14h3.65v1.79h.06a4.61,4.61,0,0,1,4.16-2.16C94,18.77,96,22.31,96,26.29c0,3.73-2,7.22-6.14,7.22a5,5,0,0,1-4.19-2.11H85.6v6.65H81.76Zm10.39,7c0-2.25-.89-4.52-3.35-4.52s-3.33,2.25-3.33,4.52.86,4.43,3.35,4.43S92.15,28.45,92.15,26.18Z"/><path d="M100.91,27.07c.11,2.46,1.27,3.54,3.44,3.54a3.16,3.16,0,0,0,3-1.81h3.38a6.26,6.26,0,0,1-6.55,4.71c-4.41,0-7.14-3-7.14-7.36a7,7,0,0,1,7.14-7.38c4.76,0,7.09,4,6.79,8.3Zm6.25-2.43c-.35-1.95-1.19-3-3.06-3a3,3,0,0,0-3.19,3Z"/><path d="M112.19,19.14h3.65v2.6h.06a4.9,4.9,0,0,1,4.46-3,2.89,2.89,0,0,1,.84.13v3.57a7.11,7.11,0,0,0-1.38-.13c-2.84,0-3.79,2-3.79,4.49v6.3h-3.84Z"/></g></g></svg>