<?xml version="1.0" encoding="UTF-8"?><svg xmlns="http://www.w3.org/2000/svg" viewBox="0 0 167.17 65.61"><defs><style>.k{fill:#fff;}.l{fill:#582c83;}.m{fill:#97999b;}.n{fill:#006ac6;}</style></defs><g id="a"/><g id="b"><g id="c"><g><g id="d"><g id="e"><g id="f"><g id="g"><g id="h"><g id="i"><g id="j"><rect class="k" x="30.28" width="40.96" height="16.93"/><rect class="m" width="30.28" height="16.93"/><path class="k" d="M25.65,11.55c-.65-.23-1.32-.41-2-.54-.35-.08-.69-.17-1-.28-.32-.1-.62-.24-.9-.43-.26-.17-.48-.4-.64-.66-.16-.31-.24-.65-.23-1-.02-.49,.1-.97,.35-1.39,.21-.35,.51-.64,.87-.85,.37-.2,.77-.34,1.19-.42,.91-.18,1.85-.18,2.76,0,.42,.08,.83,.23,1.2,.46,.35,.21,.65,.5,.88,.85,.25,.41,.39,.87,.42,1.35h-2.29c0-.39-.19-.75-.53-.94-.35-.18-.73-.26-1.12-.25-.15-.01-.29-.01-.44,0-.15,.01-.29,.05-.43,.11-.13,.05-.24,.13-.33,.24-.24,.31-.19,.74,.1,1,.18,.15,.39,.26,.62,.33,.29,.1,.58,.17,.88,.23l1,.22c.34,.07,.67,.17,1,.29,.32,.1,.62,.25,.89,.45,.26,.18,.48,.42,.64,.69,.16,.31,.25,.65,.24,1,.05,.97-.43,1.88-1.26,2.4-.39,.24-.83,.41-1.28,.5-.48,.09-.97,.14-1.47,.14-.5,0-.99-.05-1.48-.15-.46-.09-.9-.26-1.3-.51-.38-.24-.7-.56-.94-.94-.25-.45-.39-.95-.4-1.47h2.29c0,.23,.05,.46,.16,.67,.1,.18,.25,.34,.42,.46,.18,.12,.38,.21,.59,.26,.22,.06,.46,.09,.69,.09,.18,0,.35-.03,.53-.06,.18-.04,.35-.1,.51-.19,.15-.08,.29-.2,.39-.34,.1-.16,.16-.35,.15-.54,0-.35-.26-.6-.74-.78Z"/><rect class="n" x="17.77" y="3.52" width="2.41" height="1.99"/><rect class="k" x="17.77" y="6.09" width="2.41" height="8.77"/><polygon class="k" points="4.34 2.74 6.26 10.99 6.29 10.99 8.39 2.74 10.89 2.74 12.95 11.09 12.99 11.09 14.97 2.74 17.58 2.74 14.33 14.86 11.69 14.86 9.63 6.62 9.6 6.62 7.57 14.86 4.88 14.86 1.68 2.74 4.34 2.74"/><path class="l" d="M54.32,8.4c0-2.18-2.18-2.58-3.99-2.58-2,0-4.14,.72-4.28,3.05h2.49c.09-1,.69-1.38,1.66-1.38s1.63,.17,1.63,1.23c.1,2-5.99-.17-6.07,3.99,0,1.87,1.36,2.72,3.1,2.72,1.12,.04,2.22-.37,3.03-1.15,.02,.3,.08,.6,.18,.89h2.54c-.25-.63-.36-1.32-.32-2l.02-4.78Zm-2.49,3.25c.14,1.02-.57,1.95-1.59,2.1-.15,.02-.29,.02-.44,0-.81,0-1.54-.25-1.54-1.16s.71-1.2,1.49-1.35c.72-.02,1.43-.2,2.08-.52v.93Z"/><path class="l" d="M58.56,3.25h-2.5v2.73h-1.52v1.68h1.52v5.38c0,1.83,1.32,2.17,2.87,2.17,.49,0,.97-.02,1.46-.09v-2c-.25,.05-.51,.07-.77,.07-.85,0-1.07-.21-1.07-1.06V7.66h1.84v-1.68h-1.84V3.25Z"/><path class="l" d="M65.24,13.46c-1.42,0-2.18-.71-2.25-2.32h6.58c.27-2.52-1.55-4.77-4.06-5.05-2.25-.24-4.34,1.19-4.92,3.38-.06,.36-.09,.72-.07,1.08-.19,2.45,1.64,4.59,4.09,4.78,.19,0,.38,0,.57,0,1.98,.15,3.78-1.15,4.26-3.07h-2.24c-.35,.76-1.13,1.24-1.97,1.2Zm-.17-5.83c1.22,0,1.76,.67,2,1.94h-4.07c.03-1.08,.91-1.95,2-1.95h.08Z"/><path class="l" d="M45.13,10.25v-2.72h-5.35c-.75,.06-1.31,.73-1.25,1.48,.06,.66,.58,1.19,1.25,1.25h2.6v2.32h-2.99c-2,.02-3.7-1.44-3.99-3.41-.05-.35-.05-.71,0-1.07,.28-1.98,1.99-3.44,3.99-3.42h3.12V1.91h-3.23c-1.83,.05-3.57,.81-4.86,2.12-1.18,1.19-1.83,2.8-1.8,4.47v.21c-.03,1.67,.62,3.28,1.8,4.47,1.35,1.37,3.19,2.14,5.11,2.14h4.21c.75,0,1.37-.59,1.4-1.34h0v-1.2h0v-2.52Z"/><path d="M0,23.43H24.75v6.12H7.27v7.1H23.31v5.65H7.27v8.11H25.12v6.12H0V23.43Z"/><path d="M44.58,53.47h-.09c-1.55,2.49-4.35,3.91-7.27,3.7-7.24,0-10.76-6.16-10.76-12.83,0-6.42,3.57-12.4,10.62-12.4,2.82-.1,5.49,1.25,7.1,3.57h.09v-12.08h6.58V56.52h-6.26v-3.05Zm-5.75-16.55c-4.3,0-5.79,3.76-5.79,7.65s1.72,7.69,5.79,7.69c4.31,0,5.66-3.8,5.66-7.74s-1.39-7.6-5.66-7.6Z"/><path d="M77.9,55c0,3.99-1.44,10.62-12.41,10.62-4.73,0-10.2-2.28-10.6-7.73h6.53c.56,2.19,2.68,3.61,4.92,3.29,3.66,0,5.33-2.45,5.28-5.93v-3.12h-.06c-1.54,2.45-4.29,3.87-7.19,3.7-7.23,0-10.24-5.47-10.24-12.05,0-6.22,3.61-11.85,10.29-11.85,2.93-.23,5.71,1.28,7.14,3.84h.09v-3.19h6.26v22.41Zm-6.26-10.76c0-3.89-1.34-7.36-5.61-7.36-3.7,0-5.33,3.24-5.33,6.82s1.26,7.21,5.33,7.21c3.75,0,5.61-3.22,5.61-6.66Z"/><path d="M87.68,46.14c.18,4.21,2.18,6.07,5.89,6.07,2.21,.14,4.29-1.09,5.23-3.1h5.79c-1.28,5.06-6.01,8.46-11.22,8.06-7.55,0-12.23-5.19-12.23-12.6-.34-6.61,4.72-12.25,11.33-12.63h.87c8.16,0,12.14,6.86,11.64,14.23l-17.28-.02Zm10.71-4.18c-.61-3.34-2-5.1-5.24-5.1-2.84-.18-5.28,1.98-5.46,4.82h0c0,.1,0,.19,0,.28h10.7Z"/></g></g></g></g></g></g></g><g><path d="M133.15,56.4h-8.17l-10.71-32.97h7.48l7.34,23.18h.09l7.43-23.18h7.48l-10.94,32.97Z"/><path d="M144.17,36.5c-.23-7.39,3.97-13.07,11.73-13.07,5.91,0,11.08,3.79,11.08,10.11,0,9.79-10.39,10.57-15.1,17.22h15.28v5.63h-23.73c0-7.53,4.62-10.62,10.2-14.45,2.82-1.99,6.79-3.92,6.79-7.9,0-3.09-2.03-4.99-4.85-4.99-3.88,0-5.13,4.02-5.13,7.43h-6.28Z"/></g></g></g></g></svg>