<svg xmlns="http://www.w3.org/2000/svg" viewBox="0 0 114.44 27.18"><defs><style>.cls-1{fill:#fff;}.cls-2{fill:#97999b;}.cls-3{fill:#006ac6;}.cls-4{fill:#8842be;}</style></defs><g id="Layer_2" data-name="Layer 2"><g id="Layer_1-2" data-name="Layer 1"><rect class="cls-1" x="48.64" width="65.8" height="27.18"/><rect class="cls-2" width="48.64" height="27.18"/><path class="cls-1" d="M41.21,18.55A23.53,23.53,0,0,0,38,17.68c-.57-.13-1.11-.28-1.65-.45a5.56,5.56,0,0,1-1.43-.68,3.4,3.4,0,0,1-1-1.06,3.07,3.07,0,0,1-.38-1.57A4.25,4.25,0,0,1,34,11.69a4,4,0,0,1,1.4-1.38,6.16,6.16,0,0,1,2-.71,12.58,12.58,0,0,1,2.23-.2,10.86,10.86,0,0,1,2.22.22,5.81,5.81,0,0,1,1.92.73,4.34,4.34,0,0,1,2.07,3.54H42.17a1.69,1.69,0,0,0-.84-1.51,3.92,3.92,0,0,0-1.8-.39,6.08,6.08,0,0,0-.71,0,2.18,2.18,0,0,0-.69.17,1.41,1.41,0,0,0-.53.4,1,1,0,0,0-.22.69,1,1,0,0,0,.38.85,3,3,0,0,0,1,.53,11.88,11.88,0,0,0,1.41.37l1.6.35a14.3,14.3,0,0,1,1.65.47,5.19,5.19,0,0,1,1.43.72,3.45,3.45,0,0,1,1,1.11,3.25,3.25,0,0,1,.38,1.65,4.42,4.42,0,0,1-.56,2.33,4.37,4.37,0,0,1-1.45,1.51,6,6,0,0,1-2.06.81,12.34,12.34,0,0,1-2.36.23A11.21,11.21,0,0,1,37.41,24a6.24,6.24,0,0,1-2.09-.81,4.51,4.51,0,0,1-2.14-3.87h3.68a2.12,2.12,0,0,0,.26,1.07,2.17,2.17,0,0,0,.67.74,2.78,2.78,0,0,0,.94.42,4.42,4.42,0,0,0,1.1.14,3.79,3.79,0,0,0,.86-.1,2.77,2.77,0,0,0,.82-.3,1.75,1.75,0,0,0,.61-.54,1.46,1.46,0,0,0,.24-.86C42.36,19.28,42,18.84,41.21,18.55Z"/><rect class="cls-3" x="28.56" y="5.66" width="3.87" height="3.19"/><rect class="cls-1" x="28.56" y="9.78" width="3.87" height="14.09"/><polygon class="cls-1" points="6.97 4.41 10.05 17.65 10.1 17.65 13.48 4.41 17.49 4.41 20.81 17.82 20.87 17.82 24.05 4.41 28.25 4.41 23.02 23.86 18.77 23.86 15.47 10.62 15.42 10.62 12.18 23.86 7.84 23.86 2.69 4.41 6.97 4.41"/><path class="cls-4" d="M87.27,13.51c0-3.51-3.51-4.16-6.43-4.16-3.28,0-6.65,1.16-6.88,4.89h4c.14-1.58,1.11-2.2,2.66-2.2s2.61.28,2.61,2c.17,3.28-9.68-.29-9.74,6.37,0,3,2.18,4.38,5,4.38A6.69,6.69,0,0,0,83.42,23a6.16,6.16,0,0,0,.28,1.42h4.08a7.51,7.51,0,0,1-.51-3.26Zm-4,5.21A3,3,0,0,1,80,22.09c-1.3,0-2.46-.4-2.46-1.87s1.13-1.93,2.38-2.16,2.66-.25,3.34-.84Z"/><path class="cls-4" d="M94.06,5.23H90V9.62H87.61v2.69H90v8.63c0,2.95,2.13,3.49,4.62,3.49A15.88,15.88,0,0,0,97,24.29V21.14a5.36,5.36,0,0,1-1.25.12c-1.36,0-1.7-.34-1.7-1.7V12.31h3V9.62h-3Z"/><path class="cls-4" d="M104.79,21.62c-2.26,0-3.48-1.13-3.59-3.7h10.55c.32-4.51-2.12-8.7-7.1-8.7-4.44,0-7.47,3.35-7.47,7.73,0,4.53,2.85,7.7,7.47,7.7a6.55,6.55,0,0,0,6.85-4.92H108A3.31,3.31,0,0,1,104.79,21.62Zm-.25-9.37c1.95,0,2.83,1.08,3.19,3.12H101.2A3.15,3.15,0,0,1,104.54,12.25Z"/><path class="cls-4" d="M72.49,16.47V12.09H63.9a2.18,2.18,0,0,0,0,4.36h4.21v3.72H63.27a6.41,6.41,0,0,1-6.36-5.49,7.2,7.2,0,0,1-.06-.87,7.05,7.05,0,0,1,.06-.86,6.41,6.41,0,0,1,6.36-5.49.45.45,0,0,0,.11,0h4.83V3.06H63.08v0A11.43,11.43,0,0,0,55.29,6.5a9.84,9.84,0,0,0-2.88,7.16.22.22,0,0,1,0,.08v.19a.22.22,0,0,1,0,.08,9.84,9.84,0,0,0,2.88,7.16,11.48,11.48,0,0,0,8.19,3.43h6.77a2.2,2.2,0,0,0,1.58-.66,2.15,2.15,0,0,0,.66-1.56V20.52h0Z"/></g></g></svg>