<svg xmlns="http://www.w3.org/2000/svg" viewBox="0 0 99.65 27.7"><defs><style>.cls-1{fill:#97999b;}.cls-2{fill:#fff;}.cls-3{fill:#006ac6;}.cls-4{fill:#004159;}</style></defs><g id="Layer_2" data-name="Layer 2"><g id="Layer_1-2" data-name="Layer 1"><rect class="cls-1" x="10.8" y="-10.6" width="27.18" height="48.64" transform="translate(10.55 38.04) rotate(-89.71)"/><rect class="cls-2" x="60.55" y="-11.46" width="27.18" height="50.87" transform="translate(59.79 88.04) rotate(-89.71)"/><path class="cls-2" d="M41.25,18.76A23.12,23.12,0,0,0,38,17.88c-.57-.13-1.11-.29-1.65-.46A5.93,5.93,0,0,1,35,16.73a3.3,3.3,0,0,1-1-1.07,3,3,0,0,1-.37-1.57,4.19,4.19,0,0,1,.54-2.23,4,4,0,0,1,1.41-1.37,6.13,6.13,0,0,1,2-.69,11.62,11.62,0,0,1,4.45,0,5.83,5.83,0,0,1,1.92.75A4.46,4.46,0,0,1,45.26,12a4.63,4.63,0,0,1,.66,2.17l-3.68,0a1.7,1.7,0,0,0-.84-1.52,3.84,3.84,0,0,0-1.79-.4,6,6,0,0,0-.71,0,2.18,2.18,0,0,0-.7.17,1.46,1.46,0,0,0-.53.39,1,1,0,0,0-.22.7,1,1,0,0,0,.38.84,2.9,2.9,0,0,0,1,.54,11.69,11.69,0,0,0,1.4.37l1.6.37a14.3,14.3,0,0,1,1.65.47,5.35,5.35,0,0,1,1.43.73,3.47,3.47,0,0,1,1,1.12,3.25,3.25,0,0,1,.37,1.65,4.27,4.27,0,0,1-2,3.83,5.93,5.93,0,0,1-2.06.79,11.65,11.65,0,0,1-2.36.22,11.92,11.92,0,0,1-2.4-.25,6.52,6.52,0,0,1-2.08-.83,4.49,4.49,0,0,1-2.12-3.88l3.68,0a2.12,2.12,0,0,0,.25,1.07,2.18,2.18,0,0,0,.67.74,2.61,2.61,0,0,0,.94.43,4.28,4.28,0,0,0,2,.05,3.06,3.06,0,0,0,.82-.29,1.89,1.89,0,0,0,.61-.55,1.36,1.36,0,0,0,.25-.85C42.4,19.5,42,19.06,41.25,18.76Z"/><rect class="cls-3" x="29" y="5.48" width="3.19" height="3.87" transform="translate(23.03 37.97) rotate(-89.71)"/><rect class="cls-2" x="23.5" y="15.04" width="14.09" height="3.87" transform="translate(13.41 47.44) rotate(-89.71)"/><polygon class="cls-2" points="7.09 4.45 10.1 17.7 10.15 17.7 13.6 4.48 17.6 4.5 20.86 17.92 20.91 17.92 24.17 4.54 28.37 4.56 23.04 23.98 18.78 23.96 15.56 10.7 15.5 10.7 12.19 23.93 7.86 23.91 2.81 4.43 7.09 4.45"/><path class="cls-4" d="M67,3.73l-3.47,0,0,6.8-6.17,0,0-6.8-3.56,0a1.63,1.63,0,0,0-1.65,1.63l-.09,17.14a1.65,1.65,0,0,0,1.63,1.65h3.56l0-6.8,6.17,0,0,6.81H66.9a1.62,1.62,0,0,0,1.64-1.62l.09-17.15A1.63,1.63,0,0,0,67,3.73Z"/><path class="cls-2" d="M54.8,7.83A1.44,1.44,0,1,1,56.25,6.4,1.43,1.43,0,0,1,54.8,7.83Z"/><path class="cls-2" d="M66.05,7.89A1.45,1.45,0,1,1,67.5,6.45,1.43,1.43,0,0,1,66.05,7.89Z"/><path class="cls-2" d="M54.79,22.89a1.44,1.44,0,1,1,1.45-1.43A1.44,1.44,0,0,1,54.79,22.89Z"/><path class="cls-2" d="M65.92,23a1.44,1.44,0,1,1,1.45-1.43A1.44,1.44,0,0,1,65.92,23Z"/><path class="cls-4" d="M84.12,13.43c0-3.51-3.49-4.18-6.4-4.2-3.29,0-6.66,1.13-6.91,4.86l4,0c.15-1.59,1.12-2.21,2.67-2.2s2.61.3,2.6,2c.15,3.28-9.68-.34-9.77,6.32,0,3,2.15,4.39,5,4.41a6.64,6.64,0,0,0,4.93-1.79,6.16,6.16,0,0,0,.28,1.42l4.07,0A7.55,7.55,0,0,1,84.08,21Zm-4.05,5.19A3,3,0,0,1,76.8,22c-1.3,0-2.46-.41-2.45-1.88s1.14-1.92,2.39-2.14,2.66-.24,3.34-.84Z"/><path class="cls-4" d="M95.07,12l0-3.63h-3l0-4.17-4.15,0,0,4.17-2.51,0,0,3.63h2.51l0,8.91c0,3,2.17,3.61,4.74,3.62A15.71,15.71,0,0,0,95,24.38V21.13a5.18,5.18,0,0,1-1.28.11c-1.41,0-1.75-.36-1.75-1.76L92,12Z"/></g></g></svg>