<svg xmlns="http://www.w3.org/2000/svg" xmlns:xlink="http://www.w3.org/1999/xlink" viewBox="0 0 78.82 27.04"><defs><style>.cls-1{fill:none;}.cls-2{clip-path:url(#clip-path);}.cls-3{fill:#97999b;}.cls-4{fill:#fff;}.cls-5{fill:#006ac6;}.cls-6{fill:#231f20;}</style><clipPath id="clip-path" transform="translate(0 0)"><rect class="cls-1" width="78.82" height="27.04"/></clipPath></defs><g id="Layer_2" data-name="Layer 2"><g id="Layer_1-2" data-name="Layer 1"><g id="WisLink-Cellular"><g class="cls-2"><rect class="cls-3" x="0.48" width="14.29" height="7.98"/><rect class="cls-4" x="14.77" width="16.24" height="7.98"/><g class="cls-2"><path class="cls-4" d="M12.58,5.45a6.5,6.5,0,0,0-.94-.26,3.92,3.92,0,0,1-.49-.13,1.63,1.63,0,0,1-.42-.2,1.11,1.11,0,0,1-.3-.31,1,1,0,0,1-.11-.46,1.2,1.2,0,0,1,.16-.66,1.12,1.12,0,0,1,.41-.4,1.74,1.74,0,0,1,.58-.21,3.49,3.49,0,0,1,.65-.06,3.42,3.42,0,0,1,.65.06,1.93,1.93,0,0,1,.57.22,1.42,1.42,0,0,1,.41.4,1.34,1.34,0,0,1,.2.64H12.87a.49.49,0,0,0-.25-.44,1.12,1.12,0,0,0-.53-.12h-.21l-.2.05a.61.61,0,0,0-.16.12.33.33,0,0,0-.06.21.3.3,0,0,0,.11.24.81.81,0,0,0,.29.16,3.44,3.44,0,0,0,.41.11l.48.1a4.34,4.34,0,0,1,.48.14,1.38,1.38,0,0,1,.42.21,1.18,1.18,0,0,1,.3.33,1,1,0,0,1,.11.48,1.35,1.35,0,0,1-.16.69,1.39,1.39,0,0,1-.43.44,1.94,1.94,0,0,1-.61.24,3.85,3.85,0,0,1-.69.06,3.26,3.26,0,0,1-.7-.07,2,2,0,0,1-.62-.24,1.54,1.54,0,0,1-.44-.44,1.47,1.47,0,0,1-.18-.69h1.08a.62.62,0,0,0,.07.31.7.7,0,0,0,.2.22,1.11,1.11,0,0,0,.27.12,1.24,1.24,0,0,0,.33,0l.25,0a.62.62,0,0,0,.24-.08.69.69,0,0,0,.18-.16.44.44,0,0,0,.07-.26c0-.17-.11-.3-.34-.38" transform="translate(0 0)"/><rect class="cls-5" x="8.87" y="1.66" width="1.14" height="0.94"/><rect class="cls-4" x="8.87" y="2.87" width="1.14" height="4.14"/><polygon class="cls-4" points="2.53 1.29 3.43 5.18 3.45 5.18 4.44 1.29 5.62 1.29 6.59 5.23 6.61 5.23 7.55 1.29 8.78 1.29 7.24 7.01 5.99 7.01 5.03 3.12 5.01 3.12 4.06 7.01 2.78 7.01 1.27 1.29 2.53 1.29"/><polygon class="cls-6" points="16.93 1.4 15.77 1.4 15.77 6.95 19.7 6.95 19.7 5.95 16.93 5.95 16.93 1.4"/><polygon class="cls-6" points="28.48 4.46 29.95 2.93 28.62 2.93 27.26 4.48 27.26 1.48 26.21 1.48 26.21 7.01 27.26 7.01 27.26 5.72 27.71 5.26 28.7 7.01 30.01 7.01 28.48 4.46"/><path class="cls-6" d="M24.25,2.81a1.33,1.33,0,0,0-.84.25,1.74,1.74,0,0,0-.39.46v-.6h0a2.27,2.27,0,0,1-1,1.49V7h1.07V4.79a1.56,1.56,0,0,1,.11-.62.74.74,0,0,1,.74-.47.6.6,0,0,1,.6.32,1.12,1.12,0,0,1,.09.5V7h1.1V4.25a1.37,1.37,0,0,0-.41-1.11,1.55,1.55,0,0,0-1-.33" transform="translate(0 0)"/><path class="cls-6" d="M22.52,2.48a1.77,1.77,0,1,0-3.54,0,1.79,1.79,0,0,0,1.19,1.65V7H21.3V4.18a1.77,1.77,0,0,0,1.22-1.7m-1.76.7a.69.69,0,0,1-.7-.68.7.7,0,1,1,1.39,0,.69.69,0,0,1-.69.69" transform="translate(0 0)"/><path d="M11.09,16.31a3.41,3.41,0,0,0-3.42-2.74c-3.08,0-4.24,2.63-4.24,5.36s1.16,5.23,4.24,5.23c2.1,0,3.28-1.43,3.55-3.5h3.32A6.57,6.57,0,0,1,7.67,27C2.86,27,0,23.43,0,18.93s2.86-8.24,7.67-8.24c3.42,0,6.32,2,6.74,5.62Z" transform="translate(0 0)"/><path d="M19.11,21.77c.09,2,1,2.87,2.78,2.87a2.57,2.57,0,0,0,2.45-1.47h2.73A5.07,5.07,0,0,1,21.78,27C18.21,27,16,24.53,16,21a5.67,5.67,0,0,1,5.77-6c3.85,0,5.73,3.24,5.49,6.71Zm5.05-2c-.28-1.58-1-2.41-2.47-2.41a2.44,2.44,0,0,0-2.58,2.41Z" transform="translate(0 0)"/><rect x="29.19" y="11.06" width="3.1" height="15.61"/><rect x="34.83" y="11.06" width="3.1" height="15.61"/><path d="M51,26.67H48V25.1H48A4,4,0,0,1,44.52,27c-3.3,0-4.13-1.86-4.13-4.66v-7h3.1v6.38c0,1.86.52,2.78,2,2.78,1.68,0,2.41-.94,2.41-3.24V15.37H51Z" transform="translate(0 0)"/><rect x="53.44" y="11.06" width="3.1" height="15.61"/><path d="M58.86,18.84c.18-2.88,2.78-3.78,5.32-3.78,2.25,0,5,.5,5,3.21v5.89a5.87,5.87,0,0,0,.39,2.51H66.38a5,5,0,0,1-.22-1.09,5.13,5.13,0,0,1-3.8,1.4c-2.16,0-3.85-1.07-3.85-3.39,0-5.14,7.65-2.39,7.52-4.92,0-1.31-.92-1.53-2-1.53s-1.94.48-2,1.7ZM66,21.14a6,6,0,0,1-2.58.65c-1,.18-1.83.53-1.83,1.67s.89,1.44,1.9,1.44A2.29,2.29,0,0,0,66,22.3Z" transform="translate(0 0)"/><path d="M71.54,15.37h2.95v2.1h.05a4,4,0,0,1,3.61-2.41,2.14,2.14,0,0,1,.67.11v2.89A5.28,5.28,0,0,0,77.71,18c-2.3,0-3.06,1.61-3.06,3.63v5.09H71.54Z" transform="translate(0 0)"/></g></g></g></g></g></svg>