<svg xmlns="http://www.w3.org/2000/svg" viewBox="0 0 136.09 35.6"><defs><style>.cls-1{fill:#97999b;}.cls-2{fill:#fff;}.cls-3{fill:#276bb5;}.cls-4{fill:#009a49;}</style></defs><g id="Layer_2" data-name="Layer 2"><g id="Layer_1-2" data-name="Layer 1"><rect class="cls-1" width="63.69" height="35.6"/><rect class="cls-2" x="63.69" width="72.4" height="35.6"/><path class="cls-2" d="M54,24.29a31.08,31.08,0,0,0-4.23-1.14,21.42,21.42,0,0,1-2.16-.59,7.3,7.3,0,0,1-1.87-.89,4.28,4.28,0,0,1-1.32-1.39,3.9,3.9,0,0,1-.5-2.05,5.57,5.57,0,0,1,.7-2.93,5.2,5.2,0,0,1,1.84-1.8A8,8,0,0,1,49,12.58a16.05,16.05,0,0,1,2.93-.27,14.22,14.22,0,0,1,2.91.29,7.51,7.51,0,0,1,2.51,1,5.75,5.75,0,0,1,1.84,1.8A6.05,6.05,0,0,1,60,18.2H55.22a2.19,2.19,0,0,0-1.1-2,5.06,5.06,0,0,0-2.36-.52c-.31,0-.62,0-.92.05a3.12,3.12,0,0,0-.91.23,2,2,0,0,0-.7.52,1.36,1.36,0,0,0-.29.91,1.4,1.4,0,0,0,.5,1.11,4,4,0,0,0,1.3.7c.6.19,1.22.35,1.84.48s1.39.3,2.1.46,1.45.37,2.16.61a7.08,7.08,0,0,1,1.88.95A4.37,4.37,0,0,1,60,23.18a4.15,4.15,0,0,1,.5,2.16,5.6,5.6,0,0,1-2.64,5,7.82,7.82,0,0,1-2.69,1.05,16,16,0,0,1-3.09.3A15.86,15.86,0,0,1,49,31.4a8.31,8.31,0,0,1-2.72-1.07,6.21,6.21,0,0,1-2-2,6.31,6.31,0,0,1-.84-3.09h4.82a2.78,2.78,0,0,0,.34,1.41,3.08,3.08,0,0,0,.87,1,3.85,3.85,0,0,0,1.24.56,5.8,5.8,0,0,0,1.44.18,5.91,5.91,0,0,0,1.12-.13,3.91,3.91,0,0,0,1.07-.39,2.31,2.31,0,0,0,.8-.72A1.86,1.86,0,0,0,55.47,26C55.47,25.25,55,24.67,54,24.29Z"/><rect class="cls-3" x="37.4" y="7.41" width="5.07" height="4.18"/><rect class="cls-2" x="37.4" y="12.81" width="5.07" height="18.44"/><polygon class="cls-2" points="9.13 5.78 13.16 23.11 13.23 23.11 17.66 5.78 22.9 5.78 27.25 23.33 27.32 23.33 31.5 5.78 36.99 5.78 30.14 31.25 24.57 31.25 20.26 13.91 20.19 13.91 15.94 31.25 10.27 31.25 3.53 5.78 9.13 5.78"/><polygon class="cls-4" points="73.31 6.23 68.14 6.23 68.14 31 85.68 31 85.68 26.55 73.31 26.55 73.31 6.23"/><polygon class="cls-4" points="124.82 19.87 131.38 13.05 125.43 13.05 119.39 19.96 119.39 6.6 114.69 6.6 114.69 31.28 119.39 31.28 119.39 25.51 121.37 23.45 125.81 31.28 131.64 31.28 124.82 19.87"/><path class="cls-4" d="M106,12.53a5.91,5.91,0,0,0-3.73,1.11,2.6,2.6,0,0,0-1.14,2V13h-.74a10.06,10.06,0,0,1-4.5,6.66V31.28h4.79V21.36a7.11,7.11,0,0,1,.47-2.78,3.3,3.3,0,0,1,3.32-2.07,2.69,2.69,0,0,1,2.66,1.41,5.11,5.11,0,0,1,.39,2.22V31.28h4.9V18.94q0-3.44-1.8-4.93A7,7,0,0,0,106,12.53Z"/><path class="cls-4" d="M98.27,11.05A7.89,7.89,0,1,0,87.8,18.56V31.25h5V18.61A7.87,7.87,0,0,0,98.27,11.05Zm-7.86,3.14a3.08,3.08,0,1,1,3-3.1h0A3.07,3.07,0,0,1,90.41,14.19Z"/></g></g></svg>