<svg xmlns="http://www.w3.org/2000/svg" viewBox="0 0 235.07 80.66"><defs><style>.cls-1{fill:#97999b;}.cls-2{fill:#fff;}.cls-3{fill:#276bb5;}.cls-4{fill:#009a49;}.cls-5{fill:#010101;}</style></defs><g id="Layer_2" data-name="Layer 2"><g id="Layer_1-2" data-name="Layer 1"><rect class="cls-1" x="1.43" width="42.6" height="23.81"/><rect class="cls-2" x="44.04" width="48.43" height="23.81"/><path class="cls-2" d="M37.53,16.25a20,20,0,0,0-2.83-.76c-.49-.11-1-.25-1.44-.4A5.18,5.18,0,0,1,32,14.5a2.93,2.93,0,0,1-.89-.93,2.67,2.67,0,0,1-.34-1.38,3.8,3.8,0,0,1,.47-1.95,3.27,3.27,0,0,1,1.23-1.19,5,5,0,0,1,1.72-.62,9.86,9.86,0,0,1,2-.18,9.74,9.74,0,0,1,1.94.19,5.13,5.13,0,0,1,1.68.64A3.88,3.88,0,0,1,41,10.27a4.16,4.16,0,0,1,.6,1.9H38.38a1.49,1.49,0,0,0-.74-1.32,3.44,3.44,0,0,0-1.58-.35c-.21,0-.41,0-.62,0a2.1,2.1,0,0,0-.61.15,1.35,1.35,0,0,0-.47.35,1,1,0,0,0,.15,1.34,2.6,2.6,0,0,0,.87.46,10.09,10.09,0,0,0,1.23.32l1.41.3a14,14,0,0,1,1.44.41,4.74,4.74,0,0,1,1.25.63,3,3,0,0,1,.9,1,2.88,2.88,0,0,1,.33,1.44,3.76,3.76,0,0,1-1.76,3.37,5.31,5.31,0,0,1-1.79.7,10.24,10.24,0,0,1-2.07.21A10.52,10.52,0,0,1,34.23,21a5.5,5.5,0,0,1-1.82-.72,3.91,3.91,0,0,1-1.87-3.39h3.22a1.85,1.85,0,0,0,.22.95,2.15,2.15,0,0,0,.6.64,2.49,2.49,0,0,0,.83.37,3.66,3.66,0,0,0,1.71,0,2.32,2.32,0,0,0,.72-.27,1.63,1.63,0,0,0,.54-.47,1.27,1.27,0,0,0,.21-.76C38.54,16.89,38.2,16.51,37.53,16.25Z"/><rect class="cls-3" x="26.45" y="4.96" width="3.39" height="2.79"/><rect class="cls-2" x="26.45" y="8.57" width="3.39" height="12.34"/><polygon class="cls-2" points="7.54 3.87 10.23 15.46 10.28 15.46 13.24 3.87 16.75 3.87 19.66 15.61 19.71 15.61 22.5 3.87 26.18 3.87 21.6 20.91 17.87 20.91 14.99 9.31 14.94 9.31 12.1 20.91 8.3 20.91 3.79 3.87 7.54 3.87"/><polygon class="cls-4" points="50.48 4.17 47.02 4.17 47.02 20.74 58.75 20.74 58.75 17.76 50.48 17.76 50.48 4.17"/><polygon class="cls-4" points="84.93 13.29 89.32 8.73 85.34 8.73 81.3 13.35 81.3 4.41 78.15 4.41 78.15 20.92 81.3 20.92 81.3 17.07 82.63 15.69 85.59 20.92 89.49 20.92 84.93 13.29"/><path class="cls-4" d="M72.31,8.38a4,4,0,0,0-2.49.74,5.62,5.62,0,0,0-1.17,1.36V8.69h-.09a6.72,6.72,0,0,1-3,4.46v7.76h3.2V14.29a4.74,4.74,0,0,1,.32-1.86A2.22,2.22,0,0,1,71.28,11a1.82,1.82,0,0,1,1.79,1,3.44,3.44,0,0,1,.25,1.49v7.46H76.6V12.67a4,4,0,0,0-1.19-3.29A4.69,4.69,0,0,0,72.31,8.38Z"/><path class="cls-4" d="M67.17,7.39a5.28,5.28,0,1,0-7,5V20.9h3.36V12.45A5.28,5.28,0,0,0,67.17,7.39ZM61.91,9.5A2.07,2.07,0,1,1,64,7.41,2.07,2.07,0,0,1,61.91,9.5Z"/><path class="cls-5" d="M33.06,48.63a10.16,10.16,0,0,0-10.17-8.15c-9.2,0-12.65,7.82-12.65,16C10.24,64.21,13.69,72,22.89,72c6.26,0,9.78-4.24,10.56-10.44h9.92A19.59,19.59,0,0,1,23.26,80.66l-.37,0C8.54,80.65,0,69.89,0,56.45,0,42.63,8.54,31.87,22.89,31.87c10.17,0,18.84,6,20.08,16.76Z"/><path class="cls-5" d="M57,64.93c.26,5.94,3.07,8.54,8.28,8.54a7.62,7.62,0,0,0,7.31-4.36h8.15A15.1,15.1,0,0,1,65,80.44c-10.63,0-17.22-7.3-17.22-17.73a16.92,16.92,0,0,1,16-17.79c.41,0,.82,0,1.23,0,11.47,0,17.08,9.65,16.36,20Zm15.06-5.87c-.84-4.69-2.86-7.17-7.36-7.17A7.27,7.27,0,0,0,57,58.69c0,.12,0,.25,0,.37Z"/><path class="cls-5" d="M87.05,33h9.28V79.54H87.05Z"/><path class="cls-5" d="M103.88,33h9.24V79.54h-9.24Z"/><path class="cls-5" d="M152.07,79.54h-8.81V74.86h-.19a11.87,11.87,0,0,1-10.3,5.6c-9.85,0-12.33-5.54-12.33-13.89V45.83h9.26v19c0,5.54,1.57,8.28,5.93,8.28,5,0,7.18-2.8,7.18-9.65V45.83h9.26Z"/><path class="cls-5" d="M159.37,33h9.24V79.54h-9.24Z"/><path class="cls-5" d="M175.54,56.2c.52-8.61,8.28-11.29,15.85-11.29,6.71,0,14.8,1.49,14.8,9.59V72a17.29,17.29,0,0,0,1.17,7.5H198a14.5,14.5,0,0,1-.65-3.26A15.38,15.38,0,0,1,186,80.46c-6.46,0-11.48-3.2-11.48-10.11.13-15.33,22.82-7.11,22.43-14.67,0-3.92-2.74-4.57-6-4.57-3.58,0-5.8,1.44-6.12,5.09Zm21.39,6.85a18.26,18.26,0,0,1-7.7,2c-2.86.52-5.47,1.57-5.47,5s2.68,4.3,5.66,4.3A6.86,6.86,0,0,0,197,68.15a7.41,7.41,0,0,0,0-1.63Z"/><path class="cls-5" d="M213.36,45.83h8.8v6.26h.13a11.85,11.85,0,0,1,10.76-7.18,6.89,6.89,0,0,1,2,.33v8.61a16.84,16.84,0,0,0-3.32-.33c-6.86,0-9.13,4.83-9.13,10.83V79.54h-9.26Z"/></g></g></svg>