<svg xmlns="http://www.w3.org/2000/svg" xmlns:xlink="http://www.w3.org/1999/xlink" viewBox="0 0 76.55 26.67"><defs><style>.cls-1{fill:none;}.cls-2{clip-path:url(#clip-path);}.cls-3{fill:#97999b;}.cls-4{fill:#fff;}.cls-5{fill:#006ac6;}.cls-6{fill:#231f20;}</style><clipPath id="clip-path" transform="translate(0 0)"><rect class="cls-1" width="76.55" height="26.67"/></clipPath></defs><g id="Layer_2" data-name="Layer 2"><g id="Layer_1-2" data-name="Layer 1"><g id="WisLink-LPWAN"><g class="cls-2"><rect class="cls-3" width="14.29" height="7.99"/><rect class="cls-4" x="14.29" width="16.24" height="7.99"/><g class="cls-2"><path class="cls-4" d="M12.1,5.45a6.5,6.5,0,0,0-.94-.26,3.92,3.92,0,0,1-.49-.13,1.63,1.63,0,0,1-.42-.2,1.11,1.11,0,0,1-.3-.31,1,1,0,0,1-.11-.46A1.2,1.2,0,0,1,10,3.43a1.12,1.12,0,0,1,.41-.4A1.74,1.74,0,0,1,11,2.82a3.49,3.49,0,0,1,.65-.06,3.42,3.42,0,0,1,.65.06,1.93,1.93,0,0,1,.57.22,1.42,1.42,0,0,1,.41.4,1.34,1.34,0,0,1,.2.64H12.39a.49.49,0,0,0-.25-.44,1.12,1.12,0,0,0-.53-.12H11.4l-.2.05A.61.61,0,0,0,11,3.7a.33.33,0,0,0-.06.21.3.3,0,0,0,.11.24.81.81,0,0,0,.29.16,3.44,3.44,0,0,0,.41.11l.48.1a4.34,4.34,0,0,1,.48.14,1.38,1.38,0,0,1,.42.21,1.18,1.18,0,0,1,.3.33,1,1,0,0,1,.11.48,1.35,1.35,0,0,1-.16.69,1.39,1.39,0,0,1-.43.44,1.94,1.94,0,0,1-.61.24,3.85,3.85,0,0,1-.69.06A3.26,3.26,0,0,1,11,7a2,2,0,0,1-.62-.24,1.54,1.54,0,0,1-.44-.44,1.47,1.47,0,0,1-.18-.69h1.08A.62.62,0,0,0,10.9,6a.7.7,0,0,0,.2.22,1.11,1.11,0,0,0,.27.12,1.24,1.24,0,0,0,.33,0l.25,0a.62.62,0,0,0,.24-.08.69.69,0,0,0,.18-.16.44.44,0,0,0,.07-.26c0-.17-.11-.3-.34-.38" transform="translate(0 0)"/><rect class="cls-5" x="8.39" y="1.66" width="1.14" height="0.94"/><rect class="cls-4" x="8.39" y="2.87" width="1.14" height="4.14"/><polygon class="cls-4" points="2.05 1.3 2.95 5.19 2.97 5.19 3.96 1.3 5.14 1.3 6.11 5.24 6.13 5.24 7.07 1.3 8.3 1.3 6.76 7.01 5.51 7.01 4.54 3.12 4.53 3.12 3.58 7.01 2.3 7.01 0.79 1.3 2.05 1.3"/><polygon class="cls-6" points="16.45 1.4 15.28 1.4 15.28 6.95 19.22 6.95 19.22 5.96 16.45 5.96 16.45 1.4"/><polygon class="cls-6" points="28 4.46 29.47 2.93 28.14 2.93 26.78 4.48 26.78 1.48 25.73 1.48 25.73 7.02 26.78 7.02 26.78 5.72 27.23 5.26 28.22 7.02 29.53 7.02 28 4.46"/><path class="cls-6" d="M23.77,2.81a1.33,1.33,0,0,0-.84.25,1.84,1.84,0,0,0-.39.45V2.92h0a2.27,2.27,0,0,1-1,1.49V7h1.07V4.79a1.56,1.56,0,0,1,.11-.62.74.74,0,0,1,.74-.47A.6.6,0,0,1,24,4a1.09,1.09,0,0,1,.09.5V7h1.1V4.25a1.37,1.37,0,0,0-.41-1.11,1.55,1.55,0,0,0-1-.33" transform="translate(0 0)"/><path class="cls-6" d="M22,2.48a1.77,1.77,0,1,0-3.54,0,1.79,1.79,0,0,0,1.19,1.65V7h1.13V4.18A1.77,1.77,0,0,0,22,2.48m-1.76.7a.69.69,0,0,1-.7-.68.7.7,0,1,1,1.39,0,.69.69,0,0,1-.69.69" transform="translate(0 0)"/><polygon points="0.2 11.06 3.63 11.06 3.63 23.79 11.24 23.79 11.24 26.67 0.2 26.67 0.2 11.06"/><path d="M13.16,11.06h7c3.92,0,5.4,2.47,5.4,5s-1.48,5-5.4,5H16.6v5.6H13.16Zm3.44,7.35h2.66c1.58,0,3-.35,3-2.34s-1.44-2.34-3-2.34H16.6Z" transform="translate(0 0)"/><polygon points="42.62 26.67 39.2 26.67 36.56 16.05 36.52 16.05 33.91 26.67 30.44 26.67 26.3 11.06 29.74 11.06 32.21 21.69 32.25 21.69 34.96 11.06 38.18 11.06 40.84 21.82 40.89 21.82 43.45 11.06 46.81 11.06 42.62 26.67"/><path d="M52.65,11.06h3.52L62,26.67H58.45l-1.18-3.48H51.43L50.2,26.67H46.73Zm-.33,9.58h4l-2-5.73h0Z" transform="translate(0 0)"/><polygon points="63.37 11.06 66.78 11.06 73.29 21.53 73.34 21.53 73.34 11.06 76.55 11.06 76.55 26.67 73.12 26.67 66.62 16.22 66.58 16.22 66.58 26.67 63.37 26.67 63.37 11.06"/></g></g></g></g></g></svg>