<svg xmlns="http://www.w3.org/2000/svg" viewBox="0 0 103.93 27.18"><defs><style>.cls-1{fill:#97999b;}.cls-2{fill:#fff;}.cls-3{fill:#006ac6;}.cls-4{fill:#231f20;}</style></defs><g id="Layer_2" data-name="Layer 2"><g id="Layer_1-2" data-name="Layer 1"><rect class="cls-1" width="48.64" height="27.18"/><rect class="cls-2" x="48.64" width="55.29" height="27.18"/><path class="cls-2" d="M41.21,18.55A23.53,23.53,0,0,0,38,17.68c-.57-.13-1.11-.28-1.65-.45a5.56,5.56,0,0,1-1.43-.68,3.4,3.4,0,0,1-1-1.06,3.07,3.07,0,0,1-.38-1.57A4.25,4.25,0,0,1,34,11.69a4,4,0,0,1,1.4-1.38,6.16,6.16,0,0,1,2-.71,12.58,12.58,0,0,1,2.23-.2,10.86,10.86,0,0,1,2.22.22,5.81,5.81,0,0,1,1.92.73,4.34,4.34,0,0,1,2.07,3.54H42.17a1.69,1.69,0,0,0-.84-1.51,3.92,3.92,0,0,0-1.8-.39,6.08,6.08,0,0,0-.71,0,2.18,2.18,0,0,0-.69.17,1.41,1.41,0,0,0-.53.4,1,1,0,0,0-.22.69,1,1,0,0,0,.38.85,3,3,0,0,0,1,.53,11.88,11.88,0,0,0,1.41.37l1.6.35a14.3,14.3,0,0,1,1.65.47,5.19,5.19,0,0,1,1.43.72,3.45,3.45,0,0,1,1,1.11,3.25,3.25,0,0,1,.38,1.65,4.42,4.42,0,0,1-.56,2.33,4.37,4.37,0,0,1-1.45,1.51,6,6,0,0,1-2.06.81,12.34,12.34,0,0,1-2.36.23A11.21,11.21,0,0,1,37.41,24a6.24,6.24,0,0,1-2.09-.81,4.51,4.51,0,0,1-2.14-3.87h3.68a2.12,2.12,0,0,0,.26,1.07,2.17,2.17,0,0,0,.67.74,2.78,2.78,0,0,0,.94.42,4.42,4.42,0,0,0,1.1.14,3.79,3.79,0,0,0,.86-.1,2.77,2.77,0,0,0,.82-.3,1.75,1.75,0,0,0,.61-.54,1.46,1.46,0,0,0,.24-.86C42.36,19.28,42,18.84,41.21,18.55Z"/><rect class="cls-3" x="28.56" y="5.66" width="3.87" height="3.19"/><rect class="cls-2" x="28.56" y="9.78" width="3.87" height="14.09"/><polygon class="cls-2" points="6.97 4.41 10.05 17.65 10.1 17.65 13.48 4.41 17.49 4.41 20.81 17.82 20.87 17.82 24.05 4.41 28.25 4.41 23.02 23.86 18.77 23.86 15.47 10.62 15.42 10.62 12.18 23.86 7.84 23.86 2.69 4.41 6.97 4.41"/><polygon class="cls-4" points="55.99 4.76 52.04 4.76 52.04 23.67 65.43 23.67 65.43 20.27 55.99 20.27 55.99 4.76"/><polygon class="cls-4" points="95.32 15.18 100.33 9.96 95.79 9.96 91.18 15.24 91.18 5.04 87.58 5.04 87.58 23.89 91.18 23.89 91.18 19.48 92.69 17.91 96.08 23.89 100.53 23.89 95.32 15.18"/><path class="cls-4" d="M80.92,9.57a4.63,4.63,0,0,0-2.85.84A6.27,6.27,0,0,0,76.74,12v-2h-.1A7.73,7.73,0,0,1,73.2,15v8.86h3.65V16.32a5.37,5.37,0,0,1,.36-2.13,2.52,2.52,0,0,1,2.54-1.58,2,2,0,0,1,2,1.08,3.79,3.79,0,0,1,.3,1.69v8.5h3.74V14.47a4.62,4.62,0,0,0-1.37-3.77A5.4,5.4,0,0,0,80.92,9.57Z"/><path class="cls-4" d="M75.05,8.44a6,6,0,1,0-8,5.73v9.69h3.84V14.22A6,6,0,0,0,75.05,8.44Zm-6,2.4a2.36,2.36,0,1,1,2.34-2.37A2.35,2.35,0,0,1,69,10.84Z"/></g></g></svg>