<?xml version="1.0" encoding="UTF-8"?><svg id="Layer_2" xmlns="http://www.w3.org/2000/svg" viewBox="0 0 117.31 30.65"><defs><style>.cls-1{fill:#fff;}.cls-2{fill:#00aeef;}.cls-3{fill:#97999b;}.cls-4{fill:#006ac6;}</style></defs><g id="Layer_1-2"><g><g id="WisNode-Track-v"><g id="Layer_2-2"><g id="WisBLOCK_Logo"><g id="WisBLOCK_Logo-2"><rect class="cls-1" x="14.29" width="21.1" height="7.98"/><rect class="cls-3" width="14.29" height="7.98"/><path class="cls-1" d="M12.1,5.45c-.31-.11-.63-.19-.95-.26-.17-.04-.33-.08-.48-.13-.15-.05-.29-.11-.42-.2-.12-.08-.22-.19-.3-.31-.08-.14-.12-.3-.11-.46,0-.23,.05-.46,.17-.66,.1-.17,.24-.3,.41-.4,.18-.1,.37-.17,.58-.21,.22-.04,.44-.06,.66-.06,.22,0,.44,.02,.65,.06,.2,.04,.39,.11,.56,.22,.17,.1,.31,.24,.41,.4,.12,.19,.19,.41,.2,.64h-1.08c0-.18-.09-.35-.25-.44-.16-.08-.35-.12-.53-.12-.07,0-.14,0-.21,.01-.07,0-.14,.02-.2,.05-.06,.03-.11,.07-.16,.12-.04,.06-.07,.13-.06,.2,0,.1,.04,.19,.11,.25,.09,.07,.19,.12,.29,.16,.14,.04,.27,.08,.41,.11,.15,.03,.31,.07,.47,.1,.16,.04,.33,.08,.48,.14,.15,.05,.29,.12,.42,.21,.12,.09,.22,.2,.3,.33,.08,.15,.12,.32,.11,.48,.02,.46-.2,.89-.59,1.13-.18,.12-.39,.2-.6,.24-.23,.05-.46,.07-.69,.07-.24,0-.47-.02-.7-.07-.22-.04-.42-.12-.61-.24-.18-.11-.33-.26-.44-.44-.12-.21-.19-.45-.19-.69h1.08c0,.11,.02,.22,.08,.32,.05,.09,.12,.16,.2,.22,.08,.06,.18,.1,.28,.12,.11,.03,.21,.04,.32,.04,.08,0,.17-.01,.25-.03,.08-.02,.16-.05,.24-.09,.07-.04,.13-.09,.18-.16,.05-.07,.08-.16,.07-.25-.01-.17-.14-.29-.36-.38Z"/><rect class="cls-4" x="8.39" y="1.66" width="1.14" height=".94"/><rect class="cls-1" x="8.39" y="2.87" width="1.14" height="4.14"/><polygon class="cls-1" points="2.05 1.3 2.95 5.18 2.97 5.18 3.96 1.3 5.14 1.3 6.11 5.23 6.13 5.23 7.07 1.3 8.3 1.3 6.76 7.01 5.51 7.01 4.54 3.12 4.53 3.12 3.58 7.01 2.3 7.01 .79 1.3 2.05 1.3"/><path class="cls-2" d="M15.3,1.23h1.47l2.24,3.68-.03-.02V1.23h1.25V7.07h-1.28l-2.43-3.72,.08-.19v3.91h-1.3V1.23Z"/><path class="cls-2" d="M28.68,6.53h-.02c-.27,.44-.77,.69-1.28,.65-1.27,0-1.9-1.09-1.9-2.26-.13-1.07,.64-2.05,1.71-2.18,.05,0,.11-.01,.16-.01,.5-.02,.97,.22,1.25,.63h.02V1.23h1.16V7.07h-1.1v-.54Zm-1.02-2.93c-.76,0-1.02,.66-1.02,1.35s.3,1.36,1.02,1.36c.76,0,1-.67,1-1.37s-.25-1.34-1-1.34Z"/><path class="cls-2" d="M31.38,5.24c.03,.74,.38,1.07,1.04,1.07,.39,.02,.75-.2,.92-.55h1.02c-.23,.89-1.06,1.49-1.98,1.42-1.14,.06-2.11-.82-2.16-1.96,0-.09,0-.17,0-.26-.06-1.17,.84-2.17,2.01-2.23,1.17-.06,2.17,.84,2.23,2.01,0,.17,0,.33-.03,.49h-3.05Zm1.89-.74c-.11-.59-.36-.9-.92-.9-.5-.03-.93,.35-.96,.85,0,.02,0,.03,0,.05h1.89Z"/><path class="cls-2" d="M22.91,2.69c-1.26,0-2.27,1.02-2.27,2.27s1.02,2.27,2.27,2.27,2.27-1.02,2.27-2.27-1.02-2.27-2.27-2.27h0Zm.92,2.74c-.1,.2-.26,.36-.45,.45v.52h-.92v-.52c-.2-.1-.36-.26-.45-.45h-.52v-.92h.52c.1-.2,.26-.36,.45-.45v-.52h.92v.52c.2,.1,.36,.26,.45,.45h.52v.92h-.52Z"/></g></g></g></g><g><path d="M4.68,13.94H0v-2.89H12.79v2.89h-4.68v12.73h-3.43V13.94Z"/><path d="M11.66,15.36h2.95v2.1h.04c.59-1.42,2.06-2.41,3.61-2.41,.24,0,.46,.04,.68,.11v2.89c-.28-.07-.74-.11-1.12-.11-2.3,0-3.06,1.62-3.06,3.63v5.1h-3.11V15.36Z"/><path d="M19.5,18.84c.18-2.89,2.78-3.78,5.31-3.78,2.25,0,4.96,.5,4.96,3.21v5.88c0,1.03,.11,2.06,.39,2.51h-3.15c-.11-.35-.2-.72-.22-1.09-.98,1.03-2.41,1.4-3.81,1.4-2.17,0-3.85-1.07-3.85-3.39,.04-5.14,7.65-2.38,7.52-4.92,0-1.31-.92-1.53-2.01-1.53-1.2,0-1.95,.48-2.06,1.71h-3.11Zm7.17,2.3c-.52,.46-1.62,.48-2.58,.66-.96,.18-1.84,.52-1.84,1.66s.9,1.44,1.9,1.44c2.43,0,2.51-1.9,2.51-2.6v-1.16Z"/><path d="M39.11,19.34c-.2-1.29-.96-1.95-2.3-1.95-1.99,0-2.65,2.01-2.65,3.67s.63,3.56,2.58,3.56c1.47,0,2.27-.9,2.47-2.3h3c-.42,3-2.45,4.64-5.45,4.64-3.41,0-5.71-2.41-5.71-5.79s2.1-6.12,5.77-6.12c2.67,0,5.14,1.4,5.31,4.29h-3.04Z"/><path d="M43.45,11.05h3.11v8.38l3.91-4.07h3.67l-4.26,4.15,4.75,7.15h-3.76l-3.11-5.05-1.2,1.16v3.89h-3.11V11.05Z"/><path d="M66.24,25.11c-1.25,1.23-2.62,1.86-4.4,1.86-2.82,0-5.05-1.73-5.05-4.68,0-2.19,1.66-3.67,3.5-4.53-.85-1.03-1.49-1.95-1.49-3.32,0-2.16,1.97-3.56,4.07-3.56,2.36,0,4.29,1.29,4.29,3.74,0,1.84-1.2,3.04-2.78,3.89l2.01,2.47c.33-.59,.48-1.23,.57-1.86h2.69c-.15,1.4-.63,2.73-1.51,3.85l3.17,3.7h-3.81l-1.27-1.55Zm-4.31-5.34c-1.12,.46-2.19,1.31-2.19,2.58,0,1.14,1.07,2.06,2.23,2.06s1.9-.57,2.62-1.38l-2.67-3.26Zm1.09-6.82c-.77,0-1.4,.57-1.4,1.38,0,.98,.63,1.62,1.22,2.34,.87-.55,1.6-1.09,1.6-2.23,0-.81-.66-1.49-1.42-1.49Z"/><path d="M75.13,11.05h4.83l3.65,10.74h.04l3.45-10.74h4.83v15.61h-3.21V15.6h-.04l-3.83,11.07h-2.65l-3.83-10.96h-.04v10.96h-3.21V11.05Z"/><path d="M93.78,18.84c.17-2.89,2.78-3.78,5.31-3.78,2.25,0,4.96,.5,4.96,3.21v5.88c0,1.03,.11,2.06,.39,2.51h-3.15c-.11-.35-.2-.72-.22-1.09-.98,1.03-2.41,1.4-3.81,1.4-2.16,0-3.85-1.07-3.85-3.39,.04-5.14,7.65-2.38,7.52-4.92,0-1.31-.92-1.53-2.01-1.53-1.2,0-1.95,.48-2.06,1.71h-3.11Zm7.17,2.3c-.52,.46-1.62,.48-2.58,.66-.96,.18-1.84,.52-1.84,1.66s.9,1.44,1.9,1.44c2.43,0,2.51-1.9,2.51-2.6v-1.16Z"/><path d="M105.81,15.36h2.95v1.44h.04c.77-1.22,1.97-1.75,3.37-1.75,3.54,0,5.14,2.86,5.14,6.08,0,3.02-1.64,5.84-4.96,5.84-1.38,0-2.62-.59-3.39-1.71h-.04v5.38h-3.11V15.36Zm8.4,5.69c0-1.82-.72-3.65-2.71-3.65s-2.69,1.81-2.69,3.65,.7,3.59,2.71,3.59,2.69-1.75,2.69-3.59Z"/></g></g></g></svg>