<?xml version="1.0" encoding="UTF-8"?><svg id="Layer_2" xmlns="http://www.w3.org/2000/svg" viewBox="0 0 113.86 27.06"><defs><style>.cls-1{fill:#fff;}.cls-2{fill:#00aeef;}.cls-3{fill:#97999b;}.cls-4{fill:#006ac6;}</style></defs><g id="Layer_1-2"><g><g id="WisNode-Track-v"><g id="Layer_2-2"><g id="WisBLOCK_Logo"><g id="WisBLOCK_Logo-2"><rect class="cls-1" x="14.82" width="21.1" height="7.98"/><rect class="cls-3" x=".53" width="14.29" height="7.98"/><path class="cls-1" d="M12.63,5.45c-.31-.11-.63-.19-.95-.26-.17-.04-.33-.08-.48-.13-.15-.05-.29-.11-.42-.2-.12-.08-.22-.19-.3-.31-.08-.14-.12-.3-.11-.46,0-.23,.05-.46,.17-.66,.1-.17,.24-.3,.41-.4,.18-.1,.37-.17,.58-.21,.22-.04,.44-.06,.66-.06,.22,0,.44,.02,.65,.06,.2,.04,.39,.11,.56,.22,.17,.1,.31,.24,.41,.4,.12,.19,.19,.41,.2,.64h-1.08c0-.18-.09-.35-.25-.44-.16-.08-.35-.12-.53-.12-.07,0-.14,0-.21,.01-.07,0-.14,.02-.2,.05-.06,.03-.11,.07-.16,.12-.04,.06-.07,.13-.06,.2,0,.1,.04,.19,.11,.25,.09,.07,.19,.12,.29,.16,.14,.04,.27,.08,.41,.11,.15,.03,.31,.07,.47,.1,.16,.04,.33,.08,.48,.14,.15,.05,.29,.12,.42,.21,.12,.09,.22,.2,.3,.33,.08,.15,.12,.32,.11,.48,.02,.46-.2,.89-.59,1.13-.18,.12-.39,.2-.6,.24-.23,.05-.46,.07-.69,.07-.24,0-.47-.02-.7-.07-.22-.04-.42-.12-.61-.24-.18-.11-.33-.26-.44-.44-.12-.21-.19-.45-.19-.69h1.08c0,.11,.02,.22,.08,.32,.05,.09,.12,.16,.2,.22,.08,.06,.18,.1,.28,.12,.11,.03,.21,.04,.32,.04,.08,0,.17-.01,.25-.03,.08-.02,.16-.05,.24-.09,.07-.04,.13-.09,.18-.16,.05-.07,.08-.16,.07-.25-.01-.17-.14-.29-.36-.38Z"/><rect class="cls-4" x="8.92" y="1.66" width="1.14" height=".94"/><rect class="cls-1" x="8.92" y="2.87" width="1.14" height="4.14"/><polygon class="cls-1" points="2.58 1.3 3.48 5.18 3.5 5.18 4.49 1.3 5.67 1.3 6.65 5.23 6.66 5.23 7.6 1.3 8.83 1.3 7.29 7.01 6.04 7.01 5.08 3.12 5.06 3.12 4.11 7.01 2.84 7.01 1.32 1.3 2.58 1.3"/><path class="cls-2" d="M15.83,1.23h1.47l2.24,3.68-.03-.02V1.23h1.25V7.07h-1.28l-2.43-3.72,.08-.19v3.91h-1.3V1.23Z"/><path class="cls-2" d="M29.21,6.53h-.02c-.27,.44-.77,.69-1.28,.65-1.27,0-1.9-1.09-1.9-2.26-.13-1.07,.64-2.05,1.71-2.18,.05,0,.11-.01,.16-.01,.5-.02,.97,.22,1.25,.63h.02V1.23h1.16V7.07h-1.1v-.54Zm-1.02-2.93c-.76,0-1.02,.66-1.02,1.35s.3,1.36,1.02,1.36c.76,0,1-.67,1-1.37s-.25-1.34-1-1.34Z"/><path class="cls-2" d="M31.91,5.24c.03,.74,.38,1.07,1.04,1.07,.39,.02,.75-.2,.92-.55h1.02c-.23,.89-1.06,1.49-1.98,1.42-1.14,.06-2.11-.82-2.16-1.96,0-.09,0-.17,0-.26-.06-1.17,.84-2.17,2.01-2.23,1.17-.06,2.17,.84,2.23,2.01,0,.17,0,.33-.03,.49h-3.05Zm1.89-.74c-.11-.59-.36-.9-.92-.9-.5-.03-.93,.35-.96,.85,0,.02,0,.03,0,.05h1.89Z"/><path class="cls-2" d="M23.44,2.69c-1.26,0-2.27,1.02-2.27,2.27s1.02,2.27,2.27,2.27,2.27-1.02,2.27-2.27-1.02-2.27-2.27-2.27h0Zm.92,2.74c-.1,.2-.26,.36-.45,.45v.52h-.92v-.52c-.2-.1-.36-.26-.45-.45h-.52v-.92h.52c.1-.2,.26-.36,.45-.45v-.52h.92v.52c.2,.1,.36,.26,.45,.45h.52v.92h-.52Z"/></g></g></g></g><g><path d="M3.33,21.5c0,2.08,1.62,2.89,3.46,2.89,1.2,0,3.04-.35,3.04-1.95,0-1.71-2.37-1.95-4.64-2.58-2.32-.57-4.66-1.55-4.66-4.44,0-3.22,3.02-4.73,5.85-4.73,3.26,0,6.26,1.42,6.26,5.04h-3.33c-.11-1.86-1.42-2.37-3.09-2.37-1.09,0-2.37,.46-2.37,1.77,0,1.2,.75,1.38,4.66,2.37,1.16,.26,4.64,1.03,4.64,4.55,0,2.87-2.23,5.01-6.5,5.01C3.2,27.06-.06,25.36,0,21.5H3.33Z"/><path d="M17.07,21.79c.09,1.99,1.03,2.87,2.78,2.87,1.25,0,2.25-.77,2.45-1.47h2.74c-.88,2.69-2.74,3.81-5.3,3.81-3.57,0-5.78-2.45-5.78-5.96s2.34-5.98,5.78-5.98c3.85,0,5.74,3.24,5.5,6.72h-8.17Zm5.06-1.97c-.29-1.58-.96-2.41-2.47-2.41-2.01,0-2.52,1.53-2.58,2.41h5.06Z"/><path d="M26.35,15.37h2.96v1.58h.07c.79-1.29,2.15-1.88,3.46-1.88,3.31,0,4.14,1.86,4.14,4.66v6.96h-3.11v-6.39c0-1.86-.53-2.78-1.99-2.78-1.69,0-2.41,.94-2.41,3.24v5.93h-3.11V15.37Z"/><path d="M40.98,23.01c0,1.34,1.18,1.91,2.39,1.91,.88,0,2.04-.35,2.04-1.45,0-.94-1.31-1.29-3.53-1.75-1.82-.42-3.59-1.01-3.59-3.02,0-2.89,2.5-3.63,4.93-3.63s4.75,.83,4.99,3.61h-2.96c-.09-1.21-1.01-1.53-2.12-1.53-.7,0-1.73,.11-1.73,1.05,0,1.12,1.77,1.27,3.53,1.69,1.82,.42,3.59,1.07,3.59,3.17,0,2.98-2.61,3.94-5.17,3.94s-5.21-.99-5.32-3.99h2.96Z"/><path d="M54.94,15.06c3.57,0,5.87,2.37,5.87,5.98s-2.3,5.96-5.87,5.96-5.85-2.37-5.85-5.96,2.3-5.98,5.85-5.98Zm0,9.59c2.12,0,2.76-1.8,2.76-3.61s-.63-3.63-2.76-3.63-2.74,1.82-2.74,3.63,.63,3.61,2.74,3.61Z"/><path d="M62.03,15.37h2.96v2.1h.04c.59-1.42,2.06-2.41,3.61-2.41,.24,0,.46,.04,.68,.11v2.89c-.28-.07-.74-.11-1.12-.11-2.3,0-3.07,1.62-3.07,3.63v5.1h-3.11V15.37Z"/><path d="M75.26,11.06h3.44v6h6.33v-6h3.44v15.63h-3.44v-6.74h-6.33v6.74h-3.44V11.06Z"/><path d="M100.81,26.69h-2.96v-1.58h-.07c-.79,1.29-2.15,1.88-3.46,1.88-3.31,0-4.14-1.86-4.14-4.66v-6.96h3.11v6.39c0,1.86,.53,2.78,1.99,2.78,1.69,0,2.41-.94,2.41-3.24v-5.93h3.11v11.32Z"/><path d="M102.46,11.06h3.11v5.69h.04c.77-1.16,2.17-1.69,3.57-1.69,2.26,0,4.69,1.82,4.69,5.96s-2.43,5.98-4.69,5.98c-1.66,0-3.04-.5-3.72-1.75h-.04v1.45h-2.96V11.06Zm5.65,6.35c-1.84,0-2.65,1.71-2.65,3.63s.81,3.61,2.65,3.61,2.65-1.73,2.65-3.61-.81-3.63-2.65-3.63Z"/></g></g></g></svg>