<svg xmlns="http://www.w3.org/2000/svg" viewBox="0 0 75.43 38.42"><defs><style>.cls-1{fill:#fff;}.cls-2{fill:#97999b;}.cls-3{fill:#006ac6;}.cls-4{fill:#00aeef;}</style></defs><g id="Layer_2" data-name="Layer 2"><g id="Layer_1-2" data-name="Layer 1"><rect class="cls-1" x="17.67" width="26.1" height="9.88"/><rect class="cls-2" width="17.67" height="9.88"/><path class="cls-1" d="M15,6.74a10,10,0,0,0-1.17-.32,5.25,5.25,0,0,1-.6-.16A1.67,1.67,0,0,1,12.68,6a1.34,1.34,0,0,1-.37-.38,1.15,1.15,0,0,1-.14-.57,1.52,1.52,0,0,1,.2-.81,1.36,1.36,0,0,1,.51-.5,2.08,2.08,0,0,1,.71-.26,4.14,4.14,0,0,1,1.62,0,2.55,2.55,0,0,1,.7.27,1.73,1.73,0,0,1,.51.5,1.8,1.8,0,0,1,.24.79H15.32A.62.62,0,0,0,15,4.5a1.39,1.39,0,0,0-.66-.14h-.25a1,1,0,0,0-.26.06.7.7,0,0,0-.19.15.37.37,0,0,0-.08.25.4.4,0,0,0,.14.31,1,1,0,0,0,.36.19,4.71,4.71,0,0,0,.51.13l.58.13a5.25,5.25,0,0,1,.6.17,2,2,0,0,1,.52.26,1.32,1.32,0,0,1,.37.41,1.21,1.21,0,0,1,.14.6,1.56,1.56,0,0,1-.21.84,1.61,1.61,0,0,1-.52.55,2.27,2.27,0,0,1-.75.3,4.91,4.91,0,0,1-.86.08,4.14,4.14,0,0,1-.87-.09,2.32,2.32,0,0,1-.76-.3A1.63,1.63,0,0,1,12.06,7h1.33a.71.71,0,0,0,.1.39.78.78,0,0,0,.24.27,1,1,0,0,0,.34.15,1.75,1.75,0,0,0,.4,0,1.15,1.15,0,0,0,.31,0,1,1,0,0,0,.3-.1.7.7,0,0,0,.22-.2.54.54,0,0,0,.09-.31C15.39,7,15.25,6.85,15,6.74Z"/><rect class="cls-3" x="10.38" y="2.06" width="1.41" height="1.16"/><rect class="cls-1" x="10.38" y="3.55" width="1.41" height="5.12"/><polygon class="cls-1" points="2.53 1.6 3.65 6.41 3.67 6.41 4.9 1.6 6.35 1.6 7.56 6.47 7.58 6.47 8.74 1.6 10.26 1.6 8.36 8.67 6.82 8.67 5.62 3.86 5.6 3.86 4.42 8.67 2.85 8.67 0.98 1.6 2.53 1.6"/><path class="cls-4" d="M18.93,1.53h1.81l2.78,4.55,0,0V1.53H25V8.75H23.43l-3-4.61.1-.23V8.75h-1.6Z"/><path class="cls-4" d="M35.48,8.08h0a1.73,1.73,0,0,1-1.59.81c-1.58,0-2.35-1.35-2.35-2.8a2.42,2.42,0,0,1,2.32-2.71,1.8,1.8,0,0,1,1.55.78h0V1.53h1.43V8.75H35.48ZM34.22,4.46c-.94,0-1.26.82-1.26,1.67s.37,1.68,1.26,1.68S35.46,7,35.46,6.12,35.15,4.46,34.22,4.46Z"/><path class="cls-4" d="M38.82,6.48c0,.92.47,1.33,1.28,1.33a1.18,1.18,0,0,0,1.13-.68H42.5a2.36,2.36,0,0,1-2.45,1.76,2.55,2.55,0,0,1-2.67-2.75,2.62,2.62,0,0,1,2.67-2.76c1.78,0,2.65,1.49,2.54,3.1Zm2.33-.91C41,4.84,40.71,4.46,40,4.46a1.12,1.12,0,0,0-1.19,1.11Z"/><path class="cls-4" d="M28.33,3.33a2.82,2.82,0,1,0,2.82,2.81A2.81,2.81,0,0,0,28.33,3.33Zm1.14,3.39a1.29,1.29,0,0,1-.57.56v.65H27.76V7.28a1.26,1.26,0,0,1-.56-.56h-.65V5.57h.65A1.26,1.26,0,0,1,27.76,5V4.36H28.9V5a1.29,1.29,0,0,1,.57.56h.65V6.72Z"/><path d="M0,13.8H9.09c3.68,0,6.17,1.19,6.17,4.79a4.19,4.19,0,0,1-2.63,4,4.7,4.7,0,0,1,3.55,4.9c0,3.92-3.33,5.6-6.82,5.6H0Zm4.25,7.82h4.3c1.51,0,2.6-.67,2.6-2.3,0-1.81-1.41-2.22-2.93-2.22h-4Zm0,8.2H8.79c1.65,0,3.14-.54,3.14-2.54s-1.22-2.76-3.06-2.76H4.25Z"/><path d="M17,19.13h3.65v2.6h.06a4.91,4.91,0,0,1,4.46-3,2.9,2.9,0,0,1,.84.14v3.57a7.11,7.11,0,0,0-1.38-.13c-2.84,0-3.79,2-3.79,4.49v6.3H17Z"/><path d="M30.94,17H27.1V13.8h3.84ZM27.1,19.13h3.84v14H27.1Z"/><path d="M42.33,31.34h0A4.64,4.64,0,0,1,38,33.5c-4.22,0-6.28-3.6-6.28-7.49s2.09-7.26,6.2-7.26a4.82,4.82,0,0,1,4.14,2.09h0v-7H46V33.12H42.33ZM39,21.65c-2.52,0-3.39,2.19-3.39,4.46s1,4.49,3.39,4.49,3.3-2.21,3.3-4.51S41.46,21.65,39,21.65Z"/><path d="M60.7,32.23c0,2.3-.84,6.19-7.25,6.19-2.76,0-6-1.32-6.17-4.49h3.81c.35,1.44,1.49,1.92,2.87,1.92,2.14,0,3.11-1.43,3.08-3.46V30.55h0a4.63,4.63,0,0,1-4.19,2.16c-4.22,0-6-3.19-6-7,0-3.62,2.11-6.93,6-6.93A4.4,4.4,0,0,1,57,21h0V19.13H60.7ZM57,26c0-2.27-.78-4.3-3.27-4.3-2.16,0-3.11,1.89-3.11,4s.73,4.19,3.11,4.19C56,29.82,57,28,57,26Z"/><path d="M65.32,27.06c.11,2.46,1.27,3.54,3.43,3.54a3.14,3.14,0,0,0,3-1.81h3.39a6.28,6.28,0,0,1-6.55,4.71c-4.41,0-7.14-3-7.14-7.36s2.89-7.39,7.14-7.39c4.76,0,7.09,4,6.79,8.31Zm6.25-2.43c-.35-1.95-1.19-3-3.06-3a3,3,0,0,0-3.19,3Z"/></g></g></svg>