<svg xmlns="http://www.w3.org/2000/svg" xmlns:xlink="http://www.w3.org/1999/xlink" viewBox="0 0 1595.08 776.99"><defs><style>.cls-1,.cls-22,.cls-30,.cls-31,.cls-33,.cls-35,.cls-51,.cls-7,.cls-82,.cls-83,.cls-84,.cls-85{fill:none;}.cls-2{fill:#242424;}.cls-3,.cls-9{isolation:isolate;}.cls-4{fill:#fff;}.cls-5{fill:#ebe7f1;}.cls-6{fill:#292c31;}.cls-7{stroke:#292c31;stroke-width:12.8px;}.cls-22,.cls-51,.cls-7{stroke-linecap:round;stroke-linejoin:round;}.cls-8{fill:#e8ba54;}.cls-10,.cls-9{fill:#896733;}.cls-9{opacity:0.51;}.cls-11{clip-path:url(#clip-path);}.cls-12{clip-path:url(#clip-path-2);}.cls-13{fill:#9a9a9e;}.cls-14{fill:#181517;}.cls-15{fill:#606060;}.cls-16{fill:#6a6556;}.cls-17{fill:url(#linear-gradient);}.cls-18{fill:url(#linear-gradient-2);}.cls-19{fill:url(#linear-gradient-3);}.cls-20{fill:url(#linear-gradient-4);}.cls-21{fill:url(#linear-gradient-5);}.cls-22,.cls-51{stroke:#fff;}.cls-22{stroke-width:2.27px;}.cls-23{fill:#6e5d58;}.cls-24{fill:#252125;}.cls-25{clip-path:url(#clip-path-3);}.cls-26{clip-path:url(#clip-path-4);}.cls-27{fill:#97999b;}.cls-28{fill:#40312d;}.cls-29{fill:#d4cdc2;}.cls-30{stroke:#000;}.cls-30,.cls-31,.cls-33,.cls-35,.cls-82,.cls-83,.cls-84,.cls-85{stroke-miterlimit:10;}.cls-30,.cls-31,.cls-33,.cls-35{stroke-width:2.56px;}.cls-31,.cls-84{stroke:#fa0;}.cls-32{fill:#fa0;}.cls-33,.cls-83{stroke:red;}.cls-34{fill:red;}.cls-35,.cls-85{stroke:#fff200;}.cls-36{fill:#fff200;}.cls-37{fill:#191919;}.cls-38{fill:#333;}.cls-39{clip-path:url(#clip-path-5);}.cls-40{clip-path:url(#clip-path-6);}.cls-41{clip-path:url(#clip-path-7);}.cls-42{fill:url(#linear-gradient-6);}.cls-43{clip-path:url(#clip-path-8);}.cls-44{fill:url(#linear-gradient-7);}.cls-45{clip-path:url(#clip-path-9);}.cls-46{fill:url(#linear-gradient-8);}.cls-47{clip-path:url(#clip-path-10);}.cls-48{fill:url(#linear-gradient-9);}.cls-49{clip-path:url(#clip-path-11);}.cls-50{fill:url(#linear-gradient-10);}.cls-51{stroke-width:4.8px;}.cls-52{clip-path:url(#clip-path-13);}.cls-53{fill:#e5e5e5;}.cls-54{fill:#232323;}.cls-55{clip-path:url(#clip-path-14);}.cls-56{clip-path:url(#clip-path-15);}.cls-57{clip-path:url(#clip-path-16);}.cls-58{clip-path:url(#clip-path-17);}.cls-59{clip-path:url(#clip-path-18);}.cls-60{clip-path:url(#clip-path-19);}.cls-61{clip-path:url(#clip-path-20);}.cls-62{clip-path:url(#clip-path-21);}.cls-63{clip-path:url(#clip-path-22);}.cls-64{clip-path:url(#clip-path-23);}.cls-65{clip-path:url(#clip-path-24);}.cls-66{clip-path:url(#clip-path-26);}.cls-67{clip-path:url(#clip-path-27);}.cls-68{clip-path:url(#clip-path-28);}.cls-69{fill:#b9752b;}.cls-70{clip-path:url(#clip-path-29);}.cls-71{clip-path:url(#clip-path-30);}.cls-72{clip-path:url(#clip-path-31);}.cls-73{clip-path:url(#clip-path-32);}.cls-74{clip-path:url(#clip-path-33);}.cls-75{clip-path:url(#clip-path-34);}.cls-76{fill:#d1d5d2;}.cls-77{fill:#a5a8a6;}.cls-78{fill:#353b3d;}.cls-79{fill:#40484a;}.cls-80{fill:#e6e7e7;}.cls-81{fill:#595959;}.cls-82{stroke:#333;}.cls-82,.cls-83,.cls-84,.cls-85{stroke-width:4px;}</style><clipPath id="clip-path"><path class="cls-1" d="M1432.73,299.85h50.41v84.52h-35.8V342.11s-.66-10.93-14.67-8.15C1432.37,305.28,1432.73,299.85,1432.73,299.85Z"/></clipPath><clipPath id="clip-path-2"><path class="cls-1" d="M1403.69,299.85h-50.41v84.52h35.8V342.11s.66-10.93,14.67-8.15C1404,305.28,1403.69,299.85,1403.69,299.85Z"/></clipPath><linearGradient id="linear-gradient" x1="802.56" y1="-204.98" x2="802.56" y2="-232.05" gradientTransform="translate(-244.29 557.46)" gradientUnits="userSpaceOnUse"><stop offset="0" stop-color="#fff"/><stop offset="0.04" stop-color="#d9d9d9"/><stop offset="0.1" stop-color="#acacac"/><stop offset="0.16" stop-color="#838383"/><stop offset="0.23" stop-color="#606060"/><stop offset="0.3" stop-color="#424242"/><stop offset="0.38" stop-color="#2a2a2a"/><stop offset="0.47" stop-color="#171717"/><stop offset="0.58" stop-color="#0a0a0a"/><stop offset="0.72" stop-color="#020202"/><stop offset="1"/></linearGradient><linearGradient id="linear-gradient-2" x1="802.56" y1="-247.04" x2="802.56" y2="-274.11" gradientTransform="translate(-244.29 641.58)" xlink:href="#linear-gradient"/><linearGradient id="linear-gradient-3" x1="802.56" y1="-267.84" x2="802.56" y2="-294.91" gradientTransform="translate(-244.29 683.18)" xlink:href="#linear-gradient"/><linearGradient id="linear-gradient-4" x1="802.56" y1="-288.87" x2="802.56" y2="-315.94" gradientTransform="translate(-244.29 725.24)" xlink:href="#linear-gradient"/><linearGradient id="linear-gradient-5" x1="802.56" y1="-223.92" x2="802.56" y2="-248.67" gradientTransform="translate(-244.29 599.6)" xlink:href="#linear-gradient"/><clipPath id="clip-path-3"><rect class="cls-1" x="188.31" y="317.38" width="38.27" height="129.69"/></clipPath><clipPath id="clip-path-4"><rect class="cls-1" x="188.31" y="317.38" width="38.27" height="129.69"/></clipPath><clipPath id="clip-path-5"><rect class="cls-1" x="0.13" y="565.68" width="614.1" height="162.68"/></clipPath><clipPath id="clip-path-6"><rect class="cls-1" x="0.13" y="565.68" width="614.1" height="162.68"/></clipPath><clipPath id="clip-path-7"><rect class="cls-1" x="544.99" y="681.55" width="23.68" height="21.82"/></clipPath><linearGradient id="linear-gradient-6" x1="767.76" y1="-105.08" x2="768.76" y2="-105.08" gradientTransform="translate(3492.45 22158.84) rotate(-90) scale(27.94)" gradientUnits="userSpaceOnUse"><stop offset="0" stop-color="#fff"/><stop offset="0.01" stop-color="#f8f8f8"/><stop offset="0.07" stop-color="#cccbcb"/><stop offset="0.13" stop-color="#a4a2a2"/><stop offset="0.2" stop-color="#817f7f"/><stop offset="0.28" stop-color="#646161"/><stop offset="0.36" stop-color="#4c4949"/><stop offset="0.46" stop-color="#393637"/><stop offset="0.57" stop-color="#2d292a"/><stop offset="0.71" stop-color="#252122"/><stop offset="1" stop-color="#231f20"/></linearGradient><clipPath id="clip-path-8"><rect class="cls-1" x="544.99" y="638.14" width="23.68" height="21.82"/></clipPath><linearGradient id="linear-gradient-7" x1="767.76" y1="-105.08" x2="768.76" y2="-105.08" gradientTransform="translate(3492.45 22115.44) rotate(-90) scale(27.94)" xlink:href="#linear-gradient-6"/><clipPath id="clip-path-9"><rect class="cls-1" x="544.99" y="616.68" width="23.68" height="21.82"/></clipPath><linearGradient id="linear-gradient-8" x1="767.76" y1="-105.08" x2="768.76" y2="-105.08" gradientTransform="translate(3492.45 22093.97) rotate(-90) scale(27.94)" xlink:href="#linear-gradient-6"/><clipPath id="clip-path-10"><rect class="cls-1" x="544.99" y="594.98" width="23.68" height="21.82"/></clipPath><linearGradient id="linear-gradient-9" x1="767.76" y1="-105.08" x2="768.76" y2="-105.08" gradientTransform="translate(3492.45 22072.27) rotate(-90) scale(27.94)" xlink:href="#linear-gradient-6"/><clipPath id="clip-path-11"><rect class="cls-1" x="544.99" y="659.81" width="23.68" height="21.82"/></clipPath><linearGradient id="linear-gradient-10" x1="767.76" y1="-105.08" x2="768.76" y2="-105.08" gradientTransform="translate(3241.11 20302.83) rotate(-90) scale(25.55)" xlink:href="#linear-gradient-6"/><clipPath id="clip-path-13"><rect class="cls-1" x="193.23" y="580.66" width="21.69" height="8.53"/></clipPath><clipPath id="clip-path-14"><rect class="cls-1" x="193.23" y="596.12" width="21.69" height="8.53"/></clipPath><clipPath id="clip-path-15"><rect class="cls-1" x="193.23" y="612.01" width="21.69" height="8.53"/></clipPath><clipPath id="clip-path-16"><rect class="cls-1" x="193.23" y="632.08" width="21.69" height="8.53"/></clipPath><clipPath id="clip-path-17"><rect class="cls-1" x="193.23" y="647.91" width="21.69" height="8.53"/></clipPath><clipPath id="clip-path-18"><rect class="cls-1" x="383.95" y="703.37" width="21.69" height="8.53"/></clipPath><clipPath id="clip-path-19"><rect class="cls-1" x="410.31" y="703.37" width="21.69" height="8.53"/></clipPath><clipPath id="clip-path-20"><rect class="cls-1" x="442.39" y="681.96" width="8.53" height="21.69"/></clipPath><clipPath id="clip-path-21"><rect class="cls-1" x="457.97" y="648.92" width="8.53" height="21.69"/></clipPath><clipPath id="clip-path-22"><rect class="cls-1" x="453.45" y="604.72" width="21.69" height="8.53"/></clipPath><clipPath id="clip-path-23"><rect class="cls-1" x="453.45" y="573.89" width="8.53" height="21.69"/></clipPath><clipPath id="clip-path-24"><rect class="cls-1" x="500.23" y="573.31" width="21.69" height="8.53"/></clipPath><clipPath id="clip-path-26"><rect class="cls-1" x="453.45" y="620.34" width="21.69" height="8.53"/></clipPath><clipPath id="clip-path-27"><rect class="cls-1" x="193.23" y="662.37" width="28.05" height="11.84"/></clipPath><clipPath id="clip-path-28"><rect class="cls-1" x="255.2" y="663.72" width="8.7" height="21.5"/></clipPath><clipPath id="clip-path-29"><rect class="cls-1" x="231.63" y="663.72" width="8.7" height="21.5"/></clipPath><clipPath id="clip-path-30"><rect class="cls-1" x="275.95" y="630.56" width="8.7" height="21.5"/></clipPath><clipPath id="clip-path-31"><rect class="cls-1" x="338.04" y="587.16" width="8.69" height="21.5"/></clipPath><clipPath id="clip-path-32"><rect class="cls-1" x="337.62" y="681.1" width="8.7" height="21.5"/></clipPath><clipPath id="clip-path-33"><rect class="cls-1" x="349.91" y="703.21" width="21.5" height="8.69"/></clipPath><clipPath id="clip-path-34"><rect class="cls-1" x="255.32" y="611.25" width="21.5" height="8.7"/></clipPath></defs><g id="Layer_2" data-name="Layer 2"><g id="Layer_1-2" data-name="Layer 1"><g id="RAK811-LoRa-Breakout-Board-Front-View-Illustration"><g id="Layer_4" data-name="Layer 4"><path class="cls-2" d="M1595.08,408.1h0v-.24h-.18q-47.1-53.79-94.19-107.65H1334.86Q1280.53,354,1226.19,407.86H1226V777h369.13V408.1Z"/></g><g id="Layer_8" data-name="Layer 8"><g class="cls-3"><path class="cls-4" d="M1294.39,704.58h-2.31l-2.69-10.52h-.05l-2.66,10.52h-2.35l-4.25-13.23h2.41l3,10.82h0l2.66-10.82h2.38l2.77,10.82h.05l3-10.82h2.25Z"/><path class="cls-4" d="M1313.79,704.58h-2.31l-2.68-10.52h0l-2.67,10.52h-2.35l-4.25-13.23h2.41l3,10.82h0l2.66-10.82H1310l2.77,10.82h0l3-10.82H1318Z"/><path class="cls-4" d="M1333.19,704.58h-2.31l-2.68-10.52h0l-2.67,10.52h-2.35l-4.25-13.23h2.41l3,10.82h0l2.66-10.82h2.38l2.77,10.82h0l3-10.82h2.25Z"/><path class="cls-4" d="M1340,701.73h2.84v2.85H1340Z"/><path class="cls-4" d="M1347,686.31h8.6c3.45,0,5.55,1.84,5.55,4.78,0,2.23-.95,4-3.17,4.63v0c2.12.41,2.53,2,2.74,3.76s0,3.82,1.07,5.05H1359c-.69-.75-.31-2.72-.67-4.51s-.69-3.3-3-3.3h-5.94v7.81H1347Zm7.5,8.41c2.25,0,4.22-.58,4.22-3.25,0-1.81-1-3.12-3.25-3.12h-6v6.37Z"/><path class="cls-4" d="M1369.46,686.31h2.68l7.14,18.27h-2.68l-2-5.51h-7.73l-2,5.51h-2.5ZM1367.64,697h6.19l-3-8.52h-.06Z"/><path class="cls-4" d="M1381.08,686.31h2.43v9.1l9.26-9.1h3.15l-7.7,7.36,8,10.91h-3.08l-6.6-9.24-3,2.84v6.4h-2.43Z"/><path class="cls-4" d="M1410.89,704.58h-2.3l-2.69-10.52h-.05l-2.66,10.52h-2.36l-4.24-13.23h2.4l3,10.82h0l2.66-10.82h2.38l2.76,10.82h.05l3-10.82h2.25Z"/><path class="cls-4" d="M1419.49,689h-2.17v-2.66h2.17Zm-2.17,2.38h2.17v13.23h-2.17Z"/><path class="cls-4" d="M1422.8,691.35h2v2.79h.05a4.78,4.78,0,0,1,4.87-3.1v2.3c-3.51,0-4.79,2-4.79,5.35v5.89h-2.17Z"/><path class="cls-4" d="M1442.68,700.38a5.3,5.3,0,0,1-5.66,4.5c-4.22,0-6.21-2.94-6.34-7s2.61-6.88,6.22-6.88c4.68,0,6.11,4.37,6,7.57H1433a3.89,3.89,0,0,0,4.12,4.35,3.14,3.14,0,0,0,3.43-2.58Zm-2.1-3.69a3.81,3.81,0,0,0-3.81-3.73,3.76,3.76,0,0,0-3.79,3.73Z"/><path class="cls-4" d="M1445.27,686.31h2.17v18.27h-2.17Z"/><path class="cls-4" d="M1462.11,700.38a5.3,5.3,0,0,1-5.66,4.5c-4.22,0-6.22-2.94-6.35-7s2.61-6.88,6.22-6.88c4.69,0,6.12,4.37,6,7.57h-9.9a3.89,3.89,0,0,0,4.12,4.35,3.16,3.16,0,0,0,3.43-2.58Zm-2.1-3.69a3.81,3.81,0,0,0-3.82-3.73,3.75,3.75,0,0,0-3.78,3.73Z"/><path class="cls-4" d="M1465.9,700.4c.07,2,1.79,2.56,3.55,2.56,1.36,0,3.2-.3,3.2-2,0-3.4-8.65-1.1-8.65-6.19,0-2.66,2.61-3.76,4.94-3.76,3,0,5.22.92,5.43,4.14h-2.18c-.13-1.68-1.66-2.22-3.07-2.22s-2.81.36-2.81,1.69c0,1.53,2.3,1.84,4.32,2.3s4.32,1.23,4.32,3.76c0,3.18-2.94,4.17-5.63,4.17-3,0-5.47-1.2-5.6-4.48Z"/><path class="cls-4" d="M1478.69,700.4c.08,2,1.79,2.56,3.56,2.56,1.36,0,3.2-.3,3.2-2,0-3.4-8.65-1.1-8.65-6.19,0-2.66,2.61-3.76,4.94-3.76,3,0,5.22.92,5.42,4.14H1485c-.13-1.68-1.67-2.22-3.07-2.22s-2.82.36-2.82,1.69c0,1.53,2.31,1.84,4.33,2.3s4.32,1.23,4.32,3.76c0,3.18-2.94,4.17-5.63,4.17-3,0-5.47-1.2-5.6-4.48Z"/><path class="cls-4" d="M1490.65,701.73h2.84v2.85h-2.84Z"/><path class="cls-4" d="M1506.26,695.59A3.06,3.06,0,0,0,1503,693c-3.15,0-4.12,2.51-4.12,5.17,0,2.45,1.1,4.83,3.87,4.83a3.38,3.38,0,0,0,3.63-3.22h2.23c-.49,3.25-2.49,5.14-5.84,5.14-4,0-6.19-2.79-6.19-6.75s2-7.09,6.24-7.09c3,0,5.38,1.41,5.71,4.55Z"/><path class="cls-4" d="M1516.73,691c4.19,0,6.42,3,6.42,6.93s-2.23,6.91-6.42,6.91-6.43-3-6.43-6.91S1512.53,691,1516.73,691Zm0,11.92c2.27,0,4.12-1.79,4.12-5s-1.85-5-4.12-5-4.12,1.81-4.12,5S1514.45,703,1516.73,703Z"/><path class="cls-4" d="M1525.71,691.35h2v1.94h0a4.8,4.8,0,0,1,4.27-2.25c1.64,0,3.1.61,3.64,2.25a4.8,4.8,0,0,1,4.14-2.25c2.64,0,4.4,1.1,4.4,3.84v9.7h-2.17V695.9c0-1.64-.44-2.94-2.56-2.94a3.2,3.2,0,0,0-3.46,3.38v8.24h-2.17V695.9c0-1.71-.54-2.94-2.48-2.94a3.57,3.57,0,0,0-3.53,3.38v8.24h-2.18Z"/></g><g class="cls-3"><path class="cls-4" d="M1368.72,728.36V730l-2.83,2.76h-1.55V731l2.83-2.6Zm.07,25.95,1.1,1.09-1.1,1.1h-3.06l-1.09-1.1,1.09-1.09Zm2.38-25v11.14l-1.05,1.05-1-1.05V729.29l1-1Zm0,13.7v11.14l-1.05,1-1-1V743l1-1Zm3.21,11.32,1.1,1.09-1.1,1.1h-3.05l-1.1-1.1,1.1-1.09Z"/><path class="cls-4" d="M1382.14,729.29v11.14l-1.05,1.05-1-1.05V729.29l1-1Zm0,13.7v11.14l-1.05,1-1-1V743l1-1Zm11.28-16.07,1.1,1.1-1.1,1.09h-11.05l-1.09-1.09,1.09-1.1Zm.07,13.83,1.09,1.1-1.09,1.09h-11l-1.09-1.09,1.09-1.1Zm0,13.56,1.09,1.09-1.09,1.1h-11l-1.09-1.1,1.09-1.09Zm2.35-25v11.14l-1,1.05-1-1.05V729.29l1-1Zm0,13.7v11.14l-1,1-1-1V743l1-1Z"/><path class="cls-4" d="M1418.48,728.36V730l-2.83,2.76h-1.55V731l2.83-2.6Zm.07,25.95,1.09,1.09-1.09,1.1h-3.06l-1.1-1.1,1.1-1.09Zm2.37-25v11.14l-1.05,1.05-1-1.05V729.29l1-1Zm0,13.7v11.14l-1.05,1-1-1V743l1-1Zm3.22,11.32,1.09,1.09-1.09,1.1h-3.06l-1.09-1.1,1.09-1.09Z"/><path class="cls-4" d="M1431.9,729.23v2l-1.05,1-1-1v-2l1-1.05Zm0,13.76v11.14l-1.05,1-1-1V743l1-1Zm11.26-16.07,1.09,1.1-1.09,1.09h-11L1431,728l1.1-1.1Zm0,13.6,1.1,1.1-1.1,1.1h-11l-1.09-1.1,1.09-1.1Zm0,13.79,1.1,1.09-1.1,1.1h-11l-1.1-1.1,1.1-1.09Zm2.38-25v11.14l-1,1.05-1-1.05V729.29l1-1Z"/></g><g class="cls-3"><path class="cls-4" d="M1327.54,566.73h6.93c2.78,0,4.47,1.48,4.47,3.85a3.49,3.49,0,0,1-2.55,3.73v0c1.71.33,2,1.61,2.2,3s0,3.07.87,4.06h-2.19c-.55-.59-.24-2.18-.53-3.62s-.56-2.66-2.46-2.66h-4.78v6.28h-2Zm6,6.78c1.82,0,3.4-.48,3.4-2.62a2.32,2.32,0,0,0-2.61-2.52h-4.87v5.14Z"/><path class="cls-4" d="M1345.66,566.73h2.17l5.75,14.71h-2.16l-1.61-4.43h-6.23l-1.65,4.43h-2Zm-1.46,8.63h5l-2.45-6.86h0Z"/><path class="cls-4" d="M1355,566.73h2v7.33l7.47-7.33H1367l-6.2,5.93,6.45,8.78h-2.48l-5.31-7.44-2.46,2.29v5.15h-2Z"/><path class="cls-4" d="M1380.73,566.37c4.68,0,7,3.69,7,7.71s-2.37,7.71-7,7.71-7-3.69-7-7.71S1376.05,566.37,1380.73,566.37Zm0,13.78c3.59,0,5.09-3.1,5.09-6.07s-1.5-6.06-5.09-6.06-5.09,3.1-5.09,6.06S1377.15,580.15,1380.73,580.15Z"/><path class="cls-4" d="M1390,570.79h1.75v1.44h0a3.56,3.56,0,0,1,3.4-1.69c3.28,0,4.91,2.6,4.91,5.61s-1.61,5.54-4.87,5.54a4.07,4.07,0,0,1-3.44-1.67h0v5.51H1390Zm5,1.29c-2.38,0-3.26,2-3.26,4s.95,4,3.36,4,3.19-2,3.19-4.13S1397.16,572.08,1394.9,572.08Z"/><path class="cls-4" d="M1411.2,578.06a4.26,4.26,0,0,1-4.55,3.63c-3.4,0-5-2.37-5.12-5.61s2.11-5.54,5-5.54c3.78,0,4.93,3.52,4.83,6.1h-8a3.14,3.14,0,0,0,3.32,3.51,2.54,2.54,0,0,0,2.76-2.09Zm-1.69-3a3.06,3.06,0,0,0-3.07-3,3,3,0,0,0-3,3Z"/><path class="cls-4" d="M1413.18,570.79h1.65v1.69h0a3.69,3.69,0,0,1,3.47-1.94c2.8,0,3.67,1.61,3.67,3.9v7h-1.76v-7.21a2,2,0,0,0-2.16-2.15c-2.12,0-3.16,1.43-3.16,3.34v6h-1.75Z"/><path class="cls-4" d="M1439.18,571c-.23-2.12-1.61-3-3.65-3-1.67,0-3.3.6-3.3,2.52,0,3.63,9.42,1.07,9.42,6.86,0,3.14-3.07,4.39-5.75,4.39-3.3,0-6.08-1.62-6.08-5.19h1.86c0,2.47,2.06,3.55,4.28,3.55,1.78,0,3.73-.56,3.73-2.68,0-4.05-9.42-1.39-9.42-6.79,0-3,2.64-4.31,5.34-4.31,3,0,5.32,1.43,5.42,4.66Z"/><path class="cls-4" d="M1448.33,570.54c3.38,0,5.18,2.45,5.18,5.59s-1.8,5.56-5.18,5.56-5.17-2.45-5.17-5.56S1445,570.54,1448.33,570.54Zm0,9.61c1.84,0,3.32-1.45,3.32-4s-1.48-4-3.32-4-3.32,1.47-3.32,4S1446.5,580.15,1448.33,580.15Z"/><path class="cls-4" d="M1464.39,581.44h-1.65v-1.69h0a3.68,3.68,0,0,1-3.46,1.94c-2.8,0-3.67-1.61-3.67-3.89v-7h1.75V578a2,2,0,0,0,2.17,2.15c2.12,0,3.15-1.43,3.15-3.34v-6h1.75Z"/><path class="cls-4" d="M1467,570.79h1.65V573h0a3.85,3.85,0,0,1,3.92-2.49v1.85c-2.83,0-3.86,1.59-3.86,4.31v4.74H1467Z"/><path class="cls-4" d="M1481.13,574.21a2.46,2.46,0,0,0-2.64-2.13c-2.53,0-3.31,2-3.31,4.17,0,2,.88,3.9,3.11,3.9a2.74,2.74,0,0,0,2.93-2.6H1483a4.4,4.4,0,0,1-4.7,4.14c-3.26,0-5-2.25-5-5.44s1.65-5.71,5-5.71c2.43,0,4.33,1.13,4.6,3.67Z"/><path class="cls-4" d="M1494.06,578.06a4.27,4.27,0,0,1-4.56,3.63c-3.4,0-5-2.37-5.11-5.61s2.1-5.54,5-5.54c3.77,0,4.93,3.52,4.82,6.1h-8a3.14,3.14,0,0,0,3.31,3.51,2.54,2.54,0,0,0,2.77-2.09Zm-1.69-3a3.06,3.06,0,0,0-3.07-3,3,3,0,0,0-3,3Z"/></g><g class="cls-3"><path class="cls-4" d="M1498.54,523.46h-3.35v-1.13h8v1.13h-3.35v8.93h-1.34Z"/><path class="cls-4" d="M1504.37,522.33h1.83l3.17,8.45,3.18-8.45h1.83v10.06h-1.27V524h0l-3.14,8.37h-1.14l-3.15-8.37h0v8.37h-1.27Z"/></g><g class="cls-3"><path class="cls-4" d="M1436.28,541H1434l-3.72-13.69h0L1426.49,541h-2.26l-4.17-16.29h2.21l3.19,13.55h0l3.65-13.55h2.35l3.6,13.55h.05l3.31-13.55h2.16Z"/><path class="cls-4" d="M1444.42,527h-1.94v-2.37h1.94Zm-1.94,2.12h1.94V541h-1.94Z"/><path class="cls-4" d="M1448.61,537.23c.07,1.73,1.6,2.28,3.17,2.28,1.21,0,2.86-.28,2.86-1.76,0-3-7.71-1-7.71-5.52,0-2.37,2.32-3.35,4.4-3.35,2.64,0,4.65.82,4.83,3.69h-1.93c-.12-1.5-1.49-2-2.74-2s-2.51.32-2.51,1.51c0,1.36,2,1.64,3.85,2s3.86,1.09,3.86,3.35c0,2.83-2.62,3.72-5,3.72-2.65,0-4.88-1.07-5-4Z"/><path class="cls-4" d="M1459,524.66h1.93v9.65l5.39-5.16h2.6l-4.68,4.29,5,7.51h-2.46l-4-6.16-1.83,1.69V541H1459Z"/><path class="cls-4" d="M1480.73,537.2a4.72,4.72,0,0,1-5,4c-3.77,0-5.55-2.62-5.66-6.2s2.33-6.14,5.54-6.14c4.18,0,5.46,3.9,5.34,6.75h-8.83a3.49,3.49,0,0,0,3.68,3.88,2.8,2.8,0,0,0,3-2.31Zm-1.87-3.28a3.4,3.4,0,0,0-3.4-3.33,3.35,3.35,0,0,0-3.38,3.33Z"/><path class="cls-4" d="M1487.55,542.52c-.91,2.28-1.69,3.15-3.42,3.15a3.85,3.85,0,0,1-1.35-.21v-1.78a3.81,3.81,0,0,0,1.14.28,1.66,1.66,0,0,0,1.6-1.07l.8-2-4.68-11.73h2.19l3.44,9.65h0l3.31-9.65h2Z"/></g><g class="cls-3"><path class="cls-4" d="M1275.93,636.78h3.12V657.6h12.41v2.63h-15.53Z"/><path class="cls-4" d="M1301,642.86c5.39,0,8.25,3.9,8.25,8.9s-2.86,8.86-8.25,8.86-8.24-3.91-8.24-8.86S1295.66,642.86,1301,642.86Zm0,15.3c2.93,0,5.29-2.3,5.29-6.4s-2.36-6.44-5.29-6.44-5.28,2.33-5.28,6.44S1298.12,658.16,1301,658.16Z"/><path class="cls-4" d="M1313,636.78h11c4.43,0,7.12,2.37,7.12,6.14,0,2.86-1.21,5.16-4.07,6v.06c2.73.53,3.25,2.56,3.52,4.83s.06,4.89,1.38,6.47h-3.49c-.88-1-.39-3.48-.85-5.78s-.89-4.24-3.91-4.24h-7.62v10H1313Zm9.62,10.8c2.89,0,5.41-.75,5.41-4.17,0-2.33-1.24-4-4.17-4h-7.75v8.17Z"/><path class="cls-4" d="M1350.09,660.16a3.87,3.87,0,0,1-2,.46c-1.44,0-2.36-.79-2.36-2.63a7.45,7.45,0,0,1-6,2.63c-3.09,0-5.61-1.35-5.61-4.76,0-3.84,2.85-4.7,5.74-5.22,3.06-.62,5.72-.36,5.72-2.5,0-2.46-2-2.82-3.78-2.82-2.36,0-4.1.72-4.24,3.22h-2.79c.17-4.21,3.38-5.68,7.19-5.68,3.06,0,6.37.69,6.37,4.66v8.73c0,1.32,0,1.91.89,1.91a2.73,2.73,0,0,0,.85-.17Zm-4.53-8.7c-2.16,1.61-8.47,0-8.47,4.2,0,1.84,1.58,2.5,3.28,2.5,3.68,0,5.19-2.27,5.19-3.84Z"/></g><g class="cls-3"><path class="cls-4" d="M1368.91,638.19a8.83,8.83,0,1,1-8.83-8.83A8.7,8.7,0,0,1,1368.91,638.19Zm-16.29,0a7.46,7.46,0,1,0,7.46-7.57A7.38,7.38,0,0,0,1352.62,638.19Zm5.51,5.11h-1.26V633.09h3.92c2.3,0,3.32,1,3.32,2.82a2.74,2.74,0,0,1-2.56,2.85l3,4.54h-1.47l-2.88-4.54h-2.11Zm1.66-5.61c1.55,0,3.07,0,3.07-1.78,0-1.42-1.19-1.75-2.43-1.75h-2.3v3.53Z"/></g><g class="cls-3"><path class="cls-4" d="M1381.26,636.78h8.51c2,0,4.83,0,6.21.86a5.52,5.52,0,0,1,2.75,4.89,5.37,5.37,0,0,1-3.48,5.25v.07a5.4,5.4,0,0,1,4.47,5.65,6.7,6.7,0,0,1-7.13,6.73h-11.33Zm3.12,10.08h6.24c3.55,0,5-1.25,5-3.74,0-3.28-2.26-3.71-5-3.71h-6.24Zm0,10.74h7.82c2.72,0,4.4-1.61,4.4-4.2,0-3.06-2.46-3.91-5.09-3.91h-7.13Z"/><path class="cls-4" d="M1403.19,643.25h2.63v3.58h.07c1.34-2.76,3.22-4.07,6.24-4v2.95c-4.5,0-6.14,2.53-6.14,6.86v7.56h-2.8Z"/><path class="cls-4" d="M1428.71,654.84c-.76,3.78-3.42,5.78-7.26,5.78-5.42,0-8-3.77-8.14-8.93,0-5.12,3.35-8.83,8-8.83,6,0,7.84,5.61,7.68,9.72h-12.71c-.1,2.95,1.58,5.58,5.29,5.58,2.33,0,3.91-1.09,4.4-3.32Zm-2.7-4.73a4.88,4.88,0,0,0-4.89-4.79,4.82,4.82,0,0,0-4.86,4.79Z"/><path class="cls-4" d="M1446.89,660.16a3.87,3.87,0,0,1-2,.46c-1.44,0-2.36-.79-2.36-2.63a7.44,7.44,0,0,1-6,2.63c-3.08,0-5.61-1.35-5.61-4.76,0-3.84,2.85-4.7,5.74-5.22,3.06-.62,5.72-.36,5.72-2.5,0-2.46-2-2.82-3.78-2.82-2.36,0-4.1.72-4.24,3.22h-2.79c.17-4.21,3.39-5.68,7.19-5.68,3.06,0,6.37.69,6.37,4.66v8.73c0,1.32,0,1.91.89,1.91a2.73,2.73,0,0,0,.85-.17Zm-4.53-8.7c-2.16,1.61-8.47,0-8.47,4.2,0,1.84,1.58,2.5,3.29,2.5,3.67,0,5.18-2.27,5.18-3.84Z"/><path class="cls-4" d="M1449.65,636.78h2.79v13.89l7.75-7.42h3.74l-6.73,6.17,7.23,10.81h-3.55l-5.81-8.87-2.63,2.43v6.44h-2.79Z"/><path class="cls-4" d="M1466.62,636.78h2.79v8.77h.07c.92-1.87,3-2.69,5.42-2.69,5.22,0,7.81,4.13,7.81,8.93s-2.56,8.83-7.75,8.83c-1.7,0-4.27-.66-5.48-2.66h-.07v2.27h-2.79Zm7.88,8.54c-3.77,0-5.18,3.25-5.18,6.4,0,3.32,1.51,6.44,5.35,6.44s5.09-3.25,5.09-6.57S1478.12,645.32,1474.5,645.32Z"/><path class="cls-4" d="M1493.32,642.86c5.38,0,8.24,3.9,8.24,8.9s-2.86,8.86-8.24,8.86-8.25-3.91-8.25-8.86S1487.93,642.86,1493.32,642.86Zm0,15.3c2.92,0,5.28-2.3,5.28-6.4s-2.36-6.44-5.28-6.44-5.29,2.33-5.29,6.44S1490.39,658.16,1493.32,658.16Z"/><path class="cls-4" d="M1519.88,660.16a3.88,3.88,0,0,1-2,.46c-1.44,0-2.36-.79-2.36-2.63a7.43,7.43,0,0,1-6,2.63c-3.08,0-5.61-1.35-5.61-4.76,0-3.84,2.86-4.7,5.75-5.22,3-.62,5.71-.36,5.71-2.5,0-2.46-2-2.82-3.78-2.82-2.36,0-4.1.72-4.23,3.22h-2.79c.16-4.21,3.38-5.68,7.19-5.68,3,0,6.37.69,6.37,4.66v8.73c0,1.32,0,1.91.88,1.91a2.79,2.79,0,0,0,.86-.17Zm-4.53-8.7c-2.17,1.61-8.48,0-8.48,4.2,0,1.84,1.58,2.5,3.29,2.5,3.68,0,5.19-2.27,5.19-3.84Z"/><path class="cls-4" d="M1522.37,643.25H1525v3.58h.06c1.35-2.76,3.22-4.07,6.24-4v2.95c-4.5,0-6.14,2.53-6.14,6.86v7.56h-2.79Z"/><path class="cls-4" d="M1548.57,660.23h-2.79v-2.3h-.07c-.91,1.87-3,2.69-5.41,2.69-5.22,0-7.82-4.14-7.82-8.93s2.56-8.83,7.75-8.83c1.71,0,4.27.65,5.48,2.66h.07v-8.74h2.79Zm-7.88-2.07c3.78,0,5.19-3.25,5.19-6.4,0-3.32-1.51-6.44-5.35-6.44s-5.09,3.25-5.09,6.57S1537.08,658.16,1540.69,658.16Z"/></g></g><g id="Layer_7" data-name="Layer 7"><path class="cls-5" d="M1368.61,485.32s-16.84-14.19-32.54,4.47c-13.46,16.06,4.89,32.54,16.3,28.8.54,14.61-1.69,28.07,10.69,30.31s31.39.72,37.43-15.34c4.47-12.32-3.74-22.1-3.74-22.1s17.2-2.23,12.31-21.67S1381.65,468.84,1368.61,485.32Z"/><path class="cls-5" d="M1320.67,487.55s.37,18.72,6.77,24.34c-7.49,1.14-16.85,0-19.81-10.09S1315.48,486.41,1320.67,487.55Z"/><path class="cls-5" d="M1411.6,456.88s12,13.11,9.36,26.21c8.21-3.38,12-9.36,9-19.08S1411.6,456.88,1411.6,456.88Z"/><path class="cls-5" d="M1370.54,552.64s21.2,2.23,28.32-10.87c2.6-1.87,4.11,3.5,0,7.91s-17.33,11.17-28.32,8.88-5-6.83-1.63-6.34"/><circle class="cls-6" cx="1382.86" cy="492.38" r="9.36"/><circle class="cls-6" cx="1357.02" cy="498.24" r="9.36"/><circle class="cls-5" cx="1380.08" cy="491" r="4.77"/><circle class="cls-5" cx="1355.27" cy="495.89" r="4.77"/><path class="cls-7" d="M1369.34,517.5a5.8,5.8,0,0,0,6.76,1.33,5.68,5.68,0,0,0,2.78-4.29"/><path class="cls-6" d="M1461.77,522.33v.18a.76.76,0,0,0,.06.36c.06.12.12.18.18.31a1.31,1.31,0,0,0,.3.18.78.78,0,0,0,.37.06.36.36,0,0,0,.24-.06,1,1,0,0,0,.42-.24c.06-.07.12-.13.12-.19a1.13,1.13,0,0,0,.12-.48v-.18a.76.76,0,0,0-.06-.36c-.06-.12-.12-.18-.18-.3a1.3,1.3,0,0,0-.3-.19.76.76,0,0,0-.36-.06.39.39,0,0,0-.25.06,1,1,0,0,0-.42.25c-.06.06-.12.12-.12.18a1.41,1.41,0,0,0-.12.48Z"/></g><g id="Layer_3" data-name="Layer 3"><path class="cls-8" d="M1461.29,142.94V283.25a4.11,4.11,0,0,1-4.11,4.1h-80.36a4.11,4.11,0,0,1-4.1-4.1V142.94a4.11,4.11,0,0,1,4.1-4.11h80.36A4.11,4.11,0,0,1,1461.29,142.94Z"/><path class="cls-8" d="M1468.17,223.35V229a1.28,1.28,0,0,1-1.27,1.27h-99.74a1.28,1.28,0,0,1-1.27-1.27v-5.68a1.28,1.28,0,0,1,1.27-1.26h99.74A1.31,1.31,0,0,1,1468.17,223.35Z"/><path class="cls-8" d="M1468.17,213.15v5.68a1.27,1.27,0,0,1-1.27,1.26h-99.74a1.28,1.28,0,0,1-1.27-1.26v-5.68a1.28,1.28,0,0,1,1.27-1.27h99.74A1.28,1.28,0,0,1,1468.17,213.15Z"/><path class="cls-8" d="M1468.17,203v5.67a1.27,1.27,0,0,1-1.27,1.27h-99.74a1.28,1.28,0,0,1-1.27-1.27V203a1.28,1.28,0,0,1,1.27-1.27h99.74A1.24,1.24,0,0,1,1468.17,203Z"/><path class="cls-8" d="M1468.17,192.68v5.68a1.28,1.28,0,0,1-1.27,1.27h-99.74a1.28,1.28,0,0,1-1.27-1.27v-5.68a1.28,1.28,0,0,1,1.27-1.26h99.74A1.31,1.31,0,0,1,1468.17,192.68Z"/><path class="cls-8" d="M1468.17,182.48v5.68a1.27,1.27,0,0,1-1.27,1.26h-99.74a1.28,1.28,0,0,1-1.27-1.26v-5.68a1.28,1.28,0,0,1,1.27-1.27h99.74A1.28,1.28,0,0,1,1468.17,182.48Z"/><path class="cls-8" d="M1468.17,172.28V178a1.27,1.27,0,0,1-1.27,1.27h-99.74a1.28,1.28,0,0,1-1.27-1.27v-5.67a1.28,1.28,0,0,1,1.27-1.27h99.74A1.24,1.24,0,0,1,1468.17,172.28Z"/><path class="cls-8" d="M1468.17,162v5.68a1.28,1.28,0,0,1-1.27,1.27h-99.74a1.28,1.28,0,0,1-1.27-1.27V162a1.28,1.28,0,0,1,1.27-1.26h99.74A1.31,1.31,0,0,1,1468.17,162Z"/><path class="cls-9" d="M1461,160.81h-88a.29.29,0,0,1-.3-.31V159a.28.28,0,0,1,.3-.3h88a.28.28,0,0,1,.3.3v1.51A.32.32,0,0,1,1461,160.81Z"/><path class="cls-9" d="M1461,171h-88a.28.28,0,0,1-.3-.3V169.2a.28.28,0,0,1,.3-.3h88a.28.28,0,0,1,.3.3v1.51A.32.32,0,0,1,1461,171Z"/><path class="cls-9" d="M1461,181.21h-88a.28.28,0,0,1-.3-.3V179.4a.28.28,0,0,1,.3-.3h88a.28.28,0,0,1,.3.3v1.51A.32.32,0,0,1,1461,181.21Z"/><path class="cls-9" d="M1461,191.48h-88a.29.29,0,0,1-.3-.31v-1.5a.29.29,0,0,1,.3-.31h88a.29.29,0,0,1,.3.31v1.5A.32.32,0,0,1,1461,191.48Z"/><path class="cls-9" d="M1461,201.68h-88a.28.28,0,0,1-.3-.3v-1.51a.28.28,0,0,1,.3-.3h88a.28.28,0,0,1,.3.3v1.51A.32.32,0,0,1,1461,201.68Z"/><path class="cls-9" d="M1461,211.88h-88a.28.28,0,0,1-.3-.3v-1.45a.28.28,0,0,1,.3-.3h88a.28.28,0,0,1,.3.3v1.51C1461.29,211.76,1461.11,211.88,1461,211.88Z"/><path class="cls-9" d="M1461,222.15h-88a.29.29,0,0,1-.3-.31V220.4a.29.29,0,0,1,.3-.31h88a.29.29,0,0,1,.3.31v1.51C1461.29,222,1461.11,222.15,1461,222.15Z"/><path class="cls-9" d="M1461,232.35h-88a.28.28,0,0,1-.3-.3v-1.51a.28.28,0,0,1,.3-.3h88a.28.28,0,0,1,.3.3v1.51A.32.32,0,0,1,1461,232.35Z"/><rect class="cls-10" x="1361.73" y="274.43" width="108.37" height="25.9"/><path id="SVGID" class="cls-8" d="M1432.73,299.85h50.41v84.52h-35.8V342.11s-.66-10.93-14.67-8.15C1432.37,305.28,1432.73,299.85,1432.73,299.85Z"/><g class="cls-11"><rect class="cls-10" x="1389.02" y="293.45" width="58.32" height="54.88"/></g><path id="SVGID-2" data-name="SVGID" class="cls-8" d="M1403.69,299.85h-50.41v84.52h35.8V342.11s.66-10.93,14.67-8.15C1404,305.28,1403.69,299.85,1403.69,299.85Z"/><g class="cls-12"><rect class="cls-10" x="1389.02" y="293.45" width="58.32" height="54.88"/></g></g><g id="Layer_9" data-name="Layer 9"><circle class="cls-13" cx="1244.84" cy="508.38" r="12.01"/><circle class="cls-4" cx="1245.09" cy="508.38" r="5.25"/><circle class="cls-13" cx="1244.84" cy="538.93" r="12.01"/><circle class="cls-4" cx="1245.09" cy="538.93" r="5.25"/><circle class="cls-13" cx="1244.84" cy="569.42" r="12.01"/><circle class="cls-4" cx="1245.09" cy="569.42" r="5.25"/><circle class="cls-13" cx="1244.84" cy="599.97" r="12.01"/><circle class="cls-4" cx="1245.09" cy="599.97" r="5.25"/><circle class="cls-13" cx="1244.84" cy="630.52" r="12.01"/><circle class="cls-4" cx="1245.09" cy="630.52" r="5.25"/><circle class="cls-13" cx="1244.84" cy="661.07" r="12.01"/><circle class="cls-4" cx="1245.09" cy="661.07" r="5.25"/><circle class="cls-13" cx="1244.84" cy="691.62" r="12.01"/><circle class="cls-4" cx="1245.09" cy="691.62" r="5.25"/><circle class="cls-13" cx="1244.84" cy="722.17" r="12.01"/><circle class="cls-4" cx="1245.09" cy="722.17" r="5.25"/><circle class="cls-13" cx="1244.84" cy="752.72" r="12.01"/><circle class="cls-4" cx="1245.09" cy="752.72" r="5.25"/><rect class="cls-13" x="1232.83" y="465.76" width="24.03" height="24.03"/><circle class="cls-4" cx="1245.09" cy="477.83" r="5.25"/><circle class="cls-13" cx="1576.9" cy="508.38" r="12.01"/><circle class="cls-4" cx="1577.15" cy="508.38" r="5.25"/><circle class="cls-13" cx="1576.9" cy="538.93" r="12.01"/><circle class="cls-4" cx="1577.15" cy="538.93" r="5.25"/><circle class="cls-13" cx="1576.9" cy="569.42" r="12.01"/><circle class="cls-4" cx="1577.15" cy="569.42" r="5.25"/><circle class="cls-13" cx="1576.9" cy="599.97" r="12.01"/><circle class="cls-4" cx="1577.15" cy="599.97" r="5.25"/><circle class="cls-13" cx="1576.9" cy="630.52" r="12.01"/><circle class="cls-4" cx="1577.15" cy="630.52" r="5.25"/><circle class="cls-13" cx="1576.9" cy="661.07" r="12.01"/><circle class="cls-4" cx="1577.15" cy="661.07" r="5.25"/><circle class="cls-13" cx="1576.9" cy="691.62" r="12.01"/><circle class="cls-4" cx="1577.15" cy="691.62" r="5.25"/><circle class="cls-13" cx="1576.9" cy="722.17" r="12.01"/><circle class="cls-4" cx="1577.15" cy="722.17" r="5.25"/><circle class="cls-13" cx="1576.9" cy="752.72" r="12.01"/><circle class="cls-4" cx="1577.15" cy="752.72" r="5.25"/><rect class="cls-13" x="1564.89" y="465.76" width="24.03" height="24.03"/><circle class="cls-4" cx="1577.15" cy="477.83" r="5.25"/></g></g><path class="cls-14" d="M138.19,458.87h181.7c4.87-4.58,12.18-7.49,20.35-7.49s15.49,2.91,20.36,7.49H534.49a13.5,13.5,0,0,1,13.56-11.66,14.58,14.58,0,0,1,3.19.37V316.89A22.51,22.51,0,0,1,533,301.22H360.1c-.67,5.21-9.57,9.33-20.45,9.33s-19.79-4.12-20.45-9.33H139.12a12.15,12.15,0,0,1-6.48,7.27V454.28A11.35,11.35,0,0,1,138.19,458.87Z"/><rect class="cls-15" x="280.06" y="341.02" width="82.57" height="77.67" transform="translate(642.69 759.71) rotate(180)"/><polygon class="cls-16" points="609.86 425.74 615.83 423.21 615.83 421 609.89 418.37 570.07 418.37 570.07 425.74 609.86 425.74"/><polygon class="cls-16" points="609.86 403.95 615.83 401.42 615.83 399.21 609.89 396.58 570.07 396.58 570.07 403.95 609.86 403.95"/><polygon class="cls-16" points="609.86 382.74 615.83 380.2 615.83 377.99 609.89 375.37 570.07 375.37 570.07 382.74 609.86 382.74"/><polygon class="cls-16" points="609.86 361.1 615.83 358.56 615.83 356.35 609.89 353.73 570.07 353.73 570.07 361.1 609.86 361.1"/><polygon class="cls-16" points="609.86 339.79 615.83 337.25 615.83 335.04 609.89 332.42 570.07 332.42 570.07 339.79 609.86 339.79"/><path class="cls-4" d="M519.68,417.15h26.55a3.62,3.62,0,0,1,3.62,3.62V423a3.62,3.62,0,0,1-3.62,3.62H519.68a1.47,1.47,0,0,1-1.47-1.47v-6.49A1.47,1.47,0,0,1,519.68,417.15Z" transform="translate(1068.05 843.73) rotate(180)"/><path class="cls-4" d="M519.68,396.1h26.55a3.62,3.62,0,0,1,3.62,3.62v2.18a3.62,3.62,0,0,1-3.62,3.62H519.68a1.47,1.47,0,0,1-1.47-1.47v-6.49A1.47,1.47,0,0,1,519.68,396.1Z" transform="translate(1068.05 801.62) rotate(180)"/><path class="cls-4" d="M519.68,374.57h26.55a3.62,3.62,0,0,1,3.62,3.62v2.18a3.62,3.62,0,0,1-3.62,3.62H519.68a1.47,1.47,0,0,1-1.47-1.47V376A1.47,1.47,0,0,1,519.68,374.57Z" transform="translate(1068.05 758.56) rotate(180)"/><path class="cls-4" d="M519.68,353.81h26.55a3.62,3.62,0,0,1,3.62,3.62v2.18a3.62,3.62,0,0,1-3.62,3.62H519.68a1.47,1.47,0,0,1-1.47-1.47v-6.49A1.47,1.47,0,0,1,519.68,353.81Z" transform="translate(1068.05 717.03) rotate(180)"/><path class="cls-4" d="M519.68,332.47h26.55a3.62,3.62,0,0,1,3.62,3.62v2.18a3.62,3.62,0,0,1-3.62,3.62H519.68a1.47,1.47,0,0,1-1.47-1.47v-6.49A1.47,1.47,0,0,1,519.68,332.47Z" transform="translate(1068.05 674.35) rotate(180)"/><rect class="cls-17" x="546.39" y="325.45" width="23.74" height="21.15" transform="translate(1116.53 672.04) rotate(180)"/><rect class="cls-18" x="546.39" y="367.51" width="23.74" height="21.15" transform="translate(1116.53 756.16) rotate(180)"/><rect class="cls-19" x="546.39" y="388.31" width="23.74" height="21.15" transform="translate(1116.53 797.76) rotate(180)"/><rect class="cls-20" x="546.39" y="409.34" width="23.74" height="21.15" transform="translate(1116.53 839.82) rotate(180)"/><rect class="cls-21" x="546.39" y="346.52" width="23.74" height="21.15" transform="translate(1116.53 714.18) rotate(180)"/><polyline class="cls-22" points="547.16 431.34 547.16 433.4 512.84 433.4 512.84 325.64 547.26 325.64 547.26 329.95"/><path class="cls-4" d="M513.74,428.05h-8V426.6h3.15v-8.13h1.74v8.13h3.13Z"/><path class="cls-4" d="M497.88,425a2.33,2.33,0,0,0,2.47,1.9c2.12,0,3-1.81,3-3.64s-.89-3.65-3-3.65a2.5,2.5,0,0,0-2.53,2.51h-1.69a4,4,0,0,1,4.22-3.88,5,5,0,0,1,0,10c-2.25,0-4-1.21-4.21-3.27Z"/><path class="cls-4" d="M494.55,428.05h-1.74v-4.36l-4.41,4.36h-2.14l4-3.83L486,418.47h2.17L491.4,423l1.41-1.35v-3.22h1.74Z"/><path class="cls-4" d="M482.42,428.27H480.9l4-10h1.51Z"/><path class="cls-4" d="M473.46,425a2.34,2.34,0,0,0,2.47,1.9c2.13,0,3-1.81,3-3.64s-.89-3.65-3-3.65a2.5,2.5,0,0,0-2.52,2.51h-1.7a4,4,0,0,1,4.22-3.88,5,5,0,0,1,0,10c-2.25,0-4-1.21-4.2-3.27Z"/><path class="cls-4" d="M470.13,428.05H468.4v-4.36L464,428.05h-2.14l4-3.83-4.23-5.75h2.16L467,423l1.42-1.35v-3.22h1.73Z"/><path class="cls-4" d="M435.23,411.35c0,1,.34,2.08,1.53,2.08a1.35,1.35,0,0,0,1.38-1.46c0-1.06-1-1.59-2-1.55v-1.53a3.11,3.11,0,0,1,3.3,3.11,2.71,2.71,0,0,1-2.59,3,2,2,0,0,1-2.09-1.32h0a2.27,2.27,0,0,1-2.43,1.7,3.07,3.07,0,0,1-3-3.33c0-2.17,1.34-3.26,3.38-3.3v1.53a1.77,1.77,0,0,0-2.07,1.77,1.67,1.67,0,0,0,1.74,1.8c1.51,0,1.69-1.25,1.65-2.46Z"/><path class="cls-4" d="M439.45,416.76v1.74l-7.84,2.4v0l7.84,2.46v1.7l-9.91-3.27V420Z"/><path class="cls-4" d="M435.23,429.15c0,1,.34,2.08,1.53,2.08a1.35,1.35,0,0,0,1.38-1.46,1.71,1.71,0,0,0-2-1.56v-1.52a3.11,3.11,0,0,1,3.3,3.11,2.71,2.71,0,0,1-2.59,3,2,2,0,0,1-2.09-1.33h0a2.27,2.27,0,0,1-2.43,1.71,3.07,3.07,0,0,1-3-3.33c0-2.17,1.34-3.26,3.38-3.3V428a1.77,1.77,0,0,0-2.07,1.77,1.67,1.67,0,0,0,1.74,1.8c1.51,0,1.69-1.25,1.65-2.46Z"/><path class="cls-4" d="M418.07,409.32V411h-9.92v-1.67Z"/><path class="cls-4" d="M413.11,422.78c-2.85,0-5.19-1.73-5.19-4.59s2.34-4.58,5.19-4.58,5.19,1.73,5.19,4.58S415.93,422.78,413.11,422.78Zm0-7.5c-1.9,0-3.78.86-3.78,2.91s1.88,2.92,3.78,2.92,3.78-.86,3.78-2.92S415,415.28,413.11,415.28Z"/><path class="cls-4" d="M393.43,415.78a2.3,2.3,0,0,0,2-2.39c0-2.05-1.88-2.91-3.78-2.91s-3.77.86-3.77,2.91c0,1.51,1.15,2.3,2.59,2.44v1.64a4,4,0,0,1-4-4.08c0-2.85,2.35-4.58,5.19-4.58s5.2,1.73,5.2,4.58a3.77,3.77,0,0,1-3.39,4.07Z"/><path class="cls-4" d="M396.58,420.07v1.68h-4.51l4.51,4.26v2.07l-4-3.82-6,4.09v-2.09l4.74-3.14-1.4-1.37h-3.34v-1.68Z"/><path class="cls-4" d="M364.38,417.67V416.6l1.17-.26a3.37,3.37,0,0,1-1.4-2.88c0-2.86,2.34-4.59,5.19-4.59s5.19,1.73,5.19,4.59a3.8,3.8,0,0,1-3.39,4.1v-1.63a2.32,2.32,0,0,0,2-2.47c0-2-1.88-2.91-3.78-2.91s-3.78.86-3.78,2.91a2.47,2.47,0,0,0,2.72,2.68v-2.55h1.32v4.08Z"/><path class="cls-4" d="M374.3,418.09v1.77L367,424.23v0h7.31v1.59h-9.92v-1.77l7.29-4.36v0h-7.29v-1.59Z"/><path class="cls-4" d="M374.3,426.5v4c0,2.95-2.23,4.22-5,4.22s-5-1.27-5-4.22v-4Zm-8.5,1.67v1.65c0,2.63,1.54,3.2,3.54,3.2s3.54-.57,3.54-3.2v-1.65Z"/><path class="cls-4" d="M504.15,397.71h1.11l.26,1.12a3.63,3.63,0,0,1,3-1.35,5,5,0,0,1,0,10c-2.15,0-4-1.11-4.25-3.27H506a2.36,2.36,0,0,0,2.56,1.9c2.12,0,3-1.81,3-3.65s-.89-3.64-3-3.64a2.47,2.47,0,0,0-2.78,2.63h2.64v1.27h-4.22Z"/><path class="cls-4" d="M503.44,407.28h-1.83l-4.53-7h0v7H495.4v-9.57h1.84l4.51,7h0v-7h1.65Z"/><path class="cls-4" d="M494.46,407.28h-4.11c-3.05,0-4.37-2.14-4.37-4.79s1.32-4.78,4.37-4.78h4.11Zm-1.73-8.21H491c-2.72,0-3.3,1.49-3.3,3.42s.58,3.42,3.3,3.42h1.71Z"/><path class="cls-4" d="M513.74,385.55h-8v-1.44h3.15V376h1.74v8.13h3.13Z"/><path class="cls-4" d="M505.71,385.55h-2.45l-2.73-7.49h0l-2.67,7.49h-2.41V376h1.65v7.39h0l2.75-7.39h1.43l2.75,7.39h0V376h1.66Z"/><path class="cls-4" d="M493.31,379.17c0-1.46-1.12-2.05-2.51-2.05s-2.1.74-2.1,1.45a1.15,1.15,0,0,0,.82,1.18c.71.25,1.58.43,3,.79,1.71.43,2.19,1.43,2.19,2.43,0,1.93-1.83,2.81-3.62,2.81-2.06,0-3.81-1.06-3.81-3.06H489c.1,1.24.93,1.69,2.14,1.69.8,0,1.82-.28,1.82-1.24,0-.69-.48-1-1.18-1.24l-2.86-.73a2.55,2.55,0,0,1-1.93-2.45c0-2.14,2-3,3.94-3,2.26,0,4.1,1.05,4.14,3.42Z"/><path class="cls-4" d="M483.94,385.78h-1.51l4-10h1.52Z"/><path class="cls-4" d="M482.79,385.55h-1.73V376h1.73Z"/><path class="cls-4" d="M471.07,380.77a4.76,4.76,0,1,1,4.75,5A4.7,4.7,0,0,1,471.07,380.77Zm7.76,0c0-1.84-.88-3.65-3-3.65s-3,1.81-3,3.65.89,3.64,3,3.64S478.83,382.6,478.83,380.77Z"/><path class="cls-4" d="M510.69,360.52c-1.06,0-2.15.32-2.15,1.48a1.36,1.36,0,0,0,1.51,1.33,1.68,1.68,0,0,0,1.61-1.92h1.58A3.11,3.11,0,0,1,510,364.6c-1.51,0-3.07-.85-3.07-2.51a2,2,0,0,1,1.38-2v0a2.2,2.2,0,0,1-1.77-2.34c0-1.77,1.6-2.88,3.45-2.88a3.08,3.08,0,0,1,3.41,3.28h-1.58a1.76,1.76,0,0,0-1.83-2,1.67,1.67,0,0,0-1.86,1.68c0,1.46,1.29,1.63,2.54,1.59Z"/><path class="cls-4" d="M504.54,364.6h-1.8L500.25,357h0l-2.54,7.58h-1.76l3.39-9.58h1.93Z"/><path class="cls-4" d="M491.16,360.52c-1.06,0-2.15.32-2.15,1.48a1.36,1.36,0,0,0,1.51,1.33,1.68,1.68,0,0,0,1.61-1.92h1.58a3.1,3.1,0,0,1-3.22,3.19c-1.51,0-3.07-.85-3.07-2.51a2,2,0,0,1,1.38-2v0a2.19,2.19,0,0,1-1.76-2.34c0-1.77,1.59-2.88,3.44-2.88a3.08,3.08,0,0,1,3.41,3.28h-1.58a1.75,1.75,0,0,0-1.83-2,1.67,1.67,0,0,0-1.86,1.68c0,1.46,1.29,1.63,2.54,1.59Z"/><path class="cls-4" d="M512.15,342.88h-5v-1.37H511l.5-2.39,0,0a2.49,2.49,0,0,1-1.79.72,2.9,2.9,0,0,1-3-3.14A3.24,3.24,0,0,1,510,333.3c1.87,0,3.33,1,3.4,2.86h-1.58a1.64,1.64,0,0,0-1.8-1.59c-1.34,0-1.8.93-1.8,2.07a1.78,1.78,0,0,0,1.85,2,1.52,1.52,0,0,0,1.56-.86h1.59Z"/><path class="cls-4" d="M504.54,343.06h-1.8l-2.49-7.57h0l-2.54,7.57h-1.76l3.39-9.57h1.93Z"/><ellipse class="cls-23" cx="434.51" cy="444.73" rx="6.9" ry="6.67"/><ellipse class="cls-4" cx="434.51" cy="444.73" rx="4.07" ry="3.93"/><ellipse class="cls-23" cx="412.38" cy="444.73" rx="6.9" ry="6.67"/><ellipse class="cls-4" cx="412.38" cy="444.73" rx="4.07" ry="3.93"/><ellipse class="cls-23" cx="390.24" cy="444.73" rx="6.9" ry="6.67"/><ellipse class="cls-4" cx="390.24" cy="444.73" rx="4.07" ry="3.93"/><rect class="cls-23" x="362.16" y="438.53" width="13.36" height="12.91" transform="translate(737.69 889.97) rotate(180)"/><ellipse class="cls-4" cx="368.94" cy="445.21" rx="4.89" ry="4.73"/><rect class="cls-23" x="163.18" y="403.31" width="18.73" height="13.07" rx="6.54" transform="translate(345.09 819.7) rotate(-180)"/><rect class="cls-4" x="166.61" y="405.71" width="11.87" height="8.28" rx="4.14" transform="translate(345.09 819.7) rotate(-180)"/><rect class="cls-23" x="163.18" y="383.19" width="18.73" height="13.07" rx="6.54" transform="translate(345.09 779.45) rotate(-180)"/><rect class="cls-4" x="166.61" y="385.58" width="11.87" height="8.28" rx="4.14" transform="translate(345.09 779.45) rotate(-180)"/><rect class="cls-23" x="163.23" y="363.79" width="18.73" height="13.07" rx="6.54" transform="translate(345.19 740.65) rotate(-180)"/><rect class="cls-4" x="166.66" y="366.18" width="11.87" height="8.28" rx="4.14" transform="translate(345.19 740.65) rotate(-180)"/><rect class="cls-23" x="163.23" y="343.94" width="18.73" height="13.07" rx="6.54" transform="translate(345.19 700.95) rotate(-180)"/><rect class="cls-4" x="166.66" y="346.33" width="11.87" height="8.28" rx="4.14" transform="translate(345.19 700.95) rotate(180)"/><rect class="cls-4" x="137.15" y="323.78" width="33.36" height="13.27" rx="6.63" transform="translate(307.65 660.83) rotate(180)"/><rect class="cls-4" x="137.15" y="423.75" width="33.36" height="13.27" rx="6.63" transform="translate(307.65 860.77) rotate(180)"/><path class="cls-4" d="M272,332.44v1.38h-1l0,0a2.37,2.37,0,0,1,1.21,2.06,2.12,2.12,0,0,1-2.33,2.35h-4.71V336.8h4.31c1.08,0,1.54-.42,1.54-1.3a1.65,1.65,0,0,0-1.8-1.6h-4.05v-1.46Z"/><path class="cls-4" d="M266.65,345.34c-.37,0-.52.08-.52.35v.15a.82.82,0,0,0,0,.21h-1.05a3.56,3.56,0,0,1-.17-.92c0-.61.21-1,.83-1.13a3.35,3.35,0,0,1-.83-2.3,2,2,0,0,1,2-2.26c1.71,0,2,1.32,2.14,2.55.21,1.06.06,2,1,2s.93-.79.93-1.37c0-.82-.34-1.4-1.09-1.46v-1.46c1.77.1,2.28,1.54,2.28,3,0,1.3-.54,2.65-2,2.65Zm1.91-1.46a4.91,4.91,0,0,1-.41-1.79c-.11-.63-.35-1.19-1.14-1.19s-.88.83-.88,1.34.35,1.64,1.3,1.64Z"/><path class="cls-4" d="M272,346.92v1.38h-1l0,0a2.37,2.37,0,0,1,1.21,2.06,2.12,2.12,0,0,1-2.33,2.35h-4.71v-1.47h4.31c1.08,0,1.54-.42,1.54-1.29a1.65,1.65,0,0,0-1.8-1.6h-4.05v-1.46Z"/><path class="cls-4" d="M268.56,354a3.35,3.35,0,1,1,0,6.69c-2.11,0-3.62-1.23-3.62-3.34S266.45,354,268.56,354Zm0,5.23c1.18,0,2.41-.57,2.41-1.88s-1.23-1.89-2.41-1.89-2.43.58-2.43,1.89S267.36,359.19,268.56,359.19Z"/><path class="cls-4" d="M274.59,362.07v3.8c0,2.82-2.12,4-4.73,4s-4.74-1.21-4.74-4v-3.8Zm-8.11,1.6v1.58c0,2.51,1.47,3.05,3.38,3.05s3.38-.54,3.38-3.05v-1.58Z"/><path class="cls-4" d="M274.59,373.77v1.7L265.12,379v-1.72l2.51-.86v-3.65l-2.51-.86v-1.65Zm-5.7-.56V376l4.07-1.37v0Z"/><path class="cls-4" d="M274.59,379.87v4c0,2.62-1.75,3.12-2.93,3.12s-2.9-.5-2.9-3.12v-2.43h-3.64v-1.6Zm-4.48,1.6v2.34a1.48,1.48,0,0,0,1.56,1.61,1.39,1.39,0,0,0,1.57-1.58v-2.37Z"/><path class="cls-24" d="M297.55,345a3.12,3.12,0,1,1-3.37,3.11A3,3,0,0,1,297.55,345Zm0,4.87c1.1,0,2.25-.54,2.25-1.76s-1.15-1.75-2.25-1.75-2.26.53-2.26,1.75S296.44,349.91,297.55,349.91Z"/><path class="cls-24" d="M300.74,352.68V354h-.87v0a2,2,0,0,1,1,1.91c0,1.94-1.52,2.89-3.39,2.89s-3.34-.85-3.34-2.67a2.37,2.37,0,0,1,1-2.06v0H292v-1.36Zm-.94,3c0-1.15-.89-1.73-2.26-1.73s-2.25.63-2.25,1.73,1.14,1.7,2.25,1.7S299.8,356.84,299.8,355.72Z"/><path class="cls-24" d="M297.18,361.23a1.68,1.68,0,0,0-1.89,1.66,1.43,1.43,0,0,0,1.07,1.51v1.28a2.71,2.71,0,0,1-2.18-2.79c0-1.94,1.39-3,3.36-3a3,3,0,1,1-.36,5.9Zm.93,3.18a1.59,1.59,0,1,0,0-3.18Z"/><path class="cls-24" d="M300.74,367.05v1.28h-.94l0,0a2.22,2.22,0,0,1,1.13,1.92,2,2,0,0,1-2.17,2.18h-4.38V371.1h4c1,0,1.43-.39,1.43-1.2a1.53,1.53,0,0,0-1.68-1.49h-3.76v-1.36Z"/><path class="cls-24" d="M296.41,378.72c-.83.08-1.12.67-1.12,1.39,0,.53.12,1.41.84,1.38s.83-1,1.07-2,.59-2,1.88-2,1.83,1.45,1.83,2.58-.53,2.42-2,2.57v-1.42c.68-.13.85-.64.85-1.25,0-.39-.1-1.12-.65-1.12s-.81,1-1,2-.6,2-1.86,2c-1.52,0-2.08-1.48-2.08-2.76,0-1.56.72-2.7,2.23-2.73Z"/><path class="cls-24" d="M297.55,383.84a3.12,3.12,0,1,1-3.37,3.11A3,3,0,0,1,297.55,383.84Zm0,4.87c1.1,0,2.25-.54,2.25-1.76s-1.15-1.75-2.25-1.75-2.26.54-2.26,1.75S296.44,388.71,297.55,388.71Z"/><path class="cls-24" d="M294.36,396.86v-1.34h.89v0a2.07,2.07,0,0,1-1.07-1.76c0-1.62.83-2.3,2.51-2.3h4.05v1.36h-3.91c-1.13,0-1.54.43-1.54,1.18,0,1.14.76,1.52,1.75,1.52h3.7v1.36Z"/><path class="cls-24" d="M300.74,398.53v1.28H299.5v0a2,2,0,0,1,1.41,1.8,2.37,2.37,0,0,1,0,.52h-1.35a3.93,3.93,0,0,0,.06-.59c0-.92-.77-1.67-2.19-1.67h-3v-1.36Z"/><path class="cls-24" d="M298.6,406.92a1.3,1.3,0,0,0,1.2-1.41c0-.7-.39-1.69-2.32-1.69-1.06,0-2.19.45-2.19,1.63a1.48,1.48,0,0,0,1.46,1.47v1.36a2.68,2.68,0,0,1-2.57-2.83c0-1.93,1.42-3,3.3-3s3.43,1,3.43,3a2.52,2.52,0,0,1-2.31,2.78Z"/><path class="cls-24" d="M297.18,410.69a1.68,1.68,0,0,0-1.89,1.66,1.43,1.43,0,0,0,1.07,1.51v1.28a2.71,2.71,0,0,1-2.18-2.79c0-1.94,1.39-3,3.36-3a3,3,0,1,1-.36,5.9Zm.93,3.18a1.59,1.59,0,1,0,0-3.18Z"/><path class="cls-24" d="M292.7,354.3v1.36h-3.27v0a2.15,2.15,0,0,1,1,1.85,2,2,0,0,1-2.18,2.18h-4.38v-1.36h4c1,0,1.43-.39,1.43-1.2a1.54,1.54,0,0,0-1.67-1.5h-3.77V354.3Z"/><path class="cls-24" d="M285.31,366.56c-.35,0-.48.07-.48.32V367a1.37,1.37,0,0,0,0,.19h-1a3.18,3.18,0,0,1-.16-.86.91.91,0,0,1,.78-1.05,3.08,3.08,0,0,1-.78-2.14,1.89,1.89,0,0,1,1.86-2.11c1.59,0,1.85,1.23,2,2.37s.06,1.85.9,1.85.86-.74.86-1.27c0-.77-.32-1.3-1-1.36v-1.36c1.64.09,2.13,1.43,2.13,2.8,0,1.21-.51,2.47-1.86,2.47Zm1.78-1.36a4.51,4.51,0,0,1-.38-1.67c-.1-.58-.33-1.11-1.07-1.11s-.81.78-.81,1.25.32,1.53,1.21,1.53Z"/><path class="cls-24" d="M290.27,368.27v1.28H289v0a2,2,0,0,1,1.41,1.8,3.25,3.25,0,0,1,0,.51h-1.36a2.86,2.86,0,0,0,.06-.58c0-.92-.76-1.67-2.18-1.67h-3v-1.36Z"/><path class="cls-24" d="M283.89,378.31V377h.86v0a2,2,0,0,1-1-1.91c0-1.94,1.49-2.88,3.4-2.88,2.33,0,3.33,1.32,3.33,2.67a2.37,2.37,0,0,1-1,2.05v0h3.25v1.37Zm.94-3.05c0,1.21,1.15,1.73,2.26,1.73,1.42,0,2.24-.65,2.24-1.7,0-1.28-1.18-1.73-2.32-1.73S284.83,374.08,284.83,375.26Z"/><path class="cls-24" d="M290.27,379.46v1.45l-4.76,1.2v0l4.76,1.15v1.38l-4.76,1.11v0l4.76,1.25v1.39l-6.38-1.94v-1.39l4.74-1.15v0l-4.74-1.13v-1.44Z"/><path class="cls-24" d="M285.31,394.72c-.35,0-.48.07-.48.32v.14a1.37,1.37,0,0,0,0,.19h-1a3,3,0,0,1-.16-.86.91.91,0,0,1,.78-1.05,3,3,0,0,1-.78-2.13,1.89,1.89,0,0,1,1.86-2.11c1.59,0,1.85,1.22,2,2.37.2,1,.06,1.85.9,1.85s.86-.74.86-1.28c0-.76-.32-1.3-1-1.36v-1.36c1.64.1,2.13,1.43,2.13,2.81,0,1.2-.51,2.47-1.86,2.47Zm1.78-1.36a4.56,4.56,0,0,1-.38-1.67c-.1-.59-.33-1.11-1.07-1.11s-.81.77-.81,1.25.32,1.53,1.21,1.53Z"/><path class="cls-24" d="M290.27,396.42v1.28H289v0a2,2,0,0,1,1.41,1.8,3.25,3.25,0,0,1,0,.51h-1.36a2.86,2.86,0,0,0,.06-.58c0-.92-.76-1.67-2.18-1.67h-3v-1.37Z"/><path class="cls-24" d="M286.72,401.71a1.68,1.68,0,0,0-1.89,1.66,1.42,1.42,0,0,0,1.06,1.5v1.29a2.71,2.71,0,0,1-2.17-2.79c0-1.94,1.38-3,3.36-3a3,3,0,1,1-.36,5.9Zm.92,3.18a1.59,1.59,0,1,0,0-3.18Z"/><path class="cls-4" d="M272.1,396.15v1.68l-5.57,1.78v0l5.57,1.71v1.6l-7.25-2.51V398.7Z"/><path class="cls-4" d="M264.85,412V405.5a4.39,4.39,0,0,1,3.72,2.09c.94,1.23,1.7,2.82,3.23,2.86a1.54,1.54,0,0,0,1.74-1.6c0-1.22-1.07-1.59-2.46-1.63v-1.55c2.18,0,3.79,1.16,3.79,3.27a2.87,2.87,0,0,1-3,3.05c-3.14,0-3.82-4.12-5.57-4.64V412Z"/><path class="cls-4" d="M266.74,415.35v1.88h-1.89v-1.88Z"/><path class="cls-4" d="M270.6,423.18c0,1,.34,2.1,1.55,2.1a1.36,1.36,0,0,0,1.39-1.48c0-1.07-1-1.61-2-1.57v-1.55a3.15,3.15,0,0,1,3.34,3.15,2.74,2.74,0,0,1-2.63,3,2,2,0,0,1-2.1-1.35h0a2.28,2.28,0,0,1-2.46,1.73,3.11,3.11,0,0,1-3-3.37c0-2.19,1.36-3.29,3.43-3.33v1.54a1.8,1.8,0,0,0-2.1,1.79,1.69,1.69,0,0,0,1.76,1.82c1.53,0,1.71-1.26,1.67-2.48Z"/><path class="cls-24" d="M308.84,371.11l12.34,5a8.88,8.88,0,0,1,7.89-4.75,8.68,8.68,0,1,1,0,17.36,8.86,8.86,0,0,1-8-5.05l-12.42,5.58a22.1,22.1,0,0,0,1.34,2.55l-3.4,5.38,4.95,5,5.49-3.16a23,23,0,0,0,7.4,3.18l1.6,6.11,7.15.08,1.5-6a23,23,0,0,0,7.53-2.88l5.64,3.17,5.06-4.89-3.39-5.24a21.37,21.37,0,0,0,2.62-5.37l6.41-1.15.54-6.89-6.12-1.84a21,21,0,0,0-2.49-7.44l3.64-5.24-4.73-5.18-5.63,2.93a22.81,22.81,0,0,0-7.25-3.49l-1.32-6.17-7.14-.36-1.77,5.94a23.19,23.19,0,0,0-7.65,2.56l-5.49-3.39-5.27,4.67,3.15,5.37A21.53,21.53,0,0,0,308.84,371.11Z"/><g id="RAK-only-gray"><g class="cls-25"><g class="cls-26"><path class="cls-27" d="M214.54,333.86a3.81,3.81,0,0,1-1.39.28c-.62,0-2.5.07-3,.08,0,.6.07,1.38.07,1.9s0,2.25.1,4.78v.16a2.3,2.3,0,0,0,2.24,2.4c1.73.17,2.15-.74,2.17-.78a9,9,0,0,0,.68-3.74c0-.2,0-.41,0-.62a23.93,23.93,0,0,0-.82-4.46"/><path class="cls-27" d="M216.53,331a3.22,3.22,0,0,1-.27,1,3.88,3.88,0,0,1-.78,1.25,22,22,0,0,1,1,4.79c0,.31,0,.64,0,.95a11.41,11.41,0,0,1-.48,3.38,5.69,5.69,0,0,0,.5.52,2.54,2.54,0,0,0,1.29.64,2.89,2.89,0,0,0,2-.27c.57-.29.86-1.05.86-2.24,0-.16,0-.34,0-.54s0-.5,0-.8a11.27,11.27,0,0,0-.78-4.07,13.79,13.79,0,0,0-3.37-4.63"/><path class="cls-27" d="M216.61,325.33a4.07,4.07,0,0,1-.31,1.63,4.15,4.15,0,0,1-.94,1.18,3.12,3.12,0,0,1,.47.39,2.9,2.9,0,0,1,.55.93,25.58,25.58,0,0,1,2.07,2,13.34,13.34,0,0,1,2.92,5,11.66,11.66,0,0,1,.49,3.59,16.69,16.69,0,0,1-.1,1.84,3.23,3.23,0,0,0,2.31,1.32c1.89,0,2.34-.7,2.49-3.78a14.6,14.6,0,0,0-3.64-9.82,16.7,16.7,0,0,0-6.31-4.25"/><path class="cls-27" d="M209.15,338.4c-.54,0-1.41.08-2,.08-.76,0-3.44,0-4.58.08h-.54a2.34,2.34,0,0,0-2.47,2.17,2.69,2.69,0,0,0,0,.4c0,1.35.82,1.69.83,1.69a10.53,10.53,0,0,0,4.51.65,25.94,25.94,0,0,0,4.62-.8,3.69,3.69,0,0,1-.3-1.34c0-.25,0-.95-.07-2.94"/><path class="cls-27" d="M200.68,344.09a6.07,6.07,0,0,0-.54.48,2.49,2.49,0,0,0-.66,1.24,3.14,3.14,0,0,0-.07.65,2.65,2.65,0,0,0,.35,1.3c.3.55,1.08.83,2.32.83h.56a12.79,12.79,0,0,0,5-.74,14.23,14.23,0,0,0,4.78-3.26,3.75,3.75,0,0,1-1.05-.26,4.13,4.13,0,0,1-1.3-.75,25.74,25.74,0,0,1-5,.92,13.54,13.54,0,0,1-4.48-.43"/><path class="cls-27" d="M201.24,349.67a3,3,0,0,0-1.36,2.19c0,1.86.72,2.29,3.9,2.45a15.81,15.81,0,0,0,10.16-3.53,16.21,16.21,0,0,0,4.4-6.09,4.45,4.45,0,0,1-1.68-.3,4.32,4.32,0,0,1-1.22-.91,3.34,3.34,0,0,1-.41.45,2.88,2.88,0,0,1-1,.54c-.34.37-1.18,1.25-2,2a14.16,14.16,0,0,1-5.18,2.82,16.3,16.3,0,0,1-5.62.38"/><path class="cls-27" d="M204.78,337.5c0-.45-.08-1.33-.08-1.9s0-2.11-.09-4.69v-.25a2.32,2.32,0,0,0-2.25-2.4c-1.72-.17-2.14.74-2.16.78a9.59,9.59,0,0,0-.67,4.36,23.93,23.93,0,0,0,.82,4.46,4,4,0,0,1,1.39-.28l3-.08Z"/><path class="cls-27" d="M198.89,329.32a4.56,4.56,0,0,0-.49-.52,2.58,2.58,0,0,0-1.29-.64,2.89,2.89,0,0,0-2,.27c-.57.29-.86,1.05-.86,2.24,0,.16,0,.33,0,.52s0,.52,0,.81a11.16,11.16,0,0,0,.79,4.08,13.78,13.78,0,0,0,3.36,4.63,3.86,3.86,0,0,1,.27-1,4,4,0,0,1,.78-1.25,23.48,23.48,0,0,1-1-4.79c0-.31,0-.64,0-1a11.82,11.82,0,0,1,.48-3.37"/><path class="cls-27" d="M193.12,329.86a3.21,3.21,0,0,0-2.3-1.32c-1.9,0-2.34.7-2.5,3.78,0,.17,0,.36,0,.54a14.87,14.87,0,0,0,3.66,9.28,16.75,16.75,0,0,0,6.3,4.25,4.15,4.15,0,0,1,.31-1.63,4.32,4.32,0,0,1,.95-1.18,3.24,3.24,0,0,1-.47-.39,2.77,2.77,0,0,1-.56-.93,28.27,28.27,0,0,1-2.07-2,13.39,13.39,0,0,1-2.92-5,11.68,11.68,0,0,1-.48-3.59,17.78,17.78,0,0,1,.09-1.84"/><path class="cls-27" d="M215.29,330.55c0-1.33-.79-1.67-.83-1.68a10.31,10.31,0,0,0-4.5-.65,26.49,26.49,0,0,0-4.62.79,3.53,3.53,0,0,1,.29,1.35c0,.28,0,1,.08,2.93.44,0,1.37-.07,2-.07s2.26,0,4.94-.09h.18a2.35,2.35,0,0,0,2.47-2.17,2.82,2.82,0,0,0,0-.41"/><path class="cls-27" d="M215.45,325.23a2.61,2.61,0,0,0-.35-1.29c-.31-.55-1.09-.83-2.32-.83l-.56,0a12.4,12.4,0,0,0-5,.74,14.39,14.39,0,0,0-4.79,3.25,4.48,4.48,0,0,1,1.05.26,4.05,4.05,0,0,1,1.3.76,24.79,24.79,0,0,1,5-.92,13.52,13.52,0,0,1,4.47.42,3.86,3.86,0,0,0,.55-.47,2.43,2.43,0,0,0,.65-1.25,2.51,2.51,0,0,0,.08-.65"/><path class="cls-27" d="M215,319.8c0-1.83-.72-2.26-3.9-2.41a15.82,15.82,0,0,0-10.17,3.52,16.22,16.22,0,0,0-4.4,6.1,3.55,3.55,0,0,1,2.91,1.21,3.11,3.11,0,0,1,.41-.46,2.91,2.91,0,0,1,.95-.53,27.94,27.94,0,0,1,2-2,14,14,0,0,1,5.19-2.82,16,16,0,0,1,5.62-.38,3,3,0,0,0,1.36-2.2Z"/><path class="cls-27" d="M220.77,380.7a8,8,0,0,1-.57,3.1,7.24,7.24,0,0,1-1.58,2.37,6.89,6.89,0,0,1-2.32,1.51,7.62,7.62,0,0,1-2.84.52,8.25,8.25,0,0,1-4.05-.95,6,6,0,0,1-2.6-3.11h-.08a4.33,4.33,0,0,1-.91,1.73,5.13,5.13,0,0,1-1.45,1.11,6.66,6.66,0,0,1-1.84.63,17.14,17.14,0,0,1-2,.27L199,388q-.85,0-1.74.12a12.54,12.54,0,0,0-1.7.29,4,4,0,0,0-1.35.59v-5.63a10.51,10.51,0,0,1,3-.58c1.16-.07,2.28-.18,3.34-.32a5.39,5.39,0,0,0,3.05-1.22,4.12,4.12,0,0,0,1-3.05v-5.64H194.25v-5.64h26.52Zm-12-2a4.11,4.11,0,0,0,.9,2.9,3.75,3.75,0,0,0,2.89,1,3.6,3.6,0,0,0,2.81-1,4.21,4.21,0,0,0,.87-2.9v-6.18h-7.47Z"/><path class="cls-27" d="M220.77,404.94l-26.52,9.59v-5.85l5.91-1.94v-9.59l-5.91-2v-5.67l26.52,9.69Zm-16.27.33,9.74-3.23V402l-9.74-3.33Z"/><polygon class="cls-27" points="220.78 421.38 209.78 421.38 220.78 431.4 220.78 438.43 210.3 428.42 194.25 439.4 194.25 432.33 206.18 424.61 202.79 421.38 194.25 421.38 194.25 415.75 220.78 415.75 220.78 421.38"/><path class="cls-27" d="M217.3,447.07a3.45,3.45,0,1,1,3.47-3.43,3.43,3.43,0,0,1-3.47,3.43m0-6a2.65,2.65,0,0,0-2.77,2.62,2.62,2.62,0,0,0,2.75,2.55,2.59,2.59,0,1,0,0-5.17m-1.81,2.06v-.77H219a6.85,6.85,0,0,1,.1,1.29,2,2,0,0,1-.25,1.16,1,1,0,0,1-.77.33.88.88,0,0,1-.8-.7h0a1,1,0,0,1-.85.62,2.61,2.61,0,0,0-.86.24v-.84a3,3,0,0,1,.84-.26c.38-.06.55-.27.55-.7v-.37Zm2,0v.37c0,.43.15.78.51.78s.53-.23.53-.72a2,2,0,0,0,0-.43Z"/></g></g></g><rect class="cls-28" x="0.13" y="329.68" width="132.37" height="100.23" transform="translate(132.64 759.58) rotate(180)"/><rect class="cls-29" y="330.58" width="132.64" height="5.51" transform="translate(132.64 666.66) rotate(180)"/><rect class="cls-4" x="43.41" y="395.33" width="19.7" height="21.92" rx="4.4" transform="translate(106.51 812.58) rotate(180)"/><rect class="cls-4" x="43.41" y="345.15" width="19.7" height="21.92" rx="4.4" transform="translate(106.51 712.23) rotate(180)"/><path class="cls-29" d="M17.22,378.64a1.23,1.23,0,0,1,0,1.27,1.33,1.33,0,0,1-1.15.64H.13v1.5H16.05a2.88,2.88,0,0,0,2.49-1.37,2.68,2.68,0,0,0,0-2.77l-1.71-3a1.23,1.23,0,0,1,0-1.27A1.32,1.32,0,0,1,18,373H34.65a1.33,1.33,0,0,1,1.17.67,1.26,1.26,0,0,1,0,1.31l-1.65,2.45A2.65,2.65,0,0,0,34,380.3a2.84,2.84,0,0,0,2.53,1.46H85.41A2.87,2.87,0,0,0,88,380.17a2.7,2.7,0,0,0-.37-3l-1.93-2.28a1.22,1.22,0,0,1-.17-1.36,1.3,1.3,0,0,1,1.2-.74h17.74a1.33,1.33,0,0,1,1.19.71,1.23,1.23,0,0,1-.12,1.34l-1.72,2.25a2.72,2.72,0,0,0-.25,2.92,2.91,2.91,0,0,0,2.58,1.53h26.47v-1.5H106.17a1.33,1.33,0,0,1-1.19-.71,1.23,1.23,0,0,1,.12-1.34l1.72-2.26a2.72,2.72,0,0,0,.25-2.91,2.89,2.89,0,0,0-2.58-1.53H86.75a2.87,2.87,0,0,0-2.61,1.59,2.72,2.72,0,0,0,.37,3l1.93,2.28a1.2,1.2,0,0,1,.17,1.36,1.3,1.3,0,0,1-1.2.74H36.54a1.32,1.32,0,0,1-1.17-.68,1.24,1.24,0,0,1,.06-1.31l1.64-2.45a2.67,2.67,0,0,0,.12-2.85,2.87,2.87,0,0,0-2.54-1.46H18a2.87,2.87,0,0,0-2.49,1.37,2.68,2.68,0,0,0,0,2.77Z"/><line class="cls-30" x1="1246.09" y1="753.79" x2="1162.65" y2="753.79"/><circle cx="1245.11" cy="753.36" r="5.89"/><line class="cls-31" x1="1246.41" y1="539.37" x2="1162.97" y2="539.37"/><circle class="cls-32" cx="1245.43" cy="538.93" r="5.89"/><line class="cls-33" x1="1246.41" y1="478.27" x2="1162.97" y2="478.27"/><circle class="cls-34" cx="1245.43" cy="477.83" r="5.89"/><line class="cls-35" x1="1246.41" y1="509.47" x2="1162.97" y2="509.47"/><circle class="cls-36" cx="1245.43" cy="509.03" r="5.89"/><g class="cls-3"><g class="cls-3"><path class="cls-37" d="M237.63,0h22.1c7.91,0,14.67,3.85,14.67,12.57,0,6.15-3.18,11-9.39,12.31V25c6.28.88,8.11,5.07,8.45,10.88.2,3.32.2,10,2.23,12.37h-5.07c-1.08-1.82-1.08-5.47-1.29-7.5-.34-6.76-1-14.26-9.66-13.92H242.23V48.26h-4.6Zm4.6,22.92H259.4c5.61,0,10.41-3.52,10.41-9.4s-3.45-9.6-10.41-9.6H242.23Z"/><path class="cls-37" d="M296.84,0H302l18.93,48.26H316l-5.88-15h-22l-5.81,15h-4.93Zm-7.3,29.34h19L299.21,4.6Z"/><path class="cls-37" d="M325.3,0h4.6V26L358,0h6.22L342.61,19.94l22.58,28.32h-5.95L339.16,23.12,329.9,31.7V48.26h-4.6Z"/></g><g class="cls-3"><path class="cls-37" d="M383.11,0c11.76,0,15.82,8.11,15.82,12.71s-2.37,8.38-6.89,9.93v.14c5.67,1.28,8.85,5.61,8.85,11.56,0,10-8.85,14.87-17.71,14.87-9.13,0-18-4.6-18-14.8,0-6,3.31-10.28,8.92-11.63v-.14c-4.59-1.28-7-5.07-7-9.73C367.16,4.39,375.41,0,383.11,0Zm.07,42a7.78,7.78,0,0,0,8.11-8c0-4.53-3.65-7.57-8.11-7.57-4.66,0-8.38,2.64-8.38,7.5S378.58,42,383.18,42Zm-.07-22c4,0,7.1-2.16,7.1-6.22,0-2.43-1.15-6.56-7.1-6.56-3.85,0-7.23,2.3-7.23,6.56C375.88,17.85,379.26,20,383.11,20Z"/><path class="cls-37" d="M428.34,48.26h-9.6V17.57h-11.9V10.34c6.69.2,12.78-2.16,13.86-9.39h7.64Z"/><path class="cls-37" d="M465.92,48.26h-9.6V17.57h-11.9V10.34c6.7.2,12.78-2.16,13.86-9.39h7.64Z"/><path class="cls-37" d="M500.46,0h22.72c9.19,0,15.41,3,15.41,12,0,4.8-2.3,8-6.56,10.08,6,1.69,8.86,6.21,8.86,12.23,0,9.8-8.32,14-17,14H500.46Zm10.62,19.54h10.74c3.79,0,6.49-1.69,6.49-5.75,0-4.53-3.51-5.54-7.3-5.54h-9.93Zm0,20.48h11.35c4.13,0,7.84-1.35,7.84-6.36s-3-6.89-7.63-6.89H511.08Z"/><path class="cls-37" d="M547,13.32h9.12v6.49h.14a12.27,12.27,0,0,1,11.15-7.44,7.27,7.27,0,0,1,2.1.34v8.92a17.75,17.75,0,0,0-3.45-.34c-7.1,0-9.46,5-9.46,11.22V48.26H547Z"/><path class="cls-37" d="M581.24,33.12c.27,6.15,3.18,8.86,8.59,8.86,3.85,0,7-2.37,7.57-4.53h8.45c-2.71,8.31-8.45,11.76-16.36,11.76-11,0-17.85-7.57-17.85-18.39,0-10.47,7.24-18.45,17.85-18.45,11.9,0,17.71,10,17,20.75ZM596.86,27c-.88-4.87-3-7.44-7.64-7.44-6.22,0-7.77,4.73-8,7.44Z"/><path class="cls-37" d="M611.73,24.06c.54-8.92,8.58-11.69,16.43-11.69,7,0,15.34,1.55,15.34,9.94V40.49c0,3.18.34,6.35,1.22,7.77H635a13.78,13.78,0,0,1-.67-3.38c-3,3.18-7.44,4.33-11.77,4.33-6.69,0-11.89-3.31-11.89-10.48.13-15.88,23.66-7.37,23.25-15.21,0-4.05-2.84-4.73-6.22-4.73-3.72,0-6,1.49-6.35,5.27Zm22.17,7.1c-1.62,1.42-5,1.49-8,2s-5.67,1.62-5.67,5.14,2.77,4.46,5.88,4.46c7.5,0,7.77-5.88,7.77-8Z"/><path class="cls-37" d="M651.81,0h9.6V25.89l12.1-12.57h11.36L671.69,26.16l14.67,22.1H674.73l-9.6-15.61-3.72,3.58v12h-9.6Z"/><path class="cls-37" d="M706.7,12.37c11,0,18.12,7.3,18.12,18.45s-7.1,18.39-18.12,18.39-18.05-7.3-18.05-18.39S695.75,12.37,706.7,12.37Zm0,29.61c6.56,0,8.52-5.55,8.52-11.16s-2-11.22-8.52-11.22-8.45,5.61-8.45,11.22S700.21,42,706.7,42Z"/><path class="cls-37" d="M763.82,48.26H754.7V43.4h-.21a12.32,12.32,0,0,1-10.68,5.81c-10.2,0-12.77-5.75-12.77-14.4V13.32h9.6V33.05c0,5.75,1.62,8.59,6.15,8.59,5.2,0,7.43-2.91,7.43-10V13.32h9.6Z"/><path class="cls-37" d="M783.29,13.32h7v6.42h-7V37c0,3.25.81,4.06,4.06,4.06a13.66,13.66,0,0,0,3-.27v7.5a36.85,36.85,0,0,1-5.61.34c-6,0-11-1.29-11-8.32V19.74h-5.81V13.32h5.81V2.84h9.6Z"/><path class="cls-37" d="M814.72,0h22.72c9.19,0,15.41,3,15.41,12,0,4.8-2.3,8-6.56,10.08,6,1.69,8.86,6.21,8.86,12.23,0,9.8-8.32,14-17,14H814.72Zm10.61,19.54h10.75c3.79,0,6.49-1.69,6.49-5.75,0-4.53-3.51-5.54-7.3-5.54h-9.94Zm0,20.48h11.36c4.13,0,7.84-1.35,7.84-6.36s-3-6.89-7.64-6.89H825.33Z"/><path class="cls-37" d="M878.26,12.37c11,0,18.12,7.3,18.12,18.45s-7.1,18.39-18.12,18.39-18-7.3-18-18.39S867.31,12.37,878.26,12.37Zm0,29.61c6.56,0,8.52-5.55,8.52-11.16s-2-11.22-8.52-11.22-8.45,5.61-8.45,11.22S871.78,42,878.26,42Z"/><path class="cls-37" d="M902.19,24.06c.54-8.92,8.59-11.69,16.43-11.69,7,0,15.34,1.55,15.34,9.94V40.49c0,3.18.34,6.35,1.22,7.77h-9.73a14.28,14.28,0,0,1-.68-3.38c-3,3.18-7.44,4.33-11.76,4.33-6.69,0-11.9-3.31-11.9-10.48.14-15.88,23.66-7.37,23.26-15.21,0-4.05-2.84-4.73-6.22-4.73-3.72,0-6,1.49-6.36,5.27Zm22.18,7.1c-1.63,1.42-5,1.49-8,2s-5.68,1.62-5.68,5.14,2.77,4.46,5.88,4.46c7.5,0,7.78-5.88,7.78-8Z"/><path class="cls-37" d="M941.4,13.32h9.13v6.49h.13a12.28,12.28,0,0,1,11.15-7.44,7.27,7.27,0,0,1,2.1.34v8.92a17.75,17.75,0,0,0-3.45-.34c-7.09,0-9.46,5-9.46,11.22V48.26h-9.6Z"/><path class="cls-37" d="M992.64,43.8h-.14c-2.23,3.79-6.08,5.41-10.61,5.41-10.54,0-15.68-9-15.68-18.72,0-9.4,5.2-18.12,15.48-18.12,4.12,0,8.18,1.76,10.34,5.2h.13V0h9.6V48.26h-9.12Zm-8.38-24.2c-6.29,0-8.45,5.48-8.45,11.16,0,5.47,2.5,11.22,8.45,11.22,6.28,0,8.24-5.55,8.24-11.29S990.48,19.6,984.26,19.6Z"/></g></g><g class="cls-3"><path class="cls-37" d="M1025.43,1h21.42c8.66,0,14.33,5.06,14.33,13.78s-5.67,13.79-14.33,13.79H1030V49.21h-4.59ZM1030,24.6h15.82c6.42,0,10.75-3.17,10.75-9.87s-4.33-9.86-10.75-9.86H1030Z"/><path class="cls-37" d="M1067.27,1h4.26V7.77h-4.26Zm0,13.38h4.26V49.21h-4.26Z"/><path class="cls-37" d="M1079.64,14.33h4.26v6h.13c1.63-4.2,6.22-7,11.16-7,9.8,0,12.77,5.13,12.77,13.45V49.21h-4.26V27.44c0-6-2-10.54-8.85-10.54s-10.75,5.14-10.95,12V49.21h-4.26Z"/><path class="cls-37" d="M1147.24,31.77c0,10-5.88,18.45-16.5,18.45s-16.49-8.45-16.49-18.45,5.88-18.45,16.49-18.45S1147.24,21.76,1147.24,31.77Zm-28.73,0c0,7.37,4.12,14.87,12.23,14.87S1143,39.14,1143,31.77s-4.13-14.87-12.24-14.87S1118.51,24.4,1118.51,31.77Z"/><path class="cls-37" d="M1181.85,49.21h-3.92V42.92h-.14a13,13,0,0,1-12,7.3c-8.86,0-12.24-5.07-12.24-13.25V14.33h4.26V37c.21,6.29,2.57,9.6,9.33,9.6,7.3,0,10.48-6.89,10.48-14V14.33h4.26Z"/><path class="cls-37" d="M1196.65,14.33h7.1v3.58h-7.1V41.44c0,2.77.41,4.39,3.45,4.59a34.34,34.34,0,0,0,3.65-.2v3.65c-1.29,0-2.5.13-3.79.13-5.67,0-7.63-1.89-7.57-7.84V17.91h-6.08V14.33h6.08V3.85h4.26Z"/><path class="cls-37" d="M1229.5,1h16.7c14.6.33,22.17,8.17,22.17,24.13s-7.57,23.79-22.17,24.13h-16.7Zm4.6,44.34h9.8c13.86,0,19.88-5.75,19.88-20.21s-6-20.21-19.88-20.21h-9.8Z"/><path class="cls-37" d="M1275.06,1h4.26V7.77h-4.26Zm0,13.38h4.26V49.21h-4.26Z"/><path class="cls-37" d="M1287.1,25c.47-8.18,6.08-11.69,14.13-11.69,6.15,0,12.84,1.82,12.84,11.22V43.06a2.24,2.24,0,0,0,2.5,2.57,3.26,3.26,0,0,0,1.35-.27v3.58a12.17,12.17,0,0,1-2.77.27c-4.33,0-5-2.5-5-6.08H1310c-3,4.52-6,7.09-12.71,7.09-6.48,0-11.69-3.17-11.69-10.2,0-9.74,9.53-10.14,18.73-11.23,3.51-.33,5.47-.94,5.47-4.73,0-5.74-4.06-7.16-9.13-7.16-5.34,0-9.12,2.43-9.32,8.11Zm22.71,5.14h-.13c-.55,1-2.44,1.35-3.59,1.55-7.23,1.29-16.22,1.29-16.22,8.05,0,4.25,3.72,6.89,7.77,6.89,6.56,0,12.17-4.12,12.17-11Z"/><path class="cls-37" d="M1352.06,46.37c0,10.48-4.19,16.76-15.48,16.76-7,0-13.93-3.17-14.47-10.54h4.26c.88,5.14,5.54,7,10.21,7,7.91,0,11.22-4.6,11.22-13.18V41.64h-.14a11.91,11.91,0,0,1-11.08,7.16c-11.15,0-15.75-7.91-15.75-17.91,0-9.6,5.68-17.57,15.75-17.57a12.17,12.17,0,0,1,11.08,7h.14v-6h4.26Zm-4.26-15c0-6.82-3.11-14.46-11.22-14.46s-11.49,7.23-11.49,14.46c0,7,3.58,13.86,11.49,13.86C1344,45.22,1347.8,38.39,1347.8,31.36Z"/><path class="cls-37" d="M1360.17,14.33h3.92v8.18h.14a12.8,12.8,0,0,1,13.18-8.65v4.25c-7.71-.33-13,5.21-13,12.51V49.21h-4.26Z"/><path class="cls-37" d="M1381.06,25c.47-8.18,6.08-11.69,14.13-11.69,6.15,0,12.84,1.82,12.84,11.22V43.06a2.24,2.24,0,0,0,2.5,2.57,3.26,3.26,0,0,0,1.35-.27v3.58a12.17,12.17,0,0,1-2.77.27c-4.33,0-5-2.5-5-6.08H1404c-3,4.52-6,7.09-12.7,7.09-6.49,0-11.7-3.17-11.7-10.2,0-9.74,9.53-10.14,18.73-11.23,3.51-.33,5.47-.94,5.47-4.73,0-5.74-4.06-7.16-9.12-7.16-5.35,0-9.13,2.43-9.33,8.11Zm22.71,5.14h-.13c-.54,1-2.44,1.35-3.59,1.55-7.23,1.29-16.22,1.29-16.22,8.05,0,4.25,3.72,6.89,7.77,6.89,6.56,0,12.17-4.12,12.17-11Z"/><path class="cls-37" d="M1416.55,14.33h3.92v5.88h.2a12,12,0,0,1,11.42-6.89c4.6,0,8.72,2.23,10,6.82a11.79,11.79,0,0,1,11.08-6.82c7.71,0,11.56,4.05,11.56,12.23V49.21h-4.26V25.75c0-5.74-2.09-8.85-8.24-8.85-7.37,0-9.47,6.08-9.47,12.57V49.21h-4.25V25.55c0-4.73-1.83-8.65-7.3-8.65-7.3,0-10.41,5.54-10.41,12.84V49.21h-4.26Z"/></g><rect class="cls-38" x="1183.1" y="740.43" width="27.34" height="24.57" rx="3.63"/><polygon class="cls-38" points="1186.86 740.43 1158.32 740.43 1144.03 752.71 1158.32 765.01 1186.86 765.01 1201.16 752.71 1186.86 740.43"/><g class="cls-3"><path class="cls-4" d="M1169.71,758.43a4.48,4.48,0,0,1-3.68,1.84c-4.13,0-6.59-3.09-6.59-7s2.46-7.08,6.59-7.08c2.74,0,5.35,1.67,5.65,4.73h-2.81a2.74,2.74,0,0,0-2.84-2.26c-2.65,0-3.64,2.26-3.64,4.61s1,4.49,3.64,4.49a2.88,2.88,0,0,0,3.19-2.9h-3v-2.19h5.63V760H1170Z"/><path class="cls-4" d="M1174.27,746.54h2.93l5.6,9h0v-9h2.76V760h-2.95l-5.58-9h0v9h-2.76Z"/><path class="cls-4" d="M1188.18,746.54H1194c3.47,0,6.09,2.2,6.09,6.63,0,3.89-2,6.79-6.09,6.79h-5.79Zm3,10.94h2.63c1.71,0,3.35-1.06,3.35-4,0-2.71-1-4.44-3.87-4.44h-2.11Z"/></g><rect class="cls-34" x="1183.1" y="465.98" width="27.34" height="24.57" rx="3.63"/><polygon class="cls-34" points="1186.86 465.98 1158.32 465.98 1144.03 478.26 1158.32 490.56 1186.86 490.56 1201.16 478.26 1186.86 465.98"/><g class="cls-3"><path class="cls-4" d="M1166.26,485.5h-3.33l-4.36-13.41h3l3,9.43h0l3-9.43h3Z"/><path class="cls-4" d="M1180.79,476.6a2.93,2.93,0,0,0-2.93-2.35c-2.65,0-3.64,2.26-3.64,4.6s1,4.49,3.64,4.49c1.8,0,2.82-1.22,3-3h2.86a5.64,5.64,0,0,1-5.9,5.48c-4.13,0-6.59-3.1-6.59-7s2.46-7.08,6.59-7.08c2.93,0,5.43,1.73,5.78,4.83Z"/><path class="cls-4" d="M1194.7,476.6a2.92,2.92,0,0,0-2.93-2.35c-2.65,0-3.64,2.26-3.64,4.6s1,4.49,3.64,4.49c1.81,0,2.82-1.22,3-3h2.85a5.64,5.64,0,0,1-5.9,5.48c-4.13,0-6.59-3.1-6.59-7s2.46-7.08,6.59-7.08c2.93,0,5.43,1.73,5.79,4.83Z"/></g><rect class="cls-32" x="1108.66" y="526.31" width="101.78" height="24.57" rx="7"/><polygon class="cls-32" points="1124.51 526.32 1095.96 526.32 1081.67 538.59 1095.96 550.89 1124.51 550.89 1138.8 538.59 1124.51 526.32"/><rect class="cls-36" x="1114.11" y="496.15" width="96.34" height="24.57" rx="6.81"/><polygon class="cls-36" points="1124.27 496.15 1096.2 496.15 1082.14 508.42 1096.2 520.72 1124.27 520.72 1138.33 508.42 1124.27 496.15"/><g class="cls-3"><path class="cls-4" d="M1106.66,510.6c0,3.62-2.1,5.39-5.63,5.39s-5.61-1.73-5.61-5.39v-8.34h2.9v8.34c0,1.46.37,2.91,2.71,2.91,2.07,0,2.73-.91,2.73-2.91v-8.34h2.9Z"/><path class="cls-4" d="M1112.76,502.26h3l4.93,13.41h-3l-1-3h-4.92l-1,3h-2.93Zm-.28,8.22h3.42l-1.66-4.92h0Z"/><path class="cls-4" d="M1121.81,502.26h7.11a3.65,3.65,0,0,1,3.86,3.7,3.28,3.28,0,0,1-2.09,3.36v0c1.42.4,1.83,1.77,1.92,3.14.06.85,0,2.44.55,3.18h-2.89a16.07,16.07,0,0,1-.47-3.22c-.2-1.4-.73-2-2.19-2h-2.9v5.24h-2.9Zm2.9,6.06h3.17c1.32,0,2-.56,2-1.91s-.68-1.86-2-1.86h-3.17Z"/><path class="cls-4" d="M1138.06,504.73h-4v-2.47h10.8v2.47h-4v10.94h-2.9Z"/><path class="cls-4" d="M1152.39,515.67h-2.62v-8.53h-3.25v-2c1.83.06,3.49-.6,3.79-2.61h2.08Z"/><path class="cls-4" d="M1155.42,517.08h9.24V518h-9.24Z"/><path class="cls-4" d="M1168.85,504.73h-3.95v-2.47h10.8v2.47h-4v10.94h-2.9Z"/><path class="cls-4" d="M1180.45,508.64l-4.25-6.38h3.36l2.59,4.28,2.67-4.28H1188l-4.23,6.4,4.6,7h-3.46L1182,511l-2.94,4.64h-3.27Z"/><path class="cls-4" d="M1189.54,502.26h5.68c3.42,0,6,2.19,6,6.63,0,3.88-2,6.78-6,6.78h-5.68Zm2.89,10.93H1195c1.68,0,3.28-1.05,3.28-4,0-2.71-.94-4.44-3.8-4.44h-2.07Z"/></g><g class="cls-3"><path class="cls-4" d="M1106.66,539.75c0,3.62-2.1,5.39-5.63,5.39s-5.61-1.73-5.61-5.39v-8.34h2.9v8.34c0,1.46.37,2.91,2.71,2.91,2.07,0,2.73-.9,2.73-2.91v-8.34h2.9Z"/><path class="cls-4" d="M1112.76,531.41h3l4.93,13.41h-3l-1-3h-4.92l-1,3h-2.93Zm-.28,8.23h3.42l-1.66-4.92h0Z"/><path class="cls-4" d="M1121.81,531.41h7.11a3.65,3.65,0,0,1,3.86,3.7,3.27,3.27,0,0,1-2.09,3.36v0c1.42.39,1.83,1.76,1.92,3.14.06.84,0,2.44.55,3.17h-2.89a15.86,15.86,0,0,1-.47-3.21c-.2-1.41-.73-2-2.19-2h-2.9v5.24h-2.9Zm2.9,6.07h3.17c1.32,0,2-.57,2-1.92s-.68-1.86-2-1.86h-3.17Z"/><path class="cls-4" d="M1138.06,533.89h-4v-2.48h10.8v2.48h-4v10.93h-2.9Z"/><path class="cls-4" d="M1152.39,544.82h-2.62v-8.53h-3.25v-2c1.83.06,3.49-.6,3.79-2.61h2.08Z"/><path class="cls-4" d="M1155.42,546.23h9.24v.94h-9.24Z"/><path class="cls-4" d="M1165.93,531.41H1173a3.65,3.65,0,0,1,3.86,3.7,3.27,3.27,0,0,1-2.09,3.36v0c1.42.39,1.83,1.76,1.92,3.14.06.84,0,2.44.56,3.17h-2.9a15.89,15.89,0,0,1-.46-3.21c-.21-1.41-.74-2-2.2-2h-2.9v5.24h-2.9Zm2.9,6.07H1172c1.31,0,2-.57,2-1.92s-.68-1.86-2-1.86h-3.18Z"/><path class="cls-4" d="M1182.5,537.8l-4.25-6.39h3.36l2.59,4.28,2.67-4.28h3.18l-4.23,6.4,4.6,7H1187l-2.88-4.64-2.93,4.64h-3.27Z"/><path class="cls-4" d="M1191.58,531.41h5.69c3.42,0,6,2.2,6,6.63,0,3.89-2,6.78-6,6.78h-5.69Zm2.9,10.93h2.59c1.68,0,3.28-1.05,3.28-4,0-2.7-.94-4.43-3.8-4.43h-2.07Z"/></g><g id="DAPLink_Front" data-name="DAPLink Front"><g class="cls-39"><g class="cls-40"><path class="cls-14" d="M137.93,565.68H319.12a30.49,30.49,0,0,0,40.6,0h173.4a13.62,13.62,0,0,0,13.52,12,13.31,13.31,0,0,0,3.18-.39V712.2a22.74,22.74,0,0,0-18.17,16.17H359.22c-.67-5.37-9.54-9.62-20.4-9.62s-19.72,4.25-20.39,9.62H138.86a12.4,12.4,0,0,0-6.46-7.5V570.42a11.39,11.39,0,0,0,5.53-4.74"/><polygon class="cls-16" points="608.28 599.88 614.23 602.49 614.23 604.77 608.3 607.48 568.6 607.48 568.6 599.88 608.28 599.88"/><polygon class="cls-16" points="608.28 622.36 614.23 624.98 614.23 627.26 608.3 629.96 568.6 629.96 568.6 622.36 608.28 622.36"/><polygon class="cls-16" points="608.28 644.25 614.23 646.87 614.23 649.15 608.3 651.85 568.6 651.85 568.6 644.25 608.28 644.25"/><polygon class="cls-16" points="608.28 666.59 614.23 669.2 614.23 671.48 608.3 674.19 568.6 674.19 568.6 666.59 608.28 666.59"/><polygon class="cls-16" points="608.28 688.57 614.23 691.19 614.23 693.47 608.3 696.18 568.6 696.18 568.6 688.57 608.28 688.57"/><path class="cls-4" d="M520.55,608.74h26.39a1.49,1.49,0,0,0,1.49-1.49V600.5a1.49,1.49,0,0,0-1.49-1.48H520.55a3.67,3.67,0,0,0-3.67,3.67v2.38a3.68,3.68,0,0,0,3.67,3.67"/><path class="cls-4" d="M520.55,630.46h26.39a1.49,1.49,0,0,0,1.49-1.49v-6.74a1.49,1.49,0,0,0-1.49-1.49H520.55a3.67,3.67,0,0,0-3.67,3.67v2.38a3.67,3.67,0,0,0,3.67,3.67"/><path class="cls-4" d="M520.55,652.68h26.39a1.49,1.49,0,0,0,1.49-1.49v-6.74a1.49,1.49,0,0,0-1.49-1.49H520.55a3.67,3.67,0,0,0-3.67,3.67V649a3.67,3.67,0,0,0,3.67,3.67"/><path class="cls-4" d="M520.55,674.11h26.39a1.49,1.49,0,0,0,1.49-1.49v-6.75a1.49,1.49,0,0,0-1.49-1.48H520.55a3.67,3.67,0,0,0-3.67,3.67v2.38a3.68,3.68,0,0,0,3.67,3.67"/><path class="cls-4" d="M520.55,696.13h26.39a1.49,1.49,0,0,0,1.49-1.49V687.9a1.49,1.49,0,0,0-1.49-1.49H520.55a3.67,3.67,0,0,0-3.67,3.67v2.38a3.67,3.67,0,0,0,3.67,3.67"/></g><g class="cls-41"><rect class="cls-42" x="544.99" y="681.55" width="23.68" height="21.82"/></g><g class="cls-43"><rect class="cls-44" x="544.99" y="638.14" width="23.68" height="21.82"/></g><g class="cls-45"><rect class="cls-46" x="544.99" y="616.68" width="23.68" height="21.82"/></g><g class="cls-47"><rect class="cls-48" x="544.99" y="594.98" width="23.68" height="21.82"/></g><g class="cls-49"><rect class="cls-50" x="544.99" y="659.81" width="23.68" height="21.82"/></g><g class="cls-40"><polyline class="cls-51" points="545.75 594.1 545.75 591.97 511.53 591.97 511.53 703.17 545.85 703.17 545.85 698.73"/><path class="cls-23" d="M426.54,580.28a6.88,6.88,0,1,0,6.88-6.88,6.88,6.88,0,0,0-6.88,6.88"/><path class="cls-4" d="M429.37,580.28a4.06,4.06,0,1,0,4.05-4.06,4,4,0,0,0-4.05,4.06"/><path class="cls-23" d="M404.47,580.28a6.88,6.88,0,1,0,6.88-6.88,6.88,6.88,0,0,0-6.88,6.88"/><path class="cls-4" d="M407.3,580.28a4.05,4.05,0,1,0,4.05-4.06,4,4,0,0,0-4.05,4.06"/><path class="cls-23" d="M382.4,580.28a6.88,6.88,0,1,0,6.88-6.88,6.88,6.88,0,0,0-6.88,6.88"/><path class="cls-4" d="M385.22,580.28a4.06,4.06,0,1,0,4.06-4.06,4.05,4.05,0,0,0-4.06,4.06"/><rect class="cls-23" x="361.28" y="573.36" width="13.33" height="13.33"/><path class="cls-4" d="M363.16,579.79a4.88,4.88,0,1,0,4.88-4.88,4.87,4.87,0,0,0-4.88,4.88"/><path class="cls-23" d="M169.59,623h5.2a6.75,6.75,0,0,0,0-13.49h-5.2a6.75,6.75,0,0,0,0,13.49"/><path class="cls-4" d="M170.55,620.55h3.28a4.28,4.28,0,1,0,0-8.55h-3.28a4.28,4.28,0,1,0,0,8.55"/><path class="cls-23" d="M169.59,643.79h5.2a6.75,6.75,0,0,0,0-13.5h-5.2a6.75,6.75,0,0,0,0,13.5"/><path class="cls-4" d="M170.55,641.31h3.28a4.27,4.27,0,1,0,0-8.54h-3.28a4.27,4.27,0,1,0,0,8.54"/><path class="cls-23" d="M169.64,663.81h5.2a6.75,6.75,0,0,0,0-13.49h-5.2a6.75,6.75,0,0,0,0,13.49"/><path class="cls-4" d="M170.59,661.34h3.29a4.28,4.28,0,1,0,0-8.55h-3.29a4.28,4.28,0,0,0,0,8.55"/><path class="cls-23" d="M169.64,684.29h5.2a6.75,6.75,0,0,0,0-13.49h-5.2a6.75,6.75,0,0,0,0,13.49"/><path class="cls-4" d="M170.59,681.82h3.29a4.28,4.28,0,1,0,0-8.55h-3.29a4.28,4.28,0,0,0,0,8.55"/><path class="cls-4" d="M143.74,705.09h19.57a6.85,6.85,0,1,0,0-13.69H143.74a6.85,6.85,0,1,0,0,13.69"/><path class="cls-4" d="M143.74,601.92h19.57a6.84,6.84,0,1,0,0-13.68H143.74a6.84,6.84,0,1,0,0,13.68"/><rect class="cls-28" x="0.27" y="595.58" width="162.63" height="103.43"/><rect class="cls-29" x="0.13" y="692.39" width="162.72" height="5.69"/><path class="cls-4" d="M47.88,631.25H58.59a4.46,4.46,0,0,0,4.47-4.46V613.1a4.47,4.47,0,0,0-4.47-4.46H47.88a4.46,4.46,0,0,0-4.46,4.46v13.69a4.45,4.45,0,0,0,4.46,4.46"/><path class="cls-4" d="M47.88,683H58.59a4.46,4.46,0,0,0,4.47-4.46V664.88a4.47,4.47,0,0,0-4.47-4.46H47.88a4.46,4.46,0,0,0-4.46,4.46v13.69A4.45,4.45,0,0,0,47.88,683"/></g><g class="cls-52"><path class="cls-53" d="M212.52,589.19H195.64a2.22,2.22,0,0,1-2.41-2v-4.56a2.23,2.23,0,0,1,2.41-2h16.88a2.23,2.23,0,0,1,2.41,2v4.56a2.19,2.19,0,0,1-2.41,2"/><rect class="cls-54" x="199.13" y="580.66" width="9.94" height="8.54"/></g><g class="cls-55"><path class="cls-53" d="M212.52,604.65H195.64a2.22,2.22,0,0,1-2.41-2v-4.55a2.23,2.23,0,0,1,2.41-2h16.88a2.23,2.23,0,0,1,2.41,2v4.55a2.19,2.19,0,0,1-2.41,2"/><rect class="cls-54" x="199.13" y="596.12" width="9.94" height="8.54"/></g><g class="cls-56"><path class="cls-53" d="M212.52,620.54H195.64a2.22,2.22,0,0,1-2.41-2V614a2.23,2.23,0,0,1,2.41-2h16.88a2.23,2.23,0,0,1,2.41,2v4.55a2.19,2.19,0,0,1-2.41,2"/><rect class="cls-54" x="199.13" y="612.01" width="9.94" height="8.54"/></g><g class="cls-57"><path class="cls-53" d="M212.52,640.61H195.64a2.22,2.22,0,0,1-2.41-2v-4.55a2.23,2.23,0,0,1,2.41-2h16.88a2.23,2.23,0,0,1,2.41,2v4.55a2.19,2.19,0,0,1-2.41,2"/><rect class="cls-54" x="199.13" y="632.08" width="9.94" height="8.54"/></g><g class="cls-58"><path class="cls-53" d="M212.52,656.44H195.64a2.22,2.22,0,0,1-2.41-2v-4.56a2.24,2.24,0,0,1,2.41-2h16.88a2.23,2.23,0,0,1,2.41,2v4.56a2.19,2.19,0,0,1-2.41,2"/><rect class="cls-54" x="199.13" y="647.91" width="9.94" height="8.54"/></g><g class="cls-59"><path class="cls-53" d="M403.24,711.9H386.36a2.22,2.22,0,0,1-2.41-2v-4.55a2.23,2.23,0,0,1,2.41-2h16.88a2.22,2.22,0,0,1,2.4,2v4.55a2.18,2.18,0,0,1-2.4,2"/><rect class="cls-54" x="389.84" y="703.37" width="9.94" height="8.54"/></g><g class="cls-60"><path class="cls-53" d="M429.6,711.9H412.72a2.22,2.22,0,0,1-2.4-2v-4.55a2.22,2.22,0,0,1,2.4-2H429.6a2.22,2.22,0,0,1,2.41,2v4.55a2.19,2.19,0,0,1-2.41,2"/><rect class="cls-54" x="416.21" y="703.37" width="9.94" height="8.54"/></g><g class="cls-61"><path class="cls-53" d="M450.92,684.37v16.88a2.22,2.22,0,0,1-2,2.4h-4.55a2.22,2.22,0,0,1-2-2.4V684.37a2.22,2.22,0,0,1,2-2.41h4.55a2.18,2.18,0,0,1,2,2.41"/><rect class="cls-54" x="442.39" y="687.82" width="8.54" height="9.94"/></g><g class="cls-62"><path class="cls-53" d="M466.5,651.33v16.88a2.22,2.22,0,0,1-2,2.41H460a2.24,2.24,0,0,1-2-2.41V651.33a2.22,2.22,0,0,1,2-2.41h4.56a2.19,2.19,0,0,1,2,2.41"/><rect class="cls-54" x="457.97" y="654.78" width="8.54" height="9.94"/></g><g class="cls-63"><path class="cls-53" d="M472.74,613.25H455.86a2.22,2.22,0,0,1-2.41-2v-4.56a2.23,2.23,0,0,1,2.41-2h16.88a2.22,2.22,0,0,1,2.4,2v4.56a2.18,2.18,0,0,1-2.4,2"/><rect class="cls-54" x="459.34" y="604.72" width="9.94" height="8.54"/></g><g class="cls-64"><path class="cls-53" d="M462,576.3v16.88a2.22,2.22,0,0,1-2,2.41h-4.55a2.23,2.23,0,0,1-2-2.41V576.3a2.23,2.23,0,0,1,2-2.41H460a2.19,2.19,0,0,1,2,2.41"/><rect class="cls-54" x="453.45" y="579.75" width="8.54" height="9.94"/></g><g class="cls-65"><path class="cls-53" d="M519.52,581.84H502.64a2.22,2.22,0,0,1-2.41-2v-4.56a2.23,2.23,0,0,1,2.41-2h16.88a2.22,2.22,0,0,1,2.4,2v4.56a2.18,2.18,0,0,1-2.4,2"/><rect class="cls-54" x="506.12" y="573.31" width="9.94" height="8.54"/></g><g class="cls-40"><path class="cls-53" d="M488.06,581.25H473.51a1.93,1.93,0,0,1-2.08-1.71v-3.92a1.92,1.92,0,0,1,2.08-1.71h14.55a1.92,1.92,0,0,1,2.07,1.71v3.92a1.88,1.88,0,0,1-2.07,1.71"/><rect class="cls-4" x="476.51" y="573.89" width="8.57" height="7.36"/></g><g class="cls-66"><path class="cls-53" d="M472.74,628.87H455.86a2.22,2.22,0,0,1-2.41-2v-4.56a2.23,2.23,0,0,1,2.41-2h16.88a2.22,2.22,0,0,1,2.4,2v4.56a2.18,2.18,0,0,1-2.4,2"/><rect class="cls-54" x="459.34" y="620.34" width="9.94" height="8.54"/></g><g class="cls-67"><path class="cls-53" d="M218.17,674.21H196.34a2.94,2.94,0,0,1-3.11-2.74v-6.33a3,3,0,0,1,3.11-2.74h21.83a2.94,2.94,0,0,1,3.11,2.74v6.33a2.89,2.89,0,0,1-3.11,2.74"/><rect class="cls-54" x="200.85" y="662.37" width="12.86" height="11.84"/></g><g class="cls-68"><path class="cls-4" d="M256.06,676.8h7a1,1,0,0,1,.86,1.1v6.22a1,1,0,0,1-.86,1.1h-7a1,1,0,0,1-.86-1.1V677.9a1,1,0,0,1,.86-1.1"/><path class="cls-4" d="M256.06,663.72h7a1,1,0,0,1,.86,1.09V671a1,1,0,0,1-.86,1.1h-7a1,1,0,0,1-.86-1.1v-6.22a1,1,0,0,1,.86-1.09"/><path class="cls-53" d="M255.92,682.18V667.24a2,2,0,0,1,1.68-2.13h3.87a2,2,0,0,1,1.68,2.13v14.94a2,2,0,0,1-1.68,2.13H257.6c-.94,0-1.68-.94-1.68-2.13"/><rect class="cls-69" x="255.92" y="670.33" width="7.25" height="8.8"/></g><g class="cls-70"><path class="cls-4" d="M232.5,676.8h7a1,1,0,0,1,.87,1.1v6.22a1,1,0,0,1-.87,1.1h-7a1,1,0,0,1-.87-1.1V677.9a1,1,0,0,1,.87-1.1"/><path class="cls-4" d="M232.5,663.72h7a1,1,0,0,1,.87,1.09V671a1,1,0,0,1-.87,1.1h-7a1,1,0,0,1-.87-1.1v-6.22a1,1,0,0,1,.87-1.09"/><path class="cls-53" d="M232.36,682.18V667.24a1.94,1.94,0,0,1,1.68-2.13h3.87a2,2,0,0,1,1.67,2.13v14.94a1.94,1.94,0,0,1-1.67,2.13H234c-.94,0-1.68-.94-1.68-2.13"/><rect class="cls-69" x="232.35" y="670.33" width="7.25" height="8.8"/></g><g class="cls-71"><path class="cls-4" d="M276.82,643.65h7a1,1,0,0,1,.87,1.1V651a1,1,0,0,1-.87,1.1h-7A1,1,0,0,1,276,651v-6.22a1,1,0,0,1,.87-1.1"/><path class="cls-4" d="M276.82,630.56h7a1,1,0,0,1,.87,1.1v6.22a1,1,0,0,1-.87,1.1h-7a1,1,0,0,1-.87-1.1v-6.22a1,1,0,0,1,.87-1.1"/><path class="cls-53" d="M276.68,649V634.09a2,2,0,0,1,1.68-2.13h3.87a2,2,0,0,1,1.67,2.13V649a1.94,1.94,0,0,1-1.67,2.13h-3.87c-.94,0-1.68-.94-1.68-2.13"/><rect class="cls-69" x="276.68" y="637.17" width="7.25" height="8.8"/></g><g class="cls-72"><path class="cls-4" d="M338.9,600.25h7a1,1,0,0,1,.86,1.1v6.22a1,1,0,0,1-.86,1.09h-7a1,1,0,0,1-.86-1.09v-6.22a1,1,0,0,1,.86-1.1"/><path class="cls-4" d="M338.9,587.16h7a1,1,0,0,1,.86,1.1v6.22a1,1,0,0,1-.86,1.09h-7a1,1,0,0,1-.86-1.09v-6.22a1,1,0,0,1,.86-1.1"/><path class="cls-53" d="M338.76,605.62V590.69a2,2,0,0,1,1.68-2.13h3.87a2,2,0,0,1,1.68,2.13v14.93a1.94,1.94,0,0,1-1.68,2.13h-3.87c-.94,0-1.68-.93-1.68-2.13"/><rect class="cls-69" x="338.76" y="593.77" width="7.25" height="8.8"/></g><g class="cls-73"><path class="cls-4" d="M338.48,694.18h7a1,1,0,0,1,.86,1.1v6.22a1,1,0,0,1-.86,1.1h-7a1,1,0,0,1-.86-1.1v-6.22a1,1,0,0,1,.86-1.1"/><path class="cls-4" d="M338.48,681.09h7a1,1,0,0,1,.86,1.1v6.22a1,1,0,0,1-.86,1.1h-7a1,1,0,0,1-.86-1.1v-6.22a1,1,0,0,1,.86-1.1"/><path class="cls-53" d="M338.34,699.56V684.62a2,2,0,0,1,1.68-2.13h3.87a2,2,0,0,1,1.68,2.13v14.94a2,2,0,0,1-1.68,2.13H340c-.94,0-1.68-.94-1.68-2.13"/><rect class="cls-69" x="338.34" y="687.71" width="7.25" height="8.8"/></g><g class="cls-74"><path class="cls-4" d="M358.33,704.07v7a1,1,0,0,1-1.1.86H351a1,1,0,0,1-1.1-.86v-7a1,1,0,0,1,1.1-.86h6.22a1,1,0,0,1,1.1.86"/><path class="cls-4" d="M371.42,704.07v7a1,1,0,0,1-1.1.86H364.1A1,1,0,0,1,363,711v-7a1,1,0,0,1,1.1-.86h6.22a1,1,0,0,1,1.1.86"/><path class="cls-53" d="M353,703.94h14.94a1.94,1.94,0,0,1,2.13,1.67v3.87a2,2,0,0,1-2.13,1.68H353a1.94,1.94,0,0,1-2.13-1.68v-3.87c0-.93.94-1.67,2.13-1.67"/><rect class="cls-69" x="356" y="703.93" width="8.8" height="7.25"/></g><g class="cls-75"><path class="cls-4" d="M263.74,612.12v7a1,1,0,0,1-1.1.86h-6.22a1,1,0,0,1-1.1-.86v-7a1,1,0,0,1,1.1-.86h6.22a1,1,0,0,1,1.1.86"/><path class="cls-4" d="M276.83,612.12v7a1,1,0,0,1-1.1.86h-6.22a1,1,0,0,1-1.1-.86v-7a1,1,0,0,1,1.1-.86h6.22a1,1,0,0,1,1.1.86"/><path class="cls-53" d="M258.36,612H273.3a2,2,0,0,1,2.13,1.68v3.87a2,2,0,0,1-2.13,1.68H258.36a2,2,0,0,1-2.13-1.68v-3.87c0-.94.94-1.68,2.13-1.68"/><rect class="cls-69" x="261.41" y="611.98" width="8.8" height="7.25"/></g><g class="cls-40"><rect class="cls-76" x="258.79" y="630.18" width="4.51" height="6.09"/><rect class="cls-76" x="232.5" y="630.18" width="4.51" height="6.09"/><rect class="cls-76" x="233.14" y="631.7" width="26.14" height="3.23"/><rect class="cls-77" x="234.57" y="631.7" width="2.82" height="3.23"/><rect class="cls-77" x="255.97" y="631.7" width="2.82" height="3.23"/><rect class="cls-76" x="232.5" y="637.72" width="4.51" height="6.09"/><rect class="cls-76" x="233.14" y="639.24" width="16.75" height="3.23"/><rect class="cls-77" x="234.57" y="639.24" width="2.82" height="3.23"/><rect class="cls-76" x="258.79" y="645.67" width="4.51" height="6.09"/><rect class="cls-76" x="232.5" y="645.67" width="4.51" height="6.09"/><rect class="cls-76" x="233.14" y="647.19" width="26.14" height="3.23"/><rect class="cls-77" x="234.57" y="647.19" width="2.82" height="3.23"/><rect class="cls-77" x="255.97" y="647.19" width="2.82" height="3.23"/><path class="cls-78" d="M240,653.11v-24a.81.81,0,0,1,.81-.81h13.08a.81.81,0,0,1,.81.81v24a.82.82,0,0,1-.81.82H240.83a.82.82,0,0,1-.81-.82"/><path class="cls-79" d="M240.94,652.5V630a.82.82,0,0,1,.81-.82h9.94a.82.82,0,0,1,.81.82v22.5a.82.82,0,0,1-.81.82h-9.94a.82.82,0,0,1-.81-.82"/><path class="cls-80" d="M230.64,589.2h-7.27a.82.82,0,0,1-.81-.81v-6.33a.81.81,0,0,1,.81-.81h7.27a.81.81,0,0,1,.81.81v6.33a.81.81,0,0,1-.81.81"/><path class="cls-80" d="M230.64,602h-7.27a.81.81,0,0,1-.81-.81v-6.33a.81.81,0,0,1,.81-.81h7.27a.81.81,0,0,1,.81.81v6.33a.81.81,0,0,1-.81.81"/><path class="cls-53" d="M243.89,604.88h-4.73a1.69,1.69,0,0,1-1.54-1.78v-4.38a1.69,1.69,0,0,1,1.54-1.79h7.32a1.69,1.69,0,0,1,1.54,1.79v4.38a1.69,1.69,0,0,1-1.54,1.78h-2.59"/><path class="cls-53" d="M248,581.86v4.38a1.69,1.69,0,0,1-1.54,1.79h-7.32a1.69,1.69,0,0,1-1.54-1.79v-4.38a1.68,1.68,0,0,1,1.54-1.78h7.32a1.68,1.68,0,0,1,1.54,1.78"/><path class="cls-53" d="M268.41,589.81v4.38a1.68,1.68,0,0,1-1.54,1.78h-7.32a1.68,1.68,0,0,1-1.54-1.78v-4.38a1.69,1.69,0,0,1,1.54-1.79h7.32a1.69,1.69,0,0,1,1.54,1.79"/><rect class="cls-81" x="246.98" y="579.2" width="12.35" height="26.33"/><path class="cls-4" d="M373.73,617.62h0a1,1,0,0,1-1-1V600.91a1,1,0,1,1,1.92,0v15.75a1,1,0,0,1-1,1"/><path class="cls-4" d="M378,617.62h0a1,1,0,0,1-1-1V600.91a1,1,0,1,1,1.91,0v15.75a1,1,0,0,1-.95,1"/><path class="cls-4" d="M382.28,617.62h0a1,1,0,0,1-.95-1V600.91a1,1,0,1,1,1.91,0v15.75a1,1,0,0,1-1,1"/><path class="cls-4" d="M386.56,617.62h0a1,1,0,0,1-1-1V600.91a1,1,0,1,1,1.92,0v15.75a1,1,0,0,1-1,1"/><path class="cls-4" d="M390.84,617.62h0a1,1,0,0,1-1-1V600.91a1,1,0,0,1,1.92,0v15.75a1,1,0,0,1-1,1"/><path class="cls-4" d="M395.12,617.62h0a1,1,0,0,1-1-1V600.91a1,1,0,1,1,1.92,0v15.75a1,1,0,0,1-1,1"/><path class="cls-4" d="M399.4,617.62h0a1,1,0,0,1-1-1V600.91a1,1,0,0,1,1.92,0v15.75a1,1,0,0,1-1,1"/><path class="cls-4" d="M403.68,617.62h0a1,1,0,0,1-1-1V600.91a1,1,0,1,1,1.91,0v15.75a1,1,0,0,1-.95,1"/><path class="cls-4" d="M408,617.62h0a1,1,0,0,1-.95-1V600.91a1,1,0,1,1,1.91,0v15.75a1,1,0,0,1-1,1"/><path class="cls-4" d="M412.23,617.62h0a1,1,0,0,1-1-1V600.91a1,1,0,1,1,1.92,0v15.75a1,1,0,0,1-1,1"/><path class="cls-4" d="M416.51,617.62h0a1,1,0,0,1-1-1V600.91a1,1,0,0,1,1.92,0v15.75a1,1,0,0,1-1,1"/><path class="cls-4" d="M420.79,617.62h0a1,1,0,0,1-1-1V600.91a1,1,0,1,1,1.92,0v15.75a1,1,0,0,1-1,1"/><path class="cls-4" d="M373.73,690.79h0a1,1,0,0,1-1-.95V674.08a1,1,0,1,1,1.92,0v15.76a1,1,0,0,1-1,.95"/><path class="cls-4" d="M378,690.79h0a1,1,0,0,1-1-.95V674.08a1,1,0,1,1,1.91,0v15.76a1,1,0,0,1-.95.95"/><path class="cls-4" d="M382.28,690.79h0a1,1,0,0,1-.95-.95V674.08a1,1,0,1,1,1.91,0v15.76a1,1,0,0,1-1,.95"/><path class="cls-4" d="M386.56,690.79h0a1,1,0,0,1-1-.95V674.08a1,1,0,1,1,1.92,0v15.76a1,1,0,0,1-1,.95"/><path class="cls-4" d="M390.84,690.79h0a1,1,0,0,1-1-.95V674.08a1,1,0,0,1,1.92,0v15.76a1,1,0,0,1-1,.95"/><path class="cls-4" d="M395.12,690.79h0a1,1,0,0,1-1-.95V674.08a1,1,0,1,1,1.92,0v15.76a1,1,0,0,1-1,.95"/><path class="cls-4" d="M399.4,690.79h0a1,1,0,0,1-1-.95V674.08a1,1,0,0,1,1.92,0v15.76a1,1,0,0,1-1,.95"/><path class="cls-4" d="M403.68,690.79h0a1,1,0,0,1-1-.95V674.08a1,1,0,1,1,1.91,0v15.76a1,1,0,0,1-.95.95"/><path class="cls-4" d="M408,690.79h0a1,1,0,0,1-.95-.95V674.08a1,1,0,1,1,1.91,0v15.76a1,1,0,0,1-1,.95"/><path class="cls-4" d="M412.23,690.79h0a1,1,0,0,1-1-.95V674.08a1,1,0,1,1,1.92,0v15.76a1,1,0,0,1-1,.95"/><path class="cls-4" d="M416.51,690.79h0a1,1,0,0,1-1-.95V674.08a1,1,0,0,1,1.92,0v15.76a1,1,0,0,1-1,.95"/><path class="cls-4" d="M420.79,690.79h0a1,1,0,0,1-1-.95V674.08a1,1,0,1,1,1.92,0v15.76a1,1,0,0,1-1,.95"/><path class="cls-4" d="M351.83,622h0a1,1,0,0,1,1-1h15.75a1,1,0,0,1,0,1.92H352.79a1,1,0,0,1-1-1"/><path class="cls-4" d="M351.83,626.31h0a1,1,0,0,1,1-1h15.75a1,1,0,0,1,0,1.92H352.79a1,1,0,0,1-1-1"/><path class="cls-4" d="M351.83,630.59h0a1,1,0,0,1,1-1h15.75a1,1,0,1,1,0,1.92H352.79a1,1,0,0,1-1-1"/><path class="cls-4" d="M351.83,634.87h0a1,1,0,0,1,1-1h15.75a1,1,0,1,1,0,1.91H352.79a1,1,0,0,1-1-1"/><path class="cls-4" d="M351.83,639.14h0a1,1,0,0,1,1-.95h15.75a1,1,0,1,1,0,1.91H352.79a1,1,0,0,1-1-1"/><path class="cls-4" d="M351.83,643.42h0a1,1,0,0,1,1-1h15.75a1,1,0,0,1,0,1.92H352.79a1,1,0,0,1-1-1"/><path class="cls-4" d="M351.83,647.7h0a1,1,0,0,1,1-1h15.75a1,1,0,1,1,0,1.92H352.79a1,1,0,0,1-1-1"/><path class="cls-4" d="M351.83,652h0a1,1,0,0,1,1-1h15.75a1,1,0,1,1,0,1.92H352.79a1,1,0,0,1-1-1"/><path class="cls-4" d="M351.83,656.26h0a1,1,0,0,1,1-1h15.75a1,1,0,1,1,0,1.92H352.79a1,1,0,0,1-1-1"/><path class="cls-4" d="M351.83,660.54h0a1,1,0,0,1,1-1h15.75a1,1,0,1,1,0,1.91H352.79a1,1,0,0,1-1-1"/><path class="cls-4" d="M351.83,664.81h0a1,1,0,0,1,1-.95h15.75a1,1,0,1,1,0,1.91H352.79a1,1,0,0,1-1-1"/><path class="cls-4" d="M351.83,669.09h0a1,1,0,0,1,1-1h15.75a1,1,0,0,1,0,1.92H352.79a1,1,0,0,1-1-1"/><path class="cls-4" d="M424.59,622h0a1,1,0,0,1,1-1H441.3a1,1,0,1,1,0,1.92H425.54a1,1,0,0,1-1-1"/><path class="cls-4" d="M424.59,626.31h0a1,1,0,0,1,1-1H441.3a1,1,0,1,1,0,1.92H425.54a1,1,0,0,1-1-1"/><path class="cls-4" d="M424.59,630.59h0a1,1,0,0,1,1-1H441.3a1,1,0,0,1,0,1.92H425.54a1,1,0,0,1-1-1"/><path class="cls-4" d="M424.59,634.87h0a1,1,0,0,1,1-1H441.3a1,1,0,1,1,0,1.91H425.54a1,1,0,0,1-1-1"/><path class="cls-4" d="M424.59,639.14h0a1,1,0,0,1,1-.95H441.3a1,1,0,1,1,0,1.91H425.54a1,1,0,0,1-1-1"/><path class="cls-4" d="M424.59,643.42h0a1,1,0,0,1,1-1H441.3a1,1,0,1,1,0,1.92H425.54a1,1,0,0,1-1-1"/><path class="cls-4" d="M424.59,647.7h0a1,1,0,0,1,1-1H441.3a1,1,0,0,1,0,1.92H425.54a1,1,0,0,1-1-1"/><path class="cls-4" d="M424.59,652h0a1,1,0,0,1,1-1H441.3a1,1,0,0,1,0,1.92H425.54a1,1,0,0,1-1-1"/><path class="cls-4" d="M424.59,656.26h0a1,1,0,0,1,1-1H441.3a1,1,0,0,1,0,1.92H425.54a1,1,0,0,1-1-1"/><path class="cls-4" d="M424.59,660.54h0a1,1,0,0,1,1-1H441.3a1,1,0,1,1,0,1.91H425.54a1,1,0,0,1-1-1"/><path class="cls-4" d="M424.59,664.81h0a1,1,0,0,1,1-.95H441.3a1,1,0,1,1,0,1.91H425.54a1,1,0,0,1-1-1"/><path class="cls-4" d="M424.59,669.09h0a1,1,0,0,1,1-1H441.3a1,1,0,0,1,0,1.92H425.54a1,1,0,0,1-1-1"/><path class="cls-54" d="M422.09,675.22h-49.7a4.46,4.46,0,0,1-4.45-4.46V618.58a4.45,4.45,0,0,1,4.45-4.45h49.7a4.45,4.45,0,0,1,4.45,4.45v52.18a4.46,4.46,0,0,1-4.45,4.46"/></g></g></g><polyline class="cls-82" points="627.81 398.88 756.49 398.88 756.49 752.72 1128.23 752.72"/><polyline class="cls-83" points="627.81 361.1 983.21 361.1 983.21 478.27 1128.23 478.27"/><g class="cls-3"><path class="cls-37" d="M156.24,250.44h11c3.93,0,7.29,1.92,7.29,6.25,0,3.06-1.58,5.48-4.67,6.12v.06c3.13.44,4,2.52,4.2,5.41.1,1.65.1,5,1.11,6.15h-2.52c-.54-.91-.54-2.72-.64-3.73-.17-3.36-.5-7.09-4.8-6.92h-8.67v10.65h-2.29Zm2.29,11.39h8.53c2.79,0,5.18-1.75,5.18-4.67s-1.72-4.77-5.18-4.77h-8.53Z"/><path class="cls-37" d="M185.68,250.44h2.55l9.41,24h-2.46L192.26,267H181.34l-2.89,7.46H176ZM182.05,265h9.44l-4.64-12.29Z"/><path class="cls-37" d="M199.82,250.44h2.29v12.9l13.94-12.9h3.09l-10.72,9.91,11.22,14.08h-2.95l-10-12.5-4.6,4.27v8.23h-2.29Z"/><path class="cls-37" d="M221.59,250.44h8.3c7.26.17,11,4.07,11,12s-3.76,11.82-11,12h-8.3Zm2.29,22h4.87c6.89,0,9.88-2.85,9.88-10s-3-10.05-9.88-10.05h-4.87Z"/><path class="cls-37" d="M251.63,250.44h2.55l9.41,24h-2.45L258.22,267H247.3l-2.89,7.46H242ZM248,265h9.44l-4.63-12.29Z"/><path class="cls-37" d="M265.77,250.44h10.66c4.3,0,7.12,2.52,7.12,6.86s-2.82,6.85-7.12,6.85h-8.37v10.28h-2.29Zm2.29,11.76h7.86c3.19,0,5.34-1.58,5.34-4.9s-2.15-4.91-5.34-4.91h-7.86Z"/><path class="cls-37" d="M287.78,255.45c3.7-.1,6-.24,6.62-4.54h1.71v23.52H294V257h-6.22Z"/><path class="cls-37" d="M315,250.44h10.15c4,0,7.69,1.41,7.69,5.88a5.45,5.45,0,0,1-4.16,5.38v.06a5.63,5.63,0,0,1,5.07,5.85c0,2.29-.81,6.82-8.6,6.82H315ZM317.25,261h7.86c3.63,0,5.41-1.82,5.41-4.07,0-3-1.82-4.5-5.41-4.5h-7.86Zm0,11.52h7.86c3.39,0,6.32-1,6.32-4.94,0-3.09-2.29-4.63-6.32-4.63h-7.86Z"/><path class="cls-37" d="M352.49,265.76c0,5-2.92,9.18-8.2,9.18s-8.19-4.2-8.19-9.18,2.92-9.17,8.19-9.17S352.49,260.79,352.49,265.76Zm-14.28,0c0,3.67,2.05,7.39,6.08,7.39s6.09-3.72,6.09-7.39-2.05-7.39-6.09-7.39S338.21,262.1,338.21,265.76Z"/><path class="cls-37" d="M359,257.09h3.53v1.79H359v11.69c0,1.38.2,2.18,1.71,2.28a15.86,15.86,0,0,0,1.82-.1v1.82c-.64,0-1.24.06-1.88.06-2.83,0-3.8-.94-3.77-3.89V258.88h-3v-1.79h3v-5.2H359Z"/><path class="cls-37" d="M369,257.09h3.53v1.79H369v11.69c0,1.38.21,2.18,1.72,2.28a15.69,15.69,0,0,0,1.81-.1v1.82c-.64,0-1.24.06-1.88.06-2.82,0-3.8-.94-3.76-3.89V258.88h-3v-1.79h3v-5.2H369Z"/><path class="cls-37" d="M391.06,265.76c0,5-2.92,9.18-8.2,9.18s-8.19-4.2-8.19-9.18,2.92-9.17,8.19-9.17S391.06,260.79,391.06,265.76Zm-14.28,0c0,3.67,2.05,7.39,6.08,7.39s6.09-3.72,6.09-7.39-2.05-7.39-6.09-7.39S376.78,262.1,376.78,265.76Z"/><path class="cls-37" d="M394.22,257.09h1.95V260h.1a6,6,0,0,1,5.68-3.43,4.82,4.82,0,0,1,5,3.39,5.87,5.87,0,0,1,5.51-3.39c3.83,0,5.75,2,5.75,6.08v11.76h-2.12V262.77c0-2.85-1-4.4-4.1-4.4-3.66,0-4.7,3-4.7,6.25v9.81h-2.12V262.67c0-2.35-.91-4.3-3.63-4.3-3.63,0-5.17,2.76-5.17,6.38v9.68h-2.12Z"/><path class="cls-37" d="M429.3,250.44h2.45l7.8,21.47h.06l7.73-21.47h2.42l-8.9,24H438.2Z"/><path class="cls-37" d="M451.71,250.44h2.11v3.39h-2.11Zm0,6.65h2.11v17.34h-2.11Z"/><path class="cls-37" d="M459.13,266.33c0,3.1,1.68,6.82,5.71,6.82,3.1,0,4.78-1.78,5.45-4.43h2.11c-.9,3.93-3.15,6.22-7.56,6.22-5.51,0-7.82-4.24-7.82-9.18,0-4.57,2.31-9.17,7.82-9.17s7.8,4.87,7.63,9.74Zm11.22-1.78c-.1-3.19-2.11-6.18-5.51-6.18s-5.34,3-5.71,6.18Z"/><path class="cls-37" d="M473.58,257.09h2.25L480.27,272h.06l4.24-14.86H487L491.19,272h.06l4.44-14.86h2.25l-5.58,17.34H490l-4.26-14.58h-.07l-4.23,14.58h-2.32Z"/></g><g class="cls-3"><path class="cls-37" d="M156.24,526.9h11c3.93,0,7.29,1.91,7.29,6.25,0,3.05-1.58,5.47-4.67,6.11v.07c3.13.44,4,2.52,4.2,5.41.1,1.65.1,5,1.11,6.15h-2.52c-.54-.91-.54-2.72-.64-3.73-.17-3.36-.5-7.09-4.8-6.92h-8.67v10.65h-2.29Zm2.29,11.39h8.53c2.79,0,5.18-1.75,5.18-4.67s-1.72-4.77-5.18-4.77h-8.53Z"/><path class="cls-37" d="M185.68,526.9h2.55l9.41,24h-2.46l-2.92-7.46H181.34l-2.89,7.46H176Zm-3.63,14.58h9.44l-4.64-12.3Z"/><path class="cls-37" d="M199.82,526.9h2.29v12.9l13.94-12.9h3.09l-10.72,9.91,11.22,14.08h-2.95l-10-12.5-4.6,4.27v8.23h-2.29Z"/><path class="cls-37" d="M221.59,526.9h8.3c7.26.17,11,4.06,11,12s-3.76,11.83-11,12h-8.3Zm2.29,22h4.87c6.89,0,9.88-2.86,9.88-10.05s-3-10-9.88-10h-4.87Z"/><path class="cls-37" d="M251.63,526.9h2.55l9.41,24h-2.45l-2.92-7.46H247.3l-2.89,7.46H242ZM248,541.48h9.44l-4.63-12.3Z"/><path class="cls-37" d="M265.77,526.9h10.66c4.3,0,7.12,2.52,7.12,6.85s-2.82,6.86-7.12,6.86h-8.37v10.28h-2.29Zm2.29,11.76h7.86c3.19,0,5.34-1.58,5.34-4.91s-2.15-4.9-5.34-4.9h-7.86Z"/><path class="cls-37" d="M287.78,531.9c3.7-.1,6-.23,6.62-4.53h1.71v23.52H294V533.42h-6.22Z"/><path class="cls-37" d="M312.37,526.9h19v2H323v22h-2.29v-22h-8.37Z"/><path class="cls-37" d="M345,542.22c0,5-2.92,9.17-8.19,9.17s-8.2-4.2-8.2-9.17,2.92-9.17,8.2-9.17S345,537.25,345,542.22Zm-14.28,0c0,3.66,2.05,7.39,6.09,7.39s6.08-3.73,6.08-7.39-2.05-7.39-6.08-7.39S330.75,538.56,330.75,542.22Z"/><path class="cls-37" d="M348.19,533.55h1.95v3.29h.07a6.4,6.4,0,0,1,6.18-3.79c5.27,0,7.79,4.23,7.79,9.17s-2.52,9.17-7.79,9.17a6.17,6.17,0,0,1-6-3.79h-.07v9.71h-2.12Zm8.2,1.28c-4.7,0-6.08,3.46-6.08,7.39,0,3.59,1.61,7.39,6.08,7.39,4,0,5.68-3.8,5.68-7.39S360.42,534.83,356.39,534.83Z"/><path class="cls-37" d="M374.56,526.9H377l7.79,21.47h.07l7.73-21.47H395l-8.91,24h-2.65Z"/><path class="cls-37" d="M397,526.9h2.11v3.39H397Zm0,6.65h2.11v17.34H397Z"/><path class="cls-37" d="M404.4,542.79c0,3.09,1.68,6.82,5.71,6.82,3.09,0,4.77-1.78,5.45-4.43h2.11c-.9,3.93-3.16,6.21-7.56,6.21-5.51,0-7.83-4.23-7.83-9.17,0-4.57,2.32-9.17,7.83-9.17s7.8,4.87,7.63,9.74ZM415.62,541c-.1-3.19-2.11-6.18-5.51-6.18s-5.34,3-5.71,6.18Z"/><path class="cls-37" d="M418.85,533.55h2.25l4.43,14.85h.07l4.23-14.85h2.39l4.23,14.85h.07L441,533.55h2.25l-5.58,17.34h-2.32L431,536.31H431l-4.24,14.58h-2.31Z"/></g><path class="cls-4" d="M491.77,603.48h-2.84v-1h6.81v1H492.9V611h-1.13Z"/><path class="cls-4" d="M496.68,602.53h2.92c2.62,0,4.08,1.32,4.08,4.05S502.43,611,499.6,611h-2.92Zm1.13,7.55h1.88c.78,0,2.86-.21,2.86-3.35,0-2-.75-3.25-2.84-3.25h-1.9Z"/><path class="cls-4" d="M505.11,602.53h1.13V611h-1.13Z"/><path class="cls-4" d="M485.27,624.26h-2.83v-1h6.8v1h-2.83v7.56h-1.14Z"/><path class="cls-4" d="M490.18,623.31h2.92c2.62,0,4.09,1.32,4.09,4.05s-1.25,4.46-4.09,4.46h-2.92Zm1.13,7.56h1.89c.77,0,2.86-.22,2.86-3.35,0-2-.75-3.26-2.84-3.26h-1.91Z"/><path class="cls-4" d="M502.17,623.11c2.7,0,4.07,2.13,4.07,4.45s-1.37,4.46-4.07,4.46-4.08-2.13-4.08-4.46S499.46,623.11,502.17,623.11Zm0,8c2.07,0,2.94-1.79,2.94-3.51s-.87-3.5-2.94-3.5-2.94,1.79-2.94,3.5S500.1,631.07,502.17,631.07Z"/><path class="cls-4" d="M477.67,645.94h1v1h0a2.14,2.14,0,0,1,2-1.12c1.62,0,2.12.93,2.12,2.26v4.05h-1v-4.17a1.15,1.15,0,0,0-1.25-1.24,1.73,1.73,0,0,0-1.82,1.93v3.48h-1Z"/><path class="cls-4" d="M484.46,643.59h4c1.61,0,2.58.86,2.58,2.23a2,2,0,0,1-1.47,2.16v0c1,.19,1.18.93,1.27,1.75a4.32,4.32,0,0,0,.5,2.35h-1.26c-.32-.35-.14-1.27-.31-2.1s-.32-1.54-1.42-1.54H485.6v3.64h-1.14Zm3.5,3.92c1,0,2-.27,2-1.51a1.34,1.34,0,0,0-1.51-1.46H485.6v3Z"/><path class="cls-4" d="M497.55,646.08a1.85,1.85,0,0,0-2.11-1.74c-1,0-1.91.35-1.91,1.45,0,2.1,5.45.62,5.45,4,0,1.81-1.78,2.54-3.33,2.54-1.9,0-3.51-.94-3.51-3h1.07c0,1.43,1.19,2.05,2.48,2.05,1,0,2.15-.32,2.15-1.55,0-2.34-5.44-.8-5.44-3.92,0-1.72,1.52-2.49,3.08-2.49,1.75,0,3.08.82,3.14,2.69Z"/><path class="cls-4" d="M502.28,644.54h-2.84v-.95h6.8v.95h-2.83v7.56h-1.13Z"/><path class="cls-4" d="M485.28,670.15c0,2.15-1.22,3.27-3.35,3.27s-3.49-1-3.49-3.27v-5.44h1.13v5.44a2.11,2.11,0,0,0,2.36,2.32,2,2,0,0,0,2.21-2.32v-5.44h1.14Z"/><path class="cls-4" d="M486.16,674.12h5.95v.59h-5.95Z"/><path class="cls-4" d="M495,665.67h-2.83v-1h6.8v1H496.1v7.55H495Z"/><path class="cls-4" d="M501.91,668.85l-2.8-4.14h1.35l2.13,3.33,2.21-3.33h1.27l-2.82,4.14,3,4.37h-1.38l-2.29-3.51-2.36,3.51h-1.27Z"/><path class="cls-4" d="M484,690.43c0,2.15-1.21,3.27-3.35,3.27s-3.49-1-3.49-3.27V685h1.14v5.44a2.1,2.1,0,0,0,2.35,2.32,2,2,0,0,0,2.22-2.32V685H484Z"/><path class="cls-4" d="M484.83,694.39h6v.6h-6Z"/><path class="cls-4" d="M491.72,685h4c1.61,0,2.59.86,2.59,2.23a2,2,0,0,1-1.48,2.16v0c1,.19,1.18.93,1.28,1.75a4.22,4.22,0,0,0,.5,2.35h-1.27c-.32-.35-.14-1.26-.31-2.1s-.32-1.53-1.41-1.53h-2.77v3.63h-1.13Zm3.49,3.92c1.05,0,2-.27,2-1.51a1.35,1.35,0,0,0-1.52-1.46h-2.81v3Z"/><path class="cls-4" d="M501.91,689.13l-2.8-4.14h1.35l2.13,3.33L504.8,685h1.27l-2.82,4.14,3,4.37h-1.38L502.57,690l-2.36,3.52h-1.27Z"/><polyline class="cls-84" points="627.81 670.05 807.57 670.05 807.57 538.6 1071.06 538.6"/><polyline class="cls-85" points="627.81 691.62 825.18 691.62 825.18 509.03 1071.06 509.03"/></g></g></svg>