<svg xmlns="http://www.w3.org/2000/svg" viewBox="0 0 330.63 123.52"><defs><style>.cls-1{isolation:isolate;}.cls-2{fill:#191919;}.cls-3{fill:#f0f0f0;}.cls-4{fill:#303030;}.cls-5{fill:#fff;}.cls-6{fill:#ffd000;}.cls-7{fill:#e7001a;}.cls-10,.cls-11,.cls-8,.cls-9{fill:none;stroke-miterlimit:10;}.cls-8{stroke:#e7001a;stroke-width:1.1px;}.cls-9{stroke:#303030;}.cls-10{stroke:#ff6300;}.cls-11{stroke:#ffd000;}.cls-12{fill:#ff6300;}</style></defs><g id="Layer_2" data-name="Layer 2"><g id="Layer_1-2" data-name="Layer 1"><g class="cls-1"><path class="cls-2" d="M13.08,0h5.48c2,0,3.63,1,3.63,3.11a2.87,2.87,0,0,1-2.33,3.05v0c1.56.22,2,1.26,2.1,2.7.05.82.05,2.48.55,3.06H21.25a5.77,5.77,0,0,1-.32-1.86c-.08-1.67-.25-3.53-2.39-3.45H14.22V12H13.08Zm1.14,5.67h4.25a2.38,2.38,0,0,0,2.58-2.32C21.05,1.87,20.2,1,18.47,1H14.22Z"/><path class="cls-2" d="M27.75,0H29L33.7,12H32.48L31,8.24H25.58L24.15,12H22.92ZM25.94,7.26h4.7L28.33,1.14Z"/><path class="cls-2" d="M34.79,0h1.14V6.43L42.87,0h1.54L39.07,4.94l5.6,7H43.19l-5-6.23L35.93,7.85V12H34.79Z"/></g><g class="cls-1"><path class="cls-2" d="M47.37,0h5.16C55.63,0,58,2,58,5.91c0,3.46-1.77,6-5.42,6H47.37ZM50,9.74h2.35c1.52,0,3-.94,3-3.58,0-2.41-.86-3.95-3.45-3.95H50Z"/><path class="cls-2" d="M63,0h2.7L70.2,12H67.48l-.91-2.66H62.1L61.17,12H58.5Zm-.25,7.33h3.1L64.38,3h0Z"/><path class="cls-2" d="M71.24,0h5.39c3,0,4.13,1.89,4.13,3.83s-1.14,3.84-4.13,3.84H73.87V12H71.24Zm2.63,5.62h2c1.2,0,2.31-.26,2.31-1.79S77.11,2,75.91,2h-2Z"/><path class="cls-2" d="M87.81,12H85.43V4.35H82.49V2.56c1.65,0,3.16-.53,3.43-2.33h1.89Z"/></g><g class="cls-1"><path class="cls-2" d="M241.2,0h5.47c2,0,3.63,1,3.63,3.11A2.87,2.87,0,0,1,248,6.16v0c1.55.22,2,1.26,2.09,2.7.05.82.05,2.48.55,3.06h-1.25a5.27,5.27,0,0,1-.32-1.86c-.09-1.67-.25-3.53-2.4-3.45h-4.31V12H241.2Zm1.14,5.67h4.25a2.38,2.38,0,0,0,2.58-2.32c0-1.48-.86-2.38-2.58-2.38h-4.25Z"/><path class="cls-2" d="M255.86,0h1.27l4.69,12h-1.23l-1.45-3.71H253.7L252.26,12H251Zm-1.81,7.26h4.7l-2.31-6.12Z"/><path class="cls-2" d="M262.9,0H264V6.43L271,0h1.54l-5.34,4.94,5.59,7h-1.47l-5-6.23L264,7.85V12H262.9Z"/></g><g class="cls-1"><path class="cls-2" d="M279,0c2.92,0,3.92,2,3.92,3.15a2.46,2.46,0,0,1-1.71,2.46v0a2.73,2.73,0,0,1,2.2,2.86c0,2.48-2.2,3.69-4.39,3.69s-4.45-1.14-4.45-3.67a2.77,2.77,0,0,1,2.21-2.88v0a2.34,2.34,0,0,1-1.73-2.41C275.05,1.09,277.09,0,279,0Zm0,10.39a1.92,1.92,0,0,0,2-2,1.9,1.9,0,0,0-2-1.88,1.87,1.87,0,0,0-2.08,1.86A2,2,0,0,0,279,10.39ZM279,5a1.56,1.56,0,0,0,1.76-1.54A1.55,1.55,0,0,0,279,1.79a1.64,1.64,0,0,0-1.79,1.62A1.6,1.6,0,0,0,279,5Z"/><path class="cls-2" d="M290.2,12h-2.38V4.35h-2.94V2.56c1.65,0,3.16-.53,3.43-2.33h1.89Z"/><path class="cls-2" d="M299.5,12h-2.37V4.35h-2.95V2.56c1.66,0,3.16-.53,3.43-2.33h1.89Z"/></g><rect class="cls-3" x="228.2" y="26.45" width="102.43" height="97.06" rx="3.57"/><rect class="cls-3" y="26.45" width="102.43" height="97.06" rx="3.57"/><polygon class="cls-4" points="245.5 57.24 232.48 65.73 245.5 74.23 245.5 74.28 315.27 74.28 315.27 57.18 245.5 57.18 245.5 57.24"/><polygon class="cls-4" points="315.27 57.24 315.27 74.23 328.29 65.73 315.27 57.24"/><path class="cls-5" d="M275.11,69.34h0a2.24,2.24,0,0,1-2.35,1.46c-2.35,0-3.19-1.75-3.19-5.58s1.08-5.58,3.57-5.58a2.92,2.92,0,0,1,3.14,3.1v.19h-1.63v-.25c0-.8-.33-1.75-1.5-1.75s-1.87.81-1.87,4.24.58,4.34,1.74,4.34,1.79-.94,1.79-3.28H273v-1.3h3.43v5.66h-1.29Z"/><path class="cls-5" d="M277.88,59.85H280l3.11,8h0v-8h1.63V70.59h-2.09l-3.12-8.22h0v8.22h-1.62Z"/><path class="cls-5" d="M286.52,59.85h3.05c3.37,0,3.79,2.19,3.79,5.37s-.42,5.37-3.79,5.37h-3.05Zm1.71,9.44h1.42c1.41,0,2-.93,2-4.07s-.51-4.08-2-4.08h-1.42Z"/><polygon class="cls-4" points="15.18 56.52 2.16 65.02 15.18 73.51 15.18 73.57 84.95 73.57 84.95 56.47 15.18 56.47 15.18 56.52"/><polygon class="cls-4" points="84.95 56.52 84.95 73.51 97.97 65.02 84.95 56.52"/><path class="cls-5" d="M47.12,68.26h0a2.25,2.25,0,0,1-2.35,1.46c-2.35,0-3.19-1.75-3.19-5.59s1.08-5.58,3.57-5.58a2.92,2.92,0,0,1,3.14,3.1v.2H46.63v-.26c0-.8-.33-1.74-1.5-1.74s-1.87.81-1.87,4.24.58,4.33,1.74,4.33,1.79-.93,1.79-3.28H45V63.85h3.43V69.5H47.12Z"/><path class="cls-5" d="M49.89,58.76H52l3.11,8h0v-8h1.63V69.5H54.66l-3.12-8.21h0V69.5H49.89Z"/><path class="cls-5" d="M58.53,58.76h3c3.37,0,3.79,2.2,3.79,5.37S65,69.5,61.58,69.5h-3Zm1.71,9.45h1.42c1.41,0,2-.93,2-4.08s-.51-4.07-2-4.07H60.24Z"/><circle class="cls-6" cx="101.44" cy="109.92" r="2.64"/><circle class="cls-6" cx="228.38" cy="109.92" r="2.64"/><polygon class="cls-7" points="245.5 34.23 232.48 42.73 245.5 51.22 245.5 51.28 315.27 51.28 315.27 34.17 245.5 34.17 245.5 34.23"/><polygon class="cls-7" points="315.27 34.23 315.27 51.22 328.29 42.73 315.27 34.23"/><path class="cls-5" d="M251.76,37.33h1.72v9.3h4.15v1.44h-5.87Z"/><path class="cls-5" d="M258.22,44c0-2.53.66-4.26,3-4.26s3,1.73,3,4.26-.78,4.25-3,4.25S258.22,46.55,258.22,44Zm3,3c1.19,0,1.4-1,1.4-3,0-1.79-.21-3.06-1.4-3.06s-1.39,1.27-1.39,3.06C259.84,46.09,260.07,47.08,261.23,47.08Z"/><path class="cls-5" d="M265.61,37.33h3.79a2.49,2.49,0,0,1,2.72,2.77c0,1.38-.6,2.45-1.79,2.63v0c1.09.11,1.63.7,1.69,2.2,0,.71,0,1.53.06,2.18a1.13,1.13,0,0,0,.51.93h-1.94a1.77,1.77,0,0,1-.29-.94c0-.32,0-.65,0-1s0-.67,0-1.07c-.05-1.17-.41-1.68-1.57-1.68h-1.4v4.66h-1.71Zm3.08,4.79a1.59,1.59,0,0,0,1.72-1.75c0-1.14-.48-1.74-1.63-1.74h-1.46v3.49Z"/><path class="cls-5" d="M278.9,46.39c0,.3.18.57.42.57a.64.64,0,0,0,.27,0v1a1.81,1.81,0,0,1-.8.19c-.72,0-1.32-.28-1.37-1.06h0a2.08,2.08,0,0,1-2,1.18c-1.31,0-2.11-.7-2.11-2.27a2.23,2.23,0,0,1,1.88-2.54l1.27-.35c.58-.16.94-.33.94-1s-.25-1.21-1.11-1.21c-1.08,0-1.23.77-1.23,1.55h-1.54c0-1.73.71-2.66,2.84-2.66,1.43,0,2.58.56,2.58,2Zm-1.54-2.59a12.89,12.89,0,0,1-1.8.75,1.34,1.34,0,0,0-.67,1.31c0,.68.34,1.22,1,1.22,1,0,1.46-.72,1.46-1.93Z"/><path class="cls-5" d="M285.47,45.11c0,.93.32,2,1.46,2s1.49-.86,1.49-1.91c0-1.32-.42-2-1.73-2H286V42h.62c1.14,0,1.53-.78,1.53-1.82,0-.77-.34-1.53-1.23-1.53-1.05,0-1.35.9-1.35,1.86H284A2.73,2.73,0,0,1,287,37.42a2.59,2.59,0,0,1,2.86,2.72,2.27,2.27,0,0,1-1.7,2.34v0A2.21,2.21,0,0,1,290.14,45c0,2.12-1,3.29-3.25,3.29-1.93,0-3-.94-3-3.17Z"/><path class="cls-5" d="M291.56,46.09h1.71v2h-1.71Z"/><path class="cls-5" d="M296.31,45.11c0,.93.32,2,1.46,2s1.49-.86,1.49-1.91c0-1.32-.42-2-1.73-2h-.66V42h.62c1.14,0,1.53-.78,1.53-1.82,0-.77-.35-1.53-1.23-1.53-1.06,0-1.36.9-1.36,1.86h-1.62a2.73,2.73,0,0,1,3.07-3.07,2.59,2.59,0,0,1,2.86,2.72,2.28,2.28,0,0,1-1.7,2.34v0A2.22,2.22,0,0,1,301,45c0,2.12-1,3.29-3.25,3.29-1.93,0-3-.94-3-3.17Z"/><path class="cls-5" d="M301.35,37.33h1.82L305,45.91h0L307,37.33h1.82l-2.71,10.74h-2.18Z"/><polygon class="cls-7" points="15.18 33.87 2.16 42.36 15.18 50.86 15.18 50.91 84.95 50.91 84.95 33.81 15.18 33.81 15.18 33.87"/><polygon class="cls-7" points="84.95 33.87 84.95 50.86 97.97 42.36 84.95 33.87"/><path class="cls-5" d="M42,44.25c0,.94.32,2,1.46,2S45,45.37,45,44.31c0-1.32-.42-2-1.73-2h-.66V41.12h.61c1.15,0,1.54-.78,1.54-1.82,0-.76-.35-1.53-1.24-1.53-1,0-1.35.9-1.35,1.86H40.5a2.73,2.73,0,0,1,3.07-3.07,2.59,2.59,0,0,1,2.85,2.73,2.26,2.26,0,0,1-1.7,2.33v.05a2.2,2.2,0,0,1,1.94,2.46c0,2.12-1,3.3-3.24,3.3-1.93,0-3-1-3-3.18Z"/><path class="cls-5" d="M47,36.47h1.82l1.82,8.58h0l1.93-8.58h1.82L51.75,47.22H49.57Z"/><path class="cls-5" d="M56.46,44.25c0,.94.32,2,1.46,2s1.49-.85,1.49-1.91c0-1.32-.42-2-1.73-2H57V41.12h.62c1.14,0,1.53-.78,1.53-1.82,0-.76-.34-1.53-1.23-1.53-1.06,0-1.36.9-1.36,1.86H55A2.73,2.73,0,0,1,58,36.56a2.59,2.59,0,0,1,2.86,2.73,2.27,2.27,0,0,1-1.7,2.33v.05a2.2,2.2,0,0,1,1.94,2.46c0,2.12-1,3.3-3.25,3.3-1.93,0-3-1-3-3.18Z"/><circle class="cls-7" cx="101.44" cy="41.99" r="2.64"/><circle class="cls-7" cx="228.38" cy="41.99" r="2.64"/><line class="cls-8" x1="101.07" y1="42.36" x2="228.02" y2="42.36"/><line class="cls-9" x1="101.07" y1="65.73" x2="228.02" y2="65.73"/><line class="cls-10" x1="101.07" y1="87.93" x2="228.02" y2="87.93"/><line class="cls-11" x1="101.07" y1="110.12" x2="228.02" y2="110.12"/><polygon class="cls-12" points="245.5 78.77 232.48 87.26 245.5 95.76 245.5 95.81 315.27 95.81 315.27 78.71 245.5 78.71 245.5 78.77"/><polygon class="cls-12" points="315.27 78.77 315.27 95.76 328.29 87.26 315.27 78.77"/><path class="cls-5" d="M250,82.32V90c0,1.37.54,2,1.58,2s1.57-.58,1.57-2V82.32h1.71v7.57c0,2.49-1.23,3.39-3.28,3.39s-3.3-.9-3.3-3.39V82.32Z"/><path class="cls-5" d="M258.5,82.32h2.2l2.83,10.75h-1.79l-.66-2.64h-3.15l-.69,2.64h-1.79Zm2.29,6.74-1.23-5.29h0l-1.28,5.29Z"/><path class="cls-5" d="M264.28,82.32h3.8a2.49,2.49,0,0,1,2.72,2.77c0,1.39-.6,2.45-1.79,2.64v0c1.08.1,1.62.69,1.68,2.19,0,.71,0,1.54.06,2.18a1.22,1.22,0,0,0,.51.94h-1.94a1.85,1.85,0,0,1-.28-.95c0-.32-.05-.65-.05-1s0-.68,0-1.07c0-1.18-.4-1.69-1.56-1.69H266v4.67h-1.72Zm3.09,4.79a1.58,1.58,0,0,0,1.71-1.75c0-1.14-.48-1.74-1.62-1.74H266v3.49Z"/><path class="cls-5" d="M273.86,83.77H271.3V82.32h6.78v1.45h-2.51v9.3h-1.71Z"/><path class="cls-5" d="M281.29,93.07V85.33h-2.21V84.22h.16c1,0,2.2-.26,2.52-1.59v-.21H283V93.07Z"/><path class="cls-5" d="M285.4,94.2h7.52V95H285.4Z"/><path class="cls-5" d="M293.81,82.32h3.79a2.49,2.49,0,0,1,2.73,2.77c0,1.39-.6,2.45-1.79,2.64v0c1.08.1,1.62.69,1.68,2.19,0,.71,0,1.54.06,2.18a1.22,1.22,0,0,0,.51.94h-1.94a1.85,1.85,0,0,1-.28-.95c0-.32-.05-.65-.05-1s0-.68,0-1.07c0-1.18-.41-1.69-1.56-1.69h-1.4v4.67h-1.72Zm3.09,4.79a1.58,1.58,0,0,0,1.71-1.75c0-1.14-.48-1.74-1.62-1.74h-1.46v3.49Z"/><path class="cls-5" d="M303.83,87.61l-2.58-5.29h1.89l1.72,3.57,1.68-3.57h1.85l-2.6,5.29,2.74,5.46h-1.9l-1.86-3.89-1.91,3.89H301Z"/><path class="cls-5" d="M309.42,82.32h3.05c3.37,0,3.8,2.2,3.8,5.38s-.43,5.37-3.8,5.37h-3.05Zm1.71,9.45h1.42c1.41,0,2-.93,2-4.07s-.51-4.08-2-4.08h-1.42Z"/><polygon class="cls-12" points="15.18 78.77 2.16 87.26 15.18 95.76 15.18 95.81 84.95 95.81 84.95 78.71 15.18 78.71 15.18 78.77"/><polygon class="cls-12" points="84.95 78.77 84.95 95.76 97.97 87.26 84.95 78.77"/><path class="cls-5" d="M37.26,81.32V89c0,1.37.54,2,1.58,2s1.56-.58,1.56-2V81.32h1.72v7.57c0,2.49-1.24,3.39-3.28,3.39s-3.3-.9-3.3-3.39V81.32Z"/><path class="cls-5" d="M42.87,93.2h7.52V94H42.87Z"/><path class="cls-5" d="M53,82.77H50.49V81.32h6.78v1.45H54.76v9.3H53Z"/><path class="cls-5" d="M60.19,86.61l-2.58-5.29H59.5l1.72,3.57,1.68-3.57h1.85l-2.6,5.29,2.74,5.46H63l-1.86-3.89-1.91,3.89H57.37Z"/><circle class="cls-12" cx="101.44" cy="87.93" r="2.64"/><circle class="cls-12" cx="228.38" cy="87.93" r="2.64"/><polygon class="cls-6" points="245.5 101.42 232.48 109.92 245.5 118.41 245.5 118.47 315.27 118.47 315.27 101.37 245.5 101.37 245.5 101.42"/><polygon class="cls-6" points="315.27 101.42 315.27 118.41 328.29 109.92 315.27 101.42"/><path class="cls-5" d="M249.22,104.4v7.7c0,1.37.54,2,1.58,2s1.56-.59,1.56-2v-7.7h1.72V112c0,2.48-1.23,3.38-3.28,3.38s-3.3-.9-3.3-3.38V104.4Z"/><path class="cls-5" d="M257.75,104.4H260l2.83,10.74H261l-.66-2.63h-3.15l-.69,2.63H254.7Zm2.29,6.74-1.23-5.3h0l-1.28,5.3Z"/><path class="cls-5" d="M263.53,104.4h3.79a2.49,2.49,0,0,1,2.73,2.77c0,1.38-.6,2.45-1.79,2.63v0c1.08.11,1.62.69,1.68,2.2,0,.7,0,1.53.06,2.18a1.2,1.2,0,0,0,.51.93h-1.94a1.81,1.81,0,0,1-.28-1c0-.31-.05-.64-.05-1s0-.68,0-1.07c0-1.17-.4-1.68-1.56-1.68h-1.4v4.66h-1.72Zm3.09,4.78a1.58,1.58,0,0,0,1.71-1.74c0-1.15-.48-1.75-1.62-1.75h-1.46v3.49Z"/><path class="cls-5" d="M273.1,105.84h-2.55V104.4h6.78v1.44h-2.51v9.3H273.1Z"/><path class="cls-5" d="M280.54,115.14v-7.73h-2.21v-1.12h.16c1,0,2.2-.25,2.52-1.59v-.21h1.24v10.65Z"/><path class="cls-5" d="M284.65,116.27h7.52V117h-7.52Z"/><path class="cls-5" d="M294.82,105.84h-2.56V104.4h6.79v1.44h-2.51v9.3h-1.72Z"/><path class="cls-5" d="M302,109.68l-2.59-5.28h1.9L303,108l1.69-3.56h1.85l-2.6,5.28,2.74,5.46h-1.9l-1.87-3.88L301,115.14h-1.85Z"/><path class="cls-5" d="M307.56,104.4h3.05c3.37,0,3.79,2.2,3.79,5.37s-.42,5.37-3.79,5.37h-3.05Zm1.71,9.45h1.41c1.42,0,2-.94,2-4.08s-.52-4.08-2-4.08h-1.41Z"/><polygon class="cls-6" points="15.18 101.42 2.16 109.92 15.18 118.41 15.18 118.47 84.95 118.47 84.95 101.37 15.18 101.37 15.18 101.42"/><polygon class="cls-6" points="84.95 101.42 84.95 118.41 97.97 109.92 84.95 101.42"/><path class="cls-5" d="M37.26,104.4v7.7c0,1.37.54,2,1.58,2s1.56-.59,1.56-2v-7.7h1.72V112c0,2.48-1.24,3.38-3.28,3.38s-3.3-.9-3.3-3.38V104.4Z"/><path class="cls-5" d="M42.87,116.27h7.52V117H42.87Z"/><path class="cls-5" d="M51.28,104.4h3.8a2.49,2.49,0,0,1,2.72,2.77c0,1.38-.6,2.45-1.79,2.63v0c1.08.11,1.62.69,1.68,2.2,0,.7,0,1.53.06,2.18a1.2,1.2,0,0,0,.51.93H56.32a1.81,1.81,0,0,1-.28-1c0-.31,0-.64,0-1s0-.68,0-1.07c0-1.17-.4-1.68-1.56-1.68H53v4.66H51.28Zm3.09,4.78a1.58,1.58,0,0,0,1.71-1.74c0-1.15-.48-1.75-1.62-1.75H53v3.49Z"/><path class="cls-5" d="M61.31,109.68l-2.59-5.28h1.9L62.33,108,64,104.4h1.86l-2.61,5.28L66,115.14H64.11l-1.87-3.88-1.91,3.88H58.48Z"/><circle class="cls-4" cx="101.07" cy="65.73" r="2.64"/><circle class="cls-4" cx="228.02" cy="65.73" r="2.64"/></g></g></svg>