<svg xmlns="http://www.w3.org/2000/svg" viewBox="0 0 46.12143 25.65987"><defs><style>.cls-1{fill:#fff200;}.cls-2{fill:#7f7f7f;}.cls-3{fill:#333;}.cls-4{fill:#b2b2b2;}.cls-5{fill:#ec2024;}.cls-10,.cls-6{fill:#fff;}.cls-7{fill:#242424;}.cls-10,.cls-11,.cls-7,.cls-8,.cls-9{opacity:0.5;}.cls-8{fill:#deaa53;}.cls-11,.cls-9{fill:none;}.cls-9{stroke:#fff;stroke-linecap:round;stroke-miterlimit:10;stroke-width:0.18041px;}.cls-12{fill:#e9f3fa;}.cls-13{fill:#414954;}.cls-14{fill:#373940;}.cls-15{fill:#be904b;}</style></defs><g id="Layer_2" data-name="Layer 2"><g id="Layer_1-2" data-name="Layer 1"><polygon class="cls-1" points="29.296 6.605 30.913 6.605 31.722 7.409 30.913 8.212 29.296 8.212 28.487 7.409 29.296 6.605"/><polygon class="cls-1" points="29.296 17.411 30.913 17.411 31.722 18.215 30.913 19.018 29.296 19.018 28.487 18.215 29.296 17.411"/><rect class="cls-2" x="37.63015" width="2.30233" height="25.65987"/><rect class="cls-2" x="34.73367" width="2.30233" height="25.65987"/><rect class="cls-3" x="33.39683" width="1.33684" height="1.59678" rx="0.22355"/><rect class="cls-3" x="34.99361" width="2.00526" height="1.59678" rx="0.19198"/><rect class="cls-4" x="34.99361" y="2.1538" width="2.00526" height="1.59678" rx="0.19198"/><rect class="cls-4" x="34.99361" y="4.38186" width="2.00526" height="1.59678" rx="0.19198"/><rect class="cls-1" x="34.99361" y="6.60992" width="2.00526" height="1.59678" rx="0.19198"/><path class="cls-4" d="M35.1856,8.72658h1.62129a.192.192,0,0,1,.192.192v1.21281a.192.192,0,0,1-.192.192H35.1856a.192.192,0,0,1-.192-.192V8.91857A.192.192,0,0,1,35.1856,8.72658Z"/><rect class="cls-1" x="34.99361" y="10.88038" width="2.00526" height="1.59678" rx="0.19199"/><path class="cls-5" d="M35.1856,13.07131h1.62129a.192.192,0,0,1,.192.192V14.4761a.192.192,0,0,1-.192.192H35.1856a.192.192,0,0,1-.192-.192V13.26329A.192.192,0,0,1,35.1856,13.07131Z"/><path class="cls-4" d="M35.1856,15.2251h1.62129a.192.192,0,0,1,.192.192V16.6299a.192.192,0,0,1-.192.192H35.1856a.192.192,0,0,1-.192-.192V15.41709A.192.192,0,0,1,35.1856,15.2251Z"/><path class="cls-1" d="M35.1856,17.416h1.62129a.192.192,0,0,1,.192.192v1.21281a.192.192,0,0,1-.192.192H35.1856a.192.192,0,0,1-.192-.192V17.608A.192.192,0,0,1,35.1856,17.416Z"/><rect class="cls-4" x="34.99361" y="19.6441" width="2.00526" height="1.59678" rx="0.19198"/><rect class="cls-4" x="34.99361" y="21.9093" width="2.00526" height="1.59678" rx="0.19198"/><rect class="cls-4" x="34.99361" y="24.06309" width="2.00526" height="1.59678" rx="0.19198"/><rect class="cls-4" x="37.63015" width="2.00526" height="1.59678" rx="0.19198"/><rect class="cls-4" x="37.63015" y="2.1538" width="2.00526" height="1.59678" rx="0.19198"/><rect class="cls-4" x="37.63015" y="4.38186" width="2.00526" height="1.59678" rx="0.19198"/><rect class="cls-1" x="37.63015" y="6.60992" width="2.00526" height="1.59678" rx="0.19198"/><path class="cls-4" d="M37.82214,8.72658h1.62129a.192.192,0,0,1,.192.192v1.21281a.192.192,0,0,1-.192.192H37.82214a.192.192,0,0,1-.192-.192V8.91857A.192.192,0,0,1,37.82214,8.72658Z"/><path class="cls-5" d="M37.82214,10.88038h1.62129a.192.192,0,0,1,.192.192v1.21281a.192.192,0,0,1-.192.192H37.82214a.192.192,0,0,1-.192-.192V11.07236A.192.192,0,0,1,37.82214,10.88038Z"/><path class="cls-1" d="M37.82214,13.07131h1.62129a.192.192,0,0,1,.192.192V14.4761a.192.192,0,0,1-.192.192H37.82214a.192.192,0,0,1-.192-.192V13.26329A.192.192,0,0,1,37.82214,13.07131Z"/><path class="cls-4" d="M37.82214,15.2251h1.62129a.192.192,0,0,1,.192.192V16.6299a.192.192,0,0,1-.192.192H37.82214a.192.192,0,0,1-.192-.192V15.41709A.192.192,0,0,1,37.82214,15.2251Z"/><path class="cls-1" d="M37.82214,17.416h1.62129a.192.192,0,0,1,.192.192v1.21281a.192.192,0,0,1-.192.192H37.82214a.192.192,0,0,1-.192-.192V17.608A.192.192,0,0,1,37.82214,17.416Z"/><rect class="cls-4" x="37.63015" y="19.6441" width="2.00526" height="1.59678" rx="0.19198"/><rect class="cls-4" x="37.63015" y="21.9093" width="2.00526" height="1.59678" rx="0.19198"/><rect class="cls-3" x="37.63015" y="24.06309" width="2.00526" height="1.59678" rx="0.19198"/><path class="cls-6" d="M35.65558.77871A.3001.3001,0,0,1,35.962.437a.26886.26886,0,0,1,.28936.26451c0,.2556-.27155.276-.39435.44962h.39917V1.2997h-.62007c0-.19667.1206-.27756.26643-.37775.07422-.05158.17738-.10242.17738-.20632a.12134.12134,0,0,0-.12654-.13025c-.1013,0-.134.105-.134.19444Z"/><path class="cls-6" d="M38.81846,1.2997h-.22281V.66842h-.22281V.52587c.13868.00378.26507-.04414.28735-.19166h.15827Z"/><path class="cls-6" d="M38.59565,2.929c.085.00637.20826-.0092.20826-.11246a.12447.12447,0,0,0-.12942-.11881l-.00917.00033a.14315.14315,0,0,0-.15083.16127h-.18874a.31276.31276,0,0,1,.33843-.31228c.15619,0,.32808.08877.32808.25039a.18118.18118,0,0,1-.13667.18355v.00247a.20427.20427,0,0,1,.173.20513.32428.32428,0,0,1-.36331.29707.32017.32017,0,0,1-.3633-.32926h.18873a.16517.16517,0,0,0,.17189.17683.1467.1467,0,0,0,.159-.13058l.00023-.01088c0-.13687-.12978-.134-.22625-.134Z"/><path class="cls-6" d="M38.96661,4.90174H38.5648l-.03809.2209.00267.00267a.24789.24789,0,0,1,.19043-.07617.302.302,0,0,1,.30012.331.3523.3523,0,0,1-.35408.35051l-.00736-.00012a.32433.32433,0,0,1-.36144-.30888h.19722a.15622.15622,0,0,0,.16082.14739.17778.17778,0,0,0,.16965-.18922.17089.17089,0,0,0-.16965-.18347.16239.16239,0,0,0-.14969.07676h-.1593l.0925-.51988H38.967Z"/><path class="cls-6" d="M38.50967,9.76635a.1359.1359,0,0,0,.12737.11771c.14074,0,.17491-.18567.18159-.28853l-.0026-.0026a.23914.23914,0,0,1-.21427.10546.30374.30374,0,0,1-.21835-.09729.32416.32416,0,0,1-.07426-.21167.32913.32913,0,0,1,.33421-.34683c.287,0,.36428.25066.36428.49054,0,.23321-.10286.49612-.37134.49612a.28934.28934,0,0,1-.30784-.26291Zm.29151-.40457a.16286.16286,0,0,0-.15337-.176.15472.15472,0,0,0-.14482.17342c0,.0869.046.179.14482.179A.15942.15942,0,0,0,38.80118,9.36178Z"/><path class="cls-6" d="M38.44673,12.18008h-.22242V11.5488H38.0015v-.14262c.13856.00415.26483-.04384.28709-.19159h.15852Z"/><path class="cls-6" d="M39.1898,12.18008h-.18567V11.5488h-.22281v-.14262a.22549.22549,0,0,0,.2634-.19159h.14508Z"/><path class="cls-6" d="M38.44673,18.75287h-.22242v-.63128H38.0015v-.14225c.13856.00416.26483-.04421.28709-.192h.15852Z"/><path class="cls-6" d="M39.33834,17.95591a1.21314,1.21314,0,0,0-.30277.797h-.19648a1.402,1.402,0,0,1,.32277-.77982h-.45481v-.18567h.63129Z"/><path class="cls-6" d="M38.44673,20.9438h-.22242v-.63128H38.0015v-.14217c.13856.00416.26483-.04423.28709-.192h.15852Z"/><path class="cls-6" d="M38.88659,20.721a.13554.13554,0,0,0,.12737.11809c.14073,0,.1749-.18568.18158-.28891l-.0026-.0026a.2395.2395,0,0,1-.21426.10583.303.303,0,0,1-.21835-.09766.3238.3238,0,0,1-.07427-.2113.329.329,0,0,1,.332-.3472c.28742,0,.36466.251.36466.49091,0,.23284-.10286.49575-.37134.49575a.289.289,0,0,1-.30748-.26292Zm.29113-.402a.1629.1629,0,0,0-.153-.17639.15518.15518,0,0,0-.1452.17342c0,.08652.046.179.1452.179a.15861.15861,0,0,0,.153-.176Z"/><path class="cls-6" d="M37.97421,22.65162a.32915.32915,0,0,1,.336-.37441.295.295,0,0,1,.31751.29c0,.28053-.29757.303-.43277.49329h.43784V23.209h-.66431c0-.21247.12925-.29745.28577-.40475.079-.05559.19016-.10977.19016-.221a.12991.12991,0,0,0-.136-.13952c-.10836,0-.14342.1126-.14342.20821Z"/><path class="cls-6" d="M39.1898,23.209h-.18567v-.63129h-.22281v-.14262a.22574.22574,0,0,0,.2634-.19158h.14508Z"/><path class="cls-6" d="M37.9748,24.80578a.32886.32886,0,0,1,.33569-.37408.29477.29477,0,0,1,.31722.2897c0,.27993-.2973.30238-.43238.49286h.43745v.18567h-.7086c0-.22474.13787-.31691.30482-.43135.08423-.05931.20284-.1171.20284-.2357a.13862.13862,0,0,0-.145-.14882c-.11558,0-.153.11973-.153.22172Z"/><path class="cls-6" d="M38.967,24.83912c.08511.0067.20818-.00881.20818-.11171a.124.124,0,0,0-.12771-.12011l-.01069.0003a.14322.14322,0,0,0-.15106.161h-.189a.3125.3125,0,0,1,.33854-.31152c.15681,0,.32895.08881.32895.2495a.1799.1799,0,0,1-.13726.18395v.00282a.20387.20387,0,0,1,.17368.2044.32425.32425,0,0,1-.36384.29566.31992.31992,0,0,1-.36384-.32773h.189a.165.165,0,0,0,.17215.1762.14671.14671,0,0,0,.15926-.13012l.00023-.01084c0-.13638-.13036-.13391-.22659-.13391Z"/><path class="cls-6" d="M35.99624,3.26783H35.6249V3.11506l.36673-.47852h.15315v.48275h.1114v.14854h-.1114V3.4535h-.14854Zm-.00075-.44562h-.00376l-.22112.29708h.22563Z"/><rect class="cls-3" x="39.93249" y="24.06309" width="1.33684" height="1.59678" rx="0.22355"/><path class="cls-6" d="M35.7363,12.18008h-.14854v-.557H35.365v-.12746c.11564.00375.22087-.03753.23954-.16962h.1318Z"/><path class="cls-6" d="M35.99039,11.622a.2994.2994,0,0,1,.30574-.341.26864.26864,0,0,1,.28944.26387c0,.25572-.27128.2761-.39395.44954h.39877V12.143h-.62c0-.19653.12089-.27737.26662-.37749.07416-.05191.17725-.10235.17725-.20617a.12126.12126,0,0,0-.12645-.13016c-.10123,0-.13386.10494-.13386.19394Z"/><path class="cls-6" d="M35.7363,16.56194h-.14854v-.557H35.365v-.12746c.11564.00375.22087-.03753.23954-.16962h.1318Z"/><path class="cls-6" d="M36.41826,15.93066a.12067.12067,0,0,0-.11363-.10472c-.12291,0-.15819.16413-.1619.257l.0026.0026a.21276.21276,0,0,1,.19087-.09432.2696.2696,0,0,1,.19421.08689.28748.28748,0,0,1,.06536.18827.294.294,0,0,1-.29708.30933c-.25586,0-.32493-.2228-.32493-.43707,0-.208.0921-.4419.33421-.4419a.25754.25754,0,0,1,.27406.234Zm-.25994.33421a.14482.14482,0,0,0,.13628.1567.13813.13813,0,0,0,.12923-.15448c0-.07724-.04085-.1593-.12923-.1593a.14111.14111,0,0,0-.13591.15708Z"/><path class="cls-6" d="M35.7363,18.75287h-.14854v-.557H35.365V18.0684c.11564.00375.22087-.03753.23954-.16962h.1318Z"/><path class="cls-6" d="M36.27553,17.86253a.26289.26289,0,0,1,.29466.23689.18455.18455,0,0,1-.12834.18532v.00272a.20471.20471,0,0,1,.16517.21556.2956.2956,0,0,1-.33033.27722c-.16517,0-.33537-.08569-.33537-.276a.20819.20819,0,0,1,.16632-.21673v-.00272a.176.176,0,0,1-.12988-.18144A.2684.2684,0,0,1,36.27553,17.86253Zm.01128.76911a.13888.13888,0,0,0,.14474-.13276l.00008-.00984a.13628.13628,0,0,0-.13713-.13543l-.00769.00026a.13352.13352,0,0,0-.14854.13406.14259.14259,0,0,0,.14054.14461l.00911-.00016Zm0-.39251a.1148.1148,0,1,0,0-.22838.11772.11772,0,0,0-.12867.10564l-.00056.01133a.11558.11558,0,0,0,.12923.11141Z"/><path class="cls-6" d="M35.322,22.688a.29986.29986,0,0,1,.30612-.341.26852.26852,0,0,1,.28906.26387c0,.25572-.27091.2761-.39395.44954H35.922V23.209h-.61963c0-.19653.12052-.27737.26625-.37749.07416-.05191.17725-.10234.17725-.20617a.12126.12126,0,0,0-.12645-.13016c-.10123,0-.13386.10494-.13386.19394Z"/><path class="cls-6" d="M35.99039,22.688a.2994.2994,0,0,1,.30574-.341.26864.26864,0,0,1,.28944.26387c0,.25572-.27128.2761-.39395.44954h.39877V23.209h-.62c0-.19653.12089-.27737.26662-.37749.07416-.05191.17725-.10234.17725-.20617a.12126.12126,0,0,0-.12645-.13016c-.10123,0-.13386.10494-.13386.19394Z"/><path class="cls-6" d="M36.08257,5.08741a.12069.12069,0,0,0-.11363-.10509c-.12292,0-.1582.16414-.16154.257l.00223.0026a.21277.21277,0,0,1,.19087-.09432.26958.26958,0,0,1,.19421.08689.28746.28746,0,0,1,.06536.18865.29372.29372,0,0,1-.29708.309c-.25585,0-.32455-.22281-.32455-.43708,0-.20758.09172-.4419.332-.4419a.25756.25756,0,0,1,.27405.23432Zm-.25994.33421a.14515.14515,0,0,0,.13628.15708.13846.13846,0,0,0,.12922-.15485c0-.07724-.04084-.15931-.12922-.15931a.14112.14112,0,0,0-.13591.15708Z"/><polygon class="cls-3" points="33.585 0 31.73 0 30.802 0.799 31.73 1.597 33.585 1.597 34.513 0.799 33.585 0"/><path class="cls-6" d="M32.25043,1.08762a.2971.2971,0,0,1-.24292.12166.42765.42765,0,0,1-.43513-.45992.42993.42993,0,0,1,.43513-.46754.35394.35394,0,0,1,.37334.31233h-.18959a.17857.17857,0,0,0-.18578-.14756c-.17329,0-.23837.14756-.23837.30269,0,.14643.06508.294.23837.294a.18893.18893,0,0,0,.20924-.18919h-.19186V.70555h.37134V1.1883h-.12394Z"/><path class="cls-6" d="M32.54274.33421h.14233l.37522.557h.00233v-.557h.18568V1.1883h-.19169L32.69353.59415h-.00225V1.1883h-.14854Z"/><path class="cls-6" d="M33.434.33421h.36782a.37505.37505,0,0,1,.38769.42226.37969.37969,0,0,1-.38769.43183H33.434Zm.18643.66842h.17226c.11384,0,.21932-.06944.21932-.26561,0-.178-.063-.29141-.25422-.29141h-.13812Z"/><polygon class="cls-3" points="41.09 24.063 42.944 24.063 43.872 24.862 42.944 25.66 41.09 25.66 40.162 24.862 41.09 24.063"/><path class="cls-6" d="M41.12516,25.14983a.29667.29667,0,0,1-.24154.121.46348.46348,0,0,1,0-.92508.353.353,0,0,1,.37239.31153h-.18925a.179.179,0,0,0-.18578-.14756c-.17368,0-.23876.14756-.23876.30269,0,.14643.06508.294.23876.294a.18914.18914,0,0,0,.20924-.18919H40.898v-.14854h.37135v.48275H41.1457Z"/><path class="cls-6" d="M41.41786,24.36017H41.559l.376.59415h.00272v-.59415h.18567v.89122h-.19168l-.362-.59415H41.5664v.59415h-.14854Z"/><path class="cls-6" d="M42.30909,24.3973h.36783a.3748.3748,0,0,1,.38732.42226.37942.37942,0,0,1-.38732.43183h-.36783Zm.18567.70555h.17265c.11383,0,.21969-.06905.21969-.2656,0-.17758-.063-.29141-.25422-.29141h-.13812Z"/><path class="cls-6" d="M35.94132,6.98991a.26288.26288,0,0,1,.29466.23689.18417.18417,0,0,1-.12834.18533v.00426a.20511.20511,0,0,1,.16517.21557.2956.2956,0,0,1-.33033.27722c-.16517,0-.33537-.08569-.33537-.276a.20859.20859,0,0,1,.16632-.21674V7.41368a.176.176,0,0,1-.12988-.18145A.26824.26824,0,0,1,35.94132,6.98991Zm.00979.76915a.13889.13889,0,0,0,.14475-.13276l.00008-.00984a.13666.13666,0,0,0-.13789-.13541l-.00694.00024a.13352.13352,0,0,0-.14854.13406.14261.14261,0,0,0,.14168.14351l.008-.00017Zm.008-.39251a.1148.1148,0,1,0,0-.22838.11772.11772,0,0,0-.12867.10564l-.00056.01134a.11553.11553,0,0,0,.12923.111Z"/><rect class="cls-4" x="39.93249" width="1.33684" height="1.59678" rx="0.22355"/><path class="cls-6" d="M35.7363,9.98915h-.14854v-.557H35.365V9.30468c.11564.00338.22087-.03753.23954-.16962h.1318Z"/><path class="cls-6" d="M36.28421,9.13266c.169,0,.31155.1062.31155.436,0,.33681-.14259.443-.31155.443s-.309-.1062-.309-.443C35.97525,9.23738,36.11636,9.13266,36.28421,9.13266Zm0,.73786c.14,0,.14-.20647.14-.3019,0-.088,0-.29448-.14-.29448s-.13777.20647-.13777.29448C36.14644,9.66405,36.14644,9.87052,36.28421,9.87052Z"/><path class="cls-6" d="M35.7363,14.40815h-.14854v-.557H35.365v-.12746c.11564.00376.22087-.03752.23954-.16961h.1318Z"/><path class="cls-6" d="M36.33045,14.18534h-.37134V14.033l.36673-.479H36.479v.48274h.1114v.14854H36.479V14.371h-.14854Zm-.00038-.44561h-.00376l-.22149.29707h.22563Z"/><path class="cls-6" d="M35.32137,20.42244a.30016.30016,0,0,1,.30642-.3413.26857.26857,0,0,1,.28936.26413c0,.2556-.27118.276-.39434.45H35.922v.14854H35.3019c0-.19667.1206-.27757.26643-.37739.07422-.052.17738-.10278.17738-.20669a.12133.12133,0,0,0-.112-.13.12006.12006,0,0,0-.01457-.00022c-.1013,0-.134.105-.134.19445Z"/><path class="cls-6" d="M36.28421,20.08991c.169,0,.31155.1062.31155.43558,0,.33718-.14259.44339-.31155.44339s-.30933-.10621-.30933-.44339C35.97488,20.19611,36.11636,20.08991,36.28421,20.08991Zm0,.73749c.14,0,.14-.20647.14-.30191,0-.088,0-.29447-.14-.29447s-.13777.20646-.13777.29447C36.14644,20.62093,36.14644,20.8274,36.28421,20.8274Z"/><path class="cls-6" d="M35.322,24.8418a.29986.29986,0,0,1,.30612-.34095.26852.26852,0,0,1,.28906.26387c0,.25571-.27091.2761-.39395.44954H35.922v.14853h-.61963c0-.19653.12052-.27736.26662-.37748.07416-.05192.17725-.10235.17725-.20618a.12123.12123,0,0,0-.12682-.13015c-.10123,0-.13386.10494-.13386.19393Z"/><path class="cls-6" d="M36.33045,25.17712h-.37134v-.15267l.36673-.47861H36.479v.48274h.1114v.14854H36.479v.18567h-.14854Zm-.00075-.44561h-.00376l-.22112.29707h.22563Z"/><path class="cls-6" d="M38.967,7.07516a1.21344,1.21344,0,0,0-.30243.79733h-.195a1.40144,1.40144,0,0,1,.32261-.77982h-.45646V6.907H38.967Z"/><polygon class="cls-4" points="42.319 0 40.713 0 39.91 0.799 40.713 1.597 42.319 1.597 43.123 0.799 42.319 0"/><path class="cls-6" d="M40.45237.33421h.1779l.3764.557h.00272v-.557h.18567V1.1883h-.19194L40.64029.59415H40.638V1.1883h-.18567Z"/><path class="cls-6" d="M41.90046.59312A.17458.17458,0,0,0,41.72587.453c-.15807,0-.2173.1343-.2173.27549,0,.13327.05923.26758.2173.26758A.17929.17929,0,0,0,41.907.817h.17218a.3362.3362,0,0,1-.3516.3268.38624.38624,0,0,1-.39327-.41531.3883.3883,0,0,1,.39327-.42219A.3247.3247,0,0,1,42.072.59415Z"/><rect class="cls-4" x="39.93249" y="2.1538" width="1.33684" height="1.59678" rx="0.22355"/><polygon class="cls-4" points="42.319 2.154 40.713 2.154 39.91 2.953 40.713 3.751 42.319 3.751 43.123 2.953 42.319 2.154"/><path class="cls-6" d="M40.45237,2.45087h.1779l.3764.59415h.00272V2.45087h.18567V3.3421h-.19194L40.64029,2.748H40.638V3.3421h-.18567Z"/><path class="cls-6" d="M41.90046,2.78405a.17458.17458,0,0,0-.17459-.14016c-.15807,0-.2173.1343-.2173.27549,0,.13327.05923.26758.2173.26758a.17907.17907,0,0,0,.18114-.17907h.17218a.3362.3362,0,0,1-.3516.3268.38624.38624,0,0,1-.39327-.41531.3883.3883,0,0,1,.39327-.42219.3247.3247,0,0,1,.34437.28789Z"/><rect class="cls-4" x="39.93249" y="4.38186" width="1.33684" height="1.59678" rx="0.22355"/><polygon class="cls-4" points="42.319 4.382 40.713 4.382 39.91 5.181 40.713 5.979 42.319 5.979 43.123 5.181 42.319 4.382"/><path class="cls-6" d="M40.45237,4.67893h.1779l.3764.59415h.00272V4.67893h.18567v.89123h-.19194L40.64029,4.976H40.638v.59415h-.18567Z"/><path class="cls-6" d="M41.90046,5.01177a.17425.17425,0,0,0-.17459-.13982c-.15807,0-.2173.13431-.2173.2755,0,.13327.05923.26757.2173.26757A.17907.17907,0,0,0,41.907,5.236h.17218a.33649.33649,0,0,1-.3516.32715.38653.38653,0,0,1-.39327-.41565.38848.38848,0,0,1,.39327-.4222.3247.3247,0,0,1,.34437.28789Z"/><rect class="cls-4" x="33.39683" y="4.38186" width="1.33684" height="1.59678" rx="0.22355"/><polygon class="cls-4" points="32.331 4.382 33.937 4.382 34.741 5.181 33.937 5.979 32.331 5.979 31.528 5.181 32.331 4.382"/><path class="cls-6" d="M32.58143,4.67893h.17674l.37639.59415h.00233V4.67893h.18567v.89123H33.13L32.76817,4.976h-.00262v.59415h-.18567Z"/><path class="cls-6" d="M34.03639,5.01211A.17426.17426,0,0,0,33.8618,4.872c-.15773,0-.2173.13465-.2173.2755,0,.13327.05957.26757.2173.26757a.17935.17935,0,0,0,.18148-.17907h.17012a.336.336,0,0,1-.3516.32681.38618.38618,0,0,1-.39293-.41531.38841.38841,0,0,1,.39293-.4222.32448.32448,0,0,1,.34436.28789Z"/><rect class="cls-4" x="39.93249" y="8.72658" width="1.33684" height="1.59678" rx="0.22355"/><polygon class="cls-4" points="42.319 8.727 40.713 8.727 39.91 9.526 40.713 10.323 42.319 10.323 43.123 9.526 42.319 8.727"/><path class="cls-6" d="M40.45237,9.02366h.1779l.3764.59415h.00272V9.02366h.18567v.89122h-.19194l-.36283-.59415H40.638v.59415h-.18567Z"/><path class="cls-6" d="M41.90046,9.35649a.17423.17423,0,0,0-.17459-.13981c-.15807,0-.2173.1343-.2173.27549,0,.13327.05923.26758.2173.26758a.17908.17908,0,0,0,.18114-.17908h.17218a.33648.33648,0,0,1-.3516.32715.41976.41976,0,0,1,0-.83784.3247.3247,0,0,1,.34437.28789Z"/><rect class="cls-1" x="39.93249" y="13.07131" width="1.33684" height="1.59678" rx="0.22355"/><polygon class="cls-1" points="42.394 13.071 40.787 13.071 39.984 13.87 40.787 14.668 42.394 14.668 43.198 13.87 42.394 13.071"/><rect class="cls-4" x="33.39683" y="8.72658" width="1.33684" height="1.59678" rx="0.22355"/><polygon class="cls-4" points="32.331 8.727 33.937 8.727 34.741 9.526 33.937 10.323 32.331 10.323 31.528 9.526 32.331 8.727"/><path class="cls-6" d="M32.58143,9.02366h.17674l.37639.59415h.00233V9.02366h.18567v.89122H33.13l-.36185-.59415h-.00262v.59415h-.18567Z"/><path class="cls-6" d="M34.03639,9.35683a.17424.17424,0,0,0-.17459-.14015c-.15773,0-.2173.13464-.2173.27549,0,.13327.05957.26758.2173.26758a.17936.17936,0,0,0,.18148-.17908h.17012a.336.336,0,0,1-.3516.32681.4196.4196,0,0,1,0-.8375.32448.32448,0,0,1,.34436.28789Z"/><rect class="cls-4" x="39.93249" y="15.2251" width="1.33684" height="1.59678" rx="0.22355"/><polygon class="cls-4" points="42.319 15.225 40.713 15.225 39.91 16.024 40.713 16.822 42.319 16.822 43.123 16.024 42.319 15.225"/><path class="cls-6" d="M40.45237,15.52218h.1779l.3764.59415h.00272v-.59415h.18567v.89122h-.19194l-.36283-.59415H40.638v.59415h-.18567Z"/><path class="cls-6" d="M41.90046,15.855a.17423.17423,0,0,0-.17459-.13981c-.15807,0-.2173.1343-.2173.27549,0,.13327.05923.26758.2173.26758a.17908.17908,0,0,0,.18114-.17908h.17218a.33648.33648,0,0,1-.3516.32715.41976.41976,0,0,1,0-.83784.3247.3247,0,0,1,.34437.28789Z"/><rect class="cls-4" x="33.39683" y="15.2251" width="1.33684" height="1.59678" rx="0.22355"/><polygon class="cls-4" points="32.331 15.225 33.937 15.225 34.741 16.024 33.937 16.822 32.331 16.822 31.528 16.024 32.331 15.225"/><path class="cls-6" d="M32.58143,15.52218h.17674l.37639.59415h.00233v-.59415h.18567v.89122H33.13l-.36185-.59415h-.00262v.59415h-.18567Z"/><path class="cls-6" d="M34.03639,15.85535a.17424.17424,0,0,0-.17459-.14015c-.15773,0-.2173.13464-.2173.27549,0,.13327.05957.26758.2173.26758a.17936.17936,0,0,0,.18148-.17908h.17012a.336.336,0,0,1-.3516.32681.4196.4196,0,0,1,0-.8375.32448.32448,0,0,1,.34436.28789Z"/><rect class="cls-4" x="33.39683" y="2.19093" width="1.33684" height="1.59678" rx="0.22355"/><polygon class="cls-4" points="32.331 2.191 33.937 2.191 34.741 2.99 33.937 3.788 32.331 3.788 31.528 2.99 32.331 2.191"/><path class="cls-6" d="M32.58143,2.488h.17674l.37639.59416h.00233V2.488h.18567v.89123H33.13l-.36185-.59415h-.00262v.59415h-.18567Z"/><path class="cls-6" d="M34.03631,2.82118a.17426.17426,0,0,0-.17563-.14016c-.15772,0-.21729.13465-.21729.2755,0,.13327.05957.26757.21729.26757a.17936.17936,0,0,0,.18149-.17907h.17011a.336.336,0,0,1-.3516.32681.38617.38617,0,0,1-.39292-.41531.38841.38841,0,0,1,.39292-.4222.32448.32448,0,0,1,.34437.28789Z"/><rect class="cls-4" x="33.39683" y="19.6441" width="1.33684" height="1.59678" rx="0.22355"/><polygon class="cls-4" points="32.333 19.644 33.938 19.644 34.742 20.443 33.938 21.241 32.333 21.241 31.53 20.443 32.333 19.644"/><path class="cls-6" d="M32.57987,19.94117h.1783l.37639.59415h.00233v-.59415h.18567v.89123h-.19168l-.36308-.59415h-.00225v.557h-.18567Z"/><path class="cls-6" d="M34.03822,20.23722a.17492.17492,0,0,0-.17494-.14016c-.15772,0-.217.13464-.217.27549,0,.13327.05923.26757.217.26757a.17935.17935,0,0,0,.18148-.17907h.17012a.336.336,0,0,1-.3516.32681.4196.4196,0,0,1,0-.8375.32427.32427,0,0,1,.34437.28789Z"/><rect class="cls-4" x="33.39683" y="21.87216" width="1.33684" height="1.59678" rx="0.22355"/><polygon class="cls-4" points="32.333 21.872 33.938 21.872 34.742 22.671 33.938 23.469 32.333 23.469 31.53 22.671 32.333 21.872"/><path class="cls-6" d="M32.57987,22.20637h.1783l.37639.59415h.00233v-.59415h.18567v.85409h-.19168l-.36308-.59415h-.00225v.59415h-.18567Z"/><path class="cls-6" d="M34.03822,22.50241a.17493.17493,0,0,0-.17494-.14015c-.15772,0-.217.1343-.217.27549,0,.13327.05923.26757.217.26757a.17935.17935,0,0,0,.18148-.17907h.17012a.336.336,0,0,1-.3516.32681.4196.4196,0,0,1,0-.8375.32427.32427,0,0,1,.34437.28789Z"/><rect class="cls-4" x="33.39683" y="24.06309" width="1.33684" height="1.59678" rx="0.22355"/><polygon class="cls-4" points="32.333 24.063 33.938 24.063 34.742 24.862 33.938 25.66 32.333 25.66 31.53 24.862 32.333 24.063"/><path class="cls-6" d="M32.57987,24.3973h.1783l.37639.59415h.00233V24.3973h.18567v.85409h-.19168l-.36308-.59415h-.00225v.59415h-.18567Z"/><path class="cls-6" d="M34.03822,24.69334a.17493.17493,0,0,0-.17494-.14015c-.15772,0-.217.1343-.217.27549,0,.13327.05923.26757.217.26757a.17935.17935,0,0,0,.18148-.17907h.17012a.336.336,0,0,1-.3516.32681.4196.4196,0,0,1,0-.8375.32427.32427,0,0,1,.34437.28789Z"/><rect class="cls-4" x="39.93249" y="19.6441" width="1.33684" height="1.59678" rx="0.22355"/><polygon class="cls-4" points="42.319 19.644 40.713 19.644 39.91 20.443 40.713 21.241 42.319 21.241 43.123 20.443 42.319 19.644"/><path class="cls-6" d="M40.45237,19.97831h.1779l.3764.557h.00272v-.557h.18567v.85409h-.19194l-.36283-.59415H40.638v.59415h-.18567Z"/><path class="cls-6" d="M41.90046,20.23687a.17424.17424,0,0,0-.17459-.13981c-.15807,0-.2173.1343-.2173.27549,0,.13327.05923.26792.2173.26792a.17937.17937,0,0,0,.18114-.17942h.17218a.33648.33648,0,0,1-.3516.32715.41976.41976,0,0,1,0-.83784.32471.32471,0,0,1,.34437.28789Z"/><rect class="cls-4" x="39.93249" y="21.9093" width="1.33684" height="1.59678" rx="0.22355"/><polygon class="cls-4" points="42.319 21.909 40.713 21.909 39.91 22.708 40.713 23.506 42.319 23.506 43.123 22.708 42.319 21.909"/><path class="cls-6" d="M40.45237,22.24351h.1779l.3764.59415h.00272v-.59415h.18567v.85409h-.19194l-.36283-.59415H40.638v.59415h-.18567Z"/><path class="cls-6" d="M41.90046,22.53955a.17459.17459,0,0,0-.17459-.14016c-.15807,0-.2173.1343-.2173.27549,0,.13327.05923.26758.2173.26758a.17907.17907,0,0,0,.18114-.17907h.17218a.3362.3362,0,0,1-.3516.3268.41957.41957,0,0,1,0-.8375.32471.32471,0,0,1,.34437.28789Z"/><path class="cls-6" d="M38.44673,14.40815h-.22242v-.63129H38.0015v-.14224c.13856.00415.26483-.04422.28709-.192h.15852Z"/><path class="cls-6" d="M38.967,13.81048c.08511.00633.20818-.0088.20818-.11158a.124.124,0,0,0-.12771-.12l-.01069.00029a.143.143,0,0,0-.15106.16051h-.189a.31228.31228,0,0,1,.33854-.3108c.15681,0,.32895.0887.32895.2492a.17972.17972,0,0,1-.13726.18374v.00246a.204.204,0,0,1,.17368.2045.32438.32438,0,0,1-.36384.29532c-.21968,0-.36806-.12073-.36384-.32735h.189a.16486.16486,0,0,0,.17215.176.14665.14665,0,0,0,.15926-.13l.00023-.01082c0-.13622-.13036-.13375-.22659-.13375Z"/><path class="cls-6" d="M38.44673,16.56194h-.22242v-.63128H38.0015v-.14225c.13856.00416.26483-.04421.28709-.192h.15852Z"/><path class="cls-6" d="M39.33833,15.745H38.9372l-.03806.22112.003.00266a.247.247,0,0,1,.1903-.07612.30179.30179,0,0,1,.2999.33073.35167.35167,0,0,1-.35343.34989l-.00775-.00013a.32381.32381,0,0,1-.36117-.30827h.2a.15661.15661,0,0,0,.1612.147.17745.17745,0,0,0,.16965-.18884.1709.1709,0,0,0-.16965-.18346.16235.16235,0,0,0-.14969.07676h-.161l.09271-.51988h.525Z"/><path class="cls-1" d="M34.36744,6.60453H32.8985c-.20227,0-.36624.10177-.36624.2273v1.153c0,.12554.164.2273.36624.2273h1.46894c.20226,0,.36623-.10176.36623-.2273v-1.153C34.73367,6.7063,34.5697,6.60453,34.36744,6.60453Z"/><polygon class="cls-1" points="30.666 6.605 32.905 6.605 34.027 7.409 32.905 8.212 30.666 8.212 29.546 7.409 30.666 6.605"/><path class="cls-1" d="M40.29872,8.2121h1.46894c.20227,0,.36624-.10177.36624-.2273v-1.153c0-.12554-.164-.2273-.36624-.2273H40.29872c-.20226,0-.36623.10176-.36623.2273v1.153C39.93249,8.11033,40.09646,8.2121,40.29872,8.2121Z"/><polygon class="cls-1" points="45.313 8.212 43.696 8.212 42.886 7.408 43.696 6.605 45.313 6.605 46.121 7.408 45.313 8.212"/><polygon class="cls-1" points="43.943 8.212 41.703 8.212 40.582 7.408 41.703 6.605 43.943 6.605 45.063 7.408 43.943 8.212"/><path class="cls-1" d="M34.36744,17.41064H32.8985c-.20227,0-.36624.10177-.36624.2273v1.153c0,.12554.164.2273.36624.2273h1.46894c.20226,0,.36623-.10176.36623-.2273v-1.153C34.73367,17.51241,34.5697,17.41064,34.36744,17.41064Z"/><polygon class="cls-1" points="30.666 17.411 32.905 17.411 34.027 18.215 32.905 19.018 30.666 19.018 29.546 18.215 30.666 17.411"/><path class="cls-1" d="M40.29872,19.01821h1.46894c.20227,0,.36624-.10177.36624-.2273v-1.153c0-.12554-.164-.2273-.36624-.2273H40.29872c-.20226,0-.36623.10176-.36623.2273v1.153C39.93249,18.91644,40.09646,19.01821,40.29872,19.01821Z"/><polygon class="cls-1" points="45.313 19.018 43.696 19.018 42.886 18.214 43.696 17.411 45.313 17.411 46.121 18.214 45.313 19.018"/><polygon class="cls-1" points="43.943 19.018 41.703 19.018 40.582 18.214 41.703 17.411 43.943 17.411 45.063 18.214 43.943 19.018"/><path class="cls-5" d="M34.37625,13.04734H32.90731c-.20227,0-.36623.10176-.36623.2273v1.153c0,.12553.164.2273.36623.2273h1.46894c.20227,0,.36623-.10177.36623-.2273v-1.153C34.74248,13.1491,34.57852,13.04734,34.37625,13.04734Z"/><polygon class="cls-5" points="30.7 13.047 32.317 13.047 33.127 13.852 32.317 14.655 30.7 14.655 29.891 13.852 30.7 13.047"/><polygon class="cls-5" points="31.321 13.047 32.938 13.047 33.748 13.852 32.938 14.655 31.321 14.655 30.512 13.852 31.321 13.047"/><path class="cls-6" d="M31.06273,13.73664c.07226.00586.17724-.00879.17724-.10352a.10993.10993,0,0,0-.11767-.11084c-.08594,0-.12988.063-.12891.14893h-.16064a.27637.27637,0,0,1,.28808-.28809.25706.25706,0,0,1,.27979.23047.16527.16527,0,0,1-.1167.17041v.00244a.18491.18491,0,0,1,.14746.18946.31048.31048,0,0,1-.61865-.02979h.16064c.00342.09033.04883.16407.14649.16407a.12822.12822,0,0,0,.13574-.13086c0-.12647-.11084-.124-.19287-.124Z"/><path class="cls-6" d="M31.93089,14.23273h-.21045l-.27588-.84961H31.637l.18945.59717h.00244l.19141-.59717h.19287Z"/><path class="cls-6" d="M32.4763,13.73664c.07227.00586.17725-.00879.17725-.10352a.10993.10993,0,0,0-.11768-.11084c-.08593,0-.12988.063-.1289.14893h-.16065a.27611.27611,0,0,1,.28809-.28809.25706.25706,0,0,1,.27978.23047.16527.16527,0,0,1-.1167.17041v.00244a.18492.18492,0,0,1,.14747.18946.31048.31048,0,0,1-.61866-.02979H32.387c.00342.09033.04883.16407.14648.16407a.12822.12822,0,0,0,.13574-.13086c0-.12647-.11084-.124-.19287-.124Z"/><path class="cls-6" d="M32.8679,14.32209h.59522v.05957H32.8679Z"/><path class="cls-6" d="M33.67357,13.95051c0,.11328.08789.15722.188.15722.06543,0,.16552-.019.16552-.10595,0-.09278-.12841-.106-.25244-.14014-.126-.03125-.25342-.085-.25342-.2417,0-.17529.16407-.25732.31788-.25732.17724,0,.34033.07763.34033.27392h-.18115c-.00586-.10107-.07715-.12842-.16748-.12842-.05958,0-.12842.02491-.12842.0962,0,.06543.04.07519.25342.12841.063.01465.25195.05616.25195.24756,0,.15625-.1211.27246-.353.27246-.18848,0-.36572-.09277-.3623-.30224Z"/><path class="cls-5" d="M40.27577,12.51577h1.46894c.20226,0,.36623-.10177.36623-.2273v-1.153c0-.12553-.164-.2273-.36623-.2273H40.27577c-.20227,0-.36624.10177-.36624.2273v1.153C39.90953,12.414,40.0735,12.51577,40.27577,12.51577Z"/><polygon class="cls-5" points="43.952 12.516 42.335 12.516 41.525 11.711 42.335 10.908 43.952 10.908 44.761 11.711 43.952 12.516"/><polygon class="cls-5" points="43.331 12.516 41.714 12.516 40.905 11.711 41.714 10.908 43.331 10.908 44.14 11.711 43.331 12.516"/><path class="cls-6" d="M40.71556,11.59748c.07227.00586.17725-.00879.17725-.10352a.10994.10994,0,0,0-.11768-.11084c-.08594,0-.12988.063-.12891.14893h-.16064a.27637.27637,0,0,1,.28809-.28809.25706.25706,0,0,1,.27978.23047.16527.16527,0,0,1-.1167.17041v.00244a.18491.18491,0,0,1,.14746.18946.31048.31048,0,0,1-.61865-.02979h.16065c.00341.09033.04882.16407.14648.16407a.12822.12822,0,0,0,.13574-.13086c0-.12647-.11084-.124-.19287-.124Z"/><path class="cls-6" d="M41.58372,12.09357h-.21044L41.0974,11.244h.19238l.18945.59717h.00244l.19141-.59717H41.866Z"/><path class="cls-6" d="M42.12914,11.59748c.07226.00586.17724-.00879.17724-.10352a.10993.10993,0,0,0-.11767-.11084c-.08594,0-.12989.063-.12891.14893h-.16065a.27611.27611,0,0,1,.28809-.28809.25707.25707,0,0,1,.27979.23047.16528.16528,0,0,1-.1167.17041v.00244a.18492.18492,0,0,1,.14746.18946.31048.31048,0,0,1-.61865-.02979h.16064c.00342.09033.04883.16407.14648.16407a.12822.12822,0,0,0,.13575-.13086c0-.12647-.11084-.124-.19287-.124Z"/><path class="cls-6" d="M42.52074,12.18293H43.116v.05957h-.59521Z"/><path class="cls-6" d="M43.3264,11.81135c0,.11328.08789.15722.188.15722.06543,0,.16553-.019.16553-.10595,0-.09278-.12842-.106-.25245-.14014-.126-.03125-.25341-.085-.25341-.2417,0-.17529.16406-.25732.31787-.25732.17724,0,.34033.07763.34033.27392h-.18115c-.00586-.10107-.07715-.12842-.16748-.12842-.05957,0-.12842.02491-.12842.0962,0,.06543.04.07519.25342.12841.063.01465.252.05616.252.24756,0,.15625-.12109.27246-.353.27246-.18847,0-.36572-.09277-.3623-.30224Z"/><path class="cls-6" d="M40.46019,13.471h.187v.8496h-.187Z"/><path class="cls-6" d="M40.81175,13.471h.18555l.355.56982h.00244V13.471h.17481v.8496h-.187l-.35351-.56884h-.00244v.56884h-.17481Z"/><path class="cls-6" d="M41.883,13.62775h-.25439V13.471h.69629v.15673h-.25489v.69287h-.187Z"/><rect class="cls-1" x="33.39683" y="10.88038" width="1.33684" height="1.59678" rx="0.22355"/><polygon class="cls-1" points="32.273 12.477 33.879 12.477 34.682 11.678 33.879 10.88 32.273 10.88 31.468 11.678 32.273 12.477"/><path class="cls-6" d="M32.35033,11.2801h.187v.84961h-.187Z"/><path class="cls-6" d="M32.70189,11.2801h.18555l.355.56982h.00244V11.2801h.1748v.84961h-.187l-.35351-.56885h-.00245v.56885h-.1748Z"/><path class="cls-6" d="M33.77318,11.43684h-.2544V11.2801h.69629v.15674h-.25488v.69287h-.187Z"/><path class="cls-6" d="M29.89139,7.27668a.29587.29587,0,0,1,.30225-.33643.26518.26518,0,0,1,.28564.26026c0,.25244-.26758.27295-.38916.44433h.39405v.145h-.61182c0-.19384.11914-.27392.26318-.37256.07276-.05127.17481-.10107.17481-.20361a.11959.11959,0,0,0-.125-.12842c-.1001,0-.13184.10352-.13184.19141Z"/><path class="cls-6" d="M31.159,7.2259a.18507.18507,0,0,0-.18555-.14893c-.16748,0-.23095.14258-.23095.29151,0,.1416.06347.28466.231.28466a.19078.19078,0,0,0,.19287-.19043h.18116a.3575.3575,0,0,1-.374.34717.446.446,0,0,1,0-.89013.34554.34554,0,0,1,.3667.30615Z"/><path class="cls-6" d="M31.93485,7.50764c0,.11328.08789.15722.188.15722.06543,0,.16552-.019.16552-.10595,0-.09278-.12841-.106-.25244-.14014-.126-.03125-.25341-.085-.25341-.2417,0-.17529.16406-.25732.31787-.25732.17724,0,.34033.07763.34033.27392h-.18115c-.00586-.10107-.07715-.12842-.16748-.12842-.05957,0-.12891.02491-.12891.09619,0,.06543.04053.0752.25391.12842.063.01465.25195.05616.25195.24756,0,.15625-.1211.27246-.35352.27246-.188,0-.36523-.09277-.36133-.30224Z"/><path class="cls-6" d="M32.58084,6.94025h.3667a.37267.37267,0,0,1,.38575.41993.37777.37777,0,0,1-.38575.42968h-.3667Zm.187.69239h.1665c.1084,0,.21191-.06641.21191-.2544,0-.17139-.06054-.28125-.24511-.28125h-.1333Z"/><path class="cls-6" d="M33.69657,6.94025h.1914l.31787.84961h-.19433l-.064-.18945h-.31787l-.06689.18945h-.189Zm-.01807.521h.22022l-.10743-.31152h-.00195Z"/><path class="cls-6" d="M29.55077,6.94025h.187v.84961h-.187Z"/><path class="cls-6" d="M40.793,18.12652a.29587.29587,0,0,1,.30225-.33643.26519.26519,0,0,1,.28565.26025c0,.25245-.26758.273-.38916.44434h.394v.145H40.774c0-.19385.11914-.27393.26319-.37256.07275-.05127.1748-.10107.1748-.20361a.11959.11959,0,0,0-.125-.12842c-.1001,0-.13184.10352-.13184.19141Z"/><path class="cls-6" d="M42.06057,18.07574a.18505.18505,0,0,0-.18554-.14893c-.16748,0-.231.14258-.231.2915,0,.1416.06348.28467.231.28467a.1908.1908,0,0,0,.19287-.19043H42.249a.35749.35749,0,0,1-.374.34717.446.446,0,0,1,0-.89014.34556.34556,0,0,1,.3667.30616Z"/><path class="cls-6" d="M42.83645,18.35747c0,.11328.08789.15723.188.15723.06543,0,.16553-.019.16553-.106,0-.09277-.12842-.10595-.25244-.14013-.126-.03125-.25342-.085-.25342-.2417,0-.1753.16406-.25733.31787-.25733.17725,0,.34033.07764.34033.27393h-.18115c-.00586-.10108-.07715-.12842-.16748-.12842-.05957,0-.12891.0249-.12891.09619,0,.06543.04053.0752.25391.12842.063.01465.252.05615.252.24756,0,.15625-.12109.27246-.35351.27246-.188,0-.36524-.09277-.36133-.30225Z"/><path class="cls-6" d="M43.48245,17.79009h.3667a.37267.37267,0,0,1,.38574.41992.37778.37778,0,0,1-.38574.42969h-.3667Zm.187.69238h.1665c.1084,0,.21192-.0664.21192-.25439,0-.17139-.06055-.28125-.24512-.28125h-.1333Z"/><path class="cls-6" d="M44.59817,17.79009h.19141l.31787.84961h-.19434l-.064-.18945h-.31787l-.0669.18945h-.189Zm-.01807.521h.22022l-.10742-.31153h-.002Z"/><path class="cls-6" d="M40.45237,17.79009h.187v.84961h-.187Z"/><path class="cls-6" d="M40.79224,7.27668a.29587.29587,0,0,1,.30225-.33643.26518.26518,0,0,1,.28564.26026c0,.25244-.26758.27295-.38916.44433h.394v.145H40.7732c0-.19384.11914-.27392.26318-.37256.07275-.05127.1748-.10107.1748-.20361a.11958.11958,0,0,0-.125-.12842c-.10009,0-.13183.10352-.13183.19141Z"/><path class="cls-6" d="M42.05982,7.2259a.18507.18507,0,0,0-.18555-.14893c-.16748,0-.231.14258-.231.29151,0,.1416.06348.28466.231.28466a.19078.19078,0,0,0,.19287-.19043h.18115a.35749.35749,0,0,1-.374.34717.446.446,0,0,1,0-.89013.34554.34554,0,0,1,.3667.30615Z"/><path class="cls-6" d="M42.8357,7.50764c0,.11328.08789.15722.188.15722.06543,0,.16553-.019.16553-.10595,0-.09278-.12842-.106-.25244-.14014-.126-.03125-.25342-.085-.25342-.2417,0-.17529.16407-.25732.31787-.25732.17725,0,.34034.07763.34034.27392H43.1604c-.00586-.10107-.07714-.12842-.16748-.12842-.05957,0-.1289.02491-.1289.09619,0,.06543.04052.0752.2539.12842.063.01465.252.05616.252.24756,0,.15625-.1211.27246-.35352.27246-.188,0-.36523-.09277-.36133-.30224Z"/><path class="cls-6" d="M44.0481,7.2259a.18507.18507,0,0,0-.18555-.14893c-.16748,0-.231.14258-.231.29151,0,.1416.06348.28466.231.28466a.19078.19078,0,0,0,.19287-.19043h.18116a.35751.35751,0,0,1-.374.34717.446.446,0,0,1,0-.89013.34554.34554,0,0,1,.3667.30615Z"/><path class="cls-6" d="M44.365,6.94025h.187v.69239h.41406v.15722H44.365Z"/><path class="cls-6" d="M40.45237,6.94025h.187v.84961h-.187Z"/><path class="cls-6" d="M30.06175,18.08308a.29587.29587,0,0,1,.30225-.33643.26518.26518,0,0,1,.28564.26025c0,.25245-.26758.27295-.38916.44434h.39405v.145h-.61182c0-.19385.11914-.27393.26318-.37256.07276-.05127.17481-.10107.17481-.20361a.11959.11959,0,0,0-.125-.12842c-.1001,0-.13184.10351-.13184.19141Z"/><path class="cls-6" d="M31.32933,18.03229a.18505.18505,0,0,0-.18555-.14892c-.16748,0-.23095.14258-.23095.2915,0,.1416.06347.28467.231.28467a.19079.19079,0,0,0,.19287-.19043h.18116a.3575.3575,0,0,1-.374.34717.446.446,0,0,1,0-.89014.34555.34555,0,0,1,.3667.30615Z"/><path class="cls-6" d="M32.10521,18.314c0,.11328.08789.15723.188.15723.06543,0,.16552-.019.16552-.106,0-.09277-.12841-.10595-.25244-.14013-.126-.03125-.25341-.085-.25341-.2417,0-.1753.16406-.25733.31787-.25733.17724,0,.34033.07764.34033.27393h-.18115c-.00586-.10108-.07715-.12842-.16748-.12842-.05957,0-.12891.0249-.12891.09619,0,.06543.04053.0752.25391.12842.063.01465.252.05615.252.24756,0,.15625-.12109.27246-.35352.27246-.188,0-.36523-.09277-.36132-.30225Z"/><path class="cls-6" d="M33.31761,18.03229a.18505.18505,0,0,0-.18555-.14892c-.16748,0-.23095.14258-.23095.2915,0,.1416.06347.28467.231.28467a.1908.1908,0,0,0,.19288-.19043h.18115a.3575.3575,0,0,1-.374.34717.446.446,0,0,1,0-.89014.34555.34555,0,0,1,.3667.30615Z"/><path class="cls-6" d="M33.63451,17.74665h.187V18.439h.41406v.15723h-.60107Z"/><path class="cls-6" d="M29.72188,17.74665h.187v.84961h-.187Z"/><path class="cls-7" d="M22.46333,1.59827V24.0616H0V11.95365H1.44734A3.07082,3.07082,0,0,0,4.60856,8.98241v-.207A3.07053,3.07053,0,0,0,1.44734,5.80449H0V1.59827Z"/><path class="cls-8" d="M4.60855,8.77537V8.982a3.07082,3.07082,0,0,1-3.16121,2.97124H0V10.697H1.3452A1.99356,1.99356,0,0,0,3.39752,8.76813,1.99385,1.99385,0,0,0,1.3452,6.83894H0V5.80449H1.44734A3.07053,3.07053,0,0,1,4.60856,8.77537"/><polyline class="cls-9" points="21.237 7.003 21.237 4.975 15.406 4.975 15.406 7.003"/><polyline class="cls-9" points="21.237 18.765 21.237 20.794 15.406 20.794 15.406 18.765"/><polygon class="cls-10" points="21.628 17.94 21.898 17.77 22.168 17.599 22.168 17.94 22.168 18.281 21.898 18.111 21.628 17.94"/><path class="cls-10" d="M11.66076,3.02363v1.0178a.51728.51728,0,0,1-.51757.5527.458.458,0,0,1-.4701-.299h-.0072c-.055.20377-.24674.26205-.43844.27508a.976.976,0,0,0-.44421.07927V4.23435a2.30555,2.30555,0,0,1,.451-.06624c.1971-.02932.28379-.10569.28379-.31453v-.4148H9.785V3.02363Zm-.84848.41515v.45461c0,.18785.07877.28558.268.28558.17984,0,.26-.09773.26-.28558V3.43878Z"/><path class="cls-10" d="M11.66076,5.448v.42565L9.785,6.57942V6.1487l.41795-.14478v-.7058l-.41795-.148V4.73167Zm-1.151-.03946v.489l.68843-.23816V5.65428Z"/><path class="cls-10" d="M11.66076,6.74339v.41515H10.8817l.77906.73766v.51831l-.74057-.73766-1.13515.809V7.965l.84489-.56863-.23919-.2378H9.78648V6.74339Z"/><path class="cls-10" d="M9.785,9.50615V9.13081h1.19269V8.6657H11.259c-.00791.26169.08417.49949.36508.54293v.2986Z"/><path class="cls-10" d="M10.91767,10.03785a.65486.65486,0,0,1,.74345.67142.5879.5879,0,0,1-.57548.6345c-.55714,0-.60174-.595-.98012-.8647v.8752H9.785V9.99551c.42838,0,.60426.26422.82223.58418.11329.16143.22336.38874.44923.38874a.265.265,0,0,0,.28379-.27762c0-.22224-.2284-.29354-.423-.29354Z"/><path class="cls-10" d="M11.66076,12.14223c0,.37028-.23091.68191-.94811.68191-.733,0-.9643-.31163-.9643-.68191s.23128-.67685.9643-.67685C11.42985,11.46538,11.66076,11.77485,11.66076,12.14223Zm-1.60524,0c0,.30657.44924.30657.65713.30657.19171,0,.641,0,.641-.30657s-.44924-.30078-.641-.30078c-.20789,0-.65821,0-.65821.30078Z"/><path class="cls-10" d="M9.785,13.91615v-.37354h1.19269v-.46727H11.259c-.00791.262.08417.49985.36508.54292v.29861Z"/><path class="cls-10" d="M9.785,15.38639v-.37571h1.19269v-.4651H11.259c-.00791.26169.08417.49949.36508.54292v.299Z"/><path class="cls-10" d="M9.58686,15.81964v1.3222H9.45558v-1.3222Z"/><path class="cls-10" d="M9.785,18.202v-.468l1.87572-.6135V17.549l-1.31858.42022v.00543l1.31858.42565v.42674Z"/><path class="cls-10" d="M11.66076,19.50538V19.931l-1.87572.7058v-.43072l.41795-.14478v-.7058l-.41795-.148v-.41877Zm-1.151-.03982v.48936l.68843-.23816v-.00507Z"/><path class="cls-10" d="M7.38059,3.02363v.8513a.60347.60347,0,1,1-1.20312,0V3.44059h-.6726v-.417Zm-.88265.41515v.3225c0,.19039.04209.36485.28127.36485s.28091-.17446.28091-.36485v-.3225Z"/><path class="cls-10" d="M7.38059,4.78705v1.0178a.51728.51728,0,0,1-.51757.5527.458.458,0,0,1-.4701-.299h-.0072c-.055.20377-.24673.26205-.43844.27508a.976.976,0,0,0-.44421.07927V5.99777a2.24121,2.24121,0,0,1,.44924-.06588c.19711-.02931.28379-.10569.28379-.31453V5.2022h-.733V4.78705Zm-.84848.41515v.45461c0,.18785.07877.28558.268.28558.17984,0,.26005-.09773.26005-.28558V5.2022Z"/><path class="cls-10" d="M7.38059,6.696v1.4116H7.03314V7.11113H6.63138v.91464H6.31091V7.11113h-.46v1.0178H5.50415V6.696Z"/><path class="cls-10" d="M6.12748,8.69249c-.24962,0-.34673.19545-.34673.41769,0,.14478.04208.36737.23379.36737.205,0,.23379-.28557.31-.56066.06834-.28015.18667-.56283.5334-.56283.38629,0,.56757.36485.56757.7058,0,.39381-.17084.75612-.60426.75612V9.41421c.223-.01339.28343-.17192.28343-.37281,0-.13211-.055-.28557-.21257-.28557-.14387,0-.16545.08976-.28379.56319-.03165.14007-.12337.5603-.54635.5603-.34421,0-.60174-.26965-.60174-.78507,0-.41769.205-.81186.6672-.80389Z"/><path class="cls-10" d="M6.12748,10.40777c-.24962,0-.34673.19581-.34673.41769,0,.14478.04208.36774.23379.36774.205,0,.23379-.28558.31-.56066.06834-.28015.18667-.5632.5334-.5632.38629,0,.56757.36485.56757.70581,0,.39416-.17084.75611-.60426.75611v-.40177c.223-.013.28343-.17192.28343-.3728,0-.13212-.055-.28558-.21257-.28558-.14387,0-.16545.09012-.28379.56319-.03165.14008-.12337.56066-.54635.56066-.34421,0-.60174-.26965-.60174-.78543,0-.41769.205-.81149.6672-.80353Z"/><path class="cls-10" d="M6.21416,13.44308a.70312.70312,0,0,1-.75533-.80643c0-.51035.24171-.80389.75533-.80389H7.38059v.41516H6.21416c-.20466,0-.40716.05284-.40716.38873,0,.29608.12625.39127.40716.39127H7.38059v.41516Z"/><path class="cls-10" d="M7.38059,13.8v1.0178a.51727.51727,0,0,1-.51757.5527.45849.45849,0,0,1-.4701-.299h-.0072c-.055.20378-.24673.26169-.43844.27508a.97611.97611,0,0,0-.44421.07927v-.41516a2.26636,2.26636,0,0,1,.44924-.06623c.19711-.029.28379-.10569.28379-.31454v-.41515h-.733V13.8Zm-.84848.41479v.455c0,.18749.07877.28557.268.28557.17984,0,.26005-.09808.26005-.28557v-.455Z"/><path class="cls-10" d="M7.38059,15.70852v1.41161H7.03314v-.99645H6.63138v.915H6.31091v-.915h-.46v1.0178H5.50415v-1.433Z"/><path class="cls-10" d="M5.50487,19.95456V19.5423l1.2765-.32V19.2169l-1.27686-.31453v-.42023l1.87572-.49985v.41516l-1.27649.29861v.00543l1.27649.32792v.38874l-1.29232.32249v.00507l1.29232.30947v.40719Z"/><path class="cls-10" d="M7.03314,21.07117v-.56645h.34673v1.54661H7.03314v-.56572h-1.529v-.41444Z"/><line class="cls-11" x1="16.06466" y1="7.00327" x2="16.06466" y2="6.28914"/><line class="cls-11" x1="20.91456" y1="18.66927" x2="20.91456" y2="19.32404"/><path class="cls-12" d="M16.53764,6.00283V5.78747a.3179.3179,0,0,1,.31472-.32032h3.33349a.31755.31755,0,0,1,.31472.32031V5.98a.31755.31755,0,0,1-.31471.32033h-3.3335A.31791.31791,0,0,1,16.53764,5.98"/><path class="cls-12" d="M16.53764,19.81122V19.5984a.31827.31827,0,0,1,.31472-.32105h3.33349a.31791.31791,0,0,1,.31472.321v.19185a.31755.31755,0,0,1-.31471.32033h-3.3335a.31791.31791,0,0,1-.31472-.32033"/><path class="cls-13" d="M19.49527,20.40663H19.806s.31868-.13754.28055-.31562v-.67359c.036-.1332-.17732-.30259-.17732-.30259V6.53743s.21257-.16939.17732-.30222V5.562c.036-.17772-.28055-.333-.28055-.333h-.328s-.26365.1017-.30177.23816H17.90873a.33129.33129,0,0,0-.30105-.23816h-.32731a.34854.34854,0,0,0-.32946.33082v.6754c.00935.13862.23631.30946.23631.30946V19.11158s-.22444.169-.23631.3062v.67287a.32462.32462,0,0,0,.32946.316h.32731c.13056.01086.29566-.1788.29566-.1788h1.28225a.31583.31583,0,0,0,.29565.203"/><path class="cls-14" d="M17.48431,18.73985V6.88056a.16312.16312,0,0,1,.1597-.1636h1.75091a.16278.16278,0,0,1,.15934.16577V18.75216a.16351.16351,0,0,1-.15934.1665H17.64365a.16386.16386,0,0,1-.1597-.1665"/><path class="cls-12" d="M21.21022,7.96677V7.58166s-.02662-.0999-.08129-.0894h-.32011c-.05252-.0105-.095.03149-.09676.11908h-.86215v.35688h.86035c.0018.04669.09712.11908.09712.11908h.32155a.09888.09888,0,0,0,.09748-.10024l0-.00038h0"/><path class="cls-15" d="M19.55426,7.90742V7.392a.07867.07867,0,0,1,.077-.08h.19926a.08047.08047,0,0,1,.07877.07963v.49587a.08044.08044,0,0,1-.08129.07926H19.5762a.08007.08007,0,0,1-.08164-.07851l0-.00039v.01955"/><path class="cls-12" d="M15.828,7.96677V7.58166s.01439-.0999.06906-.0894h.32371c.05216-.01014.0946.03185.0964.11908h.87114v.35688h-.87258c-.00216.04633-.0964.11908-.0964.11908h-.32119l-.09747-.11908h0"/><path class="cls-15" d="M17.48431,7.90742V7.39164a.08152.08152,0,0,0-.082-.07963h-.25177a.08117.08117,0,0,0-.082.07963v.49587a.0808.0808,0,0,0,.082.07926h.25177a.08116.08116,0,0,0,.082-.07926"/><path class="cls-12" d="M21.21022,8.85971V8.4916s-.02554-.10026-.08021-.10171V8.38338h-.32119a.11419.11419,0,0,0-.09676.11908h-.86215v.35725h.86035c0,.063.0964.11908.0964.11908h.32371a.09924.09924,0,0,0,.09747-.09954"/><path class="cls-15" d="M19.55426,8.8V8.34429a.078.078,0,0,1,.07623-.07962l.00074,0h.2007a.08047.08047,0,0,1,.07877.07963v.49587a.08011.08011,0,0,1-.07944.08077L19.828,8.92087H19.5762a.08007.08007,0,0,1-.08164-.07851l0-.00039V8.80179"/><path class="cls-12" d="M15.828,8.85971V8.4916s.01331-.10026.06762-.10171l.00252-.00651h.32371a.11382.11382,0,0,1,.09639.11908h.87007v.35725h-.87258c-.0018.063-.0964.11908-.0964.11908h-.32119a.0989.0989,0,0,1-.09748-.10025l0-.00038h0"/><path class="cls-15" d="M17.48431,8.85971V8.34393a.08079.08079,0,0,0-.082-.07927h-.25177a.08081.08081,0,0,0-.082.07927V8.8398a.0808.0808,0,0,0,.082.07926h.25177a.08079.08079,0,0,0,.082-.07926"/><path class="cls-12" d="M21.21022,9.812V9.46127s-.02626-.09954-.08057-.1256h-.32371a.15123.15123,0,0,0-.09676.11908h-.85927V9.812h.86035c.00288.08144.04532.122.09712.11909h.32155c.05431.00253.08129-.09664.08129-.09664V9.812"/><path class="cls-15" d="M19.55426,9.812V9.29658a.078.078,0,0,1,.07623-.07962l.00074,0h.19926a.07974.07974,0,0,1,.07913.07927v.49587a.08009.08009,0,0,1-.08091.07927h-.25215a.08008.08008,0,0,1-.08165-.07851V9.812"/><path class="cls-12" d="M15.828,9.812V9.46127s.014-.09954.06834-.1256H16.22a.15194.15194,0,0,1,.0964.11908h.87186V9.812h-.87258c-.0018.08181-.04424.12343-.0964.11909h-.32119c-.05431.0047-.07014-.09447-.07014-.09447V9.812"/><path class="cls-15" d="M17.48431,9.812V9.29622a.08079.08079,0,0,0-.082-.07927h-.25177a.08081.08081,0,0,0-.082.07927v.49587a.08081.08081,0,0,0,.082.07927h.25177a.0808.0808,0,0,0,.082-.07927"/><path class="cls-12" d="M21.21022,10.76429v-.35942s-.02662-.0999-.08129-.11582h-.32011a.12794.12794,0,0,0-.09676.11872h-.86215V10.765h.86035c0,.07239.0964.11908.0964.11908h.32371a.09888.09888,0,0,0,.09748-.10024l0-.00038h0"/><path class="cls-15" d="M19.55426,10.70493v-.45606a.078.078,0,0,1,.07623-.07962l.00074,0h.19926a.07974.07974,0,0,1,.07913.07927v.49587a.08009.08009,0,0,1-.08091.07927h-.25215a.08045.08045,0,0,1-.08165-.07891v-.04018"/><path class="cls-12" d="M15.828,10.76429v-.35942s.01439-.0999.06906-.11582h.32371a.12866.12866,0,0,1,.0964.11872h.87114V10.765h-.87258c-.0018.07239-.0964.11908-.0964.11908h-.32119l-.09747-.11908h0"/><path class="cls-15" d="M17.48431,10.76429v-.51578a.08079.08079,0,0,0-.082-.07927h-.25177a.08081.08081,0,0,0-.082.07927v.49587a.08081.08081,0,0,0,.082.07927h.25177a.0808.0808,0,0,0,.082-.07927"/><path class="cls-12" d="M21.21022,11.71658v-.39236s-.02662-.0999-.08129-.08361h-.32011c-.05252-.01629-.095.0257-.09676.11872h-.86215v.35725h.86035c0,.03981.0964.11908.0964.11908h.32371a.0989.0989,0,0,0,.09748-.10025l0-.00037h0"/><path class="cls-15" d="M19.55426,11.65722V11.1418a.07867.07867,0,0,1,.077-.08h.19926a.08046.08046,0,0,1,.07877.07963v.49587a.08045.08045,0,0,1-.08129.07927H19.5762a.08008.08008,0,0,1-.08164-.07851l0-.0004v.01955"/><path class="cls-12" d="M15.828,11.71658v-.39236s.01439-.0999.06906-.08361h.32371c.05216-.01629.0946.0257.0964.11872h.87114v.35725h-.87258c-.0018.03981-.0964.11908-.0964.11908h-.32119l-.09747-.11908h0"/><path class="cls-15" d="M17.48431,11.65722v-.51578a.08152.08152,0,0,0-.082-.07963h-.25177a.08117.08117,0,0,0-.082.07963v.49587a.08117.08117,0,0,0,.082.07927h.25177a.08153.08153,0,0,0,.082-.07927"/><path class="cls-12" d="M21.21022,12.60951V12.236s-.02662-.09989-.08129-.10279h-.32011a.108.108,0,0,0-.09676.11908h-.86215v.35725h.86035a.13083.13083,0,0,0,.09856.11908h.32011c.05431-.0181.08129-.11691.08129-.11691v-.00217"/><path class="cls-15" d="M19.55426,12.54978v-.45569a.07867.07867,0,0,1,.077-.08h.19926a.08046.08046,0,0,1,.07877.07963v.49587a.08045.08045,0,0,1-.08129.07927H19.5762a.08008.08008,0,0,1-.08164-.07851l0-.0004v-.04017"/><path class="cls-12" d="M15.828,12.60951V12.236s.01439-.09989.06906-.10279h.32371a.10823.10823,0,0,1,.0964.11908h.87114v.35725h-.87258a.1341.1341,0,0,1-.0964.11908h-.32119c-.05431-.01846-.07014-.11764-.07014-.11764h0"/><path class="cls-15" d="M17.48431,12.60951v-.51578a.08152.08152,0,0,0-.082-.07963h-.25177a.08117.08117,0,0,0-.082.07963v.49587a.08117.08117,0,0,0,.082.07927h.25177a.08153.08153,0,0,0,.082-.07927"/><path class="cls-12" d="M21.21022,13.5618v-.40249a.26113.26113,0,0,0-.08129-.1332h-.32011c-.05252.03294-.095.07493-.09676.11908h-.86215v.35689h.86035a.13767.13767,0,0,0,.09712.11908h.32155a.0989.0989,0,0,0,.09748-.10025l0-.00038h0"/><path class="cls-15" d="M19.49527,13.50208v-.51832a.08077.08077,0,0,1,.08237-.07673h.25177a.08115.08115,0,0,1,.08021.07673v.49768a.08117.08117,0,0,1-.08093.08h-.25177a.08115.08115,0,0,1-.08273-.07926h0"/><path class="cls-12" d="M15.828,13.5618v-.40249s.01439-.10026.06906-.1332h.32371c.05216.0333.0946.07529.0964.11908h.87114v.35689h-.87258a.13834.13834,0,0,1-.0964.11908h-.32119l-.09747-.11908h0"/><path class="cls-15" d="M17.48431,13.50208v-.51832a.08149.08149,0,0,0-.08272-.07673H17.152a.08152.08152,0,0,0-.082.07927v.498a.08187.08187,0,0,0,.08273.07746h.24961a.08153.08153,0,0,0,.082-.08"/><path class="cls-12" d="M21.21022,14.45437v-.362s-.02662-.0999-.08129-.11474h-.32011a.12576.12576,0,0,0-.0982.11908h-.86071v.35688h.86035c0,.07239.09712.11908.09712.11908h.32155a.09888.09888,0,0,0,.09748-.10024l0-.00038h0"/><path class="cls-15" d="M19.49527,14.45437v-.51615a.08008.08008,0,0,1,.08126-.0789h.2518a.07972.07972,0,0,1,.08128.07815l0,.00075v.497a.08116.08116,0,0,1-.08273.07891h-.25177a.08081.08081,0,0,1-.08237-.07891h0"/><path class="cls-12" d="M15.828,14.45437v-.362s.01439-.0999.06906-.11474h.32371a.12649.12649,0,0,1,.0964.11908h.87114v.35688h-.87258c-.0018.07239-.0964.11908-.0964.11908h-.32119l-.09747-.11908h0"/><path class="cls-15" d="M17.48431,14.45437v-.51615a.0808.0808,0,0,0-.082-.0789h-.25177a.08044.08044,0,0,0-.082.07886v.497a.08117.08117,0,0,0,.082.07891h.25177a.08153.08153,0,0,0,.082-.08h0"/><path class="cls-12" d="M21.21022,15.40666V15.027s-.02662-.0999-.08129-.09628h-.32011c-.05252-.00362-.095.03837-.09676.11908h-.86215v.35689h.86035c0,.05248.0964.11908.0964.11908h.32371a.09851.09851,0,0,0,.09748-.09952l0-.0011h0"/><path class="cls-15" d="M19.49527,15.34729v-.51613a.07973.07973,0,0,1,.08054-.07892l.00075,0h.25177a.07971.07971,0,0,1,.08127.07816l0,.00219v.49479a.08043.08043,0,0,1-.08195.07892l-.00078,0h-.25177a.08009.08009,0,0,1-.07913-.0789"/><path class="cls-12" d="M15.828,15.40666V15.027s.01439-.0999.06906-.09628h.32371c.05216-.00362.0946.03837.0964.11908h.87114v.35689h-.87258c-.0018.05248-.0964.11908-.0964.11908h-.32119l-.09747-.11908h0"/><path class="cls-15" d="M17.48431,15.34729v-.51613a.08044.08044,0,0,0-.082-.07891h-.25181a.08044.08044,0,0,0-.082.07887v.49627a.0808.0808,0,0,0,.082.0789h.25177a.0808.0808,0,0,0,.082-.0789"/><path class="cls-12" d="M21.21022,16.29959v-.35073s-.02662-.0999-.08129-.12524h-.32011a.15035.15035,0,0,0-.0982.11908h-.86071V16.3h.86035c0,.08216.09712.11908.09712.11908h.32155a.09889.09889,0,0,0,.09748-.10024l0-.00038h0"/><path class="cls-15" d="M19.55426,16.29959v-.51542a.07831.07831,0,0,1,.077-.07963h.19928a.07974.07974,0,0,1,.07913.07927v.49587a.08082.08082,0,0,1-.08129.07963h-.25177a.08044.08044,0,0,1-.08165-.07891v.01919"/><path class="cls-12" d="M15.828,16.29959v-.35073s.01439-.0999.06906-.12524h.32371a.151.151,0,0,1,.0964.11872h.87114v.35725h-.87258c-.0018.08143-.0964.11908-.0964.11908h-.32119a.0989.0989,0,0,1-.09748-.10025l0-.00038h0"/><path class="cls-15" d="M17.48431,16.29959v-.51578a.08116.08116,0,0,0-.082-.07927h-.25177a.08081.08081,0,0,0-.082.07927v.49587a.08117.08117,0,0,0,.082.07963h.25177a.08152.08152,0,0,0,.082-.07963"/><path class="cls-12" d="M21.21022,17.25188v-.34639s-.02662-.10026-.08129-.12958h-.32011a.16427.16427,0,0,0-.09676.11908h-.86215v.35689h.86035c.0018.0865.0446.12813.09712.11908h.32155c.05431.009.08129-.09013.08129-.09013v-.029"/><path class="cls-15" d="M19.55426,17.25188v-.51542a.07831.07831,0,0,1,.077-.07963h.19928a.07974.07974,0,0,1,.07913.07927V17.232a.08045.08045,0,0,1-.08127.07963h-.25179a.08044.08044,0,0,1-.08165-.07891v.01919"/><path class="cls-12" d="M15.828,17.25188v-.34639s.01439-.10026.06906-.12958h.32371a.16518.16518,0,0,1,.0964.11908h.87114v.35689h-.87258c-.00216.08614-.0446.1274-.0964.11908h-.32119c-.05431.009-.07014-.09013-.07014-.09013v-.029"/><path class="cls-15" d="M17.48431,17.25188V16.7361a.08153.08153,0,0,0-.082-.07927h-.25177a.08117.08117,0,0,0-.082.07927V17.232a.08117.08117,0,0,0,.082.07963h.25177a.08152.08152,0,0,0,.082-.07963"/><path class="cls-12" d="M21.21022,18.20417v-.36449s-.02662-.0999-.08129-.11148h-.32011a.12071.12071,0,0,0-.09676.11908h-.86215v.35689h.86035c0,.068.0964.11908.0964.11908h.32371a.09889.09889,0,0,0,.096-.10026h0"/><path class="cls-15" d="M19.55426,18.14481v-.45606a.07831.07831,0,0,1,.077-.07963h.19928a.07974.07974,0,0,1,.07913.07927v.49587a.08045.08045,0,0,1-.08127.07963h-.25179a.08043.08043,0,0,1-.08129-.0771v-.04017"/><path class="cls-12" d="M15.828,18.20417v-.36449s.01439-.0999.06906-.11148h.32371a.12072.12072,0,0,1,.0964.11908h.87114v.35689h-.87258c-.0018.06768-.0964.11908-.0964.11908h-.32119l-.09747-.11908h0"/><path class="cls-15" d="M17.48431,18.20417v-.51578a.08153.08153,0,0,0-.082-.07927h-.25177a.08117.08117,0,0,0-.082.07927v.49587a.08117.08117,0,0,0,.082.07963h.25177a.08152.08152,0,0,0,.082-.07963"/><path class="cls-15" d="M19.72654,5.46787c.10791,0,.19531.15383.19531.34349s-.087.34422-.19531.34422-.19494-.15383-.19494-.34422.0874-.34349.19494-.34349"/><path class="cls-15" d="M17.33181,5.46787c.1079,0,.19566.15383.19566.34349s-.0874.34422-.19566.34422-.19531-.15383-.19531-.34422.08776-.34349.19531-.34349"/><path class="cls-15" d="M19.72654,19.41054c.10791,0,.19531.1542.19531.34386s-.087.34421-.19531.34421-.19494-.15419-.19494-.34421.0874-.34386.19494-.34386"/><path class="cls-15" d="M17.33181,19.41054c.1079,0,.19566.1542.19566.34386s-.0874.34421-.19566.34421-.19531-.15419-.19531-.34421.08776-.34386.19531-.34386"/><path class="cls-5" d="M20.71556,5.64143a.24292.24292,0,0,1,.248-.27637.21761.21761,0,0,1,.23437.21387c0,.207-.21972.22363-.31933.36425h.32324v.11914h-.50195c0-.15918.09765-.22461.21582-.30566.05957-.042.14355-.083.14355-.167a.09818.09818,0,0,0-.10254-.10547c-.082,0-.1084.085-.1084.15723Z"/><path class="cls-5" d="M21.44359,5.6551c.05957.00488.14551-.00684.14551-.085a.09021.09021,0,0,0-.09668-.09082c-.07032,0-.10645.05175-.10547.12207h-.13184a.22663.22663,0,0,1,.23633-.23633.21092.21092,0,0,1,.22949.18945.13592.13592,0,0,1-.0957.13965v.00195a.152.152,0,0,1,.12109.15528.25484.25484,0,0,1-.50781-.02442h.13184c.00293.07422.04.13477.12011.13477a.10513.10513,0,0,0,.11133-.10742c0-.10352-.09082-.10157-.1582-.10157Z"/><path class="cls-5" d="M21.33275,20.79572h-.13867v-.44336H21.0222v-.10449c.09668.00293.18457-.03125.2002-.13574h.11035Z"/><path class="cls-5" d="M15.2263,5.64094a.24292.24292,0,0,1,.248-.27637.21761.21761,0,0,1,.23437.21387c0,.207-.21972.22363-.31933.36425h.32324v.11915h-.502c0-.15918.09765-.22461.21582-.30567.05957-.042.14355-.083.14355-.167a.09818.09818,0,0,0-.10254-.10547c-.082,0-.10839.085-.10839.15723Z"/><path class="cls-5" d="M16.03636,5.90363H15.7473V5.77668l.29687-.39844h.124v.41113H16.259v.11426H16.1682v.15821h-.13184Zm0-.35156h-.00293l-.17676.2373h.17969Z"/><path class="cls-5" d="M15.49681,20.37482a.24292.24292,0,0,1,.248-.27636.2176.2176,0,0,1,.23437.21386c0,.207-.21972.22364-.31933.36426h.32324v.11914h-.502c0-.15918.09765-.22461.21582-.30566.05957-.042.14355-.083.14355-.167a.09818.09818,0,0,0-.10254-.10547c-.082,0-.1084.085-.1084.15722Z"/></g></g></svg>