<?xml version="1.0" encoding="UTF-8"?><svg xmlns="http://www.w3.org/2000/svg" viewBox="0 0 919.83 554.72"><defs><style>.cls-1{fill:#be621b;}.cls-2{fill:#fff;}.cls-3{fill:#deaa53;}.cls-4{fill:#0a0a0a;}.cls-5{fill:#282828;}.cls-6{fill:#242424;}.cls-7{fill:#eaeaea;}.cls-8{fill:#e4e4e4;}.cls-9{fill:#965f0f;}.cls-10{fill:#dc9e14;}.cls-11{fill:#252c33;}.cls-12{fill:#a4a9b8;}.cls-13{fill:#ed1c24;}.cls-14{fill:#bcc1d2;}.cls-15{fill:#090a0d;}.cls-16{fill:#eeefeb;}.cls-17{fill:#be8e3f;}</style></defs><g id="_9012"><g><g><path class="cls-6" d="M269.32,38.86v476.66c0,11.2,9.08,20.27,20.27,20.27h124.92v-125.88c0-7.03,5.7-12.73,12.73-12.73h200.85c7.55,0,13.67,6.12,13.67,13.67v124.94h248c11.2,0,20.27-9.08,20.27-20.27V38.86c0-11.2-9.08-20.27-20.27-20.27H289.59c-11.2,0-20.27,9.08-20.27,20.27ZM866.75,395.29c0-4.95,4.01-8.96,8.96-8.96,4.95,0,8.96,4.01,8.96,8.96,0,4.95-4.01,8.96-8.96,8.96-4.95,0-8.96-4.01-8.96-8.96Zm0-241.85c0-4.95,4.01-8.96,8.96-8.96,4.95,0,8.96,4.01,8.96,8.96,0,4.95-4.01,8.96-8.96,8.96-4.95,0-8.96-4.01-8.96-8.96Zm-50.7,311c0-12.93,10.48-23.42,23.42-23.42,12.93,0,23.42,10.48,23.42,23.42,0,12.93-10.48,23.42-23.42,23.42-12.93,0-23.42-10.48-23.42-23.42Zm0-379.99c0-12.93,10.48-23.42,23.42-23.42,12.93,0,23.42,10.48,23.42,23.42,0,12.93-10.48,23.42-23.42,23.42-12.93,0-23.42-10.48-23.42-23.42Zm-54.29,310.84c0-4.95,4.01-8.96,8.96-8.96,4.95,0,8.96,4.01,8.96,8.96,0,4.95-4.01,8.96-8.96,8.96-4.95,0-8.96-4.01-8.96-8.96Zm0-241.85c0-4.95,4.01-8.96,8.96-8.96,4.95,0,8.96,4.01,8.96,8.96,0,4.95-4.01,8.96-8.96,8.96-4.95,0-8.96-4.01-8.96-8.96Zm-31.22,191.76c0-4.95,4.01-8.96,8.96-8.96,4.95,0,8.96,4.01,8.96,8.96s-4.01,8.96-8.96,8.96c-4.95,0-8.96-4.01-8.96-8.96Zm-68.78,154.88c0-4.95,4.01-8.96,8.96-8.96,4.95,0,8.96,4.01,8.96,8.96,0,4.95-4.01,8.96-8.96,8.96-4.95,0-8.96-4.01-8.96-8.96Zm-.82-450.22c0-4.95,4.01-8.96,8.96-8.96s8.96,4.01,8.96,8.96c0,4.95-4.01,8.96-8.96,8.96-4.95,0-8.96-4.01-8.96-8.96Zm-155.76,295.34c0-4.95,4.01-8.96,8.96-8.96,4.95,0,8.96,4.01,8.96,8.96,0,4.95-4.01,8.96-8.96,8.96s-8.96-4.01-8.96-8.96Zm0-189.21c0-4.95,4.01-8.96,8.96-8.96s8.96,4.01,8.96,8.96c0,4.95-4.01,8.96-8.96,8.96-4.95,0-8.96-4.01-8.96-8.96ZM336.74,54.91c0,4.95-4.01,8.96-8.96,8.96-4.95,0-8.96-4.01-8.96-8.96,0-4.95,4.01-8.96,8.96-8.96s8.96,4.01,8.96,8.96Zm0,43.86c0,4.95-4.01,8.96-8.96,8.96-4.95,0-8.96-4.01-8.96-8.96,0-4.95,4.01-8.96,8.96-8.96s8.96,4.01,8.96,8.96Zm0,43.86c0,4.95-4.01,8.96-8.96,8.96s-8.96-4.01-8.96-8.96c0-4.95,4.01-8.96,8.96-8.96s8.96,4.01,8.96,8.96Zm0,43.86c0,4.95-4.01,8.96-8.96,8.96s-8.96-4.01-8.96-8.96c0-4.95,4.01-8.96,8.96-8.96,4.95,0,8.96,4.01,8.96,8.96Zm49.72-127.69c-4.95,0-8.96-4.01-8.96-8.96,0-4.95,4.01-8.96,8.96-8.96,4.95,0,8.96,4.01,8.96,8.96,0,4.95-4.01,8.96-8.96,8.96Zm-10.5,440.54c0-4.95,4.01-8.96,8.96-8.96,4.95,0,8.96,4.01,8.96,8.96,0,4.95-4.01,8.96-8.96,8.96-4.95,0-8.96-4.01-8.96-8.96Zm-57.14-17.27c0-4.95,4.01-8.96,8.96-8.96s8.96,4.01,8.96,8.96c0,4.95-4.01,8.96-8.96,8.96s-8.96-4.01-8.96-8.96Zm0-44.01c0-4.95,4.01-8.96,8.96-8.96s8.96,4.01,8.96,8.96c0,4.95-4.01,8.96-8.96,8.96-4.95,0-8.96-4.01-8.96-8.96Zm0-44.01c0-4.95,4.01-8.96,8.96-8.96s8.96,4.01,8.96,8.96c0,4.95-4.01,8.96-8.96,8.96-4.95,0-8.96-4.01-8.96-8.96Zm0-44.01c0-4.95,4.01-8.96,8.96-8.96,4.95,0,8.96,4.01,8.96,8.96,0,4.95-4.01,8.96-8.96,8.96s-8.96-4.01-8.96-8.96Zm-38.82-76.09c0-13.02,10.55-23.57,23.57-23.57s23.57,10.55,23.57,23.57c0,13.02-10.55,23.57-23.57,23.57-13.02,0-23.57-10.55-23.57-23.57Z"/><path class="cls-3" d="M796.64,464.44c0,23.65,19.17,42.83,42.83,42.83,23.65,0,42.83-19.17,42.83-42.83,0-23.65-19.17-42.83-42.83-42.83-23.65,0-42.83,19.17-42.83,42.83Zm19.41,0c0-12.93,10.48-23.42,23.42-23.42,12.93,0,23.42,10.48,23.42,23.42,0,12.93-10.48,23.42-23.42,23.42-12.93,0-23.42-10.48-23.42-23.42Z"/><path class="cls-3" d="M794.85,84.45c0,24.64,19.97,44.61,44.61,44.61,24.64,0,44.61-19.97,44.61-44.61,0-24.64-19.97-44.61-44.61-44.61-24.64,0-44.61,19.97-44.61,44.61Zm21.2,0c0-12.93,10.48-23.42,23.42-23.42,12.93,0,23.42,10.48,23.42,23.42,0,12.93-10.48,23.42-23.42,23.42-12.93,0-23.42-10.48-23.42-23.42Z"/><path class="cls-3" d="M847.66,395.29c0,15.49,12.56,28.06,28.06,28.06,15.49,0,28.06-12.56,28.06-28.06s-12.56-28.06-28.06-28.06c-15.49,0-28.06,12.56-28.06,28.06Zm19.09,0c0-4.95,4.01-8.96,8.96-8.96,4.95,0,8.96,4.01,8.96,8.96,0,4.95-4.01,8.96-8.96,8.96-4.95,0-8.96-4.01-8.96-8.96Z"/><path class="cls-3" d="M742.67,395.29c0,15.49,12.56,28.06,28.06,28.06,15.49,0,28.06-12.56,28.06-28.06,0-15.49-12.56-28.06-28.06-28.06-15.49,0-28.06,12.56-28.06,28.06Zm19.09,0c0-4.95,4.01-8.96,8.96-8.96,4.95,0,8.96,4.01,8.96,8.96,0,4.95-4.01,8.96-8.96,8.96-4.95,0-8.96-4.01-8.96-8.96Z"/><path class="cls-3" d="M848.54,153.44c0,15.01,12.17,27.17,27.18,27.17,15.01,0,27.18-12.17,27.18-27.17,0-15.01-12.17-27.18-27.18-27.18-15.01,0-27.18,12.17-27.18,27.18Zm18.21,0c0-4.95,4.01-8.96,8.96-8.96,4.95,0,8.96,4.01,8.96,8.96,0,4.95-4.01,8.96-8.96,8.96-4.95,0-8.96-4.01-8.96-8.96Z"/><path class="cls-3" d="M743.55,153.44c0,15.01,12.17,27.17,27.18,27.17,15.01,0,27.18-12.17,27.18-27.17,0-15.01-12.17-27.18-27.18-27.18-15.01,0-27.18,12.17-27.18,27.18Zm18.21,0c0-4.95,4.01-8.96,8.96-8.96,4.95,0,8.96,4.01,8.96,8.96,0,4.95-4.01,8.96-8.96,8.96-4.95,0-8.96-4.01-8.96-8.96Z"/><path class="cls-3" d="M485.57,155.98c0,15.77,12.79,28.56,28.56,28.56,15.77,0,28.56-12.79,28.56-28.56,0-15.77-12.79-28.56-28.56-28.56-15.77,0-28.56,12.79-28.56,28.56Zm19.6,0c0-4.95,4.01-8.96,8.96-8.96s8.96,4.01,8.96,8.96c0,4.95-4.01,8.96-8.96,8.96-4.95,0-8.96-4.01-8.96-8.96Z"/><path class="cls-3" d="M314.03,98.78c0,7.59,6.16,13.75,13.75,13.75,7.59,0,13.75-6.16,13.75-13.75,0-7.59-6.16-13.75-13.75-13.75-7.59,0-13.75,6.16-13.75,13.75Zm4.79,0c0-4.95,4.01-8.96,8.96-8.96s8.96,4.01,8.96,8.96c0,4.95-4.01,8.96-8.96,8.96-4.95,0-8.96-4.01-8.96-8.96Z"/><path class="cls-3" d="M314.29,142.64c0,7.45,6.04,13.5,13.5,13.5,7.45,0,13.49-6.04,13.49-13.5,0-7.45-6.04-13.5-13.49-13.5-7.45,0-13.5,6.04-13.5,13.5Zm4.53,0c0-4.95,4.01-8.96,8.96-8.96s8.96,4.01,8.96,8.96c0,4.95-4.01,8.96-8.96,8.96s-8.96-4.01-8.96-8.96Z"/><path class="cls-3" d="M314.19,186.51c0,7.51,6.09,13.6,13.6,13.6s13.6-6.09,13.6-13.6c0-7.51-6.09-13.6-13.6-13.6s-13.6,6.09-13.6,13.6Zm4.64,0c0-4.95,4.01-8.96,8.96-8.96,4.95,0,8.96,4.01,8.96,8.96,0,4.95-4.01,8.96-8.96,8.96s-8.96-4.01-8.96-8.96Z"/><path class="cls-3" d="M484.54,345.2c0,16.34,13.25,29.59,29.59,29.59,16.34,0,29.59-13.25,29.59-29.59,0-16.34-13.25-29.59-29.59-29.59-16.34,0-29.59,13.25-29.59,29.59Zm20.63,0c0-4.95,4.01-8.96,8.96-8.96,4.95,0,8.96,4.01,8.96,8.96,0,4.95-4.01,8.96-8.96,8.96s-8.96-4.01-8.96-8.96Z"/><path class="cls-3" d="M356.19,499.36c0,15.87,12.86,28.73,28.73,28.73,15.87,0,28.73-12.86,28.73-28.73,0-15.87-12.86-28.73-28.73-28.73-15.87,0-28.73,12.86-28.73,28.73Zm19.77,0c0-4.95,4.01-8.96,8.96-8.96,4.95,0,8.96,4.01,8.96,8.96,0,4.95-4.01,8.96-8.96,8.96-4.95,0-8.96-4.01-8.96-8.96Z"/><path class="cls-3" d="M314.46,394.07c0,7.36,5.97,13.32,13.32,13.32,7.36,0,13.32-5.97,13.32-13.32s-5.97-13.32-13.32-13.32-13.32,5.97-13.32,13.32Zm4.36,0c0-4.95,4.01-8.96,8.96-8.96s8.96,4.01,8.96,8.96c0,4.95-4.01,8.96-8.96,8.96-4.95,0-8.96-4.01-8.96-8.96Z"/><path class="cls-3" d="M314.62,438.08c0,7.27,5.89,13.16,13.16,13.16,7.27,0,13.16-5.89,13.16-13.16,0-7.27-5.89-13.16-13.16-13.16s-13.16,5.89-13.16,13.16Zm4.2,0c0-4.95,4.01-8.96,8.96-8.96s8.96,4.01,8.96,8.96c0,4.95-4.01,8.96-8.96,8.96-4.95,0-8.96-4.01-8.96-8.96Z"/><path class="cls-3" d="M314.47,482.1c0,7.35,5.96,13.31,13.31,13.31s13.31-5.96,13.31-13.31c0-7.35-5.96-13.31-13.31-13.31-7.35,0-13.31,5.96-13.31,13.31Zm4.35,0c0-4.95,4.01-8.96,8.96-8.96s8.96,4.01,8.96,8.96c0,4.95-4.01,8.96-8.96,8.96s-8.96-4.01-8.96-8.96Z"/><path class="cls-3" d="M269.32,247.77v52.39c7.91,10.33,20.24,17.1,34.26,17.1,23.91,0,43.29-19.38,43.29-43.29,0-23.91-19.38-43.29-43.29-43.29-14.02,0-26.35,6.77-34.26,17.1Zm10.68,26.2c0-13.02,10.55-23.57,23.57-23.57s23.57,10.55,23.57,23.57c0,13.02-10.55,23.57-23.57,23.57-13.02,0-23.57-10.55-23.57-23.57Z"/><path class="cls-3" d="M642.24,49.86c0,15.28,12.38,27.66,27.66,27.66,15.28,0,27.66-12.38,27.66-27.66,0-15.28-12.38-27.66-27.66-27.66-15.28,0-27.66,12.38-27.66,27.66Zm18.7,0c0-4.95,4.01-8.96,8.96-8.96s8.96,4.01,8.96,8.96c0,4.95-4.01,8.96-8.96,8.96-4.95,0-8.96-4.01-8.96-8.96Z"/><path class="cls-3" d="M359.39,49.86c0,14.95,12.12,27.07,27.07,27.07s27.07-12.12,27.07-27.07c0-14.95-12.12-27.07-27.07-27.07s-27.07,12.12-27.07,27.07Zm18.11,0c0-4.95,4.01-8.96,8.96-8.96,4.95,0,8.96,4.01,8.96,8.96,0,4.95-4.01,8.96-8.96,8.96-4.95,0-8.96-4.01-8.96-8.96Z"/><path class="cls-3" d="M710.64,345.2c0,15.94,12.92,28.86,28.86,28.86,15.94,0,28.86-12.92,28.86-28.86,0-15.94-12.92-28.86-28.86-28.86-15.94,0-28.86,12.92-28.86,28.86Zm19.9,0c0-4.95,4.01-8.96,8.96-8.96,4.95,0,8.96,4.01,8.96,8.96s-4.01,8.96-8.96,8.96c-4.95,0-8.96-4.01-8.96-8.96Z"/><path class="cls-3" d="M643.49,500.08c0,15.04,12.19,27.23,27.23,27.23,15.04,0,27.23-12.19,27.23-27.23,0-15.04-12.19-27.23-27.23-27.23-15.04,0-27.23,12.19-27.23,27.23Zm18.27,0c0-4.95,4.01-8.96,8.96-8.96,4.95,0,8.96,4.01,8.96,8.96,0,4.95-4.01,8.96-8.96,8.96-4.95,0-8.96-4.01-8.96-8.96Z"/><path class="cls-3" d="M314.03,41.12v27.5h27.5v-27.5h-27.5Zm4.79,13.75c0-4.95,4.01-8.96,8.96-8.96s8.96,4.01,8.96,8.96c0,4.95-4.01,8.96-8.96,8.96s-8.96-4.01-8.96-8.96Z"/><path class="cls-3" d="M314.03,335.78v27.5h27.5v-27.5h-27.5Zm4.79,13.75c0-4.95,4.01-8.96,8.96-8.96,4.95,0,8.96,4.01,8.96,8.96,0,4.95-4.01,8.96-8.96,8.96s-8.96-4.01-8.96-8.96Z"/></g><g><path class="cls-2" d="M529.42,278.62h-175.08c-.07,0-.12-.05-.12-.12V101.54c0-.07,.05-.12,.12-.12h175.08c.07,0,.12,.05,.12,.12v25.88c0,.07-.05,.12-.12,.12s-.12-.05-.12-.12v-25.76h-174.83v176.72h174.83v-94.34c0-.07,.05-.12,.12-.12s.12,.05,.12,.12v94.47c0,.07-.05,.12-.12,.12Z"/><path class="cls-2" d="M514.13,188.05c-17.68,0-32.06-14.38-32.06-32.06s14.38-32.06,32.06-32.06,32.06,14.38,32.06,32.06-14.38,32.06-32.06,32.06Zm0-63.88c-17.55,0-31.82,14.28-31.82,31.82s14.28,31.82,31.82,31.82,31.82-14.27,31.82-31.82-14.28-31.82-31.82-31.82Z"/><path class="cls-2" d="M514.13,378.62c-18.43,0-33.43-15-33.43-33.43s15-33.43,33.43-33.43,33.43,15,33.43,33.43-15,33.43-33.43,33.43Zm0-66.61c-18.3,0-33.19,14.89-33.19,33.19s14.89,33.19,33.19,33.19,33.19-14.89,33.19-33.19-14.89-33.19-33.19-33.19Z"/><path class="cls-2" d="M411.55,466.58h-57.21c-.07,0-.12-.05-.12-.12v-175.39c0-.07,.05-.12,.12-.12h396.98c.07,0,.12,.05,.12,.12v24.72c0,.07-.05,.12-.12,.12s-.12-.05-.12-.12v-24.6H354.46v175.15h57.08c.07,0,.12,.05,.12,.12s-.05,.12-.12,.12Z"/><path class="cls-2" d="M751.33,466.58h-105.89c-.07,0-.12-.05-.12-.12s.05-.12,.12-.12h105.77v-40.11c0-.07,.05-.12,.12-.12s.12,.05,.12,.12v40.23c0,.07-.05,.12-.12,.12Z"/><path class="cls-2" d="M743.31,377.66c.58-.89,1.25-1.7,1.91-2.53-1.86,.35-3.76,.58-5.72,.58-16.83,0-30.52-13.69-30.52-30.52s13.69-30.52,30.52-30.52,30.52,13.69,30.52,30.52c0,6.85-2.35,13.11-6.17,18.2,1.03-.22,2.11-.26,3.18-.38,3.34-5.14,5.33-11.24,5.33-17.82,0-18.12-14.74-32.86-32.86-32.86s-32.85,14.74-32.85,32.86,14.74,32.85,32.85,32.85c1.31,0,2.55-.24,3.82-.39Z"/><path class="cls-2" d="M544.54,40.6h-32.3c-.07,0-.12-.05-.12-.12V23.63c0-.07,.05-.12,.12-.12s.12,.05,.12,.12v16.73h32.05V23.63c0-.07,.05-.12,.12-.12s.12,.05,.12,.12v16.86c0,.07-.05,.12-.12,.12Z"/><path class="cls-2" d="M591.81,40.6h-32.3c-.07,0-.12-.05-.12-.12V23.63c0-.07,.05-.12,.12-.12s.12,.05,.12,.12v16.73h32.05V23.63c0-.07,.05-.12,.12-.12s.12,.05,.12,.12v16.86c0,.07-.05,.12-.12,.12Z"/><path class="cls-2" d="M625.44,40.6h-33.63c-.07,0-.12-.05-.12-.12V23.63c0-.07,.05-.12,.12-.12s.12,.05,.12,.12v16.73h33.39V23.63c0-.07,.05-.12,.12-.12s.12,.05,.12,.12v16.86c0,.07-.05,.12-.12,.12Z"/><path class="cls-2" d="M547.45,81.45h-32.04c-.23,0-.41-.18-.41-.41v-17.17c0-.23,.18-.41,.41-.41h32.04c.23,0,.41,.18,.41,.41v17.17c0,.23-.18,.41-.41,.41Zm-32.04-17.75c-.09,0-.17,.08-.17,.17v17.17c0,.09,.08,.17,.17,.17h32.04c.09,0,.17-.08,.17-.17v-17.17c0-.09-.08-.17-.17-.17h-32.04Z"/><path class="cls-2" d="M591.68,81.45h-32.04c-.23,0-.41-.18-.41-.41v-17.17c0-.23,.18-.41,.41-.41h32.04c.23,0,.41,.18,.41,.41v17.17c0,.23-.18,.41-.41,.41Zm-32.04-17.75c-.09,0-.17,.08-.17,.17v17.17c0,.09,.08,.17,.17,.17h32.04c.09,0,.17-.08,.17-.17v-17.17c0-.09-.08-.17-.17-.17h-32.04Z"/><path class="cls-2" d="M576.76,135.24h-17.17c-.23,0-.41-.18-.41-.41v-32.04c0-.23,.18-.41,.41-.41h17.17c.23,0,.41,.18,.41,.41v32.04c0,.23-.18,.41-.41,.41Zm-17.17-32.62c-.09,0-.17,.08-.17,.17v32.04c0,.09,.08,.17,.17,.17h17.17c.09,0,.17-.08,.17-.17v-32.04c0-.09-.08-.17-.17-.17h-17.17Z"/><path class="cls-2" d="M597.65,264.48h-17.17c-.23,0-.41-.18-.41-.41v-32.04c0-.23,.18-.41,.41-.41h17.17c.23,0,.41,.18,.41,.41v32.04c0,.23-.18,.41-.41,.41Zm-17.17-32.62c-.09,0-.17,.08-.17,.17v32.04c0,.09,.08,.17,.17,.17h17.17c.09,0,.17-.08,.17-.17v-32.04c0-.09-.08-.17-.17-.17h-17.17Z"/><path class="cls-2" d="M594.51,135.24h-17.17c-.23,0-.41-.18-.41-.41v-32.04c0-.23,.18-.41,.41-.41h17.17c.23,0,.41,.18,.41,.41v32.04c0,.23-.18,.41-.41,.41Zm-17.17-32.62c-.09,0-.17,.08-.17,.17v32.04c0,.09,.08,.17,.17,.17h17.17c.09,0,.17-.08,.17-.17v-32.04c0-.09-.08-.17-.17-.17h-17.17Z"/><path class="cls-2" d="M649.16,210.04h-32.04c-.23,0-.41-.18-.41-.41v-17.17c0-.23,.18-.41,.41-.41h32.04c.23,0,.41,.18,.41,.41v17.17c0,.23-.18,.41-.41,.41Zm-32.04-17.75c-.09,0-.17,.08-.17,.17v17.17c0,.09,.08,.17,.17,.17h32.04c.09,0,.17-.08,.17-.17v-17.17c0-.09-.08-.17-.17-.17h-32.04Z"/><path class="cls-2" d="M773.09,237.76h-17.17c-.23,0-.41-.18-.41-.41v-32.04c0-.23,.18-.41,.41-.41h17.17c.23,0,.41,.18,.41,.41v32.04c0,.23-.18,.41-.41,.41Zm-17.17-32.62c-.09,0-.17,.08-.17,.17v32.04c0,.09,.08,.17,.17,.17h17.17c.09,0,.17-.08,.17-.17v-32.04c0-.09-.08-.17-.17-.17h-17.17Z"/><path class="cls-2" d="M816.77,237.76h-17.17c-.23,0-.41-.18-.41-.41v-32.04c0-.23,.18-.41,.41-.41h17.17c.23,0,.41,.18,.41,.41v32.04c0,.23-.18,.41-.41,.41Zm-17.17-32.62c-.09,0-.17,.08-.17,.17v32.04c0,.09,.08,.17,.17,.17h17.17c.09,0,.17-.08,.17-.17v-32.04c0-.09-.08-.17-.17-.17h-17.17Z"/><path class="cls-2" d="M816.77,289.94h-17.17c-.23,0-.41-.18-.41-.41v-32.04c0-.23,.18-.41,.41-.41h17.17c.23,0,.41,.18,.41,.41v32.04c0,.23-.18,.41-.41,.41Zm-17.17-32.62c-.09,0-.17,.08-.17,.17v32.04c0,.09,.08,.17,.17,.17h17.17c.09,0,.17-.08,.17-.17v-32.04c0-.09-.08-.17-.17-.17h-17.17Z"/><path class="cls-2" d="M750.71,238.55h-82.82c-.23,0-.42-.19-.42-.42v-38.58c0-.23,.19-.42,.42-.42h82.82c.23,0,.42,.19,.42,.42v38.58c0,.23-.19,.42-.42,.42Zm-82.82-39.18c-.1,0-.18,.08-.18,.18v38.58c0,.1,.08,.18,.18,.18h82.82c.1,0,.18-.08,.18-.18v-38.58c0-.1-.08-.18-.18-.18h-82.82Z"/><path class="cls-2" d="M606.84,176.15h-33.87c-.29,0-.53-.24-.53-.53v-31.81c0-.29,.24-.53,.53-.53h33.87c.29,0,.53,.24,.53,.53v31.81c0,.29-.24,.53-.53,.53Zm-33.87-32.62c-.16,0-.28,.13-.28,.28v31.81c0,.16,.13,.28,.28,.28h33.87c.16,0,.28-.13,.28-.28v-31.81c0-.16-.13-.28-.28-.28h-33.87Z"/><path class="cls-2" d="M625.15,81.45h-32.04c-.23,0-.41-.18-.41-.41v-17.17c0-.23,.18-.41,.41-.41h32.04c.23,0,.41,.18,.41,.41v17.17c0,.23-.18,.41-.41,.41Zm-32.04-17.75c-.09,0-.17,.08-.17,.17v17.17c0,.09,.08,.17,.17,.17h32.04c.09,0,.17-.08,.17-.17v-17.17c0-.09-.08-.17-.17-.17h-32.04Z"/><path class="cls-2" d="M589.48,176.15c-.07,0-.12-.05-.12-.12v-32.62c0-.07,.05-.12,.12-.12s.12,.05,.12,.12v32.62c0,.07-.05,.12-.12,.12Z"/><path class="cls-2" d="M569.96,235.25h-33.87c-.29,0-.53-.24-.53-.53v-31.81c0-.29,.24-.53,.53-.53h33.87c.29,0,.53,.24,.53,.53v31.81c0,.29-.24,.53-.53,.53Zm-33.87-32.62c-.16,0-.28,.13-.28,.28v31.81c0,.16,.13,.28,.28,.28h33.87c.16,0,.28-.13,.28-.28v-31.81c0-.16-.13-.28-.28-.28h-33.87Z"/><path class="cls-2" d="M552.59,235.25c-.07,0-.12-.05-.12-.12v-32.62c0-.07,.05-.12,.12-.12s.12,.05,.12,.12v32.62c0,.07-.05,.12-.12,.12Z"/><path class="cls-2" d="M569.96,283.65h-33.87c-.29,0-.53-.24-.53-.53v-31.81c0-.29,.24-.53,.53-.53h33.87c.29,0,.53,.24,.53,.53v31.81c0,.29-.24,.53-.53,.53Zm-33.87-32.62c-.16,0-.28,.13-.28,.29v31.81c0,.16,.13,.28,.28,.28h33.87c.16,0,.28-.13,.28-.28v-31.81c0-.16-.13-.29-.28-.29h-33.87Z"/><path class="cls-2" d="M552.59,283.65c-.07,0-.12-.05-.12-.12v-32.62c0-.07,.05-.12,.12-.12s.12,.05,.12,.12v32.62c0,.07-.05,.12-.12,.12Z"/><path class="cls-2" d="M724.88,135.24h-82.13c-.26,0-.48-.22-.48-.48v-37.57c0-.27,.22-.48,.48-.48h82.13c.27,0,.48,.22,.48,.48v37.57c0,.27-.22,.48-.48,.48Zm-82.13-38.29c-.13,0-.24,.11-.24,.24v37.57c0,.13,.11,.24,.24,.24h82.13c.13,0,.24-.11,.24-.24v-37.57c0-.13-.11-.24-.24-.24h-82.13Z"/><path class="cls-2" d="M864.96,278.11h-38.7c-.27,0-.49-.22-.49-.49v-82.92c0-.27,.22-.49,.49-.49h38.7c.27,0,.49,.22,.49,.49v82.92c0,.27-.22,.49-.49,.49Zm-38.7-83.65c-.14,0-.25,.11-.25,.25v82.92c0,.14,.11,.25,.25,.25h38.7c.14,0,.25-.11,.25-.25v-82.92c0-.14-.11-.25-.25-.25h-38.7Z"/><path class="cls-2" d="M646.62,151.29c-.07,0-.12-.05-.12-.12v-16.74h-24.92c-.07,0-.12-.05-.12-.12s.05-.12,.12-.12h25.04c.07,0,.12,.05,.12,.12v16.86c0,.07-.05,.12-.12,.12Z"/><path class="cls-2" d="M646.62,188.39h-25.04c-.07,0-.12-.05-.12-.12s.05-.12,.12-.12h24.92v-16.74c0-.07,.05-.12,.12-.12s.12,.05,.12,.12v16.86c0,.07-.05,.12-.12,.12Z"/><path class="cls-2" d="M663.48,260.28h-16.86c-.07,0-.12-.05-.12-.12s.05-.12,.12-.12h16.74v-24.92c0-.07,.05-.12,.12-.12s.12,.05,.12,.12v25.04c0,.07-.05,.12-.12,.12Z"/><path class="cls-2" d="M619.3,260.28h-16.86c-.07,0-.12-.05-.12-.12v-25.04c0-.07,.05-.12,.12-.12s.12,.05,.12,.12v24.92h16.74c.07,0,.12,.05,.12,.12s-.05,.12-.12,.12Z"/><path class="cls-2" d="M621.58,167.62c-.07,0-.12-.05-.12-.12v-13.22c0-.07,.05-.12,.12-.12s.12,.05,.12,.12v13.22c0,.07-.05,.12-.12,.12Z"/><g><path class="cls-2" d="M311.08,27.03v6.53c0,1.4-.34,2.44-.93,3.16-.64,.78-1.51,1.17-2.59,1.17-1.34,0-2.19-.7-2.65-1.89h-.06c-.45,1.48-1.7,2.42-3.31,2.42-1.36,0-2.35-.49-3.03-1.38-.62-.79-.96-1.91-.96-3.33v-6.68h13.53Zm-10.84,6.3c0,1.1,.62,1.78,1.59,1.78,1.08,0,1.63-.79,1.63-1.82v-2.95h-3.22v2.99Zm5.49-.26c0,.96,.47,1.63,1.36,1.63s1.34-.62,1.34-1.61v-2.74h-2.71v2.72Z"/><path class="cls-2" d="M304.29,39.27c4.05,0,7.06,2.59,7.06,6.68s-3.01,6.7-7.06,6.7-7.06-2.59-7.06-6.7,3.01-6.68,7.06-6.68Zm0,9.97c2.46,0,4.35-1.08,4.35-3.27s-1.89-3.29-4.35-3.29-4.33,1.12-4.33,3.29,1.87,3.27,4.33,3.27Z"/><path class="cls-2" d="M304.29,53.41c4.05,0,7.06,2.59,7.06,6.68s-3.01,6.7-7.06,6.7-7.06-2.59-7.06-6.7,3.01-6.68,7.06-6.68Zm0,9.97c2.46,0,4.35-1.08,4.35-3.27s-1.89-3.29-4.35-3.29-4.33,1.12-4.33,3.29,1.87,3.27,4.33,3.27Z"/><path class="cls-2" d="M308.24,70.86v-3.94h2.84v11.26h-2.84v-3.97h-10.69v-3.35h10.69Z"/><path class="cls-2" d="M304.02,78.96c4.12,0,6.77,2.33,6.77,5.73s-2.65,5.73-6.77,5.73-6.77-2.31-6.77-5.75,2.65-5.71,6.77-5.71Zm0,8.17c2.52,0,4.29-.7,4.29-2.44s-1.76-2.46-4.29-2.46-4.28,.72-4.28,2.46,1.72,2.44,4.28,2.44Z"/></g><g><path class="cls-2" d="M369.71,114.73v-1.19h3.05v1.12c0,1.15,.55,1.63,1.48,1.63,.98,0,1.4-.61,1.4-1.59v-9.42h3.35v9.5c0,1.21-.3,2.2-.96,2.93-.76,.83-1.99,1.34-3.58,1.34-3.2,0-4.73-1.74-4.73-4.31Z"/><path class="cls-2" d="M380.25,112.42c-.02-2.12,.45-3.92,1.57-5.18,.93-1.06,2.25-1.67,4.11-1.67,2.69,0,4.39,1.36,4.79,3.46h-3.05c-.19-.64-.64-1.19-1.7-1.19-1.59,0-2.46,1.19-2.55,3.27h.04c.7-.74,1.57-1.23,2.97-1.23,2.5,0,4.67,1.82,4.67,4.6s-2.18,4.62-5.15,4.62c-3.8,0-5.68-2.82-5.7-6.68Zm7.81,2.08c0-1.29-.93-2.27-2.23-2.27-1.38,0-2.25,.96-2.25,2.27s.93,2.21,2.25,2.21,2.23-.95,2.23-2.21Z"/></g><g><path class="cls-2" d="M384.07,304.09v-1.19h3.05v1.12c0,1.15,.55,1.63,1.48,1.63,.98,0,1.4-.61,1.4-1.59v-9.42h3.35v9.5c0,1.21-.3,2.2-.96,2.93-.76,.83-1.99,1.34-3.58,1.34-3.2,0-4.73-1.74-4.73-4.31Z"/><path class="cls-2" d="M394.38,304.28h3.12c.21,1.1,1.13,1.65,2.29,1.65,1.29,0,2.1-.91,2.1-2.21s-.87-2.14-2.12-2.14c-.83,0-1.51,.36-1.85,.79h-2.99l1.32-7.17h8.04v2.55h-5.75l-.45,2.31h.04c.47-.44,1.34-.78,2.52-.78,2.48,0,4.47,1.7,4.47,4.45s-2.14,4.73-5.24,4.73-5.18-1.42-5.49-4.18Z"/></g><g><path class="cls-2" d="M449.22,340.64h4.5l1.65,5.92c.25,.85,.78,3.08,.78,3.08h.04s.53-2.23,.76-3.08l1.67-5.92h4.54v13.53h-3.06v-6.81c0-.55,.06-2.71,.06-2.71h-.04s-.47,2.03-.62,2.52l-1.95,7h-2.76l-1.93-6.98c-.15-.49-.62-2.54-.62-2.54h-.04s.06,2.18,.06,2.72v6.79h-3.01v-13.53Z"/><path class="cls-2" d="M464.44,350.46c0-1.48,.85-2.63,2.25-3.24v-.06c-1.14-.55-1.72-1.42-1.72-2.61,0-2.16,1.89-3.61,4.88-3.61s4.86,1.36,4.86,3.56c0,1.14-.64,2.02-1.7,2.59v.06c1.44,.55,2.25,1.74,2.25,3.24,0,2.54-2.2,4.09-5.39,4.09s-5.43-1.55-5.43-4.01Zm7.64-.21c0-1.15-.85-1.93-2.21-1.93s-2.27,.78-2.27,1.93,.91,1.85,2.25,1.85,2.23-.74,2.23-1.85Zm-.32-5.54c0-.93-.74-1.57-1.93-1.57s-1.91,.64-1.91,1.57,.72,1.59,1.91,1.59,1.93-.66,1.93-1.59Z"/></g><g><path class="cls-2" d="M475.33,33.79c0-4.61,3-8.09,7.61-8.09,1.79,0,3.31,.52,4.41,1.36,1.34,1.02,2.12,2.53,2.31,4.26h-3.83c-.19-1.38-1.28-2.44-2.92-2.44-2.51,0-3.7,2.1-3.7,4.91s1.43,4.89,3.72,4.89c1.71,0,2.83-1.08,3.01-2.57h3.83c-.11,1.54-.8,2.94-1.86,3.96-1.19,1.15-2.77,1.75-4.95,1.75-4.54,0-7.63-3.39-7.63-8.02Z"/><path class="cls-2" d="M493.81,32h-3.18v-2.46c1.97-.06,3.57-.99,3.93-3h2.9v14.94h-3.65v-9.47Z"/><path class="cls-2" d="M502.59,32h-3.18v-2.46c1.97-.06,3.57-.99,3.93-3h2.9v14.94h-3.65v-9.47Z"/></g><g><path class="cls-2" d="M475.33,69.95c0-4.61,3-8.09,7.61-8.09,1.79,0,3.31,.52,4.41,1.36,1.34,1.02,2.12,2.53,2.31,4.26h-3.83c-.19-1.38-1.28-2.44-2.92-2.44-2.51,0-3.7,2.1-3.7,4.91s1.43,4.89,3.72,4.89c1.71,0,2.83-1.08,3.01-2.57h3.83c-.11,1.54-.8,2.94-1.86,3.96-1.19,1.15-2.77,1.75-4.95,1.75-4.54,0-7.63-3.39-7.63-8.02Z"/><path class="cls-2" d="M493.81,68.15h-3.18v-2.46c1.97-.06,3.57-.99,3.93-3h2.9v14.94h-3.65v-9.47Z"/><path class="cls-2" d="M499.37,70.23c0-4.71,2.66-7.74,6.55-7.74s6.55,3.03,6.55,7.74-2.64,7.74-6.57,7.74-6.53-3.03-6.53-7.74Zm9.34,0c0-2.88-.8-4.91-2.79-4.91s-2.81,2.01-2.81,4.91,.82,4.89,2.81,4.89,2.79-1.97,2.79-4.89Z"/></g><g><path class="cls-2" d="M493.45,106.68h5.15l1.88,6.77c.28,.97,.89,3.52,.89,3.52h.04s.61-2.55,.86-3.52l1.9-6.77h5.19v15.46h-3.5v-7.78c0-.63,.06-3.09,.06-3.09h-.04s-.54,2.31-.71,2.88l-2.23,8h-3.16l-2.21-7.98c-.17-.56-.71-2.9-.71-2.9h-.04s.06,2.49,.06,3.11v7.76h-3.44v-15.46Z"/><path class="cls-2" d="M517.77,118.85h-6.9v-3.35l6.85-8.32h3.59v8.91h2.14v2.77h-2.14v3.29h-3.55v-3.29Zm0-2.77v-5.08h-.04l-4.11,5.04v.04h4.15Z"/></g><g><path class="cls-2" d="M541.24,129.1v-7.39c0-3.07,1.58-5.41,4.45-5.41,1.79,0,3.11,.89,3.74,2.68h.06c.45-1.34,1.3-2.03,2.83-2.25,2.03-.32,3.98-.11,4.17-.65h.19v3.72c-.24,.41-2.05,.35-3.59,.58-1.43,.2-2.21,.93-2.21,2.57v2.31h5.79v3.83h-15.46Zm6.83-6.7c0-1.51-.71-2.29-1.88-2.29s-1.92,.73-1.92,2.21v2.96h3.81v-2.88Z"/><path class="cls-2" d="M552.27,115.38v-3.57c1.25-.24,1.88-1.3,1.88-2.62,0-1.47-1.04-2.4-2.53-2.4s-2.44,1-2.44,2.42c0,.95,.41,1.73,.91,2.12v3.42l-8.19-1.51v-9.19h2.92v6.57l2.64,.52v-.04c-.5-.54-.89-1.54-.89-2.88,0-2.83,1.95-5.1,5.08-5.1s5.41,2.44,5.41,5.99-1.62,5.92-4.78,6.27Z"/></g><g><path class="cls-2" d="M598.32,129.1v-7.39c0-3.07,1.58-5.41,4.45-5.41,1.79,0,3.11,.89,3.74,2.68h.06c.45-1.34,1.3-2.03,2.83-2.25,2.03-.32,3.98-.11,4.17-.65h.19v3.72c-.24,.41-2.05,.35-3.59,.58-1.43,.2-2.21,.93-2.21,2.57v2.31h5.79v3.83h-15.46Zm6.83-6.7c0-1.51-.71-2.29-1.88-2.29s-1.92,.73-1.92,2.21v2.96h3.81v-2.88Z"/><path class="cls-2" d="M610.49,108.31v6.9h-3.35l-8.32-6.85v-3.59h8.91v-2.14h2.77v2.14h3.29v3.55h-3.29Zm-2.77,0h-5.08v.04l5.04,4.11h.04v-4.15Z"/></g><g><path class="cls-2" d="M670.93,177.12c-4.61,0-8.09-3-8.09-7.61,0-1.79,.52-3.31,1.36-4.41,1.02-1.34,2.53-2.12,4.26-2.31v3.83c-1.38,.19-2.44,1.28-2.44,2.92,0,2.51,2.1,3.7,4.91,3.7s4.89-1.43,4.89-3.72c0-1.71-1.08-2.83-2.57-3.01v-3.83c1.54,.11,2.94,.8,3.96,1.86,1.15,1.19,1.75,2.77,1.75,4.95,0,4.54-3.39,7.63-8.02,7.63Z"/><path class="cls-2" d="M673.46,159.29c-1.15-1.34-2.23-3.07-3.27-4.24-.54-.61-1.1-.97-1.84-.97-1.15,0-1.92,.67-1.92,1.92,0,.69,.22,1.23,.67,1.6,.5,.43,1.17,.65,2.18,.67v3.42c-1.73,0-2.79-.3-3.76-1.02-1.21-.84-2.03-2.44-2.03-4.76,0-3.57,2.12-5.49,4.73-5.49,2.05,0,3.24,1.15,4.26,2.46,1.08,1.32,1.99,2.92,3.09,3.96h.02v-6.44h3.01v11.5c-2.49-.04-3.91-1.15-5.15-2.62Z"/></g><g><path class="cls-2" d="M765.7,283.09c-4.61,0-8.09-3-8.09-7.61,0-1.79,.52-3.31,1.36-4.41,1.02-1.34,2.53-2.12,4.26-2.31v3.83c-1.38,.19-2.44,1.28-2.44,2.92,0,2.51,2.1,3.7,4.91,3.7s4.89-1.43,4.89-3.72c0-1.71-1.08-2.83-2.57-3.01v-3.83c1.54,.11,2.94,.8,3.96,1.86,1.15,1.19,1.75,2.77,1.75,4.95,0,4.54-3.39,7.63-8.02,7.63Z"/><path class="cls-2" d="M763.91,264.61v3.18h-2.46c-.06-1.97-.99-3.57-3-3.93v-2.9h14.94v3.65h-9.47Z"/><path class="cls-2" d="M768.94,259.3v-3.57c1.25-.24,1.88-1.3,1.88-2.62,0-1.47-1.04-2.4-2.53-2.4s-2.44,1-2.44,2.42c0,.95,.41,1.73,.91,2.12v3.42l-8.19-1.51v-9.19h2.92v6.57l2.64,.52v-.04c-.5-.54-.89-1.54-.89-2.88,0-2.83,1.95-5.1,5.08-5.1s5.41,2.44,5.41,5.99-1.62,5.92-4.78,6.27Z"/></g><g><path class="cls-2" d="M806.36,318.81c-4.61,0-8.09-3-8.09-7.61,0-1.79,.52-3.31,1.36-4.41,1.02-1.34,2.53-2.12,4.26-2.31v3.83c-1.38,.19-2.44,1.28-2.44,2.92,0,2.51,2.1,3.7,4.91,3.7s4.89-1.43,4.89-3.72c0-1.71-1.08-2.83-2.57-3.01v-3.83c1.54,.11,2.94,.8,3.96,1.86,1.15,1.19,1.75,2.77,1.75,4.95,0,4.54-3.39,7.63-8.02,7.63Z"/><path class="cls-2" d="M809.6,303.79v-3.57c1.25-.24,1.88-1.3,1.88-2.62,0-1.47-1.04-2.4-2.53-2.4s-2.44,1-2.44,2.42c0,.95,.41,1.73,.91,2.12v3.42l-8.19-1.51v-9.19h2.92v6.57l2.64,.52v-.04c-.5-.54-.89-1.54-.89-2.88,0-2.83,1.95-5.1,5.08-5.1s5.41,2.44,5.41,5.99-1.62,5.92-4.78,6.27Z"/></g><g><path class="cls-2" d="M840.87,318.81c-4.61,0-8.09-3-8.09-7.61,0-1.79,.52-3.31,1.36-4.41,1.02-1.34,2.53-2.12,4.26-2.31v3.83c-1.38,.19-2.44,1.28-2.44,2.92,0,2.51,2.1,3.7,4.91,3.7s4.89-1.43,4.89-3.72c0-1.71-1.08-2.83-2.57-3.01v-3.83c1.54,.11,2.94,.8,3.96,1.86,1.15,1.19,1.75,2.77,1.75,4.95,0,4.54-3.39,7.63-8.02,7.63Z"/><path class="cls-2" d="M839.07,300.33v3.18h-2.46c-.06-1.97-.99-3.57-3-3.93v-2.9h14.94v3.65h-9.47Z"/><path class="cls-2" d="M836.87,287.79h-.04v7.14h-3.09v-10.96h2.81c2.62,2.59,6.92,4.95,12,5.1v3.81c-5.38-.19-9.54-2.98-11.68-5.08Z"/></g><g><path class="cls-2" d="M806.01,200.61c-4.61,0-8.09-3-8.09-7.61,0-1.79,.52-3.31,1.36-4.41,1.02-1.34,2.53-2.12,4.26-2.31v3.83c-1.38,.19-2.44,1.28-2.44,2.92,0,2.51,2.1,3.7,4.91,3.7s4.89-1.43,4.89-3.72c0-1.71-1.08-2.83-2.57-3.01v-3.83c1.54,.11,2.94,.8,3.96,1.86,1.15,1.19,1.75,2.77,1.75,4.95,0,4.54-3.39,7.63-8.02,7.63Z"/><path class="cls-2" d="M810.4,178.52v6.9h-3.35l-8.32-6.85v-3.59h8.91v-2.14h2.77v2.14h3.29v3.55h-3.29Zm-2.77,0h-5.08v.04l5.04,4.11h.04v-4.15Z"/></g><g><path class="cls-2" d="M572.39,202.83v-7.39c0-3.07,1.58-5.41,4.45-5.41,1.79,0,3.11,.89,3.74,2.68h.06c.45-1.34,1.3-2.03,2.83-2.25,2.03-.32,3.98-.11,4.17-.65h.19v3.72c-.24,.41-2.05,.35-3.59,.58-1.43,.2-2.21,.93-2.21,2.57v2.31h5.79v3.83h-15.46Zm6.83-6.7c0-1.51-.71-2.29-1.88-2.29s-1.92,.73-1.92,2.21v2.96h3.81v-2.88Z"/><path class="cls-2" d="M582.7,186.3c-1.15-1.34-2.23-3.07-3.27-4.24-.54-.61-1.1-.97-1.84-.97-1.15,0-1.92,.67-1.92,1.92,0,.69,.22,1.23,.67,1.6,.5,.43,1.17,.65,2.18,.67v3.42c-1.73,0-2.79-.3-3.76-1.02-1.21-.84-2.03-2.44-2.03-4.76,0-3.57,2.12-5.49,4.73-5.49,2.05,0,3.24,1.15,4.26,2.46,1.08,1.32,1.99,2.92,3.09,3.96h.02v-6.44h3.01v11.5c-2.49-.04-3.91-1.15-5.15-2.62Z"/></g><g><path class="cls-2" d="M590.54,202.83v-7.39c0-3.07,1.58-5.41,4.45-5.41,1.79,0,3.11,.89,3.74,2.68h.06c.45-1.34,1.3-2.03,2.83-2.25,2.03-.32,3.98-.11,4.17-.65h.19v3.72c-.24,.41-2.05,.35-3.59,.58-1.43,.2-2.21,.93-2.21,2.57v2.31h5.79v3.83h-15.46Zm6.83-6.7c0-1.51-.71-2.29-1.88-2.29s-1.92,.73-1.92,2.21v2.96h3.81v-2.88Z"/><path class="cls-2" d="M604.92,187.44c-.95,1.08-2.33,1.64-4.04,1.64v-3.44c1.58-.09,2.68-.87,2.68-2.72,0-1.49-.82-2.31-2.05-2.31-1.3,0-1.95,.91-1.95,2.53v.89h-2.53v-.8c0-1.38-.61-2.29-1.73-2.29-1.02,0-1.69,.71-1.69,1.95,0,1.58,1,2.27,2.27,2.36v3.39c-2.94-.06-4.99-2.12-4.99-5.79,0-3.26,1.56-5.49,4.17-5.49,1.51,0,2.44,.93,2.96,2.25h.04c.5-1.62,1.64-2.68,3.63-2.68,3.18,0,4.65,2.75,4.65,5.86,0,2.1-.5,3.63-1.43,4.67Z"/></g><g><path class="cls-2" d="M501.18,237.22c-4.61,0-8.09-3-8.09-7.61,0-1.79,.52-3.31,1.36-4.41,1.02-1.34,2.53-2.12,4.26-2.31v3.83c-1.38,.19-2.44,1.28-2.44,2.92,0,2.51,2.1,3.7,4.91,3.7s4.89-1.43,4.89-3.72c0-1.71-1.08-2.83-2.57-3.01v-3.83c1.54,.11,2.94,.8,3.96,1.86,1.15,1.19,1.75,2.77,1.75,4.95,0,4.54-3.39,7.63-8.02,7.63Z"/><path class="cls-2" d="M505.18,221.57v-3.46c.74-.22,1.41-.84,1.41-2.08,0-.82-.26-1.47-.84-1.92-.63-.52-1.62-.8-2.94-.84v.04c.82,.76,1.45,1.77,1.45,3.31,0,2.98-2.05,5.41-5.23,5.41s-5.28-2.51-5.28-5.97c0-1.84,.61-3.42,1.67-4.45,1.28-1.32,3.24-1.95,5.95-1.95,2.29,0,4.37,.48,5.75,1.54,1.36,1.06,2.1,2.59,2.1,4.76,0,3.2-1.64,5.21-4.02,5.62Zm-6.16-8.24c-1.49,0-2.57,1.1-2.57,2.64s1.1,2.59,2.55,2.59,2.57-1,2.57-2.59c0-1.51-1.06-2.64-2.55-2.64Z"/></g><g><path class="cls-2" d="M519.33,237.22c-4.61,0-8.09-3-8.09-7.61,0-1.79,.52-3.31,1.36-4.41,1.02-1.34,2.53-2.12,4.26-2.31v3.83c-1.38,.19-2.44,1.28-2.44,2.92,0,2.51,2.1,3.7,4.91,3.7s4.89-1.43,4.89-3.72c0-1.71-1.08-2.83-2.57-3.01v-3.83c1.54,.11,2.94,.8,3.96,1.86,1.15,1.19,1.75,2.77,1.75,4.95,0,4.54-3.39,7.63-8.02,7.63Z"/><path class="cls-2" d="M522.77,222.07c-1.69,0-3-.97-3.7-2.57h-.06c-.63,1.3-1.62,1.97-2.98,1.97-2.46,0-4.13-2.16-4.13-5.58s1.56-5.56,4.06-5.56c1.3,0,2.31,.74,2.96,1.95h.07c.63-1.64,1.99-2.57,3.7-2.57,2.9,0,4.67,2.51,4.67,6.16s-1.77,6.21-4.58,6.21Zm-6.57-8.37c-1.06,0-1.79,.84-1.79,2.21s.74,2.18,1.79,2.18,1.82-.82,1.82-2.18-.76-2.21-1.82-2.21Zm6.33-.37c-1.32,0-2.21,.97-2.21,2.53s.89,2.59,2.21,2.59,2.12-1.04,2.12-2.57-.84-2.55-2.12-2.55Z"/></g><g><path class="cls-2" d="M501.18,273.55c-4.61,0-8.09-3-8.09-7.61,0-1.79,.52-3.31,1.36-4.41,1.02-1.34,2.53-2.12,4.26-2.31v3.83c-1.38,.19-2.44,1.28-2.44,2.92,0,2.51,2.1,3.7,4.91,3.7s4.89-1.43,4.89-3.72c0-1.71-1.08-2.83-2.57-3.01v-3.83c1.54,.11,2.94,.8,3.96,1.86,1.15,1.19,1.75,2.77,1.75,4.95,0,4.54-3.39,7.63-8.02,7.63Z"/><path class="cls-2" d="M501.57,258.27c-2.42,.02-4.48-.52-5.92-1.79-1.21-1.06-1.9-2.57-1.9-4.69,0-3.07,1.56-5.02,3.96-5.47v3.48c-.73,.22-1.36,.74-1.36,1.95,0,1.82,1.36,2.81,3.74,2.92v-.04c-.84-.8-1.41-1.79-1.41-3.39,0-2.85,2.08-5.34,5.25-5.34s5.28,2.49,5.28,5.88c0,4.35-3.22,6.49-7.63,6.51Zm2.38-8.93c-1.47,0-2.59,1.06-2.59,2.55,0,1.58,1.1,2.57,2.59,2.57s2.53-1.06,2.53-2.57-1.08-2.55-2.53-2.55Z"/></g><g><path class="cls-2" d="M433.97,391.21v-3.85c1.56-.17,2.21-1.19,2.21-3.03,0-1.25-.45-2.49-1.62-2.49-1.23,0-1.49,1.25-2.01,3.37-.63,2.68-1.45,5.51-4.69,5.51s-4.76-2.68-4.76-6.14,1.51-5.95,4.76-6.1v3.74c-1.19,.15-1.86,1.06-1.86,2.49,0,1.34,.58,2.23,1.45,2.23,1.08,0,1.34-1.19,1.86-3.5,.67-2.88,1.56-5.47,4.87-5.47s5.04,2.77,5.04,6.33c0,4.11-1.82,6.81-5.23,6.9Z"/><path class="cls-2" d="M423.37,376.42v-3.83h12.22v-6.94h3.24v10.77h-15.46Z"/><path class="cls-2" d="M431.13,365.38c-4.63,0-8.07-2.96-8.07-7.63s3.44-7.65,8.07-7.65,8.06,2.96,8.06,7.65-3.44,7.63-8.06,7.63Zm0-11.39c-2.81,0-4.97,1.23-4.97,3.74s2.16,3.76,4.97,3.76,4.95-1.28,4.95-3.76-2.14-3.74-4.95-3.74Z"/><path class="cls-2" d="M426.62,345.45v4.5h-3.24v-12.87h3.24v4.54h12.22v3.83h-12.22Z"/><path class="cls-2" d="M423.37,314.43v-3.94l15.46-5.58v4.02l-2.79,.91v5.41l2.79,.89v3.85l-15.46-5.56Zm9.92-3.7l-3.74,1.17c-.8,.26-2.18,.6-2.18,.6v.04s1.38,.37,2.18,.63l3.74,1.19v-3.63Z"/></g><g><path class="cls-2" d="M433.97,237.04v-3.85c1.56-.17,2.21-1.19,2.21-3.03,0-1.25-.45-2.49-1.62-2.49-1.23,0-1.49,1.25-2.01,3.37-.63,2.68-1.45,5.51-4.69,5.51s-4.76-2.68-4.76-6.14,1.51-5.95,4.76-6.1v3.74c-1.19,.15-1.86,1.06-1.86,2.49,0,1.34,.58,2.23,1.45,2.23,1.08,0,1.34-1.19,1.86-3.5,.67-2.88,1.56-5.47,4.87-5.47s5.04,2.77,5.04,6.33c0,4.11-1.82,6.81-5.23,6.9Z"/><path class="cls-2" d="M423.37,222.26v-3.83h12.22v-6.94h3.24v10.77h-15.46Z"/><path class="cls-2" d="M431.13,211.21c-4.63,0-8.07-2.96-8.07-7.63s3.44-7.65,8.07-7.65,8.06,2.96,8.06,7.65-3.44,7.63-8.06,7.63Zm0-11.39c-2.81,0-4.97,1.23-4.97,3.74s2.16,3.76,4.97,3.76,4.95-1.28,4.95-3.76-2.14-3.74-4.95-3.74Z"/><path class="cls-2" d="M426.62,191.28v4.5h-3.24v-12.87h3.24v4.54h12.22v3.83h-12.22Z"/><path class="cls-2" d="M423.37,164.74v-7.46c0-1.6,.39-2.79,1.06-3.61,.74-.89,1.73-1.34,2.96-1.34,1.54,0,2.51,.8,3.03,2.16h.07c.52-1.69,1.95-2.77,3.78-2.77,1.56,0,2.68,.56,3.46,1.58,.71,.91,1.1,2.18,1.1,3.8v7.63h-15.46Zm6.12-6.9c0-1.1-.54-1.86-1.56-1.86s-1.54,.71-1.54,1.84v3.14h3.09v-3.11Zm6.27-.3c0-1.25-.71-2.03-1.82-2.03-1.23,0-1.86,.91-1.86,2.08v3.37h3.68v-3.42Z"/></g><g><path class="cls-2" d="M519.33,273.55c-4.61,0-8.09-3-8.09-7.61,0-1.79,.52-3.31,1.36-4.41,1.02-1.34,2.53-2.12,4.26-2.31v3.83c-1.38,.19-2.44,1.28-2.44,2.92,0,2.51,2.1,3.7,4.91,3.7s4.89-1.43,4.89-3.72c0-1.71-1.08-2.83-2.57-3.01v-3.83c1.54,.11,2.94,.8,3.96,1.86,1.15,1.19,1.75,2.77,1.75,4.95,0,4.54-3.39,7.63-8.02,7.63Z"/><path class="cls-2" d="M515.33,251.3h-.04v7.14h-3.09v-10.96h2.81c2.62,2.59,6.92,4.95,12,5.1v3.81c-5.38-.19-9.54-2.98-11.68-5.08Z"/></g><g><path class="cls-2" d="M587.5,288.17c-4.14,0-7.28-2.71-7.28-6.85,0-1.61,.47-2.98,1.23-3.97,.91-1.21,2.28-1.91,3.83-2.08v3.44c-1.25,.17-2.2,1.15-2.2,2.63,0,2.26,1.89,3.33,4.42,3.33s4.4-1.28,4.4-3.35c0-1.54-.97-2.55-2.32-2.7v-3.44c1.38,.1,2.65,.72,3.56,1.67,1.03,1.07,1.58,2.49,1.58,4.46,0,4.09-3.05,6.87-7.22,6.87Z"/><path class="cls-2" d="M585.89,271.54v2.86h-2.22c-.06-1.77-.89-3.21-2.7-3.54v-2.61h13.44v3.29h-8.52Z"/></g><g><path class="cls-2" d="M562.45,51.14c0-4.61,3-8.09,7.61-8.09,1.79,0,3.31,.52,4.41,1.36,1.34,1.02,2.12,2.53,2.31,4.26h-3.83c-.19-1.38-1.28-2.44-2.92-2.44-2.51,0-3.7,2.1-3.7,4.91s1.43,4.89,3.72,4.89c1.71,0,2.83-1.08,3.01-2.57h3.83c-.11,1.54-.8,2.94-1.86,3.96-1.19,1.15-2.77,1.75-4.95,1.75-4.54,0-7.63-3.39-7.63-8.02Z"/><path class="cls-2" d="M580.28,53.67c1.34-1.15,3.07-2.23,4.24-3.27,.61-.54,.97-1.1,.97-1.84,0-1.15-.67-1.92-1.92-1.92-.69,0-1.23,.22-1.6,.67-.43,.5-.65,1.17-.67,2.18h-3.42c0-1.73,.3-2.79,1.02-3.76,.84-1.21,2.44-2.03,4.76-2.03,3.57,0,5.49,2.12,5.49,4.73,0,2.05-1.15,3.24-2.46,4.26-1.32,1.08-2.92,1.99-3.96,3.09v.02h6.44v3.01h-11.5c.04-2.49,1.15-3.91,2.62-5.15Z"/></g><g><path class="cls-2" d="M592.24,51.14c0-4.61,3-8.09,7.61-8.09,1.79,0,3.31,.52,4.41,1.36,1.34,1.02,2.12,2.53,2.31,4.26h-3.83c-.19-1.38-1.28-2.44-2.92-2.44-2.51,0-3.7,2.1-3.7,4.91s1.43,4.89,3.72,4.89c1.71,0,2.83-1.08,3.01-2.57h3.83c-.11,1.54-.8,2.94-1.86,3.96-1.19,1.15-2.77,1.75-4.95,1.75-4.54,0-7.63-3.39-7.63-8.02Z"/><path class="cls-2" d="M610.72,49.35h-3.18v-2.46c1.97-.06,3.57-.99,3.93-3h2.9v14.94h-3.65v-9.47Z"/><path class="cls-2" d="M623.1,55.53h-6.9v-3.35l6.85-8.32h3.59v8.91h2.14v2.77h-2.14v3.29h-3.55v-3.29Zm0-2.77v-5.08h-.04l-4.11,5.04v.04h4.15Z"/></g><g><path class="cls-2" d="M562.45,91.66c0-4.61,3-8.09,7.61-8.09,1.79,0,3.31,.52,4.41,1.36,1.34,1.02,2.12,2.53,2.31,4.26h-3.83c-.19-1.38-1.28-2.44-2.92-2.44-2.51,0-3.7,2.1-3.7,4.91s1.43,4.89,3.72,4.89c1.71,0,2.83-1.08,3.01-2.57h3.83c-.11,1.54-.8,2.94-1.86,3.96-1.19,1.15-2.77,1.75-4.95,1.75-4.54,0-7.63-3.39-7.63-8.02Z"/><path class="cls-2" d="M579.13,98.26c-1.08-.95-1.64-2.33-1.64-4.04h3.44c.09,1.58,.87,2.68,2.72,2.68,1.49,0,2.31-.82,2.31-2.05,0-1.3-.91-1.95-2.53-1.95h-.89v-2.53h.8c1.38,0,2.29-.61,2.29-1.73,0-1.02-.71-1.69-1.95-1.69-1.58,0-2.27,1-2.36,2.27h-3.39c.06-2.94,2.12-4.99,5.79-4.99,3.26,0,5.49,1.56,5.49,4.17,0,1.51-.93,2.44-2.25,2.96v.04c1.62,.5,2.68,1.64,2.68,3.63,0,3.18-2.75,4.65-5.86,4.65-2.1,0-3.63-.5-4.67-1.43Z"/></g><g><path class="cls-2" d="M592.24,91.66c0-4.61,3-8.09,7.61-8.09,1.79,0,3.31,.52,4.41,1.36,1.34,1.02,2.12,2.53,2.31,4.26h-3.83c-.19-1.38-1.28-2.44-2.92-2.44-2.51,0-3.7,2.1-3.7,4.91s1.43,4.89,3.72,4.89c1.71,0,2.83-1.08,3.01-2.57h3.83c-.11,1.54-.8,2.94-1.86,3.96-1.19,1.15-2.77,1.75-4.95,1.75-4.54,0-7.63-3.39-7.63-8.02Z"/><path class="cls-2" d="M610.72,89.87h-3.18v-2.46c1.97-.06,3.57-.99,3.93-3h2.9v14.94h-3.65v-9.47Z"/><path class="cls-2" d="M617.7,98.26c-1.08-.95-1.64-2.33-1.64-4.04h3.44c.09,1.58,.87,2.68,2.72,2.68,1.49,0,2.31-.82,2.31-2.05,0-1.3-.91-1.95-2.53-1.95h-.89v-2.53h.8c1.38,0,2.29-.61,2.29-1.73,0-1.02-.71-1.69-1.95-1.69-1.58,0-2.27,1-2.36,2.27h-3.39c.06-2.94,2.12-4.99,5.79-4.99,3.26,0,5.49,1.56,5.49,4.17,0,1.51-.93,2.44-2.25,2.96v.04c1.62,.5,2.68,1.64,2.68,3.63,0,3.18-2.75,4.65-5.86,4.65-2.1,0-3.63-.5-4.67-1.43Z"/></g><g><path class="cls-2" d="M653.92,180.53h7.39c3.07,0,5.41,1.58,5.41,4.45,0,1.79-.89,3.11-2.68,3.74v.06c1.34,.45,2.03,1.3,2.25,2.83,.32,2.03,.11,3.98,.65,4.17v.19h-3.72c-.41-.24-.35-2.05-.58-3.59-.2-1.43-.93-2.21-2.57-2.21h-2.31v5.79h-3.83v-15.46Zm6.7,6.83c1.51,0,2.29-.71,2.29-1.88s-.73-1.92-2.21-1.92h-2.96v3.81h2.88Z"/><path class="cls-2" d="M671.11,186.52h-3.18v-2.46c1.97-.06,3.57-.99,3.93-3h2.9v14.94h-3.65v-9.47Z"/></g><g><path class="cls-2" d="M696.37,252.48c0-4.61,3-8.09,7.61-8.09,1.79,0,3.31,.52,4.41,1.36,1.34,1.02,2.12,2.53,2.31,4.26h-3.83c-.19-1.38-1.28-2.44-2.92-2.44-2.51,0-3.7,2.1-3.7,4.91s1.43,4.89,3.72,4.89c1.71,0,2.83-1.08,3.01-2.57h3.83c-.11,1.54-.8,2.94-1.86,3.96-1.19,1.15-2.77,1.75-4.95,1.75-4.54,0-7.63-3.39-7.63-8.02Z"/><path class="cls-2" d="M714.85,250.69h-3.18v-2.46c1.97-.06,3.57-.99,3.93-3h2.9v14.94h-3.65v-9.47Z"/><path class="cls-2" d="M720.42,252.87c-.02-2.42,.52-4.48,1.79-5.92,1.06-1.21,2.57-1.9,4.69-1.9,3.07,0,5.02,1.56,5.47,3.96h-3.48c-.22-.73-.74-1.36-1.95-1.36-1.82,0-2.81,1.36-2.92,3.74h.04c.8-.84,1.79-1.41,3.39-1.41,2.85,0,5.34,2.08,5.34,5.25s-2.49,5.28-5.88,5.28c-4.35,0-6.49-3.22-6.51-7.63Zm8.93,2.38c0-1.47-1.06-2.59-2.55-2.59-1.58,0-2.57,1.1-2.57,2.59s1.06,2.53,2.57,2.53,2.55-1.08,2.55-2.53Z"/></g><g><path class="cls-2" d="M774.08,338.69h5.15l1.88,6.77c.28,.97,.89,3.52,.89,3.52h.04s.61-2.55,.86-3.52l1.9-6.77h5.19v15.46h-3.5v-7.78c0-.63,.06-3.09,.06-3.09h-.04s-.54,2.31-.71,2.88l-2.23,8h-3.16l-2.21-7.98c-.17-.56-.71-2.9-.71-2.9h-.04s.06,2.49,.06,3.11v7.76h-3.44v-15.46Z"/><path class="cls-2" d="M794.79,344.68h-3.18v-2.46c1.97-.06,3.57-.99,3.93-3h2.9v14.94h-3.65v-9.47Z"/><path class="cls-2" d="M802.91,349.01c1.34-1.15,3.07-2.23,4.24-3.27,.61-.54,.97-1.1,.97-1.84,0-1.15-.67-1.92-1.92-1.92-.69,0-1.23,.22-1.6,.67-.43,.5-.65,1.17-.67,2.18h-3.42c0-1.73,.3-2.79,1.02-3.76,.84-1.21,2.44-2.03,4.76-2.03,3.57,0,5.49,2.12,5.49,4.73,0,2.05-1.15,3.24-2.46,4.26-1.32,1.08-2.92,1.99-3.96,3.09v.02h6.44v3.01h-11.5c.04-2.49,1.15-3.91,2.62-5.15Z"/></g><g><path class="cls-2" d="M662.58,282.93c-1.1,.63-2.4,.97-3.89,.97-4.67,0-7.61-3.44-7.61-8.06s2.94-8.07,7.61-8.07,7.63,3.44,7.63,8.07c0,2.14-.63,4.02-1.77,5.43l1.75,1.64-1.77,1.88-1.95-1.86Zm-2.49-2.4l-1.41-1.36,1.77-1.84,1.43,1.36c.37-.8,.54-1.77,.54-2.85,0-2.81-1.21-4.97-3.72-4.97s-3.74,2.16-3.74,4.97,1.25,4.95,3.74,4.95c.52,0,.97-.09,1.38-.26Z"/><path class="cls-2" d="M670.49,274.06h-3.18v-2.46c1.97-.06,3.57-.99,3.93-3h2.9v14.94h-3.65v-9.47Z"/></g><g><path class="cls-2" d="M686.04,83.18c0-4.61,3-8.09,7.61-8.09,1.79,0,3.31,.52,4.41,1.36,1.34,1.02,2.12,2.53,2.31,4.26h-3.83c-.19-1.38-1.28-2.44-2.92-2.44-2.51,0-3.7,2.1-3.7,4.91s1.43,4.89,3.72,4.89c1.71,0,2.83-1.08,3.01-2.57h3.83c-.11,1.54-.8,2.94-1.86,3.96-1.19,1.15-2.77,1.75-4.95,1.75-4.54,0-7.63-3.39-7.63-8.02Z"/><path class="cls-2" d="M704.52,81.38h-3.18v-2.46c1.97-.06,3.57-.99,3.93-3h2.9v14.94h-3.65v-9.47Z"/><path class="cls-2" d="M709.96,86.62c0-1.69,.97-3,2.57-3.7v-.06c-1.3-.63-1.97-1.62-1.97-2.98,0-2.46,2.16-4.13,5.58-4.13s5.56,1.56,5.56,4.06c0,1.3-.74,2.31-1.95,2.96v.07c1.64,.63,2.57,1.99,2.57,3.7,0,2.9-2.51,4.67-6.16,4.67s-6.21-1.77-6.21-4.58Zm8.73-.24c0-1.32-.97-2.21-2.53-2.21s-2.59,.89-2.59,2.21,1.04,2.12,2.57,2.12,2.55-.84,2.55-2.12Zm-.37-6.33c0-1.06-.84-1.79-2.21-1.79s-2.18,.74-2.18,1.79,.82,1.82,2.18,1.82,2.21-.76,2.21-1.82Z"/></g><g><path class="cls-2" d="M280.33,85.92c1.29-1.17,3.06-1.82,5.13-1.82s3.99,.72,5.28,2.01c1.13,1.12,1.8,2.69,1.8,4.64,0,3.48-1.85,5.56-4.69,6v-3.25c1.1-.25,1.93-1.15,1.93-2.63,0-2.23-1.85-3.35-4.31-3.35s-4.31,1.29-4.31,3.41c0,1.76,1.17,2.8,2.36,2.93h.04v-2.54h2.46v5.64h-7.27v-2.35l1.63-.19v-.04c-1.38-.89-1.93-2.21-1.93-3.84,0-1.93,.68-3.5,1.89-4.62Z"/><path class="cls-2" d="M292.27,98.59v3.37l-6.79,4.01c-.38,.21-1.72,.93-1.72,.93v.04s1.63-.04,2.1-.04h6.41v3.27h-13.53v-3.37l6.7-3.97c.36-.23,1.82-.96,1.82-.96v-.04s-1.74,.04-2.21,.04h-6.3v-3.27h13.53Z"/><path class="cls-2" d="M292.27,112.02v5.77c0,3.75-2.71,6.26-6.85,6.26-2.38,0-4.29-.83-5.45-2.35-.79-1.06-1.23-2.42-1.23-4.12v-5.56h13.53Zm-10.71,5.32c0,2.19,1.38,3.33,3.86,3.33s4.05-1.19,4.05-3.29v-2h-7.91v1.97Z"/></g><g><path class="cls-2" d="M307.92,129.22v-3.94h2.84v11.26h-2.84v-3.97h-10.69v-3.35h10.69Z"/><path class="cls-2" d="M304.33,141.22l6.43-4.11v3.82l-3.94,2.29v.04l3.94,2.33v3.63l-6.4-4.01-7.13,4.48v-3.95l4.58-2.54v-.04l-4.58-2.63v-3.8l7.1,4.48Z"/><path class="cls-2" d="M310.76,150.69v5.77c0,3.75-2.71,6.26-6.85,6.26-2.38,0-4.29-.83-5.45-2.35-.79-1.06-1.23-2.42-1.23-4.12v-5.56h13.53Zm-10.71,5.32c0,2.19,1.38,3.33,3.86,3.33s4.05-1.19,4.05-3.29v-2.01h-7.91v1.97Z"/><path class="cls-2" d="M303.7,163.55c4.12,0,6.77,2.33,6.77,5.73s-2.65,5.73-6.77,5.73-6.77-2.31-6.77-5.75,2.65-5.71,6.77-5.71Zm0,8.17c2.52,0,4.29-.7,4.29-2.44s-1.76-2.46-4.29-2.46-4.28,.72-4.28,2.46,1.72,2.44,4.28,2.44Z"/></g><g><path class="cls-2" d="M291.97,165.87v6.47c0,2.69-1.38,4.73-3.9,4.73-1.57,0-2.72-.78-3.27-2.35h-.06c-.4,1.17-1.14,1.78-2.48,1.97-1.78,.28-3.48,.09-3.65,.57h-.17v-3.25c.21-.36,1.8-.3,3.14-.51,1.25-.17,1.93-.81,1.93-2.25v-2.02h-5.07v-3.35h13.53Zm-5.98,5.87c0,1.32,.62,2,1.65,2s1.68-.64,1.68-1.93v-2.59h-3.33v2.52Z"/><path class="cls-2" d="M285.54,182.18l6.43-4.11v3.82l-3.94,2.29v.04l3.94,2.33v3.63l-6.4-4.01-7.13,4.48v-3.95l4.58-2.54v-.04l-4.58-2.63v-3.8l7.1,4.48Z"/><path class="cls-2" d="M291.97,191.64v5.77c0,3.75-2.71,6.26-6.85,6.26-2.38,0-4.29-.83-5.45-2.35-.79-1.06-1.23-2.42-1.23-4.12v-5.56h13.53Zm-10.71,5.32c0,2.19,1.38,3.33,3.86,3.33s4.05-1.19,4.05-3.29v-2.01h-7.91v1.97Z"/><path class="cls-2" d="M284.92,204.51c4.12,0,6.77,2.33,6.77,5.73s-2.65,5.73-6.77,5.73-6.77-2.31-6.77-5.75,2.65-5.71,6.77-5.71Zm0,8.17c2.52,0,4.29-.7,4.29-2.44s-1.76-2.46-4.29-2.46-4.28,.72-4.28,2.46,1.72,2.44,4.28,2.44Z"/></g><g><path class="cls-2" d="M308.28,331.63v3.48l-7.09,2.12c-1.02,.3-2.38,.62-2.38,.62v.04s1.38,.34,2.38,.62l7.09,2.1v3.39l-13.53-4.45v-3.46l13.53-4.47Z"/><path class="cls-2" d="M308.28,344.91v5.77c0,3.75-2.71,6.26-6.85,6.26-2.38,0-4.29-.83-5.45-2.35-.79-1.06-1.23-2.42-1.23-4.12v-5.56h13.53Zm-10.71,5.32c0,2.19,1.38,3.33,3.86,3.33s4.05-1.19,4.05-3.29v-2h-7.91v1.97Z"/><path class="cls-2" d="M308.28,358.25v5.77c0,3.75-2.71,6.26-6.85,6.26-2.38,0-4.29-.83-5.45-2.35-.79-1.06-1.23-2.42-1.23-4.12v-5.56h13.53Zm-10.71,5.32c0,2.19,1.38,3.33,3.86,3.33s4.05-1.19,4.05-3.29v-2h-7.91v1.97Z"/></g><g><path class="cls-2" d="M296.34,380.71c1.29-1.17,3.06-1.82,5.13-1.82s3.99,.72,5.28,2.01c1.13,1.12,1.8,2.69,1.8,4.64,0,3.48-1.85,5.56-4.69,6v-3.25c1.1-.25,1.93-1.15,1.93-2.63,0-2.23-1.85-3.35-4.31-3.35s-4.31,1.29-4.31,3.41c0,1.76,1.17,2.8,2.36,2.93h.04v-2.54h2.46v5.64h-7.27v-2.35l1.63-.19v-.04c-1.38-.89-1.93-2.21-1.93-3.84,0-1.93,.68-3.5,1.89-4.62Z"/><path class="cls-2" d="M308.28,393.37v3.37l-6.79,4.01c-.38,.21-1.72,.93-1.72,.93v.04s1.63-.04,2.1-.04h6.41v3.27h-13.53v-3.37l6.7-3.97c.36-.23,1.82-.96,1.82-.96v-.04s-1.74,.04-2.21,.04h-6.3v-3.27h13.53Z"/><path class="cls-2" d="M308.28,406.81v5.77c0,3.75-2.71,6.26-6.85,6.26-2.38,0-4.29-.83-5.45-2.35-.79-1.06-1.23-2.42-1.23-4.12v-5.56h13.53Zm-10.71,5.32c0,2.19,1.38,3.33,3.86,3.33s4.05-1.19,4.05-3.29v-2h-7.91v1.97Z"/></g><g><path class="cls-2" d="M299.01,426.51v3.37c-1.36,.15-1.93,1.04-1.93,2.65,0,1.1,.4,2.18,1.42,2.18,1.08,0,1.31-1.1,1.76-2.95,.55-2.35,1.27-4.83,4.11-4.83s4.16,2.35,4.16,5.37-1.32,5.2-4.16,5.34v-3.27c1.04-.13,1.63-.93,1.63-2.18,0-1.17-.51-1.95-1.27-1.95-.95,0-1.17,1.04-1.63,3.06-.59,2.52-1.36,4.79-4.26,4.79s-4.41-2.42-4.41-5.54c0-3.59,1.59-5.96,4.58-6.04Z"/><path class="cls-2" d="M301.47,438.9c4.03,0,7.08,2.63,7.08,6.66,0,1.57-.45,2.9-1.19,3.86-.89,1.17-2.21,1.85-3.73,2.02v-3.35c1.21-.17,2.14-1.12,2.14-2.55,0-2.19-1.83-3.24-4.29-3.24s-4.28,1.25-4.28,3.25c0,1.5,.95,2.48,2.25,2.63v3.35c-1.34-.09-2.57-.7-3.46-1.63-1-1.04-1.53-2.42-1.53-4.33,0-3.97,2.97-6.68,7.02-6.68Z"/><path class="cls-2" d="M308.28,452.74v3.35h-10.69v6.07h-2.84v-9.42h13.53Z"/></g><g><path class="cls-2" d="M299.01,470.91v3.37c-1.36,.15-1.93,1.04-1.93,2.65,0,1.1,.4,2.18,1.42,2.18,1.08,0,1.31-1.1,1.76-2.95,.55-2.35,1.27-4.83,4.11-4.83s4.16,2.35,4.16,5.37-1.32,5.2-4.16,5.34v-3.27c1.04-.13,1.63-.93,1.63-2.18,0-1.17-.51-1.95-1.27-1.95-.95,0-1.17,1.04-1.63,3.06-.59,2.52-1.36,4.79-4.26,4.79s-4.41-2.42-4.41-5.54c0-3.59,1.59-5.96,4.58-6.04Z"/><path class="cls-2" d="M308.28,483.85v5.77c0,3.75-2.71,6.26-6.85,6.26-2.38,0-4.29-.83-5.45-2.35-.79-1.06-1.23-2.42-1.23-4.12v-5.56h13.53Zm-10.71,5.32c0,2.19,1.38,3.33,3.86,3.33s4.05-1.19,4.05-3.29v-2.01h-7.91v1.97Z"/><path class="cls-2" d="M308.28,500.26v3.44l-13.53,4.88v-3.52l2.44-.79v-4.73l-2.44-.78v-3.37l13.53,4.86Zm-8.68,3.24l3.27-1.02c.7-.23,1.91-.53,1.91-.53v-.04s-1.21-.32-1.91-.55l-3.27-1.04v3.18Z"/></g><path class="cls-2" d="M355.45,225.71h-3.23c-2.73,0-4.97,2.24-4.97,4.97s2.24,4.97,4.97,4.97h3.23v-9.94Z"/><path class="cls-2" d="M355.45,413.88h-3.23c-2.73,0-4.97,2.24-4.97,4.97s2.24,4.97,4.97,4.97h3.23v-9.94Z"/><path class="cls-2" d="M527.35,314.74c-.07,0-.12-.05-.12-.12v-23.54c0-.07,.05-.12,.12-.12s.12,.05,.12,.12v23.54c0,.07-.05,.12-.12,.12Z"/><path class="cls-2" d="M528.14,392.92c-.07,0-.12-.05-.12-.12v-17.37c0-.07,.05-.12,.12-.12s.12,.05,.12,.12v17.37c0,.07-.05,.12-.12,.12Z"/><path class="cls-2" d="M576.72,392.92c-.07,0-.12-.05-.12-.12v-101.72c0-.07,.05-.12,.12-.12s.12,.05,.12,.12v101.72c0,.07-.05,.12-.12,.12Z"/></g><g><g><g><rect class="cls-2" x="357.27" y="223.59" width="56.36" height="5.48" rx=".2" ry=".2"/><rect class="cls-2" x="357.27" y="216.68" width="56.36" height="5.48" rx=".2" ry=".2"/><rect class="cls-2" x="357.27" y="209.76" width="56.36" height="5.48" rx=".2" ry=".2"/><rect class="cls-2" x="357.27" y="202.84" width="56.36" height="5.48" rx=".2" ry=".2"/><rect class="cls-2" x="357.27" y="195.93" width="56.36" height="5.48" rx=".2" ry=".2"/><rect class="cls-2" x="357.27" y="189.01" width="56.36" height="5.48" rx=".2" ry=".2"/><rect class="cls-2" x="357.27" y="182.1" width="56.36" height="5.48" rx=".2" ry=".2"/><rect class="cls-2" x="357.27" y="175.18" width="56.36" height="5.48" rx=".2" ry=".2"/><rect class="cls-2" x="357.27" y="168.26" width="56.36" height="5.48" rx=".2" ry=".2"/><rect class="cls-2" x="357.27" y="161.35" width="56.36" height="5.48" rx=".2" ry=".2"/><rect class="cls-2" x="357.27" y="154.43" width="56.36" height="5.48" rx=".2" ry=".2"/><rect class="cls-2" x="357.27" y="147.52" width="56.36" height="5.48" rx=".2" ry=".2"/></g><rect class="cls-2" x="357.27" y="125.23" width="56.36" height="16.44" rx=".15" ry=".15"/><rect class="cls-2" x="357.27" y="235.1" width="56.36" height="16.44" rx=".15" ry=".15"/></g><rect class="cls-11" x="365.56" y="123.93" width="36.45" height="128.95" rx=".16" ry=".16"/><path class="cls-15" d="M394.86,235.31v-92.68h.98v-10.87h-7.39c-1,1.57-2.67,2.67-4.66,2.67s-3.67-1.1-4.66-2.67h-7.65v11.17h1.33v92.12h-1.33v9.77h7.5c.97-1.7,2.72-2.89,4.81-2.89s3.85,1.2,4.81,2.89h7.5v-9.5h-1.24Z"/><g><rect class="cls-17" x="368.13" y="149.44" width="31.99" height="2.77" rx=".14" ry=".14"/><rect class="cls-17" x="368.13" y="156.32" width="31.99" height="2.77" rx=".14" ry=".14"/><rect class="cls-17" x="368.13" y="163.19" width="31.99" height="2.77" rx=".14" ry=".14"/><rect class="cls-17" x="368.13" y="170.07" width="31.99" height="2.77" rx=".14" ry=".14"/><rect class="cls-17" x="368.13" y="176.95" width="31.99" height="2.77" rx=".14" ry=".14"/><rect class="cls-17" x="368.13" y="183.83" width="31.99" height="2.77" rx=".14" ry=".14"/><rect class="cls-17" x="368.13" y="190.71" width="31.99" height="2.77" rx=".14" ry=".14"/><rect class="cls-17" x="368.13" y="197.94" width="31.99" height="2.77" rx=".14" ry=".14"/><rect class="cls-17" x="368.13" y="204.82" width="31.99" height="2.77" rx=".14" ry=".14"/><rect class="cls-17" x="368.13" y="211.7" width="31.99" height="2.77" rx=".14" ry=".14"/><rect class="cls-17" x="368.13" y="218.57" width="31.99" height="2.77" rx=".14" ry=".14"/><rect class="cls-17" x="368.13" y="225.45" width="31.99" height="2.77" rx=".14" ry=".14"/><rect class="cls-9" x="372.78" y="149.44" width="4.19" height="2.77"/><rect class="cls-9" x="390.64" y="149.44" width="4.19" height="2.77"/><rect class="cls-9" x="372.78" y="156.32" width="4.19" height="2.77"/><rect class="cls-9" x="390.64" y="156.32" width="4.19" height="2.77"/><rect class="cls-9" x="372.78" y="163.19" width="4.19" height="2.77"/><rect class="cls-9" x="390.64" y="163.19" width="4.19" height="2.77"/><rect class="cls-9" x="372.78" y="170.07" width="4.19" height="2.77"/><rect class="cls-9" x="390.64" y="170.07" width="4.19" height="2.77"/><rect class="cls-9" x="372.78" y="176.95" width="4.19" height="2.77"/><rect class="cls-9" x="390.64" y="176.95" width="4.19" height="2.77"/><rect class="cls-9" x="372.78" y="183.83" width="4.19" height="2.77"/><rect class="cls-9" x="390.64" y="183.83" width="4.19" height="2.77"/><rect class="cls-9" x="372.78" y="190.71" width="4.19" height="2.77"/><rect class="cls-9" x="390.64" y="190.71" width="4.19" height="2.77"/><rect class="cls-9" x="372.78" y="197.94" width="4.19" height="2.77"/><rect class="cls-9" x="390.64" y="197.94" width="4.19" height="2.77"/><rect class="cls-9" x="372.78" y="204.82" width="4.19" height="2.77"/><rect class="cls-9" x="390.64" y="204.82" width="4.19" height="2.77"/><rect class="cls-9" x="372.78" y="211.7" width="4.19" height="2.77"/><rect class="cls-9" x="390.64" y="211.7" width="4.19" height="2.77"/><rect class="cls-9" x="372.78" y="218.57" width="4.19" height="2.77"/><rect class="cls-9" x="390.64" y="218.57" width="4.19" height="2.77"/><rect class="cls-9" x="372.78" y="225.45" width="4.19" height="2.77"/><rect class="cls-9" x="390.64" y="225.45" width="4.19" height="2.77"/></g><rect class="cls-11" x="376.95" y="142.64" width="13.68" height="91.07" rx=".18" ry=".18"/></g><g><g><g><rect class="cls-2" x="357.27" y="415.93" width="56.36" height="5.48" rx=".2" ry=".2"/><rect class="cls-2" x="357.27" y="409.02" width="56.36" height="5.48" rx=".2" ry=".2"/><rect class="cls-2" x="357.27" y="402.1" width="56.36" height="5.48" rx=".2" ry=".2"/><rect class="cls-2" x="357.27" y="395.18" width="56.36" height="5.48" rx=".2" ry=".2"/><rect class="cls-2" x="357.27" y="388.27" width="56.36" height="5.48" rx=".2" ry=".2"/><rect class="cls-2" x="357.27" y="381.35" width="56.36" height="5.48" rx=".2" ry=".2"/><rect class="cls-2" x="357.27" y="374.44" width="56.36" height="5.48" rx=".2" ry=".2"/><rect class="cls-2" x="357.27" y="367.52" width="56.36" height="5.48" rx=".2" ry=".2"/><rect class="cls-2" x="357.27" y="360.61" width="56.36" height="5.48" rx=".2" ry=".2"/><rect class="cls-2" x="357.27" y="353.69" width="56.36" height="5.48" rx=".2" ry=".2"/><rect class="cls-2" x="357.27" y="346.77" width="56.36" height="5.48" rx=".2" ry=".2"/><rect class="cls-2" x="357.27" y="339.86" width="56.36" height="5.48" rx=".2" ry=".2"/></g><rect class="cls-2" x="357.27" y="317.57" width="56.36" height="16.44" rx=".15" ry=".15"/><rect class="cls-2" x="357.27" y="427.45" width="56.36" height="16.44" rx=".15" ry=".15"/></g><rect class="cls-11" x="365.56" y="316.27" width="36.45" height="128.95" rx=".16" ry=".16"/><path class="cls-15" d="M394.86,427.65v-92.68h.98v-10.87h-7.39c-1,1.57-2.67,2.67-4.66,2.67s-3.67-1.1-4.66-2.67h-7.65v11.17h1.33v92.12h-1.33v9.77h7.5c.97-1.7,2.72-2.89,4.81-2.89s3.85,1.2,4.81,2.89h7.5v-9.5h-1.24Z"/><g><rect class="cls-17" x="368.13" y="341.78" width="31.99" height="2.77" rx=".14" ry=".14"/><rect class="cls-17" x="368.13" y="348.66" width="31.99" height="2.77" rx=".14" ry=".14"/><rect class="cls-17" x="368.13" y="355.54" width="31.99" height="2.77" rx=".14" ry=".14"/><rect class="cls-17" x="368.13" y="362.41" width="31.99" height="2.77" rx=".14" ry=".14"/><rect class="cls-17" x="368.13" y="369.29" width="31.99" height="2.77" rx=".14" ry=".14"/><rect class="cls-17" x="368.13" y="376.17" width="31.99" height="2.77" rx=".14" ry=".14"/><rect class="cls-17" x="368.13" y="383.05" width="31.99" height="2.77" rx=".14" ry=".14"/><rect class="cls-17" x="368.13" y="390.28" width="31.99" height="2.77" rx=".14" ry=".14"/><rect class="cls-17" x="368.13" y="397.16" width="31.99" height="2.77" rx=".14" ry=".14"/><rect class="cls-17" x="368.13" y="404.04" width="31.99" height="2.77" rx=".14" ry=".14"/><rect class="cls-17" x="368.13" y="410.91" width="31.99" height="2.77" rx=".14" ry=".14"/><rect class="cls-17" x="368.13" y="417.79" width="31.99" height="2.77" rx=".14" ry=".14"/><rect class="cls-9" x="372.78" y="341.78" width="4.19" height="2.77"/><rect class="cls-9" x="390.64" y="341.78" width="4.19" height="2.77"/><rect class="cls-9" x="372.78" y="348.66" width="4.19" height="2.77"/><rect class="cls-9" x="390.64" y="348.66" width="4.19" height="2.77"/><rect class="cls-9" x="372.78" y="355.54" width="4.19" height="2.77"/><rect class="cls-9" x="390.64" y="355.54" width="4.19" height="2.77"/><rect class="cls-9" x="372.78" y="362.41" width="4.19" height="2.77"/><rect class="cls-9" x="390.64" y="362.41" width="4.19" height="2.77"/><rect class="cls-9" x="372.78" y="369.29" width="4.19" height="2.77"/><rect class="cls-9" x="390.64" y="369.29" width="4.19" height="2.77"/><rect class="cls-9" x="372.78" y="376.17" width="4.19" height="2.77"/><rect class="cls-9" x="390.64" y="376.17" width="4.19" height="2.77"/><rect class="cls-9" x="372.78" y="383.05" width="4.19" height="2.77"/><rect class="cls-9" x="390.64" y="383.05" width="4.19" height="2.77"/><rect class="cls-9" x="372.78" y="390.28" width="4.19" height="2.77"/><rect class="cls-9" x="390.64" y="390.28" width="4.19" height="2.77"/><rect class="cls-9" x="372.78" y="397.16" width="4.19" height="2.77"/><rect class="cls-9" x="390.64" y="397.16" width="4.19" height="2.77"/><rect class="cls-9" x="372.78" y="404.04" width="4.19" height="2.77"/><rect class="cls-9" x="390.64" y="404.04" width="4.19" height="2.77"/><rect class="cls-9" x="372.78" y="410.91" width="4.19" height="2.77"/><rect class="cls-9" x="390.64" y="410.91" width="4.19" height="2.77"/><rect class="cls-9" x="372.78" y="417.79" width="4.19" height="2.77"/><rect class="cls-9" x="390.64" y="417.79" width="4.19" height="2.77"/></g><rect class="cls-11" x="376.95" y="334.98" width="13.68" height="91.07" rx=".18" ry=".18"/></g><g><path class="cls-14" d="M589.16,28.53v4.68c0,1.61-1.01,2.92-2.26,2.92h-22.19c-1.25,0-2.26-1.31-2.26-2.92v-4.68c0-1.61,1.01-2.92,2.26-2.92h22.19c1.25,0,2.26,1.31,2.26,2.92"/><path class="cls-12" d="M586.32,28.14v5.46c0,1.4-.88,2.53-1.96,2.53h-16.14c-1.08,0-1.96-1.13-1.96-2.53v-5.46c0-1.4,.88-2.53,1.96-2.53h16.14c1.08,0,1.96,1.13,1.96,2.53"/><path class="cls-16" d="M584.97,26.78v8.18c0,.94-.59,1.71-1.32,1.71h-15.01c-.73,0-1.32-.76-1.32-1.71v-8.18c0-.94,.59-1.71,1.32-1.71h15.01c.73,0,1.32,.76,1.32,1.71"/><rect class="cls-3" x="570.75" y="25.07" width="10.16" height="11.59"/></g><g><path class="cls-14" d="M544.78,70.11v4.68c0,1.61-1.01,2.92-2.26,2.92h-22.19c-1.25,0-2.26-1.31-2.26-2.92v-4.68c0-1.61,1.01-2.92,2.26-2.92h22.19c1.25,0,2.26,1.31,2.26,2.92"/><path class="cls-12" d="M541.94,69.72v5.46c0,1.4-.88,2.53-1.96,2.53h-16.14c-1.08,0-1.96-1.13-1.96-2.53v-5.46c0-1.4,.88-2.53,1.96-2.53h16.14c1.08,0,1.96,1.13,1.96,2.53"/><path class="cls-16" d="M540.59,68.36v8.18c0,.94-.59,1.71-1.32,1.71h-15.01c-.73,0-1.32-.76-1.32-1.71v-8.18c0-.94,.59-1.71,1.32-1.71h15.01c.73,0,1.32,.76,1.32,1.71"/><rect class="cls-3" x="526.37" y="66.65" width="10.16" height="11.59"/></g><g><path class="cls-14" d="M559,205.45h4.68c1.61,0,2.92,1.01,2.92,2.26v22.19c0,1.25-1.31,2.26-2.92,2.26h-4.68c-1.61,0-2.92-1.01-2.92-2.26v-22.19c0-1.25,1.31-2.26,2.92-2.26"/><path class="cls-12" d="M558.61,208.29h5.46c1.4,0,2.53,.88,2.53,1.96v16.14c0,1.08-1.13,1.96-2.53,1.96h-5.46c-1.4,0-2.53-.88-2.53-1.96v-16.14c0-1.08,1.13-1.96,2.53-1.96"/><path class="cls-16" d="M557.25,209.65h8.18c.94,0,1.71,.59,1.71,1.32v15.01c0,.73-.76,1.32-1.71,1.32h-8.18c-.94,0-1.71-.59-1.71-1.32v-15.01c0-.73,.76-1.32,1.71-1.32"/><rect class="cls-3" x="555.54" y="213.71" width="11.59" height="10.16"/></g><g><path class="cls-14" d="M541.64,253.86h4.68c1.61,0,2.92,1.01,2.92,2.26v22.19c0,1.25-1.31,2.26-2.92,2.26h-4.68c-1.61,0-2.92-1.01-2.92-2.26v-22.19c0-1.25,1.31-2.26,2.92-2.26"/><path class="cls-12" d="M541.25,256.7h5.46c1.4,0,2.53,.88,2.53,1.96v16.14c0,1.08-1.13,1.96-2.53,1.96h-5.46c-1.4,0-2.53-.88-2.53-1.96v-16.14c0-1.08,1.13-1.96,2.53-1.96"/><path class="cls-16" d="M539.89,258.06h8.18c.94,0,1.71,.59,1.71,1.32v15.01c0,.73-.76,1.32-1.71,1.32h-8.18c-.94,0-1.71-.59-1.71-1.32v-15.01c0-.73,.76-1.32,1.71-1.32"/><rect class="cls-3" x="538.18" y="262.12" width="11.59" height="10.16"/></g><g><path class="cls-14" d="M586.73,234.69h4.68c1.61,0,2.92,1.01,2.92,2.26v22.19c0,1.25-1.31,2.26-2.92,2.26h-4.68c-1.61,0-2.92-1.01-2.92-2.26v-22.19c0-1.25,1.31-2.26,2.92-2.26"/><path class="cls-12" d="M586.34,237.53h5.46c1.4,0,2.53,.88,2.53,1.96v16.14c0,1.08-1.13,1.96-2.53,1.96h-5.46c-1.4,0-2.53-.88-2.53-1.96v-16.14c0-1.08,1.13-1.96,2.53-1.96"/><path class="cls-16" d="M584.98,238.88h8.18c.94,0,1.71,.59,1.71,1.32v15.01c0,.73-.76,1.32-1.71,1.32h-8.18c-.94,0-1.71-.59-1.71-1.32v-15.01c0-.73,.76-1.32,1.71-1.32"/><rect class="cls-3" x="583.27" y="242.94" width="11.59" height="10.16"/></g><g><path class="cls-14" d="M805.85,207.96h4.68c1.61,0,2.92,1.01,2.92,2.26v22.19c0,1.25-1.31,2.26-2.92,2.26h-4.68c-1.61,0-2.92-1.01-2.92-2.26v-22.19c0-1.25,1.31-2.26,2.92-2.26"/><path class="cls-12" d="M805.46,210.8h5.46c1.4,0,2.53,.88,2.53,1.96v16.14c0,1.08-1.13,1.96-2.53,1.96h-5.46c-1.4,0-2.53-.88-2.53-1.96v-16.14c0-1.08,1.13-1.96,2.53-1.96"/><path class="cls-16" d="M804.1,212.16h8.18c.94,0,1.71,.59,1.71,1.32v15.01c0,.73-.76,1.32-1.71,1.32h-8.18c-.94,0-1.71-.59-1.71-1.32v-15.01c0-.73,.76-1.32,1.71-1.32"/><rect class="cls-3" x="802.39" y="216.22" width="11.59" height="10.16"/></g><g><path class="cls-14" d="M565.81,105.3h4.73c1.63,0,2.95,1.03,2.95,2.29v22.43c0,1.26-1.32,2.29-2.95,2.29h-4.73c-1.63,0-2.95-1.02-2.95-2.29v-22.43c0-1.26,1.32-2.29,2.95-2.29"/><path class="cls-12" d="M565.42,108.17h5.52c1.41,0,2.56,.89,2.56,1.98v16.32c0,1.1-1.15,1.98-2.56,1.98h-5.52c-1.41,0-2.56-.89-2.56-1.98v-16.32c0-1.1,1.15-1.98,2.56-1.98"/><path class="cls-16" d="M564.04,109.54h8.27c.95,0,1.73,.6,1.73,1.34v15.17c0,.74-.77,1.34-1.73,1.34h-8.27c-.95,0-1.73-.6-1.73-1.34v-15.17c0-.74,.77-1.34,1.73-1.34"/><rect class="cls-4" x="562.31" y="113.64" width="11.72" height="10.27"/></g><g><path class="cls-14" d="M583.56,105.3h4.73c1.63,0,2.95,1.03,2.95,2.29v22.43c0,1.26-1.32,2.29-2.95,2.29h-4.73c-1.63,0-2.95-1.02-2.95-2.29v-22.43c0-1.26,1.32-2.29,2.95-2.29"/><path class="cls-12" d="M583.17,108.17h5.52c1.41,0,2.56,.89,2.56,1.98v16.32c0,1.1-1.15,1.98-2.56,1.98h-5.52c-1.41,0-2.56-.89-2.56-1.98v-16.32c0-1.1,1.15-1.98,2.56-1.98"/><path class="cls-16" d="M581.79,109.54h8.27c.95,0,1.73,.6,1.73,1.34v15.17c0,.74-.77,1.34-1.73,1.34h-8.27c-.95,0-1.73-.6-1.73-1.34v-15.17c0-.74,.77-1.34,1.73-1.34"/><rect class="cls-4" x="580.06" y="113.64" width="11.72" height="10.27"/></g><g><path class="cls-14" d="M578.44,146.22h4.73c1.63,0,2.95,1.03,2.95,2.29v22.43c0,1.26-1.32,2.29-2.95,2.29h-4.73c-1.63,0-2.95-1.02-2.95-2.29v-22.43c0-1.26,1.32-2.29,2.95-2.29"/><path class="cls-12" d="M578.04,149.09h5.52c1.41,0,2.56,.89,2.56,1.98v16.32c0,1.1-1.15,1.98-2.56,1.98h-5.52c-1.41,0-2.56-.89-2.56-1.98v-16.32c0-1.1,1.15-1.98,2.56-1.98"/><path class="cls-16" d="M576.67,150.46h8.27c.95,0,1.73,.6,1.73,1.34v15.17c0,.74-.77,1.34-1.73,1.34h-8.27c-.95,0-1.73-.6-1.73-1.34v-15.17c0-.74,.77-1.34,1.73-1.34"/><rect class="cls-4" x="574.94" y="154.56" width="11.72" height="10.27"/></g><g><path class="cls-14" d="M596.19,146.22h4.73c1.63,0,2.95,1.03,2.95,2.29v22.43c0,1.26-1.32,2.29-2.95,2.29h-4.73c-1.63,0-2.95-1.02-2.95-2.29v-22.43c0-1.26,1.32-2.29,2.95-2.29"/><path class="cls-12" d="M595.79,149.09h5.52c1.41,0,2.56,.89,2.56,1.98v16.32c0,1.1-1.15,1.98-2.56,1.98h-5.52c-1.41,0-2.56-.89-2.56-1.98v-16.32c0-1.1,1.15-1.98,2.56-1.98"/><path class="cls-16" d="M594.42,150.46h8.27c.95,0,1.73,.6,1.73,1.34v15.17c0,.74-.77,1.34-1.73,1.34h-8.27c-.95,0-1.73-.6-1.73-1.34v-15.17c0-.74,.77-1.34,1.73-1.34"/><rect class="cls-4" x="592.69" y="154.56" width="11.72" height="10.27"/></g><g><path class="cls-14" d="M619.63,203.41v-4.73c0-1.63,1.03-2.95,2.29-2.95h22.43c1.26,0,2.29,1.32,2.29,2.95v4.73c0,1.63-1.02,2.95-2.29,2.95h-22.43c-1.26,0-2.29-1.32-2.29-2.95"/><path class="cls-12" d="M622.5,203.81v-5.52c0-1.41,.89-2.56,1.98-2.56h16.32c1.1,0,1.98,1.15,1.98,2.56v5.52c0,1.41-.89,2.56-1.98,2.56h-16.32c-1.1,0-1.98-1.15-1.98-2.56"/><path class="cls-16" d="M623.87,205.18v-8.27c0-.95,.6-1.73,1.34-1.73h15.17c.74,0,1.34,.77,1.34,1.73v8.27c0,.95-.6,1.73-1.34,1.73h-15.17c-.74,0-1.34-.77-1.34-1.73"/><rect class="cls-4" x="627.98" y="195.19" width="10.27" height="11.72"/></g><rect class="cls-2" x="596.55" y="25.38" width="10.99" height="10.99" rx=".26" ry=".26" transform="translate(571.18 632.91) rotate(-90)"/><rect class="cls-2" x="611.83" y="25.38" width="10.99" height="10.99" rx=".26" ry=".26" transform="translate(586.45 648.19) rotate(-90)"/><rect class="cls-2" x="515.26" y="25.38" width="10.99" height="10.99" rx=".26" ry=".26" transform="translate(489.89 551.62) rotate(-90)"/><rect class="cls-2" x="530.54" y="25.38" width="10.99" height="10.99" rx=".26" ry=".26" transform="translate(505.17 566.9) rotate(-90)"/><rect class="cls-2" x="562.67" y="66.96" width="10.99" height="10.99" rx=".26" ry=".26" transform="translate(495.71 640.62) rotate(-90)"/><rect class="cls-2" x="577.95" y="66.96" width="10.99" height="10.99" rx=".26" ry=".26" transform="translate(510.99 655.9) rotate(-90)"/><rect class="cls-2" x="538.49" y="220.94" width="10.99" height="10.99" rx=".26" ry=".26" transform="translate(1087.96 452.86) rotate(180)"/><rect class="cls-2" x="538.49" y="205.66" width="10.99" height="10.99" rx=".26" ry=".26" transform="translate(1087.96 422.3) rotate(180)"/><rect class="cls-2" x="555.84" y="268.88" width="10.99" height="10.99" rx=".26" ry=".26" transform="translate(1122.67 548.74) rotate(180)"/><rect class="cls-2" x="555.84" y="253.6" width="10.99" height="10.99" rx=".26" ry=".26" transform="translate(1122.67 518.19) rotate(180)"/><rect class="cls-2" x="759.01" y="223.47" width="10.99" height="10.99" rx=".26" ry=".26" transform="translate(1529 457.92) rotate(180)"/><rect class="cls-2" x="759.01" y="208.19" width="10.99" height="10.99" rx=".26" ry=".26" transform="translate(1529 427.37) rotate(180)"/><rect class="cls-2" x="802.69" y="275.65" width="10.99" height="10.99" rx=".26" ry=".26" transform="translate(1616.37 562.28) rotate(180)"/><rect class="cls-2" x="802.69" y="260.37" width="10.99" height="10.99" rx=".26" ry=".26" transform="translate(1616.37 531.73) rotate(180)"/><rect class="cls-2" x="718.43" y="205.76" width="30.73" height="23.78" rx=".21" ry=".21" transform="translate(951.44 -516.14) rotate(90)"/><rect class="cls-2" x="670.49" y="205.76" width="30.73" height="23.78" rx=".21" ry=".21" transform="translate(903.51 -468.2) rotate(90)"/><rect class="cls-2" x="596" y="66.96" width="10.99" height="10.99" rx=".26" ry=".26" transform="translate(529.04 673.94) rotate(-90)"/><rect class="cls-2" x="611.27" y="66.96" width="10.99" height="10.99" rx=".26" ry=".26" transform="translate(544.32 689.22) rotate(-90)"/><g><path class="cls-8" d="M607.13,235.89v-15.43c0-1.52,1.55-2.76,3.46-2.76h10.41c1.91,0,3.46,1.23,3.46,2.76v15.43c0,1.52-1.55,2.76-3.46,2.76h-10.41c-1.91,0-3.46-1.23-3.46-2.76Z"/><path class="cls-8" d="M639.6,235.89v-15.43c0-1.52,1.55-2.76,3.46-2.76h10.41c1.91,0,3.46,1.23,3.46,2.76v15.43c0,1.52-1.55,2.76-3.46,2.76h-10.41c-1.91,0-3.46-1.23-3.46-2.76Z"/><path class="cls-8" d="M622.28,272.89v-15.43c0-1.52,1.55-2.76,3.46-2.76h10.41c1.91,0,3.46,1.23,3.46,2.76v15.43c0,1.52-1.55,2.76-3.46,2.76h-10.41c-1.91,0-3.46-1.23-3.46-2.76Z"/><path class="cls-5" d="M608.17,255.89v-20.88c0-.14,.15-.26,.33-.26h50.63c.18,0,.33,.12,.33,.26v20.88c0,.14-.15,.26-.33,.26h-50.63c-.18,0-.33-.12-.33-.26Z"/></g><g><path class="cls-8" d="M625.53,182.98h-14.01c-1.38,0-2.5-1.4-2.5-3.14v-9.45c0-1.73,1.12-3.14,2.5-3.14h14.01c1.38,0,2.5,1.4,2.5,3.14v9.45c0,1.73-1.12,3.14-2.5,3.14Z"/><path class="cls-8" d="M625.53,153.51h-14.01c-1.38,0-2.5-1.4-2.5-3.14v-9.45c0-1.73,1.12-3.14,2.5-3.14h14.01c1.38,0,2.5,1.4,2.5,3.14v9.45c0,1.73-1.12,3.14-2.5,3.14Z"/><path class="cls-8" d="M659.11,169.23h-14.01c-1.38,0-2.5-1.4-2.5-3.14v-9.45c0-1.73,1.12-3.14,2.5-3.14h14.01c1.38,0,2.5,1.4,2.5,3.14v9.45c0,1.73-1.12,3.14-2.5,3.14Z"/><path class="cls-5" d="M643.68,182.03h-18.96c-.13,0-.24-.13-.24-.3v-45.96c0-.16,.11-.3,.24-.3h18.96c.13,0,.24,.13,.24,.3v45.96c0,.16-.11,.3-.24,.3Z"/></g><g><rect class="cls-7" x="831.72" y="199.8" width="27.92" height="73.2" rx=".45" ry=".45" transform="translate(1691.36 472.79) rotate(180)"/><g><rect class="cls-1" x="821.12" y="206.54" width="50.46" height="59.72" rx=".17" ry=".17" transform="translate(1692.71 472.79) rotate(180)"/><rect class="cls-10" x="821.12" y="214.03" width="50.46" height="52.19" rx=".15" ry=".15" transform="translate(1692.71 480.25) rotate(180)"/></g></g><g><rect class="cls-7" x="669.85" y="78.7" width="27.92" height="73.2" rx=".45" ry=".45" transform="translate(568.52 799.11) rotate(-90)"/><g><rect class="cls-1" x="658.58" y="86.11" width="50.46" height="59.72" rx=".17" ry=".17" transform="translate(567.84 799.78) rotate(-90)"/><rect class="cls-10" x="654.85" y="89.88" width="50.46" height="52.19" rx=".15" ry=".15" transform="translate(564.11 796.05) rotate(-90)"/></g></g></g></g><g id="Layer_13"><g><rect class="cls-13" x="230.69" y="187.86" width="140.81" height="3"/><polygon class="cls-13" points="369.1 181.13 383.34 189.36 369.1 197.58 369.1 181.13"/></g><g><path class="cls-13" d="M94.93,191.68h2.01c.27,2.76,1.96,4.2,5.04,4.2,2.26,0,3.88-1.03,3.88-3.06,0-2.24-1.96-2.76-4.88-3.4-2.87-.64-5.34-1.46-5.34-4.54,0-2.69,2.24-4.31,5.54-4.31,4.08,0,5.77,2.08,6.18,5.09h-1.94c-.3-2.33-1.8-3.49-4.2-3.49-2.21,0-3.67,.94-3.67,2.62,0,1.85,1.83,2.4,4.27,2.88,3.17,.64,6.07,1.41,6.07,5.09,0,3.06-2.49,4.77-6,4.77-4.59,0-6.78-2.55-6.96-5.84Z"/><path class="cls-13" d="M109.3,191.32c0-3.42,2.24-6.2,5.59-6.2,3.54,0,5.43,2.74,5.43,6.64h-9.12c.14,2.4,1.44,4.22,3.81,4.22,1.71,0,2.85-.82,3.26-2.42h1.8c-.55,2.53-2.4,3.97-5.06,3.97-3.6,0-5.7-2.78-5.7-6.21Zm1.94-.96h7.09c-.11-2.35-1.32-3.79-3.45-3.79s-3.38,1.64-3.65,3.79Z"/><path class="cls-13" d="M123.97,186.96h.05c.84-1.12,2.03-1.83,3.74-1.83,2.46,0,3.97,1.35,3.97,3.79v8.28h-1.85v-8.12c0-1.53-1-2.4-2.67-2.4-1.87,0-3.24,1.32-3.24,3.26v7.25h-1.85v-11.79h1.85v1.55Z"/><path class="cls-13" d="M133.41,193.37h1.89c.25,2.05,1.62,2.62,3.38,2.62,1.94,0,2.74-.84,2.74-1.94,0-1.32-.91-1.67-3.08-2.12-2.33-.48-4.4-.96-4.4-3.54,0-1.96,1.51-3.24,4.24-3.24,2.92,0,4.36,1.39,4.63,3.7h-1.89c-.18-1.55-1.03-2.24-2.78-2.24s-2.37,.75-2.37,1.69c0,1.28,1.14,1.53,3.17,1.94,2.37,.48,4.36,1,4.36,3.72,0,2.37-1.94,3.58-4.65,3.58-3.24,0-5.04-1.53-5.22-4.17Z"/><path class="cls-13" d="M144.63,191.32c0-3.42,2.19-6.2,5.7-6.2s5.68,2.78,5.68,6.2-2.14,6.21-5.68,6.21-5.7-2.78-5.7-6.21Zm9.49,0c0-2.6-1.28-4.68-3.79-4.68s-3.81,2.08-3.81,4.68,1.3,4.65,3.81,4.65,3.79-2.05,3.79-4.65Z"/><path class="cls-13" d="M159.7,187.37h.05c.71-1.14,1.94-2.1,3.51-2.1,.34,0,.52,.05,.75,.14v1.78h-.07c-.27-.09-.46-.11-.82-.11-1.83,0-3.42,1.37-3.42,3.58v6.55h-1.85v-11.79h1.85v1.96Z"/><path class="cls-13" d="M168.55,191.68h2.01c.27,2.76,1.96,4.2,5.04,4.2,2.26,0,3.88-1.03,3.88-3.06,0-2.24-1.96-2.76-4.88-3.4-2.87-.64-5.34-1.46-5.34-4.54,0-2.69,2.24-4.31,5.54-4.31,4.08,0,5.77,2.08,6.18,5.09h-1.94c-.3-2.33-1.8-3.49-4.2-3.49-2.21,0-3.67,.94-3.67,2.62,0,1.85,1.83,2.4,4.27,2.88,3.17,.64,6.07,1.41,6.07,5.09,0,3.06-2.49,4.77-6,4.77-4.59,0-6.78-2.55-6.96-5.84Z"/><path class="cls-13" d="M183.65,180.89h1.85v16.31h-1.85v-16.31Z"/><path class="cls-13" d="M187.41,191.32c0-3.42,2.19-6.2,5.7-6.2s5.68,2.78,5.68,6.2-2.14,6.21-5.68,6.21-5.7-2.78-5.7-6.21Zm9.49,0c0-2.6-1.28-4.68-3.79-4.68s-3.81,2.08-3.81,4.68,1.3,4.65,3.81,4.65,3.79-2.05,3.79-4.65Z"/><path class="cls-13" d="M199.66,185.41h1.71v-3.72h1.85v3.72h2.28v1.51h-2.28v7.67c0,.82,.43,1.09,1.19,1.09,.36,0,.78-.09,.98-.16h.07v1.6c-.43,.09-.94,.16-1.48,.16-1.51,0-2.6-.62-2.6-2.28v-8.08h-1.71v-1.51Z"/><path class="cls-13" d="M211.31,180.89h6.91c1.71,0,3.01,.46,3.92,1.41,.66,.68,1.05,1.62,1.05,2.78,0,1.8-1,2.92-2.62,3.42v.07c1.85,.43,3.29,1.76,3.29,3.95,0,1.25-.43,2.33-1.19,3.13-.91,.98-2.33,1.55-4.08,1.55h-7.28v-16.31Zm6.66,6.98c1.98,0,3.17-.98,3.17-2.67,0-1.57-1.07-2.53-2.9-2.53h-4.88v5.2h4.61Zm.52,7.48c1.16,0,2.01-.3,2.56-.82,.46-.48,.73-1.12,.73-1.89,0-2.03-1.44-3.03-3.42-3.03h-5v5.75h5.13Z"/></g><g><rect class="cls-13" x="230.69" y="377.86" width="140.81" height="3"/><polygon class="cls-13" points="369.1 371.13 383.34 379.36 369.1 387.58 369.1 371.13"/></g><g><path class="cls-13" d="M94.93,381.68h2.01c.27,2.76,1.96,4.2,5.04,4.2,2.26,0,3.88-1.03,3.88-3.06,0-2.24-1.96-2.76-4.88-3.4-2.87-.64-5.34-1.46-5.34-4.54,0-2.69,2.24-4.31,5.54-4.31,4.08,0,5.77,2.08,6.18,5.09h-1.94c-.3-2.33-1.8-3.49-4.2-3.49-2.21,0-3.67,.94-3.67,2.62,0,1.85,1.83,2.4,4.27,2.88,3.17,.64,6.07,1.41,6.07,5.09,0,3.06-2.49,4.77-6,4.77-4.59,0-6.78-2.55-6.96-5.84Z"/><path class="cls-13" d="M109.3,381.32c0-3.42,2.24-6.2,5.59-6.2,3.54,0,5.43,2.74,5.43,6.64h-9.12c.14,2.4,1.44,4.22,3.81,4.22,1.71,0,2.85-.82,3.26-2.42h1.8c-.55,2.53-2.4,3.97-5.06,3.97-3.6,0-5.7-2.78-5.7-6.21Zm1.94-.96h7.09c-.11-2.35-1.32-3.79-3.45-3.79s-3.38,1.64-3.65,3.79Z"/><path class="cls-13" d="M123.97,376.96h.05c.84-1.12,2.03-1.83,3.74-1.83,2.46,0,3.97,1.35,3.97,3.79v8.28h-1.85v-8.12c0-1.53-1-2.4-2.67-2.4-1.87,0-3.24,1.32-3.24,3.26v7.25h-1.85v-11.79h1.85v1.55Z"/><path class="cls-13" d="M133.41,383.37h1.89c.25,2.05,1.62,2.62,3.38,2.62,1.94,0,2.74-.84,2.74-1.94,0-1.32-.91-1.67-3.08-2.12-2.33-.48-4.4-.96-4.4-3.54,0-1.96,1.51-3.24,4.24-3.24,2.92,0,4.36,1.39,4.63,3.7h-1.89c-.18-1.55-1.03-2.24-2.78-2.24s-2.37,.75-2.37,1.69c0,1.28,1.14,1.53,3.17,1.94,2.37,.48,4.36,1,4.36,3.72,0,2.37-1.94,3.58-4.65,3.58-3.24,0-5.04-1.53-5.22-4.17Z"/><path class="cls-13" d="M144.63,381.32c0-3.42,2.19-6.2,5.7-6.2s5.68,2.78,5.68,6.2-2.14,6.21-5.68,6.21-5.7-2.78-5.7-6.21Zm9.49,0c0-2.6-1.28-4.68-3.79-4.68s-3.81,2.08-3.81,4.68,1.3,4.65,3.81,4.65,3.79-2.05,3.79-4.65Z"/><path class="cls-13" d="M159.7,377.37h.05c.71-1.14,1.94-2.1,3.51-2.1,.34,0,.52,.05,.75,.14v1.78h-.07c-.27-.09-.46-.11-.82-.11-1.83,0-3.42,1.37-3.42,3.58v6.55h-1.85v-11.79h1.85v1.96Z"/><path class="cls-13" d="M168.55,381.68h2.01c.27,2.76,1.96,4.2,5.04,4.2,2.26,0,3.88-1.03,3.88-3.06,0-2.24-1.96-2.76-4.88-3.4-2.87-.64-5.34-1.46-5.34-4.54,0-2.69,2.24-4.31,5.54-4.31,4.08,0,5.77,2.08,6.18,5.09h-1.94c-.3-2.33-1.8-3.49-4.2-3.49-2.21,0-3.67,.94-3.67,2.62,0,1.85,1.83,2.4,4.27,2.88,3.17,.64,6.07,1.41,6.07,5.09,0,3.06-2.49,4.77-6,4.77-4.59,0-6.78-2.55-6.96-5.84Z"/><path class="cls-13" d="M183.65,370.89h1.85v16.31h-1.85v-16.31Z"/><path class="cls-13" d="M187.41,381.32c0-3.42,2.19-6.2,5.7-6.2s5.68,2.78,5.68,6.2-2.14,6.21-5.68,6.21-5.7-2.78-5.7-6.21Zm9.49,0c0-2.6-1.28-4.68-3.79-4.68s-3.81,2.08-3.81,4.68,1.3,4.65,3.81,4.65,3.79-2.05,3.79-4.65Z"/><path class="cls-13" d="M199.66,375.41h1.71v-3.72h1.85v3.72h2.28v1.51h-2.28v7.67c0,.82,.43,1.09,1.19,1.09,.36,0,.78-.09,.98-.16h.07v1.6c-.43,.09-.94,.16-1.48,.16-1.51,0-2.6-.62-2.6-2.28v-8.08h-1.71v-1.51Z"/><path class="cls-13" d="M216.01,370.89h2.3l6.02,16.31h-2.24l-1.73-4.97h-6.5l-1.76,4.97h-2.1l6-16.31Zm-1.55,9.67h5.34l-1.87-5.47c-.32-.91-.73-2.3-.73-2.3h-.05s-.43,1.37-.75,2.3l-1.94,5.47Z"/></g></g></svg>