<?xml version="1.0" encoding="UTF-8"?><svg xmlns="http://www.w3.org/2000/svg" viewBox="0 0 919.83 554.72"><defs><style>.cls-1{fill:#fff;}.cls-2{fill:#deaa53;}.cls-3{fill:#242424;}.cls-4{fill:#965f0f;}.cls-5{fill:#252c33;}.cls-6{fill:#a4a9b8;}.cls-7{fill:#ed1c24;}.cls-8{fill:#bcc1d2;}.cls-9{fill:#090a0d;}.cls-10{fill:#eeefeb;}.cls-11{fill:#be8e3f;}</style></defs><g id="_9012"><g><g><path class="cls-3" d="M888.19,18.78H285.56c-11.24,0-20.36,9.11-20.36,20.36v478.61c0,11.24,9.11,20.36,20.36,20.36h249.01v-125.45c0-7.58,6.15-13.73,13.73-13.73h201.67c7.06,0,12.78,5.72,12.78,12.78v126.4h125.43c11.24,0,20.36-9.11,20.36-20.36V39.14c0-11.24-9.11-20.36-20.36-20.36ZM299.67,406.03c-4.97,0-9-4.03-9-9s4.03-9,9-9,9,4.03,9,9-4.03,9-9,9Zm0-242.84c-4.97,0-9-4.03-9-9s4.03-9,9-9,9,4.03,9,9-4.03,9-9,9Zm36.4,326.79c-12.99,0-23.51-10.53-23.51-23.51s10.53-23.51,23.51-23.51,23.51,10.53,23.51,23.51-10.53,23.51-23.51,23.51Zm0-381.55c-12.99,0-23.51-10.53-23.51-23.51s10.53-23.51,23.51-23.51,23.51,10.53,23.51,23.51-10.53,23.51-23.51,23.51Zm69.03,297.6c-4.97,0-9-4.03-9-9s4.03-9,9-9,9,4.03,9,9-4.03,9-9,9Zm0-242.84c-4.97,0-9-4.03-9-9s4.03-9,9-9,9,4.03,9,9-4.03,9-9,9Zm31.35,192.54c-4.97,0-9-4.03-9-9s4.03-9,9-9,9,4.03,9,9-4.03,9-9,9Zm69.06,155.52c-4.97,0-9-4.03-9-9s4.03-9,9-9,9,4.03,9,9-4.03,9-9,9Zm.83-452.06c-4.97,0-9-4.03-9-9s4.03-9,9-9,9,4.03,9,9-4.03,9-9,9Zm156.4,296.55c-4.97,0-9-4.03-9-9s4.03-9,9-9,9,4.03,9,9-4.03,9-9,9Zm0-189.99c-4.97,0-9-4.03-9-9s4.03-9,9-9,9,4.03,9,9-4.03,9-9,9Zm187.11-119.48c4.97,0,9,4.03,9,9s-4.03,9-9,9-9-4.03-9-9,4.03-9,9-9Zm0,44.04c4.97,0,9,4.03,9,9s-4.03,9-9,9-9-4.03-9-9,4.03-9,9-9Zm0,44.04c4.97,0,9,4.03,9,9s-4.03,9-9,9-9-4.03-9-9,4.03-9,9-9Zm0,44.04c4.97,0,9,4.03,9,9s-4.03,9-9,9-9-4.03-9-9,4.03-9,9-9Zm-67.91-128.21c0-4.97,4.03-9,9-9s9,4.03,9,9-4.03,9-9,9-9-4.03-9-9Zm10.54,460.34c-4.97,0-9-4.03-9-9s4.03-9,9-9,9,4.03,9,9-4.03,9-9,9Zm57.37-17.34c-4.97,0-9-4.03-9-9s4.03-9,9-9,9,4.03,9,9-4.03,9-9,9Zm0-44.19c-4.97,0-9-4.03-9-9s4.03-9,9-9,9,4.03,9,9-4.03,9-9,9Zm0-44.19c-4.97,0-9-4.03-9-9s4.03-9,9-9,9,4.03,9,9-4.03,9-9,9Zm0-44.19c-4.97,0-9-4.03-9-9s4.03-9,9-9,9,4.03,9,9-4.03,9-9,9Zm24.31-61.73c-13.07,0-23.67-10.6-23.67-23.67s10.6-23.67,23.67-23.67,23.67,10.6,23.67,23.67-10.6,23.67-23.67,23.67Z"/><path class="cls-2" d="M336.06,423.47c-23.75,0-43,19.25-43,43s19.25,43,43,43,43-19.25,43-43-19.25-43-43-43Zm0,66.51c-12.99,0-23.51-10.53-23.51-23.51s10.53-23.51,23.51-23.51,23.51,10.53,23.51,23.51-10.53,23.51-23.51,23.51Z"/><path class="cls-2" d="M336.06,40.12c-24.74,0-44.8,20.06-44.8,44.8s20.06,44.8,44.8,44.8,44.8-20.06,44.8-44.8-20.06-44.8-44.8-44.8Zm0,68.31c-12.99,0-23.51-10.53-23.51-23.51s10.53-23.51,23.51-23.51,23.51,10.53,23.51,23.51-10.53,23.51-23.51,23.51Z"/><path class="cls-2" d="M299.67,368.86c-15.56,0-28.17,12.61-28.17,28.17s12.61,28.17,28.17,28.17,28.17-12.61,28.17-28.17-12.61-28.17-28.17-28.17Zm0,37.17c-4.97,0-9-4.03-9-9s4.03-9,9-9,9,4.03,9,9-4.03,9-9,9Z"/><path class="cls-2" d="M405.09,368.86c-15.56,0-28.17,12.61-28.17,28.17s12.61,28.17,28.17,28.17,28.17-12.61,28.17-28.17-12.61-28.17-28.17-28.17Zm0,37.17c-4.97,0-9-4.03-9-9s4.03-9,9-9,9,4.03,9,9-4.03,9-9,9Z"/><path class="cls-2" d="M299.67,126.9c-15.07,0-27.29,12.22-27.29,27.29s12.22,27.29,27.29,27.29,27.29-12.22,27.29-27.29-12.22-27.29-27.29-27.29Zm0,36.28c-4.97,0-9-4.03-9-9s4.03-9,9-9,9,4.03,9,9-4.03,9-9,9Z"/><path class="cls-2" d="M405.09,126.9c-15.07,0-27.29,12.22-27.29,27.29s12.22,27.29,27.29,27.29,27.29-12.22,27.29-27.29-12.22-27.29-27.29-27.29Zm0,36.28c-4.97,0-9-4.03-9-9s4.03-9,9-9,9,4.03,9,9-4.03,9-9,9Z"/><path class="cls-2" d="M662.73,128.07c-15.84,0-28.68,12.84-28.68,28.68s12.84,28.68,28.68,28.68,28.68-12.84,28.68-28.68-12.84-28.68-28.68-28.68Zm0,37.67c-4.97,0-9-4.03-9-9s4.03-9,9-9,9,4.03,9,9-4.03,9-9,9Z"/><path class="cls-2" d="M849.84,85.5c-7.62,0-13.8,6.18-13.8,13.8s6.18,13.8,13.8,13.8,13.8-6.18,13.8-13.8-6.18-13.8-13.8-13.8Zm0,22.8c-4.97,0-9-4.03-9-9s4.03-9,9-9,9,4.03,9,9-4.03,9-9,9Z"/><path class="cls-2" d="M849.84,129.8c-7.48,0-13.55,6.07-13.55,13.55s6.07,13.55,13.55,13.55,13.55-6.07,13.55-13.55-6.07-13.55-13.55-13.55Zm0,22.55c-4.97,0-9-4.03-9-9s4.03-9,9-9,9,4.03,9,9-4.03,9-9,9Z"/><path class="cls-2" d="M849.84,173.74c-7.54,0-13.65,6.11-13.65,13.65s6.11,13.65,13.65,13.65,13.65-6.11,13.65-13.65-6.11-13.65-13.65-13.65Zm0,22.65c-4.97,0-9-4.03-9-9s4.03-9,9-9,9,4.03,9,9-4.03,9-9,9Z"/><path class="cls-2" d="M662.73,317.02c-16.41,0-29.71,13.3-29.71,29.71s13.3,29.71,29.71,29.71,29.71-13.3,29.71-29.71-13.3-29.71-29.71-29.71Zm0,38.71c-4.97,0-9-4.03-9-9s4.03-9,9-9,9,4.03,9,9-4.03,9-9,9Z"/><path class="cls-2" d="M792.47,472.68c-15.93,0-28.85,12.92-28.85,28.85s12.92,28.85,28.85,28.85,28.85-12.92,28.85-28.85-12.92-28.85-28.85-28.85Zm0,37.85c-4.97,0-9-4.03-9-9s4.03-9,9-9,9,4.03,9,9-4.03,9-9,9Z"/><path class="cls-2" d="M849.84,382.43c-7.39,0-13.38,5.99-13.38,13.38s5.99,13.38,13.38,13.38,13.38-5.99,13.38-13.38-5.99-13.38-13.38-13.38Zm0,22.38c-4.97,0-9-4.03-9-9s4.03-9,9-9,9,4.03,9,9-4.03,9-9,9Z"/><path class="cls-2" d="M849.84,426.79c-7.3,0-13.21,5.92-13.21,13.21s5.92,13.21,13.21,13.21,13.21-5.92,13.21-13.21-5.92-13.21-13.21-13.21Zm0,22.21c-4.97,0-9-4.03-9-9s4.03-9,9-9,9,4.03,9,9-4.03,9-9,9Z"/><path class="cls-2" d="M849.84,470.83c-7.38,0-13.36,5.98-13.36,13.36s5.98,13.36,13.36,13.36,13.36-5.98,13.36-13.36-5.98-13.36-13.36-13.36Zm0,22.36c-4.97,0-9-4.03-9-9s4.03-9,9-9,9,4.03,9,9-4.03,9-9,9Z"/><path class="cls-2" d="M874.15,231.74c-24.01,0-43.47,19.46-43.47,43.47s19.46,43.47,43.47,43.47c14.07,0,26.45-6.8,34.4-17.17v-52.61c-7.94-10.37-20.33-17.17-34.4-17.17Zm0,67.14c-13.07,0-23.67-10.6-23.67-23.67s10.6-23.67,23.67-23.67,23.67,10.6,23.67,23.67-10.6,23.67-23.67,23.67Z"/><path class="cls-2" d="M506.33,22.41c-15.34,0-27.77,12.43-27.77,27.77s12.43,27.77,27.77,27.77,27.77-12.43,27.77-27.77-12.43-27.77-27.77-27.77Zm0,36.77c-4.97,0-9-4.03-9-9s4.03-9,9-9,9,4.03,9,9-4.03,9-9,9Z"/><path class="cls-2" d="M790.93,23c-15.01,0-27.18,12.17-27.18,27.18s12.17,27.18,27.18,27.18,27.18-12.17,27.18-27.18-12.17-27.18-27.18-27.18Zm0,36.18c-4.97,0-9-4.03-9-9s4.03-9,9-9,9,4.03,9,9-4.03,9-9,9Z"/><path class="cls-2" d="M436.44,329.8c-9.35,0-16.93,7.58-16.93,16.93s7.58,16.93,16.93,16.93,16.93-7.58,16.93-16.93-7.58-16.93-16.93-16.93Zm0,25.93c-4.97,0-9-4.03-9-9s4.03-9,9-9,9,4.03,9,9-4.03,9-9,9Z"/><path class="cls-2" d="M505.5,474.91c-15.1,0-27.34,12.24-27.34,27.34s12.24,27.34,27.34,27.34,27.34-12.24,27.34-27.34-12.24-27.34-27.34-27.34Zm0,36.34c-4.97,0-9-4.03-9-9s4.03-9,9-9,9,4.03,9,9-4.03,9-9,9Z"/><path class="cls-2" d="M836.04,41.41v27.61h27.61v-27.61h-27.61Zm13.8,22.8c-4.97,0-9-4.03-9-9s4.03-9,9-9,9,4.03,9,9-4.03,9-9,9Z"/><path class="cls-2" d="M836.04,337.28v27.61h27.61v-27.61h-27.61Zm13.8,22.8c-4.97,0-9-4.03-9-9s4.03-9,9-9,9,4.03,9,9-4.03,9-9,9Z"/></g><g><path class="cls-1" d="M336.06,133.11c-26.57,0-48.19-21.62-48.19-48.19s21.62-48.19,48.19-48.19,48.19,21.62,48.19,48.19-21.62,48.19-48.19,48.19Zm0-96.13c-26.44,0-47.94,21.51-47.94,47.94s21.51,47.94,47.94,47.94,47.94-21.51,47.94-47.94-21.51-47.94-47.94-47.94Z"/><path class="cls-1" d="M299.67,184.66c-16.8,0-30.47-13.67-30.47-30.47s13.67-30.47,30.47-30.47,30.47,13.67,30.47,30.47-13.67,30.47-30.47,30.47Zm0-60.69c-16.67,0-30.22,13.56-30.22,30.22s13.56,30.22,30.22,30.22,30.22-13.56,30.22-30.22-13.56-30.22-30.22-30.22Z"/><path class="cls-1" d="M336.06,512.98c-25.65,0-46.52-20.87-46.52-46.52s20.87-46.52,46.52-46.52,46.52,20.87,46.52,46.52-20.87,46.52-46.52,46.52Zm0-92.79c-25.51,0-46.27,20.76-46.27,46.27s20.76,46.27,46.27,46.27,46.27-20.76,46.27-46.27-20.76-46.27-46.27-46.27Z"/><path class="cls-1" d="M299.67,429.12c-17.69,0-32.09-14.39-32.09-32.09s14.39-32.09,32.09-32.09,32.09,14.39,32.09,32.09-14.39,32.09-32.09,32.09Zm0-63.93c-17.56,0-31.84,14.29-31.84,31.84s14.29,31.84,31.84,31.84,31.84-14.29,31.84-31.84-14.29-31.84-31.84-31.84Z"/><path class="cls-1" d="M292.03,65.45c-.07,0-.12-.05-.12-.12V19.73c0-.07,.05-.12,.12-.12s.12,.05,.12,.12v45.61c0,.07-.05,.12-.12,.12Z"/><path class="cls-1" d="M292.03,124.63c-.07,0-.12-.05-.12-.12v-19.1c0-.07,.05-.12,.12-.12s.12,.05,.12,.12v19.1c0,.07-.05,.12-.12,.12Z"/><path class="cls-1" d="M388.53,126.05h-27.39c-.07,0-.12-.05-.12-.12s.05-.12,.12-.12h27.39c.07,0,.12,.05,.12,.12s-.05,.12-.12,.12Z"/><path class="cls-1" d="M441.55,325.2c-.07,0-.12-.05-.12-.12V126.05h-20.1c-.07,0-.12-.05-.12-.12s.05-.12,.12-.12h20.22c.07,0,.12,.05,.12,.12v199.15c0,.07-.05,.12-.12,.12Z"/><path class="cls-1" d="M441.55,425.8h-22.49c-.07,0-.12-.05-.12-.12s.05-.12,.12-.12h22.37v-52.07c0-.07,.05-.12,.12-.12s.12,.05,.12,.12v52.19c0,.07-.05,.12-.12,.12Z"/><path class="cls-1" d="M390.19,425.8h-32.01c-.07,0-.12-.05-.12-.12s.05-.12,.12-.12h32.01c.07,0,.12,.05,.12,.12s-.05,.12-.12,.12Z"/><path class="cls-1" d="M293.06,449.15c-.07,0-.12-.05-.12-.12v-20.71c0-.07,.05-.12,.12-.12s.12,.05,.12,.12v20.71c0,.07-.05,.12-.12,.12Z"/><path class="cls-1" d="M293.06,533.85c-.07,0-.12-.05-.12-.12,0-.04,.02-.07,.04-.09,.45-1.22,.17-33.01-.04-49.73,0-.07,.05-.12,.12-.12h0c.07,0,.12,.05,.12,.12,.1,8.22,.59,49.28-.02,49.9-.02,.02-.07,.04-.1,.04Z"/><path class="cls-1" d="M473.35,533.48c-.07,0-.12-.05-.12-.12V20.83c0-.07,.05-.12,.12-.12s.12,.05,.12,.12V533.36c0,.07-.05,.12-.12,.12Z"/><path class="cls-1" d="M823.67,533.48c-.07,0-.12-.05-.12-.12V20.83c0-.07,.05-.12,.12-.12s.12,.05,.12,.12V533.36c0,.07-.05,.12-.12,.12Z"/><path class="cls-1" d="M871.78,507.22h-45.73c-.25,0-.45-.2-.45-.45v-176.39c0-.25,.2-.45,.45-.45h45.73c.25,0,.45,.2,.45,.45v176.39c0,.25-.2,.45-.45,.45Zm-45.73-177.05c-.12,0-.21,.1-.21,.21v176.39c0,.12,.1,.21,.21,.21h45.73c.12,0,.21-.1,.21-.21v-176.39c0-.12-.1-.21-.21-.21h-45.73Z"/><path class="cls-1" d="M872.12,373.72h-45.8c-.07,0-.12-.05-.12-.12s.05-.12,.12-.12h45.8c.07,0,.12,.05,.12,.12s-.05,.12-.12,.12Z"/><path class="cls-1" d="M871.78,210.24h-45.73c-.25,0-.45-.2-.45-.45V33.39c0-.25,.2-.45,.45-.45h45.73c.25,0,.45,.2,.45,.45V209.78c0,.25-.2,.45-.45,.45Zm-45.73-177.05c-.12,0-.21,.1-.21,.21V209.78c0,.12,.1,.21,.21,.21h45.73c.12,0,.21-.1,.21-.21V33.39c0-.12-.1-.21-.21-.21h-45.73Z"/><path class="cls-1" d="M872.12,76.73h-45.8c-.07,0-.12-.05-.12-.12s.05-.12,.12-.12h45.8c.07,0,.12,.05,.12,.12s-.05,.12-.12,.12Z"/><path class="cls-1" d="M420.47,329.92c-.07,0-.12-.05-.12-.12V182.93c0-.07,.05-.12,.12-.12s.12,.05,.12,.12v146.87c0,.07-.05,.12-.12,.12Z"/><path class="cls-1" d="M383.85,373.6h-27.28c-.07,0-.12-.05-.12-.12V179.86c0-.07,.05-.12,.12-.12h28.44c.07,0,.12,.05,.12,.12s-.05,.12-.12,.12h-28.33v193.39h27.16c.07,0,.12,.05,.12,.12s-.05,.12-.12,.12Z"/><path class="cls-1" d="M860.32,232.28h-35.38c-.26,0-.47-.21-.47-.47v-19.52c0-.26,.21-.47,.47-.47h35.38c.26,0,.47,.21,.47,.47v19.52c0,.26-.21,.47-.47,.47Zm-35.38-20.23c-.13,0-.24,.11-.24,.24v19.52c0,.13,.11,.24,.24,.24h35.38c.13,0,.24-.11,.24-.24v-19.52c0-.13-.11-.24-.24-.24h-35.38Z"/><path class="cls-1" d="M744.95,79.97h-192.38c-.07,0-.12-.05-.12-.12V20.83c0-.07,.05-.12,.12-.12s.12,.05,.12,.12v58.9h192.14V20.83c0-.07,.05-.12,.12-.12s.12,.05,.12,.12v59.02c0,.07-.05,.12-.12,.12Z"/><g><path class="cls-1" d="M545.31,136.82l49.75,102.26h-99.51l49.75-102.26Zm0-5.57l-53.66,110.27h107.31l-53.65-110.27Z"/><rect class="cls-1" x="552.55" y="161.88" width="2.44" height="70.64" transform="translate(109.34 581.95) rotate(-60.48)"/><rect class="cls-1" x="553.46" y="164.84" width="2.44" height="78.15" transform="translate(103.94 586.13) rotate(-60.48)"/><path class="cls-1" d="M531.13,184.34l-2.16-1.14c.16-.31,3.99-7.55,7.12-11.92,3.3-4.62,21.27-8.54,23.31-8.97l.5,2.39c-7.34,1.56-19.76,5.1-21.83,8-3.03,4.24-6.9,11.57-6.94,11.64"/><path class="cls-1" d="M562.04,202.59l-1.22-2.11c2.52-1.46,4.88-4.77,4.54-8.26-.44-4.39,1.74-10.96,1.83-11.24l2.31,.78c-.02,.06-2.11,6.35-1.72,10.22,.47,4.73-2.65,8.82-5.74,10.61"/><path class="cls-1" d="M536,215.61c-.3,0-.61-.02-.94-.06-5.07-.63-11.51-16.58-11.57-16.74-2.36-5.89,2.93-10.96,3.15-11.18l1.68,1.78s-4.3,4.16-2.57,8.5c2.79,6.97,7.49,14.97,9.61,15.23,1.13,.14,1.8-.08,1.95-.36,.19-.35-.03-1.25-.98-2.44-2.52-3.15-5.51-10.18-5.24-12.33,.23-1.83,2.3-5.28,2.72-5.95l2.08,1.28c-.92,1.48-2.26,4-2.38,4.97-.14,1.16,2.29,7.47,4.73,10.51,2.09,2.62,1.66,4.35,1.21,5.15-.6,1.08-1.84,1.66-3.45,1.66"/><path class="cls-1" d="M545.54,220.46c-.52,0-1.03-.1-1.48-.35-.88-.46-1.87-1.58-1.55-4.25,.66-5.49,7.73-14.16,8.03-14.53l1.89,1.55c-1.92,2.35-7.02,9.3-7.49,13.27-.13,1.09,.03,1.69,.25,1.81,.62,.32,2.71-.49,4.47-2.04,2.03-1.78,6.36-8.16,7.86-10.48l2.04,1.32c-.23,.36-5.6,8.62-8.29,10.99-1.3,1.14-3.69,2.71-5.74,2.71"/><path class="cls-1" d="M544.77,211.67c-3.29,0-8.88-3.33-10.05-4.05l1.28-2.08c3.96,2.43,8.32,4.16,9.15,3.63,.32-.54,.4-1.12,.21-1.73-.45-1.43-2.3-2.96-5.1-4.21-2.18-.97-3.53-2.26-3.99-3.79-.66-2.18,.61-4.19,1.3-5.27l2.06,1.3c-.66,1.04-1.33,2.23-1.02,3.26,.25,.84,1.15,1.59,2.65,2.27,3.54,1.58,5.76,3.56,6.43,5.72,.4,1.29,.23,2.58-.48,3.76-.24,.39-.7,.89-1.57,1.1-.26,.06-.55,.09-.86,.09"/><rect class="cls-1" x="540.66" y="142.37" width="9.8" height="2.44"/><rect class="cls-1" x="537.76" y="148.34" width="15.11" height="2.44"/><rect class="cls-1" x="534.85" y="154.31" width="20.91" height="2.44"/><rect class="cls-1" x="531.95" y="160.27" width="26.72" height="2.44"/><rect class="cls-1" x="529.55" y="166.24" width="15.83" height="2.44"/><rect class="cls-1" x="526.15" y="172.2" width="9.95" height="2.44"/><rect class="cls-1" x="523.78" y="178.17" width="8.45" height="2.44"/><rect class="cls-1" x="517.44" y="190.1" width="7.92" height="2.44"/><rect class="cls-1" x="566.84" y="190.1" width="6.34" height="2.44"/><rect class="cls-1" x="514.53" y="196.07" width="10.08" height="2.44"/><rect class="cls-1" x="565.76" y="196.07" width="10.08" height="2.44"/><rect class="cls-1" x="512.19" y="202.04" width="14.63" height="2.44"/><rect class="cls-1" x="564.47" y="202.04" width="14.52" height="2.44"/><rect class="cls-1" x="508.68" y="208" width="21.43" height="2.44"/><rect class="cls-1" x="556.45" y="208" width="7.67" height="2.44"/><rect class="cls-1" x="575.01" y="208" width="6.52" height="2.44"/><rect class="cls-1" x="505.83" y="213.96" width="37.84" height="2.44"/><rect class="cls-1" x="552.01" y="213.96" width="23.01" height="2.44"/><rect class="cls-1" x="503.85" y="219.93" width="80.98" height="2.44"/><rect class="cls-1" x="500.02" y="225.9" width="90.58" height="2.44"/><rect class="cls-1" x="496.85" y="231.87" width="96.55" height="2.44"/></g><g><polygon class="cls-1" points="560.4 315.55 560.4 321.51 554.8 321.51 554.8 315.55 538.25 315.55 538.25 321.51 532.71 321.51 532.71 315.55 517.84 315.55 517.84 321.51 511.94 321.51 511.94 352.74 580.86 352.74 580.86 321.51 575.62 321.51 575.62 315.55 560.4 315.55"/><g><path class="cls-1" d="M483.47,367.89h3.01l3.13,13.15h0l3.44-13.15h3.13l3.32,13.15h0l3.19-13.15h3.07l-4.42,17.2h-3.07l-3.44-13.15h0l-3.5,13.15h-3.13l-4.73-17.2Z"/><path class="cls-1" d="M507.49,367.89h2.7v2.58h-2.7v-2.58Zm0,4.73h2.7v12.29h-2.7v-12.29Z"/><path class="cls-1" d="M515.29,381.1c0,1.6,1.35,2.15,2.83,2.15s2.89,0,2.76-1.66c-.12-1.66-2.03-1.6-4.05-2.09-2.03-.49-3.99-1.11-3.99-3.62s2.95-3.62,5.22-3.62,4.85,1.04,5.16,3.87h-2.83c0-1.35-1.29-1.66-2.52-1.66s-2.27,0-2.27,1.29,2.03,1.54,4.05,1.97c2.03,.43,3.99,1.17,3.99,3.62s-2.95,4.05-5.53,4.05-5.47-1.41-5.53-4.3h2.7Z"/><path class="cls-1" d="M525.92,367.89h8.11c3.32,0,5.53,1.04,5.53,4.24,.03,1.57-.89,3-2.33,3.62,1.96,.5,3.29,2.34,3.13,4.36,0,3.44-2.95,4.98-6.14,4.98h-8.29v-17.2Zm3.81,6.94h3.81c1.35,0,2.33-.61,2.33-2.03s-1.23-2.03-2.58-2.03h-3.56v4.05Zm0,7.31h4.05c1.47,0,2.76-.49,2.76-2.27s-1.04-2.46-2.7-2.46h-4.12v4.73Z"/><path class="cls-1" d="M542.87,367.89h3.81v14.31h8.35v3.19h-12.29l.12-17.51Z"/><path class="cls-1" d="M564.86,367.46c4.61-.05,8.4,3.65,8.45,8.26,0,.28,0,.56-.03,.83,.4,4.67-3.06,8.77-7.73,9.17-4.67,.4-8.77-3.06-9.17-7.73-.04-.48-.04-.96,0-1.44-.41-4.6,2.99-8.65,7.58-9.06,.3-.03,.6-.04,.89-.03Zm0,14.87c3.38,0,4.67-2.89,4.67-5.77s-1.29-6.14-4.67-6.14-4.67,2.89-4.67,6.14,1.23,5.65,4.67,5.65v.12Z"/><path class="cls-1" d="M587.35,373.67c-.36-1.78-1.93-3.05-3.75-3.01-3.38,0-4.67,2.89-4.67,6.14s1.29,5.77,4.67,5.77c2.15,0,3.9-1.72,3.93-3.87h3.62c-.1,3.97-3.39,7.11-7.36,7.01-.07,0-.13,0-.2,0-4.54,.2-8.38-3.32-8.58-7.86-.02-.43,0-.86,.04-1.29-.41-4.6,2.99-8.65,7.58-9.06,.28-.02,.55-.04,.83-.03,3.72-.26,6.98,2.44,7.43,6.14l-3.56,.06Z"/><path class="cls-1" d="M593.49,367.89h3.75v7.13l6.76-7.13h4.73l-6.76,6.76,7.37,10.44h-4.73l-4.98-7.74-2.21,2.15v5.59h-3.93v-17.2Z"/></g></g><path class="cls-1" d="M890.2,45.05c0-1.44-1.19-.28-1.65,.12l-12.16,10.71c-.55,.48-.55,1.26,0,1.74l12.16,10.71c.46,.4,1.65,1.28,1.65,.12v-23.39Z"/><path class="cls-1" d="M890.2,339.98c0-1.44-1.19-.28-1.65,.12l-12.16,10.71c-.55,.48-.55,1.26,0,1.74l12.16,10.71c.46,.4,1.65,1.28,1.65,.12v-23.39Z"/><g><path class="cls-1" d="M760.06,225.45c-.13,0-.25-.02-.38-.02-2.06,0-3.74,1.67-3.74,3.73,0,.25,.02,.48,.07,.71,.33,1.72,1.85,3.03,3.67,3.03,1.25,0,2.34-.6,3.02-1.55,.45-.61,.72-1.37,.72-2.2,0-.58-.13-1.12-.37-1.61-.54-1.15-1.66-1.97-2.98-2.1m-.38,4.58c-.19,0-.36-.06-.5-.16-.23-.16-.37-.42-.37-.71,0-.48,.39-.87,.87-.87,.04,0,.09,0,.13,.01,.42,.06,.74,.42,.74,.86,0,.48-.39,.87-.87,.87"/><path class="cls-1" d="M763.81,219.03c.07-.8,.14-1.59,.21-2.39l15.94,16.65v-3.69l-15.63-16.32c.58-6.37,1.16-12.71,1.74-18.98,.84-9.13,1.71-18.32,2.56-27.48h8.02v-11.73h-3.22l6.54-6.83v-3.69l-6.41,6.7-3.65,3.82-.17,.17c0-.06,0-.12,.01-.17,.12-1.29,.25-2.55,.36-3.82h3.44v-1.87c1.71-.64,2.93-2.28,2.93-4.21,0-2.48-2.01-4.5-4.49-4.5-1.48,0-2.8,.72-3.61,1.82-1.75-1.29-3.87-2.43-5.34-2.97-3.81-1.41-7.83-2.2-11.16-2.65v-2.54h-16.91v2.05c-2.15,.14-5.42,.46-9,1.2v-1.43h-7.37v3.53c-2.07,.83-5.12,2.66-6.81,4.38-.33,.33-.5,.79-.44,1.25,.03,.37,.07,.73,.1,1.1h-4.16v4.85h4.63c.26,2.68,.51,5.37,.77,8.07l-8.56-8.94v3.69l8.95,9.35c.97,10.28,1.94,20.61,2.89,30.87,.48,5.16,.95,10.37,1.43,15.62l-13.27,13.86v3.69l13.58-14.18c.55,6.09,1.11,12.21,1.66,18.32,.07,.8,.75,1.43,1.57,1.43v7.85h6.45v-7.85h22.05c1.56,4.14,5.56,7.09,10.25,7.09,6.05,0,10.95-4.9,10.95-10.96,0-4.59-2.82-8.52-6.82-10.14m8.18-75.84c1.1,0,2,.9,2,2,0,.47-.17,.89-.43,1.23h-2.98c.04-.37,.07-.73,.11-1.1,.04-.43-.1-.86-.4-1.19,.36-.57,.99-.95,1.71-.95m-2.64,16.17l1.51-1.57h2.91v6.36h-4.88c.15-1.6,.3-3.19,.46-4.78m-6.42,34.66c-.49,5.37-.99,10.79-1.49,16.25l-20.42-21.32,12.51-13.06h3.07v-3.21l8.68-9.06v3.22h.19c-.86,9.06-1.71,18.15-2.54,27.18m-10.36-20.83h-15.47v-2.3h16.61v1.1l-1.14,1.2Zm-14.72-36.14h11.14v2.3h-11.14v-2.3Zm-11.88,3.79c3.6-.78,6.94-1.12,9-1.26v2.47h16.91v-1.96c3.05,.44,6.68,1.17,10.07,2.42,1.53,.56,3.99,1.98,5.52,3.29-.02,.21-.04,.42-.06,.63h-41.45v-5.59Zm-4.48-1.97h1.59v4.87h-1.59v-4.87Zm-6.93,6.93c1.1-.95,2.68-1.95,4.04-2.64v3.27h-3.99c-.02-.21-.04-.42-.06-.63m.52,5.48h51.87c-.13,1.28-.24,2.55-.37,3.82h-1.3v4.82l-8.68,9.07v-.79h-22.39v7.69h15.78l-10.75,11.22-23.06-24.09c-.36-3.92-.73-7.83-1.11-11.73m4.02,42.74c-.83-8.95-1.67-17.95-2.52-26.92l20.92,21.84-17.21,17.98c-.4-4.33-.79-8.63-1.19-12.9m5.76,44.75h-1.39v-3.82h1.39v3.82Zm23.88-9.6c0,.24,0,.48,.03,.71h-26.39c-.59-6.54-1.18-13.09-1.78-19.6l18.67-19.5,21.88,22.84c-.14,1.55-.28,3.1-.43,4.65-.34-.04-.68-.05-1.03-.05-6.05,0-10.95,4.9-10.95,10.95m10.95,5.71c-1.66,0-3.16-.7-4.2-1.84-.78-.85-1.31-1.95-1.46-3.16-.03-.23-.04-.46-.04-.71,0-3.15,2.55-5.71,5.71-5.71,.19,0,.38,0,.56,.03,1.15,.11,2.21,.57,3.05,1.27,1.28,1.05,2.09,2.64,2.09,4.41,0,3.15-2.56,5.71-5.71,5.71"/></g><path class="cls-1" d="M782.82,328.6l2.43-6.31h.88l2.09,6.18s.38,.69,1.45,.79l8.49,.07s2.42-.83,1.91-3.86l-3.97-11.01s-.59-1.88-1.76-1.88h-2.24s-1.66-.09-.76,1.63l3.5,8.64s.97,1.95-.53,1.97h-1.74s-.66,.16-1.09-.91l-3.73-9.44s-.55-1.89-1.48-1.89h-12.05s-1.81-.2-1.45,1.63l2.48,6.95s.54,.91,1.74,1.14l3.29,.07s.64,.1,.1,.83l-2.5,4.8s-.55,1.28,.64,1.41h2.88s.95,0,1.4-.81Zm.23-9.49h-2.65c-1.42,0-1.6-.51-2-1.59-.24-.83-.59-1.59,.29-1.59h5.45s.35-.09,.54,.37l.73,2.29s.23,.52-.24,.52h-2.12Z"/><path class="cls-1" d="M808.92,315.72c.08,3.09-2.35,5.66-5.44,5.75-3.09,.08-5.66-2.35-5.75-5.44-.08-3.09,2.35-5.66,5.44-5.75,.06,0,.11,0,.17,0,3.02-.06,5.52,2.34,5.58,5.36v.08m-9.8,0c-.07,2.33,1.76,4.28,4.09,4.35,.05,0,.11,0,.16,0,2.3,0,4.16-1.88,4.15-4.19,0-.04,0-.09,0-.13,.09-2.32-1.72-4.27-4.04-4.36-2.32-.09-4.27,1.72-4.36,4.04,0,.09,0,.19,0,.28m3.35,2.86h-1.26v-5.45c.69-.12,1.39-.18,2.09-.16,.66-.06,1.32,.08,1.9,.4,.35,.3,.54,.73,.53,1.19-.05,.63-.51,1.14-1.13,1.26v.07c.55,.22,.94,.74,.99,1.33,.05,.47,.19,.93,.4,1.36h-1.36c-.21-.42-.36-.87-.43-1.33-.1-.6-.43-.86-1.13-.86h-.6v2.2Zm.02-3.09h.6c.7,0,1.26-.24,1.26-.8,0-.49-.37-.83-1.16-.83-.23,0-.47,.02-.7,.07v1.56Z"/><path class="cls-1" d="M713.88,323.77c.19,1,.96,1.85,2,1.85,2.21,0,2.75-2.9,2.85-4.54l-.04-.04c-.83,1.19-1.92,1.66-3.36,1.66-1.28,0-2.58-.6-3.43-1.53-.79-.92-1.15-2.13-1.15-3.32,0-3.04,2.09-5.45,5.22-5.45,4.51,0,5.73,3.94,5.73,7.71s-1.62,7.79-5.85,7.79c-2.58,0-4.49-1.49-4.83-4.13h2.87Zm4.58-6.11c0-1.38-.87-2.77-2.41-2.77-1.45,0-2.28,1.36-2.28,2.73s.72,2.81,2.28,2.81,2.41-1.3,2.41-2.77Z"/><path class="cls-1" d="M728.79,324.15h-6.3v-2.77l6.47-8.69h2.7v8.96h1.98v2.49h-1.98v3.45h-2.87v-3.45Zm0-7.67h-.06l-3.85,5.18h3.92v-5.18Z"/><path class="cls-1" d="M742.52,327.6h-3.77l-4.94-15.2h3.45l3.38,10.69h.04l3.43-10.69h3.45l-5.05,15.2Z"/><path class="cls-1" d="M748.53,320.49h6.41v2.6h-6.41v-2.6Z"/><path class="cls-1" d="M761.97,312.39c2.98,0,5.49,1.87,5.49,7.69s-2.51,7.81-5.49,7.81-5.45-1.87-5.45-7.81,2.49-7.69,5.45-7.69Zm0,13.01c2.47,0,2.47-3.64,2.47-5.32,0-1.55,0-5.2-2.47-5.2s-2.43,3.64-2.43,5.2c0,1.68,0,5.32,2.43,5.32Z"/><path class="cls-1" d="M708.4,322.81c.87,0,.17-.72-.07-1l-6.5-7.38c-.29-.33-.76-.33-1.05,0l-6.5,7.38c-.24,.28-.77,1-.07,1h14.19Z"/><g><path class="cls-1" d="M721.55,332.13h2.6v3.97h3.68v-3.97h2.6v10.48h-2.6v-4.37h-3.68v4.37h-2.6v-10.48Z"/><path class="cls-1" d="M739.23,342.21c-.75,.42-1.63,.66-2.64,.66-3.17,0-5.16-2.33-5.16-5.47s1.99-5.47,5.16-5.47,5.18,2.33,5.18,5.47c0,1.45-.42,2.73-1.2,3.68l1.19,1.12-1.2,1.28-1.32-1.26Zm-1.69-1.63l-.95-.92,1.2-1.25,.97,.92c.25-.54,.37-1.2,.37-1.94,0-1.91-.82-3.37-2.52-3.37s-2.54,1.47-2.54,3.37,.85,3.36,2.54,3.36c.35,0,.66-.06,.94-.18Z"/><path class="cls-1" d="M742.78,332.13h4.72c1.28,0,2.21,.35,2.86,.97,.67,.63,1.06,1.52,1.06,2.58,0,2.01-1.39,3.43-3.55,3.43h-2.45v3.5h-2.64v-10.48Zm4.56,4.93c.94,0,1.47-.56,1.47-1.39s-.54-1.35-1.47-1.35h-1.92v2.74h1.92Z"/><path class="cls-1" d="M752.06,337.41c0-3.12,2.04-5.48,5.16-5.48,1.22,0,2.24,.35,2.99,.92,.91,.69,1.44,1.71,1.57,2.89h-2.6c-.13-.94-.87-1.66-1.98-1.66-1.7,0-2.51,1.42-2.51,3.33s.97,3.31,2.52,3.31c1.16,0,1.92-.73,2.04-1.75h2.6c-.07,1.04-.54,1.99-1.26,2.68-.81,.78-1.88,1.19-3.36,1.19-3.08,0-5.18-2.3-5.18-5.44Z"/><path class="cls-1" d="M762.77,332.13h5.06c1.08,0,1.89,.26,2.45,.72,.6,.5,.91,1.17,.91,2.01,0,1.04-.54,1.7-1.47,2.05v.04c1.14,.35,1.88,1.32,1.88,2.57,0,1.06-.38,1.82-1.07,2.35-.62,.48-1.48,.75-2.58,.75h-5.18v-10.48Zm4.68,4.15c.75,0,1.26-.37,1.26-1.06s-.48-1.04-1.25-1.04h-2.13v2.1h2.11Zm.21,4.25c.85,0,1.38-.48,1.38-1.23,0-.83-.62-1.26-1.41-1.26h-2.29v2.49h2.32Z"/><path class="cls-1" d="M772.58,337.91h3.99v2.05h-3.99v-2.05Z"/><path class="cls-1" d="M778.76,336.19h-2.16v-1.67c1.33-.04,2.42-.67,2.67-2.04h1.96v10.13h-2.48v-6.42Z"/></g><g><path class="cls-1" d="M716.13,346.19h10.27v2.77h-6.92v2.43h5.93v2.62h-5.93v2.9h7.03v2.84h-10.39v-13.55Z"/><path class="cls-1" d="M733.55,356.85h-6.04v-2.94l6.01-7.3h3.15v7.81h1.88v2.43h-1.88v2.88h-3.11v-2.88Zm0-2.43v-4.45h-.04l-3.6,4.42v.04h3.64Z"/><path class="cls-1" d="M739.33,353.35c-.02-2.12,.46-3.92,1.57-5.19,.93-1.06,2.25-1.67,4.11-1.67,2.69,0,4.4,1.36,4.79,3.47h-3.05c-.19-.64-.64-1.19-1.71-1.19-1.59,0-2.46,1.19-2.56,3.28h.04c.7-.74,1.57-1.23,2.98-1.23,2.5,0,4.68,1.82,4.68,4.6s-2.18,4.62-5.16,4.62c-3.81,0-5.68-2.82-5.7-6.69Zm7.83,2.08c0-1.29-.93-2.27-2.24-2.27-1.38,0-2.25,.97-2.25,2.27s.93,2.22,2.25,2.22,2.24-.95,2.24-2.22Z"/><path class="cls-1" d="M751.27,356.51h3.03c.19,.64,.74,1.23,1.82,1.23,.72,0,1.29-.23,1.69-.74,.46-.55,.7-1.42,.74-2.58h-.04c-.66,.72-1.55,1.27-2.9,1.27-2.62,0-4.74-1.8-4.74-4.59s2.2-4.62,5.23-4.62c1.61,0,2.99,.53,3.9,1.46,1.16,1.12,1.71,2.84,1.71,5.21,0,2.01-.42,3.83-1.35,5.04-.93,1.19-2.27,1.84-4.17,1.84-2.8,0-4.57-1.44-4.93-3.52Zm7.22-5.4c0-1.31-.97-2.25-2.31-2.25s-2.27,.97-2.27,2.24,.87,2.25,2.27,2.25c1.33,0,2.31-.93,2.31-2.24Z"/><path class="cls-1" d="M768.46,349.5v-.04h-6.25v-2.71h9.61v2.46c-2.27,2.29-4.34,6.06-4.47,10.52h-3.33c.17-4.72,2.62-8.36,4.45-10.23Z"/><path class="cls-1" d="M777.62,356.85h-6.04v-2.94l6.01-7.3h3.15v7.81h1.88v2.43h-1.88v2.88h-3.11v-2.88Zm0-2.43v-4.45h-.04l-3.6,4.42v.04h3.64Z"/><path class="cls-1" d="M789.12,349.5v-.04h-6.25v-2.71h9.61v2.46c-2.27,2.29-4.34,6.06-4.47,10.52h-3.33c.17-4.72,2.62-8.36,4.45-10.23Z"/></g><path class="cls-1" d="M735.09,373.87c-.11,0-.19-.09-.19-.19v-5.02c0-.11,.09-.19,.19-.19s.19,.09,.19,.19v5.02c0,.11-.09,.19-.19,.19Z"/><path class="cls-1" d="M722.71,384.42c-.11,0-.19-.09-.19-.19v-5.02c0-.11,.09-.19,.19-.19s.19,.09,.19,.19v5.02c0,.11-.09,.19-.19,.19Z"/><g><path class="cls-1" d="M731.41,366.09h-5.02c-.11,0-.19-.09-.19-.19s.09-.19,.19-.19h5.02c.11,0,.19,.09,.19,.19s-.09,.19-.19,.19Z"/><path class="cls-1" d="M731.41,376.63h-5.02c-.11,0-.19-.09-.19-.19s.09-.19,.19-.19h5.02c.11,0,.19,.09,.19,.19s-.09,.19-.19,.19Z"/><path class="cls-1" d="M731.41,387.18h-5.02c-.11,0-.19-.09-.19-.19s.09-.19,.19-.19h5.02c.11,0,.19,.09,.19,.19s-.09,.19-.19,.19Z"/></g><path class="cls-1" d="M753.89,373.87c-.11,0-.19-.09-.19-.19v-5.02c0-.11,.09-.19,.19-.19s.19,.09,.19,.19v5.02c0,.11-.09,.19-.19,.19Z"/><path class="cls-1" d="M759.44,373.87c-.11,0-.19-.09-.19-.19v-5.02c0-.11,.09-.19,.19-.19s.19,.09,.19,.19v5.02c0,.11-.09,.19-.19,.19Z"/><path class="cls-1" d="M741.51,384.42c-.11,0-.19-.09-.19-.19v-5.02c0-.11,.09-.19,.19-.19s.19,.09,.19,.19v5.02c0,.11-.09,.19-.19,.19Z"/><path class="cls-1" d="M759.44,384.42c-.11,0-.19-.09-.19-.19v-5.02c0-.11,.09-.19,.19-.19s.19,.09,.19,.19v5.02c0,.11-.09,.19-.19,.19Z"/><path class="cls-1" d="M772.01,373.87c-.11,0-.19-.09-.19-.19v-5.02c0-.11,.09-.19,.19-.19s.19,.09,.19,.19v5.02c0,.11-.09,.19-.19,.19Z"/><path class="cls-1" d="M777.35,373.87c-.11,0-.19-.09-.19-.19v-5.02c0-.11,.09-.19,.19-.19s.19,.09,.19,.19v5.02c0,.11-.09,.19-.19,.19Z"/><path class="cls-1" d="M772.01,384.42c-.11,0-.19-.09-.19-.19v-5.02c0-.11,.09-.19,.19-.19s.19,.09,.19,.19v5.02c0,.11-.09,.19-.19,.19Z"/><path class="cls-1" d="M790.1,373.87c-.11,0-.19-.09-.19-.19v-5.02c0-.11,.09-.19,.19-.19s.19,.09,.19,.19v5.02c0,.11-.09,.19-.19,.19Z"/><path class="cls-1" d="M790.1,384.42c-.11,0-.19-.09-.19-.19v-5.02c0-.11,.09-.19,.19-.19s.19,.09,.19,.19v5.02c0,.11-.09,.19-.19,.19Z"/><path class="cls-1" d="M750.21,366.09h-5.02c-.11,0-.19-.09-.19-.19s.09-.19,.19-.19h5.02c.11,0,.19,.09,.19,.19s-.09,.19-.19,.19Z"/><path class="cls-1" d="M750.21,376.63h-5.02c-.11,0-.19-.09-.19-.19s.09-.19,.19-.19h5.02c.11,0,.19,.09,.19,.19s-.09,.19-.19,.19Z"/><path class="cls-1" d="M750.21,387.18h-5.02c-.11,0-.19-.09-.19-.19s.09-.19,.19-.19h5.02c.11,0,.19,.09,.19,.19s-.09,.19-.19,.19Z"/><path class="cls-1" d="M786.25,366.09h-5.02c-.11,0-.19-.09-.19-.19s.09-.19,.19-.19h5.02c.11,0,.19,.09,.19,.19s-.09,.19-.19,.19Z"/><path class="cls-1" d="M786.25,376.63h-5.02c-.11,0-.19-.09-.19-.19s.09-.19,.19-.19h5.02c.11,0,.19,.09,.19,.19s-.09,.19-.19,.19Z"/><path class="cls-1" d="M786.25,387.18h-5.02c-.11,0-.19-.09-.19-.19s.09-.19,.19-.19h5.02c.11,0,.19,.09,.19,.19s-.09,.19-.19,.19Z"/><path class="cls-1" d="M768.3,366.09h-5.02c-.11,0-.19-.09-.19-.19s.09-.19,.19-.19h5.02c.11,0,.19,.09,.19,.19s-.09,.19-.19,.19Z"/><path class="cls-1" d="M768.3,387.18h-5.02c-.11,0-.19-.09-.19-.19s.09-.19,.19-.19h5.02c.11,0,.19,.09,.19,.19s-.09,.19-.19,.19Z"/><g><path class="cls-1" d="M488.6,268.87h12.44c5.03,0,7.92,2.89,7.92,7.53,0,3.43-1.48,5.69-4.68,6.71v.12c2.89,.97,3.82,3.08,4.02,7.41,.2,4.49,.7,5.62,1.21,5.97v.16h-2.81c-.62-.43-.78-1.48-1.01-6.24-.23-4.84-1.91-6.2-5.97-6.2h-8.5v12.44h-2.61v-27.89Zm11.54,13.22c4.06,0,6.12-1.99,6.12-5.46s-1.56-5.46-5.77-5.46h-9.28v10.92h8.93Z"/><path class="cls-1" d="M521.56,268.87h2.96l10.61,27.89h-2.81l-3.24-8.78h-12.13l-3.28,8.78h-2.65l10.53-27.89Zm6.75,16.96l-3.82-10.41c-.58-1.56-1.4-4.06-1.4-4.06h-.08s-.74,2.38-1.37,4.06l-3.9,10.41h10.57Z"/><path class="cls-1" d="M537.94,268.87h2.61v14.86l15.05-14.86h3.39l-11.66,11.35,12.36,16.54h-3.12l-11.04-14.74-4.99,4.91v9.83h-2.61v-27.89Z"/><path class="cls-1" d="M566.73,276.67h-5.62v-1.72c3.94-.2,5.77-1.09,6.24-5.07h1.91v26.87h-2.54v-20.09Z"/><path class="cls-1" d="M574.41,290.2h2.57c.23,2.96,2.3,4.91,5.5,4.91,1.99,0,3.51-.58,4.6-1.76,1.95-1.99,2.73-5.46,2.77-10.33h-.08c-1.52,2.65-4.09,4.17-7.29,4.17-4.91,0-8.5-3.71-8.5-8.7-.04-5.07,3.63-9.05,8.74-9.05,2.57,0,4.45,.82,5.97,2.11,2.77,2.26,3.63,6.24,3.63,11.97,0,4.99-1.01,8.97-3.51,11.43-1.56,1.52-3.71,2.34-6.24,2.34-4.68,0-7.88-2.81-8.15-7.1Zm14.82-11.82c0-4.09-2.69-6.83-6.47-6.83s-6.32,2.89-6.32,6.86,2.54,6.67,6.24,6.67,6.55-2.77,6.55-6.71Z"/><path class="cls-1" d="M595.24,283.37c0-8.66,3.86-13.92,9.91-13.92s9.87,5.19,9.87,13.92-3.51,13.92-9.91,13.92-9.87-5.42-9.87-13.92Zm17.16,0c0-7.18-2.54-11.78-7.25-11.78s-7.29,4.45-7.29,11.78,2.54,11.74,7.29,11.74,7.25-4.41,7.25-11.74Z"/><path class="cls-1" d="M617.98,283.37c0-8.66,3.86-13.92,9.91-13.92s9.87,5.19,9.87,13.92-3.51,13.92-9.91,13.92-9.87-5.42-9.87-13.92Zm17.16,0c0-7.18-2.54-11.78-7.25-11.78s-7.29,4.45-7.29,11.78,2.54,11.74,7.29,11.74,7.25-4.41,7.25-11.74Z"/><path class="cls-1" d="M640.88,290.2h2.57c.23,2.96,2.3,4.91,5.5,4.91,1.99,0,3.51-.58,4.6-1.76,1.95-1.99,2.73-5.46,2.77-10.33h-.08c-1.52,2.65-4.09,4.17-7.29,4.17-4.91,0-8.5-3.71-8.5-8.7-.04-5.07,3.63-9.05,8.74-9.05,2.57,0,4.45,.82,5.97,2.11,2.77,2.26,3.63,6.24,3.63,11.97,0,4.99-1.01,8.97-3.51,11.43-1.56,1.52-3.71,2.34-6.24,2.34-4.68,0-7.88-2.81-8.15-7.1Zm14.82-11.82c0-4.09-2.69-6.83-6.47-6.83s-6.32,2.89-6.32,6.86,2.54,6.67,6.24,6.67,6.55-2.77,6.55-6.71Z"/></g><g><path class="cls-1" d="M680.2,268.87h2.73l7.22,20.59c.62,1.72,1.48,4.6,1.48,4.6h.08s.9-3,1.52-4.72l7.25-20.48h2.65l-10.1,27.89h-2.85l-9.98-27.89Z"/><path class="cls-1" d="M705.01,286.69c0-6.04,3.63-10.57,9.21-10.57,6.47,0,8.7,5.34,8.66,11h-15.37c.12,4.52,2.3,8.07,6.9,8.07,3.35,0,5.11-1.79,5.89-4.52h2.34c-.86,3.98-3.71,6.59-8.23,6.59-6.04,0-9.4-4.52-9.4-10.57Zm15.33-1.48c-.12-3.98-1.99-7.1-6.12-7.1s-6.24,3.08-6.67,7.1h12.79Z"/><path class="cls-1" d="M729,276.59h2.42v3.74h.08c1.25-2.34,3.35-3.9,6.16-3.9,.31,0,.51,.04,.66,.08v2.38c-1.44-.23-3.04,.08-4.29,.97-1.56,1.17-2.61,3.04-2.61,5.42v11.47h-2.42v-20.16Z"/><path class="cls-1" d="M752.71,293.36h2.96v3.39h-2.96v-3.39Z"/><path class="cls-1" d="M780.25,268.87h2.96l10.61,27.89h-2.81l-3.24-8.78h-12.13l-3.28,8.78h-2.65l10.53-27.89Zm6.75,16.96l-3.82-10.41c-.58-1.56-1.4-4.06-1.4-4.06h-.08s-.74,2.38-1.37,4.06l-3.9,10.41h10.57Z"/></g><path class="cls-1" d="M419.13,367.39c-.6,.6-1.27,1.11-1.95,1.62,10.84,4.7,18.45,15.48,18.45,28.02,0,16.84-13.7,30.54-30.54,30.54s-30.54-13.7-30.54-30.54c0-10.22,5.09-19.23,12.82-24.78h-3.69c-6.98,6.04-11.49,14.85-11.49,24.78,0,18.14,14.76,32.9,32.9,32.9s32.91-14.76,32.91-32.9c0-13.1-7.75-24.35-18.87-29.64Z"/><path class="cls-1" d="M534.58,512.71c-4.31,11.95-15.66,20.56-29.07,20.56-17.1,0-31.02-13.91-31.02-31.02s13.91-31.02,31.02-31.02c13.42,0,24.76,8.61,29.07,20.56v-5.43c-5.66-10.32-16.5-17.41-29.07-17.41-18.36,0-33.29,14.94-33.29,33.3s14.93,33.29,33.29,33.29c12.58,0,23.41-7.09,29.07-17.4v-5.43Z"/><path class="cls-1" d="M792.15,468.84c-12.98,0-24.12,7.66-29.39,18.65v6.83c3.26-13.25,15.15-23.14,29.39-23.14,16.73,0,30.35,13.62,30.35,30.35s-13.62,30.35-30.35,30.35c-14.24,0-26.14-9.9-29.39-23.15v6.83c5.27,10.99,16.41,18.65,29.39,18.65,18.02,0,32.69-14.66,32.69-32.69s-14.66-32.68-32.69-32.68Z"/><path class="cls-1" d="M519.74,18.78h-9.49c15.66,1.96,27.87,15.22,27.87,31.4,0,17.53-14.27,31.8-31.8,31.8s-31.8-14.27-31.8-31.8c0-16.19,12.2-29.44,27.87-31.4h-9.48c-12.18,5.23-20.74,17.33-20.74,31.4,0,18.84,15.33,34.16,34.16,34.16s34.16-15.33,34.16-34.16c0-14.07-8.56-26.18-20.75-31.4Z"/><path class="cls-1" d="M799.18,18.55h-16.51c-14.08,3.69-24.56,16.41-24.56,31.63,0,18.09,14.72,32.81,32.81,32.81s32.81-14.72,32.81-32.81c0-15.22-10.47-27.94-24.56-31.63Zm-8.26,62.08c-16.79,0-30.45-13.66-30.45-30.45s13.66-30.45,30.45-30.45,30.45,13.66,30.45,30.45-13.66,30.45-30.45,30.45Z"/><path class="cls-1" d="M908.55,306.46c-8.54,9.39-20.73,15.41-34.4,15.41-25.72,0-46.65-20.93-46.65-46.65s20.93-46.65,46.65-46.65c13.66,0,25.86,6.01,34.4,15.4v-3.6c-8.86-8.74-21-14.17-34.4-14.17-27.03,0-49.02,21.98-49.02,49.01s21.99,49.02,49.02,49.02c13.4,0,25.54-5.43,34.4-14.17v-3.6Z"/><g><path class="cls-1" d="M378.84,42.44h5.05l1.85,6.65c.28,.96,.87,3.46,.87,3.46h.04s.59-2.51,.85-3.46l1.87-6.65h5.1v15.19h-3.44v-7.65c0-.62,.06-3.04,.06-3.04h-.04s-.53,2.27-.7,2.83l-2.19,7.86h-3.1l-2.17-7.84c-.17-.55-.7-2.85-.7-2.85h-.04s.06,2.44,.06,3.06v7.62h-3.38v-15.19Z"/><path class="cls-1" d="M399.2,48.33h-3.12v-2.42c1.93-.06,3.5-.98,3.87-2.95h2.85v14.68h-3.59v-9.3Z"/></g><g><path class="cls-1" d="M394.65,103.28h5.05l1.85,6.65c.28,.96,.87,3.46,.87,3.46h.04s.59-2.51,.85-3.46l1.87-6.65h5.1v15.19h-3.44v-7.65c0-.62,.06-3.04,.06-3.04h-.04s-.53,2.27-.7,2.83l-2.19,7.86h-3.1l-2.17-7.84c-.17-.55-.7-2.85-.7-2.85h-.04s.06,2.44,.06,3.06v7.62h-3.38v-15.19Z"/><path class="cls-1" d="M411.86,111.3c-.02-2.38,.51-4.4,1.76-5.82,1.04-1.19,2.53-1.87,4.61-1.87,3.02,0,4.93,1.53,5.37,3.89h-3.42c-.21-.72-.72-1.34-1.91-1.34-1.78,0-2.76,1.34-2.87,3.67h.04c.79-.83,1.76-1.38,3.33-1.38,2.8,0,5.25,2.04,5.25,5.16s-2.44,5.18-5.78,5.18c-4.27,0-6.37-3.17-6.39-7.5Zm8.77,2.34c0-1.44-1.04-2.55-2.51-2.55-1.55,0-2.53,1.08-2.53,2.55s1.04,2.48,2.53,2.48,2.51-1.06,2.51-2.48Z"/></g><g><path class="cls-1" d="M496.6,90.26h5.05l1.85,6.65c.28,.96,.87,3.46,.87,3.46h.04s.59-2.51,.85-3.46l1.87-6.65h5.1v15.19h-3.44v-7.65c0-.62,.06-3.04,.06-3.04h-.04s-.53,2.27-.7,2.83l-2.19,7.86h-3.1l-2.17-7.84c-.17-.55-.7-2.85-.7-2.85h-.04s.06,2.44,.06,3.06v7.62h-3.38v-15.19Z"/><path class="cls-1" d="M520.65,93.98v-.04h-7.01v-3.04h10.77v2.76c-2.55,2.57-4.86,6.8-5.01,11.79h-3.74c.19-5.29,2.93-9.37,4.99-11.47Z"/></g><g><path class="cls-1" d="M289.04,192.82h5.05l1.85,6.65c.28,.96,.87,3.46,.87,3.46h.04s.59-2.51,.85-3.46l1.87-6.65h5.1v15.19h-3.44v-7.65c0-.62,.06-3.04,.06-3.04h-.04s-.53,2.27-.7,2.83l-2.19,7.86h-3.1l-2.17-7.84c-.17-.55-.7-2.85-.7-2.85h-.04s.06,2.44,.06,3.06v7.62h-3.38v-15.19Z"/><path class="cls-1" d="M306.25,200.85c-.02-2.38,.51-4.4,1.76-5.82,1.04-1.19,2.53-1.87,4.61-1.87,3.02,0,4.93,1.53,5.37,3.89h-3.42c-.21-.72-.72-1.34-1.91-1.34-1.78,0-2.76,1.34-2.87,3.67h.04c.79-.83,1.76-1.38,3.33-1.38,2.8,0,5.25,2.04,5.25,5.16s-2.44,5.18-5.78,5.18c-4.27,0-6.37-3.17-6.39-7.5Zm8.77,2.34c0-1.44-1.04-2.55-2.51-2.55-1.55,0-2.53,1.08-2.53,2.55s1.04,2.48,2.53,2.48,2.51-1.06,2.51-2.48Z"/></g><g><path class="cls-1" d="M485.55,451.29h5.05l1.85,6.65c.28,.96,.87,3.46,.87,3.46h.04s.59-2.51,.85-3.46l1.87-6.65h5.1v15.19h-3.44v-7.65c0-.62,.06-3.04,.06-3.04h-.04s-.53,2.27-.7,2.82l-2.19,7.86h-3.1l-2.17-7.84c-.17-.55-.7-2.85-.7-2.85h-.04s.06,2.44,.06,3.06v7.62h-3.38v-15.19Z"/><path class="cls-1" d="M505.9,457.17h-3.12v-2.42c1.93-.06,3.5-.98,3.87-2.95h2.85v14.68h-3.59v-9.3Z"/><path class="cls-1" d="M514.53,457.17h-3.12v-2.42c1.93-.06,3.5-.98,3.87-2.95h2.85v14.68h-3.59v-9.3Z"/></g><g><path class="cls-1" d="M772.37,451.57h5.05l1.85,6.65c.28,.96,.87,3.46,.87,3.46h.04s.59-2.51,.85-3.46l1.87-6.65h5.1v15.19h-3.44v-7.65c0-.62,.06-3.04,.06-3.04h-.04s-.53,2.27-.7,2.82l-2.19,7.86h-3.1l-2.17-7.84c-.17-.55-.7-2.85-.7-2.85h-.04s.06,2.44,.06,3.06v7.62h-3.38v-15.19Z"/><path class="cls-1" d="M792.73,457.46h-3.12v-2.42c1.93-.06,3.5-.98,3.87-2.95h2.85v14.68h-3.59v-9.3Z"/><path class="cls-1" d="M804.9,463.53h-6.78v-3.29l6.73-8.18h3.53v8.75h2.1v2.72h-2.1v3.23h-3.48v-3.23Zm0-2.72v-4.99h-.04l-4.04,4.95v.04h4.08Z"/></g><g><path class="cls-1" d="M877.02,209.04h5.05l1.85,6.65c.28,.96,.87,3.46,.87,3.46h.04s.59-2.51,.85-3.46l1.87-6.65h5.1v15.19h-3.44v-7.65c0-.62,.06-3.04,.06-3.04h-.04s-.53,2.27-.7,2.83l-2.19,7.86h-3.1l-2.17-7.84c-.17-.55-.7-2.85-.7-2.85h-.04s.06,2.44,.06,3.06v7.62h-3.38v-15.19Z"/><path class="cls-1" d="M894.59,220.62h3.4c.21,.72,.83,1.38,2.04,1.38,.81,0,1.44-.25,1.89-.83,.51-.62,.79-1.59,.83-2.89h-.04c-.74,.81-1.74,1.42-3.25,1.42-2.93,0-5.31-2.02-5.31-5.14s2.46-5.18,5.86-5.18c1.8,0,3.36,.59,4.38,1.63,1.3,1.25,1.91,3.19,1.91,5.84,0,2.25-.47,4.29-1.51,5.65-1.04,1.34-2.55,2.06-4.67,2.06-3.14,0-5.12-1.61-5.52-3.95Zm8.09-6.05c0-1.47-1.08-2.53-2.59-2.53s-2.55,1.08-2.55,2.51,.98,2.53,2.55,2.53c1.49,0,2.59-1.04,2.59-2.51Z"/></g><g><path class="cls-1" d="M876.25,126.69v-1.34h3.42v1.25c0,1.29,.62,1.83,1.66,1.83,1.1,0,1.57-.68,1.57-1.78v-10.58h3.76v10.66c0,1.36-.34,2.46-1.08,3.29-.85,.93-2.23,1.51-4.01,1.51-3.59,0-5.31-1.95-5.31-4.84Z"/><path class="cls-1" d="M889.47,130.19c-1.06-.94-1.62-2.29-1.62-3.97h3.38c.08,1.55,.85,2.63,2.68,2.63,1.47,0,2.27-.81,2.27-2.02,0-1.27-.89-1.91-2.48-1.91h-.87v-2.49h.79c1.36,0,2.25-.59,2.25-1.7,0-1-.7-1.66-1.91-1.66-1.55,0-2.23,.98-2.32,2.23h-3.33c.06-2.89,2.08-4.91,5.69-4.91,3.21,0,5.4,1.53,5.4,4.1,0,1.49-.91,2.4-2.21,2.91v.04c1.59,.49,2.63,1.61,2.63,3.57,0,3.12-2.7,4.57-5.76,4.57-2.06,0-3.57-.49-4.59-1.4Z"/></g><g><path class="cls-1" d="M878.91,423.75v-1.34h3.42v1.25c0,1.3,.62,1.83,1.66,1.83,1.1,0,1.57-.68,1.57-1.78v-10.58h3.76v10.66c0,1.36-.34,2.46-1.08,3.29-.85,.94-2.23,1.51-4.01,1.51-3.59,0-5.31-1.95-5.31-4.84Z"/><path class="cls-1" d="M897.44,425.09h-6.78v-3.29l6.73-8.18h3.53v8.75h2.1v2.72h-2.1v3.23h-3.48v-3.23Zm0-2.72v-4.99h-.04l-4.04,4.95v.04h4.08Z"/></g><g><path class="cls-1" d="M776.91,88.08h5.05l1.85,6.65c.28,.96,.87,3.46,.87,3.46h.04s.59-2.51,.85-3.46l1.87-6.65h5.1v15.19h-3.44v-7.65c0-.62,.06-3.04,.06-3.04h-.04s-.53,2.27-.7,2.83l-2.19,7.86h-3.1l-2.17-7.84c-.17-.55-.7-2.85-.7-2.85h-.04s.06,2.44,.06,3.06v7.62h-3.38v-15.19Z"/><path class="cls-1" d="M795.5,102.21c-1.06-.94-1.61-2.29-1.61-3.97h3.38c.08,1.55,.85,2.63,2.68,2.63,1.47,0,2.27-.81,2.27-2.02,0-1.27-.89-1.91-2.49-1.91h-.87v-2.49h.79c1.36,0,2.25-.59,2.25-1.7,0-1-.7-1.66-1.91-1.66-1.55,0-2.23,.98-2.32,2.23h-3.33c.06-2.89,2.08-4.91,5.69-4.91,3.21,0,5.4,1.53,5.4,4.1,0,1.49-.91,2.4-2.21,2.91v.04c1.59,.49,2.63,1.61,2.63,3.57,0,3.12-2.7,4.57-5.76,4.57-2.06,0-3.57-.49-4.59-1.4Z"/></g><g><path class="cls-1" d="M552.85,92.71v-1.34h3.42v1.25c0,1.29,.62,1.83,1.66,1.83,1.1,0,1.57-.68,1.57-1.78v-10.58h3.76v10.66c0,1.36-.34,2.46-1.08,3.29-.85,.93-2.23,1.51-4.01,1.51-3.59,0-5.31-1.95-5.31-4.84Z"/><path class="cls-1" d="M567.82,87.97h-3.12v-2.42c1.93-.06,3.5-.98,3.87-2.95h2.85v14.68h-3.59v-9.3Z"/></g><g><path class="cls-1" d="M331.9,362.83v-1.34h3.42v1.25c0,1.3,.62,1.83,1.66,1.83,1.1,0,1.57-.68,1.57-1.78v-10.58h3.76v10.66c0,1.36-.34,2.46-1.08,3.29-.85,.94-2.23,1.51-4.01,1.51-3.59,0-5.31-1.95-5.31-4.84Z"/><path class="cls-1" d="M346.24,362.34c1.32-1.13,3.02-2.19,4.16-3.21,.59-.53,.96-1.08,.96-1.81,0-1.12-.66-1.89-1.89-1.89-.68,0-1.21,.21-1.57,.66-.42,.49-.64,1.15-.66,2.15h-3.36c0-1.7,.3-2.74,1-3.7,.83-1.19,2.4-2,4.67-2,3.5,0,5.4,2.08,5.4,4.65,0,2.02-1.13,3.19-2.42,4.18-1.3,1.06-2.87,1.95-3.89,3.04v.02h6.33v2.95h-11.3c.04-2.44,1.12-3.84,2.57-5.05Z"/></g><g><path class="cls-1" d="M594.81,89.74c0-4.52,2.95-7.94,7.48-7.94,1.76,0,3.25,.51,4.33,1.34,1.32,1,2.08,2.48,2.27,4.18h-3.76c-.19-1.36-1.25-2.4-2.87-2.4-2.46,0-3.63,2.06-3.63,4.82s1.4,4.8,3.65,4.8c1.68,0,2.78-1.06,2.95-2.53h3.76c-.11,1.51-.79,2.89-1.83,3.89-1.17,1.13-2.72,1.72-4.86,1.72-4.46,0-7.5-3.33-7.5-7.88Z"/><path class="cls-1" d="M610.34,82.09h6.84c1.85,0,3.21,.51,4.14,1.4,.98,.91,1.53,2.21,1.53,3.74,0,2.91-2.02,4.97-5.14,4.97h-3.55v5.08h-3.82v-15.19Zm6.61,7.14c1.36,0,2.12-.81,2.12-2.02s-.79-1.96-2.12-1.96h-2.78v3.97h2.78Z"/><path class="cls-1" d="M624.2,91.92v-9.83h3.76v9.96c0,1.49,.76,2.49,2.61,2.49,1.74,0,2.57-1.06,2.57-2.55v-9.9h3.76v9.83c0,3.5-2.1,5.63-6.33,5.63s-6.37-2.08-6.37-5.63Z"/><path class="cls-1" d="M651.33,92.5h3.78c.17,1.53,1.17,2.17,2.97,2.17,1.23,0,2.44-.45,2.44-1.59,0-1.21-1.23-1.46-3.31-1.97-2.63-.62-5.42-1.42-5.42-4.61s2.63-4.67,6.03-4.67,5.84,1.49,5.99,4.67h-3.67c-.15-1.17-1.04-1.83-2.44-1.83-1.32,0-2.19,.57-2.19,1.42,0,1.06,1.17,1.32,3.44,1.83,2.83,.66,5.37,1.53,5.37,4.78s-2.72,4.95-6.22,4.95c-4.04,0-6.69-1.78-6.78-5.14Z"/><path class="cls-1" d="M665.86,82.09h3.76v12h6.82v3.19h-10.58v-15.19Z"/><path class="cls-1" d="M676.72,89.71c0-4.54,2.91-7.92,7.5-7.92s7.52,3.38,7.52,7.92-2.91,7.92-7.52,7.92-7.5-3.38-7.5-7.92Zm11.19,0c0-2.76-1.21-4.88-3.67-4.88s-3.7,2.12-3.7,4.88,1.25,4.86,3.7,4.86,3.67-2.1,3.67-4.86Z"/><path class="cls-1" d="M696.31,85.27h-4.42v-3.19h12.64v3.19h-4.46v12h-3.76v-12Z"/></g><g><path class="cls-1" d="M354.15,196.88v6.84c0,1.85-.51,3.21-1.4,4.14-.91,.98-2.21,1.53-3.74,1.53-2.91,0-4.97-2.02-4.97-5.14v-3.55h-5.08v-3.82h15.19Zm-7.14,6.61c0,1.36,.81,2.12,2.02,2.12s1.96-.79,1.96-2.12v-2.78h-3.97v2.78Z"/><path class="cls-1" d="M346.53,210.33c4.54,0,7.92,2.91,7.92,7.5s-3.38,7.52-7.92,7.52-7.92-2.91-7.92-7.52,3.38-7.5,7.92-7.5Zm0,11.19c2.76,0,4.88-1.21,4.88-3.67s-2.12-3.7-4.88-3.7-4.86,1.25-4.86,3.7,2.1,3.67,4.86,3.67Z"/><path class="cls-1" d="M354.15,225.14v3.8l-6.37,1.53c-1.47,.34-3.76,.7-3.76,.7v.04s2.08,.4,3.61,.74l6.52,1.42v3.48l-6.48,1.42c-1.55,.34-3.65,.72-3.65,.72v.04s2.29,.42,3.8,.76l6.33,1.51v3.78l-15.19-4.16v-3.67l7.29-1.59c1.21-.28,2.83-.53,2.83-.53v-.04s-1.61-.25-2.83-.51l-7.29-1.59v-3.7l15.19-4.16Z"/><path class="cls-1" d="M354.15,246.15v11.51h-3.1v-7.75h-2.72v6.65h-2.93v-6.65h-3.25v7.88h-3.19v-11.64h15.19Z"/><path class="cls-1" d="M354.15,259.5v7.26c0,3.02-1.55,5.31-4.38,5.31-1.76,0-3.06-.87-3.67-2.63h-.06c-.45,1.32-1.27,2-2.78,2.21-2,.32-3.91,.11-4.1,.64h-.19v-3.65c.23-.4,2.02-.34,3.53-.57,1.4-.19,2.17-.91,2.17-2.53v-2.27h-5.69v-3.76h15.19Zm-6.71,6.58c0,1.49,.7,2.25,1.85,2.25s1.89-.72,1.89-2.17v-2.91h-3.74v2.82Z"/><path class="cls-1" d="M343.74,286.21v3.78c-1.53,.17-2.17,1.17-2.17,2.97,0,1.23,.45,2.44,1.59,2.44,1.21,0,1.46-1.23,1.97-3.31,.62-2.63,1.42-5.42,4.61-5.42s4.67,2.63,4.67,6.03-1.49,5.84-4.67,5.99v-3.67c1.17-.15,1.83-1.04,1.83-2.44,0-1.32-.57-2.19-1.42-2.19-1.06,0-1.32,1.17-1.83,3.44-.66,2.82-1.53,5.37-4.78,5.37s-4.95-2.72-4.95-6.22c0-4.04,1.78-6.69,5.14-6.78Z"/><path class="cls-1" d="M354.15,300.74v3.76h-12v6.82h-3.19v-10.58h15.19Z"/><path class="cls-1" d="M346.53,311.6c4.54,0,7.92,2.91,7.92,7.5s-3.38,7.52-7.92,7.52-7.92-2.91-7.92-7.52,3.38-7.5,7.92-7.5Zm0,11.19c2.76,0,4.88-1.21,4.88-3.67s-2.12-3.7-4.88-3.7-4.86,1.25-4.86,3.7,2.1,3.67,4.86,3.67Z"/><path class="cls-1" d="M350.97,331.19v-4.42h3.19v12.64h-3.19v-4.46h-12v-3.76h12Z"/></g><g><path class="cls-1" d="M783.11,221.63c0-4.52,2.95-7.94,7.48-7.94,1.76,0,3.25,.51,4.33,1.34,1.32,1,2.08,2.48,2.27,4.18h-3.76c-.19-1.36-1.25-2.4-2.87-2.4-2.46,0-3.63,2.06-3.63,4.82s1.4,4.8,3.65,4.8c1.68,0,2.78-1.06,2.95-2.53h3.76c-.11,1.51-.79,2.89-1.83,3.89-1.17,1.13-2.72,1.72-4.86,1.72-4.46,0-7.5-3.33-7.5-7.88Z"/><path class="cls-1" d="M801.27,219.86h-3.12v-2.42c1.93-.06,3.5-.98,3.87-2.95h2.85v14.68h-3.59v-9.3Z"/><path class="cls-1" d="M809.26,224.11c1.32-1.12,3.02-2.19,4.16-3.21,.59-.53,.96-1.08,.96-1.8,0-1.13-.66-1.89-1.89-1.89-.68,0-1.21,.21-1.57,.66-.42,.49-.64,1.15-.66,2.15h-3.36c0-1.7,.3-2.74,1-3.7,.83-1.19,2.4-2,4.67-2,3.5,0,5.4,2.08,5.4,4.65,0,2.02-1.13,3.19-2.42,4.18-1.29,1.06-2.87,1.95-3.89,3.04v.02h6.33v2.95h-11.3c.04-2.44,1.13-3.84,2.57-5.06Z"/></g><g><path class="cls-1" d="M391.23,469.82h5.05l1.85,6.65c.28,.96,.87,3.46,.87,3.46h.04s.59-2.51,.85-3.46l1.87-6.65h5.1v15.19h-3.44v-7.65c0-.62,.06-3.04,.06-3.04h-.04s-.53,2.27-.7,2.82l-2.19,7.86h-3.1l-2.17-7.84c-.17-.55-.7-2.85-.7-2.85h-.04s.06,2.44,.06,3.06v7.62h-3.38v-15.19Z"/><path class="cls-1" d="M408.19,480.66h3.5c.23,1.23,1.27,1.85,2.57,1.85,1.44,0,2.36-1.02,2.36-2.49s-.98-2.4-2.38-2.4c-.94,0-1.7,.4-2.08,.89h-3.36l1.49-8.05h9.03v2.87h-6.46l-.51,2.59h.04c.53-.49,1.51-.87,2.83-.87,2.78,0,5.01,1.91,5.01,4.99s-2.4,5.31-5.88,5.31-5.82-1.59-6.16-4.69Z"/></g><g><path class="cls-1" d="M391.23,438.03h5.05l1.85,6.65c.28,.96,.87,3.46,.87,3.46h.04s.59-2.51,.85-3.46l1.87-6.65h5.1v15.19h-3.44v-7.65c0-.62,.06-3.04,.06-3.04h-.04s-.53,2.27-.7,2.82l-2.19,7.86h-3.1l-2.17-7.84c-.17-.55-.7-2.85-.7-2.85h-.04s.06,2.44,.06,3.06v7.62h-3.38v-15.19Z"/><path class="cls-1" d="M411.58,443.91h-3.12v-2.42c1.93-.06,3.5-.98,3.87-2.95h2.85v14.68h-3.59v-9.3Z"/><path class="cls-1" d="M418.45,452.15c-1.06-.93-1.61-2.29-1.61-3.97h3.38c.08,1.55,.85,2.63,2.68,2.63,1.47,0,2.27-.81,2.27-2.02,0-1.27-.89-1.91-2.49-1.91h-.87v-2.48h.79c1.36,0,2.25-.59,2.25-1.7,0-1-.7-1.66-1.91-1.66-1.55,0-2.23,.98-2.32,2.23h-3.33c.06-2.89,2.08-4.91,5.69-4.91,3.21,0,5.4,1.53,5.4,4.1,0,1.49-.91,2.4-2.21,2.91v.04c1.59,.49,2.63,1.61,2.63,3.57,0,3.12-2.7,4.57-5.76,4.57-2.06,0-3.57-.49-4.59-1.4Z"/></g><g><path class="cls-1" d="M278.34,344.55h5.05l1.85,6.65c.28,.96,.87,3.46,.87,3.46h.04s.59-2.51,.85-3.46l1.87-6.65h5.1v15.19h-3.44v-7.65c0-.62,.06-3.04,.06-3.04h-.04s-.53,2.27-.7,2.82l-2.19,7.86h-3.1l-2.17-7.84c-.17-.55-.7-2.85-.7-2.85h-.04s.06,2.44,.06,3.06v7.62h-3.38v-15.19Z"/><path class="cls-1" d="M298.69,350.44h-3.12v-2.42c1.93-.06,3.5-.98,3.87-2.95h2.85v14.68h-3.59v-9.3Z"/><path class="cls-1" d="M304.15,352.48c0-4.63,2.61-7.6,6.44-7.6s6.44,2.97,6.44,7.6-2.59,7.6-6.46,7.6-6.42-2.97-6.42-7.6Zm9.18,0c0-2.83-.79-4.82-2.74-4.82s-2.76,1.98-2.76,4.82,.81,4.8,2.76,4.8,2.74-1.93,2.74-4.8Z"/></g><circle class="cls-1" cx="423.96" cy="210.33" r="4.58"/><path class="cls-1" d="M405.09,120.41c-18.62,0-33.78,15.16-33.78,33.78,0,10.98,5.34,20.65,13.48,26.82h4.19c-9.13-5.5-15.3-15.41-15.3-26.82,0-17.32,14.09-31.42,31.41-31.42s31.42,14.09,31.42,31.42c0,12.15-7,22.59-17.12,27.81v2.68c11.47-5.4,19.49-16.99,19.49-30.49,0-18.62-15.16-33.78-33.78-33.78Z"/></g><g><g><rect class="cls-1" x="359.24" y="339.41" width="56.59" height="5.57" rx=".2" ry=".2"/><rect class="cls-1" x="359.24" y="332.37" width="56.59" height="5.57" rx=".2" ry=".2"/><rect class="cls-1" x="359.24" y="325.34" width="56.59" height="5.57" rx=".2" ry=".2"/><rect class="cls-1" x="359.24" y="318.3" width="56.59" height="5.57" rx=".2" ry=".2"/><rect class="cls-1" x="359.24" y="311.27" width="56.59" height="5.57" rx=".2" ry=".2"/><rect class="cls-1" x="359.24" y="304.23" width="56.59" height="5.57" rx=".2" ry=".2"/><rect class="cls-1" x="359.24" y="297.2" width="56.59" height="5.57" rx=".2" ry=".2"/><rect class="cls-1" x="359.24" y="290.16" width="56.59" height="5.57" rx=".2" ry=".2"/><rect class="cls-1" x="359.24" y="283.13" width="56.59" height="5.57" rx=".2" ry=".2"/><rect class="cls-1" x="359.24" y="276.09" width="56.59" height="5.57" rx=".2" ry=".2"/><rect class="cls-1" x="359.24" y="269.05" width="56.59" height="5.57" rx=".2" ry=".2"/><rect class="cls-1" x="359.24" y="262.02" width="56.59" height="5.57" rx=".2" ry=".2"/><rect class="cls-1" x="359.24" y="254.98" width="56.59" height="5.57" rx=".2" ry=".2"/><rect class="cls-1" x="359.24" y="247.95" width="56.59" height="5.57" rx=".2" ry=".2"/><rect class="cls-1" x="359.24" y="240.91" width="56.59" height="5.57" rx=".2" ry=".2"/><rect class="cls-1" x="359.24" y="233.88" width="56.59" height="5.57" rx=".2" ry=".2"/><rect class="cls-1" x="359.24" y="226.84" width="56.59" height="5.57" rx=".2" ry=".2"/><rect class="cls-1" x="359.24" y="219.81" width="56.59" height="5.57" rx=".2" ry=".2"/><rect class="cls-1" x="359.24" y="212.77" width="56.59" height="5.57" rx=".2" ry=".2"/><rect class="cls-1" x="359.24" y="205.73" width="56.59" height="5.57" rx=".2" ry=".2"/><rect class="cls-1" x="359.24" y="183.93" width="56.59" height="16.51" rx=".15" ry=".15"/><rect class="cls-1" x="359.24" y="351.82" width="56.59" height="16.51" rx=".15" ry=".15"/></g><rect class="cls-5" x="368.7" y="184.68" width="36.6" height="182.72" rx=".19" ry=".19"/><path class="cls-9" d="M398.12,350.19V201.51h.98v-10.92h-7.42c-1,1.58-2.68,2.68-4.68,2.68s-3.68-1.11-4.68-2.68h-7.68v11.21h1.34v148.12h-1.34v9.81h7.53c.97-1.7,2.73-2.9,4.83-2.9s3.86,1.2,4.83,2.9h7.53v-9.54h-1.25Z"/><g><rect class="cls-11" x="371.31" y="208" width="32.13" height="2.78" rx=".14" ry=".14"/><rect class="cls-11" x="371.31" y="215.26" width="32.13" height="2.78" rx=".14" ry=".14"/><rect class="cls-11" x="371.31" y="222.17" width="32.13" height="2.78" rx=".14" ry=".14"/><rect class="cls-11" x="371.31" y="229.07" width="32.13" height="2.78" rx=".14" ry=".14"/><rect class="cls-11" x="371.31" y="235.98" width="32.13" height="2.78" rx=".14" ry=".14"/><rect class="cls-11" x="371.31" y="242.89" width="32.13" height="2.78" rx=".14" ry=".14"/><rect class="cls-11" x="371.31" y="249.79" width="32.13" height="2.78" rx=".14" ry=".14"/><rect class="cls-11" x="371.31" y="256.7" width="32.13" height="2.78" rx=".14" ry=".14"/><rect class="cls-11" x="371.31" y="263.96" width="32.13" height="2.78" rx=".14" ry=".14"/><rect class="cls-11" x="371.31" y="270.87" width="32.13" height="2.78" rx=".14" ry=".14"/><rect class="cls-11" x="371.31" y="277.77" width="32.13" height="2.78" rx=".14" ry=".14"/><rect class="cls-11" x="371.31" y="284.68" width="32.13" height="2.78" rx=".14" ry=".14"/><rect class="cls-11" x="371.31" y="291.59" width="32.13" height="2.78" rx=".14" ry=".14"/><rect class="cls-11" x="371.31" y="298.49" width="32.13" height="2.78" rx=".14" ry=".14"/><rect class="cls-11" x="371.31" y="305.4" width="32.13" height="2.78" rx=".14" ry=".14"/><rect class="cls-11" x="371.31" y="312.66" width="32.13" height="2.78" rx=".14" ry=".14"/><rect class="cls-11" x="371.31" y="319.57" width="32.13" height="2.78" rx=".14" ry=".14"/><rect class="cls-11" x="371.31" y="326.47" width="32.13" height="2.78" rx=".14" ry=".14"/><rect class="cls-11" x="371.31" y="333.38" width="32.13" height="2.78" rx=".14" ry=".14"/><rect class="cls-11" x="371.31" y="340.29" width="32.13" height="2.78" rx=".14" ry=".14"/><rect class="cls-4" x="375.98" y="208" width="4.21" height="2.78"/><rect class="cls-4" x="393.92" y="208" width="4.21" height="2.78"/><rect class="cls-4" x="375.98" y="215.26" width="4.21" height="2.78"/><rect class="cls-4" x="393.92" y="215.26" width="4.21" height="2.78"/><rect class="cls-4" x="375.98" y="222.17" width="4.21" height="2.78"/><rect class="cls-4" x="393.92" y="222.17" width="4.21" height="2.78"/><rect class="cls-4" x="375.98" y="229.07" width="4.21" height="2.78"/><rect class="cls-4" x="393.92" y="229.07" width="4.21" height="2.78"/><rect class="cls-4" x="375.98" y="235.98" width="4.21" height="2.78"/><rect class="cls-4" x="393.92" y="235.98" width="4.21" height="2.78"/><rect class="cls-4" x="375.98" y="242.89" width="4.21" height="2.78"/><rect class="cls-4" x="393.92" y="242.89" width="4.21" height="2.78"/><rect class="cls-4" x="375.98" y="249.79" width="4.21" height="2.78"/><rect class="cls-4" x="393.92" y="249.79" width="4.21" height="2.78"/><rect class="cls-4" x="375.98" y="256.7" width="4.21" height="2.78"/><rect class="cls-4" x="393.92" y="256.7" width="4.21" height="2.78"/><rect class="cls-4" x="375.98" y="263.96" width="4.21" height="2.78"/><rect class="cls-4" x="393.92" y="263.96" width="4.21" height="2.78"/><rect class="cls-4" x="375.98" y="270.87" width="4.21" height="2.78"/><rect class="cls-4" x="393.92" y="270.87" width="4.21" height="2.78"/><rect class="cls-4" x="375.98" y="277.77" width="4.21" height="2.78"/><rect class="cls-4" x="393.92" y="277.77" width="4.21" height="2.78"/><rect class="cls-4" x="375.98" y="284.68" width="4.21" height="2.78"/><rect class="cls-4" x="393.92" y="284.68" width="4.21" height="2.78"/><rect class="cls-4" x="375.98" y="291.59" width="4.21" height="2.78"/><rect class="cls-4" x="393.92" y="291.59" width="4.21" height="2.78"/><rect class="cls-4" x="375.98" y="298.49" width="4.21" height="2.78"/><rect class="cls-4" x="393.92" y="298.49" width="4.21" height="2.78"/><rect class="cls-4" x="375.98" y="305.4" width="4.21" height="2.78"/><rect class="cls-4" x="393.92" y="305.4" width="4.21" height="2.78"/><rect class="cls-4" x="375.98" y="312.66" width="4.21" height="2.78"/><rect class="cls-4" x="393.92" y="312.66" width="4.21" height="2.78"/><rect class="cls-4" x="375.98" y="319.57" width="4.21" height="2.78"/><rect class="cls-4" x="393.92" y="319.57" width="4.21" height="2.78"/><rect class="cls-4" x="375.98" y="326.47" width="4.21" height="2.78"/><rect class="cls-4" x="393.92" y="326.47" width="4.21" height="2.78"/><rect class="cls-4" x="375.98" y="333.38" width="4.21" height="2.78"/><rect class="cls-4" x="393.92" y="333.38" width="4.21" height="2.78"/><rect class="cls-4" x="375.98" y="340.29" width="4.21" height="2.78"/><rect class="cls-4" x="393.92" y="340.29" width="4.21" height="2.78"/></g><rect class="cls-5" x="380.18" y="202.71" width="13.73" height="146.1" rx=".22" ry=".22"/></g><g><g><rect class="cls-1" x="686.84" y="45.24" width="56.59" height="5.57" rx=".2" ry=".2" transform="translate(667.1 763.16) rotate(-90)"/><rect class="cls-1" x="679.8" y="45.24" width="56.59" height="5.57" rx=".2" ry=".2" transform="translate(660.07 756.12) rotate(-90)"/><rect class="cls-1" x="672.77" y="45.24" width="56.59" height="5.57" rx=".2" ry=".2" transform="translate(653.03 749.09) rotate(-90)"/><rect class="cls-1" x="665.73" y="45.24" width="56.59" height="5.57" rx=".2" ry=".2" transform="translate(645.99 742.05) rotate(-90)"/><rect class="cls-1" x="658.69" y="45.24" width="56.59" height="5.57" rx=".2" ry=".2" transform="translate(638.96 735.01) rotate(-90)"/><rect class="cls-1" x="651.66" y="45.24" width="56.59" height="5.57" rx=".2" ry=".2" transform="translate(631.92 727.98) rotate(-90)"/><rect class="cls-1" x="644.62" y="45.24" width="56.59" height="5.57" rx=".2" ry=".2" transform="translate(624.89 720.94) rotate(-90)"/><rect class="cls-1" x="637.59" y="45.24" width="56.59" height="5.57" rx=".2" ry=".2" transform="translate(617.85 713.91) rotate(-90)"/><rect class="cls-1" x="630.55" y="45.24" width="56.59" height="5.57" rx=".2" ry=".2" transform="translate(610.82 706.87) rotate(-90)"/><rect class="cls-1" x="623.52" y="45.24" width="56.59" height="5.57" rx=".2" ry=".2" transform="translate(603.78 699.84) rotate(-90)"/><rect class="cls-1" x="616.48" y="45.24" width="56.59" height="5.57" rx=".2" ry=".2" transform="translate(596.75 692.8) rotate(-90)"/><rect class="cls-1" x="609.45" y="45.24" width="56.59" height="5.57" rx=".2" ry=".2" transform="translate(589.71 685.77) rotate(-90)"/><rect class="cls-1" x="602.41" y="45.24" width="56.59" height="5.57" rx=".2" ry=".2" transform="translate(582.68 678.73) rotate(-90)"/><rect class="cls-1" x="595.37" y="45.24" width="56.59" height="5.57" rx=".2" ry=".2" transform="translate(575.64 671.7) rotate(-90)"/><rect class="cls-1" x="588.34" y="45.24" width="56.59" height="5.57" rx=".2" ry=".2" transform="translate(568.6 664.66) rotate(-90)"/><rect class="cls-1" x="581.3" y="45.24" width="56.59" height="5.57" rx=".2" ry=".2" transform="translate(561.57 657.62) rotate(-90)"/><rect class="cls-1" x="574.27" y="45.24" width="56.59" height="5.57" rx=".2" ry=".2" transform="translate(554.53 650.59) rotate(-90)"/><rect class="cls-1" x="567.23" y="45.24" width="56.59" height="5.57" rx=".2" ry=".2" transform="translate(547.5 643.55) rotate(-90)"/><rect class="cls-1" x="560.2" y="45.24" width="56.59" height="5.57" rx=".2" ry=".2" transform="translate(540.46 636.52) rotate(-90)"/><rect class="cls-1" x="553.16" y="45.24" width="56.59" height="5.57" rx=".2" ry=".2" transform="translate(533.43 629.48) rotate(-90)"/><rect class="cls-1" x="536.82" y="39.77" width="56.59" height="16.51" rx=".15" ry=".15" transform="translate(517.09 613.14) rotate(-90)"/><rect class="cls-1" x="704.72" y="39.77" width="56.59" height="16.51" rx=".15" ry=".15" transform="translate(684.98 781.04) rotate(-90)"/></g><rect class="cls-5" x="630.67" y="-42.8" width="36.6" height="182.72" rx=".19" ry=".19" transform="translate(600.41 697.52) rotate(-90)"/><path class="cls-9" d="M723.13,37.44h-148.68v-.98h-10.92v7.42c1.58,1,2.68,2.68,2.68,4.68s-1.11,3.68-2.68,4.68v7.68h11.21v-1.34h148.12v1.34h9.81v-7.53c-1.7-.97-2.9-2.73-2.9-4.83s1.2-3.86,2.9-4.83v-7.53h-9.54v1.25Z"/><g><rect class="cls-11" x="566.26" y="46.79" width="32.13" height="2.78" rx=".14" ry=".14" transform="translate(534.14 630.51) rotate(-90)"/><rect class="cls-11" x="573.52" y="46.79" width="32.13" height="2.78" rx=".14" ry=".14" transform="translate(541.4 637.77) rotate(-90)"/><rect class="cls-11" x="580.43" y="46.79" width="32.13" height="2.78" rx=".14" ry=".14" transform="translate(548.31 644.68) rotate(-90)"/><rect class="cls-11" x="587.33" y="46.79" width="32.13" height="2.78" rx=".14" ry=".14" transform="translate(555.21 651.58) rotate(-90)"/><rect class="cls-11" x="594.24" y="46.79" width="32.13" height="2.78" rx=".14" ry=".14" transform="translate(562.12 658.49) rotate(-90)"/><rect class="cls-11" x="601.15" y="46.79" width="32.13" height="2.78" rx=".14" ry=".14" transform="translate(569.03 665.39) rotate(-90)"/><rect class="cls-11" x="608.05" y="46.79" width="32.13" height="2.78" rx=".14" ry=".14" transform="translate(575.93 672.3) rotate(-90)"/><rect class="cls-11" x="614.96" y="46.79" width="32.13" height="2.78" rx=".14" ry=".14" transform="translate(582.84 679.21) rotate(-90)"/><rect class="cls-11" x="622.22" y="46.79" width="32.13" height="2.78" rx=".14" ry=".14" transform="translate(590.1 686.47) rotate(-90)"/><rect class="cls-11" x="629.13" y="46.79" width="32.13" height="2.78" rx=".14" ry=".14" transform="translate(597.01 693.37) rotate(-90)"/><rect class="cls-11" x="636.03" y="46.79" width="32.13" height="2.78" rx=".14" ry=".14" transform="translate(603.91 700.28) rotate(-90)"/><rect class="cls-11" x="642.94" y="46.79" width="32.13" height="2.78" rx=".14" ry=".14" transform="translate(610.82 707.19) rotate(-90)"/><rect class="cls-11" x="649.85" y="46.79" width="32.13" height="2.78" rx=".14" ry=".14" transform="translate(617.73 714.09) rotate(-90)"/><rect class="cls-11" x="656.75" y="46.79" width="32.13" height="2.78" rx=".14" ry=".14" transform="translate(624.63 721) rotate(-90)"/><rect class="cls-11" x="663.66" y="46.79" width="32.13" height="2.78" rx=".14" ry=".14" transform="translate(631.54 727.91) rotate(-90)"/><rect class="cls-11" x="670.92" y="46.79" width="32.13" height="2.78" rx=".14" ry=".14" transform="translate(638.8 735.17) rotate(-90)"/><rect class="cls-11" x="677.83" y="46.79" width="32.13" height="2.78" rx=".14" ry=".14" transform="translate(645.71 742.07) rotate(-90)"/><rect class="cls-11" x="684.73" y="46.79" width="32.13" height="2.78" rx=".14" ry=".14" transform="translate(652.61 748.98) rotate(-90)"/><rect class="cls-11" x="691.64" y="46.79" width="32.13" height="2.78" rx=".14" ry=".14" transform="translate(659.52 755.89) rotate(-90)"/><rect class="cls-11" x="698.55" y="46.79" width="32.13" height="2.78" rx=".14" ry=".14" transform="translate(666.43 762.79) rotate(-90)"/><rect class="cls-4" x="580.22" y="56.09" width="4.21" height="2.78" transform="translate(524.84 639.8) rotate(-90)"/><rect class="cls-4" x="580.22" y="38.15" width="4.21" height="2.78" transform="translate(542.78 621.86) rotate(-90)"/><rect class="cls-4" x="587.48" y="56.09" width="4.21" height="2.78" transform="translate(532.11 647.06) rotate(-90)"/><rect class="cls-4" x="587.48" y="38.15" width="4.21" height="2.78" transform="translate(550.05 629.12) rotate(-90)"/><rect class="cls-4" x="594.39" y="56.09" width="4.21" height="2.78" transform="translate(539.01 653.97) rotate(-90)"/><rect class="cls-4" x="594.39" y="38.15" width="4.21" height="2.78" transform="translate(556.95 636.03) rotate(-90)"/><rect class="cls-4" x="601.29" y="56.09" width="4.21" height="2.78" transform="translate(545.92 660.88) rotate(-90)"/><rect class="cls-4" x="601.29" y="38.15" width="4.21" height="2.78" transform="translate(563.86 642.94) rotate(-90)"/><rect class="cls-4" x="608.2" y="56.09" width="4.21" height="2.78" transform="translate(552.82 667.78) rotate(-90)"/><rect class="cls-4" x="608.2" y="38.15" width="4.21" height="2.78" transform="translate(570.77 649.84) rotate(-90)"/><rect class="cls-4" x="615.11" y="56.09" width="4.21" height="2.78" transform="translate(559.73 674.69) rotate(-90)"/><rect class="cls-4" x="615.11" y="38.15" width="4.21" height="2.78" transform="translate(577.67 656.75) rotate(-90)"/><rect class="cls-4" x="622.01" y="56.09" width="4.21" height="2.78" transform="translate(566.64 681.6) rotate(-90)"/><rect class="cls-4" x="622.01" y="38.15" width="4.21" height="2.78" transform="translate(584.58 663.65) rotate(-90)"/><rect class="cls-4" x="628.92" y="56.09" width="4.21" height="2.78" transform="translate(573.54 688.5) rotate(-90)"/><rect class="cls-4" x="628.92" y="38.15" width="4.21" height="2.78" transform="translate(591.48 670.56) rotate(-90)"/><rect class="cls-4" x="636.18" y="56.09" width="4.21" height="2.78" transform="translate(580.81 695.76) rotate(-90)"/><rect class="cls-4" x="636.18" y="38.15" width="4.21" height="2.78" transform="translate(598.75 677.82) rotate(-90)"/><rect class="cls-4" x="643.09" y="56.09" width="4.21" height="2.78" transform="translate(587.71 702.67) rotate(-90)"/><rect class="cls-4" x="643.09" y="38.15" width="4.21" height="2.78" transform="translate(605.65 684.73) rotate(-90)"/><rect class="cls-4" x="649.99" y="56.09" width="4.21" height="2.78" transform="translate(594.62 709.58) rotate(-90)"/><rect class="cls-4" x="649.99" y="38.15" width="4.21" height="2.78" transform="translate(612.56 691.64) rotate(-90)"/><rect class="cls-4" x="656.9" y="56.09" width="4.21" height="2.78" transform="translate(601.52 716.48) rotate(-90)"/><rect class="cls-4" x="656.9" y="38.15" width="4.21" height="2.78" transform="translate(619.47 698.54) rotate(-90)"/><rect class="cls-4" x="663.81" y="56.09" width="4.21" height="2.78" transform="translate(608.43 723.39) rotate(-90)"/><rect class="cls-4" x="663.81" y="38.15" width="4.21" height="2.78" transform="translate(626.37 705.45) rotate(-90)"/><rect class="cls-4" x="670.71" y="56.09" width="4.21" height="2.78" transform="translate(615.34 730.3) rotate(-90)"/><rect class="cls-4" x="670.71" y="38.15" width="4.21" height="2.78" transform="translate(633.28 712.35) rotate(-90)"/><rect class="cls-4" x="677.62" y="56.09" width="4.21" height="2.78" transform="translate(622.24 737.2) rotate(-90)"/><rect class="cls-4" x="677.62" y="38.15" width="4.21" height="2.78" transform="translate(640.18 719.26) rotate(-90)"/><rect class="cls-4" x="684.88" y="56.09" width="4.21" height="2.78" transform="translate(629.51 744.46) rotate(-90)"/><rect class="cls-4" x="684.88" y="38.15" width="4.21" height="2.78" transform="translate(647.45 726.52) rotate(-90)"/><rect class="cls-4" x="691.79" y="56.09" width="4.21" height="2.78" transform="translate(636.41 751.37) rotate(-90)"/><rect class="cls-4" x="691.79" y="38.15" width="4.21" height="2.78" transform="translate(654.35 733.43) rotate(-90)"/><rect class="cls-4" x="698.69" y="56.09" width="4.21" height="2.78" transform="translate(643.32 758.28) rotate(-90)"/><rect class="cls-4" x="698.69" y="38.15" width="4.21" height="2.78" transform="translate(661.26 740.33) rotate(-90)"/><rect class="cls-4" x="705.6" y="56.09" width="4.21" height="2.78" transform="translate(650.22 765.18) rotate(-90)"/><rect class="cls-4" x="705.6" y="38.15" width="4.21" height="2.78" transform="translate(668.17 747.24) rotate(-90)"/><rect class="cls-4" x="712.51" y="56.09" width="4.21" height="2.78" transform="translate(657.13 772.09) rotate(-90)"/><rect class="cls-4" x="712.51" y="38.15" width="4.21" height="2.78" transform="translate(675.07 754.15) rotate(-90)"/></g><rect class="cls-5" x="641.83" y="-24.54" width="13.73" height="146.1" rx=".22" ry=".22" transform="translate(600.19 697.21) rotate(-90)"/></g><g><path class="cls-8" d="M856.62,219.52v5.07c0,1.75-1.1,3.17-2.45,3.17h-24.04c-1.35,0-2.45-1.42-2.45-3.17v-5.07c0-1.75,1.1-3.17,2.45-3.17h24.04c1.36,0,2.45,1.42,2.45,3.17"/><path class="cls-6" d="M853.55,219.1v5.91c0,1.52-.95,2.74-2.13,2.74h-17.49c-1.17,0-2.13-1.23-2.13-2.74v-5.91c0-1.52,.95-2.74,2.13-2.74h17.49c1.17,0,2.13,1.23,2.13,2.74"/><path class="cls-10" d="M852.08,217.62v8.86c0,1.02-.64,1.85-1.43,1.85h-16.26c-.79,0-1.43-.83-1.43-1.85v-8.86c0-1.02,.64-1.85,1.43-1.85h16.26c.79,0,1.43,.83,1.43,1.85"/><rect class="cls-2" x="836.67" y="215.77" width="11" height="12.56"/></g></g></g><g id="Layer_13"><g><rect class="cls-7" x="234.35" y="47.98" width="397.61" height="3"/><polygon class="cls-7" points="629.55 41.26 643.8 49.48 629.55 57.71 629.55 41.26"/></g><g><path class="cls-7" d="M42.31,41.15h2.14l2.58,10.61c.27,1.09,.62,2.76,.62,2.76h.05s.39-1.73,.68-2.81l2.94-10.56h2.21l2.85,10.56c.3,1.1,.66,2.81,.66,2.81h.05s.39-1.76,.64-2.76l2.71-10.61h2.08l-4.54,16.31h-1.96l-2.99-11.5c-.25-.96-.59-2.49-.59-2.49h-.05s-.34,1.53-.62,2.49l-3.19,11.5h-2.05l-4.22-16.31Z"/><path class="cls-7" d="M64.09,41.15h1.85v2.28h-1.85v-2.28Zm0,4.52h1.85v11.79h-1.85v-11.79Z"/><path class="cls-7" d="M67.69,53.63h1.89c.25,2.05,1.62,2.62,3.38,2.62,1.94,0,2.74-.84,2.74-1.94,0-1.32-.91-1.67-3.08-2.12-2.33-.48-4.4-.96-4.4-3.54,0-1.96,1.51-3.24,4.24-3.24,2.92,0,4.36,1.39,4.63,3.7h-1.89c-.18-1.55-1.03-2.24-2.78-2.24s-2.37,.75-2.37,1.69c0,1.28,1.14,1.53,3.17,1.94,2.37,.48,4.36,1,4.36,3.72,0,2.37-1.94,3.58-4.65,3.58-3.24,0-5.04-1.53-5.22-4.17Z"/><path class="cls-7" d="M79.62,41.15h6.91c1.71,0,3.01,.46,3.92,1.41,.66,.68,1.05,1.62,1.05,2.78,0,1.8-1,2.92-2.62,3.42v.07c1.85,.43,3.29,1.76,3.29,3.95,0,1.25-.43,2.33-1.19,3.13-.91,.98-2.33,1.55-4.08,1.55h-7.28v-16.31Zm6.66,6.98c1.98,0,3.17-.98,3.17-2.67,0-1.57-1.07-2.53-2.9-2.53h-4.88v5.2h4.61Zm.52,7.48c1.16,0,2.01-.3,2.56-.82,.46-.48,.73-1.12,.73-1.89,0-2.03-1.44-3.03-3.42-3.03h-5v5.75h5.13Z"/><path class="cls-7" d="M94.1,41.15h1.85v16.31h-1.85v-16.31Z"/><path class="cls-7" d="M97.86,51.58c0-3.42,2.19-6.2,5.7-6.2s5.68,2.78,5.68,6.2-2.14,6.21-5.68,6.21-5.7-2.78-5.7-6.21Zm9.49,0c0-2.6-1.28-4.68-3.79-4.68s-3.81,2.08-3.81,4.68,1.3,4.65,3.81,4.65,3.79-2.05,3.79-4.65Z"/><path class="cls-7" d="M110.43,51.58c0-3.42,2.19-6.2,5.7-6.2,2.78,0,4.63,1.6,5.04,4.11h-1.87c-.27-1.6-1.39-2.58-3.17-2.58-2.51,0-3.81,2.08-3.81,4.68s1.3,4.65,3.81,4.65c1.92,0,3.06-1.1,3.22-2.92h1.83c-.25,2.83-2.1,4.47-5.04,4.47-3.51,0-5.7-2.78-5.7-6.21Z"/><path class="cls-7" d="M126.51,51.1l-1.73,1.64v4.72h-1.85v-16.31h1.85v9.56l5.18-5.04h2.35l-4.52,4.24,5.06,7.55h-2.17l-4.17-6.36Z"/><path class="cls-7" d="M137.36,49.3c0-4.79,2.88-8.51,7.73-8.51,3.81,0,6.11,2.19,6.55,5.2h-2.01c-.39-2.03-2.01-3.42-4.59-3.42-3.58,0-5.59,2.9-5.59,6.73s2.21,6.68,5.61,6.68c3.08,0,4.54-2.1,4.75-4.49h2.03c-.02,1.62-.8,3.44-1.96,4.58-1.14,1.12-2.81,1.71-4.88,1.71-4.63,0-7.64-3.54-7.64-8.49Z"/><path class="cls-7" d="M153.21,51.58c0-3.42,2.19-6.2,5.7-6.2s5.68,2.78,5.68,6.2-2.14,6.21-5.68,6.21-5.7-2.78-5.7-6.21Zm9.49,0c0-2.6-1.28-4.68-3.79-4.68s-3.81,2.08-3.81,4.68,1.3,4.65,3.81,4.65,3.79-2.05,3.79-4.65Z"/><path class="cls-7" d="M168.29,47.63h.05c.71-1.14,1.94-2.1,3.51-2.1,.34,0,.52,.05,.75,.14v1.78h-.07c-.27-.09-.46-.11-.82-.11-1.83,0-3.42,1.37-3.42,3.58v6.55h-1.85v-11.79h1.85v1.96Z"/><path class="cls-7" d="M173.15,51.58c0-3.42,2.24-6.2,5.59-6.2,3.54,0,5.43,2.74,5.43,6.64h-9.12c.14,2.4,1.44,4.22,3.81,4.22,1.71,0,2.85-.82,3.26-2.42h1.8c-.55,2.53-2.4,3.97-5.06,3.97-3.6,0-5.7-2.78-5.7-6.21Zm1.94-.96h7.09c-.11-2.35-1.32-3.79-3.45-3.79s-3.38,1.64-3.65,3.79Z"/><path class="cls-7" d="M188.84,51.94h2.01c.27,2.76,1.96,4.2,5.04,4.2,2.26,0,3.88-1.03,3.88-3.06,0-2.24-1.96-2.76-4.88-3.4-2.87-.64-5.34-1.46-5.34-4.54,0-2.69,2.24-4.31,5.54-4.31,4.08,0,5.77,2.08,6.18,5.09h-1.94c-.3-2.33-1.8-3.49-4.2-3.49-2.21,0-3.67,.94-3.67,2.62,0,1.85,1.83,2.4,4.27,2.88,3.17,.64,6.07,1.41,6.07,5.09,0,3.06-2.49,4.77-6,4.77-4.59,0-6.78-2.55-6.96-5.84Z"/><path class="cls-7" d="M203.93,41.15h1.85v16.31h-1.85v-16.31Z"/><path class="cls-7" d="M207.7,51.58c0-3.42,2.19-6.2,5.7-6.2s5.68,2.78,5.68,6.2-2.14,6.21-5.68,6.21-5.7-2.78-5.7-6.21Zm9.49,0c0-2.6-1.28-4.68-3.79-4.68s-3.81,2.08-3.81,4.68,1.3,4.65,3.81,4.65,3.79-2.05,3.79-4.65Z"/><path class="cls-7" d="M219.94,45.67h1.71v-3.72h1.85v3.72h2.28v1.51h-2.28v7.67c0,.82,.43,1.09,1.19,1.09,.36,0,.78-.09,.98-.16h.07v1.6c-.43,.09-.94,.16-1.48,.16-1.51,0-2.6-.62-2.6-2.28v-8.08h-1.71v-1.51Z"/></g><g><rect class="cls-7" x="234.35" y="141" width="604.29" height="3"/><polygon class="cls-7" points="836.23 134.27 850.48 142.5 836.23 150.73 836.23 134.27"/></g><g><path class="cls-7" d="M127.41,145.42v-.23h2.03v.16c0,2.9,.91,3.76,2.83,3.76,1.64,0,2.6-.84,2.6-2.9v-12.04h2.05v12.18c0,2.6-1.57,4.45-4.72,4.45-2.94,0-4.79-1.6-4.79-5.38Z"/><path class="cls-7" d="M138.65,145.33h1.89c.07,2.51,1.69,3.9,4.27,3.9,2.17,0,3.7-1.07,3.7-3.29,0-1.98-1.48-3.03-4.11-3.03h-.98v-1.48h.96c2.44,0,3.67-1.03,3.67-2.69s-1.53-2.74-3.4-2.74c-2.26,0-3.6,1.46-3.6,3.63h-1.87c.02-3.08,2.1-5.13,5.54-5.13,2.9,0,5.2,1.57,5.2,4.29,0,1.76-1.07,2.78-2.58,3.28v.07c2.19,.57,3.15,1.96,3.15,3.99,0,2.99-2.44,4.7-5.61,4.7-3.45,0-6.16-1.94-6.23-5.5Z"/><path class="cls-7" d="M156.37,134.17h2.05v6.93h8.71v-6.93h2.05v16.31h-2.05v-7.71h-8.71v7.71h-2.05v-16.31Z"/><path class="cls-7" d="M171.31,144.59c0-3.42,2.24-6.2,5.59-6.2,3.54,0,5.43,2.74,5.43,6.64h-9.12c.14,2.4,1.44,4.22,3.81,4.22,1.71,0,2.85-.82,3.26-2.42h1.8c-.55,2.53-2.4,3.97-5.06,3.97-3.6,0-5.7-2.78-5.7-6.21Zm1.94-.96h7.09c-.11-2.35-1.32-3.79-3.45-3.79s-3.38,1.64-3.65,3.79Z"/><path class="cls-7" d="M191.36,148.84h-.02c-.71,.91-1.92,1.87-3.92,1.87-2.24,0-3.99-1.05-3.99-3.29,0-2.78,2.19-3.35,5.13-3.81,1.67-.25,2.83-.41,2.83-1.69s-.96-2.08-2.65-2.08c-1.92,0-2.87,.82-2.94,2.6h-1.78c.07-2.28,1.57-3.99,4.7-3.99,2.51,0,4.36,.93,4.36,3.74v5.61c0,.96,.23,1.48,1.25,1.25h.07v1.35c-.23,.09-.52,.18-1,.18-1.21,0-1.85-.55-2.03-1.76Zm.04-2.71v-2.01c-.62,.39-1.69,.68-2.69,.87-1.85,.34-3.33,.66-3.33,2.4,0,1.57,1.23,1.92,2.44,1.92,2.46,0,3.58-1.8,3.58-3.17Z"/><path class="cls-7" d="M195.1,144.62c0-3.92,2.26-6.21,5.18-6.21,1.67,0,2.94,.82,3.7,1.94h.05v-6.18h1.85v16.31h-1.85v-1.44h-.05c-.89,1.14-1.98,1.78-3.65,1.78-3.22,0-5.22-2.42-5.22-6.2Zm9.03,.02c0-2.74-1.32-4.65-3.76-4.65-2.24,0-3.38,2.01-3.38,4.65s1.14,4.63,3.4,4.63c2.62,0,3.74-1.96,3.74-4.63Z"/><path class="cls-7" d="M207.71,144.59c0-3.42,2.24-6.2,5.59-6.2,3.54,0,5.43,2.74,5.43,6.64h-9.12c.14,2.4,1.44,4.22,3.81,4.22,1.71,0,2.85-.82,3.26-2.42h1.8c-.55,2.53-2.4,3.97-5.06,3.97-3.6,0-5.7-2.78-5.7-6.21Zm1.94-.96h7.09c-.11-2.35-1.32-3.79-3.45-3.79s-3.38,1.64-3.65,3.79Z"/><path class="cls-7" d="M222.37,140.65h.05c.71-1.14,1.94-2.1,3.51-2.1,.34,0,.52,.05,.75,.14v1.78h-.07c-.27-.09-.46-.11-.82-.11-1.83,0-3.42,1.37-3.42,3.58v6.55h-1.85v-11.79h1.85v1.96Z"/></g><g><rect class="cls-7" x="234.35" y="141" width="604.29" height="3"/><polygon class="cls-7" points="836.23 134.27 850.48 142.5 836.23 150.73 836.23 134.27"/></g><g><path class="cls-7" d="M127.41,145.42v-.23h2.03v.16c0,2.9,.91,3.76,2.83,3.76,1.64,0,2.6-.84,2.6-2.9v-12.04h2.05v12.18c0,2.6-1.57,4.45-4.72,4.45-2.94,0-4.79-1.6-4.79-5.38Z"/><path class="cls-7" d="M138.65,145.33h1.89c.07,2.51,1.69,3.9,4.27,3.9,2.17,0,3.7-1.07,3.7-3.29,0-1.98-1.48-3.03-4.11-3.03h-.98v-1.48h.96c2.44,0,3.67-1.03,3.67-2.69s-1.53-2.74-3.4-2.74c-2.26,0-3.6,1.46-3.6,3.63h-1.87c.02-3.08,2.1-5.13,5.54-5.13,2.9,0,5.2,1.57,5.2,4.29,0,1.76-1.07,2.78-2.58,3.28v.07c2.19,.57,3.15,1.96,3.15,3.99,0,2.99-2.44,4.7-5.61,4.7-3.45,0-6.16-1.94-6.23-5.5Z"/><path class="cls-7" d="M156.37,134.17h2.05v6.93h8.71v-6.93h2.05v16.31h-2.05v-7.71h-8.71v7.71h-2.05v-16.31Z"/><path class="cls-7" d="M171.31,144.59c0-3.42,2.24-6.2,5.59-6.2,3.54,0,5.43,2.74,5.43,6.64h-9.12c.14,2.4,1.44,4.22,3.81,4.22,1.71,0,2.85-.82,3.26-2.42h1.8c-.55,2.53-2.4,3.97-5.06,3.97-3.6,0-5.7-2.78-5.7-6.21Zm1.94-.96h7.09c-.11-2.35-1.32-3.79-3.45-3.79s-3.38,1.64-3.65,3.79Z"/><path class="cls-7" d="M191.36,148.84h-.02c-.71,.91-1.92,1.87-3.92,1.87-2.24,0-3.99-1.05-3.99-3.29,0-2.78,2.19-3.35,5.13-3.81,1.67-.25,2.83-.41,2.83-1.69s-.96-2.08-2.65-2.08c-1.92,0-2.87,.82-2.94,2.6h-1.78c.07-2.28,1.57-3.99,4.7-3.99,2.51,0,4.36,.93,4.36,3.74v5.61c0,.96,.23,1.48,1.25,1.25h.07v1.35c-.23,.09-.52,.18-1,.18-1.21,0-1.85-.55-2.03-1.76Zm.04-2.71v-2.01c-.62,.39-1.69,.68-2.69,.87-1.85,.34-3.33,.66-3.33,2.4,0,1.57,1.23,1.92,2.44,1.92,2.46,0,3.58-1.8,3.58-3.17Z"/><path class="cls-7" d="M195.1,144.62c0-3.92,2.26-6.21,5.18-6.21,1.67,0,2.94,.82,3.7,1.94h.05v-6.18h1.85v16.31h-1.85v-1.44h-.05c-.89,1.14-1.98,1.78-3.65,1.78-3.22,0-5.22-2.42-5.22-6.2Zm9.03,.02c0-2.74-1.32-4.65-3.76-4.65-2.24,0-3.38,2.01-3.38,4.65s1.14,4.63,3.4,4.63c2.62,0,3.74-1.96,3.74-4.63Z"/><path class="cls-7" d="M207.71,144.59c0-3.42,2.24-6.2,5.59-6.2,3.54,0,5.43,2.74,5.43,6.64h-9.12c.14,2.4,1.44,4.22,3.81,4.22,1.71,0,2.85-.82,3.26-2.42h1.8c-.55,2.53-2.4,3.97-5.06,3.97-3.6,0-5.7-2.78-5.7-6.21Zm1.94-.96h7.09c-.11-2.35-1.32-3.79-3.45-3.79s-3.38,1.64-3.65,3.79Z"/><path class="cls-7" d="M222.37,140.65h.05c.71-1.14,1.94-2.1,3.51-2.1,.34,0,.52,.05,.75,.14v1.78h-.07c-.27-.09-.46-.11-.82-.11-1.83,0-3.42,1.37-3.42,3.58v6.55h-1.85v-11.79h1.85v1.96Z"/></g><g><rect class="cls-7" x="234.35" y="394.68" width="604.29" height="3"/><polygon class="cls-7" points="836.23 387.95 850.48 396.18 836.23 404.4 836.23 387.95"/></g><g><path class="cls-7" d="M127.41,399.09v-.23h2.03v.16c0,2.9,.91,3.76,2.83,3.76,1.64,0,2.6-.84,2.6-2.9v-12.04h2.05v12.18c0,2.6-1.57,4.45-4.72,4.45-2.94,0-4.79-1.6-4.79-5.38Z"/><path class="cls-7" d="M146.2,400.32h-7.37v-1.71l7.73-10.24h1.51v10.43h2.58v1.53h-2.58v3.83h-1.87v-3.83Zm-5.52-1.53h5.52v-7.32h-.04l-5.48,7.25v.07Z"/><path class="cls-7" d="M156.3,387.85h2.05v6.93h8.71v-6.93h2.05v16.31h-2.05v-7.71h-8.71v7.71h-2.05v-16.31Z"/><path class="cls-7" d="M171.24,398.27c0-3.42,2.24-6.2,5.59-6.2,3.54,0,5.43,2.74,5.43,6.64h-9.12c.14,2.4,1.44,4.22,3.81,4.22,1.71,0,2.85-.82,3.26-2.42h1.8c-.55,2.53-2.4,3.97-5.06,3.97-3.6,0-5.7-2.78-5.7-6.21Zm1.94-.96h7.09c-.11-2.35-1.32-3.79-3.45-3.79s-3.38,1.64-3.65,3.79Z"/><path class="cls-7" d="M191.29,402.51h-.02c-.71,.91-1.92,1.87-3.92,1.87-2.24,0-3.99-1.05-3.99-3.29,0-2.78,2.19-3.35,5.13-3.81,1.67-.25,2.83-.41,2.83-1.69s-.96-2.08-2.65-2.08c-1.92,0-2.87,.82-2.94,2.6h-1.78c.07-2.28,1.57-3.99,4.7-3.99,2.51,0,4.36,.93,4.36,3.74v5.61c0,.96,.23,1.48,1.25,1.25h.07v1.35c-.23,.09-.52,.18-1,.18-1.21,0-1.85-.55-2.03-1.76Zm.04-2.71v-2.01c-.62,.39-1.69,.68-2.69,.87-1.85,.34-3.33,.66-3.33,2.4,0,1.57,1.23,1.92,2.44,1.92,2.46,0,3.58-1.8,3.58-3.17Z"/><path class="cls-7" d="M195.03,398.29c0-3.92,2.26-6.21,5.18-6.21,1.67,0,2.94,.82,3.7,1.94h.05v-6.18h1.85v16.31h-1.85v-1.44h-.05c-.89,1.14-1.98,1.78-3.65,1.78-3.22,0-5.22-2.42-5.22-6.2Zm9.03,.02c0-2.74-1.32-4.65-3.76-4.65-2.24,0-3.38,2.01-3.38,4.65s1.14,4.63,3.4,4.63c2.62,0,3.74-1.96,3.74-4.63Z"/><path class="cls-7" d="M207.64,398.27c0-3.42,2.24-6.2,5.59-6.2,3.54,0,5.43,2.74,5.43,6.64h-9.12c.14,2.4,1.44,4.22,3.81,4.22,1.71,0,2.85-.82,3.26-2.42h1.8c-.55,2.53-2.4,3.97-5.06,3.97-3.6,0-5.7-2.78-5.7-6.21Zm1.94-.96h7.09c-.11-2.35-1.32-3.79-3.45-3.79s-3.38,1.64-3.65,3.79Z"/><path class="cls-7" d="M222.3,394.32h.05c.71-1.14,1.94-2.1,3.51-2.1,.34,0,.52,.05,.75,.14v1.78h-.07c-.27-.09-.46-.11-.82-.11-1.83,0-3.42,1.37-3.42,3.58v6.55h-1.85v-11.79h1.85v1.96Z"/></g><g><rect class="cls-7" x="234.35" y="272.32" width="140.81" height="3"/><polygon class="cls-7" points="372.76 265.59 387 273.82 372.76 282.05 372.76 265.59"/></g><g><path class="cls-7" d="M29.41,265.49h2.14l2.58,10.61c.27,1.09,.62,2.76,.62,2.76h.05s.39-1.73,.68-2.81l2.94-10.56h2.21l2.85,10.56c.3,1.1,.66,2.81,.66,2.81h.05s.39-1.76,.64-2.76l2.71-10.61h2.08l-4.54,16.31h-1.96l-2.99-11.5c-.25-.96-.59-2.49-.59-2.49h-.05s-.34,1.53-.62,2.49l-3.19,11.5h-2.05l-4.22-16.31Z"/><path class="cls-7" d="M51.19,265.49h1.85v2.28h-1.85v-2.28Zm0,4.52h1.85v11.79h-1.85v-11.79Z"/><path class="cls-7" d="M54.79,277.96h1.89c.25,2.05,1.62,2.62,3.38,2.62,1.94,0,2.74-.84,2.74-1.94,0-1.32-.91-1.67-3.08-2.12-2.33-.48-4.4-.96-4.4-3.54,0-1.96,1.51-3.24,4.24-3.24,2.92,0,4.36,1.39,4.63,3.7h-1.89c-.18-1.55-1.03-2.24-2.78-2.24s-2.37,.75-2.37,1.69c0,1.28,1.14,1.53,3.17,1.94,2.37,.48,4.36,1,4.36,3.72,0,2.37-1.94,3.58-4.65,3.58-3.24,0-5.04-1.53-5.22-4.17Z"/><path class="cls-7" d="M66.72,265.49h6.91c1.71,0,3.01,.46,3.92,1.41,.66,.68,1.05,1.62,1.05,2.78,0,1.8-1,2.92-2.62,3.42v.07c1.85,.43,3.29,1.76,3.29,3.95,0,1.25-.43,2.33-1.19,3.13-.91,.98-2.33,1.55-4.08,1.55h-7.28v-16.31Zm6.66,6.98c1.98,0,3.17-.98,3.17-2.67,0-1.57-1.07-2.53-2.9-2.53h-4.88v5.2h4.61Zm.52,7.48c1.16,0,2.01-.3,2.56-.82,.46-.48,.73-1.12,.73-1.89,0-2.03-1.44-3.03-3.42-3.03h-5v5.75h5.13Z"/><path class="cls-7" d="M81.2,265.49h1.85v16.31h-1.85v-16.31Z"/><path class="cls-7" d="M84.97,275.91c0-3.42,2.19-6.2,5.7-6.2s5.68,2.78,5.68,6.2-2.14,6.21-5.68,6.21-5.7-2.78-5.7-6.21Zm9.49,0c0-2.6-1.28-4.68-3.79-4.68s-3.81,2.08-3.81,4.68,1.3,4.65,3.81,4.65,3.79-2.05,3.79-4.65Z"/><path class="cls-7" d="M97.53,275.91c0-3.42,2.19-6.2,5.7-6.2,2.78,0,4.63,1.6,5.04,4.11h-1.87c-.27-1.6-1.39-2.58-3.17-2.58-2.51,0-3.81,2.08-3.81,4.68s1.3,4.65,3.81,4.65c1.92,0,3.06-1.1,3.22-2.92h1.83c-.25,2.83-2.1,4.47-5.04,4.47-3.51,0-5.7-2.78-5.7-6.21Z"/><path class="cls-7" d="M113.61,275.43l-1.73,1.64v4.72h-1.85v-16.31h1.85v9.56l5.18-5.04h2.35l-4.52,4.24,5.06,7.55h-2.17l-4.17-6.36Z"/><path class="cls-7" d="M125.08,265.49h6.8c1.71,0,3.03,.57,3.88,1.57,.68,.8,1.1,1.87,1.1,3.1,0,2.99-1.71,4.79-5.27,4.79h-4.45v6.84h-2.05v-16.31Zm2.05,7.8h4.29c2.3,0,3.4-1.16,3.4-3.03s-1.21-2.99-3.29-2.99h-4.4v6.02Z"/><path class="cls-7" d="M137.56,275.91c0-3.42,2.19-6.2,5.7-6.2s5.68,2.78,5.68,6.2-2.14,6.21-5.68,6.21-5.7-2.78-5.7-6.21Zm9.49,0c0-2.6-1.28-4.68-3.79-4.68s-3.81,2.08-3.81,4.68,1.3,4.65,3.81,4.65,3.79-2.05,3.79-4.65Z"/><path class="cls-7" d="M149.39,270h1.99l2.08,7.28c.27,.98,.64,2.53,.64,2.53h.05s.34-1.55,.59-2.49l1.98-7.32h1.94l1.92,7.32c.25,.96,.57,2.49,.57,2.49h.04s.37-1.55,.66-2.53l2.19-7.28h1.92l-3.85,11.79h-1.89l-1.96-7.14c-.27-.98-.57-2.46-.57-2.46h-.05s-.32,1.48-.59,2.46l-1.98,7.14h-1.92l-3.74-11.79Z"/><path class="cls-7" d="M166.41,275.91c0-3.42,2.24-6.2,5.59-6.2,3.54,0,5.43,2.74,5.43,6.64h-9.12c.14,2.4,1.44,4.22,3.81,4.22,1.71,0,2.85-.82,3.26-2.42h1.8c-.55,2.53-2.4,3.97-5.06,3.97-3.6,0-5.7-2.78-5.7-6.21Zm1.94-.96h7.09c-.11-2.35-1.32-3.79-3.45-3.79s-3.38,1.64-3.65,3.79Z"/><path class="cls-7" d="M181.07,271.96h.05c.71-1.14,1.94-2.1,3.51-2.1,.34,0,.52,.05,.75,.14v1.78h-.07c-.27-.09-.46-.11-.82-.11-1.83,0-3.42,1.37-3.42,3.58v6.55h-1.85v-11.79h1.85v1.96Z"/><path class="cls-7" d="M189.92,276.28h2.01c.27,2.76,1.96,4.2,5.04,4.2,2.26,0,3.88-1.03,3.88-3.06,0-2.24-1.96-2.76-4.88-3.4-2.87-.64-5.34-1.46-5.34-4.54,0-2.69,2.24-4.31,5.54-4.31,4.08,0,5.77,2.08,6.18,5.09h-1.94c-.3-2.33-1.8-3.49-4.2-3.49-2.21,0-3.67,.94-3.67,2.62,0,1.85,1.83,2.4,4.27,2.88,3.17,.64,6.07,1.41,6.07,5.09,0,3.06-2.49,4.77-6,4.77-4.59,0-6.78-2.55-6.96-5.84Z"/><path class="cls-7" d="M205.02,265.49h1.85v16.31h-1.85v-16.31Z"/><path class="cls-7" d="M208.78,275.91c0-3.42,2.19-6.2,5.7-6.2s5.68,2.78,5.68,6.2-2.14,6.21-5.68,6.21-5.7-2.78-5.7-6.21Zm9.49,0c0-2.6-1.28-4.68-3.79-4.68s-3.81,2.08-3.81,4.68,1.3,4.65,3.81,4.65,3.79-2.05,3.79-4.65Z"/><path class="cls-7" d="M221.03,270h1.71v-3.72h1.85v3.72h2.28v1.51h-2.28v7.67c0,.82,.43,1.09,1.19,1.09,.36,0,.78-.09,.98-.16h.07v1.6c-.43,.09-.94,.16-1.48,.16-1.51,0-2.6-.62-2.6-2.28v-8.08h-1.71v-1.51Z"/></g></g></svg>