<svg xmlns="http://www.w3.org/2000/svg" viewBox="0 0 46.12143 25.65987"><defs><style>.cls-1{fill:#7f7f7f;}.cls-2{fill:#333;}.cls-3{fill:#b2b2b2;}.cls-4{fill:#fff200;}.cls-5{fill:#ec2024;}.cls-11,.cls-6{fill:#fff;}.cls-7{fill:#242424;}.cls-10,.cls-11,.cls-12,.cls-7,.cls-8,.cls-9{opacity:0.5;}.cls-8{fill:#deaa53;}.cls-10,.cls-12,.cls-9{fill:none;}.cls-10,.cls-12{stroke:#fff;stroke-linecap:round;stroke-miterlimit:10;}.cls-10{stroke-width:0.10103px;}.cls-12{stroke-width:0.18041px;}.cls-13{fill:#e9f3fa;}.cls-14{fill:#414954;}.cls-15{fill:#373940;}.cls-16{fill:#be904b;}</style></defs><g id="Layer_2" data-name="Layer 2"><g id="Layer_1-2" data-name="Layer 1"><rect class="cls-1" x="37.63513" width="2.30233" height="25.65987"/><rect class="cls-1" x="34.73865" width="2.30233" height="25.65987"/><rect class="cls-2" x="33.40181" width="1.33684" height="1.59678" rx="0.22355"/><rect class="cls-2" x="34.99859" width="2.00526" height="1.59678" rx="0.19198"/><rect class="cls-3" x="34.99859" y="2.1538" width="2.00526" height="1.59678" rx="0.19198"/><rect class="cls-3" x="34.99859" y="4.38186" width="2.00526" height="1.59678" rx="0.19198"/><rect class="cls-4" x="34.99859" y="6.60992" width="2.00526" height="1.59678" rx="0.19198"/><path class="cls-3" d="M35.19057,8.72658h1.62129a.192.192,0,0,1,.192.192v1.21281a.192.192,0,0,1-.192.192H35.19057a.192.192,0,0,1-.192-.192V8.91857A.192.192,0,0,1,35.19057,8.72658Z"/><rect class="cls-3" x="34.99859" y="10.88038" width="2.00526" height="1.59678" rx="0.19199"/><path class="cls-5" d="M35.19057,13.07131h1.62129a.192.192,0,0,1,.192.192V14.4761a.192.192,0,0,1-.192.192H35.19057a.192.192,0,0,1-.192-.192V13.26329A.192.192,0,0,1,35.19057,13.07131Z"/><path class="cls-3" d="M35.19057,15.2251h1.62129a.192.192,0,0,1,.192.192V16.6299a.192.192,0,0,1-.192.192H35.19057a.192.192,0,0,1-.192-.192V15.41709A.192.192,0,0,1,35.19057,15.2251Z"/><path class="cls-4" d="M35.19057,17.416h1.62129a.192.192,0,0,1,.192.192v1.21281a.192.192,0,0,1-.192.192H35.19057a.192.192,0,0,1-.192-.192V17.608A.192.192,0,0,1,35.19057,17.416Z"/><rect class="cls-3" x="34.99859" y="19.6441" width="2.00526" height="1.59678" rx="0.19198"/><rect class="cls-3" x="34.99859" y="21.9093" width="2.00526" height="1.59678" rx="0.19198"/><rect class="cls-3" x="34.99859" y="24.06309" width="2.00526" height="1.59678" rx="0.19198"/><rect class="cls-3" x="37.63513" width="2.00526" height="1.59678" rx="0.19198"/><rect class="cls-3" x="37.63513" y="2.1538" width="2.00526" height="1.59678" rx="0.19198"/><rect class="cls-3" x="37.63513" y="4.38186" width="2.00526" height="1.59678" rx="0.19198"/><rect class="cls-4" x="37.63513" y="6.60992" width="2.00526" height="1.59678" rx="0.19198"/><path class="cls-3" d="M37.82711,8.72658H39.4484a.192.192,0,0,1,.192.192v1.21281a.192.192,0,0,1-.192.192H37.82711a.192.192,0,0,1-.192-.192V8.91857A.192.192,0,0,1,37.82711,8.72658Z"/><path class="cls-5" d="M37.82711,10.88038H39.4484a.192.192,0,0,1,.192.192v1.21281a.192.192,0,0,1-.192.192H37.82711a.192.192,0,0,1-.192-.192V11.07236A.192.192,0,0,1,37.82711,10.88038Z"/><path class="cls-3" d="M37.82711,13.07131H39.4484a.192.192,0,0,1,.192.192V14.4761a.192.192,0,0,1-.192.192H37.82711a.192.192,0,0,1-.192-.192V13.26329A.192.192,0,0,1,37.82711,13.07131Z"/><path class="cls-3" d="M37.82711,15.2251H39.4484a.192.192,0,0,1,.192.192V16.6299a.192.192,0,0,1-.192.192H37.82711a.192.192,0,0,1-.192-.192V15.41709A.192.192,0,0,1,37.82711,15.2251Z"/><path class="cls-4" d="M37.82711,17.416H39.4484a.192.192,0,0,1,.192.192v1.21281a.192.192,0,0,1-.192.192H37.82711a.192.192,0,0,1-.192-.192V17.608A.192.192,0,0,1,37.82711,17.416Z"/><rect class="cls-3" x="37.63513" y="19.6441" width="2.00526" height="1.59678" rx="0.19198"/><rect class="cls-3" x="37.63513" y="21.9093" width="2.00526" height="1.59678" rx="0.19198"/><rect class="cls-2" x="37.63513" y="24.06309" width="2.00526" height="1.59678" rx="0.19198"/><path class="cls-6" d="M35.66055.77871A.3001.3001,0,0,1,35.967.437a.26885.26885,0,0,1,.28935.26451c0,.2556-.27155.276-.39434.44962h.39917V1.2997h-.62008c0-.19667.1206-.27756.26644-.37775.07421-.05158.17737-.10242.17737-.20632a.12133.12133,0,0,0-.12653-.13025c-.10131,0-.134.105-.134.19444Z"/><path class="cls-6" d="M38.82343,1.2997h-.22281V.66842h-.2228V.52587c.13868.00378.26506-.04414.28734-.19166h.15827Z"/><path class="cls-6" d="M38.60062,2.929c.085.00637.20826-.0092.20826-.11246a.12446.12446,0,0,0-.12942-.11881l-.00916.00033a.14315.14315,0,0,0-.15084.16127h-.18873a.31275.31275,0,0,1,.33842-.31228c.1562,0,.32809.08877.32809.25039a.1812.1812,0,0,1-.13668.18355v.00247a.20427.20427,0,0,1,.173.20513.32428.32428,0,0,1-.3633.29707.32018.32018,0,0,1-.36331-.32926h.18874a.16517.16517,0,0,0,.17189.17683.14668.14668,0,0,0,.159-.13058l.00024-.01088c0-.13687-.12978-.134-.22626-.134Z"/><path class="cls-6" d="M38.97159,4.90174h-.40182l-.03808.2209.00266.00267a.24791.24791,0,0,1,.19043-.07617.302.302,0,0,1,.30013.331.35231.35231,0,0,1-.35408.35051l-.00736-.00012a.32434.32434,0,0,1-.36145-.30888h.19723a.15622.15622,0,0,0,.16082.14739.17779.17779,0,0,0,.16965-.18922.1709.1709,0,0,0-.16965-.18347.16238.16238,0,0,0-.14969.07676h-.15931l.09251-.51988H38.972Z"/><path class="cls-6" d="M38.51465,9.76635a.1359.1359,0,0,0,.12737.11771c.14074,0,.1749-.18567.18159-.28853l-.0026-.0026a.23915.23915,0,0,1-.21427.10546.30374.30374,0,0,1-.21835-.09729.32417.32417,0,0,1-.07427-.21167.32913.32913,0,0,1,.33421-.34683c.28705,0,.36429.25066.36429.49054,0,.23321-.10286.49612-.37135.49612a.28935.28935,0,0,1-.30784-.26291Zm.2915-.40457a.16285.16285,0,0,0-.15336-.176.15472.15472,0,0,0-.14483.17342c0,.0869.04605.179.14483.179A.15942.15942,0,0,0,38.80615,9.36178Z"/><path class="cls-6" d="M38.4517,12.18008h-.22242V11.5488h-.22281v-.14262c.13856.00415.26484-.04384.2871-.19159h.15852Z"/><path class="cls-6" d="M39.19477,12.18008H39.0091V11.5488h-.2228v-.14262a.22548.22548,0,0,0,.26339-.19159h.14508Z"/><path class="cls-6" d="M38.4517,18.75287h-.22242v-.63128h-.22281v-.14225c.13856.00416.26484-.04421.2871-.192h.15852Z"/><path class="cls-6" d="M39.34331,17.95591a1.21319,1.21319,0,0,0-.30277.797h-.19647a1.402,1.402,0,0,1,.32276-.77982H38.712v-.18567h.63128Z"/><path class="cls-6" d="M38.4517,20.9438h-.22242v-.63128h-.22281v-.14217c.13856.00416.26484-.04423.2871-.192h.15852Z"/><path class="cls-6" d="M38.89156,20.721a.13554.13554,0,0,0,.12737.11809c.14074,0,.1749-.18568.18159-.28891l-.0026-.0026a.23953.23953,0,0,1-.21427.10583.303.303,0,0,1-.21835-.09766.32385.32385,0,0,1-.07427-.2113.329.329,0,0,1,.332-.3472c.28742,0,.36466.251.36466.49091,0,.23284-.10286.49575-.37134.49575a.289.289,0,0,1-.30747-.26292Zm.29113-.402a.1629.1629,0,0,0-.153-.17639.15518.15518,0,0,0-.14519.17342c0,.08652.046.179.14519.179a.1586.1586,0,0,0,.153-.176Z"/><path class="cls-6" d="M37.97919,22.65162a.32914.32914,0,0,1,.336-.37441.295.295,0,0,1,.3175.29c0,.28053-.29757.303-.43276.49329h.43784V23.209h-.66431c0-.21247.12925-.29745.28576-.40475.079-.05559.19016-.10977.19016-.221a.12991.12991,0,0,0-.136-.13952c-.10836,0-.14341.1126-.14341.20821Z"/><path class="cls-6" d="M39.19477,23.209H39.0091v-.63129h-.2228v-.14262a.22573.22573,0,0,0,.26339-.19158h.14508Z"/><path class="cls-6" d="M37.97977,24.80578a.32886.32886,0,0,1,.33569-.37408.29477.29477,0,0,1,.31723.2897c0,.27993-.29731.30238-.43238.49286h.43745v.18567h-.7086c0-.22474.13787-.31691.30482-.43135.08423-.05931.20283-.1171.20283-.2357a.13862.13862,0,0,0-.145-.14882c-.11558,0-.153.11973-.153.22172Z"/><path class="cls-6" d="M38.972,24.83912c.08511.0067.20818-.00881.20818-.11171a.124.124,0,0,0-.12772-.12011l-.01069.0003a.14321.14321,0,0,0-.151.161h-.189a.3125.3125,0,0,1,.33854-.31152c.15681,0,.32895.08881.32895.2495a.17989.17989,0,0,1-.13725.18395v.00282a.20387.20387,0,0,1,.17368.2044.32425.32425,0,0,1-.36384.29566.31993.31993,0,0,1-.36385-.32773h.189a.165.165,0,0,0,.17214.1762.1467.1467,0,0,0,.15926-.13012l.00023-.01084c0-.13638-.13035-.13391-.22658-.13391Z"/><path class="cls-6" d="M36.00122,3.26783h-.37135V3.11506l.36674-.47852h.15314v.48275h.11141v.14854h-.11141V3.4535h-.14853Zm-.00076-.44562H35.9967l-.22111.29708h.22563Z"/><rect class="cls-2" x="39.93746" y="24.06309" width="1.33684" height="1.59678" rx="0.22355"/><path class="cls-6" d="M35.74128,12.18008h-.14854v-.557h-.22281v-.12746c.11564.00375.22087-.03753.23954-.16962h.13181Z"/><path class="cls-6" d="M35.99536,11.622a.29941.29941,0,0,1,.30575-.341.26864.26864,0,0,1,.28944.26387c0,.25572-.27128.2761-.394.44954h.39877V12.143h-.62c0-.19653.12088-.27737.26661-.37749.07416-.05191.17725-.10235.17725-.20617a.12125.12125,0,0,0-.12644-.13016c-.10124,0-.13387.10494-.13387.19394Z"/><path class="cls-6" d="M35.74128,16.56194h-.14854v-.557h-.22281v-.12746c.11564.00375.22087-.03753.23954-.16962h.13181Z"/><path class="cls-6" d="M36.42324,15.93066a.12069.12069,0,0,0-.11363-.10472c-.12292,0-.1582.16413-.16191.257l.0026.0026a.21277.21277,0,0,1,.19087-.09432.26958.26958,0,0,1,.19421.08689.28737.28737,0,0,1,.06536.18827.294.294,0,0,1-.29707.30933c-.25586,0-.32493-.2228-.32493-.43707,0-.208.09209-.4419.33421-.4419a.25753.25753,0,0,1,.27405.234Zm-.25994.33421a.14482.14482,0,0,0,.13628.1567.13813.13813,0,0,0,.12923-.15448c0-.07724-.04085-.1593-.12923-.1593a.14111.14111,0,0,0-.13591.15708Z"/><path class="cls-6" d="M35.74128,18.75287h-.14854v-.557h-.22281V18.0684c.11564.00375.22087-.03753.23954-.16962h.13181Z"/><path class="cls-6" d="M36.2805,17.86253a.26288.26288,0,0,1,.29466.23689.18454.18454,0,0,1-.12833.18532v.00272a.20471.20471,0,0,1,.16516.21556.2956.2956,0,0,1-.33033.27722c-.16516,0-.33537-.08569-.33537-.276a.2082.2082,0,0,1,.16633-.21673v-.00272a.176.176,0,0,1-.12988-.18144A.26839.26839,0,0,1,36.2805,17.86253Zm.01128.76911a.13889.13889,0,0,0,.14475-.13276l.00008-.00984a.13628.13628,0,0,0-.13713-.13543l-.0077.00026a.13352.13352,0,0,0-.14854.13406.14259.14259,0,0,0,.14055.14461l.00911-.00016Zm0-.39251a.1148.1148,0,1,0,0-.22838.11771.11771,0,0,0-.12866.10564l-.00057.01133a.11558.11558,0,0,0,.12923.11141Z"/><path class="cls-6" d="M35.32694,22.688a.29986.29986,0,0,1,.30612-.341.26852.26852,0,0,1,.28907.26387c0,.25572-.27091.2761-.394.44954H35.927V23.209h-.61963c0-.19653.12051-.27737.26624-.37749.07416-.05191.17725-.10234.17725-.20617a.12125.12125,0,0,0-.12645-.13016c-.10123,0-.13386.10494-.13386.19394Z"/><path class="cls-6" d="M35.99536,22.688a.29941.29941,0,0,1,.30575-.341.26864.26864,0,0,1,.28944.26387c0,.25572-.27128.2761-.394.44954h.39877V23.209h-.62c0-.19653.12088-.27737.26661-.37749.07416-.05191.17725-.10234.17725-.20617a.12125.12125,0,0,0-.12644-.13016c-.10124,0-.13387.10494-.13387.19394Z"/><path class="cls-6" d="M36.08754,5.08741a.12069.12069,0,0,0-.11363-.10509c-.12292,0-.15819.16414-.16153.257l.00222.0026a.21279.21279,0,0,1,.19088-.09432.2696.2696,0,0,1,.19421.08689.28745.28745,0,0,1,.06535.18865.29372.29372,0,0,1-.29707.309c-.25586,0-.32456-.22281-.32456-.43708,0-.20758.09173-.4419.332-.4419a.25756.25756,0,0,1,.27405.23432Zm-.25994.33421a.14516.14516,0,0,0,.13628.15708.13846.13846,0,0,0,.12923-.15485c0-.07724-.04085-.15931-.12923-.15931a.14112.14112,0,0,0-.13591.15708Z"/><polygon class="cls-2" points="33.59 0 31.735 0 30.807 0.799 31.735 1.597 33.59 1.597 34.518 0.799 33.59 0"/><path class="cls-6" d="M32.25541,1.08762a.29713.29713,0,0,1-.24293.12166.42764.42764,0,0,1-.43512-.45992.42993.42993,0,0,1,.43512-.46754.354.354,0,0,1,.37335.31233h-.18959a.17859.17859,0,0,0-.18578-.14756c-.1733,0-.23838.14756-.23838.30269,0,.14643.06508.294.23838.294A.18894.18894,0,0,0,32.2197.85409h-.19186V.70555h.37134V1.1883h-.12394Z"/><path class="cls-6" d="M32.54772.33421H32.69l.37523.557h.00233v-.557h.18567V1.1883h-.19168L32.69851.59415h-.00226V1.1883h-.14853Z"/><path class="cls-6" d="M33.43894.33421h.36783a.37506.37506,0,0,1,.38769.42226.37969.37969,0,0,1-.38769.43183h-.36783Zm.18643.66842h.17227c.11383,0,.21932-.06944.21932-.26561,0-.178-.063-.29141-.25423-.29141h-.13812Z"/><polygon class="cls-2" points="41.095 24.063 42.949 24.063 43.877 24.862 42.949 25.66 41.095 25.66 40.167 24.862 41.095 24.063"/><path class="cls-6" d="M41.13014,25.14983a.2967.2967,0,0,1-.24154.121.46348.46348,0,0,1,0-.92508.353.353,0,0,1,.37239.31153h-.18926a.179.179,0,0,0-.18578-.14756c-.17367,0-.23875.14756-.23875.30269,0,.14643.06508.294.23875.294a.18913.18913,0,0,0,.20924-.18919H40.903v-.14854h.37134v.48275h-.12362Z"/><path class="cls-6" d="M41.42284,24.36017H41.564l.376.59415h.00272v-.59415h.18567v.89122h-.19167l-.362-.59415h-.00337v.59415h-.14854Z"/><path class="cls-6" d="M42.31406,24.3973h.36783a.3748.3748,0,0,1,.38732.42226.37942.37942,0,0,1-.38732.43183h-.36783Zm.18568.70555h.17264c.11383,0,.2197-.06905.2197-.2656,0-.17758-.063-.29141-.25423-.29141h-.13811Z"/><path class="cls-6" d="M35.94629,6.98991a.26288.26288,0,0,1,.29466.23689.18417.18417,0,0,1-.12833.18533v.00426a.2051.2051,0,0,1,.16516.21557.2956.2956,0,0,1-.33033.27722c-.16516,0-.33537-.08569-.33537-.276a.2086.2086,0,0,1,.16633-.21674V7.41368a.176.176,0,0,1-.12988-.18145A.26823.26823,0,0,1,35.94629,6.98991Zm.0098.76915a.13888.13888,0,0,0,.14474-.13276l.00008-.00984a.13666.13666,0,0,0-.13789-.13541l-.00693.00024a.13352.13352,0,0,0-.14854.13406.1426.1426,0,0,0,.14168.14351l.008-.00017Zm.008-.39251a.1148.1148,0,1,0,0-.22838.11771.11771,0,0,0-.12866.10564l-.00057.01134a.11553.11553,0,0,0,.12923.111Z"/><rect class="cls-3" x="39.93746" width="1.33684" height="1.59678" rx="0.22355"/><path class="cls-6" d="M35.74128,9.98915h-.14854v-.557h-.22281V9.30468c.11564.00338.22087-.03753.23954-.16962h.13181Z"/><path class="cls-6" d="M36.28918,9.13266c.169,0,.31156.1062.31156.436,0,.33681-.1426.443-.31156.443s-.309-.1062-.309-.443C35.98022,9.23738,36.12133,9.13266,36.28918,9.13266Zm0,.73786c.14,0,.14-.20647.14-.3019,0-.088,0-.29448-.14-.29448s-.13777.20647-.13777.29448C36.15141,9.66405,36.15141,9.87052,36.28918,9.87052Z"/><path class="cls-6" d="M35.74128,14.40815h-.14854v-.557h-.22281v-.12746c.11564.00376.22087-.03752.23954-.16961h.13181Z"/><path class="cls-6" d="M36.33543,14.18534h-.37135V14.033l.36674-.479H36.484v.48274h.11141v.14854H36.484V14.371h-.14853Zm-.00038-.44561h-.00376l-.22149.29707h.22563Z"/><path class="cls-6" d="M35.32634,20.42244a.30016.30016,0,0,1,.30643-.3413.26856.26856,0,0,1,.28935.26413c0,.2556-.27118.276-.39434.45H35.927v.14854h-.62008c0-.19667.1206-.27757.26644-.37739.07421-.052.17737-.10278.17737-.20669a.12133.12133,0,0,0-.112-.13.11992.11992,0,0,0-.01456-.00022c-.10131,0-.134.105-.134.19445Z"/><path class="cls-6" d="M36.28918,20.08991c.169,0,.31156.1062.31156.43558,0,.33718-.1426.44339-.31156.44339s-.30933-.10621-.30933-.44339C35.97985,20.19611,36.12133,20.08991,36.28918,20.08991Zm0,.73749c.14,0,.14-.20647.14-.30191,0-.088,0-.29447-.14-.29447s-.13777.20646-.13777.29447C36.15141,20.62093,36.15141,20.8274,36.28918,20.8274Z"/><path class="cls-6" d="M35.32694,24.8418a.29986.29986,0,0,1,.30612-.34095.26852.26852,0,0,1,.28907.26387c0,.25571-.27091.2761-.394.44954H35.927v.14853h-.61963c0-.19653.12051-.27736.26661-.37748.07416-.05192.17725-.10235.17725-.20618a.12122.12122,0,0,0-.12682-.13015c-.10123,0-.13386.10494-.13386.19393Z"/><path class="cls-6" d="M36.33543,25.17712h-.37135v-.15267l.36674-.47861H36.484v.48274h.11141v.14854H36.484v.18567h-.14853Zm-.00076-.44561h-.00376l-.22111.29707h.22563Z"/><path class="cls-6" d="M38.972,7.07516a1.21345,1.21345,0,0,0-.30244.79733h-.195a1.40137,1.40137,0,0,1,.32261-.77982h-.45647V6.907H38.972Z"/><polygon class="cls-3" points="42.324 0 40.718 0 39.915 0.799 40.718 1.597 42.324 1.597 43.128 0.799 42.324 0"/><path class="cls-6" d="M40.45734.33421h.17791l.37639.557h.00272v-.557H41.2V1.1883H41.0081L40.64527.59415H40.643V1.1883h-.18568Z"/><path class="cls-6" d="M41.90544.59312A.17459.17459,0,0,0,41.73084.453c-.15806,0-.21729.1343-.21729.27549,0,.13327.05923.26758.21729.26758A.17929.17929,0,0,0,41.912.817h.17219a.3362.3362,0,0,1-.3516.3268A.38624.38624,0,0,1,41.3393.72845a.3883.3883,0,0,1,.39327-.42219.32469.32469,0,0,1,.34436.28789Z"/><rect class="cls-3" x="39.93746" y="2.1538" width="1.33684" height="1.59678" rx="0.22355"/><polygon class="cls-3" points="42.324 2.154 40.718 2.154 39.915 2.953 40.718 3.751 42.324 3.751 43.128 2.953 42.324 2.154"/><path class="cls-6" d="M40.45734,2.45087h.17791l.37639.59415h.00272V2.45087H41.2V3.3421H41.0081L40.64527,2.748H40.643V3.3421h-.18568Z"/><path class="cls-6" d="M41.90544,2.78405a.17459.17459,0,0,0-.1746-.14016c-.15806,0-.21729.1343-.21729.27549,0,.13327.05923.26758.21729.26758a.17906.17906,0,0,0,.18114-.17907h.17219a.3362.3362,0,0,1-.3516.3268.38624.38624,0,0,1-.39327-.41531.3883.3883,0,0,1,.39327-.42219.32469.32469,0,0,1,.34436.28789Z"/><rect class="cls-3" x="39.93746" y="4.38186" width="1.33684" height="1.59678" rx="0.22355"/><polygon class="cls-3" points="42.324 4.382 40.718 4.382 39.915 5.181 40.718 5.979 42.324 5.979 43.128 5.181 42.324 4.382"/><path class="cls-6" d="M40.45734,4.67893h.17791l.37639.59415h.00272V4.67893H41.2v.89123H41.0081L40.64527,4.976H40.643v.59415h-.18568Z"/><path class="cls-6" d="M41.90544,5.01177a.17426.17426,0,0,0-.1746-.13982c-.15806,0-.21729.13431-.21729.2755,0,.13327.05923.26757.21729.26757A.17906.17906,0,0,0,41.912,5.236h.17219a.33649.33649,0,0,1-.3516.32715.38653.38653,0,0,1-.39327-.41565.38848.38848,0,0,1,.39327-.4222.32469.32469,0,0,1,.34436.28789Z"/><rect class="cls-3" x="33.40181" y="4.38186" width="1.33684" height="1.59678" rx="0.22355"/><polygon class="cls-3" points="32.336 4.382 33.942 4.382 34.746 5.181 33.942 5.979 32.336 5.979 31.533 5.181 32.336 4.382"/><path class="cls-6" d="M32.58641,4.67893h.17674l.37639.59415h.00233V4.67893h.18567v.89123H33.135L32.77315,4.976h-.00263v.59415h-.18567Z"/><path class="cls-6" d="M34.04137,5.01211a.17428.17428,0,0,0-.1746-.14016c-.15772,0-.2173.13465-.2173.2755,0,.13327.05958.26757.2173.26757a.17935.17935,0,0,0,.18148-.17907h.17012a.336.336,0,0,1-.3516.32681.38617.38617,0,0,1-.39292-.41531.38841.38841,0,0,1,.39292-.4222.32448.32448,0,0,1,.34437.28789Z"/><rect class="cls-3" x="39.93746" y="8.71824" width="1.33684" height="1.59678" rx="0.22355"/><polygon class="cls-3" points="42.324 8.718 40.718 8.718 39.915 9.517 40.718 10.315 42.324 10.315 43.128 9.517 42.324 8.718"/><path class="cls-6" d="M40.45734,9.01532h.17791l.37639.59415h.00272V9.01532H41.2v.89122H41.0081l-.36283-.59415H40.643v.59415h-.18568Z"/><path class="cls-6" d="M41.90544,9.34815a.17426.17426,0,0,0-.1746-.13982c-.15806,0-.21729.13431-.21729.2755,0,.13327.05923.26757.21729.26757a.17906.17906,0,0,0,.18114-.17907h.17219a.33649.33649,0,0,1-.3516.32715.41976.41976,0,0,1,0-.83785.32469.32469,0,0,1,.34436.28789Z"/><rect class="cls-3" x="39.93746" y="13.07131" width="1.33684" height="1.59678" rx="0.22355"/><polygon class="cls-3" points="42.324 13.071 40.718 13.071 39.915 13.87 40.718 14.668 42.324 14.668 43.128 13.87 42.324 13.071"/><path class="cls-6" d="M40.45734,13.36838h.17791l.37639.59415h.00272v-.59415H41.2v.89123H41.0081l-.36283-.59415H40.643v.59415h-.18568Z"/><path class="cls-6" d="M41.90544,13.70122a.17425.17425,0,0,0-.1746-.13982c-.15806,0-.21729.13431-.21729.2755,0,.13327.05923.26757.21729.26757a.17906.17906,0,0,0,.18114-.17907h.17219a.33649.33649,0,0,1-.3516.32715.41976.41976,0,0,1,0-.83785.32469.32469,0,0,1,.34436.28789Z"/><rect class="cls-3" x="33.40181" y="8.71824" width="1.33684" height="1.59678" rx="0.22355"/><polygon class="cls-3" points="32.336 8.718 33.942 8.718 34.746 9.517 33.942 10.315 32.336 10.315 31.533 9.517 32.336 8.718"/><path class="cls-6" d="M32.58641,9.01532h.17674l.37639.59415h.00233V9.01532h.18567v.89122H33.135l-.36185-.59415h-.00263v.59415h-.18567Z"/><path class="cls-6" d="M34.04137,9.34849a.17428.17428,0,0,0-.1746-.14016c-.15772,0-.2173.13465-.2173.2755,0,.13327.05958.26757.2173.26757a.17935.17935,0,0,0,.18148-.17907h.17012a.336.336,0,0,1-.3516.32681.4196.4196,0,0,1,0-.83751.32448.32448,0,0,1,.34437.28789Z"/><rect class="cls-3" x="39.93746" y="15.2251" width="1.33684" height="1.59678" rx="0.22355"/><polygon class="cls-3" points="42.324 15.225 40.718 15.225 39.915 16.024 40.718 16.822 42.324 16.822 43.128 16.024 42.324 15.225"/><path class="cls-6" d="M40.45734,15.52218h.17791l.37639.59415h.00272v-.59415H41.2v.89122H41.0081l-.36283-.59415H40.643v.59415h-.18568Z"/><path class="cls-6" d="M41.90544,15.855a.17425.17425,0,0,0-.1746-.13981c-.15806,0-.21729.1343-.21729.27549,0,.13327.05923.26758.21729.26758a.17907.17907,0,0,0,.18114-.17908h.17219a.33648.33648,0,0,1-.3516.32715.41976.41976,0,0,1,0-.83784.32469.32469,0,0,1,.34436.28789Z"/><rect class="cls-3" x="33.40181" y="15.2251" width="1.33684" height="1.59678" rx="0.22355"/><polygon class="cls-3" points="32.336 15.225 33.942 15.225 34.746 16.024 33.942 16.822 32.336 16.822 31.533 16.024 32.336 15.225"/><path class="cls-6" d="M32.58641,15.52218h.17674l.37639.59415h.00233v-.59415h.18567v.89122H33.135l-.36185-.59415h-.00263v.59415h-.18567Z"/><path class="cls-6" d="M34.04137,15.85535a.17426.17426,0,0,0-.1746-.14015c-.15772,0-.2173.13464-.2173.27549,0,.13327.05958.26758.2173.26758a.17936.17936,0,0,0,.18148-.17908h.17012a.336.336,0,0,1-.3516.32681.4196.4196,0,0,1,0-.8375.32448.32448,0,0,1,.34437.28789Z"/><rect class="cls-3" x="33.40181" y="10.88038" width="1.33684" height="1.59678" rx="0.22355"/><polygon class="cls-3" points="32.336 10.88 33.942 10.88 34.746 11.68 33.942 12.477 32.336 12.477 31.533 11.68 32.336 10.88"/><path class="cls-6" d="M32.58641,11.17745h.17674l.37639.59415h.00233v-.59415h.18567v.89123H33.135l-.36185-.59415h-.00263v.59415h-.18567Z"/><path class="cls-6" d="M34.04137,11.51063a.17428.17428,0,0,0-.1746-.14016c-.15772,0-.2173.13465-.2173.2755,0,.13327.05958.26757.2173.26757a.17935.17935,0,0,0,.18148-.17907h.17012a.336.336,0,0,1-.3516.32681.4196.4196,0,0,1,0-.83751.32448.32448,0,0,1,.34437.28789Z"/><rect class="cls-3" x="33.40181" y="2.19093" width="1.33684" height="1.59678" rx="0.22355"/><polygon class="cls-3" points="32.336 2.191 33.942 2.191 34.746 2.99 33.942 3.788 32.336 3.788 31.533 2.99 32.336 2.191"/><path class="cls-6" d="M32.58641,2.488h.17674l.37639.59416h.00233V2.488h.18567v.89123H33.135l-.36185-.59415h-.00263v.59415h-.18567Z"/><path class="cls-6" d="M34.04128,2.82118a.17424.17424,0,0,0-.17562-.14016c-.15772,0-.2173.13465-.2173.2755,0,.13327.05958.26757.2173.26757a.17935.17935,0,0,0,.18148-.17907h.17012a.336.336,0,0,1-.3516.32681.38618.38618,0,0,1-.39293-.41531.38842.38842,0,0,1,.39293-.4222.32449.32449,0,0,1,.34437.28789Z"/><rect class="cls-3" x="33.40181" y="19.6441" width="1.33684" height="1.59678" rx="0.22355"/><polygon class="cls-3" points="32.338 19.644 33.943 19.644 34.747 20.443 33.943 21.241 32.338 21.241 31.535 20.443 32.338 19.644"/><path class="cls-6" d="M32.58485,19.94117h.1783l.37639.59415h.00233v-.59415h.18567v.89123h-.19169l-.36307-.59415h-.00226v.557h-.18567Z"/><path class="cls-6" d="M34.0432,20.23722a.17493.17493,0,0,0-.17494-.14016c-.15772,0-.21695.13464-.21695.27549,0,.13327.05923.26757.21695.26757a.17935.17935,0,0,0,.18148-.17907h.17012a.336.336,0,0,1-.3516.32681.4196.4196,0,0,1,0-.8375.32426.32426,0,0,1,.34436.28789Z"/><rect class="cls-3" x="33.40181" y="21.87216" width="1.33684" height="1.59678" rx="0.22355"/><polygon class="cls-3" points="32.338 21.872 33.943 21.872 34.747 22.671 33.943 23.469 32.338 23.469 31.535 22.671 32.338 21.872"/><path class="cls-6" d="M32.58485,22.20637h.1783l.37639.59415h.00233v-.59415h.18567v.85409h-.19169l-.36307-.59415h-.00226v.59415h-.18567Z"/><path class="cls-6" d="M34.0432,22.50241a.17493.17493,0,0,0-.17494-.14015c-.15772,0-.21695.1343-.21695.27549,0,.13327.05923.26757.21695.26757a.17935.17935,0,0,0,.18148-.17907h.17012a.336.336,0,0,1-.3516.32681.4196.4196,0,0,1,0-.8375.32426.32426,0,0,1,.34436.28789Z"/><rect class="cls-3" x="33.40181" y="24.06309" width="1.33684" height="1.59678" rx="0.22355"/><polygon class="cls-3" points="32.338 24.063 33.943 24.063 34.747 24.862 33.943 25.66 32.338 25.66 31.535 24.862 32.338 24.063"/><path class="cls-6" d="M32.58485,24.36017h.1783l.37639.59415h.00233v-.59415h.18567v.89122h-.19169l-.36307-.59415h-.00226v.59415h-.18567Z"/><path class="cls-6" d="M34.0432,24.69334a.17493.17493,0,0,0-.17494-.14015c-.15772,0-.21695.1343-.21695.27549,0,.13327.05923.26757.21695.26757a.17935.17935,0,0,0,.18148-.17907h.17012a.336.336,0,0,1-.3516.32681.4196.4196,0,0,1,0-.8375.32426.32426,0,0,1,.34436.28789Z"/><rect class="cls-3" x="39.93746" y="19.6441" width="1.33684" height="1.59678" rx="0.22355"/><polygon class="cls-3" points="42.324 19.644 40.718 19.644 39.915 20.443 40.718 21.241 42.324 21.241 43.128 20.443 42.324 19.644"/><path class="cls-6" d="M40.45734,19.97831h.17791l.37639.557h.00272v-.557H41.2v.85409H41.0081l-.36283-.59415H40.643v.59415h-.18568Z"/><path class="cls-6" d="M41.90544,20.23687a.17425.17425,0,0,0-.1746-.13981c-.15806,0-.21729.1343-.21729.27549,0,.13327.05923.26792.21729.26792a.17936.17936,0,0,0,.18114-.17942h.17218a.33647.33647,0,0,1-.35159.32715.41976.41976,0,0,1,0-.83784.32469.32469,0,0,1,.34436.28789Z"/><rect class="cls-3" x="39.93746" y="21.9093" width="1.33684" height="1.59678" rx="0.22355"/><polygon class="cls-3" points="42.324 21.909 40.718 21.909 39.915 22.708 40.718 23.506 42.324 23.506 43.128 22.708 42.324 21.909"/><path class="cls-6" d="M40.45734,22.24351h.17791l.37639.59415h.00272v-.59415H41.2v.85409H41.0081l-.36283-.59415H40.643v.59415h-.18568Z"/><path class="cls-6" d="M41.90544,22.53955a.17459.17459,0,0,0-.1746-.14016c-.15806,0-.21729.1343-.21729.27549,0,.13327.05923.26758.21729.26758a.17906.17906,0,0,0,.18114-.17907h.17218a.33619.33619,0,0,1-.35159.3268.41957.41957,0,0,1,0-.8375.32469.32469,0,0,1,.34436.28789Z"/><path class="cls-6" d="M38.4517,14.40815h-.22242v-.63129h-.22281v-.14224c.13856.00415.26484-.04422.2871-.192h.15852Z"/><path class="cls-6" d="M38.972,13.81048c.08511.00633.20818-.0088.20818-.11158a.124.124,0,0,0-.12772-.12l-.01069.00029a.143.143,0,0,0-.151.16051h-.189a.31228.31228,0,0,1,.33854-.3108c.15681,0,.32895.0887.32895.2492a.17972.17972,0,0,1-.13725.18374v.00246a.204.204,0,0,1,.17368.2045.32438.32438,0,0,1-.36384.29532c-.21969,0-.36806-.12073-.36385-.32735h.189a.16486.16486,0,0,0,.17214.176.14665.14665,0,0,0,.15926-.13l.00023-.01082c0-.13622-.13035-.13375-.22658-.13375Z"/><path class="cls-6" d="M38.4517,16.56194h-.22242v-.63128h-.22281v-.14225c.13856.00416.26484-.04421.2871-.192h.15852Z"/><path class="cls-6" d="M39.34331,15.745h-.40114l-.03806.22112.003.00266a.247.247,0,0,1,.19029-.07612.30178.30178,0,0,1,.2999.33073.35166.35166,0,0,1-.35343.34989l-.00774-.00013a.32382.32382,0,0,1-.36118-.30827h.2a.15662.15662,0,0,0,.16121.147.17744.17744,0,0,0,.16964-.18884.17089.17089,0,0,0-.16964-.18346.16234.16234,0,0,0-.14969.07676h-.161l.09272-.51988h.525Z"/><path class="cls-4" d="M34.36744,6.586H32.8985c-.20227,0-.36624.10176-.36624.2273v1.153c0,.12554.164.22731.36624.22731h1.46894c.20226,0,.36623-.10177.36623-.22731v-1.153C34.73367,6.68773,34.5697,6.586,34.36744,6.586Z"/><polygon class="cls-4" points="29.296 6.586 30.913 6.586 31.722 7.39 30.913 8.194 29.296 8.194 28.487 7.39 29.296 6.586"/><polygon class="cls-4" points="30.666 6.586 32.905 6.586 34.027 7.39 32.905 8.194 30.666 8.194 29.546 7.39 30.666 6.586"/><path class="cls-6" d="M29.88646,7.25794a.29587.29587,0,0,1,.30225-.33643.26518.26518,0,0,1,.28564.26025c0,.25244-.26758.273-.38916.44434h.394v.145h-.61181c0-.19385.11914-.27393.26318-.37256.07275-.05127.1748-.10107.1748-.20361a.11958.11958,0,0,0-.125-.12842c-.10009,0-.13183.10351-.13183.19141Z"/><path class="cls-6" d="M31.154,7.20715a.18506.18506,0,0,0-.18555-.14892c-.16748,0-.231.14258-.231.2915,0,.1416.06348.28467.231.28467a.19079.19079,0,0,0,.19287-.19043h.18115a.35749.35749,0,0,1-.374.34717.446.446,0,0,1,0-.89014.34555.34555,0,0,1,.3667.30615Z"/><path class="cls-6" d="M31.92992,7.48889c0,.11328.08789.15723.188.15723.06543,0,.16553-.019.16553-.106,0-.09277-.12842-.106-.25244-.14014-.126-.03125-.25342-.085-.25342-.24169,0-.1753.16407-.25733.31787-.25733.17725,0,.34034.07764.34034.27393h-.18116c-.00586-.10108-.07715-.12842-.16748-.12842-.05957,0-.1289.0249-.1289.09619,0,.06543.04052.0752.2539.12842.063.01465.252.05615.252.24756,0,.15625-.1211.27246-.35352.27246-.188,0-.36523-.09278-.36133-.30225Z"/><path class="cls-6" d="M32.57591,6.92151h.3667a.37266.37266,0,0,1,.38574.41992.37777.37777,0,0,1-.38574.42969h-.3667Zm.187.69238h.16651c.1084,0,.21191-.0664.21191-.25439,0-.17139-.06054-.28125-.24512-.28125h-.1333Z"/><path class="cls-6" d="M33.69164,6.92151h.1914l.31787.84961h-.19433l-.064-.18945h-.31787l-.06689.18945h-.189Zm-.01807.521h.22021L33.78636,7.131h-.002Z"/><path class="cls-6" d="M29.54583,6.92151h.187v.84961h-.187Z"/><path class="cls-4" d="M40.29872,8.19353h1.46894c.20227,0,.36624-.10177.36624-.2273v-1.153c0-.12553-.164-.2273-.36624-.2273H40.29872c-.20226,0-.36623.10177-.36623.2273v1.153C39.93249,8.09176,40.09646,8.19353,40.29872,8.19353Z"/><polygon class="cls-4" points="45.313 8.194 43.696 8.194 42.886 7.389 43.696 6.586 45.313 6.586 46.121 7.389 45.313 8.194"/><polygon class="cls-4" points="43.943 8.194 41.703 8.194 40.582 7.389 41.703 6.586 43.943 6.586 45.063 7.389 43.943 8.194"/><path class="cls-6" d="M40.79721,7.25794a.29587.29587,0,0,1,.30225-.33643.26518.26518,0,0,1,.28564.26025c0,.25244-.26757.273-.38916.44434H41.39v.145h-.61182c0-.19385.11914-.27393.26318-.37256.07276-.05127.17481-.10107.17481-.20361a.11959.11959,0,0,0-.125-.12842c-.1001,0-.13184.10351-.13184.19141Z"/><path class="cls-6" d="M42.06479,7.20715a.18505.18505,0,0,0-.18554-.14892c-.16749,0-.231.14258-.231.2915,0,.1416.06347.28467.231.28467a.1908.1908,0,0,0,.19287-.19043h.18115a.35749.35749,0,0,1-.374.34717.446.446,0,0,1,0-.89014.34555.34555,0,0,1,.36669.30615Z"/><path class="cls-6" d="M42.84067,7.48889c0,.11328.08789.15723.188.15723.06543,0,.16553-.019.16553-.106,0-.09277-.12842-.106-.25244-.14014-.126-.03125-.25342-.085-.25342-.24169,0-.1753.16406-.25733.31787-.25733.17724,0,.34033.07764.34033.27393h-.18115c-.00586-.10108-.07715-.12842-.16748-.12842-.05957,0-.12891.0249-.12891.09619,0,.06543.04053.0752.25391.12842.063.01465.252.05615.252.24756,0,.15625-.12109.27246-.35351.27246-.188,0-.36524-.09278-.36133-.30225Z"/><path class="cls-6" d="M44.05307,7.20715a.18505.18505,0,0,0-.18554-.14892c-.16748,0-.231.14258-.231.2915,0,.1416.06348.28467.231.28467A.1908.1908,0,0,0,44.0604,7.444h.18115a.35749.35749,0,0,1-.374.34717.446.446,0,0,1,0-.89014.34556.34556,0,0,1,.3667.30615Z"/><path class="cls-6" d="M44.37,6.92151h.187v.69238H44.971v.15723H44.37Z"/><path class="cls-6" d="M40.45734,6.92151h.187v.84961h-.187Z"/><path class="cls-5" d="M40.31109,12.48256H41.78c.20226,0,.36623-.10176.36623-.2273v-1.153c0-.12553-.164-.2273-.36623-.2273H40.31109c-.20227,0-.36624.10177-.36624.2273v1.153C39.94485,12.3808,40.10882,12.48256,40.31109,12.48256Z"/><polygon class="cls-5" points="43.987 12.483 42.371 12.483 41.561 11.678 42.371 10.875 43.987 10.875 44.796 11.678 43.987 12.483"/><polygon class="cls-5" points="43.366 12.483 41.75 12.483 40.94 11.678 41.75 10.875 43.366 10.875 44.175 11.678 43.366 12.483"/><path class="cls-6" d="M40.75072,11.56409c.07226.00586.17724-.00879.17724-.10352a.10992.10992,0,0,0-.11767-.11084c-.08594,0-.12989.063-.12891.14893h-.16064a.27636.27636,0,0,1,.28808-.28809.25706.25706,0,0,1,.27979.23047.16527.16527,0,0,1-.1167.17041v.00244a.18491.18491,0,0,1,.14746.18946.31048.31048,0,0,1-.61865-.02979h.16064c.00342.09033.04883.16406.14649.16406a.12822.12822,0,0,0,.13574-.13086c0-.12646-.11084-.124-.19287-.124Z"/><path class="cls-6" d="M41.61888,12.06018h-.21045l-.27588-.84961h.19239l.18945.59717h.00244l.19141-.59717h.19287Z"/><path class="cls-6" d="M42.16429,11.56409c.07227.00586.17725-.00879.17725-.10352a.10992.10992,0,0,0-.11768-.11084c-.08594,0-.12988.063-.1289.14893h-.16065a.2761.2761,0,0,1,.28809-.28809.25705.25705,0,0,1,.27978.23047.16527.16527,0,0,1-.1167.17041v.00244a.18491.18491,0,0,1,.14746.18946.31048.31048,0,0,1-.61865-.02979h.16065c.00341.09033.04882.16406.14648.16406a.12822.12822,0,0,0,.13574-.13086c0-.12646-.11084-.124-.19287-.124Z"/><path class="cls-6" d="M42.55589,12.14954h.59522v.05957h-.59522Z"/><path class="cls-6" d="M43.36156,11.778c0,.11329.08789.15723.188.15723.06542,0,.16552-.019.16552-.106,0-.09277-.12842-.10595-.25244-.14013-.126-.03125-.25342-.085-.25342-.2417,0-.17529.16407-.25733.31787-.25733.17725,0,.34034.07764.34034.27393h-.18116c-.00586-.10107-.07714-.12842-.16748-.12842-.05957,0-.12841.0249-.12841.09619,0,.06543.04.0752.25341.12842.063.01465.252.05615.252.24756,0,.15625-.1211.27246-.353.27246-.18848,0-.36572-.09277-.36231-.30225Z"/><path class="cls-5" d="M34.37241,13.0659H32.90347c-.20226,0-.36623.10177-.36623.2273v1.153c0,.12554.164.2273.36623.2273h1.46894c.20227,0,.36624-.10176.36624-.2273v-1.153C34.73865,13.16767,34.57468,13.0659,34.37241,13.0659Z"/><polygon class="cls-5" points="30.696 13.066 32.313 13.066 33.123 13.87 32.313 14.673 30.696 14.673 29.888 13.87 30.696 13.066"/><polygon class="cls-5" points="31.317 13.066 32.934 13.066 33.744 13.87 32.934 14.673 31.317 14.673 30.509 13.87 31.317 13.066"/><path class="cls-6" d="M31.05882,13.755c.07227.00585.17725-.00879.17725-.10352a.10992.10992,0,0,0-.11768-.11084c-.08593,0-.12988.063-.1289.14893h-.16065a.27637.27637,0,0,1,.28809-.28809.25705.25705,0,0,1,.27978.23047.16527.16527,0,0,1-.1167.17041v.00244a.1849.1849,0,0,1,.14746.18945.31048.31048,0,0,1-.61865-.02978h.16065c.00342.09033.04883.16406.14648.16406a.12822.12822,0,0,0,.13574-.13086c0-.12646-.11084-.124-.19287-.124Z"/><path class="cls-6" d="M31.927,14.2511h-.21045l-.27588-.84961H31.633l.18945.59717h.00245l.1914-.59717h.19287Z"/><path class="cls-6" d="M32.4724,13.755c.07226.00585.17724-.00879.17724-.10352a.10992.10992,0,0,0-.11767-.11084c-.08594,0-.12989.063-.12891.14893h-.16064a.27609.27609,0,0,1,.28808-.28809.25706.25706,0,0,1,.27979.23047.16528.16528,0,0,1-.1167.17041v.00244a.1849.1849,0,0,1,.14746.18945.31048.31048,0,0,1-.61865-.02978H32.383c.00342.09033.04883.16406.14649.16406a.12822.12822,0,0,0,.13574-.13086c0-.12646-.11084-.124-.19287-.124Z"/><path class="cls-6" d="M32.864,14.34045h.59521V14.4H32.864Z"/><path class="cls-6" d="M33.66966,13.96887c0,.11328.08789.15723.188.15723.06543,0,.16553-.019.16553-.106,0-.09277-.12842-.10595-.25244-.14013-.126-.03125-.25342-.085-.25342-.2417,0-.1753.16406-.25733.31787-.25733.17725,0,.34033.07764.34033.27393h-.18115c-.00586-.10108-.07715-.12842-.16748-.12842-.05957,0-.12842.0249-.12842.09619,0,.06543.04.0752.25342.12842.063.01465.252.05615.252.24756,0,.15625-.12109.27246-.353.27246-.18847,0-.36572-.09277-.3623-.30225Z"/><path class="cls-4" d="M34.36744,17.41064H32.8985c-.20227,0-.36624.10177-.36624.2273v1.153c0,.12554.164.2273.36624.2273h1.46894c.20226,0,.36623-.10176.36623-.2273v-1.153C34.73367,17.51241,34.5697,17.41064,34.36744,17.41064Z"/><polygon class="cls-4" points="29.296 17.411 30.913 17.411 31.722 18.215 30.913 19.018 29.296 19.018 28.487 18.215 29.296 17.411"/><polygon class="cls-4" points="30.666 17.411 32.905 17.411 34.027 18.215 32.905 19.018 30.666 19.018 29.546 18.215 30.666 17.411"/><path class="cls-4" d="M40.29872,19.01821h1.46894c.20227,0,.36624-.10177.36624-.2273v-1.153c0-.12554-.164-.2273-.36624-.2273H40.29872c-.20226,0-.36623.10176-.36623.2273v1.153C39.93249,18.91644,40.09646,19.01821,40.29872,19.01821Z"/><path class="cls-6" d="M30.04454,18.12627a.29586.29586,0,0,1,.30225-.33642.26517.26517,0,0,1,.28564.26025c0,.25244-.26757.27295-.38916.44434h.39405v.145H30.0255c0-.19385.11914-.27393.26318-.37256.07276-.05127.17481-.10108.17481-.20362a.11958.11958,0,0,0-.125-.12841c-.1001,0-.13184.10351-.13184.1914Z"/><path class="cls-6" d="M31.31212,18.07549a.18505.18505,0,0,0-.18554-.14892c-.16749,0-.231.14257-.231.2915,0,.1416.06347.28467.231.28467a.1908.1908,0,0,0,.19287-.19043h.18115a.35749.35749,0,0,1-.374.34717.446.446,0,0,1,0-.89014.34554.34554,0,0,1,.36669.30615Z"/><path class="cls-6" d="M32.088,18.35723c0,.11328.08789.15723.188.15723.06543,0,.16553-.01905.16553-.106,0-.09277-.12842-.106-.25244-.14014-.126-.03125-.25342-.085-.25342-.2417,0-.17529.16406-.25732.31787-.25732.17724,0,.34033.07764.34033.27392h-.18115c-.00586-.10107-.07715-.12841-.16748-.12841-.05957,0-.12891.0249-.12891.09619,0,.06543.04053.07519.25391.12842.063.01464.252.05615.252.24755,0,.15625-.12109.27247-.35351.27247-.188,0-.36524-.09278-.36133-.30225Z"/><path class="cls-6" d="M33.3004,18.07549a.18505.18505,0,0,0-.18554-.14892c-.16748,0-.231.14257-.231.2915,0,.1416.06348.28467.231.28467a.1908.1908,0,0,0,.19287-.19043h.18115a.35749.35749,0,0,1-.374.34717.446.446,0,0,1,0-.89014.34556.34556,0,0,1,.3667.30615Z"/><path class="cls-6" d="M33.6173,17.78985h.187v.69238h.41406v.15723H33.6173Z"/><path class="cls-6" d="M29.70467,17.78985h.187v.84961h-.187Z"/><polygon class="cls-4" points="45.313 19.018 43.696 19.018 42.886 18.214 43.696 17.411 45.313 17.411 46.121 18.214 45.313 19.018"/><polygon class="cls-4" points="43.943 19.018 41.703 19.018 40.582 18.214 41.703 17.411 43.943 17.411 45.063 18.214 43.943 19.018"/><path class="cls-6" d="M40.798,18.12627a.29586.29586,0,0,1,.30225-.33642.26517.26517,0,0,1,.28564.26025c0,.25244-.26758.27295-.38916.44434h.394v.145h-.61181c0-.19385.11914-.27393.26318-.37256.07275-.05127.1748-.10108.1748-.20362a.11958.11958,0,0,0-.125-.12841c-.10009,0-.13183.10351-.13183.1914Z"/><path class="cls-6" d="M42.06555,18.07549a.18506.18506,0,0,0-.18555-.14892c-.16748,0-.231.14257-.231.2915,0,.1416.06348.28467.231.28467a.19079.19079,0,0,0,.19287-.19043H42.254a.35749.35749,0,0,1-.374.34717.446.446,0,0,1,0-.89014.34554.34554,0,0,1,.3667.30615Z"/><path class="cls-6" d="M42.84143,18.35723c0,.11328.08789.15723.188.15723.06543,0,.16553-.01905.16553-.106,0-.09277-.12842-.106-.25244-.14014-.126-.03125-.25342-.085-.25342-.2417,0-.17529.16407-.25732.31787-.25732.17725,0,.34034.07764.34034.27392h-.18116c-.00586-.10107-.07714-.12841-.16748-.12841-.05957,0-.1289.0249-.1289.09619,0,.06543.04052.07519.2539.12842.063.01464.252.05615.252.24755,0,.15625-.1211.27247-.35352.27247-.188,0-.36523-.09278-.36133-.30225Z"/><path class="cls-6" d="M43.48742,17.78985h.3667a.37266.37266,0,0,1,.38574.41992.37777.37777,0,0,1-.38574.42969h-.3667Zm.187.69238h.16651c.1084,0,.21191-.06641.21191-.2544,0-.17138-.06054-.28125-.24511-.28125h-.13331Z"/><path class="cls-6" d="M44.60315,17.78985h.1914l.31787.84961h-.19433l-.064-.18946h-.31787l-.06689.18946h-.189Zm-.01807.521h.22021l-.10742-.31152h-.002Z"/><path class="cls-6" d="M40.45734,17.78985h.187v.84961h-.187Z"/><path class="cls-7" d="M22.46333,1.59827V24.0616H0V11.95365H1.44734A3.07082,3.07082,0,0,0,4.60856,8.98241v-.207A3.07053,3.07053,0,0,0,1.44734,5.80449H0V1.59827Z"/><path class="cls-8" d="M4.60855,8.77537V8.982a3.07082,3.07082,0,0,1-3.16121,2.97124H0V10.697H1.3452A1.99356,1.99356,0,0,0,3.39752,8.76813,1.99385,1.99385,0,0,0,1.3452,6.83894H0V5.80449H1.44734A3.07053,3.07053,0,0,1,4.60856,8.77537"/><line class="cls-9" x1="16.23335" y1="7.4709" x2="16.23335" y2="6.78935"/><line class="cls-9" x1="20.86277" y1="18.60666" x2="20.86277" y2="19.23138"/><line class="cls-10" x1="20.83471" y1="18.57806" x2="20.83471" y2="19.25997"/><polygon class="cls-11" points="13.665 17.08 14.458 17.08 14.458 14.993 13.665 14.993 13.665 14.196 14.458 14.196 14.458 11.925 13.665 11.925 13.665 11.127 14.458 11.127 14.458 9.04 13.665 9.04 13.665 8.242 9.457 8.242 9.457 17.817 13.665 17.817 13.665 17.08"/><path class="cls-11" d="M8.7596,5.97786V6.3333L7.35182,6.675v.00543l1.40778.3833v.33915l-1.40778.371v.00543l1.40778.35036v.35544L6.90114,7.95773V7.60664l1.40742-.37933v-.0047L6.90114,6.83532V6.481Z"/><path class="cls-11" d="M8.7596,8.66968v.30368H8.45783V8.66968Zm-.50355,0v.30368H6.899V8.66968Z"/><path class="cls-11" d="M7.30218,9.53872c-.17983.01919-.2417.15528-.2417.3225,0,.12126.02446.32576.18308.31707s.17984-.23708.23055-.46619.12876-.45787.41183-.45787c.30321,0,.39565.33662.39565.59613,0,.29246-.11546.5603-.42694.59614v-.32866c.14783-.03.18559-.14876.18559-.28956,0-.09121-.02122-.25915-.14387-.25915-.15034,0-.17444.232-.22264.46619s-.13128.46076-.40535.46076c-.33019,0-.451-.342-.451-.63739,0-.36195.1543-.62183.48305-.6316Z"/><path class="cls-11" d="M8.7596,10.74366v.8998c0,.36449-.11474.61061-.46111.61061a.40387.40387,0,0,1-.38809-.25988.45384.45384,0,0,1-.4719.35182c-.37766,0-.53952-.329-.53952-.67468v-.92767Zm-.75532.405v.44266c0,.15673.06762.26712.23019.26712.17984,0,.22228-.14478.22228-.30078v-.409Zm-.80424,0v.443c0,.16071.04927.30585.241.30585s.26185-.11872.26185-.2968v-.45207Z"/><path class="cls-11" d="M8.7596,12.61566v.40466H7.25147v.96134H6.8997v-1.366Z"/><path class="cls-11" d="M8.81391,15.09393a.919.919,0,0,1-.98767.94541.946.946,0,1,1-.0018-1.89118A.92017.92017,0,0,1,8.81391,15.09393Zm-1.61423,0c0,.37969.31435.52266.62656.52266.3273,0,.642-.143.642-.52266s-.31472-.52265-.642-.52265C7.51367,14.57128,7.19968,14.71388,7.19968,15.09393Z"/><path class="cls-11" d="M8.1075,17.5932a.40143.40143,0,0,0,.31616-.40466c0-.36666-.30357-.5042-.619-.5042-.30105,0-.60425.13754-.60425.5042a.40968.40968,0,0,0,.40427.42022v.39344a.77169.77169,0,0,1-.73806-.81584.88316.88316,0,0,1,.938-.91211.88872.88872,0,0,1,.95243.91211.74847.74847,0,0,1-.64958.80027Z"/><path class="cls-11" d="M8.7596,18.3323V18.737H7.98809l.77151.74923v.52266l-.73338-.74743-1.12508.8191v-.527l.83553-.57587L7.50073,18.737H6.90222V18.3323Z"/><path class="cls-11" d="M6.5429,5.24889v.90995a.46183.46183,0,0,1-.46218.49333A.40854.40854,0,0,1,5.661,6.38542H5.6563c-.04928.181-.22049.23345-.39169.2454a.85047.85047,0,0,0-.39565.07239V6.33a1.98093,1.98093,0,0,1,.4014-.059c.17588-.02606.25178-.09447.25178-.28087V5.61953H4.86752V5.24889Zm-.75784.37064v.40611c0,.16758.07194.25336.23955.25336.16185,0,.232-.08723.232-.25336V5.61953Z"/><path class="cls-11" d="M6.5429,7.41335v.38l-1.675.63016V8.0388l.373-.1274V7.28088l-.373-.13211V6.77415ZM5.5153,7.37716v.43651L6.13,7.60121V7.5965Z"/><path class="cls-11" d="M6.5429,8.56978v.37064H5.84836l.69454.65694v.46257L5.88217,9.403l-1.01357.7239V9.66034l.75317-.50673-.21365-.21246H4.8686V8.56978Z"/><path class="cls-11" d="M4.86788,11.03611V10.701h1.065v-.41588h.25177c-.00719.23382.07518.44628.32623.48392v.26676Z"/><path class="cls-11" d="M5.87894,11.51063a.58464.58464,0,0,1,.664.59939.52463.52463,0,0,1-.51362.56645c-.49743,0-.53736-.531-.87509-.77168v.78109H4.86644V11.47262c.38234,0,.53952.236.73447.52193.10071.14478.19926.34675.401.34675a.23532.23532,0,0,0,.25177-.24793c0-.198-.20394-.26169-.37766-.26169Z"/><path class="cls-11" d="M6.5429,13.38915c0,.33046-.20645.60916-.84668.60916-.65461,0-.86107-.2787-.86107-.60916s.20646-.6041.86107-.6041C6.33645,12.78505,6.5429,13.06122,6.5429,13.38915Zm-1.43331,0c0,.274.401.274.58663.274.17121,0,.57225,0,.57225-.274s-.401-.26893-.57225-.26893C5.51063,13.12022,5.10959,13.12022,5.10959,13.38915Z"/><path class="cls-11" d="M4.86788,14.973v-.33517h1.065v-.41551h.25177c-.00719.23382.07518.44628.32623.48392V14.973Z"/><path class="cls-11" d="M6.5429,16.014c0,.33046-.20645.6088-.84668.6088-.65461,0-.86107-.27834-.86107-.6088s.20646-.60446.86107-.60446C6.33645,15.40955,6.5429,15.68572,6.5429,16.014Zm-1.43331,0c0,.27363.401.27363.58663.27363.17121,0,.57225,0,.57225-.27363s-.401-.26929-.57225-.26929C5.51063,15.74472,5.10959,15.74472,5.10959,16.014Z"/><path class="cls-11" d="M4.692,16.6724v1.18031H4.57474V16.6724Z"/><path class="cls-11" d="M4.86788,18.79885v-.41769l1.675-.54763v.38258l-1.17758.375v.00507l1.17758.38v.38222Z"/><path class="cls-11" d="M6.5429,19.96252v.38l-1.675.63015V20.588l.373-.12741v-.63015l-.373-.13211V19.323Zm-1.0276-.0362v.43688L6.13,20.15073V20.146Z"/><polyline class="cls-12" points="15.74 18.801 15.74 20.528 21.664 20.528 21.664 18.801"/><polyline class="cls-12" points="15.74 6.991 15.74 5.264 21.664 5.264 21.664 6.991"/><path class="cls-11" d="M18.36732,21.95324a.4904.4904,0,0,1-.04316-.97943h.12769v.2939H18.386c-.14387,0-.24494.0362-.24494.18858,0,.17192.136.17192.24063.17192h.992V21.954Z"/><path class="cls-11" d="M17.90442,22.90771V22.6138h.93516v-.36448h.219c-.00611.20522.06582.39127.28774.42457v.23382Z"/><path class="cls-13" d="M16.68511,6.3123V6.10672a.30311.30311,0,0,1,.30032-.30585h3.18172a.30311.30311,0,0,1,.30033.30583v.185a.30311.30311,0,0,1-.30032.30585H16.98544a.30312.30312,0,0,1-.30033-.30584v0"/><path class="cls-13" d="M16.68511,19.49307v-.20486a.30312.30312,0,0,1,.29959-.30657h3.18245a.30311.30311,0,0,1,.30034.30583l0,.00074v.18314a.30311.30311,0,0,1-.30032.30585H16.98544a.30311.30311,0,0,1-.30033-.30584v0"/><path class="cls-14" d="M19.50786,20.06133h.29673s.30429-.13139.268-.3015v-.64246c.036-.12705-.1694-.28956-.1694-.28956V6.82265s.20285-.16179.1694-.28956V5.89353c.036-.16976-.268-.31816-.268-.31816h-.31292s-.25177.09737-.28774.22731H17.994a.3162.3162,0,0,0-.28775-.22731H17.394a.3334.3334,0,0,0-.31472.31562v.64319c.00935.13247.22588.29535.22588.29535V18.82527s-.21581.16107-.22588.2921v.64246a.3102.3102,0,0,0,.31472.3015h.3122c.12481.01014.28235-.17048.28235-.17048h1.2229a.30254.30254,0,0,0,.28235.19365"/><path class="cls-15" d="M17.58826,18.47056V7.15022a.15626.15626,0,0,1,.15286-.15637h1.67107a.15556.15556,0,0,1,.15214.15854v11.329a.15593.15593,0,0,1-.15214.1589H17.74112a.15663.15663,0,0,1-.15286-.1589"/><path class="cls-13" d="M21.14511,8.1872V7.818s-.02553-.09519-.07769-.08542h-.30716c-.05-.00977-.09028.03041-.09208.11366h-.8215v.341h.82114c.0018.04416.09244.11366.09244.11366h.30716a.09456.09456,0,0,0,.09317-.0959l0-.00038h0"/><path class="cls-16" d="M19.56433,8.13038V7.63812a.07471.07471,0,0,1,.07194-.076h.1917a.07649.07649,0,0,1,.07518.076v.47307a.07684.07684,0,0,1-.07768.076h-.23956a.07646.07646,0,0,1-.078-.07489l0-.00039v.01846"/><path class="cls-13" d="M16.00747,8.1872V7.818s.01367-.09519.06582-.08542h.30861c.05-.00941.09028.03041.09208.11366h.83193v.341h-.833c-.00216.0438-.09208.11366-.09208.11366h-.30645l-.09315-.11366h0"/><path class="cls-16" d="M17.58826,8.13038V7.63812a.07719.07719,0,0,0-.078-.076h-.23883a.07755.07755,0,0,0-.07841.076v.47307a.07792.07792,0,0,0,.07841.076h.23883a.07755.07755,0,0,0,.078-.076"/><path class="cls-13" d="M21.14511,9.03923V8.68814s-.02445-.09591-.07661-.09736V8.58462h-.30716a.10842.10842,0,0,0-.09208.11366h-.82258v.34095h.82114c0,.06045.09208.11366.09208.11366h.30752a.09455.09455,0,0,0,.09316-.09484"/><path class="cls-16" d="M19.56433,8.98241V8.54807a.07435.07435,0,0,1,.07194-.076h.1917a.07613.07613,0,0,1,.07518.07564v.47344a.07648.07648,0,0,1-.07731.07565l-.00038,0h-.23955a.07646.07646,0,0,1-.078-.07489l0-.00039V8.98313"/><path class="cls-13" d="M16.00747,9.03923V8.68814s.01259-.09591.06474-.09736l.00216-.00616h.30753a.10843.10843,0,0,1,.09208.11366h.83193v.34095h-.833c0,.06009-.09208.11366-.09208.11366h-.30645a.09455.09455,0,0,1-.09315-.09591v0h0"/><path class="cls-16" d="M17.58826,9.03923V8.547a.07684.07684,0,0,0-.078-.07565h-.23886A.07721.07721,0,0,0,17.193,8.547v.47343a.07756.07756,0,0,0,.07841.07565h.23883a.07719.07719,0,0,0,.078-.07565"/><path class="cls-13" d="M21.14511,9.94737V9.61256s-.02517-.09483-.077-.1198h-.30788a.14457.14457,0,0,0-.09208.11365h-.8215v.341h.82114c.00252.07745.04316.11618.09244.11365h.30716c.0518.00217.07769-.0923.07769-.0923V9.94737"/><path class="cls-16" d="M19.56433,9.94737V9.45511a.07472.07472,0,0,1,.07194-.076h.1917a.07651.07651,0,0,1,.07518.076v.47416a.07685.07685,0,0,1-.07768.076h-.23956a.07647.07647,0,0,1-.078-.07489l0-.0004v.01738"/><path class="cls-13" d="M16.00747,9.94737V9.61256s.01331-.09483.0651-.1198h.30825a.14457.14457,0,0,1,.09208.11365h.833v.341h-.833c0,.07818-.04245.118-.09208.11365h-.30645c-.05179.00434-.0669-.09013-.0669-.09013V9.94737"/><path class="cls-16" d="M17.58826,9.94737V9.45511a.07721.07721,0,0,0-.078-.076h-.23883a.07756.07756,0,0,0-.07841.076v.47416a.07792.07792,0,0,0,.07841.076h.23883a.07756.07756,0,0,0,.078-.076"/><path class="cls-13" d="M21.14511,10.85731v-.34385s-.02553-.09556-.07769-.11076h-.30716a.12252.12252,0,0,0-.09208.11365h-.8215v.341h.82114c0,.06877.09208.11365.09208.11365h.30752a.09455.09455,0,0,0,.09316-.0959v0h0"/><path class="cls-16" d="M19.56433,10.80048v-.43434a.07508.07508,0,0,1,.07194-.07637h.1917a.07686.07686,0,0,1,.07518.076v.47343a.07647.07647,0,0,1-.07731.07565h-.23993a.07647.07647,0,0,1-.078-.07489l0-.0004v-.03836"/><path class="cls-13" d="M16.00747,10.85731v-.34385s.01367-.09556.06582-.11076h.30753a.12325.12325,0,0,1,.09208.11365h.833v.341h-.833c0,.06877-.09208.11365-.09208.11365h-.30645l-.09315-.11365h0"/><path class="cls-16" d="M17.58826,10.85731v-.49225a.07755.07755,0,0,0-.078-.076h-.23883a.07792.07792,0,0,0-.07841.076v.47343a.07755.07755,0,0,0,.07841.07564h.23883a.07719.07719,0,0,0,.078-.07564"/><path class="cls-13" d="M21.14511,11.76653v-.37462s-.02553-.09556-.07769-.08h-.30716c-.05-.01557-.09028.02461-.09208.11365h-.8215v.341h.82114c0,.038.09208.11365.09208.11365h.30752a.09455.09455,0,0,0,.09317-.0959l0-.00038h0"/><path class="cls-16" d="M19.56433,11.7097v-.49225a.07472.07472,0,0,1,.07194-.076h.1917a.0765.0765,0,0,1,.07518.076v.47307a.07685.07685,0,0,1-.07768.076h-.23956a.07647.07647,0,0,1-.078-.07489l0-.0004v.01846"/><path class="cls-13" d="M16.00747,11.76653v-.37462s.01367-.09556.06582-.08h.30753c.05-.01521.09028.02461.09208.11365h.833v.341h-.833c0,.03619-.09208.11365-.09208.11365h-.30645l-.09315-.11365h0"/><path class="cls-16" d="M17.58826,11.7097v-.49225a.0772.0772,0,0,0-.078-.076h-.23883a.07755.07755,0,0,0-.07841.076v.47307a.07792.07792,0,0,0,.07841.076h.23883a.07757.07757,0,0,0,.078-.076"/><path class="cls-13" d="M21.14511,12.61856v-.35472s-.02553-.09519-.07769-.09808h-.30716a.103.103,0,0,0-.09208.11365h-.8215v.341h.82114a.12434.12434,0,0,0,.09244.11365h.30716c.0518-.017.07769-.11148.07769-.11148v-.00217"/><path class="cls-16" d="M19.56433,12.56173v-.43434a.07508.07508,0,0,1,.07194-.07637h.1917a.0765.0765,0,0,1,.07518.076v.47343a.07648.07648,0,0,1-.07731.07565h-.23993a.07647.07647,0,0,1-.078-.07489l0-.0004v-.03837"/><path class="cls-13" d="M16.00747,12.61856v-.35472s.01367-.09519.06582-.09808h.30753a.10327.10327,0,0,1,.09208.11365h.833v.341h-.833a.128.128,0,0,1-.09208.11365h-.30645c-.05179-.01737-.0669-.11221-.0669-.11221h0"/><path class="cls-16" d="M17.58826,12.61856V12.1263a.07757.07757,0,0,0-.078-.076h-.23883a.07792.07792,0,0,0-.07841.076v.47307a.07755.07755,0,0,0,.07841.076h.23883a.0772.0772,0,0,0,.078-.076"/><path class="cls-13" d="M21.14511,13.52777v-.38439a.24988.24988,0,0,0-.07769-.127h-.30716c-.05.03149-.09028.07239-.09208.11365h-.8215v.341h.82114a.13173.13173,0,0,0,.09244.11365h.30716a.09455.09455,0,0,0,.09317-.0959l0-.00038h0"/><path class="cls-16" d="M19.50786,13.471V12.9758a.07752.07752,0,0,1,.07877-.07239h.24062a.07719.07719,0,0,1,.0759.07239v.4756a.07757.07757,0,0,1-.077.07637h-.24027a.07718.07718,0,0,1-.07877-.0756v0h0"/><path class="cls-13" d="M16.00747,13.52777v-.38439s.01367-.09555.06582-.127h.30753c.05.03185.09028.07239.09208.11365h.833v.341h-.833a.13261.13261,0,0,1-.09208.11365h-.30645l-.09315-.11365h0"/><path class="cls-16" d="M17.58826,13.471V12.9758a.07752.07752,0,0,0-.07877-.07239H17.271a.07756.07756,0,0,0-.07805.07565v.4756a.07789.07789,0,0,0,.07877.07239h.23847a.07755.07755,0,0,0,.078-.07637"/><path class="cls-13" d="M21.14511,14.3798v-.34493s-.02553-.09556-.07769-.10859h-.30716a.12033.12033,0,0,0-.09208.11112h-.8215v.341h.82114c0,.068.09244.11365.09244.11365h.30716a.09453.09453,0,0,0,.09316-.09266h0"/><path class="cls-16" d="M19.50786,14.3798v-.49261a.07647.07647,0,0,1,.0773-.07566l.00075,0h.24134a.07686.07686,0,0,1,.0759.07565v.476a.07716.07716,0,0,1-.07877.07239h-.24063a.07716.07716,0,0,1-.07877-.07239h0"/><path class="cls-13" d="M16.00747,14.3798v-.34493s.01367-.09556.06582-.10859h.30753a.12071.12071,0,0,1,.09208.11365h.833v.341h-.833c0,.06769-.09208.11365-.09208.11365h-.30645l-.09315-.11365h0"/><path class="cls-16" d="M17.58826,14.3798v-.49261a.07684.07684,0,0,0-.078-.07565h-.23886a.0772.0772,0,0,0-.07841.07565v.476a.07756.07756,0,0,0,.07841.07529h.23883a.0772.0772,0,0,0,.078-.07636v0h0"/><path class="cls-13" d="M21.14511,15.289v-.362s-.02553-.09555-.07769-.09193h-.30716c-.05-.00362-.09028.03619-.09208.11365h-.8215v.341h.82114c0,.05.09208.11329.09208.11329h.30752a.09419.09419,0,0,0,.09317-.09518l0-.00074h0"/><path class="cls-16" d="M19.50786,15.23183v-.49261a.07647.07647,0,0,1,.07766-.07529h.24173a.07614.07614,0,0,1,.0759.07638v.47306a.07719.07719,0,0,1-.07873.07565h-.24067a.07757.07757,0,0,1-.07589-.07565"/><path class="cls-13" d="M16.00747,15.289v-.362s.01367-.09555.06582-.09193h.30753c.05-.00326.09028.03619.09208.11365h.833v.341h-.833c0,.04958-.09208.11329-.09208.11329h-.30645l-.09315-.11329h0"/><path class="cls-16" d="M17.58826,15.23183v-.49261a.07647.07647,0,0,0-.07766-.07529l-.00039,0h-.23883a.07682.07682,0,0,0-.07841.07524v.4742a.07755.07755,0,0,0,.07841.07564h.23883a.07755.07755,0,0,0,.078-.07564"/><path class="cls-13" d="M21.14511,16.14105v-.3348s-.02553-.09556-.07769-.11981h-.30716a.14458.14458,0,0,0-.09208.11366h-.8215v.34095h.82114c0,.07855.09244.11366.09244.11366h.30716a.09456.09456,0,0,0,.09316-.09591v0h0"/><path class="cls-16" d="M19.56433,16.14105v-.49189a.07508.07508,0,0,1,.07194-.07637h.1917a.07651.07651,0,0,1,.07518.076v.47307a.07685.07685,0,0,1-.07768.076h-.23956a.07646.07646,0,0,1-.078-.07489l0-.0004v.01846"/><path class="cls-13" d="M16.00747,16.14105v-.3348s.01367-.09556.06582-.11981h.30753a.14458.14458,0,0,1,.09208.11366h.833v.34095h-.833c0,.07782-.09208.11366-.09208.11366h-.30645a.09455.09455,0,0,1-.09315-.09591v0h0"/><path class="cls-16" d="M17.58826,16.14105V15.6488a.07756.07756,0,0,0-.078-.076h-.23883a.07792.07792,0,0,0-.07841.076v.47307a.07756.07756,0,0,0,.07841.076h.23883a.0772.0772,0,0,0,.078-.076"/><path class="cls-13" d="M21.14511,17.05027v-.33118s-.02553-.0952-.07769-.12343h-.30716a.15611.15611,0,0,0-.09208.11365h-.8215v.341h.82114c.0018.08216.04244.122.09244.11329h.30716c.0518.00869.07769-.08578.07769-.08578v-.02751"/><path class="cls-16" d="M19.56433,17.05027V16.558a.07472.07472,0,0,1,.07194-.076h.1917a.07649.07649,0,0,1,.07518.07565v.47343a.07648.07648,0,0,1-.07731.07565l-.00038,0h-.23955a.07609.07609,0,0,1-.078-.07415l0-.00077v.01846"/><path class="cls-13" d="M16.00747,17.05027v-.33118s.01367-.0952.06582-.12343h.30753a.15677.15677,0,0,1,.09208.11365h.833v.341h-.833c-.00216.0818-.04245.12162-.09208.11329h-.30645c-.05179.00869-.0669-.08578-.0669-.08578v-.02751"/><path class="cls-16" d="M17.58826,17.05027v-.49261a.07719.07719,0,0,0-.078-.07565h-.23883a.07755.07755,0,0,0-.07841.07565v.47343a.07719.07719,0,0,0,.07841.07564h.23883a.07683.07683,0,0,0,.078-.07562v0"/><path class="cls-13" d="M21.14511,17.95913v-.34784s-.02553-.09555-.07769-.10677h-.30716a.11528.11528,0,0,0-.09208.11365h-.8215v.341h.82114c0,.06479.09208.11365.09208.11365h.30752a.09455.09455,0,0,0,.09316-.0959v0"/><path class="cls-16" d="M19.56433,17.9023V17.468a.07508.07508,0,0,1,.07194-.07637h.1917a.0765.0765,0,0,1,.07518.076v.47307a.07685.07685,0,0,1-.07768.076h-.23956a.07647.07647,0,0,1-.078-.07489l0-.0004V17.903"/><path class="cls-13" d="M16.00747,17.95913v-.34784s.01367-.09555.06582-.10677h.30753a.11565.11565,0,0,1,.09208.11365h.833v.341h-.833c0,.06479-.09208.11365-.09208.11365h-.30645l-.09315-.11365h0"/><path class="cls-16" d="M17.58826,17.95913v-.49226a.07757.07757,0,0,0-.078-.076h-.23883a.07792.07792,0,0,0-.07841.076v.47307a.07755.07755,0,0,0,.07841.076h.23883a.0772.0772,0,0,0,.078-.076"/><path class="cls-16" d="M19.72978,5.802c.10359,0,.18631.14478.18631.32757s-.08272.32865-.18631.32865-.18631-.14478-.18631-.32865.0838-.32757.18631-.32757"/><path class="cls-16" d="M17.443,5.802c.10323,0,.18667.14478.18667.32757s-.08344.32865-.18667.32865-.18631-.14478-.18631-.32865.08344-.32757.18631-.32757"/><path class="cls-16" d="M19.72978,19.11049c.10359,0,.18631.14731.18631.32829s-.08272.32865-.18631.32865-.18631-.14732-.18631-.32865.0838-.32829.18631-.32829"/><path class="cls-16" d="M17.443,19.11049c.10323,0,.18667.14731.18667.32829s-.08344.32865-.18667.32865-.18631-.14732-.18631-.32865.08344-.32829.18631-.32829"/><path class="cls-5" d="M20.58812,5.90784a.231.231,0,0,1,.23633-.26319.20707.20707,0,0,1,.22314.20362c0,.19775-.20947.21338-.3042.34717h.30811V6.3092H20.573c0-.15185.09326-.21386.20557-.2915.05713-.04.13721-.0791.13721-.15918a.094.094,0,0,0-.09815-.10058c-.07812,0-.103.08105-.103.1499Z"/><path class="cls-5" d="M21.28539,5.921c.05664.00488.13867-.00635.13867-.08105a.08613.08613,0,0,0-.09229-.08643c-.06689,0-.10156.04932-.10058.11621H21.1057a.21586.21586,0,0,1,.2251-.2251.20074.20074,0,0,1,.21875.18067.12942.12942,0,0,1-.09131.13281v.00195a.14541.14541,0,0,1,.11572.148.24308.24308,0,0,1-.48438-.023h.126c.00244.07032.03809.12842.11426.12842a.10013.10013,0,0,0,.106-.10254c0-.09863-.08643-.09668-.15039-.09668Z"/><path class="cls-5" d="M21.178,20.45032h-.13183V20.028h-.16407v-.0996c.09229.00244.17579-.02979.19092-.1294h.105Z"/><path class="cls-5" d="M15.53294,5.90735a.231.231,0,0,1,.23633-.26318.20707.20707,0,0,1,.22315.20361c0,.19775-.20948.21338-.3042.34717h.3081v.11377h-.47851c0-.15186.09326-.21387.20556-.29151.05713-.04.13721-.0791.13721-.15918a.09355.09355,0,0,0-.09814-.10009c-.07813,0-.103.08056-.103.14941Z"/><path class="cls-5" d="M16.30833,6.15784h-.27587v-.1211l.2832-.37939h.11816v.3916h.08643v.10889h-.08643v.15088h-.12549Zm0-.335H16.3054l-.16845.22607h.17138Z"/><path class="cls-5" d="M15.7932,20.049a.231.231,0,0,1,.23633-.26318.20707.20707,0,0,1,.22314.20361c0,.19775-.20947.21338-.3042.34717h.30811v.11377h-.47852c0-.15186.09326-.21387.20557-.29151.05713-.04.1372-.0791.1372-.15918a.09354.09354,0,0,0-.09814-.10009c-.07813,0-.103.08056-.103.14941Z"/></g></g></svg>