<svg xmlns="http://www.w3.org/2000/svg" xmlns:xlink="http://www.w3.org/1999/xlink" viewBox="0 0 1900.9 1263.5"><defs><style>.cls-1{fill:none;}.cls-2{fill:#97999b;}.cls-26,.cls-3{fill:#ec2024;}.cls-4,.cls-8{isolation:isolate;}.cls-4{font-size:37.07px;}.cls-17,.cls-21,.cls-4,.cls-8{fill:#fff;}.cls-26,.cls-4,.cls-8{font-family:HelveticaNeueLTPro-Bd, Helvetica Neue LT Pro;}.cls-5{fill:#ffd400;}.cls-6{fill:#333;}.cls-7{fill:#b2b2b2;}.cls-8{font-size:47.19px;}.cls-9{fill:#7373ff;}.cls-10{opacity:0.29;}.cls-11{clip-path:url(#clip-path);}.cls-12{fill:#242424;}.cls-13{clip-path:url(#clip-path-2);}.cls-14{fill:#deab52;}.cls-15{clip-path:url(#clip-path-3);}.cls-16{clip-path:url(#clip-path-4);}.cls-18{fill:#8a8c8e;}.cls-19{fill:#e7e8ec;}.cls-20{fill:#babcc0;}.cls-21{font-size:52.45px;font-family:HelveticaNeueLTPro-Roman, Helvetica Neue LT Pro;}.cls-22{letter-spacing:0.14em;}.cls-23{letter-spacing:0.04em;}.cls-24{letter-spacing:0.02em;}.cls-25{letter-spacing:0.02em;}.cls-26{font-size:38px;}.cls-27{fill:#ebf3fb;}.cls-28{fill:#333d49;}.cls-29{fill:#222630;}.cls-30{fill:#bf8f3e;}</style><clipPath id="clip-path" transform="translate(0)"><rect class="cls-1" y="235.42" width="1103.86" height="793.94"/></clipPath><clipPath id="clip-path-2" transform="translate(0)"><rect class="cls-1" x="840.98" y="932.11" width="86.41" height="86.41"/></clipPath><clipPath id="clip-path-3" transform="translate(0)"><rect class="cls-1" x="1001.77" y="382.35" width="86.41" height="86.41"/></clipPath><clipPath id="clip-path-4" transform="translate(0)"><rect class="cls-1" x="651.53" y="256.61" width="86.41" height="86.41"/></clipPath></defs><g id="Layer_2" data-name="Layer 2"><g id="Layer_1-2" data-name="Layer 1"><path class="cls-2" d="M1532.66.32H1603a9.16,9.16,0,0,1,9.16,9.16V1253.69a9.43,9.43,0,0,1-9.43,9.43h-70.11a0,0,0,0,1,0,0V.32A0,0,0,0,1,1532.66.32Z" transform="translate(3144.86 1263.44) rotate(-180)"/><rect class="cls-3" x="1641.35" y="2.48" width="202.64" height="48.51"/><polygon class="cls-3" points="1876.48 2.48 1827.69 2.48 1803.27 26.72 1827.69 51 1876.48 51 1900.9 26.72 1876.48 2.48"/><path class="cls-3" d="M1617.45,51H1661l24.42-24.28L1661,2.48h-43.54a5.26,5.26,0,0,0-5.25,5.26v38A5.25,5.25,0,0,0,1617.45,51Z" transform="translate(0)"/><text class="cls-4" transform="translate(1628.57 38.93)">Battery Power</text><path class="cls-5" d="M1676.86,514.12h48.54a0,0,0,0,1,0,0V685.36a6.61,6.61,0,0,1-6.61,6.61h-35.32a6.61,6.61,0,0,1-6.61-6.61V514.12A0,0,0,0,1,1676.86,514.12Z" transform="translate(2304.18 -1098.08) rotate(90)"/><polygon class="cls-5" points="1807.82 578.96 1759.03 578.96 1734.61 603.2 1759.03 627.48 1807.82 627.48 1832.24 603.2 1807.82 578.96"/><text class="cls-4" transform="translate(1632.62 615.41)">I2C1_SCL</text><polygon class="cls-6" points="1696.74 65.32 1647.94 65.32 1623.52 89.56 1647.94 113.83 1696.74 113.83 1721.16 89.56 1696.74 65.32"/><path class="cls-6" d="M1617.7,113.84H1661l24.42-24.29L1661,65.32H1617.7a5.5,5.5,0,0,0-5.5,5.5v37.52A5.5,5.5,0,0,0,1617.7,113.84Z" transform="translate(0)"/><text class="cls-4" transform="translate(1618.26 101.77)">GND</text><polygon class="cls-6" points="1696.74 1213.88 1647.94 1213.88 1623.52 1238.12 1647.94 1262.4 1696.74 1262.4 1721.16 1238.12 1696.74 1213.88"/><path class="cls-6" d="M1617.7,1262.4H1661l24.42-24.28L1661,1213.88H1617.7a5.5,5.5,0,0,0-5.5,5.5v37.52A5.5,5.5,0,0,0,1617.7,1262.4Z" transform="translate(0)"/><text class="cls-4" transform="translate(1618.26 1250.33)">GND</text><path class="cls-7" d="M1592.41,820.06h-52.67a7.1,7.1,0,0,1-7.08-7.07V777.18a7.1,7.1,0,0,1,7.08-7.07h52.67a7.1,7.1,0,0,1,7.08,7.07V813A7.1,7.1,0,0,1,1592.41,820.06Z" transform="translate(0)"/><text class="cls-8" transform="translate(1539.77 810.15)">26</text><path class="cls-7" d="M1592.41,883.86h-52.67a7.11,7.11,0,0,1-7.08-7.08V841a7.11,7.11,0,0,1,7.08-7.08h52.67a7.11,7.11,0,0,1,7.08,7.08v35.8A7.11,7.11,0,0,1,1592.41,883.86Z" transform="translate(0)"/><text class="cls-8" transform="translate(1539.77 873.95)">28</text><path class="cls-7" d="M1592.41,947.26h-52.67a7.1,7.1,0,0,1-7.08-7.07V904.38a7.11,7.11,0,0,1,7.08-7.08h52.67a7.11,7.11,0,0,1,7.08,7.08v35.81A7.1,7.1,0,0,1,1592.41,947.26Z" transform="translate(0)"/><text class="cls-8" transform="translate(1539.77 937.35)">30</text><path class="cls-9" d="M1592.41,1010.67h-52.67a7.11,7.11,0,0,1-7.08-7.08v-35.8a7.1,7.1,0,0,1,7.08-7.08h52.67a7.1,7.1,0,0,1,7.08,7.08v35.8A7.11,7.11,0,0,1,1592.41,1010.67Z" transform="translate(0)"/><text class="cls-8" transform="translate(1539.77 1000.76)">32</text><path class="cls-7" d="M1592.41,1074.07h-52.67a7.1,7.1,0,0,1-7.08-7.07v-35.81a7.11,7.11,0,0,1,7.08-7.08h52.67a7.11,7.11,0,0,1,7.08,7.08V1067A7.1,7.1,0,0,1,1592.41,1074.07Z" transform="translate(0)"/><text class="cls-8" transform="translate(1539.77 1064.16)">34</text><path class="cls-7" d="M1592.41,1137.09h-52.67a7.11,7.11,0,0,1-7.08-7.08v-35.8a7.11,7.11,0,0,1,7.08-7.08h52.67a7.11,7.11,0,0,1,7.08,7.08V1130A7.11,7.11,0,0,1,1592.41,1137.09Z" transform="translate(0)"/><text class="cls-8" transform="translate(1539.77 1127.18)">36</text><path class="cls-7" d="M1592.41,1200.11h-52.67a7.11,7.11,0,0,1-7.08-7.08v-35.81a7.1,7.1,0,0,1,7.08-7.07h52.67a7.1,7.1,0,0,1,7.08,7.07V1193A7.11,7.11,0,0,1,1592.41,1200.11Z" transform="translate(0)"/><text class="cls-8" transform="translate(1539.77 1190.19)">38</text><path class="cls-6" d="M1592.41,1263.12h-52.67a7.1,7.1,0,0,1-7.08-7.08v-35.8a7.11,7.11,0,0,1,7.08-7.08h52.67a7.11,7.11,0,0,1,7.08,7.08V1256A7.1,7.1,0,0,1,1592.41,1263.12Z" transform="translate(0)"/><text class="cls-8" transform="translate(1539.77 1253.21)">40</text><path class="cls-3" d="M1700.45,129.51H1619c-3.74,0-6.78,1.68-6.78,3.75v41c0,2.07,3,3.75,6.78,3.75h81.47" transform="translate(0)"/><polygon class="cls-3" points="1661.03 129.51 1709.82 129.51 1734.24 153.75 1709.82 178.03 1661.03 178.03 1636.61 153.75 1661.03 129.51"/><text class="cls-4" transform="translate(1630.67 165.96)">3.3V</text><path class="cls-7" d="M1617.17,242.38h26.18l24.42-24.28-24.42-24.24h-26.18a5,5,0,0,0-5,5V237.4A5,5,0,0,0,1617.17,242.38Z" transform="translate(0)"/><polygon class="cls-7" points="1642.56 193.86 1691.35 193.86 1715.77 218.09 1691.35 242.38 1642.56 242.38 1618.14 218.09 1642.56 193.86"/><text class="cls-4" transform="translate(1633.05 230.31)">NC</text><path class="cls-7" d="M1617.17,306.45h26.18l24.42-24.28-24.42-24.23h-26.18a5,5,0,0,0-5,5v38.57A5,5,0,0,0,1617.17,306.45Z" transform="translate(0)"/><polygon class="cls-7" points="1642.56 257.94 1691.35 257.94 1715.77 282.17 1691.35 306.45 1642.56 306.45 1618.14 282.17 1642.56 257.94"/><text class="cls-4" transform="translate(1633.05 294.39)">NC</text><path class="cls-7" d="M1617.17,370.53h26.18l24.42-24.29L1643.35,322h-26.18a5,5,0,0,0-5,5v38.57A5,5,0,0,0,1617.17,370.53Z" transform="translate(0)"/><polygon class="cls-7" points="1642.56 322.01 1691.35 322.01 1715.77 346.25 1691.35 370.52 1642.56 370.52 1618.14 346.25 1642.56 322.01"/><text class="cls-4" transform="translate(1633.05 358.46)">NC</text><path class="cls-7" d="M1617.17,434.6h26.18l24.42-24.28-24.42-24.23h-26.18a5,5,0,0,0-5,5v38.57A5,5,0,0,0,1617.17,434.6Z" transform="translate(0)"/><polygon class="cls-7" points="1642.56 386.08 1691.35 386.08 1715.77 410.32 1691.35 434.6 1642.56 434.6 1618.14 410.32 1642.56 386.08"/><text class="cls-4" transform="translate(1633.05 422.53)">NC</text><path class="cls-7" d="M1617.17,498.67h26.18l24.42-24.28-24.42-24.23h-26.18a5,5,0,0,0-5,5V493.7A5,5,0,0,0,1617.17,498.67Z" transform="translate(0)"/><polygon class="cls-7" points="1642.56 450.16 1691.35 450.16 1715.77 474.39 1691.35 498.68 1642.56 498.68 1618.14 474.39 1642.56 450.16"/><text class="cls-4" transform="translate(1633.05 486.61)">NC</text><path class="cls-7" d="M1617.17,562.75h26.18l24.42-24.28-24.42-24.24h-26.18a5,5,0,0,0-5,5v38.57A5,5,0,0,0,1617.17,562.75Z" transform="translate(0)"/><polygon class="cls-7" points="1642.56 514.24 1691.35 514.24 1715.77 538.47 1691.35 562.75 1642.56 562.75 1618.14 538.47 1642.56 514.24"/><text class="cls-4" transform="translate(1633.05 550.68)">NC</text><path class="cls-7" d="M1617.17,755.87h26.18l24.42-24.28-24.42-24.24h-26.18a5,5,0,0,0-5,5V750.9A5,5,0,0,0,1617.17,755.87Z" transform="translate(0)"/><polygon class="cls-7" points="1642.56 707.35 1691.35 707.35 1715.77 731.59 1691.35 755.87 1642.56 755.87 1618.14 731.59 1642.56 707.35"/><text class="cls-4" transform="translate(1633.05 743.8)">NC</text><path class="cls-7" d="M1617.17,819.34h26.18l24.42-24.28-24.42-24.23h-26.18a5,5,0,0,0-5,5v38.57A5,5,0,0,0,1617.17,819.34Z" transform="translate(0)"/><polygon class="cls-7" points="1642.56 770.83 1691.35 770.83 1715.77 795.06 1691.35 819.34 1642.56 819.34 1618.14 795.06 1642.56 770.83"/><text class="cls-4" transform="translate(1633.05 807.28)">NC</text><path class="cls-7" d="M1617.17,882.82h26.18l24.42-24.28-24.42-24.24h-26.18a5,5,0,0,0-5,5v38.57A5,5,0,0,0,1617.17,882.82Z" transform="translate(0)"/><polygon class="cls-7" points="1642.56 834.3 1691.35 834.3 1715.77 858.54 1691.35 882.82 1642.56 882.82 1618.14 858.54 1642.56 834.3"/><text class="cls-4" transform="translate(1633.05 870.75)">NC</text><path class="cls-7" d="M1617.17,946.29h26.18L1667.77,922l-24.42-24.23h-26.18a5,5,0,0,0-5,5v38.57A5,5,0,0,0,1617.17,946.29Z" transform="translate(0)"/><polygon class="cls-7" points="1642.56 897.78 1691.35 897.78 1715.77 922.01 1691.35 946.29 1642.56 946.29 1618.14 922.01 1642.56 897.78"/><text class="cls-4" transform="translate(1633.05 934.22)">NC</text><path class="cls-7" d="M1617.17,1136.37h26.18l24.42-24.28-24.42-24.24h-26.18a5,5,0,0,0-5,5v38.57A5,5,0,0,0,1617.17,1136.37Z" transform="translate(0)"/><polygon class="cls-7" points="1642.56 1087.85 1691.35 1087.85 1715.77 1112.09 1691.35 1136.37 1642.56 1136.37 1618.14 1112.09 1642.56 1087.85"/><text class="cls-4" transform="translate(1633.05 1124.3)">NC</text><path class="cls-7" d="M1617.17,1073.35h26.18l24.42-24.28-24.42-24.23h-26.18a5,5,0,0,0-5,5v38.57A5,5,0,0,0,1617.17,1073.35Z" transform="translate(0)"/><polygon class="cls-7" points="1642.56 1024.84 1691.35 1024.84 1715.77 1049.07 1691.35 1073.35 1642.56 1073.35 1618.14 1049.07 1642.56 1024.84"/><text class="cls-4" transform="translate(1633.05 1061.29)">NC</text><path class="cls-7" d="M1617.17,1199.38h26.18l24.42-24.28-24.42-24.23h-26.18a5,5,0,0,0-5,5v38.57A5,5,0,0,0,1617.17,1199.38Z" transform="translate(0)"/><polygon class="cls-7" points="1642.56 1150.87 1691.35 1150.87 1715.77 1175.1 1691.35 1199.38 1642.56 1199.38 1618.14 1175.1 1642.56 1150.87"/><text class="cls-4" transform="translate(1633.05 1187.32)">NC</text><path class="cls-9" d="M1774.85,643.63H1628.5c-9,0-16.3,2.19-16.3,4.89v38.74c0,2.7,7.3,4.89,16.3,4.89h146.35" transform="translate(0)"/><polygon class="cls-9" points="1768.05 643.63 1816.84 643.63 1841.26 667.87 1816.84 692.15 1768.05 692.15 1743.63 667.87 1768.05 643.63"/><text class="cls-4" transform="translate(1624.96 680.08)">A1 to MCU</text><path class="cls-9" d="M1774.85,961.43H1628.5c-9,0-16.3,2.19-16.3,4.89v38.74c0,2.7,7.3,4.89,16.3,4.89h146.35" transform="translate(0)"/><polygon class="cls-9" points="1768.05 961.43 1816.84 961.43 1841.26 985.67 1816.84 1009.95 1768.05 1009.95 1743.63 985.67 1768.05 961.43"/><text class="cls-4" transform="translate(1624.96 997.88)">A0 to MCU</text><path class="cls-9" d="M1357.32,898h54.43c3.35,0,6.06,2.19,6.06,4.89v38.73c0,2.7-2.71,4.89-6.06,4.89h-54.43" transform="translate(0)"/><polygon class="cls-9" points="1389.88 898.03 1341.09 898.03 1316.67 922.26 1341.09 946.54 1389.88 946.54 1414.31 922.26 1389.88 898.03"/><text class="cls-4" transform="translate(1344.6 934.47)">EN</text><path class="cls-2" d="M1427.41.64h66a0,0,0,0,1,0,0V1262.4a0,0,0,0,1,0,0h-66.08a9.48,9.48,0,0,1-9.48-9.48V10.24a9.6,9.6,0,0,1,9.6-9.6Z" transform="translate(2911.19 1263.04) rotate(-180)"/><polygon class="cls-3" points="1166.01 2.48 1214.81 2.48 1239.22 26.72 1214.81 51 1166.01 51 1141.59 26.72 1166.01 2.48"/><rect class="cls-3" x="1215.3" y="2.48" width="173.36" height="48.51" transform="translate(2603.97 53.48) rotate(-180)"/><path class="cls-3" d="M1412.56,51H1369L1344.6,26.72,1369,2.48h43.54a5.26,5.26,0,0,1,5.25,5.26v38A5.25,5.25,0,0,1,1412.56,51Z" transform="translate(0)"/><text class="cls-4" transform="translate(1160.89 38.93)">Battery Power</text><polygon class="cls-7" points="1334.75 129.71 1383.54 129.71 1407.96 153.94 1383.54 178.22 1334.75 178.22 1310.33 153.94 1334.75 129.71"/><path class="cls-7" d="M1412.56,178.22H1369l-24.42-24.28L1369,129.71h43.54a5.25,5.25,0,0,1,5.25,5.25v38A5.25,5.25,0,0,1,1412.56,178.22Z" transform="translate(0)"/><text class="cls-4" transform="translate(1339.48 166.15)">NC</text><polygon class="cls-7" points="1334.75 193.86 1383.54 193.86 1407.96 218.09 1383.54 242.38 1334.75 242.38 1310.33 218.09 1334.75 193.86"/><path class="cls-7" d="M1412.56,242.38H1369L1344.6,218.1,1369,193.86h43.54a5.25,5.25,0,0,1,5.25,5.25v38A5.26,5.26,0,0,1,1412.56,242.38Z" transform="translate(0)"/><text class="cls-4" transform="translate(1339.48 230.31)">NC</text><polygon class="cls-7" points="1334.75 258.01 1383.54 258.01 1407.96 282.25 1383.54 306.53 1334.75 306.53 1310.33 282.25 1334.75 258.01"/><path class="cls-7" d="M1412.56,306.53H1369l-24.42-24.28L1369,258h43.54a5.26,5.26,0,0,1,5.25,5.26v38A5.25,5.25,0,0,1,1412.56,306.53Z" transform="translate(0)"/><text class="cls-4" transform="translate(1339.48 294.46)">NC</text><polygon class="cls-7" points="1334.75 322.17 1383.54 322.17 1407.96 346.4 1383.54 370.68 1334.75 370.68 1310.33 346.4 1334.75 322.17"/><path class="cls-7" d="M1412.56,370.68H1369L1344.6,346.4,1369,322.17h43.54a5.25,5.25,0,0,1,5.25,5.25v38A5.25,5.25,0,0,1,1412.56,370.68Z" transform="translate(0)"/><text class="cls-4" transform="translate(1339.48 358.62)">NC</text><polygon class="cls-7" points="1334.75 386.32 1383.54 386.32 1407.96 410.56 1383.54 434.84 1334.75 434.84 1310.33 410.56 1334.75 386.32"/><path class="cls-7" d="M1412.56,434.84H1369l-24.42-24.28L1369,386.32h43.54a5.25,5.25,0,0,1,5.25,5.26v38A5.25,5.25,0,0,1,1412.56,434.84Z" transform="translate(0)"/><text class="cls-4" transform="translate(1339.48 422.77)">NC</text><polygon class="cls-7" points="1334.75 450.48 1383.54 450.48 1407.96 474.71 1383.54 498.99 1334.75 498.99 1310.33 474.71 1334.75 450.48"/><path class="cls-7" d="M1412.56,499H1369l-24.42-24.28L1369,450.48h43.54a5.25,5.25,0,0,1,5.25,5.25v38A5.25,5.25,0,0,1,1412.56,499Z" transform="translate(0)"/><text class="cls-4" transform="translate(1339.48 486.92)">NC</text><polygon class="cls-7" points="1334.75 514.63 1383.54 514.63 1407.96 538.87 1383.54 563.14 1334.75 563.14 1310.33 538.87 1334.75 514.63"/><path class="cls-7" d="M1412.56,563.15H1369l-24.42-24.29L1369,514.63h43.54a5.25,5.25,0,0,1,5.25,5.25v38A5.26,5.26,0,0,1,1412.56,563.15Z" transform="translate(0)"/><text class="cls-4" transform="translate(1339.48 551.08)">NC</text><polygon class="cls-7" points="1334.75 707.07 1383.54 707.07 1407.96 731.3 1383.54 755.58 1334.75 755.58 1310.33 731.3 1334.75 707.07"/><path class="cls-7" d="M1412.56,755.58H1369L1344.6,731.3,1369,707.07h43.54a5.25,5.25,0,0,1,5.25,5.25v38A5.25,5.25,0,0,1,1412.56,755.58Z" transform="translate(0)"/><text class="cls-4" transform="translate(1339.48 743.51)">NC</text><polygon class="cls-7" points="1334.75 642.92 1383.54 642.92 1407.96 667.15 1383.54 691.43 1334.75 691.43 1310.33 667.15 1334.75 642.92"/><path class="cls-7" d="M1412.56,691.43H1369l-24.42-24.28L1369,642.92h43.54a5.25,5.25,0,0,1,5.25,5.25v38A5.25,5.25,0,0,1,1412.56,691.43Z" transform="translate(0)"/><text class="cls-4" transform="translate(1339.48 679.37)">NC</text><polygon class="cls-7" points="1334.75 770.83 1383.54 770.83 1407.96 795.06 1383.54 819.34 1334.75 819.34 1310.33 795.06 1334.75 770.83"/><path class="cls-7" d="M1412.56,819.34H1369l-24.42-24.28L1369,770.83h43.54a5.25,5.25,0,0,1,5.25,5.25v38A5.25,5.25,0,0,1,1412.56,819.34Z" transform="translate(0)"/><text class="cls-4" transform="translate(1339.48 807.28)">NC</text><polygon class="cls-7" points="1334.75 834.59 1383.54 834.59 1407.96 858.82 1383.54 883.11 1334.75 883.11 1310.33 858.82 1334.75 834.59"/><path class="cls-7" d="M1412.56,883.1H1369l-24.42-24.28L1369,834.59h43.54a5.25,5.25,0,0,1,5.25,5.25v38A5.25,5.25,0,0,1,1412.56,883.1Z" transform="translate(0)"/><text class="cls-4" transform="translate(1339.48 871.04)">NC</text><polygon class="cls-7" points="1334.75 961.43 1383.54 961.43 1407.96 985.67 1383.54 1009.95 1334.75 1009.95 1310.33 985.67 1334.75 961.43"/><path class="cls-7" d="M1412.56,1010H1369l-24.42-24.28L1369,961.43h43.54a5.25,5.25,0,0,1,5.25,5.25v38A5.25,5.25,0,0,1,1412.56,1010Z" transform="translate(0)"/><text class="cls-4" transform="translate(1339.48 997.88)">NC</text><polygon class="cls-7" points="1334.75 1087.77 1383.54 1087.77 1407.96 1112.01 1383.54 1136.29 1334.75 1136.29 1310.33 1112.01 1334.75 1087.77"/><path class="cls-7" d="M1412.56,1136.29H1369L1344.6,1112l24.42-24.24h43.54a5.25,5.25,0,0,1,5.25,5.26v38A5.25,5.25,0,0,1,1412.56,1136.29Z" transform="translate(0)"/><text class="cls-4" transform="translate(1339.48 1124.22)">NC</text><polygon class="cls-7" points="1334.75 1024.84 1383.54 1024.84 1407.96 1049.07 1383.54 1073.35 1334.75 1073.35 1310.33 1049.07 1334.75 1024.84"/><path class="cls-7" d="M1412.56,1073.35H1369l-24.42-24.28,24.42-24.23h43.54a5.25,5.25,0,0,1,5.25,5.25v38A5.25,5.25,0,0,1,1412.56,1073.35Z" transform="translate(0)"/><text class="cls-4" transform="translate(1339.48 1061.28)">NC</text><polygon class="cls-7" points="1334.75 1150.87 1383.54 1150.87 1407.96 1175.1 1383.54 1199.38 1334.75 1199.38 1310.33 1175.1 1334.75 1150.87"/><path class="cls-7" d="M1412.56,1199.38H1369l-24.42-24.28,24.42-24.23h43.54a5.25,5.25,0,0,1,5.25,5.25v38A5.25,5.25,0,0,1,1412.56,1199.38Z" transform="translate(0)"/><text class="cls-4" transform="translate(1339.48 1187.32)">NC</text><path class="cls-5" d="M1311.23,514.12h35.32a6.61,6.61,0,0,1,6.61,6.61V692a0,0,0,0,1,0,0h-48.54a0,0,0,0,1,0,0V520.73a6.61,6.61,0,0,1,6.61-6.61Z" transform="translate(1931.93 -725.84) rotate(90)"/><polygon class="cls-5" points="1222.19 578.96 1270.99 578.96 1295.41 603.2 1270.99 627.48 1222.19 627.48 1197.77 603.2 1222.19 578.96"/><text class="cls-4" transform="translate(1226.92 615.41)">I2C1_SDA</text><polygon class="cls-6" points="1333.28 65.31 1382.07 65.31 1406.49 89.55 1382.07 113.83 1333.28 113.83 1308.86 89.55 1333.28 65.31"/><path class="cls-6" d="M1412.32,113.83H1369L1344.6,89.54,1369,65.31h43.3a5.49,5.49,0,0,1,5.49,5.5v37.52A5.5,5.5,0,0,1,1412.32,113.83Z" transform="translate(0)"/><text class="cls-4" transform="translate(1328.88 101.76)">GND</text><path class="cls-7" d="M1486.16,307.25h-52.67a7.1,7.1,0,0,1-7.08-7.08v-35.8a7.11,7.11,0,0,1,7.08-7.08h52.67a7.1,7.1,0,0,1,7.08,7.08v35.8A7.09,7.09,0,0,1,1486.16,307.25Z" transform="translate(0)"/><text class="cls-8" transform="translate(1446.64 297.33)">9</text><path class="cls-7" d="M1486.16,371.39h-52.67a7.1,7.1,0,0,1-7.08-7.07V328.51a7.1,7.1,0,0,1,7.08-7.07h52.67a7.09,7.09,0,0,1,7.08,7.07v35.81A7.09,7.09,0,0,1,1486.16,371.39Z" transform="translate(0)"/><text class="cls-8" transform="translate(1433.52 361.48)">11</text><path class="cls-7" d="M1486.16,435.55h-52.67a7.11,7.11,0,0,1-7.08-7.08v-35.8a7.1,7.1,0,0,1,7.08-7.08h52.67a7.09,7.09,0,0,1,7.08,7.08v35.8A7.1,7.1,0,0,1,1486.16,435.55Z" transform="translate(0)"/><text class="cls-8" transform="translate(1433.52 425.63)">13</text><path class="cls-7" d="M1486.16,499.7h-52.67a7.11,7.11,0,0,1-7.08-7.08v-35.8a7.11,7.11,0,0,1,7.08-7.08h52.67a7.1,7.1,0,0,1,7.08,7.08v35.8A7.1,7.1,0,0,1,1486.16,499.7Z" transform="translate(0)"/><text class="cls-8" transform="translate(1433.51 489.79)">15</text><path class="cls-7" d="M1486.16,563.84h-52.67a7.1,7.1,0,0,1-7.08-7.07V521a7.11,7.11,0,0,1,7.08-7.08h52.67a7.1,7.1,0,0,1,7.08,7.08v35.81A7.09,7.09,0,0,1,1486.16,563.84Z" transform="translate(0)"/><text class="cls-8" transform="translate(1433.52 553.94)">17</text><path class="cls-5" d="M1486.16,628h-52.67a7.1,7.1,0,0,1-7.08-7.07V585.12a7.1,7.1,0,0,1,7.08-7.07h52.67a7.09,7.09,0,0,1,7.08,7.07v35.81A7.09,7.09,0,0,1,1486.16,628Z" transform="translate(0)"/><text class="cls-8" transform="translate(1433.52 618.09)">19</text><path class="cls-7" d="M1486.16,692.16h-52.67a7.11,7.11,0,0,1-7.08-7.08v-35.8a7.1,7.1,0,0,1,7.08-7.08h52.67a7.09,7.09,0,0,1,7.08,7.08v35.8A7.1,7.1,0,0,1,1486.16,692.16Z" transform="translate(0)"/><text class="cls-8" transform="translate(1433.52 682.24)">21</text><path class="cls-7" d="M1486.16,756.3h-52.67a7.1,7.1,0,0,1-7.08-7.08v-35.8a7.11,7.11,0,0,1,7.08-7.08h52.67a7.1,7.1,0,0,1,7.08,7.08v35.8A7.09,7.09,0,0,1,1486.16,756.3Z" transform="translate(0)"/><text class="cls-8" transform="translate(1433.52 746.39)">23</text><path class="cls-7" d="M1486.16,820.06h-52.67a7.1,7.1,0,0,1-7.08-7.07V777.18a7.1,7.1,0,0,1,7.08-7.07h52.67a7.09,7.09,0,0,1,7.08,7.07V813A7.09,7.09,0,0,1,1486.16,820.06Z" transform="translate(0)"/><text class="cls-8" transform="translate(1433.52 810.15)">25</text><path class="cls-7" d="M1486.16,883.86h-52.67a7.11,7.11,0,0,1-7.08-7.08V841a7.11,7.11,0,0,1,7.08-7.08h52.67a7.1,7.1,0,0,1,7.08,7.08v35.8A7.1,7.1,0,0,1,1486.16,883.86Z" transform="translate(0)"/><text class="cls-8" transform="translate(1433.52 873.95)">27</text><path class="cls-9" d="M1486.16,947.26h-52.67a7.1,7.1,0,0,1-7.08-7.07V904.38a7.11,7.11,0,0,1,7.08-7.08h52.67a7.1,7.1,0,0,1,7.08,7.08v35.81A7.09,7.09,0,0,1,1486.16,947.26Z" transform="translate(0)"/><text class="cls-8" transform="translate(1433.52 937.35)">29</text><path class="cls-7" d="M1486.16,1010.67h-52.67a7.11,7.11,0,0,1-7.08-7.08v-35.8a7.1,7.1,0,0,1,7.08-7.08h52.67a7.09,7.09,0,0,1,7.08,7.08v35.8A7.1,7.1,0,0,1,1486.16,1010.67Z" transform="translate(0)"/><text class="cls-8" transform="translate(1433.52 1000.76)">31</text><path class="cls-7" d="M1486.16,1074.07h-52.67a7.1,7.1,0,0,1-7.08-7.07v-35.81a7.11,7.11,0,0,1,7.08-7.08h52.67a7.1,7.1,0,0,1,7.08,7.08V1067A7.09,7.09,0,0,1,1486.16,1074.07Z" transform="translate(0)"/><text class="cls-8" transform="translate(1433.52 1064.16)">33</text><path class="cls-7" d="M1486.16,1137.09h-52.67a7.11,7.11,0,0,1-7.08-7.08v-35.8a7.11,7.11,0,0,1,7.08-7.08h52.67a7.1,7.1,0,0,1,7.08,7.08V1130A7.1,7.1,0,0,1,1486.16,1137.09Z" transform="translate(0)"/><text class="cls-8" transform="translate(1433.52 1127.18)">35</text><path class="cls-7" d="M1486.16,1200.11h-52.67a7.11,7.11,0,0,1-7.08-7.08v-35.81a7.1,7.1,0,0,1,7.08-7.07h52.67a7.09,7.09,0,0,1,7.08,7.07V1193A7.1,7.1,0,0,1,1486.16,1200.11Z" transform="translate(0)"/><text class="cls-8" transform="translate(1433.52 1190.19)">37</text><path class="cls-6" d="M1486.16,1263.12h-52.67a7.1,7.1,0,0,1-7.08-7.08v-35.8a7.11,7.11,0,0,1,7.08-7.08h52.67a7.1,7.1,0,0,1,7.08,7.08V1256A7.09,7.09,0,0,1,1486.16,1263.12Z" transform="translate(0)"/><text class="cls-8" transform="translate(1433.52 1253.21)">39</text><path class="cls-3" d="M1486.16,50.64h-52.67a7.1,7.1,0,0,1-7.08-7.08V7.76a7.11,7.11,0,0,1,7.08-7.08h52.67a7.1,7.1,0,0,1,7.08,7.08v35.8A7.09,7.09,0,0,1,1486.16,50.64Z" transform="translate(0)"/><text class="cls-8" transform="translate(1446.69 40.73)">1</text><path class="cls-6" d="M1486.16,114.79h-52.67a7.1,7.1,0,0,1-7.08-7.07V71.91a7.11,7.11,0,0,1,7.08-7.08h52.67a7.1,7.1,0,0,1,7.08,7.08v35.81A7.09,7.09,0,0,1,1486.16,114.79Z" transform="translate(0)"/><text class="cls-8" transform="translate(1446.69 104.88)">3</text><path class="cls-7" d="M1486.16,178.94h-52.67a7.1,7.1,0,0,1-7.08-7.07V136.06a7.1,7.1,0,0,1,7.08-7.07h52.67a7.09,7.09,0,0,1,7.08,7.07v35.81A7.09,7.09,0,0,1,1486.16,178.94Z" transform="translate(0)"/><text class="cls-8" transform="translate(1446.69 169.03)">5</text><path class="cls-7" d="M1486.16,243.1h-52.67a7.11,7.11,0,0,1-7.08-7.08v-35.8a7.1,7.1,0,0,1,7.08-7.08h52.67a7.09,7.09,0,0,1,7.08,7.08V236A7.1,7.1,0,0,1,1486.16,243.1Z" transform="translate(0)"/><text class="cls-8" transform="translate(1446.69 233.18)">7</text><path class="cls-6" d="M1413.1,1262.4h-58.63l-31.71-24.28,31.71-24.24h58.63a4.71,4.71,0,0,1,4.71,4.71v39.1A4.71,4.71,0,0,1,1413.1,1262.4Z" transform="translate(0)"/><polygon class="cls-6" points="1372.93 1213.88 1324.13 1213.88 1299.71 1238.12 1324.13 1262.4 1372.93 1262.4 1397.35 1238.12 1372.93 1213.88"/><text class="cls-4" transform="translate(1321.04 1250.33)">GND</text><path class="cls-7" d="M1592.41,307.17h-52.67a7.1,7.1,0,0,1-7.08-7.08v-35.8a7.11,7.11,0,0,1,7.08-7.08h52.67a7.11,7.11,0,0,1,7.08,7.08v35.8A7.1,7.1,0,0,1,1592.41,307.17Z" transform="translate(0)"/><text class="cls-8" transform="translate(1539.77 297.25)">10</text><path class="cls-7" d="M1592.41,371.37h-52.67a7.1,7.1,0,0,1-7.08-7.08v-35.8a7.11,7.11,0,0,1,7.08-7.08h52.67a7.11,7.11,0,0,1,7.08,7.08v35.8A7.1,7.1,0,0,1,1592.41,371.37Z" transform="translate(0)"/><text class="cls-8" transform="translate(1539.77 361.46)">12</text><path class="cls-7" d="M1592.41,435.57h-52.67a7.1,7.1,0,0,1-7.08-7.07V392.69a7.11,7.11,0,0,1,7.08-7.08h52.67a7.11,7.11,0,0,1,7.08,7.08V428.5A7.1,7.1,0,0,1,1592.41,435.57Z" transform="translate(0)"/><text class="cls-8" transform="translate(1539.77 425.66)">14</text><path class="cls-7" d="M1592.41,499.78h-52.67a7.11,7.11,0,0,1-7.08-7.08V456.9a7.11,7.11,0,0,1,7.08-7.08h52.67a7.11,7.11,0,0,1,7.08,7.08v35.8A7.11,7.11,0,0,1,1592.41,499.78Z" transform="translate(0)"/><text class="cls-8" transform="translate(1539.76 489.87)">16</text><path class="cls-7" d="M1592.41,564h-52.67a7.1,7.1,0,0,1-7.08-7.07V521.09a7.1,7.1,0,0,1,7.08-7.07h52.67a7.1,7.1,0,0,1,7.08,7.07V556.9A7.1,7.1,0,0,1,1592.41,564Z" transform="translate(0)"/><text class="cls-8" transform="translate(1539.76 554.07)">18</text><path class="cls-5" d="M1592.41,628.19h-52.67a7.11,7.11,0,0,1-7.08-7.08v-35.8a7.1,7.1,0,0,1,7.08-7.08h52.67a7.1,7.1,0,0,1,7.08,7.08v35.8A7.11,7.11,0,0,1,1592.41,628.19Z" transform="translate(0)"/><text class="cls-8" transform="translate(1539.76 618.27)">20</text><path class="cls-9" d="M1592.41,692.39h-52.67a7.1,7.1,0,0,1-7.08-7.08v-35.8a7.11,7.11,0,0,1,7.08-7.08h52.67a7.11,7.11,0,0,1,7.08,7.08v35.8A7.1,7.1,0,0,1,1592.41,692.39Z" transform="translate(0)"/><text class="cls-8" transform="translate(1539.77 682.48)">22</text><path class="cls-7" d="M1592.41,756.59h-52.67a7.1,7.1,0,0,1-7.08-7.08v-35.8a7.11,7.11,0,0,1,7.08-7.08h52.67a7.11,7.11,0,0,1,7.08,7.08v35.8A7.1,7.1,0,0,1,1592.41,756.59Z" transform="translate(0)"/><text class="cls-8" transform="translate(1539.77 746.68)">24</text><path class="cls-3" d="M1592.41,50.36h-52.67a7.11,7.11,0,0,1-7.08-7.08V7.47A7.1,7.1,0,0,1,1539.74.4h52.67a7.1,7.1,0,0,1,7.08,7.07V43.28A7.11,7.11,0,0,1,1592.41,50.36Z" transform="translate(0)"/><text class="cls-8" transform="translate(1552.94 40.44)">2</text><path class="cls-6" d="M1592.41,114.56h-52.67a7.11,7.11,0,0,1-7.08-7.08V71.68a7.1,7.1,0,0,1,7.08-7.08h52.67a7.1,7.1,0,0,1,7.08,7.08v35.8A7.11,7.11,0,0,1,1592.41,114.56Z" transform="translate(0)"/><text class="cls-8" transform="translate(1552.93 104.64)">4</text><path class="cls-3" d="M1592.41,178.76h-52.67a7.1,7.1,0,0,1-7.08-7.08v-35.8a7.11,7.11,0,0,1,7.08-7.08h52.67a7.11,7.11,0,0,1,7.08,7.08v35.8A7.1,7.1,0,0,1,1592.41,178.76Z" transform="translate(0)"/><text class="cls-8" transform="translate(1552.94 168.85)">6</text><path class="cls-7" d="M1592.41,243h-52.67a7.11,7.11,0,0,1-7.08-7.08V200.08a7.1,7.1,0,0,1,7.08-7.07h52.67a7.1,7.1,0,0,1,7.08,7.07v35.81A7.11,7.11,0,0,1,1592.41,243Z" transform="translate(0)"/><text class="cls-8" transform="translate(1552.94 233.05)">8</text><g class="cls-10"><g class="cls-11"><path class="cls-12" d="M1103.86,1029.36H0V235.42H1103.86ZM1045,451.92a26.37,26.37,0,1,0-26.37-26.36A26.36,26.36,0,0,0,1045,451.92m-160.8,549.59a26.26,26.26,0,1,0-26.26-26.26,26.26,26.26,0,0,0,26.26,26.26M694.74,326.18a26.37,26.37,0,1,0-26.37-26.37,26.36,26.36,0,0,0,26.37,26.37M157.53,1016.61a48.19,48.19,0,1,0-48.18-48.19,48.19,48.19,0,0,0,48.18,48.19m0-663.85a48.19,48.19,0,1,0-48.18-48.19,48.19,48.19,0,0,0,48.18,48.19" transform="translate(0)"/></g><g class="cls-13"><path class="cls-14" d="M884.18,932.11a43.21,43.21,0,1,1-43.2,43.2,43.21,43.21,0,0,1,43.2-43.2m0,69.48a26.27,26.27,0,1,0-26.27-26.28,26.28,26.28,0,0,0,26.27,26.28" transform="translate(0)"/></g><g class="cls-15"><path class="cls-14" d="M1045,382.35a43.21,43.21,0,1,1-43.21,43.2,43.2,43.2,0,0,1,43.21-43.2m0,69.48a26.28,26.28,0,1,0-26.28-26.28A26.28,26.28,0,0,0,1045,451.83" transform="translate(0)"/></g><g class="cls-16"><path class="cls-14" d="M694.74,256.61a43.21,43.21,0,1,1-43.21,43.21,43.21,43.21,0,0,1,43.21-43.21m0,69.48a26.27,26.27,0,1,0-26.27-26.27,26.27,26.27,0,0,0,26.27,26.27" transform="translate(0)"/></g><g class="cls-11"><path class="cls-14" d="M80,305.5a77.54,77.54,0,0,1,43.79-69.83H191.3a77.56,77.56,0,0,1,43.78,69.8v.06a77.55,77.55,0,0,1-77.52,77.52h-.05A77.56,77.56,0,0,1,80,305.5m77.55,47.16a47.16,47.16,0,1,0-47.15-47.16,47.16,47.16,0,0,0,47.15,47.16" transform="translate(0)"/><path class="cls-14" d="M204.86,1029.36H110.21a77.07,77.07,0,1,1,124.4-60.84v0a77,77,0,0,1-29.75,60.8M157.53,921.67a46.87,46.87,0,1,0,46.88,46.87,46.87,46.87,0,0,0-46.88-46.87" transform="translate(0)"/><path class="cls-17" d="M639.29,772.24a12.82,12.82,0,0,1,1,4.59c.08,2,.21,8.25.25,10,2.06-.12,4.73-.24,6.52-.24s7.69-.11,16.35-.31h.56c2.23-.05,7.5-.87,8.19-7.42.61-5.73-2.53-7.11-2.67-7.16-1.23-.82-6.64-2.27-12.79-2.27-.69,0-1.39,0-2.11,0a82.49,82.49,0,0,0-15.27,2.72" transform="translate(0)"/><path class="cls-17" d="M629.55,765.64a12.93,12.93,0,0,1,3.47.88,13.49,13.49,0,0,1,4.29,2.6,79.17,79.17,0,0,1,16.4-3.16c1.06-.07,2.16-.12,3.25-.12a40.64,40.64,0,0,1,11.55,1.58,18.12,18.12,0,0,0,1.8-1.63,8.56,8.56,0,0,0,2.16-4.27,9.2,9.2,0,0,0-.93-6.65c-1-1.88-3.56-2.84-7.65-2.84-.56,0-1.17,0-1.85,0s-1.71-.07-2.72-.07a39.8,39.8,0,0,0-13.94,2.59c-6.67,2.38-12.94,8.18-15.83,11.14" transform="translate(0)"/><path class="cls-17" d="M610.1,765.37a14.41,14.41,0,0,1,5.56,1,14,14,0,0,1,4,3.12,11.55,11.55,0,0,1,1.36-1.56,9.61,9.61,0,0,1,3.16-1.83c1.39-1.55,4-4.41,6.71-6.85a46.08,46.08,0,0,1,17.16-9.64A40.82,40.82,0,0,1,660.37,748a59.53,59.53,0,0,1,6.29.32c1-.75,4.57-3.71,4.52-7.63-.1-6.27-2.39-7.73-12.92-8.25-11.14-.6-23.39,3.83-33.61,12-8.1,6.52-13,17-14.55,20.85" transform="translate(0)"/><path class="cls-17" d="M654.84,790.06c.1,1.78.25,4.65.25,6.52,0,2.5.19,11.35.27,15.12l0,1.79c.06,2.23.89,7.51,7.42,8.19a10.8,10.8,0,0,0,1.39.08c4.62,0,5.76-2.71,5.77-2.74.79-1.2,2.6-7.46,2.22-14.91a82.33,82.33,0,0,0-2.72-15.27,12.88,12.88,0,0,1-4.6,1c-.83,0-3.26.11-10,.25" transform="translate(0)"/><path class="cls-17" d="M674.31,818.06a15.89,15.89,0,0,0,1.62,1.8A8.49,8.49,0,0,0,680.2,822a10.63,10.63,0,0,0,2.22.25,9.43,9.43,0,0,0,4.43-1.16c1.89-1,2.85-3.59,2.85-7.67,0-.5,0-1.05,0-1.66l0-.19a40.21,40.21,0,0,0-2.52-16.67c-2.39-6.66-8.19-12.93-11.15-15.82a12.41,12.41,0,0,1-.89,3.47,13.06,13.06,0,0,1-2.59,4.3,79.1,79.1,0,0,1,3.16,16.38,42.93,42.93,0,0,1-1.45,14.81" transform="translate(0)"/><path class="cls-17" d="M693.38,816.21c.89,1.21,3.69,4.51,7.52,4.51,6.35-.09,7.84-2.38,8.36-12.91.55-11.15-3.85-23.4-12.07-33.61-6.52-8.11-17-13-20.84-14.55a14.52,14.52,0,0,1-1,5.56,13.82,13.82,0,0,1-3.13,4,11.55,11.55,0,0,1,1.56,1.36,9.69,9.69,0,0,1,1.84,3.16c1.25,1.13,4.28,3.9,6.84,6.71a46.24,46.24,0,0,1,9.65,17.16c2.29,7.19,1.52,16.41,1.29,18.57" transform="translate(0)"/><path class="cls-17" d="M651.75,804.51c-1.56.09-4.57.25-6.51.25s-7.22.1-16,.3l-.88,0c-2.22,0-7.49.87-8.18,7.41-.61,5.71,2.52,7.11,2.66,7.17,1.45,1,8,2.59,14.9,2.21A83.42,83.42,0,0,0,653,819.16a12.88,12.88,0,0,1-1-4.6c-.06-1.34-.14-4.71-.26-10Z" transform="translate(0)"/><path class="cls-17" d="M623.76,824a16.71,16.71,0,0,0-1.8,1.62,8.62,8.62,0,0,0-2.17,4.27,9.26,9.26,0,0,0,.93,6.65c1,1.89,3.57,2.85,7.66,2.85.53,0,1.12,0,1.77,0,.9,0,1.79.08,2.79.08a39.8,39.8,0,0,0,14-2.6c6.64-2.37,12.92-8.17,15.82-11.13a13,13,0,0,1-3.48-.89,13.33,13.33,0,0,1-4.29-2.59,79.23,79.23,0,0,1-16.38,3.15c-1.07.08-2.17.12-3.27.12A41.34,41.34,0,0,1,623.76,824" transform="translate(0)"/><path class="cls-17" d="M625.6,843.05c-1,.75-4.56,3.7-4.51,7.63.1,6.27,2.39,7.73,12.91,8.25.62,0,1.23.05,1.85.05,10.66,0,22.13-4.36,31.76-12.11,8.13-6.54,13-17,14.56-20.84a14.72,14.72,0,0,1-5.57-1,13.9,13.9,0,0,1-4-3.13,12.91,12.91,0,0,1-1.36,1.57,9.82,9.82,0,0,1-3.16,1.82c-.91,1-3.77,4.18-6.72,6.86a46.08,46.08,0,0,1-17.15,9.64,40.82,40.82,0,0,1-12.28,1.61,60,60,0,0,1-6.3-.32" transform="translate(0)"/><path class="cls-17" d="M628,769.73c-4.57,0-5.73,2.63-5.77,2.75-.79,1.19-2.6,7.45-2.22,14.89a82,82,0,0,0,2.72,15.28,12.93,12.93,0,0,1,4.6-1c1,0,3.51-.12,10-.25-.08-1.46-.24-4.55-.24-6.52s-.11-7.49-.31-16.35V778c0-2.23-.89-7.49-7.42-8.18a13,13,0,0,0-1.39-.08" transform="translate(0)"/><path class="cls-17" d="M609.75,769.22a9.14,9.14,0,0,0-4.41,1.17c-1.89,1-2.86,3.58-2.86,7.66,0,.56,0,1.17-.05,1.85A40.07,40.07,0,0,0,605,796.56c2.37,6.65,8.18,12.92,11.14,15.83a12.77,12.77,0,0,1,.89-3.47,13.06,13.06,0,0,1,2.59-4.3,78.75,78.75,0,0,1-3.16-16.38,43.07,43.07,0,0,1,1.46-14.81,17.22,17.22,0,0,0-1.63-1.8,8.45,8.45,0,0,0-4.26-2.16,10.11,10.11,0,0,0-2.24-.25" transform="translate(0)"/><path class="cls-17" d="M591.17,770.77c-6.26.09-7.72,2.38-8.25,12.91-.54,11.15,3.85,23.4,12.06,33.61,6.52,8.1,17,13,20.85,14.55a14.84,14.84,0,0,1,1-5.56,14.16,14.16,0,0,1,3.13-4,10.81,10.81,0,0,1-1.56-1.37,9.75,9.75,0,0,1-1.83-3.15c-1.26-1.13-4.29-3.9-6.85-6.72a46.26,46.26,0,0,1-9.65-17.15c-2.29-7.17-1.51-16.41-1.28-18.57-.89-1.21-3.68-4.51-7.53-4.51Z" transform="translate(0)"/><path class="cls-17" d="M810,745.22a32.54,32.54,0,0,1,12.23,2.19,28.17,28.17,0,0,1,9.33,6,26.19,26.19,0,0,1,5.94,8.84,28.46,28.46,0,0,1,2,10.81,30.31,30.31,0,0,1-3.75,15.41q-3.75,6.51-12.23,9.9v.28a17.11,17.11,0,0,1,6.79,3.47,19.12,19.12,0,0,1,4.38,5.51,25.71,25.71,0,0,1,2.48,7,62.46,62.46,0,0,1,1.06,7.63c.09,1.61.18,3.49.28,5.66s.26,4.38.5,6.64a45.22,45.22,0,0,0,1.12,6.44,14.94,14.94,0,0,0,2.34,5.16h-22.2A39.31,39.31,0,0,1,818,834.72q-.42-6.65-1.27-12.73-1.14-7.92-4.81-11.59t-12-3.68H777.72v39.45h-22.2V745.22ZM802,790.89q7.63,0,11.46-3.4t3.81-11q0-7.35-3.81-10.68T802,762.47H777.72v28.42Z" transform="translate(0)"/><path class="cls-17" d="M905.44,745.22l37.75,100.95H920.14l-7.63-22.48H874.76l-7.92,22.48H844.51l38.17-100.95Zm1.27,61.93-12.72-37h-.28l-13.15,37Z" transform="translate(0)"/><polygon class="cls-17" points="970.17 745.22 970.17 787.07 1009.62 745.22 1037.33 745.22 997.88 785.09 1041.15 846.16 1013.3 846.16 982.9 800.78 970.17 813.65 970.17 846.16 947.98 846.16 947.98 745.22 970.17 745.22"/><path class="cls-17" d="M1071.34,758.43a13.57,13.57,0,1,1-13.52-13.21,13.26,13.26,0,0,1,13.52,13.21m-23.75,0a10.22,10.22,0,0,0,10.3,10.54c5.8,0,10.07-4.67,10.07-10.46s-4.27-10.63-10.14-10.63a10.26,10.26,0,0,0-10.23,10.55m8.13,6.92h-3.06v-13.2a26,26,0,0,1,5.07-.41,8.23,8.23,0,0,1,4.59,1,3.64,3.64,0,0,1,1.29,2.9,3.38,3.38,0,0,1-2.74,3.06v.16c1.29.48,2,1.45,2.42,3.22a9.77,9.77,0,0,0,1,3.3H1061a11.31,11.31,0,0,1-1-3.22c-.24-1.45-1.05-2.09-2.74-2.09h-1.45Zm.08-7.49h1.45c1.69,0,3.06-.56,3.06-1.93,0-1.21-.88-2-2.82-2a7.24,7.24,0,0,0-1.69.17Z" transform="translate(0)"/><polygon class="cls-17" points="621.77 885.05 617.28 901.43 617.2 901.43 613.22 885.05 608.3 885.05 604.16 901.43 604.07 901.43 599.75 885.05 594.58 885.05 601.42 906.99 606.55 906.99 610.61 890.7 610.7 890.7 614.8 906.99 619.81 906.99 626.73 885.05 621.77 885.05"/><polygon class="cls-17" points="653.93 885.05 649.44 901.43 649.36 901.43 645.38 885.05 640.46 885.05 636.31 901.43 636.23 901.43 631.91 885.05 626.73 885.05 633.58 906.99 638.71 906.99 642.77 890.7 642.85 890.7 646.96 906.99 651.96 906.99 658.89 885.05 653.93 885.05"/><polygon class="cls-17" points="686.57 885.05 682.08 901.43 681.99 901.43 678.01 885.05 673.1 885.05 668.95 901.43 668.86 901.43 664.54 885.05 659.37 885.05 666.21 906.99 671.34 906.99 675.4 890.7 675.49 890.7 679.6 906.99 684.6 906.99 691.52 885.05 686.57 885.05"/><rect class="cls-17" x="691.03" y="901.26" width="5.94" height="5.73"/><path class="cls-17" d="M704.12,872.12h19.5c6.48,0,10.58,4.47,10.58,9.9,0,4.21-1.67,7.38-5.72,9v.1c3.9,1.06,5,4.72,5.26,8.39.15,2.26,0,6.53,1.52,8.49h-8c-.91-2.26-.86-5.73-1.26-8.59-.56-3.77-2-5.43-6-5.43h-7.95v14h-8Zm8,16.23h8.71c3.6,0,5.47-1.51,5.47-5.13,0-3.46-1.87-5-5.47-5h-8.71Z" transform="translate(0)"/><path class="cls-17" d="M751.4,872.11h8.15L773.07,908h-8.25l-2.73-8H748.57l-2.84,8h-8.05Zm-.76,22H760L755.45,881h-.1Z" transform="translate(0)"/><polygon class="cls-17" points="775.95 872.12 783.9 872.12 783.9 886.99 798.03 872.12 807.95 872.12 793.83 886.29 809.32 907.99 799.34 907.99 788.46 891.86 783.9 896.43 783.9 907.99 775.95 907.99 775.95 872.12"/><polygon class="cls-17" points="810.19 880.83 816.05 880.83 820.93 899.37 821.03 899.37 825.72 880.83 831.28 880.83 835.78 899.37 835.88 899.37 840.96 880.83 846.57 880.83 838.74 905.65 833.08 905.65 828.43 887.22 828.34 887.22 823.74 905.65 817.93 905.65 810.19 880.83"/><path class="cls-17" d="M851.22,871.37h5.52v5.19h-5.52Zm0,9.46h5.52v24.82h-5.52Z" transform="translate(0)"/><path class="cls-17" d="M862.21,880.83h5.17v4.8h.1c.63-2.64,4-5.47,7.31-5.47a14.44,14.44,0,0,1,2.07.14v5.28a13.48,13.48,0,0,0-2.36-.23c-3.73,0-6.78,3-6.78,8.49v11.81h-5.51Z" transform="translate(0)"/><path class="cls-17" d="M883.58,894.66c0,3.89,2.13,7.34,6.73,7.34,3.24,0,5.13-1.39,6.09-4.13h5.23c-1.16,5.43-5.91,8.46-11.32,8.46-7.89,0-12.24-5.38-12.24-13.07,0-7,4.64-13.1,12.09-13.1,7.89,0,12.73,7.06,11.81,14.5Zm12.87-3.6c-.24-3.46-2.51-6.58-6.29-6.58a6.52,6.52,0,0,0-6.58,6.58Z" transform="translate(0)"/><rect class="cls-17" x="905.65" y="871.37" width="5.51" height="34.28"/><path class="cls-17" d="M921.23,894.66c0,3.89,2.12,7.34,6.72,7.34,3.24,0,5.13-1.39,6.1-4.13h5.22c-1.16,5.43-5.9,8.46-11.32,8.46-7.89,0-12.24-5.38-12.24-13.07,0-7,4.64-13.1,12.09-13.1,7.89,0,12.73,7.06,11.81,14.5Zm12.86-3.6c-.24-3.46-2.51-6.58-6.29-6.58a6.5,6.5,0,0,0-6.57,6.58Z" transform="translate(0)"/><path class="cls-17" d="M949.78,897.68c.34,3.22,2.71,4.32,5.67,4.32,2.12,0,5.71-.43,5.56-3.26s-4.16-3.22-8.18-4.13-8-2.3-8-7.35c0-5.42,5.9-7.1,10.45-7.1,5.13,0,9.82,2.06,10.45,7.63h-5.76c-.53-2.64-2.61-3.31-5.08-3.31-1.59,0-4.54.38-4.54,2.54,0,2.69,4.06,3.12,8.13,4s8.08,2.35,8.08,7.25c0,5.91-6,8.07-11.18,8.07-6.34,0-10.93-2.79-11.08-8.65Z" transform="translate(0)"/><path class="cls-17" d="M974.8,897.68c.33,3.22,2.71,4.32,5.66,4.32,2.13,0,5.71-.43,5.56-3.26s-4.16-3.22-8.17-4.13-8-2.3-8-7.35c0-5.42,5.91-7.1,10.45-7.1,5.13,0,9.82,2.06,10.45,7.63H985c-.54-2.64-2.62-3.31-5.08-3.31-1.6,0-4.55.38-4.55,2.54,0,2.69,4.06,3.12,8.13,4s8.08,2.35,8.08,7.25c0,5.91-6,8.07-11.18,8.07-6.34,0-10.93-2.79-11.08-8.65Z" transform="translate(0)"/><rect class="cls-17" x="994.56" y="899.84" width="6.72" height="6.48"/><path class="cls-17" d="M1019.9,890.64c-.39-2.71-2.31-4.11-5-4.11-2.52,0-6.07,1.35-6.07,8,0,3.65,1.62,7.5,5.86,7.5,2.86,0,4.79-1.82,5.26-5h4.87c-.9,5.73-4.45,8.82-10.13,8.82-6.93,0-10.74-4.87-10.74-11.32,0-6.63,3.64-11.8,10.91-11.8,5.13,0,9.49,2.54,10,7.93Z" transform="translate(0)"/><path class="cls-17" d="M1027.63,894.25c0-6.66,4.11-11.54,11.16-11.54s11.16,4.88,11.16,11.54-4.1,11.59-11.16,11.59-11.16-4.84-11.16-11.59m17.45,0c0-3.78-1.93-7.72-6.29-7.72s-6.28,3.94-6.28,7.72,1.92,7.77,6.28,7.77,6.29-3.95,6.29-7.77" transform="translate(0)"/><path class="cls-17" d="M1053.93,883.3h4.61v3.06h.13a7.4,7.4,0,0,1,6.8-3.65c2.69,0,5.22,1.15,6.2,3.65a8,8,0,0,1,6.93-3.65c4.66,0,7.4,2.08,7.4,7.38v15.15h-4.88V892.42c0-3.52-.21-5.89-4-5.89-3.29,0-4.7,2.12-4.7,5.85v12.86h-4.88V891.15c0-3-.94-4.62-3.89-4.62-2.52,0-4.83,2.08-4.83,5.68v13h-4.87Z" transform="translate(0)"/><path class="cls-18" d="M186.5,554.3A39.54,39.54,0,1,1,147,514.76,39.53,39.53,0,0,1,186.5,554.3" transform="translate(0)"/><path class="cls-19" d="M184.25,551.65a35.6,35.6,0,1,1-35.59-35.6,35.58,35.58,0,0,1,35.59,35.6" transform="translate(0)"/><path class="cls-20" d="M154.87,554.3a7.92,7.92,0,1,1-7.91-7.92,7.91,7.91,0,0,1,7.91,7.92" transform="translate(0)"/><path class="cls-17" d="M153.92,553.61a6.59,6.59,0,1,1-6.58-6.59,6.59,6.59,0,0,1,6.58,6.59" transform="translate(0)"/><path class="cls-18" d="M343.16,445.28a39.54,39.54,0,1,1-39.54-39.54,39.53,39.53,0,0,1,39.54,39.54" transform="translate(0)"/><path class="cls-19" d="M340.92,442.63a35.6,35.6,0,1,1-35.6-35.6,35.59,35.59,0,0,1,35.6,35.6" transform="translate(0)"/><path class="cls-20" d="M311.53,445.28a7.91,7.91,0,1,1-7.91-7.92,7.91,7.91,0,0,1,7.91,7.92" transform="translate(0)"/><path class="cls-17" d="M310.59,444.59A6.59,6.59,0,1,1,304,438a6.59,6.59,0,0,1,6.59,6.59" transform="translate(0)"/><path class="cls-18" d="M497.57,571.22A39.54,39.54,0,1,1,458,531.69a39.54,39.54,0,0,1,39.54,39.53" transform="translate(0)"/><path class="cls-19" d="M495.33,568.57A35.6,35.6,0,1,1,459.73,533a35.6,35.6,0,0,1,35.6,35.59" transform="translate(0)"/><path class="cls-20" d="M466,571.22a7.92,7.92,0,1,1-7.91-7.91,7.92,7.92,0,0,1,7.91,7.91" transform="translate(0)"/><path class="cls-17" d="M465,570.54a6.59,6.59,0,1,1-6.59-6.6,6.6,6.6,0,0,1,6.59,6.6" transform="translate(0)"/><path class="cls-18" d="M655.43,459.18a39.54,39.54,0,1,1-39.54-39.54,39.55,39.55,0,0,1,39.54,39.54" transform="translate(0)"/><path class="cls-19" d="M653.18,456.53a35.6,35.6,0,1,1-35.59-35.6,35.59,35.59,0,0,1,35.59,35.6" transform="translate(0)"/><path class="cls-20" d="M623.8,459.18a7.92,7.92,0,1,1-7.91-7.92,7.91,7.91,0,0,1,7.91,7.92" transform="translate(0)"/><path class="cls-17" d="M622.85,458.49a6.59,6.59,0,1,1-6.59-6.59,6.59,6.59,0,0,1,6.59,6.59" transform="translate(0)"/><path class="cls-18" d="M342.67,665.05a39.54,39.54,0,1,1-39.54-39.53,39.54,39.54,0,0,1,39.54,39.53" transform="translate(0)"/><path class="cls-19" d="M340.43,662.41a35.6,35.6,0,1,1-35.6-35.6,35.59,35.59,0,0,1,35.6,35.6" transform="translate(0)"/><path class="cls-20" d="M311,665.05a7.92,7.92,0,1,1-7.91-7.91,7.91,7.91,0,0,1,7.91,7.91" transform="translate(0)"/><path class="cls-17" d="M310.09,664.37a6.59,6.59,0,1,1-6.58-6.59,6.59,6.59,0,0,1,6.58,6.59" transform="translate(0)"/><path class="cls-18" d="M180.28,776.68a39.54,39.54,0,1,1-39.54-39.54,39.53,39.53,0,0,1,39.54,39.54" transform="translate(0)"/><path class="cls-19" d="M178,774a35.6,35.6,0,1,1-35.59-35.6A35.6,35.6,0,0,1,178,774" transform="translate(0)"/><path class="cls-20" d="M148.66,776.68a7.92,7.92,0,1,1-7.91-7.92,7.91,7.91,0,0,1,7.91,7.92" transform="translate(0)"/><path class="cls-17" d="M147.71,776a6.59,6.59,0,1,1-6.59-6.59,6.59,6.59,0,0,1,6.59,6.59" transform="translate(0)"/><path class="cls-18" d="M495.33,795.69a39.54,39.54,0,1,1-39.54-39.53,39.54,39.54,0,0,1,39.54,39.53" transform="translate(0)"/><path class="cls-19" d="M493.09,793.05a35.6,35.6,0,1,1-35.6-35.6,35.59,35.59,0,0,1,35.6,35.6" transform="translate(0)"/><path class="cls-20" d="M463.71,795.69a7.92,7.92,0,1,1-7.92-7.91,7.91,7.91,0,0,1,7.92,7.91" transform="translate(0)"/><path class="cls-17" d="M462.76,795a6.59,6.59,0,1,1-6.59-6.59,6.59,6.59,0,0,1,6.59,6.59" transform="translate(0)"/><path class="cls-18" d="M655.05,683.11a39.54,39.54,0,1,1-39.54-39.53,39.54,39.54,0,0,1,39.54,39.53" transform="translate(0)"/><path class="cls-19" d="M652.81,680.46a35.6,35.6,0,1,1-35.6-35.59,35.6,35.6,0,0,1,35.6,35.59" transform="translate(0)"/><path class="cls-20" d="M623.42,683.11a7.91,7.91,0,1,1-7.91-7.91,7.92,7.92,0,0,1,7.91,7.91" transform="translate(0)"/><path class="cls-17" d="M622.48,682.43a6.59,6.59,0,1,1-6.59-6.6,6.59,6.59,0,0,1,6.59,6.6" transform="translate(0)"/></g><text class="cls-21" transform="translate(364.79 995.69)">RA</text><text class="cls-21" transform="translate(434.71 995.69)"><tspan class="cls-22">K5</tspan><tspan x="78.83" y="0">8</tspan></text><text class="cls-21" transform="translate(550.05 995.69)"><tspan class="cls-23">0</tspan><tspan x="31.21" y="0">1</tspan></text><text class="cls-21" transform="translate(658.26 995.69)">V</text><text class="cls-21" transform="translate(692.4 995.69)"><tspan class="cls-24">2</tspan><tspan class="cls-25" x="30.21" y="0" xml:space="preserve"> . </tspan><tspan x="76.95" y="0">0</tspan></text><path class="cls-17" d="M792,482.47,883.7,671H700.29Zm0-10.28L693.1,675.44H890.88Z" transform="translate(0)"/><rect class="cls-17" x="805.35" y="528.66" width="4.5" height="130.2" transform="translate(-106.99 1004.01) rotate(-60.48)"/><rect class="cls-17" x="807.01" y="534.12" width="4.5" height="144.04" transform="translate(-116.92 1011.72) rotate(-60.48)"/><path class="cls-17" d="M765.84,570.05l-4-2.1c.3-.56,7.35-13.91,13.11-22,6.08-8.5,39.21-15.73,43-16.53l.93,4.4c-13.53,2.87-36.43,9.41-40.24,14.75-5.58,7.81-12.73,21.32-12.8,21.46" transform="translate(0)"/><path class="cls-17" d="M822.82,603.69l-2.26-3.89c4.64-2.69,9-8.79,8.36-15.23-.8-8.09,3.21-20.2,3.39-20.71l4.26,1.43c0,.11-3.88,11.7-3.17,18.84.86,8.72-4.88,16.25-10.58,19.56" transform="translate(0)"/><path class="cls-17" d="M774.82,627.7a13.14,13.14,0,0,1-1.73-.12c-9.35-1.16-21.21-30.56-21.33-30.86-4.34-10.87,5.4-20.21,5.82-20.6l3.09,3.27c-.08.07-7.93,7.66-4.73,15.66,5.14,12.85,13.8,27.59,17.71,28.08,2.09.25,3.32-.16,3.61-.68s-.07-2.3-1.81-4.49c-4.66-5.82-10.16-18.77-9.67-22.74.43-3.37,4.26-9.72,5-11l3.83,2.37c-1.69,2.73-4.17,7.38-4.39,9.15-.25,2.14,4.24,13.77,8.71,19.36,3.87,4.83,3.06,8,2.23,9.5-1.1,2-3.38,3.06-6.36,3.06" transform="translate(0)"/><path class="cls-17" d="M792.41,636.63a5.73,5.73,0,0,1-2.74-.64c-1.62-.85-3.44-2.91-2.84-7.84,1.21-10.1,14.25-26.09,14.8-26.77l3.48,2.85c-3.55,4.33-12.94,17.15-13.81,24.45-.25,2,.06,3.12.46,3.34,1.15.6,5-.91,8.25-3.76,3.73-3.29,11.72-15,14.48-19.31l3.78,2.44c-.42.65-10.33,15.88-15.29,20.25-2.4,2.1-6.79,5-10.57,5" transform="translate(0)"/><path class="cls-17" d="M791,620.42c-6.07,0-16.36-6.13-18.52-7.46l2.36-3.83c7.29,4.48,15.34,7.67,16.86,6.69a3.77,3.77,0,0,0,.39-3.19c-.82-2.63-4.25-5.46-9.4-7.77-4-1.8-6.49-4.16-7.35-7-1.21-4,1.14-7.72,2.39-9.71l3.8,2.4c-1.21,1.92-2.45,4.11-1.88,6,.46,1.53,2.11,2.94,4.89,4.18,6.51,2.92,10.61,6.57,11.84,10.54a8.25,8.25,0,0,1-.89,6.93,4.51,4.51,0,0,1-2.9,2,6.69,6.69,0,0,1-1.59.17" transform="translate(0)"/><rect class="cls-17" x="783.42" y="492.7" width="18.07" height="4.5"/><rect class="cls-17" x="778.07" y="503.7" width="27.84" height="4.5"/><rect class="cls-17" x="772.72" y="514.69" width="38.55" height="4.5"/><rect class="cls-17" x="767.37" y="525.69" width="49.25" height="4.5"/><rect class="cls-17" x="762.94" y="536.69" width="29.18" height="4.5"/><rect class="cls-17" x="756.67" y="547.68" width="18.33" height="4.5"/><rect class="cls-17" x="752.31" y="558.68" width="15.57" height="4.5"/><rect class="cls-17" x="740.62" y="580.67" width="14.61" height="4.5"/><rect class="cls-17" x="831.69" y="580.67" width="11.68" height="4.5"/><rect class="cls-17" x="735.27" y="591.67" width="18.59" height="4.5"/><rect class="cls-17" x="829.7" y="591.67" width="18.59" height="4.5"/><rect class="cls-17" x="730.94" y="602.67" width="26.96" height="4.5"/><rect class="cls-17" x="827.3" y="602.67" width="26.77" height="4.5"/><rect class="cls-17" x="724.48" y="613.67" width="39.51" height="4.5"/><rect class="cls-17" x="812.53" y="613.67" width="14.14" height="4.5"/><rect class="cls-17" x="846.72" y="613.67" width="12.02" height="4.5"/><rect class="cls-17" x="719.22" y="624.66" width="69.75" height="4.5"/><rect class="cls-17" x="804.35" y="624.66" width="42.41" height="4.5"/><rect class="cls-17" x="715.58" y="635.66" width="149.27" height="4.5"/><rect class="cls-17" x="708.51" y="646.66" width="166.96" height="4.5"/><rect class="cls-17" x="702.67" y="657.65" width="177.97" height="4.5"/><path class="cls-17" d="M1034.06,658.39c-.23,0-.46,0-.71,0a7,7,0,0,0-7,7,6.42,6.42,0,0,0,.13,1.32,7,7,0,0,0,6.88,5.68,7,7,0,0,0,.71-14m-.71,8.58a1.51,1.51,0,0,1-.94-.3,1.59,1.59,0,0,1-.69-1.32,1.63,1.63,0,0,1,1.63-1.63.93.93,0,0,1,.23,0,1.62,1.62,0,0,1-.23,3.23" transform="translate(0)"/><path class="cls-17" d="M1041.08,646.35c.14-1.5.27-3,.41-4.47l29.85,31.18v-6.9l-29.27-30.56c1.08-11.93,2.18-23.8,3.26-35.53,1.57-17.1,3.19-34.3,4.8-51.45h15v-22h-6l12.24-12.79V507l-12,12.54-6.84,7.15-.31.32a2.91,2.91,0,0,1,0-.32c.22-2.4.46-4.77.68-7.15h6.44V516a8.42,8.42,0,1,0-9.69-12.9,44.74,44.74,0,0,0-10-5.57,101,101,0,0,0-20.9-5v-4.75H987.09v3.84a122,122,0,0,0-16.86,2.24v-2.68h-13.8v6.6a43.48,43.48,0,0,0-12.75,8.2,2.87,2.87,0,0,0-.83,2.34c.06.69.12,1.37.19,2.06h-7.79v9.09h8.66c.48,5,1,10,1.44,15.1l-16-16.74v6.91l16.77,17.5c1.81,19.24,3.62,38.58,5.4,57.8q1.35,14.5,2.68,29.24l-24.85,26v6.9l25.42-26.55q1.56,17.11,3.11,34.3a3,3,0,0,0,2.94,2.68v14.69h12.09V672.59h41.28a20.51,20.51,0,1,0,26.93-26.24m15.32-142a3.74,3.74,0,0,1,3.74,3.74,3.65,3.65,0,0,1-.81,2.31h-5.57c.07-.69.13-1.37.2-2.06a2.88,2.88,0,0,0-.75-2.22,3.75,3.75,0,0,1,3.19-1.77m-4.94,30.27,2.82-2.94h5.46v11.9h-9.14q.42-4.49.86-9m-12,64.89q-1.38,15.09-2.8,30.41L998.41,590l23.43-24.46h5.75v-6l16.25-17v6h.35c-1.6,17-3.19,34-4.75,50.9m-19.4-39h-29v-4.31h31.11v2.08Zm-27.57-67.67h20.87v4.3H992.47Zm-22.24,7.09a118.92,118.92,0,0,1,16.86-2.36v4.62h31.65v-3.67a95.37,95.37,0,0,1,18.86,4.53,39.76,39.76,0,0,1,10.35,6.18q-.08.58-.12,1.17h-77.6Zm-8.39-3.68h3v9.11h-3Zm-13,13a41.68,41.68,0,0,1,7.57-4.95v6.12H949c0-.39-.07-.78-.11-1.17m1,10.26H1047c-.23,2.38-.45,4.76-.69,7.15h-2.43v9l-16.25,17v-1.49H985.67v14.4h29.55l-20.12,21-43.19-45.1q-1-11-2.08-22m7.52,80c-1.55-16.76-3.13-33.6-4.72-50.4L991.8,590l-32.23,33.65q-1.11-12.15-2.22-24.15m10.78,83.79h-2.61v-7.16h2.61Zm44.71-18c0,.44,0,.88,0,1.33H963.48c-1.1-12.24-2.21-24.51-3.34-36.71l35-36.51,41,42.77c-.27,2.9-.53,5.8-.8,8.7a17.46,17.46,0,0,0-1.93-.09,20.5,20.5,0,0,0-20.5,20.51m20.5,10.68a10.64,10.64,0,0,1-7.86-3.44,10.76,10.76,0,0,1-2.75-5.91,11.61,11.61,0,0,1-.07-1.33,10.68,10.68,0,0,1,10.68-10.69,9.29,9.29,0,0,1,1.06.05,10.69,10.69,0,0,1-1.06,21.32" transform="translate(0)"/><polygon class="cls-17" points="482.71 258.34 482.71 269.18 472.56 269.18 472.56 258.34 442.49 258.34 442.49 269.18 432.33 269.18 432.33 258.34 405.32 258.34 405.32 269.18 394.62 269.18 394.62 325.98 519.9 325.98 519.9 269.18 510.37 269.18 510.37 258.34 482.71 258.34"/><polygon class="cls-17" points="346.81 389.3 352.08 389.3 357.44 411.96 357.52 411.96 363.5 389.3 368.81 389.3 374.62 411.96 374.7 411.96 380.22 389.3 385.5 389.3 377.32 418.94 372.05 418.94 366.11 396.27 366.03 396.27 359.97 418.94 354.62 418.94 346.81 389.3"/><path class="cls-17" d="M389.1,389.3h4.73v4.49H389.1Zm0,8.18h4.73v21.46H389.1Z" transform="translate(0)"/><path class="cls-17" d="M404.14,412.05c.29,2.78,2.32,3.73,4.85,3.73,1.83,0,4.9-.37,4.78-2.82s-3.57-2.78-7-3.57-6.89-2-6.89-6.35c0-4.69,5.06-6.14,9-6.14,4.4,0,8.42,1.78,9,6.6h-4.94c-.45-2.29-2.24-2.87-4.35-2.87-1.38,0-3.91.33-3.91,2.2,0,2.33,3.49,2.7,7,3.45s6.93,2,6.93,6.27c0,5.1-5.15,7-9.59,7-5.44,0-9.38-2.41-9.51-7.47Z" transform="translate(0)"/><path class="cls-17" d="M423.89,389.3h13.95c5.64,0,9.46,1.83,9.46,7.35a6.43,6.43,0,0,1-4,6.18c3.65,1,5.44,3.82,5.44,7.52,0,6-5.11,8.59-10.46,8.59H423.89Zm6.51,12H437c2.33,0,4-1,4-3.53,0-2.78-2.16-3.4-4.48-3.4H430.4Zm0,12.57h7c2.53,0,4.81-.83,4.81-3.9s-1.86-4.23-4.69-4.23h-7.1Z" transform="translate(0)"/><polygon class="cls-17" points="453.11 389.3 459.62 389.3 459.62 413.46 474.07 413.46 474.07 418.94 453.11 418.94 453.11 389.3"/><path class="cls-17" d="M491,388.6c9.14,0,14.57,6.85,14.57,15.64,0,8.55-5.43,15.4-14.57,15.4s-14.57-6.85-14.57-15.4c0-8.79,5.44-15.64,14.57-15.64m0,25.56c5.86,0,8.06-5,8.06-9.92,0-5.18-2.2-10.16-8.06-10.16s-8.05,5-8.05,10.16c0,4.94,2.2,9.92,8.05,9.92" transform="translate(0)"/><path class="cls-17" d="M529.76,399.27a6.47,6.47,0,0,0-6.48-5.19c-5.85,0-8,5-8,10.16,0,4.94,2.2,9.92,8,9.92,4,0,6.23-2.69,6.72-6.64h6.31c-.66,7.43-5.72,12.12-13,12.12-9.13,0-14.57-6.85-14.57-15.4,0-8.79,5.44-15.64,14.57-15.64,6.48,0,12,3.82,12.78,10.67Z" transform="translate(0)"/><polygon class="cls-17" points="540.75 389.3 547.27 389.3 547.27 401.59 558.85 389.3 566.98 389.3 555.4 401.01 568.1 418.94 559.92 418.94 551 405.61 547.27 409.39 547.27 418.94 540.75 418.94 540.75 389.3"/><rect class="cls-1" y="235.42" width="1103.86" height="793.94"/><rect class="cls-1" y="235.42" width="1103.86" height="793.94" rx="21.86"/></g><text class="cls-26" transform="translate(1055.12 269.44)">1</text><text class="cls-26" transform="translate(1060.14 376.52)">2</text><text class="cls-26" transform="translate(789.2 264.45)">39</text><text class="cls-26" transform="translate(789.88 376.52)">40</text><path class="cls-27" d="M1081.77,335.42h-3.69c-3.4,0-6.15-2.09-6.15-4.67V281.31c0-2.58,2.75-4.67,6.15-4.67h3.69c3.4,0,6.15,2.09,6.15,4.67v49.44c0,2.58-2.75,4.67-6.15,4.67" transform="translate(0)"/><path class="cls-27" d="M791.43,335.42h-3.68c-3.38,0-6.12-2-6.12-4.56V282.6c0-2.51,2.74-4.55,6.12-4.55h3.68c3.39,0,6.14,2,6.14,4.55v48.26c0,2.52-2.75,4.56-6.14,4.56" transform="translate(0)"/><path class="cls-28" d="M1089.34,293.78v-4.56c0-2.43.34-4.41-3.34-4.41h-14.26c-2.81,0-2.49,1.16-3.47,2.8H799.93c-1-1.64-1.14-2.8-3.95-2.8h-9.66c-3.67,0-6.64,2-6.64,4.41v4.56c0,2,2,3.66,4.72,4.21v17.62c-2.72.55-4.72,2.21-4.72,4.21v4.55c0,2.44,3,4.42,6.64,4.42h10c2.9,0,2.86-1.25,3.77-3H1068.4c.91,1.72.63,3,3.53,3h10.77c3.67,0,6.64-2,6.64-4.42v-4.55c0-1.85-1.71-3.43-4.13-4.09V297.86c2.42-.65,4.13-2.23,4.13-4.08" transform="translate(0)"/><path class="cls-29" d="M1064,321.84H803.43c-2,0-3.65-1-3.65-2.25V294.87c0-1.25,1.63-2.26,3.65-2.26H1064c2,0,3.65,1,3.65,2.26v24.72c0,1.24-1.63,2.25-3.65,2.25" transform="translate(0)"/><path class="cls-27" d="M816.5,269.44h-5.07a1.36,1.36,0,0,0-1.36,1.36v4.49a1.35,1.35,0,0,0,1.28,1.34v12h5.23v-12a1.35,1.35,0,0,0,1.28-1.34V270.8a1.36,1.36,0,0,0-1.36-1.36" transform="translate(0)"/><path class="cls-30" d="M815.88,293.05h-6.74a1.08,1.08,0,0,1-1.08-1.08v-3.29a1.08,1.08,0,0,1,1.08-1.07h6.74a1.07,1.07,0,0,1,1.08,1.07V292a1.08,1.08,0,0,1-1.08,1.08" transform="translate(0)"/><path class="cls-27" d="M816.5,345h-5.07a1.36,1.36,0,0,1-1.36-1.36v-4.48a1.35,1.35,0,0,1,1.28-1.35v-12h5.23v12a1.35,1.35,0,0,1,1.28,1.35v4.48A1.36,1.36,0,0,1,816.5,345" transform="translate(0)"/><path class="cls-30" d="M815.88,321.41h-6.74a1.08,1.08,0,0,0-1.08,1.08v3.28a1.08,1.08,0,0,0,1.08,1.08h6.74a1.08,1.08,0,0,0,1.08-1.08v-3.28a1.08,1.08,0,0,0-1.08-1.08" transform="translate(0)"/><path class="cls-27" d="M828.86,269.44h-5.08a1.36,1.36,0,0,0-1.36,1.36v4.49a1.35,1.35,0,0,0,1.29,1.34v12h5.22v-12a1.36,1.36,0,0,0,1.29-1.34V270.8a1.36,1.36,0,0,0-1.36-1.36" transform="translate(0)"/><path class="cls-30" d="M828.24,293.05H821.5a1.08,1.08,0,0,1-1.08-1.08v-3.29a1.07,1.07,0,0,1,1.08-1.07h6.74a1.08,1.08,0,0,1,1.08,1.07V292a1.08,1.08,0,0,1-1.08,1.08" transform="translate(0)"/><path class="cls-27" d="M828.86,345h-5.08a1.36,1.36,0,0,1-1.36-1.36v-4.48a1.35,1.35,0,0,1,1.29-1.35v-12h5.22v12a1.36,1.36,0,0,1,1.29,1.35v4.48a1.36,1.36,0,0,1-1.36,1.36" transform="translate(0)"/><path class="cls-30" d="M828.24,321.41H821.5a1.08,1.08,0,0,0-1.08,1.08v3.28a1.08,1.08,0,0,0,1.08,1.08h6.74a1.08,1.08,0,0,0,1.08-1.08v-3.28a1.08,1.08,0,0,0-1.08-1.08" transform="translate(0)"/><path class="cls-27" d="M842,269.44h-5.07a1.36,1.36,0,0,0-1.37,1.36v4.49a1.35,1.35,0,0,0,1.29,1.34v12H842v-12a1.35,1.35,0,0,0,1.29-1.34V270.8a1.36,1.36,0,0,0-1.36-1.36" transform="translate(0)"/><path class="cls-30" d="M841.33,293.05h-6.74a1.08,1.08,0,0,1-1.08-1.08v-3.29a1.07,1.07,0,0,1,1.08-1.07h6.74a1.08,1.08,0,0,1,1.08,1.07V292a1.08,1.08,0,0,1-1.08,1.08" transform="translate(0)"/><path class="cls-27" d="M842,345h-5.07a1.36,1.36,0,0,1-1.37-1.36v-4.48a1.35,1.35,0,0,1,1.29-1.35v-12H842v12a1.35,1.35,0,0,1,1.29,1.35v4.48A1.36,1.36,0,0,1,842,345" transform="translate(0)"/><path class="cls-30" d="M841.33,321.41h-6.74a1.08,1.08,0,0,0-1.08,1.08v3.28a1.08,1.08,0,0,0,1.08,1.08h6.74a1.08,1.08,0,0,0,1.08-1.08v-3.28a1.08,1.08,0,0,0-1.08-1.08" transform="translate(0)"/><path class="cls-27" d="M854.74,269.44h-5.07a1.36,1.36,0,0,0-1.36,1.36v4.49a1.35,1.35,0,0,0,1.28,1.34v12h5.23v-12a1.35,1.35,0,0,0,1.28-1.34V270.8a1.36,1.36,0,0,0-1.36-1.36" transform="translate(0)"/><path class="cls-30" d="M854.12,293.05h-6.74A1.08,1.08,0,0,1,846.3,292v-3.29a1.08,1.08,0,0,1,1.08-1.07h6.74a1.08,1.08,0,0,1,1.09,1.07V292a1.08,1.08,0,0,1-1.09,1.08" transform="translate(0)"/><path class="cls-27" d="M854.74,345h-5.07a1.36,1.36,0,0,1-1.36-1.36v-4.48a1.35,1.35,0,0,1,1.28-1.35v-12h5.23v12a1.35,1.35,0,0,1,1.28,1.35v4.48a1.36,1.36,0,0,1-1.36,1.36" transform="translate(0)"/><path class="cls-30" d="M854.12,321.41h-6.74a1.08,1.08,0,0,0-1.08,1.08v3.28a1.08,1.08,0,0,0,1.08,1.08h6.74a1.08,1.08,0,0,0,1.09-1.08v-3.28a1.08,1.08,0,0,0-1.09-1.08" transform="translate(0)"/><path class="cls-27" d="M867.21,269.44h-5.08a1.36,1.36,0,0,0-1.36,1.36v4.49a1.35,1.35,0,0,0,1.29,1.34v12h5.22v-12a1.35,1.35,0,0,0,1.29-1.34V270.8a1.36,1.36,0,0,0-1.36-1.36" transform="translate(0)"/><path class="cls-30" d="M866.59,293.05h-6.74a1.08,1.08,0,0,1-1.08-1.08v-3.29a1.07,1.07,0,0,1,1.08-1.07h6.74a1.08,1.08,0,0,1,1.08,1.07V292a1.08,1.08,0,0,1-1.08,1.08" transform="translate(0)"/><path class="cls-27" d="M867.21,345h-5.08a1.36,1.36,0,0,1-1.36-1.36v-4.48a1.35,1.35,0,0,1,1.29-1.35v-12h5.22v12a1.35,1.35,0,0,1,1.29,1.35v4.48a1.36,1.36,0,0,1-1.36,1.36" transform="translate(0)"/><path class="cls-30" d="M866.59,321.41h-6.74a1.08,1.08,0,0,0-1.08,1.08v3.28a1.08,1.08,0,0,0,1.08,1.08h6.74a1.08,1.08,0,0,0,1.08-1.08v-3.28a1.08,1.08,0,0,0-1.08-1.08" transform="translate(0)"/><path class="cls-27" d="M879.56,269.44h-5.07a1.36,1.36,0,0,0-1.36,1.36v4.49a1.35,1.35,0,0,0,1.28,1.34v12h5.23v-12a1.36,1.36,0,0,0,1.29-1.34V270.8a1.36,1.36,0,0,0-1.37-1.36" transform="translate(0)"/><path class="cls-30" d="M878.94,293.05H872.2a1.08,1.08,0,0,1-1.08-1.08v-3.29a1.08,1.08,0,0,1,1.08-1.07h6.74a1.07,1.07,0,0,1,1.08,1.07V292a1.08,1.08,0,0,1-1.08,1.08" transform="translate(0)"/><path class="cls-27" d="M879.56,345h-5.07a1.36,1.36,0,0,1-1.36-1.36v-4.48a1.35,1.35,0,0,1,1.28-1.35v-12h5.23v12a1.36,1.36,0,0,1,1.29,1.35v4.48a1.36,1.36,0,0,1-1.37,1.36" transform="translate(0)"/><path class="cls-30" d="M878.94,321.41H872.2a1.08,1.08,0,0,0-1.08,1.08v3.28a1.08,1.08,0,0,0,1.08,1.08h6.74a1.08,1.08,0,0,0,1.08-1.08v-3.28a1.08,1.08,0,0,0-1.08-1.08" transform="translate(0)"/><path class="cls-27" d="M892.06,269.44H887a1.36,1.36,0,0,0-1.36,1.36v4.49a1.35,1.35,0,0,0,1.29,1.34v12h5.22v-12a1.36,1.36,0,0,0,1.29-1.34V270.8a1.36,1.36,0,0,0-1.37-1.36" transform="translate(0)"/><path class="cls-30" d="M891.45,293.05H884.7a1.07,1.07,0,0,1-1.07-1.08v-3.29a1.07,1.07,0,0,1,1.07-1.07h6.75a1.07,1.07,0,0,1,1.07,1.07V292a1.07,1.07,0,0,1-1.07,1.08" transform="translate(0)"/><path class="cls-27" d="M892.06,345H887a1.36,1.36,0,0,1-1.36-1.36v-4.48a1.35,1.35,0,0,1,1.29-1.35v-12h5.22v12a1.36,1.36,0,0,1,1.29,1.35v4.48a1.36,1.36,0,0,1-1.37,1.36" transform="translate(0)"/><path class="cls-30" d="M891.45,321.41H884.7a1.07,1.07,0,0,0-1.07,1.08v3.28a1.07,1.07,0,0,0,1.07,1.08h6.75a1.07,1.07,0,0,0,1.07-1.08v-3.28a1.07,1.07,0,0,0-1.07-1.08" transform="translate(0)"/><path class="cls-27" d="M904.71,269.44h-5.07a1.36,1.36,0,0,0-1.36,1.36v4.49a1.35,1.35,0,0,0,1.28,1.34v12h5.23v-12a1.36,1.36,0,0,0,1.29-1.34V270.8a1.36,1.36,0,0,0-1.37-1.36" transform="translate(0)"/><path class="cls-30" d="M904.09,293.05h-6.74a1.08,1.08,0,0,1-1.08-1.08v-3.29a1.08,1.08,0,0,1,1.08-1.07h6.74a1.07,1.07,0,0,1,1.08,1.07V292a1.08,1.08,0,0,1-1.08,1.08" transform="translate(0)"/><path class="cls-27" d="M904.71,345h-5.07a1.36,1.36,0,0,1-1.36-1.36v-4.48a1.35,1.35,0,0,1,1.28-1.35v-12h5.23v12a1.36,1.36,0,0,1,1.29,1.35v4.48a1.36,1.36,0,0,1-1.37,1.36" transform="translate(0)"/><path class="cls-30" d="M904.09,321.41h-6.74a1.08,1.08,0,0,0-1.08,1.08v3.28a1.08,1.08,0,0,0,1.08,1.08h6.74a1.08,1.08,0,0,0,1.08-1.08v-3.28a1.08,1.08,0,0,0-1.08-1.08" transform="translate(0)"/><path class="cls-27" d="M917.36,269.44h-5.07a1.36,1.36,0,0,0-1.36,1.36v4.49a1.35,1.35,0,0,0,1.28,1.34v12h5.22v-12a1.35,1.35,0,0,0,1.29-1.34V270.8a1.36,1.36,0,0,0-1.36-1.36" transform="translate(0)"/><path class="cls-30" d="M916.74,293.05H910a1.08,1.08,0,0,1-1.08-1.08v-3.29a1.08,1.08,0,0,1,1.08-1.07h6.74a1.08,1.08,0,0,1,1.09,1.07V292a1.08,1.08,0,0,1-1.09,1.08" transform="translate(0)"/><path class="cls-27" d="M917.36,345h-5.07a1.36,1.36,0,0,1-1.36-1.36v-4.48a1.35,1.35,0,0,1,1.28-1.35v-12h5.22v12a1.35,1.35,0,0,1,1.29,1.35v4.48a1.36,1.36,0,0,1-1.36,1.36" transform="translate(0)"/><path class="cls-30" d="M916.74,321.41H910a1.08,1.08,0,0,0-1.08,1.08v3.28a1.08,1.08,0,0,0,1.08,1.08h6.74a1.08,1.08,0,0,0,1.09-1.08v-3.28a1.08,1.08,0,0,0-1.09-1.08" transform="translate(0)"/><path class="cls-27" d="M929.86,269.44h-5.07a1.36,1.36,0,0,0-1.36,1.36v4.49a1.35,1.35,0,0,0,1.28,1.34v12h5.23v-12a1.36,1.36,0,0,0,1.29-1.34V270.8a1.36,1.36,0,0,0-1.37-1.36" transform="translate(0)"/><path class="cls-30" d="M929.24,293.05H922.5a1.08,1.08,0,0,1-1.08-1.08v-3.29a1.08,1.08,0,0,1,1.08-1.07h6.74a1.08,1.08,0,0,1,1.09,1.07V292a1.08,1.08,0,0,1-1.09,1.08" transform="translate(0)"/><path class="cls-27" d="M929.86,345h-5.07a1.36,1.36,0,0,1-1.36-1.36v-4.48a1.35,1.35,0,0,1,1.28-1.35v-12h5.23v12a1.36,1.36,0,0,1,1.29,1.35v4.48a1.36,1.36,0,0,1-1.37,1.36" transform="translate(0)"/><path class="cls-30" d="M929.24,321.41H922.5a1.08,1.08,0,0,0-1.08,1.08v3.28a1.08,1.08,0,0,0,1.08,1.08h6.74a1.08,1.08,0,0,0,1.09-1.08v-3.28a1.08,1.08,0,0,0-1.09-1.08" transform="translate(0)"/><path class="cls-27" d="M942.81,269.44h-5.08a1.36,1.36,0,0,0-1.36,1.36v4.49a1.35,1.35,0,0,0,1.29,1.34v12h5.22v-12a1.35,1.35,0,0,0,1.29-1.34V270.8a1.36,1.36,0,0,0-1.36-1.36" transform="translate(0)"/><path class="cls-30" d="M942.19,293.05h-6.74a1.08,1.08,0,0,1-1.08-1.08v-3.29a1.07,1.07,0,0,1,1.08-1.07h6.74a1.08,1.08,0,0,1,1.08,1.07V292a1.08,1.08,0,0,1-1.08,1.08" transform="translate(0)"/><path class="cls-27" d="M942.81,345h-5.08a1.36,1.36,0,0,1-1.36-1.36v-4.48a1.35,1.35,0,0,1,1.29-1.35v-12h5.22v12a1.35,1.35,0,0,1,1.29,1.35v4.48a1.36,1.36,0,0,1-1.36,1.36" transform="translate(0)"/><path class="cls-30" d="M942.19,321.41h-6.74a1.08,1.08,0,0,0-1.08,1.08v3.28a1.08,1.08,0,0,0,1.08,1.08h6.74a1.08,1.08,0,0,0,1.08-1.08v-3.28a1.08,1.08,0,0,0-1.08-1.08" transform="translate(0)"/><path class="cls-27" d="M955.46,269.44h-5.07A1.36,1.36,0,0,0,949,270.8v4.49a1.35,1.35,0,0,0,1.28,1.34v12h5.23v-12a1.35,1.35,0,0,0,1.28-1.34V270.8a1.36,1.36,0,0,0-1.36-1.36" transform="translate(0)"/><path class="cls-30" d="M954.84,293.05H948.1A1.08,1.08,0,0,1,947,292v-3.29a1.07,1.07,0,0,1,1.08-1.07h6.74a1.08,1.08,0,0,1,1.08,1.07V292a1.08,1.08,0,0,1-1.08,1.08" transform="translate(0)"/><path class="cls-27" d="M955.46,345h-5.07a1.36,1.36,0,0,1-1.36-1.36v-4.48a1.35,1.35,0,0,1,1.28-1.35v-12h5.23v12a1.35,1.35,0,0,1,1.28,1.35v4.48a1.36,1.36,0,0,1-1.36,1.36" transform="translate(0)"/><path class="cls-30" d="M954.84,321.41H948.1a1.08,1.08,0,0,0-1.08,1.08v3.28a1.08,1.08,0,0,0,1.08,1.08h6.74a1.08,1.08,0,0,0,1.08-1.08v-3.28a1.08,1.08,0,0,0-1.08-1.08" transform="translate(0)"/><path class="cls-27" d="M968.41,269.44h-5.08A1.36,1.36,0,0,0,962,270.8v4.49a1.35,1.35,0,0,0,1.29,1.34v12h5.22v-12a1.35,1.35,0,0,0,1.29-1.34V270.8a1.36,1.36,0,0,0-1.36-1.36" transform="translate(0)"/><path class="cls-30" d="M967.79,293.05h-6.74A1.08,1.08,0,0,1,960,292v-3.29a1.08,1.08,0,0,1,1.09-1.07h6.74a1.08,1.08,0,0,1,1.08,1.07V292a1.08,1.08,0,0,1-1.08,1.08" transform="translate(0)"/><path class="cls-27" d="M968.41,345h-5.08a1.36,1.36,0,0,1-1.36-1.36v-4.48a1.35,1.35,0,0,1,1.29-1.35v-12h5.22v12a1.35,1.35,0,0,1,1.29,1.35v4.48a1.36,1.36,0,0,1-1.36,1.36" transform="translate(0)"/><path class="cls-30" d="M967.79,321.41h-6.74a1.08,1.08,0,0,0-1.09,1.08v3.28a1.08,1.08,0,0,0,1.09,1.08h6.74a1.08,1.08,0,0,0,1.08-1.08v-3.28a1.08,1.08,0,0,0-1.08-1.08" transform="translate(0)"/><path class="cls-27" d="M980.91,269.44h-5.08a1.36,1.36,0,0,0-1.36,1.36v4.49a1.35,1.35,0,0,0,1.29,1.34v12H981v-12a1.35,1.35,0,0,0,1.29-1.34V270.8a1.36,1.36,0,0,0-1.36-1.36" transform="translate(0)"/><path class="cls-30" d="M980.29,293.05h-6.74a1.08,1.08,0,0,1-1.08-1.08v-3.29a1.07,1.07,0,0,1,1.08-1.07h6.74a1.08,1.08,0,0,1,1.08,1.07V292a1.08,1.08,0,0,1-1.08,1.08" transform="translate(0)"/><path class="cls-27" d="M980.91,345h-5.08a1.36,1.36,0,0,1-1.36-1.36v-4.48a1.35,1.35,0,0,1,1.29-1.35v-12H981v12a1.35,1.35,0,0,1,1.29,1.35v4.48a1.36,1.36,0,0,1-1.36,1.36" transform="translate(0)"/><path class="cls-30" d="M980.29,321.41h-6.74a1.08,1.08,0,0,0-1.08,1.08v3.28a1.08,1.08,0,0,0,1.08,1.08h6.74a1.08,1.08,0,0,0,1.08-1.08v-3.28a1.08,1.08,0,0,0-1.08-1.08" transform="translate(0)"/><path class="cls-27" d="M993.56,269.44h-5.08a1.36,1.36,0,0,0-1.36,1.36v4.49a1.35,1.35,0,0,0,1.29,1.34v12h5.22v-12a1.35,1.35,0,0,0,1.29-1.34V270.8a1.36,1.36,0,0,0-1.36-1.36" transform="translate(0)"/><path class="cls-30" d="M992.94,293.05H986.2a1.08,1.08,0,0,1-1.08-1.08v-3.29a1.07,1.07,0,0,1,1.08-1.07h6.74a1.08,1.08,0,0,1,1.08,1.07V292a1.08,1.08,0,0,1-1.08,1.08" transform="translate(0)"/><path class="cls-27" d="M993.56,345h-5.08a1.36,1.36,0,0,1-1.36-1.36v-4.48a1.35,1.35,0,0,1,1.29-1.35v-12h5.22v12a1.35,1.35,0,0,1,1.29,1.35v4.48a1.36,1.36,0,0,1-1.36,1.36" transform="translate(0)"/><path class="cls-30" d="M992.94,321.41H986.2a1.08,1.08,0,0,0-1.08,1.08v3.28a1.08,1.08,0,0,0,1.08,1.08h6.74a1.08,1.08,0,0,0,1.08-1.08v-3.28a1.08,1.08,0,0,0-1.08-1.08" transform="translate(0)"/><path class="cls-27" d="M1006.21,269.44h-5.08a1.36,1.36,0,0,0-1.36,1.36v4.49a1.35,1.35,0,0,0,1.29,1.34v12h5.22v-12a1.35,1.35,0,0,0,1.29-1.34V270.8a1.36,1.36,0,0,0-1.36-1.36" transform="translate(0)"/><path class="cls-30" d="M1005.59,293.05h-6.74a1.08,1.08,0,0,1-1.08-1.08v-3.29a1.07,1.07,0,0,1,1.08-1.07h6.74a1.08,1.08,0,0,1,1.08,1.07V292a1.08,1.08,0,0,1-1.08,1.08" transform="translate(0)"/><path class="cls-27" d="M1006.21,345h-5.08a1.36,1.36,0,0,1-1.36-1.36v-4.48a1.35,1.35,0,0,1,1.29-1.35v-12h5.22v12a1.35,1.35,0,0,1,1.29,1.35v4.48a1.36,1.36,0,0,1-1.36,1.36" transform="translate(0)"/><path class="cls-30" d="M1005.59,321.41h-6.74a1.08,1.08,0,0,0-1.08,1.08v3.28a1.08,1.08,0,0,0,1.08,1.08h6.74a1.08,1.08,0,0,0,1.08-1.08v-3.28a1.08,1.08,0,0,0-1.08-1.08" transform="translate(0)"/><path class="cls-27" d="M1018.71,269.44h-5.08a1.36,1.36,0,0,0-1.36,1.36v4.49a1.35,1.35,0,0,0,1.29,1.34v12h5.22v-12a1.35,1.35,0,0,0,1.29-1.34V270.8a1.36,1.36,0,0,0-1.36-1.36" transform="translate(0)"/><path class="cls-30" d="M1018.09,293.05h-6.74a1.08,1.08,0,0,1-1.08-1.08v-3.29a1.07,1.07,0,0,1,1.08-1.07h6.74a1.08,1.08,0,0,1,1.08,1.07V292a1.08,1.08,0,0,1-1.08,1.08" transform="translate(0)"/><path class="cls-27" d="M1018.71,345h-5.08a1.36,1.36,0,0,1-1.36-1.36v-4.48a1.35,1.35,0,0,1,1.29-1.35v-12h5.22v12a1.35,1.35,0,0,1,1.29,1.35v4.48a1.36,1.36,0,0,1-1.36,1.36" transform="translate(0)"/><path class="cls-30" d="M1018.09,321.41h-6.74a1.08,1.08,0,0,0-1.08,1.08v3.28a1.08,1.08,0,0,0,1.08,1.08h6.74a1.08,1.08,0,0,0,1.08-1.08v-3.28a1.08,1.08,0,0,0-1.08-1.08" transform="translate(0)"/><path class="cls-27" d="M1031.65,269.44h-5.07a1.36,1.36,0,0,0-1.37,1.36v4.49a1.36,1.36,0,0,0,1.29,1.34v12h5.22v-12a1.35,1.35,0,0,0,1.29-1.34V270.8a1.36,1.36,0,0,0-1.36-1.36" transform="translate(0)"/><path class="cls-30" d="M1031,293.05h-6.74a1.08,1.08,0,0,1-1.08-1.08v-3.29a1.08,1.08,0,0,1,1.08-1.07H1031a1.07,1.07,0,0,1,1.08,1.07V292a1.08,1.08,0,0,1-1.08,1.08" transform="translate(0)"/><path class="cls-27" d="M1031.65,345h-5.07a1.36,1.36,0,0,1-1.37-1.36v-4.48a1.36,1.36,0,0,1,1.29-1.35v-12h5.22v12a1.35,1.35,0,0,1,1.29,1.35v4.48a1.36,1.36,0,0,1-1.36,1.36" transform="translate(0)"/><path class="cls-30" d="M1031,321.41h-6.74a1.08,1.08,0,0,0-1.08,1.08v3.28a1.08,1.08,0,0,0,1.08,1.08H1031a1.08,1.08,0,0,0,1.08-1.08v-3.28a1.08,1.08,0,0,0-1.08-1.08" transform="translate(0)"/><path class="cls-27" d="M1044.31,269.44h-5.08a1.36,1.36,0,0,0-1.36,1.36v4.49a1.35,1.35,0,0,0,1.29,1.34v12h5.22v-12a1.36,1.36,0,0,0,1.29-1.34V270.8a1.36,1.36,0,0,0-1.36-1.36" transform="translate(0)"/><path class="cls-30" d="M1043.69,293.05h-6.75a1.07,1.07,0,0,1-1.07-1.08v-3.29a1.07,1.07,0,0,1,1.07-1.07h6.75a1.07,1.07,0,0,1,1.07,1.07V292a1.07,1.07,0,0,1-1.07,1.08" transform="translate(0)"/><path class="cls-27" d="M1044.31,345h-5.08a1.36,1.36,0,0,1-1.36-1.36v-4.48a1.35,1.35,0,0,1,1.29-1.35v-12h5.22v12a1.36,1.36,0,0,1,1.29,1.35v4.48a1.36,1.36,0,0,1-1.36,1.36" transform="translate(0)"/><path class="cls-30" d="M1043.69,321.41h-6.75a1.07,1.07,0,0,0-1.07,1.08v3.28a1.07,1.07,0,0,0,1.07,1.08h6.75a1.07,1.07,0,0,0,1.07-1.08v-3.28a1.07,1.07,0,0,0-1.07-1.08" transform="translate(0)"/><path class="cls-27" d="M1057.65,269.44h-5.07a1.36,1.36,0,0,0-1.36,1.36v4.49a1.35,1.35,0,0,0,1.28,1.34v12h5.22v-12a1.35,1.35,0,0,0,1.29-1.34V270.8a1.36,1.36,0,0,0-1.36-1.36" transform="translate(0)"/><path class="cls-30" d="M1057,293.05h-6.74a1.08,1.08,0,0,1-1.08-1.08v-3.29a1.08,1.08,0,0,1,1.08-1.07H1057a1.07,1.07,0,0,1,1.08,1.07V292a1.08,1.08,0,0,1-1.08,1.08" transform="translate(0)"/><path class="cls-27" d="M1057.65,345h-5.07a1.36,1.36,0,0,1-1.36-1.36v-4.48a1.35,1.35,0,0,1,1.28-1.35v-12h5.22v12a1.35,1.35,0,0,1,1.29,1.35v4.48a1.36,1.36,0,0,1-1.36,1.36" transform="translate(0)"/><path class="cls-30" d="M1057,321.41h-6.74a1.08,1.08,0,0,0-1.08,1.08v3.28a1.08,1.08,0,0,0,1.08,1.08H1057a1.08,1.08,0,0,0,1.08-1.08v-3.28a1.08,1.08,0,0,0-1.08-1.08" transform="translate(0)"/><path class="cls-30" d="M1074,291c0-1.89,2.11-3.42,6.4-3.42s6.44,1.53,6.44,3.42-2.16,3.43-6.44,3.43-6.4-1.54-6.4-3.43" transform="translate(0)"/><path class="cls-30" d="M1074,322.4c0-1.9,2.11-3.43,6.4-3.43s6.44,1.53,6.44,3.43-2.16,3.42-6.44,3.42-6.4-1.53-6.4-3.42" transform="translate(0)"/><path class="cls-30" d="M782.78,291c0-1.89,2.1-3.42,6.39-3.42s6.44,1.53,6.44,3.42-2.15,3.43-6.44,3.43-6.39-1.54-6.39-3.43" transform="translate(0)"/><path class="cls-30" d="M782.78,322.4c0-1.9,2.1-3.43,6.39-3.43s6.44,1.53,6.44,3.43-2.15,3.42-6.44,3.42-6.39-1.53-6.39-3.42" transform="translate(0)"/></g></g></svg>