<svg xmlns="http://www.w3.org/2000/svg" xmlns:xlink="http://www.w3.org/1999/xlink" viewBox="0 0 254.66611 149.67012"><defs><style>.cls-1{fill:none;}.cls-2{fill:#7f7f7f;}.cls-3{fill:#355269;}.cls-4{fill:#333;}.cls-5{fill:#b2b2b2;}.cls-6{fill:#b85c00;}.cls-7{fill:#fa0200;}.cls-8{fill:#fff;}.cls-9{opacity:0.5;}.cls-10{fill:#292929;}.cls-11{fill:#deaa53;}.cls-12{fill:#a5a5a5;}.cls-13{clip-path:url(#clip-path);}.cls-14{fill:#eaf4fc;}.cls-15{fill:#323d49;}.cls-16{fill:#222630;}.cls-17{fill:#be8e3f;}.cls-18{fill:#ec2024;}</style><clipPath id="clip-path"><rect class="cls-1" x="70.82673" y="41.13006" width="24.55065" height="66.78052"/></clipPath></defs><g id="Layer_2" data-name="Layer 2"><g id="_12025" data-name="12025"><rect class="cls-2" x="204.08029" y="0.00867" width="13.49706" height="149.66145"/><rect class="cls-2" x="187.21436" y="0.00867" width="13.49706" height="149.66145"/><polygon class="cls-3" points="177.768 51.048 169.327 51.048 165.102 55.661 169.327 60.269 177.768 60.269 181.986 55.661 177.768 51.048"/><path class="cls-3" d="M180.68248,51.05054h5.22767a1.30422,1.30422,0,0,1,1.30422,1.30422v6.612a1.30421,1.30421,0,0,1-1.30421,1.30421h-5.22767a1.30422,1.30422,0,0,1-1.30422-1.30422v-6.612A1.30421,1.30421,0,0,1,180.68248,51.05054Z"/><polygon class="cls-3" points="187.214 52.935 184.822 51.048 173.133 51.048 167.287 55.661 173.133 60.269 184.822 60.269 187.214 58.382 187.214 52.935"/><path class="cls-4" d="M180.66732.00433H185.895a1.30422,1.30422,0,0,1,1.30422,1.30422v6.612A1.30421,1.30421,0,0,1,185.895,9.2248h-5.22767a1.30422,1.30422,0,0,1-1.30422-1.30422v-6.612A1.30422,1.30422,0,0,1,180.66732.00433Z"/><rect class="cls-4" x="188.76339" y="0.0065" width="11.7834" height="9.22047" rx="1.12006"/><rect class="cls-5" x="188.76339" y="12.61965" width="11.7834" height="9.22047" rx="1.12006"/><rect class="cls-5" x="188.76339" y="25.62276" width="11.7834" height="9.22047" rx="1.12006"/><rect class="cls-6" x="188.76339" y="38.61721" width="11.7834" height="9.22047" rx="1.12006"/><rect class="cls-3" x="188.76339" y="51.25202" width="11.7834" height="9.22047" rx="1.12006"/><rect class="cls-3" x="188.76339" y="63.48604" width="11.7834" height="9.22047" rx="1.12006"/><rect class="cls-7" x="188.76339" y="76.33533" width="11.7834" height="9.22047" rx="1.12006"/><rect class="cls-5" x="188.76339" y="88.95932" width="11.7834" height="9.22047" rx="1.12006"/><rect class="cls-6" x="188.76339" y="101.69595" width="11.7834" height="9.22047" rx="1.12006"/><rect class="cls-5" x="188.76339" y="114.59941" width="11.7834" height="9.22047" rx="1.12006"/><rect class="cls-5" x="188.76339" y="127.92533" width="11.7834" height="9.22047" rx="1.12006"/><rect class="cls-5" x="188.76339" y="140.43232" width="11.7834" height="9.22047" rx="1.12006"/><rect class="cls-5" x="204.08029" y="0.0065" width="11.7834" height="9.22047" rx="1.12006"/><rect class="cls-5" x="204.08029" y="12.61965" width="11.7834" height="9.22047" rx="1.12006"/><rect class="cls-5" x="204.08029" y="25.62276" width="11.7834" height="9.22047" rx="1.12006"/><rect class="cls-6" x="204.08029" y="38.61721" width="11.7834" height="9.22047" rx="1.12006"/><rect class="cls-5" x="204.08029" y="51.04838" width="11.7834" height="9.22047" rx="1.12006"/><rect class="cls-7" x="204.08029" y="63.48604" width="11.7834" height="9.22047" rx="1.12006"/><rect class="cls-3" x="204.08029" y="76.33533" width="11.7834" height="9.22047" rx="1.12006"/><rect class="cls-3" x="204.08029" y="88.95932" width="11.7834" height="9.22047" rx="1.12006"/><rect class="cls-6" x="204.08029" y="101.69595" width="11.7834" height="9.22047" rx="1.12006"/><rect class="cls-5" x="204.08029" y="114.59941" width="11.7834" height="9.22047" rx="1.12006"/><rect class="cls-5" x="204.08029" y="127.92533" width="11.7834" height="9.22047" rx="1.12006"/><rect class="cls-4" x="204.08029" y="140.43232" width="11.7834" height="9.22047" rx="1.12006"/><path class="cls-8" d="M192.66085,4.62107a1.75258,1.75258,0,0,1,1.7895-1.99532,1.57011,1.57011,0,0,1,1.68984,1.54469c0,1.4927-1.58585,1.61185-2.30295,2.62576h2.33112v.86658h-3.62017c0-1.14822.7041-1.62051,1.55552-2.20546.4333-.30114,1.03558-.59794,1.03558-1.20455a.70844.70844,0,0,0-.73876-.76043c-.59144,0-.78209.61311-.78209,1.13523Z"/><path class="cls-8" d="M211.06279,7.65628h-1.12222V4.06645H208.5497V3.21287c.78209.02166,1.49487-.25348,1.62051-1.10057h.89258Z"/><path class="cls-8" d="M209.76725,16.97641c.481.039,1.17856-.05633,1.17856-.68894a.73009.73009,0,0,0-.73241-.72777q-.026.00007-.05186.002a.85061.85061,0,0,0-.85359.9879h-1.06806a1.83528,1.83528,0,0,1,1.91515-1.913,1.70612,1.70612,0,0,1,1.85667,1.53385,1.10275,1.10275,0,0,1-.77343,1.1244V17.31a1.22839,1.22839,0,0,1,.97924,1.25655,2.06345,2.06345,0,0,1-4.11194-.19715h1.06806c.02383.60011.325,1.08324.97274,1.08324a.85143.85143,0,0,0,.89994-.8q.002-.03327.00131-.06662c0-.83842-.73444-.82109-1.28038-.82109Z"/><path class="cls-8" d="M211.91855,28.66231h-2.28563l-.21665,1.25655.01517.01517a1.41036,1.41036,0,0,1,1.08323-.4333,1.71791,1.71791,0,0,1,1.70718,1.88266,2.004,2.004,0,0,1-2.01411,1.99379l-.04187-.00064a1.84491,1.84491,0,0,1-2.056-1.757h1.1244a.88176.88176,0,0,0,.90775.83193,1.00352,1.00352,0,0,0,.95757-1.06807.96462.96462,0,0,0-.95757-1.03557.91642.91642,0,0,0-.84493.43329h-1.01173l.54161-3.04388h3.09372Z"/><path class="cls-8" d="M209.2928,56.90432a.7929.7929,0,0,0,.74309.68677c.82109,0,1.02041-1.08323,1.05941-1.68334l-.01517-.01516a1.39519,1.39519,0,0,1-1.25.61527,1.77216,1.77216,0,0,1-1.27389-.56761,1.89127,1.89127,0,0,1-.43329-1.23489,1.9202,1.9202,0,0,1,1.94982-2.02347c1.67467,0,2.1253,1.46236,2.1253,2.86189,0,1.36054-.60012,2.89439-2.16647,2.89439a1.688,1.688,0,0,1-1.796-1.53385Zm1.70066-2.27045a.95009.95009,0,0,0-.89475-1.0269.90261.90261,0,0,0-.84492,1.01174c0,.507.26864,1.04424.84492,1.04424A.93008.93008,0,0,0,210.99346,54.63387Z"/><path class="cls-8" d="M208.866,70.943h-1.12223V67.35318H206.3529v-.84709c.78209.02383,1.49487-.25131,1.62051-1.0984h.89476Z"/><path class="cls-8" d="M213.26175,70.943h-1.12223V67.35318h-1.39087v-.84709c.78209.02383,1.4927-.25131,1.62051-1.0984h.89259Z"/><path class="cls-8" d="M208.866,109.36957h-1.12223v-3.58984H206.3529v-.84491c.78209.02382,1.49487-.25348,1.62051-1.10056h.89476Z"/><path class="cls-8" d="M214.24316,104.8005a6.79666,6.79666,0,0,0-1.809,4.56907h-1.20239a8.07443,8.07443,0,0,1,1.85883-4.49108h-2.61926v-1.04424h3.77181Z"/><path class="cls-8" d="M208.866,122.25136h-1.12223v-3.58983H206.3529v-.84276c.78209.02383,1.49487-.25347,1.62051-1.10056h.89476Z"/><path class="cls-8" d="M211.49175,120.828a.79075.79075,0,0,0,.74309.68894c.82109,0,1.02041-1.08323,1.05941-1.68552l-.01517-.01516a1.39739,1.39739,0,0,1-1.25.61743,1.76776,1.76776,0,0,1-1.27388-.56978,1.88913,1.88913,0,0,1-.4333-1.23272,1.9192,1.9192,0,0,1,1.93682-2.02563c1.67684,0,2.12747,1.46453,2.12747,2.86405,0,1.35838-.60011,2.89223-2.16646,2.89223a1.68583,1.68583,0,0,1-1.79384-1.53386Zm1.69851-2.26828a.95037.95037,0,0,0-.89258-1.02907.90534.90534,0,0,0-.84708,1.01174c0,.50477.26864,1.04423.84708,1.04423a.92531.92531,0,0,0,.89258-1.02691Z"/><path class="cls-8" d="M206.05826,132.03944a1.96741,1.96741,0,0,1,2.00831-2.238,1.76348,1.76348,0,0,1,1.89782,1.73317c0,1.67684-1.77867,1.81116-2.58675,2.94855h2.61709v.96625h-4.06429c0-1.29988.79077-1.81983,1.74834-2.47626.48312-.34014,1.16339-.6716,1.16339-1.35187a.79513.79513,0,0,0-.83193-.85359c-.66294,0-.87741.68893-.87741,1.27388Z"/><path class="cls-8" d="M213.26175,135.44728h-1.12223v-3.58983h-1.39087v-.84708c.78209.02383,1.4927-.25347,1.62051-1.0984h.89259Z"/><path class="cls-8" d="M206.05826,144.71758a1.9674,1.9674,0,0,1,2.00831-2.238,1.76347,1.76347,0,0,1,1.89782,1.73317c0,1.67467-1.77867,1.809-2.58675,2.94855h2.61709v.96408h-4.06429c0-1.28905.79077-1.81767,1.74834-2.4741.48312-.34014,1.16339-.6716,1.16339-1.35187a.79513.79513,0,0,0-.83193-.85359c-.66294,0-.87741.68677-.87741,1.27172Z"/><path class="cls-8" d="M211.9662,144.82807c.481.04116,1.17639-.05416,1.17639-.68677a.73008.73008,0,0,0-.72168-.73841q-.03024-.00035-.06041.00181a.85239.85239,0,0,0-.85358.99007h-1.06807a1.8353,1.8353,0,0,1,1.913-1.91515,1.7084,1.7084,0,0,1,1.85883,1.53385,1.09841,1.09841,0,0,1-.7756,1.13089v.01734a1.22837,1.22837,0,0,1,.98142,1.25654,2.06362,2.06362,0,0,1-4.112-.19714h1.06807c.02383.60012.325,1.08323.97274,1.08323a.8514.8514,0,0,0,.89993-.8q.002-.03327.00131-.06662c0-.83842-.7366-.82326-1.28037-.82326Z"/><path class="cls-8" d="M194.59767,19.132h-2.0863v-.91642l2.14263-2.87056h.89475v2.96589h.64994v.82542h-.64994V20.2781h-.95108Zm0-2.53693H194.576l-1.27388,1.71151H194.602Z"/><rect class="cls-4" x="217.62501" y="140.43232" width="7.83609" height="9.22047" rx="1.30422"/><path class="cls-8" d="M193.20247,70.943h-1.00091v-3.1977h-1.23921v-.75394c.6976.02167,1.33238-.21664,1.445-.97923h.79509Z"/><path class="cls-8" d="M194.61933,67.90562a1.75027,1.75027,0,0,1,1.78733-1.99315,1.57039,1.57039,0,0,1,1.692,1.54252c0,1.49486-1.58585,1.614-2.303,2.62793h2.33112v.86658h-3.62232c0-1.14822.70627-1.62052,1.55768-2.20546.4333-.3033,1.03558-.59794,1.03558-1.20455a.70844.70844,0,0,0-.73876-.76043c-.59144,0-.78209.6131-.78209,1.13306Z"/><path class="cls-8" d="M193.20247,96.60693h-1.00091v-3.1977h-1.23921V92.6553c.6976.02166,1.33238-.21665,1.445-.97924h.79509Z"/><path class="cls-8" d="M197.09127,92.94344a.70408.70408,0,0,0-.66293-.61094c-.7171,0-.92292.95758-.94458,1.49919l.01517.01517a1.24138,1.24138,0,0,1,1.11356-.55029,1.57285,1.57285,0,0,1,1.13306.507,1.67685,1.67685,0,0,1,.3813,1.09839,1.71539,1.71539,0,0,1-1.73317,1.80467c-1.4927,0-1.89566-1.29988-1.89566-2.54993,0-1.21322.53728-2.57809,1.94982-2.57809a1.50244,1.50244,0,0,1,1.59885,1.36487Zm-1.51652,2.02348a.84491.84491,0,0,0,.79509.91424.80586.80586,0,0,0,.75392-.90125c0-.45062-.2383-.92941-.75392-.92941a.82329.82329,0,0,0-.79292.91642Z"/><path class="cls-8" d="M193.20247,109.36957h-.99874v-3.19771h-1.24138v-.75393c.6976.02167,1.33238-.21664,1.445-.97924h.79509Z"/><path class="cls-8" d="M196.32434,104.34121a1.469,1.469,0,0,1,1.6465,1.3237,1.03125,1.03125,0,0,1-.71709,1.03557v.01517a1.14388,1.14388,0,0,1,.92291,1.20455,1.65173,1.65173,0,0,1-1.84583,1.549c-.92292,0-1.874-.47879-1.874-1.54252a1.16339,1.16339,0,0,1,.92941-1.21105v-.01517a.98359.98359,0,0,1-.72576-1.0139A1.49976,1.49976,0,0,1,196.32434,104.34121Zm0,4.37408a.81025.81025,0,0,0,.84447-.77453q.00126-.02868.00045-.0574a.79508.79508,0,0,0-.8-.79014l-.04492.00155a.779.779,0,0,0-.86659.78209.83193.83193,0,0,0,.82.84371q.02658.00038.05313-.00094Zm0-2.28995a.66977.66977,0,1,0,0-1.33238.68678.68678,0,0,0-.75064.61632q-.00323.033-.00329.06612a.67431.67431,0,0,0,.75393.64994Z"/><path class="cls-8" d="M190.70238,132.4099a1.7529,1.7529,0,0,1,1.7895-1.99315,1.56972,1.56972,0,0,1,1.68984,1.54252c0,1.49486-1.58369,1.614-2.303,2.62792h2.33112v.86659h-3.62016c0-1.14823.7041-1.62051,1.55551-2.20546.4333-.30331,1.03558-.59795,1.03558-1.20455a.70844.70844,0,0,0-.73876-.76044c-.59144,0-.78209.61312-.78209,1.13306Z"/><path class="cls-8" d="M194.61933,132.4099a1.75027,1.75027,0,0,1,1.78733-1.99315,1.57038,1.57038,0,0,1,1.692,1.54252c0,1.49486-1.58585,1.614-2.303,2.62792h2.33112v.86659h-3.62232c0-1.14823.70627-1.62051,1.55768-2.20546.4333-.30331,1.03558-.59795,1.03558-1.20455a.70844.70844,0,0,0-.73876-.76044c-.59144,0-.78209.61312-.78209,1.13306Z"/><path class="cls-8" d="M195.13278,29.60905a.7041.7041,0,0,0-.66293-.61311c-.7171,0-.92292.95758-.94241,1.4992l.013.01516A1.24139,1.24139,0,0,1,194.654,29.96a1.57288,1.57288,0,0,1,1.13306.50695,1.67683,1.67683,0,0,1,.3813,1.10057,1.71358,1.71358,0,0,1-1.73317,1.8025c-1.4927,0-1.89349-1.29988-1.89349-2.54993,0-1.21105.53511-2.57809,1.93682-2.57809a1.50262,1.50262,0,0,1,1.59885,1.367Zm-1.51652,2.02131a.84687.84687,0,0,0,.79509.91642.8078.8078,0,0,0,.75392-.90342c0-.45062-.2383-.92941-.75392-.92941a.82329.82329,0,0,0-.79292.91641Z"/><polygon class="cls-4" points="180.505 0 169.794 0 164.434 4.615 169.794 9.22 180.505 9.22 185.867 4.615 180.505 0"/><path class="cls-8" d="M172.72722,6.29574a1.68765,1.68765,0,0,1-1.38.6911,2.42943,2.42943,0,0,1-2.47193-2.61275A2.44238,2.44238,0,0,1,171.34719,1.718a2.01076,2.01076,0,0,1,2.121,1.77434h-1.05939a1.02256,1.02256,0,0,0-1.06373-.84492c-.99224,0-1.36487.84492-1.36487,1.73317,0,.83842.37263,1.68334,1.36487,1.68334a1.0818,1.0818,0,0,0,1.19806-1.08323H171.4317V4.15744h2.1123V6.86769h-.7041Z"/><path class="cls-8" d="M174.43873,1.83716h1.0984l2.0928,3.37535h.013V1.83716h1.03557V6.86769h-1.10489l-2.09279-3.36885h-.013V6.86769h-1.03558Z"/><path class="cls-8" d="M179.65774,1.83716h2.16646a2.20905,2.20905,0,0,1,2.28345,2.4871,2.23631,2.23631,0,0,1-2.28345,2.54343h-2.16646Zm1.10489,4.10112h.98358c.64994,0,1.25222-.39647,1.25222-1.51653,0-1.01607-.35962-1.66384-1.45153-1.66384h-.7886Z"/><polygon class="cls-4" points="224.402 140.432 235.108 140.432 240.468 145.045 235.108 149.653 224.402 149.653 219.042 145.045 224.402 140.432"/><path class="cls-8" d="M224.50136,146.72372a1.68983,1.68983,0,0,1-1.3757.68894,2.63975,2.63975,0,0,1,0-5.26884,2.01075,2.01075,0,0,1,2.121,1.77433h-1.05723a1.02474,1.02474,0,0,0-1.06373-.84493c-.99441,0-1.367.84493-1.367,1.73317,0,.83842.37263,1.68335,1.367,1.68335a1.08289,1.08289,0,0,0,1.19806-1.08323h-1.11357v-.82325h2.11231v2.7189h-.7041Z"/><path class="cls-8" d="M226.21287,142.263h1.0984l2.09713,3.37534h.01517V142.263h1.03558v5.03052h-1.10706l-2.09065-3.36668h-.0195v3.36668h-1.03558Z"/><path class="cls-8" d="M231.43189,142.263h2.16646a2.20755,2.20755,0,0,1,2.28129,2.4871,2.23476,2.23476,0,0,1-2.28129,2.54342h-2.16646Zm1.10706,4.10112h.98573c.64994,0,1.25438-.3943,1.25438-1.51653,0-1.0139-.35963-1.66384-1.45153-1.66384h-.7886Z"/><path class="cls-8" d="M194.36586,40.90933a1.469,1.469,0,0,1,1.64651,1.32371,1.029,1.029,0,0,1-.7171,1.03556v.02384a1.146,1.146,0,0,1,.92291,1.20455,1.65172,1.65172,0,0,1-1.84583,1.549c-.92291,0-1.874-.47879-1.874-1.54252a1.16555,1.16555,0,0,1,.9294-1.21105v-.01517a.98359.98359,0,0,1-.72576-1.0139A1.49887,1.49887,0,0,1,194.36586,40.90933Zm0,4.37409a.81026.81026,0,0,0,.84448-.77453q.00125-.02868.00045-.05739a.79726.79726,0,0,0-.80447-.79l-.04046.00139a.779.779,0,0,0-.86659.7821.83194.83194,0,0,0,.82656.83725q.02327.00015.04654-.001Zm0-2.29a.66977.66977,0,1,0,0-1.33237.68676.68676,0,0,0-.75063.61632q-.00324.033-.0033.06611a.674.674,0,0,0,.75393.64778Z"/><path class="cls-5" d="M218.94438.0065h5.22767a1.30421,1.30421,0,0,1,1.30421,1.30421v6.612A1.30422,1.30422,0,0,1,224.17205,9.227h-5.22766a1.30422,1.30422,0,0,1-1.30422-1.30422v-6.612A1.30421,1.30421,0,0,1,218.94438.0065Z"/><path class="cls-8" d="M193.20247,58.32769h-.99874V55.13h-1.24138v-.75393c.6976.0195,1.33238-.21664,1.445-.97924h.79509Z"/><path class="cls-8" d="M196.30917,53.29716c.98574,0,1.81767.61961,1.81767,2.54343,0,1.965-.83193,2.58459-1.81767,2.58459s-1.8025-.61961-1.8025-2.58459C194.50668,53.90811,195.32994,53.29716,196.30917,53.29716Zm0,4.30476c.81676,0,.81676-1.20455.81676-1.76133,0-.51345,0-1.718-.81676-1.718s-.80376,1.20456-.80376,1.718C195.50542,56.39737,195.50542,57.60192,196.30917,57.60192Z"/><path class="cls-8" d="M193.20247,83.94179h-1.00091v-3.1977h-1.23921v-.75394c.6976.02167,1.33238-.21664,1.445-.97923h.79509Z"/><path class="cls-8" d="M196.55615,82.80006h-2.0863v-.91425l2.14263-2.87489h.89475V81.9768h.64994v.82326h-.64994v1.14172h-.95108Zm0-2.53477h-.02166l-1.276,1.71151h1.29988Z"/><path class="cls-8" d="M190.70238,119.21614a1.7529,1.7529,0,0,1,1.7895-1.99314,1.56842,1.56842,0,0,1,1.68984,1.54252c0,1.49269-1.58369,1.61185-2.303,2.62792h2.33112V122.26h-3.62016c0-1.14822.7041-1.62051,1.55551-2.20329.4333-.30331,1.03558-.60011,1.03558-1.20672a.70844.70844,0,0,0-.73876-.76043c-.59144,0-.78209.61311-.78209,1.13523Z"/><path class="cls-8" d="M196.30917,117.223c.98574,0,1.81767.6196,1.81767,2.54125,0,1.96716-.83193,2.58676-1.81767,2.58676s-1.80467-.6196-1.80467-2.58676C194.50452,117.8426,195.32994,117.223,196.30917,117.223Zm0,4.30259c.81676,0,.81676-1.20455.81676-1.76134,0-.51345,0-1.718-.81676-1.718s-.80376,1.20455-.80376,1.718C195.50542,120.321,195.50542,121.52559,196.30917,121.52559Z"/><path class="cls-8" d="M190.70238,145.03605a1.75291,1.75291,0,0,1,1.7895-1.99315,1.56973,1.56973,0,0,1,1.68984,1.54252c0,1.49487-1.58369,1.614-2.303,2.62793h2.33112v.86658h-3.62016c0-1.14822.7041-1.62051,1.55768-2.20546.4333-.30331,1.03558-.59794,1.03558-1.20455a.70848.70848,0,0,0-.74093-.76043c-.59144,0-.78209.61311-.78209,1.133Z"/><path class="cls-8" d="M196.55615,146.93171h-2.0863v-.91641l2.14263-2.87273h.89475v2.96588h.64994v.82326h-.64994v1.14173h-.95108Zm0-2.53477h-.02166l-1.27388,1.71151h1.29988Z"/><path class="cls-8" d="M212.05287,41.36645a6.78966,6.78966,0,0,0-1.81116,4.57124h-1.19806a8.07444,8.07444,0,0,1,1.85883-4.49325h-2.63009V40.40237h3.78048Z"/><polygon class="cls-5" points="231.469 0.006 222.196 0.006 217.558 4.619 222.196 9.227 231.469 9.227 236.111 4.619 231.469 0.006"/><path class="cls-8" d="M220.59089,1.83716h1.0984l2.09931,3.37535h.01516V1.83716h1.03558V6.86769h-1.10707l-2.0928-3.36885h-.013V6.86769h-1.03558Z"/><path class="cls-8" d="M229.16359,3.52917a1.09839,1.09839,0,0,0-1.0984-.88175c-.99441,0-1.367.84492-1.367,1.73317,0,.83842.37262,1.68334,1.367,1.68334a1.12792,1.12792,0,0,0,1.13956-1.12656H230.288a2.11511,2.11511,0,0,1-2.212,2.056,2.42991,2.42991,0,0,1-2.47409-2.61275A2.44283,2.44283,0,0,1,228.076,1.7245a2.04274,2.04274,0,0,1,2.16647,1.81117Z"/><path class="cls-5" d="M218.94438,12.61965h5.22767a1.30422,1.30422,0,0,1,1.30422,1.30422v6.612a1.30422,1.30422,0,0,1-1.30422,1.30422h-5.22766a1.30422,1.30422,0,0,1-1.30422-1.30422v-6.612A1.30421,1.30421,0,0,1,218.94438,12.61965Z"/><polygon class="cls-5" points="231.469 12.62 222.196 12.62 217.558 17.232 222.196 21.84 231.469 21.84 236.111 17.232 231.469 12.62"/><path class="cls-8" d="M220.59089,14.45031h1.0984l2.09931,3.37535h.01516V14.45031h1.03558v5.03053h-1.10707l-2.0928-3.36669h-.013v3.36669h-1.03558Z"/><path class="cls-8" d="M229.16359,16.14232a1.09839,1.09839,0,0,0-1.0984-.88175c-.99441,0-1.367.84492-1.367,1.73317,0,.83842.37262,1.68334,1.367,1.68334a1.12652,1.12652,0,0,0,1.13956-1.12656H230.288a2.11511,2.11511,0,0,1-2.212,2.056,2.42991,2.42991,0,0,1-2.47409-2.61275,2.44283,2.44283,0,0,1,2.47409-2.65609,2.04274,2.04274,0,0,1,2.16647,1.81117Z"/><path class="cls-5" d="M218.94438,25.62276h5.22767a1.30422,1.30422,0,0,1,1.30422,1.30422v6.612a1.30421,1.30421,0,0,1-1.30421,1.30421h-5.22767a1.30422,1.30422,0,0,1-1.30422-1.30422V26.927A1.30421,1.30421,0,0,1,218.94438,25.62276Z"/><polygon class="cls-5" points="231.469 25.623 222.196 25.623 217.558 30.235 222.196 34.841 231.469 34.841 236.111 30.235 231.469 25.623"/><path class="cls-8" d="M220.59089,27.45342h1.0984l2.09931,3.37318h.01516V27.45342h1.03558v5.02837h-1.10707l-2.0928-3.36669h-.013v3.36669h-1.03558Z"/><path class="cls-8" d="M229.16359,29.14326a1.09623,1.09623,0,0,0-1.0984-.87958c-.99441,0-1.367.84492-1.367,1.73317,0,.83842.37262,1.68334,1.367,1.68334a1.12652,1.12652,0,0,0,1.13956-1.12656H230.288a2.11688,2.11688,0,0,1-2.212,2.05814,2.43168,2.43168,0,0,1-2.47409-2.61492,2.444,2.444,0,0,1,2.47409-2.65608,2.04274,2.04274,0,0,1,2.16647,1.81116Z"/><path class="cls-5" d="M218.94438,51.04838h5.22767a1.30422,1.30422,0,0,1,1.30422,1.30422v6.612a1.30421,1.30421,0,0,1-1.30421,1.30421h-5.22767a1.30422,1.30422,0,0,1-1.30422-1.30422v-6.612A1.30421,1.30421,0,0,1,218.94438,51.04838Z"/><polygon class="cls-5" points="231.469 51.048 222.196 51.048 217.558 55.661 222.196 60.267 231.469 60.267 236.111 55.661 231.469 51.048"/><path class="cls-8" d="M220.59089,52.879h1.0984l2.09931,3.37318h.01516V52.879h1.03558V57.9074h-1.10707l-2.0928-3.36668h-.013V57.9074h-1.03558Z"/><path class="cls-8" d="M229.16359,54.56888a1.09622,1.09622,0,0,0-1.0984-.87958c-.99441,0-1.367.84492-1.367,1.73317,0,.83842.37262,1.68334,1.367,1.68334a1.12652,1.12652,0,0,0,1.13956-1.12656H230.288a2.11688,2.11688,0,0,1-2.212,2.05814,2.64077,2.64077,0,0,1,0-5.271,2.04274,2.04274,0,0,1,2.16647,1.81117Z"/><path class="cls-5" d="M180.663,25.62059h5.22767a1.30422,1.30422,0,0,1,1.30422,1.30422v6.612a1.30421,1.30421,0,0,1-1.30421,1.30421H180.663a1.30422,1.30422,0,0,1-1.30422-1.30422v-6.612A1.30421,1.30421,0,0,1,180.663,25.62059Z"/><polygon class="cls-5" points="173.293 25.623 182.567 25.623 187.208 30.237 182.567 34.843 173.293 34.843 168.656 30.237 173.293 25.623"/><path class="cls-8" d="M174.71171,27.45342h1.10057l2.0993,3.37535h.013V27.45342h1.03558V32.484h-1.11358l-2.0928-3.36668h-.01517V32.484H174.703Z"/><path class="cls-8" d="M183.28439,29.14543a1.09622,1.09622,0,0,0-1.09839-.88175c-.99225,0-1.367.84709-1.367,1.73317,0,.83842.37479,1.68334,1.367,1.68334a1.12836,1.12836,0,0,0,1.14173-1.12656H184.398a2.11383,2.11383,0,0,1-2.212,2.056,2.42944,2.42944,0,0,1-2.47193-2.61276,2.44351,2.44351,0,0,1,2.47193-2.65608,2.04137,2.04137,0,0,1,2.16646,1.81116Z"/><path class="cls-6" d="M180.663,38.61721h5.22767a1.30422,1.30422,0,0,1,1.30422,1.30422v6.612a1.30421,1.30421,0,0,1-1.30421,1.30421H180.663a1.30422,1.30422,0,0,1-1.30422-1.30422v-6.612A1.30421,1.30421,0,0,1,180.663,38.61721Z"/><polygon class="cls-6" points="160.788 38.619 170.062 38.619 174.703 43.232 170.062 47.84 160.788 47.84 156.152 43.232 160.788 38.619"/><polygon class="cls-6" points="154.741 38.619 164.016 38.619 168.656 43.232 164.016 47.84 154.741 47.84 150.105 43.232 154.741 38.619"/><polygon class="cls-6" points="167.498 38.619 180.639 38.619 187.214 43.232 180.639 47.84 167.498 47.84 160.929 43.232 167.498 38.619"/><path class="cls-6" d="M218.88048,38.61938h5.22767a1.30422,1.30422,0,0,1,1.30422,1.30422v6.612a1.30421,1.30421,0,0,1-1.30421,1.30421h-5.22767a1.30422,1.30422,0,0,1-1.30422-1.30422v-6.612A1.30421,1.30421,0,0,1,218.88048,38.61938Z"/><polygon class="cls-6" points="243.983 47.838 234.709 47.838 230.068 43.225 234.709 38.617 243.983 38.617 248.62 43.225 243.983 47.838"/><polygon class="cls-6" points="250.03 47.838 240.755 47.838 236.115 43.225 240.755 38.617 250.03 38.617 254.666 43.225 250.03 47.838"/><polygon class="cls-6" points="237.273 47.838 224.132 47.838 217.557 43.225 224.132 38.617 237.273 38.617 243.843 43.225 237.273 47.838"/><path class="cls-5" d="M180.663,12.81246h5.22766a1.30422,1.30422,0,0,1,1.30422,1.30422v6.612a1.30421,1.30421,0,0,1-1.30421,1.30421H180.663a1.30421,1.30421,0,0,1-1.30421-1.30421v-6.612a1.30422,1.30422,0,0,1,1.30422-1.30422Z"/><polygon class="cls-5" points="173.293 12.817 182.567 12.817 187.208 17.429 182.567 22.035 173.293 22.035 168.656 17.429 173.293 12.817"/><path class="cls-8" d="M174.71171,14.64529h1.10057l2.0993,3.37535h.013V14.64529h1.03558V19.678h-1.11358l-2.0928-3.36669h-.01517V19.678H174.703Z"/><path class="cls-8" d="M183.28439,16.3373a1.09623,1.09623,0,0,0-1.10489-.88175c-.99224,0-1.367.84709-1.367,1.73317,0,.83842.37479,1.68334,1.367,1.68334a1.12834,1.12834,0,0,0,1.14173-1.12656h1.07024a2.11383,2.11383,0,0,1-2.212,2.056,2.42944,2.42944,0,0,1-2.47193-2.61275,2.44351,2.44351,0,0,1,2.47193-2.65608A2.04137,2.04137,0,0,1,184.346,16.3438Z"/><path class="cls-5" d="M180.67165,89.43918h5.22767a1.30422,1.30422,0,0,1,1.30422,1.30422v6.612a1.30422,1.30422,0,0,1-1.30422,1.30422h-5.22766a1.30422,1.30422,0,0,1-1.30422-1.30422V90.74339A1.30421,1.30421,0,0,1,180.67165,89.43918Z"/><polygon class="cls-5" points="173.304 89.441 182.576 89.441 187.219 94.054 182.576 98.662 173.304 98.662 168.667 94.054 173.304 89.441"/><path class="cls-8" d="M174.72254,91.272h1.0984l2.0993,3.37535h.013V91.272h1.03558v5.03052h-1.10489l-2.0928-3.36668h-.013v3.36668h-1.03558Z"/><path class="cls-8" d="M183.29524,92.964a1.10057,1.10057,0,0,0-1.10057-.88175c-.99224,0-1.36487.84492-1.36487,1.73317,0,.83842.37263,1.68334,1.36487,1.68334a1.12834,1.12834,0,0,0,1.14173-1.12656h1.07023a2.11382,2.11382,0,0,1-2.212,2.056,2.63975,2.63975,0,0,1,0-5.26884,2.04,2.04,0,0,1,2.16646,1.81116Z"/><rect class="cls-5" x="179.36744" y="114.59724" width="7.83609" height="9.22047" rx="1.30422"/><polygon class="cls-5" points="173.304 114.599 182.576 114.599 187.219 119.212 182.576 123.82 173.304 123.82 168.667 119.212 173.304 114.599"/><path class="cls-8" d="M174.72254,116.43008h1.0984l2.0993,3.37535h.013v-3.37535h1.03558v5.03052h-1.10489l-2.0928-3.36668h-.013v3.36668h-1.03558Z"/><path class="cls-8" d="M183.29524,118.12208a1.10058,1.10058,0,0,0-1.10057-.88175c-.99224,0-1.36487.84708-1.36487,1.73317,0,.83842.37263,1.68335,1.36487,1.68335a1.12835,1.12835,0,0,0,1.14173-1.12657h1.07023a2.11383,2.11383,0,0,1-2.212,2.056,2.63975,2.63975,0,0,1,0-5.26884,2.04,2.04,0,0,1,2.16646,1.81116Z"/><rect class="cls-5" x="179.36744" y="127.72384" width="7.83609" height="9.22047" rx="1.30422"/><polygon class="cls-5" points="173.304 127.726 182.576 127.726 187.219 132.341 182.576 136.946 173.304 136.946 168.667 132.341 173.304 127.726"/><path class="cls-8" d="M174.72254,129.55667h1.0984l2.0993,3.37535h.013v-3.37535h1.03558v5.03053h-1.10489l-2.0928-3.36668h-.013v3.36668h-1.03558Z"/><path class="cls-8" d="M183.29524,131.25085a1.10058,1.10058,0,0,0-1.10057-.88176c-.99224,0-1.36487.84493-1.36487,1.73317,0,.83842.37263,1.68335,1.36487,1.68335a1.12834,1.12834,0,0,0,1.14173-1.12656h1.07023a2.11382,2.11382,0,0,1-2.212,2.056,2.63975,2.63975,0,0,1,0-5.26884,2.04,2.04,0,0,1,2.16646,1.81116Z"/><rect class="cls-5" x="179.36744" y="140.43015" width="7.83609" height="9.22047" rx="1.30422"/><polygon class="cls-5" points="173.304 140.432 182.576 140.432 187.219 145.047 182.576 149.653 173.304 149.653 168.667 145.047 173.304 140.432"/><path class="cls-8" d="M174.72254,142.263h1.0984l2.0993,3.37536h.013V142.263h1.03558v5.03052h-1.10489l-2.0928-3.36668h-.013v3.36668h-1.03558Z"/><path class="cls-8" d="M183.29524,143.955a1.10057,1.10057,0,0,0-1.10057-.88175c-.99224,0-1.36487.84492-1.36487,1.73317,0,.83842.37263,1.68334,1.36487,1.68334a1.12834,1.12834,0,0,0,1.14173-1.12656h1.07023a2.11382,2.11382,0,0,1-2.212,2.056,2.63975,2.63975,0,0,1,0-5.26884,2.04,2.04,0,0,1,2.16646,1.81116Z"/><rect class="cls-5" x="217.62501" y="114.58424" width="7.83609" height="9.22047" rx="1.30422"/><polygon class="cls-5" points="231.469 114.61 222.196 114.61 217.558 119.223 222.196 123.831 231.469 123.831 236.111 119.223 231.469 114.61"/><path class="cls-8" d="M220.59089,116.44307h1.0984l2.09931,3.37319h.01516v-3.37319h1.03558v5.02837h-1.10707l-2.0928-3.36668h-.013v3.36668h-1.03558Z"/><path class="cls-8" d="M229.16359,118.13291a1.09623,1.09623,0,0,0-1.0984-.87958c-.99441,0-1.367.84493-1.367,1.73317,0,.83842.37262,1.68551,1.367,1.68551a1.12838,1.12838,0,0,0,1.13956-1.12873H230.288a2.11688,2.11688,0,0,1-2.212,2.05814,2.64077,2.64077,0,0,1,0-5.271,2.04274,2.04274,0,0,1,2.16647,1.81116Z"/><rect class="cls-5" x="217.62501" y="127.91233" width="7.83609" height="9.22047" rx="1.30422"/><polygon class="cls-5" points="231.469 127.938 222.196 127.938 217.558 132.551 222.196 137.157 231.469 137.157 236.111 132.551 231.469 127.938"/><path class="cls-8" d="M220.59089,129.769h1.0984l2.09931,3.37535h.01516V129.769h1.03558v5.03052h-1.10707l-2.0928-3.36668h-.013v3.36668h-1.03558Z"/><path class="cls-8" d="M229.16359,131.46749a1.0984,1.0984,0,0,0-1.0984-.88175c-.99441,0-1.367.84493-1.367,1.73317,0,.83842.37262,1.68335,1.367,1.68335a1.12653,1.12653,0,0,0,1.13956-1.12657H230.288a2.1151,2.1151,0,0,1-2.212,2.056,2.63961,2.63961,0,0,1,0-5.26884,2.04274,2.04274,0,0,1,2.16647,1.81116Z"/><path class="cls-8" d="M208.866,83.94179h-1.12223V80.352H206.3529V79.507c.78209.02382,1.49487-.25348,1.62051-1.10056h.89476Z"/><path class="cls-8" d="M211.9662,80.64443c.481.039,1.17639-.05416,1.17639-.68677a.7301.7301,0,0,0-.7217-.73841q-.03021-.00034-.06039.00181a.85159.85159,0,0,0-.85358.98791h-1.06807a1.83476,1.83476,0,0,1,1.913-1.913,1.7084,1.7084,0,0,1,1.85883,1.53386,1.09837,1.09837,0,0,1-.7756,1.13089v.01517a1.23055,1.23055,0,0,1,.98142,1.25871,2.06362,2.06362,0,0,1-4.112-.19714h1.06807c.02383.60011.325,1.08323.97274,1.08323a.8514.8514,0,0,0,.89993-.8q.002-.03328.00131-.06662c0-.83842-.7366-.82326-1.28037-.82326Z"/><path class="cls-8" d="M208.866,96.60693h-1.12223V93.0171H206.3529v-.84492c.78209.02383,1.49487-.25348,1.62051-1.10056h.89476Z"/><path class="cls-8" d="M214.11533,91.9967h-2.28344l-.21665,1.25871.01733.01517a1.406,1.406,0,0,1,1.08324-.43329,1.71789,1.71789,0,0,1,1.70717,1.88265,2.00181,2.00181,0,0,1-2.01189,1.99169l-.04408-.00071a1.8433,1.8433,0,0,1-2.056-1.75483h1.11572a.88391.88391,0,0,0,.90991.82975,1.00159,1.00159,0,0,0,.95758-1.0659.96462.96462,0,0,0-.95758-1.03557.91641.91641,0,0,0-.84492.43329h-1.0139l.546-3.06121h3.09155Z"/><path class="cls-8" d="M155.99711,40.64145h1.24219V45.66h-1.24219Z"/><path class="cls-8" d="M157.81108,45.11606a1.946,1.946,0,0,1,.1792-.44239,2.04053,2.04053,0,0,1,.26318-.36816,2.88908,2.88908,0,0,1,.333-.31641q.33032-.27978.709-.54394a7.23656,7.23656,0,0,0,.667-.51563,1.21868,1.21868,0,0,0,.23145-.27344.61614.61614,0,0,0,.08447-.32324.64133.64133,0,0,0-.1582-.45215.59976.59976,0,0,0-.4668-.17187.628.628,0,0,0-.519.2168.77937.77937,0,0,0-.1582.292,1.58017,1.58017,0,0,0-.05957.417h-1.10889a2.711,2.711,0,0,1,.07715-.70215,1.571,1.571,0,0,1,.25293-.51855,1.44013,1.44013,0,0,1,.58935-.47754,2.22071,2.22071,0,0,1,.95459-.18262,2.289,2.289,0,0,1,.76856.11914,1.58434,1.58434,0,0,1,.55761.33008,1.40873,1.40873,0,0,1,.34082.49121,1.55026,1.55026,0,0,1,.11573.59668,1.49186,1.49186,0,0,1-.06348.45312,1.38123,1.38123,0,0,1-.17529.36426,1.80652,1.80652,0,0,1-.25635.30176,3.99313,3.99313,0,0,1-.30518.26367q-.16113.13331-.33349.25586c-.11475.082-.228.16309-.34033.24219-.11231.08008-.2212.16113-.32618.24609a2.7326,2.7326,0,0,0-.28418.25977v.00683h2.09131V45.66h-3.73388A2.25638,2.25638,0,0,1,157.81108,45.11606Z"/><path class="cls-8" d="M164.27836,45.77231a2.52771,2.52771,0,0,1-1.01025-.19629,2.33406,2.33406,0,0,1-.78272-.544,2.44321,2.44321,0,0,1-.50537-.82519,2.93928,2.93928,0,0,1-.1792-1.03907,3.01179,3.01179,0,0,1,.17578-1.042,2.45758,2.45758,0,0,1,.49805-.832,2.31318,2.31318,0,0,1,.7793-.55078,2.71323,2.71323,0,0,1,1.82129-.08008,2.11047,2.11047,0,0,1,.62793.32227,1.755,1.755,0,0,1,.51611.60351,2.24293,2.24293,0,0,1,.23486.7793H165.212a.9101.9101,0,0,0-.94727-.793,1.12836,1.12836,0,0,0-.53369.11914,1.04186,1.04186,0,0,0-.37207.334,1.54548,1.54548,0,0,0-.22071.50489,2.57907,2.57907,0,0,0-.07373.63476,2.28331,2.28331,0,0,0,.084.63575,1.54871,1.54871,0,0,0,.24219.502,1.16464,1.16464,0,0,0,.3789.3291,1.03514,1.03514,0,0,0,.502.12012.96482.96482,0,0,0,.67724-.23535.92979.92979,0,0,0,.29834-.60059h1.24219a1.95337,1.95337,0,0,1-.186.709,1.93,1.93,0,0,1-.41748.57618,1.97631,1.97631,0,0,1-.68408.42382A2.64732,2.64732,0,0,1,164.27836,45.77231Z"/><path class="cls-8" d="M166.56645,46.13656h3.06006v.709h-3.06006Z"/><path class="cls-8" d="M171.94975,45.77914a3.55983,3.55983,0,0,1-.90918-.1084,2.085,2.085,0,0,1-.70166-.32324,1.51385,1.51385,0,0,1-.45606-.5332,1.6371,1.6371,0,0,1-.17187-.7334h1.249a.72024.72024,0,0,0,.2876.54687,1.22118,1.22118,0,0,0,.69531.169,1.56442,1.56442,0,0,0,.29785-.02832.84707.84707,0,0,0,.25635-.09082.55606.55606,0,0,0,.18262-.165.41984.41984,0,0,0,.07031-.24219.40027.40027,0,0,0-.07373-.24609.59385.59385,0,0,0-.21435-.168,1.75963,1.75963,0,0,0-.34375-.123c-.13575-.03515-.29-.07422-.46338-.11621q-.32959-.07617-.64893-.1748a2.172,2.172,0,0,1-.57227-.2666,1.361,1.361,0,0,1-.41064-.42872,1.23886,1.23886,0,0,1-.15771-.65234,1.45676,1.45676,0,0,1,.15429-.69141,1.36239,1.36239,0,0,1,.4209-.48046,1.84483,1.84483,0,0,1,.63184-.28125,3.2476,3.2476,0,0,1,.78613-.09082,2.92785,2.92785,0,0,1,.76172.09472,1.84907,1.84907,0,0,1,.61719.28418,1.4084,1.4084,0,0,1,.42138.48047,1.59327,1.59327,0,0,1,.17871.68457h-1.21386a.61973.61973,0,0,0-.24561-.44922.92554.92554,0,0,0-.56152-.15429.93856.93856,0,0,0-.52637.12988.39045.39045,0,0,0-.19678.33984.33548.33548,0,0,0,.07373.22168.5883.5883,0,0,0,.21436.15039,2.10174,2.10174,0,0,0,.354.11621c.14307.03516.30762.07325.49512.11524.23389.05664.457.11914.67041.18945a2.1007,2.1007,0,0,1,.56494.28125,1.33174,1.33174,0,0,1,.39307.44238,1.36332,1.36332,0,0,1,.147.666,1.45558,1.45558,0,0,1-.59277,1.21094,2.04163,2.04163,0,0,1-.65283.3164A2.912,2.912,0,0,1,171.94975,45.77914Z"/><path class="cls-8" d="M174.51127,40.64145h2.14063a2.3874,2.3874,0,0,1,.94775.18261,2.1162,2.1162,0,0,1,.7334.5127,2.30163,2.30163,0,0,1,.47363.7998,3.08367,3.08367,0,0,1,.16846,1.0459,2.93466,2.93466,0,0,1-.22461,1.18262,2.08868,2.08868,0,0,1-.64551.83887,2.1354,2.1354,0,0,1-.67383.33984,2.93043,2.93043,0,0,1-.85644.11621h-2.06348Zm1.97217,3.97265a1.14214,1.14214,0,0,0,.92676-.36816,1.61807,1.61807,0,0,0,.30859-1.06348,1.7368,1.7368,0,0,0-.31592-1.09473,1.07733,1.07733,0,0,0-.90527-.40722h-.74414V44.6141Z"/><path class="cls-8" d="M180.59672,40.64145h1.27734L183.68461,45.66h-1.30517l-.29493-.90527h-1.75439L180.042,45.66h-1.249Zm1.2002,3.22168-.3794-1.21387c-.02344-.06543-.04639-.13867-.06982-.21778q-.03516-.12011-.06348-.23144c-.02344-.085-.04443-.1709-.063-.25977h-.01416c-.02344.08887-.04687.17481-.06982.25977-.02393.07422-.0459.15137-.0669.23144-.021.07911-.04345.15235-.06689.21778l-.38574,1.21387Z"/><path class="cls-6" d="M180.663,101.814h5.22767a1.30422,1.30422,0,0,1,1.30422,1.30422v6.612a1.30421,1.30421,0,0,1-1.30421,1.30421H180.663a1.30422,1.30422,0,0,1-1.30422-1.30422v-6.612A1.30421,1.30421,0,0,1,180.663,101.814Z"/><polygon class="cls-6" points="160.788 101.816 170.062 101.816 174.703 106.429 170.062 111.037 160.788 111.037 156.152 106.429 160.788 101.816"/><polygon class="cls-6" points="154.741 101.816 164.016 101.816 168.656 106.429 164.016 111.037 154.741 111.037 150.105 106.429 154.741 101.816"/><polygon class="cls-6" points="167.498 101.816 180.639 101.816 187.214 106.429 180.639 111.037 167.498 111.037 160.929 106.429 167.498 101.816"/><path class="cls-8" d="M157.31791,103.83871h1.24219v5.01758h-1.24219Z"/><path class="cls-8" d="M159.13188,108.31234a1.96434,1.96434,0,0,1,.1792-.44238,2.07558,2.07558,0,0,1,.26318-.36816,2.801,2.801,0,0,1,.333-.31543q.33031-.28125.709-.54395a7.59357,7.59357,0,0,0,.667-.51562,1.22236,1.22236,0,0,0,.23145-.27442.61508.61508,0,0,0,.08447-.32226.64383.64383,0,0,0-.1582-.45313.60321.60321,0,0,0-.4668-.17187.62575.62575,0,0,0-.519.21777.77518.77518,0,0,0-.1582.291,1.588,1.588,0,0,0-.05957.418h-1.10889a2.70574,2.70574,0,0,1,.07715-.70215,1.56638,1.56638,0,0,1,.25293-.51953,1.44791,1.44791,0,0,1,.58935-.47754,2.23583,2.23583,0,0,1,.95459-.18164,2.26458,2.26458,0,0,1,.76856.11914,1.56992,1.56992,0,0,1,.55761.33007,1.39113,1.39113,0,0,1,.34082.49122,1.54669,1.54669,0,0,1,.11573.59668,1.48538,1.48538,0,0,1-.06348.45214,1.38764,1.38764,0,0,1-.17529.36524,1.88866,1.88866,0,0,1-.25635.30176c-.0957.09082-.19775.17871-.30518.26269q-.16113.1333-.33349.25684c-.11475.082-.228.16211-.34033.24218-.11231.07911-.2212.16114-.32618.24512a2.73362,2.73362,0,0,0-.28418.25977v.00683H162.792v.97559h-3.73388A2.26337,2.26337,0,0,1,159.13188,108.31234Z"/><path class="cls-8" d="M165.59916,108.96859a2.52788,2.52788,0,0,1-1.01025-.19628,2.32015,2.32015,0,0,1-.78272-.544,2.43886,2.43886,0,0,1-.50537-.82422,2.94312,2.94312,0,0,1-.1792-1.03906,3.01179,3.01179,0,0,1,.17578-1.042,2.44814,2.44814,0,0,1,.498-.832,2.2864,2.2864,0,0,1,.7793-.55079,2.49992,2.49992,0,0,1,1.01758-.20019,2.56755,2.56755,0,0,1,.80371.11914,2.1355,2.1355,0,0,1,.62793.32324,1.7461,1.7461,0,0,1,.51611.60352,2.23035,2.23035,0,0,1,.23486.77929h-1.24218a.90984.90984,0,0,0-.94727-.79394,1.117,1.117,0,0,0-.53369.12012,1.0391,1.0391,0,0,0-.37207.333,1.5545,1.5545,0,0,0-.2207.50489,2.581,2.581,0,0,0-.07373.63574,2.27124,2.27124,0,0,0,.084.63476,1.54867,1.54867,0,0,0,.24219.502,1.15665,1.15665,0,0,0,.3789.33008,1.04573,1.04573,0,0,0,.502.11914.96036.96036,0,0,0,.67724-.23536.92737.92737,0,0,0,.29834-.5996h1.24219a1.965,1.965,0,0,1-1.2876,1.709A2.67146,2.67146,0,0,1,165.59916,108.96859Z"/><path class="cls-8" d="M167.88725,109.33383h3.06006v.709h-3.06006Z"/><path class="cls-8" d="M173.27055,108.97543a3.55988,3.55988,0,0,1-.90918-.1084,2.04818,2.04818,0,0,1-.70166-.32324,1.51385,1.51385,0,0,1-.45606-.5332,1.634,1.634,0,0,1-.17187-.7334h1.249a.72064.72064,0,0,0,.2876.54785,1.22159,1.22159,0,0,0,.69531.168,1.564,1.564,0,0,0,.29785-.02735.87468.87468,0,0,0,.25635-.09179.53548.53548,0,0,0,.18262-.165.41766.41766,0,0,0,.07031-.24219.39931.39931,0,0,0-.07373-.24512.59548.59548,0,0,0-.21435-.16894,1.75963,1.75963,0,0,0-.34375-.12305q-.20362-.05273-.46338-.11523-.3296-.07764-.64893-.17578a2.17153,2.17153,0,0,1-.57226-.26661,1.35771,1.35771,0,0,1-.41065-.42773,1.24253,1.24253,0,0,1-.15771-.65332,1.45676,1.45676,0,0,1,.15429-.69141,1.37093,1.37093,0,0,1,.4209-.48047,1.86274,1.86274,0,0,1,.63184-.28027,3.19927,3.19927,0,0,1,.78613-.0918,2.92742,2.92742,0,0,1,.76172.09473,1.88819,1.88819,0,0,1,.61719.28418,1.42072,1.42072,0,0,1,.42138.48145,1.58508,1.58508,0,0,1,.17871.68359h-1.21386a.62158.62158,0,0,0-.24561-.44922.93214.93214,0,0,0-.56152-.1543.94666.94666,0,0,0-.52637.12989.3931.3931,0,0,0-.19678.34082.33282.33282,0,0,0,.07373.2207.58976.58976,0,0,0,.21436.15137,2.1093,2.1093,0,0,0,.354.11523c.14307.03516.30762.07422.49512.11621q.35084.0835.67041.18946a2.12786,2.12786,0,0,1,.56494.28027,1.33174,1.33174,0,0,1,.39307.44238,1.36729,1.36729,0,0,1,.147.667,1.45555,1.45555,0,0,1-.59277,1.21094,2.0197,2.0197,0,0,1-.65283.31543A2.912,2.912,0,0,1,173.27055,108.97543Z"/><path class="cls-8" d="M178.106,108.96859a2.528,2.528,0,0,1-1.01026-.19628,2.32011,2.32011,0,0,1-.78271-.544,2.43886,2.43886,0,0,1-.50537-.82422,2.94312,2.94312,0,0,1-.1792-1.03906,3.01155,3.01155,0,0,1,.17578-1.042,2.44814,2.44814,0,0,1,.49805-.832,2.28636,2.28636,0,0,1,.77929-.55079,2.5,2.5,0,0,1,1.01758-.20019,2.56755,2.56755,0,0,1,.80371.11914,2.13525,2.13525,0,0,1,.62793.32324,1.74613,1.74613,0,0,1,.51612.60352,2.23056,2.23056,0,0,1,.23486.77929h-1.24219a.90984.90984,0,0,0-.94726-.79394,1.117,1.117,0,0,0-.5337.12012,1.03927,1.03927,0,0,0-.37207.333,1.55493,1.55493,0,0,0-.2207.50489,2.58149,2.58149,0,0,0-.07373.63574,2.27087,2.27087,0,0,0,.084.63476,1.54865,1.54865,0,0,0,.24218.502,1.15668,1.15668,0,0,0,.37891.33008,1.04572,1.04572,0,0,0,.502.11914.96039.96039,0,0,0,.67725-.23536.92737.92737,0,0,0,.29834-.5996h1.24219a1.965,1.965,0,0,1-1.2876,1.709A2.6715,2.6715,0,0,1,178.106,108.96859Z"/><path class="cls-8" d="M180.75883,103.83871H182.001v3.96485h2.25342v1.05273h-3.49561Z"/><path class="cls-8" d="M171.1602,52.88949h1.24218v5.01758H171.1602Z"/><path class="cls-8" d="M173.08988,52.88949h1.24952l1.48779,2.51953q.02783.05566.08789.16114.05933.10546.11572.21093.07032.126.14014.26661h.01416c-.00439-.11231-.00684-.21973-.00684-.32325-.00488-.08886-.00732-.17578-.00732-.25976v-2.5752h1.21436v5.01758h-1.249l-1.47412-2.48437a1.51692,1.51692,0,0,1-.09473-.15821c-.04-.07226-.07861-.14843-.11572-.22754-.04687-.08886-.09619-.18457-.14746-.28808h-.01416c0,.12207.00244.23633.00732.34375,0,.09375.001.18652.00342.27734.00244.0918.00342.1582.00342.2002v2.33691h-1.21436Z"/><path class="cls-8" d="M179.30815,53.94223h-1.46V52.88949h4.17627v1.05274h-1.47413v3.96484h-1.24218Z"/><path class="cls-8" d="M183.35795,54.83285h-1.03174v-.7998a1.53891,1.53891,0,0,0,.835-.249,1.064,1.064,0,0,0,.44239-.72656h.94043v4.84961h-1.186Z"/><polygon class="cls-3" points="176.632 63.564 168.192 63.564 163.967 68.176 168.192 72.784 176.632 72.784 180.85 68.176 176.632 63.564"/><path class="cls-3" d="M180.68248,63.5662h5.22767a1.30422,1.30422,0,0,1,1.30422,1.30422v6.612a1.30421,1.30421,0,0,1-1.30421,1.30421h-5.22767a1.30422,1.30422,0,0,1-1.30422-1.30422v-6.612A1.30421,1.30421,0,0,1,180.68248,63.5662Z"/><polygon class="cls-3" points="187.214 65.451 184.822 63.564 173.133 63.564 167.287 68.176 173.133 72.784 184.822 72.784 187.214 70.898 187.214 65.451"/><path class="cls-8" d="M169.79057,65.40512h1.24219V70.4227h-1.24219Z"/><path class="cls-8" d="M171.72026,65.40512h1.24951l1.48779,2.51953q.02784.05566.08789.16113.05933.10547.11572.21094.07032.126.14014.2666h.01416c-.00439-.1123-.00684-.21973-.00684-.32324-.00488-.08887-.00732-.17578-.00732-.25977V65.40512h1.21436V70.4227h-1.249l-1.47412-2.48438a1.51685,1.51685,0,0,1-.09472-.1582c-.04-.07227-.07862-.14844-.11573-.22754-.04687-.08887-.09619-.18457-.14746-.28809h-.01416c0,.12207.00244.23633.00733.34375,0,.09375.001.18653.00341.27735.00244.09179.00342.1582.00342.20019V70.4227h-1.21435Z"/><path class="cls-8" d="M177.93852,66.45785h-1.46V65.40512h4.17627v1.05273h-1.47412V70.4227h-1.24219Z"/><path class="cls-8" d="M181.002,69.87875a1.96527,1.96527,0,0,1,.1792-.44238,2.07658,2.07658,0,0,1,.26319-.36817,2.80178,2.80178,0,0,1,.333-.31543q.33033-.28125.709-.54394a7.59356,7.59356,0,0,0,.667-.51563,1.22237,1.22237,0,0,0,.23145-.27441.61509.61509,0,0,0,.08447-.32227.64379.64379,0,0,0-.1582-.45312.60323.60323,0,0,0-.4668-.17188.62576.62576,0,0,0-.519.21778.77523.77523,0,0,0-.15821.291,1.589,1.589,0,0,0-.05957.418h-1.10888a2.70622,2.70622,0,0,1,.07714-.70215,1.56658,1.56658,0,0,1,.25293-.51953,1.448,1.448,0,0,1,.58936-.47754,2.23591,2.23591,0,0,1,.95459-.18164,2.26448,2.26448,0,0,1,.76855.11914,1.57,1.57,0,0,1,.55762.33008,1.39122,1.39122,0,0,1,.34082.49121,1.54672,1.54672,0,0,1,.11572.59668,1.48541,1.48541,0,0,1-.06347.45215,1.38757,1.38757,0,0,1-.17529.36523,1.88779,1.88779,0,0,1-.25635.30176c-.09571.09082-.19776.17871-.30518.2627-.10742.08886-.21875.1748-.33349.25683s-.228.16211-.34034.24219c-.1123.0791-.22119.16113-.32617.24512a2.73255,2.73255,0,0,0-.28418.25976v.00684h2.09131v.97559h-3.73389A2.2643,2.2643,0,0,1,181.002,69.87875Z"/><polygon class="cls-3" points="227.012 98.181 235.452 98.181 239.677 93.568 235.452 88.96 227.012 88.96 222.794 93.568 227.012 98.181"/><path class="cls-3" d="M218.86912,88.95823h5.22767a1.30422,1.30422,0,0,1,1.30422,1.30422v6.612a1.30421,1.30421,0,0,1-1.30421,1.30421h-5.22767a1.30422,1.30422,0,0,1-1.30422-1.30422v-6.612A1.30421,1.30421,0,0,1,218.86912,88.95823Z"/><polygon class="cls-3" points="217.565 96.294 219.957 98.181 231.646 98.181 237.492 93.568 231.646 88.96 219.957 88.96 217.565 90.847 217.565 96.294"/><path class="cls-8" d="M221.47514,90.79867h1.24219v5.01856h-1.24219Z"/><path class="cls-8" d="M223.40483,90.79867h1.24951l1.48779,2.51953q.02784.05714.08789.16114.05932.10547.11572.21093.07032.126.14014.26661H226.5q-.00659-.16846-.00683-.32227c-.00489-.08887-.00733-.17578-.00733-.25977V90.79867h1.21436v5.01856h-1.249l-1.47412-2.48438a1.76408,1.76408,0,0,1-.09472-.1582q-.06006-.10841-.11573-.22852-.0703-.13329-.14746-.28711H224.605c0,.1211.00244.23633.00733.34375,0,.09375.001.18555.00341.27735.00245.09082.00342.15722.00342.19922v2.33789h-1.21435Z"/><path class="cls-8" d="M229.62309,91.85141h-1.46V90.79867h4.17627v1.05274h-1.47412v3.96582h-1.24219Z"/><path class="cls-8" d="M233.67289,92.743h-1.03174V91.9432a1.54775,1.54775,0,0,0,.835-.25,1.05976,1.05976,0,0,0,.44238-.72558h.94043v4.84961h-1.186Z"/><polygon class="cls-3" points="228.16 86.088 236.6 86.088 240.825 81.475 236.6 76.867 228.16 76.867 223.941 81.475 228.16 86.088"/><path class="cls-3" d="M218.88156,76.865h5.22767a1.30422,1.30422,0,0,1,1.30422,1.30422v6.612a1.30421,1.30421,0,0,1-1.30421,1.30421h-5.22767a1.30422,1.30422,0,0,1-1.30422-1.30422v-6.612A1.30421,1.30421,0,0,1,218.88156,76.865Z"/><polygon class="cls-3" points="217.577 84.201 219.97 86.088 231.659 86.088 237.504 81.475 231.659 76.867 219.97 76.867 217.577 78.754 217.577 84.201"/><path class="cls-8" d="M221.03471,78.7059h1.24219v5.01758h-1.24219Z"/><path class="cls-8" d="M222.9644,78.7059h1.24951l1.48779,2.51953q.02784.05566.08789.16113.05932.10548.11572.21094.07032.126.14014.2666h.01416c-.00439-.1123-.00683-.21972-.00683-.32324-.00489-.08887-.00733-.17578-.00733-.25977V78.7059h1.21436v5.01758h-1.249l-1.47412-2.48438a1.51576,1.51576,0,0,1-.09472-.1582c-.04-.07227-.07862-.14844-.11573-.22754-.04687-.08887-.09619-.18457-.14746-.28809h-.01416c0,.12207.00244.23633.00733.34375,0,.09375.001.18653.00341.27735.00245.09179.00342.1582.00342.20019v2.33692H222.9644Z"/><path class="cls-8" d="M229.18266,79.75863h-1.46V78.7059H231.899v1.05273h-1.47412v3.96485h-1.24219Z"/><path class="cls-8" d="M232.24613,83.17953a1.96527,1.96527,0,0,1,.1792-.44238,2.07658,2.07658,0,0,1,.26319-.36817,2.80023,2.80023,0,0,1,.333-.31542q.33031-.28125.709-.544a7.59356,7.59356,0,0,0,.667-.51563,1.2221,1.2221,0,0,0,.23145-.27441.61508.61508,0,0,0,.08447-.32226.64381.64381,0,0,0-.1582-.45313.60323.60323,0,0,0-.4668-.17187.62575.62575,0,0,0-.519.21777.77523.77523,0,0,0-.15821.291,1.589,1.589,0,0,0-.05957.418h-1.10888a2.70574,2.70574,0,0,1,.07715-.70215,1.56619,1.56619,0,0,1,.25293-.51953,1.44791,1.44791,0,0,1,.58935-.47754,2.23591,2.23591,0,0,1,.95459-.18164,2.26483,2.26483,0,0,1,.76856.11914,1.57017,1.57017,0,0,1,.55761.33008,1.39122,1.39122,0,0,1,.34082.49121,1.54677,1.54677,0,0,1,.11573.59668,1.4854,1.4854,0,0,1-.06348.45215,1.38779,1.38779,0,0,1-.17529.36524,1.88815,1.88815,0,0,1-.25635.30175c-.09571.09082-.19776.17871-.30518.2627q-.16113.1333-.33349.25683c-.11475.082-.228.16211-.34034.24219-.1123.0791-.22119.16114-.32617.24512a2.7315,2.7315,0,0,0-.28418.25977v.00683h2.09131v.97559H232.1724A2.26437,2.26437,0,0,1,232.24613,83.17953Z"/><path class="cls-8" d="M220.94194,40.64145h1.24218V45.66h-1.24218Z"/><path class="cls-8" d="M222.7559,45.11606a1.946,1.946,0,0,1,.1792-.44239,2.04151,2.04151,0,0,1,.26318-.36816,2.8899,2.8899,0,0,1,.333-.31641q.33033-.27978.709-.54394a7.23791,7.23791,0,0,0,.667-.51563,1.21888,1.21888,0,0,0,.23144-.27344.61605.61605,0,0,0,.08448-.32324.64134.64134,0,0,0-.15821-.45215.59975.59975,0,0,0-.46679-.17187.628.628,0,0,0-.519.2168.77951.77951,0,0,0-.1582.292,1.58017,1.58017,0,0,0-.05957.417h-1.10889a2.711,2.711,0,0,1,.07715-.70215,1.571,1.571,0,0,1,.25293-.51855,1.44009,1.44009,0,0,1,.58936-.47754,2.22065,2.22065,0,0,1,.95459-.18262,2.2889,2.2889,0,0,1,.76855.11914,1.58439,1.58439,0,0,1,.55762.33008,1.409,1.409,0,0,1,.34082.49121,1.55025,1.55025,0,0,1,.11572.59668,1.49186,1.49186,0,0,1-.06348.45312,1.38092,1.38092,0,0,1-.17529.36426,1.80605,1.80605,0,0,1-.25635.30176,3.99488,3.99488,0,0,1-.30517.26367q-.16113.13331-.3335.25586c-.11474.082-.228.16309-.34033.24219-.1123.08008-.22119.16113-.32617.24609a2.73159,2.73159,0,0,0-.28418.25977v.00683h2.09131V45.66h-3.73389A2.25687,2.25687,0,0,1,222.7559,45.11606Z"/><path class="cls-8" d="M229.22319,45.77231a2.52775,2.52775,0,0,1-1.01026-.19629,2.33392,2.33392,0,0,1-.78271-.544,2.443,2.443,0,0,1-.50537-.82519,2.93928,2.93928,0,0,1-.1792-1.03907,3.01155,3.01155,0,0,1,.17578-1.042,2.45755,2.45755,0,0,1,.498-.832,2.31328,2.31328,0,0,1,.7793-.55078,2.71323,2.71323,0,0,1,1.82129-.08008,2.11035,2.11035,0,0,1,.62793.32227,1.75487,1.75487,0,0,1,.51611.60351,2.243,2.243,0,0,1,.23487.7793h-1.24219a.9101.9101,0,0,0-.94727-.793,1.12839,1.12839,0,0,0-.53369.11914,1.042,1.042,0,0,0-.37207.334,1.54568,1.54568,0,0,0-.2207.50489,2.57859,2.57859,0,0,0-.07373.63476,2.28332,2.28332,0,0,0,.084.63575,1.54891,1.54891,0,0,0,.24219.502,1.16467,1.16467,0,0,0,.37891.3291,1.03513,1.03513,0,0,0,.50195.12012.96484.96484,0,0,0,.67725-.23535.92989.92989,0,0,0,.29834-.60059h1.24218a1.95316,1.95316,0,0,1-.186.709,1.93,1.93,0,0,1-.41748.57618,1.9764,1.9764,0,0,1-.68408.42382A2.6474,2.6474,0,0,1,229.22319,45.77231Z"/><path class="cls-8" d="M231.51127,46.13656h3.06006v.709h-3.06006Z"/><path class="cls-8" d="M236.89457,45.77914a3.55988,3.55988,0,0,1-.90918-.1084,2.08523,2.08523,0,0,1-.70166-.32324,1.51382,1.51382,0,0,1-.45605-.5332,1.6371,1.6371,0,0,1-.17188-.7334h1.249a.72023.72023,0,0,0,.28759.54687,1.22122,1.22122,0,0,0,.69532.169,1.5645,1.5645,0,0,0,.29785-.02832.84717.84717,0,0,0,.25635-.09082.556.556,0,0,0,.18261-.165.41985.41985,0,0,0,.07032-.24219.40028.40028,0,0,0-.07374-.24609.59377.59377,0,0,0-.21435-.168,1.75963,1.75963,0,0,0-.34375-.123c-.13574-.03515-.29-.07422-.46338-.11621q-.32959-.07617-.64893-.1748a2.17213,2.17213,0,0,1-.57226-.2666,1.36094,1.36094,0,0,1-.41065-.42872,1.23886,1.23886,0,0,1-.15771-.65234,1.45664,1.45664,0,0,1,.1543-.69141,1.36219,1.36219,0,0,1,.4209-.48046,1.84486,1.84486,0,0,1,.63183-.28125,3.24766,3.24766,0,0,1,.78613-.09082,2.9278,2.9278,0,0,1,.76172.09472,1.849,1.849,0,0,1,.61719.28418,1.40843,1.40843,0,0,1,.42139.48047,1.59327,1.59327,0,0,1,.17871.68457H237.5684a.61975.61975,0,0,0-.2456-.44922.92557.92557,0,0,0-.56153-.15429.93858.93858,0,0,0-.52637.12988.39046.39046,0,0,0-.19677.33984.33543.33543,0,0,0,.07373.22168.58816.58816,0,0,0,.21435.15039,2.10189,2.10189,0,0,0,.354.11621c.14306.03516.30761.07325.49511.11524.23389.05664.457.11914.67041.18945a2.10076,2.10076,0,0,1,.56495.28125,1.33182,1.33182,0,0,1,.39306.44238,1.36321,1.36321,0,0,1,.147.666,1.45558,1.45558,0,0,1-.59277,1.21094,2.04153,2.04153,0,0,1-.65283.3164A2.912,2.912,0,0,1,236.89457,45.77914Z"/><path class="cls-8" d="M241.73,45.77231a2.52771,2.52771,0,0,1-1.01025-.19629,2.33406,2.33406,0,0,1-.78272-.544,2.44321,2.44321,0,0,1-.50537-.82519,2.93928,2.93928,0,0,1-.1792-1.03907,3.01179,3.01179,0,0,1,.17578-1.042,2.45758,2.45758,0,0,1,.49805-.832,2.31318,2.31318,0,0,1,.7793-.55078,2.71323,2.71323,0,0,1,1.82129-.08008,2.11047,2.11047,0,0,1,.62793.32227,1.755,1.755,0,0,1,.51611.60351,2.24293,2.24293,0,0,1,.23486.7793h-1.24218a.9101.9101,0,0,0-.94727-.793,1.12839,1.12839,0,0,0-.53369.11914,1.04186,1.04186,0,0,0-.37207.334,1.54548,1.54548,0,0,0-.22071.50489,2.57907,2.57907,0,0,0-.07373.63476,2.28331,2.28331,0,0,0,.084.63575,1.54871,1.54871,0,0,0,.24219.502,1.16474,1.16474,0,0,0,.3789.3291,1.03514,1.03514,0,0,0,.502.12012.96482.96482,0,0,0,.67724-.23535.92979.92979,0,0,0,.29834-.60059H243.941a1.95337,1.95337,0,0,1-.186.709,1.9298,1.9298,0,0,1-.41748.57618,1.97631,1.97631,0,0,1-.68408.42382A2.64732,2.64732,0,0,1,241.73,45.77231Z"/><path class="cls-8" d="M244.38285,40.64145H245.625v3.96582h2.25342V45.66h-3.49561Z"/><path class="cls-6" d="M218.88048,101.99276h5.22767a1.30422,1.30422,0,0,1,1.30422,1.30422v6.612a1.30421,1.30421,0,0,1-1.30421,1.30421h-5.22767a1.30422,1.30422,0,0,1-1.30422-1.30422v-6.612A1.30421,1.30421,0,0,1,218.88048,101.99276Z"/><polygon class="cls-6" points="243.983 111.211 234.709 111.211 230.068 106.599 234.709 101.991 243.983 101.991 248.62 106.599 243.983 111.211"/><polygon class="cls-6" points="250.03 111.211 240.755 111.211 236.115 106.599 240.755 101.991 250.03 101.991 254.666 106.599 250.03 111.211"/><polygon class="cls-6" points="237.273 111.211 224.132 111.211 217.557 106.599 224.132 101.991 237.273 101.991 243.843 106.599 237.273 111.211"/><path class="cls-8" d="M220.94194,104.01449h1.24218v5.01856h-1.24218Z"/><path class="cls-8" d="M222.7559,108.4891a1.94589,1.94589,0,0,1,.1792-.44238,2.04151,2.04151,0,0,1,.26318-.36816,2.8899,2.8899,0,0,1,.333-.31641q.33033-.27978.709-.54395a7.23791,7.23791,0,0,0,.667-.51562,1.21888,1.21888,0,0,0,.23144-.27344.61605.61605,0,0,0,.08448-.32324.64134.64134,0,0,0-.15821-.45215.59975.59975,0,0,0-.46679-.17187.628.628,0,0,0-.519.21679.77966.77966,0,0,0-.1582.292,1.58025,1.58025,0,0,0-.05957.417h-1.10889a2.7109,2.7109,0,0,1,.07715-.70215,1.5709,1.5709,0,0,1,.25293-.51856,1.44017,1.44017,0,0,1,.58936-.47754,2.22066,2.22066,0,0,1,.95459-.18261,2.2889,2.2889,0,0,1,.76855.11914,1.58439,1.58439,0,0,1,.55762.33008,1.4089,1.4089,0,0,1,.34082.49121,1.55025,1.55025,0,0,1,.11572.59668,1.492,1.492,0,0,1-.06348.45312,1.38122,1.38122,0,0,1-.17529.36426,1.80605,1.80605,0,0,1-.25635.30176,3.99933,3.99933,0,0,1-.30517.26367q-.16113.13331-.3335.25586-.17211.123-.34033.24219c-.1123.08007-.22119.16113-.32617.24609a2.73048,2.73048,0,0,0-.28418.25977v.00683h2.09131v.97559h-3.73389A2.257,2.257,0,0,1,222.7559,108.4891Z"/><path class="cls-8" d="M229.22319,109.14535a2.52775,2.52775,0,0,1-1.01026-.19629,2.3339,2.3339,0,0,1-.78271-.54394,2.443,2.443,0,0,1-.50537-.8252,2.93923,2.93923,0,0,1-.1792-1.03906,3.01155,3.01155,0,0,1,.17578-1.042,2.45755,2.45755,0,0,1,.498-.832,2.31314,2.31314,0,0,1,.7793-.55078,2.71323,2.71323,0,0,1,1.82129-.08008,2.11057,2.11057,0,0,1,.62793.32226,1.755,1.755,0,0,1,.51611.60352,2.243,2.243,0,0,1,.23487.7793h-1.24219a.91008.91008,0,0,0-.94727-.793,1.12839,1.12839,0,0,0-.53369.11914,1.042,1.042,0,0,0-.37207.334,1.54571,1.54571,0,0,0-.2207.50488,2.57867,2.57867,0,0,0-.07373.63477,2.28324,2.28324,0,0,0,.084.63574,1.54887,1.54887,0,0,0,.24219.502,1.16479,1.16479,0,0,0,.37891.3291,1.03523,1.03523,0,0,0,.50195.12011.96484.96484,0,0,0,.67725-.23535.92984.92984,0,0,0,.29834-.60058h1.24218a1.95321,1.95321,0,0,1-.186.709,1.92993,1.92993,0,0,1-.41748.57617,1.97628,1.97628,0,0,1-.68408.42383A2.64741,2.64741,0,0,1,229.22319,109.14535Z"/><path class="cls-8" d="M231.51127,109.50961h3.06006v.709h-3.06006Z"/><path class="cls-8" d="M236.89457,109.15219a3.55988,3.55988,0,0,1-.90918-.1084,2.08523,2.08523,0,0,1-.70166-.32324,1.51385,1.51385,0,0,1-.45605-.53321,1.63706,1.63706,0,0,1-.17188-.73339h1.249a.72023.72023,0,0,0,.28759.54687,1.22122,1.22122,0,0,0,.69532.16895,1.5645,1.5645,0,0,0,.29785-.02832.84717.84717,0,0,0,.25635-.09082.556.556,0,0,0,.18261-.165.41985.41985,0,0,0,.07032-.24219.40026.40026,0,0,0-.07374-.24609.59377.59377,0,0,0-.21435-.168,1.75963,1.75963,0,0,0-.34375-.123c-.13574-.03516-.29-.07422-.46338-.11621q-.32959-.07617-.64893-.17481a2.17181,2.17181,0,0,1-.57226-.2666,1.36091,1.36091,0,0,1-.41065-.42871,1.23886,1.23886,0,0,1-.15771-.65234,1.45664,1.45664,0,0,1,.1543-.69141,1.36231,1.36231,0,0,1,.4209-.48047,1.84524,1.84524,0,0,1,.63183-.28125,3.24815,3.24815,0,0,1,.78613-.09082,2.92737,2.92737,0,0,1,.76172.09473,1.849,1.849,0,0,1,.61719.28418,1.40843,1.40843,0,0,1,.42139.48047,1.59323,1.59323,0,0,1,.17871.68457H237.5684a.61975.61975,0,0,0-.2456-.44922.92551.92551,0,0,0-.56153-.1543.93866.93866,0,0,0-.52637.12988.39046.39046,0,0,0-.19677.33985.33544.33544,0,0,0,.07373.22168.58828.58828,0,0,0,.21435.15039,2.10279,2.10279,0,0,0,.354.11621c.14306.03516.30761.07324.49511.11523.23389.05664.457.11914.67041.18946a2.10076,2.10076,0,0,1,.56495.28125,1.33172,1.33172,0,0,1,.39306.44238,1.36316,1.36316,0,0,1,.147.666,1.45555,1.45555,0,0,1-.59277,1.21093,2.04134,2.04134,0,0,1-.65283.31641A2.912,2.912,0,0,1,236.89457,109.15219Z"/><path class="cls-8" d="M239.4561,104.01449h2.14062a2.3874,2.3874,0,0,1,.94775.18262,2.11607,2.11607,0,0,1,.7334.5127,2.30155,2.30155,0,0,1,.47364.7998,3.08392,3.08392,0,0,1,.16845,1.0459,2.93453,2.93453,0,0,1-.22461,1.18262,2.08863,2.08863,0,0,1-.6455.83886,2.13522,2.13522,0,0,1-.67383.33985,2.93084,2.93084,0,0,1-.85645.11621H239.4561Zm1.97216,3.97266a1.14213,1.14213,0,0,0,.92676-.36817,1.618,1.618,0,0,0,.3086-1.06347,1.73684,1.73684,0,0,0-.31592-1.09473,1.07735,1.07735,0,0,0-.90528-.40722h-.74414v2.93359Z"/><path class="cls-8" d="M245.54155,104.01449h1.27734l1.81055,5.01856h-1.30518l-.29492-.90528h-1.7544l-.28808.90528h-1.249Zm1.20019,3.22168-.37939-1.21386c-.02344-.06543-.04639-.13868-.06983-.21778-.02344-.08008-.04443-.15722-.06347-.23144-.02344-.085-.04444-.1709-.063-.25977h-.01416c-.02344.08887-.04688.17481-.06983.25977-.02392.07422-.0459.15136-.06689.23144-.021.0791-.04346.15235-.0669.21778l-.38574,1.21386Z"/><path class="cls-7" d="M180.67165,76.33425h5.22767a1.30422,1.30422,0,0,1,1.30422,1.30422v6.612a1.30421,1.30421,0,0,1-1.30421,1.30421h-5.22767a1.30422,1.30422,0,0,1-1.30422-1.30422v-6.612A1.30421,1.30421,0,0,1,180.67165,76.33425Z"/><path class="cls-7" d="M176.36366,76.33425h5.22767a1.30422,1.30422,0,0,1,1.30422,1.30422v6.612a1.30421,1.30421,0,0,1-1.30421,1.30421h-5.22767a1.30422,1.30422,0,0,1-1.30422-1.30422v-6.612A1.30421,1.30421,0,0,1,176.36366,76.33425Z"/><polygon class="cls-7" points="167.485 76.336 180.224 76.336 186.598 80.949 180.224 85.557 167.485 85.557 161.117 80.949 167.485 76.336"/><polygon class="cls-7" points="162.914 76.336 172.189 76.336 176.829 80.949 172.189 85.557 162.914 85.557 158.278 80.949 162.914 76.336"/><path class="cls-8" d="M166.3184,83.48422a2.95934,2.95934,0,0,1-.88769-.11914,1.70794,1.70794,0,0,1-.62793-.34473,1.657,1.657,0,0,1-.5337-1.3125h1.11622a1.035,1.035,0,0,0,.2246.62891.81647.81647,0,0,0,.65967.24219.78558.78558,0,0,0,.55811-.18262.63692.63692,0,0,0,.19287-.48438.55448.55448,0,0,0-.21045-.47363,1.00568,1.00568,0,0,0-.61084-.1582h-.2876v-.82129h.25977a.91832.91832,0,0,0,.54-.14356.47971.47971,0,0,0,.20361-.418.51331.51331,0,0,0-.165-.39649.66616.66616,0,0,0-.46631-.15039.70475.70475,0,0,0-.56543.21.88262.88262,0,0,0-.1997.52637h-1.102a1.76723,1.76723,0,0,1,.1333-.65625,1.43192,1.43192,0,0,1,.36523-.51172,1.69322,1.69322,0,0,1,.58594-.334,2.45841,2.45841,0,0,1,.79638-.11915,2.67013,2.67013,0,0,1,.72657.0918,1.67768,1.67768,0,0,1,.56152.2666,1.20092,1.20092,0,0,1,.49463.9961.88016.88016,0,0,1-.20361.60351,1.33153,1.33153,0,0,1-.52637.3584v.01367a1.2657,1.2657,0,0,1,.63525.40723,1.18506,1.18506,0,0,1,.23535.77246,1.388,1.388,0,0,1-.15429.66992,1.35642,1.35642,0,0,1-.418.46973,1.86779,1.86779,0,0,1-.60693.27734A2.77927,2.77927,0,0,1,166.3184,83.48422Z"/><path class="cls-8" d="M168.36088,78.35336h1.2915l.78614,2.63184c.02783.09375.05469.19238.08056.29492s.0503.19922.07373.28808q.03516.15381.07715.30176h.01416c.02832-.09863.05371-.19922.07715-.30176.02344-.08886.04785-.18554.07373-.28808s.05274-.20117.08057-.29492l.7793-2.63184h1.25634l-1.64941,5.01855h-1.28467Z"/><path class="cls-8" d="M175.09135,83.48422a2.95946,2.95946,0,0,1-.8877-.11914,1.7081,1.7081,0,0,1-.62793-.34473,1.657,1.657,0,0,1-.53369-1.3125h1.11621a1.035,1.035,0,0,0,.22461.62891.81647.81647,0,0,0,.65967.24219.78558.78558,0,0,0,.55811-.18262.63692.63692,0,0,0,.19287-.48438.55448.55448,0,0,0-.21045-.47363,1.00568,1.00568,0,0,0-.61084-.1582h-.2876v-.82129h.25977a.91832.91832,0,0,0,.54-.14356.47971.47971,0,0,0,.20361-.418.51331.51331,0,0,0-.165-.39649.66616.66616,0,0,0-.46631-.15039.70475.70475,0,0,0-.56543.21.88262.88262,0,0,0-.1997.52637h-1.10206a1.76744,1.76744,0,0,1,.13331-.65625,1.43192,1.43192,0,0,1,.36523-.51172,1.69322,1.69322,0,0,1,.58594-.334,2.45841,2.45841,0,0,1,.79638-.11915,2.67013,2.67013,0,0,1,.72657.0918,1.67768,1.67768,0,0,1,.56152.2666,1.20092,1.20092,0,0,1,.49463.9961.88016.88016,0,0,1-.20361.60351,1.33153,1.33153,0,0,1-.52637.3584v.01367a1.2657,1.2657,0,0,1,.63525.40723,1.18506,1.18506,0,0,1,.23535.77246,1.388,1.388,0,0,1-.15429.66992,1.35642,1.35642,0,0,1-.418.46973,1.86784,1.86784,0,0,1-.60694.27734A2.77914,2.77914,0,0,1,175.09135,83.48422Z"/><path class="cls-8" d="M177.127,83.84848h3.06006v.709H177.127Z"/><path class="cls-8" d="M182.5103,83.49106a3.56027,3.56027,0,0,1-.90918-.1084,2.08525,2.08525,0,0,1-.70166-.32325,1.51366,1.51366,0,0,1-.45606-.5332,1.6371,1.6371,0,0,1-.17187-.7334h1.249a.72023.72023,0,0,0,.2876.54688,1.22124,1.22124,0,0,0,.69531.16894,1.56361,1.56361,0,0,0,.29785-.02832.8469.8469,0,0,0,.25635-.09082.556.556,0,0,0,.18262-.165.41988.41988,0,0,0,.07031-.24218.40028.40028,0,0,0-.07373-.2461.594.594,0,0,0-.21436-.168,1.75966,1.75966,0,0,0-.34375-.123c-.13574-.03516-.29-.07422-.46338-.11621q-.32958-.07619-.64892-.17481a2.172,2.172,0,0,1-.57227-.2666,1.361,1.361,0,0,1-.41064-.42871,1.2389,1.2389,0,0,1-.15772-.65235,1.45657,1.45657,0,0,1,.1543-.6914,1.36232,1.36232,0,0,1,.4209-.48047,1.84524,1.84524,0,0,1,.63183-.28125,3.24768,3.24768,0,0,1,.78614-.09082,2.92742,2.92742,0,0,1,.76172.09473,1.84873,1.84873,0,0,1,.61718.28418,1.40839,1.40839,0,0,1,.42139.48046,1.5933,1.5933,0,0,1,.17871.68457h-1.21387a.61971.61971,0,0,0-.2456-.44921.92551.92551,0,0,0-.56153-.1543.93863.93863,0,0,0-.52636.12988.39045.39045,0,0,0-.19678.33985.33546.33546,0,0,0,.07373.22168.58853.58853,0,0,0,.21436.15039,2.10265,2.10265,0,0,0,.354.11621c.14307.03515.30762.07324.49512.11523.23388.05664.457.11914.67041.18945a2.10128,2.10128,0,0,1,.56494.28125,1.33176,1.33176,0,0,1,.39306.44239,1.36314,1.36314,0,0,1,.147.666,1.45559,1.45559,0,0,1-.59278,1.21094,2.04145,2.04145,0,0,1-.65283.31641A2.91235,2.91235,0,0,1,182.5103,83.49106Z"/><path class="cls-7" d="M218.908,63.48712h5.22767a1.30422,1.30422,0,0,1,1.30422,1.30422v6.612a1.30421,1.30421,0,0,1-1.30421,1.30421H218.908a1.30422,1.30422,0,0,1-1.30422-1.30422v-6.612A1.30421,1.30421,0,0,1,218.908,63.48712Z"/><path class="cls-7" d="M223.216,63.48712h5.22767a1.30422,1.30422,0,0,1,1.30422,1.30422v6.612a1.30421,1.30421,0,0,1-1.30421,1.30421H223.216a1.30422,1.30422,0,0,1-1.30422-1.30422v-6.612A1.30421,1.30421,0,0,1,223.216,63.48712Z"/><polygon class="cls-7" points="237.323 72.705 224.584 72.705 218.21 68.093 224.584 63.485 237.323 63.485 243.691 68.093 237.323 72.705"/><polygon class="cls-7" points="241.893 72.705 232.619 72.705 227.978 68.093 232.619 63.485 241.893 63.485 246.53 68.093 241.893 72.705"/><path class="cls-8" d="M222.73832,70.63461a2.95939,2.95939,0,0,1-.88769-.11914,1.70645,1.70645,0,0,1-.62793-.34375,1.657,1.657,0,0,1-.53369-1.3125h1.11621a1.02967,1.02967,0,0,0,.22461.62793.81644.81644,0,0,0,.65966.24219.78116.78116,0,0,0,.55811-.18262.63545.63545,0,0,0,.19287-.48438.55568.55568,0,0,0-.21045-.47363,1.00586,1.00586,0,0,0-.61084-.15723h-.2876V67.6102h.25977a.91137.91137,0,0,0,.54-.14454.478.478,0,0,0,.20361-.417.51182.51182,0,0,0-.165-.39648.66647.66647,0,0,0-.46631-.15137.70193.70193,0,0,0-.56543.21094.87776.87776,0,0,0-.1997.52637h-1.10205a1.75914,1.75914,0,0,1,.1333-.65625,1.427,1.427,0,0,1,.36523-.5127,1.67628,1.67628,0,0,1,.58594-.333,2.4324,2.4324,0,0,1,.79639-.11914,2.71017,2.71017,0,0,1,.72656.09082,1.67768,1.67768,0,0,1,.56152.2666,1.20444,1.20444,0,0,1,.49463.99707.88019.88019,0,0,1-.20361.60352,1.32959,1.32959,0,0,1-.52637.35742v.01465a1.25777,1.25777,0,0,1,.63525.40625,1.18506,1.18506,0,0,1,.23536.77246,1.3853,1.3853,0,0,1-.1543.66992,1.36835,1.36835,0,0,1-.418.47071,1.868,1.868,0,0,1-.60693.27734A2.82174,2.82174,0,0,1,222.73832,70.63461Z"/><path class="cls-8" d="M224.7808,65.50473h1.29151l.78613,2.63183c.02783.09375.05469.19141.08057.29492q.0388.15381.07373.28711.03514.15528.07714.30176h.01417c.02832-.09765.05371-.19824.07714-.30176q.03516-.13329.07373-.28711c.02588-.10351.05274-.20117.08057-.29492l.7793-2.63183h1.25634l-1.64941,5.01758h-1.28467Z"/><path class="cls-8" d="M231.51127,70.63461a2.95934,2.95934,0,0,1-.88769-.11914,1.70645,1.70645,0,0,1-.62793-.34375,1.657,1.657,0,0,1-.53369-1.3125h1.11621a1.02967,1.02967,0,0,0,.22461.62793.81643.81643,0,0,0,.65966.24219.78116.78116,0,0,0,.55811-.18262.63545.63545,0,0,0,.19287-.48438.55568.55568,0,0,0-.21045-.47363,1.00586,1.00586,0,0,0-.61084-.15723h-.2876V67.6102h.25977a.91137.91137,0,0,0,.54-.14454.478.478,0,0,0,.20361-.417.51182.51182,0,0,0-.165-.39648.66647.66647,0,0,0-.46631-.15137.70193.70193,0,0,0-.56543.21094.87776.87776,0,0,0-.1997.52637h-1.102a1.75914,1.75914,0,0,1,.1333-.65625,1.427,1.427,0,0,1,.36523-.5127,1.67628,1.67628,0,0,1,.58594-.333,2.4324,2.4324,0,0,1,.79639-.11914,2.71022,2.71022,0,0,1,.72656.09082,1.67768,1.67768,0,0,1,.56152.2666,1.20444,1.20444,0,0,1,.49463.99707.88019.88019,0,0,1-.20361.60352,1.32966,1.32966,0,0,1-.52637.35742v.01465a1.25777,1.25777,0,0,1,.63525.40625,1.18506,1.18506,0,0,1,.23536.77246,1.3853,1.3853,0,0,1-.1543.66992,1.36835,1.36835,0,0,1-.418.47071,1.868,1.868,0,0,1-.60693.27734A2.82174,2.82174,0,0,1,231.51127,70.63461Z"/><path class="cls-8" d="M233.54692,70.99984h3.06v.709h-3.06Z"/><path class="cls-8" d="M238.93022,70.64145a3.56027,3.56027,0,0,1-.90918-.1084,2.04828,2.04828,0,0,1-.70166-.32324,1.51388,1.51388,0,0,1-.45606-.53321,1.634,1.634,0,0,1-.17187-.7334h1.249a.72063.72063,0,0,0,.2876.54786,1.2216,1.2216,0,0,0,.69531.168,1.56482,1.56482,0,0,0,.29785-.02734.87461.87461,0,0,0,.25635-.0918.53548.53548,0,0,0,.18262-.165.4177.4177,0,0,0,.07031-.24218.39931.39931,0,0,0-.07373-.24512.59573.59573,0,0,0-.21436-.16895,1.75943,1.75943,0,0,0-.34375-.123c-.13574-.03516-.29-.07324-.46337-.11524q-.3296-.07762-.64893-.17578a2.172,2.172,0,0,1-.57227-.2666,1.35778,1.35778,0,0,1-.41064-.42773,1.24255,1.24255,0,0,1-.15772-.65332A1.45662,1.45662,0,0,1,237,66.26547a1.37093,1.37093,0,0,1,.4209-.48047,1.86236,1.86236,0,0,1,.63184-.28027,3.19879,3.19879,0,0,1,.78613-.0918,2.92742,2.92742,0,0,1,.76172.09473,1.88784,1.88784,0,0,1,.61718.28418,1.4207,1.4207,0,0,1,.42139.48144,1.58512,1.58512,0,0,1,.17871.6836h-1.21386a.62157.62157,0,0,0-.24561-.44922.93216.93216,0,0,0-.56152-.1543.94674.94674,0,0,0-.52637.12988.39312.39312,0,0,0-.19678.34082.33279.33279,0,0,0,.07373.22071.58975.58975,0,0,0,.21436.15136,2.10892,2.10892,0,0,0,.354.11524c.14307.03515.30762.07422.49512.11621q.35084.08349.67041.18945a2.12758,2.12758,0,0,1,.56494.28028,1.33177,1.33177,0,0,1,.39307.44238,1.36727,1.36727,0,0,1,.147.667,1.45565,1.45565,0,0,1-.59277,1.21094,2.02006,2.02006,0,0,1-.65284.31543A2.91224,2.91224,0,0,1,238.93022,70.64145Z"/><g class="cls-9"><path class="cls-10" d="M101.293,24.50622V125.1639H0v-54.256H6.52689c7.8723,0,14.25407-5.96073,14.25407-13.31369v-.92744c0-7.35272-6.38177-13.31322-14.25407-13.31322H0V24.50622Z"/><path class="cls-11" d="M20.781,56.66684v.92721c0,7.35294-6.38176,13.31392-14.2543,13.31392H0V65.2777H6.06566c5.11115,0,9.25487-3.86993,9.25487-8.644,0-4.77385-4.14372-8.644-9.25487-8.644H0V43.35339H6.52667c7.87254,0,14.2543,5.9605,14.2543,13.31345"/><path class="cls-12" d="M97.01878,109.976H71.2345a.55215.55215,0,0,1-.55212-.553v-9.13484a.55213.55213,0,1,1,1.10425,0v8.58188h24.68v-8.58188a.55213.55213,0,1,1,1.10425,0v9.13484A.55215.55215,0,0,1,97.01878,109.976Z"/><path class="cls-12" d="M97.01878,48.79867a.55215.55215,0,0,1-.55213-.553V39.66384h-24.68v8.58187a.55213.55213,0,1,1-1.10425,0V39.11087a.55214.55214,0,0,1,.55212-.553H97.01878a.55214.55214,0,0,1,.55212.553v9.13484A.55214.55214,0,0,1,97.01878,48.79867Z"/><path class="cls-12" d="M52.75221,31.45845V35.746a2.18431,2.18431,0,0,1-2.19337,2.32783A1.94384,1.94384,0,0,1,48.56548,36.815h-.02185c-.23362.85717-1.0471,1.10256-1.8589,1.158a4.16628,4.16628,0,0,0-1.88243.33447v-1.748a9.43669,9.43669,0,0,1,1.90428-.279c.83533-.12269,1.20173-.4454,1.20173-1.32443V33.20642h-3.106v-1.748Zm-3.59679,1.748v1.916c0,.78995.33447,1.20173,1.13618,1.20173.7681,0,1.10257-.41178,1.10257-1.20173v-1.916Z"/><path class="cls-12" d="M52.75221,41.89754v1.79167L44.8023,46.66245v-1.8152l1.76982-.6V41.274l-1.76982-.62356v-1.7715Zm-4.87752-.16807v2.06059l2.91777-1.00172v-.02353Z"/><path class="cls-12" d="M52.75221,47.58013v1.748H49.45627l3.29594,3.106v2.18329l-3.13963-3.1077L44.8023,54.91826V52.72489l3.57494-2.39506-1.01349-1.00172H44.8023v-1.748Z"/><path class="cls-12" d="M44.8023,59.44282V57.86124H49.858V55.90149h1.19165c-.03362,1.10257.35632,2.106,1.548,2.28413v1.2572Z"/><path class="cls-12" d="M49.60082,61.90847a2.77034,2.77034,0,0,1,3.15139,2.82869,2.481,2.481,0,0,1-2.43876,2.67238c-2.35976,0-2.54968-2.506-4.15311-3.64217v3.68587h-1.358V61.73031c1.8152,0,2.56145,1.11265,3.48586,2.46061.47733.679.94626,1.637,1.9026,1.637a1.12066,1.12066,0,0,0,1.20341-1.1698c0-.93449-.96811-1.23534-1.79335-1.23534Z"/><path class="cls-12" d="M52.75221,70.99793c0,1.55805-.97987,2.87239-4.01866,2.87239-3.10769,0-4.08756-1.31434-4.08756-2.87239,0-1.548.97987-2.85054,4.08756-2.85054C51.77234,68.14739,52.75221,69.45,52.75221,70.99793Zm-6.80365,0c0,1.29081,1.90429,1.29081,2.785,1.29081.8118,0,2.71609,0,2.71609-1.29081,0-1.28073-1.90429-1.269-2.71609-1.269C47.85285,69.729,45.94856,69.729,45.94856,70.99793Z"/><path class="cls-12" d="M49.60082,74.74262a2.77035,2.77035,0,0,1,3.15139,2.82869,2.481,2.481,0,0,1-2.43876,2.67238c-2.35976,0-2.54968-2.506-4.15311-3.64217v3.68587h-1.358V74.56446c1.8152,0,2.56145,1.11265,3.48586,2.46061.47733.679.94626,1.637,1.9026,1.637a1.12065,1.12065,0,0,0,1.20341-1.16979c0-.9345-.96811-1.23535-1.79335-1.23535Z"/><path class="cls-12" d="M51.29333,86.31454V83.0976L49.5235,82.785l-.02185.02185a1.98711,1.98711,0,0,1,.60171,1.52611,2.413,2.413,0,0,1-2.65053,2.40514A2.82174,2.82174,0,0,1,44.646,83.84216a2.60238,2.60238,0,0,1,2.47237-2.89424V82.5295a1.244,1.244,0,0,0-1.1698,1.28073,1.41062,1.41062,0,0,0,1.50427,1.34628,1.34064,1.34064,0,0,0,1.45888-1.34628,1.29184,1.29184,0,0,0-.62355-1.19165V81.19331l4.30942.7681v4.35313Z"/><path class="cls-12" d="M43.967,87.165v5.56662h-.55633V87.165Z"/><path class="cls-12" d="M44.8023,97.42257V95.45274l7.94991-2.58331v1.80344l-5.59015,1.76982v.02353l5.59015,1.79168v1.80343Z"/><path class="cls-12" d="M52.75221,103.14045v1.79168l-7.94991,2.97323v-1.8152l1.76982-.6V102.5169l-1.76982-.62356v-1.7715Zm-4.87752-.16807V105.033l2.91777-1.00172v-.02353Z"/><path class="cls-12" d="M29.14954,37.20491a2.67707,2.67707,0,0,1-1.09249-2.18329,3.84148,3.84148,0,0,1,4.13127-3.90772c2.36144,0,4.1985,1.45888,4.1985,3.90772A3.1787,3.1787,0,0,1,33.58,38.373v-1.669a1.6206,1.6206,0,0,0,1.33619-1.68243c0-1.56981-1.33619-2.15975-2.72785-2.15975-1.32442,0-2.66062.58994-2.66062,2.15975a1.7106,1.7106,0,0,0,1.71436,1.8942V35.15608h1.30258v3.33964H28.247V37.38307Z"/><path class="cls-12" d="M27.52258,42.36479A1.81593,1.81593,0,0,1,26.22,40.38319c0-.32438.02353-.64708.05547-.96979H27.578a6.72655,6.72655,0,0,0-.05546.92441.678.678,0,0,0,.7244.61179.97841.97841,0,0,0,.35632-.06555l5.40022-2.027v1.69251l-3.94134,1.30257V41.874l3.94134,1.25888v1.637Z"/><path class="cls-12" d="M34.00352,45.08423V46.5885h-1.069v.02185a2.02344,2.02344,0,0,1,1.22526,1.83705,1.18473,1.18473,0,0,1-.05546.34623H32.63372a2.89306,2.89306,0,0,0,.05546-.56809c0-1.1698-.82356-1.55973-1.84713-1.55973H28.247V45.08423Z"/><path class="cls-12" d="M34.15983,51.9904a2.82759,2.82759,0,0,1-3.04046,2.985,2.97952,2.97952,0,1,1,0-5.95823A2.82459,2.82459,0,0,1,34.15983,51.9904Zm-4.87751,0c0,1.08072.91264,1.40342,1.83705,1.40342s1.84882-.3227,1.84882-1.40342c0-1.069-.92441-1.39165-1.84882-1.39165S29.28232,50.92145,29.28232,51.9904Z"/><path class="cls-12" d="M30.11765,57.00406c-.679,0-.96811.60171-.96811,1.2135,0,.44539.17816,1.03533.73448,1.03533.479,0,.65717-.66725.8908-1.79167.21177-.92441.51262-1.827,1.53619-1.827,1.47066,0,1.84882,1.27065,1.84882,2.506,0,1.24711-.42354,2.41691-1.837,2.53792V59.17558c.61179-.0437.77818-.51263.77818-1.08072,0-.35631-.05546-.879-.53447-.879-.56641,0-.64541.90256-.85718,1.79336-.21177.92441-.54456,1.82528-1.61351,1.82528-1.51435,0-2.00513-1.32442-2.00513-2.627,0-1.33619.50086-2.65053,2.027-2.706Z"/><path class="cls-12" d="M31.97655,65.4582a1.0574,1.0574,0,0,0,.99164-1.16812c0-1.01349-1.02358-1.348-1.87067-1.348-.83533,0-1.8152.3227-1.8152,1.31434a1.20417,1.20417,0,0,0,1.16979,1.25887v1.52444a2.57285,2.57285,0,0,1-2.36144-2.77155,2.79522,2.79522,0,0,1,2.95138-2.90768,2.84781,2.84781,0,0,1,3.11778,2.93962,2.43848,2.43848,0,0,1-2.18328,2.706Z"/><path class="cls-12" d="M34.15983,70.50715a2.8263,2.8263,0,0,1-3.04046,2.98332,2.97869,2.97869,0,1,1,0-5.95655A2.82459,2.82459,0,0,1,34.15983,70.50715Zm-4.87751,0c0,1.079.91264,1.40342,1.83705,1.40342s1.84882-.32438,1.84882-1.40342c0-1.069-.92441-1.39166-1.84882-1.39166S29.28232,69.4382,29.28232,70.50715Z"/><path class="cls-12" d="M34.00352,74.29554v1.50427H33.269v.02185a1.90371,1.90371,0,0,1,.89079,1.71436c0,1.80511-1.45888,2.61691-3.09593,2.61691-1.5362,0-2.97323-.83533-2.97323-2.52783a2.04459,2.04459,0,0,1,.86894-1.72613v-.02185H26.22V74.29554Zm-2.89424,4.27581c.92273,0,1.85891-.3664,1.85891-1.37989,0-1.03533-.92441-1.3698-1.85891-1.3698-.93617,0-1.827.35632-1.827,1.38157C29.28232,78.23857,30.17311,78.57135,31.10928,78.57135Z"/><path class="cls-12" d="M30.7412,82.18327c-1.01349.04538-1.45888.52271-1.45888,1.41351a1.3,1.3,0,0,0,.74625,1.24711v1.39333a2.58,2.58,0,0,1-1.9379-2.69591,2.81161,2.81161,0,0,1,3.0287-2.93962,2.88759,2.88759,0,0,1,3.04046,2.93962c0,1.95975-1.64881,2.91777-3.41863,2.79508Zm1.00172,2.57154c.80172-.14455,1.22527-.4891,1.22527-1.2572a1.23888,1.23888,0,0,0-1.22527-1.31434Z"/><path class="cls-12" d="M21.2845,82.8438a.55214.55214,0,0,1-.55212-.553V78.62346a.55212.55212,0,1,1,1.10424,0v3.66738A.55214.55214,0,0,1,21.2845,82.8438Z"/><path class="cls-12" d="M14.322,82.8438a.55214.55214,0,0,1-.55212-.553V78.62346a.55213.55213,0,1,1,1.10425,0v3.66738A.55215.55215,0,0,1,14.322,82.8438Z"/><path class="cls-12" d="M7.35955,82.8438a.55215.55215,0,0,1-.55213-.553V78.62346a.55213.55213,0,1,1,1.10425,0v3.66738A.55214.55214,0,0,1,7.35955,82.8438Z"/><path class="cls-12" d="M21.2845,104.72708a.55215.55215,0,0,1-.55212-.553v-3.66738a.55212.55212,0,1,1,1.10424,0v3.66738A.55214.55214,0,0,1,21.2845,104.72708Z"/><path class="cls-12" d="M14.322,104.72708a.55215.55215,0,0,1-.55212-.553v-3.66738a.55213.55213,0,1,1,1.10425,0v3.66738A.55215.55215,0,0,1,14.322,104.72708Z"/><path class="cls-12" d="M7.35955,104.72708a.55215.55215,0,0,1-.55213-.553v-3.66738a.55213.55213,0,1,1,1.10425,0v3.66738A.55215.55215,0,0,1,7.35955,104.72708Z"/><path class="cls-12" d="M21.2845,115.89057a.55214.55214,0,0,1-.55212-.553v-3.66738a.55212.55212,0,1,1,1.10424,0v3.66738A.55214.55214,0,0,1,21.2845,115.89057Z"/><path class="cls-12" d="M14.322,115.89057a.55214.55214,0,0,1-.55212-.553v-3.66738a.55213.55213,0,1,1,1.10425,0v3.66738A.55215.55215,0,0,1,14.322,115.89057Z"/><path class="cls-12" d="M7.35955,115.89057a.55215.55215,0,0,1-.55213-.553v-3.66738a.55213.55213,0,1,1,1.10425,0v3.66738A.55214.55214,0,0,1,7.35955,115.89057Z"/><path class="cls-12" d="M12.67405,77.56291H9.00751a.553.553,0,0,1,0-1.10593h3.66654a.553.553,0,0,1,0,1.10593Z"/><path class="cls-12" d="M12.67405,95.46618H9.00751a.553.553,0,0,1,0-1.10593h3.66654a.553.553,0,0,1,0,1.10593Z"/><path class="cls-12" d="M19.63653,84.45732H15.97a.553.553,0,0,1,0-1.10593h3.66654a.553.553,0,0,1,0,1.10593Z"/><path class="cls-12" d="M19.63653,95.46618H15.97a.553.553,0,0,1,0-1.10593h3.66654a.553.553,0,0,1,0,1.10593Z"/><path class="cls-12" d="M12.67405,106.74061H9.00751a.553.553,0,0,1,0-1.10593h3.66654a.553.553,0,0,1,0,1.10593Z"/><path class="cls-12" d="M19.63653,106.74061H15.97a.553.553,0,0,1,0-1.10593h3.66654a.553.553,0,0,1,0,1.10593Z"/><path class="cls-12" d="M12.67405,110.64161H9.00751a.553.553,0,0,1,0-1.10593h3.66654a.553.553,0,0,1,0,1.10593Z"/><path class="cls-12" d="M12.67405,117.68224H9.00751a.553.553,0,0,1,0-1.10593h3.66654a.553.553,0,0,1,0,1.10593Z"/><path class="cls-12" d="M19.63653,110.64161H15.97a.553.553,0,0,1,0-1.10593h3.66654a.553.553,0,0,1,0,1.10593Z"/><circle class="cls-12" cx="7.07601" cy="97.02203" r="1.14173"/></g><g class="cls-13"><g class="cls-13"><path class="cls-14" d="M74.21065,44.44491v-.86324A1.45024,1.45024,0,0,1,75.6609,42.166H90.854a1.41572,1.41572,0,0,1,1.41572,1.41572v.86324a1.41572,1.41572,0,0,1-1.38077,1.44983q-.01748.00042-.03495.00042H75.6609a1.45025,1.45025,0,0,1-1.45025-1.45025h0"/><path class="cls-14" d="M74.21065,105.0446v-.86324a1.45025,1.45025,0,0,1,1.45025-1.45025H90.854a1.41572,1.41572,0,0,1,1.41614,1.4153q0,.01748-.00042.03495v.86324a1.41572,1.41572,0,0,1-1.41572,1.41572H75.6609a1.45024,1.45024,0,0,1-1.45025-1.41572"/><path class="cls-15" d="M87.5046,107.91057h1.5193a1.45024,1.45024,0,0,0,1.45025-1.45025h0v-2.935a1.45022,1.45022,0,0,0-.89777-1.34665V46.79293a1.4157,1.4157,0,0,0,.89777-1.31213V42.58031a1.45024,1.45024,0,0,0-1.45025-1.45025H87.57366A1.45024,1.45024,0,0,0,86.19247,42.166h-5.801a1.45024,1.45024,0,0,0-1.34666-1.03589H77.56a1.45024,1.45024,0,0,0-1.45025,1.45025h0v2.96955a1.45025,1.45025,0,0,0,.96684,1.24307v55.24758a1.41571,1.41571,0,0,0-.96684,1.34666v2.935A1.45025,1.45025,0,0,0,77.56,107.77245h1.48478a1.41572,1.41572,0,0,0,1.31213-.89777h5.801a1.45024,1.45024,0,0,0,1.34666.89777"/><path class="cls-16" d="M78.38875,100.69386v-52.278a.72512.72512,0,0,1,.68977-.75883q.01765-.00084.03535-.00082h8.0109a.75965.75965,0,0,1,.75965.75965v52.278a.75965.75965,0,0,1-.75965.72512h-8.0109a.72512.72512,0,0,1-.72512-.72512"/><path class="cls-14" d="M95.37738,53.11187V51.45445A.41436.41436,0,0,0,94.999,51.007q-.01794-.0015-.036-.00144H93.47824a.4489.4489,0,0,0-.41436.41436h-4.04v1.692h4.04a.44891.44891,0,0,0,.41436.587H94.963a.41436.41436,0,0,0,.4158-.41291q.00006-.018-.00144-.036"/><path class="cls-17" d="M87.71177,52.9047V50.72932a.37983.37983,0,0,1,.37983-.48341h.9323a.37982.37982,0,0,1,.37983.37982h0v2.17538a.34536.34536,0,0,1-.37983.3453H87.988a.34524.34524,0,0,1-.37982-.3453"/><path class="cls-14" d="M70.86126,53.11187V51.45445a.44888.44888,0,0,1,.44889-.44889H72.7604a.41435.41435,0,0,1,.41435.41436h3.90187v1.692H73.17475a.41435.41435,0,0,1-.41435.587H71.31015a.44888.44888,0,0,1-.44889-.44889h0"/><path class="cls-17" d="M78.665,52.9047V50.72932a.37983.37983,0,0,0-.34529-.37983H77.24926a.34527.34527,0,0,0-.34529.37983V52.9047a.31076.31076,0,0,0,.34529.34529h.93231a.34529.34529,0,0,0,.34529-.34529"/><path class="cls-14" d="M95.37738,57.15185v-1.692a.41436.41436,0,0,0-.37839-.44745q-.01794-.0015-.036-.00144H93.47824a.4489.4489,0,0,0-.41436.44889h-4.04v1.692h4.04a.44889.44889,0,0,0,.41436.41436H94.963a.41436.41436,0,0,0,.41436-.41436"/><path class="cls-17" d="M87.71177,56.91015V54.73477a.34536.34536,0,0,1,.37983-.3453h.9323a.34533.34533,0,0,1,.37983.3453v2.17538a.34529.34529,0,0,1-.37983.2417H87.988a.34523.34523,0,0,1-.37982-.34529"/><path class="cls-14" d="M70.86126,57.15185v-1.692a.44888.44888,0,0,1,.44889-.44889H72.7604a.41435.41435,0,0,1,.41579.41292q.00006.018-.00144.036h3.90187v1.692H73.17475a.41435.41435,0,0,1-.41435.41436H71.31015a.44889.44889,0,0,1-.44889-.41436"/><path class="cls-17" d="M78.665,56.91015V54.73477a.3453.3453,0,0,0-.34529-.3453H77.24926a.31077.31077,0,0,0-.34529.3453v2.17538a.31076.31076,0,0,0,.34529.3453h.93231a.3453.3453,0,0,0,.34529-.3453h0"/><path class="cls-14" d="M95.37738,61.36448V59.70705a.41436.41436,0,0,0-.41436-.41435H93.47824a.41436.41436,0,0,0-.41436.41435h-4.04v1.692h4.04a.4489.4489,0,0,0,.41436.41436H94.963a.41437.41437,0,0,0,.4158-.41292q.00006-.018-.00144-.036"/><path class="cls-17" d="M87.71177,61.1573V58.98193a.34536.34536,0,0,1,.37983-.3453h.9323a.34532.34532,0,0,1,.37983.3453V61.1573a.34527.34527,0,0,1-.37983.3453H87.988a.34523.34523,0,0,1-.37982-.3453"/><path class="cls-14" d="M70.86126,61.36448V59.70705a.41435.41435,0,0,1,.41292-.41579q.018-.00006.036.00144H72.7604a.41435.41435,0,0,1,.41435.41435h3.90187v1.692H73.17475a.41436.41436,0,0,1-.41435.41436H71.31015a.44889.44889,0,0,1-.44889-.44889h0"/><path class="cls-17" d="M78.665,61.1573V58.98193a.3453.3453,0,0,0-.34529-.3453H77.24926a.31077.31077,0,0,0-.34529.3453V61.1573a.31076.31076,0,0,0,.34529.3453h.93231a.34529.34529,0,0,0,.34529-.3453h0"/><path class="cls-14" d="M95.37738,65.50805V64.0578a.41437.41437,0,0,0-.37839-.44745q-.01794-.0015-.036-.00143H93.47824a.41436.41436,0,0,0-.41436.41435h-4.04v1.692h4.04a.41436.41436,0,0,0,.41436.41435H94.963a.41436.41436,0,0,0,.4158-.41291q.00006-.018-.00144-.036"/><path class="cls-17" d="M87.71177,65.3354V63.1255a.37984.37984,0,0,1,.37983-.3453h.9323a.37982.37982,0,0,1,.37983.3453v2.2099a.37982.37982,0,0,1-.37983.3453H87.988a.37982.37982,0,0,1-.37982-.3453"/><path class="cls-14" d="M70.86126,65.50805V64.0578a.44888.44888,0,0,1,.44889-.44888H72.7604a.41435.41435,0,0,1,.41435.41435h3.90187v1.692H73.17475a.41435.41435,0,0,1-.41435.41435H71.31015a.44888.44888,0,0,1-.44889-.44888h0"/><path class="cls-17" d="M78.665,65.3354V63.1255a.37982.37982,0,0,0-.34529-.3453H77.24926a.34529.34529,0,0,0-.34529.3453h0v2.2099a.3453.3453,0,0,0,.34529.3453h.93231a.37982.37982,0,0,0,.34529-.3453"/><path class="cls-14" d="M95.37738,69.58256V67.92514a.41436.41436,0,0,0-.37839-.44745q-.01794-.0015-.036-.00144H93.47824a.41436.41436,0,0,0-.41436.41436h-4.04v1.692h4.04a.41437.41437,0,0,0,.41436.41436H94.963a.41437.41437,0,0,0,.41436-.41436"/><path class="cls-17" d="M87.71177,69.37538v-2.2099a.37984.37984,0,0,1,.37983-.3453h.9323a.37982.37982,0,0,1,.37983.3453v2.2099a.37982.37982,0,0,1-.37983.3453H87.988a.37982.37982,0,0,1-.37982-.3453"/><path class="cls-14" d="M70.86126,69.58256V67.92514a.44889.44889,0,0,1,.44889-.41436H72.7604a.41435.41435,0,0,1,.41435.41435h3.90187v1.692H73.17475a.41436.41436,0,0,1-.41435.41436H71.31015a.41436.41436,0,0,1-.44745-.37839q-.0015-.01794-.00144-.036"/><path class="cls-17" d="M78.665,69.37538v-2.2099a.37982.37982,0,0,0-.34529-.3453H77.24926a.34529.34529,0,0,0-.34529.3453h0v2.2099a.3453.3453,0,0,0,.34529.3453h.93231a.37982.37982,0,0,0,.34529-.3453"/><path class="cls-14" d="M95.37738,73.588V71.93058a.41436.41436,0,0,0-.37839-.44744q-.01794-.0015-.036-.00144H93.47824a.44889.44889,0,0,0-.41436.41435h-4.04v1.692h4.04a.4489.4489,0,0,0,.41436.44889H94.963a.41437.41437,0,0,0,.4158-.41292q.00006-.018-.00144-.036"/><path class="cls-17" d="M87.71177,73.38083V71.20546a.37984.37984,0,0,1,.37983-.24171h.9323a.37982.37982,0,0,1,.37983.37983V73.519a.34536.34536,0,0,1-.37983.3453H87.988a.34523.34523,0,0,1-.37982-.3453"/><path class="cls-14" d="M70.86126,73.588V71.93058a.44888.44888,0,0,1,.44889-.44888H72.7604a.41435.41435,0,0,1,.41435.41435h3.90187v1.692H73.17475a.41435.41435,0,0,1-.37838.44745q-.01794.0015-.036.00144H71.31015a.44888.44888,0,0,1-.44889-.44889h0"/><path class="cls-17" d="M78.665,73.38083V71.20546a.37982.37982,0,0,0-.34529-.37983H77.24926a.34527.34527,0,0,0-.34529.37983v2.17537a.31076.31076,0,0,0,.34529.3453h.93231a.34529.34529,0,0,0,.34529-.3453h0"/><path class="cls-14" d="M95.37738,77.628v-1.6229a.41437.41437,0,0,0-.37839-.44745q-.01794-.0015-.036-.00144H93.47824a.41437.41437,0,0,0-.41436.41436h-4.04v1.692h4.04a.41436.41436,0,0,0,.41436.41435H94.963a.41436.41436,0,0,0,.4158-.41291q.00006-.018-.00144-.036"/><path class="cls-17" d="M87.71177,77.42081V75.24544a.34527.34527,0,0,1,.37983-.3453h.9323a.34532.34532,0,0,1,.37983.3453v2.17537a.37983.37983,0,0,1-.37983.44889H87.988a.37983.37983,0,0,1-.37982-.37983"/><path class="cls-14" d="M70.86126,77.628v-1.6229a.44889.44889,0,0,1,.44889-.44889H72.7604a.41436.41436,0,0,1,.41435.41436h3.90187v1.692H73.17475a.41435.41435,0,0,1-.41435.41435H71.31015a.44888.44888,0,0,1-.44889-.44888h0"/><path class="cls-17" d="M78.665,77.42081V75.24544a.34529.34529,0,0,0-.34529-.3453H77.24926a.31077.31077,0,0,0-.34529.3453v2.17537a.34532.34532,0,0,0,.34529.37983h.93231a.37982.37982,0,0,0,.34529-.37983"/><path class="cls-14" d="M95.37738,81.737v-1.6229a.41437.41437,0,0,0-.37839-.44745q-.01794-.0015-.036-.00143H93.47824a.41436.41436,0,0,0-.41436.41435h-4.04v1.692h4.04a.41436.41436,0,0,0,.41436.41436H94.963a.41436.41436,0,0,0,.4158-.41291q.00006-.018-.00144-.036"/><path class="cls-17" d="M87.71177,81.52985V79.35447a.34527.34527,0,0,1,.37983-.34529h.9323a.34532.34532,0,0,1,.37983.34529v2.17538a.37983.37983,0,0,1-.37982.37983H87.988a.37983.37983,0,0,1-.37982-.37983h0"/><path class="cls-14" d="M70.86126,81.737v-1.6229a.41436.41436,0,0,1,.44889-.44888H72.7604a.41435.41435,0,0,1,.41435.41435h3.90187v1.692H73.17475a.41434.41434,0,0,1-.41435.41436H71.31015a.44889.44889,0,0,1-.44889-.44888"/><path class="cls-17" d="M78.665,81.52985V79.35447a.34529.34529,0,0,0-.34529-.34529H77.24926a.31076.31076,0,0,0-.34529.34529v2.17538a.34532.34532,0,0,0,.34529.37983h.93231a.37983.37983,0,0,0,.34529-.37983"/><path class="cls-14" d="M95.37738,85.84607V84.18864a.41435.41435,0,0,0-.41436-.41436H93.47824a.41436.41436,0,0,0-.41436.41436h-4.04v1.692h4.04a.41437.41437,0,0,0,.41436.41436H94.963a.41437.41437,0,0,0,.4158-.41292q.00006-.018-.00144-.036"/><path class="cls-17" d="M87.71177,85.63889V83.46352a.34527.34527,0,0,1,.37983-.3453h.9323a.34532.34532,0,0,1,.37983.3453v2.17537a.37983.37983,0,0,1-.37982.37983H87.988a.37983.37983,0,0,1-.37982-.37983h0"/><path class="cls-14" d="M70.86126,85.84607V84.18864a.41435.41435,0,0,1,.41291-.4158q.018-.00006.036.00144H72.7604a.41435.41435,0,0,1,.41435.41436h3.90187v1.692H73.17475a.41435.41435,0,0,1-.41435.41436H71.31015a.4489.4489,0,0,1-.44889-.44889"/><path class="cls-17" d="M78.665,85.63889V83.46352a.34529.34529,0,0,0-.34529-.3453H77.24926a.31077.31077,0,0,0-.34529.3453v2.17537a.34532.34532,0,0,0,.34529.37983h.93231a.37983.37983,0,0,0,.34529-.37983"/><path class="cls-14" d="M95.37738,89.92058v-1.692a.41436.41436,0,0,0-.37839-.44745q-.01794-.00149-.036-.00143H93.47824a.44889.44889,0,0,0-.41436.41436h-4.04v1.69195h4.04a.4489.4489,0,0,0,.41436.44889H94.963a.41437.41437,0,0,0,.4158-.41292q.00006-.018-.00144-.036"/><path class="cls-17" d="M87.71177,89.7134V87.538a.37984.37984,0,0,1,.37983-.37983h.9323a.37983.37983,0,0,1,.37983.37983h0v2.17537a.34527.34527,0,0,1-.37983.3453H87.988a.34523.34523,0,0,1-.37982-.3453"/><path class="cls-14" d="M70.86126,89.92058v-1.692a.44889.44889,0,0,1,.44889-.44888H72.7604a.41435.41435,0,0,1,.41579.41291q.00006.018-.00144.036h3.90187v1.692H73.17475a.41435.41435,0,0,1-.37838.44744q-.018.0015-.036.00144H71.31015a.44889.44889,0,0,1-.44889-.44888"/><path class="cls-17" d="M78.665,89.7134V87.538a.37983.37983,0,0,0-.34529-.37983H77.24926a.34527.34527,0,0,0-.34529.37983v2.17537a.31076.31076,0,0,0,.34529.3453h.93231a.34529.34529,0,0,0,.34529-.3453h0"/><path class="cls-14" d="M95.37738,94.09868v-1.6229a.41437.41437,0,0,0-.37839-.44745q-.01794-.00149-.036-.00143H93.47824a.41436.41436,0,0,0-.41436.41436h-4.04v1.692h4.04a.41436.41436,0,0,0,.41436.41436H94.963a.41436.41436,0,0,0,.4158-.41291q.00006-.018-.00144-.036"/><path class="cls-17" d="M87.71177,93.926V91.68159a.37984.37984,0,0,1,.37983-.3453h.9323a.37983.37983,0,0,1,.37983.3453v2.2099a.37981.37981,0,0,1-.37983.3453H87.988a.37981.37981,0,0,1-.37982-.3453"/><path class="cls-14" d="M70.86126,94.09868v-1.6229a.44889.44889,0,0,1,.44889-.44888H72.7604a.41435.41435,0,0,1,.41435.41436h3.90187v1.692H73.17475a.41434.41434,0,0,1-.41435.41436H71.31015a.41435.41435,0,0,1-.44889-.44888"/><path class="cls-17" d="M78.665,93.926V91.68159a.37982.37982,0,0,0-.34529-.3453H77.24926a.3453.3453,0,0,0-.34529.3453h0v2.2099a.34529.34529,0,0,0,.34529.3453h.93231a.37981.37981,0,0,0,.34529-.3453"/><path class="cls-14" d="M95.37738,98.20771V96.58482a.41436.41436,0,0,0-.37839-.44745q-.01794-.0015-.036-.00144H93.47824a.41437.41437,0,0,0-.41436.41436h-4.04v1.692h4.04a.41436.41436,0,0,0,.41436.34529H94.963a.41436.41436,0,0,0,.4158-.41291q.00006-.018-.00144-.036"/><path class="cls-17" d="M87.71177,98.03507V95.82516a.37983.37983,0,0,1,.37983-.34529h.9323a.37981.37981,0,0,1,.37983.34529v2.20991a.37981.37981,0,0,1-.37983.34529H87.988a.37981.37981,0,0,1-.37982-.34529"/><path class="cls-14" d="M70.86126,98.20771V96.58482a.4489.4489,0,0,1,.44889-.44889H72.7604a.41436.41436,0,0,1,.41435.41436h3.90187v1.692H73.17475a.41435.41435,0,0,1-.41435.41436H71.31015a.41436.41436,0,0,1-.44889-.44889"/><path class="cls-17" d="M78.665,98.03507V95.82516a.37981.37981,0,0,0-.34529-.34529H77.24926a.34529.34529,0,0,0-.34529.34529h0v2.20991a.34529.34529,0,0,0,.34529.34529h.93231a.37981.37981,0,0,0,.34529-.34529"/><path class="cls-17" d="M88.60955,42.166c.48342,0,.89777.69059.89777,1.51931s-.41435,1.5193-.89777,1.5193-.89777-.69059-.89777-1.5193.41435-1.51931.89777-1.51931"/><path class="cls-17" d="M77.76721,42.166c.51795,0,.89777.69059.89777,1.51931s-.37982,1.5193-.89777,1.5193-.86324-.69059-.86324-1.5193.37982-1.51931.86324-1.51931"/><path class="cls-17" d="M88.60955,103.49076c.48342,0,.89777.65607.89777,1.51931s-.41435,1.48478-.89777,1.48478-.89777-.65606-.89777-1.48478.41435-1.51931.89777-1.51931"/><path class="cls-17" d="M77.76721,103.49076c.51795,0,.89777.65607.89777,1.51931s-.37982,1.48478-.89777,1.48478-.86324-.65606-.86324-1.48478.37982-1.51931.86324-1.51931"/></g></g><path class="cls-18" d="M95.50883,50.13754a1.14174,1.14174,0,0,1,.10352-.25488,1.21774,1.21774,0,0,1,.15136-.21289,1.66121,1.66121,0,0,1,.19239-.18164,5.05526,5.05526,0,0,1,.40869-.31348,4.26494,4.26494,0,0,0,.38427-.29785.70786.70786,0,0,0,.13379-.15723.35873.35873,0,0,0,.04834-.18652.37028.37028,0,0,0-.09082-.26074.34685.34685,0,0,0-.269-.09961.36165.36165,0,0,0-.2998.126.44864.44864,0,0,0-.09082.168.90954.90954,0,0,0-.03418.24024h-.63965a1.54306,1.54306,0,0,1,.04443-.4043.91017.91017,0,0,1,.146-.29981.83413.83413,0,0,1,.33984-.27539,1.29558,1.29558,0,0,1,.55029-.10449,1.31023,1.31023,0,0,1,.44287.06836.91093.91093,0,0,1,.32178.19043.79937.79937,0,0,1,.19629.2832.893.893,0,0,1,.0669.34375.85349.85349,0,0,1-.03663.26075.80938.80938,0,0,1-.10107.21093,1.047,1.047,0,0,1-.148.17383,2.19726,2.19726,0,0,1-.17578.15137c-.062.05176-.126.10058-.19238.14844-.06592.04687-.13135.09375-.19629.13964-.06446.0459-.12744.09278-.188.14161a1.52362,1.52362,0,0,0-.16406.14941v.00391h1.20605v.5625H95.46635A1.31486,1.31486,0,0,1,95.50883,50.13754Z"/><path class="cls-18" d="M98.96684,50.51547a1.693,1.693,0,0,1-.51172-.06836.99194.99194,0,0,1-.36231-.19824.95666.95666,0,0,1-.30761-.75684h.64355a.595.595,0,0,0,.1294.36231.47154.47154,0,0,0,.38037.13964.45069.45069,0,0,0,.32178-.10546.36634.36634,0,0,0,.11132-.2793.32141.32141,0,0,0-.12158-.27344A.581.581,0,0,0,98.898,49.245h-.166v-.47363h.14991a.52647.52647,0,0,0,.31152-.083.27461.27461,0,0,0,.11719-.24023.29379.29379,0,0,0-.09522-.22852.38044.38044,0,0,0-.269-.08691.404.404,0,0,0-.32568.12109.50935.50935,0,0,0-.11524.30371h-.63525a1.01617,1.01617,0,0,1,.07666-.3789.831.831,0,0,1,.21045-.29493.97886.97886,0,0,1,.33789-.19238,1.41219,1.41219,0,0,1,.45947-.06836,1.55136,1.55136,0,0,1,.419.05274.96083.96083,0,0,1,.32373.15332.6928.6928,0,0,1,.28515.57421.50873.50873,0,0,1-.11718.34864.77625.77625,0,0,1-.30372.206v.00781a.723.723,0,0,1,.36622.23536.681.681,0,0,1,.13574.44433.79656.79656,0,0,1-.08936.38672.78476.78476,0,0,1-.24072.27149,1.06334,1.06334,0,0,1-.3501.15917A1.61166,1.61166,0,0,1,98.96684,50.51547Z"/><path class="cls-18" d="M67.879,50.13754a1.14219,1.14219,0,0,1,.10351-.25488,1.2178,1.2178,0,0,1,.15137-.21289,1.66192,1.66192,0,0,1,.19238-.18164,5.05878,5.05878,0,0,1,.40869-.31348,4.26516,4.26516,0,0,0,.38428-.29785.70813.70813,0,0,0,.13379-.15723.35873.35873,0,0,0,.04834-.18652.37028.37028,0,0,0-.09082-.26074.34685.34685,0,0,0-.269-.09961.36167.36167,0,0,0-.29981.126.44878.44878,0,0,0-.09082.168.90954.90954,0,0,0-.03418.24024H67.877a1.54259,1.54259,0,0,1,.04444-.4043.91015.91015,0,0,1,.146-.29981.83423.83423,0,0,1,.33985-.27539,1.29558,1.29558,0,0,1,.55029-.10449,1.31027,1.31027,0,0,1,.44287.06836.911.911,0,0,1,.32178.19043.79962.79962,0,0,1,.19629.2832.893.893,0,0,1,.06689.34375.8535.8535,0,0,1-.03662.26075.80938.80938,0,0,1-.10107.21093,1.04746,1.04746,0,0,1-.148.17383,2.199,2.199,0,0,1-.17578.15137c-.062.05176-.126.10058-.19239.14844-.06591.04687-.13134.09375-.19628.13964-.06446.0459-.12745.09278-.188.14161a1.52375,1.52375,0,0,0-.16407.14941v.00391H69.9893v.5625H67.83647A1.31486,1.31486,0,0,1,67.879,50.13754Z"/><path class="cls-18" d="M71.43412,49.83578h-1.291v-.627l1.28271-1.55762h.67188v1.667h.40039v.51758H72.0977V50.451h-.66358Zm0-.51758V48.367h-.0083l-.769.94336v.00781Z"/><path class="cls-18" d="M96.23832,100.8475h-.59521v-.46094a.90274.90274,0,0,0,.48193-.14355.61421.61421,0,0,0,.25488-.41895h.542V102.62h-.6836Z"/><path class="cls-18" d="M69.918,102.30648a1.14174,1.14174,0,0,1,.10352-.25488,1.21774,1.21774,0,0,1,.15136-.21289,1.66207,1.66207,0,0,1,.19239-.18164,5.05755,5.05755,0,0,1,.40869-.31348,4.26454,4.26454,0,0,0,.38427-.29785.70809.70809,0,0,0,.13379-.15722.35874.35874,0,0,0,.04834-.18653.3703.3703,0,0,0-.09082-.26074.34685.34685,0,0,0-.269-.09961.36162.36162,0,0,0-.2998.126.4488.4488,0,0,0-.09083.168.9099.9099,0,0,0-.03417.24023h-.63965a1.54312,1.54312,0,0,1,.04443-.4043.91022.91022,0,0,1,.146-.2998.83405.83405,0,0,1,.33984-.27539,1.29543,1.29543,0,0,1,.55029-.10449,1.31023,1.31023,0,0,1,.44287.06836.91064.91064,0,0,1,.32178.19043.79937.79937,0,0,1,.19629.2832.89294.89294,0,0,1,.0669.34375.85343.85343,0,0,1-.03663.26074.80945.80945,0,0,1-.10107.21094,1.04827,1.04827,0,0,1-.14795.17383,2.201,2.201,0,0,1-.17578.15136c-.062.05176-.126.10059-.19238.14844-.06592.04688-.13135.09375-.19629.13965-.06446.0459-.12744.09277-.188.1416a1.52273,1.52273,0,0,0-.16406.14942v.0039h1.20605v.5625H69.87553A1.31494,1.31494,0,0,1,69.918,102.30648Z"/></g></g></svg>