<svg xmlns="http://www.w3.org/2000/svg" viewBox="0 0 126.29 79.22"><defs><style>.cls-1{fill:#b3b3b3;}.cls-11,.cls-2{fill:#fff;}.cls-3{fill:#7f8080;}.cls-4{fill:#333;}.cls-5{fill:#eb2627;}.cls-6{fill:#fdd407;}.cls-7{fill:#fed401;}.cls-8{isolation:isolate;}.cls-9{fill:#232323;}.cls-10,.cls-11,.cls-12,.cls-13,.cls-14,.cls-9{opacity:0.4;}.cls-10{fill:#e0ac52;}.cls-12{fill:#96908a;}.cls-13{fill:#c0b5ab;}.cls-14{fill:#dfe8e8;}.cls-15{fill:#ebf4fb;}.cls-16{fill:#333e49;}.cls-17{fill:#222630;}.cls-18{fill:#be8e3e;}.cls-19{fill:#ee3224;}</style></defs><g id="Layer_2" data-name="Layer 2"><g id="Layer_1-2" data-name="Layer 1"><rect class="cls-1" x="101.49" y="12.19" width="2.47" height="2.91" rx="0.41"/><polygon class="cls-1" points="99.58 12.19 102.5 12.19 103.97 13.64 102.5 15.09 99.58 15.09 98.12 13.64 99.58 12.19"/><path class="cls-2" d="M100,12.76h.35l.66,1.07h0V12.76h.33v1.59H101l-.66-1.06h0v1.06H100Z"/><path class="cls-2" d="M102.73,13.3a.35.35,0,0,0-.35-.28c-.31,0-.43.27-.43.54s.12.53.43.53a.36.36,0,0,0,.36-.35h.34a.67.67,0,0,1-.7.65.83.83,0,0,1,0-1.66.65.65,0,0,1,.69.57Z"/><rect class="cls-1" x="101.49" y="16.1" width="2.47" height="2.91" rx="0.41"/><polygon class="cls-1" points="99.58 16.1 102.5 16.1 103.97 17.55 102.5 19 99.58 19 98.12 17.55 99.58 16.1"/><path class="cls-2" d="M100,16.68h.35l.66,1.06h0V16.68h.33v1.58H101l-.66-1.06h0v1.06H100Z"/><path class="cls-2" d="M102.73,17.21a.36.36,0,0,0-.35-.28c-.31,0-.43.27-.43.54s.12.54.43.54a.36.36,0,0,0,.36-.36h.34a.67.67,0,0,1-.7.65.83.83,0,0,1,0-1.66.65.65,0,0,1,.69.57Z"/><rect class="cls-1" x="101.49" y="20.01" width="2.47" height="2.91" rx="0.41"/><polygon class="cls-1" points="99.58 20.01 102.5 20.01 103.97 21.47 102.5 22.92 99.58 22.92 98.12 21.47 99.58 20.01"/><path class="cls-2" d="M100,20.59h.35l.66,1.06h0V20.59h.33v1.59H101l-.66-1.07h0v1.07H100Z"/><path class="cls-2" d="M102.73,21.13a.34.34,0,0,0-.35-.28c-.31,0-.43.26-.43.54s.12.53.43.53a.36.36,0,0,0,.36-.35h.34a.67.67,0,0,1-.7.64.76.76,0,0,1-.78-.82.78.78,0,0,1,.78-.84.66.66,0,0,1,.69.57Z"/><rect class="cls-1" x="101.49" y="24.06" width="2.47" height="2.91" rx="0.41"/><polygon class="cls-1" points="99.58 24.06 102.5 24.06 103.97 25.51 102.5 26.96 99.58 26.96 98.12 25.51 99.58 24.06"/><path class="cls-2" d="M100,24.64h.35L101,25.7h0V24.64h.33v1.58H101l-.66-1.06h0v1.06H100Z"/><path class="cls-2" d="M102.73,25.17a.36.36,0,0,0-.35-.28c-.31,0-.43.27-.43.54s.12.54.43.54a.36.36,0,0,0,.36-.36h.34a.67.67,0,0,1-.7.65.83.83,0,0,1,0-1.66.65.65,0,0,1,.69.57Z"/><rect class="cls-1" x="101.49" y="28.03" width="2.47" height="2.91" rx="0.41"/><polygon class="cls-1" points="99.58 28.03 102.5 28.03 103.97 29.49 102.5 30.94 99.58 30.94 98.12 29.49 99.58 28.03"/><path class="cls-2" d="M100,28.61h.35l.66,1.06h0V28.61h.33V30.2H101l-.66-1.07h0V30.2H100Z"/><path class="cls-2" d="M102.73,29.15a.34.34,0,0,0-.35-.28c-.31,0-.43.26-.43.54s.12.53.43.53.33-.14.36-.36h.34a.67.67,0,0,1-.7.65.76.76,0,0,1-.78-.82.78.78,0,0,1,.78-.84.66.66,0,0,1,.69.57Z"/><rect class="cls-1" x="101.49" y="32.04" width="2.47" height="2.91" rx="0.41"/><polygon class="cls-1" points="99.58 32.04 102.5 32.04 103.97 33.5 102.5 34.95 99.58 34.95 98.12 33.5 99.58 32.04"/><path class="cls-2" d="M100,32.62h.35l.66,1.06h0V32.62h.33v1.59H101l-.66-1.07h0v1.07H100Z"/><path class="cls-2" d="M102.73,33.16a.34.34,0,0,0-.35-.28c-.31,0-.43.26-.43.54s.12.53.43.53a.36.36,0,0,0,.36-.35h.34a.67.67,0,0,1-.7.64.76.76,0,0,1-.78-.82.78.78,0,0,1,.78-.84.66.66,0,0,1,.69.57Z"/><rect class="cls-1" x="113.53" y="12.13" width="2.47" height="2.91" rx="0.41"/><polygon class="cls-1" points="119.37 13.58 117.91 15.03 114.99 15.03 113.53 13.58 114.99 12.13 117.91 12.13 119.37 13.58"/><path class="cls-2" d="M114.48,12.7h.35l.66,1.07h0V12.7h.33v1.59h-.35l-.66-1.06h0v1.06h-.32Z"/><path class="cls-2" d="M117.18,13.24a.35.35,0,0,0-.34-.28c-.32,0-.44.27-.44.54s.12.53.44.53a.36.36,0,0,0,.36-.35h.33a.66.66,0,0,1-.69.65.83.83,0,0,1,0-1.66.64.64,0,0,1,.68.57Z"/><rect class="cls-1" x="101.49" y="0.06" width="2.47" height="2.91" rx="0.41"/><polygon class="cls-1" points="99.58 0.06 102.5 0.06 103.97 1.51 102.5 2.96 99.58 2.96 98.12 1.51 99.58 0.06"/><path class="cls-2" d="M100,.64h.35L101,1.7h0V.64h.33V2.22H101l-.66-1.06h0V2.22H100Z"/><path class="cls-2" d="M102.73,1.17a.36.36,0,0,0-.35-.28c-.31,0-.43.27-.43.55s.12.53.43.53a.36.36,0,0,0,.36-.36h.34a.67.67,0,0,1-.7.65.77.77,0,0,1-.78-.82.78.78,0,0,1,.78-.84.65.65,0,0,1,.69.57Z"/><rect class="cls-1" x="113.53" width="2.47" height="2.91" rx="0.41"/><polygon class="cls-1" points="119.37 1.45 117.91 2.9 114.99 2.9 113.53 1.45 114.99 0 117.91 0 119.37 1.45"/><path class="cls-2" d="M114.48.58h.35l.66,1.06h0V.58h.33V2.16h-.35l-.66-1.06h0V2.16h-.32Z"/><path class="cls-2" d="M117.18,1.11a.35.35,0,0,0-.34-.28c-.32,0-.44.27-.44.55s.12.53.44.53a.36.36,0,0,0,.36-.36h.33a.66.66,0,0,1-.69.65.77.77,0,0,1-.78-.82.78.78,0,0,1,.78-.84.64.64,0,0,1,.68.57Z"/><rect class="cls-1" x="113.53" y="16.04" width="2.47" height="2.91" rx="0.41"/><polygon class="cls-1" points="119.37 17.49 117.91 18.94 114.99 18.94 113.53 17.49 114.99 16.04 117.91 16.04 119.37 17.49"/><path class="cls-2" d="M114.48,16.62h.35l.66,1.06h0V16.62h.33V18.2h-.35l-.66-1.06h0V18.2h-.32Z"/><path class="cls-2" d="M117.18,17.15a.35.35,0,0,0-.34-.28c-.32,0-.44.27-.44.54s.12.54.44.54a.36.36,0,0,0,.36-.36h.33a.66.66,0,0,1-.69.65.83.83,0,0,1,0-1.66.64.64,0,0,1,.68.57Z"/><rect class="cls-1" x="113.53" y="19.95" width="2.47" height="2.91" rx="0.41"/><polygon class="cls-1" points="119.37 21.41 117.91 22.86 114.99 22.86 113.53 21.41 114.99 19.95 117.91 19.95 119.37 21.41"/><path class="cls-2" d="M114.48,20.53h.35l.66,1.07h0V20.53h.33v1.59h-.35l-.66-1.06h0v1.06h-.32Z"/><path class="cls-2" d="M117.18,21.07a.34.34,0,0,0-.34-.28c-.32,0-.44.27-.44.54s.12.53.44.53a.36.36,0,0,0,.36-.35h.33a.66.66,0,0,1-.69.64.76.76,0,0,1-.78-.82.78.78,0,0,1,.78-.84.65.65,0,0,1,.68.57Z"/><rect class="cls-1" x="113.53" y="24" width="2.47" height="2.91" rx="0.41"/><polygon class="cls-1" points="119.37 25.45 117.91 26.9 114.99 26.9 113.53 25.45 114.99 24 117.91 24 119.37 25.45"/><path class="cls-2" d="M114.48,24.58h.35l.66,1.06h0V24.58h.33v1.58h-.35l-.66-1.06h0v1.06h-.32Z"/><path class="cls-2" d="M117.18,25.11a.35.35,0,0,0-.34-.28c-.32,0-.44.27-.44.55s.12.53.44.53a.36.36,0,0,0,.36-.36h.33a.66.66,0,0,1-.69.65.77.77,0,0,1-.78-.82.78.78,0,0,1,.78-.84.64.64,0,0,1,.68.57Z"/><rect class="cls-1" x="113.53" y="27.97" width="2.47" height="2.91" rx="0.41"/><polygon class="cls-1" points="119.37 29.43 117.91 30.88 114.99 30.88 113.53 29.43 114.99 27.97 117.91 27.97 119.37 29.43"/><path class="cls-2" d="M114.48,28.55h.35l.66,1.06h0V28.55h.33v1.59h-.35l-.66-1.07h0v1.07h-.32Z"/><path class="cls-2" d="M117.18,29.09a.34.34,0,0,0-.34-.28c-.32,0-.44.26-.44.54s.12.53.44.53a.36.36,0,0,0,.36-.35h.33a.66.66,0,0,1-.69.64.76.76,0,0,1-.78-.82.78.78,0,0,1,.78-.84.65.65,0,0,1,.68.57Z"/><rect class="cls-1" x="113.53" y="31.98" width="2.47" height="2.91" rx="0.41"/><polygon class="cls-1" points="119.37 33.44 117.91 34.89 114.99 34.89 113.53 33.44 114.99 31.98 117.91 31.98 119.37 33.44"/><path class="cls-2" d="M114.48,32.56h.35l.66,1.07h0V32.56h.33v1.59h-.35l-.66-1.06h0v1.06h-.32Z"/><path class="cls-2" d="M117.18,33.1a.34.34,0,0,0-.34-.28c-.32,0-.44.27-.44.54s.12.53.44.53a.36.36,0,0,0,.36-.35h.33a.66.66,0,0,1-.69.64.76.76,0,0,1-.78-.82.78.78,0,0,1,.78-.84.65.65,0,0,1,.68.57Z"/><rect class="cls-1" x="113.53" y="40.3" width="2.47" height="2.91" rx="0.41"/><polygon class="cls-1" points="119.37 41.76 117.91 43.21 114.99 43.21 113.53 41.76 114.99 40.3 117.91 40.3 119.37 41.76"/><path class="cls-2" d="M114.48,40.88h.35l.66,1.06h0V40.88h.33v1.58h-.35l-.66-1.06h0v1.06h-.32Z"/><path class="cls-2" d="M117.18,41.41a.33.33,0,0,0-.34-.27c-.32,0-.44.26-.44.54s.12.53.44.53.33-.14.36-.36h.33a.66.66,0,0,1-.69.65.76.76,0,0,1-.78-.82.78.78,0,0,1,.78-.84.65.65,0,0,1,.68.57Z"/><rect class="cls-1" x="113.47" y="44.24" width="2.47" height="2.91" rx="0.41"/><polygon class="cls-1" points="119.31 45.69 117.85 47.15 114.93 47.15 113.47 45.69 114.93 44.24 117.85 44.24 119.31 45.69"/><path class="cls-2" d="M114.43,44.82h.35l.66,1.06h0V44.82h.32V46.4h-.35l-.66-1.06h0V46.4h-.32Z"/><path class="cls-2" d="M117.12,45.35a.35.35,0,0,0-.34-.28c-.32,0-.43.27-.43.55s.11.53.43.53a.36.36,0,0,0,.36-.36h.34a.67.67,0,0,1-.7.65.77.77,0,0,1-.78-.82.78.78,0,0,1,.78-.84.64.64,0,0,1,.68.57Z"/><rect class="cls-1" x="113.53" y="48.18" width="2.47" height="2.91" rx="0.41"/><polygon class="cls-1" points="119.37 49.63 117.91 51.08 114.99 51.08 113.53 49.63 114.99 48.18 117.91 48.18 119.37 49.63"/><path class="cls-2" d="M114.48,48.75h.35l.66,1.07h0V48.75h.33v1.59h-.35l-.66-1.06h0v1.06h-.32Z"/><path class="cls-2" d="M117.18,49.29a.34.34,0,0,0-.34-.28c-.32,0-.44.27-.44.54s.12.53.44.53a.36.36,0,0,0,.36-.35h.33a.66.66,0,0,1-.69.65.83.83,0,0,1,0-1.66.64.64,0,0,1,.68.57Z"/><rect class="cls-1" x="113.53" y="52.09" width="2.47" height="2.91" rx="0.41"/><polygon class="cls-1" points="119.37 53.55 117.91 55 114.99 55 113.53 53.55 114.99 52.09 117.91 52.09 119.37 53.55"/><path class="cls-2" d="M114.48,52.67h.35l.66,1.06h0V52.67h.33v1.58h-.35l-.66-1.06h0v1.06h-.32Z"/><path class="cls-2" d="M117.18,53.2a.33.33,0,0,0-.34-.27c-.32,0-.44.26-.44.54s.12.53.44.53.33-.14.36-.36h.33a.66.66,0,0,1-.69.65.76.76,0,0,1-.78-.82.78.78,0,0,1,.78-.84.65.65,0,0,1,.68.57Z"/><rect class="cls-1" x="113.53" y="56.14" width="2.47" height="2.91" rx="0.41"/><polygon class="cls-1" points="119.37 57.59 117.91 59.04 114.99 59.04 113.53 57.59 114.99 56.14 117.91 56.14 119.37 57.59"/><path class="cls-2" d="M114.48,56.71h.35l.66,1.07h0V56.71h.33V58.3h-.35l-.66-1.06h0V58.3h-.32Z"/><path class="cls-2" d="M117.18,57.25a.35.35,0,0,0-.34-.28c-.32,0-.44.27-.44.54s.12.53.44.53a.36.36,0,0,0,.36-.35h.33a.66.66,0,0,1-.69.65.83.83,0,0,1,0-1.66.64.64,0,0,1,.68.57Z"/><rect class="cls-1" x="113.53" y="60.11" width="2.47" height="2.91" rx="0.41"/><polygon class="cls-1" points="119.37 61.57 117.91 63.02 114.99 63.02 113.53 61.57 114.99 60.11 117.91 60.11 119.37 61.57"/><path class="cls-2" d="M114.48,60.69h.35l.66,1.06h0V60.69h.33v1.58h-.35l-.66-1.06h0v1.06h-.32Z"/><path class="cls-2" d="M117.18,61.22a.33.33,0,0,0-.34-.27c-.32,0-.44.26-.44.54s.12.53.44.53a.36.36,0,0,0,.36-.36h.33a.66.66,0,0,1-.69.65.76.76,0,0,1-.78-.82.78.78,0,0,1,.78-.84.65.65,0,0,1,.68.57Z"/><rect class="cls-1" x="113.53" y="64.12" width="2.47" height="2.91" rx="0.41"/><polygon class="cls-1" points="119.37 65.58 117.91 67.03 114.99 67.03 113.53 65.58 114.99 64.12 117.91 64.12 119.37 65.58"/><path class="cls-2" d="M114.48,64.7h.35l.66,1.06h0V64.7h.33v1.58h-.35l-.66-1.06h0v1.06h-.32Z"/><path class="cls-2" d="M117.18,65.23a.33.33,0,0,0-.34-.27c-.32,0-.44.26-.44.54s.12.53.44.53.33-.14.36-.36h.33a.66.66,0,0,1-.69.65.76.76,0,0,1-.78-.82.78.78,0,0,1,.78-.84.65.65,0,0,1,.68.57Z"/><rect class="cls-1" x="113.53" y="68.18" width="2.47" height="2.91" rx="0.41"/><polygon class="cls-1" points="119.37 69.64 117.91 71.09 114.99 71.09 113.53 69.64 114.99 68.19 117.91 68.19 119.37 69.64"/><path class="cls-2" d="M114.48,68.76h.35l.66,1.06h0V68.76h.33v1.59h-.35l-.66-1.06h0v1.06h-.32Z"/><path class="cls-2" d="M117.18,69.3a.34.34,0,0,0-.34-.28c-.32,0-.44.27-.44.54s.12.53.44.53a.36.36,0,0,0,.36-.35h.33a.66.66,0,0,1-.69.64.76.76,0,0,1-.78-.82.78.78,0,0,1,.78-.84.65.65,0,0,1,.68.57Z"/><rect class="cls-1" x="113.53" y="72.38" width="2.47" height="2.91" rx="0.41"/><polygon class="cls-1" points="119.37 73.83 117.91 75.29 114.99 75.29 113.53 73.83 114.99 72.38 117.91 72.38 119.37 73.83"/><path class="cls-2" d="M114.48,73h.35l.66,1.06h0V73h.33v1.58h-.35l-.66-1.06h0v1.06h-.32Z"/><path class="cls-2" d="M117.18,73.49a.35.35,0,0,0-.34-.28c-.32,0-.44.27-.44.55s.12.53.44.53a.36.36,0,0,0,.36-.36h.33a.66.66,0,0,1-.69.65.77.77,0,0,1-.78-.82.78.78,0,0,1,.78-.84.64.64,0,0,1,.68.57Z"/><rect class="cls-1" x="101.44" y="44.25" width="2.47" height="2.91" rx="0.41"/><polygon class="cls-1" points="99.53 44.25 102.45 44.25 103.91 45.7 102.45 47.15 99.53 47.15 98.07 45.7 99.53 44.25"/><path class="cls-2" d="M100,44.82h.35l.66,1.07h0V44.82h.32v1.59H101l-.66-1.06h0v1.06H100Z"/><path class="cls-2" d="M102.67,45.36a.33.33,0,0,0-.34-.28c-.32,0-.43.27-.43.54s.11.53.43.53a.36.36,0,0,0,.36-.35H103a.68.68,0,0,1-.7.65.83.83,0,0,1,0-1.66.63.63,0,0,1,.68.57Z"/><rect class="cls-1" x="101.44" y="40.3" width="2.47" height="2.91" rx="0.41"/><polygon class="cls-1" points="99.53 40.3 102.45 40.3 103.91 41.76 102.45 43.21 99.53 43.21 98.07 41.76 99.53 40.3"/><path class="cls-2" d="M100,40.88h.35l.66,1.06h0V40.88h.32v1.58H101l-.66-1.06h0v1.06H100Z"/><path class="cls-2" d="M102.67,41.41a.33.33,0,0,0-.34-.27c-.32,0-.43.26-.43.54s.11.53.43.53.33-.14.36-.36H103a.67.67,0,0,1-.7.65.76.76,0,0,1-.78-.82.78.78,0,0,1,.78-.84.64.64,0,0,1,.68.57Z"/><rect class="cls-1" x="101.44" y="48.19" width="2.47" height="2.91" rx="0.41"/><polygon class="cls-1" points="99.53 48.19 102.45 48.19 103.91 49.64 102.45 51.09 99.53 51.09 98.07 49.64 99.53 48.19"/><path class="cls-2" d="M100,48.77h.35l.66,1.06h0V48.77h.32v1.58H101l-.66-1.06h0v1.06H100Z"/><path class="cls-2" d="M102.67,49.3a.34.34,0,0,0-.34-.28c-.32,0-.43.27-.43.55s.11.53.43.53a.36.36,0,0,0,.36-.36H103a.67.67,0,0,1-.7.65.77.77,0,0,1-.78-.82.78.78,0,0,1,.78-.84.63.63,0,0,1,.68.57Z"/><rect class="cls-1" x="101.44" y="52.14" width="2.47" height="2.91" rx="0.41"/><polygon class="cls-1" points="99.53 52.13 102.45 52.13 103.91 53.59 102.45 55.04 99.53 55.04 98.07 53.59 99.53 52.13"/><path class="cls-2" d="M100,52.71h.35l.66,1.07h0V52.71h.32V54.3H101l-.66-1.06h0V54.3H100Z"/><path class="cls-2" d="M102.67,53.25a.33.33,0,0,0-.34-.28c-.32,0-.43.27-.43.54s.11.53.43.53a.36.36,0,0,0,.36-.35H103a.67.67,0,0,1-.7.64.76.76,0,0,1-.78-.82.78.78,0,0,1,.78-.84.64.64,0,0,1,.68.57Z"/><rect class="cls-1" x="101.44" y="56.14" width="2.47" height="2.91" rx="0.41"/><polygon class="cls-1" points="99.53 56.14 102.45 56.14 103.91 57.59 102.45 59.04 99.53 59.04 98.07 57.59 99.53 56.14"/><path class="cls-2" d="M100,56.72h.35l.66,1.06h0V56.72h.32V58.3H101l-.66-1.06h0V58.3H100Z"/><path class="cls-2" d="M102.67,57.25a.34.34,0,0,0-.34-.28c-.32,0-.43.27-.43.54s.11.54.43.54a.36.36,0,0,0,.36-.36H103a.67.67,0,0,1-.7.65.83.83,0,0,1,0-1.66.63.63,0,0,1,.68.57Z"/><rect class="cls-1" x="101.44" y="60.11" width="2.47" height="2.91" rx="0.41"/><polygon class="cls-1" points="99.53 60.11 102.45 60.11 103.91 61.57 102.45 63.02 99.53 63.02 98.07 61.57 99.53 60.11"/><path class="cls-2" d="M100,60.69h.35l.66,1.06h0V60.69h.32v1.59H101l-.66-1.07h0v1.07H100Z"/><path class="cls-2" d="M102.67,61.23a.33.33,0,0,0-.34-.28c-.32,0-.43.26-.43.54s.11.53.43.53.33-.14.36-.36H103a.67.67,0,0,1-.7.65.76.76,0,0,1-.78-.82.78.78,0,0,1,.78-.84.64.64,0,0,1,.68.57Z"/><rect class="cls-1" x="101.44" y="64.15" width="2.47" height="2.91" rx="0.41"/><polygon class="cls-1" points="99.53 64.15 102.45 64.15 103.91 65.6 102.45 67.06 99.53 67.06 98.07 65.6 99.53 64.15"/><path class="cls-2" d="M100,64.73h.35l.66,1.06h0V64.73h.32v1.58H101l-.66-1.06h0v1.06H100Z"/><path class="cls-2" d="M102.67,65.26a.34.34,0,0,0-.34-.28c-.32,0-.43.27-.43.55s.11.53.43.53a.36.36,0,0,0,.36-.36H103a.67.67,0,0,1-.7.65.77.77,0,0,1-.78-.82.78.78,0,0,1,.78-.84.63.63,0,0,1,.68.57Z"/><rect class="cls-1" x="101.44" y="68.18" width="2.47" height="2.91" rx="0.41"/><polygon class="cls-1" points="99.53 68.18 102.45 68.18 103.91 69.64 102.45 71.09 99.53 71.09 98.07 69.64 99.53 68.18"/><path class="cls-2" d="M100,68.76h.35l.66,1.06h0V68.76h.32v1.58H101l-.66-1.06h0v1.06H100Z"/><path class="cls-2" d="M102.67,69.29a.33.33,0,0,0-.34-.27c-.32,0-.43.26-.43.54s.11.53.43.53a.36.36,0,0,0,.36-.36H103a.67.67,0,0,1-.7.65.77.77,0,0,1-.78-.82.78.78,0,0,1,.78-.84.63.63,0,0,1,.68.57Z"/><rect class="cls-3" x="109.28" y="0.03" width="4.25" height="79.19"/><rect class="cls-3" x="103.97" y="0.03" width="4.25" height="79.19"/><rect class="cls-4" x="101.5" y="4.06" width="2.47" height="2.9" rx="0.41"/><rect class="cls-1" x="104.51" y="0.03" width="3.71" height="2.9" rx="0.35"/><rect class="cls-4" x="104.51" y="4" width="3.71" height="2.9" rx="0.35"/><rect class="cls-5" x="104.51" y="8.1" width="3.71" height="2.9" rx="0.35"/><rect class="cls-1" x="104.51" y="12.19" width="3.71" height="2.9" rx="0.35"/><rect class="cls-1" x="104.51" y="16.1" width="3.71" height="2.9" rx="0.35"/><rect class="cls-1" x="104.51" y="20.02" width="3.71" height="2.9" rx="0.35"/><rect class="cls-1" x="104.51" y="24.06" width="3.71" height="2.9" rx="0.35"/><rect class="cls-1" x="104.51" y="28.04" width="3.71" height="2.9" rx="0.35"/><rect class="cls-1" x="104.51" y="32.05" width="3.71" height="2.9" rx="0.35"/><rect class="cls-6" x="104.51" y="36.11" width="3.71" height="2.9" rx="0.35"/><rect class="cls-1" x="104.51" y="40.3" width="3.71" height="2.9" rx="0.35"/><rect class="cls-1" x="104.51" y="44.24" width="3.71" height="2.9" rx="0.35"/><rect class="cls-1" x="109.28" y="0.03" width="3.71" height="2.9" rx="0.35"/><rect class="cls-4" x="109.28" y="4" width="3.71" height="2.9" rx="0.35"/><rect class="cls-5" x="109.28" y="8.1" width="3.71" height="2.9" rx="0.35"/><rect class="cls-1" x="109.28" y="12.19" width="3.71" height="2.9" rx="0.35"/><rect class="cls-1" x="109.28" y="16.1" width="3.71" height="2.9" rx="0.35"/><rect class="cls-1" x="109.28" y="20.02" width="3.71" height="2.9" rx="0.35"/><rect class="cls-1" x="109.28" y="24.06" width="3.71" height="2.9" rx="0.35"/><rect class="cls-1" x="109.28" y="28.04" width="3.71" height="2.9" rx="0.35"/><rect class="cls-1" x="109.28" y="32.05" width="3.71" height="2.9" rx="0.35"/><rect class="cls-6" x="109.28" y="36.11" width="3.71" height="2.9" rx="0.35"/><rect class="cls-1" x="109.28" y="40.3" width="3.71" height="2.9" rx="0.35"/><rect class="cls-1" x="109.28" y="44.24" width="3.71" height="2.9" rx="0.35"/><rect class="cls-1" x="109.28" y="48.18" width="3.71" height="2.9" rx="0.35"/><rect class="cls-1" x="109.28" y="52.1" width="3.71" height="2.9" rx="0.35"/><rect class="cls-1" x="109.28" y="56.14" width="3.71" height="2.9" rx="0.35"/><rect class="cls-1" x="109.28" y="60.12" width="3.71" height="2.9" rx="0.35"/><rect class="cls-1" x="109.28" y="64.13" width="3.71" height="2.9" rx="0.35"/><rect class="cls-1" x="109.28" y="68.19" width="3.71" height="2.9" rx="0.35"/><rect class="cls-1" x="109.28" y="72.38" width="3.71" height="2.9" rx="0.35"/><path class="cls-2" d="M109.84,49.48a.62.62,0,0,1,.63-.71.56.56,0,0,1,.6.54c0,.53-.56.57-.81.93h.82v.31H109.8c0-.41.25-.58.55-.78s.37-.21.37-.43a.25.25,0,0,0-.23-.27h0c-.21,0-.27.22-.27.4Z"/><path class="cls-2" d="M112.38,49.09h-.73l-.06.4h0a.41.41,0,0,1,.34-.14.54.54,0,0,1,.54.59.64.64,0,0,1-.63.64h0a.59.59,0,0,1-.65-.56h.35a.28.28,0,0,0,.29.26.31.31,0,0,0,.3-.32h0a.31.31,0,0,0-.27-.33h0a.29.29,0,0,0-.27.14h-.32l.17-1h1Z"/><path class="cls-2" d="M109.84,53.32a.62.62,0,0,1,.63-.71.56.56,0,0,1,.6.55c0,.52-.56.57-.81.93h.82v.3H109.8c0-.41.25-.57.55-.78s.37-.21.37-.43a.26.26,0,0,0-.23-.27h0c-.2,0-.27.22-.27.4Z"/><path class="cls-2" d="M112.42,53a2.15,2.15,0,0,0-.57,1.45h-.38a2.57,2.57,0,0,1,.59-1.42h-.83v-.33h1.19Z"/><path class="cls-2" d="M110.32,65.45c.15,0,.37,0,.37-.22a.24.24,0,0,0-.23-.23h0c-.18,0-.27.13-.27.31h-.34a.58.58,0,0,1,.61-.6.54.54,0,0,1,.58.48.36.36,0,0,1-.24.37h0a.39.39,0,0,1,.31.39.65.65,0,0,1-1.3-.06h.34c0,.19.1.35.3.35a.28.28,0,0,0,.29-.26h0c0-.27-.24-.26-.41-.26Z"/><path class="cls-2" d="M111.7,65.45c.15,0,.37,0,.37-.22a.23.23,0,0,0-.23-.23h0c-.18,0-.27.13-.27.31h-.33a.57.57,0,0,1,.6-.6.53.53,0,0,1,.58.48.34.34,0,0,1-.24.37h0a.37.37,0,0,1,.31.39.65.65,0,0,1-1.3-.06h.34c0,.19.1.35.31.35a.28.28,0,0,0,.28-.26h0c0-.27-.23-.26-.4-.26Z"/><path class="cls-2" d="M110.32,69.52c.15,0,.37,0,.37-.21a.23.23,0,0,0-.23-.23s0,0,0,0c-.18,0-.27.13-.27.31h-.34a.59.59,0,0,1,.61-.61.54.54,0,0,1,.58.49.36.36,0,0,1-.24.36h0a.4.4,0,0,1,.31.39.65.65,0,0,1-1.3-.06h.34c0,.19.1.35.3.35a.28.28,0,0,0,.29-.26h0c0-.27-.24-.26-.41-.26Z"/><path class="cls-2" d="M112.38,69.11h-.73l-.06.4h0a.43.43,0,0,1,.34-.13.54.54,0,0,1,.54.59.63.63,0,0,1-.63.63h0a.59.59,0,0,1-.65-.56h.35a.29.29,0,0,0,.29.27.32.32,0,0,0,.3-.33h0a.31.31,0,0,0-.27-.33h0a.29.29,0,0,0-.27.14h-.32l.17-1h1Z"/><path class="cls-2" d="M109.84,57.43a.62.62,0,0,1,.63-.7.55.55,0,0,1,.6.54c0,.53-.56.57-.81.93h.82v.3H109.8c0-.4.25-.57.55-.78s.37-.21.37-.42a.26.26,0,0,0-.23-.27h0c-.2,0-.27.22-.27.4Z"/><path class="cls-2" d="M111.55,58.06a.26.26,0,0,0,.23.22c.26,0,.32-.34.34-.53h0a.4.4,0,0,1-.39.19.52.52,0,0,1-.4-.18.57.57,0,0,1-.14-.38.61.61,0,0,1,.61-.64c.53,0,.67.46.67.9s-.19.91-.68.91a.53.53,0,0,1-.57-.48Zm.54-.72a.31.31,0,0,0-.28-.32h0a.33.33,0,0,0,0,.65c.19,0,.28-.15.28-.33Z"/><path class="cls-2" d="M110.32,61.51c.15,0,.37,0,.37-.22a.23.23,0,0,0-.23-.23h0c-.18,0-.27.13-.27.31h-.34a.58.58,0,0,1,.61-.6.54.54,0,0,1,.58.48.36.36,0,0,1-.24.36h0a.41.41,0,0,1,.31.4.65.65,0,0,1-1.3-.06h.34a.3.3,0,0,0,.3.34.28.28,0,0,0,.29-.26h0c0-.26-.24-.26-.41-.26Z"/><path class="cls-2" d="M112.11,62.54h-.36V61.41h-.43v-.27c.24,0,.47-.08.51-.34h.28Z"/><path class="cls-2" d="M110.32,73.73c.15,0,.37,0,.37-.22a.23.23,0,0,0-.23-.23h0c-.18,0-.27.13-.27.31h-.34a.58.58,0,0,1,.61-.6.54.54,0,0,1,.58.48.36.36,0,0,1-.24.36h0a.41.41,0,0,1,.31.4.6.6,0,0,1-.65.57.59.59,0,0,1-.65-.63h.34a.3.3,0,0,0,.3.34.28.28,0,0,0,.29-.25v0c0-.26-.24-.26-.41-.26Z"/><path class="cls-2" d="M112.42,73.33a2.12,2.12,0,0,0-.57,1.44h-.38a2.57,2.57,0,0,1,.59-1.42h-.83V73h1.19Z"/><rect class="cls-4" x="109.28" y="76.32" width="3.71" height="2.9" rx="0.35"/><rect class="cls-1" x="104.51" y="48.18" width="3.71" height="2.9" rx="0.35"/><path class="cls-2" d="M110.32,77.68c.15,0,.37,0,.37-.22a.23.23,0,0,0-.23-.23h0c-.18,0-.27.13-.27.31h-.34a.58.58,0,0,1,.61-.6.54.54,0,0,1,.58.48.36.36,0,0,1-.24.36h0a.41.41,0,0,1,.31.4.6.6,0,0,1-.65.57.59.59,0,0,1-.65-.63h.34a.3.3,0,0,0,.3.34.27.27,0,0,0,.29-.25v0c0-.26-.24-.25-.41-.25Z"/><path class="cls-2" d="M111.55,78.27a.26.26,0,0,0,.23.22c.26,0,.32-.34.34-.53h0a.43.43,0,0,1-.39.2.56.56,0,0,1-.4-.19.57.57,0,0,1-.14-.38.61.61,0,0,1,.61-.64c.53,0,.67.46.67.9s-.19.91-.68.91a.53.53,0,0,1-.57-.48Zm.54-.71a.31.31,0,0,0-.29-.33.29.29,0,0,0-.27.32.3.3,0,0,0,.27.33.28.28,0,0,0,.28-.32Z"/><rect class="cls-1" x="104.51" y="52.1" width="3.71" height="2.9" rx="0.35"/><rect class="cls-1" x="104.51" y="56.14" width="3.71" height="2.9" rx="0.35"/><rect class="cls-1" x="104.51" y="60.12" width="3.71" height="2.9" rx="0.35"/><rect class="cls-1" x="104.51" y="64.13" width="3.71" height="2.9" rx="0.35"/><rect class="cls-1" x="104.51" y="68.19" width="3.71" height="2.9" rx="0.35"/><rect class="cls-7" x="104.51" y="72.38" width="3.71" height="2.9" rx="0.35"/><rect class="cls-4" x="104.51" y="76.32" width="3.71" height="2.9" rx="0.35"/><path class="cls-2" d="M105.76,1.47a.62.62,0,0,1,.63-.7.55.55,0,0,1,.6.54c0,.53-.56.57-.81.93H107v.3h-1.28c0-.4.25-.57.55-.78s.37-.21.37-.42a.25.25,0,0,0-.23-.27h0c-.21,0-.28.21-.28.4Z"/><path class="cls-2" d="M105.07,49.48a.62.62,0,0,1,.63-.71.56.56,0,0,1,.6.55c0,.53-.56.57-.81.93h.82v.3H105c0-.41.25-.57.55-.78s.37-.21.37-.42a.26.26,0,0,0-.23-.27h0c-.21,0-.27.22-.27.41Z"/><path class="cls-2" d="M107.33,49.25a.27.27,0,0,0-.24-.22c-.25,0-.32.34-.33.54h0a.42.42,0,0,1,.39-.19.52.52,0,0,1,.4.18.54.54,0,0,1,.13.39.6.6,0,0,1-.57.63h0c-.52,0-.67-.46-.67-.9s.19-.91.69-.91a.53.53,0,0,1,.56.48Zm-.54.72a.3.3,0,0,0,.28.32h0a.29.29,0,0,0,.27-.32c0-.16-.08-.33-.27-.33a.29.29,0,0,0-.28.33Z"/><path class="cls-2" d="M105.55,61.54c.15,0,.37,0,.37-.22a.23.23,0,0,0-.23-.23h0c-.18,0-.27.13-.27.31h-.34a.59.59,0,0,1,.61-.6.53.53,0,0,1,.58.48.36.36,0,0,1-.24.36h0a.41.41,0,0,1,.31.4.6.6,0,0,1-.65.57A.59.59,0,0,1,105,62h.34c0,.19.1.34.3.34a.28.28,0,0,0,.29-.25v0c0-.26-.23-.26-.41-.26Z"/><path class="cls-2" d="M106.45,61.5a.62.62,0,0,1,.64-.7.55.55,0,0,1,.59.54c0,.53-.56.57-.81.93h.83v.3h-1.28c0-.4.24-.57.55-.78.15-.1.36-.21.36-.42a.25.25,0,0,0-.23-.27h0c-.21,0-.28.21-.28.4Z"/><path class="cls-2" d="M105.55,69.55c.15,0,.37,0,.37-.21a.23.23,0,0,0-.23-.23h0c-.18,0-.27.13-.27.31h-.34a.59.59,0,0,1,.61-.61.54.54,0,0,1,.58.49.36.36,0,0,1-.24.36h0a.41.41,0,0,1,.31.4A.65.65,0,0,1,105,70h.34c0,.19.1.34.3.34a.28.28,0,0,0,.29-.26h0c0-.26-.23-.26-.41-.26Z"/><path class="cls-2" d="M107.33,69.3a.27.27,0,0,0-.24-.22c-.25,0-.32.34-.33.53h0a.42.42,0,0,1,.39-.19.55.55,0,0,1,.4.18.56.56,0,0,1,.13.39.6.6,0,0,1-.57.63h0c-.52,0-.67-.46-.67-.9s.19-.91.69-.91a.53.53,0,0,1,.56.48Zm-.54.71a.31.31,0,0,0,.28.33h0a.29.29,0,0,0,.27-.32c0-.16-.08-.33-.27-.33a.29.29,0,0,0-.28.32Z"/><path class="cls-2" d="M105.55,73.76c.15,0,.37,0,.37-.22a.23.23,0,0,0-.23-.23h0c-.18,0-.27.13-.27.31h-.34a.59.59,0,0,1,.61-.6.53.53,0,0,1,.58.48.36.36,0,0,1-.24.37h0a.41.41,0,0,1,.31.4.65.65,0,0,1-1.3-.06h.34c0,.19.1.34.3.34a.28.28,0,0,0,.29-.26h0c0-.27-.23-.26-.41-.26Z"/><path class="cls-2" d="M107.06,73a.52.52,0,0,1,.58.47.36.36,0,0,1-.26.36h0a.39.39,0,0,1,.33.42.59.59,0,0,1-.65.55c-.33,0-.66-.17-.66-.54a.4.4,0,0,1,.33-.43h0a.35.35,0,0,1-.26-.36A.53.53,0,0,1,107.06,73Zm0,1.55a.29.29,0,0,0,.29-.28s0,0,0,0a.28.28,0,0,0-.28-.28h0a.28.28,0,0,0-.31.28.29.29,0,0,0,.29.3Zm0-.82a.23.23,0,0,0,.26-.23.24.24,0,0,0-.22-.24h0a.24.24,0,0,0-.27.22v0a.24.24,0,0,0,.27.24Z"/><path class="cls-2" d="M105.75,78.24H105v-.32l.75-1h.32v1h.23v.29h-.23v.4h-.34Zm0-.9h0l-.45.61h.45Z"/><path class="cls-2" d="M107.05,76.86c.35,0,.64.22.64.91s-.29.91-.64.91-.64-.22-.64-.91S106.71,76.86,107.05,76.86Zm0,1.53c.29,0,.29-.43.29-.63s0-.6-.29-.6-.28.42-.28.6S106.77,78.39,107.05,78.39Z"/><path class="cls-2" d="M105.07,53.32a.62.62,0,0,1,.63-.71.56.56,0,0,1,.6.55c0,.52-.56.57-.81.93h.82v.3H105c0-.41.25-.57.55-.78s.37-.21.37-.43a.27.27,0,0,0-.23-.27h0c-.21,0-.27.22-.27.4Z"/><path class="cls-2" d="M107.06,52.61a.52.52,0,0,1,.58.47.35.35,0,0,1-.26.36h0a.4.4,0,0,1,.33.43.58.58,0,0,1-.65.54c-.33,0-.66-.17-.66-.54a.4.4,0,0,1,.33-.43h0a.36.36,0,0,1-.26-.37A.53.53,0,0,1,107.06,52.61Zm0,1.55a.28.28,0,0,0,.29-.27s0,0,0,0a.27.27,0,0,0-.28-.28h0a.27.27,0,0,0-.31.27.29.29,0,0,0,.29.3Zm0-.81a.23.23,0,0,0,.26-.23.23.23,0,0,0-.22-.24h0a.23.23,0,0,0-.27.21v0a.25.25,0,0,0,.27.24Z"/><path class="cls-2" d="M105.55,57.5c.15,0,.37,0,.37-.21a.23.23,0,0,0-.23-.23h0c-.18,0-.27.13-.27.31h-.34a.59.59,0,0,1,.61-.6.53.53,0,0,1,.58.48.34.34,0,0,1-.24.35h0a.41.41,0,0,1,.31.4A.65.65,0,0,1,105,58h.34c0,.19.1.34.3.34A.28.28,0,0,0,106,58h0c0-.26-.23-.26-.41-.26Z"/><path class="cls-2" d="M107.05,56.76c.35,0,.64.22.64.9s-.29.92-.64.92-.64-.22-.64-.92S106.71,56.76,107.05,56.76Zm0,1.52c.29,0,.29-.42.29-.62s0-.61-.29-.61-.28.43-.28.61S106.77,58.28,107.05,58.28Z"/><path class="cls-2" d="M105.55,65.45c.15,0,.37,0,.37-.22a.24.24,0,0,0-.23-.23h0c-.18,0-.27.13-.27.31h-.34a.59.59,0,0,1,.61-.6.53.53,0,0,1,.58.48.36.36,0,0,1-.24.37h0a.39.39,0,0,1,.31.39.65.65,0,0,1-1.3-.06h.34c0,.19.1.35.3.35A.28.28,0,0,0,106,66h0c0-.27-.23-.26-.41-.26Z"/><path class="cls-2" d="M107.14,66.09h-.74v-.33l.76-1h.31v1h.23v.3h-.23v.4h-.33Zm0-.9h0l-.45.6h.46Z"/><path class="cls-2" d="M111.42,2.44h-.36V1.31h-.44V1c.25,0,.47-.08.51-.35h.29Z"/><path class="cls-2" d="M111,5.37c.15,0,.37,0,.37-.21a.24.24,0,0,0-.23-.24h0c-.18,0-.27.13-.27.31h-.34a.59.59,0,0,1,.61-.61.54.54,0,0,1,.58.49.35.35,0,0,1-.24.36h0a.4.4,0,0,1,.31.4.65.65,0,0,1-1.3-.06h.34c0,.19.1.34.3.34a.27.27,0,0,0,.29-.25v0c0-.26-.23-.26-.4-.26Z"/><path class="cls-2" d="M111.68,9.05H111l-.07.4h0a.43.43,0,0,1,.34-.13.54.54,0,0,1,.54.59.63.63,0,0,1-.63.63h0a.57.57,0,0,1-.64-.55h.35a.28.28,0,0,0,.29.26.31.31,0,0,0,.3-.33h0a.31.31,0,0,0-.27-.33h0a.29.29,0,0,0-.27.14h-.32l.17-1h1Z"/><path class="cls-2" d="M110.86,17.94a.25.25,0,0,0,.23.22c.26,0,.32-.34.34-.53h0a.44.44,0,0,1-.39.19.54.54,0,0,1-.4-.18.62.62,0,0,1-.14-.39.61.61,0,0,1,.61-.64c.53,0,.67.46.67.9s-.19.92-.68.92a.54.54,0,0,1-.57-.49Zm.53-.71a.29.29,0,0,0-.27-.32h0a.29.29,0,0,0-.27.31.3.3,0,0,0,.27.33A.28.28,0,0,0,111.39,17.23Z"/><path class="cls-2" d="M110.72,22.36h-.35V21.23h-.44V21c.25,0,.47-.08.51-.35h.28Z"/><path class="cls-2" d="M112.11,22.36h-.36V21.23h-.43V21c.24,0,.47-.08.51-.35h.28Z"/><path class="cls-2" d="M110.72,34.46h-.35V33.33h-.44v-.27c.25,0,.47-.08.51-.34h.28Z"/><path class="cls-2" d="M112.42,33a2.15,2.15,0,0,0-.57,1.45h-.38a2.57,2.57,0,0,1,.59-1.42h-.83v-.33h1.19Z"/><path class="cls-2" d="M110.72,38.52h-.35V37.39h-.44v-.27c.25,0,.47-.08.51-.35h.28Z"/><path class="cls-2" d="M111.55,38.07a.26.26,0,0,0,.23.22c.26,0,.32-.34.34-.53h0a.43.43,0,0,1-.39.2.6.6,0,0,1-.4-.18.62.62,0,0,1-.14-.39.61.61,0,0,1,.61-.64c.53,0,.67.46.67.9s-.19.91-.68.91a.53.53,0,0,1-.57-.48Zm.54-.72a.31.31,0,0,0-.28-.32h0a.33.33,0,0,0,0,.65c.19,0,.28-.15.28-.33Z"/><path class="cls-2" d="M109.84,41.6a.62.62,0,0,1,.63-.71.56.56,0,0,1,.6.55c0,.52-.56.57-.81.92h.82v.31H109.8c0-.41.25-.58.55-.78s.37-.21.37-.43a.25.25,0,0,0-.23-.27h0c-.21,0-.27.22-.27.4Z"/><path class="cls-2" d="M112.11,42.67h-.36V41.54h-.43v-.27a.44.44,0,0,0,.51-.35h.28Z"/><path class="cls-2" d="M109.84,45.59a.61.61,0,0,1,.63-.7.55.55,0,0,1,.6.54c0,.53-.56.57-.81.93h.82v.3H109.8c0-.41.25-.57.55-.78s.37-.21.37-.42a.25.25,0,0,0-.23-.27h0c-.21,0-.27.21-.27.4Z"/><path class="cls-2" d="M111.7,45.63c.15,0,.37,0,.37-.22a.23.23,0,0,0-.23-.23h0c-.18,0-.27.13-.27.31h-.33a.57.57,0,0,1,.6-.6.53.53,0,0,1,.58.48.34.34,0,0,1-.24.36h0a.39.39,0,0,1,.31.4.65.65,0,0,1-1.3-.06h.34c0,.19.1.34.31.34a.27.27,0,0,0,.28-.26h0c0-.26-.23-.26-.4-.26Z"/><path class="cls-2" d="M106.45,6.11h-.74V5.79l.76-1h.31v1H107v.29h-.23v.4h-.33Zm0-.89h0l-.45.6h.46Z"/><path class="cls-2" d="M106,22.47h-.35V21.34h-.44v-.27c.25,0,.47-.08.51-.35H106Z"/><path class="cls-2" d="M106.45,21.4a.63.63,0,0,1,.64-.71.56.56,0,0,1,.59.55c0,.53-.56.57-.81.93h.83v.3h-1.28c0-.4.24-.57.55-.78.15-.11.36-.21.36-.42a.25.25,0,0,0-.23-.27,0,0,0,0,0,0,0c-.21,0-.28.21-.28.4Z"/><path class="cls-2" d="M106,30.55h-.35V29.42h-.44v-.27c.25,0,.47-.08.51-.35H106Z"/><path class="cls-2" d="M107.33,29.26a.27.27,0,0,0-.24-.22c-.25,0-.32.34-.33.53h0a.41.41,0,0,1,.39-.2.55.55,0,0,1,.4.18.56.56,0,0,1,.13.39.61.61,0,0,1-.57.64h0c-.52,0-.67-.46-.67-.9s.19-.91.69-.91a.52.52,0,0,1,.56.48Zm-.54.71a.3.3,0,0,0,.28.32h0a.29.29,0,0,0,.27-.31c0-.16-.08-.33-.27-.33a.29.29,0,0,0-.28.32Z"/><path class="cls-2" d="M106,34.57h-.35V33.44h-.44v-.27c.25,0,.47-.08.51-.34H106Z"/><path class="cls-2" d="M107.06,32.79a.52.52,0,0,1,.58.47.36.36,0,0,1-.26.36h0a.39.39,0,0,1,.33.42.59.59,0,0,1-.65.55c-.33,0-.66-.17-.66-.54a.4.4,0,0,1,.33-.43h0a.35.35,0,0,1-.26-.36A.53.53,0,0,1,107.06,32.79Zm0,1.55a.29.29,0,0,0,.29-.28s0,0,0,0a.28.28,0,0,0-.28-.28h0a.28.28,0,0,0-.31.28.29.29,0,0,0,.29.3Zm0-.82a.23.23,0,0,0,.26-.23.24.24,0,0,0-.22-.24h0a.24.24,0,0,0-.27.22v0a.24.24,0,0,0,.27.24Z"/><path class="cls-2" d="M105.07,41.71a.62.62,0,0,1,.63-.71.56.56,0,0,1,.6.55c0,.52-.56.57-.81.93h.82v.3H105c0-.41.25-.57.55-.78s.37-.21.37-.43a.27.27,0,0,0-.23-.27h0c-.21,0-.27.22-.27.4Z"/><path class="cls-2" d="M106.45,41.71a.63.63,0,0,1,.64-.71.56.56,0,0,1,.59.55c0,.52-.56.57-.81.93h.83v.3h-1.28c0-.41.24-.57.55-.78.15-.11.36-.21.36-.43a.25.25,0,0,0-.23-.27h0c-.21,0-.28.22-.28.4Z"/><path class="cls-2" d="M106.64,9.32a.27.27,0,0,0-.24-.22c-.25,0-.32.34-.33.53h0a.45.45,0,0,1,.4-.19.57.57,0,0,1,.4.18A.61.61,0,0,1,107,10a.6.6,0,0,1-.61.64c-.53,0-.67-.46-.67-.9s.19-.92.69-.92a.53.53,0,0,1,.56.49Zm-.54.71a.29.29,0,0,0,.27.32h0a.29.29,0,0,0,.27-.31c0-.16-.08-.33-.27-.33A.29.29,0,0,0,106.1,10Z"/><polygon class="cls-4" points="101.86 4.06 98.48 4.06 96.8 5.51 98.48 6.96 101.86 6.96 103.54 5.51 101.86 4.06"/><path class="cls-2" d="M99.41,6a.56.56,0,0,1-.44.22.76.76,0,0,1-.78-.82A.78.78,0,0,1,99,4.6a.64.64,0,0,1,.67.56h-.33A.33.33,0,0,0,99,4.89c-.31,0-.43.27-.43.54S98.66,6,99,6a.34.34,0,0,0,.38-.3v0H99V5.37h.67v.85h-.22Z"/><path class="cls-2" d="M100,4.64h.34L101,5.7h0V4.64h.32V6.22h-.35l-.65-1.06h0V6.22H100Z"/><path class="cls-2" d="M101.59,4.64h.68a.69.69,0,0,1,.72.78c0,.46-.23.8-.72.8h-.68Zm.35,1.29h.31c.2,0,.39-.12.39-.47s-.11-.53-.45-.53h-.25Z"/><rect class="cls-4" x="101.5" y="76.32" width="2.47" height="2.9" rx="0.41"/><polygon class="cls-4" points="101.86 76.32 98.48 76.32 96.8 77.77 98.48 79.22 101.86 79.22 103.54 77.77 101.86 76.32"/><path class="cls-2" d="M99.41,78.3a.56.56,0,0,1-.44.22.83.83,0,0,1,0-1.66.64.64,0,0,1,.67.56h-.33a.34.34,0,0,0-.34-.27c-.31,0-.43.27-.43.55s.12.52.43.52a.33.33,0,0,0,.38-.3v0H99v-.26h.67v.86h-.22Z"/><path class="cls-2" d="M100,76.9h.34L101,78h0V76.9h.32v1.58h-.35l-.65-1.06h0v1.06H100Z"/><path class="cls-2" d="M101.59,76.9h.68a.69.69,0,0,1,.72.78c0,.46-.23.8-.72.8h-.68Zm.35,1.29h.31c.2,0,.39-.13.39-.48s-.11-.52-.45-.52h-.25Z"/><rect class="cls-4" x="113.54" y="4.06" width="2.47" height="2.9" rx="0.41"/><polygon class="cls-4" points="115.67 4.06 119.05 4.06 120.73 5.51 119.05 6.97 115.67 6.97 113.99 5.51 115.67 4.06"/><path class="cls-2" d="M115.71,6a.56.56,0,0,1-.44.22.76.76,0,0,1-.78-.82.78.78,0,0,1,.78-.84.64.64,0,0,1,.67.56h-.33a.33.33,0,0,0-.34-.27c-.31,0-.43.27-.43.54s.12.53.43.53a.34.34,0,0,0,.38-.3v0h-.35V5.37H116v.85h-.22Z"/><path class="cls-2" d="M116.25,4.64h.34l.66,1.06h0V4.64h.33V6.22h-.34l-.66-1.06h0V6.22h-.33Z"/><path class="cls-2" d="M117.89,4.64h.69a.69.69,0,0,1,.72.78.71.71,0,0,1-.72.8h-.69Zm.35,1.29h.31c.2,0,.39-.12.39-.47s-.11-.53-.46-.53h-.24Z"/><rect class="cls-4" x="113.54" y="76.32" width="2.47" height="2.9" rx="0.41"/><polygon class="cls-4" points="115.67 76.32 119.05 76.32 120.73 77.77 119.05 79.22 115.67 79.22 113.99 77.77 115.67 76.32"/><path class="cls-2" d="M115.71,78.3a.56.56,0,0,1-.44.22.83.83,0,0,1,0-1.66.64.64,0,0,1,.67.56h-.33a.33.33,0,0,0-.34-.27c-.31,0-.43.27-.43.54s.12.53.43.53a.34.34,0,0,0,.38-.3v0h-.35v-.26H116v.86h-.22Z"/><path class="cls-2" d="M116.25,76.9h.34l.66,1.06h0V76.9h.33v1.58h-.34l-.66-1.06h0v1.06h-.33Z"/><path class="cls-2" d="M117.89,76.9h.69a.69.69,0,0,1,.72.78.71.71,0,0,1-.72.8h-.69Zm.35,1.29h.31c.2,0,.39-.13.39-.48s-.11-.52-.46-.52h-.24Z"/><path class="cls-2" d="M106.36,12.82a.52.52,0,0,1,.59.47.36.36,0,0,1-.26.36h0a.42.42,0,0,1,.33.43.59.59,0,0,1-.65.55c-.33,0-.67-.17-.67-.54a.41.41,0,0,1,.33-.43h0a.34.34,0,0,1-.25-.36A.52.52,0,0,1,106.36,12.82Zm0,1.55a.29.29,0,0,0,.3-.28v0a.28.28,0,0,0-.28-.28h0a.27.27,0,0,0-.3.28.29.29,0,0,0,.29.3h0Zm0-.82c.15,0,.27-.07.27-.22a.25.25,0,0,0-.22-.25h0a.24.24,0,0,0-.26.22v0a.25.25,0,0,0,.27.23Z"/><path class="cls-2" d="M106,18.5h-.35V17.37h-.44V17.1c.25,0,.47-.08.51-.35H106Z"/><path class="cls-2" d="M107.05,16.72c.35,0,.64.22.64.9s-.29.92-.64.92-.64-.22-.64-.92S106.71,16.72,107.05,16.72Zm0,1.52c.29,0,.29-.42.29-.62s0-.61-.29-.61-.28.43-.28.61S106.77,18.24,107.05,18.24Z"/><path class="cls-2" d="M106,26.57h-.35V25.43h-.44v-.26c.25,0,.47-.08.51-.35H106Z"/><path class="cls-2" d="M107.14,26.16h-.74v-.32l.76-1h.31v1.05h.23v.29h-.23v.41h-.33Zm0-.9h0l-.45.61h.46Z"/><path class="cls-2" d="M105.07,37.55a.61.61,0,0,1,.63-.7.55.55,0,0,1,.6.54c0,.53-.56.57-.81.93h.82v.3H105c0-.41.25-.57.55-.78s.37-.21.37-.42a.26.26,0,0,0-.23-.27h0c-.21,0-.27.22-.27.41Z"/><path class="cls-2" d="M107.05,36.85c.35,0,.64.22.64.9s-.29.92-.64.92-.64-.22-.64-.92S106.71,36.85,107.05,36.85Zm0,1.52c.29,0,.29-.43.29-.62s0-.61-.29-.61-.28.43-.28.61,0,.62.28.62Z"/><path class="cls-2" d="M105.07,45.68a.61.61,0,0,1,.63-.7.55.55,0,0,1,.6.54c0,.53-.56.57-.81.93h.82v.3H105c0-.4.25-.57.55-.78s.37-.21.37-.42a.26.26,0,0,0-.23-.27h0c-.21,0-.27.21-.27.4Z"/><path class="cls-2" d="M107.14,46.35h-.74V46l.76-1h.31v1.05h.23v.29h-.23v.4h-.33Zm0-.9h0l-.45.61h.46Z"/><path class="cls-2" d="M111.73,13.05a2.1,2.1,0,0,0-.57,1.44h-.38a2.53,2.53,0,0,1,.58-1.41h-.82v-.33h1.19Z"/><path class="cls-2" d="M110.72,26.46h-.35V25.33h-.44v-.27c.25,0,.47-.08.51-.35h.28Z"/><path class="cls-2" d="M111.7,25.42c.15,0,.37,0,.37-.22a.23.23,0,0,0-.23-.23h0c-.18,0-.27.13-.27.31h-.33a.57.57,0,0,1,.6-.6.53.53,0,0,1,.58.48.34.34,0,0,1-.24.36h0a.39.39,0,0,1,.31.4.65.65,0,0,1-1.3-.06h.34c0,.19.1.34.31.34a.26.26,0,0,0,.28-.25v0c0-.26-.23-.26-.4-.26Z"/><path class="cls-2" d="M110.72,30.44h-.35V29.31h-.44v-.26c.25,0,.47-.08.51-.35h.28Z"/><path class="cls-2" d="M112.38,29h-.73l-.06.4h0a.43.43,0,0,1,.34-.13.54.54,0,0,1,.54.59.63.63,0,0,1-.63.63h0a.59.59,0,0,1-.65-.55h.35a.28.28,0,0,0,.29.26.32.32,0,0,0,.3-.33h0a.3.3,0,0,0-.27-.32h0a.27.27,0,0,0-.27.14h-.32l.17-1h1Z"/><polygon class="cls-5" points="115.35 8.1 118.26 8.1 119.72 9.55 118.26 11.01 115.35 11.01 113.89 9.55 115.35 8.1"/><path class="cls-5" d="M113.54,8.1h4.32a.43.43,0,0,1,.43.43v2.06a.43.43,0,0,1-.43.43h-4.32a0,0,0,0,1,0,0V8.1A0,0,0,0,1,113.54,8.1Z" transform="translate(231.83 19.11) rotate(-180)"/><polygon class="cls-5" points="101.47 9.55 100.01 11.01 97.09 11.01 95.64 9.55 97.09 8.1 100.01 8.1 101.47 9.55"/><path class="cls-5" d="M99.21,8.1h4.32a.43.43,0,0,1,.43.43v2.06a.43.43,0,0,1-.43.43H99.21a0,0,0,0,1,0,0V8.1A0,0,0,0,1,99.21,8.1Z"/><path class="cls-2" d="M115,9.35c.14,0,.33,0,.33-.2a.2.2,0,0,0-.2-.2h0c-.16,0-.24.12-.24.28h-.3a.53.53,0,0,1,.54-.55.48.48,0,0,1,.52.43.31.31,0,0,1-.22.32h0a.34.34,0,0,1,.27.35.58.58,0,0,1-1.15,0h.3c0,.17.09.3.27.3a.24.24,0,0,0,.25-.22v0c0-.23-.2-.23-.36-.23Z"/><path class="cls-2" d="M116.51,10.27h-.35l-.39-1.15h.33l.24.79h0l.24-.79h.32Z"/><path class="cls-2" d="M117.42,9.35c.13,0,.33,0,.33-.2a.2.2,0,0,0-.2-.2h0c-.16,0-.24.12-.24.28H117a.52.52,0,0,1,.54-.55.48.48,0,0,1,.52.43.31.31,0,0,1-.22.32h0a.34.34,0,0,1,.27.35.58.58,0,0,1-1.15,0h.3c0,.17.09.3.27.3a.23.23,0,0,0,.25-.22v0c0-.23-.2-.23-.36-.23Z"/><path class="cls-2" d="M97.36,9.33c.13,0,.33,0,.33-.19a.2.2,0,0,0-.22-.21.24.24,0,0,0-.24.28h-.31a.53.53,0,0,1,.55-.54A.47.47,0,0,1,98,9.1a.31.31,0,0,1-.22.32h0a.34.34,0,0,1,.28.35.54.54,0,0,1-.58.52.53.53,0,0,1-.58-.57h.3c0,.17.09.31.27.31a.24.24,0,0,0,.26-.25c0-.24-.21-.23-.36-.23Z"/><path class="cls-2" d="M98.86,10.27H98.5l-.39-1.16h.33l.25.79h0l.25-.79h.31Z"/><path class="cls-2" d="M99.78,9.33c.13,0,.33,0,.33-.19a.2.2,0,0,0-.22-.21c-.16,0-.24.12-.24.28h-.3a.51.51,0,0,1,.54-.54.48.48,0,0,1,.53.43.32.32,0,0,1-.22.32h0a.34.34,0,0,1,.27.35.58.58,0,0,1-1.16,0h.3c0,.17.09.31.28.31a.24.24,0,0,0,.25-.25c0-.24-.21-.23-.36-.23Z"/><path class="cls-2" d="M100.52,10.44h1.12v.11h-1.12Z"/><path class="cls-2" d="M102,9.74c0,.21.16.29.35.29s.31,0,.31-.2-.24-.2-.47-.26-.48-.16-.48-.46.31-.48.6-.48.64.14.64.51h-.34c0-.19-.15-.24-.32-.24s-.24,0-.24.18.08.14.48.25c.12,0,.47.1.47.46s-.22.52-.66.52-.69-.18-.68-.57Z"/><path class="cls-6" d="M103.7,72.37a.29.29,0,0,1,.27.29V75a.29.29,0,0,1-.28.28h-3.51l-1.9-1.45,1.9-1.46h3.52Z"/><polygon class="cls-6" points="103.76 73.83 102.3 72.37 99.38 72.37 97.92 73.83 99.38 75.28 102.3 75.28 103.76 73.83"/><path class="cls-2" d="M100.84,73.05a.84.84,0,0,1,0,1.67.84.84,0,0,1,0-1.67Zm0,1.37c.32,0,.44-.26.44-.53s-.12-.54-.44-.54-.43.26-.43.54S100.53,74.42,100.84,74.42Z"/><path class="cls-2" d="M101.86,73.09h1.19v.29h-.84v.35H103V74h-.77v.39h.86v.29h-1.21Z"/><path class="cls-7" d="M113.77,36.1H123a.27.27,0,0,1,.25.3v2.32a.28.28,0,0,1-.25.3h-9.19a.28.28,0,0,1-.24-.3V36.4A.27.27,0,0,1,113.77,36.1Z"/><polygon class="cls-7" points="124.82 36.1 121.89 36.1 120.42 37.56 121.89 39.02 124.82 39.02 126.29 37.56 124.82 36.1"/><g class="cls-8"><path class="cls-2" d="M114.46,36.7h.35v1.59h-.35Z"/><path class="cls-2" d="M115,37.33a.56.56,0,0,1,.57-.63.49.49,0,0,1,.53.49c0,.47-.5.51-.72.83h.73v.27H115c0-.36.22-.51.49-.69s.33-.19.33-.38a.23.23,0,0,0-.24-.24c-.18,0-.24.19-.24.35Z"/><path class="cls-2" d="M117.41,37.24a.34.34,0,0,0-.34-.28c-.32,0-.44.27-.44.55s.12.53.44.53a.36.36,0,0,0,.36-.36h.34a.67.67,0,0,1-.7.65.83.83,0,0,1,0-1.66.64.64,0,0,1,.68.57Z"/><path class="cls-2" d="M118.72,38.29h-.31v-1H118V37c.22,0,.42-.07.45-.31h.25v1.56Z"/><path class="cls-2" d="M119.09,38.46h1.11v.11h-1.11Z"/><path class="cls-2" d="M120.6,37.77c0,.21.16.29.35.29s.31,0,.31-.2-.24-.2-.48-.26-.47-.16-.47-.45a.53.53,0,0,1,.59-.48c.34,0,.64.14.64.51h-.34c0-.19-.14-.24-.31-.24s-.24.05-.24.18.07.14.47.24c.12,0,.48.1.48.46s-.23.51-.67.51-.68-.17-.67-.56Z"/><path class="cls-2" d="M121.8,36.7h.69a.7.7,0,0,1,.72.79.71.71,0,0,1-.72.8h-.69Zm.35,1.3h.31c.21,0,.4-.12.4-.48s-.11-.52-.46-.52h-.25v1Z"/><path class="cls-2" d="M123.89,36.7h.36l.59,1.59h-.36l-.12-.35h-.6l-.12.35h-.36Zm0,1h.42l-.2-.58h0Z"/></g><path class="cls-7" d="M104,36.41v2.32a.29.29,0,0,1-.28.29H93.09a.29.29,0,0,1-.28-.29V36.41a.29.29,0,0,1,.28-.3h10.6A.29.29,0,0,1,104,36.41Z"/><polygon class="cls-7" points="91.44 37.57 92.91 39.03 95.84 39.03 97.31 37.57 95.84 36.11 92.91 36.11 91.44 37.57"/><g class="cls-8"><path class="cls-2" d="M92.91,36.71h.35V38.3h-.35Z"/><path class="cls-2" d="M93.49,37.34a.56.56,0,0,1,.57-.63.49.49,0,0,1,.53.49c0,.47-.5.51-.73.83h.74v.27H93.45c0-.36.23-.51.5-.7s.32-.18.32-.38A.22.22,0,0,0,94,37c-.19,0-.25.2-.25.36Z"/><path class="cls-2" d="M95.86,37.25a.34.34,0,0,0-.35-.28c-.31,0-.43.27-.43.54s.12.54.43.54a.35.35,0,0,0,.36-.36h.34a.66.66,0,0,1-.7.65.84.84,0,0,1,0-1.67.65.65,0,0,1,.69.58Z"/><path class="cls-2" d="M97.17,38.3h-.32v-1h-.39v-.24c.22,0,.42-.07.46-.31h.25V38.3Z"/><path class="cls-2" d="M97.54,38.47h1.11v.11H97.54Z"/><path class="cls-2" d="M99,37.77c0,.22.17.3.35.3s.31,0,.31-.2-.24-.2-.47-.26-.47-.16-.47-.46a.53.53,0,0,1,.59-.48c.33,0,.64.15.64.52h-.34c0-.19-.14-.24-.31-.24s-.24,0-.24.18.07.14.47.24c.12,0,.47.1.47.46s-.22.51-.66.51-.68-.17-.68-.57Z"/><path class="cls-2" d="M101.31,37.25A.36.36,0,0,0,101,37c-.31,0-.43.27-.43.54s.12.54.43.54a.36.36,0,0,0,.36-.36h.34a.67.67,0,0,1-.7.65.84.84,0,0,1,0-1.67.66.66,0,0,1,.69.58Z"/><path class="cls-2" d="M101.9,36.71h.35V38H103v.29H101.9Z"/></g><path class="cls-9" d="M0,16.11v47H65v-47ZM60.1,27.43a1.45,1.45,0,1,1,1.45,1.47h0A1.46,1.46,0,0,1,60.1,27.43ZM50.61,59.72a1.45,1.45,0,1,1,1.45,1.49,1.46,1.46,0,0,1-1.45-1.49Zm-11-40A1.45,1.45,0,0,1,41,18.27a1.47,1.47,0,1,1-1.45,1.46ZM7,59.42a2.62,2.62,0,1,1,2.65,2.66A2.64,2.64,0,0,1,7,59.42ZM6.89,20a2.62,2.62,0,1,1,2.62,2.66h0A2.64,2.64,0,0,1,6.89,20Z"/><path class="cls-10" d="M59.05,27.43a2.5,2.5,0,1,0,2.5-2.52h0a2.5,2.5,0,0,0-2.5,2.51Zm1.05,0a1.45,1.45,0,1,1,1.45,1.47h0A1.46,1.46,0,0,1,60.1,27.43Z"/><path class="cls-10" d="M38.31,19.73A2.72,2.72,0,1,0,41,17h0A2.74,2.74,0,0,0,38.31,19.73Zm1.27,0A1.45,1.45,0,0,1,41,18.27a1.47,1.47,0,1,1-1.45,1.46Z"/><path class="cls-10" d="M49.63,59.64a2.51,2.51,0,1,0,2.5-2.53h0A2.51,2.51,0,0,0,49.63,59.64Zm1,.08a1.45,1.45,0,1,1,1.45,1.49,1.46,1.46,0,0,1-1.45-1.49Z"/><path class="cls-10" d="M4.79,20a4.75,4.75,0,1,0,9.5,0,4.82,4.82,0,0,0-2-3.94H6.79A4.8,4.8,0,0,0,4.79,20Zm2.1,0a2.62,2.62,0,1,1,2.62,2.66h0A2.64,2.64,0,0,1,6.89,20Z"/><path class="cls-10" d="M14.28,59.42a4.64,4.64,0,1,0-7.5,3.69h5.73A4.71,4.71,0,0,0,14.28,59.42Zm-2,0A2.62,2.62,0,1,1,9.7,56.74a2.64,2.64,0,0,1,2.62,2.68h0Z"/><polygon class="cls-11" points="41.59 29.21 41.59 29.87 40.98 29.87 40.98 29.21 39.18 29.21 39.18 29.87 38.57 29.87 38.57 29.21 36.95 29.21 36.95 29.87 36.31 29.87 36.31 33.31 43.81 33.31 43.81 29.87 43.24 29.87 43.24 29.21 41.59 29.21"/><path class="cls-11" d="M33.35,35.89h.33L34,37.33h0l.38-1.42h.34l.35,1.42h0l.34-1.42h.32l-.5,1.86H34.9l-.37-1.42h0l-.38,1.42h-.32Z"/><path class="cls-11" d="M35.92,35.89h.29v.28h-.29Zm0,.52h.29v1.32h-.29Z"/><path class="cls-11" d="M36.75,37.33c0,.18.14.24.3.24s.3,0,.3-.18-.23-.18-.44-.22-.43-.13-.43-.4.31-.38.56-.38a.5.5,0,0,1,.55.41h-.3c0-.15-.14-.18-.27-.18s-.24,0-.24.14.21.16.43.21.42.13.42.39-.31.44-.59.44a.54.54,0,0,1-.59-.47Z"/><path class="cls-11" d="M37.88,35.89h.87c.34,0,.58.12.58.46a.39.39,0,0,1-.25.39.47.47,0,0,1,.34.47c0,.38-.32.54-.66.54h-.88Zm.4.78h.41c.15,0,.25-.07.25-.22s-.13-.21-.28-.21h-.38Zm0,.79h.43c.16,0,.31-.05.31-.25s-.12-.26-.3-.26h-.44Z"/><path class="cls-11" d="M39.68,35.89h.41v1.52H41v.34H39.67Z"/><path class="cls-11" d="M42,35.85a1,1,0,1,1-.9,1v-.05a.9.9,0,0,1,.82-1Zm0,1.6c.36,0,.5-.31.5-.62s-.14-.66-.5-.66-.5.31-.5.66S41.67,37.45,42,37.45Z"/><path class="cls-11" d="M44.43,36.52a.42.42,0,0,0-.41-.33c-.36,0-.5.31-.5.67s.14.62.5.62a.42.42,0,0,0,.42-.42h.39a.78.78,0,0,1-.8.77h0a1,1,0,0,1,0-2,.74.74,0,0,1,.79.67Z"/><path class="cls-11" d="M45.1,35.89h.41v.78l.71-.77h.51l-.72.74.78,1.12h-.5l-.55-.84-.23.24v.6H45.1Z"/><path class="cls-11" d="M39.47,42.44a1.87,1.87,0,0,1,.71.13,1.62,1.62,0,0,1,.54.35,1.64,1.64,0,0,1,.35.52,1.94,1.94,0,0,1,.11.63A1.73,1.73,0,0,1,41,45a1.38,1.38,0,0,1-.71.59h0a1.11,1.11,0,0,1,.39.2.9.9,0,0,1,.25.33,1.38,1.38,0,0,1,.15.4,3.47,3.47,0,0,1,.06.45v.72a2.5,2.5,0,0,0,.06.38.83.83,0,0,0,.14.3H40a2.09,2.09,0,0,1-.13-.66,5.8,5.8,0,0,0-.07-.74,1.27,1.27,0,0,0-.29-.67,1,1,0,0,0-.69-.21H37.51v2.31H36.2V42.44ZM39,45.09a.92.92,0,0,0,.65-.2.8.8,0,0,0,.22-.66.82.82,0,0,0-.22-.63,1,1,0,0,0-.65-.19H37.61v1.66Z"/><path class="cls-11" d="M45.41,42.44l2.19,5.92H46.29L45.85,47H43.63l-.45,1.33H41.87l2.22-5.92Zm.08,3.63-.74-2.17h0L44,46.07Z"/><polygon class="cls-11" points="49.47 42.44 49.47 44.89 51.75 42.44 53.35 42.44 51.06 44.78 53.57 48.36 51.96 48.36 50.2 45.7 49.47 46.45 49.47 48.36 48.18 48.36 48.18 42.44 49.47 42.44"/><path class="cls-11" d="M30.79,42.37a2.62,2.62,0,0,1,1,.18h0s.23.11.19.55a.58.58,0,0,1-.61.58h-2v-.8a1,1,0,0,0-.06-.34,6.36,6.36,0,0,1,1.22-.21h.21"/><path class="cls-11" d="M31,40.86h.39c.22,0,.5,0,.6.2a.75.75,0,0,1,.07.53.59.59,0,0,1-.17.33l-.12.12a3.38,3.38,0,0,0-1-.12h-.28a6.39,6.39,0,0,0-1.37.27,1.21,1.21,0,0,0-.31-.21l-.18-.06a3.87,3.87,0,0,1,1.23-.85,3.11,3.11,0,0,1,1.17-.21"/><path class="cls-11" d="M30.79,39.17H31c.9,0,1,.17,1,.66a.82.82,0,0,1-.34.59h-.52a3.43,3.43,0,0,0-1.06.14,4,4,0,0,0-1.49.85A7.17,7.17,0,0,0,28,42a.81.81,0,0,0-.28.17l-.08.07a1,1,0,0,0-.7-.31,4.42,4.42,0,0,1,1.18-1.68,4.3,4.3,0,0,1,2.66-1.07h0"/><path class="cls-11" d="M31.84,44.07a6.36,6.36,0,0,1,.21,1.22,2.92,2.92,0,0,1-.17,1.24h0s-.08.19-.43.19h-.11a.61.61,0,0,1-.57-.63v-2h.78a1,1,0,0,0,.34-.06"/><path class="cls-11" d="M32.5,43.3a4,4,0,0,1,.84,1.24A3.41,3.41,0,0,1,33.55,46v.15c0,.23,0,.52-.21.61a.7.7,0,0,1-.35.09h-.17a.62.62,0,0,1-.33-.17l-.11-.12a4.15,4.15,0,0,0,.11-1.27,6.56,6.56,0,0,0-.26-1.39,1.31,1.31,0,0,0,.21-.36.66.66,0,0,0,.06-.2"/><path class="cls-11" d="M32.54,41.56a4.51,4.51,0,0,1,1.66,1.2,4.35,4.35,0,0,1,1,2.85c0,.92-.17,1-.66,1a.78.78,0,0,1-.57-.34,4.78,4.78,0,0,0-.12-1.6A4,4,0,0,0,33,43.21c-.23-.25-.49-.5-.57-.58a1.17,1.17,0,0,0-.17-.28l-.08-.08a1,1,0,0,0,.23-.31,1.3,1.3,0,0,0,.09-.4"/><path class="cls-11" d="M30.31,45.4v.8a1.43,1.43,0,0,0,.06.35,6.13,6.13,0,0,1-1.21.21H29a2.76,2.76,0,0,1-1-.14h0s-.23-.11-.19-.55a.6.6,0,0,1,.62-.58h.09l1.37,0h.49"/><path class="cls-11" d="M30.63,46.94a1.65,1.65,0,0,0,.36.22l.18.05a3.87,3.87,0,0,1-1.23.85,3.33,3.33,0,0,1-1.17.22h-.38c-.22,0-.51,0-.6-.22a.67.67,0,0,1-.07-.52.61.61,0,0,1,.17-.34l.12-.11a3.49,3.49,0,0,0,1,.13h.28A7.2,7.2,0,0,0,30.63,47"/><path class="cls-11" d="M32.16,46.94a1,1,0,0,0,.71.32,4.58,4.58,0,0,1-1.18,1.67A4.38,4.38,0,0,1,29,50h-.15c-.91,0-1-.17-1-.67a.86.86,0,0,1,.34-.58h.51a3.51,3.51,0,0,0,1.07-.11,4,4,0,0,0,1.49-.85,7.8,7.8,0,0,0,.57-.58A.9.9,0,0,0,32.1,47l.08-.08"/><path class="cls-11" d="M28.35,42.39h.11A.6.6,0,0,1,29,43v2h-.79a1,1,0,0,0-.34.06,6.46,6.46,0,0,1-.21-1.23,2.77,2.77,0,0,1,.22-1.21h0s.09-.19.43-.19"/><path class="cls-11" d="M26.8,42.35H27a.7.7,0,0,1,.33.17l.11.12A4.24,4.24,0,0,0,27.29,44a6.7,6.7,0,0,0,.27,1.39,1.17,1.17,0,0,0-.21.36.64.64,0,0,0-.06.18,3.85,3.85,0,0,1-.84-1.27,3.56,3.56,0,0,1-.21-1.41v-.17c0-.22,0-.51.2-.6a.73.73,0,0,1,.35-.09"/><path class="cls-11" d="M25.22,42.49a.78.78,0,0,1,.57.34,4.38,4.38,0,0,0,.12,1.61A4,4,0,0,0,26.74,46c.19.2.38.39.58.57a1.28,1.28,0,0,0,.16.28l.08.07a1,1,0,0,0-.32.73,4.81,4.81,0,0,1-1.66-1.2,4.38,4.38,0,0,1-1-2.86c0-.92.16-1,.65-1h0"/><path class="cls-11" d="M28.7,52h-.36l-.23-.88h0L27.9,52h-.38l-.41-1.33h.41l.23.89h0l.22-.89h.34l.22.88h0l.23-.88h.36Z"/><path class="cls-11" d="M30.72,52h-.36l-.22-.88h0l-.22.88h-.37l-.4-1.33h.33l.24.89h0l.21-.89h.35l.21.88h0l.3-.85h.36Z"/><path class="cls-11" d="M32.76,52H32.4l-.23-.88h0L32,52h-.36l-.41-1.33h.37l.24.89h0l.21-.89h.34l.22.88h0l.2-.85h.37Z"/><path class="cls-11" d="M33.05,51.6h.36V52H33Z"/><path class="cls-11" d="M33.73,50h1.06a.54.54,0,0,1,.58.51v0a.49.49,0,0,1-.31.5h0c.21.06.27.26.29.47a1,1,0,0,0,.08.47H35a2.63,2.63,0,0,1-.06-.48c0-.21-.11-.31-.34-.31h-.43V52h-.43Zm.43.9h.48c.2,0,.29-.09.29-.29s-.09-.27-.29-.27h-.48Z"/><path class="cls-11" d="M36.26,50h.43l.74,2H37l-.15-.45h-.72L36,52h-.44Zm0,1.22h.52l-.25-.73h0Z"/><path class="cls-11" d="M37.63,50h.43v.83l.77-.83h.54l-.77.79.85,1.2H38.9l-.59-.9-.25.26V52h-.43Z"/><path class="cls-11" d="M41.36,52H41l-.26-1h0l-.24,1h-.41l-.45-1.44H40l.26,1h0l.25-1h.38l.24,1h0l.26-1h.4Z"/><path class="cls-11" d="M42.38,50.29H42V50h.39Zm-.39.23h.39V52H42Z"/><path class="cls-11" d="M42.59,50.52H43v.26h0a.51.51,0,0,1,.46-.3h.08v.37h-.14c-.29,0-.39.21-.39.46V52h-.38Z"/><path class="cls-11" d="M44,51.3a.33.33,0,0,0,.36.37.34.34,0,0,0,.31-.19H45a.64.64,0,0,1-.65.48.69.69,0,0,1-.73-.66v-.1a.74.74,0,0,1,.66-.79.73.73,0,0,1,.78.67.78.78,0,0,1,0,.22Zm.66-.25c0-.21-.12-.31-.31-.31A.31.31,0,0,0,44,51h.64Z"/><path class="cls-11" d="M45.33,50h.39v2h-.39Z"/><path class="cls-11" d="M46.33,51.3a.32.32,0,0,0,.35.37.34.34,0,0,0,.31-.19h.35a.66.66,0,0,1-.66.48A.69.69,0,0,1,46,51.3v-.1a.74.74,0,0,1,.66-.79.73.73,0,0,1,.78.67.79.79,0,0,1,0,.22Zm.65-.25c0-.21-.12-.31-.31-.31a.31.31,0,0,0-.33.3H47Z"/><path class="cls-11" d="M47.86,51.45c0,.18.14.25.3.25s.26-.05.26-.19-.17-.16-.45-.22-.45-.13-.45-.39.31-.46.66-.46.59.1.65.46h-.37c0-.16-.13-.2-.27-.2s-.22,0-.22.14.22.16.45.22.45.13.45.4-.33.5-.66.5-.65-.12-.65-.51Z"/><path class="cls-11" d="M49.45,51.45c0,.18.15.25.3.25s.27-.05.27-.19-.17-.16-.45-.22-.46-.13-.46-.39.32-.46.66-.46.6.1.65.46h-.37c0-.16-.13-.2-.27-.2s-.22,0-.22.14.23.16.44.22.46.13.46.4-.33.5-.66.5-.66-.12-.66-.51Z"/><path class="cls-11" d="M52.28,51.17A.24.24,0,0,0,52,51h0c-.22,0-.3.23-.3.42s.08.42.3.42a.28.28,0,0,0,.29-.26h.34a.58.58,0,0,1-.63.54h0a.69.69,0,0,1-.06-1.38H52a.56.56,0,0,1,.61.5h0Z"/><path class="cls-11" d="M53.48,50.67a.7.7,0,0,1,0,1.4.7.7,0,0,1,0-1.4Zm0,1.12c.25,0,.32-.2.32-.42s-.07-.42-.32-.42-.31.21-.31.42S53.24,51.79,53.48,51.79Z"/><path class="cls-11" d="M54.38,50.71h.34v.18h0a.47.47,0,0,1,.4-.22.38.38,0,0,1,.38.22.47.47,0,0,1,.4-.22.43.43,0,0,1,.48.37v1H56v-.77c0-.17,0-.32-.23-.32s-.24.17-.24.33V52h-.36v-.75c0-.15,0-.33-.21-.33s-.25,0-.25.3V52h-.35Z"/><ellipse class="cls-11" cx="62.48" cy="17.11" rx="0.45" ry="0.46"/><ellipse class="cls-12" cx="3.51" cy="45.87" rx="1.42" ry="1.44"/><ellipse class="cls-13" cx="3.51" cy="45.87" rx="1.05" ry="1.07"/><rect class="cls-10" x="3.03" y="45.39" width="0.96" height="0.97" rx="0.15"/><ellipse class="cls-12" cx="8.14" cy="45.87" rx="1.42" ry="1.44"/><ellipse class="cls-13" cx="8.14" cy="45.87" rx="1.05" ry="1.07"/><rect class="cls-10" x="7.67" y="45.39" width="0.96" height="0.97" rx="0.15"/><ellipse class="cls-12" cx="13.02" cy="45.87" rx="1.42" ry="1.44"/><ellipse class="cls-13" cx="13.02" cy="45.87" rx="1.05" ry="1.07"/><rect class="cls-10" x="12.55" y="45.39" width="0.96" height="0.97" rx="0.15"/><ellipse class="cls-12" cx="17.76" cy="45.87" rx="1.42" ry="1.44"/><ellipse class="cls-13" cx="17.76" cy="45.87" rx="1.05" ry="1.07"/><rect class="cls-10" x="17.28" y="45.39" width="0.96" height="0.97" rx="0.15"/><ellipse class="cls-12" cx="22.57" cy="45.87" rx="1.42" ry="1.44"/><ellipse class="cls-13" cx="22.57" cy="45.87" rx="1.05" ry="1.07"/><rect class="cls-10" x="22.09" y="45.39" width="0.96" height="0.97" rx="0.15"/><ellipse class="cls-12" cx="8.14" cy="50.8" rx="1.42" ry="1.44"/><ellipse class="cls-13" cx="8.14" cy="50.8" rx="1.05" ry="1.07"/><rect class="cls-10" x="7.67" y="50.32" width="0.96" height="0.97" rx="0.15"/><ellipse class="cls-12" cx="13.02" cy="50.8" rx="1.42" ry="1.44"/><ellipse class="cls-13" cx="13.02" cy="50.8" rx="1.05" ry="1.07"/><rect class="cls-10" x="12.55" y="50.32" width="0.96" height="0.97" rx="0.15"/><ellipse class="cls-12" cx="17.76" cy="50.8" rx="1.42" ry="1.44"/><ellipse class="cls-13" cx="17.76" cy="50.8" rx="1.05" ry="1.07"/><rect class="cls-10" x="17.28" y="50.32" width="0.96" height="0.97" rx="0.15"/><ellipse class="cls-12" cx="22.57" cy="50.8" rx="1.42" ry="1.44"/><ellipse class="cls-13" cx="22.57" cy="50.8" rx="1.05" ry="1.07"/><rect class="cls-10" x="22.09" y="50.32" width="0.96" height="0.97" rx="0.15"/><ellipse class="cls-12" cx="3.45" cy="28.21" rx="1.42" ry="1.44"/><ellipse class="cls-13" cx="3.45" cy="28.21" rx="1.05" ry="1.07"/><rect class="cls-10" x="2.97" y="27.72" width="0.96" height="0.97" rx="0.15"/><ellipse class="cls-12" cx="8.09" cy="28.21" rx="1.42" ry="1.44"/><ellipse class="cls-13" cx="8.09" cy="28.21" rx="1.05" ry="1.07"/><rect class="cls-10" x="7.61" y="27.72" width="0.96" height="0.97" rx="0.15"/><ellipse class="cls-12" cx="12.97" cy="28.21" rx="1.42" ry="1.44"/><ellipse class="cls-13" cx="12.97" cy="28.21" rx="1.05" ry="1.07"/><rect class="cls-10" x="12.49" y="27.72" width="0.96" height="0.97" rx="0.15"/><ellipse class="cls-12" cx="17.71" cy="28.21" rx="1.42" ry="1.44"/><ellipse class="cls-13" cx="17.71" cy="28.21" rx="1.05" ry="1.07"/><rect class="cls-10" x="17.23" y="27.72" width="0.96" height="0.97" rx="0.15"/><ellipse class="cls-12" cx="22.52" cy="28.21" rx="1.42" ry="1.44"/><ellipse class="cls-13" cx="22.52" cy="28.21" rx="1.05" ry="1.07"/><rect class="cls-10" x="22.04" y="27.72" width="0.96" height="0.97" rx="0.15"/><ellipse class="cls-12" cx="8.09" cy="33.14" rx="1.42" ry="1.44"/><ellipse class="cls-13" cx="8.09" cy="33.14" rx="1.05" ry="1.07"/><rect class="cls-10" x="7.61" y="32.66" width="0.96" height="0.97" rx="0.15"/><ellipse class="cls-12" cx="12.97" cy="33.14" rx="1.42" ry="1.44"/><ellipse class="cls-13" cx="12.97" cy="33.14" rx="1.05" ry="1.07"/><rect class="cls-10" x="12.49" y="32.66" width="0.96" height="0.97" rx="0.15"/><ellipse class="cls-12" cx="17.71" cy="33.14" rx="1.42" ry="1.44"/><ellipse class="cls-13" cx="17.71" cy="33.14" rx="1.05" ry="1.07"/><rect class="cls-10" x="17.23" y="32.66" width="0.96" height="0.97" rx="0.15"/><ellipse class="cls-12" cx="22.52" cy="33.14" rx="1.42" ry="1.44"/><ellipse class="cls-13" cx="22.52" cy="33.14" rx="1.05" ry="1.07"/><rect class="cls-10" x="22.04" y="32.66" width="0.96" height="0.97" rx="0.15"/><rect class="cls-12" x="1.95" y="31.62" width="3.01" height="3.04"/><rect class="cls-13" x="2.16" y="31.84" width="2.57" height="2.61" rx="0.11"/><path class="cls-14" d="M3.15,32.7h.61a.12.12,0,0,1,.12.12v.62a.13.13,0,0,1-.13.13H3.14A.12.12,0,0,1,3,33.45v-.62A.13.13,0,0,1,3.15,32.7Z"/><rect class="cls-12" x="2" y="49.28" width="3.01" height="3.04"/><rect class="cls-13" x="2.21" y="49.5" width="2.57" height="2.61" rx="0.11"/><path class="cls-14" d="M3.2,50.37h.61a.12.12,0,0,1,.12.12v.62a.13.13,0,0,1-.13.13H3.2a.12.12,0,0,1-.12-.12V50.5a.12.12,0,0,1,.12-.12Z"/><path class="cls-2" d="M46.86,22.39H45.3a.28.28,0,0,1-.28-.28v-4a.29.29,0,0,1,.28-.28h1.56A.18.18,0,0,1,47,18a.16.16,0,0,1-.17.16H45.35v3.93h1.51a.16.16,0,0,1,.17.17A.16.16,0,0,1,46.86,22.39Z"/><path class="cls-2" d="M62.86,22.39h1.56a.27.27,0,0,0,.27-.28v-4a.28.28,0,0,0-.27-.28H62.86a.18.18,0,0,0-.17.17.17.17,0,0,0,.17.16h1.5v3.93h-1.5a.17.17,0,0,0-.17.17A.16.16,0,0,0,62.86,22.39Z"/><path class="cls-15" d="M46.3,21.75h-.16a.27.27,0,0,1-.26-.27h0V18.7a.27.27,0,0,1,.26-.27h.16a.27.27,0,0,1,.26.27v2.78a.27.27,0,0,1-.26.27"/><path class="cls-15" d="M63.48,21.75h-.16a.26.26,0,0,1-.25-.26h0V18.7a.26.26,0,0,1,.25-.27h.16a.27.27,0,0,1,.26.27h0v2.78a.27.27,0,0,1-.26.27h0"/><path class="cls-16" d="M63.91,19.31V19a.27.27,0,0,0-.27-.26h-.53a.29.29,0,0,0-.25.16H46.73a.28.28,0,0,0-.21-.18H46a.27.27,0,0,0-.26.27h0v.27a.25.25,0,0,0,.14.26v1.06a.25.25,0,0,0-.18.25v.26a.27.27,0,0,0,.26.27h.58a.27.27,0,0,0,.24-.18H62.9a.26.26,0,0,0,.24.18h.54a.27.27,0,0,0,.26-.27h0v-.26a.27.27,0,0,0-.17-.25V19.55A.26.26,0,0,0,63.91,19.31Z"/><path class="cls-17" d="M62.47,21H47.09c-.11,0-.21-.06-.21-.14V19.37c0-.07.1-.13.21-.13H62.47c.12,0,.22.06.22.13v1.48c0,.08-.1.14-.22.14"/><path class="cls-15" d="M47.87,17.86h-.3a.08.08,0,0,0-.08.08h0v.27a.07.07,0,0,0,.08.08V19h.3v-.71s.07,0,.08-.08v-.27a.11.11,0,0,0-.08-.08"/><path class="cls-18" d="M47.83,19.27h-.4a.06.06,0,0,1-.06-.05V19a.07.07,0,0,1,.06-.07h.4a.07.07,0,0,1,.06.07v.19s0,.06,0,.07h0"/><path class="cls-15" d="M47.87,22.37h-.3a.08.08,0,0,1-.08-.08h0V22s0-.07.08-.08v-.71h.3v.71A.11.11,0,0,1,48,22v.28a.11.11,0,0,1-.08.08"/><path class="cls-18" d="M47.83,21h-.4a.06.06,0,0,0-.06.05v.21a.06.06,0,0,0,.06.06h.4a.06.06,0,0,0,.06-.06V21a.05.05,0,0,0,0-.07h0"/><path class="cls-15" d="M48.59,17.86h-.3a.09.09,0,0,0-.08.08h0v.27s0,.08.08.08V19h.3v-.71a.07.07,0,0,0,.08-.08v-.27s0-.07-.08-.08"/><path class="cls-18" d="M48.56,19.27h-.4a.06.06,0,0,1-.06-.05V19a.07.07,0,0,1,.06-.07h.4a.07.07,0,0,1,.06.07v.19a.07.07,0,0,1,0,.07h0"/><path class="cls-15" d="M48.59,22.37h-.3a.09.09,0,0,1-.08-.08h0V22a.11.11,0,0,1,.08-.08v-.71h.3v.71s.08,0,.08.08v.28s0,.07-.08.08"/><path class="cls-18" d="M48.56,21h-.4a.06.06,0,0,0-.06.05v.21a.06.06,0,0,0,.06.06h.4a.06.06,0,0,0,.06-.06V21s0-.07,0-.07h0"/><path class="cls-15" d="M49.36,17.86h-.29a.09.09,0,0,0-.09.08v.27c0,.05,0,.08.08.08V19h.31v-.71s.07,0,.08-.08v-.27a.1.1,0,0,0-.09-.08"/><path class="cls-18" d="M49.33,19.27h-.4a.07.07,0,0,1-.07-.07V19a.08.08,0,0,1,.07-.07h.4a.09.09,0,0,1,.06.07v.19a.07.07,0,0,1,0,.07h0"/><path class="cls-15" d="M49.36,22.37h-.29a.09.09,0,0,1-.09-.08V22a.11.11,0,0,1,.08-.08v-.71h.31v.71a.11.11,0,0,1,.08.08v.28a.1.1,0,0,1-.09.08"/><path class="cls-18" d="M49.33,21h-.4a.07.07,0,0,0-.07.07v.19a.07.07,0,0,0,.07.06h.4a.06.06,0,0,0,.06-.06V21s0-.07,0-.07h0"/><path class="cls-15" d="M50.11,17.86h-.32a.09.09,0,0,0-.08.08v.27a.08.08,0,0,0,.08.08V19h.3v-.71s.07,0,.08-.08v-.27a.09.09,0,0,0-.08-.08h0"/><path class="cls-18" d="M50.08,19.27h-.4a.07.07,0,0,1-.06-.07V19a.07.07,0,0,1,.06-.07h.4a.07.07,0,0,1,.06.07v.19a.07.07,0,0,1,0,.07h0"/><path class="cls-15" d="M50.11,22.37h-.32a.09.09,0,0,1-.08-.08V22s0-.07.08-.08v-.71h.31v.71a.08.08,0,0,1,.07.08v.28a.08.08,0,0,1-.08.08h0"/><path class="cls-18" d="M50.08,21h-.4a.07.07,0,0,0-.06.07v.19a.06.06,0,0,0,.06.06h.4a.06.06,0,0,0,.06-.06V21s0-.07,0-.07h0"/><path class="cls-15" d="M50.85,17.86h-.3a.09.09,0,0,0-.08.08v.27a.08.08,0,0,0,.08.08V19h.3v-.71s.07,0,.08-.08v-.27a.09.09,0,0,0-.08-.08h0"/><path class="cls-18" d="M50.82,19.27h-.37a.07.07,0,0,1-.07-.07V19a.08.08,0,0,1,.07-.07h.4a.09.09,0,0,1,.06.07v.19a.07.07,0,0,1,0,.07h0"/><path class="cls-15" d="M50.85,22.37h-.3a.09.09,0,0,1-.1-.07h0V22s0-.07.08-.08v-.71h.31v.71a.11.11,0,0,1,.07.08v.28a.09.09,0,0,1-.08.08h0"/><path class="cls-18" d="M50.82,21h-.37a.07.07,0,0,0-.07.07v.19a.07.07,0,0,0,.07.06h.4a.06.06,0,0,0,.06-.06V21s0-.07,0-.07h0"/><path class="cls-15" d="M51.58,17.86h-.3a.09.09,0,0,0-.08.08v.27a.07.07,0,0,0,.07.08V19h.31v-.71a.08.08,0,0,0,.07-.08v-.27a.08.08,0,0,0-.07-.08h0"/><path class="cls-18" d="M51.54,19.27h-.4a.07.07,0,0,1-.06-.07V19a.07.07,0,0,1,.06-.07h.4a.07.07,0,0,1,.06.07v.19s0,.06-.05.07h0"/><path class="cls-15" d="M51.58,22.37h-.3a.09.09,0,0,1-.08-.08V22a.08.08,0,0,1,.07-.08v-.71h.31v.71a.08.08,0,0,1,.07.08v.28a.08.08,0,0,1-.07.08h0"/><path class="cls-18" d="M51.54,21h-.4a.07.07,0,0,0-.06.07v.19a.06.06,0,0,0,.06.06h.4a.06.06,0,0,0,.06-.06V21a.05.05,0,0,0-.05-.07h0"/><path class="cls-15" d="M52.31,17.86H52a.08.08,0,0,0-.07.08h0v.27a.08.08,0,0,0,.07.08V19h.31v-.71a.07.07,0,0,0,.09-.07h0v-.27a.09.09,0,0,0-.08-.08"/><path class="cls-18" d="M52.28,19.27h-.4a.06.06,0,0,1-.06-.06h0V19a.07.07,0,0,1,.06-.07h.4a.07.07,0,0,1,.06.07v.19a.07.07,0,0,1-.06.07"/><path class="cls-15" d="M52.31,22.37H52a.08.08,0,0,1-.07-.08h0V22a.08.08,0,0,1,.07-.08v-.71h.31v.71a.09.09,0,0,1,.09.08h0v.28a.09.09,0,0,1-.08.08"/><path class="cls-18" d="M52.28,21h-.4a.06.06,0,0,0-.06.06h0v.19a.06.06,0,0,0,.06.06h.4a.06.06,0,0,0,.06-.06V21a.07.07,0,0,0-.06-.07"/><path class="cls-15" d="M53.07,17.86h-.3s-.08,0-.08.08v.27a.08.08,0,0,0,.08.08V19h.3v-.71a.08.08,0,0,0,.07-.08v-.27a.08.08,0,0,0-.07-.08"/><path class="cls-18" d="M53,19.27h-.4a.07.07,0,0,1-.06-.07V19a.07.07,0,0,1,.06-.07H53a.07.07,0,0,1,.06.07v.19s0,.06,0,.07h0"/><path class="cls-15" d="M53.07,22.37h-.3s-.08,0-.08-.08V22s0-.07.08-.08v-.71h.3v.71a.08.08,0,0,1,.07.08v.28a.08.08,0,0,1-.08.08h0"/><path class="cls-18" d="M53,21h-.4a.07.07,0,0,0-.06.07v.19a.06.06,0,0,0,.06.06H53a.06.06,0,0,0,.06-.06V21A.05.05,0,0,0,53,21h0"/><path class="cls-15" d="M53.8,17.86h-.3a.09.09,0,0,0-.08.08h0v.27s0,.08.08.08V19h.3v-.71a.07.07,0,0,0,.08-.08v-.27s0-.07-.08-.08"/><path class="cls-18" d="M53.76,19.27h-.39a.06.06,0,0,1-.06-.05s0,0,0,0V19s0-.07.06-.07h.39s.07,0,.07.07v.19a.07.07,0,0,1-.07.07"/><path class="cls-15" d="M53.8,22.37h-.3a.09.09,0,0,1-.08-.08h0V22a.11.11,0,0,1,.08-.08v-.71h.3v.71c.05,0,.08,0,.08.08v.28s0,.07-.08.08"/><path class="cls-18" d="M53.76,21h-.39a.06.06,0,0,0-.06.05s0,0,0,0v.19a.05.05,0,0,0,.06.06h.39a.07.07,0,0,0,.07-.06V21a.07.07,0,0,0-.07-.07"/><path class="cls-15" d="M54.54,17.86h-.3c-.05,0-.08,0-.08.08v.27a.07.07,0,0,0,.08.08V19h.3v-.71s.07,0,.08-.08v-.27a.09.09,0,0,0-.08-.08h0"/><path class="cls-18" d="M54.5,19.27h-.4a.06.06,0,0,1-.06-.05V19a.07.07,0,0,1,.06-.07h.4a.07.07,0,0,1,.06.07v.19s0,.06-.05.07h0"/><path class="cls-15" d="M54.54,22.37h-.3c-.05,0-.08,0-.08-.08V22s0-.07.08-.08v-.71h.3v.71a.11.11,0,0,1,.08.08v.28a.09.09,0,0,1-.08.08h0"/><path class="cls-18" d="M54.5,21h-.4A.06.06,0,0,0,54,21v.21a.06.06,0,0,0,.06.06h.4a.06.06,0,0,0,.06-.06V21a.05.05,0,0,0-.05-.07h0"/><path class="cls-15" d="M55.3,17.86H55a.09.09,0,0,0-.08.08v.27c0,.05,0,.08.08.08V19h.31v-.71a.08.08,0,0,0,.07-.08v-.27a.09.09,0,0,0-.08-.08h0"/><path class="cls-18" d="M55.26,19.27h-.4a.07.07,0,0,1-.06-.07V19a.07.07,0,0,1,.06-.07h.4a.07.07,0,0,1,.06.07v.19s0,.06,0,.07h0"/><path class="cls-15" d="M55.3,22.37H55a.09.09,0,0,1-.08-.08V22a.11.11,0,0,1,.08-.08v-.71h.31v.71a.08.08,0,0,1,.07.08v.28a.09.09,0,0,1-.08.08h0"/><path class="cls-18" d="M55.26,21h-.4a.07.07,0,0,0-.06.07v.19a.06.06,0,0,0,.06.06h.4a.06.06,0,0,0,.06-.06V21a.05.05,0,0,0,0-.07h0"/><path class="cls-15" d="M56,17.86h-.3a.11.11,0,0,0-.08.08v.27c0,.05,0,.08.08.08V19H56v-.71a.07.07,0,0,0,.08-.08v-.27a.08.08,0,0,0-.08-.08h0"/><path class="cls-18" d="M56,19.27h-.39a.06.06,0,0,1-.06-.05V19a.07.07,0,0,1,.06-.07H56a.07.07,0,0,1,.07.07v.19a.07.07,0,0,1,0,.07h0"/><path class="cls-15" d="M56,22.37h-.3a.1.1,0,0,1-.05-.08V22s0-.07.08-.08v-.71h.3v.71s.08,0,.08.08v.28a.09.09,0,0,1-.08.08h0"/><path class="cls-18" d="M56,21h-.39a.06.06,0,0,0-.06.05v.21a.06.06,0,0,0,.06.06H56s.07,0,.07-.06V21s0-.07,0-.07h0"/><path class="cls-15" d="M56.85,17.86h-.3a.08.08,0,0,0-.07.08h0v.27a.08.08,0,0,0,.07.08V19h.31v-.71a.07.07,0,0,0,.07-.08v-.27a.09.09,0,0,0-.08-.08"/><path class="cls-18" d="M56.82,19.27h-.4a.06.06,0,0,1-.06-.06h0V19a.07.07,0,0,1,.06-.07h.4a.09.09,0,0,1,.06.07v.19a.07.07,0,0,1-.06.07h0"/><path class="cls-15" d="M56.85,22.37h-.3a.08.08,0,0,1-.07-.08h0V22a.08.08,0,0,1,.07-.08v-.71h.31v.71a.08.08,0,0,1,.07.08v.28a.09.09,0,0,1-.08.08"/><path class="cls-18" d="M56.82,21h-.4a.06.06,0,0,0-.06.06h0v.19a.06.06,0,0,0,.06.06h.4a.06.06,0,0,0,.06-.06V21s0-.07-.06-.07h0"/><path class="cls-15" d="M57.58,17.86h-.3a.09.09,0,0,0-.08.08h0v.27s0,.08.08.08V19h.3v-.71s.07,0,.08-.08v-.27a.11.11,0,0,0-.09-.08"/><path class="cls-18" d="M57.54,19.27h-.4a.06.06,0,0,1,0-.06h0V19a.08.08,0,0,1,0-.07h.4a.07.07,0,0,1,.06.07v.19s0,.06-.05.07h0"/><path class="cls-15" d="M57.58,22.37h-.3a.09.09,0,0,1-.08-.08h0V22a.11.11,0,0,1,.08-.08v-.71h.3v.71a.11.11,0,0,1,.08.08v.28a.11.11,0,0,1-.09.08"/><path class="cls-18" d="M57.54,21h-.4a.06.06,0,0,0,0,.06h0v.19a.06.06,0,0,0,0,.06h.4a.06.06,0,0,0,.06-.06V21a.05.05,0,0,0-.05-.07h0"/><path class="cls-15" d="M58.31,17.86H58a.09.09,0,0,0-.08.08h0v.27a.08.08,0,0,0,.07.08V19h.31v-.71a.08.08,0,0,0,.08-.08v-.27s0-.07-.08-.08"/><path class="cls-18" d="M58.31,19.27h-.39a.08.08,0,0,1-.07-.05V19a.07.07,0,0,1,.07-.07h.39a.08.08,0,0,1,.07.07v.19a.07.07,0,0,1-.07.07"/><path class="cls-15" d="M58.31,22.37H58a.09.09,0,0,1-.08-.08h0V22a.08.08,0,0,1,.07-.08v-.71h.31v.71s.08,0,.08.08v.28s0,.07-.08.08"/><path class="cls-18" d="M58.31,21h-.39a.08.08,0,0,0-.07.05v.21s0,.06.07.06h.39a.07.07,0,0,0,.07-.06V21a.07.07,0,0,0-.07-.07"/><path class="cls-15" d="M59.06,17.86h-.3a.09.09,0,0,0-.08.08v.27a.08.08,0,0,0,.08.08V19h.3v-.71s.07,0,.08-.08v-.27a.09.09,0,0,0-.08-.08h0"/><path class="cls-18" d="M59,19.27h-.39a.07.07,0,0,1-.07-.07V19s0-.06.07-.07H59a.07.07,0,0,1,.06.07v.19s0,.06,0,.07h0"/><path class="cls-15" d="M59.06,22.37h-.3a.09.09,0,0,1-.08-.08V22s0-.07.08-.08v-.71h.3v.71a.11.11,0,0,1,.08.08v.28a.09.09,0,0,1-.08.08h0"/><path class="cls-18" d="M59,21h-.39a.07.07,0,0,0-.07.07v.19a.07.07,0,0,0,.07.06H59a.06.06,0,0,0,.06-.06V21A.05.05,0,0,0,59,21h0"/><path class="cls-15" d="M59.8,17.86h-.3a.11.11,0,0,0-.08.08v.27c0,.05,0,.08.08.08V19h.3v-.71a.07.07,0,0,0,.08-.08v-.27a.08.08,0,0,0-.08-.08h0"/><path class="cls-18" d="M59.77,19.27h-.4a.06.06,0,0,1-.06-.05V19a.07.07,0,0,1,.06-.07h.4a.07.07,0,0,1,.06.07v.19a.07.07,0,0,1,0,.07h0"/><path class="cls-15" d="M59.8,22.37h-.3a.11.11,0,0,1-.08-.08V22a.11.11,0,0,1,.08-.08v-.71h.3v.71c.05,0,.08,0,.08.08v.28a.08.08,0,0,1-.08.08h0"/><path class="cls-18" d="M59.77,21h-.4a.06.06,0,0,0-.06.05v.21a.06.06,0,0,0,.06.06h.4a.06.06,0,0,0,.06-.06V21s0-.07,0-.07h0"/><path class="cls-15" d="M60.54,17.86h-.26a.09.09,0,0,0-.09.08v.27a.08.08,0,0,0,.08.08V19h.31v-.71a.08.08,0,0,0,.07-.08v-.27a.09.09,0,0,0-.08-.08h0"/><path class="cls-18" d="M60.51,19.27h-.4A.07.07,0,0,1,60,19.2V19s0-.06.07-.07h.4a.08.08,0,0,1,.05.07v.19s0,.06-.05.07h0"/><path class="cls-15" d="M60.54,22.37h-.26a.09.09,0,0,1-.09-.08V22s0-.07.08-.08v-.71h.31v.71a.08.08,0,0,1,.07.08v.28a.09.09,0,0,1-.08.08h0"/><path class="cls-18" d="M60.51,21h-.4A.07.07,0,0,0,60,21v.19a.07.07,0,0,0,.07.06h.4a.06.06,0,0,0,.05-.06V21a.05.05,0,0,0-.05-.07h0"/><path class="cls-15" d="M61.3,17.86H61a.09.09,0,0,0-.08.08h0v.27s0,.08.08.08V19h.3v-.71a.07.07,0,0,0,.08-.08v-.27a.09.09,0,0,0-.08-.08"/><path class="cls-18" d="M61.27,19.27h-.4a.06.06,0,0,1-.06-.06h0V19a.07.07,0,0,1,.06-.07h.4a.08.08,0,0,1,0,.07v.19s0,.06,0,.07h0"/><path class="cls-15" d="M61.3,22.37H61a.08.08,0,0,1-.07-.08V22a.08.08,0,0,1,.07-.08v-.71h.31v.71a.11.11,0,0,1,.08.08v.28a.09.09,0,0,1-.09.08"/><path class="cls-18" d="M61.27,21h-.4a.06.06,0,0,0-.06.06h0v.19a.06.06,0,0,0,.06.06h.4a.06.06,0,0,0,0-.06V21a.05.05,0,0,0,0-.07h0"/><path class="cls-15" d="M62.05,17.86h-.31a.08.08,0,0,0-.07.08v.27a.07.07,0,0,0,.07.08V19h.31v-.71a.08.08,0,0,0,.07-.08v-.27a.08.08,0,0,0-.07-.08h0"/><path class="cls-18" d="M62,19.27h-.42a.07.07,0,0,1-.07-.07V19s0-.06.07-.07H62a.07.07,0,0,1,.07.07v.19a.07.07,0,0,1-.06.07h0"/><path class="cls-15" d="M62.05,22.37h-.31a.08.08,0,0,1-.07-.08V22a.08.08,0,0,1,.07-.08v-.71h.31v.71a.08.08,0,0,1,.07.08v.28a.08.08,0,0,1-.07.08h0"/><path class="cls-18" d="M62,21h-.42a.07.07,0,0,0-.07.07v.19a.07.07,0,0,0,.07.06H62s.07,0,.07-.06V21S62,21,62,21h0"/><path class="cls-18" d="M45.86,19.11c0-.09.13-.17.28-.17s.27.08.27.17-.12.16-.27.16-.28-.07-.28-.16"/><path class="cls-18" d="M45.86,21.09c0-.08.13-.16.28-.16s.27.08.27.16-.12.17-.27.17-.28-.07-.28-.17"/><path class="cls-18" d="M63.13,19.11c0-.09.12-.17.27-.17s.28.08.28.17-.13.16-.28.16-.27-.07-.27-.16"/><path class="cls-18" d="M63.13,21.09c0-.08.12-.16.27-.16s.28.08.28.16-.13.17-.28.17-.27-.07-.27-.17"/><path class="cls-19" d="M63.52,18.17h-.15v-.51h-.2v-.13a.19.19,0,0,0,.23-.15h.12Z"/><path class="cls-19" d="M63.13,22.36a.27.27,0,0,1,.28-.31.25.25,0,0,1,.27.24c0,.24-.25.26-.37.42h.37v.14h-.57c0-.18.11-.26.25-.35s.16-.1.16-.19a.12.12,0,0,0-.12-.13c-.09,0-.12.1-.12.18Z"/><path class="cls-19" d="M46.14,17.7c.06,0,.16,0,.16-.1a.1.1,0,0,0-.11-.11c-.08,0-.12.06-.12.14h-.15a.26.26,0,0,1,.27-.27.24.24,0,0,1,.26.22.14.14,0,0,1-.11.16h0a.17.17,0,0,1,.14.18.29.29,0,0,1-.58,0h.15c0,.08.05.15.14.15a.12.12,0,0,0,.13-.12c0-.12-.11-.12-.18-.12Z"/><path class="cls-19" d="M46.69,18a.11.11,0,0,0,.11.1c.11,0,.14-.15.15-.24h0a.2.2,0,0,1-.17.09.23.23,0,0,1-.18-.08.3.3,0,0,1-.06-.18.27.27,0,0,1,.27-.29c.24,0,.3.21.3.41s-.08.41-.31.41a.24.24,0,0,1-.25-.22Zm.24-.32c0-.07,0-.15-.12-.15s-.12.08-.12.15,0,.15.12.15S46.93,17.72,46.93,17.64Z"/><path class="cls-19" d="M46.23,22.67H45.9v-.15l.34-.46h.14v.48h.1v.13h-.1v.18h-.15Zm0-.41h0l-.21.28h.21Z"/><path class="cls-19" d="M46.81,22.05c.16,0,.29.09.29.4s-.13.42-.29.42-.28-.1-.28-.42S46.66,22.05,46.81,22.05Zm0,.69c.13,0,.13-.2.13-.29s0-.27-.13-.27-.12.19-.12.27S46.69,22.74,46.81,22.74Z"/></g></g></svg>