<?xml version="1.0" encoding="utf-8"?>
<!-- Generator: Adobe Illustrator 26.0.2, SVG Export Plug-In . SVG Version: 6.00 Build 0)  -->
<svg version="1.1" id="Layer_1" xmlns="http://www.w3.org/2000/svg" xmlns:xlink="http://www.w3.org/1999/xlink" x="0px" y="0px"
	 viewBox="0 0 779.8 475.7" style="enable-background:new 0 0 779.8 475.7;" xml:space="preserve">
<style type="text/css">
	.st0{fill:#C0BFBF;}
	.st1{opacity:0.3;}
	.st2{fill:#E0AC52;}
	.st3{fill:#EBF4FB;}
	.st4{fill:#333E49;}
	.st5{fill:#222630;}
	.st6{fill:#BE8E3E;}
	.st7{fill:#D3D3D3;}
	.st8{fill:#FFFFFF;}
	.st9{fill:#EB2627;}
	.st10{fill:#7F8080;}
	.st11{fill:#333333;}
	.st12{fill:#B3B3B3;}
	.st13{fill:#363896;}
	.st14{fill:#FED401;}
</style>
<g>
	<path class="st0" d="M0,77.9v320h470.1v-320C470.1,77.9,0,77.9,0,77.9z M42,362c-7.8,0-14.1-6.3-14.1-14.1
		c0-7.8,6.3-14.1,14.1-14.1s14.1,6.3,14.1,14.1l0,0C56.1,355.7,49.8,362,42,362C42.1,362,42.1,362,42,362z M42,139
		c-7.8,0-14.1-6.3-14.1-14.1s6.3-14.1,14.1-14.1s14.1,6.3,14.1,14.1l0,0C56.1,132.7,49.8,138.9,42,139L42,139z M180.1,362
		c-7.8,0-14.1-6.3-14.1-14.1c0-7.8,6.3-14.1,14.1-14.1s14.1,6.3,14.1,14.1l0,0C194.1,355.7,187.8,362,180.1,362L180.1,362z
		 M180.1,139c-7.8,0-14.1-6.3-14.1-14.1s6.3-14.1,14.1-14.1s14.1,6.3,14.1,14.1l0,0C194.1,132.7,187.8,138.9,180.1,139L180.1,139z
		 M302,110.8c-5.8,0-10.6-4.7-10.6-10.5s4.7-10.6,10.5-10.6s10.6,4.7,10.6,10.5l0,0C312.5,106,307.8,110.8,302,110.8z M377.9,383.1
		c-5.8,0-10.6-4.7-10.6-10.5S372,362,377.8,362s10.6,4.7,10.6,10.5l0,0C388.5,378.3,383.7,383.1,377.9,383.1L377.9,383.1z
		 M443.6,162.1c-5.8,0-10.6-4.7-10.6-10.5s4.7-10.6,10.5-10.6s10.6,4.7,10.6,10.5l0,0C454.2,157.3,449.5,162,443.6,162.1
		L443.6,162.1z"/>
</g>
<g class="st1">
	<g>
		<path class="st2" d="M42,331.9c-8.8,0-16,7.2-16,16s7.2,16,16,16s16-7.2,16-16S50.9,331.9,42,331.9z M42,362
			c-7.8,0-14.1-6.3-14.1-14.1c0-7.8,6.3-14.1,14.1-14.1s14.1,6.3,14.1,14.1l0,0C56.2,355.7,49.9,362,42,362
			C42.1,362,42.1,362,42,362L42,362z"/>
	</g>
</g>
<g class="st1">
	<g>
		<path class="st2" d="M42,108.8c-8.8,0-16,7.2-16,16s7.2,16,16,16s16-7.2,16-16S50.9,108.8,42,108.8z M42,138.9
			c-7.8,0-14.1-6.3-14.1-14.1s6.3-14.1,14.1-14.1s14.1,6.3,14.1,14.1l0,0C56.1,132.6,49.8,138.9,42,138.9
			C42.1,138.9,42.1,138.9,42,138.9z"/>
	</g>
</g>
<g class="st1">
	<g>
		<path class="st2" d="M179.8,331.9c-8.8,0-16,7.2-16,16s7.2,16,16,16s16-7.2,16-16S188.7,331.9,179.8,331.9z M180.1,362
			c-7.8,0-14.1-6.3-14.1-14.1c0-7.8,6.3-14.1,14.1-14.1s14.1,6.3,14.1,14.1l0,0C194.2,355.7,187.9,362,180.1,362L180.1,362
			L180.1,362z"/>
	</g>
</g>
<g class="st1">
	<g>
		<path class="st2" d="M180.1,108.8c-8.8,0-16,7.2-16,16s7.2,16,16,16s16-7.2,16-16S188.9,108.8,180.1,108.8z M180.1,138.9
			c-7.8,0-14.1-6.3-14.1-14.1s6.3-14.1,14.1-14.1s14.1,6.3,14.1,14.1l0,0C194.2,132.6,187.9,138.9,180.1,138.9L180.1,138.9z"/>
	</g>
</g>
<g class="st1">
	<g>
		<path class="st2" d="M302,81.9c-10.1,0-18.3,8.2-18.3,18.3s8.2,18.3,18.3,18.3c10.1,0,18.3-8.2,18.3-18.3l0,0
			C320.3,90.1,312.1,81.9,302,81.9L302,81.9z M302,110.8c-5.8,0-10.6-4.7-10.6-10.5s4.7-10.6,10.5-10.6s10.6,4.7,10.6,10.5l0,0
			C312.5,106,307.8,110.8,302,110.8z"/>
	</g>
</g>
<g class="st1">
	<g>
		<path class="st2" d="M443.7,134.8c-9.2,0-16.7,7.5-16.7,16.7s7.5,16.7,16.7,16.7s16.7-7.5,16.7-16.7S452.9,134.8,443.7,134.8
			L443.7,134.8z M443.7,162c-5.8,0-10.6-4.7-10.6-10.5s4.7-10.6,10.5-10.6s10.6,4.7,10.6,10.5l0,0C454.2,157.3,449.5,162,443.7,162
			L443.7,162z"/>
	</g>
</g>
<g class="st1">
	<g>
		<path class="st2" d="M377.9,354.5c-9.9,0-18,8.1-18,18s8.1,18,18,18s18-8.1,18-18l0,0C395.9,362.6,387.9,354.5,377.9,354.5z
			 M377.9,383.1c-5.8,0-10.6-4.7-10.6-10.5S372,362,377.8,362s10.6,4.7,10.6,10.5l0,0C388.5,378.4,383.8,383.1,377.9,383.1z"/>
	</g>
</g>
<g>
	<path class="st3" d="M339.5,115.3h-1.1c-1,0-1.8-0.8-1.8-1.8l0,0V94.6c0-1,0.8-1.8,1.7-1.8l0,0h1.1c1,0,1.8,0.8,1.8,1.8v18.9
		C341.2,114.5,340.5,115.3,339.5,115.3L339.5,115.3"/>
</g>
<g>
	<path class="st3" d="M456.7,115.3h-1.1c-1,0-1.8-0.8-1.8-1.7l0,0l0,0v-19c0-1,0.8-1.8,1.8-1.8h1.1c1,0,1.8,0.8,1.8,1.8l0,0v18.9
		C458.5,114.5,457.7,115.3,456.7,115.3L456.7,115.3L456.7,115.3"/>
</g>
<g>
	<path class="st4" d="M459.5,98.9v-1.8c0-1-0.8-1.8-1.8-1.8H454c-0.7,0-1.3,0.5-1.6,1.1h-110c-0.3-0.7-0.9-1.1-1.7-1.1H337
		c-1,0-1.8,0.8-1.8,1.8v1.8c0,0.8,0.5,1.5,1.3,1.7v7.1c-0.7,0.2-1.3,0.9-1.3,1.7v1.8c0,1,0.8,1.8,1.8,1.8h3.7c0.8,0,1.4-0.5,1.7-1.2
		h110c0.3,0.7,0.9,1.2,1.7,1.2h3.7c1,0,1.8-0.8,1.8-1.8v-1.8c0-0.7-0.4-1.4-1.1-1.6v-7.2C459.1,100.3,459.6,99.6,459.5,98.9z"/>
</g>
<g>
	<path class="st5" d="M449.7,110.2H344.9c-0.8,0-1.5-0.4-1.5-0.9v-10c0-0.5,0.7-0.9,1.5-0.9h104.8c0.8,0,1.5,0.4,1.5,0.9v9.9
		C451.2,109.7,450.5,110.1,449.7,110.2"/>
</g>
<g>
	<path class="st3" d="M350.1,89.1h-2c-0.3,0-0.5,0.3-0.5,0.5v1.8c0,0.2,0.1,0.5,0.4,0.5l0,0v4.8h2.1V92c0.3,0,0.5-0.2,0.5-0.5v-1.8
		C350.6,89.4,350.4,89.1,350.1,89.1L350.1,89.1L350.1,89.1"/>
</g>
<g>
	<path class="st6" d="M349.9,98.6h-2.7c-0.2,0-0.4-0.2-0.4-0.4v-1.3c0-0.2,0.1-0.4,0.4-0.4l0,0h2.7c0.2,0,0.4,0.2,0.4,0.4l0,0v1.3
		C350.3,98.4,350.2,98.6,349.9,98.6L349.9,98.6"/>
</g>
<g>
	<path class="st3" d="M350.1,119.5h-2c-0.3,0-0.5-0.3-0.5-0.5v-1.8c0-0.3,0.2-0.5,0.5-0.5l0,0l0,0v-4.8h2.1v4.8
		c0.3,0,0.5,0.2,0.5,0.5v1.8C350.7,119.2,350.5,119.4,350.1,119.5L350.1,119.5L350.1,119.5"/>
</g>
<g>
	<path class="st6" d="M349.9,110h-2.7c-0.2,0-0.4,0.2-0.4,0.4l0,0v1.3c0,0.2,0.2,0.4,0.4,0.4h2.7c0.2,0,0.4-0.2,0.4-0.4l0,0v-1.3
		C350.3,110.2,350.2,110,349.9,110L349.9,110"/>
</g>
<g>
	<path class="st3" d="M355.1,89.1h-2c-0.3,0-0.6,0.2-0.6,0.5v1.8c0,0.3,0.2,0.5,0.5,0.5l0,0v4.8h2.1V92c0.3,0,0.5-0.2,0.5-0.5l0,0
		v-1.8C355.7,89.4,355.4,89.1,355.1,89.1"/>
</g>
<g>
	<path class="st6" d="M354.9,98.6h-2.7c-0.2,0-0.4-0.2-0.4-0.4l0,0v-1.4c0-0.2,0.2-0.4,0.4-0.4l0,0h2.7c0.2,0,0.4,0.2,0.4,0.4l0,0
		v1.3C355.3,98.4,355.1,98.6,354.9,98.6L354.9,98.6L354.9,98.6"/>
</g>
<g>
	<path class="st3" d="M355.1,119.5h-2c-0.3,0-0.6-0.2-0.6-0.5v-1.8c0-0.3,0.2-0.5,0.5-0.5l0,0v-4.8h2.1v4.8c0.3,0,0.5,0.2,0.5,0.5
		l0,0v1.8C355.7,119.2,355.4,119.4,355.1,119.5"/>
</g>
<g>
	<path class="st6" d="M354.9,110h-2.7c-0.2,0-0.4,0.1-0.4,0.4v1.4c0,0.2,0.2,0.4,0.4,0.4l0,0h2.7c0.2,0,0.4-0.2,0.4-0.4l0,0v-1.3
		C355.3,110.2,355.1,110,354.9,110L354.9,110"/>
</g>
<g>
	<path class="st3" d="M360.4,89.1h-2c-0.3,0-0.5,0.3-0.5,0.5v1.8c0,0.3,0.2,0.5,0.5,0.5l0,0l0,0v4.8h2.1V92c0.3,0,0.5-0.2,0.5-0.5
		v-1.8C360.9,89.4,360.7,89.1,360.4,89.1L360.4,89.1L360.4,89.1"/>
</g>
<g>
	<path class="st6" d="M360.1,98.6h-2.7c-0.2,0-0.4-0.2-0.4-0.4v-1.3c0-0.2,0.1-0.4,0.4-0.4l0,0h2.7c0.2,0,0.4,0.2,0.4,0.4l0,0v1.3
		C360.6,98.4,360.4,98.6,360.1,98.6L360.1,98.6"/>
</g>
<g>
	<path class="st3" d="M360.4,119.5h-2c-0.3,0-0.5-0.3-0.5-0.5v-1.8c0-0.3,0.2-0.5,0.5-0.5l0,0l0,0v-4.8h2.1v4.8
		c0.3,0,0.5,0.2,0.5,0.5v1.8C360.9,119.2,360.7,119.4,360.4,119.5L360.4,119.5L360.4,119.5"/>
</g>
<g>
	<path class="st6" d="M360.1,110h-2.7c-0.2,0-0.4,0.2-0.4,0.4l0,0v1.3c0,0.2,0.2,0.4,0.4,0.4h2.7c0.2,0,0.4-0.2,0.4-0.4l0,0v-1.3
		C360.6,110.2,360.4,110,360.1,110L360.1,110"/>
</g>
<g>
	<path class="st3" d="M365.5,89.1h-2c-0.3,0-0.5,0.2-0.5,0.5v1.8c0,0.3,0.2,0.5,0.5,0.5l0,0l0,0v4.8h2.1V92c0.3,0,0.5-0.2,0.5-0.5
		l0,0v-1.8C366,89.4,365.8,89.1,365.5,89.1L365.5,89.1L365.5,89.1"/>
</g>
<g>
	<path class="st6" d="M365.3,98.6h-2.7c-0.2,0-0.4-0.2-0.4-0.4v-1.3c0-0.2,0.2-0.4,0.4-0.4l0,0h2.7c0.2,0,0.4,0.2,0.4,0.4l0,0v1.3
		C365.8,98.4,365.6,98.6,365.3,98.6L365.3,98.6"/>
</g>
<g>
	<path class="st3" d="M365.5,119.5h-2c-0.3,0-0.5-0.2-0.5-0.5v-1.8c-0.1-0.3,0.1-0.5,0.4-0.6l0,0h0.1v-4.8h2.1v4.8
		c0.3,0,0.5,0.2,0.5,0.5l0,0v1.8C366,119.2,365.8,119.4,365.5,119.5L365.5,119.5L365.5,119.5"/>
</g>
<g>
	<path class="st6" d="M365.3,110h-2.7c-0.2,0-0.4,0.2-0.4,0.4v1.3c0,0.2,0.2,0.4,0.4,0.4l0,0h2.7c0.2,0,0.4-0.2,0.4-0.4l0,0v-1.3
		C365.8,110.2,365.6,110,365.3,110L365.3,110"/>
</g>
<g>
	<path class="st3" d="M370.5,89.1h-2c-0.3,0-0.5,0.2-0.5,0.5v1.8c0,0.3,0.2,0.5,0.5,0.5l0,0l0,0v4.8h2.1V92c0.3,0,0.5-0.2,0.5-0.5
		l0,0v-1.8C371,89.4,370.8,89.2,370.5,89.1"/>
</g>
<g>
	<path class="st6" d="M370.3,98.6h-2.7c-0.2,0-0.4-0.2-0.4-0.4l0,0v-1.4c0-0.2,0.2-0.4,0.4-0.4l0,0h2.7c0.2,0,0.4,0.2,0.4,0.4l0,0
		v1.3C370.7,98.4,370.5,98.6,370.3,98.6"/>
</g>
<g>
	<path class="st3" d="M370.5,119.5h-2c-0.3,0-0.5-0.2-0.5-0.5v-1.8c-0.1-0.3,0.1-0.5,0.4-0.6l0,0h0.1v-4.8h2.1v4.8
		c0.3,0,0.5,0.2,0.5,0.5v1.8C371.1,119.2,370.8,119.4,370.5,119.5"/>
</g>
<g>
	<path class="st6" d="M370.3,110h-2.7c-0.2,0-0.4,0.1-0.4,0.4v1.4c0,0.2,0.2,0.4,0.4,0.4l0,0h2.7c0.2,0,0.4-0.2,0.4-0.4l0,0v-1.3
		C370.7,110.2,370.5,110,370.3,110"/>
</g>
<g>
	<path class="st3" d="M375.5,89.1h-2c-0.3,0-0.5,0.2-0.5,0.5v1.8c0,0.3,0.2,0.5,0.5,0.5l0,0l0,0v4.8h2.1V92c0.3,0,0.5-0.2,0.5-0.5
		l0,0v-1.8C376,89.4,375.8,89.1,375.5,89.1L375.5,89.1L375.5,89.1"/>
</g>
<g>
	<path class="st6" d="M375.2,98.6h-2.7c-0.2,0-0.4-0.2-0.4-0.4l0,0v-1.3c0-0.2,0.1-0.4,0.4-0.4l0,0h2.8c0.2,0,0.4,0.2,0.4,0.4l0,0
		v1.3C375.6,98.4,375.5,98.6,375.2,98.6L375.2,98.6L375.2,98.6"/>
</g>
<g>
	<path class="st3" d="M375.5,119.5h-2c-0.3,0-0.5-0.2-0.5-0.5v-1.8c0-0.3,0.2-0.5,0.5-0.5l0,0l0,0v-4.8h2.1v4.8
		c0.3,0,0.5,0.2,0.5,0.5l0,0v1.8C376,119.2,375.8,119.4,375.5,119.5L375.5,119.5L375.5,119.5"/>
</g>
<g>
	<path class="st6" d="M375.2,110h-2.7c-0.2,0-0.4,0.2-0.4,0.4l0,0v1.3c0,0.2,0.1,0.4,0.4,0.4h2.8c0.2,0,0.4-0.2,0.4-0.4l0,0v-1.3
		C375.7,110.2,375.5,110,375.2,110L375.2,110"/>
</g>
<g>
	<path class="st3" d="M380.5,89.1h-2c-0.3,0-0.5,0.2-0.6,0.5v1.8c0,0.3,0.2,0.5,0.5,0.5v4.8h2.1V92c0.3,0,0.5-0.2,0.6-0.5v-1.8
		C381.1,89.4,380.8,89.1,380.5,89.1"/>
</g>
<g>
	<path class="st6" d="M380.2,98.6h-2.7c-0.2,0-0.4-0.2-0.4-0.4l0,0v-1.3c0-0.2,0.1-0.4,0.4-0.4l0,0h2.7c0.2,0,0.4,0.2,0.4,0.4l0,0
		v1.3C380.7,98.4,380.5,98.6,380.2,98.6L380.2,98.6L380.2,98.6"/>
</g>
<g>
	<path class="st3" d="M380.5,119.5h-2c-0.3,0-0.6-0.2-0.6-0.5l0,0v-1.8c0-0.3,0.2-0.5,0.5-0.5v-4.8h2.1v4.8c0.3,0,0.5,0.2,0.5,0.5
		v1.8C381,119.2,380.8,119.4,380.5,119.5"/>
</g>
<g>
	<path class="st6" d="M380.2,110h-2.7c-0.2,0-0.4,0.2-0.4,0.4l0,0v1.3c0,0.2,0.2,0.4,0.4,0.4l0,0h2.7c0.2,0,0.4-0.2,0.4-0.4l0,0
		v-1.3C380.7,110.2,380.5,110,380.2,110L380.2,110"/>
</g>
<g>
	<path class="st3" d="M385.5,89.1h-2c-0.3,0-0.5,0.2-0.6,0.5v1.8c0,0.3,0.2,0.5,0.5,0.5v4.8h2.1V92c0.3,0,0.5-0.2,0.5-0.5v-1.8
		C386.1,89.4,385.9,89.1,385.5,89.1"/>
</g>
<g>
	<path class="st6" d="M385.3,98.6h-2.7c-0.2,0-0.4-0.2-0.4-0.4l0,0v-1.4c0-0.2,0.2-0.4,0.4-0.4l0,0h2.7c0.2,0,0.4,0.2,0.4,0.4l0,0
		v1.3C385.7,98.4,385.5,98.6,385.3,98.6L385.3,98.6L385.3,98.6"/>
</g>
<g>
	<path class="st3" d="M385.5,119.5h-2c-0.3,0-0.6-0.2-0.6-0.5v-1.8c0-0.3,0.2-0.5,0.5-0.5l0,0v-4.8h2.1v4.8c0.3,0,0.5,0.2,0.5,0.5
		v1.8C386.1,119.2,385.9,119.4,385.5,119.5"/>
</g>
<g>
	<path class="st6" d="M385.3,110h-2.7c-0.2,0-0.4,0.1-0.4,0.4v1.4c0,0.2,0.2,0.4,0.4,0.4l0,0h2.7c0.2,0,0.4-0.2,0.4-0.4l0,0v-1.3
		C385.7,110.2,385.5,110,385.3,110L385.3,110"/>
</g>
<g>
	<path class="st3" d="M390.5,89.1h-2c-0.3,0-0.6,0.2-0.6,0.5v1.8c0,0.3,0.2,0.5,0.5,0.5v4.8h2V92c0.3,0,0.5-0.2,0.5-0.5v-1.8
		C391,89.4,390.8,89.1,390.5,89.1"/>
</g>
<g>
	<path class="st6" d="M390.5,98.6h-2.8c-0.2,0-0.3-0.2-0.3-0.4v-1.3c0-0.2,0.2-0.4,0.4-0.4l0,0h2.7c0.2,0,0.4,0.2,0.4,0.4l0,0v1.3
		C391,98.4,390.8,98.6,390.5,98.6L390.5,98.6"/>
</g>
<g>
	<path class="st3" d="M390.5,119.5h-2c-0.3,0-0.6-0.2-0.6-0.5v-1.8c0-0.3,0.2-0.5,0.5-0.5v-4.8h2v4.8c0.3,0,0.5,0.2,0.5,0.5v1.8
		C391,119.2,390.8,119.4,390.5,119.5"/>
</g>
<g>
	<path class="st6" d="M390.5,110h-2.8c-0.2,0-0.4,0.1-0.4,0.4l0,0v1.4c0,0.2,0.2,0.4,0.4,0.4l0,0h2.8c0.2,0,0.4-0.2,0.4-0.4l0,0
		v-1.3C391,110.2,390.8,110,390.5,110L390.5,110"/>
</g>
<g>
	<path class="st3" d="M395.7,89.1h-2c-0.3,0-0.5,0.2-0.5,0.5v1.8c0,0.3,0.2,0.5,0.5,0.5l0,0l0,0v4.8h2.1V92c0.3,0,0.5-0.2,0.5-0.5
		l0,0v-1.8C396.2,89.4,396,89.2,395.7,89.1"/>
</g>
<g>
	<path class="st6" d="M395.4,98.6h-2.7c-0.2,0-0.4-0.1-0.4-0.4l0,0v-1.4c0-0.2,0.2-0.4,0.4-0.4l0,0h2.7c0.2,0,0.4,0.2,0.4,0.4v1.4
		C395.8,98.4,395.6,98.6,395.4,98.6L395.4,98.6"/>
</g>
<g>
	<path class="st3" d="M395.7,119.5h-2c-0.3,0-0.5-0.2-0.5-0.5v-1.8c-0.1-0.3,0.1-0.5,0.4-0.6l0,0h0.1v-4.8h2.1v4.8
		c0.3,0,0.5,0.2,0.5,0.5l0,0v1.9C396.3,119.2,396,119.4,395.7,119.5"/>
</g>
<g>
	<path class="st6" d="M395.4,110h-2.7c-0.2,0-0.4,0.1-0.4,0.4l0,0v1.4c0,0.2,0.2,0.4,0.4,0.4l0,0h2.7c0.2,0,0.4-0.2,0.4-0.4l0,0
		v-1.3C395.8,110.2,395.6,110,395.4,110L395.4,110L395.4,110"/>
</g>
<g>
	<path class="st3" d="M400.8,89.1h-2c-0.3,0-0.5,0.2-0.6,0.5v1.8c0,0.3,0.2,0.5,0.5,0.5v4.8h2.1V92c0.3,0,0.5-0.2,0.5-0.5v-1.8
		C401.4,89.4,401.2,89.1,400.8,89.1"/>
</g>
<g>
	<path class="st6" d="M400.6,98.6h-2.7c-0.2,0-0.4-0.1-0.4-0.4l0,0v-1.4c0-0.2,0.2-0.4,0.4-0.4l0,0h2.7c0.2,0,0.4,0.2,0.4,0.4l0,0
		v1.3C401,98.4,400.8,98.6,400.6,98.6L400.6,98.6"/>
</g>
<g>
	<path class="st3" d="M400.8,119.5h-2c-0.3,0-0.6-0.2-0.6-0.5v-1.8c0-0.3,0.2-0.5,0.5-0.5l0,0v-4.8h2.1v4.8c0.3,0,0.5,0.2,0.5,0.5
		v1.8C401.4,119.2,401.2,119.4,400.8,119.5"/>
</g>
<g>
	<path class="st6" d="M400.6,110h-2.7c-0.2,0-0.4,0.1-0.4,0.4l0,0v1.4c0,0.2,0.2,0.4,0.4,0.4l0,0h2.7c0.2,0,0.4-0.2,0.4-0.4l0,0
		v-1.3C401,110.2,400.8,110,400.6,110L400.6,110"/>
</g>
<g>
	<path class="st3" d="M405.9,89.1h-2c-0.3,0-0.5,0.2-0.5,0.5v1.8c0,0.3,0.2,0.5,0.5,0.5l0,0l0,0v4.8h2.1V92c0.3,0,0.5-0.2,0.5-0.5
		l0,0v-1.8C406.4,89.4,406.2,89.1,405.9,89.1"/>
</g>
<g>
	<path class="st6" d="M405.7,98.6h-2.5c-0.2,0-0.4-0.2-0.4-0.4l0,0v-1.4c0-0.2,0.2-0.4,0.4-0.4l0,0h2.7c0.2,0,0.4,0.2,0.4,0.4v1.4
		c0,0.2-0.2,0.4-0.4,0.4l0,0"/>
</g>
<g>
	<path class="st3" d="M405.9,119.5h-2c-0.3,0-0.5-0.2-0.5-0.5v-1.8c0-0.3,0.2-0.5,0.5-0.5l0,0l0,0v-4.8h2.1v4.8
		c0.3,0,0.5,0.2,0.5,0.5l0,0v1.9C406.4,119.2,406.2,119.4,405.9,119.5"/>
</g>
<g>
	<path class="st6" d="M405.7,110h-2.5c-0.2,0-0.4,0.1-0.4,0.4v1.4c0,0.2,0.2,0.4,0.4,0.4l0,0h2.7c0.2,0,0.4-0.2,0.4-0.4l0,0v-1.3
		c0-0.2-0.2-0.4-0.4-0.4l0,0l0,0"/>
</g>
<g>
	<path class="st3" d="M411.5,89.1h-2c-0.3,0-0.5,0.2-0.5,0.5l0,0v1.8c0,0.3,0.2,0.5,0.5,0.5l0,0l0,0v4.8h2.1V92
		c0.3,0,0.5-0.2,0.5-0.5l0,0l0,0v-1.8C412,89.4,411.8,89.2,411.5,89.1"/>
</g>
<g>
	<path class="st6" d="M411.2,98.6h-2.7c-0.2,0-0.4-0.1-0.4-0.4l0,0l0,0v-1.4c0-0.2,0.2-0.4,0.5-0.4h2.7c0.2,0,0.4,0.2,0.4,0.4v1.4
		C411.6,98.4,411.4,98.6,411.2,98.6L411.2,98.6"/>
</g>
<g>
	<path class="st3" d="M411.5,119.5h-2c-0.3,0-0.5-0.2-0.5-0.5l0,0v-1.8c-0.1-0.3,0.1-0.5,0.4-0.6l0,0h0.1v-4.8h2.1v4.8
		c0.3,0,0.5,0.2,0.5,0.5l0,0v1.8C412.1,119.2,411.8,119.4,411.5,119.5"/>
</g>
<g>
	<path class="st6" d="M411.2,110h-2.7c-0.2,0-0.4,0.1-0.4,0.4l0,0l0,0v1.3c0,0.2,0.2,0.4,0.5,0.4h2.7c0.2,0,0.4-0.2,0.4-0.4l0,0
		v-1.3C411.6,110.1,411.4,110,411.2,110L411.2,110L411.2,110"/>
</g>
<g>
	<path class="st3" d="M416.4,89.1h-2c-0.3,0-0.5,0.3-0.5,0.5v1.8c0,0.3,0.2,0.5,0.5,0.5l0,0l0,0v4.8h2.1V92c0.3,0,0.5-0.2,0.5-0.5
		v-1.8C416.9,89.4,416.7,89.1,416.4,89.1"/>
</g>
<g>
	<path class="st6" d="M416.1,98.6h-2.7c-0.2,0-0.4-0.2-0.4-0.4v-1.3c0-0.2,0.2-0.4,0.4-0.4l0,0h2.7c0.2,0,0.4,0.2,0.4,0.4l0,0v1.3
		C416.6,98.4,416.4,98.6,416.1,98.6L416.1,98.6"/>
</g>
<g>
	<path class="st3" d="M416.4,119.5h-2c-0.3,0-0.5-0.3-0.5-0.5v-1.8c0-0.3,0.2-0.5,0.5-0.5l0,0l0,0v-4.8h2.1v4.8
		c0.3,0,0.5,0.2,0.5,0.5v1.8C416.9,119.2,416.7,119.4,416.4,119.5"/>
</g>
<g>
	<path class="st6" d="M416.1,110h-2.7c-0.2,0-0.4,0.2-0.4,0.4v1.3c0,0.2,0.2,0.4,0.4,0.4l0,0h2.7c0.2,0,0.4-0.2,0.4-0.4l0,0v-1.3
		C416.6,110.2,416.4,110,416.1,110L416.1,110"/>
</g>
<g>
	<path class="st3" d="M421.4,89.1h-2c-0.3,0-0.5,0.2-0.6,0.5v1.8c0,0.3,0.2,0.5,0.5,0.5l0,0h0.1v4.8h2.1V92c0.3,0.1,0.5-0.1,0.6-0.4
		l0,0v-0.1v-1.8C422,89.4,421.8,89.1,421.4,89.1L421.4,89.1"/>
</g>
<g>
	<path class="st6" d="M421.1,98.6h-2.7c-0.2,0-0.4-0.2-0.4-0.4l0,0v-1.3c0-0.2,0.2-0.4,0.4-0.4h2.7c0.2,0,0.4,0.2,0.4,0.4l0,0v1.3
		C421.6,98.4,421.4,98.6,421.1,98.6C421.2,98.6,421.2,98.6,421.1,98.6L421.1,98.6"/>
</g>
<g>
	<path class="st3" d="M421.4,119.5h-2c-0.3,0-0.6-0.2-0.6-0.5v-1.8c0-0.3,0.2-0.5,0.5-0.5l0,0h0.1v-4.8h2.1v4.8
		c0.3,0,0.5,0.2,0.5,0.5v1.8C422,119.2,421.7,119.4,421.4,119.5"/>
</g>
<g>
	<path class="st6" d="M421.1,110h-2.7c-0.2,0-0.4,0.2-0.4,0.4l0,0l0,0v1.3c0,0.2,0.2,0.4,0.4,0.4h2.7c0.2,0,0.4-0.2,0.4-0.4l0,0
		v-1.3C421.6,110.2,421.4,110,421.1,110C421.2,110,421.2,110,421.1,110L421.1,110"/>
</g>
<g>
	<path class="st3" d="M426.5,89.1h-2c-0.3,0-0.5,0.2-0.6,0.5v1.8c0,0.3,0.2,0.5,0.5,0.5v4.8h2.1V92c0.3,0,0.5-0.2,0.5-0.5v-1.8
		C427,89.4,426.8,89.1,426.5,89.1"/>
</g>
<g>
	<path class="st6" d="M426.2,98.6h-2.7c-0.2,0-0.4-0.2-0.4-0.4l0,0l0,0v-1.3c0-0.2,0.1-0.4,0.4-0.4l0,0h2.8c0.2,0,0.4,0.2,0.4,0.4
		l0,0v1.3C426.7,98.4,426.5,98.6,426.2,98.6L426.2,98.6L426.2,98.6"/>
</g>
<g>
	<path class="st3" d="M426.5,119.5h-2c-0.3,0-0.6-0.2-0.6-0.5l0,0v-1.8c0-0.3,0.2-0.5,0.5-0.5v-4.8h2.1v4.8c0.3,0,0.5,0.2,0.5,0.5
		v1.8C427,119.2,426.8,119.4,426.5,119.5"/>
</g>
<g>
	<path class="st6" d="M426.2,110h-2.7c-0.2,0-0.4,0.2-0.4,0.4l0,0l0,0v1.3c0,0.2,0.1,0.4,0.4,0.4h2.8c0.2,0,0.4-0.2,0.4-0.4l0,0
		v-1.3C426.7,110.2,426.5,110,426.2,110L426.2,110"/>
</g>
<g>
	<path class="st3" d="M431.5,89.1h-2c-0.3,0-0.5,0.2-0.6,0.5v1.8c0,0.3,0.2,0.5,0.5,0.5v4.8h2V92c0.3,0,0.5-0.2,0.5-0.5v-1.8
		C432,89.4,431.8,89.1,431.5,89.1"/>
</g>
<g>
	<path class="st6" d="M431.3,98.6h-2.7c-0.2-0.1-0.3-0.2-0.3-0.4v-1.3c0-0.2,0.2-0.4,0.4-0.4l0,0h2.7c0.2,0,0.4,0.2,0.4,0.4l0,0v1.3
		c0,0.2-0.2,0.4-0.4,0.4l0,0l0,0"/>
</g>
<g>
	<path class="st3" d="M431.5,119.5h-2c-0.3,0-0.6-0.2-0.6-0.5l0,0v-1.8c0-0.3,0.2-0.5,0.5-0.5v-4.8h2v4.8c0.3,0,0.5,0.2,0.5,0.5v1.8
		C432,119.2,431.8,119.4,431.5,119.5"/>
</g>
<g>
	<path class="st6" d="M431.3,110h-2.7c-0.2,0-0.4,0.1-0.4,0.4v1.4c0,0.2,0.2,0.4,0.4,0.4l0,0h2.7c0.2,0,0.4-0.2,0.4-0.4l0,0v-1.3
		C431.7,110.2,431.6,110,431.3,110L431.3,110"/>
</g>
<g>
	<path class="st3" d="M436.6,89.1h-1.9c-0.3,0-0.5,0.2-0.5,0.5v1.8c0,0.3,0.2,0.5,0.5,0.5l0,0l0,0v4.8h2.1V92c0.3,0,0.5-0.2,0.5-0.5
		l0,0v-1.8C437.2,89.4,436.9,89.1,436.6,89.1"/>
</g>
<g>
	<path class="st6" d="M436.3,98.6h-2.7c-0.2,0-0.4-0.2-0.4-0.4l0,0v-1.4c0-0.2,0.2-0.4,0.4-0.4l0,0h2.7c0.2,0,0.4,0.2,0.4,0.4l0,0
		v1.4C436.8,98.4,436.6,98.6,436.3,98.6L436.3,98.6L436.3,98.6"/>
</g>
<g>
	<path class="st3" d="M436.6,119.5h-1.9c-0.3,0-0.5-0.2-0.5-0.5v-1.8c-0.1-0.3,0.1-0.5,0.4-0.6l0,0h0.1v-4.8h2.1v4.8
		c0.3,0,0.5,0.2,0.5,0.5l0,0v1.9c0,0.3-0.3,0.5-0.6,0.5"/>
</g>
<g>
	<path class="st6" d="M436.3,110h-2.7c-0.2,0-0.4,0.1-0.4,0.4v1.4c0,0.2,0.2,0.4,0.4,0.4l0,0h2.7c0.2,0,0.4-0.2,0.4-0.4l0,0v-1.3
		C436.8,110.2,436.6,110,436.3,110L436.3,110L436.3,110"/>
</g>
<g>
	<path class="st3" d="M441.8,89.1h-2c-0.3,0-0.5,0.2-0.6,0.5v1.8c0,0.3,0.2,0.5,0.5,0.5v4.8h2.1V92c0.3,0,0.5-0.2,0.5-0.5v-1.8
		C442.3,89.4,442.1,89.1,441.8,89.1"/>
</g>
<g>
	<path class="st6" d="M441.5,98.6h-2.7c-0.2,0-0.4-0.2-0.4-0.4l0,0v-1.4c0-0.2,0.2-0.4,0.4-0.4l0,0h2.7c0.2,0,0.4,0.2,0.4,0.4l0,0
		v1.3C442,98.4,441.8,98.6,441.5,98.6L441.5,98.6L441.5,98.6"/>
</g>
<g>
	<path class="st3" d="M441.8,119.5h-2c-0.3,0-0.6-0.2-0.6-0.5v-1.8c0-0.3,0.2-0.5,0.5-0.5v-4.8h2.1v4.8c0.3,0,0.5,0.2,0.5,0.5v1.8
		C442.3,119.2,442.1,119.4,441.8,119.5"/>
</g>
<g>
	<path class="st6" d="M441.5,110h-2.7c-0.2,0-0.4,0.1-0.4,0.4v1.4c0,0.2,0.2,0.4,0.4,0.4l0,0h2.7c0.2,0,0.4-0.2,0.4-0.4l0,0v-1.3
		C442,110.2,441.8,110,441.5,110L441.5,110"/>
</g>
<g>
	<path class="st3" d="M446.8,89.1h-2c-0.3,0-0.5,0.2-0.6,0.5v1.8c0,0.3,0.2,0.5,0.5,0.5v4.8h2.1V92c0.3,0,0.5-0.2,0.5-0.5v-1.8
		C447.4,89.4,447.2,89.1,446.8,89.1"/>
</g>
<g>
	<path class="st6" d="M446.6,98.6h-2.7c-0.2,0-0.4-0.1-0.4-0.4l0,0v-1.4c0-0.2,0.2-0.4,0.4-0.4l0,0h2.7c0.2,0,0.4,0.2,0.4,0.4v1.4
		C447,98.4,446.8,98.6,446.6,98.6L446.6,98.6"/>
</g>
<g>
	<path class="st3" d="M446.8,119.5h-2c-0.3,0-0.6-0.2-0.6-0.5v-1.8c0-0.3,0.2-0.5,0.5-0.5l0,0v-4.8h2.1v4.8c0.3,0,0.5,0.2,0.5,0.5
		v1.8C447.4,119.2,447.2,119.4,446.8,119.5"/>
</g>
<g>
	<path class="st6" d="M446.6,110h-2.7c-0.2,0-0.4,0.1-0.4,0.4l0,0v1.4c0,0.2,0.2,0.4,0.4,0.4l0,0h2.7c0.2,0,0.4-0.2,0.4-0.4l0,0
		v-1.3C447,110.2,446.8,110,446.6,110L446.6,110L446.6,110"/>
</g>
<g>
	<path class="st6" d="M336.6,97.6c0-0.6,0.9-1.1,1.9-1.1s1.9,0.5,1.9,1.1s-0.9,1.1-1.9,1.1S336.6,98.1,336.6,97.6"/>
</g>
<g>
	<path class="st6" d="M336.6,110.9c0-0.6,0.9-1.1,1.9-1.1s1.9,0.5,1.9,1.1s-0.9,1.1-1.9,1.1S336.6,111.5,336.6,110.9"/>
</g>
<g>
	<path class="st6" d="M454.2,97.6c0-0.6,0.8-1.1,1.9-1.1s1.9,0.5,1.9,1.1s-0.8,1.1-1.9,1.1S454.2,98.2,454.2,97.6"/>
</g>
<g>
	<path class="st6" d="M454.2,110.9c0-0.6,0.8-1.1,1.9-1.1s1.9,0.5,1.9,1.1s-0.8,1.1-1.9,1.1S454.2,111.5,454.2,110.9"/>
</g>
<g id="Back_Label">
	<g>
		<path class="st7" d="M62.8,216.4L100,293H25.6L62.8,216.4z M62.8,212.3l-40.2,82.6H103L62.8,212.3z"/>
	</g>
	<g>
		
			<rect x="68.2" y="235.3" transform="matrix(0.4927 -0.8702 0.8702 0.4927 -192.7153 192.8814)" class="st7" width="1.8" height="52.9"/>
	</g>
	<g>
		
			<rect x="68.9" y="237.4" transform="matrix(0.4927 -0.8702 0.8702 0.4927 -196.6921 195.9923)" class="st7" width="1.8" height="58.5"/>
	</g>
	<g>
		<path class="st7" d="M52.2,252l-1.6-0.9c1.6-3.1,3.4-6,5.3-8.9c2.5-3.5,15.9-6.5,17.4-6.7l0.4,1.8c-5.5,1.2-14.8,3.8-16.3,6
			C55.6,246.1,53.8,249,52.2,252"/>
	</g>
	<g>
		<path class="st7" d="M75.4,265.7l-0.9-1.6c2.1-1.3,3.4-3.7,3.3-6.2c0-2.9,0.5-5.7,1.4-8.4l1.8,0.6c-0.9,2.5-1.3,5.1-1.3,7.7
			c0.2,3.3-1.5,6.4-4.3,8"/>
	</g>
	<g>
		<path class="st7" d="M55.8,275.5h-0.7c-3.8-0.5-8.6-12.4-8.7-12.5c-0.9-3,0-6.2,2.3-8.4l1.3,1.3c-1.8,1.6-2.6,4.2-1.9,6.5
			c2.1,5.2,5.6,11.2,7.2,11.4c0.8,0,1.3,0,1.5-0.3s0-1-0.8-1.8c-2.1-2.8-3.4-6-3.9-9.5c0.5-1.6,1.2-3.1,2.2-4.4l1.6,0.9
			c-0.8,1.2-1.4,2.4-1.8,3.7c0.6,2.8,1.8,5.5,3.5,7.9c1.6,2,1.2,3.3,0.9,3.8C58,275.1,57,275.6,55.8,275.5"/>
	</g>
	<g>
		<path class="st7" d="M63,279.1c-0.4,0-0.8-0.1-1.1-0.3c-0.7-0.4-1.4-1.2-1.2-3.3c0.5-4.1,5.8-10.6,6-10.9l1.4,1.2
			c-2.5,2.9-4.4,6.3-5.6,9.9c0,0.8,0,1.3,0.2,1.3c1.2-0.2,2.4-0.7,3.3-1.5c2.2-2.4,4.1-5.1,5.9-7.8l1.5,1c-1.8,2.9-3.8,5.7-6,8.3
			c-1.2,1.1-2.7,1.8-4.3,2"/>
	</g>
	<g>
		<path class="st7" d="M62.4,272.5c-2.7-0.5-5.2-1.5-7.5-3l1-1.6c3,1.8,6.2,3.3,6.8,2.7c0.2-0.4,0.2-0.9,0-1.3
			c-0.8-1.6-2.2-2.7-3.8-3.3c-1.4-0.5-2.5-1.5-3-2.9c-0.3-1.4,0.1-2.9,1-4l1.5,1c-0.5,0.8-1,1.7-0.8,2.5s0.8,1.2,2,1.7
			c2.2,0.7,4,2.3,5,4.4c0.3,0.9,0.2,2-0.4,2.8c-0.3,0.4-0.7,0.7-1.2,0.9L62.4,272.5"/>
	</g>
	<g>
		<rect x="59.4" y="220.6" class="st7" width="7.3" height="1.8"/>
	</g>
	<g>
		<rect x="57.2" y="225.1" class="st7" width="11.3" height="1.8"/>
	</g>
	<g>
		<rect x="55" y="229.6" class="st7" width="15.7" height="1.8"/>
	</g>
	<g>
		<rect x="52.8" y="234" class="st7" width="20" height="1.8"/>
	</g>
	<g>
		<rect x="51" y="238.5" class="st7" width="11.9" height="1.8"/>
	</g>
	<g>
		<rect x="48.5" y="242.9" class="st7" width="7.5" height="1.8"/>
	</g>
	<g>
		<rect x="46.7" y="247.4" class="st7" width="6.3" height="1.8"/>
	</g>
	<g>
		<rect x="42" y="256.4" class="st7" width="5.9" height="1.8"/>
	</g>
	<g>
		<rect x="79" y="256.4" class="st7" width="4.8" height="1.8"/>
	</g>
	<g>
		<rect x="39.8" y="260.8" class="st7" width="7.6" height="1.8"/>
	</g>
	<g>
		<rect x="78.2" y="260.8" class="st7" width="7.6" height="1.8"/>
	</g>
	<g>
		<rect x="38" y="265.3" class="st7" width="11" height="1.8"/>
	</g>
	<g>
		<rect x="77.2" y="265.3" class="st7" width="10.9" height="1.8"/>
	</g>
	<g>
		<rect x="35.4" y="269.8" class="st7" width="16.1" height="1.8"/>
	</g>
	<g>
		<rect x="71.2" y="269.8" class="st7" width="5.7" height="1.8"/>
	</g>
	<g>
		<rect x="85.1" y="269.8" class="st7" width="4.9" height="1.8"/>
	</g>
	<g>
		<rect x="33.2" y="274.3" class="st7" width="28.4" height="1.8"/>
	</g>
	<g>
		<rect x="67.9" y="274.3" class="st7" width="17.2" height="1.8"/>
	</g>
	<g>
		<rect x="31.8" y="278.7" class="st7" width="60.7" height="1.8"/>
	</g>
	<g>
		<rect x="28.9" y="283.2" class="st7" width="67.9" height="1.8"/>
	</g>
	<g>
		<rect x="26.5" y="287.7" class="st7" width="72.4" height="1.8"/>
	</g>
	<g id="dispose-properly">
		<g id="Layer_2-2">
			<g id="Layer_1-2">
				<g>
					<path class="st7" d="M144.1,289.1c-1.5,0.2-2.6,1.5-2.4,3c0.2,1.5,1.5,2.6,3,2.4c1.2-0.1,2.2-1.1,2.4-2.3c0-0.2,0-0.3,0-0.5
						v-0.3C146.9,290,145.5,288.9,144.1,289.1 M144.3,292.2c-0.3,0-0.7-0.2-0.7-0.6c0-0.3,0.2-0.7,0.6-0.7l0,0
						c0.2,0,0.4,0.1,0.5,0.3c0.2,0.2,0.2,0.6,0,0.9C144.6,292.2,144.5,292.2,144.3,292.2"/>
				</g>
				<g>
					<path class="st7" d="M134.2,237.4h-2.4v8.6h5.9c0.6,6.7,1.2,13.4,1.9,20.1c0.4,4.6,0.9,9.2,1.3,13.9l-8.5,8.9l1.3,1.3l7.4-7.7
						v1.8c-4.2,1.6-6.3,6.3-4.7,10.5s6.3,6.3,10.5,4.7c2-0.8,3.7-2.3,4.6-4.3c0.1-0.2,0.2-0.5,0.2-0.7h16.1v5.8h4.7v-5.8
						c0.6,0,1.1-0.4,1.2-1L175,280l8.5,8.9l1.3-1.3l-9.5-10c0.3-3.8,0.7-7.7,1-11.4c0.7-7.5,1.4-15.1,2.1-22.6l10.7-11.2l-1.3-1.3
						l-9,9.4l0.6-5.9h3.4V231h-3.1v-0.8c0-0.3-0.1-0.7-0.3-0.9c-1.5-1.3-3.2-2.4-5-3.1v-2.6H169v1c-2.2-0.4-4.4-0.7-6.6-0.9v-1.4
						H150v1.9c-2.8,0.4-5.5,1-8.2,1.9c-1.4,0.6-2.7,1.3-3.9,2.2c-0.4-0.5-0.9-0.9-1.5-1.1c-1.6-0.7-3.5,0.1-4.1,1.7l0,0
						c0,0.1-0.1,0.2-0.1,0.2c-0.6,1.7,0.2,3.6,1.9,4.2v1.4h2.6c0,0.9,0.2,1.9,0.2,2.8l0,0l-2.7-2.8l-4.6-4.8l-1.3,1.3L134.2,237.4z
						 M135.3,228.7c0.5,0,1,0.3,1.3,0.7c-0.2,0.2-0.3,0.6-0.3,0.9v0.8H134c-0.2-0.3-0.3-0.6-0.3-0.9c0-0.8,0.7-1.5,1.5-1.5l0,0
						 M160.2,225.8h-8.1v-1.7h8.2L160.2,225.8z M172.4,229.2h-1.2v-3.7h1.2V229.2z M177.4,230.7c0,0.1,0,0.3,0,0.4h-2.9v-2.4
						C175.6,229.3,176.6,229.9,177.4,230.7 M174.4,266c-0.3,3.1-0.6,6.3-0.9,9.5l-12.6-13.2l15.4-16
						C175.6,252.9,175,259.5,174.4,266 M170.2,296h1v2.8h-1V296z M152.7,291.8L152.7,291.8c0-4.4-3.6-8-8-8h-0.8
						c0-1.1-0.1-2.3-0.3-3.4l16-16.7l13.7,14.3c-0.4,4.8-0.9,9.5-1.3,14.4h-19.7c0-0.2,0-0.3,0-0.5 M140.1,291.7
						c0-2.3,1.7-4.2,4-4.3h0.4c2.3,0,4.2,1.8,4.2,4.1l0,0l0,0c0,0.2,0,0.4,0,0.5c-0.3,2.3-2.4,3.9-4.7,3.7c-2.1-0.3-3.7-2.1-3.7-4.2
						 M142.2,265.8c-0.6-6.6-1.3-13.2-1.9-19.8l0,0v-2.4l6.3,6.6v2.3h2.2l9.2,9.5l-15,15.8c-0.4-4-0.7-8-1.1-11.9 M148.7,249.8V249
						h12.2v1.7h-11.3L148.7,249.8z M139.2,237.4l-0.3-2.8h38c-0.3,2.9-0.5,5.7-0.8,8.6l-16.9,17.5l-7.9-8.2H163V247h-16.4v0.6
						l-6.3-6.6v-3.5h-0.9 M138.7,231.1c0-0.1,0-0.3,0-0.4c1.2-1,2.6-1.8,4-2.4c2.4-0.8,4.9-1.4,7.4-1.8v1.4h12.4v-1.8
						c2.2,0.2,4.4,0.5,6.6,0.9v4.1H138.7 M136.1,239.4l1.1,1.1c0.1,1.2,0.2,2.3,0.3,3.5H134v-4.7L136.1,239.4z"/>
				</g>
			</g>
		</g>
	</g>
	<g>
		<path class="st7" d="M218.5,162c1.2,0,2.4,0.2,3.5,0.6c1,0.4,1.9,1,2.7,1.7c0.7,0.7,1.3,1.6,1.7,2.5c0.4,1,0.6,2.1,0.6,3.1
			c0,1.5-0.3,3.1-1.1,4.4c-0.8,1.3-2,2.3-3.5,2.8l0,0c0.7,0.2,1.4,0.5,2,1c0.5,0.4,0.9,1,1.3,1.6c0.3,0.6,0.6,1.3,0.7,2
			c0.2,0.7,0.3,1.4,0.3,2.2v1.6c0,0.6,0,1.3,0.2,1.9c0.1,0.6,0.2,1.2,0.3,1.9c0.1,0.5,0.3,1,0.7,1.5h-6.3c-0.3-1-0.6-2.1-0.6-3.1
			c0-1.2-0.2-2.4-0.4-3.6c0-1.3-0.5-2.5-1.3-3.4c-1-0.8-2.2-1.2-3.5-1.1h-6.3v11.3H203V162H218.5z M216.2,175.1
			c1.2,0.1,2.4-0.3,3.3-1c0.8-0.8,1.2-2,1.1-3.1c0.1-1.2-0.3-2.3-1.1-3.1c-1-0.7-2.1-1-3.3-0.9h-6.9v8.1H216.2z"/>
	</g>
	<g>
		<path class="st7" d="M245.8,162l10.8,28.9H250l-2.2-6.3H237l-2.3,6.3h-6.3l10.9-28.9H245.8z M246.2,179.7l-3.6-10.6l0,0l-3.9,10.6
			H246.2z"/>
	</g>
	<g>
		<polygon class="st7" points="264.3,162 264.3,174 275.6,162 283.5,162 272.2,173.4 284.6,190.9 276.6,190.9 267.9,177.9 
			264.3,181.6 264.3,190.9 257.9,190.9 257.9,162 		"/>
	</g>
	<g>
		<path class="st7" d="M174.2,168.1c1.4,0,2.7,0.2,4,0.7l0,0c0,0,0.9,0.4,0.7,2.1c0,1.2-1.1,2.2-2.3,2.2H169V170
			c0-0.4-0.1-0.9-0.2-1.3c1.5-0.4,3.1-0.7,4.7-0.8h0.7"/>
	</g>
	<g>
		<path class="st7" d="M175,162.3h1.5c0.9,0,1.9,0.2,2.3,0.8c0.3,0.6,0.4,1.3,0.3,2c-0.1,0.5-0.3,0.9-0.7,1.3
			c-0.1,0.2-0.3,0.3-0.4,0.4c-1.2-0.3-2.5-0.5-3.7-0.5h-1.1c-1.8,0.2-3.6,0.5-5.3,1c-0.4-0.3-0.9-0.6-1.4-0.8l-0.7-0.2
			c1.4-1.4,3-2.4,4.8-3.1C171.9,162.6,173.5,162.4,175,162.3"/>
	</g>
	<g>
		<path class="st7" d="M174.1,155.9h0.6c3.5,0.2,4,0.7,4,2.4c-0.1,0.9-0.6,1.7-1.3,2.2h-2c-1.4,0-2.8,0.2-4.1,0.6
			c-2.1,0.6-4.1,1.7-5.7,3.1c-0.8,0.7-1.5,1.4-2.2,2.2c-0.4,0.1-0.8,0.4-1.1,0.6l-0.3,0.3c-0.3-0.3-0.7-0.6-1.2-0.9
			c-0.5-0.2-1-0.3-1.6-0.4c1-2.4,2.6-4.6,4.6-6.3C166.7,157.5,170.3,156.1,174.1,155.9L174.1,155.9"/>
	</g>
	<g>
		<path class="st7" d="M178.2,174.6c0.4,1.5,0.7,3.1,0.8,4.7c0.1,1.6-0.1,3.2-0.7,4.7l0,0c0,0-0.3,0.7-1.7,0.7h-0.4
			c-1.3,0-2.3-1.1-2.2-2.3l0,0l0,0l0,0V175h3c0.4,0,0.9-0.1,1.3-0.2"/>
	</g>
	<g>
		<path class="st7" d="M180.8,171.6c1.3,1.4,2.4,3,3.1,4.8c0.6,1.7,0.9,3.6,0.8,5.4v0.6c0,0.8,0,1.9-0.8,2.3
			c-0.4,0.2-0.9,0.3-1.3,0.4c-0.2,0-0.5,0-0.7,0c-0.5-0.1-0.9-0.3-1.3-0.7l-0.4-0.4c0.4-1.6,0.6-3.2,0.4-4.8c-0.2-1.8-0.5-3.6-1-5.3
			c0.3-0.4,0.6-0.9,0.8-1.4c0.1-0.2,0.2-0.5,0.2-0.7"/>
	</g>
	<g>
		<path class="st7" d="M180.9,165c2.4,1,4.6,2.6,6.3,4.6c2.6,3.1,3.9,6.9,3.9,10.9c0,3.5-0.7,4-2.5,4c-0.9-0.1-1.7-0.6-2.2-1.3
			c0.2-2.1,0.1-4.2-0.4-6.2c-0.6-2.1-1.7-4.1-3.1-5.8c-0.7-0.8-1.4-1.5-2.2-2.2c-0.1-0.4-0.4-0.8-0.6-1.1c-0.1-0.1-0.2-0.2-0.3-0.3
			c0.4-0.3,0.7-0.7,0.9-1.2C180.8,166,180.9,165.5,180.9,165"/>
	</g>
	<g>
		<path class="st7" d="M172.3,179.8v3.1c0,0.5,0.1,0.9,0.2,1.4c-1.5,0.4-3.1,0.7-4.7,0.8h-0.7c-1.4,0-2.8-0.2-4.1-0.7l0,0
			c0,0-0.9-0.4-0.7-2.1c0.1-1.3,1.1-2.3,2.4-2.2h7.5"/>
	</g>
	<g>
		<path class="st7" d="M173.5,185.5c0.4,0.3,0.9,0.6,1.4,0.8l0.7,0.2c-1.4,1.3-3,2.4-4.8,3.1c-1.4,0.5-3,0.8-4.5,0.9h-1.5
			c-0.9,0-1.9,0-2.3-0.8c-0.6-1.1-0.4-2.4,0.4-3.3l0.5-0.4c1.2,0.3,2.5,0.5,3.7,0.5h1.1C170,186.4,171.8,186,173.5,185.5"/>
	</g>
	<g>
		<path class="st7" d="M179.4,185.5c0.7,0.8,1.7,1.2,2.7,1.2c-1,2.4-2.6,4.6-4.6,6.3c-2.9,2.4-6.5,3.8-10.3,3.9h-0.6
			c-3.5,0-4-0.7-4-2.4c0.1-0.9,0.6-1.6,1.3-2.1h2c1.4,0,2.8-0.1,4.1-0.5c2.1-0.6,4.1-1.7,5.8-3.1c0.9-0.9,1.9-1.9,2.2-2.2
			c0.4-0.2,0.7-0.4,1.1-0.6L179.4,185.5"/>
	</g>
	<g>
		<path class="st7" d="M164.7,168.2h0.4c1.3,0,2.2,1.1,2.2,2.4v7.5h-3.1c-0.4,0-0.9,0.1-1.3,0.2c-0.4-1.5-0.7-3.1-0.8-4.7
			c-0.1-1.6,0.1-3.2,0.7-4.7l0,0c0,0,0.3-0.8,1.6-0.8"/>
	</g>
	<g>
		<path class="st7" d="M158.7,168h0.7c0.5,0.1,0.9,0.3,1.2,0.6l0.4,0.5c-0.4,1.6-0.6,3.2-0.5,4.8c0.2,1.8,0.5,3.6,1,5.3
			c-0.3,0.4-0.6,0.9-0.8,1.4c-0.1,0.2-0.2,0.5-0.2,0.7c-1.3-1.4-2.4-3-3.1-4.8c-0.7-1.7-1-3.6-0.8-5.4v-0.6c0-0.9,0-2,0.8-2.3
			C157.9,168.1,158.3,167.9,158.7,168"/>
	</g>
	<g>
		<path class="st7" d="M152.6,168.6c0.9,0.1,1.7,0.6,2.2,1.3c-0.2,2.1-0.1,4.1,0.4,6.1c0.6,2.1,1.7,4.1,3.1,5.8
			c0.7,0.8,1.4,1.5,2.2,2.2c0.1,0.4,0.4,0.8,0.6,1.1l0.3,0.3c-0.4,0.3-0.7,0.8-0.9,1.2c-0.2,0.5-0.3,1-0.4,1.5
			c-2.4-1-4.6-2.6-6.3-4.6c-2.6-3-4-6.9-3.9-10.9C150.3,169,150.8,168.5,152.6,168.6L152.6,168.6"/>
	</g>
	<g>
		<path class="st7" d="M288.9,161.2c2.4,0.1,4.3,2.1,4.3,4.5c-0.1,2.4-2.1,4.3-4.5,4.3c-2.4-0.1-4.3-2-4.3-4.4s1.9-4.4,4.3-4.4
			C288.8,161.2,288.8,161.2,288.9,161.2z M288.9,169.1c1.9,0.1,3.5-1.4,3.6-3.3c0.1-1.9-1.4-3.5-3.3-3.6s-3.5,1.4-3.6,3.3v0.1
			C285.5,167.4,287,169,288.9,169.1C288.8,169.1,288.9,169.1,288.9,169.1L288.9,169.1z M287.1,163.2h1.9c1.2,0,1.9,0.4,1.9,1.5
			c0.1,0.7-0.5,1.3-1.1,1.3c-0.1,0-0.1,0-0.2,0l1.3,2.1h-1l-1.2-2.1h-0.6v2.1h-1L287.1,163.2z M288.1,165.2h0.9c0.6,0,1-0.1,1-0.7
			s-0.6-0.6-1-0.6h-0.8L288.1,165.2z"/>
	</g>
	<g>
		<polygon class="st7" points="343.4,119 331.7,119 331.7,89.2 343.4,89.2 343.4,90.2 332.7,90.2 332.7,118 343.4,118 		"/>
	</g>
	<g>
		<polygon class="st7" points="464.1,119 452.3,119 452.3,118 463.1,118 463.1,90.2 452.3,90.2 452.3,89.2 464.1,89.2 		"/>
	</g>
	<g>
		<path class="st7" d="M446.3,85.5c-0.2,0.3-0.5,0.4-0.8,0.2c-0.1,0-0.1-0.1-0.2-0.2l-1-1.7l-1-1.7c-0.2-0.3-0.1-0.6,0.2-0.8
			c0.1,0,0.2-0.1,0.3-0.1h4c0.3,0,0.6,0.2,0.6,0.6c0,0.1,0,0.2-0.1,0.3l-1,1.7L446.3,85.5z"/>
	</g>
</g>
<g class="st1">
	<g>
		<path class="st8" d="M338.8,344.2h1.8c4.1,0,7.4,3.3,7.4,7.4V368c0,4.1-3.3,7.4-7.4,7.4h-1.8c-4.1,0-7.4-3.3-7.4-7.4v-16.4
			C331.4,347.6,334.7,344.2,338.8,344.2z"/>
	</g>
	<g>
		<path class="st8" d="M227.9,344.2h1.8c4.1,0,7.4,3.3,7.4,7.4V368c0,4.1-3.3,7.4-7.4,7.4h-1.8c-4.1,0-7.4-3.3-7.4-7.4v-16.4
			C220.5,347.6,223.8,344.2,227.9,344.2z"/>
	</g>
	<g>
		<path class="st8" d="M227.9,285h1.8c4.1,0,7.4,3.3,7.4,7.4v16.4c0,4.1-3.3,7.4-7.4,7.4h-1.8c-4.1,0-7.4-3.3-7.4-7.4v-16.4
			C220.5,288.3,223.8,285,227.9,285z"/>
	</g>
	<g>
		<path class="st8" d="M245.1,307.1v1.8c0,4.1-3.3,7.4-7.4,7.4h-9c-4.1,0-7.4-3.3-7.4-7.4v-1.8c0-4.1,3.3-7.4,7.4-7.4h9
			C241.7,299.6,245.1,303,245.1,307.1z"/>
	</g>
	<g>
		<path class="st8" d="M348.9,307.1v1.8c0,4.1-3.3,7.4-7.4,7.4h-9c-4.1,0-7.4-3.3-7.4-7.4v-1.8c0-4.1,3.3-7.4,7.4-7.4h9
			C345.6,299.6,348.9,303,348.9,307.1z"/>
	</g>
	<g>
		<path class="st8" d="M338.8,285h1.8c4.1,0,7.4,3.3,7.4,7.4v16.4c0,4.1-3.3,7.4-7.4,7.4h-1.8c-4.1,0-7.4-3.3-7.4-7.4v-16.4
			C331.4,288.3,334.7,285,338.8,285z"/>
	</g>
</g>
<g>
	<path class="st9" d="M456.8,87h-1v-3.4h-1.3v-0.8c0.7,0,1.4-0.2,1.5-1h0.8V87z"/>
</g>
<g>
	<path class="st9" d="M454.1,124.2c-0.1-1,0.6-1.9,1.6-2.1c0.1,0,0.2,0,0.3,0c0.9-0.1,1.7,0.6,1.8,1.5v0.1c0,1.6-1.7,1.7-2.4,2.8
		h2.5v0.9H454c0-1.2,0.7-1.7,1.6-2.3c0.5-0.3,1.1-0.6,1.1-1.3c0-0.4-0.3-0.8-0.7-0.8h-0.1c-0.6,0-0.8,0.7-0.8,1.2
		C455.1,124.2,454.1,124.2,454.1,124.2z"/>
</g>
<g>
	<path class="st9" d="M336.2,83.9c0.5,0,1.1-0.1,1.1-0.6c0-0.4-0.3-0.7-0.7-0.7c0,0,0,0-0.1,0c-0.5,0-0.8,0.4-0.8,0.9h-1
		c0-0.9,0.7-1.8,1.6-1.8c0.1,0,0.1,0,0.2,0c0.9-0.1,1.7,0.6,1.8,1.4c0,0.5-0.3,0.9-0.7,1.1l0,0c0.6,0.1,0.9,0.6,0.9,1.2
		c-0.1,1.1-1.1,1.8-2.2,1.7c-0.9-0.1-1.6-0.9-1.7-1.8h1c0,0.6,0.3,1,0.9,1c0.4,0,0.8-0.3,0.8-0.8c0,0,0,0,0-0.1
		c0-0.8-0.7-0.8-1.2-0.8L336.2,83.9z"/>
</g>
<g>
	<path class="st9" d="M339.8,85.6c0,0.4,0.3,0.6,0.7,0.7c0.8,0,1-1,1-1.6l0,0c-0.3,0.4-0.7,0.6-1.2,0.6s-0.9-0.2-1.2-0.5
		c-0.3-0.3-0.4-0.7-0.4-1.2c-0.1-1,0.7-1.8,1.7-1.9h0.1c1.6,0,2,1.4,2,2.7s-0.6,2.7-2,2.7c-0.9,0.1-1.6-0.6-1.7-1.4L339.8,85.6z
		 M341.4,83.5c0.1-0.5-0.3-0.9-0.8-1h-0.1c-0.5,0-0.8,0.5-0.8,0.9l0,0c0,0.5,0.2,1,0.8,1C341.1,84.4,341.4,84,341.4,83.5L341.4,83.5
		z"/>
</g>
<g>
	<path class="st9" d="M336.8,126.2h-2.2v-1l2.2-3h0.9v3.1h0.7v0.9h-0.7v1.2h-1v-1.2H336.8z M336.8,123.5L336.8,123.5l-1.3,1.8h1.4
		L336.8,123.5z"/>
</g>
<g>
	<path class="st9" d="M340.6,122.1c1,0,1.9,0.7,1.9,2.7s-0.9,2.7-1.9,2.7s-1.9-0.7-1.9-2.7S339.6,122.1,340.6,122.1z M340.6,126.6
		c0.9,0,0.9-1.3,0.9-1.9s0-1.8-0.9-1.8s-0.9,1.3-0.9,1.8S339.8,126.6,340.6,126.6z"/>
</g>
<g>
	<g>
		<rect x="665.2" class="st10" width="25.5" height="475.7"/>
	</g>
	<g>
		<rect x="633.3" class="st10" width="25.5" height="475.7"/>
	</g>
	<g>
		<path class="st11" d="M620.9,24.2h9.9c1.4,0,2.5,1.1,2.5,2.5v12.5c0,1.4-1.1,2.5-2.5,2.5h-9.9c-1.4,0-2.5-1.1-2.5-2.5V26.7
			C618.4,25.3,619.5,24.2,620.9,24.2z"/>
	</g>
	<g>
		<path class="st12" d="M638.6,0h18c1.2,0,2.1,0.9,2.1,2.1v13.2c0,1.2-0.9,2.1-2.1,2.1h-18c-1.2,0-2.1-0.9-2.1-2.1V2.1
			C636.5,1,637.5,0,638.6,0z"/>
	</g>
	<g>
		<path class="st11" d="M638.6,23.9h18c1.2,0,2.1,0.9,2.1,2.1v13.2c0,1.2-0.9,2.1-2.1,2.1h-18c-1.2,0-2.1-0.9-2.1-2.1V26
			C636.5,24.8,637.5,23.9,638.6,23.9z"/>
	</g>
	<g>
		<path class="st9" d="M638.6,48.5h18c1.2,0,2.1,0.9,2.1,2.1v13.2c0,1.2-0.9,2.1-2.1,2.1h-18c-1.2,0-2.1-0.9-2.1-2.1V50.6
			C636.5,49.4,637.5,48.5,638.6,48.5z"/>
	</g>
	<g>
		<path class="st12" d="M638.6,73h18c1.2,0,2.1,0.9,2.1,2.1v13.2c0,1.2-0.9,2.1-2.1,2.1h-18c-1.2,0-2.1-0.9-2.1-2.1V75.2
			C636.5,74,637.5,73,638.6,73z"/>
	</g>
	<g>
		<path class="st12" d="M638.6,96.5h18c1.2,0,2.1,0.9,2.1,2.1v13.2c0,1.2-0.9,2.1-2.1,2.1h-18c-1.2,0-2.1-0.9-2.1-2.1V98.7
			C636.5,97.5,637.5,96.5,638.6,96.5z"/>
	</g>
	<g>
		<path class="st12" d="M638.6,120.1h18c1.2,0,2.1,0.9,2.1,2.1v13.2c0,1.2-0.9,2.1-2.1,2.1h-18c-1.2,0-2.1-0.9-2.1-2.1v-13.2
			C636.5,121,637.5,120.1,638.6,120.1z"/>
	</g>
	<g>
		<path class="st12" d="M638.6,144.4h18c1.2,0,2.1,0.9,2.1,2.1v13.2c0,1.2-0.9,2.1-2.1,2.1h-18c-1.2,0-2.1-0.9-2.1-2.1v-13.2
			C636.5,145.3,637.5,144.4,638.6,144.4z"/>
	</g>
	<g>
		<path class="st12" d="M638.6,168.2h18c1.2,0,2.1,0.9,2.1,2.1v13.2c0,1.2-0.9,2.1-2.1,2.1h-18c-1.2,0-2.1-0.9-2.1-2.1v-13.2
			C636.5,169.2,637.5,168.2,638.6,168.2z"/>
	</g>
	<g>
		<path class="st12" d="M638.6,192.3h18c1.2,0,2.1,0.9,2.1,2.1v13.2c0,1.2-0.9,2.1-2.1,2.1h-18c-1.2,0-2.1-0.9-2.1-2.1v-13.2
			C636.5,193.3,637.5,192.3,638.6,192.3z"/>
	</g>
	<g>
		<path class="st12" d="M638.6,216.7h18c1.2,0,2.1,0.9,2.1,2.1V232c0,1.2-0.9,2.1-2.1,2.1h-18c-1.2,0-2.1-0.9-2.1-2.1v-13.2
			C636.5,217.7,637.5,216.7,638.6,216.7z"/>
	</g>
	<g>
		<path class="st12" d="M638.6,241.9h18c1.2,0,2.1,0.9,2.1,2.1v13.2c0,1.2-0.9,2.1-2.1,2.1h-18c-1.2,0-2.1-0.9-2.1-2.1V244
			C636.5,242.9,637.5,241.9,638.6,241.9z"/>
	</g>
	<g>
		<path class="st12" d="M638.6,265.6h18c1.2,0,2.1,0.9,2.1,2.1v13.2c0,1.2-0.9,2.1-2.1,2.1h-18c-1.2,0-2.1-0.9-2.1-2.1v-13.2
			C636.5,266.5,637.5,265.6,638.6,265.6z"/>
	</g>
	<g>
		<path class="st12" d="M667.3,0h18c1.2,0,2.1,0.9,2.1,2.1v13.2c0,1.2-0.9,2.1-2.1,2.1h-18c-1.2,0-2.1-0.9-2.1-2.1V2.1
			C665.2,1,666.1,0,667.3,0z"/>
	</g>
	<g>
		<path class="st11" d="M667.3,23.9h18c1.2,0,2.1,0.9,2.1,2.1v13.2c0,1.2-0.9,2.1-2.1,2.1h-18c-1.2,0-2.1-0.9-2.1-2.1V26
			C665.2,24.8,666.1,23.9,667.3,23.9z"/>
	</g>
	<g>
		<path class="st12" d="M667.3,48.5h18c1.2,0,2.1,0.9,2.1,2.1v13.2c0,1.2-0.9,2.1-2.1,2.1h-18c-1.2,0-2.1-0.9-2.1-2.1V50.6
			C665.2,49.4,666.1,48.5,667.3,48.5z"/>
	</g>
	<g>
		<path class="st12" d="M667.3,73h18c1.2,0,2.1,0.9,2.1,2.1v13.2c0,1.2-0.9,2.1-2.1,2.1h-18c-1.2,0-2.1-0.9-2.1-2.1V75.2
			C665.2,74,666.1,73,667.3,73z"/>
	</g>
	<g>
		<path class="st12" d="M667.3,96.5h18c1.2,0,2.1,0.9,2.1,2.1v13.2c0,1.2-0.9,2.1-2.1,2.1h-18c-1.2,0-2.1-0.9-2.1-2.1V98.7
			C665.2,97.5,666.1,96.5,667.3,96.5z"/>
	</g>
	<g>
		<path class="st12" d="M667.3,120.1h18c1.2,0,2.1,0.9,2.1,2.1v13.2c0,1.2-0.9,2.1-2.1,2.1h-18c-1.2,0-2.1-0.9-2.1-2.1v-13.2
			C665.2,121,666.1,120.1,667.3,120.1z"/>
	</g>
	<g>
		<path class="st12" d="M667.3,144.4h18c1.2,0,2.1,0.9,2.1,2.1v13.2c0,1.2-0.9,2.1-2.1,2.1h-18c-1.2,0-2.1-0.9-2.1-2.1v-13.2
			C665.2,145.3,666.1,144.4,667.3,144.4z"/>
	</g>
	<g>
		<path class="st12" d="M667.3,168.2h18c1.2,0,2.1,0.9,2.1,2.1v13.2c0,1.2-0.9,2.1-2.1,2.1h-18c-1.2,0-2.1-0.9-2.1-2.1v-13.2
			C665.2,169.2,666.1,168.2,667.3,168.2z"/>
	</g>
	<g>
		<path class="st12" d="M667.3,192.3h18c1.2,0,2.1,0.9,2.1,2.1v13.2c0,1.2-0.9,2.1-2.1,2.1h-18c-1.2,0-2.1-0.9-2.1-2.1v-13.2
			C665.2,193.3,666.1,192.3,667.3,192.3z"/>
	</g>
	<g>
		<path class="st12" d="M667.3,216.7h18c1.2,0,2.1,0.9,2.1,2.1V232c0,1.2-0.9,2.1-2.1,2.1h-18c-1.2,0-2.1-0.9-2.1-2.1v-13.2
			C665.2,217.7,666.1,216.7,667.3,216.7z"/>
	</g>
	<g>
		<path class="st12" d="M667.3,241.9h18c1.2,0,2.1,0.9,2.1,2.1v13.2c0,1.2-0.9,2.1-2.1,2.1h-18c-1.2,0-2.1-0.9-2.1-2.1V244
			C665.2,242.9,666.1,241.9,667.3,241.9z"/>
	</g>
	<g>
		<path class="st12" d="M667.3,265.6h18c1.2,0,2.1,0.9,2.1,2.1v13.2c0,1.2-0.9,2.1-2.1,2.1h-18c-1.2,0-2.1-0.9-2.1-2.1v-13.2
			C665.2,266.5,666.1,265.6,667.3,265.6z"/>
	</g>
	<g>
		<path class="st12" d="M667.3,289.2h18c1.2,0,2.1,0.9,2.1,2.1v13.2c0,1.2-0.9,2.1-2.1,2.1h-18c-1.2,0-2.1-0.9-2.1-2.1v-13.2
			C665.2,290.2,666.1,289.2,667.3,289.2z"/>
	</g>
	<g>
		<path class="st12" d="M667.3,312.8h18c1.2,0,2.1,0.9,2.1,2.1v13.2c0,1.2-0.9,2.1-2.1,2.1h-18c-1.2,0-2.1-0.9-2.1-2.1v-13.2
			C665.2,313.7,666.1,312.8,667.3,312.8z"/>
	</g>
	<g>
		<path class="st12" d="M667.3,337.1h18c1.2,0,2.1,0.9,2.1,2.1v13.2c0,1.2-0.9,2.1-2.1,2.1h-18c-1.2,0-2.1-0.9-2.1-2.1v-13.2
			C665.2,338,666.1,337.1,667.3,337.1z"/>
	</g>
	<g>
		<path class="st12" d="M667.3,360.9h18c1.2,0,2.1,0.9,2.1,2.1v13.2c0,1.2-0.9,2.1-2.1,2.1h-18c-1.2,0-2.1-0.9-2.1-2.1V363
			C665.2,361.9,666.1,360.9,667.3,360.9z"/>
	</g>
	<g>
		<path class="st13" d="M667.3,385h18c1.2,0,2.1,0.9,2.1,2.1v13.2c0,1.2-0.9,2.1-2.1,2.1h-18c-1.2,0-2.1-0.9-2.1-2.1v-13.2
			C665.2,386,666.1,385,667.3,385z"/>
	</g>
	<g>
		<path class="st12" d="M667.3,409.4h18c1.2,0,2.1,0.9,2.1,2.1v13.2c0,1.2-0.9,2.1-2.1,2.1h-18c-1.2,0-2.1-0.9-2.1-2.1v-13.2
			C665.2,410.4,666.1,409.4,667.3,409.4z"/>
	</g>
	<g>
		<path class="st14" d="M667.3,434.6h18c1.2,0,2.1,0.9,2.1,2.1V450c0,1.2-0.9,2.1-2.1,2.1h-18c-1.2,0-2.1-0.9-2.1-2.1v-13.2
			C665.2,435.6,666.1,434.6,667.3,434.6z"/>
	</g>
	<g>
		<path class="st8" d="M668.6,297c-0.1-2.4,1.3-4.2,3.8-4.2c1.8-0.1,3.4,1.2,3.6,3.1c0,0.1,0,0.1,0,0.2c0,3.2-3.4,3.4-4.9,5.6h5v1.8
			h-7.7c0-2.4,1.5-3.4,3.3-4.7c0.9-0.6,2.2-1.3,2.2-2.6c0.1-0.8-0.5-1.6-1.4-1.6l0,0c-0.1,0-0.1,0-0.2,0c-1.3,0-1.7,1.3-1.7,2.4
			L668.6,297z"/>
	</g>
	<g>
		<path class="st8" d="M683.8,294.7h-4.3l-0.4,2.4l0,0c0.5-0.5,1.2-0.8,2-0.8c1.8,0,3.3,1.4,3.3,3.2c0,0.1,0,0.2,0,0.3
			c0,2.1-1.7,3.8-3.8,3.8l0,0h-0.1c-2,0-3.8-1.1-3.9-3.3h2.1c0.1,0.9,0.8,1.6,1.7,1.6c1,0,1.8-0.9,1.8-1.9c0,0,0,0,0-0.1l0,0
			c0.1-1-0.6-1.9-1.6-2h-0.2c-0.7-0.1-1.3,0.3-1.6,0.8H677l1-5.8h5.8V294.7z"/>
	</g>
	<g>
		<path class="st8" d="M668.6,320.1c-0.1-2.4,1.3-4.2,3.8-4.2c1.8-0.1,3.4,1.2,3.6,3.1c0,0.1,0,0.1,0,0.2c0,3.2-3.4,3.4-4.9,5.6h5
			v1.8h-7.7c0-2.4,1.5-3.4,3.3-4.7c0.9-0.6,2.2-1.3,2.2-2.6c0.1-0.8-0.5-1.6-1.4-1.6l0,0h-0.2c-1.2,0-1.7,1.3-1.7,2.4L668.6,320.1z"
			/>
	</g>
	<g>
		<path class="st8" d="M684,317.9c-2.2,1.9-3.4,5.8-3.4,8.7h-2.3c0.3-3.1,1.5-6.1,3.5-8.5h-5v-2h7.2V317.9z"/>
	</g>
	<g>
		<path class="st8" d="M671.4,393c0.9,0.1,2.2-0.1,2.2-1.3c0-0.8-0.6-1.4-1.4-1.4l0,0h-0.1c-1.1,0-1.6,0.8-1.6,1.9h-2
			c-0.1-1.9,1.4-3.5,3.3-3.6c0.1,0,0.2,0,0.3,0c1.7,0,3.5,1,3.5,2.9c0.1,1-0.5,1.9-1.5,2.2l0,0c1.1,0.3,1.9,1.3,1.8,2.4
			c0,2.2-1.9,3.4-3.9,3.4c-2.3,0-3.9-1.4-3.9-3.8h2c0,1.1,0.6,2.1,1.8,2.1c0.9,0,1.7-0.6,1.7-1.5v-0.1c0-1.6-1.4-1.5-2.4-1.5
			L671.4,393z"/>
	</g>
	<g>
		<path class="st8" d="M679.7,393c0.9,0.1,2.2-0.1,2.2-1.3c0-0.8-0.6-1.4-1.4-1.4l0,0h-0.1c-1.1,0-1.6,0.8-1.6,1.9h-2
			c-0.1-1.9,1.4-3.5,3.3-3.6c0.1,0,0.2,0,0.3,0c1.7,0,3.5,1,3.5,2.9c0.1,1-0.5,1.9-1.5,2.2l0,0c1.1,0.2,1.9,1.2,1.8,2.4
			c0,2.2-1.8,3.4-3.9,3.4c-2.3,0-3.9-1.4-3.9-3.8h2c0,1.1,0.6,2.1,1.8,2.1c0.9,0,1.7-0.6,1.7-1.5v-0.1c0-1.6-1.4-1.5-2.4-1.5
			L679.7,393z"/>
	</g>
	<g>
		<path class="st8" d="M671.4,417.5c0.9,0.1,2.2-0.1,2.2-1.3c0-0.8-0.6-1.4-1.4-1.4l0,0h-0.1c-1.1,0-1.6,0.8-1.6,1.9h-2
			c-0.1-1.9,1.4-3.5,3.3-3.6c0.1,0,0.2,0,0.3,0c1.7,0,3.5,1,3.5,2.9c0.1,1-0.5,1.9-1.5,2.2l0,0c1.1,0.2,1.9,1.2,1.9,2.4
			c0,2.2-1.9,3.4-3.9,3.4c-2.3,0-3.9-1.4-3.9-3.8h2c0,1.1,0.6,2.1,1.8,2.1c0.9,0.1,1.6-0.6,1.7-1.5l0,0c0,0,0,0,0-0.1
			c0-1.6-1.4-1.6-2.4-1.6L671.4,417.5z"/>
	</g>
	<g>
		<path class="st8" d="M683.8,415h-4.3l-0.4,2.4l0,0c0.5-0.5,1.3-0.8,2-0.8c1.8,0,3.3,1.5,3.3,3.3c0,0.1,0,0.2,0,0.3
			c0,2.1-1.7,3.8-3.8,3.8l0,0h-0.1c-2,0-3.8-1.1-3.9-3.3h2.1c0.1,0.9,0.8,1.6,1.7,1.6c1,0,1.8-0.9,1.8-1.9c0,0,0,0,0-0.1l0,0
			c0.1-1-0.6-1.9-1.6-2l0,0h-0.2c-0.7-0.1-1.3,0.3-1.6,0.8H677l1-5.8h5.8V415z"/>
	</g>
	<g>
		<path class="st8" d="M668.6,344.8c-0.1-2.4,1.3-4.2,3.8-4.2c1.8-0.1,3.4,1.2,3.6,3.1c0,0.1,0,0.1,0,0.2c0,3.2-3.4,3.4-4.9,5.6h5
			v1.8h-7.7c0-2.4,1.5-3.4,3.3-4.7c0.9-0.6,2.2-1.3,2.2-2.6c0.1-0.8-0.5-1.6-1.4-1.6l0,0h-0.2c-1.2,0-1.7,1.3-1.7,2.4L668.6,344.8z"
			/>
	</g>
	<g>
		<path class="st8" d="M678.8,348.6c0.1,0.7,0.7,1.3,1.4,1.3c1.5,0,1.9-2,2-3.2l0,0c-0.5,0.8-1.4,1.2-2.4,1.2
			c-0.9,0-1.8-0.4-2.4-1.1c-1.3-1.7-1-4.1,0.6-5.3c0.6-0.5,1.4-0.8,2.2-0.8c3.2,0,4,2.8,4,5.4s-1.1,5.5-4.1,5.5
			c-1.7,0.1-3.2-1.2-3.4-2.9L678.8,348.6z M682,344.3c0.1-1-0.6-1.8-1.6-1.9l0,0h-0.1c-1,0.1-1.7,0.9-1.6,1.9l0,0
			c-0.1,1,0.5,1.8,1.5,2h0.1c0.9,0,1.7-0.8,1.7-1.8C682,344.5,682,344.4,682,344.3L682,344.3z"/>
	</g>
	<g>
		<path class="st8" d="M671.4,369.3c0.9,0.1,2.2-0.1,2.2-1.3c0-0.8-0.6-1.4-1.4-1.4l0,0h-0.1c-1.1,0-1.6,0.8-1.6,1.9h-2
			c-0.1-1.9,1.4-3.5,3.3-3.6c0.1,0,0.2,0,0.3,0c1.7,0,3.5,1,3.5,2.9c0.1,1-0.5,1.9-1.5,2.1l0,0c1.1,0.3,1.9,1.3,1.8,2.4
			c0,2.2-1.9,3.4-3.9,3.4c-2,0.2-3.7-1.2-3.9-3.2c0-0.2,0-0.4,0-0.6h2c0,1.1,0.6,2.1,1.8,2.1c0.9,0,1.7-0.7,1.7-1.5c0,0,0,0,0-0.1
			c0-1.6-1.4-1.6-2.4-1.6L671.4,369.3z"/>
	</g>
	<g>
		<path class="st8" d="M682.2,375.5h-2.1v-6.8h-2.6v-1.6c1.5,0,2.8-0.5,3.1-2.1h1.7v10.5H682.2z"/>
	</g>
	<g>
		<path class="st8" d="M671.4,442.7c0.9,0.1,2.2-0.1,2.2-1.3c0-0.8-0.6-1.4-1.4-1.4l0,0h-0.1c-1.1,0-1.6,0.8-1.6,1.9h-2
			c-0.1-1.9,1.4-3.5,3.3-3.6c0.1,0,0.2,0,0.3,0c1.7,0,3.5,1,3.5,2.9c0.1,1-0.5,1.9-1.5,2.1l0,0c1.1,0.2,1.9,1.2,1.9,2.4
			c0,2.2-1.9,3.4-3.9,3.4c-2,0.2-3.7-1.2-3.9-3.2c0-0.2,0-0.4,0-0.6h2c0,1.1,0.6,2.1,1.8,2.1c0.9,0.1,1.6-0.6,1.7-1.5l0,0
			c0,0,0,0,0-0.1c0-1.6-1.4-1.6-2.4-1.6L671.4,442.7z"/>
	</g>
	<g>
		<path class="st8" d="M684,440.3c-2.2,1.9-3.4,5.9-3.4,8.6h-2.3c0.3-3.1,1.5-6.1,3.5-8.5h-5v-2h7.2V440.3z"/>
	</g>
	<g>
		<path class="st11" d="M667.3,458.3h18c1.2,0,2.1,0.9,2.1,2.1v13.2c0,1.2-0.9,2.1-2.1,2.1h-18c-1.2,0-2.1-0.9-2.1-2.1v-13.2
			C665.2,459.2,666.1,458.3,667.3,458.3z"/>
	</g>
	<g>
		<path class="st12" d="M638.6,289.2h18c1.2,0,2.1,0.9,2.1,2.1v13.2c0,1.2-0.9,2.1-2.1,2.1h-18c-1.2,0-2.1-0.9-2.1-2.1v-13.2
			C636.5,290.2,637.5,289.2,638.6,289.2z"/>
	</g>
	<g>
		<path class="st8" d="M671.4,466.5c0.9,0.1,2.2-0.1,2.2-1.3c0-0.8-0.6-1.4-1.4-1.4l0,0h-0.1c-1.1,0-1.6,0.8-1.6,1.9h-2
			c-0.1-1.9,1.4-3.5,3.3-3.6c0.1,0,0.2,0,0.3,0c1.7,0,3.5,1,3.5,2.9c0.1,1-0.5,1.9-1.5,2.1l0,0c1.1,0.2,1.9,1.2,1.9,2.4
			c0,2.2-1.9,3.4-3.9,3.4c-2,0.2-3.7-1.2-3.9-3.2c0-0.2,0-0.4,0-0.6h2c0,1.1,0.6,2.1,1.8,2.1c0.9,0,1.7-0.6,1.7-1.5v-0.1
			c0-1.6-1.4-1.5-2.4-1.5L671.4,466.5z"/>
	</g>
	<g>
		<path class="st8" d="M678.8,470c0.1,0.7,0.7,1.3,1.4,1.3c1.5,0,1.9-2,2-3.2l0,0c-0.5,0.8-1.4,1.2-2.4,1.2c-0.9,0-1.8-0.4-2.4-1.1
			c-1.3-1.7-1-4.1,0.6-5.3c0.6-0.5,1.4-0.8,2.2-0.8c3.2,0,4,2.8,4,5.4s-1.1,5.5-4.1,5.5c-1.7,0.1-3.2-1.2-3.4-2.9L678.8,470z
			 M682,465.7c0.1-1-0.6-1.9-1.6-1.9l0,0c-1,0.1-1.7,0.9-1.6,1.8v0.1c0,1,0.5,2,1.6,2c0.9,0,1.7-0.8,1.7-1.8
			C682,465.9,682,465.8,682,465.7L682,465.7z"/>
	</g>
	<g>
		<path class="st12" d="M638.6,312.8h18c1.2,0,2.1,0.9,2.1,2.1v13.2c0,1.2-0.9,2.1-2.1,2.1h-18c-1.2,0-2.1-0.9-2.1-2.1v-13.2
			C636.5,313.7,637.5,312.8,638.6,312.8z"/>
	</g>
	<g>
		<path class="st12" d="M638.6,337.1h18c1.2,0,2.1,0.9,2.1,2.1v13.2c0,1.2-0.9,2.1-2.1,2.1h-18c-1.2,0-2.1-0.9-2.1-2.1v-13.2
			C636.5,338,637.5,337.1,638.6,337.1z"/>
	</g>
	<g>
		<path class="st12" d="M638.6,360.9h18c1.2,0,2.1,0.9,2.1,2.1v13.2c0,1.2-0.9,2.1-2.1,2.1h-18c-1.2,0-2.1-0.9-2.1-2.1V363
			C636.5,361.9,637.5,360.9,638.6,360.9z"/>
	</g>
	<g>
		<path class="st13" d="M638.6,385h18c1.2,0,2.1,0.9,2.1,2.1v13.2c0,1.2-0.9,2.1-2.1,2.1h-18c-1.2,0-2.1-0.9-2.1-2.1v-13.2
			C636.5,386,637.5,385,638.6,385z"/>
	</g>
	<g>
		<path class="st12" d="M638.6,409.4h18c1.2,0,2.1,0.9,2.1,2.1v13.2c0,1.2-0.9,2.1-2.1,2.1h-18c-1.2,0-2.1-0.9-2.1-2.1v-13.2
			C636.5,410.4,637.5,409.4,638.6,409.4z"/>
	</g>
	<g>
		<path class="st14" d="M638.6,434.6h18c1.2,0,2.1,0.9,2.1,2.1V450c0,1.2-0.9,2.1-2.1,2.1h-18c-1.2,0-2.1-0.9-2.1-2.1v-13.2
			C636.5,435.6,637.5,434.6,638.6,434.6z"/>
	</g>
	<g>
		<path class="st11" d="M638.6,458.3h18c1.2,0,2.1,0.9,2.1,2.1v13.2c0,1.2-0.9,2.1-2.1,2.1h-18c-1.2,0-2.1-0.9-2.1-2.1v-13.2
			C636.5,459.2,637.5,458.3,638.6,458.3z"/>
	</g>
	<g>
		<path class="st8" d="M644.1,8.7c-0.1-2.4,1.3-4.2,3.8-4.2c1.8-0.1,3.4,1.2,3.6,3c0,0.1,0,0.1,0,0.2c0,3.2-3.4,3.4-4.9,5.6h5v1.8
			h-7.7c0-2.4,1.5-3.4,3.3-4.7c0.9-0.6,2.2-1.3,2.2-2.6c0.1-0.8-0.6-1.6-1.4-1.6c-0.1,0-0.1,0-0.2,0c-1.2,0-1.7,1.3-1.7,2.4
			L644.1,8.7z"/>
	</g>
	<g>
		<path class="st8" d="M639.9,297c-0.1-2.4,1.3-4.2,3.8-4.2c1.8-0.1,3.4,1.2,3.6,3.1c0,0.1,0,0.1,0,0.2c0,3.2-3.4,3.4-4.9,5.6h4.9
			v1.8h-7.7c0-2.4,1.5-3.4,3.3-4.7c0.9-0.6,2.2-1.3,2.2-2.6c0.1-0.8-0.5-1.6-1.4-1.6l0,0h-0.2c-1.3,0-1.7,1.3-1.7,2.4L639.9,297z"/>
	</g>
	<g>
		<path class="st8" d="M653.5,295.7c-0.1-0.7-0.7-1.3-1.4-1.3c-1.5,0-2,2-2,3.2l0,0c0.5-0.8,1.4-1.2,2.4-1.2c0.9,0,1.8,0.4,2.4,1.1
			c1.3,1.7,1,4.1-0.6,5.4c-0.6,0.5-1.3,0.7-2,0.8H652c-3.2,0-4-2.8-4-5.4s1.1-5.5,4.1-5.5c1.7-0.1,3.2,1.2,3.4,2.9H653.5z
			 M650.2,300c-0.1,1,0.6,1.9,1.6,1.9l0,0l0,0c1.1-0.3,1.7-1.3,1.5-2.4c-0.2-0.7-0.7-1.3-1.5-1.5c-1,0-1.7,0.8-1.7,1.8
			C650.2,299.9,650.2,300,650.2,300L650.2,300z"/>
	</g>
	<g>
		<path class="st8" d="M642.8,369.5c0.9,0.1,2.2-0.1,2.2-1.3c0-0.8-0.6-1.4-1.4-1.4l0,0h-0.1c-1.1,0-1.6,0.8-1.6,1.9h-2
			c-0.1-1.9,1.4-3.5,3.3-3.6c0.1,0,0.2,0,0.3,0c1.7,0,3.5,1,3.5,2.9c0.1,1-0.5,1.9-1.5,2.1l0,0c1.1,0.2,1.9,1.2,1.8,2.4
			c0,2.2-1.8,3.4-3.9,3.4c-2,0.2-3.7-1.2-3.9-3.2c0-0.2,0-0.4,0-0.6h2c0,1.1,0.6,2.1,1.8,2.1c0.9,0,1.7-0.6,1.7-1.5v-0.1
			c0-1.6-1.4-1.5-2.4-1.5L642.8,369.5z"/>
	</g>
	<g>
		<path class="st8" d="M648.2,369.3c-0.1-2.4,1.3-4.2,3.8-4.2c1.8-0.1,3.4,1.2,3.6,3.1c0,0.1,0,0.1,0,0.2c0,3.2-3.4,3.4-4.9,5.6h5
			v1.8H648c0-2.4,1.5-3.4,3.3-4.7c0.9-0.6,2.2-1.3,2.2-2.6c0.1-0.8-0.5-1.6-1.4-1.6l0,0h-0.2c-1.3,0-1.7,1.3-1.7,2.4L648.2,369.3z"
			/>
	</g>
	<g>
		<path class="st8" d="M642.8,417.6c0.9,0.1,2.2-0.1,2.2-1.3c0-0.8-0.6-1.4-1.4-1.4l0,0h-0.1c-1.1,0-1.6,0.8-1.6,1.9h-2
			c-0.1-1.9,1.4-3.5,3.3-3.6c0.1,0,0.2,0,0.3,0c1.7,0,3.5,1,3.5,2.9c0.1,1-0.5,1.9-1.5,2.2l0,0c1.1,0.2,1.9,1.2,1.8,2.4
			c0,2.2-1.8,3.4-3.9,3.4c-2,0.2-3.7-1.2-3.9-3.2c0-0.2,0-0.4,0-0.6h2c0,1.1,0.6,2.1,1.8,2.1c0.9,0.1,1.7-0.6,1.7-1.5l0,0v-0.1
			c0-1.6-1.4-1.6-2.4-1.6L642.8,417.6z"/>
	</g>
	<g>
		<path class="st8" d="M653.5,416.1c-0.1-0.7-0.7-1.3-1.4-1.3c-1.5,0-2,2-2,3.2l0,0c0.5-0.8,1.4-1.2,2.4-1.2c0.9,0,1.8,0.4,2.4,1.1
			c0.5,0.7,0.8,1.5,0.8,2.3c0.1,2-1.4,3.7-3.5,3.8H652c-3.2,0-4-2.8-4-5.4s1.1-5.5,4.1-5.5c1.7-0.1,3.2,1.2,3.4,2.9L653.5,416.1z
			 M650.2,420.4c-0.1,1,0.6,1.9,1.6,1.9l0,0l0,0c1.1-0.3,1.7-1.3,1.5-2.4c-0.2-0.7-0.7-1.3-1.5-1.5c-1,0-1.7,0.8-1.7,1.8
			C650.2,420.3,650.2,420.3,650.2,420.4z"/>
	</g>
	<g>
		<path class="st8" d="M642.8,442.9c0.9,0.1,2.2-0.1,2.2-1.3c0-0.8-0.6-1.4-1.4-1.4h-0.1c-1.1,0-1.6,0.8-1.6,1.9h-2
			c-0.1-1.9,1.4-3.5,3.3-3.6c0.1,0,0.2,0,0.3,0c1.7,0,3.5,1,3.5,2.9c0.1,1-0.5,1.9-1.5,2.2l0,0c1.1,0.2,1.9,1.2,1.8,2.4
			c0,2.2-1.8,3.4-3.9,3.4c-2,0.2-3.7-1.2-3.9-3.2c0-0.2,0-0.4,0-0.6h2c0,1.1,0.6,2.1,1.8,2.1c0.9,0.1,1.7-0.6,1.7-1.5l0,0V446
			c0-1.6-1.4-1.6-2.4-1.6L642.8,442.9z"/>
	</g>
	<g>
		<path class="st8" d="M651.8,438.5c2.6,0,3.5,1.8,3.5,2.8s-0.6,1.9-1.5,2.2l0,0c1.2,0.2,2.1,1.3,2,2.5c0,2.2-2,3.3-3.9,3.3
			s-4-1-4-3.2c-0.1-1.2,0.8-2.3,2-2.6l0,0c-1-0.3-1.6-1.2-1.5-2.2C648.3,439.4,650.1,438.5,651.8,438.5z M651.8,447.7
			c0.9,0,1.8-0.7,1.8-1.6l0,0V446c0-0.9-0.8-1.7-1.7-1.7l0,0h-0.1c-0.9-0.1-1.7,0.6-1.8,1.5c0,0.1,0,0.1,0,0.2
			C650,447,650.8,447.8,651.8,447.7L651.8,447.7L651.8,447.7L651.8,447.7z M651.8,442.9c0.8,0.1,1.5-0.4,1.6-1.2
			c0.1-0.8-0.4-1.5-1.2-1.6c-0.1,0-0.2,0-0.2,0c-0.1,0-0.2,0-0.2,0c-0.8-0.1-1.5,0.5-1.6,1.3l0,0c0,0.1,0,0.1,0,0.2
			C650.3,442.3,650.9,442.9,651.8,442.9L651.8,442.9L651.8,442.9z"/>
	</g>
	<g>
		<path class="st8" d="M644,469.8h-4.4v-1.9l4.5-6.1h1.9v6.3h1.4v1.8H646v2.4h-2V469.8z M644,464.4L644,464.4l-2.7,3.6h2.7V464.4z"
			/>
	</g>
	<g>
		<path class="st8" d="M651.8,461.6c2.1,0,3.9,1.3,3.9,5.4s-1.8,5.5-3.9,5.5s-3.8-1.3-3.8-5.5S649.7,461.6,651.8,461.6z
			 M651.8,470.7c1.7,0,1.7-2.6,1.7-3.7s0-3.6-1.7-3.6s-1.7,2.5-1.7,3.6S650.1,470.7,651.8,470.7z"/>
	</g>
	<g>
		<path class="st8" d="M639.9,320.1c-0.1-2.4,1.3-4.2,3.8-4.2c1.8-0.1,3.4,1.2,3.6,3c0,0.1,0,0.1,0,0.2c0,3.2-3.4,3.4-4.9,5.6h4.9
			v1.8h-7.7c0-2.4,1.5-3.4,3.3-4.7c0.9-0.6,2.2-1.3,2.2-2.6c0.1-0.8-0.5-1.6-1.4-1.6l0,0h-0.2c-1.3,0-1.7,1.3-1.7,2.4L639.9,320.1z"
			/>
	</g>
	<g>
		<path class="st8" d="M651.8,315.9c2.6,0,3.5,1.8,3.5,2.8s-0.6,1.9-1.5,2.2l0,0c1.2,0.2,2.1,1.3,2,2.6c0,2.2-2,3.3-3.9,3.3
			s-4-1-4-3.2c-0.1-1.2,0.8-2.3,2-2.6l0,0c-1-0.3-1.6-1.2-1.5-2.2C648.3,316.9,650.1,315.9,651.8,315.9z M651.8,325.2
			c0.9,0,1.8-0.7,1.8-1.6l0,0v-0.1c0-0.9-0.8-1.7-1.7-1.7l0,0h-0.1c-0.9-0.1-1.7,0.6-1.8,1.5c0,0.1,0,0.1,0,0.2
			C650,324.5,650.8,325.3,651.8,325.2L651.8,325.2L651.8,325.2L651.8,325.2z M651.8,320.3c0.8,0.1,1.5-0.4,1.6-1.2
			c0.1-0.8-0.4-1.5-1.2-1.6c-0.1,0-0.2,0-0.2,0c-0.1,0-0.2,0-0.2,0c-0.8-0.1-1.5,0.5-1.6,1.3l0,0c0,0.1,0,0.1,0,0.2
			C650.3,319.7,651,320.4,651.8,320.3L651.8,320.3L651.8,320.3z"/>
	</g>
	<g>
		<path class="st8" d="M642.8,345.3c0.9,0.1,2.2-0.1,2.2-1.3c0-0.8-0.6-1.4-1.4-1.4h-0.1c-1.1,0-1.6,0.8-1.6,1.9h-2
			c-0.1-1.9,1.4-3.5,3.3-3.6c0.1,0,0.2,0,0.3,0c1.7,0,3.5,1,3.5,2.9c0.1,1-0.5,1.9-1.5,2.1l0,0c1.1,0.2,1.9,1.2,1.8,2.4
			c0,2.2-1.8,3.4-3.9,3.4c-2,0.2-3.7-1.2-3.9-3.2c0-0.2,0-0.4,0-0.6h2c0,1.1,0.6,2.1,1.8,2.1c0.9,0,1.7-0.6,1.7-1.5v-0.1
			c0-1.6-1.4-1.5-2.4-1.5L642.8,345.3z"/>
	</g>
	<g>
		<path class="st8" d="M651.8,340.8c2.1,0,3.9,1.3,3.9,5.4s-1.8,5.5-3.9,5.5s-3.8-1.3-3.8-5.5S649.7,340.8,651.8,340.8z
			 M651.8,349.9c1.7,0,1.7-2.6,1.7-3.7s0-3.6-1.7-3.6s-1.7,2.6-1.7,3.6S650.1,349.9,651.8,349.9L651.8,349.9z"/>
	</g>
	<g>
		<path class="st8" d="M642.8,393c0.9,0.1,2.2-0.1,2.2-1.3c0-0.8-0.6-1.4-1.4-1.4l0,0h-0.1c-1.1,0-1.6,0.8-1.6,1.9h-2
			c-0.1-1.9,1.4-3.5,3.3-3.6c0.1,0,0.2,0,0.3,0c1.7,0,3.5,1,3.5,2.9c0.1,1-0.5,1.9-1.5,2.2l0,0c1.1,0.2,1.9,1.2,1.8,2.4
			c0,2.2-1.8,3.4-3.9,3.4c-2.3,0-3.9-1.4-3.9-3.8h2c0,1.1,0.6,2.1,1.8,2.1c0.9,0,1.7-0.6,1.7-1.5v-0.1c0-1.6-1.4-1.5-2.4-1.5
			L642.8,393z"/>
	</g>
	<g>
		<path class="st8" d="M652.3,396.8h-4.4v-2l4.5-6.1h1.9v6.3h1.4v1.8h-1.4v2.4h-2V396.8z M652.3,391.4L652.3,391.4l-2.7,3.6h2.8
			L652.3,391.4z"/>
	</g>
	<g>
		<path class="st8" d="M678,14.5h-2.1V7.7h-2.6V6.1c1.5,0.1,2.8-0.5,3.1-2.1h1.7v10.5H678z"/>
	</g>
	<g>
		<path class="st8" d="M675.6,32.1c0.9,0.1,2.2-0.1,2.2-1.3c0-0.8-0.6-1.4-1.4-1.4h-0.1c-1.1,0-1.6,0.8-1.6,1.9h-2
			c-0.1-1.9,1.4-3.5,3.3-3.6c0.1,0,0.2,0,0.3,0c1.7,0,3.5,1,3.5,2.9c0.1,1-0.5,1.9-1.5,2.2l0,0c1.1,0.2,1.9,1.2,1.9,2.4
			c0,2.2-1.9,3.4-3.9,3.4c-2.3,0-3.9-1.4-3.9-3.8h2c0,1.1,0.6,2.1,1.8,2.1c0.9,0.1,1.7-0.6,1.7-1.5v-0.1c0-1.6-1.4-1.5-2.4-1.5
			L675.6,32.1z"/>
	</g>
	<g>
		<path class="st8" d="M679.6,54.2h-4.3l-0.4,2.4l0,0c0.6-0.6,1.3-0.8,2.1-0.8c1.8,0,3.3,1.5,3.3,3.3c0,0.1,0,0.2,0,0.3
			c0,2.1-1.7,3.8-3.8,3.8h-0.1c-2,0-3.8-1.1-3.9-3.3h2.1c0.1,0.9,0.8,1.6,1.7,1.6c1,0,1.9-0.9,1.8-2l0,0l0,0c0.1-1-0.6-1.9-1.6-2
			l0,0h-0.2c-0.7,0-1.3,0.3-1.6,0.8h-1.9l1-5.8h5.8L679.6,54.2L679.6,54.2z"/>
	</g>
	<g>
		<path class="st8" d="M674.7,107.6c0.1,0.7,0.7,1.3,1.4,1.3c1.5,0,1.9-2,2-3.2l0,0c-0.5,0.8-1.4,1.2-2.4,1.2
			c-0.9,0-1.8-0.4-2.4-1.1c-1.3-1.7-1-4.1,0.7-5.4c0.6-0.5,1.4-0.8,2.2-0.8c3.2,0,4,2.8,4,5.4s-1.1,5.5-4.1,5.5
			c-1.7,0.1-3.2-1.2-3.4-2.9H674.7z M677.9,103.3c0.1-1-0.6-1.9-1.6-1.9l0,0l0,0c-1,0.1-1.7,0.9-1.6,1.9l0,0c-0.1,1,0.5,1.8,1.5,2
			c0.1,0,0.1,0,0.2,0c1,0,1.7-0.9,1.7-1.8C677.9,103.4,677.9,103.4,677.9,103.3L677.9,103.3z"/>
	</g>
	<g>
		<path class="st8" d="M673.9,134.2h-2.1v-6.8h-2.6v-1.6c1.5,0,2.8-0.5,3.1-2.1h1.7L673.9,134.2z"/>
	</g>
	<g>
		<path class="st8" d="M682.2,134.2h-2.1v-6.8h-2.6v-1.6c1.5,0,2.8-0.5,3.1-2.1h1.7v10.5H682.2z"/>
	</g>
	<g>
		<path class="st8" d="M673.9,206.8h-2.1V200h-2.6v-1.6c1.5,0,2.8-0.5,3.1-2.1h1.7L673.9,206.8z"/>
	</g>
	<g>
		<path class="st8" d="M684,198.2c-2.2,1.9-3.4,5.8-3.4,8.7h-2.3c0.3-3.1,1.5-6.1,3.5-8.5h-5v-2h7.2V198.2z"/>
	</g>
	<g>
		<path class="st8" d="M673.9,231.2h-2.1v-6.8h-2.6v-1.6c1.5,0,2.8-0.5,3.1-2.1h1.7L673.9,231.2z"/>
	</g>
	<g>
		<path class="st8" d="M678.8,228.5c0.1,0.7,0.7,1.3,1.4,1.3c1.5,0,1.9-2,2-3.2l0,0c-0.5,0.8-1.4,1.2-2.4,1.2
			c-0.9,0-1.8-0.4-2.4-1.1c-1.3-1.7-1-4.1,0.6-5.3c0.6-0.5,1.4-0.8,2.2-0.8c3.2,0,4,2.8,4,5.4s-1.1,5.5-4.1,5.5
			c-1.7,0.1-3.2-1.2-3.4-2.9L678.8,228.5z M682,224.2c0.1-1-0.6-1.9-1.6-1.9l0,0h-0.1c-1.1,0.3-1.7,1.4-1.5,2.4
			c0.2,0.7,0.7,1.3,1.5,1.5c0.9,0,1.7-0.8,1.7-1.8C682,224.3,682,224.3,682,224.2L682,224.2z"/>
	</g>
	<g>
		<path class="st8" d="M668.5,249.7c-0.1-2.4,1.3-4.2,3.8-4.2c1.8-0.1,3.4,1.2,3.6,3c0,0.1,0,0.1,0,0.2c0,3.2-3.4,3.4-4.9,5.6h5v1.8
			h-7.7c0-2.4,1.5-3.4,3.3-4.7c0.9-0.6,2.2-1.3,2.2-2.6c0.1-0.8-0.5-1.6-1.4-1.6l0,0c-0.1,0-0.1,0-0.2,0c-1.3,0-1.7,1.3-1.7,2.4
			L668.5,249.7z"/>
	</g>
	<g>
		<path class="st8" d="M682.2,256.2h-2.1v-6.8h-2.6v-1.6c1.5,0.1,2.8-0.5,3.1-2.1h1.7v10.5H682.2z"/>
	</g>
	<g>
		<path class="st8" d="M668.5,273.7c-0.1-2.4,1.3-4.2,3.8-4.2c1.8-0.1,3.4,1.2,3.6,3c0,0.1,0,0.1,0,0.2c0,3.2-3.4,3.4-4.9,5.6h5v1.8
			h-7.7c0-2.4,1.5-3.4,3.3-4.7c0.9-0.6,2.2-1.3,2.2-2.6c0.1-0.8-0.5-1.5-1.3-1.6l0,0h-0.2c-1.3,0-1.7,1.3-1.7,2.4L668.5,273.7z"/>
	</g>
	<g>
		<path class="st8" d="M679.7,273.9c0.9,0.1,2.2-0.1,2.2-1.3c0-0.8-0.6-1.4-1.4-1.4l0,0h-0.1c-1.1,0-1.6,0.8-1.6,1.9h-2
			c-0.1-1.9,1.4-3.5,3.3-3.6c0.1,0,0.2,0,0.3,0c1.7,0,3.5,1,3.5,2.9c0.1,1-0.5,1.9-1.5,2.1l0,0c1.1,0.2,1.9,1.2,1.8,2.4
			c0,2.2-1.8,3.4-3.9,3.4c-1.9,0.2-3.7-1.2-3.9-3.2c0-0.2,0-0.4,0-0.6h2c0,1.1,0.6,2.1,1.8,2.1c0.9,0,1.7-0.6,1.7-1.5V277
			c0-1.6-1.4-1.5-2.4-1.5L679.7,273.9z"/>
	</g>
	<g>
		<path class="st8" d="M648.2,36.5h-4.4v-1.9l4.5-6.1h1.9v6.3h1.4v1.8h-1.4V39h-2V36.5z M648.2,31.2L648.2,31.2l-2.7,3.6h2.8
			L648.2,31.2z"/>
	</g>
	<g>
		<path class="st8" d="M645.2,134.8h-2.1V128h-2.6v-1.6c1.5,0,2.8-0.5,3.1-2.1h1.7v10.5H645.2z"/>
	</g>
	<g>
		<path class="st8" d="M648.2,128.4c-0.1-2.4,1.3-4.2,3.8-4.2c1.8-0.1,3.4,1.2,3.6,3.1c0,0.1,0,0.1,0,0.2c0,3.2-3.4,3.4-4.9,5.6h5
			v1.8H648c0-2.4,1.5-3.4,3.3-4.7c0.9-0.6,2.2-1.3,2.2-2.6c0.1-0.8-0.5-1.6-1.4-1.6l0,0h-0.2c-1.3,0-1.7,1.3-1.7,2.4H648.2z"/>
	</g>
	<g>
		<path class="st8" d="M645.2,183.3h-2.1v-6.8h-2.6v-1.6c1.5,0,2.8-0.5,3.1-2.1h1.7v10.5H645.2z"/>
	</g>
	<g>
		<path class="st8" d="M653.5,175.6c-0.1-0.7-0.7-1.3-1.4-1.3c-1.5,0-2,2-2,3.2l0,0c0.5-0.8,1.4-1.2,2.4-1.2c0.9,0,1.8,0.4,2.4,1.1
			c1.3,1.7,1,4.1-0.6,5.4c-0.6,0.5-1.3,0.7-2,0.8H652c-3.2,0-4-2.8-4-5.4s1.1-5.5,4.1-5.5c1.7-0.1,3.2,1.2,3.4,2.9H653.5z
			 M650.2,179.9c-0.1,1,0.6,1.9,1.6,1.9l0,0l0,0c1-0.1,1.7-0.9,1.6-1.9l0,0c0.1-1-0.5-1.8-1.5-2c-0.1,0-0.1,0-0.2,0
			c-1,0-1.7,0.8-1.7,1.8C650.2,179.7,650.2,179.8,650.2,179.9L650.2,179.9z"/>
	</g>
	<g>
		<path class="st8" d="M645.2,207.5h-2.1v-6.8h-2.6v-1.6c1.5,0,2.8-0.5,3.1-2.1h1.7v10.5H645.2z"/>
	</g>
	<g>
		<path class="st8" d="M651.8,196.8c2.6,0,3.5,1.8,3.5,2.8s-0.6,1.9-1.5,2.2l0,0c1.2,0.2,2.1,1.3,2,2.6c0,2.2-2,3.3-3.9,3.3
			s-4-1-4-3.2c-0.1-1.2,0.8-2.3,2-2.6l0,0c-1-0.3-1.6-1.2-1.5-2.2C648.3,197.8,650.1,196.8,651.8,196.8z M651.8,206.1
			c0.9,0,1.8-0.7,1.8-1.6l0,0v-0.1c0-0.9-0.8-1.7-1.7-1.7h-0.1c-0.9-0.1-1.7,0.6-1.8,1.5c0,0.1,0,0.1,0,0.2
			C650,205.4,650.7,206.2,651.8,206.1L651.8,206.1L651.8,206.1L651.8,206.1z M651.8,201.2c0.8,0.1,1.5-0.5,1.5-1.3
			c0.1-0.8-0.5-1.5-1.3-1.5l0,0c-0.1,0-0.2,0-0.2,0c-0.8-0.1-1.5,0.5-1.6,1.3l0,0c0,0.1,0,0.1,0,0.2
			C650.3,200.6,651,201.3,651.8,201.2L651.8,201.2L651.8,201.2z"/>
	</g>
	<g>
		<path class="st8" d="M639.9,250.4c-0.1-2.4,1.3-4.2,3.8-4.2c1.8-0.1,3.4,1.2,3.6,3.1c0,0.1,0,0.1,0,0.2c0,3.2-3.4,3.4-4.9,5.6h4.9
			v1.8h-7.7c0-2.4,1.5-3.4,3.3-4.7c0.9-0.6,2.2-1.3,2.2-2.6c0.1-0.8-0.5-1.5-1.3-1.6l0,0h-0.2c-1.3,0-1.7,1.3-1.7,2.4L639.9,250.4z"
			/>
	</g>
	<g>
		<path class="st8" d="M648.2,250.4c-0.1-2.4,1.3-4.2,3.8-4.2c1.8-0.1,3.4,1.2,3.6,3.1c0,0.1,0,0.1,0,0.2c0,3.2-3.4,3.4-4.9,5.6h5
			v1.8H648c0-2.4,1.5-3.4,3.3-4.7c0.9-0.6,2.2-1.3,2.2-2.6c0.1-0.8-0.5-1.6-1.4-1.6l0,0h-0.2c-1.3,0-1.7,1.3-1.7,2.4L648.2,250.4z"
			/>
	</g>
	<g>
		<path class="st8" d="M649.3,55.8c-0.1-0.7-0.7-1.3-1.4-1.3c-1.5,0-2,2-2,3.2l0,0c0.5-0.8,1.4-1.2,2.4-1.2c0.9,0,1.8,0.4,2.4,1.1
			c1.3,1.7,1,4.1-0.7,5.4c-0.6,0.5-1.4,0.8-2.2,0.8c-3.2,0-4-2.8-4-5.4s1.1-5.5,4.1-5.5c1.7-0.1,3.2,1.2,3.4,2.9H649.3z M646.1,60.1
			c-0.1,1,0.6,1.9,1.6,2l0,0l0,0c1-0.1,1.7-0.9,1.6-1.9l0,0c0.1-0.9-0.5-1.8-1.4-1.9c-0.9-0.1-1.8,0.5-1.9,1.4
			C646,59.8,646,60,646.1,60.1L646.1,60.1z"/>
	</g>
	<g>
		<polygon class="st11" points="620.6,24.2 600.3,24.2 590.2,32.9 600.3,41.7 620.6,41.7 630.7,32.9 		"/>
	</g>
	<g>
		<path class="st8" d="M605.9,36.1c-0.6,0.8-1.6,1.3-2.6,1.3c-2.9,0-4.7-2.2-4.7-4.9s1.7-5,4.7-5c2-0.1,3.8,1.4,4,3.4h-2
			c-0.2-1-1-1.7-2-1.6c-1.9,0-2.6,1.6-2.6,3.2c0,1.6,0.7,3.2,2.6,3.2c1.1,0.1,2.1-0.6,2.2-1.7v-0.1c0-0.1,0-0.2,0-0.2h-2.1v-1.5h4
			v5.1h-1.3L605.9,36.1z"/>
	</g>
	<g>
		<path class="st8" d="M609.1,27.7h2.1l4,6.4l0,0v-6.4h2v9.5h-2.1l-4-6.4l0,0v6.4h-2V27.7z"/>
	</g>
	<g>
		<path class="st8" d="M619,27.7h4.1c2.5,0,4.3,1.5,4.3,4.7c0,2.8-1.4,4.8-4.3,4.8H619V27.7z M621.1,35.5h1.9c1.2,0,2.4-0.7,2.4-2.8
			c0-1.9-0.7-3.1-2.7-3.1h-1.5L621.1,35.5z"/>
	</g>
	<g>
		<path class="st11" d="M620.9,458.3h9.9c1.4,0,2.5,1.1,2.5,2.5v12.5c0,1.4-1.1,2.5-2.5,2.5h-9.9c-1.4,0-2.5-1.1-2.5-2.5v-12.5
			C618.4,459.4,619.5,458.3,620.9,458.3z"/>
	</g>
	<g>
		<polygon class="st11" points="620.6,458.3 600.3,458.3 590.2,467 600.3,475.7 620.6,475.7 630.7,467 		"/>
	</g>
	<g>
		<path class="st8" d="M605.9,470.2c-0.6,0.8-1.6,1.3-2.6,1.3c-2.9,0-4.7-2.2-4.7-4.9s1.7-5,4.7-5c2-0.1,3.8,1.4,4,3.4h-2
			c-0.2-1-1-1.6-2-1.6c-1.9,0-2.6,1.6-2.6,3.2s0.7,3.2,2.6,3.2c1.1,0.1,2.1-0.6,2.2-1.7V468c0-0.1,0-0.2,0-0.2h-2.1v-1.6h4v5.1h-1.3
			L605.9,470.2z"/>
	</g>
	<g>
		<path class="st8" d="M609.1,461.8h2.1l4,6.4l0,0v-6.4h2v9.5h-2.1l-4-6.4l0,0v6.4h-2V461.8z"/>
	</g>
	<g>
		<path class="st8" d="M619,461.8h4.1c2.5,0,4.3,1.6,4.3,4.7c0,2.8-1.4,4.8-4.3,4.8H619V461.8z M621.1,469.5h1.9
			c1.2,0,2.4-0.8,2.4-2.9c0-1.9-0.7-3.1-2.7-3.1h-1.5L621.1,469.5z"/>
	</g>
	<g>
		<path class="st11" d="M693.3,24.2h9.9c1.4,0,2.5,1.1,2.5,2.5v12.5c0,1.4-1.1,2.5-2.5,2.5h-9.9c-1.4,0-2.5-1.1-2.5-2.5V26.7
			C690.8,25.3,691.9,24.2,693.3,24.2z"/>
	</g>
	<g>
		<polygon class="st11" points="703.6,24.2 723.9,24.2 734,33 723.9,41.7 703.6,41.7 693.5,33 		"/>
	</g>
	<g>
		<path class="st8" d="M703.8,36.1c-0.6,0.8-1.6,1.3-2.6,1.3c-2.9,0-4.7-2.2-4.7-4.9s1.8-5,4.7-5c2-0.1,3.8,1.4,4,3.4h-2
			c-0.2-1-1-1.7-2-1.6c-1.9,0-2.6,1.6-2.6,3.2c0,1.6,0.7,3.2,2.6,3.2c1.1,0.1,2.1-0.7,2.2-1.8c0-0.1,0-0.2,0-0.2h-2.1v-1.5h4v5.1
			H704L703.8,36.1z"/>
	</g>
	<g>
		<path class="st8" d="M707,27.7h2.1l4,6.4l0,0v-6.4h2v9.5H713l-4-6.4l0,0v6.4h-2V27.7z"/>
	</g>
	<g>
		<path class="st8" d="M716.9,27.7h4.1c2.5,0,4.3,1.6,4.3,4.7c0,2.8-1.4,4.8-4.3,4.8h-4.1V27.7z M719,35.5h1.9
			c1.2,0,2.4-0.8,2.4-2.8c0-1.9-0.7-3.1-2.8-3.1H719V35.5z"/>
	</g>
	<g>
		<path class="st11" d="M693.3,458.3h9.9c1.4,0,2.5,1.1,2.5,2.5v12.5c0,1.4-1.1,2.5-2.5,2.5h-9.9c-1.4,0-2.5-1.1-2.5-2.5v-12.5
			C690.8,459.4,691.9,458.3,693.3,458.3z"/>
	</g>
	<g>
		<polygon class="st11" points="703.6,458.3 723.9,458.3 734,467 723.9,475.7 703.6,475.7 693.5,467 		"/>
	</g>
	<g>
		<path class="st8" d="M703.8,470.2c-0.6,0.8-1.6,1.3-2.6,1.3c-2.9,0-4.7-2.2-4.7-4.9s1.8-5,4.7-5c2-0.1,3.8,1.4,4,3.4h-2
			c-0.2-1-1-1.6-2-1.6c-1.9,0-2.6,1.6-2.6,3.3s0.7,3.2,2.6,3.2c1.1,0.1,2.1-0.7,2.2-1.8c0-0.1,0-0.2,0-0.2h-2.1v-1.6h4v5.1H704
			L703.8,470.2z"/>
	</g>
	<g>
		<path class="st8" d="M707,461.8h2.1l4,6.4l0,0v-6.4h2v9.5H713l-4-6.4l0,0v6.4h-2V461.8z"/>
	</g>
	<g>
		<path class="st8" d="M716.9,461.8h4.1c2.5,0,4.3,1.5,4.3,4.7c0,2.8-1.4,4.8-4.3,4.8h-4.1V461.8z M719,469.5h1.9
			c1.2,0,2.4-0.7,2.4-2.9c0-1.9-0.7-3.1-2.8-3.1H719V469.5z"/>
	</g>
	<g>
		<path class="st8" d="M647.7,76.8c2.6,0,3.5,1.8,3.5,2.8s-0.6,1.9-1.5,2.2l0,0c1.2,0.2,2.1,1.3,2,2.6c0,2.2-2,3.3-3.9,3.3
			s-4-1-4-3.2c-0.1-1.2,0.8-2.3,2-2.6l0,0c-1-0.3-1.6-1.2-1.5-2.2C644.2,77.8,646,76.8,647.7,76.8z M647.7,86.1
			c0.9,0,1.8-0.7,1.8-1.6l0,0v-0.1c0-0.9-0.8-1.7-1.7-1.7h-0.1c-0.9-0.1-1.7,0.6-1.8,1.5c0,0.1,0,0.1,0,0.2c0,1,0.8,1.8,1.7,1.8
			C647.6,86.1,647.6,86.1,647.7,86.1C647.6,86.1,647.7,86.1,647.7,86.1z M647.7,81.2c0.8,0.1,1.5-0.5,1.5-1.3s-0.5-1.5-1.3-1.5
			c-0.1,0-0.2,0-0.2,0c-0.8-0.1-1.5,0.5-1.6,1.3l0,0v0.2C646.1,80.7,646.8,81.3,647.7,81.2C647.6,81.3,647.6,81.3,647.7,81.2
			L647.7,81.2z"/>
	</g>
	<g>
		<path class="st8" d="M645.2,111h-2.1v-6.8h-2.6v-1.6c1.5,0,2.8-0.5,3.1-2.1h1.7V111H645.2z"/>
	</g>
	<g>
		<path class="st8" d="M651.8,100.3c2.1,0,3.9,1.3,3.9,5.4s-1.8,5.5-3.9,5.5s-3.8-1.3-3.8-5.5S649.7,100.3,651.8,100.3z
			 M651.8,109.4c1.7,0,1.7-2.6,1.7-3.7s0-3.7-1.7-3.7s-1.7,2.6-1.7,3.7S650.1,109.4,651.8,109.4z"/>
	</g>
	<g>
		<path class="st8" d="M645.2,159.4h-2.1v-6.8h-2.6V151c1.5,0.1,2.8-0.5,3.1-2.1h1.7v10.5H645.2z"/>
	</g>
	<g>
		<path class="st8" d="M652.3,157h-4.4v-2l4.5-6.1h1.9v6.3h1.4v1.8h-1.4v2.4h-2V157z M652.3,151.6L652.3,151.6l-2.7,3.6h2.8
			L652.3,151.6z"/>
	</g>
	<g>
		<path class="st8" d="M639.9,225.4c-0.1-2.4,1.3-4.2,3.8-4.2c1.8-0.1,3.4,1.2,3.6,3c0,0.1,0,0.1,0,0.2c0,3.2-3.4,3.4-4.9,5.6h4.9
			v1.8h-7.7c0-2.4,1.5-3.4,3.3-4.7c0.9-0.6,2.2-1.3,2.2-2.6c0.1-0.8-0.5-1.5-1.3-1.6l0,0h-0.2c-1.3,0-1.7,1.3-1.7,2.4L639.9,225.4z"
			/>
	</g>
	<g>
		<path class="st8" d="M651.8,221.2c2.1,0,3.9,1.3,3.9,5.4s-1.8,5.5-3.9,5.5s-3.8-1.3-3.8-5.5S649.7,221.2,651.8,221.2z
			 M651.8,230.3c1.7,0,1.7-2.6,1.7-3.8s0-3.6-1.7-3.6s-1.7,2.6-1.7,3.6S650.1,230.3,651.8,230.3L651.8,230.3z"/>
	</g>
	<g>
		<path class="st8" d="M639.9,274.2c-0.1-2.4,1.3-4.2,3.8-4.2c1.8-0.1,3.4,1.2,3.6,3.1c0,0.1,0,0.1,0,0.2c0,3.2-3.4,3.4-4.9,5.6h4.9
			v1.8h-7.7c0-2.4,1.5-3.4,3.3-4.7c0.9-0.6,2.2-1.3,2.2-2.6c0.1-0.8-0.5-1.6-1.4-1.6l0,0h-0.2c-1.3,0-1.7,1.3-1.7,2.4L639.9,274.2z"
			/>
	</g>
	<g>
		<path class="st8" d="M652.3,278.2h-4.4v-1.9l4.5-6.1h1.9v6.3h1.4v1.8h-1.4v2.4h-2V278.2z M652.3,272.9L652.3,272.9l-2.7,3.6h2.8
			L652.3,272.9z"/>
	</g>
	<g>
		<path class="st8" d="M679.9,78.2c-2.2,1.9-3.4,5.8-3.4,8.6h-2.3c0.3-3.1,1.5-6.1,3.5-8.5h-5v-2h7.2V78.2z"/>
	</g>
	<g>
		<path class="st12" d="M620.9,265.6h9.9c1.4,0,2.5,1.1,2.5,2.5v12.5c0,1.4-1.1,2.5-2.5,2.5h-9.9c-1.4,0-2.5-1.1-2.5-2.5v-12.5
			C618.4,266.7,619.5,265.6,620.9,265.6z"/>
	</g>
	<g>
		<polygon class="st12" points="607,265.6 624.5,265.6 633.3,274.3 624.5,283 607,283 598.2,274.3 		"/>
	</g>
	<g>
		<path class="st8" d="M609.7,269h2.1l4,6.4l0,0V269h2v9.5h-2.1l-4-6.4l0,0v6.4h-2V269z"/>
	</g>
	<g>
		<path class="st8" d="M625.9,272.2c-0.2-1-1.1-1.7-2.1-1.7c-1.9,0-2.6,1.6-2.6,3.2s0.7,3.2,2.6,3.2c1.2,0,2.1-0.9,2.2-2.1l0,0h2
			c-0.1,2.2-1.9,4-4.1,3.9h-0.1c-2.9,0-4.7-2.2-4.7-4.9s1.7-5,4.7-5c2.1-0.1,3.9,1.4,4.1,3.4H625.9z"/>
	</g>
	<g>
		<path class="st12" d="M620.9,0h9.9c1.4,0,2.5,1.1,2.5,2.5V15c0,1.4-1.1,2.5-2.5,2.5h-9.9c-1.4,0-2.5-1.1-2.5-2.5V2.5
			C618.4,1.1,619.5,0,620.9,0z"/>
	</g>
	<g>
		<polygon class="st12" points="607,0 624.5,0 633.3,8.7 624.5,17.5 607,17.5 598.2,8.7 		"/>
	</g>
	<g>
		<path class="st8" d="M609.7,3.5h2.1l4,6.4l0,0V3.5h2V13h-2.1l-4-6.4l0,0V13h-2V3.5z"/>
	</g>
	<g>
		<path class="st8" d="M625.9,6.7c-0.2-1-1.1-1.7-2.1-1.7c-1.9,0-2.6,1.6-2.6,3.2s0.7,3.2,2.6,3.2c1.2,0,2.2-0.9,2.2-2.1
			c0,0,0,0,0-0.1h2c-0.1,2.2-1.9,4-4.1,3.9h-0.1c-2.9,0-4.7-2.2-4.7-4.9s1.7-5,4.7-5c2.1-0.1,3.9,1.4,4.1,3.4h-2V6.7z"/>
	</g>
	<g>
		<path class="st12" d="M620.9,73h9.9c1.4,0,2.5,1.1,2.5,2.5V88c0,1.4-1.1,2.5-2.5,2.5h-9.9c-1.4,0-2.5-1.1-2.5-2.5V75.5
			C618.4,74.1,619.5,73,620.9,73z"/>
	</g>
	<g>
		<polygon class="st12" points="607,73 624.5,73 633.3,81.8 624.5,90.5 607,90.5 598.2,81.8 		"/>
	</g>
	<g>
		<path class="st8" d="M609.7,76.5h2.1l4,6.4l0,0v-6.4h2V86h-2.1l-4-6.4l0,0V86h-2V76.5z"/>
	</g>
	<g>
		<path class="st8" d="M625.9,79.7c-0.2-1-1.1-1.7-2.1-1.7c-1.9,0-2.6,1.6-2.6,3.2s0.7,3.2,2.6,3.2c1.2,0,2.2-0.9,2.2-2.1l0,0h2
			c-0.1,2.2-1.9,4-4.1,3.9h-0.1c-2.9,0-4.7-2.2-4.7-4.9s1.7-5,4.7-5c2.1-0.1,3.9,1.4,4.1,3.4H625.9z"/>
	</g>
	<g>
		<path class="st12" d="M693.2,0h9.9c1.4,0,2.5,1.1,2.5,2.5V15c0,1.4-1.1,2.5-2.5,2.5h-9.9c-1.4,0-2.5-1.1-2.5-2.5V2.5
			C690.7,1.1,691.8,0,693.2,0z"/>
	</g>
	<g>
		<polygon class="st12" points="717,0 699.5,0 690.7,8.7 699.5,17.4 717,17.4 725.8,8.7 		"/>
	</g>
	<g>
		<path class="st8" d="M697.1,3.5h2.1l4,6.4l0,0V3.5h2V13h-2.1l-3.9-6.4l0,0V13h-2L697.1,3.5z"/>
	</g>
	<g>
		<path class="st8" d="M713.3,6.7c-0.2-1-1.1-1.7-2.1-1.7c-1.9,0-2.6,1.6-2.6,3.2s0.7,3.2,2.6,3.2c1.2,0,2.2-0.9,2.2-2.1l0,0h2
			c-0.1,2.2-1.9,3.9-4.1,3.9h-0.1c-2.9,0-4.7-2.2-4.7-4.9s1.7-5,4.7-5c2.1-0.1,3.9,1.4,4.1,3.4L713.3,6.7z"/>
	</g>
	<g>
		<path class="st12" d="M693.2,48.5h9.9c1.4,0,2.5,1.1,2.5,2.5v12.5c0,1.4-1.1,2.5-2.5,2.5h-9.9c-1.4,0-2.5-1.1-2.5-2.5V50.9
			C690.7,49.6,691.8,48.5,693.2,48.5z"/>
	</g>
	<g>
		<polygon class="st12" points="717,48.5 699.5,48.5 690.7,57.2 699.5,65.9 717,65.9 725.8,57.2 		"/>
	</g>
	<g>
		<path class="st8" d="M697.1,51.9h2.1l4,6.4l0,0v-6.4h2v9.5h-2.1l-4-6.4l0,0v6.4h-2V51.9z"/>
	</g>
	<g>
		<path class="st8" d="M713.3,55.1c-0.2-1-1.1-1.7-2.1-1.7c-1.9,0-2.6,1.6-2.6,3.2s0.7,3.2,2.6,3.2c1.2,0,2.2-0.9,2.2-2.1l0,0h2
			c-0.1,2.2-1.9,4-4.1,3.9h-0.1c-2.9,0-4.7-2.2-4.7-4.9s1.7-5,4.7-5c2.1-0.1,3.9,1.4,4.1,3.4L713.3,55.1z"/>
	</g>
	<g>
		<path class="st12" d="M693.2,73h9.9c1.4,0,2.5,1.1,2.5,2.5V88c0,1.4-1.1,2.5-2.5,2.5h-9.9c-1.4,0-2.5-1.1-2.5-2.5V75.5
			C690.7,74.1,691.8,73,693.2,73z"/>
	</g>
	<g>
		<polygon class="st12" points="717,73 699.5,73 690.7,81.8 699.5,90.5 717,90.5 725.8,81.8 		"/>
	</g>
	<g>
		<path class="st8" d="M697.1,76.5h2.1l4,6.4l0,0v-6.4h2V86h-2.1l-4-6.4l0,0V86h-2V76.5z"/>
	</g>
	<g>
		<path class="st8" d="M713.3,79.7c-0.2-1-1.1-1.7-2.1-1.7c-1.9,0-2.6,1.6-2.6,3.2s0.7,3.2,2.6,3.2c1.2,0,2.2-0.9,2.2-2.1l0,0h2
			c-0.1,2.2-1.9,4-4.1,3.9h-0.1c-2.9,0-4.7-2.2-4.7-4.9s1.7-5,4.7-5c2.1-0.1,3.9,1.4,4.1,3.4H713.3z"/>
	</g>
	<g>
		<path class="st12" d="M620.9,96.5h9.9c1.4,0,2.5,1.1,2.5,2.5v12.5c0,1.4-1.1,2.5-2.5,2.5h-9.9c-1.4,0-2.5-1.1-2.5-2.5V99
			C618.4,97.6,619.5,96.5,620.9,96.5z"/>
	</g>
	<g>
		<polygon class="st12" points="607,96.5 624.5,96.5 633.3,105.3 624.5,114 607,114 598.2,105.3 		"/>
	</g>
	<g>
		<path class="st8" d="M609.7,100h2.1l4,6.4l0,0V100h2v9.5h-2.1l-4-6.4l0,0v6.4h-2V100z"/>
	</g>
	<g>
		<path class="st8" d="M625.9,103.2c-0.2-1-1.1-1.7-2.1-1.7c-1.9,0-2.6,1.6-2.6,3.2s0.7,3.2,2.6,3.2c1.2,0,2.1-0.9,2.2-2.1l0,0h2
			c-0.1,2.2-1.9,4-4.1,3.9h-0.1c-2.9,0-4.7-2.2-4.7-4.9s1.7-5,4.7-5c2.1-0.1,3.9,1.4,4.1,3.4H625.9z"/>
	</g>
	<g>
		<path class="st12" d="M693.2,96.5h9.9c1.4,0,2.5,1.1,2.5,2.5v12.5c0,1.4-1.1,2.5-2.5,2.5h-9.9c-1.4,0-2.5-1.1-2.5-2.5V99
			C690.7,97.6,691.8,96.5,693.2,96.5z"/>
	</g>
	<g>
		<polygon class="st12" points="717,96.5 699.5,96.5 690.7,105.3 699.5,114 717,114 725.8,105.3 		"/>
	</g>
	<g>
		<path class="st8" d="M697.1,100h2.1l4,6.4l0,0V100h2v9.5h-2.1l-4-6.4l0,0v6.4h-2V100z"/>
	</g>
	<g>
		<path class="st8" d="M713.3,103.2c-0.2-1-1.1-1.7-2.1-1.7c-1.9,0-2.6,1.6-2.6,3.2s0.7,3.2,2.6,3.2c1.2,0,2.2-0.9,2.2-2.1l0,0h2
			c-0.1,2.2-1.9,4-4.1,3.9h-0.1c-2.9,0-4.7-2.2-4.7-4.9s1.7-5,4.7-5c2.1-0.1,3.9,1.4,4.1,3.4H713.3z"/>
	</g>
	<g>
		<path class="st12" d="M620.9,120.1h9.9c1.4,0,2.5,1.1,2.5,2.5V135c0,1.4-1.1,2.5-2.5,2.5h-9.9c-1.4,0-2.5-1.1-2.5-2.5v-12.5
			C618.4,121.2,619.5,120.1,620.9,120.1z"/>
	</g>
	<g>
		<polygon class="st12" points="607,120.1 624.5,120.1 633.3,128.8 624.5,137.5 607,137.5 598.2,128.8 		"/>
	</g>
	<g>
		<path class="st8" d="M609.7,123.5h2.1l4,6.4l0,0v-6.4h2v9.5h-2.1l-4-6.4l0,0v6.4h-2V123.5z"/>
	</g>
	<g>
		<path class="st8" d="M625.9,126.7c-0.2-1-1.1-1.7-2.1-1.7c-1.9,0-2.6,1.6-2.6,3.2c0,1.6,0.7,3.2,2.6,3.2c1.2,0,2.2-1,2.2-2.1l0,0
			h2c-0.1,2.2-1.9,4-4.1,3.9h-0.1c-2.9,0-4.7-2.2-4.7-4.9s1.7-5,4.7-5c2.1-0.1,3.9,1.4,4.1,3.4L625.9,126.7z"/>
	</g>
	<g>
		<path class="st12" d="M693.2,120.1h9.9c1.4,0,2.5,1.1,2.5,2.5V135c0,1.4-1.1,2.5-2.5,2.5h-9.9c-1.4,0-2.5-1.1-2.5-2.5v-12.5
			C690.7,121.2,691.8,120.1,693.2,120.1z"/>
	</g>
	<g>
		<polygon class="st12" points="717,120.1 699.5,120.1 690.7,128.8 699.5,137.5 717,137.5 725.8,128.8 		"/>
	</g>
	<g>
		<path class="st8" d="M697.1,123.5h2.1l4,6.4l0,0v-6.4h2v9.5h-2.1l-4-6.4l0,0v6.4h-2V123.5z"/>
	</g>
	<g>
		<path class="st8" d="M713.3,126.7c-0.2-1-1.1-1.7-2.1-1.7c-1.9,0-2.6,1.6-2.6,3.2c0,1.6,0.7,3.2,2.6,3.2c1.2,0,2.2-0.9,2.2-2.1
			l0,0h2c-0.1,2.2-1.9,4-4.1,3.9h-0.1c-2.9,0-4.7-2.2-4.7-4.9s1.7-5,4.7-5c2.1-0.1,3.9,1.4,4.1,3.4L713.3,126.7z"/>
	</g>
	<g>
		<path class="st12" d="M693.2,144.1h9.9c1.4,0,2.5,1.1,2.5,2.5v12.5c0,1.4-1.1,2.5-2.5,2.5h-9.9c-1.4,0-2.5-1.1-2.5-2.5v-12.5
			C690.7,145.3,691.8,144.1,693.2,144.1z"/>
	</g>
	<g>
		<polygon class="st12" points="717,144.1 699.5,144.1 690.7,152.9 699.5,161.6 717,161.6 725.8,152.9 		"/>
	</g>
	<g>
		<path class="st8" d="M697.1,147.6h2.1l4,6.4l0,0v-6.4h2v9.5h-2.1l-4-6.4l0,0v6.4h-2V147.6z"/>
	</g>
	<g>
		<path class="st8" d="M713.3,150.8c-0.2-1-1.1-1.7-2.1-1.7c-1.9,0-2.6,1.6-2.6,3.2s0.7,3.2,2.6,3.2c1.2,0,2.2-0.9,2.2-2.1l0,0h2
			c-0.1,2.2-1.9,4-4.1,3.9h-0.1c-2.9,0-4.7-2.2-4.7-4.9s1.7-5,4.7-5c2.1-0.1,3.9,1.4,4.1,3.4L713.3,150.8z"/>
	</g>
	<g>
		<path class="st12" d="M620.9,168.2h9.9c1.4,0,2.5,1.1,2.5,2.5v12.5c0,1.4-1.1,2.5-2.5,2.5h-9.9c-1.4,0-2.5-1.1-2.5-2.5v-12.5
			C618.4,169.3,619.5,168.2,620.9,168.2z"/>
	</g>
	<g>
		<polygon class="st12" points="607,168.2 624.5,168.2 633.3,177 624.5,185.7 607,185.7 598.2,177 		"/>
	</g>
	<g>
		<path class="st8" d="M609.7,171.7h2.1l4,6.4l0,0v-6.4h2v9.5h-2.1l-4-6.4l0,0v6.4h-2V171.7z"/>
	</g>
	<g>
		<path class="st8" d="M625.9,174.9c-0.2-1-1.1-1.7-2.1-1.7c-1.9,0-2.6,1.6-2.6,3.2s0.7,3.2,2.6,3.2c1.2,0,2.1-0.9,2.2-2.1h2
			c-0.1,2.2-1.9,4-4.1,3.9h-0.1c-2.9,0-4.7-2.2-4.7-5s1.7-5,4.7-5c2.1-0.1,3.9,1.4,4.1,3.4L625.9,174.9z"/>
	</g>
	<g>
		<path class="st12" d="M620.9,144.4h9.9c1.4,0,2.5,1.1,2.5,2.5v12.5c0,1.4-1.1,2.5-2.5,2.5h-9.9c-1.4,0-2.5-1.1-2.5-2.5v-12.5
			C618.4,145.5,619.5,144.4,620.9,144.4z"/>
	</g>
	<g>
		<polygon class="st12" points="607,144.4 624.5,144.4 633.3,153.1 624.5,161.8 607,161.8 598.2,153.1 		"/>
	</g>
	<g>
		<path class="st8" d="M609.7,147.9h2.1l4,6.4l0,0v-6.4h2v9.5h-2.1l-4-6.4l0,0v6.4h-2V147.9z"/>
	</g>
	<g>
		<path class="st8" d="M625.9,151.1c-0.2-1-1.1-1.7-2.1-1.7c-1.9,0-2.6,1.6-2.6,3.2s0.7,3.2,2.6,3.2c1.2,0,2.1-0.9,2.2-2.1l0,0h2
			c-0.1,2.2-1.9,4-4.1,3.9h-0.1c-2.9,0-4.7-2.2-4.7-5s1.7-5,4.7-5c2.1-0.1,3.9,1.4,4.1,3.4L625.9,151.1z"/>
	</g>
	<g>
		<path class="st12" d="M693.2,168.2h9.9c1.4,0,2.5,1.1,2.5,2.5v12.5c0,1.4-1.1,2.5-2.5,2.5h-9.9c-1.4,0-2.5-1.1-2.5-2.5v-12.5
			C690.7,169.3,691.8,168.2,693.2,168.2z"/>
	</g>
	<g>
		<polygon class="st12" points="717,168.2 699.5,168.2 690.7,177 699.5,185.7 717,185.7 725.8,177 		"/>
	</g>
	<g>
		<path class="st8" d="M697.1,171.7h2.1l4,6.4l0,0v-6.4h2v9.5h-2.1l-4-6.4l0,0v6.4h-2V171.7z"/>
	</g>
	<g>
		<path class="st8" d="M713.3,174.9c-0.2-1-1.1-1.7-2.1-1.7c-1.9,0-2.6,1.6-2.6,3.2s0.7,3.2,2.6,3.2c1.2,0,2.2-0.9,2.2-2.1l0,0h2
			c-0.1,2.2-1.9,4-4.1,3.9h-0.1c-2.9,0-4.7-2.2-4.7-5s1.7-5,4.7-5c2.1-0.1,3.9,1.4,4.1,3.4L713.3,174.9z"/>
	</g>
	<g>
		<path class="st12" d="M620.9,192.3h9.9c1.4,0,2.5,1.1,2.5,2.5v12.5c0,1.4-1.1,2.5-2.5,2.5h-9.9c-1.4,0-2.5-1.1-2.5-2.5v-12.5
			C618.4,193.4,619.5,192.3,620.9,192.3z"/>
	</g>
	<g>
		<polygon class="st12" points="607,192.3 624.5,192.3 633.3,201.1 624.5,209.8 607,209.8 598.2,201.1 		"/>
	</g>
	<g>
		<path class="st8" d="M609.7,195.8h2.1l4,6.4l0,0v-6.4h2v9.5h-2.1l-4-6.3l0,0v6.3h-2V195.8z"/>
	</g>
	<g>
		<path class="st8" d="M625.9,199c-0.2-1-1.1-1.7-2.1-1.7c-1.9,0-2.6,1.6-2.6,3.3s0.7,3.2,2.6,3.2c1.2,0,2.1-0.9,2.2-2.1h2
			c-0.1,2.2-1.9,4-4.1,3.9h-0.1c-2.9,0-4.7-2.2-4.7-4.9s1.7-5,4.7-5c2.1-0.1,3.9,1.4,4.1,3.4L625.9,199z"/>
	</g>
	<g>
		<path class="st12" d="M693.2,192.3h9.9c1.4,0,2.5,1.1,2.5,2.5v12.5c0,1.4-1.1,2.5-2.5,2.5h-9.9c-1.4,0-2.5-1.1-2.5-2.5v-12.5
			C690.7,193.4,691.8,192.3,693.2,192.3z"/>
	</g>
	<g>
		<polygon class="st12" points="717,192.3 699.5,192.3 690.7,201.1 699.5,209.8 717,209.8 725.8,201.1 		"/>
	</g>
	<g>
		<path class="st8" d="M697.1,195.8h2.1l4,6.4l0,0v-6.4h2v9.5h-2.1l-4-6.4l0,0v6.4h-2V195.8z"/>
	</g>
	<g>
		<path class="st8" d="M713.3,199c-0.2-1-1.1-1.7-2.1-1.6c-1.9,0-2.6,1.6-2.6,3.2s0.7,3.2,2.6,3.2c1.2,0,2.2-0.9,2.2-2.1l0,0h2
			c-0.1,2.2-1.9,4-4.1,3.9h-0.1c-2.9,0-4.7-2.2-4.7-4.9s1.7-5,4.7-5c2.1-0.2,3.9,1.3,4.1,3.4L713.3,199L713.3,199z"/>
	</g>
	<g>
		<path class="st12" d="M620.9,216.7h9.9c1.4,0,2.5,1.1,2.5,2.5v12.5c0,1.4-1.1,2.5-2.5,2.5h-9.9c-1.4,0-2.5-1.1-2.5-2.5v-12.5
			C618.4,217.8,619.5,216.7,620.9,216.7z"/>
	</g>
	<g>
		<polygon class="st12" points="607,216.7 624.5,216.7 633.3,225.4 624.5,234.2 607,234.2 598.2,225.4 		"/>
	</g>
	<g>
		<path class="st8" d="M609.7,220.2h2.1l4,6.4l0,0v-6.4h2v9.5h-2.1l-4-6.4l0,0v6.4h-2V220.2z"/>
	</g>
	<g>
		<path class="st8" d="M625.9,223.4c-0.2-1-1.1-1.7-2.1-1.7c-1.9,0-2.6,1.6-2.6,3.2s0.7,3.2,2.6,3.2c1.2,0,2.2-0.9,2.2-2.1
			c0,0,0,0,0-0.1h2c-0.1,2.2-1.9,4-4.1,3.9h-0.1c-2.9,0-4.7-2.2-4.7-4.9s1.7-5,4.7-5c2.1-0.1,3.9,1.4,4.1,3.4L625.9,223.4z"/>
	</g>
	<g>
		<path class="st12" d="M693.2,216.7h9.9c1.4,0,2.5,1.1,2.5,2.5v12.5c0,1.4-1.1,2.5-2.5,2.5h-9.9c-1.4,0-2.5-1.1-2.5-2.5v-12.5
			C690.7,217.8,691.8,216.7,693.2,216.7z"/>
	</g>
	<g>
		<polygon class="st12" points="717,216.7 699.5,216.7 690.7,225.4 699.5,234.2 717,234.2 725.8,225.4 		"/>
	</g>
	<g>
		<path class="st8" d="M697.1,220.2h2.1l4,6.4l0,0v-6.4h2v9.5h-2.1l-4-6.4l0,0v6.4h-2V220.2z"/>
	</g>
	<g>
		<path class="st8" d="M713.3,223.4c-0.2-1-1.1-1.7-2.1-1.7c-1.9,0-2.6,1.6-2.6,3.2s0.7,3.2,2.6,3.2c1.2,0,2.2-0.9,2.2-2.1l0,0h2
			c-0.1,2.2-1.9,4-4.1,3.9h-0.1c-2.9,0-4.7-2.2-4.7-4.9s1.7-5,4.7-5c2.1-0.1,3.9,1.4,4.1,3.4L713.3,223.4z"/>
	</g>
	<g>
		<path class="st12" d="M620.9,241.9h9.9c1.4,0,2.5,1.1,2.5,2.5v12.5c0,1.4-1.1,2.5-2.5,2.5h-9.9c-1.4,0-2.5-1.1-2.5-2.5v-12.5
			C618.4,243,619.5,241.9,620.9,241.9z"/>
	</g>
	<g>
		<polygon class="st12" points="607,241.9 624.5,241.9 633.3,250.7 624.5,259.4 607,259.4 598.2,250.7 		"/>
	</g>
	<g>
		<path class="st8" d="M609.7,245.4h2.1l4,6.4l0,0v-6.4h2v9.5h-2.1l-4-6.4l0,0v6.4h-2V245.4z"/>
	</g>
	<g>
		<path class="st8" d="M625.9,248.6c-0.2-1-1.1-1.7-2.1-1.7c-1.9,0-2.6,1.6-2.6,3.2s0.7,3.2,2.6,3.2c1.2,0,2.1-0.9,2.2-2.1l0,0h2
			c-0.1,2.2-1.9,4-4.1,3.9h-0.1c-2.9,0-4.7-2.2-4.7-4.9s1.7-5,4.7-5c2.1-0.1,3.9,1.4,4.1,3.4L625.9,248.6z"/>
	</g>
	<g>
		<path class="st12" d="M693.2,241.9h9.9c1.4,0,2.5,1.1,2.5,2.5v12.5c0,1.4-1.1,2.5-2.5,2.5h-9.9c-1.4,0-2.5-1.1-2.5-2.5v-12.5
			C690.7,243,691.8,241.9,693.2,241.9z"/>
	</g>
	<g>
		<polygon class="st12" points="717,241.9 699.5,241.9 690.7,250.7 699.5,259.4 717,259.4 725.8,250.7 		"/>
	</g>
	<g>
		<path class="st8" d="M697.1,245.4h2.1l4,6.4l0,0v-6.4h2v9.5h-2.1l-4-6.4l0,0v6.4h-2V245.4z"/>
	</g>
	<g>
		<path class="st8" d="M713.3,248.6c-0.2-1-1.1-1.7-2.1-1.7c-1.9,0-2.6,1.6-2.6,3.2s0.7,3.2,2.6,3.2c1.2,0,2.2-0.9,2.2-2.1l0,0h2
			c-0.1,2.2-1.9,4-4.1,3.9h-0.1c-2.9,0-4.7-2.2-4.7-4.9s1.7-5,4.7-5c2.1-0.1,3.9,1.4,4.1,3.4L713.3,248.6z"/>
	</g>
	<g>
		<path class="st12" d="M693.2,265.6h9.9c1.4,0,2.5,1.1,2.5,2.5v12.5c0,1.4-1.1,2.5-2.5,2.5h-9.9c-1.4,0-2.5-1.1-2.5-2.5v-12.5
			C690.7,266.7,691.8,265.6,693.2,265.6z"/>
	</g>
	<g>
		<polygon class="st12" points="717,265.6 699.5,265.6 690.7,274.3 699.5,283 717,283 725.8,274.3 		"/>
	</g>
	<g>
		<path class="st8" d="M697.1,269h2.1l4,6.4l0,0V269h2v9.5h-2.1l-4-6.4l0,0v6.4h-2V269z"/>
	</g>
	<g>
		<path class="st8" d="M713.3,272.2c-0.2-1-1.1-1.7-2.1-1.7c-1.9,0-2.6,1.6-2.6,3.2s0.7,3.2,2.6,3.2c1.2,0,2.2-0.9,2.2-2.1l0,0h2
			c-0.1,2.2-1.9,4-4.1,3.9h-0.1c-2.9,0-4.7-2.2-4.7-4.9s1.7-5,4.7-5c2.1-0.1,3.9,1.4,4.1,3.4H713.3z"/>
	</g>
	<g>
		<path class="st8" d="M697.1,269h2.1l4,6.4l0,0V269h2v9.5h-2.1l-4-6.4l0,0v6.4h-2V269z"/>
	</g>
	<g>
		<path class="st8" d="M713.3,272.2c-0.2-1-1.1-1.7-2.1-1.7c-1.9,0-2.6,1.6-2.6,3.2s0.7,3.2,2.6,3.2c1.2,0,2.2-0.9,2.2-2.1l0,0h2
			c-0.1,2.2-1.9,4-4.1,3.9h-0.1c-2.9,0-4.7-2.2-4.7-4.9s1.7-5,4.7-5c2.1-0.1,3.9,1.4,4.1,3.4H713.3z"/>
	</g>
	<g>
		<path class="st12" d="M620.9,289.2h9.9c1.4,0,2.5,1.1,2.5,2.5v12.5c0,1.4-1.1,2.5-2.5,2.5h-9.9c-1.4,0-2.5-1.1-2.5-2.5v-12.5
			C618.4,290.3,619.5,289.2,620.9,289.2z"/>
	</g>
	<g>
		<polygon class="st12" points="607,289.2 624.5,289.2 633.3,298 624.5,306.7 607,306.7 598.2,298 		"/>
	</g>
	<g>
		<path class="st8" d="M609.7,292.7h2.1l4,6.4l0,0v-6.4h2v9.5h-2.1l-4-6.4l0,0v6.4h-2V292.7z"/>
	</g>
	<g>
		<path class="st8" d="M625.9,295.9c-0.2-1-1.1-1.7-2.1-1.7c-1.9,0-2.6,1.6-2.6,3.2s0.7,3.2,2.6,3.2c1.2,0,2.1-0.9,2.2-2.1h2
			c-0.1,2.2-1.9,4-4.1,3.9h-0.1c-2.9,0-4.7-2.2-4.7-4.9s1.7-5,4.7-5c2.1-0.1,3.9,1.4,4.1,3.4H625.9z"/>
	</g>
	<g>
		<path class="st12" d="M620.9,312.8h9.9c1.4,0,2.5,1.1,2.5,2.5v12.5c0,1.4-1.1,2.5-2.5,2.5h-9.9c-1.4,0-2.5-1.1-2.5-2.5v-12.5
			C618.4,313.9,619.5,312.8,620.9,312.8z"/>
	</g>
	<g>
		<polygon class="st12" points="607,312.8 624.5,312.8 633.3,321.5 624.5,330.2 607,330.2 598.2,321.5 		"/>
	</g>
	<g>
		<path class="st8" d="M609.7,316.2h2.1l4,6.4l0,0v-6.4h2v9.5h-2.1l-4-6.4l0,0v6.4h-2V316.2z"/>
	</g>
	<g>
		<path class="st8" d="M625.9,319.4c-0.2-1-1.1-1.7-2.1-1.7c-1.9,0-2.6,1.6-2.6,3.2s0.7,3.2,2.6,3.2c1.2,0,2.1-0.9,2.2-2.1h2
			c0,2.2-1.8,4-4.1,3.9h-0.1c-2.9,0-4.7-2.2-4.7-4.9s1.7-5,4.7-5c2.1-0.1,3.9,1.4,4.1,3.4H625.9z"/>
	</g>
	<g>
		<path class="st12" d="M693.2,289.2h9.9c1.4,0,2.5,1.1,2.5,2.5v12.5c0,1.4-1.1,2.5-2.5,2.5h-9.9c-1.4,0-2.5-1.1-2.5-2.5v-12.5
			C690.7,290.4,691.8,289.2,693.2,289.2z"/>
	</g>
	<g>
		<polygon class="st12" points="717,289.2 699.5,289.2 690.7,298 699.5,306.7 717,306.7 725.8,298 		"/>
	</g>
	<g>
		<path class="st8" d="M697.1,292.7h2.1l4,6.4l0,0v-6.4h2v9.5h-2.1l-4-6.4l0,0v6.4h-2V292.7z"/>
	</g>
	<g>
		<path class="st8" d="M713.3,295.9c-0.2-1-1.1-1.7-2.1-1.7c-1.9,0-2.6,1.6-2.6,3.2s0.7,3.2,2.6,3.2c1.2,0,2.2-0.9,2.2-2.1l0,0h2
			c-0.1,2.2-1.9,4-4.1,3.9h-0.1c-2.9,0-4.7-2.2-4.7-4.9s1.7-5,4.7-5c2.1-0.1,3.9,1.4,4.1,3.4H713.3z"/>
	</g>
	<g>
		<path class="st8" d="M697.1,292.7h2.1l4,6.4l0,0v-6.4h2v9.5h-2.1l-4-6.4l0,0v6.4h-2V292.7z"/>
	</g>
	<g>
		<path class="st8" d="M713.3,295.9c-0.2-1-1.1-1.7-2.1-1.7c-1.9,0-2.6,1.6-2.6,3.2s0.7,3.2,2.6,3.2c1.2,0,2.2-0.9,2.2-2.1l0,0h2
			c-0.1,2.2-1.9,4-4.1,3.9h-0.1c-2.9,0-4.7-2.2-4.7-4.9s1.7-5,4.7-5c2.1-0.1,3.9,1.4,4.1,3.4H713.3z"/>
	</g>
	<g>
		<path class="st12" d="M620.9,337.1h9.9c1.4,0,2.5,1.1,2.5,2.5V352c0,1.4-1.1,2.5-2.5,2.5h-9.9c-1.4,0-2.5-1.1-2.5-2.5v-12.5
			C618.4,338.2,619.5,337.1,620.9,337.1z"/>
	</g>
	<g>
		<polygon class="st12" points="607,337.1 624.5,337.1 633.3,345.8 624.5,354.5 607,354.5 598.2,345.8 		"/>
	</g>
	<g>
		<path class="st8" d="M609.7,340.5h2.1l4,6.4l0,0v-6.4h2v9.5h-2.1l-4-6.4l0,0v6.4h-2V340.5z"/>
	</g>
	<g>
		<path class="st8" d="M625.9,343.7c-0.2-1-1.1-1.7-2.1-1.7c-1.9,0-2.6,1.6-2.6,3.2s0.7,3.2,2.6,3.2c1.2,0,2.1-0.9,2.2-2.1h2
			c-0.1,2.2-1.9,4-4.1,3.9h-0.1c-2.9,0-4.7-2.2-4.7-4.9s1.7-5,4.7-5c2.1-0.1,3.9,1.4,4.1,3.4H625.9z"/>
	</g>
	<g>
		<path class="st12" d="M693.2,337.1h9.9c1.4,0,2.5,1.1,2.5,2.5V352c0,1.4-1.1,2.5-2.5,2.5h-9.9c-1.4,0-2.5-1.1-2.5-2.5v-12.5
			C690.7,338.2,691.8,337.1,693.2,337.1z"/>
	</g>
	<g>
		<polygon class="st12" points="717,337.1 699.5,337.1 690.7,345.8 699.5,354.5 717,354.5 725.8,345.8 		"/>
	</g>
	<g>
		<path class="st8" d="M697.1,340.5h2.1l4,6.4l0,0v-6.4h2v9.5h-2.1l-4-6.4l0,0v6.4h-2V340.5z"/>
	</g>
	<g>
		<path class="st8" d="M713.3,343.7c-0.2-1-1.1-1.7-2.1-1.7c-1.9,0-2.6,1.6-2.6,3.2s0.7,3.2,2.6,3.2c1.2,0,2.2-0.9,2.2-2.1l0,0h2
			c-0.1,2.2-1.9,4-4.1,3.9h-0.1c-2.9,0-4.7-2.2-4.7-4.9s1.7-5,4.7-5c2.1-0.1,3.9,1.4,4.1,3.4H713.3z"/>
	</g>
	<g>
		<path class="st12" d="M620.9,360.9h9.9c1.4,0,2.5,1.1,2.5,2.5v12.5c0,1.4-1.1,2.5-2.5,2.5h-9.9c-1.4,0-2.5-1.1-2.5-2.5v-12.5
			C618.4,362,619.5,360.9,620.9,360.9z"/>
	</g>
	<g>
		<polygon class="st12" points="607,360.9 624.5,360.9 633.3,369.7 624.5,378.4 607,378.4 598.2,369.7 		"/>
	</g>
	<g>
		<path class="st8" d="M609.7,364.4h2.1l4,6.4l0,0v-6.4h2v9.5h-2.1l-4-6.4l0,0v6.4h-2V364.4z"/>
	</g>
	<g>
		<path class="st8" d="M625.9,367.6c-0.2-1-1.1-1.7-2.1-1.7c-1.9,0-2.6,1.6-2.6,3.2s0.7,3.2,2.6,3.2c1.2,0,2.1-0.9,2.2-2.1h2
			c-0.1,2.2-1.9,4-4.1,3.9h-0.1c-2.9,0-4.7-2.2-4.7-4.9s1.7-5,4.7-5c2.1-0.1,3.9,1.4,4.1,3.4H625.9z"/>
	</g>
	<g>
		<path class="st12" d="M693.2,360.9h9.9c1.4,0,2.5,1.1,2.5,2.5v12.5c0,1.4-1.1,2.5-2.5,2.5h-9.9c-1.4,0-2.5-1.1-2.5-2.5v-12.5
			C690.7,362,691.8,360.9,693.2,360.9z"/>
	</g>
	<g>
		<polygon class="st12" points="717,360.9 699.5,360.9 690.7,369.7 699.5,378.4 717,378.4 725.8,369.7 		"/>
	</g>
	<g>
		<path class="st8" d="M697.1,364.4h2.1l4,6.4l0,0v-6.4h2v9.5h-2.1l-4-6.4l0,0v6.4h-2V364.4z"/>
	</g>
	<g>
		<path class="st8" d="M713.3,367.6c-0.2-1-1.1-1.7-2.1-1.7c-1.9,0-2.6,1.6-2.6,3.2s0.7,3.2,2.6,3.2c1.2,0,2.2-0.9,2.2-2.1l0,0h2
			c-0.1,2.2-1.9,4-4.1,3.9h-0.1c-2.9,0-4.7-2.2-4.7-4.9s1.7-5,4.7-5c2.1-0.1,3.9,1.4,4.1,3.4H713.3z"/>
	</g>
	<g>
		<path class="st12" d="M693.2,312.8h9.9c1.4,0,2.5,1.1,2.5,2.5v12.5c0,1.4-1.1,2.5-2.5,2.5h-9.9c-1.4,0-2.5-1.1-2.5-2.5v-12.5
			C690.7,313.9,691.8,312.8,693.2,312.8z"/>
	</g>
	<g>
		<polygon class="st12" points="717,312.8 699.5,312.8 690.7,321.5 699.5,330.2 717,330.2 725.8,321.5 		"/>
	</g>
	<g>
		<path class="st8" d="M697.1,316.2h2.1l4,6.4l0,0v-6.4h2v9.5h-2.1l-4-6.4l0,0v6.4h-2V316.2z"/>
	</g>
	<g>
		<path class="st8" d="M713.3,319.4c-0.2-1-1.1-1.7-2.1-1.7c-1.9,0-2.6,1.6-2.6,3.2s0.7,3.2,2.6,3.2c1.2,0,2.2-0.9,2.2-2.1l0,0h2
			c-0.1,2.2-1.9,4-4.1,3.9h-0.1c-2.9,0-4.7-2.2-4.7-4.9s1.7-5,4.7-5c2.1-0.1,3.9,1.4,4.1,3.4H713.3z"/>
	</g>
	<g>
		<path class="st12" d="M620.9,409.4h9.9c1.4,0,2.5,1.1,2.5,2.5v12.5c0,1.4-1.1,2.5-2.5,2.5h-9.9c-1.4,0-2.5-1.1-2.5-2.5v-12.5
			C618.4,410.5,619.5,409.4,620.9,409.4z"/>
	</g>
	<g>
		<polygon class="st12" points="607,409.4 624.5,409.4 633.3,418.1 624.5,426.9 607,426.9 598.2,418.1 		"/>
	</g>
	<g>
		<path class="st8" d="M609.7,412.9h2.1l4,6.4l0,0v-6.4h2v9.5h-2.1l-4-6.4l0,0v6.4h-2V412.9z"/>
	</g>
	<g>
		<path class="st8" d="M625.9,416.1c-0.2-1-1.1-1.7-2.1-1.7c-1.9,0-2.6,1.6-2.6,3.2s0.7,3.2,2.6,3.2c1.2,0,2.1-0.9,2.2-2.1h2
			c-0.1,2.2-1.9,4-4.1,3.9h-0.1c-2.9,0-4.7-2.2-4.7-4.9s1.7-5,4.7-5c2.1-0.1,3.9,1.4,4.1,3.4H625.9z"/>
	</g>
	<g>
		<path class="st12" d="M693.2,409.4h9.9c1.4,0,2.5,1.1,2.5,2.5v12.5c0,1.4-1.1,2.5-2.5,2.5h-9.9c-1.4,0-2.5-1.1-2.5-2.5v-12.5
			C690.7,410.5,691.8,409.4,693.2,409.4z"/>
	</g>
	<g>
		<polygon class="st12" points="717,409.4 699.5,409.4 690.7,418.1 699.5,426.9 717,426.9 725.8,418.1 		"/>
	</g>
	<g>
		<path class="st8" d="M697.1,412.9h2.1l4,6.4l0,0v-6.4h2v9.5h-2.1l-4-6.4l0,0v6.4h-2V412.9z"/>
	</g>
	<g>
		<path class="st8" d="M713.3,416.1c-0.2-1-1.1-1.7-2.1-1.7c-1.9,0-2.6,1.6-2.6,3.2s0.7,3.2,2.6,3.2c1.2,0,2.2-0.9,2.2-2.1l0,0h2
			c-0.1,2.2-1.9,4-4.1,3.9h-0.1c-2.9,0-4.7-2.2-4.7-4.9s1.7-5,4.7-5c2.1-0.1,3.9,1.4,4.1,3.4H713.3z"/>
	</g>
	<g>
		<path class="st8" d="M673.9,158.8h-2.1V152h-2.6v-1.6c1.5,0,2.8-0.5,3.1-2.1h1.7L673.9,158.8z"/>
	</g>
	<g>
		<path class="st8" d="M679.7,152.5c0.9,0.1,2.2-0.1,2.2-1.3c0-0.8-0.6-1.4-1.4-1.4l0,0h-0.1c-1.1,0-1.6,0.8-1.6,1.9h-2
			c-0.1-1.9,1.4-3.5,3.3-3.6c0.1,0,0.2,0,0.3,0c1.7,0,3.5,1,3.5,2.9c0.1,1-0.5,1.9-1.5,2.1l0,0c1.1,0.2,1.9,1.2,1.8,2.4
			c0,2.2-1.8,3.4-3.9,3.4c-1.9,0.2-3.7-1.2-3.9-3.2c0-0.2,0-0.4,0-0.6h2c0,1.1,0.6,2.1,1.8,2.1c0.9,0.1,1.6-0.6,1.7-1.5l0,0v-0.1
			c0-1.6-1.4-1.6-2.4-1.6L679.7,152.5z"/>
	</g>
	<g>
		<path class="st8" d="M673.9,182.7h-2.1v-6.8h-2.6v-1.6c1.5,0.1,2.8-0.5,3.1-2.1h1.7L673.9,182.7z"/>
	</g>
	<g>
		<path class="st8" d="M683.8,174h-4.3l-0.4,2.4l0,0c0.5-0.5,1.2-0.8,2-0.8c1.8,0,3.3,1.4,3.3,3.2c0,0.1,0,0.2,0,0.3
			c0,2.1-1.7,3.8-3.8,3.8l0,0h-0.1c-2,0-3.8-1.1-3.9-3.3h2.1c0.1,0.9,0.8,1.6,1.7,1.6c1,0,1.8-0.9,1.8-1.9c0,0,0,0,0-0.1l0,0
			c0.1-1-0.6-1.9-1.6-2l0,0h-0.2c-0.7-0.1-1.3,0.3-1.6,0.8H677l1-5.8h5.8V174z"/>
	</g>
	<g>
		<path class="st9" d="M602.9,48.5h28c1.3,0,2.3,0.6,2.3,1.3v14.7c0,0.7-1,1.3-2.3,1.3h-28"/>
	</g>
	<g>
		<polygon class="st9" points="617.5,48.5 600,48.5 591.2,57.2 600,65.9 617.5,65.9 626.2,57.2 		"/>
	</g>
	<g>
		<polygon class="st9" points="607.3,48.5 589.8,48.5 581.1,57.2 589.8,65.9 607.3,65.9 616.1,57.2 		"/>
	</g>
	<g>
		<g>
			<path class="st8" d="M594.4,55.9c0.9,0.1,2.1-0.1,2.1-1.2c0-0.7-0.6-1.3-1.3-1.3h-0.1c-1,0-1.5,0.7-1.5,1.7h-1.9
				c-0.1-1.8,1.3-3.3,3.1-3.4c0.1,0,0.2,0,0.3,0c1.6,0,3.3,1,3.3,2.7c0.1,0.9-0.5,1.7-1.4,2l0,0c1,0.2,1.8,1.2,1.7,2.2
				c0,2-1.7,3.2-3.6,3.2c-1.8,0.2-3.4-1.1-3.6-3c0-0.2,0-0.4,0-0.6h1.9c0,1.1,0.6,1.9,1.7,1.9c0.8,0,1.5-0.6,1.6-1.4v-0.1
				c0-1.5-1.3-1.5-2.3-1.5V55.9z"/>
		</g>
		<g>
			<path class="st8" d="M603.7,61.7h-2.2l-2.5-7.2h2.1l1.5,4.9l0,0l1.5-4.9h2L603.7,61.7z"/>
		</g>
		<g>
			<path class="st8" d="M609.4,55.9c0.8,0.1,2.1-0.1,2.1-1.2c0-0.7-0.6-1.3-1.3-1.3h-0.1c-1,0-1.5,0.7-1.5,1.7h-1.9
				c-0.1-1.8,1.3-3.3,3.1-3.4c0.1,0,0.2,0,0.3,0c1.6,0,3.3,1,3.3,2.7c0.1,0.9-0.5,1.7-1.4,2l0,0c1,0.2,1.8,1.2,1.7,2.2
				c0,2-1.7,3.2-3.6,3.2c-1.8,0.2-3.4-1.1-3.6-3c0-0.2,0-0.4,0-0.6h1.9c0,1.1,0.6,1.9,1.7,1.9c0.8,0.1,1.5-0.6,1.6-1.4v-0.1
				c0-1.5-1.3-1.5-2.3-1.5V55.9z"/>
		</g>
		<g>
			<path class="st8" d="M614,62.8h7v0.7h-7V62.8z"/>
		</g>
		<g>
			<path class="st8" d="M623.4,58.4c0,1.3,1,1.8,2.2,1.8c0.8,0,1.9-0.2,1.9-1.2s-1.5-1.2-3-1.7s-3-1-3-2.8c0-2,1.9-3,3.7-3
				c2.1,0,4,0.9,4,3.2h-2.1c-0.1-1.2-0.9-1.5-2-1.5c-0.7,0-1.5,0.3-1.5,1.1s0.5,0.9,3,1.5c0.7,0.2,3,0.7,3,2.9
				c0,1.8-1.4,3.2-4.1,3.2c-2.2,0-4.3-1.1-4.2-3.5H623.4z"/>
		</g>
	</g>
	<g>
		<path class="st14" d="M735.8,434.6v17.5h-43.4c-0.9,0-1.7-1.1-1.7-2.4V437c0-1.3,0.8-2.4,1.7-2.4H735.8z"/>
	</g>
	<g>
		<polygon class="st14" points="756.9,434.6 725.5,434.6 709.7,443.3 725.5,452.1 756.9,452.1 772.7,443.3 		"/>
	</g>
	<g>
		<polygon class="st14" points="771,434.6 753.4,434.6 744.6,443.3 753.4,452.1 771,452.1 779.8,443.3 		"/>
	</g>
	<g>
		<path class="st14" d="M633.3,437v12.6c0,1.3-0.7,2.4-1.5,2.4h-40v-17.4h40C632.6,434.6,633.3,435.7,633.3,437z"/>
	</g>
	<g>
		<polygon class="st14" points="572.5,434.6 602.6,434.6 617.7,443.3 602.6,452 572.5,452 557.5,443.3 		"/>
	</g>
	<g>
		<polygon class="st14" points="559.2,434.6 576.7,434.6 585.4,443.3 576.7,452 559.2,452 550.5,443.3 		"/>
	</g>
	<g>
		<rect x="571.1" y="385.1" class="st13" width="50.1" height="17.4"/>
	</g>
	<g>
		<path class="st13" d="M620.9,385.1h9.9c1.4,0,2.5,1.1,2.5,2.5v12.5c0,1.4-1.1,2.5-2.5,2.5h-9.9c-1.4,0-2.5-1.1-2.5-2.5v-12.5
			C618.5,386.2,619.6,385.1,620.9,385.1z"/>
	</g>
	<g>
		<polygon class="st13" points="572.5,385.1 555,385.1 546.2,393.9 555,402.6 572.5,402.6 581.3,393.9 		"/>
	</g>
	<g>
		<rect x="702.9" y="385.1" class="st13" width="50.1" height="17.4"/>
	</g>
	<g>
		<path class="st13" d="M693.3,385.1h9.9c1.4,0,2.5,1.1,2.5,2.5v12.5c0,1.4-1.1,2.5-2.5,2.5h-9.9c-1.4,0-2.5-1.1-2.5-2.5v-12.5
			C690.8,386.2,691.9,385.1,693.3,385.1z"/>
	</g>
	<g>
		<polygon class="st13" points="751.6,402.6 769.1,402.6 777.9,393.8 769.1,385.1 751.6,385.1 742.8,393.8 		"/>
	</g>
	<g>
		<g>
			<path class="st8" d="M697.1,387.8h5.2c1.5-0.1,2.7,1,2.8,2.5c0,0.1,0,0.1,0,0.2c0.1,1.1-0.5,2-1.5,2.4l0,0c1,0.3,1.3,1.3,1.4,2.2
				c0,0.8,0.1,1.6,0.4,2.3h-2.1c-0.2-0.8-0.3-1.5-0.3-2.3c-0.2-1-0.5-1.5-1.6-1.5h-2.1v3.7h-2.1v-9.5H697.1z M699.2,392.1h2.3
				c1,0,1.5-0.4,1.5-1.4s-0.5-1.3-1.5-1.3h-2.3V392.1z"/>
		</g>
		<g>
			<path class="st8" d="M709.1,392.3l-3.1-4.6h2.4l1.9,3.1l2-3.1h2.2l-3,4.6l3.3,5h-2.5l-2.1-3.3l-2.2,3.3h-2.4L709.1,392.3z"/>
		</g>
		<g>
			<path class="st8" d="M714.8,398.3h6.7v0.7h-6.7V398.3z"/>
		</g>
		<g>
			<path class="st8" d="M722.5,387.8h2.1v7.8h4.7v1.7h-6.8V387.8z"/>
		</g>
		<g>
			<path class="st8" d="M734.9,397.3h-2.4l-3.1-9.6h2.2l2.1,6.7l0,0l2.2-6.7h2.2L734.9,397.3z"/>
		</g>
		<g>
			<path class="st8" d="M741,391.7c0.8,0.1,2-0.1,2-1.2c0-0.7-0.5-1.3-1.2-1.3h-0.1c-1,0-1.5,0.7-1.5,1.7h-1.8
				c-0.1-1.7,1.2-3.2,3-3.2c0.1,0,0.2,0,0.3,0c1.5,0,3.2,0.9,3.2,2.6c0.1,0.9-0.5,1.7-1.3,1.9l0,0c1,0.2,1.7,1.1,1.7,2.1
				c-0.1,1.9-1.7,3.4-3.7,3.3c-1.9-0.1-3.4-1.7-3.3-3.7h1.8c0,1,0.5,1.9,1.7,1.9c0.8,0,1.5-0.6,1.5-1.4v-0.1c0-1.4-1.2-1.4-2.2-1.4
				L741,391.7z"/>
		</g>
		<g>
			<path class="st8" d="M745.9,391.5c-0.1-2.1,1.2-3.8,3.4-3.8c1.7-0.1,3.1,1.1,3.2,2.8c0,0.1,0,0.1,0,0.2c0,2.9-3,3.1-4.4,5h4.4
				v1.6h-6.9c0-2.2,1.3-3.1,3-4.2c0.8-0.6,2-1.1,2-2.3c0.1-0.7-0.5-1.4-1.2-1.4c-0.1,0-0.1,0-0.2,0c-1.1,0-1.5,1.2-1.5,2.2
				L745.9,391.5z"/>
		</g>
		<g>
			<path class="st8" d="M755.2,394.9c0.1,0.6,0.6,1.1,1.3,1.2c1.4,0,1.7-1.8,1.8-2.9l0,0c-0.5,0.7-1.3,1.1-2.1,1
				c-0.8,0-1.6-0.4-2.2-1c-0.5-0.6-0.7-1.3-0.7-2.1c-0.1-1.8,1.3-3.3,3.1-3.4c0.1,0,0.1,0,0.2,0c2.8,0,3.6,2.5,3.6,4.9
				s-1,4.9-3.7,4.9c-1.5,0.1-2.9-1.1-3-2.6H755.2z M758.1,391.1c0.1-0.9-0.6-1.7-1.5-1.7l0,0c-0.9,0.1-1.5,0.8-1.4,1.7l0,0
				c0,0.9,0.5,1.8,1.4,1.8s1.5-0.7,1.5-1.6C758.1,391.2,758.1,391.1,758.1,391.1z"/>
		</g>
		<g>
			<path class="st8" d="M765.6,390.4c-0.1-0.6-0.6-1.1-1.3-1.2c-1.4,0-1.8,1.8-1.8,2.9l0,0c0.5-0.7,1.3-1.1,2.1-1
				c0.8,0,1.6,0.4,2.2,1c0.5,0.6,0.7,1.3,0.7,2.1c0.1,1.8-1.3,3.3-3.1,3.4c-0.1,0-0.1,0-0.2,0c-2.8,0-3.6-2.5-3.6-4.9s1-4.9,3.7-4.9
				c1.5-0.1,2.9,1.1,3,2.6H765.6z M762.7,394.2c-0.1,0.9,0.6,1.7,1.5,1.7l0,0c0.9-0.1,1.5-0.8,1.4-1.7l0,0c0-0.9-0.5-1.8-1.4-1.8
				s-1.6,0.7-1.6,1.5C762.7,394.1,762.7,394.1,762.7,394.2L762.7,394.2z"/>
		</g>
	</g>
	<g>
		<g>
			<path class="st8" d="M561.2,390h-2.9v-1.8h7.8v1.8h-2.9v7.8h-2.1V390H561.2z"/>
		</g>
		<g>
			<path class="st8" d="M569.6,392.8l-3.1-4.6h2.5l1.9,3.1l2-3.1h2.3l-3.2,4.6l3.3,5h-2.5l-2.1-3.3l-2.1,3.3h-2.4L569.6,392.8z"/>
		</g>
		<g>
			<path class="st8" d="M575.3,398.8h6.7v0.7h-6.7V398.8z"/>
		</g>
		<g>
			<path class="st8" d="M583,388.3h2.1v7.8h4.7v1.7H583V388.3z"/>
		</g>
		<g>
			<path class="st8" d="M595.4,397.8H593l-3.1-9.6h2.2l2.1,6.7l0,0l2.2-6.7h2.2L595.4,397.8z"/>
		</g>
		<g>
			<path class="st8" d="M601.5,392.2c0.8,0.1,2-0.1,2-1.2c0-0.7-0.5-1.2-1.2-1.3h-0.1c-1,0-1.5,0.7-1.5,1.7h-1.8
				c-0.1-1.7,1.3-3.2,3-3.2c0.1,0,0.2,0,0.3,0c1.5,0,3.2,0.9,3.2,2.6c0.1,0.9-0.5,1.7-1.3,1.9l0,0c1,0.2,1.7,1.1,1.7,2.1
				c-0.2,1.9-1.9,3.3-3.9,3.1c-1.8-0.2-3.1-1.7-3.1-3.5h1.8c0,1,0.5,1.9,1.7,1.9c0.8,0,1.5-0.6,1.5-1.4v-0.1c0-1.4-1.2-1.4-2.2-1.4
				L601.5,392.2z"/>
		</g>
		<g>
			<path class="st8" d="M606.4,392c-0.1-2.1,1.2-3.8,3.4-3.8c1.7-0.1,3.1,1.1,3.2,2.8c0,0.1,0,0.1,0,0.2c0,2.9-3,3.1-4.4,5h4.4v1.6
				h-6.9c0-2.2,1.3-3.1,3-4.2c0.8-0.6,2-1.1,2-2.3c0.1-0.7-0.5-1.4-1.2-1.4c-0.1,0-0.1,0-0.2,0c-1.1,0-1.5,1.2-1.5,2.2L606.4,392z"
				/>
		</g>
		<g>
			<path class="st8" d="M615.6,395.4c0.1,0.6,0.6,1.1,1.3,1.2c1.4,0,1.7-1.8,1.8-2.9l0,0c-0.5,0.7-1.3,1.1-2.1,1
				c-0.8,0-1.6-0.4-2.2-1c-0.5-0.6-0.7-1.3-0.7-2.1c-0.1-1.8,1.3-3.3,3.1-3.4c0.1,0,0.1,0,0.2,0c2.8,0,3.6,2.5,3.6,4.9
				s-1,4.9-3.7,4.9c-1.5,0.1-2.9-1.1-3-2.6H615.6z M618.5,391.6c0.1-0.9-0.6-1.7-1.5-1.8c0,0,0,0-0.1,0c-0.9,0.1-1.5,0.8-1.4,1.7
				l0,0c0,0.9,0.5,1.8,1.4,1.8s1.6-0.7,1.5-1.6C618.5,391.7,618.5,391.6,618.5,391.6z"/>
		</g>
		<g>
			<path class="st8" d="M626.1,390.9c-0.1-0.6-0.6-1.1-1.3-1.2c-1.4,0-1.8,1.8-1.8,2.9l0,0c0.5-0.7,1.3-1.1,2.1-1
				c0.8,0,1.6,0.4,2.2,1c0.5,0.6,0.7,1.3,0.7,2.1c0.1,1.8-1.3,3.3-3.1,3.4c-0.1,0-0.1,0-0.2,0c-2.8,0-3.6-2.5-3.6-4.9s1-4.9,3.7-4.9
				c1.5-0.1,2.9,1.1,3,2.6H626.1z M623.2,394.7c-0.1,0.9,0.6,1.7,1.5,1.7l0,0c0.9-0.1,1.5-0.8,1.4-1.7l0,0c0-0.9-0.5-1.8-1.4-1.8
				s-1.5,0.7-1.5,1.6C623.2,394.6,623.2,394.7,623.2,394.7z"/>
		</g>
	</g>
	<g>
		<path class="st8" d="M559.8,438.2h2.1l4,6.4l0,0v-6.4h2v9.5h-2.1l-4-6.4l0,0v6.4h-2V438.2z"/>
		<path class="st8" d="M569.7,438.2h5.1c1.7,0,2.8,1.2,2.8,2.6c0,1.1-0.4,2-1.5,2.4l0,0c1,0.3,1.3,1.3,1.4,2.2c0,0.6,0,1.7,0.4,2.3
			h-2.1c-0.2-0.6-0.2-1.5-0.3-2.3c-0.1-1-0.5-1.4-1.6-1.4h-2.1v3.7h-2.1L569.7,438.2L569.7,438.2z M571.8,442.5h2.3
			c0.9,0,1.4-0.4,1.4-1.4c0-0.9-0.5-1.3-1.4-1.3h-2.3V442.5z"/>
		<path class="st8" d="M580.7,444.6c0,1.3,1,1.8,2.1,1.8c0.7,0,1.9-0.2,1.9-1.2s-1.4-1.2-2.8-1.6c-1.4-0.3-2.8-0.9-2.8-2.7
			c0-2,1.8-2.9,3.6-2.9c2,0,3.8,0.9,3.8,3.1h-2c-0.1-1.1-0.9-1.4-1.9-1.4c-0.7,0-1.4,0.3-1.4,1.1c0,0.7,0.5,0.8,2.8,1.4
			c0.7,0.2,2.8,0.6,2.8,2.8c0,1.7-1.4,3.1-4,3.1c-2.1,0-4.1-1-4.1-3.4L580.7,444.6L580.7,444.6z"/>
		<path class="st8" d="M590.1,440h-2.9v-1.8h7.8v1.8h-2.9v7.8H590V440H590.1z"/>
		<path class="st8" d="M603,438c-1,1.9-1.5,4-1.5,6c0,2.1,0.4,4.2,1.4,6.1h-1.6c-1.1-1.8-1.8-3.9-1.8-6c0-2,0.6-4.5,1.8-6.2h1.7V438
			z"/>
		<path class="st8" d="M603.8,438.2h2.1v9.5h-2.1V438.2z"/>
		<path class="st8" d="M612,438c2.9,0,4.7,2.2,4.7,5c0,2.7-1.7,4.9-4.7,4.9c-2.9,0-4.7-2.2-4.7-4.9C607.3,440.2,609.1,438,612,438z
			 M612,446.2c1.9,0,2.6-1.6,2.6-3.2c0-1.7-0.7-3.3-2.6-3.3c-1.9,0-2.6,1.6-2.6,3.3C609.4,444.6,610.1,446.2,612,446.2z"/>
		<path class="st8" d="M622.4,440.8c-0.1-0.6-0.6-1.2-1.3-1.2c-1.4,0-1.7,1.8-1.8,2.8l0,0c0.5-0.7,1.2-1,2.1-1c0.8,0,1.6,0.4,2.1,1
			s0.7,1.3,0.7,2.1c0,1.9-1.3,3.4-3.3,3.4c-2.8,0-3.6-2.5-3.6-4.8s1-4.9,3.7-4.9c1.6,0,2.8,0.9,3,2.6H622.4z M619.5,444.6
			c0,0.9,0.5,1.7,1.5,1.7c0.9,0,1.4-0.9,1.4-1.7c0-0.9-0.5-1.8-1.4-1.8C620,442.9,619.5,443.7,619.5,444.6z"/>
		<path class="st8" d="M624.5,450.2c1-1.9,1.5-3.9,1.5-6s-0.4-4.2-1.4-6.1h1.6c1.1,1.8,1.8,3.9,1.8,6c0,2-0.6,4.5-1.8,6.2h-1.7
			V450.2z"/>
	</g>
	<g>
		<path class="st8" d="M697,440.8h1.8v1l0,0c0.5-0.8,1.3-1.1,2.1-1.1c2,0,2.5,1.1,2.5,2.8v4.2h-1.9v-3.9c0-1.1-0.3-1.7-1.2-1.7
			c-1,0-1.5,0.6-1.5,2v3.6H697V440.8z"/>
		<path class="st8" d="M707.2,440h-2.9v-1.8h7.8v1.8h-2.9v7.8h-2.1V440H707.2z"/>
		<path class="st8" d="M713.2,438.2h5.1c1.7,0,2.8,1.2,2.8,2.6c0,1.1-0.4,2-1.5,2.4l0,0c1,0.3,1.3,1.3,1.4,2.2c0,0.6,0,1.7,0.4,2.3
			h-2.1c-0.2-0.6-0.2-1.5-0.3-2.3c-0.1-1-0.5-1.4-1.6-1.4h-2.1v3.7h-2.1L713.2,438.2L713.2,438.2z M715.3,442.5h2.3
			c0.9,0,1.4-0.4,1.4-1.4c0-0.9-0.5-1.3-1.4-1.3h-2.3V442.5z"/>
		<path class="st8" d="M722.9,438.2h2.1v9.5h-2.1V438.2z"/>
		<path class="st8" d="M733.7,446.7c-0.7,1-1.7,1.3-2.6,1.3c-2.9,0-4.7-2.2-4.7-4.9c0-2.8,1.7-5,4.7-5c1.9,0,3.8,1.2,4,3.4h-2
			c-0.3-1.1-1-1.6-2-1.6c-1.9,0-2.6,1.6-2.6,3.3c0,1.6,0.7,3.2,2.6,3.2c1.4,0,2.1-0.7,2.3-2.1h-2.1v-1.6h4v5.1H734L733.7,446.7z"/>
		<path class="st8" d="M743.8,438c-1,1.9-1.5,4-1.5,6c0,2.1,0.4,4.2,1.4,6.1h-1.6c-1.1-1.8-1.8-3.9-1.8-6c0-2,0.6-4.5,1.8-6.2h1.7
			V438z"/>
		<path class="st8" d="M744.6,438.2h2.1v9.5h-2.1V438.2z"/>
		<path class="st8" d="M752.8,438c2.9,0,4.7,2.2,4.7,5c0,2.7-1.7,4.9-4.7,4.9c-2.9,0-4.7-2.2-4.7-4.9
			C748.1,440.2,749.9,438,752.8,438z M752.8,446.2c1.9,0,2.6-1.6,2.6-3.2c0-1.7-0.7-3.3-2.6-3.3c-1.9,0-2.6,1.6-2.6,3.3
			C750.2,444.6,750.9,446.2,752.8,446.2z"/>
		<path class="st8" d="M766.5,450.2c1-1.9,1.5-3.9,1.5-6s-0.4-4.2-1.4-6.1h1.6c1.1,1.8,1.8,3.9,1.8,6c0,2-0.6,4.5-1.8,6.2h-1.7
			V450.2z"/>
		<g>
			<path class="st8" d="M765.2,439.6h-3.9l-0.4,2.2l0,0c0.5-0.5,1.1-0.7,1.9-0.7c1.9,0,3,1.5,3,3.3c0,2-1.6,3.5-3.6,3.4
				c-1.9,0-3.5-1-3.6-3h1.9c0.1,0.9,0.7,1.4,1.6,1.4c1,0,1.7-0.9,1.7-1.8c0-1-0.6-1.8-1.7-1.8c-0.7,0-1.1,0.2-1.5,0.8h-1.7l0.9-5.3
				h5.3V439.6z"/>
		</g>
	</g>
</g>
</svg>
