<svg xmlns="http://www.w3.org/2000/svg" viewBox="0 0 947.15217 377.96739"><defs><style>.cls-1,.cls-3{fill:none;stroke-miterlimit:10;stroke-width:2.25879px;}.cls-1{stroke:#bcbdbd;}.cls-2{fill:#bcbdbd;}.cls-3{stroke:red;}.cls-4{fill:red;}.cls-5{fill:#006ac6;}.cls-6{fill:#333;}.cls-7{fill:#fff;}</style></defs><g id="Layer_2" data-name="Layer 2"><g id="RAK19001-Diagram"><polyline class="cls-1" points="54.978 129.783 91.761 129.783 91.761 268.043 59.087 268.043"/><line class="cls-1" x1="54.97826" y1="198.29348" x2="140.77174" y2="198.29348"/><polyline class="cls-1" points="183.96 116.87 140.772 116.87 140.772 268.141 184.123 268.141"/><polygon class="cls-2" points="182.313 111.238 192.065 116.87 182.313 122.501 182.313 111.238"/><polygon class="cls-2" points="182.476 273.773 192.228 268.141 182.476 262.51 182.476 273.773"/><line class="cls-1" x1="259.49994" y1="138.45652" x2="259.49994" y2="169.22129"/><polygon class="cls-2" points="253.868 167.574 259.5 177.326 265.132 167.574 253.868 167.574"/><line class="cls-1" x1="259.49994" y1="213.3913" x2="259.49994" y2="232.41694"/><polygon class="cls-2" points="253.868 230.769 259.5 240.522 265.132 230.769 253.868 230.769"/><line class="cls-1" x1="327.19562" y1="268.30434" x2="399.11261" y2="268.30434"/><polygon class="cls-2" points="397.465 273.936 407.217 268.304 397.465 262.673 397.465 273.936"/><polyline class="cls-1" points="346.794 268.304 346.794 349.826 401.2 349.826"/><polygon class="cls-2" points="399.552 355.458 409.304 349.826 399.552 344.195 399.552 355.458"/><line class="cls-1" x1="323.30048" y1="40.69566" x2="396.50385" y2="40.69566"/><polygon class="cls-2" points="324.948 46.327 315.196 40.696 324.948 35.064 324.948 46.327"/><polygon class="cls-2" points="394.856 46.327 404.609 40.696 394.856 35.064 394.856 46.327"/><polyline class="cls-1" points="523.257 37.957 881.022 37.957 881.022 81.504"/><polygon class="cls-2" points="524.905 43.588 515.152 37.957 524.905 32.325 524.905 43.588"/><polygon class="cls-2" points="875.39 79.856 881.022 89.609 886.653 79.856 875.39 79.856"/><line class="cls-1" x1="458.99994" y1="240.94566" x2="458.99994" y2="222.53958"/><polygon class="cls-2" points="464.632 224.187 459 214.435 453.368 224.187 464.632 224.187"/><polyline class="cls-3" points="515.152 106.089 545.674 106.089 545.674 326.739 521.105 326.739"/><polygon class="cls-4" points="522.753 321.108 513 326.739 522.753 332.371 522.753 321.108"/><polyline class="cls-1" points="510.717 268.239 722.935 268.239 722.935 241.958"/><polygon class="cls-2" points="728.566 243.606 722.935 233.853 717.303 243.606 728.566 243.606"/><line class="cls-1" x1="679.10871" y1="37.95652" x2="679.10871" y2="82.2865"/><polygon class="cls-2" points="673.477 80.639 679.109 90.391 684.74 80.639 673.477 80.639"/><polyline class="cls-1" points="513 349.696 879.261 349.696 879.261 242.282"/><polygon class="cls-2" points="884.892 243.93 879.261 234.178 873.629 243.93 884.892 243.93"/><line class="cls-1" x1="681.19562" y1="349.69566" x2="681.19562" y2="241.95806"/><polygon class="cls-2" points="686.827 243.606 681.196 233.853 675.564 243.606 686.827 243.606"/><rect class="cls-5" y="240.84783" width="59.08696" height="56.34783" rx="3.32609"/><rect class="cls-5" y="170.73913" width="54.97826" height="56.34783" rx="3.20836"/><rect class="cls-5" y="100.63043" width="54.97826" height="56.34783" rx="3.20836"/><rect class="cls-5" x="212.86957" y="10.36957" width="102.32609" height="56.73913" rx="2.28261"/><rect class="cls-5" x="192.22826" y="101.73913" width="135.3913" height="37.30845" rx="2.1291"/><rect class="cls-5" x="192.22826" y="177.32609" width="135.3913" height="37.30845" rx="2.1291"/><rect class="cls-5" x="192.22826" y="240.52174" width="135.3913" height="56.28261" rx="2.61505"/><rect class="cls-5" x="407.21739" y="240.52174" width="103.5" height="56.28261" rx="2.28641"/><rect class="cls-5" x="620.86957" y="90.3913" width="120.95521" height="143.46196" rx="3.94619"/><rect class="cls-5" x="810.65217" y="90.3913" width="136.5" height="143.46196" rx="4.1921"/><rect class="cls-5" x="409.30435" y="321.68478" width="103.69565" height="56.28261" rx="2.28857"/><rect class="cls-5" x="404.21739" width="110.93478" height="214.63453" rx="4.62254"/><path class="cls-4" d="M539.7652,256.944a3.38257,3.38257,0,0,1-.25977,1.35449,3.00351,3.00351,0,0,1-.71093,1.021,3.18583,3.18583,0,0,1-1.06446.64941,3.72783,3.72783,0,0,1-1.31738.229,3.81166,3.81166,0,0,1-1.31738-.22315,3.13,3.13,0,0,1-1.06446-.63672,2.98857,2.98857,0,0,1-.71093-.99609,3.17165,3.17165,0,0,1-.26075-1.31152,3.36113,3.36113,0,0,1,.17383-1.11328,2.7472,2.7472,0,0,1,.47657-.85987,2.44473,2.44473,0,0,1,.72949-.59424,3.057,3.057,0,0,1,.94629-.31542v1.6455a1.27726,1.27726,0,0,0-.69922.38965,1.10014,1.10014,0,0,0-.27832.77344,1.31975,1.31975,0,0,0,.53808,1.15039,2.48484,2.48484,0,0,0,1.4668.38379,2.58577,2.58577,0,0,0,1.45313-.36524,1.27391,1.27391,0,0,0,.55078-1.144,1.3315,1.3315,0,0,0-.26563-.854,1.23572,1.23572,0,0,0-.81055-.42041v-1.62061a2.52753,2.52753,0,0,1,1.71387.835,2.73849,2.73849,0,0,1,.51953.87842A3.24774,3.24774,0,0,1,539.7652,256.944Z"/><path class="cls-4" d="M539.7652,250.34972a3.3958,3.3958,0,0,1-.25977,1.34864,3.14177,3.14177,0,0,1-1.77539,1.72558,3.711,3.711,0,0,1-2.63476,0,3.14177,3.14177,0,0,1-1.77539-1.72558,3.618,3.618,0,0,1,0-2.69727,3.14183,3.14183,0,0,1,1.77539-1.72559,3.71117,3.71117,0,0,1,2.63476,0,3.14183,3.14183,0,0,1,1.77539,1.72559A3.39746,3.39746,0,0,1,539.7652,250.34972Zm-1.28711,0a1.38732,1.38732,0,0,0-.56836-1.19384,2.48666,2.48666,0,0,0-1.49707-.41455,2.51476,2.51476,0,0,0-1.50391.41455,1.52655,1.52655,0,0,0,0,2.38769,2.51476,2.51476,0,0,0,1.50391.41455,2.48666,2.48666,0,0,0,1.49707-.41455A1.38735,1.38735,0,0,0,538.47809,250.34972Z"/><path class="cls-4" d="M534.09918,244.609v-.03711a2.21574,2.21574,0,0,1-.77929-.773,2.41154,2.41154,0,0,1-.08106-2.00439,2.03155,2.03155,0,0,1,.49512-.68653,2.29954,2.29954,0,0,1,.748-.4458,2.72662,2.72662,0,0,1,.95312-.16064h4.14453v1.68262h-3.89746a1.22237,1.22237,0,0,0-.84082.28466,1.03193,1.03193,0,0,0-.32226.81641,1.19329,1.19329,0,0,0,.40234.92188,1.5152,1.5152,0,0,0,1.05762.36474h3.60058v1.68262H533.233V244.609Z"/><path class="cls-4" d="M533.233,239.95715v-.87842h-1.97949v-1.64551H533.233v-1.08838h1.11328v1.08838h3.36524a.59964.59964,0,0,0,.49512-.17285.72015.72015,0,0,0,.13574-.458v-.32178a1.14391,1.14391,0,0,0-.0127-.17285H539.567a2.58293,2.58293,0,0,1,.01269.272c.00782.09082.0127.20215.0127.334v.44531a2.75734,2.75734,0,0,1-.06836.61279,1.53241,1.53241,0,0,1-.24121.5503,1.28723,1.28723,0,0,1-.46973.40234,1.602,1.602,0,0,1-.74316.1543h-3.72364v.87842Z"/><path class="cls-4" d="M534.24762,233.858v-.03711a2.3863,2.3863,0,0,1-.8164-.64355,1.47067,1.47067,0,0,1-.27247-.91553,1.24644,1.24644,0,0,1,.04883-.396h1.47266v.03711a1.74879,1.74879,0,0,0,.3584,1.36132,1.79109,1.79109,0,0,0,1.44824.53174h3.09277v1.68262H533.233V233.858Z"/><path class="cls-4" d="M539.7652,228.31554a3.3958,3.3958,0,0,1-.25977,1.34864,3.14177,3.14177,0,0,1-1.77539,1.72558,3.711,3.711,0,0,1-2.63476,0,3.14177,3.14177,0,0,1-1.77539-1.72558,3.618,3.618,0,0,1,0-2.69727,3.14177,3.14177,0,0,1,1.77539-1.72558,3.711,3.711,0,0,1,2.63476,0,3.14177,3.14177,0,0,1,1.77539,1.72558A3.39746,3.39746,0,0,1,539.7652,228.31554Zm-1.28711,0a1.38732,1.38732,0,0,0-.56836-1.19384,2.48666,2.48666,0,0,0-1.49707-.41455,2.51476,2.51476,0,0,0-1.50391.41455,1.52655,1.52655,0,0,0,0,2.38769,2.51476,2.51476,0,0,0,1.50391.41455,2.48666,2.48666,0,0,0,1.49707-.41455A1.38733,1.38733,0,0,0,538.47809,228.31554Z"/><path class="cls-4" d="M530.734,224.19543V222.5133h8.8457v1.68213Z"/><path class="cls-4" d="M539.7652,216.74767a3.31543,3.31543,0,0,1-.61231,2.14014,2.20927,2.20927,0,0,1-1.62695.8291v-1.55908a1.12023,1.12023,0,0,0,.80371-.45117,1.63117,1.63117,0,0,0,.24805-.93408,1.57,1.57,0,0,0-.19824-.85987.608.608,0,0,0-.53223-.30322.47327.47327,0,0,0-.3584.14209,1.08636,1.08636,0,0,0-.22265.37109,3.1026,3.1026,0,0,0-.14258.53223q-.05566.30322-.11719.62451-.08643.43359-.19824.83545a2.48118,2.48118,0,0,1-.32129.71729,1.61081,1.61081,0,0,1-.54492.50732,1.69634,1.69634,0,0,1-.85352.19189,1.89785,1.89785,0,0,1-.89648-.19824,1.79158,1.79158,0,0,1-.63086-.55029,2.48244,2.48244,0,0,1-.37793-.82275,3.99518,3.99518,0,0,1-.124-1.01465,2.95168,2.95168,0,0,1,.56934-1.94239,2.20814,2.20814,0,0,1,1.53418-.77929v1.52148a.9454.9454,0,0,0-.72363.37158,1.53983,1.53983,0,0,0-.2041.85352,1.51725,1.51725,0,0,0,.17968.792.57746.57746,0,0,0,.52539.29688.39522.39522,0,0,0,.32813-.14844,1.2826,1.2826,0,0,0,.19824-.39014,3.47473,3.47473,0,0,0,.12988-.55664c.03223-.21.07422-.42676.123-.64941q.08643-.3955.19824-.79785a2.46483,2.46483,0,0,1,.32813-.72413,1.65384,1.65384,0,0,1,.56836-.51953,1.8512,1.8512,0,0,1,.91015-.19775,1.82223,1.82223,0,0,1,.85938.19775,1.85825,1.85825,0,0,1,.63769.55078,2.65884,2.65884,0,0,1,.40137.84131A3.8679,3.8679,0,0,1,539.7652,216.74767Z"/><path class="cls-4" d="M530.734,213.32091V211.6383h1.50879v1.68261Zm2.499,0V211.6383h6.34668v1.68261Z"/><path class="cls-4" d="M541.74469,207.75353a3.59366,3.59366,0,0,1-.52539,2.07227,2.05855,2.05855,0,0,1-1.4541.897v-1.67041a.9886.9886,0,0,0,.501-.38965,1.55184,1.55184,0,0,0,.2041-.88476q0-1.40993-1.32324-1.41016h-.69336v.03711a2.479,2.479,0,0,1,.53222.668,2.045,2.045,0,0,1,.21.98974,2.70125,2.70125,0,0,1-.2041,1.03321,2.67241,2.67241,0,0,1-.59375.89062,2.9979,2.9979,0,0,1-.95215.63086,3.22332,3.22332,0,0,1-1.28125.2417,3.819,3.819,0,0,1-1.28027-.2041,2.92725,2.92725,0,0,1-.9834-.56934,2.45349,2.45349,0,0,1-.625-.86621,2.77556,2.77556,0,0,1-.2168-1.10693,2.24574,2.24574,0,0,1,.22364-1.0332,1.97886,1.97886,0,0,1,.61816-.72364v-.0249h-.668v-1.6206h5.86426a2.92959,2.92959,0,0,1,1.1377.19824,2.17853,2.17853,0,0,1,.792.55664,2.405,2.405,0,0,1,.54492.98926A4.63624,4.63624,0,0,1,541.74469,207.75353Zm-3.89746.02442a1.56356,1.56356,0,0,0-.13574-.68018,1.25546,1.25546,0,0,0-.3711-.46387,1.58534,1.58534,0,0,0-.54492-.26611,2.453,2.453,0,0,0-.668-.08643,2.30649,2.30649,0,0,0-.66113.09278,1.59185,1.59185,0,0,0-.55078.27832,1.29953,1.29953,0,0,0-.37109.47021,1.53015,1.53015,0,0,0-.13672.668,1.28354,1.28354,0,0,0,.46386,1.03272,1.9101,1.9101,0,0,0,1.26856.39013,1.85417,1.85417,0,0,0,1.26172-.39013A1.31879,1.31879,0,0,0,537.84723,207.778Z"/><path class="cls-4" d="M534.09918,201.9757v-.03711a2.22092,2.22092,0,0,1-.77929-.77344,2.41268,2.41268,0,0,1-.08106-2.00488,2.04593,2.04593,0,0,1,.49512-.68652,2.3069,2.3069,0,0,1,.748-.44532,2.73793,2.73793,0,0,1,.95312-.16015h4.14453v1.68164h-3.89746a1.225,1.225,0,0,0-.84082.28516,1.03121,1.03121,0,0,0-.32226.8164,1.19328,1.19328,0,0,0,.40234.92188,1.51547,1.51547,0,0,0,1.05762.36523h3.60058v1.68262H533.233V201.9757Z"/><path class="cls-4" d="M539.57965,192.83215a.82777.82777,0,0,1-.29687.124,3.20785,3.20785,0,0,1-.40821.07422v.02539a2.13246,2.13246,0,0,1,.33985.27832,1.44921,1.44921,0,0,1,.2666.37109,2.18419,2.18419,0,0,1,.17871.5127,3.1672,3.1672,0,0,1,.06836.706,2.47418,2.47418,0,0,1-.49512,1.59571,1.7431,1.7431,0,0,1-1.44726.61816,1.79514,1.79514,0,0,1-.87793-.19727,1.70708,1.70708,0,0,1-.59473-.54492,2.74061,2.74061,0,0,1-.36426-.81054,7.38035,7.38035,0,0,1-.2041-.9961,7.19657,7.19657,0,0,0-.23535-1.16211.47669.47669,0,0,0-.48242-.37109.6558.6558,0,0,0-.55078.26562,1.30314,1.30314,0,0,0-.2041.79785,1.50637,1.50637,0,0,0,.21679.89063.87025.87025,0,0,0,.67383.334v1.49707a2.018,2.018,0,0,1-.79785-.18554,1.92052,1.92052,0,0,1-.66211-.50684,2.55011,2.55011,0,0,1-.457-.8418,3.69689,3.69689,0,0,1-.17383-1.20019,2.85147,2.85147,0,0,1,.6123-2.04688,2.30539,2.30539,0,0,1,1.72657-.625h3.22851q.71778,0,.87891-.22265h.06152Zm-1.02734,1.68261a1.79169,1.79169,0,0,0-.10449-.63672,1.53654,1.53654,0,0,0-.27246-.46972,1.13206,1.13206,0,0,0-.38379-.291,1.06473,1.06473,0,0,0-.45118-.09863h-.95312a1.94623,1.94623,0,0,1,.2168.53808c.05371.21.10547.42286.15429.63672a3.38873,3.38873,0,0,0,.34668.99024.82759.82759,0,0,0,1.26856.04883A1.28522,1.28522,0,0,0,538.55231,194.51476Z"/><path class="cls-4" d="M530.734,190.34582V188.6632h8.8457v1.68262Z"/><path class="cls-6" d="M766.4859,15.33019h4.75391a5.31328,5.31328,0,0,1,2.10351.40479,4.70993,4.70993,0,0,1,1.62891,1.13769,5.11973,5.11973,0,0,1,1.05176,1.77686,6.85681,6.85681,0,0,1,.374,2.32226,6.51265,6.51265,0,0,1-.499,2.626,4.61928,4.61928,0,0,1-1.4336,1.86231,4.70438,4.70438,0,0,1-1.49609.75585,6.50634,6.50634,0,0,1-1.90137.25733h-4.582Zm4.37891,8.8208a2.53042,2.53042,0,0,0,2.05762-.81836,3.58505,3.58505,0,0,0,.68554-2.36084,3.8628,3.8628,0,0,0-.70117-2.43115,2.39445,2.39445,0,0,0-2.01074-.9043h-1.65137V24.151Z"/><path class="cls-6" d="M779.9986,15.33019h2.83594L786.856,26.47326h-2.89941l-.6543-2.01026h-3.89649l-.63867,2.01026h-2.77441Zm2.665,7.15332-.8418-2.69629q-.07909-.21825-.15625-.48291-.07764-.26513-.13965-.51465-.0791-.28052-.14062-.57666h-.03125c-.05176.19776-.1045.38965-.15625.57666q-.07764.24977-.14746.51465-.07032.26514-.14844.48291l-.85742,2.69629Z"/><path class="cls-6" d="M788.97516,17.66759H785.733v-2.3374h9.27344v2.3374H791.734v8.80567h-2.75879Z"/><path class="cls-6" d="M797.859,15.33019h2.83594l4.02148,11.14307H801.817l-.6543-2.01026h-3.89648l-.63868,2.01026h-2.77441Zm2.665,7.15332-.8418-2.69629q-.0791-.21825-.15625-.48291-.07764-.26513-.13965-.51465-.07909-.28052-.14062-.57666h-.03125c-.05176.19776-.10449.38965-.15625.57666q-.07764.24977-.14746.51465-.07032.26514-.14844.48291l-.85742,2.69629Z"/><path class="cls-6" d="M807.91071,15.33019h5.37695a5.0322,5.0322,0,0,1,1.51172.20215,3.38526,3.38526,0,0,1,1.09082.56152,2.62051,2.62051,0,0,1,.9668,2.13477,2.19906,2.19906,0,0,1-.40528,1.37158,2.52472,2.52472,0,0,1-1.15332.81055v.04687a2.76509,2.76509,0,0,1,1.457,1.00489,2.811,2.811,0,0,1,.53711,1.72216,3.3349,3.3349,0,0,1-.2959,1.45752,2.84829,2.84829,0,0,1-.84179,1.03614,4.32548,4.32548,0,0,1-2.74219.79492h-5.50195Zm4.97168,4.41016a1.53533,1.53533,0,0,0,.96582-.28809,1.11462,1.11462,0,0,0,.01562-1.65185,1.496,1.496,0,0,0-.96582-.28858h-2.25976v2.22852Zm.21777,4.52a1.53292,1.53292,0,0,0,1.07617-.3584,1.23453,1.23453,0,0,0,.38965-.95117,1.19931,1.19931,0,0,0-.42871-1.00489,1.6805,1.6805,0,0,0-1.06836-.335h-2.43066v2.64942Z"/><path class="cls-6" d="M822.96539,26.6759a4.99493,4.99493,0,0,1-3.51464-1.083,3.961,3.961,0,0,1-1.16114-3.04688V15.33019h2.75879v7.30908a1.91885,1.91885,0,0,0,.44434,1.32471,1.88743,1.88743,0,0,0,1.47265.499,1.80392,1.80392,0,0,0,1.42579-.52246,1.96334,1.96334,0,0,0,.46-1.34814V15.33019h2.75879V22.546a3.97516,3.97516,0,0,1-1.16114,3.03125A4.9004,4.9004,0,0,1,822.96539,26.6759Z"/><path class="cls-6" d="M833.57868,26.7384a7.86542,7.86542,0,0,1-2.01758-.2417,4.57922,4.57922,0,0,1-1.5586-.7168,3.37,3.37,0,0,1-1.01367-1.18457,3.64158,3.64158,0,0,1-.38183-1.62891h2.77441a1.59861,1.59861,0,0,0,.63867,1.21582,2.709,2.709,0,0,0,1.543.374,3.432,3.432,0,0,0,.66309-.0625,1.8658,1.8658,0,0,0,.56836-.20264,1.19062,1.19062,0,0,0,.40527-.36621.92522.92522,0,0,0,.15625-.5376.8818.8818,0,0,0-.16406-.54541,1.316,1.316,0,0,0-.47559-.374,3.94118,3.94118,0,0,0-.76367-.273q-.45117-.11646-1.02832-.25684-.73242-.17139-1.44141-.38965a4.84078,4.84078,0,0,1-1.2705-.59228,3.004,3.004,0,0,1-.91114-.95068,2.74073,2.74073,0,0,1-.35156-1.44922,3.22382,3.22382,0,0,1,.34375-1.53516,3.02939,3.02939,0,0,1,.93457-1.06787,4.11787,4.11787,0,0,1,1.40234-.623,7.18368,7.18368,0,0,1,1.7461-.20263,6.52778,6.52778,0,0,1,1.69043.21,4.17164,4.17164,0,0,1,1.37207.63134,3.13928,3.13928,0,0,1,.93457,1.06788,3.54088,3.54088,0,0,1,.39746,1.51953h-2.69629a1.374,1.374,0,0,0-.54492-.99756,2.063,2.063,0,0,0-1.24707-.34278,2.09646,2.09646,0,0,0-1.16895.28809.87253.87253,0,0,0-.43652.75586.73609.73609,0,0,0,.16406.49121,1.31512,1.31512,0,0,0,.47559.335,4.62643,4.62643,0,0,0,.78711.25684q.4746.11718,1.09863.25732.77929.18677,1.48828.4209a4.632,4.632,0,0,1,1.25391.62354,2.9272,2.9272,0,0,1,.873.98144,3.0264,3.0264,0,0,1,.32715,1.481,3.23164,3.23164,0,0,1-1.3164,2.68847,4.49725,4.49725,0,0,1-1.44922.70118A6.448,6.448,0,0,1,833.57868,26.7384Z"/><path class="cls-7" d="M20.35016,133.59533a3.4227,3.4227,0,0,1-2.32129-.6875,2.48965,2.48965,0,0,1-.78027-1.97412v-5.33545h1.59472v5.33545a1.4644,1.4644,0,0,0,.33594,1.001,1.44346,1.44346,0,0,0,1.1377.38477,1.32021,1.32021,0,0,0,1.48535-1.40771v-5.31348H23.397v5.33545a2.52513,2.52513,0,0,1-.76465,1.96338A3.28189,3.28189,0,0,1,20.35016,133.59533Z"/><path class="cls-7" d="M27.64313,133.63927a3.97514,3.97514,0,0,1-2.48047-.67627,2.41224,2.41224,0,0,1-.91894-1.93066h1.5625a1.39252,1.39252,0,0,0,.50585,1.01758,2.15822,2.15822,0,0,0,1.26465.30273,2.96909,2.96909,0,0,0,.583-.05517,1.58053,1.58053,0,0,0,.48438-.17578.99331.99331,0,0,0,.335-.31348.82825.82825,0,0,0,.127-.46777.77821.77821,0,0,0-.1377-.47315,1.06366,1.06366,0,0,0-.39062-.31347,3.179,3.179,0,0,0-.61035-.21973q-.35742-.09375-.8086-.19238-.52734-.12159-1.01757-.26954a3.07641,3.07641,0,0,1-.85743-.40185,1.92273,1.92273,0,0,1-.59375-.64893,2.0245,2.0245,0,0,1-.22558-1.01172,2.21137,2.21137,0,0,1,.22558-1.02294,2.07673,2.07673,0,0,1,.627-.73731,2.80684,2.80684,0,0,1,.95117-.44531,4.62487,4.62487,0,0,1,1.21-.14844,3.3986,3.3986,0,0,1,2.13965.62695,2.409,2.409,0,0,1,.89648,1.82569H28.98493a1.19088,1.19088,0,0,0-.48438-.89063,1.73613,1.73613,0,0,0-1.0332-.29736,1.86306,1.86306,0,0,0-1.03418.25293.77078.77078,0,0,0-.38477.67139.71337.71337,0,0,0,.10449.40136.89319.89319,0,0,0,.31836.28028,2.371,2.371,0,0,0,.53418.209q.31788.08862.75879.187.605.13257,1.13867.29151a3.52776,3.52776,0,0,1,.93458.42382,1.94689,1.94689,0,0,1,.63281.6709,2.108,2.108,0,0,1,.23047,1.04492,2.3734,2.3734,0,0,1-.23047,1.06153,2.206,2.206,0,0,1-.63867.78125,2.91492,2.91492,0,0,1-.96778.47851A4.31754,4.31754,0,0,1,27.64313,133.63927Z"/><path class="cls-7" d="M31.65778,125.59826h3.52051a3.77475,3.77475,0,0,1,1.11621.14892,2.08636,2.08636,0,0,1,.78613.42334,1.88331,1.88331,0,0,1,.627,1.47413,1.47124,1.47124,0,0,1-.335.99511,1.96871,1.96871,0,0,1-.89648.57764v.0332a1.99389,1.99389,0,0,1,1.06152.7041,1.96567,1.96567,0,0,1,.40137,1.24268,2.3638,2.3638,0,0,1-.1709.95166,1.86945,1.86945,0,0,1-.52246.6875,2.40527,2.40527,0,0,1-.84668.46191,3.64421,3.64421,0,0,1-1.13281.165h-3.6084ZM34.98,128.76672a1.36794,1.36794,0,0,0,.84668-.24219.928.928,0,0,0,.0166-1.38623,1.29427,1.29427,0,0,0-.83007-.2417H33.25348v1.87012Zm-1.72656,3.37695h1.83691a1.31046,1.31046,0,0,0,.90723-.29151.99369.99369,0,0,0,.32422-.77587,1.01153,1.01153,0,0,0-.36328-.84668,1.42528,1.42528,0,0,0-.91211-.28614h-1.793Z"/><path class="cls-7" d="M227.46149,34.7384h3.70605a3.60821,3.60821,0,0,1,1.28516.20654,2.58222,2.58222,0,0,1,.9209.584,2.69318,2.69318,0,0,1,.55469.84961,2.77918,2.77918,0,0,1,.20019,1.07422,2.92834,2.92834,0,0,1-.19434,1.09131,2.359,2.359,0,0,1-.55468.83789,2.50053,2.50053,0,0,1-.88477.543,3.3937,3.3937,0,0,1-1.18652.19482H229.232V43.1759h-1.77051Zm1.77051,3.98876h1.76953a1.39963,1.39963,0,0,0,1.02148-.34228,1.2343,1.2343,0,0,0,.34766-.92041,1.17616,1.17616,0,0,0-.35352-.92041,1.43131,1.43131,0,0,0-.99218-.31885h-1.793Z"/><path class="cls-7" d="M234.98981,34.7384h1.71191v8.4375h-1.71191Z"/><path class="cls-7" d="M238.01129,34.7384h1.73438l2.80859,4.70849q.09375.17725.20117.3833c.07032.13819.13672.26563.19922.38379.07227.1416.13477.2793.18946.41309h.02343q-.01172-.2483-.02343-.50733c-.00782-.14941-.01368-.30908-.01758-.478q-.00586-.25416-.00586-.478V34.7384h1.6875v8.4375h-1.65235l-2.8789-4.66114a3.39154,3.39154,0,0,1-.207-.37207c-.06641-.1372-.13184-.26513-.19434-.3833q-.10693-.2124-.20019-.41308h-.02344c.00683.17334.01562.34619.02344.51953q.01171.22412.01757.47754.00587.25415.00586.478v4.3545h-1.6875Z"/><path class="cls-7" d="M248.08844,34.7384h1.71192v3.30419h3.31543V34.7384h1.71093v8.4375h-1.71093V39.45861h-3.31543V43.1759h-1.71192Z"/><path class="cls-7" d="M256.12457,34.7384h6.207v1.43994h-4.49512V38.066h3.9414v1.4043h-3.9414v2.27783h4.53125V43.1759h-6.24317Z"/><path class="cls-7" d="M265.813,34.7384h1.77051l2.97363,8.4375H268.775l-.56641-1.79346h-3.04492L264.609,43.1759h-1.73438Zm-.24707,5.334h2.22949l-.75488-2.43115a3.95289,3.95289,0,0,1-.1123-.38916c-.03516-.14942-.07325-.291-.11231-.42481-.03906-.15722-.07812-.31885-.11719-.48388h-.02343q-.07179.24754-.13086.48388-.05861.20069-.11133.42481a3.46678,3.46678,0,0,1-.11328.38916Z"/><path class="cls-7" d="M271.2652,34.7384h3.292a3.53991,3.53991,0,0,1,1.53418.3247,3.44223,3.44223,0,0,1,1.168.89649,4.05945,4.05945,0,0,1,.74414,1.36328,5.52779,5.52779,0,0,1,.25977,1.72265,5.14724,5.14724,0,0,1-.33692,1.89405,3.36559,3.36559,0,0,1-2.09472,2.02392,4.323,4.323,0,0,1-1.416.21241H271.2652Zm3.03223,6.9624a1.99435,1.99435,0,0,0,1.71777-.69629,3.25226,3.25226,0,0,0,.51269-1.959,4.62281,4.62281,0,0,0-.13574-1.15039,2.608,2.608,0,0,0-.41308-.90283,1.9146,1.9146,0,0,0-.68457-.584,2.072,2.072,0,0,0-.94922-.20655h-1.36914v5.499Z"/><path class="cls-7" d="M279.19489,34.7384h6.207v1.43994h-4.4961V38.066h3.94141v1.4043h-3.94141v2.27783h4.53125V43.1759h-6.24218Z"/><path class="cls-7" d="M286.49957,34.7384h3.87012a3.4353,3.4353,0,0,1,1.11524.17138,2.53213,2.53213,0,0,1,.85546.47754,2.11825,2.11825,0,0,1,.54883.73779,2.30579,2.30579,0,0,1,.19434.96143,2.21653,2.21653,0,0,1-.36524,1.28076,1.99894,1.99894,0,0,1-1.17968.76074v.03565a1.72424,1.72424,0,0,1,.89062.54883,2.17713,2.17713,0,0,1,.39453,1.15039c.03125.29931.05371.57666.06543.832q.01758.38379.04785.67871a2.49712,2.49712,0,0,0,.0879.4834.35109.35109,0,0,0,.165.23633v.08252h-1.63964c-.05567-.02344-.09961-.0962-.13086-.21827a3.2986,3.2986,0,0,1-.07618-.45459q-.0293-.271-.05273-.60156-.02343-.33032-.04687-.67285a1.594,1.594,0,0,0-.45508-1.06787,1.69339,1.69339,0,0,0-1.19727-.37158h-1.38086V43.1759h-1.71094Zm1.71094,3.729h1.81641a1.47851,1.47851,0,0,0,1.05078-.32471,1.09238,1.09238,0,0,0,.3418-.83154,1.16968,1.16968,0,0,0-.33008-.856,1.36769,1.36769,0,0,0-1.01465-.33594h-1.86426Z"/><path class="cls-7" d="M297.45075,43.36486a4.26954,4.26954,0,0,1-2.66211-.72607,2.58627,2.58627,0,0,1-.98438-2.0708H295.48a1.49513,1.49513,0,0,0,.542,1.0913,2.315,2.315,0,0,0,1.35742.32471,3.18266,3.18266,0,0,0,.626-.05908,1.69471,1.69471,0,0,0,.51856-.18848,1.065,1.065,0,0,0,.36035-.33642.89748.89748,0,0,0,.13477-.50147.84032.84032,0,0,0-.14649-.50781,1.1497,1.1497,0,0,0-.41992-.33594,3.38376,3.38376,0,0,0-.6543-.23633q-.38379-.0996-.86718-.20654-.56689-.12964-1.0918-.28906a3.2924,3.2924,0,0,1-.91992-.43067,2.07808,2.07808,0,0,1-.6377-.69629,2.1755,2.1755,0,0,1-.24219-1.08544,2.37785,2.37785,0,0,1,.24219-1.09766,2.24671,2.24671,0,0,1,.67285-.79053,3.0232,3.0232,0,0,1,1.02051-.478,4.97943,4.97943,0,0,1,1.29785-.15917,3.64527,3.64527,0,0,1,2.29492.67236,2.58777,2.58777,0,0,1,.96192,1.959H298.8902a1.28284,1.28284,0,0,0-.51953-.95556,1.867,1.867,0,0,0-1.10938-.31885,1.99688,1.99688,0,0,0-1.10937.27148.82691.82691,0,0,0-.41309.71973.77339.77339,0,0,0,.11231.43066.96341.96341,0,0,0,.34179.30127,2.57,2.57,0,0,0,.57227.22412q.34278.09448.81445.20069.64893.14136,1.22168.3125a3.78666,3.78666,0,0,1,1.00293.45459,2.07935,2.07935,0,0,1,.67871.71972,2.25578,2.25578,0,0,1,.24707,1.1211,2.53891,2.53891,0,0,1-.24707,1.13867,2.3628,2.3628,0,0,1-.68457.83789,3.12572,3.12572,0,0,1-1.03906.51318A4.61316,4.61316,0,0,1,297.45075,43.36486Z"/><path class="cls-7" d="M424.95465,111.60509a5.11034,5.11034,0,0,1-2.04-.39648,4.67438,4.67438,0,0,1-1.5791-1.09766,4.93662,4.93662,0,0,1-1.01953-1.66357,5.93618,5.93618,0,0,1-.36133-2.09619,6.10776,6.10776,0,0,1,.35449-2.103,4.95718,4.95718,0,0,1,1.00489-1.67773,4.64428,4.64428,0,0,1,1.57226-1.11182,5.06269,5.06269,0,0,1,2.05371-.40381,5.17135,5.17135,0,0,1,1.62207.24072,4.28437,4.28437,0,0,1,1.26661.65186,3.53778,3.53778,0,0,1,1.041,1.21777,4.50084,4.50084,0,0,1,.47363,1.57178h-2.50585a1.83332,1.83332,0,0,0-1.91211-1.6001,2.26446,2.26446,0,0,0-1.07618.24073,2.09751,2.09751,0,0,0-.75.67236,3.1085,3.1085,0,0,0-.44629,1.02,5.23808,5.23808,0,0,0-.14941,1.28125,4.59816,4.59816,0,0,0,.16992,1.28174,3.12253,3.12253,0,0,0,.48926,1.01269,2.33829,2.33829,0,0,0,.76465.66553,2.09443,2.09443,0,0,0,1.01269.24072,1.94069,1.94069,0,0,0,1.36622-.47461,1.87636,1.87636,0,0,0,.60156-1.21093h2.50683a3.97567,3.97567,0,0,1-.375,1.43066,3.88838,3.88838,0,0,1-.84277,1.16113,3.97325,3.97325,0,0,1-1.38086.85645A5.36448,5.36448,0,0,1,424.95465,111.60509Z"/><path class="cls-7" d="M430.30622,101.253h4.56054a4.84,4.84,0,0,1,1.61426.24121,3.125,3.125,0,0,1,1.14746.69385,3.02536,3.02536,0,0,1,.75781,1.09033,3.66779,3.66779,0,0,1,.26172,1.40186,3.57538,3.57538,0,0,1-.24121,1.33105,3.00658,3.00658,0,0,1-.68652,1.04786,3.13235,3.13235,0,0,1-1.084.687,3.87587,3.87587,0,0,1-1.416.24756H432.855v3.38476h-2.54882Zm4.40429,4.7583a1.42025,1.42025,0,0,0,1.04883-.36816,1.32417,1.32417,0,0,0,.36719-.97705,1.255,1.255,0,0,0-.36719-.956,1.47472,1.47472,0,0,0-1.04883-.34668H432.855v2.64794Z"/><path class="cls-7" d="M443.78864,111.56261a4.53725,4.53725,0,0,1-3.19336-.98437,3.59674,3.59674,0,0,1-1.05567-2.76856V101.253h2.50684v6.64161a1.74528,1.74528,0,0,0,.40332,1.2041,1.71576,1.71576,0,0,0,1.33887.45312,1.63811,1.63811,0,0,0,1.29492-.47461,1.78494,1.78494,0,0,0,.418-1.2251V101.253h2.50586v6.55664a3.61,3.61,0,0,1-1.05469,2.7544A4.44915,4.44915,0,0,1,443.78864,111.56261Z"/><path class="cls-7" d="M451.52008,101.253h4.88574a4.5498,4.5498,0,0,1,1.373.18457,3.07018,3.07018,0,0,1,.99219.50977,2.38222,2.38222,0,0,1,.877,1.93994,1.996,1.996,0,0,1-.36719,1.24609,2.29461,2.29461,0,0,1-1.04882.73633v.04248a2.50654,2.50654,0,0,1,1.32422.91358,2.54957,2.54957,0,0,1,.48828,1.56494,3.03339,3.03339,0,0,1-.26856,1.32373,2.59129,2.59129,0,0,1-.76465.94189,3.93185,3.93185,0,0,1-2.49218.72217h-4.999Zm4.51758,4.00782a1.39688,1.39688,0,0,0,.87793-.26172,1.01287,1.01287,0,0,0,.01367-1.50147,1.36107,1.36107,0,0,0-.877-.26172h-2.05469v2.02491Zm.19824,4.10693a1.38743,1.38743,0,0,0,.97657-.32568,1.11684,1.11684,0,0,0,.35449-.86377,1.088,1.088,0,0,0-.38965-.91358,1.52626,1.52626,0,0,0-.96973-.30468h-2.21v2.40771Z"/><path class="cls-7" d="M465.68122,111.61925a5.22975,5.22975,0,0,1-2.0752-.39648,4.45684,4.45684,0,0,1-1.57129-1.10449,5.00515,5.00515,0,0,1-.999-1.67822,6.41541,6.41541,0,0,1,0-4.20606,5.00762,5.00762,0,0,1,.999-1.67773,4.45686,4.45686,0,0,1,1.57129-1.1045,5.62005,5.62005,0,0,1,4.14941,0,4.52815,4.52815,0,0,1,1.57813,1.1045,4.95932,4.95932,0,0,1,1.00586,1.67773,6.41541,6.41541,0,0,1,0,4.20606,4.95689,4.95689,0,0,1-1.00586,1.67822,4.52813,4.52813,0,0,1-1.57813,1.10449A5.235,5.235,0,0,1,465.68122,111.61925Zm.01367-2.03906a2.213,2.213,0,0,0,1.06836-.248,2.26074,2.26074,0,0,0,.77246-.67969,2.947,2.947,0,0,0,.46-1.02686,5.66714,5.66714,0,0,0,0-2.57715,3.02373,3.02373,0,0,0-.46-1.03369,2.242,2.242,0,0,0-.77246-.687,2.43118,2.43118,0,0,0-2.1377,0,2.24756,2.24756,0,0,0-.77148.687,3.13016,3.13016,0,0,0-.46778,1.03369,5.39149,5.39149,0,0,0,0,2.57715,3.04882,3.04882,0,0,0,.46778,1.02686,2.26645,2.26645,0,0,0,.77148.67969A2.21694,2.21694,0,0,0,465.69489,109.58019Z"/><path class="cls-7" d="M473.96539,101.253h2.57715l3.6543,10.12549h-2.63477l-.59472-1.82666h-3.54l-.58106,1.82666h-2.5205Zm2.4209,6.5-.76367-2.4497c-.04785-.13184-.0957-.27832-.14258-.439s-.08984-.3164-.12695-.46728c-.04687-.16993-.08984-.34473-.127-.52393h-.0293q-.07031.2688-.14062.52393-.07179.22632-.13477.46728-.06445.241-.13477.439l-.77929,2.4497Z"/><path class="cls-7" d="M480.90485,101.253h4.84277a4.96419,4.96419,0,0,1,1.40235.19141,3.35732,3.35732,0,0,1,1.125.55957,2.59874,2.59874,0,0,1,.74414.91309,2.80661,2.80661,0,0,1,.26855,1.25341,2.40054,2.40054,0,0,1-1.75586,2.44971v.04248a2.14864,2.14864,0,0,1,1.0127.65869,2.45341,2.45341,0,0,1,.46,1.19678,7.90886,7.90886,0,0,1,.10644.96973q.0205.4746.04981.84961a4.22976,4.22976,0,0,0,.085.623c.03711.16553.09863.26221.18359.29053v.12744h-2.43554a.42444.42444,0,0,1-.14844-.29053,5.56477,5.56477,0,0,1-.085-.5664c-.02442-.22168-.04493-.4624-.06446-.72217q-.02783-.38892-.085-.77148a1.76218,1.76218,0,0,0-.48828-1.07666,1.69037,1.69037,0,0,0-1.19629-.36817h-1.51562v3.79541h-2.50586Zm4.38965,4.4751a1.67969,1.67969,0,0,0,1.126-.32568,1.136,1.136,0,0,0,.375-.90625,1.21238,1.21238,0,0,0-.36133-.90625,1.48872,1.48872,0,0,0-1.083-.354h-1.94043v2.49219Z"/><path class="cls-7" d="M490.4068,101.253h4.31836a4.82533,4.82533,0,0,1,1.91211.36866,4.263,4.263,0,0,1,1.47949,1.03369,4.64838,4.64838,0,0,1,.95606,1.61426,6.22351,6.22351,0,0,1,.33984,2.10986,5.933,5.933,0,0,1-.45312,2.38623,4.19778,4.19778,0,0,1-1.30274,1.69238,4.28472,4.28472,0,0,1-1.35937.68653,5.90769,5.90769,0,0,1-1.72754.23388H490.4068Zm3.97852,8.01563a2.29973,2.29973,0,0,0,1.86914-.74365,3.25425,3.25425,0,0,0,.624-2.14551,3.51154,3.51154,0,0,0-.63769-2.209,2.17609,2.17609,0,0,0-1.82715-.82128h-1.501v5.91943Z"/><path class="cls-7" d="M436.72028,264.03136h3.45215a3.71222,3.71222,0,0,1,1.60839.33985,3.59722,3.59722,0,0,1,1.22461.94043,4.23787,4.23787,0,0,1,.7793,1.42871,5.758,5.758,0,0,1,.27246,1.80664,5.39623,5.39623,0,0,1-.35254,1.98535,3.666,3.666,0,0,1-1.05859,1.49121,3.627,3.627,0,0,1-1.1377.63086,4.53244,4.53244,0,0,1-1.48437.22266h-3.30371ZM439.9,271.33019a2.09148,2.09148,0,0,0,1.80078-.72949,3.4096,3.4096,0,0,0,.53711-2.05371,4.81863,4.81863,0,0,0-.14161-1.20606,2.75292,2.75292,0,0,0-.43261-.94726,2.01478,2.01478,0,0,0-.71875-.61231,2.17513,2.17513,0,0,0-.99512-.21582H438.5152v5.76465Z"/><path class="cls-7" d="M448.9068,273.06261a4.27518,4.27518,0,0,1-1.71387-.33984,3.93791,3.93791,0,0,1-1.34765-.95312,4.42115,4.42115,0,0,1-.87891-1.44727,5.14491,5.14491,0,0,1-.31543-1.83691,5.46987,5.46987,0,0,1,.29688-1.8252,4.40511,4.40511,0,0,1,.84765-1.47266,3.863,3.863,0,0,1,1.33594-.97753,4.27189,4.27189,0,0,1,1.7627-.35254,4.35191,4.35191,0,0,1,1.46093.22949,3.43315,3.43315,0,0,1,1.10743.63086,3.0414,3.0414,0,0,1,.73535.94629,3.5353,3.5353,0,0,1,.34668,1.17578h-1.78125a1.75858,1.75858,0,0,0-.60743-1.07031,1.90052,1.90052,0,0,0-1.26171-.40235,2.2402,2.2402,0,0,0-1.07032.24121,2.146,2.146,0,0,0-.748.66211,3.0493,3.0493,0,0,0-.44532.98926,4.81739,4.81739,0,0,0-.14843,1.22559,4.42144,4.42144,0,0,0,.167,1.249,3.00332,3.00332,0,0,0,.48242.9834,2.16,2.16,0,0,0,1.77539.87207,1.97105,1.97105,0,0,0,1.30567-.42676,1.67877,1.67877,0,0,0,.5996-1.13184h1.75684a3.16377,3.16377,0,0,1-.28418,1.13184,3.09125,3.09125,0,0,1-.69336.959,3.35818,3.35818,0,0,1-1.10742.68653A4.34749,4.34749,0,0,1,448.9068,273.06261Z"/><path class="cls-7" d="M452.77887,273.90441h5.2959v1.05078h-5.2959Z"/><path class="cls-7" d="M458.73,264.03136h3.45118a3.71665,3.71665,0,0,1,1.60937.33985,3.6161,3.6161,0,0,1,1.22461.94043,4.23787,4.23787,0,0,1,.7793,1.42871,5.75818,5.75818,0,0,1,.27148,1.80664,5.39637,5.39637,0,0,1-.35156,1.98535,3.67509,3.67509,0,0,1-1.0586,1.49121,3.63179,3.63179,0,0,1-1.13867.63086,4.52834,4.52834,0,0,1-1.48437.22266H458.73Zm3.17969,7.29883a2.0895,2.0895,0,0,0,1.79981-.72949,3.40948,3.40948,0,0,0,.53808-2.05371,4.77238,4.77238,0,0,0-.14258-1.20606,2.71746,2.71746,0,0,0-.43261-.94726,2.01165,2.01165,0,0,0-.71778-.61231,2.18215,2.18215,0,0,0-.99609-.21582H460.524v5.76465Z"/><path class="cls-7" d="M470.91559,273.06261a4.26705,4.26705,0,0,1-1.71289-.33984,3.951,3.951,0,0,1-1.34863-.95312,4.40235,4.40235,0,0,1-.87793-1.44727,5.145,5.145,0,0,1-.31641-1.83691,5.49483,5.49483,0,0,1,.29688-1.8252,4.42145,4.42145,0,0,1,.84765-1.47266,3.88125,3.88125,0,0,1,1.33594-.97753,4.27327,4.27327,0,0,1,1.76367-.35254,4.34205,4.34205,0,0,1,1.46.22949,3.41257,3.41257,0,0,1,1.10742.63086,3.027,3.027,0,0,1,.73536.94629,3.55938,3.55938,0,0,1,.34765,1.17578H472.772a1.75737,1.75737,0,0,0-.60645-1.07031,1.90234,1.90234,0,0,0-1.26172-.40235,2.23745,2.23745,0,0,0-1.07031.24121,2.13753,2.13753,0,0,0-.748.66211,3.00877,3.00877,0,0,0-.44531.98926,4.81739,4.81739,0,0,0-.14844,1.22559,4.42216,4.42216,0,0,0,.166,1.249,3.02276,3.02276,0,0,0,.48242.9834,2.16357,2.16357,0,0,0,1.77539.87207,1.971,1.971,0,0,0,1.30566-.42676,1.67981,1.67981,0,0,0,.60059-1.13184h1.75586a3.14246,3.14246,0,0,1-.2832,1.13184,3.09158,3.09158,0,0,1-.69336.959,3.35818,3.35818,0,0,1-1.10742.68653A4.3531,4.3531,0,0,1,470.91559,273.06261Z"/><path class="cls-7" d="M477.0777,266.963h-1.918v-1.11328a3.63321,3.63321,0,0,0,.74219-.09863,2.3239,2.3239,0,0,0,.64941-.25976,1.57472,1.57472,0,0,0,.48926-.458,1.63143,1.63143,0,0,0,.25977-.69336H478.772v8.53711H477.0777Z"/><path class="cls-7" d="M642.5445,146.41613h2.93261v11.84668H642.5445Z"/><path class="cls-7" d="M652.46832,158.54455a6.11814,6.11814,0,0,1-2.42675-.46387,5.21912,5.21912,0,0,1-1.83887-1.29248,5.86832,5.86832,0,0,1-1.16895-1.96338,7.51734,7.51734,0,0,1,0-4.9209,5.87814,5.87814,0,0,1,1.16895-1.96338,5.2255,5.2255,0,0,1,1.83887-1.29248,6.58246,6.58246,0,0,1,4.85449,0,5.323,5.323,0,0,1,1.84766,1.29248,5.81349,5.81349,0,0,1,1.17578,1.96338,7.51734,7.51734,0,0,1,0,4.9209,5.80389,5.80389,0,0,1-1.17578,1.96338,5.3164,5.3164,0,0,1-1.84766,1.29248A6.11965,6.11965,0,0,1,652.46832,158.54455Zm.01661-2.38574a2.59477,2.59477,0,0,0,1.251-.29,2.65124,2.65124,0,0,0,.90332-.79541,3.4512,3.4512,0,0,0,.53809-1.20118,6.62632,6.62632,0,0,0,0-3.01562,3.54381,3.54381,0,0,0-.53809-1.20947,2.63024,2.63024,0,0,0-4.30761,0,3.67094,3.67094,0,0,0-.54688,1.20947,6.316,6.316,0,0,0,0,3.01562,3.57269,3.57269,0,0,0,.54688,1.20118,2.6481,2.6481,0,0,0,.90234.79541A2.60017,2.60017,0,0,0,652.48493,156.15881Z"/><path class="cls-7" d="M662.04547,146.41613h5.7168a5.33923,5.33923,0,0,1,1.60645.21582,3.59464,3.59464,0,0,1,1.16015.59619,2.789,2.789,0,0,1,1.02735,2.27,2.33468,2.33468,0,0,1-.43067,1.458,2.68019,2.68019,0,0,1-1.22656.86133v.0498a2.93831,2.93831,0,0,1,1.5498,1.06885,2.98825,2.98825,0,0,1,.57129,1.83057,3.55272,3.55272,0,0,1-.31445,1.54931,3.03269,3.03269,0,0,1-.89551,1.10156,4.599,4.599,0,0,1-2.916.84522h-5.84864Zm5.28614,4.689a1.63153,1.63153,0,0,0,1.02636-.30664,1.183,1.183,0,0,0,.0166-1.75586,1.5883,1.5883,0,0,0-1.02636-.30664h-2.40332v2.36914Zm.23144,4.80518a1.62366,1.62366,0,0,0,1.14356-.38135,1.30975,1.30975,0,0,0,.41406-1.01074,1.273,1.273,0,0,0-.45606-1.06836,1.78369,1.78369,0,0,0-1.13476-.35644h-2.585v2.81689Z"/><path class="cls-7" d="M678.61383,158.54455a6.11822,6.11822,0,0,1-2.42676-.46387,5.21917,5.21917,0,0,1-1.83886-1.29248,5.86832,5.86832,0,0,1-1.16895-1.96338,7.51734,7.51734,0,0,1,0-4.9209,5.87814,5.87814,0,0,1,1.16895-1.96338,5.22555,5.22555,0,0,1,1.83886-1.29248,6.58249,6.58249,0,0,1,4.8545,0,5.323,5.323,0,0,1,1.84765,1.29248,5.81317,5.81317,0,0,1,1.17578,1.96338,7.51717,7.51717,0,0,1,0,4.9209,5.80357,5.80357,0,0,1-1.17578,1.96338,5.31636,5.31636,0,0,1-1.84765,1.29248A6.11969,6.11969,0,0,1,678.61383,158.54455Zm.0166-2.38574a2.59478,2.59478,0,0,0,1.251-.29,2.65124,2.65124,0,0,0,.90332-.79541,3.45139,3.45139,0,0,0,.53809-1.20118,6.6267,6.6267,0,0,0,0-3.01562,3.544,3.544,0,0,0-.53809-1.20947,2.63025,2.63025,0,0,0-4.30762,0,3.67113,3.67113,0,0,0-.54687,1.20947,6.316,6.316,0,0,0,0,3.01562,3.57288,3.57288,0,0,0,.54687,1.20118,2.64823,2.64823,0,0,0,.90235.79541A2.60013,2.60013,0,0,0,678.63043,156.15881Z"/><path class="cls-7" d="M688.30622,146.41613h3.01562l4.27441,11.84668H692.5152l-.69629-2.13721h-4.1416l-.67969,2.13721H684.0484Zm2.834,7.605-.89551-2.86621c-.05469-.1543-.11035-.32568-.165-.51367q-.08349-.28125-.14941-.54688-.08351-.29809-.14942-.61279h-.0332c-.05469.21-.11035.41406-.165.61279q-.08349.26514-.15722.54688-.07471.282-.15821.51367l-.91113,2.86621Z"/><path class="cls-7" d="M696.42438,146.41613h5.667a5.804,5.804,0,0,1,1.63965.22363,3.92977,3.92977,0,0,1,1.31738.65479,3.03676,3.03676,0,0,1,.87012,1.06836,3.27382,3.27382,0,0,1,.31445,1.46631,2.8093,2.8093,0,0,1-2.05371,2.86669v.04981a2.5185,2.5185,0,0,1,1.18457.77,2.885,2.885,0,0,1,.53809,1.40039,9.11284,9.11284,0,0,1,.124,1.13477q.0249.55516.0586.99414a5.02277,5.02277,0,0,0,.09863.729c.04394.19336.11621.30664.21582.33984v.14893h-2.84961a.49459.49459,0,0,1-.17383-.33984,6.43152,6.43152,0,0,1-.09961-.6626q-.04248-.38892-.07422-.84473-.03369-.45556-.09961-.90332a2.07229,2.07229,0,0,0-.57226-1.25928,1.97632,1.97632,0,0,0-1.39942-.43066H699.357v4.44043h-2.93262Zm5.13672,5.23584a1.96575,1.96575,0,0,0,1.31738-.38086,1.33194,1.33194,0,0,0,.43848-1.06055,1.42283,1.42283,0,0,0-.42188-1.06054,1.74475,1.74475,0,0,0-1.26758-.41407H699.357v2.916Z"/><path class="cls-7" d="M707.54157,146.41613h5.05371a5.64734,5.64734,0,0,1,2.23633.43115,4.99821,4.99821,0,0,1,1.73144,1.20947,5.45468,5.45468,0,0,1,1.11914,1.88868,7.2915,7.2915,0,0,1,.39746,2.46875,6.9313,6.9313,0,0,1-.53027,2.7915,4.91039,4.91039,0,0,1-1.52441,1.98,5.00307,5.00307,0,0,1-1.59083.80371,6.91738,6.91738,0,0,1-2.02148.27344h-4.87109Zm4.65625,9.37793a2.691,2.691,0,0,0,2.18652-.86963,3.81042,3.81042,0,0,0,.72949-2.51025,4.10989,4.10989,0,0,0-.74609-2.585,2.54488,2.54488,0,0,0-2.13672-.96094h-1.75684v6.92578Z"/><path class="cls-7" d="M656.17926,171.402l1.22656-1.624-1.93847-.646.53027-1.37549,1.83887.64649v-2.1045h1.55762v2.1045l1.83886-.64649.53028,1.37549-1.93848.646,1.22656,1.624-1.19336.89453-1.22656-1.72314-1.22559,1.72314Z"/><path class="cls-7" d="M662.71539,176.861a4.68008,4.68008,0,0,1,.42286-1.04394,4.87773,4.87773,0,0,1,.62109-.86914,6.68768,6.68768,0,0,1,.78711-.7461q.77929-.6621,1.67383-1.28418a17.55986,17.55986,0,0,0,1.57422-1.21777,2.85935,2.85935,0,0,0,.54589-.646,1.44875,1.44875,0,0,0,.19922-.76221,1.5176,1.5176,0,0,0-.373-1.06885,1.42079,1.42079,0,0,0-1.10157-.40576,1.4804,1.4804,0,0,0-1.22558.51367,1.835,1.835,0,0,0-.37305.6875,3.7577,3.7577,0,0,0-.14062.98584h-2.61817a6.337,6.337,0,0,1,.18262-1.65674,3.7035,3.7035,0,0,1,.5957-1.22607,3.41228,3.41228,0,0,1,1.3916-1.12647,5.25983,5.25983,0,0,1,2.25391-.43115,5.38408,5.38408,0,0,1,1.81445.28174,3.738,3.738,0,0,1,1.31641.77881,3.29342,3.29342,0,0,1,.80371,1.15967,3.65117,3.65117,0,0,1,.27344,1.4082,3.57,3.57,0,0,1-.14844,1.06885,3.28063,3.28063,0,0,1-.415.86181,4.39458,4.39458,0,0,1-.60449.71241q-.33984.323-.7207.62109-.38087.31494-.78711.605-.40576.29-.80371.57129-.397.2827-.77051.58008a6.742,6.742,0,0,0-.6709.61328v.0166h4.9375v2.30273h-8.81445A5.31546,5.31546,0,0,1,662.71539,176.861Z"/><path class="cls-7" d="M675.18317,166.29845h5.335a5.67931,5.67931,0,0,1,1.88965.28174,3.64314,3.64314,0,0,1,1.34179.812,3.52546,3.52546,0,0,1,.88672,1.27588,4.27667,4.27667,0,0,1,.30567,1.64014,4.20576,4.20576,0,0,1-.28125,1.55762,3.50336,3.50336,0,0,1-.80371,1.22607,3.67736,3.67736,0,0,1-1.26758.80322,4.53284,4.53284,0,0,1-1.65625.29h-2.76758v3.96h-2.98242Zm5.15332,5.56739a1.65564,1.65564,0,0,0,1.22558-.43116,1.54477,1.54477,0,0,0,.43067-1.14306,1.46251,1.46251,0,0,0-.43067-1.11817,1.7188,1.7188,0,0,0-1.22558-.40625h-2.1709v3.09864Z"/><path class="cls-7" d="M691.52008,178.40978a5.96464,5.96464,0,0,1-2.38574-.46387,5.46217,5.46217,0,0,1-1.84668-1.2832,5.75943,5.75943,0,0,1-1.19336-1.94726,6.938,6.938,0,0,1-.42285-2.45215,7.14178,7.14178,0,0,1,.41406-2.46045,5.81546,5.81546,0,0,1,1.17676-1.96338,5.42721,5.42721,0,0,1,1.83887-1.30078,5.92513,5.92513,0,0,1,2.40234-.47217,6.03884,6.03884,0,0,1,1.89746.28174,5.02664,5.02664,0,0,1,1.4834.76221,4.14777,4.14777,0,0,1,1.21777,1.4248,5.29051,5.29051,0,0,1,.55469,1.83936h-2.93262a2.14623,2.14623,0,0,0-2.2373-1.87256,2.65223,2.65223,0,0,0-1.25879.28174,2.445,2.445,0,0,0-.87793.7871,3.67065,3.67065,0,0,0-.52246,1.19288,6.14345,6.14345,0,0,0-.17383,1.49951,5.37067,5.37067,0,0,0,.19922,1.49951,3.65964,3.65964,0,0,0,.57129,1.18506,2.74034,2.74034,0,0,0,.89453.77832,2.46,2.46,0,0,0,1.18457.28125,2.27287,2.27287,0,0,0,1.59961-.55469,2.20362,2.20362,0,0,0,.7041-1.4165h2.93262a4.64065,4.64065,0,0,1-.43945,1.67334,4.56,4.56,0,0,1-.98536,1.3584,4.64914,4.64914,0,0,1-1.61621,1.00292A6.30649,6.30649,0,0,1,691.52008,178.40978Z"/><path class="cls-7" d="M702.50543,178.42638a8.333,8.333,0,0,1-2.1455-.25683,4.86526,4.86526,0,0,1-1.65723-.76172,3.58576,3.58576,0,0,1-1.07715-1.25879,3.87551,3.87551,0,0,1-.40625-1.73193h2.94922a1.69594,1.69594,0,0,0,.67969,1.29248,2.88459,2.88459,0,0,0,1.64062.39746,3.61769,3.61769,0,0,0,.7041-.06641,2.00473,2.00473,0,0,0,.6045-.21484,1.27356,1.27356,0,0,0,.43066-.38965.98318.98318,0,0,0,.166-.57227.943.943,0,0,0-.17383-.5791,1.40587,1.40587,0,0,0-.50586-.398,4.16694,4.16694,0,0,0-.81153-.28955q-.48046-.12452-1.09375-.27344-.77929-.18237-1.53222-.41455a5.1272,5.1272,0,0,1-1.35059-.62939,3.20578,3.20578,0,0,1-.96972-1.01074,2.92476,2.92476,0,0,1-.37207-1.541,3.437,3.437,0,0,1,.36425-1.63183,3.2259,3.2259,0,0,1,.99414-1.13477,4.39175,4.39175,0,0,1,1.49121-.66309,7.65632,7.65632,0,0,1,1.85547-.21533,6.94831,6.94831,0,0,1,1.79786.22363,4.42957,4.42957,0,0,1,1.458.67139,3.346,3.346,0,0,1,.99414,1.13477,3.78206,3.78206,0,0,1,.42286,1.61523h-2.86719a1.45971,1.45971,0,0,0-.5791-1.06006,2.19391,2.19391,0,0,0-1.32618-.36474,2.22538,2.22538,0,0,0-1.24218.30664.92687.92687,0,0,0-.46387.80371.78256.78256,0,0,0,.17383.522,1.39592,1.39592,0,0,0,.50488.356,4.98118,4.98118,0,0,0,.83691.27344q.50538.1245,1.168.27343.82911.1985,1.583.44727a4.9454,4.9454,0,0,1,1.333.6626,3.11935,3.11935,0,0,1,.92773,1.04394,3.21785,3.21785,0,0,1,.34864,1.57471,3.43713,3.43713,0,0,1-1.40039,2.85742,4.75351,4.75351,0,0,1-1.541.74512A6.82279,6.82279,0,0,1,702.50543,178.42638Z"/><path class="cls-7" d="M834.30329,158.96886a7.62521,7.62521,0,0,1-1.95411-.23388,4.44043,4.44043,0,0,1-1.50879-.69385,3.26282,3.26282,0,0,1-.98046-1.14648,3.515,3.515,0,0,1-.36914-1.57618h2.68457a1.54387,1.54387,0,0,0,.61914,1.17627,2.61743,2.61743,0,0,0,1.49316.36231,3.33243,3.33243,0,0,0,.6416-.06055,1.81847,1.81847,0,0,0,.54981-.1958,1.164,1.164,0,0,0,.39257-.35449.89459.89459,0,0,0,.15137-.52051.8576.8576,0,0,0-.15918-.52832,1.27137,1.27137,0,0,0-.46-.36182,3.79364,3.79364,0,0,0-.73926-.26416q-.438-.11279-.99511-.249-.709-.16553-1.39551-.377a4.68274,4.68274,0,0,1-1.22949-.57325,2.90582,2.90582,0,0,1-.88282-.92041,2.65466,2.65466,0,0,1-.33886-1.40283,3.13738,3.13738,0,0,1,.33105-1.48584,2.948,2.948,0,0,1,.90527-1.0332,3.99778,3.99778,0,0,1,1.3584-.60352,6.94063,6.94063,0,0,1,1.68946-.19629,6.32044,6.32044,0,0,1,1.63672.20362,4.01666,4.01666,0,0,1,1.32714.61133,3.044,3.044,0,0,1,.90528,1.0332,3.43344,3.43344,0,0,1,.38476,1.4707h-2.61035a1.32792,1.32792,0,0,0-.52734-.96533,1.997,1.997,0,0,0-1.207-.332,2.02914,2.02914,0,0,0-1.13184.2793.844.844,0,0,0-.42187.73144.7128.7128,0,0,0,.1582.4751,1.26763,1.26763,0,0,0,.46.32471,4.51525,4.51525,0,0,0,.76172.24853q.46.11352,1.06347.249.7544.18092,1.44141.40723a4.50706,4.50706,0,0,1,1.21387.60352,2.83268,2.83268,0,0,1,.84472.95068,2.92573,2.92573,0,0,1,.31739,1.43311,3.21736,3.21736,0,0,1-.33985,1.501,3.18167,3.18167,0,0,1-.93554,1.10108,4.32835,4.32835,0,0,1-1.40235.67871A6.24316,6.24316,0,0,1,834.30329,158.96886Z"/><path class="cls-7" d="M843.50446,158.93859a4.58225,4.58225,0,0,1-1.71973-.30908,3.6541,3.6541,0,0,1-1.29687-.85986,3.80421,3.80421,0,0,1-.81446-1.30469,4.54249,4.54249,0,0,1-.28711-1.6294,4.43672,4.43672,0,0,1,.28711-1.60644,3.81915,3.81915,0,0,1,.81446-1.29737,3.75493,3.75493,0,0,1,1.252-.85986,4.39571,4.39571,0,0,1,3.09961-.05322,3.7184,3.7184,0,0,1,1.1543.709,3.83793,3.83793,0,0,1,1.0332,1.60694,6.24278,6.24278,0,0,1,.32519,2.14941h-5.55175a2.26129,2.26129,0,0,0,.543,1.23731,1.54907,1.54907,0,0,0,1.19141.45263,1.45146,1.45146,0,0,0,.79981-.20361,1.29846,1.29846,0,0,0,.48242-.56592h2.39843a2.85622,2.85622,0,0,1-.45214,1.00342,3.219,3.219,0,0,1-.84473.82178,3.6532,3.6532,0,0,1-1.0791.52832A4.58226,4.58226,0,0,1,843.50446,158.93859Zm1.3584-4.91748a1.82539,1.82539,0,0,0-.46778-1.10156,1.3243,1.3243,0,0,0-.99609-.40723,1.40611,1.40611,0,0,0-1.08594.40723,2.11252,2.11252,0,0,0-.498,1.10156Z"/><path class="cls-7" d="M848.18122,150.98888h2.36914v1.05567h.04492a3.12572,3.12572,0,0,1,1.00293-.958,2.74341,2.74341,0,0,1,1.38086-.32422,2.78777,2.78777,0,0,1,1.13086.21875,2.45054,2.45054,0,0,1,.84472.60352,2.58635,2.58635,0,0,1,.52832.92041,3.66914,3.66914,0,0,1,.18067,1.18408v5.02344h-2.458v-4.52588a1.5525,1.5525,0,0,0-.30176-.99561,1.09344,1.09344,0,0,0-.90527-.377,1.20944,1.20944,0,0,0-.98828.45264,1.79733,1.79733,0,0,0-.37012,1.17675v4.26905h-2.459Z"/><path class="cls-7" d="M860.06891,158.95373a4.46773,4.46773,0,0,1-2.70019-.73145,2.51891,2.51891,0,0,1-1.05567-2.01416h2.32324a1.24817,1.24817,0,0,0,.43653.85987,1.53847,1.53847,0,0,0,.98144.28662,1.69849,1.69849,0,0,0,.88184-.1958.62931.62931,0,0,0,.32422-.57325.54516.54516,0,0,0-.166-.415,1.22315,1.22315,0,0,0-.4375-.25634,3.25155,3.25155,0,0,0-.626-.15088c-.23632-.03516-.47949-.07764-.73144-.12842q-.498-.09009-.99512-.21875a3.04015,3.04015,0,0,1-.89746-.38428,1.91489,1.91489,0,0,1-.6416-.68652,2.248,2.248,0,0,1-.24121-1.10889,2.14424,2.14424,0,0,1,.26367-1.07129,2.30464,2.30464,0,0,1,.7168-.77685,3.36456,3.36456,0,0,1,1.06347-.46729,5.1032,5.1032,0,0,1,1.29-.15869,4.109,4.109,0,0,1,2.51953.66406,2.40443,2.40443,0,0,1,.96485,1.81006h-2.2627a.92146.92146,0,0,0-.39941-.71679,1.65792,1.65792,0,0,0-.83789-.18848,1.53607,1.53607,0,0,0-.76172.17383.57259.57259,0,0,0-.30859.53515.40137.40137,0,0,0,.15039.332,1.27692,1.27692,0,0,0,.40722.20362,4.45925,4.45925,0,0,0,.59571.14355c.22656.04.46.08057.70214.12061q.5127.09009,1.03321.21875a3.20287,3.20287,0,0,1,.95019.3999,2.12552,2.12552,0,0,1,.70117.73145,2.33343,2.33343,0,0,1,.27149,1.19921,2.216,2.216,0,0,1-.99512,1.916,3.55045,3.55045,0,0,1-1.11621.48242A5.64213,5.64213,0,0,1,860.06891,158.95373Z"/><path class="cls-7" d="M868.24469,158.95373a4.47507,4.47507,0,0,1-1.69726-.30908,3.77365,3.77365,0,0,1-2.14258-2.15723,4.62106,4.62106,0,0,1,0-3.24365,3.77357,3.77357,0,0,1,2.14258-2.15723,4.81467,4.81467,0,0,1,3.39453,0,3.76575,3.76575,0,0,1,1.29687.85986,3.88177,3.88177,0,0,1,.83008,1.29737,4.62106,4.62106,0,0,1,0,3.24365,3.87683,3.87683,0,0,1-.83008,1.29736,3.7521,3.7521,0,0,1-1.29687.85987A4.4787,4.4787,0,0,1,868.24469,158.95373Zm-.01562-1.75a1.36906,1.36906,0,0,0,1.22949-.64112,3.08346,3.08346,0,0,0,.415-1.69677,3.12324,3.12324,0,0,0-.415-1.70459,1.36532,1.36532,0,0,0-1.22949-.64893,1.34723,1.34723,0,0,0-1.22168.64893,3.16752,3.16752,0,0,0-.40723,1.70459,3.12706,3.12706,0,0,0,.40723,1.69677A1.3508,1.3508,0,0,0,868.22907,157.20373Z"/><path class="cls-7" d="M873.192,150.98888h2.35351v1.20655h.0459a2.91663,2.91663,0,0,1,.9043-1.01075,2.20529,2.20529,0,0,1,1.207-.31689,1.33529,1.33529,0,0,1,.4834.06055v2.11181h-.06055a1.96039,1.96039,0,0,0-2.47461,2.20264v3.46973h-2.459Z"/><path class="cls-7" d="M881.45954,147.92638h5.2041a4.86436,4.86436,0,0,1,1.46386.19629,3.26619,3.26619,0,0,1,1.05567.543,2.53608,2.53608,0,0,1,.93555,2.06641,2.1229,2.1229,0,0,1-.39258,1.32763,2.44138,2.44138,0,0,1-1.11621.78467v.04492a2.67065,2.67065,0,0,1,1.41015.97315,2.7158,2.7158,0,0,1,.52051,1.667,3.235,3.235,0,0,1-.28613,1.41065A2.76916,2.76916,0,0,1,889.44,157.943a4.18992,4.18992,0,0,1-2.65527.76953h-5.32519Zm4.8125,4.269a1.48685,1.48685,0,0,0,.93457-.27881,1.07911,1.07911,0,0,0,.01562-1.59912,1.45026,1.45026,0,0,0-.93555-.2793h-2.1875v2.15723Zm.21093,4.375a1.47993,1.47993,0,0,0,1.041-.34717,1.1906,1.1906,0,0,0,.37695-.91992,1.15987,1.15987,0,0,0-.415-.97315,1.6256,1.6256,0,0,0-1.0332-.32422h-2.35352v2.56446Z"/><path class="cls-7" d="M896.5445,158.96886a5.56466,5.56466,0,0,1-2.21-.42236,4.75657,4.75657,0,0,1-1.67481-1.17676,5.32629,5.32629,0,0,1-1.06348-1.78759,6.8454,6.8454,0,0,1,0-4.48047,5.33589,5.33589,0,0,1,1.06348-1.7876,4.76912,4.76912,0,0,1,1.67481-1.17676,5.99289,5.99289,0,0,1,4.41992,0,4.841,4.841,0,0,1,1.68164,1.17676,5.27391,5.27391,0,0,1,1.07129,1.7876,6.8454,6.8454,0,0,1,0,4.48047,5.26453,5.26453,0,0,1-1.07129,1.78759,4.82811,4.82811,0,0,1-1.68164,1.17676A5.56808,5.56808,0,0,1,896.5445,158.96886Zm.01464-2.17236a2.37151,2.37151,0,0,0,1.13965-.26367,2.42357,2.42357,0,0,0,.82227-.72412,3.165,3.165,0,0,0,.49023-1.09375,6.03509,6.03509,0,0,0,0-2.74561,3.25209,3.25209,0,0,0-.49023-1.10156,2.39953,2.39953,0,0,0-.82227-.73145,2.39654,2.39654,0,0,0-3.10058.73145,3.38007,3.38007,0,0,0-.49805,1.10156,5.792,5.792,0,0,0,0,2.74561,3.28717,3.28717,0,0,0,.49805,1.09375,2.41454,2.41454,0,0,0,.82226.72412A2.37027,2.37027,0,0,0,896.55914,156.7965Z"/><path class="cls-7" d="M905.36969,147.92638h2.74512l3.89258,10.78614h-2.80664l-.63379-1.9458h-3.77051l-.61914,1.9458h-2.68457Zm2.5791,6.92432-.81445-2.60986c-.05078-.14063-.10059-.29639-.15137-.46778-.0498-.1709-.0957-.33691-.13574-.49756-.0498-.18115-.0957-.36718-.13574-.5581h-.0293q-.07617.28638-.15137.5581c-.05078.16065-.09765.32666-.14355.49756q-.06738.25709-.14258.46778l-.83008,2.60986Z"/><path class="cls-7" d="M912.76129,147.92638h5.15918a5.27547,5.27547,0,0,1,1.49317.20362,3.57648,3.57648,0,0,1,1.19922.5957,2.75764,2.75764,0,0,1,.792.97314,2.97582,2.97582,0,0,1,.28711,1.335,2.55738,2.55738,0,0,1-1.8711,2.60986v.04541a2.288,2.288,0,0,1,1.07911.70166,2.62676,2.62676,0,0,1,.49023,1.27441,8.38888,8.38888,0,0,1,.11328,1.03321q.022.5061.05274.90527a4.43013,4.43013,0,0,0,.09082.66406c.04.17578.10546.27881.19531.30908v.13575h-2.59473a.45284.45284,0,0,1-.1582-.30909,5.87838,5.87838,0,0,1-.08985-.60351q-.03808-.35449-.06835-.76953-.03077-.41456-.09083-.82227a1.87778,1.87778,0,0,0-.5205-1.14648,1.79967,1.79967,0,0,0-1.27442-.39209h-1.61425v4.043h-2.66993Zm4.67676,4.76709a1.78811,1.78811,0,0,0,1.19922-.34716,1.20892,1.20892,0,0,0,.39941-.96534,1.29227,1.29227,0,0,0-.38476-.96533,1.58521,1.58521,0,0,0-1.1543-.37744h-2.0664v2.65527Z"/><path class="cls-7" d="M922.88336,147.92638H927.484a5.14907,5.14907,0,0,1,2.03711.39209,4.5561,4.5561,0,0,1,1.57617,1.10157,4.95375,4.95375,0,0,1,1.01856,1.71972,6.63071,6.63071,0,0,1,.3623,2.24756,6.30639,6.30639,0,0,1-.4834,2.542A4.46778,4.46778,0,0,1,930.607,157.732a4.56661,4.56661,0,0,1-1.44825.73144,6.28616,6.28616,0,0,1-1.83984.249h-4.43555Zm4.23926,8.53858a2.45128,2.45128,0,0,0,1.99121-.792,3.47181,3.47181,0,0,0,.66406-2.28565,3.73861,3.73861,0,0,0-.67968-2.35351,2.31582,2.31582,0,0,0-1.94532-.875h-1.5996V156.465Z"/><path class="cls-7" d="M857.86579,170.67541l1.11621-1.47852-1.76465-.58838.48242-1.25195,1.6748.58838v-1.916h1.418v1.916l1.67481-.58838.48242,1.25195-1.76465.58838,1.11621,1.47852-1.08691.81445-1.11621-1.56885-1.11621,1.56885Z"/><path class="cls-7" d="M868.1695,177.05627a4.62154,4.62154,0,0,1-1.9834-.39942,3.90892,3.90892,0,0,1-1.41895-1.10937,4.86036,4.86036,0,0,1-.85156-1.68164,7.5195,7.5195,0,0,1-.28711-2.13477,8.1861,8.1861,0,0,1,.2793-2.32324,4.58132,4.58132,0,0,1,.97265-1.81006,3.802,3.802,0,0,1,1.3584-.98047,4.78563,4.78563,0,0,1,1.915-.34717,4.17058,4.17058,0,0,1,2.59473.74707,3.18673,3.18673,0,0,1,1.22265,2.01368h-2.42871a1.51006,1.51006,0,0,0-.42285-.67139,1.34173,1.34173,0,0,0-.93555-.27881,1.72449,1.72449,0,0,0-1.46289.67871,3.43717,3.43717,0,0,0-.57324,1.93115h.03028a3.47244,3.47244,0,0,1,.97265-.70947,3.15521,3.15521,0,0,1,1.39551-.27148,3.87958,3.87958,0,0,1,1.418.26416,3.72583,3.72583,0,0,1,1.19238.73925,3.47738,3.47738,0,0,1,.81445,1.15381,3.67447,3.67447,0,0,1,.30176,1.50879,3.59977,3.59977,0,0,1-.30957,1.50879,3.43845,3.43845,0,0,1-.85254,1.16113,3.82237,3.82237,0,0,1-1.29687.74707A4.95535,4.95535,0,0,1,868.1695,177.05627Zm-.09082-1.90039a1.85244,1.85244,0,0,0,.71679-.13575,1.82765,1.82765,0,0,0,.56543-.36914,1.58111,1.58111,0,0,0,.37012-.55908,1.898,1.898,0,0,0,.12793-.70117,1.96051,1.96051,0,0,0-.12793-.709,1.71728,1.71728,0,0,0-.37012-.58105,1.69507,1.69507,0,0,0-.56543-.38477,1.84362,1.84362,0,0,0-.71679-.13574,1.71768,1.71768,0,0,0-1.3125.51319,1.81981,1.81981,0,0,0-.48243,1.29736,1.71649,1.71649,0,0,0,.498,1.26709A1.75322,1.75322,0,0,0,868.07868,175.15588Z"/><path class="cls-7" d="M875.65192,166.02892h4.85742a5.16063,5.16063,0,0,1,1.71973.25635,3.31944,3.31944,0,0,1,1.22168.73926,3.20131,3.20131,0,0,1,.80761,1.16162,3.90059,3.90059,0,0,1,.2793,1.49365,3.82606,3.82606,0,0,1-.25684,1.418,3.191,3.191,0,0,1-.73144,1.11621,3.3585,3.3585,0,0,1-1.1543.73145,4.12272,4.12272,0,0,1-1.50879.26416h-2.51855v3.60547h-2.71582Zm4.6914,5.06885a1.50992,1.50992,0,0,0,1.11622-.39258,1.40552,1.40552,0,0,0,.39257-1.04053,1.33156,1.33156,0,0,0-.39257-1.01855,1.56779,1.56779,0,0,0-1.11622-.36963h-1.97558v2.82129Z"/><path class="cls-7" d="M890.52594,177.05627a5.43585,5.43585,0,0,1-2.17187-.42188,4.98764,4.98764,0,0,1-1.68262-1.16992,5.22208,5.22208,0,0,1-1.08594-1.772,6.30278,6.30278,0,0,1-.38476-2.23291,6.49847,6.49847,0,0,1,.377-2.24024,5.274,5.274,0,0,1,1.07129-1.7876,4.928,4.928,0,0,1,1.6748-1.18408,5.3865,5.3865,0,0,1,2.1875-.43017,5.48773,5.48773,0,0,1,1.72657.25683,4.5663,4.5663,0,0,1,1.35058.69385,3.76281,3.76281,0,0,1,1.1084,1.29736,4.80081,4.80081,0,0,1,.50586,1.67432h-2.66992a1.9549,1.9549,0,0,0-2.03711-1.70459,2.414,2.414,0,0,0-1.14649.25635,2.23758,2.23758,0,0,0-.7998.71679,3.34622,3.34622,0,0,0-.47461,1.08594,5.566,5.566,0,0,0-.1582,1.36524,4.88076,4.88076,0,0,0,.18066,1.36523,3.29432,3.29432,0,0,0,.52051,1.07861,2.48668,2.48668,0,0,0,.81445.7085,2.22525,2.22525,0,0,0,1.0791.25684,2.06817,2.06817,0,0,0,1.45508-.50489,2.00257,2.00257,0,0,0,.6416-1.29h2.66992a4.224,4.224,0,0,1-.39941,1.52344,4.16132,4.16132,0,0,1-.89844,1.23731,4.20968,4.20968,0,0,1-1.4707.91211A5.72811,5.72811,0,0,1,890.52594,177.05627Z"/><path class="cls-7" d="M900.52789,177.07189a7.60288,7.60288,0,0,1-1.9541-.23437,4.44,4.44,0,0,1-1.50879-.69336,3.27136,3.27136,0,0,1-.98046-1.14649,3.51882,3.51882,0,0,1-.36915-1.57666H898.4a1.54387,1.54387,0,0,0,.61914,1.17627,2.62132,2.62132,0,0,0,1.49316.36231,3.37175,3.37175,0,0,0,.6416-.06055,1.83132,1.83132,0,0,0,.54981-.19531,1.17567,1.17567,0,0,0,.39257-.355.89459.89459,0,0,0,.15137-.52051.8576.8576,0,0,0-.15918-.52832,1.27137,1.27137,0,0,0-.46-.36182,3.79364,3.79364,0,0,0-.73926-.26416q-.438-.11279-.99511-.249-.709-.16552-1.39551-.37695a4.68305,4.68305,0,0,1-1.22949-.57325,2.90582,2.90582,0,0,1-.88282-.92041,2.65466,2.65466,0,0,1-.33886-1.40283,3.13738,3.13738,0,0,1,.33105-1.48584,2.948,2.948,0,0,1,.90527-1.0332,3.99778,3.99778,0,0,1,1.3584-.60352,6.94063,6.94063,0,0,1,1.68946-.19629,6.31988,6.31988,0,0,1,1.63671.20362,4.01662,4.01662,0,0,1,1.32715.61133,3.044,3.044,0,0,1,.90528,1.0332,3.43344,3.43344,0,0,1,.38476,1.4707h-2.61035a1.328,1.328,0,0,0-.52734-.96533,1.997,1.997,0,0,0-1.207-.332,2.02923,2.02923,0,0,0-1.13184.27929.84407.84407,0,0,0-.42188.73145.7128.7128,0,0,0,.15821.4751,1.26773,1.26773,0,0,0,.46.3247,4.51518,4.51518,0,0,0,.76172.24854q.46.11352,1.06347.249.7544.18091,1.44141.40723a4.50721,4.50721,0,0,1,1.21387.60352,2.83268,2.83268,0,0,1,.84472.95068,2.92572,2.92572,0,0,1,.31739,1.4331,3.12961,3.12961,0,0,1-1.27539,2.60206,4.31863,4.31863,0,0,1-1.40235.67871A6.22494,6.22494,0,0,1,900.52789,177.07189Z"/><path class="cls-7" d="M439.05622,345.02111h3.45214a3.71226,3.71226,0,0,1,1.6084.33984,3.61623,3.61623,0,0,1,1.22461.94043,4.238,4.238,0,0,1,.7793,1.42871,5.75812,5.75812,0,0,1,.27246,1.80665,5.39627,5.39627,0,0,1-.35254,1.98535,3.666,3.666,0,0,1-1.05859,1.49121,3.6271,3.6271,0,0,1-1.1377.63086,4.53276,4.53276,0,0,1-1.48437.22265h-3.30371Zm3.17968,7.29883a2.08952,2.08952,0,0,0,1.79981-.72949,3.40269,3.40269,0,0,0,.53808-2.05371,4.81865,4.81865,0,0,0-.1416-1.20606,2.73628,2.73628,0,0,0-.43359-.94727,2.00326,2.00326,0,0,0-.71778-.6123,2.18081,2.18081,0,0,0-.99511-.21582h-1.43555v5.76465Z"/><path class="cls-7" d="M451.24274,354.05236a4.2718,4.2718,0,0,1-1.71387-.33984,3.9511,3.9511,0,0,1-1.34863-.95313,4.41876,4.41876,0,0,1-.87793-1.44726,5.14492,5.14492,0,0,1-.31543-1.83692,5.4701,5.4701,0,0,1,.29687-1.82519,4.405,4.405,0,0,1,.84766-1.47266,3.86275,3.86275,0,0,1,1.33594-.97754,4.26881,4.26881,0,0,1,1.76269-.35254,4.34226,4.34226,0,0,1,1.46.22949,3.41288,3.41288,0,0,1,1.10743.63086,3.03,3.03,0,0,1,.73632.94629,3.53514,3.53514,0,0,1,.34668,1.17578h-1.78222a1.7527,1.7527,0,0,0-.60645-1.07031,1.90239,1.90239,0,0,0-1.26172-.40234,2.24016,2.24016,0,0,0-1.07031.24121,2.14592,2.14592,0,0,0-.74805.66211,3.00868,3.00868,0,0,0-.44531.98926,4.81731,4.81731,0,0,0-.14844,1.22558,4.42145,4.42145,0,0,0,.167,1.249,3.003,3.003,0,0,0,.48242.98339,2.16,2.16,0,0,0,1.77539.87207,1.9684,1.9684,0,0,0,1.30469-.42675,1.676,1.676,0,0,0,.60058-1.13184h1.75684a3.164,3.164,0,0,1-.28418,1.13184,3.09169,3.09169,0,0,1-.69336.959,3.35816,3.35816,0,0,1-1.10742.68652A4.3473,4.3473,0,0,1,451.24274,354.05236Z"/><path class="cls-7" d="M455.11481,354.89416h5.2959v1.05078h-5.2959Z"/><path class="cls-7" d="M461.066,345.02111h3.45117a3.71226,3.71226,0,0,1,1.6084.33984,3.59735,3.59735,0,0,1,1.22461.94043,4.22286,4.22286,0,0,1,.78027,1.42871,5.78647,5.78647,0,0,1,.27149,1.80665,5.37636,5.37636,0,0,1-.35254,1.98535,3.52548,3.52548,0,0,1-2.19629,2.12207,4.53276,4.53276,0,0,1-1.48437.22265H461.066Zm3.17871,7.29883a2.09148,2.09148,0,0,0,1.80078-.72949,3.40941,3.40941,0,0,0,.53809-2.05371,4.81737,4.81737,0,0,0-.14258-1.20606,2.75308,2.75308,0,0,0-.43262-.94727,2.01975,2.01975,0,0,0-.71777-.6123,2.18215,2.18215,0,0,0-.99609-.21582h-1.43457v5.76465Z"/><path class="cls-7" d="M473.25153,354.05236a4.267,4.267,0,0,1-1.71289-.33984,3.93241,3.93241,0,0,1-1.34864-.95313,4.42114,4.42114,0,0,1-.8789-1.44726,5.16655,5.16655,0,0,1-.31543-1.83692,5.49506,5.49506,0,0,1,.29687-1.82519,4.405,4.405,0,0,1,.84766-1.47266,3.88115,3.88115,0,0,1,1.33594-.97754,4.27343,4.27343,0,0,1,1.76367-.35254,4.35043,4.35043,0,0,1,1.46.22949,3.41294,3.41294,0,0,1,1.10742.63086,3.04126,3.04126,0,0,1,.73535.94629,3.53514,3.53514,0,0,1,.34668,1.17578H475.108a1.76207,1.76207,0,0,0-.60644-1.07031,1.90239,1.90239,0,0,0-1.26172-.40234,2.23474,2.23474,0,0,0-1.07031.24121,2.14042,2.14042,0,0,0-.749.66211,3.0494,3.0494,0,0,0-.44531.98926,4.86163,4.86163,0,0,0-.14844,1.22558,4.42145,4.42145,0,0,0,.167,1.249,3.003,3.003,0,0,0,.48242.98339,2.1635,2.1635,0,0,0,1.77539.87207,1.97105,1.97105,0,0,0,1.30566-.42675,1.67881,1.67881,0,0,0,.59961-1.13184h1.75684a3.14374,3.14374,0,0,1-.28418,1.13184,3.07269,3.07269,0,0,1-.69239.959,3.37825,3.37825,0,0,1-1.10742.68652A4.35278,4.35278,0,0,1,473.25153,354.05236Z"/><path class="cls-7" d="M477.69391,352.76525a4.0491,4.0491,0,0,1,.46973-.90234,4.64078,4.64078,0,0,1,.64355-.74317q.35889-.334.7168-.61816.3955-.30909.79883-.59375a7.31194,7.31194,0,0,0,.71679-.5752,2.86114,2.86114,0,0,0,.51368-.61914,1.40306,1.40306,0,0,0,.19726-.73535,1.4451,1.4451,0,0,0-.30273-.959,1.06724,1.06724,0,0,0-.8711-.36524,1.21858,1.21858,0,0,0-1.0039.44532,2.104,2.104,0,0,0-.38282,1.27441h-1.583a3.36466,3.36466,0,0,1,.748-2.30078,2.84409,2.84409,0,0,1,2.25879-.85449,3.27651,3.27651,0,0,1,1.23047.21679,2.60519,2.60519,0,0,1,.90234.58789,2.49021,2.49021,0,0,1,.55665.86621,2.82712,2.82712,0,0,1,.1914,1.03907,2.76113,2.76113,0,0,1-.18555,1.05175,2.87834,2.87834,0,0,1-.48828.81055,4.17309,4.17309,0,0,1-.68554.63672q-.38379.28417-.76758.54395c-.166.10742-.334.22168-.50781.34082-.17188.11914-.33594.24316-.48829.37109a4.22624,4.22624,0,0,0-.41406.39551,2.19693,2.19693,0,0,0-.29687.40234h3.91015v1.38574H477.483A3.52814,3.52814,0,0,1,477.69391,352.76525Z"/><path class="cls-7" d="M226.28278,125.38586a4.07311,4.07311,0,0,1-1.63477-.32471,3.75316,3.75316,0,0,1-1.28613-.90869,4.23766,4.23766,0,0,1-.83789-1.38086,4.92841,4.92841,0,0,1-.30078-1.75244,5.23661,5.23661,0,0,1,.2832-1.74024,4.20006,4.20006,0,0,1,.80859-1.40429,3.67616,3.67616,0,0,1,1.27442-.93213,4.05945,4.05945,0,0,1,1.68164-.33643,4.13956,4.13956,0,0,1,1.39258.21826,3.263,3.263,0,0,1,1.05566.60157,2.88611,2.88611,0,0,1,.70215.90283,3.36326,3.36326,0,0,1,.33105,1.12109h-1.69921a1.68108,1.68108,0,0,0-.57813-1.02051,1.819,1.819,0,0,0-1.2041-.38379,2.13615,2.13615,0,0,0-1.02051.23,2.04378,2.04378,0,0,0-.71387.63135,2.85843,2.85843,0,0,0-.4248.94434,4.60083,4.60083,0,0,0-.1416,1.168,4.20694,4.20694,0,0,0,.15918,1.19189,2.87409,2.87409,0,0,0,.46.93848,2.06615,2.06615,0,0,0,1.69336.832,1.88067,1.88067,0,0,0,1.24511-.40723,1.60248,1.60248,0,0,0,.57227-1.08008h1.67578a3.01238,3.01238,0,0,1-.27148,1.08008,2.93725,2.93725,0,0,1-.66114.91455,3.21423,3.21423,0,0,1-1.05566.65479A4.151,4.151,0,0,1,226.28278,125.38586Z"/><path class="cls-7" d="M232.13532,119.94543h.03613a2.34186,2.34186,0,0,1,.73144-.71973,2.00334,2.00334,0,0,1,1.02637-.23584,2.08289,2.08289,0,0,1,.85547.1709,1.93672,1.93672,0,0,1,.65527.47217,2.20218,2.20218,0,0,1,.42481.71386,2.60747,2.60747,0,0,1,.15332.9087v3.95312h-1.60449v-3.71728a1.167,1.167,0,0,0-.27149-.80225.98748.98748,0,0,0-.77929-.30713,1.13516,1.13516,0,0,0-.87891.38379,1.44185,1.44185,0,0,0-.34863,1.00879v3.43408h-1.6045v-8.4375h1.6045Z"/><path class="cls-7" d="M240.82086,125.20861a.80608.80608,0,0,1-.11816-.2832,3.10313,3.10313,0,0,1-.07031-.38965H240.609a2.17491,2.17491,0,0,1-.26563.32471,1.40423,1.40423,0,0,1-.35449.2539,2.10494,2.10494,0,0,1-.48926.1709,3.06836,3.06836,0,0,1-.67285.06494,2.35994,2.35994,0,0,1-1.52246-.47217,1.66132,1.66132,0,0,1-.58984-1.38037,1.71165,1.71165,0,0,1,.18847-.83789,1.62449,1.62449,0,0,1,.51954-.5664,2.618,2.618,0,0,1,.77246-.34815,7.28333,7.28333,0,0,1,.95019-.19482,6.84293,6.84293,0,0,0,1.10938-.22412.45579.45579,0,0,0,.35449-.46045.62789.62789,0,0,0-.25391-.52491,1.24186,1.24186,0,0,0-.76172-.19482,1.44182,1.44182,0,0,0-.8496.20654.83207.83207,0,0,0-.31836.64307h-1.42774a1.9411,1.9411,0,0,1,.17676-.76123,1.8252,1.8252,0,0,1,.48437-.63135,2.44087,2.44087,0,0,1,.80176-.43652,3.557,3.557,0,0,1,1.14453-.165,2.72249,2.72249,0,0,1,1.95313.584,2.2,2.2,0,0,1,.59668,1.646v3.08008q0,.68481.21191.83789v.05908Zm-1.60449-.97949a1.71127,1.71127,0,0,0,.60742-.1001,1.47047,1.47047,0,0,0,.44825-.25977,1.07041,1.07041,0,0,0,.27734-.36572,1.03166,1.03166,0,0,0,.09473-.43066v-.90869a1.86758,1.86758,0,0,1-.51368.20654c-.20019.05127-.40332.1001-.60742.14746a3.20818,3.20818,0,0,0-.94433.33008.66642.66642,0,0,0-.30664.61377.65874.65874,0,0,0,.25976.59619A1.22775,1.22775,0,0,0,239.21637,124.22912Z"/><path class="cls-7" d="M244.71539,120.12267h.03516a2.276,2.276,0,0,1,.61426-.77881,1.40014,1.40014,0,0,1,.87305-.25976,1.14638,1.14638,0,0,1,.37695.04736v1.4043h-.03516a1.66516,1.66516,0,0,0-1.29785.3418,1.70372,1.70372,0,0,0-.50781,1.38085v2.9502H243.1695V119.1549h1.54589Z"/><path class="cls-7" d="M249.80133,127.27355a3.42531,3.42531,0,0,1-1.97656-.50146,1.95794,1.95794,0,0,1-.85547-1.38623h1.59277a.94187.94187,0,0,0,.37207.47754,1.47508,1.47508,0,0,0,.84375.19482q1.34474,0,1.34473-1.2627v-.66064h-.03515a2.36013,2.36013,0,0,1-.63672.50732,1.9569,1.9569,0,0,1-.94434.20069,2.58387,2.58387,0,0,1-.98535-.19483,2.55669,2.55669,0,0,1-.84961-.5664,2.87788,2.87788,0,0,1-.60254-.90869,3.07539,3.07539,0,0,1-.22949-1.2212,3.63338,3.63338,0,0,1,.19433-1.22168,2.78532,2.78532,0,0,1,.543-.938,2.34462,2.34462,0,0,1,.82617-.59571,2.63407,2.63407,0,0,1,1.05567-.20654,2.15209,2.15209,0,0,1,.98535.2124,1.88984,1.88984,0,0,1,.69043.58985h.02441v-.63721h1.5459v5.59326a2.79476,2.79476,0,0,1-.18945,1.08594,2.08826,2.08826,0,0,1-.53125.75537,2.29981,2.29981,0,0,1-.94336.519A4.42554,4.42554,0,0,1,249.80133,127.27355Zm-.02344-3.7168a1.49262,1.49262,0,0,0,.64844-.12988,1.18141,1.18141,0,0,0,.44239-.354,1.51334,1.51334,0,0,0,.2539-.51953,2.32771,2.32771,0,0,0,.083-.63721,2.20694,2.20694,0,0,0-.08887-.63135,1.52532,1.52532,0,0,0-.26562-.5249,1.24137,1.24137,0,0,0-.44825-.354,1.463,1.463,0,0,0-.63671-.12989,1.2218,1.2218,0,0,0-.98536.44239,1.82106,1.82106,0,0,0-.37207,1.20947,1.76875,1.76875,0,0,0,.37207,1.20361A1.25593,1.25593,0,0,0,249.77789,123.55675Z"/><path class="cls-7" d="M253.74274,116.77111h1.60449v1.43994h-1.60449Zm0,2.38379h1.60449v6.05371h-1.60449Z"/><path class="cls-7" d="M257.95563,119.98107h.03516a2.11224,2.11224,0,0,1,.7373-.74365,2.30877,2.30877,0,0,1,1.91211-.07666,1.933,1.933,0,0,1,.6543.47217,2.16838,2.16838,0,0,1,.4248.71386,2.585,2.585,0,0,1,.15332.9087v3.95312h-1.60449v-3.71728a1.167,1.167,0,0,0-.27149-.80225.984.984,0,0,0-.77832-.30713,1.1372,1.1372,0,0,0-.87988.38379,1.44586,1.44586,0,0,0-.34765,1.00879v3.43408h-1.60547V119.1549h1.57031Z"/><path class="cls-7" d="M265.53082,127.27355a3.42745,3.42745,0,0,1-1.97656-.50146,1.96424,1.96424,0,0,1-.85547-1.38623h1.59375a.945.945,0,0,0,.3711.47754,1.47716,1.47716,0,0,0,.84375.19482q1.34619,0,1.3457-1.2627v-.66064h-.03516a2.36443,2.36443,0,0,1-.63769.50732,1.95428,1.95428,0,0,1-.94434.20069,2.59119,2.59119,0,0,1-.98535-.19483,2.55669,2.55669,0,0,1-.84961-.5664,2.85917,2.85917,0,0,1-.60156-.90869,3.07536,3.07536,0,0,1-.23047-1.2212,3.63309,3.63309,0,0,1,.19531-1.22168,2.78532,2.78532,0,0,1,.543-.938,2.33231,2.33231,0,0,1,.8252-.59571,2.6388,2.6388,0,0,1,1.05664-.20654,2.15209,2.15209,0,0,1,.98535.2124,1.89779,1.89779,0,0,1,.69043.58985h.02344v-.63721h1.54589v5.59326a2.81382,2.81382,0,0,1-.18847,1.08594,2.10015,2.10015,0,0,1-.53125.75537,2.29743,2.29743,0,0,1-.94434.519A4.41563,4.41563,0,0,1,265.53082,127.27355Zm-.02343-3.7168a1.49712,1.49712,0,0,0,.64941-.12988,1.19671,1.19671,0,0,0,.44238-.354,1.53078,1.53078,0,0,0,.25391-.51953,2.36664,2.36664,0,0,0,.082-.63721,2.24149,2.24149,0,0,0-.08789-.63135,1.54263,1.54263,0,0,0-.26562-.5249,1.24973,1.24973,0,0,0-.44825-.354,1.46749,1.46749,0,0,0-.63769-.12989,1.2231,1.2231,0,0,0-.98535.44239,1.821,1.821,0,0,0-.37207,1.20947,1.7687,1.7687,0,0,0,.37207,1.20361A1.25727,1.25727,0,0,0,265.50739,123.55675Z"/><path class="cls-7" d="M275.27887,125.38586a4.06634,4.06634,0,0,1-1.63476-.32471,3.73461,3.73461,0,0,1-1.28614-.90869,4.2045,4.2045,0,0,1-.83789-1.38086,4.907,4.907,0,0,1-.30078-1.75244,5.21194,5.21194,0,0,1,.2832-1.74024,4.18354,4.18354,0,0,1,.8086-1.40429,3.67612,3.67612,0,0,1,1.27441-.93213,4.053,4.053,0,0,1,1.68164-.33643,4.13767,4.13767,0,0,1,1.3916.21826,3.26786,3.26786,0,0,1,1.05664.60157,2.90039,2.90039,0,0,1,.70215.90283,3.362,3.362,0,0,1,.33008,1.12109H277.0484a1.67628,1.67628,0,0,0-.57812-1.02051,1.8163,1.8163,0,0,0-1.20313-.38379,2.14016,2.14016,0,0,0-1.02148.23,2.05231,2.05231,0,0,0-.71387.63135,2.89838,2.89838,0,0,0-.4248.94434,4.64535,4.64535,0,0,0-.14161,1.168,4.24275,4.24275,0,0,0,.15918,1.19189,2.85668,2.85668,0,0,0,.46094.93848,2.06619,2.06619,0,0,0,1.69336.832,1.87978,1.87978,0,0,0,1.24414-.40723,1.60353,1.60353,0,0,0,.57324-1.08008h1.67481a3.01094,3.01094,0,0,1-.27051,1.08008,2.953,2.953,0,0,1-.66113.91455,3.21906,3.21906,0,0,1-1.05664.65479A4.14539,4.14539,0,0,1,275.27887,125.38586Z"/><path class="cls-7" d="M281.13141,119.94543h.03613a2.34177,2.34177,0,0,1,.73145-.71973,2.00331,2.00331,0,0,1,1.02637-.23584,2.08285,2.08285,0,0,1,.85546.1709,1.93675,1.93675,0,0,1,.65528.47217,2.20233,2.20233,0,0,1,.4248.71386,2.60724,2.60724,0,0,1,.15332.9087v3.95312h-1.60449v-3.71728a1.167,1.167,0,0,0-.27148-.80225.9875.9875,0,0,0-.7793-.30713,1.13518,1.13518,0,0,0-.87891.38379,1.44185,1.44185,0,0,0-.34863,1.00879v3.43408h-1.60449v-8.4375h1.60449Z"/><path class="cls-7" d="M286.00543,116.77111h1.6045v1.43994h-1.6045Zm0,2.38379h1.6045v6.05371h-1.6045Z"/><path class="cls-7" d="M288.648,119.1549h1.5459v.75537H290.23a2.47957,2.47957,0,0,1,.72559-.66113,2.01163,2.01163,0,0,1,1.05566-.25928,2.445,2.445,0,0,1,1.08594.23584,2.5012,2.5012,0,0,1,.832.65479,2.91562,2.91562,0,0,1,.53125,1.00927,4.36055,4.36055,0,0,1,.18262,1.29785,4.40875,4.40875,0,0,1-.18848,1.32764,2.91747,2.91747,0,0,1-.53711,1.00879,2.39641,2.39641,0,0,1-.832.63721,2.4964,2.4964,0,0,1-1.0625.22461,2.16368,2.16368,0,0,1-1.06152-.23633,1.93709,1.93709,0,0,1-.68457-.62549h-.02344v2.667H288.648Zm3.03321,4.89746a1.15613,1.15613,0,0,0,.97363-.478,2.18516,2.18516,0,0,0,.35937-1.33935,2.70418,2.70418,0,0,0-.32422-1.4043,1.147,1.147,0,0,0-1.06738-.543,1.26819,1.26819,0,0,0-.64355.15332,1.2981,1.2981,0,0,0-.43653.41309,1.78857,1.78857,0,0,0-.248.61963,3.67188,3.67188,0,0,0-.07618.76123,2.14926,2.14926,0,0,0,.3711,1.32177A1.28143,1.28143,0,0,0,291.68122,124.05236Z"/><path class="cls-7" d="M235.55231,190.9967h4.71289a5.08516,5.08516,0,0,1,1.49414.19824,2.81818,2.81818,0,0,1,1.05273.56738,2.52226,2.52226,0,0,1,.83887,1.97266,1.97589,1.97589,0,0,1-.44824,1.333,2.64979,2.64979,0,0,1-1.20117.77246v.04394a2.67438,2.67438,0,0,1,1.42187.94238,2.63889,2.63889,0,0,1,.53711,1.66407,3.169,3.169,0,0,1-.22851,1.27343,2.518,2.518,0,0,1-.69922.9209,3.2398,3.2398,0,0,1-1.13379.61817,4.87305,4.87305,0,0,1-1.5166.2207h-4.83008Zm4.44726,4.24023a1.82358,1.82358,0,0,0,1.13379-.32422,1.24258,1.24258,0,0,0,.02246-1.85449,1.73462,1.73462,0,0,0-1.11132-.32422h-2.35645v2.50293Zm-2.31152,4.52051h2.459a1.74755,1.74755,0,0,0,1.21386-.39063,1.3251,1.3251,0,0,0,.43555-1.03808,1.35693,1.35693,0,0,0-.48633-1.13379,1.91731,1.91731,0,0,0-1.22265-.38281h-2.39942Z"/><path class="cls-7" d="M249.80622,201.524a.98272.98272,0,0,1-.14844-.35352,3.873,3.873,0,0,1-.08789-.48535h-.0293a2.60436,2.60436,0,0,1-.332.4043,1.71657,1.71657,0,0,1-.44141.31641,2.56916,2.56916,0,0,1-.61133.21386,3.79946,3.79946,0,0,1-.83789.08106,2.94887,2.94887,0,0,1-1.90039-.58887,2.07666,2.07666,0,0,1-.73632-1.72266,2.13949,2.13949,0,0,1,.23632-1.04589,2.02683,2.02683,0,0,1,.64746-.70606,3.26654,3.26654,0,0,1,.96387-.43457,8.94565,8.94565,0,0,1,1.18555-.24316,8.55006,8.55006,0,0,0,1.38476-.2793.56964.56964,0,0,0,.44141-.57422.78261.78261,0,0,0-.31641-.65527,1.54485,1.54485,0,0,0-.94921-.24317,1.795,1.795,0,0,0-1.06055.25782,1.03882,1.03882,0,0,0-.39844.80175h-1.78125a2.43817,2.43817,0,0,1,.2207-.94921,2.29886,2.29886,0,0,1,.60352-.78809,3.0609,3.0609,0,0,1,1.00195-.54492,4.45014,4.45014,0,0,1,1.42774-.20606,3.39622,3.39622,0,0,1,2.4375.72949,2.74555,2.74555,0,0,1,.74316,2.05372v3.84277q0,.854.26465,1.0459v.07324Zm-2.00293-1.22168a2.1313,2.1313,0,0,0,.75878-.126,1.82608,1.82608,0,0,0,.5586-.32324,1.3377,1.3377,0,0,0,.3457-.457,1.2658,1.2658,0,0,0,.11817-.53711v-1.13379a2.30188,2.30188,0,0,1-.63965.25781q-.37647.09522-.75879.1836a4.01059,4.01059,0,0,0-1.17871.41308.98358.98358,0,0,0-.0586,1.50879A1.53011,1.53011,0,0,0,247.80329,200.30236Z"/><path class="cls-7" d="M252.14606,193.97033h1.0459v-2.35547h1.958v2.35547h1.29589v1.32519H255.15v4.00489a.70677.70677,0,0,0,.207.58886.852.852,0,0,0,.54492.16211h.38281a1.44921,1.44921,0,0,0,.20508-.01464v1.47265c-.09766.00977-.20508.01465-.32422.01465-.10742.00977-.24023.01465-.39648.01465h-.53028a3.28158,3.28158,0,0,1-.72949-.08106,1.80988,1.80988,0,0,1-.6543-.28711,1.51189,1.51189,0,0,1-.47851-.55957,1.8943,1.8943,0,0,1-.18457-.88281v-4.43262h-1.0459Z"/><path class="cls-7" d="M256.88727,193.97033h1.0459v-2.35547h1.958v2.35547h1.29589v1.32519h-1.29589v4.00489a.70966.70966,0,0,0,.20605.58886.852.852,0,0,0,.54492.16211h.38282a1.47338,1.47338,0,0,0,.20605-.01464v1.47265c-.09863.00977-.20605.01465-.32422.01465-.1084.00977-.24121.01465-.39746.01465H259.98a3.27523,3.27523,0,0,1-.72949-.08106,1.81434,1.81434,0,0,1-.65527-.28711,1.53,1.53,0,0,1-.47852-.55957,1.89478,1.89478,0,0,1-.18359-.88281v-4.43262h-1.0459Z"/><path class="cls-7" d="M265.69293,201.74474a4.2507,4.2507,0,0,1-1.67187-.30859,3.48372,3.48372,0,0,1-1.98731-2.12109,4.729,4.729,0,0,1-.25781-1.5752,4.44516,4.44516,0,0,1,.27246-1.56836,3.7556,3.7556,0,0,1,.76563-1.25879,3.61061,3.61061,0,0,1,2.6875-1.14844,3.66852,3.66852,0,0,1,1.60449.332,3.22379,3.22379,0,0,1,1.16309.93457,4.23068,4.23068,0,0,1,.71484,1.43554,6.613,6.613,0,0,1,.24219,1.84766h-5.47657a2.39413,2.39413,0,0,0,.59571,1.38379,1.75448,1.75448,0,0,0,1.332.501,1.6033,1.6033,0,0,0,.94336-.25,1.43706,1.43706,0,0,0,.51465-.67773H269.109a2.997,2.997,0,0,1-.376.9502,2.90333,2.90333,0,0,1-.707.7871,3.42536,3.42536,0,0,1-1.02246.53809A4.10622,4.10622,0,0,1,265.69293,201.74474Zm-.16211-6.43457a1.58567,1.58567,0,0,0-1.207.43457,2.23519,2.23519,0,0,0-.54492,1.18555h3.35645a1.77745,1.77745,0,0,0-.47852-1.1709A1.49983,1.49983,0,0,0,265.53082,195.31017Z"/><path class="cls-7" d="M272.08161,195.17834h.04492a2.84424,2.84424,0,0,1,.76562-.97168,1.75189,1.75189,0,0,1,1.08985-.32422,1.4584,1.4584,0,0,1,.4707.05859v1.752h-.04492a2.08,2.08,0,0,0-1.61914.42773,2.12833,2.12833,0,0,0-.63282,1.72266V201.524h-2.002v-7.55371h1.92774Z"/><path class="cls-7" d="M275.55622,202.42248h.707a1.12827,1.12827,0,0,0,.86132-.28028,1.06422,1.06422,0,0,0,.25782-.751,2.134,2.134,0,0,0-.0293-.33106,3.635,3.635,0,0,0-.0957-.41992c-.04395-.15625-.10352-.34082-.17676-.55176s-.16406-.459-.27246-.74316l-2.03125-5.375h2.10547l1.11914,3.40137q.08788.26512.16894.55273.08056.28712.15528.53711.07323.27978.16113.55957h.03027c.03907-.18652.082-.37305.13184-.55957q.05859-.25049.13965-.53711.082-.28711.16992-.55273l1.05957-3.40137h2.0166L279.4,201.71545a7.94377,7.94377,0,0,1-.44922,1.06738,2.5458,2.5458,0,0,1-.5293.707,1.78662,1.78662,0,0,1-.707.38965,3.52367,3.52367,0,0,1-.97949.11816h-1.17871Z"/><path class="cls-7" d="M210.13239,264.73693h3.96484a3.89311,3.89311,0,0,1,1.37695.2207,2.7643,2.7643,0,0,1,.98438.626,2.87992,2.87992,0,0,1,.59375.9082,2.98635,2.98635,0,0,1,.21484,1.14942,3.121,3.121,0,0,1-.209,1.168,2.53225,2.53225,0,0,1-.59278.89648,2.6911,2.6911,0,0,1-.94726.58106,3.64011,3.64011,0,0,1-1.26953.208h-2.22168v3.27051h-1.89453Zm1.89453,4.26758h1.89355a1.497,1.497,0,0,0,1.09278-.36524,1.32084,1.32084,0,0,0,.37207-.98535,1.25628,1.25628,0,0,0-.37891-.98535,1.53117,1.53117,0,0,0-1.06055-.34082h-1.91894Z"/><path class="cls-7" d="M220.91559,273.9547a3.45751,3.45751,0,0,1-1.376-.26562,3.20747,3.20747,0,0,1-1.76172-1.81152,3.7971,3.7971,0,0,1,0-2.68946,3.20739,3.20739,0,0,1,1.76172-1.81152,3.69665,3.69665,0,0,1,2.752,0,3.20739,3.20739,0,0,1,1.76172,1.81152,3.7971,3.7971,0,0,1,0,2.68946,3.20747,3.20747,0,0,1-1.76172,1.81152A3.45751,3.45751,0,0,1,220.91559,273.9547Zm0-1.31347a1.415,1.415,0,0,0,1.21875-.58106,2.53291,2.53291,0,0,0,.42285-1.52734,2.563,2.563,0,0,0-.42285-1.53418,1.55885,1.55885,0,0,0-2.4375,0,2.563,2.563,0,0,0-.42285,1.53418,2.53291,2.53291,0,0,0,.42285,1.52734A1.415,1.415,0,0,0,220.91559,272.64123Z"/><path class="cls-7" d="M224.40094,267.28771h1.7041l.78321,3.00488c.0332.13477.06933.27442.10742.417.03808.14355.06933.27343.09472.3916.03321.14258.06348.27734.08887.4043h.02442c.02539-.13477.05468-.27344.08886-.417.02539-.11816.05274-.248.082-.3916.0293-.14258.06543-.28223.10743-.417l.80761-2.99219h1.46485l.8457,2.99219c.03418.14355.06738.28711.10156.42969.03321.14355.06739.27343.10059.3916.03418.14258.06738.27734.10156.4043h.02539q.03808-.19044.08789-.4043.07617-.37939.20215-.8086l.82031-3.00488h1.667l-1.93164,6.47754h-1.56543l-.85938-3.18164c-.042-.127-.08008-.25684-.11328-.3916s-.06348-.25684-.08789-.36621c-.03418-.126-.06348-.24805-.08887-.36621h-.02539c-.0332.11816-.06738.24023-.10059.36621-.03417.10937-.06738.23144-.10156.36621-.0332.13476-.06738.26465-.10058.3916l-.88379,3.18164H226.2945Z"/><path class="cls-7" d="M237.16657,273.9547a3.644,3.644,0,0,1-1.4336-.26562,2.9849,2.9849,0,0,1-1.7041-1.81738,4.06184,4.06184,0,0,1-.22168-1.35157,3.80132,3.80132,0,0,1,.23438-1.34472,3.19811,3.19811,0,0,1,.65625-1.0791,3.09483,3.09483,0,0,1,2.30468-.98536,3.15168,3.15168,0,0,1,1.376.28418,2.76649,2.76649,0,0,1,.99707.80176,3.65127,3.65127,0,0,1,.61328,1.23145,5.6499,5.6499,0,0,1,.208,1.584h-4.69727a2.05422,2.05422,0,0,0,.51172,1.1875,1.50509,1.50509,0,0,0,1.14258.42871,1.3754,1.3754,0,0,0,.80762-.21387,1.229,1.229,0,0,0,.44238-.58105h1.69141a2.55674,2.55674,0,0,1-.32129.81445,2.49881,2.49881,0,0,1-.60645.67481,2.91708,2.91708,0,0,1-.87793.46094A3.47575,3.47575,0,0,1,237.16657,273.9547Zm-.13868-5.51757a1.36218,1.36218,0,0,0-1.03613.37207,1.91814,1.91814,0,0,0-.46679,1.0166h2.8789a1.52755,1.52755,0,0,0-.41015-1.00391A1.28439,1.28439,0,0,0,237.02789,268.43713Z"/><path class="cls-7" d="M242.64606,268.32287h.03808a2.446,2.446,0,0,1,.65625-.833,1.50124,1.50124,0,0,1,.93458-.27832,1.25638,1.25638,0,0,1,.40429.05078v1.50293h-.03808a1.7805,1.7805,0,0,0-1.38868.36621,1.82236,1.82236,0,0,0-.543,1.47754v3.15625h-1.71778v-6.47754h1.6543Z"/><path class="cls-7" d="M245.42438,267.28771h1.65332v.8086h.03809a2.67688,2.67688,0,0,1,.77636-.708,2.16162,2.16162,0,0,1,1.13086-.27735,2.60525,2.60525,0,0,1,1.16113.25293,2.66113,2.66113,0,0,1,.89063.7002,3.11948,3.11948,0,0,1,.56836,1.08008,5.06478,5.06478,0,0,1-.00684,2.80957,3.119,3.119,0,0,1-.57422,1.0791,2.5486,2.5486,0,0,1-.89062.68164,2.66337,2.66337,0,0,1-1.13574.24023,2.30856,2.30856,0,0,1-1.13672-.25293,2.06487,2.06487,0,0,1-.73242-.66894h-.02539v2.85351h-1.7168Zm3.24512,5.24024a1.23551,1.23551,0,0,0,1.041-.51172,2.33751,2.33751,0,0,0,.38574-1.43262,2.9016,2.9016,0,0,0-.34765-1.50293,1.22793,1.22793,0,0,0-1.14258-.581,1.35563,1.35563,0,0,0-.68848.16406,1.38483,1.38483,0,0,0-.46679.44238,1.923,1.923,0,0,0-.26563.66309,3.90342,3.90342,0,0,0-.082.81445,2.29836,2.29836,0,0,0,.39844,1.41406A1.36806,1.36806,0,0,0,248.6695,272.52795Z"/><path class="cls-7" d="M256.71247,273.76525a.84519.84519,0,0,1-.126-.30273,3.17687,3.17687,0,0,1-.07617-.417h-.02539a2.27522,2.27522,0,0,1-.28418.34766,1.53317,1.53317,0,0,1-.37891.27148,2.22813,2.22813,0,0,1-.52344.18262,3.28679,3.28679,0,0,1-.71972.06934,2.52583,2.52583,0,0,1-1.62891-.50488,1.78025,1.78025,0,0,1-.63184-1.47754,1.83242,1.83242,0,0,1,.20215-.89649,1.73583,1.73583,0,0,1,.55567-.60547,2.81787,2.81787,0,0,1,.82714-.373,7.68621,7.68621,0,0,1,1.01661-.208,7.36673,7.36673,0,0,0,1.18652-.24024.48692.48692,0,0,0,.37891-.49218.67217.67217,0,0,0-.27149-.5625,1.32721,1.32721,0,0,0-.81445-.208,1.54843,1.54843,0,0,0-.90918.2207.89077.89077,0,0,0-.34082.68848h-1.52735a2.06376,2.06376,0,0,1,.18946-.81445,1.94594,1.94594,0,0,1,.51758-.67579,2.61368,2.61368,0,0,1,.85839-.46679,3.78654,3.78654,0,0,1,1.22461-.17676,2.911,2.911,0,0,1,2.08985.625,2.35642,2.35642,0,0,1,.63769,1.76172v3.29492q0,.73242.22754.89648v.06348Zm-1.7168-1.04785a1.8367,1.8367,0,0,0,.64941-.10742,1.55447,1.55447,0,0,0,.48047-.27832,1.1647,1.1647,0,0,0,.29688-.39063,1.11052,1.11052,0,0,0,.10058-.46094v-.97265a1.99374,1.99374,0,0,1-.54883.2207c-.21484.05567-.43164.10742-.65039.1582a3.41083,3.41083,0,0,0-1.01074.35352.71185.71185,0,0,0-.32812.65625.70465.70465,0,0,0,.27832.6377A1.3082,1.3082,0,0,0,254.99567,272.7174Z"/><path class="cls-7" d="M258.72028,267.28771h.89648V265.2672h1.67871v2.02051h1.11133v1.13672h-1.11133V271.859a.61252.61252,0,0,0,.17676.50488.73465.73465,0,0,0,.46777.13868h.32813a1.19575,1.19575,0,0,0,.17676-.0127v1.2627a2.693,2.693,0,0,1-.27735.01269c-.09277.00781-.207.0127-.34179.0127h-.45411a2.86436,2.86436,0,0,1-.625-.06934,1.57,1.57,0,0,1-.56152-.24609,1.3147,1.3147,0,0,1-.41113-.48047,1.63657,1.63657,0,0,1-.15723-.75684v-3.80078h-.89648Z"/><path class="cls-7" d="M265.00836,268.13341h.03711a2.51757,2.51757,0,0,1,.78321-.76953,2.1373,2.1373,0,0,1,1.09863-.25293,2.21943,2.21943,0,0,1,.915.1836,2.06115,2.06115,0,0,1,.70117.50488,2.33613,2.33613,0,0,1,.4541.76367,2.77355,2.77355,0,0,1,.16406.97266v4.22949h-1.71679v-3.97754a1.24824,1.24824,0,0,0-.29-.8584,1.05607,1.05607,0,0,0-.834-.32812,1.215,1.215,0,0,0-.94043.41015,1.5454,1.5454,0,0,0-.37207,1.07911v3.6748h-1.71777v-9.02832h1.71777Z"/><path class="cls-7" d="M275.98,273.9674a4.56495,4.56495,0,0,1-2.84668-.77637,2.76528,2.76528,0,0,1-1.05468-2.21582h1.793a1.60123,1.60123,0,0,0,.58106,1.168,2.47834,2.47834,0,0,0,1.45215.34668,3.33807,3.33807,0,0,0,.66894-.06348,1.80866,1.80866,0,0,0,.55567-.20117,1.12741,1.12741,0,0,0,.38476-.36035.95651.95651,0,0,0,.14551-.53613.89007.89007,0,0,0-.1582-.543,1.20193,1.20193,0,0,0-.44824-.36035,3.67493,3.67493,0,0,0-.7002-.25293q-.41016-.10694-.92773-.22071-.60645-.13916-1.168-.30957a3.5163,3.5163,0,0,1-.98535-.46093,2.21567,2.21567,0,0,1-.68165-.74414,2.32667,2.32667,0,0,1-.25878-1.16211,2.53259,2.53259,0,0,1,.25878-1.17383,2.39472,2.39472,0,0,1,.71973-.84668,3.23132,3.23132,0,0,1,1.0918-.51074,5.29272,5.29272,0,0,1,1.38867-.1709,3.90037,3.90037,0,0,1,2.45605.71972,2.76424,2.76424,0,0,1,1.0293,2.09571h-1.75488a1.37369,1.37369,0,0,0-.55567-1.02246,1.99642,1.99642,0,0,0-1.18652-.34082,2.13928,2.13928,0,0,0-1.1875.29.88532.88532,0,0,0-.4414.7705.823.823,0,0,0,.11914.46094,1.0338,1.0338,0,0,0,.36621.32227,2.66883,2.66883,0,0,0,.61328.23925c.24316.06836.53418.13965.87109.21485q.69434.15234,1.30664.335a4.059,4.059,0,0,1,1.07324.48633,2.23967,2.23967,0,0,1,.72559.76953,2.41354,2.41354,0,0,1,.26563,1.20019,2.71212,2.71212,0,0,1-.26563,1.21778,2.519,2.519,0,0,1-.73242.89648,3.33976,3.33976,0,0,1-1.11035.54981A4.96376,4.96376,0,0,1,275.98,273.9674Z"/><path class="cls-7" d="M283.49274,273.9547a3.63568,3.63568,0,0,1-1.43262-.26562,3.035,3.035,0,0,1-1.05469-.72559,3.07208,3.07208,0,0,1-.65039-1.09179,4.06152,4.06152,0,0,1-.2207-1.35157,3.823,3.823,0,0,1,.2334-1.34472,3.22964,3.22964,0,0,1,.65625-1.0791,3.09908,3.09908,0,0,1,2.30469-.98536,3.14864,3.14864,0,0,1,1.376.28418,2.7615,2.7615,0,0,1,.998.80176,3.63181,3.63181,0,0,1,.6123,1.23145,5.64953,5.64953,0,0,1,.208,1.584h-4.69629a2.05352,2.05352,0,0,0,.51075,1.1875,1.50505,1.50505,0,0,0,1.14257.42871,1.37657,1.37657,0,0,0,.8086-.21387,1.22716,1.22716,0,0,0,.4414-.58105h1.69239a2.53641,2.53641,0,0,1-.32227.81445,2.4789,2.4789,0,0,1-.60547.67481,2.92882,2.92882,0,0,1-.87793.46094A3.48609,3.48609,0,0,1,283.49274,273.9547Zm-.13867-5.51757a1.36132,1.36132,0,0,0-1.03516.37207,1.9189,1.9189,0,0,0-.46777,1.0166H284.73a1.52755,1.52755,0,0,0-.41015-1.00391A1.28289,1.28289,0,0,0,283.35407,268.43713Z"/><path class="cls-7" d="M287.3443,264.73693h1.7168v9.02832h-1.7168Z"/><path class="cls-7" d="M293.24079,273.9547a3.63561,3.63561,0,0,1-1.43262-.26562,3.03486,3.03486,0,0,1-1.05469-.72559,3.07208,3.07208,0,0,1-.65039-1.09179,4.06152,4.06152,0,0,1-.2207-1.35157,3.82276,3.82276,0,0,1,.2334-1.34472,3.22964,3.22964,0,0,1,.65625-1.0791,3.09908,3.09908,0,0,1,2.30468-.98536,3.14869,3.14869,0,0,1,1.376.28418,2.76159,2.76159,0,0,1,.99805.80176,3.63181,3.63181,0,0,1,.6123,1.23145,5.6499,5.6499,0,0,1,.208,1.584h-4.69629a2.05351,2.05351,0,0,0,.51074,1.1875,1.50509,1.50509,0,0,0,1.14258.42871,1.37654,1.37654,0,0,0,.80859-.21387,1.22718,1.22718,0,0,0,.44141-.58105h1.69238a2.53616,2.53616,0,0,1-.32226.81445,2.47906,2.47906,0,0,1-.60547.67481,2.92894,2.92894,0,0,1-.87793.46094A3.48618,3.48618,0,0,1,293.24079,273.9547Zm-.13868-5.51757a1.3613,1.3613,0,0,0-1.03515.37207,1.919,1.919,0,0,0-.46778,1.0166h2.87891a1.5275,1.5275,0,0,0-.41016-1.00391A1.28286,1.28286,0,0,0,293.10211,268.43713Z"/><path class="cls-7" d="M300.07184,273.9547a3.44745,3.44745,0,0,1-1.38281-.26562,3.06616,3.06616,0,0,1-1.042-.72559,3.22759,3.22759,0,0,1-.66211-1.08593,3.80142,3.80142,0,0,1-.23438-1.34473,3.91143,3.91143,0,0,1,.22754-1.34473,3.20123,3.20123,0,0,1,.65039-1.08594,3.04967,3.04967,0,0,1,1.0166-.72558,3.24619,3.24619,0,0,1,1.33789-.26563,3.42043,3.42043,0,0,1,1.13672.17676,2.83106,2.83106,0,0,1,.87793.48633,2.47005,2.47005,0,0,1,.60547.74512,3.08528,3.08528,0,0,1,.32227.96582h-1.67969a1.29816,1.29816,0,0,0-.39746-.71387,1.12151,1.12151,0,0,0-.78907-.28418,1.34572,1.34572,0,0,0-1.17382.54981,2.52759,2.52759,0,0,0-.3916,1.49609,2.64529,2.64529,0,0,0,.37207,1.4834,1.30028,1.30028,0,0,0,1.168.5625,1.35541,1.35541,0,0,0,.8711-.27149,1.26148,1.26148,0,0,0,.42969-.82715h1.65429a2.61022,2.61022,0,0,1-.25879.96582,2.57138,2.57138,0,0,1-.59375.78223,2.77315,2.77315,0,0,1-.89648.53125A3.33,3.33,0,0,1,300.07184,273.9547Z"/><path class="cls-7" d="M303.355,267.28771h.89649V265.2672h1.67871v2.02051h1.11133v1.13672h-1.11133V271.859a.61252.61252,0,0,0,.17676.50488.73464.73464,0,0,0,.46777.13868h.32812a1.19556,1.19556,0,0,0,.17676-.0127v1.2627a2.69276,2.69276,0,0,1-.27734.01269c-.09277.00781-.207.0127-.3418.0127h-.4541a2.86429,2.86429,0,0,1-.625-.06934,1.57,1.57,0,0,1-.56152-.24609,1.31463,1.31463,0,0,1-.41114-.48047,1.63657,1.63657,0,0,1-.15722-.75684v-3.80078H303.355Z"/><path class="cls-7" d="M17.0777,195.60851h3.4541a3.36234,3.36234,0,0,1,1.19824.19287,2.39586,2.39586,0,0,1,.8584.54444,2.50243,2.50243,0,0,1,.5166.792,2.58372,2.58372,0,0,1,.1875,1.001,2.73016,2.73016,0,0,1-.18164,1.01757,2.20481,2.20481,0,0,1-.5166.78077,2.34151,2.34151,0,0,1-.82519.50634,3.17379,3.17379,0,0,1-1.10547.18116H18.72711v2.84912H17.0777Zm1.64941,3.71826H20.3775a1.30265,1.30265,0,0,0,.95118-.31884,1.14837,1.14837,0,0,0,.32519-.8584,1.09585,1.09585,0,0,0-.33008-.85791,1.33643,1.33643,0,0,0-.9248-.29688H18.72711Z"/><path class="cls-7" d="M27.648,203.64953a3.89183,3.89183,0,0,1-1.57324-.30762,3.49615,3.49615,0,0,1-1.19824-.85254,3.75927,3.75927,0,0,1-.75977-1.29834,5.19056,5.19056,0,0,1,0-3.2666,3.81566,3.81566,0,0,1,.75977-1.30371,3.45837,3.45837,0,0,1,1.19824-.85791,3.892,3.892,0,0,1,1.57324-.30811,3.85033,3.85033,0,0,1,1.56738.30811,3.45755,3.45755,0,0,1,1.19336.85791,3.81566,3.81566,0,0,1,.75977,1.30371,5.19056,5.19056,0,0,1,0,3.2666,3.75927,3.75927,0,0,1-.75977,1.29834,3.49536,3.49536,0,0,1-1.19336.85254A3.85024,3.85024,0,0,1,27.648,203.64953Zm.01074-1.3086a1.97254,1.97254,0,0,0,.94141-.21484,1.94961,1.94961,0,0,0,.6709-.58838,2.61124,2.61124,0,0,0,.40137-.88525,4.63359,4.63359,0,0,0,0-2.19483,2.68223,2.68223,0,0,0-.40137-.88525,1.93173,1.93173,0,0,0-.6709-.59424,1.97254,1.97254,0,0,0-.94141-.21435,1.994,1.994,0,0,0-.94531.21435,1.96872,1.96872,0,0,0-.68262.59424,2.71841,2.71841,0,0,0-.4121.88525,4.44181,4.44181,0,0,0,0,2.19483,2.64464,2.64464,0,0,0,.4121.88525,1.93618,1.93618,0,0,0,1.62793.80322Z"/><path class="cls-7" d="M32.30133,195.60851h5.78614v1.34229H33.89606v1.75976h3.67383v1.30909H33.89606v2.123h4.22363v1.33106H32.30133Z"/><path class="cls-7" d="M19.95661,264.75939h-.02442a2.62845,2.62845,0,0,1-1.06933,1.06348,3.14509,3.14509,0,0,1-1.40235.30176,4.35555,4.35555,0,0,1-1.76465-.33789,3.90707,3.90707,0,0,1-1.32226-.94141A4.2791,4.2791,0,0,1,13.525,263.4a5.78068,5.78068,0,0,1,.07421-3.85547,4.18717,4.18717,0,0,1,1.06934-1.56153,3.76316,3.76316,0,0,1,1.24219-.75,4.576,4.576,0,0,1,1.58691-.25878,4.7498,4.7498,0,0,1,1.48145.21582,3.34563,3.34563,0,0,1,1.125.60839,3.15835,3.15835,0,0,1,.75683.93457,3.903,3.903,0,0,1,.39942,1.18067h-1.7461a1.88746,1.88746,0,0,0-.63965-1.05078,2.01925,2.01925,0,0,0-1.34082-.41211,2.32446,2.32446,0,0,0-1.08789.23926,2.24065,2.24065,0,0,0-.77441.66406,2.933,2.933,0,0,0-.46777.99609,4.69837,4.69837,0,0,0-.15332,1.22363,4.30572,4.30572,0,0,0,.17187,1.249,2.97071,2.97071,0,0,0,.49219.9834,2.29167,2.29167,0,0,0,.77441.6455,2.19628,2.19628,0,0,0,1.02051.2334,2.42194,2.42194,0,0,0,.93457-.17187,2.258,2.258,0,0,0,.71387-.45508,2.03134,2.03134,0,0,0,.45508-.63965,1.75717,1.75717,0,0,0,.15918-.72558v-.04883H17.6568v-1.377H21.359v4.67286H20.01813Z"/><path class="cls-7" d="M24.07672,260.63927h.03711a2.38063,2.38063,0,0,1,.63965-.81152,1.467,1.467,0,0,1,.91016-.27051,1.23128,1.23128,0,0,1,.39355.04883v1.46387h-.03711a1.73494,1.73494,0,0,0-1.35254.35644,1.775,1.775,0,0,0-.52929,1.43946v3.07422H22.46539v-6.3086h1.61133Z"/><path class="cls-7" d="M29.56207,266.12463a3.52865,3.52865,0,0,1-1.3955-.25879,2.90819,2.90819,0,0,1-1.66114-1.77051,3.95376,3.95376,0,0,1-.21484-1.31543,3.72241,3.72241,0,0,1,.22754-1.31055,3.11832,3.11832,0,0,1,.63965-1.05078,3.01361,3.01361,0,0,1,2.24414-.96,3.07083,3.07083,0,0,1,1.34082.27734,2.69865,2.69865,0,0,1,.97168.78028,3.54923,3.54923,0,0,1,.5957,1.19922,5.48227,5.48227,0,0,1,.20313,1.54394H27.939a2.00266,2.00266,0,0,0,.498,1.15527,1.4621,1.4621,0,0,0,1.11231.41895,1.33953,1.33953,0,0,0,.78711-.209,1.18923,1.18923,0,0,0,.43066-.56641h1.64844a2.47223,2.47223,0,0,1-.31445.793,2.41748,2.41748,0,0,1-.58985.6582,2.87582,2.87582,0,0,1-.85449.44922A3.42082,3.42082,0,0,1,29.56207,266.12463Zm-.13574-5.374a1.32658,1.32658,0,0,0-1.00781.36231,1.871,1.871,0,0,0-.45508.99023h2.80371a1.48708,1.48708,0,0,0-.39941-.97754A1.252,1.252,0,0,0,29.42633,260.7506Z"/><path class="cls-7" d="M36.25153,266.12463a3.53544,3.53544,0,0,1-1.39551-.25879,2.95539,2.95539,0,0,1-1.02734-.707,2.98688,2.98688,0,0,1-.63282-1.06348,3.95376,3.95376,0,0,1-.21484-1.31543,3.70063,3.70063,0,0,1,.22754-1.31055,3.13185,3.13185,0,0,1,.63867-1.05078,3.01793,3.01793,0,0,1,2.24512-.96,3.06641,3.06641,0,0,1,1.33984.27734,2.6903,2.6903,0,0,1,.97168.78028,3.55078,3.55078,0,0,1,.59668,1.19922,5.48227,5.48227,0,0,1,.20313,1.54394h-4.5752a2.00267,2.00267,0,0,0,.498,1.15527,1.4658,1.4658,0,0,0,1.11328.41895,1.34371,1.34371,0,0,0,.78711-.209,1.20146,1.20146,0,0,0,.43066-.56641H39.105a2.49238,2.49238,0,0,1-.31347.793,2.42139,2.42139,0,0,1-.59082.6582,2.85217,2.85217,0,0,1-.8545.44922A3.41651,3.41651,0,0,1,36.25153,266.12463Zm-.13477-5.374a1.32747,1.32747,0,0,0-1.00879.36231,1.87837,1.87837,0,0,0-.45508.99023h2.80469a1.48784,1.48784,0,0,0-.40039-.97754A1.25123,1.25123,0,0,0,36.11676,260.7506Z"/><path class="cls-7" d="M41.61383,260.49181h.03711a2.20162,2.20162,0,0,1,.76856-.77441,2.39786,2.39786,0,0,1,1.99218-.08008,2.03214,2.03214,0,0,1,.68262.49219,2.28155,2.28155,0,0,1,.44238.74414,2.7028,2.7028,0,0,1,.16016.94629v4.12012H44.024v-3.874a1.21414,1.21414,0,0,0-.2832-.83594,1.02724,1.02724,0,0,0-.81153-.32031,1.184,1.184,0,0,0-.916.40039,1.50075,1.50075,0,0,0-.36231,1.05078v3.57911H39.97809v-6.3086h1.63574Z"/><path class="cls-7" d="M12.96539,271.9049h3.86133a3.7674,3.7674,0,0,1,1.34082.21484,2.69961,2.69961,0,0,1,.959.6084,2.81968,2.81968,0,0,1,.57812.88574,2.89222,2.89222,0,0,1,.209,1.11914,3.04535,3.04535,0,0,1-.20313,1.1377,2.447,2.447,0,0,1-.57812.873,2.61889,2.61889,0,0,1-.92188.5664,3.553,3.553,0,0,1-1.23633.20215H14.81012v3.18555H12.96539Zm1.84473,4.15625h1.84473a1.4552,1.4552,0,0,0,1.06347-.35645,1.28227,1.28227,0,0,0,.36329-.959,1.22233,1.22233,0,0,0-.36914-.959,1.49014,1.49014,0,0,0-1.03321-.333H14.81012Z"/><path class="cls-7" d="M23.46832,280.88244a3.35723,3.35723,0,0,1-1.34082-.25879,3.13008,3.13008,0,0,1-1.71582-1.76465,3.70369,3.70369,0,0,1,0-2.61914,3.13008,3.13008,0,0,1,1.71582-1.76465,3.60035,3.60035,0,0,1,2.68067,0,3.13008,3.13008,0,0,1,1.71582,1.76465,3.68956,3.68956,0,0,1,0,2.61914,3.13008,3.13008,0,0,1-1.71582,1.76465A3.35577,3.35577,0,0,1,23.46832,280.88244Zm0-1.2793a1.3801,1.3801,0,0,0,1.18653-.56543,2.47147,2.47147,0,0,0,.41211-1.48828,2.49847,2.49847,0,0,0-.41211-1.49414,1.5172,1.5172,0,0,0-2.374,0,2.49847,2.49847,0,0,0-.4121,1.49414,2.47147,2.47147,0,0,0,.4121,1.48828A1.37952,1.37952,0,0,0,23.46832,279.60314Z"/><path class="cls-7" d="M26.86188,274.38927H28.522l.76269,2.92676c.03223.13086.06738.2666.10449.40528.03711.13964.06739.2666.09278.38183.03222.13965.06054.27051.08593.39356h.02442c.02441-.13086.05273-.26661.08594-.40625.02441-.11426.05078-.24121.08007-.38086a4.11908,4.11908,0,0,1,.1045-.40625l.78711-2.91407h1.42675L32.9,277.30334c.0332.13965.0664.27929.09863.418.0332.13964.06543.2666.09863.38183.03223.13965.06543.27051.09863.39356h.02442c.02441-.123.05273-.25391.08594-.39356.04882-.24609.11523-.50879.19726-.78711l.79883-2.92676h1.623l-1.88086,6.3086H32.51911l-.83594-3.09961c-.041-.12207-.07813-.25-.11133-.38086-.03223-.13086-.06152-.25-.08594-.35645-.03222-.123-.06152-.24218-.08593-.35644h-.02442c-.0332.11426-.06543.2334-.09863.35644-.03223.10645-.06543.22559-.09863.35645-.03223.13086-.06543.25879-.09766.38086l-.86133,3.09961H28.70661Z"/><path class="cls-7" d="M39.29547,280.88244a3.52865,3.52865,0,0,1-1.3955-.25879,2.90819,2.90819,0,0,1-1.66114-1.77051,3.95371,3.95371,0,0,1-.21484-1.31543,3.72241,3.72241,0,0,1,.22754-1.31055,3.11826,3.11826,0,0,1,.63965-1.05078,3.01356,3.01356,0,0,1,2.24414-.96,3.07087,3.07087,0,0,1,1.34082.27735,2.69862,2.69862,0,0,1,.97168.78027,3.54941,3.54941,0,0,1,.5957,1.19922,5.48233,5.48233,0,0,1,.20312,1.54394H37.67243a2.00269,2.00269,0,0,0,.498,1.15528,1.46213,1.46213,0,0,0,1.11231.41894,1.33953,1.33953,0,0,0,.78711-.209,1.18923,1.18923,0,0,0,.43066-.56641H42.149a2.47223,2.47223,0,0,1-.31445.793,2.41718,2.41718,0,0,1-.58985.6582,2.87594,2.87594,0,0,1-.85449.44922A3.42087,3.42087,0,0,1,39.29547,280.88244Zm-.13574-5.374a1.32658,1.32658,0,0,0-1.00781.36231,1.87108,1.87108,0,0,0-.45508.99023h2.80371a1.4871,1.4871,0,0,0-.39941-.97754A1.252,1.252,0,0,0,39.15973,275.50841Z"/><path class="cls-7" d="M44.63336,275.39709h.03614a2.39243,2.39243,0,0,1,.63964-.81153,1.469,1.469,0,0,1,.91016-.2705,1.22753,1.22753,0,0,1,.39356.04882v1.46387h-.03711a1.73708,1.73708,0,0,0-1.35254.35645,1.77781,1.77781,0,0,0-.52832,1.43945v3.07422H43.022v-6.3086h1.61132Z"/></g></g></svg>