<?xml version="1.0" encoding="utf-8"?>
<!-- Generator: Adobe Illustrator 24.2.1, SVG Export Plug-In . SVG Version: 6.00 Build 0)  -->
<svg version="1.1" id="Layer_1" xmlns="http://www.w3.org/2000/svg" xmlns:xlink="http://www.w3.org/1999/xlink" x="0px" y="0px"
	 viewBox="0 0 1650.5 1349.3" style="enable-background:new 0 0 1650.5 1349.3;" xml:space="preserve">
<style type="text/css">
	.st0{fill:#242424;}
	.st1{fill:#E8BA54;}
	.st2{opacity:0.51;fill:#896733;enable-background:new    ;}
	.st3{opacity:0.18;fill:#896733;enable-background:new    ;}
	.st4{opacity:0.32;fill:#E8CE90;enable-background:new    ;}
	.st5{fill:#BF8F3E;}
	.st6{fill:#FFFFFF;}
	.st7{fill:#00684D;}
	.st8{fill:#00A769;}
	.st9{fill:#D9DCDD;}
	.st10{fill:#C9CCCD;}
	.st11{fill:#675F5F;}
	.st12{fill:#C19639;}
	.st13{fill:#333333;}
	.st14{enable-background:new    ;}
	.st15{fill:none;stroke:#333333;stroke-width:4;stroke-miterlimit:10;}
	.st16{clip-path:url(#SVGID_2_);}
	.st17{clip-path:url(#SVGID_4_);}
	.st18{fill:#E5E5E5;}
	.st19{fill:#232323;}
	.st20{clip-path:url(#SVGID_6_);}
	.st21{clip-path:url(#SVGID_8_);}
	.st22{clip-path:url(#SVGID_10_);}
	.st23{clip-path:url(#SVGID_12_);}
	.st24{clip-path:url(#SVGID_14_);}
	.st25{clip-path:url(#SVGID_16_);}
	.st26{clip-path:url(#SVGID_18_);}
	.st27{clip-path:url(#SVGID_20_);}
	.st28{clip-path:url(#SVGID_22_);}
	.st29{clip-path:url(#SVGID_24_);}
	.st30{clip-path:url(#SVGID_26_);}
	.st31{clip-path:url(#SVGID_28_);}
	.st32{clip-path:url(#SVGID_30_);}
	.st33{clip-path:url(#SVGID_32_);}
	.st34{fill:#D1D5D2;}
	.st35{fill:#A5A8A6;}
	.st36{fill:#353B3D;}
	.st37{fill:#40484A;}
	.st38{clip-path:url(#SVGID_34_);}
	.st39{clip-path:url(#SVGID_36_);}
	.st40{fill:#B9752B;}
	.st41{clip-path:url(#SVGID_38_);}
	.st42{clip-path:url(#SVGID_40_);}
	.st43{clip-path:url(#SVGID_42_);}
	.st44{clip-path:url(#SVGID_44_);}
	.st45{clip-path:url(#SVGID_46_);}
	.st46{clip-path:url(#SVGID_48_);}
	.st47{clip-path:url(#SVGID_50_);}
	.st48{clip-path:url(#SVGID_52_);}
	.st49{fill:#C3BFB6;}
	.st50{fill:#F4F4EE;}
	.st51{fill:#C9C7BC;}
	.st52{fill:#DED2C8;}
	.st53{fill:#E9E8DD;}
	.st54{fill:#6F737B;}
	.st55{fill:#7E7F74;}
	.st56{fill:#8A9FA1;}
	.st57{fill:none;stroke:#FF9E1B;stroke-width:2;stroke-miterlimit:10;}
	.st58{fill:#FF9E1B;}
	.st59{fill:none;stroke:#333333;stroke-width:2;stroke-miterlimit:10;}
	.st60{fill:none;stroke:#FF9E1B;stroke-miterlimit:10;}
</style>
<g>
	<g>
		<g id="Layer_2_1_">
			<g id="Layer_1-2">
				<path class="st0" d="M1328.4,368.4h-1026c-28.5,0-51.6,23.1-51.6,51.6v410.2c0,28.5,23.1,51.6,51.6,51.6h1026
					c28.5,0,51.6-23.1,51.6-51.6V420C1380,391.5,1356.9,368.4,1328.4,368.4z M304.7,864.8c-14.6,0-26.5-11.8-26.5-26.5
					c0-14.6,11.8-26.5,26.5-26.5s26.5,11.8,26.5,26.5l0,0C331.2,852.9,319.3,864.8,304.7,864.8L304.7,864.8z M305.7,434.9
					c-14.8,0-26.9-12-26.9-26.9c0-14.8,12-26.9,26.9-26.9s26.9,12,26.9,26.9l0,0C332.6,422.9,320.5,434.9,305.7,434.9L305.7,434.9z
					 M1324,856.1c-15.9,0-28.7-12.9-28.7-28.7s12.9-28.7,28.7-28.7c15.9,0,28.7,12.9,28.7,28.7l0,0
					C1352.8,843.2,1339.9,856.1,1324,856.1L1324,856.1z M1324,452c-16.2,0-29.3-13.1-29.3-29.3s13.1-29.3,29.3-29.3
					c16.2,0,29.3,13.1,29.3,29.3l0,0C1353.3,438.9,1340.2,452,1324,452L1324,452z"/>
				<rect x="244.5" y="608.2" class="st1" width="84.9" height="26.6"/>
				<rect x="244.5" y="461.7" class="st1" width="84.9" height="26.6"/>
				<path class="st1" d="M322.6,558.1h-81.9c-0.8,0-1.5-0.7-1.5-1.5v-16.5c0-0.8,0.7-1.5,1.5-1.5h81.9c0.8,0,1.5,0.7,1.5,1.5v16.5
					C324.2,557.4,323.5,558.1,322.6,558.1z"/>
				<rect x="216.5" y="462.1" class="st1" width="33.3" height="172.6"/>
				<path class="st1" d="M227.8,604H47.6c-2.9,0-5.3-2.4-5.3-5.3V495.5c0-2.9,2.4-5.3,5.3-5.3h180.2c2.9,0,5.3,2.4,5.3,5.3v103.2
					C233.1,601.7,230.7,604,227.8,604z"/>
				<path class="st1" d="M158.2,612.7h-7.3c-0.9,0-1.6-0.7-1.6-1.6V483c0-0.9,0.7-1.6,1.6-1.6h7.3c0.9,0,1.6,0.7,1.6,1.6v128.1
					C159.8,612,159.1,612.7,158.2,612.7z"/>
				<path class="st1" d="M145.1,612.7h-7.3c-0.9,0-1.6-0.7-1.6-1.6V483c0-0.9,0.7-1.6,1.6-1.6h7.3c0.9,0,1.6,0.7,1.6,1.6v128.1
					C146.7,612,145.9,612.7,145.1,612.7z"/>
				<path class="st1" d="M131.9,612.7h-7.3c-0.9,0-1.6-0.7-1.6-1.6V483c0-0.9,0.7-1.6,1.6-1.6h7.3c0.9,0,1.6,0.7,1.6,1.6v128.1
					C133.5,612,132.8,612.7,131.9,612.7z"/>
				<path class="st1" d="M118.8,612.7h-7.3c-0.9,0-1.6-0.7-1.6-1.6V483c0-0.9,0.7-1.6,1.6-1.6h7.3c0.9,0,1.6,0.7,1.6,1.6v128.1
					C120.4,612,119.7,612.7,118.8,612.7z"/>
				<path class="st1" d="M105.7,612.7h-7.3c-0.9,0-1.6-0.7-1.6-1.6V483c0-0.9,0.7-1.6,1.6-1.6h7.3c0.9,0,1.6,0.7,1.6,1.6v128.1
					C107.3,612,106.6,612.7,105.7,612.7z"/>
				<path class="st1" d="M92.5,612.7h-7.3c-0.9,0-1.6-0.7-1.6-1.6V483c0-0.9,0.7-1.6,1.6-1.6h7.3c0.9,0,1.6,0.7,1.6,1.6v128.1
					C94.1,612,93.4,612.7,92.5,612.7z"/>
				<path class="st1" d="M79.4,612.7h-7.3c-0.9,0-1.6-0.7-1.6-1.6V483c0-0.9,0.7-1.6,1.6-1.6h7.3c0.9,0,1.6,0.7,1.6,1.6v128.1
					C81,612,80.3,612.7,79.4,612.7z"/>
				<path class="st2" d="M67.9,603.5v-113c0-0.2,0.2-0.4,0.4-0.4h1.9c0.2,0,0.4,0.2,0.4,0.4v113c0,0.2-0.2,0.4-0.4,0.4h-1.9
					C68,603.9,67.9,603.7,67.9,603.5z"/>
				<path class="st2" d="M81,603.5v-113c0-0.2,0.2-0.4,0.4-0.4h1.9c0.2,0,0.4,0.2,0.4,0.4v113c0,0.2-0.2,0.4-0.4,0.4h-1.9
					C81.2,603.9,81,603.7,81,603.5z"/>
				<path class="st2" d="M94.1,603.5v-113c0-0.2,0.2-0.4,0.4-0.4h1.9c0.2,0,0.4,0.2,0.4,0.4v113c0,0.2-0.2,0.4-0.4,0.4h-1.9
					C94.3,603.9,94.1,603.7,94.1,603.5z"/>
				<path class="st2" d="M107.3,603.5v-113c0-0.2,0.2-0.4,0.4-0.4h1.9c0.2,0,0.4,0.2,0.4,0.4v113c0,0.2-0.2,0.4-0.4,0.4h-1.9
					C107.4,603.9,107.3,603.7,107.3,603.5z"/>
				<path class="st2" d="M120.4,603.5v-113c0-0.2,0.2-0.4,0.4-0.4h1.9c0.2,0,0.4,0.2,0.4,0.4v113c0,0.2-0.2,0.4-0.4,0.4h-1.9
					C120.6,603.9,120.4,603.7,120.4,603.5z"/>
				<path class="st2" d="M133.5,603.5v-113c0-0.2,0.2-0.4,0.4-0.4h1.9c0.2,0,0.4,0.2,0.4,0.4v113c0,0.2-0.2,0.4-0.4,0.4h-1.9
					C133.7,603.9,133.5,603.7,133.5,603.5z"/>
				<path class="st2" d="M146.7,603.5v-113c0-0.2,0.2-0.4,0.4-0.4h1.9c0.2,0,0.4,0.2,0.4,0.4v113c0,0.2-0.2,0.4-0.4,0.4h-1.9
					C146.8,603.9,146.7,603.7,146.7,603.5z"/>
				<path class="st2" d="M159.8,603.5v-113c0-0.2,0.2-0.4,0.4-0.4h1.9c0.2,0,0.4,0.2,0.4,0.4v113c0,0.2-0.2,0.4-0.4,0.4h-1.9
					C160,603.9,159.8,603.7,159.8,603.5z"/>
				<rect x="42.3" y="538.9" class="st3" width="174.2" height="18.2"/>
				<rect x="42.3" y="520.7" class="st4" width="174.2" height="18.2"/>
				<rect x="42.3" y="558.3" class="st4" width="174.2" height="18.2"/>
				<path class="st5" d="M405.9,388.3c9.9,0.2,17.7,8.4,17.5,18.3s-8.4,17.7-18.3,17.5c-9.7-0.2-17.5-8.2-17.5-17.9
					C387.7,396.2,395.9,388.2,405.9,388.3z M419.4,406.2c0.2-7.4-5.7-13.6-13.1-13.7c-7.4-0.2-13.6,5.7-13.7,13.1
					c-0.2,7.4,5.7,13.6,13.1,13.7c0.1,0,0.2,0,0.3,0C413.3,419.5,419.3,413.6,419.4,406.2C419.4,406.3,419.4,406.2,419.4,406.2z"/>
				<path class="st6" d="M405.9,393.1c7.3,0.2,13,6.2,12.8,13.4c-0.2,7.2-6.2,13-13.4,12.8c-7.1-0.2-12.8-6-12.8-13.1
					C392.6,398.9,398.6,393,405.9,393.1L405.9,393.1z"/>
				<path class="st5" d="M1261.8,403.4c0.2,0.9,0.3,1.9,0.3,2.8c0,1-0.1,1.9-0.3,2.8v14.8h-15.2c-1,0.2-1.9,0.3-2.9,0.3
					s-1.9-0.1-2.9-0.3h-15.4v-35.5h36.4V403.4z M1257.1,406.2c0.2-7.4-5.7-13.6-13.1-13.7c-7.4-0.2-13.6,5.7-13.7,13.1
					c-0.2,7.4,5.7,13.6,13.1,13.7c0.1,0,0.2,0,0.3,0C1251,419.5,1257,413.6,1257.1,406.2C1257.1,406.3,1257.1,406.2,1257.1,406.2z"
					/>
				<path class="st6" d="M1243.7,393.1c7.3,0.2,13,6.2,12.8,13.4c-0.2,7.3-6.2,13-13.4,12.8c-7.1-0.2-12.8-6-12.8-13.1
					C1230.4,398.9,1236.4,393,1243.7,393.1L1243.7,393.1z"/>
				<path class="st5" d="M1188.1,388.3c9.9,0.2,17.7,8.4,17.5,18.3s-8.4,17.7-18.3,17.5c-9.7-0.2-17.5-8.2-17.5-17.9
					C1169.8,396.2,1178.1,388.2,1188.1,388.3z M1201.5,406.2c0.2-7.4-5.7-13.6-13.1-13.7c-7.4-0.2-13.6,5.7-13.7,13.1
					c-0.2,7.4,5.7,13.6,13.1,13.7c0.1,0,0.2,0,0.3,0C1195.4,419.5,1201.4,413.6,1201.5,406.2
					C1201.5,406.3,1201.5,406.2,1201.5,406.2z"/>
				<path class="st6" d="M1188.1,393.1c7.2,0.2,13,6.2,12.8,13.4c-0.2,7.2-6.2,13-13.4,12.8c-7.1-0.2-12.8-6-12.8-13.1
					C1174.7,398.9,1180.7,393,1188.1,393.1C1188,393.1,1188,393.1,1188.1,393.1z"/>
				<path class="st5" d="M1132.2,388.3c9.9,0.2,17.7,8.4,17.5,18.3s-8.4,17.7-18.3,17.5c-9.7-0.2-17.5-8.2-17.5-17.9
					C1114,396.2,1122.2,388.2,1132.2,388.3z M1145.6,406.2c0.2-7.4-5.7-13.6-13.1-13.7c-7.4-0.2-13.6,5.7-13.7,13.1
					c-0.2,7.4,5.7,13.6,13.1,13.7c0.1,0,0.2,0,0.3,0C1139.5,419.5,1145.5,413.6,1145.6,406.2
					C1145.6,406.3,1145.6,406.2,1145.6,406.2z"/>
				<path class="st6" d="M1132.2,393.1c7.3,0.2,13,6.2,12.8,13.4c-0.2,7.2-6.2,13-13.4,12.8c-7.1-0.2-12.8-6-12.8-13.1
					C1118.8,398.9,1124.8,393,1132.2,393.1L1132.2,393.1z"/>
				<path class="st5" d="M1076.3,388.3c9.9,0.2,17.7,8.4,17.5,18.3s-8.4,17.7-18.3,17.5c-9.7-0.2-17.5-8.2-17.5-17.9
					C1058.1,396.2,1066.3,388.2,1076.3,388.3z M1089.7,406.2c0.2-7.4-5.7-13.6-13.1-13.7c-7.4-0.2-13.6,5.7-13.7,13.1
					c-0.2,7.4,5.7,13.6,13.1,13.7c0.1,0,0.2,0,0.3,0C1083.6,419.5,1089.7,413.6,1089.7,406.2
					C1089.7,406.3,1089.7,406.2,1089.7,406.2z"/>
				<path class="st6" d="M1076.3,393.1c7.3,0.2,13,6.2,12.8,13.4c-0.2,7.2-6.2,13-13.4,12.8c-7.1-0.2-12.8-6-12.8-13.1
					C1063,398.9,1069,393,1076.3,393.1L1076.3,393.1z"/>
				<path class="st5" d="M1039.3,846.1c0.2,0.9,0.2,1.9,0.3,2.8c0,0.9-0.1,1.9-0.3,2.8v14.8h-15.2c-1.9,0.3-3.9,0.3-5.8,0h-15.5V831
					h36.4L1039.3,846.1L1039.3,846.1z M1034.7,848.9c0.2-7.4-5.7-13.6-13.1-13.7c-7.4-0.2-13.6,5.7-13.7,13.1s5.7,13.6,13.1,13.7
					c0.1,0,0.2,0,0.3,0C1028.6,862.2,1034.6,856.3,1034.7,848.9C1034.7,849,1034.7,849,1034.7,848.9z"/>
				<path class="st5" d="M1020.5,388.3c9.9,0.2,17.7,8.4,17.5,18.3s-8.4,17.7-18.3,17.5c-9.7-0.2-17.5-8.2-17.5-17.9
					C1002.2,396.2,1010.5,388.2,1020.5,388.3z M1033.9,406.2c0.2-7.4-5.7-13.6-13.1-13.7c-7.4-0.2-13.6,5.7-13.7,13.1
					c-0.2,7.4,5.7,13.6,13.1,13.7c0.1,0,0.2,0,0.3,0C1027.8,419.5,1033.8,413.6,1033.9,406.2
					C1033.9,406.3,1033.9,406.2,1033.9,406.2z"/>
				<path class="st6" d="M1021.3,835.8c7.3,0.2,13,6.2,12.8,13.4c-0.2,7.3-6.2,13-13.4,12.8c-7.1-0.2-12.8-6-12.8-13.1
					C1007.9,841.7,1013.9,835.8,1021.3,835.8C1021.2,835.8,1021.2,835.8,1021.3,835.8z"/>
				<path class="st6" d="M1020.5,393.1c7.3,0.2,13,6.2,12.8,13.4c-0.2,7.2-6.2,13-13.4,12.8c-7.1-0.2-12.8-6-12.8-13.1
					C1007.1,398.9,1013.1,393,1020.5,393.1C1020.4,393.1,1020.4,393.1,1020.5,393.1z"/>
				<path class="st5" d="M964.6,388.3c9.9,0.2,17.7,8.4,17.5,18.3s-8.4,17.7-18.3,17.5c-9.7-0.2-17.5-8.2-17.5-17.9
					C946.4,396.2,954.6,388.2,964.6,388.3z M978,406.2c0.2-7.4-5.7-13.6-13.1-13.7c-7.4-0.2-13.6,5.7-13.7,13.1
					c-0.2,7.4,5.7,13.6,13.1,13.7c0.1,0,0.2,0,0.3,0C971.9,419.5,977.9,413.6,978,406.2C978,406.3,978,406.2,978,406.2z"/>
				<path class="st5" d="M963.6,831.1c10-0.1,18.2,7.9,18.3,17.9l0,0c-0.3,10.1-8.8,18.1-18.9,17.7c-9.7-0.3-17.4-8.1-17.7-17.7
					C945.3,838.9,953.5,830.9,963.6,831.1C963.5,831.1,963.5,831.1,963.6,831.1z M977,848.9c0.2-7.4-5.7-13.6-13.1-13.7
					c-7.4-0.2-13.6,5.7-13.7,13.1s5.7,13.6,13.1,13.7c0.1,0,0.2,0,0.3,0C970.9,862.2,976.9,856.3,977,848.9
					C977,849,977,849,977,848.9z"/>
				<path class="st6" d="M964.6,393.1c7.3,0.2,13,6.2,12.8,13.4c-0.2,7.2-6.2,13-13.4,12.8c-7.1-0.2-12.8-6-12.8-13.1
					C951.2,398.9,957.2,393,964.6,393.1L964.6,393.1z"/>
				<path class="st6" d="M963.6,835.8c7.3,0.2,13,6.2,12.8,13.4c-0.2,7.3-6.2,13-13.4,12.8c-7.1-0.2-12.8-6-12.8-13.1
					C950.2,841.7,956.2,835.8,963.6,835.8C963.5,835.8,963.5,835.8,963.6,835.8z"/>
				<path class="st5" d="M908.7,388.3c9.9,0.2,17.7,8.4,17.5,18.3s-8.4,17.7-18.3,17.5c-9.7-0.2-17.5-8.2-17.5-17.9
					C890.5,396.2,898.7,388.2,908.7,388.3z M922.1,406.2c0.2-7.4-5.7-13.6-13.1-13.7c-7.4-0.2-13.6,5.7-13.7,13.1
					c-0.2,7.4,5.7,13.6,13.1,13.7c0.1,0,0.2,0,0.3,0C916,419.5,922.1,413.6,922.1,406.2C922.1,406.3,922.1,406.2,922.1,406.2z"/>
				<path class="st5" d="M907.8,831.1c10-0.1,18.2,7.9,18.3,17.9c-0.2,10.1-8.6,18.1-18.8,17.9c-9.8-0.2-17.7-8.1-17.9-17.9
					C889.6,838.9,897.8,830.9,907.8,831.1L907.8,831.1z M921.2,848.9c0.2-7.4-5.7-13.6-13.1-13.7c-7.4-0.2-13.6,5.7-13.7,13.1
					c-0.2,7.4,5.7,13.6,13.1,13.7c0.1,0,0.2,0,0.3,0C915.1,862.2,921.1,856.3,921.2,848.9C921.2,849,921.2,849,921.2,848.9z"/>
				<path class="st6" d="M908.7,393.1c7.3,0.2,13,6.2,12.8,13.4c-0.2,7.2-6.2,13-13.4,12.8c-7.1-0.2-12.8-6-12.8-13.1
					C895.4,398.9,901.4,393,908.7,393.1L908.7,393.1z"/>
				<path class="st6" d="M907.8,835.8c7.3,0.2,13,6.2,12.8,13.4c-0.2,7.3-6.2,13-13.4,12.8c-7.1-0.2-12.8-6-12.8-13.1
					C894.5,841.7,900.5,835.8,907.8,835.8L907.8,835.8z"/>
				<path class="st5" d="M891,623.8c0.3,1.9,0.3,3.8,0,5.7v14.7h-15.2c-1.9,0.3-3.9,0.3-5.8,0h-15.5v-35.5h36.4L891,623.8L891,623.8
					z M886.3,626.6c0.2-7.4-5.7-13.6-13.1-13.7c-7.4-0.2-13.6,5.7-13.7,13.1s5.7,13.6,13.1,13.7c0.1,0,0.2,0,0.3,0
					C880.2,639.8,886.2,633.9,886.3,626.6L886.3,626.6L886.3,626.6z"/>
				<path class="st5" d="M872.9,664c9.9,0.2,17.7,8.4,17.5,18.3s-8.4,17.7-18.3,17.5c-9.7-0.2-17.5-8.2-17.5-17.9
					C854.7,671.9,862.9,663.9,872.9,664z M886.3,681.9c0.2-7.4-5.7-13.6-13.1-13.7c-7.4-0.2-13.6,5.7-13.7,13.1s5.7,13.6,13.1,13.7
					c0.1,0,0.2,0,0.3,0C880.2,695.1,886.2,689.2,886.3,681.9L886.3,681.9z"/>
				<path class="st5" d="M872.9,719.3c9.9,0.2,17.7,8.4,17.5,18.3c-0.2,9.9-8.4,17.7-18.3,17.5c-9.7-0.2-17.5-8.2-17.5-17.9
					C854.7,727.2,862.9,719.2,872.9,719.3z M886.3,737.2c0.2-7.4-5.7-13.6-13.1-13.7c-7.4-0.2-13.6,5.7-13.7,13.1
					s5.7,13.6,13.1,13.7c0.1,0,0.2,0,0.3,0C880.2,750.4,886.2,744.5,886.3,737.2L886.3,737.2z"/>
				<path class="st5" d="M872.9,774.6c9.9,0.2,17.7,8.4,17.5,18.3s-8.4,17.7-18.3,17.5c-9.7-0.2-17.5-8.2-17.5-17.9
					C854.7,782.5,862.9,774.5,872.9,774.6z M886.3,792.5c0.2-7.4-5.7-13.6-13.1-13.7c-7.4-0.2-13.6,5.7-13.7,13.1
					s5.7,13.6,13.1,13.7c0.1,0,0.2,0,0.3,0C880.2,805.7,886.2,799.8,886.3,792.5L886.3,792.5z"/>
				<ellipse class="st6" cx="872.9" cy="626.6" rx="13.4" ry="13.1"/>
				<ellipse class="st6" cx="872.9" cy="681.9" rx="13.4" ry="13.1"/>
				<ellipse class="st6" cx="872.9" cy="737.2" rx="13.4" ry="13.1"/>
				<ellipse class="st6" cx="872.9" cy="792.5" rx="13.4" ry="13.1"/>
				<path class="st5" d="M852.9,388.3c9.9,0.2,17.7,8.4,17.5,18.3s-8.4,17.7-18.3,17.5c-9.7-0.2-17.5-8.2-17.5-17.9
					C834.6,396.2,842.9,388.2,852.9,388.3z M866.3,406.2c0.2-7.4-5.7-13.6-13.1-13.7c-7.4-0.2-13.6,5.7-13.7,13.1
					c-0.2,7.4,5.7,13.6,13.1,13.7c0.1,0,0.2,0,0.3,0C860.2,419.5,866.2,413.6,866.3,406.2C866.3,406.3,866.3,406.2,866.3,406.2z"/>
				<path class="st5" d="M852.1,831.1c10-0.1,18.2,7.9,18.3,17.9c-0.2,10.1-8.6,18.1-18.8,17.9c-9.8-0.2-17.7-8.1-17.9-17.9
					C833.9,839,842.1,830.9,852.1,831.1L852.1,831.1z M865.5,848.9c0.2-7.4-5.7-13.6-13.1-13.7c-7.4-0.2-13.6,5.7-13.7,13.1
					c-0.2,7.4,5.7,13.6,13.1,13.7c0.1,0,0.2,0,0.3,0C859.4,862.2,865.4,856.3,865.5,848.9C865.5,849,865.5,849,865.5,848.9z"/>
				<path class="st6" d="M852.9,393.1c7.3,0.2,13,6.2,12.8,13.4c-0.2,7.2-6.2,13-13.4,12.8c-7.1-0.2-12.8-6-12.8-13.1
					C839.5,398.9,845.5,393,852.9,393.1C852.8,393.1,852.8,393.1,852.9,393.1z"/>
				<path class="st6" d="M852.1,835.8c7.3,0.2,13,6.2,12.8,13.4c-0.2,7.3-6.2,13-13.4,12.8c-7.1-0.2-12.8-6-12.8-13.1
					C838.7,841.7,844.7,835.8,852.1,835.8L852.1,835.8z"/>
				<path class="st5" d="M797,388.3c9.9,0.2,17.7,8.4,17.5,18.3s-8.4,17.7-18.3,17.5c-9.7-0.2-17.5-8.2-17.5-17.9
					C778.8,396.2,787,388.2,797,388.3L797,388.3z M810.4,406.2c0.2-7.4-5.7-13.6-13.1-13.7c-7.4-0.2-13.6,5.7-13.7,13.1
					c-0.2,7.4,5.7,13.6,13.1,13.7c0.1,0,0.2,0,0.3,0C804.3,419.5,810.3,413.6,810.4,406.2C810.4,406.3,810.4,406.2,810.4,406.2z"/>
				<path class="st5" d="M796.3,831.1c10-0.1,18.2,7.9,18.3,17.9l0,0c-0.2,10.1-8.6,18.1-18.8,17.9c-9.8-0.2-17.7-8.1-17.9-17.9
					C778.1,838.9,786.3,830.9,796.3,831.1z M809.8,848.9c0.2-7.4-5.7-13.6-13.1-13.7c-7.4-0.2-13.6,5.7-13.7,13.1
					c-0.2,7.4,5.7,13.6,13.1,13.7c0.1,0,0.2,0,0.3,0C803.7,862.2,809.7,856.3,809.8,848.9C809.8,849,809.8,849,809.8,848.9z"/>
				<path class="st6" d="M797,393.1c7.3,0.2,13,6.2,12.8,13.4c-0.2,7.2-6.2,13-13.4,12.8c-7.1-0.2-12.8-6-12.8-13.1
					C783.6,398.9,789.6,393,797,393.1L797,393.1z"/>
				<path class="st6" d="M796.3,835.8c7.3,0.2,13,6.2,12.8,13.4c-0.2,7.3-6.2,13-13.4,12.8c-7.1-0.2-12.8-6-12.8-13.1
					C783,841.7,789,835.8,796.3,835.8L796.3,835.8z"/>
				<path class="st5" d="M741.1,388.3c9.9,0.2,17.7,8.4,17.5,18.3s-8.4,17.7-18.3,17.5c-9.7-0.2-17.5-8.2-17.5-17.9
					C722.9,396.2,731.1,388.2,741.1,388.3L741.1,388.3z M754.5,406.2c0.2-7.4-5.7-13.6-13.1-13.7c-7.4-0.2-13.6,5.7-13.7,13.1
					c-0.2,7.4,5.7,13.6,13.1,13.7c0.1,0,0.2,0,0.3,0C748.5,419.5,754.5,413.6,754.5,406.2C754.5,406.3,754.5,406.2,754.5,406.2z"/>
				<path class="st5" d="M740.6,831.1c10-0.1,18.2,7.9,18.3,17.9c-0.3,10.1-8.8,18.1-19,17.7c-9.7-0.3-17.4-8.1-17.7-17.7
					C722.4,838.9,730.6,830.9,740.6,831.1z M754,848.9c0.2-7.4-5.7-13.6-13.1-13.7c-7.4-0.2-13.6,5.7-13.7,13.1
					c-0.2,7.4,5.7,13.6,13.1,13.7c0.1,0,0.2,0,0.3,0C747.9,862.2,754,856.3,754,848.9C754,849,754,849,754,848.9z"/>
				<path class="st6" d="M741.1,393.1c7.3,0.2,13,6.2,12.8,13.4c-0.2,7.3-6.2,13-13.4,12.8c-7.1-0.2-12.8-6-12.8-13.1
					C727.8,398.9,733.8,393,741.1,393.1L741.1,393.1z"/>
				<path class="st6" d="M740.6,835.8c7.3,0.2,13,6.2,12.8,13.4c-0.2,7.3-6.2,13-13.4,12.8c-7.1-0.2-12.8-6-12.8-13.1
					C727.3,841.7,733.3,835.8,740.6,835.8L740.6,835.8z"/>
				<path class="st5" d="M685.3,388.3c9.9,0.2,17.7,8.4,17.5,18.3s-8.4,17.7-18.3,17.5c-9.7-0.2-17.5-8.2-17.5-17.9
					C667,396.2,675.2,388.2,685.3,388.3C685.2,388.3,685.3,388.3,685.3,388.3z M698.7,406.2c0.2-7.4-5.7-13.6-13.1-13.7
					c-7.4-0.2-13.6,5.7-13.7,13.1c-0.2,7.4,5.7,13.6,13.1,13.7c0.1,0,0.2,0,0.3,0C692.6,419.5,698.6,413.6,698.7,406.2
					C698.7,406.3,698.7,406.2,698.7,406.2z"/>
				<path class="st5" d="M684.9,831.1c10-0.1,18.2,7.9,18.3,17.9l0,0c-0.3,10.1-8.8,18.1-18.9,17.7c-9.7-0.3-17.4-8.1-17.7-17.7
					C666.7,839,674.9,830.9,684.9,831.1L684.9,831.1z M698.3,848.9c0.2-7.4-5.7-13.6-13.1-13.7c-7.4-0.2-13.6,5.7-13.7,13.1
					c-0.2,7.4,5.7,13.6,13.1,13.7c0.1,0,0.2,0,0.3,0C692.2,862.2,698.2,856.3,698.3,848.9C698.3,849,698.3,849,698.3,848.9z"/>
				<path class="st6" d="M685.3,393.1c7.3,0.2,13,6.2,12.8,13.4c-0.2,7.3-6.2,13-13.4,12.8c-7.1-0.2-12.8-6-12.8-13.1
					C671.9,398.9,677.9,393,685.3,393.1C685.2,393.1,685.3,393.1,685.3,393.1z"/>
				<path class="st6" d="M684.9,835.8c7.3,0.2,13,6.2,12.9,13.4c-0.2,7.3-6.2,13-13.4,12.9c-7.1-0.1-12.9-6-12.9-13.1
					C671.6,841.7,677.5,835.8,684.9,835.8z"/>
				<path class="st5" d="M629.4,388.3c9.9,0.2,17.7,8.4,17.5,18.3s-8.4,17.7-18.3,17.5c-9.7-0.2-17.5-8.2-17.5-17.9
					C611.2,396.2,619.4,388.2,629.4,388.3z M642.8,406.2c0.2-7.4-5.7-13.6-13.1-13.7s-13.6,5.7-13.7,13.1
					c-0.2,7.4,5.7,13.6,13.1,13.7c0.1,0,0.2,0,0.3,0C636.7,419.5,642.7,413.6,642.8,406.2C642.8,406.3,642.8,406.2,642.8,406.2z"/>
				<path class="st5" d="M629.2,831.1c10-0.1,18.2,7.9,18.3,17.9l0,0c-0.2,10.1-8.6,18.1-18.8,17.9c-9.8-0.2-17.7-8.1-17.9-17.9
					C610.9,838.9,619.1,830.9,629.2,831.1L629.2,831.1z M642.6,848.9c0.2-7.4-5.7-13.6-13.1-13.7c-7.4-0.2-13.6,5.7-13.7,13.1
					c-0.2,7.4,5.7,13.6,13.1,13.7c0.1,0,0.2,0,0.3,0C636.5,862.2,642.5,856.3,642.6,848.9C642.6,849,642.6,849,642.6,848.9z"/>
				<path class="st6" d="M629.4,393.1c7.3,0.2,13,6.2,12.8,13.4c-0.2,7.3-6.2,13-13.4,12.8c-7.1-0.2-12.8-6-12.8-13.1
					C616.1,398.9,622,393,629.4,393.1L629.4,393.1z"/>
				<path class="st6" d="M629.2,835.8c7.3,0.2,13,6.2,12.8,13.4c-0.2,7.3-6.2,13-13.4,12.8c-7.1-0.2-12.8-6-12.8-13.1
					C615.8,841.7,621.8,835.8,629.2,835.8C629.1,835.8,629.1,835.8,629.2,835.8z"/>
				<path class="st5" d="M573.6,388.3c9.9,0.2,17.7,8.5,17.5,18.3c-0.2,9.9-8.5,17.7-18.3,17.5c-9.7-0.2-17.5-8.2-17.5-17.9
					C555.3,396.2,563.5,388.2,573.6,388.3C573.5,388.3,573.6,388.3,573.6,388.3z M587,406.2c0.2-7.4-5.7-13.6-13.1-13.7
					c-7.4-0.2-13.6,5.7-13.7,13.1c-0.2,7.4,5.7,13.6,13.1,13.7c0.1,0,0.2,0,0.3,0C580.9,419.4,586.9,413.6,587,406.2
					C587,406.3,587,406.2,587,406.2z"/>
				<path class="st5" d="M573.4,831.1c10-0.1,18.2,7.9,18.3,17.9c-0.3,10.1-8.8,18.1-18.9,17.7c-9.7-0.3-17.4-8.1-17.7-17.7
					C555.2,838.9,563.4,830.9,573.4,831.1L573.4,831.1z M586.8,848.9c0.2-7.4-5.7-13.6-13.1-13.7c-7.4-0.2-13.6,5.7-13.7,13.1
					c-0.2,7.4,5.7,13.6,13.1,13.7c0.1,0,0.2,0,0.3,0C580.8,862.2,586.8,856.3,586.8,848.9C586.8,849,586.8,849,586.8,848.9z"/>
				<path class="st6" d="M573.6,393.1c7.3,0.2,13,6.2,12.8,13.4c-0.2,7.2-6.2,13-13.4,12.8c-7.1-0.2-12.8-6-12.8-13.1
					C560.2,398.9,566.2,393,573.6,393.1C573.5,393.1,573.5,393.1,573.6,393.1z"/>
				<path class="st6" d="M573.4,835.8c7.3,0.2,13,6.2,12.8,13.4c-0.2,7.3-6.2,13-13.4,12.8c-7.1-0.2-12.8-6-12.8-13.1
					C560.1,841.7,566.1,835.8,573.4,835.8L573.4,835.8z"/>
				<path class="st5" d="M517.7,831.1c10-0.1,18.2,7.9,18.3,17.9c-0.2,10.1-8.6,18.1-18.8,17.9c-9.8-0.2-17.7-8.1-17.9-17.9
					C499.5,838.9,507.7,830.9,517.7,831.1L517.7,831.1z M531.1,848.9c0.2-7.4-5.7-13.6-13.1-13.7c-7.4-0.2-13.6,5.7-13.7,13.1
					c-0.2,7.4,5.7,13.6,13.1,13.7c0.1,0,0.2,0,0.3,0C525,862.2,531,856.3,531.1,848.9C531.1,849,531.1,849,531.1,848.9z"/>
				<path class="st5" d="M517.7,388.3c9.9,0.2,17.7,8.4,17.5,18.3s-8.4,17.7-18.3,17.5c-9.7-0.2-17.5-8.2-17.5-17.9
					C499.5,396.2,507.7,388.2,517.7,388.3L517.7,388.3z M531.1,406.2c0.2-7.4-5.7-13.6-13.1-13.7s-13.6,5.7-13.7,13.1
					c-0.2,7.4,5.7,13.6,13.1,13.7c0.1,0,0.2,0,0.3,0C525,419.5,531,413.6,531.1,406.2C531.1,406.3,531.1,406.2,531.1,406.2z"/>
				<path class="st6" d="M517.7,835.8c7.3,0.2,13,6.2,12.8,13.4c-0.2,7.3-6.2,13-13.4,12.8c-7.1-0.2-12.8-6-12.8-13.1
					C504.3,841.7,510.3,835.8,517.7,835.8L517.7,835.8z"/>
				<path class="st6" d="M517.7,393.1c7.3,0.2,13,6.2,12.8,13.4c-0.2,7.2-6.2,13-13.4,12.8c-7.1-0.2-12.8-6-12.8-13.1
					C504.3,398.9,510.3,393,517.7,393.1C517.6,393.1,517.7,393.1,517.7,393.1z"/>
				<path class="st5" d="M462,831.1c10-0.1,18.2,7.9,18.3,17.9c-0.2,10.1-8.6,18.1-18.8,17.9c-9.8-0.2-17.7-8.1-17.9-17.9
					C443.8,839,451.9,830.9,462,831.1L462,831.1z M475.4,848.9c0.2-7.4-5.7-13.6-13.1-13.7c-7.4-0.2-13.6,5.7-13.7,13.1
					c-0.2,7.4,5.7,13.6,13.1,13.7c0.1,0,0.2,0,0.3,0C469.3,862.2,475.3,856.3,475.4,848.9C475.4,849,475.4,849,475.4,848.9
					L475.4,848.9z"/>
				<path class="st5" d="M461.8,388.3c9.9,0.2,17.7,8.4,17.5,18.3s-8.4,17.7-18.3,17.5c-9.7-0.2-17.5-8.2-17.5-17.9
					C443.6,396.2,451.8,388.2,461.8,388.3z M475.2,406.2c0.2-7.4-5.7-13.6-13.1-13.7s-13.6,5.7-13.7,13.1
					c-0.2,7.4,5.7,13.6,13.1,13.7c0.1,0,0.2,0,0.3,0C469.1,419.5,475.1,413.6,475.2,406.2C475.2,406.3,475.2,406.2,475.2,406.2z"/>
				<path class="st6" d="M462,835.8c7.3,0.2,13,6.2,12.8,13.4c-0.2,7.3-6.2,13-13.4,12.8c-7.1-0.2-12.8-6-12.8-13.1
					C448.6,841.7,454.6,835.8,462,835.8L462,835.8z"/>
				<path class="st6" d="M461.8,393.1c7.3,0.2,13,6.2,12.8,13.4c-0.2,7.2-6.2,13-13.4,12.8c-7.1-0.2-12.8-6-12.8-13.1
					C448.4,398.9,454.4,393,461.8,393.1L461.8,393.1z"/>
				<path class="st5" d="M406.2,831.1c10-0.1,18.2,7.9,18.3,17.9l0,0c-0.2,10.1-8.6,18.1-18.8,17.9c-9.8-0.2-17.7-8.1-17.9-17.9
					C388,838.9,396.2,830.9,406.2,831.1z M419.7,848.9c0.2-7.4-5.7-13.6-13.1-13.7c-7.4-0.2-13.6,5.7-13.7,13.1
					c-0.2,7.4,5.7,13.6,13.1,13.7c0.1,0,0.2,0,0.3,0C413.6,862.2,419.6,856.3,419.7,848.9C419.7,849,419.7,849,419.7,848.9z"/>
				<path class="st6" d="M406.2,835.8c7.3,0.2,13,6.2,12.8,13.4s-6.2,13-13.4,12.8c-7.1-0.2-12.8-6-12.8-13.1
					C392.9,841.7,398.9,835.8,406.2,835.8L406.2,835.8z"/>
				<path class="st5" d="M1324,790.9c-20.1,0-36.4,16.3-36.4,36.4c0,20.1,16.3,36.4,36.4,36.4s36.4-16.3,36.4-36.4
					C1360.5,807.2,1344.2,790.9,1324,790.9L1324,790.9z M1324,856.1c-15.9,0-28.7-12.9-28.7-28.7s12.9-28.7,28.7-28.7
					c15.9,0,28.7,12.9,28.7,28.7l0,0C1352.8,843.2,1339.9,856.1,1324,856.1L1324,856.1z"/>
				<path class="st5" d="M1324,385.8c-20.1,0-36.4,16.3-36.4,36.4c0,20.1,16.3,36.4,36.4,36.4s36.4-16.3,36.4-36.4
					C1360.5,402.1,1344.1,385.8,1324,385.8L1324,385.8z M1324,450.9c-15.9,0-28.7-12.9-28.7-28.7c0-15.9,12.9-28.7,28.7-28.7
					s28.7,12.9,28.7,28.7l0,0C1352.8,438.1,1339.9,450.9,1324,450.9L1324,450.9z"/>
				<polygon class="st7" points="792.8,451.1 467.6,451.1 449.2,469.6 449.2,794.4 792.8,794.4 				"/>
				<polygon class="st8" points="789,739.6 775.6,739.6 775.6,674.7 780.6,674.7 780.6,485 789,485 789,453.9 471.7,453.9 
					453.5,472.2 453.5,594 457.3,594 457.3,760 453.5,760 453.5,789.6 789,789.6 				"/>
				<rect x="466.5" y="470.9" class="st9" width="306.4" height="306.4"/>
				<path class="st10" d="M471.7,764.5v-281c0-4.2,3.4-7.6,7.6-7.6h281c4.2,0,7.6,3.4,7.6,7.6v281c0,4.2-3.4,7.6-7.6,7.6l0,0h-281
					C475.1,772.1,471.7,768.7,471.7,764.5L471.7,764.5z"/>
				<path class="st11" d="M473.1,759.2V486.6c0-4,3.3-7.3,7.3-7.3l0,0h274.7c4,0,7.3,3.3,7.3,7.3l0,0v272.6c0,4-3.3,7.3-7.3,7.3l0,0
					H480.5C476.5,766.5,473.2,763.2,473.1,759.2z"/>
				<path class="st6" d="M477,738.3V504c0-13.7,11.1-24.7,24.7-24.7l0,0h228.9c13.7,0,24.7,11.1,24.7,24.7v234.3
					c0,13.7-11.1,24.7-24.7,24.7l0,0H501.7C488.1,763,477,752,477,738.3L477,738.3z"/>
				<path class="st12" d="M444.3,752.9c3.3-0.5,5.6-3.6,5.1-6.9c-0.4-2.6-2.5-4.7-5.1-5.1v-6.1h11v24.8h-11V752.9z"/>
				<path class="st12" d="M602.6,800.3c0.5-3.3,3.6-5.6,6.9-5c2.6,0.4,4.6,2.4,5,5h6.1v-11h-24.8v11H602.6z"/>
				<path class="st12" d="M574.7,800.3c0.5-3.3,3.6-5.6,6.9-5c2.6,0.4,4.6,2.4,5,5h6.1v-11h-24.8v11H574.7z"/>
				<path class="st12" d="M546.8,800.3c0.5-3.3,3.6-5.6,6.9-5c2.6,0.4,4.6,2.4,5,5h6.1v-11H540v11H546.8z"/>
				<path class="st12" d="M518.8,800.3c0.5-3.3,3.6-5.6,6.9-5c2.6,0.4,4.6,2.4,5,5h6.1v-11H512v11H518.8z"/>
				<path class="st13" d="M528.1,530.8c0.3,0.6,0.5,1.3,0.5,2c0,0.9,0.1,3.5,0.1,4.4c0.7,0,2-0.1,2.9-0.1s3.2,0,6.9-0.1h0.2
					c1.9,0.1,3.5-1.3,3.6-3.2v-0.1c0.2-2.5-1.1-3.2-1.2-3.2c-1.7-0.7-3.6-1.1-5.4-1h-0.9C532.5,529.8,530.3,530.2,528.1,530.8z"/>
				<path class="st13" d="M524,528.3c0.6,0,1.2,0.1,1.8,0.3c0.7,0.3,1.3,0.7,1.8,1.1c2.2-0.7,4.6-1.1,6.9-1.4h1.4
					c1.6,0,3.3,0.2,4.8,0.7c0.3-0.2,0.6-0.5,0.8-0.8c0.5-0.5,0.8-1.2,0.9-1.9c0.2-1,0-2-0.5-2.9c-0.4-0.8-1.6-1.2-3.4-1.2h-1.9
					c-2,0-4,0.4-5.9,1.1C527.9,524.4,525.1,527.1,524,528.3z"/>
				<path class="st13" d="M516,528.2c0.8,0,1.7,0.1,2.5,0.4c0.7,0.4,1.3,0.9,1.8,1.5c0.2-0.3,0.4-0.6,0.7-0.8
					c0.4-0.4,0.8-0.6,1.4-0.8c0.2-0.2,1.5-1.7,2.8-2.9c2.1-1.8,4.5-3.2,7.1-4c1.6-0.5,3.3-0.7,5.1-0.7c1.4,0,2.4,0.1,2.7,0.1
					c1.1-0.8,1.9-2,2-3.4c0-2.7-1.1-3.4-5.5-3.6c-4.7-0.2-9.9,1.7-14.2,5.1C518.5,522,516.5,526.8,516,528.2L516,528.2z"/>
				<path class="st13" d="M534.8,538.3c0,0.7,0.1,2,0.1,2.9s0.1,4.5,0.1,6.3v0.8c-0.1,1.9,1.3,3.5,3.2,3.6h0.1h0.6
					c1,0.1,2-0.4,2.6-1.2c0.8-2,1.1-4.2,0.9-6.3c-0.2-2.3-0.6-4.5-1.2-6.7c-0.6,0.3-1.3,0.5-2,0.5
					C538.8,538.2,537.6,538.2,534.8,538.3z"/>
				<path class="st13" d="M542.9,550.2c0.2,0.3,0.5,0.6,0.8,0.8c0.5,0.5,1.2,0.8,1.9,0.9c0.3,0.1,0.7,0.1,1,0.1
					c0.7,0,1.3-0.1,1.9-0.5c0.8-0.4,1.2-1.6,1.2-3.4v-0.8c0.1-2.4-0.2-4.8-1-7.1c-1.2-2.6-2.9-5-5-7c0,0.6-0.1,1.2-0.3,1.8
					c-0.2,0.7-0.6,1.3-1.1,1.8c0.7,2.2,1.1,4.6,1.4,6.9C543.8,546,543.6,548.2,542.9,550.2z"/>
				<path class="st13" d="M551,549.5c0.8,1.1,2,1.9,3.4,2c2.8,0,3.5-1.1,3.7-5.5c0.1-5.2-1.7-10.3-5.1-14.2c-2.5-2.8-5.6-4.9-9-6.2
					c0,0.8-0.1,1.7-0.5,2.5c-0.3,0.7-0.8,1.3-1.5,1.8c0.3,0.2,0.6,0.4,0.8,0.7c0.4,0.4,0.6,0.9,0.8,1.4c0.3,0.3,1.7,1.6,2.9,2.8
					c1.8,2.1,3.2,4.5,4,7.1C551.2,544.3,551.3,546.9,551,549.5z"/>
				<path class="st13" d="M533.8,544.3c-0.7,0-2,0.1-2.9,0.1c-1.1,0-4.9,0.1-6.8,0.1h-0.3c-1.9-0.1-3.5,1.3-3.6,3.2v0.1
					c-0.2,2.6,1.2,3.2,1.2,3.2c2,0.8,4.2,1.1,6.3,0.9c2.3-0.2,4.5-0.6,6.7-1.2c-0.3-0.6-0.5-1.3-0.4-2c0-0.8-0.1-3-0.1-4.2v-0.2
					H533.8z"/>
				<path class="st13" d="M521.9,552.4c-0.3,0.2-0.6,0.5-0.8,0.8c-0.5,0.5-0.8,1.2-0.9,1.9c-0.2,1-0.1,2,0.4,2.9
					c0.5,0.8,1.6,1.2,3.4,1.2h1.9c2,0,4-0.4,5.9-1.1c2.6-1.2,5-2.9,7-5c-0.6,0-1.2-0.1-1.8-0.3c-0.7-0.2-1.3-0.6-1.8-1.1
					c-2.2,0.7-4.6,1.2-6.9,1.4h-1.4C525.3,553.1,523.6,552.9,521.9,552.4z"/>
				<path class="st13" d="M522.6,560.5c-1.1,0.8-1.9,2-2,3.4c0,2.7,1.1,3.4,5.5,3.6c4.7,0.2,9.9-1.7,14.2-5.1
					c2.8-2.5,4.9-5.6,6.2-9.1l0,0c-0.8,0-1.7-0.1-2.5-0.5c-0.7-0.3-1.3-0.8-1.8-1.5c-0.2,0.3-0.4,0.6-0.7,0.8
					c-0.4,0.4-0.8,0.6-1.4,0.8c-0.9,1-1.8,2-2.8,2.9c-2,1.8-4.5,3.2-7.1,4c-1.6,0.5-3.3,0.7-5.1,0.7
					C524,560.6,523,560.5,522.6,560.5z"/>
				<path class="st13" d="M523.6,529.7c-1-0.1-2,0.4-2.6,1.2c-0.8,2-1.1,4.2-0.9,6.3c0.2,2.3,0.6,4.5,1.2,6.7c0.6-0.3,1.3-0.5,2-0.5
					c0.4,0,1.5,0,4.4-0.1c0-0.6-0.1-2-0.1-2.9s0-3.2-0.1-6.9v-0.2c0.1-1.9-1.3-3.5-3.2-3.6h-0.1H523.6z"/>
				<path class="st13" d="M516.1,529.5c-0.7,0-1.3,0.1-1.9,0.4c-0.8,0.5-1.2,1.6-1.2,3.4v0.8c-0.1,2.4,0.2,4.8,1,7.1
					c1.2,2.6,2.9,5,5,7c0-0.6,0.1-1.2,0.3-1.8c0.2-0.7,0.6-1.3,1.1-1.8c-0.7-2.2-1.1-4.6-1.4-6.9c-0.2-2.1,0.1-4.2,0.7-6.2
					c-0.2-0.3-0.5-0.6-0.8-0.8c-0.5-0.5-1.2-0.8-1.9-0.9C516.7,529.5,516.4,529.4,516.1,529.5z"/>
				<path class="st13" d="M508.3,530.1c-2.7,0-3.4,1.1-3.6,5.5c-0.1,5.2,1.7,10.3,5.1,14.2c2.5,2.8,5.6,4.9,9,6.2
					c-0.1-0.9,0.1-1.7,0.5-2.5c0.3-0.7,0.8-1.3,1.5-1.8c-0.3-0.2-0.6-0.4-0.8-0.7c-0.4-0.4-0.6-0.9-0.8-1.4c-1-0.9-2-1.8-2.9-2.8
					c-1.8-2-3.2-4.5-4-7.1c-1-3-0.6-7.1-0.6-7.8C510.8,531,509.6,530.3,508.3,530.1L508.3,530.1z"/>
				<path class="st13" d="M593,518.9c1.6,0,3.2,0.3,4.7,0.9c1.4,0.5,2.6,1.3,3.6,2.4c2.1,2,3.2,4.8,3.2,7.7c0.1,2.1-0.4,4.2-1.5,6
					s-2.8,3.1-4.7,3.8v0.1c0.9,0.3,1.8,0.7,2.6,1.4c0.7,0.6,1.3,1.3,1.7,2.2c0.5,0.8,0.8,1.8,1,2.7c0.2,1,0.3,2,0.4,2.9
					c0,0.7,0.1,1.4,0.1,2.3c0,0.9,0.1,1.7,0.2,2.6c0.1,0.8,0.2,1.7,0.5,2.5c0.2,0.7,0.5,1.4,0.9,2H597c-0.5-1.5-0.8-3-0.9-4.5
					c-0.1-1.8-0.2-3.4-0.5-5c-0.3-2-0.9-3.6-1.9-4.5c-1.3-1.1-3-1.6-4.7-1.5h-8.7v15.5h-8.6V519L593,518.9z M589.9,536.7
					c1.6,0.1,3.2-0.4,4.5-1.4c1.1-1.2,1.6-2.7,1.5-4.3c0.2-1.5-0.4-3.1-1.5-4.2c-1-0.9-2.5-1.2-4.5-1.2h-9.5v11.1L589.9,536.7z"/>
				<path class="st13" d="M630.4,518.9l14.8,39.4h-9l-3-8.8h-14.8l-3,8.8h-8.7l14.8-39.4H630.4z M630.8,543l-5-14.5h-0.1l-5.2,14.5
					H630.8z"/>
				<path class="st13" d="M655.5,518.9v16.3l15.5-16.4h10.8l-15.5,15.6l16.9,23.8h-10.8l-11.9-17.7l-5,5.1v12.8h-8.7v-39.5
					L655.5,518.9L655.5,518.9z"/>
				<g class="st14">
					<path class="st13" d="M573,562.3h1.2v12.2H573V562.3z"/>
					<path class="st13" d="M584.4,570c0,2.5-1.5,4.7-4.2,4.7s-4.2-2.1-4.2-4.7s1.5-4.7,4.2-4.7S584.4,567.5,584.4,570z M577.1,570
						c0,1.9,1,3.8,3.1,3.8c2,0,3.1-1.9,3.1-3.8s-1-3.8-3.1-3.8C578.2,566.3,577.1,568.2,577.1,570z"/>
					<path class="st13" d="M584.9,562.3h9.6v1h-4.2v11.2h-1.2v-11.2h-4.2V562.3z"/>
					<path class="st13" d="M600.4,562.3h1.7l4.2,10.7l4.2-10.7h1.7v12.2H611v-10.5h0l-4.2,10.5h-1.1l-4.2-10.5h0v10.5h-1.2V562.3z"
						/>
					<path class="st13" d="M614.3,568.3c0.1-2.1,1.5-2.9,3.6-2.9c1.6,0,3.2,0.5,3.2,2.8v4.7c0,0.4,0.2,0.6,0.6,0.6
						c0.1,0,0.2,0,0.3-0.1v0.9c-0.3,0.1-0.4,0.1-0.7,0.1c-1.1,0-1.3-0.6-1.3-1.5h0c-0.8,1.1-1.5,1.8-3.2,1.8c-1.6,0-2.9-0.8-2.9-2.6
						c0-2.5,2.4-2.6,4.7-2.8c0.9-0.1,1.4-0.2,1.4-1.2c0-1.4-1-1.8-2.3-1.8c-1.3,0-2.3,0.6-2.4,2H614.3z M620,569.6L620,569.6
						c-0.2,0.3-0.6,0.3-0.9,0.4c-1.8,0.3-4.1,0.3-4.1,2c0,1.1,0.9,1.7,2,1.7c1.7,0,3.1-1,3.1-2.8V569.6z"/>
					<path class="st13" d="M631,574.4h-1v-1.7h0c-0.5,1.2-1.9,1.9-3.1,1.9c-2.7,0-4-2.1-4-4.7s1.3-4.7,4-4.7c1.3,0,2.6,0.7,3.1,1.9
						h0v-5h1.1V574.4z M626.8,573.8c2.3,0,3.1-1.9,3.1-3.8c0-1.8-0.8-3.8-3.1-3.8c-2,0-2.9,1.9-2.9,3.8
						C623.9,571.9,624.8,573.8,626.8,573.8z"/>
					<path class="st13" d="M633.7,570.3c0,1.6,0.9,3.5,2.9,3.5c1.6,0,2.4-0.9,2.8-2.3h1.1c-0.5,2-1.6,3.2-3.8,3.2
						c-2.8,0-4-2.1-4-4.7c0-2.3,1.2-4.7,4-4.7c2.8,0,4,2.5,3.9,4.9H633.7z M639.3,569.4c-0.1-1.6-1.1-3.1-2.8-3.1
						c-1.8,0-2.7,1.5-2.9,3.1H639.3z"/>
					<path class="st13" d="M646.8,562.3h8.4v1H648v4.4h6.8v1H648v4.8h7.3v1h-8.5V562.3z"/>
					<path class="st13" d="M656.6,568.3c0.1-2.1,1.5-2.9,3.6-2.9c1.6,0,3.2,0.5,3.2,2.8v4.7c0,0.4,0.2,0.6,0.6,0.6
						c0.1,0,0.2,0,0.3-0.1v0.9c-0.3,0.1-0.4,0.1-0.7,0.1c-1.1,0-1.3-0.6-1.3-1.5h0c-0.8,1.1-1.5,1.8-3.2,1.8c-1.6,0-2.9-0.8-2.9-2.6
						c0-2.5,2.4-2.6,4.7-2.8c0.9-0.1,1.4-0.2,1.4-1.2c0-1.4-1-1.8-2.3-1.8c-1.3,0-2.3,0.6-2.4,2H656.6z M662.3,569.6L662.3,569.6
						c-0.2,0.3-0.6,0.3-0.9,0.4c-1.8,0.3-4.1,0.3-4.1,2c0,1.1,0.9,1.7,2,1.7c1.7,0,3.1-1,3.1-2.8V569.6z"/>
					<path class="st13" d="M670.8,568.2c-0.1-1.3-1.1-1.9-2.3-1.9c-1,0-2.1,0.4-2.1,1.5c0,0.9,1.1,1.3,1.8,1.5l1.4,0.3
						c1.2,0.2,2.5,0.9,2.5,2.4c0,1.9-1.9,2.6-3.5,2.6c-2.1,0-3.4-0.9-3.6-3.1h1.1c0.1,1.4,1.2,2.2,2.6,2.2c1,0,2.4-0.4,2.4-1.7
						c0-1-1-1.4-1.9-1.6l-1.4-0.3c-1.4-0.4-2.5-0.9-2.5-2.4c0-1.8,1.8-2.5,3.3-2.5c1.8,0,3.1,0.9,3.2,2.8H670.8z"/>
					<path class="st13" d="M672.8,565.6h1.1l2.9,7.5l2.7-7.5h1.1l-3.8,10.1c-0.6,1.5-1,1.9-2.3,1.9c-0.4,0-0.6,0-0.8-0.1v-0.9
						c0.3,0.1,0.5,0.1,0.7,0.1c1,0,1.2-0.6,1.5-1.4l0.4-1L672.8,565.6z"/>
				</g>
				<g>
					<g class="st14">
						<path d="M586.7,668.1h5.9c5.3,0,8.3,2.7,8.3,8.2c0,5.8-2.5,9-8.3,9h-5.9V668.1z M588.9,683.4h3.8c1.6,0,5.8-0.4,5.8-6.8
							c0-4.1-1.5-6.6-5.7-6.6h-3.9V683.4z"/>
						<path d="M613.9,681.4c-0.6,2.8-2.5,4.2-5.3,4.2c-4,0-5.9-2.8-6-6.6c0-3.8,2.5-6.5,5.9-6.5c4.4,0,5.8,4.1,5.6,7.1h-9.3
							c-0.1,2.2,1.2,4.1,3.9,4.1c1.7,0,2.9-0.8,3.2-2.4H613.9z M612,677.9c-0.1-2-1.5-3.5-3.6-3.5c-2.1,0-3.4,1.6-3.6,3.5H612z"/>
						<path d="M621.9,685.3h-2.2l-4.6-12.5h2.3l3.5,10.4h0l3.4-10.4h2.1L621.9,685.3z"/>
						<path d="M628.6,668.1h11.9v1.9h-9.6v5.5h9v1.9h-9v6h9.7v1.9h-12V668.1z"/>
						<path d="M657.1,679.1c0,4.4-2.5,6.6-6.8,6.6c-4.4,0-7.1-2.1-7.1-6.6v-11h2.3v11c0,3.1,1.7,4.7,4.8,4.7c2.9,0,4.5-1.6,4.5-4.7
							v-11h2.3V679.1z"/>
						<path d="M660.9,668.1h2.3v17.2h-2.3V668.1z"/>
						<path d="M669.8,675.5h-2.7v-2.7h2.7V675.5z M667.2,682.7h2.7v2.7h-2.7V682.7z"/>
					</g>
					<g class="st14">
						<path d="M592.3,705.4c-0.2-1.3-1.1-2.2-2.5-2.2c-2.8,0-3.3,3.1-3.3,5.3h0c0.6-1.2,1.8-2,3.1-2c2.4,0,3.9,1.7,3.9,4
							c0,2.3-1.7,4-4,4c-2.9,0-4.1-1.7-4.1-6.3c0-1.4,0.4-5.9,4.2-5.9c2.1,0,3.4,1,3.6,3.1H592.3z M586.7,710.6c0,1.7,0.9,3,3,3
							c1.7,0,2.8-1.4,2.8-3c0-1.7-1-3.1-2.9-3.1C587.8,707.4,586.7,708.8,586.7,710.6z"/>
						<path d="M603,708.4c0,2.8-0.7,6.1-4.1,6.1c-3.5,0-4.1-3.3-4.1-6.1c0-2.8,0.7-6.1,4.1-6.1C602.3,702.3,603,705.6,603,708.4z
							 M595.8,708.4c0,2.1,0.4,5.2,3.1,5.2s3.1-3.1,3.1-5.2c0-2-0.4-5.2-3.1-5.2S595.8,706.3,595.8,708.4z"/>
						<path d="M613.6,705.8c-0.4-1.9-1.9-2.9-3.7-2.9c-3.2,0-4.6,2.7-4.6,5.3s1.4,5.3,4.6,5.3c2.2,0,3.7-1.7,3.9-3.9h1.2
							c-0.3,3-2.2,4.9-5,4.9c-3.8,0-5.7-3-5.7-6.3s1.9-6.3,5.7-6.3c2.3,0,4.5,1.4,4.9,3.9H613.6z"/>
						<path d="M617.2,710.9c0.1,1.6,1.3,2.7,2.9,2.7c1.8,0,3-1.5,3-3.2c0-1.7-1.3-3.1-3-3.1c-1.1,0-2,0.5-2.6,1.4h-0.9l1.2-6.1h5.9
							v1h-5.2l-0.8,3.9l0,0c0.6-0.7,1.6-1.1,2.5-1.1c2.4,0,4,1.7,4,4.1c0,2.3-1.8,4-4.1,4c-2.2,0-3.8-1.4-3.9-3.6H617.2z"/>
						<path d="M629.7,702.2h1.3l4.7,12.1h-1.2l-1.5-3.8h-5.5l-1.5,3.8h-1.2L629.7,702.2z M627.8,709.5h4.8l-2.3-6.2L627.8,709.5z"/>
						<path d="M641.9,707.9L641.9,707.9c1.5,0.4,2.4,1.5,2.4,3.1c0,2.4-1.8,3.6-4.1,3.6c-2.2,0-4.1-1.2-4.1-3.6
							c0.1-1.6,0.9-2.8,2.4-3v0c-1.2-0.4-1.9-1.3-1.9-2.6c0-2,1.8-3,3.6-3s3.6,0.9,3.6,3C643.9,706.5,643.1,707.5,641.9,707.9z
							 M643.3,710.9c0-1.7-1.4-2.6-3-2.6c-1.6-0.1-3,0.8-3,2.6c0,1.8,1.3,2.7,3,2.7S643.3,712.8,643.3,710.9z M642.8,705.3
							c0-1.4-1.1-2.1-2.5-2.1c-1.3,0-2.5,0.7-2.5,2.1c0,1.6,1.3,2.3,2.5,2.2C641.6,707.5,642.8,706.8,642.8,705.3z"/>
						<path d="M646.2,702.2h7.7v1h-6.5v4.4h5.8v1h-5.8v5.8h-1.2V702.2z"/>
						<path d="M655.3,702.2h7.7v1h-6.5v4.4h5.8v1h-5.8v5.8h-1.2V702.2z"/>
						<path d="M664.4,702.2h7.7v1h-6.5v4.4h5.8v1h-5.8v5.8h-1.2V702.2z"/>
						<path d="M673.4,702.2h8.3v1h-7.2v4.4h6.7v1h-6.7v4.8h7.3v1h-8.4V702.2z"/>
						<path d="M683.1,702.6h7.6v1c-1.5,1.5-4.5,5.2-4.8,10.7h-1.2c0.3-4,1.6-7,4.9-10.7h-6.5V702.6z"/>
						<path d="M698,707.9L698,707.9c1.5,0.4,2.4,1.5,2.4,3.1c0,2.4-1.8,3.6-4.1,3.6c-2.2,0-4.1-1.2-4.1-3.6c0.1-1.6,0.9-2.8,2.4-3v0
							c-1.2-0.4-1.9-1.3-1.9-2.6c0-2,1.8-3,3.6-3s3.6,0.9,3.6,3C700,706.5,699.2,707.5,698,707.9z M699.4,710.9c0-1.7-1.4-2.6-3-2.6
							c-1.6-0.1-3,0.8-3,2.6c0,1.8,1.3,2.7,3,2.7S699.4,712.8,699.4,710.9z M698.9,705.3c0-1.4-1.1-2.1-2.5-2.1
							c-1.3,0-2.5,0.7-2.5,2.1c0,1.6,1.3,2.3,2.5,2.2C697.7,707.5,698.9,706.8,698.9,705.3z"/>
						<path d="M703,711.4c0.2,1.3,1.1,2.2,2.5,2.2c2.8,0,3.3-3.1,3.3-5.3h0c-0.6,1.2-1.8,2-3.1,2c-2.4,0-3.9-1.7-3.9-4s1.7-4,4-4
							c2.9,0,4.1,1.7,4.1,6.3c0,1.4-0.4,5.9-4.2,5.9c-2.1,0-3.4-1-3.6-3.1H703z M708.5,706.2c0-1.7-0.9-3-3-3c-1.7,0-2.8,1.4-2.8,3
							c0,1.7,1,3.1,2.9,3.1C707.4,709.4,708.5,708,708.5,706.2z"/>
						<path d="M718.9,714.2h-7.8c0.1-3.5,3.7-4.4,5.7-6.4c0.7-0.7,1-1.3,1-2.2c0-1.5-1.2-2.4-2.7-2.4c-1.9,0-2.7,1.6-2.7,3.3h-1.1
							c-0.1-2.4,1.2-4.2,3.8-4.2c2.1,0,3.7,1.1,3.7,3.3c0,2-1.4,3.2-3,4.2c-1.2,0.8-3.3,1.8-3.6,3.4h6.6V714.2z"/>
						<path d="M724.6,702.2h1.3l4.7,12.1h-1.2l-1.5-3.8h-5.5l-1.5,3.8h-1.2L724.6,702.2z M722.8,709.5h4.8l-2.3-6.2L722.8,709.5z"/>
						<path d="M739.4,708.4c0,2.8-0.7,6.1-4.1,6.1c-3.5,0-4.1-3.3-4.1-6.1c0-2.8,0.7-6.1,4.1-6.1
							C738.7,702.3,739.4,705.6,739.4,708.4z M732.2,708.4c0,2.1,0.4,5.2,3.1,5.2s3.1-3.1,3.1-5.2c0-2-0.4-5.2-3.1-5.2
							S732.2,706.3,732.2,708.4z"/>
					</g>
				</g>
				<g class="st14">
					<path class="st13" d="M510,587.4h12.4c4,0,5.5,2.8,5.5,5.3c0,2.5-1.2,4.2-3.4,4.9v0.1c1.8,0.3,2.8,1.9,2.9,4.3
						c0.1,3.7,0.3,4.7,1,5.4h-3.1c-0.5-0.6-0.5-1.4-0.6-3.8c-0.2-3.6-1.4-4.7-3.9-4.7H513v8.5h-3V587.4z M521.3,596.4
						c2.9,0,3.6-1.7,3.6-3.2c0-1.9-1.2-3.2-3.5-3.2H513v6.4H521.3z"/>
					<path class="st13" d="M544.5,601.6h-9.8l-2.6,5.8H529l9.1-20h3.4l9.1,20h-3.4L544.5,601.6z M539.6,590.2l-3.8,8.9h7.6
						L539.6,590.2z"/>
					<path class="st13" d="M559.3,597.7l-3.6,3.2v6.5h-3v-20h3v10.1l11.2-10.1h4.2l-9.5,8.3l10.1,11.7h-4.1L559.3,597.7z"/>
					<path class="st13" d="M582.9,602.7h-10.2v-2.6l10.6-12.7h2.5v12.9h3.4v2.4h-3.4v4.7h-2.8V602.7z M582.9,591.3L582.9,591.3
						l-7.4,9h7.4V591.3z"/>
					<path class="st13" d="M591.7,594.6c0-4.1,2.4-7,7.7-7c5.1,0,7.4,2.7,7.4,6.3c0,6.9-9.5,6.6-11.8,11.1h11.8v2.6h-15.4
						c0.6-9.2,12.5-8,12.5-13.7c0-2.8-1.9-3.9-4.2-3.9c-3.5,0-5,1.9-5.1,4.7H591.7z"/>
					<path class="st13" d="M623.3,592.6c-0.3-1.8-2-2.7-3.9-2.7c-3.2,0-5.6,1.3-5.9,7.1h0.1c0.8-1.3,2.9-2.6,5.7-2.6
						c3.4,0,7.5,1.6,7.5,6.7c0,2.9-2.1,6.8-7.8,6.8c-6,0-8.3-3.6-8.3-9.8c0-10.2,6.2-10.6,8.9-10.6c2.4,0,6,1,6.6,5.1H623.3z
						 M618.9,596.8c-3.4,0-4.9,2-4.9,4.4s1.5,4.4,4.9,4.4c3.4,0,4.9-2,4.9-4.4S622.3,596.8,618.9,596.8z"/>
					<path class="st13" d="M637.3,587.5c6.2,0,8.1,4.6,8.1,10.2s-1.9,10.2-8.1,10.2s-8.1-4.6-8.1-10.2S631.1,587.5,637.3,587.5z
						 M637.3,589.9c-4.8,0-5.1,5.5-5.1,7.8s0.3,7.8,5.1,7.8s5.1-5.5,5.1-7.8S642.1,589.9,637.3,589.9z"/>
					<path class="st13" d="M664.5,612.8c-3.7-3.9-5.6-8-5.6-12.7c0-4.7,1.9-8.8,5.6-12.7h2.1c-2.6,2.7-4.9,7.4-4.9,12.7
						c0,5.3,2.3,10,4.9,12.7H664.5z"/>
					<path class="st13" d="M686.3,598h-13.6v9.4h-3v-20h3v8h13.6v-8h3v20h-3V598z"/>
					<path class="st13" d="M692.2,612.8c2.6-2.7,4.9-7.4,4.9-12.7c0-5.3-2.4-10-4.9-12.7h2.1c3.7,3.9,5.6,8,5.6,12.7
						c0,4.7-1.9,8.8-5.6,12.7H692.2z"/>
				</g>
				<path class="st12" d="M795.4,505.2c-3.3-0.5-5.6-3.6-5.1-6.9c0.4-2.6,2.5-4.7,5.1-5.1v-6h-11V512h11V505.2z"/>
				<path class="st12" d="M795.4,533.1c-3.3-0.5-5.6-3.6-5.1-6.9c0.4-2.6,2.5-4.7,5.1-5.1V515h-11v24.8h11V533.1z"/>
				<path class="st12" d="M795.4,561.1c-3.3-0.5-5.6-3.6-5.1-6.9c0.4-2.6,2.5-4.7,5.1-5.1V543h-11v24.8h11V561.1z"/>
				<path class="st12" d="M795.4,589c-3.3-0.5-5.6-3.6-5-6.9c0.4-2.6,2.4-4.6,5-5V571h-11v24.8h11V589z"/>
				<path class="st12" d="M795.4,616.9c-3.3-0.5-5.6-3.6-5-6.9c0.4-2.6,2.4-4.6,5-5v-6.1h-11v24.8h11V616.9z"/>
				<path class="st12" d="M795.4,644.9c-3.3-0.5-5.6-3.6-5-6.9c0.4-2.6,2.4-4.6,5-5v-6.1h-11v24.8h11V644.9z"/>
				<path class="st12" d="M795.4,672.8c-3.3-0.5-5.6-3.6-5-6.9c0.4-2.6,2.4-4.6,5-5v-6.1h-11v24.8h11V672.8z"/>
				<path class="st12" d="M795.4,700.8c-3.3-0.5-5.6-3.6-5-6.9c0.4-2.6,2.4-4.6,5-5v-6.1h-11v24.8h11V700.8z"/>
				<path class="st12" d="M795.4,728.7c-3.3-0.5-5.6-3.6-5-6.9c0.4-2.6,2.4-4.6,5-5v-6.1h-11v24.8h11V728.7z"/>
				<path class="st12" d="M444.3,529.4c3.3-0.4,5.7-3.5,5.2-6.8c-0.4-2.7-2.5-4.9-5.2-5.2v-6.1h11v24.8h-11V529.4z"/>
				<path class="st12" d="M444.3,557.2c3.3-0.5,5.6-3.6,5-6.9c-0.4-2.6-2.4-4.6-5-5v-6.1h11V564h-11V557.2z"/>
				<path class="st12" d="M444.3,585.1c3.3-0.5,5.6-3.6,5-6.9c-0.4-2.6-2.4-4.6-5-5v-6.1h11v24.8h-11V585.1z"/>
				<path class="st12" d="M444.3,613.2c3.3-0.5,5.6-3.6,5.1-6.9c-0.4-2.6-2.5-4.7-5.1-5.1v-6.1h11v24.8h-11V613.2z"/>
				<path class="st12" d="M444.3,641c3.3-0.5,5.6-3.6,5-6.9c-0.4-2.6-2.4-4.6-5-5V623h11v24.8h-11V641z"/>
				<path class="st12" d="M444.3,669.1c3.3-0.5,5.6-3.6,5-6.9c-0.4-2.6-2.4-4.6-5-5v-6.1h11v24.8h-11V669.1z"/>
				<path class="st12" d="M444.3,697c3.3-0.6,5.5-3.7,5-7c-0.4-2.5-2.4-4.5-5-5v-6.1h11v24.8h-11V697z"/>
				<path class="st12" d="M444.3,725c3.3-0.5,5.6-3.6,5-6.9c-0.4-2.6-2.4-4.6-5-5V707h11v24.8h-11V725z"/>
				<path class="st12" d="M710.1,448.4c0.5,3.3,3.6,5.6,6.9,5c2.6-0.4,4.6-2.4,5-5h6.1v11h-24.8v-11H710.1z"/>
				<path class="st12" d="M682.1,448.4c0.5,3.3,3.6,5.6,6.9,5c2.6-0.4,4.6-2.4,5-5h6.1v11h-24.8v-11H682.1z"/>
				<path class="st12" d="M654.2,448.4c0.5,3.3,3.6,5.6,6.9,5c2.6-0.4,4.6-2.4,5-5h6.1v11h-24.8v-11H654.2z"/>
				<path class="st12" d="M626.3,448.4c0.5,3.3,3.6,5.6,6.9,5c2.6-0.4,4.6-2.4,5-5h6.1v11h-24.8v-11H626.3z"/>
				<path class="st12" d="M598.3,448.4c0.5,3.3,3.6,5.6,6.9,5c2.6-0.4,4.6-2.4,5-5h6.1v11h-24.8v-11H598.3z"/>
				<path class="st12" d="M570.4,448.4c0.5,3.3,3.6,5.6,6.9,5c2.6-0.4,4.6-2.4,5-5h6.1v11h-24.8v-11H570.4z"/>
				<path class="st12" d="M542.4,448.4c0.5,3.3,3.6,5.6,6.9,5c2.6-0.4,4.6-2.4,5-5h6.1v11h-24.8v-11H542.4z"/>
				<path class="st12" d="M514.5,448.4c0.5,3.3,3.6,5.6,6.9,5.1c2.6-0.4,4.7-2.5,5.1-5.1h6.1v11h-24.8v-11H514.5z"/>
				<path class="st12" d="M486.5,448.4c0.5,3.3,3.6,5.6,6.9,5.1c2.6-0.4,4.7-2.5,5.1-5.1h6.1v11h-24.8v-11H486.5z"/>
				<path class="st12" d="M742.4,800.3c0.5-3.3,3.6-5.6,6.9-5c2.6,0.4,4.6,2.4,5,5h6.1v-11h-24.8v11H742.4z"/>
				<path class="st12" d="M714.4,800.3c0.5-3.3,3.6-5.6,6.9-5c2.6,0.4,4.6,2.4,5,5h6.1v-11h-24.8v11H714.4z"/>
				<path class="st12" d="M686.5,800.3c0.5-3.3,3.6-5.6,6.9-5c2.6,0.4,4.6,2.4,5,5h6.1v-11h-24.8v11H686.5z"/>
				<path class="st12" d="M658.5,800.3c0.5-3.3,3.6-5.6,6.9-5c2.6,0.4,4.6,2.4,5,5h6.1v-11h-24.8v11H658.5z"/>
				<path class="st12" d="M630.6,800.3c0.5-3.3,3.6-5.6,6.9-5c2.6,0.4,4.6,2.4,5,5h6.1v-11h-24.8v11H630.6z"/>
				<rect x="550.9" y="644" class="st15" width="23.4" height="23.4"/>
				<rect x="557.2" y="650" class="st13" width="10.1" height="10.1"/>
				<rect x="503" y="644" class="st15" width="23.4" height="23.4"/>
				<rect x="509.2" y="650" class="st13" width="10.1" height="10.1"/>
				<rect x="502.9" y="692" class="st15" width="23.4" height="23.4"/>
				<rect x="509.3" y="698.1" class="st13" width="10.1" height="10.1"/>
				<rect x="544.3" y="644" class="st13" width="2.3" height="2.3"/>
				<rect x="537.5" y="646.7" class="st13" width="2.3" height="2.3"/>
				<rect x="537.5" y="672" class="st13" width="2.3" height="2.3"/>
				<rect x="561.1" y="705.8" class="st13" width="2.3" height="2.3"/>
				<rect x="557.2" y="713.2" class="st13" width="2.3" height="2.3"/>
				<rect x="550.8" y="713.2" class="st13" width="2.3" height="2.3"/>
				<rect x="544.3" y="650.7" class="st13" width="2.3" height="2.3"/>
				<rect x="513.4" y="685.5" class="st13" width="2.3" height="2.3"/>
				<rect x="537.4" y="665.1" class="st13" width="2.3" height="2.3"/>
				<rect x="530.4" y="644" class="st13" width="2.8" height="6"/>
				<rect x="568.2" y="671.2" class="st13" width="5.3" height="3.1"/>
				<rect x="571.4" y="672" class="st13" width="2" height="5.2"/>
				<rect x="520.3" y="685.2" class="st13" width="53.2" height="2.7"/>
				<rect x="568.2" y="695.7" class="st13" width="5.3" height="2.3"/>
				<rect x="568.2" y="686" class="st13" width="2.6" height="10.9"/>
				<rect x="571.5" y="696.2" class="st13" width="2" height="5.4"/>
				<rect x="540.8" y="713.2" class="st13" width="5.8" height="2.3"/>
				<rect x="558.3" y="674.6" class="st13" width="5.1" height="6.8"/>
				<rect x="561.1" y="679.4" class="st13" width="2.3" height="8.6"/>
				<rect x="510.2" y="678" class="st13" width="57.1" height="2.6"/>
				<rect x="537.5" y="686" class="st13" width="2.3" height="15.7"/>
				<rect x="530.4" y="695.8" class="st13" width="8.9" height="2.3"/>
				<rect x="530.4" y="674.4" class="st13" width="6.1" height="13.5"/>
				<rect x="540.3" y="674.6" class="st13" width="2.7" height="13.4"/>
				<rect x="546.9" y="678" class="st13" width="3.1" height="9.2"/>
				<rect x="554.2" y="679.4" class="st13" width="2.5" height="7.8"/>
				<rect x="547.5" y="671.2" class="st13" width="12.6" height="3.3"/>
				<rect x="550" y="672.9" class="st13" width="3.1" height="7.8"/>
				<rect x="526.3" y="674.3" class="st13" width="8.5" height="5.7"/>
				<rect x="520.3" y="671.2" class="st13" width="6.1" height="3.1"/>
				<rect x="540.6" y="657.1" class="st13" width="6" height="6.8"/>
				<rect x="543.7" y="660.5" class="st13" width="3.1" height="10.7"/>
				<rect x="530.9" y="657.1" class="st13" width="15.8" height="3.4"/>
				<rect x="530.4" y="657.9" class="st13" width="6.1" height="6.1"/>
				<rect x="530.4" y="660.1" class="st13" width="2.8" height="31.4"/>
				<rect x="510.2" y="671.2" class="st13" width="2.3" height="9.5"/>
				<rect x="503" y="671.2" class="st13" width="2.6" height="6"/>
				<rect x="502.9" y="671.2" class="st13" width="10" height="1.9"/>
				<rect x="503" y="684.5" class="st13" width="6.3" height="2.7"/>
				<rect x="506.1" y="681.2" class="st13" width="3.2" height="5.9"/>
				<rect x="530.4" y="705.2" class="st13" width="5.4" height="10.3"/>
				<rect x="533.7" y="701.7" class="st13" width="2.3" height="13.8"/>
				<rect x="533.1" y="708.6" class="st13" width="6.7" height="3.5"/>
				<rect x="550.8" y="698.9" class="st13" width="6" height="9.6"/>
				<rect x="543.6" y="695.2" class="st13" width="9.5" height="3.8"/>
				<rect x="546.9" y="692.1" class="st13" width="3.1" height="6"/>
				<rect x="554.3" y="686.6" class="st13" width="6.6" height="4.8"/>
				<rect x="553.8" y="686.6" class="st13" width="3" height="8.6"/>
				<rect x="560.1" y="691.4" class="st13" width="3.3" height="6.6"/>
				<rect x="556.8" y="695.1" class="st13" width="6.6" height="3.9"/>
				<rect x="556.7" y="697" class="st13" width="3.3" height="4.7"/>
				<rect x="540.3" y="705.2" class="st13" width="16.5" height="3.4"/>
				<rect x="547.5" y="707" class="st13" width="2.5" height="5.1"/>
				<rect x="553.8" y="707" class="st13" width="3" height="5.1"/>
				<rect x="567.3" y="705.8" class="st13" width="6.2" height="2.8"/>
				<rect x="564.4" y="712.1" class="st13" width="9.1" height="2.9"/>
				<rect x="564.4" y="708.6" class="st13" width="2.9" height="6.3"/>
				<rect x="570.9" y="705.8" class="st13" width="2.6" height="9.1"/>
				<g id="Resistor">
					<g>
						<g>
							<defs>
								<rect id="SVGID_1_" x="307.8" y="676.2" width="40" height="17.7"/>
							</defs>
							<clipPath id="SVGID_2_">
								<use xlink:href="#SVGID_1_"  style="overflow:visible;"/>
							</clipPath>
							<g class="st16">
								<g>
									<g>
										<defs>
											<rect id="SVGID_3_" x="307.8" y="676.2" width="40" height="17.7"/>
										</defs>
										<clipPath id="SVGID_4_">
											<use xlink:href="#SVGID_3_"  style="overflow:visible;"/>
										</clipPath>
										<g class="st17">
											<path class="st18" d="M343.3,693.9h-31.1c-2.3,0.1-4.3-1.7-4.4-4v-9.5c0.1-2.3,2.1-4.1,4.4-4h31.1c2.3-0.1,4.3,1.7,4.4,4
												v9.5c-0.1,2.3-2,4.1-4.3,4C343.3,693.9,343.3,693.9,343.3,693.9"/>
											<rect x="318.6" y="676.2" class="st19" width="18.3" height="17.7"/>
										</g>
									</g>
								</g>
							</g>
						</g>
					</g>
				</g>
				<g id="Resistor-2">
					<g>
						<g>
							<defs>
								<rect id="SVGID_5_" x="307.8" y="714.3" width="40" height="17.7"/>
							</defs>
							<clipPath id="SVGID_6_">
								<use xlink:href="#SVGID_5_"  style="overflow:visible;"/>
							</clipPath>
							<g class="st20">
								<g>
									<g>
										<defs>
											<rect id="SVGID_7_" x="307.8" y="714.3" width="40" height="17.7"/>
										</defs>
										<clipPath id="SVGID_8_">
											<use xlink:href="#SVGID_7_"  style="overflow:visible;"/>
										</clipPath>
										<g class="st21">
											<path class="st18" d="M343.3,732h-31.1c-2.4,0.1-4.3-1.7-4.4-4.1v-9.5c0.1-2.4,2.1-4.2,4.4-4.1h31.1
												c2.4-0.1,4.3,1.7,4.4,4.1v9.5c-0.1,2.3-2,4.1-4.3,4.1C343.4,732,343.3,732,343.3,732"/>
											<rect x="318.6" y="714.3" class="st19" width="18.3" height="17.7"/>
										</g>
									</g>
								</g>
							</g>
						</g>
					</g>
				</g>
				<g id="Resistor-3">
					<g>
						<g>
							<defs>
								<rect id="SVGID_9_" x="935.1" y="726.9" width="50" height="20.8"/>
							</defs>
							<clipPath id="SVGID_10_">
								<use xlink:href="#SVGID_9_"  style="overflow:visible;"/>
							</clipPath>
							<g class="st22">
								<g>
									<g>
										<defs>
											<rect id="SVGID_11_" x="935.1" y="726.9" width="50" height="20.8"/>
										</defs>
										<clipPath id="SVGID_12_">
											<use xlink:href="#SVGID_11_"  style="overflow:visible;"/>
										</clipPath>
										<g class="st23">
											<path class="st18" d="M979.6,747.8h-38.9c-3.1,0-5.5-2.2-5.5-4.8v-11.1c0-2.7,2.5-4.8,5.5-4.8h38.9
												c3.1,0,5.5,2.2,5.5,4.8V743C985.2,745.6,982.7,747.8,979.6,747.8"/>
											<rect x="948.7" y="726.9" class="st19" width="22.9" height="20.8"/>
										</g>
									</g>
								</g>
							</g>
						</g>
					</g>
				</g>
				<g id="Resistor-4">
					<g>
						<g>
							<defs>
								<rect id="SVGID_13_" x="935.1" y="693.8" width="50" height="20.8"/>
							</defs>
							<clipPath id="SVGID_14_">
								<use xlink:href="#SVGID_13_"  style="overflow:visible;"/>
							</clipPath>
							<g class="st24">
								<g>
									<g>
										<defs>
											<rect id="SVGID_15_" x="935.1" y="693.8" width="50" height="20.8"/>
										</defs>
										<clipPath id="SVGID_16_">
											<use xlink:href="#SVGID_15_"  style="overflow:visible;"/>
										</clipPath>
										<g class="st25">
											<path class="st18" d="M979.6,714.6h-38.9c-3.1,0-5.5-2.2-5.5-4.8v-11.1c0-2.7,2.5-4.8,5.5-4.8h38.9
												c3.1,0,5.5,2.2,5.5,4.8v11.1C985.2,712.5,982.7,714.6,979.6,714.6"/>
											<rect x="948.7" y="693.8" class="st19" width="22.9" height="20.8"/>
										</g>
									</g>
								</g>
							</g>
						</g>
					</g>
				</g>
				<g id="Resistor-5">
					<g>
						<g>
							<defs>
								<rect id="SVGID_17_" x="935.1" y="656.5" width="50" height="20.8"/>
							</defs>
							<clipPath id="SVGID_18_">
								<use xlink:href="#SVGID_17_"  style="overflow:visible;"/>
							</clipPath>
							<g class="st26">
								<g>
									<g>
										<defs>
											<rect id="SVGID_19_" x="935.1" y="656.5" width="50" height="20.8"/>
										</defs>
										<clipPath id="SVGID_20_">
											<use xlink:href="#SVGID_19_"  style="overflow:visible;"/>
										</clipPath>
										<g class="st27">
											<path class="st18" d="M979.6,677.4h-38.9c-3.1,0-5.5-2.2-5.5-4.8v-11.1c0-2.7,2.5-4.8,5.5-4.8h38.9
												c3.1,0,5.5,2.2,5.5,4.8v11.1C985.2,675.2,982.7,677.4,979.6,677.4"/>
											<rect x="948.7" y="656.5" class="st19" width="22.9" height="20.8"/>
										</g>
									</g>
								</g>
							</g>
						</g>
					</g>
				</g>
				<g id="Resistor-6">
					<g>
						<g>
							<defs>
								<rect id="SVGID_21_" x="935.1" y="622.5" width="50" height="20.8"/>
							</defs>
							<clipPath id="SVGID_22_">
								<use xlink:href="#SVGID_21_"  style="overflow:visible;"/>
							</clipPath>
							<g class="st28">
								<g>
									<g>
										<defs>
											<rect id="SVGID_23_" x="935.1" y="622.5" width="50" height="20.8"/>
										</defs>
										<clipPath id="SVGID_24_">
											<use xlink:href="#SVGID_23_"  style="overflow:visible;"/>
										</clipPath>
										<g class="st29">
											<path class="st18" d="M979.6,643.3h-38.9c-3.1,0-5.5-2.2-5.5-4.8v-11.1c0-2.7,2.5-4.8,5.5-4.8h38.9
												c3.1,0,5.5,2.2,5.5,4.8v11.1C985.2,641.2,982.7,643.4,979.6,643.3"/>
											<rect x="948.7" y="622.5" class="st19" width="22.9" height="20.8"/>
										</g>
									</g>
								</g>
							</g>
						</g>
					</g>
				</g>
				<g id="Resistor-7">
					<g>
						<g>
							<defs>
								<rect id="SVGID_25_" x="1179.3" y="459.7" width="17.3" height="37.7"/>
							</defs>
							<clipPath id="SVGID_26_">
								<use xlink:href="#SVGID_25_"  style="overflow:visible;"/>
							</clipPath>
							<g class="st30">
								<g>
									<g>
										<defs>
											<rect id="SVGID_27_" x="1179.3" y="459.7" width="17.3" height="37.7"/>
										</defs>
										<clipPath id="SVGID_28_">
											<use xlink:href="#SVGID_27_"  style="overflow:visible;"/>
										</clipPath>
										<g class="st31">
											<path class="st18" d="M1196.5,463.9v29.3c0.1,2.3-1.7,4.1-4,4.2l0,0h-9.2c-2.3,0-4.1-1.9-4-4.1l0,0v-29.4
												c-0.1-2.3,1.7-4.1,4-4.2l0,0h9.2c2.2,0,4,1.8,4,4C1196.5,463.8,1196.5,463.8,1196.5,463.9"/>
											<rect x="1179.3" y="469.9" class="st19" width="17.3" height="17.3"/>
										</g>
									</g>
								</g>
							</g>
						</g>
					</g>
				</g>
				<g id="Resistor-8">
					<g>
						<g>
							<defs>
								<rect id="SVGID_29_" x="1310" y="474.7" width="37.7" height="17.3"/>
							</defs>
							<clipPath id="SVGID_30_">
								<use xlink:href="#SVGID_29_"  style="overflow:visible;"/>
							</clipPath>
							<g class="st32">
								<g>
									<g>
										<defs>
											<rect id="SVGID_31_" x="1310" y="474.7" width="37.7" height="17.3"/>
										</defs>
										<clipPath id="SVGID_32_">
											<use xlink:href="#SVGID_31_"  style="overflow:visible;"/>
										</clipPath>
										<g class="st33">
											<path class="st18" d="M1314.2,474.7h29.4c2.3-0.1,4.1,1.7,4.2,4l0,0v9.2c-0.1,2.3-1.9,4-4.2,4h-29.4
												c-2.3,0.1-4.1-1.7-4.2-4v-9.2c0-2.2,1.8-4,4-4C1314.1,474.7,1314.2,474.7,1314.2,474.7"/>
											<rect x="1320.2" y="474.7" class="st19" width="17.3" height="17.3"/>
										</g>
									</g>
								</g>
							</g>
						</g>
					</g>
				</g>
				<rect x="1009.4" y="642.3" class="st34" width="16.6" height="10.9"/>
				<rect x="1009.5" y="705.9" class="st34" width="16.6" height="10.9"/>
				<rect x="1013.6" y="652" class="st34" width="8.8" height="63.2"/>
				<rect x="1013.6" y="704.9" class="st35" width="8.8" height="6.8"/>
				<rect x="1013.6" y="653.2" class="st35" width="8.8" height="6.8"/>
				<rect x="1030" y="705.9" class="st34" width="16.6" height="10.9"/>
				<rect x="1034.1" y="674.7" class="st34" width="8.8" height="40.5"/>
				<rect x="1034.1" y="704.9" class="st35" width="8.8" height="6.8"/>
				<rect x="1051.6" y="642.3" class="st34" width="16.6" height="10.9"/>
				<rect x="1051.6" y="705.9" class="st34" width="16.6" height="10.9"/>
				<rect x="1055.7" y="652" class="st34" width="8.8" height="63.2"/>
				<rect x="1055.7" y="704.9" class="st35" width="8.8" height="6.8"/>
				<rect x="1055.7" y="653.2" class="st35" width="8.8" height="6.8"/>
				<path class="st36" d="M1006.6,663h65.4c1.2,0,2.1,0.9,2.1,2.1v31.4c0,1.2-0.9,2.1-2.1,2.1h-65.4c-1.2,0-2.1-0.9-2.1-2.1v-31.4
					C1004.5,664,1005.4,663,1006.6,663z"/>
				<path class="st37" d="M1008.9,668.4h61.5c1.2,0,2.1,0.9,2.1,2.1v23.8c0,1.2-0.9,2.1-2.1,2.1h-61.5c-1.2,0-2.1-0.9-2.1-2.1v-23.8
					C1006.8,669.3,1007.7,668.4,1008.9,668.4z"/>
				<rect x="1075.6" y="490.5" class="st34" width="12" height="16.6"/>
				<rect x="1145.8" y="490.5" class="st34" width="12.1" height="16.6"/>
				<rect x="1086.4" y="494.1" class="st34" width="69.8" height="8.8"/>
				<rect x="1144.8" y="494.1" class="st35" width="7.5" height="8.8"/>
				<rect x="1087.7" y="494.1" class="st35" width="7.5" height="8.8"/>
				<rect x="1145.8" y="470" class="st34" width="12.1" height="16.6"/>
				<rect x="1111.4" y="473.6" class="st34" width="44.7" height="8.8"/>
				<rect x="1144.8" y="473.6" class="st35" width="7.5" height="8.8"/>
				<rect x="1075.6" y="448.4" class="st34" width="12" height="16.6"/>
				<rect x="1145.8" y="448.4" class="st34" width="12.1" height="16.6"/>
				<rect x="1086.4" y="452" class="st34" width="69.8" height="8.8"/>
				<rect x="1144.8" y="452" class="st35" width="7.5" height="8.8"/>
				<rect x="1087.7" y="452" class="st35" width="7.5" height="8.8"/>
				<path class="st36" d="M1098.5,509.9v-65.2c0-1.2,1-2.2,2.2-2.2h34.9c1.2,0,2.2,1,2.2,2.2v65.2c0,1.2-1,2.2-2.2,2.2h-34.9
					C1099.5,512.1,1098.5,511.1,1098.5,509.9z"/>
				<path class="st37" d="M1104.4,507.6v-61.2c0-1.2,1-2.2,2.2-2.2h26.5c1.2,0,2.2,1,2.2,2.2v61.2c0,1.2-1,2.2-2.2,2.2h-26.5
					C1105.4,509.8,1104.4,508.8,1104.4,507.6z"/>
				<rect x="1087.6" y="601.3" class="st34" width="12.1" height="16.6"/>
				<rect x="1051" y="604.9" class="st34" width="46.9" height="8.8"/>
				<rect x="1086.5" y="604.9" class="st35" width="7.5" height="8.8"/>
				<rect x="1030" y="580.7" class="st34" width="12" height="16.6"/>
				<rect x="1031.7" y="584.9" class="st34" width="44.7" height="8.8"/>
				<rect x="1035.5" y="584.9" class="st35" width="7.5" height="8.8"/>
				<rect x="1087.6" y="559.1" class="st34" width="12.1" height="16.6"/>
				<rect x="1051" y="562.7" class="st34" width="46.9" height="8.8"/>
				<rect x="1086.5" y="562.7" class="st35" width="7.5" height="8.8"/>
				<path class="st36" d="M1049.2,620.9v-65.7c0-1.1,0.9-1.9,1.9-1.9h26.5c1.1,0,1.9,0.9,1.9,1.9v65.7c0,1.1-0.9,1.9-1.9,1.9h-26.5
					C1050.1,622.8,1049.2,621.9,1049.2,620.9z"/>
				<path class="st37" d="M1053.8,618.6v-61.8c0-1.1,0.9-1.9,1.9-1.9h20c1.1,0,1.9,0.9,1.9,1.9v61.8c0,1.1-0.9,1.9-1.9,1.9h-20
					C1054.6,620.5,1053.8,619.7,1053.8,618.6z"/>
				<g id="Capacitor">
					<g>
						<g>
							<defs>
								<rect id="SVGID_33_" x="936.7" y="589.2" width="49.4" height="18.2"/>
							</defs>
							<clipPath id="SVGID_34_">
								<use xlink:href="#SVGID_33_"  style="overflow:visible;"/>
							</clipPath>
							<g class="st38">
								<g>
									<g>
										<defs>
											<rect id="SVGID_35_" x="936.7" y="589.2" width="49.4" height="18.2"/>
										</defs>
										<clipPath id="SVGID_36_">
											<use xlink:href="#SVGID_35_"  style="overflow:visible;"/>
										</clipPath>
										<g class="st39">
											<path class="st6" d="M966.8,605.6v-14.5c0-1,1.1-1.8,2.5-1.8h14.3c1.4,0,2.5,0.8,2.5,1.8v14.5c0,1-1.1,1.8-2.5,1.8h-14.3
												C967.9,607.4,966.8,606.6,966.8,605.6"/>
											<path class="st6" d="M936.7,605.6v-14.5c0-1,1.1-1.8,2.5-1.8h14.3c1.4,0,2.5,0.8,2.5,1.8v14.5c0,1-1.1,1.8-2.5,1.8h-14.3
												C937.9,607.4,936.7,606.6,936.7,605.6"/>
											<path class="st18" d="M979.1,605.9h-34.3c-2.7,0-4.9-1.6-4.9-3.5v-8.1c0-2,2.2-3.5,4.9-3.5h34.3c2.7,0,4.9,1.6,4.9,3.5
												v8.1C984.1,604.4,981.9,605.9,979.1,605.9"/>
											<rect x="951.9" y="590.7" class="st40" width="20.2" height="15.2"/>
										</g>
									</g>
								</g>
							</g>
						</g>
					</g>
				</g>
				<g id="Capacitor-2">
					<g>
						<g>
							<defs>
								<rect id="SVGID_37_" x="1045.1" y="471.4" width="18.8" height="44"/>
							</defs>
							<clipPath id="SVGID_38_">
								<use xlink:href="#SVGID_37_"  style="overflow:visible;"/>
							</clipPath>
							<g class="st41">
								<g>
									<g>
										<defs>
											<rect id="SVGID_39_" x="1045.1" y="471.4" width="18.8" height="44"/>
										</defs>
										<clipPath id="SVGID_40_">
											<use xlink:href="#SVGID_39_"  style="overflow:visible;"/>
										</clipPath>
										<g class="st42">
											<path class="st6" d="M1062,488.6h-15c-1.1-0.1-2-1.1-1.9-2.2v-12.7c-0.1-1.1,0.7-2.1,1.9-2.2h15c1.1,0.1,2,1.1,1.9,2.2
												v12.7C1064,487.4,1063.2,488.4,1062,488.6"/>
											<path class="st6" d="M1062,515.3h-15c-1.1-0.1-2-1.1-1.9-2.2v-12.7c-0.1-1.1,0.7-2.1,1.9-2.2h15c1.1,0.1,2,1.1,1.9,2.2
												v12.7C1064,514.2,1063.2,515.2,1062,515.3"/>
											<path class="st18" d="M1062.3,477.6v30.5c0,2.4-1.6,4.4-3.6,4.4h-8.4c-2,0-3.6-2-3.6-4.4v-30.5c0-2.4,1.6-4.4,3.6-4.4
												h8.4C1060.7,473.2,1062.3,475.1,1062.3,477.6"/>
											<rect x="1046.7" y="483.8" class="st40" width="15.7" height="18"/>
										</g>
									</g>
								</g>
							</g>
						</g>
					</g>
				</g>
				<g id="Capacitor-3">
					<g>
						<g>
							<defs>
								<rect id="SVGID_41_" x="1211.4" y="455.2" width="18.8" height="44"/>
							</defs>
							<clipPath id="SVGID_42_">
								<use xlink:href="#SVGID_41_"  style="overflow:visible;"/>
							</clipPath>
							<g class="st43">
								<g>
									<g>
										<defs>
											<rect id="SVGID_43_" x="1211.4" y="455.2" width="18.8" height="44"/>
										</defs>
										<clipPath id="SVGID_44_">
											<use xlink:href="#SVGID_43_"  style="overflow:visible;"/>
										</clipPath>
										<g class="st44">
											<path class="st6" d="M1228.4,472.4h-15.1c-1.1-0.1-2-1.1-1.9-2.2v-12.7c-0.1-1.1,0.7-2.1,1.9-2.2h15.1
												c1.1,0.1,2,1.1,1.9,2.2v12.7C1230.3,471.3,1229.5,472.3,1228.4,472.4"/>
											<path class="st6" d="M1228.4,499.2h-15.1c-1.1-0.1-2-1.1-1.9-2.2v-12.8c-0.1-1.1,0.7-2.1,1.9-2.2h15.1
												c1.1,0.1,2,1.1,1.9,2.2v12.7C1230.3,498,1229.5,499,1228.4,499.2"/>
											<path class="st18" d="M1228.7,461.4v30.5c0,2.4-1.7,4.4-3.6,4.4h-8.4c-2,0-3.6-2-3.6-4.4v-30.5c0-2.4,1.7-4.4,3.6-4.4
												h8.4C1227.1,457,1228.7,459,1228.7,461.4"/>
											<rect x="1213" y="467.7" class="st40" width="15.7" height="18"/>
										</g>
									</g>
								</g>
							</g>
						</g>
					</g>
				</g>
				<g id="Capacitor-4">
					<g>
						<g>
							<defs>
								<rect id="SVGID_45_" x="360.4" y="525.4" width="44" height="16.3"/>
							</defs>
							<clipPath id="SVGID_46_">
								<use xlink:href="#SVGID_45_"  style="overflow:visible;"/>
							</clipPath>
							<g class="st45">
								<g>
									<g>
										<defs>
											<rect id="SVGID_47_" x="360.4" y="525.4" width="44" height="16.3"/>
										</defs>
										<clipPath id="SVGID_48_">
											<use xlink:href="#SVGID_47_"  style="overflow:visible;"/>
										</clipPath>
										<g class="st46">
											<path class="st6" d="M377.6,527v13c0,0.9-1,1.6-2.2,1.6h-12.7c-1.2,0-2.3-0.7-2.3-1.6v-13c0-0.9,1-1.6,2.3-1.6h12.7
												C376.6,525.4,377.6,526.1,377.6,527"/>
											<path class="st6" d="M404.4,527v13c0,0.9-1,1.6-2.2,1.6h-12.7c-1.2,0-2.2-0.7-2.2-1.6v-13c0-0.9,1-1.6,2.2-1.6h12.6
												C403.3,525.4,404.4,526.1,404.4,527"/>
											<path class="st18" d="M366.6,526.8h30.5c2.4,0,4.4,1.4,4.4,3.1v7.2c0,1.8-2,3.1-4.4,3.1h-30.5c-2.4,0-4.4-1.4-4.4-3.1
												v-7.2C362.2,528.2,364.2,526.8,366.6,526.8"/>
											<rect x="372.8" y="526.8" class="st40" width="18" height="13.6"/>
										</g>
									</g>
								</g>
							</g>
						</g>
					</g>
				</g>
				<g id="Capacitor-5">
					<g>
						<g>
							<defs>
								<rect id="SVGID_49_" x="1003.6" y="724.6" width="62.5" height="23"/>
							</defs>
							<clipPath id="SVGID_50_">
								<use xlink:href="#SVGID_49_"  style="overflow:visible;"/>
							</clipPath>
							<g class="st47">
								<g>
									<g>
										<defs>
											<rect id="SVGID_51_" x="1003.6" y="724.6" width="62.5" height="23"/>
										</defs>
										<clipPath id="SVGID_52_">
											<use xlink:href="#SVGID_51_"  style="overflow:visible;"/>
										</clipPath>
										<g class="st48">
											<path class="st6" d="M1028.1,726.9v18.5c0,1.3-1.4,2.3-3.2,2.3h-18.1c-1.7,0-3.2-1-3.2-2.3v-18.5c0-1.3,1.4-2.3,3.2-2.3
												h18.1C1026.6,724.6,1028,725.6,1028.1,726.9"/>
											<path class="st6" d="M1066.1,726.9v18.5c0,1.3-1.4,2.3-3.2,2.3h-18.1c-1.8,0-3.2-1-3.2-2.3v-18.5c0-1.3,1.4-2.3,3.2-2.3
												h18.1C1064.6,724.6,1066.1,725.6,1066.1,726.9"/>
											<path class="st18" d="M1012.4,726.5h43.4c3.5,0,6.2,2,6.2,4.4v10.3c0,2.5-2.8,4.4-6.2,4.4h-43.4c-3.5,0-6.2-2-6.2-4.4
												v-10.3C1006.2,728.5,1009,726.5,1012.4,726.5"/>
											<rect x="1021.3" y="726.5" class="st40" width="25.6" height="19.2"/>
										</g>
									</g>
								</g>
							</g>
						</g>
					</g>
				</g>
				<path class="st49" d="M1356.4,745.8v12.1c0,2.9-2.4,5.3-5.3,5.3h-38.2c-2.9,0-5.3-2.4-5.3-5.3v-12.1c0-2.9,2.4-5.3,5.3-5.3h38.2
					C1354,740.5,1356.4,742.9,1356.4,745.8z"/>
				<rect x="1314.5" y="740.5" class="st50" width="34.7" height="22.7"/>
				<path class="st49" d="M1174.7,620.5h7.1c2.9,0,5.3,2.4,5.3,5.3V656c0,2.9-2.4,5.3-5.3,5.3h-7.1c-2.9,0-5.3-2.4-5.3-5.3v-30.2
					C1169.4,622.9,1171.8,620.5,1174.7,620.5z"/>
				<rect x="1169.4" y="626.5" class="st50" width="17.7" height="29"/>
				<path class="st49" d="M985.8,764.9v18.2c0,2.9-2.4,5.3-5.3,5.3h-38.2c-2.9,0-5.3-2.4-5.3-5.3v-18.2c0-2.9,2.4-5.3,5.3-5.3h38.2
					C983.5,759.6,985.8,762,985.8,764.9z"/>
				<rect x="944" y="759.6" class="st50" width="34.7" height="28.8"/>
				<path class="st49" d="M403.8,465.5h6.9c1.6,0,2.9,1.3,2.9,2.9v26c0,1.6-1.3,2.9-2.9,2.9h-6.9c-1.6,0-2.9-1.3-2.9-2.9v-26
					C400.9,466.8,402.2,465.5,403.8,465.5z"/>
				<rect x="400.9" y="470.1" class="st50" width="12.6" height="22.6"/>
				<path class="st51" d="M846.9,457.7h132.9c2,0,3.7,1.6,3.7,3.7l0,0c0,2-1.6,3.7-3.7,3.7H846.9c-2,0-3.7-1.6-3.7-3.7l0,0
					C843.2,459.4,844.9,457.7,846.9,457.7z"/>
				<path class="st51" d="M846.9,541.7h132.9c2,0,3.7,1.6,3.7,3.7l0,0c0,2-1.6,3.7-3.7,3.7H846.9c-2,0-3.7-1.6-3.7-3.7l0,0
					C843.2,543.4,844.9,541.7,846.9,541.7z"/>
				<polygon class="st34" points="940.8,454.9 887.8,454.9 864,478.7 864,530.9 885.9,551.9 944.4,551.9 965.8,531 965.8,480.2 				
					"/>
				<polygon class="st35" points="936.7,462.7 892.2,462.7 872.2,482.7 872.2,526.4 890.6,544.1 939.6,544.1 957.7,526.6 
					957.7,483.9 				"/>
				<polygon class="st34" points="932.7,470.1 896.3,470.1 880,486.5 880,522.2 895,536.7 935.1,536.7 949.9,522.3 949.9,487.5 				
					"/>
				<ellipse class="st5" cx="916" cy="502.1" rx="24.8" ry="23.6"/>
				<polygon class="st52" points="1392.2,706.1 1400.5,708.4 1400.5,711.6 1392.2,709.2 				"/>
				<polygon class="st52" points="1400.5,533.9 1392.2,536.2 1392.2,539.5 1400.5,537.1 				"/>
				<path class="st52" d="M1398.9,696.5h-55.2c-3.4,0-6.2-2.8-6.3-6.2l0,0v-139c0-3.4,2.8-6.2,6.3-6.2l0,0h55.2
					c3.4,0,6.2,2.8,6.3,6.2l0,0v139C1405.1,693.7,1402.3,696.5,1398.9,696.5L1398.9,696.5z"/>
				<path class="st53" d="M1388,711.2h-112.1c-3.4,0-6.2-2.8-6.3-6.2V539c0-3.4,2.8-6.2,6.3-6.2H1388c3.4,0,6.2,2.8,6.3,6.2l0,0v166
					C1394.2,708.4,1391.4,711.2,1388,711.2L1388,711.2z"/>
				<path class="st54" d="M1363.7,689.6h-26.6c-1.1,0-2.1-0.9-2.1-2.1V674c0-1.1,1-2,2.1-2h26.6c1.1,0,2,0.8,2.1,2c0,0,0,0,0,0.1
					v13.5C1365.8,688.7,1364.9,689.6,1363.7,689.6L1363.7,689.6z"/>
				<path class="st54" d="M1363.7,571.1h-26.6c-1.1,0-2.1-0.9-2.1-2v-13.5c0-1.1,1-2,2.1-2h26.6c1.1,0,2,0.8,2.1,2c0,0,0,0,0,0.1
					v13.5c0,1.1-0.9,2-2,2.1C1363.8,571.1,1363.8,571.1,1363.7,571.1z"/>
				<path class="st55" d="M1369.2,692.9h-11.7c-1.1,0-2-0.8-2.1-2c0,0,0,0,0-0.1v-22.4c0-1.1,0.9-2,2-2c0,0,0,0,0.1,0h11.7
					c1.1,0,2,0.8,2.1,2c0,0,0,0,0,0.1v22.3C1371.3,691.9,1370.4,692.8,1369.2,692.9C1369.2,692.9,1369.2,692.9,1369.2,692.9z"/>
				<path class="st54" d="M1298.4,585.3h-26.6c-1.1,0-2.1-0.9-2.1-2v-13.5c0-1.1,1-2,2.1-2h26.6c1.1,0,2,0.8,2.1,2c0,0,0,0,0,0.1
					v13.3C1300.5,584.3,1299.6,585.2,1298.4,585.3C1298.4,585.3,1298.4,585.3,1298.4,585.3z"/>
				<path class="st54" d="M1305,556.8v26.4c0.1,1-0.6,1.9-1.6,2h-10.3c-1-0.2-1.7-1-1.6-2v-26.4c-0.1-1,0.6-1.9,1.6-2h10.3
					C1304.4,555,1305.1,555.8,1305,556.8z"/>
				<path class="st54" d="M1305,657.6V684c0.1,1-0.6,1.9-1.6,2h-10.3c-1-0.2-1.7-1-1.6-2v-26.4c-0.1-1,0.6-1.9,1.6-2h10.3
					C1304.4,655.7,1305.1,656.6,1305,657.6z"/>
				<path class="st54" d="M1291.8,608.8v26.4c0.1,1-0.6,1.9-1.6,2h-10.3c-1-0.2-1.7-1-1.6-2v-26.4c-0.1-1,0.6-1.9,1.6-2h10.3
					C1291.2,607,1291.9,607.8,1291.8,608.8z"/>
				<path class="st54" d="M1298.4,673.2h-26.6c-1.1,0-2.1-0.9-2.1-2v-13.5c0-1.1,1-2,2.1-2h26.6c1.1,0,2,0.8,2.1,2c0,0,0,0,0,0.1
					v13.5c0,1.1-0.9,2-2,2.1C1298.4,673.2,1298.4,673.2,1298.4,673.2z"/>
				<path class="st55" d="M1369.2,576.4h-11.7c-1.1,0-2-0.8-2.1-2c0,0,0,0,0-0.1V552c0-1.1,0.9-2,2-2c0,0,0,0,0.1,0h11.7
					c1.1,0,2,0.8,2.1,2c0,0,0,0,0,0.1v22.3C1371.3,575.5,1370.4,576.4,1369.2,576.4C1369.2,576.4,1369.2,576.4,1369.2,576.4z"/>
				<rect x="1269.6" y="596.8" class="st56" width="7.9" height="50.5"/>
				<path class="st37" d="M341.6,788.4v-33.2c0-2.2,1.8-4,4-4h59.5c2.2,0,4,1.8,4,4v33.2c0,2.2-1.8,4-4,4h-59.5
					C343.4,792.4,341.6,790.6,341.6,788.4z"/>
				<path class="st37" d="M1147.9,647.4h-36.4c-2.2,0-4-1.8-4-4v-63.8c0-2.2,1.8-4,4-4h36.4c2.2,0,4,1.8,4,4v63.8
					C1151.9,645.6,1150.1,647.4,1147.9,647.4z"/>
				<path class="st51" d="M1061.7,872.1V760.3c0-4.6,4.3-8.4,9.5-8.4H1240c5.2,0,9.5,3.8,9.5,8.4v111.8c0,4.6-4.3,8.4-9.5,8.4
					h-168.8C1066,880.5,1061.7,876.7,1061.7,872.1z"/>
				<path class="st53" d="M1070.1,879.9V771.8c0-4.5,4-8.1,9.1-8.1h161.3c5.1,0,9.1,3.6,9.1,8.1V880c0,4.5-4,8.1-9.1,8.1h-161.3
					C1074.2,888,1070.1,884.4,1070.1,879.9z"/>
				<path class="st51" d="M1094.7,751.9h10c1.8,0,3.2,1.5,3.2,3.2v69.4c0,1.8-1.5,3.2-3.2,3.2h-10c-1.8,0-3.2-1.5-3.2-3.2v-69.4
					C1091.5,753.4,1092.9,751.9,1094.7,751.9z"/>
				<rect x="1091.5" y="859.6" class="st51" width="16.5" height="28.4"/>
				<path class="st51" d="M1211.8,751.9h10c1.8,0,3.2,1.5,3.2,3.2v69.4c0,1.8-1.5,3.2-3.2,3.2h-10c-1.8,0-3.2-1.5-3.2-3.2v-69.4
					C1208.6,753.4,1210,751.9,1211.8,751.9z"/>
			</g>
		</g>
	</g>
	<g class="st14">
		<path class="st13" d="M1104.5,1044.7h9.3c2.2,0,5.3,0,6.8,0.9c1.7,1,3,2.8,3,5.4c0,2.7-1.4,4.8-3.8,5.8v0.1c3.2,0.7,4.9,3,4.9,6.2
			c0,3.7-2.7,7.4-7.8,7.4h-12.4V1044.7z M1108,1055.7h6.8c3.9,0,5.5-1.4,5.5-4.1c0-3.6-2.5-4.1-5.5-4.1h-6.8V1055.7z M1108,1067.5
			h8.6c3,0,4.8-1.8,4.8-4.6c0-3.3-2.7-4.3-5.6-4.3h-7.8V1067.5z"/>
		<path class="st13" d="M1145.2,1070.3c-0.5,0.3-1.3,0.5-2.2,0.5c-1.6,0-2.6-0.9-2.6-2.9c-1.7,2-4,2.9-6.6,2.9
			c-3.4,0-6.2-1.5-6.2-5.2c0-4.2,3.1-5.1,6.3-5.7c3.3-0.7,6.3-0.4,6.3-2.7c0-2.7-2.2-3.1-4.1-3.1c-2.6,0-4.5,0.8-4.6,3.5h-3.1
			c0.2-4.6,3.7-6.2,7.9-6.2c3.3,0,7,0.8,7,5.1v9.6c0,1.4,0,2.1,1,2.1c0.3,0,0.6-0.1,0.9-0.2V1070.3z M1140.2,1060.8
			c-2.4,1.8-9.3,0-9.3,4.6c0,2,1.7,2.7,3.6,2.7c4,0,5.7-2.5,5.7-4.2V1060.8z"/>
		<path class="st13" d="M1152.3,1051.8h3.7v2.7h-3.7v11.6c0,1.4,0.4,1.7,2.3,1.7h1.4v2.7h-2.3c-3.2,0-4.4-0.6-4.4-4.1v-11.8h-3.2
			v-2.7h3.2v-5.6h3.1V1051.8z"/>
		<path class="st13" d="M1163.6,1051.8h3.7v2.7h-3.7v11.6c0,1.4,0.4,1.7,2.3,1.7h1.4v2.7h-2.3c-3.2,0-4.4-0.6-4.4-4.1v-11.8h-3.2
			v-2.7h3.2v-5.6h3.1V1051.8z"/>
		<path class="st13" d="M1186.6,1064.5c-0.8,4.1-3.7,6.3-8,6.3c-5.9,0-8.7-4.1-8.9-9.8c0-5.6,3.7-9.7,8.7-9.7
			c6.6,0,8.6,6.2,8.4,10.7h-13.9c-0.1,3.2,1.7,6.1,5.8,6.1c2.6,0,4.3-1.2,4.8-3.6H1186.6z M1183.6,1059.3c-0.2-2.9-2.3-5.3-5.4-5.3
			c-3.2,0-5.1,2.4-5.3,5.3H1183.6z"/>
		<path class="st13" d="M1189.9,1051.8h2.9v3.9h0.1c1.5-3,3.5-4.5,6.8-4.4v3.2c-4.9,0-6.7,2.8-6.7,7.5v8.3h-3.1V1051.8z"/>
		<path class="st13" d="M1209.3,1072.8c-1.4,3.6-2.7,5-5.4,5c-0.7,0-1.4-0.1-2.1-0.3v-2.8c0.6,0.2,1.2,0.4,1.8,0.4
			c1.3,0,1.9-0.6,2.5-1.7l1.3-3.2l-7.4-18.5h3.5l5.4,15.2h0.1l5.2-15.2h3.2L1209.3,1072.8z"/>
	</g>
	<g>
		<g>
			<line class="st57" x1="1159.9" y1="829.4" x2="1159.9" y2="888"/>
			<g>
				<path class="st58" d="M1156.1,829.6c0-2.1,1.7-3.8,3.8-3.8s3.8,1.7,3.8,3.8s-1.7,3.8-3.8,3.8S1156.1,831.7,1156.1,829.6z"/>
			</g>
		</g>
	</g>
	<g>
		<g>
			<line class="st57" x1="1349.2" y1="620.8" x2="1407.8" y2="620.8"/>
			<g>
				<circle class="st58" cx="1349.4" cy="620.8" r="3.8"/>
			</g>
		</g>
	</g>
	<g>
		<g>
			<line class="st59" x1="1159.9" y1="1025.6" x2="1159.9" y2="888"/>
			<g>
				<path class="st13" d="M1163.6,1025.4c0,2.1-1.7,3.8-3.8,3.8s-3.8-1.7-3.8-3.8s1.7-3.8,3.8-3.8S1163.6,1023.3,1163.6,1025.4z"/>
			</g>
		</g>
	</g>
	<g class="st14">
		<path class="st13" d="M225.5,276.4h12.1c4.9,0,7.8,2.6,7.8,6.7c0,3.1-1.3,5.7-4.5,6.5v0.1c3,0.6,3.6,2.8,3.9,5.3
			c0.2,2.5,0.1,5.4,1.5,7.1h-3.8c-1-1-0.4-3.8-0.9-6.3c-0.4-2.5-1-4.6-4.3-4.6h-8.4v11h-3.4V276.4z M236,288.2
			c3.2,0,5.9-0.8,5.9-4.6c0-2.6-1.4-4.4-4.6-4.4h-8.5v9H236z"/>
		<path class="st13" d="M257.1,276.4h3.8l10,25.7h-3.8l-2.8-7.7h-10.9l-2.9,7.7h-3.5L257.1,276.4z M254.5,291.5h8.7l-4.3-12h-0.1
			L254.5,291.5z"/>
		<path class="st13" d="M273.4,276.4h3.4v12.8l13-12.8h4.4l-10.8,10.4l11.3,15.3h-4.3l-9.3-13l-4.3,4v9h-3.4V276.4z"/>
		<path class="st13" d="M309.7,293.4h3.5v2.7h-3.5v6h-2.9v-6h-11.2v-3l11.6-16.6h2.4V293.4z M306.8,293.4v-12.5h-0.1l-8.5,12.5
			H306.8z"/>
		<path class="st13" d="M316.2,285.6c-0.3-5.2,2.8-9,8.2-9c4.4,0,8,2.6,8,7.3c0,4.5-3,6.7-6.2,8.7c-3.2,1.9-6.6,3.6-7.2,6.7h13.1
			v2.7h-16.7c0.5-6,3.6-8.3,7.2-10.4c4.3-2.7,6.5-4.2,6.5-7.8c0-2.8-2.2-4.6-4.9-4.6c-3.6,0-5.1,3.3-5,6.3H316.2z"/>
		<path class="st13" d="M349.6,283.1c-0.3-2.3-1.8-3.8-4.3-3.8c-5.2,0-6.1,5.8-6.2,9.7l0.1,0.1c1.4-2.3,3.6-3.3,6.4-3.3
			c4.9,0,7.8,3.6,7.8,8.3c0,3.7-2.1,8.6-8.5,8.6c-7.6,0-8.8-6.9-8.8-12.3c0-7,2.1-13.7,9.4-13.7c4.2,0,6.8,2.3,7.2,6.5H349.6z
			 M339.7,294.1c0,3.2,1.9,5.7,5.3,5.7c3.3,0,5.1-2.6,5.1-5.7c0-3.2-1.7-5.8-5.1-5.8C341.6,288.4,339.7,290.9,339.7,294.1z"/>
		<path class="st13" d="M364.7,276.6c8,0,8.5,7.4,8.5,13s-0.5,13-8.5,13c-8,0-8.5-7.3-8.5-13S356.7,276.6,364.7,276.6z M364.7,299.8
			c5.2,0,5.3-6.5,5.3-10.3c0-3.8,0-10.3-5.3-10.3s-5.3,6.5-5.3,10.3C359.4,293.3,359.5,299.8,364.7,299.8z"/>
		<path class="st13" d="M405.6,284.1c-0.8-3.6-3.6-5.5-7.2-5.5c-6.1,0-8.7,5-8.7,10.4c0,5.9,2.6,10.8,8.7,10.8
			c4.5,0,7.1-3.2,7.4-7.4h3.4c-0.7,6.4-4.6,10.3-11.1,10.3c-8,0-11.9-5.9-11.9-13.4s4.2-13.5,12.2-13.5c5.4,0,9.8,2.9,10.6,8.4
			H405.6z"/>
		<path class="st13" d="M421,283c5.9,0,9,4.3,9,9.8c0,5.4-3.1,9.7-9,9.7s-9-4.3-9-9.7C412,287.3,415.1,283,421,283z M421,299.8
			c3.2,0,5.8-2.5,5.8-7c0-4.5-2.6-7.1-5.8-7.1s-5.8,2.6-5.8,7.1C415.2,297.3,417.8,299.8,421,299.8z"/>
		<path class="st13" d="M433.6,283.5h2.9v3.9h0.1c1.5-3,3.5-4.5,6.8-4.4v3.2c-4.9,0-6.7,2.8-6.7,7.5v8.3h-3.1V283.5z"/>
		<path class="st13" d="M461.5,296.2c-0.8,4.1-3.7,6.3-8,6.3c-5.9,0-8.7-4.1-8.9-9.8c0-5.6,3.7-9.7,8.7-9.7c6.6,0,8.6,6.2,8.4,10.7
			h-13.9c-0.1,3.2,1.7,6.1,5.8,6.1c2.6,0,4.3-1.2,4.8-3.6H461.5z M458.6,291c-0.2-2.9-2.3-5.3-5.4-5.3c-3.2,0-5.1,2.4-5.3,5.3H458.6
			z"/>
	</g>
	<g>
		<g>
			<line class="st59" x1="343.4" y1="325.5" x2="343.4" y2="368.4"/>
			<g>
				<path class="st13" d="M339.7,325.7c0-2.1,1.7-3.8,3.8-3.8s3.8,1.7,3.8,3.8c0,2.1-1.7,3.8-3.8,3.8S339.7,327.8,339.7,325.7z"/>
			</g>
		</g>
	</g>
	<g class="st14">
		<path class="st13" d="M1241.2,276.4h12.1c4.9,0,7.8,2.6,7.8,6.7c0,3.1-1.3,5.7-4.5,6.5v0.1c3,0.6,3.6,2.8,3.9,5.3
			c0.2,2.5,0.1,5.4,1.5,7.1h-3.8c-1-1-0.4-3.8-0.9-6.3c-0.4-2.5-1-4.6-4.3-4.6h-8.4v11h-3.4V276.4z M1251.8,288.2
			c3.2,0,5.9-0.8,5.9-4.6c0-2.6-1.4-4.4-4.6-4.4h-8.5v9H1251.8z"/>
		<path class="st13" d="M1281.3,296.2c-0.8,4.1-3.7,6.3-8,6.3c-5.9,0-8.7-4.1-8.9-9.8c0-5.6,3.7-9.7,8.7-9.7c6.6,0,8.6,6.2,8.4,10.7
			h-13.9c-0.1,3.2,1.7,6.1,5.8,6.1c2.6,0,4.3-1.2,4.8-3.6H1281.3z M1278.3,291c-0.2-2.9-2.3-5.3-5.4-5.3c-3.2,0-5.1,2.4-5.3,5.3
			H1278.3z"/>
		<path class="st13" d="M1286.6,296.2c0.1,2.7,2.5,3.6,5,3.6c1.9,0,4.5-0.4,4.5-2.8c0-4.8-12.2-1.5-12.2-8.7c0-3.7,3.7-5.3,6.9-5.3
			c4.2,0,7.3,1.3,7.6,5.8h-3.1c-0.2-2.4-2.3-3.1-4.3-3.1c-1.8,0-4,0.5-4,2.4c0,2.2,3.2,2.6,6.1,3.2c3.1,0.7,6.1,1.7,6.1,5.3
			c0,4.5-4.1,5.9-7.9,5.9c-4.2,0-7.7-1.7-7.9-6.3H1286.6z"/>
		<path class="st13" d="M1318.6,296.2c-0.8,4.1-3.7,6.3-8,6.3c-5.9,0-8.7-4.1-8.9-9.8c0-5.6,3.7-9.7,8.7-9.7c6.6,0,8.6,6.2,8.4,10.7
			H1305c-0.1,3.2,1.7,6.1,5.8,6.1c2.6,0,4.3-1.2,4.8-3.6H1318.6z M1315.6,291c-0.2-2.9-2.3-5.3-5.4-5.3c-3.2,0-5.1,2.4-5.3,5.3
			H1315.6z"/>
		<path class="st13" d="M1326.3,283.5h3.7v2.7h-3.7v11.6c0,1.4,0.4,1.7,2.3,1.7h1.4v2.7h-2.3c-3.2,0-4.4-0.6-4.4-4.1v-11.8h-3.2
			v-2.7h3.2v-5.6h3.1V283.5z"/>
	</g>
	<g>
		<g>
			<line class="st59" x1="1285" y1="325.5" x2="1285" y2="368.4"/>
			<g>
				<path class="st13" d="M1281.3,325.7c0-2.1,1.7-3.8,3.8-3.8s3.8,1.7,3.8,3.8c0,2.1-1.7,3.8-3.8,3.8S1281.3,327.8,1281.3,325.7z"
					/>
			</g>
		</g>
	</g>
	<g class="st14">
		<path class="st13" d="M619.6,977.3c0,3.5-1.8,7-7.6,7c-4.8,0-7.5-2.6-7.5-7.5v-1.6h3.4v1.1c0,3,0.8,5.1,4.1,5.1
			c3.1,0,4.1-1.8,4.1-4.6V958h3.4V977.3z"/>
		<path class="st13" d="M630.3,969.1c0.3,0,0.5,0,0.7,0h0.6c2.6,0,4.9-1.4,4.9-4.2c0-2.7-1.9-4.1-4.5-4.1c-3.3,0-4.8,2.6-4.8,5.5
			H624c0.2-4.9,2.8-8.2,7.9-8.2c4.4,0,7.8,2.1,7.8,6.8c0,2.3-1.5,4.2-3.5,5.1v0.1c3.1,0.7,4.6,3.1,4.6,6.2c0,5.1-4,7.8-8.8,7.8
			c-5.2,0-8.6-3-8.5-8.3h3.1c0.1,3.3,1.9,5.6,5.4,5.6c3,0,5.5-1.9,5.5-4.9c0-3.2-2.4-4.9-5.4-4.9c-0.6,0-1.3,0-1.8,0.1V969.1z"/>
		<path class="st13" d="M673.3,965.7c-0.8-3.6-3.6-5.5-7.2-5.5c-6.1,0-8.7,5-8.7,10.4c0,5.9,2.6,10.8,8.7,10.8
			c4.5,0,7.1-3.2,7.4-7.4h3.4c-0.7,6.4-4.6,10.3-11.1,10.3c-8,0-11.9-5.9-11.9-13.4s4.2-13.5,12.2-13.5c5.4,0,9.8,2.9,10.6,8.4
			H673.3z"/>
		<path class="st13" d="M688.8,964.7c5.9,0,9,4.3,9,9.8c0,5.4-3.1,9.7-9,9.7s-9-4.3-9-9.7C679.7,968.9,682.9,964.7,688.8,964.7z
			 M688.8,981.4c3.2,0,5.8-2.5,5.8-7c0-4.5-2.6-7.1-5.8-7.1c-3.2,0-5.8,2.6-5.8,7.1C683,978.9,685.6,981.4,688.8,981.4z"/>
		<path class="st13" d="M701.4,965.1h2.9v3h0.1c1.3-2.3,3.3-3.4,6-3.4c4.9,0,6.4,2.8,6.4,6.8v12.2h-3.1v-12.6c0-2.3-1.4-3.7-3.8-3.7
			c-3.7,0-5.5,2.5-5.5,5.8v10.5h-3.1V965.1z"/>
		<path class="st13" d="M721.4,965.1h2.9v3h0.1c1.3-2.3,3.3-3.4,6-3.4c4.9,0,6.4,2.8,6.4,6.8v12.2h-3.1v-12.6c0-2.3-1.4-3.7-3.8-3.7
			c-3.7,0-5.5,2.5-5.5,5.8v10.5h-3.1V965.1z"/>
		<path class="st13" d="M757.3,977.8c-0.8,4.1-3.7,6.3-8,6.3c-5.9,0-8.7-4.1-8.9-9.8c0-5.6,3.7-9.7,8.7-9.7c6.6,0,8.6,6.2,8.4,10.7
			h-13.9c-0.1,3.2,1.7,6.1,5.8,6.1c2.6,0,4.3-1.2,4.8-3.6H757.3z M754.4,972.6c-0.2-2.9-2.3-5.3-5.4-5.3c-3.2,0-5.1,2.4-5.3,5.3
			H754.4z"/>
		<path class="st13" d="M773.4,971.1c-0.5-2.3-2.1-3.7-4.6-3.7c-4.4,0-5.8,3.5-5.8,7.3c0,3.5,1.5,6.8,5.4,6.8c3,0,4.7-1.7,5.1-4.5
			h3.1c-0.7,4.6-3.5,7.2-8.2,7.2c-5.7,0-8.7-3.9-8.7-9.5c0-5.6,2.9-10,8.8-10c4.2,0,7.6,2,8,6.4H773.4z"/>
		<path class="st13" d="M784.4,965.1h3.7v2.7h-3.7v11.6c0,1.4,0.4,1.7,2.3,1.7h1.4v2.7h-2.3c-3.2,0-4.4-0.6-4.4-4.1v-11.8h-3.2v-2.7
			h3.2v-5.6h3.1V965.1z"/>
		<path class="st13" d="M799.5,964.7c5.9,0,9,4.3,9,9.8c0,5.4-3.1,9.7-9,9.7s-9-4.3-9-9.7C790.4,968.9,793.6,964.7,799.5,964.7z
			 M799.5,981.4c3.2,0,5.8-2.5,5.8-7c0-4.5-2.6-7.1-5.8-7.1c-3.2,0-5.8,2.6-5.8,7.1C793.7,978.9,796.3,981.4,799.5,981.4z"/>
		<path class="st13" d="M812,965.1h2.9v3.9h0.1c1.5-3,3.5-4.5,6.8-4.4v3.2c-4.9,0-6.7,2.8-6.7,7.5v8.3H812V965.1z"/>
	</g>
	<g>
		<g>
			<line class="st59" x1="712.5" y1="937.8" x2="712.5" y2="881.8"/>
			<g>
				<path class="st13" d="M716.2,937.6c0,2.1-1.7,3.8-3.8,3.8s-3.8-1.7-3.8-3.8s1.7-3.8,3.8-3.8S716.2,935.5,716.2,937.6z"/>
			</g>
		</g>
	</g>
	<g class="st14">
		<path class="st13" d="M93.8,693.5c-0.4-3.7-2.8-5.3-6.4-5.3c-2.9,0-5.8,1-5.8,4.4c0,6.3,16.4,1.9,16.4,12c0,5.5-5.4,7.7-10,7.7
			c-5.8,0-10.6-2.8-10.6-9.1h3.2c0,4.3,3.6,6.2,7.5,6.2c3.1,0,6.5-1,6.5-4.7c0-7.1-16.5-2.4-16.5-11.8c0-5.2,4.6-7.5,9.3-7.5
			c5.3,0,9.3,2.5,9.5,8.1H93.8z"/>
		<path class="st13" d="M102.4,685.9h4.7l8.1,21.6l8.1-21.6h4.7v25.7h-3.2v-21.4h-0.1l-8,21.4h-2.9l-8-21.4h-0.1v21.4h-3.2V685.9z"
			/>
		<path class="st13" d="M140.6,685.9h3.8l10,25.7h-3.8l-2.8-7.7H137l-2.9,7.7h-3.5L140.6,685.9z M138.1,701h8.7l-4.3-12h-0.1
			L138.1,701z"/>
	</g>
	<g class="st14">
		<path class="st13" d="M51.3,736.9c-0.8-3.6-3.6-5.5-7.2-5.5c-6.1,0-8.7,5-8.7,10.4c0,5.9,2.6,10.8,8.7,10.8c4.5,0,7.1-3.2,7.4-7.4
			H55c-0.7,6.4-4.6,10.3-11.1,10.3c-8,0-11.9-5.9-11.9-13.4s4.2-13.5,12.2-13.5c5.4,0,9.8,2.9,10.6,8.4H51.3z"/>
		<path class="st13" d="M66.8,735.8c5.9,0,9,4.3,9,9.8c0,5.4-3.1,9.7-9,9.7s-9-4.3-9-9.7C57.7,740.1,60.9,735.8,66.8,735.8z
			 M66.8,752.6c3.2,0,5.8-2.5,5.8-7c0-4.5-2.6-7.1-5.8-7.1s-5.8,2.6-5.8,7.1C61,750.1,63.6,752.6,66.8,752.6z"/>
		<path class="st13" d="M79.4,736.2h2.9v3h0.1c1.3-2.3,3.3-3.4,6-3.4c4.9,0,6.4,2.8,6.4,6.8v12.2h-3.1v-12.6c0-2.3-1.4-3.7-3.8-3.7
			c-3.7,0-5.5,2.5-5.5,5.8v10.5h-3.1V736.2z"/>
		<path class="st13" d="M99.4,736.2h2.9v3h0.1c1.3-2.3,3.3-3.4,6-3.4c4.9,0,6.4,2.8,6.4,6.8v12.2h-3.1v-12.6c0-2.3-1.4-3.7-3.8-3.7
			c-3.7,0-5.5,2.5-5.5,5.8v10.5h-3.1V736.2z"/>
		<path class="st13" d="M135.3,748.9c-0.8,4.1-3.7,6.3-8,6.3c-5.9,0-8.7-4.1-8.9-9.8c0-5.6,3.7-9.7,8.7-9.7c6.6,0,8.6,6.2,8.4,10.7
			h-13.9c-0.1,3.2,1.7,6.1,5.8,6.1c2.6,0,4.3-1.2,4.8-3.6H135.3z M132.4,743.8c-0.2-2.9-2.3-5.3-5.4-5.3c-3.2,0-5.1,2.4-5.3,5.3
			H132.4z"/>
		<path class="st13" d="M151.4,742.2c-0.5-2.3-2.1-3.7-4.6-3.7c-4.4,0-5.8,3.5-5.8,7.3c0,3.5,1.5,6.8,5.4,6.8c3,0,4.7-1.7,5.1-4.5
			h3.1c-0.7,4.6-3.5,7.2-8.2,7.2c-5.7,0-8.7-3.9-8.7-9.5c0-5.6,2.9-10,8.8-10c4.2,0,7.6,2,8,6.4H151.4z"/>
		<path class="st13" d="M162.4,736.2h3.7v2.7h-3.7v11.6c0,1.4,0.4,1.7,2.3,1.7h1.4v2.7h-2.3c-3.2,0-4.4-0.6-4.4-4.1v-11.8h-3.2v-2.7
			h3.2v-5.6h3.1V736.2z"/>
		<path class="st13" d="M177.5,735.8c5.9,0,9,4.3,9,9.8c0,5.4-3.1,9.7-9,9.7s-9-4.3-9-9.7C168.4,740.1,171.6,735.8,177.5,735.8z
			 M177.5,752.6c3.2,0,5.8-2.5,5.8-7c0-4.5-2.6-7.1-5.8-7.1s-5.8,2.6-5.8,7.1C171.7,750.1,174.3,752.6,177.5,752.6z"/>
		<path class="st13" d="M190,736.2h2.9v3.9h0.1c1.5-3,3.5-4.5,6.8-4.4v3.2c-4.9,0-6.7,2.8-6.7,7.5v8.3H190V736.2z"/>
	</g>
	<g>
		<g>
			<line class="st59" x1="115.1" y1="668.7" x2="115.1" y2="612.7"/>
			<g>
				<path class="st13" d="M118.9,668.5c0,2.1-1.7,3.8-3.8,3.8s-3.8-1.7-3.8-3.8s1.7-3.8,3.8-3.8S118.9,666.4,118.9,668.5z"/>
			</g>
		</g>
	</g>
	<g class="st14">
		<path class="st13" d="M1231.3,990.2c0,3.5-1.8,7-7.6,7c-4.8,0-7.5-2.6-7.5-7.5v-1.6h3.4v1.1c0,3,0.8,5.1,4.1,5.1
			c3.1,0,4.1-1.8,4.1-4.6V971h3.4V990.2z"/>
		<path class="st13" d="M1251,974.3h-10.3l-1.4,7.3l0.1,0.1c1.1-1.3,3-1.8,4.8-1.8c4.5,0,8.2,2.9,8.2,8.7c0,4.3-3,8.5-8.9,8.5
			c-4.4,0-8-2.7-8.1-7.3h3.1c0.2,2.6,2.3,4.6,5.4,4.6c2.9,0,5.4-2,5.4-6c0-3.3-2.3-5.8-5.8-5.8c-2,0-3.6,1-4.8,2.4l-2.6-0.1
			l2.4-13.2h12.6V974.3z"/>
		<path class="st13" d="M1285,978.7c-0.8-3.6-3.6-5.5-7.2-5.5c-6.1,0-8.7,5-8.7,10.4c0,5.9,2.6,10.8,8.7,10.8c4.5,0,7.1-3.2,7.4-7.4
			h3.4c-0.7,6.4-4.6,10.3-11.1,10.3c-8,0-11.9-5.9-11.9-13.4s4.2-13.5,12.2-13.5c5.4,0,9.8,2.9,10.6,8.4H1285z"/>
		<path class="st13" d="M1300.4,977.6c5.9,0,9,4.3,9,9.8c0,5.4-3.1,9.7-9,9.7s-9-4.3-9-9.7C1291.4,981.9,1294.5,977.6,1300.4,977.6z
			 M1300.4,994.4c3.2,0,5.8-2.5,5.8-7c0-4.5-2.6-7.1-5.8-7.1c-3.2,0-5.8,2.6-5.8,7.1C1294.6,991.9,1297.2,994.4,1300.4,994.4z"/>
		<path class="st13" d="M1313.1,978h2.9v3h0.1c1.3-2.3,3.3-3.4,6-3.4c4.9,0,6.4,2.8,6.4,6.8v12.2h-3.1v-12.6c0-2.3-1.4-3.7-3.8-3.7
			c-3.7,0-5.5,2.5-5.5,5.8v10.5h-3.1V978z"/>
		<path class="st13" d="M1333.1,978h2.9v3h0.1c1.3-2.3,3.3-3.4,6-3.4c4.9,0,6.4,2.8,6.4,6.8v12.2h-3.1v-12.6c0-2.3-1.4-3.7-3.8-3.7
			c-3.7,0-5.5,2.5-5.5,5.8v10.5h-3.1V978z"/>
		<path class="st13" d="M1369,990.7c-0.8,4.1-3.7,6.3-8,6.3c-5.9,0-8.7-4.1-8.9-9.8c0-5.6,3.7-9.7,8.7-9.7c6.6,0,8.6,6.2,8.4,10.7
			h-13.9c-0.1,3.2,1.7,6.1,5.8,6.1c2.6,0,4.3-1.2,4.8-3.6H1369z M1366,985.6c-0.2-2.9-2.3-5.3-5.4-5.3c-3.2,0-5.1,2.4-5.3,5.3H1366z
			"/>
		<path class="st13" d="M1385.1,984c-0.5-2.3-2.1-3.7-4.6-3.7c-4.4,0-5.8,3.5-5.8,7.3c0,3.5,1.5,6.8,5.4,6.8c3,0,4.7-1.7,5.1-4.5
			h3.1c-0.7,4.6-3.5,7.2-8.2,7.2c-5.7,0-8.7-3.9-8.7-9.5c0-5.6,2.9-10,8.8-10c4.2,0,7.6,2,8,6.4H1385.1z"/>
		<path class="st13" d="M1396,978h3.7v2.7h-3.7v11.6c0,1.4,0.4,1.7,2.3,1.7h1.4v2.7h-2.3c-3.2,0-4.4-0.6-4.4-4.1v-11.8h-3.2V978h3.2
			v-5.6h3.1V978z"/>
		<path class="st13" d="M1411.1,977.6c5.9,0,9,4.3,9,9.8c0,5.4-3.1,9.7-9,9.7s-9-4.3-9-9.7C1402.1,981.9,1405.2,977.6,1411.1,977.6z
			 M1411.1,994.4c3.2,0,5.8-2.5,5.8-7c0-4.5-2.6-7.1-5.8-7.1c-3.2,0-5.8,2.6-5.8,7.1C1405.3,991.9,1407.9,994.4,1411.1,994.4z"/>
		<path class="st13" d="M1423.7,978h2.9v3.9h0.1c1.5-3,3.5-4.5,6.8-4.4v3.2c-4.9,0-6.7,2.8-6.7,7.5v8.3h-3.1V978z"/>
	</g>
	<g>
		<g>
			<line class="st59" x1="1323.9" y1="948.6" x2="1323.9" y2="881.8"/>
			<g>
				<path class="st13" d="M1327.6,948.4c0,2.1-1.7,3.8-3.8,3.8s-3.8-1.7-3.8-3.8s1.7-3.8,3.8-3.8S1327.6,946.3,1327.6,948.4z"/>
			</g>
		</g>
	</g>
	<g class="st14">
		<path class="st13" d="M1474,601.4c0,6.5-3.7,9.9-10.1,9.9c-6.6,0-10.5-3.1-10.5-9.9v-16.4h3.4v16.4c0,4.6,2.6,7,7.1,7
			c4.4,0,6.7-2.4,6.7-7v-16.4h3.4V601.4z"/>
		<path class="st13" d="M1494.4,592.5c-0.4-3.7-2.8-5.3-6.4-5.3c-2.9,0-5.8,1-5.8,4.4c0,6.3,16.5,1.9,16.5,12c0,5.5-5.4,7.7-10,7.7
			c-5.8,0-10.6-2.8-10.6-9.1h3.2c0,4.3,3.6,6.2,7.5,6.2c3.1,0,6.5-1,6.5-4.7c0-7.1-16.5-2.4-16.5-11.8c0-5.2,4.6-7.5,9.3-7.5
			c5.3,0,9.3,2.5,9.5,8.1H1494.4z"/>
		<path class="st13" d="M1502.8,584.9h9.3c2.2,0,5.3,0,6.8,0.9c1.7,1,3,2.8,3,5.4c0,2.7-1.4,4.8-3.8,5.8v0.1c3.2,0.7,4.9,3,4.9,6.2
			c0,3.7-2.7,7.4-7.8,7.4h-12.4V584.9z M1506.3,596h6.8c3.9,0,5.5-1.4,5.5-4.1c0-3.6-2.5-4.1-5.5-4.1h-6.8V596z M1506.3,607.8h8.6
			c3,0,4.8-1.8,4.8-4.6c0-3.3-2.7-4.3-5.6-4.3h-7.8V607.8z"/>
	</g>
	<g class="st14">
		<path class="st13" d="M1471.6,635.9c-0.8-3.6-3.6-5.5-7.2-5.5c-6.1,0-8.7,5-8.7,10.4c0,5.9,2.6,10.8,8.7,10.8
			c4.5,0,7.1-3.2,7.4-7.4h3.4c-0.7,6.4-4.6,10.3-11.1,10.3c-8,0-11.9-5.9-11.9-13.4s4.2-13.5,12.2-13.5c5.4,0,9.8,2.9,10.6,8.4
			H1471.6z"/>
		<path class="st13" d="M1487,634.8c5.9,0,9,4.3,9,9.8c0,5.4-3.1,9.7-9,9.7s-9-4.3-9-9.7C1478,639.1,1481.1,634.8,1487,634.8z
			 M1487,651.6c3.2,0,5.8-2.5,5.8-7c0-4.5-2.6-7.1-5.8-7.1c-3.2,0-5.8,2.6-5.8,7.1C1481.2,649.1,1483.8,651.6,1487,651.6z"/>
		<path class="st13" d="M1499.7,635.2h2.9v3h0.1c1.3-2.3,3.3-3.4,6-3.4c4.9,0,6.4,2.8,6.4,6.8v12.2h-3.1v-12.6
			c0-2.3-1.4-3.7-3.8-3.7c-3.7,0-5.5,2.5-5.5,5.8v10.5h-3.1V635.2z"/>
		<path class="st13" d="M1519.7,635.2h2.9v3h0.1c1.3-2.3,3.3-3.4,6-3.4c4.9,0,6.4,2.8,6.4,6.8v12.2h-3.1v-12.6
			c0-2.3-1.4-3.7-3.8-3.7c-3.7,0-5.5,2.5-5.5,5.8v10.5h-3.1V635.2z"/>
		<path class="st13" d="M1555.6,647.9c-0.8,4.1-3.7,6.3-8,6.3c-5.9,0-8.7-4.1-8.9-9.8c0-5.6,3.7-9.7,8.7-9.7c6.6,0,8.6,6.2,8.4,10.7
			h-13.9c-0.1,3.2,1.7,6.1,5.8,6.1c2.6,0,4.3-1.2,4.8-3.6H1555.6z M1552.6,642.8c-0.2-2.9-2.3-5.3-5.4-5.3c-3.2,0-5.1,2.4-5.3,5.3
			H1552.6z"/>
		<path class="st13" d="M1571.7,641.2c-0.5-2.3-2.1-3.7-4.6-3.7c-4.4,0-5.8,3.5-5.8,7.3c0,3.5,1.5,6.8,5.4,6.8c3,0,4.7-1.7,5.1-4.5
			h3.1c-0.7,4.6-3.5,7.2-8.2,7.2c-5.7,0-8.7-3.9-8.7-9.5c0-5.6,2.9-10,8.8-10c4.2,0,7.6,2,8,6.4H1571.7z"/>
		<path class="st13" d="M1582.6,635.2h3.7v2.7h-3.7v11.6c0,1.4,0.4,1.7,2.3,1.7h1.4v2.7h-2.3c-3.2,0-4.4-0.6-4.4-4.1v-11.8h-3.2
			v-2.7h3.2v-5.6h3.1V635.2z"/>
		<path class="st13" d="M1597.7,634.8c5.9,0,9,4.3,9,9.8c0,5.4-3.1,9.7-9,9.7s-9-4.3-9-9.7C1588.7,639.1,1591.8,634.8,1597.7,634.8z
			 M1597.7,651.6c3.2,0,5.8-2.5,5.8-7c0-4.5-2.6-7.1-5.8-7.1c-3.2,0-5.8,2.6-5.8,7.1C1591.9,649.1,1594.5,651.6,1597.7,651.6z"/>
		<path class="st13" d="M1610.3,635.2h2.9v3.9h0.1c1.5-3,3.5-4.5,6.8-4.4v3.2c-4.9,0-6.7,2.8-6.7,7.5v8.3h-3.1V635.2z"/>
	</g>
	<g>
		<g>
			<line class="st59" x1="1430.4" y1="620.8" x2="1405.1" y2="620.8"/>
			<g>
				<circle class="st13" cx="1430.2" cy="620.8" r="3.8"/>
			</g>
		</g>
	</g>
	<rect x="845.1" y="598.2" class="st60" width="53.7" height="220.7"/>
	<rect x="379.4" y="824.9" class="st60" width="666.1" height="48.2"/>
	<rect x="374.5" y="382.8" class="st60" width="895.1" height="48.2"/>
	<polyline class="st57" points="898.8,766.5 1323.9,766.5 1323.9,881.8 	"/>
	<line class="st57" x1="712.5" y1="873" x2="712.5" y2="881.8"/>
	<g class="st14">
		<path class="st13" d="M729.3,295.7c0,3.5-1.8,7-7.6,7c-4.8,0-7.5-2.6-7.5-7.5v-1.6h3.4v1.1c0,3,0.8,5.1,4.1,5.1
			c3.1,0,4.1-1.8,4.1-4.6v-18.8h3.4V295.7z"/>
		<path class="st13" d="M733.7,285.6c-0.3-5.2,2.8-9,8.2-9c4.4,0,8,2.6,8,7.3c0,4.5-3,6.7-6.2,8.7c-3.2,1.9-6.6,3.6-7.2,6.7h13.1
			v2.7H733c0.5-6,3.6-8.3,7.2-10.4c4.3-2.7,6.5-4.2,6.5-7.8c0-2.8-2.2-4.6-4.9-4.6c-3.6,0-5.1,3.3-5,6.3H733.7z"/>
		<path class="st13" d="M783,284.1c-0.8-3.6-3.6-5.5-7.2-5.5c-6.1,0-8.7,5-8.7,10.4c0,5.9,2.6,10.8,8.7,10.8c4.5,0,7.1-3.2,7.4-7.4
			h3.4c-0.7,6.4-4.6,10.3-11.1,10.3c-8,0-11.9-5.9-11.9-13.4s4.2-13.5,12.2-13.5c5.4,0,9.8,2.9,10.6,8.4H783z"/>
		<path class="st13" d="M798.5,283c5.9,0,9,4.3,9,9.8c0,5.4-3.1,9.7-9,9.7s-9-4.3-9-9.7C789.4,287.3,792.6,283,798.5,283z
			 M798.5,299.8c3.2,0,5.8-2.5,5.8-7c0-4.5-2.6-7.1-5.8-7.1s-5.8,2.6-5.8,7.1C792.7,297.3,795.3,299.8,798.5,299.8z"/>
		<path class="st13" d="M811.1,283.5h2.9v3h0.1c1.3-2.3,3.3-3.4,6-3.4c4.9,0,6.4,2.8,6.4,6.8v12.2h-3.1v-12.6c0-2.3-1.4-3.7-3.8-3.7
			c-3.7,0-5.5,2.5-5.5,5.8v10.5h-3.1V283.5z"/>
		<path class="st13" d="M831.1,283.5h2.9v3h0.1c1.3-2.3,3.3-3.4,6-3.4c4.9,0,6.4,2.8,6.4,6.8v12.2h-3.1v-12.6c0-2.3-1.4-3.7-3.8-3.7
			c-3.7,0-5.5,2.5-5.5,5.8v10.5h-3.1V283.5z"/>
		<path class="st13" d="M867,296.2c-0.8,4.1-3.7,6.3-8,6.3c-5.9,0-8.7-4.1-8.9-9.8c0-5.6,3.7-9.7,8.7-9.7c6.6,0,8.6,6.2,8.4,10.7
			h-13.9c-0.1,3.2,1.7,6.1,5.8,6.1c2.6,0,4.3-1.2,4.8-3.6H867z M864.1,291c-0.2-2.9-2.3-5.3-5.4-5.3c-3.2,0-5.1,2.4-5.3,5.3H864.1z"
			/>
		<path class="st13" d="M883.1,289.5c-0.5-2.3-2.1-3.7-4.6-3.7c-4.4,0-5.8,3.5-5.8,7.3c0,3.5,1.5,6.8,5.4,6.8c3,0,4.7-1.7,5.1-4.5
			h3.1c-0.7,4.6-3.5,7.2-8.2,7.2c-5.7,0-8.7-3.9-8.7-9.5c0-5.6,2.9-10,8.8-10c4.2,0,7.6,2,8,6.4H883.1z"/>
		<path class="st13" d="M894.1,283.5h3.7v2.7h-3.7v11.6c0,1.4,0.4,1.7,2.3,1.7h1.4v2.7h-2.3c-3.2,0-4.4-0.6-4.4-4.1v-11.8h-3.2v-2.7
			h3.2v-5.6h3.1V283.5z"/>
		<path class="st13" d="M909.2,283c5.9,0,9,4.3,9,9.8c0,5.4-3.1,9.7-9,9.7s-9-4.3-9-9.7C900.1,287.3,903.3,283,909.2,283z
			 M909.2,299.8c3.2,0,5.8-2.5,5.8-7c0-4.5-2.6-7.1-5.8-7.1s-5.8,2.6-5.8,7.1C903.4,297.3,906,299.8,909.2,299.8z"/>
		<path class="st13" d="M921.7,283.5h2.9v3.9h0.1c1.5-3,3.5-4.5,6.8-4.4v3.2c-4.9,0-6.7,2.8-6.7,7.5v8.3h-3.1V283.5z"/>
	</g>
	<g>
		<g>
			<line class="st59" x1="822.1" y1="325.5" x2="822.1" y2="368.4"/>
			<g>
				<path class="st13" d="M818.3,325.7c0-2.1,1.7-3.8,3.8-3.8s3.8,1.7,3.8,3.8c0,2.1-1.7,3.8-3.8,3.8S818.3,327.8,818.3,325.7z"/>
			</g>
		</g>
	</g>
	<line class="st57" x1="822.1" y1="382.8" x2="822.1" y2="368.4"/>
	<g>
		<g>
			<polyline class="st57" points="495.8,507.3 343.4,507.3 343.4,368.4 			"/>
			<g>
				<circle class="st58" cx="495.6" cy="507.3" r="3.8"/>
			</g>
		</g>
	</g>
	<g>
		<g>
			<polyline class="st57" points="919.6,503.4 1285,503.4 1285,368.4 			"/>
			<g>
				<path class="st58" d="M919.8,507.1c-2.1,0-3.8-1.7-3.8-3.8s1.7-3.8,3.8-3.8s3.8,1.7,3.8,3.8S921.9,507.1,919.8,507.1z"/>
			</g>
		</g>
	</g>
</g>
</svg>
