<svg xmlns="http://www.w3.org/2000/svg" xmlns:xlink="http://www.w3.org/1999/xlink" viewBox="0 0 1055.1 644.13"><defs><style>.cls-1,.cls-12,.cls-15,.cls-21,.cls-23,.cls-24,.cls-25,.cls-26,.cls-27,.cls-28,.cls-29,.cls-31,.cls-33,.cls-5,.cls-9{fill:none;}.cls-2{fill:#242424;}.cls-3{fill:#fff;}.cls-4{clip-path:url(#clip-path);}.cls-5{stroke:#242424;}.cls-12,.cls-15,.cls-21,.cls-23,.cls-24,.cls-25,.cls-26,.cls-27,.cls-28,.cls-29,.cls-31,.cls-33,.cls-5,.cls-9{stroke-miterlimit:10;}.cls-6{fill:#3f4b59;}.cls-7{fill:#050c16;}.cls-8{fill:#737b7d;}.cls-9{stroke:#eaeaea;stroke-width:0.2px;}.cls-10{clip-path:url(#clip-path-3);}.cls-11{clip-path:url(#clip-path-4);}.cls-12{stroke:#fff;}.cls-13{fill:#f5f6f7;}.cls-14{fill:#e0ac52;}.cls-15{stroke:#f8fbfe;}.cls-15,.cls-29,.cls-31,.cls-33{stroke-width:3px;}.cls-16{fill:#f8fbfe;}.cls-17{clip-path:url(#clip-path-5);}.cls-18{fill:#e5e5e5;}.cls-19{fill:#232323;}.cls-20{clip-path:url(#clip-path-7);}.cls-21{stroke:#f5f6f7;}.cls-22{opacity:0.5;}.cls-23,.cls-24,.cls-26,.cls-27,.cls-28,.cls-33{stroke:#009a44;}.cls-23,.cls-24,.cls-25,.cls-26,.cls-27,.cls-28,.cls-33{stroke-linecap:round;}.cls-23,.cls-24,.cls-25,.cls-26,.cls-27,.cls-28{stroke-width:5px;}.cls-24{stroke-dasharray:10.22 15.32;}.cls-25,.cls-29{stroke:#f4633a;}.cls-26{stroke-dasharray:9.86 14.79;}.cls-27{stroke-dasharray:9.49 14.24;}.cls-28{stroke-dasharray:10.26 15.38;}.cls-29{stroke-linecap:square;}.cls-30{fill:#f4633a;}.cls-31{stroke:#333;}.cls-32{fill:#333;}.cls-33{stroke-dasharray:10 15;}.cls-34{fill:#009a44;}.cls-35{fill:#ffae3b;}</style><clipPath id="clip-path"><rect class="cls-1" x="273.56" y="409.44" width="40.16" height="67.67"/></clipPath><clipPath id="clip-path-3"><rect class="cls-1" x="56.63" y="91.18" width="34.79" height="101.96"/></clipPath><clipPath id="clip-path-4"><rect class="cls-1" x="56.63" y="91.18" width="34.79" height="101.96"/></clipPath><clipPath id="clip-path-5"><rect class="cls-1" x="65.04" y="517.36" width="5.68" height="14.03"/></clipPath><clipPath id="clip-path-7"><rect class="cls-1" x="78.85" y="517.36" width="5.68" height="14.03"/></clipPath></defs><g id="Layer_1" data-name="Layer 1"><path class="cls-2" d="M44,50.59V243.12c0-12.69,9.07-23,20.25-23s20.24,10.29,20.24,23-9.06,23-20.24,23S44,255.81,44,243.12V570.26a2.36,2.36,0,0,0,2.36,2.36H316.06a2.35,2.35,0,0,0,2.36-2.36V50.59a2.36,2.36,0,0,0-2.36-2.36H46.39A2.36,2.36,0,0,0,44,50.59Zm74.31,502.85c0,5.95-4.28,10.78-9.57,10.78s-9.56-4.83-9.56-10.78,4.28-10.78,9.56-10.78S118.34,547.49,118.34,553.44Zm192.38-55.07c0,5.52-5.11,10-11.42,10s-11.42-4.49-11.42-10,5.11-10,11.42-10S310.72,492.84,310.72,498.37ZM74.86,431.28a9.38,9.38,0,1,1-9.38-9.38A9.38,9.38,0,0,1,74.86,431.28Zm242.53-187.5a20.27,20.27,0,1,1-20.27-20.26A20.26,20.26,0,0,1,317.39,243.78Z"/><path class="cls-3" d="M61,399.11c3.87,0,5.75,2.29,5.75,6.12s-1.84,6.09-5.75,6.09h-8.9v-3.15H61c1.56,0,3.11-.4,3.11-2.94,0-2.25-1-3-3.11-3h-8.9v-3.15Z"/><path class="cls-3" d="M52.08,396.63v-2.85H66.39v2.85Z"/><path class="cls-3" d="M56,387.92v-2.08h1.9v2.08h5.13c1,0,1.21-.24,1.21-1.2a4,4,0,0,0-.08-.88h2.22a10.89,10.89,0,0,1,.1,1.66c0,1.77-.38,3.27-2.46,3.27H57.93v1.72H56v-1.72H52.92v-2.85Z"/><path class="cls-3" d="M56,384.47v-2.7H58v0a3.65,3.65,0,0,1-2.2-3.31,2.51,2.51,0,0,1,.09-.62h2.65a5.18,5.18,0,0,0-.1,1c0,2.11,1.49,2.81,3.33,2.81h4.67v2.84Z"/><path class="cls-3" d="M59.21,376.79c-2.64-.16-3.46-2.54-3.46-4.87,0-2.06.46-4.55,2.94-4.55h5.4a5.3,5.3,0,0,0,2.3-.36v2.89a4.22,4.22,0,0,1-1,.2,4.72,4.72,0,0,1,1.28,3.49c0,2-1,3.53-3.11,3.53-4.71,0-2.18-7-4.51-6.9-1.2,0-1.4.84-1.4,1.84s.44,1.79,1.56,1.89Zm2.11-6.57a5.65,5.65,0,0,1,.6,2.36c.16.89.48,1.69,1.52,1.69s1.33-.82,1.33-1.75a2.11,2.11,0,0,0-2.39-2.3Z"/><path class="cls-3" d="M63,363c1.23,0,1.75-1.08,1.75-2.18,0-.81-.32-1.87-1.33-1.87-.86,0-1.18,1.2-1.6,3.23-.38,1.66-.92,3.29-2.77,3.29-2.64,0-3.32-2.29-3.32-4.51s.76-4.36,3.3-4.58v2.71c-1.1.08-1.4.92-1.4,1.95,0,.64.1,1.58,1,1.58,1,0,1.16-1.62,1.55-3.23s1-3.29,2.9-3.29c2.73,0,3.61,2.39,3.61,4.73s-.9,4.78-3.65,4.88Z"/><path class="cls-3" d="M55.75,349.37A5.09,5.09,0,0,1,61.22,344a5.37,5.37,0,1,1,0,10.73A5.08,5.08,0,0,1,55.75,349.37Zm8.78,0c0-1.95-1.65-2.53-3.31-2.53s-3.33.58-3.33,2.53,1.66,2.5,3.33,2.5S64.53,351.29,64.53,349.37Z"/><path class="cls-3" d="M56,342.15v-2.71h1.44v-.06a3.65,3.65,0,0,1-1.72-3.17c0-3,1.7-3.79,4.27-3.79h6.37v2.85H60.54c-1.71,0-2.55.48-2.55,1.83,0,1.54.86,2.2,3,2.2h5.43v2.85Z"/><path class="cls-3" d="M54.42,327.33v2.85H52.08v-2.85ZM56,330.18v-2.85H66.39v2.85Z"/><path class="cls-3" d="M59.67,318a1.9,1.9,0,0,0-1.78,2.1c0,1.83,1.84,2.43,3.37,2.43s3.27-.58,3.27-2.37a2.16,2.16,0,0,0-2.11-2.26v-2.75a4.63,4.63,0,0,1,4.25,5,5,5,0,0,1-5.31,5.24c-3.23,0-5.61-1.93-5.61-5.3,0-2.44,1.28-4.71,3.92-4.87Z"/><path class="cls-3" d="M70.08,411.26v-7.72a3.93,3.93,0,0,1,4-4.19,3.48,3.48,0,0,1,3.58,2.27h0c.43-1.55,1.89-2,3.35-2.09.91-.06,2.61,0,3.39-.6v3.15a17.12,17.12,0,0,1-3.43.5c-1.5.22-2.16.8-2.16,2.39v3.14h5.59v3.15Zm6.47-3.15v-3.44c0-1.43-.6-2.17-2-2.17s-2,.74-2,2.17v3.44Z"/><path class="cls-3" d="M70.08,392.88v-3.23l14.31-5.36v3.27l-3.19,1.08V394l3.19,1.12v3.19Zm8.78.3v-3.71l-5.26,1.8v0Z"/><path class="cls-3" d="M70.08,383.05V379.9H76l-5.93-5.59v-3.93L75.73,376l8.66-6.13v4L78,378.1l1.82,1.8h4.61v3.15Z"/><path class="cls-3" d="M84.39,362.1V365h-9.1v3.52H73.14c.06-2-.64-3.78-2.78-4.11V362.1Z"/><path class="cls-3" d="M75.75,358.07c-3.21.1-5.67-1.73-5.67-5.1,0-2.56,1.64-4.81,4.39-4.81,4.25,0,4.59,4.51,7.48,6.56v-6.64h2.44v10.31c-3.27,0-4.61-2-6.27-4.43-.87-1.23-1.71-2.95-3.43-2.95a2,2,0,0,0-2.17,2.11c0,1.68,1.75,2.22,3.23,2.22Z"/><path class="cls-3" d="M70.08,342.11c0-2.81,1.76-5.17,7.23-5.17s7.36,2.36,7.36,5.17-1.76,5.13-7.36,5.13S70.08,344.89,70.08,342.11Zm12.25,0c0-2.33-3.43-2.33-5-2.33s-4.89,0-4.89,2.33,3.43,2.28,4.89,2.28S82.33,344.39,82.33,342.11Z"/><path class="cls-3" d="M70.08,331c0-2.81,1.76-5.17,7.23-5.17s7.36,2.36,7.36,5.17-1.76,5.13-7.36,5.13S70.08,333.75,70.08,331Zm12.25,0c0-2.33-3.43-2.33-5-2.33s-4.89,0-4.89,2.33,3.43,2.29,4.89,2.29S82.33,333.25,82.33,331Z"/><path class="cls-3" d="M72.8,315c2.59,2.95,7.84,4.53,11.59,4.59v3.05A20.55,20.55,0,0,1,73,317.93v6.65H70.36V315Z"/><path class="cls-3" d="M84.39,300.6v3.55L70.08,308.8v-3.25l10.06-3.18v0L70.08,299.1v-3.25Z"/><path class="cls-3" d="M70.08,290.72v-3.23l14.31-5.35v3.26l-3.19,1.09v5.35L84.39,293v3.19Zm8.78.3v-3.71l-5.26,1.8v0Z"/><path class="cls-3" d="M277.91,397.45V391c0-3.81,1.33-6.94,5.6-6.94s5.92,3.13,5.92,6.94v2.41h6.47v4.07Zm8.29-6.15c0-2.14-.92-3.29-2.69-3.29s-2.37,1.15-2.37,3.29v2.08h5.06Zm2.16.41-2.61-2.81,10.15-5.74v4.55Z"/><path class="cls-3" d="M281.32,120v5h-3.41V111h3.41v5H295.9V120Z"/><g id="wisblock-label"><g class="cls-4"><polygon class="cls-3" points="273.56 435.61 276.82 435.61 276.82 438.67 273.56 438.67 273.56 447.72 276.82 447.72 276.82 450.78 273.56 450.78 273.56 458.91 276.82 458.91 276.82 462.13 293.92 462.13 293.92 424.41 276.82 424.41 276.82 427.28 273.56 427.28 273.56 435.61"/><g class="cls-4"><path class="cls-3" d="M301.66,477v-1.64l7-1.66v0l-7-1.86v-1.65l7-1.8v0l-7-1.71V465l9.21,2.54v1.64l-7,1.84v0l7,1.88v1.66Z"/><path class="cls-3" d="M301.66,464.12v-1.47h1.4v1.47Zm2.54,0v-1.47h6.67v1.47Z"/><path class="cls-3" d="M308.73,459.94c.86-.09,1.16-.72,1.16-1.5,0-.57-.12-1.53-.88-1.49s-.86,1.11-1.11,2.18-.61,2.14-2,2.14S304,459.7,304,458.49c0-1.37.56-2.62,2.05-2.79v1.54c-.71.14-.89.69-.89,1.35,0,.43.11,1.21.69,1.21s.84-1.08,1.07-2.16.63-2.16,1.94-2.16c1.59,0,2.17,1.6,2.17,3,0,1.69-.75,2.92-2.32,3Z"/><path class="cls-3" d="M301.66,454.24v-4.33c0-1.75.57-2.94,2.29-2.94a2,2,0,0,1,1.92,1.25,2.23,2.23,0,0,1,2.33-1.69c1.87,0,2.67,1.59,2.67,3.25v4.46Zm3.73-2v-2.05c0-.72-.32-1.24-1.1-1.24s-1.05.67-1.05,1.39v1.9Zm3.91,0v-2.17c0-.78-.26-1.49-1.21-1.49s-1.32.58-1.32,1.45v2.21Z"/><path class="cls-3" d="M301.66,445.17v-2h7.51v-4.48h1.7v6.51Z"/><path class="cls-3" d="M301.44,433.4c0-2.84,2.13-4.53,4.87-4.53a4.53,4.53,0,1,1,0,9.05C303.57,437.92,301.44,436.23,301.44,433.4Zm7.95,0c0-1.82-1.55-2.51-3.08-2.51s-3.16.69-3.16,2.51,1.54,2.5,3.16,2.5S309.39,435.21,309.39,433.4Z"/><path class="cls-3" d="M304.76,421.35a2,2,0,0,0-1.61,2c0,1.82,1.54,2.51,3.16,2.51s3.08-.69,3.08-2.51a2.06,2.06,0,0,0-2.07-2.08v-2a3.86,3.86,0,0,1,3.77,4,4.45,4.45,0,0,1-4.78,4.53c-2.74,0-4.87-1.69-4.87-4.53a3.75,3.75,0,0,1,3.32-4Z"/><path class="cls-3" d="M301.66,417.94v-2h3.82l-3.82-3.6v-2.52l3.64,3.59,5.57-3.94V412l-4.14,2.77,1.17,1.16h3v2Z"/></g></g></g><rect class="cls-5" x="-80.97" y="173.23" width="524.39" height="274.39" rx="2.36" transform="translate(-129.2 491.66) rotate(-90)"/><circle class="cls-6" cx="180.82" cy="132.13" r="71.42"/><path class="cls-7" d="M104.33,132.13a76.49,76.49,0,1,0,76.49-76.48A76.48,76.48,0,0,0,104.33,132.13Zm136.22,0a59.73,59.73,0,1,1-59.73-59.72A59.73,59.73,0,0,1,240.55,132.13Z"/><path class="cls-8" d="M121.09,132.13a59.73,59.73,0,1,0,59.73-59.72A59.73,59.73,0,0,0,121.09,132.13Zm106.37,0a46.64,46.64,0,1,1-46.64-46.64A46.65,46.65,0,0,1,227.46,132.13Z"/><line class="cls-9" x1="201.91" y1="219.38" x2="263.57" y2="154.59"/><line class="cls-9" x1="201.12" y1="218.63" x2="262.77" y2="153.84"/><line class="cls-9" x1="200.22" y1="217.78" x2="261.88" y2="152.99"/><line class="cls-9" x1="199.43" y1="217.03" x2="261.09" y2="152.24"/><line class="cls-9" x1="198.51" y1="216.15" x2="260.17" y2="151.36"/><line class="cls-9" x1="197.72" y1="215.4" x2="259.38" y2="150.61"/><line class="cls-9" x1="196.83" y1="214.55" x2="258.49" y2="149.76"/><line class="cls-9" x1="196.04" y1="213.79" x2="257.69" y2="149.01"/><line class="cls-9" x1="189.82" y1="218.46" x2="263.02" y2="141.55"/><line class="cls-9" x1="189.03" y1="217.7" x2="262.22" y2="140.79"/><line class="cls-9" x1="188.14" y1="216.85" x2="261.33" y2="139.94"/><line class="cls-9" x1="187.35" y1="216.1" x2="260.54" y2="139.19"/><line class="cls-9" x1="186.43" y1="215.22" x2="259.62" y2="138.31"/><line class="cls-9" x1="185.63" y1="214.47" x2="258.83" y2="137.56"/><line class="cls-9" x1="184.74" y1="213.62" x2="257.94" y2="136.71"/><line class="cls-9" x1="183.95" y1="212.87" x2="257.14" y2="135.96"/><line class="cls-9" x1="176.83" y1="218.96" x2="261.81" y2="129.68"/><line class="cls-9" x1="176.04" y1="218.21" x2="261.01" y2="128.92"/><line class="cls-9" x1="175.15" y1="217.36" x2="260.12" y2="128.07"/><line class="cls-9" x1="174.35" y1="216.61" x2="259.33" y2="127.32"/><line class="cls-9" x1="173.43" y1="215.73" x2="258.41" y2="126.44"/><line class="cls-9" x1="172.64" y1="214.98" x2="257.62" y2="125.69"/><line class="cls-9" x1="171.75" y1="214.13" x2="256.73" y2="124.84"/><line class="cls-9" x1="170.96" y1="213.38" x2="255.93" y2="124.09"/><line class="cls-9" x1="162.75" y1="220.14" x2="263.62" y2="114.14"/><line class="cls-9" x1="161.95" y1="219.38" x2="262.83" y2="113.39"/><line class="cls-9" x1="161.06" y1="218.53" x2="261.94" y2="112.54"/><line class="cls-9" x1="160.27" y1="217.78" x2="261.15" y2="111.78"/><line class="cls-9" x1="159.35" y1="216.9" x2="260.23" y2="110.91"/><line class="cls-9" x1="158.56" y1="216.15" x2="259.43" y2="110.15"/><line class="cls-9" x1="157.67" y1="215.3" x2="258.54" y2="109.31"/><line class="cls-9" x1="156.87" y1="214.55" x2="257.75" y2="108.55"/><line class="cls-9" x1="153.2" y1="216.64" x2="256.05" y2="108.57"/><line class="cls-9" x1="152.4" y1="215.89" x2="255.25" y2="107.82"/><line class="cls-9" x1="151.51" y1="215.04" x2="254.36" y2="106.97"/><line class="cls-9" x1="150.72" y1="214.28" x2="253.57" y2="106.21"/><line class="cls-9" x1="149.8" y1="213.41" x2="252.65" y2="105.34"/><line class="cls-9" x1="149.01" y1="212.66" x2="251.86" y2="104.58"/><line class="cls-9" x1="148.11" y1="211.81" x2="250.97" y2="103.74"/><line class="cls-9" x1="147.32" y1="211.05" x2="250.17" y2="102.98"/><line class="cls-9" x1="144.13" y1="212.54" x2="254.31" y2="96.77"/><line class="cls-9" x1="143.34" y1="211.79" x2="253.51" y2="96.02"/><line class="cls-9" x1="142.44" y1="210.94" x2="252.62" y2="95.17"/><line class="cls-9" x1="141.65" y1="210.19" x2="251.83" y2="94.42"/><line class="cls-9" x1="140.73" y1="209.31" x2="250.91" y2="93.54"/><line class="cls-9" x1="139.94" y1="208.56" x2="250.12" y2="92.79"/><line class="cls-9" x1="139.05" y1="207.71" x2="249.23" y2="91.94"/><line class="cls-9" x1="138.25" y1="206.95" x2="248.43" y2="91.18"/><line class="cls-9" x1="137.57" y1="206.3" x2="251.08" y2="87.02"/><line class="cls-9" x1="136.77" y1="205.54" x2="250.29" y2="86.26"/><line class="cls-9" x1="135.88" y1="204.69" x2="249.4" y2="85.41"/><line class="cls-9" x1="135.09" y1="203.94" x2="248.61" y2="84.66"/><line class="cls-9" x1="134.17" y1="203.06" x2="247.69" y2="83.79"/><line class="cls-9" x1="133.38" y1="202.31" x2="246.89" y2="83.03"/><line class="cls-9" x1="132.48" y1="201.46" x2="246" y2="82.18"/><line class="cls-9" x1="131.69" y1="200.71" x2="245.21" y2="81.43"/><line class="cls-9" x1="127.7" y1="203.04" x2="245.87" y2="78.86"/><line class="cls-9" x1="126.91" y1="202.28" x2="245.08" y2="78.11"/><line class="cls-9" x1="126.01" y1="201.43" x2="244.19" y2="77.26"/><line class="cls-9" x1="125.22" y1="200.68" x2="243.4" y2="76.51"/><line class="cls-9" x1="124.3" y1="199.8" x2="242.48" y2="75.63"/><line class="cls-9" x1="123.51" y1="199.05" x2="241.69" y2="74.88"/><line class="cls-9" x1="122.62" y1="198.2" x2="240.79" y2="74.03"/><line class="cls-9" x1="121.83" y1="197.45" x2="240" y2="73.27"/><line class="cls-9" x1="95.53" y1="117.18" x2="159.28" y2="50.19"/><line class="cls-9" x1="96.32" y1="117.94" x2="160.07" y2="50.95"/><line class="cls-9" x1="97.21" y1="118.79" x2="160.97" y2="51.79"/><line class="cls-9" x1="98" y1="119.54" x2="161.76" y2="52.55"/><line class="cls-9" x1="98.92" y1="120.41" x2="162.68" y2="53.42"/><line class="cls-9" x1="93.11" y1="114.88" x2="156.87" y2="47.89"/><line class="cls-9" x1="93.9" y1="115.64" x2="157.66" y2="48.65"/><line class="cls-9" x1="94.82" y1="116.51" x2="158.58" y2="49.52"/><line class="cls-9" x1="99.72" y1="121.17" x2="163.47" y2="54.18"/><line class="cls-9" x1="100.61" y1="122.02" x2="164.36" y2="55.03"/><line class="cls-9" x1="101.4" y1="122.77" x2="165.16" y2="55.78"/><line class="cls-9" x1="96.87" y1="129.4" x2="172.56" y2="49.87"/><line class="cls-9" x1="97.66" y1="130.15" x2="173.35" y2="50.63"/><line class="cls-9" x1="98.56" y1="131" x2="174.24" y2="51.48"/><line class="cls-9" x1="99.35" y1="131.75" x2="175.03" y2="52.23"/><line class="cls-9" x1="100.27" y1="132.63" x2="175.95" y2="53.1"/><line class="cls-9" x1="101.06" y1="133.38" x2="176.74" y2="53.86"/><line class="cls-9" x1="101.95" y1="134.23" x2="177.64" y2="54.71"/><line class="cls-9" x1="102.74" y1="134.99" x2="178.43" y2="55.46"/><line class="cls-9" x1="96.79" y1="142.63" x2="184.65" y2="50.3"/><line class="cls-9" x1="97.58" y1="143.38" x2="185.45" y2="51.06"/><line class="cls-9" x1="98.47" y1="144.23" x2="186.34" y2="51.91"/><line class="cls-9" x1="99.26" y1="144.98" x2="187.13" y2="52.66"/><line class="cls-9" x1="100.18" y1="145.86" x2="188.05" y2="53.53"/><line class="cls-9" x1="100.98" y1="146.61" x2="188.84" y2="54.29"/><line class="cls-9" x1="101.87" y1="147.46" x2="189.73" y2="55.14"/><line class="cls-9" x1="102.66" y1="148.22" x2="190.53" y2="55.89"/><line class="cls-9" x1="96.07" y1="157.01" x2="200.37" y2="47.41"/><line class="cls-9" x1="96.86" y1="157.77" x2="201.16" y2="48.17"/><line class="cls-9" x1="97.75" y1="158.62" x2="202.06" y2="49.02"/><line class="cls-9" x1="98.54" y1="159.37" x2="202.85" y2="49.77"/><line class="cls-9" x1="99.46" y1="160.24" x2="203.77" y2="50.64"/><line class="cls-9" x1="100.25" y1="161" x2="204.56" y2="51.4"/><line class="cls-9" x1="101.15" y1="161.85" x2="205.45" y2="52.25"/><line class="cls-9" x1="101.94" y1="162.6" x2="206.24" y2="53"/><line class="cls-9" x1="99.93" y1="166.48" x2="206.28" y2="54.73"/><line class="cls-9" x1="100.73" y1="167.23" x2="207.07" y2="55.49"/><line class="cls-9" x1="101.62" y1="168.08" x2="207.97" y2="56.34"/><line class="cls-9" x1="102.41" y1="168.84" x2="208.76" y2="57.09"/><line class="cls-9" x1="103.33" y1="169.71" x2="209.68" y2="57.96"/><line class="cls-9" x1="104.12" y1="170.46" x2="210.47" y2="58.72"/><line class="cls-9" x1="105.01" y1="171.31" x2="211.36" y2="59.57"/><line class="cls-9" x1="105.81" y1="172.07" x2="212.15" y2="60.32"/><line class="cls-9" x1="104.4" y1="175.41" x2="218.32" y2="55.71"/><line class="cls-9" x1="105.19" y1="176.17" x2="219.12" y2="56.46"/><line class="cls-9" x1="106.08" y1="177.02" x2="220.01" y2="57.31"/><line class="cls-9" x1="106.88" y1="177.77" x2="220.8" y2="58.06"/><line class="cls-9" x1="107.8" y1="178.64" x2="221.72" y2="58.94"/><line class="cls-9" x1="108.59" y1="179.4" x2="222.51" y2="59.69"/><line class="cls-9" x1="109.48" y1="180.25" x2="223.4" y2="60.54"/><line class="cls-9" x1="110.27" y1="181" x2="224.2" y2="61.3"/><line class="cls-9" x1="110.96" y1="181.66" x2="228.34" y2="58.32"/><line class="cls-9" x1="111.75" y1="182.41" x2="229.13" y2="59.08"/><line class="cls-9" x1="112.65" y1="183.26" x2="230.02" y2="59.93"/><line class="cls-9" x1="113.44" y1="184.02" x2="230.82" y2="60.68"/><line class="cls-9" x1="114.36" y1="184.89" x2="231.74" y2="61.56"/><line class="cls-9" x1="115.15" y1="185.64" x2="232.53" y2="62.31"/><line class="cls-9" x1="116.04" y1="186.49" x2="233.42" y2="63.16"/><line class="cls-9" x1="116.84" y1="187.25" x2="234.21" y2="63.91"/><line class="cls-9" x1="114.6" y1="191.46" x2="236.8" y2="63.07"/><line class="cls-9" x1="115.39" y1="192.21" x2="237.59" y2="63.82"/><line class="cls-9" x1="116.29" y1="193.06" x2="238.48" y2="64.67"/><line class="cls-9" x1="117.08" y1="193.82" x2="239.27" y2="65.42"/><line class="cls-9" x1="118" y1="194.69" x2="240.19" y2="66.3"/><line class="cls-9" x1="118.79" y1="195.45" x2="240.98" y2="67.05"/><line class="cls-9" x1="119.68" y1="196.3" x2="241.88" y2="67.9"/><line class="cls-9" x1="120.48" y1="197.05" x2="242.67" y2="68.65"/><line class="cls-9" x1="268.07" y1="111.04" x2="203.28" y2="49.39"/><line class="cls-9" x1="267.31" y1="111.84" x2="202.52" y2="50.18"/><line class="cls-9" x1="266.46" y1="112.73" x2="201.68" y2="51.07"/><line class="cls-9" x1="265.71" y1="113.52" x2="200.92" y2="51.86"/><line class="cls-9" x1="264.83" y1="114.44" x2="200.05" y2="52.78"/><line class="cls-9" x1="264.08" y1="115.23" x2="199.29" y2="53.57"/><line class="cls-9" x1="263.23" y1="116.13" x2="198.44" y2="54.47"/><line class="cls-9" x1="262.48" y1="116.92" x2="197.69" y2="55.26"/><line class="cls-9" x1="267.14" y1="123.13" x2="190.23" y2="49.94"/><line class="cls-9" x1="266.38" y1="123.92" x2="189.48" y2="50.73"/><line class="cls-9" x1="265.54" y1="124.82" x2="188.63" y2="51.62"/><line class="cls-9" x1="264.78" y1="125.61" x2="187.87" y2="52.41"/><line class="cls-9" x1="263.91" y1="126.53" x2="187" y2="53.33"/><line class="cls-9" x1="263.15" y1="127.32" x2="186.24" y2="54.12"/><line class="cls-9" x1="262.3" y1="128.21" x2="185.39" y2="55.02"/><line class="cls-9" x1="261.55" y1="129" x2="184.64" y2="55.81"/><line class="cls-9" x1="267.65" y1="136.12" x2="178.36" y2="51.15"/><line class="cls-9" x1="266.89" y1="136.92" x2="177.6" y2="51.94"/><line class="cls-9" x1="266.04" y1="137.81" x2="176.76" y2="52.83"/><line class="cls-9" x1="265.29" y1="138.6" x2="176" y2="53.62"/><line class="cls-9" x1="264.42" y1="139.52" x2="175.13" y2="54.54"/><line class="cls-9" x1="263.66" y1="140.31" x2="174.37" y2="55.33"/><line class="cls-9" x1="262.81" y1="141.2" x2="173.52" y2="56.23"/><line class="cls-9" x1="262.06" y1="142" x2="172.77" y2="57.02"/><line class="cls-9" x1="268.82" y1="150.21" x2="162.82" y2="49.33"/><line class="cls-9" x1="268.07" y1="151" x2="162.07" y2="50.12"/><line class="cls-9" x1="267.22" y1="151.89" x2="161.22" y2="51.02"/><line class="cls-9" x1="266.46" y1="152.68" x2="160.47" y2="51.81"/><line class="cls-9" x1="265.59" y1="153.6" x2="159.59" y2="52.73"/><line class="cls-9" x1="264.83" y1="154.39" x2="158.84" y2="53.52"/><line class="cls-9" x1="263.98" y1="155.29" x2="157.99" y2="54.41"/><line class="cls-9" x1="263.23" y1="156.08" x2="157.24" y2="55.2"/><line class="cls-9" x1="265.33" y1="159.76" x2="157.25" y2="56.91"/><line class="cls-9" x1="264.57" y1="160.55" x2="156.5" y2="57.7"/><line class="cls-9" x1="263.72" y1="161.44" x2="155.65" y2="58.59"/><line class="cls-9" x1="262.97" y1="162.23" x2="154.9" y2="59.38"/><line class="cls-9" x1="262.09" y1="163.15" x2="154.02" y2="60.3"/><line class="cls-9" x1="261.34" y1="163.95" x2="153.27" y2="61.09"/><line class="cls-9" x1="260.49" y1="164.84" x2="152.42" y2="61.99"/><line class="cls-9" x1="259.74" y1="165.63" x2="151.67" y2="62.78"/><line class="cls-9" x1="261.23" y1="168.83" x2="145.46" y2="58.65"/><line class="cls-9" x1="260.47" y1="169.62" x2="144.7" y2="59.44"/><line class="cls-9" x1="259.62" y1="170.51" x2="143.85" y2="60.33"/><line class="cls-9" x1="258.87" y1="171.3" x2="143.1" y2="61.12"/><line class="cls-9" x1="257.99" y1="172.22" x2="142.22" y2="62.04"/><line class="cls-9" x1="257.24" y1="173.01" x2="141.47" y2="62.84"/><line class="cls-9" x1="256.39" y1="173.91" x2="140.62" y2="63.73"/><line class="cls-9" x1="255.64" y1="174.7" x2="139.87" y2="64.52"/><line class="cls-9" x1="254.98" y1="175.39" x2="135.7" y2="61.87"/><line class="cls-9" x1="254.23" y1="176.18" x2="134.95" y2="62.66"/><line class="cls-9" x1="253.38" y1="177.07" x2="134.1" y2="63.55"/><line class="cls-9" x1="252.62" y1="177.87" x2="133.34" y2="64.35"/><line class="cls-9" x1="251.75" y1="178.78" x2="132.47" y2="65.27"/><line class="cls-9" x1="250.99" y1="179.58" x2="131.72" y2="66.06"/><line class="cls-9" x1="250.15" y1="180.47" x2="130.87" y2="66.95"/><line class="cls-9" x1="249.39" y1="181.26" x2="130.11" y2="67.74"/><line class="cls-9" x1="251.72" y1="185.25" x2="127.55" y2="67.08"/><line class="cls-9" x1="250.97" y1="186.05" x2="126.79" y2="67.87"/><line class="cls-9" x1="250.12" y1="186.94" x2="125.94" y2="68.76"/><line class="cls-9" x1="249.36" y1="187.73" x2="125.19" y2="69.56"/><line class="cls-9" x1="248.49" y1="188.65" x2="124.31" y2="70.47"/><line class="cls-9" x1="247.73" y1="189.44" x2="123.56" y2="71.27"/><line class="cls-9" x1="246.88" y1="190.34" x2="122.71" y2="72.16"/><line class="cls-9" x1="246.13" y1="191.13" x2="121.96" y2="72.95"/><line class="cls-9" x1="165.87" y1="217.43" x2="98.88" y2="153.67"/><line class="cls-9" x1="166.62" y1="216.63" x2="99.63" y2="152.88"/><line class="cls-9" x1="167.47" y1="215.74" x2="100.48" y2="151.99"/><line class="cls-9" x1="168.22" y1="214.95" x2="101.23" y2="151.19"/><line class="cls-9" x1="169.1" y1="214.03" x2="102.11" y2="150.28"/><line class="cls-9" x1="163.57" y1="219.84" x2="96.58" y2="156.09"/><line class="cls-9" x1="164.32" y1="219.05" x2="97.33" y2="155.29"/><line class="cls-9" x1="165.2" y1="218.13" x2="98.21" y2="154.37"/><line class="cls-9" x1="169.85" y1="213.24" x2="102.86" y2="149.48"/><line class="cls-9" x1="170.7" y1="212.35" x2="103.71" y2="148.59"/><line class="cls-9" x1="171.46" y1="211.55" x2="104.46" y2="147.8"/><line class="cls-9" x1="178.08" y1="216.08" x2="98.56" y2="140.4"/><line class="cls-9" x1="178.83" y1="215.29" x2="99.31" y2="139.61"/><line class="cls-9" x1="179.68" y1="214.4" x2="100.16" y2="138.71"/><line class="cls-9" x1="180.44" y1="213.6" x2="100.91" y2="137.92"/><line class="cls-9" x1="181.31" y1="212.69" x2="101.79" y2="137"/><line class="cls-9" x1="182.07" y1="211.89" x2="102.54" y2="136.21"/><line class="cls-9" x1="182.92" y1="211" x2="103.39" y2="135.32"/><line class="cls-9" x1="183.67" y1="210.21" x2="104.15" y2="134.53"/><line class="cls-9" x1="191.31" y1="216.17" x2="98.99" y2="128.3"/><line class="cls-9" x1="192.07" y1="215.37" x2="99.74" y2="127.51"/><line class="cls-9" x1="192.91" y1="214.48" x2="100.59" y2="126.62"/><line class="cls-9" x1="193.67" y1="213.69" x2="101.34" y2="125.82"/><line class="cls-9" x1="194.54" y1="212.77" x2="102.22" y2="124.9"/><line class="cls-9" x1="195.3" y1="211.98" x2="102.97" y2="124.11"/><line class="cls-9" x1="196.15" y1="211.09" x2="103.82" y2="123.22"/><line class="cls-9" x1="196.9" y1="210.29" x2="104.58" y2="122.43"/><line class="cls-9" x1="205.7" y1="216.89" x2="96.1" y2="112.58"/><line class="cls-9" x1="206.45" y1="216.09" x2="96.85" y2="111.79"/><line class="cls-9" x1="207.3" y1="215.2" x2="97.7" y2="110.9"/><line class="cls-9" x1="208.05" y1="214.41" x2="98.45" y2="110.1"/><line class="cls-9" x1="208.93" y1="213.49" x2="99.33" y2="109.19"/><line class="cls-9" x1="209.68" y1="212.7" x2="100.08" y2="108.39"/><line class="cls-9" x1="210.53" y1="211.81" x2="100.93" y2="107.5"/><line class="cls-9" x1="211.28" y1="211.01" x2="101.69" y2="106.71"/><line class="cls-9" x1="215.16" y1="213.02" x2="103.42" y2="106.67"/><line class="cls-9" x1="215.92" y1="212.23" x2="104.17" y2="105.88"/><line class="cls-9" x1="216.77" y1="211.34" x2="105.02" y2="104.99"/><line class="cls-9" x1="217.52" y1="210.54" x2="105.77" y2="104.19"/><line class="cls-9" x1="218.39" y1="209.62" x2="106.65" y2="103.28"/><line class="cls-9" x1="219.15" y1="208.83" x2="107.4" y2="102.48"/><line class="cls-9" x1="220" y1="207.94" x2="108.25" y2="101.59"/><line class="cls-9" x1="220.75" y1="207.15" x2="109.01" y2="100.8"/><line class="cls-9" x1="224.1" y1="208.55" x2="104.39" y2="94.63"/><line class="cls-9" x1="224.85" y1="207.76" x2="105.14" y2="93.84"/><line class="cls-9" x1="225.7" y1="206.87" x2="105.99" y2="92.94"/><line class="cls-9" x1="226.45" y1="206.08" x2="106.75" y2="92.15"/><line class="cls-9" x1="227.33" y1="205.16" x2="107.62" y2="91.23"/><line class="cls-9" x1="228.08" y1="204.37" x2="108.38" y2="90.44"/><line class="cls-9" x1="228.93" y1="203.47" x2="109.23" y2="89.55"/><line class="cls-9" x1="229.69" y1="202.68" x2="109.98" y2="88.76"/><line class="cls-9" x1="230.34" y1="201.99" x2="107.01" y2="84.61"/><line class="cls-9" x1="231.1" y1="201.2" x2="107.76" y2="83.82"/><line class="cls-9" x1="231.95" y1="200.31" x2="108.61" y2="82.93"/><line class="cls-9" x1="232.7" y1="199.51" x2="109.36" y2="82.14"/><line class="cls-9" x1="233.57" y1="198.6" x2="110.24" y2="81.22"/><line class="cls-9" x1="234.33" y1="197.8" x2="110.99" y2="80.42"/><line class="cls-9" x1="235.18" y1="196.91" x2="111.84" y2="79.53"/><line class="cls-9" x1="235.93" y1="196.12" x2="112.6" y2="78.74"/><line class="cls-9" x1="240.14" y1="198.35" x2="111.75" y2="76.16"/><line class="cls-9" x1="240.9" y1="197.56" x2="112.5" y2="75.36"/><line class="cls-9" x1="241.75" y1="196.67" x2="113.35" y2="74.47"/><line class="cls-9" x1="242.5" y1="195.87" x2="114.11" y2="73.68"/><line class="cls-9" x1="243.38" y1="194.95" x2="114.98" y2="72.76"/><line class="cls-9" x1="244.13" y1="194.16" x2="115.74" y2="71.97"/><line class="cls-9" x1="244.98" y1="193.27" x2="116.58" y2="71.08"/><line class="cls-9" x1="245.73" y1="192.48" x2="117.34" y2="70.28"/><circle class="cls-6" cx="180.82" cy="401.36" r="71.42"/><path class="cls-7" d="M104.33,401.36a76.49,76.49,0,1,0,76.49-76.49A76.48,76.48,0,0,0,104.33,401.36Zm136.22,0a59.73,59.73,0,1,1-59.73-59.73A59.73,59.73,0,0,1,240.55,401.36Z"/><path class="cls-8" d="M121.09,401.36a59.73,59.73,0,1,0,59.73-59.73A59.73,59.73,0,0,0,121.09,401.36Zm106.37,0a46.64,46.64,0,1,1-46.64-46.65A46.64,46.64,0,0,1,227.46,401.36Z"/><g id="rak-main-white"><g class="cls-10"><g class="cls-11"><path class="cls-3" d="M65.78,180.18a2.86,2.86,0,0,1,1-.22l2.31-.06c0-.47-.06-1.09-.06-1.5s0-1.76-.07-3.75v-.13a1.79,1.79,0,0,0-1.7-1.88c-1.32-.14-1.64.58-1.65.61a7.25,7.25,0,0,0-.52,2.94c0,.16,0,.32,0,.48a18.69,18.69,0,0,0,.63,3.51"/><path class="cls-3" d="M64.26,182.42a3.06,3.06,0,0,1,.21-.8,3.21,3.21,0,0,1,.59-1,18,18,0,0,1-.72-3.76q0-.37,0-.75a9.32,9.32,0,0,1,.36-2.65,3.17,3.17,0,0,0-.37-.41,2,2,0,0,0-1-.5,2.11,2.11,0,0,0-1.53.21c-.44.23-.65.82-.65,1.76,0,.13,0,.27,0,.42s0,.4,0,.63a9.18,9.18,0,0,0,.59,3.2,10.87,10.87,0,0,0,2.56,3.64"/><path class="cls-3" d="M64.2,186.89a3.34,3.34,0,0,1,.24-1.28,3.27,3.27,0,0,1,.71-.93,3.16,3.16,0,0,1-.36-.31,2.39,2.39,0,0,1-.42-.73c-.35-.32-1-.92-1.57-1.54a10.54,10.54,0,0,1-2.21-3.94,9.27,9.27,0,0,1-.37-2.82c0-.69.05-1.25.07-1.45a2.38,2.38,0,0,0-1.75-1c-1.44,0-1.78.55-1.9,3a11.65,11.65,0,0,0,2.77,7.72,12.81,12.81,0,0,0,4.79,3.35"/><path class="cls-3" d="M69.87,176.61c.41,0,1.07-.06,1.5-.06l3.47-.06h.41a2,2,0,0,0,1.9-2c0-1.06-.62-1.33-.63-1.33a7.67,7.67,0,0,0-3.42-.51,18.84,18.84,0,0,0-3.51.63,2.86,2.86,0,0,1,.22,1.05c0,.19,0,.75.06,2.31"/><path class="cls-3" d="M76.3,172.14a4.09,4.09,0,0,0,.42-.38,1.9,1.9,0,0,0,.49-1,2.35,2.35,0,0,0,.06-.51,2.13,2.13,0,0,0-.27-1c-.23-.44-.82-.66-1.76-.66h-.42a9.13,9.13,0,0,0-3.83.58,11,11,0,0,0-3.64,2.56,2.93,2.93,0,0,1,.8.2,3.17,3.17,0,0,1,1,.6,18.21,18.21,0,0,1,3.76-.73,9.73,9.73,0,0,1,3.4.34"/><path class="cls-3" d="M75.88,167.76a2.37,2.37,0,0,0,1-1.73c0-1.46-.54-1.8-3-1.92a11.7,11.7,0,0,0-7.72,2.77,12.68,12.68,0,0,0-3.34,4.79,3.14,3.14,0,0,1,1.27.23,3.29,3.29,0,0,1,.93.72,3.16,3.16,0,0,1,.31-.36,2.35,2.35,0,0,1,.73-.42c.26-.29.89-1,1.54-1.57a10.56,10.56,0,0,1,3.94-2.22,11.54,11.54,0,0,1,4.27-.29"/><path class="cls-3" d="M73.19,177.32c0,.36.06,1.05.06,1.49s0,1.66.07,3.69v.2a1.79,1.79,0,0,0,1.7,1.88c1.32.14,1.64-.58,1.65-.61a7.8,7.8,0,0,0,.51-3.42,18.69,18.69,0,0,0-.63-3.51,2.86,2.86,0,0,1-1,.22l-2.3.06Z"/><path class="cls-3" d="M77.66,183.75a3.48,3.48,0,0,0,.38.41,2,2,0,0,0,1,.5,2.09,2.09,0,0,0,1.52-.21c.44-.23.66-.82.66-1.76,0-.12,0-.26,0-.41s0-.41,0-.64a9.33,9.33,0,0,0-.6-3.21,11,11,0,0,0-2.56-3.63,2.68,2.68,0,0,1-.2.8,3.09,3.09,0,0,1-.6,1,18.05,18.05,0,0,1,.73,3.77c0,.24,0,.5,0,.75a9.63,9.63,0,0,1-.36,2.65"/><path class="cls-3" d="M82,183.32a2.44,2.44,0,0,0,1.76,1c1.44,0,1.77-.55,1.89-3,0-.14,0-.28,0-.42a12,12,0,0,0-2.78-7.3,12.75,12.75,0,0,0-4.79-3.34,3.46,3.46,0,0,1-.23,1.28,3.12,3.12,0,0,1-.72.93,2,2,0,0,1,.78,1c.23.21,1,.87,1.57,1.55a10.62,10.62,0,0,1,2.22,3.94,9.5,9.5,0,0,1,.37,2.82,11.37,11.37,0,0,1-.08,1.44"/><path class="cls-3" d="M65.2,182.78c0,1.05.61,1.32.63,1.33a7.86,7.86,0,0,0,3.42.51,18.53,18.53,0,0,0,3.51-.63,2.91,2.91,0,0,1-.22-1.05c0-.23,0-.81-.06-2.31-.33,0-1,.05-1.49.05l-3.76.07H67.1a1.79,1.79,0,0,0-1.88,1.7c0,.11,0,.22,0,.32"/><path class="cls-3" d="M65.08,187a2.13,2.13,0,0,0,.27,1c.23.43.82.66,1.76.66h.43a9.34,9.34,0,0,0,3.83-.58A11,11,0,0,0,75,185.51a3.06,3.06,0,0,1-.8-.21,2.94,2.94,0,0,1-1-.59,18.23,18.23,0,0,1-3.77.72,9.81,9.81,0,0,1-3.4-.33,5.21,5.21,0,0,0-.41.37,2,2,0,0,0-.5,1,2.44,2.44,0,0,0-.06.52"/><path class="cls-3" d="M65.44,191.23c0,1.44.55,1.78,3,1.9a11.77,11.77,0,0,0,7.72-2.77,12.87,12.87,0,0,0,3.34-4.79,3.34,3.34,0,0,1-1.28-.24,3.27,3.27,0,0,1-.93-.71A2.88,2.88,0,0,1,77,185a2.12,2.12,0,0,1-.73.41A20.48,20.48,0,0,1,74.68,187a10.62,10.62,0,0,1-3.94,2.22,12,12,0,0,1-4.26.29,2.38,2.38,0,0,0-1,1.73Z"/><path class="cls-3" d="M61,143.36a6.32,6.32,0,0,1,.44-2.44,5.76,5.76,0,0,1,1.19-1.86,5.31,5.31,0,0,1,1.77-1.19,5.73,5.73,0,0,1,2.16-.41,6,6,0,0,1,3.07.75,4.67,4.67,0,0,1,2,2.44h.06a3.45,3.45,0,0,1,.69-1.35,3.92,3.92,0,0,1,1.1-.88,5.15,5.15,0,0,1,1.4-.49,12.92,12.92,0,0,1,1.52-.21l1.13-.06c.43,0,.87,0,1.32-.1a9.9,9.9,0,0,0,1.29-.22,3.06,3.06,0,0,0,1-.47v4.43a7.44,7.44,0,0,1-2.29.45c-.88.06-1.73.14-2.54.26a4,4,0,0,0-2.31,1,3.3,3.3,0,0,0-.73,2.4v4.43h7.87v4.43H61Zm9.11,1.58a3.34,3.34,0,0,0-.67-2.28,2.81,2.81,0,0,0-2.2-.77,2.71,2.71,0,0,0-2.14.77,3.39,3.39,0,0,0-.66,2.28v4.86h5.67Z"/><path class="cls-3" d="M61,124.3l20.15-7.54v4.6l-4.49,1.53v7.53L81.19,132v4.46L61,128.84Zm12.36-.25L66,126.59v0l7.39,2.63Z"/><polygon class="cls-3" points="61.04 111.38 69.39 111.38 61.04 103.5 61.04 97.97 69 105.85 81.19 97.21 81.19 102.77 72.13 108.84 74.7 111.38 81.19 111.38 81.19 115.81 61.04 115.81 61.04 111.38"/><rect class="cls-3" x="85.39" y="153.13" width="4.67" height="1.03"/><path class="cls-3" d="M87.68,152.26a1.53,1.53,0,0,1-.56-.31,1.43,1.43,0,0,1-.38-.52,1.85,1.85,0,0,1,0-1.41,1.43,1.43,0,0,1,.38-.52,1.53,1.53,0,0,1,.56-.31,2.25,2.25,0,0,1,1.39,0,1.61,1.61,0,0,1,.56.31A1.41,1.41,0,0,1,90,150a1.85,1.85,0,0,1,0,1.41,1.41,1.41,0,0,1-.37.52,1.61,1.61,0,0,1-.56.31,2.25,2.25,0,0,1-1.39,0m1.24-.56a1.2,1.2,0,0,0,.4-.23,1,1,0,0,0,.25-.33,1.15,1.15,0,0,0,.08-.41,1.11,1.11,0,0,0-.08-.41,1,1,0,0,0-.25-.34,1.4,1.4,0,0,0-.4-.23,1.8,1.8,0,0,0-.54-.08,1.82,1.82,0,0,0-.55.08,1.4,1.4,0,0,0-.4.23.91.91,0,0,0-.25.34,1,1,0,0,0-.09.41,1,1,0,0,0,.09.41.88.88,0,0,0,.25.33,1.2,1.2,0,0,0,.4.23,1.82,1.82,0,0,0,.55.08,1.8,1.8,0,0,0,.54-.08"/><polygon class="cls-3" points="86.26 149.21 85.39 149.21 85.39 145.38 86.26 145.38 86.26 146.78 90.06 146.78 90.06 147.81 86.26 147.81 86.26 149.21"/><polygon class="cls-3" points="85.39 142.37 89.32 140.9 85.39 139.42 85.39 138.57 90.06 138.57 90.06 139.16 86.18 139.16 86.18 139.17 90.06 140.63 90.06 141.16 86.18 142.62 86.18 142.63 90.06 142.63 90.06 143.22 85.39 143.22 85.39 142.37"/><path class="cls-3" d="M90.05,134.61a.76.76,0,0,1,.09.4.48.48,0,0,1-.13.34.5.5,0,0,1-.39.13A1.33,1.33,0,0,1,90,136a1.8,1.8,0,0,1,.13.66,1.61,1.61,0,0,1-.06.44,1,1,0,0,1-.16.35.76.76,0,0,1-.29.24,1,1,0,0,1-.44.09.94.94,0,0,1-.47-.1.83.83,0,0,1-.3-.26,1.33,1.33,0,0,1-.17-.36c0-.14-.07-.28-.1-.43s-.05-.29-.07-.43a1.68,1.68,0,0,0-.06-.36.54.54,0,0,0-.13-.25.29.29,0,0,0-.23-.09.53.53,0,0,0-.3.07.46.46,0,0,0-.17.17.85.85,0,0,0-.08.24,2.45,2.45,0,0,0,0,.27,1.2,1.2,0,0,0,.14.59.57.57,0,0,0,.5.25v.56a1.22,1.22,0,0,1-.53-.13,1,1,0,0,1-.34-.32,1.32,1.32,0,0,1-.2-.45,2.2,2.2,0,0,1-.06-.53,2.32,2.32,0,0,1,0-.46,1.1,1.1,0,0,1,.13-.41.78.78,0,0,1,.28-.29.85.85,0,0,1,.48-.11h1.74a.94.94,0,0,0,.28,0q.09,0,.09-.15a.56.56,0,0,0,0-.17Zm-1.73.9a.66.66,0,0,1,.11.28l.06.35c0,.13,0,.25.05.38a1.13,1.13,0,0,0,.1.34.64.64,0,0,0,.18.25.54.54,0,0,0,.33.09.41.41,0,0,0,.23-.06.4.4,0,0,0,.15-.14.67.67,0,0,0,.09-.21.93.93,0,0,0,0-.24,1.39,1.39,0,0,0-.07-.48,1,1,0,0,0-.19-.32.72.72,0,0,0-.25-.18.61.61,0,0,0-.25-.06Z"/><path class="cls-3" d="M90.06,131.61H89.6a.82.82,0,0,1,.41.43,1.71,1.71,0,0,1,.13.65,1.45,1.45,0,0,1-.15.68,1.25,1.25,0,0,1-.39.49,1.85,1.85,0,0,1-.56.29,2.48,2.48,0,0,1-.68.1,2.54,2.54,0,0,1-.68-.1,1.57,1.57,0,0,1-.56-.29,1.5,1.5,0,0,1-.38-.48,1.62,1.62,0,0,1-.14-.68,1.41,1.41,0,0,1,0-.28,1.71,1.71,0,0,1,.09-.3,1,1,0,0,1,.16-.28.92.92,0,0,1,.25-.23H85.39v-.56h4.67Zm-1.2,2a1.06,1.06,0,0,0,.4-.19.89.89,0,0,0,.29-.32,1,1,0,0,0,.1-.47,1,1,0,0,0-.11-.48.89.89,0,0,0-.29-.32,1.38,1.38,0,0,0-.41-.18,1.8,1.8,0,0,0-.46,0,2,2,0,0,0-.49.06,1,1,0,0,0-.4.18,1,1,0,0,0-.29.33,1.07,1.07,0,0,0-.11.49,1,1,0,0,0,.11.48,1,1,0,0,0,.3.32,1.31,1.31,0,0,0,.42.16,1.91,1.91,0,0,0,.48.06,1.43,1.43,0,0,0,.46-.07"/><path class="cls-3" d="M89.85,127.78a1.53,1.53,0,0,1,.29.95,1.73,1.73,0,0,1-.14.71,1.28,1.28,0,0,1-.36.5,1.77,1.77,0,0,1-.56.3,2.71,2.71,0,0,1-.72.12,2,2,0,0,1-.7-.12,1.73,1.73,0,0,1-.56-.33,1.46,1.46,0,0,1-.37-.51,1.61,1.61,0,0,1-.13-.63,1.39,1.39,0,0,1,.66-1.23,2,2,0,0,1,.63-.25,2.94,2.94,0,0,1,.65-.05v2.53a1.42,1.42,0,0,0,.42-.06.9.9,0,0,0,.35-.18.86.86,0,0,0,.25-.34,1.14,1.14,0,0,0,.09-.48.94.94,0,0,0-.16-.57.78.78,0,0,0-.5-.3v-.55a1.35,1.35,0,0,1,.86.49m-2.17.13a1,1,0,0,0-.31.21,1,1,0,0,0-.28.68,1,1,0,0,0,.08.39,1,1,0,0,0,.21.3.91.91,0,0,0,.3.19,1.12,1.12,0,0,0,.37.09v-2a1.12,1.12,0,0,0-.37.09"/><polygon class="cls-3" points="85.39 121.79 85.92 121.79 85.92 124.39 87.4 124.39 87.4 121.96 87.92 121.96 87.92 124.39 89.54 124.39 89.54 121.77 90.06 121.77 90.06 125.01 85.39 125.01 85.39 121.79"/><path class="cls-3" d="M90.05,118.08a.76.76,0,0,1,.09.4.48.48,0,0,1-.13.34.5.5,0,0,1-.39.13,1.33,1.33,0,0,1,.39.53,1.8,1.8,0,0,1,.13.66,1.49,1.49,0,0,1-.06.43,1,1,0,0,1-.16.36.76.76,0,0,1-.29.24,1,1,0,0,1-.44.09,1.06,1.06,0,0,1-.47-.1.83.83,0,0,1-.3-.26,1.4,1.4,0,0,1-.17-.37c0-.13-.07-.27-.1-.42s-.05-.29-.07-.43a1.91,1.91,0,0,0-.06-.37.55.55,0,0,0-.13-.24.29.29,0,0,0-.23-.1.63.63,0,0,0-.3.07.58.58,0,0,0-.17.18.85.85,0,0,0-.08.24,2.45,2.45,0,0,0,0,.27,1.2,1.2,0,0,0,.14.59.57.57,0,0,0,.5.25v.56a1.38,1.38,0,0,1-.53-.13,1,1,0,0,1-.34-.32,1.32,1.32,0,0,1-.2-.45,2.23,2.23,0,0,1-.06-.54,2.28,2.28,0,0,1,0-.45,1.1,1.1,0,0,1,.13-.41.78.78,0,0,1,.28-.29.85.85,0,0,1,.48-.11h1.74a.94.94,0,0,0,.28,0q.09,0,.09-.15a.52.52,0,0,0,0-.17Zm-1.73.9a.66.66,0,0,1,.11.28l.06.35c0,.13,0,.25.05.38a1.22,1.22,0,0,0,.1.34.55.55,0,0,0,.18.24.48.48,0,0,0,.33.1.41.41,0,0,0,.23-.06.4.4,0,0,0,.15-.14.67.67,0,0,0,.09-.21.93.93,0,0,0,0-.24,1.39,1.39,0,0,0-.07-.48,1,1,0,0,0-.19-.32.72.72,0,0,0-.25-.18.61.61,0,0,0-.25-.06Z"/><path class="cls-3" d="M89.31,117.09a.8.8,0,0,0,.2-.21.92.92,0,0,0,.11-.29,1.76,1.76,0,0,0,0-.33,2.45,2.45,0,0,0,0-.27,1.07,1.07,0,0,0-.07-.27.62.62,0,0,0-.15-.2.45.45,0,0,0-.26-.08.37.37,0,0,0-.33.17,1.57,1.57,0,0,0-.18.41,3.77,3.77,0,0,0-.12.53,2.74,2.74,0,0,1-.16.53,1,1,0,0,1-.29.41.73.73,0,0,1-.51.16.75.75,0,0,1-.43-.11.93.93,0,0,1-.3-.29,1.36,1.36,0,0,1-.17-.41,1.74,1.74,0,0,1-.06-.45,2.89,2.89,0,0,1,.05-.53,1.25,1.25,0,0,1,.17-.43.85.85,0,0,1,.33-.29,1.13,1.13,0,0,1,.51-.13v.55a.54.54,0,0,0-.27.09.49.49,0,0,0-.17.18.69.69,0,0,0-.1.25,1.18,1.18,0,0,0,0,.27,2.29,2.29,0,0,0,0,.25,1.55,1.55,0,0,0,.07.23.45.45,0,0,0,.13.17.38.38,0,0,0,.22.07.3.3,0,0,0,.23-.11.63.63,0,0,0,.16-.25,3.07,3.07,0,0,0,.11-.36c0-.13,0-.26.08-.39s.07-.28.11-.41a1.64,1.64,0,0,1,.18-.35.81.81,0,0,1,.27-.25.83.83,0,0,1,.41-.1,1,1,0,0,1,.51.13,1,1,0,0,1,.32.34,1.34,1.34,0,0,1,.18.46,2.94,2.94,0,0,1,0,.51,2.35,2.35,0,0,1-.06.54,1.32,1.32,0,0,1-.2.45,1,1,0,0,1-.35.32,1.38,1.38,0,0,1-.53.13v-.56a.62.62,0,0,0,.31-.08"/><path class="cls-3" d="M90.51,113a2.85,2.85,0,0,1,.42.19,1.08,1.08,0,0,1,.28.21.71.71,0,0,1,.16.26,1,1,0,0,1,0,.32,1.36,1.36,0,0,1,0,.2.65.65,0,0,1,0,.19h-.51a.84.84,0,0,0,.05-.17.52.52,0,0,0-.05-.45.61.61,0,0,0-.24-.17l-.57-.23-3.36,1.34V114l2.77-1v0l-2.77-.94v-.59Z"/><path class="cls-3" d="M63.67,91.18A2.71,2.71,0,1,1,61,93.88a2.65,2.65,0,0,1,2.63-2.7m0,4.74a2,2,0,1,0-2.1-2,2,2,0,0,0,2.1,2m1.39-1.62v.61H62.42a5.19,5.19,0,0,1-.08-1,1.7,1.7,0,0,1,.19-.92.75.75,0,0,1,.58-.25.66.66,0,0,1,.61.54h0a.8.8,0,0,1,.65-.48,2.23,2.23,0,0,0,.66-.19v.66a2.7,2.7,0,0,1-.65.21c-.29,0-.41.2-.41.54v.29Zm-1.5,0V94c0-.34-.11-.62-.38-.62s-.41.18-.41.57a1.11,1.11,0,0,0,0,.33Z"/></g></g></g><path class="cls-3" d="M245.87,319.2l63.35-30.81V350Zm-3.45,0,68.3,33.25V286Z"/><rect class="cls-3" x="261.41" y="313.25" width="43.75" height="1.5" transform="translate(-129.53 405.8) rotate(-60.48)"/><rect class="cls-3" x="263.24" y="312.69" width="48.39" height="1.5" transform="translate(-126.94 409.12) rotate(-60.48)"/><path class="cls-3" d="M275.3,328l-.68,1.31a73,73,0,0,1-7.5-4.38c-2.88-2.06-5.28-13.2-5.58-14.43l1.5-.34c1,4.57,3.15,12.26,4.95,13.53,2.62,1.87,7.16,4.27,7.19,4.31"/><path class="cls-3" d="M286.62,308.86l-1.13.63a5.77,5.77,0,0,0-5.13-2.81,20,20,0,0,1-6.94-1.12l.49-1.43a19.77,19.77,0,0,0,6.33,1.05,7.12,7.12,0,0,1,6.56,3.56"/><path class="cls-3" d="M294.68,325v.59c-.38,3.15-10.28,7.13-10.39,7.16a6.76,6.76,0,0,1-6.9-1.94l1.09-1.05s2.59,2.66,5.25,1.57c4.35-1.72,9.3-4.61,9.45-5.92,0-.71,0-1.13-.23-1.24s-.79,0-1.5.64A17.06,17.06,0,0,1,284,328a13.57,13.57,0,0,1-3.74-1.69l.78-1.27a12.25,12.25,0,0,0,3.08,1.46,16.55,16.55,0,0,0,6.48-2.92c1.65-1.28,2.7-1,3.23-.75a2.37,2.37,0,0,1,1,2.14"/><path class="cls-3" d="M297.67,319.09a1.79,1.79,0,0,1-.22.9c-.26.56-1,1.16-2.62,1a25.12,25.12,0,0,1-9-5l1-1.16a23,23,0,0,0,8.21,4.64c.68,0,1.05,0,1.13-.18a5,5,0,0,0-1.28-2.74,43.38,43.38,0,0,0-6.48-4.87l.82-1.28a49.23,49.23,0,0,1,6.79,5.14,6.21,6.21,0,0,1,1.68,3.56"/><path class="cls-3" d="M292.24,319.54a16.26,16.26,0,0,1-2.51,6.22l-1.28-.78a11.82,11.82,0,0,0,2.25-5.67,1.28,1.28,0,0,0-1.08,0c-.9.27-1.84,1.43-2.63,3.15a4.15,4.15,0,0,1-2.32,2.48,3.74,3.74,0,0,1-3.26-.83l.78-1.27a2.8,2.8,0,0,0,2,.64c.52,0,1-.72,1.42-1.65a6.62,6.62,0,0,1,3.6-4.09,2.68,2.68,0,0,1,2.32.3,1.54,1.54,0,0,1,.68,1v.53"/><rect class="cls-3" x="249.32" y="316.02" width="1.5" height="6.07"/><rect class="cls-3" x="253.03" y="314.52" width="1.5" height="9.37"/><rect class="cls-3" x="256.7" y="312.75" width="1.5" height="12.93"/><rect class="cls-3" x="260.41" y="310.96" width="1.5" height="16.53"/><rect class="cls-3" x="264.09" y="319.16" width="1.5" height="9.82"/><rect class="cls-3" x="267.8" y="324.94" width="1.5" height="6.15"/><rect class="cls-3" x="271.47" y="327.3" width="1.5" height="5.25"/><rect class="cls-3" x="278.89" y="331.57" width="1.5" height="4.91"/><rect class="cls-3" x="278.89" y="301.96" width="1.5" height="3.94"/><rect class="cls-3" x="282.57" y="332.02" width="1.5" height="6.26"/><rect class="cls-3" x="282.57" y="300.27" width="1.5" height="6.26"/><rect class="cls-3" x="286.28" y="330.67" width="1.5" height="9.07"/><rect class="cls-3" x="286.28" y="298.36" width="1.5" height="9"/><rect class="cls-3" x="289.95" y="328.61" width="1.5" height="13.27"/><rect class="cls-3" x="289.95" y="307.54" width="1.5" height="4.76"/><rect class="cls-12" x="289.95" y="296.79" width="1.5" height="4.05"/><rect class="cls-3" x="293.66" y="320.25" width="1.5" height="23.43"/><rect class="cls-3" x="293.66" y="300.83" width="1.5" height="14.24"/><rect class="cls-3" x="297.34" y="294.72" width="1.5" height="50.16"/><rect class="cls-3" x="301.05" y="291.2" width="1.5" height="56.08"/><rect class="cls-3" x="304.76" y="289.44" width="1.5" height="59.79"/><g id="dispose-properly"><g id="Layer_2-2" data-name="Layer 2-2"><g id="Layer_1-2" data-name="Layer 1-2"><path class="cls-13" d="M300.62,532.14a2.38,2.38,0,0,0,2.1,2.62H303a1.93,1.93,0,0,0,.48,0,2.38,2.38,0,1,0-2.82-2.58m2.9.23v.32a.56.56,0,0,1-.79,0h0a.58.58,0,0,1-.24-.43h0a.47.47,0,0,1,.48-.48h0a.56.56,0,0,1,.56.55"/><path class="cls-13" d="M250.37,518.16l-1.15,1.15,4.21,4,2.43,2.34h0l-2.43-.24V523.2h-1.19a2.86,2.86,0,0,0-5.36,2,2.74,2.74,0,0,0,1,1.31,15,15,0,0,0-1.9,3.41A32.82,32.82,0,0,0,244.3,537h-1.63V548.1H244a39.28,39.28,0,0,0,.75,5.72h-.91v4.73h2.23a14.7,14.7,0,0,0,2.82,4.33.92.92,0,0,0,.79.27h.67v2.67h3.1v-2.94l5.17-.48-8.23,7.94,1.16,1.16,9.65-9.66c6.55-.59,13.14-1.23,19.86-1.82,3.29-.32,6.63-.6,10-.92l8.66,8.3,1.15-1.11-7.66-7.38,11.44-1a1,1,0,0,0,.91-1h5v-4h-5V538.85a6.95,6.95,0,0,0-4.1-13.28,6.58,6.58,0,0,0-.78.29,6.84,6.84,0,0,0-4,4H295.1l6.71-6.43-1.19-1.27-7.71,7.35c-4-.36-7.94-.76-11.91-1.12-5.8-.51-11.68-1.07-17.48-1.63v-5.08h-7.66v2Zm-2.06,6.15a1.27,1.27,0,0,1,1.27-1.27,1.26,1.26,0,0,1,.75.28v1.91h-.67a1,1,0,0,0-.75.27,1.23,1.23,0,0,1-.6-1.11m-4,21.77v-7.11h1.47v7.23Zm1.15,10.4v-1h3.1v1.11ZM249.9,561a14.05,14.05,0,0,1-1.67-2.58h2.07v2.66h-.4m30.86-2.82c-5.68.52-11.4,1-17.12,1.59l13.9-13.31,11.16,11c-2.58.39-5.32.39-7.94.75m28.51-3.69v.91h-2.42v-.91Zm-6.11-15.21h.47v16.8c-4,.39-8.34.75-12.51,1.15l-12.39-11.92,14.54-13.9,2.94.24v.67a7,7,0,0,0,7,7h0m0-10.61a3.65,3.65,0,0,1,.47,7.27h-.47a3.62,3.62,0,0,1-3.62-3.62V532a3.67,3.67,0,0,1,3.62-3.3m-22.4,1.59,10.36,1-13.58,13-8.3-7.94v-1.95h-2.07l-5.75-5.52h2.06c5.76.56,11.56,1.07,17.28,1.63m-13.27,6.59v9.69h-1.43v-10.6h.68ZM256,528.12V529h3.1l5.8,5.36h-.52v14.26h4.93V538.53l7.15,6.83-15.53,14.7-7.47.71v-33l2.43.24m-5.53-.52V553.9H246.8a37.84,37.84,0,0,1-.79-5.72h1.54V537.42h-1.23a33.86,33.86,0,0,1,1.51-6.44,14,14,0,0,1,2.11-3.49h.39m7.27-4h4v3c-1,0-2.06-.2-3.05-.28l-1-1Z"/></g></g></g><path class="cls-14" d="M44,266.1A30.32,30.32,0,0,0,94.9,243.81v-.22a30.54,30.54,0,0,0-30.32-30.1,30.22,30.22,0,0,0-20.55,8ZM82.1,244a17.52,17.52,0,1,1-17.52-17.52A17.52,17.52,0,0,1,82.1,244Z"/><path class="cls-14" d="M318.42,266.1a30.32,30.32,0,0,1-50.87-22.29v-.22a30.54,30.54,0,0,1,30.32-30.1,30.22,30.22,0,0,1,20.55,8ZM280.35,244a17.52,17.52,0,1,0,17.52-17.52A17.53,17.53,0,0,0,280.35,244Z"/><path class="cls-14" d="M80.31,430.65a14.75,14.75,0,0,0-14.64-14.53h0a14.64,14.64,0,1,0,14.64,14.64Zm-14.64,8.68h0a8.46,8.46,0,1,1,8.46-8.46,8.46,8.46,0,0,1-8.46,8.46Z"/><path class="cls-14" d="M123.25,553a14.74,14.74,0,0,0-14.64-14.53h0a14.64,14.64,0,1,0,14.64,14.63Zm-14.64,8.67h0a8.46,8.46,0,1,1,8.46-8.46,8.46,8.46,0,0,1-8.46,8.46Z"/><path class="cls-14" d="M314.18,497.52A14.75,14.75,0,0,0,299.54,483h0a14.64,14.64,0,1,0,14.64,14.64Zm-14.64,8.68h0a8.46,8.46,0,1,1,8.46-8.46,8.45,8.45,0,0,1-8.46,8.46Z"/><circle class="cls-14" cx="102.59" cy="471.9" r="6.49"/><circle class="cls-14" cx="102.59" cy="494.76" r="6.49"/><circle class="cls-14" cx="102.59" cy="519.85" r="6.49"/><rect class="cls-15" x="162.17" y="497.05" width="39.94" height="94.39" rx="2.18" transform="translate(-362.1 726.39) rotate(-90)"/><rect class="cls-16" x="144.01" y="524.08" width="22.57" height="7.37" rx="1.61" transform="translate(-372.46 683.06) rotate(-90)"/><rect class="cls-16" x="129.79" y="547.32" width="22.57" height="18.72" rx="1.61" transform="translate(-415.61 697.76) rotate(-90)"/><rect class="cls-16" x="215.58" y="547.32" width="22.57" height="18.72" rx="1.61" transform="translate(-329.82 783.55) rotate(-90)"/><rect class="cls-16" x="155.33" y="524.08" width="22.57" height="7.37" rx="1.61" transform="translate(-361.14 694.38) rotate(-90)"/><rect class="cls-16" x="166.66" y="524.08" width="22.57" height="7.37" rx="1.61" transform="translate(-349.82 705.7) rotate(-90)"/><rect class="cls-16" x="177.98" y="524.08" width="22.57" height="7.37" rx="1.61" transform="translate(-338.5 717.02) rotate(-90)"/><rect class="cls-16" x="189.54" y="524.08" width="22.57" height="7.37" rx="1.61" transform="translate(-326.94 728.59) rotate(-90)"/><rect class="cls-16" x="200.55" y="524.08" width="22.57" height="7.37" rx="1.61" transform="translate(-315.92 739.6) rotate(-90)"/><g id="r-01-4"><g class="cls-17"><g class="cls-17"><path class="cls-18" d="M65,529.74V518.82a1.46,1.46,0,0,1,1.33-1.57h3.15a1.46,1.46,0,0,1,1.32,1.57h0v10.92a1.42,1.42,0,0,1-1.29,1.53H66.37A1.41,1.41,0,0,1,65,529.78v0"/><rect class="cls-19" x="65.04" y="521.17" width="5.68" height="6.43"/></g></g></g><g id="r-01-4-2" data-name="r-01-4"><g class="cls-20"><g class="cls-20"><path class="cls-18" d="M78.85,529.74V518.82a1.46,1.46,0,0,1,1.32-1.57h3.16a1.46,1.46,0,0,1,1.32,1.57h0v10.92a1.42,1.42,0,0,1-1.29,1.53H80.17a1.4,1.4,0,0,1-1.32-1.49v0"/><rect class="cls-19" x="78.85" y="521.17" width="5.68" height="6.43"/></g></g></g><path class="cls-21" d="M61.07,535.62v-22.5c0-.13.22-.24.49-.24h26.6c.27,0,.49.11.49.24v22.5c0,.14-.22.25-.49.25H61.56C61.29,535.87,61.07,535.76,61.07,535.62Z"/><path class="cls-16" d="M82.87,132.13a97.95,97.95,0,1,0,97.95-97.95A98,98,0,0,0,82.87,132.13Zm174.44,0a76.49,76.49,0,1,1-76.49-76.48A76.49,76.49,0,0,1,257.31,132.13Z"/><line class="cls-9" x1="203.21" y1="491.7" x2="267.29" y2="424.36"/><line class="cls-9" x1="202.38" y1="490.92" x2="266.47" y2="423.58"/><line class="cls-9" x1="201.45" y1="490.03" x2="265.54" y2="422.69"/><line class="cls-9" x1="200.63" y1="489.25" x2="264.72" y2="421.91"/><line class="cls-9" x1="199.68" y1="488.34" x2="263.76" y2="421"/><line class="cls-9" x1="198.85" y1="487.56" x2="262.94" y2="420.22"/><line class="cls-9" x1="197.92" y1="486.67" x2="262.01" y2="419.33"/><line class="cls-9" x1="197.1" y1="485.89" x2="261.19" y2="418.55"/><line class="cls-9" x1="190.64" y1="490.74" x2="266.72" y2="410.8"/><line class="cls-9" x1="189.82" y1="489.95" x2="265.9" y2="410.01"/><line class="cls-9" x1="188.89" y1="489.07" x2="264.97" y2="409.13"/><line class="cls-9" x1="188.07" y1="488.29" x2="264.15" y2="408.35"/><line class="cls-9" x1="187.11" y1="487.38" x2="263.19" y2="407.44"/><line class="cls-9" x1="186.29" y1="486.59" x2="262.37" y2="406.65"/><line class="cls-9" x1="185.36" y1="485.71" x2="261.44" y2="405.77"/><line class="cls-9" x1="184.54" y1="484.93" x2="260.62" y2="404.99"/><line class="cls-9" x1="177.14" y1="491.27" x2="265.46" y2="398.46"/><line class="cls-9" x1="176.32" y1="490.48" x2="264.64" y2="397.67"/><line class="cls-9" x1="175.39" y1="489.6" x2="263.71" y2="396.79"/><line class="cls-9" x1="174.56" y1="488.81" x2="262.89" y2="396.01"/><line class="cls-9" x1="173.61" y1="487.91" x2="261.93" y2="395.1"/><line class="cls-9" x1="172.79" y1="487.12" x2="261.11" y2="394.32"/><line class="cls-9" x1="171.86" y1="486.24" x2="260.18" y2="393.43"/><line class="cls-9" x1="171.03" y1="485.46" x2="259.36" y2="392.65"/><line class="cls-9" x1="162.5" y1="492.48" x2="267.35" y2="382.31"/><line class="cls-9" x1="161.68" y1="491.7" x2="266.53" y2="381.53"/><line class="cls-9" x1="160.75" y1="490.82" x2="265.6" y2="380.65"/><line class="cls-9" x1="159.93" y1="490.03" x2="264.78" y2="379.86"/><line class="cls-9" x1="158.97" y1="489.12" x2="263.82" y2="378.95"/><line class="cls-9" x1="158.15" y1="488.34" x2="263" y2="378.17"/><line class="cls-9" x1="157.22" y1="487.46" x2="262.07" y2="377.29"/><line class="cls-9" x1="156.4" y1="486.67" x2="261.25" y2="376.5"/><line class="cls-9" x1="152.57" y1="488.85" x2="259.48" y2="376.52"/><line class="cls-9" x1="151.75" y1="488.07" x2="258.65" y2="375.74"/><line class="cls-9" x1="150.82" y1="487.18" x2="257.73" y2="374.86"/><line class="cls-9" x1="150" y1="486.4" x2="256.9" y2="374.07"/><line class="cls-9" x1="149.04" y1="485.49" x2="255.95" y2="373.16"/><line class="cls-9" x1="148.22" y1="484.71" x2="255.12" y2="372.38"/><line class="cls-9" x1="147.29" y1="483.83" x2="254.2" y2="371.5"/><line class="cls-9" x1="146.47" y1="483.04" x2="253.37" y2="370.71"/><line class="cls-9" x1="143.15" y1="484.59" x2="257.67" y2="364.26"/><line class="cls-9" x1="142.32" y1="483.81" x2="256.84" y2="363.48"/><line class="cls-9" x1="141.4" y1="482.92" x2="255.92" y2="362.59"/><line class="cls-9" x1="140.57" y1="482.14" x2="255.09" y2="361.81"/><line class="cls-9" x1="139.62" y1="481.23" x2="254.14" y2="360.9"/><line class="cls-9" x1="138.8" y1="480.45" x2="253.31" y2="360.12"/><line class="cls-9" x1="137.87" y1="479.56" x2="252.39" y2="359.23"/><line class="cls-9" x1="137.04" y1="478.78" x2="251.56" y2="358.45"/><line class="cls-9" x1="136.33" y1="478.1" x2="254.32" y2="354.12"/><line class="cls-9" x1="135.5" y1="477.31" x2="253.49" y2="353.34"/><line class="cls-9" x1="134.58" y1="476.43" x2="252.57" y2="352.45"/><line class="cls-9" x1="133.75" y1="475.65" x2="251.74" y2="351.67"/><line class="cls-9" x1="132.8" y1="474.74" x2="250.79" y2="350.76"/><line class="cls-9" x1="131.97" y1="473.96" x2="249.96" y2="349.98"/><line class="cls-9" x1="131.05" y1="473.07" x2="249.04" y2="349.09"/><line class="cls-9" x1="130.22" y1="472.29" x2="248.21" y2="348.31"/><line class="cls-9" x1="126.07" y1="474.71" x2="248.9" y2="345.64"/><line class="cls-9" x1="125.25" y1="473.93" x2="248.08" y2="344.86"/><line class="cls-9" x1="124.32" y1="473.04" x2="247.15" y2="343.98"/><line class="cls-9" x1="123.5" y1="472.26" x2="246.33" y2="343.19"/><line class="cls-9" x1="122.54" y1="471.35" x2="245.37" y2="342.29"/><line class="cls-9" x1="121.72" y1="470.57" x2="244.55" y2="341.5"/><line class="cls-9" x1="120.79" y1="469.68" x2="243.62" y2="340.62"/><line class="cls-9" x1="119.97" y1="468.9" x2="242.8" y2="339.83"/><line class="cls-9" x1="92.63" y1="385.47" x2="158.9" y2="315.84"/><line class="cls-9" x1="93.46" y1="386.26" x2="159.72" y2="316.63"/><line class="cls-9" x1="94.38" y1="387.14" x2="160.65" y2="317.51"/><line class="cls-9" x1="95.21" y1="387.92" x2="161.47" y2="318.29"/><line class="cls-9" x1="96.16" y1="388.83" x2="162.43" y2="319.2"/><line class="cls-9" x1="90.12" y1="383.08" x2="156.39" y2="313.45"/><line class="cls-9" x1="90.95" y1="383.87" x2="157.21" y2="314.24"/><line class="cls-9" x1="91.9" y1="384.78" x2="158.17" y2="315.15"/><line class="cls-9" x1="96.99" y1="389.62" x2="163.25" y2="319.99"/><line class="cls-9" x1="97.91" y1="390.5" x2="164.18" y2="320.87"/><line class="cls-9" x1="98.74" y1="391.28" x2="165" y2="321.65"/><line class="cls-9" x1="94.03" y1="398.17" x2="172.7" y2="315.51"/><line class="cls-9" x1="94.85" y1="398.95" x2="173.52" y2="316.3"/><line class="cls-9" x1="95.78" y1="399.84" x2="174.45" y2="317.18"/><line class="cls-9" x1="96.61" y1="400.62" x2="175.27" y2="317.96"/><line class="cls-9" x1="97.56" y1="401.53" x2="176.23" y2="318.87"/><line class="cls-9" x1="98.38" y1="402.31" x2="177.05" y2="319.65"/><line class="cls-9" x1="99.31" y1="403.19" x2="177.98" y2="320.54"/><line class="cls-9" x1="100.14" y1="403.98" x2="178.8" y2="321.32"/><line class="cls-9" x1="93.94" y1="411.92" x2="185.27" y2="315.96"/><line class="cls-9" x1="94.77" y1="412.7" x2="186.09" y2="316.74"/><line class="cls-9" x1="95.69" y1="413.59" x2="187.02" y2="317.62"/><line class="cls-9" x1="96.52" y1="414.37" x2="187.84" y2="318.41"/><line class="cls-9" x1="97.47" y1="415.28" x2="188.8" y2="319.32"/><line class="cls-9" x1="98.3" y1="416.06" x2="189.62" y2="320.1"/><line class="cls-9" x1="99.22" y1="416.95" x2="190.55" y2="320.98"/><line class="cls-9" x1="100.05" y1="417.73" x2="191.37" y2="321.77"/><line class="cls-9" x1="93.19" y1="426.87" x2="201.61" y2="312.96"/><line class="cls-9" x1="94.02" y1="427.66" x2="202.43" y2="313.74"/><line class="cls-9" x1="94.94" y1="428.54" x2="203.36" y2="314.62"/><line class="cls-9" x1="95.77" y1="429.32" x2="204.18" y2="315.41"/><line class="cls-9" x1="96.72" y1="430.23" x2="205.14" y2="316.31"/><line class="cls-9" x1="97.55" y1="431.01" x2="205.96" y2="317.1"/><line class="cls-9" x1="98.47" y1="431.9" x2="206.89" y2="317.98"/><line class="cls-9" x1="99.3" y1="432.68" x2="207.71" y2="318.76"/><line class="cls-9" x1="97.21" y1="436.71" x2="207.75" y2="320.56"/><line class="cls-9" x1="98.04" y1="437.49" x2="208.57" y2="321.35"/><line class="cls-9" x1="98.96" y1="438.38" x2="209.5" y2="322.23"/><line class="cls-9" x1="99.79" y1="439.16" x2="210.33" y2="323.01"/><line class="cls-9" x1="100.74" y1="440.07" x2="211.28" y2="323.92"/><line class="cls-9" x1="101.57" y1="440.85" x2="212.1" y2="324.71"/><line class="cls-9" x1="102.49" y1="441.74" x2="213.03" y2="325.59"/><line class="cls-9" x1="103.32" y1="442.52" x2="213.86" y2="326.37"/><line class="cls-9" x1="101.85" y1="446" x2="220.27" y2="321.58"/><line class="cls-9" x1="102.68" y1="446.78" x2="221.09" y2="322.36"/><line class="cls-9" x1="103.61" y1="447.66" x2="222.02" y2="323.24"/><line class="cls-9" x1="104.43" y1="448.45" x2="222.84" y2="324.03"/><line class="cls-9" x1="105.38" y1="449.36" x2="223.8" y2="324.93"/><line class="cls-9" x1="106.21" y1="450.14" x2="224.62" y2="325.72"/><line class="cls-9" x1="107.14" y1="451.02" x2="225.55" y2="326.6"/><line class="cls-9" x1="107.96" y1="451.81" x2="226.37" y2="327.39"/><line class="cls-9" x1="108.68" y1="452.49" x2="230.68" y2="324.3"/><line class="cls-9" x1="109.5" y1="453.27" x2="231.5" y2="325.08"/><line class="cls-9" x1="110.43" y1="454.16" x2="232.43" y2="325.96"/><line class="cls-9" x1="111.25" y1="454.94" x2="233.25" y2="326.75"/><line class="cls-9" x1="112.21" y1="455.85" x2="234.21" y2="327.66"/><line class="cls-9" x1="113.03" y1="456.63" x2="235.03" y2="328.44"/><line class="cls-9" x1="113.96" y1="457.52" x2="235.96" y2="329.32"/><line class="cls-9" x1="114.78" y1="458.3" x2="236.78" y2="330.11"/><line class="cls-9" x1="112.46" y1="462.68" x2="239.47" y2="329.22"/><line class="cls-9" x1="113.28" y1="463.46" x2="240.29" y2="330.01"/><line class="cls-9" x1="114.21" y1="464.34" x2="241.22" y2="330.89"/><line class="cls-9" x1="115.03" y1="465.13" x2="242.04" y2="331.67"/><line class="cls-9" x1="115.99" y1="466.04" x2="243" y2="332.58"/><line class="cls-9" x1="116.81" y1="466.82" x2="243.82" y2="333.37"/><line class="cls-9" x1="117.74" y1="467.7" x2="244.75" y2="334.25"/><line class="cls-9" x1="118.56" y1="468.49" x2="245.57" y2="335.03"/><line class="cls-9" x1="271.97" y1="379.09" x2="204.63" y2="315.01"/><line class="cls-9" x1="271.19" y1="379.92" x2="203.85" y2="315.83"/><line class="cls-9" x1="270.3" y1="380.85" x2="202.96" y2="316.76"/><line class="cls-9" x1="269.52" y1="381.67" x2="202.18" y2="317.58"/><line class="cls-9" x1="268.61" y1="382.62" x2="201.27" y2="318.54"/><line class="cls-9" x1="267.83" y1="383.45" x2="200.49" y2="319.36"/><line class="cls-9" x1="266.94" y1="384.37" x2="199.6" y2="320.29"/><line class="cls-9" x1="266.16" y1="385.2" x2="198.82" y2="321.11"/><line class="cls-9" x1="271.01" y1="391.66" x2="191.07" y2="315.58"/><line class="cls-9" x1="270.22" y1="392.48" x2="190.28" y2="316.4"/><line class="cls-9" x1="269.34" y1="393.41" x2="189.4" y2="317.33"/><line class="cls-9" x1="268.55" y1="394.23" x2="188.62" y2="318.15"/><line class="cls-9" x1="267.65" y1="395.19" x2="187.71" y2="319.11"/><line class="cls-9" x1="266.86" y1="396.01" x2="186.92" y2="319.93"/><line class="cls-9" x1="265.98" y1="396.94" x2="186.04" y2="320.86"/><line class="cls-9" x1="265.2" y1="397.76" x2="185.26" y2="321.68"/><line class="cls-9" x1="271.53" y1="405.16" x2="178.73" y2="316.84"/><line class="cls-9" x1="270.75" y1="405.98" x2="177.94" y2="317.66"/><line class="cls-9" x1="269.87" y1="406.91" x2="177.06" y2="318.59"/><line class="cls-9" x1="269.08" y1="407.73" x2="176.28" y2="319.41"/><line class="cls-9" x1="268.18" y1="408.69" x2="175.37" y2="320.37"/><line class="cls-9" x1="267.39" y1="409.51" x2="174.58" y2="321.19"/><line class="cls-9" x1="266.51" y1="410.44" x2="173.7" y2="322.12"/><line class="cls-9" x1="265.73" y1="411.26" x2="172.92" y2="322.94"/><line class="cls-9" x1="272.75" y1="419.8" x2="162.58" y2="314.95"/><line class="cls-9" x1="271.97" y1="420.62" x2="161.8" y2="315.77"/><line class="cls-9" x1="271.09" y1="421.55" x2="160.91" y2="316.7"/><line class="cls-9" x1="270.3" y1="422.37" x2="160.13" y2="317.52"/><line class="cls-9" x1="269.39" y1="423.33" x2="159.22" y2="318.48"/><line class="cls-9" x1="268.61" y1="424.15" x2="158.44" y2="319.3"/><line class="cls-9" x1="267.73" y1="425.08" x2="157.56" y2="320.23"/><line class="cls-9" x1="266.94" y1="425.9" x2="156.77" y2="321.05"/><line class="cls-9" x1="269.12" y1="429.73" x2="156.79" y2="322.82"/><line class="cls-9" x1="268.34" y1="430.55" x2="156.01" y2="323.65"/><line class="cls-9" x1="267.45" y1="431.48" x2="155.13" y2="324.57"/><line class="cls-9" x1="266.67" y1="432.3" x2="154.34" y2="325.4"/><line class="cls-9" x1="265.76" y1="433.26" x2="153.43" y2="326.35"/><line class="cls-9" x1="264.98" y1="434.08" x2="152.65" y2="327.18"/><line class="cls-9" x1="264.09" y1="435.01" x2="151.77" y2="328.1"/><line class="cls-9" x1="263.31" y1="435.83" x2="150.98" y2="328.93"/><line class="cls-9" x1="264.86" y1="439.15" x2="144.53" y2="324.63"/><line class="cls-9" x1="264.08" y1="439.97" x2="143.75" y2="325.46"/><line class="cls-9" x1="263.19" y1="440.9" x2="142.86" y2="326.38"/><line class="cls-9" x1="262.41" y1="441.73" x2="142.08" y2="327.21"/><line class="cls-9" x1="261.5" y1="442.68" x2="141.17" y2="328.16"/><line class="cls-9" x1="260.72" y1="443.5" x2="140.39" y2="328.99"/><line class="cls-9" x1="259.83" y1="444.43" x2="139.5" y2="329.91"/><line class="cls-9" x1="259.05" y1="445.26" x2="138.72" y2="330.74"/><line class="cls-9" x1="258.37" y1="445.97" x2="134.39" y2="327.98"/><line class="cls-9" x1="257.58" y1="446.8" x2="133.61" y2="328.81"/><line class="cls-9" x1="256.7" y1="447.72" x2="132.72" y2="329.73"/><line class="cls-9" x1="255.92" y1="448.55" x2="131.94" y2="330.56"/><line class="cls-9" x1="255.01" y1="449.5" x2="131.03" y2="331.51"/><line class="cls-9" x1="254.22" y1="450.33" x2="130.25" y2="332.34"/><line class="cls-9" x1="253.34" y1="451.25" x2="129.36" y2="333.26"/><line class="cls-9" x1="252.56" y1="452.08" x2="128.58" y2="334.09"/><line class="cls-9" x1="254.98" y1="456.23" x2="125.91" y2="333.4"/><line class="cls-9" x1="254.2" y1="457.05" x2="125.13" y2="334.22"/><line class="cls-9" x1="253.31" y1="457.98" x2="124.25" y2="335.15"/><line class="cls-9" x1="252.53" y1="458.8" x2="123.46" y2="335.97"/><line class="cls-9" x1="251.62" y1="459.76" x2="122.55" y2="336.93"/><line class="cls-9" x1="250.84" y1="460.58" x2="121.77" y2="337.75"/><line class="cls-9" x1="249.95" y1="461.51" x2="120.89" y2="338.68"/><line class="cls-9" x1="249.17" y1="462.33" x2="120.1" y2="339.5"/><line class="cls-9" x1="165.74" y1="489.67" x2="96.11" y2="423.4"/><line class="cls-9" x1="166.53" y1="488.84" x2="96.9" y2="422.58"/><line class="cls-9" x1="167.41" y1="487.92" x2="97.78" y2="421.65"/><line class="cls-9" x1="168.19" y1="487.09" x2="98.56" y2="420.82"/><line class="cls-9" x1="169.1" y1="486.14" x2="99.47" y2="419.87"/><line class="cls-9" x1="163.35" y1="492.18" x2="93.72" y2="425.91"/><line class="cls-9" x1="164.14" y1="491.35" x2="94.51" y2="425.09"/><line class="cls-9" x1="165.05" y1="490.4" x2="95.42" y2="424.13"/><line class="cls-9" x1="169.89" y1="485.31" x2="100.26" y2="419.05"/><line class="cls-9" x1="170.77" y1="484.39" x2="101.14" y2="418.12"/><line class="cls-9" x1="171.55" y1="483.56" x2="101.92" y2="417.3"/><line class="cls-9" x1="178.44" y1="488.27" x2="95.78" y2="409.6"/><line class="cls-9" x1="179.22" y1="487.44" x2="96.57" y2="408.78"/><line class="cls-9" x1="180.1" y1="486.52" x2="97.45" y2="407.85"/><line class="cls-9" x1="180.89" y1="485.69" x2="98.23" y2="407.03"/><line class="cls-9" x1="181.8" y1="484.74" x2="99.14" y2="406.07"/><line class="cls-9" x1="182.58" y1="483.92" x2="99.92" y2="405.25"/><line class="cls-9" x1="183.46" y1="482.99" x2="100.81" y2="404.32"/><line class="cls-9" x1="184.25" y1="482.16" x2="101.59" y2="403.5"/><line class="cls-9" x1="192.19" y1="488.36" x2="96.23" y2="397.03"/><line class="cls-9" x1="192.97" y1="487.53" x2="97.01" y2="396.21"/><line class="cls-9" x1="193.86" y1="486.61" x2="97.89" y2="395.28"/><line class="cls-9" x1="194.64" y1="485.78" x2="98.68" y2="394.45"/><line class="cls-9" x1="195.55" y1="484.83" x2="99.59" y2="393.5"/><line class="cls-9" x1="196.33" y1="484" x2="100.37" y2="392.68"/><line class="cls-9" x1="197.22" y1="483.08" x2="101.25" y2="391.75"/><line class="cls-9" x1="198" y1="482.25" x2="102.04" y2="390.92"/><line class="cls-9" x1="207.14" y1="489.11" x2="93.22" y2="380.69"/><line class="cls-9" x1="207.93" y1="488.28" x2="94.01" y2="379.87"/><line class="cls-9" x1="208.81" y1="487.35" x2="94.89" y2="378.94"/><line class="cls-9" x1="209.59" y1="486.53" x2="95.68" y2="378.12"/><line class="cls-9" x1="210.5" y1="485.58" x2="96.58" y2="377.16"/><line class="cls-9" x1="211.28" y1="484.75" x2="97.37" y2="376.34"/><line class="cls-9" x1="212.17" y1="483.82" x2="98.25" y2="375.41"/><line class="cls-9" x1="212.95" y1="483" x2="99.03" y2="374.59"/><line class="cls-9" x1="216.98" y1="485.09" x2="100.83" y2="374.55"/><line class="cls-9" x1="217.76" y1="484.26" x2="101.62" y2="373.72"/><line class="cls-9" x1="218.65" y1="483.34" x2="102.5" y2="372.8"/><line class="cls-9" x1="219.43" y1="482.51" x2="103.28" y2="371.97"/><line class="cls-9" x1="220.34" y1="481.56" x2="104.19" y2="371.02"/><line class="cls-9" x1="221.12" y1="480.73" x2="104.98" y2="370.2"/><line class="cls-9" x1="222.01" y1="479.81" x2="105.86" y2="369.27"/><line class="cls-9" x1="222.79" y1="478.98" x2="106.64" y2="368.44"/><line class="cls-9" x1="226.27" y1="480.44" x2="101.85" y2="362.03"/><line class="cls-9" x1="227.05" y1="479.62" x2="102.63" y2="361.21"/><line class="cls-9" x1="227.93" y1="478.69" x2="103.51" y2="360.28"/><line class="cls-9" x1="228.72" y1="477.87" x2="104.3" y2="359.46"/><line class="cls-9" x1="229.63" y1="476.91" x2="105.2" y2="358.5"/><line class="cls-9" x1="230.41" y1="476.09" x2="105.99" y2="357.68"/><line class="cls-9" x1="231.29" y1="475.16" x2="106.87" y2="356.75"/><line class="cls-9" x1="232.08" y1="474.34" x2="107.65" y2="355.93"/><line class="cls-9" x1="232.76" y1="473.62" x2="104.57" y2="351.62"/><line class="cls-9" x1="233.54" y1="472.8" x2="105.35" y2="350.8"/><line class="cls-9" x1="234.43" y1="471.87" x2="106.23" y2="349.87"/><line class="cls-9" x1="235.21" y1="471.05" x2="107.02" y2="349.05"/><line class="cls-9" x1="236.12" y1="470.09" x2="107.92" y2="348.09"/><line class="cls-9" x1="236.9" y1="469.27" x2="108.71" y2="347.27"/><line class="cls-9" x1="237.78" y1="468.34" x2="109.59" y2="346.34"/><line class="cls-9" x1="238.57" y1="467.52" x2="110.38" y2="345.52"/><line class="cls-9" x1="242.95" y1="469.84" x2="109.49" y2="342.83"/><line class="cls-9" x1="243.73" y1="469.02" x2="110.28" y2="342.01"/><line class="cls-9" x1="244.61" y1="468.09" x2="111.16" y2="341.08"/><line class="cls-9" x1="245.4" y1="467.26" x2="111.94" y2="340.26"/><line class="cls-9" x1="246.31" y1="466.31" x2="112.85" y2="339.3"/><line class="cls-9" x1="247.09" y1="465.49" x2="113.64" y2="338.48"/><line class="cls-9" x1="247.97" y1="464.56" x2="114.52" y2="337.55"/><line class="cls-9" x1="248.76" y1="463.73" x2="115.3" y2="336.73"/><path class="cls-16" d="M82.87,401.36a98,98,0,1,0,97.95-98A98,98,0,0,0,82.87,401.36Zm174.44,0a76.49,76.49,0,1,1-76.49-76.49A76.49,76.49,0,0,1,257.31,401.36Z"/></g><g id="Layer_2" data-name="Layer 2"><g class="cls-22"><path class="cls-23" d="M442.55,307c-1.65.32-3.28.67-4.89,1.06"/><path class="cls-24" d="M423.1,312.78a100.48,100.48,0,0,0,35.33,193.3"/><path class="cls-23" d="M466.07,506c1.65-.08,3.32-.2,5-.36"/></g><path class="cls-25" d="M432.56,105.69a100.45,100.45,0,0,1,19.25,200"/><g class="cls-22"><path class="cls-23" d="M573.51,289.49c-1.64.33-3.27.71-4.87,1.14"/><path class="cls-26" d="M554.78,295.73c-32.92,15.57-54.34,52.32-50.7,92.66,4.15,46,39.44,80.75,81.47,82.85"/><path class="cls-23" d="M592.92,471.27c1.66-.07,3.32-.19,5-.36"/></g><path class="cls-25" d="M565,105.65c47.27-4.85,89.28,32.1,93.83,82.53s-30.08,95.25-77.36,100.1"/><g class="cls-22"><path class="cls-23" d="M693.55,271.75c-1.64.36-3.25.77-4.84,1.25"/><path class="cls-27" d="M675.61,278.51c-26.6,14.66-43.71,47.1-40.72,82.62,3.45,40.9,32.4,72,67.17,74.76"/><path class="cls-23" d="M709.18,436.06c1.65-.05,3.32-.17,5-.35"/></g><path class="cls-25" d="M686.33,105.61c39.93-4.39,75.42,29,79.27,74.58s-25.42,86.08-65.35,90.47"/><g class="cls-22"><path class="cls-23" d="M813.82,254.94c-1.63.4-3.22.87-4.79,1.42"/><path class="cls-28" d="M795.48,263.54c-19.41,14.15-31.55,41.73-29.27,71.76,2.71,35.54,24.73,62.84,51.68,66.88"/><path class="cls-23" d="M825.57,402.7a49.4,49.4,0,0,0,5-.34"/></g><path class="cls-25" d="M808,105.57c32.41-3.94,61.22,26.08,64.34,67.06S851.67,250,819.25,254"/><line class="cls-29" x1="459.88" y1="54.13" x2="781.25" y2="54.13"/><polygon class="cls-30" points="779.06 61.61 792.01 54.13 779.06 46.65 779.06 61.61"/><line class="cls-31" x1="319.92" y1="604" x2="930.24" y2="604"/><rect class="cls-32" x="318.42" y="594.25" width="3" height="19.5"/><rect class="cls-32" x="928.74" y="594.25" width="3" height="19.5"/><path class="cls-32" d="M560.62,23.35c5.45,0,8.21,4.3,8.21,9s-2.76,9-8.21,9-8.21-4.3-8.21-9S555.17,23.35,560.62,23.35Zm0,16c4.18,0,5.93-3.6,5.93-7.06s-1.75-7.06-5.93-7.06-5.93,3.6-5.93,7.06S556.45,39.39,560.62,39.39Z"/><path class="cls-32" d="M571.21,28.49h1.92v2.62h0a4.5,4.5,0,0,1,4.57-2.91v2.16c-3.29,0-4.49,1.85-4.49,5V40.9h-2Z"/><path class="cls-32" d="M581.43,26.26h-2v-2.5h2Zm-2,2.23h2V40.9h-2Z"/><path class="cls-32" d="M595.3,39.84c0,4.06-1.82,6.1-5.76,6.1-2.33,0-5-1-5.13-3.65h2c.07,1.47,1.89,2,3.21,2,2.67,0,3.72-1.92,3.72-4.71v-.81h0A4.12,4.12,0,0,1,589.47,41c-3.7,0-5.54-2.9-5.54-6.29,0-2.92,1.41-6.55,5.73-6.55a4.06,4.06,0,0,1,3.7,2.07h0V28.49h1.92Zm-2-5.4c0-2.18-1-4.44-3.53-4.44s-3.67,2.14-3.67,4.51.81,4.73,3.5,4.73S593.29,36.77,593.29,34.44Z"/><path class="cls-32" d="M600.53,26.26h-2v-2.5h2Zm-2,2.23h2V40.9h-2Z"/><path class="cls-32" d="M603.7,28.49h1.92v2h0a4.28,4.28,0,0,1,4-2.26c3.27,0,4.27,1.87,4.27,4.54V40.9h-2V32.5a2.33,2.33,0,0,0-2.52-2.5c-2.47,0-3.67,1.66-3.67,3.89v7h-2Z"/><path class="cls-32" d="M628,40.85a2.85,2.85,0,0,1-1.47.34c-1.05,0-1.72-.58-1.72-1.92a5.45,5.45,0,0,1-4.37,1.92c-2.26,0-4.11-1-4.11-3.48,0-2.81,2.09-3.44,4.2-3.82s4.18-.26,4.18-1.82c0-1.8-1.49-2.07-2.76-2.07-1.73,0-3,.53-3.1,2.35h-2c.12-3.07,2.48-4.15,5.26-4.15,2.23,0,4.66.51,4.66,3.41V38c0,1,0,1.39.64,1.39a2.12,2.12,0,0,0,.63-.12Zm-3.31-6.36c-1.59,1.18-6.2,0-6.2,3.07,0,1.35,1.16,1.83,2.4,1.83,2.69,0,3.8-1.66,3.8-2.81Z"/><path class="cls-32" d="M630.05,23.76h2V40.9h-2Z"/><path class="cls-32" d="M657.75,40.9h-2.38l-3.91-14.4h-.05l-4,14.4h-2.37l-4.4-17.14H643L646.37,38h0l3.84-14.26h2.47L656.52,38h.05l3.48-14.26h2.28Z"/><path class="cls-32" d="M675.15,40.85a2.82,2.82,0,0,1-1.46.34c-1.06,0-1.73-.58-1.73-1.92a5.45,5.45,0,0,1-4.37,1.92c-2.26,0-4.11-1-4.11-3.48,0-2.81,2.09-3.44,4.2-3.82s4.18-.26,4.18-1.82c0-1.8-1.49-2.07-2.76-2.07-1.73,0-3,.53-3.1,2.35h-2c.12-3.07,2.48-4.15,5.26-4.15,2.23,0,4.66.51,4.66,3.41V38c0,1,0,1.39.65,1.39a2.12,2.12,0,0,0,.62-.12Zm-3.31-6.36c-1.59,1.18-6.2,0-6.2,3.07,0,1.35,1.16,1.83,2.41,1.83,2.68,0,3.79-1.66,3.79-2.81Z"/><path class="cls-32" d="M682.64,40.9h-2.19l-4.61-12.41h2.28l3.48,10.35h0L685,28.49h2.13Z"/><path class="cls-32" d="M699.63,37a5,5,0,0,1-5.31,4.23c-4,0-5.83-2.76-6-6.53s2.45-6.46,5.83-6.46c4.4,0,5.74,4.11,5.62,7.11h-9.29a3.66,3.66,0,0,0,3.87,4.08A3,3,0,0,0,697.61,37Zm-2-3.45A3.57,3.57,0,0,0,694.08,30a3.52,3.52,0,0,0-3.55,3.51Z"/><path class="cls-32" d="M960.11,293.57c5.44,0,8.2,4.3,8.2,9s-2.76,9-8.2,9-8.21-4.3-8.21-9S954.66,293.57,960.11,293.57Zm0,16c4.17,0,5.92-3.6,5.92-7.06s-1.75-7.06-5.92-7.06-5.93,3.6-5.93,7.06S955.93,309.61,960.11,309.61Z"/><path class="cls-32" d="M970.83,294h2v6.41h0c.67-1.37,2.23-2,4-2,3.82,0,5.71,3,5.71,6.53s-1.87,6.46-5.66,6.46a4.75,4.75,0,0,1-4-2h0v1.66h-2Zm5.76,6.24c-2.76,0-3.79,2.38-3.79,4.68s1.11,4.71,3.91,4.71,3.72-2.38,3.72-4.8S979.23,300.22,976.59,300.22Z"/><path class="cls-32" d="M987.15,312.7c0,2.21-1.15,3.17-3,3.17a5.42,5.42,0,0,1-1.06-.09V314a2.08,2.08,0,0,0,.41.05H984c.89,0,1.15-.43,1.15-1.7V298.71h2Zm0-16.22h-2V294h2Z"/><path class="cls-32" d="M1000.91,307.18a5,5,0,0,1-5.31,4.23c-4,0-5.83-2.76-6-6.53s2.45-6.46,5.83-6.46c4.39,0,5.74,4.11,5.62,7.11h-9.29a3.65,3.65,0,0,0,3.86,4.08,3,3,0,0,0,3.22-2.43Zm-2-3.45a3.57,3.57,0,0,0-3.58-3.51,3.52,3.52,0,0,0-3.55,3.51Z"/><path class="cls-32" d="M1011.63,302.69a2.87,2.87,0,0,0-3.07-2.47c-2.95,0-3.86,2.35-3.86,4.85,0,2.31,1,4.54,3.62,4.54a3.19,3.19,0,0,0,3.41-3h2.09c-.46,3.05-2.33,4.83-5.48,4.83-3.79,0-5.8-2.62-5.8-6.34s1.92-6.65,5.85-6.65c2.83,0,5,1.32,5.36,4.27Z"/><path class="cls-32" d="M1018.93,298.71h2.47v1.8h-2.47v7.7c0,1,.26,1.11,1.53,1.11h.94v1.8h-1.56c-2.11,0-3-.43-3-2.71v-7.9h-2.11v-1.8h2.11V295h2Z"/><g class="cls-22"><line class="cls-33" x1="459.88" y1="561.74" x2="781.25" y2="561.74"/><polygon class="cls-34" points="779.06 569.22 792.01 561.74 779.06 554.26 779.06 569.22"/></g><path class="cls-32" d="M507.38,531.37h8.06c3.24,0,5.21,1.73,5.21,4.49,0,2.09-.89,3.77-3,4.35v0c2,.39,2.38,1.88,2.57,3.53s0,3.58,1,4.73h-2.54c-.65-.69-.29-2.54-.63-4.22s-.65-3.1-2.85-3.1h-5.57v7.32h-2.28Zm7,7.9c2.11,0,4-.55,4-3a2.7,2.7,0,0,0-3-2.93h-5.66v6Z"/><path class="cls-32" d="M534.07,544.58a5,5,0,0,1-5.31,4.22c-4,0-5.83-2.76-6-6.53s2.45-6.46,5.83-6.46c4.4,0,5.74,4.11,5.62,7.11H525a3.66,3.66,0,0,0,3.87,4.08,3,3,0,0,0,3.21-2.42Zm-2-3.46a3.57,3.57,0,0,0-3.58-3.5,3.51,3.51,0,0,0-3.55,3.5Z"/><path class="cls-32" d="M537.21,537.9h-2.09v-1.8h2.09v-1.85c0-2,1.2-3.07,3.43-3.07a5,5,0,0,1,1.32.19v1.78a3.82,3.82,0,0,0-1.15-.17c-1,0-1.56.31-1.56,1.4v1.72h2.4v1.8h-2.4v10.61h-2Zm6.38-6.53h2v17.14h-2Z"/><path class="cls-32" d="M559.39,544.58a5,5,0,0,1-5.31,4.22c-4,0-5.83-2.76-6-6.53s2.45-6.46,5.83-6.46c4.39,0,5.74,4.11,5.62,7.11h-9.29a3.65,3.65,0,0,0,3.86,4.08,3,3,0,0,0,3.22-2.42Zm-2-3.46a3.57,3.57,0,0,0-3.58-3.5,3.51,3.51,0,0,0-3.55,3.5Z"/><path class="cls-32" d="M570.11,540.09a2.86,2.86,0,0,0-3.07-2.47c-2.95,0-3.86,2.35-3.86,4.84,0,2.31,1,4.54,3.62,4.54a3.18,3.18,0,0,0,3.41-3h2.09c-.46,3-2.33,4.82-5.47,4.82-3.8,0-5.81-2.62-5.81-6.34s1.92-6.65,5.85-6.65c2.84,0,5,1.32,5.36,4.28Z"/><path class="cls-32" d="M577.41,536.1h2.47v1.8h-2.47v7.71c0,1,.26,1.1,1.54,1.1h.93v1.8h-1.56c-2.11,0-3-.43-3-2.71v-7.9h-2.11v-1.8h2.11v-3.72h2Z"/><path class="cls-32" d="M592.72,544.58a5,5,0,0,1-5.3,4.22c-4,0-5.83-2.76-6-6.53s2.45-6.46,5.84-6.46c4.39,0,5.73,4.11,5.61,7.11h-9.28a3.65,3.65,0,0,0,3.86,4.08,3,3,0,0,0,3.22-2.42Zm-2-3.46a3.56,3.56,0,0,0-3.57-3.5,3.51,3.51,0,0,0-3.55,3.5Z"/><path class="cls-32" d="M606.11,548.51h-2v-1.68h0c-.68,1.37-2.24,2-4,2-3.81,0-5.71-3-5.71-6.53s1.87-6.46,5.67-6.46a4.76,4.76,0,0,1,4,2h0v-6.39h2ZM600.35,547c2.76,0,3.8-2.38,3.8-4.68s-1.11-4.7-3.92-4.7-3.72,2.37-3.72,4.8S597.71,547,600.35,547Z"/><path class="cls-32" d="M631.75,548.51h-2.38l-3.91-14.4h-.05l-4,14.4h-2.38l-4.39-17.14H617l3.36,14.26h0l3.84-14.26h2.47l3.79,14.26h.05l3.48-14.26h2.28Z"/><path class="cls-32" d="M649.14,548.46a2.82,2.82,0,0,1-1.46.34c-1.06,0-1.73-.58-1.73-1.92a5.45,5.45,0,0,1-4.37,1.92c-2.25,0-4.1-1-4.1-3.48,0-2.81,2.09-3.43,4.2-3.82s4.18-.26,4.18-1.82c0-1.8-1.49-2.06-2.76-2.06-1.73,0-3,.52-3.1,2.35h-2c.12-3.08,2.47-4.16,5.26-4.16,2.23,0,4.65.51,4.65,3.41v6.39c0,1,0,1.39.65,1.39a2.06,2.06,0,0,0,.62-.12Zm-3.31-6.36c-1.58,1.18-6.19,0-6.19,3.08,0,1.34,1.15,1.82,2.4,1.82,2.69,0,3.79-1.66,3.79-2.81Z"/><path class="cls-32" d="M656.63,548.51h-2.18l-4.61-12.41h2.28l3.48,10.35h0L659,536.1h2.14Z"/><path class="cls-32" d="M673.62,544.58a5,5,0,0,1-5.3,4.22c-4,0-5.83-2.76-6-6.53s2.45-6.46,5.83-6.46c4.39,0,5.74,4.11,5.62,7.11h-9.29a3.65,3.65,0,0,0,3.86,4.08,3,3,0,0,0,3.22-2.42Zm-2-3.46a3.57,3.57,0,0,0-3.58-3.5,3.51,3.51,0,0,0-3.55,3.5Z"/><path class="cls-32" d="M686,553.26c-2.3-3.57-3.77-7-3.77-11.23A18.69,18.69,0,0,1,686,531h1.56A19.68,19.68,0,0,0,684.35,542a20.23,20.23,0,0,0,3.17,11.23Z"/><path class="cls-32" d="M699.4,544.58a5,5,0,0,1-5.31,4.22c-4,0-5.83-2.76-6-6.53s2.45-6.46,5.83-6.46c4.4,0,5.74,4.11,5.62,7.11H690.3a3.66,3.66,0,0,0,3.87,4.08,3,3,0,0,0,3.21-2.42Zm-2-3.46a3.56,3.56,0,0,0-3.58-3.5,3.51,3.51,0,0,0-3.55,3.5Z"/><path class="cls-32" d="M710.13,540.09a2.88,2.88,0,0,0-3.08-2.47c-2.95,0-3.86,2.35-3.86,4.84,0,2.31,1,4.54,3.62,4.54a3.17,3.17,0,0,0,3.41-3h2.09c-.45,3-2.33,4.82-5.47,4.82-3.79,0-5.81-2.62-5.81-6.34s1.92-6.65,5.86-6.65c2.83,0,5,1.32,5.35,4.28Z"/><path class="cls-32" d="M714.59,531.37h2v6.56h0c.65-1.51,2.45-2.12,3.91-2.12,3.26,0,4.27,1.88,4.27,4.54v8.16h-2v-8.4a2.32,2.32,0,0,0-2.52-2.49c-2.47,0-3.67,1.65-3.67,3.88v7h-2Z"/><path class="cls-32" d="M733.29,535.81c3.93,0,6,2.86,6,6.51s-2.09,6.48-6,6.48-6-2.86-6-6.48S729.35,535.81,733.29,535.81Zm0,11.19c2.13,0,3.86-1.68,3.86-4.68s-1.73-4.7-3.86-4.7-3.87,1.7-3.87,4.7S731.15,547,733.29,547Z"/><path class="cls-32" d="M739.93,553.26a19.6,19.6,0,0,0,3.17-11.06A20.23,20.23,0,0,0,739.93,531h1.56c2.31,3.57,3.77,7,3.77,11.23a18.63,18.63,0,0,1-3.77,11.06Z"/><path class="cls-32" d="M580.06,613h5.88c5.28,0,8.23,2.66,8.23,8.16,0,5.73-2.52,9-8.23,9h-5.88Zm2.28,15.22h3.79c1.56,0,5.76-.44,5.76-6.75,0-4.08-1.51-6.55-5.71-6.55h-3.84Z"/><path class="cls-32" d="M598.78,615.48h-2V613h2Zm-2,2.24h2v12.41h-2Z"/><path class="cls-32" d="M603.19,626.21c.08,1.83,1.69,2.4,3.34,2.4,1.27,0,3-.29,3-1.85,0-3.19-8.11-1-8.11-5.8,0-2.5,2.45-3.53,4.63-3.53,2.79,0,4.9.86,5.09,3.89h-2c-.12-1.59-1.56-2.09-2.88-2.09s-2.64.33-2.64,1.58c0,1.44,2.16,1.73,4,2.16s4.06,1.15,4.06,3.53c0,3-2.76,3.91-5.28,3.91-2.78,0-5.14-1.12-5.26-4.2Z"/><path class="cls-32" d="M616.78,617.72h2.47v1.8h-2.47v7.7c0,1,.26,1.1,1.53,1.1h.94v1.81h-1.56c-2.11,0-3-.44-3-2.72v-7.89h-2.11v-1.8h2.11V614h2Z"/><path class="cls-32" d="M632.5,630.08a3,3,0,0,1-1.46.33c-1.06,0-1.73-.57-1.73-1.92a5.42,5.42,0,0,1-4.37,1.92c-2.26,0-4.11-1-4.11-3.48,0-2.81,2.09-3.43,4.2-3.81s4.18-.27,4.18-1.83c0-1.8-1.49-2.06-2.76-2.06-1.73,0-3,.53-3.1,2.35h-2c.12-3.07,2.48-4.15,5.26-4.15,2.23,0,4.66.5,4.66,3.41v6.38c0,1,0,1.39.65,1.39a2.12,2.12,0,0,0,.62-.12Zm-3.31-6.36c-1.59,1.17-6.2,0-6.2,3.07,0,1.34,1.16,1.82,2.4,1.82,2.69,0,3.8-1.65,3.8-2.81Z"/><path class="cls-32" d="M634.39,617.72h1.92v2h.05a4.3,4.3,0,0,1,4-2.25c3.27,0,4.28,1.87,4.28,4.53v8.17h-2v-8.41a2.32,2.32,0,0,0-2.52-2.49c-2.48,0-3.68,1.65-3.68,3.89v7h-2Z"/><path class="cls-32" d="M656.16,621.7a2.87,2.87,0,0,0-3.07-2.47c-3,0-3.86,2.35-3.86,4.85,0,2.3,1,4.53,3.62,4.53a3.19,3.19,0,0,0,3.41-3h2.09c-.46,3-2.33,4.82-5.48,4.82-3.79,0-5.8-2.61-5.8-6.33s1.92-6.65,5.85-6.65c2.83,0,5,1.32,5.35,4.27Z"/><path class="cls-32" d="M671.21,626.19a5,5,0,0,1-5.3,4.22c-4,0-5.84-2.76-6-6.53s2.45-6.45,5.84-6.45c4.39,0,5.73,4.1,5.61,7.1h-9.29a3.66,3.66,0,0,0,3.87,4.08,3,3,0,0,0,3.21-2.42Zm-2-3.46a3.56,3.56,0,0,0-3.57-3.5,3.52,3.52,0,0,0-3.56,3.5Z"/><rect class="cls-35" x="903.87" y="38.68" width="27.87" height="529.44" rx="11.6"/></g></svg>