<svg id="Layer_2" data-name="Layer 2" xmlns="http://www.w3.org/2000/svg" xmlns:xlink="http://www.w3.org/1999/xlink" viewBox="0 0 566.71 322.06"><defs><style>.cls-1,.cls-12,.cls-15,.cls-21,.cls-5,.cls-9{fill:none;}.cls-2{fill:#242424;}.cls-3{fill:#fff;}.cls-4{clip-path:url(#clip-path);}.cls-5{stroke:#242424;}.cls-12,.cls-15,.cls-21,.cls-5,.cls-9{stroke-miterlimit:10;}.cls-6{fill:#3f4b59;}.cls-7{fill:#050c16;}.cls-8{fill:#737b7d;}.cls-9{stroke:#eaeaea;stroke-width:0.2px;}.cls-10{clip-path:url(#clip-path-3);}.cls-11{clip-path:url(#clip-path-4);}.cls-12{stroke:#fff;}.cls-13{fill:#f5f6f7;}.cls-14{fill:#e0ac52;}.cls-15{stroke:#f8fbfe;stroke-width:3px;}.cls-16{fill:#f8fbfe;}.cls-17{clip-path:url(#clip-path-5);}.cls-18{fill:#e5e5e5;}.cls-19{fill:#232323;}.cls-20{clip-path:url(#clip-path-7);}.cls-21{stroke:#f5f6f7;}</style><clipPath id="clip-path"><rect class="cls-1" x="109.3" y="253.16" width="67.67" height="40.16"/></clipPath><clipPath id="clip-path-3"><rect class="cls-1" x="393.27" y="36.23" width="101.96" height="34.79"/></clipPath><clipPath id="clip-path-4"><rect class="cls-1" x="393.27" y="36.23" width="101.96" height="34.79"/></clipPath><clipPath id="clip-path-5"><rect class="cls-1" x="55.02" y="44.65" width="14.03" height="5.68"/></clipPath><clipPath id="clip-path-7"><rect class="cls-1" x="55.02" y="58.45" width="14.03" height="5.68"/></clipPath></defs><path class="cls-2" d="M535.82,23.64H343.29c12.69,0,23,9.06,23,20.24s-10.29,20.25-23,20.25-23-9.07-23-20.25,10.29-20.24,23-20.24H16.14A2.35,2.35,0,0,0,13.79,26V295.67A2.36,2.36,0,0,0,16.14,298H535.82a2.36,2.36,0,0,0,2.36-2.36V26A2.36,2.36,0,0,0,535.82,23.64ZM33,97.94c-5.95,0-10.78-4.28-10.78-9.56S27,78.81,33,78.81s10.78,4.28,10.78,9.57S38.92,97.94,33,97.94ZM88,290.32c-5.53,0-10-5.11-10-11.42s4.48-11.42,10-11.42,10,5.12,10,11.42S93.57,290.32,88,290.32ZM155.13,54.47a9.38,9.38,0,1,1,9.37-9.38A9.38,9.38,0,0,1,155.13,54.47ZM342.63,297a20.27,20.27,0,1,1,20.26-20.27A20.27,20.27,0,0,1,342.63,297Z"/><path class="cls-3" d="M187.3,40.58c0,3.87-2.29,5.76-6.12,5.76s-6.09-1.85-6.09-5.76v-8.9h3.14v8.9c0,1.57.4,3.11,3,3.11,2.25,0,3-1,3-3.11v-8.9h3.15Z"/><path class="cls-3" d="M189.78,31.68h2.85V46h-2.85Z"/><path class="cls-3" d="M198.48,35.63h2.09v1.91h-2.09v5.13c0,1,.25,1.2,1.21,1.2a4,4,0,0,0,.88-.08V46a10.89,10.89,0,0,1-1.66.1c-1.77,0-3.27-.38-3.27-2.47V37.54h-1.73V35.63h1.73V32.52h2.84Z"/><path class="cls-3" d="M201.93,35.63h2.71v1.93h0A3.63,3.63,0,0,1,208,35.35a2.12,2.12,0,0,1,.62.1V38.1a5.18,5.18,0,0,0-1-.1c-2.11,0-2.81,1.48-2.81,3.32V46h-2.85Z"/><path class="cls-3" d="M209.61,38.82c.16-2.65,2.55-3.47,4.87-3.47,2.07,0,4.56.46,4.56,2.95v5.39A5.35,5.35,0,0,0,219.4,46h-2.89a4.31,4.31,0,0,1-.2-1,4.7,4.7,0,0,1-3.49,1.29c-2,0-3.53-1-3.53-3.11,0-4.71,7-2.19,6.9-4.51,0-1.21-.84-1.41-1.85-1.41s-1.78.45-1.88,1.57Zm6.58,2.1a5.8,5.8,0,0,1-2.37.61c-.88.16-1.68.48-1.68,1.52s.82,1.32,1.74,1.32A2.11,2.11,0,0,0,216.19,42Z"/><path class="cls-3" d="M223.45,42.63c0,1.22,1.08,1.74,2.18,1.74.8,0,1.87-.32,1.87-1.32s-1.21-1.18-3.23-1.6c-1.66-.39-3.29-.93-3.29-2.77,0-2.65,2.29-3.33,4.51-3.33s4.35.76,4.57,3.31h-2.7c-.08-1.1-.93-1.41-2-1.41-.64,0-1.58.1-1.58,1,0,1,1.62,1.16,3.23,1.54s3.28,1,3.28,2.91c0,2.72-2.38,3.61-4.73,3.61s-4.77-.91-4.87-3.65Z"/><path class="cls-3" d="M237,35.35a5.09,5.09,0,0,1,5.37,5.47,5.36,5.36,0,1,1-10.72,0A5.08,5.08,0,0,1,237,35.35Zm0,8.78c2,0,2.53-1.64,2.53-3.31S239,37.49,237,37.49s-2.5,1.67-2.5,3.33S235.12,44.13,237,44.13Z"/><path class="cls-3" d="M244.26,35.63H247v1.44H247a3.64,3.64,0,0,1,3.16-1.72c3,0,3.79,1.7,3.79,4.27V46h-2.84V40.14c0-1.7-.48-2.54-1.83-2.54-1.54,0-2.2.86-2.2,3V46h-2.85Z"/><path class="cls-3" d="M259.08,34h-2.85V31.68h2.85Zm-2.85,1.6h2.85V46h-2.85Z"/><path class="cls-3" d="M268.38,39.28a1.91,1.91,0,0,0-2.11-1.79c-1.82,0-2.42,1.85-2.42,3.37s.58,3.27,2.36,3.27a2.16,2.16,0,0,0,2.27-2.1h2.75a4.64,4.64,0,0,1-5,4.25A5,5,0,0,1,261,41c0-3.22,1.93-5.61,5.29-5.61,2.45,0,4.72,1.28,4.88,3.93Z"/><path class="cls-3" d="M175.15,49.68h7.72a3.94,3.94,0,0,1,4.19,4,3.51,3.51,0,0,1-2.27,3.59v0c1.54.42,2,1.88,2.09,3.35.06.9,0,2.6.6,3.39h-3.15a17.34,17.34,0,0,1-.5-3.43c-.22-1.51-.8-2.17-2.39-2.17h-3.15V64h-3.14Zm3.14,6.48h3.45c1.43,0,2.17-.6,2.17-2s-.74-2-2.17-2h-3.45Z"/><path class="cls-3" d="M193.53,49.68h3.23L202.11,64h-3.26l-1.09-3.19h-5.35L191.29,64H188.1Zm-.3,8.78h3.71l-1.8-5.25h0Z"/><path class="cls-3" d="M203.36,49.68h3.14v5.94l5.6-5.94H216l-5.6,5.65L216.57,64h-3.95l-4.31-6.44-1.81,1.82V64h-3.14Z"/><path class="cls-3" d="M224.31,64h-2.85V54.89h-3.53V52.75c2,.06,3.79-.64,4.11-2.79h2.27Z"/><path class="cls-3" d="M228.34,55.35c-.1-3.2,1.72-5.67,5.09-5.67,2.57,0,4.81,1.64,4.81,4.39,0,4.25-4.51,4.59-6.55,7.48h6.63V64H228c0-3.27,2-4.62,4.43-6.28,1.22-.86,3-1.7,3-3.43a2,2,0,0,0-2.11-2.16c-1.68,0-2.22,1.74-2.22,3.22Z"/><path class="cls-3" d="M244.3,49.68c2.81,0,5.17,1.77,5.17,7.24s-2.36,7.36-5.17,7.36-5.13-1.77-5.13-7.36S241.51,49.68,244.3,49.68Zm0,12.25c2.33,0,2.33-3.43,2.33-5s0-4.89-2.33-4.89S242,55.45,242,56.92,242,61.93,244.3,61.93Z"/><path class="cls-3" d="M255.45,49.68c2.8,0,5.17,1.77,5.17,7.24s-2.37,7.36-5.17,7.36-5.14-1.77-5.14-7.36S252.66,49.68,255.45,49.68Zm0,12.25c2.32,0,2.32-3.43,2.32-5s0-4.89-2.32-4.89-2.29,3.42-2.29,4.89S253.16,61.93,255.45,61.93Z"/><path class="cls-3" d="M271.41,52.41c-3,2.58-4.53,7.84-4.59,11.59h-3.05a20.48,20.48,0,0,1,4.71-11.39h-6.66V50h9.59Z"/><path class="cls-3" d="M285.8,64h-3.54L277.6,49.68h3.25L284,59.75h0l3.23-10.07h3.25Z"/><path class="cls-3" d="M295.69,49.68h3.23L304.27,64H301l-1.08-3.19h-5.35L293.44,64h-3.18Zm-.3,8.78h3.71l-1.81-5.25h0Z"/><path class="cls-3" d="M189,257.52h6.48c3.81,0,6.94,1.32,6.94,5.6,0,4.13-3.13,5.91-6.94,5.91H193v6.48H189Zm6.15,8.28c2.14,0,3.28-.91,3.28-2.68s-1.14-2.37-3.28-2.37H193v5.05Zm-.42,2.16,2.82-2.6,5.74,10.15H198.7Z"/><path class="cls-3" d="M466.44,260.93h-4.95v-3.41h14v3.41h-4.95v14.58h-4.07Z"/><g id="wisblock-label"><g class="cls-4"><polygon class="cls-3" points="150.8 253.16 150.8 256.42 147.74 256.42 147.74 253.16 138.69 253.16 138.69 256.42 135.63 256.42 135.63 253.16 127.5 253.16 127.5 256.42 124.28 256.42 124.28 273.52 162 273.52 162 256.42 159.13 256.42 159.13 253.16 150.8 253.16"/><g class="cls-4"><path class="cls-3" d="M109.38,281.27H111l1.66,7h0l1.85-7h1.66l1.8,7h0l1.71-7h1.64l-2.54,9.21h-1.64l-1.84-7h0l-1.88,7h-1.66Z"/><path class="cls-3" d="M122.29,281.27h1.47v1.39h-1.47Zm0,2.54h1.47v6.67h-1.47Z"/><path class="cls-3" d="M126.47,288.33c.09.87.72,1.17,1.5,1.17.57,0,1.53-.12,1.49-.88s-1.11-.87-2.18-1.11-2.14-.62-2.14-2,1.57-1.91,2.78-1.91c1.37,0,2.62.55,2.79,2.05h-1.54c-.14-.71-.69-.89-1.35-.89-.43,0-1.21.1-1.21.68s1.08.84,2.16,1.07,2.16.63,2.16,1.95c0,1.59-1.6,2.17-3,2.17-1.69,0-2.92-.75-3-2.33Z"/><path class="cls-3" d="M132.16,281.27h4.34c1.75,0,2.94.57,2.94,2.28a2,2,0,0,1-1.25,1.92,2.24,2.24,0,0,1,1.68,2.34c0,1.87-1.58,2.67-3.24,2.67h-4.47Zm2,3.73h2.05c.72,0,1.24-.33,1.24-1.1s-.67-1.06-1.4-1.06h-1.89Zm0,3.9h2.16c.79,0,1.5-.26,1.5-1.21s-.58-1.32-1.46-1.32h-2.2Z"/><path class="cls-3" d="M141.24,281.27h2v7.5h4.48v1.71h-6.51Z"/><path class="cls-3" d="M153,281.05c2.84,0,4.53,2.13,4.53,4.86a4.53,4.53,0,1,1-9,0C148.49,283.18,150.18,281.05,153,281.05Zm0,7.94c1.82,0,2.5-1.54,2.5-3.08s-.68-3.16-2.5-3.16-2.5,1.55-2.5,3.16S151.2,289,153,289Z"/><path class="cls-3" d="M165.06,284.36a2,2,0,0,0-2-1.61c-1.81,0-2.5,1.55-2.5,3.16s.69,3.08,2.5,3.08a2.06,2.06,0,0,0,2.09-2.06h2a3.86,3.86,0,0,1-4.05,3.76,4.44,4.44,0,0,1-4.52-4.78c0-2.73,1.69-4.86,4.52-4.86a3.75,3.75,0,0,1,4,3.31Z"/><path class="cls-3" d="M168.47,281.27h2v3.82l3.59-3.82h2.53L173,284.9l3.95,5.58h-2.54l-2.77-4.14-1.16,1.17v3h-2Z"/></g></g></g><rect class="cls-5" x="13.79" y="23.64" width="524.39" height="274.39" rx="2.36"/><circle class="cls-6" cx="454.27" cy="160.42" r="71.42"/><path class="cls-7" d="M454.27,83.93a76.49,76.49,0,1,0,76.49,76.49A76.49,76.49,0,0,0,454.27,83.93Zm0,136.22A59.73,59.73,0,1,1,514,160.42,59.73,59.73,0,0,1,454.27,220.15Z"/><path class="cls-8" d="M454.27,100.69A59.73,59.73,0,1,0,514,160.42,59.73,59.73,0,0,0,454.27,100.69Zm0,106.37a46.64,46.64,0,1,1,46.65-46.64A46.64,46.64,0,0,1,454.27,207.06Z"/><line class="cls-9" x1="367.03" y1="181.51" x2="431.81" y2="243.17"/><line class="cls-9" x1="367.78" y1="180.72" x2="432.57" y2="242.38"/><line class="cls-9" x1="368.63" y1="179.83" x2="433.42" y2="241.49"/><line class="cls-9" x1="369.38" y1="179.04" x2="434.17" y2="240.7"/><line class="cls-9" x1="370.26" y1="178.12" x2="435.05" y2="239.78"/><line class="cls-9" x1="371.01" y1="177.33" x2="435.8" y2="238.98"/><line class="cls-9" x1="371.86" y1="176.43" x2="436.65" y2="238.09"/><line class="cls-9" x1="372.62" y1="175.64" x2="437.4" y2="237.3"/><line class="cls-9" x1="367.95" y1="169.43" x2="444.86" y2="242.62"/><line class="cls-9" x1="368.71" y1="168.63" x2="445.62" y2="241.83"/><line class="cls-9" x1="369.56" y1="167.74" x2="446.47" y2="240.94"/><line class="cls-9" x1="370.31" y1="166.95" x2="447.22" y2="240.14"/><line class="cls-9" x1="371.19" y1="166.03" x2="448.1" y2="239.23"/><line class="cls-9" x1="371.94" y1="165.24" x2="448.85" y2="238.43"/><line class="cls-9" x1="372.79" y1="164.35" x2="449.7" y2="237.54"/><line class="cls-9" x1="373.54" y1="163.55" x2="450.45" y2="236.75"/><line class="cls-9" x1="367.44" y1="156.44" x2="456.73" y2="241.41"/><line class="cls-9" x1="368.2" y1="155.64" x2="457.49" y2="240.62"/><line class="cls-9" x1="369.05" y1="154.75" x2="458.34" y2="239.73"/><line class="cls-9" x1="369.8" y1="153.96" x2="459.09" y2="238.93"/><line class="cls-9" x1="370.68" y1="153.04" x2="459.97" y2="238.02"/><line class="cls-9" x1="371.43" y1="152.25" x2="460.72" y2="237.22"/><line class="cls-9" x1="372.28" y1="151.35" x2="461.57" y2="236.33"/><line class="cls-9" x1="373.03" y1="150.56" x2="462.32" y2="235.54"/><line class="cls-9" x1="366.27" y1="142.35" x2="472.27" y2="243.23"/><line class="cls-9" x1="367.03" y1="141.56" x2="473.02" y2="242.43"/><line class="cls-9" x1="367.88" y1="140.67" x2="473.87" y2="241.54"/><line class="cls-9" x1="368.63" y1="139.87" x2="474.63" y2="240.75"/><line class="cls-9" x1="369.51" y1="138.96" x2="475.5" y2="239.83"/><line class="cls-9" x1="370.26" y1="138.16" x2="476.25" y2="239.04"/><line class="cls-9" x1="371.11" y1="137.27" x2="477.1" y2="238.15"/><line class="cls-9" x1="371.86" y1="136.48" x2="477.86" y2="237.35"/><line class="cls-9" x1="369.77" y1="132.8" x2="477.84" y2="235.65"/><line class="cls-9" x1="370.52" y1="132.01" x2="478.59" y2="234.86"/><line class="cls-9" x1="371.37" y1="131.12" x2="479.44" y2="233.97"/><line class="cls-9" x1="372.12" y1="130.32" x2="480.2" y2="233.17"/><line class="cls-9" x1="373" y1="129.4" x2="481.07" y2="232.26"/><line class="cls-9" x1="373.75" y1="128.61" x2="481.82" y2="231.46"/><line class="cls-9" x1="374.6" y1="127.72" x2="482.67" y2="230.57"/><line class="cls-9" x1="375.36" y1="126.93" x2="483.43" y2="229.78"/><line class="cls-9" x1="373.87" y1="123.73" x2="489.64" y2="233.91"/><line class="cls-9" x1="374.62" y1="122.94" x2="490.39" y2="233.12"/><line class="cls-9" x1="375.47" y1="122.05" x2="491.24" y2="232.23"/><line class="cls-9" x1="376.22" y1="121.26" x2="491.99" y2="231.43"/><line class="cls-9" x1="377.1" y1="120.34" x2="492.87" y2="230.52"/><line class="cls-9" x1="377.85" y1="119.54" x2="493.62" y2="229.72"/><line class="cls-9" x1="378.7" y1="118.65" x2="494.47" y2="228.83"/><line class="cls-9" x1="379.46" y1="117.86" x2="495.23" y2="228.04"/><line class="cls-9" x1="380.11" y1="117.17" x2="499.39" y2="230.69"/><line class="cls-9" x1="380.87" y1="116.38" x2="500.15" y2="229.9"/><line class="cls-9" x1="381.72" y1="115.49" x2="500.99" y2="229"/><line class="cls-9" x1="382.47" y1="114.69" x2="501.75" y2="228.21"/><line class="cls-9" x1="383.34" y1="113.77" x2="502.62" y2="227.29"/><line class="cls-9" x1="384.1" y1="112.98" x2="503.38" y2="226.5"/><line class="cls-9" x1="384.95" y1="112.09" x2="504.23" y2="225.61"/><line class="cls-9" x1="385.7" y1="111.3" x2="504.98" y2="224.81"/><line class="cls-9" x1="383.37" y1="107.3" x2="507.55" y2="225.48"/><line class="cls-9" x1="384.13" y1="106.51" x2="508.3" y2="224.69"/><line class="cls-9" x1="384.98" y1="105.62" x2="509.15" y2="223.79"/><line class="cls-9" x1="385.73" y1="104.83" x2="509.9" y2="223"/><line class="cls-9" x1="386.6" y1="103.91" x2="510.78" y2="222.08"/><line class="cls-9" x1="387.36" y1="103.12" x2="511.53" y2="221.29"/><line class="cls-9" x1="388.21" y1="102.22" x2="512.38" y2="220.4"/><line class="cls-9" x1="388.96" y1="101.43" x2="513.14" y2="219.61"/><line class="cls-9" x1="469.23" y1="75.13" x2="536.22" y2="138.89"/><line class="cls-9" x1="468.47" y1="75.92" x2="535.46" y2="139.68"/><line class="cls-9" x1="467.62" y1="76.82" x2="534.61" y2="140.57"/><line class="cls-9" x1="466.87" y1="77.61" x2="533.86" y2="141.36"/><line class="cls-9" x1="465.99" y1="78.53" x2="532.99" y2="142.28"/><line class="cls-9" x1="471.53" y1="72.72" x2="538.52" y2="136.47"/><line class="cls-9" x1="470.77" y1="73.51" x2="537.76" y2="137.26"/><line class="cls-9" x1="469.9" y1="74.43" x2="536.89" y2="138.18"/><line class="cls-9" x1="465.24" y1="79.32" x2="532.23" y2="143.08"/><line class="cls-9" x1="464.39" y1="80.21" x2="531.38" y2="143.97"/><line class="cls-9" x1="463.64" y1="81.01" x2="530.63" y2="144.76"/><line class="cls-9" x1="457.01" y1="76.48" x2="536.54" y2="152.16"/><line class="cls-9" x1="456.26" y1="77.27" x2="535.78" y2="152.95"/><line class="cls-9" x1="455.41" y1="78.16" x2="534.93" y2="153.84"/><line class="cls-9" x1="454.66" y1="78.95" x2="534.18" y2="154.64"/><line class="cls-9" x1="453.78" y1="79.87" x2="533.3" y2="155.56"/><line class="cls-9" x1="453.03" y1="80.67" x2="532.55" y2="156.35"/><line class="cls-9" x1="452.18" y1="81.56" x2="531.7" y2="157.24"/><line class="cls-9" x1="451.42" y1="82.35" x2="530.95" y2="158.03"/><line class="cls-9" x1="443.78" y1="76.39" x2="536.11" y2="164.26"/><line class="cls-9" x1="443.03" y1="77.18" x2="535.35" y2="165.05"/><line class="cls-9" x1="442.18" y1="78.08" x2="534.5" y2="165.94"/><line class="cls-9" x1="441.42" y1="78.87" x2="533.75" y2="166.74"/><line class="cls-9" x1="440.55" y1="79.79" x2="532.88" y2="167.65"/><line class="cls-9" x1="439.8" y1="80.58" x2="532.12" y2="168.45"/><line class="cls-9" x1="438.95" y1="81.47" x2="531.27" y2="169.34"/><line class="cls-9" x1="438.19" y1="82.26" x2="530.52" y2="170.13"/><line class="cls-9" x1="429.4" y1="75.67" x2="539" y2="179.98"/><line class="cls-9" x1="428.64" y1="76.46" x2="538.24" y2="180.77"/><line class="cls-9" x1="427.79" y1="77.36" x2="537.39" y2="181.66"/><line class="cls-9" x1="427.04" y1="78.15" x2="536.64" y2="182.45"/><line class="cls-9" x1="426.17" y1="79.07" x2="535.76" y2="183.37"/><line class="cls-9" x1="425.41" y1="79.86" x2="535.01" y2="184.17"/><line class="cls-9" x1="424.56" y1="80.75" x2="534.16" y2="185.06"/><line class="cls-9" x1="423.81" y1="81.54" x2="533.41" y2="185.85"/><line class="cls-9" x1="419.93" y1="79.54" x2="531.68" y2="185.89"/><line class="cls-9" x1="419.18" y1="80.33" x2="530.92" y2="186.68"/><line class="cls-9" x1="418.33" y1="81.22" x2="530.07" y2="187.57"/><line class="cls-9" x1="417.57" y1="82.02" x2="529.32" y2="188.36"/><line class="cls-9" x1="416.7" y1="82.93" x2="528.44" y2="189.28"/><line class="cls-9" x1="415.94" y1="83.73" x2="527.69" y2="190.08"/><line class="cls-9" x1="415.1" y1="84.62" x2="526.84" y2="190.97"/><line class="cls-9" x1="414.34" y1="85.41" x2="526.09" y2="191.76"/><line class="cls-9" x1="411" y1="84" x2="530.7" y2="197.93"/><line class="cls-9" x1="410.24" y1="84.8" x2="529.95" y2="198.72"/><line class="cls-9" x1="409.39" y1="85.69" x2="529.1" y2="199.61"/><line class="cls-9" x1="408.64" y1="86.48" x2="528.35" y2="200.41"/><line class="cls-9" x1="407.76" y1="87.4" x2="527.47" y2="201.32"/><line class="cls-9" x1="407.01" y1="88.19" x2="526.72" y2="202.12"/><line class="cls-9" x1="406.16" y1="89.08" x2="525.87" y2="203.01"/><line class="cls-9" x1="405.41" y1="89.88" x2="525.11" y2="203.8"/><line class="cls-9" x1="404.75" y1="90.57" x2="528.09" y2="207.94"/><line class="cls-9" x1="404" y1="91.36" x2="527.33" y2="208.74"/><line class="cls-9" x1="403.15" y1="92.25" x2="526.48" y2="209.63"/><line class="cls-9" x1="402.39" y1="93.04" x2="525.73" y2="210.42"/><line class="cls-9" x1="401.52" y1="93.96" x2="524.85" y2="211.34"/><line class="cls-9" x1="400.76" y1="94.76" x2="524.1" y2="212.13"/><line class="cls-9" x1="399.92" y1="95.65" x2="523.25" y2="213.03"/><line class="cls-9" x1="399.16" y1="96.44" x2="522.5" y2="213.82"/><line class="cls-9" x1="394.95" y1="94.21" x2="523.34" y2="216.4"/><line class="cls-9" x1="394.19" y1="95" x2="522.59" y2="217.19"/><line class="cls-9" x1="393.34" y1="95.89" x2="521.74" y2="218.09"/><line class="cls-9" x1="392.59" y1="96.68" x2="520.99" y2="218.88"/><line class="cls-9" x1="391.72" y1="97.6" x2="520.11" y2="219.8"/><line class="cls-9" x1="390.96" y1="98.4" x2="519.36" y2="220.59"/><line class="cls-9" x1="390.11" y1="99.29" x2="518.51" y2="221.48"/><line class="cls-9" x1="389.36" y1="100.08" x2="517.75" y2="222.27"/><line class="cls-9" x1="475.36" y1="247.67" x2="537.02" y2="182.88"/><line class="cls-9" x1="474.57" y1="246.92" x2="536.23" y2="182.13"/><line class="cls-9" x1="473.68" y1="246.07" x2="535.34" y2="181.28"/><line class="cls-9" x1="472.89" y1="245.31" x2="534.55" y2="180.53"/><line class="cls-9" x1="471.97" y1="244.44" x2="533.63" y2="179.65"/><line class="cls-9" x1="471.18" y1="243.69" x2="532.83" y2="178.9"/><line class="cls-9" x1="470.28" y1="242.84" x2="531.94" y2="178.05"/><line class="cls-9" x1="469.49" y1="242.08" x2="531.15" y2="177.29"/><line class="cls-9" x1="463.28" y1="246.74" x2="536.47" y2="169.83"/><line class="cls-9" x1="462.49" y1="245.99" x2="535.68" y2="169.08"/><line class="cls-9" x1="461.59" y1="245.14" x2="534.79" y2="168.23"/><line class="cls-9" x1="460.8" y1="244.39" x2="534" y2="167.48"/><line class="cls-9" x1="459.88" y1="243.51" x2="533.08" y2="166.6"/><line class="cls-9" x1="459.09" y1="242.76" x2="532.28" y2="165.85"/><line class="cls-9" x1="458.2" y1="241.91" x2="531.39" y2="165"/><line class="cls-9" x1="457.4" y1="241.15" x2="530.6" y2="164.25"/><line class="cls-9" x1="450.29" y1="247.25" x2="535.26" y2="157.96"/><line class="cls-9" x1="449.49" y1="246.5" x2="534.47" y2="157.21"/><line class="cls-9" x1="448.6" y1="245.65" x2="533.58" y2="156.36"/><line class="cls-9" x1="447.81" y1="244.9" x2="532.79" y2="155.61"/><line class="cls-9" x1="446.89" y1="244.02" x2="531.87" y2="154.73"/><line class="cls-9" x1="446.1" y1="243.27" x2="531.07" y2="153.98"/><line class="cls-9" x1="445.21" y1="242.42" x2="530.18" y2="153.13"/><line class="cls-9" x1="444.41" y1="241.66" x2="529.39" y2="152.37"/><line class="cls-9" x1="436.2" y1="248.42" x2="537.08" y2="142.43"/><line class="cls-9" x1="435.41" y1="247.67" x2="536.29" y2="141.68"/><line class="cls-9" x1="434.52" y1="246.82" x2="535.39" y2="140.83"/><line class="cls-9" x1="433.73" y1="246.07" x2="534.6" y2="140.07"/><line class="cls-9" x1="432.81" y1="245.19" x2="533.68" y2="139.2"/><line class="cls-9" x1="432.01" y1="244.44" x2="532.89" y2="138.44"/><line class="cls-9" x1="431.12" y1="243.59" x2="532" y2="137.59"/><line class="cls-9" x1="430.33" y1="242.83" x2="531.2" y2="136.84"/><line class="cls-9" x1="426.65" y1="244.93" x2="529.5" y2="136.86"/><line class="cls-9" x1="425.86" y1="244.18" x2="528.71" y2="136.11"/><line class="cls-9" x1="424.97" y1="243.33" x2="527.82" y2="135.26"/><line class="cls-9" x1="424.17" y1="242.57" x2="527.03" y2="134.5"/><line class="cls-9" x1="423.26" y1="241.7" x2="526.11" y2="133.63"/><line class="cls-9" x1="422.46" y1="240.94" x2="525.31" y2="132.87"/><line class="cls-9" x1="421.57" y1="240.1" x2="524.42" y2="132.02"/><line class="cls-9" x1="420.78" y1="239.34" x2="523.63" y2="131.27"/><line class="cls-9" x1="417.58" y1="240.83" x2="527.76" y2="125.06"/><line class="cls-9" x1="416.79" y1="240.08" x2="526.97" y2="124.31"/><line class="cls-9" x1="415.9" y1="239.23" x2="526.08" y2="123.46"/><line class="cls-9" x1="415.11" y1="238.47" x2="525.28" y2="122.7"/><line class="cls-9" x1="414.19" y1="237.6" x2="524.37" y2="121.83"/><line class="cls-9" x1="413.4" y1="236.85" x2="523.57" y2="121.08"/><line class="cls-9" x1="412.5" y1="236" x2="522.68" y2="120.23"/><line class="cls-9" x1="411.71" y1="235.24" x2="521.89" y2="119.47"/><line class="cls-9" x1="411.02" y1="234.59" x2="524.54" y2="115.31"/><line class="cls-9" x1="410.23" y1="233.83" x2="523.75" y2="114.55"/><line class="cls-9" x1="409.34" y1="232.98" x2="522.85" y2="113.7"/><line class="cls-9" x1="408.54" y1="232.23" x2="522.06" y2="112.95"/><line class="cls-9" x1="407.62" y1="231.35" x2="521.14" y2="112.07"/><line class="cls-9" x1="406.83" y1="230.6" x2="520.35" y2="111.32"/><line class="cls-9" x1="405.94" y1="229.75" x2="519.46" y2="110.47"/><line class="cls-9" x1="405.15" y1="229" x2="518.67" y2="109.72"/><line class="cls-9" x1="401.15" y1="231.32" x2="519.33" y2="107.15"/><line class="cls-9" x1="400.36" y1="230.57" x2="518.54" y2="106.4"/><line class="cls-9" x1="399.47" y1="229.72" x2="517.65" y2="105.55"/><line class="cls-9" x1="398.68" y1="228.97" x2="516.85" y2="104.79"/><line class="cls-9" x1="397.76" y1="228.09" x2="515.93" y2="103.92"/><line class="cls-9" x1="396.97" y1="227.34" x2="515.14" y2="103.17"/><line class="cls-9" x1="396.07" y1="226.49" x2="514.25" y2="102.32"/><line class="cls-9" x1="395.28" y1="225.74" x2="513.46" y2="101.56"/><line class="cls-9" x1="368.98" y1="145.47" x2="432.74" y2="78.48"/><line class="cls-9" x1="369.78" y1="146.22" x2="433.53" y2="79.23"/><line class="cls-9" x1="370.67" y1="147.07" x2="434.42" y2="80.08"/><line class="cls-9" x1="371.46" y1="147.83" x2="435.22" y2="80.84"/><line class="cls-9" x1="372.38" y1="148.7" x2="436.13" y2="81.71"/><line class="cls-9" x1="366.57" y1="143.17" x2="430.32" y2="76.18"/><line class="cls-9" x1="367.36" y1="143.93" x2="431.12" y2="76.94"/><line class="cls-9" x1="368.28" y1="144.8" x2="432.03" y2="77.81"/><line class="cls-9" x1="373.17" y1="149.46" x2="436.93" y2="82.47"/><line class="cls-9" x1="374.06" y1="150.31" x2="437.82" y2="83.32"/><line class="cls-9" x1="374.86" y1="151.06" x2="438.61" y2="84.07"/><line class="cls-9" x1="370.33" y1="157.69" x2="446.01" y2="78.16"/><line class="cls-9" x1="371.12" y1="158.44" x2="446.8" y2="78.91"/><line class="cls-9" x1="372.01" y1="159.29" x2="447.7" y2="79.76"/><line class="cls-9" x1="372.8" y1="160.04" x2="448.49" y2="80.52"/><line class="cls-9" x1="373.72" y1="160.92" x2="449.41" y2="81.39"/><line class="cls-9" x1="374.52" y1="161.67" x2="450.2" y2="82.15"/><line class="cls-9" x1="375.41" y1="162.52" x2="451.09" y2="83"/><line class="cls-9" x1="376.2" y1="163.27" x2="451.88" y2="83.75"/><line class="cls-9" x1="370.24" y1="170.92" x2="458.11" y2="78.59"/><line class="cls-9" x1="371.04" y1="171.67" x2="458.9" y2="79.34"/><line class="cls-9" x1="371.93" y1="172.52" x2="459.79" y2="80.19"/><line class="cls-9" x1="372.72" y1="173.27" x2="460.59" y2="80.95"/><line class="cls-9" x1="373.64" y1="174.15" x2="461.5" y2="81.82"/><line class="cls-9" x1="374.43" y1="174.9" x2="462.3" y2="82.58"/><line class="cls-9" x1="375.32" y1="175.75" x2="463.19" y2="83.43"/><line class="cls-9" x1="376.12" y1="176.51" x2="463.98" y2="84.18"/><line class="cls-9" x1="369.52" y1="185.3" x2="473.83" y2="75.7"/><line class="cls-9" x1="370.31" y1="186.05" x2="474.62" y2="76.46"/><line class="cls-9" x1="371.21" y1="186.9" x2="475.51" y2="77.3"/><line class="cls-9" x1="372" y1="187.66" x2="476.3" y2="78.06"/><line class="cls-9" x1="372.92" y1="188.53" x2="477.22" y2="78.93"/><line class="cls-9" x1="373.71" y1="189.29" x2="478.02" y2="79.69"/><line class="cls-9" x1="374.6" y1="190.14" x2="478.91" y2="80.54"/><line class="cls-9" x1="375.4" y1="190.89" x2="479.7" y2="81.29"/><line class="cls-9" x1="373.39" y1="194.77" x2="479.74" y2="83.02"/><line class="cls-9" x1="374.18" y1="195.52" x2="480.53" y2="83.77"/><line class="cls-9" x1="375.07" y1="196.37" x2="481.42" y2="84.62"/><line class="cls-9" x1="375.87" y1="197.12" x2="482.21" y2="85.38"/><line class="cls-9" x1="376.78" y1="198" x2="483.13" y2="86.25"/><line class="cls-9" x1="377.58" y1="198.75" x2="483.93" y2="87.01"/><line class="cls-9" x1="378.47" y1="199.6" x2="484.82" y2="87.86"/><line class="cls-9" x1="379.26" y1="200.36" x2="485.61" y2="88.61"/><line class="cls-9" x1="377.85" y1="203.7" x2="491.78" y2="83.99"/><line class="cls-9" x1="378.65" y1="204.46" x2="492.57" y2="84.75"/><line class="cls-9" x1="379.54" y1="205.3" x2="493.46" y2="85.6"/><line class="cls-9" x1="380.33" y1="206.06" x2="494.26" y2="86.35"/><line class="cls-9" x1="381.25" y1="206.93" x2="495.18" y2="87.23"/><line class="cls-9" x1="382.04" y1="207.69" x2="495.97" y2="87.98"/><line class="cls-9" x1="382.94" y1="208.54" x2="496.86" y2="88.83"/><line class="cls-9" x1="383.73" y1="209.29" x2="497.65" y2="89.58"/><line class="cls-9" x1="384.42" y1="209.95" x2="501.8" y2="86.61"/><line class="cls-9" x1="385.21" y1="210.7" x2="502.59" y2="87.37"/><line class="cls-9" x1="386.1" y1="211.55" x2="503.48" y2="88.22"/><line class="cls-9" x1="386.89" y1="212.3" x2="504.27" y2="88.97"/><line class="cls-9" x1="387.81" y1="213.18" x2="505.19" y2="89.84"/><line class="cls-9" x1="388.61" y1="213.93" x2="505.98" y2="90.6"/><line class="cls-9" x1="389.5" y1="214.78" x2="506.88" y2="91.45"/><line class="cls-9" x1="390.29" y1="215.54" x2="507.67" y2="92.2"/><line class="cls-9" x1="388.06" y1="219.75" x2="510.25" y2="91.35"/><line class="cls-9" x1="388.85" y1="220.5" x2="511.04" y2="92.11"/><line class="cls-9" x1="389.74" y1="221.35" x2="511.94" y2="92.96"/><line class="cls-9" x1="390.54" y1="222.11" x2="512.73" y2="93.71"/><line class="cls-9" x1="391.45" y1="222.98" x2="513.65" y2="94.59"/><line class="cls-9" x1="392.25" y1="223.74" x2="514.44" y2="95.34"/><line class="cls-9" x1="393.14" y1="224.58" x2="515.33" y2="96.19"/><line class="cls-9" x1="393.93" y1="225.34" x2="516.13" y2="96.94"/><circle class="cls-6" cx="185.05" cy="160.42" r="71.42"/><path class="cls-7" d="M185.05,83.93a76.49,76.49,0,1,0,76.49,76.49A76.49,76.49,0,0,0,185.05,83.93Zm0,136.22a59.73,59.73,0,1,1,59.73-59.73A59.73,59.73,0,0,1,185.05,220.15Z"/><path class="cls-8" d="M185.05,100.69a59.73,59.73,0,1,0,59.73,59.73A59.73,59.73,0,0,0,185.05,100.69Zm0,106.37a46.64,46.64,0,1,1,46.65-46.64A46.64,46.64,0,0,1,185.05,207.06Z"/><g id="rak-main-white"><g class="cls-10"><g class="cls-11"><path class="cls-3" d="M406.23,45.38a3,3,0,0,1,.22,1.06c0,.47.05,1.89.06,2.31.47,0,1.08-.06,1.49-.06l3.76-.07h.13a1.8,1.8,0,0,0,1.88-1.71c.14-1.31-.58-1.63-.61-1.64a7.3,7.3,0,0,0-2.94-.52h-.48a19.66,19.66,0,0,0-3.51.62"/><path class="cls-3" d="M404,43.87a2.68,2.68,0,0,1,.8.2,3,3,0,0,1,1,.6,18.05,18.05,0,0,1,3.77-.73c.24,0,.5,0,.75,0a9.71,9.71,0,0,1,2.65.36,3.17,3.17,0,0,0,.41-.37,2,2,0,0,0,.5-1,2.12,2.12,0,0,0-.21-1.53c-.23-.43-.82-.65-1.76-.65h-.43l-.62,0a9,9,0,0,0-3.2.6A10.77,10.77,0,0,0,404,43.87"/><path class="cls-3" d="M399.52,43.8a3.38,3.38,0,0,1,1.28.24,3.12,3.12,0,0,1,.93.72,3.16,3.16,0,0,1,.31-.36,2.1,2.1,0,0,1,.73-.42,21.45,21.45,0,0,1,1.54-1.57,10.48,10.48,0,0,1,3.94-2.22,9.27,9.27,0,0,1,2.82-.37c.69,0,1.24,0,1.44.07a2.39,2.39,0,0,0,1-1.75c0-1.44-.55-1.77-3-1.89A11.65,11.65,0,0,0,402.87,39a12.71,12.71,0,0,0-3.35,4.78"/><path class="cls-3" d="M409.8,49.48c0,.41.06,1.06.06,1.49s0,2.61.06,3.48v.41a1.79,1.79,0,0,0,1.7,1.88l.32,0c1.06,0,1.33-.62,1.33-.63a7.76,7.76,0,0,0,.51-3.43,18.72,18.72,0,0,0-.63-3.5,3.08,3.08,0,0,1-1.05.22l-2.31.06"/><path class="cls-3" d="M414.27,55.91c.08.09.22.26.37.41a2,2,0,0,0,1,.5,2.52,2.52,0,0,0,.52.06,2.13,2.13,0,0,0,1-.27c.44-.23.66-.82.66-1.76,0-.12,0-.25,0-.38v0a9.34,9.34,0,0,0-.58-3.83A10.82,10.82,0,0,0,414.68,47a3.47,3.47,0,0,1-.2.8,3.09,3.09,0,0,1-.6,1,17.85,17.85,0,0,1,.72,3.77,9.6,9.6,0,0,1-.33,3.4"/><path class="cls-3" d="M418.65,55.48a2.38,2.38,0,0,0,1.73,1c1.46,0,1.8-.55,1.92-3a11.72,11.72,0,0,0-2.77-7.72,12.87,12.87,0,0,0-4.79-3.34,3.53,3.53,0,0,1-.23,1.28,3.44,3.44,0,0,1-.72.93,3.16,3.16,0,0,1,.36.31,2.32,2.32,0,0,1,.42.72c.29.26,1,.9,1.57,1.55a10.62,10.62,0,0,1,2.22,3.94,11.72,11.72,0,0,1,.29,4.26"/><path class="cls-3" d="M409.09,52.8c-.36,0-1,.05-1.5.05l-3.68.07h-.2a1.79,1.79,0,0,0-1.88,1.7c-.14,1.31.58,1.63.61,1.65a7.69,7.69,0,0,0,3.42.5,18.8,18.8,0,0,0,3.51-.62,2.92,2.92,0,0,1-.22-1.06c0-.3,0-1.08-.06-2.29Z"/><path class="cls-3" d="M402.66,57.27a3.34,3.34,0,0,0-.41.37,2,2,0,0,0-.5,1,2.11,2.11,0,0,0,.21,1.53c.23.43.82.65,1.76.65h.41l.64,0a9.09,9.09,0,0,0,3.21-.6,10.87,10.87,0,0,0,3.63-2.55,3.06,3.06,0,0,1-.8-.21,3.13,3.13,0,0,1-1-.59,18,18,0,0,1-3.76.72c-.24,0-.5,0-.75,0a9.56,9.56,0,0,1-2.65-.36"/><path class="cls-3" d="M403.08,61.65a2.41,2.41,0,0,0-1,1.75c0,1.44.55,1.78,3,1.9h.43a11.91,11.91,0,0,0,7.29-2.78,12.81,12.81,0,0,0,3.35-4.79,3.27,3.27,0,0,1-1.28-.24,3.12,3.12,0,0,1-.93-.72,2.88,2.88,0,0,1-.31.36,2,2,0,0,1-.73.42,19.81,19.81,0,0,1-1.54,1.58,10.6,10.6,0,0,1-3.94,2.21,9.27,9.27,0,0,1-2.82.37c-.69,0-1.25,0-1.45-.07"/><path class="cls-3" d="M403.63,44.81c-1.05,0-1.32.6-1.33.63a7.83,7.83,0,0,0-.51,3.42,18.53,18.53,0,0,0,.63,3.51,3,3,0,0,1,1.05-.23l2.31,0c0-.34-.06-1.05-.06-1.5s0-1.72-.07-3.75V46.7a1.79,1.79,0,0,0-1.7-1.88h-.32"/><path class="cls-3" d="M399.44,44.69a2.13,2.13,0,0,0-1,.27c-.44.23-.66.82-.66,1.76,0,.13,0,.27,0,.42a9.15,9.15,0,0,0,.58,3.83,11,11,0,0,0,2.56,3.64,3.24,3.24,0,0,1,.2-.8,3,3,0,0,1,.6-1,18.1,18.1,0,0,1-.72-3.76,9.56,9.56,0,0,1,.33-3.4,3.82,3.82,0,0,0-.37-.42,2,2,0,0,0-1-.49,2.52,2.52,0,0,0-.52-.06"/><path class="cls-3" d="M395.17,45c-1.43,0-1.77.55-1.89,3a11.7,11.7,0,0,0,2.77,7.72,12.75,12.75,0,0,0,4.79,3.34,2.6,2.6,0,0,1,1-2.2,4.05,4.05,0,0,1-.36-.31,2.62,2.62,0,0,1-.42-.73c-.29-.26-1-.9-1.57-1.54a10.7,10.7,0,0,1-2.22-3.94,12,12,0,0,1-.29-4.27,2.38,2.38,0,0,0-1.73-1Z"/><path class="cls-3" d="M443.05,40.64a6.54,6.54,0,0,1,2.44.44,5.62,5.62,0,0,1,1.86,1.2A5.37,5.37,0,0,1,448.54,44,5.73,5.73,0,0,1,449,46.2a6.06,6.06,0,0,1-.75,3.08,4.66,4.66,0,0,1-2.44,2v.06a3.45,3.45,0,0,1,1.35.69,3.92,3.92,0,0,1,.88,1.1,5.27,5.27,0,0,1,.49,1.4,13.53,13.53,0,0,1,.21,1.52c0,.32,0,.7.06,1.13s.05.88.1,1.33a8.33,8.33,0,0,0,.22,1.28,3,3,0,0,0,.47,1h-4.43a7.43,7.43,0,0,1-.45-2.28c-.06-.89-.15-1.73-.26-2.54a4,4,0,0,0-1-2.32,3.3,3.3,0,0,0-2.4-.73h-4.43v7.87h-4.43V40.64Zm-1.58,9.12a3.34,3.34,0,0,0,2.28-.68,2.79,2.79,0,0,0,.76-2.2,2.67,2.67,0,0,0-.76-2.13,3.39,3.39,0,0,0-2.28-.66h-4.86v5.67Z"/><path class="cls-3" d="M462.11,40.64l7.53,20.15H465l-1.52-4.48H456l-1.59,4.48H450l7.62-20.15ZM462.36,53l-2.54-7.39h-.05L457.14,53Z"/><polygon class="cls-3" points="475.03 40.64 475.03 49 482.9 40.64 488.44 40.64 480.56 48.6 489.2 60.79 483.64 60.79 477.57 51.73 475.03 54.3 475.03 60.79 470.6 60.79 470.6 40.64 475.03 40.64"/><rect class="cls-3" x="432.25" y="65" width="1.03" height="4.67"/><path class="cls-3" d="M434.15,67.28a1.47,1.47,0,0,1,.31-.56,1.56,1.56,0,0,1,.52-.38,2,2,0,0,1,1.41,0,1.66,1.66,0,0,1,.52.38,1.79,1.79,0,0,1,.31.56,2.28,2.28,0,0,1,.1.7,2.17,2.17,0,0,1-.1.69,1.69,1.69,0,0,1-.31.56,1.52,1.52,0,0,1-.52.38,2,2,0,0,1-1.41,0,1.43,1.43,0,0,1-.52-.38,1.4,1.4,0,0,1-.31-.56A2.17,2.17,0,0,1,434,68a2.28,2.28,0,0,1,.11-.7m.56,1.25a1.2,1.2,0,0,0,.23.4,1.12,1.12,0,0,0,.33.24,1,1,0,0,0,.41.09,1,1,0,0,0,.41-.09,1.16,1.16,0,0,0,.34-.24,1.18,1.18,0,0,0,.22-.4,1.55,1.55,0,0,0,.09-.55,1.59,1.59,0,0,0-.09-.55,1.18,1.18,0,0,0-.22-.4,1,1,0,0,0-.34-.25,1.11,1.11,0,0,0-.41-.08,1.15,1.15,0,0,0-.41.08,1,1,0,0,0-.33.25,1.2,1.2,0,0,0-.23.4,1.87,1.87,0,0,0-.08.55,1.82,1.82,0,0,0,.08.55"/><polygon class="cls-3" points="437.2 65.86 437.2 65 441.02 65 441.02 65.86 439.63 65.86 439.63 69.67 438.6 69.67 438.6 65.86 437.2 65.86"/><polygon class="cls-3" points="444.04 65 445.51 68.92 446.99 65 447.84 65 447.84 69.67 447.25 69.67 447.25 65.78 447.24 65.78 445.78 69.67 445.25 69.67 443.79 65.78 443.78 65.78 443.78 69.67 443.19 69.67 443.19 65 444.04 65"/><path class="cls-3" d="M451.8,69.66a.89.89,0,0,1-.4.08.47.47,0,0,1-.34-.12.51.51,0,0,1-.13-.4,1.27,1.27,0,0,1-.53.4,1.84,1.84,0,0,1-.66.12,2.12,2.12,0,0,1-.44,0,1,1,0,0,1-.35-.17.76.76,0,0,1-.24-.29,1.11,1.11,0,0,1,0-.9A.76.76,0,0,1,449,68a1,1,0,0,1,.36-.17,3.2,3.2,0,0,1,.42-.1,4,4,0,0,1,.44-.07,2.56,2.56,0,0,0,.36-.07.53.53,0,0,0,.25-.12.31.31,0,0,0,.09-.24.5.5,0,0,0-.07-.29.4.4,0,0,0-.17-.17.61.61,0,0,0-.25-.08,1.1,1.1,0,0,0-.26,0,1.2,1.2,0,0,0-.59.13.56.56,0,0,0-.25.51h-.56a1.18,1.18,0,0,1,.13-.53,1,1,0,0,1,.32-.35,1.34,1.34,0,0,1,.44-.19,2.35,2.35,0,0,1,.54-.06,3.44,3.44,0,0,1,.46,0,1.4,1.4,0,0,1,.41.13.81.81,0,0,1,.29.29.93.93,0,0,1,.11.47v1.74a1.85,1.85,0,0,0,0,.29c0,.06.07.09.16.09l.17,0Zm-.9-1.74a.91.91,0,0,1-.28.12l-.36,0-.37.06a1.53,1.53,0,0,0-.34.09.67.67,0,0,0-.25.19.53.53,0,0,0-.09.32.57.57,0,0,0,.05.24.54.54,0,0,0,.15.15.5.5,0,0,0,.2.08,1,1,0,0,0,.25,0,1.28,1.28,0,0,0,.47-.08.89.89,0,0,0,.32-.18.72.72,0,0,0,.19-.25.61.61,0,0,0,.06-.25Z"/><path class="cls-3" d="M454.8,69.67v-.46h0a.86.86,0,0,1-.43.41,1.71,1.71,0,0,1-.65.12,1.59,1.59,0,0,1-.68-.14,1.46,1.46,0,0,1-.49-.39,1.75,1.75,0,0,1-.29-.56,2.54,2.54,0,0,1-.1-.68,2.15,2.15,0,0,1,.1-.68,1.49,1.49,0,0,1,.29-.56,1.29,1.29,0,0,1,.48-.38,1.45,1.45,0,0,1,.68-.14l.28,0a1.71,1.71,0,0,1,.3.09,1.17,1.17,0,0,1,.28.17.79.79,0,0,1,.23.25h0V65h.56v4.67Zm-2-1.2a1.64,1.64,0,0,0,.19.4,1,1,0,0,0,.8.39,1,1,0,0,0,.48-.11,1.14,1.14,0,0,0,.32-.3,1.28,1.28,0,0,0,.18-.41,2.31,2.31,0,0,0,.05-.46,1.86,1.86,0,0,0-.06-.48,1.28,1.28,0,0,0-.18-.41,1,1,0,0,0-.33-.28,1,1,0,0,0-.49-.11,1,1,0,0,0-.48.11.89.89,0,0,0-.32.29,1.94,1.94,0,0,0-.17.42,2.63,2.63,0,0,0-.05.49,1.82,1.82,0,0,0,.06.46"/><path class="cls-3" d="M458.63,69.45a1.53,1.53,0,0,1-.95.29,1.7,1.7,0,0,1-.71-.13,1.42,1.42,0,0,1-.5-.37,1.44,1.44,0,0,1-.3-.56,2.64,2.64,0,0,1-.12-.71,2,2,0,0,1,.12-.71,1.84,1.84,0,0,1,.33-.56,1.57,1.57,0,0,1,.51-.36,1.62,1.62,0,0,1,1.38,0,1.57,1.57,0,0,1,.48.48,1.93,1.93,0,0,1,.25.63,2.85,2.85,0,0,1,.05.64h-2.53a2,2,0,0,0,.05.43,1.08,1.08,0,0,0,.19.35,1,1,0,0,0,.34.24,1,1,0,0,0,.47.1,1,1,0,0,0,.58-.17.8.8,0,0,0,.3-.49h.55a1.32,1.32,0,0,1-.49.85m-.13-2.17a1.05,1.05,0,0,0-.51-.51.92.92,0,0,0-.38-.07,1,1,0,0,0-.39.07.9.9,0,0,0-.3.21,1.13,1.13,0,0,0-.28.67h1.94a1,1,0,0,0-.08-.37"/><polygon class="cls-3" points="464.62 65 464.62 65.52 462.02 65.52 462.02 67 464.45 67 464.45 67.53 462.02 67.53 462.02 69.14 464.64 69.14 464.64 69.67 461.4 69.67 461.4 65 464.62 65"/><path class="cls-3" d="M468.33,69.66a.89.89,0,0,1-.4.08.47.47,0,0,1-.34-.12.51.51,0,0,1-.13-.4,1.27,1.27,0,0,1-.53.4,1.8,1.8,0,0,1-.66.12,2.12,2.12,0,0,1-.44,0,1,1,0,0,1-.35-.17.76.76,0,0,1-.24-.29,1.11,1.11,0,0,1,0-.9.76.76,0,0,1,.26-.3,1.09,1.09,0,0,1,.36-.17,3,3,0,0,1,.43-.1,3.49,3.49,0,0,1,.43-.07,2.56,2.56,0,0,0,.36-.07.53.53,0,0,0,.25-.12.31.31,0,0,0,.09-.24.5.5,0,0,0-.07-.29.4.4,0,0,0-.17-.17.62.62,0,0,0-.24-.08,1.23,1.23,0,0,0-.27,0,1.2,1.2,0,0,0-.59.13.58.58,0,0,0-.25.51h-.56a1.18,1.18,0,0,1,.13-.53,1.07,1.07,0,0,1,.32-.35,1.3,1.3,0,0,1,.45-.19,2.23,2.23,0,0,1,.54-.06,3.4,3.4,0,0,1,.45,0,1.31,1.31,0,0,1,.41.13.81.81,0,0,1,.29.29.84.84,0,0,1,.11.47v1.74a1,1,0,0,0,0,.29q0,.09.15.09l.17,0Zm-.9-1.74a.81.81,0,0,1-.28.12l-.35,0-.38.06a1.53,1.53,0,0,0-.34.09.67.67,0,0,0-.25.19.53.53,0,0,0-.09.32.45.45,0,0,0,.06.24.4.4,0,0,0,.14.15.49.49,0,0,0,.21.08.93.93,0,0,0,.24,0,1.38,1.38,0,0,0,.48-.08,1,1,0,0,0,.32-.18.83.83,0,0,0,.18-.25.61.61,0,0,0,.06-.25Z"/><path class="cls-3" d="M469.32,68.91a.5.5,0,0,0,.21.2.68.68,0,0,0,.29.11,1.15,1.15,0,0,0,.33,0l.27,0a1.07,1.07,0,0,0,.27-.08.48.48,0,0,0,.2-.15.42.42,0,0,0,.07-.26.35.35,0,0,0-.16-.32,1.11,1.11,0,0,0-.41-.18c-.16,0-.34-.09-.53-.13a2.74,2.74,0,0,1-.53-.16,1,1,0,0,1-.41-.28.73.73,0,0,1-.17-.51.78.78,0,0,1,.12-.44,1,1,0,0,1,.29-.3,1.68,1.68,0,0,1,.41-.17,2.3,2.3,0,0,1,.45-.05,2.22,2.22,0,0,1,.53.05,1.13,1.13,0,0,1,.42.17.84.84,0,0,1,.3.32,1.14,1.14,0,0,1,.13.52h-.55a.54.54,0,0,0-.09-.27.62.62,0,0,0-.18-.18,1.06,1.06,0,0,0-.25-.09,1.24,1.24,0,0,0-.27,0,1.1,1.1,0,0,0-.25,0,.62.62,0,0,0-.23.07.37.37,0,0,0-.17.13.34.34,0,0,0,0,.45,1.28,1.28,0,0,0,.26.16l.36.1.39.09.41.11a1.27,1.27,0,0,1,.35.17,1.06,1.06,0,0,1,.25.27.86.86,0,0,1,.09.41,1,1,0,0,1-.12.51,1.07,1.07,0,0,1-.34.33,1.33,1.33,0,0,1-.46.17,3,3,0,0,1-.51,0,2.35,2.35,0,0,1-.54-.06,1.3,1.3,0,0,1-.45-.19,1.07,1.07,0,0,1-.32-.35,1.26,1.26,0,0,1-.13-.54h.56a.59.59,0,0,0,.08.31"/><path class="cls-3" d="M473.45,70.12c-.07.17-.13.3-.19.42a2.27,2.27,0,0,1-.21.28.68.68,0,0,1-.26.15.8.8,0,0,1-.32,0h-.2l-.19-.05v-.51l.17.06.16,0a.49.49,0,0,0,.28-.08.47.47,0,0,0,.18-.23l.23-.57-1.34-3.36h.62l1,2.76h0l.95-2.76h.59Z"/><path class="cls-3" d="M495.23,43.28a2.71,2.71,0,1,1-2.7-2.64,2.66,2.66,0,0,1,2.7,2.64m-4.75,0a2,2,0,0,0,2.06,2.1,2,2,0,0,0,2-2.08,2,2,0,1,0-4.07,0m1.63,1.38h-.61V42a5.19,5.19,0,0,1,1-.08,1.7,1.7,0,0,1,.92.19.74.74,0,0,1,.25.58.67.67,0,0,1-.54.61v0a.79.79,0,0,1,.48.64,2.23,2.23,0,0,0,.19.66h-.66a2.33,2.33,0,0,1-.21-.64c0-.29-.2-.42-.54-.42h-.29Zm0-1.49h.29c.34,0,.61-.12.61-.39s-.17-.4-.56-.4a2.09,2.09,0,0,0-.34,0Z"/></g></g></g><path class="cls-3" d="M267.21,225.47,298,288.83H236.39Zm0-3.44L234,290.32h66.46Z"/><rect class="cls-3" x="271.66" y="241.02" width="1.5" height="43.75" transform="translate(-90.58 370.4) rotate(-60.48)"/><rect class="cls-3" x="272.22" y="242.84" width="1.5" height="48.39" transform="translate(-93.9 373) rotate(-60.48)"/><path class="cls-3" d="M258.4,254.9l-1.31-.67a71.94,71.94,0,0,1,4.38-7.5c2.06-2.89,13.2-5.29,14.43-5.59l.34,1.5c-4.57,1-12.26,3.15-13.53,5a82.42,82.42,0,0,0-4.31,7.2"/><path class="cls-3" d="M277.55,266.22l-.63-1.12a5.79,5.79,0,0,0,2.81-5.14,19.9,19.9,0,0,1,1.12-6.93l1.43.48a19.79,19.79,0,0,0-1,6.34,7.15,7.15,0,0,1-3.56,6.56"/><path class="cls-3" d="M261.43,274.28h-.6c-3.14-.37-7.12-10.27-7.16-10.38a6.78,6.78,0,0,1,2-6.9l1.05,1.09s-2.66,2.58-1.57,5.24c1.72,4.35,4.61,9.3,5.92,9.45.71,0,1.13,0,1.24-.22s0-.79-.64-1.5a17.16,17.16,0,0,1-3.22-7.5,13.6,13.6,0,0,1,1.68-3.75l1.28.79a12,12,0,0,0-1.46,3.07,16.59,16.59,0,0,0,2.92,6.49c1.28,1.65,1,2.7.75,3.22a2.35,2.35,0,0,1-2.14,1"/><path class="cls-3" d="M267.32,277.28a1.91,1.91,0,0,1-.9-.23c-.56-.26-1.16-1-1-2.62a25.38,25.38,0,0,1,5-9l1.16,1a23,23,0,0,0-4.65,8.21c0,.67,0,1.05.19,1.12a4.91,4.91,0,0,0,2.74-1.27,44,44,0,0,0,4.87-6.49l1.28.83a49.74,49.74,0,0,1-5.14,6.78,6.16,6.16,0,0,1-3.56,1.69"/><path class="cls-3" d="M266.87,271.84a16.1,16.1,0,0,1-6.22-2.51l.78-1.27a11.92,11.92,0,0,0,5.66,2.25,1.23,1.23,0,0,0,0-1.09c-.26-.9-1.42-1.84-3.14-2.62a4.14,4.14,0,0,1-2.48-2.33,3.76,3.76,0,0,1,.83-3.26l1.27.79a2.71,2.71,0,0,0-.64,2c0,.53.72,1,1.65,1.43a6.64,6.64,0,0,1,4.09,3.6,2.68,2.68,0,0,1-.3,2.32,1.48,1.48,0,0,1-1,.67h-.52"/><rect class="cls-3" x="264.32" y="228.92" width="6.07" height="1.5"/><rect class="cls-3" x="262.52" y="232.63" width="9.37" height="1.5"/><rect class="cls-3" x="260.72" y="236.31" width="12.93" height="1.5"/><rect class="cls-3" x="258.92" y="240.02" width="16.53" height="1.5"/><rect class="cls-3" x="257.42" y="243.69" width="9.82" height="1.5"/><rect class="cls-3" x="255.32" y="247.4" width="6.15" height="1.5"/><rect class="cls-3" x="253.86" y="251.08" width="5.25" height="1.5"/><rect class="cls-3" x="249.93" y="258.5" width="4.91" height="1.5"/><rect class="cls-3" x="280.51" y="258.5" width="3.94" height="1.5"/><rect class="cls-3" x="248.13" y="262.17" width="6.26" height="1.5"/><rect class="cls-3" x="279.88" y="262.17" width="6.26" height="1.5"/><rect class="cls-3" x="246.66" y="265.88" width="9.07" height="1.5"/><rect class="cls-3" x="279.05" y="265.88" width="9" height="1.5"/><rect class="cls-3" x="244.53" y="269.56" width="13.27" height="1.5"/><rect class="cls-3" x="274.1" y="269.56" width="4.76" height="1.5"/><rect class="cls-12" x="285.57" y="269.56" width="4.05" height="1.5"/><rect class="cls-3" x="242.73" y="273.27" width="23.43" height="1.5"/><rect class="cls-3" x="271.33" y="273.27" width="14.24" height="1.5"/><rect class="cls-3" x="241.53" y="276.94" width="50.16" height="1.5"/><rect class="cls-3" x="239.13" y="280.65" width="56.08" height="1.5"/><rect class="cls-3" x="237.18" y="284.36" width="59.79" height="1.5"/><g id="dispose-properly"><g id="Layer_2-2" data-name="Layer 2-2"><g id="Layer_1-2" data-name="Layer 1-2"><path class="cls-13" d="M54.27,280.22a2.39,2.39,0,0,0-2.62,2.11v.23a1.93,1.93,0,0,0,0,.48,2.38,2.38,0,1,0,2.58-2.82m-.24,2.9h-.31a.56.56,0,0,1,0-.79h0a.58.58,0,0,1,.43-.24h0a.47.47,0,0,1,.48.47v0a.56.56,0,0,1-.56.56"/><path class="cls-13" d="M68.25,230l-1.15-1.15-4,4.21-2.34,2.42h0L61,233h2.19v-1.19a2.86,2.86,0,0,0-2-5.37,2.76,2.76,0,0,0-1.31,1,15.44,15.44,0,0,0-3.41-1.91,34.18,34.18,0,0,0-7.11-1.67v-1.63H38.31v1.32a37.78,37.78,0,0,0-5.72.75v-.91H27.86v2.22a14.77,14.77,0,0,0-4.33,2.82,1,1,0,0,0-.28.79v.68H20.59V233h2.94L24,238.2,16.07,230l-1.16,1.15,9.65,9.65c.6,6.56,1.24,13.15,1.83,19.86.32,3.3.6,6.63.92,10L19,279.27l1.12,1.15,7.38-7.67,1,11.44a1,1,0,0,0,1,.92v5h4v-5H47.56A7,7,0,0,0,60.84,281a8.21,8.21,0,0,0-.29-.78,6.85,6.85,0,0,0-4-4V274.7L63,281.41l1.27-1.19-7.35-7.7c.36-4,.76-7.95,1.12-11.92.51-5.8,1.07-11.68,1.62-17.47h5.09v-7.67h-2Zm-6.15-2.07a1.27,1.27,0,0,1,1.27,1.28,1.31,1.31,0,0,1-.28.75H61.18v-.68a1,1,0,0,0-.27-.75,1.23,1.23,0,0,1,1.11-.6m-21.77-4h7.11v1.47H40.13Zm-10.4,1.15h1v3.1H29.73Zm-4.41,4.41A15.18,15.18,0,0,1,28,227.83v2.07H25.36v-.4m2.82,30.86c-.52-5.68-1-11.4-1.59-17.12L39.9,257.15l-11,11.16c-.39-2.59-.39-5.33-.75-7.95m3.69,28.52H31v-2.42h.91Zm15.21-6.12v.48H30.28c-.39-4-.75-8.34-1.15-12.51l11.92-12.39L55,272.87l-.24,2.94H54a7,7,0,0,0-7,6.95h0m10.61,0a3.65,3.65,0,0,1-7.27.48v-.48A3.61,3.61,0,0,1,54,279.15h.36a3.65,3.65,0,0,1,3.3,3.61m-1.59-22.4-1,10.37-13-13.58,7.94-8.31h1.95v-2.06L57.57,241v2.07h0c-.56,5.75-1.07,11.55-1.63,17.27M49.35,247.1H39.66v-1.43h10.6v.67Zm8.93-11.52h-.83v3.1l-5.36,5.8V244H37.83v4.92H47.88L41.05,256,26.35,240.5,25.64,233h33l-.24,2.42m.52-5.52H32.51v-3.53a37.86,37.86,0,0,1,5.72-.8v1.55H49v-1.23a32.15,32.15,0,0,1,6.43,1.51,13.51,13.51,0,0,1,3.5,2.1v.4m4,7.27v4h-3c0-1,.2-2.07.28-3.06l1-1Z"/></g></g></g><path class="cls-14" d="M320.31,23.64A30.32,30.32,0,0,0,342.6,74.51h.22a30.55,30.55,0,0,0,30.1-30.32,30.18,30.18,0,0,0-8-20.55Zm22.06,38.07a17.52,17.52,0,1,1,17.52-17.52A17.53,17.53,0,0,1,342.37,61.71Z"/><path class="cls-14" d="M320.31,298a30.32,30.32,0,0,1,22.29-50.88h.22a30.56,30.56,0,0,1,30.1,30.33,30.2,30.2,0,0,1-8,20.55ZM342.37,260a17.52,17.52,0,1,0,17.52,17.52A17.52,17.52,0,0,0,342.37,260Z"/><path class="cls-14" d="M155.76,59.92a14.75,14.75,0,0,0,14.53-14.64h0a14.64,14.64,0,1,0-14.64,14.64Zm-8.68-14.64h0a8.46,8.46,0,1,1,8.46,8.45,8.46,8.46,0,0,1-8.46-8.45Z"/><path class="cls-14" d="M33.43,102.85A14.73,14.73,0,0,0,48,88.22h0a14.64,14.64,0,1,0-14.63,14.63ZM24.76,88.22h0a8.46,8.46,0,1,1,8.46,8.45,8.46,8.46,0,0,1-8.46-8.45Z"/><path class="cls-14" d="M88.89,293.79a14.75,14.75,0,0,0,14.53-14.64h0a14.64,14.64,0,1,0-14.64,14.64Zm-8.68-14.64h0a8.46,8.46,0,1,1,8.46,8.46,8.46,8.46,0,0,1-8.46-8.46Z"/><circle class="cls-14" cx="114.51" cy="82.19" r="6.49"/><circle class="cls-14" cx="91.65" cy="82.19" r="6.49"/><circle class="cls-14" cx="66.56" cy="82.19" r="6.49"/><rect class="cls-15" x="22.19" y="114.55" width="39.94" height="94.39" rx="2.18"/><rect class="cls-16" x="47.36" y="131.22" width="22.57" height="7.37" rx="1.61"/><rect class="cls-16" x="18.44" y="111.32" width="22.57" height="18.72" rx="1.61"/><rect class="cls-16" x="18.44" y="197.11" width="22.57" height="18.72" rx="1.61"/><rect class="cls-16" x="47.36" y="142.54" width="22.57" height="7.37" rx="1.61"/><rect class="cls-16" x="47.36" y="153.86" width="22.57" height="7.37" rx="1.61"/><rect class="cls-16" x="47.36" y="165.19" width="22.57" height="7.37" rx="1.61"/><rect class="cls-16" x="47.36" y="176.75" width="22.57" height="7.37" rx="1.61"/><rect class="cls-16" x="47.36" y="187.76" width="22.57" height="7.37" rx="1.61"/><g id="r-01-4"><g class="cls-17"><g class="cls-17"><path class="cls-18" d="M56.67,44.65H67.59A1.46,1.46,0,0,1,69.16,46h0v3.15a1.46,1.46,0,0,1-1.57,1.33H56.67a1.43,1.43,0,0,1-1.54-1.29V46a1.41,1.41,0,0,1,1.5-1.32h0"/><rect class="cls-19" x="58.8" y="44.65" width="6.43" height="5.68"/></g></g></g><g id="r-01-4-2" data-name="r-01-4"><g class="cls-20"><g class="cls-20"><path class="cls-18" d="M56.67,58.45H67.59a1.46,1.46,0,0,1,1.57,1.33h0v3.15a1.47,1.47,0,0,1-1.57,1.33H56.67A1.43,1.43,0,0,1,55.13,63V59.78a1.42,1.42,0,0,1,1.5-1.33h0"/><rect class="cls-19" x="58.8" y="58.45" width="6.43" height="5.68"/></g></g></g><path class="cls-21" d="M50.79,40.68h22.5c.13,0,.24.22.24.49v26.6c0,.27-.11.49-.24.49H50.79c-.14,0-.25-.22-.25-.49V41.17C50.54,40.9,50.65,40.68,50.79,40.68Z"/><path class="cls-16" d="M454.27,62.47a98,98,0,1,0,98,97.95A98,98,0,0,0,454.27,62.47Zm0,174.44a76.49,76.49,0,1,1,76.49-76.49A76.48,76.48,0,0,1,454.27,236.91Z"/><line class="cls-9" x1="94.71" y1="182.81" x2="162.05" y2="246.9"/><line class="cls-9" x1="95.49" y1="181.99" x2="162.83" y2="246.07"/><line class="cls-9" x1="96.38" y1="181.06" x2="163.72" y2="245.15"/><line class="cls-9" x1="97.16" y1="180.24" x2="164.5" y2="244.32"/><line class="cls-9" x1="98.07" y1="179.28" x2="165.41" y2="243.37"/><line class="cls-9" x1="98.85" y1="178.46" x2="166.19" y2="242.54"/><line class="cls-9" x1="99.74" y1="177.53" x2="167.08" y2="241.62"/><line class="cls-9" x1="100.52" y1="176.71" x2="167.86" y2="240.79"/><line class="cls-9" x1="95.67" y1="170.25" x2="175.61" y2="246.33"/><line class="cls-9" x1="96.46" y1="169.42" x2="176.4" y2="245.5"/><line class="cls-9" x1="97.34" y1="168.5" x2="177.28" y2="244.57"/><line class="cls-9" x1="98.12" y1="167.67" x2="178.06" y2="243.75"/><line class="cls-9" x1="99.03" y1="166.72" x2="178.97" y2="242.8"/><line class="cls-9" x1="99.82" y1="165.89" x2="179.76" y2="241.97"/><line class="cls-9" x1="100.7" y1="164.97" x2="180.64" y2="241.04"/><line class="cls-9" x1="101.48" y1="164.14" x2="181.42" y2="240.22"/><line class="cls-9" x1="95.14" y1="156.74" x2="187.95" y2="245.07"/><line class="cls-9" x1="95.93" y1="155.92" x2="188.73" y2="244.24"/><line class="cls-9" x1="96.81" y1="154.99" x2="189.62" y2="243.32"/><line class="cls-9" x1="97.59" y1="154.17" x2="190.4" y2="242.49"/><line class="cls-9" x1="98.5" y1="153.21" x2="191.31" y2="241.54"/><line class="cls-9" x1="99.29" y1="152.39" x2="192.09" y2="240.71"/><line class="cls-9" x1="100.17" y1="151.46" x2="192.98" y2="239.79"/><line class="cls-9" x1="100.95" y1="150.64" x2="193.76" y2="238.96"/><line class="cls-9" x1="93.93" y1="142.11" x2="204.1" y2="246.95"/><line class="cls-9" x1="94.71" y1="141.28" x2="204.88" y2="246.13"/><line class="cls-9" x1="95.59" y1="140.35" x2="205.76" y2="245.2"/><line class="cls-9" x1="96.38" y1="139.53" x2="206.55" y2="244.38"/><line class="cls-9" x1="97.29" y1="138.58" x2="207.46" y2="243.43"/><line class="cls-9" x1="98.07" y1="137.75" x2="208.24" y2="242.6"/><line class="cls-9" x1="98.95" y1="136.82" x2="209.12" y2="241.67"/><line class="cls-9" x1="99.74" y1="136" x2="209.91" y2="240.85"/><line class="cls-9" x1="97.56" y1="132.18" x2="209.89" y2="239.08"/><line class="cls-9" x1="98.34" y1="131.35" x2="210.67" y2="238.26"/><line class="cls-9" x1="99.22" y1="130.43" x2="211.55" y2="237.33"/><line class="cls-9" x1="100.01" y1="129.6" x2="212.34" y2="236.51"/><line class="cls-9" x1="100.92" y1="128.65" x2="213.25" y2="235.55"/><line class="cls-9" x1="101.7" y1="127.82" x2="214.03" y2="234.73"/><line class="cls-9" x1="102.58" y1="126.9" x2="214.91" y2="233.8"/><line class="cls-9" x1="103.37" y1="126.07" x2="215.7" y2="232.98"/><line class="cls-9" x1="101.82" y1="122.75" x2="222.15" y2="237.27"/><line class="cls-9" x1="102.6" y1="121.93" x2="222.93" y2="236.45"/><line class="cls-9" x1="103.49" y1="121" x2="223.82" y2="235.52"/><line class="cls-9" x1="104.27" y1="120.18" x2="224.6" y2="234.7"/><line class="cls-9" x1="105.18" y1="119.22" x2="225.51" y2="233.74"/><line class="cls-9" x1="105.96" y1="118.4" x2="226.29" y2="232.92"/><line class="cls-9" x1="106.84" y1="117.47" x2="227.18" y2="231.99"/><line class="cls-9" x1="107.63" y1="116.65" x2="227.96" y2="231.17"/><line class="cls-9" x1="108.31" y1="115.93" x2="232.29" y2="233.92"/><line class="cls-9" x1="109.09" y1="115.11" x2="233.07" y2="233.1"/><line class="cls-9" x1="109.98" y1="114.18" x2="233.96" y2="232.17"/><line class="cls-9" x1="110.76" y1="113.36" x2="234.74" y2="231.35"/><line class="cls-9" x1="111.67" y1="112.4" x2="235.65" y2="230.39"/><line class="cls-9" x1="112.45" y1="111.58" x2="236.43" y2="229.57"/><line class="cls-9" x1="113.34" y1="110.65" x2="237.31" y2="228.64"/><line class="cls-9" x1="114.12" y1="109.83" x2="238.1" y2="227.82"/><line class="cls-9" x1="111.7" y1="105.68" x2="240.76" y2="228.51"/><line class="cls-9" x1="112.48" y1="104.85" x2="241.55" y2="227.68"/><line class="cls-9" x1="113.37" y1="103.93" x2="242.43" y2="226.76"/><line class="cls-9" x1="114.15" y1="103.1" x2="243.21" y2="225.93"/><line class="cls-9" x1="115.06" y1="102.15" x2="244.12" y2="224.98"/><line class="cls-9" x1="115.84" y1="101.32" x2="244.91" y2="224.16"/><line class="cls-9" x1="116.73" y1="100.4" x2="245.79" y2="223.23"/><line class="cls-9" x1="117.51" y1="99.57" x2="246.57" y2="222.4"/><line class="cls-9" x1="200.94" y1="72.24" x2="270.57" y2="138.5"/><line class="cls-9" x1="200.15" y1="73.06" x2="269.78" y2="139.33"/><line class="cls-9" x1="199.27" y1="73.99" x2="268.9" y2="140.26"/><line class="cls-9" x1="198.49" y1="74.81" x2="268.12" y2="141.08"/><line class="cls-9" x1="197.58" y1="75.77" x2="267.21" y2="142.03"/><line class="cls-9" x1="203.32" y1="69.73" x2="272.95" y2="135.99"/><line class="cls-9" x1="202.54" y1="70.55" x2="272.17" y2="136.82"/><line class="cls-9" x1="201.63" y1="71.51" x2="271.26" y2="137.77"/><line class="cls-9" x1="196.79" y1="76.59" x2="266.42" y2="142.86"/><line class="cls-9" x1="195.91" y1="77.52" x2="265.54" y2="143.79"/><line class="cls-9" x1="195.13" y1="78.34" x2="264.76" y2="144.61"/><line class="cls-9" x1="188.24" y1="73.64" x2="270.9" y2="152.3"/><line class="cls-9" x1="187.46" y1="74.46" x2="270.11" y2="153.12"/><line class="cls-9" x1="186.57" y1="75.39" x2="269.23" y2="154.05"/><line class="cls-9" x1="185.79" y1="76.21" x2="268.45" y2="154.87"/><line class="cls-9" x1="184.88" y1="77.17" x2="267.54" y2="155.83"/><line class="cls-9" x1="184.1" y1="77.99" x2="266.75" y2="156.65"/><line class="cls-9" x1="183.21" y1="78.92" x2="265.87" y2="157.58"/><line class="cls-9" x1="182.43" y1="79.74" x2="265.09" y2="158.4"/><line class="cls-9" x1="174.49" y1="73.55" x2="270.45" y2="164.88"/><line class="cls-9" x1="173.7" y1="74.37" x2="269.67" y2="165.7"/><line class="cls-9" x1="172.82" y1="75.3" x2="268.78" y2="166.63"/><line class="cls-9" x1="172.04" y1="76.12" x2="268" y2="167.45"/><line class="cls-9" x1="171.13" y1="77.08" x2="267.09" y2="168.4"/><line class="cls-9" x1="170.35" y1="77.9" x2="266.31" y2="169.23"/><line class="cls-9" x1="169.46" y1="78.83" x2="265.42" y2="170.16"/><line class="cls-9" x1="168.68" y1="79.65" x2="264.64" y2="170.98"/><line class="cls-9" x1="159.54" y1="72.8" x2="273.45" y2="181.21"/><line class="cls-9" x1="158.75" y1="73.62" x2="272.67" y2="182.04"/><line class="cls-9" x1="157.87" y1="74.55" x2="271.79" y2="182.96"/><line class="cls-9" x1="157.09" y1="75.37" x2="271" y2="183.79"/><line class="cls-9" x1="156.18" y1="76.33" x2="270.09" y2="184.74"/><line class="cls-9" x1="155.39" y1="77.15" x2="269.31" y2="185.57"/><line class="cls-9" x1="154.51" y1="78.08" x2="268.43" y2="186.49"/><line class="cls-9" x1="153.73" y1="78.9" x2="267.64" y2="187.32"/><line class="cls-9" x1="149.7" y1="76.82" x2="265.85" y2="187.36"/><line class="cls-9" x1="148.91" y1="77.64" x2="265.06" y2="188.18"/><line class="cls-9" x1="148.03" y1="78.57" x2="264.18" y2="189.11"/><line class="cls-9" x1="147.25" y1="79.39" x2="263.4" y2="189.93"/><line class="cls-9" x1="146.34" y1="80.35" x2="262.49" y2="190.89"/><line class="cls-9" x1="145.55" y1="81.17" x2="261.7" y2="191.71"/><line class="cls-9" x1="144.67" y1="82.1" x2="260.82" y2="192.64"/><line class="cls-9" x1="143.89" y1="82.92" x2="260.04" y2="193.46"/><line class="cls-9" x1="140.41" y1="81.46" x2="264.83" y2="199.87"/><line class="cls-9" x1="139.63" y1="82.28" x2="264.05" y2="200.7"/><line class="cls-9" x1="138.74" y1="83.21" x2="263.17" y2="201.62"/><line class="cls-9" x1="137.96" y1="84.03" x2="262.38" y2="202.45"/><line class="cls-9" x1="137.05" y1="84.99" x2="261.47" y2="203.4"/><line class="cls-9" x1="136.27" y1="85.81" x2="260.69" y2="204.23"/><line class="cls-9" x1="135.39" y1="86.74" x2="259.81" y2="205.15"/><line class="cls-9" x1="134.6" y1="87.56" x2="259.02" y2="205.98"/><line class="cls-9" x1="133.92" y1="88.28" x2="262.11" y2="210.28"/><line class="cls-9" x1="133.14" y1="89.1" x2="261.33" y2="211.11"/><line class="cls-9" x1="132.25" y1="90.03" x2="260.45" y2="212.03"/><line class="cls-9" x1="131.47" y1="90.86" x2="259.66" y2="212.86"/><line class="cls-9" x1="130.56" y1="91.81" x2="258.75" y2="213.81"/><line class="cls-9" x1="129.78" y1="92.63" x2="257.97" y2="214.64"/><line class="cls-9" x1="128.89" y1="93.56" x2="257.09" y2="215.56"/><line class="cls-9" x1="128.11" y1="94.39" x2="256.3" y2="216.39"/><line class="cls-9" x1="123.73" y1="92.06" x2="257.18" y2="219.07"/><line class="cls-9" x1="122.95" y1="92.89" x2="256.4" y2="219.9"/><line class="cls-9" x1="122.06" y1="93.82" x2="255.52" y2="220.82"/><line class="cls-9" x1="121.28" y1="94.64" x2="254.73" y2="221.65"/><line class="cls-9" x1="120.37" y1="95.59" x2="253.83" y2="222.6"/><line class="cls-9" x1="119.59" y1="96.42" x2="253.04" y2="223.43"/><line class="cls-9" x1="118.71" y1="97.35" x2="252.16" y2="224.35"/><line class="cls-9" x1="117.92" y1="98.17" x2="251.37" y2="225.18"/><line class="cls-9" x1="207.31" y1="251.57" x2="271.4" y2="184.23"/><line class="cls-9" x1="206.49" y1="250.79" x2="270.58" y2="183.45"/><line class="cls-9" x1="205.56" y1="249.91" x2="269.65" y2="182.57"/><line class="cls-9" x1="204.74" y1="249.12" x2="268.83" y2="181.78"/><line class="cls-9" x1="203.79" y1="248.21" x2="267.87" y2="180.87"/><line class="cls-9" x1="202.96" y1="247.43" x2="267.05" y2="180.09"/><line class="cls-9" x1="202.03" y1="246.55" x2="266.12" y2="179.21"/><line class="cls-9" x1="201.21" y1="245.76" x2="265.3" y2="178.42"/><line class="cls-9" x1="194.75" y1="250.61" x2="270.83" y2="170.67"/><line class="cls-9" x1="193.93" y1="249.83" x2="270.01" y2="169.89"/><line class="cls-9" x1="193" y1="248.94" x2="269.08" y2="169"/><line class="cls-9" x1="192.18" y1="248.16" x2="268.26" y2="168.22"/><line class="cls-9" x1="191.22" y1="247.25" x2="267.3" y2="167.31"/><line class="cls-9" x1="190.4" y1="246.47" x2="266.48" y2="166.53"/><line class="cls-9" x1="189.47" y1="245.58" x2="265.55" y2="165.65"/><line class="cls-9" x1="188.65" y1="244.8" x2="264.73" y2="164.86"/><line class="cls-9" x1="181.25" y1="251.14" x2="269.57" y2="158.33"/><line class="cls-9" x1="180.43" y1="250.36" x2="268.75" y2="157.55"/><line class="cls-9" x1="179.5" y1="249.47" x2="267.82" y2="156.67"/><line class="cls-9" x1="178.67" y1="248.69" x2="267" y2="155.88"/><line class="cls-9" x1="177.72" y1="247.78" x2="266.04" y2="154.97"/><line class="cls-9" x1="176.9" y1="247" x2="265.22" y2="154.19"/><line class="cls-9" x1="175.97" y1="246.11" x2="264.29" y2="153.31"/><line class="cls-9" x1="175.14" y1="245.33" x2="263.47" y2="152.52"/><line class="cls-9" x1="166.61" y1="252.36" x2="271.46" y2="142.19"/><line class="cls-9" x1="165.79" y1="251.57" x2="270.64" y2="141.4"/><line class="cls-9" x1="164.86" y1="250.69" x2="269.71" y2="140.52"/><line class="cls-9" x1="164.04" y1="249.91" x2="268.88" y2="139.74"/><line class="cls-9" x1="163.08" y1="249" x2="267.93" y2="138.83"/><line class="cls-9" x1="162.26" y1="248.21" x2="267.11" y2="138.04"/><line class="cls-9" x1="161.33" y1="247.33" x2="266.18" y2="137.16"/><line class="cls-9" x1="160.51" y1="246.55" x2="265.36" y2="136.38"/><line class="cls-9" x1="156.68" y1="248.73" x2="263.59" y2="136.4"/><line class="cls-9" x1="155.86" y1="247.94" x2="262.76" y2="135.61"/><line class="cls-9" x1="154.93" y1="247.06" x2="261.84" y2="134.73"/><line class="cls-9" x1="154.11" y1="246.28" x2="261.01" y2="133.95"/><line class="cls-9" x1="153.15" y1="245.37" x2="260.06" y2="133.04"/><line class="cls-9" x1="152.33" y1="244.58" x2="259.23" y2="132.25"/><line class="cls-9" x1="151.4" y1="243.7" x2="258.31" y2="131.37"/><line class="cls-9" x1="150.58" y1="242.92" x2="257.48" y2="130.59"/><line class="cls-9" x1="147.26" y1="244.46" x2="261.78" y2="124.13"/><line class="cls-9" x1="146.43" y1="243.68" x2="260.95" y2="123.35"/><line class="cls-9" x1="145.51" y1="242.8" x2="260.03" y2="122.47"/><line class="cls-9" x1="144.68" y1="242.01" x2="259.2" y2="121.68"/><line class="cls-9" x1="143.73" y1="241.11" x2="258.25" y2="120.77"/><line class="cls-9" x1="142.9" y1="240.32" x2="257.42" y2="119.99"/><line class="cls-9" x1="141.98" y1="239.44" x2="256.5" y2="119.11"/><line class="cls-9" x1="141.15" y1="238.66" x2="255.67" y2="118.32"/><line class="cls-9" x1="140.44" y1="237.97" x2="258.43" y2="113.99"/><line class="cls-9" x1="139.61" y1="237.19" x2="257.6" y2="113.21"/><line class="cls-9" x1="138.69" y1="236.31" x2="256.68" y2="112.33"/><line class="cls-9" x1="137.86" y1="235.52" x2="255.85" y2="111.54"/><line class="cls-9" x1="136.91" y1="234.61" x2="254.9" y2="110.64"/><line class="cls-9" x1="136.08" y1="233.83" x2="254.07" y2="109.85"/><line class="cls-9" x1="135.16" y1="232.95" x2="253.15" y2="108.97"/><line class="cls-9" x1="134.33" y1="232.16" x2="252.32" y2="108.19"/><line class="cls-9" x1="130.18" y1="234.58" x2="253.01" y2="105.52"/><line class="cls-9" x1="129.36" y1="233.8" x2="252.19" y2="104.73"/><line class="cls-9" x1="128.43" y1="232.92" x2="251.26" y2="103.85"/><line class="cls-9" x1="127.61" y1="232.13" x2="250.44" y2="103.07"/><line class="cls-9" x1="126.65" y1="231.22" x2="249.48" y2="102.16"/><line class="cls-9" x1="125.83" y1="230.44" x2="248.66" y2="101.38"/><line class="cls-9" x1="124.9" y1="229.56" x2="247.73" y2="100.49"/><line class="cls-9" x1="124.08" y1="228.77" x2="246.91" y2="99.71"/><line class="cls-9" x1="96.74" y1="145.35" x2="163.01" y2="75.72"/><line class="cls-9" x1="97.57" y1="146.13" x2="163.83" y2="76.5"/><line class="cls-9" x1="98.49" y1="147.01" x2="164.76" y2="77.38"/><line class="cls-9" x1="99.32" y1="147.8" x2="165.58" y2="78.17"/><line class="cls-9" x1="100.27" y1="148.71" x2="166.54" y2="79.08"/><line class="cls-9" x1="94.23" y1="142.96" x2="160.5" y2="73.33"/><line class="cls-9" x1="95.06" y1="143.74" x2="161.32" y2="74.11"/><line class="cls-9" x1="96.01" y1="144.65" x2="162.28" y2="75.02"/><line class="cls-9" x1="101.1" y1="149.49" x2="167.36" y2="79.86"/><line class="cls-9" x1="102.02" y1="150.37" x2="168.29" y2="80.74"/><line class="cls-9" x1="102.85" y1="151.16" x2="169.11" y2="81.53"/><line class="cls-9" x1="98.14" y1="158.04" x2="176.81" y2="75.39"/><line class="cls-9" x1="98.96" y1="158.83" x2="177.63" y2="76.17"/><line class="cls-9" x1="99.89" y1="159.71" x2="178.56" y2="77.05"/><line class="cls-9" x1="100.72" y1="160.49" x2="179.38" y2="77.84"/><line class="cls-9" x1="101.67" y1="161.4" x2="180.33" y2="78.75"/><line class="cls-9" x1="102.49" y1="162.19" x2="181.16" y2="79.53"/><line class="cls-9" x1="103.42" y1="163.07" x2="182.09" y2="80.41"/><line class="cls-9" x1="104.24" y1="163.85" x2="182.91" y2="81.2"/><line class="cls-9" x1="98.05" y1="171.8" x2="189.38" y2="75.83"/><line class="cls-9" x1="98.88" y1="172.58" x2="190.2" y2="76.62"/><line class="cls-9" x1="99.8" y1="173.46" x2="191.13" y2="77.5"/><line class="cls-9" x1="100.63" y1="174.25" x2="191.95" y2="78.28"/><line class="cls-9" x1="101.58" y1="175.15" x2="192.91" y2="79.19"/><line class="cls-9" x1="102.41" y1="175.94" x2="193.73" y2="79.98"/><line class="cls-9" x1="103.33" y1="176.82" x2="194.66" y2="80.86"/><line class="cls-9" x1="104.16" y1="177.6" x2="195.48" y2="81.64"/><line class="cls-9" x1="97.3" y1="186.75" x2="205.72" y2="72.83"/><line class="cls-9" x1="98.13" y1="187.53" x2="206.54" y2="73.61"/><line class="cls-9" x1="99.05" y1="188.41" x2="207.47" y2="74.5"/><line class="cls-9" x1="99.88" y1="189.2" x2="208.29" y2="75.28"/><line class="cls-9" x1="100.83" y1="190.11" x2="209.25" y2="76.19"/><line class="cls-9" x1="101.66" y1="190.89" x2="210.07" y2="76.97"/><line class="cls-9" x1="102.58" y1="191.77" x2="211" y2="77.86"/><line class="cls-9" x1="103.41" y1="192.56" x2="211.82" y2="78.64"/><line class="cls-9" x1="101.32" y1="196.59" x2="211.86" y2="80.44"/><line class="cls-9" x1="102.15" y1="197.37" x2="212.68" y2="81.22"/><line class="cls-9" x1="103.07" y1="198.25" x2="213.61" y2="82.1"/><line class="cls-9" x1="103.9" y1="199.04" x2="214.44" y2="82.89"/><line class="cls-9" x1="104.85" y1="199.94" x2="215.39" y2="83.8"/><line class="cls-9" x1="105.68" y1="200.73" x2="216.21" y2="84.58"/><line class="cls-9" x1="106.6" y1="201.61" x2="217.14" y2="85.46"/><line class="cls-9" x1="107.43" y1="202.4" x2="217.96" y2="86.25"/><line class="cls-9" x1="105.96" y1="205.87" x2="224.38" y2="81.45"/><line class="cls-9" x1="106.79" y1="206.66" x2="225.2" y2="82.23"/><line class="cls-9" x1="107.72" y1="207.54" x2="226.13" y2="83.12"/><line class="cls-9" x1="108.54" y1="208.32" x2="226.95" y2="83.9"/><line class="cls-9" x1="109.49" y1="209.23" x2="227.91" y2="84.81"/><line class="cls-9" x1="110.32" y1="210.02" x2="228.73" y2="85.59"/><line class="cls-9" x1="111.25" y1="210.9" x2="229.66" y2="86.48"/><line class="cls-9" x1="112.07" y1="211.68" x2="230.48" y2="87.26"/><line class="cls-9" x1="112.79" y1="212.36" x2="234.79" y2="84.17"/><line class="cls-9" x1="113.61" y1="213.15" x2="235.61" y2="84.95"/><line class="cls-9" x1="114.54" y1="214.03" x2="236.54" y2="85.84"/><line class="cls-9" x1="115.36" y1="214.81" x2="237.36" y2="86.62"/><line class="cls-9" x1="116.32" y1="215.72" x2="238.32" y2="87.53"/><line class="cls-9" x1="117.14" y1="216.51" x2="239.14" y2="88.31"/><line class="cls-9" x1="118.07" y1="217.39" x2="240.07" y2="89.2"/><line class="cls-9" x1="118.89" y1="218.17" x2="240.89" y2="89.98"/><line class="cls-9" x1="116.57" y1="222.55" x2="243.58" y2="89.1"/><line class="cls-9" x1="117.39" y1="223.34" x2="244.4" y2="89.88"/><line class="cls-9" x1="118.32" y1="224.22" x2="245.33" y2="90.77"/><line class="cls-9" x1="119.14" y1="225" x2="246.15" y2="91.55"/><line class="cls-9" x1="120.1" y1="225.91" x2="247.11" y2="92.46"/><line class="cls-9" x1="120.92" y1="226.7" x2="247.93" y2="93.24"/><line class="cls-9" x1="121.85" y1="227.58" x2="248.86" y2="94.12"/><line class="cls-9" x1="122.67" y1="228.36" x2="249.68" y2="94.91"/><path class="cls-16" d="M185.05,62.47a98,98,0,1,0,98,97.95A98,98,0,0,0,185.05,62.47Zm0,174.44a76.49,76.49,0,1,1,76.49-76.49A76.48,76.48,0,0,1,185.05,236.91Z"/></svg>