<svg xmlns="http://www.w3.org/2000/svg" xmlns:xlink="http://www.w3.org/1999/xlink" viewBox="0 0 61.41516 61.41547"><defs><style>.cls-1{fill:#232323;}.cls-2{fill:#deaa53;}.cls-3{fill:#fff;}.cls-4{fill:none;stroke:#fff;stroke-linecap:round;stroke-linejoin:round;stroke-width:0.62262px;}.cls-5{fill:#d7d5ea;}.cls-6{fill:#d1bdaa;}.cls-7{fill:#ead7be;}.cls-8{fill:#b19267;}.cls-9{fill:#c8b6a5;}.cls-10{fill:url(#linear-gradient);}.cls-11{fill:#d1d5d2;}.cls-12{fill:#5d493e;}.cls-13{fill:#e3d7cf;}.cls-14{fill:#f7fbf9;}.cls-15{fill:#dfab52;}</style><linearGradient id="linear-gradient" x1="31.38448" y1="31.56548" x2="31.38448" y2="38.86724" gradientUnits="userSpaceOnUse"><stop offset="0" stop-color="#d2ba9a"/><stop offset="0.36579" stop-color="#d4bd9d"/><stop offset="0.65948" stop-color="#dbc5a7"/><stop offset="0.92738" stop-color="#e6d2b8"/><stop offset="1" stop-color="#ead7be"/></linearGradient></defs><g id="Layer_2" data-name="Layer 2"><g id="_13009" data-name="13009"><path class="cls-1" d="M61.41516,0V61.41547H46.21534V57.872a5.03066,5.03066,0,1,0-10.03893,0v3.5435H0V0Z"/><path class="cls-2" d="M48.91136,57.61528v3.80019h-2.696V57.872a5.03066,5.03066,0,1,0-10.03893,0v3.5435h-3.2608V57.61528a8.01931,8.01931,0,0,1,7.72826-8.293h.53923C45.44511,49.32225,48.91136,53.04534,48.91136,57.61528Z"/><polygon class="cls-3" points="55.539 1.281 6.538 1.281 6.538 5.556 25.262 5.556 31.038 8.595 36.815 5.556 55.539 5.556 55.539 1.281"/><rect class="cls-4" x="9.5696" y="10.14468" width="43.26542" height="29.9908"/><rect class="cls-5" x="10.41906" y="10.69096" width="41.95435" height="11.79966"/><rect class="cls-6" x="11.58112" y="11.48564" width="39.63808" height="27.72387"/><rect class="cls-7" x="11.57328" y="11.48564" width="39.63808" height="18.82485"/><rect class="cls-8" x="13.4169" y="35.67272" width="2.73816" height="2.05362"/><rect class="cls-8" x="46.64525" y="35.67272" width="2.73816" height="2.05362"/><rect class="cls-9" x="11.57328" y="35.67272" width="39.64591" height="3.53679"/><rect class="cls-8" x="13.4169" y="36.4143" width="2.73816" height="2.05362"/><rect class="cls-8" x="46.64525" y="36.4143" width="2.73816" height="2.05362"/><rect class="cls-8" x="13.4169" y="31.67957" width="2.73816" height="2.05362"/><rect class="cls-8" x="46.64525" y="31.67957" width="2.73816" height="2.05362"/><rect class="cls-7" x="16.95993" y="27.00188" width="28.86477" height="8.67084"/><rect class="cls-10" x="17.75072" y="35.67272" width="27.26751" height="3.53679"/><rect class="cls-11" x="20.38427" y="38.7304" width="4.06041" height="3.33851" transform="translate(-17.98518 62.81414) rotate(-90)"/><polygon class="cls-12" points="22.414 35.478 20.745 38.369 24.084 38.369 22.414 35.478"/><rect class="cls-13" x="22.04795" y="34.78341" width="0.80307" height="3.58604"/><rect class="cls-14" x="21.8791" y="39.11857" width="1.07076" height="2.56218" rx="0.53538"/><rect class="cls-14" x="21.8791" y="33.50232" width="1.07076" height="2.56218" rx="0.53538"/><rect class="cls-11" x="26.37472" y="38.7304" width="4.06041" height="3.33851" transform="translate(-11.99473 68.80459) rotate(-90)"/><polygon class="cls-12" points="28.405 35.478 26.736 38.369 30.074 38.369 28.405 35.478"/><rect class="cls-13" x="28.0384" y="34.78341" width="0.80307" height="3.58604"/><rect class="cls-14" x="27.86955" y="39.11857" width="1.07076" height="2.56218" rx="0.53538"/><rect class="cls-14" x="27.86955" y="33.50232" width="1.07076" height="2.56218" rx="0.53538"/><rect class="cls-11" x="32.36517" y="38.7304" width="4.06041" height="3.33851" transform="translate(-6.00428 74.79504) rotate(-90)"/><polygon class="cls-12" points="34.395 35.478 32.726 38.369 36.065 38.369 34.395 35.478"/><rect class="cls-13" x="34.02885" y="34.78341" width="0.80307" height="3.58604"/><rect class="cls-14" x="33.86" y="39.11857" width="1.07076" height="2.56218" rx="0.53538"/><rect class="cls-14" x="33.86" y="33.50232" width="1.07076" height="2.56218" rx="0.53538"/><rect class="cls-11" x="38.35562" y="38.7304" width="4.06041" height="3.33851" transform="translate(-0.01383 80.78549) rotate(-90)"/><polygon class="cls-12" points="40.386 35.478 38.717 38.369 42.055 38.369 40.386 35.478"/><rect class="cls-13" x="40.0193" y="34.78341" width="0.80307" height="3.58604"/><rect class="cls-14" x="39.85045" y="39.11857" width="1.07076" height="2.56218" rx="0.53538"/><rect class="cls-14" x="39.85045" y="33.50232" width="1.07076" height="2.56218" rx="0.53538"/><circle class="cls-15" cx="20.00781" cy="51.57076" r="3.50999"/><circle class="cls-15" cx="27.88624" cy="51.57076" r="3.50999"/><path class="cls-3" d="M11.16085,60.34045H10.262l-.697-2.79819H9.55364l-.68575,2.79819H7.95271l-1.08819-4.112h.9039l.65065,2.79819h.01128l.7146-2.79819h.84623l.70331,2.8333h.01128l.67322-2.8333h.8876Z"/><path class="cls-3" d="M12.84453,56.22841h.9039v4.112h-.9039Z"/><path class="cls-3" d="M14.35982,56.22841h.90389v4.112h-.90389Z"/><path class="cls-3" d="M18.96079,57.51217a.89811.89811,0,0,0-.89888-.71961c-.81238,0-1.117.692-1.117,1.41164,0,.6845.30464,1.37653,1.117,1.37653a.922.922,0,0,0,.93273-.92271h.87506a1.72831,1.72831,0,0,1-1.80779,1.68243,2.15817,2.15817,0,0,1,0-4.30761,1.671,1.671,0,0,1,1.77394,1.47933Z"/><path class="cls-3" d="M5.62369,60.09885a1.8917,1.8917,0,0,1-.48146.19424,2.27133,2.27133,0,0,1-.56265.06679,2.12306,2.12306,0,0,1-.84681-.16238,1.86828,1.86828,0,0,1-.64384-.45243,1.98907,1.98907,0,0,1-.40878-.68751,2.68183,2.68183,0,0,1,0-1.72265,1.99241,1.99241,0,0,1,.40878-.68726,1.86817,1.86817,0,0,1,.64384-.45244,2.12323,2.12323,0,0,1,.84681-.16237,2.14578,2.14578,0,0,1,.84987.16237,1.86186,1.86186,0,0,1,.64668.45244,1.99627,1.99627,0,0,1,.40877.68726,2.694,2.694,0,0,1,.02053,1.66483,2.03583,2.03583,0,0,1-.354.65257l.4699.44064-.47556.50459Zm-1.03821-.57422a.96142.96142,0,0,0,.37124-.06962l-.37714-.36535.4758-.493.38281.36535a1.46085,1.46085,0,0,0,.11-.35378,2.28826,2.28826,0,0,0,.03493-.41184,2.17169,2.17169,0,0,0-.06089-.52772,1.27865,1.27865,0,0,0-.18574-.42365.88926.88926,0,0,0-.31319-.28109.99352.99352,0,0,0-.87584,0,.89124.89124,0,0,0-.31319.28109,1.32679,1.32679,0,0,0-.18834.42365,2.209,2.209,0,0,0,0,1.05544,1.28894,1.28894,0,0,0,.18834.42057.8793.8793,0,0,0,.75123.38Z"/><path class="cls-3" d="M54.94281,60.49841V57.84314a1.35177,1.35177,0,0,1,1.35647-1.44172,1.20566,1.20566,0,0,1,1.23612.77978h.01254c.14543-.53156.6494-.682,1.15087-.7171a2.55911,2.55911,0,0,0,1.16592-.20811v1.08317a5.807,5.807,0,0,1-1.17846.173c-.519.07522-.74468.27581-.74468.8199v1.08317h1.92314v1.08317Zm2.22652-1.08317v-1.186c0-.48893-.20811-.74468-.70456-.74468-.47389,0-.682.25575-.682.74468v1.186Z"/><path class="cls-3" d="M54.94281,53.869V52.75825l4.92192-1.84039v1.12329l-1.09571.37359v1.84039l1.09571.38613V55.737Zm3.01884.1028V52.69556l-1.80528.62183v.015Z"/><path class="cls-3" d="M54.94281,50.2835V49.20033h2.041l-2.041-1.92313V45.92574L56.886,47.84887l2.97873-2.10867v1.35647l-2.214,1.48184.62684.62182h1.58715V50.2835Z"/><path class="cls-3" d="M59.86473,43.35822v.98037H56.73305v1.21356H55.9959c.02-.682-.22065-1.30382-.95781-1.41415v-.77978Z"/><path class="cls-3" d="M56.9888,40.72551c.03511-.42123-.04764-1.028-.59925-1.028a.6383.6383,0,0,0-.64188.682c0,.49645.36607.7522.86253.74719v.93022A1.60014,1.60014,0,0,1,54.94281,40.387a1.48728,1.48728,0,0,1,1.33642-1.61974.96.96,0,0,1,.98538.67447h.01505a1.0712,1.0712,0,0,1,1.0957-.85249,1.79923,1.79923,0,0,1-.173,3.58549V41.242c.524-.02006.95279-.28082.95279-.84748a.74328.74328,0,0,0-.75973-.7873c-.72963,0-.7171.64188-.7171,1.11827Z"/><path class="cls-3" d="M54.94281,36.24489c0-.96533.60678-1.78021,2.48729-1.78021,1.92564,0,2.53241.81488,2.53241,1.78021,0,.9578-.60677,1.76517-2.53241,1.76517C55.54959,38.01006,54.94281,37.20269,54.94281,36.24489Zm4.21234,0c0-.79984-1.17845-.79984-1.725-.79984-.50147,0-1.68243,0-1.68243.79984,0,.79232,1.181.7848,1.68243.7848C57.9767,37.02969,59.15515,37.02969,59.15515,36.24489Z"/><path class="cls-3" d="M54.94281,32.06766c0-.96533.60678-1.78022,2.48729-1.78022,1.92564,0,2.53241.81489,2.53241,1.78022,0,.9578-.60677,1.76517-2.53241,1.76517C55.54959,33.83283,54.94281,33.02546,54.94281,32.06766Zm4.21234,0c0-.79985-1.17845-.79985-1.725-.79985-.50147,0-1.68243,0-1.68243.79985,0,.79232,1.181.7848,1.68243.7848C57.9767,32.85246,59.15515,32.85246,59.15515,32.06766Z"/><path class="cls-3" d="M58.62359,28.67021a.69233.69233,0,0,0,.59926-.6494c0-.7171-.93775-.89011-1.4668-.92521l-.015.015a1.21217,1.21217,0,0,1,.53657,1.08819,1.52911,1.52911,0,0,1-.49646,1.11075,1.63781,1.63781,0,0,1-1.07314.37359,1.67217,1.67217,0,0,1-1.76517-1.68994c0-1.46179,1.27373-1.85544,2.49481-1.85544,1.186,0,2.52489.524,2.52489,1.89555a1.47371,1.47371,0,0,1-1.33892,1.56709ZM56.6453,27.18586a.82973.82973,0,0,0-.89763.77978.806.806,0,0,0,.88258.73716c.45634,0,.91017-.23318.91017-.73716A.79743.79743,0,0,0,56.6453,27.18586Z"/><path class="cls-3" d="M59.86473,13.66878v1.22107l-4.92192,1.59969V15.37126l3.46013-1.09571V14.263l-3.46013-1.11075V12.0365Z"/><path class="cls-3" d="M54.94281,11.40214V9.08536c0-.93775.30088-1.57211,1.21857-1.57211a1.07,1.07,0,0,1,1.028.66946,1.19537,1.19537,0,0,1,1.24866-.90264c.99792,0,1.42668.84748,1.42668,1.73759v2.38448Zm1.99083-1.08066V9.22326c0-.38613-.1705-.66194-.58672-.66194-.46135,0-.56415.35855-.56415.74468v1.01548Zm2.09113,0V9.16308c0-.42123-.14042-.80235-.64941-.80235-.504,0-.70456.31091-.70456.77979v1.181Z"/></g></g></svg>