<svg xmlns="http://www.w3.org/2000/svg" xmlns:xlink="http://www.w3.org/1999/xlink" viewBox="0 0 706.09 569.42"><defs><style>.cls-1,.cls-59,.cls-63,.cls-73{fill:none;}.cls-2{clip-path:url(#clip-path);}.cls-3{fill:#be8e3f;}.cls-4{clip-path:url(#clip-path-2);}.cls-5,.cls-68{fill:#fff;}.cls-6{clip-path:url(#clip-path-3);}.cls-7{clip-path:url(#clip-path-4);}.cls-8{clip-path:url(#clip-path-5);}.cls-9{clip-path:url(#clip-path-6);}.cls-10{fill:#e5e5e5;}.cls-11{fill:#ca992c;}.cls-12{clip-path:url(#clip-path-7);}.cls-13{fill:#17181c;}.cls-14{fill:#eb8923;}.cls-15{fill:#b2b3b2;}.cls-16{fill:#bf8f3e;}.cls-17{clip-path:url(#clip-path-8);}.cls-18{clip-path:url(#clip-path-9);}.cls-19{clip-path:url(#clip-path-10);}.cls-20{clip-path:url(#clip-path-11);}.cls-21{clip-path:url(#clip-path-12);}.cls-22{clip-path:url(#clip-path-13);}.cls-23{clip-path:url(#clip-path-14);}.cls-24{clip-path:url(#clip-path-15);}.cls-25{clip-path:url(#clip-path-16);}.cls-26{clip-path:url(#clip-path-17);}.cls-27{clip-path:url(#clip-path-18);}.cls-28{clip-path:url(#clip-path-19);}.cls-29{clip-path:url(#clip-path-20);}.cls-30{clip-path:url(#clip-path-21);}.cls-31{clip-path:url(#clip-path-22);}.cls-32{fill:#c0903d;}.cls-33{clip-path:url(#clip-path-24);}.cls-34{clip-path:url(#clip-path-25);}.cls-35{clip-path:url(#clip-path-26);}.cls-36{clip-path:url(#clip-path-27);}.cls-37{clip-path:url(#clip-path-28);}.cls-38{clip-path:url(#clip-path-29);}.cls-39{fill:#232323;}.cls-40{clip-path:url(#clip-path-30);}.cls-41{clip-path:url(#clip-path-31);}.cls-42{clip-path:url(#clip-path-32);}.cls-43{clip-path:url(#clip-path-33);}.cls-44{clip-path:url(#clip-path-34);}.cls-45{clip-path:url(#clip-path-35);}.cls-46{clip-path:url(#clip-path-36);}.cls-47{clip-path:url(#clip-path-37);}.cls-48{clip-path:url(#clip-path-38);}.cls-49{clip-path:url(#clip-path-39);}.cls-50{clip-path:url(#clip-path-40);}.cls-51{clip-path:url(#clip-path-42);}.cls-52{clip-path:url(#clip-path-43);}.cls-53{clip-path:url(#clip-path-44);}.cls-54{clip-path:url(#clip-path-45);}.cls-55{clip-path:url(#clip-path-46);}.cls-56{clip-path:url(#clip-path-47);}.cls-57{fill:#e9e9dc;}.cls-58{fill:#7f7f74;}.cls-59,.cls-63{stroke:#fff;}.cls-59,.cls-63,.cls-73{stroke-miterlimit:10;}.cls-59{stroke-width:2.41px;}.cls-60{fill:#3d3b3d;}.cls-61{fill:#606161;}.cls-62{fill:#100e10;}.cls-63{stroke-width:1.2px;}.cls-64{fill:#1e1d1e;}.cls-65{clip-path:url(#clip-path-48);}.cls-66{fill:#fef0bc;}.cls-67{fill:#ed2224;}.cls-68{isolation:isolate;font-size:23.92px;font-family:HelveticaNeueLTPro-Bd, Helvetica Neue LT Pro;}.cls-69{fill:#5cba47;}.cls-70{fill:#fed401;}.cls-71{fill:#333;}.cls-72{fill:#363896;}.cls-73{stroke:#231f20;stroke-width:3px;}.cls-74{fill:#231f20;}</style><clipPath id="clip-path" transform="translate(0 0)"><rect class="cls-1" x="207.65" y="550.68" width="16.32" height="16.32"/></clipPath><clipPath id="clip-path-2" transform="translate(0 0)"><rect class="cls-1" x="313.85" y="547.2" width="3.17" height="4.07"/></clipPath><clipPath id="clip-path-3" transform="translate(0 0)"><rect class="cls-1" x="313.85" y="554.53" width="3.17" height="4.07"/></clipPath><clipPath id="clip-path-4" transform="translate(0 0)"><rect class="cls-1" x="341.91" y="547.2" width="3.17" height="4.07"/></clipPath><clipPath id="clip-path-5" transform="translate(0 0)"><rect class="cls-1" x="341.91" y="554.53" width="3.17" height="4.07"/></clipPath><clipPath id="clip-path-6" transform="translate(0 0)"><rect class="cls-1" x="393.41" y="545.11" width="41.41" height="14.39"/></clipPath><clipPath id="clip-path-7" transform="translate(0 0)"><rect class="cls-1" x="151.61" width="401.61" height="569.42"/></clipPath><clipPath id="clip-path-8" transform="translate(0 0)"><rect class="cls-1" x="514.93" y="233.45" width="23.28" height="24"/></clipPath><clipPath id="clip-path-9" transform="translate(0 0)"><rect class="cls-1" x="514.72" y="191.91" width="23.6" height="23.61"/></clipPath><clipPath id="clip-path-10" transform="translate(0 0)"><rect class="cls-1" x="514.84" y="152.32" width="23.4" height="23.4"/></clipPath><clipPath id="clip-path-11" transform="translate(0 0)"><rect class="cls-1" x="514.7" y="111.97" width="23.67" height="23.67"/></clipPath><clipPath id="clip-path-12" transform="translate(0 0)"><rect class="cls-1" x="514.99" y="396.18" width="22.99" height="23.71"/></clipPath><clipPath id="clip-path-13" transform="translate(0 0)"><rect class="cls-1" x="514.59" y="354.66" width="23.77" height="23.77"/></clipPath><clipPath id="clip-path-14" transform="translate(0 0)"><rect class="cls-1" x="514.66" y="314.91" width="23.49" height="23.49"/></clipPath><clipPath id="clip-path-15" transform="translate(0 0)"><rect class="cls-1" x="514.71" y="274.54" width="23.66" height="23.66"/></clipPath><clipPath id="clip-path-16" transform="translate(0 0)"><rect class="cls-1" x="162.74" y="280.92" width="22.99" height="23.71"/></clipPath><clipPath id="clip-path-17" transform="translate(0 0)"><rect class="cls-1" x="162.64" y="239.4" width="23.58" height="23.58"/></clipPath><clipPath id="clip-path-18" transform="translate(0 0)"><rect class="cls-1" x="162.62" y="199.65" width="23.49" height="23.49"/></clipPath><clipPath id="clip-path-19" transform="translate(0 0)"><rect class="cls-1" x="162.56" y="159.28" width="23.66" height="23.66"/></clipPath><clipPath id="clip-path-20" transform="translate(0 0)"><rect class="cls-1" x="223.97" y="519.45" width="42.99" height="42.99"/></clipPath><clipPath id="clip-path-21" transform="translate(0 0)"><rect class="cls-1" x="451.03" y="90.29" width="6.6" height="6.6"/></clipPath><clipPath id="clip-path-22" transform="translate(0 0)"><rect class="cls-1" x="415.33" y="90.29" width="6.6" height="6.6"/></clipPath><clipPath id="clip-path-24" transform="translate(0 0)"><rect class="cls-1" x="171.63" y="514.66" width="10.3" height="9.25"/></clipPath><clipPath id="clip-path-25" transform="translate(0 0)"><rect class="cls-1" x="171.63" y="529.05" width="10.3" height="9.25"/></clipPath><clipPath id="clip-path-26" transform="translate(0 0)"><rect class="cls-1" x="192.07" y="523.91" width="10.3" height="9.25"/></clipPath><clipPath id="clip-path-27" transform="translate(0 0)"><rect class="cls-1" x="192.07" y="537.96" width="10.3" height="9.25"/></clipPath><clipPath id="clip-path-28" transform="translate(0 0)"><rect class="cls-1" x="172.52" y="542.58" width="8.55" height="8.55"/></clipPath><clipPath id="clip-path-29" transform="translate(0 0)"><rect class="cls-1" x="277.4" y="510.77" width="15.79" height="36.12"/></clipPath><clipPath id="clip-path-30" transform="translate(0 0)"><rect class="cls-1" x="298.06" y="538.93" width="10.5" height="23.36"/></clipPath><clipPath id="clip-path-31" transform="translate(0 0)"><rect class="cls-1" x="444.87" y="532.69" width="10.5" height="23.36"/></clipPath><clipPath id="clip-path-32" transform="translate(0 0)"><rect class="cls-1" x="299.33" y="513.48" width="7.47" height="17.79"/></clipPath><clipPath id="clip-path-33" transform="translate(0 0)"><rect class="cls-1" x="313.85" y="530.66" width="3.17" height="4.07"/></clipPath><clipPath id="clip-path-34" transform="translate(0 0)"><rect class="cls-1" x="313.85" y="538.93" width="3.17" height="4.07"/></clipPath><clipPath id="clip-path-35" transform="translate(0 0)"><rect class="cls-1" x="341.91" y="530.66" width="3.17" height="4.07"/></clipPath><clipPath id="clip-path-36" transform="translate(0 0)"><rect class="cls-1" x="341.91" y="538.93" width="3.17" height="4.07"/></clipPath><clipPath id="clip-path-37" transform="translate(0 0)"><rect class="cls-1" x="312.75" y="509.27" width="24.18" height="8.69"/></clipPath><clipPath id="clip-path-38" transform="translate(0 0)"><rect class="cls-1" x="399.1" y="530.38" width="24.18" height="8.69"/></clipPath><clipPath id="clip-path-39" transform="translate(0 0)"><rect class="cls-1" x="160.09" y="316.31" width="16.95" height="16.95"/></clipPath><clipPath id="clip-path-40" transform="translate(0 0)"><rect class="cls-1" x="522.79" y="490.75" width="16.95" height="16.95"/></clipPath><clipPath id="clip-path-42" transform="translate(0 0)"><rect class="cls-1" x="428.04" y="123.62" width="16.02" height="14.39"/></clipPath><clipPath id="clip-path-43" transform="translate(0 0)"><rect class="cls-1" x="444.06" y="146.09" width="34.62" height="15.42"/></clipPath><clipPath id="clip-path-44" transform="translate(0 0)"><rect class="cls-1" x="444.06" y="100.65" width="34.62" height="15.42"/></clipPath><clipPath id="clip-path-45" transform="translate(0 0)"><rect class="cls-1" x="416.36" y="122.61" width="6.07" height="6.76" transform="translate(33.75 333.46) rotate(-45)"/></clipPath><clipPath id="clip-path-46" transform="translate(0 0)"><rect class="cls-1" x="408.35" y="114.6" width="6.07" height="6.76" transform="translate(37.06 325.45) rotate(-45)"/></clipPath><clipPath id="clip-path-47" transform="translate(0 0)"><rect class="cls-1" x="415.66" y="107.3" width="6.07" height="6.76" transform="translate(44.37 328.48) rotate(-45)"/></clipPath><clipPath id="clip-path-48" transform="translate(0 0)"><rect class="cls-1" x="173.52" y="106.44" width="13.96" height="38.56"/></clipPath></defs><g id="Layer_2" data-name="Layer 2"><g id="Layer_2-2" data-name="Layer 2"><g class="cls-2"><path class="cls-3" d="M207.65,558.84a8.16,8.16,0,1,1,8.16,8.16,8.17,8.17,0,0,1-8.16-8.16" transform="translate(0 0)"/></g><g class="cls-4"><path class="cls-5" d="M314.28,547.2h2.31c.24,0,.43.28.43.61v2.84c0,.34-.19.62-.43.62h-2.31c-.23,0-.43-.28-.43-.62v-2.84c0-.33.2-.61.43-.61" transform="translate(0 0)"/></g><g class="cls-6"><path class="cls-5" d="M314.28,554.53h2.31c.24,0,.43.28.43.62V558c0,.34-.19.62-.43.62h-2.31c-.23,0-.43-.28-.43-.62v-2.83c0-.34.2-.62.43-.62" transform="translate(0 0)"/></g><g class="cls-7"><path class="cls-5" d="M342.34,547.2h2.31c.24,0,.43.28.43.61v2.84c0,.34-.19.62-.43.62h-2.31c-.24,0-.43-.28-.43-.62v-2.84c0-.33.19-.61.43-.61" transform="translate(0 0)"/></g><g class="cls-8"><path class="cls-5" d="M342.34,554.53h2.31c.24,0,.43.28.43.62V558c0,.34-.19.62-.43.62h-2.31c-.24,0-.43-.28-.43-.62v-2.83c0-.34.19-.62.43-.62" transform="translate(0 0)"/></g><g class="cls-9"><path class="cls-10" d="M399.73,545.11h28.78c3.53,0,6.31,1.69,6.31,3.71v6.91c0,2.07-2.88,3.7-6.31,3.7H399.73c-3.53,0-6.31-1.69-6.31-3.7v-6.91c-.1-2,2.78-3.71,6.31-3.71" transform="translate(0 0)"/><rect class="cls-11" x="404.56" y="545.13" width="19.03" height="14.37"/></g><g class="cls-12"><path class="cls-13" d="M493.2,99.38V0H207.27V100.2l-55.66.27V569.42h401.6v-470ZM174.38,162a9,9,0,1,1-8.68,9,8.86,8.86,0,0,1,8.68-9m0,40.15a9,9,0,1,1-8.68,9,8.85,8.85,0,0,1,8.68-9m0,39.89a9,9,0,1,1-8.68,9,8.85,8.85,0,0,1,8.68-9m0,41.67a9,9,0,1,1-8.68,9,8.85,8.85,0,0,1,8.68-9m6.28,92.21a13.25,13.25,0,1,1,13.25-13.25,13.25,13.25,0,0,1-13.25,13.25m64.71,178.27A13.25,13.25,0,1,1,258.62,541a13.26,13.26,0,0,1-13.25,13.25m276-82.36a13.26,13.26,0,1,1,13.25-13.25,13.26,13.26,0,0,1-13.25,13.25m5.19-54.72a9,9,0,1,1,8.69-9,8.85,8.85,0,0,1-8.69,9m0-41.67a9,9,0,1,1,8.69-9,8.85,8.85,0,0,1-8.69,9m0-39.89a9,9,0,1,1,8.69-9,8.85,8.85,0,0,1-8.69,9m0-40.15a9,9,0,1,1,8.69-9,8.85,8.85,0,0,1-8.69,9m0-41a9,9,0,1,1,8.69-9,8.85,8.85,0,0,1-8.69,9m0-41.67a9,9,0,1,1,8.69-9,8.85,8.85,0,0,1-8.69,9m0-39.88a9,9,0,1,1,8.69-9,8.86,8.86,0,0,1-8.69,9m0-40.15a9,9,0,1,1,8.69-9,8.85,8.85,0,0,1-8.69,9" transform="translate(0 0)"/><path class="cls-14" d="M490.47,111.08H501a1.47,1.47,0,0,1,1.47,1.48V122A1.47,1.47,0,0,1,501,123.5H490.47A1.46,1.46,0,0,1,489,122v-9.47a1.47,1.47,0,0,1,1.47-1.48" transform="translate(0 0)"/><path class="cls-15" d="M499.2,122.19h-6.58a1.36,1.36,0,0,1-1.22-1.46V114a1.35,1.35,0,0,1,1.22-1.45h6.58a1.35,1.35,0,0,1,1.22,1.45v6.72a1.36,1.36,0,0,1-1.22,1.46" transform="translate(0 0)"/><path class="cls-16" d="M494.88,123.11h3.71c2.73,0,5-2.58,5-5.74s-2.22-5.73-5-5.73h-3.71c-2.73,0-5,2.58-5,5.73s2.23,5.74,5,5.74m.16-9.71a4,4,0,1,1-3.43,4,3.73,3.73,0,0,1,3.43-4" transform="translate(0 0)"/><path class="cls-5" d="M496.59,109.46h4.89a2.06,2.06,0,0,1,2.06,2.06v11.74a2.06,2.06,0,0,1-2.06,2.06h-4.89a2.06,2.06,0,0,1-2.06-2.06V111.52a2.06,2.06,0,0,1,2.06-2.06" transform="translate(0 0)"/><path class="cls-14" d="M490.47,130.81H501a1.47,1.47,0,0,1,1.47,1.48v9.47a1.47,1.47,0,0,1-1.47,1.48H490.47a1.47,1.47,0,0,1-1.47-1.48v-9.47a1.47,1.47,0,0,1,1.47-1.48" transform="translate(0 0)"/><path class="cls-15" d="M499.2,141.92h-6.58a1.35,1.35,0,0,1-1.22-1.45v-6.73a1.35,1.35,0,0,1,1.22-1.45h6.58a1.35,1.35,0,0,1,1.22,1.45v6.73a1.35,1.35,0,0,1-1.22,1.45" transform="translate(0 0)"/><path class="cls-16" d="M494.88,142.84h3.71c2.73,0,5-2.58,5-5.74s-2.22-5.73-5-5.73h-3.71c-2.73,0-5,2.58-5,5.73s2.23,5.74,5,5.74m.16-9.71a4,4,0,1,1-3.43,4,3.73,3.73,0,0,1,3.43-4" transform="translate(0 0)"/><path class="cls-5" d="M496.59,129.19h4.89a2.06,2.06,0,0,1,2.06,2.06V143a2.06,2.06,0,0,1-2.06,2.06h-4.89a2.06,2.06,0,0,1-2.06-2.06V131.25a2.06,2.06,0,0,1,2.06-2.06" transform="translate(0 0)"/><path class="cls-14" d="M490.47,152H501a1.47,1.47,0,0,1,1.47,1.48v9.47a1.47,1.47,0,0,1-1.47,1.48H490.47a1.47,1.47,0,0,1-1.47-1.48v-9.47a1.47,1.47,0,0,1,1.47-1.48" transform="translate(0 0)"/><path class="cls-15" d="M499.2,163.1h-6.58a1.35,1.35,0,0,1-1.22-1.45v-6.73a1.35,1.35,0,0,1,1.22-1.45h6.58a1.35,1.35,0,0,1,1.22,1.45v6.73a1.35,1.35,0,0,1-1.22,1.45" transform="translate(0 0)"/><path class="cls-16" d="M494.88,164h3.71c2.73,0,5-2.58,5-5.73s-2.22-5.74-5-5.74h-3.71c-2.73,0-5,2.58-5,5.74s2.23,5.73,5,5.73m.16-9.71a4,4,0,1,1-3.43,4,3.74,3.74,0,0,1,3.43-4" transform="translate(0 0)"/><path class="cls-5" d="M496.59,150.37h4.89a2.06,2.06,0,0,1,2.06,2.06v11.74a2.06,2.06,0,0,1-2.06,2.06h-4.89a2.06,2.06,0,0,1-2.06-2.06V152.43a2.06,2.06,0,0,1,2.06-2.06" transform="translate(0 0)"/><path class="cls-14" d="M490.47,171H501a1.47,1.47,0,0,1,1.47,1.48V182a1.47,1.47,0,0,1-1.47,1.47H490.47A1.46,1.46,0,0,1,489,182v-9.47a1.47,1.47,0,0,1,1.47-1.48" transform="translate(0 0)"/><path class="cls-15" d="M499.2,182.11h-6.58a1.36,1.36,0,0,1-1.22-1.46v-6.72a1.35,1.35,0,0,1,1.22-1.45h6.58a1.35,1.35,0,0,1,1.22,1.45v6.72a1.36,1.36,0,0,1-1.22,1.46" transform="translate(0 0)"/><path class="cls-16" d="M494.88,183h3.71c2.73,0,5-2.58,5-5.74s-2.22-5.73-5-5.73h-3.71c-2.73,0-5,2.58-5,5.73s2.23,5.74,5,5.74m.16-9.71a4,4,0,1,1-3.43,4,3.73,3.73,0,0,1,3.43-4" transform="translate(0 0)"/><path class="cls-5" d="M496.59,169.38h4.89a2.06,2.06,0,0,1,2.06,2.06v11.74a2.06,2.06,0,0,1-2.06,2.06h-4.89a2.06,2.06,0,0,1-2.06-2.06V171.44a2.06,2.06,0,0,1,2.06-2.06" transform="translate(0 0)"/><path class="cls-14" d="M490.47,192.66H501a1.47,1.47,0,0,1,1.47,1.48v9.47a1.47,1.47,0,0,1-1.47,1.47H490.47a1.46,1.46,0,0,1-1.47-1.47v-9.47a1.47,1.47,0,0,1,1.47-1.48" transform="translate(0 0)"/><path class="cls-15" d="M499.2,203.77h-6.58a1.36,1.36,0,0,1-1.22-1.46v-6.72a1.35,1.35,0,0,1,1.22-1.45h6.58a1.35,1.35,0,0,1,1.22,1.45v6.72a1.36,1.36,0,0,1-1.22,1.46" transform="translate(0 0)"/><path class="cls-16" d="M494.88,204.69h3.71c2.73,0,5-2.58,5-5.74s-2.22-5.73-5-5.73h-3.71c-2.73,0-5,2.58-5,5.73s2.23,5.74,5,5.74M495,195a4,4,0,1,1-3.43,4,3.73,3.73,0,0,1,3.43-4" transform="translate(0 0)"/><path class="cls-5" d="M496.59,191h4.89a2.06,2.06,0,0,1,2.06,2.06v11.74a2.06,2.06,0,0,1-2.06,2.06h-4.89a2.06,2.06,0,0,1-2.06-2.06V193.1a2.06,2.06,0,0,1,2.06-2.06" transform="translate(0 0)"/><path class="cls-14" d="M490.47,212.7H501a1.47,1.47,0,0,1,1.47,1.48v9.47a1.47,1.47,0,0,1-1.47,1.48H490.47a1.47,1.47,0,0,1-1.47-1.48v-9.47a1.47,1.47,0,0,1,1.47-1.48" transform="translate(0 0)"/><path class="cls-15" d="M499.2,223.81h-6.58a1.35,1.35,0,0,1-1.22-1.45v-6.73a1.35,1.35,0,0,1,1.22-1.45h6.58a1.35,1.35,0,0,1,1.22,1.45v6.73a1.35,1.35,0,0,1-1.22,1.45" transform="translate(0 0)"/><path class="cls-16" d="M494.88,224.73h3.71c2.73,0,5-2.58,5-5.74s-2.22-5.73-5-5.73h-3.71c-2.73,0-5,2.58-5,5.73s2.23,5.74,5,5.74M495,215a4,4,0,1,1-3.43,4,3.73,3.73,0,0,1,3.43-4" transform="translate(0 0)"/><path class="cls-5" d="M496.59,211.08h4.89a2.06,2.06,0,0,1,2.06,2.06v11.74a2.06,2.06,0,0,1-2.06,2.06h-4.89a2.06,2.06,0,0,1-2.06-2.06V213.14a2.06,2.06,0,0,1,2.06-2.06" transform="translate(0 0)"/><path class="cls-14" d="M490.11,252.78h10.55a1.47,1.47,0,0,1,1.47,1.48v9.47a1.47,1.47,0,0,1-1.47,1.48H490.11a1.48,1.48,0,0,1-1.48-1.48v-9.47a1.48,1.48,0,0,1,1.48-1.48" transform="translate(0 0)"/><path class="cls-15" d="M498.83,263.89h-6.57a1.35,1.35,0,0,1-1.22-1.45v-6.73a1.35,1.35,0,0,1,1.22-1.45h6.57a1.35,1.35,0,0,1,1.23,1.45v6.73a1.35,1.35,0,0,1-1.23,1.45" transform="translate(0 0)"/><path class="cls-16" d="M494.52,264.81h3.71c2.72,0,4.95-2.58,4.95-5.74s-2.23-5.73-4.95-5.73h-3.71c-2.73,0-5,2.58-5,5.73s2.23,5.74,5,5.74m.16-9.71a4,4,0,1,1-3.43,4,3.73,3.73,0,0,1,3.43-4" transform="translate(0 0)"/><path class="cls-5" d="M496.22,251.16h4.9a2.06,2.06,0,0,1,2.06,2.06V265a2.06,2.06,0,0,1-2.06,2.06h-4.9a2.06,2.06,0,0,1-2.06-2.06V253.22a2.07,2.07,0,0,1,2.06-2.06" transform="translate(0 0)"/><path class="cls-14" d="M490.11,273.78h10.55a1.47,1.47,0,0,1,1.47,1.48v9.47a1.47,1.47,0,0,1-1.47,1.47H490.11a1.47,1.47,0,0,1-1.48-1.47v-9.47a1.48,1.48,0,0,1,1.48-1.48" transform="translate(0 0)"/><path class="cls-15" d="M498.83,284.89h-6.57a1.35,1.35,0,0,1-1.22-1.45v-6.73a1.35,1.35,0,0,1,1.22-1.45h6.57a1.35,1.35,0,0,1,1.23,1.45v6.73a1.35,1.35,0,0,1-1.23,1.45" transform="translate(0 0)"/><path class="cls-16" d="M494.52,285.81h3.71c2.72,0,4.95-2.58,4.95-5.74s-2.23-5.73-4.95-5.73h-3.71c-2.73,0-5,2.58-5,5.73s2.23,5.74,5,5.74m.16-9.71a4,4,0,1,1-3.43,4,3.73,3.73,0,0,1,3.43-4" transform="translate(0 0)"/><path class="cls-5" d="M496.22,272.16h4.9a2.06,2.06,0,0,1,2.06,2.06V286a2.06,2.06,0,0,1-2.06,2.06h-4.9a2.06,2.06,0,0,1-2.06-2.06V274.22a2.07,2.07,0,0,1,2.06-2.06" transform="translate(0 0)"/><path class="cls-14" d="M490.11,293.51h10.55a1.47,1.47,0,0,1,1.47,1.48v9.47a1.47,1.47,0,0,1-1.47,1.48H490.11a1.48,1.48,0,0,1-1.48-1.48V295a1.48,1.48,0,0,1,1.48-1.48" transform="translate(0 0)"/><path class="cls-15" d="M498.83,304.62h-6.57a1.35,1.35,0,0,1-1.22-1.45v-6.73a1.35,1.35,0,0,1,1.22-1.45h6.57a1.35,1.35,0,0,1,1.23,1.45v6.73a1.35,1.35,0,0,1-1.23,1.45" transform="translate(0 0)"/><path class="cls-16" d="M494.52,305.54h3.71c2.72,0,4.95-2.58,4.95-5.74s-2.23-5.73-4.95-5.73h-3.71c-2.73,0-5,2.58-5,5.73s2.23,5.74,5,5.74m.16-9.71a4,4,0,1,1-3.43,4,3.73,3.73,0,0,1,3.43-4" transform="translate(0 0)"/><path class="cls-5" d="M496.22,291.89h4.9a2.06,2.06,0,0,1,2.06,2.06v11.74a2.06,2.06,0,0,1-2.06,2.06h-4.9a2.06,2.06,0,0,1-2.06-2.06V294a2.07,2.07,0,0,1,2.06-2.06" transform="translate(0 0)"/><path class="cls-14" d="M490.11,314.33h10.55a1.47,1.47,0,0,1,1.47,1.48v9.47a1.47,1.47,0,0,1-1.47,1.48H490.11a1.48,1.48,0,0,1-1.48-1.48v-9.47a1.48,1.48,0,0,1,1.48-1.48" transform="translate(0 0)"/><path class="cls-15" d="M498.83,325.44h-6.57A1.35,1.35,0,0,1,491,324v-6.73a1.35,1.35,0,0,1,1.22-1.45h6.57a1.35,1.35,0,0,1,1.23,1.45V324a1.35,1.35,0,0,1-1.23,1.45" transform="translate(0 0)"/><path class="cls-16" d="M494.52,326.36h3.71c2.72,0,4.95-2.58,4.95-5.74s-2.23-5.73-4.95-5.73h-3.71c-2.73,0-5,2.58-5,5.73s2.23,5.74,5,5.74m.16-9.71a4,4,0,1,1-3.43,4,3.73,3.73,0,0,1,3.43-4" transform="translate(0 0)"/><path class="cls-5" d="M496.22,312.71h4.9a2.06,2.06,0,0,1,2.06,2.06v11.74a2.06,2.06,0,0,1-2.06,2.06h-4.9a2.06,2.06,0,0,1-2.06-2.06V314.77a2.07,2.07,0,0,1,2.06-2.06" transform="translate(0 0)"/><path class="cls-14" d="M490.11,334.43h10.55a1.47,1.47,0,0,1,1.47,1.47v9.48a1.47,1.47,0,0,1-1.47,1.47H490.11a1.47,1.47,0,0,1-1.48-1.47V335.9a1.47,1.47,0,0,1,1.48-1.47" transform="translate(0 0)"/><path class="cls-15" d="M498.83,345.53h-6.57a1.35,1.35,0,0,1-1.22-1.45v-6.72a1.36,1.36,0,0,1,1.22-1.46h6.57a1.36,1.36,0,0,1,1.23,1.46v6.72a1.35,1.35,0,0,1-1.23,1.45" transform="translate(0 0)"/><path class="cls-16" d="M494.52,346.45h3.71c2.72,0,4.95-2.58,4.95-5.73S501,335,498.23,335h-3.71c-2.73,0-5,2.58-5,5.74s2.23,5.73,5,5.73m.16-9.71a4,4,0,1,1-3.43,4,3.74,3.74,0,0,1,3.43-4" transform="translate(0 0)"/><path class="cls-5" d="M496.22,332.8h4.9a2.06,2.06,0,0,1,2.06,2.06v11.75a2.06,2.06,0,0,1-2.06,2.06h-4.9a2.07,2.07,0,0,1-2.06-2.06V334.86a2.07,2.07,0,0,1,2.06-2.06" transform="translate(0 0)"/><path class="cls-14" d="M490.11,354.52h10.55a1.47,1.47,0,0,1,1.47,1.47v9.48a1.47,1.47,0,0,1-1.47,1.47H490.11a1.47,1.47,0,0,1-1.48-1.47V356a1.47,1.47,0,0,1,1.48-1.47" transform="translate(0 0)"/><path class="cls-15" d="M498.83,365.63h-6.57a1.36,1.36,0,0,1-1.22-1.46v-6.72a1.35,1.35,0,0,1,1.22-1.45h6.57a1.35,1.35,0,0,1,1.23,1.45v6.72a1.36,1.36,0,0,1-1.23,1.46" transform="translate(0 0)"/><path class="cls-16" d="M494.52,366.55h3.71c2.72,0,4.95-2.58,4.95-5.74s-2.23-5.74-4.95-5.74h-3.71c-2.73,0-5,2.59-5,5.74s2.23,5.74,5,5.74m.16-9.71a4,4,0,1,1-3.43,4,3.73,3.73,0,0,1,3.43-4" transform="translate(0 0)"/><path class="cls-5" d="M496.22,352.9h4.9a2.06,2.06,0,0,1,2.06,2.06V366.7a2.06,2.06,0,0,1-2.06,2.06h-4.9a2.07,2.07,0,0,1-2.06-2.06V355a2.06,2.06,0,0,1,2.06-2.06" transform="translate(0 0)"/><path class="cls-14" d="M490.11,374.61h10.55a1.47,1.47,0,0,1,1.47,1.48v9.47a1.47,1.47,0,0,1-1.47,1.48H490.11a1.48,1.48,0,0,1-1.48-1.48v-9.47a1.48,1.48,0,0,1,1.48-1.48" transform="translate(0 0)"/><path class="cls-15" d="M498.83,385.72h-6.57a1.35,1.35,0,0,1-1.22-1.45v-6.73a1.35,1.35,0,0,1,1.22-1.45h6.57a1.35,1.35,0,0,1,1.23,1.45v6.73a1.35,1.35,0,0,1-1.23,1.45" transform="translate(0 0)"/><path class="cls-16" d="M494.52,386.64h3.71c2.72,0,4.95-2.58,4.95-5.73s-2.23-5.74-4.95-5.74h-3.71c-2.73,0-5,2.58-5,5.74s2.23,5.73,5,5.73m.16-9.71a4,4,0,1,1-3.43,4,3.74,3.74,0,0,1,3.43-4" transform="translate(0 0)"/><path class="cls-5" d="M496.22,373h4.9a2.06,2.06,0,0,1,2.06,2.06v11.74a2.06,2.06,0,0,1-2.06,2.06h-4.9a2.06,2.06,0,0,1-2.06-2.06V375.05a2.07,2.07,0,0,1,2.06-2.06" transform="translate(0 0)"/><path class="cls-14" d="M490.11,394.71h10.55a1.47,1.47,0,0,1,1.47,1.47v9.48a1.47,1.47,0,0,1-1.47,1.47H490.11a1.47,1.47,0,0,1-1.48-1.47v-9.48a1.47,1.47,0,0,1,1.48-1.47" transform="translate(0 0)"/><path class="cls-15" d="M498.83,405.81h-6.57a1.35,1.35,0,0,1-1.22-1.45v-6.72a1.36,1.36,0,0,1,1.22-1.46h6.57a1.36,1.36,0,0,1,1.23,1.46v6.72a1.35,1.35,0,0,1-1.23,1.45" transform="translate(0 0)"/><path class="cls-16" d="M494.52,406.73h3.71c2.72,0,4.95-2.58,4.95-5.73s-2.23-5.74-4.95-5.74h-3.71c-2.73,0-5,2.58-5,5.74s2.23,5.73,5,5.73m.16-9.7a4,4,0,1,1-3.43,4,3.73,3.73,0,0,1,3.43-4" transform="translate(0 0)"/><path class="cls-5" d="M496.22,393.08h4.9a2.06,2.06,0,0,1,2.06,2.06v11.75a2.06,2.06,0,0,1-2.06,2.06h-4.9a2.07,2.07,0,0,1-2.06-2.06V395.14a2.07,2.07,0,0,1,2.06-2.06" transform="translate(0 0)"/><path class="cls-14" d="M490.11,416.61h10.55a1.47,1.47,0,0,1,1.47,1.48v9.47a1.47,1.47,0,0,1-1.47,1.47H490.11a1.47,1.47,0,0,1-1.48-1.47v-9.47a1.48,1.48,0,0,1,1.48-1.48" transform="translate(0 0)"/><path class="cls-15" d="M498.83,427.72h-6.57a1.35,1.35,0,0,1-1.22-1.45v-6.73a1.35,1.35,0,0,1,1.22-1.45h6.57a1.35,1.35,0,0,1,1.23,1.45v6.73a1.35,1.35,0,0,1-1.23,1.45" transform="translate(0 0)"/><path class="cls-16" d="M494.52,428.64h3.71c2.72,0,4.95-2.58,4.95-5.74s-2.23-5.73-4.95-5.73h-3.71c-2.73,0-5,2.58-5,5.73s2.23,5.74,5,5.74m.16-9.71a4,4,0,1,1-3.43,4,3.73,3.73,0,0,1,3.43-4" transform="translate(0 0)"/><path class="cls-5" d="M496.22,415h4.9a2.06,2.06,0,0,1,2.06,2.06v11.74a2.06,2.06,0,0,1-2.06,2.06h-4.9a2.06,2.06,0,0,1-2.06-2.06V417.05a2.07,2.07,0,0,1,2.06-2.06" transform="translate(0 0)"/><path class="cls-14" d="M490.11,436.89h10.55a1.47,1.47,0,0,1,1.47,1.47v9.48a1.47,1.47,0,0,1-1.47,1.47H490.11a1.47,1.47,0,0,1-1.48-1.47v-9.48a1.47,1.47,0,0,1,1.48-1.47" transform="translate(0 0)"/><path class="cls-15" d="M498.83,448h-6.57a1.35,1.35,0,0,1-1.22-1.45v-6.72a1.36,1.36,0,0,1,1.22-1.46h6.57a1.36,1.36,0,0,1,1.23,1.46v6.72a1.35,1.35,0,0,1-1.23,1.45" transform="translate(0 0)"/><path class="cls-16" d="M494.52,448.91h3.71c2.72,0,4.95-2.58,4.95-5.73s-2.23-5.74-4.95-5.74h-3.71c-2.73,0-5,2.58-5,5.74s2.23,5.73,5,5.73m.16-9.7a4,4,0,1,1-3.43,4,3.73,3.73,0,0,1,3.43-4" transform="translate(0 0)"/><path class="cls-5" d="M496.22,435.26h4.9a2.06,2.06,0,0,1,2.06,2.06v11.75a2.06,2.06,0,0,1-2.06,2.06h-4.9a2.07,2.07,0,0,1-2.06-2.06V437.32a2.07,2.07,0,0,1,2.06-2.06" transform="translate(0 0)"/><path class="cls-14" d="M213.07,490.21H202.52a1.47,1.47,0,0,1-1.47-1.47v-9.48a1.47,1.47,0,0,1,1.47-1.47h10.55a1.47,1.47,0,0,1,1.48,1.47v9.48a1.47,1.47,0,0,1-1.48,1.47" transform="translate(0 0)"/><path class="cls-15" d="M204.35,479.1h6.57a1.36,1.36,0,0,1,1.22,1.46v6.72a1.35,1.35,0,0,1-1.22,1.45h-6.57a1.35,1.35,0,0,1-1.23-1.45v-6.72a1.36,1.36,0,0,1,1.23-1.46" transform="translate(0 0)"/><path class="cls-16" d="M208.66,478.18H205c-2.72,0-4.95,2.58-4.95,5.74s2.23,5.73,4.95,5.73h3.71c2.73,0,5-2.58,5-5.73s-2.23-5.74-5-5.74m-.16,9.71a4,4,0,1,1,3.43-4,3.73,3.73,0,0,1-3.43,4" transform="translate(0 0)"/><path class="cls-5" d="M207,491.83h-4.9a2.06,2.06,0,0,1-2.06-2.06V478a2.06,2.06,0,0,1,2.06-2.06H207A2.07,2.07,0,0,1,209,478v11.74a2.07,2.07,0,0,1-2.06,2.06" transform="translate(0 0)"/><path class="cls-14" d="M213.07,469.66H202.52a1.47,1.47,0,0,1-1.47-1.47v-9.48a1.47,1.47,0,0,1,1.47-1.47h10.55a1.47,1.47,0,0,1,1.48,1.47v9.48a1.47,1.47,0,0,1-1.48,1.47" transform="translate(0 0)"/><path class="cls-15" d="M204.35,458.56h6.57a1.35,1.35,0,0,1,1.22,1.45v6.72a1.36,1.36,0,0,1-1.22,1.46h-6.57a1.36,1.36,0,0,1-1.23-1.46V460a1.35,1.35,0,0,1,1.23-1.45" transform="translate(0 0)"/><path class="cls-16" d="M208.66,457.64H205c-2.72,0-4.95,2.58-4.95,5.73s2.23,5.74,4.95,5.74h3.71c2.73,0,5-2.58,5-5.74s-2.23-5.73-5-5.73m-.16,9.7a4,4,0,1,1,3.43-4,3.73,3.73,0,0,1-3.43,4" transform="translate(0 0)"/><path class="cls-5" d="M207,471.29h-4.9a2.06,2.06,0,0,1-2.06-2.06V457.48a2.06,2.06,0,0,1,2.06-2.06H207a2.07,2.07,0,0,1,2.06,2.06v11.75a2.07,2.07,0,0,1-2.06,2.06" transform="translate(0 0)"/><path class="cls-14" d="M213.07,449.93H202.52a1.47,1.47,0,0,1-1.47-1.47V439a1.47,1.47,0,0,1,1.47-1.47h10.55a1.47,1.47,0,0,1,1.48,1.47v9.48a1.47,1.47,0,0,1-1.48,1.47" transform="translate(0 0)"/><path class="cls-15" d="M204.35,438.82h6.57a1.36,1.36,0,0,1,1.22,1.46V447a1.36,1.36,0,0,1-1.22,1.46h-6.57a1.36,1.36,0,0,1-1.23-1.46v-6.72a1.36,1.36,0,0,1,1.23-1.46" transform="translate(0 0)"/><path class="cls-16" d="M208.66,437.9H205c-2.72,0-4.95,2.58-4.95,5.74s2.23,5.74,4.95,5.74h3.71c2.73,0,5-2.59,5-5.74s-2.23-5.74-5-5.74m-.16,9.71a4,4,0,1,1,3.43-4,3.73,3.73,0,0,1-3.43,4" transform="translate(0 0)"/><path class="cls-5" d="M207,451.55h-4.9a2.06,2.06,0,0,1-2.06-2.06V437.75a2.06,2.06,0,0,1,2.06-2.06H207a2.07,2.07,0,0,1,2.06,2.06v11.74a2.06,2.06,0,0,1-2.06,2.06" transform="translate(0 0)"/><path class="cls-14" d="M213.07,429.11H202.52a1.47,1.47,0,0,1-1.47-1.47v-9.48a1.47,1.47,0,0,1,1.47-1.47h10.55a1.47,1.47,0,0,1,1.48,1.47v9.48a1.47,1.47,0,0,1-1.48,1.47" transform="translate(0 0)"/><path class="cls-15" d="M204.35,418h6.57a1.35,1.35,0,0,1,1.22,1.45v6.72a1.36,1.36,0,0,1-1.22,1.46h-6.57a1.36,1.36,0,0,1-1.23-1.46v-6.72a1.35,1.35,0,0,1,1.23-1.45" transform="translate(0 0)"/><path class="cls-16" d="M208.66,417.09H205c-2.72,0-4.95,2.58-4.95,5.73s2.23,5.74,4.95,5.74h3.71c2.73,0,5-2.58,5-5.74s-2.23-5.73-5-5.73m-.16,9.7a4,4,0,1,1,3.43-4,3.73,3.73,0,0,1-3.43,4" transform="translate(0 0)"/><path class="cls-5" d="M207,430.74h-4.9a2.06,2.06,0,0,1-2.06-2.06V416.93a2.06,2.06,0,0,1,2.06-2.06H207a2.07,2.07,0,0,1,2.06,2.06v11.75a2.07,2.07,0,0,1-2.06,2.06" transform="translate(0 0)"/><path class="cls-14" d="M213.07,409.64H202.52a1.47,1.47,0,0,1-1.47-1.48v-9.47a1.47,1.47,0,0,1,1.47-1.48h10.55a1.48,1.48,0,0,1,1.48,1.48v9.47a1.48,1.48,0,0,1-1.48,1.48" transform="translate(0 0)"/><path class="cls-15" d="M204.35,398.53h6.57a1.35,1.35,0,0,1,1.22,1.45v6.73a1.35,1.35,0,0,1-1.22,1.45h-6.57a1.35,1.35,0,0,1-1.23-1.45V400a1.35,1.35,0,0,1,1.23-1.45" transform="translate(0 0)"/><path class="cls-16" d="M208.66,397.61H205c-2.72,0-4.95,2.58-4.95,5.74s2.23,5.73,4.95,5.73h3.71c2.73,0,5-2.58,5-5.73s-2.23-5.74-5-5.74m-.16,9.71a4,4,0,1,1,3.43-4,3.73,3.73,0,0,1-3.43,4" transform="translate(0 0)"/><path class="cls-5" d="M207,411.26h-4.9A2.06,2.06,0,0,1,200,409.2V397.46a2.06,2.06,0,0,1,2.06-2.06H207a2.06,2.06,0,0,1,2.06,2.06V409.2a2.07,2.07,0,0,1-2.06,2.06" transform="translate(0 0)"/><path class="cls-14" d="M213.07,388.37H202.52a1.47,1.47,0,0,1-1.47-1.48v-9.47a1.47,1.47,0,0,1,1.47-1.48h10.55a1.48,1.48,0,0,1,1.48,1.48v9.47a1.48,1.48,0,0,1-1.48,1.48" transform="translate(0 0)"/><path class="cls-15" d="M204.35,377.26h6.57a1.35,1.35,0,0,1,1.22,1.45v6.73a1.35,1.35,0,0,1-1.22,1.45h-6.57a1.35,1.35,0,0,1-1.23-1.45v-6.73a1.35,1.35,0,0,1,1.23-1.45" transform="translate(0 0)"/><path class="cls-16" d="M208.66,376.34H205c-2.72,0-4.95,2.58-4.95,5.74s2.23,5.73,4.95,5.73h3.71c2.73,0,5-2.58,5-5.73s-2.23-5.74-5-5.74m-.16,9.71a4,4,0,1,1,3.43-4,3.73,3.73,0,0,1-3.43,4" transform="translate(0 0)"/><path class="cls-5" d="M207,390h-4.9a2.06,2.06,0,0,1-2.06-2.06V376.19a2.07,2.07,0,0,1,2.06-2.07H207a2.07,2.07,0,0,1,2.06,2.07v11.74A2.07,2.07,0,0,1,207,390" transform="translate(0 0)"/><path class="cls-14" d="M213.07,368.09H202.52a1.47,1.47,0,0,1-1.47-1.47v-9.48a1.47,1.47,0,0,1,1.47-1.47h10.55a1.47,1.47,0,0,1,1.48,1.47v9.48a1.47,1.47,0,0,1-1.48,1.47" transform="translate(0 0)"/><path class="cls-15" d="M204.35,357h6.57a1.36,1.36,0,0,1,1.22,1.46v6.72a1.36,1.36,0,0,1-1.22,1.46h-6.57a1.36,1.36,0,0,1-1.23-1.46v-6.72a1.36,1.36,0,0,1,1.23-1.46" transform="translate(0 0)"/><path class="cls-16" d="M208.66,356.06H205c-2.72,0-4.95,2.59-4.95,5.74s2.23,5.74,4.95,5.74h3.71c2.73,0,5-2.59,5-5.74s-2.23-5.74-5-5.74m-.16,9.71a4,4,0,1,1,3.43-4,3.73,3.73,0,0,1-3.43,4" transform="translate(0 0)"/><path class="cls-5" d="M207,369.71h-4.9a2.06,2.06,0,0,1-2.06-2.06V355.91a2.06,2.06,0,0,1,2.06-2.06H207a2.07,2.07,0,0,1,2.06,2.06v11.74a2.06,2.06,0,0,1-2.06,2.06" transform="translate(0 0)"/><path class="cls-14" d="M213.07,347.82H202.52a1.47,1.47,0,0,1-1.47-1.48v-9.47a1.47,1.47,0,0,1,1.47-1.48h10.55a1.48,1.48,0,0,1,1.48,1.48v9.47a1.48,1.48,0,0,1-1.48,1.48" transform="translate(0 0)"/><path class="cls-15" d="M204.35,336.71h6.57a1.35,1.35,0,0,1,1.22,1.45v6.73a1.35,1.35,0,0,1-1.22,1.45h-6.57a1.35,1.35,0,0,1-1.23-1.45v-6.73a1.35,1.35,0,0,1,1.23-1.45" transform="translate(0 0)"/><path class="cls-16" d="M208.66,335.79H205c-2.72,0-4.95,2.58-4.95,5.73s2.23,5.74,4.95,5.74h3.71c2.73,0,5-2.58,5-5.74s-2.23-5.73-5-5.73m-.16,9.71a4,4,0,1,1,3.43-4,3.74,3.74,0,0,1-3.43,4" transform="translate(0 0)"/><path class="cls-5" d="M207,349.44h-4.9a2.06,2.06,0,0,1-2.06-2.06V335.64a2.06,2.06,0,0,1,2.06-2.06H207a2.06,2.06,0,0,1,2.06,2.06v11.74a2.07,2.07,0,0,1-2.06,2.06" transform="translate(0 0)"/><path class="cls-14" d="M213.07,327.11H202.52a1.47,1.47,0,0,1-1.47-1.48v-9.47a1.47,1.47,0,0,1,1.47-1.48h10.55a1.48,1.48,0,0,1,1.48,1.48v9.47a1.48,1.48,0,0,1-1.48,1.48" transform="translate(0 0)"/><path class="cls-15" d="M204.35,316h6.57a1.35,1.35,0,0,1,1.22,1.45v6.73a1.35,1.35,0,0,1-1.22,1.45h-6.57a1.35,1.35,0,0,1-1.23-1.45v-6.73a1.35,1.35,0,0,1,1.23-1.45" transform="translate(0 0)"/><path class="cls-16" d="M208.66,315.08H205c-2.72,0-4.95,2.58-4.95,5.73s2.23,5.74,4.95,5.74h3.71c2.73,0,5-2.58,5-5.74s-2.23-5.73-5-5.73m-.16,9.71a4,4,0,1,1,3.43-4,3.74,3.74,0,0,1-3.43,4" transform="translate(0 0)"/><path class="cls-5" d="M207,328.73h-4.9a2.06,2.06,0,0,1-2.06-2.06V314.93a2.06,2.06,0,0,1,2.06-2.06H207a2.06,2.06,0,0,1,2.06,2.06v11.74a2.07,2.07,0,0,1-2.06,2.06" transform="translate(0 0)"/><path class="cls-14" d="M213.07,307.37H202.52a1.47,1.47,0,0,1-1.47-1.47v-9.48a1.47,1.47,0,0,1,1.47-1.47h10.55a1.47,1.47,0,0,1,1.48,1.47v9.48a1.47,1.47,0,0,1-1.48,1.47" transform="translate(0 0)"/><path class="cls-15" d="M204.35,296.27h6.57a1.35,1.35,0,0,1,1.22,1.45v6.73a1.35,1.35,0,0,1-1.22,1.45h-6.57a1.35,1.35,0,0,1-1.23-1.45v-6.73a1.35,1.35,0,0,1,1.23-1.45" transform="translate(0 0)"/><path class="cls-16" d="M208.66,295.35H205c-2.72,0-4.95,2.58-4.95,5.73s2.23,5.74,4.95,5.74h3.71c2.73,0,5-2.58,5-5.74s-2.23-5.73-5-5.73m-.16,9.7a4,4,0,1,1,3.43-4,3.73,3.73,0,0,1-3.43,4" transform="translate(0 0)"/><path class="cls-5" d="M207,309h-4.9a2.06,2.06,0,0,1-2.06-2.06V295.19a2.06,2.06,0,0,1,2.06-2.06H207a2.07,2.07,0,0,1,2.06,2.06v11.75A2.07,2.07,0,0,1,207,309" transform="translate(0 0)"/><path class="cls-14" d="M213.07,286.92H202.52a1.47,1.47,0,0,1-1.47-1.48V276a1.47,1.47,0,0,1,1.47-1.47h10.55a1.47,1.47,0,0,1,1.48,1.47v9.47a1.48,1.48,0,0,1-1.48,1.48" transform="translate(0 0)"/><path class="cls-15" d="M204.35,275.81h6.57a1.35,1.35,0,0,1,1.22,1.46V284a1.35,1.35,0,0,1-1.22,1.45h-6.57a1.35,1.35,0,0,1-1.23-1.45v-6.72a1.36,1.36,0,0,1,1.23-1.46" transform="translate(0 0)"/><path class="cls-16" d="M208.66,274.89H205c-2.72,0-4.95,2.58-4.95,5.74s2.23,5.73,4.95,5.73h3.71c2.73,0,5-2.58,5-5.73s-2.23-5.74-5-5.74m-.16,9.71a4,4,0,1,1,3.43-4,3.73,3.73,0,0,1-3.43,4" transform="translate(0 0)"/><path class="cls-5" d="M207,288.54h-4.9a2.06,2.06,0,0,1-2.06-2.06V274.74a2.06,2.06,0,0,1,2.06-2.06H207a2.06,2.06,0,0,1,2.06,2.06v11.74a2.06,2.06,0,0,1-2.06,2.06" transform="translate(0 0)"/><path class="cls-14" d="M213.07,266.46H202.52a1.47,1.47,0,0,1-1.47-1.47v-9.48a1.47,1.47,0,0,1,1.47-1.47h10.55a1.47,1.47,0,0,1,1.48,1.47V265a1.47,1.47,0,0,1-1.48,1.47" transform="translate(0 0)"/><path class="cls-15" d="M204.35,255.36h6.57a1.35,1.35,0,0,1,1.22,1.45v6.72a1.35,1.35,0,0,1-1.22,1.46h-6.57a1.36,1.36,0,0,1-1.23-1.46v-6.72a1.35,1.35,0,0,1,1.23-1.45" transform="translate(0 0)"/><path class="cls-16" d="M208.66,254.44H205c-2.72,0-4.95,2.58-4.95,5.73s2.23,5.74,4.95,5.74h3.71c2.73,0,5-2.58,5-5.74s-2.23-5.73-5-5.73m-.16,9.7a4,4,0,1,1,3.43-4,3.73,3.73,0,0,1-3.43,4" transform="translate(0 0)"/><path class="cls-5" d="M207,268.09h-4.9A2.06,2.06,0,0,1,200,266V254.28a2.06,2.06,0,0,1,2.06-2.06H207a2.07,2.07,0,0,1,2.06,2.06V266a2.07,2.07,0,0,1-2.06,2.06" transform="translate(0 0)"/><path class="cls-14" d="M213.07,246H202.52a1.47,1.47,0,0,1-1.47-1.48v-9.47a1.47,1.47,0,0,1,1.47-1.48h10.55a1.48,1.48,0,0,1,1.48,1.48v9.47a1.48,1.48,0,0,1-1.48,1.48" transform="translate(0 0)"/><path class="cls-15" d="M204.35,234.9h6.57a1.35,1.35,0,0,1,1.22,1.45v6.73a1.35,1.35,0,0,1-1.22,1.45h-6.57a1.35,1.35,0,0,1-1.23-1.45v-6.73a1.35,1.35,0,0,1,1.23-1.45" transform="translate(0 0)"/><path class="cls-16" d="M208.66,234H205c-2.72,0-4.95,2.58-4.95,5.73s2.23,5.74,4.95,5.74h3.71c2.73,0,5-2.58,5-5.74s-2.23-5.73-5-5.73m-.16,9.71a4,4,0,1,1,3.43-4,3.74,3.74,0,0,1-3.43,4" transform="translate(0 0)"/><path class="cls-5" d="M207,247.63h-4.9a2.06,2.06,0,0,1-2.06-2.06V233.83a2.06,2.06,0,0,1,2.06-2.06H207a2.06,2.06,0,0,1,2.06,2.06v11.74a2.07,2.07,0,0,1-2.06,2.06" transform="translate(0 0)"/><path class="cls-14" d="M213.07,225.55H202.52a1.47,1.47,0,0,1-1.47-1.47V214.6a1.47,1.47,0,0,1,1.47-1.47h10.55a1.47,1.47,0,0,1,1.48,1.47v9.48a1.47,1.47,0,0,1-1.48,1.47" transform="translate(0 0)"/><path class="cls-15" d="M204.35,214.44h6.57a1.35,1.35,0,0,1,1.22,1.46v6.72a1.36,1.36,0,0,1-1.22,1.46h-6.57a1.36,1.36,0,0,1-1.23-1.46V215.9a1.36,1.36,0,0,1,1.23-1.46" transform="translate(0 0)"/><path class="cls-16" d="M208.66,213.52H205c-2.72,0-4.95,2.59-4.95,5.74S202.23,225,205,225h3.71c2.73,0,5-2.59,5-5.74s-2.23-5.74-5-5.74m-.16,9.71a4,4,0,1,1,3.43-4,3.73,3.73,0,0,1-3.43,4" transform="translate(0 0)"/><path class="cls-5" d="M207,227.17h-4.9a2.06,2.06,0,0,1-2.06-2.06V213.37a2.06,2.06,0,0,1,2.06-2.06H207a2.07,2.07,0,0,1,2.06,2.06v11.74a2.06,2.06,0,0,1-2.06,2.06" transform="translate(0 0)"/><path class="cls-14" d="M213.07,205.55H202.52a1.47,1.47,0,0,1-1.47-1.48V194.6a1.47,1.47,0,0,1,1.47-1.48h10.55a1.48,1.48,0,0,1,1.48,1.48v9.47a1.48,1.48,0,0,1-1.48,1.48" transform="translate(0 0)"/><path class="cls-15" d="M204.35,194.44h6.57a1.35,1.35,0,0,1,1.22,1.45v6.73a1.35,1.35,0,0,1-1.22,1.45h-6.57a1.35,1.35,0,0,1-1.23-1.45v-6.73a1.35,1.35,0,0,1,1.23-1.45" transform="translate(0 0)"/><path class="cls-16" d="M208.66,193.52H205c-2.72,0-4.95,2.58-4.95,5.74S202.23,205,205,205h3.71c2.73,0,5-2.58,5-5.73s-2.23-5.74-5-5.74m-.16,9.71a4,4,0,1,1,3.43-4,3.73,3.73,0,0,1-3.43,4" transform="translate(0 0)"/><path class="cls-5" d="M207,207.17h-4.9a2.06,2.06,0,0,1-2.06-2.06V193.37a2.06,2.06,0,0,1,2.06-2.06H207a2.06,2.06,0,0,1,2.06,2.06v11.74a2.07,2.07,0,0,1-2.06,2.06" transform="translate(0 0)"/><path class="cls-14" d="M213.07,185.54H202.52a1.47,1.47,0,0,1-1.47-1.47v-9.48a1.47,1.47,0,0,1,1.47-1.47h10.55a1.47,1.47,0,0,1,1.48,1.47v9.48a1.47,1.47,0,0,1-1.48,1.47" transform="translate(0 0)"/><path class="cls-15" d="M204.35,174.44h6.57a1.35,1.35,0,0,1,1.22,1.45v6.72a1.35,1.35,0,0,1-1.22,1.46h-6.57a1.36,1.36,0,0,1-1.23-1.46v-6.72a1.35,1.35,0,0,1,1.23-1.45" transform="translate(0 0)"/><path class="cls-16" d="M208.66,173.52H205c-2.72,0-4.95,2.58-4.95,5.73S202.23,185,205,185h3.71c2.73,0,5-2.58,5-5.74s-2.23-5.73-5-5.73m-.16,9.7a4,4,0,1,1,3.43-4,3.73,3.73,0,0,1-3.43,4" transform="translate(0 0)"/><path class="cls-5" d="M207,187.17h-4.9a2.06,2.06,0,0,1-2.06-2.06V173.36a2.06,2.06,0,0,1,2.06-2.06H207a2.07,2.07,0,0,1,2.06,2.06v11.75a2.07,2.07,0,0,1-2.06,2.06" transform="translate(0 0)"/><path class="cls-14" d="M213.07,165.54H202.52a1.47,1.47,0,0,1-1.47-1.47v-9.48a1.47,1.47,0,0,1,1.47-1.47h10.55a1.47,1.47,0,0,1,1.48,1.47v9.48a1.47,1.47,0,0,1-1.48,1.47" transform="translate(0 0)"/><path class="cls-15" d="M204.35,154.43h6.57a1.35,1.35,0,0,1,1.22,1.46v6.72a1.36,1.36,0,0,1-1.22,1.46h-6.57a1.36,1.36,0,0,1-1.23-1.46v-6.72a1.36,1.36,0,0,1,1.23-1.46" transform="translate(0 0)"/><path class="cls-16" d="M208.66,153.51H205c-2.72,0-4.95,2.59-4.95,5.74S202.23,165,205,165h3.71c2.73,0,5-2.58,5-5.74s-2.23-5.74-5-5.74m-.16,9.71a4,4,0,1,1,3.43-4,3.73,3.73,0,0,1-3.43,4" transform="translate(0 0)"/><path class="cls-5" d="M207,167.16h-4.9A2.06,2.06,0,0,1,200,165.1V153.36a2.06,2.06,0,0,1,2.06-2.06H207a2.07,2.07,0,0,1,2.06,2.06V165.1a2.06,2.06,0,0,1-2.06,2.06" transform="translate(0 0)"/><path class="cls-14" d="M213.07,125H202.52a1.47,1.47,0,0,1-1.47-1.47V114a1.47,1.47,0,0,1,1.47-1.47h10.55a1.47,1.47,0,0,1,1.48,1.47v9.48a1.47,1.47,0,0,1-1.48,1.47" transform="translate(0 0)"/><path class="cls-15" d="M204.35,113.88h6.57a1.35,1.35,0,0,1,1.22,1.46v6.72a1.36,1.36,0,0,1-1.22,1.46h-6.57a1.36,1.36,0,0,1-1.23-1.46v-6.72a1.36,1.36,0,0,1,1.23-1.46" transform="translate(0 0)"/><path class="cls-16" d="M208.66,113H205c-2.72,0-4.95,2.58-4.95,5.74s2.23,5.74,4.95,5.74h3.71c2.73,0,5-2.59,5-5.74s-2.23-5.74-5-5.74m-.16,9.71a4,4,0,1,1,3.43-4,3.73,3.73,0,0,1-3.43,4" transform="translate(0 0)"/><path class="cls-5" d="M207,126.61h-4.9a2.06,2.06,0,0,1-2.06-2.06V112.81a2.06,2.06,0,0,1,2.06-2.06H207a2.07,2.07,0,0,1,2.06,2.06v11.74a2.06,2.06,0,0,1-2.06,2.06" transform="translate(0 0)"/><path class="cls-5" d="M213.09,146.6H200.72a1.47,1.47,0,0,1-1.46-1.46V132.78a1.46,1.46,0,0,1,1.46-1.46h12.37a1.46,1.46,0,0,1,1.46,1.46v12.36a1.47,1.47,0,0,1-1.46,1.46" transform="translate(0 0)"/><path class="cls-5" d="M501.93,246.69H489.57a1.46,1.46,0,0,1-1.46-1.46V232.87a1.46,1.46,0,0,1,1.46-1.46h12.36a1.46,1.46,0,0,1,1.46,1.46v12.36a1.46,1.46,0,0,1-1.46,1.46" transform="translate(0 0)"/><path class="cls-5" d="M501.93,470.82H489.57a1.46,1.46,0,0,1-1.46-1.46V457a1.46,1.46,0,0,1,1.46-1.46h12.36a1.46,1.46,0,0,1,1.46,1.46v12.36a1.46,1.46,0,0,1-1.46,1.46" transform="translate(0 0)"/><path class="cls-5" d="M501.93,490.52H489.57a1.46,1.46,0,0,1-1.46-1.46V476.69a1.46,1.46,0,0,1,1.46-1.46h12.36a1.46,1.46,0,0,1,1.46,1.46v12.37a1.46,1.46,0,0,1-1.46,1.46" transform="translate(0 0)"/></g><g class="cls-17"><path class="cls-16" d="M514.93,257.45H538.2v-24H514.93Zm11.64-3.1a8.91,8.91,0,1,1,8.63-8.9,8.77,8.77,0,0,1-8.63,8.9" transform="translate(0 0)"/></g><g class="cls-18"><path class="cls-16" d="M526.52,191.91a11.8,11.8,0,1,0,11.8,11.8,11.8,11.8,0,0,0-11.8-11.8m0,20.44a8.64,8.64,0,1,1,8.64-8.64,8.64,8.64,0,0,1-8.64,8.64" transform="translate(0 0)"/></g><g class="cls-19"><path class="cls-16" d="M526.54,152.32A11.7,11.7,0,1,0,538.23,164a11.7,11.7,0,0,0-11.69-11.7m0,20.26A8.56,8.56,0,1,1,535.1,164a8.57,8.57,0,0,1-8.56,8.56" transform="translate(0 0)"/></g><g class="cls-20"><path class="cls-16" d="M526.54,112a11.84,11.84,0,1,0,11.83,11.84A11.84,11.84,0,0,0,526.54,112m0,20.5a8.67,8.67,0,1,1,8.66-8.66,8.67,8.67,0,0,1-8.66,8.66" transform="translate(0 0)"/></g><g class="cls-21"><path class="cls-16" d="M515,419.89h23V396.18H515Zm11.49-3.06A8.8,8.8,0,1,1,535,408a8.67,8.67,0,0,1-8.53,8.79" transform="translate(0 0)"/></g><g class="cls-22"><path class="cls-16" d="M526.48,354.66a11.89,11.89,0,1,0,11.88,11.89,11.89,11.89,0,0,0-11.88-11.89m0,20.59a8.7,8.7,0,1,1,8.7-8.7,8.7,8.7,0,0,1-8.7,8.7" transform="translate(0 0)"/></g><g class="cls-23"><path class="cls-16" d="M526.41,314.91a11.75,11.75,0,1,0,11.74,11.75,11.75,11.75,0,0,0-11.74-11.75m0,20.35a8.6,8.6,0,1,1,8.6-8.6,8.6,8.6,0,0,1-8.6,8.6" transform="translate(0 0)"/></g><g class="cls-24"><path class="cls-16" d="M526.54,274.54a11.83,11.83,0,1,0,11.83,11.83,11.83,11.83,0,0,0-11.83-11.83m0,20.49a8.66,8.66,0,1,1,8.66-8.66,8.66,8.66,0,0,1-8.66,8.66" transform="translate(0 0)"/></g><g class="cls-25"><path class="cls-16" d="M162.74,304.63h23V280.92h-23Zm11.49-3.06a8.8,8.8,0,1,1,8.53-8.79,8.67,8.67,0,0,1-8.53,8.79" transform="translate(0 0)"/></g><g class="cls-26"><path class="cls-16" d="M174.43,239.4a11.8,11.8,0,1,0,11.79,11.79,11.79,11.79,0,0,0-11.79-11.79m0,20.43a8.64,8.64,0,1,1,8.63-8.64,8.63,8.63,0,0,1-8.63,8.64" transform="translate(0 0)"/></g><g class="cls-27"><path class="cls-16" d="M174.37,199.65a11.75,11.75,0,1,0,11.75,11.75,11.75,11.75,0,0,0-11.75-11.75m0,20.35a8.6,8.6,0,1,1,8.6-8.6,8.6,8.6,0,0,1-8.6,8.6" transform="translate(0 0)"/></g><g class="cls-28"><path class="cls-16" d="M174.39,159.28a11.83,11.83,0,1,0,11.83,11.83,11.83,11.83,0,0,0-11.83-11.83m0,20.49a8.66,8.66,0,1,1,8.66-8.66,8.66,8.66,0,0,1-8.66,8.66" transform="translate(0 0)"/></g><g class="cls-29"><path class="cls-16" d="M245.47,519.45A21.5,21.5,0,1,0,267,541a21.51,21.51,0,0,0-21.5-21.5m0,34.57A13.07,13.07,0,1,1,258.54,541,13.07,13.07,0,0,1,245.47,554" transform="translate(0 0)"/></g><g class="cls-30"><path class="cls-3" d="M451,93.59a3.3,3.3,0,1,1,3.3,3.3,3.3,3.3,0,0,1-3.3-3.3" transform="translate(0 0)"/></g><g class="cls-31"><path class="cls-3" d="M415.33,93.59a3.3,3.3,0,1,1,3.3,3.3,3.29,3.29,0,0,1-3.3-3.3" transform="translate(0 0)"/></g><g class="cls-12"><rect class="cls-32" x="172.52" y="500.45" width="8.55" height="8.55"/></g><g class="cls-33"><path class="cls-5" d="M173,514.66h7.5a1.39,1.39,0,0,1,1.4,1.39v6.46a1.4,1.4,0,0,1-1.4,1.4H173a1.4,1.4,0,0,1-1.4-1.4v-6.46a1.4,1.4,0,0,1,1.4-1.39" transform="translate(0 0)"/></g><g class="cls-34"><path class="cls-5" d="M173,529.05h7.5a1.39,1.39,0,0,1,1.4,1.39v6.46a1.4,1.4,0,0,1-1.4,1.4H173a1.4,1.4,0,0,1-1.4-1.4v-6.46a1.4,1.4,0,0,1,1.4-1.39" transform="translate(0 0)"/></g><g class="cls-35"><path class="cls-5" d="M193.46,523.91H201a1.39,1.39,0,0,1,1.39,1.39v6.46a1.4,1.4,0,0,1-1.39,1.4h-7.51a1.4,1.4,0,0,1-1.39-1.4V525.3a1.39,1.39,0,0,1,1.39-1.39" transform="translate(0 0)"/></g><g class="cls-36"><path class="cls-5" d="M193.46,538H201a1.39,1.39,0,0,1,1.39,1.39v6.46a1.4,1.4,0,0,1-1.39,1.4h-7.51a1.4,1.4,0,0,1-1.39-1.4v-6.46a1.39,1.39,0,0,1,1.39-1.39" transform="translate(0 0)"/></g><g class="cls-37"><rect class="cls-32" x="172.52" y="542.58" width="8.55" height="8.55"/></g><g class="cls-38"><path class="cls-10" d="M277.41,542.88V514.77a3.84,3.84,0,0,1,3.65-4h8.44a3.84,3.84,0,0,1,3.65,4v28.11a3.85,3.85,0,0,1-3.65,4h-8.44a3.78,3.78,0,0,1-3.65-4" transform="translate(0 0)"/><rect class="cls-39" x="277.4" y="520.58" width="15.79" height="16.56"/></g><g class="cls-40"><path class="cls-10" d="M298.07,559.7V541.52a2.51,2.51,0,0,1,2.42-2.59h5.61a2.52,2.52,0,0,1,2.43,2.59V559.7a2.52,2.52,0,0,1-2.43,2.59h-5.61a2.46,2.46,0,0,1-2.42-2.59" transform="translate(0 0)"/><rect class="cls-39" x="298.06" y="545.27" width="10.5" height="10.71"/></g><g class="cls-41"><path class="cls-10" d="M444.88,553.46V535.28a2.52,2.52,0,0,1,2.43-2.59h5.6a2.52,2.52,0,0,1,2.43,2.59v18.18a2.52,2.52,0,0,1-2.43,2.59h-5.6a2.47,2.47,0,0,1-2.43-2.59" transform="translate(0 0)"/><rect class="cls-39" x="444.87" y="539.03" width="10.5" height="10.71"/></g><g class="cls-42"><path class="cls-5" d="M300.34,513.48h5.44c.56,0,1,1.2,1,2.68v12.42c0,1.48-.45,2.69-1,2.69h-5.44c-.56,0-1-1.21-1-2.69V516.16c0-1.48.45-2.68,1-2.68" transform="translate(0 0)"/></g><g class="cls-43"><path class="cls-5" d="M314.28,530.66h2.31c.24,0,.43.27.43.61v2.84c0,.34-.19.61-.43.61h-2.31c-.23,0-.43-.27-.43-.61v-2.84c0-.34.2-.61.43-.61" transform="translate(0 0)"/></g><g class="cls-44"><path class="cls-5" d="M314.28,538.93h2.31c.24,0,.43.27.43.61v2.84c0,.34-.19.61-.43.61h-2.31c-.23,0-.43-.27-.43-.61v-2.84c0-.34.2-.61.43-.61" transform="translate(0 0)"/></g><g class="cls-45"><path class="cls-5" d="M342.34,530.66h2.31c.24,0,.43.27.43.61v2.84c0,.34-.19.61-.43.61h-2.31c-.24,0-.43-.27-.43-.61v-2.84c0-.34.19-.61.43-.61" transform="translate(0 0)"/></g><g class="cls-46"><path class="cls-5" d="M342.34,538.93h2.31c.24,0,.43.27.43.61v2.84c0,.34-.19.61-.43.61h-2.31c-.24,0-.43-.27-.43-.61v-2.84c0-.34.19-.61.43-.61" transform="translate(0 0)"/></g><g class="cls-47"><path class="cls-10" d="M316.44,509.27h16.81c2.06,0,3.68,1,3.68,2.24v4.17c0,1.25-1.68,2.24-3.68,2.24H316.44c-2.06,0-3.69-1-3.69-2.24v-4.17c-.05-1.22,1.63-2.24,3.69-2.24" transform="translate(0 0)"/><rect class="cls-11" x="319.26" y="509.28" width="11.12" height="8.68"/></g><g class="cls-48"><path class="cls-10" d="M402.79,530.38H419.6c2.06,0,3.68,1,3.68,2.23v4.18c0,1.24-1.68,2.23-3.68,2.23H402.79c-2.06,0-3.69-1-3.69-2.23v-4.18c-.05-1.21,1.63-2.23,3.69-2.23" transform="translate(0 0)"/><rect class="cls-11" x="405.61" y="530.39" width="11.11" height="8.68"/></g><g class="cls-49"><path class="cls-3" d="M160.09,324.79a8.48,8.48,0,1,1,8.48,8.47,8.48,8.48,0,0,1-8.48-8.47" transform="translate(0 0)"/></g><g class="cls-50"><path class="cls-3" d="M522.79,499.23a8.48,8.48,0,1,1,8.48,8.47,8.48,8.48,0,0,1-8.48-8.47" transform="translate(0 0)"/></g><g class="cls-12"><rect class="cls-32" x="350.83" y="508.86" width="9.41" height="2.44"/><rect class="cls-32" x="350.83" y="521.15" width="9.41" height="2.44"/></g><g class="cls-51"><path class="cls-5" d="M430.21,123.62h11.67a2.18,2.18,0,0,1,2.18,2.17v10a2.18,2.18,0,0,1-2.18,2.17H430.21a2.18,2.18,0,0,1-2.18-2.17v-10a2.18,2.18,0,0,1,2.18-2.17" transform="translate(0 0)"/></g><g class="cls-52"><path class="cls-5" d="M448.75,146.09H474c2.59,0,4.7,1,4.7,2.33v10.76c0,1.29-2.11,2.33-4.7,2.33H448.75c-2.59,0-4.69-1-4.69-2.33V148.42c0-1.29,2.1-2.33,4.69-2.33" transform="translate(0 0)"/></g><g class="cls-53"><path class="cls-5" d="M448.75,100.65H474c2.59,0,4.7,1,4.7,2.33v10.76c0,1.29-2.11,2.33-4.7,2.33H448.75c-2.59,0-4.69-1-4.69-2.33V103c0-1.29,2.1-2.33,4.69-2.33" transform="translate(0 0)"/></g><g class="cls-54"><path class="cls-5" d="M419.8,122.11l3.49,3.48a.94.94,0,0,1,0,1.3l-3,3a.92.92,0,0,1-1.3,0l-3.48-3.48a.92.92,0,0,1,0-1.3l3-3a.91.91,0,0,1,1.29,0" transform="translate(0 0)"/></g><g class="cls-55"><path class="cls-5" d="M411.79,114.09l3.48,3.49a.92.92,0,0,1,0,1.3l-3,3a.92.92,0,0,1-1.3,0l-3.48-3.48a.92.92,0,0,1,0-1.3l3-3a.94.94,0,0,1,1.3,0" transform="translate(0 0)"/></g><g class="cls-56"><path class="cls-5" d="M419.1,106.79l3.48,3.48a.92.92,0,0,1,0,1.3l-3,3a.94.94,0,0,1-1.3,0l-3.49-3.49a.94.94,0,0,1,0-1.3l3-3a.92.92,0,0,1,1.3,0" transform="translate(0 0)"/></g><polygon class="cls-57" points="224.74 108.36 224.74 496.37 476.91 496.37 476.91 165.54 391.65 165.54 391.65 108.36 224.74 108.36"/><polygon class="cls-58" points="226.33 111.08 226.33 492.64 473.38 492.64 473.38 167.31 389.85 167.31 389.85 111.08 226.33 111.08"/><path class="cls-59" d="M270.2,540.94A25.26,25.26,0,1,1,245,515.68,25.26,25.26,0,0,1,270.2,540.94Z" transform="translate(0 0)"/><path class="cls-59" d="M195.64,343a24.39,24.39,0,1,0,0,37.54" transform="translate(0 0)"/><polyline class="cls-59" points="153.78 418.85 165.19 418.85 165.19 463.36 178.58 482.07 166.18 502.17 166.18 546.89 154.87 546.89"/><rect class="cls-59" x="168.26" y="496.92" width="16.47" height="28.87" rx="1.44"/><rect class="cls-59" x="170.3" y="102.44" width="20.41" height="48.52" rx="1.44"/><rect class="cls-59" x="275.25" y="504.85" width="20.28" height="45.76" rx="1.44"/><rect class="cls-59" x="295.16" y="504.85" width="15.03" height="30.54" rx="1.44"/><rect class="cls-59" x="395.92" y="526.58" width="30.54" height="15.03" rx="1.44"/><rect class="cls-59" x="442.61" y="528.21" width="15.03" height="30.54" rx="1.44"/><path class="cls-59" d="M392.07,541.61h42.26a1.45,1.45,0,0,1,1.45,1.45v17.79a1.44,1.44,0,0,1-1.44,1.44H392.07a1.44,1.44,0,0,1-1.44-1.44V543.05A1.44,1.44,0,0,1,392.07,541.61Z"/><path class="cls-59" d="M341.32,507V519.1a1.45,1.45,0,0,1-1.45,1.44H310.78v-15h29.09A1.45,1.45,0,0,1,341.32,507Z" transform="translate(0 0)"/><path class="cls-59" d="M295.16,534.72h15v29.1a1.45,1.45,0,0,1-1.45,1.44H296.61a1.45,1.45,0,0,1-1.45-1.44Z" transform="translate(0 0)"/><path class="cls-59" d="M168.26,525.79h16.48v27.43a1.45,1.45,0,0,1-1.45,1.44H169.71a1.45,1.45,0,0,1-1.45-1.44Z" transform="translate(0 0)"/><polyline class="cls-59" points="348.13 528.21 348.13 502.89 206.81 502.89 206.81 496.1"/><line class="cls-59" x1="310.19" y1="526.58" x2="342.77" y2="526.58"/><polyline class="cls-59" points="362.87 502.48 496.37 502.48 496.37 494.2"/><rect class="cls-59" x="508.14" y="387.04" width="37.74" height="40.68"/><rect class="cls-59" x="508.14" y="265.47" width="37.74" height="161.4"/><rect class="cls-59" x="155.52" y="272.54" width="37.74" height="40.68"/><rect class="cls-59" x="155.52" y="150.97" width="37.74" height="161.4"/><rect class="cls-59" x="508.16" y="224.7" width="37.74" height="40.68"/><rect class="cls-59" x="508.16" y="103.98" width="37.74" height="161.4"/><polyline class="cls-59" points="423.93 133.13 419.23 137.84 400.33 118.94 419.57 99.7 431.06 111.19 423.71 118.54"/><line class="cls-59" x1="476.91" y1="119.75" x2="476.91" y2="140.25"/><line class="cls-59" x1="495.04" y1="101.15" x2="495.04" y2="107.26"/><line class="cls-59" x1="206.19" y1="102.23" x2="206.19" y2="108.36"/><line class="cls-59" x1="479.76" y1="525.43" x2="479.76" y2="555.16"/><line class="cls-59" x1="461.03" y1="525.43" x2="461.03" y2="554.48"/><path class="cls-60" d="M353.75,535.38h26.47a1.45,1.45,0,0,1,1.44,1.45V560.6a1.46,1.46,0,0,1-1.44,1.45H353.75a1.46,1.46,0,0,1-1.44-1.45V536.83a1.45,1.45,0,0,1,1.44-1.45" transform="translate(0 0)"/><path class="cls-61" d="M353.75,536.14h26.47a1.45,1.45,0,0,1,1.44,1.45v22.25a1.45,1.45,0,0,1-1.44,1.45H353.75a1.45,1.45,0,0,1-1.44-1.45V537.59a1.45,1.45,0,0,1,1.44-1.45" transform="translate(0 0)"/><path class="cls-62" d="M353.65,558h2.79a1.31,1.31,0,0,1,1.29,1.32v1.45A1.3,1.3,0,0,0,359,562h15.22a1.3,1.3,0,0,0,1.29-1.31v-1.45a1.31,1.31,0,0,1,1.3-1.32h3.61a1.3,1.3,0,0,0,1.29-1.31v-20a1.3,1.3,0,0,0-1.29-1.31H375.8a1.31,1.31,0,0,1-1.29-1.32,1.3,1.3,0,0,0-1.29-1.31H359.15a1.3,1.3,0,0,0-1.29,1.31,1.31,1.31,0,0,1-1.29,1.32h-2.92a1.31,1.31,0,0,0-1.3,1.31v20a1.31,1.31,0,0,0,1.3,1.31" transform="translate(0 0)"/><rect class="cls-63" x="350.83" y="534.09" width="32.49" height="29.44"/><path class="cls-64" d="M353.65,557.48h2.79a1.31,1.31,0,0,1,1.29,1.32v1.45a1.31,1.31,0,0,0,1.3,1.31h15.22a1.3,1.3,0,0,0,1.29-1.31V558.8a1.31,1.31,0,0,1,1.3-1.32h3.61a1.3,1.3,0,0,0,1.29-1.31v-20a1.3,1.3,0,0,0-1.29-1.31H375.8a1.31,1.31,0,0,1-1.29-1.32,1.3,1.3,0,0,0-1.29-1.31H359.15a1.3,1.3,0,0,0-1.29,1.31,1.31,1.31,0,0,1-1.29,1.32h-2.92a1.31,1.31,0,0,0-1.3,1.31v20a1.31,1.31,0,0,0,1.3,1.31" transform="translate(0 0)"/><rect class="cls-1" x="151.61" width="401.61" height="569.42"/><g class="cls-65"><path class="cls-10" d="M187.49,112.32v26.8c0,3.29-1.64,5.88-3.6,5.88h-6.7c-2,0-3.59-2.68-3.59-5.88v-26.8c0-3.29,1.63-5.88,3.59-5.88h6.7c2-.09,3.6,2.59,3.6,5.88" transform="translate(0 0)"/><rect class="cls-11" x="173.53" y="116.82" width="13.94" height="17.72"/></g><g class="cls-12"><path class="cls-5" d="M475.33,558.75h-9.87a1.45,1.45,0,0,1-1.45-1.44V523.82a1.45,1.45,0,0,1,1.45-1.45h9.87a1.45,1.45,0,0,1,1.45,1.45v33.49a1.45,1.45,0,0,1-1.45,1.44" transform="translate(0 0)"/><rect class="cls-66" x="464.01" y="531.67" width="12.76" height="19.01"/><path class="cls-5" d="M185.44,146.6h-9.87a1.45,1.45,0,0,1-1.45-1.45V107.88a1.45,1.45,0,0,1,1.45-1.44h9.87a1.45,1.45,0,0,1,1.45,1.44v37.27a1.45,1.45,0,0,1-1.45,1.45" transform="translate(0 0)"/><rect class="cls-66" x="174.12" y="116.71" width="12.76" height="20.98"/></g><rect class="cls-1" x="151.61" width="401.61" height="569.42"/><path class="cls-67" d="M83.84,187.81H46L25.54,172.15,46,156.51H83.84a3,3,0,0,1,3,3v25.22A3,3,0,0,1,83.84,187.81Z" transform="translate(0 0)"/><polygon class="cls-67" points="57.91 156.51 26.43 156.51 10.67 172.15 26.43 187.81 57.91 187.81 73.67 172.15 57.91 156.51"/><text class="cls-68" transform="translate(29.2 180.03)">3.3V</text><path class="cls-69" d="M83.84,228.43H46L25.54,212.76,46,197.12H83.84a3,3,0,0,1,3,3v25.23A3,3,0,0,1,83.84,228.43Z" transform="translate(0 0)"/><polygon class="cls-69" points="47.24 197.12 15.76 197.12 0 212.76 15.76 228.43 47.24 228.43 63 212.76 47.24 197.12"/><text class="cls-68" transform="translate(15.93 220.64)">LED 1</text><path class="cls-69" d="M83.84,268.2H46L25.54,252.53,46,236.89H83.84a3,3,0,0,1,3,3v25.23A3,3,0,0,1,83.84,268.2Z" transform="translate(0 0)"/><polygon class="cls-69" points="47.24 236.89 15.76 236.89 0 252.53 15.76 268.2 47.24 268.2 63 252.53 47.24 236.89"/><text class="cls-68" transform="translate(15.93 260.41)">LED 2</text><path class="cls-70" d="M83.84,309.73H46L25.54,294.06,46,278.42H83.84a3,3,0,0,1,3,3v25.23A3,3,0,0,1,83.84,309.73Z" transform="translate(0 0)"/><polygon class="cls-70" points="47.24 278.42 15.76 278.42 0 294.06 15.76 309.73 47.24 309.73 63 294.06 47.24 278.42"/><text class="cls-68" transform="translate(22.05 301.94)">IO14</text><path class="cls-71" d="M617.26,342.6H655.1l20.46-15.67L655.1,311.29H617.26a3,3,0,0,0-3,3v25.23A3,3,0,0,0,617.26,342.6Z" transform="translate(0 0)"/><polygon class="cls-71" points="643.18 311.29 674.67 311.29 690.43 326.93 674.67 342.6 643.18 342.6 627.43 326.93 643.18 311.29"/><text class="cls-68" transform="translate(624.07 334.82)">GND</text><path class="cls-71" d="M617.26,262.42H655.1l20.46-15.67L655.1,231.11H617.26a3,3,0,0,0-3,3v25.22A3,3,0,0,0,617.26,262.42Z" transform="translate(0 0)"/><polygon class="cls-71" points="643.18 231.12 674.67 231.12 690.43 246.75 674.67 262.42 643.18 262.42 627.43 246.75 643.18 231.12"/><text class="cls-68" transform="translate(624.07 254.64)">GND</text><path class="cls-72" d="M618.21,220.56H667.9l26.87-15.67L667.9,189.26H618.21c-2.21,0-4,1.36-4,3v25.22C614.22,219.2,616,220.56,618.21,220.56Z" transform="translate(0 0)"/><polygon class="cls-72" points="658.84 189.25 690.33 189.25 706.09 204.89 690.33 220.56 658.84 220.56 643.09 204.89 658.84 189.25"/><text class="cls-68" transform="translate(624.07 212.78)">RXD0</text><path class="cls-72" d="M618.21,180H667.9l26.87-15.67L667.9,148.72H618.21c-2.21,0-4,1.36-4,3V177C614.22,178.66,616,180,618.21,180Z" transform="translate(0 0)"/><polygon class="cls-72" points="658.84 148.72 690.33 148.72 706.09 164.36 690.33 180.03 658.84 180.03 643.09 164.36 658.84 148.72"/><text class="cls-68" transform="translate(624.07 172.24)">TXD0</text><path class="cls-67" d="M618.21,139.74H667.9l10.53-15.66L667.9,108.43H618.21c-2.21,0-4,1.36-4,3V136.7C614.22,138.38,616,139.74,618.21,139.74Z" transform="translate(0 0)"/><polygon class="cls-67" points="641.48 108.43 672.96 108.43 688.72 124.07 672.96 139.74 641.48 139.74 625.72 124.07 641.48 108.43"/><text class="cls-68" transform="translate(624.07 131.95)">3.3V</text><path class="cls-70" d="M617.26,303.12H655.1l20.46-15.67L655.1,271.82H617.26a3,3,0,0,0-3,3v25.22A3,3,0,0,0,617.26,303.12Z" transform="translate(0 0)"/><polygon class="cls-70" points="643.18 271.82 674.67 271.82 690.43 287.45 674.67 303.12 643.18 303.12 627.43 287.45 643.18 271.82"/><text class="cls-68" transform="translate(624.07 295.34)">IO0</text><path class="cls-70" d="M617.26,383.1H655.1l20.46-15.66L655.1,351.8H617.26a3,3,0,0,0-3,3v25.22A3,3,0,0,0,617.26,383.1Z" transform="translate(0 0)"/><polygon class="cls-70" points="646.79 351.8 678.28 351.8 694.03 367.44 678.28 383.1 646.79 383.1 631.03 367.44 646.79 351.8"/><text class="cls-68" transform="translate(624.07 375.32)">IO12</text><path class="cls-70" d="M617.26,425H655.1l20.46-15.67L655.1,393.71H617.26a3,3,0,0,0-3,3V422A3,3,0,0,0,617.26,425Z" transform="translate(0 0)"/><polygon class="cls-70" points="646.79 393.71 678.28 393.71 694.03 409.35 678.28 425.02 646.79 425.02 631.03 409.35 646.79 393.71"/><text class="cls-68" transform="translate(624.07 417.24)">IO15</text><line class="cls-73" x1="86.88" y1="171.11" x2="174.86" y2="171.41"/><path class="cls-74" d="M174.56,177.05a5.64,5.64,0,1,0-5.62-5.66A5.64,5.64,0,0,0,174.56,177.05Z" transform="translate(0 0)"/><line class="cls-73" x1="86.88" y1="211.4" x2="174.86" y2="211.7"/><path class="cls-74" d="M174.56,217.34a5.64,5.64,0,1,0-5.62-5.66A5.64,5.64,0,0,0,174.56,217.34Z" transform="translate(0 0)"/><line class="cls-73" x1="86.88" y1="251.04" x2="174.86" y2="251.33"/><path class="cls-74" d="M174.56,257a5.64,5.64,0,1,0-5.62-5.66A5.63,5.63,0,0,0,174.56,257Z" transform="translate(0 0)"/><line class="cls-73" x1="86.88" y1="292.62" x2="174.86" y2="292.92"/><path class="cls-74" d="M174.56,298.55a5.64,5.64,0,1,0-5.62-5.65A5.63,5.63,0,0,0,174.56,298.55Z" transform="translate(0 0)"/><line class="cls-73" x1="614.22" y1="123.77" x2="526.24" y2="124.07"/><path class="cls-74" d="M526.5,118.42a5.64,5.64,0,1,0,5.66,5.63A5.65,5.65,0,0,0,526.5,118.42Z" transform="translate(0 0)"/><line class="cls-73" x1="614.22" y1="164.06" x2="526.24" y2="164.35"/><path class="cls-74" d="M526.5,158.71a5.64,5.64,0,1,0,5.66,5.62A5.65,5.65,0,0,0,526.5,158.71Z" transform="translate(0 0)"/><line class="cls-73" x1="614.22" y1="203.69" x2="526.24" y2="203.99"/><path class="cls-74" d="M526.5,198.35a5.64,5.64,0,1,0,5.66,5.62A5.64,5.64,0,0,0,526.5,198.35Z" transform="translate(0 0)"/><line class="cls-73" x1="614.22" y1="245.28" x2="526.24" y2="245.57"/><path class="cls-74" d="M526.5,239.93a5.64,5.64,0,1,0,5.66,5.62A5.65,5.65,0,0,0,526.5,239.93Z" transform="translate(0 0)"/><line class="cls-73" x1="614.22" y1="286.26" x2="526.24" y2="286.56"/><path class="cls-74" d="M526.5,280.92a5.64,5.64,0,1,0,5.66,5.62A5.64,5.64,0,0,0,526.5,280.92Z" transform="translate(0 0)"/><line class="cls-73" x1="614.22" y1="326.55" x2="526.24" y2="326.85"/><path class="cls-74" d="M526.5,321.21a5.64,5.64,0,1,0,5.66,5.62A5.64,5.64,0,0,0,526.5,321.21Z" transform="translate(0 0)"/><line class="cls-73" x1="614.22" y1="366.18" x2="526.24" y2="366.48"/><path class="cls-74" d="M526.5,360.84a5.64,5.64,0,1,0,5.66,5.62A5.65,5.65,0,0,0,526.5,360.84Z" transform="translate(0 0)"/><line class="cls-73" x1="614.22" y1="407.77" x2="526.24" y2="408.07"/><path class="cls-74" d="M526.5,402.42a5.64,5.64,0,1,0,5.66,5.63A5.65,5.65,0,0,0,526.5,402.42Z" transform="translate(0 0)"/></g></g></svg>