<svg xmlns="http://www.w3.org/2000/svg" xmlns:xlink="http://www.w3.org/1999/xlink" viewBox="0 0 1513.5 1137.5"><defs><style>.cls-1,.cls-59,.cls-63{fill:none;}.cls-2{fill:#222;}.cls-3{fill:#eb8923;}.cls-4{fill:#b2b3b2;}.cls-5{fill:#bf8f3e;}.cls-6{fill:#fff;}.cls-7{clip-path:url(#clip-path);}.cls-8{clip-path:url(#clip-path-2);}.cls-9{clip-path:url(#clip-path-3);}.cls-10{clip-path:url(#clip-path-4);}.cls-11{clip-path:url(#clip-path-5);}.cls-12{clip-path:url(#clip-path-6);}.cls-13{clip-path:url(#clip-path-7);}.cls-14{clip-path:url(#clip-path-8);}.cls-15{clip-path:url(#clip-path-9);}.cls-16{clip-path:url(#clip-path-10);}.cls-17{clip-path:url(#clip-path-11);}.cls-18{clip-path:url(#clip-path-12);}.cls-19{clip-path:url(#clip-path-13);}.cls-20{clip-path:url(#clip-path-14);}.cls-21{fill:#be8e3f;}.cls-22{clip-path:url(#clip-path-15);}.cls-23{clip-path:url(#clip-path-16);}.cls-24{clip-path:url(#clip-path-17);}.cls-25{fill:#c0903d;}.cls-26{clip-path:url(#clip-path-18);}.cls-27{clip-path:url(#clip-path-19);}.cls-28{clip-path:url(#clip-path-20);}.cls-29{clip-path:url(#clip-path-21);}.cls-30{clip-path:url(#clip-path-22);}.cls-31{clip-path:url(#clip-path-23);}.cls-32{fill:#e5e5e5;}.cls-33{fill:#232323;}.cls-34{clip-path:url(#clip-path-24);}.cls-35{clip-path:url(#clip-path-25);}.cls-36{clip-path:url(#clip-path-26);}.cls-37{clip-path:url(#clip-path-27);}.cls-38{clip-path:url(#clip-path-28);}.cls-39{clip-path:url(#clip-path-29);}.cls-40{clip-path:url(#clip-path-30);}.cls-41{clip-path:url(#clip-path-31);}.cls-42{clip-path:url(#clip-path-32);}.cls-43{clip-path:url(#clip-path-33);}.cls-44{clip-path:url(#clip-path-34);}.cls-45{clip-path:url(#clip-path-35);}.cls-46{fill:#ca992c;}.cls-47{clip-path:url(#clip-path-36);}.cls-48{clip-path:url(#clip-path-37);}.cls-49{clip-path:url(#clip-path-38);}.cls-50{clip-path:url(#clip-path-39);}.cls-51{clip-path:url(#clip-path-41);}.cls-52{clip-path:url(#clip-path-42);}.cls-53{clip-path:url(#clip-path-43);}.cls-54{clip-path:url(#clip-path-44);}.cls-55{clip-path:url(#clip-path-45);}.cls-56{clip-path:url(#clip-path-46);}.cls-57{fill:#e9e9dc;}.cls-58{fill:#7f7f74;}.cls-59,.cls-63{stroke:#fff;stroke-miterlimit:10;}.cls-59{stroke-width:4.81px;}.cls-60{fill:#3d3b3d;}.cls-61{fill:#606161;}.cls-62{fill:#100e10;}.cls-63{stroke-width:2.41px;}.cls-64{fill:#1e1d1e;}.cls-65{clip-path:url(#clip-path-48);}.cls-66{fill:#fef0bc;}.cls-67{fill:#fff200;}.cls-68{font-size:51.22px;}.cls-68,.cls-69,.cls-70{font-family:HelveticaNeueLTPro-Bd, Helvetica Neue LT Pro;}.cls-69{font-size:43.33px;}.cls-70{font-size:52.05px;}</style><clipPath id="clip-path"><rect class="cls-1" x="725.79" y="466.35" width="46.5" height="47.94"/></clipPath><clipPath id="clip-path-2"><rect class="cls-1" x="725.37" y="383.36" width="47.15" height="47.16"/></clipPath><clipPath id="clip-path-3"><rect class="cls-1" x="725.61" y="304.29" width="46.74" height="46.74"/></clipPath><clipPath id="clip-path-4"><rect class="cls-1" x="725.34" y="223.68" width="47.29" height="47.29"/></clipPath><clipPath id="clip-path-5"><rect class="cls-1" x="725.9" y="791.44" width="45.93" height="47.36"/></clipPath><clipPath id="clip-path-6"><rect class="cls-1" x="725.12" y="708.49" width="47.49" height="47.49"/></clipPath><clipPath id="clip-path-7"><rect class="cls-1" x="725.25" y="629.09" width="46.93" height="46.93"/></clipPath><clipPath id="clip-path-8"><rect class="cls-1" x="725.34" y="548.44" width="47.26" height="47.26"/></clipPath><clipPath id="clip-path-9"><rect class="cls-1" x="22.23" y="561.19" width="45.93" height="47.36"/></clipPath><clipPath id="clip-path-10"><rect class="cls-1" x="22.03" y="478.24" width="47.11" height="47.11"/></clipPath><clipPath id="clip-path-11"><rect class="cls-1" x="22" y="398.84" width="46.93" height="46.93"/></clipPath><clipPath id="clip-path-12"><rect class="cls-1" x="21.88" y="318.19" width="47.26" height="47.26"/></clipPath><clipPath id="clip-path-13"><rect class="cls-1" x="144.56" y="1037.69" width="85.89" height="85.89"/></clipPath><clipPath id="clip-path-14"><rect class="cls-1" x="111.96" y="1100.07" width="32.6" height="32.6"/></clipPath><clipPath id="clip-path-15"><rect class="cls-1" x="598.15" y="180.36" width="13.18" height="13.18"/></clipPath><clipPath id="clip-path-16"><rect class="cls-1" x="526.82" y="180.36" width="13.18" height="13.18"/></clipPath><clipPath id="clip-path-17"><rect class="cls-1" width="802.27" height="1137.5"/></clipPath><clipPath id="clip-path-18"><rect class="cls-1" x="40.01" y="1028.11" width="20.57" height="18.48"/></clipPath><clipPath id="clip-path-19"><rect class="cls-1" x="40.01" y="1056.86" width="20.57" height="18.48"/></clipPath><clipPath id="clip-path-20"><rect class="cls-1" x="80.82" y="1046.59" width="20.57" height="18.48"/></clipPath><clipPath id="clip-path-21"><rect class="cls-1" x="80.82" y="1074.66" width="20.57" height="18.48"/></clipPath><clipPath id="clip-path-22"><rect class="cls-1" x="41.77" y="1083.89" width="17.09" height="17.09"/></clipPath><clipPath id="clip-path-23"><rect class="cls-1" x="251.29" y="1020.34" width="31.55" height="72.16"/></clipPath><clipPath id="clip-path-24"><rect class="cls-1" x="292.56" y="1076.59" width="20.97" height="46.67"/></clipPath><clipPath id="clip-path-25"><rect class="cls-1" x="585.84" y="1064.13" width="20.97" height="46.67"/></clipPath><clipPath id="clip-path-26"><rect class="cls-1" x="295.09" y="1025.76" width="14.92" height="35.53"/></clipPath><clipPath id="clip-path-27"><rect class="cls-1" x="324.11" y="1060.07" width="6.33" height="8.12"/></clipPath><clipPath id="clip-path-28"><rect class="cls-1" x="324.11" y="1076.59" width="6.33" height="8.12"/></clipPath><clipPath id="clip-path-29"><rect class="cls-1" x="324.11" y="1093.12" width="6.33" height="8.12"/></clipPath><clipPath id="clip-path-30"><rect class="cls-1" x="324.11" y="1107.76" width="6.33" height="8.12"/></clipPath><clipPath id="clip-path-31"><rect class="cls-1" x="380.16" y="1060.07" width="6.33" height="8.12"/></clipPath><clipPath id="clip-path-32"><rect class="cls-1" x="380.16" y="1076.59" width="6.33" height="8.12"/></clipPath><clipPath id="clip-path-33"><rect class="cls-1" x="380.16" y="1093.12" width="6.33" height="8.12"/></clipPath><clipPath id="clip-path-34"><rect class="cls-1" x="380.16" y="1107.76" width="6.33" height="8.12"/></clipPath><clipPath id="clip-path-35"><rect class="cls-1" x="321.91" y="1017.35" width="48.31" height="17.36"/></clipPath><clipPath id="clip-path-36"><rect class="cls-1" x="494.4" y="1059.51" width="48.31" height="17.36"/></clipPath><clipPath id="clip-path-37"><rect class="cls-1" x="483.04" y="1088.95" width="82.72" height="28.75"/></clipPath><clipPath id="clip-path-38"><rect class="cls-1" x="16.94" y="631.88" width="33.87" height="33.87"/></clipPath><clipPath id="clip-path-39"><rect class="cls-1" x="741.5" y="980.35" width="33.87" height="33.87"/></clipPath><clipPath id="clip-path-41"><rect class="cls-1" x="552.21" y="246.95" width="32" height="28.75"/></clipPath><clipPath id="clip-path-42"><rect class="cls-1" x="584.21" y="291.83" width="69.16" height="30.8"/></clipPath><clipPath id="clip-path-43"><rect class="cls-1" x="584.21" y="201.07" width="69.16" height="30.8"/></clipPath><clipPath id="clip-path-44"><rect class="cls-1" x="528.88" y="244.94" width="12.13" height="13.51" transform="translate(-21.29 451.99) rotate(-45)"/></clipPath><clipPath id="clip-path-45"><rect class="cls-1" x="512.88" y="228.94" width="12.13" height="13.51" transform="translate(-14.66 435.98) rotate(-45)"/></clipPath><clipPath id="clip-path-46"><rect class="cls-1" x="527.48" y="214.34" width="12.14" height="13.51" transform="translate(-0.06 442.03) rotate(-45)"/></clipPath><clipPath id="clip-path-48"><rect class="cls-1" x="43.78" y="212.63" width="27.89" height="77.03"/></clipPath></defs><g id="Layer_2" data-name="Layer 2"><g id="Layer_1-2" data-name="Layer 1"><g id="RAK2305-illustration-top"><path class="cls-2" d="M682.39,198.53V0H111.2V200.16L0,200.7v936.8H802.27v-939ZM45.5,323.67c9.59,0,17.36,8.05,17.36,18s-7.77,18-17.36,18-17.36-8-17.36-18,7.77-18,17.36-18m0,80.2c9.59,0,17.36,8.05,17.36,18s-7.77,18-17.36,18-17.36-8.05-17.36-18,7.77-18,17.36-18m0,79.67c9.59,0,17.36,8.06,17.36,18s-7.77,18-17.36,18-17.36-8.06-17.36-18,7.77-18,17.36-18m0,83.25c9.59,0,17.36,8.06,17.36,18s-7.77,18-17.36,18-17.36-8-17.36-18,7.77-18,17.36-18M58,751a26.47,26.47,0,1,1,26.47-26.47A26.47,26.47,0,0,1,58,751m129.25,356.13a26.48,26.48,0,1,1,26.48-26.48,26.48,26.48,0,0,1-26.48,26.48M738.55,942.59A26.47,26.47,0,1,1,765,916.12a26.47,26.47,0,0,1-26.47,26.47m10.38-109.31c-9.59,0-17.36-8-17.36-18s7.77-18,17.36-18,17.36,8.05,17.36,18-7.77,18-17.36,18m0-83.25c-9.59,0-17.36-8-17.36-18s7.77-18,17.36-18,17.36,8.05,17.36,18-7.77,18-17.36,18m0-79.67c-9.59,0-17.36-8.06-17.36-18s7.77-18,17.36-18,17.36,8,17.36,18-7.77,18-17.36,18m0-80.2c-9.59,0-17.36-8.06-17.36-18s7.77-18,17.36-18,17.36,8.06,17.36,18-7.77,18-17.36,18m0-81.87c-9.59,0-17.36-8.05-17.36-18s7.77-18,17.36-18,17.36,8.06,17.36,18-7.77,18-17.36,18m0-83.24c-9.59,0-17.36-8.06-17.36-18s7.77-18,17.36-18,17.36,8.06,17.36,18-7.77,18-17.36,18m0-79.68c-9.59,0-17.36-8.06-17.36-18s7.77-18,17.36-18,17.36,8.05,17.36,18-7.77,18-17.36,18m0-80.2c-9.59,0-17.36-8.06-17.36-18s7.77-18,17.36-18,17.36,8.05,17.36,18-7.77,18-17.36,18"/><path class="cls-3" d="M676.93,221.9H698a3,3,0,0,1,3,2.95v18.93a3,3,0,0,1-3,2.94H676.93a3,3,0,0,1-2.95-2.94V224.85a3,3,0,0,1,2.95-2.95"/><path class="cls-4" d="M694.36,244.09H681.23a2.71,2.71,0,0,1-2.45-2.9V227.76a2.71,2.71,0,0,1,2.45-2.91h13.13a2.7,2.7,0,0,1,2.44,2.91v13.43a2.7,2.7,0,0,1-2.44,2.9"/><path class="cls-5" d="M685.74,245.93h7.41c5.44,0,9.9-5.16,9.9-11.46S698.59,223,693.15,223h-7.41c-5.45,0-9.9,5.16-9.9,11.46s4.45,11.46,9.9,11.46m.32-19.39c3.78,0,6.85,3.55,6.85,7.93s-3.07,7.93-6.85,7.93-6.86-3.55-6.86-7.93,3.07-7.93,6.86-7.93"/><path class="cls-6" d="M689.15,218.66h9.78a4.12,4.12,0,0,1,4.12,4.11v23.46a4.13,4.13,0,0,1-4.12,4.12h-9.78a4.13,4.13,0,0,1-4.12-4.12V222.77a4.12,4.12,0,0,1,4.12-4.11"/><path class="cls-3" d="M676.93,261.32H698a3,3,0,0,1,3,2.95V283.2a3,3,0,0,1-3,2.94H676.93A3,3,0,0,1,674,283.2V264.27a3,3,0,0,1,2.95-2.95"/><path class="cls-4" d="M694.36,283.51H681.23a2.71,2.71,0,0,1-2.45-2.91V267.17a2.71,2.71,0,0,1,2.45-2.9h13.13a2.7,2.7,0,0,1,2.44,2.9V280.6a2.7,2.7,0,0,1-2.44,2.91"/><path class="cls-5" d="M685.74,285.35h7.41c5.44,0,9.9-5.16,9.9-11.46s-4.46-11.46-9.9-11.46h-7.41c-5.45,0-9.9,5.15-9.9,11.46s4.45,11.46,9.9,11.46m.32-19.4c3.78,0,6.85,3.56,6.85,7.94s-3.07,7.93-6.85,7.93-6.86-3.55-6.86-7.93,3.07-7.94,6.86-7.94"/><path class="cls-6" d="M689.15,258.08h9.78a4.12,4.12,0,0,1,4.12,4.11v23.46a4.13,4.13,0,0,1-4.12,4.12h-9.78a4.13,4.13,0,0,1-4.12-4.12V262.19a4.12,4.12,0,0,1,4.12-4.11"/><path class="cls-3" d="M676.93,303.63H698a3,3,0,0,1,3,2.95V325.5a3,3,0,0,1-3,2.95H676.93A3,3,0,0,1,674,325.5V306.58a3,3,0,0,1,2.95-2.95"/><path class="cls-4" d="M694.36,325.82H681.23a2.71,2.71,0,0,1-2.45-2.91V309.48a2.71,2.71,0,0,1,2.45-2.9h13.13a2.7,2.7,0,0,1,2.44,2.9v13.43a2.7,2.7,0,0,1-2.44,2.91"/><path class="cls-5" d="M685.74,327.66h7.41c5.44,0,9.9-5.16,9.9-11.46s-4.46-11.46-9.9-11.46h-7.41c-5.45,0-9.9,5.16-9.9,11.46s4.45,11.46,9.9,11.46m.32-19.4c3.78,0,6.85,3.56,6.85,7.94s-3.07,7.93-6.85,7.93-6.86-3.55-6.86-7.93,3.07-7.94,6.86-7.94"/><path class="cls-6" d="M689.15,300.39h9.78a4.12,4.12,0,0,1,4.12,4.11V328a4.13,4.13,0,0,1-4.12,4.12h-9.78A4.13,4.13,0,0,1,685,328V304.5a4.12,4.12,0,0,1,4.12-4.11"/><path class="cls-3" d="M676.93,341.6H698a3,3,0,0,1,3,2.95v18.93a3,3,0,0,1-3,2.94H676.93a3,3,0,0,1-2.95-2.94V344.55a3,3,0,0,1,2.95-2.95"/><path class="cls-4" d="M694.36,363.79H681.23a2.71,2.71,0,0,1-2.45-2.91V347.45a2.71,2.71,0,0,1,2.45-2.9h13.13a2.7,2.7,0,0,1,2.44,2.9v13.43a2.7,2.7,0,0,1-2.44,2.91"/><path class="cls-5" d="M685.74,365.63h7.41c5.44,0,9.9-5.16,9.9-11.46s-4.46-11.46-9.9-11.46h-7.41c-5.45,0-9.9,5.16-9.9,11.46s4.45,11.46,9.9,11.46m.32-19.4c3.78,0,6.85,3.56,6.85,7.94s-3.07,7.93-6.85,7.93-6.86-3.55-6.86-7.93,3.07-7.94,6.86-7.94"/><path class="cls-6" d="M689.15,338.36h9.78a4.12,4.12,0,0,1,4.12,4.11v23.46a4.13,4.13,0,0,1-4.12,4.12h-9.78a4.13,4.13,0,0,1-4.12-4.12V342.47a4.12,4.12,0,0,1,4.12-4.11"/><path class="cls-3" d="M676.93,384.87H698a3,3,0,0,1,3,2.95v18.93a3,3,0,0,1-3,2.94H676.93a3,3,0,0,1-2.95-2.94V387.82a3,3,0,0,1,2.95-2.95"/><path class="cls-4" d="M694.36,407.06H681.23a2.71,2.71,0,0,1-2.45-2.9V390.73a2.71,2.71,0,0,1,2.45-2.91h13.13a2.7,2.7,0,0,1,2.44,2.91v13.43a2.7,2.7,0,0,1-2.44,2.9"/><path class="cls-5" d="M685.74,408.9h7.41c5.44,0,9.9-5.16,9.9-11.46S698.59,386,693.15,386h-7.41c-5.45,0-9.9,5.16-9.9,11.46s4.45,11.46,9.9,11.46m.32-19.39c3.78,0,6.85,3.55,6.85,7.93s-3.07,7.93-6.85,7.93-6.86-3.55-6.86-7.93,3.07-7.93,6.86-7.93"/><path class="cls-6" d="M689.15,381.63h9.78a4.12,4.12,0,0,1,4.12,4.11V409.2a4.13,4.13,0,0,1-4.12,4.12h-9.78A4.13,4.13,0,0,1,685,409.2V385.74a4.12,4.12,0,0,1,4.12-4.11"/><path class="cls-3" d="M676.93,424.91H698a3,3,0,0,1,3,2.94v18.93a2.94,2.94,0,0,1-3,2.94H676.93a2.94,2.94,0,0,1-2.95-2.94V427.85a3,3,0,0,1,2.95-2.94"/><path class="cls-4" d="M694.36,447.09H681.23a2.71,2.71,0,0,1-2.45-2.9V430.76a2.72,2.72,0,0,1,2.45-2.91h13.13a2.71,2.71,0,0,1,2.44,2.91v13.43a2.7,2.7,0,0,1-2.44,2.9"/><path class="cls-5" d="M685.74,448.93h7.41c5.44,0,9.9-5.16,9.9-11.46S698.59,426,693.15,426h-7.41c-5.45,0-9.9,5.16-9.9,11.46s4.45,11.46,9.9,11.46m.32-19.39c3.78,0,6.85,3.55,6.85,7.93s-3.07,7.94-6.85,7.94-6.86-3.55-6.86-7.94,3.07-7.93,6.86-7.93"/><path class="cls-6" d="M689.15,421.66h9.78a4.13,4.13,0,0,1,4.12,4.12v23.46a4.12,4.12,0,0,1-4.12,4.11h-9.78a4.12,4.12,0,0,1-4.12-4.11V425.78a4.13,4.13,0,0,1,4.12-4.12"/><path class="cls-3" d="M676.2,505h21.08a2.93,2.93,0,0,1,2.94,2.94v18.93a2.94,2.94,0,0,1-2.94,2.94H676.2a2.94,2.94,0,0,1-2.94-2.94V507.92A2.94,2.94,0,0,1,676.2,505"/><path class="cls-4" d="M693.64,527.16H680.5a2.71,2.71,0,0,1-2.44-2.9V510.83a2.71,2.71,0,0,1,2.44-2.91h13.14a2.7,2.7,0,0,1,2.44,2.91v13.43a2.7,2.7,0,0,1-2.44,2.9"/><path class="cls-5" d="M685,529h7.42c5.44,0,9.9-5.16,9.9-11.46s-4.46-11.46-9.9-11.46H685c-5.44,0-9.9,5.16-9.9,11.46S679.57,529,685,529m.32-19.39c3.79,0,6.86,3.55,6.86,7.93s-3.07,7.94-6.86,7.94-6.85-3.56-6.85-7.94,3.07-7.93,6.85-7.93"/><path class="cls-6" d="M688.42,501.73h9.79a4.12,4.12,0,0,1,4.11,4.11v23.47a4.12,4.12,0,0,1-4.11,4.11h-9.79a4.12,4.12,0,0,1-4.11-4.11V505.84a4.12,4.12,0,0,1,4.11-4.11"/><path class="cls-3" d="M676.2,546.92h21.08a2.94,2.94,0,0,1,2.94,3V568.8a2.94,2.94,0,0,1-2.94,2.94H676.2a2.94,2.94,0,0,1-2.94-2.94V549.87a3,3,0,0,1,2.94-3"/><path class="cls-4" d="M693.64,569.11H680.5a2.71,2.71,0,0,1-2.44-2.9V552.77a2.71,2.71,0,0,1,2.44-2.9h13.14a2.7,2.7,0,0,1,2.44,2.9v13.44a2.7,2.7,0,0,1-2.44,2.9"/><path class="cls-5" d="M685,571h7.42c5.44,0,9.9-5.16,9.9-11.46S697.87,548,692.43,548H685c-5.44,0-9.9,5.16-9.9,11.46S679.57,571,685,571m.32-19.39c3.79,0,6.86,3.55,6.86,7.93s-3.07,7.93-6.86,7.93-6.85-3.55-6.85-7.93,3.07-7.93,6.85-7.93"/><path class="cls-6" d="M688.42,543.68h9.79a4.12,4.12,0,0,1,4.11,4.11v23.47a4.12,4.12,0,0,1-4.11,4.11h-9.79a4.12,4.12,0,0,1-4.11-4.11V547.79a4.12,4.12,0,0,1,4.11-4.11"/><path class="cls-3" d="M676.2,586.34h21.08a2.94,2.94,0,0,1,2.94,2.94v18.94a2.94,2.94,0,0,1-2.94,2.94H676.2a2.94,2.94,0,0,1-2.94-2.94V589.28a2.94,2.94,0,0,1,2.94-2.94"/><path class="cls-4" d="M693.64,608.53H680.5a2.71,2.71,0,0,1-2.44-2.9V592.19a2.71,2.71,0,0,1,2.44-2.9h13.14a2.7,2.7,0,0,1,2.44,2.9v13.44a2.7,2.7,0,0,1-2.44,2.9"/><path class="cls-5" d="M685,610.37h7.42c5.44,0,9.9-5.16,9.9-11.46s-4.46-11.46-9.9-11.46H685c-5.44,0-9.9,5.16-9.9,11.46s4.46,11.46,9.9,11.46m.32-19.4c3.79,0,6.86,3.56,6.86,7.94s-3.07,7.93-6.86,7.93-6.85-3.55-6.85-7.93,3.07-7.94,6.85-7.94"/><path class="cls-6" d="M688.42,583.1h9.79a4.12,4.12,0,0,1,4.11,4.11v23.46a4.12,4.12,0,0,1-4.11,4.12h-9.79a4.12,4.12,0,0,1-4.11-4.12V587.21a4.12,4.12,0,0,1,4.11-4.11"/><path class="cls-3" d="M676.2,627.93h21.08a2.94,2.94,0,0,1,2.94,2.94V649.8a2.93,2.93,0,0,1-2.94,2.94H676.2a2.94,2.94,0,0,1-2.94-2.94V630.87a2.94,2.94,0,0,1,2.94-2.94"/><path class="cls-4" d="M693.64,650.11H680.5a2.7,2.7,0,0,1-2.44-2.9V633.78a2.72,2.72,0,0,1,2.44-2.91h13.14a2.71,2.71,0,0,1,2.44,2.91v13.43a2.69,2.69,0,0,1-2.44,2.9"/><path class="cls-5" d="M685,652h7.42c5.44,0,9.9-5.15,9.9-11.46S697.87,629,692.43,629H685c-5.44,0-9.9,5.16-9.9,11.46S679.57,652,685,652m.32-19.39c3.79,0,6.86,3.55,6.86,7.93s-3.07,7.94-6.86,7.94-6.85-3.55-6.85-7.94,3.07-7.93,6.85-7.93"/><path class="cls-6" d="M688.42,624.69h9.79a4.12,4.12,0,0,1,4.11,4.11v23.46a4.13,4.13,0,0,1-4.11,4.12h-9.79a4.13,4.13,0,0,1-4.11-4.12V628.8a4.12,4.12,0,0,1,4.11-4.11"/><path class="cls-3" d="M676.2,668.07h21.08a2.94,2.94,0,0,1,2.94,2.94v18.93a2.93,2.93,0,0,1-2.94,2.94H676.2a2.94,2.94,0,0,1-2.94-2.94V671a2.94,2.94,0,0,1,2.94-2.94"/><path class="cls-4" d="M693.64,690.25H680.5a2.7,2.7,0,0,1-2.44-2.9V673.92A2.72,2.72,0,0,1,680.5,671h13.14a2.71,2.71,0,0,1,2.44,2.91v13.43a2.69,2.69,0,0,1-2.44,2.9"/><path class="cls-5" d="M685,692.09h7.42c5.44,0,9.9-5.15,9.9-11.45s-4.46-11.46-9.9-11.46H685c-5.44,0-9.9,5.15-9.9,11.46s4.46,11.45,9.9,11.45m.32-19.39c3.79,0,6.86,3.55,6.86,7.94s-3.07,7.93-6.86,7.93-6.85-3.55-6.85-7.93,3.07-7.94,6.85-7.94"/><path class="cls-6" d="M688.42,664.83h9.79a4.12,4.12,0,0,1,4.11,4.11V692.4a4.13,4.13,0,0,1-4.11,4.12h-9.79a4.13,4.13,0,0,1-4.11-4.12V668.94a4.12,4.12,0,0,1,4.11-4.11"/><path class="cls-3" d="M676.2,708.21h21.08a2.94,2.94,0,0,1,2.94,2.94v18.93a2.94,2.94,0,0,1-2.94,2.95H676.2a3,3,0,0,1-2.94-2.95V711.15a2.94,2.94,0,0,1,2.94-2.94"/><path class="cls-4" d="M693.64,730.4H680.5a2.71,2.71,0,0,1-2.44-2.91V714.06a2.71,2.71,0,0,1,2.44-2.9h13.14a2.7,2.7,0,0,1,2.44,2.9v13.43a2.7,2.7,0,0,1-2.44,2.91"/><path class="cls-5" d="M685,732.23h7.42c5.44,0,9.9-5.15,9.9-11.45s-4.46-11.46-9.9-11.46H685c-5.44,0-9.9,5.15-9.9,11.46s4.46,11.45,9.9,11.45m.32-19.39c3.79,0,6.86,3.55,6.86,7.94s-3.07,7.93-6.86,7.93-6.85-3.55-6.85-7.93,3.07-7.94,6.85-7.94"/><path class="cls-6" d="M688.42,705h9.79a4.12,4.12,0,0,1,4.11,4.11v23.46a4.13,4.13,0,0,1-4.11,4.12h-9.79a4.13,4.13,0,0,1-4.11-4.12V709.08a4.12,4.12,0,0,1,4.11-4.11"/><path class="cls-3" d="M676.2,748.35h21.08a2.94,2.94,0,0,1,2.94,2.94v18.93a2.94,2.94,0,0,1-2.94,2.95H676.2a3,3,0,0,1-2.94-2.95V751.29a2.94,2.94,0,0,1,2.94-2.94"/><path class="cls-4" d="M693.64,770.54H680.5a2.71,2.71,0,0,1-2.44-2.91V754.2a2.71,2.71,0,0,1,2.44-2.9h13.14a2.7,2.7,0,0,1,2.44,2.9v13.43a2.7,2.7,0,0,1-2.44,2.91"/><path class="cls-5" d="M685,772.37h7.42c5.44,0,9.9-5.15,9.9-11.45s-4.46-11.46-9.9-11.46H685c-5.44,0-9.9,5.15-9.9,11.46s4.46,11.45,9.9,11.45m.32-19.39c3.79,0,6.86,3.56,6.86,7.94s-3.07,7.93-6.86,7.93-6.85-3.55-6.85-7.93,3.07-7.94,6.85-7.94"/><path class="cls-6" d="M688.42,745.11h9.79a4.12,4.12,0,0,1,4.11,4.11v23.46a4.13,4.13,0,0,1-4.11,4.12h-9.79a4.13,4.13,0,0,1-4.11-4.12V749.22a4.12,4.12,0,0,1,4.11-4.11"/><path class="cls-3" d="M676.2,788.49h21.08a2.94,2.94,0,0,1,2.94,3v18.93a2.94,2.94,0,0,1-2.94,2.94H676.2a2.94,2.94,0,0,1-2.94-2.94V791.44a3,3,0,0,1,2.94-3"/><path class="cls-4" d="M693.64,810.68H680.5a2.71,2.71,0,0,1-2.44-2.9V794.34a2.71,2.71,0,0,1,2.44-2.9h13.14a2.7,2.7,0,0,1,2.44,2.9v13.44a2.7,2.7,0,0,1-2.44,2.9"/><path class="cls-5" d="M685,812.52h7.42c5.44,0,9.9-5.16,9.9-11.46s-4.46-11.46-9.9-11.46H685c-5.44,0-9.9,5.15-9.9,11.46s4.46,11.46,9.9,11.46m.32-19.4c3.79,0,6.86,3.56,6.86,7.94s-3.07,7.93-6.86,7.93-6.85-3.55-6.85-7.93,3.07-7.94,6.85-7.94"/><path class="cls-6" d="M688.42,785.25h9.79a4.12,4.12,0,0,1,4.11,4.11v23.46a4.12,4.12,0,0,1-4.11,4.12h-9.79a4.12,4.12,0,0,1-4.11-4.12V789.36a4.12,4.12,0,0,1,4.11-4.11"/><path class="cls-3" d="M676.2,832.25h21.08a2.94,2.94,0,0,1,2.94,2.94v18.93a2.93,2.93,0,0,1-2.94,2.94H676.2a2.94,2.94,0,0,1-2.94-2.94V835.19a2.94,2.94,0,0,1,2.94-2.94"/><path class="cls-4" d="M693.64,854.43H680.5a2.7,2.7,0,0,1-2.44-2.9V838.1a2.72,2.72,0,0,1,2.44-2.91h13.14a2.71,2.71,0,0,1,2.44,2.91v13.43a2.69,2.69,0,0,1-2.44,2.9"/><path class="cls-5" d="M685,856.27h7.42c5.44,0,9.9-5.15,9.9-11.46s-4.46-11.46-9.9-11.46H685c-5.44,0-9.9,5.16-9.9,11.46s4.46,11.46,9.9,11.46m.32-19.39c3.79,0,6.86,3.55,6.86,7.93s-3.07,7.94-6.86,7.94-6.85-3.55-6.85-7.94,3.07-7.93,6.85-7.93"/><path class="cls-6" d="M688.42,829h9.79a4.12,4.12,0,0,1,4.11,4.11v23.46a4.13,4.13,0,0,1-4.11,4.12h-9.79a4.13,4.13,0,0,1-4.11-4.12V833.12a4.12,4.12,0,0,1,4.11-4.11"/><path class="cls-3" d="M676.2,872.75h21.08a2.94,2.94,0,0,1,2.94,2.94v18.93a2.94,2.94,0,0,1-2.94,3H676.2a3,3,0,0,1-2.94-3V875.69a2.94,2.94,0,0,1,2.94-2.94"/><path class="cls-4" d="M693.64,894.94H680.5a2.71,2.71,0,0,1-2.44-2.91V878.6a2.71,2.71,0,0,1,2.44-2.9h13.14a2.7,2.7,0,0,1,2.44,2.9V892a2.7,2.7,0,0,1-2.44,2.91"/><path class="cls-5" d="M685,896.77h7.42c5.44,0,9.9-5.15,9.9-11.45s-4.46-11.46-9.9-11.46H685c-5.44,0-9.9,5.15-9.9,11.46s4.46,11.45,9.9,11.45m.32-19.39c3.79,0,6.86,3.56,6.86,7.94s-3.07,7.93-6.86,7.93-6.85-3.55-6.85-7.93,3.07-7.94,6.85-7.94"/><path class="cls-6" d="M688.42,869.51h9.79a4.12,4.12,0,0,1,4.11,4.11v23.46a4.13,4.13,0,0,1-4.11,4.12h-9.79a4.13,4.13,0,0,1-4.11-4.12V873.62a4.12,4.12,0,0,1,4.11-4.11"/><path class="cls-3" d="M122.79,979.27H101.71a2.94,2.94,0,0,1-2.94-2.94V957.4a2.94,2.94,0,0,1,2.94-2.95h21.08a3,3,0,0,1,2.94,2.95v18.93a2.94,2.94,0,0,1-2.94,2.94"/><path class="cls-4" d="M105.35,957.08h13.14a2.71,2.71,0,0,1,2.44,2.91v13.43a2.71,2.71,0,0,1-2.44,2.9H105.35a2.7,2.7,0,0,1-2.44-2.9V960a2.7,2.7,0,0,1,2.44-2.91"/><path class="cls-5" d="M114,955.25h-7.42c-5.44,0-9.9,5.15-9.9,11.45s4.46,11.46,9.9,11.46H114c5.44,0,9.9-5.16,9.9-11.46s-4.46-11.45-9.9-11.45m-.32,19.39c-3.79,0-6.86-3.56-6.86-7.94s3.07-7.93,6.86-7.93,6.85,3.55,6.85,7.93-3.07,7.94-6.85,7.94"/><path class="cls-6" d="M110.57,982.51h-9.79a4.12,4.12,0,0,1-4.11-4.11V954.94a4.13,4.13,0,0,1,4.11-4.12h9.79a4.13,4.13,0,0,1,4.11,4.12V978.4a4.12,4.12,0,0,1-4.11,4.11"/><path class="cls-3" d="M122.79,938.22H101.71a2.93,2.93,0,0,1-2.94-2.94V916.35a2.93,2.93,0,0,1,2.94-2.94h21.08a2.94,2.94,0,0,1,2.94,2.94v18.93a2.94,2.94,0,0,1-2.94,2.94"/><path class="cls-4" d="M105.35,916h13.14a2.71,2.71,0,0,1,2.44,2.9v13.43a2.71,2.71,0,0,1-2.44,2.91H105.35a2.7,2.7,0,0,1-2.44-2.91V918.94a2.7,2.7,0,0,1,2.44-2.9"/><path class="cls-5" d="M114,914.2h-7.42c-5.44,0-9.9,5.16-9.9,11.46s4.46,11.46,9.9,11.46H114c5.44,0,9.9-5.16,9.9-11.46s-4.46-11.46-9.9-11.46m-.32,19.39c-3.79,0-6.86-3.55-6.86-7.93s3.07-7.94,6.86-7.94,6.85,3.56,6.85,7.94-3.07,7.93-6.85,7.93"/><path class="cls-6" d="M110.57,941.47h-9.79a4.13,4.13,0,0,1-4.11-4.12V913.89a4.12,4.12,0,0,1,4.11-4.11h9.79a4.12,4.12,0,0,1,4.11,4.11v23.46a4.13,4.13,0,0,1-4.11,4.12"/><path class="cls-3" d="M122.79,898.81H101.71a2.94,2.94,0,0,1-2.94-2.95V876.93a2.94,2.94,0,0,1,2.94-2.94h21.08a2.94,2.94,0,0,1,2.94,2.94v18.93a3,3,0,0,1-2.94,2.95"/><path class="cls-4" d="M105.35,876.62h13.14a2.71,2.71,0,0,1,2.44,2.9V893a2.71,2.71,0,0,1-2.44,2.91H105.35a2.7,2.7,0,0,1-2.44-2.91V879.52a2.7,2.7,0,0,1,2.44-2.9"/><path class="cls-5" d="M114,874.78h-7.42c-5.44,0-9.9,5.16-9.9,11.46s4.46,11.46,9.9,11.46H114c5.44,0,9.9-5.16,9.9-11.46s-4.46-11.46-9.9-11.46m-.32,19.4c-3.79,0-6.86-3.56-6.86-7.94s3.07-7.93,6.86-7.93,6.85,3.55,6.85,7.93-3.07,7.94-6.85,7.94"/><path class="cls-6" d="M110.57,902.05h-9.79a4.12,4.12,0,0,1-4.11-4.11V874.47a4.12,4.12,0,0,1,4.11-4.11h9.79a4.12,4.12,0,0,1,4.11,4.11v23.47a4.12,4.12,0,0,1-4.11,4.11"/><path class="cls-3" d="M122.79,857.22H101.71a2.94,2.94,0,0,1-2.94-3V835.35a2.94,2.94,0,0,1,2.94-3h21.08a3,3,0,0,1,2.94,3v18.92a3,3,0,0,1-2.94,3"/><path class="cls-4" d="M105.35,835h13.14a2.71,2.71,0,0,1,2.44,2.9v13.44a2.71,2.71,0,0,1-2.44,2.9H105.35a2.7,2.7,0,0,1-2.44-2.9V837.93a2.7,2.7,0,0,1,2.44-2.9"/><path class="cls-5" d="M114,833.2h-7.42c-5.44,0-9.9,5.15-9.9,11.45s4.46,11.46,9.9,11.46H114c5.44,0,9.9-5.15,9.9-11.46s-4.46-11.45-9.9-11.45m-.32,19.39c-3.79,0-6.86-3.56-6.86-7.94s3.07-7.93,6.86-7.93,6.85,3.55,6.85,7.93-3.07,7.94-6.85,7.94"/><path class="cls-6" d="M110.57,860.46h-9.79a4.12,4.12,0,0,1-4.11-4.11V832.89a4.13,4.13,0,0,1,4.11-4.12h9.79a4.13,4.13,0,0,1,4.11,4.12v23.46a4.12,4.12,0,0,1-4.11,4.11"/><path class="cls-3" d="M122.79,818.31H101.71a3,3,0,0,1-2.95-2.94V796.44a2.94,2.94,0,0,1,2.95-2.94h21.08a2.94,2.94,0,0,1,2.94,2.94v18.93a2.94,2.94,0,0,1-2.94,2.94"/><path class="cls-4" d="M105.35,796.13h13.13a2.7,2.7,0,0,1,2.45,2.9v13.43a2.71,2.71,0,0,1-2.45,2.91H105.35a2.7,2.7,0,0,1-2.44-2.91V799a2.69,2.69,0,0,1,2.44-2.9"/><path class="cls-5" d="M114,794.29h-7.41c-5.44,0-9.9,5.15-9.9,11.46s4.46,11.46,9.9,11.46H114c5.45,0,9.91-5.16,9.91-11.46s-4.46-11.46-9.91-11.46m-.31,19.39c-3.79,0-6.86-3.55-6.86-7.93s3.07-7.94,6.86-7.94,6.85,3.56,6.85,7.94-3.07,7.93-6.85,7.93"/><path class="cls-6" d="M110.57,821.55h-9.79a4.12,4.12,0,0,1-4.11-4.11V794a4.12,4.12,0,0,1,4.11-4.11h9.79a4.12,4.12,0,0,1,4.11,4.11v23.46a4.12,4.12,0,0,1-4.11,4.11"/><path class="cls-3" d="M122.79,775.82H101.71a3,3,0,0,1-2.95-2.94V754a3,3,0,0,1,2.95-3h21.08a3,3,0,0,1,2.94,3v18.93a2.94,2.94,0,0,1-2.94,2.94"/><path class="cls-4" d="M105.35,753.63h13.13a2.71,2.71,0,0,1,2.45,2.91V770a2.72,2.72,0,0,1-2.45,2.91H105.35a2.71,2.71,0,0,1-2.44-2.91V756.54a2.7,2.7,0,0,1,2.44-2.91"/><path class="cls-5" d="M114,751.8h-7.41c-5.44,0-9.9,5.15-9.9,11.45s4.46,11.46,9.9,11.46H114c5.45,0,9.91-5.15,9.91-11.46S119.42,751.8,114,751.8m-.31,19.39c-3.79,0-6.86-3.55-6.86-7.94s3.07-7.93,6.86-7.93,6.85,3.55,6.85,7.93-3.07,7.94-6.85,7.94"/><path class="cls-6" d="M110.57,779.06h-9.79A4.12,4.12,0,0,1,96.67,775V751.49a4.13,4.13,0,0,1,4.11-4.12h9.79a4.13,4.13,0,0,1,4.11,4.12V775a4.12,4.12,0,0,1-4.11,4.11"/><path class="cls-3" d="M122.79,735.32H101.71a3,3,0,0,1-2.95-2.94V713.45a3,3,0,0,1,2.95-3h21.08a3,3,0,0,1,2.94,3v18.93a2.94,2.94,0,0,1-2.94,2.94"/><path class="cls-4" d="M105.35,713.13h13.13a2.71,2.71,0,0,1,2.45,2.91v13.43a2.71,2.71,0,0,1-2.45,2.9H105.35a2.7,2.7,0,0,1-2.44-2.9V716a2.7,2.7,0,0,1,2.44-2.91"/><path class="cls-5" d="M114,711.3h-7.41c-5.44,0-9.9,5.15-9.9,11.45s4.46,11.46,9.9,11.46H114c5.45,0,9.91-5.16,9.91-11.46S119.42,711.3,114,711.3m-.31,19.39c-3.79,0-6.86-3.56-6.86-7.94s3.07-7.93,6.86-7.93,6.85,3.55,6.85,7.93-3.07,7.94-6.85,7.94"/><path class="cls-6" d="M110.57,738.56h-9.79a4.12,4.12,0,0,1-4.11-4.11V711a4.13,4.13,0,0,1,4.11-4.12h9.79a4.13,4.13,0,0,1,4.11,4.12v23.46a4.12,4.12,0,0,1-4.11,4.11"/><path class="cls-3" d="M122.79,694.82H101.71a3,3,0,0,1-2.95-3V672.94a3,3,0,0,1,2.95-2.94h21.08a2.94,2.94,0,0,1,2.94,2.94v18.93a3,3,0,0,1-2.94,3"/><path class="cls-4" d="M105.35,672.63h13.13a2.71,2.71,0,0,1,2.45,2.9V689a2.71,2.71,0,0,1-2.45,2.91H105.35a2.7,2.7,0,0,1-2.44-2.91V675.53a2.7,2.7,0,0,1,2.44-2.9"/><path class="cls-5" d="M114,670.79h-7.41c-5.44,0-9.9,5.16-9.9,11.46s4.46,11.46,9.9,11.46H114c5.45,0,9.91-5.16,9.91-11.46s-4.46-11.46-9.91-11.46m-.31,19.39c-3.79,0-6.86-3.55-6.86-7.93s3.07-7.93,6.86-7.93,6.85,3.55,6.85,7.93-3.07,7.93-6.85,7.93"/><path class="cls-6" d="M110.57,698.06h-9.79A4.12,4.12,0,0,1,96.67,694V670.48a4.12,4.12,0,0,1,4.11-4.11h9.79a4.12,4.12,0,0,1,4.11,4.11V694a4.12,4.12,0,0,1-4.11,4.11"/><path class="cls-3" d="M122.79,653.45H101.71a3,3,0,0,1-2.95-3V631.57a3,3,0,0,1,2.95-2.94h21.08a2.94,2.94,0,0,1,2.94,2.94V650.5a3,3,0,0,1-2.94,3"/><path class="cls-4" d="M105.35,631.26h13.13a2.71,2.71,0,0,1,2.45,2.9v13.43a2.71,2.71,0,0,1-2.45,2.91H105.35a2.7,2.7,0,0,1-2.44-2.91V634.16a2.7,2.7,0,0,1,2.44-2.9"/><path class="cls-5" d="M114,629.42h-7.41c-5.44,0-9.9,5.16-9.9,11.46s4.46,11.46,9.9,11.46H114c5.45,0,9.91-5.16,9.91-11.46s-4.46-11.46-9.91-11.46m-.31,19.39c-3.79,0-6.86-3.55-6.86-7.93s3.07-7.94,6.86-7.94,6.85,3.56,6.85,7.94-3.07,7.93-6.85,7.93"/><path class="cls-6" d="M110.57,656.69h-9.79a4.12,4.12,0,0,1-4.11-4.12V629.11a4.12,4.12,0,0,1,4.11-4.11h9.79a4.12,4.12,0,0,1,4.11,4.11v23.46a4.12,4.12,0,0,1-4.11,4.12"/><path class="cls-3" d="M122.79,614H101.71a3,3,0,0,1-2.95-2.95V592.15a3,3,0,0,1,2.95-2.94h21.08a2.94,2.94,0,0,1,2.94,2.94v18.93a3,3,0,0,1-2.94,2.95"/><path class="cls-4" d="M105.35,591.84h13.13a2.71,2.71,0,0,1,2.45,2.9v13.44a2.71,2.71,0,0,1-2.45,2.9H105.35a2.7,2.7,0,0,1-2.44-2.9V594.74a2.7,2.7,0,0,1,2.44-2.9"/><path class="cls-5" d="M114,590h-7.41c-5.44,0-9.9,5.16-9.9,11.46s4.46,11.46,9.9,11.46H114c5.45,0,9.91-5.16,9.91-11.46S119.42,590,114,590m-.31,19.39c-3.79,0-6.86-3.55-6.86-7.93s3.07-7.93,6.86-7.93,6.85,3.55,6.85,7.93-3.07,7.93-6.85,7.93"/><path class="cls-6" d="M110.57,617.27h-9.79a4.12,4.12,0,0,1-4.11-4.11V589.7a4.12,4.12,0,0,1,4.11-4.12h9.79a4.12,4.12,0,0,1,4.11,4.12v23.46a4.12,4.12,0,0,1-4.11,4.11"/><path class="cls-3" d="M122.79,573.16H101.71a2.94,2.94,0,0,1-2.95-2.94V551.29a2.94,2.94,0,0,1,2.95-2.94h21.08a2.94,2.94,0,0,1,2.94,2.94v18.93a2.94,2.94,0,0,1-2.94,2.94"/><path class="cls-4" d="M105.35,551h13.13a2.71,2.71,0,0,1,2.45,2.9v13.43a2.72,2.72,0,0,1-2.45,2.91H105.35a2.71,2.71,0,0,1-2.44-2.91V553.88a2.7,2.7,0,0,1,2.44-2.9"/><path class="cls-5" d="M114,549.14h-7.41c-5.44,0-9.9,5.16-9.9,11.46s4.46,11.46,9.9,11.46H114c5.45,0,9.91-5.16,9.91-11.46s-4.46-11.46-9.91-11.46m-.31,19.39c-3.79,0-6.86-3.55-6.86-7.93s3.07-7.94,6.86-7.94,6.85,3.56,6.85,7.94-3.07,7.93-6.85,7.93"/><path class="cls-6" d="M110.57,576.41h-9.79a4.12,4.12,0,0,1-4.11-4.12V548.83a4.12,4.12,0,0,1,4.11-4.11h9.79a4.12,4.12,0,0,1,4.11,4.11v23.46a4.12,4.12,0,0,1-4.11,4.12"/><path class="cls-3" d="M122.79,532.3H101.71a3,3,0,0,1-2.95-2.94V510.43a3,3,0,0,1,2.95-2.95h21.08a3,3,0,0,1,2.94,2.95v18.93a2.94,2.94,0,0,1-2.94,2.94"/><path class="cls-4" d="M105.35,510.11h13.13a2.71,2.71,0,0,1,2.45,2.91v13.43a2.71,2.71,0,0,1-2.45,2.9H105.35a2.7,2.7,0,0,1-2.44-2.9V513a2.7,2.7,0,0,1,2.44-2.91"/><path class="cls-5" d="M114,508.28h-7.41c-5.44,0-9.9,5.15-9.9,11.45s4.46,11.46,9.9,11.46H114c5.45,0,9.91-5.15,9.91-11.46s-4.46-11.45-9.91-11.45m-.31,19.39c-3.79,0-6.86-3.55-6.86-7.94s3.07-7.93,6.86-7.93,6.85,3.55,6.85,7.93-3.07,7.94-6.85,7.94"/><path class="cls-6" d="M110.57,535.54h-9.79a4.12,4.12,0,0,1-4.11-4.11V508a4.13,4.13,0,0,1,4.11-4.12h9.79a4.13,4.13,0,0,1,4.11,4.12v23.46a4.12,4.12,0,0,1-4.11,4.11"/><path class="cls-3" d="M122.79,491.43H101.71a2.94,2.94,0,0,1-2.95-2.94V469.56a2.94,2.94,0,0,1,2.95-2.94h21.08a2.94,2.94,0,0,1,2.94,2.94v18.93a2.94,2.94,0,0,1-2.94,2.94"/><path class="cls-4" d="M105.35,469.25h13.13a2.71,2.71,0,0,1,2.45,2.9v13.44a2.71,2.71,0,0,1-2.45,2.9H105.35a2.7,2.7,0,0,1-2.44-2.9V472.15a2.7,2.7,0,0,1,2.44-2.9"/><path class="cls-5" d="M114,467.41h-7.41c-5.44,0-9.9,5.16-9.9,11.46s4.46,11.46,9.9,11.46H114c5.45,0,9.91-5.16,9.91-11.46s-4.46-11.46-9.91-11.46m-.31,19.39c-3.79,0-6.86-3.55-6.86-7.93s3.07-7.93,6.86-7.93,6.85,3.55,6.85,7.93-3.07,7.93-6.85,7.93"/><path class="cls-6" d="M110.57,494.68h-9.79a4.12,4.12,0,0,1-4.11-4.11V467.1a4.12,4.12,0,0,1,4.11-4.11h9.79a4.12,4.12,0,0,1,4.11,4.11v23.47a4.12,4.12,0,0,1-4.11,4.11"/><path class="cls-3" d="M122.79,450.57H101.71a3,3,0,0,1-2.95-2.94V428.7a2.94,2.94,0,0,1,2.95-2.94h21.08a2.94,2.94,0,0,1,2.94,2.94v18.93a2.94,2.94,0,0,1-2.94,2.94"/><path class="cls-4" d="M105.35,428.39h13.13a2.7,2.7,0,0,1,2.45,2.9v13.43a2.72,2.72,0,0,1-2.45,2.91H105.35a2.71,2.71,0,0,1-2.44-2.91V431.29a2.69,2.69,0,0,1,2.44-2.9"/><path class="cls-5" d="M114,426.55h-7.41c-5.44,0-9.9,5.15-9.9,11.46s4.46,11.45,9.9,11.45H114c5.45,0,9.91-5.15,9.91-11.45s-4.46-11.46-9.91-11.46m-.31,19.39c-3.79,0-6.86-3.55-6.86-7.93s3.07-7.94,6.86-7.94,6.85,3.55,6.85,7.94-3.07,7.93-6.85,7.93"/><path class="cls-6" d="M110.57,453.81h-9.79a4.12,4.12,0,0,1-4.11-4.11V426.24a4.12,4.12,0,0,1,4.11-4.11h9.79a4.12,4.12,0,0,1,4.11,4.11V449.7a4.12,4.12,0,0,1-4.11,4.11"/><path class="cls-3" d="M122.79,410.61H101.71a3,3,0,0,1-2.95-2.94V388.74a2.94,2.94,0,0,1,2.95-2.94h21.08a2.94,2.94,0,0,1,2.94,2.94v18.93a2.94,2.94,0,0,1-2.94,2.94"/><path class="cls-4" d="M105.35,388.43h13.13a2.7,2.7,0,0,1,2.45,2.9v13.43a2.72,2.72,0,0,1-2.45,2.91H105.35a2.71,2.71,0,0,1-2.44-2.91V391.33a2.69,2.69,0,0,1,2.44-2.9"/><path class="cls-5" d="M114,386.59h-7.41c-5.44,0-9.9,5.15-9.9,11.46s4.46,11.45,9.9,11.45H114c5.45,0,9.91-5.15,9.91-11.45s-4.46-11.46-9.91-11.46M113.66,406c-3.79,0-6.86-3.55-6.86-7.93s3.07-7.94,6.86-7.94,6.85,3.55,6.85,7.94-3.07,7.93-6.85,7.93"/><path class="cls-6" d="M110.57,413.85h-9.79a4.12,4.12,0,0,1-4.11-4.11V386.28a4.13,4.13,0,0,1,4.11-4.12h9.79a4.13,4.13,0,0,1,4.11,4.12v23.46a4.12,4.12,0,0,1-4.11,4.11"/><path class="cls-3" d="M122.79,370.65H101.71a3,3,0,0,1-2.95-2.94V348.78a2.94,2.94,0,0,1,2.95-2.94h21.08a2.94,2.94,0,0,1,2.94,2.94v18.93a2.94,2.94,0,0,1-2.94,2.94"/><path class="cls-4" d="M105.35,348.47h13.13a2.7,2.7,0,0,1,2.45,2.9V364.8a2.72,2.72,0,0,1-2.45,2.91H105.35a2.71,2.71,0,0,1-2.44-2.91V351.37a2.69,2.69,0,0,1,2.44-2.9"/><path class="cls-5" d="M114,346.63h-7.41c-5.44,0-9.9,5.15-9.9,11.46s4.46,11.45,9.9,11.45H114c5.45,0,9.91-5.15,9.91-11.45s-4.46-11.46-9.91-11.46M113.66,366c-3.79,0-6.86-3.55-6.86-7.93s3.07-7.94,6.86-7.94,6.85,3.55,6.85,7.94-3.07,7.93-6.85,7.93"/><path class="cls-6" d="M110.57,373.89h-9.79a4.12,4.12,0,0,1-4.11-4.11V346.32a4.12,4.12,0,0,1,4.11-4.11h9.79a4.12,4.12,0,0,1,4.11,4.11v23.46a4.12,4.12,0,0,1-4.11,4.11"/><path class="cls-3" d="M122.79,330.69H101.71a3,3,0,0,1-2.95-2.94V308.82a2.94,2.94,0,0,1,2.95-2.94h21.08a2.94,2.94,0,0,1,2.94,2.94v18.93a2.94,2.94,0,0,1-2.94,2.94"/><path class="cls-4" d="M105.35,308.51h13.13a2.7,2.7,0,0,1,2.45,2.9v13.43a2.72,2.72,0,0,1-2.45,2.91H105.35a2.71,2.71,0,0,1-2.44-2.91V311.41a2.69,2.69,0,0,1,2.44-2.9"/><path class="cls-5" d="M114,306.67h-7.41c-5.44,0-9.9,5.15-9.9,11.46s4.46,11.45,9.9,11.45H114c5.45,0,9.91-5.15,9.91-11.45s-4.46-11.46-9.91-11.46m-.31,19.39c-3.79,0-6.86-3.55-6.86-7.93s3.07-7.94,6.86-7.94,6.85,3.55,6.85,7.94-3.07,7.93-6.85,7.93"/><path class="cls-6" d="M110.57,333.93h-9.79a4.12,4.12,0,0,1-4.11-4.11V306.36a4.13,4.13,0,0,1,4.11-4.12h9.79a4.13,4.13,0,0,1,4.11,4.12v23.46a4.12,4.12,0,0,1-4.11,4.11"/><path class="cls-3" d="M122.79,249.69H101.71a3,3,0,0,1-2.95-2.95V227.81a3,3,0,0,1,2.95-2.94h21.08a2.94,2.94,0,0,1,2.94,2.94v18.93a3,3,0,0,1-2.94,2.95"/><path class="cls-4" d="M105.35,227.5h13.13a2.71,2.71,0,0,1,2.45,2.91v13.43a2.71,2.71,0,0,1-2.45,2.9H105.35a2.7,2.7,0,0,1-2.44-2.9V230.41a2.7,2.7,0,0,1,2.44-2.91"/><path class="cls-5" d="M114,225.66h-7.41c-5.44,0-9.9,5.16-9.9,11.46s4.46,11.46,9.9,11.46H114c5.45,0,9.91-5.16,9.91-11.46s-4.46-11.46-9.91-11.46m-.31,19.4c-3.79,0-6.86-3.56-6.86-7.94s3.07-7.93,6.86-7.93,6.85,3.55,6.85,7.93-3.07,7.94-6.85,7.94"/><path class="cls-6" d="M110.57,252.93h-9.79a4.12,4.12,0,0,1-4.11-4.11V225.36a4.12,4.12,0,0,1,4.11-4.12h9.79a4.12,4.12,0,0,1,4.11,4.12v23.46a4.12,4.12,0,0,1-4.11,4.11"/><path class="cls-6" d="M122.81,292.85H98.12a2.91,2.91,0,0,1-2.92-2.91v-24.7a2.92,2.92,0,0,1,2.92-2.92h24.69a2.92,2.92,0,0,1,2.92,2.92v24.7a2.91,2.91,0,0,1-2.92,2.91"/><path class="cls-6" d="M699.82,492.81h-24.7a2.91,2.91,0,0,1-2.91-2.92v-24.7a2.91,2.91,0,0,1,2.91-2.91h24.7a2.91,2.91,0,0,1,2.92,2.91v24.7a2.92,2.92,0,0,1-2.92,2.92"/><path class="cls-6" d="M699.82,940.54h-24.7a2.91,2.91,0,0,1-2.91-2.92V912.93a2.91,2.91,0,0,1,2.91-2.92h24.7a2.92,2.92,0,0,1,2.92,2.92v24.69a2.92,2.92,0,0,1-2.92,2.92"/><path class="cls-6" d="M699.82,979.88h-24.7a2.91,2.91,0,0,1-2.91-2.92V952.27a2.91,2.91,0,0,1,2.91-2.92h24.7a2.92,2.92,0,0,1,2.92,2.92V977a2.92,2.92,0,0,1-2.92,2.92"/><rect class="cls-1" width="802.27" height="1137.5"/><g class="cls-7"><path class="cls-5" d="M725.79,514.29h46.49V466.35H725.79ZM749,508.11a17.8,17.8,0,0,1,0-35.58c9.52,0,17.25,8,17.25,17.79A17.53,17.53,0,0,1,749,508.11"/></g><g class="cls-8"><path class="cls-5" d="M749,383.36a23.58,23.58,0,1,0,23.58,23.58A23.58,23.58,0,0,0,749,383.36m0,40.84a17.26,17.26,0,1,1,17.26-17.26A17.26,17.26,0,0,1,749,424.2"/></g><g class="cls-9"><path class="cls-5" d="M749,304.29a23.37,23.37,0,1,0,23.37,23.37A23.37,23.37,0,0,0,749,304.29m0,40.48a17.11,17.11,0,1,1,17.1-17.11A17.11,17.11,0,0,1,749,344.77"/></g><g class="cls-10"><path class="cls-5" d="M749,223.68a23.65,23.65,0,1,0,23.64,23.64A23.64,23.64,0,0,0,749,223.68m0,40.95a17.31,17.31,0,1,1,17.31-17.31A17.31,17.31,0,0,1,749,264.63"/></g><g class="cls-11"><path class="cls-5" d="M725.9,838.8h45.93V791.44H725.9Zm23-6.11a17.58,17.58,0,1,1,17-17.57,17.31,17.31,0,0,1-17,17.57"/></g><g class="cls-12"><path class="cls-5" d="M748.86,708.49a23.75,23.75,0,1,0,23.75,23.74,23.74,23.74,0,0,0-23.75-23.74m0,41.13a17.38,17.38,0,1,1,17.38-17.39,17.38,17.38,0,0,1-17.38,17.39"/></g><g class="cls-13"><path class="cls-5" d="M748.72,629.09a23.47,23.47,0,1,0,23.46,23.46,23.46,23.46,0,0,0-23.46-23.46m0,40.64a17.18,17.18,0,1,1,17.18-17.18,17.18,17.18,0,0,1-17.18,17.18"/></g><g class="cls-14"><path class="cls-5" d="M749,548.44a23.63,23.63,0,1,0,23.63,23.63A23.64,23.64,0,0,0,749,548.44m0,40.93a17.3,17.3,0,1,1,17.3-17.3,17.29,17.29,0,0,1-17.3,17.3"/></g><g class="cls-15"><path class="cls-5" d="M22.23,608.55H68.16V561.19H22.23Zm23-6.11a17.58,17.58,0,0,1,0-35.15,17.58,17.58,0,0,1,0,35.15"/></g><g class="cls-16"><path class="cls-5" d="M45.59,478.24A23.56,23.56,0,1,0,69.15,501.8a23.56,23.56,0,0,0-23.56-23.56m0,40.8A17.25,17.25,0,1,1,62.83,501.8,17.24,17.24,0,0,1,45.59,519"/></g><g class="cls-17"><path class="cls-5" d="M45.47,398.84A23.47,23.47,0,1,0,68.93,422.3a23.46,23.46,0,0,0-23.46-23.46m0,40.64A17.18,17.18,0,1,1,62.65,422.3a17.18,17.18,0,0,1-17.18,17.18"/></g><g class="cls-18"><path class="cls-5" d="M45.52,318.19a23.63,23.63,0,1,0,23.63,23.63,23.64,23.64,0,0,0-23.63-23.63m0,40.93a17.3,17.3,0,1,1,17.3-17.3,17.29,17.29,0,0,1-17.3,17.3"/></g><g class="cls-19"><path class="cls-5" d="M187.5,1037.69a42.95,42.95,0,1,0,42.95,43,42.95,42.95,0,0,0-42.95-43m0,69.06a26.12,26.12,0,1,1,26.12-26.11,26.11,26.11,0,0,1-26.12,26.11"/></g><g class="cls-20"><path class="cls-21" d="M112,1116.37a16.3,16.3,0,1,1,16.3,16.31,16.3,16.3,0,0,1-16.3-16.31"/></g><g class="cls-22"><path class="cls-21" d="M598.15,187a6.59,6.59,0,1,1,6.59,6.6,6.59,6.59,0,0,1-6.59-6.6"/></g><g class="cls-23"><path class="cls-21" d="M526.82,187a6.59,6.59,0,1,1,6.59,6.6,6.59,6.59,0,0,1-6.59-6.6"/></g><g class="cls-24"><rect class="cls-25" x="41.77" y="999.72" width="17.09" height="17.09"/></g><g class="cls-26"><path class="cls-6" d="M42.79,1028.11h15a2.79,2.79,0,0,1,2.79,2.79v12.9a2.79,2.79,0,0,1-2.79,2.79h-15A2.79,2.79,0,0,1,40,1043.8v-12.9a2.79,2.79,0,0,1,2.79-2.79"/></g><g class="cls-27"><path class="cls-6" d="M42.79,1056.86h15a2.79,2.79,0,0,1,2.79,2.79v12.89a2.78,2.78,0,0,1-2.79,2.79h-15a2.78,2.78,0,0,1-2.79-2.79v-12.89a2.79,2.79,0,0,1,2.79-2.79"/></g><g class="cls-28"><path class="cls-6" d="M83.61,1046.58h15a2.79,2.79,0,0,1,2.79,2.79v12.9a2.79,2.79,0,0,1-2.79,2.79h-15a2.79,2.79,0,0,1-2.79-2.79v-12.9a2.79,2.79,0,0,1,2.79-2.79"/></g><g class="cls-29"><path class="cls-6" d="M83.61,1074.66h15a2.78,2.78,0,0,1,2.79,2.78v12.9a2.79,2.79,0,0,1-2.79,2.79h-15a2.79,2.79,0,0,1-2.79-2.79v-12.9a2.78,2.78,0,0,1,2.79-2.78"/></g><g class="cls-30"><rect class="cls-25" x="41.77" y="1083.89" width="17.09" height="17.09"/></g><g class="cls-31"><path class="cls-32" d="M251.31,1084.49v-56.15c0-4.47,3.33-8,7.3-8h16.84c4.08,0,7.3,3.64,7.3,8v56.15c0,4.47-3.33,8-7.3,8H258.61c-4.08.12-7.3-3.53-7.3-8"/><rect class="cls-33" x="251.29" y="1039.94" width="31.55" height="33.07"/></g><g class="cls-34"><path class="cls-32" d="M292.57,1118.08v-36.31a5,5,0,0,1,4.85-5.18h11.2a5,5,0,0,1,4.86,5.18v36.31a5,5,0,0,1-4.86,5.18h-11.2a4.94,4.94,0,0,1-4.85-5.18"/><rect class="cls-33" x="292.56" y="1089.27" width="20.98" height="21.39"/></g><g class="cls-35"><path class="cls-32" d="M585.85,1105.62V1069.3a5,5,0,0,1,4.85-5.17h11.2a5,5,0,0,1,4.86,5.17v36.32a5,5,0,0,1-4.86,5.17H590.7a4.93,4.93,0,0,1-4.85-5.17"/><rect class="cls-33" x="585.84" y="1076.8" width="20.98" height="21.39"/></g><g class="cls-36"><path class="cls-6" d="M297.11,1025.76H308c1.12,0,2,2.4,2,5.36v24.8c0,3-.91,5.37-2,5.37H297.11c-1.12,0-2-2.41-2-5.37v-24.8c0-3,.9-5.36,2-5.36"/></g><g class="cls-37"><path class="cls-6" d="M325,1060.07h4.61c.47,0,.86.55.86,1.22V1067c0,.68-.39,1.23-.86,1.23H325c-.48,0-.86-.55-.86-1.23v-5.67c0-.67.38-1.22.86-1.22"/></g><g class="cls-38"><path class="cls-6" d="M325,1076.59h4.61c.47,0,.86.55.86,1.23v5.67c0,.67-.39,1.22-.86,1.22H325c-.48,0-.86-.55-.86-1.22v-5.67c0-.68.38-1.23.86-1.23"/></g><g class="cls-39"><path class="cls-6" d="M325,1093.12h4.61c.47,0,.86.55.86,1.22V1100c0,.68-.39,1.23-.86,1.23H325c-.48,0-.86-.55-.86-1.23v-5.67c0-.67.38-1.22.86-1.22"/></g><g class="cls-40"><path class="cls-6" d="M325,1107.76h4.61c.47,0,.86.55.86,1.23v5.67c0,.68-.39,1.23-.86,1.23H325c-.48,0-.86-.55-.86-1.23V1109c0-.68.38-1.23.86-1.23"/></g><g class="cls-41"><path class="cls-6" d="M381,1060.07h4.61c.48,0,.86.55.86,1.22V1067c0,.68-.38,1.23-.86,1.23H381c-.47,0-.86-.55-.86-1.23v-5.67c0-.67.39-1.22.86-1.22"/></g><g class="cls-42"><path class="cls-6" d="M381,1076.59h4.61c.48,0,.86.55.86,1.23v5.67c0,.67-.38,1.22-.86,1.22H381c-.47,0-.86-.55-.86-1.22v-5.67c0-.68.39-1.23.86-1.23"/></g><g class="cls-43"><path class="cls-6" d="M381,1093.12h4.61c.48,0,.86.55.86,1.22V1100c0,.68-.38,1.23-.86,1.23H381c-.47,0-.86-.55-.86-1.23v-5.67c0-.67.39-1.22.86-1.22"/></g><g class="cls-44"><path class="cls-6" d="M381,1107.76h4.61c.48,0,.86.55.86,1.23v5.67c0,.68-.38,1.23-.86,1.23H381c-.47,0-.86-.55-.86-1.23V1109c0-.68.39-1.23.86-1.23"/></g><g class="cls-45"><path class="cls-32" d="M329.27,1017.35h33.58c4.12,0,7.37,2,7.37,4.46v8.34c0,2.5-3.36,4.47-7.37,4.47H329.27c-4.11,0-7.36-2-7.36-4.47v-8.34c-.11-2.42,3.25-4.46,7.36-4.46"/><rect class="cls-46" x="334.92" y="1017.37" width="22.2" height="17.33"/></g><g class="cls-47"><path class="cls-32" d="M501.77,1059.51h33.58c4.11,0,7.36,2,7.36,4.46v8.34c0,2.5-3.36,4.47-7.36,4.47H501.77c-4.11,0-7.36-2-7.36-4.47V1064c-.11-2.43,3.25-4.46,7.36-4.46"/><rect class="cls-46" x="507.41" y="1059.53" width="22.2" height="17.33"/></g><g class="cls-48"><path class="cls-32" d="M495.66,1089h57.49c7.05,0,12.61,3.37,12.61,7.4v13.81c0,4.13-5.75,7.39-12.61,7.39H495.66c-7.05,0-12.61-3.37-12.61-7.39v-13.81c-.19-4,5.56-7.4,12.61-7.4"/><rect class="cls-46" x="505.32" y="1088.99" width="38.02" height="28.71"/></g><g class="cls-49"><path class="cls-21" d="M16.94,648.81a16.94,16.94,0,1,1,16.93,16.93,16.93,16.93,0,0,1-16.93-16.93"/></g><g class="cls-50"><path class="cls-21" d="M741.5,997.29a16.94,16.94,0,1,1,16.93,16.93,16.93,16.93,0,0,1-16.93-16.93"/></g><g class="cls-24"><rect class="cls-25" x="397.97" y="1016.54" width="18.81" height="4.88"/><rect class="cls-25" x="397.97" y="1041.08" width="18.81" height="4.88"/></g><g class="cls-51"><path class="cls-6" d="M556.55,247h23.32a4.34,4.34,0,0,1,4.34,4.34v20.07a4.34,4.34,0,0,1-4.34,4.34H556.55a4.35,4.35,0,0,1-4.35-4.34V251.29a4.34,4.34,0,0,1,4.35-4.34"/></g><g class="cls-52"><path class="cls-6" d="M593.59,291.84H644c5.17,0,9.37,2.08,9.37,4.64V318c0,2.57-4.2,4.65-9.37,4.65H593.59c-5.18,0-9.38-2.08-9.38-4.65V296.48c0-2.56,4.2-4.64,9.38-4.64"/></g><g class="cls-53"><path class="cls-6" d="M593.59,201.07H644c5.17,0,9.37,2.08,9.37,4.65v21.5c0,2.57-4.2,4.65-9.37,4.65H593.59c-5.18,0-9.38-2.08-9.38-4.65v-21.5c0-2.57,4.2-4.65,9.38-4.65"/></g><g class="cls-54"><path class="cls-6" d="M535.76,243.93l7,7a1.84,1.84,0,0,1,0,2.59l-6,6a1.84,1.84,0,0,1-2.59,0l-7-7a1.84,1.84,0,0,1,0-2.59l6-6a1.82,1.82,0,0,1,2.59,0"/></g><g class="cls-55"><path class="cls-6" d="M519.75,227.92l7,7a1.84,1.84,0,0,1,0,2.59l-6,6a1.82,1.82,0,0,1-2.59,0l-7-7a1.82,1.82,0,0,1,0-2.59l6-6a1.84,1.84,0,0,1,2.59,0"/></g><g class="cls-56"><path class="cls-6" d="M534.35,213.32l7,7a1.84,1.84,0,0,1,0,2.59l-6,6a1.82,1.82,0,0,1-2.59,0l-7-7a1.82,1.82,0,0,1,0-2.59l6-6a1.84,1.84,0,0,1,2.59,0"/></g><g class="cls-24"><polygon class="cls-57" points="146.1 216.47 146.1 991.58 649.84 991.58 649.84 330.69 479.52 330.69 479.52 216.47 146.1 216.47"/><polygon class="cls-58" points="149.26 221.9 149.26 984.12 642.79 984.12 642.79 334.23 475.92 334.23 475.92 221.9 149.26 221.9"/><path class="cls-59" d="M236.91,1080.6a50.45,50.45,0,1,1-50.45-50.44A50.45,50.45,0,0,1,236.91,1080.6Z"/><path class="cls-59" d="M88,685.22a48.72,48.72,0,1,0,0,75"/><polyline class="cls-59" points="4.34 836.72 27.12 836.72 27.12 925.62 53.88 963.02 29.11 1003.15 29.11 1092.49 6.51 1092.49"/><rect class="cls-59" x="33.27" y="992.67" width="32.91" height="57.68" rx="2.89"/><rect class="cls-59" x="37.34" y="204.64" width="40.77" height="96.93" rx="2.89"/><rect class="cls-59" x="246.99" y="1008.51" width="40.5" height="91.42" rx="2.89"/><rect class="cls-59" x="286.77" y="1008.51" width="30.02" height="61.01" rx="2.89"/><rect class="cls-59" x="488.05" y="1051.93" width="61.01" height="30.02" rx="2.89"/><rect class="cls-59" x="581.32" y="1055.19" width="30.02" height="61.01" rx="2.89"/><rect class="cls-59" x="477.48" y="1081.95" width="90.19" height="41.32" rx="2.89"/><path class="cls-59" d="M379,1012.73V1037a2.9,2.9,0,0,1-2.89,2.89H318v-30h58.12A2.89,2.89,0,0,1,379,1012.73Z"/><path class="cls-59" d="M286.77,1068.19h30v58.12a2.9,2.9,0,0,1-2.89,2.89H289.66a2.9,2.9,0,0,1-2.89-2.89Z"/><path class="cls-59" d="M33.27,1050.35H66.18v54.79a2.9,2.9,0,0,1-2.89,2.89H36.16a2.9,2.9,0,0,1-2.89-2.89Z"/><polyline class="cls-59" points="392.59 1055.18 392.59 1004.6 110.27 1004.6 110.27 991.04"/><line class="cls-59" x1="316.79" y1="1051.93" x2="381.88" y2="1051.93"/><polyline class="cls-59" points="422.02 1003.79 688.72 1003.79 688.72 987.24"/><rect class="cls-59" x="712.23" y="773.17" width="75.4" height="81.27"/><rect class="cls-59" x="712.23" y="530.32" width="75.4" height="322.43"/><rect class="cls-59" x="7.82" y="544.43" width="75.4" height="81.27"/><rect class="cls-59" x="7.82" y="301.58" width="75.4" height="322.43"/><rect class="cls-59" x="712.27" y="448.88" width="75.4" height="81.27"/><rect class="cls-59" x="712.27" y="207.71" width="75.4" height="322.43"/><polyline class="cls-59" points="544.01 265.95 534.61 275.36 496.86 237.61 535.3 199.16 558.26 222.11 543.56 236.81"/><line class="cls-59" x1="649.84" y1="239.22" x2="649.84" y2="280.17"/><line class="cls-59" x1="686.06" y1="202.06" x2="686.06" y2="214.27"/><line class="cls-59" x1="109.03" y1="204.23" x2="109.03" y2="216.47"/><line class="cls-59" x1="655.54" y1="1049.63" x2="655.54" y2="1109.02"/><line class="cls-59" x1="618.11" y1="1049.63" x2="618.11" y2="1107.67"/><path class="cls-60" d="M403.81,1069.51h52.87a2.9,2.9,0,0,1,2.89,2.89v47.48a2.9,2.9,0,0,1-2.89,2.89H403.81a2.9,2.9,0,0,1-2.89-2.89V1072.4a2.9,2.9,0,0,1,2.89-2.89"/><path class="cls-61" d="M403.81,1071h52.87a2.9,2.9,0,0,1,2.89,2.88v44.46a2.9,2.9,0,0,1-2.89,2.89H403.81a2.9,2.9,0,0,1-2.89-2.89v-44.46a2.9,2.9,0,0,1,2.89-2.88"/><path class="cls-62" d="M403.6,1114.62h5.58a2.61,2.61,0,0,1,2.59,2.63v2.89a2.6,2.6,0,0,0,2.58,2.63h30.41a2.6,2.6,0,0,0,2.58-2.63v-2.89a2.61,2.61,0,0,1,2.59-2.63h7.21a2.61,2.61,0,0,0,2.58-2.63v-40a2.61,2.61,0,0,0-2.58-2.63h-9.28a2.6,2.6,0,0,1-2.58-2.62,2.6,2.6,0,0,0-2.58-2.63H414.61a2.61,2.61,0,0,0-2.59,2.63,2.6,2.6,0,0,1-2.58,2.62H403.6A2.61,2.61,0,0,0,401,1072v40a2.61,2.61,0,0,0,2.58,2.63"/><rect class="cls-63" x="397.97" y="1066.94" width="64.91" height="58.81"/><path class="cls-64" d="M403.6,1113.66h5.58a2.6,2.6,0,0,1,2.59,2.62v2.9a2.6,2.6,0,0,0,2.58,2.63h30.41a2.6,2.6,0,0,0,2.58-2.63v-2.9a2.6,2.6,0,0,1,2.59-2.62h7.21a2.61,2.61,0,0,0,2.58-2.63v-40a2.61,2.61,0,0,0-2.58-2.63h-9.28a2.6,2.6,0,0,1-2.58-2.63,2.6,2.6,0,0,0-2.58-2.62H414.61a2.6,2.6,0,0,0-2.59,2.62,2.6,2.6,0,0,1-2.58,2.63H403.6a2.61,2.61,0,0,0-2.58,2.63v40a2.61,2.61,0,0,0,2.58,2.63"/></g><g class="cls-65"><path class="cls-32" d="M71.67,224.38v53.53c0,6.57-3.27,11.75-7.17,11.75H51.1c-4,0-7.18-5.36-7.18-11.75V224.38c0-6.57,3.28-11.75,7.18-11.75H64.5c3.9-.17,7.17,5.18,7.17,11.75"/><rect class="cls-46" x="43.78" y="233.37" width="27.85" height="35.4"/></g><g class="cls-24"><path class="cls-6" d="M646.69,1116.19H627a2.9,2.9,0,0,1-2.89-2.88v-66.9a2.9,2.9,0,0,1,2.89-2.89h19.72a2.89,2.89,0,0,1,2.88,2.89v66.9a2.89,2.89,0,0,1-2.88,2.88"/><rect class="cls-66" x="624.08" y="1062.1" width="25.49" height="37.97"/><path class="cls-6" d="M67.59,292.85H47.86A2.89,2.89,0,0,1,45,290V215.52a2.9,2.9,0,0,1,2.88-2.89H67.59a2.9,2.9,0,0,1,2.88,2.89V290a2.89,2.89,0,0,1-2.88,2.88"/><rect class="cls-66" x="44.98" y="233.14" width="25.5" height="41.92"/></g><rect class="cls-1" width="802.27" height="1137.5"/></g><rect class="cls-67" x="1074.36" y="22.36" width="60.24" height="60.24" rx="14.36"/><text class="cls-68" transform="translate(1090.25 68.6)">1</text><rect class="cls-67" x="375.65" y="589.37" width="50.97" height="50.97" rx="12.15"/><text class="cls-69" transform="translate(389.09 628.49)">1</text><rect class="cls-67" x="672.42" y="1055.07" width="50.97" height="50.97" rx="12.15"/><text class="cls-69" transform="translate(685.86 1094.19)">2</text><rect class="cls-67" x="406.07" y="1055.07" width="50.97" height="50.97" rx="12.15"/><text class="cls-69" transform="translate(419.51 1094.19)">3</text><text class="cls-70" transform="translate(1153.94 69.11)">ESP32 Module</text><rect class="cls-67" x="1074.36" y="95.13" width="60.24" height="60.24" rx="14.36"/><text class="cls-68" transform="translate(1090.25 141.36)">2</text><text class="cls-70" transform="translate(1153.94 141.88)">LED</text><rect class="cls-67" x="1074.36" y="167.89" width="60.24" height="60.24" rx="14.36"/><text class="cls-68" transform="translate(1090.25 214.13)">3</text><text class="cls-70" transform="translate(1153.94 214.65)">Power IC</text></g></g></svg>