<svg xmlns="http://www.w3.org/2000/svg" xmlns:xlink="http://www.w3.org/1999/xlink" viewBox="0 0 1100.29 748.02"><defs><style>.cls-1,.cls-4,.cls-50{fill:none;}.cls-2{clip-path:url(#clip-path);}.cls-3{fill:#181c1e;}.cls-4{stroke:#181c1e;}.cls-39,.cls-4,.cls-50{stroke-miterlimit:10;}.cls-5{fill:#979481;}.cls-6{clip-path:url(#clip-path-2);}.cls-55,.cls-7{fill:#bf8f3e;}.cls-8{clip-path:url(#clip-path-4);}.cls-9{clip-path:url(#clip-path-6);}.cls-10{fill:#be8e3f;}.cls-11{clip-path:url(#clip-path-8);}.cls-12{clip-path:url(#clip-path-10);}.cls-13{fill:#bcc1d2;}.cls-14{fill:#a4a9b8;}.cls-15{fill:#eeefeb;}.cls-16{fill:#c6aa8a;}.cls-17{clip-path:url(#clip-path-12);}.cls-18{clip-path:url(#clip-path-14);}.cls-19{clip-path:url(#clip-path-16);}.cls-20{clip-path:url(#clip-path-18);}.cls-21{clip-path:url(#clip-path-20);}.cls-22{clip-path:url(#clip-path-22);}.cls-23{clip-path:url(#clip-path-24);}.cls-24{fill:#e5e5e5;}.cls-25{fill:#232323;}.cls-26{clip-path:url(#clip-path-26);}.cls-27{clip-path:url(#clip-path-28);}.cls-28{clip-path:url(#clip-path-30);}.cls-29{clip-path:url(#clip-path-32);}.cls-30{clip-path:url(#clip-path-34);}.cls-31{fill:#ca992c;}.cls-32{clip-path:url(#clip-path-36);}.cls-33{fill:#5a5a5a;}.cls-34{clip-path:url(#clip-path-38);}.cls-35{fill:#222;}.cls-36{fill:#fff;}.cls-37{fill:#fff7dc;}.cls-38{fill:#282828;}.cls-39{fill:#deaa53;stroke:#deaa53;stroke-width:2px;}.cls-40{clip-path:url(#clip-path-40);}.cls-41{clip-path:url(#clip-path-41);}.cls-42{fill:#e2e2e2;}.cls-43{fill:#261910;}.cls-44,.cls-45,.cls-62{fill:#af6f27;}.cls-44{opacity:0.61;}.cls-45,.cls-49,.cls-52,.cls-54,.cls-59,.cls-64{opacity:0.5;}.cls-46{fill:#e6e7e7;}.cls-47{fill:#312b1f;}.cls-47,.cls-62{opacity:0.4;}.cls-48{fill:#a28b48;}.cls-49{fill:#2b2213;}.cls-50{stroke:#222;}.cls-51{fill:#89743f;}.cls-53,.cls-54{fill:#fdfaf1;}.cls-55{opacity:0.8;}.cls-56{fill:#151515;}.cls-57{fill:#c9c9c9;}.cls-58{fill:#bababa;}.cls-59{fill:#9b9b9b;}.cls-60{fill:#6d6c67;}.cls-61{fill:#090a0c;opacity:0.85;}.cls-63{fill:#515151;}</style><clipPath id="clip-path"><rect class="cls-1" y="836.13" width="1697.43" height="747.36"/></clipPath><clipPath id="clip-path-2"><rect class="cls-1" x="619.3" y="195.25" width="94.97" height="94.97"/></clipPath><clipPath id="clip-path-4"><rect class="cls-1" x="756.48" y="560.86" width="91.25" height="91.25"/></clipPath><clipPath id="clip-path-6"><rect class="cls-1" x="983.27" y="604.79" width="31.62" height="31.62"/></clipPath><clipPath id="clip-path-8"><rect class="cls-1" x="625.38" y="141.38" width="31.62" height="31.62"/></clipPath><clipPath id="clip-path-10"><rect class="cls-1" x="912.49" y="145.67" width="19.33" height="47.89"/></clipPath><clipPath id="clip-path-12"><rect class="cls-1" x="1008.6" y="238.82" width="94.04" height="42.76"/></clipPath><clipPath id="clip-path-14"><rect class="cls-1" x="880.87" y="145.67" width="19.33" height="47.89"/></clipPath><clipPath id="clip-path-16"><rect class="cls-1" x="845.32" y="145.67" width="19.33" height="47.89"/></clipPath><clipPath id="clip-path-18"><rect class="cls-1" x="816.22" y="145.67" width="19.33" height="47.89"/></clipPath><clipPath id="clip-path-20"><rect class="cls-1" x="786.56" y="145.67" width="19.33" height="47.89"/></clipPath><clipPath id="clip-path-22"><rect class="cls-1" x="749.97" y="145.67" width="19.33" height="47.89"/></clipPath><clipPath id="clip-path-24"><rect class="cls-1" x="697.55" y="405.03" width="20.09" height="46.66"/></clipPath><clipPath id="clip-path-26"><rect class="cls-1" x="817.79" y="299.28" width="46.66" height="20.09"/></clipPath><clipPath id="clip-path-28"><rect class="cls-1" x="813.1" y="352.26" width="51.35" height="31.5"/></clipPath><clipPath id="clip-path-30"><rect class="cls-1" x="695.92" y="564.6" width="20.09" height="46.66"/></clipPath><clipPath id="clip-path-32"><rect class="cls-1" x="642.88" y="401.65" width="20.09" height="46.66"/></clipPath><clipPath id="clip-path-34"><rect class="cls-1" x="1075.92" y="145.14" width="22.02" height="48.94"/></clipPath><clipPath id="clip-path-36"><rect class="cls-1" x="1013.3" y="316.1" width="20.15" height="44.9"/></clipPath><clipPath id="clip-path-38"><rect class="cls-1" x="817.91" y="413.46" width="44.9" height="23.28"/></clipPath><clipPath id="clip-path-40"><rect class="cls-1" y="-916.65" width="1697.43" height="747.36"/></clipPath><clipPath id="clip-path-41"><rect class="cls-1" width="1100.29" height="747.36"/></clipPath></defs><g id="Layer_8" data-name="Layer 8"><g class="cls-2"><polygon class="cls-3" points="1014.19 746.03 856.26 1310.08 -66.97 1119.63 -66.97 746.03 1014.19 746.03"/><polygon class="cls-4" points="-66.97 1119.63 -66.97 746.03 1014.19 746.03 856.26 1310.08 -66.97 1119.63"/><polygon class="cls-5" points="-66.97 1119.63 856.26 1310.08 1014.19 746.03 1030.45 746.03 865.55 1336.4 -66.97 1145.95 -66.97 1119.63"/><g id="Layer_2-2" data-name="Layer 2"><path class="cls-3" d="M610.4-35.15V662.11h840.11V-35.15Zm55.54,311.79c-18.35,0-33.21-15.81-33.21-35.31S647.59,206,665.94,206s33.2,15.81,33.2,35.31S684.27,276.64,665.94,276.64ZM802.1,641.8c-18.34,0-33.2-15.81-33.2-35.32s14.86-35.31,33.2-35.31,33.2,15.81,33.2,35.31-14.87,35.32-33.2,35.32Zm455.77-341.29a80.75,80.75,0,1,1,80.75,80.75,80.76,80.76,0,0,1-80.75-80.75ZM1388,470.65c-18.33,0-33.2-15.81-33.2-35.32S1369.69,400,1388,400s33.22,15.81,33.22,35.31-14.87,35.32-33.22,35.32Z"/><g id="circle-asset_2" data-name="circle-asset 2"><g class="cls-6"><g class="cls-6"><path class="cls-7" d="M666.79,195.25a47.49,47.49,0,1,0,47.4,47.57v-.08a47.41,47.41,0,0,0-47.32-47.49h-.08m0,76.37a28.89,28.89,0,1,1,28.86-28.9v0a28.88,28.88,0,0,1-28.86,28.88"/></g></g></g><g id="circle-asset_2-2" data-name="circle-asset 2-2"><g class="cls-8"><g class="cls-8"><path class="cls-7" d="M802.1,560.86a45.63,45.63,0,1,0,45.71,45.62,45.62,45.62,0,0,0-45.71-45.62m0,73.37a27.75,27.75,0,1,1,27.75-27.75,27.74,27.74,0,0,1-27.75,27.75h0"/></g></g></g><g id="circle"><g class="cls-9"><g class="cls-9"><path class="cls-10" d="M983.27,620.6a15.81,15.81,0,1,1,15.81,15.81h0a15.81,15.81,0,0,1-15.81-15.81"/></g></g></g><g id="circle-3"><g class="cls-11"><g class="cls-11"><path class="cls-10" d="M625.38,157.14A15.81,15.81,0,1,1,641.19,173h0a15.81,15.81,0,0,1-15.81-15.81"/></g></g></g><g id="Artwork_6" data-name="Artwork 6"><g class="cls-12"><g class="cls-12"><path class="cls-13" d="M917.37,193.56h7.8a4.52,4.52,0,0,0,4.86-4.07V149.73a4.52,4.52,0,0,0-4.86-4.06h-7.8a4.51,4.51,0,0,0-4.88,4.06v39.76a4.53,4.53,0,0,0,4.88,4.07"/><path class="cls-14" d="M916.72,188.46h9.09A3.91,3.91,0,0,0,930,185V156a3.92,3.92,0,0,0-4.22-3.52h-9.09a3.94,3.94,0,0,0-4.23,3.52v29a3.92,3.92,0,0,0,4.23,3.5"/><path class="cls-15" d="M915.34,186H929a2.63,2.63,0,0,0,2.84-2.37v-26.9a2.64,2.64,0,0,0-2.84-2.39H915.34a2.65,2.65,0,0,0-2.85,2.39v26.9a2.64,2.64,0,0,0,2.85,2.37"/><rect class="cls-16" x="912.49" y="160.55" width="19.33" height="18.2"/></g></g></g><g id="Artwork_6-2" data-name="Artwork 6-2"><g class="cls-17"><g class="cls-17"><path class="cls-13" d="M1102.64,249.61v17.25c0,5.94-3.56,10.77-8,10.77h-78.09c-4.4,0-8-4.83-8-10.77V249.61c0-6,3.57-10.79,8-10.79h78.09c4.42,0,8,4.83,8,10.79"/><path class="cls-14" d="M1092.65,248.17v20.11c0,5.08-3.1,9.35-6.91,9.35h-56.81c-3.83,0-6.93-4.19-6.93-9.35V248.17c0-5.16,3.1-9.35,6.93-9.35h56.81c3.81,0,6.91,4.19,6.91,9.35"/><path class="cls-15" d="M1087.87,245.17v30.17c0,3.49-2.08,6.3-4.65,6.3H1030.4c-2.57,0-4.67-2.81-4.67-6.3V245.17c0-3.47,2.1-6.29,4.67-6.29h52.82c2.57,0,4.65,2.82,4.65,6.29"/><rect class="cls-16" x="1037.83" y="238.82" width="35.75" height="42.76"/></g></g></g><g id="Artwork_6-4" data-name="Artwork 6-4"><g class="cls-18"><g class="cls-18"><path class="cls-13" d="M885.74,193.56h7.81a4.53,4.53,0,0,0,4.87-4.07V149.73a4.51,4.51,0,0,0-4.87-4.06h-7.81a4.51,4.51,0,0,0-4.87,4.06v39.76a4.53,4.53,0,0,0,4.87,4.07"/><path class="cls-14" d="M885.1,188.46h9.09a3.92,3.92,0,0,0,4.23-3.5V156a3.94,3.94,0,0,0-4.23-3.52H885.1a3.94,3.94,0,0,0-4.23,3.52v29a3.92,3.92,0,0,0,4.23,3.5"/><path class="cls-15" d="M883.73,186h13.63a2.64,2.64,0,0,0,2.84-2.37v-26.9a2.64,2.64,0,0,0-2.84-2.39H883.73a2.66,2.66,0,0,0-2.86,2.39v26.9a2.65,2.65,0,0,0,2.86,2.37"/><rect class="cls-16" x="880.87" y="160.55" width="19.33" height="18.2"/></g></g></g><g id="Artwork_6-5" data-name="Artwork 6-5"><g class="cls-19"><g class="cls-19"><path class="cls-13" d="M850.19,193.56H858a4.53,4.53,0,0,0,4.87-4.07V149.73a4.51,4.51,0,0,0-4.87-4.06h-7.81a4.51,4.51,0,0,0-4.87,4.06v39.76a4.53,4.53,0,0,0,4.87,4.07"/><path class="cls-14" d="M849.55,188.46h9.09a3.92,3.92,0,0,0,4.23-3.5V156a3.94,3.94,0,0,0-4.23-3.52h-9.09a3.94,3.94,0,0,0-4.23,3.52v29a3.92,3.92,0,0,0,4.23,3.5"/><path class="cls-15" d="M848.18,186h13.63a2.64,2.64,0,0,0,2.84-2.37v-26.9a2.64,2.64,0,0,0-2.84-2.39H848.18a2.66,2.66,0,0,0-2.86,2.39v26.9a2.65,2.65,0,0,0,2.86,2.37"/><rect class="cls-16" x="845.32" y="160.55" width="19.33" height="18.2"/></g></g></g><g id="Artwork_6-6" data-name="Artwork 6-6"><g class="cls-20"><g class="cls-20"><path class="cls-13" d="M821.09,193.56h7.79a4.54,4.54,0,0,0,4.88-4.07V149.73a4.53,4.53,0,0,0-4.88-4.06h-7.79a4.51,4.51,0,0,0-4.87,4.06v39.76a4.53,4.53,0,0,0,4.87,4.07"/><path class="cls-14" d="M820.43,188.46h9.11a3.91,3.91,0,0,0,4.22-3.5V156a3.93,3.93,0,0,0-4.22-3.52h-9.11a3.91,3.91,0,0,0-4.21,3.52v29a3.9,3.9,0,0,0,4.21,3.5"/><path class="cls-15" d="M819.06,186h13.65a2.64,2.64,0,0,0,2.84-2.37v-26.9a2.64,2.64,0,0,0-2.84-2.39H819.06a2.64,2.64,0,0,0-2.84,2.39v26.9a2.64,2.64,0,0,0,2.84,2.37"/><rect class="cls-16" x="816.22" y="160.55" width="19.33" height="18.2"/></g></g></g><g id="Artwork_6-7" data-name="Artwork 6-7"><g class="cls-21"><g class="cls-21"><path class="cls-13" d="M791.43,193.56h7.86a4.53,4.53,0,0,0,4.87-4.07V149.73a4.51,4.51,0,0,0-4.87-4.06h-7.81a4.51,4.51,0,0,0-4.87,4.06v39.76a4.53,4.53,0,0,0,4.87,4.07"/><path class="cls-14" d="M790.82,188.46h9.09a3.94,3.94,0,0,0,4.24-3.5V156a4,4,0,0,0-4.24-3.52h-9.09a3.94,3.94,0,0,0-4.23,3.52v29a3.93,3.93,0,0,0,4.23,3.5"/><path class="cls-15" d="M789.42,186h13.63a2.64,2.64,0,0,0,2.84-2.37v-26.9a2.64,2.64,0,0,0-2.84-2.39H789.42a2.66,2.66,0,0,0-2.86,2.39v26.9a2.65,2.65,0,0,0,2.86,2.37"/><rect class="cls-16" x="786.56" y="160.55" width="19.33" height="18.2"/></g></g></g><g id="Artwork_6-8" data-name="Artwork 6-8"><g class="cls-22"><g class="cls-22"><path class="cls-13" d="M754.85,193.56h7.8a4.52,4.52,0,0,0,4.86-4.07V149.73a4.52,4.52,0,0,0-4.86-4.06h-7.8a4.53,4.53,0,0,0-4.88,4.06v39.76a4.54,4.54,0,0,0,4.88,4.07"/><path class="cls-14" d="M754.21,188.46h9.09a3.9,3.9,0,0,0,4.21-3.5V156a3.91,3.91,0,0,0-4.21-3.52h-9.09A4,4,0,0,0,750,156v29a3.94,3.94,0,0,0,4.24,3.5"/><path class="cls-15" d="M752.82,186h13.64a2.65,2.65,0,0,0,2.85-2.37v-26.9a2.65,2.65,0,0,0-2.85-2.39H752.82a2.66,2.66,0,0,0-2.85,2.39v26.9a2.65,2.65,0,0,0,2.85,2.37"/><rect class="cls-16" x="749.97" y="160.55" width="19.33" height="18.2"/></g></g></g><g id="r-01-3"><g class="cls-23"><g class="cls-23"><path class="cls-24" d="M717.64,410.21v36.3A4.94,4.94,0,0,1,713,451.7H702.25a4.93,4.93,0,0,1-4.65-5.18V410.21a4.94,4.94,0,0,1,4.65-5.18H713a4.86,4.86,0,0,1,4.66,5.05v.13"/><rect class="cls-25" x="697.55" y="417.63" width="20.09" height="21.38"/></g></g></g><g id="r-01-4"><g class="cls-26"><g class="cls-26"><path class="cls-24" d="M823,299.35h36.29a4.93,4.93,0,0,1,5.18,4.65v10.73a4.92,4.92,0,0,1-5.18,4.64H823a4.93,4.93,0,0,1-5.18-4.64V304a4.83,4.83,0,0,1,5-4.66H823"/><rect class="cls-25" x="830.39" y="299.28" width="21.38" height="20.09"/></g></g></g><g id="r-01-5"><g class="cls-27"><g class="cls-27"><path class="cls-24" d="M818.81,352.28h40c3.18,0,5.69,3.39,5.69,7.3V376.4c0,4.07-2.59,7.28-5.69,7.28h-40c-3.19,0-5.71-3.38-5.71-7.28V359.58c0-4.08,2.52-7.3,5.71-7.3"/><rect class="cls-25" x="826.97" y="352.26" width="23.53" height="31.5"/></g></g></g><g id="r-01-6"><g class="cls-28"><g class="cls-28"><path class="cls-24" d="M716,569.77v36.31a5,5,0,0,1-4.66,5.18H700.61a4.93,4.93,0,0,1-4.59-5.18V569.77a4.94,4.94,0,0,1,4.64-5.17h10.73a4.85,4.85,0,0,1,4.67,5s0,.1,0,.15"/><rect class="cls-25" x="695.9" y="577.2" width="20.09" height="21.38"/></g></g></g><g id="r-01-7"><g class="cls-29"><g class="cls-29"><path class="cls-24" d="M663,406.83v36.29a5,5,0,0,1-4.66,5.2H647.59a5,5,0,0,1-4.66-5.18V406.83a4.94,4.94,0,0,1,4.66-5.18h10.73a4.85,4.85,0,0,1,4.66,5v.14"/><rect class="cls-25" x="642.88" y="414.24" width="20.09" height="21.38"/></g></g></g><g id="c-01"><g class="cls-30"><g class="cls-30"><path class="cls-24" d="M1075.92,186.62v-34c0-4.17,2.58-7.47,5.66-7.47h10.58c3.16,0,5.67,3.39,5.67,7.47v34c0,4.16-2.59,7.46-5.67,7.46h-10.58c-3.08.1-5.66-3.3-5.66-7.46"/><rect class="cls-31" x="1075.94" y="158.41" width="21.99" height="22.5"/></g></g></g><g id="r-02"><g class="cls-32"><g class="cls-32"><path class="cls-24" d="M1013.32,356V321.08a4.83,4.83,0,0,1,4.66-5h10.76a4.84,4.84,0,0,1,4.66,5V356a4.83,4.83,0,0,1-4.66,5H1018a4.75,4.75,0,0,1-4.67-4.82.81.81,0,0,0,0-.16"/><rect class="cls-33" x="1013.3" y="328.29" width="20.15" height="20.59"/></g></g></g><g id="r-02-3"><g class="cls-34"><g class="cls-34"><path class="cls-24" d="M857.83,436.72H822.89a5.19,5.19,0,0,1-5-5.33V419a5.2,5.2,0,0,1,5-5.38h34.94a5.2,5.2,0,0,1,5,5.38v12.43a5.08,5.08,0,0,1-4.77,5.37h-.21"/><rect class="cls-33" x="830.1" y="413.46" width="20.59" height="23.28"/></g></g></g><rect class="cls-13" x="948.53" y="318.53" width="24.68" height="17.47"/><rect class="cls-13" x="966" y="313.48" width="30.57" height="27.56" rx="5.25"/><rect class="cls-13" x="903.76" y="285.75" width="24.68" height="17.47"/><rect class="cls-13" x="880.39" y="280.71" width="30.57" height="27.56" rx="5.25"/><rect class="cls-13" x="903.76" y="352.26" width="24.68" height="17.47"/><rect class="cls-13" x="880.39" y="347.22" width="30.57" height="27.56" rx="5.25"/><rect class="cls-35" x="916.86" y="276.64" width="43.25" height="101.25" rx="6.23"/><rect class="cls-35" x="1037.22" y="238.82" width="36.8" height="42.76"/><rect class="cls-36" x="1051.97" y="302.6" width="37.94" height="37.94" rx="5.55"/><rect class="cls-35" x="1081.56" y="297.79" width="90.16" height="54.34" rx="4.2"/><rect class="cls-36" x="1050.28" y="402.75" width="37.94" height="37.94" rx="5.55"/><rect class="cls-35" x="1079.87" y="397.94" width="90.16" height="54.34" rx="4.2"/><rect class="cls-36" x="991.68" y="404.3" width="37.94" height="37.94" rx="5.55"/><rect class="cls-36" x="886.84" y="404.3" width="37.94" height="37.94" rx="5.55"/><rect class="cls-35" x="916.44" y="399.5" width="90.16" height="54.34" rx="4.2"/><rect class="cls-35" x="819.65" y="352.26" width="36.48" height="31.5"/><rect class="cls-36" x="642.88" y="592.64" width="21.47" height="15.73" rx="3.74"/><rect class="cls-36" x="642.88" y="563.59" width="21.47" height="15.73" rx="3.74"/><polygon class="cls-36" points="611.26 361 633.59 361 633.59 453.84 659.32 491.28 635.3 530.61 635.3 620.6 611.26 620.6 611.26 361"/><rect class="cls-36" x="1098" y="49.22" width="4.59" height="21.38" rx="2.18"/><rect class="cls-36" x="1080.15" y="49.22" width="4.59" height="21.38" rx="2.18"/><rect class="cls-36" x="1062.85" y="49.22" width="4.59" height="21.38" rx="2.18"/><rect class="cls-36" x="1046.33" y="49.22" width="4.59" height="21.38" rx="2.18"/><rect class="cls-36" x="1029.35" y="49.22" width="4.59" height="21.38" rx="2.18"/><rect class="cls-36" x="1012.05" y="49.22" width="4.59" height="21.38" rx="2.18"/><rect class="cls-36" x="995.36" y="49.22" width="4.59" height="21.38" rx="2.18"/><rect class="cls-36" x="978.6" y="49.22" width="4.59" height="21.38" rx="2.18"/><rect class="cls-36" x="961.3" y="49.22" width="4.59" height="21.38" rx="2.18"/><rect class="cls-36" x="943.78" y="49.22" width="4.59" height="21.38" rx="2.18"/><rect class="cls-36" x="926.05" y="49.22" width="4.59" height="21.38" rx="2.18"/><rect class="cls-36" x="909.72" y="49.22" width="4.59" height="21.38" rx="2.18"/><rect class="cls-36" x="892.41" y="49.22" width="4.59" height="21.38" rx="2.18"/><rect class="cls-36" x="876.28" y="49.22" width="4.59" height="21.38" rx="2.18"/><rect class="cls-36" x="858.45" y="49.22" width="4.59" height="21.38" rx="2.18"/><rect class="cls-36" x="842.22" y="49.22" width="4.59" height="21.38" rx="2.18"/><rect class="cls-36" x="825.44" y="49.22" width="4.59" height="21.38" rx="2.18"/><rect class="cls-36" x="808.57" y="49.22" width="4.59" height="21.38" rx="2.18"/><rect class="cls-36" x="791.26" y="49.22" width="4.59" height="21.38" rx="2.18"/><rect class="cls-36" x="774.72" y="49.22" width="4.59" height="21.38" rx="2.18"/><rect class="cls-36" x="755.8" y="49.22" width="4.59" height="21.38" rx="2.18"/><polygon class="cls-37" points="1181.54 -11.82 1181.54 -38.38 729.46 -38.38 729.46 -11.82 718.84 -11.82 718.84 63.17 728.83 63.17 729.9 63.17 1177.92 63.17 1180.9 63.17 1188.97 63.17 1188.97 -11.82 1181.54 -11.82"/><path class="cls-38" d="M1173.75,7.61A4.23,4.23,0,0,1,1178,3.38h6.33V-6.68a5,5,0,0,0-2.78-4.42V-38.37h-452v27.09A4.92,4.92,0,0,0,726-6.59V3.46h3.86a4.23,4.23,0,0,1,4.23,4.24v5.84h20.42V8.46a3.84,3.84,0,1,1,7.68,0v5.08h11.11V8.46a3.85,3.85,0,1,1,7.69,0v5.08h9V8.46a3.84,3.84,0,1,1,7.68,0v5.08h9.62V8.46a3.84,3.84,0,1,1,7.68,0v5.08h9V8.46a3.86,3.86,0,0,1,7.7,0v5.08h9.12V8.46a3.85,3.85,0,0,1,7.69,0v5.08h9V8.46a3.85,3.85,0,0,1,7.69,0v5.08h9.6V8.46a3.84,3.84,0,1,1,7.68,0v5.08h9.11V8.46a3.85,3.85,0,0,1,7.69,0v5.08h9.36V8.46a3.84,3.84,0,1,1,7.68,0v5.08h8.7V8.46a3.85,3.85,0,0,1,7.69,0v5.08h9.85V8.46a3.85,3.85,0,0,1,7.69,0v5.08h9.6V8.46a3.84,3.84,0,1,1,7.68,0v5.08H977V8.46a3.85,3.85,0,0,1,7.69,0v5.08h9V8.46a3.85,3.85,0,0,1,7.69,0v5.08h9.06V8.46a3.84,3.84,0,1,1,7.68,0v5.08h10V8.46a3.85,3.85,0,1,1,7.69,0v5.08h9.24V8.46a3.84,3.84,0,1,1,7.68,0v5.08h8.59V8.46a3.84,3.84,0,1,1,7.68,0v5.08H1079V8.46a3.86,3.86,0,0,1,7.7,0v5.08h9.85V8.46a3.85,3.85,0,1,1,7.69,0v5.08H1113V8.46a3.85,3.85,0,1,1,7.69,0v5.08h9.58V8.46a3.84,3.84,0,1,1,7.68,0v5.08h10.57V8.46a3.84,3.84,0,1,1,7.68,0v5.08h17.52Z"/><rect class="cls-39" x="1098" y="-7.19" width="4.59" height="21.38" rx="2.18"/><rect class="cls-39" x="1080.15" y="-7.19" width="4.59" height="21.38" rx="2.18"/><rect class="cls-39" x="1062.85" y="-7.19" width="4.59" height="21.38" rx="2.18"/><rect class="cls-39" x="1046.33" y="-7.19" width="4.59" height="21.38" rx="2.18"/><rect class="cls-39" x="1029.35" y="-7.19" width="4.59" height="21.38" rx="2.18"/><rect class="cls-39" x="1012.05" y="-7.19" width="4.59" height="21.38" rx="2.18"/><rect class="cls-39" x="995.36" y="-7.19" width="4.59" height="21.38" rx="2.18"/><rect class="cls-39" x="978.6" y="-7.19" width="4.59" height="21.38" rx="2.18"/><rect class="cls-39" x="961.3" y="-7.19" width="4.59" height="21.38" rx="2.18"/><rect class="cls-39" x="943.78" y="-7.19" width="4.59" height="21.38" rx="2.18"/><rect class="cls-39" x="926.05" y="-7.19" width="4.59" height="21.38" rx="2.18"/><rect class="cls-39" x="909.72" y="-7.19" width="4.59" height="21.38" rx="2.18"/><rect class="cls-39" x="892.41" y="-7.19" width="4.59" height="21.38" rx="2.18"/><rect class="cls-39" x="876.28" y="-7.19" width="4.59" height="21.38" rx="2.18"/><rect class="cls-39" x="858.45" y="-7.19" width="4.59" height="21.38" rx="2.18"/><rect class="cls-39" x="842.22" y="-7.19" width="4.59" height="21.38" rx="2.18"/><rect class="cls-39" x="825.44" y="-7.19" width="4.59" height="21.38" rx="2.18"/><rect class="cls-39" x="808.57" y="-7.19" width="4.59" height="21.38" rx="2.18"/><rect class="cls-39" x="791.26" y="-7.19" width="4.59" height="21.38" rx="2.18"/><rect class="cls-39" x="774.72" y="-7.19" width="4.59" height="21.38" rx="2.18"/><rect class="cls-39" x="755.8" y="-7.19" width="4.59" height="21.38" rx="2.18"/></g></g><g class="cls-41"><rect class="cls-42" width="1100.29" height="747.36"/><polygon class="cls-3" points="1014.19 -90.1 856.26 473.95 -66.97 283.5 -66.97 -90.1 1014.19 -90.1"/><polygon class="cls-4" points="-66.97 283.5 -66.97 -90.1 1014.19 -90.1 856.26 473.95 -66.97 283.5"/><polygon class="cls-5" points="-66.97 283.5 856.26 473.95 1014.19 -90.1 1030.45 -90.1 865.55 500.27 -66.97 309.82 -66.97 283.5"/><path class="cls-43" d="M857.65,432.13l3,.66a7.32,7.32,0,0,0,8.63-5.17l42.48-151.71a7.31,7.31,0,0,0-5.41-9.1l-17.23-3.95a7.32,7.32,0,0,0-7.94,3.42L802,400.47a7.34,7.34,0,0,0-.9,5L805,427.93a7.32,7.32,0,0,0,4.77,5.64l24.76,8.74a7.31,7.31,0,0,0,6.37-.73l5.35-3.41a6,6,0,0,0,1-.79l3.8-3.49A7.31,7.31,0,0,1,857.65,432.13Z"/><path class="cls-44" d="M725.42,264.53l-1.29,13.81-4.26,5.78L718.71,298l-6.21,5.11v15.43l-5.56,2.61L705,337.3l-4.25,3.11-.42,11.49L695,359.09s-3,7.51,0,9.7,20.6,5.81,20.6,5.81S761,335.69,761.55,334s-12.39-66.48-12.39-66.48Z"/><path class="cls-31" d="M750.78,264.53a49.58,49.58,0,0,0-12.72-3.87c-7.22-1.16-11.61-2.45-12.64,3.87,0,0-1,1.68,4.9,2.71s13.42,1.53,13.42,1.53l1.81,1.76,1.35,2.32.2,4.25-2.1,4.24h-2l-18.84-3s-4.65-.45-5.16,3,3.09,4,7,4.89,11.35,2.1,11.35,2.1l1.77.95a3.27,3.27,0,0,1,1.71,3.27c-.35,3.09-1.62,7.28-5.92,6.91-5.56-.48-21.3-5-22.59-1.44s-1.29,6.18,5.93,7.06a60.26,60.26,0,0,1,13,3.1s2.45,1.16,2.94,3.1c.27,1.05-1.44,3.31-1.44,3.31l-.67,1.76a2.88,2.88,0,0,1-3.17,1.83L715.61,316s-8-2.13-9.29,2.54,9,5.71,9,5.71l9.24,2.65a3.94,3.94,0,0,1,2.33,1.48l1.3,1.62.28,3L725,336.69a3.36,3.36,0,0,1-2.84,1L705,335.37s-4.16-2-4.61,3.17c-.52,5.86,13.13,6.41,13.13,6.41s8.51,1,8.22,2.42c-.19.95-1,.53-.45,2s-3.61,5.73-3.61,5.73l-17.35-3.21s-5.36-1.82-6.39,4.63,24.51,8.72,24.51,8.72S783.38,282.73,750.78,264.53Z"/><ellipse class="cls-31" cx="858.73" cy="196.32" rx="49.96" ry="63.72" transform="translate(601.6 1038.83) rotate(-85.91)"/><path class="cls-35" d="M817.08,205.09s-7.92-24.35,7.21-40.24c0,0,18.74-18.49,53.09-10.43,0,0,25.14,7.72,26.88,39.27,0,0,2.13,26.13-26.14,33.55C878.12,227.24,827.13,235.77,817.08,205.09Z"/><path class="cls-37" d="M852.9,397.18s-16-6.2-20.64-3.74a22.42,22.42,0,0,0-7,5.51l-4,2.65c-.29.22-1.84,1.25-3,2s-5.61,4.13-5.61,4.13l-1.32,5.42s10.59,4.77,12.05,5,4.17,1.29,5.08,0,1.8-1.31,1.8-2.72a7.28,7.28,0,0,0-1-3.09s3.13,1.47,2.86-2.1,0-4.45,0-4.45,4.88,3.71,10.56,3.71h6.45a8.37,8.37,0,0,1,1.29,2.46c0,.64-.64,3.87-.9,5.54a22.87,22.87,0,0,0-.39,3.88,7.83,7.83,0,0,0,.9,3,4.32,4.32,0,0,0,0,2.33c.39,1,1,3.22,1.68-.91s1.16-6.45,1.16-7.09,4.26-7.23,0-10.2l-1.55-1.68S855.87,399.89,852.9,397.18Z"/><path class="cls-37" d="M708.13,414.6V389.82a44.34,44.34,0,0,1,2.58-13.42c2.58-7.22,4.64-13.42,4.64-13.42a24.12,24.12,0,0,0,2.33-1.87c1.55-1.35,1.16-3.09,0-6s2.9-7.55,6-7.93,5.61-4.45,3.87-8.52-3.7-6.77.57-9.68,6.59-4.64,5-9.67.39-7.94,2.52-9.49,5.42-4.84,3.87-8.13-1.94-9.09,1.35-11.42,5.81-2.13,4.65-6.77-2.52-8.32,1.35-10.65,5.23-5.61,3.1-10.83,4.65-9.68,6.19-9.68,3.49-4.07,2.52-8.52c0,0-1.42-2.64.26-7s12.13-28.9,12.13-28.9,1.16-2.33,5.93-1S827.74,218,827.74,218s4.52.81,4.23,3.52l29.22,6.67s6,1.17,4.36,7L856.32,233s-9.55.2-10.71,3.1,9,38.65,9,38.65-1.57,19-3.5,17.41,1,23.33,0,26.42-9.84,18.86-9.84,18.86l-7.15,36.92L817.29,387s-8.9,1.92-8.52,3.08-3,5-3,5l.16,6.44s6.77.58,6.77,6.2l-2.52,10.32.13,12.77,29,8.65a6,6,0,0,0,7.49-1.68,47,47,0,0,0,5.42-8.9,3.74,3.74,0,0,1,1.39,4.77c-1.3,3.23-4.07,12.49-15.71,9.81-10.41-2.39-125.81-27.23-125.81-27.23S708.13,415.63,708.13,414.6Z"/><path class="cls-45" d="M830.45,222.34l-6.71,22.58-2.15,6.5-1.94,7.38s2.16-.83,2.67,0,1.29,1.86,1.29,1.86.26,1.42.39,1.81a5.68,5.68,0,0,0,1,2.06,2.56,2.56,0,0,1,.63,1.42,22.32,22.32,0,0,0,.9-2.06c.26-.78-.77-1.29,1-1.42a4.89,4.89,0,0,0,2.13-.39l7,1.48.94-7.15-1.83-2.56-1.68-1.21-.75-.53-6.57-4.58,6.57,3.89s.17-.31.75-1.47a34.1,34.1,0,0,0,1.34-3.74l.26-2.07s.13-.64,1-.51a8.16,8.16,0,0,1,1.48.51,9.29,9.29,0,0,0,1.94,0s.64-.9.77,0a11,11,0,0,1,0,2.07c0,.9.06,1.93.06,1.93l4.65-12.06,1.23-1.25,3.49-1.38s-2.85.11-3.49.11-.65,0-3.23-.62-4.26-1.05-6.9-1.57-3.23-.39-3.84-.77-1.39.13-1.64-.91a14.56,14.56,0,0,1-.39-2.71c0-.38-.13-.9-.13-1.29s-.39,3.36-1,4.13a3.11,3.11,0,0,0-1,1.94,7.44,7.44,0,0,0-.25,2.84c.13,1.16.77,1.16,1.22,1.8s-.32,1.16,1.23.91.46-.91,2.42-.39,2.61.26,3.32.64,2-.38,2.9.39,1.29,1,1.42,1.81,3-.52.13.77a12.9,12.9,0,0,1-4.45,1.16,6.52,6.52,0,0,1-3.32-.64,18.72,18.72,0,0,0-3.65-1.68c-1-.26.32-.77-1-.26a3.42,3.42,0,0,0-2.32,3.06,13.36,13.36,0,0,0-.13,2c0,1-1.42.65-1.42.65Z"/><path class="cls-46" d="M878.31,254.52s-.76-3.05.79-3.63l1.25-.87s-.87-8.13,2.91-7.84,16.55,4,16.55,4,2.13,2.33,1,3.2a9.4,9.4,0,0,0-2.51,4c0,.48.29,2.8.29,3.09s.19,4.26.19,4.26S880.32,259.22,878.31,254.52Z"/><path class="cls-47" d="M897.85,245.59v3.65a8.72,8.72,0,0,1-.66,2.18c-.38.63-.29,1.31-1,1.4s-3.2,0-3.2,0L880.35,250l1.84,1.4,13.16,3.63a20,20,0,0,1,1.75,2.42c.09.38.29,2.42.29,2.42h1.31l-.41-6,.82-2.43,1.66-2.08.32-1-.36-.92Z"/><path class="cls-48" d="M824.26-9.11C766.11-9.11,719,22.65,719,61.83c0,1.42.07,2.83.19,4.23,3.25,37.21,49.06,66.71,105.1,66.71s101.85-29.5,105.1-66.71c.12-1.4.19-2.81.19-4.23C929.55,22.65,882.41-9.11,824.26-9.11Z"/><polygon class="cls-49" points="856.26 473.95 865.55 500.27 -66.97 309.82 -66.97 283.5 856.26 473.95"/><path class="cls-45" d="M709.72,387.15c7.75.86,45.49,5.34,58.42,13a1.3,1.3,0,0,1,.59.73c.42,1.24,1.65,4.34,2.75,1.92a91.86,91.86,0,0,1,5.8-9.35,1.36,1.36,0,0,0,.16-1.19,2.31,2.31,0,0,1,.24-2.3c1-1-.39,1,1.16,1.94,1.16.72,4.5,2.3,6.1,3.05a1.38,1.38,0,0,0,1.55-.27l2.8-2.78-1.86,4.37a1.38,1.38,0,0,1-1.56.8L779,395.55a1.35,1.35,0,0,0-1.45.6c-1.17,1.81-3.84,6.16-3.54,7.54a5.22,5.22,0,0,0,4.26,3.68c1.93.19,26.51,6.19,28.26,6.19s5.87-8.43,5-9.28l1,3.1a1.35,1.35,0,0,1,0,.77l-.74,3-1.19,4.88-.46,1.85a1.31,1.31,0,0,0,0,.34l.11,11.59a1.38,1.38,0,0,0,1,1.3L841.06,440a1.27,1.27,0,0,0,.67,0l2.93-.59a1.36,1.36,0,0,0,.78-.48l3.95-4.8a1.53,1.53,0,0,0,.14-.21l1.67-3.08a1.37,1.37,0,0,1,2.33-.13h0a1.35,1.35,0,0,1,.19,1.2L852,437.48a1.41,1.41,0,0,1-.19.39l-2,2.81a1.41,1.41,0,0,1-.45.39l-4.91,2.74a1.45,1.45,0,0,1-.67.17h-4.14a1.53,1.53,0,0,1-.3,0L738.54,422l-27.06-5.81a1.06,1.06,0,0,1-.3-.1L708.91,415a1.37,1.37,0,0,1-.78-1.24v-1.91l0-22.78v-.11l0-.52A1.38,1.38,0,0,1,709.72,387.15Z"/><path class="cls-1" d="M875.91,394.92a.83.83,0,0,1-.23.1A1,1,0,0,0,875.91,394.92Z"/><path class="cls-1" d="M815.42,366.3a6.51,6.51,0,0,1-2.32.14A4.75,4.75,0,0,0,815.42,366.3Z"/><path class="cls-1" d="M839.55,283h0s0,.48.05,1.16A7.19,7.19,0,0,0,839.55,283Z"/><path class="cls-1" d="M834.14,306.33a5.7,5.7,0,0,1-1.49.59A2.33,2.33,0,0,0,834.14,306.33Z"/><path class="cls-1" d="M876.1,394.69a.36.36,0,0,1-.12.18A.36.36,0,0,0,876.1,394.69Z"/><path class="cls-1" d="M871.72,394.78h0a13.07,13.07,0,0,0,3.93.25A12,12,0,0,1,871.72,394.78Z"/><path class="cls-1" d="M876.1,394.69c.2-.92,36.29-130.16,36.29-130.16L880.55,378.05S876.58,392.18,876.1,394.69Z"/><path class="cls-50" d="M795.48,399.44l10.3,2.16-1.22-.32Z"/><path class="cls-35" d="M875.68,395h0Z"/><path class="cls-35" d="M876,394.87l-.07.05Z"/><path class="cls-35" d="M839.6,284.12a25.89,25.89,0,0,1-.57,4.22C839.6,287.77,839.64,285.53,839.6,284.12Z"/><path class="cls-51" d="M824.29-38.62C761-38.62,709.71,0,709.71,47.58s51.3,86.19,114.58,86.19S938.87,95.18,938.87,47.58,887.57-38.62,824.29-38.62Zm0,171.39C766.11,132.77,719,101,719,61.83S766.11-9.11,824.26-9.11,929.55,22.65,929.55,61.83,882.41,132.77,824.26,132.77Z"/><path class="cls-52" d="M824.26,6.85c56,0,101.85,26.19,105.1,59.21.12-1.4.19-2.81.19-4.23,0-39.18-47.14-70.94-105.29-70.94S719,22.65,719,61.83c0,1.42.07,2.83.19,4.23C722.41,33,768.22,6.85,824.26,6.85Z"/><path class="cls-42" d="M820.91,57.17C787.85,56.48,761,77.07,760.55,98s9.77,31,58.79,34.81c33,2.59,59.18-9.15,59.61-30S854,57.85,820.91,57.17Z"/><ellipse class="cls-53" cx="250.74" cy="288.64" rx="25.16" ry="20.08" transform="translate(-12.14 11.01) rotate(-2.46)"/><ellipse class="cls-54" cx="250.74" cy="288.64" rx="34.32" ry="27.39" transform="matrix(1, -0.04, 0.04, 1, -12.14, 11.01)"/><ellipse class="cls-31" cx="-17.42" cy="211.5" rx="73.74" ry="53.23"/><path class="cls-55" d="M25.94,214.41c0,15.83-17.52,27.07-39,28.66-28.55,2.11-39-12.83-39-28.66s17.46-28.65,39-28.65C14.71,185.76,25.94,198.59,25.94,214.41Z"/><path class="cls-56" d="M842.52,173.76s-17.75,6-18.26,7.93,2.39,11.62,3.93,12.2,15.68-3.53,15.68-3.53,3.1-2.86,7.26,2.56,8.22,14.32,10.55,14.52,14.9-3.49,14.9-3.49,1.94-1.53.77-7.63-3.09-10-1-10.76,15.48-4.45,15.48-4.45,2.52-1,1.16-4.84a46.54,46.54,0,0,0-3.41-7.35s-.27-1.36-4.72-1.16-13.74,1.16-13.74,1.16-4.27-.58-5.33-3.1a81.34,81.34,0,0,0-4.73-8.13s.38-3.48-8.91-1.74-9.09,3.29-9.09,3.29S843.85,173.3,842.52,173.76Z"/><path class="cls-57" d="M602.94,340.87l.67,7.06,8.39,1.76s1.94.55,1.42,2.21-7,13.35-7,13.35-1.55,3.28-4.39,2.77-5.54-1.29-5.54-1.29l-55.75-13s-5.29-.86-3.87-3,10.45-16.52,10.45-16.52a4.79,4.79,0,0,1,3.1,0,53.7,53.7,0,0,0,5.68.9Z"/><polygon class="cls-58" points="549.93 354.98 549.93 348.79 556.63 331.44 565.16 333.05 559.48 350.08 559.23 357.44 549.93 354.98"/><polygon class="cls-58" points="587.72 362.8 587.72 356.61 594.68 338.55 602.94 340.87 597.26 357.9 597.01 365.25 587.72 362.8"/><path class="cls-59" d="M549.94,348.79l9.54,1.29,28.24,6.53,9.54,1.29,5.68-17,.67,7.06-2.71,12.73,2.71,4.59h2.84s-1.39,3.08-3.51,2.8l-62.17-14.27s-6.44-.76-3.22-4.07l4.27-6.73s-4,6.2-1.05,7.23a31.92,31.92,0,0,0,6.71,1.35l2.46.34Z"/><polygon class="cls-35" points="565.16 333.05 594.68 338.55 587.72 356.61 587.72 362.8 559.23 357.44 559.48 350.08 565.16 333.05"/><path class="cls-57" d="M620.94,298l.67,7.06,8.39,1.76s1.94.55,1.42,2.21-7,13.36-7,13.36-1.55,3.27-4.39,2.76-5.54-1.29-5.54-1.29l-55.75-12.95s-5.29-.86-3.87-3.05,10.45-16.52,10.45-16.52a4.79,4.79,0,0,1,3.1,0,53.7,53.7,0,0,0,5.68.9Z"/><polygon class="cls-58" points="567.93 312.13 567.93 305.94 574.63 288.59 583.16 290.2 577.48 307.23 577.23 314.59 567.93 312.13"/><polygon class="cls-58" points="605.72 319.95 605.72 313.76 612.68 295.7 620.94 298.02 615.26 315.05 615.01 322.4 605.72 319.95"/><path class="cls-59" d="M567.94,305.94l9.54,1.29,28.24,6.53,9.54,1.29,5.68-17,.67,7.06-2.71,12.73,2.71,4.6h2.84s-1.39,3.07-3.51,2.79l-62.17-14.27s-6.44-.76-3.22-4.07l4.27-6.73s-4,6.2-1.05,7.23a32.26,32.26,0,0,0,6.71,1.36l2.46.33Z"/><polygon class="cls-35" points="583.16 290.2 612.68 295.7 605.72 313.76 605.72 319.95 577.23 314.59 577.48 307.23 583.16 290.2"/><path class="cls-57" d="M636.81,255.17l.67,7.06,8.39,1.77s1.94.54,1.42,2.2-7,13.36-7,13.36-1.55,3.27-4.38,2.76-5.55-1.29-5.55-1.29l-55.74-12.95s-5.3-.86-3.88-3.05,10.46-16.52,10.46-16.52a4.84,4.84,0,0,1,3.09,0,53.7,53.7,0,0,0,5.68.9Z"/><polygon class="cls-58" points="583.81 269.29 583.81 263.09 590.5 245.75 599.03 247.35 593.36 264.38 593.1 271.74 583.81 269.29"/><polygon class="cls-58" points="621.59 277.11 621.59 270.91 628.55 252.85 636.81 255.17 631.13 272.2 630.88 279.56 621.59 277.11"/><path class="cls-59" d="M583.81,263.09l9.54,1.29,28.24,6.53,9.55,1.29,5.67-17,.67,7.06L634.77,275l2.71,4.6h2.84s-1.39,3.07-3.51,2.79l-62.16-14.27s-6.45-.76-3.23-4.07l4.27-6.73s-4,6.2-1,7.23a32.1,32.1,0,0,0,6.7,1.36l2.46.33Z"/><polygon class="cls-35" points="599.03 247.35 628.55 252.85 621.59 270.91 621.59 277.11 593.1 271.74 593.36 264.38 599.03 247.35"/><path class="cls-57" d="M595.08,47.15l.93,7,8,1.43s1.84.46,1.43,2.14-6,13.63-6,13.63-1.31,3.34-4,2.93-5.27-1.06-5.27-1.06L537.2,62.55s-5-.64-3.76-2.89,9.11-16.93,9.11-16.93a4.31,4.31,0,0,1,2.91-.12,49,49,0,0,0,5.37.67Z"/><polygon class="cls-58" points="545.87 63.39 545.6 57.2 551.14 39.6 559.24 40.86 554.63 58.1 554.7 65.46 545.87 63.39"/><polygon class="cls-58" points="581.71 69.67 581.44 63.49 587.22 45.16 595.08 47.15 590.47 64.39 590.54 71.75 581.71 69.67"/><path class="cls-59" d="M545.6,57.2l9,.9,26.81,5.39,9,.9,4.61-17.24.93,7L594,67l2.74,4.48,2.67-.11s-1.18,3.13-3.18,2.93l-59-11.75s-6.09-.49-3.2-3.93l3.72-6.9s-3.44,6.35-.67,7.27a28.56,28.56,0,0,0,6.37,1.08l2.31.23Z"/><polygon class="cls-35" points="559.24 40.86 587.22 45.16 581.44 63.49 581.71 69.67 554.7 65.46 554.63 58.1 559.24 40.86"/><path class="cls-57" d="M162.83,14.44l.93,7,8,1.43s1.84.46,1.43,2.14-6,13.63-6,13.63-1.31,3.34-4,2.93-5.27-1.06-5.27-1.06L105,29.84s-5-.64-3.77-2.89S110.3,10,110.3,10a4.27,4.27,0,0,1,2.91-.13,49.09,49.09,0,0,0,5.38.67Z"/><polygon class="cls-58" points="113.62 30.68 113.35 24.49 118.9 6.89 126.99 8.15 122.38 25.39 122.45 32.75 113.62 30.68"/><polygon class="cls-58" points="149.46 36.97 149.19 30.78 154.97 12.45 162.83 14.44 158.22 31.68 158.3 39.04 149.46 36.97"/><path class="cls-59" d="M113.35,24.49l9,.9,26.81,5.39,9,.9,4.61-17.24.93,7-2,12.83,2.75,4.48,2.66-.11S166,41.79,164,41.59L105,29.84s-6.09-.49-3.21-3.93l3.73-6.9s-3.45,6.35-.68,7.27a28.56,28.56,0,0,0,6.37,1.08l2.31.24Z"/><polygon class="cls-35" points="126.99 8.15 154.97 12.45 149.19 30.78 149.46 36.97 122.45 32.75 122.38 25.39 126.99 8.15"/><path class="cls-58" d="M568.77,96.66,586,100.19a3.82,3.82,0,0,1,2.87,4.93l-9,27.72c-.56,1.73-2.08,2.09-3.89,1.89L552.13,131l-.26,0-139.12-25.6A3.82,3.82,0,0,1,410,99.89l14.5-29a3.81,3.81,0,0,1,4.11-2l20.66,3.79Z"/><path class="cls-60" d="M433,117.05l3.1-24.52,19.1-44.9s.51-3.87,6.71-2.58,97.8,19.61,97.8,19.61,2.58-.77,4.39,4.9,5.68,24.78,5.68,24.78L551.23,138s1,2.84-4.13,2.58-111.23-20.64-111.23-20.64S432.62,120.32,433,117.05Z"/><path class="cls-61" d="M442.06,94.6l100.13,20.13h0a5.62,5.62,0,0,0,5.25-3.62l16.25-42.76,6.12,26-18.95,45.31-3.76.88-108-20-5.47-1.23V114l2.49-21.42,2-4.8S435.12,93.2,442.06,94.6Z"/><path class="cls-58" d="M359.06,52.57l17.23,3.53A3.82,3.82,0,0,1,379.16,61l-9,27.72c-.56,1.73-2.08,2.09-3.89,1.89l-23.87-3.73-.26,0L203,61.27a3.82,3.82,0,0,1-2.73-5.47l14.5-29a3.81,3.81,0,0,1,4.11-2l20.66,3.79Z"/><path class="cls-60" d="M223.32,73l3.1-24.52,19.1-44.9S246-.33,252.23,1,350,20.57,350,20.57s2.58-.77,4.39,4.9,5.68,24.78,5.68,24.78L341.52,93.86s1,2.84-4.13,2.58S226.16,75.8,226.16,75.8,222.91,76.23,223.32,73Z"/><path class="cls-61" d="M232.35,50.51,332.48,70.64h0A5.62,5.62,0,0,0,337.73,67L354,24.26l6.12,26-19,45.32-3.76.87-108-20-5.47-1.23V69.86l2.49-21.42,2-4.8S225.41,49.11,232.35,50.51Z"/><path class="cls-58" d="M609-5.13,625.61-1.6a3.84,3.84,0,0,1,2.76,4.93L619.72,31c-.54,1.73-2,2.09-3.74,1.89L593,29.2l-.25,0L458.86,3.57a3.85,3.85,0,0,1-2.63-5.47l14-29a3.65,3.65,0,0,1,4-2.05L494-29.12Z"/><path class="cls-60" d="M478.38,15.26l3-24.52,18.38-44.89s.5-3.87,6.46-2.58,94.13,19.61,94.13,19.61,2.49-.78,4.23,4.9S610-7.45,610-7.45L592.14,36.16s1,2.83-4,2.58-107-20.65-107-20.65A2.31,2.31,0,0,1,478.38,15.26Z"/><path class="cls-61" d="M487.07-7.19l96.38,20.12h0a5.4,5.4,0,0,0,5-3.61l15.65-42.76,5.88,26L591.78,37.86l-3.62.88-103.93-20L479,17.49V12.16l2.39-21.42,2-4.8S480.39-8.59,487.07-7.19Z"/><polygon class="cls-31" points="797.8 390.88 791.6 389.19 782.85 381.34 781.34 380.44 823.74 244.92 826.82 247.53 835.82 253.84 841.74 258.82 857.23 266.76 820.44 380.23 797.8 390.88"/><path class="cls-62" d="M797.8,390.88l-6.2-1.69a1,1,0,0,0-1.13.49l-1.18,2.21.51-3.31a1,1,0,0,0-.29-.87l-6.66-6.37a1,1,0,0,0-1.55.23l-2.07,3.6,4.1-9.21a.49.49,0,0,0,0-.11l5.52-17.73,5.75-18.47.74-2.38,23.52-75.6-.52,5.67a1,1,0,0,0,.55,1l1.56.78a1.15,1.15,0,0,0,.33.1,14.14,14.14,0,0,0,2.62.11c.69-.13-.47,1,.69-.13l1.11-1.11.09-.11a14.48,14.48,0,0,1,1.17-1.49c-.31.51,0,1.67,0,1.67s-1.4-.38,1.66-.25a32.41,32.41,0,0,1,5.23.64c.93.13,1.45-.26,3.32.39.27.09.55.19.82.3a1,1,0,0,1-.14,1.9c-1.47.33-3,.78-3.25,1.28-.59,1,.38,1.16-1.27,1.16s-1-.51-3.13-.77-3.55-1-4.64-1-1.71-.65-2.69,0-1.12-.65-1,.64-.61,1.55,1.5,2.33.56.64,4.18,1.54a40.67,40.67,0,0,1,6.46,2.31,1,1,0,0,1,.58.91v.9l-12.2-2.32a1,1,0,0,0-1,.46,4.77,4.77,0,0,0-.78,2.81c.13,1.9-.9,1.06-1.23,0a13.62,13.62,0,0,0-1.37-2.63,1,1,0,0,0-.73-.45,2.35,2.35,0,0,0-1.19.08c-.51.26-4.64,4.21-2.71,5.78s3.62,2.78,4.26,2.11,1.74-2.11,1.74-2.11h.75l.89,1a1,1,0,0,0,.59.34l5,.85a1,1,0,0,1-.17,2h-1.17l-5.64-.9a.94.94,0,0,0-.55.07c-.71.3-2.66,1.09-3.29.84s-4.9.33-3.22,2.52,7.84,3.1,8.57,3.22l.15,0a27.16,27.16,0,0,1,2.59,1,20.39,20.39,0,0,1,3.06,1.81c.47.39.81.26,1.41.64s6.23,2.65,6.23,2.65-12.59-2.65-13.37-2.77-5.29-.65-5.93.64-1.29,2.45-1.29,2.45.9-2.84-.65-3.09-3.59-1.68-4.9.9-2.19,6.06-.26,6.71a3.73,3.73,0,0,0,3.74-.39,4.19,4.19,0,0,0,.84-1.34,1,1,0,0,1,1.66-.26l.39.46a1.07,1.07,0,0,0,.52.31l5.2,1.26a1,1,0,0,1-.3,2l-1.73-.13-3.76-.29h-2.11a.9.9,0,0,0-.36.08,11.3,11.3,0,0,1-4.35.26,1,1,0,0,0-.65.16c-1,.63-3.5,2.66.32,4.38,4.24,1.91,12.75,3.26,14,3.46a1,1,0,0,1,.31.1l.82.43a1,1,0,0,1-.65,1.86l-10.42-2a1,1,0,0,0-.24,0l-2,.11a1,1,0,0,0-.41.11c-.51.28-1.8,1-1.43,1.45s-.2.58,0,1.51S805.94,315,804,315.5s-4.13,4.2-2.84,6.75,3.23,1.76,3.87,2,2.12-3.49,2.12-3.49-.83,2,.72,2.54,8.84.91,9.72.95l.18,0,8,1.92-14-.13h-.13c-.87-.13-11.19-1.59-11.68.71s2.58,4.2,4.13,4.72c.48.16,2.12.67,4.13,1.28a1,1,0,0,1-.4,1.94l-2.12-.24h-.13c-.42,0-2.81.1-3.16,1.16,0,.11-.07.24-.11.38a1,1,0,0,1-1.76.39c-.55-.78-1.24-1.36-2-1.16-1.93.52-4.9,1.55-3.1,6.07,1.3,3.23,3.72,1.63,5,.47a1,1,0,0,1,1.5.19l.47.73a1,1,0,0,0,.75.45c2,.17,9.34.79,11.07,1.12,2,.39,7.06,1.68,7.06,1.68l-13.42-.77h-3.7a1,1,0,0,1-.37-.08c-.6-.25-2.59-1-3.57-.7-1.16.39-4.78-.51-4.78,2.45s4,4.78,4.78,5,9.74,2,11.06,2.29a.91.91,0,0,1,.31.12h0a1,1,0,0,1-.78,1.81c-5.19-1.48-11.15-2.89-12.14-1.9a7.76,7.76,0,0,0-2.19,4.52c0,.38-.78-7-3.23-5.68s-3.7,2.81-3.74,6.84c-.06,5.54,6.71,3.35,7.22,2.32s.78-2.84.78-2.45a17.72,17.72,0,0,0,2.25,2.88,1,1,0,0,0,.48.29l12.82,3.51-.89.28-14.37-1.54h-.06c-.27,0-2.18-.35-2.3,0s.39.74,0,1.34-.51.46,0,1.37.39,1.29,1.81,2.06a6,6,0,0,0,3.87.78,2.38,2.38,0,0,0,1-.91s0-4.13,3.59-2.71,4.8,2.07,4.09,2.45-2.24,4.93-2.63,6.07a1,1,0,0,1-.27.42,14,14,0,0,0-1.19,1.26c-1,1.16-4.1,10.06-4.62,11.22a7.16,7.16,0,0,1-2.6,2.25A1,1,0,0,1,797.8,390.88Z"/><path class="cls-63" d="M913.65,268.17h0a1.2,1.2,0,0,0-2.3.06c-5.9,21.13-35.07,125.64-35.25,126.46.48-2.51,4.45-16.64,4.45-16.64l31.78-113.32a1,1,0,0,0,0-.52c-.1-.49-.54-1.45-2.49-2-2.71-.77-40.64-9.87-40.64-9.87s-1.25.35-.84-1.36l2.17-9a1.09,1.09,0,0,1,.05-.17c.26-.63,1.79-5.12-5.06-6.7L856.41,233l-.18,0a21.81,21.81,0,0,0-2.5,0c-2.92.15-7.44,1-8.62,4.5l-8,24.75a1.21,1.21,0,0,0,1,1.56l6.27.94.14,0c.55.15,3.94,1.23,3.73,4.09a1.19,1.19,0,0,1-.71,1l-1.3.59a1.1,1.1,0,0,1-.5.11H834.05a1.21,1.21,0,0,0-1.21,1.21v2.34a1.24,1.24,0,0,1,0,.27c-.15.67-.86,3.54-1.71,3.54s-1.36,1.93-1.36,1.93,9.1.78,9.68,2.52a3.37,3.37,0,0,1,.13.62,7.19,7.19,0,0,1,.05,1.16,17.06,17.06,0,0,1-.18,3.28,1.19,1.19,0,0,1-1.18.94H829s-1.55-.2-1.55,1.16.19,7.74-2.52,8.13l.42.62a1.2,1.2,0,0,0,1,.54c2.06,0,8.46.24,8.46,2.52,0,0,.9,3.57-.63,5a2.33,2.33,0,0,1-1.49.59c-3,.17-8.91,0-10.33,0a1.12,1.12,0,0,0-.77.25,2,2,0,0,0-.52,2.06c.28,1.37.45,3.8-.42,5.38a1.21,1.21,0,0,0,.79,1.81c2.59.5,6.28,1.43,6.41,2.68.05.49.17,1.07.26,1.67h0c0,.13,0,.26,0,.39a5.56,5.56,0,0,1-.21,2.15,3.4,3.4,0,0,1-2.81,1.9h-8.17a1.21,1.21,0,0,0-1.21,1.17,17.26,17.26,0,0,0,.09,2c.14,1.41-.65,4.16-1.08,5.55a1.21,1.21,0,0,1-1.15.84h-.68a9.2,9.2,0,0,0,5.23,2.13c2.86.32,4.94,1.16,5.26,3.49a7.53,7.53,0,0,1-1,4c-1.19,1.4-3.11,1.37-4.38,1.23s-4-.69-5.71-1.05a1.19,1.19,0,0,0-1.44,1.15c0,2.48-.35,7.26-2.14,7.54-2.42.39-1.35,1.75-1.35,1.75s9.48,1.45,9.87,3.19c.32,1.47,1.46,7-1.84,8.09a4.75,4.75,0,0,1-2.32.14L809,366a1.2,1.2,0,0,0-1.22.71L797.16,391a1.19,1.19,0,0,0-.09.36,51,51,0,0,1-1.07,6.83,1.2,1.2,0,0,0,.92,1.51l7.64,1.55,1.22.32c6.71,1.9,7.26,4.78,7,6.32a1.19,1.19,0,0,0,.94,1.35c1.4.3,3.62.75,5,1,1.75.32,1.41-2.36,1.23-3.33a1.2,1.2,0,0,1,.08-.7c1.88-4.22,6.7-4.51,8.93-4.4a1.24,1.24,0,0,0,1.29-1,10,10,0,0,1,2.79-4.75,1.3,1.3,0,0,1,.43-.27c5.58-2,18.52,3.07,19.28,3.37l.07,0a173,173,0,0,0,16.8,4.48c6.58,1.2,6.31,0,6.31,0l37.76-134.84A1.26,1.26,0,0,0,913.65,268.17Zm-84,117.22-.18.19Zm-.42.46-.14.17A2.09,2.09,0,0,1,829.22,385.85Zm.68-.68c.13-.1.26-.2.4-.29C830.16,385,830,385.07,829.9,385.17Zm.5-.35a3.19,3.19,0,0,1,1.2-.42h0A3.37,3.37,0,0,0,830.4,384.82Zm1.25-.43a3.35,3.35,0,0,1,.71,0,3.35,3.35,0,0,0-.71,0Zm.75,0a4.09,4.09,0,0,1,.81.15A4.09,4.09,0,0,0,832.4,384.38Zm39.33,10.4h0l-9.87-2.25h0l9.83,2.24h.08a11.72,11.72,0,0,0,3.9.25A13.07,13.07,0,0,1,871.73,394.78Z"/><g class="cls-64"><path class="cls-35" d="M823.39,340.41a7.53,7.53,0,0,1-1,4,4.42,4.42,0,0,0,.94-2.26A5.36,5.36,0,0,0,823.39,340.41Z"/><polygon class="cls-35" points="828.07 320.78 828.07 320.78 828.07 320.78 828.07 320.78"/><path class="cls-35" d="M828.12,321.17a5.56,5.56,0,0,1-.21,2.15A4.32,4.32,0,0,0,828.12,321.17Z"/><path class="cls-35" d="M913.65,268.17h0a1.2,1.2,0,0,0-2.3.06c-5.9,21.13-35.07,125.64-35.25,126.46a.36.36,0,0,1-.12.18l-.07.05a1,1,0,0,1-.23.1h0a13.07,13.07,0,0,1-3.93-.25h0l-9.83-2.24-.15,0-17-4.87-1.24-.31c-2-.51-6.28-1.6-10.29-2.79a3.73,3.73,0,0,0-1.56-.14h0a4.25,4.25,0,0,0-2.88,2.12,7.85,7.85,0,0,0-1.11,2.25,26.75,26.75,0,0,0-.85,2.67c-.75,2.59-1.41,5.38-1.77,6.39-.08.16-.15.31-.24.46-.94,1.17-3.85.44-3.85.44a91.63,91.63,0,0,1-11.74-2.84c-6.06-1.94-4.39-4-4.39-4s5.42-21,5.81-23.1a2.76,2.76,0,0,1,.3-.85,1.21,1.21,0,0,0-.92-1.81L809,366a1.2,1.2,0,0,0-1.22.71L797.16,391a1.19,1.19,0,0,0-.09.36,51,51,0,0,1-1.07,6.83,1.2,1.2,0,0,0,.92,1.51l7.64,1.55,1.22.32c6.71,1.9,7.26,4.78,7,6.32a1.19,1.19,0,0,0,.94,1.35c1.4.3,3.62.75,5,1,1.75.32,1.41-2.36,1.23-3.33a1.2,1.2,0,0,1,.08-.7c1.88-4.22,6.7-4.51,8.93-4.4a1.24,1.24,0,0,0,1.29-1,10,10,0,0,1,2.79-4.75,1.3,1.3,0,0,1,.43-.27c5.58-2,18.52,3.07,19.28,3.37l.07,0a173,173,0,0,0,16.8,4.48c6.58,1.2,6.31,0,6.31,0l37.76-134.84A1.26,1.26,0,0,0,913.65,268.17Z"/><path class="cls-35" d="M828.12,321.17c0-.24,0-.38,0-.39S828.1,321,828.12,321.17Z"/><path class="cls-35" d="M848.13,269.56c1.42-.64-.3-2.55-.3-2.55,1.1.21,1.64,2.48,1.86,3.71a1.19,1.19,0,0,0,.9,1l11.25,2.76a1.22,1.22,0,0,0,1.45-.84l1.9-6.67a1.21,1.21,0,0,0-.92-1.51l-18-3.72a1.21,1.21,0,0,1-.91-1.55l8.07-25.3L852,233.13c-2.72.38-5.88,1.46-6.84,4.33l-8,24.75a1.21,1.21,0,0,0,1,1.56l6.27.94.14,0C845.11,264.91,849,266.16,848.13,269.56Z"/><path class="cls-35" d="M817.26,358.21c.32,1.47,1.46,7-1.84,8.09a2.3,2.3,0,0,0,1.93-2,5.11,5.11,0,0,0,.45-3.31,1.21,1.21,0,0,1,1.9-1.13,3.64,3.64,0,0,1,1.07,3.66,1.19,1.19,0,0,0,.76,1.35l10.13,3.75a1.05,1.05,0,0,0,.7,0c2.69-.8,3.09-5.23,3.13-7.21a1.2,1.2,0,0,0-.91-1.2l-11.35-2.86s-5.29-1.42-6.71-2.33c-1.16-.73,1.29-6.54,2.23-8.65a1.18,1.18,0,0,1,1.1-.71,3,3,0,0,0,2.56-1.35c-1.19,1.4-3.11,1.37-4.38,1.23s-4-.69-5.71-1.05a1.19,1.19,0,0,0-1.44,1.15c0,2.48-.35,7.26-2.14,7.54-2.42.39-1.35,1.75-1.35,1.75S816.87,356.47,817.26,358.21Z"/><path class="cls-35" d="M826.54,345.18a1.2,1.2,0,0,0,.71,1.31c2.26,1,8.06,3.33,10.43,2.82s3.17-5.11,3.48-7.28a1.2,1.2,0,0,0-.94-1.34c-3.66-.79-15.63-3.38-18-4-2.11-.58.54-6.66,2-9.71a1.21,1.21,0,0,0-1.09-1.73h-6.2a1.21,1.21,0,0,0-1.21,1.17,17.26,17.26,0,0,0,.09,2c.14,1.41-.65,4.16-1.08,5.55a1.21,1.21,0,0,1-1.15.84h-.68a9.2,9.2,0,0,0,5.23,2.13c2.86.32,4.94,1.16,5.26,3.49h0C827,340.42,826.85,343.59,826.54,345.18Z"/><path class="cls-35" d="M827.91,323.32a3.4,3.4,0,0,1-2.81,1.9A2.66,2.66,0,0,0,827.91,323.32Z"/><path class="cls-35" d="M834.77,301.31s.9,3.57-.63,5a2.56,2.56,0,0,0,1.17-1.34,1.21,1.21,0,0,1,2.29-.1,8.05,8.05,0,0,1,.4,2.73,1.21,1.21,0,0,0,1,1.21l10.69,1.62a1.22,1.22,0,0,0,1.32-.8l1.54-4.47a1.19,1.19,0,0,0-.89-1.57L834.37,300a1.2,1.2,0,0,1-.94-1.39,18.82,18.82,0,0,1,.63-2.56,34.92,34.92,0,0,1,3.58-5.78,1.2,1.2,0,0,0-1-1.9H829s-1.55-.2-1.55,1.16.19,7.74-2.52,8.13l.42.62a1.2,1.2,0,0,0,1,.54C828.37,298.8,834.77,299,834.77,301.31Z"/><path class="cls-35" d="M839.42,282.34a3.37,3.37,0,0,1,.13.62c4,0,4.12,3.19,3.89,4.91a1.19,1.19,0,0,0,.91,1.32l11.13,2.7a1.19,1.19,0,0,0,1.41-.75l1.86-4.95a1.2,1.2,0,0,0-.84-1.59l-18-4.42a1.21,1.21,0,0,1-.88-1.48l1.74-6.66a1.2,1.2,0,0,0-1.16-1.51h-5.55a1.21,1.21,0,0,0-1.21,1.21v2.34a1.24,1.24,0,0,1,0,.27c-.15.67-.86,3.54-1.71,3.54s-1.36,1.93-1.36,1.93S838.84,280.6,839.42,282.34Z"/><path class="cls-35" d="M833.47,326.55l10,3.57a1.19,1.19,0,0,0,.62.05,2.26,2.26,0,0,0,1.45-.86c.48-.67,1-4.32,1.17-6.16a1.21,1.21,0,0,0-.92-1.31l-16.74-3.93a1.2,1.2,0,0,1-.93-1.17v-3.05a1.26,1.26,0,0,1,.22-.7l2.9-4.09a1.21,1.21,0,0,0-1-1.91c-3.06.05-6.83,0-7.93-.06a1.12,1.12,0,0,0-.77.25,2,2,0,0,0-.52,2.06c.28,1.37.45,3.8-.42,5.38a1.21,1.21,0,0,0,.79,1.81c2.59.5,6.28,1.43,6.41,2.68,0,.24.06.5.11.77a1.2,1.2,0,0,0,1,1c3.6.57,3.88,3.09,3.75,4.45A1.2,1.2,0,0,0,833.47,326.55Z"/></g><ellipse class="cls-31" cx="717.55" cy="350.56" rx="3.71" ry="3.13" transform="translate(221.67 976.57) rotate(-77.65)"/><ellipse class="cls-31" cx="724.45" cy="332.5" rx="3.71" ry="3.13" transform="translate(244.75 969.11) rotate(-77.65)"/><ellipse class="cls-31" cx="731.16" cy="313.45" rx="3.71" ry="3.13" transform="translate(268.63 960.68) rotate(-77.65)"/><ellipse class="cls-31" cx="738.22" cy="294.36" rx="3.71" ry="3.13" transform="translate(292.83 952.57) rotate(-77.65)"/><ellipse class="cls-31" cx="744.54" cy="276.3" rx="3.71" ry="3.13" transform="translate(315.44 944.55) rotate(-77.65)"/></g></g></svg>