<svg xmlns="http://www.w3.org/2000/svg" xmlns:xlink="http://www.w3.org/1999/xlink" viewBox="0 0 1697.43 748.02"><defs><style>.cls-1,.cls-35,.cls-5{fill:none;}.cls-2{fill:#e2e2e2;}.cls-3{clip-path:url(#clip-path);}.cls-4{fill:#181c1e;}.cls-5{stroke:#181c1e;}.cls-35,.cls-5{stroke-miterlimit:10;}.cls-6{fill:#979481;}.cls-7{fill:#ae742a;}.cls-8{fill:#e6a600;}.cls-9{fill:#af5212;isolation:isolate;}.cls-10{fill:#261910;}.cls-11,.cls-15{fill:#af6f27;}.cls-11{opacity:0.61;}.cls-12{fill:#ca992c;}.cls-13{fill:#222;}.cls-14{fill:#fff7dc;}.cls-15,.cls-19,.cls-21,.cls-23,.cls-28,.cls-32,.cls-38{opacity:0.5;}.cls-16{fill:#e6e7e7;}.cls-17{fill:#312b1f;opacity:0.4;}.cls-18{fill:#a28b48;}.cls-19{fill:#2b2213;}.cls-20{fill:#89743f;}.cls-22,.cls-23{fill:#fdfaf1;}.cls-24{fill:#bf8f3e;opacity:0.8;}.cls-25{fill:#151515;}.cls-26{fill:#c9c9c9;}.cls-27{fill:#bababa;}.cls-28{fill:#9b9b9b;}.cls-29{fill:#6d6c67;}.cls-30{fill:#090a0c;opacity:0.85;}.cls-31{fill:#994207;}.cls-33{fill:#e5d7ca;}.cls-34{fill:#c9c6b9;}.cls-35{stroke:#a6a395;stroke-width:7px;}.cls-36{fill:#0a0c09;}.cls-37,.cls-38{fill:#515151;}</style><clipPath id="clip-path"><rect class="cls-1" width="1697.43" height="747.36"/></clipPath></defs><g id="Layer_8" data-name="Layer 8"><rect class="cls-2" width="1697.43" height="747.36"/><g class="cls-3"><polygon class="cls-4" points="1014.19 -90.1 856.26 473.95 -66.97 283.5 -66.97 -90.1 1014.19 -90.1"/><polygon class="cls-5" points="-66.97 283.5 -66.97 -90.1 1014.19 -90.1 856.26 473.95 -66.97 283.5"/><polygon class="cls-6" points="-66.97 283.5 856.26 473.95 1014.19 -90.1 1030.45 -90.1 865.55 500.27 -66.97 309.82 -66.97 283.5"/><path class="cls-7" d="M913.76,277.47l81.9,20.67a5.07,5.07,0,0,1,3.67,6.22L967.62,424.08a5.08,5.08,0,0,1-6.08,3.64l-87.49-20.65a5.07,5.07,0,0,1-3.68-6.45l37.3-119.73A5.08,5.08,0,0,1,913.76,277.47Z"/><path class="cls-8" d="M881,380.83l89.45,21.84a5.08,5.08,0,0,1,3.2,7.46L971,414.85a5.07,5.07,0,0,1-5.68,2.38l-88.11-23a5.08,5.08,0,0,1-3.47-6.7l1.36-3.61A5.08,5.08,0,0,1,881,380.83Z"/><path class="cls-8" d="M887,363.15l90,19.44a5.07,5.07,0,0,1,3.39,7.37l-2.58,4.79a5.08,5.08,0,0,1-5.61,2.54L883.47,376.7a5.07,5.07,0,0,1-3.65-6.6l1.26-3.65A5.08,5.08,0,0,1,887,363.15Z"/><path class="cls-8" d="M894.18,343.36l90,19.44a5.08,5.08,0,0,1,3.4,7.37L985,375a5.08,5.08,0,0,1-5.62,2.53l-88.69-20.58a5.08,5.08,0,0,1-3.65-6.6l1.27-3.65A5.08,5.08,0,0,1,894.18,343.36Z"/><path class="cls-8" d="M898.6,325.38l90,19.44a5.07,5.07,0,0,1,3.4,7.37L989.42,357a5.08,5.08,0,0,1-5.62,2.53l-88.69-20.58a5.08,5.08,0,0,1-3.65-6.6l1.27-3.65A5.05,5.05,0,0,1,898.6,325.38Z"/><path class="cls-8" d="M904,306.29l90,19.44a5.09,5.09,0,0,1,3.4,7.38l-2.58,4.78a5.08,5.08,0,0,1-5.62,2.54l-88.68-20.58a5.08,5.08,0,0,1-3.65-6.61l1.26-3.65A5.08,5.08,0,0,1,904,306.29Z"/><path class="cls-8" d="M908.94,287.18l90,19.44a5.08,5.08,0,0,1,3.39,7.38l-2.58,4.78a5.06,5.06,0,0,1-5.61,2.54l-88.69-20.58a5.08,5.08,0,0,1-3.65-6.61l1.26-3.65A5.08,5.08,0,0,1,908.94,287.18Z"/><path class="cls-9" d="M999.17,298.63,962.71,425.51a4.22,4.22,0,0,1-.26.67c-.47,1-1.73,4.69,6.32,6.48,9.29,2.07,61.68,14.45,61.68,14.45l272.78,66.58s333.27,86.54,389.51,114.5l.33.18,54.6,33a4.38,4.38,0,0,0,6.65-3.75V529.39a4.36,4.36,0,0,0-2.54-4c-19.91-9.19-153.08-69.82-261.2-97.92,0,0-405-117.22-486.41-132A4.39,4.39,0,0,0,999.17,298.63Z"/><path class="cls-10" d="M857.65,432.13l3,.66a7.32,7.32,0,0,0,8.63-5.17l42.48-151.71a7.31,7.31,0,0,0-5.41-9.1l-17.23-3.95a7.32,7.32,0,0,0-7.94,3.42L802,400.47a7.34,7.34,0,0,0-.9,5L805,427.93a7.32,7.32,0,0,0,4.77,5.64l24.76,8.74a7.31,7.31,0,0,0,6.37-.73l5.35-3.41a6,6,0,0,0,1-.79l3.8-3.49A7.31,7.31,0,0,1,857.65,432.13Z"/><path class="cls-11" d="M725.42,264.53l-1.29,13.81-4.26,5.78L718.71,298l-6.21,5.11v15.43l-5.56,2.61L705,337.3l-4.25,3.11-.42,11.49L695,359.09s-3,7.51,0,9.7,20.6,5.81,20.6,5.81S761,335.69,761.55,334s-12.39-66.48-12.39-66.48Z"/><path class="cls-12" d="M750.78,264.53a49.58,49.58,0,0,0-12.72-3.87c-7.22-1.16-11.61-2.45-12.64,3.87,0,0-1,1.68,4.9,2.71s13.42,1.53,13.42,1.53l1.81,1.76,1.35,2.32.2,4.25-2.1,4.24h-2l-18.84-3s-4.65-.45-5.16,3,3.09,4,7,4.89,11.35,2.1,11.35,2.1l1.77.95a3.27,3.27,0,0,1,1.71,3.27c-.35,3.09-1.62,7.28-5.92,6.91-5.56-.48-21.3-5-22.59-1.44s-1.29,6.18,5.93,7.06a60.26,60.26,0,0,1,13,3.1s2.45,1.16,2.94,3.1c.27,1.05-1.44,3.31-1.44,3.31l-.67,1.76a2.88,2.88,0,0,1-3.17,1.83L715.61,316s-8-2.13-9.29,2.54,9,5.71,9,5.71l9.24,2.65a3.94,3.94,0,0,1,2.33,1.48l1.3,1.62.28,3L725,336.69a3.36,3.36,0,0,1-2.84,1L705,335.37s-4.16-2-4.61,3.17c-.52,5.86,13.13,6.41,13.13,6.41s8.51,1,8.22,2.42c-.19.95-1,.53-.45,2s-3.61,5.73-3.61,5.73l-17.35-3.21s-5.36-1.82-6.39,4.63,24.51,8.72,24.51,8.72S783.38,282.73,750.78,264.53Z"/><ellipse class="cls-12" cx="858.73" cy="196.32" rx="49.96" ry="63.72" transform="translate(601.6 1038.83) rotate(-85.91)"/><path class="cls-13" d="M817.08,205.09s-7.92-24.35,7.21-40.24c0,0,18.74-18.49,53.09-10.43,0,0,25.14,7.72,26.88,39.27,0,0,2.13,26.13-26.14,33.55C878.12,227.24,827.13,235.77,817.08,205.09Z"/><path class="cls-14" d="M852.9,397.18s-16-6.2-20.64-3.74a22.42,22.42,0,0,0-7,5.51l-4,2.65c-.29.22-1.84,1.25-3,2s-5.61,4.13-5.61,4.13l-1.32,5.42s10.59,4.77,12.05,5,4.17,1.29,5.08,0,1.8-1.31,1.8-2.72a7.28,7.28,0,0,0-1-3.09s3.13,1.47,2.86-2.1,0-4.45,0-4.45,4.88,3.71,10.56,3.71h6.45a8.37,8.37,0,0,1,1.29,2.46c0,.64-.64,3.87-.9,5.54a22.87,22.87,0,0,0-.39,3.88,7.83,7.83,0,0,0,.9,3,4.32,4.32,0,0,0,0,2.33c.39,1,1,3.22,1.68-.91s1.16-6.45,1.16-7.09,4.26-7.23,0-10.2l-1.55-1.68S855.87,399.89,852.9,397.18Z"/><path class="cls-14" d="M708.13,414.6V389.82a44.34,44.34,0,0,1,2.58-13.42c2.58-7.22,4.64-13.42,4.64-13.42a24.12,24.12,0,0,0,2.33-1.87c1.55-1.35,1.16-3.09,0-6s2.9-7.55,6-7.93,5.61-4.45,3.87-8.52-3.7-6.77.57-9.68,6.59-4.64,5-9.67.39-7.94,2.52-9.49,5.42-4.84,3.87-8.13-1.94-9.09,1.35-11.42,5.81-2.13,4.65-6.77-2.52-8.32,1.35-10.65,5.23-5.61,3.1-10.83,4.65-9.68,6.19-9.68,3.49-4.07,2.52-8.52c0,0-1.42-2.64.26-7s12.13-28.9,12.13-28.9,1.16-2.33,5.93-1S827.74,218,827.74,218s4.52.81,4.23,3.52l29.22,6.67s6.49,1.65,4.64,9.1L856.32,233s-9.55.2-10.71,3.1,9,38.65,9,38.65-1.57,19-3.5,17.41,1,23.33,0,26.42-9.84,18.86-9.84,18.86l-7.15,36.92L817.29,387s-8.9,1.92-8.52,3.08-3,5-3,5l.16,6.44s6.77.58,6.77,6.2l-2.52,10.32.13,12.77,29,8.65a6,6,0,0,0,7.49-1.68,47,47,0,0,0,5.42-8.9,3.74,3.74,0,0,1,1.39,4.77c-1.3,3.23-4.07,12.49-15.71,9.81-10.41-2.39-125.81-27.23-125.81-27.23S708.13,415.63,708.13,414.6Z"/><path class="cls-15" d="M830.45,222.34l-6.71,22.58-2.15,6.5-1.94,7.38s2.16-.83,2.67,0,1.29,1.86,1.29,1.86.26,1.42.39,1.81a5.68,5.68,0,0,0,1,2.06,2.56,2.56,0,0,1,.63,1.42,22.32,22.32,0,0,0,.9-2.06c.26-.78-.77-1.29,1-1.42a4.89,4.89,0,0,0,2.13-.39l7,1.48.94-7.15-1.83-2.56-1.68-1.21-.75-.53-6.57-4.58,6.57,3.89s.17-.31.75-1.47a34.1,34.1,0,0,0,1.34-3.74l.26-2.07s.13-.64,1-.51a8.16,8.16,0,0,1,1.48.51,9.29,9.29,0,0,0,1.94,0s.64-.9.77,0a11,11,0,0,1,0,2.07c0,.9.06,1.93.06,1.93l4.65-12.06,1.23-1.25,3.49-1.38s-2.85.11-3.49.11-.65,0-3.23-.62-4.26-1.05-6.9-1.57-3.23-.39-3.84-.77-1.39.13-1.64-.91a14.56,14.56,0,0,1-.39-2.71c0-.38-.13-.9-.13-1.29s-.39,3.36-1,4.13a3.11,3.11,0,0,0-1,1.94,7.44,7.44,0,0,0-.25,2.84c.13,1.16.77,1.16,1.22,1.8s-.32,1.16,1.23.91.46-.91,2.42-.39,2.61.26,3.32.64,2-.38,2.9.39,1.29,1,1.42,1.81,3-.52.13.77a12.9,12.9,0,0,1-4.45,1.16,6.52,6.52,0,0,1-3.32-.64,18.72,18.72,0,0,0-3.65-1.68c-1-.26.32-.77-1-.26a3.42,3.42,0,0,0-2.32,3.06,13.36,13.36,0,0,0-.13,2c0,1-1.42.65-1.42.65Z"/><path class="cls-16" d="M878.31,254.52s-.76-3.05.79-3.63l1.25-.87s-.87-8.13,2.91-7.84,16.55,4,16.55,4,2.13,2.33,1,3.2a9.4,9.4,0,0,0-2.51,4c0,.48.29,2.8.29,3.09s.19,4.26.19,4.26S880.32,259.22,878.31,254.52Z"/><path class="cls-17" d="M897.85,245.59v3.65a8.72,8.72,0,0,1-.66,2.18c-.38.63-.29,1.31-1,1.4s-3.2,0-3.2,0L880.35,250l1.84,1.4,13.16,3.63a20,20,0,0,1,1.75,2.42c.09.38.29,2.42.29,2.42h1.31l-.41-6,.82-2.43,1.66-2.08.32-1-.36-.92Z"/><path class="cls-18" d="M824.26-9.11C766.11-9.11,719,22.65,719,61.83c0,1.42.07,2.83.19,4.23,3.25,37.21,49.06,66.71,105.1,66.71s101.85-29.5,105.1-66.71c.12-1.4.19-2.81.19-4.23C929.55,22.65,882.41-9.11,824.26-9.11Z"/><polygon class="cls-19" points="856.26 473.95 865.55 500.27 -66.97 309.82 -66.97 283.5 856.26 473.95"/><path class="cls-15" d="M708.31,387s45.63,7.4,60.27,13.4c6,2.17,36.19,13.16,37.94,13.16s5.87-8.43,5-9.28l1.17,3.48-.83,3.42-1.19,4.88-.5,2,.13,12.77,31.07,9.26,3.74-.76,4.34-5.28,2.79-5.15,1.26,1.32a8.08,8.08,0,0,1,.61,2.58l-2.22,4.87-2.35,3.23-2.69,2.45-4.9,1.17L738.54,422l-27.22-5.84-3.19-1.52v-2.78l0-22.78v-.11Z"/><path class="cls-1" d="M875.91,394.92a.83.83,0,0,1-.23.1A1,1,0,0,0,875.91,394.92Z"/><path class="cls-1" d="M815.42,366.3a6.51,6.51,0,0,1-2.32.14A4.75,4.75,0,0,0,815.42,366.3Z"/><path class="cls-1" d="M839.55,283h0s0,.48.05,1.16A7.19,7.19,0,0,0,839.55,283Z"/><path class="cls-1" d="M834.14,306.33a5.7,5.7,0,0,1-1.49.59A2.33,2.33,0,0,0,834.14,306.33Z"/><path class="cls-1" d="M876.1,394.69a.36.36,0,0,1-.12.18A.36.36,0,0,0,876.1,394.69Z"/><path class="cls-1" d="M871.72,394.78h0a13.07,13.07,0,0,0,3.93.25A12,12,0,0,1,871.72,394.78Z"/><path class="cls-1" d="M876.1,394.69c.2-.92,36.29-130.16,36.29-130.16L880.55,378.05S876.58,392.18,876.1,394.69Z"/><path class="cls-13" d="M875.68,395h0Z"/><path class="cls-13" d="M876,394.87l-.07.05Z"/><path class="cls-13" d="M839.6,284.12a25.89,25.89,0,0,1-.57,4.22C839.6,287.77,839.64,285.53,839.6,284.12Z"/><path class="cls-20" d="M824.29-38.62C761-38.62,709.71,0,709.71,47.58s51.3,86.19,114.58,86.19S938.87,95.18,938.87,47.58,887.57-38.62,824.29-38.62Zm0,171.39C766.11,132.77,719,101,719,61.83S766.11-9.11,824.26-9.11,929.55,22.65,929.55,61.83,882.41,132.77,824.26,132.77Z"/><path class="cls-21" d="M824.26,6.85c56,0,101.85,26.19,105.1,59.21.12-1.4.19-2.81.19-4.23,0-39.18-47.14-70.94-105.29-70.94S719,22.65,719,61.83c0,1.42.07,2.83.19,4.23C722.41,33,768.22,6.85,824.26,6.85Z"/><path class="cls-2" d="M820.91,57.17C787.85,56.48,761,77.07,760.55,98s9.77,31,58.79,34.81c33,2.59,59.18-9.15,59.61-30S854,57.85,820.91,57.17Z"/><ellipse class="cls-22" cx="250.74" cy="288.64" rx="25.16" ry="20.08" transform="translate(-12.14 11.01) rotate(-2.46)"/><ellipse class="cls-23" cx="250.74" cy="288.64" rx="34.32" ry="27.39" transform="translate(-12.14 11.01) rotate(-2.46)"/><ellipse class="cls-12" cx="-17.42" cy="211.5" rx="73.74" ry="53.23"/><path class="cls-24" d="M25.94,214.41c0,15.83-17.52,27.07-39,28.66-28.55,2.11-39-12.83-39-28.66s17.46-28.65,39-28.65C14.71,185.76,25.94,198.59,25.94,214.41Z"/><path class="cls-25" d="M842.52,173.76s-17.75,6-18.26,7.93,2.39,11.62,3.93,12.2,15.68-3.53,15.68-3.53,3.1-2.86,7.26,2.56,8.22,14.32,10.55,14.52,14.9-3.49,14.9-3.49,1.94-1.53.77-7.63-3.09-10-1-10.76,15.48-4.45,15.48-4.45,2.52-1,1.16-4.84a46.54,46.54,0,0,0-3.41-7.35s-.27-1.36-4.72-1.16-13.74,1.16-13.74,1.16-4.27-.58-5.33-3.1a81.34,81.34,0,0,0-4.73-8.13s.38-3.48-8.91-1.74-9.09,3.29-9.09,3.29S843.85,173.3,842.52,173.76Z"/><path class="cls-26" d="M602.94,340.87l.67,7.06,8.39,1.76s1.94.55,1.42,2.21-7,13.35-7,13.35-1.55,3.28-4.39,2.77-5.54-1.29-5.54-1.29l-55.75-13s-5.29-.86-3.87-3,10.45-16.52,10.45-16.52a4.79,4.79,0,0,1,3.1,0,53.7,53.7,0,0,0,5.68.9Z"/><polygon class="cls-27" points="549.93 354.98 549.93 348.79 556.63 331.44 565.16 333.05 559.48 350.08 559.23 357.44 549.93 354.98"/><polygon class="cls-27" points="587.72 362.8 587.72 356.61 594.68 338.55 602.94 340.87 597.26 357.9 597.01 365.25 587.72 362.8"/><path class="cls-28" d="M549.94,348.79l9.54,1.29,28.24,6.53,9.54,1.29,5.68-17,.67,7.06-2.71,12.73,2.71,4.59h2.84s-1.39,3.08-3.51,2.8l-62.17-14.27s-6.44-.76-3.22-4.07l4.27-6.73s-4,6.2-1.05,7.23a31.92,31.92,0,0,0,6.71,1.35l2.46.34Z"/><polygon class="cls-13" points="565.16 333.05 594.68 338.55 587.72 356.61 587.72 362.8 559.23 357.44 559.48 350.08 565.16 333.05"/><path class="cls-26" d="M620.94,298l.67,7.06,8.39,1.76s1.94.55,1.42,2.21-7,13.36-7,13.36-1.55,3.27-4.39,2.76-5.54-1.29-5.54-1.29l-55.75-12.95s-5.29-.86-3.87-3.05,10.45-16.52,10.45-16.52a4.79,4.79,0,0,1,3.1,0,53.7,53.7,0,0,0,5.68.9Z"/><polygon class="cls-27" points="567.93 312.13 567.93 305.94 574.63 288.59 583.16 290.2 577.48 307.23 577.23 314.59 567.93 312.13"/><polygon class="cls-27" points="605.72 319.95 605.72 313.76 612.68 295.7 620.94 298.02 615.26 315.05 615.01 322.4 605.72 319.95"/><path class="cls-28" d="M567.94,305.94l9.54,1.29,28.24,6.53,9.54,1.29,5.68-17,.67,7.06-2.71,12.73,2.71,4.6h2.84s-1.39,3.07-3.51,2.79l-62.17-14.27s-6.44-.76-3.22-4.07l4.27-6.73s-4,6.2-1.05,7.23a32.26,32.26,0,0,0,6.71,1.36l2.46.33Z"/><polygon class="cls-13" points="583.16 290.2 612.68 295.7 605.72 313.76 605.72 319.95 577.23 314.59 577.48 307.23 583.16 290.2"/><path class="cls-26" d="M636.81,255.17l.67,7.06,8.39,1.77s1.94.54,1.42,2.2-7,13.36-7,13.36-1.55,3.27-4.38,2.76-5.55-1.29-5.55-1.29l-55.74-12.95s-5.3-.86-3.88-3.05,10.46-16.52,10.46-16.52a4.84,4.84,0,0,1,3.09,0,53.7,53.7,0,0,0,5.68.9Z"/><polygon class="cls-27" points="583.81 269.29 583.81 263.09 590.5 245.75 599.03 247.35 593.36 264.38 593.1 271.74 583.81 269.29"/><polygon class="cls-27" points="621.59 277.11 621.59 270.91 628.55 252.85 636.81 255.17 631.13 272.2 630.88 279.56 621.59 277.11"/><path class="cls-28" d="M583.81,263.09l9.54,1.29,28.24,6.53,9.55,1.29,5.67-17,.67,7.06L634.77,275l2.71,4.6h2.84s-1.39,3.07-3.51,2.79l-62.16-14.27s-6.45-.76-3.23-4.07l4.27-6.73s-4,6.2-1,7.23a32.1,32.1,0,0,0,6.7,1.36l2.46.33Z"/><polygon class="cls-13" points="599.03 247.35 628.55 252.85 621.59 270.91 621.59 277.11 593.1 271.74 593.36 264.38 599.03 247.35"/><path class="cls-26" d="M595.08,47.15l.93,7,8,1.43s1.84.46,1.43,2.14-6,13.63-6,13.63-1.31,3.34-4,2.93-5.27-1.06-5.27-1.06L537.2,62.55s-5-.64-3.76-2.89,9.11-16.93,9.11-16.93a4.31,4.31,0,0,1,2.91-.12,49,49,0,0,0,5.37.67Z"/><polygon class="cls-27" points="545.87 63.39 545.6 57.2 551.14 39.6 559.24 40.86 554.63 58.1 554.7 65.46 545.87 63.39"/><polygon class="cls-27" points="581.71 69.67 581.44 63.49 587.22 45.16 595.08 47.15 590.47 64.39 590.54 71.75 581.71 69.67"/><path class="cls-28" d="M545.6,57.2l9,.9,26.81,5.39,9,.9,4.61-17.24.93,7L594,67l2.74,4.48,2.67-.11s-1.18,3.13-3.18,2.93l-59-11.75s-6.09-.49-3.2-3.93l3.72-6.9s-3.44,6.35-.67,7.27a28.56,28.56,0,0,0,6.37,1.08l2.31.23Z"/><polygon class="cls-13" points="559.24 40.86 587.22 45.16 581.44 63.49 581.71 69.67 554.7 65.46 554.63 58.1 559.24 40.86"/><path class="cls-26" d="M162.83,14.44l.93,7,8,1.43s1.84.46,1.43,2.14-6,13.63-6,13.63-1.31,3.34-4,2.93-5.27-1.06-5.27-1.06L105,29.84s-5-.64-3.77-2.89S110.3,10,110.3,10a4.27,4.27,0,0,1,2.91-.13,49.09,49.09,0,0,0,5.38.67Z"/><polygon class="cls-27" points="113.62 30.68 113.35 24.49 118.9 6.89 126.99 8.15 122.38 25.39 122.45 32.75 113.62 30.68"/><polygon class="cls-27" points="149.46 36.97 149.19 30.78 154.97 12.45 162.83 14.44 158.22 31.68 158.3 39.04 149.46 36.97"/><path class="cls-28" d="M113.35,24.49l9,.9,26.81,5.39,9,.9,4.61-17.24.93,7-2,12.83,2.75,4.48,2.66-.11S166,41.79,164,41.59L105,29.84s-6.09-.49-3.21-3.93l3.73-6.9s-3.45,6.35-.68,7.27a28.56,28.56,0,0,0,6.37,1.08l2.31.24Z"/><polygon class="cls-13" points="126.99 8.15 154.97 12.45 149.19 30.78 149.46 36.97 122.45 32.75 122.38 25.39 126.99 8.15"/><path class="cls-27" d="M568.77,96.66,586,100.19a3.82,3.82,0,0,1,2.87,4.93l-9,27.72c-.56,1.73-2.08,2.09-3.89,1.89L552.13,131l-.26,0-139.12-25.6A3.82,3.82,0,0,1,410,99.89l14.5-29a3.81,3.81,0,0,1,4.11-2l20.66,3.79Z"/><path class="cls-29" d="M433,117.05l3.1-24.52,19.1-44.9s.51-3.87,6.71-2.58,97.8,19.61,97.8,19.61,2.58-.77,4.39,4.9,5.68,24.78,5.68,24.78L551.23,138s1,2.84-4.13,2.58-111.23-20.64-111.23-20.64S432.62,120.32,433,117.05Z"/><path class="cls-30" d="M442.06,94.6l100.13,20.13h0a5.62,5.62,0,0,0,5.25-3.62l16.25-42.76,6.12,26-18.95,45.31-3.76.88-108-20-5.47-1.23V114l2.49-21.42,2-4.8S435.12,93.2,442.06,94.6Z"/><path class="cls-27" d="M359.06,52.57l17.23,3.53A3.82,3.82,0,0,1,379.16,61l-9,27.72c-.56,1.73-2.08,2.09-3.89,1.89l-23.87-3.73-.26,0L203,61.27a3.82,3.82,0,0,1-2.73-5.47l14.5-29a3.81,3.81,0,0,1,4.11-2l20.66,3.79Z"/><path class="cls-29" d="M223.32,73l3.1-24.52,19.1-44.9S246-.33,252.23,1,350,20.57,350,20.57s2.58-.77,4.39,4.9,5.68,24.78,5.68,24.78L341.52,93.86s1,2.84-4.13,2.58S226.16,75.8,226.16,75.8,222.91,76.23,223.32,73Z"/><path class="cls-30" d="M232.35,50.51,332.48,70.64h0A5.62,5.62,0,0,0,337.73,67L354,24.26l6.12,26-19,45.32-3.76.87-108-20-5.47-1.23V69.86l2.49-21.42,2-4.8S225.41,49.11,232.35,50.51Z"/><path class="cls-27" d="M609-5.13,625.61-1.6a3.84,3.84,0,0,1,2.76,4.93L619.72,31c-.54,1.73-2,2.09-3.74,1.89L593,29.2l-.25,0L458.86,3.57a3.85,3.85,0,0,1-2.63-5.47l14-29a3.65,3.65,0,0,1,4-2.05L494-29.12Z"/><path class="cls-29" d="M478.38,15.26l3-24.52,18.38-44.89s.5-3.87,6.46-2.58,94.13,19.61,94.13,19.61,2.49-.78,4.23,4.9S610-7.45,610-7.45L592.14,36.16s1,2.83-4,2.58-107-20.65-107-20.65A2.31,2.31,0,0,1,478.38,15.26Z"/><path class="cls-30" d="M487.07-7.19l96.38,20.12h0a5.4,5.4,0,0,0,5-3.61l15.65-42.76,5.88,26L591.78,37.86l-3.62.88-103.93-20L479,17.49V12.16l2.39-21.42,2-4.8S480.39-8.59,487.07-7.19Z"/><path class="cls-31" d="M966.35,412.84s615.33,137,788,226V624.92s-114.58-69.68-784.39-224.55Z"/><path class="cls-31" d="M971.68,394.73s611.16,137,782.64,226V606.81s-113.8-69.68-779.08-224.55Z"/><path class="cls-31" d="M977,376s607,137,777.29,226V588.1s-113-69.68-773.75-224.55Z"/><path class="cls-31" d="M982.19,357.64s603,137,772.13,226V569.73S1642,500.05,985.7,345.17Z"/><path class="cls-31" d="M987.61,338.55s598.72,137,766.71,226V550.63S1642.83,481,991.09,326.08Z"/><path class="cls-31" d="M993.41,319.4s594.2,137,760.91,226V531.48S1643.68,461.8,996.87,306.93Z"/><ellipse class="cls-12" cx="717.55" cy="350.56" rx="3.71" ry="3.13" transform="translate(221.67 976.57) rotate(-77.65)"/><ellipse class="cls-12" cx="724.45" cy="332.5" rx="3.71" ry="3.13" transform="translate(244.75 969.11) rotate(-77.65)"/><ellipse class="cls-12" cx="731.16" cy="313.45" rx="3.71" ry="3.13" transform="translate(268.63 960.68) rotate(-77.65)"/><ellipse class="cls-12" cx="738.22" cy="294.36" rx="3.71" ry="3.13" transform="translate(292.83 952.57) rotate(-77.65)"/><ellipse class="cls-12" cx="744.54" cy="276.3" rx="3.71" ry="3.13" transform="translate(315.44 944.55) rotate(-77.65)"/><g class="cls-32"><path class="cls-13" d="M823.39,340.41a7.53,7.53,0,0,1-1,4,4.42,4.42,0,0,0,.94-2.26A5.36,5.36,0,0,0,823.39,340.41Z"/><polygon class="cls-13" points="828.07 320.78 828.07 320.78 828.07 320.78 828.07 320.78"/><path class="cls-13" d="M828.12,321.17a5.56,5.56,0,0,1-.21,2.15A4.32,4.32,0,0,0,828.12,321.17Z"/><path class="cls-13" d="M913.65,268.17l-.27-.8a.94.94,0,0,0-1.8.05c-5.33,19.09-35.3,126.43-35.48,127.27a.36.36,0,0,1-.12.18l-.07.05a1,1,0,0,1-.23.1h0a13.07,13.07,0,0,1-3.93-.25h0l-9.84-2.24-.14,0-17-4.87-1.24-.31c-2-.51-6.28-1.6-10.29-2.79a3.73,3.73,0,0,0-1.56-.14h0a4.25,4.25,0,0,0-2.88,2.12,7.85,7.85,0,0,0-1.11,2.25,26.75,26.75,0,0,0-.85,2.67c-.75,2.59-1.41,5.38-1.77,6.39-.08.16-.15.31-.24.46-.94,1.17-3.85.44-3.85.44a91.63,91.63,0,0,1-11.74-2.84c-6.06-1.94-4.39-4-4.39-4s5.42-21,5.81-23.1a2.89,2.89,0,0,1,.45-1.1,1,1,0,0,0-.64-1.52l-1.55-.15a.93.93,0,0,0-1,.56l-10.75,24.49a1,1,0,0,0-.07.29,47.24,47.24,0,0,1-1.14,7.09.93.93,0,0,0,.71,1.22l7.92,1.61,1.22.32c7,2,7.3,5,7,6.5a.94.94,0,0,0,.72,1.12c1.38.29,3.79.79,5.25,1,1.79.33,1.39-2.48,1.22-3.39a1,1,0,0,1,.05-.56c1.93-4.44,7-4.61,9.19-4.47a1,1,0,0,0,1-.84,9.87,9.87,0,0,1,2.87-4.92,1,1,0,0,1,.32-.21c5.58-2.09,18.71,3.1,19.35,3.35l0,0a169.9,169.9,0,0,0,16.81,4.48c6.58,1.2,6.31,0,6.31,0l37.76-134.84A1.26,1.26,0,0,0,913.65,268.17Z"/><path class="cls-13" d="M828.12,321.17c0-.24,0-.38,0-.39S828.1,321,828.12,321.17Z"/><path class="cls-13" d="M848.13,269.56c1.42-.64-.3-2.55-.3-2.55,1.15.22,1.7,2.71,1.89,3.89a.93.93,0,0,0,.7.75l11.67,2.86a.94.94,0,0,0,1.13-.66l2-7.18a.94.94,0,0,0-.72-1.18l-18.62-3.84a1,1,0,0,1-.71-1.21l8.29-26-1.15-1.39c-2.8.33-6.24,1.36-7.25,4.38l-8.06,25a.94.94,0,0,0,.76,1.22l6.59,1,.11,0C845,264.89,849,266.13,848.13,269.56Z"/><path class="cls-13" d="M817.26,358.21c.32,1.47,1.46,7-1.84,8.09a2.3,2.3,0,0,0,1.93-2c.66-.94.57-2.62.38-3.81a.94.94,0,0,1,1.3-1c2.07.89,1.94,3.06,1.7,4.23a1,1,0,0,0,.58,1.08l10.42,3.86a.87.87,0,0,0,.55,0c2.87-.77,3.2-5.59,3.21-7.46a.94.94,0,0,0-.71-.92l-11.55-2.91s-5.29-1.42-6.71-2.33c-1.19-.76,1.43-6.87,2.3-8.82a.91.91,0,0,1,.86-.54,3.07,3.07,0,0,0,2.73-1.35c-1.19,1.4-3.11,1.37-4.38,1.23s-4.34-.77-6-1.12a.93.93,0,0,0-1.12.91c0,2.36-.27,7.56-2.14,7.85-2.42.39-1.35,1.75-1.35,1.75S816.87,356.47,817.26,358.21Z"/><path class="cls-13" d="M826.51,345.36a.94.94,0,0,0,.54,1.05c2.11.91,8.19,3.43,10.63,2.9s3.25-5.51,3.51-7.54a.92.92,0,0,0-.73-1c-3.34-.72-15.81-3.41-18.27-4.08-2.2-.6.78-7.18,2.21-10.08a.94.94,0,0,0-.84-1.36h-6.89a1,1,0,0,0-.94.91,15.94,15.94,0,0,0,.08,2.27c.14,1.48-.73,4.43-1.14,5.74a1,1,0,0,1-.9.65h-.87a9.2,9.2,0,0,0,5.23,2.13c2.86.32,4.94,1.16,5.26,3.49h0C827.13,340.42,826.83,343.84,826.51,345.36Z"/><path class="cls-13" d="M827.91,323.32a3.4,3.4,0,0,1-2.81,1.9A2.66,2.66,0,0,0,827.91,323.32Z"/><path class="cls-13" d="M834.77,301.31s.9,3.57-.63,5a2.45,2.45,0,0,0,1.3-1.91.93.93,0,0,1,1.71-.47,7.1,7.1,0,0,1,.85,3.87.94.94,0,0,0,.8,1l11.13,1.69a1,1,0,0,0,1-.62l1.71-5a.94.94,0,0,0-.69-1.23l-17.86-3.75a.94.94,0,0,1-.74-1.07,17.91,17.91,0,0,1,.67-2.83,37.4,37.4,0,0,1,3.88-6.19.94.94,0,0,0-.77-1.49H829s-1.55-.2-1.55,1.16.19,7.74-2.52,8.13l.5.74a.93.93,0,0,0,.78.42C828.09,298.79,834.77,299,834.77,301.31Z"/><path class="cls-13" d="M839.42,282.34a3.37,3.37,0,0,1,.13.62c4.18,0,4.12,3.46,3.86,5.11a.94.94,0,0,0,.71,1.07L855.7,292a1,1,0,0,0,1.11-.59l2-5.45a.93.93,0,0,0-.65-1.24l-18.56-4.55A1,1,0,0,1,839,279l1.9-7.25a.94.94,0,0,0-.91-1.18h-6.16a.94.94,0,0,0-.94.94v2.64a1.36,1.36,0,0,1,0,.2c-.13.58-.85,3.58-1.72,3.58s-1.36,1.93-1.36,1.93S838.84,280.6,839.42,282.34Z"/><path class="cls-13" d="M833.28,326.48l10.27,3.66a.9.9,0,0,0,.43.05,2.31,2.31,0,0,0,1.57-.88c.5-.7,1-4.65,1.2-6.4a1,1,0,0,0-.72-1l-17.17-4a.94.94,0,0,1-.73-.91v-3.34a1,1,0,0,1,.17-.55l3.25-4.59a1,1,0,0,0-.79-1.49c-3.23.07-7.54,0-8.54-.06a.89.89,0,0,0-.51.14,1.89,1.89,0,0,0-.68,2.18c.29,1.45.47,4.1-.6,5.66a.92.92,0,0,0,.55,1.45c2.59.48,6.69,1.44,6.83,2.76,0,.29.08.62.14,1a.94.94,0,0,0,.79.78c3.91.52,4.08,3.28,3.92,4.62A1,1,0,0,0,833.28,326.48Z"/></g><rect class="cls-33" x="1531.35" y="417.4" width="43.35" height="184.64" rx="10.47"/><path class="cls-34" d="M1711.62,924.92h-140.1a25.17,25.17,0,0,1-25.18-25.17V103.25a25.17,25.17,0,0,1,25.18-25.17l144.09,19.25c13.91,0,21.18-8,21.18,5.92v796.5A25.17,25.17,0,0,1,1711.62,924.92Z"/><ellipse class="cls-35" cx="1663.75" cy="223.04" rx="78.04" ry="75.37"/><ellipse class="cls-35" cx="1673.09" cy="519.61" rx="78.04" ry="75.37"/><path class="cls-36" d="M866.79,399.9a9.43,9.43,0,0,0,6.83,10.42l119.54,30.43s10.06,3.11,11.22-5.94c1-7.55,17.88-99,23.42-128.93a9.44,9.44,0,0,0-7.28-11.11L892.59,270.68A9.12,9.12,0,0,0,882,278.76Z"/><path class="cls-36" d="M918.62,275.56l-65.11-12.71a3.62,3.62,0,0,0-4.15,2.48l-40.1,129a7.08,7.08,0,0,0,4.65,8.87l11.26,3.51a3.63,3.63,0,0,0,4.46-2.15l.8-2.08c.66-1.71,2.11-2.11,3.89-1.65l48.94,12a3.62,3.62,0,0,0,4.41-2.6L921.44,280A3.62,3.62,0,0,0,918.62,275.56Z"/><path class="cls-13" d="M855,233.14A4,4,0,0,1,851,231L838.27,207.1,788.32,354.92a2.07,2.07,0,0,0,0,2.52c1,1.35-10.09,4.15-12.38,7.81,0,0,6.19-4.36,12.58-5.61,0,0,11.22,12.09,16.25,14L801,380.23,807.1,376s-8,16-6.11,19.1,18.7,10.81,20.33,9.17l-.58,1.77a7.81,7.81,0,0,0,2.21-3.41l48.54-150.08a4,4,0,0,0,.18-1.53C871.39,247.28,869.37,231.92,855,233.14Z"/><path class="cls-37" d="M801,395.12C799.14,392,807.1,376,807.1,376L801,380.23l3.78-6.55c-5-1.95-16.25-14-16.25-14-6.39,1.25-12.58,5.61-12.58,5.61,2.29-3.66,13.35-6.46,12.38-7.81a2.07,2.07,0,0,1,0-2.52L838.27,207.1c-.08-.14-.16-.27-.25-.4-.87-1.25-5.82-7.9-11.54-6.52a4,4,0,0,0-2.77,2.51L775.18,334.26a1.93,1.93,0,0,0-.11.34c-.54,2-7.23,20.4-5.33,28.88,1.74,7.75,16.44,11,22.26,14.59,1.27.79,7.35,2.6,7.16,6.13l-4.11,11.37c-1.11,4.31,4.34,6,6.14,6.81l11.07,5a7.85,7.85,0,0,0,8.48-1.32l.58-1.77C819.69,405.93,802.84,398.27,801,395.12Z"/><path class="cls-38" d="M861,235.08l-2.27,8s6.79,11,6.51,14.51l-41,126.58s-1.64,1.45-.76-1.88,40.37-125.08,40.37-125.08-4.39-11.36-7.32-13a9.31,9.31,0,0,0-6.16-.9s5-.79,6.16-1.07Z"/><path class="cls-12" d="M824.47,375.51s5.41-2.13,8,2a1.82,1.82,0,0,0,2.51.11c2.68-2.3-1.64-6-3.36-6.89-1.88-.92-5.6.18-5.6.18a3,3,0,0,0-2.6,3.09A1.37,1.37,0,0,0,824.47,375.51Z"/><path class="cls-12" d="M830.67,357.17s5.42-2.13,8,2a1.82,1.82,0,0,0,2.51.11c2.67-2.3-1.65-6-3.37-6.89s-5.59.18-5.59.18a3,3,0,0,0-2.6,3.09A1.36,1.36,0,0,0,830.67,357.17Z"/><path class="cls-12" d="M836.88,338.87s5.41-2.12,8,2a1.81,1.81,0,0,0,2.5.1c2.68-2.3-1.64-6-3.36-6.88s-5.59.17-5.59.17a3,3,0,0,0-2.61,3.09A1.37,1.37,0,0,0,836.88,338.87Z"/><path class="cls-12" d="M842.59,319.83s5.41-2.12,8,2a1.82,1.82,0,0,0,2.51.1c2.67-2.3-1.65-6-3.37-6.88s-5.59.17-5.59.17a3,3,0,0,0-2.6,3.1A1.36,1.36,0,0,0,842.59,319.83Z"/><path class="cls-12" d="M848.61,302.62s5.41-2.13,8,2a1.81,1.81,0,0,0,2.51.1c2.68-2.29-1.65-6-3.37-6.88s-5.59.17-5.59.17a3,3,0,0,0-2.6,3.1A1.37,1.37,0,0,0,848.61,302.62Z"/><path class="cls-12" d="M854.46,284.23s5.41-2.13,8,2a1.8,1.8,0,0,0,2.5.1c2.68-2.29-1.64-6-3.36-6.88s-5.6.17-5.6.17a3,3,0,0,0-2.6,3.1A1.37,1.37,0,0,0,854.46,284.23Z"/></g></g></svg>