<svg id="Layer_1" data-name="Layer 1" xmlns="http://www.w3.org/2000/svg" viewBox="0 0 350.23 207.48"><defs><style>.cls-1,.cls-5{fill:none;}.cls-1,.cls-2,.cls-3,.cls-4,.cls-5{stroke:#231f20;stroke-miterlimit:10;}.cls-2{fill:#d1d3d4;}.cls-3{fill:#939598;}.cls-4{fill:#58595b;}.cls-5{stroke-width:0.5px;}.cls-6{fill:#231f20;}.cls-7{fill:#fff;}</style></defs><path class="cls-1" d="M243.05,37.47A1.07,1.07,0,0,0,242,36.4c-26.21.07-30.72,2.5-47.27,3.21q-23.32,1-45,1H28.05a10.56,10.56,0,0,0,0,20.22H150q22.74.69,45.47,1.31c15.62.44,22.9,1.23,46.51,1.25a1.06,1.06,0,0,0,1.08-1.06Z"/><rect class="cls-1" x="245.46" y="36.4" width="2.73" height="26.96" rx="1.36"/><path class="cls-1" d="M252.16,36.4h23.62a0,0,0,0,1,0,0v27a0,0,0,0,1,0,0H252.16a1.25,1.25,0,0,1-1.25-1.25V37.65A1.25,1.25,0,0,1,252.16,36.4Z"/><rect class="cls-1" x="283.4" y="40.73" width="19.21" height="19.21" rx="1.47"/><rect class="cls-1" x="243.05" y="38.54" width="2.41" height="22.94"/><rect class="cls-1" x="248.18" y="38.54" width="2.73" height="22.94"/><path class="cls-1" d="M275.78,36.4h2.1a1,1,0,0,1,1,1v25a1,1,0,0,1-1,1h-2.1a0,0,0,0,1,0,0v-27A0,0,0,0,1,275.78,36.4Z"/><rect class="cls-1" x="278.88" y="42.66" width="4.52" height="15.88"/><rect class="cls-1" x="47.89" y="40.57" width="6.1" height="20.22"/><rect class="cls-1" x="284.23" y="59.95" width="17.49" height="3.09"/><rect class="cls-1" x="280.92" y="63.03" width="24.5" height="18.02"/><path class="cls-1" d="M282.31,81.06H304a0,0,0,0,1,0,0V84a1.11,1.11,0,0,1-1.11,1.11H283.42A1.11,1.11,0,0,1,282.31,84v-2.9A0,0,0,0,1,282.31,81.06Z"/><line class="cls-1" x1="305.41" y1="63.03" x2="305.41" y2="81.06"/><line class="cls-1" x1="303.78" y1="63.03" x2="303.78" y2="81.06"/><line class="cls-1" x1="302.14" y1="63.03" x2="302.14" y2="81.06"/><line class="cls-1" x1="300.51" y1="63.03" x2="300.51" y2="81.06"/><line class="cls-1" x1="298.88" y1="63.03" x2="298.88" y2="81.06"/><line class="cls-1" x1="297.25" y1="63.03" x2="297.25" y2="81.06"/><line class="cls-1" x1="295.61" y1="63.03" x2="295.61" y2="81.06"/><line class="cls-1" x1="293.98" y1="63.03" x2="293.98" y2="81.06"/><line class="cls-1" x1="292.35" y1="63.03" x2="292.35" y2="81.06"/><line class="cls-1" x1="290.71" y1="63.03" x2="290.71" y2="81.06"/><line class="cls-1" x1="289.08" y1="63.03" x2="289.08" y2="81.06"/><line class="cls-1" x1="287.45" y1="63.03" x2="287.45" y2="81.06"/><line class="cls-1" x1="285.81" y1="63.03" x2="285.81" y2="81.06"/><line class="cls-1" x1="284.18" y1="63.03" x2="284.18" y2="81.06"/><line class="cls-1" x1="282.55" y1="63.03" x2="282.55" y2="81.06"/><line class="cls-1" x1="280.92" y1="63.03" x2="280.92" y2="81.06"/><line class="cls-1" x1="304.5" y1="63.03" x2="304.5" y2="81.06"/><line class="cls-1" x1="304.96" y1="63.03" x2="304.96" y2="81.06"/><line class="cls-1" x1="281.34" y1="63.03" x2="281.34" y2="81.06"/><line class="cls-1" x1="281.8" y1="63.03" x2="281.8" y2="81.06"/><line class="cls-1" x1="283.4" y1="63.03" x2="283.4" y2="81.06"/><line class="cls-1" x1="302.95" y1="63.03" x2="302.95" y2="81.06"/><path class="cls-1" d="M243.05,128.83a1.07,1.07,0,0,0-1.08-1.07c-26.21.07-30.72,2.5-47.27,3.21q-23.32,1-45,1H28.05a10.56,10.56,0,0,0,0,20.22H150q22.74.69,45.47,1.32c15.62.43,22.9,1.22,46.51,1.25a1.07,1.07,0,0,0,1.08-1.07Z"/><rect class="cls-1" x="245.46" y="127.76" width="2.73" height="26.96" rx="1.36"/><path class="cls-1" d="M252.16,127.76h23.62a0,0,0,0,1,0,0v27a0,0,0,0,1,0,0H252.16a1.25,1.25,0,0,1-1.25-1.25V129A1.25,1.25,0,0,1,252.16,127.76Z"/><rect class="cls-1" x="243.05" y="129.9" width="2.41" height="22.94"/><rect class="cls-1" x="248.18" y="129.9" width="2.73" height="22.94"/><path class="cls-1" d="M275.78,127.76h2.1a1,1,0,0,1,1,1v25a1,1,0,0,1-1,1h-2.1a0,0,0,0,1,0,0v-27A0,0,0,0,1,275.78,127.76Z"/><rect class="cls-1" x="47.89" y="131.93" width="6.1" height="20.22"/><circle class="cls-2" cx="292.75" cy="141.24" r="9.2"/><circle class="cls-3" cx="292.75" cy="141.24" r="6.99"/><path class="cls-3" d="M292.75,128.78a12.46,12.46,0,1,0,12.46,12.46A12.46,12.46,0,0,0,292.75,128.78Zm0,23.87a11.41,11.41,0,1,1,11.4-11.41A11.41,11.41,0,0,1,292.75,152.65Z"/><circle class="cls-4" cx="292.75" cy="141.24" r="1.93"/><line class="cls-1" x1="278.88" y1="149.42" x2="283.35" y2="149.42"/><line class="cls-1" x1="278.88" y1="132.84" x2="283.54" y2="132.84"/><line class="cls-5" x1="305.41" y1="17.68" x2="305.41" y2="59.95"/><line class="cls-5" x1="20.54" y1="17.68" x2="20.54" y2="42.07"/><line class="cls-1" x1="29.4" y1="24.98" x2="296.55" y2="24.98"/><polygon class="cls-6" points="31.38 27.89 20.54 24.98 31.38 22.08 31.38 27.89"/><polygon class="cls-6" points="294.57 27.89 305.41 24.98 294.57 22.08 294.57 27.89"/><line class="cls-1" x1="100.73" y1="123.07" x2="100.73" y2="103.08"/><polygon class="cls-6" points="103.64 121.09 100.73 131.93 97.83 121.09 103.64 121.09"/><line class="cls-1" x1="100.73" y1="161.01" x2="100.73" y2="179.88"/><polygon class="cls-6" points="97.83 162.99 100.73 152.15 103.64 162.99 97.83 162.99"/><path class="cls-6" d="M146.54,27.12h-.65V23.2h-1.42v-.52c.75,0,1.42-.19,1.57-1h.5Z"/><path class="cls-6" d="M152.36,27.12h-.65V23.2h-1.42v-.52c.75,0,1.43-.19,1.57-1h.5Z"/><path class="cls-6" d="M159.07,22.32h-2.21l-.29,1.58h0a1.39,1.39,0,0,1,1-.39,1.7,1.7,0,0,1,1.77,1.87,1.78,1.78,0,0,1-1.92,1.82,1.61,1.61,0,0,1-1.74-1.56h.66a1.07,1.07,0,0,0,1.15,1,1.15,1.15,0,0,0,1.15-1.29,1.18,1.18,0,0,0-1.23-1.24,1.34,1.34,0,0,0-1,.51l-.56,0,.51-2.83h2.7Z"/><path class="cls-6" d="M161.64,24.51h1.68V23.23h.52v1.28h1.68V25h-1.68v1.29h-.52V25h-1.68Zm0,2.08h3.88v.53h-3.88Z"/><path class="cls-6" d="M167.77,23.59a1.69,1.69,0,0,1,1.75-1.94,1.56,1.56,0,0,1,1.71,1.58,2.19,2.19,0,0,1-1.32,1.87c-.68.41-1.41.77-1.53,1.44h2.8v.58h-3.57a2.6,2.6,0,0,1,1.54-2.24c.92-.57,1.39-.9,1.39-1.66a1,1,0,0,0-1.06-1c-.76,0-1.08.7-1.06,1.36Z"/><path class="cls-6" d="M173.74,23.13h.62v.59h0a1.44,1.44,0,0,1,1.29-.68,1.06,1.06,0,0,1,1.1.68A1.43,1.43,0,0,1,178,23c.8,0,1.33.33,1.33,1.16v2.92h-.66V24.51c0-.5-.13-.89-.77-.89a1,1,0,0,0-1,1v2.48h-.65V24.51c0-.52-.16-.89-.75-.89a1.07,1.07,0,0,0-1.06,1v2.48h-.66Z"/><path class="cls-6" d="M181.85,23.13h.62v.59h0a1.45,1.45,0,0,1,1.29-.68,1.06,1.06,0,0,1,1.1.68,1.43,1.43,0,0,1,1.24-.68c.8,0,1.33.33,1.33,1.16v2.92h-.66V24.51c0-.5-.13-.89-.77-.89a1,1,0,0,0-1,1v2.48h-.65V24.51c0-.52-.16-.89-.75-.89a1.07,1.07,0,0,0-1.06,1v2.48h-.66Z"/><rect class="cls-7" x="141.48" y="20.52" width="48.76" height="8.25"/><path class="cls-6" d="M146.54,27.12h-.65V23.2h-1.42v-.52c.75,0,1.42-.19,1.57-1h.5Z"/><path class="cls-6" d="M152.36,27.12h-.65V23.2h-1.42v-.52c.75,0,1.43-.19,1.57-1h.5Z"/><path class="cls-6" d="M159.07,22.32h-2.21l-.29,1.58h0a1.39,1.39,0,0,1,1-.39,1.7,1.7,0,0,1,1.77,1.87,1.78,1.78,0,0,1-1.92,1.82,1.61,1.61,0,0,1-1.74-1.56h.66a1.07,1.07,0,0,0,1.15,1,1.15,1.15,0,0,0,1.15-1.29,1.18,1.18,0,0,0-1.23-1.24,1.34,1.34,0,0,0-1,.51l-.56,0,.51-2.83h2.7Z"/><path class="cls-6" d="M161.64,24.51h1.68V23.23h.52v1.28h1.68V25h-1.68v1.29h-.52V25h-1.68Zm0,2.08h3.88v.53h-3.88Z"/><path class="cls-6" d="M167.77,23.59a1.69,1.69,0,0,1,1.75-1.94,1.56,1.56,0,0,1,1.71,1.58,2.19,2.19,0,0,1-1.32,1.87c-.68.41-1.41.77-1.53,1.44h2.8v.58h-3.57a2.6,2.6,0,0,1,1.54-2.24c.92-.57,1.39-.9,1.39-1.66a1,1,0,0,0-1.06-1c-.76,0-1.08.7-1.06,1.36Z"/><path class="cls-6" d="M173.74,23.13h.62v.59h0a1.44,1.44,0,0,1,1.29-.68,1.06,1.06,0,0,1,1.1.68A1.43,1.43,0,0,1,178,23c.8,0,1.33.33,1.33,1.16v2.92h-.66V24.51c0-.5-.13-.89-.77-.89a1,1,0,0,0-1,1v2.48h-.65V24.51c0-.52-.16-.89-.75-.89a1.07,1.07,0,0,0-1.06,1v2.48h-.66Z"/><path class="cls-6" d="M181.85,23.13h.62v.59h0a1.45,1.45,0,0,1,1.29-.68,1.06,1.06,0,0,1,1.1.68,1.43,1.43,0,0,1,1.24-.68c.8,0,1.33.33,1.33,1.16v2.92h-.66V24.51c0-.5-.13-.89-.77-.89a1,1,0,0,0-1,1v2.48h-.65V24.51c0-.52-.16-.89-.75-.89a1.07,1.07,0,0,0-1.06,1v2.48h-.66Z"/><path class="cls-6" d="M74.77,183.08c1.19,0,1.66.69,1.66,1.39a1.25,1.25,0,0,1-.76,1.14,1.3,1.3,0,0,1,1,1.36A1.84,1.84,0,0,1,73,187a1.36,1.36,0,0,1,1-1.36,1.23,1.23,0,0,1-.76-1.14A1.45,1.45,0,0,1,74.77,183.08Zm.06,5A1.06,1.06,0,0,0,76,187a1.09,1.09,0,0,0-1.13-1A1.06,1.06,0,0,0,73.67,187,1,1,0,0,0,74.83,188.06Zm0-2.68a.84.84,0,0,0,.9-.88.81.81,0,0,0-.92-.84.85.85,0,0,0-1,.84A.87.87,0,0,0,74.83,185.38Z"/><path class="cls-6" d="M79.13,187.69H80v.85h-.85Z"/><path class="cls-6" d="M82.51,185a1.69,1.69,0,0,1,1.75-1.93A1.56,1.56,0,0,1,86,184.65c0,1-.65,1.44-1.33,1.87s-1.41.78-1.53,1.45h2.8v.57H82.35a2.58,2.58,0,0,1,1.54-2.23c.92-.58,1.39-.9,1.39-1.67a1,1,0,0,0-1-1c-.77,0-1.09.7-1.07,1.35Z"/><path class="cls-6" d="M88.36,185.93H90v-1.28h.52v1.28h1.69v.53H90.56v1.28H90v-1.28H88.36Zm0,2.09h3.89v.52H88.36Z"/><path class="cls-6" d="M96.3,183.08c1.71,0,1.81,1.58,1.81,2.78s-.1,2.78-1.81,2.78-1.82-1.58-1.82-2.78S94.58,183.08,96.3,183.08Zm0,5c1.11,0,1.12-1.39,1.12-2.21s0-2.19-1.12-2.19-1.13,1.39-1.13,2.19S95.18,188.06,96.3,188.06Z"/><path class="cls-6" d="M100.61,187.69h.86v.85h-.86Z"/><path class="cls-6" d="M104,185a1.68,1.68,0,0,1,1.75-1.93,1.56,1.56,0,0,1,1.71,1.57,2.18,2.18,0,0,1-1.32,1.87c-.68.41-1.41.78-1.54,1.45h2.81v.57h-3.57a2.57,2.57,0,0,1,1.54-2.23c.92-.58,1.39-.9,1.39-1.67a1,1,0,0,0-1.06-1c-.76,0-1.08.7-1.06,1.35Z"/><path class="cls-6" d="M110,184.56h.62v.58h0a1.45,1.45,0,0,1,1.29-.67,1,1,0,0,1,1.09.67,1.45,1.45,0,0,1,1.25-.67c.8,0,1.33.33,1.33,1.15v2.92h-.66v-2.61c0-.49-.13-.88-.77-.88a1,1,0,0,0-1,1v2.48h-.65v-2.61c0-.52-.16-.88-.75-.88a1.07,1.07,0,0,0-1.06,1v2.48H110Z"/><path class="cls-6" d="M118.08,184.56h.62v.58h0a1.45,1.45,0,0,1,1.29-.67,1,1,0,0,1,1.09.67,1.45,1.45,0,0,1,1.25-.67c.8,0,1.33.33,1.33,1.15v2.92H123v-2.61c0-.49-.13-.88-.77-.88a1,1,0,0,0-1,1v2.48h-.65v-2.61c0-.52-.17-.88-.75-.88a1.07,1.07,0,0,0-1.06,1v2.48h-.66Z"/><rect class="cls-7" x="66.57" y="181.94" width="63.68" height="8.25"/><path class="cls-6" d="M74.77,183.08c1.19,0,1.66.69,1.66,1.39a1.25,1.25,0,0,1-.76,1.14,1.3,1.3,0,0,1,1,1.36A1.84,1.84,0,0,1,73,187a1.36,1.36,0,0,1,1-1.36,1.23,1.23,0,0,1-.76-1.14A1.45,1.45,0,0,1,74.77,183.08Zm.06,5A1.06,1.06,0,0,0,76,187a1.09,1.09,0,0,0-1.13-1A1.06,1.06,0,0,0,73.67,187,1,1,0,0,0,74.83,188.06Zm0-2.68a.84.84,0,0,0,.9-.88.81.81,0,0,0-.92-.84.85.85,0,0,0-1,.84A.87.87,0,0,0,74.83,185.38Z"/><path class="cls-6" d="M79.13,187.69H80v.85h-.85Z"/><path class="cls-6" d="M82.51,185a1.69,1.69,0,0,1,1.75-1.93A1.56,1.56,0,0,1,86,184.65c0,1-.65,1.44-1.33,1.87s-1.41.78-1.53,1.45h2.8v.57H82.35a2.58,2.58,0,0,1,1.54-2.23c.92-.58,1.39-.9,1.39-1.67a1,1,0,0,0-1-1c-.77,0-1.09.7-1.07,1.35Z"/><path class="cls-6" d="M88.36,185.93H90v-1.28h.52v1.28h1.69v.53H90.56v1.28H90v-1.28H88.36Zm0,2.09h3.89v.52H88.36Z"/><path class="cls-6" d="M96.3,183.08c1.71,0,1.81,1.58,1.81,2.78s-.1,2.78-1.81,2.78-1.82-1.58-1.82-2.78S94.58,183.08,96.3,183.08Zm0,5c1.11,0,1.12-1.39,1.12-2.21s0-2.19-1.12-2.19-1.13,1.39-1.13,2.19S95.18,188.06,96.3,188.06Z"/><path class="cls-6" d="M100.61,187.69h.86v.85h-.86Z"/><path class="cls-6" d="M104,185a1.68,1.68,0,0,1,1.75-1.93,1.56,1.56,0,0,1,1.71,1.57,2.18,2.18,0,0,1-1.32,1.87c-.68.41-1.41.78-1.54,1.45h2.81v.57h-3.57a2.57,2.57,0,0,1,1.54-2.23c.92-.58,1.39-.9,1.39-1.67a1,1,0,0,0-1.06-1c-.76,0-1.08.7-1.06,1.35Z"/><path class="cls-6" d="M110,184.56h.62v.58h0a1.45,1.45,0,0,1,1.29-.67,1,1,0,0,1,1.09.67,1.45,1.45,0,0,1,1.25-.67c.8,0,1.33.33,1.33,1.15v2.92h-.66v-2.61c0-.49-.13-.88-.77-.88a1,1,0,0,0-1,1v2.48h-.65v-2.61c0-.52-.16-.88-.75-.88a1.07,1.07,0,0,0-1.06,1v2.48H110Z"/><path class="cls-6" d="M118.08,184.56h.62v.58h0a1.45,1.45,0,0,1,1.29-.67,1,1,0,0,1,1.09.67,1.45,1.45,0,0,1,1.25-.67c.8,0,1.33.33,1.33,1.15v2.92H123v-2.61c0-.49-.13-.88-.77-.88a1,1,0,0,0-1,1v2.48h-.65v-2.61c0-.52-.17-.88-.75-.88a1.07,1.07,0,0,0-1.06,1v2.48h-.66Z"/><line class="cls-1" x1="263.23" y1="118.9" x2="263.23" y2="103.08"/><polygon class="cls-6" points="266.13 116.92 263.23 127.76 260.32 116.92 266.13 116.92"/><line class="cls-1" x1="263.23" y1="163.58" x2="263.23" y2="179.88"/><polygon class="cls-6" points="260.32 165.56 263.23 154.72 266.13 165.56 260.32 165.56"/><path class="cls-6" d="M235,188.54h-.65v-3.91h-1.42v-.53c.75,0,1.43-.19,1.57-1h.5Z"/><path class="cls-6" d="M240.22,183.08c1.7,0,1.81,1.58,1.81,2.78s-.11,2.78-1.81,2.78-1.82-1.58-1.82-2.78S238.5,183.08,240.22,183.08Zm0,5c1.11,0,1.12-1.39,1.12-2.21s0-2.19-1.12-2.19-1.13,1.39-1.13,2.19S239.1,188.06,240.22,188.06Z"/><path class="cls-6" d="M244.54,187.69h.85v.85h-.85Z"/><path class="cls-6" d="M249.68,183.08c1.19,0,1.66.69,1.66,1.39a1.25,1.25,0,0,1-.76,1.14,1.3,1.3,0,0,1,1,1.36,1.84,1.84,0,0,1-3.67,0,1.36,1.36,0,0,1,1-1.36,1.23,1.23,0,0,1-.76-1.14A1.45,1.45,0,0,1,249.68,183.08Zm.06,5a1.06,1.06,0,0,0,1.12-1.07,1.09,1.09,0,0,0-1.13-1,1.06,1.06,0,0,0-1.15,1.05A1,1,0,0,0,249.74,188.06Zm0-2.68a.83.83,0,0,0,.9-.88.81.81,0,0,0-.91-.84.85.85,0,0,0-1,.84A.87.87,0,0,0,249.74,185.38Z"/><path class="cls-6" d="M253.77,185.93h1.68v-1.28H256v1.28h1.68v.53H256v1.28h-.52v-1.28h-1.68Zm0,2.09h3.88v.52h-3.88Z"/><path class="cls-6" d="M261.7,183.08c1.71,0,1.82,1.58,1.82,2.78s-.11,2.78-1.82,2.78-1.82-1.58-1.82-2.78S260,183.08,261.7,183.08Zm0,5c1.12,0,1.13-1.39,1.13-2.21s0-2.19-1.13-2.19-1.12,1.39-1.12,2.19S260.58,188.06,261.7,188.06Z"/><path class="cls-6" d="M266,187.69h.86v.85H266Z"/><path class="cls-6" d="M269.4,185a1.69,1.69,0,0,1,1.76-1.93,1.56,1.56,0,0,1,1.71,1.57,2.19,2.19,0,0,1-1.32,1.87c-.68.41-1.42.78-1.54,1.45h2.81v.57h-3.57a2.58,2.58,0,0,1,1.53-2.23c.93-.58,1.4-.9,1.4-1.67a1,1,0,0,0-1.06-1c-.76,0-1.09.7-1.06,1.35Z"/><path class="cls-6" d="M275.38,184.56H276v.58h0a1.45,1.45,0,0,1,1.29-.67,1,1,0,0,1,1.09.67,1.44,1.44,0,0,1,1.25-.67c.79,0,1.33.33,1.33,1.15v2.92h-.66v-2.61c0-.49-.13-.88-.77-.88a1,1,0,0,0-1,1v2.48h-.66v-2.61c0-.52-.16-.88-.74-.88a1.08,1.08,0,0,0-1.07,1v2.48h-.65Z"/><path class="cls-6" d="M283.49,184.56h.62v.58h0a1.45,1.45,0,0,1,1.29-.67,1,1,0,0,1,1.09.67,1.44,1.44,0,0,1,1.25-.67c.79,0,1.33.33,1.33,1.15v2.92h-.66v-2.61c0-.49-.13-.88-.77-.88a1,1,0,0,0-1,1v2.48H286v-2.61c0-.52-.17-.88-.75-.88a1.08,1.08,0,0,0-1.07,1v2.48h-.65Z"/><rect class="cls-7" x="229.07" y="181.94" width="63.68" height="8.25"/><path class="cls-6" d="M235,188.54h-.65v-3.91h-1.42v-.53c.75,0,1.43-.19,1.57-1h.5Z"/><path class="cls-6" d="M240.22,183.08c1.7,0,1.81,1.58,1.81,2.78s-.11,2.78-1.81,2.78-1.82-1.58-1.82-2.78S238.5,183.08,240.22,183.08Zm0,5c1.11,0,1.12-1.39,1.12-2.21s0-2.19-1.12-2.19-1.13,1.39-1.13,2.19S239.1,188.06,240.22,188.06Z"/><path class="cls-6" d="M244.54,187.69h.85v.85h-.85Z"/><path class="cls-6" d="M249.68,183.08c1.19,0,1.66.69,1.66,1.39a1.25,1.25,0,0,1-.76,1.14,1.3,1.3,0,0,1,1,1.36,1.84,1.84,0,0,1-3.67,0,1.36,1.36,0,0,1,1-1.36,1.23,1.23,0,0,1-.76-1.14A1.45,1.45,0,0,1,249.68,183.08Zm.06,5a1.06,1.06,0,0,0,1.12-1.07,1.09,1.09,0,0,0-1.13-1,1.06,1.06,0,0,0-1.15,1.05A1,1,0,0,0,249.74,188.06Zm0-2.68a.83.83,0,0,0,.9-.88.81.81,0,0,0-.91-.84.85.85,0,0,0-1,.84A.87.87,0,0,0,249.74,185.38Z"/><path class="cls-6" d="M253.77,185.93h1.68v-1.28H256v1.28h1.68v.53H256v1.28h-.52v-1.28h-1.68Zm0,2.09h3.88v.52h-3.88Z"/><path class="cls-6" d="M261.7,183.08c1.71,0,1.82,1.58,1.82,2.78s-.11,2.78-1.82,2.78-1.82-1.58-1.82-2.78S260,183.08,261.7,183.08Zm0,5c1.12,0,1.13-1.39,1.13-2.21s0-2.19-1.13-2.19-1.12,1.39-1.12,2.19S260.58,188.06,261.7,188.06Z"/><path class="cls-6" d="M266,187.69h.86v.85H266Z"/><path class="cls-6" d="M269.4,185a1.69,1.69,0,0,1,1.76-1.93,1.56,1.56,0,0,1,1.71,1.57,2.19,2.19,0,0,1-1.32,1.87c-.68.41-1.42.78-1.54,1.45h2.81v.57h-3.57a2.58,2.58,0,0,1,1.53-2.23c.93-.58,1.4-.9,1.4-1.67a1,1,0,0,0-1.06-1c-.76,0-1.09.7-1.06,1.35Z"/><path class="cls-6" d="M275.38,184.56H276v.58h0a1.45,1.45,0,0,1,1.29-.67,1,1,0,0,1,1.09.67,1.44,1.44,0,0,1,1.25-.67c.79,0,1.33.33,1.33,1.15v2.92h-.66v-2.61c0-.49-.13-.88-.77-.88a1,1,0,0,0-1,1v2.48h-.66v-2.61c0-.52-.16-.88-.74-.88a1.08,1.08,0,0,0-1.07,1v2.48h-.65Z"/><path class="cls-6" d="M283.49,184.56h.62v.58h0a1.45,1.45,0,0,1,1.29-.67,1,1,0,0,1,1.09.67,1.44,1.44,0,0,1,1.25-.67c.79,0,1.33.33,1.33,1.15v2.92h-.66v-2.61c0-.49-.13-.88-.77-.88a1,1,0,0,0-1,1v2.48H286v-2.61c0-.52-.17-.88-.75-.88a1.08,1.08,0,0,0-1.07,1v2.48h-.65Z"/><line class="cls-5" x1="329.69" y1="85.07" x2="308.19" y2="85.07"/><line class="cls-5" x1="329.69" y1="36.4" x2="281.8" y2="36.4"/><line class="cls-1" x1="315.57" y1="45.26" x2="315.57" y2="76.21"/><polygon class="cls-6" points="312.67 47.24 315.57 36.4 318.48 47.24 312.67 47.24"/><polygon class="cls-6" points="312.67 74.23 315.57 85.07 318.48 74.23 312.67 74.23"/><path class="cls-6" d="M315.57,69.07v.66h-3.91v1.41h-.53c0-.74-.19-1.42-1-1.57v-.5Z"/><path class="cls-6" d="M314.26,65a.93.93,0,0,0,.83-1c0-.8-.7-1.2-2.11-1.24l0,0a1.44,1.44,0,0,1,.76,1.26,1.65,1.65,0,0,1-1.83,1.73,1.71,1.71,0,0,1-1.78-1.8c0-1,.55-1.87,2.61-1.87,1.89,0,2.95.57,2.95,1.9a1.48,1.48,0,0,1-1.41,1.65Zm-3.57-1c0,.77.62,1.07,1.29,1.07A1.11,1.11,0,1,0,310.69,64Z"/><path class="cls-6" d="M314.72,59.53v-.85h.85v.85Z"/><path class="cls-6" d="M311.51,53.3a.87.87,0,0,0-.82.92c0,1.11,1.23,1.3,2.07,1.32h0a1.49,1.49,0,0,1-.72-1.37,1.63,1.63,0,0,1,1.77-1.67,1.73,1.73,0,0,1,1.84,1.83c0,1.62-1.49,1.88-2.63,1.88-1.5,0-2.93-.46-2.93-2a1.42,1.42,0,0,1,1.4-1.54Zm2.36,2.12a1.12,1.12,0,0,0,1.22-1.14,1.11,1.11,0,0,0-1.21-1.1,1.1,1.1,0,0,0-1.24,1.1A1.12,1.12,0,0,0,313.87,55.42Z"/><path class="cls-6" d="M319.51,68.82H321V67.08h.46v1.74H323v.49h-1.55v1.75H321V69.31h-1.5Zm3.95-1.74h.46v4h-.46Z"/><path class="cls-6" d="M321.36,61.56c1.7,0,2.64.63,2.64,1.74s-.91,1.64-2.57,1.66-2.61-.73-2.61-1.74S319.76,61.56,321.36,61.56Zm.08,2.72c1.3,0,2-.4,2-1s-.81-1-2.09-1-2,.31-2,1S320.07,64.28,321.44,64.28Z"/><path class="cls-6" d="M323.52,59.34a.45.45,0,0,1-.49-.46.49.49,0,1,1,.49.46Z"/><path class="cls-6" d="M323.92,56.26h-.42l-.52-.53c-1.21-1.28-1.86-1.86-2.62-1.86a.89.89,0,0,0-1,1,1.72,1.72,0,0,0,.42,1.06l-.48.22a2.22,2.22,0,0,1-.51-1.42,1.41,1.41,0,0,1,1.46-1.53c.92,0,1.67.67,2.69,1.72l.37.4h0V53.06h.57Z"/><rect class="cls-7" x="308.97" y="50.67" width="16.87" height="21.15"/><path class="cls-6" d="M315.57,69.07v.66h-3.91v1.41h-.53c0-.74-.19-1.42-1-1.57v-.5Z"/><path class="cls-6" d="M314.26,65a.93.93,0,0,0,.83-1c0-.8-.7-1.2-2.11-1.24l0,0a1.44,1.44,0,0,1,.76,1.26,1.65,1.65,0,0,1-1.83,1.73,1.71,1.71,0,0,1-1.78-1.8c0-1,.55-1.87,2.61-1.87,1.89,0,2.95.57,2.95,1.9a1.48,1.48,0,0,1-1.41,1.65Zm-3.57-1c0,.77.62,1.07,1.29,1.07A1.11,1.11,0,1,0,310.69,64Z"/><path class="cls-6" d="M314.72,59.53v-.85h.85v.85Z"/><path class="cls-6" d="M311.51,53.3a.87.87,0,0,0-.82.92c0,1.11,1.23,1.3,2.07,1.32h0a1.49,1.49,0,0,1-.72-1.37,1.63,1.63,0,0,1,1.77-1.67,1.73,1.73,0,0,1,1.84,1.83c0,1.62-1.49,1.88-2.63,1.88-1.5,0-2.93-.46-2.93-2a1.42,1.42,0,0,1,1.4-1.54Zm2.36,2.12a1.12,1.12,0,0,0,1.22-1.14,1.11,1.11,0,0,0-1.21-1.1,1.1,1.1,0,0,0-1.24,1.1A1.12,1.12,0,0,0,313.87,55.42Z"/><path class="cls-6" d="M319.51,68.82H321V67.08h.46v1.74H323v.49h-1.55v1.75H321V69.31h-1.5Zm3.95-1.74h.46v4h-.46Z"/><path class="cls-6" d="M321.36,61.56c1.7,0,2.64.63,2.64,1.74s-.91,1.64-2.57,1.66-2.61-.73-2.61-1.74S319.76,61.56,321.36,61.56Zm.08,2.72c1.3,0,2-.4,2-1s-.81-1-2.09-1-2,.31-2,1S320.07,64.28,321.44,64.28Z"/><path class="cls-6" d="M323.52,59.34a.45.45,0,0,1-.49-.46.49.49,0,1,1,.49.46Z"/><path class="cls-6" d="M323.92,56.26h-.42l-.52-.53c-1.21-1.28-1.86-1.86-2.62-1.86a.89.89,0,0,0-1,1,1.72,1.72,0,0,0,.42,1.06l-.48.22a2.22,2.22,0,0,1-.51-1.42,1.41,1.41,0,0,1,1.46-1.53c.92,0,1.67.67,2.69,1.72l.37.4h0V53.06h.57Z"/></svg>