<svg id="Layer_1" data-name="Layer 1" xmlns="http://www.w3.org/2000/svg" viewBox="0 0 411.9 133.55"><defs><style>.cls-1,.cls-4{fill:none;}.cls-1,.cls-3,.cls-4{stroke:#231f20;stroke-miterlimit:10;}.cls-2,.cls-3{fill:#231f20;}.cls-4{stroke-width:0.5px;}.cls-5{fill:#fff;}</style></defs><path class="cls-1" d="M47.86,39.18h76.41a8.34,8.34,0,0,1,6.88,5.89,110.56,110.56,0,0,1,0,45,8,8,0,0,1-6.88,6.09H47.86Z"/><path class="cls-2" d="M138.6,77.72l.26-2.31,2.7.3-.06.54-.73,0a2.35,2.35,0,0,1,.63,2,2.45,2.45,0,0,1-2.84,2.37,2.51,2.51,0,0,1-2.43-2.93,2.3,2.3,0,0,1,2-2.33l-.08.78a1.56,1.56,0,0,0-1.25,1.59,1.84,1.84,0,0,0,1.8,2.14,1.8,1.8,0,0,0,2.18-1.74,1.72,1.72,0,0,0-1.33-2l-.18,1.64Z"/><path class="cls-2" d="M136.82,69.14l0-2.6c0-1.11.5-1.69,1.44-1.7a1.48,1.48,0,0,1,1.59,1.63v1.9h2v.75Zm2.36-2.57c0-.74-.41-1-.92-1a.77.77,0,0,0-.81.86v1.94l1.73,0Z"/><path class="cls-2" d="M139.74,58.39c.9-.12,1-1,.94-1.74s-.46-1.32-1-1.26-.6.43-.64,1L139,57.57c0,.61-.16,1.53-1.14,1.64s-1.6-.55-1.75-1.83c-.12-1,.13-2.1,1.33-2.32l.08.75c-.38.1-.89.39-.75,1.59.06.54.36,1.14.95,1.07.31,0,.53-.26.57-.89l.07-1.26c0-.4.07-1.53,1.11-1.65,1.27-.15,1.77.95,1.89,2s-.14,2.35-1.51,2.51Z"/><path class="cls-1" d="M47.86,96.14l13,7.86h69a13.45,13.45,0,0,0,12.53-9.28,100.58,100.58,0,0,0,0-53.92,14.09,14.09,0,0,0-3.25-5.9,14.71,14.71,0,0,0-9.42-4.49H61.93L47.86,39.18"/><polyline class="cls-1" points="65.83 104 55.82 96.14 55.82 39.17 67.31 30.41"/><line class="cls-1" x1="130.08" y1="30.46" x2="123.59" y2="39.18"/><line class="cls-1" x1="142.3" y1="40.8" x2="131.15" y2="45.07"/><line class="cls-1" x1="142.3" y1="94.72" x2="131.22" y2="89.72"/><line class="cls-1" x1="129.77" y1="104" x2="124.27" y2="96.14"/><path class="cls-1" d="M146,63.34c-.1,0,100.23,0,100.23,0"/><line class="cls-1" x1="145.98" y1="69.72" x2="249.52" y2="69.72"/><line class="cls-1" x1="312.75" y1="63.35" x2="254.16" y2="63.35"/><line class="cls-1" x1="257.55" y1="69.72" x2="312.75" y2="69.72"/><polyline class="cls-1" points="250.43 49.12 245.6 65.38 250.1 67.78 245.87 82.93"/><polyline class="cls-1" points="258.39 49.12 253.6 65.22 258.21 67.23 253.82 82.93"/><polygon class="cls-3" points="313.41 62.67 340.15 62.67 341.7 61.13 361.29 61.13 361.29 71.73 341.48 71.73 339.86 70.11 313.41 70.11 312.75 69.72 312.75 63.35 313.41 62.67"/><polygon class="cls-1" points="364.12 59.16 362.15 59.16 361.29 61.13 361.29 71.73 362.15 73.5 364.12 73.5 364.12 59.16"/><polygon class="cls-1" points="364.12 59.16 366.03 56.71 375.66 56.71 377.08 57.94 377.08 75.07 375.61 76.4 366.18 76.4 364.12 73.5 364.12 59.16"/><path class="cls-1" d="M364.12,59.16s2,2.08,2,2.22,9.28,0,9.28,0l1.72-1.73"/><line class="cls-1" x1="375.36" y1="61.38" x2="377.08" y2="63.24"/><line class="cls-1" x1="366.08" y1="61.38" x2="364.12" y2="63.88"/><polyline class="cls-1" points="364.12 73.5 366.08 71 364.12 68.35"/><polyline class="cls-1" points="366.08 71 375.36 71 377.08 69.03"/><line class="cls-1" x1="375.36" y1="71" x2="377.08" y2="72.81"/><polyline class="cls-1" points="377.08 57.94 381.85 57.94 382.73 59.16 382.73 74.39 381.4 75.2 376.94 75.2"/><path class="cls-2" d="M275.14,55.49h2.38c1,0,1.53.51,1.53,1.32a1.19,1.19,0,0,1-.88,1.28v0c.59.11.7.55.76,1a2.52,2.52,0,0,0,.3,1.4h-.75c-.19-.21-.09-.75-.19-1.25s-.19-.91-.84-.91h-1.63v2.16h-.68Zm2.07,2.33c.63,0,1.17-.17,1.17-.9a.8.8,0,0,0-.9-.86h-1.66v1.76Z"/><path class="cls-2" d="M285.17,59.91a2,2,0,0,1-1.61.75,2.42,2.42,0,0,1-2.41-2.55,2.45,2.45,0,0,1,2.41-2.74,2,2,0,0,1,2.17,1.68h-.68a1.35,1.35,0,0,0-1.49-1.11c-1.23,0-1.73,1.06-1.73,2.14a1.81,1.81,0,0,0,1.73,2,1.51,1.51,0,0,0,1.61-1.64h-1.61v-.57h2.22v2.66h-.43Z"/><path class="cls-2" d="M290.15,60.54h-.6V57h-1.3v-.48c.68,0,1.3-.18,1.44-.94h.46Z"/><path class="cls-2" d="M296.57,56.13a7.37,7.37,0,0,0-1.92,4.41H294a7.15,7.15,0,0,1,2-4.36h-2.63v-.57h3.24Z"/><path class="cls-2" d="M301.28,58.83H302v.53h-.68v1.18h-.56V59.36h-2.2v-.58l2.28-3.25h.48Zm-.56,0V56.38h0L299,58.83Z"/><path class="cls-2" d="M340.49,78.77a1.1,1.1,0,0,0-1.25-1c-.57,0-1.13.21-1.13.86,0,1.25,3.23.37,3.23,2.36,0,1.07-1.06,1.5-2,1.5-1.13,0-2.09-.56-2.09-1.78h.64c0,.85.7,1.22,1.47,1.22.6,0,1.28-.19,1.28-.92,0-1.39-3.23-.48-3.23-2.33,0-1,.9-1.47,1.83-1.47s1.82.48,1.86,1.59Z"/><path class="cls-2" d="M343.58,77.3h.92l1.59,4.24,1.6-4.24h.92v5H348v-4.2h0l-1.58,4.2h-.57l-1.58-4.2h0v4.2h-.64Z"/><path class="cls-2" d="M352.51,77.3h.74l2,5h-.75l-.55-1.52H351.8l-.57,1.52h-.69Zm-.5,3h1.71l-.84-2.36h0Z"/><line class="cls-4" x1="145.98" y1="88.48" x2="145.98" y2="121.97"/><line class="cls-4" x1="47.86" y1="102.55" x2="47.86" y2="121.97"/><line class="cls-1" x1="56.72" y1="115.19" x2="137.12" y2="115.19"/><polygon class="cls-2" points="58.7 118.1 47.86 115.19 58.7 112.29 58.7 118.1"/><polygon class="cls-2" points="135.14 118.1 145.98 115.19 135.14 112.29 135.14 118.1"/><path class="cls-2" d="M84.14,115.45h.68V116h-.68v1.17h-.57V116H81.38v-.58l2.28-3.26h.48Zm-.57,0V113h0l-1.67,2.45Z"/><path class="cls-2" d="M89.45,113.42a.8.8,0,0,0-.84-.75c-1,0-1.2,1.13-1.22,1.9l0,0a1.35,1.35,0,0,1,1.25-.66,1.5,1.5,0,0,1,1.53,1.63,1.58,1.58,0,0,1-1.67,1.68c-1.49,0-1.73-1.37-1.73-2.41,0-1.38.42-2.69,1.85-2.69a1.3,1.3,0,0,1,1.41,1.28Zm-1.94,2.17a1,1,0,1,0,2,0,1,1,0,0,0-1-1.14A1,1,0,0,0,87.51,115.59Z"/><path class="cls-2" d="M92.46,116.37h.78v.78h-.78Z"/><path class="cls-2" d="M98.57,112.76h-2l-.27,1.44h0a1.27,1.27,0,0,1,.93-.36,1.56,1.56,0,0,1,1.62,1.72,1.64,1.64,0,0,1-1.76,1.67,1.47,1.47,0,0,1-1.59-1.44h.6a1,1,0,0,0,1.05.91,1.06,1.06,0,0,0,1.06-1.19,1.08,1.08,0,0,0-1.13-1.14,1.16,1.16,0,0,0-.93.48l-.52,0,.47-2.6h2.47Z"/><path class="cls-2" d="M101.05,113.5h.56V114h0a1.3,1.3,0,0,1,1.18-.62,1,1,0,0,1,1,.62,1.32,1.32,0,0,1,1.14-.62c.73,0,1.22.3,1.22,1.06v2.67h-.6v-2.39c0-.45-.12-.81-.71-.81a.88.88,0,0,0-1,.93v2.27h-.6v-2.39c0-.47-.15-.81-.69-.81a1,1,0,0,0-1,.93v2.27h-.6Z"/><path class="cls-2" d="M108.49,113.5h.57V114h0a1.33,1.33,0,0,1,1.18-.62,1,1,0,0,1,1,.62,1.3,1.3,0,0,1,1.14-.62c.73,0,1.22.3,1.22,1.06v2.67H113v-2.39c0-.45-.12-.81-.71-.81a.87.87,0,0,0-1,.93v2.27h-.6v-2.39c0-.47-.15-.81-.69-.81a1,1,0,0,0-1,.93v2.27h-.61Z"/><rect class="cls-5" x="80.47" y="111.09" width="35.02" height="7.57"/><path class="cls-2" d="M84.14,115.45h.68V116h-.68v1.17h-.57V116H81.38v-.58l2.28-3.26h.48Zm-.57,0V113h0l-1.67,2.45Z"/><path class="cls-2" d="M89.45,113.42a.8.8,0,0,0-.84-.75c-1,0-1.2,1.13-1.22,1.9l0,0a1.35,1.35,0,0,1,1.25-.66,1.5,1.5,0,0,1,1.53,1.63,1.58,1.58,0,0,1-1.67,1.68c-1.49,0-1.73-1.37-1.73-2.41,0-1.38.42-2.69,1.85-2.69a1.3,1.3,0,0,1,1.41,1.28Zm-1.94,2.17a1,1,0,1,0,2,0,1,1,0,0,0-1-1.14A1,1,0,0,0,87.51,115.59Z"/><path class="cls-2" d="M92.46,116.37h.78v.78h-.78Z"/><path class="cls-2" d="M98.57,112.76h-2l-.27,1.44h0a1.27,1.27,0,0,1,.93-.36,1.56,1.56,0,0,1,1.62,1.72,1.64,1.64,0,0,1-1.76,1.67,1.47,1.47,0,0,1-1.59-1.44h.6a1,1,0,0,0,1.05.91,1.06,1.06,0,0,0,1.06-1.19,1.08,1.08,0,0,0-1.13-1.14,1.16,1.16,0,0,0-.93.48l-.52,0,.47-2.6h2.47Z"/><path class="cls-2" d="M101.05,113.5h.56V114h0a1.3,1.3,0,0,1,1.18-.62,1,1,0,0,1,1,.62,1.32,1.32,0,0,1,1.14-.62c.73,0,1.22.3,1.22,1.06v2.67h-.6v-2.39c0-.45-.12-.81-.71-.81a.88.88,0,0,0-1,.93v2.27h-.6v-2.39c0-.47-.15-.81-.69-.81a1,1,0,0,0-1,.93v2.27h-.6Z"/><path class="cls-2" d="M108.49,113.5h.57V114h0a1.33,1.33,0,0,1,1.18-.62,1,1,0,0,1,1,.62,1.3,1.3,0,0,1,1.14-.62c.73,0,1.22.3,1.22,1.06v2.67H113v-2.39c0-.45-.12-.81-.71-.81a.87.87,0,0,0-1,.93v2.27h-.6v-2.39c0-.47-.15-.81-.69-.81a1,1,0,0,0-1,.93v2.27h-.61Z"/><line class="cls-4" x1="382.73" y1="11.58" x2="382.73" y2="55.17"/><line class="cls-4" x1="47.86" y1="12.87" x2="47.86" y2="34.82"/><line class="cls-1" x1="56.72" y1="18.64" x2="373.87" y2="18.64"/><polygon class="cls-2" points="58.7 21.54 47.86 18.64 58.7 15.73 58.7 21.54"/><polygon class="cls-2" points="371.89 21.54 382.73 18.64 371.89 15.73 371.89 21.54"/><path class="cls-2" d="M194.57,17.73h.26a.85.85,0,0,0,.95-.82.79.79,0,0,0-.89-.8,1,1,0,0,0-.95,1.08h-.6a1.49,1.49,0,0,1,1.55-1.61c.87,0,1.53.41,1.53,1.34a1.12,1.12,0,0,1-.7,1v0a1.13,1.13,0,0,1,.91,1.21,1.55,1.55,0,0,1-1.73,1.53,1.51,1.51,0,0,1-1.66-1.63h.6a1,1,0,0,0,1.06,1.1,1,1,0,0,0,1.09-1,1,1,0,0,0-1.06-1l-.36,0Z"/><path class="cls-2" d="M200.34,15.59c1.56,0,1.66,1.44,1.66,2.55s-.1,2.54-1.66,2.54-1.67-1.44-1.67-2.54S198.77,15.59,200.34,15.59Zm0,4.56c1,0,1-1.27,1-2s0-2-1-2-1,1.27-1,2S199.31,20.15,200.34,20.15Z"/><path class="cls-2" d="M205.68,15.59c1.57,0,1.67,1.44,1.67,2.55s-.1,2.54-1.67,2.54S204,19.24,204,18.14,204.11,15.59,205.68,15.59Zm0,4.56c1,0,1-1.27,1-2s0-2-1-2-1,1.27-1,2S204.66,20.15,205.68,20.15Z"/><path class="cls-2" d="M211,15.59c1.57,0,1.66,1.44,1.66,2.55s-.09,2.54-1.66,2.54-1.67-1.44-1.67-2.54S209.46,15.59,211,15.59Zm0,4.56c1,0,1-1.27,1-2s0-2-1-2-1,1.27-1,2S210,20.15,211,20.15Z"/><path class="cls-2" d="M216.74,16.55v1.38h1.6v.43h-1.6v1.41h-.45V18.36h-1.6v-.43h1.6V16.55Zm1.6,3.62v.42h-3.65v-.42Z"/><path class="cls-2" d="M221.71,16.58h0l-.8.43-.12-.47,1-.54h.53v4.59h-.6Z"/><path class="cls-2" d="M228.45,18.25c0,1.56-.58,2.42-1.6,2.42s-1.5-.84-1.52-2.36.67-2.39,1.6-2.39S228.45,16.79,228.45,18.25Zm-2.49.07c0,1.19.36,1.87.93,1.87s.94-.74.94-1.91-.29-1.87-.93-1.87S226,17.07,226,18.32Z"/><path class="cls-2" d="M233.49,18.25c0,1.56-.58,2.42-1.59,2.42s-1.51-.84-1.52-2.36.66-2.39,1.59-2.39S233.49,16.79,233.49,18.25Zm-2.49.07c0,1.19.36,1.87.93,1.87s.94-.74.94-1.91-.29-1.87-.93-1.87S231,17.07,231,18.32Z"/><path class="cls-2" d="M235.68,18.1c0-.35,0-.64,0-.92h.54l0,.55h0a1.17,1.17,0,0,1,1.08-.63,1,1,0,0,1,1,.68h0a1.39,1.39,0,0,1,.38-.44,1.15,1.15,0,0,1,.76-.24c.45,0,1.12.29,1.12,1.48v2H240V18.66c0-.66-.24-1.05-.74-1.05a.8.8,0,0,0-.73.56,1,1,0,0,0,0,.31v2.11h-.61v-2c0-.55-.24-.94-.71-.94a.84.84,0,0,0-.77.62.76.76,0,0,0-.05.3v2.06h-.61Z"/><path class="cls-2" d="M243,18.1c0-.35,0-.64,0-.92h.55l0,.55h0a1.16,1.16,0,0,1,1.07-.63,1,1,0,0,1,1,.68h0a1.39,1.39,0,0,1,.38-.44,1.15,1.15,0,0,1,.76-.24c.45,0,1.12.29,1.12,1.48v2h-.6V18.66c0-.66-.25-1.05-.75-1.05a.8.8,0,0,0-.73.56,1,1,0,0,0,0,.31v2.11h-.61v-2c0-.55-.24-.94-.71-.94a.85.85,0,0,0-.77.62.76.76,0,0,0-.05.3v2.06H243Z"/><rect class="cls-5" x="190.97" y="14.53" width="59.46" height="7.83"/><path class="cls-2" d="M194.57,17.73h.26a.85.85,0,0,0,.95-.82.79.79,0,0,0-.89-.8,1,1,0,0,0-.95,1.08h-.6a1.49,1.49,0,0,1,1.55-1.61c.87,0,1.53.41,1.53,1.34a1.12,1.12,0,0,1-.7,1v0a1.13,1.13,0,0,1,.91,1.21,1.55,1.55,0,0,1-1.73,1.53,1.51,1.51,0,0,1-1.66-1.63h.6a1,1,0,0,0,1.06,1.1,1,1,0,0,0,1.09-1,1,1,0,0,0-1.06-1l-.36,0Z"/><path class="cls-2" d="M200.34,15.59c1.56,0,1.66,1.44,1.66,2.55s-.1,2.54-1.66,2.54-1.67-1.44-1.67-2.54S198.77,15.59,200.34,15.59Zm0,4.56c1,0,1-1.27,1-2s0-2-1-2-1,1.27-1,2S199.31,20.15,200.34,20.15Z"/><path class="cls-2" d="M205.68,15.59c1.57,0,1.67,1.44,1.67,2.55s-.1,2.54-1.67,2.54S204,19.24,204,18.14,204.11,15.59,205.68,15.59Zm0,4.56c1,0,1-1.27,1-2s0-2-1-2-1,1.27-1,2S204.66,20.15,205.68,20.15Z"/><path class="cls-2" d="M211,15.59c1.57,0,1.66,1.44,1.66,2.55s-.09,2.54-1.66,2.54-1.67-1.44-1.67-2.54S209.46,15.59,211,15.59Zm0,4.56c1,0,1-1.27,1-2s0-2-1-2-1,1.27-1,2S210,20.15,211,20.15Z"/><path class="cls-2" d="M216.74,16.55v1.38h1.6v.43h-1.6v1.41h-.45V18.36h-1.6v-.43h1.6V16.55Zm1.6,3.62v.42h-3.65v-.42Z"/><path class="cls-2" d="M221.71,16.58h0l-.8.43-.12-.47,1-.54h.53v4.59h-.6Z"/><path class="cls-2" d="M228.45,18.25c0,1.56-.58,2.42-1.6,2.42s-1.5-.84-1.52-2.36.67-2.39,1.6-2.39S228.45,16.79,228.45,18.25Zm-2.49.07c0,1.19.36,1.87.93,1.87s.94-.74.94-1.91-.29-1.87-.93-1.87S226,17.07,226,18.32Z"/><path class="cls-2" d="M233.49,18.25c0,1.56-.58,2.42-1.59,2.42s-1.51-.84-1.52-2.36.66-2.39,1.59-2.39S233.49,16.79,233.49,18.25Zm-2.49.07c0,1.19.36,1.87.93,1.87s.94-.74.94-1.91-.29-1.87-.93-1.87S231,17.07,231,18.32Z"/><path class="cls-2" d="M235.68,18.1c0-.35,0-.64,0-.92h.54l0,.55h0a1.17,1.17,0,0,1,1.08-.63,1,1,0,0,1,1,.68h0a1.39,1.39,0,0,1,.38-.44,1.15,1.15,0,0,1,.76-.24c.45,0,1.12.29,1.12,1.48v2H240V18.66c0-.66-.24-1.05-.74-1.05a.8.8,0,0,0-.73.56,1,1,0,0,0,0,.31v2.11h-.61v-2c0-.55-.24-.94-.71-.94a.84.84,0,0,0-.77.62.76.76,0,0,0-.05.3v2.06h-.61Z"/><path class="cls-2" d="M243,18.1c0-.35,0-.64,0-.92h.55l0,.55h0a1.16,1.16,0,0,1,1.07-.63,1,1,0,0,1,1,.68h0a1.39,1.39,0,0,1,.38-.44,1.15,1.15,0,0,1,.76-.24c.45,0,1.12.29,1.12,1.48v2h-.6V18.66c0-.66-.25-1.05-.75-1.05a.8.8,0,0,0-.73.56,1,1,0,0,0,0,.31v2.11h-.61v-2c0-.55-.24-.94-.71-.94a.85.85,0,0,0-.77.62.76.76,0,0,0-.05.3v2.06H243Z"/><line class="cls-4" x1="55.82" y1="104" x2="29.17" y2="104"/><line class="cls-4" x1="55.82" y1="30.41" x2="29.17" y2="30.41"/><line class="cls-1" x1="35.95" y1="39.27" x2="35.95" y2="95.14"/><polygon class="cls-2" points="33.05 41.25 35.95 30.41 38.86 41.25 33.05 41.25"/><polygon class="cls-2" points="33.05 93.16 35.95 104 38.86 93.16 33.05 93.16"/><path class="cls-2" d="M35.54,76a.62.62,0,0,0,0-.13v-.13a.85.85,0,0,0-.82-1,.79.79,0,0,0-.81.89c0,.65.5.94,1.09.94v.6a1.48,1.48,0,0,1-1.62-1.54c0-.87.42-1.53,1.34-1.53a1.13,1.13,0,0,1,1,.69h0A1.13,1.13,0,0,1,37,74a1.54,1.54,0,0,1,1.53,1.72,1.52,1.52,0,0,1-1.64,1.67v-.6A1,1,0,0,0,38,75.67a1,1,0,0,0-1-1.09,1,1,0,0,0-1,1.07,2.06,2.06,0,0,0,0,.36Z"/><path class="cls-2" d="M34,68.88v2l1.44.26h0a1.29,1.29,0,0,1-.36-.93,1.56,1.56,0,0,1,1.72-1.62,1.64,1.64,0,0,1,1.67,1.75A1.47,1.47,0,0,1,37.05,72v-.6A1,1,0,0,0,38,70.3a1.06,1.06,0,0,0-1.19-1,1.08,1.08,0,0,0-1.14,1.12,1.18,1.18,0,0,0,.48.94l0,.51-2.6-.46V68.88Z"/><path class="cls-2" d="M34.75,66.41v-.57h.54a1.34,1.34,0,0,1-.63-1.18,1,1,0,0,1,.63-1,1.31,1.31,0,0,1-.63-1.14c0-.73.31-1.22,1.06-1.22H38.4v.6H36c-.46,0-.82.12-.82.71a.88.88,0,0,0,.94.95H38.4v.61H36c-.48,0-.82.14-.82.68a1,1,0,0,0,.94,1H38.4v.6Z"/><path class="cls-2" d="M34.75,59v-.57h.54a1.31,1.31,0,0,1-.63-1.18,1,1,0,0,1,.63-1,1.33,1.33,0,0,1-.63-1.15c0-.72.31-1.21,1.06-1.21H38.4v.6H36c-.46,0-.82.12-.82.7a.89.89,0,0,0,.94,1H38.4v.6H36c-.48,0-.82.15-.82.68a1,1,0,0,0,.94,1H38.4V59Z"/><rect class="cls-5" x="32.34" y="51.97" width="7.57" height="25.58"/><path class="cls-2" d="M35.54,76a.62.62,0,0,0,0-.13v-.13a.85.85,0,0,0-.82-1,.79.79,0,0,0-.81.89c0,.65.5.94,1.09.94v.6a1.48,1.48,0,0,1-1.62-1.54c0-.87.42-1.53,1.34-1.53a1.13,1.13,0,0,1,1,.69h0A1.13,1.13,0,0,1,37,74a1.54,1.54,0,0,1,1.53,1.72,1.52,1.52,0,0,1-1.64,1.67v-.6A1,1,0,0,0,38,75.67a1,1,0,0,0-1-1.09,1,1,0,0,0-1,1.07,2.06,2.06,0,0,0,0,.36Z"/><path class="cls-2" d="M34,68.88v2l1.44.26h0a1.29,1.29,0,0,1-.36-.93,1.56,1.56,0,0,1,1.72-1.62,1.64,1.64,0,0,1,1.67,1.75A1.47,1.47,0,0,1,37.05,72v-.6A1,1,0,0,0,38,70.3a1.06,1.06,0,0,0-1.19-1,1.08,1.08,0,0,0-1.14,1.12,1.18,1.18,0,0,0,.48.94l0,.51-2.6-.46V68.88Z"/><path class="cls-2" d="M34.75,66.41v-.57h.54a1.34,1.34,0,0,1-.63-1.18,1,1,0,0,1,.63-1,1.31,1.31,0,0,1-.63-1.14c0-.73.31-1.22,1.06-1.22H38.4v.6H36c-.46,0-.82.12-.82.71a.88.88,0,0,0,.94.95H38.4v.61H36c-.48,0-.82.14-.82.68a1,1,0,0,0,.94,1H38.4v.6Z"/><path class="cls-2" d="M34.75,59v-.57h.54a1.31,1.31,0,0,1-.63-1.18,1,1,0,0,1,.63-1,1.33,1.33,0,0,1-.63-1.15c0-.72.31-1.21,1.06-1.21H38.4v.6H36c-.46,0-.82.12-.82.7a.89.89,0,0,0,.94,1H38.4v.6H36c-.48,0-.82.15-.82.68a1,1,0,0,0,.94,1H38.4V59Z"/></svg>