<svg id="Layer_6" data-name="Layer 6" xmlns="http://www.w3.org/2000/svg" viewBox="0 0 478.45 271.48"><defs><style>.cls-1{fill:#e6e7e8;}.cls-2{fill:#bbbdbf;}.cls-10,.cls-11,.cls-3,.cls-4,.cls-5{fill:none;stroke:#231f20;}.cls-3,.cls-4,.cls-5{stroke-miterlimit:10;stroke-width:0.5px;}.cls-3{stroke-dasharray:6.06 6.06;}.cls-4{stroke-dasharray:6.07 6.07;}.cls-5{stroke-dasharray:6.03 6.03;}.cls-6{fill:#f1f1f2;}.cls-7{fill:#231f20;}.cls-8{fill:#fff;}.cls-9{fill:#606060;}.cls-10,.cls-11{stroke-linecap:round;stroke-linejoin:round;}.cls-10{stroke-width:1.5px;}.cls-11{stroke-width:2px;}</style></defs><rect class="cls-1" x="11.03" y="68.21" width="139.77" height="188.61" rx="6"/><rect class="cls-2" x="20.28" y="82.66" width="121.27" height="156.78" rx="6"/><rect class="cls-3" x="20.28" y="82.66" width="121.27" height="156.78" rx="6"/><rect class="cls-2" x="403.27" y="81.28" width="64.53" height="175.54" rx="32.27"/><path class="cls-4" d="M435.53,256.82a32.36,32.36,0,0,1-32.26-32.26v-111a32.27,32.27,0,1,1,64.53,0v111A32.36,32.36,0,0,1,435.53,256.82Z"/><rect class="cls-1" x="172.37" y="112.12" width="139.77" height="144.7" rx="6"/><rect class="cls-2" x="181.62" y="120.81" width="121.27" height="113.07" rx="6"/><rect class="cls-5" x="181.62" y="120.81" width="121.27" height="113.07" rx="6"/><rect class="cls-6" x="39.21" y="125.48" width="83.41" height="34.12"/><path class="cls-7" d="M122.12,126V159.1H39.71V126h82.41m1-1H38.71V160.1h84.41V125Z"/><path class="cls-8" d="M194.21,224.75a5,5,0,0,1-5-5v-62H234v67Z"/><path class="cls-7" d="M233,158.74v65H194.21a4,4,0,0,1-4-4v-61H233m2-2H188.21v63a6,6,0,0,0,6,6H235v-69Z"/><rect class="cls-8" x="234.3" y="157.74" width="46.5" height="67.01"/><path class="cls-7" d="M279.8,158.74v65H235.3v-65h44.5m2-2H233.3v69h48.5v-69Z"/><path class="cls-8" d="M280.75,192.17V157.74H344.8a5,5,0,0,1,5,5v29.43Z"/><path class="cls-7" d="M344.8,158.74a4,4,0,0,1,4,4v28.43H281.75V158.74H344.8m0-2H279.75v36.43H350.8V162.74a6,6,0,0,0-6-6Z"/><rect class="cls-2" x="29.03" y="5.54" width="103.77" height="51.37" rx="6"/><path class="cls-7" d="M66.46,11.94a1.25,1.25,0,0,0-1.25-1c-1.12,0-1.55,1-1.55,2s.43,1.92,1.55,1.92a1.29,1.29,0,0,0,1.3-1.28h1.21a2.39,2.39,0,0,1-2.51,2.33,2.75,2.75,0,0,1-2.8-3,2.77,2.77,0,0,1,2.8-3,2.33,2.33,0,0,1,2.47,2Z"/><path class="cls-7" d="M72.34,15.73H71.26v-.57h0a1.48,1.48,0,0,1-1.27.69c-1.2,0-1.51-.68-1.51-1.71V11.6H69.6v2.34c0,.68.19,1,.73,1s.87-.34.87-1.18V11.6h1.14Z"/><path class="cls-7" d="M74.09,14.39c0,.49.43.7.87.7s.74-.13.74-.53-.48-.47-1.29-.64c-.66-.15-1.31-.37-1.31-1.1,0-1.06.91-1.33,1.8-1.33s1.74.3,1.82,1.32H75.64c0-.44-.36-.56-.77-.56s-.63,0-.63.38.64.47,1.29.62,1.31.39,1.31,1.16c0,1.09-1,1.44-1.89,1.44s-1.9-.36-1.94-1.46Z"/><path class="cls-7" d="M78.94,11.6h.83v.76h-.83v2.05c0,.38.1.48.48.48a1.83,1.83,0,0,0,.35,0v.88a4.59,4.59,0,0,1-.66,0c-.7,0-1.3-.15-1.3-1V12.36h-.69V11.6h.69V10.36h1.13Z"/><path class="cls-7" d="M82.33,11.49a2,2,0,0,1,2.14,2.18,2.14,2.14,0,1,1-4.28,0A2,2,0,0,1,82.33,11.49Zm0,3.5c.77,0,1-.65,1-1.32s-.23-1.33-1-1.33-1,.67-1,1.33S81.56,15,82.33,15Z"/><path class="cls-7" d="M85.24,11.6h1.07v.56h0a1.48,1.48,0,0,1,1.26-.67,1.21,1.21,0,0,1,1.21.69A1.5,1.5,0,0,1,90,11.49,1.34,1.34,0,0,1,91.55,13v2.76H90.42V13.39c0-.55,0-1-.7-1s-.76.54-.76,1v2.3H87.83V13.42c0-.48,0-1-.69-1-.22,0-.77.15-.77,1v2.39H85.24Z"/><path class="cls-7" d="M93.39,13.94c0,.73.38,1.05,1,1.05a.94.94,0,0,0,.89-.53h1a1.85,1.85,0,0,1-1.93,1.39,2,2,0,0,1-2.12-2.18,2.08,2.08,0,1,1,4.12.27Zm1.85-.72c-.11-.57-.36-.88-.91-.88a.89.89,0,0,0-.94.88Z"/><path class="cls-7" d="M97.05,11.6h1.08v.77h0a1.46,1.46,0,0,1,1.32-.88,1,1,0,0,1,.25,0v1.05a2.48,2.48,0,0,0-.41,0c-.84,0-1.12.6-1.12,1.33v1.86H97.05Z"/><path class="cls-7" d="M71.32,245h1.25L75,248.81h0V245h1.18v5.71H74.88l-2.37-3.83h0v3.83H71.32Z"/><path class="cls-7" d="M79.13,246.44A2.18,2.18,0,1,1,77,248.62,2,2,0,0,1,79.13,246.44Zm0,3.5c.78,0,1-.65,1-1.32s-.23-1.32-1-1.32-1,.66-1,1.32S78.37,249.94,79.13,249.94Z"/><path class="cls-7" d="M85,250.16h0a1.37,1.37,0,0,1-1.26.64c-1.24,0-1.85-1.07-1.85-2.22a1.91,1.91,0,0,1,1.83-2.14,1.4,1.4,0,0,1,1.22.62h0V245H86v5.71H85Zm-1-2.86c-.74,0-1,.64-1,1.31s.3,1.33,1,1.33,1-.65,1-1.33S84.71,247.3,84,247.3Z"/><path class="cls-7" d="M87.84,248.89c0,.73.37,1.05,1,1.05a.94.94,0,0,0,.9-.53h1a1.86,1.86,0,0,1-1.94,1.39,2,2,0,0,1-2.11-2.18,2.08,2.08,0,1,1,4.12.27Zm1.84-.72c-.1-.57-.35-.87-.9-.87a.88.88,0,0,0-.94.87Z"/><path class="cls-7" d="M205.62,242.17h2.46a2.5,2.5,0,0,1,2.59,2.82c0,1.65-.85,2.89-2.59,2.89h-2.46Zm1.25,4.65H208c.73,0,1.42-.45,1.42-1.71s-.4-1.89-1.64-1.89h-.9Z"/><path class="cls-7" d="M212.36,246.09c0,.72.38,1,1,1a.94.94,0,0,0,.89-.53h1a1.85,1.85,0,0,1-1.93,1.39,2,2,0,0,1-2.12-2.18,2.08,2.08,0,1,1,4.12.28Zm1.85-.72c-.11-.58-.35-.88-.91-.88a.89.89,0,0,0-.94.88Z"/><path class="cls-7" d="M218.3,247.88H217l-1.42-4.14h1.2l.87,2.83h0l.87-2.83h1.13Z"/><path class="cls-7" d="M221.11,246.09c0,.72.38,1,1,1a.94.94,0,0,0,.89-.53h1a1.85,1.85,0,0,1-1.93,1.39,2,2,0,0,1-2.11-2.18,2.07,2.07,0,1,1,4.11.28Zm1.85-.72c-.1-.58-.35-.88-.9-.88a.9.9,0,0,0-.95.88Z"/><path class="cls-7" d="M224.8,242.17h1.14v5.71H224.8Z"/><path class="cls-7" d="M228.84,243.63a2.18,2.18,0,1,1-2.14,2.18A2,2,0,0,1,228.84,243.63Zm0,3.5c.77,0,1-.65,1-1.32s-.24-1.32-1-1.32-1,.66-1,1.32S228.07,247.13,228.84,247.13Z"/><path class="cls-7" d="M231.72,243.74h1.08v.53h0a1.36,1.36,0,0,1,1.23-.64c1.29,0,1.88,1.05,1.88,2.22a1.9,1.9,0,0,1-1.82,2.14,1.47,1.47,0,0,1-1.24-.63h0v2h-1.14Zm3.07,2.08c0-.66-.26-1.33-1-1.33s-1,.66-1,1.33.25,1.31,1,1.31S234.79,246.49,234.79,245.82Z"/><path class="cls-7" d="M237.54,246.09c0,.72.38,1,1,1a.92.92,0,0,0,.89-.53h1a1.85,1.85,0,0,1-1.93,1.39,2,2,0,0,1-2.11-2.18,2.08,2.08,0,1,1,4.12.28Zm1.85-.72c-.1-.58-.35-.88-.9-.88a.9.9,0,0,0-1,.88Z"/><path class="cls-7" d="M241.2,243.74h1.08v.77h0a1.44,1.44,0,0,1,1.31-.88,1,1,0,0,1,.25,0v1.06a1.68,1.68,0,0,0-.41,0c-.84,0-1.11.59-1.11,1.32v1.87H241.2Z"/><path class="cls-7" d="M250.78,247.23a1.93,1.93,0,0,1-1.57.78,3,3,0,0,1,0-6,2.28,2.28,0,0,1,2.41,2h-1.2a1.16,1.16,0,0,0-1.21-1c-1.12,0-1.55,1-1.55,2s.43,1.91,1.55,1.91a1.22,1.22,0,0,0,1.36-1.23h-1.26v-.94h2.4v3.09h-.8Z"/><path class="cls-7" d="M252.56,245c.06-1,1-1.38,1.94-1.38s1.82.18,1.82,1.18V247a2.22,2.22,0,0,0,.14.92h-1.15a1.89,1.89,0,0,1-.08-.4,1.91,1.91,0,0,1-1.39.51c-.79,0-1.41-.39-1.41-1.24,0-1.88,2.8-.87,2.75-1.8,0-.48-.33-.56-.73-.56s-.71.18-.75.62Zm2.62.84a2.15,2.15,0,0,1-.94.24c-.35.07-.67.2-.67.61s.33.53.69.53a.84.84,0,0,0,.92-.95Z"/><path class="cls-7" d="M258.64,243.74h.83v.76h-.83v2.05c0,.38.1.48.48.48a1.83,1.83,0,0,0,.35,0v.88a3.5,3.5,0,0,1-.66,0c-.71,0-1.31-.15-1.31-1V244.5h-.68v-.76h.68V242.5h1.14Z"/><path class="cls-7" d="M261,246.09c0,.72.38,1,1,1a.94.94,0,0,0,.89-.53h1a1.85,1.85,0,0,1-1.93,1.39,2,2,0,0,1-2.11-2.18,2.07,2.07,0,1,1,4.11.28Zm1.85-.72c-.1-.58-.35-.88-.9-.88a.9.9,0,0,0-.95.88Z"/><path class="cls-7" d="M269.33,247.88h-1.16l-.74-2.78h0l-.71,2.78h-1.17l-1.32-4.14h1.2l.76,2.81h0l.69-2.81H268l.7,2.8h0l.76-2.8h1.17Z"/><path class="cls-7" d="M271.07,245c.07-1,1-1.38,1.95-1.38s1.81.18,1.81,1.18V247a2.22,2.22,0,0,0,.14.92h-1.15a1.89,1.89,0,0,1-.08-.4,1.91,1.91,0,0,1-1.39.51c-.79,0-1.41-.39-1.41-1.24,0-1.88,2.8-.87,2.75-1.8,0-.48-.33-.56-.73-.56s-.71.18-.75.62Zm2.62.84a2.15,2.15,0,0,1-.94.24c-.35.07-.67.2-.67.61s.33.53.7.53a.84.84,0,0,0,.91-.95Z"/><path class="cls-7" d="M277.75,248.4a1.3,1.3,0,0,1-1.42.93,5.48,5.48,0,0,1-.7,0v-.93c.22,0,.44,0,.67,0a.5.5,0,0,0,.44-.52.75.75,0,0,0-.05-.26l-1.46-3.88h1.22l.93,2.83h0l.9-2.83h1.18Z"/><path class="cls-7" d="M356.38,151.82h.36l1.49,5.33h0l1.51-5.33h.44l1.53,5.33h0l1.46-5.33h.38L362,157.53h-.4L360,152.12h0l-1.55,5.41H358Z"/><path class="cls-7" d="M364.25,152.64v-.82h.31v.82Zm0,4.89v-4.11h.31v4.11Z"/><path class="cls-7" d="M365.83,154.33h0a1.59,1.59,0,0,1,1.58-.94v.31a1.41,1.41,0,0,0-1.14.4,1.55,1.55,0,0,0-.46,1.18v2.25h-.3v-4.11h.3Z"/><path class="cls-7" d="M367.87,155.51c0,1,.5,1.85,1.51,1.85a1.42,1.42,0,0,0,1.47-1.22h.31a1.65,1.65,0,0,1-1.78,1.48,1.83,1.83,0,0,1-1.81-2.07,1.94,1.94,0,0,1,1.81-2.23c1.28,0,1.87,1,1.81,2.19Zm3-.26a1.56,1.56,0,0,0-1.5-1.66,1.64,1.64,0,0,0-1.51,1.66Z"/><path class="cls-7" d="M372.28,151.82v5.71H372v-5.71Z"/><path class="cls-7" d="M373.37,155.51a1.6,1.6,0,0,0,1.51,1.85,1.42,1.42,0,0,0,1.47-1.22h.3a1.64,1.64,0,0,1-1.77,1.48,1.84,1.84,0,0,1-1.82-2.07,2,2,0,0,1,1.82-2.23c1.28,0,1.87,1,1.8,2.19Zm3-.26a1.57,1.57,0,0,0-1.5-1.66,1.64,1.64,0,0,0-1.51,1.66Z"/><path class="cls-7" d="M377.54,156.16a1.26,1.26,0,0,0,1.36,1.2c.54,0,1.3-.16,1.3-.87,0-1.39-2.82-.43-2.82-2.11,0-.81.79-1.06,1.49-1.06.86,0,1.52.38,1.52,1.31h-.3c0-.74-.53-1-1.22-1s-1.18.2-1.18.79.7.75,1.36.9c.82.15,1.46.35,1.46,1.21s-.89,1.13-1.61,1.13a1.48,1.48,0,0,1-1.66-1.46Z"/><path class="cls-7" d="M381.39,156.16a1.26,1.26,0,0,0,1.36,1.2c.53,0,1.3-.16,1.3-.87,0-1.39-2.82-.43-2.82-2.11,0-.81.79-1.06,1.49-1.06.86,0,1.52.38,1.52,1.31h-.31c0-.74-.53-1-1.21-1s-1.19.2-1.19.79.71.75,1.37.9c.82.15,1.46.35,1.46,1.21s-.89,1.13-1.61,1.13a1.48,1.48,0,0,1-1.66-1.46Z"/><path class="cls-7" d="M387.69,151.82v5.71h-.3v-5.71Z"/><path class="cls-7" d="M388.73,152.64v-.82H389v.82Zm0,4.89v-4.11H389v4.11Z"/><path class="cls-7" d="M390,153.42h.3v.88h0a1.51,1.51,0,0,1,1.47-1c1.44,0,1.46,1.16,1.46,1.67v2.54H393v-2.6c0-.42,0-1.34-1.17-1.34a1.52,1.52,0,0,0-1.48,1.72v2.22H390Z"/><path class="cls-7" d="M394.17,151.82h.31v3.78l2.53-2.18h.44l-1.8,1.53,1.93,2.58h-.42l-1.75-2.34-.93.79v1.55h-.31Z"/><path class="cls-7" d="M368.41,161.42h.36l1.48,5.33h0l1.51-5.33h.44l1.54,5.33h0l1.47-5.33h.37L374,167.13h-.4L372,161.72h0l-1.54,5.41h-.4Z"/><path class="cls-7" d="M376.28,162.24v-.82h.3v.82Zm0,4.89V163h.3v4.11Z"/><path class="cls-7" d="M377.65,165.11v-.31h1.72v.31Z"/><path class="cls-7" d="M380.77,164.31v2.82h-.35v-5.71H384v.3h-3.24V164h2.91v.3Z"/><path class="cls-7" d="M384.53,161.42h.36v5.71h-.36Z"/><path class="cls-7" d="M151.55,168.68h.35v5.4h3.24v.31h-3.59Z"/><path class="cls-7" d="M157.19,170.18a2.17,2.17,0,1,1-1.89,2.15A1.94,1.94,0,0,1,157.19,170.18Zm0,4a1.91,1.91,0,1,0-1.58-1.89A1.69,1.69,0,0,0,157.19,174.22Z"/><path class="cls-7" d="M159.85,168.68h2.38c1,0,1.81.37,1.81,1.47a1.4,1.4,0,0,1-1.23,1.46v0c1.05.13,1.14.92,1.14,1.67a1.92,1.92,0,0,0,.17,1.09h-.39c-.44-.79.52-2.6-1.5-2.6h-2v2.6h-.35Zm2.38,2.8c.83,0,1.46-.39,1.46-1.31S163,169,162.23,169h-2v2.5Z"/><path class="cls-7" d="M167.86,173.63c0,.23,0,.49.27.49a1.06,1.06,0,0,0,.23,0v.26a1.07,1.07,0,0,1-.25,0c-.48,0-.55-.27-.55-.6v-.22h0a1.56,1.56,0,0,1-1.52.91c-.78,0-1.38-.29-1.38-1.16s.83-1.15,1.51-1.21c1.36-.09,1.42-.19,1.42-.86,0-.18-.21-.8-1.15-.8a1.12,1.12,0,0,0-1.26,1.09h-.3c0-.9.6-1.36,1.56-1.36.72,0,1.44.22,1.44,1.07Zm-.3-1.58c-.23.28-.9.23-1.49.32s-1.13.34-1.13.95.36.9,1.08.9a1.43,1.43,0,0,0,1.54-1.4Z"/><path class="cls-7" d="M170.26,168.31a1.75,1.75,0,1,1-1.76,1.74A1.74,1.74,0,0,1,170.26,168.31Zm0,3.24a1.49,1.49,0,1,0-1.45-1.5A1.45,1.45,0,0,0,170.26,171.55Zm-.68-2.52h.78c.49,0,.72.19.72.59a.52.52,0,0,1-.54.55l.59.9h-.34l-.56-.87h-.34v.87h-.31Zm.31.91h.33c.29,0,.54,0,.54-.34s-.23-.31-.45-.31h-.42Z"/><path class="cls-7" d="M147.43,185.54h.36l1.48,5.33h0l1.51-5.33h.44l1.54,5.33h0l1.47-5.33h.37L153,191.25h-.4L151,185.84h0l-1.54,5.41h-.4Z"/><path class="cls-7" d="M155.3,186.36v-.82h.3v.82Zm0,4.89v-4.12h.3v4.12Z"/><path class="cls-7" d="M156.87,188.05h0a1.55,1.55,0,0,1,1.57-.94v.31a1.4,1.4,0,0,0-1.13.39,1.56,1.56,0,0,0-.47,1.19v2.25h-.3v-4.12h.3Z"/><path class="cls-7" d="M158.91,189.23a1.61,1.61,0,0,0,1.52,1.85,1.42,1.42,0,0,0,1.47-1.23h.3a1.64,1.64,0,0,1-1.77,1.49,1.84,1.84,0,0,1-1.82-2.08,1.94,1.94,0,0,1,1.82-2.22c1.28,0,1.87,1,1.8,2.19Zm3-.26a1.58,1.58,0,0,0-1.5-1.67,1.66,1.66,0,0,0-1.52,1.67Z"/><path class="cls-7" d="M163.32,185.54v5.71H163v-5.71Z"/><path class="cls-7" d="M164.41,189.23c0,1,.5,1.85,1.51,1.85a1.42,1.42,0,0,0,1.47-1.23h.31a1.65,1.65,0,0,1-1.78,1.49,1.83,1.83,0,0,1-1.81-2.08,1.93,1.93,0,0,1,1.81-2.22c1.28,0,1.87,1,1.81,2.19Zm3-.26a1.56,1.56,0,0,0-1.5-1.67,1.65,1.65,0,0,0-1.51,1.67Z"/><path class="cls-7" d="M168.59,189.88a1.26,1.26,0,0,0,1.36,1.2c.53,0,1.3-.16,1.3-.87,0-1.4-2.82-.44-2.82-2.12,0-.8.79-1.05,1.48-1.05.87,0,1.52.38,1.52,1.31h-.3c0-.74-.53-1-1.22-1s-1.18.21-1.18.79.7.76,1.37.91,1.45.35,1.45,1.21-.88,1.13-1.6,1.13a1.49,1.49,0,0,1-1.67-1.46Z"/><path class="cls-7" d="M172.43,189.88a1.26,1.26,0,0,0,1.36,1.2c.54,0,1.31-.16,1.31-.87,0-1.4-2.83-.44-2.83-2.12,0-.8.8-1.05,1.49-1.05.86,0,1.52.38,1.52,1.31H175c0-.74-.53-1-1.22-1s-1.18.21-1.18.79.7.76,1.36.91c.82.15,1.46.35,1.46,1.21s-.89,1.13-1.61,1.13a1.48,1.48,0,0,1-1.66-1.46Z"/><path class="cls-7" d="M157.13,195.14v5.7h-.3v-5.7Z"/><path class="cls-7" d="M158.17,196v-.82h.31V196Zm0,4.88v-4.1h.31v4.1Z"/><path class="cls-7" d="M159.45,196.74h.3v.87h0a1.52,1.52,0,0,1,1.47-1c1.44,0,1.46,1.16,1.46,1.66v2.54h-.3v-2.59c0-.42-.05-1.35-1.17-1.35a1.52,1.52,0,0,0-1.48,1.72v2.22h-.3Z"/><path class="cls-7" d="M163.61,195.14h.31v3.78l2.53-2.18h.44l-1.8,1.53,1.93,2.57h-.42l-1.75-2.34-.93.79v1.55h-.31Z"/><path class="cls-7" d="M131,215v-2.72c0-1.26.58-1.89,1.54-1.89a1.37,1.37,0,0,1,1.44.94h0c0-.34.31-.84,1.21-.84a2.53,2.53,0,0,0,1.5-.32v1.08a1.62,1.62,0,0,1-.84.15c-1.05,0-1.51.21-1.51,1.13V214h2.35v1Zm2.6-1v-1.63c0-.64-.3-1-.91-1s-.87.47-.87,1V214Z"/><path class="cls-7" d="M131,207.81v-1.06l5.71-2.2v1.07l-1.51.54v2.28l1.51.53v1Zm3.44.36v-1.75l-2.46.86v0Z"/><path class="cls-7" d="M131,204v-1h2.6l-2.6-2.55v-1.23l2.28,2.28,3.43-2.44v1.25l-2.73,1.87.81.82h1.92v1Z"/><path class="cls-9" d="M131,196.9a1.67,1.67,0,0,1,1.5-1.87,1.17,1.17,0,0,1,1.18.82h0a1.31,1.31,0,0,1,1.37-1,1.87,1.87,0,0,1,1.76,2.09c0,1.08-.54,2.13-1.75,2.13a1.33,1.33,0,0,1-1.38-1.05h0a1.12,1.12,0,0,1-1.15.82A1.71,1.71,0,0,1,131,196.9Zm2.37,0a.76.76,0,1,0-1.51,0,.78.78,0,0,0,.77.86A.77.77,0,0,0,133.33,196.9Zm2.6,0a.93.93,0,0,0-1-1,.91.91,0,0,0-.89,1,.89.89,0,0,0,.88,1A1,1,0,0,0,135.93,196.89Z"/><path class="cls-9" d="M136.67,191.55v1.14H133v1.4h-.86c0-.79-.25-1.51-1.11-1.63v-.91Z"/><path class="cls-9" d="M136.67,187.1v1.14H133v1.41h-.86c0-.8-.25-1.52-1.11-1.64v-.91Z"/><path class="cls-7" d="M131,182.94v-.76H136v-3h.64v3.78Z"/><path class="cls-7" d="M132.44,176.82a2.17,2.17,0,1,1,2.17,2A2,2,0,0,1,132.44,176.82Zm3.73,0c0-.71-.56-1.28-1.56-1.28s-1.57.57-1.57,1.28.57,1.29,1.57,1.29S136.17,177.53,136.17,176.82Z"/><path class="cls-7" d="M131,173.9v-2.69c0-1.07.58-1.73,1.5-1.73a1.35,1.35,0,0,1,1.44,1h0c.13-.66.62-.79,1.17-.85a2.84,2.84,0,0,0,1.58-.34v.85c-.23.21-.85.09-1.41.21s-1,.21-1,.95v1.85h2.44v.76Zm2.63-2.34c0-.7-.18-1.32-1-1.32a.9.9,0,0,0-1,1v1.89h2Z"/><path class="cls-7" d="M136.65,164.87a.89.89,0,0,1,.12.49c0,.35-.2.57-.64.57a1.84,1.84,0,0,1,.64,1.46c0,.75-.33,1.37-1.16,1.37s-1.15-.7-1.28-1.4-.08-1.39-.6-1.39-.69.49-.69.92.18,1,.78,1v.68c-1,0-1.38-.83-1.38-1.75,0-.75.17-1.55,1.13-1.55h2.13c.32,0,.47,0,.47-.22a.78.78,0,0,0,0-.21Zm-2.12,1.1c.4.53,0,2.07,1,2.07.45,0,.61-.39.61-.8,0-.9-.56-1.27-.94-1.27Z"/><path class="cls-7" d="M131.6,160.61v1.9H131v-4.57h.64v1.91h5.07v.76Z"/><path class="cls-7" d="M132.54,157.45v-.64h.87v0a1.5,1.5,0,0,1-1-1.52h.72c0,1.1.61,1.5,1.67,1.5h1.84v.68Z"/><path class="cls-7" d="M136.65,151.1a.85.85,0,0,1,.12.48c0,.36-.2.58-.64.58a1.84,1.84,0,0,1,.64,1.45c0,.76-.33,1.37-1.16,1.37s-1.15-.69-1.28-1.4-.08-1.39-.6-1.39-.69.5-.69.92c0,.58.18,1,.78,1v.68c-1,0-1.38-.82-1.38-1.75,0-.74.17-1.55,1.13-1.55h2.13c.32,0,.47,0,.47-.22a.79.79,0,0,0,0-.2Zm-2.12,1.1c.4.53,0,2.06,1,2.06.45,0,.61-.38.61-.8,0-.89-.56-1.26-.94-1.26Z"/><path class="cls-7" d="M133.86,147.66a1,1,0,0,0-.82,1c0,1,.78,1.29,1.61,1.29s1.52-.35,1.52-1.21a1.06,1.06,0,0,0-1-1.14v-.69a1.71,1.71,0,0,1,1.61,1.82,1.89,1.89,0,0,1-2.12,1.94,1.94,1.94,0,0,1-2.21-1.95,1.59,1.59,0,0,1,1.42-1.79Z"/><path class="cls-7" d="M131,146.13v-.68h3.38l-1.8-1.89v-.91l1.5,1.64,2.63-1.76v.86l-2.16,1.42.59.64h1.57v.68Z"/><path class="cls-7" d="M135.36,138.49a1.65,1.65,0,0,1,1.41,1.76c0,1.32-.92,1.95-2.18,2a2,2,0,0,1-2.15-1.94c0-1.47,1.37-1.92,2.37-1.88v3.1a1.22,1.22,0,0,0,1.36-1.29,1,1,0,0,0-.81-1.07Zm-1.15.65a1.2,1.2,0,0,0-1.17,1.2,1.17,1.17,0,0,0,1.17,1.18Z"/><path class="cls-7" d="M132.54,137.74v-.64h.87a1.51,1.51,0,0,1-1-1.52h.72c0,1.09.61,1.49,1.67,1.49h1.84v.68Z"/><path class="cls-7" d="M131,132.7v-1l4.8-1.8-4.8-1.8v-1h5.71v.72h-4.75l4.75,1.79v.64L131.92,132h4.75v.72Z"/><path class="cls-7" d="M132.44,124.08a2.17,2.17,0,1,1,2.17,2A2,2,0,0,1,132.44,124.08Zm3.73,0c0-.71-.56-1.29-1.56-1.29s-1.57.58-1.57,1.29.57,1.29,1.57,1.29S136.17,124.79,136.17,124.08Z"/><path class="cls-7" d="M136.67,117.58v.68h-.56a1.39,1.39,0,0,1,.66,1.32,1.94,1.94,0,0,1-2.18,1.9,1.9,1.9,0,0,1-2.15-1.88,1.59,1.59,0,0,1,.65-1.34H131v-.68Zm-.5,1.92c0-.92-.8-1.27-1.56-1.27s-1.57.37-1.57,1.31.79,1.23,1.6,1.23S136.17,120.38,136.17,119.5Z"/><path class="cls-7" d="M136.67,113.1v.64H136v0a1.42,1.42,0,0,1,.76,1.34c0,1.09-.63,1.43-1.52,1.43h-2.71v-.68h2.79a.78.78,0,0,0,.84-.84,1.17,1.17,0,0,0-1.3-1.23h-2.33v-.68Z"/><path class="cls-7" d="M131,112v-.68h5.71V112Z"/><path class="cls-7" d="M135.36,106.78a1.65,1.65,0,0,1,1.41,1.76c0,1.32-.92,1.95-2.18,2a2,2,0,0,1-2.15-2c0-1.46,1.37-1.91,2.37-1.87v3.1a1.22,1.22,0,0,0,1.36-1.29,1,1,0,0,0-.81-1.07Zm-1.15.65a1.19,1.19,0,0,0-1.17,1.19,1.18,1.18,0,0,0,1.17,1.19Z"/><path class="cls-8" d="M81.42,48.12V20.66h40.25a5.5,5.5,0,0,1,5.5,5.5V42.62a5.5,5.5,0,0,1-5.5,5.5Z"/><path class="cls-7" d="M121.67,21.16a5,5,0,0,1,5,5V42.62a5,5,0,0,1-5,5H81.92V21.16h39.75m0-1H80.92V48.62h40.75a6,6,0,0,0,6-6V26.16a6,6,0,0,0-6-6Z"/><path class="cls-8" d="M42.42,48.12a5.51,5.51,0,0,1-5.5-5.5V26.16a5.51,5.51,0,0,1,5.5-5.5h40V48.12Z"/><path class="cls-7" d="M81.92,21.16V47.62H42.42a5,5,0,0,1-5-5V26.16a5,5,0,0,1,5-5h39.5m1-1H42.42a6,6,0,0,0-6,6V42.62a6,6,0,0,0,6,6h40.5V20.16Z"/><path class="cls-7" d="M94.63,40.55a1.23,1.23,0,0,0-1.41-1.17c-.65,0-1.28.23-1.28,1,0,1.41,3.65.42,3.65,2.67,0,1.21-1.19,1.7-2.23,1.7-1.28,0-2.36-.63-2.36-2h.72c0,1,.8,1.38,1.67,1.38.68,0,1.44-.22,1.44-1,0-1.57-3.65-.54-3.65-2.63,0-1.15,1-1.67,2.07-1.67s2.06.55,2.1,1.81Z"/><path class="cls-7" d="M99.93,43.27a1.66,1.66,0,0,1-1.77,1.41c-1.32,0-1.94-.92-2-2.18a2,2,0,0,1,1.94-2.15c1.46,0,1.91,1.37,1.87,2.37H96.9a1.21,1.21,0,0,0,1.29,1.36,1,1,0,0,0,1.07-.81Zm-.66-1.15A1.19,1.19,0,0,0,98.08,41a1.17,1.17,0,0,0-1.18,1.17Z"/><path class="cls-7" d="M100.7,40.45h.64v.66h0a1.44,1.44,0,0,1,1.35-.76c1.08,0,1.42.63,1.42,1.51v2.72h-.68v-2.8a.77.77,0,0,0-.84-.83,1.16,1.16,0,0,0-1.22,1.3v2.33h-.68Z"/><path class="cls-7" d="M105.56,43.28c0,.61.56.8,1.11.8s1-.1,1-.62c0-1.06-2.7-.34-2.7-1.93,0-.83.82-1.18,1.54-1.18.93,0,1.63.29,1.7,1.3h-.68c0-.53-.52-.7-1-.7s-.88.12-.88.53.72.58,1.35.72,1.35.38,1.35,1.18c0,1-.92,1.3-1.76,1.3s-1.71-.38-1.75-1.4Z"/><path class="cls-7" d="M110.93,40.35a2.17,2.17,0,1,1-2,2.17A2,2,0,0,1,110.93,40.35Zm0,3.73c.71,0,1.29-.56,1.29-1.56S111.64,41,110.93,41s-1.29.57-1.29,1.57S110.22,44.08,110.93,44.08Z"/><path class="cls-7" d="M113.71,40.45h.64v.87h0a1.5,1.5,0,0,1,1.52-1v.72c-1.1,0-1.5.62-1.5,1.67v1.84h-.68Z"/><path class="cls-7" d="M116.82,43.28c0,.61.56.8,1.11.8s1-.1,1-.62c0-1.06-2.7-.34-2.7-1.93,0-.83.81-1.18,1.54-1.18.93,0,1.63.29,1.69,1.3h-.68c0-.53-.51-.7-1-.7s-.87.12-.87.53.72.58,1.35.72,1.35.38,1.35,1.18c0,1-.92,1.3-1.76,1.3s-1.71-.38-1.75-1.4Z"/><path class="cls-7" d="M106.62,31.16a1.25,1.25,0,0,0-1.17.83h-.93l-.86-1.92a.41.41,0,0,0-.4-.25.42.42,0,0,0-.37.29l-1,3.09-1-5.12a.41.41,0,0,0-.38-.34.44.44,0,0,0-.42.3l-1.23,4.13h-.6a.42.42,0,0,0,0,.83h.91a.41.41,0,0,0,.39-.3l.84-2.8.95,5a.41.41,0,0,0,.38.34h0a.4.4,0,0,0,.39-.29l1.18-3.61.53,1.19a.42.42,0,0,0,.38.25h1.19a1.24,1.24,0,1,0,1.17-1.66Z"/><path class="cls-7" d="M110.34,32.4A3.14,3.14,0,0,0,109.07,30a.58.58,0,0,0-.8.14.59.59,0,0,0,.14.81,2,2,0,0,1,.77,1.46,2.1,2.1,0,0,1-.78,1.51.57.57,0,0,0,.34,1,.6.6,0,0,0,.34-.11A3.24,3.24,0,0,0,110.34,32.4Z"/><path class="cls-7" d="M110.09,27.38a.58.58,0,0,0-.66.95,5.37,5.37,0,0,1,2.13,4.05,5.68,5.68,0,0,1-2.14,4.14.58.58,0,0,0-.13.81.6.6,0,0,0,.47.23.53.53,0,0,0,.34-.11,6.72,6.72,0,0,0,2.62-5.07A6.48,6.48,0,0,0,110.09,27.38Z"/><path class="cls-8" d="M39.21,126.49V103.17a5.51,5.51,0,0,1,5.5-5.5h72.41a5.51,5.51,0,0,1,5.5,5.5v23.32Z"/><path class="cls-7" d="M117.12,98.17a5,5,0,0,1,5,5V126H39.71V103.17a5,5,0,0,1,5-5h72.41m0-1H44.71a6,6,0,0,0-6,6V127h84.41V103.17a6,6,0,0,0-6-6Z"/><rect class="cls-8" x="39.21" y="207.08" width="83.41" height="18.17" rx="5.5"/><path class="cls-7" d="M117.12,207.58a5,5,0,0,1,5,5v7.17a5,5,0,0,1-5,5H44.71a5,5,0,0,1-5-5v-7.17a5,5,0,0,1,5-5h72.41m0-1H44.71a6,6,0,0,0-6,6v7.17a6,6,0,0,0,6,6h72.41a6,6,0,0,0,6-6v-7.17a6,6,0,0,0-6-6Z"/><path class="cls-8" d="M44.71,181.42a5.5,5.5,0,0,1-5.5-5.5V158.77h83.41v17.15a5.5,5.5,0,0,1-5.5,5.5Z"/><path class="cls-7" d="M122.12,159.27v16.65a5,5,0,0,1-5,5H44.71a5,5,0,0,1-5-5V159.27h82.41m1-1H38.71v17.65a6,6,0,0,0,6,6h72.41a6,6,0,0,0,6-6V158.27Z"/><path class="cls-7" d="M83.17,109.79a1.24,1.24,0,0,0-1.41-1.17c-.65,0-1.28.24-1.28,1,0,1.41,3.65.41,3.65,2.66,0,1.22-1.19,1.7-2.23,1.7-1.28,0-2.35-.63-2.35-2h.71c0,1,.8,1.37,1.67,1.37.69,0,1.45-.21,1.45-1,0-1.57-3.66-.54-3.66-2.64,0-1.15,1-1.67,2.07-1.67a1.84,1.84,0,0,1,2.1,1.81Z"/><path class="cls-7" d="M88.47,112.52a1.65,1.65,0,0,1-1.77,1.4c-1.32,0-1.94-.92-2-2.17a2,2,0,0,1,1.94-2.15c1.47,0,1.91,1.37,1.87,2.37H85.44a1.21,1.21,0,0,0,1.29,1.35,1,1,0,0,0,1.07-.8Zm-.66-1.15a1.19,1.19,0,0,0-1.19-1.17,1.17,1.17,0,0,0-1.18,1.17Z"/><path class="cls-7" d="M89.24,109.69h.64v.66h0a1.42,1.42,0,0,1,1.34-.75c1.09,0,1.42.62,1.42,1.51v2.72H92V111a.77.77,0,0,0-.84-.83,1.16,1.16,0,0,0-1.22,1.29v2.34h-.68Z"/><path class="cls-7" d="M94.1,112.53c0,.6.56.79,1.12.79s1-.09,1-.61c0-1.06-2.71-.34-2.71-1.94,0-.83.82-1.17,1.55-1.17.92,0,1.63.29,1.69,1.29h-.68c0-.52-.52-.69-1-.69s-.88.11-.88.53.72.57,1.35.72,1.35.38,1.35,1.17c0,1-.91,1.3-1.75,1.3s-1.71-.37-1.76-1.39Z"/><path class="cls-7" d="M99.47,109.6a2.17,2.17,0,1,1-2,2.17A2,2,0,0,1,99.47,109.6Zm0,3.72c.71,0,1.29-.55,1.29-1.55s-.58-1.57-1.29-1.57-1.29.57-1.29,1.57S98.76,113.32,99.47,113.32Z"/><path class="cls-7" d="M102.26,109.69h.64v.88h0a1.5,1.5,0,0,1,1.52-1v.72c-1.09,0-1.49.61-1.49,1.67v1.84h-.68Z"/><path class="cls-7" d="M66.08,109.76a1.47,1.47,0,0,0-1.39,1h-1.1l-1-2.29a.48.48,0,0,0-.48-.29.49.49,0,0,0-.44.34l-1.19,3.68-1.15-6.1a.5.5,0,0,0-.46-.4.5.5,0,0,0-.49.35L56.88,111h-.71a.49.49,0,1,0,0,1h1.08a.49.49,0,0,0,.47-.35l1-3.33,1.13,6a.49.49,0,0,0,.45.4h0a.51.51,0,0,0,.47-.34l1.39-4.3.64,1.42a.49.49,0,0,0,.45.29h1.42a1.48,1.48,0,1,0,1.39-2Z"/><path class="cls-7" d="M70.5,111.24a3.73,3.73,0,0,0-1.5-2.87.69.69,0,0,0-.79,1.12,2.39,2.39,0,0,1,.92,1.75A2.52,2.52,0,0,1,68.2,113a.69.69,0,0,0,.4,1.24.67.67,0,0,0,.41-.13A3.87,3.87,0,0,0,70.5,111.24Z"/><path class="cls-7" d="M70.21,105.26a.69.69,0,1,0-.79,1.13A6.37,6.37,0,0,1,72,111.21a6.77,6.77,0,0,1-2.55,4.93.69.69,0,0,0,.41,1.24.73.73,0,0,0,.4-.13,8,8,0,0,0,3.11-6A7.75,7.75,0,0,0,70.21,105.26Z"/><path class="cls-7" d="M62.76,169.59c0-1-.77-1.46-1.83-1.46-.64,0-1.56.27-1.56,1.21s1,1.08,1.94,1.27,1.95.47,1.95,1.59-1.14,1.6-2,1.6c-1.33,0-2.43-.55-2.4-2h.35c-.07,1.25.92,1.72,2,1.72.68,0,1.66-.31,1.66-1.3s-1-1.15-1.95-1.34-2-.44-2-1.52,1-1.52,1.92-1.52c1.19,0,2.12.51,2.19,1.77Z"/><path class="cls-7" d="M63.58,168H64l1.81,2.51L67.64,168H68l-2,2.77,2.13,2.94h-.43L65.8,171l-1.95,2.67h-.41l2.14-2.94Z"/><path class="cls-7" d="M71.16,173.67H70V170H68.61v-.86c.8,0,1.52-.25,1.64-1.11h.91Z"/><path class="cls-7" d="M72.77,170.22a2,2,0,0,1,2-2.26,1.78,1.78,0,0,1,1.92,1.75c0,1.69-1.8,1.83-2.62,3h2.65v1H72.64c0-1.31.8-1.84,1.76-2.5.49-.35,1.18-.68,1.18-1.37a.81.81,0,0,0-.84-.87c-.67,0-.89.7-.89,1.29Z"/><path class="cls-7" d="M81.05,169.05a6.91,6.91,0,0,0-1.83,4.62H78a8.09,8.09,0,0,1,1.87-4.54H77.23v-1.06h3.82Z"/><path class="cls-7" d="M82.85,171.49l-1.36-2h1.3l.73,1.08.72-1.08h1.25l-1.36,1.94,1.53,2.2h-1.3l-.86-1.31-.86,1.31H81.37Z"/><path class="cls-7" d="M88.51,168h.76v2.45h3V168H93v5.71h-.76v-2.62h-3v2.62h-.76Z"/><path class="cls-7" d="M95.84,168h.84l2.23,5.71h-.84L97.44,172H95l-.64,1.72h-.78Zm-.57,3.35H97.2l-1-2.66h0Z"/><path class="cls-7" d="M99.47,168h.76V173h3v.64H99.47Z"/><path class="cls-8" d="M189.21,157.27v-22.7a5,5,0,0,1,5-5H275.8a5,5,0,0,1,5,5v22.7Z"/><path class="cls-7" d="M275.8,130.57a4,4,0,0,1,4,4v21.7H190.21v-21.7a4,4,0,0,1,4-4H275.8m0-2H194.21a6,6,0,0,0-6,6v23.7H281.8v-23.7a6,6,0,0,0-6-6Z"/><path class="cls-7" d="M203.86,139.52h2.5a1.69,1.69,0,1,1,0,3.37h-1.75v2.34h-.75Zm.75,2.73h1.49c.87,0,1.25-.37,1.25-1.05s-.38-1-1.25-1h-1.49Z"/><path class="cls-7" d="M212.59,145.21a1,1,0,0,1-.49.11c-.35,0-.57-.19-.57-.64a1.81,1.81,0,0,1-1.46.64c-.75,0-1.37-.33-1.37-1.16s.7-1.14,1.4-1.27,1.39-.09,1.39-.61-.49-.68-.92-.68-1,.17-1,.78h-.68c0-1,.83-1.38,1.75-1.38.75,0,1.56.16,1.56,1.13v2.13c0,.32,0,.46.21.46a.56.56,0,0,0,.21,0Zm-1.1-2.12c-.53.39-2.07,0-2.07,1,0,.45.39.61.8.61.9,0,1.27-.55,1.27-.93Z"/><path class="cls-7" d="M216,142.42a1,1,0,0,0-1-.82c-1,0-1.29.78-1.29,1.61s.34,1.51,1.21,1.51a1.05,1.05,0,0,0,1.13-1h.7a1.72,1.72,0,0,1-1.83,1.61,1.87,1.87,0,0,1-1.93-2.11A1.94,1.94,0,0,1,215,141a1.58,1.58,0,0,1,1.78,1.42Z"/><path class="cls-7" d="M217.56,139.52h.68v3.38l1.89-1.81H221l-1.64,1.51,1.76,2.63h-.87l-1.41-2.16-.64.59v1.57h-.68Z"/><path class="cls-7" d="M225.2,143.92a1.66,1.66,0,0,1-1.77,1.4c-1.32,0-1.94-.92-2-2.17a2,2,0,0,1,1.94-2.15c1.46,0,1.91,1.36,1.87,2.36h-3.09a1.21,1.21,0,0,0,1.28,1.36,1,1,0,0,0,1.08-.8Zm-.66-1.16a1.19,1.19,0,0,0-1.19-1.16,1.17,1.17,0,0,0-1.18,1.16Z"/><path class="cls-7" d="M226.91,141.09h.82v.6h-.82v2.57c0,.32.09.37.51.37h.31v.6h-.52c-.7,0-1-.15-1-.91v-2.63h-.7v-.6h.7v-1.24h.68Z"/><path class="cls-7" d="M230.82,139.52h3.75v.64h-3V142h2.63v.64h-2.63v2.62h-.76Z"/><path class="cls-7" d="M237.09,141a2.17,2.17,0,1,1-2,2.16A2,2,0,0,1,237.09,141Zm0,3.72c.71,0,1.28-.56,1.28-1.56s-.57-1.56-1.28-1.56-1.29.56-1.29,1.56S236.37,144.72,237.09,144.72Z"/><path class="cls-7" d="M239.87,141.09h.64V142h0a1.47,1.47,0,0,1,1.52-1v.72c-1.1,0-1.5.61-1.5,1.67v1.84h-.68Z"/><path class="cls-7" d="M246.65,145.23h-.72l-.84-3.29h0l-.83,3.29h-.74l-1.33-4.14h.75l.94,3.38h0l.83-3.38h.74l.86,3.38h0l.93-3.38h.7Z"/><path class="cls-7" d="M252.28,145.21a1,1,0,0,1-.48.11c-.36,0-.58-.19-.58-.64a1.81,1.81,0,0,1-1.45.64c-.76,0-1.37-.33-1.37-1.16s.69-1.14,1.4-1.27,1.39-.09,1.39-.61-.5-.68-.92-.68c-.58,0-1,.17-1,.78h-.68c0-1,.82-1.38,1.75-1.38.74,0,1.55.16,1.55,1.13v2.13c0,.32,0,.46.22.46a.51.51,0,0,0,.2,0Zm-1.1-2.12c-.53.39-2.06,0-2.06,1,0,.45.38.61.8.61.89,0,1.26-.55,1.26-.93Z"/><path class="cls-7" d="M252.89,141.09h.64V142h0a1.48,1.48,0,0,1,1.52-1v.72c-1.1,0-1.5.61-1.5,1.67v1.84h-.68Z"/><path class="cls-7" d="M259.28,145.23h-.68v-.56h0a1.38,1.38,0,0,1-1.32.65,1.93,1.93,0,0,1-1.9-2.17,1.91,1.91,0,0,1,1.89-2.15,1.6,1.6,0,0,1,1.33.64h0v-2.12h.68Zm-1.92-.51c.92,0,1.26-.79,1.26-1.56s-.37-1.56-1.3-1.56-1.24.79-1.24,1.6S256.48,144.72,257.36,144.72Z"/><path class="cls-7" d="M263.85,143.92a1.65,1.65,0,0,1-1.76,1.4c-1.32,0-1.95-.92-2-2.17a2,2,0,0,1,1.95-2.15c1.46,0,1.91,1.36,1.87,2.36h-3.1a1.22,1.22,0,0,0,1.29,1.36,1,1,0,0,0,1.07-.8Zm-.65-1.16A1.19,1.19,0,0,0,262,141.6a1.17,1.17,0,0,0-1.19,1.16Z"/><path class="cls-7" d="M264.6,141.09h.64V142h0a1.49,1.49,0,0,1,1.52-1v.72c-1.09,0-1.49.61-1.49,1.67v1.84h-.68Z"/><path class="cls-7" d="M299.79,166.06h2.72c1.26,0,1.89.57,1.89,1.54a1.39,1.39,0,0,1-.94,1.44h0c.34,0,.84.32.84,1.21a2.53,2.53,0,0,0,.32,1.5h-1.08a1.58,1.58,0,0,1-.15-.84c0-1-.21-1.51-1.13-1.51h-1.47v2.35h-1Zm1,2.59h1.63c.64,0,1-.3,1-.91s-.47-.87-1-.87h-1.62Z"/><path class="cls-7" d="M307,166.06H308l2.2,5.7h-1.07l-.54-1.51h-2.28l-.53,1.51h-1Zm-.36,3.43h1.75l-.86-2.45h0Z"/><path class="cls-7" d="M310.75,166.06h1v2.59l2.55-2.59h1.23l-2.28,2.27,2.44,3.43h-1.25L312.57,169l-.82.81v1.91h-1Z"/><path class="cls-7" d="M315.92,168.32a2,2,0,0,1,2-2.26,1.78,1.78,0,0,1,1.92,1.75c0,1.69-1.8,1.83-2.61,3h2.64v1h-4.1c0-1.3.79-1.83,1.76-2.5.49-.34,1.18-.68,1.18-1.37a.8.8,0,0,0-.84-.86c-.67,0-.89.7-.89,1.29Z"/><path class="cls-7" d="M322.29,166.06c1.12,0,2.06.7,2.06,2.88s-.94,2.94-2.06,2.94-2.05-.71-2.05-2.94S321.18,166.06,322.29,166.06Zm0,4.88c.93,0,.93-1.37.93-2s0-1.95-.93-1.95-.91,1.37-.91,1.95S321.38,170.94,322.29,170.94Z"/><path class="cls-7" d="M327.66,171.76h-1.14v-3.63h-1.41v-.85c.8,0,1.52-.26,1.64-1.11h.91Z"/><path class="cls-7" d="M330.79,168.43c.49,0,1.2-.06,1.2-.7a.74.74,0,0,0-.8-.74.87.87,0,0,0-.86,1h-1.08a1.86,1.86,0,0,1,1.94-1.93,1.72,1.72,0,0,1,1.87,1.55,1.11,1.11,0,0,1-.78,1.14v0a1.23,1.23,0,0,1,1,1.27,2.09,2.09,0,0,1-4.16-.2h1.08c0,.61.33,1.1,1,1.1a.86.86,0,0,0,.91-.88c0-.85-.74-.83-1.3-.83Z"/><path class="cls-7" d="M293,177.37a1.51,1.51,0,0,0-1.6-1.21c-1.36,0-1.94,1.12-1.94,2.31s.58,2.39,1.95,2.39a1.61,1.61,0,0,0,1.64-1.65h.76a2.32,2.32,0,0,1-2.47,2.29c-1.76,0-2.63-1.31-2.63-3a2.7,2.7,0,0,1,2.7-3,2.18,2.18,0,0,1,2.35,1.85Z"/><path class="cls-7" d="M298.18,180.05a1.65,1.65,0,0,1-1.76,1.41c-1.32,0-1.95-.92-2-2.17a2,2,0,0,1,1.95-2.16c1.46,0,1.91,1.37,1.87,2.37h-3.1a1.22,1.22,0,0,0,1.29,1.36,1,1,0,0,0,1.07-.81Zm-.65-1.15a1.19,1.19,0,0,0-1.19-1.17,1.18,1.18,0,0,0-1.19,1.17Z"/><path class="cls-7" d="M299,175.66h.67v5.7H299Z"/><path class="cls-7" d="M300.77,175.66h.68v5.7h-.68Z"/><path class="cls-7" d="M305.93,181.36h-.64v-.65h0a1.43,1.43,0,0,1-1.34.75c-1.09,0-1.42-.62-1.42-1.51v-2.72h.68V180a.77.77,0,0,0,.84.83,1.16,1.16,0,0,0,1.22-1.29v-2.34h.68Z"/><path class="cls-7" d="M307,175.66h.68v5.7H307Z"/><path class="cls-7" d="M312.39,181.35a1,1,0,0,1-.49.11c-.35,0-.57-.19-.57-.64a1.81,1.81,0,0,1-1.46.64c-.75,0-1.36-.33-1.36-1.16s.69-1.14,1.4-1.27,1.39-.09,1.39-.61-.5-.69-.92-.69c-.58,0-1,.18-1,.79h-.68c0-1,.82-1.39,1.75-1.39.74,0,1.55.17,1.55,1.14v2.13c0,.32,0,.46.21.46a.78.78,0,0,0,.21,0Zm-1.1-2.12c-.53.39-2.06,0-2.06,1,0,.45.38.61.8.61.89,0,1.26-.55,1.26-.94Z"/><path class="cls-7" d="M313,177.23h.64v.87h0a1.5,1.5,0,0,1,1.52-1v.72c-1.1,0-1.5.62-1.5,1.68v1.83H313Z"/><path class="cls-7" d="M318,175.66h1l1.8,4.79,1.81-4.79h1v5.7H323v-4.74h0l-1.78,4.74h-.65l-1.78-4.74h0v4.74H318Z"/><path class="cls-7" d="M326.67,177.13a2.17,2.17,0,1,1-2,2.17A2,2,0,0,1,326.67,177.13Zm0,3.73c.71,0,1.28-.56,1.28-1.56s-.57-1.57-1.28-1.57-1.29.57-1.29,1.57S326,180.86,326.67,180.86Z"/><path class="cls-7" d="M333.17,181.36h-.68v-.56h0a1.37,1.37,0,0,1-1.32.66,1.93,1.93,0,0,1-1.9-2.17,1.91,1.91,0,0,1,1.89-2.16,1.6,1.6,0,0,1,1.33.65h0v-2.12h.68Zm-1.92-.5c.92,0,1.26-.79,1.26-1.56s-.37-1.57-1.3-1.57-1.24.8-1.24,1.6S330.37,180.86,331.25,180.86Z"/><path class="cls-7" d="M337.64,181.36H337v-.65h0a1.42,1.42,0,0,1-1.34.75c-1.09,0-1.42-.62-1.42-1.51v-2.72h.68V180a.77.77,0,0,0,.84.83,1.16,1.16,0,0,0,1.22-1.29v-2.34h.68Z"/><path class="cls-7" d="M338.71,175.66h.68v5.7h-.68Z"/><path class="cls-7" d="M344,180.05a1.66,1.66,0,0,1-1.77,1.41c-1.32,0-1.94-.92-2-2.17a2,2,0,0,1,1.94-2.16c1.46,0,1.91,1.37,1.87,2.37h-3.09a1.21,1.21,0,0,0,1.28,1.36,1,1,0,0,0,1.08-.81Zm-.66-1.15a1.19,1.19,0,0,0-1.19-1.17,1.17,1.17,0,0,0-1.18,1.17Z"/><path class="cls-8" d="M280.75,224.75v-32.5H349.8v27.5a5,5,0,0,1-5,5Z"/><path class="cls-7" d="M348.8,193.25v26.5a4,4,0,0,1-4,4H281.75v-30.5H348.8m2-2H279.75v34.5H344.8a6,6,0,0,0,6-6v-28.5Z"/><path class="cls-7" d="M301.88,200.56h3.94v.64h-3.18V203h3v.64h-3v2h3.21v.64h-4Z"/><path class="cls-7" d="M307.6,202.13h.82v.6h-.82v2.57c0,.32.09.37.51.37h.31v.6h-.51c-.71,0-1-.15-1-.9v-2.64h-.7v-.6h.7V200.9h.68Z"/><path class="cls-7" d="M309.18,200.56h.68v2.18h0a1.4,1.4,0,0,1,1.31-.7c1.08,0,1.42.62,1.42,1.51v2.72h-.68v-2.8a.77.77,0,0,0-.84-.83,1.16,1.16,0,0,0-1.22,1.29v2.34h-.68Z"/><path class="cls-7" d="M317.15,205a1.65,1.65,0,0,1-1.77,1.4c-1.31,0-1.94-.92-2-2.17a2,2,0,0,1,1.94-2.15c1.47,0,1.92,1.37,1.88,2.37h-3.1a1.22,1.22,0,0,0,1.29,1.35,1,1,0,0,0,1.07-.8Zm-.65-1.15a1.2,1.2,0,0,0-1.2-1.17,1.17,1.17,0,0,0-1.18,1.17Z"/><path class="cls-7" d="M317.9,202.13h.64V203h0a1.5,1.5,0,0,1,1.52-1v.72c-1.09,0-1.49.61-1.49,1.67v1.84h-.68Z"/><path class="cls-7" d="M320.59,202.13h.64v.66h0a1.44,1.44,0,0,1,1.35-.75c1.08,0,1.42.62,1.42,1.51v2.72h-.68v-2.8a.77.77,0,0,0-.84-.83,1.16,1.16,0,0,0-1.22,1.29v2.34h-.68Z"/><path class="cls-7" d="M328.56,205a1.65,1.65,0,0,1-1.77,1.4c-1.32,0-1.94-.92-2-2.17a2,2,0,0,1,1.94-2.15c1.47,0,1.91,1.37,1.87,2.37h-3.09a1.21,1.21,0,0,0,1.29,1.35,1,1,0,0,0,1.07-.8Zm-.66-1.15a1.19,1.19,0,0,0-1.19-1.17,1.17,1.17,0,0,0-1.18,1.17Z"/><path class="cls-7" d="M330.27,202.13h.83v.6h-.83v2.57c0,.32.09.37.52.37h.31v.6h-.52c-.71,0-1-.15-1-.9v-2.64h-.7v-.6h.7V200.9h.68Z"/><path class="cls-7" d="M309.48,211.64a2.17,2.17,0,1,1-2,2.17A2,2,0,0,1,309.48,211.64Zm0,3.72c.71,0,1.29-.55,1.29-1.55s-.58-1.57-1.29-1.57-1.29.57-1.29,1.57S308.77,215.36,309.48,215.36Z"/><path class="cls-7" d="M312.29,211.74h.64v.65h0a1.42,1.42,0,0,1,1.34-.75c1.09,0,1.42.62,1.42,1.51v2.72H315v-2.8a.77.77,0,0,0-.84-.83,1.16,1.16,0,0,0-1.22,1.29v2.34h-.68Z"/><path class="cls-7" d="M319.07,210.16h2.51a1.69,1.69,0,1,1,0,3.37h-1.75v2.34h-.76Zm.76,2.73h1.49c.86,0,1.25-.36,1.25-1s-.39-1-1.25-1h-1.49Z"/><path class="cls-7" d="M324.87,211h-.68v-.83h.68Zm-.68.75h.68v4.13h-.68Z"/><path class="cls-7" d="M194.24,178.51H197c1.25,0,1.88.57,1.88,1.54a1.37,1.37,0,0,1-.94,1.44v0c.34,0,.85.31.85,1.2a2.55,2.55,0,0,0,.31,1.51H198a1.62,1.62,0,0,1-.15-.84c0-1-.22-1.51-1.14-1.51h-1.47v2.35h-1Zm1,2.6h1.64c.64,0,1-.31,1-.91s-.47-.88-1-.88h-1.62Z"/><path class="cls-7" d="M201.4,178.51h1.06l2.2,5.71h-1.07l-.54-1.51h-2.27l-.54,1.51h-1Zm-.35,3.44h1.74l-.85-2.46h0Z"/><path class="cls-7" d="M205.21,178.51h1v2.6l2.54-2.6H210l-2.28,2.28,2.44,3.43h-1.25L207,181.49l-.81.81v1.92h-1Z"/><path class="cls-7" d="M210.38,180.77a2,2,0,0,1,2-2.26,1.78,1.78,0,0,1,1.92,1.75c0,1.69-1.8,1.83-2.62,3h2.65v1h-4.11c0-1.31.8-1.84,1.77-2.51.48-.34,1.17-.67,1.17-1.36a.81.81,0,0,0-.84-.87c-.67,0-.89.7-.89,1.29Z"/><path class="cls-7" d="M214.82,180.77a2,2,0,0,1,2-2.26,1.77,1.77,0,0,1,1.91,1.75c0,1.69-1.8,1.83-2.61,3h2.65v1H214.7c0-1.31.8-1.84,1.76-2.51.49-.34,1.18-.67,1.18-1.36a.81.81,0,0,0-.84-.87c-.67,0-.89.7-.89,1.29Z"/><path class="cls-7" d="M221.47,182.92H219.1v-1l2.44-3.26h1V182h.74v.93h-.74v1.3h-1.08Zm0-2.88h0L220,182h1.47Z"/><path class="cls-7" d="M225.25,180.88c.49,0,1.19,0,1.19-.69a.75.75,0,0,0-.79-.75c-.58,0-.87.43-.87,1h-1.07a1.85,1.85,0,0,1,1.93-1.93,1.72,1.72,0,0,1,1.88,1.55,1.11,1.11,0,0,1-.78,1.14v0a1.24,1.24,0,0,1,1,1.27,2.09,2.09,0,0,1-4.16-.2h1.08c0,.61.33,1.1,1,1.1a.86.86,0,0,0,.91-.88c0-.84-.74-.83-1.29-.83Z"/><path class="cls-7" d="M202,188.11h.76v5.07h3v.64H202Z"/><path class="cls-7" d="M208.09,189.59a2.17,2.17,0,1,1-2,2.16A2,2,0,0,1,208.09,189.59Zm0,3.72c.71,0,1.29-.56,1.29-1.56s-.58-1.56-1.29-1.56-1.29.56-1.29,1.56S207.38,193.31,208.09,193.31Z"/><path class="cls-7" d="M211,188.11h2.69c1.07,0,1.73.57,1.73,1.49a1.36,1.36,0,0,1-1,1.45v0c.66.13.79.62.85,1.17a2.88,2.88,0,0,0,.34,1.58h-.85c-.21-.23-.09-.85-.21-1.41s-.21-1-.95-1h-1.85v2.44H211Zm2.34,2.63c.7,0,1.32-.19,1.32-1a.9.9,0,0,0-1-1h-1.89v2Z"/><path class="cls-7" d="M220,193.8a1,1,0,0,1-.49.11c-.35,0-.58-.19-.58-.64a1.79,1.79,0,0,1-1.45.64c-.75,0-1.37-.32-1.37-1.16s.7-1.14,1.4-1.27,1.39-.09,1.39-.6-.49-.69-.92-.69-1,.17-1,.78h-.68c0-1,.83-1.38,1.75-1.38.75,0,1.55.17,1.55,1.13v2.13c0,.32,0,.46.22.46a.56.56,0,0,0,.21,0Zm-1.11-2.12c-.52.39-2.06,0-2.06,1,0,.44.39.6.8.6.9,0,1.26-.55,1.26-.93Z"/><path class="cls-7" d="M199.88,202.71a2.29,2.29,0,0,1-1.84.84,2.73,2.73,0,0,1-2.71-2.88c0-1.66.91-3.1,2.71-3.1a2.22,2.22,0,0,1,2.46,1.9h-.76a1.54,1.54,0,0,0-1.7-1.26c-1.38,0-1.95,1.21-1.95,2.42a2,2,0,0,0,1.95,2.28,1.72,1.72,0,0,0,1.84-1.86h-1.83v-.64h2.5v3h-.48Z"/><path class="cls-7" d="M205.23,203.4a1,1,0,0,1-.49.11c-.35,0-.58-.19-.58-.64a1.79,1.79,0,0,1-1.45.64c-.75,0-1.37-.32-1.37-1.16s.7-1.14,1.4-1.27,1.39-.09,1.39-.61-.49-.68-.92-.68-1,.17-1,.78h-.68c0-1,.83-1.38,1.75-1.38.75,0,1.55.17,1.55,1.13v2.13c0,.32,0,.46.22.46a.56.56,0,0,0,.21,0Zm-1.11-2.12c-.52.39-2.06,0-2.06,1,0,.44.39.6.8.6.9,0,1.26-.55,1.26-.93Z"/><path class="cls-7" d="M206.8,199.28h.83v.6h-.83v2.57c0,.32.09.37.52.37h.31v.6h-.52c-.7,0-1-.15-1-.91v-2.63h-.71v-.6h.71V198h.67Z"/><path class="cls-7" d="M211.91,202.11a1.65,1.65,0,0,1-1.77,1.4c-1.32,0-1.94-.92-2-2.17a2,2,0,0,1,1.94-2.15c1.46,0,1.91,1.36,1.87,2.36h-3.09a1.21,1.21,0,0,0,1.28,1.36,1,1,0,0,0,1.08-.8Zm-.66-1.16a1.19,1.19,0,0,0-1.19-1.16,1.17,1.17,0,0,0-1.18,1.16Z"/><path class="cls-7" d="M216.77,203.42h-.72l-.84-3.29h0l-.84,3.29h-.73l-1.33-4.14h.75l.94,3.39h0l.84-3.39h.74l.86,3.39h0l.93-3.39h.7Z"/><path class="cls-7" d="M222.4,203.4a1,1,0,0,1-.48.11c-.36,0-.58-.19-.58-.64a1.81,1.81,0,0,1-1.46.64c-.75,0-1.36-.32-1.36-1.16s.69-1.14,1.4-1.27,1.39-.09,1.39-.61-.5-.68-.92-.68c-.58,0-1,.17-1,.78h-.68c0-1,.82-1.38,1.75-1.38.74,0,1.55.17,1.55,1.13v2.13c0,.32,0,.46.22.46a.51.51,0,0,0,.2,0Zm-1.1-2.12c-.53.39-2.06,0-2.06,1,0,.44.38.6.8.6.89,0,1.26-.55,1.26-.93Z"/><path class="cls-7" d="M224.66,204c-.32.8-.59,1.1-1.2,1.1A1.25,1.25,0,0,1,223,205v-.62a1.37,1.37,0,0,0,.4.09.58.58,0,0,0,.56-.37l.28-.71-1.64-4.11h.77l1.2,3.39h0l1.16-3.39h.72Z"/><path class="cls-7" d="M239.73,178.51h2.69c1.07,0,1.73.57,1.73,1.49a1.36,1.36,0,0,1-1,1.45v0c.66.12.79.62.85,1.17a2.88,2.88,0,0,0,.34,1.58h-.85c-.21-.23-.09-.85-.21-1.41s-.21-1-.95-1h-1.85v2.44h-.76Zm2.34,2.63c.71,0,1.32-.18,1.32-1a.9.9,0,0,0-1-1h-1.89v2Z"/><path class="cls-7" d="M248.76,184.2a1,1,0,0,1-.49.11c-.35,0-.57-.19-.57-.64a1.81,1.81,0,0,1-1.46.64c-.75,0-1.37-.32-1.37-1.16s.7-1.14,1.4-1.27,1.39-.09,1.39-.61-.49-.68-.92-.68-1,.17-1,.78H245c0-1,.83-1.38,1.75-1.38.75,0,1.56.17,1.56,1.13v2.13c0,.32,0,.46.21.46a.56.56,0,0,0,.21,0Zm-1.1-2.12c-.53.39-2.07,0-2.07,1,0,.44.39.6.8.6.9,0,1.27-.55,1.27-.93Z"/><path class="cls-7" d="M249.81,182.91c0,.61.56.8,1.11.8s1-.09,1-.61c0-1.07-2.7-.35-2.7-1.94,0-.83.81-1.17,1.54-1.17.93,0,1.63.29,1.69,1.29h-.67c0-.53-.52-.69-1-.69s-.88.11-.88.53.72.57,1.35.71,1.35.39,1.35,1.18c0,1-.92,1.3-1.76,1.3s-1.71-.37-1.75-1.4Z"/><path class="cls-7" d="M253.42,180.08h.68v.56h0a1.4,1.4,0,0,1,1.32-.65,1.93,1.93,0,0,1,1.9,2.17,1.9,1.9,0,0,1-1.88,2.15,1.6,1.6,0,0,1-1.34-.64h0v2.13h-.68Zm1.92.51c-.92,0-1.27.79-1.27,1.56s.37,1.56,1.3,1.56,1.24-.79,1.24-1.6S256.21,180.59,255.34,180.59Z"/><path class="cls-7" d="M258.16,178.51h.68v2.13h0a1.38,1.38,0,0,1,1.32-.65,1.93,1.93,0,0,1,1.9,2.17,1.91,1.91,0,0,1-1.89,2.15,1.59,1.59,0,0,1-1.33-.64h0v.55h-.68Zm1.92,2.08c-.92,0-1.26.79-1.26,1.56s.36,1.56,1.3,1.56,1.24-.79,1.24-1.6S261,180.59,260.08,180.59Z"/><path class="cls-7" d="M266.41,182.91a1.66,1.66,0,0,1-1.77,1.4c-1.32,0-1.94-.92-2-2.17A2,2,0,0,1,264.6,180c1.46,0,1.91,1.36,1.87,2.36h-3.09a1.21,1.21,0,0,0,1.28,1.36,1,1,0,0,0,1.07-.8Zm-.66-1.16a1.19,1.19,0,0,0-1.19-1.16,1.17,1.17,0,0,0-1.18,1.16Z"/><path class="cls-7" d="M267.15,180.08h.64V181h0a1.48,1.48,0,0,1,1.52-1v.72c-1.1,0-1.5.61-1.5,1.67v1.84h-.68Z"/><path class="cls-7" d="M269.82,180.08h.64V181h0a1.48,1.48,0,0,1,1.52-1v.72c-1.09,0-1.49.61-1.49,1.67v1.84h-.68Z"/><path class="cls-7" d="M274.13,184.77c-.32.8-.59,1.1-1.2,1.1a1.25,1.25,0,0,1-.47-.07v-.62a1.3,1.3,0,0,0,.4.09.58.58,0,0,0,.56-.37l.28-.71-1.64-4.11h.76l1.21,3.39h0l1.16-3.39h.72Z"/><path class="cls-7" d="M240.47,188.11H243a1.69,1.69,0,1,1,0,3.37h-1.74v2.34h-.76Zm.76,2.73h1.48c.87,0,1.25-.36,1.25-1s-.38-1.05-1.25-1.05h-1.48Z"/><path class="cls-7" d="M246.26,188.94h-.68v-.83h.68Zm-.68.74h.68v4.14h-.68Z"/><path class="cls-7" d="M248.55,190.58h.29a1,1,0,0,0,1.08-.93.89.89,0,0,0-1-.91,1.09,1.09,0,0,0-1.08,1.23h-.68a1.68,1.68,0,0,1,1.76-1.83c1,0,1.72.47,1.72,1.52a1.29,1.29,0,0,1-.78,1.13h0a1.29,1.29,0,0,1,1,1.38,1.75,1.75,0,0,1-1.95,1.72,1.71,1.71,0,0,1-1.89-1.84h.68a1.16,1.16,0,0,0,1.21,1.24,1.13,1.13,0,0,0,1.23-1.09,1.08,1.08,0,0,0-1.21-1.09,2.6,2.6,0,0,0-.4,0Z"/><path class="cls-7" d="M254.1,188.11h2.07a3.38,3.38,0,0,1,1.51.21,1.33,1.33,0,0,1,.67,1.19,1.31,1.31,0,0,1-.84,1.28h0a1.32,1.32,0,0,1,1.08,1.38,1.63,1.63,0,0,1-1.73,1.64H254.1Zm.76,2.45h1.52c.86,0,1.21-.3,1.21-.91,0-.8-.55-.9-1.21-.9h-1.52Zm0,2.62h1.9a1,1,0,0,0,1.07-1c0-.74-.6-1-1.24-1h-1.73Z"/><path class="cls-7" d="M261.25,189.59a2.17,2.17,0,1,1-2,2.16A2,2,0,0,1,261.25,189.59Zm0,3.72c.71,0,1.29-.56,1.29-1.56s-.58-1.56-1.29-1.56-1.29.56-1.29,1.56S260.54,193.31,261.25,193.31Z"/><path class="cls-7" d="M267.72,193.8a1,1,0,0,1-.49.11c-.35,0-.57-.19-.57-.64a1.81,1.81,0,0,1-1.46.64c-.75,0-1.36-.32-1.36-1.16s.69-1.14,1.4-1.27,1.39-.09,1.39-.6-.5-.69-.92-.69c-.58,0-1,.17-1,.78H264c0-1,.82-1.38,1.75-1.38.74,0,1.55.17,1.55,1.13v2.13c0,.32,0,.46.21.46a.52.52,0,0,0,.21,0Zm-1.1-2.12c-.53.39-2.06,0-2.06,1,0,.44.38.6.79.6.9,0,1.27-.55,1.27-.93Z"/><path class="cls-7" d="M268.33,189.68H269v.87h0a1.48,1.48,0,0,1,1.52-1v.72c-1.1,0-1.5.61-1.5,1.67v1.84h-.68Z"/><path class="cls-7" d="M274.71,193.82H274v-.56h0a1.4,1.4,0,0,1-1.32.65,1.93,1.93,0,0,1-1.9-2.17,1.9,1.9,0,0,1,1.88-2.15,1.59,1.59,0,0,1,1.34.65h0v-2.13h.68Zm-1.92-.51c.92,0,1.27-.79,1.27-1.56s-.37-1.56-1.31-1.56-1.24.79-1.24,1.6S271.91,193.31,272.79,193.31Z"/><path class="cls-7" d="M251.25,199.38a1.24,1.24,0,0,0-1.41-1.17c-.65,0-1.28.23-1.28,1,0,1.4,3.65.41,3.65,2.66,0,1.22-1.19,1.7-2.23,1.7-1.28,0-2.36-.63-2.36-2h.72c0,1,.8,1.37,1.66,1.37.69,0,1.45-.21,1.45-1,0-1.56-3.65-.53-3.65-2.63,0-1.15,1-1.67,2.07-1.67s2.06.55,2.1,1.81Z"/><path class="cls-7" d="M254,199.28h.83v.6H254v2.57c0,.32.09.37.52.37h.31v.6h-.52c-.71,0-1-.15-1-.91v-2.63h-.7v-.6h.7V198H254Z"/><path class="cls-7" d="M259.2,203.4a1,1,0,0,1-.49.11c-.35,0-.57-.19-.57-.64a1.81,1.81,0,0,1-1.46.64c-.75,0-1.36-.32-1.36-1.16s.69-1.14,1.4-1.27,1.39-.09,1.39-.61-.5-.68-.92-.68c-.58,0-1,.17-1,.78h-.68c0-1,.82-1.38,1.75-1.38.74,0,1.55.17,1.55,1.13v2.13c0,.32,0,.46.21.46a.52.52,0,0,0,.21,0Zm-1.1-2.12c-.53.39-2.06,0-2.06,1,0,.44.38.6.8.6.89,0,1.26-.55,1.26-.93Z"/><path class="cls-7" d="M262.64,200.61a1,1,0,0,0-1-.82c-1,0-1.29.78-1.29,1.61s.35,1.51,1.21,1.51a1,1,0,0,0,1.13-1h.7a1.71,1.71,0,0,1-1.82,1.6,1.88,1.88,0,0,1-1.94-2.11,1.94,1.94,0,0,1,1.95-2.21,1.59,1.59,0,0,1,1.79,1.42Z"/><path class="cls-7" d="M264.17,197.71h.68v3.38l1.89-1.81h.91L266,200.79l1.76,2.63h-.86l-1.42-2.16-.64.59v1.57h-.68Z"/><line class="cls-10" x1="58.8" y1="57.05" x2="58.8" y2="89.21"/><polygon class="cls-7" points="56.55 57.71 58.8 53.82 61.04 57.71 56.55 57.71"/><polygon class="cls-7" points="56.55 88.55 58.8 92.44 61.04 88.55 56.55 88.55"/><line class="cls-10" x1="105.3" y1="57.05" x2="105.3" y2="89.21"/><polygon class="cls-7" points="103.06 57.71 105.3 53.82 107.54 57.71 103.06 57.71"/><polygon class="cls-7" points="103.06 88.55 105.3 92.44 107.54 88.55 103.06 88.55"/><line class="cls-10" x1="80.92" y1="185.15" x2="80.92" y2="203.35"/><polygon class="cls-7" points="78.67 185.81 80.92 181.92 83.16 185.81 78.67 185.81"/><polygon class="cls-7" points="78.67 202.7 80.92 206.58 83.16 202.7 78.67 202.7"/><line class="cls-11" x1="177.31" y1="179.99" x2="145.85" y2="179.99"/><polygon class="cls-7" points="176.44 177 181.62 179.99 176.44 182.98 176.44 177"/><polygon class="cls-7" points="146.73 177 141.55 179.99 146.73 182.98 146.73 177"/><line class="cls-11" x1="398.74" y1="174.03" x2="355.1" y2="174.35"/><polygon class="cls-7" points="397.85 171.04 403.05 173.99 397.89 177.02 397.85 171.04"/><polygon class="cls-7" points="355.96 171.36 350.8 174.39 356 177.34 355.96 171.36"/><path class="cls-7" d="M360.76,215.2h.35l1.49,5.34h0l1.51-5.34h.44l1.53,5.34h0l1.46-5.34H368l-1.64,5.71h-.4l-1.57-5.4h0l-1.55,5.4h-.39Z"/><path class="cls-7" d="M368.63,216v-.83h.3V216Zm0,4.88V216.8h.3v4.11Z"/><path class="cls-7" d="M370.2,217.71h0a1.54,1.54,0,0,1,1.57-.93v.3a1.38,1.38,0,0,0-1.13.4,1.56,1.56,0,0,0-.47,1.19v2.24h-.3V216.8h.3Z"/><path class="cls-7" d="M372.24,218.9a1.61,1.61,0,0,0,1.51,1.84,1.41,1.41,0,0,0,1.47-1.22h.31a1.65,1.65,0,0,1-1.78,1.49,1.84,1.84,0,0,1-1.81-2.08c0-1.13.57-2.22,1.81-2.22a1.83,1.83,0,0,1,1.81,2.19Zm3-.27a1.58,1.58,0,0,0-1.51-1.66,1.66,1.66,0,0,0-1.51,1.66Z"/><path class="cls-7" d="M379.45,220h0a1.65,1.65,0,0,1-1.57,1c-1.24,0-1.78-1-1.78-2.15s.59-2.15,1.83-2.15a1.54,1.54,0,0,1,1.52,1h0V215.2h.3v5.71h-.3Zm0-1.17c0-1-.47-1.89-1.53-1.89s-1.52.9-1.52,1.89.48,1.88,1.53,1.88S379.44,219.81,379.44,218.86Z"/><path class="cls-7" d="M383.32,215.2v5.71H383V215.2Z"/><path class="cls-7" d="M384.36,216v-.83h.31V216Zm0,4.88V216.8h.31v4.11Z"/><path class="cls-7" d="M385.63,216.8h.31v.88h0a1.54,1.54,0,0,1,1.47-1c1.45,0,1.47,1.16,1.47,1.66v2.54h-.3v-2.6c0-.41,0-1.34-1.17-1.34a1.52,1.52,0,0,0-1.48,1.72v2.22h-.31Z"/><path class="cls-7" d="M389.8,215.2h.31V219l2.53-2.18h.44l-1.8,1.54,1.93,2.57h-.42L391,218.57l-.93.79v1.55h-.31Z"/><path class="cls-7" d="M367.58,230.21v.3H363.7V224.8h3.84v.31h-3.49v2.28h3.28v.31h-3.28v2.51Z"/><path class="cls-7" d="M369.63,226.67h-.89v2.87c0,.65.31.73.89.71v.26c-.61,0-1.24,0-1.2-1v-2.87h-.76v-.27h.76v-1.28h.31v1.28h.89Z"/><path class="cls-7" d="M370.5,224.8v2.48h0a1.54,1.54,0,0,1,1.48-1c1.44,0,1.46,1.16,1.46,1.66v2.54h-.3v-2.6c0-.41,0-1.34-1.17-1.34a1.52,1.52,0,0,0-1.48,1.72v2.22h-.31V224.8Z"/><path class="cls-7" d="M374.47,228.5a1.6,1.6,0,0,0,1.51,1.84,1.42,1.42,0,0,0,1.47-1.22h.3a1.64,1.64,0,0,1-1.77,1.49,1.85,1.85,0,0,1-1.82-2.08,1.94,1.94,0,0,1,1.82-2.22c1.28,0,1.87,1,1.81,2.19Zm3-.27a1.57,1.57,0,0,0-1.5-1.66,1.65,1.65,0,0,0-1.51,1.66Z"/><path class="cls-7" d="M378.8,227.31h0a1.54,1.54,0,0,1,1.57-.93v.3a1.38,1.38,0,0,0-1.13.4,1.55,1.55,0,0,0-.47,1.18v2.25h-.3V226.4h.3Z"/><path class="cls-7" d="M380.72,226.4H381v.88h0a1.54,1.54,0,0,1,1.47-1c1.45,0,1.47,1.16,1.47,1.66v2.54h-.31v-2.6c0-.41,0-1.34-1.16-1.34a1.52,1.52,0,0,0-1.48,1.72v2.22h-.31Z"/><path class="cls-7" d="M385,228.5a1.61,1.61,0,0,0,1.52,1.84,1.42,1.42,0,0,0,1.47-1.22h.3a1.64,1.64,0,0,1-1.77,1.49,1.84,1.84,0,0,1-1.82-2.08,1.94,1.94,0,0,1,1.82-2.22c1.28,0,1.87,1,1.8,2.19Zm3-.27a1.57,1.57,0,0,0-1.5-1.66,1.66,1.66,0,0,0-1.52,1.66Z"/><path class="cls-7" d="M390.54,226.67h-.9v2.87c0,.65.31.73.89.71v.26c-.61,0-1.23,0-1.19-1v-2.87h-.76v-.27h.76v-1.28h.3v1.28h.9Z"/><path class="cls-7" d="M375.81,189a2.17,2.17,0,1,1-1.89,2.15A1.93,1.93,0,0,1,375.81,189Zm0,4a1.91,1.91,0,1,0-1.59-1.88A1.69,1.69,0,0,0,375.81,193Z"/><path class="cls-7" d="M378.71,190h0a1.58,1.58,0,0,1,1.58-.93v.3a1.41,1.41,0,0,0-1.14.4,1.56,1.56,0,0,0-.46,1.19v2.24h-.3v-4.11h.3Z"/><line class="cls-11" x1="398.74" y1="207.74" x2="355.1" y2="208.07"/><polygon class="cls-7" points="397.85 204.76 403.05 207.71 397.89 210.74 397.85 204.76"/><polygon class="cls-7" points="355.96 205.07 350.8 208.1 356 211.06 355.96 205.07"/><rect class="cls-7" x="409.12" y="89.66" width="52.83" height="158.79" rx="26.41"/><rect class="cls-8" x="413.61" y="130.39" width="43.84" height="112.8" rx="21.92"/><path class="cls-8" d="M415.7,108.24h.76v5.07h3V114H415.7Z"/><path class="cls-8" d="M421.82,109.72a2.17,2.17,0,1,1-2,2.16A2,2,0,0,1,421.82,109.72Zm0,3.72c.71,0,1.28-.56,1.28-1.56s-.57-1.56-1.28-1.56-1.29.56-1.29,1.56S421.11,113.44,421.82,113.44Z"/><path class="cls-8" d="M424.74,108.24h2.68c1.08,0,1.74.57,1.74,1.49a1.36,1.36,0,0,1-1,1.45v0c.66.12.79.62.85,1.17a2.88,2.88,0,0,0,.34,1.58h-.85c-.21-.24-.09-.85-.21-1.41s-.21-1-.95-1H425.5V114h-.76Zm2.34,2.63c.7,0,1.32-.19,1.32-1a.9.9,0,0,0-1-1H425.5v2Z"/><path class="cls-8" d="M433.77,113.93a1,1,0,0,1-.49.11c-.35,0-.58-.19-.58-.64a1.79,1.79,0,0,1-1.45.64c-.75,0-1.37-.33-1.37-1.16s.7-1.14,1.4-1.27,1.39-.09,1.39-.61-.49-.68-.92-.68-1,.17-1,.78H430c0-1,.83-1.38,1.75-1.38.75,0,1.55.16,1.55,1.13V113c0,.32,0,.46.22.46a.56.56,0,0,0,.21,0Zm-1.11-2.12c-.52.39-2.06,0-2.06,1,0,.44.39.6.8.6.9,0,1.26-.55,1.26-.93Z"/><path class="cls-8" d="M439.67,114h-.79l-1.3-4.8h0l-1.32,4.8h-.79L434,108.24h.77l1.12,4.75h0l1.28-4.75H438l1.26,4.75h0l1.16-4.75h.76Z"/><path class="cls-8" d="M443.47,108.24h.84l2.23,5.71h-.84l-.62-1.72h-2.41L442,114h-.79Zm-.56,3.35h1.93l-.95-2.66h0Z"/><path class="cls-8" d="M447.1,108.24h.81l3,4.63h0v-4.63h.72V114h-.83l-3-4.58h0V114h-.72Z"/><path class="cls-8" d="M454.13,107.87a1.75,1.75,0,1,1-1.76,1.74A1.74,1.74,0,0,1,454.13,107.87Zm0,3.24a1.49,1.49,0,1,0-1.44-1.5A1.44,1.44,0,0,0,454.13,111.11Zm-.68-2.52h.79c.48,0,.71.19.71.59a.51.51,0,0,1-.53.55l.58.9h-.34l-.56-.87h-.33v.87h-.32Zm.32.91h.33c.28,0,.53,0,.53-.34s-.23-.31-.44-.31h-.42Z"/><path class="cls-8" d="M427.91,119.51a1.25,1.25,0,0,0-1.42-1.17c-.65,0-1.28.23-1.28,1,0,1.4,3.66.41,3.66,2.66,0,1.22-1.2,1.7-2.24,1.7-1.28,0-2.35-.63-2.35-2H425c0,1,.8,1.37,1.66,1.37.69,0,1.45-.21,1.45-1,0-1.56-3.66-.53-3.66-2.63,0-1.15,1-1.67,2.07-1.67s2.07.55,2.11,1.81Z"/><path class="cls-8" d="M433.2,122.24a1.65,1.65,0,0,1-1.77,1.4c-1.32,0-1.94-.92-2-2.17a2,2,0,0,1,1.94-2.15c1.47,0,1.91,1.36,1.87,2.36h-3.09a1.22,1.22,0,0,0,1.29,1.36,1,1,0,0,0,1.07-.8Zm-.65-1.16a1.2,1.2,0,0,0-1.2-1.16,1.17,1.17,0,0,0-1.18,1.16Z"/><path class="cls-8" d="M434,119.41h.64v.87h0a1.49,1.49,0,0,1,1.52-1V120c-1.09,0-1.49.61-1.49,1.67v1.84H434Z"/><path class="cls-8" d="M438.5,123.55h-.73l-1.53-4.14H437l1.16,3.45h0l1.13-3.45H440Z"/><path class="cls-8" d="M444.16,122.24a1.65,1.65,0,0,1-1.77,1.4c-1.32,0-1.94-.92-2-2.17a2,2,0,0,1,1.94-2.15c1.47,0,1.91,1.36,1.87,2.36h-3.09a1.22,1.22,0,0,0,1.29,1.36,1,1,0,0,0,1.07-.8Zm-.65-1.16a1.2,1.2,0,0,0-1.2-1.16,1.17,1.17,0,0,0-1.18,1.16Z"/><path class="cls-8" d="M444.91,119.41h.64v.87h0a1.49,1.49,0,0,1,1.52-1V120c-1.09,0-1.49.61-1.49,1.67v1.84h-.68Z"/><path class="cls-7" d="M419.05,149.35a1.61,1.61,0,0,0,1.52,1.85A1.42,1.42,0,0,0,422,150h.3a1.64,1.64,0,0,1-1.77,1.49,1.84,1.84,0,0,1-1.82-2.08,1.94,1.94,0,0,1,1.82-2.22c1.28,0,1.87,1,1.8,2.19Zm3-.27a1.57,1.57,0,0,0-1.5-1.66,1.66,1.66,0,0,0-1.52,1.66Z"/><path class="cls-7" d="M424.21,149.2l-1.51-1.95h.43l1.29,1.72,1.29-1.72h.39l-1.49,1.95,1.63,2.16h-.42l-1.4-1.92L423,151.36h-.39Z"/><path class="cls-7" d="M429.67,150.6c0,.24,0,.5.27.5l.23,0v.25a.72.72,0,0,1-.25,0c-.48,0-.55-.26-.55-.6v-.21h0a1.57,1.57,0,0,1-1.53.91c-.77,0-1.37-.3-1.37-1.16s.83-1.15,1.51-1.22c1.36-.08,1.41-.19,1.41-.85,0-.18-.2-.81-1.14-.81a1.12,1.12,0,0,0-1.26,1.1h-.31c0-.91.6-1.36,1.57-1.36.72,0,1.44.21,1.44,1.07Zm-.3-1.57c-.24.28-.9.23-1.49.32s-1.13.33-1.13,1,.35.9,1.08.9a1.44,1.44,0,0,0,1.54-1.4Z"/><path class="cls-7" d="M430.65,147.25h.3v.84h0a1.31,1.31,0,0,1,1.28-.93,1.14,1.14,0,0,1,1.24.87h0a1.29,1.29,0,0,1,1.3-.87,1.23,1.23,0,0,1,1.29,1.4v2.8h-.3v-2.81c0-1.05-.75-1.13-1-1.13-.74,0-1.28.52-1.28,1.51v2.43h-.31v-2.81c0-1-.71-1.13-1-1.13a1.37,1.37,0,0,0-1.3,1.51v2.43h-.3Z"/><path class="cls-7" d="M437.38,148.2h0a1.52,1.52,0,0,1,1.49-1c1.26,0,1.85,1,1.85,2.16s-.59,2.14-1.85,2.14a1.46,1.46,0,0,1-1.49-1h0v2.32h-.3v-5.58h.3Zm3.06,1.12c0-.94-.44-1.9-1.55-1.9s-1.5.92-1.5,1.9.34,1.88,1.5,1.88S440.44,150.33,440.44,149.32Z"/><path class="cls-7" d="M441.83,145.65v5.71h-.3v-5.71Z"/><path class="cls-7" d="M442.92,149.35c0,1,.5,1.85,1.51,1.85A1.42,1.42,0,0,0,445.9,150h.31a1.65,1.65,0,0,1-1.78,1.49,1.83,1.83,0,0,1-1.81-2.08,1.93,1.93,0,0,1,1.81-2.22c1.28,0,1.87,1,1.81,2.19Zm3-.27a1.56,1.56,0,0,0-1.5-1.66,1.65,1.65,0,0,0-1.51,1.66Z"/><path class="cls-7" d="M447.09,150a1.27,1.27,0,0,0,1.36,1.2c.54,0,1.31-.16,1.31-.88,0-1.39-2.83-.43-2.83-2.11,0-.8.8-1.05,1.49-1.05.87,0,1.52.37,1.52,1.31h-.3c0-.75-.53-1.05-1.22-1.05s-1.18.21-1.18.79.7.75,1.37.91,1.45.35,1.45,1.2-.89,1.14-1.61,1.14a1.48,1.48,0,0,1-1.66-1.46Z"/><path class="cls-7" d="M451.66,147.25v.83h-.41v-.83Zm-.41,4.11v-.82h.41v.82Z"/><path class="cls-7" d="M426.6,187.41h.34v3.81h-.34Z"/><path class="cls-7" d="M428.4,188.32c.63,0,1,.49,1,1.48s-.35,1.49-1,1.49-1-.49-1-1.49S427.78,188.32,428.4,188.32Zm0,2.7c.37,0,.64-.31.64-1.22s-.27-1.21-.64-1.21-.63.31-.63,1.21S428,191,428.4,191Z"/><path class="cls-7" d="M430.56,187.7h-1v-.29h2.3v.29h-1v3.52h-.34Z"/><path class="cls-7" d="M433.5,187.41h1.14a1,1,0,0,1,.3,1.92h0c.47,0,.63.31.65.9v.42a.83.83,0,0,0,.16.56h-.4a1.07,1.07,0,0,1-.1-.53v-.32c0-.68-.14-.89-.76-.89h-.65v1.74h-.34Zm.34,1.78h.59c.54,0,.85-.24.85-.75s-.19-.74-.81-.74h-.63Z"/><path class="cls-7" d="M437.93,190.28c-.05.6-.38,1-.91,1s-.95-.42-.95-1.49.35-1.48,1-1.48.91.43.91,1.38v.12h-1.55V190c0,.82.29,1.07.6,1.07s.55-.25.6-.74Zm-.31-.73c0-.71-.22-1-.61-1s-.6.25-.6,1Z"/><path class="cls-7" d="M438.4,189.23a.8.8,0,0,1,.88-.91c.58,0,.8.31.8.75v1.68c0,.16.05.24.17.24h.09v.23l-.15,0c-.25,0-.41-.06-.41-.35v-.1h0a.7.7,0,0,1-.74.49c-.49,0-.72-.32-.72-.81a.74.74,0,0,1,.57-.78l.61-.17c.23-.06.27-.12.27-.45a.43.43,0,0,0-.49-.49c-.39,0-.55.23-.55.64Zm1.36.39h0c0,.1-.21.15-.34.19l-.27.07a.54.54,0,0,0-.49.58c0,.34.18.56.45.56s.66-.29.66-.8Z"/><path class="cls-7" d="M442.24,190.75h0a.71.71,0,0,1-.7.54c-.62,0-.91-.5-.91-1.49s.29-1.48.91-1.48a.62.62,0,0,1,.66.49h0v-1.4h.32v3.81h-.28Zm-.66.27c.33,0,.62-.17.62-1.22s-.29-1.21-.62-1.21-.61.16-.61,1.21S441.26,191,441.58,191Z"/><path class="cls-7" d="M442.84,188.38h.34l.64,2.46h0l.57-2.46h.34l-.82,3.07c-.16.56-.32.71-.76.71H443v-.27h.21c.2,0,.33-.08.42-.38l.08-.26Z"/><path class="cls-7" d="M424.65,184.06a2,2,0,0,1,1.87-2.12,1.05,1.05,0,0,1,1,.56l-.57.45a.51.51,0,0,0-.42-.28c-.5,0-1,.59-1,1.34,0,.5.19.79.66.79a.89.89,0,0,0,.54-.25l.35.55a1.62,1.62,0,0,1-1.07.44A1.32,1.32,0,0,1,424.65,184.06Z"/><path class="cls-7" d="M427.66,184.5a1.64,1.64,0,0,1,1.42-1.76.77.77,0,0,1,.71.33h0l.11-.27h.69l-.54,2.67h-.69v-.35h0a1.2,1.2,0,0,1-.84.42C428,185.54,427.66,185.16,427.66,184.5Zm1.76,0,.18-.84a.46.46,0,0,0-.36-.2c-.36,0-.69.4-.69,1,0,.32.11.45.3.45A.75.75,0,0,0,429.42,184.47Z"/><path class="cls-7" d="M430.45,186.34l.24-.58a.89.89,0,0,0,.34.08.55.55,0,0,0,.54-.27l.07-.12-.58-2.65h.82l.17,1c.05.26.09.63.11.85h0c.1-.22.27-.59.41-.85l.53-1H434l-1.52,2.67a1.61,1.61,0,0,1-1.49,1A1.09,1.09,0,0,1,430.45,186.34Z"/><path class="cls-7" d="M434.14,184.34a1.56,1.56,0,0,1,1.56-1.6,1,1,0,0,1,1.11,1,2.21,2.21,0,0,1-.09.59h-1.94l.09-.53h1.35L436,184a.63.63,0,0,0,0-.19c0-.26-.14-.39-.35-.39s-.68.27-.68.92c0,.46.26.57.55.57a1.41,1.41,0,0,0,.76-.25l.28.56a2.16,2.16,0,0,1-1.24.35A1.11,1.11,0,0,1,434.14,184.34Z"/><path class="cls-7" d="M437.7,182.8h.69v.43h0a1.54,1.54,0,0,1,1-.49.62.62,0,0,1,.69.69,1.78,1.78,0,0,1,0,.39l-.33,1.65h-.85l.31-1.55a1.12,1.12,0,0,0,0-.24.2.2,0,0,0-.22-.22.92.92,0,0,0-.63.42l-.31,1.59h-.85Z"/><path class="cls-7" d="M440.91,182.8h.69v.43h0a1.54,1.54,0,0,1,1-.49.62.62,0,0,1,.69.69,1.78,1.78,0,0,1,0,.39l-.33,1.65h-.86l.31-1.55a.75.75,0,0,0,0-.24.2.2,0,0,0-.22-.22.92.92,0,0,0-.63.42l-.31,1.59h-.85Z"/><path class="cls-7" d="M443.77,184.34a1.56,1.56,0,0,1,1.56-1.6,1,1,0,0,1,1.11,1,2.13,2.13,0,0,1-.1.59H444.4l.1-.53h1.35l-.22.12a1.25,1.25,0,0,0,0-.19c0-.26-.14-.39-.35-.39s-.69.27-.69.92a.5.5,0,0,0,.56.57,1.41,1.41,0,0,0,.76-.25l.27.56a2.12,2.12,0,0,1-1.23.35A1.1,1.1,0,0,1,443.77,184.34Z"/><path class="cls-7" d="M445.73,187.33h-.36v-.1h.83v.1h-.35v1.27h-.12Z"/><path class="cls-7" d="M446.34,187.23h.21l.33,1.22h0l.33-1.22h.21v1.37h-.13v-1.26h0l-.36,1.26h-.11l-.36-1.26h0v1.26h-.12Z"/><path class="cls-7" d="M436.24,164.47a7.93,7.93,0,0,0-1.46.13,7.76,7.76,0,0,0,2.75,15.28,7.48,7.48,0,0,0,4.74-2.81,2.08,2.08,0,0,0,.19-2.44,2.12,2.12,0,0,0-2.16-1.12,2.33,2.33,0,0,0-1.62.92,3.3,3.3,0,0,1-5.63-3.12,3.15,3.15,0,0,1,2.41-2.29,3.22,3.22,0,0,1,3.33,1.13,2.26,2.26,0,0,0,3.18.3,2.22,2.22,0,0,0,.21-3.18A7.72,7.72,0,0,0,436.24,164.47Z"/><path class="cls-7" d="M436.2,173.83a1.55,1.55,0,1,0-1.56-1.55A1.56,1.56,0,0,0,436.2,173.83Z"/><path class="cls-7" d="M431.74,204.77a5,5,0,0,1,2.24-2.9,4.78,4.78,0,0,1,2.81-.68,4.71,4.71,0,0,1,2.13.63,4.94,4.94,0,0,1,2.45,3.56,4.64,4.64,0,0,1,.42-.25,3,3,0,0,1,2.9,0,3.55,3.55,0,0,1,1.85,2.26,2.79,2.79,0,0,1-.11,1.93,2.12,2.12,0,0,1-.21.36c-.09.13-.09.12,0,.19a2.24,2.24,0,0,1,1.31,1.71,2.76,2.76,0,0,1-.67,2.24,2.93,2.93,0,0,1-1.91,1,2.85,2.85,0,0,1-.5,0H424.05a3.16,3.16,0,0,1-3.1-2.54,3.2,3.2,0,0,1,1-3.1,2.86,2.86,0,0,1,1.45-.73.12.12,0,0,0,.11-.09,3.16,3.16,0,0,1,1.64-2.2,3.33,3.33,0,0,1,1.07-.38.11.11,0,0,0,.11-.11,3,3,0,0,1,2.43-2.28,2.85,2.85,0,0,1,2.64.89A2.51,2.51,0,0,1,431.74,204.77Z"/><path class="cls-7" d="M450.19,207.14a5.91,5.91,0,0,1-.15,1.32.52.52,0,0,1-.67.38.51.51,0,0,1-.39-.63,4.24,4.24,0,0,0-1.28-4.2,4,4,0,0,0-1.8-1,.52.52,0,0,1-.38-.62.53.53,0,0,1,.66-.43,5.39,5.39,0,0,1,4,4.58C450.18,206.77,450.18,207,450.19,207.14Z"/><path class="cls-7" d="M448.35,207.14a3.06,3.06,0,0,1-.1.79.53.53,0,0,1-.67.41.52.52,0,0,1-.39-.67,2.28,2.28,0,0,0-.18-1.6,2.23,2.23,0,0,0-1.45-1.16.54.54,0,0,1-.42-.41.57.57,0,0,1,.17-.55.45.45,0,0,1,.44-.12,3.33,3.33,0,0,1,2.53,2.58c0,.08,0,.17,0,.27A3.23,3.23,0,0,1,448.35,207.14Z"/><path class="cls-7" d="M420.79,216.52h2.54c.09,0,.12,0,.11.12v.56c0,.07,0,.09-.09.09h-.7c-.09,0-.11,0-.1.1v2.77c0,.1,0,.14-.13.13h-.63c-.09,0-.11,0-.11-.11v-2.76c0-.11,0-.14-.13-.13h-.76Z"/><path class="cls-7" d="M439.72,223.89a1.27,1.27,0,0,1-.55-.29,1.17,1.17,0,0,1-.32-1.23,1.09,1.09,0,0,1,.92-.81,1.17,1.17,0,0,1,1.33,1.21,1.14,1.14,0,0,1-.9,1.1l0,0Zm.8-1.17a.58.58,0,0,0,0-.23.54.54,0,0,0-.53-.44.53.53,0,0,0-.55.42.86.86,0,0,0,0,.55.52.52,0,0,0,.49.37.55.55,0,0,0,.56-.35A.72.72,0,0,0,440.52,222.72Z"/><path class="cls-7" d="M440.64,218v1.31c0,.3,0,.59,0,.88,0,.08,0,.1-.1.1-.23,0-.45,0-.68,0s-.09,0-.09-.09v-3.6c0-.08,0-.09.1-.09h.66a.18.18,0,0,1,.17.09c.44.71.9,1.41,1.35,2.12l.06.09a.21.21,0,0,0,0-.13v-2.06c0-.09,0-.11.11-.11h.65c.09,0,.11,0,.11.11,0,1.18,0,2.37,0,3.56,0,.09,0,.11-.12.11s-.44,0-.66,0a.16.16,0,0,1-.15-.08c-.45-.72-.91-1.44-1.37-2.15a.43.43,0,0,1,0-.07Z"/><path class="cls-7" d="M446.26,218.18h.79s.08,0,.08,0a4.93,4.93,0,0,1,0,.77,1.47,1.47,0,0,1-.49.89,1.81,1.81,0,0,1-2.68-.26,2,2,0,0,1,.48-2.9,1.91,1.91,0,0,1,2.36.32s.06.06,0,.11-.32.35-.48.52-.05.06-.08,0a.89.89,0,0,0-1-.41,1,1,0,0,0-.72.77,1.21,1.21,0,0,0,.36,1.32.85.85,0,0,0,1.25-.17.54.54,0,0,0,.09-.25c0-.07,0-.1-.08-.09h-.68c-.07,0-.09,0-.09-.09a4.17,4.17,0,0,0,0-.5c0-.08,0-.09.09-.09Z"/><path class="cls-7" d="M426.87,218.41v1.77c0,.09,0,.12-.11.12s-.45,0-.67,0c-.07,0-.09,0-.09-.1v-1.31c0-.09,0-.11-.11-.11h-1c-.09,0-.12,0-.11.11v1.3c0,.08,0,.11-.1.11s-.46,0-.69,0c-.06,0-.08,0-.08-.09v-3.6c0-.07,0-.09.09-.09h.68c.08,0,.1,0,.1.1v1.3c0,.09,0,.11.11.11h1c.09,0,.12,0,.12-.12v-1.29c0-.08,0-.1.1-.1h.66c.09,0,.11,0,.11.11Z"/><path class="cls-7" d="M434.52,218.41c0-.6,0-1.19,0-1.78,0-.09,0-.11.11-.11h.67c.07,0,.09,0,.09.09v1.32c0,.08,0,.1.1.1h1c.09,0,.1,0,.1-.11v-1.29c0-.08,0-.12.1-.11h.68c.07,0,.09,0,.09.09v3.6c0,.06,0,.09-.08.09q-.36,0-.72,0c-.07,0-.07,0-.07-.09v-1.32c0-.08,0-.11-.1-.11h-1c-.07,0-.09,0-.09.09v1.33c0,.08,0,.1-.1.1s-.44,0-.66,0-.11,0-.11-.11C434.53,219.6,434.52,219,434.52,218.41Z"/><path class="cls-7" d="M427.59,218.41c0-.6,0-1.19,0-1.79,0-.08,0-.1.1-.1h2c.09,0,.11,0,.1.11v.57c0,.08,0,.1-.09.1h-1.1c-.07,0-.1,0-.1.09a5,5,0,0,1,0,.55c0,.09,0,.1.11.1h1c.08,0,.1,0,.1.1a5,5,0,0,0,0,.55c0,.08,0,.11-.11.11h-1c-.11,0-.13,0-.13.13a4.68,4.68,0,0,1,0,.53c0,.07,0,.09.1.09h1.11c.07,0,.1,0,.1.1a5.42,5.42,0,0,0,0,.57c0,.07,0,.09-.09.09-.66,0-1.33,0-2,0-.08,0-.1,0-.1-.1C427.59,219.6,427.59,219,427.59,218.41Z"/><path class="cls-7" d="M447.87,219.13a2.45,2.45,0,0,0,.6.36,1,1,0,0,0,.61,0,.32.32,0,0,0,.25-.24.3.3,0,0,0-.14-.34,4.24,4.24,0,0,0-.7-.37,1.15,1.15,0,0,1-.66-.67,1.08,1.08,0,0,1,.55-1.29,1.44,1.44,0,0,1,1.15-.08,1.88,1.88,0,0,1,.56.25c.06,0,.06.06,0,.11s-.2.37-.29.56-.06.06-.11,0a1.28,1.28,0,0,0-.6-.22.85.85,0,0,0-.32,0,.28.28,0,0,0-.09.49,2.42,2.42,0,0,0,.5.27,2.42,2.42,0,0,1,.74.44,1.07,1.07,0,0,1-.27,1.71,2.16,2.16,0,0,1-1.62,0,2.08,2.08,0,0,1-.56-.32s-.08,0-.05-.1C447.6,219.6,447.73,219.37,447.87,219.13Z"/><path class="cls-7" d="M432.28,218.78v-1.39c0-.08,0-.11-.1-.1h-.7c-.07,0-.11,0-.1-.1s0-.39,0-.58,0-.09.09-.09H434c.07,0,.08,0,.08.08v.6c0,.08,0,.09-.1.09h-.67c-.1,0-.13,0-.13.12,0,.92,0,1.84,0,2.76,0,.1,0,.13-.14.12h-.62c-.1,0-.11,0-.11-.11Z"/><path class="cls-7" d="M434.35,223.11c.07-.28.14-.55.22-.82s.11-.41.15-.61,0-.08.11-.08c.31,0,.3,0,.38.29s.21.79.31,1.19c0,0,0,.06.05.08.06-.22.11-.43.16-.64l.21-.84c0-.05,0-.08.07-.08h.53l-.3,1.07c-.11.37-.21.74-.32,1.11a.1.1,0,0,1-.11.09h-.39c-.08,0-.11,0-.13-.1-.1-.37-.21-.74-.32-1.12-.05,0-.05.09-.06.13-.09.33-.19.65-.28,1a.12.12,0,0,1-.14.11h-.4a.08.08,0,0,1-.09-.06c-.2-.73-.41-1.47-.62-2.21h.51c.07,0,.07,0,.08.08.12.47.23.93.34,1.4a0,0,0,0,1,0,0Z"/><path class="cls-7" d="M438.19,218.41c0-.6,0-1.19,0-1.78,0-.09,0-.12.12-.11H439c.07,0,.08,0,.08.08v3.62c0,.06,0,.08-.07.08-.24,0-.47,0-.71,0-.09,0-.08-.05-.08-.11Z"/><path class="cls-7" d="M421.59,222.51c0,.42,0,.83,0,1.25,0,.08,0,.12-.11.11h-.34c-.06,0-.08,0-.08-.08v-2.11c0-.06,0-.09.08-.08h0c.14,0,.3,0,.4,0s.16.21.24.33c.19.3.39.6.58.91l.07.1a.17.17,0,0,0,0-.12V221.7c0-.08,0-.11.1-.1h.35c.06,0,.07,0,.07.07v2.13s0,.07-.07.07h0c-.14,0-.31,0-.42,0s-.16-.22-.24-.34l-.58-.91-.07-.09Z"/><path class="cls-7" d="M444.19,223c0,.25,0,.5,0,.75,0,.07,0,.1-.1.1h-.34c-.07,0-.09,0-.09-.08v-2.11s0-.08.06-.08a8.42,8.42,0,0,1,.87,0,.62.62,0,0,1,.61.54.66.66,0,0,1-.39.75c-.07,0,0,.06,0,.1l.73.88a2.66,2.66,0,0,0-.4,0,.42.42,0,0,1-.43-.21c-.14-.21-.3-.4-.45-.59C444.24,223.05,444.23,223,444.19,223Zm0-.73a1.21,1.21,0,0,1,0,.19c0,.1,0,.12.13.12h.1a.26.26,0,0,0,.25-.29.26.26,0,0,0-.25-.29c-.23,0-.23,0-.23.2Z"/><path class="cls-7" d="M448.46,222.52l.71-.85a.17.17,0,0,1,.15-.07h.55l-.53.62-.33.38c-.06.05-.05.09,0,.14l.93,1,.06.08h-.68c-.05,0-.07-.05-.09-.08l-.75-.86s0,.07,0,.1v.76c0,.05,0,.08-.07.08H448c-.06,0-.07,0-.07-.07v-2.13c0-.06,0-.07.07-.07h.36c.08,0,.09,0,.09.09Z"/><path class="cls-7" d="M425.68,222.72v-1c0-.08,0-.11.1-.11h1.11c.07,0,.1,0,.09.1s0,.27,0,.34-.22,0-.34,0h-.34c-.06,0-.08,0-.08.08s0,.25,0,.32.2,0,.31,0h.33c.07,0,.09,0,.09.09s.05.29,0,.36-.22,0-.34,0h-.3c-.06,0-.08,0-.08.08s0,.27,0,.34.22,0,.33,0h.36c.06,0,.08,0,.07.08s0,.28,0,.36-.23,0-.35,0c-.28,0-.55,0-.83,0-.09,0-.1,0-.1-.1Z"/><path class="cls-7" d="M430,223c0-.27,0-.53,0-.79,0-.08,0-.11-.1-.11h-.37s-.08,0-.07-.07v0c0-.12,0-.28,0-.35s.23,0,.35,0H431c.09,0,.12,0,.11.11a1.41,1.41,0,0,0,0,.29c0,.06,0,.08-.08.08h-.37c-.07,0-.09,0-.09.1v1.59c0,.09,0,.13-.11.12a1.71,1.71,0,0,0-.32,0c-.07,0-.1,0-.1-.09C430,223.49,430,223.22,430,223Z"/><path class="cls-7" d="M43.74,38.87h.84l2.23,5.71H46l-.62-1.72H42.93l-.64,1.72h-.78Zm-.57,3.35h1.94l-1-2.66h0Z"/><path class="cls-7" d="M50.07,41.78A1,1,0,0,0,49,41c-1,0-1.28.79-1.28,1.62s.34,1.51,1.2,1.51a1.06,1.06,0,0,0,1.14-1h.7A1.72,1.72,0,0,1,49,44.68,1.87,1.87,0,0,1,47,42.57a2,2,0,0,1,2-2.22,1.58,1.58,0,0,1,1.78,1.43Z"/><path class="cls-7" d="M52.5,40.45h.82v.6H52.5v2.57c0,.32.09.36.51.36h.31v.6H52.8c-.7,0-1-.14-1-.9V41.05h-.7v-.6h.7V39.21h.68Z"/><path class="cls-7" d="M57.5,44.58h-.64v-.65h0a1.42,1.42,0,0,1-1.34.75c-1.09,0-1.42-.62-1.42-1.51V40.45h.68v2.8a.77.77,0,0,0,.84.83,1.16,1.16,0,0,0,1.22-1.3V40.45h.68Z"/><path class="cls-7" d="M62.19,44.57a1,1,0,0,1-.49.11c-.35,0-.58-.19-.58-.64a1.79,1.79,0,0,1-1.45.64c-.75,0-1.37-.33-1.37-1.16s.7-1.14,1.4-1.27,1.39-.09,1.39-.61S60.6,41,60.17,41s-1,.18-1,.79h-.68c0-1,.82-1.39,1.75-1.39.75,0,1.55.17,1.55,1.14v2.13c0,.32,0,.46.22.46a1,1,0,0,0,.21,0Zm-1.11-2.12c-.52.39-2.06,0-2.06,1,0,.45.38.61.8.61.9,0,1.26-.55,1.26-.94Z"/><path class="cls-7" d="M63.77,40.45h.82v.6h-.82v2.57c0,.32.08.36.51.36h.31v.6h-.52c-.7,0-1-.14-1-.9V41.05h-.71v-.6h.71V39.21h.68Z"/><path class="cls-7" d="M67.12,40.35a2.17,2.17,0,1,1-2,2.17A2,2,0,0,1,67.12,40.35Zm0,3.73c.72,0,1.29-.56,1.29-1.56S67.84,41,67.12,41s-1.28.57-1.28,1.57S66.41,44.08,67.12,44.08Z"/><path class="cls-7" d="M69.91,40.45h.64v.87h0a1.49,1.49,0,0,1,1.51-1v.72c-1.09,0-1.49.62-1.49,1.67v1.84h-.68Z"/><path class="cls-7" d="M73,43.28c0,.61.56.8,1.11.8s1-.1,1-.62c0-1.06-2.7-.34-2.7-1.93,0-.83.82-1.18,1.54-1.18.93,0,1.64.29,1.7,1.3H75c0-.53-.52-.7-1-.7s-.88.12-.88.53.72.58,1.35.72,1.35.38,1.35,1.18c0,1-.92,1.3-1.76,1.3s-1.71-.38-1.75-1.4Z"/><path class="cls-7" d="M67.29,31.92h-4.2v-2.1a.48.48,0,0,0-.27-.44.47.47,0,0,0-.51,0l-3,2.06V28.41H61a.51.51,0,0,0,.37-.16.52.52,0,0,0,.13-.39,2.71,2.71,0,1,0-5.42,0,.51.51,0,0,0,.12.39.55.55,0,0,0,.38.16H58.3v3.06l-3-2.06a.49.49,0,0,0-.52,0,.49.49,0,0,0-.27.44v2.1H50.31a.5.5,0,0,0,0,1H54.5V35a.51.51,0,0,0,.27.44.53.53,0,0,0,.24.06.47.47,0,0,0,.28-.09L58.8,33l3.51,2.4a.48.48,0,0,0,.51,0,.49.49,0,0,0,.27-.44v-2.1h4.2a.5.5,0,0,0,0-1ZM57.23,27.41a1.61,1.61,0,0,1,3.14,0H57.23Zm-1.72,6.66v-3.3l2.4,1.65Zm6.58,0-2.4-1.65,2.4-1.65Z"/><polygon class="cls-8" points="121.04 126.99 40.66 126.99 40.66 158.27 121.04 126.99"/><path class="cls-7" d="M47.75,136.33h.76v5.07h3V142H47.75Z"/><path class="cls-7" d="M53.87,137.81a2.17,2.17,0,1,1-2,2.17A2,2,0,0,1,53.87,137.81Zm0,3.72c.71,0,1.29-.55,1.29-1.55s-.58-1.57-1.29-1.57-1.29.57-1.29,1.57S53.16,141.53,53.87,141.53Z"/><path class="cls-7" d="M56.79,136.33h2.69c1.07,0,1.73.58,1.73,1.49a1.36,1.36,0,0,1-1,1.45v0c.66.13.79.62.85,1.17a2.86,2.86,0,0,0,.34,1.58h-.85c-.21-.23-.09-.85-.21-1.41s-.21-1-1-1H57.55V142h-.76ZM59.13,139c.71,0,1.32-.18,1.32-1a.9.9,0,0,0-1-1H57.55v2Z"/><path class="cls-7" d="M65.82,142a1,1,0,0,1-.49.11c-.35,0-.57-.19-.57-.63a1.83,1.83,0,0,1-1.46.63c-.75,0-1.37-.32-1.37-1.15s.7-1.15,1.4-1.28,1.39-.08,1.39-.6-.49-.69-.92-.69-1,.17-1,.78h-.68c0-1,.83-1.38,1.75-1.38.75,0,1.55.17,1.55,1.13v2.13c0,.32,0,.46.22.46a.82.82,0,0,0,.21,0Zm-1.1-2.12c-.53.4-2.07,0-2.07,1,0,.45.39.6.8.6.9,0,1.27-.55,1.27-.93Z"/><path class="cls-7" d="M71.72,142h-.79l-1.3-4.8h0L68.29,142H67.5L66,136.33h.77l1.12,4.75h0l1.28-4.75h.82l1.26,4.75h0l1.16-4.75h.76Z"/><path class="cls-7" d="M75.52,136.33h.84L78.59,142h-.84l-.62-1.72H74.72L74.08,142h-.79ZM75,139.68h1.93l-1-2.66h0Z"/><path class="cls-7" d="M79.15,136.33H80L83,141h0v-4.63h.72V142h-.83l-3-4.58h0V142h-.72Z"/><path class="cls-7" d="M86.18,136a1.75,1.75,0,1,1-1.76,1.74A1.74,1.74,0,0,1,86.18,136Zm0,3.24a1.49,1.49,0,1,0-1.44-1.5A1.44,1.44,0,0,0,86.18,139.2Zm-.68-2.51h.79c.48,0,.71.19.71.58a.51.51,0,0,1-.53.55l.58.91h-.34l-.56-.88h-.33v.88H85.5Zm.32.9h.33c.28,0,.54,0,.54-.34s-.24-.31-.45-.31h-.42Z"/><path class="cls-7" d="M94.19,138a1.24,1.24,0,0,0-1.42-1.17c-.64,0-1.27.24-1.27,1,0,1.41,3.65.41,3.65,2.66,0,1.22-1.19,1.7-2.23,1.7-1.28,0-2.36-.63-2.36-2h.72c0,1,.8,1.37,1.66,1.37.69,0,1.45-.21,1.45-1,0-1.57-3.65-.54-3.65-2.64,0-1.15,1-1.67,2.07-1.67a1.84,1.84,0,0,1,2.1,1.81Z"/><path class="cls-7" d="M96,136.33h.68V142H96Z"/><path class="cls-7" d="M101.4,142a1,1,0,0,1-.49.11c-.35,0-.58-.19-.58-.63a1.81,1.81,0,0,1-1.45.63c-.75,0-1.37-.32-1.37-1.15s.7-1.15,1.4-1.28,1.39-.08,1.39-.6-.49-.69-.92-.69-1,.17-1,.78h-.68c0-1,.83-1.38,1.75-1.38.75,0,1.55.17,1.55,1.13v2.13c0,.32,0,.46.22.46a.82.82,0,0,0,.21,0Zm-1.11-2.12c-.52.4-2.06,0-2.06,1,0,.45.39.6.8.6.9,0,1.26-.55,1.26-.93Z"/><path class="cls-7" d="M103.89,142h-.72l-1.54-4.14h.76l1.16,3.45h0l1.12-3.45h.72Z"/><path class="cls-7" d="M109.56,140.73a1.65,1.65,0,0,1-1.77,1.4c-1.32,0-1.94-.92-2-2.17a2,2,0,0,1,1.94-2.15c1.46,0,1.91,1.37,1.87,2.37h-3.09a1.2,1.2,0,0,0,1.28,1.35,1,1,0,0,0,1.08-.8Zm-.66-1.15a1.19,1.19,0,0,0-1.19-1.17,1.17,1.17,0,0,0-1.18,1.17Z"/><path class="cls-7" d="M114.26,136.19h.59l-2.37,6h-.58Z"/><path class="cls-7" d="M67.46,145.93h2.69c1.08,0,1.73.58,1.73,1.49a1.35,1.35,0,0,1-1,1.45v0c.67.13.79.62.86,1.17a2.86,2.86,0,0,0,.33,1.58h-.84c-.22-.23-.1-.85-.21-1.41s-.22-1-1-1H68.22v2.44h-.76Zm2.34,2.63c.71,0,1.32-.18,1.32-1a.9.9,0,0,0-1-1H68.22v2Z"/><path class="cls-7" d="M74.49,145.93h.84l2.23,5.71h-.84l-.62-1.72H73.69l-.64,1.72h-.79Zm-.56,3.35h1.93l-1-2.66h0Z"/><path class="cls-7" d="M78.13,145.93h.75v2.85l2.9-2.85h1l-2.4,2.3,2.5,3.41h-1l-2.06-2.89-1,.89v2h-.75Z"/><path class="cls-7" d="M85.69,145.93h.75V151h3v.64H85.69Z"/><path class="cls-7" d="M90.13,145.93h2.69c1.08,0,1.73.58,1.73,1.49a1.35,1.35,0,0,1-1,1.45v0c.67.13.8.62.86,1.17a2.86,2.86,0,0,0,.34,1.58h-.85c-.22-.23-.1-.85-.21-1.41s-.22-1-1-1H90.89v2.44h-.76Zm2.35,2.63c.7,0,1.32-.18,1.32-1a.91.91,0,0,0-1-1H90.89v2Z"/><path class="cls-7" d="M71.58,214.64c0-1-.78-1.46-1.83-1.46-.65,0-1.57.27-1.57,1.22s1,1.07,1.95,1.27,2,.46,2,1.58-1.14,1.61-2,1.61c-1.34,0-2.43-.55-2.41-2H68c-.06,1.25.92,1.72,2.06,1.72.68,0,1.65-.31,1.65-1.3s-1-1.14-2-1.34-1.94-.44-1.94-1.51,1-1.52,1.92-1.52c1.19,0,2.12.51,2.18,1.76Z"/><path class="cls-7" d="M72.4,213h.41l1.8,2.51L76.46,213h.4l-2,2.78L77,218.72h-.42l-1.94-2.67-1.94,2.67h-.41l2.14-2.93Z"/><path class="cls-7" d="M80,218.72H78.84v-3.63H77.43v-.85c.79,0,1.51-.26,1.64-1.12H80Z"/><path class="cls-7" d="M81.58,215.27a2,2,0,0,1,2-2.26,1.78,1.78,0,0,1,1.92,1.75c0,1.7-1.8,1.83-2.61,3h2.64v1H81.45c0-1.3.8-1.84,1.77-2.5.49-.34,1.18-.68,1.18-1.37a.8.8,0,0,0-.84-.86c-.68,0-.89.69-.89,1.28Z"/><path class="cls-7" d="M89.87,214.1A6.83,6.83,0,0,0,88,218.72H86.82a8.23,8.23,0,0,1,1.88-4.54H86.05v-1.06h3.82Z"/><path class="cls-7" d="M91.67,216.55l-1.36-2h1.3l.72,1.08.72-1.08h1.26L93,216.52l1.53,2.2h-1.3l-.86-1.3-.87,1.3H90.18Z"/></svg>