<?xml version="1.0" encoding="utf-8"?>
<!-- Generator: Adobe Illustrator 26.3.1, SVG Export Plug-In . SVG Version: 6.00 Build 0)  -->
<svg version="1.1" id="Layer_2_00000038378747656278205780000003895477304635935379_"
	 xmlns="http://www.w3.org/2000/svg" xmlns:xlink="http://www.w3.org/1999/xlink" x="0px" y="0px" viewBox="0 0 245 159.1"
	 style="enable-background:new 0 0 245 159.1;" xml:space="preserve">
<style type="text/css">
	.st0{fill:#BFBFBF;}
	.st1{fill:#E9F3FA;}
	.st2{fill:#414954;}
	.st3{fill:#373940;}
	.st4{fill:#C8B99F;}
	.st5{fill:#D2D2D2;}
	.st6{fill:none;}
	.st7{fill:#BE904B;}
	.st8{fill:none;stroke:#FFFFFF;stroke-width:0.6795;stroke-linecap:round;stroke-miterlimit:10;}
	.st9{fill:#7F7F7F;}
	.st10{fill:#333333;}
	.st11{fill:#B2B2B2;}
	.st12{fill:#B85C00;}
	.st13{fill:#FA0200;}
	.st14{fill:#FFFFFF;}
</style>
<path class="st0" d="M105.8,28H0v24.7h6.2c4.9,0,8.8,3.9,8.8,8.8s-3.9,8.8-8.8,8.8H0v60.9h105.8V28z"/>
<path class="st1" d="M77.8,47.6v-0.9c0-0.8,0.7-1.5,1.5-1.5h16.1c0.8,0,1.5,0.7,1.5,1.5l0,0v0.9c0,0.8-0.7,1.5-1.5,1.5H79.3
	C78.5,49.1,77.8,48.4,77.8,47.6L77.8,47.6"/>
<path class="st1" d="M77.8,111.7v-0.9c0-0.8,0.7-1.5,1.5-1.5h16.1c0.8,0,1.5,0.7,1.5,1.5v0.9c0,0.8-0.7,1.5-1.5,1.5H79.3
	C78.5,113.2,77.8,112.5,77.8,111.7L77.8,111.7"/>
<path class="st2" d="M91.8,114.8h1.6c0.8,0,1.5-0.7,1.5-1.5v-3.1c0-0.6-0.4-1.2-1-1.4V50.1c0.6-0.2,1-0.8,1-1.4v-3.1
	c0-0.8-0.7-1.5-1.5-1.5l0,0h-1.6c-0.7,0-1.3,0.4-1.4,1.1h-6c-0.2-0.6-0.8-1.1-1.4-1.1h-1.6c-0.8,0-1.5,0.7-1.5,1.5l0,0v3.1
	c0,0.6,0.4,1.2,1,1.4v58.5c-0.6,0.2-1,0.8-1,1.4v3.2c0,0.8,0.7,1.5,1.5,1.5h1.6c0.6,0,1.2-0.4,1.4-1h6.1
	C90.7,114.4,91.2,114.8,91.8,114.8"/>
<path class="st3" d="M82.2,107.1V51.8c0-0.4,0.3-0.8,0.8-0.8h8.5c0.4,0,0.8,0.3,0.8,0.8v55.3c0,0.4-0.3,0.8-0.8,0.8H83
	C82.5,107.9,82.2,107.5,82.2,107.1L82.2,107.1"/>
<path class="st4" d="M20.2,61.4v-0.9c0-7.5-6.1-13.5-13.6-13.5H0v5.7h6.2c4.9,0,8.8,3.9,8.8,8.8s-3.9,8.8-8.8,8.8H0V75h6.6
	C14.1,75,20.2,68.9,20.2,61.4L20.2,61.4"/>
<polygon class="st5" points="63.2,90.4 66.9,90.4 66.9,80.9 63.2,80.9 63.2,77.4 66.9,77.4 66.9,67 63.2,67 63.2,63.5 66.9,63.5 
	66.9,54.2 63.2,54.2 63.2,50.5 43.6,50.5 43.6,93.7 63.2,93.7 "/>
<rect y="28" class="st6" width="105.8" height="103.1"/>
<g>
	<path class="st5" d="M34.7,33.3v2.4L26.5,38v0l8.2,2.6V43l-8.2,2.6v0l8.2,2.4v2.3l-10.5-3.5v-2.4l8.1-2.6v0l-8.1-2.6v-2.4
		L34.7,33.3L34.7,33.3z"/>
	<path class="st5" d="M32,51.2v2h-7.8v-2H32z M34.9,51.2v2h-1.7v-2H34.9z"/>
	<path class="st5" d="M26.6,56.8c-1.2,0-1.4,1.4-1.4,2.2c0,1,0.3,2.1,1,2.1c0.6,0,0.8-0.3,1.1-2.5c0.3-2.4,0.6-3.7,2.4-3.7
		c2.2,0,2.5,2.6,2.5,3.9c0,1.2-0.2,4.1-2.7,4.2v-2.1c1.2-0.2,1.3-1.5,1.3-2.2c0-1.2-0.5-1.8-0.9-1.8c-0.6,0-0.7,0.2-1,2.2
		c-0.4,2.6-0.6,4.3-2.4,4.3c-2,0-2.7-1.9-2.7-4.3c0-1.7,0.3-4.3,2.7-4.4C26.6,54.6,26.6,56.8,26.6,56.8z"/>
</g>
<g>
	<path class="st5" d="M34.7,64.3v5c0,2-0.6,3.4-2.6,3.4c-1,0-1.7-0.5-2.2-1.4c-0.4,1.3-1.4,1.9-2.7,1.9c-2.1,0-3.1-1.8-3.1-3.7v-5.1
		C24.2,64.3,34.7,64.3,34.7,64.3z M26,66.6v2.5c0,0.9,0.3,1.7,1.4,1.7c1.1,0,1.5-0.7,1.5-1.7v-2.5H26z M30.5,66.6V69
		c0,0.8,0.4,1.4,1.3,1.4c1,0,1.2-0.8,1.2-1.6v-2.2H30.5z"/>
	<path class="st5" d="M34.7,74.7V77h-8.6v5.1h-1.9v-7.5L34.7,74.7L34.7,74.7z"/>
	<path class="st5" d="M35,88.2c0,3.2-2.4,5.2-5.6,5.2c-3,0-5.5-1.9-5.5-5.2s2.4-5.2,5.5-5.2C32.5,83,35,84.9,35,88.2z M25.9,88.2
		c0,2.1,1.8,2.9,3.5,2.9c1.8,0,3.6-0.8,3.6-2.9c0-2.1-1.8-2.9-3.6-2.9C27.7,85.3,25.9,86.1,25.9,88.2z"/>
	<path class="st5" d="M31.2,102c1-0.2,1.8-1.2,1.8-2.3c0-2.1-1.8-2.9-3.6-2.9c-1.8,0-3.5,0.8-3.5,2.9c0,1.4,1,2.2,2.4,2.4v2.2
		c-2.6-0.2-4.3-2-4.3-4.6c0-3.2,2.4-5.2,5.5-5.2c3.1,0,5.6,1.9,5.6,5.2c0,2.3-1.4,4.3-3.8,4.5C31.2,104.2,31.2,102,31.2,102z"/>
	<path class="st5" d="M34.7,105.9v2.3h-4.4l4.4,4.1v2.9l-4.2-4.1l-6.4,4.5v-2.9l4.7-3.2l-1.3-1.3h-3.4v-2.3L34.7,105.9L34.7,105.9z"
		/>
</g>
<rect y="28" class="st6" width="105.8" height="103.1"/>
<path class="st1" d="M100.2,56.7V55c0-0.3-0.2-0.5-0.5-0.5h-1.5c-0.2,0-0.5,0.2-0.5,0.4h-4.1v1.8h4.1c0,0.2,0.2,0.4,0.5,0.4h1.5
	C100,57.2,100.2,57,100.2,56.7L100.2,56.7"/>
<path class="st7" d="M92.1,56.5v-2.3c0-0.2,0.2-0.4,0.4-0.4h1.1c0.2,0,0.4,0.2,0.4,0.4v2.3c0,0.2-0.2,0.4-0.4,0.4h-1.1
	C92.2,56.9,92.1,56.7,92.1,56.5"/>
<path class="st1" d="M74.2,56.7V55c0-0.3,0.2-0.5,0.5-0.5h1.5c0.2,0,0.4,0.2,0.5,0.4h4.1v1.8h-4.1c0,0.2-0.2,0.4-0.5,0.4h-1.5
	C74.4,57.2,74.2,57,74.2,56.7L74.2,56.7"/>
<path class="st7" d="M82.3,56.5v-2.3c0-0.2-0.2-0.4-0.4-0.4h-1.1c-0.2,0-0.4,0.2-0.4,0.4v2.3c0,0.2,0.2,0.4,0.4,0.4H82
	C82.2,56.9,82.3,56.7,82.3,56.5L82.3,56.5"/>
<path class="st1" d="M100.2,61v-1.7c0-0.3-0.2-0.5-0.5-0.5h-1.5c-0.2,0-0.5,0.2-0.5,0.4h-4.1V61h4.1c0,0.2,0.2,0.4,0.5,0.4h1.5
	C100,61.4,100.2,61.2,100.2,61L100.2,61"/>
<path class="st7" d="M92.1,60.8v-2.3c0-0.2,0.2-0.4,0.4-0.4h1.1c0.2,0,0.4,0.2,0.4,0.4v2.3c0,0.2-0.2,0.4-0.4,0.4h-1.1
	C92.2,61.1,92.1,61,92.1,60.8"/>
<path class="st1" d="M74.2,61v-1.7c0-0.3,0.2-0.5,0.5-0.5h1.5c0.2,0,0.4,0.2,0.5,0.4h4.1V61h-4.1c0,0.2-0.2,0.4-0.5,0.4h-1.5
	C74.4,61.4,74.2,61.2,74.2,61L74.2,61"/>
<path class="st7" d="M82.3,60.8v-2.3c0-0.2-0.2-0.4-0.4-0.4h-1.1c-0.2,0-0.4,0.2-0.4,0.4v2.3c0,0.2,0.2,0.4,0.4,0.4H82
	C82.2,61.1,82.3,61,82.3,60.8L82.3,60.8"/>
<path class="st1" d="M100.2,65.5v-1.7c0-0.3-0.2-0.5-0.5-0.5h-1.5c-0.2,0-0.5,0.2-0.5,0.4h-4.1v1.8h4.1c0,0.2,0.2,0.4,0.5,0.4h1.5
	C100,66,100.2,65.7,100.2,65.5"/>
<path class="st7" d="M92.1,65.3v-2.3c0-0.2,0.2-0.4,0.4-0.4h1.1c0.2,0,0.4,0.2,0.4,0.4v2.3c0,0.2-0.2,0.4-0.4,0.4h-1.1
	C92.2,65.6,92.1,65.5,92.1,65.3"/>
<path class="st1" d="M74.2,65.5v-1.7c0-0.3,0.2-0.5,0.5-0.5h1.5c0.2,0,0.5,0.2,0.5,0.4h4.1v1.8h-4.1c0,0.2-0.2,0.4-0.5,0.4h-1.5
	C74.4,65.9,74.2,65.7,74.2,65.5"/>
<path class="st7" d="M82.3,65.3v-2.3c0-0.2-0.2-0.4-0.4-0.4h-1.1c-0.2,0-0.4,0.2-0.4,0.4v2.3c0,0.2,0.2,0.4,0.4,0.4H82
	C82.2,65.6,82.3,65.5,82.3,65.3L82.3,65.3"/>
<path class="st1" d="M100.2,69.9v-1.7c0-0.3-0.2-0.5-0.5-0.5h-1.5c-0.2,0-0.5,0.2-0.5,0.4h-4.1v1.8h4.1c0,0.2,0.2,0.4,0.5,0.4h1.5
	C100,70.3,100.2,70.1,100.2,69.9"/>
<path class="st7" d="M92.1,69.7v-2.3c0-0.2,0.2-0.4,0.4-0.4h1.1c0.2,0,0.4,0.2,0.4,0.4v2.3c0,0.2-0.2,0.4-0.4,0.4h-1.1
	C92.2,70,92.1,69.9,92.1,69.7"/>
<path class="st1" d="M74.2,69.9v-1.7c0-0.3,0.2-0.5,0.5-0.5h1.5c0.2,0,0.5,0.2,0.5,0.4h4.1v1.8h-4.1c0,0.2-0.2,0.4-0.5,0.4h-1.5
	C74.4,70.4,74.2,70.2,74.2,69.9"/>
<path class="st7" d="M82.3,69.7v-2.3c0-0.2-0.2-0.4-0.4-0.4h-1.1c-0.2,0-0.4,0.2-0.4,0.4v2.3c0,0.2,0.2,0.4,0.4,0.4H82
	C82.2,70,82.3,69.9,82.3,69.7L82.3,69.7"/>
<path class="st1" d="M100.2,74.2v-1.7c0-0.3-0.2-0.5-0.5-0.5h-1.5c-0.2,0-0.5,0.2-0.5,0.4h-4.1v1.8h4.1c0,0.2,0.2,0.4,0.5,0.4h1.5
	C100,74.6,100.2,74.4,100.2,74.2"/>
<path class="st7" d="M92.1,73.9v-2.3c0-0.2,0.2-0.4,0.4-0.4h1.1c0.2,0,0.4,0.2,0.4,0.4v2.3c0,0.2-0.2,0.4-0.4,0.4h-1.1
	C92.2,74.3,92.1,74.2,92.1,73.9"/>
<path class="st1" d="M74.2,74.2v-1.7c0-0.3,0.2-0.5,0.5-0.5h1.5c0.2,0,0.5,0.2,0.5,0.4h4.1v1.8h-4.1c0,0.2-0.2,0.4-0.5,0.4h-1.5
	C74.4,74.6,74.2,74.4,74.2,74.2L74.2,74.2"/>
<path class="st7" d="M82.3,73.9v-2.3c0-0.2-0.2-0.4-0.4-0.4h-1.1c-0.2,0-0.4,0.2-0.4,0.4v2.3c0,0.2,0.2,0.4,0.4,0.4H82
	C82.2,74.3,82.3,74.2,82.3,73.9L82.3,73.9"/>
<path class="st1" d="M100.2,78.4v-1.7c0-0.3-0.2-0.5-0.5-0.5h-1.5c-0.2,0-0.5,0.2-0.5,0.4h-4.1v1.8h4.1c0,0.2,0.2,0.4,0.5,0.4h1.5
	C100,78.9,100.2,78.7,100.2,78.4"/>
<path class="st7" d="M92.1,78.2v-2.3c0-0.2,0.2-0.4,0.4-0.4h1.1c0.2,0,0.4,0.2,0.4,0.4v2.3c0,0.2-0.2,0.4-0.4,0.4h-1.1
	C92.2,78.6,92.1,78.4,92.1,78.2"/>
<path class="st1" d="M74.2,78.4v-1.7c0-0.3,0.2-0.5,0.5-0.5h1.5c0.2,0,0.5,0.2,0.5,0.4h4.1v1.8h-4.1c0,0.2-0.2,0.4-0.5,0.4h-1.5
	C74.4,78.9,74.2,78.7,74.2,78.4"/>
<path class="st7" d="M82.3,78.2v-2.3c0-0.2-0.2-0.4-0.4-0.4h-1.1c-0.2,0-0.4,0.2-0.4,0.4v2.3c0,0.2,0.2,0.4,0.4,0.4H82
	C82.2,78.6,82.3,78.4,82.3,78.2"/>
<path class="st1" d="M100.2,82.7V81c0-0.3-0.2-0.5-0.5-0.5h-1.5c-0.2,0-0.4,0.2-0.5,0.4h-4.1v1.8h4.1c0,0.2,0.2,0.4,0.5,0.4h1.5
	C100,83.2,100.2,83,100.2,82.7"/>
<path class="st7" d="M92.1,82.5v-2.3c0-0.2,0.2-0.4,0.4-0.4h1.1c0.2,0,0.4,0.2,0.4,0.4v2.3c0,0.2-0.2,0.4-0.4,0.4h-1.1
	C92.2,82.9,92.1,82.7,92.1,82.5"/>
<path class="st1" d="M74.2,82.7V81c0-0.3,0.2-0.5,0.5-0.5h1.5c0.2,0,0.5,0.2,0.5,0.4h4.1v1.8h-4.1c0,0.2-0.2,0.4-0.5,0.4h-1.5
	C74.4,83.2,74.2,83,74.2,82.7"/>
<path class="st7" d="M82.3,82.5v-2.3c0-0.2-0.2-0.4-0.4-0.4h-1.1c-0.2,0-0.4,0.2-0.4,0.4v2.3c0,0.2,0.2,0.4,0.4,0.4H82
	C82.2,82.9,82.3,82.7,82.3,82.5"/>
<path class="st1" d="M100.2,87.1v-1.7c0-0.3-0.2-0.5-0.5-0.5h-1.5c-0.2,0-0.4,0.2-0.5,0.4h-4.1v1.8h4.1c0,0.2,0.2,0.4,0.5,0.4h1.5
	C100,87.5,100.2,87.3,100.2,87.1"/>
<path class="st7" d="M92.1,86.8v-2.3c0-0.2,0.2-0.4,0.4-0.4h1.1c0.2,0,0.4,0.2,0.4,0.4v2.3c0,0.2-0.2,0.4-0.4,0.4h-1.1
	C92.2,87.2,92.1,87,92.1,86.8"/>
<path class="st1" d="M74.2,87.1v-1.7c0-0.3,0.2-0.5,0.5-0.5h1.5c0.2,0,0.5,0.2,0.5,0.4h4.1v1.8h-4.1c0,0.2-0.2,0.4-0.5,0.4h-1.5
	C74.4,87.5,74.2,87.3,74.2,87.1"/>
<path class="st7" d="M82.3,86.8v-2.3c0-0.2-0.2-0.4-0.4-0.4h-1.1c-0.2,0-0.4,0.2-0.4,0.4v2.3c0,0.2,0.2,0.4,0.4,0.4H82
	C82.2,87.2,82.3,87,82.3,86.8"/>
<path class="st1" d="M100.2,91.4v-1.7c0-0.3-0.2-0.5-0.5-0.5h-1.5c-0.2,0-0.5,0.2-0.5,0.4h-4.1v1.8h4.1c0,0.2,0.2,0.4,0.5,0.4h1.5
	C100,91.9,100.2,91.7,100.2,91.4L100.2,91.4"/>
<path class="st7" d="M92.1,91.2v-2.3c0-0.2,0.2-0.4,0.4-0.4h1.1c0.2,0,0.4,0.2,0.4,0.4v2.3c0,0.2-0.2,0.4-0.4,0.4h-1.1
	C92.2,91.6,92.1,91.4,92.1,91.2"/>
<path class="st1" d="M74.2,91.4v-1.7c0-0.3,0.2-0.5,0.5-0.5h1.5c0.2,0,0.5,0.2,0.5,0.4h4.1v1.8h-4.1c0,0.2-0.2,0.4-0.5,0.4h-1.5
	C74.4,91.9,74.2,91.7,74.2,91.4L74.2,91.4"/>
<path class="st7" d="M82.3,91.2v-2.3c0-0.2-0.2-0.4-0.4-0.4h-1.1c-0.2,0-0.4,0.2-0.4,0.4v2.3c0,0.2,0.2,0.4,0.4,0.4H82
	C82.2,91.6,82.3,91.4,82.3,91.2"/>
<path class="st1" d="M100.2,95.7v-1.7c0-0.3-0.2-0.5-0.5-0.5h-1.5c-0.2,0-0.5,0.2-0.5,0.4h-4.1v1.8h4.1c0,0.3,0.2,0.5,0.5,0.5h1.5
	C100,96.2,100.2,96,100.2,95.7L100.2,95.7"/>
<path class="st7" d="M92.1,95.5v-2.3c0-0.2,0.2-0.4,0.4-0.4h1.1c0.2,0,0.4,0.2,0.4,0.4v2.3c0,0.2-0.2,0.4-0.4,0.4h-1.1
	C92.2,95.9,92.1,95.7,92.1,95.5"/>
<path class="st1" d="M74.2,95.7v-1.7c0-0.3,0.2-0.5,0.5-0.5h1.5c0.2,0,0.5,0.2,0.5,0.4h4.1v1.8h-4.1c0,0.2-0.2,0.4-0.5,0.4h-1.5
	C74.4,96.2,74.2,95.9,74.2,95.7"/>
<path class="st7" d="M82.3,95.5v-2.3c0-0.2-0.2-0.4-0.4-0.4h-1.1c-0.2,0-0.4,0.2-0.4,0.4v2.3c0,0.2,0.2,0.4,0.4,0.4H82
	C82.2,95.9,82.3,95.7,82.3,95.5L82.3,95.5"/>
<path class="st1" d="M100.2,100.1v-1.7c0-0.3-0.2-0.5-0.5-0.5h-1.5c-0.2,0-0.5,0.2-0.5,0.4h-4.1v1.8h4.1c0,0.2,0.2,0.4,0.5,0.4h1.5
	C100,100.6,100.2,100.4,100.2,100.1L100.2,100.1"/>
<path class="st7" d="M92.1,99.9v-2.3c0-0.2,0.2-0.4,0.4-0.4h1.1c0.2,0,0.4,0.2,0.4,0.4v2.3c0,0.2-0.2,0.4-0.4,0.4h-1.1
	C92.2,100.3,92.1,100.1,92.1,99.9"/>
<path class="st1" d="M74.2,100.1v-1.7c0-0.3,0.2-0.5,0.5-0.5h1.5c0.2,0,0.4,0.2,0.5,0.4h4.1v1.8h-4.1c0,0.2-0.2,0.4-0.5,0.4h-1.5
	C74.4,100.6,74.2,100.4,74.2,100.1L74.2,100.1"/>
<path class="st7" d="M82.3,99.9v-2.3c0-0.2-0.2-0.4-0.4-0.4h-1.1c-0.2,0-0.4,0.2-0.4,0.4v2.3c0,0.2,0.2,0.4,0.4,0.4H82
	C82.2,100.3,82.3,100.1,82.3,99.9L82.3,99.9"/>
<path class="st1" d="M100.2,104.5v-1.7c0-0.3-0.2-0.5-0.5-0.5h-1.5c-0.2,0-0.4,0.2-0.5,0.4h-4.1v1.8h4.1c0,0.2,0.2,0.4,0.5,0.4h1.5
	C100,105,100.2,104.8,100.2,104.5"/>
<path class="st7" d="M92.1,104.3V102c0-0.2,0.2-0.4,0.4-0.4h1.1c0.2,0,0.4,0.2,0.4,0.4v2.3c0,0.2-0.2,0.4-0.4,0.4h-1.1
	C92.2,104.7,92.1,104.5,92.1,104.3"/>
<path class="st1" d="M74.2,104.5v-1.7c0-0.3,0.2-0.5,0.5-0.5h1.5c0.2,0,0.5,0.2,0.5,0.4h4.1v1.8h-4.1c0,0.2-0.2,0.4-0.5,0.4h-1.5
	C74.4,105,74.2,104.8,74.2,104.5"/>
<path class="st7" d="M82.3,104.3V102c0-0.2-0.2-0.4-0.4-0.4h-1.1c-0.2,0-0.4,0.2-0.4,0.4v2.3c0,0.2,0.2,0.4,0.4,0.4H82
	C82.2,104.7,82.3,104.5,82.3,104.3"/>
<path class="st7" d="M93,45.2c0.5,0,0.9,0.7,0.9,1.6s-0.4,1.6-0.9,1.6s-0.9-0.7-0.9-1.6S92.5,45.2,93,45.2"/>
<path class="st7" d="M81.5,45.2c0.5,0,0.9,0.7,0.9,1.6s-0.4,1.6-0.9,1.6s-0.9-0.7-0.9-1.6S81,45.2,81.5,45.2"/>
<path class="st7" d="M93,110.1c0.5,0,0.9,0.7,0.9,1.6s-0.4,1.6-0.9,1.6s-0.9-0.7-0.9-1.6S92.5,110.1,93,110.1"/>
<path class="st7" d="M81.5,110.1c0.5,0,0.9,0.7,0.9,1.6s-0.4,1.6-0.9,1.6s-0.9-0.7-0.9-1.6S81,110.1,81.5,110.1"/>
<line class="st8" x1="75.3" y1="52.4" x2="75.3" y2="49.1"/>
<polyline class="st8" points="75.3,46.8 75.3,42.2 98.7,42.2 98.7,52.4 "/>
<line class="st8" x1="98.7" y1="106.5" x2="98.7" y2="109.8"/>
<polyline class="st8" points="98.7,112.2 98.7,116.8 75.3,116.8 75.3,106.5 "/>
<rect y="28" class="st6" width="105.8" height="103.1"/>
<g>
	<path class="st5" d="M9.6,119c2.2,0,3,1.5,3,2.4c0,0.9-0.5,1.6-1.3,1.9v0c1.1,0.2,1.7,1.1,1.7,2.2c0,1.9-1.7,2.8-3.4,2.8
		c-1.7,0-3.4-0.9-3.4-2.8c0-1.1,0.6-2,1.7-2.2v0c-0.9-0.2-1.3-1-1.3-1.9C6.6,119.9,8.2,119,9.6,119z M9.6,127c0.9,0,1.5-0.6,1.5-1.5
		c0-0.9-0.7-1.4-1.5-1.4c-0.9,0-1.6,0.5-1.6,1.4S8.8,127,9.6,127z M9.6,122.8c0.8,0,1.4-0.4,1.4-1.2c0-0.5-0.2-1.3-1.4-1.3
		c-0.7,0-1.4,0.4-1.4,1.3C8.3,122.4,8.9,122.8,9.6,122.8z"/>
	<path class="st5" d="M15.2,122.7c-0.1-2.1,1.1-3.6,3.3-3.6c1.7,0,3.1,1.1,3.1,2.8c0,2.7-2.9,3-4.2,4.8h4.3v1.6H15
		c0-2.1,1.3-3,2.8-4c0.8-0.6,1.9-1.1,1.9-2.2c0-0.9-0.6-1.4-1.4-1.4c-1.1,0-1.4,1.1-1.4,2.1C17,122.7,15.2,122.7,15.2,122.7z"/>
	<path class="st5" d="M28.4,121.5c-0.1-0.6-0.6-1.1-1.2-1.1c-1.3,0-1.7,1.8-1.7,2.7l0,0c0.5-0.7,1.2-1,2-1c0.8,0,1.6,0.4,2.1,0.9
		c0.5,0.6,0.7,1.3,0.7,2c0,1.8-1.3,3.3-3.2,3.3c-2.7,0-3.5-2.4-3.5-4.7c0-2.2,1-4.7,3.5-4.7c1.6,0,2.7,0.9,2.9,2.5L28.4,121.5
		L28.4,121.5z M25.7,125.2c0,0.8,0.5,1.7,1.5,1.7c0.9,0,1.4-0.8,1.4-1.7c0-0.9-0.4-1.7-1.4-1.7C26.2,123.6,25.7,124.3,25.7,125.2z"
		/>
	<path class="st5" d="M37.2,128.2h-1.8v-5.9h-2.3V121c1.3,0,2.4-0.4,2.6-1.8h1.5V128.2L37.2,128.2z"/>
	<path class="st5" d="M44.4,119c1.8,0,3.3,1.1,3.3,4.7c0,3.6-1.5,4.7-3.3,4.7c-1.8,0-3.3-1.1-3.3-4.7C41.1,120.2,42.6,119,44.4,119z
		 M44.4,126.9c1.5,0,1.5-2.2,1.5-3.2c0-0.9,0-3.1-1.5-3.1c-1.5,0-1.5,2.2-1.5,3.1C43,124.7,43,126.9,44.4,126.9z"/>
	<path class="st5" d="M53.1,119c1.8,0,3.3,1.1,3.3,4.7c0,3.6-1.5,4.7-3.3,4.7c-1.8,0-3.3-1.1-3.3-4.7C49.8,120.2,51.3,119,53.1,119z
		 M53.1,126.9c1.5,0,1.5-2.2,1.5-3.2c0-0.9,0-3.1-1.5-3.1c-1.5,0-1.5,2.2-1.5,3.1C51.7,124.7,51.7,126.9,53.1,126.9z"/>
	<path class="st5" d="M63.3,128.2h-1.8v-5.9h-2.3V121c1.3,0,2.4-0.4,2.6-1.8h1.5V128.2L63.3,128.2z"/>
	<path class="st5" d="M67.9,119H72c2.3,0,3.2,1.5,3.2,3s-0.9,3-3.2,3h-2.1v3.3h-2L67.9,119L67.9,119z M69.9,123.4h1.6
		c0.9,0,1.8-0.2,1.8-1.4s-0.9-1.4-1.8-1.4h-1.6C69.9,120.6,69.9,123.4,69.9,123.4z"/>
</g>
<g>
	<rect x="185.8" y="0" class="st9" width="14.4" height="159.1"/>
	<rect x="167.8" y="0" class="st9" width="14.4" height="159.1"/>
	<path class="st10" d="M160.9,0h5.6c0.8,0,1.4,0.6,1.4,1.4v7c0,0.8-0.6,1.4-1.4,1.4h-5.6c-0.8,0-1.4-0.6-1.4-1.4v-7
		C159.5,0.6,160.1,0,160.9,0z"/>
	<path class="st10" d="M170.7,0h10.1c0.7,0,1.2,0.5,1.2,1.2v7.4c0,0.7-0.5,1.2-1.2,1.2h-10.1c-0.7,0-1.2-0.5-1.2-1.2V1.2
		C169.5,0.5,170,0,170.7,0z"/>
	<path class="st11" d="M170.7,13.4h10.1c0.7,0,1.2,0.5,1.2,1.2V22c0,0.7-0.5,1.2-1.2,1.2h-10.1c-0.7,0-1.2-0.5-1.2-1.2v-7.4
		C169.5,14,170,13.4,170.7,13.4z"/>
	<path class="st11" d="M170.7,27.2h10.1c0.7,0,1.2,0.5,1.2,1.2v7.4c0,0.7-0.5,1.2-1.2,1.2h-10.1c-0.7,0-1.2-0.5-1.2-1.2v-7.4
		C169.5,27.8,170,27.2,170.7,27.2z"/>
	<path class="st12" d="M170.7,41.1h10.1c0.7,0,1.2,0.5,1.2,1.2v7.4c0,0.7-0.5,1.2-1.2,1.2h-10.1c-0.7,0-1.2-0.5-1.2-1.2v-7.4
		C169.5,41.6,170,41.1,170.7,41.1z"/>
	<path class="st11" d="M170.7,54.3h10.1c0.7,0,1.2,0.5,1.2,1.2v7.4c0,0.7-0.5,1.2-1.2,1.2h-10.1c-0.7,0-1.2-0.5-1.2-1.2v-7.4
		C169.5,54.8,170,54.3,170.7,54.3z"/>
	<path class="st11" d="M170.7,67.5h10.1c0.7,0,1.2,0.5,1.2,1.2v7.4c0,0.7-0.5,1.2-1.2,1.2h-10.1c-0.7,0-1.2-0.5-1.2-1.2v-7.4
		C169.5,68,170,67.5,170.7,67.5z"/>
	<path class="st13" d="M170.7,81.2h10.1c0.7,0,1.2,0.5,1.2,1.2v7.4c0,0.7-0.5,1.2-1.2,1.2h-10.1c-0.7,0-1.2-0.5-1.2-1.2v-7.4
		C169.5,81.7,170,81.2,170.7,81.2z"/>
	<path class="st11" d="M170.7,94.6h10.1c0.7,0,1.2,0.5,1.2,1.2v7.4c0,0.7-0.5,1.2-1.2,1.2h-10.1c-0.7,0-1.2-0.5-1.2-1.2v-7.4
		C169.5,95.1,170,94.6,170.7,94.6z"/>
	<path class="st12" d="M170.7,108.1h10.1c0.7,0,1.2,0.5,1.2,1.2v7.4c0,0.7-0.5,1.2-1.2,1.2h-10.1c-0.7,0-1.2-0.5-1.2-1.2v-7.4
		C169.5,108.7,170,108.1,170.7,108.1z"/>
	<path class="st11" d="M170.7,121.8h10.1c0.7,0,1.2,0.5,1.2,1.2v7.4c0,0.7-0.5,1.2-1.2,1.2h-10.1c-0.7,0-1.2-0.5-1.2-1.2V123
		C169.5,122.4,170,121.8,170.7,121.8z"/>
	<path class="st11" d="M170.7,136h10.1c0.7,0,1.2,0.5,1.2,1.2v7.4c0,0.7-0.5,1.2-1.2,1.2h-10.1c-0.7,0-1.2-0.5-1.2-1.2v-7.4
		C169.5,136.5,170,136,170.7,136z"/>
	<path class="st11" d="M170.7,149.3h10.1c0.7,0,1.2,0.5,1.2,1.2v7.4c0,0.7-0.5,1.2-1.2,1.2h-10.1c-0.7,0-1.2-0.5-1.2-1.2v-7.4
		C169.5,149.8,170,149.3,170.7,149.3z"/>
	<path class="st11" d="M187,0h10.1c0.7,0,1.2,0.5,1.2,1.2v7.4c0,0.7-0.5,1.2-1.2,1.2H187c-0.7,0-1.2-0.5-1.2-1.2V1.2
		C185.8,0.5,186.3,0,187,0z"/>
	<path class="st11" d="M187,13.4h10.1c0.7,0,1.2,0.5,1.2,1.2V22c0,0.7-0.5,1.2-1.2,1.2H187c-0.7,0-1.2-0.5-1.2-1.2v-7.4
		C185.8,14,186.3,13.4,187,13.4z"/>
	<path class="st11" d="M187,27.2h10.1c0.7,0,1.2,0.5,1.2,1.2v7.4c0,0.7-0.5,1.2-1.2,1.2H187c-0.7,0-1.2-0.5-1.2-1.2v-7.4
		C185.8,27.8,186.3,27.2,187,27.2z"/>
	<path class="st12" d="M187,41.1h10.1c0.7,0,1.2,0.5,1.2,1.2v7.4c0,0.7-0.5,1.2-1.2,1.2H187c-0.7,0-1.2-0.5-1.2-1.2v-7.4
		C185.8,41.6,186.3,41.1,187,41.1z"/>
	<path class="st11" d="M187,54.3h10.1c0.7,0,1.2,0.5,1.2,1.2v7.4c0,0.7-0.5,1.2-1.2,1.2H187c-0.7,0-1.2-0.5-1.2-1.2v-7.4
		C185.8,54.8,186.3,54.3,187,54.3z"/>
	<path class="st13" d="M187,67.5h10.1c0.7,0,1.2,0.5,1.2,1.2v7.4c0,0.7-0.5,1.2-1.2,1.2H187c-0.7,0-1.2-0.5-1.2-1.2v-7.4
		C185.8,68,186.3,67.5,187,67.5z"/>
	<path class="st11" d="M187,81.2h10.1c0.7,0,1.2,0.5,1.2,1.2v7.4c0,0.7-0.5,1.2-1.2,1.2H187c-0.7,0-1.2-0.5-1.2-1.2v-7.4
		C185.8,81.7,186.3,81.2,187,81.2z"/>
	<path class="st11" d="M187,94.6h10.1c0.7,0,1.2,0.5,1.2,1.2v7.4c0,0.7-0.5,1.2-1.2,1.2H187c-0.7,0-1.2-0.5-1.2-1.2v-7.4
		C185.8,95.1,186.3,94.6,187,94.6z"/>
	<path class="st12" d="M187,108.1h10.1c0.7,0,1.2,0.5,1.2,1.2v7.4c0,0.7-0.5,1.2-1.2,1.2H187c-0.7,0-1.2-0.5-1.2-1.2v-7.4
		C185.8,108.7,186.3,108.1,187,108.1z"/>
	<path class="st11" d="M187,121.8h10.1c0.7,0,1.2,0.5,1.2,1.2v7.4c0,0.7-0.5,1.2-1.2,1.2H187c-0.7,0-1.2-0.5-1.2-1.2V123
		C185.8,122.4,186.3,121.8,187,121.8z"/>
	<path class="st11" d="M187,136h10.1c0.7,0,1.2,0.5,1.2,1.2v7.4c0,0.7-0.5,1.2-1.2,1.2H187c-0.7,0-1.2-0.5-1.2-1.2v-7.4
		C185.8,136.5,186.3,136,187,136z"/>
	<path class="st10" d="M187,149.3h10.1c0.7,0,1.2,0.5,1.2,1.2v7.4c0,0.7-0.5,1.2-1.2,1.2H187c-0.7,0-1.2-0.5-1.2-1.2v-7.4
		C185.8,149.8,186.3,149.3,187,149.3z"/>
	<path class="st14" d="M173.6,4.9c0-1.2,0.6-2.1,1.9-2.1c1,0,1.8,0.6,1.8,1.6c0,1.6-1.7,1.7-2.4,2.8h2.5v0.9h-3.8
		c0-1.2,0.7-1.7,1.7-2.3c0.5-0.3,1.1-0.6,1.1-1.3c0-0.4-0.3-0.8-0.7-0.8c0,0-0.1,0-0.1,0c-0.6,0-0.8,0.7-0.8,1.2L173.6,4.9
		L173.6,4.9z"/>
	<path class="st14" d="M193.2,8.1H192V4.3h-1.5V3.4c0.8,0,1.6-0.3,1.7-1.2h0.9L193.2,8.1L193.2,8.1z"/>
	<path class="st14" d="M191.8,18c0.5,0,1.3-0.1,1.3-0.7c0-0.4-0.4-0.8-0.8-0.8c0,0,0,0-0.1,0c-0.6,0-0.9,0.4-0.9,1.1h-1.1
		c0-1.2,0.8-2,2-2c0.9,0,2,0.6,2,1.6c0,0.5-0.3,1-0.8,1.2v0c0.6,0.1,1.1,0.7,1,1.3c0,1.2-1,1.9-2.2,1.9c-1.3,0-2.2-0.8-2.2-2.1h1.1
		c0,0.6,0.3,1.2,1,1.2c0.5,0,0.9-0.4,1-0.9c0,0,0,0,0-0.1c0-0.9-0.8-0.9-1.4-0.9L191.8,18L191.8,18z"/>
	<path class="st14" d="M194.1,30.5h-2.4l-0.2,1.3l0,0c0.3-0.3,0.7-0.5,1.2-0.5c1.2,0,1.8,0.9,1.8,2c0,1.2-1,2.1-2.1,2.1l0,0
		c-1.2,0-2.2-0.6-2.2-1.9h1.2c0,0.5,0.5,0.9,1,0.9c0.6,0,1-0.5,1-1.1s-0.4-1.1-1-1.1c-0.4,0-0.7,0.2-0.9,0.5h-1.1l0.6-3.2h3.3
		L194.1,30.5L194.1,30.5z"/>
	<path class="st14" d="M191.3,60.5c0.1,0.4,0.4,0.7,0.8,0.7c0.9,0,1.1-1.2,1.1-1.8l0,0c-0.3,0.4-0.8,0.7-1.3,0.7
		c-0.5,0-1-0.2-1.4-0.6c-0.3-0.4-0.5-0.8-0.5-1.3c0-1.2,0.8-2.2,2.1-2.2c1.8,0,2.3,1.6,2.3,3c0,1.4-0.6,3.1-2.3,3.1
		c-1,0-1.8-0.6-1.9-1.6L191.3,60.5L191.3,60.5z M193.1,58.1c0-0.5-0.3-1.1-1-1.1s-0.9,0.5-0.9,1.1s0.3,1.1,0.9,1.1
		S193.1,58.7,193.1,58.1z"/>
	<g>
		<path class="st14" d="M190.9,75.4h-1.2v-3.8h-1.5v-0.9c0.8,0,1.6-0.3,1.7-1.2h1L190.9,75.4L190.9,75.4z"/>
		<path class="st14" d="M195.5,75.4h-1.2v-3.8h-1.5v-0.9c0.8,0,1.6-0.3,1.7-1.2h0.9L195.5,75.4L195.5,75.4z"/>
	</g>
	<g>
		<path class="st14" d="M190.9,116.3h-1.2v-3.8h-1.5v-0.9c0.8,0,1.6-0.3,1.7-1.2h1L190.9,116.3L190.9,116.3z"/>
		<path class="st14" d="M196.6,111.4c-1.2,1.1-1.9,3.3-1.9,4.9h-1.3c0.2-1.8,0.8-3.4,2-4.8h-2.8v-1.1h4
			C196.6,110.4,196.6,111.4,196.6,111.4z"/>
	</g>
	<g>
		<path class="st14" d="M190.9,130h-1.2v-3.8h-1.5v-0.9c0.8,0,1.6-0.3,1.7-1.2h1L190.9,130L190.9,130z"/>
		<path class="st14" d="M193.7,128.5c0.1,0.4,0.4,0.7,0.8,0.7c0.9,0,1.1-1.2,1.1-1.8l0,0c-0.3,0.4-0.8,0.7-1.3,0.7
			c-0.5,0-1-0.2-1.4-0.6c-0.3-0.4-0.5-0.8-0.5-1.3c0-1.2,0.8-2.2,2.1-2.2c1.8,0,2.3,1.6,2.3,3c0,1.4-0.6,3.1-2.3,3.1
			c-1,0-1.8-0.6-1.9-1.6L193.7,128.5L193.7,128.5z M195.5,126.1c0-0.5-0.3-1.1-0.9-1.1s-0.9,0.5-0.9,1.1s0.3,1.1,0.9,1.1
			S195.5,126.6,195.5,126.1L195.5,126.1L195.5,126.1z"/>
	</g>
	<g>
		<path class="st14" d="M187.9,140.4c0-1.3,0.7-2.4,2.1-2.4c1.1,0,2,0.7,2,1.8c0,1.8-1.9,1.9-2.8,3.1h2.8v1h-4.3
			c0-1.4,0.8-1.9,1.9-2.6c0.5-0.4,1.2-0.7,1.2-1.4c0-0.5-0.3-0.9-0.8-0.9c0,0-0.1,0-0.1,0c-0.7,0-0.9,0.7-0.9,1.4L187.9,140.4
			L187.9,140.4z"/>
		<path class="st14" d="M195.5,144h-1.2v-3.8h-1.5v-0.9c0.8,0,1.6-0.3,1.7-1.2h0.9L195.5,144L195.5,144z"/>
	</g>
	<g>
		<path class="st14" d="M187.9,153.9c0-1.3,0.7-2.4,2.1-2.4c1.1,0,2,0.7,2,1.8c0,1.8-1.9,1.9-2.8,3.1h2.8v1h-4.3
			c0-1.4,0.8-1.9,1.9-2.6c0.5-0.4,1.2-0.7,1.2-1.4c0-0.5-0.3-0.9-0.8-0.9c0,0-0.1,0-0.1,0c-0.7,0-0.9,0.7-0.9,1.4L187.9,153.9
			L187.9,153.9z"/>
		<path class="st14" d="M194.2,154c0.5,0,1.3-0.1,1.3-0.7c0-0.4-0.3-0.8-0.8-0.8c0,0,0,0-0.1,0c-0.6,0-0.9,0.4-0.9,1.1h-1.1
			c0-1.2,0.8-2,2-2c0.9,0,2,0.6,2,1.6c0,0.5-0.3,1-0.8,1.2v0c0.6,0.1,1.1,0.7,1,1.3c0,1.2-1,1.9-2.2,1.9c-1.3,0-2.2-0.8-2.2-2.1h1.1
			c0,0.6,0.3,1.2,1,1.2c0.5,0,0.9-0.4,1-0.9c0,0,0,0,0-0.1c0-0.9-0.8-0.9-1.4-0.9L194.2,154L194.2,154z"/>
	</g>
	<path class="st14" d="M175.7,20.3h-2.2v-1l2.3-3.1h1v3.2h0.7v0.9h-0.7v1.2h-1V20.3z M175.7,17.6L175.7,17.6l-1.4,1.8h1.4
		L175.7,17.6z"/>
	<path class="st10" d="M201.6,149.3h5.6c0.8,0,1.4,0.6,1.4,1.4v7c0,0.8-0.6,1.4-1.4,1.4h-5.6c-0.8,0-1.4-0.6-1.4-1.4v-7
		C200.2,149.9,200.8,149.3,201.6,149.3z"/>
	<g>
		<path class="st14" d="M174.2,75.4h-1.1V72h-1.3v-0.8c0.7,0,1.4-0.2,1.5-1h0.8V75.4z"/>
		<path class="st14" d="M175.7,72.2c0-1.2,0.6-2.1,1.9-2.1c1,0,1.8,0.6,1.8,1.6c0,1.6-1.7,1.7-2.4,2.8h2.5v0.9h-3.9
			c0-1.2,0.8-1.7,1.7-2.3c0.5-0.3,1.1-0.6,1.1-1.3c0-0.4-0.3-0.8-0.7-0.8c0,0-0.1,0-0.1,0c-0.6,0-0.8,0.7-0.8,1.2L175.7,72.2
			L175.7,72.2z"/>
	</g>
	<g>
		<path class="st14" d="M174.2,102.7h-1.1v-3.4h-1.3v-0.8c0.7,0,1.4-0.2,1.5-1h0.8V102.7z"/>
		<path class="st14" d="M178.3,98.8c0-0.4-0.3-0.6-0.7-0.6c-0.8,0-1,1-1,1.6l0,0c0.3-0.4,0.7-0.6,1.2-0.6c0.5,0,0.9,0.2,1.2,0.5
			c0.3,0.3,0.4,0.7,0.4,1.2c0,1.1-0.7,1.9-1.8,1.9c-1.6,0-2-1.4-2-2.7c0-1.3,0.6-2.7,2.1-2.7c0.9,0,1.6,0.5,1.7,1.5L178.3,98.8
			L178.3,98.8z M176.7,101c0,0.5,0.3,1,0.8,1s0.8-0.5,0.8-1s-0.3-1-0.8-1S176.7,100.5,176.7,101L176.7,101z"/>
	</g>
	<g>
		<path class="st14" d="M174.2,116.3h-1.1v-3.4h-1.3v-0.8c0.7,0,1.4-0.2,1.5-1h0.8V116.3z"/>
		<path class="st14" d="M177.5,110.9c1.3,0,1.8,0.9,1.8,1.4c0,0.5-0.3,0.9-0.8,1.1v0c0.6,0.1,1,0.7,1,1.3c0,1.1-1,1.6-2,1.6
			s-2-0.5-2-1.6c0-0.6,0.4-1.2,1-1.3v0c-0.5-0.1-0.8-0.6-0.8-1.1C175.8,111.4,176.7,110.9,177.5,110.9L177.5,110.9z M177.5,115.6
			c0.5,0,0.9-0.3,0.9-0.8c0,0,0,0,0-0.1c0-0.5-0.4-0.8-0.9-0.8c0,0,0,0,0,0c-0.5,0-0.9,0.3-0.9,0.8
			C176.6,115.2,177,115.6,177.5,115.6C177.5,115.6,177.5,115.6,177.5,115.6L177.5,115.6L177.5,115.6z M177.5,113.2
			c0.4,0,0.8-0.2,0.8-0.7c0-0.3-0.1-0.7-0.8-0.7c-0.4,0-0.8,0.3-0.8,0.7c0,0,0,0,0,0.1C176.7,112.9,177.1,113.2,177.5,113.2
			L177.5,113.2L177.5,113.2z"/>
	</g>
	<g>
		<path class="st14" d="M171.5,140.8c0-1.2,0.6-2.1,1.9-2.1c1,0,1.8,0.6,1.8,1.6c0,1.6-1.7,1.7-2.4,2.8h2.5v0.9h-3.8
			c0-1.2,0.7-1.7,1.7-2.3c0.5-0.3,1.1-0.6,1.1-1.3c0-0.4-0.3-0.8-0.7-0.8c0,0-0.1,0-0.1,0c-0.6,0-0.8,0.7-0.8,1.2L171.5,140.8z"/>
		<path class="st14" d="M175.7,140.8c0-1.2,0.6-2.1,1.9-2.1c1,0,1.8,0.6,1.8,1.6c0,1.6-1.7,1.7-2.4,2.8h2.5v0.9h-3.9
			c0-1.2,0.8-1.7,1.7-2.3c0.5-0.3,1.1-0.6,1.1-1.3c0-0.4-0.3-0.8-0.7-0.8c0,0-0.1,0-0.1,0c-0.6,0-0.8,0.7-0.8,1.2L175.7,140.8
			L175.7,140.8z"/>
	</g>
	<path class="st14" d="M176.3,31.5c0-0.4-0.3-0.6-0.7-0.7c-0.8,0-1,1-1,1.6l0,0c0.3-0.4,0.7-0.6,1.2-0.6c0.5,0,0.9,0.2,1.2,0.5
		c0.3,0.3,0.4,0.7,0.4,1.2c0,1.1-0.7,1.9-1.8,1.9c-1.6,0-2-1.4-2-2.7c0-1.3,0.6-2.7,2.1-2.7c0.9,0,1.6,0.5,1.7,1.5
		C177.3,31.5,176.3,31.5,176.3,31.5z M174.6,33.6c0,0.5,0.3,1,0.8,1s0.8-0.5,0.8-1s-0.3-1-0.8-1S174.6,33.1,174.6,33.6
		C174.6,33.6,174.6,33.6,174.6,33.6z"/>
	<polygon class="st10" points="160.7,0 149.3,0 143.6,4.9 149.3,9.8 160.7,9.8 166.4,4.9 	"/>
	<g>
		<path class="st14" d="M152.4,6.7c-0.3,0.5-0.9,0.7-1.5,0.7c-1.6,0-2.6-1.2-2.6-2.8c0-1.6,1-2.8,2.6-2.8c1.1,0,2.1,0.7,2.3,1.9
			h-1.1c-0.1-0.5-0.6-0.9-1.1-0.9c-1.1,0-1.5,0.9-1.5,1.8c0,0.9,0.4,1.8,1.5,1.8c0.8,0,1.2-0.4,1.3-1.2h-1.2V4.4h2.2v2.9h-0.7
			L152.4,6.7L152.4,6.7z"/>
		<path class="st14" d="M154.3,2h1.2l2.2,3.6h0V2h1.1v5.3h-1.2l-2.2-3.6h0v3.6h-1.1C154.3,7.3,154.3,2,154.3,2z"/>
		<path class="st14" d="M159.8,2h2.3c1.4,0,2.4,0.9,2.4,2.6c0,1.6-0.8,2.7-2.4,2.7h-2.3V2z M161,6.3h1c0.7,0,1.3-0.4,1.3-1.6
			c0-1.1-0.4-1.8-1.5-1.8H161L161,6.3z"/>
	</g>
	<polygon class="st10" points="207.4,149.3 218.8,149.3 224.5,154.2 218.8,159.1 207.4,159.1 201.7,154.2 	"/>
	<g>
		<path class="st14" d="M207.5,156c-0.3,0.5-0.9,0.7-1.5,0.7c-1.6,0-2.6-1.2-2.6-2.8c0-1.6,1-2.8,2.6-2.8c1.1,0,2.1,0.7,2.3,1.9
			h-1.1c-0.1-0.5-0.6-0.9-1.1-0.9c-1.1,0-1.5,0.9-1.5,1.8c0,0.9,0.4,1.8,1.5,1.8c0.8,0,1.2-0.4,1.3-1.2h-1.2v-0.9h2.2v2.9h-0.7
			L207.5,156L207.5,156z"/>
		<path class="st14" d="M209.3,151.3h1.2l2.2,3.6h0v-3.6h1.1v5.3h-1.2l-2.2-3.6h0v3.6h-1.1L209.3,151.3L209.3,151.3z"/>
		<path class="st14" d="M214.9,151.3h2.3c1.4,0,2.4,0.9,2.4,2.6c0,1.6-0.8,2.7-2.4,2.7h-2.3V151.3z M216,155.6h1
			c0.7,0,1.3-0.4,1.3-1.6c0-1.1-0.4-1.8-1.5-1.8H216L216,155.6L216,155.6z"/>
	</g>
	<path class="st14" d="M175.4,43.5c1.3,0,1.8,0.9,1.8,1.4c0,0.5-0.3,1-0.8,1.1v0c0.6,0.1,1,0.7,1,1.3c0,1.1-1,1.6-2,1.6
		s-2-0.5-2-1.6c0-0.6,0.4-1.2,1-1.3v0c-0.5-0.1-0.8-0.6-0.8-1.1C173.7,44,174.6,43.5,175.4,43.5L175.4,43.5z M175.4,48.1
		c0.5,0,0.9-0.3,0.9-0.8c0,0,0,0,0-0.1c0-0.5-0.4-0.8-0.9-0.8l0,0c-0.5,0-0.9,0.3-0.9,0.8C174.5,47.7,174.9,48.1,175.4,48.1
		C175.4,48.1,175.4,48.1,175.4,48.1L175.4,48.1L175.4,48.1z M175.4,45.7c0.4,0,0.8-0.2,0.8-0.7c0-0.3-0.1-0.7-0.8-0.7
		c-0.4,0-0.8,0.3-0.8,0.7c0,0,0,0,0,0.1C174.6,45.5,175,45.7,175.4,45.7L175.4,45.7z"/>
	<path class="st11" d="M201.6,0h5.6c0.8,0,1.4,0.6,1.4,1.4v7c0,0.8-0.6,1.4-1.4,1.4h-5.6c-0.8,0-1.4-0.6-1.4-1.4v-7
		C200.2,0.6,200.8,0,201.6,0z"/>
	<g>
		<path class="st14" d="M174.2,62h-1.1v-3.4h-1.3v-0.8c0.7,0,1.4-0.2,1.5-1h0.8V62z"/>
		<path class="st14" d="M177.5,56.7c1,0,1.9,0.7,1.9,2.7c0,2.1-0.9,2.7-1.9,2.7s-1.9-0.7-1.9-2.7C175.6,57.3,176.5,56.7,177.5,56.7z
			 M177.5,61.2c0.9,0,0.9-1.3,0.9-1.9c0-0.5,0-1.8-0.9-1.8s-0.9,1.3-0.9,1.8C176.7,60,176.7,61.2,177.5,61.2z"/>
	</g>
	<g>
		<path class="st14" d="M174.2,89.2h-1.1v-3.4h-1.3V85c0.7,0,1.4-0.2,1.5-1h0.8V89.2z"/>
		<path class="st14" d="M177.8,88h-2.2v-1l2.3-3.1h1v3.2h0.7V88h-0.7v1.2h-1V88z M177.8,85.3L177.8,85.3l-1.4,1.8h1.4L177.8,85.3z"
			/>
	</g>
	<g>
		<path class="st14" d="M171.5,126.8c0-1.2,0.6-2.1,1.9-2.1c1,0,1.8,0.6,1.8,1.6c0,1.6-1.7,1.7-2.4,2.8h2.5v0.9h-3.8
			c0-1.2,0.7-1.7,1.7-2.3c0.5-0.3,1.1-0.6,1.1-1.3c0-0.4-0.3-0.8-0.7-0.8c0,0-0.1,0-0.1,0c-0.6,0-0.8,0.7-0.8,1.2
			C172.6,126.8,171.5,126.8,171.5,126.8z"/>
		<path class="st14" d="M177.5,124.6c1,0,1.9,0.7,1.9,2.7c0,2.1-0.9,2.8-1.9,2.8s-1.9-0.7-1.9-2.8
			C175.6,125.3,176.5,124.6,177.5,124.6z M177.5,129.2c0.9,0,0.9-1.3,0.9-1.9c0-0.5,0-1.8-0.9-1.8s-0.9,1.3-0.9,1.8
			C176.7,127.9,176.7,129.2,177.5,129.2z"/>
	</g>
	<g>
		<path class="st14" d="M171.5,154.2c0-1.2,0.6-2.1,1.9-2.1c1,0,1.8,0.6,1.8,1.6c0,1.6-1.7,1.7-2.4,2.8h2.5v0.9h-3.8
			c0-1.2,0.7-1.7,1.7-2.3c0.5-0.3,1.1-0.6,1.1-1.3c0-0.4-0.3-0.8-0.7-0.8c0,0-0.1,0-0.1,0c-0.6,0-0.8,0.7-0.8,1.2L171.5,154.2
			L171.5,154.2z"/>
		<path class="st14" d="M177.8,156.2h-2.2v-1l2.3-3.1h1v3.2h0.7v0.9h-0.7v1.2h-1V156.2L177.8,156.2z M177.8,153.5L177.8,153.5
			l-1.4,1.8h1.4L177.8,153.5z"/>
	</g>
	<path class="st14" d="M194.2,44c-1.2,1.1-1.9,3.3-1.9,4.9h-1.3c0.2-1.8,0.8-3.4,2-4.8h-2.8V43h4V44z"/>
	<polygon class="st11" points="214.9,0 205,0 200.1,4.9 205,9.8 214.9,9.8 219.8,4.9 	"/>
	<g>
		<path class="st14" d="M203.3,2h1.2l2.2,3.6h0V2h1.1v5.3h-1.2l-2.2-3.6h0v3.6h-1.1V2z"/>
		<path class="st14" d="M212.4,3.8c-0.1-0.6-0.6-0.9-1.2-0.9c-1.1,0-1.5,0.9-1.5,1.8c0,0.9,0.4,1.8,1.5,1.8c0.7,0,1.1-0.5,1.2-1.2
			h1.2c-0.1,1.3-1,2.2-2.4,2.2c-1.6,0-2.6-1.2-2.6-2.8c0-1.6,1-2.8,2.6-2.8c1.2,0,2.2,0.7,2.3,1.9L212.4,3.8z"/>
	</g>
	<path class="st11" d="M201.6,13.4h5.6c0.8,0,1.4,0.6,1.4,1.4v7c0,0.8-0.6,1.4-1.4,1.4h-5.6c-0.8,0-1.4-0.6-1.4-1.4v-7
		C200.2,14,200.8,13.4,201.6,13.4z"/>
	<polygon class="st11" points="214.9,13.4 205,13.4 200.1,18.3 205,23.2 214.9,23.2 219.8,18.3 	"/>
	<g>
		<path class="st14" d="M203.3,15.4h1.2l2.2,3.6h0v-3.6h1.1v5.3h-1.2l-2.2-3.6h0v3.6h-1.1V15.4z"/>
		<path class="st14" d="M212.4,17.2c-0.1-0.6-0.6-0.9-1.2-0.9c-1.1,0-1.5,0.9-1.5,1.8c0,0.9,0.4,1.8,1.5,1.8c0.7,0,1.1-0.5,1.2-1.2
			h1.2c-0.1,1.3-1,2.2-2.4,2.2c-1.6,0-2.6-1.2-2.6-2.8c0-1.6,1-2.8,2.6-2.8c1.2,0,2.2,0.7,2.3,1.9C213.6,17.2,212.4,17.2,212.4,17.2
			z"/>
	</g>
	<path class="st11" d="M201.6,27.2h5.6c0.8,0,1.4,0.6,1.4,1.4v7c0,0.8-0.6,1.4-1.4,1.4h-5.6c-0.8,0-1.4-0.6-1.4-1.4v-7
		C200.2,27.9,200.8,27.2,201.6,27.2z"/>
	<polygon class="st11" points="214.9,27.2 205,27.2 200.1,32.1 205,37 214.9,37 219.8,32.1 	"/>
	<g>
		<path class="st14" d="M203.3,29.2h1.2l2.2,3.6h0v-3.6h1.1v5.3h-1.2l-2.2-3.6h0v3.6h-1.1C203.3,34.5,203.3,29.2,203.3,29.2z"/>
		<path class="st14" d="M212.4,31c-0.1-0.6-0.6-0.9-1.2-0.9c-1.1,0-1.5,0.9-1.5,1.8c0,0.9,0.4,1.8,1.5,1.8c0.7,0,1.1-0.5,1.2-1.2
			h1.2c-0.1,1.3-1,2.2-2.4,2.2c-1.6,0-2.6-1.2-2.6-2.8c0-1.6,1-2.8,2.6-2.8c1.2,0,2.2,0.7,2.3,1.9L212.4,31L212.4,31z"/>
	</g>
	<path class="st11" d="M160.9,27.2h5.6c0.8,0,1.4,0.6,1.4,1.4v7c0,0.8-0.6,1.4-1.4,1.4h-5.6c-0.8,0-1.4-0.6-1.4-1.4v-7
		C159.5,27.9,160.1,27.2,160.9,27.2z"/>
	<polygon class="st11" points="153,27.2 162.9,27.2 167.8,32.1 162.9,37 153,37 148.1,32.1 	"/>
	<g>
		<path class="st14" d="M154.5,29.2h1.2l2.2,3.6h0v-3.6h1.1v5.3h-1.2l-2.2-3.6h0v3.6h-1.1L154.5,29.2L154.5,29.2z"/>
		<path class="st14" d="M163.7,31c-0.1-0.6-0.6-0.9-1.2-0.9c-1.1,0-1.5,0.9-1.5,1.8c0,0.9,0.4,1.8,1.5,1.8c0.7,0,1.1-0.5,1.2-1.2
			h1.1c-0.1,1.3-1,2.2-2.4,2.2c-1.6,0-2.6-1.2-2.6-2.8c0-1.6,1-2.8,2.6-2.8c1.2,0,2.2,0.7,2.3,1.9L163.7,31L163.7,31z"/>
	</g>
	<path class="st11" d="M160.9,54h5.6c0.8,0,1.4,0.6,1.4,1.4v7c0,0.8-0.6,1.4-1.4,1.4h-5.6c-0.8,0-1.4-0.6-1.4-1.4v-7
		C159.5,54.6,160.1,54,160.9,54z"/>
	<polygon class="st11" points="153,54 162.9,54 167.8,58.9 162.9,63.8 153,63.8 148.1,58.9 	"/>
	<g>
		<path class="st14" d="M154.5,56h1.2l2.2,3.6h0V56h1.1v5.3h-1.2l-2.2-3.6h0v3.6h-1.1L154.5,56L154.5,56z"/>
		<path class="st14" d="M163.7,57.8c-0.1-0.6-0.6-0.9-1.2-0.9c-1.1,0-1.5,0.9-1.5,1.8c0,0.9,0.4,1.8,1.5,1.8c0.7,0,1.1-0.5,1.2-1.2
			h1.1c-0.1,1.3-1,2.2-2.4,2.2c-1.6,0-2.6-1.2-2.6-2.8c0-1.6,1-2.8,2.6-2.8c1.2,0,2.2,0.7,2.3,1.9C164.8,57.8,163.7,57.8,163.7,57.8
			z"/>
	</g>
	<path class="st11" d="M160.9,67.8h5.6c0.8,0,1.4,0.6,1.4,1.4v7c0,0.8-0.6,1.4-1.4,1.4h-5.6c-0.8,0-1.4-0.6-1.4-1.4v-7
		C159.5,68.5,160.1,67.8,160.9,67.8z"/>
	<polygon class="st11" points="153,67.8 162.9,67.8 167.8,72.8 162.9,77.7 153,77.7 148.1,72.8 	"/>
	<g>
		<path class="st14" d="M154.5,69.8h1.2l2.2,3.6h0v-3.6h1.1v5.3h-1.2l-2.2-3.6h0v3.6h-1.1L154.5,69.8L154.5,69.8z"/>
		<path class="st14" d="M163.7,71.6c-0.1-0.6-0.6-0.9-1.2-0.9c-1.1,0-1.5,0.9-1.5,1.8c0,0.9,0.4,1.8,1.5,1.8c0.7,0,1.1-0.5,1.2-1.2
			h1.1c-0.1,1.3-1,2.2-2.4,2.2c-1.6,0-2.6-1.2-2.6-2.8c0-1.6,1-2.8,2.6-2.8c1.2,0,2.2,0.7,2.3,1.9L163.7,71.6L163.7,71.6z"/>
	</g>
	<path class="st11" d="M160.9,13.6h5.6c0.8,0,1.4,0.6,1.4,1.4v7c0,0.8-0.6,1.4-1.4,1.4h-5.6c-0.8,0-1.4-0.6-1.4-1.4v-7
		C159.5,14.2,160.1,13.6,160.9,13.6z"/>
	<polygon class="st11" points="153,13.6 162.9,13.6 167.8,18.5 162.9,23.4 153,23.4 148.1,18.5 	"/>
	<g>
		<path class="st14" d="M154.5,15.6h1.2l2.2,3.6h0v-3.6h1.1v5.4h-1.2l-2.2-3.6h0v3.6h-1.1L154.5,15.6L154.5,15.6z"/>
		<path class="st14" d="M163.7,17.4c-0.1-0.6-0.6-1-1.2-0.9c-1.1,0-1.5,0.9-1.5,1.8c0,0.9,0.4,1.8,1.5,1.8c0.7,0,1.1-0.5,1.2-1.2
			h1.1c-0.1,1.3-1,2.2-2.4,2.2c-1.6,0-2.6-1.2-2.6-2.8c0-1.6,1-2.8,2.6-2.8c1.2,0,2.2,0.7,2.3,1.9L163.7,17.4z"/>
	</g>
	<path class="st11" d="M160.9,121.8h5.6c0.8,0,1.4,0.6,1.4,1.4v7c0,0.8-0.6,1.4-1.4,1.4h-5.6c-0.8,0-1.4-0.6-1.4-1.4v-7
		C159.5,122.5,160.1,121.8,160.9,121.8z"/>
	<polygon class="st11" points="153.1,121.8 162.9,121.8 167.8,126.7 162.9,131.6 153.1,131.6 148.1,126.7 	"/>
	<g>
		<path class="st14" d="M154.6,123.8h1.2l2.2,3.6h0v-3.6h1.1v5.3h-1.2l-2.2-3.6h0v3.6h-1.1L154.6,123.8L154.6,123.8z"/>
		<path class="st14" d="M163.7,125.6c-0.1-0.6-0.6-0.9-1.2-0.9c-1.1,0-1.5,0.9-1.5,1.8c0,0.9,0.4,1.8,1.5,1.8c0.7,0,1.1-0.5,1.2-1.2
			h1.1c-0.1,1.3-1,2.2-2.4,2.2c-1.6,0-2.6-1.2-2.6-2.8c0-1.6,1-2.8,2.6-2.8c1.2,0,2.2,0.7,2.3,1.9
			C164.8,125.6,163.7,125.6,163.7,125.6z"/>
	</g>
	<path class="st11" d="M160.9,94.9h5.6c0.8,0,1.4,0.6,1.4,1.4v7c0,0.8-0.6,1.4-1.4,1.4h-5.6c-0.8,0-1.4-0.6-1.4-1.4v-7
		C159.5,95.5,160.1,94.9,160.9,94.9z"/>
	<polygon class="st11" points="153.1,94.9 162.9,94.9 167.8,99.8 162.9,104.7 153.1,104.7 148.1,99.8 	"/>
	<g>
		<path class="st14" d="M154.6,96.9h1.2l2.2,3.6h0v-3.6h1.1v5.3h-1.2l-2.2-3.6h0v3.6h-1.1L154.6,96.9L154.6,96.9z"/>
		<path class="st14" d="M163.7,98.7c-0.1-0.6-0.6-0.9-1.2-0.9c-1.1,0-1.5,0.9-1.5,1.8c0,0.9,0.4,1.8,1.5,1.8c0.7,0,1.1-0.5,1.2-1.2
			h1.1c-0.1,1.3-1,2.2-2.4,2.2c-1.6,0-2.6-1.2-2.6-2.8c0-1.6,1-2.8,2.6-2.8c1.2,0,2.2,0.7,2.3,1.9L163.7,98.7z"/>
	</g>
	<path class="st11" d="M160.9,135.8h5.6c0.8,0,1.4,0.6,1.4,1.4v7c0,0.8-0.6,1.4-1.4,1.4h-5.6c-0.8,0-1.4-0.6-1.4-1.4v-7
		C159.5,136.4,160.1,135.8,160.9,135.8z"/>
	<polygon class="st11" points="153.1,135.8 162.9,135.8 167.8,140.7 162.9,145.6 153.1,145.6 148.1,140.7 	"/>
	<g>
		<path class="st14" d="M154.6,137.7h1.2l2.2,3.6h0v-3.6h1.1v5.3h-1.2l-2.2-3.6h0v3.6h-1.1L154.6,137.7L154.6,137.7z"/>
		<path class="st14" d="M163.7,139.5c-0.1-0.6-0.6-0.9-1.2-0.9c-1.1,0-1.5,0.9-1.5,1.8c0,0.9,0.4,1.8,1.5,1.8c0.7,0,1.1-0.5,1.2-1.2
			h1.1c-0.1,1.3-1,2.2-2.4,2.2c-1.6,0-2.6-1.2-2.6-2.8c0-1.6,1-2.8,2.6-2.8c1.2,0,2.2,0.7,2.3,1.9L163.7,139.5z"/>
	</g>
	<path class="st11" d="M160.9,149.3h5.6c0.8,0,1.4,0.6,1.4,1.4v7c0,0.8-0.6,1.4-1.4,1.4h-5.6c-0.8,0-1.4-0.6-1.4-1.4v-7
		C159.5,149.9,160.1,149.3,160.9,149.3z"/>
	<polygon class="st11" points="153.1,149.3 162.9,149.3 167.8,154.2 162.9,159.1 153.1,159.1 148.1,154.2 	"/>
	<g>
		<path class="st14" d="M154.6,151.3h1.2l2.2,3.6h0v-3.6h1.1v5.3h-1.2l-2.2-3.6h0v3.6h-1.1L154.6,151.3L154.6,151.3z"/>
		<path class="st14" d="M163.7,153.1c-0.1-0.6-0.6-0.9-1.2-0.9c-1.1,0-1.5,0.9-1.5,1.8c0,0.9,0.4,1.8,1.5,1.8c0.7,0,1.1-0.5,1.2-1.2
			h1.1c-0.1,1.3-1,2.2-2.4,2.2c-1.6,0-2.6-1.2-2.6-2.8c0-1.6,1-2.8,2.6-2.8c1.2,0,2.2,0.7,2.3,1.9L163.7,153.1z"/>
	</g>
	<path class="st11" d="M201.6,81h5.6c0.8,0,1.4,0.6,1.4,1.4v7c0,0.8-0.6,1.4-1.4,1.4h-5.6c-0.8,0-1.4-0.6-1.4-1.4v-7
		C200.2,81.6,200.8,81,201.6,81z"/>
	<polygon class="st11" points="214.9,81 205,81 200.1,85.9 205,90.8 214.9,90.8 219.8,85.9 	"/>
	<g>
		<path class="st14" d="M203.3,83h1.2l2.2,3.6h0V83h1.1v5.3h-1.2l-2.2-3.6h0v3.6h-1.1V83z"/>
		<path class="st14" d="M212.4,84.8c-0.1-0.6-0.6-0.9-1.2-0.9c-1.1,0-1.5,0.9-1.5,1.8c0,0.9,0.4,1.8,1.5,1.8c0.7,0,1.1-0.5,1.2-1.2
			h1.2c-0.1,1.3-1,2.2-2.4,2.2c-1.6,0-2.6-1.2-2.6-2.8c0-1.6,1-2.8,2.6-2.8c1.2,0,2.2,0.7,2.3,1.9L212.4,84.8L212.4,84.8z"/>
	</g>
	<polygon class="st11" points="214.9,94.8 205,94.8 200.1,99.7 205,104.6 214.9,104.6 219.8,99.7 	"/>
	<path class="st11" d="M201.6,94.8h5.6c0.8,0,1.4,0.6,1.4,1.4v7c0,0.8-0.6,1.4-1.4,1.4h-5.6c-0.8,0-1.4-0.6-1.4-1.4v-7
		C200.2,95.5,200.8,94.8,201.6,94.8z"/>
	<g>
		<path class="st14" d="M203.3,96.7h1.2l2.2,3.6h0v-3.6h1.1v5.4h-1.2l-2.2-3.6h0v3.6h-1.1V96.7z"/>
		<path class="st14" d="M212.4,98.5c-0.1-0.6-0.6-0.9-1.2-0.9c-1.1,0-1.5,0.9-1.5,1.8c0,0.9,0.4,1.8,1.5,1.8c0.7,0,1.1-0.5,1.2-1.2
			h1.2c-0.1,1.3-1,2.2-2.4,2.2c-1.6,0-2.6-1.2-2.6-2.8c0-1.6,1-2.8,2.6-2.8c1.2,0,2.2,0.7,2.3,1.9L212.4,98.5z"/>
	</g>
	<polygon class="st11" points="214.9,54.5 205,54.5 200.1,59.4 205,64.3 214.9,64.3 219.8,59.4 	"/>
	<path class="st11" d="M201.6,54.5h5.6c0.8,0,1.4,0.6,1.4,1.4v7c0,0.8-0.6,1.4-1.4,1.4h-5.6c-0.8,0-1.4-0.6-1.4-1.4v-7
		C200.2,55.1,200.8,54.5,201.6,54.5z"/>
	<g>
		<path class="st14" d="M203.3,56.4h1.2l2.2,3.6h0v-3.6h1.1v5.3h-1.2l-2.2-3.6h0v3.6h-1.1V56.4z"/>
		<path class="st14" d="M212.4,58.2c-0.1-0.6-0.6-0.9-1.2-0.9c-1.1,0-1.5,0.9-1.5,1.8c0,0.9,0.4,1.8,1.5,1.8c0.7,0,1.1-0.5,1.2-1.2
			h1.2c-0.1,1.3-1,2.2-2.4,2.2c-1.6,0-2.6-1.2-2.6-2.8c0-1.6,1-2.8,2.6-2.8c1.2,0,2.2,0.7,2.3,1.9C213.6,58.2,212.4,58.2,212.4,58.2
			z"/>
	</g>
	<path class="st11" d="M201.6,121.8h5.6c0.8,0,1.4,0.6,1.4,1.4v7c0,0.8-0.6,1.4-1.4,1.4h-5.6c-0.8,0-1.4-0.6-1.4-1.4v-7
		C200.2,122.4,200.8,121.8,201.6,121.8z"/>
	<polygon class="st11" points="214.9,121.9 205,121.9 200.1,126.8 205,131.7 214.9,131.7 219.8,126.8 	"/>
	<g>
		<path class="st14" d="M203.3,123.8h1.2l2.2,3.6h0v-3.6h1.1v5.3h-1.2l-2.2-3.6h0v3.6h-1.1C203.3,129.1,203.3,123.8,203.3,123.8z"/>
		<path class="st14" d="M212.4,125.6c-0.1-0.6-0.6-0.9-1.2-0.9c-1.1,0-1.5,0.9-1.5,1.8c0,0.9,0.4,1.8,1.5,1.8c0.7,0,1.1-0.5,1.2-1.2
			h1.2c-0.1,1.3-1,2.2-2.4,2.2c-1.6,0-2.6-1.2-2.6-2.8c0-1.6,1-2.8,2.6-2.8c1.2,0,2.2,0.7,2.3,1.9L212.4,125.6L212.4,125.6z"/>
	</g>
	<path class="st11" d="M201.6,136h5.6c0.8,0,1.4,0.6,1.4,1.4v7c0,0.8-0.6,1.4-1.4,1.4h-5.6c-0.8,0-1.4-0.6-1.4-1.4v-7
		C200.2,136.6,200.8,136,201.6,136z"/>
	<polygon class="st11" points="214.9,136 205,136 200.1,140.9 205,145.8 214.9,145.8 219.8,140.9 	"/>
	<g>
		<path class="st14" d="M203.3,138h1.2l2.2,3.6h0V138h1.1v5.3h-1.2l-2.2-3.6h0v3.6h-1.1V138z"/>
		<path class="st14" d="M212.4,139.8c-0.1-0.6-0.6-0.9-1.2-0.9c-1.1,0-1.5,0.9-1.5,1.8c0,0.9,0.4,1.8,1.5,1.8c0.7,0,1.1-0.5,1.2-1.2
			h1.2c-0.1,1.3-1,2.2-2.4,2.2c-1.6,0-2.6-1.2-2.6-2.8c0-1.6,1-2.8,2.6-2.8c1.2,0,2.2,0.7,2.3,1.9L212.4,139.8z"/>
	</g>
	<g>
		<path class="st14" d="M190.9,89.2h-1.2v-3.8h-1.5v-0.9c0.8,0,1.6-0.3,1.7-1.2h1L190.9,89.2L190.9,89.2z"/>
		<path class="st14" d="M194.2,85.7c0.5,0,1.3-0.1,1.3-0.7c0-0.4-0.3-0.8-0.8-0.8c0,0,0,0-0.1,0c-0.6,0-0.9,0.4-0.9,1.1h-1.1
			c0-1.2,0.8-2,2-2c0.9,0,2,0.6,2,1.6c0,0.5-0.3,1-0.8,1.2v0c0.6,0.1,1.1,0.7,1,1.3c0,1.2-1,1.9-2.2,1.9c-1.3,0-2.2-0.8-2.2-2.1h1.1
			c0,0.6,0.3,1.2,1,1.2c0.5,0,0.9-0.4,1-0.9c0,0,0,0,0-0.1c0-0.9-0.8-0.9-1.4-0.9L194.2,85.7L194.2,85.7z"/>
	</g>
	<g>
		<path class="st14" d="M190.9,102.7h-1.2v-3.8h-1.5V98c0.8,0,1.6-0.3,1.7-1.2h1L190.9,102.7L190.9,102.7z"/>
		<path class="st14" d="M196.4,97.8H194l-0.2,1.3l0,0c0.3-0.3,0.7-0.5,1.2-0.5c1.2,0,1.8,0.9,1.8,2c0,1.2-1,2.1-2.1,2.1l0,0
			c-1.2,0-2.2-0.6-2.2-1.9h1.2c0,0.5,0.5,0.9,1,0.9c0.6,0,1-0.5,1-1.1s-0.4-1.1-1-1.1c-0.4,0-0.7,0.2-0.9,0.5h-1.1l0.6-3.3h3.3
			C196.4,96.8,196.4,97.8,196.4,97.8z"/>
	</g>
	<path class="st12" d="M160.9,108.2h5.6c0.8,0,1.4,0.6,1.4,1.4v7c0,0.8-0.6,1.4-1.4,1.4h-5.6c-0.8,0-1.4-0.6-1.4-1.4v-7
		C159.5,108.8,160.1,108.2,160.9,108.2z"/>
	<path class="st12" d="M136.7,108.2H160c3.2,0,5.8,0.6,5.8,1.4v7c0,0.8-2.6,1.4-5.8,1.4h-23.3c-3.2,0-5.8-0.6-5.8-1.4v-7
		C130.9,108.8,133.5,108.2,136.7,108.2z"/>
	<polygon class="st12" points="127.9,108.2 137.8,108.2 142.7,113.1 137.8,118 127.9,118 123,113.1 	"/>
	<g>
		<path class="st14" d="M130.1,110.2h1.2v5.4h-1.2V110.2z"/>
		<path class="st14" d="M132.1,112.4c0-1.2,0.7-2.2,1.9-2.2c1,0,1.8,0.6,1.8,1.7c0,1.6-1.7,1.7-2.5,2.8h2.5v0.9H132
			c0-1.2,0.8-1.8,1.7-2.4c0.5-0.3,1.1-0.6,1.1-1.3c0-0.5-0.3-0.8-0.8-0.8c-0.6,0-0.8,0.7-0.8,1.2H132.1z"/>
		<path class="st14" d="M140.2,112.1c-0.1-0.5-0.6-1-1.2-1c-1.1,0-1.5,0.9-1.5,1.9c0,0.9,0.4,1.8,1.5,1.8c0.7,0,1.1-0.5,1.2-1.2h1.2
			c-0.1,1.4-1.1,2.2-2.4,2.2c-1.7,0-2.7-1.3-2.7-2.8c0-1.6,1-2.9,2.7-2.9c1.2,0,2.2,0.7,2.3,2C141.3,112.1,140.2,112.1,140.2,112.1z
			"/>
		<path class="st14" d="M144.7,115.7h-1.1v-3.5h-1.3v-0.8c0.8,0,1.4-0.2,1.6-1.1h0.9V115.7z"/>
		<path class="st14" d="M145.9,116.2h3.8v0.4h-3.8V116.2z"/>
		<path class="st14" d="M151.1,113.9c0,0.7,0.6,1,1.2,1c0.4,0,1.1-0.1,1.1-0.7c0-0.6-0.8-0.7-1.6-0.9c-0.8-0.2-1.6-0.5-1.6-1.5
			c0-1.1,1.1-1.6,2-1.6c1.1,0,2.2,0.5,2.2,1.8h-1.2c0-0.6-0.5-0.8-1.1-0.8c-0.4,0-0.8,0.2-0.8,0.6c0,0.4,0.3,0.5,1.6,0.8
			c0.4,0.1,1.6,0.4,1.6,1.6c0,1-0.8,1.7-2.3,1.7c-1.2,0-2.3-0.6-2.3-1.9H151.1z"/>
		<path class="st14" d="M158.8,112.1c-0.1-0.5-0.6-1-1.2-1c-1.1,0-1.5,0.9-1.5,1.9c0,0.9,0.4,1.8,1.5,1.8c0.7,0,1.1-0.5,1.2-1.2h1.2
			c-0.1,1.4-1.1,2.2-2.4,2.2c-1.7,0-2.7-1.3-2.7-2.8c0-1.6,1-2.9,2.7-2.9c1.2,0,2.2,0.7,2.3,2C160,112.1,158.8,112.1,158.8,112.1z"
			/>
		<path class="st14" d="M160.8,110.2h1.2v4.4h2.6v1h-3.8V110.2z"/>
	</g>
	<path class="st12" d="M201.6,108.2h5.6c0.8,0,1.4,0.6,1.4,1.4v7c0,0.8-0.6,1.4-1.4,1.4h-5.6c-0.8,0-1.4-0.6-1.4-1.4v-7
		C200.2,108.8,200.8,108.2,201.6,108.2z"/>
	<path class="st12" d="M231.3,118H208c-3.2,0-5.8-0.6-5.8-1.4v-7c0-0.8,2.6-1.4,5.8-1.4h23.3c3.2,0,5.8,0.6,5.8,1.4v7
		C237.1,117.4,234.5,118,231.3,118z"/>
	<polygon class="st12" points="240.1,118 230.2,118 225.3,113.1 230.2,108.2 240.1,108.2 245,113.1 	"/>
	<g>
		<path class="st14" d="M203.3,110.2h1.2v5.4h-1.2V110.2z"/>
		<path class="st14" d="M205.3,112.4c0-1.2,0.7-2.2,1.9-2.2c1,0,1.8,0.6,1.8,1.7c0,1.6-1.7,1.7-2.5,2.8h2.5v0.9h-3.9
			c0-1.2,0.8-1.8,1.7-2.4c0.5-0.3,1.1-0.6,1.1-1.3c0-0.5-0.3-0.8-0.8-0.8c-0.6,0-0.8,0.7-0.8,1.2H205.3z"/>
		<path class="st14" d="M213.4,112.1c-0.1-0.5-0.6-1-1.2-1c-1.1,0-1.5,0.9-1.5,1.9c0,0.9,0.4,1.8,1.5,1.8c0.7,0,1.1-0.5,1.2-1.2h1.2
			c-0.1,1.4-1.1,2.2-2.4,2.2c-1.7,0-2.7-1.3-2.7-2.8c0-1.6,1-2.9,2.7-2.9c1.2,0,2.2,0.7,2.3,2C214.5,112.1,213.4,112.1,213.4,112.1z
			"/>
		<path class="st14" d="M217.9,115.7h-1.1v-3.5h-1.3v-0.8c0.8,0,1.4-0.2,1.6-1.1h0.9V115.7z"/>
		<path class="st14" d="M219.1,116.2h3.8v0.4h-3.8V116.2z"/>
		<path class="st14" d="M224.2,113.9c0,0.7,0.6,1,1.2,1c0.4,0,1.1-0.1,1.1-0.7c0-0.6-0.8-0.7-1.6-0.9c-0.8-0.2-1.6-0.5-1.6-1.5
			c0-1.1,1.1-1.6,2-1.6c1.1,0,2.2,0.5,2.2,1.8h-1.2c0-0.6-0.5-0.8-1.1-0.8c-0.4,0-0.8,0.2-0.8,0.6c0,0.4,0.3,0.5,1.6,0.8
			c0.4,0.1,1.6,0.4,1.6,1.6c0,1-0.8,1.7-2.3,1.7c-1.2,0-2.3-0.6-2.3-1.9H224.2z"/>
		<path class="st14" d="M228.4,110.2h2.3c1.4,0,2.5,0.9,2.5,2.7c0,1.6-0.8,2.7-2.5,2.7h-2.3V110.2z M229.6,114.7h1.1
			c0.7,0,1.4-0.4,1.4-1.6c0-1.1-0.4-1.8-1.6-1.8h-0.9C229.6,111.2,229.6,114.7,229.6,114.7z"/>
		<path class="st14" d="M235.5,110.2h1.2l2,5.4h-1.2l-0.4-1.2h-2l-0.4,1.2h-1.2L235.5,110.2z M235.4,113.6h1.4l-0.7-2h0L235.4,113.6
			z"/>
	</g>
	<path class="st12" d="M160.9,40.9h5.6c0.8,0,1.4,0.6,1.4,1.4v7c0,0.8-0.6,1.4-1.4,1.4h-5.6c-0.8,0-1.4-0.6-1.4-1.4v-7
		C159.5,41.5,160.1,40.9,160.9,40.9z"/>
	<path class="st12" d="M136.7,40.9H160c3.2,0,5.8,0.6,5.8,1.4v7c0,0.8-2.6,1.4-5.8,1.4h-23.3c-3.2,0-5.8-0.6-5.8-1.4v-7
		C130.9,41.5,133.5,40.9,136.7,40.9z"/>
	<polygon class="st12" points="127.9,40.9 137.8,40.9 142.7,45.8 137.8,50.7 127.9,50.7 123,45.8 	"/>
	<g>
		<path class="st14" d="M130.1,42.9h1.2v5.4h-1.2V42.9z"/>
		<path class="st14" d="M132.1,45.1c0-1.2,0.7-2.2,1.9-2.2c1,0,1.8,0.6,1.8,1.7c0,1.6-1.7,1.7-2.5,2.8h2.5v0.9H132
			c0-1.2,0.8-1.8,1.7-2.4c0.5-0.3,1.1-0.6,1.1-1.3c0-0.5-0.3-0.8-0.8-0.8c-0.6,0-0.8,0.7-0.8,1.2H132.1z"/>
		<path class="st14" d="M140.2,44.7c-0.1-0.5-0.6-1-1.2-1c-1.1,0-1.5,0.9-1.5,1.9c0,0.9,0.4,1.8,1.5,1.8c0.7,0,1.1-0.5,1.2-1.2h1.2
			c-0.1,1.4-1.1,2.2-2.4,2.2c-1.7,0-2.7-1.3-2.7-2.8c0-1.6,1-2.9,2.7-2.9c1.2,0,2.2,0.7,2.3,2H140.2z"/>
		<path class="st14" d="M144.7,48.3h-1.1v-3.5h-1.3v-0.8c0.8,0,1.4-0.2,1.6-1.1h0.9V48.3L144.7,48.3z"/>
		<path class="st14" d="M145.9,48.9h3.8v0.4h-3.8V48.9z"/>
		<path class="st14" d="M151.1,46.5c0,0.7,0.6,1,1.2,1c0.4,0,1.1-0.1,1.1-0.7c0-0.6-0.8-0.7-1.6-0.9c-0.8-0.2-1.6-0.5-1.6-1.5
			c0-1.1,1.1-1.6,2-1.6c1.1,0,2.2,0.5,2.2,1.8h-1.2c0-0.6-0.5-0.8-1.1-0.8c-0.4,0-0.8,0.2-0.8,0.6c0,0.4,0.3,0.5,1.6,0.8
			c0.4,0.1,1.6,0.4,1.6,1.6c0,1-0.8,1.7-2.3,1.7c-1.2,0-2.3-0.6-2.3-1.9L151.1,46.5L151.1,46.5z"/>
		<path class="st14" d="M155.2,42.9h2.3c1.4,0,2.5,0.9,2.5,2.7c0,1.6-0.8,2.7-2.5,2.7h-2.3V42.9z M156.4,47.3h1.1
			c0.7,0,1.4-0.4,1.4-1.6c0-1.1-0.4-1.8-1.6-1.8h-0.9C156.4,43.9,156.4,47.3,156.4,47.3z"/>
		<path class="st14" d="M162.3,42.9h1.2l2,5.4h-1.2l-0.4-1.2h-2l-0.4,1.2h-1.2L162.3,42.9z M162.2,46.2h1.4l-0.7-2h0L162.2,46.2z"/>
	</g>
	<path class="st12" d="M201.6,40.9h5.6c0.8,0,1.4,0.6,1.4,1.4v7c0,0.8-0.6,1.4-1.4,1.4h-5.6c-0.8,0-1.4-0.6-1.4-1.4v-7
		C200.2,41.5,200.8,40.9,201.6,40.9z"/>
	<path class="st12" d="M231.3,50.7H208c-3.2,0-5.8-0.6-5.8-1.4v-7c0-0.8,2.6-1.4,5.8-1.4h23.3c3.2,0,5.8,0.6,5.8,1.4v7
		C237.1,50.1,234.5,50.7,231.3,50.7z"/>
	<polygon class="st12" points="240.1,50.7 230.2,50.7 225.3,45.8 230.2,40.9 240.1,40.9 245,45.8 	"/>
	<g>
		<path class="st14" d="M203.3,42.9h1.2v5.4h-1.2V42.9z"/>
		<path class="st14" d="M205.3,45.1c0-1.2,0.7-2.2,1.9-2.2c1,0,1.8,0.6,1.8,1.7c0,1.6-1.7,1.7-2.5,2.8h2.5v0.9h-3.9
			c0-1.2,0.8-1.8,1.7-2.4c0.5-0.3,1.1-0.6,1.1-1.3c0-0.5-0.3-0.8-0.8-0.8c-0.6,0-0.8,0.7-0.8,1.2H205.3z"/>
		<path class="st14" d="M213.4,44.7c-0.1-0.5-0.6-1-1.2-1c-1.1,0-1.5,0.9-1.5,1.9c0,0.9,0.4,1.8,1.5,1.8c0.7,0,1.1-0.5,1.2-1.2h1.2
			c-0.1,1.4-1.1,2.2-2.4,2.2c-1.7,0-2.7-1.3-2.7-2.8c0-1.6,1-2.9,2.7-2.9c1.2,0,2.2,0.7,2.3,2H213.4z"/>
		<path class="st14" d="M217.9,48.3h-1.1v-3.5h-1.3v-0.8c0.8,0,1.4-0.2,1.6-1.1h0.9V48.3L217.9,48.3z"/>
		<path class="st14" d="M219.1,48.9h3.8v0.4h-3.8V48.9z"/>
		<path class="st14" d="M224.2,46.5c0,0.7,0.6,1,1.2,1c0.4,0,1.1-0.1,1.1-0.7c0-0.6-0.8-0.7-1.6-0.9c-0.8-0.2-1.6-0.5-1.6-1.5
			c0-1.1,1.1-1.6,2-1.6c1.1,0,2.2,0.5,2.2,1.8h-1.2c0-0.6-0.5-0.8-1.1-0.8c-0.4,0-0.8,0.2-0.8,0.6c0,0.4,0.3,0.5,1.6,0.8
			c0.4,0.1,1.6,0.4,1.6,1.6c0,1-0.8,1.7-2.3,1.7c-1.2,0-2.3-0.6-2.3-1.9L224.2,46.5L224.2,46.5z"/>
		<path class="st14" d="M232,44.7c-0.1-0.5-0.6-1-1.2-1c-1.1,0-1.5,0.9-1.5,1.9c0,0.9,0.4,1.8,1.5,1.8c0.7,0,1.1-0.5,1.2-1.2h1.2
			c-0.1,1.4-1.1,2.2-2.4,2.2c-1.7,0-2.7-1.3-2.7-2.8c0-1.6,1-2.9,2.7-2.9c1.2,0,2.2,0.7,2.3,2H232z"/>
		<path class="st14" d="M234,42.9h1.2v4.4h2.6v1H234V42.9z"/>
	</g>
	<path class="st13" d="M160.9,81.2h5.6c0.8,0,1.4,0.6,1.4,1.4v7c0,0.8-0.6,1.4-1.4,1.4h-5.6c-0.8,0-1.4-0.6-1.4-1.4v-7
		C159.5,81.8,160.1,81.2,160.9,81.2z"/>
	<rect x="154.5" y="81.2" class="st13" width="11.3" height="9.8"/>
	<polygon class="st13" points="154.9,81.2 143.5,81.2 137.8,86.1 143.5,91 154.9,91 160.6,86.1 	"/>
	<g>
		<path class="st14" d="M145.8,85.7c0.5,0,1.1-0.1,1.1-0.7c0-0.5-0.4-0.7-0.8-0.7c-0.5,0-0.8,0.4-0.8,1h-1c0-1.1,0.7-1.8,1.8-1.8
			c0.9,0,1.8,0.5,1.8,1.5c0,0.5-0.3,0.9-0.7,1.1v0c0.6,0.1,0.9,0.6,0.9,1.2c0,1.1-0.9,1.8-2,1.8c-1.2,0-2-0.7-2-1.9h1
			c0,0.6,0.3,1.1,0.9,1.1c0.5,0,0.9-0.3,0.9-0.8c0-0.8-0.7-0.8-1.2-0.8C145.8,86.5,145.8,85.7,145.8,85.7z"/>
		<path class="st14" d="M150.9,88.9h-1.2l-1.3-3.9h1.1l0.8,2.7h0l0.8-2.7h1.1L150.9,88.9z"/>
		<path class="st14" d="M154,85.7c0.5,0,1.1-0.1,1.1-0.7c0-0.5-0.4-0.7-0.8-0.7c-0.5,0-0.8,0.4-0.8,1h-1c0-1.1,0.7-1.8,1.8-1.8
			c0.9,0,1.8,0.5,1.8,1.5c0,0.5-0.3,0.9-0.7,1.1v0c0.6,0.1,0.9,0.6,0.9,1.2c0,1.1-0.9,1.8-2,1.8c-1.2,0-2-0.7-2-1.9h1
			c0,0.6,0.3,1.1,0.9,1.1c0.5,0,0.9-0.3,0.9-0.8c0-0.8-0.7-0.8-1.2-0.8C154,86.5,154,85.7,154,85.7z"/>
		<path class="st14" d="M156.5,89.5h3.8v0.4h-3.8V89.5z"/>
		<path class="st14" d="M161.6,87.1c0,0.7,0.6,1,1.2,1c0.4,0,1.1-0.1,1.1-0.7c0-0.6-0.8-0.7-1.6-0.9c-0.8-0.2-1.6-0.5-1.6-1.5
			c0-1.1,1.1-1.6,2-1.6c1.1,0,2.2,0.5,2.2,1.8h-1.2c0-0.6-0.5-0.8-1.1-0.8c-0.4,0-0.8,0.2-0.8,0.6c0,0.4,0.3,0.5,1.6,0.8
			c0.4,0.1,1.6,0.4,1.6,1.6c0,1-0.8,1.7-2.3,1.7c-1.2,0-2.3-0.6-2.3-1.9H161.6z"/>
	</g>
	<path class="st13" d="M201.6,67.5h5.6c0.8,0,1.4,0.6,1.4,1.4v7c0,0.8-0.6,1.4-1.4,1.4h-5.6c-0.8,0-1.4-0.6-1.4-1.4v-7
		C200.2,68.1,200.8,67.5,201.6,67.5z"/>
	<rect x="202.6" y="67.5" class="st13" width="11.3" height="9.8"/>
	<polygon class="st13" points="213.9,77.3 225.3,77.3 231,72.4 225.3,67.5 213.9,67.5 208.2,72.4 	"/>
	<g>
		<path class="st14" d="M204.9,72.1c0.5,0,1.1-0.1,1.1-0.7c0-0.5-0.4-0.7-0.8-0.7c-0.5,0-0.8,0.4-0.8,1h-1c0-1.1,0.7-1.8,1.8-1.8
			c0.9,0,1.8,0.5,1.8,1.5c0,0.5-0.3,0.9-0.7,1.1v0c0.6,0.1,0.9,0.6,0.9,1.2c0,1.1-0.9,1.8-2,1.8c-1.2,0-2-0.7-2-1.9h1
			c0,0.6,0.3,1.1,0.9,1.1c0.5,0,0.9-0.3,0.9-0.8c0-0.8-0.7-0.8-1.2-0.8C204.9,72.8,204.9,72.1,204.9,72.1z"/>
		<path class="st14" d="M210,75.2h-1.2l-1.3-3.9h1.1l0.8,2.7h0l0.8-2.7h1.1L210,75.2z"/>
		<path class="st14" d="M213.1,72.1c0.5,0,1.1-0.1,1.1-0.7c0-0.5-0.4-0.7-0.8-0.7c-0.5,0-0.8,0.4-0.8,1h-1c0-1.1,0.7-1.8,1.8-1.8
			c0.9,0,1.8,0.5,1.8,1.5c0,0.5-0.3,0.9-0.7,1.1v0c0.6,0.1,0.9,0.6,0.9,1.2c0,1.1-0.9,1.8-2,1.8c-1.2,0-2-0.7-2-1.9h1
			c0,0.6,0.3,1.1,0.9,1.1c0.5,0,0.9-0.3,0.9-0.8c0-0.8-0.7-0.8-1.2-0.8C213.1,72.8,213.1,72.1,213.1,72.1z"/>
		<path class="st14" d="M215.6,75.8h3.8v0.4h-3.8V75.8z"/>
		<path class="st14" d="M220.8,73.4c0,0.7,0.6,1,1.2,1c0.4,0,1.1-0.1,1.1-0.7c0-0.6-0.8-0.7-1.6-0.9c-0.8-0.2-1.6-0.5-1.6-1.5
			c0-1.1,1.1-1.6,2-1.6c1.1,0,2.2,0.5,2.2,1.8h-1.2c0-0.6-0.5-0.8-1.1-0.8c-0.4,0-0.8,0.2-0.8,0.6c0,0.4,0.3,0.5,1.6,0.8
			c0.4,0.1,1.6,0.4,1.6,1.6c0,1-0.8,1.7-2.3,1.7c-1.2,0-2.3-0.6-2.3-1.9H220.8z"/>
	</g>
</g>
<g>
	<path class="st13" d="M101.8,103.4h-0.4v-0.3c0.2,0,0.4-0.1,0.5-0.4h0.3v2.1h-0.4V103.4z"/>
</g>
<g>
	<path class="st13" d="M71.1,104c0.2-0.2,0.5-0.3,0.5-0.6c0-0.2-0.1-0.3-0.3-0.3c-0.2,0-0.3,0.2-0.3,0.4h-0.4c0-0.5,0.2-0.8,0.7-0.8
		c0.4,0,0.6,0.3,0.6,0.7c0,0.4-0.2,0.6-0.5,0.7c-0.1,0.1-0.3,0.2-0.4,0.4H72v0.3h-1.4C70.7,104.4,70.9,104.2,71.1,104z"/>
</g>
<g>
	<path class="st13" d="M101.8,56.1c0.2-0.2,0.5-0.3,0.5-0.6c0-0.2-0.1-0.3-0.3-0.3c-0.2,0-0.3,0.2-0.3,0.4h-0.4
		c0-0.5,0.2-0.8,0.7-0.8c0.4,0,0.6,0.3,0.6,0.7c0,0.4-0.2,0.6-0.5,0.7c-0.1,0.1-0.3,0.2-0.4,0.4h0.9v0.3h-1.4
		C101.4,56.5,101.6,56.3,101.8,56.1z"/>
	<path class="st13" d="M102.8,56.2h0.4c0,0.2,0.1,0.4,0.4,0.4c0.2,0,0.3-0.1,0.3-0.3c0-0.2-0.1-0.3-0.3-0.3h-0.1v-0.3h0.1
		c0.2,0,0.3-0.1,0.3-0.3c0-0.2-0.1-0.3-0.3-0.3c-0.2,0-0.3,0.2-0.3,0.4h-0.4c0-0.4,0.2-0.7,0.7-0.7c0.4,0,0.6,0.2,0.6,0.6
		c0,0.2-0.1,0.4-0.3,0.4v0c0.2,0.1,0.4,0.2,0.4,0.5c0,0.4-0.3,0.6-0.7,0.6C103.1,56.9,102.8,56.6,102.8,56.2z"/>
</g>
<g>
	<path class="st13" d="M70.2,56.1c0.2-0.2,0.5-0.3,0.5-0.6c0-0.2-0.1-0.3-0.3-0.3c-0.2,0-0.3,0.2-0.3,0.4h-0.4
		c0-0.5,0.2-0.8,0.7-0.8c0.4,0,0.6,0.3,0.6,0.7c0,0.4-0.2,0.6-0.5,0.7c-0.1,0.1-0.3,0.2-0.4,0.4h0.9v0.3h-1.4
		C69.8,56.5,70,56.3,70.2,56.1z"/>
	<path class="st13" d="M72.1,56.4h-0.9V56l0.9-1.2h0.4v1.3h0.3v0.3h-0.3v0.4h-0.4V56.4z M71.5,56.1h0.6v-0.8h0L71.5,56.1L71.5,56.1z
		"/>
</g>
</svg>
