<?xml version="1.0" encoding="utf-8"?>
<!-- Generator: Adobe Illustrator 24.1.2, SVG Export Plug-In . SVG Version: 6.00 Build 0)  -->
<svg version="1.1" xmlns="http://www.w3.org/2000/svg" xmlns:xlink="http://www.w3.org/1999/xlink" x="0px" y="0px"
	 viewBox="0 0 2694.27 1519.05" style="enable-background:new 0 0 2694.27 1519.05;" xml:space="preserve">
<style type="text/css">
	.st0{fill:#FFFFFF;}
	.st1{fill:#404040;}
	.st2{clip-path:url(#SVGID_2_);fill:#8A8C8D;}
	.st3{fill:#E8BA54;}
	.st4{fill:#896733;}
	.st5{fill:#CCCCCC;}
	.st6{opacity:0.51;fill:#896733;}
	.st7{opacity:0.07;fill:#896733;}
	.st8{fill:#ECE4D9;}
	.st9{fill:#DEA954;}
	.st10{fill:#E0E3D9;}
	.st11{font-family:'HelveticaNeueLTPro-Bd';}
	.st12{font-size:83.3264px;}
	.st13{font-family:'HelveticaNeueLTPro-LtCn';}
	.st14{font-size:44.5351px;}
	.st15{fill:#292929;}
	.st16{fill:#090909;}
	.st17{fill:#1B1C1E;}
	.st18{fill:#C7CDBC;}
	.st19{fill:#8B8F8C;}
	.st20{fill:#E1E5DB;}
	.st21{opacity:0.9;fill:#FFFFFF;}
	.st22{fill:#0E1115;}
	.st23{font-size:28.4976px;}
	.st24{font-family:'HelveticaNeueLTPro-Md';}
	.st25{font-size:21.5818px;}
	.st26{fill:#212830;}
	.st27{fill:#E5E5E5;}
	.st28{fill:#A7A596;}
	.st29{fill:#595959;}
	.st30{fill:#999999;}
	.st31{fill:#716F70;}
	.st32{fill:#FFD400;}
	.st33{fill:#7373FF;}
	.st34{fill:#333333;}
	.st35{fill:#FF0000;}
	.st36{fill:#FF7676;}
	.st37{fill:#A33A3A;}
	.st38{font-size:48.7323px;}
	.st39{fill:#191919;}
	.st40{font-family:'HelveticaNeueLTPro-Lt';}
	.st41{font-size:71.4264px;}
	.st42{font-size:82.9874px;}
	.st43{fill:#1765A6;}
	.st44{fill:#C8C9C8;}
	.st45{fill:#0C419A;}
	.st46{fill:#231715;}
	.st47{font-size:32.3379px;}
	.st48{font-family:'MyriadPro-Regular';}
	.st49{font-size:76.7479px;}
</style>
<g id="Layer_4">
	<rect class="st0" width="2694.27" height="1517.54"/>
</g>
<g id="Layer_5">
	<g>
		<g>
			<g>
				<path class="st1" d="M1334.79,1292.69c-16.19,0-29.43-13.24-29.43-29.43V449.53c0-16.19,13.24-29.43,29.43-29.43h53.33v-54.76
					H93.68v54.76h62.1c16.19,0,29.43,13.24,29.43,29.43v813.73c0,16.19-13.24,29.43-29.43,29.43h-62.1v46.75h1294.44v-46.75H1334.79
					z"/>
			</g>
			<path class="st1" d="M1297.69,1265.34H184.12c-49.74,0-90.44-40.7-90.44-90.44V534.22c0-49.74,40.7-90.44,90.44-90.44h1113.57
				c49.74,0,90.44,40.7,90.44,90.44v640.68C1388.12,1224.64,1347.43,1265.34,1297.69,1265.34z"/>
		</g>
	</g>
	<g>
		<defs>
			<path id="SVGID_1_" d="M1334.79,420.1h53.33v-54.76H93.68v54.76h62.1c14.22,0,26.17,10.23,28.86,23.69h-0.52
				c-49.74,0-90.44,40.7-90.44,90.44v640.68c0,49.74,40.7,90.44,90.44,90.44h1.01c-1.08,15.22-13.86,27.35-29.35,27.35h-62.1v46.75
				h1294.44v-46.75h-53.33c-15.61,0-28.47-12.31-29.37-27.7c46.15-3.96,82.7-42.95,82.7-90.08V534.22
				c0-46.98-36.31-85.88-82.26-90.05C1308.4,430.52,1320.43,420.1,1334.79,420.1z"/>
		</defs>
		<clipPath id="SVGID_2_">
			<use xlink:href="#SVGID_1_"  style="overflow:visible;"/>
		</clipPath>
		<rect x="151.8" y="442.98" class="st2" width="1173.13" height="4.38"/>
		<rect x="151.8" y="1265.33" class="st2" width="1173.13" height="4.38"/>
	</g>
	<g id="LoRA_1_">
		<path class="st3" d="M1546.6,892.94h-140.97c-2.34,0-4.23-1.9-4.23-4.23v-84.21c0-2.34,1.9-4.23,4.23-4.23h140.97
			c2.34,0,4.23,1.9,4.23,4.23v84.21C1550.84,891.05,1548.94,892.94,1546.6,892.94z"/>
		<g>
			<path class="st3" d="M1465.76,900.16h-5.69c-0.7,0-1.27-0.57-1.27-1.27v-104.4c0-0.7,0.57-1.27,1.27-1.27h5.69
				c0.7,0,1.27,0.57,1.27,1.27v104.4C1467.03,899.59,1466.46,900.16,1465.76,900.16z"/>
			<path class="st3" d="M1476.05,900.16h-5.69c-0.7,0-1.27-0.57-1.27-1.27v-104.4c0-0.7,0.57-1.27,1.27-1.27h5.69
				c0.7,0,1.27,0.57,1.27,1.27v104.4C1477.32,899.59,1476.74,900.16,1476.05,900.16z"/>
			<path class="st3" d="M1486.33,900.16h-5.69c-0.7,0-1.27-0.57-1.27-1.27v-104.4c0-0.7,0.57-1.27,1.27-1.27h5.69
				c0.7,0,1.27,0.57,1.27,1.27v104.4C1487.6,899.59,1487.03,900.16,1486.33,900.16z"/>
			<path class="st3" d="M1496.61,900.16h-5.69c-0.7,0-1.27-0.57-1.27-1.27v-104.4c0-0.7,0.57-1.27,1.27-1.27h5.69
				c0.7,0,1.27,0.57,1.27,1.27v104.4C1497.88,899.59,1497.31,900.16,1496.61,900.16z"/>
			<path class="st3" d="M1506.89,900.16h-5.69c-0.7,0-1.27-0.57-1.27-1.27v-104.4c0-0.7,0.57-1.27,1.27-1.27h5.69
				c0.7,0,1.27,0.57,1.27,1.27v104.4C1508.16,899.59,1507.59,900.16,1506.89,900.16z"/>
			<path class="st3" d="M1517.18,900.16h-5.69c-0.7,0-1.27-0.57-1.27-1.27v-104.4c0-0.7,0.57-1.27,1.27-1.27h5.69
				c0.7,0,1.27,0.57,1.27,1.27v104.4C1518.45,899.59,1517.87,900.16,1517.18,900.16z"/>
			<path class="st3" d="M1527.46,900.16h-5.69c-0.7,0-1.27-0.57-1.27-1.27v-104.4c0-0.7,0.57-1.27,1.27-1.27h5.69
				c0.7,0,1.27,0.57,1.27,1.27v104.4C1528.73,899.59,1528.16,900.16,1527.46,900.16z"/>
		</g>
		<g>
			<rect x="1344.45" y="788.85" class="st4" width="53.79" height="17.41"/>
			<rect x="1344.45" y="884.79" class="st4" width="53.79" height="17.41"/>
			<path class="st4" d="M1348.94,851.88h51.47c0.64,0,1.16-0.52,1.16-1.16v-10.49c0-0.64-0.52-1.16-1.16-1.16h-51.47
				c-0.64,0-1.16,0.52-1.16,1.16v10.49C1347.78,851.36,1348.3,851.88,1348.94,851.88z"/>
		</g>
		<rect x="1388.37" y="788.85" class="st4" width="26.05" height="113.36"/>
		<path class="st5" d="M1388.24,829.87v-59.22h-68.76v42.02h34.38c0,0,8.87,0.8,6.65,17.21
			C1383.8,830.27,1388.24,829.87,1388.24,829.87z"/>
		<path class="st5" d="M1388.24,863.97v59.22h-68.76v-42.02h34.38c0,0,8.87-0.8,6.65-17.21
			C1383.8,863.57,1388.24,863.97,1388.24,863.97z"/>
		<rect x="1319.48" y="835.27" class="st5" width="52.95" height="21.41"/>
		<g>
			<path class="st6" d="M1528.73,892.77v-92.07c0-0.16,0.13-0.29,0.29-0.29h1.48c0.16,0,0.29,0.13,0.29,0.29v92.07
				c0,0.16-0.13,0.29-0.29,0.29h-1.48C1528.86,893.05,1528.73,892.92,1528.73,892.77z"/>
			<path class="st6" d="M1518.45,892.77v-92.07c0-0.16,0.13-0.29,0.29-0.29h1.48c0.16,0,0.29,0.13,0.29,0.29v92.07
				c0,0.16-0.13,0.29-0.29,0.29h-1.48C1518.57,893.05,1518.45,892.92,1518.45,892.77z"/>
			<path class="st6" d="M1508.16,892.77v-92.07c0-0.16,0.13-0.29,0.29-0.29h1.48c0.16,0,0.29,0.13,0.29,0.29v92.07
				c0,0.16-0.13,0.29-0.29,0.29h-1.48C1508.29,893.05,1508.16,892.92,1508.16,892.77z"/>
			<path class="st6" d="M1497.88,892.77v-92.07c0-0.16,0.13-0.29,0.29-0.29h1.48c0.16,0,0.29,0.13,0.29,0.29v92.07
				c0,0.16-0.13,0.29-0.29,0.29h-1.48C1498.01,893.05,1497.88,892.92,1497.88,892.77z"/>
			<path class="st6" d="M1487.6,892.77v-92.07c0-0.16,0.13-0.29,0.29-0.29h1.48c0.16,0,0.29,0.13,0.29,0.29v92.07
				c0,0.16-0.13,0.29-0.29,0.29h-1.48C1487.73,893.05,1487.6,892.92,1487.6,892.77z"/>
			<path class="st6" d="M1477.32,892.77v-92.07c0-0.16,0.13-0.29,0.29-0.29h1.48c0.16,0,0.29,0.13,0.29,0.29v92.07
				c0,0.16-0.13,0.29-0.29,0.29h-1.48C1477.44,893.05,1477.32,892.92,1477.32,892.77z"/>
			<path class="st6" d="M1467.03,892.77v-92.07c0-0.16,0.13-0.29,0.29-0.29h1.48c0.16,0,0.29,0.13,0.29,0.29v92.07
				c0,0.16-0.13,0.29-0.29,0.29h-1.48C1467.16,893.05,1467.03,892.92,1467.03,892.77z"/>
			<path class="st6" d="M1456.75,892.77v-92.07c0-0.16,0.13-0.29,0.29-0.29h1.48c0.16,0,0.29,0.13,0.29,0.29v92.07
				c0,0.16-0.13,0.29-0.29,0.29h-1.48C1456.88,893.05,1456.75,892.92,1456.75,892.77z"/>
		</g>
		<rect x="1414.42" y="815.34" class="st7" width="136.42" height="16.89"/>
	</g>
	<g>
		<rect x="348.88" y="456.55" class="st5" width="34.84" height="65.93"/>
		<rect x="331.29" y="481.25" class="st5" width="32.35" height="17.94"/>
		<path class="st8" d="M379.88,511.9h-31.8c-3.21,0-5.83-2.63-5.83-5.83v-31.8c0-3.21,2.63-5.83,5.83-5.83h31.8
			c3.21,0,5.83,2.63,5.83,5.83v31.8C385.72,509.28,383.09,511.9,379.88,511.9z"/>
		<circle class="st9" cx="363.3" cy="489.59" r="15.67"/>
		<circle class="st8" cx="363.3" cy="489.79" r="14.26"/>
		<circle class="st9" cx="363.3" cy="489.97" r="4.41"/>
	</g>
	<g>
		<rect x="1314.84" y="648.99" class="st5" width="34.84" height="65.93"/>
		<rect x="1297.25" y="673.69" class="st5" width="32.35" height="17.94"/>
		<path class="st8" d="M1345.84,704.34h-31.8c-3.21,0-5.83-2.63-5.83-5.83v-31.8c0-3.21,2.63-5.83,5.83-5.83h31.8
			c3.21,0,5.83,2.63,5.83,5.83v31.8C1351.68,701.72,1349.05,704.34,1345.84,704.34z"/>
		<circle class="st9" cx="1329.26" cy="682.03" r="15.67"/>
		<circle class="st8" cx="1329.26" cy="682.23" r="14.26"/>
		<circle class="st9" cx="1329.26" cy="682.41" r="4.41"/>
	</g>
	<g>
		<rect x="1314.84" y="1025.57" class="st5" width="34.84" height="65.93"/>
		<rect x="1297.25" y="1050.28" class="st5" width="32.35" height="17.94"/>
		<path class="st8" d="M1345.84,1080.93h-31.8c-3.21,0-5.83-2.63-5.83-5.83v-31.8c0-3.21,2.63-5.83,5.83-5.83h31.8
			c3.21,0,5.83,2.63,5.83,5.83v31.8C1351.68,1078.3,1349.05,1080.93,1345.84,1080.93z"/>
		<circle class="st9" cx="1329.26" cy="1058.62" r="15.67"/>
		<circle class="st8" cx="1329.26" cy="1058.81" r="14.26"/>
		<circle class="st9" cx="1329.26" cy="1058.99" r="4.41"/>
	</g>
	<g>
		<g>
			<polygon id="Shape_90_" class="st10" points="646.62,1199.99 646.62,1159.94 656.59,1159.94 656.59,1191.55 672.13,1191.55 
				672.13,1199.99 			"/>
			<path id="Shape_89_" class="st10" d="M712.64,1199.99v-40.06h19.94c9.61,0,14.46,4.4,14.46,13.2c0,2.6-0.72,4.85-2.25,6.83
				c-1.53,1.98-3.5,3.23-6.02,4.04l9.16,16.08H736.8l-7.81-14.37h-6.38v14.37h-9.97V1199.99z M722.61,1167.39v10.78h9.16
				c3.59,0,5.3-1.8,5.3-5.39c0-3.59-1.8-5.39-5.3-5.39H722.61z"/>
			<path id="Shape_88_" class="st10" d="M778.57,1178.08v15.81c0,2.78,0.27,4.94,0.81,6.29h-8.08c-0.27-0.9-0.45-1.98-0.54-3.05
				h-0.09c-0.72,1.17-1.98,2.07-3.86,2.78c-1.71,0.72-3.41,1.08-5.12,1.08c-2.96,0-5.3-0.81-7.1-2.34
				c-1.89-1.62-2.87-3.77-2.87-6.56c0-3.41,1.35-6.02,4.13-7.72c2.34-1.53,6.02-2.6,11.23-3.32l3.23-0.45v-2.51
				c0-2.16-1.35-3.23-4.13-3.23c-1.44,0-2.51,0.27-3.14,0.9c-0.72,0.63-1.17,1.62-1.44,3.05h-8.44c0.18-6.29,4.31-9.43,12.3-9.43
				c4.4,0,7.63,0.63,9.7,1.8C777.4,1172.6,778.57,1174.94,778.57,1178.08 M770.21,1187.69v-2.07l-5.84,1.71
				c-2.78,0.81-4.22,2.07-4.22,3.86c0,2.25,1.35,3.41,4.13,3.41c1.8,0,3.23-0.63,4.31-1.8
				C769.67,1191.55,770.21,1189.84,770.21,1187.69"/>
			<path id="Shape_87_" class="st10" d="M690.72,1169.46c4.76,0,8.53,1.35,11.5,4.13c2.87,2.78,4.4,6.65,4.4,11.59
				s-1.44,8.8-4.4,11.59c-2.87,2.78-6.74,4.13-11.5,4.13c-4.76,0-8.53-1.35-11.5-4.13c-2.87-2.78-4.4-6.65-4.4-11.59
				s1.44-8.8,4.4-11.59C682.19,1170.8,686.05,1169.46,690.72,1169.46 M690.72,1176.1c-2.43,0-4.22,0.9-5.39,2.6
				c-1.08,1.62-1.71,3.77-1.71,6.47s0.54,4.85,1.71,6.47c1.26,1.71,3.05,2.6,5.39,2.6c4.76,0,7.1-3.14,7.1-9.43
				c0-2.6-0.54-4.67-1.71-6.2C694.95,1177,693.15,1176.1,690.72,1176.1"/>
			<path id="Shape_86_" class="st10" d="M690.63,1162.9c4.31,0,8.44,1.26,11.86,3.5l1.71-2.43c-3.86-2.51-8.53-4.04-13.56-4.04
				c-4.76,0-9.25,1.35-13.02,3.68l1.71,2.43C682.64,1164.07,686.5,1162.9,690.63,1162.9"/>
			<path id="Shape_85_" class="st10" d="M672.22,1155.89l2.25,3.23c4.67-2.96,10.15-4.67,16.08-4.67c6.11,0,11.86,1.89,16.62,5.03
				l2.25-3.23c-5.39-3.59-11.86-5.75-18.86-5.75C683.81,1150.51,677.52,1152.48,672.22,1155.89"/>
			<path id="Shape_84_" class="st10" d="M690.63,1146.01c7.9,0,15.36,2.43,21.47,6.56l2.87-4.04c-7.01-4.76-15.36-7.54-24.34-7.54
				c-8.8,0-16.98,2.6-23.8,7.1l2.87,4.13C675.72,1148.26,682.91,1146.01,690.63,1146.01"/>
			<path id="Shape_83_" class="st10" d="M691.17,1206.82c-4.31,0-8.44-1.26-11.86-3.5l-1.71,2.43c3.86,2.51,8.53,4.04,13.56,4.04
				c4.76,0,9.25-1.35,13.02-3.68l-1.71-2.43C699.17,1205.65,695.31,1206.82,691.17,1206.82"/>
			<path id="Shape_82_" class="st10" d="M709.41,1213.65l-2.25-3.23c-4.67,2.96-10.15,4.67-16.08,4.67
				c-6.11,0-11.86-1.89-16.62-5.03l-2.25,3.23c5.39,3.59,11.86,5.75,18.86,5.75C697.82,1219.04,704.11,1217.06,709.41,1213.65"/>
			<path id="Shape_81_" class="st10" d="M691.17,1223.35c-7.9,0-15.36-2.43-21.47-6.56l-2.87,4.04c7.01,4.67,15.36,7.45,24.34,7.45
				c8.8,0,16.98-2.6,23.8-7.1l-2.87-4.13C706.08,1221.1,698.9,1223.35,691.17,1223.35"/>
		</g>
	</g>
	<text transform="matrix(1 0 0 1 820.7042 1196.7621)" class="st10 st11 st12">Gateway</text>
	<text transform="matrix(1 0 0 1 901.127 1244.7172)" class="st10 st13 st14">RAKWireless</text>
	<g>
		
			<rect x="-103.91" y="822.37" transform="matrix(6.123234e-17 -1 1 6.123234e-17 -713.784 1010.0587)" class="st15" width="504.1" height="79.11"/>
		<g>
			
				<rect x="111.23" y="1070.62" transform="matrix(6.123234e-17 -1 1 6.123234e-17 -958.1582 1212.3135)" class="st16" width="31.7" height="29.24"/>
			<path class="st17" d="M112.46,1101.09v-31.7c3.05,3.05,6.11,6.11,9.16,9.16c0,5.52,0,11.04,0,16.56
				C118.56,1097.1,115.51,1099.09,112.46,1101.09z"/>
			<path class="st17" d="M141.7,1069.38v31.7c-1.17-2-2.35-3.99-3.52-5.99c0-5.52,0-11.04,0-16.56
				C139.35,1075.49,140.52,1072.44,141.7,1069.38z"/>
			
				<rect x="121.62" y="1078.54" transform="matrix(6.123234e-17 -1 1 6.123234e-17 -956.9253 1216.7167)" width="16.56" height="16.56"/>
		</g>
		<g>
			
				<rect x="111.23" y="1029.34" transform="matrix(6.123234e-17 -1 1 6.123234e-17 -916.8851 1171.0404)" class="st16" width="31.7" height="29.24"/>
			<path class="st17" d="M112.46,1059.81v-31.7c3.05,3.05,6.11,6.11,9.16,9.16c0,5.52,0,11.04,0,16.56
				C118.56,1055.82,115.51,1057.82,112.46,1059.81z"/>
			<path class="st17" d="M141.7,1028.11v31.7c-1.17-2-2.35-3.99-3.52-5.99c0-5.52,0-11.04,0-16.56
				C139.35,1034.22,140.52,1031.16,141.7,1028.11z"/>
			
				<rect x="121.62" y="1037.27" transform="matrix(6.123234e-17 -1 1 6.123234e-17 -915.6522 1175.4436)" width="16.56" height="16.56"/>
		</g>
		<g>
			
				<rect x="111.23" y="988.07" transform="matrix(6.123234e-17 -1 1 6.123234e-17 -875.6121 1129.7673)" class="st16" width="31.7" height="29.24"/>
			<path class="st17" d="M112.46,1018.54v-31.7c3.05,3.05,6.11,6.11,9.16,9.16c0,5.52,0,11.04,0,16.56
				C118.56,1014.55,115.51,1016.55,112.46,1018.54z"/>
			<path class="st17" d="M141.7,986.84v31.7c-1.17-2-2.35-3.99-3.52-5.99c0-5.52,0-11.04,0-16.56
				C139.35,992.94,140.52,989.89,141.7,986.84z"/>
			
				<rect x="121.62" y="996" transform="matrix(6.123234e-17 -1 1 6.123234e-17 -874.3792 1134.1705)" width="16.56" height="16.56"/>
		</g>
		<g>
			
				<rect x="111.23" y="946.8" transform="matrix(6.123234e-17 -1 1 6.123234e-17 -834.3389 1088.4941)" class="st16" width="31.7" height="29.24"/>
			<path class="st17" d="M112.46,977.27v-31.7c3.05,3.05,6.11,6.11,9.16,9.16c0,5.52,0,11.04,0,16.56
				C118.56,973.28,115.51,975.27,112.46,977.27z"/>
			<path class="st17" d="M141.7,945.56v31.7c-1.17-2-2.35-3.99-3.52-5.99c0-5.52,0-11.04,0-16.56
				C139.35,951.67,140.52,948.62,141.7,945.56z"/>
			
				<rect x="121.62" y="954.72" transform="matrix(6.123234e-17 -1 1 6.123234e-17 -833.106 1092.8975)" width="16.56" height="16.56"/>
		</g>
		<g>
			
				<rect x="111.23" y="905.52" transform="matrix(6.123234e-17 -1 1 6.123234e-17 -793.0659 1047.2211)" class="st16" width="31.7" height="29.24"/>
			<path class="st17" d="M112.46,936v-31.7c3.05,3.05,6.11,6.11,9.16,9.16c0,5.52,0,11.04,0,16.56C118.56,932,115.51,934,112.46,936
				z"/>
			<path class="st17" d="M141.7,904.29V936c-1.17-2-2.35-3.99-3.52-5.99c0-5.52,0-11.04,0-16.56
				C139.35,910.4,140.52,907.34,141.7,904.29z"/>
			
				<rect x="121.62" y="913.45" transform="matrix(6.123234e-17 -1 1 6.123234e-17 -791.8329 1051.6244)" width="16.56" height="16.56"/>
		</g>
		<g>
			
				<rect x="111.23" y="864.25" transform="matrix(6.123234e-17 -1 1 6.123234e-17 -751.7928 1005.948)" class="st16" width="31.7" height="29.24"/>
			<path class="st17" d="M112.46,894.72v-31.7c3.05,3.05,6.11,6.11,9.16,9.16c0,5.52,0,11.04,0,16.56
				C118.56,890.73,115.51,892.73,112.46,894.72z"/>
			<path class="st17" d="M141.7,863.02v31.7c-1.17-2-2.35-3.99-3.52-5.99c0-5.52,0-11.04,0-16.56
				C139.35,869.12,140.52,866.07,141.7,863.02z"/>
			
				<rect x="121.62" y="872.18" transform="matrix(6.123234e-17 -1 1 6.123234e-17 -750.5599 1010.3513)" width="16.56" height="16.56"/>
		</g>
		<g>
			
				<rect x="111.23" y="822.98" transform="matrix(6.123234e-17 -1 1 6.123234e-17 -710.5197 964.6749)" class="st16" width="31.7" height="29.24"/>
			<path class="st17" d="M112.46,853.45v-31.7c3.05,3.05,6.11,6.11,9.16,9.16c0,5.52,0,11.04,0,16.56
				C118.56,849.46,115.51,851.45,112.46,853.45z"/>
			<path class="st17" d="M141.7,821.75v31.7c-1.17-2-2.35-3.99-3.52-5.99c0-5.52,0-11.04,0-16.56
				C139.35,827.85,140.52,824.8,141.7,821.75z"/>
			
				<rect x="121.62" y="830.9" transform="matrix(6.123234e-17 -1 1 6.123234e-17 -709.2867 969.0782)" width="16.56" height="16.56"/>
		</g>
		<g>
			
				<rect x="111.23" y="781.71" transform="matrix(6.123234e-17 -1 1 6.123234e-17 -669.2466 923.4019)" class="st16" width="31.7" height="29.24"/>
			<path class="st17" d="M112.46,812.18v-31.7c3.05,3.05,6.11,6.11,9.16,9.16c0,5.52,0,11.04,0,16.56
				C118.56,808.18,115.51,810.18,112.46,812.18z"/>
			<path class="st17" d="M141.7,780.47v31.7c-1.17-2-2.35-3.99-3.52-5.99c0-5.52,0-11.04,0-16.56
				C139.35,786.58,140.52,783.53,141.7,780.47z"/>
			
				<rect x="121.62" y="789.63" transform="matrix(6.123234e-17 -1 1 6.123234e-17 -668.0137 927.8051)" width="16.56" height="16.56"/>
		</g>
		<g>
			
				<rect x="111.23" y="740.43" transform="matrix(6.123234e-17 -1 1 6.123234e-17 -627.9735 882.1287)" class="st16" width="31.7" height="29.24"/>
			<path class="st17" d="M112.46,770.9v-31.7c3.05,3.05,6.11,6.11,9.16,9.16c0,5.52,0,11.04,0,16.56
				C118.56,766.91,115.51,768.91,112.46,770.9z"/>
			<path class="st17" d="M141.7,739.2v31.7c-1.17-2-2.35-3.99-3.52-5.99c0-5.52,0-11.04,0-16.56
				C139.35,745.31,140.52,742.25,141.7,739.2z"/>
			
				<rect x="121.62" y="748.36" transform="matrix(6.123234e-17 -1 1 6.123234e-17 -626.7406 886.532)" width="16.56" height="16.56"/>
		</g>
		<g>
			
				<rect x="111.23" y="699.16" transform="matrix(6.123234e-17 -1 1 6.123234e-17 -586.7004 840.8557)" class="st16" width="31.7" height="29.24"/>
			<path class="st17" d="M112.46,729.63v-31.7c3.05,3.05,6.11,6.11,9.16,9.16c0,5.52,0,11.04,0,16.56
				C118.56,725.64,115.51,727.63,112.46,729.63z"/>
			<path class="st17" d="M141.7,697.93v31.7c-1.17-2-2.35-3.99-3.52-5.99c0-5.52,0-11.04,0-16.56
				C139.35,704.03,140.52,700.98,141.7,697.93z"/>
			
				<rect x="121.62" y="707.09" transform="matrix(6.123234e-17 -1 1 6.123234e-17 -585.4675 845.2589)" width="16.56" height="16.56"/>
		</g>
		<g>
			
				<rect x="111.23" y="657.89" transform="matrix(6.123234e-17 -1 1 6.123234e-17 -545.4273 799.5826)" class="st16" width="31.7" height="29.24"/>
			<path class="st17" d="M112.46,688.36v-31.7c3.05,3.05,6.11,6.11,9.16,9.16c0,5.52,0,11.04,0,16.56
				C118.56,684.36,115.51,686.36,112.46,688.36z"/>
			<path class="st17" d="M141.7,656.65v31.7c-1.17-2-2.35-3.99-3.52-5.99c0-5.52,0-11.04,0-16.56
				C139.35,662.76,140.52,659.71,141.7,656.65z"/>
			
				<rect x="121.62" y="665.81" transform="matrix(6.123234e-17 -1 1 6.123234e-17 -544.1944 803.9858)" width="16.56" height="16.56"/>
		</g>
		<g>
			
				<rect x="111.23" y="616.61" transform="matrix(6.123234e-17 -1 1 6.123234e-17 -504.1542 758.3094)" class="st16" width="31.7" height="29.24"/>
			<path class="st17" d="M112.46,647.08v-31.7c3.05,3.05,6.11,6.11,9.16,9.16c0,5.52,0,11.04,0,16.56
				C118.56,643.09,115.51,645.09,112.46,647.08z"/>
			<path class="st17" d="M141.7,615.38v31.7c-1.17-2-2.35-3.99-3.52-5.99c0-5.52,0-11.04,0-16.56
				C139.35,621.49,140.52,618.43,141.7,615.38z"/>
			
				<rect x="121.62" y="624.54" transform="matrix(6.123234e-17 -1 1 6.123234e-17 -502.9213 762.7127)" width="16.56" height="16.56"/>
		</g>
		<g>
			
				<rect x="151.03" y="1070.62" transform="matrix(6.123234e-17 -1 1 6.123234e-17 -918.3504 1252.1213)" class="st16" width="31.7" height="29.24"/>
			<path class="st17" d="M152.27,1101.09v-31.7c3.05,3.05,6.11,6.11,9.16,9.16c0,5.52,0,11.04,0,16.56
				C158.37,1097.1,155.32,1099.09,152.27,1101.09z"/>
			<path class="st17" d="M181.5,1069.38v31.7c-1.17-2-2.35-3.99-3.52-5.99c0-5.52,0-11.04,0-16.56
				C179.16,1075.49,180.33,1072.44,181.5,1069.38z"/>
			
				<rect x="161.43" y="1078.54" transform="matrix(6.123234e-17 -1 1 6.123234e-17 -917.1175 1256.5245)" width="16.56" height="16.56"/>
		</g>
		<g>
			
				<rect x="151.03" y="1029.34" transform="matrix(6.123234e-17 -1 1 6.123234e-17 -877.0773 1210.8483)" class="st16" width="31.7" height="29.24"/>
			<path class="st17" d="M152.27,1059.81v-31.7c3.05,3.05,6.11,6.11,9.16,9.16c0,5.52,0,11.04,0,16.56
				C158.37,1055.82,155.32,1057.82,152.27,1059.81z"/>
			<path class="st17" d="M181.5,1028.11v31.7c-1.17-2-2.35-3.99-3.52-5.99c0-5.52,0-11.04,0-16.56
				C179.16,1034.22,180.33,1031.16,181.5,1028.11z"/>
			
				<rect x="161.43" y="1037.27" transform="matrix(6.123234e-17 -1 1 6.123234e-17 -875.8444 1215.2515)" width="16.56" height="16.56"/>
		</g>
		<g>
			
				<rect x="151.03" y="988.07" transform="matrix(6.123234e-17 -1 1 6.123234e-17 -835.8042 1169.5752)" class="st16" width="31.7" height="29.24"/>
			<path class="st17" d="M152.27,1018.54v-31.7c3.05,3.05,6.11,6.11,9.16,9.16c0,5.52,0,11.04,0,16.56
				C158.37,1014.55,155.32,1016.55,152.27,1018.54z"/>
			<path class="st17" d="M181.5,986.84v31.7c-1.17-2-2.35-3.99-3.52-5.99c0-5.52,0-11.04,0-16.56
				C179.16,992.94,180.33,989.89,181.5,986.84z"/>
			
				<rect x="161.43" y="996" transform="matrix(6.123234e-17 -1 1 6.123234e-17 -834.5713 1173.9784)" width="16.56" height="16.56"/>
		</g>
		<g>
			
				<rect x="151.03" y="946.8" transform="matrix(6.123234e-17 -1 1 6.123234e-17 -794.5311 1128.302)" class="st16" width="31.7" height="29.24"/>
			<path class="st17" d="M152.27,977.27v-31.7c3.05,3.05,6.11,6.11,9.16,9.16c0,5.52,0,11.04,0,16.56
				C158.37,973.28,155.32,975.27,152.27,977.27z"/>
			<path class="st17" d="M181.5,945.56v31.7c-1.17-2-2.35-3.99-3.52-5.99c0-5.52,0-11.04,0-16.56
				C179.16,951.67,180.33,948.62,181.5,945.56z"/>
			
				<rect x="161.43" y="954.72" transform="matrix(6.123234e-17 -1 1 6.123234e-17 -793.2982 1132.7053)" width="16.56" height="16.56"/>
		</g>
		<g>
			
				<rect x="151.03" y="905.52" transform="matrix(6.123234e-17 -1 1 6.123234e-17 -753.258 1087.0289)" class="st16" width="31.7" height="29.24"/>
			<path class="st17" d="M152.27,936v-31.7c3.05,3.05,6.11,6.11,9.16,9.16c0,5.52,0,11.04,0,16.56C158.37,932,155.32,934,152.27,936
				z"/>
			<path class="st17" d="M181.5,904.29V936c-1.17-2-2.35-3.99-3.52-5.99c0-5.52,0-11.04,0-16.56
				C179.16,910.4,180.33,907.34,181.5,904.29z"/>
			
				<rect x="161.43" y="913.45" transform="matrix(6.123234e-17 -1 1 6.123234e-17 -752.0251 1091.4323)" width="16.56" height="16.56"/>
		</g>
		<g>
			
				<rect x="151.03" y="864.25" transform="matrix(6.123234e-17 -1 1 6.123234e-17 -711.9849 1045.7559)" class="st16" width="31.7" height="29.24"/>
			<path class="st17" d="M152.27,894.72v-31.7c3.05,3.05,6.11,6.11,9.16,9.16c0,5.52,0,11.04,0,16.56
				C158.37,890.73,155.32,892.73,152.27,894.72z"/>
			<path class="st17" d="M181.5,863.02v31.7c-1.17-2-2.35-3.99-3.52-5.99c0-5.52,0-11.04,0-16.56
				C179.16,869.12,180.33,866.07,181.5,863.02z"/>
			
				<rect x="161.43" y="872.18" transform="matrix(6.123234e-17 -1 1 6.123234e-17 -710.752 1050.1591)" width="16.56" height="16.56"/>
		</g>
		<g>
			
				<rect x="151.03" y="822.98" transform="matrix(6.123234e-17 -1 1 6.123234e-17 -670.7119 1004.4828)" class="st16" width="31.7" height="29.24"/>
			<path class="st17" d="M152.27,853.45v-31.7c3.05,3.05,6.11,6.11,9.16,9.16c0,5.52,0,11.04,0,16.56
				C158.37,849.46,155.32,851.45,152.27,853.45z"/>
			<path class="st17" d="M181.5,821.75v31.7c-1.17-2-2.35-3.99-3.52-5.99c0-5.52,0-11.04,0-16.56
				C179.16,827.85,180.33,824.8,181.5,821.75z"/>
			
				<rect x="161.43" y="830.9" transform="matrix(6.123234e-17 -1 1 6.123234e-17 -669.4789 1008.886)" width="16.56" height="16.56"/>
		</g>
		<g>
			
				<rect x="151.03" y="781.71" transform="matrix(6.123234e-17 -1 1 6.123234e-17 -629.4387 963.2097)" class="st16" width="31.7" height="29.24"/>
			<path class="st17" d="M152.27,812.18v-31.7c3.05,3.05,6.11,6.11,9.16,9.16c0,5.52,0,11.04,0,16.56
				C158.37,808.18,155.32,810.18,152.27,812.18z"/>
			<path class="st17" d="M181.5,780.47v31.7c-1.17-2-2.35-3.99-3.52-5.99c0-5.52,0-11.04,0-16.56
				C179.16,786.58,180.33,783.53,181.5,780.47z"/>
			
				<rect x="161.43" y="789.63" transform="matrix(6.123234e-17 -1 1 6.123234e-17 -628.2058 967.6129)" width="16.56" height="16.56"/>
		</g>
		<g>
			
				<rect x="151.03" y="740.43" transform="matrix(6.123234e-17 -1 1 6.123234e-17 -588.1656 921.9366)" class="st16" width="31.7" height="29.24"/>
			<path class="st17" d="M152.27,770.9v-31.7c3.05,3.05,6.11,6.11,9.16,9.16c0,5.52,0,11.04,0,16.56
				C158.37,766.91,155.32,768.91,152.27,770.9z"/>
			<path class="st17" d="M181.5,739.2v31.7c-1.17-2-2.35-3.99-3.52-5.99c0-5.52,0-11.04,0-16.56
				C179.16,745.31,180.33,742.25,181.5,739.2z"/>
			
				<rect x="161.43" y="748.36" transform="matrix(6.123234e-17 -1 1 6.123234e-17 -586.9327 926.3398)" width="16.56" height="16.56"/>
		</g>
		<g>
			
				<rect x="151.03" y="699.16" transform="matrix(6.123234e-17 -1 1 6.123234e-17 -546.8926 880.6635)" class="st16" width="31.7" height="29.24"/>
			<path class="st17" d="M152.27,729.63v-31.7c3.05,3.05,6.11,6.11,9.16,9.16c0,5.52,0,11.04,0,16.56
				C158.37,725.64,155.32,727.63,152.27,729.63z"/>
			<path class="st17" d="M181.5,697.93v31.7c-1.17-2-2.35-3.99-3.52-5.99c0-5.52,0-11.04,0-16.56
				C179.16,704.03,180.33,700.98,181.5,697.93z"/>
			
				<rect x="161.43" y="707.09" transform="matrix(6.123234e-17 -1 1 6.123234e-17 -545.6597 885.0668)" width="16.56" height="16.56"/>
		</g>
		<g>
			
				<rect x="151.03" y="657.89" transform="matrix(6.123234e-17 -1 1 6.123234e-17 -505.6195 839.3904)" class="st16" width="31.7" height="29.24"/>
			<path class="st17" d="M152.27,688.36v-31.7c3.05,3.05,6.11,6.11,9.16,9.16c0,5.52,0,11.04,0,16.56
				C158.37,684.36,155.32,686.36,152.27,688.36z"/>
			<path class="st17" d="M181.5,656.65v31.7c-1.17-2-2.35-3.99-3.52-5.99c0-5.52,0-11.04,0-16.56
				C179.16,662.76,180.33,659.71,181.5,656.65z"/>
			
				<rect x="161.43" y="665.81" transform="matrix(6.123234e-17 -1 1 6.123234e-17 -504.3866 843.7936)" width="16.56" height="16.56"/>
		</g>
		<g>
			
				<rect x="151.03" y="616.61" transform="matrix(6.123234e-17 -1 1 6.123234e-17 -464.3464 798.1173)" class="st16" width="31.7" height="29.24"/>
			<path class="st17" d="M152.27,647.08v-31.7c3.05,3.05,6.11,6.11,9.16,9.16c0,5.52,0,11.04,0,16.56
				C158.37,643.09,155.32,645.09,152.27,647.08z"/>
			<path class="st17" d="M181.5,615.38v31.7c-1.17-2-2.35-3.99-3.52-5.99c0-5.52,0-11.04,0-16.56
				C179.16,621.49,180.33,618.43,181.5,615.38z"/>
			
				<rect x="161.43" y="624.54" transform="matrix(6.123234e-17 -1 1 6.123234e-17 -463.1135 802.5206)" width="16.56" height="16.56"/>
		</g>
	</g>
	<g>
		<polygon class="st9" points="186.12,476.18 211.27,500.36 211.95,535.24 187.77,560.38 152.89,561.07 127.75,536.88 
			127.07,502.01 151.25,476.86 		"/>
		<circle class="st0" cx="169.51" cy="519.65" r="28.36"/>
	</g>
	<g>
		<polygon class="st9" points="1336.1,476.18 1361.24,500.36 1361.92,535.24 1337.74,560.38 1302.86,561.07 1277.72,536.88 
			1277.04,502.01 1301.22,476.86 		"/>
		<circle class="st0" cx="1319.48" cy="519.65" r="28.36"/>
	</g>
	<g>
		<polygon class="st9" points="186.12,1142.73 211.27,1166.91 211.95,1201.79 187.77,1226.94 152.89,1227.62 127.75,1203.43 
			127.07,1168.56 151.25,1143.41 		"/>
		<circle class="st0" cx="169.51" cy="1186.2" r="28.36"/>
	</g>
	<g>
		<polygon class="st9" points="1336.1,1142.73 1361.24,1166.91 1361.92,1201.79 1337.74,1226.94 1302.86,1227.62 1277.72,1203.43 
			1277.04,1168.56 1301.22,1143.41 		"/>
		<circle class="st0" cx="1319.48" cy="1186.2" r="28.36"/>
	</g>
	<circle class="st9" cx="339.46" cy="401.84" r="8.17"/>
	<circle class="st9" cx="1065.6" cy="401.84" r="8.17"/>
	<circle class="st9" cx="505.55" cy="414.91" r="8.17"/>
	<circle class="st9" cx="542.6" cy="414.91" r="8.17"/>
	<circle class="st9" cx="1149.14" cy="1302.02" r="8.17"/>
	<circle class="st9" cx="340.55" cy="1302.02" r="8.17"/>
	<circle class="st9" cx="962.45" cy="1288.94" r="8.17"/>
	<circle class="st9" cx="925.41" cy="1288.94" r="8.17"/>
	<circle class="st0" cx="258.7" cy="1300.19" r="16.7"/>
	<circle class="st0" cx="1227.95" cy="1300.19" r="16.7"/>
	<circle class="st0" cx="258.7" cy="406.2" r="16.7"/>
	<circle class="st0" cx="1149.14" cy="406.2" r="16.7"/>
	<g>
		<rect x="226.62" y="904.29" class="st18" width="383.54" height="98.4"/>
		<rect x="226.62" y="1151.78" class="st18" width="383.54" height="98.4"/>
		<rect x="226.62" y="1029.34" class="st18" width="383.54" height="84.63"/>
		<rect x="297.44" y="945.56" class="st18" width="312.71" height="257.75"/>
		<rect x="234.24" y="909.04" class="st19" width="368.28" height="335.67"/>
	</g>
	<g>
		<rect x="226.62" y="538.5" class="st18" width="383.54" height="98.4"/>
		<rect x="226.62" y="785.99" class="st18" width="383.54" height="98.4"/>
		<rect x="226.62" y="663.55" class="st18" width="383.54" height="84.63"/>
		<rect x="297.44" y="579.77" class="st18" width="312.71" height="257.75"/>
		<rect x="234.24" y="543.25" class="st19" width="368.28" height="335.67"/>
	</g>
	<rect x="621.77" y="599.17" class="st18" width="606.18" height="515.02"/>
	<rect x="627.59" y="606.97" class="st19" width="600.37" height="494.12"/>
	<rect x="632.15" y="606.97" class="st20" width="595.8" height="488.13"/>
	<path class="st21" d="M1048.31,961.42H777.81c-11.96,0-21.65-9.69-21.65-21.65V807.64c0-11.96,9.69-21.65,21.65-21.65h270.51
		c11.96,0,21.65,9.69,21.65,21.65v132.13C1069.96,951.72,1060.27,961.42,1048.31,961.42z"/>
	<g>
		<g>
			<g>
				<path class="st22" d="M807.54,896.29c0.14,0.27,0.3,0.72,0.33,1.41c0.02,0.59,0.06,2.4,0.07,3.02c0.49-0.02,1.41-0.08,1.99-0.08
					c0.54,0,2.17-0.03,4.72-0.09h0.16c0.68-0.01,2.27-0.27,2.48-2.25c0.19-1.75-0.8-2.17-0.84-2.19c-0.36-0.24-1.93-0.66-3.74-0.66
					c-0.2,0-0.41,0-0.62,0.01C810.39,895.55,808.35,896.07,807.54,896.29z"/>
			</g>
		</g>
		<g>
			<g>
				<path class="st22" d="M804.63,894.56c0.4,0.01,0.8,0.09,1.21,0.27c0.72,0.3,1.1,0.61,1.26,0.77c0.56-0.17,2.6-0.77,4.78-0.93
					c0.3-0.02,0.62-0.03,0.93-0.03c1.7,0,2.93,0.33,3.36,0.47c0.14-0.1,0.37-0.3,0.58-0.51c0.34-0.36,0.54-0.76,0.65-1.29
					c0.1-0.49,0.16-1.15-0.28-2c-0.3-0.58-1.08-0.89-2.32-0.89c-0.16,0-0.34-0.01-0.52-0.01c-0.23-0.01-0.5-0.02-0.79-0.02
					c-0.84,0-2.18,0.08-4.07,0.76C807.34,891.87,805.42,893.72,804.63,894.56z"/>
			</g>
		</g>
		<g>
			<g>
				<path class="st22" d="M799.13,894.49c0.5,0,1.19,0.05,1.7,0.29c0.51,0.23,0.96,0.68,1.22,0.98c0.1-0.15,0.27-0.37,0.47-0.55
					c0.31-0.29,0.73-0.45,0.9-0.51c0.16-0.19,1.05-1.17,1.95-1.99c1.34-1.22,3-2.14,4.92-2.76c0.96-0.3,2.13-0.45,3.52-0.45
					c0.9,0,1.62,0.07,1.85,0.09c0.27-0.19,1.41-1.08,1.39-2.32c-0.02-1.88-0.75-2.34-3.85-2.49c-3.25-0.16-6.84,1.14-9.79,3.51
					c-2.48,1.99-3.9,5.22-4.3,6.22C799.1,894.49,799.12,894.49,799.13,894.49z"/>
			</g>
		</g>
		<g>
			<g>
				<path class="st22" d="M812.08,901.4c0.02,0.47,0.08,1.4,0.08,1.99c0,0.7,0.05,3.09,0.08,4.37l0.01,0.51
					c0.01,0.68,0.27,2.27,2.25,2.48c0.14,0.01,0.28,0.02,0.41,0.02c1.4,0,1.76-0.83,1.77-0.86c0.23-0.35,0.76-2.17,0.65-4.36
					c-0.09-1.71-0.61-3.76-0.83-4.57c-0.27,0.14-0.72,0.3-1.41,0.33C814.81,901.33,814.06,901.36,812.08,901.4z"/>
			</g>
		</g>
		<g>
			<g>
				<path class="st22" d="M817.69,909.63c0.09,0.13,0.29,0.37,0.51,0.58c0.36,0.34,0.76,0.54,1.29,0.65
					c0.23,0.05,0.45,0.07,0.66,0.07c0.44,0,0.89-0.12,1.33-0.35c0.58-0.31,0.89-1.08,0.89-2.32c0-0.14,0-0.3,0.01-0.48v-0.06
					c0.03-1.01,0.1-2.53-0.73-4.86c-0.75-2.06-2.59-3.99-3.43-4.79c-0.01,0.33-0.07,0.75-0.27,1.21c-0.29,0.71-0.58,1.07-0.77,1.26
					c0.17,0.57,0.77,2.61,0.93,4.78C818.28,907.52,817.83,909.18,817.69,909.63z"/>
			</g>
		</g>
		<g>
			<g>
				<path class="st22" d="M823.21,909.11c0.22,0.31,1.08,1.39,2.3,1.39c1.91-0.02,2.38-0.75,2.53-3.85
					c0.16-3.25-1.12-6.82-3.51-9.79c-1.99-2.47-5.22-3.9-6.22-4.3c0,0.49-0.05,1.2-0.29,1.72c-0.24,0.51-0.7,0.98-0.98,1.22
					c0.16,0.12,0.37,0.27,0.55,0.47c0.29,0.3,0.45,0.73,0.51,0.9c0.24,0.22,1.19,1.07,1.99,1.95c1.21,1.34,2.14,3,2.76,4.92
					C823.52,905.84,823.27,908.59,823.21,909.11z"/>
			</g>
		</g>
		<g>
			<g>
				<path class="st22" d="M811.41,905.56c-0.49,0.02-1.41,0.08-1.99,0.08c-0.75,0-3.37,0.06-4.64,0.08h-0.26
					c-0.68,0.01-2.27,0.27-2.48,2.25c-0.19,1.76,0.83,2.19,0.84,2.19c0.4,0.27,2.27,0.76,4.36,0.65c1.71-0.09,3.76-0.61,4.57-0.83
					c-0.14-0.27-0.3-0.73-0.33-1.41c-0.02-0.54-0.06-2.12-0.07-2.89V905.56z"/>
			</g>
		</g>
		<g>
			<g>
				<path class="st22" d="M803.19,911.18c-0.13,0.09-0.37,0.29-0.58,0.51c-0.34,0.36-0.54,0.76-0.65,1.29
					c-0.1,0.49-0.16,1.15,0.28,1.99c0.31,0.58,1.08,0.89,2.32,0.89c0.15,0,0.33,0.01,0.52,0.01c0.24,0.01,0.5,0.02,0.79,0.02
					c0.84,0,2.18-0.08,4.07-0.76c2.06-0.75,3.99-2.59,4.79-3.43c-0.4-0.01-0.8-0.09-1.22-0.27c-0.71-0.29-1.07-0.58-1.26-0.77
					c-0.57,0.17-2.6,0.77-4.78,0.93c-0.31,0.02-0.63,0.03-0.93,0.03C804.83,911.65,803.56,911.3,803.19,911.18z"/>
			</g>
		</g>
		<g>
			<g>
				<path class="st22" d="M803.72,916.71c-0.27,0.19-1.4,1.08-1.39,2.32c0.02,1.88,0.75,2.34,3.85,2.49
					c3.25,0.15,6.84-1.14,9.79-3.51c2.48-1.99,3.9-5.22,4.3-6.22c-0.01,0-0.02,0-0.02,0c-0.5,0-1.2-0.05-1.7-0.29
					c-0.52-0.24-0.98-0.7-1.22-0.98c-0.12,0.17-0.28,0.37-0.47,0.55c-0.3,0.29-0.73,0.45-0.9,0.51c-0.27,0.3-1.11,1.22-1.96,1.99
					c-1.34,1.21-3,2.14-4.92,2.76c-0.96,0.3-2.13,0.45-3.52,0.45C804.66,916.8,803.94,916.73,803.72,916.71z"/>
			</g>
		</g>
		<g>
			<g>
				<path class="st22" d="M804.43,895.53c-1.4,0-1.76,0.83-1.77,0.86c-0.23,0.35-0.76,2.17-0.65,4.36c0.09,1.72,0.61,3.76,0.83,4.57
					c0.27-0.14,0.73-0.3,1.41-0.33c0.28-0.01,1.03-0.03,3.02-0.07c-0.02-0.38-0.08-1.38-0.08-1.99c0-0.54-0.03-2.17-0.09-4.73v-0.16
					c-0.01-0.68-0.27-2.27-2.25-2.48C804.71,895.53,804.57,895.53,804.43,895.53z"/>
			</g>
		</g>
		<g>
			<g>
				<path class="st22" d="M799.17,895.38c-0.44,0-0.89,0.12-1.33,0.35c-0.58,0.31-0.89,1.1-0.89,2.32c0,0.16-0.01,0.34-0.01,0.52
					c-0.03,1-0.1,2.52,0.73,4.86c0.75,2.06,2.59,3.99,3.43,4.79c0.01-0.33,0.07-0.75,0.27-1.21c0.29-0.71,0.58-1.08,0.77-1.26
					c-0.17-0.56-0.77-2.59-0.93-4.78c-0.15-2.19,0.29-3.85,0.43-4.29c-0.09-0.13-0.29-0.37-0.51-0.58
					c-0.36-0.34-0.76-0.54-1.29-0.65C799.59,895.4,799.38,895.38,799.17,895.38z"/>
			</g>
		</g>
		<g>
			<g>
				<path class="st22" d="M793.8,895.82c-1.88,0.02-2.34,0.75-2.49,3.85c-0.16,3.25,1.12,6.82,3.51,9.79
					c1.99,2.48,5.22,3.9,6.22,4.3c0-0.44,0.03-1.19,0.29-1.72c0.24-0.52,0.7-0.98,0.98-1.22c-0.17-0.12-0.38-0.28-0.55-0.47
					c-0.29-0.3-0.45-0.73-0.51-0.9c-0.3-0.27-1.22-1.11-1.99-1.95c-1.22-1.34-2.14-3-2.76-4.92c-0.68-2.11-0.42-4.86-0.36-5.36
					c-0.22-0.31-1.08-1.39-2.3-1.39h-0.03V895.82z"/>
			</g>
		</g>
	</g>
	<g>
		<path class="st22" d="M796.32,923.78c0.55,0,1.05,0.09,1.49,0.27s0.82,0.42,1.14,0.73c0.32,0.31,0.56,0.67,0.73,1.08
			c0.17,0.41,0.25,0.85,0.25,1.32c0,0.73-0.15,1.35-0.46,1.88c-0.31,0.53-0.8,0.93-1.49,1.21v0.03c0.34,0.09,0.61,0.23,0.83,0.42
			s0.4,0.41,0.54,0.67c0.14,0.26,0.24,0.54,0.3,0.86c0.06,0.31,0.11,0.62,0.13,0.93c0.01,0.2,0.02,0.42,0.03,0.69
			c0.01,0.26,0.03,0.54,0.06,0.81s0.07,0.54,0.14,0.78c0.06,0.25,0.16,0.46,0.29,0.63h-2.71c-0.15-0.39-0.24-0.86-0.27-1.4
			c-0.03-0.54-0.08-1.06-0.16-1.55c-0.09-0.64-0.29-1.12-0.59-1.41c-0.3-0.3-0.79-0.45-1.46-0.45h-2.71v4.81h-2.71v-12.31H796.32z
			 M795.35,929.35c0.62,0,1.08-0.14,1.4-0.41s0.46-0.73,0.46-1.35c0-0.6-0.16-1.03-0.46-1.3c-0.31-0.27-0.78-0.4-1.4-0.4h-2.97v3.47
			H795.35z"/>
		<path class="st22" d="M807.97,923.78l4.61,12.32h-2.81l-0.93-2.74h-4.61l-0.97,2.74h-2.73l4.66-12.32H807.97z M808.12,931.33
			l-1.55-4.52h-0.03l-1.6,4.52H808.12z"/>
		<path class="st22" d="M815.86,923.78v5.11l4.81-5.11h3.38l-4.81,4.86l5.28,7.45h-3.4l-3.71-5.54l-1.55,1.57v3.97h-2.71v-12.31
			H815.86z"/>
	</g>
	<g>
		<path d="M1040.09,916.65c0,1.04,0,2.09,0,3.13c-0.09,0.67-0.17,1.35-0.28,2.02c-0.82,4.97-2.99,9.26-6.63,12.75
			c-5.49,5.25-12.05,7.32-19.55,6.22c-5.05-0.74-9.38-3.04-12.89-6.76c-5.05-5.35-7.08-11.73-6.13-19
			c0.72-5.47,3.2-10.11,7.33-13.78c5.64-5,12.25-6.8,19.66-5.46c4.83,0.88,8.91,3.2,12.27,6.76c3.15,3.33,5.11,7.28,5.89,11.8
			C1039.9,915.11,1039.99,915.88,1040.09,916.65z M1000.32,909.31c-4.19,7.75-2.55,18.62,5.98,24.58
			c8.19,5.72,18.84,3.97,24.87-2.62c-0.88-0.63-1.78-1.24-2.64-1.89c-0.36-0.27-0.71-0.39-1.17-0.36c-1.45,0.1-2.79-0.22-3.88-1.26
			c-0.22-0.21-0.45-0.42-0.72-0.67c0,0.56,0,1.08,0,1.62c-0.89,0-1.74,0-2.62,0c0-0.18,0-0.33,0-0.47c0-1.48,0.01-2.97-0.01-4.45
			c0-0.17-0.09-0.41-0.23-0.51c-1.85-1.34-3.71-2.66-5.57-3.97c-0.11-0.08-0.34-0.08-0.46-0.02c-0.97,0.46-1.99,0.7-3.07,0.69
			c-1.24-0.01-2.47,0-3.71,0c-0.15,0-0.29,0-0.48,0c0,2.92,0,5.78,0,8.66c-1.02,0-1.99,0-2.99,0c0-0.19,0-0.35,0-0.51
			c0-5.35,0-10.69-0.01-16.04c0-0.16-0.02-0.4-0.13-0.48C1002.45,910.82,1001.38,910.07,1000.32,909.31z M1002.69,905.82
			c0.42,0.27,0.74,0.54,1.33,0.52c2.29-0.08,4.59-0.04,6.88-0.03c0.48,0,0.96,0.05,1.43,0.16c3.22,0.74,5.32,3.67,5.05,7.09
			c-0.06,0.81-0.24,1.61-0.36,2.45c0.98,0.7,2.02,1.44,3.13,2.22c0-4.02,0-7.95,0-11.9c0.9,0,1.75,0,2.64,0c0,3.19,0,6.34,0,9.57
			c0.19-0.22,0.33-0.39,0.47-0.55c0.54-0.63,1.19-1.09,1.98-1.36c2.83-0.98,6.06,0.45,7.33,3.29c0.94,2.1,0.95,4.29,0.55,6.5
			c-0.19,1.02-0.57,1.97-1.16,2.85c0.6,0.43,1.17,0.83,1.73,1.23c4.45-7.16,3.7-18.42-4.97-24.97
			C1020.31,896.57,1008.82,898.45,1002.69,905.82z M1029.64,925c0.08-0.16,0.16-0.29,0.22-0.42c0.64-1.44,0.74-2.94,0.54-4.48
			c-0.13-0.96-0.43-1.87-1.02-2.66c-1.17-1.57-3.45-1.82-4.92-0.54c-0.92,0.8-1.37,1.87-1.59,3.04c-0.02,0.12,0.12,0.32,0.24,0.4
			c1.21,0.88,2.43,1.74,3.65,2.61C1027.71,923.62,1028.66,924.3,1029.64,925z M1014.28,914.07c0-0.55-0.01-1.01,0-1.47
			c0.08-2.32-1.53-3.56-3.29-3.7c-1.2-0.1-2.41-0.05-3.62-0.07c-0.1,0-0.2,0.02-0.4,0.04
			C1009.44,910.62,1011.83,912.32,1014.28,914.07z M1006.63,913.81c0,1.26,0,2.46,0,3.69c1.61-0.11,3.21,0.15,4.89-0.21
			C1009.83,916.09,1008.25,914.96,1006.63,913.81z"/>
	</g>
	<text transform="matrix(1 0 0 1 789.1114 848.6782)" class="st11 st23">LoRaWAN</text>
	<text transform="matrix(0.583 0 0 0.583 927.8926 839.1884)" class="st11 st23">®</text>
	<text transform="matrix(1 0 0 1 941.1837 848.6782)" class="st11 st23"> Gateway</text>
	<text transform="matrix(1 0 0 1 851.2188 919.7328)" class="st24 st25">HF:888MHz</text>
	<g>
		<circle class="st9" cx="1245.66" cy="1219.21" r="13.44"/>
		<circle class="st26" cx="1245.66" cy="1219.21" r="7.45"/>
	</g>
	<g>
		<circle class="st9" cx="226.62" cy="471.03" r="13.44"/>
		<circle class="st26" cx="226.62" cy="471.03" r="7.45"/>
	</g>
	<g>
		<path class="st27" d="M200.1,1041.18v-19.9c0-2.44,1.41-4.37,3.08-4.37h5.76c1.72,0,3.08,1.99,3.08,4.37v19.9
			c0,2.44-1.41,4.37-3.08,4.37h-5.76C201.51,1045.61,200.1,1043.62,200.1,1041.18z"/>
		<rect x="200.12" y="1024.68" class="st28" width="11.97" height="13.16"/>
	</g>
	<g>
		<path class="st27" d="M420.74,486.93v-19.9c0-2.44,1.41-4.37,3.08-4.37h5.76c1.72,0,3.08,1.99,3.08,4.37v19.9
			c0,2.44-1.41,4.37-3.08,4.37h-5.76C422.15,491.36,420.74,489.37,420.74,486.93z"/>
		<rect x="420.76" y="470.42" class="st28" width="11.97" height="13.16"/>
	</g>
	<g>
		<path class="st27" d="M453.8,486.93v-19.9c0-2.44,1.41-4.37,3.08-4.37h5.76c1.72,0,3.08,1.99,3.08,4.37v19.9
			c0,2.44-1.41,4.37-3.08,4.37h-5.76C455.2,491.36,453.8,489.37,453.8,486.93z"/>
		<rect x="453.81" y="470.42" class="st28" width="11.97" height="13.16"/>
	</g>
	<g>
		<path class="st27" d="M486.85,486.93v-19.9c0-2.44,1.41-4.37,3.08-4.37h5.76c1.72,0,3.08,1.99,3.08,4.37v19.9
			c0,2.44-1.41,4.37-3.08,4.37h-5.76C488.25,491.36,486.85,489.37,486.85,486.93z"/>
		<rect x="486.86" y="470.42" class="st28" width="11.97" height="13.16"/>
	</g>
	<g>
		<path class="st27" d="M519.9,486.93v-19.9c0-2.44,1.41-4.37,3.08-4.37h5.76c1.72,0,3.08,1.99,3.08,4.37v19.9
			c0,2.44-1.41,4.37-3.08,4.37h-5.76C521.3,491.36,519.9,489.37,519.9,486.93z"/>
		<rect x="519.91" y="470.42" class="st28" width="11.97" height="13.16"/>
	</g>
	<g>
		<path class="st27" d="M552.95,486.93v-19.9c0-2.44,1.41-4.37,3.08-4.37h5.76c1.72,0,3.08,1.99,3.08,4.37v19.9
			c0,2.44-1.41,4.37-3.08,4.37h-5.76C554.35,491.36,552.95,489.37,552.95,486.93z"/>
		<rect x="552.97" y="470.42" class="st28" width="11.97" height="13.16"/>
	</g>
	<rect x="275.39" y="466.12" class="st5" width="9.41" height="9.41"/>
	<rect x="275.39" y="485.47" class="st5" width="9.41" height="9.41"/>
	<rect x="292.74" y="485.47" class="st5" width="4.7" height="9.41"/>
	<rect x="299.82" y="485.47" class="st5" width="4.7" height="9.41"/>
	<rect x="312.01" y="485.47" class="st5" width="4.7" height="9.41"/>
	<rect x="1272.08" y="821.6" class="st5" width="8.99" height="8.99"/>
	<rect x="1290.06" y="821.6" class="st5" width="8.99" height="8.99"/>
	<rect x="1272.08" y="858.7" class="st5" width="8.99" height="8.99"/>
	<rect x="1278.89" y="842.11" class="st5" width="15.66" height="6.57"/>
	<rect x="1243.55" y="842.11" class="st5" width="15.66" height="6.57"/>
	<rect x="1290.06" y="858.7" class="st5" width="8.99" height="8.99"/>
	<rect x="1272.08" y="875.8" class="st5" width="8.99" height="8.99"/>
	<rect x="1290.06" y="875.8" class="st5" width="8.99" height="8.99"/>
	<g>
		<path class="st27" d="M421.27,524.49v-18.57c0-1.48,1.09-2.65,2.39-2.65h5.51c1.33,0,2.39,1.21,2.39,2.65v18.57
			c0,1.48-1.09,2.65-2.39,2.65h-5.51C422.33,527.18,421.27,525.97,421.27,524.49z"/>
		<rect x="421.27" y="509.76" class="st29" width="10.31" height="10.94"/>
	</g>
	<g>
		<path class="st27" d="M453.8,524.49v-18.57c0-1.48,1.09-2.65,2.39-2.65h5.51c1.33,0,2.39,1.21,2.39,2.65v18.57
			c0,1.48-1.09,2.65-2.39,2.65h-5.51C454.86,527.18,453.8,525.97,453.8,524.49z"/>
		<rect x="453.8" y="509.76" class="st29" width="10.31" height="10.94"/>
	</g>
	<g>
		<path class="st27" d="M486.33,524.49v-18.57c0-1.48,1.09-2.65,2.39-2.65h5.51c1.33,0,2.39,1.21,2.39,2.65v18.57
			c0,1.48-1.09,2.65-2.39,2.65h-5.51C487.38,527.18,486.33,525.97,486.33,524.49z"/>
		<rect x="486.32" y="509.76" class="st29" width="10.31" height="10.94"/>
	</g>
	<g>
		<path class="st27" d="M518.86,524.49v-18.57c0-1.48,1.09-2.65,2.39-2.65h5.51c1.33,0,2.39,1.21,2.39,2.65v18.57
			c0,1.48-1.09,2.65-2.39,2.65h-5.51C519.91,527.18,518.86,525.97,518.86,524.49z"/>
		<rect x="518.85" y="509.76" class="st29" width="10.31" height="10.94"/>
	</g>
	<g>
		<path class="st27" d="M551.39,524.49v-18.57c0-1.48,1.09-2.65,2.39-2.65h5.51c1.33,0,2.39,1.21,2.39,2.65v18.57
			c0,1.48-1.09,2.65-2.39,2.65h-5.51C552.44,527.18,551.39,525.97,551.39,524.49z"/>
		<rect x="551.38" y="509.76" class="st29" width="10.31" height="10.94"/>
	</g>
	<g>
		<path class="st27" d="M1081.77,486.93v-19.9c0-2.44,1.41-4.37,3.08-4.37h5.76c1.72,0,3.08,1.99,3.08,4.37v19.9
			c0,2.44-1.41,4.37-3.08,4.37h-5.76C1083.17,491.36,1081.77,489.37,1081.77,486.93z"/>
		<rect x="1081.78" y="470.42" class="st28" width="11.97" height="13.16"/>
	</g>
	<g>
		<path class="st27" d="M1080.21,524.49v-18.57c0-1.48,1.09-2.65,2.39-2.65h5.51c1.33,0,2.39,1.21,2.39,2.65v18.57
			c0,1.48-1.09,2.65-2.39,2.65h-5.51C1081.26,527.18,1080.21,525.97,1080.21,524.49z"/>
		<rect x="1080.2" y="509.76" class="st29" width="10.31" height="10.94"/>
	</g>
	<g>
		<path class="st27" d="M1167.4,486.93v-19.9c0-2.44,1.41-4.37,3.08-4.37h5.76c1.72,0,3.08,1.99,3.08,4.37v19.9
			c0,2.44-1.41,4.37-3.08,4.37h-5.76C1168.81,491.36,1167.4,489.37,1167.4,486.93z"/>
		<rect x="1167.42" y="470.42" class="st28" width="11.97" height="13.16"/>
	</g>
	<g>
		<path class="st27" d="M1165.85,524.49v-18.57c0-1.48,1.09-2.65,2.39-2.65h5.51c1.33,0,2.39,1.21,2.39,2.65v18.57
			c0,1.48-1.09,2.65-2.39,2.65h-5.51C1166.9,527.18,1165.85,525.97,1165.85,524.49z"/>
		<rect x="1165.84" y="509.76" class="st29" width="10.31" height="10.94"/>
	</g>
</g>
<g id="Layer_11">
	<rect x="1946.93" y="362.08" class="st30" width="310.29" height="974.36"/>
	<rect x="1946.76" y="374.55" class="st31" width="10.6" height="63.78"/>
	<rect x="2246.63" y="374.55" class="st31" width="10.6" height="63.78"/>
	<rect x="1831.95" y="375.55" class="st32" width="114.54" height="63.78"/>
	<rect x="1831.95" y="455.37" class="st32" width="114.54" height="63.78"/>
	<rect x="1831.95" y="535.57" class="st32" width="114.54" height="63.78"/>
	<rect x="1883.71" y="613.34" class="st33" width="63.78" height="63.78"/>
	<rect x="1883.71" y="695.42" class="st33" width="63.78" height="63.78"/>
	<rect x="1883.71" y="774.53" class="st34" width="63.78" height="63.78"/>
	<rect x="1883.71" y="849.35" class="st34" width="63.78" height="63.78"/>
	<rect x="1883.71" y="1086.1" class="st34" width="63.78" height="63.78"/>
	<rect x="1883.71" y="1252.89" class="st35" width="63.78" height="63.78"/>
	<rect x="1799.77" y="928.03" class="st36" width="147.72" height="63.78"/>
	<rect x="1799.77" y="1012.42" class="st36" width="147.72" height="63.78"/>
	<rect x="1694.88" y="1167.5" class="st36" width="252.61" height="63.78"/>
	<rect x="2257.22" y="374.55" class="st32" width="114.54" height="63.78"/>
	<rect x="2257.22" y="455.37" class="st32" width="114.54" height="63.78"/>
	<rect x="2257.22" y="537.09" class="st37" width="144.33" height="63.78"/>
	<rect x="2257.22" y="773.98" class="st37" width="288.66" height="63.78"/>
	<rect x="2257.22" y="854.88" class="st36" width="197.11" height="63.78"/>
	<rect x="2256.72" y="936.28" class="st36" width="315.5" height="63.78"/>
	<rect x="2256.72" y="1013.13" class="st36" width="315.5" height="63.78"/>
	<rect x="2256.72" y="1091.98" class="st34" width="75.61" height="63.78"/>
	<rect x="2256.72" y="1171.98" class="st34" width="75.61" height="63.78"/>
	<rect x="2256.72" y="1249.24" class="st35" width="75.61" height="63.78"/>
	<rect x="2257.22" y="616.04" class="st33" width="114.54" height="63.78"/>
	<rect x="2257.22" y="691.6" class="st33" width="114.54" height="63.78"/>
	<rect x="1957.36" y="374.55" class="st32" width="68.61" height="63.78"/>
	<rect x="1946.76" y="455.31" class="st31" width="10.6" height="63.78"/>
	<rect x="1957.36" y="455.31" class="st32" width="68.61" height="63.78"/>
	<rect x="1946.76" y="535.57" class="st31" width="10.6" height="63.78"/>
	<rect x="1957.36" y="535.57" class="st32" width="68.61" height="63.78"/>
	<rect x="1946.76" y="613.34" class="st31" width="10.6" height="63.78"/>
	<rect x="1957.36" y="613.34" class="st33" width="68.61" height="63.78"/>
	<rect x="1946.76" y="695.42" class="st31" width="10.6" height="63.78"/>
	<rect x="1957.36" y="695.42" class="st33" width="68.61" height="63.78"/>
	<rect x="1946.76" y="774.38" class="st31" width="10.6" height="63.78"/>
	<rect x="1957.36" y="774.38" class="st34" width="68.61" height="63.78"/>
	<rect x="1946.76" y="849.35" class="st31" width="10.6" height="63.78"/>
	<rect x="1957.36" y="849.35" class="st34" width="68.61" height="63.78"/>
	<rect x="1946.76" y="928.03" class="st31" width="10.6" height="63.78"/>
	<rect x="1957.36" y="928.03" class="st36" width="68.61" height="63.78"/>
	<rect x="1946.76" y="1012.94" class="st31" width="10.6" height="63.78"/>
	<rect x="1957.36" y="1012.94" class="st36" width="68.61" height="63.78"/>
	<rect x="1946.76" y="1086.1" class="st31" width="10.6" height="63.78"/>
	<rect x="1957.36" y="1086.1" class="st34" width="68.61" height="63.78"/>
	<rect x="1946.76" y="1167.5" class="st31" width="10.6" height="63.78"/>
	<rect x="1957.36" y="1167.5" class="st36" width="68.61" height="63.78"/>
	<rect x="1946.76" y="1252.31" class="st31" width="10.6" height="63.78"/>
	<rect x="1957.36" y="1252.31" class="st35" width="68.61" height="63.78"/>
	<rect x="2177.81" y="374.55" class="st32" width="68.61" height="63.78"/>
	<rect x="2246.63" y="455.31" class="st31" width="10.6" height="63.78"/>
	<rect x="2177.81" y="455.31" class="st32" width="68.61" height="63.78"/>
	<rect x="2246.63" y="537.09" class="st31" width="10.6" height="63.78"/>
	<rect x="2177.81" y="537.09" class="st37" width="68.61" height="63.78"/>
	<rect x="2246.63" y="616.04" class="st31" width="10.6" height="63.78"/>
	<rect x="2177.81" y="616.04" class="st33" width="68.61" height="63.78"/>
	<rect x="2246.63" y="691.6" class="st31" width="10.6" height="63.78"/>
	<rect x="2177.81" y="691.6" class="st33" width="68.61" height="63.78"/>
	<rect x="2246.63" y="773.53" class="st31" width="10.6" height="63.78"/>
	<rect x="2177.81" y="773.53" class="st37" width="68.61" height="63.78"/>
	<rect x="2246.63" y="854.67" class="st31" width="10.6" height="63.78"/>
	<rect x="2177.81" y="854.67" class="st36" width="68.61" height="63.78"/>
	<rect x="2246.63" y="935.78" class="st31" width="10.6" height="63.78"/>
	<rect x="2177.81" y="935.78" class="st36" width="68.61" height="63.78"/>
	<rect x="2246.63" y="1012.94" class="st31" width="10.6" height="63.78"/>
	<rect x="2177.81" y="1012.94" class="st36" width="68.61" height="63.78"/>
	<rect x="2246.63" y="1092.72" class="st31" width="10.6" height="63.78"/>
	<rect x="2177.81" y="1092.72" class="st34" width="68.61" height="63.78"/>
	<rect x="2246.63" y="1171.44" class="st31" width="10.6" height="63.78"/>
	<rect x="2177.81" y="1171.44" class="st34" width="68.61" height="63.78"/>
	<rect x="2246.63" y="1249.24" class="st31" width="10.6" height="63.78"/>
	<rect x="2177.81" y="1249.24" class="st35" width="68.61" height="63.78"/>
</g>
<g id="Layer_10">
	<g>
		
			<rect x="1614.62" y="772.91" transform="matrix(6.123234e-17 -1 1 6.123234e-17 1252.5421 2951.3115)" class="st15" width="974.62" height="152.94"/>
		<g>
			
				<rect x="2030.56" y="1252.87" transform="matrix(6.123234e-17 -1 1 6.123234e-17 780.0771 3342.3442)" class="st16" width="61.29" height="56.53"/>
			<path class="st17" d="M2032.95,1311.78v-61.29c5.9,5.9,11.8,11.8,17.71,17.71c0,10.67,0,21.34,0,32.01
				C2044.75,1304.06,2038.85,1307.92,2032.95,1311.78z"/>
			<path class="st17" d="M2089.47,1250.49v61.29c-2.27-3.86-4.54-7.72-6.81-11.58c0-10.67,0-21.34,0-32.01
				C2084.93,1262.29,2087.2,1256.39,2089.47,1250.49z"/>
			
				<rect x="2050.65" y="1268.19" transform="matrix(6.123234e-17 -1 1 6.123234e-17 782.4608 3350.8574)" width="32.01" height="32.01"/>
		</g>
		<g>
			
				<rect x="2030.56" y="1173.07" transform="matrix(6.123234e-17 -1 1 6.123234e-17 859.8731 3262.5481)" class="st16" width="61.29" height="56.53"/>
			<path class="st17" d="M2032.95,1231.98v-61.29c5.9,5.9,11.8,11.8,17.71,17.71c0,10.67,0,21.34,0,32.01
				C2044.75,1224.27,2038.85,1228.13,2032.95,1231.98z"/>
			<path class="st17" d="M2089.47,1170.69v61.29c-2.27-3.86-4.54-7.72-6.81-11.58c0-10.67,0-21.34,0-32.01
				C2084.93,1182.5,2087.2,1176.59,2089.47,1170.69z"/>
			
				<rect x="2050.65" y="1188.4" transform="matrix(6.123234e-17 -1 1 6.123234e-17 862.2568 3271.0613)" width="32.01" height="32.01"/>
		</g>
		<g>
			
				<rect x="2030.56" y="1093.28" transform="matrix(6.123234e-17 -1 1 6.123234e-17 939.6691 3182.7522)" class="st16" width="61.29" height="56.53"/>
			<path class="st17" d="M2032.95,1152.19v-61.29c5.9,5.9,11.8,11.8,17.71,17.71c0,10.67,0,21.34,0,32.01
				C2044.75,1144.47,2038.85,1148.33,2032.95,1152.19z"/>
			<path class="st17" d="M2089.47,1090.89v61.29c-2.27-3.86-4.54-7.72-6.81-11.58c0-10.67,0-21.34,0-32.01
				C2084.93,1102.7,2087.2,1096.8,2089.47,1090.89z"/>
			
				<rect x="2050.65" y="1108.6" transform="matrix(6.123234e-17 -1 1 6.123234e-17 942.0528 3191.2654)" width="32.01" height="32.01"/>
		</g>
		<g>
			
				<rect x="2030.56" y="1013.48" transform="matrix(6.123234e-17 -1 1 6.123234e-17 1019.4652 3102.9561)" class="st16" width="61.29" height="56.53"/>
			<path class="st17" d="M2032.95,1072.39v-61.29c5.9,5.9,11.8,11.8,17.71,17.71c0,10.67,0,21.34,0,32.01
				C2044.75,1064.67,2038.85,1068.53,2032.95,1072.39z"/>
			<path class="st17" d="M2089.47,1011.1v61.29c-2.27-3.86-4.54-7.72-6.81-11.58c0-10.67,0-21.34,0-32.01
				C2084.93,1022.9,2087.2,1017,2089.47,1011.1z"/>
			
				<rect x="2050.65" y="1028.81" transform="matrix(6.123234e-17 -1 1 6.123234e-17 1021.8489 3111.4692)" width="32.01" height="32.01"/>
		</g>
		<g>
			
				<rect x="2030.56" y="933.69" transform="matrix(6.123234e-17 -1 1 6.123234e-17 1099.2612 3023.1602)" class="st16" width="61.29" height="56.53"/>
			<path class="st17" d="M2032.95,992.6V931.3c5.9,5.9,11.8,11.8,17.71,17.71c0,10.67,0,21.34,0,32.01
				C2044.75,984.88,2038.85,988.74,2032.95,992.6z"/>
			<path class="st17" d="M2089.47,931.3v61.29c-2.27-3.86-4.54-7.72-6.81-11.58c0-10.67,0-21.34,0-32.01
				C2084.93,943.11,2087.2,937.2,2089.47,931.3z"/>
			
				<rect x="2050.65" y="949.01" transform="matrix(6.123234e-17 -1 1 6.123234e-17 1101.6449 3031.6733)" width="32.01" height="32.01"/>
		</g>
		<g>
			
				<rect x="2030.56" y="853.89" transform="matrix(6.123234e-17 -1 1 6.123234e-17 1179.0573 2943.364)" class="st16" width="61.29" height="56.53"/>
			<path class="st17" d="M2032.95,912.8v-61.29c5.9,5.9,11.8,11.8,17.71,17.71c0,10.67,0,21.34,0,32.01
				C2044.75,905.08,2038.85,908.94,2032.95,912.8z"/>
			<path class="st17" d="M2089.47,851.51v61.29c-2.27-3.86-4.54-7.72-6.81-11.58c0-10.67,0-21.34,0-32.01
				C2084.93,863.31,2087.2,857.41,2089.47,851.51z"/>
			
				<rect x="2050.65" y="869.21" transform="matrix(6.123234e-17 -1 1 6.123234e-17 1181.4409 2951.8772)" width="32.01" height="32.01"/>
		</g>
		<g>
			
				<rect x="2030.56" y="774.09" transform="matrix(6.123234e-17 -1 1 6.123234e-17 1258.8533 2863.5681)" class="st16" width="61.29" height="56.53"/>
			<path class="st17" d="M2032.95,833v-61.29c5.9,5.9,11.8,11.8,17.71,17.71c0,10.67,0,21.34,0,32.01
				C2044.75,825.29,2038.85,829.15,2032.95,833z"/>
			<path class="st17" d="M2089.47,771.71V833c-2.27-3.86-4.54-7.72-6.81-11.58c0-10.67,0-21.34,0-32.01
				C2084.93,783.52,2087.2,777.61,2089.47,771.71z"/>
			
				<rect x="2050.65" y="789.42" transform="matrix(6.123234e-17 -1 1 6.123234e-17 1261.2369 2872.0811)" width="32.01" height="32.01"/>
		</g>
		<g>
			
				<rect x="2030.56" y="694.3" transform="matrix(6.123234e-17 -1 1 6.123234e-17 1338.6493 2783.772)" class="st16" width="61.29" height="56.53"/>
			<path class="st17" d="M2032.95,753.21v-61.29c5.9,5.9,11.8,11.8,17.71,17.71c0,10.67,0,21.34,0,32.01
				C2044.75,745.49,2038.85,749.35,2032.95,753.21z"/>
			<path class="st17" d="M2089.47,691.91v61.29c-2.27-3.86-4.54-7.72-6.81-11.58c0-10.67,0-21.34,0-32.01
				C2084.93,703.72,2087.2,697.82,2089.47,691.91z"/>
			
				<rect x="2050.65" y="709.62" transform="matrix(6.123234e-17 -1 1 6.123234e-17 1341.033 2792.2852)" width="32.01" height="32.01"/>
		</g>
		<g>
			
				<rect x="2030.56" y="614.5" transform="matrix(6.123234e-17 -1 1 6.123234e-17 1418.4453 2703.9761)" class="st16" width="61.29" height="56.53"/>
			<path class="st17" d="M2032.95,673.41v-61.29c5.9,5.9,11.8,11.8,17.71,17.71c0,10.67,0,21.34,0,32.01
				C2044.75,665.69,2038.85,669.55,2032.95,673.41z"/>
			<path class="st17" d="M2089.47,612.12v61.29c-2.27-3.86-4.54-7.72-6.81-11.58c0-10.67,0-21.34,0-32.01
				C2084.93,623.92,2087.2,618.02,2089.47,612.12z"/>
			
				<rect x="2050.65" y="629.83" transform="matrix(6.123234e-17 -1 1 6.123234e-17 1420.829 2712.489)" width="32.01" height="32.01"/>
		</g>
		<g>
			
				<rect x="2030.56" y="534.71" transform="matrix(6.123234e-17 -1 1 6.123234e-17 1498.2413 2624.1799)" class="st16" width="61.29" height="56.53"/>
			<path class="st17" d="M2032.95,593.62v-61.29c5.9,5.9,11.8,11.8,17.71,17.71c0,10.67,0,21.34,0,32.01
				C2044.75,585.9,2038.85,589.76,2032.95,593.62z"/>
			<path class="st17" d="M2089.47,532.32v61.29c-2.27-3.86-4.54-7.72-6.81-11.58c0-10.67,0-21.34,0-32.01
				C2084.93,544.13,2087.2,538.22,2089.47,532.32z"/>
			
				<rect x="2050.65" y="550.03" transform="matrix(6.123234e-17 -1 1 6.123234e-17 1500.625 2632.6931)" width="32.01" height="32.01"/>
		</g>
		<g>
			
				<rect x="2030.56" y="454.91" transform="matrix(6.123234e-17 -1 1 6.123234e-17 1578.0374 2544.384)" class="st16" width="61.29" height="56.53"/>
			<path class="st17" d="M2032.95,513.82v-61.29c5.9,5.9,11.8,11.8,17.71,17.71c0,10.67,0,21.34,0,32.01
				C2044.75,506.1,2038.85,509.96,2032.95,513.82z"/>
			<path class="st17" d="M2089.47,452.53v61.29c-2.27-3.86-4.54-7.72-6.81-11.58c0-10.67,0-21.34,0-32.01
				C2084.93,464.33,2087.2,458.43,2089.47,452.53z"/>
			
				<rect x="2050.65" y="470.23" transform="matrix(6.123234e-17 -1 1 6.123234e-17 1580.421 2552.897)" width="32.01" height="32.01"/>
		</g>
		<g>
			
				<rect x="2030.56" y="375.11" transform="matrix(6.123234e-17 -1 1 6.123234e-17 1657.8334 2464.5879)" class="st16" width="61.29" height="56.53"/>
			<path class="st17" d="M2032.95,434.02v-61.29c5.9,5.9,11.8,11.8,17.71,17.71c0,10.67,0,21.34,0,32.01
				C2044.75,426.31,2038.85,430.17,2032.95,434.02z"/>
			<path class="st17" d="M2089.47,372.73v61.29c-2.27-3.86-4.54-7.72-6.81-11.58c0-10.67,0-21.34,0-32.01
				C2084.93,384.53,2087.2,378.63,2089.47,372.73z"/>
			
				<rect x="2050.65" y="390.44" transform="matrix(6.123234e-17 -1 1 6.123234e-17 1660.217 2473.1011)" width="32.01" height="32.01"/>
		</g>
		<g>
			
				<rect x="2107.53" y="1252.87" transform="matrix(6.123234e-17 -1 1 6.123234e-17 857.0403 3419.3074)" class="st16" width="61.29" height="56.53"/>
			<path class="st17" d="M2109.91,1311.78v-61.29c5.9,5.9,11.8,11.8,17.71,17.71c0,10.67,0,21.34,0,32.01
				C2121.72,1304.06,2115.81,1307.92,2109.91,1311.78z"/>
			<path class="st17" d="M2166.44,1250.49v61.29c-2.27-3.86-4.54-7.72-6.81-11.58c0-10.67,0-21.34,0-32.01
				C2161.9,1262.29,2164.17,1256.39,2166.44,1250.49z"/>
			
				<rect x="2127.62" y="1268.19" transform="matrix(6.123234e-17 -1 1 6.123234e-17 859.424 3427.8206)" width="32.01" height="32.01"/>
		</g>
		<g>
			
				<rect x="2107.53" y="1173.07" transform="matrix(6.123234e-17 -1 1 6.123234e-17 936.8363 3339.5115)" class="st16" width="61.29" height="56.53"/>
			<path class="st17" d="M2109.91,1231.98v-61.29c5.9,5.9,11.8,11.8,17.71,17.71c0,10.67,0,21.34,0,32.01
				C2121.72,1224.27,2115.81,1228.13,2109.91,1231.98z"/>
			<path class="st17" d="M2166.44,1170.69v61.29c-2.27-3.86-4.54-7.72-6.81-11.58c0-10.67,0-21.34,0-32.01
				C2161.9,1182.5,2164.17,1176.59,2166.44,1170.69z"/>
			
				<rect x="2127.62" y="1188.4" transform="matrix(6.123234e-17 -1 1 6.123234e-17 939.22 3348.0244)" width="32.01" height="32.01"/>
		</g>
		<g>
			
				<rect x="2107.53" y="1093.28" transform="matrix(6.123234e-17 -1 1 6.123234e-17 1016.6323 3259.7153)" class="st16" width="61.29" height="56.53"/>
			<path class="st17" d="M2109.91,1152.19v-61.29c5.9,5.9,11.8,11.8,17.71,17.71c0,10.67,0,21.34,0,32.01
				C2121.72,1144.47,2115.81,1148.33,2109.91,1152.19z"/>
			<path class="st17" d="M2166.44,1090.89v61.29c-2.27-3.86-4.54-7.72-6.81-11.58c0-10.67,0-21.34,0-32.01
				C2161.9,1102.7,2164.17,1096.8,2166.44,1090.89z"/>
			
				<rect x="2127.62" y="1108.6" transform="matrix(6.123234e-17 -1 1 6.123234e-17 1019.016 3268.2285)" width="32.01" height="32.01"/>
		</g>
		<g>
			
				<rect x="2107.53" y="1013.48" transform="matrix(6.123234e-17 -1 1 6.123234e-17 1096.4283 3179.9194)" class="st16" width="61.29" height="56.53"/>
			<path class="st17" d="M2109.91,1072.39v-61.29c5.9,5.9,11.8,11.8,17.71,17.71c0,10.67,0,21.34,0,32.01
				C2121.72,1064.67,2115.81,1068.53,2109.91,1072.39z"/>
			<path class="st17" d="M2166.44,1011.1v61.29c-2.27-3.86-4.54-7.72-6.81-11.58c0-10.67,0-21.34,0-32.01
				C2161.9,1022.9,2164.17,1017,2166.44,1011.1z"/>
			
				<rect x="2127.62" y="1028.81" transform="matrix(6.123234e-17 -1 1 6.123234e-17 1098.812 3188.4324)" width="32.01" height="32.01"/>
		</g>
		<g>
			
				<rect x="2107.53" y="933.69" transform="matrix(6.123234e-17 -1 1 6.123234e-17 1176.2244 3100.1233)" class="st16" width="61.29" height="56.53"/>
			<path class="st17" d="M2109.91,992.6V931.3c5.9,5.9,11.8,11.8,17.71,17.71c0,10.67,0,21.34,0,32.01
				C2121.72,984.88,2115.81,988.74,2109.91,992.6z"/>
			<path class="st17" d="M2166.44,931.3v61.29c-2.27-3.86-4.54-7.72-6.81-11.58c0-10.67,0-21.34,0-32.01
				C2161.9,943.11,2164.17,937.2,2166.44,931.3z"/>
			
				<rect x="2127.62" y="949.01" transform="matrix(6.123234e-17 -1 1 6.123234e-17 1178.608 3108.6365)" width="32.01" height="32.01"/>
		</g>
		<g>
			
				<rect x="2107.53" y="853.89" transform="matrix(6.123234e-17 -1 1 6.123234e-17 1256.0204 3020.3274)" class="st16" width="61.29" height="56.53"/>
			<path class="st17" d="M2109.91,912.8v-61.29c5.9,5.9,11.8,11.8,17.71,17.71c0,10.67,0,21.34,0,32.01
				C2121.72,905.08,2115.81,908.94,2109.91,912.8z"/>
			<path class="st17" d="M2166.44,851.51v61.29c-2.27-3.86-4.54-7.72-6.81-11.58c0-10.67,0-21.34,0-32.01
				C2161.9,863.31,2164.17,857.41,2166.44,851.51z"/>
			
				<rect x="2127.62" y="869.21" transform="matrix(6.123234e-17 -1 1 6.123234e-17 1258.4041 3028.8403)" width="32.01" height="32.01"/>
		</g>
		<g>
			
				<rect x="2107.53" y="774.09" transform="matrix(6.123234e-17 -1 1 6.123234e-17 1335.8164 2940.5313)" class="st16" width="61.29" height="56.53"/>
			<path class="st17" d="M2109.91,833v-61.29c5.9,5.9,11.8,11.8,17.71,17.71c0,10.67,0,21.34,0,32.01
				C2121.72,825.29,2115.81,829.15,2109.91,833z"/>
			<path class="st17" d="M2166.44,771.71V833c-2.27-3.86-4.54-7.72-6.81-11.58c0-10.67,0-21.34,0-32.01
				C2161.9,783.52,2164.17,777.61,2166.44,771.71z"/>
			
				<rect x="2127.62" y="789.42" transform="matrix(6.123234e-17 -1 1 6.123234e-17 1338.2001 2949.0444)" width="32.01" height="32.01"/>
		</g>
		<g>
			
				<rect x="2107.53" y="694.3" transform="matrix(6.123234e-17 -1 1 6.123234e-17 1415.6124 2860.7354)" class="st16" width="61.29" height="56.53"/>
			<path class="st17" d="M2109.91,753.21v-61.29c5.9,5.9,11.8,11.8,17.71,17.71c0,10.67,0,21.34,0,32.01
				C2121.72,745.49,2115.81,749.35,2109.91,753.21z"/>
			<path class="st17" d="M2166.44,691.91v61.29c-2.27-3.86-4.54-7.72-6.81-11.58c0-10.67,0-21.34,0-32.01
				C2161.9,703.72,2164.17,697.82,2166.44,691.91z"/>
			
				<rect x="2127.62" y="709.62" transform="matrix(6.123234e-17 -1 1 6.123234e-17 1417.9961 2869.2483)" width="32.01" height="32.01"/>
		</g>
		<g>
			
				<rect x="2107.53" y="614.5" transform="matrix(6.123234e-17 -1 1 6.123234e-17 1495.4084 2780.9392)" class="st16" width="61.29" height="56.53"/>
			<path class="st17" d="M2109.91,673.41v-61.29c5.9,5.9,11.8,11.8,17.71,17.71c0,10.67,0,21.34,0,32.01
				C2121.72,665.69,2115.81,669.55,2109.91,673.41z"/>
			<path class="st17" d="M2166.44,612.12v61.29c-2.27-3.86-4.54-7.72-6.81-11.58c0-10.67,0-21.34,0-32.01
				C2161.9,623.92,2164.17,618.02,2166.44,612.12z"/>
			
				<rect x="2127.62" y="629.83" transform="matrix(6.123234e-17 -1 1 6.123234e-17 1497.7921 2789.4524)" width="32.01" height="32.01"/>
		</g>
		<g>
			
				<rect x="2107.53" y="534.71" transform="matrix(6.123234e-17 -1 1 6.123234e-17 1575.2045 2701.1431)" class="st16" width="61.29" height="56.53"/>
			<path class="st17" d="M2109.91,593.62v-61.29c5.9,5.9,11.8,11.8,17.71,17.71c0,10.67,0,21.34,0,32.01
				C2121.72,585.9,2115.81,589.76,2109.91,593.62z"/>
			<path class="st17" d="M2166.44,532.32v61.29c-2.27-3.86-4.54-7.72-6.81-11.58c0-10.67,0-21.34,0-32.01
				C2161.9,544.13,2164.17,538.22,2166.44,532.32z"/>
			
				<rect x="2127.62" y="550.03" transform="matrix(6.123234e-17 -1 1 6.123234e-17 1577.5881 2709.6563)" width="32.01" height="32.01"/>
		</g>
		<g>
			
				<rect x="2107.53" y="454.91" transform="matrix(6.123234e-17 -1 1 6.123234e-17 1655.0006 2621.3472)" class="st16" width="61.29" height="56.53"/>
			<path class="st17" d="M2109.91,513.82v-61.29c5.9,5.9,11.8,11.8,17.71,17.71c0,10.67,0,21.34,0,32.01
				C2121.72,506.1,2115.81,509.96,2109.91,513.82z"/>
			<path class="st17" d="M2166.44,452.53v61.29c-2.27-3.86-4.54-7.72-6.81-11.58c0-10.67,0-21.34,0-32.01
				C2161.9,464.33,2164.17,458.43,2166.44,452.53z"/>
			
				<rect x="2127.62" y="470.23" transform="matrix(6.123234e-17 -1 1 6.123234e-17 1657.3843 2629.8604)" width="32.01" height="32.01"/>
		</g>
		<g>
			
				<rect x="2107.53" y="375.11" transform="matrix(6.123234e-17 -1 1 6.123234e-17 1734.7966 2541.551)" class="st16" width="61.29" height="56.53"/>
			<path class="st17" d="M2109.91,434.02v-61.29c5.9,5.9,11.8,11.8,17.71,17.71c0,10.67,0,21.34,0,32.01
				C2121.72,426.31,2115.81,430.17,2109.91,434.02z"/>
			<path class="st17" d="M2166.44,372.73v61.29c-2.27-3.86-4.54-7.72-6.81-11.58c0-10.67,0-21.34,0-32.01
				C2161.9,384.53,2164.17,378.63,2166.44,372.73z"/>
			
				<rect x="2127.62" y="390.44" transform="matrix(6.123234e-17 -1 1 6.123234e-17 1737.1803 2550.0642)" width="32.01" height="32.01"/>
		</g>
	</g>
</g>
<g id="Layer_6">
	<text transform="matrix(1 0 0 1 1964.3512 423.0935)" class="st0 st11 st38">24</text>
	<text transform="matrix(1 0 0 1 2187.9968 422.4522)" class="st0 st11 st38">23</text>
	<text transform="matrix(1 0 0 1 2189.2136 503.3816)" class="st0 st11 st38">21</text>
	<text transform="matrix(1 0 0 1 2184.9968 583.8435)" class="st0 st11 st38">19</text>
	<text transform="matrix(1 0 0 1 2185.0017 821.8337)" class="st0 st11 st38">13</text>
	<text transform="matrix(1 0 0 1 2194.9314 1064.028)" class="st0 st11 st38">7</text>
	<text transform="matrix(1 0 0 1 2194.9314 1140.6108)" class="st0 st11 st38">5</text>
	<text transform="matrix(1 0 0 1 2194.9314 1217.9553)" class="st0 st11 st38">3</text>
	<text transform="matrix(1 0 0 1 2194.9314 1296.3088)" class="st0 st11 st38">1</text>
	<text transform="matrix(1 0 0 1 1964.3502 501.4471)" class="st0 st11 st38">22</text>
	<text transform="matrix(1 0 0 1 1964.3502 823.7828)" class="st0 st11 st38">14</text>
	<text transform="matrix(1 0 0 1 1964.3502 977.4583)" class="st0 st11 st38">10</text>
	<text transform="matrix(1 0 0 1 1977.899 1064.028)" class="st0 st11 st38">8</text>
	<text transform="matrix(1 0 0 1 1977.899 1216.634)" class="st0 st11 st38">4</text>
	<polygon class="st35" points="1911.99,1253.05 1847.85,1253.05 1815.75,1284.91 1847.85,1316.83 1911.99,1316.83 1944.09,1284.91 	
		"/>
	<text transform="matrix(1 0 0 1 1827.5631 1300.509)" class="st0 st11 st38">+5V</text>
	<polygon class="st35" points="2362.5,1249.24 2298.36,1249.24 2266.26,1281.1 2298.36,1313.02 2362.5,1313.02 2394.6,1281.1 	"/>
	<text transform="matrix(1 0 0 1 2278.074 1298.4417)" class="st0 st11 st38">+5V</text>
	<polygon class="st36" points="1831.84,1012.94 1767.69,1012.94 1735.59,1044.86 1767.69,1076.72 1831.84,1076.72 1863.94,1044.86 	
		"/>
	<polygon class="st36" points="1726.96,1167.5 1662.81,1167.5 1630.71,1199.41 1662.81,1231.27 1726.96,1231.27 1759.06,1199.41 	
		"/>
	<text transform="matrix(1 0 0 1 1964.3502 581.9109)" class="st0 st11 st38">20</text>
	<polygon class="st34" points="1907.73,849.38 1833.66,849.38 1796.56,881.24 1833.66,913.1 1907.73,913.1 1944.83,881.24 	"/>
	<text transform="matrix(1 0 0 1 1816.0924 896.8103)" class="st0 st11 st38">GND</text>
	<polygon class="st34" points="1907.73,774.41 1833.66,774.41 1796.56,806.27 1833.66,838.13 1907.73,838.13 1944.83,806.27 	"/>
	<text transform="matrix(1 0 0 1 1816.0924 821.8337)" class="st0 st11 st38">GND</text>
	<polygon class="st34" points="1907.73,1086.1 1833.66,1086.1 1796.56,1117.96 1833.66,1149.88 1907.73,1149.88 1944.83,1117.96 	
		"/>
	<text transform="matrix(1 0 0 1 1816.0924 1133.55)" class="st0 st11 st38">GND</text>
	<polygon class="st33" points="2389.24,691.6 2315.11,691.6 2278.07,723.52 2315.11,755.38 2389.24,755.38 2426.28,723.52 	"/>
	<text transform="matrix(1 0 0 1 2281.8992 739.074)" class="st0 st11 st38">CSN</text>
	<polygon class="st33" points="2414.18,616.04 2340.04,616.04 2303.01,647.96 2340.04,679.81 2414.18,679.81 2451.21,647.96 	"/>
	<text transform="matrix(1 0 0 1 2291.5662 663.5115)" class="st0 st11 st38">MISO</text>
	<polygon class="st37" points="2457.35,537.09 2383.21,537.09 2346.18,569.01 2383.21,600.87 2457.35,600.87 2494.38,569.01 	"/>
	<text transform="matrix(1 0 0 1 2291.5662 584.5671)" class="st0 st11 st38">RESET</text>
	<polygon class="st32" points="2428.7,455.31 2354.56,455.31 2317.53,487.23 2354.56,519.09 2428.7,519.09 2465.73,487.23 	"/>
	<text transform="matrix(1 0 0 1 2291.5662 502.783)" class="st0 st11 st38">GPIO1</text>
	<polygon class="st32" points="2428.7,374.31 2354.56,374.31 2317.53,406.23 2354.56,438.08 2428.7,438.08 2465.73,406.23 	"/>
	<text transform="matrix(1 0 0 1 2291.5662 424.782)" class="st0 st11 st38">GPIO3</text>
	<polygon class="st33" points="1898.45,613.34 1824.32,613.34 1787.28,645.26 1824.32,677.12 1898.45,677.12 1935.49,645.26 	"/>
	<text transform="matrix(1 0 0 1 1816.0846 662.7957)" class="st0 st11 st38">SCK</text>
	<polygon class="st33" points="1869.29,695.42 1795.15,695.42 1758.12,727.34 1795.15,759.2 1869.29,759.2 1906.33,727.34 	"/>
	<polygon class="st33" points="1909.89,695.42 1835.76,695.42 1798.72,727.34 1835.76,759.2 1909.89,759.2 1946.93,727.34 	"/>
	<text transform="matrix(1 0 0 1 1787.2819 744.8972)" class="st0 st11 st38">MOSI</text>
	<polygon class="st32" points="1852.66,455.37 1778.53,455.37 1741.49,487.29 1778.53,519.15 1852.66,519.15 1889.7,487.29 	"/>
	<text transform="matrix(1 0 0 1 1770.6588 505.8494)" class="st0 st11 st38">GPIO2</text>
	<polygon class="st32" points="1852.66,535.57 1778.53,535.57 1741.49,567.49 1778.53,599.35 1852.66,599.35 1889.7,567.49 	"/>
	<text transform="matrix(1 0 0 1 1770.6588 583.0466)" class="st0 st11 st38">GPIO0</text>
	<polygon class="st32" points="1854.6,375.37 1780.46,375.37 1743.43,407.29 1780.46,439.15 1854.6,439.15 1891.63,407.29 	"/>
	<text transform="matrix(1 0 0 1 1772.5924 422.8484)" class="st0 st11 st38">GPIO4</text>
	<polygon class="st34" points="2373.57,1171.98 2299.44,1171.98 2262.4,1203.9 2299.44,1235.76 2373.57,1235.76 2410.61,1203.9 	"/>
	<text transform="matrix(1 0 0 1 2281.8992 1218.9192)" class="st0 st11 st38">GND</text>
	<polygon class="st34" points="2373.57,1091.98 2299.44,1091.98 2262.4,1123.9 2299.44,1155.76 2373.57,1155.76 2410.61,1123.9 	"/>
	<text transform="matrix(1 0 0 1 2281.8992 1139.4524)" class="st0 st11 st38">GND</text>
	<g>
		<text transform="matrix(1 0 0 1 2184.9968 664.7957)" class="st0 st11 st38">17</text>
	</g>
	<g>
		<text transform="matrix(1 0 0 1 2184.9968 741.864)" class="st0 st11 st38">15</text>
	</g>
	<text transform="matrix(1 0 0 1 1964.3502 663.5115)" class="st0 st11 st38">18</text>
	<text transform="matrix(1 0 0 1 1964.3502 744.8972)" class="st0 st11 st38">16</text>
	<text transform="matrix(1 0 0 1 1964.3502 896.8103)" class="st0 st11 st38">12</text>
	<text transform="matrix(1 0 0 1 1977.9 1134.6702)" class="st0 st11 st38">6</text>
	<text transform="matrix(1 0 0 1 1977.899 1294.9866)" class="st0 st11 st38">2</text>
	<text transform="matrix(1 0 0 1 1764.9615 1060.4084)" class="st0 st11 st38">PA_G8</text>
	<polygon class="st36" points="1822.82,928.03 1758.67,928.03 1726.57,959.95 1758.67,991.8 1822.82,991.8 1854.92,959.95 	"/>
	<text transform="matrix(1 0 0 1 1748.2047 975.4944)" class="st0 st11 st38">PA_G16</text>
	<text transform="matrix(1 0 0 1 2185.0017 904.0782)" class="st0 st11 st38">11</text>
	<text transform="matrix(1 0 0 1 2194.9314 985.4485)" class="st0 st11 st38">9</text>
	<polygon class="st36" points="2586.09,1013.55 2527.67,1013.55 2498.49,1045.4 2527.67,1077.32 2586.09,1077.32 2615.27,1045.4 	
		"/>
	<text transform="matrix(1 0 0 1 2290.1375 1059.9036)" class="st0 st11 st38">RADIO_EN_A</text>
	<polygon class="st36" points="2601.43,936.09 2543.01,936.09 2513.83,967.95 2543.01,999.87 2601.43,999.87 2630.61,967.95 	"/>
	<text transform="matrix(1 0 0 1 2290.1375 982.4485)" class="st0 st11 st38">RADIO_EN_B</text>
	<polygon class="st37" points="2575.12,773.79 2516.7,773.79 2487.46,805.65 2516.7,837.57 2575.12,837.57 2604.3,805.65 	"/>
	<text transform="matrix(1 0 0 1 2290.1375 820.4685)" class="st0 st11 st38">RADIO_RST</text>
	<polygon class="st36" points="2501.99,854.86 2443.57,854.86 2414.33,886.72 2443.57,918.64 2501.99,918.64 2531.16,886.72 	"/>
	<text transform="matrix(1 0 0 1 2290.1375 901.031)" class="st0 st11 st38">PA_EN_A</text>
	<text transform="matrix(1 0 0 1 1658.149 1215.1838)" class="st0 st11 st38">LNA_EN_A</text>
</g>
<g id="Layer_7">
	<text transform="matrix(1 0 0 1 1290.6459 303.7649)" class="st39 st40 st41">PINOUT</text>
	<text transform="matrix(1 0 0 1 939.5843 218.7864)" class="st39 st40 st42">RAK</text>
	<text transform="matrix(1 0 0 1 1268.7479 218.7864)" class="st39 st40 st42">Gateway Module</text>
	<text transform="matrix(1 0 0 1 1108.1698 218.7864)" class="st39 st11 st42">831</text>
	<g>
		<g>
			<g>
				<g>
					<path class="st43" d="M141.65,72.08c0.37,0.7,0.79,1.89,0.85,3.69c0.06,1.56,0.15,6.29,0.18,7.9c1.28-0.06,3.69-0.21,5.22-0.21
						c1.4,0,5.68-0.09,12.36-0.24h0.43c1.77-0.03,5.95-0.7,6.5-5.89c0.49-4.58-2.11-5.68-2.2-5.74c-0.95-0.64-5.07-1.74-9.8-1.74
						c-0.52,0-1.07,0-1.62,0.03C149.1,70.15,143.76,71.5,141.65,72.08z"/>
				</g>
			</g>
			<g>
				<g>
					<path class="st43" d="M134.02,67.56c1.04,0.03,2.11,0.24,3.17,0.7c1.89,0.79,2.87,1.59,3.3,2.01
						c1.46-0.46,6.81-2.01,12.51-2.44c0.79-0.06,1.62-0.09,2.44-0.09c4.46,0,7.66,0.85,8.79,1.22c0.37-0.27,0.98-0.79,1.53-1.34
						c0.89-0.95,1.4-1.98,1.71-3.39c0.27-1.28,0.43-3.02-0.73-5.25c-0.79-1.53-2.84-2.32-6.07-2.32c-0.43,0-0.89-0.03-1.37-0.03
						c-0.61-0.03-1.31-0.06-2.08-0.06c-2.2,0-5.71,0.21-10.65,1.98C141.13,60.51,136.09,65.36,134.02,67.56z"/>
				</g>
			</g>
			<g>
				<g>
					<path class="st43" d="M119.61,67.38c1.31,0,3.11,0.12,4.46,0.76c1.34,0.61,2.5,1.77,3.2,2.56c0.27-0.4,0.7-0.98,1.22-1.43
						c0.82-0.76,1.92-1.19,2.35-1.34c0.43-0.49,2.75-3.05,5.1-5.22c3.51-3.2,7.84-5.62,12.88-7.23c2.5-0.79,5.59-1.19,9.22-1.19
						c2.35,0,4.24,0.18,4.85,0.24c0.7-0.49,3.69-2.84,3.63-6.07c-0.06-4.91-1.95-6.13-10.07-6.53c-8.52-0.43-17.92,2.99-25.64,9.19
						c-6.5,5.22-10.22,13.67-11.26,16.3C119.55,67.38,119.58,67.38,119.61,67.38z"/>
				</g>
			</g>
			<g>
				<g>
					<path class="st43" d="M153.52,85.47c0.06,1.22,0.21,3.66,0.21,5.22c0,1.83,0.12,8.09,0.21,11.44l0.03,1.34
						c0.03,1.77,0.7,5.95,5.89,6.5c0.37,0.03,0.73,0.06,1.07,0.06c3.66,0,4.61-2.17,4.64-2.26c0.61-0.92,1.98-5.68,1.71-11.41
						c-0.24-4.49-1.59-9.86-2.17-11.96c-0.7,0.37-1.89,0.79-3.69,0.85C160.69,85.29,158.71,85.35,153.52,85.47z"/>
				</g>
			</g>
			<g>
				<g>
					<path class="st43" d="M168.23,107.02c0.24,0.34,0.76,0.98,1.34,1.53c0.95,0.89,1.98,1.4,3.39,1.71
						c0.61,0.12,1.19,0.18,1.74,0.18c1.16,0,2.32-0.31,3.48-0.92c1.53-0.82,2.32-2.84,2.32-6.07c0-0.37,0-0.79,0.03-1.25v-0.15
						c0.09-2.66,0.27-6.62-1.92-12.73c-1.95-5.4-6.78-10.44-8.97-12.54c-0.03,0.85-0.18,1.95-0.7,3.17
						c-0.76,1.86-1.53,2.81-2.01,3.3c0.46,1.5,2.01,6.84,2.44,12.51C169.76,101.5,168.6,105.83,168.23,107.02z"/>
				</g>
			</g>
			<g>
				<g>
					<path class="st43" d="M182.67,105.65c0.58,0.82,2.84,3.63,6.01,3.63c5.01-0.06,6.23-1.95,6.62-10.07
						c0.43-8.52-2.93-17.85-9.19-25.64c-5.22-6.47-13.67-10.22-16.3-11.26c0,1.28-0.12,3.14-0.76,4.52
						c-0.64,1.34-1.83,2.56-2.56,3.2c0.43,0.31,0.98,0.7,1.43,1.22c0.76,0.79,1.19,1.92,1.34,2.35c0.64,0.58,3.11,2.81,5.22,5.1
						c3.17,3.51,5.62,7.84,7.23,12.88C183.49,97.1,182.82,104.31,182.67,105.65z"/>
				</g>
			</g>
			<g>
				<g>
					<path class="st43" d="M151.78,96.37c-1.28,0.06-3.69,0.21-5.22,0.21c-1.95,0-8.82,0.15-12.15,0.21h-0.67
						c-1.77,0.03-5.95,0.7-6.5,5.89c-0.49,4.61,2.17,5.74,2.2,5.74c1.04,0.7,5.95,1.98,11.41,1.71c4.49-0.24,9.86-1.59,11.96-2.17
						c-0.37-0.7-0.79-1.92-0.85-3.69c-0.06-1.4-0.15-5.55-0.18-7.57L151.78,96.37z"/>
				</g>
			</g>
			<g>
				<g>
					<path class="st43" d="M130.27,111.08c-0.34,0.24-0.98,0.76-1.53,1.34c-0.89,0.95-1.4,1.98-1.71,3.39
						c-0.27,1.28-0.43,3.02,0.73,5.22c0.82,1.53,2.84,2.32,6.07,2.32c0.4,0,0.85,0.03,1.37,0.03c0.64,0.03,1.31,0.06,2.08,0.06
						c2.2,0,5.71-0.21,10.65-1.98c5.4-1.95,10.44-6.78,12.54-8.97c-1.04-0.03-2.11-0.24-3.2-0.7c-1.86-0.76-2.81-1.53-3.3-2.01
						c-1.5,0.46-6.81,2.01-12.51,2.44c-0.82,0.06-1.65,0.09-2.44,0.09C134.54,112.3,131.21,111.39,130.27,111.08z"/>
				</g>
			</g>
			<g>
				<g>
					<path class="st43" d="M131.64,125.55c-0.7,0.49-3.66,2.84-3.63,6.07c0.06,4.91,1.95,6.13,10.07,6.53
						c8.52,0.4,17.92-2.99,25.64-9.19c6.5-5.22,10.22-13.67,11.26-16.3c-0.03,0-0.06,0-0.06,0c-1.31,0-3.14-0.12-4.46-0.76
						c-1.37-0.64-2.56-1.83-3.2-2.56c-0.31,0.46-0.73,0.98-1.22,1.43c-0.79,0.76-1.92,1.19-2.35,1.34c-0.7,0.79-2.9,3.2-5.13,5.22
						c-3.51,3.17-7.84,5.62-12.88,7.23c-2.5,0.79-5.59,1.19-9.22,1.19C134.11,125.79,132.22,125.61,131.64,125.55z"/>
				</g>
			</g>
			<g>
				<g>
					<path class="st43" d="M133.5,70.09c-3.66,0-4.61,2.17-4.64,2.26c-0.61,0.92-1.98,5.68-1.71,11.41
						c0.24,4.52,1.59,9.86,2.17,11.96c0.7-0.37,1.92-0.79,3.69-0.85c0.73-0.03,2.69-0.09,7.9-0.18c-0.06-1.01-0.21-3.6-0.21-5.22
						c0-1.4-0.09-5.68-0.24-12.39v-0.43c-0.03-1.77-0.7-5.95-5.89-6.5C134.23,70.09,133.87,70.09,133.5,70.09z"/>
				</g>
			</g>
			<g>
				<g>
					<path class="st43" d="M119.74,69.7c-1.16,0-2.32,0.31-3.48,0.92c-1.53,0.82-2.32,2.87-2.32,6.07c0,0.43-0.03,0.89-0.03,1.37
						c-0.09,2.62-0.27,6.59,1.92,12.73c1.95,5.4,6.78,10.44,8.97,12.54c0.03-0.85,0.18-1.95,0.7-3.17c0.76-1.86,1.53-2.84,2.01-3.3
						c-0.46-1.46-2.01-6.78-2.44-12.51c-0.4-5.74,0.76-10.07,1.13-11.23c-0.24-0.34-0.76-0.98-1.34-1.53
						c-0.95-0.89-1.98-1.4-3.39-1.71C120.84,69.76,120.29,69.7,119.74,69.7z"/>
				</g>
			</g>
			<g>
				<g>
					<path class="st43" d="M105.67,70.86c-4.91,0.06-6.13,1.95-6.53,10.07c-0.43,8.52,2.93,17.85,9.19,25.64
						c5.22,6.5,13.67,10.22,16.3,11.26c0-1.16,0.09-3.11,0.76-4.52c0.64-1.37,1.83-2.56,2.56-3.2c-0.46-0.31-1.01-0.73-1.43-1.22
						c-0.76-0.79-1.19-1.92-1.34-2.35c-0.79-0.7-3.2-2.9-5.22-5.1c-3.2-3.51-5.62-7.84-7.23-12.88c-1.77-5.52-1.1-12.73-0.95-14.04
						c-0.58-0.82-2.84-3.63-6.01-3.63h-0.09V70.86z"/>
				</g>
			</g>
		</g>
		<g>
			<path class="st43" d="M259.3,56.39c3.02,0,5.74,0.49,8.15,1.46c2.41,0.98,4.49,2.32,6.23,4c1.74,1.71,3.05,3.66,3.97,5.89
				c0.92,2.23,1.37,4.64,1.37,7.2c0,3.97-0.82,7.39-2.5,10.25c-1.68,2.9-4.39,5.1-8.15,6.59v0.18c1.83,0.49,3.33,1.28,4.52,2.32
				c1.19,1.04,2.17,2.26,2.93,3.66c0.76,1.4,1.31,2.96,1.65,4.67c0.34,1.71,0.58,3.39,0.7,5.1c0.06,1.07,0.12,2.32,0.18,3.75
				c0.06,1.43,0.18,2.93,0.34,4.43c0.15,1.5,0.4,2.93,0.76,4.27c0.34,1.34,0.85,2.5,1.56,3.45h-14.8c-0.82-2.14-1.31-4.67-1.5-7.63
				c-0.18-2.96-0.46-5.77-0.85-8.48c-0.49-3.51-1.56-6.1-3.2-7.72c-1.65-1.62-4.3-2.44-8-2.44h-14.8v26.28h-14.8V56.39H259.3z
				 M254.02,86.82c3.39,0,5.92-0.76,7.63-2.26s2.53-3.97,2.53-7.36c0-3.27-0.85-5.65-2.53-7.11c-1.71-1.46-4.24-2.2-7.63-2.2h-16.21
				v18.92H254.02z"/>
			<path class="st43" d="M322.94,56.39l25.15,67.27h-15.35l-5.1-14.99h-25.15l-5.28,14.99h-14.89l25.42-67.27H322.94z M323.76,97.65
				l-8.48-24.69h-0.18l-8.76,24.69H323.76z"/>
			<path class="st43" d="M366.03,56.39v27.9l26.28-27.9h18.46L384.5,82.94l28.81,40.68h-18.56l-20.27-30.25l-8.48,8.58v21.67h-14.8
				V56.39H366.03z"/>
		</g>
	</g>
	<g>
		<rect x="433.33" y="55.57" class="st44" width="120.92" height="67.57"/>
		<path class="st0" d="M479.99,114.9l-8.18-32.93h-0.12l-8.06,32.93h-10.77l-12.82-48.37h10.65l7.66,32.93h0.12l8.39-32.93h9.95
			l8.27,33.33h0.12l7.94-33.33h10.44l-13,48.37L479.99,114.9L479.99,114.9z"/>
		<rect x="504.35" y="69.63" class="st45" width="9.61" height="7.94"/>
		<rect x="504.35" y="79.89" class="st0" width="9.61" height="35.01"/>
		<path class="st0" d="M525.62,106.2c0.43,0.73,0.98,1.34,1.65,1.83c0.67,0.46,1.46,0.82,2.35,1.04c0.89,0.21,1.8,0.34,2.75,0.34
			c0.67,0,1.37-0.09,2.14-0.24c0.73-0.15,1.43-0.4,2.04-0.73c0.61-0.34,1.13-0.79,1.53-1.34c0.4-0.58,0.61-1.28,0.61-2.14
			c0-1.43-0.95-2.53-2.87-3.24c-1.92-0.73-4.61-1.43-8.03-2.17c-1.4-0.31-2.78-0.7-4.09-1.13c-1.34-0.43-2.53-1.01-3.57-1.68
			c-1.04-0.67-1.86-1.59-2.5-2.66c-0.64-1.07-0.95-2.35-0.95-3.91c0-2.26,0.43-4.12,1.31-5.55c0.89-1.43,2.04-2.59,3.48-3.42
			c1.43-0.82,3.08-1.43,4.88-1.77c1.8-0.34,3.66-0.52,5.55-0.52s3.72,0.18,5.52,0.55c1.77,0.37,3.39,0.98,4.76,1.83
			c1.4,0.85,2.56,1.98,3.48,3.42s1.5,3.2,1.65,5.4h-9.16c-0.12-1.86-0.82-3.11-2.11-3.75c-1.25-0.64-2.75-0.98-4.46-0.98
			c-0.55,0-1.13,0.03-1.77,0.09c-0.64,0.06-1.22,0.21-1.74,0.43c-0.52,0.21-0.95,0.55-1.31,0.98c-0.37,0.43-0.55,1.01-0.55,1.74
			c0,0.85,0.31,1.56,0.95,2.11c0.64,0.55,1.46,0.98,2.47,1.31c1.01,0.34,2.17,0.64,3.48,0.92c1.31,0.27,2.66,0.58,4,0.89
			c1.4,0.31,2.78,0.7,4.09,1.16c1.34,0.46,2.53,1.04,3.57,1.8c1.04,0.73,1.86,1.68,2.5,2.78c0.64,1.1,0.95,2.47,0.95,4.09
			c0,2.29-0.46,4.24-1.37,5.8c-0.92,1.56-2.14,2.81-3.63,3.75c-1.5,0.95-3.2,1.62-5.13,1.98c-1.92,0.4-3.88,0.58-5.86,0.58
			c-2.04,0-4.03-0.21-5.95-0.61c-1.95-0.4-3.66-1.07-5.19-2.04c-1.53-0.95-2.75-2.2-3.72-3.75c-0.98-1.56-1.5-3.51-1.59-5.86h9.16
			C524.98,104.55,525.19,105.46,525.62,106.2z"/>
		<g>
			<rect x="554.28" y="55.87" class="st0" width="139.75" height="66.66"/>
			<path class="st44" d="M693.57,56.33v65.77H554.73V56.33H693.57 M694.48,55.41H553.82v67.57h140.67V55.41L694.48,55.41z"/>
		</g>
		<g>
			<path class="st46" d="M577.01,68.44v36.17h21.49v8.21h-31.16V68.44H577.01z"/>
			<path class="st46" d="M602.01,75.71v-7.26h8.76v7.26H602.01z M610.77,80.68v32.14h-8.76V80.68H610.77z"/>
			<path class="st46" d="M624.78,80.68v4.49h0.18c1.1-1.86,2.56-3.24,4.33-4.06s3.57-1.28,5.43-1.28c2.35,0,4.27,0.34,5.77,0.98
				c1.5,0.64,2.69,1.53,3.54,2.69c0.85,1.13,1.46,2.53,1.83,4.15c0.34,1.65,0.52,3.45,0.52,5.43v19.78h-8.76V94.69
				c0-2.66-0.4-4.64-1.22-5.92c-0.82-1.31-2.29-1.95-4.39-1.95c-2.38,0-4.12,0.7-5.19,2.14s-1.62,3.78-1.62,7.05v16.85h-8.76V80.68
				H624.78z"/>
			<path class="st46" d="M661.37,68.44v23.81l11.05-11.57h10.38l-12.02,11.81l13.4,20.33h-10.62l-8.76-14.34l-3.39,3.3v11.05h-8.76
				V68.44H661.37z"/>
		</g>
	</g>
</g>
<g id="Layer_8">
	<text transform="matrix(1 0 0 1 984.0239 1459.4393)" class="st40 st47">https://store.rakwireless.com/products/rak831-gateway-module</text>
	<text transform="matrix(0.583 0 0 0.583 779.3741 1190.1936)" class="st10 st48 st49">®</text>
</g>
</svg>
