<svg xmlns="http://www.w3.org/2000/svg" viewBox="0 0 86.46574 43.40379"><defs><style>.cls-1{opacity:0.4;}.cls-2{fill:#242424;}.cls-3{fill:#bf8f3e;}.cls-4{fill:#c9bfb4;}.cls-5{fill:#d6d6d6;}.cls-6{fill:#fff;}.cls-7{fill:#ebf4fb;}.cls-8{fill:#333e49;}.cls-9{fill:#222630;}.cls-10{fill:#be8e3e;}.cls-11{fill:#ee3224;}.cls-12{fill:#eb2627;}.cls-13{fill:#b3b3b3;}.cls-14{fill:#7f8080;}.cls-15{fill:#333;}.cls-16{fill:#fdd407;}.cls-17{fill:#fed401;}.cls-18{fill:#fff200;}</style></defs><g id="Layer_2" data-name="Layer 2"><g id="Layer_1-2" data-name="Layer 1"><g class="cls-1"><path class="cls-2" d="M0,3.67077V39.733H49.87333V3.67077ZM6.98994,38.82a2.04864,2.04864,0,1,1,2.04095-2.0563l0,.00765a2.041,2.041,0,0,1-2.03328,2.04863ZM7.059,8.4893A2.018,2.018,0,1,1,9.06926,6.46369l0,.00766A2.01026,2.01026,0,0,1,7.06668,8.48928ZM31.45856,7.43045a1.09721,1.09721,0,1,1,1.08952-1.10486l0,.00765A1.09721,1.09721,0,0,1,31.45856,7.43045Zm8.59356,30.69128a1.09721,1.09721,0,1,1,1.08954-1.10483q.00006.00764,0,.01529a1.08954,1.08954,0,0,1-1.08187,1.08954ZM47.3413,13.29248a1.09721,1.09721,0,1,1,1.08179-1.11242q.00015.01145.00008.02288A1.08954,1.08954,0,0,1,47.3413,13.29248Z"/><path class="cls-3" d="M31.45856,4.06976A2.30185,2.30185,0,1,0,33.76041,6.3716,2.30184,2.30184,0,0,0,31.45856,4.06976Zm0,3.36069a1.09721,1.09721,0,1,1,1.08952-1.10486l0,.00765A1.09721,1.09721,0,0,1,31.45856,7.43045Z"/><path class="cls-3" d="M47.3413,10.19267a2.01028,2.01028,0,1,0,1.98713,2.03316l.00013-.02288A2.0026,2.0026,0,0,0,47.3413,10.19267Zm0,3.06912a1.09721,1.09721,0,1,1,1.08179-1.11242q.00015.01143.00008.02288a1.08956,1.08956,0,0,1-1.0584,1.11983l-.02347.0004Z"/><path class="cls-3" d="M40.05979,34.83009a2.20977,2.20977,0,1,0,2.19438,2.22506l0-.01529a2.2021,2.2021,0,0,0-2.1944-2.20977Zm0,3.29931a1.09721,1.09721,0,1,1,1.08954-1.10483q.00006.00765,0,.01529a1.08954,1.08954,0,0,1-1.08954,1.08187Z"/><path class="cls-3" d="M9.02324,39.733a3.59853,3.59853,0,1,0-4.05893,0Zm-2.0333-5.018A2.0333,2.0333,0,1,1,4.972,36.76359l0-.01529A2.03329,2.03329,0,0,1,6.98994,34.715Z"/><path class="cls-3" d="M9.70612,3.67077H4.527a3.69063,3.69063,0,1,0,5.21918.04ZM7.059,8.4893A2.018,2.018,0,1,1,9.06926,6.46369l0,.00766A2.01026,2.01026,0,0,1,7.06668,8.48928Z"/><circle class="cls-4" cx="8.95418" cy="13.56103" r="1.15092"/><circle class="cls-4" cx="17.06435" cy="10.20034" r="1.15092"/><circle class="cls-4" cx="25.16685" cy="13.56103" r="1.15092"/><circle class="cls-4" cx="25.16685" cy="29.87345" r="1.15092"/><circle class="cls-4" cx="17.07202" cy="33.24182" r="1.15092"/><circle class="cls-4" cx="9.03091" cy="29.87345" r="1.15092"/><circle class="cls-4" cx="5.74694" cy="21.73259" r="1.15092"/><rect class="cls-5" x="16.35845" y="9.97783" width="1.41947" height="0.4527" rx="0.14578"/><rect class="cls-6" x="16.44285" y="9.97783" width="1.243" height="0.4527" rx="0.14578"/><rect class="cls-5" x="24.97301" y="12.85704" width="0.4527" height="1.41947" rx="0.14578" transform="translate(-2.21244 21.79225) rotate(-45)"/><rect class="cls-6" x="24.97572" y="12.94799" width="0.4527" height="1.243" rx="0.14578" transform="translate(-2.21356 21.79496) rotate(-45)"/><rect class="cls-5" x="8.24371" y="13.33917" width="1.41947" height="0.4527" rx="0.14578" transform="translate(-6.96986 10.30429) rotate(-45)"/><rect class="cls-6" x="8.32923" y="13.34188" width="1.243" height="0.4527" rx="0.14578" transform="translate(-6.97258 10.30316) rotate(-45)"/><rect class="cls-5" x="5.52443" y="21.01902" width="0.4527" height="1.41947" rx="0.14578"/><rect class="cls-6" x="5.52443" y="21.11109" width="0.4527" height="1.243" rx="0.14578"/><rect class="cls-5" x="8.81039" y="29.15969" width="0.4527" height="1.41947" rx="0.14578" transform="translate(-18.47408 15.1385) rotate(-45)"/><rect class="cls-6" x="8.80768" y="29.24522" width="0.4527" height="1.243" rx="0.14578" transform="translate(-18.47295 15.13578) rotate(-45)"/><rect class="cls-5" x="16.36613" y="33.01163" width="1.41947" height="0.4527" rx="0.14578"/><rect class="cls-6" x="16.45053" y="33.01163" width="1.243" height="0.4527" rx="0.14578"/><rect class="cls-5" x="24.54924" y="29.64487" width="1.41947" height="0.4527" rx="0.14578" transform="translate(-13.72396 26.60987) rotate(-45)"/><rect class="cls-6" x="24.63477" y="29.64758" width="1.243" height="0.4527" rx="0.14578" transform="translate(-13.72667 26.60875) rotate(-45)"/></g><path class="cls-7" d="M35.63258,8.08264h-.12277a.20716.20716,0,0,1-.19949-.20717v-2.133a.19948.19948,0,0,1,.19949-.19949h.12277a.1995.1995,0,0,1,.19949.19182h0v2.133a.20718.20718,0,0,1-.19949.20717h0"/><path class="cls-7" d="M48.89888,8.08264h-.11509a.20717.20717,0,0,1-.20717-.20717h0v-2.133a.19949.19949,0,0,1,.19949-.19949h.12277a.19182.19182,0,0,1,.19948.18384l0,.0003V7.87547a.1995.1995,0,0,1-.19152.20716l-.0003,0h0"/><path class="cls-8" d="M49.22882,6.21047V6.011a.1995.1995,0,0,0-.1995-.1995H48.615a.23019.23019,0,0,0-.19182.13044h-12.453a.20718.20718,0,0,0-.19182-.13044H35.364a.19183.19183,0,0,0-.19182.19183h0V6.2028a.20715.20715,0,0,0,.13811.19949v.821a.20716.20716,0,0,0-.13811.19182v.20717a.19181.19181,0,0,0,.17586.20655q.008.00064.016.00062h.41433a.1995.1995,0,0,0,.19182-.13811h12.453a.20718.20718,0,0,0,.19182.13811h.41433a.1995.1995,0,0,0,.1995-.19949v0h0V7.43045a.21484.21484,0,0,0-.12277-.17647V6.40229A.1995.1995,0,0,0,49.22882,6.21047Z"/><path class="cls-9" d="M48.11625,7.49951H36.2464c-.09207,0-.1688-.046-.1688-.10742V6.26418c0-.05371.07673-.09974.1688-.09974H48.11625c.09975,0,.16881.046.16881.09974V7.43045c0,.06138-.06906.10742-.16881.10742"/><path class="cls-7" d="M36.82954,5.1286H36.607a.05371.05371,0,0,0-.06138.06139h0v.19949a.046.046,0,0,0,.046.06138h0v.55245h.23786V5.45086a.06138.06138,0,0,0,.06138-.06138h0V5.19a.06139.06139,0,0,0-.06138-.06139h0"/><path class="cls-10" d="M36.82954,6.17978h-.30692a.046.046,0,0,1-.046-.046h0V5.98029a.046.046,0,0,1,.046-.046h.30692a.06907.06907,0,0,1,.05371.046v.15345a.06905.06905,0,0,1-.05371.046"/><path class="cls-7" d="M36.82954,8.55835H36.607a.06137.06137,0,0,1-.06138-.06138h0V8.28981a.05371.05371,0,0,1,.06138-.03837V7.676h.22252v.57546a.06138.06138,0,0,1,.06138.06138h0v.1995a.06138.06138,0,0,1-.06138.06138h0"/><path class="cls-10" d="M36.82954,7.47649h-.30692a.04787.04787,0,0,0-.046.05371V7.676a.0384.0384,0,0,0,0,.046h.353a.05373.05373,0,0,0,.05371-.046V7.5302a.06138.06138,0,0,0-.05371-.05371"/><path class="cls-7" d="M37.39733,5.1286h-.22252a.05371.05371,0,0,0-.06138.06139h0v.19949s0,.06138.046.06138h0v.55245h.23786V5.45086a.05371.05371,0,0,0,.06138-.06138h0V5.19a.05371.05371,0,0,0-.06138-.06139h0"/><path class="cls-10" d="M37.37431,6.17978h-.30692a.046.046,0,0,1-.046-.046h0V5.98029a.046.046,0,0,1,.046-.046h.30692a.046.046,0,0,1,.046.046h0v.15345a.046.046,0,0,1-.046.046h0"/><path class="cls-7" d="M37.39733,8.55835h-.22252A.06138.06138,0,0,1,37.1211,8.497V8.28981a.046.046,0,0,1,.046-.03837V7.676H37.405v.57546a.05371.05371,0,0,1,.06139.06138h0v.1995a.05371.05371,0,0,1-.06139.06138h0"/><path class="cls-10" d="M37.37431,7.47649h-.30692a.05372.05372,0,0,0-.046.05371V7.676a.04606.04606,0,0,0,0,.046h.31459a.046.046,0,0,0,.046-.046h0V7.5302s0-.05371-.046-.05371"/><path class="cls-7" d="M37.99581,5.1286h-.23019a.06139.06139,0,0,0-.06138.06139h0v.19949a.06138.06138,0,0,0,.06138.06138h0v.55245h.23786V5.45086a.05371.05371,0,0,0,.05371-.05371h0V5.19766a.05371.05371,0,0,0-.06138-.06138h0"/><path class="cls-10" d="M37.96511,6.17978h-.29924a.05371.05371,0,0,1-.05371-.046V5.98029a.046.046,0,0,1,.046-.046h.30692s.05371,0,.05371.03836h0v.15346a.05372.05372,0,0,1-.05371.046"/><path class="cls-7" d="M37.99581,8.55835h-.23019a.069.069,0,0,1-.06138-.06138h0V8.28981a.06138.06138,0,0,1,.06138-.03837V7.676h.23786v.57546a.05371.05371,0,0,1,.05371.05371h0v.19949a.05371.05371,0,0,1-.06138.06139h0"/><path class="cls-10" d="M37.96511,7.47649h-.29924a.05371.05371,0,0,0-.05371.05371V7.676a.04606.04606,0,0,0,0,.046h.31459a.03837.03837,0,0,0,.05371-.03837h0V7.53787a.05371.05371,0,0,0-.05371-.05371"/><path class="cls-7" d="M38.57894,5.1286H38.3641a.05371.05371,0,0,0-.06138.06139h0v.19949a.05371.05371,0,0,0,.06138.06138h0v.55245H38.602V5.45086a.046.046,0,0,0,.046-.06138h0V5.19a.05371.05371,0,0,0-.06139-.06139h0"/><path class="cls-10" d="M38.54825,6.17978H38.249a.0537.0537,0,0,1-.05371-.046V5.98029a.046.046,0,0,1,.046-.046h.30691a.06139.06139,0,0,1,.05371.03836h0v.15346a.05371.05371,0,0,1-.05371.046"/><path class="cls-7" d="M38.57894,8.55835H38.3641a.06137.06137,0,0,1-.06138-.06138h0V8.28981a.06137.06137,0,0,1,.06138-.03837V7.676H38.602v.57546a.05371.05371,0,0,1,.05371.05371h0v.19949a.05371.05371,0,0,1-.06139.06139h0"/><path class="cls-10" d="M38.54825,7.47649H38.249a.05371.05371,0,0,0-.05371.05371V7.676a.04606.04606,0,0,0,0,.046h.31459s.046,0,.05371-.03837h0V7.53787a.05371.05371,0,0,0-.05371-.05371"/><path class="cls-7" d="M39.13138,5.1286H38.9012a.0614.0614,0,0,0-.06139.06139h0v.19949a.06139.06139,0,0,0,.06139.06138h0v.55245h.23018V5.45086a.05371.05371,0,0,0,.06139-.06138h0V5.19a.05371.05371,0,0,0-.06139-.06139h0"/><path class="cls-10" d="M39.13138,6.17978h-.29924a.05371.05371,0,0,1-.05371-.046V5.98029a.046.046,0,0,1,.046-.046h.30691s.05371,0,.05371.03836h0v.15346a.05371.05371,0,0,1-.05371.046"/><path class="cls-7" d="M39.13138,8.55835H38.9012a.06906.06906,0,0,1-.06139-.06138h0V8.28981a.05371.05371,0,0,1,.06484-.03957l.00422.0012V7.676h.22251v.57546a.05371.05371,0,0,1,.06139.06138h0v.1995a.06138.06138,0,0,1-.06139.046"/><path class="cls-10" d="M39.13138,7.47649h-.29924a.05371.05371,0,0,0-.05371.05371V7.676a.04606.04606,0,0,0,.03837.046h.31458a.03836.03836,0,0,0,.05371-.03837h0V7.53787a.05371.05371,0,0,0-.05371-.05371"/><path class="cls-7" d="M39.70684,5.1286h-.23018a.05371.05371,0,0,0-.06138.06139h0v.19949a.0537.0537,0,0,0,.06138.06138h0v.55245h.23018V5.45086a.05371.05371,0,0,0,.06139-.06138h0V5.19a.05371.05371,0,0,0-.06139-.06139h0"/><path class="cls-10" d="M39.67615,6.17978h-.29924a.05371.05371,0,0,1-.05371-.046V5.98029a.046.046,0,0,1,.046-.046h.30692a.06137.06137,0,0,1,.0537.03836h0v.15346a.05371.05371,0,0,1-.0537.046"/><path class="cls-7" d="M39.70684,8.55835h-.23018a.06137.06137,0,0,1-.06138-.06138h0V8.28981a.06137.06137,0,0,1,.06138-.03837V7.676h.23018v.57546a.05371.05371,0,0,1,.06139.06138h0v.1995a.05371.05371,0,0,1-.06139.06138h0"/><path class="cls-10" d="M39.67615,7.47649h-.29924a.05371.05371,0,0,0-.05371.05371V7.676a.04606.04606,0,0,0,0,.046h.31459s.046,0,.05371-.03837h0V7.53787a.05371.05371,0,0,0-.05371-.05371"/><path class="cls-7" d="M40.27463,5.1286h-.23018a.05371.05371,0,0,0-.06138.06139h0v.19949a.0537.0537,0,0,0,.06138.06138h0v.55245h.23786V5.45086a.05371.05371,0,0,0,.05371-.05371h0V5.19766a.06138.06138,0,0,0-.06139-.06138h0"/><path class="cls-10" d="M40.25161,6.17978H39.9447a.0537.0537,0,0,1-.05371-.046V5.98029a.05371.05371,0,0,1,.05371-.046h.30691a.046.046,0,0,1,.046.046h0v.15345a.046.046,0,0,1-.046.046h0"/><path class="cls-7" d="M40.27463,8.55835h-.23018a.06137.06137,0,0,1-.06138-.06138h0V8.28981a.06137.06137,0,0,1,.06138-.03837V7.676h.23786v.57546a.05371.05371,0,0,1,.05371.05371h0v.19949a.06138.06138,0,0,1-.06139.06139h0"/><path class="cls-10" d="M40.25161,7.47649H39.9447a.05371.05371,0,0,0-.05371.05371V7.676a.05372.05372,0,0,0,.05371.046h.30691a.046.046,0,0,0,.046-.046h0V7.5302a.0537.0537,0,0,0-.046-.05371"/><path class="cls-7" d="M40.8501,5.1286h-.23019a.06139.06139,0,0,0-.06138.06139h0v.19949a.06137.06137,0,0,0,.05371.06138h0v.55245h.23786V5.45086a.05371.05371,0,0,0,.06138-.06138h0V5.19a.05371.05371,0,0,0-.06138-.06139h0"/><path class="cls-10" d="M40.8194,6.17978h-.29924a.05371.05371,0,0,1-.05371-.046V5.98029a.046.046,0,0,1,.046-.046h.30692a.05372.05372,0,0,1,.05371.046v.15345a.05371.05371,0,0,1-.05371.046"/><path class="cls-7" d="M40.8501,8.55835h-.23019a.069.069,0,0,1-.06138-.06138h0V8.28981a.06139.06139,0,0,1,.05371-.03837V7.676h.23786v.57546a.05371.05371,0,0,1,.06138.06138h0v.1995a.05371.05371,0,0,1-.06138.06138h0"/><path class="cls-10" d="M40.8194,7.47649h-.29924a.05371.05371,0,0,0-.05371.05371V7.676a.04606.04606,0,0,0,0,.046H40.781a.05372.05372,0,0,0,.05371-.046V7.5302a.05371.05371,0,0,0-.05371-.05371"/><path class="cls-7" d="M41.43323,5.1286H41.203a.05371.05371,0,0,0-.06083.04549l-.00055.00822h0v.1995a.05371.05371,0,0,0,.04548.06083l.00823.00055h0v.55244h.23786V5.44319a.05371.05371,0,0,0,.06138-.06138h0v-.1995a.05369.05369,0,0,0-.05315-.05425l-.00823.00054h0"/><path class="cls-10" d="M41.43323,6.17978h-.30692a.046.046,0,0,1-.046-.046h0V5.98029a.046.046,0,0,1,.046-.046h.30692a.046.046,0,0,1,.046.046h0v.15345a.046.046,0,0,1-.046.046h0"/><path class="cls-7" d="M41.43323,8.55835H41.203a.06137.06137,0,0,1-.06138-.06138h0V8.28981a.06139.06139,0,0,1,.05371-.03837V7.676h.23786v.57546a.05371.05371,0,0,1,.06138.06138h0v.1995a.05371.05371,0,0,1-.06138.06138h0"/><path class="cls-10" d="M41.43323,7.47649h-.30692a.0537.0537,0,0,0-.046.05371V7.676a.046.046,0,0,0,.046.046h.30692a.03837.03837,0,0,0,.046-.046h0V7.5302s0-.05371-.046-.05371"/><path class="cls-7" d="M41.99334,5.1286h-.23018a.06139.06139,0,0,0-.06138.06139h0v.19949a.06137.06137,0,0,0,.05371.06138h0v.55245h.23785V5.45086a.05371.05371,0,0,0,.06139-.06138h0V5.19a.05371.05371,0,0,0-.06139-.06139h0"/><path class="cls-10" d="M41.96265,6.17978h-.29157a.046.046,0,0,1-.046-.046h0V5.98029a.046.046,0,0,1,.046-.046H41.978a.05372.05372,0,0,1,.05371.046v.15345a.05371.05371,0,0,1-.05371.046"/><path class="cls-7" d="M41.99334,8.55835h-.23018a.069.069,0,0,1-.06138-.06138h0V8.28981a.06138.06138,0,0,1,.05371-.03837V7.676h.23785v.57546a.05371.05371,0,0,1,.06139.06138h0v.1995a.05371.05371,0,0,1-.06139.06138h0"/><path class="cls-10" d="M41.96265,7.47649h-.29157a.0537.0537,0,0,0-.046.05371V7.676a.05368.05368,0,0,0,0,.06138H41.932a.0537.0537,0,0,0,.05371-.046V7.5302a.05371.05371,0,0,0-.05371-.05371"/><path class="cls-7" d="M42.58415,5.1286h-.23786a.05371.05371,0,0,0-.05425.05316l.00054.00823h0v.19949a.05371.05371,0,0,0,.04549.06083l.00822.00055h0v.55245h.23786V5.45086a.06139.06139,0,0,0,.06139-.06138h0V5.19a.0614.0614,0,0,0-.06139-.06139h0"/><path class="cls-10" d="M42.55346,6.17978h-.30691a.046.046,0,0,1-.046-.046h0V5.98029a.046.046,0,0,1,.046-.046h.30691a.046.046,0,0,1,.046.03836h0v.15346a.046.046,0,0,1-.046.046h0"/><path class="cls-7" d="M42.58415,8.55835h-.23786a.06138.06138,0,0,1-.05371-.06138h0V8.28981a.06139.06139,0,0,1,.05371-.03837V7.676h.23786v.57546a.06139.06139,0,0,1,.06139.06138h0v.1995a.06139.06139,0,0,1-.06139.06138h0"/><path class="cls-10" d="M42.55346,7.47649h-.30691a.0537.0537,0,0,0-.046.05371V7.676a.03837.03837,0,0,0,0,.046h.31458a.03837.03837,0,0,0,.04527-.02991l.00077-.00846h0V7.53787a.0537.0537,0,0,0-.046-.05371"/><path class="cls-7" d="M43.15194,5.1286h-.18415a.05371.05371,0,0,0-.06138.06139h0v.19949a.046.046,0,0,0,.046.06138h0v.55245h.23786V5.45086a.06138.06138,0,0,0,.06138-.06138h0V5.19a.06139.06139,0,0,0-.06138-.06139h0"/><path class="cls-10" d="M43.12892,6.17978H42.822a.046.046,0,0,1-.046-.046h0V5.98029a.046.046,0,0,1,.046-.046h.30691a.06907.06907,0,0,1,.05371.046v.15345a.06905.06905,0,0,1-.05371.046"/><path class="cls-7" d="M43.15194,8.55835h-.18415a.06137.06137,0,0,1-.06138-.06138h0V8.28981a.06139.06139,0,0,1,.05371-.03837V7.676H43.198v.57546a.06138.06138,0,0,1,.06138.06138h0v.1995a.06138.06138,0,0,1-.06138.06138h0"/><path class="cls-10" d="M43.12892,7.47649H42.822a.04787.04787,0,0,0-.046.05371V7.676a.03837.03837,0,0,0,0,.046h.31458a.05372.05372,0,0,0,.05371-.046V7.5302a.06136.06136,0,0,0-.05371-.05371"/><path class="cls-7" d="M43.78111,5.1286h-.23018a.05371.05371,0,0,0-.06139.06139h0v.19949a.05371.05371,0,0,0,.06139.06138h0v.55245h.23786V5.45086a.05371.05371,0,0,0,.05371-.05371h0V5.19766a.06138.06138,0,0,0-.06139-.06138h0"/><path class="cls-10" d="M43.73507,6.17978h-.29923a.0537.0537,0,0,1-.05371-.046V5.98029a.05371.05371,0,0,1,.05371-.046h.29923a.06138.06138,0,0,1,.05371.03836h0v.15346a.05371.05371,0,0,1-.05371.046"/><path class="cls-7" d="M43.78111,8.55835h-.23018a.06138.06138,0,0,1-.06139-.06138h0V8.28981a.06139.06139,0,0,1,.06139-.03837V7.676h.23786v.57546a.05371.05371,0,0,1,.05371.05371h0v.19949a.06138.06138,0,0,1-.06139.06139h0"/><path class="cls-10" d="M43.73507,7.47649h-.29923a.0537.0537,0,0,0-.05371.05371V7.676a.05372.05372,0,0,0,.05371.046h.29923s.046,0,.05371-.03837h0V7.53787a.05371.05371,0,0,0-.05371-.05371"/><path class="cls-7" d="M44.34123,5.1286H44.111a.06139.06139,0,0,0-.06138.06139h0v.19949a.06138.06138,0,0,0,.06138.06138h0v.55245h.23786V5.45086a.05371.05371,0,0,0,.05371-.05371h0V5.19766a.05371.05371,0,0,0-.06138-.06138h0"/><path class="cls-10" d="M44.31054,6.17978H44.0113a.0537.0537,0,0,1-.05371-.046V5.98029a.05371.05371,0,0,1,.05371-.046h.29924a.05372.05372,0,0,1,.05371.03836h0v.15346a.05372.05372,0,0,1-.05371.046"/><path class="cls-7" d="M44.34123,8.55835H44.111a.06905.06905,0,0,1-.06138-.06138h0V8.28981a.06138.06138,0,0,1,.06138-.03837V7.676h.23786v.57546a.05371.05371,0,0,1,.05371.05371h0v.19949a.05371.05371,0,0,1-.06138.06139h0"/><path class="cls-10" d="M44.31054,7.47649H44.0113a.05371.05371,0,0,0-.05371.05371V7.676a.05372.05372,0,0,0,.05371.046h.29924a.03837.03837,0,0,0,.05371-.03837h0V7.53787a.05371.05371,0,0,0-.05371-.05371"/><path class="cls-7" d="M44.909,5.1286h-.1995a.06139.06139,0,0,0-.06893.05276l-.00012.001h0v.1995a.06138.06138,0,0,0,.06138.06138h0v.55244h.23786V5.44319a.05371.05371,0,0,0,.05371-.05371h0V5.19A.05371.05371,0,0,0,44.932,5.1286h0"/><path class="cls-10" d="M44.886,6.17978h-.30692a.05371.05371,0,0,1-.05371-.046V5.98029a.05372.05372,0,0,1,.05371-.046H44.886a.046.046,0,0,1,.046.046h0v.15345a.046.046,0,0,1-.046.046h0"/><path class="cls-7" d="M44.909,8.55835h-.1995a.069.069,0,0,1-.069-.06138h0V8.28981a.09189.09189,0,0,1,0-.03837V7.676h.23786v.57546a.05371.05371,0,0,1,.05371.05371h0v.19949a.06139.06139,0,0,1-.06139.06139h0"/><path class="cls-10" d="M44.886,7.47649h-.30692a.05371.05371,0,0,0-.05371.05371V7.676a.05373.05373,0,0,0,.05371.046H44.886a.046.046,0,0,0,.046-.046h0V7.5302a.05372.05372,0,0,0-.046-.05371"/><path class="cls-7" d="M45.48448,5.1286h-.21484a.0614.0614,0,0,0-.06139.06139h0v.19949a.06139.06139,0,0,0,.06139.06138h0v.55245h.23786V5.45086a.05371.05371,0,0,0,.05371-.05371h0V5.19766a.05371.05371,0,0,0-.06139-.06138h0"/><path class="cls-10" d="M45.45379,6.17978h-.29924a.0537.0537,0,0,1-.05371-.046V5.98029a.046.046,0,0,1,.046-.046h.30691s.05371,0,.05371.03836h0v.15346a.05371.05371,0,0,1-.05371.046"/><path class="cls-7" d="M45.48448,8.55835h-.21484s-.046,0,0-.06138V7.676h.23786v.57546a.05371.05371,0,0,1,.05371.05371h0v.19949a.05371.05371,0,0,1-.06139.06139h0"/><path class="cls-10" d="M45.45379,7.47649h-.29924a.05371.05371,0,0,0-.05371.05371V7.676a.046.046,0,0,0,0,.046h.31458a.03836.03836,0,0,0,.05371-.03837h0V7.53787a.05371.05371,0,0,0-.05371-.05371"/><path class="cls-7" d="M46.03692,5.1286h-.23018a.0614.0614,0,0,0-.06139.06139h0v.19949a.06139.06139,0,0,0,.05371.06138h0v.55245h.23786V5.45086a.05371.05371,0,0,0,.06138-.06138h0V5.19a.05371.05371,0,0,0-.06138-.06139h0"/><path class="cls-10" d="M46.03692,6.17978h-.31458a.046.046,0,0,1-.046-.046h0V5.98029a.046.046,0,0,1,.046-.046h.31458a.046.046,0,0,1,.046.046h0v.15345a.046.046,0,0,1-.046.046h0"/><path class="cls-7" d="M46.03692,8.55835h-.23018a.06905.06905,0,0,1-.06139-.06138h0V8.28981a.06139.06139,0,0,1,.05371-.03837V7.676h.23786v.57546a.05371.05371,0,0,1,.06138.06138h0v.1995a.0537.0537,0,0,1-.06138.06138h0"/><path class="cls-10" d="M46.03692,7.47649h-.31458a.04787.04787,0,0,0-.046.05371V7.676a.03836.03836,0,0,0-.00767.05371l.00767.00767h.36062a.046.046,0,0,0,.046-.046h0V7.5302a.05371.05371,0,0,0-.046-.05371"/><path class="cls-7" d="M46.62773,5.1286h-.23019a.06139.06139,0,0,0-.06138.06139h0v.19949a.06138.06138,0,0,0,.06138.06138h0v.55245h.23019V5.45086a.05371.05371,0,0,0,.06138-.06138h0V5.19a.05371.05371,0,0,0-.06138-.06139h0"/><path class="cls-10" d="M46.597,6.17978H46.2978a.0537.0537,0,0,1-.05371-.046V5.98029a.046.046,0,0,1,.046-.046H46.597s.05371,0,.05371.03836h0v.15346a.05371.05371,0,0,1-.05371.046"/><path class="cls-7" d="M46.62773,8.55835h-.23019a.06905.06905,0,0,1-.06138-.06138h0V8.28981a.06138.06138,0,0,1,.06138-.03837V7.676h.23019v.57546a.05371.05371,0,0,1,.06138.06138h0v.1995a.05371.05371,0,0,1-.06138.06138h0"/><path class="cls-10" d="M46.597,7.47649H46.2978a.05371.05371,0,0,0-.05371.05371V7.676a.046.046,0,0,0,0,.046h.31458a.03836.03836,0,0,0,.05371-.03837h0V7.53787a.05371.05371,0,0,0-.05371-.05371"/><path class="cls-7" d="M47.23388,5.1286h-.2532a.05372.05372,0,0,0-.05426.05316L46.927,5.19h0v.19949a.0537.0537,0,0,0,.04548.06083l.00823.00055h0v.55245h.2532V5.45086a.06138.06138,0,0,0,.06139-.05371h0V5.19766a.06139.06139,0,0,0-.06139-.06138h0"/><path class="cls-10" d="M47.18784,6.17978h-.30691a.046.046,0,0,1-.046-.046h0V5.98029a.046.046,0,0,1,.046-.046h.30691a.046.046,0,0,1,.046.03836h0v.15346a.046.046,0,0,1-.046.046h0"/><path class="cls-7" d="M47.23388,8.55835h-.2532A.06136.06136,0,0,1,46.927,8.497h0V8.28981a.06139.06139,0,0,1,.05371-.03837V7.676h.2532v.57546a.0614.0614,0,0,1,.06139.05371h0v.19949a.07674.07674,0,0,1-.06139.046"/><path class="cls-10" d="M47.18784,7.47649h-.30691a.05371.05371,0,0,0-.046.05371V7.676a.046.046,0,0,0,.046.046h.30691a.03837.03837,0,0,0,.04527-.02991l.00077-.00846h0V7.53787s0-.05371-.046-.05371"/><path class="cls-7" d="M47.794,5.1286h-.22252A.05371.05371,0,0,0,47.5101,5.19h0v.19949a.046.046,0,0,0,.046.06138h0v.55245H47.794V5.45086a.06138.06138,0,0,0,.06138-.06138h0V5.19A.06139.06139,0,0,0,47.794,5.1286h0"/><path class="cls-10" d="M47.74029,6.17978H47.441a.0537.0537,0,0,1-.05371-.046V5.98029a.046.046,0,0,1,.046-.046h.30691a.05371.05371,0,0,1,.05371.046v.15345a.0537.0537,0,0,1-.05371.046"/><path class="cls-7" d="M47.794,8.55835h-.22252A.06137.06137,0,0,1,47.5101,8.497h0V8.28981a.06139.06139,0,0,1,.05371-.03837V7.676h.23786v.57546a.06138.06138,0,0,1,.06138.06138h0v.1995a.06138.06138,0,0,1-.06138.06138h0"/><path class="cls-10" d="M47.74029,7.47649H47.441a.05371.05371,0,0,0-.05371.05371V7.676a.046.046,0,0,0,.03836.046h.31459a.05372.05372,0,0,0,.05371-.046V7.5302a.05371.05371,0,0,0-.05371-.05371"/><path class="cls-10" d="M35.295,6.057c0-.069.09975-.12276.21484-.12276s.20717.05371.20717.12276-.09208.12277-.20717.12277S35.295,6.12607,35.295,6.057"/><path class="cls-10" d="M35.295,7.58391c0-.06906.09975-.13044.21484-.13044s.20717.06138.20717.13044-.09208.12276-.20717.12276-.21484-.06138-.21484-.12276"/><path class="cls-10" d="M48.63033,6.057c0-.069.09208-.12276.21484-.12276s.20717.05371.20717.12276-.09207.12277-.20717.12277-.21484-.05371-.21484-.12277"/><path class="cls-10" d="M48.63033,7.58391c0-.06906.09208-.13044.21484-.13044s.20717.06138.20717.13044-.09207.12276-.20717.12276-.21484-.06138-.21484-.12276"/><path class="cls-11" d="M49.18278,5.22068h-.13044V4.80635h-.16113V4.7066c.09207,0,.17648,0,.19182-.12277h.09975Z"/><path class="cls-11" d="M48.86052,8.61207a.22251.22251,0,0,1,.23018-.25321.20717.20717,0,0,1,.22206.19113l.00045.00837c0,.19182-.20716.20716-.29924.3376h.29924V9.011h-.468c0-.15345.09207-.21484.19949-.29156s.13811-.07673.13811-.15346a.09975.09975,0,0,0-.09975-.09975h0c-.07672,0-.09974.07673-.09974.14579Z"/><path class="cls-11" d="M35.0341,4.837c.05371,0,.13811,0,.13811-.07673a.0844.0844,0,0,0-.084-.08475l-.008.00035a.0997.0997,0,0,0-.09974.11509h-.12277a.21483.21483,0,0,1,.20688-.22251q.00782-.00028.01563,0A.19948.19948,0,0,1,35.295,4.745a.12276.12276,0,0,1-.09207.13044h0a.14577.14577,0,0,1,.11509.14578.23786.23786,0,0,1-.47571,0H34.965c0,.06906,0,.13044.1151.13044a.09975.09975,0,0,0,.09975-.09974h0c0-.09975-.08441-.09975-.14579-.09975Z"/><path class="cls-11" d="M35.48679,5.05955a.09208.09208,0,0,0,.0844.07673c.09975,0,.12277-.12277.12277-.19182h0a.16878.16878,0,0,1-.14578.07672.21483.21483,0,0,1-.14579-.069.23779.23779,0,0,1-.0537-.13811.23018.23018,0,0,1,.22238-.23773l.0078-.00013c.19182,0,.24553.1688.24553.32993s-.06906.33761-.25321.33761a.19949.19949,0,0,1-.20716-.17648Zm.1995-.26088a.1151.1151,0,0,0-.10691-.12273l-.00051,0a.10741.10741,0,0,0-.09979.11454l0,.00055c0,.06138,0,.12276.09975.12276a.10741.10741,0,0,0,.10769-.10714Z"/><path class="cls-11" d="M35.11082,8.8576h-.26854V8.7425l.27622-.376h.11509v.38364H35.295V8.8576h-.0844V9.011h-.12276Zm0-.32994h0l-.1688.22252h.1688Z"/><path class="cls-11" d="M35.58654,8.35886c.13044,0,.23786.07673.23786.32993s-.10742.32993-.23786.32993-.23786-.07672-.23786-.32993S35.4561,8.35886,35.58654,8.35886Zm0,.55244c.10742,0,.10742-.15345.10742-.22251s0-.22251-.10742-.22251-.10742.15346-.10742.22251S35.47912,8.9113,35.58654,8.9113Z"/><polygon class="cls-12" points="69.05 1.595 70.645 1.595 71.45 0.797 70.645 0 69.05 0 68.25 0.797 69.05 1.595"/><path class="cls-12" d="M72.52984,0H70.62818L69.53213.80012l1.09605.79464h1.90166c.15893,0,.29045-.09864.29045-.21373V.21373C72.82029.09864,72.68877,0,72.52984,0Z"/><rect class="cls-12" x="69.39512" y="0.00548" width="2.12635" height="1.58928"/><path class="cls-6" d="M69.60337,1.32075h-.21921l-.285-.87685H69.302l.19181.61379h0L69.69106.4439h.19729Z"/><path class="cls-6" d="M69.97055.4439h.40006c.16441,0,.2795.05481.2795.21921A.19728.19728,0,0,1,70.52954.844a.21374.21374,0,0,1,.15893.22469c0,.17537-.148.2521-.3069.2521h-.42746Zm.19181.35622h.20825c.07124,0,.12057-.03288.12057-.10412s-.06577-.10413-.137-.10413h-.18085Zm0,.37266h.20825c.07672,0,.14249-.0274.14249-.11509s-.0548-.126-.137-.126h-.21373Z"/><path class="cls-6" d="M71.07757.4439h.19729l.32881.87685h-.19729l-.06576-.19729H71.0118l-.07124.19729h-.19181Zm0,.548h.23017L71.19265.66859h0Z"/><path class="cls-6" d="M71.87769.60283h-.26306V.4439h.71792V.60283h-.26306v.71792h-.19181Z"/><polygon class="cls-12" points="81.83 0.093 80.23 0.093 79.43 0.893 80.23 1.688 81.83 1.688 82.63 0.893 81.83 0.093"/><path class="cls-12" d="M78.34441,1.68244h1.8907l1.096-.79464-1.096-.79464H78.328c-.15893,0-.285.09317-.285.21374V1.47419C78.043,1.58928,78.18549,1.68244,78.34441,1.68244Z"/><rect class="cls-12" x="79.35278" y="0.09316" width="2.12635" height="1.58928"/><path class="cls-6" d="M79.13905,1.32075h-.21921l-.285-.87685h.19729l.19729.61379h0L79.22674.4439h.20277Z"/><path class="cls-6" d="M79.48979.4439h.411c.16989,0,.2795.05481.2795.21921A.19182.19182,0,0,1,80.06522.844a.21922.21922,0,0,1,.16989.2521c0,.17536-.15345.25209-.31238.25209h-.422Zm.19181.35622h.19729A.09861.09861,0,0,0,79.994.696c0-.08221-.06028-.10413-.13152-.10413h-.17537Zm0,.37266h.20825c.07124,0,.14249-.0274.14249-.11509s-.05481-.126-.14249-.126h-.20277Z"/><path class="cls-6" d="M80.59681.4439h.18633l.32881.87685h-.20277l-.06576-.19729H80.5146l-.06577.19729h-.19729Zm0,.548h.18633L80.67353.66859h0Z"/><path class="cls-6" d="M81.39693.60283h-.26306V.4439h.74532V.60283h-.263v.71792h-.19181Z"/><rect class="cls-13" x="78.06492" y="37.39193" width="1.35363" height="1.59476" rx="0.22469"/><polygon class="cls-13" points="80.465 38.981 78.865 38.981 78.059 38.187 78.865 37.392 80.465 37.392 81.265 38.187 80.465 38.981"/><path class="cls-6" d="M78.71159,37.70978h.19181l.3617.58091h0v-.58091h.17537v.86589h-.18633l-.3617-.58091h0v.58091h-.18085Z"/><path class="cls-6" d="M80.18579,38.00024a.18633.18633,0,0,0-.18633-.15345c-.17537,0-.23565.148-.23565.29593s.06028.29594.23565.29594a.19729.19729,0,0,0,.19729-.19729h.18633a.36719.36719,0,0,1-.37761.35644l-.006-.00022a.45487.45487,0,0,1,0-.90973.34525.34525,0,0,1,.37266.31238Z"/><rect class="cls-13" x="78.06492" y="35.18886" width="1.35363" height="1.59476" rx="0.22469"/><polygon class="cls-13" points="80.465 36.778 78.865 36.778 78.059 35.983 78.865 35.189 80.465 35.189 81.265 35.983 80.465 36.778"/><path class="cls-6" d="M78.71159,35.50671h.19181l.3617.58091h0v-.58091h.17537v.86589h-.18633l-.3617-.58091h0v.58091h-.18085Z"/><path class="cls-6" d="M80.18579,35.79717a.18633.18633,0,0,0-.18633-.15345c-.17537,0-.23565.148-.23565.30142s.06028.29045.23565.29045a.19729.19729,0,0,0,.19729-.19729h.18633a.36718.36718,0,0,1-.37761.35644l-.006-.00022a.422.422,0,0,1-.42831-.41556q-.00025-.01692.00085-.03382a.42746.42746,0,0,1,.39331-.45908q.017-.00132.03415-.00127a.34526.34526,0,0,1,.37266.31238Z"/><rect class="cls-13" x="78.06492" y="32.93098" width="1.35363" height="1.59476" rx="0.22469"/><polygon class="cls-13" points="80.465 34.52 78.865 34.52 78.059 33.726 78.865 32.931 80.465 32.931 81.265 33.726 80.465 34.52"/><path class="cls-6" d="M78.71159,33.24336h.19181l.3617.58639h0v-.58639h.17537v.87136h-.18633l-.3617-.58091h0v.58091h-.18085Z"/><path class="cls-6" d="M80.18579,33.53929a.18085.18085,0,0,0-.18633-.15344c-.17537,0-.23565.148-.23565.29593s.06028.29046.23565.29046a.19729.19729,0,0,0,.19729-.19181h.18633a.36719.36719,0,0,1-.37761.35644l-.006-.00022a.45487.45487,0,0,1,0-.90973.34526.34526,0,0,1,.37266.31238Z"/><rect class="cls-13" x="78.06492" y="30.76627" width="1.35363" height="1.59476" rx="0.22469"/><polygon class="cls-13" points="80.465 32.356 78.865 32.356 78.059 31.561 78.865 30.766 80.465 30.766 81.265 31.561 80.465 32.356"/><path class="cls-6" d="M78.71159,31.07865h.19181l.3617.58639h0v-.58639h.17537V31.95h-.18633l-.3617-.58091h0V31.95h-.18085Z"/><path class="cls-6" d="M80.18579,31.37458a.18633.18633,0,0,0-.18633-.15344c-.17537,0-.23565.148-.23565.29593s.06028.29046.23565.29046a.19729.19729,0,0,0,.19729-.19181h.18633a.36719.36719,0,0,1-.37761.35644l-.006-.00022a.45487.45487,0,0,1,0-.90973.34526.34526,0,0,1,.37266.31238Z"/><rect class="cls-13" x="78.06492" y="28.5358" width="1.35363" height="1.59476" rx="0.22469"/><polygon class="cls-13" points="80.465 30.125 78.865 30.125 78.059 29.33 78.865 28.536 80.465 28.536 81.265 29.33 80.465 30.125"/><path class="cls-6" d="M78.71159,28.84818h.19181l.3617.58638h0v-.58638h.17537v.87136h-.18633l-.3617-.58091h0v.58091h-.18085Z"/><path class="cls-6" d="M80.18579,29.14411a.18634.18634,0,0,0-.18633-.15345c-.17537,0-.23565.148-.23565.29594s.06028.29045.23565.29045a.19728.19728,0,0,0,.19729-.19181h.18633a.36717.36717,0,0,1-.37761.35644l-.006-.00022a.45486.45486,0,0,1,0-.90972.34525.34525,0,0,1,.37266.31237Z"/><rect class="cls-13" x="78.06492" y="17.54785" width="1.35363" height="1.59476" rx="0.22469"/><polygon class="cls-13" points="80.465 19.137 78.865 19.137 78.059 18.342 78.865 17.548 80.465 17.548 81.265 18.342 80.465 19.137"/><path class="cls-6" d="M78.71159,17.86022h.19181l.3617.58639h0v-.58639h.17537v.87137h-.18633l-.3617-.58091h0v.58091h-.18085Z"/><path class="cls-6" d="M80.18579,18.15616a.18633.18633,0,0,0-.18633-.15345c-.17537,0-.23565.148-.23565.29594s.06028.29045.23565.29045a.19729.19729,0,0,0,.19729-.19181h.18633a.36718.36718,0,0,1-.37761.35644l-.006-.00022a.45487.45487,0,0,1,0-.90973.34526.34526,0,0,1,.37266.31238Z"/><rect class="cls-13" x="78.06492" y="15.35025" width="1.35363" height="1.59476" rx="0.22469"/><polygon class="cls-13" points="80.465 16.94 78.865 16.94 78.059 16.145 78.865 15.35 80.465 15.35 81.265 16.145 80.465 16.94"/><path class="cls-6" d="M78.71159,15.66811h.19181l.3617.58091h0v-.58091h.17537V16.534h-.18633l-.3617-.5809h0v.5809h-.18085Z"/><path class="cls-6" d="M80.18579,15.95857a.18633.18633,0,0,0-.18633-.15345c-.17537,0-.23565.148-.23565.29593s.06028.29594.23565.29594a.19729.19729,0,0,0,.19729-.19729h.18633a.36719.36719,0,0,1-.37762.35644l-.006-.00022a.45487.45487,0,0,1,0-.90973.34525.34525,0,0,1,.37266.31238Z"/><rect class="cls-13" x="78.06492" y="13.1691" width="1.35363" height="1.59476" rx="0.22469"/><polygon class="cls-13" points="80.465 14.764 78.865 14.764 78.059 13.964 78.865 13.169 80.465 13.169 81.265 13.964 80.465 14.764"/><path class="cls-6" d="M78.71159,13.487h.19181l.3617.58091h0V13.487h.17537v.86588h-.18633l-.3617-.5809h0v.5809h-.18085Z"/><path class="cls-6" d="M80.18579,13.77741a.18085.18085,0,0,0-.18633-.148c-.17537,0-.23565.14248-.23565.29593s.06028.29046.23565.29046.18085-.07673.19729-.19729h.18633a.36719.36719,0,0,1-.37762.35644l-.006-.00022a.41654.41654,0,0,1-.42746-.44939.42746.42746,0,0,1,.39331-.45908q.017-.00131.03415-.00126a.35074.35074,0,0,1,.37266.31237Z"/><rect class="cls-13" x="78.06492" y="10.96603" width="1.35363" height="1.59476" rx="0.22469"/><polygon class="cls-13" points="80.465 12.561 78.865 12.561 78.059 11.761 78.865 10.966 80.465 10.966 81.265 11.761 80.465 12.561"/><path class="cls-6" d="M78.71159,11.28389h.19181l.3617.58091h0v-.58091h.17537v.87136h-.18633l-.3617-.58639h0v.58639h-.18085Z"/><path class="cls-6" d="M80.18579,11.57982a.18085.18085,0,0,0-.18633-.15344c-.17537,0-.23565.14248-.23565.29593s.06028.29046.23565.29046.18085-.07673.19729-.19729h.18633a.36719.36719,0,0,1-.37762.35644l-.006-.00023a.41653.41653,0,0,1-.42746-.44938.42746.42746,0,0,1,.39331-.45908q.017-.00131.03415-.00126a.35074.35074,0,0,1,.37266.31237Z"/><rect class="cls-13" x="78.06492" y="8.85065" width="1.35363" height="1.59476" rx="0.22469"/><polygon class="cls-13" points="80.465 10.44 78.865 10.44 78.059 9.645 78.865 8.851 80.465 8.851 81.265 9.645 80.465 10.44"/><path class="cls-6" d="M78.71159,9.163h.19181l.3617.58639h0V9.163h.17537v.87137h-.18633l-.3617-.58091h0v.58091h-.18085Z"/><path class="cls-6" d="M80.18579,9.459a.18085.18085,0,0,0-.18633-.15345c-.17537,0-.23565.148-.23565.29593s.06028.29046.23565.29046a.19729.19729,0,0,0,.19729-.19181h.18633a.36718.36718,0,0,1-.37762.35644l-.006-.00022a.45487.45487,0,0,1,0-.90973.34526.34526,0,0,1,.37266.31238Z"/><rect class="cls-13" x="78.06492" y="6.70786" width="1.35363" height="1.59476" rx="0.22469"/><polygon class="cls-13" points="80.465 8.303 78.865 8.303 78.059 7.508 78.865 6.708 80.465 6.708 81.265 7.508 80.465 8.303"/><path class="cls-6" d="M78.71159,7.02571h.19181l.3617.58639h0V7.02571h.17537v.87137h-.18633l-.3617-.58091h0v.58091h-.18085Z"/><path class="cls-6" d="M80.18579,7.32165a.18086.18086,0,0,0-.18633-.15345c-.17537,0-.23565.148-.23565.29594s.06028.29045.23565.29045a.19729.19729,0,0,0,.19729-.19181h.18633a.36718.36718,0,0,1-.38288.35077l-.00074,0a.41653.41653,0,0,1-.42746-.44938.42746.42746,0,0,1,.39331-.45908q.017-.00132.03415-.00127a.35075.35075,0,0,1,.37266.31238Z"/><rect class="cls-13" x="78.06492" y="26.40397" width="1.35363" height="1.59476" rx="0.22469"/><polygon class="cls-13" points="80.465 27.993 78.865 27.993 78.059 27.199 78.865 26.404 80.465 26.404 81.265 27.199 80.465 27.993"/><path class="cls-6" d="M78.71159,26.72183h.19181l.3617.58091h0v-.58091h.17537v.86588h-.18633l-.3617-.58091h0v.58091h-.18085Z"/><path class="cls-6" d="M80.18579,27.01228a.18633.18633,0,0,0-.18633-.15344c-.17537,0-.23565.148-.23565.30141s.06028.29046.23565.29046a.19729.19729,0,0,0,.19729-.19729h.18633a.36719.36719,0,0,1-.37761.35644l-.006-.00023a.422.422,0,0,1-.42831-.41556q-.00025-.01692.00085-.03382a.42746.42746,0,0,1,.39331-.45908q.017-.00131.03415-.00126a.34525.34525,0,0,1,.37266.31237Z"/><rect class="cls-13" x="78.06492" y="24.2283" width="1.35363" height="1.59476" rx="0.22469"/><polygon class="cls-13" points="80.465 25.823 78.865 25.823 78.059 25.023 78.865 24.228 80.465 24.228 81.265 25.023 80.465 25.823"/><path class="cls-6" d="M78.71159,24.54616h.19181l.3617.58091h0v-.58091h.17537v.87136h-.18633l-.3617-.58639h0v.58639h-.18085Z"/><path class="cls-6" d="M80.18579,24.84209a.18085.18085,0,0,0-.18633-.15344c-.17537,0-.23565.14248-.23565.29593s.06028.29046.23565.29046a.19729.19729,0,0,0,.19729-.19181h.18633a.36718.36718,0,0,1-.38289.35077l-.00073,0a.41654.41654,0,0,1-.42746-.44939.42747.42747,0,0,1,.39331-.45908q.017-.00131.03415-.00126a.35075.35075,0,0,1,.37266.31238Z"/><rect class="cls-13" x="78.06492" y="22.08003" width="1.35363" height="1.59476" rx="0.22469"/><polygon class="cls-13" points="80.465 23.669 78.865 23.669 78.059 22.875 78.865 22.08 80.465 22.08 81.265 22.875 80.465 23.669"/><path class="cls-6" d="M78.71159,22.39789h.19181l.3617.58091h0v-.58091h.17537v.86588h-.18633l-.3617-.58091h0v.58091h-.18085Z"/><path class="cls-6" d="M80.18579,22.68835a.18633.18633,0,0,0-.18633-.15345c-.17537,0-.23565.148-.23565.29593s.06028.29594.23565.29594a.19729.19729,0,0,0,.19729-.19729h.18633a.36718.36718,0,0,1-.37761.35644l-.006-.00022a.45487.45487,0,0,1,0-.90973.34526.34526,0,0,1,.37266.31238Z"/><path class="cls-6" d="M69.27456,14.44053h.61379v.06028h-.61379Z"/><rect class="cls-13" x="71.46667" y="13.14718" width="1.35363" height="1.59476" rx="0.22469"/><polygon class="cls-13" points="70.42 13.147 72.02 13.147 72.82 13.942 72.02 14.736 70.42 14.736 69.62 13.942 70.42 13.147"/><path class="cls-6" d="M70.66655,13.45956h.1918l.36171.58639h0v-.58639h.17536v.87136h-.19181l-.3617-.58091h0v.58091h-.17536Z"/><path class="cls-6" d="M72.14074,13.75549a.18632.18632,0,0,0-.18633-.15344c-.17536,0-.23565.148-.23565.29593s.06029.29046.23565.29046a.19729.19729,0,0,0,.19729-.19181H72.338a.37266.37266,0,0,1-.38362.35621.422.422,0,0,1-.42869-.41516q-.00032-.01986.00123-.0397a.42746.42746,0,0,1,.39331-.45908q.01705-.00131.03415-.00126a.35621.35621,0,0,1,.37266.31785Z"/><path class="cls-6" d="M69.27456,16.6436h.61379v.06028h-.61379Z"/><rect class="cls-13" x="71.46667" y="15.35025" width="1.35363" height="1.59476" rx="0.22469"/><polygon class="cls-13" points="70.42 15.35 72.02 15.35 72.82 16.145 72.02 16.94 70.42 16.94 69.62 16.145 70.42 15.35"/><path class="cls-6" d="M70.66655,15.66263h.1918l.36171.58639h0v-.58639h.17536V16.534h-.19181l-.3617-.5809h0v.5809h-.17536Z"/><path class="cls-6" d="M72.14074,15.95857a.18632.18632,0,0,0-.18633-.15345c-.17536,0-.23565.148-.23565.29593s.06029.29046.23565.29046a.19729.19729,0,0,0,.19729-.19181H72.338a.37266.37266,0,0,1-.38362.35622.45487.45487,0,0,1,0-.90973.35073.35073,0,0,1,.37266.31238Z"/><path class="cls-6" d="M69.27456,18.85763h.61379v.06028h-.61379Z"/><rect class="cls-13" x="71.46667" y="17.56429" width="1.35363" height="1.59476" rx="0.22469"/><polygon class="cls-13" points="70.42 17.564 72.02 17.564 72.82 18.359 72.02 19.154 70.42 19.154 69.62 18.359 70.42 17.564"/><path class="cls-6" d="M70.66655,17.88214h.1918l.36171.58091h0v-.58091h.17536V18.748h-.19181l-.3617-.58091h0V18.748h-.17536Z"/><path class="cls-6" d="M72.14074,18.1726a.1918.1918,0,0,0-.18633-.15345c-.17536,0-.23565.148-.23565.29594s.06029.29593.23565.29593a.19729.19729,0,0,0,.19729-.19729H72.338a.36717.36717,0,0,1-.37761.35644l-.006-.00022a.45487.45487,0,0,1,0-.90973.35074.35074,0,0,1,.37266.31238Z"/><rect class="cls-13" x="71.46667" y="10.96603" width="1.35363" height="1.59476" rx="0.22469"/><polygon class="cls-13" points="70.42 10.966 72.02 10.966 72.82 11.766 72.02 12.561 70.42 12.561 69.62 11.766 70.42 10.966"/><path class="cls-6" d="M70.66655,11.28389h.1918l.36171.58091h0v-.58091h.17536v.86588h-.19181l-.3617-.58091h0v.58091h-.17536Z"/><path class="cls-6" d="M72.14074,11.57434a.18085.18085,0,0,0-.18633-.148c-.17536,0-.23565.14248-.23565.29593s.06029.29046.23565.29046a.19729.19729,0,0,0,.19729-.19729H72.338a.36718.36718,0,0,1-.37761.35644l-.006-.00023a.41653.41653,0,0,1-.42746-.44938.42746.42746,0,0,1,.39331-.45908q.01705-.00131.03415-.00126a.35621.35621,0,0,1,.37266.31237Z"/><path class="cls-6" d="M69.27456,10.06179h.61379v.06028h-.61379Z"/><rect class="cls-13" x="71.46667" y="8.8068" width="1.35363" height="1.59476" rx="0.22469"/><polygon class="cls-13" points="70.42 8.807 72.02 8.807 72.82 9.601 72.02 10.402 70.42 10.402 69.62 9.601 70.42 8.807"/><path class="cls-6" d="M70.66655,9.12466h.1918l.36171.58091h0V9.12466h.17536v.86588h-.19181l-.3617-.58091h0v.58091h-.17536Z"/><path class="cls-6" d="M72.14074,9.41512a.1918.1918,0,0,0-.18633-.15345c-.17536,0-.23565.148-.23565.30141s.06029.29046.23565.29046a.19729.19729,0,0,0,.19729-.19729H72.338a.36718.36718,0,0,1-.37761.35644l-.006-.00023a.422.422,0,0,1-.4283-.41555q-.00025-.01693.00084-.03383a.42746.42746,0,0,1,.39331-.45908q.01705-.0013.03415-.00126a.35073.35073,0,0,1,.37266.31237Z"/><rect class="cls-13" x="71.46667" y="6.66402" width="1.35363" height="1.59476" rx="0.22469"/><polygon class="cls-13" points="70.42 6.664 72.02 6.664 72.82 7.459 72.02 8.253 70.42 8.253 69.62 7.459 70.42 6.664"/><path class="cls-6" d="M70.66655,6.98187h.1918l.36171.58091h0V6.98187h.17536v.86589h-.19181l-.3617-.58091h0v.58091h-.17536Z"/><path class="cls-6" d="M72.14074,7.27233a.1918.1918,0,0,0-.18633-.15345c-.17536,0-.23565.148-.23565.29593s.06029.29594.23565.29594a.19729.19729,0,0,0,.19729-.19729H72.338a.36717.36717,0,0,1-.37761.35644l-.006-.00022a.45487.45487,0,0,1,0-.90973.35073.35073,0,0,1,.37266.31238Z"/><rect class="cls-13" x="71.46667" y="4.42258" width="1.35363" height="1.59476" rx="0.22469"/><polygon class="cls-13" points="70.42 4.423 72.02 4.423 72.82 5.217 72.02 6.012 70.42 6.012 69.62 5.217 70.42 4.423"/><path class="cls-6" d="M70.66655,4.735h.1918l.36171.58639h0V4.735h.17536v.87136h-.19181l-.3617-.58091h0v.58091h-.17536Z"/><path class="cls-6" d="M72.14074,5.03089a.18632.18632,0,0,0-.18633-.15344c-.17536,0-.23565.148-.23565.29593s.06029.29046.23565.29046A.19729.19729,0,0,0,72.1517,5.272H72.338a.36718.36718,0,0,1-.37761.35644l-.006-.00023a.422.422,0,0,1-.42869-.41516q-.00032-.01986.00123-.0397a.422.422,0,0,1,.38776-.45363q.01982-.00155.0397-.00123a.35073.35073,0,0,1,.37266.31237Z"/><path class="cls-6" d="M69.27456,32.05962h.61379v.06028h-.61379Z"/><rect class="cls-13" x="71.46667" y="30.76627" width="1.35363" height="1.59476" rx="0.22469"/><polygon class="cls-13" points="70.42 30.766 72.02 30.766 72.82 31.561 72.02 32.356 70.42 32.356 69.62 31.561 70.42 30.766"/><path class="cls-6" d="M70.66655,31.07865h.1918l.36171.58639h0v-.58639h.17536V31.95h-.19181l-.3617-.58091h0V31.95h-.17536Z"/><path class="cls-6" d="M72.14074,31.37458a.18632.18632,0,0,0-.18633-.15344c-.17536,0-.23565.148-.23565.29593s.06029.29046.23565.29046a.19729.19729,0,0,0,.19729-.19181H72.338a.37266.37266,0,0,1-.38362.35622.45487.45487,0,0,1,0-.90973.35073.35073,0,0,1,.37266.31238Z"/><path class="cls-6" d="M69.27456,34.22433h.61379v.06028h-.61379Z"/><rect class="cls-13" x="71.46667" y="32.93098" width="1.35363" height="1.59476" rx="0.22469"/><polygon class="cls-13" points="70.42 32.931 72.02 32.931 72.82 33.726 72.02 34.52 70.42 34.52 69.62 33.726 70.42 32.931"/><path class="cls-6" d="M70.66655,33.24336h.1918l.36171.58639h0v-.58639h.17536v.87136h-.19181l-.3617-.58091h0v.58091h-.17536Z"/><path class="cls-6" d="M72.14074,33.53929a.18632.18632,0,0,0-.18633-.15344c-.17536,0-.23565.148-.23565.29593s.06029.29046.23565.29046a.19729.19729,0,0,0,.19729-.19181H72.338a.37266.37266,0,0,1-.38362.35622.45487.45487,0,0,1,0-.90973.35073.35073,0,0,1,.37266.31238Z"/><path class="cls-6" d="M69.27456,36.44384h.61379v.06028h-.61379Z"/><rect class="cls-13" x="71.46667" y="35.15049" width="1.35363" height="1.59476" rx="0.22469"/><polygon class="cls-13" points="70.42 35.15 72.02 35.15 72.82 35.945 72.02 36.74 70.42 36.74 69.62 35.945 70.42 35.15"/><path class="cls-6" d="M70.66655,35.46287h.1918l.36171.58639h0v-.58639h.17536v.87137h-.19181l-.3617-.58091h0v.58091h-.17536Z"/><path class="cls-6" d="M72.14074,35.7588a.18632.18632,0,0,0-.18633-.15344c-.17536,0-.23565.148-.23565.29593s.06029.29046.23565.29046a.19729.19729,0,0,0,.19729-.19181H72.338a.36718.36718,0,0,1-.37761.35644l-.006-.00022a.45487.45487,0,0,1,0-.90973.35073.35073,0,0,1,.37266.31237Z"/><path class="cls-6" d="M69.27456,38.64691h.61379v.06028h-.61379Z"/><rect class="cls-13" x="71.46667" y="37.35357" width="1.35363" height="1.59476" rx="0.22469"/><polygon class="cls-13" points="70.42 37.354 72.02 37.354 72.82 38.148 72.02 38.943 70.42 38.943 69.62 38.148 70.42 37.354"/><path class="cls-6" d="M70.66655,37.67142h.1918l.36171.58091h0v-.58091h.17536v.86588h-.19181l-.3617-.5809h0v.5809h-.17536Z"/><path class="cls-6" d="M72.14074,37.96187a.1918.1918,0,0,0-.18633-.15344c-.17536,0-.23565.148-.23565.29593s.06029.29046.23565.29046a.19729.19729,0,0,0,.19729-.19181H72.338a.36718.36718,0,0,1-.37761.35644l-.006-.00022a.45487.45487,0,0,1,0-.90973.35073.35073,0,0,1,.37266.31237Z"/><rect class="cls-13" x="71.46667" y="28.5358" width="1.35363" height="1.59476" rx="0.22469"/><polygon class="cls-13" points="70.42 28.536 72.02 28.536 72.82 29.33 72.02 30.125 70.42 30.125 69.62 29.33 70.42 28.536"/><path class="cls-6" d="M70.66655,28.84818h.1918l.36171.58638h0v-.58638h.17536v.87136h-.19181l-.3617-.58091h0v.58091h-.17536Z"/><path class="cls-6" d="M72.14074,29.14411a.18633.18633,0,0,0-.18633-.15345c-.17536,0-.23565.148-.23565.29594s.06029.29045.23565.29045a.19727.19727,0,0,0,.19729-.19181H72.338a.37266.37266,0,0,1-.38362.35622.45486.45486,0,0,1,0-.90972.35073.35073,0,0,1,.37266.31237Z"/><path class="cls-6" d="M69.27456,27.65348h.61379v.06028h-.61379Z"/><rect class="cls-13" x="71.46667" y="26.39301" width="1.35363" height="1.59476" rx="0.22469"/><polygon class="cls-13" points="70.42 26.393 72.02 26.393 72.82 27.193 72.02 27.988 70.42 27.988 69.62 27.193 70.42 26.393"/><path class="cls-6" d="M70.66655,26.71087h.1918l.36171.58091h0v-.58091h.17536v.86588h-.19181l-.3617-.58091h0v.58091h-.17536Z"/><path class="cls-6" d="M72.14074,27.00132a.18084.18084,0,0,0-.18633-.148c-.17536,0-.23565.14248-.23565.29593s.06029.29045.23565.29045a.19729.19729,0,0,0,.19729-.19729H72.338a.36717.36717,0,0,1-.37761.35644l-.006-.00022a.41653.41653,0,0,1-.42746-.44938.42746.42746,0,0,1,.39331-.45908q.01705-.0013.03415-.00126a.35621.35621,0,0,1,.37266.31237Z"/><rect class="cls-13" x="71.46667" y="24.2283" width="1.35363" height="1.59476" rx="0.22469"/><polygon class="cls-13" points="70.42 24.228 72.02 24.228 72.82 25.028 72.02 25.823 70.42 25.823 69.62 25.028 70.42 24.228"/><path class="cls-6" d="M70.66655,24.54616h.1918l.36171.58091h0v-.58091h.17536V25.412h-.19181l-.3617-.58091h0V25.412h-.17536Z"/><path class="cls-6" d="M72.14074,24.83661a.18084.18084,0,0,0-.18633-.148c-.17536,0-.23565.14248-.23565.29593s.06029.29045.23565.29045.18085-.07672.19729-.19729H72.338a.36718.36718,0,0,1-.37761.35645l-.006-.00023a.41653.41653,0,0,1-.42746-.44938.42746.42746,0,0,1,.39331-.45908q.01705-.00131.03415-.00126a.35621.35621,0,0,1,.37266.31237Z"/><rect class="cls-13" x="71.46667" y="22.07455" width="1.35363" height="1.59476" rx="0.22469"/><polygon class="cls-13" points="70.42 22.075 72.02 22.075 72.82 22.869 72.02 23.664 70.42 23.664 69.62 22.869 70.42 22.075"/><path class="cls-6" d="M70.66655,22.38693h.1918l.36171.58639h0v-.58639h.17536v.87136h-.19181l-.3617-.58091h0v.58091h-.17536Z"/><path class="cls-6" d="M72.14074,22.68286a.18632.18632,0,0,0-.18633-.15344c-.17536,0-.23565.148-.23565.29593s.06029.29046.23565.29046a.19729.19729,0,0,0,.19729-.19181H72.338a.37266.37266,0,0,1-.38362.35622.45487.45487,0,0,1,0-.90973.35073.35073,0,0,1,.37266.31238Z"/><rect class="cls-14" x="75.73032" width="2.32912" height="43.39831"/><rect class="cls-14" x="72.82029" width="2.32912" height="43.39831"/><rect class="cls-15" x="71.46667" y="2.21403" width="1.35363" height="1.58928" rx="0.22469"/><rect class="cls-12" x="73.11623" width="2.03318" height="1.58928" rx="0.19181"/><rect class="cls-15" x="73.11623" y="2.17567" width="2.03318" height="1.58928" rx="0.19181"/><rect class="cls-13" x="73.11623" y="4.42258" width="2.03318" height="1.58928" rx="0.19181"/><rect class="cls-13" x="73.11623" y="6.66402" width="2.03318" height="1.58928" rx="0.19181"/><rect class="cls-13" x="73.11623" y="8.8068" width="2.03318" height="1.58928" rx="0.19181"/><rect class="cls-13" x="73.11623" y="10.95507" width="2.03318" height="1.58928" rx="0.19181"/><rect class="cls-13" x="73.11623" y="13.1691" width="2.03318" height="1.58928" rx="0.19181"/><rect class="cls-13" x="73.11623" y="15.35025" width="2.03318" height="1.58928" rx="0.19181"/><rect class="cls-13" x="73.11623" y="17.54785" width="2.03318" height="1.58928" rx="0.19181"/><rect class="cls-16" x="73.11623" y="19.77284" width="2.03318" height="1.58928" rx="0.19181"/><rect class="cls-13" x="73.11623" y="22.07455" width="2.03318" height="1.58928" rx="0.19181"/><rect class="cls-13" x="73.11623" y="24.2283" width="2.03318" height="1.58928" rx="0.19181"/><rect class="cls-12" x="75.73032" width="2.03318" height="1.58928" rx="0.19181"/><rect class="cls-15" x="75.73032" y="2.17567" width="2.03318" height="1.58928" rx="0.19181"/><rect class="cls-12" x="75.73032" y="4.42258" width="2.03318" height="1.58928" rx="0.19181"/><rect class="cls-13" x="75.73032" y="6.66402" width="2.03318" height="1.58928" rx="0.19181"/><rect class="cls-13" x="75.73032" y="8.8068" width="2.03318" height="1.58928" rx="0.19181"/><rect class="cls-13" x="75.73032" y="10.95507" width="2.03318" height="1.58928" rx="0.19181"/><rect class="cls-13" x="75.73032" y="13.1691" width="2.03318" height="1.58928" rx="0.19181"/><rect class="cls-13" x="75.73032" y="15.35025" width="2.03318" height="1.58928" rx="0.19181"/><rect class="cls-13" x="75.73032" y="17.54785" width="2.03318" height="1.58928" rx="0.19181"/><rect class="cls-16" x="75.73032" y="19.77284" width="2.03318" height="1.58928" rx="0.19181"/><rect class="cls-13" x="75.73032" y="22.07455" width="2.03318" height="1.58928" rx="0.19181"/><rect class="cls-13" x="75.73032" y="24.2283" width="2.03318" height="1.58928" rx="0.19181"/><rect class="cls-13" x="75.73032" y="26.38753" width="2.03318" height="1.58928" rx="0.19181"/><rect class="cls-13" x="75.73032" y="28.5358" width="2.03318" height="1.58928" rx="0.19181"/><rect class="cls-13" x="75.73032" y="30.74983" width="2.03318" height="1.58928" rx="0.19181"/><rect class="cls-13" x="75.73032" y="32.93098" width="2.03318" height="1.58928" rx="0.19181"/><rect class="cls-13" x="75.73032" y="35.12857" width="2.03318" height="1.58928" rx="0.19181"/><rect class="cls-13" x="75.73032" y="37.35357" width="2.03318" height="1.58928" rx="0.19181"/><rect class="cls-16" x="75.73032" y="39.65528" width="2.03318" height="1.58928" rx="0.19181"/><path class="cls-6" d="M76.0427,27.1a.33975.33975,0,0,1,.34525-.3891.30141.30141,0,0,1,.32254.2787q.00083.01134.0008.02271c0,.285-.3069.31238-.4439.50967h.45486v.16441h-.70148c0-.22469.13153-.31238.30142-.42746.08221-.06029.19729-.11509.19729-.23566a.14247.14247,0,0,0-.11089-.16824l-.00968-.00164h0c-.11508,0-.15344.12056-.15344.21921Z"/><path class="cls-6" d="M77.42921,26.89172h-.39459l-.03836.21373h0a.263.263,0,0,1,.18633-.07673.30143.30143,0,0,1,.29716.30562l-.00122.0232a.34526.34526,0,0,1-.34526.34526h0a.32333.32333,0,0,1-.35484-.28841l-.00138-.01849h.16989a.15345.15345,0,0,0,.15345.148.18085.18085,0,0,0,.16989-.18085h0a.17537.17537,0,0,0-.15345-.18085h0a.16444.16444,0,0,0-.148.07672H76.7935l.09864-.548h.548Z"/><path class="cls-6" d="M76.0427,29.20439a.33432.33432,0,0,1,.34525-.38362A.296.296,0,0,1,76.71,29.088q.00133.0143.00127.02867c0,.29045-.3069.31238-.4439.50967h.45486v.1644h-.70148c0-.21921.13153-.31237.30142-.42746.08221-.06028.19729-.11508.19729-.23017a.137.137,0,0,0-.12517-.14789l-.00088-.00008h0c-.11508,0-.15344.11509-.15344.21922Z"/><path class="cls-6" d="M77.45113,29.0071a1.18923,1.18923,0,0,0-.31238.78916h-.19181a1.403,1.403,0,0,1,.31786-.7782h-.44938V28.8427h.64667Z"/><path class="cls-6" d="M76.30027,35.852c.0822,0,.20277,0,.20277-.11509a.12605.12605,0,0,0-.10413-.11508h0c-.09864,0-.148.07672-.148.17537h-.18633a.31786.31786,0,0,1,.30077-.33407q.014-.00073.028-.00023a.30141.30141,0,0,1,.32333.26853.19181.19181,0,0,1-.137.19729h0a.20825.20825,0,0,1,.16989.21373.32882.32882,0,0,1-.33847.31887l-.01775-.001a.32334.32334,0,0,1-.35073-.35074h.18085a.17011.17011,0,0,0,.16988.19181.148.148,0,0,0,.15344-.14228l0-.00021h0c0-.148-.12605-.14249-.21921-.14249Z"/><path class="cls-6" d="M77.062,35.852c.0822,0,.20277,0,.20277-.11509a.13153.13153,0,0,0-.126-.13152h0c-.09864,0-.148.07672-.148.17537h-.18633a.32334.32334,0,0,1,.312-.3343q.01114-.00039.02231,0a.29592.29592,0,0,1,.31785.26853.19728.19728,0,0,1-.13152.19729h0a.21921.21921,0,0,1,.16988.21373.35659.35659,0,1,1-.71243-.03288h.1644c0,.10413.0548.19181.16441.19181a.15344.15344,0,0,0,.15893-.14249h0c0-.148-.12605-.14249-.22469-.14249Z"/><path class="cls-6" d="M76.30027,38.08792c.0822,0,.20277,0,.20277-.12056a.126.126,0,0,0-.126-.126h0c-.09864,0-.148.07124-.148.16988H76.0427a.31238.31238,0,0,1,.32882-.32881.29593.29593,0,0,1,.32333.263.1918.1918,0,0,1-.137.19729h0a.21374.21374,0,0,1,.16989.21922.32881.32881,0,0,1-.34373.31319l-.01249-.00082a.3179.3179,0,0,1-.35074-.34525h.18085a.16566.16566,0,0,0,.16989.18632.148.148,0,0,0,.15344-.14228l0-.00021h0c0-.14248-.126-.14248-.21921-.14248Z"/><path class="cls-6" d="M77.42921,37.85775h-.39459l-.03836.21921h0a.23566.23566,0,0,1,.18633-.07124.29593.29593,0,0,1,.2972.29466q.00006.01437-.00126.02868a.35073.35073,0,0,1-.35074.34525h0a.32333.32333,0,0,1-.35511-.28808l-.00111-.01334h.17537a.15344.15344,0,0,0,.15345.14249.18085.18085,0,0,0,.16989-.18085h0a.16441.16441,0,0,0-.15272-.17532l-.00073-.00005h0a.15347.15347,0,0,0-.148.07673H76.799l.09316-.548h.548Z"/><path class="cls-6" d="M76.0427,31.46227a.33975.33975,0,0,1,.34525-.3891.3014.3014,0,0,1,.32257.27866l.00077.01727c0,.29046-.3069.31238-.4439.50967h.45486v.16989h-.70148c0-.22469.13153-.31786.30142-.42746.08221-.06029.19729-.11509.19729-.23565a.137.137,0,0,0-.12057-.148h0c-.11508,0-.15344.12056-.15344.21921Z"/><path class="cls-6" d="M76.97982,31.7856a.137.137,0,0,0,.126.12057c.14249,0,.17537-.18633.18085-.29045h0a.24659.24659,0,0,1-.21373.1096.33976.33976,0,0,1-.22469-.09864.3343.3343,0,0,1-.07124-.21373.3288.3288,0,0,1,.30609-.35006q.01408-.00095.0282-.00068c.29046,0,.36718.25209.36718.49323s-.10413.4987-.37266.4987a.29044.29044,0,0,1-.31237-.263Zm.29046-.3891a.1699.1699,0,0,0-.148-.18085h0a.15893.15893,0,0,0-.14853.16869l.00057.00668c0,.08769.04384.18085.148.18085a.15343.15343,0,0,0,.15345-.17537Z"/><path class="cls-6" d="M76.30027,33.69274c.0822,0,.20277,0,.20277-.12057a.126.126,0,0,0-.10413-.14248h0c-.09864,0-.148.07124-.148.16989h-.18633a.31238.31238,0,0,1,.32882-.32882.29593.29593,0,0,1,.32333.263.19181.19181,0,0,1-.137.19729h0a.21374.21374,0,0,1,.16989.21922.32333.32333,0,0,1-.33247.31393l-.02375-.00156a.31786.31786,0,0,1-.35073-.34526h.18085a.16565.16565,0,0,0,.16988.18633.14248.14248,0,0,0,.15311-.131l.00034-.006h0c0-.14249-.12605-.14249-.21921-.14249Z"/><path class="cls-6" d="M77.28124,34.26269h-.19181v-.61927H76.8483v-.148c.137,0,.25757-.04384.27949-.19181h.15345Z"/><path class="cls-6" d="M76.30027,40.38964c.0822,0,.20277,0,.20277-.11509a.126.126,0,0,0-.12045-.13141L76.377,40.143h0c-.09864,0-.148.07672-.148.17536H76.0427a.31232.31232,0,0,1,.32882-.33429.29594.29594,0,0,1,.3231.266l.00023.00252a.18633.18633,0,0,1-.137.19181h0a.21373.21373,0,0,1,.16989.21921.32333.32333,0,0,1-.33247.31393l-.02375-.00155a.3179.3179,0,0,1-.35074-.34526h.18085a.16566.16566,0,0,0,.16989.18633.14249.14249,0,0,0,.15311-.131l.00034-.006h0c0-.14249-.126-.14249-.21921-.14249Z"/><path class="cls-6" d="M77.45113,40.17043a1.20016,1.20016,0,0,0-.31238.78916h-.19181a1.38652,1.38652,0,0,1,.31786-.77272h-.44938V40.006h.64667Z"/><rect class="cls-15" x="75.73032" y="41.80903" width="2.03318" height="1.58928" rx="0.19181"/><rect class="cls-13" x="73.11623" y="26.38753" width="2.03318" height="1.58928" rx="0.19181"/><path class="cls-6" d="M76.30027,42.55435c.0822,0,.20277,0,.20277-.11509a.126.126,0,0,0-.12045-.13141l-.0056-.00011h0c-.09864,0-.148.07672-.148.17537H76.0427a.31239.31239,0,0,1,.32882-.3343.29594.29594,0,0,1,.3231.266l.00023.00252a.18633.18633,0,0,1-.137.19181h0a.20825.20825,0,0,1,.16989.21373.32881.32881,0,0,1-.34373.3132l-.01249-.00082a.3179.3179,0,0,1-.35074-.34526h.18085a.17011.17011,0,0,0,.16989.19181.15345.15345,0,0,0,.15345-.14249h0c0-.148-.126-.14249-.21921-.14249Z"/><path class="cls-6" d="M76.97982,42.87768a.137.137,0,0,0,.126.12057c.14249,0,.17537-.18633.18085-.29045h0a.24661.24661,0,0,1-.21373.1096.31783.31783,0,0,1-.22469-.09865.37257.37257,0,0,1-.07124-.21373.32881.32881,0,0,1,.30609-.35006q.01408-.00095.0282-.00067c.29046,0,.36718.25209.36718.49322s-.10413.49871-.37266.49871a.29045.29045,0,0,1-.31237-.26306Zm.29046-.3891a.1644.1644,0,0,0-.1468-.1803l-.00665-.00055a.15893.15893,0,0,0-.14853.16869l.00056.00668c0,.08769.04385.18085.148.18085a.15349.15349,0,0,0,.15345-.17537Z"/><rect class="cls-13" x="73.11623" y="28.5358" width="2.03318" height="1.58928" rx="0.19181"/><rect class="cls-13" x="73.11623" y="30.74983" width="2.03318" height="1.58928" rx="0.19181"/><rect class="cls-13" x="73.11623" y="32.93098" width="2.03318" height="1.58928" rx="0.19181"/><rect class="cls-13" x="73.11623" y="35.12857" width="2.03318" height="1.58928" rx="0.19181"/><rect class="cls-13" x="73.11623" y="37.35357" width="2.03318" height="1.58928" rx="0.19181"/><rect class="cls-17" x="73.11623" y="39.65528" width="2.03318" height="1.58928" rx="0.19181"/><rect class="cls-15" x="73.11623" y="41.80903" width="2.03318" height="1.58928" rx="0.19181"/><path class="cls-6" d="M73.80674.79464A.33981.33981,0,0,1,74.152.40554a.3069.3069,0,0,1,.32819.284l.00062.01193c0,.29045-.30689.31237-.44938.50966h.45487V1.381h-.70148c0-.22469.137-.31786.30142-.42746s.19729-.12057.19729-.23565a.13154.13154,0,0,0-.114-.147L74.15748.57h0c-.11509,0-.148.12056-.148.21921Z"/><path class="cls-6" d="M73.42861,27.1a.33975.33975,0,0,1,.34525-.3891.30141.30141,0,0,1,.32254.2787q.00083.01134.0008.02271c0,.29046-.3069.31238-.44391.50967h.44939v.16441H73.4012c0-.21921.137-.31238.30142-.42746s.20277-.11509.20277-.23017a.137.137,0,0,0-.12517-.1479l-.00088-.00007h0c-.11508,0-.15344.11508-.15344.21921Z"/><path class="cls-6" d="M74.66167,26.97392a.13152.13152,0,0,0-.12605-.11508c-.137,0-.18085.18633-.18085.29045h0a.24111.24111,0,0,1,.21373-.10412.31782.31782,0,0,1,.22469.09864.33437.33437,0,0,1,.07125.21373.32883.32883,0,0,1-.31156.34522l-.00082,0h0c-.29045,0-.36718-.25757-.36718-.49871s.10413-.4987.37266-.4987a.29594.29594,0,0,1,.31238.26853Zm-.29046.39458a.15893.15893,0,0,0,.14128.1748l.00669.00057h0a.15892.15892,0,0,0,.14853-.16868l-.00056-.00669c0-.08768-.04385-.17537-.148-.17537a.15346.15346,0,0,0-.155.15187.15526.15526,0,0,0,.00157.0235Z"/><path class="cls-6" d="M73.68618,33.70918c.0822,0,.20277,0,.20277-.12057a.126.126,0,0,0-.126-.126h0c-.09864,0-.148.07124-.148.16989h-.18633a.31238.31238,0,0,1,.32882-.32882.29594.29594,0,0,1,.32333.263.19181.19181,0,0,1-.137.19729h0a.21374.21374,0,0,1,.16989.21922.35622.35622,0,0,1-.707-.03289h.18085a.16855.16855,0,0,0,.16989.18633.14248.14248,0,0,0,.15311-.131l.00034-.006h0c0-.14249-.12605-.137-.21921-.137Z"/><path class="cls-6" d="M74.2068,33.68726a.33977.33977,0,0,1,.34526-.38362.3014.3014,0,0,1,.32759.27274l.00123.0232c0,.29045-.3069.31237-.44391.50966h.44939v.16441h-.70148c0-.21921.137-.31238.30142-.422s.20277-.12057.20277-.23565a.137.137,0,0,0-.12517-.1479l-.00088-.00007h0c-.11508,0-.15344.12057-.15344.21921Z"/><path class="cls-6" d="M73.68618,38.10436c.0822,0,.20277,0,.20277-.12056a.126.126,0,0,0-.126-.126h0c-.09864,0-.148.07124-.148.16988h-.18633a.31238.31238,0,0,1,.32882-.32881.29593.29593,0,0,1,.32333.263.1918.1918,0,0,1-.137.19729h0a.21374.21374,0,0,1,.16989.21922.32333.32333,0,0,1-.333.3134l-.01777-.001a.31786.31786,0,0,1-.35622-.34525h.18085a.16855.16855,0,0,0,.16989.18632.14248.14248,0,0,0,.15311-.131l.00034-.006h0c0-.14249-.12605-.14249-.21921-.14249Z"/><path class="cls-6" d="M74.66167,37.96187a.137.137,0,0,0-.12605-.12056c-.137,0-.18085.18632-.18085.29045h0a.24114.24114,0,0,1,.21373-.10413.31787.31787,0,0,1,.22469.09865.35623.35623,0,0,1-.24113.548h0c-.29045,0-.36718-.25209-.36718-.49871s.10413-.49871.37266-.49871a.29594.29594,0,0,1,.31238.26854Zm-.29046.39458a.16442.16442,0,0,0,.148.17537h0a.15892.15892,0,0,0,.14853-.16868l-.00056-.00669c0-.08768-.04385-.18085-.148-.18085s-.15345.08221-.15345.18085Z"/><path class="cls-6" d="M73.68618,40.40608c.0822,0,.20277,0,.20277-.11508a.126.126,0,0,0-.126-.126h0c-.09864,0-.148.07124-.148.16988h-.18633a.31786.31786,0,0,1,.30077-.33406q.014-.00074.028-.00023a.30141.30141,0,0,1,.32333.26853.19181.19181,0,0,1-.137.19729h0a.21373.21373,0,0,1,.16989.21921.32334.32334,0,0,1-.333.31341l-.01777-.001a.31786.31786,0,0,1-.35622-.34526h.18085a.16855.16855,0,0,0,.16989.18633.14249.14249,0,0,0,.15311-.131l.00034-.006h0c0-.14249-.12605-.14249-.21921-.14249Z"/><path class="cls-6" d="M74.5137,40.006a.285.285,0,0,1,.32166.2428l.00167.01477a.20823.20823,0,0,1-.14249.20277h0a.22469.22469,0,0,1,.18085.23566.31786.31786,0,0,1-.33678.29773l-.01943-.0018c-.18085,0-.36718-.09316-.36718-.29593a.23017.23017,0,0,1,.18085-.23566h0a.1918.1918,0,0,1-.14249-.19729A.29593.29593,0,0,1,74.5137,40.006Zm0,.84944a.1644.1644,0,0,0,.16441-.15344h0a.15893.15893,0,0,0-.15345-.15345h0a.15352.15352,0,0,0-.16989.15345.16442.16442,0,0,0,.15893.16441h0Zm0-.4439a.12609.12609,0,0,0,.14249-.126.13153.13153,0,0,0-.12057-.137h0a.14249.14249,0,0,0-.148.12056h0a.137.137,0,0,0,.1471.12612l.00087-.00007Z"/><path class="cls-6" d="M73.80126,42.86124h-.40553v-.17537l.4165-.548h.17537v.548h.126v.15893h-.126V43.064h-.18633Zm0-.49322h0l-.24661.33429h.2521Z"/><path class="cls-6" d="M74.5137,42.11044c.19181,0,.35074.12057.35074.49323s-.15893.49871-.35074.49871-.35074-.12057-.35074-.49871S74.32189,42.11044,74.5137,42.11044Zm0,.833c.15893,0,.15893-.23565.15893-.33978s0-.33429-.15893-.33429-.15893.23017-.15893.33429S74.35477,42.94345,74.5137,42.94344Z"/><path class="cls-6" d="M73.42861,29.20439a.33432.33432,0,0,1,.34525-.38362.296.296,0,0,1,.32207.26727q.00133.0143.00127.02867c0,.29045-.3069.31238-.44391.50967h.44939v.1644H73.4012c0-.21921.137-.31237.30142-.42746s.20277-.11508.20277-.23017a.137.137,0,0,0-.12517-.14789l-.00088-.00008h0c-.11508,0-.15344.11509-.15344.21922Z"/><path class="cls-6" d="M74.5137,28.82077a.285.285,0,0,1,.32166.24281l.00167.01477a.20825.20825,0,0,1-.14249.19729h0a.22468.22468,0,0,1,.18085.23565.31785.31785,0,0,1-.33678.29773l-.01943-.00179c-.18085,0-.36718-.08769-.36718-.29594a.22469.22469,0,0,1,.18085-.23017h0a.19182.19182,0,0,1-.14249-.19729A.302.302,0,0,1,74.5137,28.82077Zm0,.844a.15345.15345,0,0,0,.16409-.142l.00032-.006h0a.15345.15345,0,0,0-.15345-.15345h0a.15345.15345,0,0,0-.169.13613.15176.15176,0,0,0-.00089.01732.15894.15894,0,0,0,.15893.15893h0Zm0-.44391a.12927.12927,0,1,0,.02216-.25756l-.00024,0h0a.137.137,0,0,0-.148.12057h0a.1425.1425,0,0,0,.148.13153Z"/><path class="cls-6" d="M73.68618,31.50063c.0822,0,.20277,0,.20277-.12057a.126.126,0,0,0-.126-.126h0c-.09864,0-.148.07124-.148.16989h-.18633a.31238.31238,0,0,1,.32882-.32882.29593.29593,0,0,1,.32333.263.19181.19181,0,0,1-.137.19729h0a.21374.21374,0,0,1,.16989.21922.32333.32333,0,0,1-.333.3134l-.01777-.001a.31786.31786,0,0,1-.35622-.34526h.18085a.16855.16855,0,0,0,.16989.18633.14249.14249,0,0,0,.15311-.131l.00034-.006h0c0-.14249-.12605-.14249-.21921-.14249Z"/><path class="cls-6" d="M74.5137,31.08961c.19181,0,.35074.12057.35074.49322s-.15893.50419-.35074.50419-.35074-.12057-.35074-.50419S74.32189,31.08961,74.5137,31.08961Zm0,.833c.15893,0,.15893-.23017.15893-.33978s0-.33429-.15893-.33429-.15893.23565-.15893.33429S74.35477,31.92261,74.5137,31.92261Z"/><path class="cls-6" d="M73.68618,35.852c.0822,0,.20277,0,.20277-.11509a.126.126,0,0,0-.12045-.13141l-.0056-.00011h0c-.09864,0-.148.07672-.148.17537h-.18633a.31786.31786,0,0,1,.30077-.33407q.014-.00073.028-.00023a.30141.30141,0,0,1,.32333.26853.19181.19181,0,0,1-.137.19729h0a.20825.20825,0,0,1,.16989.21373.35622.35622,0,0,1-.707-.03288h.18085a.17315.17315,0,0,0,.16989.19181.14249.14249,0,0,0,.153-.1311l.00042-.01139h0c0-.148-.12605-.14249-.21921-.14249Z"/><path class="cls-6" d="M74.55754,36.20271H74.152v-.18085l.4165-.548h.18633v.548h.12605v.15892h-.12605V36.4H74.5685Zm0-.49323h0l-.24661.3343h.24661Z"/><path class="cls-6" d="M76.9031,1.32075h-.19181V.70148h-.24113V.548c.137,0,.25757-.04384.27949-.18633h.15345Z"/><path class="cls-6" d="M76.67841,2.932c.0822,0,.20277,0,.20277-.12057a.12056.12056,0,0,0-.115-.12592l-.00561-.00012h0c-.09864,0-.148.07124-.148.16988h-.21374a.31238.31238,0,0,1,.32882-.32881.29593.29593,0,0,1,.32333.26305.1918.1918,0,0,1-.137.19729h0a.20278.20278,0,0,1,.16989.21373.35622.35622,0,0,1-.685-.0274h.18085a.17315.17315,0,0,0,.16989.19181.148.148,0,0,0,.15344-.14229l0-.0002h0c0-.14248-.126-.137-.21921-.137Z"/><path class="cls-6" d="M77.05107,4.93225h-.39458l-.03836.21921h0a.23563.23563,0,0,1,.19181-.07672.29592.29592,0,0,1,.2972.29466q.00006.01436-.00127.02867a.35073.35073,0,0,1-.34526.35074h0a.32334.32334,0,0,1-.3617-.26853h.1973a.148.148,0,0,0,.15324.14249l.0002,0a.16441.16441,0,0,0,.16478-.164l-.00037-.01132h0a.1644.1644,0,0,0-.14633-.18069l-.00163-.00016h0a.1644.1644,0,0,0-.148.07672h-.21922l.09865-.548h.548Z"/><path class="cls-6" d="M76.59621,9.82066a.137.137,0,0,0,.13152.11508c.14249,0,.17537-.18633.18085-.29045h0a.24661.24661,0,0,1-.21921.10412.31237.31237,0,0,1-.21921-.09864.33437.33437,0,0,1-.07125-.21373A.32883.32883,0,0,1,76.705,9.087q.01408-.00093.0282-.00067c.29046,0,.36718.25757.36718.4987s-.10413.49871-.37814.49871a.29047.29047,0,0,1-.3069-.26853Zm.29593-.39458a.1644.1644,0,0,0-.148-.17537h0a.15893.15893,0,0,0-.14853.16868l.00057.00669c0,.08768.04384.18085.148.18085a.16441.16441,0,0,0,.14813-.17922Z"/><path class="cls-6" d="M76.525,12.24294h-.19729v-.61927H76.092v-.148a.24114.24114,0,0,0,.2795-.19181H76.525Z"/><path class="cls-6" d="M77.28124,12.24294h-.19181v-.61927H76.8483v-.148c.137,0,.25757-.04384.27949-.19181h.15345Z"/><path class="cls-6" d="M76.525,18.86859h-.19729v-.61927H76.092v-.16441c.13153,0,.25757-.04384.2795-.19181H76.525Z"/><path class="cls-6" d="M77.45113,18.08491a1.18923,1.18923,0,0,0-.31238.78916h-.19181a1.41942,1.41942,0,0,1,.31786-.7782h-.44938V17.9205h.64667Z"/><path class="cls-6" d="M76.525,21.09359h-.19729v-.61928H76.092v-.148c.13153,0,.25757-.04385.2795-.18633H76.525Z"/><path class="cls-6" d="M76.97982,20.82505a.137.137,0,0,0,.126.12057c.14249,0,.17537-.18633.18085-.29046h0a.2466.2466,0,0,1-.21373.10961.31783.31783,0,0,1-.22469-.09865.33428.33428,0,0,1-.07124-.21373.32881.32881,0,0,1,.30609-.35006q.01408-.00094.0282-.00067c.29046,0,.36718.25209.36718.49322s-.10413.50419-.37266.50419a.30141.30141,0,0,1-.31237-.26854Zm.29046-.3891a.1699.1699,0,0,0-.148-.18085h0a.15893.15893,0,0,0-.14853.16869l.00057.00668c0,.08768.04384.18085.148.18085a.15343.15343,0,0,0,.15345-.17537Z"/><path class="cls-6" d="M76.0427,22.78151a.33427.33427,0,0,1,.34525-.38362.3014.3014,0,0,1,.32257.27866l.00077.01728c0,.29045-.3069.31237-.4439.50966h.45486v.16441h-.70148c0-.22469.13153-.31238.30142-.42746.08221-.06029.19729-.11509.19729-.23565a.14249.14249,0,0,0-.12605-.148h0c-.11508,0-.15344.12056-.15344.21921Z"/><path class="cls-6" d="M77.28124,23.3679h-.19181v-.61927H76.8483v-.148c.137,0,.25757-.04384.27949-.18633h.15345Z"/><path class="cls-6" d="M76.0427,24.96814a.33432.33432,0,0,1,.34525-.38362.30142.30142,0,0,1,.32257.27866l.00077.01728c0,.29045-.3069.31237-.4439.50966h.45486v.16441h-.70148c0-.21921.13153-.31238.30142-.42746.08221-.0548.19729-.11509.19729-.23017a.137.137,0,0,0-.12517-.1479l-.00088-.00007h0c-.11508,0-.15344.11509-.15344.21921Z"/><path class="cls-6" d="M77.062,24.99006c.0822,0,.20277,0,.20277-.12057a.126.126,0,0,0-.126-.126h0c-.09864,0-.148.07124-.148.16989h-.18633a.31785.31785,0,0,1,.30625-.32905q.014-.00051.02805.00023a.29594.29594,0,0,1,.31785.263.19727.19727,0,0,1-.13152.19729h0a.22469.22469,0,0,1,.16988.21922.32881.32881,0,0,1-.34373.31319l-.01248-.00082a.32335.32335,0,0,1-.35622-.34526h.1644a.16439.16439,0,0,0,.16441.18633.148.148,0,0,0,.15887-.13619l.00006-.00081h0c0-.14249-.12605-.14249-.22469-.14249Z"/><path class="cls-6" d="M74.2068,3.33749h-.40006V3.15664l.411-.548h.17537v.548h.12605v.15893h-.12605v.22469H74.2068Zm0-.49323h0l-.24661.3343h.24661Z"/><path class="cls-6" d="M73.91087,12.29774h-.19181v-.61927h-.24113v-.16989c.13152,0,.25757-.04384.27949-.18633h.15345Z"/><path class="cls-6" d="M74.2068,11.71135a.33432.33432,0,0,1,.34526-.38362.3014.3014,0,0,1,.32759.27274l.00123.0232c0,.29045-.3069.31237-.44391.50966h.44939v.16441h-.70148c0-.21921.137-.31237.30142-.42746s.20277-.11509.20277-.23017a.137.137,0,0,0-.12517-.1479l-.00088-.00007h0c-.11508,0-.15344.11508-.15344.21921Z"/><path class="cls-6" d="M73.91087,16.7258h-.19181v-.61927h-.24113v-.148c.13152,0,.25757-.04384.27949-.18632h.15345Z"/><path class="cls-6" d="M74.66167,16.01885a.137.137,0,0,0-.12605-.12057c-.137,0-.18085.18633-.18085.29046h0a.24661.24661,0,0,1,.21373-.10961.33973.33973,0,0,1,.22469.09865.35393.35393,0,0,1-.24113.56446h0c-.29045,0-.36718-.25209-.36718-.49322s.10413-.49871.37266-.49871a.29047.29047,0,0,1,.31238.26306Zm-.29046.3891a.16441.16441,0,0,0,.14633.18068l.00164.00017h0a.15893.15893,0,0,0,.14853-.16869l-.00056-.00668c0-.08769-.04385-.18085-.148-.18085a.15345.15345,0,0,0-.155.15186.15539.15539,0,0,0,.00157.02351Z"/><path class="cls-6" d="M73.91087,18.92888h-.19181V18.3096h-.24113v-.148c.13152,0,.25757-.03837.27949-.18633h.15345Z"/><path class="cls-6" d="M74.5137,17.95339a.285.285,0,0,1,.32166.2428l.00167.01477a.20824.20824,0,0,1-.14249.20277h0a.22468.22468,0,0,1,.18085.23565.31785.31785,0,0,1-.33678.29773l-.01943-.00179c-.18085,0-.36718-.08769-.36718-.29594a.23564.23564,0,0,1,.18085-.23565h0a.19182.19182,0,0,1-.14249-.19729A.29593.29593,0,0,1,74.5137,17.95339Zm0,.84944a.16441.16441,0,0,0,.16441-.15345h0a.159.159,0,0,0-.15345-.15345h0a.148.148,0,0,0-.16989.148.16442.16442,0,0,0,.15893.16441h0Zm0-.44391a.12609.12609,0,0,0,.14249-.126.13153.13153,0,0,0-.12057-.137h0a.13152.13152,0,0,0-.14771.113l-.00026.002h0a.137.137,0,0,0,.1471.12611l.00087-.00007Z"/><path class="cls-6" d="M73.42861,22.84179a.3398.3398,0,0,1,.34525-.3891.30142.30142,0,0,1,.32254.2787q.00083.01134.0008.02272c0,.29045-.3069.31237-.44391.50966h.44939v.16441H73.4012c0-.21921.137-.31237.30142-.42746s.20277-.11508.20277-.23017a.137.137,0,0,0-.12517-.1479l-.00088-.00007h0c-.11508,0-.15344.11509-.15344.21921Z"/><path class="cls-6" d="M74.2068,22.84179a.33981.33981,0,0,1,.34526-.3891.30691.30691,0,0,1,.32807.28416l.00075.01726c0,.29045-.3069.31237-.44391.50966h.44939v.16441h-.70148c0-.21921.137-.31237.30142-.42746s.20277-.11508.20277-.23017a.137.137,0,0,0-.12517-.1479l-.00088-.00007h0c-.11508,0-.15344.11509-.15344.21921Z"/><path class="cls-6" d="M74.28353,5.09118a.137.137,0,0,0-.126-.12057c-.14249,0-.18085.18633-.18633.29046h0a.24662.24662,0,0,1,.21373-.10961.31789.31789,0,0,1,.21921.09864.33983.33983,0,0,1,.07673.21374.3343.3343,0,0,1-.31745.35033q-.00841.00042-.01685.0004c-.29045,0-.36718-.25209-.36718-.49322s.10413-.49871.37266-.49871a.29047.29047,0,0,1,.31238.26306Zm-.29046.3891a.16441.16441,0,0,0,.14633.18068l.00164.00017h0a.18085.18085,0,0,0,0-.35622.15345.15345,0,0,0-.1495.1573Z"/><polygon class="cls-15" points="71.664 2.209 69.817 2.209 68.891 3.009 69.817 3.803 71.664 3.803 72.59 3.009 71.664 2.209"/><path class="cls-6" d="M70.32129,3.28817a.285.285,0,0,1-.23565.11508.41644.41644,0,0,1-.42746-.44938.422.422,0,0,1,.38775-.45363q.01981-.00154.03971-.00123a.33977.33977,0,0,1,.3617.30141h-.18085a.18086.18086,0,0,0-.18085-.148c-.17537,0-.23565.148-.23565.29594s.06028.29045.23565.29045a.18084.18084,0,0,0,.202-.15689l.00079-.00752h-.18633v-.148h.3617v.4713h-.09317Z"/><path class="cls-6" d="M70.61722,2.52641H70.809l.3617.58639h0V2.52641h.18085v.87136h-.19181l-.3617-.58091h0v.58091H70.6227Z"/><path class="cls-6" d="M71.516,2.52641h.37814a.38365.38365,0,0,1,.39458.43294.38907.38907,0,0,1-.39458.43842H71.516Zm.19181.707h.17536c.10961,0,.21373-.06576.21373-.25757s-.06028-.285-.25209-.285h-.137Z"/><rect class="cls-15" x="71.46667" y="41.80903" width="1.35363" height="1.58928" rx="0.22469"/><polygon class="cls-15" points="71.664 41.809 69.817 41.809 68.891 42.609 69.817 43.404 71.664 43.404 72.59 42.609 71.664 41.809"/><path class="cls-6" d="M70.32129,42.89412a.29045.29045,0,0,1-.23565.12057.41644.41644,0,0,1-.42746-.44938.42188.42188,0,0,1,.42746-.46034.34525.34525,0,0,1,.3617.30689h-.18085a.17538.17538,0,0,0-.18085-.14249c-.17537,0-.23565.14249-.23565.29594s.06028.29045.23565.29045a.18633.18633,0,0,0,.20277-.16441h-.18633V42.527h.3617v.46582h-.09317Z"/><path class="cls-6" d="M70.61722,42.12689H70.809l.3617.58091h0v-.58091h.18085v.86588h-.19181l-.3617-.58091h0v.58091H70.6227Z"/><path class="cls-6" d="M71.516,42.12689h.37814a.37815.37815,0,0,1,.39458.42746.38907.38907,0,0,1-.39458.43842H71.516Zm.19181.70695h.17536c.10961,0,.21373-.06576.21373-.25757s-.06028-.29045-.25209-.29045h-.137Z"/><rect class="cls-15" x="78.0704" y="2.21403" width="1.35363" height="1.58928" rx="0.22469"/><polygon class="cls-15" points="79.238 2.214 81.085 2.214 82.011 3.009 81.085 3.803 79.238 3.803 78.312 3.009 79.238 2.214"/><path class="cls-6" d="M79.25414,3.28817a.30143.30143,0,0,1-.23565.11508.41644.41644,0,0,1-.42746-.44938.42745.42745,0,0,1,.3933-.45908q.01705-.00132.03416-.00126a.35073.35073,0,0,1,.36717.30689h-.18632a.17537.17537,0,0,0-.18085-.148c-.17537,0-.23566.148-.23566.29594s.06029.29045.23566.29045a.18084.18084,0,0,0,.202-.15689l.00079-.00752h-.19181v-.148h.36718v.4713h-.12605Z"/><path class="cls-6" d="M79.55007,2.52641h.19181l.3617.58639h0V2.52641h.18085v.87136h-.19181l-.3617-.58091h0v.58091h-.17536Z"/><path class="cls-6" d="M80.44884,2.52641H80.827a.3836.3836,0,0,1,.39458.43294.38907.38907,0,0,1-.39458.43842h-.37266Zm.19181.707h.16988c.11509,0,.21922-.06576.21922-.25757s-.06577-.285-.2521-.285h-.137Z"/><rect class="cls-15" x="78.0704" y="41.80903" width="1.35363" height="1.58928" rx="0.22469"/><polygon class="cls-15" points="79.238 41.809 81.085 41.809 82.011 42.609 81.085 43.404 79.238 43.404 78.312 42.609 79.238 41.809"/><path class="cls-6" d="M79.25414,42.89412a.29045.29045,0,0,1-.23565.12057.45487.45487,0,1,1,0-.90973h0a.35073.35073,0,0,1,.36717.3069h-.18632a.18085.18085,0,0,0-.18085-.148c-.17537,0-.23566.148-.23566.30142s.06029.29045.23566.29045a.18632.18632,0,0,0,.20264-.16844l.00013-.00145h-.19181v-.14248h.36718v.4713h-.12605Z"/><path class="cls-6" d="M79.55007,42.12689h.19181l.3617.58091h0v-.58091h.18085v.86588h-.19181l-.3617-.58091h0v.58091h-.17536Z"/><path class="cls-6" d="M80.44884,42.12689H80.827a.37815.37815,0,0,1,.39458.42746c0,.25209-.126.43842-.39458.43842h-.37266Zm.19181.70695h.16988c.11509,0,.21922-.06576.21922-.25757s-.06577-.29045-.2521-.29045h-.137Z"/><path class="cls-6" d="M74.13556,7.00927a.285.285,0,0,1,.317.24893l.00091.00865a.19729.19729,0,0,1-.137.20277h0a.22468.22468,0,0,1,.18085.23017A.32333.32333,0,0,1,74.155,8.003l-.01939-.00177c-.17537,0-.3617-.09316-.3617-.29593a.22469.22469,0,0,1,.18085-.23565h0a.19183.19183,0,0,1-.14249-.19729.29047.29047,0,0,1,.31475-.26394Zm0,.84945a.15893.15893,0,0,0,.16441-.148h0a.148.148,0,0,0-.14786-.14807l-.00559.0001h0a.14794.14794,0,0,0-.16988.148.15892.15892,0,0,0,.15335.16431l.00558.0001Zm0-.44391a.126.126,0,0,0,.14249-.126.13153.13153,0,0,0-.12057-.137h0a.13153.13153,0,0,0-.14771.113l-.00025.002h0c0,.0822.06576.126.148.126Z"/><path class="cls-6" d="M73.91087,10.12207h-.19181V9.5028h-.24113v-.148c.13152,0,.25757-.04384.27949-.18633h.15345Z"/><path class="cls-6" d="M74.5137,9.14658c.19181,0,.35074.12057.35074.49871s-.15893.4987-.35074.4987-.35074-.12056-.35074-.4987S74.32189,9.14658,74.5137,9.14658Zm0,.833c.15893,0,.15893-.23017.15893-.33977s0-.32882-.15893-.32882-.15893.23017-.15893.32882S74.35477,9.97958,74.5137,9.97958Z"/><path class="cls-6" d="M73.91087,14.54465h-.19181v-.61927h-.24113v-.148a.24111.24111,0,0,0,.27949-.1918h.15345Z"/><path class="cls-6" d="M74.55754,14.32H74.152v-.17537l.4165-.548h.18633V14.172h.12605v.15893h-.12605v.22469H74.5685Zm0-.48774h0l-.24661.32881h.24661Z"/><path class="cls-6" d="M73.42861,20.562a.33427.33427,0,0,1,.34525-.38362.29593.29593,0,0,1,.32207.26726q.00133.01429.00127.02867c0,.29046-.3069.31238-.44391.50967h.44939v.16441H73.4012c0-.21921.137-.31238.30142-.42746s.20277-.11509.20277-.23017a.137.137,0,0,0-.12517-.1479l-.00088-.00007h0c-.11508,0-.15344.11508-.15344.21921Z"/><path class="cls-6" d="M74.5137,20.17838c.19181,0,.35074.12056.35074.49322s-.15893.50419-.35074.50419-.35074-.12057-.35074-.50419S74.32189,20.17838,74.5137,20.17838Zm0,.833c.15893,0,.15893-.23017.15893-.33978s0-.33429-.15893-.33429-.15893.23565-.15893.33429S74.35477,21.01138,74.5137,21.01138Z"/><path class="cls-6" d="M73.42861,25.01746a.33432.33432,0,0,1,.34525-.38362.296.296,0,0,1,.32207.26726q.00133.01431.00127.02868c0,.29045-.3069.31237-.44391.50966h.44939v.16441H73.4012c0-.21921.137-.31237.30142-.42746s.20277-.11508.20277-.23017a.137.137,0,0,0-.12517-.1479l-.00088-.00007h0c-.11508,0-.15344.12057-.15344.21922Z"/><path class="cls-6" d="M74.55754,25.38464H74.152v-.17537l.4165-.548h.18633v.548h.12605v.15893h-.12605v.22469H74.5685Zm0-.48774h0l-.24661.32881h.24661Z"/><path class="cls-6" d="M77.073,7.12436a1.21111,1.21111,0,0,0-.31238.78916h-.20824a1.392,1.392,0,0,1,.32333-.77272h-.47679V6.96h.65216Z"/><path class="cls-6" d="M76.525,14.48437h-.19729V13.8651H76.092v-.16441a.24114.24114,0,0,0,.2795-.19181H76.525Z"/><path class="cls-6" d="M77.062,13.91442c.0822,0,.20277,0,.20277-.12056a.126.126,0,0,0-.126-.12605h0c-.09864,0-.148.07124-.148.16989h-.18633a.31785.31785,0,0,1,.30625-.32905q.014-.00051.02805.00023a.29594.29594,0,0,1,.31785.263.1918.1918,0,0,1-.13152.19729h0a.21373.21373,0,0,1,.16988.21374.35659.35659,0,0,1-.71243-.03289h.1644c0,.10413.0548.19181.16441.19181a.15344.15344,0,0,0,.15893-.14248h0c0-.148-.12605-.14249-.22469-.14249Z"/><path class="cls-6" d="M76.525,16.671h-.19729v-.61927H76.092V15.8928a.24114.24114,0,0,0,.2795-.19181H76.525Z"/><path class="cls-6" d="M77.42921,15.8928h-.39459l-.03836.21921h0a.2247.2247,0,0,1,.18633-.07672.29593.29593,0,0,1,.2972.29466q.00006.01435-.00126.02868a.35073.35073,0,0,1-.35074.34525h0a.32333.32333,0,0,1-.35511-.28808l-.00111-.01333h.17537a.15345.15345,0,0,0,.15345.14249.17537.17537,0,0,0,.16989-.18068v-.00017h0a.1644.1644,0,0,0-.15272-.17532l-.00073-.00005h0a.15345.15345,0,0,0-.148.07672H76.799l.09316-.548h.548Z"/><polygon class="cls-12" points="78.317 5.217 79.117 6.017 80.717 6.017 81.517 5.217 80.717 4.423 79.117 4.423 78.317 5.217"/><path class="cls-12" d="M80.68449,6.01734H78.317a.23565.23565,0,0,1-.23566-.23565h0V4.65275A.23566.23566,0,0,1,78.317,4.4171h2.36747V6.01734Z"/><path class="cls-6" d="M79.64872,5.6118h-.19181l-.21373-.62475H79.424l.13153.42746h0l.13152-.42746H79.857Z"/><path class="cls-6" d="M80.14742,5.10762c.07124,0,.18085,0,.18085-.10413a.11508.11508,0,0,0-.11508-.11508h0a.13151.13151,0,0,0-.13153.15344h-.16441a.27949.27949,0,0,1,.29594-.29593.25758.25758,0,0,1,.28423.22782l.00074.00783a.16441.16441,0,0,1-.12057.16989h0a.19181.19181,0,0,1,.148.19729.31786.31786,0,0,1-.63023-.03288h.16441a.15019.15019,0,0,0,.148.16989.13154.13154,0,0,0,.137-.12582l0-.00023h0c0-.126-.10961-.126-.19729-.126Z"/><path class="cls-6" d="M78.83378,5.10762c.07124,0,.18085,0,.18085-.10413a.11508.11508,0,0,0-.11509-.11508h0a.13151.13151,0,0,0-.13152.15344h-.16441a.27949.27949,0,0,1,.29593-.29593.25757.25757,0,0,1,.28423.22782l.00075.00783a.16441.16441,0,0,1-.12057.16989h0a.19182.19182,0,0,1,.148.19729.31786.31786,0,0,1-.63024-.03288h.16441a.15019.15019,0,0,0,.148.16989.13154.13154,0,0,0,.137-.12582l0-.00023h0c0-.126-.10961-.126-.19729-.126Z"/><path class="cls-18" d="M72.67232,39.66624a.13484.13484,0,0,1,.14807.13143l-.0001.00558v1.29882a.15345.15345,0,0,1-.15345.15345H70.74875l-1.04126-.79464,1.04126-.79464Z"/><path class="cls-18" d="M71.30467,39.66624c.09892-.00005.16193.04971.162.13143l-.00013.00558v1.29882a.17192.17192,0,0,1-.18574.15345H68.959l-1.2604-.79464,1.2604-.79464h2.34565Z"/><polygon class="cls-18" points="70.158 40.461 69.358 39.666 67.758 39.666 66.958 40.461 67.758 41.256 69.358 41.256 70.158 40.461"/><path class="cls-18" d="M78.19644,19.76736h5.03638a.15345.15345,0,0,1,.137.16441v1.27142a.15346.15346,0,0,1-.137.16441H78.19644a.15345.15345,0,0,1-.137-.16441V19.93177A.15344.15344,0,0,1,78.19644,19.76736Z"/><polygon class="cls-18" points="84.252 19.773 82.641 19.773 81.841 20.567 82.641 21.368 84.252 21.368 85.052 20.567 84.252 19.773"/><path class="cls-6" d="M78.591,20.10165h.1918V20.973H78.591Z"/><path class="cls-6" d="M78.89244,20.44691a.30146.30146,0,0,1,.31238-.34526.26854.26854,0,0,1,.28959.24568l.00086.01738c0,.263-.274.27949-.40006.45486h.40554V20.973h-.63023c0-.20277.126-.285.274-.38362s.17537-.10413.17537-.20825A.12057.12057,0,0,0,79.211,20.25a.12218.12218,0,0,0-.01711-.00036c-.10413,0-.137.10412-.137.19729Z"/><path class="cls-6" d="M80.19127,20.39211a.19181.19181,0,0,0-.19181-.15345c-.16989,0-.23566.148-.23566.30142s.06577.29045.23566.29045a.18633.18633,0,0,0,.19705-.17495c.00033-.00561.00041-.01124.00024-.01686h.18632a.36717.36717,0,0,1-.37761.35644l-.006-.00022a.46034.46034,0,0,1,0-.9152.35074.35074,0,0,1,.37814.31237Z"/><path class="cls-6" d="M80.90918,20.973h-.17536v-.548h-.21373v-.148c.12056,0,.23017-.03836.25209-.16989h.137V20.973Z"/><path class="cls-6" d="M81.11195,21.0607h.60831V21.121h-.60831Z"/><path class="cls-6" d="M81.934,20.68256c0,.11509.09316.15893.19181.15893s.16989,0,.16989-.1096-.13153-.10413-.25758-.14249-.25757-.08768-.25757-.24661a.30063.30063,0,0,1,.32333-.263c.15893,0,.35074.07672.35074.27949h-.18633c0-.10413-.0822-.13153-.16988-.13153s-.13153.0274-.13153.09865.03836.07672.25757.13152a.26508.26508,0,0,1,.25758.2521c0,.1918-.12057.27949-.36171.27949s-.37265-.09316-.37265-.3069Z"/><path class="cls-6" d="M82.59711,20.10165h.37814a.38361.38361,0,0,1,.4.42747.39455.39455,0,0,1-.4.4439h-.37266Zm.19181.707h.18633c.1096,0,.21373-.06576.21373-.25757s-.06029-.29046-.24661-.29046h-.137v.548Z"/><path class="cls-6" d="M83.737,20.10165h.19729l.32882.87137H84.0713l-.06576-.19729h-.32333L83.611,20.973h-.19181Zm0,.548h.2247l-.10961-.31785h0Z"/><rect class="cls-18" x="66.70979" y="19.77284" width="6.11599" height="1.60024" rx="0.16441"/><polygon class="cls-18" points="65.959 20.573 66.759 21.373 68.37 21.373 69.17 20.573 68.37 19.773 66.759 19.773 65.959 20.573"/><path class="cls-6" d="M66.75911,20.10165h.19181V20.973h-.19181Z"/><path class="cls-6" d="M67.08244,20.44691a.30691.30691,0,0,1,.3069-.34526.274.274,0,0,1,.29509.25118l.00084.01736c0,.25757-.274.27949-.40006.45486h.40554v.148h-.60831c0-.19729.12057-.27949.26854-.37814s.18085-.10412.18085-.20825a.12061.12061,0,0,0-.12605-.13153c-.10413,0-.137.10413-.137.19181Z"/><path class="cls-6" d="M68.38127,20.39759a.19729.19729,0,0,0-.19181-.15345c-.16988,0-.23565.148-.23565.30142s.06028.29045.23565.29045a.19729.19729,0,0,0,.19729-.19729h.18633a.36717.36717,0,0,1-.37761.35644l-.006-.00022a.45487.45487,0,0,1,0-.90973.34526.34526,0,0,1,.37266.31238Z"/><path class="cls-6" d="M69.09919,20.973h-.17537v-.548h-.19729v-.148c.12056,0,.23017-.03836.24661-.1644h.14249v.84944Z"/><path class="cls-6" d="M69.27456,21.06618h.61379v.06029h-.61379Z"/><path class="cls-6" d="M70.124,20.688c0,.11509.08769.15893.19181.15893s.16989,0,.16989-.1096-.13153-.10961-.25758-.14249-.26305-.08768-.26305-.24661.16988-.26306.32881-.26306.34526.07673.34526.2795h-.18085c0-.10413-.08221-.13153-.17537-.13153s-.13153,0-.13153.09865.04385.07672.26306.13152a.26392.26392,0,0,1,.25757.25209c0,.1973-.126.2795-.3617.2795s-.37814-.09317-.37266-.3069Z"/><path class="cls-6" d="M71.36254,20.39759a.18633.18633,0,0,0-.18633-.15345c-.17537,0-.24113.148-.24113.30142s.06576.29045.24113.29045a.19729.19729,0,0,0,.19729-.19729h.18633a.36718.36718,0,0,1-.37761.35644l-.006-.00022a.45487.45487,0,0,1,0-.90973.35074.35074,0,0,1,.37266.31238Z"/><path class="cls-6" d="M71.68588,20.10165h.19181v.7234h.42746V20.984h-.61927Z"/><path class="cls-6" d="M67.82748,40.00562h.64405v.15918h-.45459v.18457h.417v.147h-.417v.21094h.46386v.15918h-.65332Z"/><path class="cls-6" d="M68.60629,40.00562h.188l.35937.57763h.00245v-.57763h.17724v.86084h-.18945l-.35791-.57617h-.00244v.57617h-.17725Z"/><path class="cls-6" d="M70.11313,39.98511a1.16078,1.16078,0,0,0-.13135.54639,1.189,1.189,0,0,0,.13037.5542h-.14258a1.03063,1.03063,0,0,1,0-1.10059Z"/><path class="cls-6" d="M70.18637,40.00562h.18945v.86084h-.18945Z"/><path class="cls-6" d="M70.9266,39.98511a.45186.45186,0,1,1-.42285.45459A.41845.41845,0,0,1,70.9266,39.98511Zm0,.74268c.16993,0,.23389-.14454.23389-.28809,0-.15088-.064-.29541-.23389-.29541s-.23388.14453-.23388.29541C70.69272,40.58325,70.75668,40.72779,70.9266,40.72779Z"/><path class="cls-6" d="M71.86069,40.2395a.12081.12081,0,0,0-.11329-.105c-.123,0-.1582.16407-.16162.25684l.00244.00244a.2119.2119,0,0,1,.19043-.09375.26929.26929,0,0,1,.19385.08643.28787.28787,0,0,1,.06543.18847.29327.29327,0,0,1-.29541.3086c-.25537,0-.32422-.22315-.32422-.43653,0-.20752.09131-.4414.33155-.4414a.25717.25717,0,0,1,.27343.23388Zm-.25928.3462a.14492.14492,0,0,0,.13623.15673.14089.14089,0,0,0,.12891-.15429c0-.07959-.041-.15918-.12891-.15918A.13913.13913,0,0,0,71.60141,40.5857Z"/><path class="cls-6" d="M72.05307,41.0857a1.15367,1.15367,0,0,0,.13135-.54493,1.20086,1.20086,0,0,0-.13037-.55566h.14209a1.061,1.061,0,0,1,.15917.544,1.03642,1.03642,0,0,1-.15917.55664Z"/><path class="cls-18" d="M78.2075,41.25552a.13481.13481,0,0,1-.14806-.13142l.0001-.00558V39.81969a.15345.15345,0,0,1,.15345-.15345h1.91809l1.04126.79464-1.04126.79464Z"/><path class="cls-18" d="M79.71429,41.25547c-.184,0-.30122-.0497-.30134-.13142l.00022-.00558V39.81964c0-.08475.15469-.15345.34551-.15345h4.31884l2.34452.79464-2.34452.79464H79.71429Z"/><polygon class="cls-18" points="83.265 40.461 84.065 41.256 85.666 41.256 86.466 40.461 85.666 39.666 84.065 39.666 83.265 40.461"/><path class="cls-6" d="M79.03012,40.00562H79.224l.32177.86084h-.19628l-.06495-.1919h-.32226l-.06738.1919h-.19141Zm-.01807.52832h.22266l-.1084-.31592h-.00244Z"/><path class="cls-6" d="M79.618,40.00562h.18945v.70166h.41944v.15918H79.618Z"/><path class="cls-6" d="M80.33041,40.00562h.644v.15918h-.45459v.18457h.417v.147h-.417v.21094h.46386v.15918h-.65332Z"/><path class="cls-6" d="M81.10922,40.00562h.46436a.23663.23663,0,0,1,.25195.23779.21079.21079,0,0,1-.13623.21582v.002c.09277.02539.11914.11377.12549.20166a.4443.4443,0,0,0,.03613.20362h-.18945a1.05381,1.05381,0,0,1-.03028-.20606c-.01318-.09033-.04785-.13037-.14306-.13037h-.18946v.33643h-.18945Zm.18945.38965h.20752c.08545,0,.12989-.03614.12989-.123,0-.083-.04444-.11963-.12989-.11963h-.20752Z"/><path class="cls-6" d="M82.16733,40.1648h-.25782v-.15918h.70508v.15918h-.25781v.70166h-.18945Z"/><path class="cls-6" d="M83.32748,39.98511a1.16077,1.16077,0,0,0-.13134.54639,1.189,1.189,0,0,0,.13037.5542h-.14258a1.03063,1.03063,0,0,1,0-1.10059Z"/><path class="cls-6" d="M83.40121,40.00562h.18946v.86084h-.18946Z"/><path class="cls-6" d="M84.14145,39.98511a.45186.45186,0,1,1-.42285.45459A.41846.41846,0,0,1,84.14145,39.98511Zm0,.74268c.16992,0,.23388-.14454.23388-.28809,0-.15088-.064-.29541-.23388-.29541s-.23389.14453-.23389.29541C83.90756,40.58325,83.97153,40.72779,84.14145,40.72779Z"/><path class="cls-6" d="M85.2103,40.16382h-.34815l-.03369.19141.00244.00244a.21464.21464,0,0,1,.165-.06494.26087.26087,0,0,1,.26025.28662.30566.30566,0,0,1-.31347.3042.28249.28249,0,0,1-.31348-.26807h.17139a.13462.13462,0,0,0,.13867.127.153.153,0,0,0,.146-.16308.145.145,0,0,0-.146-.15772.13974.13974,0,0,0-.12891.06739H84.6561l.083-.46631h.4712Z"/><path class="cls-6" d="M85.26742,41.0857a1.15356,1.15356,0,0,0,.13135-.54493,1.20086,1.20086,0,0,0-.13037-.55566h.14209a1.06088,1.06088,0,0,1,.15918.544,1.03634,1.03634,0,0,1-.15918.55664Z"/></g></g></svg>