<svg xmlns="http://www.w3.org/2000/svg" viewBox="0 0 839.00124 436.97879"><defs><style>.cls-1{fill:#bf8f3e;}.cls-2{fill:#242424;}.cls-3{fill:#f7faf8;}.cls-4{fill:#fff;}.cls-11,.cls-5{fill:none;stroke-miterlimit:10;}.cls-5{stroke:#fff;stroke-linecap:round;stroke-width:3.16875px;}.cls-6{fill:#282f35;}.cls-7{fill:#181917;}.cls-8{fill:#55606d;}.cls-9{fill:#313132;}.cls-10{fill:#8bbec9;}.cls-11{stroke:#f6f22f;stroke-width:1.01894px;}.cls-12{fill:#f6f22f;}</style></defs><g id="Layer_2" data-name="Layer 2"><g id="Layer_1-2" data-name="Layer 1"><g id="Layer_2-2" data-name="Layer 2"><g id="_12012" data-name=" 12012"><path class="cls-1" d="M492.5508,436.95505h60.99847a45.052,45.052,0,1,0-60.99847,0Zm5.93348-32.70151h0a25.26434,25.26434,0,1,1,0,.01624l0-.01627Z"/><path class="cls-1" d="M551.36283,0H499.26061a45.02,45.02,0,1,0,52.10222,0Zm-25.754,11.26491a25.27876,25.27876,0,1,1-1.66672.05847Q524.77424,11.26665,525.60879,11.26491Z"/><path class="cls-2" d="M0,0V436.95505H492.63793q-1.30716-1.22787-2.51915-2.54294a45.47954,45.47954,0,0,1,2.81047-64.25631q1.03771-.95071,2.13277-1.83592a44.90913,44.90913,0,0,1,58.90709,2.37656,45.49541,45.49541,0,0,1,1.704,64.3176q-.96026,1.01254-1.98129,1.96475h60.25382V0H551.36283a45.43987,45.43987,0,0,1-2.66967,75.69356,44.95666,44.95666,0,0,1-58.14662-9.942A45.49538,45.49538,0,0,1,497.04046,1.74Q498.15063.8344,499.31607,0ZM523.24015,154.47665a13.86329,13.86329,0,1,1,27.72658,0V324.00488a13.86329,13.86329,0,1,1-27.72658,0ZM212.47273,33.78682a15.36844,15.36844,0,1,1,0,.0713ZM106.08981,406.77266a15.37665,15.37665,0,1,1,0,.0002ZM57.03753,154.87275a13.86329,13.86329,0,0,1,27.72658,0V324.401a13.86329,13.86329,0,0,1-27.72658,0ZM37.23283,90.42826A14.94063,14.94063,0,0,1,47.38076,101.0515a15.3843,15.3843,0,0,1-14.74262,19.44821H32.2579a14.67132,14.67132,0,0,1-13.74447-9.33989C13.72862,98.572,24.81925,86.77627,37.23283,90.42826Z"/><path class="cls-1" d="M8.1833,105.29762h0A24.46277,24.46277,0,1,0,32.64607,80.6685,24.46277,24.46277,0,0,0,8.1833,105.29762Zm24.46277,15.20209h-.38025a14.67132,14.67132,0,0,1-13.74447-9.33989C13.72862,98.572,24.85886,86.77628,37.24076,90.42826a14.94067,14.94067,0,0,1,10.14792,10.62325,15.3843,15.3843,0,0,1-14.74261,19.44821Z"/><path class="cls-1" d="M97.2886,407.25593h0a24.46275,24.46275,0,1,0,17.20633-23.59135C104.18857,386.67486,97.2886,396.45838,97.2886,407.25593Zm24.06668,14.89313a15.37637,15.37637,0,1,1,15.26506-15.48688l.0004.11053a15.32093,15.32093,0,0,1-15.26528,15.37635Z"/><path class="cls-1" d="M226.98562,10.13208A23.76564,23.76564,0,0,0,204.4241,25.97584c-6.694,19.40861,9.9578,37.3279,29.05747,32.64607A24.01121,24.01121,0,0,0,250.9097,41.43935a24.66235,24.66235,0,0,0-23.55175-31.331Zm.79219,39.05487a15.313,15.313,0,0,1-15.25755-15.32884.22146.22146,0,0,1,0-.07129A15.28922,15.28922,0,1,1,227.78571,49.187Z"/><g id="Labels_Top-RAK12012" data-name="Labels Top-RAK12012"><polygon class="cls-3" points="19.409 1.98 163.587 1.98 163.587 14.885 112.887 14.885 91.498 28.234 69.879 15.107 19.409 15.107 19.409 1.98"/><polygon class="cls-4" points="320.313 39.213 320.313 45.155 314.372 45.155 314.372 39.213 296.548 39.213 296.548 45.155 290.606 45.155 290.606 39.213 275.159 39.213 275.159 45.155 269.217 45.155 269.217 79.615 342.891 79.615 342.891 45.155 336.949 45.155 336.949 39.213 320.313 39.213"/><path class="cls-4" d="M249.95114,88.321H253.009l2.66967,11.30451h0L258.62558,88.321h2.7489L264.266,99.62555h.06336l2.741-11.30452h3.06581l-4.262,15.45559h-2.74889l-3.0816-11.88282h0l-3.16875,11.81153h-2.79642Z"/><path class="cls-4" d="M272.172,92.43249h2.05969v11.34413H272.172Zm0-4.11145h2.05969V90.3728H272.172Z"/><path class="cls-4" d="M278.7868,99.62556c.14259,1.3388,1.12492,1.80619,2.337,1.80619.88724,0,2.37656-.1822,2.29734-1.35464s-1.71906-1.3388-3.3668-1.719-3.3272-.95063-3.3272-3.05785c0-2.26566,2.43993-2.96278,4.32534-2.96278,2.11515,0,4.04807.86348,4.3095,3.16875h-2.37656c-.21388-1.10114-1.0853-1.3784-2.0993-1.3784-.6496,0-1.90124.15843-1.90124,1.05361,0,1.1249,1.68736,1.30711,3.3668,1.66359s3.3351.95062,3.3351,3.01824c0,2.45578-2.47955,3.35888-4.61844,3.35888-2.61421,0-4.50756-1.16452-4.57885-3.60446Z"/><path class="cls-4" d="M288.62576,88.321h7.26438c2.939,0,4.93534.95062,4.93534,3.82626a3.351,3.351,0,0,1-2.0597,3.20837,3.747,3.747,0,0,1,2.82812,3.91341c0,3.12914-2.65384,4.46794-5.45026,4.46794h-7.51785Zm3.08162,12.33436h3.63614c1.315,0,2.51125-.41193,2.51125-1.98047s-.9744-2.131-2.44786-2.131h-3.69953Zm0-6.17114H294.995c1.21205-.1426,2.05969-.68129,2.05969-1.9884s-1.12491-1.76658-2.37656-2.12306h-3.0103Z"/><path class="cls-4" d="M303.0119,88.321h4.11146V100.6554h7.201v3.12122H303.0119Z"/><path class="cls-4" d="M323.1097,87.719c4.75313,0,7.59708,3.57277,7.59708,8.15954s-2.836,8.01694-7.59708,8.01694-7.59708-3.56485-7.59708-8.01694S318.37243,87.719,323.1097,87.719Zm.45946,13.36421c3.08953,0,4.19859-2.6063,4.19859-5.1413s-1.14075-5.30766-4.19859-5.30766-4.19068,2.6063-4.19068,5.30766,1.16452,5.10961,4.19068,5.10961Z"/><path class="cls-4" d="M343.16,93.47818a3.21627,3.21627,0,0,0-3.21628-2.57461c-2.94694,0-4.0164,2.47955-4.0164,5.06208s1.10115,4.90365,4.0164,4.90365c1.9567,0,3.08953-1.3388,3.343-3.30343h3.16875a6.19489,6.19489,0,0,1-6.3375,6.02855h-.12675c-4.54715,0-7.25645-3.39848-7.25645-7.65253s2.7093-7.78721,7.25645-7.78721c3.21628,0,5.96517,1.90125,6.3375,5.30765Z"/><path class="cls-4" d="M349.23607,88.321h3.12122v6.40088l6.02854-6.40088h3.24L356.15979,94.413l5.99687,9.36366H358.3304L354.108,96.80537l-1.75866,1.97254v4.99871h-3.08952Z"/><line class="cls-5" x1="274.88923" y1="192.50168" x2="341.58353" y2="192.50168"/><path class="cls-4" d="M57.14844,54.72435H52.94192V52.126H64.44449v2.59838h-4.2382V66.16354H57.11675Z"/><path class="cls-4" d="M66.05263,52.126h6.3375c3.51732,0,4.8482,2.22605,4.8482,4.50755s-1.33088,4.49963-4.8482,4.49963h-3.248v5.03039H66.05263Zm3.08161,6.60685h2.37657c1.418,0,2.70928-.31688,2.70928-2.0993s-1.29127-2.10723-2.70928-2.10723H69.13424Z"/><path class="cls-4" d="M78.52959,57.69505c-.103-3.16875,1.68736-5.54531,4.99079-5.54531,2.51123,0,4.71351,1.58437,4.71351,4.3095,0,4.16691-4.42041,4.49963-6.42464,7.32774h6.50386v2.37656H78.21272c0-3.16875,1.96463-4.52339,4.34119-6.1553,1.20413-.83971,2.89149-1.67151,2.89149-3.35887a1.97252,1.97252,0,0,0-2.05969-2.12306c-1.65567,0-2.18644,1.71112-2.18644,3.16875Z"/><path class="cls-4" d="M58.73282,54.72435H54.5263V52.126H66.02887v2.59838H61.79066V66.16354H58.70113Z"/><path class="cls-4" d="M67.637,52.126h6.3375c3.51732,0,4.84819,2.22605,4.84819,4.50755s-1.33087,4.49963-4.84819,4.49963h-3.248v5.03039H67.637Zm3.08161,6.60685h2.37656c1.418,0,2.70928-.31688,2.70928-2.0993s-1.29126-2.10723-2.70928-2.10723H70.71862Z"/><path class="cls-4" d="M80.114,57.69505c-.103-3.16875,1.68736-5.54531,4.99078-5.54531,2.51124,0,4.71352,1.58437,4.71352,4.3095,0,4.16691-4.42041,4.49963-6.42465,7.32774h6.50387v2.37656H79.7971c0-3.16875,1.96463-4.52339,4.34119-6.1553,1.20412-.83971,2.89149-1.67151,2.89149-3.35887a1.97252,1.97252,0,0,0-2.05969-2.12306c-1.65567,0-2.18644,1.71112-2.18644,3.16875Z"/><path class="cls-4" d="M59.58838,99.65725h4.34911l3.27966,9.66469h.03961l3.10538-9.65677h4.34119v14.03757H71.81184v-9.92612h0l-3.446,9.942H65.98926l-3.43809-9.84691h0v9.84689H59.58838Z"/><path class="cls-4" d="M76.78678,105.22633c-.103-3.16875,1.68736-5.54532,4.99079-5.54532,2.51123,0,4.75312,1.58438,4.75312,4.30951,0,4.1669-4.42041,4.49962-6.42464,7.32774h6.50386v2.37656h-10.14c0-3.16875,1.96463-4.5234,4.3412-6.1553,1.1962-.83972,2.89148-1.67152,2.89148-3.35888a1.98049,1.98049,0,0,0-2.06761-2.12306c-1.64775,0-2.17851,1.71113-2.17851,3.16875Z"/><path class="cls-4" d="M114.24935,363.45583h4.34912l3.27965,9.6647h.03962l3.10537-9.65677h4.34119v14.03757h-2.89148v-9.92611h0l-3.446,9.94988h-2.37656l-3.43809-9.84689h0v9.84689h-2.89148Z"/><path class="cls-4" d="M135.1948,369.29428c1.20413.103,2.93109-.13469,2.93109-1.71113a1.81408,1.81408,0,0,0-1.80114-1.827q-.07389-.00054-.14764.005c-1.4101,0-2.13891,1.03777-2.11514,2.45579h-2.65384a4.55425,4.55425,0,0,1,4.75313-4.75313c2.20228,0,4.61846,1.36257,4.61846,3.81836a2.7489,2.7489,0,0,1-1.925,2.81225h0a3.07372,3.07372,0,0,1,2.43994,3.16876c0,2.89148-2.43994,4.52338-5.11754,4.52338-3.08161,0-5.16507-1.84578-5.10961-5.01454h2.65383c.06338,1.49725.79219,2.7093,2.37657,2.7093a2.11514,2.11514,0,0,0,2.23867-1.98393q.00538-.08928.00322-.17876c0-2.07552-1.822-2.04383-3.16875-2.04383Z"/><path class="cls-4" d="M175.24782,32.32127h4.34912L182.8766,41.986h.03961l3.10537-9.65677h4.34119V46.35884h-2.89148V36.44065h0l-3.446,9.942H181.6487l-3.43809-9.8469h0v9.82313h-2.89148Z"/><path class="cls-4" d="M199.41747,46.35884H196.629v-8.92h-3.46186V35.33158c1.94879.06338,3.71537-.62583,4.03224-2.73305h2.21812Z"/><path class="cls-4" d="M95.96565,54.72435H91.75913V52.126h11.50258v2.59838H99.0235V66.16354H95.934Z"/><path class="cls-4" d="M104.86985,52.126h6.3375c3.51732,0,4.84819,2.22605,4.84819,4.50755s-1.33087,4.49963-4.84819,4.49963h-3.248v5.03039h-3.08162Zm3.08161,6.60685H110.328c1.418,0,2.70928-.31688,2.70928-2.0993s-1.29127-2.10723-2.70928-2.10723h-2.37656Z"/><path class="cls-4" d="M124.326,66.16354h-2.79642v-8.92h-3.45394V55.13628c1.94086.06338,3.70743-.62583,4.02432-2.733h2.226Z"/><path class="cls-4" d="M133.99067,98.29468h-4.20651V95.69631h11.50257v2.59837h-4.23821v11.4392H133.959Z"/><path class="cls-4" d="M142.89487,95.69631h6.3375c3.51732,0,4.84819,2.22605,4.84819,4.50755s-1.33087,4.49962-4.84819,4.49962h-3.248v5.0304h-3.08161Zm3.08161,6.60684H148.353c1.418,0,2.70929-.31687,2.70929-2.0993s-1.29127-2.10722-2.70929-2.10722h-2.37656Z"/><path class="cls-4" d="M159.12679,101.53473c1.1962.103,2.92318-.13467,2.92318-1.71113a1.81411,1.81411,0,0,0-1.8017-1.82643q-.06964-.00047-.13916.0044c-1.418,0-2.14683,1.03776-2.12306,2.45578h-2.65383a4.55424,4.55424,0,0,1,4.75313-4.75313c2.20228,0,4.61845,1.36256,4.61845,3.81835a2.74889,2.74889,0,0,1-1.925,2.81227v.03961a3.05782,3.05782,0,0,1,2.43994,3.12122c0,2.89148-2.43994,4.5234-5.10961,4.5234-3.08953,0-5.173-1.85372-5.10961-5.01455h2.6459c.05545,1.49723.79218,2.70928,2.41617,2.70928a2.11515,2.11515,0,0,0,2.23868-1.98393q.00539-.08927.00322-.17874c0-2.08346-1.83-2.04385-3.16876-2.04385Z"/><path class="cls-4" d="M207.72753,321.866h13.01564c4.32534,0,7.0584,3.01031,7.0584,6.66231,0,2.836-1.10906,4.967-3.81835,6.05232v.06337c2.6063.713,3.351,3.16875,3.51732,5.6483.103,1.521,0,4.38873,1.014,5.71167h-5.30766c-.61-1.521-.57038-3.858-.84765-5.783-.3644-2.535-1.34673-3.652-4.0164-3.652h-5.30767v9.435h-5.30767Zm5.30767,10.91635h5.81466c2.37656,0,3.652-1.014,3.652-3.446s-1.25165-3.343-3.652-3.343H213.0352Z"/><path class="cls-4" d="M238.72585,321.866h5.4344l9.03094,24.138h-5.54532l-1.822-5.379H236.8642l-1.89334,5.379h-5.379Zm-.507,14.81393h6.25037l-3.042-8.85666h-.07129Z"/><path class="cls-4" d="M255.28257,321.866h5.34727V331.8713l9.435-10.00534h6.62268l-9.435,9.50626,10.346,14.60795h-6.6702l-7.26438-10.853-3.03407,3.13708v7.77929h-5.30767Z"/><path class="cls-4" d="M290.60623,346.00393h-4.80066V330.65925h-5.94933V327.039c3.351.103,6.393-1.07737,6.93164-4.69767h3.81835Z"/><path class="cls-4" d="M297.40322,331.43561c-.17428-5.41064,2.90734-9.56962,8.57938-9.56962,4.33327,0,8.112,2.77265,8.112,7.407,0,7.12969-7.605,7.73967-11.051,12.60371h11.18569v4.1273H296.86451c0-5.54532,3.37473-7.7793,7.46242-10.58362,2.0676-1.4497,4.97494-2.86772,4.97494-5.77506a3.39849,3.39849,0,0,0-3.549-3.652c-2.844,0-3.755,2.939-3.755,5.44233Z"/><path class="cls-4" d="M324.30591,321.866c4.75313,0,8.71407,2.97864,8.71407,12.19969,0,9.435-3.96094,12.40567-8.71407,12.40567s-8.6507-2.97071-8.6507-12.40567C315.65521,324.8446,319.60825,321.866,324.30591,321.866Zm0,20.65235c3.92135,0,3.92135-5.77506,3.92135-8.45266,0-2.46369,0-8.23875-3.92135-8.23875s-3.85,5.77506-3.85,8.23875C320.45587,336.74325,320.45587,342.51831,324.30591,342.51831Z"/><path class="cls-4" d="M346.97833,346.00393H342.2252V330.65925h-5.94934V327.039c3.351.103,6.393-1.07737,6.93165-4.69767h3.77082Z"/><path class="cls-4" d="M353.78322,331.43561c-.17428-5.41064,2.90734-9.56962,8.57939-9.56962,4.33327,0,8.112,2.77265,8.112,7.407,0,7.12969-7.605,7.73967-11.09063,12.60371h11.18569v4.1273H353.24454c0-5.54532,3.37473-7.7793,7.46242-10.58362,2.0676-1.4497,4.97494-2.86772,4.97494-5.77506a3.39849,3.39849,0,0,0-3.549-3.652c-2.84395,0-3.755,2.939-3.755,5.44233Z"/><path class="cls-4" d="M394.272,346.00393h-5.981l-7.84265-24.138h5.474l5.41854,16.96868h0l5.44232-16.96868h5.474Z"/><path class="cls-4" d="M410.93958,321.866h5.44233l9.023,24.138h-5.54532l-1.822-5.379h-8.99136l-1.86162,5.379h-5.371Zm-.507,14.81393h6.2583l-3.042-8.85666h-.06339Z"/><path class="cls-4" d="M207.72753,361.47536h5.30767V370.744h9.76767v-9.26861h5.34727v24.138h-5.30767V375.19606H213.0352v10.41727h-5.30767Z"/><path class="cls-4" d="M236.8642,378.04c.13469,3.0737,1.58438,4.42833,4.29367,4.42833a3.95833,3.95833,0,0,0,3.78666-2.26564h4.22235c-1.34673,4.159-4.22235,5.878-8.17538,5.878-5.54532,0-8.928-3.78666-8.928-9.18938,0-5.23635,3.6203-9.229,8.928-9.229,5.94933,0,8.85665,5.00663,8.48432,10.37767Zm7.811-3.042c-.44362-2.432-1.48931-3.71537-3.81835-3.71537a3.7629,3.7629,0,0,0-3.956,3.55938q-.00409.07794-.005.156Z"/><path class="cls-4" d="M252.81888,373.5087c.26934-4.46,4.29367-5.84635,8.215-5.84635,3.47771,0,7.66837.79219,7.66837,4.967v9.09432a8.94312,8.94312,0,0,0,.61,3.88965h-4.86405a6.85256,6.85256,0,0,1-.34064-1.69529,7.92189,7.92189,0,0,1-5.878,2.16268c-3.351,0-5.94934-1.65567-5.94934-5.23635.06336-7.92188,11.82736-3.68367,11.62141-7.605,0-2.028-1.418-2.37657-3.10539-2.37657-1.86165,0-3.0103.74466-3.16875,2.638Zm11.09063,3.549c-.79219.713-2.49539.74466-3.96094,1.014s-2.836.79219-2.836,2.56668,1.3784,2.234,2.939,2.234c3.74706,0,3.88172-2.939,3.88172-4.02431Z"/><path class="cls-4" d="M273.09887,368.13766h4.563v3.24h.06337a6.15529,6.15529,0,0,1,5.54531-3.71536,3.85737,3.85737,0,0,1,1.0536.16635v4.49965a8.657,8.657,0,0,0-1.727-.17429c-3.549,0-4.75313,2.50332-4.75313,5.61661V385.645h-4.80066Z"/><path class="cls-4" d="M293.00656,368.13766h3.51732V371.346h-3.51732v8.6507c0,1.624.404,2.028,2.028,2.028a6.71855,6.71855,0,0,0,1.48932-.13468v3.755a18.54362,18.54362,0,0,1-2.80436.16635c-2.97863,0-5.54531-.64167-5.54531-4.159V371.35392h-2.90734v-3.20835h2.90734v-5.24426h4.80066Z"/><path class="cls-4" d="M320.14693,361.47536h13.01564c4.32534,0,7.06633,3.01031,7.06633,6.6623,0,2.836-1.117,4.967-3.82626,6.05233v.06337c2.60631.713,3.351,3.16875,3.51732,5.6483.103,1.521,0,4.38873,1.014,5.71167h-5.30767c-.61-1.521-.57038-3.858-.83972-5.783-.37233-2.535-1.35463-3.652-4.0243-3.652H325.4546v9.435h-5.30767Zm5.30767,10.91635h5.81465c2.37657,0,3.652-1.014,3.652-3.446s-1.25165-3.343-3.652-3.343H325.4546Z"/><path class="cls-4" d="M344.52254,373.5087c.26934-4.46,4.28574-5.84635,8.20706-5.84635,3.48562,0,7.6763.79219,7.6763,4.967v9.09432a8.94327,8.94327,0,0,0,.61,3.88965h-4.87195a7.22413,7.22413,0,0,1-.33273-1.69529,7.922,7.922,0,0,1-5.88595,2.16268c-3.343,0-5.94934-1.65567-5.94934-5.23635.07129-7.92188,11.83529-3.68367,11.62931-7.605,0-2.028-1.418-2.37657-3.11329-2.37657-1.85372,0-3.0024.74466-3.16875,2.638Zm11.09063,3.549c-.79218.713-2.50331.74466-3.96094,1.014s-2.84395.79219-2.84395,2.56668,1.38633,2.234,2.939,2.234c3.755,0,3.88965-2.939,3.88965-4.02431Z"/><path class="cls-4" d="M370.88656,368.13766h3.50938V371.346h-3.50938v8.6507c0,1.624.404,2.028,2.028,2.028a6.59909,6.59909,0,0,0,1.48138-.13468v3.755a18.41922,18.41922,0,0,1-2.80435.16635c-2.9707,0-5.50571-.64167-5.50571-4.159V371.35392h-2.90734v-3.20835h2.90734v-5.24426h4.80065Z"/><path class="cls-4" d="M381.32759,378.04c.13468,3.0737,1.58438,4.42833,4.29367,4.42833a3.96691,3.96691,0,0,0,3.78666-2.26564h4.22235c-1.35464,4.159-4.22235,5.878-8.18329,5.878-5.50572,0-8.92005-3.78666-8.92005-9.18938,0-5.23635,3.62031-9.229,8.92005-9.229,5.94934,0,8.85665,5.00663,8.48432,10.37767Zm7.811-3.042c-.44362-2.432-1.48932-3.71537-3.82626-3.71537a3.755,3.755,0,0,0-3.95542,3.54319q-.00475.086-.00552.17218Z"/></g><circle class="cls-1" cx="76.84223" cy="39.6094" r="8.71407"/><circle class="cls-1" cx="106.15319" cy="39.6094" r="8.71407"/><circle class="cls-1" cx="146.55477" cy="83.97192" r="8.71407"/><rect class="cls-6" x="276.98852" y="196.46262" width="60.3568" height="101.40006"/><rect class="cls-7" x="277.93915" y="197.6509" width="58.47139" height="98.23131"/><rect class="cls-8" x="283.80134" y="204.78059" width="46.73909" height="85.5563" rx="8.41303"/><rect class="cls-9" x="289.34666" y="208.34544" width="35.64846" height="18.61642" rx="4.47586"/><rect class="cls-9" x="289.34666" y="237.65639" width="35.64846" height="48.32347" rx="4.03223"/><circle class="cls-1" cx="316.67714" cy="223.00091" r="1.58438"/><rect class="cls-1" x="303.60604" y="217.0595" width="7.92188" height="7.92188"/><rect class="cls-1" x="308.35917" y="217.0595" width="9.50626" height="3.16875"/><rect class="cls-1" x="315.48886" y="212.30638" width="7.92188" height="7.92188"/><rect class="cls-1" x="290.93103" y="211.51419" width="9.50626" height="9.50626"/><rect class="cls-1" x="296.47635" y="212.30638" width="8.71407" height="3.16875"/><rect class="cls-1" x="292.9115" y="239.63686" width="28.51877" height="45.15471"/><rect class="cls-10" x="294.89197" y="265.77906" width="10.29844" height="6.3375"/><rect class="cls-10" x="294.89197" y="275.68141" width="10.29844" height="6.3375"/><rect class="cls-10" x="309.15136" y="265.77906" width="10.29844" height="6.3375"/><rect class="cls-10" x="309.15136" y="275.68141" width="10.29844" height="6.3375"/><rect class="cls-10" x="297.56957" y="268.55172" width="18.02228" height="11.09063"/><circle class="cls-4" cx="304.79432" cy="248.74702" r="0.79219"/><circle class="cls-4" cx="304.79432" cy="250.92554" r="0.79219"/><circle class="cls-4" cx="304.79432" cy="253.10406" r="0.79219"/><circle class="cls-4" cx="304.79432" cy="255.28257" r="0.79219"/><circle class="cls-4" cx="304.79432" cy="257.46109" r="0.79219"/><circle class="cls-4" cx="307.17089" cy="248.74702" r="0.79219"/><circle class="cls-4" cx="307.17089" cy="250.92554" r="0.79219"/><circle class="cls-4" cx="307.17089" cy="253.10406" r="0.79219"/><circle class="cls-4" cx="307.17089" cy="255.28257" r="0.79219"/><circle class="cls-4" cx="307.17089" cy="257.46109" r="0.79219"/><circle class="cls-4" cx="309.54745" cy="248.74702" r="0.79219"/><circle class="cls-4" cx="309.54745" cy="250.92554" r="0.79219"/><circle class="cls-4" cx="309.54745" cy="253.10406" r="0.79219"/><circle class="cls-4" cx="309.54745" cy="255.28257" r="0.79219"/><circle class="cls-4" cx="309.54745" cy="257.46109" r="0.79219"/></g></g><rect class="cls-11" x="47.93118" y="134.77796" width="46.84129" height="211.26559" rx="9.88873"/><rect class="cls-11" x="513.6828" y="134.77796" width="46.84129" height="211.26559" rx="9.88873"/><rect class="cls-12" x="100.44699" y="134.77796" width="20.09478" height="20.09478" rx="4.567"/><path d="M112.30251,151.1893h-2.5503v-8.15381h-3.16064v-1.92138c1.77783.05371,3.394-.57471,3.68164-2.49658h2.0293Z"/><rect class="cls-12" x="568.04099" y="134.77796" width="20.09478" height="20.09478" rx="4.567"/><path d="M579.89675,151.1893H577.346v-8.15381h-3.16015v-1.92138c1.77734.05371,3.39355-.57471,3.68164-2.49658h2.0293Z"/><rect class="cls-12" x="654.25573" y="48.56323" width="20.09478" height="20.09478" rx="4.567"/><path d="M666.11159,64.97446h-2.55078V56.82065h-3.16016V54.89926c1.77735.05371,3.39356-.5747,3.68164-2.49658h2.0293Z"/><path d="M688.593,52.15122h6.03418c2.42481,0,3.89746,1.293,3.89746,3.3584a3.04591,3.04591,0,0,1-2.22753,3.251v.03565c1.49121.28759,1.77832,1.40088,1.92187,2.64013.08984,1.23926.03613,2.67578.75488,3.53809H697.0696c-.48438-.521-.21582-1.90381-.4668-3.16113-.19727-1.23877-.48535-2.31641-2.1377-2.31641h-4.166v5.47754H688.593Zm5.26172,5.90869c1.58106,0,2.96387-.41309,2.96387-2.28076a2.02111,2.02111,0,0,0-2.28125-2.19092h-4.23828v4.47168Z"/><path d="M708.33034,64.97446h-1.43652V63.5018h-.03614a3.21383,3.21383,0,0,1-3.01758,1.688c-2.44238,0-3.19628-1.40088-3.19628-3.394V55.6893h1.52636v6.28614a1.74069,1.74069,0,0,0,1.88574,1.86767,2.60993,2.60993,0,0,0,2.74805-2.90967V55.6893h1.52637Z"/><path d="M710.68288,52.15122h1.52637v4.79541h.03613a3.10654,3.10654,0,0,1,2.96289-1.47266c2.85547,0,4.27441,2.2627,4.27441,4.88477,0,2.64013-1.40039,4.83105-4.23828,4.83105a3.55459,3.55459,0,0,1-2.999-1.45459h-.03613v1.23926h-1.52637Zm4.31054,4.66943c-2.06542,0-2.83789,1.77832-2.83789,3.50244,0,1.814.82618,3.52,2.92774,3.52,2.083,0,2.7832-1.77832,2.7832-3.5918C717.86647,58.50913,716.969,56.82065,714.99342,56.82065Z"/><path d="M721.33229,52.15122h1.52735v4.79541h.03515a3.10813,3.10813,0,0,1,2.96387-1.47266c2.85547,0,4.27441,2.2627,4.27441,4.88477,0,2.64013-1.40136,4.83105-4.23828,4.83105a3.55629,3.55629,0,0,1-3-1.45459h-.03515v1.23926h-1.52735Zm4.31055,4.66943c-2.06543,0-2.83789,1.77832-2.83789,3.50244,0,1.814.82617,3.52,2.92773,3.52,2.083,0,2.78418-1.77832,2.78418-3.5918C728.51686,58.50913,727.61842,56.82065,725.64284,56.82065Z"/><path d="M739.84889,62.02915a3.71724,3.71724,0,0,1-3.96875,3.16064c-2.96386,0-4.36425-2.06494-4.4541-4.88476,0-2.80176,1.832-4.83106,4.36426-4.83106,3.28613,0,4.292,3.0708,4.20215,5.31592h-6.9502a2.73549,2.73549,0,0,0,2.8916,3.05322,2.2109,2.2109,0,0,0,2.40625-1.814Zm-1.47265-2.58643a2.67175,2.67175,0,0,0-2.67578-2.62207,2.633,2.633,0,0,0-2.65821,2.62207Z"/><path d="M741.51882,55.6893h1.43652v1.95752h.03613a3.35262,3.35262,0,0,1,3.41211-2.17285v1.61621c-2.46,0-3.3584,1.38281-3.3584,3.75342v4.13086h-1.52636Z"/><path d="M752.79714,52.15122h4.65136a7.7202,7.7202,0,0,1,3.39453.46679,3.02268,3.02268,0,0,1,1.50879,2.67627,2.93909,2.93909,0,0,1-1.90429,2.87354v.03564a2.95018,2.95018,0,0,1,2.44238,3.08936,3.66141,3.66141,0,0,1-3.89746,3.68164h-6.19531Zm1.70605,5.51367h3.41211c1.93945,0,2.72949-.68262,2.72949-2.04736,0-1.7959-1.23926-2.0293-2.72949-2.0293h-3.41211Zm0,5.873h4.27441a2.18108,2.18108,0,0,0,2.40625-2.29883c0-1.67041-1.34668-2.13721-2.7832-2.13721h-3.89746Z"/><path d="M773.0735,64.93833a2.15,2.15,0,0,1-1.0957.25146c-.79,0-1.293-.43066-1.293-1.43652a4.065,4.065,0,0,1-3.26855,1.43652c-1.68848,0-3.07129-.73633-3.07129-2.604,0-2.10108,1.5625-2.56836,3.14258-2.85547,1.67089-.34131,3.125-.19776,3.125-1.36524,0-1.34668-1.11329-1.54443-2.06543-1.54443-1.293,0-2.24512.395-2.31641,1.76025h-1.52637c.08985-2.29882,1.84961-3.10693,3.93262-3.10693,1.6709,0,3.48437.377,3.48437,2.55029v4.77686c0,.71875,0,1.042.48536,1.042a1.53606,1.53606,0,0,0,.46679-.08984ZM770.595,60.17905c-1.18555.88037-4.63379.01807-4.63379,2.29883,0,1.00586.8623,1.36523,1.7959,1.36523,2.01172,0,2.83789-1.23926,2.83789-2.10156Z"/><path d="M774.49147,55.6893h1.4375V57.162h.03516a3.21482,3.21482,0,0,1,3.01758-1.688c2.44238,0,3.19629,1.40088,3.19629,3.394v6.10645h-1.52637V58.68881a1.74059,1.74059,0,0,0-1.88574-1.86816,2.60993,2.60993,0,0,0-2.74805,2.90967v5.24414h-1.52637Z"/><path d="M792.77467,64.97446h-1.52636V63.71714h-.03614a3.10655,3.10655,0,0,1-2.96289,1.47265c-2.85546,0-4.27441-2.26269-4.27441-4.88476s1.40039-4.83106,4.23828-4.83106a3.55458,3.55458,0,0,1,2.999,1.45459h.03614V52.15122h1.52636Zm-4.31054-1.13135c2.06543,0,2.83789-1.77832,2.83789-3.50244,0-1.81348-.82617-3.52-2.92676-3.52-2.084,0-2.78418,1.77832-2.78418,3.59229C785.59108,62.15464,786.48952,63.84311,788.46413,63.84311Z"/><path d="M807.78835,55.90464c-.19727-1.84961-1.40039-2.62208-3.17871-2.62208-1.45508,0-2.874.521-2.874,2.19141,0,3.16065,8.208.93359,8.208,5.98047,0,2.73-2.67578,3.8252-5.01074,3.8252-2.874,0-5.29785-1.41846-5.29785-4.52588h1.61621c0,2.15527,1.7959,3.08935,3.73535,3.08935,1.54492,0,3.251-.48486,3.251-2.335,0-3.52-8.208-1.20312-8.208-5.90869,0-2.58594,2.29883-3.75342,4.65136-3.75342,2.62305,0,4.63379,1.23926,4.72364,4.0586Z"/><path d="M811.84694,52.15122h1.52637V64.97446h-1.52637Z"/><path d="M819.74928,55.474c2.94532,0,4.50782,2.13721,4.50782,4.8667,0,2.71191-1.5625,4.84912-4.50782,4.84912s-4.50781-2.13721-4.50781-4.84912C815.24147,57.61118,816.804,55.474,819.74928,55.474Zm0,8.36914c1.59864,0,2.89161-1.25732,2.89161-3.50244,0-2.24463-1.293-3.52-2.89161-3.52s-2.8916,1.27539-2.8916,3.52C816.85768,62.58579,818.15065,63.84311,819.74928,63.84311Z"/><path d="M828.17214,55.6893h1.84961v1.34717h-1.84961v5.76465c0,.71875.19726.82617,1.14941.82617h.7002v1.34717h-1.167c-1.58105,0-2.209-.32324-2.209-2.0293V57.03647h-1.58106V55.6893h1.58106V52.90561h1.52637Z"/><path d="M832.64382,62.04721c.05371,1.36475,1.25683,1.7959,2.49609,1.7959.95215,0,2.24512-.21582,2.24512-1.38281,0-2.38867-6.07032-.77246-6.07032-4.34619,0-1.86817,1.832-2.64014,3.4668-2.64014,2.083,0,3.66309.64649,3.80664,2.90918h-1.52637c-.08984-1.18506-1.167-1.5625-2.15527-1.5625-.916,0-1.97559.25147-1.97559,1.18555,0,1.07763,1.61622,1.293,3.03516,1.61621,1.52734.34131,3.03516.8623,3.03516,2.64014,0,2.227-2.06543,2.92724-3.95117,2.92724-2.083,0-3.84278-.84375-3.93262-3.14258Z"/></g></g></svg>