<svg xmlns="http://www.w3.org/2000/svg" xmlns:xlink="http://www.w3.org/1999/xlink" viewBox="0 0 84.729 43.86002"><defs><style>.cls-1,.cls-13,.cls-31,.cls-32,.cls-33{fill:none;}.cls-2{fill:#7f7f7f;}.cls-3{fill:#333;}.cls-4{fill:#b2b2b2;}.cls-5{fill:#ec2024;}.cls-6{fill:#fff200;}.cls-14,.cls-7{fill:#fff;}.cls-8{fill:#242424;}.cls-10,.cls-11,.cls-12,.cls-13,.cls-14,.cls-15,.cls-16,.cls-30,.cls-31,.cls-32,.cls-33,.cls-34,.cls-8,.cls-9{opacity:0.5;}.cls-9{fill:#bf8f3e;}.cls-10{fill:#e6e7e7;}.cls-11{fill:#e9d8c5;}.cls-12{fill:#0f0b0d;}.cls-13{stroke:#e9d8c5;stroke-linejoin:round;stroke-width:0.19623px;}.cls-15{fill:#171c22;}.cls-17{clip-path:url(#clip-path);}.cls-18{fill:#e5e5e5;}.cls-19,.cls-30{fill:#232323;}.cls-20{clip-path:url(#clip-path-3);}.cls-21{clip-path:url(#clip-path-5);}.cls-22{clip-path:url(#clip-path-7);}.cls-23{fill:#ca992c;}.cls-24{clip-path:url(#clip-path-9);}.cls-25{clip-path:url(#clip-path-11);}.cls-26{clip-path:url(#clip-path-13);}.cls-27{clip-path:url(#clip-path-15);}.cls-28{clip-path:url(#clip-path-17);}.cls-29{clip-path:url(#clip-path-19);}.cls-31,.cls-32,.cls-33{stroke:#fff;stroke-miterlimit:10;}.cls-31,.cls-32{stroke-width:0.13082px;}.cls-32{stroke-linecap:round;}.cls-33{stroke-width:0.06541px;}.cls-34{fill:#fdfefe;}.cls-35{fill:#eaf4fc;}.cls-36{fill:#323d49;}.cls-37{fill:#222630;}.cls-38{fill:#be8e3f;}</style><clipPath id="clip-path"><rect class="cls-1" x="26.49137" y="11.80507" width="1.04657" height="2.1978"/></clipPath><clipPath id="clip-path-3"><rect class="cls-1" x="26.58948" y="20.53741" width="1.04657" height="2.1978"/></clipPath><clipPath id="clip-path-5"><rect class="cls-1" x="26.58948" y="27.53637" width="1.04657" height="2.1978"/></clipPath><clipPath id="clip-path-7"><rect class="cls-1" x="28.84616" y="22.33621" width="2.22397" height="0.98836"/></clipPath><clipPath id="clip-path-9"><rect class="cls-1" x="17.20303" y="13.50575" width="2.22397" height="0.98836"/></clipPath><clipPath id="clip-path-11"><rect class="cls-1" x="26.52015" y="14.8506" width="0.98836" height="2.22397"/></clipPath><clipPath id="clip-path-13"><rect class="cls-1" x="28.15542" y="14.8506" width="0.98836" height="2.22397"/></clipPath><clipPath id="clip-path-15"><rect class="cls-1" x="17.20303" y="16.64547" width="2.22397" height="0.98836"/></clipPath><clipPath id="clip-path-17"><rect class="cls-1" x="17.20303" y="15.07561" width="2.22397" height="0.98836"/></clipPath><clipPath id="clip-path-19"><rect class="cls-1" x="28.84616" y="24.1023" width="2.22397" height="0.98836"/></clipPath></defs><g id="Layer_2" data-name="Layer 2"><g id="Layer_1-2" data-name="Layer 1"><rect class="cls-2" x="76.18362" y="0.0005" width="2.35343" height="43.85952"/><rect class="cls-2" x="73.2432" y="0.0005" width="2.35343" height="43.85952"/><rect class="cls-3" x="71.8739" y="2.23354" width="1.3663" height="1.60759" rx="0.2273"/><rect class="cls-4" x="73.54194" width="2.0547" height="1.60759" rx="0.19533"/><rect class="cls-3" x="73.54194" y="2.19957" width="2.0547" height="1.60759" rx="0.19533"/><rect class="cls-5" x="73.54194" y="4.46658" width="2.0547" height="1.60759" rx="0.19533"/><rect class="cls-4" x="73.54194" y="6.73259" width="2.0547" height="1.60759" rx="0.19533"/><rect class="cls-4" x="73.54194" y="8.90019" width="2.0547" height="1.60759" rx="0.19533"/><rect class="cls-4" x="73.54194" y="11.06879" width="2.0547" height="1.60759" rx="0.19533"/><rect class="cls-4" x="73.54194" y="13.30932" width="2.0547" height="1.60759" rx="0.19533"/><rect class="cls-4" x="73.54194" y="15.51039" width="2.0547" height="1.60759" rx="0.19533"/><rect class="cls-4" x="73.54194" y="17.73144" width="2.0547" height="1.60759" rx="0.19533"/><rect class="cls-6" x="73.54194" y="19.98097" width="2.0547" height="1.60759" rx="0.19533"/><rect class="cls-4" x="73.54194" y="22.30493" width="2.0547" height="1.60759" rx="0.19533"/><rect class="cls-4" x="73.54194" y="24.48552" width="2.0547" height="1.60759" rx="0.19533"/><rect class="cls-4" x="76.18362" width="2.0547" height="1.60759" rx="0.19533"/><rect class="cls-3" x="76.18362" y="2.19957" width="2.0547" height="1.60759" rx="0.19533"/><rect class="cls-4" x="76.18362" y="4.46658" width="2.0547" height="1.60759" rx="0.19533"/><rect class="cls-4" x="76.18362" y="6.73259" width="2.0547" height="1.60759" rx="0.19533"/><rect class="cls-4" x="76.18362" y="8.90019" width="2.0547" height="1.60759" rx="0.19533"/><rect class="cls-4" x="76.18362" y="11.06879" width="2.0547" height="1.60759" rx="0.19533"/><rect class="cls-4" x="76.18362" y="13.30932" width="2.0547" height="1.60759" rx="0.19533"/><rect class="cls-4" x="76.18362" y="15.51039" width="2.0547" height="1.60759" rx="0.19533"/><rect class="cls-4" x="76.18362" y="17.73144" width="2.0547" height="1.60759" rx="0.19533"/><rect class="cls-6" x="76.18362" y="19.98097" width="2.0547" height="1.60759" rx="0.19533"/><rect class="cls-4" x="76.18362" y="22.30493" width="2.0547" height="1.60759" rx="0.19533"/><rect class="cls-4" x="76.18362" y="24.48552" width="2.0547" height="1.60759" rx="0.19533"/><rect class="cls-4" x="76.18362" y="26.6666" width="2.0547" height="1.60759" rx="0.19533"/><rect class="cls-4" x="76.18362" y="28.8352" width="2.0547" height="1.60759" rx="0.19533"/><rect class="cls-4" x="76.18362" y="31.07574" width="2.0547" height="1.60759" rx="0.19533"/><rect class="cls-4" x="76.18362" y="33.2768" width="2.0547" height="1.60759" rx="0.19533"/><rect class="cls-4" x="76.18362" y="35.49786" width="2.0547" height="1.60759" rx="0.19533"/><rect class="cls-4" x="76.18362" y="37.74738" width="2.0547" height="1.60759" rx="0.19533"/><rect class="cls-4" x="76.18362" y="40.07134" width="2.0547" height="1.60759" rx="0.19533"/><path class="cls-7" d="M76.49535,27.383a.34307.34307,0,0,1,.34969-.39016.30725.30725,0,0,1,.33121.30223c0,.29225-.31023.31573-.4496.51405h.4566v.16835h-.70888c0-.2248.13788-.31722.30473-.43162.08393-.05945.20283-.1174.20283-.23579a.1389.1389,0,0,0-.14488-.14987c-.11589,0-.15287.1199-.15287.22181Z"/><path class="cls-7" d="M77.90262,27.17366H77.503l-.03847.21931v.0025a.2498.2498,0,0,1,.18883-.07444.30008.30008,0,0,1,.29974.32821.3497.3497,0,0,1-.34958.34981l-.00911-.00011a.32278.32278,0,0,1-.35868-.30624h.19583a.15436.15436,0,0,0,.15886.14488.17486.17486,0,0,0,.16708-.18229l-.00023-.004A.16636.16636,0,0,0,77.606,27.471c-.00519-.00045-.01041-.00066-.01562-.00063a.16038.16038,0,0,0-.14987.07743h-.17635l.09492-.53353h.54353Z"/><path class="cls-7" d="M76.49535,29.5141A.34284.34284,0,0,1,76.845,29.124a.30682.30682,0,0,1,.33121.29973c0,.29275-.31023.31623-.4496.51455h.4566v.16835h-.70888c0-.2248.13788-.31722.30473-.43162.08393-.05945.20283-.11739.20283-.23579a.1389.1389,0,0,0-.14488-.14987c-.11589,0-.15287.1199-.15287.22181Z"/><path class="cls-7" d="M77.9241,29.31028a1.1852,1.1852,0,0,0-.31572.7993h-.20981a1.40972,1.40972,0,0,1,.32421-.78331h-.4581v-.18184h.65942Z"/><path class="cls-7" d="M76.75862,36.23171c.08442.007.20582-.00949.20582-.1199a.12738.12738,0,0,0-.12653-.12823l-.01035.00035c-.09991,0-.14987.07293-.14987.17235h-.18584a.3189.3189,0,0,1,.33371-.33371.29739.29739,0,0,1,.32372.26726.19234.19234,0,0,1-.13488.19983h0a.21481.21481,0,0,1,.17085.21931.35977.35977,0,0,1-.71687-.03248h.18533c.0045.10491.057.19034.16985.19034a.14988.14988,0,0,0,.15718-.14219l.00019-.00768c0-.14637-.12839-.14338-.22381-.14338Z"/><path class="cls-7" d="M77.52544,36.23171c.08393.007.20532-.00949.20532-.1199a.12688.12688,0,0,0-.12552-.12823l-.01086.00035c-.09991,0-.14987.07293-.14987.17235h-.18633a.31943.31943,0,0,1,.33371-.33371.29786.29786,0,0,1,.32421.26726.19233.19233,0,0,1-.13537.19983h0a.2148.2148,0,0,1,.17184.21831.36.36,0,0,1-.71737-.03247h.18633c.004.1049.05645.19033.16935.19033a.14987.14987,0,0,0,.15718-.14219l.00019-.00768c0-.14637-.12839-.14337-.22331-.14337Z"/><path class="cls-7" d="M76.75862,38.48773c.08442.0065.20582-.01.20582-.12039a.12739.12739,0,0,0-.12653-.12824l-.01035.00035c-.09991,0-.14987.07294-.14987.17235h-.18584a.31891.31891,0,0,1,.33371-.33371.29739.29739,0,0,1,.32372.26727.19182.19182,0,0,1-.13488.19982v.003a.21381.21381,0,0,1,.17085.21881.35977.35977,0,0,1-.71687-.03247h.18533c.0045.1049.057.19033.16985.19033a.14987.14987,0,0,0,.15718-.14219l.00019-.00768c0-.14637-.12839-.14337-.22381-.14337Z"/><path class="cls-7" d="M77.90262,38.25643H77.503l-.03847.21931v.003a.2453.2453,0,0,1,.18833-.07244.3014.3014,0,0,1,.29974.32822.34969.34969,0,0,1-.35206.3473l-.00663-.00011a.32271.32271,0,0,1-.35868-.30573H77.431a.15435.15435,0,0,0,.15886.14437.17433.17433,0,0,0,.16709-.1813l-.00024-.00453a.16635.16635,0,0,0-.15123-.18021c-.00519-.00046-.01041-.00067-.01562-.00063a.16034.16034,0,0,0-.14987.07743h-.17635l.09492-.534h.544Z"/><path class="cls-7" d="M76.49535,31.7921A.34284.34284,0,0,1,76.845,31.402a.30682.30682,0,0,1,.33121.29973c0,.29275-.31023.31573-.4496.51455h.4566v.16835h-.70888c0-.2248.13788-.31722.30473-.43162.08393-.05945.20283-.11739.20283-.23579a.1389.1389,0,0,0-.14488-.14987c-.11589,0-.15287.1199-.15287.22181Z"/><path class="cls-7" d="M77.44252,32.1383a.13838.13838,0,0,0,.12989.1199c.14337,0,.17784-.18734.18483-.29374l-.00449-.0025a.24228.24228,0,0,1-.21781.1079.30821.30821,0,0,1-.2218-.09991.32771.32771,0,0,1-.07444-.21531.33421.33421,0,0,1,.33771-.35269c.29224,0,.37067.25477.37067.49956s-.1044.50456-.37916.50456a.29376.29376,0,0,1-.31273-.26727Zm.29674-.39565a.16554.16554,0,0,0-.15587-.17934.15914.15914,0,0,0-.14986.17634.155.155,0,1,0,.30573.003Z"/><path class="cls-7" d="M76.75862,34.04713c.08442.007.20582-.00949.20582-.1199a.12738.12738,0,0,0-.126-.12873l-.01085.00034c-.09991,0-.14987.07294-.14987.17235h-.18584a.3189.3189,0,0,1,.33371-.3337.29776.29776,0,0,1,.32372.26776.19135.19135,0,0,1-.13488.19683v.003a.2148.2148,0,0,1,.17085.2193.35977.35977,0,0,1-.71687-.03247h.18533c.0045.10491.057.19033.16985.19033a.14987.14987,0,0,0,.15718-.14218l.00019-.00769c0-.14587-.12839-.14337-.22381-.14337Z"/><path class="cls-7" d="M77.75275,34.62212h-.19583v-.626h-.24279V33.8463c.13638.004.26077-.04446.28275-.19183h.15587Z"/><path class="cls-7" d="M76.75862,40.81719c.08442.007.20582-.00949.20582-.1199a.12738.12738,0,0,0-.126-.12873l-.01085.00034c-.09991,0-.14987.07344-.14987.17235h-.18584a.3189.3189,0,0,1,.33371-.3337.29776.29776,0,0,1,.32372.26776.19234.19234,0,0,1-.13488.19983h0a.21481.21481,0,0,1,.17085.2193.35977.35977,0,0,1-.71687-.03247h.18533c.0045.10491.057.19033.16985.19033a.14986.14986,0,0,0,.15718-.14218l.00019-.00768c0-.14588-.12839-.14338-.22381-.14338Z"/><path class="cls-7" d="M77.9241,40.59538a1.18278,1.18278,0,0,0-.31572.7968h-.20981a1.41129,1.41129,0,0,1,.32421-.78331h-.4581V40.427h.65942Z"/><rect class="cls-3" x="76.18362" y="42.25193" width="2.0547" height="1.60759" rx="0.19533"/><rect class="cls-4" x="73.54194" y="26.6666" width="2.0547" height="1.60759" rx="0.19533"/><path class="cls-7" d="M76.75862,43.00477c.08442.007.20582-.00949.20582-.1199a.12738.12738,0,0,0-.126-.12873l-.01085.00034c-.09991,0-.14987.07294-.14987.17235h-.18584a.3189.3189,0,0,1,.33371-.3337.29776.29776,0,0,1,.32372.26776.19135.19135,0,0,1-.13488.19683v.003a.2148.2148,0,0,1,.17085.2193.35977.35977,0,0,1-.71687-.03247h.18533c.0045.10441.057.19033.16985.19033a.14987.14987,0,0,0,.15718-.14218l.00019-.00768c0-.14638-.12839-.14338-.22381-.14338Z"/><path class="cls-7" d="M77.44252,43.33148a.13838.13838,0,0,0,.12989.1199c.14337,0,.17784-.18734.18483-.29374l-.003-.0025a.24331.24331,0,0,1-.21781.10741.30626.30626,0,0,1-.2218-.09992.32617.32617,0,0,1-.07443-.21481.33435.33435,0,0,1,.3377-.35319c.29224,0,.37068.25528.37068.49956s-.10441.50506-.37917.50506a.29423.29423,0,0,1-.31272-.26776Zm.29674-.39565a.16554.16554,0,0,0-.15587-.17934.15941.15941,0,0,0-.14986.17634.16258.16258,0,0,0,.14986.18235.16071.16071,0,0,0,.15587-.17935Z"/><rect class="cls-4" x="73.54194" y="28.8352" width="2.0547" height="1.60759" rx="0.19533"/><rect class="cls-4" x="73.54194" y="31.07574" width="2.0547" height="1.60759" rx="0.19533"/><rect class="cls-6" x="73.54194" y="33.2768" width="2.0547" height="1.60759" rx="0.19533"/><rect class="cls-4" x="73.54194" y="35.49786" width="2.0547" height="1.60759" rx="0.19533"/><rect class="cls-4" x="73.54194" y="37.74738" width="2.0547" height="1.60759" rx="0.19533"/><rect class="cls-4" x="73.54194" y="40.07134" width="2.0547" height="1.60759" rx="0.19533"/><rect class="cls-3" x="73.54194" y="42.25193" width="2.0547" height="1.60759" rx="0.19533"/><path class="cls-7" d="M74.23683.7988a.34285.34285,0,0,1,.34969-.39016.30682.30682,0,0,1,.33121.29974c0,.29274-.31022.31572-.4496.51455h.4566v.16835h-.70888c0-.2248.13788-.31722.30473-.43162.08393-.05945.20283-.1174.20283-.2358A.13882.13882,0,0,0,74.57854.574c-.1159,0-.15287.11989-.15287.2218Z"/><path class="cls-7" d="M73.85617,27.383a.34282.34282,0,0,1,.34969-.39016.3071.3071,0,0,1,.33071.30223c0,.29225-.31023.31573-.44961.51405h.4561v.16835h-.70838c0-.2248.13788-.31722.30473-.43162.08393-.05945.20233-.1174.20233-.23579a.13839.13839,0,0,0-.14438-.14987c-.11589,0-.15336.1199-.15336.22181Z"/><path class="cls-7" d="M75.10507,27.26058a.13788.13788,0,0,0-.12939-.11989c-.14087,0-.18084.18733-.18483.29324v.003a.24278.24278,0,0,1,.21831-.10741.30875.30875,0,0,1,.2218.09991.33016.33016,0,0,1,.07443.21531.33381.33381,0,0,1-.3377.35319c-.29224,0-.37118-.25527-.37118-.49956s.10491-.50455.37917-.50455a.29423.29423,0,0,1,.31322.26776Zm-.29624.39565a.16584.16584,0,0,0,.15152.179l.00434.00031a.1616.1616,0,0,0,.14737-.17684c0-.08843-.047-.18185-.14737-.18185a.16265.16265,0,0,0-.15686.17934Z"/><path class="cls-7" d="M74.11694,34.06461c.08442.007.20531-.01.20531-.11989a.12739.12739,0,0,0-.12606-.1287l-.01032.00031c-.09991,0-.14986.07294-.14986.17235h-.18634a.31944.31944,0,0,1,.33371-.33371.29757.29757,0,0,1,.32422.26727.19183.19183,0,0,1-.13488.19982v.003a.21431.21431,0,0,1,.17085.21931.35981.35981,0,0,1-.71688-.033h.18584c.004.10441.05645.18983.16985.18983a.14987.14987,0,0,0,.1567-.14271l.00016-.00716c0-.14637-.12789-.14337-.2233-.14337Z"/><path class="cls-7" d="M74.6205,34.04513a.34259.34259,0,0,1,.34969-.39016.30666.30666,0,0,1,.33071.29974c0,.29274-.31023.31572-.44961.51455h.4536v.16835H74.596c0-.2248.13788-.31722.30473-.43162.08442-.05945.20283-.1174.20283-.23579a.13834.13834,0,0,0-.14488-.14987c-.11589,0-.15287.11989-.15287.2218Z"/><path class="cls-7" d="M74.11694,38.50622c.08442.007.20531-.0095.20531-.1199a.12739.12739,0,0,0-.12606-.1287l-.01032.00031c-.09991,0-.14986.07344-.14986.17235h-.18634a.31945.31945,0,0,1,.33371-.33371.298.298,0,0,1,.32422.26777.19233.19233,0,0,1-.13488.19982h0a.21481.21481,0,0,1,.17085.21931.35977.35977,0,0,1-.71688-.03247h.18584c.004.10491.05645.19033.16985.19033a.14987.14987,0,0,0,.1567-.14271l.00016-.00716c0-.14587-.12789-.14337-.2233-.14337Z"/><path class="cls-7" d="M75.10507,38.36284a.13738.13738,0,0,0-.12939-.11989c-.14087,0-.18084.18733-.18483.29374h.003a.24231.24231,0,0,1,.21781-.10741.30725.30725,0,0,1,.2218.09991.3292.3292,0,0,1,.07443.21481.33381.33381,0,0,1-.3377.35319c-.29224,0-.37118-.25527-.37118-.49956s.10491-.50505.37917-.50505a.29474.29474,0,0,1,.31323.26776Zm-.29624.39565a.16555.16555,0,0,0,.15586.17935.15757.15757,0,0,0,.14737-.17635c0-.08792-.047-.18234-.14737-.18234a.16292.16292,0,0,0-.15686.17934Z"/><path class="cls-7" d="M74.11694,40.83467c.08442.007.20531-.01.20531-.11989a.12738.12738,0,0,0-.12606-.1287l-.01032.00031c-.09991,0-.14986.07294-.14986.17235h-.18634a.31944.31944,0,0,1,.33371-.33371.298.298,0,0,1,.32422.26776.19134.19134,0,0,1-.13488.19683v.003a.21481.21481,0,0,1,.17085.21931.35977.35977,0,0,1-.71688-.03247h.18584c.004.1044.05645.19033.16985.19033a.14987.14987,0,0,0,.1567-.14271l.00016-.00716c0-.14637-.12789-.14337-.2233-.14337Z"/><path class="cls-7" d="M74.9552,40.425a.28732.28732,0,0,1,.32222.25927.20233.20233,0,0,1-.14038.20283v.00249a.22431.22431,0,0,1,.18034.23579.32328.32328,0,0,1-.36118.30374c-.18085,0-.36668-.09392-.36668-.29974a.22779.22779,0,0,1,.18184-.23729v-.0025a.19282.19282,0,0,1-.14187-.19982A.29251.29251,0,0,1,74.9552,40.425Zm0,.85625a.15886.15886,0,0,0,.16575-.15166l.0001-.0112a.15686.15686,0,0,0-.15908-.15461l-.00677.00025a.15363.15363,0,0,0-.17085.15336.16286.16286,0,0,0,.16166.164Zm0-.44961a.13139.13139,0,1,0,0-.26077.13488.13488,0,0,0-.149.11907l-.00084.01482a.13353.13353,0,0,0,.14987.12838Z"/><path class="cls-7" d="M74.23284,43.3145h-.40815v-.17935l.41914-.5625h.17534v.57949h.12789v.16136h-.12789v.2233h-.18633Zm0-.49657h-.004l-.24978.33521h.25378Z"/><path class="cls-7" d="M74.95121,42.55267c.19283,0,.35568.12139.35568.49956,0,.38466-.16285.50605-.35568.50605s-.35319-.12139-.35319-.50605C74.598,42.67456,74.75937,42.55267,74.95121,42.55267Zm0,.84276c.15985,0,.15985-.2358.15985-.3447,0-.09992,0-.33671-.15985-.33671s-.15737.23579-.15737.33671c0,.1094,0,.3452.15737.3452Z"/><path class="cls-7" d="M73.85617,29.5141a.34258.34258,0,0,1,.34969-.39015.30709.30709,0,0,1,.33121.29973c0,.29275-.31073.31623-.44961.51455h.4566v.16835h-.70887c0-.2248.13788-.31722.30473-.43162.08393-.05945.20282-.11739.20282-.23579a.13889.13889,0,0,0-.14487-.14987c-.1159,0-.15336.1199-.15336.22181Z"/><path class="cls-7" d="M74.9552,29.123a.28731.28731,0,0,1,.32222.25927.20233.20233,0,0,1-.14038.20282v.0025a.22431.22431,0,0,1,.18034.23579.32291.32291,0,0,1-.36118.30323c-.18085,0-.36668-.09341-.36668-.29973a.22779.22779,0,0,1,.18184-.23729V29.587a.19283.19283,0,0,1-.14187-.19983A.2938.2938,0,0,1,74.9552,29.123Zm0,.85625a.15886.15886,0,0,0,.16575-.15166l.0001-.0112a.15636.15636,0,0,0-.16-.15261l-.00582.00024a.15364.15364,0,0,0-.17085.15337.16285.16285,0,0,0,.16366.162Zm0-.44961a.13139.13139,0,1,0,0-.26077.13488.13488,0,0,0-.149.11906l-.00084.01482a.13353.13353,0,0,0,.14987.12839Z"/><path class="cls-7" d="M74.11694,31.82858c.08442.007.20531-.0095.20531-.1199a.12739.12739,0,0,0-.12606-.1287l-.01032.00031c-.09991,0-.14986.07344-.14986.17285h-.18634a.31985.31985,0,0,1,.33371-.33421.298.298,0,0,1,.32422.26777.19233.19233,0,0,1-.13488.19982h0a.21481.21481,0,0,1,.17085.21931.35977.35977,0,0,1-.71688-.03247h.18584c.004.10491.05645.19033.16985.19033a.14987.14987,0,0,0,.1567-.14271l.00016-.00716c0-.14587-.12789-.14337-.2233-.14337Z"/><path class="cls-7" d="M74.95121,31.41893c.19283,0,.35568.1214.35568.49957,0,.38466-.16285.50605-.35568.50605s-.35319-.12139-.35319-.50605C74.598,31.54033,74.75937,31.41893,74.95121,31.41893Zm0,.84276c.15985,0,.15985-.23579.15985-.34469,0-.09992,0-.33671-.15985-.33671s-.15737.23579-.15737.33671C74.79384,32.0259,74.79384,32.26169,74.95121,32.26169Z"/><path class="cls-7" d="M74.11694,36.23171c.08442.007.20531-.00949.20531-.1199a.12688.12688,0,0,0-.12552-.12823l-.01086.00035c-.09991,0-.14986.07293-.14986.17235h-.18634a.31944.31944,0,0,1,.33371-.33371.29757.29757,0,0,1,.32422.26726.19235.19235,0,0,1-.13488.19983h0a.21481.21481,0,0,1,.17085.21931.35977.35977,0,0,1-.71688-.03248h.18584c.004.10491.05645.19034.16985.19034a.14987.14987,0,0,0,.1567-.14271l.00016-.00716c0-.14637-.12789-.14338-.2233-.14338Z"/><path class="cls-7" d="M74.99966,36.5834h-.40814v-.17934l.41913-.56251h.17485V36.422h.12838v.16136H75.1855v.22431h-.18584Zm0-.49606h-.00449l-.24978.33471h.25377Z"/><path class="cls-7" d="M77.36809,1.33383h-.19583v-.626H76.93V.56051c.13638.004.26027-.04446.28225-.19183h.15587Z"/><path class="cls-7" d="M77.14228,2.9589c.08393.007.20532-.00949.20532-.11989a.12739.12739,0,0,0-.12606-.1287l-.01032.00031c-.09991,0-.14986.07294-.14986.17235H76.875a.31944.31944,0,0,1,.33371-.33371.29824.29824,0,0,1,.32421.26777.19183.19183,0,0,1-.13537.19683v.003a.21432.21432,0,0,1,.17085.21931.35977.35977,0,0,1-.71688-.03247h.18634c.004.10441.05645.19033.16935.19033a.14985.14985,0,0,0,.15717-.14218l.00019-.00769c0-.14637-.12838-.14337-.2233-.14337Z"/><path class="cls-7" d="M77.517,4.99662h-.39965l-.039.2188.003.003a.24528.24528,0,0,1,.18883-.07443.3014.3014,0,0,1,.29974.32821.3497.3497,0,0,1-.34959.3498l-.0086-.00011a.32255.32255,0,0,1-.35868-.30623h.19583a.15386.15386,0,0,0,.15836.14487.17486.17486,0,0,0,.16708-.18228l-.00023-.00405A.16585.16585,0,0,0,77.2239,5.294a.16267.16267,0,0,0-.01667-.00067.15983.15983,0,0,0-.14987.07743H76.881l.09492-.53353h.539Z"/><path class="cls-7" d="M77.05935,9.9208a.13838.13838,0,0,0,.12989.12039c.14337,0,.17785-.18784.18433-.29374l-.0025-.003a.24228.24228,0,0,1-.2178.10741.30975.30975,0,0,1-.22231-.09992.35223.35223,0,0,1,.26377-.5685c.29225,0,.37068.25528.37068.49956,0,.2368-.10491.50456-.37916.50456A.29474.29474,0,0,1,76.873,9.9198Zm.29674-.39566a.16636.16636,0,0,0-.15253-.17911l-.00333-.00023a.18224.18224,0,0,0,0,.35869.16046.16046,0,0,0,.15587-.17935Z"/><path class="cls-7" d="M76.98492,12.36915h-.19583V11.7432H76.5463v-.14987c.13638.00449.26077-.044.28276-.19133h.15586Z"/><path class="cls-7" d="M77.75275,12.36915h-.19583V11.7432h-.24279v-.14987c.13638.00449.26077-.044.28275-.19133h.15587Z"/><path class="cls-7" d="M76.98492,19.06927h-.19583v-.62595H76.5463V18.296c.13638.004.26077-.044.28276-.19183h.15586Z"/><path class="cls-7" d="M77.9241,18.274a1.18274,1.18274,0,0,0-.31572.7968h-.20981a1.40821,1.40821,0,0,1,.32421-.78282h-.4581v-.18383h.65942Z"/><path class="cls-7" d="M76.98492,21.3158h-.19583v-.62645H76.5463v-.14987c.13638.004.26077-.044.28276-.19183h.15586Z"/><path class="cls-7" d="M77.44252,21.06752a.13838.13838,0,0,0,.12989.11989c.14337,0,.17784-.18733.18483-.29374l-.003-.003a.2418.2418,0,0,1-.21781.10791.30925.30925,0,0,1-.2218-.09992.33014.33014,0,0,1-.07443-.21531.33421.33421,0,0,1,.3377-.35269c.29224,0,.37068.25478.37068.49956s-.10441.50456-.37917.50456a.29373.29373,0,0,1-.31272-.26726Zm.29674-.39566a.16554.16554,0,0,0-.15587-.17934.1573.1573,0,0,0-.14736.17635c0,.08842.04646.18184.14736.18184A.16145.16145,0,0,0,77.73926,20.67186Z"/><path class="cls-7" d="M76.49535,23.0198a.34281.34281,0,0,1,.34969-.39015.3074.3074,0,0,1,.33121.29973c0,.29225-.31023.31573-.4496.51405h.4566v.16835h-.70888c0-.2248.13788-.31722.30473-.43162.08393-.05945.20283-.1174.20283-.23579a.1389.1389,0,0,0-.14488-.14987c-.11589,0-.15336.11989-.15336.22181Z"/><path class="cls-7" d="M77.75275,23.61628h-.19583v-.62595h-.24279v-.14987c.13638.004.26077-.04446.28275-.19183h.15587Z"/><path class="cls-7" d="M76.49535,25.23286a.34259.34259,0,0,1,.34969-.39016.3071.3071,0,0,1,.33121.29974c0,.29224-.31023.31572-.4496.51405h.4566v.16835h-.70888c0-.2248.13788-.31722.30473-.43162.08393-.05945.20283-.1174.20283-.23579a.1389.1389,0,0,0-.14488-.14987c-.11589,0-.15336.11989-.15336.2218Z"/><path class="cls-7" d="M77.52544,25.25234c.08393.007.20532-.01.20532-.11989a.12739.12739,0,0,0-.12606-.1287l-.01032.00031c-.09991,0-.14987.07294-.14987.17235h-.18633a.31944.31944,0,0,1,.33371-.33371.29786.29786,0,0,1,.32421.26727.19182.19182,0,0,1-.13537.19732v.003a.21482.21482,0,0,1,.17135.21931.36007.36007,0,0,1-.71738-.033H77.421c.004.10441.05645.19033.16985.19033a.14986.14986,0,0,0,.1567-.14271l.00016-.00716c0-.14637-.12789-.14337-.2233-.14337Z"/><path class="cls-7" d="M74.616,3.36954h-.41014V3.1902l.41913-.56251h.17535v.5805h.12838v.16135h-.12838v.22331H74.614Zm0-.49656h-.004l-.24978.33521H74.616Z"/><path class="cls-7" d="M74.34324,12.42909h-.19583v-.627h-.24129v-.14737c.13638.004.26077-.04446.28276-.19183h.15586Z"/><path class="cls-7" d="M74.62,11.83362a.34332.34332,0,0,1,.34969-.39016.307.307,0,0,1,.33071.29974c0,.29224-.31023.31572-.44961.51405h.4541v.17184H74.596c0-.2248.13788-.31722.30473-.43162.08442-.05945.20283-.11739.20283-.23579a.13841.13841,0,0,0-.14488-.14987c-.11589,0-.15287.1199-.15287.22181Z"/><path class="cls-7" d="M74.34324,16.90317h-.19583v-.62745h-.24129v-.14737c.13638.004.26077-.04446.28276-.19183h.15586Z"/><path class="cls-7" d="M75.10507,16.1863a.13788.13788,0,0,0-.12939-.1199c-.14087,0-.18084.18734-.18483.29325v.003a.24279.24279,0,0,1,.21831-.1074.30871.30871,0,0,1,.2218.09991.33016.33016,0,0,1,.07443.21531.33521.33521,0,0,1-.3377.35319c-.29224,0-.37118-.25527-.37118-.49956s.10491-.50456.37917-.50456a.29424.29424,0,0,1,.31322.26777Zm-.29624.39565a.16585.16585,0,0,0,.15152.179l.00434.0003a.1616.1616,0,0,0,.14737-.17684c0-.08842-.047-.18184-.14737-.18184a.16265.16265,0,0,0-.15686.17934Z"/><path class="cls-7" d="M74.34324,19.12872h-.19583v-.62595h-.24129V18.3529c.13638.00449.26077-.044.28276-.19133h.15586Z"/><path class="cls-7" d="M74.9552,18.14408a.28752.28752,0,0,1,.32272.25927.20231.20231,0,0,1-.14038.20282v.0025a.22431.22431,0,0,1,.18034.2358.32291.32291,0,0,1-.36118.30323c-.18085,0-.36668-.09342-.36668-.29974a.22779.22779,0,0,1,.18184-.23729v-.0025a.19282.19282,0,0,1-.14187-.19982A.29173.29173,0,0,1,74.9552,18.14408Zm0,.85625a.15837.15837,0,0,0,.16527-.15114l.00009-.01172a.15586.15586,0,0,0-.15707-.15465l-.00829.00029a.15363.15363,0,0,0-.17085.15336.16235.16235,0,0,0,.16062.16407l.01023-.00021Zm0-.44961a.13146.13146,0,1,0,0-.26077.13488.13488,0,0,0-.149.11906l-.00084.01482a.13353.13353,0,0,0,.14987.12839Z"/><path class="cls-7" d="M73.85617,23.08125a.34259.34259,0,0,1,.34969-.39016.30666.30666,0,0,1,.33071.29974c0,.29224-.31023.31572-.44961.51455h.4561v.16785h-.70838c0-.2243.13788-.31672.30473-.43112.08393-.05945.20233-.1174.20233-.2363a.13832.13832,0,0,0-.14438-.14986c-.11589,0-.15336.12039-.15336.2223Z"/><path class="cls-7" d="M74.62,23.08125a.34309.34309,0,0,1,.34969-.39016.30666.30666,0,0,1,.33071.29974c0,.29224-.31023.31572-.44961.51455h.4541v.16785H74.596c0-.2243.13788-.31672.30473-.43112.08442-.05945.20283-.1174.20283-.2363a.13883.13883,0,0,0-.14488-.14986c-.11589,0-.15287.12039-.15287.2223Z"/><path class="cls-7" d="M74.72091,5.14249a.13788.13788,0,0,0-.12939-.1199c-.14087,0-.18084.18734-.18483.29375h0a.24379.24379,0,0,1,.21781-.10741.30821.30821,0,0,1,.2223.09991.3292.3292,0,0,1,.07443.21481.33521.33521,0,0,1-.3377.35319c-.29274,0-.37118-.25527-.37118-.49956s.10491-.50506.37917-.50506a.29474.29474,0,0,1,.31322.26777Zm-.29624.39565a.16586.16586,0,0,0,.15149.17907l.00387.00027a.18223.18223,0,0,0,0-.35868A.16033.16033,0,0,0,74.42467,5.53814Z"/><polygon class="cls-3" points="72.073 2.233 70.205 2.233 69.271 3.037 70.205 3.84 72.073 3.84 73.008 3.037 72.073 2.233"/><path class="cls-7" d="M70.71692,3.33058a.29571.29571,0,0,1-.24078.12039.42379.42379,0,0,1-.43113-.4556.43.43,0,0,1,.43113-.46309.3509.3509,0,0,1,.36967.30923h-.18433a.17884.17884,0,0,0-.18534-.14987c-.17334,0-.23829.14987-.23829.29974,0,.14587.065.29324.23829.29324a.18877.18877,0,0,0,.20882-.18884h-.19433V2.95591h.36817V3.43h-.12289Z"/><path class="cls-7" d="M71.01516,2.55326h.19333l.36567.588h0v-.588H71.758V3.43h-.19233l-.36519-.587h0V3.43h-.18084Z"/><path class="cls-7" d="M71.92536,2.55326h.37816a.38546.38546,0,0,1,.39965.43312.39036.39036,0,0,1-.39965.44361h-.37816Zm.19283.71437H72.29c.11191,0,.21881-.06844.21881-.26277,0-.17684-.06294-.28974-.25327-.28974h-.13738Z"/><rect class="cls-3" x="71.8739" y="42.25243" width="1.3663" height="1.60759" rx="0.2273"/><polygon class="cls-3" points="72.073 42.252 70.205 42.252 69.271 43.056 70.205 43.86 72.073 43.86 73.008 43.056 72.073 42.252"/><path class="cls-7" d="M70.71692,43.352a.29572.29572,0,0,1-.24078.1204.42353.42353,0,0,1-.43113-.4556.42972.42972,0,0,1,.43113-.4631.35093.35093,0,0,1,.36967.30973h-.18433a.17834.17834,0,0,0-.18534-.14737c-.17334,0-.23829.14737-.23829.29974s.065.29374.23829.29374a.18879.18879,0,0,0,.20882-.18933h-.19433v-.14388h.36817v.47409h-.12289Z"/><path class="cls-7" d="M71.01516,42.57215h.19333l.36567.58848h0v-.58848H71.758v.87673h-.19233l-.36519-.587h0v.587h-.18084Z"/><path class="cls-7" d="M71.92536,42.57215h.37816a.38587.38587,0,0,1,.39965.43362.39.39,0,0,1-.39965.44311h-.37816Zm.19283.71487H72.29c.11191,0,.21881-.06894.21881-.26277,0-.17684-.06294-.28974-.25327-.28974h-.13738Z"/><rect class="cls-3" x="78.54555" y="42.25193" width="1.3663" height="1.60759" rx="0.2273"/><polygon class="cls-3" points="79.728 42.252 81.594 42.252 82.529 43.056 81.594 43.86 79.728 43.86 78.793 43.056 79.728 42.252"/><path class="cls-7" d="M79.7445,43.349a.29524.29524,0,0,1-.24079.12039.46031.46031,0,0,1,0-.9187.35094.35094,0,0,1,.36968.30973h-.18384a.17935.17935,0,0,0-.18584-.14986c-.17284,0-.23829.14986-.23829.29973,0,.14587.06545.29324.23829.29324a.18832.18832,0,0,0,.20882-.18883H79.5187v-.14388h.36818v.47409H79.764Z"/><path class="cls-7" d="M80.04324,42.57165h.19133l.36617.588h0v-.588h.18034v.87673h-.19283l-.36468-.587h0v.587h-.18034Z"/><path class="cls-7" d="M80.95344,42.57165h.37816a.38587.38587,0,0,1,.39965.43362.39018.39018,0,0,1-.39965.44311h-.37816Zm.19233.71437h.17234c.1114,0,.21831-.06844.21831-.26277,0-.17684-.06244-.28974-.25278-.28974h-.13788Z"/><rect class="cls-3" x="78.53706" y="2.18658" width="1.3663" height="1.60759" rx="0.2273"/><polygon class="cls-3" points="79.719 2.187 81.585 2.187 82.521 2.991 81.585 3.794 79.719 3.794 78.784 2.991 79.719 2.187"/><path class="cls-7" d="M79.736,3.28362a.29521.29521,0,0,1-.24078.12039.42367.42367,0,0,1-.43062-.4556.42591.42591,0,0,1,.43062-.46309.35093.35093,0,0,1,.36967.30973h-.18384a.17933.17933,0,0,0-.18583-.14987c-.17285,0-.23829.14987-.23829.29974,0,.14587.06544.29324.23829.29324a.18832.18832,0,0,0,.20882-.18884h-.19383V2.90545h.36817v.47408h-.12289Z"/><path class="cls-7" d="M80.03474,2.5063h.19133l.36618.588h0v-.588h.18034V3.383h-.19283l-.36468-.587h0v.587h-.18035Z"/><path class="cls-7" d="M80.94494,2.5063h.37817a.38587.38587,0,0,1,.39965.43362.39019.39019,0,0,1-.39965.44311h-.37817Zm.19233.71438h.17235c.1114,0,.21831-.06844.21831-.26277,0-.17685-.06245-.28975-.25279-.28975h-.13788Z"/><path class="cls-7" d="M74.57054,7.08378a.28785.28785,0,0,1,.32272.25928.20284.20284,0,0,1-.14088.20282h0a.2248.2248,0,0,1,.18084.23579.32354.32354,0,0,1-.36118.30374c-.18034,0-.36618-.09192-.36618-.30224a.22779.22779,0,0,1,.18184-.23729h0a.19233.19233,0,0,1-.14187-.19983A.29225.29225,0,0,1,74.57054,7.08378Zm0,.85625a.15835.15835,0,0,0,.16527-.15113l.00009-.01172a.15637.15637,0,0,0-.1581-.15462l-.00726.00025a.15339.15339,0,0,0-.17085.15337.16237.16237,0,0,0,.161.16366l.0113-.00031Zm0-.4496a.13146.13146,0,1,0,0-.26077.13487.13487,0,0,0-.149.11906l-.00084.01482a.13557.13557,0,0,0,.14987.12789Z"/><path class="cls-7" d="M74.34324,10.231h-.19583V9.60208h-.24129V9.4547c.13638.004.26077-.044.28276-.19183h.15586Z"/><path class="cls-7" d="M74.95121,9.24389c.19283,0,.35568.12139.35568.49956,0,.38466-.16285.50606-.35568.50606s-.35319-.1214-.35319-.50606C74.598,9.36528,74.75937,9.24389,74.95121,9.24389Zm0,.84226c.15985,0,.15985-.23579.15985-.3447,0-.09991,0-.3362-.15985-.3362s-.15737.23579-.15737.3362C74.79384,9.85036,74.79384,10.08615,74.95121,10.08615Z"/><path class="cls-7" d="M74.34324,14.69461h-.19583v-.626h-.24129v-.14737c.13638.004.26077-.04447.28276-.19184h.15586Z"/><path class="cls-7" d="M74.99966,14.4713H74.591V14.292l.41963-.56251h.17485v.58049h.12838v.16136H75.1855v.22331h-.18584Zm0-.49656h-.00449l-.24978.3352h.25377Z"/><path class="cls-7" d="M73.85617,20.78027a.34282.34282,0,0,1,.34969-.39016.3071.3071,0,0,1,.33071.30224c0,.29224-.31023.31572-.44961.514h.4561v.16836h-.70838c0-.22481.13788-.31723.30473-.43163.08393-.05944.20233-.11739.20233-.23579a.13839.13839,0,0,0-.14438-.14987c-.11589,0-.15336.1199-.15336.22181Z"/><path class="cls-7" d="M74.95121,20.39011c.19283,0,.35568.12139.35568.49956,0,.38466-.16285.50606-.35568.50606s-.35319-.1214-.35319-.50606C74.598,20.5115,74.75937,20.39011,74.95121,20.39011Zm0,.84276c.15985,0,.15985-.23579.15985-.3447,0-.09991,0-.3367-.15985-.3367s-.15737.23579-.15737.3367c0,.10891,0,.3447.15737.3447Z"/><path class="cls-7" d="M73.85617,25.28282a.34259.34259,0,0,1,.34969-.39016.30666.30666,0,0,1,.33071.29974c0,.29274-.31023.31572-.44961.51454h.4561v.16836h-.70838c0-.22481.13788-.31722.30473-.43163.08393-.05944.20233-.11739.20233-.23579a.13839.13839,0,0,0-.14438-.14987c-.11589,0-.15336.1199-.15336.22181Z"/><path class="cls-7" d="M74.99966,25.654H74.591v-.17934l.41963-.563h.17485v.581h.12838V25.654H75.1855v.2233h-.18584Zm0-.49656h-.00449l-.24978.3352h.25377Z"/><path class="cls-7" d="M77.54043,7.21167a1.2013,1.2013,0,0,0-.31572.7993H77.0154a1.40771,1.40771,0,0,1,.32371-.78331h-.4576V7.04532h.65892Z"/><rect class="cls-4" x="71.8749" y="24.48552" width="1.3663" height="1.60759" rx="0.2273"/><polygon class="cls-4" points="70.817 24.486 72.434 24.486 73.244 25.29 72.434 26.094 70.817 26.094 70.009 25.29 70.817 24.486"/><path class="cls-7" d="M71.06461,24.80524h.19383l.36568.588h0v-.588h.18034V25.682h-.19233l-.36518-.587h0v.587h-.18084Z"/><path class="cls-7" d="M72.55731,25.1a.19086.19086,0,0,0-.19133-.15337c-.17335,0-.2383.14737-.2383.29974,0,.14587.06495.29324.2383.29324a.19792.19792,0,0,0,.19982-.19633h.18684a.36934.36934,0,0,1-.38566.35869.46027.46027,0,0,1,0-.91869.35664.35664,0,0,1,.37816.31572Z"/><rect class="cls-4" x="71.8749" y="26.6661" width="1.3663" height="1.60759" rx="0.2273"/><polygon class="cls-4" points="70.817 26.667 72.434 26.667 73.244 27.471 72.434 28.274 70.817 28.274 70.009 27.471 70.817 26.667"/><path class="cls-7" d="M71.06461,26.98632h.19383l.36568.588h0v-.588h.18034v.87923h-.19233l-.36518-.587h0v.587h-.18084Z"/><path class="cls-7" d="M72.55731,27.28106a.19134.19134,0,0,0-.19133-.15386c-.17335,0-.2383.14737-.2383.29973,0,.14588.06495.29325.2383.29325a.19825.19825,0,0,0,.19982-.19633h.18684a.36933.36933,0,0,1-.38566.35868.46027.46027,0,0,1,0-.91869.35664.35664,0,0,1,.37816.31572Z"/><rect class="cls-4" x="71.8749" y="28.8347" width="1.3663" height="1.60759" rx="0.2273"/><polygon class="cls-4" points="70.817 28.835 72.434 28.835 73.244 29.639 72.434 30.443 70.817 30.443 70.009 29.639 70.817 28.835"/><path class="cls-7" d="M71.06461,29.15442h.19383l.36568.58848h0v-.58848h.18034v.87723h-.19233l-.36518-.587h0v.587h-.18084Z"/><path class="cls-7" d="M72.55731,29.44916a.19133.19133,0,0,0-.19133-.15336c-.17335,0-.2383.14987-.2383.29973s.06495.29375.2383.29375a.19825.19825,0,0,0,.19982-.19633h.18684a.36892.36892,0,0,1-.38566.35818.42221.42221,0,0,1-.43113-.4556.428.428,0,0,1,.43113-.46259.35661.35661,0,0,1,.37816.31522Z"/><rect class="cls-4" x="71.8749" width="1.3663" height="1.60759" rx="0.2273"/><polygon class="cls-4" points="70.817 0 72.434 0 73.244 0.805 72.434 1.608 70.817 1.608 70.009 0.805 70.817 0"/><path class="cls-7" d="M71.06461.31972h.19383l.36568.588h0v-.588h.18034v.87673h-.19233L71.247.60947h0v.587h-.18084Z"/><path class="cls-7" d="M72.55731.61446A.19084.19084,0,0,0,72.366.4611c-.17335,0-.2383.14737-.2383.29973,0,.14587.06495.29325.2383.29325A.19793.19793,0,0,0,72.5658.85775h.18684a.36934.36934,0,0,1-.38566.35868.42379.42379,0,0,1-.43113-.4556A.426.426,0,0,1,72.367.29774a.35664.35664,0,0,1,.37816.31572Z"/><rect class="cls-4" x="71.8749" y="6.73259" width="1.3663" height="1.60759" rx="0.2273"/><polygon class="cls-4" points="70.817 6.733 72.434 6.733 73.244 7.537 72.434 8.341 70.817 8.341 70.009 7.537 70.817 6.733"/><path class="cls-7" d="M71.06461,7.05231h.19383l.36568.588h0v-.588h.18034V7.929h-.19233l-.36518-.587h0v.587h-.18084Z"/><path class="cls-7" d="M72.55731,7.34705a.19084.19084,0,0,0-.19133-.15336c-.17335,0-.2383.14987-.2383.29974,0,.14587.06495.29324.2383.29324a.19792.19792,0,0,0,.19982-.19633h.18684A.36934.36934,0,0,1,72.367,7.949a.46027.46027,0,0,1,0-.9187.35664.35664,0,0,1,.37816.31572Z"/><rect class="cls-4" x="78.54006" y="6.73259" width="1.3663" height="1.60759" rx="0.2273"/><polygon class="cls-4" points="80.963 6.733 79.347 6.733 78.537 7.537 79.347 8.34 80.963 8.34 81.772 7.537 80.963 6.733"/><path class="cls-7" d="M79.13054,7.05231h.19183l.36567.588h0v-.588h.18084V7.929h-.19283l-.36468-.587h0v.587h-.18084Z"/><path class="cls-7" d="M80.62523,7.34705a.19134.19134,0,0,0-.19133-.15386c-.17335,0-.2383.14737-.2383.29974s.06495.29374.2383.29374a.19794.19794,0,0,0,.19982-.19633h.18684a.36893.36893,0,0,1-.38566.35819.42353.42353,0,0,1-.43113-.4556.42931.42931,0,0,1,.43113-.4626.35664.35664,0,0,1,.37816.31573Z"/><rect class="cls-4" x="78.54006" y="4.45959" width="1.3663" height="1.60759" rx="0.2273"/><polygon class="cls-4" points="80.963 4.46 79.347 4.46 78.537 5.264 79.347 6.067 80.963 6.067 81.772 5.264 80.963 4.46"/><path class="cls-7" d="M79.13054,4.77931h.19183l.36567.588h0v-.588h.18084V5.656h-.19283l-.36468-.587h0v.587h-.18084Z"/><path class="cls-7" d="M80.62523,5.07405a.19135.19135,0,0,0-.19133-.15387c-.17335,0-.2383.14737-.2383.29974s.06495.29374.2383.29374a.19794.19794,0,0,0,.19982-.19632h.18684a.36893.36893,0,0,1-.38566.35818.42352.42352,0,0,1-.43113-.4556.4293.4293,0,0,1,.43113-.46259.35664.35664,0,0,1,.37816.31572Z"/><rect class="cls-4" x="78.54006" y="0.04746" width="1.3663" height="1.60759" rx="0.2273"/><polygon class="cls-4" points="80.963 0.047 79.347 0.047 78.537 0.852 79.347 1.655 80.963 1.655 81.772 0.852 80.963 0.047"/><path class="cls-7" d="M79.13054.36718h.19183l.36567.588h0v-.588h.18084v.87673h-.19283l-.36468-.587h0v.587h-.18084Z"/><path class="cls-7" d="M80.62523.66192A.19136.19136,0,0,0,80.4339.50805c-.17335,0-.2383.14738-.2383.29974s.06495.29374.2383.29374a.19794.19794,0,0,0,.19982-.19632h.18684a.36893.36893,0,0,1-.38566.35818.42352.42352,0,0,1-.43113-.4556A.4293.4293,0,0,1,80.4349.3452a.35664.35664,0,0,1,.37816.31572Z"/><rect class="cls-4" x="71.8749" y="8.89969" width="1.3663" height="1.60759" rx="0.2273"/><polygon class="cls-4" points="70.817 8.901 72.434 8.901 73.244 9.705 72.434 10.508 70.817 10.508 70.009 9.705 70.817 8.901"/><path class="cls-7" d="M71.06461,9.21991h.19383l.36568.588h0v-.588h.18034v.87673h-.19233l-.36518-.587h0v.587h-.18084Z"/><path class="cls-7" d="M72.55731,9.51465a.19134.19134,0,0,0-.19133-.15386c-.17335,0-.2383.14737-.2383.29973,0,.14588.06495.29325.2383.29325a.19825.19825,0,0,0,.19982-.19633h.18684a.36933.36933,0,0,1-.38566.35868.46027.46027,0,0,1,0-.91869.35664.35664,0,0,1,.37816.31572Z"/><rect class="cls-4" x="78.54006" y="8.90019" width="1.3663" height="1.60759" rx="0.2273"/><polygon class="cls-4" points="80.963 8.9 79.347 8.9 78.537 9.704 79.347 10.508 80.963 10.508 81.772 9.704 80.963 8.9"/><path class="cls-7" d="M79.13054,9.21941h.19183l.36567.58848h0V9.21941h.18084v.87673h-.19283l-.36468-.587h0v.587h-.18084Z"/><path class="cls-7" d="M80.62523,9.51415a.19132.19132,0,0,0-.19133-.15336c-.17335,0-.2383.14737-.2383.29973s.06495.29375.2383.29375a.198.198,0,0,0,.19982-.19683h.18684a.369.369,0,0,1-.38566.35868.42352.42352,0,0,1-.43113-.4556.42972.42972,0,0,1,.43113-.46309.357.357,0,0,1,.37816.31572Z"/><rect class="cls-4" x="71.8749" y="11.06879" width="1.3663" height="1.60759" rx="0.2273"/><polygon class="cls-4" points="70.817 11.069 72.434 11.069 73.244 11.873 72.434 12.676 70.817 12.676 70.009 11.873 70.817 11.069"/><path class="cls-7" d="M71.06461,11.388h.19383l.36568.58848h0V11.388h.18034v.87673h-.19233l-.36467-.585h0v.587h-.18085Z"/><path class="cls-7" d="M72.55731,11.68275a.19135.19135,0,0,0-.19133-.15337c-.17335,0-.2383.14737-.2383.29974s.06495.29374.2383.29374a.19835.19835,0,0,0,.19982-.19682h.18684a.369.369,0,0,1-.38566.35868.42352.42352,0,0,1-.43113-.4556A.42971.42971,0,0,1,72.367,11.366a.357.357,0,0,1,.37816.31572Z"/><rect class="cls-4" x="78.54006" y="11.06879" width="1.3663" height="1.60759" rx="0.2273"/><polygon class="cls-4" points="80.963 11.069 79.347 11.069 78.537 11.873 79.347 12.676 80.963 12.676 81.772 11.873 80.963 11.069"/><path class="cls-7" d="M79.13054,11.388h.19183l.36567.58848h0V11.388h.18084v.87673h-.19283l-.36468-.587h0v.587h-.18084Z"/><path class="cls-7" d="M80.62523,11.68275a.19134.19134,0,0,0-.19133-.15337c-.17335,0-.2383.14737-.2383.29974s.06495.29374.2383.29374a.198.198,0,0,0,.19982-.19682h.18684a.36934.36934,0,0,1-.38566.35868.42352.42352,0,0,1-.43113-.4556.42971.42971,0,0,1,.43113-.46309.357.357,0,0,1,.37816.31572Z"/><rect class="cls-4" x="78.54006" y="13.31232" width="1.3663" height="1.60759" rx="0.2273"/><polygon class="cls-4" points="80.963 13.312 79.347 13.312 78.537 14.117 79.347 14.92 80.963 14.92 81.772 14.117 80.963 13.312"/><path class="cls-7" d="M79.13054,13.63154h.19183L79.688,14.22h0v-.58848h.18084v.87673h-.19283l-.36468-.587h0v.587h-.18084Z"/><path class="cls-7" d="M80.62523,13.92778a.19134.19134,0,0,0-.19133-.15337c-.17335,0-.2383.14987-.2383.29974s.06495.29374.2383.29374a.198.198,0,0,0,.19982-.19682h.18684a.36934.36934,0,0,1-.38566.35868.42352.42352,0,0,1-.43113-.4556.42971.42971,0,0,1,.43113-.46309.35664.35664,0,0,1,.37816.31572Z"/><rect class="cls-4" x="71.8749" y="15.51039" width="1.3663" height="1.60759" rx="0.2273"/><polygon class="cls-4" points="70.817 15.51 72.434 15.51 73.244 16.315 72.434 17.118 70.817 17.118 70.009 16.315 70.817 15.51"/><path class="cls-7" d="M71.06461,15.83011h.19383l.36568.588h0v-.588h.18034v.87673h-.19233l-.36518-.587h0v.587h-.18084Z"/><path class="cls-7" d="M72.55731,16.12585A.19134.19134,0,0,0,72.366,15.972c-.17335,0-.2383.14987-.2383.29973,0,.14588.06495.29325.2383.29325a.19825.19825,0,0,0,.19982-.19633h.18684a.36933.36933,0,0,1-.38566.35868.42379.42379,0,0,1-.43113-.4556.43.43,0,0,1,.43113-.46309.35664.35664,0,0,1,.37816.31572Z"/><rect class="cls-4" x="71.8749" y="13.31232" width="1.3663" height="1.60759" rx="0.2273"/><polygon class="cls-4" points="70.817 13.312 72.434 13.312 73.244 14.117 72.434 14.92 70.817 14.92 70.009 14.117 70.817 13.312"/><path class="cls-7" d="M71.06461,13.63154h.19383l.36568.58848h0v-.58848h.18034v.87673h-.19233l-.36518-.587h0v.587h-.18084Z"/><path class="cls-7" d="M72.55731,13.92778a.19135.19135,0,0,0-.19133-.15337c-.17335,0-.2383.14987-.2383.29974s.06495.29374.2383.29374a.19835.19835,0,0,0,.19982-.19682h.18684a.36934.36934,0,0,1-.38566.35868.42352.42352,0,0,1-.43113-.4556.42971.42971,0,0,1,.43113-.46309.35664.35664,0,0,1,.37816.31572Z"/><rect class="cls-4" x="78.54006" y="15.51039" width="1.3663" height="1.60759" rx="0.2273"/><polygon class="cls-4" points="80.963 15.51 79.347 15.51 78.537 16.315 79.347 17.118 80.963 17.118 81.772 16.315 80.963 15.51"/><path class="cls-7" d="M79.13054,15.83011h.19183l.36567.588h0v-.588h.18084v.87673h-.19283l-.36468-.587h0v.587h-.18084Z"/><path class="cls-7" d="M80.62523,16.12585a.19134.19134,0,0,0-.19133-.15386c-.17335,0-.2383.14987-.2383.29973,0,.14588.06495.29325.2383.29325a.19794.19794,0,0,0,.19982-.19633h.18684a.36933.36933,0,0,1-.38566.35868.42379.42379,0,0,1-.43113-.4556.43.43,0,0,1,.43113-.46309.35664.35664,0,0,1,.37816.31572Z"/><rect class="cls-4" x="71.8749" y="17.73144" width="1.3663" height="1.60759" rx="0.2273"/><polygon class="cls-4" points="70.817 17.731 72.434 17.731 73.244 18.536 72.434 19.339 70.817 19.339 70.009 18.536 70.817 17.731"/><path class="cls-7" d="M71.06461,18.05066h.19383l.36568.58849h0v-.58849h.18034v.87723h-.19233l-.36518-.587h0v.587h-.18084Z"/><path class="cls-7" d="M72.55731,18.3454A.19133.19133,0,0,0,72.366,18.192c-.17335,0-.2383.14737-.2383.29973s.06495.29375.2383.29375a.19825.19825,0,0,0,.19982-.19633h.18684a.36893.36893,0,0,1-.38566.35819.42353.42353,0,0,1-.43113-.4556.42931.42931,0,0,1,.43113-.4626.35661.35661,0,0,1,.37816.31523Z"/><rect class="cls-4" x="78.54006" y="17.73144" width="1.3663" height="1.60759" rx="0.2273"/><polygon class="cls-4" points="80.963 17.731 79.347 17.731 78.537 18.536 79.347 19.339 80.963 19.339 81.772 18.536 80.963 17.731"/><path class="cls-7" d="M79.13054,18.05066h.19183l.36567.58849h0v-.58849h.18084v.87723h-.19283l-.36468-.587h0v.587h-.18084Z"/><path class="cls-7" d="M80.62523,18.3454a.19132.19132,0,0,0-.19133-.15336c-.17335,0-.2383.14737-.2383.29973s.06495.29375.2383.29375a.19794.19794,0,0,0,.19982-.19633h.18684a.36893.36893,0,0,1-.38566.35819.42353.42353,0,0,1-.43113-.4556.42931.42931,0,0,1,.43113-.4626.35661.35661,0,0,1,.37816.31523Z"/><rect class="cls-4" x="71.8749" y="22.30493" width="1.3663" height="1.60759" rx="0.2273"/><polygon class="cls-4" points="70.817 22.305 72.434 22.305 73.244 23.109 72.434 23.913 70.817 23.913 70.009 23.109 70.817 22.305"/><path class="cls-7" d="M71.06461,22.62415h.19383l.36568.58848h0v-.58848h.18034v.87673h-.19233l-.36518-.587h0v.587h-.18084Z"/><path class="cls-7" d="M72.55731,22.91989a.19135.19135,0,0,0-.19133-.15337c-.17335,0-.2383.14738-.2383.29974s.06495.29374.2383.29374a.19835.19835,0,0,0,.19982-.19682h.18684a.36934.36934,0,0,1-.38566.35868.42379.42379,0,0,1-.43113-.4556.43.43,0,0,1,.43113-.46309.35664.35664,0,0,1,.37816.31572Z"/><rect class="cls-4" x="78.54006" y="22.30493" width="1.3663" height="1.60759" rx="0.2273"/><polygon class="cls-4" points="80.963 22.305 79.347 22.305 78.537 23.109 79.347 23.913 80.963 23.913 81.772 23.109 80.963 22.305"/><path class="cls-7" d="M79.13054,22.62415h.19183l.36567.58848h0v-.58848h.18084v.87673h-.19283l-.36468-.587h0v.587h-.18084Z"/><path class="cls-7" d="M80.62523,22.91989a.19134.19134,0,0,0-.19133-.15337c-.17335,0-.2383.14738-.2383.29974s.06495.29374.2383.29374a.198.198,0,0,0,.19982-.19682h.18684a.36934.36934,0,0,1-.38566.35868.42379.42379,0,0,1-.43113-.4556.43.43,0,0,1,.43113-.46309.35664.35664,0,0,1,.37816.31572Z"/><rect class="cls-4" x="78.54006" y="24.48602" width="1.3663" height="1.60759" rx="0.2273"/><polygon class="cls-4" points="80.963 24.486 79.347 24.486 78.537 25.29 79.347 26.094 80.963 26.094 81.772 25.29 80.963 24.486"/><path class="cls-7" d="M79.13054,24.80524h.19183l.36567.58848h0v-.58848h.18084V25.682h-.19283l-.36468-.587h0v.587h-.18084Z"/><path class="cls-7" d="M80.62523,25.1a.19134.19134,0,0,0-.19133-.15337c-.17335,0-.2383.14737-.2383.29974s.06495.29374.2383.29374a.198.198,0,0,0,.19982-.19683h.18684a.36934.36934,0,0,1-.38566.35869.42352.42352,0,0,1-.43113-.4556.42971.42971,0,0,1,.43113-.46309.35664.35664,0,0,1,.37816.31572Z"/><path class="cls-7" d="M79.13054,24.80424h.19183l.36567.58848h0v-.58848h.18084V25.681h-.19283l-.36468-.587h0v.587h-.18084Z"/><path class="cls-7" d="M80.62523,25.099a.19086.19086,0,0,0-.19133-.15337c-.17335,0-.2383.14987-.2383.29974s.06495.29374.2383.29374a.198.198,0,0,0,.19982-.19683h.18684a.36934.36934,0,0,1-.38566.35869.46027.46027,0,0,1,0-.9187.35664.35664,0,0,1,.37816.31573Z"/><rect class="cls-4" x="78.54006" y="26.6666" width="1.3663" height="1.60759" rx="0.2273"/><polygon class="cls-4" points="80.963 26.667 79.347 26.667 78.537 27.471 79.347 28.274 80.963 28.274 81.772 27.471 80.963 26.667"/><path class="cls-7" d="M79.13054,26.98632h.19183l.36567.588h0v-.588h.18084v.87923h-.19283l-.36468-.587h0v.587h-.18084Z"/><path class="cls-7" d="M80.62523,27.28106a.19134.19134,0,0,0-.19133-.15386c-.17335,0-.2383.14737-.2383.29973,0,.14588.06495.29325.2383.29325a.19794.19794,0,0,0,.19982-.19633h.18684a.36933.36933,0,0,1-.38566.35868.46027.46027,0,0,1,0-.91869.35664.35664,0,0,1,.37816.31572Z"/><path class="cls-7" d="M79.13054,26.98532h.19183l.36567.588h0v-.588h.18084v.87673h-.19283l-.36468-.587h0v.587h-.18084Z"/><path class="cls-7" d="M80.62523,27.28007a.19135.19135,0,0,0-.19133-.15387c-.17335,0-.2383.14737-.2383.29974,0,.14587.06495.29324.2383.29324a.19794.19794,0,0,0,.19982-.19633h.18684a.36934.36934,0,0,1-.38566.35869.46027.46027,0,0,1,0-.9187.35664.35664,0,0,1,.37816.31573Z"/><rect class="cls-4" x="71.8749" y="31.07574" width="1.3663" height="1.60759" rx="0.2273"/><polygon class="cls-4" points="70.817 31.076 72.434 31.076 73.244 31.88 72.434 32.683 70.817 32.683 70.009 31.88 70.817 31.076"/><path class="cls-7" d="M71.06461,31.395h.19383l.36568.588h0v-.588h.18034v.87673h-.19233l-.36518-.587h0v.587h-.18084Z"/><path class="cls-7" d="M72.55731,31.6897a.19084.19084,0,0,0-.19133-.15337c-.17335,0-.2383.14737-.2383.29974,0,.14587.06495.29324.2383.29324a.19792.19792,0,0,0,.19982-.19633h.18684a.36934.36934,0,0,1-.38566.35869.46027.46027,0,0,1,0-.9187.35664.35664,0,0,1,.37816.31573Z"/><rect class="cls-4" x="78.54006" y="31.07574" width="1.3663" height="1.60759" rx="0.2273"/><polygon class="cls-4" points="80.963 31.076 79.347 31.076 78.537 31.88 79.347 32.683 80.963 32.683 81.772 31.88 80.963 31.076"/><path class="cls-7" d="M79.13054,31.395h.19183l.36567.588h0v-.588h.18084v.87673h-.19283l-.36468-.587h0v.587h-.18084Z"/><path class="cls-7" d="M80.62523,31.6897a.19084.19084,0,0,0-.19133-.15337c-.17335,0-.2383.14737-.2383.29974,0,.14587.06495.29324.2383.29324a.19762.19762,0,0,0,.19982-.19633h.18684a.36934.36934,0,0,1-.38566.35869.46027.46027,0,0,1,0-.9187.35664.35664,0,0,1,.37816.31573Z"/><rect class="cls-4" x="78.54006" y="33.2768" width="1.3663" height="1.60759" rx="0.2273"/><polygon class="cls-4" points="80.963 33.277 79.347 33.277 78.537 34.081 79.347 34.884 80.963 34.884 81.772 34.081 80.963 33.277"/><path class="cls-7" d="M79.13054,33.596h.19183l.36567.588h0v-.588h.18084v.87673h-.19283l-.36468-.587h0v.587h-.18084Z"/><path class="cls-7" d="M80.62523,33.89076a.19084.19084,0,0,0-.19133-.15336c-.17335,0-.2383.14737-.2383.29974,0,.14587.06495.29324.2383.29324a.19762.19762,0,0,0,.19982-.19633h.18684a.36934.36934,0,0,1-.38566.35869.46027.46027,0,0,1,0-.9187.35664.35664,0,0,1,.37816.31572Z"/><rect class="cls-4" x="78.54006" y="28.8352" width="1.3663" height="1.60759" rx="0.2273"/><polygon class="cls-4" points="80.963 28.835 79.347 28.835 78.537 29.639 79.347 30.443 80.963 30.443 81.772 29.639 80.963 28.835"/><path class="cls-7" d="M79.13054,29.15442h.19183l.36567.58848h0v-.58848h.18084v.87673h-.19283l-.36468-.587h0v.587h-.18084Z"/><path class="cls-7" d="M80.62523,29.44916a.19084.19084,0,0,0-.19133-.15336c-.17335,0-.2383.14987-.2383.29973s.06495.29375.2383.29375a.198.198,0,0,0,.19982-.19683h.18684a.36933.36933,0,0,1-.38566.35868.42379.42379,0,0,1-.43113-.4556.43.43,0,0,1,.43113-.46309.35664.35664,0,0,1,.37816.31572Z"/><rect class="cls-4" x="71.8749" y="35.49786" width="1.3663" height="1.60759" rx="0.2273"/><polygon class="cls-4" points="70.817 35.498 72.434 35.498 73.244 36.302 72.434 37.105 70.817 37.105 70.009 36.302 70.817 35.498"/><path class="cls-7" d="M71.06461,35.81707h.19383l.36568.58849h0v-.58849h.18034v.87723h-.19233l-.36467-.586h0v.587h-.18085Z"/><path class="cls-7" d="M72.55731,36.11182a.19134.19134,0,0,0-.19133-.15337c-.17335,0-.2383.14987-.2383.29974s.06495.29374.2383.29374a.19825.19825,0,0,0,.19982-.19633h.18684a.36893.36893,0,0,1-.38566.35819.42222.42222,0,0,1-.43113-.4556.428.428,0,0,1,.43113-.4626.35661.35661,0,0,1,.37816.31523Z"/><rect class="cls-4" x="78.54006" y="35.49786" width="1.3663" height="1.60759" rx="0.2273"/><polygon class="cls-4" points="80.963 35.498 79.347 35.498 78.537 36.302 79.347 37.105 80.963 37.105 81.772 36.302 80.963 35.498"/><path class="cls-7" d="M79.13054,35.81707h.19183l.36567.58849h0v-.58849h.18084v.87723h-.19283l-.36468-.587h0v.587h-.18084Z"/><path class="cls-7" d="M80.62523,36.11182a.19133.19133,0,0,0-.19133-.15337c-.17335,0-.2383.14987-.2383.29974s.06495.29374.2383.29374a.19794.19794,0,0,0,.19982-.19633h.18684a.36893.36893,0,0,1-.38566.35819.42222.42222,0,0,1-.43113-.4556.428.428,0,0,1,.43113-.4626.35661.35661,0,0,1,.37816.31523Z"/><rect class="cls-4" x="71.8749" y="37.74738" width="1.3663" height="1.60759" rx="0.2273"/><polygon class="cls-4" points="70.817 37.747 72.434 37.747 73.244 38.552 72.434 39.355 70.817 39.355 70.009 38.552 70.817 37.747"/><path class="cls-7" d="M71.06461,38.0671h.19383l.36568.588h0v-.588h.18034v.87673h-.19233l-.36467-.58748h0v.587h-.18085Z"/><path class="cls-7" d="M72.55731,38.36184A.19134.19134,0,0,0,72.366,38.208c-.17335,0-.2383.14986-.2383.29973,0,.14587.06495.29324.2383.29324a.19824.19824,0,0,0,.19982-.19632h.18684a.36933.36933,0,0,1-.38566.35868.42379.42379,0,0,1-.43113-.4556.43.43,0,0,1,.43113-.46309.35664.35664,0,0,1,.37816.31572Z"/><rect class="cls-4" x="78.54006" y="37.74738" width="1.3663" height="1.60759" rx="0.2273"/><polygon class="cls-4" points="80.963 37.747 79.347 37.747 78.537 38.552 79.347 39.355 80.963 39.355 81.772 38.552 80.963 37.747"/><path class="cls-7" d="M79.13054,38.0671h.19183l.36567.588h0v-.588h.18084v.87673h-.19283l-.36468-.587h0v.587h-.18084Z"/><path class="cls-7" d="M80.62523,38.36184a.19134.19134,0,0,0-.19133-.15386c-.17335,0-.2383.14986-.2383.29973,0,.14587.06495.29324.2383.29324a.19794.19794,0,0,0,.19982-.19632h.18684a.36933.36933,0,0,1-.38566.35868.42379.42379,0,0,1-.43113-.4556.43.43,0,0,1,.43113-.46309.35664.35664,0,0,1,.37816.31572Z"/><rect class="cls-4" x="71.8749" y="40.02938" width="1.3663" height="1.60759" rx="0.2273"/><polygon class="cls-4" points="70.817 40.029 72.434 40.029 73.244 40.834 72.434 41.637 70.817 41.637 70.009 40.834 70.817 40.029"/><path class="cls-7" d="M71.06461,40.3491h.19383l.36568.588h0v-.588h.18034v.87673h-.19233l-.36467-.58748h0v.587h-.18085Z"/><path class="cls-7" d="M72.55731,40.64384A.19135.19135,0,0,0,72.366,40.49c-.17335,0-.2383.14987-.2383.29974,0,.14587.06495.29324.2383.29324a.19824.19824,0,0,0,.19982-.19632h.18684a.36934.36934,0,0,1-.38566.35868.42379.42379,0,0,1-.43113-.4556.43.43,0,0,1,.43113-.46309.35664.35664,0,0,1,.37816.31572Z"/><rect class="cls-4" x="78.54006" y="40.02938" width="1.3663" height="1.60759" rx="0.2273"/><polygon class="cls-4" points="80.963 40.029 79.347 40.029 78.537 40.834 79.347 41.637 80.963 41.637 81.772 40.834 80.963 40.029"/><path class="cls-7" d="M79.13054,40.3491h.19183l.36567.588h0v-.588h.18084v.87673h-.19283l-.36468-.587h0v.587h-.18084Z"/><path class="cls-7" d="M80.62523,40.64384A.19135.19135,0,0,0,80.4339,40.49c-.17335,0-.2383.14987-.2383.29974,0,.14587.06495.29324.2383.29324a.19794.19794,0,0,0,.19982-.19632h.18684a.36934.36934,0,0,1-.38566.35868.42379.42379,0,0,1-.43113-.4556.43.43,0,0,1,.43113-.46309.35664.35664,0,0,1,.37816.31572Z"/><path class="cls-7" d="M76.98492,14.63566h-.19583v-.62595H76.5463v-.14987c.13638.0045.26077-.044.28276-.19133h.15586Z"/><path class="cls-7" d="M77.52544,14.06066c.08393.007.20532-.00949.20532-.11989a.12739.12739,0,0,0-.12606-.1287l-.01032.00031c-.09991,0-.14987.07294-.14987.17235h-.18633a.31944.31944,0,0,1,.33371-.33371.29824.29824,0,0,1,.32421.26777.19133.19133,0,0,1-.13537.19683v.003a.21482.21482,0,0,1,.17135.21931.36.36,0,0,1-.71738-.03247H77.421c.004.10491.05645.19033.16985.19033a.14986.14986,0,0,0,.1567-.14271l.00016-.00716c0-.14637-.12789-.14337-.2233-.14337Z"/><path class="cls-7" d="M76.98492,16.84422h-.19583v-.62645H76.5463V16.0704c.13638.004.26077-.044.28276-.19183h.15586Z"/><path class="cls-7" d="M77.90262,16.03993H77.503l-.03847.21931v.003a.24579.24579,0,0,1,.18933-.07443.30037.30037,0,0,1,.29974.32821.34969.34969,0,0,1-.35206.3473l-.00663-.0001a.32271.32271,0,0,1-.35868-.30573H77.432a.15435.15435,0,0,0,.15886.14437.17436.17436,0,0,0,.1671-.18131l-.00025-.00453a.16585.16585,0,0,0-.16685-.18084.16038.16038,0,0,0-.14987.07743h-.17635l.09542-.534h.54253Z"/><path class="cls-5" d="M72.874,4.555H71.405c-.20227,0-.36624.10177-.36624.2273v1.153c0,.12554.164.2273.36624.2273H72.874c.20226,0,.36623-.10176.36623-.2273V4.7823C73.2402,4.65677,73.07623,4.555,72.874,4.555Z"/><polygon class="cls-5" points="69.198 4.555 70.814 4.555 71.624 5.359 70.814 6.163 69.198 6.163 68.389 5.359 69.198 4.555"/><polygon class="cls-5" points="69.819 4.555 71.435 4.555 72.245 5.359 71.435 6.163 69.819 6.163 69.01 5.359 69.819 4.555"/><path class="cls-7" d="M69.56042,5.244c.07227.00586.17725-.00879.17725-.10352A.10992.10992,0,0,0,69.62,5.02962c-.08594,0-.12989.063-.12891.14893h-.16065a.27637.27637,0,0,1,.28809-.28809.25706.25706,0,0,1,.27979.23047.16528.16528,0,0,1-.1167.17041v.00244a.18492.18492,0,0,1,.14746.18946.31048.31048,0,0,1-.61866-.02979h.16065c.00342.09033.04883.16406.14648.16406a.12822.12822,0,0,0,.13575-.13086c0-.12646-.11084-.124-.19288-.124Z"/><path class="cls-7" d="M70.42859,5.74007h-.21045l-.27588-.84961h.19238l.18946.59717h.00244l.1914-.59717h.19288Z"/><path class="cls-7" d="M70.974,5.244c.07226.00586.17725-.00879.17725-.10352a.10993.10993,0,0,0-.11768-.11084c-.08594,0-.12988.063-.12891.14893H70.744a.27609.27609,0,0,1,.28808-.28809.25706.25706,0,0,1,.27979.23047.16527.16527,0,0,1-.1167.17041v.00244a.18491.18491,0,0,1,.14746.18946.31048.31048,0,0,1-.61865-.02979h.16064c.00342.09033.04883.16406.14649.16406a.12822.12822,0,0,0,.13574-.13086c0-.12646-.11084-.124-.19287-.124Z"/><path class="cls-7" d="M71.3656,5.82943h.59522V5.889H71.3656Z"/><path class="cls-7" d="M72.17126,5.45785c0,.11328.0879.15722.188.15722.06543,0,.16553-.019.16553-.106,0-.09277-.12842-.10595-.25244-.14013-.126-.03125-.25342-.085-.25342-.2417,0-.17529.16406-.25733.31787-.25733.17725,0,.34033.07764.34033.27393H72.496c-.00586-.10107-.07715-.12842-.16748-.12842-.05957,0-.12842.0249-.12842.09619,0,.06543.04.0752.25342.12842.063.01465.25195.05615.25195.24756,0,.15625-.12109.27246-.353.27246-.18848,0-.36573-.09277-.36231-.30224Z"/><path class="cls-6" d="M72.874,33.2768H71.405c-.20227,0-.36624.10177-.36624.2273v1.153c0,.12554.164.2273.36624.2273H72.874c.20226,0,.36623-.10176.36623-.2273v-1.153C73.2402,33.37857,73.07623,33.2768,72.874,33.2768Z"/><polygon class="cls-6" points="70.719 33.277 72.336 33.277 73.146 34.081 72.336 34.884 70.719 34.884 69.91 34.081 70.719 33.277"/><polygon class="cls-6" points="70.818 33.277 72.434 33.277 73.244 34.081 72.434 34.884 70.818 34.884 70.009 34.081 70.818 33.277"/><path class="cls-7" d="M70.81775,33.61263h.187v.84961h-.187Z"/><path class="cls-7" d="M71.16931,33.61263h.18555l.355.56982h.00244v-.56982h.1748v.84961h-.187l-.35351-.56885h-.00244v.56885h-.17481Z"/><path class="cls-7" d="M72.2406,33.76937h-.25439v-.15674h.69629v.15674h-.25489v.69287h-.187Z"/><path class="cls-6" d="M72.875,19.981H71.406c-.20227,0-.36624.10177-.36624.22731v1.153c0,.12554.164.2273.36624.2273H72.875c.20226,0,.36623-.10176.36623-.2273v-1.153C73.2412,20.08275,73.07723,19.981,72.875,19.981Z"/><polygon class="cls-6" points="67.804 19.981 69.42 19.981 70.23 20.785 69.42 21.589 67.804 21.589 66.995 20.785 67.804 19.981"/><polygon class="cls-6" points="69.174 19.981 71.413 19.981 72.535 20.785 71.413 21.589 69.174 21.589 68.053 20.785 69.174 19.981"/><path class="cls-6" d="M78.90629,21.58855h1.46894c.20227,0,.36624-.10176.36624-.2273v-1.153c0-.12554-.164-.22731-.36624-.22731H78.90629c-.20227,0-.36623.10177-.36623.22731v1.153C78.54006,21.48679,78.704,21.58855,78.90629,21.58855Z"/><polygon class="cls-6" points="83.92 21.589 82.304 21.589 81.494 20.784 82.304 19.981 83.92 19.981 84.729 20.784 83.92 21.589"/><polygon class="cls-6" points="82.55 21.589 80.311 21.589 79.189 20.784 80.311 19.981 82.55 19.981 83.67 20.784 82.55 21.589"/><path class="cls-7" d="M79.44289,20.675a.29586.29586,0,0,1,.30224-.33643.26519.26519,0,0,1,.28565.26026c0,.25244-.26758.273-.38916.44433h.394v.145h-.61182c0-.19385.11914-.27392.26319-.37256.07275-.05127.1748-.10107.1748-.20361a.11958.11958,0,0,0-.125-.12842c-.1001,0-.13183.10352-.13183.19141Z"/><path class="cls-7" d="M80.71046,20.62423a.18505.18505,0,0,0-.18554-.14893c-.16748,0-.231.14258-.231.2915,0,.14161.06348.28467.231.28467a.19078.19078,0,0,0,.19287-.19043h.18115a.35749.35749,0,0,1-.374.34717.446.446,0,0,1,0-.89014.34556.34556,0,0,1,.3667.30616Z"/><path class="cls-7" d="M81.48634,20.906c0,.11329.08789.15723.188.15723.06543,0,.16553-.019.16553-.106,0-.09277-.12842-.10595-.25244-.14013-.126-.03125-.25342-.085-.25342-.2417,0-.17529.16406-.25733.31787-.25733.17725,0,.34033.07764.34033.27393h-.18115c-.00586-.10107-.07715-.12842-.16748-.12842-.05957,0-.12891.0249-.12891.09619,0,.06543.04053.0752.25391.12842.063.01465.252.05615.252.24756,0,.15625-.12109.27246-.35351.27246-.188,0-.36524-.09277-.36133-.30225Z"/><path class="cls-7" d="M82.13234,20.33858h.3667a.37267.37267,0,0,1,.38574.41992.37777.37777,0,0,1-.38574.42969h-.3667Zm.187.69238h.16651c.10839,0,.21191-.0664.21191-.25439,0-.17139-.06055-.28125-.24512-.28125h-.1333Z"/><path class="cls-7" d="M83.24806,20.33858h.19141l.31787.84961H83.563l-.064-.18945h-.31787l-.0669.18945h-.189Zm-.01806.521h.22021l-.10742-.31153h-.00195Z"/><path class="cls-7" d="M79.10226,20.33858h.187v.84961h-.187Z"/><path class="cls-7" d="M68.564,20.675a.29587.29587,0,0,1,.30225-.33643.26518.26518,0,0,1,.28564.26026c0,.25244-.26758.273-.38916.44433h.394v.145h-.61181c0-.19385.11914-.27392.26318-.37256.07275-.05127.17481-.10107.17481-.20361a.11959.11959,0,0,0-.125-.12842c-.1001,0-.13184.10352-.13184.19141Z"/><path class="cls-7" d="M69.83156,20.62423a.18506.18506,0,0,0-.18555-.14893c-.16748,0-.231.14258-.231.2915,0,.14161.06348.28467.231.28467a.19078.19078,0,0,0,.19287-.19043H70.02a.35749.35749,0,0,1-.374.34717.446.446,0,0,1,0-.89014.34555.34555,0,0,1,.3667.30616Z"/><path class="cls-7" d="M70.60744,20.906c0,.11329.08789.15723.188.15723.06542,0,.16552-.019.16552-.106,0-.09277-.12842-.10595-.25244-.14013-.126-.03125-.25342-.085-.25342-.2417,0-.17529.16407-.25733.31787-.25733.17725,0,.34034.07764.34034.27393h-.18116c-.00586-.10107-.07714-.12842-.16748-.12842-.05957,0-.1289.0249-.1289.09619,0,.06543.04052.0752.2539.12842.063.01465.252.05615.252.24756,0,.15625-.1211.27246-.35352.27246-.188,0-.36523-.09277-.36133-.30225Z"/><path class="cls-7" d="M71.81984,20.62423a.18506.18506,0,0,0-.18555-.14893c-.16748,0-.23095.14258-.23095.2915,0,.14161.06347.28467.23095.28467a.19078.19078,0,0,0,.19287-.19043h.18116a.35751.35751,0,0,1-.374.34717.446.446,0,0,1,0-.89014.34555.34555,0,0,1,.3667.30616Z"/><path class="cls-7" d="M72.13673,20.33858h.187V21.031h.41406v.15723h-.60108Z"/><path class="cls-7" d="M68.22411,20.33858h.187v.84961h-.187Z"/><path class="cls-8" d="M9.465,3.89034a3.75658,3.75658,0,0,1,.86773,5.24121q-.06885.09623-.14367.18793a3.71212,3.71212,0,0,1-4.79981.82416,3.752,3.752,0,0,1-.2218-6.2533H0V39.96962H4.97516A3.75649,3.75649,0,0,1,4.79,34.6603q.07855-.08423.16223-.16358a3.70812,3.70812,0,0,1,4.86395-.19622,3.75523,3.75523,0,0,1,.55976,5.28112q-.07306.09037-.15161.17609c-.06543.07263-.13605.14258-.208.21h40.677V3.89034ZM7.4895,30.64339a1.14469,1.14469,0,0,1-2.28937,0V16.64547a1.14469,1.14469,0,1,1,2.28937,0ZM31.41486,8.73269a1.98269,1.98269,0,0,1-1.43909-1.41877,2.03475,2.03475,0,0,1,1.9447-2.587l.034.00067a1.96232,1.96232,0,0,1,1.86291,1.30823A2.04,2.04,0,0,1,31.41486,8.73269ZM42.56464,38.12954a2.03753,2.03753,0,1,1-1.32508-2.55878,2.01449,2.01449,0,0,1,1.42072,1.94794A2.03627,2.03627,0,0,1,42.56464,38.12954Zm3.41912-7.45349a1.14468,1.14468,0,1,1-2.28936,0V16.67818a1.14468,1.14468,0,1,1,2.28936,0Zm4.03388-18.07758a2.0406,2.0406,0,1,1,0-.01373Z"/><path class="cls-9" d="M11.22383,37.21978a3.71737,3.71737,0,1,0-6.23822,2.74987h5.03663A3.75063,3.75063,0,0,0,11.22383,37.21978Zm-3.767,2.14155a2.09314,2.09314,0,1,1,2.07738-2.10878l.00006.01564h0a2.08463,2.08463,0,0,1-2.07611,2.09314Z"/><path class="cls-9" d="M3.60282,6.94309a3.718,3.718,0,1,0,5.8667-3.05272H5.17072A3.74478,3.74478,0,0,0,3.60282,6.94309ZM7.29657,4.82051A2.09314,2.09314,0,1,1,5.21523,6.92539l0-.01174A2.08857,2.08857,0,0,1,7.29657,4.82051Z"/><path class="cls-10" d="M22.50785,12.8438h-.5488a.11185.11185,0,0,1-.11185-.11185V11.52708a.11121.11121,0,0,1,.11054-.11186h.55011a.11186.11186,0,0,1,.11185.11186v1.20421a.11251.11251,0,0,1-.11185.11251"/><path class="cls-11" d="M22.92125,12.80651h-.55469a.10922.10922,0,0,1-.10923-.10923h0V11.56109a.10857.10857,0,0,1,.10858-.10858h.55534a.10858.10858,0,0,1,.10923.10792v1.13685a.10922.10922,0,0,1-.10923.10923h0"/><path class="cls-10" d="M25.33294,12.8438h-.5488a.11185.11185,0,0,1-.11185-.11185V11.52708a.11121.11121,0,0,1,.10788-.11443l.004,0h.5488a.11185.11185,0,0,1,.11185.11185v1.20421a.1125.1125,0,0,1-.11185.11251"/><path class="cls-11" d="M25.09092,12.80651h-.55534a.10858.10858,0,0,1-.10858-.10858V11.56109a.10858.10858,0,0,1,.10858-.10858h.55534a.10858.10858,0,0,1,.10858.10858h0v1.13619a.10857.10857,0,0,1-.10792.10923h-.00066"/><rect class="cls-12" x="22.72109" y="11.45251" width="1.87075" height="1.34354"/><rect class="cls-13" x="23.46219" y="11.88422" width="0.42648" height="0.61813"/><path class="cls-14" d="M25.3421,17.34537H24.15751a.25905.25905,0,0,1-.28257-.22632v-.39247a.25905.25905,0,0,1,.28257-.22632H25.3421a.25905.25905,0,0,1,.28257.22632v.39247A.25905.25905,0,0,1,25.3421,17.34537Z"/><path class="cls-14" d="M25.3421,16.03454H24.15751a.25906.25906,0,0,1-.28257-.227v-.38919a.25906.25906,0,0,1,.28257-.227H25.3421a.25906.25906,0,0,1,.28257.227v.38919A.25906.25906,0,0,1,25.3421,16.03454Z"/><path class="cls-14" d="M25.3421,14.536H24.15751a.259.259,0,0,1-.28257-.22632v-.39246a.25906.25906,0,0,1,.28257-.227H25.3421a.25906.25906,0,0,1,.28257.227v.39246A.259.259,0,0,1,25.3421,14.536Z"/><path class="cls-14" d="M22.06437,17.34537H20.7797c-.16942,0-.30613-.10139-.30613-.22632v-.39247c0-.12493.13671-.22632.30613-.22632h1.28467c.16941,0,.30612.10139.30612.22632v.39247C22.37049,17.244,22.23378,17.34537,22.06437,17.34537Z"/><path class="cls-14" d="M22.06437,14.536H20.7797c-.16942,0-.30613-.10138-.30613-.22632v-.39246c0-.12559.13671-.227.30613-.227h1.28467c.16941,0,.30612.10139.30612.227v.39246C22.37049,14.43459,22.23378,14.536,22.06437,14.536Z"/><rect class="cls-15" x="21.97214" y="13.50575" width="2.15398" height="4.12088" rx="0.20997"/><g class="cls-16"><g class="cls-17"><g class="cls-17"><path class="cls-18" d="M27.53794,12.11905v1.63984a.244.244,0,0,1-.242.244H26.734a.24267.24267,0,0,1-.24267-.24268V12.04906a.244.244,0,0,1,.242-.244h.56122a.23942.23942,0,0,1,.24333.23542V12.119"/><rect class="cls-19" x="26.49137" y="12.43302" width="1.04657" height="1.04657"/></g></g></g><g class="cls-16"><g class="cls-20"><g class="cls-20"><path class="cls-18" d="M27.63606,20.85138v1.63985a.244.244,0,0,1-.242.244h-.56188a.24268.24268,0,0,1-.24268-.24268V20.7814a.244.244,0,0,1,.242-.244h.56123a.2394.2394,0,0,1,.24332.23542l0,.00006v.0785"/><rect class="cls-19" x="26.58948" y="21.16536" width="1.04657" height="1.04657"/></g></g></g><g class="cls-16"><g class="cls-21"><g class="cls-21"><path class="cls-18" d="M27.63606,27.85034v1.63985a.244.244,0,0,1-.242.244h-.56188a.24268.24268,0,0,1-.24268-.24267V27.78035a.244.244,0,0,1,.242-.244h.56123a.23939.23939,0,0,1,.24332.23541l0,.00007v.07849"/><rect class="cls-19" x="26.58948" y="28.16431" width="1.04657" height="1.04657"/></g></g></g><g class="cls-16"><g class="cls-22"><g class="cls-22"><path class="cls-18" d="M30.69924,23.32457h-1.5136a.3082.3082,0,0,1-.33948-.25511V22.592c0-.14325.155-.25576.33948-.25576h1.545a.30815.30815,0,0,1,.33948.25576v.47749c0,.138-.14913.25511-.33948.25511"/><rect class="cls-23" x="29.46363" y="22.33621" width="0.98836" height="0.98836"/></g></g></g><g class="cls-16"><g class="cls-24"><g class="cls-24"><path class="cls-18" d="M19.05612,14.49411h-1.5136a.30821.30821,0,0,1-.33949-.2551v-.4775c0-.14325.155-.25576.33949-.25576h1.545a.30815.30815,0,0,1,.33948.25576v.4775c0,.138-.14914.2551-.33948.2551"/><rect class="cls-23" x="17.82051" y="13.50575" width="0.98836" height="0.98836"/></g></g></g><g class="cls-16"><g class="cls-25"><g class="cls-25"><path class="cls-18" d="M26.52015,16.70369V15.19008a.30864.30864,0,0,1,.25575-.33948h.4775c.14325,0,.25576.155.25576.33948v1.54435a.30935.30935,0,0,1-.25576.34014h-.4775c-.13867,0-.25575-.14979-.25575-.34014"/><rect class="cls-23" x="26.52015" y="15.46808" width="0.98836" height="0.98836"/></g></g></g><g class="cls-16"><g class="cls-26"><g class="cls-26"><path class="cls-18" d="M28.15542,16.70369V15.19008a.30864.30864,0,0,1,.25575-.33948h.4775c.14325,0,.25576.155.25576.33948v1.54435a.30935.30935,0,0,1-.25576.34014h-.4775c-.13867,0-.25575-.14979-.25575-.34014"/><rect class="cls-23" x="28.15542" y="15.46808" width="0.98836" height="0.98836"/></g></g></g><g class="cls-16"><g class="cls-27"><g class="cls-27"><path class="cls-18" d="M19.05612,17.63383h-1.5136a.30821.30821,0,0,1-.33949-.2551v-.4775c0-.14325.155-.25576.33949-.25576h1.545a.30815.30815,0,0,1,.33948.25576v.4775c0,.138-.14914.2551-.33948.2551"/><rect class="cls-23" x="17.82051" y="16.64547" width="0.98836" height="0.98836"/></g></g></g><g class="cls-16"><g class="cls-28"><g class="cls-28"><path class="cls-18" d="M19.05612,16.064h-1.5136a.30821.30821,0,0,1-.33949-.2551v-.4775c0-.14325.155-.25576.33949-.25576h1.545a.30815.30815,0,0,1,.33948.25576v.4775c0,.138-.14914.2551-.33948.2551"/><rect class="cls-23" x="17.82051" y="15.07561" width="0.98836" height="0.98836"/></g></g></g><g class="cls-16"><g class="cls-29"><g class="cls-29"><path class="cls-18" d="M30.69924,25.09066h-1.5136a.3082.3082,0,0,1-.33948-.2551v-.4775c0-.14325.155-.25576.33948-.25576h1.545a.30815.30815,0,0,1,.33948.25576v.4775c0,.138-.14913.2551-.33948.2551"/><rect class="cls-23" x="29.46363" y="24.1023" width="0.98836" height="0.98836"/></g></g></g><rect class="cls-14" x="28.25746" y="13.11329" width="0.78493" height="0.78493" rx="0.07653"/><rect class="cls-14" x="28.25746" y="11.80507" width="0.78493" height="0.78493" rx="0.07653"/><rect class="cls-14" x="29.82732" y="13.11329" width="0.78493" height="0.78493" rx="0.07653"/><rect class="cls-14" x="29.82732" y="11.80507" width="0.78493" height="0.78493" rx="0.07653"/><path class="cls-14" d="M22.71324,19.86761h2.78127c.04447,0,.0811.06541.0811.14979v.80128c0,.08242-.03663.14914-.0811.14914H22.71324c-.04448,0-.08111-.06541-.08111-.14914V20.0174c0-.08307.03663-.14979.08111-.14979"/><path class="cls-14" d="M22.71324,22.679h2.78127c.04447,0,.0811.06541.0811.14979V23.63c0,.08241-.03663.14913-.0811.14913H22.71324c-.04448,0-.08111-.06541-.08111-.14913v-.80129c0-.08241.03663-.14979.08111-.14979"/><path class="cls-14" d="M21.55743,21.3073H24.429a.11512.11512,0,0,1,.10335.12363v.85034a.11511.11511,0,0,1-.10335.12362H21.55743a.11445.11445,0,0,1-.10269-.121v-.85034a.11446.11446,0,0,1,.10269-.12362"/><path class="cls-30" d="M22.65764,19.70473h1.70068a.20344.20344,0,0,1,.20343.20343V23.6163a.20343.20343,0,0,1-.20343.20343H22.65764a.20343.20343,0,0,1-.20343-.20343V19.90816a.20344.20344,0,0,1,.20343-.20343"/><path class="cls-14" d="M22.71324,26.34328h2.78127c.04447,0,.0811.06541.0811.14979v.80128c0,.08242-.03663.14913-.0811.14913H22.71324c-.04448,0-.08111-.06541-.08111-.14913v-.80128c0-.08308.03663-.1498.08111-.1498"/><path class="cls-14" d="M22.71324,29.15463h2.78127c.04447,0,.0811.06541.0811.14979v.80128c0,.08242-.03663.14914-.0811.14914H22.71324c-.04448,0-.08111-.06541-.08111-.14914v-.80128c0-.08242.03663-.14979.08111-.14979"/><path class="cls-14" d="M21.55743,27.783H24.429a.11511.11511,0,0,1,.10335.12362v.85034a.11512.11512,0,0,1-.10335.12363H21.55743a.11446.11446,0,0,1-.10269-.121v-.85034a.11447.11447,0,0,1,.10269-.12363"/><path class="cls-30" d="M22.65764,26.1804h1.70068a.20343.20343,0,0,1,.20343.20343V30.092a.20342.20342,0,0,1-.20343.20342H22.65764a.20342.20342,0,0,1-.20343-.20342V26.38383a.20343.20343,0,0,1,.20343-.20343"/><rect class="cls-31" x="21.55285" y="11.15097" width="4.219" height="1.99503" rx="0.21913"/><rect class="cls-31" x="16.9741" y="13.27682" width="2.87807" height="4.77499" rx="0.18315"/><path class="cls-31" d="M26.34092,11.51072h4.55259a.0785.0785,0,0,1,.0785.0785h0v2.7865a.07849.07849,0,0,1-.0785.07849H26.26243v-2.865a.0785.0785,0,0,1,.07849-.0785Z"/><path class="cls-31" d="M26.26243,14.45421H29.533v2.79958a.0785.0785,0,0,1-.0785.0785H26.34092a.0785.0785,0,0,1-.07849-.0785h0V14.45421Z"/><line class="cls-31" x1="27.84537" y1="11.51072" x2="27.84537" y2="17.33229"/><line class="cls-31" x1="29.5212" y1="11.51072" x2="29.5212" y2="14.4215"/><line class="cls-31" x1="16.9741" y1="16.36421" x2="19.85217" y2="16.36421"/><line class="cls-31" x1="19.85217" y1="14.82771" x2="16.9741" y2="14.82771"/><line class="cls-32" x1="21.2258" y1="13.34223" x2="25.02028" y2="13.34223"/><line class="cls-32" x1="21.31279" y1="15.07561" x2="21.31279" y2="16.1804"/><line class="cls-32" x1="21.2258" y1="17.80586" x2="25.02028" y2="17.80586"/><line class="cls-32" x1="22.86107" y1="19.55625" x2="25.02028" y2="19.55625"/><line class="cls-32" x1="22.86107" y1="24.00746" x2="25.02028" y2="24.00746"/><line class="cls-32" x1="22.86107" y1="26.05612" x2="25.02028" y2="26.05612"/><line class="cls-32" x1="22.86107" y1="30.57666" x2="25.02028" y2="30.57666"/><rect class="cls-32" x="26.26243" y="20.34118" width="1.70068" height="2.87807" rx="0.07849"/><rect class="cls-32" x="26.32784" y="27.27473" width="1.70068" height="2.87807" rx="0.07849"/><path class="cls-32" d="M28.49948,22.17268H31.286a.07849.07849,0,0,1,.07849.0785h0v2.98273a.07849.07849,0,0,1-.07849.07849h-2.7865a.07849.07849,0,0,1-.07849-.07849h0V22.25118a.0785.0785,0,0,1,.07849-.0785Z"/><line class="cls-32" x1="31.36447" y1="23.74254" x2="28.42099" y2="23.74254"/><path class="cls-14" d="M36.88579,18.044l4.31188,8.86186h-8.6231Zm0-.48338-4.65,9.55717h9.30011Z"/><rect class="cls-14" x="37.51476" y="20.21838" width="0.21128" height="6.12179" transform="translate(-1.17345 44.5456) rotate(-60.48)"/><rect class="cls-14" x="37.5927" y="20.47372" width="0.21128" height="6.77263" transform="translate(-1.63928 44.90802) rotate(-60.48)"/><path class="cls-14" d="M35.65673,22.16156l-.18708-.09877a11.2733,11.2733,0,0,1,.61683-1.03349c.28519-.39966,1.84327-.73914,2.01988-.77708l.04383.2067a5.04208,5.04208,0,0,0-1.89168.69335,11.1125,11.1125,0,0,0-.60178,1.00929"/><path class="cls-14" d="M38.3353,23.7432l-.106-.1825a.79144.79144,0,0,0,.39247-.71952,2.969,2.969,0,0,1,.15895-.974l.20081.06542a2.864,2.864,0,0,0-.14914.88566.99891.99891,0,0,1-.49778.91967"/><path class="cls-14" d="M36.07863,24.87219a.58048.58048,0,0,1-.08111-.00524c-.43956-.05494-.99752-1.439-1.0034-1.45146a.95234.95234,0,0,1,.27407-.96808l.14456.15372c0,.00327-.37219.35975-.22175.73587.24137.60439.64888,1.29709.83268,1.32064.09812.01177.15568-.00719.16942-.03205s-.00327-.10793-.085-.21128a2.39683,2.39683,0,0,1-.4546-1.06881,1.88271,1.88271,0,0,1,.23613-.51544l.17988.1112a1.7836,1.7836,0,0,0-.20605.4304,2.33534,2.33534,0,0,0,.40948.91052c.18184.227.1439.37742.10465.44676a.32121.32121,0,0,1-.29893.14325"/><path class="cls-14" d="M36.90542,25.29212a.26811.26811,0,0,1-.13082-.02943c-.07653-.04056-.16222-.13736-.13082-.36892a3.54222,3.54222,0,0,1,.696-1.2585l.16353.13409a3.28342,3.28342,0,0,0-.64953,1.14927c-.01112.09419.00327.14652.02224.157.05364.02813.23483-.04251.38788-.17661a6.72963,6.72963,0,0,0,.68093-.90855l.17726.11512a6.975,6.975,0,0,1-.71952.95173.87672.87672,0,0,1-.49712.23482"/><path class="cls-14" d="M36.83935,24.53009a2.31,2.31,0,0,1-.87127-.3506l.11055-.17988a1.607,1.607,0,0,0,.79343.314.17989.17989,0,0,0,.01832-.14979.77683.77683,0,0,0-.44218-.36565.471.471,0,0,1-.23287-.78493l.17857.11316a.38475.38475,0,0,0-.089.28258c.02158.07195.09942.138.23024.19623a.9331.9331,0,0,1,.55665.49581.38791.38791,0,0,1-.04186.32706.21265.21265,0,0,1-.13671.0955.327.327,0,0,1-.07392.00785"/><rect class="cls-14" x="36.48287" y="18.52472" width="0.84969" height="0.21128"/><rect class="cls-14" x="36.23104" y="19.04147" width="1.30953" height="0.21128"/><rect class="cls-14" x="35.97986" y="19.55887" width="1.81253" height="0.21128"/><rect class="cls-14" x="35.72803" y="20.07627" width="2.31554" height="0.21128"/><rect class="cls-14" x="35.52002" y="20.59301" width="1.37232" height="0.21128"/><rect class="cls-14" x="35.22502" y="21.11041" width="0.86211" height="0.21128"/><rect class="cls-14" x="35.02028" y="21.62716" width="0.73195" height="0.21128"/><rect class="cls-14" x="34.47017" y="22.6613" width="0.68747" height="0.21128"/><rect class="cls-14" x="38.75262" y="22.6613" width="0.54945" height="0.21128"/><rect class="cls-14" x="34.21834" y="23.1787" width="0.87389" height="0.21128"/><rect class="cls-14" x="38.65908" y="23.1787" width="0.87389" height="0.21128"/><rect class="cls-14" x="34.01492" y="23.69545" width="1.26766" height="0.21128"/><rect class="cls-14" x="38.54592" y="23.69545" width="1.2585" height="0.21128"/><rect class="cls-14" x="33.71141" y="24.21285" width="1.85767" height="0.21128"/><rect class="cls-14" x="37.85126" y="24.21285" width="0.66523" height="0.21128"/><rect class="cls-33" x="39.45971" y="24.21285" width="0.56515" height="0.21128"/><rect class="cls-14" x="33.46416" y="24.73025" width="3.2797" height="0.21128"/><rect class="cls-14" x="37.4673" y="24.73025" width="1.99372" height="0.21128"/><rect class="cls-14" x="33.29278" y="25.24699" width="7.01858" height="0.21128"/><rect class="cls-14" x="32.96049" y="25.76374" width="7.8506" height="0.21128"/><rect class="cls-14" x="32.68577" y="26.28114" width="8.368" height="0.21128"/><path class="cls-34" d="M10.57627,23.60976c.05167.53441.104,1.07535.15568,1.61892L9.72331,26.22881l.14587.16941.89024-.883c.00654.06541.01308.13474.01962.20342a.93474.93474,0,0,0-.60963.86539.95822.95822,0,0,0,.98116.93472.98119.98119,0,0,0,.91576-.605H14.0365v.66915h.57627V26.915a.138.138,0,0,0,.14063-.12167q.07359-.78492.14848-1.56266l1.04658,1.04068L16.0917,26.1l-1.16431-1.15646q.06541-.67112.13082-1.33242c.085-.87585.17138-1.75694.25838-2.63344l.69531-.68812-.15175-.16222-.5089.50039c.0229-.22959.04514-.45787.06541-.68747h.41275v-.41666h-.37153l.00915-.0942a.13084.13084,0,0,0-.03924-.10662,2.10121,2.10121,0,0,0-.609-.37349V18.649h-.65869v.12167a6.26067,6.26067,0,0,0-.80455-.1027v-.17464H11.84524v.21651a5.00164,5.00164,0,0,0-.99686.225,2.159,2.159,0,0,0-.47816.25379.40553.40553,0,0,0-.32247-.15567.39246.39246,0,0,0-.401.38377v.00019a.38527.38527,0,0,0,.26164.35976v.1596h.30809c.01047.10858.02158.21651.032.327a.09874.09874,0,0,1,0,.01439l-.01439-.01439-.327-.327-.3094-.30482-.15764.15764.47881.47292H9.63043v1.00144h.71625c.07653.781.15371,1.56463.22893,2.34367M10.0471,19.2462a.18185.18185,0,0,1,.1524.08046.1308.1308,0,0,0-.036.10139l.00981.09419H9.90712a.16684.16684,0,0,1-.0386-.10531.17531.17531,0,0,1,.17857-.17073m.23614,1.37952c.01373.1354.02747.27211.04121.40816H9.88815v-.54225h.26164l.13475.13082m2.81266-1.90411v.19623H12.101v-.19623Zm1.06292.80521h-3.7029a.37319.37319,0,0,0-.00589-.05364,1.93171,1.93171,0,0,1,.49385-.28127,4.73854,4.73854,0,0,1,.90006-.2067v.16746h1.51033v-.21063a5.96076,5.96076,0,0,1,.80455.10728Zm.40032-.645V19.294h-.1426V18.8786Zm.61878.58869a.49668.49668,0,0,1-.00523.05364h-.35583v-.27865a1.966,1.966,0,0,1,.36106.225m-.04644.46769q-.04971.49844-.09877,1.00079l-2.06109,2.05455-.96023-.957h1.41025v-.65411H11.42268v.06541l-.77512-.77381v-.41078h-.11643c-.01112-.10923-.02158-.21716-.0327-.327h4.63435m-1.96755,1.67255v.19624H11.7831l-.1027-.10139v-.09485Zm1.6091,1.97345q-.053.54683-.106,1.10021L13.13056,23.146l1.86878-1.85636c-.07587.7653-.15109,1.53257-.225,2.29657m-.51478,3.81672v-.327h.12428v.327Zm-2.1337-.81894a.95728.95728,0,0,0-.98116-.93407.87116.87116,0,0,0-.09223.00393l-.03729-.39705,1.95448-1.94793,1.668,1.66339c-.05363.556-.10662,1.112-.15894,1.67256H12.12389V26.584m-1.48875,0a.47615.47615,0,0,1,.18773-.37677.52336.52336,0,0,1,.27276-.10793.425.425,0,0,1,.04971,0,.4991.4991,0,0,1,.51021.48731.45837.45837,0,0,1-.00393.06084.47486.47486,0,0,1-.13082.26883.52324.52324,0,0,1-.37546.15764.49973.49973,0,0,1-.5102-.48731m.22305-3.0017c-.07457-.77119-.15045-1.54565-.227-2.31881h.017v-.27538l.77512.7725v.27407h.27472l1.11722,1.112L10.989,24.9703q-.06542-.69728-.13082-1.3854"/><path class="cls-14" d="M11.11394,26.2674a.33164.33164,0,0,0-.26687.17922.30615.30615,0,0,0,.03139.32706.33623.33623,0,0,0,.2695.13082.331.331,0,0,0,.327-.25837.26686.26686,0,0,0,.00589-.06083.32706.32706,0,0,0-.33425-.31856.29251.29251,0,0,0-.034,0m.034.39247a.07522.07522,0,0,1-.07717-.07322l0-.00069a.07327.07327,0,0,1,.06542-.07261H11.146a.07587.07587,0,0,1,.07784.07386v.00005a.07391.07391,0,0,1-.03336.06084.07586.07586,0,0,1-.04447.01308"/><polyline class="cls-32" points="36.755 5.03 35.439 5.03 35.439 8.484 36.755 8.484"/><polyline class="cls-32" points="49.175 5.03 50.491 5.03 50.491 8.484 49.175 8.484"/><path class="cls-9" d="M47.99778,10.55115a2.03362,2.03362,0,1,0,2.01984,2.04731l.00005-.01369h0A2.02774,2.02774,0,0,0,47.99778,10.55115Zm0,3.28885a1.27025,1.27025,0,0,1-1.21729-1.60583,1.23362,1.23362,0,0,1,.83856-.87716,1.2737,1.2737,0,0,1,1.54566,1.7118,1.21141,1.21141,0,0,1-1.13488.77119Z"/><path class="cls-9" d="M41.23954,35.57078a2.03753,2.03753,0,1,0,1.42072,1.94793h0A2.01447,2.01447,0,0,0,41.23954,35.57078Zm-.56646,3.17634a1.26962,1.26962,0,1,1,1.26044-1.27874l0,.00912a1.265,1.265,0,0,1-1.26045,1.26962Z"/><path class="cls-9" d="M31.92046,4.727A2.03471,2.03471,0,0,0,29.9758,7.314a1.9826,1.9826,0,0,0,1.439,1.41876,2.04006,2.04006,0,0,0,2.40254-2.69689,1.96233,1.96233,0,0,0-1.8629-1.30821Zm-.02812,3.22475a1.27028,1.27028,0,1,1,1.26042-1.28005l0,.00847V6.686A1.26569,1.26569,0,0,1,31.89234,7.95172Z"/><path class="cls-35" d="M49.69192,8.04694h-.16876a.25494.25494,0,0,1-.28192-.21323V5.56918a.25493.25493,0,0,1,.28192-.21324h.16876a.25493.25493,0,0,1,.28192.21324V7.83371a.25493.25493,0,0,1-.28192.21324"/><path class="cls-35" d="M36.34158,8.04694h-.16942c-.15567,0-.28061-.09288-.28061-.20866V5.62871c0-.11513.12494-.20866.28061-.20866h.16811c.155,0,.28061.09353.28061.20866V7.83828c0,.11578-.12559.20867-.28061.20867"/><path class="cls-36" d="M50.03925,6.14087V5.93156c0-.1112.0157-.20147-.15241-.20147h-.6541c-.13083,0-.11447.053-.15895.12756H36.78572c-.04448-.07457-.05233-.12756-.18054-.12756H36.163c-.16811,0-.30417.09027-.30417.20147v.20931c0,.09093.09158.1668.21586.19231v.80717c-.12428.02486-.21586.10139-.21586.19231v.20866c0,.11185.13606.20212.30417.20212h.45787c.13082,0,.13082-.05691.17269-.1354H49.07968c.04186.07849.02878.1354.16156.1354h.4932c.1681,0,.30416-.09027.30416-.20212V7.33266c0-.08438-.07784-.157-.189-.18708V6.3273c.1112-.03009.189-.10205.189-.18643"/><path class="cls-37" d="M48.8769,7.42456H36.946c-.09222,0-.16679-.04644-.16679-.10334v-1.129c0-.05691.07457-.1027.16679-.1027H48.8769c.09223,0,.16745.04579.16745.1027v1.129c0,.0569-.07522.10334-.16745.10334"/><path class="cls-35" d="M37.54579,5.02627h-.23286a.06541.06541,0,0,0-.06214.06214V5.2938a.06541.06541,0,0,0,.05887.06149v.54945h.23613V5.35529a.06541.06541,0,0,0,.05887-.06149V5.08841a.06541.06541,0,0,0-.06541-.06214"/><path class="cls-38" d="M37.51635,6.10686h-.30873a.04971.04971,0,0,1-.04906-.04906V5.90736a.04971.04971,0,0,1,.04906-.04971h.30873a.04971.04971,0,0,1,.04972.04971h0V6.0578a.04972.04972,0,0,1-.04972.04906"/><path class="cls-35" d="M37.54579,8.48651h-.23286a.06542.06542,0,0,1-.06214-.06542V8.22094a.06149.06149,0,0,1,.05887-.06149V7.60738h.23613v.54815a.06148.06148,0,0,1,.05887.06148V8.4224a.0654.0654,0,0,1-.06541.06541"/><path class="cls-38" d="M37.51635,7.40592h-.30873a.04906.04906,0,0,0-.04906.04906v.15044a.04971.04971,0,0,0,.04906.04971h.30873a.04971.04971,0,0,0,.04972-.04971h0V7.455a.04907.04907,0,0,0-.04906-.04907l-.00066,0"/><path class="cls-35" d="M38.11094,5.02627h-.23286a.06541.06541,0,0,0-.06541.06214V5.2938a.06541.06541,0,0,0,.05887.06149v.54945h.2394V5.35529a.06541.06541,0,0,0,.05887-.06149V5.08841a.06541.06541,0,0,0-.06541-.06214"/><path class="cls-38" d="M38.08216,6.10686h-.30874a.04971.04971,0,0,1-.04906-.04906V5.90736a.04971.04971,0,0,1,.04906-.04971h.30874a.0497.0497,0,0,1,.04971.04971h0V6.0578a.04972.04972,0,0,1-.04971.04906"/><path class="cls-35" d="M38.11094,8.48651h-.23286a.06541.06541,0,0,1-.06541-.06542V8.22094a.06149.06149,0,0,1,.05742-.0653l.00275-.00011V7.60738h.23941v.54815a.06148.06148,0,0,1,.05887.06148V8.4224a.06541.06541,0,0,1-.06541.06541"/><path class="cls-38" d="M38.08216,7.40592h-.30874a.04906.04906,0,0,0-.04906.04906v.15044a.04971.04971,0,0,0,.04906.04971h.30874a.0497.0497,0,0,0,.04971-.04971h0V7.455a.04906.04906,0,0,0-.04905-.04907l-.00066,0"/><path class="cls-35" d="M38.7101,5.02627h-.23221a.0615.0615,0,0,0-.06529.05744l-.00012.0047V5.2938a.06149.06149,0,0,0,.05887.06149v.54945h.23876V5.35529A.06542.06542,0,0,0,38.769,5.2938V5.08841a.06542.06542,0,0,0-.06541-.06214"/><path class="cls-38" d="M38.682,6.10686h-.30874a.04971.04971,0,0,1-.04971-.04906V5.90736a.0497.0497,0,0,1,.04971-.04971H38.682a.04969.04969,0,0,1,.049.04971V6.0578a.04971.04971,0,0,1-.049.04906"/><path class="cls-35" d="M38.7101,8.48651h-.23221a.06149.06149,0,0,1-.06541-.0573V8.22094a.06084.06084,0,0,1,.05887-.06149V7.60738h.23876v.54815A.06148.06148,0,0,1,38.769,8.217V8.4224a.06541.06541,0,0,1-.06541.06541"/><path class="cls-38" d="M38.682,7.40592h-.30874a.04906.04906,0,0,0-.04971.0484v.1511a.0497.0497,0,0,0,.04971.04971H38.682a.04969.04969,0,0,0,.049-.04971V7.455a.04905.04905,0,0,0-.049-.04906"/><path class="cls-35" d="M39.29618,5.02627H39.064a.06541.06541,0,0,0-.06541.06214V5.2938a.06541.06541,0,0,0,.05887.06149v.54945h.2394V5.35529a.06541.06541,0,0,0,.05887-.06149V5.08841a.06542.06542,0,0,0-.06541-.06214"/><path class="cls-38" d="M39.2674,6.10686h-.30874a.04971.04971,0,0,1-.04906-.04906V5.90736a.04971.04971,0,0,1,.04906-.04971h.30874a.04971.04971,0,0,1,.04971.04971h0V6.0578a.04972.04972,0,0,1-.04971.04906"/><path class="cls-35" d="M39.29618,8.48651H39.064a.06541.06541,0,0,1-.06541-.06542V8.22094a.06148.06148,0,0,1,.05887-.06149V7.60738h.2394v.54815a.06148.06148,0,0,1,.05887.06148V8.4224a.0654.0654,0,0,1-.06541.06541"/><path class="cls-38" d="M39.2674,7.40592h-.30874a.04906.04906,0,0,0-.04906.04906v.15044a.04971.04971,0,0,0,.04906.04971h.30874a.04971.04971,0,0,0,.04971-.04971h0V7.455a.04906.04906,0,0,0-.04905-.04907l-.00066,0"/><path class="cls-35" d="M39.86656,5.02627h-.2322a.06148.06148,0,0,0-.06214.06083v.2067a.06541.06541,0,0,0,.05887.06149v.54945h.23875V5.35529a.06541.06541,0,0,0,.05952-.06149V5.08841a.06542.06542,0,0,0-.06541-.06214"/><path class="cls-38" d="M39.83844,6.10686H39.5297a.04906.04906,0,0,1-.04906-.04906V5.90736a.04906.04906,0,0,1,.0484-.04971h.3094a.04971.04971,0,0,1,.04971.04971h0V6.0578a.04972.04972,0,0,1-.04971.04906"/><path class="cls-35" d="M39.86656,8.48651h-.2322a.06149.06149,0,0,1-.06226-.06071l.00012-.00471V8.22094a.06148.06148,0,0,1,.05887-.06149V7.60738h.23875v.54815a.06148.06148,0,0,1,.05952.06148V8.4224a.0654.0654,0,0,1-.06541.06541"/><path class="cls-38" d="M39.83844,7.40592H39.5297a.04841.04841,0,0,0-.04906.04774v.15176a.04906.04906,0,0,0,.0484.04971h.3094a.04971.04971,0,0,0,.04971-.04971h0V7.455a.04907.04907,0,0,0-.04905-.04907l-.00066,0"/><path class="cls-35" d="M40.43237,5.02627h-.23221a.06149.06149,0,0,0-.06529.05744l-.00012.0047V5.2938a.06541.06541,0,0,0,.05887.06149v.54945h.23875V5.35529a.06541.06541,0,0,0,.05887-.06149V5.08841a.06148.06148,0,0,0-.0607-.06226l-.00471.00012"/><path class="cls-38" d="M40.40424,6.10686h-.30743a.04972.04972,0,0,1-.04971-.04906V5.90736a.04971.04971,0,0,1,.04971-.04971h.30874a.04905.04905,0,0,1,.04906.04905v.1511a.04906.04906,0,0,1-.04906.04906"/><path class="cls-35" d="M40.43237,8.48651h-.23221a.06149.06149,0,0,1-.06541-.0573V8.22094a.06149.06149,0,0,1,.05887-.06149V7.60738h.23875v.54815a.06147.06147,0,0,1,.05887.06148V8.4224a.06148.06148,0,0,1-.05729.06541h-.00812"/><path class="cls-38" d="M40.40424,7.40592h-.30743a.04907.04907,0,0,0-.04971.0484v.1511a.04971.04971,0,0,0,.04971.04971h.30874a.04905.04905,0,0,0,.04906-.049V7.455a.04841.04841,0,0,0-.04774-.04906h-.00132"/><path class="cls-35" d="M41.00471,5.02627h-.2322a.06541.06541,0,0,0-.06541.06214V5.2938a.06541.06541,0,0,0,.05887.06149v.54945h.2394V5.35529a.06541.06541,0,0,0,.05887-.06149V5.08841a.06542.06542,0,0,0-.06541-.06214"/><path class="cls-38" d="M40.97659,6.10686h-.30874a.04971.04971,0,0,1-.04906-.04906V5.90736a.04971.04971,0,0,1,.04906-.04971h.30874a.04971.04971,0,0,1,.04971.04971h0V6.0578a.04972.04972,0,0,1-.04971.04906"/><path class="cls-35" d="M41.00471,8.48651h-.2322a.06541.06541,0,0,1-.06541-.06542V8.22094a.06148.06148,0,0,1,.05887-.06149V7.60738h.2394v.54815a.06148.06148,0,0,1,.05887.06148V8.4224a.0654.0654,0,0,1-.06541.06541"/><path class="cls-38" d="M40.97659,7.40592h-.30874a.04906.04906,0,0,0-.04906.04906v.15044a.04971.04971,0,0,0,.04906.04971h.30874a.04971.04971,0,0,0,.04971-.04971h0V7.455a.04907.04907,0,0,0-.04905-.04907l-.00066,0"/><path class="cls-35" d="M41.58425,5.02627H41.352a.0615.0615,0,0,0-.06529.05744l-.00012.0047V5.2938a.06149.06149,0,0,0,.05888.06149v.54945h.23875V5.35529a.06542.06542,0,0,0,.05887-.06149V5.08841a.06149.06149,0,0,0-.0607-.06226l-.00471.00012"/><path class="cls-38" d="M41.55613,6.10686h-.30874a.04972.04972,0,0,1-.04971-.04906V5.90736a.0497.0497,0,0,1,.04971-.04971h.30874a.04969.04969,0,0,1,.049.04971V6.0578a.04971.04971,0,0,1-.049.04906"/><path class="cls-35" d="M41.58425,8.48651H41.352a.06149.06149,0,0,1-.06541-.0573V8.22094a.06084.06084,0,0,1,.05888-.06149V7.60738h.23875v.54815a.06148.06148,0,0,1,.05887.06148V8.4224a.06148.06148,0,0,1-.0573.06541h-.00811"/><path class="cls-38" d="M41.55613,7.40592h-.30874a.04906.04906,0,0,0-.04971.0484v.1511a.0497.0497,0,0,0,.04971.04971h.30874a.04969.04969,0,0,0,.049-.04971V7.455a.04905.04905,0,0,0-.049-.04906"/><path class="cls-35" d="M42.16314,5.02627h-.23483a.06542.06542,0,0,0-.06214.06214V5.2938a.06542.06542,0,0,0,.05887.06149v.54945h.23941V5.35529a.06542.06542,0,0,0,.05887-.06149V5.08841a.06542.06542,0,0,0-.06541-.06214"/><path class="cls-38" d="M42.135,6.10686h-.30874a.04971.04971,0,0,1-.04906-.04906V5.90736a.04971.04971,0,0,1,.04906-.04971H42.135a.0497.0497,0,0,1,.04971.04971h0V6.0578a.04972.04972,0,0,1-.04971.04906"/><path class="cls-35" d="M42.16314,8.48651h-.23483a.06542.06542,0,0,1-.06214-.06542V8.22094a.06149.06149,0,0,1,.05743-.06529l.00471-.00012V7.60738h.23941v.54815a.06149.06149,0,0,1,.05887.06148V8.4224a.06541.06541,0,0,1-.06541.06541"/><path class="cls-38" d="M42.135,7.40592h-.30874a.04906.04906,0,0,0-.04906.04906v.15044a.04971.04971,0,0,0,.04906.04971H42.135a.0497.0497,0,0,0,.04971-.04971h0V7.455a.04906.04906,0,0,0-.04905-.04907l-.00066,0"/><path class="cls-35" d="M42.73614,5.02627h-.23221a.06541.06541,0,0,0-.06541.06214V5.2938a.06541.06541,0,0,0,.05887.06149v.54945h.2394V5.35529a.06541.06541,0,0,0,.05887-.06149V5.08841a.06541.06541,0,0,0-.06214-.06214"/><path class="cls-38" d="M42.70735,6.10686h-.30873a.04971.04971,0,0,1-.04906-.04906V5.90736a.04971.04971,0,0,1,.04906-.04971h.30873a.04971.04971,0,0,1,.04972.04971h0V6.0578a.04972.04972,0,0,1-.04972.04906"/><path class="cls-35" d="M42.73614,8.48651h-.23221a.06541.06541,0,0,1-.06541-.06542V8.22094a.06149.06149,0,0,1,.05887-.06149V7.60738h.2394v.54815a.06148.06148,0,0,1,.05887.06148V8.4224a.0654.0654,0,0,1-.06214.06541"/><path class="cls-38" d="M42.70735,7.40592h-.30873a.04906.04906,0,0,0-.04906.04906v.15044a.04971.04971,0,0,0,.04906.04971h.30873a.04971.04971,0,0,0,.04972-.04971h0V7.455a.04907.04907,0,0,0-.04906-.04907l-.00066,0"/><path class="cls-35" d="M43.32876,5.02627h-.23221a.06541.06541,0,0,0-.06541.06214V5.2938a.06541.06541,0,0,0,.05887.06149v.54945h.2394V5.35529a.06541.06541,0,0,0,.05887-.06149V5.08841a.06541.06541,0,0,0-.06541-.06214"/><path class="cls-38" d="M43.30194,6.10686H42.9932a.0497.0497,0,0,1-.04905-.04906V5.90736a.04969.04969,0,0,1,.04905-.04971h.30874a.0497.0497,0,0,1,.04971.04971h0V6.0578a.04972.04972,0,0,1-.04971.04906"/><path class="cls-35" d="M43.32876,8.48651h-.23221a.06541.06541,0,0,1-.06541-.06542V8.22094A.06149.06149,0,0,1,43.09,8.15945V7.60738h.2394v.54815a.06148.06148,0,0,1,.05887.06148V8.4224a.0654.0654,0,0,1-.06541.06541"/><path class="cls-38" d="M43.30194,7.40592H42.9932a.04905.04905,0,0,0-.04905.04906v.15044a.04969.04969,0,0,0,.04905.04971h.30874a.0497.0497,0,0,0,.04971-.04971h0V7.455a.04905.04905,0,0,0-.04905-.04907l-.00066,0"/><path class="cls-35" d="M43.9083,5.02627h-.23286a.06541.06541,0,0,0-.06541.06214V5.2938a.06541.06541,0,0,0,.05887.06149v.54945h.2394V5.35529a.06541.06541,0,0,0,.05887-.06149V5.08841a.06541.06541,0,0,0-.06541-.06214"/><path class="cls-38" d="M43.87952,6.10686h-.30874a.04971.04971,0,0,1-.04906-.04906V5.90736a.04971.04971,0,0,1,.04906-.04971h.30874a.04971.04971,0,0,1,.04971.04971h0V6.0578a.04972.04972,0,0,1-.04971.04906"/><path class="cls-35" d="M43.9083,8.48651h-.23286A.06541.06541,0,0,1,43.61,8.42109V8.22094a.06148.06148,0,0,1,.05887-.06149V7.60738h.2394v.54815a.06148.06148,0,0,1,.05887.06148V8.4224a.0654.0654,0,0,1-.06541.06541"/><path class="cls-38" d="M43.87952,7.40592h-.30874a.04906.04906,0,0,0-.04906.04906v.15044a.04971.04971,0,0,0,.04906.04971h.30874a.04971.04971,0,0,0,.04971-.04971h0V7.455a.04906.04906,0,0,0-.049-.04907l-.00066,0"/><path class="cls-35" d="M44.50092,5.02627h-.23221a.0615.0615,0,0,0-.06214.06083v.2067a.06148.06148,0,0,0,.05887.06149v.54945h.23875V5.35529a.06542.06542,0,0,0,.05888-.06149V5.08841a.0615.0615,0,0,0-.06083-.06214h-.00131"/><path class="cls-38" d="M44.4728,6.10686h-.30874a.0497.0497,0,0,1-.04971-.04906V5.90736a.0497.0497,0,0,1,.04971-.04971h.30874a.0497.0497,0,0,1,.04905.04971V6.0578a.04971.04971,0,0,1-.04905.04906"/><path class="cls-35" d="M44.50092,8.48651h-.23221a.06149.06149,0,0,1-.06226-.06071l.00012-.00471V8.22094a.06084.06084,0,0,1,.05887-.06149V7.60738h.23875v.54815a.06149.06149,0,0,1,.05888.06148V8.4224a.06149.06149,0,0,1-.05743.06529l-.00471.00012"/><path class="cls-38" d="M44.4728,7.40592h-.30874a.04906.04906,0,0,0-.04971.0484v.1511a.0497.0497,0,0,0,.04971.04971h.30874a.0497.0497,0,0,0,.04905-.04971V7.455a.04905.04905,0,0,0-.04905-.04906"/><path class="cls-35" d="M45.07327,5.02627h-.23221a.06148.06148,0,0,0-.06214.06083v.2067a.06541.06541,0,0,0,.05887.06149v.54945h.23875V5.35529a.06541.06541,0,0,0,.05887-.06149V5.08841a.0615.0615,0,0,0-.06082-.06214h-.00132"/><path class="cls-38" d="M45.04514,6.10686H44.7364a.04972.04972,0,0,1-.04971-.04906V5.90736a.04971.04971,0,0,1,.04971-.04971h.30874a.04905.04905,0,0,1,.04906.04905v.1511a.04906.04906,0,0,1-.04906.04906"/><path class="cls-35" d="M45.07327,8.48651h-.23221a.06149.06149,0,0,1-.06226-.06071l.00012-.00471V8.22094a.06149.06149,0,0,1,.05887-.06149V7.60738h.23875v.54815a.06148.06148,0,0,1,.05887.06148V8.4224a.06148.06148,0,0,1-.05743.06529l-.00471.00012"/><path class="cls-38" d="M45.04514,7.40592H44.7364a.04907.04907,0,0,0-.04971.0484v.1511a.04971.04971,0,0,0,.04971.04971h.30874a.04905.04905,0,0,0,.04906-.049V7.455a.04841.04841,0,0,0-.04774-.04906h-.00132"/><path class="cls-35" d="M45.6528,5.02627h-.2322a.06541.06541,0,0,0-.06541.06214V5.2938a.06541.06541,0,0,0,.05887.06149v.54945h.24267V5.35529a.06541.06541,0,0,0,.05887-.06149V5.08841a.06542.06542,0,0,0-.06214-.06214"/><path class="cls-38" d="M45.624,6.10686h-.30873a.04971.04971,0,0,1-.04906-.04906V5.90736a.0497.0497,0,0,1,.04906-.04971H45.624a.04971.04971,0,0,1,.04972.04971h0V6.0578a.04972.04972,0,0,1-.04972.04906"/><path class="cls-35" d="M45.6528,8.48651h-.2322a.06541.06541,0,0,1-.06541-.06542V8.22094a.06148.06148,0,0,1,.05887-.06149V7.60738h.24267v.54815a.06148.06148,0,0,1,.05887.06148V8.4224a.06541.06541,0,0,1-.06214.06541"/><path class="cls-38" d="M45.624,7.40592h-.30873a.04905.04905,0,0,0-.04906.04906v.15044a.0497.0497,0,0,0,.04906.04971H45.624a.04971.04971,0,0,0,.04972-.04971h0V7.455a.04907.04907,0,0,0-.04906-.04907l-.00066,0"/><path class="cls-35" d="M46.23169,5.02627h-.23221a.06149.06149,0,0,0-.06529.05744l-.00012.0047V5.2938a.06541.06541,0,0,0,.05887.06149v.54945h.23875V5.35529a.06148.06148,0,0,0,.05887-.06149V5.08841a.06148.06148,0,0,0-.0607-.06226l-.00471.00012"/><path class="cls-38" d="M46.20356,6.10686h-.30873a.04972.04972,0,0,1-.04972-.04906V5.90736a.04971.04971,0,0,1,.04972-.04971h.30873a.04905.04905,0,0,1,.04906.04905v.1511a.04906.04906,0,0,1-.04906.04906"/><path class="cls-35" d="M46.23169,8.48651h-.23221a.06149.06149,0,0,1-.06541-.0573V8.22094a.06149.06149,0,0,1,.05887-.06149V7.60738h.23875v.54815a.06082.06082,0,0,1,.05887.06148V8.4224a.06148.06148,0,0,1-.05729.06541h-.00812"/><path class="cls-38" d="M46.20356,7.40592h-.30873a.04906.04906,0,0,0-.04971.0484l0,.00066v.15044a.04971.04971,0,0,0,.04972.04971h.30873a.04905.04905,0,0,0,.04906-.049V7.455a.04841.04841,0,0,0-.04774-.04906h-.00132"/><path class="cls-35" d="M46.804,5.02627h-.23155a.06541.06541,0,0,0-.06541.06214V5.2938a.06541.06541,0,0,0,.05887.06149v.54945h.2394V5.35529a.06541.06541,0,0,0,.05887-.06149V5.08841a.06541.06541,0,0,0-.06541-.06214"/><path class="cls-38" d="M46.77591,6.10686h-.30874a.04906.04906,0,0,1-.04906-.04906V5.90736a.04906.04906,0,0,1,.0484-.04971h.3094a.04971.04971,0,0,1,.04971.04971h0V6.0578a.04972.04972,0,0,1-.04971.04906"/><path class="cls-35" d="M46.804,8.48651h-.23155a.06541.06541,0,0,1-.06541-.06542V8.22094a.06149.06149,0,0,1,.05887-.06149V7.60738h.2394v.54815a.06147.06147,0,0,1,.05887.06148V8.4224a.0654.0654,0,0,1-.06541.06541"/><path class="cls-38" d="M46.77591,7.40592h-.30874a.04841.04841,0,0,0-.04906.04774v.15176a.04906.04906,0,0,0,.0484.04971h.3094a.04971.04971,0,0,0,.04971-.04971h0V7.455a.04907.04907,0,0,0-.04905-.04907l-.00066,0"/><path class="cls-35" d="M47.39731,5.02627h-.23286a.06541.06541,0,0,0-.06214.06214V5.2938a.06541.06541,0,0,0,.05887.06149v.54945h.2394V5.35529a.06541.06541,0,0,0,.05887-.06149V5.08841a.06542.06542,0,0,0-.06214-.06214"/><path class="cls-38" d="M47.36853,6.10686h-.30874a.04971.04971,0,0,1-.04906-.04906V5.90736a.04971.04971,0,0,1,.04906-.04971h.30874a.04971.04971,0,0,1,.04971.04971h0V6.0578a.04972.04972,0,0,1-.04971.04906"/><path class="cls-35" d="M47.39731,8.48651h-.23286a.06542.06542,0,0,1-.06214-.06542V8.22094a.06147.06147,0,0,1,.05738-.06533l.00149-.00008V7.60738h.2394v.54815a.06148.06148,0,0,1,.05887.06148V8.4224a.06541.06541,0,0,1-.06214.06541"/><path class="cls-38" d="M47.36853,7.40592h-.30874a.04906.04906,0,0,0-.04906.04906v.15044a.04971.04971,0,0,0,.04906.04971h.30874a.04971.04971,0,0,0,.04971-.04971h0V7.455a.04907.04907,0,0,0-.049-.04907l-.00066,0"/><path class="cls-35" d="M47.9762,5.02627H47.744a.06148.06148,0,0,0-.06214.06083v.2067a.06541.06541,0,0,0,.05887.06149v.54945h.2394V5.35529A.06541.06541,0,0,0,48.039,5.2938V5.08841a.06541.06541,0,0,0-.06541-.06214"/><path class="cls-38" d="M47.94611,6.10686h-.30874a.04906.04906,0,0,1-.04906-.04906V5.90736a.04906.04906,0,0,1,.0484-.04971h.3094a.04906.04906,0,0,1,.04906.04905l0,.00066V6.0578a.04905.04905,0,0,1-.04905.04906"/><path class="cls-35" d="M47.9762,8.48651H47.744a.06149.06149,0,0,1-.06226-.06071l.00012-.00471V8.22094a.06149.06149,0,0,1,.05887-.06149V7.60738h.2394v.54815A.06148.06148,0,0,1,48.039,8.217V8.4224a.0654.0654,0,0,1-.06541.06541"/><path class="cls-38" d="M47.94611,7.40592h-.30874a.04841.04841,0,0,0-.04906.04774v.15176a.04906.04906,0,0,0,.0484.04971h.3094a.04906.04906,0,0,0,.04906-.049l0-.00066V7.455a.0484.0484,0,0,0-.04774-.04906h-.00131"/><path class="cls-35" d="M48.58779,5.02627h-.23221a.06541.06541,0,0,0-.06541.06214V5.2938a.06541.06541,0,0,0,.05887.06149v.54945h.2394V5.35529a.06541.06541,0,0,0,.05887-.06149V5.08841a.06541.06541,0,0,0-.06541-.06214"/><path class="cls-38" d="M48.559,6.10686h-.30809a.04972.04972,0,0,1-.04971-.04906V5.90736a.0497.0497,0,0,1,.04971-.04971H48.559a.04971.04971,0,0,1,.04971.04971h0V6.0578a.04972.04972,0,0,1-.04971.04906"/><path class="cls-35" d="M48.58779,8.48651h-.23221a.06541.06541,0,0,1-.06541-.06542V8.22094a.06149.06149,0,0,1,.05887-.06149V7.60738h.2394v.54815a.06148.06148,0,0,1,.05887.06148V8.4224a.0654.0654,0,0,1-.06541.06541"/><path class="cls-38" d="M48.559,7.40592h-.30809a.04906.04906,0,0,0-.04971.0484v.1511a.0497.0497,0,0,0,.04971.04971H48.559a.04971.04971,0,0,0,.04971-.04971h0V7.455a.04907.04907,0,0,0-.04906-.04907l-.00065,0"/><path class="cls-38" d="M49.33543,6.01463c0-.087.09681-.157.293-.157s.295.07.295.157-.09877.157-.295.157-.293-.07065-.293-.157"/><path class="cls-38" d="M49.33543,7.45105c0-.087.09681-.157.293-.157s.295.07.295.157-.09877.15633-.295.15633-.293-.07-.293-.15633"/><path class="cls-38" d="M36.00013,6.01463c0-.087.09681-.157.293-.157s.295.07.295.157-.09878.157-.295.157-.293-.07065-.293-.157"/><path class="cls-38" d="M36.00013,7.45105c0-.087.09681-.157.293-.157s.295.07.295.157-.09878.15633-.295.15633-.293-.07-.293-.15633"/><path class="cls-5" d="M36.22253,4.62533c.0586.00488.14307-.00684.14307-.0835a.08868.08868,0,0,0-.09521-.08936c-.06885,0-.1045.05079-.10352.12012H36.037a.22317.22317,0,0,1,.23242-.23291.2077.2077,0,0,1,.22607.18652.13425.13425,0,0,1-.09423.1377v.00195a.149.149,0,0,1,.11914.15283.25092.25092,0,0,1-.5-.02392h.12988c.00293.07275.03955.13232.11816.13232a.10347.10347,0,0,0,.10987-.10547c0-.102-.08936-.10009-.15577-.10009Z"/><path class="cls-5" d="M36.69714,4.85335a.09592.09592,0,0,0,.09034.0835c.10009,0,.124-.13086.1289-.20459l-.00195-.00195a.1692.1692,0,0,1-.15186.0747.21384.21384,0,0,1-.15478-.06933.22819.22819,0,0,1-.05225-.14991.23339.23339,0,0,1,.23584-.24609c.20362,0,.2583.17822.2583.34815,0,.16552-.07275.35205-.26416.35205a.20516.20516,0,0,1-.21826-.18653Zm.20655-.27588a.11558.11558,0,0,0-.1084-.125.11253.11253,0,0,0-.103.12305c0,.06348.03272.12695.103.12695A.11137.11137,0,0,0,36.90369,4.57747Z"/><path class="cls-5" d="M49.70837,5.0262h-.13671V4.58968h-.169V4.48714c.09521.00244.18164-.03076.19678-.13379h.10888Z"/><path class="cls-5" d="M36.3031,9.01937h-.28467v-.125l.29248-.39209H36.433v.40478h.08936v.11231H36.433v.15576H36.3031Zm0-.34619h-.00293l-.17383.23388h.17676Z"/><path class="cls-5" d="M36.80164,8.48861c.13476,0,.248.085.248.34716,0,.26807-.11328.353-.248.353-.13331,0-.2461-.085-.2461-.353C36.55554,8.57357,36.66833,8.48861,36.80164,8.48861Zm0,.5874c.11181,0,.11181-.16406.11181-.24024,0-.07031,0-.23437-.11181-.23437-.11036,0-.10938.16406-.10938.23437C36.69226,8.91195,36.69226,9.076,36.80164,9.076Z"/><path class="cls-5" d="M49.36707,8.76058a.23893.23893,0,0,1,.24414-.272.21415.21415,0,0,1,.23046.21045c0,.2041-.2163.22021-.314.35888h.31787v.11719h-.49414c0-.15674.09619-.22119.2124-.30078.05908-.0415.1416-.082.1416-.16455a.09651.09651,0,0,0-.10107-.10352c-.08057,0-.10645.0835-.10645.1543Z"/></g></g></svg>