<svg xmlns="http://www.w3.org/2000/svg" viewBox="0 0 835.46173 588.64474"><defs><style>.cls-1{fill:#bf8f3e;}.cls-2{fill:#242424;}.cls-3{fill:#f7faf8;}.cls-4{fill:#fff;}.cls-11,.cls-12,.cls-14,.cls-15,.cls-16,.cls-17,.cls-5{fill:none;stroke-linecap:round;stroke-miterlimit:10;}.cls-5{stroke:#fff;stroke-width:3.16875px;}.cls-6{fill:#282f35;}.cls-7{fill:#181917;}.cls-8{fill:#55606d;}.cls-9{fill:#313132;}.cls-10{fill:#8bbec9;}.cls-11,.cls-14,.cls-15,.cls-16,.cls-17{stroke:#97999b;}.cls-12{stroke:#f6f22f;}.cls-13{fill:#97999b;}.cls-14{stroke-width:1.3102px;}.cls-15{stroke-width:1.3354px;}.cls-16{stroke-width:1.16201px;}.cls-17{stroke-width:1.13972px;}</style></defs><g id="Layer_2" data-name="Layer 2"><g id="Layer_1-2" data-name="Layer 1"><g id="Layer_2-2" data-name="Layer 2"><g id="_12012" data-name=" 12012"><path class="cls-1" d="M492.5508,588.121h60.99847a45.052,45.052,0,1,0-60.99847,0Zm5.93348-32.70152h0a25.26439,25.26439,0,1,1,0,.01625l0-.01627Z"/><path class="cls-1" d="M551.36283,151.166H499.26061a45.02,45.02,0,1,0,52.10222,0Zm-25.754,11.26491a25.27862,25.27862,0,1,1-1.66672.05846Q524.77424,162.43261,525.60879,162.43086Z"/><path class="cls-2" d="M0,151.166V588.121H492.63793q-1.30716-1.22788-2.51915-2.54294a45.47954,45.47954,0,0,1,2.81047-64.25631q1.03771-.95073,2.13277-1.83593a44.90912,44.90912,0,0,1,58.90709,2.37657,45.49539,45.49539,0,0,1,1.704,64.31759q-.96026,1.01256-1.98129,1.96476h60.25382V151.166H551.36283a45.43989,45.43989,0,0,1-2.66967,75.69356,44.95668,44.95668,0,0,1-58.14662-9.942,45.49538,45.49538,0,0,1,6.49392-64.01159q1.11016-.90562,2.27561-1.74ZM523.24015,305.6426a13.86329,13.86329,0,0,1,27.72658,0V475.17082a13.86329,13.86329,0,0,1-27.72658,0ZM212.47273,184.95276a15.36845,15.36845,0,1,1,0,.0713ZM106.08981,557.93861a15.37666,15.37666,0,1,1,0,.00019ZM57.03753,306.03869a13.86329,13.86329,0,0,1,27.72658,0V475.56692a13.86329,13.86329,0,0,1-27.72658,0ZM37.23283,241.5942a14.94065,14.94065,0,0,1,10.14793,10.62324,15.3843,15.3843,0,0,1-14.74262,19.44822H32.2579a14.67134,14.67134,0,0,1-13.74447-9.33989C13.72862,249.73789,24.81925,237.94222,37.23283,241.5942Z"/><path class="cls-1" d="M8.1833,256.46357h0a24.46277,24.46277,0,1,0,24.46277-24.62912A24.46276,24.46276,0,0,0,8.1833,256.46357Zm24.46277,15.20209h-.38025a14.67134,14.67134,0,0,1-13.74447-9.33989c-4.79273-12.58787,6.33751-24.38355,18.71941-20.73156a14.94067,14.94067,0,0,1,10.14792,10.62324,15.3843,15.3843,0,0,1-14.74261,19.44822Z"/><path class="cls-1" d="M97.2886,558.42188h0a24.46271,24.46271,0,1,0,17.20633-23.59136C104.18857,537.8408,97.2886,547.62433,97.2886,558.42188ZM121.35528,573.315a15.37637,15.37637,0,1,1,15.26506-15.48687l.0004.11053A15.32091,15.32091,0,0,1,121.35546,573.315Z"/><path class="cls-1" d="M226.98562,161.298a23.76564,23.76564,0,0,0-22.56152,15.84376c-6.694,19.4086,9.9578,37.3279,29.05747,32.64607A24.01122,24.01122,0,0,0,250.9097,192.6053a24.66236,24.66236,0,0,0-23.55175-31.331Zm.79219,39.05487a15.313,15.313,0,0,1-15.25755-15.32884.22152.22152,0,0,1,0-.0713,15.28922,15.28922,0,1,1,15.26545,15.40013Z"/><g id="Labels_Top-RAK12012" data-name="Labels Top-RAK12012"><polygon class="cls-3" points="19.409 153.146 163.587 153.146 163.587 166.051 112.887 166.051 91.498 179.4 69.879 166.273 19.409 166.273 19.409 153.146"/><polygon class="cls-4" points="320.313 190.379 320.313 196.321 314.372 196.321 314.372 190.379 296.548 190.379 296.548 196.321 290.606 196.321 290.606 190.379 275.159 190.379 275.159 196.321 269.217 196.321 269.217 230.781 342.891 230.781 342.891 196.321 336.949 196.321 336.949 190.379 320.313 190.379"/><path class="cls-4" d="M249.95114,239.487H253.009l2.66967,11.30452h0l2.94694-11.30453h2.7489L264.266,250.7915h.06336l2.741-11.30453h3.06581l-4.262,15.4556h-2.74889l-3.0816-11.88282h0l-3.16875,11.81153h-2.79642Z"/><path class="cls-4" d="M272.172,243.59844h2.05969v11.34413H272.172Zm0-4.11146h2.05969v2.05176H272.172Z"/><path class="cls-4" d="M278.7868,250.79151c.14259,1.3388,1.12492,1.80619,2.337,1.80619.88724,0,2.37656-.18221,2.29734-1.35464s-1.71906-1.3388-3.3668-1.71905-3.3272-.95062-3.3272-3.05784c0-2.26566,2.43993-2.96278,4.32534-2.96278,2.11515,0,4.04807.86348,4.3095,3.16875h-2.37656c-.21388-1.10114-1.0853-1.37841-2.0993-1.37841-.6496,0-1.90124.15844-1.90124,1.05361,0,1.12491,1.68736,1.30711,3.3668,1.6636s3.3351.95062,3.3351,3.01823c0,2.45579-2.47955,3.35888-4.61844,3.35888-2.61421,0-4.50756-1.16452-4.57885-3.60446Z"/><path class="cls-4" d="M288.62576,239.487h7.26438c2.939,0,4.93534.95062,4.93534,3.82627a3.35093,3.35093,0,0,1-2.0597,3.20836,3.74705,3.74705,0,0,1,2.82812,3.91341c0,3.12915-2.65384,4.468-5.45026,4.468h-7.51785Zm3.08162,12.33437h3.63614c1.315,0,2.51125-.41194,2.51125-1.98047s-.9744-2.131-2.44786-2.131h-3.69953Zm0-6.17115H294.995c1.21205-.14259,2.05969-.68128,2.05969-1.98839s-1.12491-1.76658-2.37656-2.12307h-3.0103Z"/><path class="cls-4" d="M303.0119,239.487h4.11146v12.33437h7.201v3.12122H303.0119Z"/><path class="cls-4" d="M323.1097,238.88492c4.75313,0,7.59708,3.57277,7.59708,8.15954s-2.836,8.01694-7.59708,8.01694-7.59708-3.56484-7.59708-8.01694S318.37243,238.88492,323.1097,238.88492Zm.45946,13.36422c3.08953,0,4.19859-2.6063,4.19859-5.1413s-1.14075-5.30766-4.19859-5.30766-4.19068,2.6063-4.19068,5.30766,1.16452,5.10961,4.19068,5.10961Z"/><path class="cls-4" d="M343.16,244.64413a3.21629,3.21629,0,0,0-3.21628-2.57462c-2.94694,0-4.0164,2.47955-4.0164,5.06209s1.10115,4.90364,4.0164,4.90364c1.9567,0,3.08953-1.3388,3.343-3.30342h3.16875a6.1949,6.1949,0,0,1-6.3375,6.02855h-.12675c-4.54715,0-7.25645-3.39849-7.25645-7.65254s2.7093-7.78721,7.25645-7.78721c3.21628,0,5.96517,1.90125,6.3375,5.30766Z"/><path class="cls-4" d="M349.23607,239.487h3.12122v6.40088l6.02854-6.40088h3.24l-5.46609,6.09193,5.99687,9.36366H358.3304l-4.22238-6.97126-1.75866,1.97255v4.99871h-3.08952Z"/><line class="cls-5" x1="274.88923" y1="343.66762" x2="341.58353" y2="343.66762"/><path class="cls-4" d="M57.14844,205.89029H52.94192v-2.59837H64.44449v2.59837h-4.2382v11.43919H57.11675Z"/><path class="cls-4" d="M66.05263,203.29192h6.3375c3.51732,0,4.8482,2.226,4.8482,4.50755s-1.33088,4.49963-4.8482,4.49963h-3.248v5.03039H66.05263Zm3.08161,6.60684h2.37657c1.418,0,2.70928-.31688,2.70928-2.0993s-1.29127-2.10722-2.70928-2.10722H69.13424Z"/><path class="cls-4" d="M78.52959,208.861c-.103-3.16876,1.68736-5.54532,4.99079-5.54532,2.51123,0,4.71351,1.58438,4.71351,4.30951,0,4.16691-4.42041,4.49962-6.42464,7.32773h6.50386v2.37657H78.21272c0-3.16875,1.96463-4.52339,4.34119-6.1553,1.20413-.83972,2.89149-1.67152,2.89149-3.35888a1.97252,1.97252,0,0,0-2.05969-2.12306c-1.65567,0-2.18644,1.71113-2.18644,3.16875Z"/><path class="cls-4" d="M58.73282,205.89029H54.5263v-2.59837H66.02887v2.59837H61.79066v11.43919H58.70113Z"/><path class="cls-4" d="M67.637,203.29192h6.3375c3.51732,0,4.84819,2.226,4.84819,4.50755s-1.33087,4.49963-4.84819,4.49963h-3.248v5.03039H67.637Zm3.08161,6.60684h2.37656c1.418,0,2.70928-.31688,2.70928-2.0993s-1.29126-2.10722-2.70928-2.10722H70.71862Z"/><path class="cls-4" d="M80.114,208.861c-.103-3.16876,1.68736-5.54532,4.99078-5.54532,2.51124,0,4.71352,1.58438,4.71352,4.30951,0,4.16691-4.42041,4.49962-6.42465,7.32773h6.50387v2.37657H79.7971c0-3.16875,1.96463-4.52339,4.34119-6.1553,1.20412-.83972,2.89149-1.67152,2.89149-3.35888a1.97252,1.97252,0,0,0-2.05969-2.12306c-1.65567,0-2.18644,1.71113-2.18644,3.16875Z"/><path class="cls-4" d="M59.58838,250.82319h4.34911l3.27966,9.6647h.03961l3.10538-9.65678h4.34119v14.03757H71.81184v-9.92611h0l-3.446,9.942H65.98926l-3.43809-9.8469h0v9.84689H59.58838Z"/><path class="cls-4" d="M76.78678,256.39227c-.103-3.16875,1.68736-5.54531,4.99079-5.54531,2.51123,0,4.75312,1.58437,4.75312,4.3095,0,4.16691-4.42041,4.49963-6.42464,7.32774h6.50386v2.37657h-10.14c0-3.16876,1.96463-4.5234,4.3412-6.15531,1.1962-.83972,2.89148-1.67151,2.89148-3.35888a1.98056,1.98056,0,0,0-2.06761-2.12306c-1.64775,0-2.17851,1.71113-2.17851,3.16875Z"/><path class="cls-4" d="M114.24935,514.62178h4.34912l3.27965,9.6647h.03962l3.10537-9.65677h4.34119v14.03757h-2.89148v-9.92612h0l-3.446,9.94988h-2.37656l-3.43809-9.84689h0V528.691h-2.89148Z"/><path class="cls-4" d="M135.1948,520.46022c1.20413.103,2.93109-.13468,2.93109-1.71113a1.8141,1.8141,0,0,0-1.80114-1.827q-.07389-.00054-.14764.005c-1.4101,0-2.13891,1.03776-2.11514,2.45579h-2.65384a4.55424,4.55424,0,0,1,4.75313-4.75313c2.20228,0,4.61846,1.36256,4.61846,3.81835a2.74891,2.74891,0,0,1-1.925,2.81226h0a3.0737,3.0737,0,0,1,2.43994,3.16875c0,2.89148-2.43994,4.52339-5.11754,4.52339-3.08161,0-5.16507-1.84579-5.10961-5.01454h2.65383c.06338,1.49725.79219,2.70929,2.37657,2.70929a2.11513,2.11513,0,0,0,2.23867-1.98392q.00538-.08929.00322-.17876c0-2.07553-1.822-2.04383-3.16875-2.04383Z"/><path class="cls-4" d="M175.24782,183.48721h4.34912l3.27966,9.6647h.03961l3.10537-9.65677h4.34119v14.02965h-2.89148v-9.9182h0l-3.446,9.942H181.6487l-3.43809-9.8469h0v9.82314h-2.89148Z"/><path class="cls-4" d="M199.41747,197.52479H196.629v-8.92h-3.46186v-2.10722c1.94879.06337,3.71537-.62583,4.03224-2.73305h2.21812Z"/><path class="cls-4" d="M95.96565,205.89029H91.75913v-2.59837h11.50258v2.59837H99.0235v11.43919H95.934Z"/><path class="cls-4" d="M104.86985,203.29192h6.3375c3.51732,0,4.84819,2.226,4.84819,4.50755s-1.33087,4.49963-4.84819,4.49963h-3.248v5.03039h-3.08162Zm3.08161,6.60684H110.328c1.418,0,2.70928-.31688,2.70928-2.0993s-1.29127-2.10722-2.70928-2.10722h-2.37656Z"/><path class="cls-4" d="M124.326,217.32948h-2.79642v-8.92h-3.45394v-2.10722c1.94086.06337,3.70743-.62583,4.02432-2.73305h2.226Z"/><path class="cls-4" d="M133.99067,249.46063h-4.20651v-2.59838h11.50257v2.59838h-4.23821v11.4392H133.959Z"/><path class="cls-4" d="M142.89487,246.86225h6.3375c3.51732,0,4.84819,2.22605,4.84819,4.50756s-1.33087,4.49962-4.84819,4.49962h-3.248v5.0304h-3.08161Zm3.08161,6.60685H148.353c1.418,0,2.70929-.31687,2.70929-2.0993s-1.29127-2.10722-2.70929-2.10722h-2.37656Z"/><path class="cls-4" d="M159.12679,252.70068c1.1962.103,2.92318-.13467,2.92318-1.71113a1.81411,1.81411,0,0,0-1.8017-1.82643q-.06964-.00048-.13916.00439c-1.418,0-2.14683,1.03777-2.12306,2.45578h-2.65383a4.55423,4.55423,0,0,1,4.75313-4.75312c2.20228,0,4.61845,1.36256,4.61845,3.81834a2.74889,2.74889,0,0,1-1.925,2.81227v.03961a3.05784,3.05784,0,0,1,2.43994,3.12123c0,2.89148-2.43994,4.52339-5.10961,4.52339-3.08953,0-5.173-1.85371-5.10961-5.01455h2.6459c.05545,1.49724.79218,2.70928,2.41617,2.70928a2.11513,2.11513,0,0,0,2.23868-1.98392q.00539-.08927.00322-.17875c0-2.08345-1.83-2.04384-3.16876-2.04384Z"/><path class="cls-4" d="M207.72753,473.03191h13.01564c4.32534,0,7.0584,3.0103,7.0584,6.6623,0,2.836-1.10906,4.967-3.81835,6.05233v.06336c2.6063.713,3.351,3.16876,3.51732,5.64831.103,1.521,0,4.38873,1.014,5.71167h-5.30766c-.61-1.521-.57038-3.858-.84765-5.783-.3644-2.535-1.34673-3.652-4.0164-3.652h-5.30767v9.435h-5.30767Zm5.30767,10.91635h5.81466c2.37656,0,3.652-1.014,3.652-3.446s-1.25165-3.343-3.652-3.343H213.0352Z"/><path class="cls-4" d="M238.72585,473.03191h5.4344l9.03094,24.138h-5.54532l-1.822-5.379H236.8642l-1.89334,5.379h-5.379Zm-.507,14.81392h6.25037l-3.042-8.85665h-.07129Z"/><path class="cls-4" d="M255.28257,473.03191h5.34727v10.00534l9.435-10.00534h6.62268l-9.435,9.50625,10.346,14.608h-6.6702l-7.26438-10.853-3.03407,3.13708v7.77929h-5.30767Z"/><path class="cls-4" d="M290.60623,497.16988h-4.80066V481.8252h-5.94933v-3.62031c3.351.103,6.393-1.07736,6.93164-4.69766h3.81835Z"/><path class="cls-4" d="M297.40322,482.60155c-.17428-5.41063,2.90734-9.56962,8.57938-9.56962,4.33327,0,8.112,2.77266,8.112,7.407,0,7.1297-7.605,7.73967-11.051,12.60372h11.18569v4.12729H296.86451c0-5.54532,3.37473-7.77929,7.46242-10.58362,2.0676-1.44969,4.97494-2.86772,4.97494-5.77506a3.39849,3.39849,0,0,0-3.549-3.652c-2.844,0-3.755,2.939-3.755,5.44233Z"/><path class="cls-4" d="M324.30591,473.03191c4.75313,0,8.71407,2.97863,8.71407,12.19969,0,9.435-3.96094,12.40566-8.71407,12.40566s-8.6507-2.9707-8.6507-12.40566C315.65521,476.01054,319.60825,473.03191,324.30591,473.03191Zm0,20.65234c3.92135,0,3.92135-5.77505,3.92135-8.45265,0-2.4637,0-8.23875-3.92135-8.23875s-3.85,5.77505-3.85,8.23875C320.45587,487.9092,320.45587,493.68425,324.30591,493.68425Z"/><path class="cls-4" d="M346.97833,497.16988H342.2252V481.8252h-5.94934v-3.62031c3.351.103,6.393-1.07736,6.93165-4.69766h3.77082Z"/><path class="cls-4" d="M353.78322,482.60155c-.17428-5.41063,2.90734-9.56962,8.57939-9.56962,4.33327,0,8.112,2.77266,8.112,7.407,0,7.1297-7.605,7.73967-11.09063,12.60372h11.18569v4.12729H353.24454c0-5.54532,3.37473-7.77929,7.46242-10.58362,2.0676-1.44969,4.97494-2.86772,4.97494-5.77506a3.39849,3.39849,0,0,0-3.549-3.652c-2.84395,0-3.755,2.939-3.755,5.44233Z"/><path class="cls-4" d="M394.272,497.16988h-5.981l-7.84265-24.138h5.474l5.41854,16.96867h0l5.44232-16.96867h5.474Z"/><path class="cls-4" d="M410.93958,473.03191h5.44233l9.023,24.138h-5.54532l-1.822-5.379h-8.99136l-1.86162,5.379h-5.371Zm-.507,14.81392h6.2583l-3.042-8.85665h-.06339Z"/><path class="cls-4" d="M207.72753,512.64131h5.30767v9.26861h9.76767v-9.26861h5.34727v24.138h-5.30767V526.362H213.0352v10.41726h-5.30767Z"/><path class="cls-4" d="M236.8642,529.206c.13469,3.07369,1.58438,4.42833,4.29367,4.42833a3.95832,3.95832,0,0,0,3.78666-2.26565h4.22235c-1.34673,4.159-4.22235,5.878-8.17538,5.878-5.54532,0-8.928-3.78666-8.928-9.18939,0-5.23635,3.6203-9.229,8.928-9.229,5.94933,0,8.85665,5.00663,8.48432,10.37766Zm7.811-3.042c-.44362-2.432-1.48931-3.71536-3.81835-3.71536a3.76289,3.76289,0,0,0-3.956,3.55938q-.00409.07793-.005.156Z"/><path class="cls-4" d="M252.81888,524.67464c.26934-4.46,4.29367-5.84635,8.215-5.84635,3.47771,0,7.66837.79219,7.66837,4.967v9.09433a8.9431,8.9431,0,0,0,.61,3.88964h-4.86405a6.85237,6.85237,0,0,1-.34064-1.69529,7.92185,7.92185,0,0,1-5.878,2.16268c-3.351,0-5.94934-1.65567-5.94934-5.23635.06336-7.92188,11.82736-3.68367,11.62141-7.605,0-2.028-1.418-2.37656-3.10539-2.37656-1.86165,0-3.0103.74466-3.16875,2.638Zm11.09063,3.549c-.79219.713-2.49539.74466-3.96094,1.014s-2.836.79219-2.836,2.56669,1.3784,2.234,2.939,2.234c3.74706,0,3.88172-2.939,3.88172-4.0243Z"/><path class="cls-4" d="M273.09887,519.30361h4.563v3.24h.06337a6.15531,6.15531,0,0,1,5.54531-3.71537,3.85776,3.85776,0,0,1,1.0536.16636v4.49964a8.65773,8.65773,0,0,0-1.727-.17428c-3.549,0-4.75313,2.50332-4.75313,5.61661V536.811h-4.80066Z"/><path class="cls-4" d="M293.00656,519.30361h3.51732V522.512h-3.51732v8.6507c0,1.624.404,2.028,2.028,2.028a6.71735,6.71735,0,0,0,1.48932-.13468v3.755a18.54493,18.54493,0,0,1-2.80436.16636c-2.97863,0-5.54531-.64167-5.54531-4.159V522.51987h-2.90734v-3.20835h2.90734v-5.24426h4.80066Z"/><path class="cls-4" d="M320.14693,512.64131h13.01564c4.32534,0,7.06633,3.0103,7.06633,6.6623,0,2.836-1.117,4.967-3.82626,6.05233v.06336c2.60631.713,3.351,3.16875,3.51732,5.64831.103,1.521,0,4.38872,1.014,5.71166h-5.30767c-.61-1.521-.57038-3.85795-.83972-5.783-.37233-2.535-1.35463-3.652-4.0243-3.652H325.4546v9.435h-5.30767Zm5.30767,10.91635h5.81465c2.37657,0,3.652-1.014,3.652-3.446s-1.25165-3.343-3.652-3.343H325.4546Z"/><path class="cls-4" d="M344.52254,524.67464c.26934-4.46,4.28574-5.84635,8.20706-5.84635,3.48562,0,7.6763.79219,7.6763,4.967v9.09433a8.94325,8.94325,0,0,0,.61,3.88964h-4.87195a7.224,7.224,0,0,1-.33273-1.69529,7.92189,7.92189,0,0,1-5.88595,2.16268c-3.343,0-5.94934-1.65567-5.94934-5.23635.07129-7.92188,11.83529-3.68367,11.62931-7.605,0-2.028-1.418-2.37656-3.11329-2.37656-1.85372,0-3.0024.74466-3.16875,2.638Zm11.09063,3.549c-.79218.713-2.50331.74466-3.96094,1.014s-2.84395.79219-2.84395,2.56669,1.38633,2.234,2.939,2.234c3.755,0,3.88965-2.939,3.88965-4.0243Z"/><path class="cls-4" d="M370.88656,519.30361h3.50938V522.512h-3.50938v8.6507c0,1.624.404,2.028,2.028,2.028a6.59793,6.59793,0,0,0,1.48138-.13468v3.755a18.418,18.418,0,0,1-2.80435.16636c-2.9707,0-5.50571-.64167-5.50571-4.159V522.51987h-2.90734v-3.20835h2.90734v-5.24426h4.80065Z"/><path class="cls-4" d="M381.32759,529.206c.13468,3.07369,1.58438,4.42833,4.29367,4.42833a3.9669,3.9669,0,0,0,3.78666-2.26565h4.22235c-1.35464,4.159-4.22235,5.878-8.18329,5.878-5.50572,0-8.92005-3.78666-8.92005-9.18939,0-5.23635,3.62031-9.229,8.92005-9.229,5.94934,0,8.85665,5.00663,8.48432,10.37766Zm7.811-3.042c-.44362-2.432-1.48932-3.71536-3.82626-3.71536a3.75494,3.75494,0,0,0-3.95542,3.54318q-.00475.086-.00552.17218Z"/></g><circle class="cls-1" cx="76.84223" cy="190.77534" r="8.71407"/><circle class="cls-1" cx="106.15319" cy="190.77534" r="8.71407"/><circle class="cls-1" cx="146.55477" cy="235.13787" r="8.71407"/><rect class="cls-6" x="276.98852" y="347.62856" width="60.3568" height="101.40006"/><rect class="cls-7" x="277.93915" y="348.81684" width="58.47139" height="98.23131"/><rect class="cls-8" x="283.80134" y="355.94654" width="46.73909" height="85.5563" rx="8.41303"/><rect class="cls-9" x="289.34666" y="359.51138" width="35.64846" height="18.61642" rx="4.47586"/><rect class="cls-9" x="289.34666" y="388.82234" width="35.64846" height="48.32347" rx="4.03223"/><circle class="cls-1" cx="316.67714" cy="374.16686" r="1.58438"/><rect class="cls-1" x="303.60604" y="368.22545" width="7.92188" height="7.92188"/><rect class="cls-1" x="308.35917" y="368.22545" width="9.50626" height="3.16875"/><rect class="cls-1" x="315.48886" y="363.47232" width="7.92188" height="7.92188"/><rect class="cls-1" x="290.93103" y="362.68013" width="9.50626" height="9.50626"/><rect class="cls-1" x="296.47635" y="363.47232" width="8.71407" height="3.16875"/><rect class="cls-1" x="292.9115" y="390.80281" width="28.51877" height="45.15471"/><rect class="cls-10" x="294.89197" y="416.94501" width="10.29844" height="6.3375"/><rect class="cls-10" x="294.89197" y="426.84736" width="10.29844" height="6.3375"/><rect class="cls-10" x="309.15136" y="416.94501" width="10.29844" height="6.3375"/><rect class="cls-10" x="309.15136" y="426.84736" width="10.29844" height="6.3375"/><rect class="cls-10" x="297.56957" y="419.71767" width="18.02228" height="11.09063"/><circle class="cls-4" cx="304.79432" cy="399.91297" r="0.79219"/><circle class="cls-4" cx="304.79432" cy="402.09148" r="0.79219"/><circle class="cls-4" cx="304.79432" cy="404.27" r="0.79219"/><circle class="cls-4" cx="304.79432" cy="406.44852" r="0.79219"/><circle class="cls-4" cx="304.79432" cy="408.62704" r="0.79219"/><circle class="cls-4" cx="307.17089" cy="399.91297" r="0.79219"/><circle class="cls-4" cx="307.17089" cy="402.09148" r="0.79219"/><circle class="cls-4" cx="307.17089" cy="404.27" r="0.79219"/><circle class="cls-4" cx="307.17089" cy="406.44852" r="0.79219"/><circle class="cls-4" cx="307.17089" cy="408.62704" r="0.79219"/><circle class="cls-4" cx="309.54745" cy="399.91297" r="0.79219"/><circle class="cls-4" cx="309.54745" cy="402.09148" r="0.79219"/><circle class="cls-4" cx="309.54745" cy="404.27" r="0.79219"/><circle class="cls-4" cx="309.54745" cy="406.44852" r="0.79219"/><circle class="cls-4" cx="309.54745" cy="408.62704" r="0.79219"/></g></g><line class="cls-11" x1="1.46116" y1="138.0694" x2="1.46116" y2="0.5"/><line class="cls-11" x1="615.40683" y1="138.0694" x2="615.40683" y2="0.5"/><polyline class="cls-12" points="553.323 286.378 553.323 108.236 485.579 108.236"/><line class="cls-12" x1="523.70629" y1="286.37813" x2="523.70629" y2="108.23617"/><line class="cls-11" x1="641.9065" y1="151.16595" x2="779.4759" y2="151.16595"/><line class="cls-11" x1="5.90634" y1="31.13827" x2="229.21094" y2="31.13827"/><polygon class="cls-13" points="227.752 36.125 236.387 31.138 227.752 26.152 227.752 36.125"/><line class="cls-11" x1="388.58468" y1="31.1384" x2="613.22265" y2="31.1384"/><polygon class="cls-13" points="390.044 36.125 381.408 31.138 390.044 26.152 390.044 36.125"/><line class="cls-14" x1="738.85522" y1="154.20991" x2="738.85522" y2="325.05515"/><polygon class="cls-13" points="732.322 323.144 738.855 334.457 745.388 323.144 732.322 323.144"/><line class="cls-15" x1="738.85522" y1="411.83488" x2="738.85522" y2="585.96525"/><polygon class="cls-13" points="732.196 413.783 738.855 402.252 745.514 413.783 732.196 413.783"/><line class="cls-11" x1="641.9065" y1="588.14474" x2="779.4759" y2="588.14474"/><line class="cls-12" x1="553.32331" y1="490.55426" x2="673.12187" y2="490.55426"/><line class="cls-11" x1="615.40671" y1="490.55415" x2="673.08107" y2="490.55415"/><line class="cls-12" x1="553.59767" y1="289.94404" x2="673.39623" y2="289.94404"/><line class="cls-11" x1="615.72189" y1="289.94407" x2="673.39624" y2="289.94407"/><line class="cls-16" x1="651.29407" y1="291.77915" x2="651.29407" y2="361.31632"/><polygon class="cls-13" points="645.5 359.621 651.294 369.655 657.088 359.621 645.5 359.621"/><line class="cls-17" x1="651.294" y1="422.29581" x2="651.294" y2="489.03397"/><polygon class="cls-13" points="645.611 423.959 651.294 414.117 656.977 423.959 645.611 423.959"/><polyline class="cls-11" points="553.323 151.166 553.323 108.236 492.755 108.236"/><polygon class="cls-13" points="494.214 103.25 485.579 108.236 494.214 113.222 494.214 103.25"/><line class="cls-11" x1="523.70629" y1="151.16595" x2="523.70629" y2="108.23617"/><path class="cls-13" d="M263.845,27.52616c2.25977.18555,5.52-.25928,5.52-3.22315a3.42223,3.42223,0,0,0-3.668-3.44531c-2.66748,0-4.03809,1.96338-4.001,4.63086h-5.00146c.18506-5.335,3.59375-8.96582,8.96533-8.96582,4.14942,0,8.70654,2.55664,8.70654,7.1875a5.156,5.156,0,0,1-3.63086,5.29785v.07422a5.766,5.766,0,0,1,4.59424,5.89063c0,5.44629-4.59424,8.521-9.63281,8.521-5.81641,0-9.74365-3.48242-9.63232-9.44726h5.00146c.11084,2.81592,1.519,5.11279,4.55713,5.11279a3.98832,3.98832,0,0,0,4.22314-4.0752c0-3.92724-3.44531-3.853-6.00146-3.853Z"/><path class="cls-13" d="M294.52179,21.37626h-10.707l-1.0376,5.89062.07422.07422a6.59375,6.59375,0,0,1,5.07568-2.00049c5.11231,0,8.00244,3.96387,8.00244,8.81739a9.38574,9.38574,0,0,1-9.63281,9.33593c-5.03857,0-9.52148-2.77832-9.63232-8.22461h5.26074a4.13884,4.13884,0,0,0,4.26074,3.89014c2.74121,0,4.48242-2.4082,4.48242-5.00146,0-2.70459-1.667-4.85352-4.48242-4.85352a4.29712,4.29712,0,0,0-3.96436,2.07471h-4.74218l2.55615-14.33741h14.48633Z"/><path class="cls-13" d="M298.74591,23.82157h4.96435v2.59326h.07422a6.86981,6.86981,0,0,1,5.85352-3.1123c2.4082,0,4.55713.85254,5.59424,3.18652a7.00953,7.00953,0,0,1,5.77978-3.18652c4.0752,0,7.002,1.88965,7.002,6.854V42.97538h-5.26075V32.1204c0-2.55664-.22265-4.66846-3.22314-4.66846-2.96387,0-3.52,2.48242-3.52,4.85352V42.97538h-5.26074V32.23124c0-2.22266.14843-4.7793-3.186-4.7793-1.0376,0-3.55664.667-3.55664,4.40918V42.97538h-5.26074Z"/><path class="cls-13" d="M332.3128,23.82157h4.96436v2.59326h.07422a6.87039,6.87039,0,0,1,5.85351-3.1123c2.40821,0,4.55713.85254,5.59424,3.18652a7.00956,7.00956,0,0,1,5.77979-3.18652c4.07519,0,7.002,1.88965,7.002,6.854V42.97538h-5.26074V32.1204c0-2.55664-.22217-4.66846-3.22315-4.66846-2.96386,0-3.51953,2.48242-3.51953,4.85352V42.97538h-5.26123V32.23124c0-2.22266.14844-4.7793-3.186-4.7793-1.03711,0-3.55664.667-3.55664,4.40918V42.97538H332.3128Z"/><path class="cls-13" d="M730.64923,365.52469c-.18555-5.92773,3.18652-10.48486,9.41016-10.48486,4.74218,0,8.89257,3.03809,8.89257,8.11377,0,7.854-8.33593,8.48389-12.11523,13.81885h12.26269V381.493h-19.043c0-6.03907,3.70507-8.52149,8.18847-11.59668,2.25977-1.59327,5.44531-3.14893,5.44531-6.33545a3.72479,3.72479,0,0,0-3.89062-4.001c-3.11133,0-4.11133,3.22315-4.11133,5.96484Z"/><path class="cls-13" d="M768.40314,359.89335h-10.707L756.658,365.784l.07422.07422a6.59269,6.59269,0,0,1,5.07519-2.00049c5.11328,0,8.00293,3.96387,8.00293,8.81787a9.386,9.386,0,0,1-9.63281,9.33594c-5.03809,0-9.52148-2.77832-9.63184-8.22461h5.25977a4.13962,4.13962,0,0,0,4.26172,3.88965c2.74023,0,4.48242-2.4082,4.48242-5.001,0-2.70507-1.668-4.854-4.48242-4.854a4.29639,4.29639,0,0,0-3.96485,2.07471h-4.74218l2.55664-14.33741h14.48633Z"/><path class="cls-13" d="M772.62677,362.33866h4.96387v2.59326h.07421a6.87042,6.87042,0,0,1,5.85352-3.1123c2.4082,0,4.55762.85254,5.59473,3.18652a7.00973,7.00973,0,0,1,5.78027-3.18652c4.07422,0,7.00195,1.88964,7.00195,6.854V381.493H796.6336V370.63749c0-2.55664-.22265-4.66846-3.22265-4.66846-2.96387,0-3.51953,2.48242-3.51953,4.854V381.493H784.6297V370.74882c0-2.22315.14844-4.77979-3.18555-4.77979-1.03711,0-3.55664.667-3.55664,4.40967V381.493h-5.26074Z"/><path class="cls-13" d="M806.19415,362.33866H811.158v2.59326h.07422a6.87039,6.87039,0,0,1,5.85351-3.1123c2.40821,0,4.55762.85254,5.59473,3.18652a7.008,7.008,0,0,1,5.7793-3.18652c4.07519,0,7.00195,1.88964,7.00195,6.854V381.493H830.201V370.63749c0-2.55664-.22168-4.66846-3.22364-4.66846-2.96289,0-3.51953,2.48242-3.51953,4.854V381.493h-5.26074V370.74882c0-2.22315.14844-4.77979-3.18652-4.77979-1.03711,0-3.55664.667-3.55664,4.40967V381.493h-5.25977Z"/><path class="cls-13" d="M368.10577,120.27518H362.845V103.45536h-6.52051V99.491c3.66748.11133,7.002-1.18554,7.59473-5.14941h4.18652Z"/><path class="cls-13" d="M376.40509,114.56962H382.222v5.70556h-5.81689Z"/><path class="cls-13" d="M403.00665,98.67606h-10.707l-1.0376,5.89063.07422.07422a6.59374,6.59374,0,0,1,5.07568-2.00049c5.11231,0,8.00245,3.96386,8.00245,8.81738a9.38575,9.38575,0,0,1-9.63282,9.33594c-5.03857,0-9.52148-2.77832-9.63232-8.22461H390.41a4.13884,4.13884,0,0,0,4.26074,3.89013c2.74121,0,4.48243-2.4082,4.48243-5.00146,0-2.70459-1.667-4.85352-4.48243-4.85352a4.29714,4.29714,0,0,0-3.96435,2.07471h-4.74219l2.55615-14.3374h14.48633Z"/><path class="cls-13" d="M407.23077,101.12137h4.96436v2.59327h.07422a6.86979,6.86979,0,0,1,5.85351-3.11231c2.40821,0,4.55713.85254,5.59424,3.18652a7.00955,7.00955,0,0,1,5.77979-3.18652c4.07519,0,7.00195,1.88965,7.00195,6.854v12.81884H431.2381v-10.855c0-2.55664-.22266-4.66845-3.22315-4.66845-2.96387,0-3.52,2.48242-3.52,4.85351v10.66992h-5.26074V109.531c0-2.22265.14844-4.77929-3.186-4.77929-1.03759,0-3.55664.667-3.55664,4.40918v11.11425h-5.26074Z"/><path class="cls-13" d="M440.79767,101.12137h4.96484v2.59327h.07422a6.86919,6.86919,0,0,1,5.85351-3.11231c2.40821,0,4.55665.85254,5.59375,3.18652a7.00977,7.00977,0,0,1,5.78028-3.18652c4.07519,0,7.00195,1.88965,7.00195,6.854v12.81884h-5.26074v-10.855c0-2.55664-.22266-4.66845-3.22363-4.66845-2.96387,0-3.51953,2.48242-3.51953,4.85351v10.66992h-5.26075V109.531c0-2.22265.14844-4.77929-3.18652-4.77929-1.03711,0-3.55664.667-3.55664,4.40918v11.11425h-5.26074Z"/><path class="cls-13" d="M634.15607,402.25175h-4.01368V389.42167h-4.97363v-3.02344c2.79785.085,5.3418-.9043,5.79395-3.92773h3.19336Z"/><path class="cls-13" d="M646.61407,382.075c3.95606,0,7.291,2.48633,7.291,10.20117,0,7.88477-3.335,10.37109-7.291,10.37109-3.92871,0-7.23437-2.48632-7.23437-10.37109C639.3797,384.56132,642.68536,382.075,646.61407,382.075Zm0,17.26562c3.27735,0,3.27735-4.832,3.27735-7.06445,0-2.0625,0-6.89551-3.27735-6.89551-3.25,0-3.22168,4.833-3.22168,6.89551C643.39239,394.50858,643.39239,399.34061,646.61407,399.34061Z"/><path class="cls-13" d="M656.1336,387.64139h3.78711v1.97852h.05664a5.24038,5.24038,0,0,1,4.46485-2.374,4.28219,4.28219,0,0,1,4.26758,2.43066,5.34621,5.34621,0,0,1,4.4082-2.43066c3.1084,0,5.34082,1.4414,5.34082,5.22851v9.77735h-4.0127v-8.28028c0-1.94922-.16992-3.56054-2.459-3.56054-2.26074,0-2.68457,1.89355-2.68457,3.70214v8.13868h-4.0127v-8.19532c0-1.69531.11329-3.6455-2.43066-3.6455-.791,0-2.71289.50878-2.71289,3.36328v8.47754h-4.0127Z"/><path class="cls-13" d="M681.72931,387.64139h3.78711v1.97852h.05664a5.24037,5.24037,0,0,1,4.46484-2.374,4.28218,4.28218,0,0,1,4.26758,2.43066,5.34624,5.34624,0,0,1,4.4082-2.43066c3.1084,0,5.34082,1.4414,5.34082,5.22851v9.77735h-4.01269v-8.28028c0-1.94922-.16992-3.56054-2.459-3.56054-2.26074,0-2.68457,1.89355-2.68457,3.70214v8.13868h-4.01269v-8.19532c0-1.69531.11328-3.6455-2.43067-3.6455-.791,0-2.71289.50878-2.71289,3.36328v8.47754h-4.01269Z"/></g></g></svg>