<svg xmlns="http://www.w3.org/2000/svg" xmlns:xlink="http://www.w3.org/1999/xlink" viewBox="0 0 893.27707 643.006"><defs><style>.cls-1,.cls-3,.cls-4,.cls-47,.cls-6,.cls-7{fill:none;}.cls-2{fill:#242424;}.cls-3,.cls-4,.cls-6{stroke:#fff;}.cls-3,.cls-4,.cls-47,.cls-6,.cls-7{stroke-miterlimit:10;}.cls-3,.cls-4,.cls-47{stroke-width:3px;}.cls-4{stroke-linecap:round;}.cls-5{fill:#fff;}.cls-7{stroke:#000;}.cls-8{fill:#deaa53;}.cls-9{fill:#f2f3f6;}.cls-10{fill:#ffdb00;}.cls-11{fill:#f7f1e5;}.cls-12{fill:#f3e2c1;}.cls-13{fill:#e9d197;}.cls-14{fill:#283135;}.cls-15{fill:#fff5e6;}.cls-16{fill:#ddd1a2;}.cls-17{fill:#b6c2cc;}.cls-18{fill:#6f7985;}.cls-19{fill:#e4e9ad;}.cls-20{fill:#f3ede6;}.cls-21{fill:#fffffb;}.cls-22{fill:#cbd1cf;}.cls-23{fill:#cfc5b9;}.cls-24{fill:#796d64;}.cls-25{clip-path:url(#clip-path);}.cls-26{fill:#e5e5e5;}.cls-27{fill:#232323;}.cls-28{clip-path:url(#clip-path-3);}.cls-29{clip-path:url(#clip-path-5);}.cls-30{clip-path:url(#clip-path-7);}.cls-31{clip-path:url(#clip-path-9);}.cls-32{clip-path:url(#clip-path-10);}.cls-33{fill:#b9752b;}.cls-34{fill:#313c49;}.cls-35{fill:#e9f5ff;}.cls-36{fill:#242a38;}.cls-37{fill:#1f232d;}.cls-38{fill:#bf8e40;}.cls-39{fill:#7c5e49;}.cls-40{fill:#222630;}.cls-41{fill:#ca9a2c;}.cls-42{fill:#a5a8a6;}.cls-43{fill:#e2b12d;}.cls-44{fill:#fed10d;}.cls-45{fill:#feec4e;}.cls-46{fill:#0f0f0f;}.cls-47{stroke:#ff2400;}.cls-48{fill:#ff2400;}</style><clipPath id="clip-path"><rect class="cls-1" x="312.77707" y="521.506" width="30.9628" height="14.8494"/></clipPath><clipPath id="clip-path-3"><rect class="cls-1" x="263.77708" y="435.506" width="14.8494" height="30.9628"/></clipPath><clipPath id="clip-path-5"><rect class="cls-1" x="355.77707" y="521.506" width="30.9628" height="14.8494"/></clipPath><clipPath id="clip-path-7"><rect class="cls-1" x="345.77708" y="195.506" width="14.8494" height="30.9628"/></clipPath><clipPath id="clip-path-9"><rect class="cls-1" x="262.77708" y="379.506" width="16.95013" height="32.99765"/></clipPath><clipPath id="clip-path-10"><rect class="cls-1" x="262.77779" y="379.506" width="16.94942" height="32.99708"/></clipPath></defs><g id="Layer_2" data-name="Layer 2"><g id="Layer_1-2" data-name="Layer 1"><path class="cls-2" d="M187.77707,399.506v45s-3,10-8,10c0,0-8,1-8,11v159s0,17,20,17H491.43662v-156.5s2.84045-13,18.84045-13h233s20,0,20,18v151.5h130V384.52724l-4.76062-4.76062v-27.2821a32.00818,32.00818,0,0,1,.258-61.04358l.00262-.61585V267.974l4.5-5.48926V1.51082H192.20261s-21.21033,2.42554-21.21033,21.21033V378.506s-.71521,7.5,5.78479,8C176.77707,386.506,187.77707,389.506,187.77707,399.506Zm668.5,177a11.5,11.5,0,1,1,11.5,11.5A11.5,11.5,0,0,1,856.27707,576.506Zm0-53a11.5,11.5,0,1,1,11.5,11.5A11.5,11.5,0,0,1,856.27707,523.506Zm0-56a11.5,11.5,0,1,1,11.5,11.5A11.5,11.5,0,0,1,856.27707,467.506Zm0-53a11.5,11.5,0,1,1,11.5,11.5A11.5,11.5,0,0,1,856.27707,414.506Zm0-203a11.5,11.5,0,1,1,11.5,11.5A11.5,11.5,0,0,1,856.27707,211.506Zm0-56a11.5,11.5,0,1,1,11.5,11.5A11.5,11.5,0,0,1,856.27707,155.506Zm0-53a11.5,11.5,0,1,1,11.5,11.5A11.5,11.5,0,0,1,856.27707,102.506Zm0-56a11.5,11.5,0,1,1,11.5,11.5A11.5,11.5,0,0,1,856.27707,46.506Zm-573,36.5a30,30,0,1,1-30-30A30,30,0,0,1,283.27707,83.006Zm-60.5,473a30,30,0,1,1,30,30A30,30,0,0,1,222.77707,556.006Z"/><g id="Labels"><line class="cls-3" x1="412.77707" y1="641.506" x2="412.77707" y2="1.5"/><rect class="cls-3" x="309.27707" y="517.006" width="38" height="23"/><rect class="cls-3" x="250.27707" y="439.006" width="41" height="23" transform="translate(721.28307 179.72893) rotate(90)"/><rect class="cls-3" x="250.27707" y="385.006" width="41" height="23" transform="translate(667.28307 125.72893) rotate(90)"/><rect class="cls-3" x="352.27707" y="517.006" width="38" height="23"/><polyline class="cls-4" points="400.277 484.357 400.277 500.006 390.277 500.006"/><polyline class="cls-4" points="361.277 484.357 361.277 500.006 371.277 500.006"/><polyline class="cls-4" points="337.277 484.357 337.277 500.006 327.277 500.006"/><polyline class="cls-4" points="298.277 484.357 298.277 500.006 308.277 500.006"/><polyline class="cls-4" points="183.713 473.082 175.288 473.082 175.288 462.4"/><polyline class="cls-4" points="183.713 372.4 175.288 372.4 175.288 383.082"/><line class="cls-4" x1="216.27707" y1="372.006" x2="243.27707" y2="372.006"/><line class="cls-4" x1="238.27707" y1="152.006" x2="275.77707" y2="152.006"/><line class="cls-4" x1="174.27707" y1="152.006" x2="179.27707" y2="152.006"/><line class="cls-4" x1="318.01112" y1="321.503" x2="318.01112" y2="332.96889"/><line class="cls-4" x1="318.27707" y1="171.006" x2="318.27707" y2="186.10174"/><rect class="cls-4" x="342.27707" y="190.006" width="21.69149" height="43"/><line class="cls-4" x1="299.27707" y1="3.006" x2="299.27707" y2="23.006"/><line class="cls-4" x1="299.27707" y1="32.56983" x2="299.27707" y2="45.84643"/><polyline class="cls-4" points="406.352 3.006 406.352 136.485 309.277 136.485 300.277 136.485 300.277 117.006"/><circle class="cls-4" cx="251.77707" cy="84.506" r="58.5"/><circle class="cls-4" cx="251.77707" cy="559.506" r="57.5"/><circle class="cls-4" cx="453.77707" cy="41.506" r="39.5"/><circle class="cls-4" cx="795.27707" cy="42.006" r="39"/><line class="cls-4" x1="831.77707" y1="1.5" x2="831.77707" y2="641.506"/><polyline class="cls-4" points="888.777 606.017 839.277 606.017 839.277 386.006 888.777 386.006"/><line class="cls-4" x1="888.77707" y1="550.18685" x2="839.27707" y2="550.18685"/><path class="cls-5" d="M490.77707,588.1874a39.5,39.5,0,1,0,0,27.6372Zm-37,50.3186a36.5,36.5,0,1,1,36.5-36.5A36.54159,36.54159,0,0,1,453.77707,638.506Z"/><line class="cls-4" x1="190.27707" y1="567.006" x2="173.77707" y2="567.006"/><line class="cls-4" x1="262.02707" y1="637.256" x2="262.02707" y2="620.756"/><line class="cls-4" x1="190.27707" y1="551.006" x2="173.77707" y2="551.006"/><polyline class="cls-4" points="308.277 638.506 308.277 546.006 391.277 546.006 391.277 638.506"/><polyline class="cls-4" points="888.777 239.634 836.777 239.634 836.777 21.006 888.777 21.006"/><line class="cls-4" x1="888.77707" y1="74.44217" x2="836.77707" y2="74.44217"/><polyline class="cls-4" points="739.118 3.006 739.118 79.006 506.096 79.006 506.096 3.006"/><polygon class="cls-5" points="293.777 18.506 286.777 26.407 279.777 34.307 279.777 18.506 279.777 2.705 286.777 10.605 293.777 18.506"/><polygon class="cls-5" points="327.877 459.506 324.427 452.506 320.976 445.506 327.877 445.506 334.777 445.506 331.327 452.506 327.877 459.506"/><polygon class="cls-5" points="393.677 566.006 401.727 556.256 409.777 546.506 409.777 566.006 409.777 585.506 401.727 575.756 393.677 566.006"/><polygon class="cls-5" points="389.877 459.506 386.427 452.506 382.976 445.506 389.877 445.506 396.777 445.506 393.327 452.506 389.877 459.506"/><path class="cls-5" d="M758.80127,94.86041h9.64062a4.91223,4.91223,0,0,1,5.2334,4.93262,4.36626,4.36626,0,0,1-2.83008,4.48145v.05078c1.92872.52539,2.4795,2.35351,2.6045,4.18164.07519,1.12695.02539,3.25488.751,4.23144H770.27a21.40346,21.40346,0,0,1-.626-4.28222c-.27539-1.87793-1.00195-2.70411-2.98047-2.70411h-3.93066v6.98633h-3.93164Zm3.93164,8.08789h4.30664c1.77734,0,2.7041-.752,2.7041-2.55468,0-1.72754-.92676-2.47852-2.7041-2.47852h-4.30664Z"/><path class="cls-5" d="M781.26221,103.37311l-5.75879-8.5127H780.061l3.50488,5.709,3.63086-5.709h4.30664L785.77,103.3985l6.23437,9.33984h-4.68261l-3.90625-6.18457-3.98047,6.18457h-4.43262Z"/><path class="cls-5" d="M801.66943,112.73834h-3.55566V101.37018h-4.40723V98.69147c2.4795.07519,4.73242-.80176,5.13379-3.48047h2.8291Z"/><path class="cls-5" d="M762.75732,132.1651h-5.35839v-3.30469h14.64843v3.30469H766.689v14.57324h-3.93164Z"/><path class="cls-5" d="M778.48291,137.37311l-5.75879-8.5127h4.55762l3.50488,5.709,3.63086-5.709h4.30664l-5.7334,8.53809,6.23438,9.33984h-4.68262l-3.90625-6.18457-3.98047,6.18457h-4.43262Z"/><path class="cls-5" d="M798.89014,146.73834h-3.55567V135.37018h-4.40722v-2.67871c2.47949.07519,4.73242-.80176,5.13379-3.48047h2.8291Z"/><path class="cls-5" d="M771.72217,178.71a6.0146,6.0146,0,0,1-4.90821,2.4541c-5.50878,0-8.78906-4.13183-8.78906-9.29,0-5.3086,3.28028-9.43946,8.78906-9.43946,3.65625,0,7.13672,2.22852,7.53711,6.30957h-3.75586a3.64238,3.64238,0,0,0-3.78125-3.00488c-3.53027,0-4.85742,3.00488-4.85742,6.13477,0,2.97949,1.32715,5.98437,4.85742,5.98437a3.84424,3.84424,0,0,0,4.25684-3.85547h-3.95605V171.0733h7.51171v9.665h-2.5039Z"/><path class="cls-5" d="M777.80615,162.86041h3.90625l7.46192,11.99317h.0498V162.86041h3.68164v17.87793h-3.93164l-7.43652-11.96875h-.05078v11.96875h-3.68067Z"/><path class="cls-5" d="M796.36182,162.86041h7.71289c4.63183,0,8.1123,2.92969,8.1123,8.83887,0,5.18262-2.6543,9.03906-8.1123,9.03906h-7.71289Zm3.93164,14.57227h3.50488c2.2793,0,4.457-1.40137,4.457-5.3584,0-3.60547-1.27637-5.90918-5.15723-5.90918h-2.80468Z"/><path class="cls-5" d="M780.72217,506.71a6.0146,6.0146,0,0,1-4.90821,2.4541c-5.50878,0-8.78906-4.13183-8.78906-9.29,0-5.3086,3.28028-9.43946,8.78906-9.43946,3.65625,0,7.13672,2.22852,7.53711,6.30957h-3.75586a3.64238,3.64238,0,0,0-3.78125-3.00488c-3.53027,0-4.85742,3.00488-4.85742,6.13477,0,2.97949,1.32715,5.98437,4.85742,5.98437a3.84424,3.84424,0,0,0,4.25684-3.85547h-3.95605V499.0733h7.51171v9.665h-2.5039Z"/><path class="cls-5" d="M786.80615,490.86041h3.90625l7.46192,11.99317h.0498V490.86041h3.68164v17.87793h-3.93164l-7.43652-11.96875h-.05078v11.96875h-3.68067Z"/><path class="cls-5" d="M805.36182,490.86041h7.71289c4.63183,0,8.1123,2.92969,8.1123,8.83887,0,5.18262-2.6543,9.03906-8.1123,9.03906h-7.71289Zm3.93164,14.57227h3.50488c2.2793,0,4.457-1.40137,4.457-5.3584,0-3.60547-1.27637-5.90918-5.15723-5.90918h-2.80468Z"/><path class="cls-5" d="M770.481,420.80377c0,2.37891,1.85254,3.30567,3.95605,3.30567,1.37695,0,3.48047-.40137,3.48047-2.22852,0-1.95312-2.7041-2.22851-5.30859-2.95508-2.6543-.65136-5.333-1.77734-5.333-5.083,0-3.68067,3.45508-5.40821,6.68555-5.40821,3.73046,0,7.16113,1.627,7.16113,5.75879h-3.80567c-.126-2.12793-1.62793-2.7041-3.53125-2.7041-1.25195,0-2.7041.52539-2.7041,2.02832,0,1.377.85157,1.57715,5.334,2.7041,1.32715.30078,5.30761,1.17676,5.30761,5.208,0,3.28027-2.55371,5.73437-7.43652,5.73437-3.95605,0-7.6875-1.95312-7.6123-6.36035Z"/><path class="cls-5" d="M784.05225,408.86041h7.71289c4.63183,0,8.1123,2.92969,8.1123,8.83887,0,5.18262-2.6543,9.03906-8.1123,9.03906h-7.71289Zm3.93164,14.57227h3.50488c2.2793,0,4.458-1.40137,4.458-5.3584,0-3.60547-1.27735-5.90918-5.15821-5.90918h-2.80468Z"/><path class="cls-5" d="M807.48975,408.86041H811.521l6.68554,17.87793h-4.08105L812.773,422.7569H806.0874l-1.40234,3.98144h-3.98047Zm-.375,10.9668h4.63183l-2.2539-6.56055h-.04981Z"/><path class="cls-5" d="M770.481,461.80377c0,2.37891,1.85254,3.30567,3.95605,3.30567,1.37695,0,3.48047-.40137,3.48047-2.22852,0-1.95312-2.7041-2.22851-5.30859-2.95508-2.6543-.65136-5.333-1.77734-5.333-5.083,0-3.68067,3.45508-5.40821,6.68555-5.40821,3.73046,0,7.16113,1.627,7.16113,5.75879h-3.80567c-.126-2.12793-1.62793-2.7041-3.53125-2.7041-1.25195,0-2.7041.52539-2.7041,2.02832,0,1.377.85157,1.57715,5.334,2.7041,1.32715.30078,5.30761,1.17676,5.30761,5.208,0,3.28027-2.55371,5.73437-7.43652,5.73437-3.95605,0-7.6875-1.95312-7.6123-6.36035Z"/><path class="cls-5" d="M795.97119,455.8692a3.90192,3.90192,0,0,0-3.90625-3.12988c-3.53027,0-4.85742,3.00488-4.85742,6.13477,0,2.97949,1.32715,5.98437,4.85742,5.98437,2.4043,0,3.75586-1.62695,4.05664-4.00586h3.80567c-.40039,4.48145-3.45508,7.31152-7.86231,7.31152-5.50879,0-8.78906-4.13183-8.78906-9.29,0-5.3086,3.28027-9.43946,8.78906-9.43946,3.90625,0,7.23633,2.30371,7.71289,6.43457Z"/><path class="cls-5" d="M802.60693,449.86041h3.93164v14.57227h8.71387v3.30566H802.60693Z"/><path class="cls-5" d="M776.11475,547.73834h-4.43164l-5.80957-17.87793h4.05664l3.98144,12.56934h.04981l4.03125-12.56934h4.05664Z"/><path class="cls-5" d="M783.57666,529.86041h7.71289c4.63184,0,8.11231,2.92969,8.11231,8.83887,0,5.18262-2.6543,9.03906-8.11231,9.03906h-7.71289Zm3.93164,14.57227h3.50488c2.2793,0,4.457-1.40137,4.457-5.3584,0-3.60547-1.27636-5.90918-5.15722-5.90918H787.5083Z"/><path class="cls-5" d="M802.13135,529.86041h7.71289c4.63183,0,8.1123,2.92969,8.1123,8.83887,0,5.18262-2.65429,9.03906-8.1123,9.03906h-7.71289Zm3.93164,14.57227h3.50488c2.2793,0,4.457-1.40137,4.457-5.3584,0-3.60547-1.27636-5.90918-5.15722-5.90918H806.063Z"/><path class="cls-5" d="M758.80127,197.86041h8.41309c3.40625,0,5.71,1.10157,5.71,4.43164a3.88489,3.88489,0,0,1-2.42969,3.73047,4.33972,4.33972,0,0,1,3.28027,4.53223c0,3.63086-3.08008,5.18359-6.30957,5.18359h-8.66406Zm3.93164,7.23633h3.98145c1.40234,0,2.40332-.626,2.40332-2.1289,0-1.67774-1.30176-2.05274-2.70411-2.05274h-3.68066Zm0,7.58692H766.939c1.52735,0,2.90528-.501,2.90528-2.35352,0-1.82813-1.12695-2.55469-2.83008-2.55469h-4.28125Z"/><path class="cls-5" d="M784.44189,197.43463c5.50879,0,8.78907,4.13086,8.78907,9.43946,0,5.1582-3.28028,9.29-8.78907,9.29s-8.78906-4.13183-8.78906-9.29C775.65283,201.56549,778.93311,197.43463,784.44189,197.43463Zm0,15.42383c3.53125,0,4.85743-3.00488,4.85743-5.98437,0-3.12989-1.32618-6.13477-4.85743-6.13477-3.53027,0-4.85742,3.00488-4.85742,6.13477C779.58447,209.85358,780.91162,212.85846,784.44189,212.85846Z"/><path class="cls-5" d="M803.92334,197.43463c5.50879,0,8.78906,4.13086,8.78906,9.43946,0,5.1582-3.28027,9.29-8.78906,9.29s-8.78906-4.13183-8.78906-9.29C795.13428,201.56549,798.41455,197.43463,803.92334,197.43463Zm0,15.42383c3.53125,0,4.85742-3.00488,4.85742-5.98437,0-3.12989-1.32617-6.13477-4.85742-6.13477-3.53027,0-4.85742,3.00488-4.85742,6.13477C799.06592,209.85358,800.39307,212.85846,803.92334,212.85846Z"/><path class="cls-5" d="M819.34814,201.1651h-5.35839v-3.30469h14.64843v3.30469h-5.35839v14.57324h-3.93165Z"/><polygon class="cls-5" points="535.093 126.883 535.093 134.322 528.12 134.322 528.12 126.883 507.48 126.883 507.48 134.322 500.509 134.322 500.509 126.883 481.965 126.883 481.965 134.322 474.619 134.322 474.619 173.313 560.619 173.313 560.619 134.322 554.078 134.322 554.078 126.883 535.093 126.883"/><path class="cls-5" d="M452.44727,181.20416h3.083L458.66211,194.46h.04883l3.49609-13.25586h3.10742L468.71289,194.46h.04883l3.22851-13.25586h3.083l-4.78222,17.334h-3.083l-3.47168-13.25489h-.04883l-3.54395,13.25489h-3.13183Z"/><path class="cls-5" d="M476.75293,181.20416h2.76758v2.62207h-2.76758Zm0,4.78321h2.76758v12.55078h-2.76758Z"/><path class="cls-5" d="M484.61914,194.50787c.16992,1.627,1.36035,2.18555,2.84082,2.18555,1.06836,0,2.86426-.21875,2.792-1.65137-.07324-1.456-2.08789-1.626-4.10254-2.08789-2.04-.43652-4.03027-1.165-4.03027-3.71386,0-2.74317,2.96191-3.59278,5.24414-3.59278,2.57324,0,4.92774,1.044,5.24317,3.85938h-2.88868c-.26757-1.335-1.31054-1.67481-2.54882-1.67481-.80176,0-2.28223.19434-2.28223,1.28711,0,1.35938,2.03906,1.57715,4.07812,2.01465,2.01563.46094,4.05469,1.18945,4.05469,3.666,0,2.98535-3.01074,4.07812-5.6084,4.07812-3.17968,0-5.48633-1.4082-5.55859-4.37012Z"/><path class="cls-5" d="M498.55762,181.20514h8.15722c3.30176,0,5.53516,1.06836,5.53516,4.29785a3.76775,3.76775,0,0,1-2.35449,3.61719,4.20752,4.20752,0,0,1,3.17969,4.39355c0,3.52051-2.98633,5.02539-6.11719,5.02539h-8.40039Zm3.81152,7.0166h3.86035c1.35938,0,2.33008-.60742,2.33008-2.06348,0-1.627-1.26172-1.99121-2.62109-1.99121h-3.56934Zm0,7.35547h4.0791c1.48047,0,2.81543-.48535,2.81543-2.28223,0-1.77148-1.09179-2.47558-2.74316-2.47558h-4.15137Z"/><path class="cls-5" d="M515.65137,181.20514h3.81152V195.335h8.44824v3.2041H515.65137Z"/><path class="cls-5" d="M537.81934,180.793c5.34082,0,8.52148,4.00586,8.52148,9.15234,0,5.001-3.18066,9.00684-8.52148,9.00684s-8.52051-4.00586-8.52051-9.00684C529.29883,184.79889,532.47852,180.793,537.81934,180.793Zm0,14.9541c3.42285,0,4.71-2.91308,4.71-5.80176,0-3.03515-1.28711-5.94824-4.71-5.94824s-4.709,2.91309-4.709,5.94824C533.11035,192.83405,534.39648,195.74713,537.81934,195.74713Z"/><path class="cls-5" d="M560.49707,187.03229a3.78333,3.78333,0,0,0-3.78711-3.03516c-3.42285,0-4.709,2.91309-4.709,5.94824,0,2.88868,1.28613,5.80176,4.709,5.80176,2.33106,0,3.6416-1.57812,3.93359-3.88379H564.333c-.38867,4.34571-3.34961,7.08887-7.623,7.08887-5.34082,0-8.52051-4.00586-8.52051-9.00684,0-5.14648,3.17969-9.15234,8.52051-9.15234,3.78711,0,7.0166,2.2334,7.47754,6.23926Z"/><path class="cls-5" d="M566.93359,181.20514h3.81153v7.18652l6.77343-7.18652h4.75782l-6.77246,6.84668,7.42871,10.4873h-4.78321l-5.21875-7.793-2.18554,2.209v5.584h-3.81153Z"/><path class="cls-5" d="M499.59514,231.42983l61.77725,126.96842H437.81908Zm0-6.92383L432.975,361.42831H566.21415Z"/><rect class="cls-5" x="508.59259" y="262.54842" width="3.02903" height="87.70978" transform="translate(-7.8451 599.35) rotate(-60.48366)"/><rect class="cls-5" x="509.71059" y="266.22289" width="3.02759" height="97.03139" transform="translate(-14.53658 604.54223) rotate(-60.4827)"/><path class="cls-5" d="M481.98256,290.42759l-2.67893-1.41378a161.14355,161.14355,0,0,1,8.83618-14.80618c4.09157-5.72772,26.41026-10.5964,28.9429-11.13594l.62615,2.96452c-9.11591,1.9346-24.53769,6.33981-27.10662,9.93281a160.98865,160.98865,0,0,0-8.61968,14.45857"/><path class="cls-5" d="M520.36439,313.08954l-1.52146-2.62158c3.12486-1.81172,6.06128-5.91733,5.63293-10.25818-.54071-5.45034,2.16164-13.6089,2.27751-13.95182l2.872.962c-.02457.07724-2.6134,7.88585-2.13473,12.69134.584,5.87635-3.28869,10.951-7.1263,13.1782"/><path class="cls-5" d="M488.02979,329.26305a9.42152,9.42152,0,0,1-1.16449-.0749c-6.3-.78647-14.29005-20.59475-14.37081-20.79371-2.92589-7.32059,3.63864-13.61241,3.92186-13.87809l2.07739,2.205c-.05267.04914-5.34034,5.15893-3.18571,10.54842,3.46308,8.656,9.29848,18.58292,11.933,18.91412,1.40794.17322,2.2342-.10533,2.42965-.45644.23876-.426-.04446-1.55072-1.223-3.02654-3.13069-3.91484-6.8419-12.64453-6.50834-15.31294.28556-2.27751,2.8662-6.54814,3.38-7.3826l2.57828,1.59168c-1.13758,1.84215-2.80416,4.96934-2.9528,6.16426-.17438,1.44072,2.85216,9.27858,5.86934,13.04479,2.6017,3.25477,2.05748,5.40822,1.50039,6.39951-.74669,1.333-2.27751,2.05748-4.28468,2.05748"/><path class="cls-5" d="M499.87509,335.2795a3.8938,3.8938,0,0,1-1.841-.426c-1.09545-.5758-2.31613-1.96267-1.91821-5.28765.81925-6.80563,9.60043-17.57524,9.97377-18.03168l2.34305,1.92289c-2.38869,2.91067-8.71564,11.54907-9.30784,16.47041-.16151,1.3506.04331,2.09963.31951,2.24475.76892.40261,3.36477-.61091,5.55217-2.5303,2.51509-2.21315,7.89639-10.14114,9.75843-13.01085l2.54084,1.649c-.28323.43654-6.95426,10.69471-10.29913,13.63582-1.61159,1.41613-4.57493,3.36359-7.12162,3.36359"/><path class="cls-5" d="M498.92417,324.36054c-4.08922,0-11.02007-4.129-12.47833-5.02668l1.58817-2.57828c4.912,3.02186,10.33424,5.16946,11.36065,4.50586a2.56384,2.56384,0,0,0,.261-2.14993c-.55122-1.77193-2.858-3.67843-6.32928-5.235-2.71171-1.21248-4.37713-2.79949-4.95412-4.70834-.81456-2.70821.76541-5.20224,1.61158-6.54l2.55841,1.61861c-.8134,1.2909-1.65372,2.7714-1.2675,4.04593.31014,1.03341,1.41847,1.98024,3.29221,2.81938,4.39,1.96737,7.1497,4.42278,7.98066,7.09937a5.55047,5.55047,0,0,1-.60157,4.665,3.037,3.037,0,0,1-1.95683,1.37165,4.6186,4.6186,0,0,1-1.065.11235"/><rect class="cls-5" x="493.81954" y="238.32263" width="12.17521" height="3.02888"/><rect class="cls-5" x="490.21602" y="245.72865" width="18.75847" height="3.03006"/><rect class="cls-5" x="486.61132" y="253.13817" width="25.9667" height="3.02888"/><rect class="cls-5" x="483.0078" y="260.54536" width="33.17374" height="3.02888"/><rect class="cls-5" x="480.02573" y="267.95488" width="19.6573" height="3.02888"/><rect class="cls-5" x="475.79841" y="275.36208" width="12.34843" height="3.02888"/><rect class="cls-5" x="472.86432" y="282.76925" width="10.48873" height="3.02888"/><rect class="cls-5" x="464.98666" y="297.58597" width="9.84504" height="3.02888"/><rect class="cls-5" x="526.33672" y="297.58597" width="7.8683" height="3.02888"/><rect class="cls-5" x="461.38079" y="304.99548" width="12.52164" height="3.02888"/><rect class="cls-5" x="524.99666" y="304.99548" width="12.52047" height="3.02888"/><rect class="cls-5" x="458.46543" y="312.40502" width="18.16509" height="3.02888"/><rect class="cls-5" x="523.3804" y="312.40502" width="18.03402" height="3.02888"/><rect class="cls-5" x="454.11405" y="319.81102" width="26.6139" height="3.02888"/><rect class="cls-5" x="513.4277" y="319.81102" width="9.5267" height="3.02888"/><rect class="cls-6" x="536.46615" y="319.81102" width="8.09769" height="3.02888"/><rect class="cls-5" x="450.56787" y="327.22171" width="46.98512" height="3.02888"/><rect class="cls-5" x="507.92" y="327.22171" width="28.56722" height="3.02888"/><rect class="cls-5" x="448.11714" y="334.62891" width="100.55348" height="3.02888"/><rect class="cls-5" x="443.35613" y="342.03491" width="112.4759" height="3.02888"/><rect class="cls-5" x="439.42023" y="349.44444" width="119.88894" height="3.02888"/><path class="cls-5" d="M656.12024,297.564c.74468,7.73991,1.50225,15.57362,2.2481,23.44135L643.76807,335.4907l2.10852,2.45331,12.89633-12.79312c.0903.98273.18059,1.95842.28028,2.94937a13.53083,13.53083,0,0,0-8.82467,12.53161c0,7.47252,6.34438,13.53076,14.16989,13.53076a14.164,14.164,0,0,0,13.25635-8.75665H706.181v9.69013h8.34736V345.406a2.0004,2.0004,0,0,0,2.03231-1.76846c.71067-7.54171,1.43071-15.101,2.1496-22.624l15.1831,15.06585,2.07336-2.4803-16.86009-16.74281q.92879-9.71711,1.85171-19.2923c1.22782-12.68055,2.47677-25.4338,3.73392-38.1296l10.07594-9.95984-2.2047-2.35364-7.367,7.2509c.33188-3.33168.65908-6.64577.98978-9.961h5.98317v-5.99609h-5.37922c.0469-.45735.09029-.90063.13368-1.358a1.87393,1.87393,0,0,0-.57345-1.54565,30.30459,30.30459,0,0,0-8.81646-5.40855v-4.35075h-9.52711v1.76375a90.3663,90.3663,0,0,0-11.64974-1.48113V223.506H674.48961v3.13349a72.33262,72.33262,0,0,0-14.43727,3.27422,31.66281,31.66281,0,0,0-6.91782,3.67176,5.86923,5.86923,0,0,0-4.66741-2.24926,5.6881,5.6881,0,0,0-5.81079,5.55632,5.56188,5.56188,0,0,0,3.78553,5.20683v2.31142h4.45395c.15011,1.57143.31429,3.13349.46557,4.71666a1.19946,1.19946,0,0,1,.02112.2146l-.2111-.2146-4.72954-4.71666-4.48446-4.41175-2.28562,2.28444,6.93426,6.844h-4.17017v14.49824H652.8038c1.11057,11.30963,2.227,22.66032,3.31644,33.93831m-7.65313-63.14354a2.6316,2.6316,0,0,1,2.20471,1.168,1.84754,1.84754,0,0,0-.51716,1.46826c.0469.45735.09029.90063.13719,1.358h-3.85a2.34124,2.34124,0,0,1-.55939-1.52216,2.53433,2.53433,0,0,1,2.58465-2.47208m3.41494,19.97246c.20289,1.96548.40107,3.93915.59457,5.9093h-6.31388v-7.8513h3.76792l1.95139,1.942m40.753-27.56461v2.84147H678.22354V226.8283Zm15.37192,11.58639H654.394c-.027-.25565-.05277-.51481-.08326-.774a27.71089,27.71089,0,0,1,7.14534-4.07166,68.04186,68.04186,0,0,1,13.03353-2.98924v2.42166h21.86758v-3.0467a85.38259,85.38259,0,0,1,11.64974,1.55384Zm5.79318-9.336v6.0125h-2.06278v-6.0125Zm8.96658,8.562c-.02464.25918-.05161.51834-.07623.774H717.534V234.3794a28.57907,28.57907,0,0,1,5.23265,3.2613m-.6708,6.77008q-.73,7.2245-1.43892,14.48886L690.8173,288.65489l-13.89782-13.85561h20.41928v-9.50014h-28.966v.97922L657.1452,255.079v-5.95151h-1.67934c-.16417-1.575-.31545-3.14523-.47847-4.71666h67.1085m-28.49106,24.22355v2.84149H673.59014l-1.4823-1.47527v-1.36622Zm23.296,28.56728q-.767,7.91407-1.53274,15.936L693.0994,290.93348,720.16208,263.954c-1.09882,11.07979-2.18828,22.19243-3.2613,33.24758m-7.44555,55.28286v-4.726h1.80362v4.726Zm-30.89043-11.8526c0-7.47254-6.3397-13.52724-14.16638-13.52724a13.28964,13.28964,0,0,0-1.33573.05745q-.2779-2.87431-.54647-5.74512l28.30108-28.20843,24.15436,24.08284c-.77516,8.0495-1.54212,16.14239-2.30437,24.21651H678.52962c.02578-.292.03518-.584.03518-.876m-21.55329,0a6.9014,6.9014,0,0,1,2.71013-5.45429,7.47382,7.47382,0,0,1,3.94853-1.562,6.0197,6.0197,0,0,1,.72825-.03753,7.22342,7.22342,0,0,1,7.38223,7.05387,7.35481,7.35481,0,0,1-.05161.876,6.94163,6.94163,0,0,1-1.89861,3.8981,7.50994,7.50994,0,0,1-5.432,2.27505,7.22818,7.22818,0,0,1-7.38691-7.04916m3.17453-43.43026c-1.07656-11.15836-2.17421-22.38121-3.28243-33.57593h.24159v-3.98606l11.22754,11.1912v3.96846h3.97667l16.1811,16.1342-26.41068,26.33325q-.96924-10.097-1.93379-20.06512"/><path class="cls-5" d="M663.90107,336.04457a4.802,4.802,0,0,0-3.8594,2.59169,4.41073,4.41073,0,0,0,.45267,4.70844,4.85408,4.85408,0,0,0,3.90163,1.90918,4.78823,4.78823,0,0,0,4.75066-3.74682,3.93887,3.93887,0,0,0,.09029-.876,4.72754,4.72754,0,0,0-4.841-4.61112c-.17123,0-.33072.0094-.4949.02464m.4949,5.6595a1.10017,1.10017,0,0,1-1.12347-1.073,1.0754,1.0754,0,0,1,.95927-1.05662.53778.53778,0,0,1,.1642-.01759,1.10144,1.10144,0,0,1,1.12463,1.07421,1.0613,1.0613,0,0,1-.47847.876,1.10178,1.10178,0,0,1-.64616.197"/><path class="cls-5" d="M377.25732,370.53229V359.11823a5.81615,5.81615,0,0,1,5.84082-6.19629c2.49024,0,4.3584.97851,5.30762,3.34961h.0586c.623-2.28223,2.7871-2.93457,4.95117-3.083,1.334-.08887,3.85449-.0293,5.01074-.88965v4.65527c-1.334.53321-3.37988.50391-5.06934.74121-2.22363.32618-3.20214,1.18555-3.20214,3.52735V365.878h8.27148v4.6543Zm9.57618-4.6543v-5.09961c0-2.10547-.88868-3.20215-3.02344-3.20215-2.0459,0-2.93555,1.09668-2.93555,3.20215V365.878Z"/><path class="cls-5" d="M377.25732,343.35065v-4.77344l21.16895-7.916v4.833l-4.71387,1.60059v7.916l4.71387,1.66016v4.71484Zm12.98633.44531v-5.48535l-7.76758,2.668v.05957Z"/><path class="cls-5" d="M377.25732,328.82819v-4.6543h8.77637l-8.77637-8.27148v-5.81153l8.36133,8.27149,12.80762-9.07227v5.84082l-9.5166,6.374,2.69726,2.66895h6.81934v4.6543Z"/><path class="cls-5" d="M398.42627,297.85162v4.21h-13.46v5.21777h-3.17285c.08886-2.93457-.94825-5.60352-4.1211-6.07715v-3.35059Z"/><path class="cls-5" d="M393.08936,288.01276a2.97343,2.97343,0,0,0,2.58007-2.78711c0-3.084-4.03222-3.8252-6.31543-3.97266l-.05957.0586a5.21782,5.21782,0,0,1,2.3125,4.68457,6.62721,6.62721,0,0,1-2.13476,4.77343,7.0841,7.0841,0,0,1-4.625,1.60059c-4.23926,0-7.58985-2.90527-7.58985-7.26367,0-6.28516,5.48536-7.97461,10.73243-7.97461,5.09961,0,10.85156,2.25293,10.85156,8.15332,0,3.58691-2.0752,6.25488-5.752,6.72949Zm-8.50879-6.375c-1.92676,0-3.8545,1.21582-3.8545,3.35058,0,2.01563,1.89747,3.17188,3.79493,3.17188,1.957,0,3.91406-1.00781,3.91406-3.17188C388.43506,282.73541,386.62646,281.63776,384.58057,281.63776Z"/><path class="cls-5" d="M377.25732,268.29987c0-4.15039,2.60938-7.64844,10.70313-7.64844,8.27148,0,10.88086,3.498,10.88086,7.64844,0,4.12109-2.60938,7.58984-10.88086,7.58984C379.8667,275.88971,377.25732,272.421,377.25732,268.29987Zm18.11524,0c0-3.43848-5.06934-3.43848-7.41211-3.43848-2.16406,0-7.23438,0-7.23438,3.43848,0,3.41015,5.07032,3.37988,7.23438,3.37988C390.30322,271.67975,395.37256,271.67975,395.37256,268.29987Z"/><path class="cls-5" d="M377.25732,251.8194c0-4.15039,2.60938-7.64844,10.70313-7.64844,8.27148,0,10.88086,3.498,10.88086,7.64844,0,4.12109-2.60938,7.58984-10.88086,7.58984C379.8667,259.40924,377.25732,255.94049,377.25732,251.8194Zm18.11524,0c0-3.43848-5.06934-3.43848-7.41211-3.43848-2.16406,0-7.23438,0-7.23438,3.43848,0,3.41015,5.07032,3.37988,7.23438,3.37988C390.30322,255.19928,395.37256,255.19928,395.37256,251.8194Z"/><path class="cls-5" d="M386.063,236.79205c.14844-1.80859-.207-4.417-2.5791-4.417a2.73842,2.73842,0,0,0-2.75782,2.93457c0,2.13477,1.57227,3.23145,3.70606,3.20215v4.002c-4.26856-.14746-7.17481-2.875-7.17481-7.1748,0-3.32031,2.0459-6.9668,5.752-6.9668a4.12752,4.12752,0,0,1,4.24023,2.90528h.0586a4.61446,4.61446,0,0,1,4.71386-3.67579c4.3584,0,6.81934,3.67579,6.81934,7.708,0,4.65528-2.78711,7.79785-7.56055,7.709v-4.00293c2.25391-.08887,4.0918-1.21582,4.0918-3.64649a3.1917,3.1917,0,0,0-3.26172-3.37988c-3.14258,0-3.083,2.75684-3.083,4.80273Z"/><path class="cls-5" d="M398.42627,206.94244v5.24707l-21.16895,6.87891v-4.80273l14.88379-4.71387v-.05957l-14.88379-4.77344v-4.80273Z"/><path class="cls-5" d="M391.78467,195.088c2.69824-.11914,3.88476-1.39355,3.88476-3.76562a3.46542,3.46542,0,0,0-1.98632-3.32032V184.296c3.64648,1.18555,5.1582,3.70605,5.1582,7.1748,0,4.832-3.32031,7.82715-8.06445,7.82715-4.59473,0-8.09375-3.17285-8.09375-7.82715,0-5.21875,4.38769-7.76757,9.10156-7.4414Zm-2.668-6.84863c-2.13477.38477-3.26074,1.30371-3.26074,3.34961a3.29885,3.29885,0,0,0,3.26074,3.499Z"/><path class="cls-5" d="M383.09814,181.543V177.5401h2.84668v-.05957a5.38543,5.38543,0,0,1-3.26171-4.8916,3.143,3.143,0,0,1,.14843-.91895h3.91309a7.69281,7.69281,0,0,0-.14746,1.51172c0,3.11328,2.19336,4.15137,4.9209,4.15137h6.9082v4.21Z"/><path class="cls-5" d="M393.86084,169.83405v-4.6543h4.56543v4.6543Z"/><path class="cls-5" d="M377.25732,161.32721V151.3653c0-4.03125,1.30469-6.75879,5.24805-6.75879a4.60221,4.60221,0,0,1,4.418,2.875,5.13944,5.13944,0,0,1,5.36621-3.88379c4.29883,0,6.13672,3.64648,6.13672,7.47168v10.25781Zm8.56836-4.6543v-4.71386c0-1.66016-.74121-2.84668-2.51953-2.84668-1.98633,0-2.43164,1.542-2.43164,3.20214v4.3584Zm8.9834,0v-4.98144c0-1.8086-.59277-3.43848-2.78711-3.43848-2.16406,0-3.02343,1.334-3.02343,3.34961v5.07031Z"/></g><circle class="cls-7" cx="252.77707" cy="556.006" r="30"/><circle class="cls-7" cx="867.77707" cy="46.506" r="11.5"/><circle class="cls-7" cx="867.77707" cy="576.506" r="11.5"/><path class="cls-8" d="M850.27707,560.006v34h34v-34Zm6,16.5a11.5,11.5,0,1,1,11.5,11.5A11.5,11.5,0,0,1,856.27707,576.506Z"/><path class="cls-8" d="M850.27707,523.506a17.5,17.5,0,1,0,17.5-17.5A17.5,17.5,0,0,0,850.27707,523.506Zm6,0a11.5,11.5,0,1,1,11.5,11.5A11.5,11.5,0,0,1,856.27707,523.506Z"/><path class="cls-8" d="M850.27707,467.506a17.5,17.5,0,1,0,17.5-17.5A17.5,17.5,0,0,0,850.27707,467.506Zm6,0a11.5,11.5,0,1,1,11.5,11.5A11.5,11.5,0,0,1,856.27707,467.506Z"/><path class="cls-8" d="M850.27707,414.506a17.5,17.5,0,1,0,17.5-17.5A17.5,17.5,0,0,0,850.27707,414.506Zm6,0a11.5,11.5,0,1,1,11.5,11.5A11.5,11.5,0,0,1,856.27707,414.506Z"/><path class="cls-8" d="M850.27707,211.506a17.5,17.5,0,1,0,17.5-17.5A17.5,17.5,0,0,0,850.27707,211.506Zm6,0a11.5,11.5,0,1,1,11.5,11.5A11.5,11.5,0,0,1,856.27707,211.506Z"/><path class="cls-8" d="M850.27707,155.506a17.5,17.5,0,1,0,17.5-17.5A17.5,17.5,0,0,0,850.27707,155.506Zm6,0a11.5,11.5,0,1,1,11.5,11.5A11.5,11.5,0,0,1,856.27707,155.506Z"/><path class="cls-8" d="M850.27707,102.506a17.5,17.5,0,1,0,17.5-17.5A17.5,17.5,0,0,0,850.27707,102.506Zm6,0a11.5,11.5,0,1,1,11.5,11.5A11.5,11.5,0,0,1,856.27707,102.506Z"/><path class="cls-8" d="M850.27707,30.006v34h34v-34Zm6,16.5a11.5,11.5,0,1,1,11.5,11.5A11.5,11.5,0,0,1,856.27707,46.506Z"/><path class="cls-8" d="M197.27707,83.006a56,56,0,1,0,56-56A56,56,0,0,0,197.27707,83.006Zm26,0a30,30,0,1,1,30,30A30,30,0,0,1,223.27707,83.006Z"/><path class="cls-8" d="M197.27707,556.006a56,56,0,1,0,56-56A56,56,0,0,0,197.27707,556.006Zm25.5,0a30,30,0,1,1,30,30A30,30,0,0,1,222.77707,556.006Z"/><path class="cls-8" d="M456.77707,566.506a36.00753,36.00753,0,0,1,34,24.167v23.666a36.00012,36.00012,0,1,1-34-47.833Z"/><path class="cls-8" d="M888.77707,267.506v25.73633a31.06008,31.06008,0,0,0,0,59.05664v26.98877a57.76676,57.76676,0,0,1-43.75-56.03174C845.02707,295.92934,863.28055,273.503,888.77707,267.506Z"/><circle class="cls-9" cx="456.77707" cy="602.506" r="25"/><circle class="cls-10" cx="457.27707" cy="603.006" r="9"/><circle class="cls-9" cx="373.77707" cy="413.506" r="36"/><circle class="cls-8" cx="373.77707" cy="413.506" r="25"/><circle class="cls-10" cx="374.27707" cy="414.006" r="9"/><circle class="cls-9" cx="643.77707" cy="413.506" r="36"/><circle class="cls-8" cx="643.77707" cy="413.506" r="25"/><circle class="cls-10" cx="644.27707" cy="414.006" r="9"/><path class="cls-8" d="M762.77707,588.11489a36,36,0,1,1,0,28.78222Z"/><circle class="cls-9" cx="795.77707" cy="602.506" r="25"/><circle class="cls-10" cx="796.27707" cy="603.006" r="9"/><circle class="cls-9" cx="643.77707" cy="174.506" r="36"/><circle class="cls-8" cx="643.77707" cy="174.506" r="25"/><circle class="cls-10" cx="644.27707" cy="175.006" r="9"/><circle class="cls-8" cx="456.77707" cy="42.506" r="36"/><circle class="cls-9" cx="456.77707" cy="42.506" r="25"/><circle class="cls-10" cx="457.27707" cy="43.006" r="9"/><circle class="cls-8" cx="800.77707" cy="42.506" r="36"/><circle class="cls-9" cx="800.77707" cy="42.506" r="25"/><circle class="cls-10" cx="801.27707" cy="43.006" r="9"/><path class="cls-11" d="M318.25268,548.506h63.04879a5.3704,5.3704,0,0,1,5.4756,5.226v80.83411a5.37009,5.37009,0,0,1-5.4756,5.22421H318.25268a5.3701,5.3701,0,0,1-5.47561-5.22421V553.732a5.37041,5.37041,0,0,1,5.47561-5.226"/><path class="cls-12" d="M323.9288,556.03805h50.83232a4.04378,4.04378,0,0,1,4.12334,3.934v68.90314a4.04233,4.04233,0,0,1-4.12334,3.93228H323.9288a4.04114,4.04114,0,0,1-4.12335-3.93228V559.97209a4.04259,4.04259,0,0,1,4.12335-3.934"/><rect class="cls-13" x="348.02989" y="556.03769" width="5.50148" height="76.79946"/><path class="cls-5" d="M335.1173,609.09823a4.66768,4.66768,0,1,1,4.66349,4.4494,4.5598,4.5598,0,0,1-4.66349-4.4494"/><path class="cls-5" d="M335.1173,578.59959a4.66776,4.66776,0,1,1,4.66349,4.44764,4.5598,4.5598,0,0,1-4.66349-4.44764"/><rect class="cls-12" x="331.28496" y="628.65249" width="14.35123" height="11.13852"/><rect class="cls-12" x="331.28496" y="548.50671" width="14.35123" height="11.13852"/><path class="cls-11" d="M309.21148,6.506h86.13119a7.33653,7.33653,0,0,1,7.48024,7.13923V124.073a7.33612,7.33612,0,0,1-7.48024,7.13682H309.21148a7.33611,7.33611,0,0,1-7.48024-7.13682V13.64523A7.33652,7.33652,0,0,1,309.21148,6.506"/><path class="cls-12" d="M316.96565,16.79556h69.44222a5.52422,5.52422,0,0,1,5.6329,5.37431v94.12882a5.52223,5.52223,0,0,1-5.6329,5.3719H316.96565a5.52062,5.52062,0,0,1-5.63292-5.3719V22.16987a5.52261,5.52261,0,0,1,5.63292-5.37431"/><rect class="cls-13" x="349.89024" y="16.79507" width="7.5156" height="104.91602"/><path class="cls-5" d="M332.25031,89.28125a6.37653,6.37653,0,1,1,6.37081,6.07835,6.22915,6.22915,0,0,1-6.37081-6.07835"/><path class="cls-5" d="M332.25031,47.617a6.37664,6.37664,0,1,1,6.37081,6.07593,6.22916,6.22916,0,0,1-6.37081-6.07593"/><rect class="cls-12" x="327.01493" y="115.99441" width="19.60526" height="15.21637"/><rect class="cls-12" x="327.01493" y="6.50697" width="19.60526" height="15.21637"/><rect class="cls-14" x="267.77707" y="155.506" width="45" height="193" rx="14.62018"/><rect class="cls-8" x="294.77707" y="188.506" width="31" height="9" rx="3.2621"/><rect class="cls-15" x="317.77707" y="189.506" width="7" height="7" rx="1.4"/><rect class="cls-8" x="294.77707" y="199.506" width="31" height="9" rx="3.2621"/><rect class="cls-15" x="317.77707" y="200.506" width="7" height="7" rx="1.4"/><rect class="cls-8" x="294.77707" y="210.506" width="31" height="9" rx="3.2621"/><rect class="cls-15" x="317.77707" y="211.506" width="7" height="7" rx="1.4"/><rect class="cls-8" x="294.77707" y="221.506" width="31" height="9" rx="3.2621"/><rect class="cls-15" x="317.77707" y="222.506" width="7" height="7" rx="1.4"/><rect class="cls-8" x="294.77707" y="243.506" width="31" height="9" rx="3.2621"/><rect class="cls-15" x="317.77707" y="244.506" width="7" height="7" rx="1.4"/><rect class="cls-8" x="294.77707" y="232.506" width="31" height="9" rx="3.2621"/><rect class="cls-15" x="317.77707" y="233.506" width="7" height="7" rx="1.4"/><path class="cls-16" d="M194.3863,395.2499a5.65463,5.65463,0,1,1,5.65463-5.65462,5.65475,5.65475,0,0,1-5.65463,5.65462"/><path class="cls-16" d="M194.3863,466.81476a5.65463,5.65463,0,1,1,5.65463-5.65463,5.65477,5.65477,0,0,1-5.65463,5.65463"/><rect class="cls-17" x="186.87406" y="372.47681" width="27.57226" height="22.77098"/><rect class="cls-17" x="186.87406" y="458.06207" width="27.57226" height="22.77099"/><rect class="cls-17" x="226.21819" y="384.86898" width="25.55888" height="13.47684"/><rect class="cls-17" x="226.21819" y="453.3379" width="25.55888" height="13.47685"/><path class="cls-18" d="M172.77707,444.04342V409.0362q15.41313-1.08552,30.82626-2.16931v38.88152q-15.41313-.85426-30.82626-1.705"/><rect class="cls-19" x="203.44896" y="385.95541" width="32.68368" height="80.85936"/><rect class="cls-19" x="195.08353" y="381.92865" width="32.20356" height="87.5198"/><path class="cls-20" d="M224.30785,454.87887V398.50951a1.76938,1.76938,0,0,1,1.76455-1.76454h13.58374a1.76939,1.76939,0,0,1,1.76456,1.76454v56.36936a1.76791,1.76791,0,0,1-1.76456,1.76281H226.0724a1.7679,1.7679,0,0,1-1.76455-1.76281"/><rect class="cls-20" x="198.80189" y="380.53382" width="31.29062" height="90.91574"/><rect class="cls-8" x="294.77707" y="254.506" width="31" height="9" rx="3.2621"/><rect class="cls-15" x="317.77707" y="255.506" width="7" height="7" rx="1.4"/><rect class="cls-8" x="294.77707" y="265.506" width="31" height="9" rx="3.2621"/><rect class="cls-15" x="317.77707" y="266.506" width="7" height="7" rx="1.4"/><rect class="cls-8" x="294.77707" y="276.506" width="31" height="9" rx="3.2621"/><rect class="cls-15" x="317.77707" y="277.506" width="7" height="7" rx="1.4"/><rect class="cls-8" x="294.77707" y="287.506" width="31" height="9" rx="3.2621"/><rect class="cls-15" x="317.77707" y="288.506" width="7" height="7" rx="1.4"/><rect class="cls-8" x="294.77707" y="298.506" width="31" height="9" rx="3.2621"/><rect class="cls-15" x="317.77707" y="299.506" width="7" height="7" rx="1.4"/><rect class="cls-8" x="294.77707" y="309.506" width="31" height="9" rx="3.2621"/><rect class="cls-15" x="317.77707" y="310.506" width="7" height="7" rx="1.4"/><path class="cls-21" d="M313.03463,356.6133H293.52111c-6.48508,0-11.744-4.23752-11.744-9.46578v-1.54484c0-5.227,5.259-9.46578,11.744-9.46578h19.51352c6.48658,0,11.74244,4.23876,11.74244,9.46578v1.54484c0,5.22826-5.25586,9.46578-11.74244,9.46578"/><path class="cls-22" d="M310.87674,354.34906h-15.1984c-5.05018,0-9.14594-3.3-9.14594-7.37174v-1.20348c0-4.07177,4.09576-7.373,9.14594-7.373h15.1984c5.05177,0,9.14594,3.30122,9.14594,7.373v1.20348c0,4.07177-4.09417,7.37174-9.14594,7.37174"/><path class="cls-21" d="M310.57543,352.3754H295.98012c-4.111,0-7.44418-2.68648-7.44418-6.00006s3.33316-6.00006,7.44418-6.00006h14.59531c4.111,0,7.4441,2.68648,7.4441,6.00006s-3.33307,6.00006-7.4441,6.00006"/><path class="cls-21" d="M218.85,357.8751H195.70605c-7.69161,0-13.929-4.75977-13.929-10.63238v-1.73524c0-5.87122,6.23737-10.63238,13.929-10.63238H218.85c7.69339,0,13.92708,4.76116,13.92708,10.63238v1.73524c0,5.87261-6.23369,10.63238-13.92708,10.63238"/><path class="cls-22" d="M216.29063,355.33181h-18.026c-5.98975,0-10.84751-3.70667-10.84751-8.28027v-1.3518c0-4.5736,4.85776-8.28167,10.84751-8.28167h18.026c5.99164,0,10.84751,3.70807,10.84751,8.28167v1.3518c0,4.5736-4.85587,8.28027-10.84751,8.28027"/><path class="cls-21" d="M215.93326,353.11491H198.62255c-4.87587,0-8.82915-3.01758-8.82915-6.73954s3.95328-6.73953,8.82915-6.73953h17.31071c4.87587,0,8.82905,3.01757,8.82905,6.73953s-3.95318,6.73954-8.82905,6.73954"/><path class="cls-21" d="M313.03463,165.6133H293.52111c-6.48508,0-11.744-4.23752-11.744-9.46578v-1.54484c0-5.227,5.259-9.46578,11.744-9.46578h19.51352c6.48658,0,11.74244,4.23876,11.74244,9.46578v1.54484c0,5.22826-5.25586,9.46578-11.74244,9.46578"/><path class="cls-22" d="M310.87674,163.34906h-15.1984c-5.05018,0-9.14594-3.3-9.14594-7.37174v-1.20348c0-4.07177,4.09576-7.373,9.14594-7.373h15.1984c5.05177,0,9.14594,3.30122,9.14594,7.373v1.20348c0,4.07177-4.09417,7.37174-9.14594,7.37174"/><path class="cls-21" d="M310.57543,161.3754H295.98012c-4.111,0-7.44418-2.68648-7.44418-6.00006s3.33316-6.00006,7.44418-6.00006h14.59531c4.111,0,7.4441,2.68648,7.4441,6.00006s-3.33307,6.00006-7.4441,6.00006"/><path class="cls-21" d="M218.85,166.8751H195.70605c-7.69161,0-13.929-4.75977-13.929-10.63238v-1.73524c0-5.87122,6.23737-10.63238,13.929-10.63238H218.85c7.69339,0,13.92708,4.76116,13.92708,10.63238v1.73524c0,5.87261-6.23369,10.63238-13.92708,10.63238"/><path class="cls-22" d="M216.29063,164.33181h-18.026c-5.98975,0-10.84751-3.70667-10.84751-8.28027v-1.3518c0-4.5736,4.85776-8.28167,10.84751-8.28167h18.026c5.99164,0,10.84751,3.70807,10.84751,8.28167v1.3518c0,4.5736-4.85587,8.28027-10.84751,8.28027"/><path class="cls-21" d="M215.93326,162.11491H198.62255c-4.87587,0-8.82915-3.01758-8.82915-6.73954s3.95328-6.73953,8.82915-6.73953h17.31071c4.87587,0,8.82905,3.01757,8.82905,6.73953s-3.95318,6.73954-8.82905,6.73954"/><path class="cls-23" d="M146.77707,162.506v176s0,10,3,10H289.58559s4.59574.80851,4.59574-4.59574c0,0-.59574-4.5,4.5-4.5h3.09574s5.45213,1,5.45213-5.45213v-25.3883s-.06383-3.758-3.758-3.758h-2.19415a2.84309,2.84309,0,0,1-2.90292-2.90292V300.006a2.89063,2.89063,0,0,1,2.95146-2.95146h3.95146s5.52427,0,5.52427-5.52427V287.006s0-5.76213-5.76213-5.76213h-3.76214a3.05465,3.05465,0,0,1-3.11893-3.11894V276.006a2.99641,2.99641,0,0,1,3.05947-3.05947h3.05946a2.909,2.909,0,0,0,2.97027-2.97026V235.006a3.4133,3.4133,0,0,0-3.48513-3.48513h-2.48514a3.19029,3.19029,0,0,1-3.25743-3.25744V226.006a2.57454,2.57454,0,0,1,2.62872-2.62872h5.62871s5.32544.72042,5.32544-5.32543V211.506s.5-4.41272-4.41272-4.41272h-6.91272a2.49121,2.49121,0,0,1-2.54364-2.54364V202.006a2.71469,2.71469,0,0,1,2.77182-2.77182h2.77182s4-.22818,4-6.22818v-21s0-6.5-6.5-6.5h-3.5a3.183,3.183,0,0,1-3.25-3.25v-2.25s0-4.375-4.375-4.375h-136.375S146.77707,155.006,146.77707,162.506Z"/><rect class="cls-14" x="278.27707" y="188.006" width="8" height="14" rx="3.92553"/><rect class="cls-14" x="278.77707" y="209.706" width="8" height="14" rx="3.92553"/><rect class="cls-14" x="278.27707" y="231.406" width="8" height="14" rx="3.92553"/><rect class="cls-14" x="278.77707" y="253.106" width="8" height="14" rx="3.92553"/><rect class="cls-14" x="278.27707" y="274.806" width="8" height="14" rx="3.92553"/><rect class="cls-14" x="278.77707" y="296.506" width="8" height="14" rx="3.92553"/><rect class="cls-5" x="240.77707" y="279.256" width="14" height="24.5" rx="6.86968"/><rect class="cls-5" x="240.77707" y="202.256" width="14" height="24.5" rx="6.86968"/><rect class="cls-24" x="147.27707" y="161.006" width="147" height="3" rx="1.44191"/><rect class="cls-24" x="147.77707" y="340.506" width="147" height="3" rx="1.44191"/><path class="cls-24" d="M147.91312,158.08643H293.67186s-.14479-2.33043-4.01979-2.45543h-136.375S149.04916,155.66686,147.91312,158.08643Z"/><path class="cls-24" d="M147.91312,346.631l145.75874,0s-.14479,2.33043-4.01979,2.45542l-136.375,0S149.04916,349.05055,147.91312,346.631Z"/><g id="r-01"><g class="cls-25"><g class="cls-25"><path class="cls-26" d="M316.21237,521.517h24.093a3.43741,3.43741,0,0,1,3.434,3.435v7.929a3.43742,3.43742,0,0,1-3.434,3.435h-24.093a3.43891,3.43891,0,0,1-3.435-3.435v-7.929a3.37725,3.37725,0,0,1,3.435-3.435"/><rect class="cls-27" x="321.13707" y="521.506" width="14.192" height="14.85"/></g></g></g><g id="r-01-2" data-name="r-01"><g class="cls-28"><g class="cls-28"><path class="cls-26" d="M278.61548,438.9413l0,24.093a3.43741,3.43741,0,0,1-3.435,3.434h-7.929a3.43742,3.43742,0,0,1-3.435-3.434l0-24.093a3.43891,3.43891,0,0,1,3.435-3.435h7.929a3.37725,3.37725,0,0,1,3.435,3.435"/><rect class="cls-27" x="263.77648" y="443.866" width="14.85" height="14.192"/></g></g></g><g id="r-01-3" data-name="r-01"><g class="cls-29"><g class="cls-29"><path class="cls-26" d="M359.21237,521.517h24.093a3.43741,3.43741,0,0,1,3.434,3.435v7.929a3.43742,3.43742,0,0,1-3.434,3.435h-24.093a3.43891,3.43891,0,0,1-3.435-3.435v-7.929a3.37725,3.37725,0,0,1,3.435-3.435"/><rect class="cls-27" x="364.13707" y="521.506" width="14.192" height="14.85"/></g></g></g><g id="r-01-4" data-name="r-01"><g class="cls-30"><g class="cls-30"><path class="cls-26" d="M360.61548,198.9413l0,24.093a3.43741,3.43741,0,0,1-3.435,3.434h-7.929a3.43742,3.43742,0,0,1-3.435-3.434l0-24.093a3.43891,3.43891,0,0,1,3.435-3.435h7.929a3.37725,3.37725,0,0,1,3.435,3.435"/><rect class="cls-27" x="345.77648" y="203.866" width="14.85" height="14.192"/></g></g></g><g id="Capacitor"><g class="cls-31"><g class="cls-32"><path class="cls-5" d="M278.04154,392.418l-13.57836,0a1.69049,1.69049,0,0,1-1.68553-1.68553v-9.54011a1.69049,1.69049,0,0,1,1.68554-1.68553l13.57835,0a1.69049,1.69049,0,0,1,1.68554,1.68553l0,9.54011a1.69049,1.69049,0,0,1-1.68553,1.68553"/><path class="cls-5" d="M278.04153,412.50365l-13.57835,0a1.69049,1.69049,0,0,1-1.68554-1.68553l0-9.5401a1.69049,1.69049,0,0,1,1.68553-1.68554l13.57836,0a1.69049,1.69049,0,0,1,1.68553,1.68553v9.54011a1.69049,1.69049,0,0,1-1.68554,1.68553"/><path class="cls-26" d="M278.30617,384.17l0,22.92182a3.27146,3.27146,0,0,1-3.26852,3.26853l-7.54416,0a3.27116,3.27116,0,0,1-3.26712-3.26852l0-22.92182a3.27027,3.27027,0,0,1,3.26712-3.26853h7.54416a3.21289,3.21289,0,0,1,3.26852,3.26853"/><rect class="cls-33" x="264.18802" y="388.85508" width="14.12897" height="13.50251"/></g></g></g><rect class="cls-34" x="729.87792" y="17.37286" width="7.26956" height="12.88675"/><rect class="cls-34" x="729.87791" y="47.44087" width="7.26956" height="12.88675"/><path class="cls-35" d="M551.92106,6.27688h1.318a2.09167,2.09167,0,0,1,1.84108,2.27337l0,63.44248a2.09166,2.09166,0,0,1-1.84108,2.27336h-1.318a2.09167,2.09167,0,0,1-1.841-2.27337l0-63.44248a2.09167,2.09167,0,0,1,1.841-2.27336"/><rect class="cls-35" x="711.77718" y="6.27766" width="21.99995" height="67.98921"/><path class="cls-35" d="M543.92106,6.27688h1.318a2.09167,2.09167,0,0,1,1.84108,2.27337l0,63.44248a2.09166,2.09166,0,0,1-1.84108,2.27336h-1.318a2.09167,2.09167,0,0,1-1.841-2.27337l0-63.44248a2.09167,2.09167,0,0,1,1.841-2.27336"/><path class="cls-35" d="M568.92106,6.27688h1.318a2.09167,2.09167,0,0,1,1.84108,2.27337l0,63.44248a2.09166,2.09166,0,0,1-1.84108,2.27336h-1.318a2.09167,2.09167,0,0,1-1.841-2.27337l0-63.44248a2.09167,2.09167,0,0,1,1.841-2.27336"/><path class="cls-35" d="M560.92106,6.27688h1.318a2.09167,2.09167,0,0,1,1.84108,2.27337l0,63.44248a2.09166,2.09166,0,0,1-1.84108,2.27336h-1.318a2.09167,2.09167,0,0,1-1.841-2.27337l0-63.44248a2.09167,2.09167,0,0,1,1.841-2.27336"/><path class="cls-35" d="M584.92106,6.27688h1.318a2.09167,2.09167,0,0,1,1.84108,2.27337l0,63.44248a2.09166,2.09166,0,0,1-1.84108,2.27336h-1.318a2.09167,2.09167,0,0,1-1.841-2.27337l0-63.44248a2.09167,2.09167,0,0,1,1.841-2.27336"/><path class="cls-35" d="M576.92106,6.27688h1.318a2.09167,2.09167,0,0,1,1.84108,2.27337l0,63.44248a2.09166,2.09166,0,0,1-1.84108,2.27336h-1.318a2.09167,2.09167,0,0,1-1.841-2.27337l0-63.44248a2.09167,2.09167,0,0,1,1.841-2.27336"/><path class="cls-35" d="M601.92106,6.27688h1.318a2.09167,2.09167,0,0,1,1.84108,2.27337l0,63.44248a2.09166,2.09166,0,0,1-1.84108,2.27336h-1.318a2.09167,2.09167,0,0,1-1.841-2.27337l0-63.44248a2.09167,2.09167,0,0,1,1.841-2.27336"/><path class="cls-35" d="M593.92106,6.27688h1.318a2.09167,2.09167,0,0,1,1.84108,2.27337l0,63.44248a2.09166,2.09166,0,0,1-1.84108,2.27336h-1.318a2.09167,2.09167,0,0,1-1.841-2.27337l0-63.44248a2.09167,2.09167,0,0,1,1.841-2.27336"/><path class="cls-35" d="M617.92106,6.27688h1.318a2.09167,2.09167,0,0,1,1.84108,2.27337l0,63.44248a2.09166,2.09166,0,0,1-1.84108,2.27336h-1.318a2.09167,2.09167,0,0,1-1.841-2.27337l0-63.44248a2.09167,2.09167,0,0,1,1.841-2.27336"/><path class="cls-35" d="M609.92106,6.27688h1.318a2.09167,2.09167,0,0,1,1.84108,2.27337l0,63.44248a2.09166,2.09166,0,0,1-1.84108,2.27336h-1.318a2.09167,2.09167,0,0,1-1.841-2.27337l0-63.44248a2.09167,2.09167,0,0,1,1.841-2.27336"/><path class="cls-35" d="M634.92106,6.27688h1.318a2.09167,2.09167,0,0,1,1.84108,2.27337l0,63.44248a2.09166,2.09166,0,0,1-1.84108,2.27336h-1.318a2.09167,2.09167,0,0,1-1.841-2.27337l0-63.44248a2.09167,2.09167,0,0,1,1.841-2.27336"/><path class="cls-35" d="M626.92106,6.27688h1.318a2.09167,2.09167,0,0,1,1.84108,2.27337l0,63.44248a2.09166,2.09166,0,0,1-1.84108,2.27336h-1.318a2.09167,2.09167,0,0,1-1.841-2.27337l0-63.44248a2.09167,2.09167,0,0,1,1.841-2.27336"/><path class="cls-35" d="M650.92106,6.27688h1.318a2.09167,2.09167,0,0,1,1.84108,2.27337l0,63.44248a2.09166,2.09166,0,0,1-1.84108,2.27336h-1.318a2.09167,2.09167,0,0,1-1.841-2.27337l0-63.44248a2.09167,2.09167,0,0,1,1.841-2.27336"/><path class="cls-35" d="M642.92106,6.27688h1.318a2.09167,2.09167,0,0,1,1.84108,2.27337l0,63.44248a2.09166,2.09166,0,0,1-1.84108,2.27336h-1.318a2.09167,2.09167,0,0,1-1.841-2.27337l0-63.44248a2.09167,2.09167,0,0,1,1.841-2.27336"/><path class="cls-35" d="M667.92106,6.27688h1.318a2.09167,2.09167,0,0,1,1.84108,2.27337l0,63.44248a2.09166,2.09166,0,0,1-1.84108,2.27336h-1.318a2.09167,2.09167,0,0,1-1.841-2.27337l0-63.44248a2.09167,2.09167,0,0,1,1.841-2.27336"/><path class="cls-35" d="M659.92106,6.27688h1.318a2.09167,2.09167,0,0,1,1.84108,2.27337l0,63.44248a2.09166,2.09166,0,0,1-1.84108,2.27336h-1.318a2.09167,2.09167,0,0,1-1.841-2.27337l0-63.44248a2.09167,2.09167,0,0,1,1.841-2.27336"/><path class="cls-35" d="M683.92106,6.27688h1.318a2.09167,2.09167,0,0,1,1.84108,2.27337l0,63.44248a2.09166,2.09166,0,0,1-1.84108,2.27336h-1.318a2.09167,2.09167,0,0,1-1.841-2.27337l0-63.44248a2.09167,2.09167,0,0,1,1.841-2.27336"/><path class="cls-35" d="M675.92106,6.27688h1.318a2.09167,2.09167,0,0,1,1.84108,2.27337l0,63.44248a2.09166,2.09166,0,0,1-1.84108,2.27336h-1.318a2.09167,2.09167,0,0,1-1.841-2.27337l0-63.44248a2.09167,2.09167,0,0,1,1.841-2.27336"/><path class="cls-35" d="M700.92106,6.27688h1.318a2.09167,2.09167,0,0,1,1.84108,2.27337l0,63.44248a2.09166,2.09166,0,0,1-1.84108,2.27336h-1.318a2.09167,2.09167,0,0,1-1.841-2.27337l0-63.44248a2.09167,2.09167,0,0,1,1.841-2.27336"/><path class="cls-35" d="M692.92106,6.27688h1.318a2.09167,2.09167,0,0,1,1.84108,2.27337l0,63.44248a2.09166,2.09166,0,0,1-1.84108,2.27336h-1.318a2.09167,2.09167,0,0,1-1.841-2.27337l0-63.44248a2.09167,2.09167,0,0,1,1.841-2.27336"/><rect class="cls-35" x="510.91526" y="6.27757" width="22.8619" height="67.98921"/><rect class="cls-36" x="512.25884" y="16.47793" width="224.8909" height="44.20633"/><rect class="cls-34" x="512.25884" y="53.88341" width="224.8909" height="6.80085"/><rect class="cls-34" x="512.25885" y="16.47793" width="224.8909" height="7.33747"/><rect class="cls-34" x="512.25885" y="17.37281" width="7.2696" height="12.88675"/><rect class="cls-34" x="512.25884" y="47.44082" width="7.2696" height="12.88675"/><rect class="cls-37" x="512.25884" y="31.51115" width="212.35481" height="15.0332"/><rect class="cls-38" x="542.07287" y="25.06855" width="5.01442" height="27.91997"/><rect class="cls-39" x="542.69968" y="52.98851" width="3.7608" height="5.54769"/><rect class="cls-39" x="542.69968" y="19.52088" width="3.7608" height="5.54769"/><rect class="cls-38" x="558.07287" y="25.06855" width="5.01442" height="27.91997"/><rect class="cls-39" x="558.69968" y="52.98851" width="3.7608" height="5.54769"/><rect class="cls-39" x="558.69968" y="19.52088" width="3.7608" height="5.54769"/><rect class="cls-38" x="550.07287" y="25.06855" width="5.01442" height="27.91997"/><rect class="cls-39" x="550.69968" y="52.98851" width="3.7608" height="5.54769"/><rect class="cls-39" x="550.69968" y="19.52088" width="3.7608" height="5.54769"/><rect class="cls-38" x="566.07287" y="25.06855" width="5.01442" height="27.91997"/><rect class="cls-39" x="566.69968" y="52.98851" width="3.7608" height="5.54769"/><rect class="cls-39" x="566.69968" y="19.52088" width="3.7608" height="5.54769"/><rect class="cls-38" x="583.07287" y="25.06855" width="5.01442" height="27.91997"/><rect class="cls-39" x="583.69968" y="52.98851" width="3.7608" height="5.54769"/><rect class="cls-39" x="583.69968" y="19.52088" width="3.7608" height="5.54769"/><rect class="cls-38" x="575.07287" y="25.06855" width="5.01442" height="27.91997"/><rect class="cls-39" x="575.69968" y="52.98851" width="3.7608" height="5.54769"/><rect class="cls-39" x="575.69968" y="19.52088" width="3.7608" height="5.54769"/><rect class="cls-38" x="591.07287" y="25.06855" width="5.01442" height="27.91997"/><rect class="cls-39" x="591.69968" y="52.98851" width="3.7608" height="5.54769"/><rect class="cls-39" x="591.69968" y="19.52088" width="3.7608" height="5.54769"/><rect class="cls-38" x="608.07287" y="25.06855" width="5.01442" height="27.91997"/><rect class="cls-39" x="608.69968" y="52.98851" width="3.7608" height="5.54769"/><rect class="cls-39" x="608.69968" y="19.52088" width="3.7608" height="5.54769"/><rect class="cls-38" x="600.07287" y="25.06855" width="5.01442" height="27.91997"/><rect class="cls-39" x="600.69968" y="52.98851" width="3.7608" height="5.54769"/><rect class="cls-39" x="600.69968" y="19.52088" width="3.7608" height="5.54769"/><rect class="cls-38" x="616.07287" y="25.06855" width="5.01442" height="27.91997"/><rect class="cls-39" x="616.69968" y="52.98851" width="3.7608" height="5.54769"/><rect class="cls-39" x="616.69968" y="19.52088" width="3.7608" height="5.54769"/><rect class="cls-38" x="632.07287" y="25.06855" width="5.01442" height="27.91997"/><rect class="cls-39" x="632.69968" y="52.98851" width="3.7608" height="5.54769"/><rect class="cls-39" x="632.69968" y="19.52088" width="3.7608" height="5.54769"/><rect class="cls-38" x="624.07287" y="25.06855" width="5.01442" height="27.91997"/><rect class="cls-39" x="624.69968" y="52.98851" width="3.7608" height="5.54769"/><rect class="cls-39" x="624.69968" y="19.52088" width="3.7608" height="5.54769"/><rect class="cls-38" x="640.07287" y="25.06855" width="5.01442" height="27.91997"/><rect class="cls-39" x="640.69968" y="52.98851" width="3.7608" height="5.54769"/><rect class="cls-39" x="640.69968" y="19.52088" width="3.7608" height="5.54769"/><rect class="cls-38" x="657.07287" y="25.06855" width="5.01442" height="27.91997"/><rect class="cls-39" x="657.69968" y="52.98851" width="3.7608" height="5.54769"/><rect class="cls-39" x="657.69968" y="19.52088" width="3.7608" height="5.54769"/><rect class="cls-38" x="649.07287" y="25.06855" width="5.01442" height="27.91997"/><rect class="cls-39" x="649.69968" y="52.98851" width="3.7608" height="5.54769"/><rect class="cls-39" x="649.69968" y="19.52088" width="3.7608" height="5.54769"/><rect class="cls-38" x="665.07287" y="25.06855" width="5.01442" height="27.91997"/><rect class="cls-39" x="665.69968" y="52.98851" width="3.7608" height="5.54769"/><rect class="cls-39" x="665.69968" y="19.52088" width="3.7608" height="5.54769"/><rect class="cls-38" x="682.07287" y="25.06855" width="5.01442" height="27.91997"/><rect class="cls-39" x="682.69968" y="52.98851" width="3.7608" height="5.54769"/><rect class="cls-39" x="682.69968" y="19.52088" width="3.7608" height="5.54769"/><rect class="cls-38" x="674.07287" y="25.06855" width="5.01442" height="27.91997"/><rect class="cls-39" x="674.69968" y="52.98851" width="3.7608" height="5.54769"/><rect class="cls-39" x="674.69968" y="19.52088" width="3.7608" height="5.54769"/><rect class="cls-38" x="690.07287" y="25.06855" width="5.01442" height="27.91997"/><rect class="cls-39" x="690.69968" y="52.98851" width="3.7608" height="5.54769"/><rect class="cls-39" x="690.69968" y="19.52088" width="3.7608" height="5.54769"/><rect class="cls-38" x="699.07287" y="25.06855" width="5.01442" height="27.91997"/><rect class="cls-39" x="699.69968" y="52.98851" width="3.7608" height="5.54769"/><rect class="cls-39" x="699.69968" y="19.52088" width="3.7608" height="5.54769"/><rect class="cls-40" x="540.77706" y="31.51112" width="166.00001" height="15.0332"/><path class="cls-41" d="M180.277,495.90062h-4.7715v48.45171h4.77729c.0328-2.02257,1.36025-3.652,2.99448-3.652,1.63617,0,2.95976,1.62943,2.99449,3.652H191.049V495.90062h-4.7715c0,2.0581-1.34289,3.72542-3.00028,3.72542s-3.00027-1.66732-3.00027-3.72542"/><rect class="cls-42" x="172.779" y="495.89825" width="2.7263" height="48.45408"/><rect class="cls-42" x="191.04885" y="495.89825" width="2.72822" height="48.45408"/><rect class="cls-43" x="172.77707" y="500.28444" width="21" height="39.68171"/><path class="cls-44" d="M180.1018,506.912h-5.05127v26.42842h5.05705c.03473-1.10365,1.43936-1.99178,3.17007-1.99178s3.1334.88813,3.17007,1.99178h5.05512V506.912H186.4535c0,1.1226-1.422,2.032-3.17585,2.032s-3.17585-.90945-3.17585-2.032"/><path class="cls-43" d="M183.27765,513.40652c2.98677,0,5.41014,3.01018,5.41014,6.719,0,3.71358-2.42337,6.72138-5.41014,6.72138s-5.40822-3.0078-5.40822-6.72138c0-3.70883,2.42145-6.719,5.40822-6.719"/><path class="cls-45" d="M183.27765,515.02552c2.26516,0,4.10391,2.2831,4.10391,5.10143,0,2.816-1.83875,5.09906-4.10391,5.09906-2.26709,0-4.10392-2.28309-4.10392-5.09906,0-2.81833,1.83683-5.10143,4.10392-5.10143"/><path class="cls-41" d="M180.277,575.90062h-4.7715v48.45171h4.77729c.0328-2.02257,1.36025-3.652,2.99448-3.652,1.63617,0,2.95976,1.62943,2.99449,3.652H191.049V575.90062h-4.7715c0,2.0581-1.34289,3.72542-3.00028,3.72542s-3.00027-1.66732-3.00027-3.72542"/><rect class="cls-42" x="172.779" y="575.89825" width="2.7263" height="48.45408"/><rect class="cls-42" x="191.04885" y="575.89825" width="2.72822" height="48.45408"/><rect class="cls-43" x="172.77707" y="580.28444" width="21" height="39.68171"/><path class="cls-44" d="M180.1018,586.912h-5.05127v26.42842h5.05705c.03473-1.10365,1.43936-1.99178,3.17007-1.99178s3.1334.88813,3.17007,1.99178h5.05512V586.912H186.4535c0,1.1226-1.422,2.03205-3.17585,2.03205s-3.17585-.90945-3.17585-2.03205"/><path class="cls-43" d="M183.27765,593.40652c2.98677,0,5.41014,3.01018,5.41014,6.719,0,3.71358-2.42337,6.72138-5.41014,6.72138s-5.40822-3.0078-5.40822-6.72138c0-3.70883,2.42145-6.719,5.40822-6.719"/><path class="cls-45" d="M183.27765,595.02552c2.26516,0,4.10391,2.2831,4.10391,5.10143,0,2.816-1.83875,5.09906-4.10391,5.09906-2.26709,0-4.10392-2.28309-4.10392-5.09906,0-2.81833,1.83683-5.10143,4.10392-5.10143"/><path class="cls-41" d="M257.1553,625.98235v-4.99872H206.39637v5.00478c2.11888.03436,3.8259,1.425,3.8259,3.13708,0,1.71408-1.707,3.1007-3.8259,3.13708v5.00478H257.1553v-4.99871c-2.1561,0-3.90281-1.40684-3.90281-3.14315s1.74671-3.14314,3.90281-3.14314"/><rect class="cls-42" x="206.39637" y="618.12731" width="50.76141" height="2.85612"/><rect class="cls-42" x="206.39637" y="637.26715" width="50.76141" height="2.85814"/><rect class="cls-43" x="210.99142" y="618.12529" width="41.57131" height="22"/><path class="cls-44" d="M245.61954,625.79881V620.507H217.93262v5.29787c1.15621.03639,2.08663,1.5079,2.08663,3.321s-.93042,3.28262-2.08663,3.321v5.29584h27.68692V632.453c-1.17606,0-2.12881-1.48971-2.12881-3.32709s.95275-3.32708,2.12881-3.32708"/><path class="cls-43" d="M238.81579,629.12589c0,3.129-3.15352,5.66777-7.039,5.66777-3.89041,0-7.04144-2.53877-7.04144-5.66777s3.151-5.66575,7.04144-5.66575c3.88545,0,7.039,2.53676,7.039,5.66575"/><path class="cls-45" d="M237.11969,629.12589c0,2.373-2.39181,4.29934-5.34435,4.29934-2.95007,0-5.34187-1.92631-5.34187-4.29934,0-2.375,2.3918-4.29934,5.34187-4.29934,2.95254,0,5.34435,1.9243,5.34435,4.29934"/><path class="cls-5" d="M313.01816,512.43537V498.029a1.06907,1.06907,0,0,1,1.07063-1.07063h6.13252a1.06907,1.06907,0,0,1,1.07063,1.07063v14.40636a1.07007,1.07007,0,0,1-1.07063,1.07063h-6.13252a1.07007,1.07007,0,0,1-1.07063-1.07063"/><path class="cls-5" d="M302.699,480.6028V466.1949a1.07005,1.07005,0,0,1,1.07063-1.07063h6.13252a1.07006,1.07006,0,0,1,1.07064,1.07063v14.4079a1.07009,1.07009,0,0,1-1.07064,1.07063h-6.13252a1.07008,1.07008,0,0,1-1.07063-1.07063"/><path class="cls-5" d="M323.82366,480.6028V466.1949a1.07005,1.07005,0,0,1,1.07063-1.07063h6.13252a1.07006,1.07006,0,0,1,1.07064,1.07063v14.4079a1.07009,1.07009,0,0,1-1.07064,1.07063h-6.13252a1.07008,1.07008,0,0,1-1.07063-1.07063"/><rect class="cls-46" x="300.94647" y="481.38165" width="32.12524" height="16.16024"/><path class="cls-5" d="M377.01816,512.43537V498.029a1.06907,1.06907,0,0,1,1.07063-1.07063h6.13252a1.06907,1.06907,0,0,1,1.07063,1.07063v14.40636a1.07007,1.07007,0,0,1-1.07063,1.07063h-6.13252a1.07007,1.07007,0,0,1-1.07063-1.07063"/><path class="cls-5" d="M366.699,480.6028V466.1949a1.07005,1.07005,0,0,1,1.07063-1.07063h6.13252a1.07006,1.07006,0,0,1,1.07064,1.07063v14.4079a1.07009,1.07009,0,0,1-1.07064,1.07063h-6.13252a1.07008,1.07008,0,0,1-1.07063-1.07063"/><path class="cls-5" d="M387.82366,480.6028V466.1949a1.07005,1.07005,0,0,1,1.07063-1.07063h6.13252a1.07006,1.07006,0,0,1,1.07064,1.07063v14.4079a1.07009,1.07009,0,0,1-1.07064,1.07063h-6.13252a1.07008,1.07008,0,0,1-1.07063-1.07063"/><rect class="cls-46" x="364.94647" y="481.38165" width="32.12524" height="16.16024"/><line class="cls-47" x1="106.66931" y1="48.06671" x2="322.82385" y2="48.06671"/><polygon class="cls-48" points="319.979 57.79 336.818 48.067 319.979 38.343 319.979 57.79"/><line class="cls-47" x1="106.66931" y1="89.14374" x2="322.82385" y2="89.14374"/><polygon class="cls-48" points="319.979 98.867 336.818 89.144 319.979 79.42 319.979 98.867"/><path class="cls-48" d="M33.11328,56.20367a9.98038,9.98038,0,0,1-8.0166,3.71c-7.45508,0-11.90039-6.05567-11.90039-12.60059,0-7.28125,3.99023-13.582,11.90039-13.582,5.42578,0,9.83691,2.45019,10.74609,8.2959H32.51758c-.665-3.78028-3.67481-5.49512-7.4209-5.49512-6.05566,0-8.5752,5.28516-8.5752,10.60547,0,5.21582,3.00977,9.97656,8.5752,9.97656,5.18066,0,8.19141-3.57031,8.0166-8.15625H25.13184v-2.7998H36.08789V59.31891H33.98828Z"/><path class="cls-48" d="M40.9502,34.32672h3.53515l13.16211,20.2666h.06934V34.32672h3.15039V59.31891H57.22754L44.1709,39.26227h-.07031V59.31891H40.9502Z"/><path class="cls-48" d="M66.25488,34.32672h8.57617c7.7002,0,12.00586,3.88477,12.00586,11.90039,0,8.36621-3.6748,13.0918-12.00586,13.0918H66.25488Zm3.3252,22.19238h5.53125c2.27441,0,8.40039-.63085,8.40039-9.83691,0-5.95019-2.20508-9.55566-8.33106-9.55566H69.58008Z"/><path class="cls-48" d="M12.60156,100.39606H8.82129L0,75.40387H3.60547l7.14062,21.667h.07032l7.21-21.667h3.46582Z"/><path class="cls-48" d="M24.15039,75.40387h9.06543c2.16992,0,5.14551,0,6.61621.90918a5.89059,5.89059,0,0,1,2.93945,5.21582,5.72607,5.72607,0,0,1-3.71,5.60059v.07031a5.75106,5.75106,0,0,1,4.76075,6.02051c0,3.64062-2.66016,7.17578-7.59571,7.17578H24.15039ZM27.47559,86.15H34.126c3.78027,0,5.32031-1.33007,5.32031-3.99121,0-3.5-2.415-3.95508-5.32031-3.95508H27.47559Zm0,11.44629h8.33105c2.90527,0,4.69043-1.71582,4.69043-4.48047,0-3.25586-2.626-4.166-5.42578-4.166h-7.5957Z"/><path class="cls-48" d="M54.916,75.40387h3.6748l9.7666,24.99219H64.68164l-2.73047-7.52539H51.38086l-2.80078,7.52539H45.14941Zm-2.48536,14.666h8.47071l-4.165-11.65625H56.666Z"/><path class="cls-48" d="M76.47559,78.20367H68.14453v-2.7998H88.13184v2.7998H79.80078v22.19239H76.47559Z"/></g></g></svg>