<svg xmlns="http://www.w3.org/2000/svg" viewBox="0 0 1737.19149 720.11026"><defs><style>.cls-1{fill:#006ac6;}.cls-2{fill:#ff2400;}.cls-3{fill:#ffa300;}.cls-4{fill:#fff;}.cls-5{fill:#97999b;}</style></defs><g id="Layer_2" data-name="Layer 2"><g id="Layer_1-2" data-name="Layer 1"><rect class="cls-1" width="171.57447" height="171.57447" rx="15.82785"/><rect class="cls-1" y="427.00388" width="171.57447" height="171.57447" rx="15.82785"/><rect class="cls-1" x="337.35106" y="634.32303" width="257.2766" height="85.78723" rx="13.70505"/><rect class="cls-1" x="762.17021" y="634.32303" width="257.2766" height="85.78723" rx="13.70505"/><rect class="cls-1" x="1376.46809" y="171.57447" width="360.7234" height="169.5358" rx="22.81324"/><rect class="cls-1" x="337.78723" y="212.57445" width="255.82979" height="171.57447" rx="19.32729"/><rect class="cls-1" x="762.89362" width="255.82979" height="508.34431" rx="33.26777"/><polygon class="cls-2" points="257.319 510.345 171.575 510.345 171.575 506.345 253.319 506.345 253.319 129.068 171.575 129.068 171.575 125.068 257.319 125.068 257.319 510.345"/><rect class="cls-2" x="255.31919" y="296.36179" width="63.81006" height="4"/><polygon class="cls-2" points="315.336 311.326 337.787 298.362 315.336 285.397 315.336 311.326"/><rect class="cls-2" x="464.42564" y="384.1489" width="4" height="231.51611"/><polygon class="cls-2" points="453.461 611.871 466.426 634.323 479.39 611.871 453.461 611.871"/><rect class="cls-2" x="595.06382" y="675.21677" width="149.17139" height="4"/><polygon class="cls-2" points="740.442 690.181 762.894 677.217 740.442 664.252 740.442 690.181"/><rect class="cls-2" x="888.80845" y="527.0029" width="4" height="107.32031"/><polygon class="cls-2" points="903.773 530.796 890.809 508.344 877.844 530.796 903.773 530.796"/><polygon class="cls-2" points="1568.128 679.217 1019.447 679.217 1019.447 675.217 1564.128 675.217 1564.128 359.769 1568.128 359.769 1568.128 679.217"/><polygon class="cls-2" points="1579.092 363.562 1566.128 341.11 1553.163 363.562 1579.092 363.562"/><rect class="cls-3" x="1037.38169" y="252.17234" width="320.42773" height="4"/><polygon class="cls-3" points="1041.175 267.137 1018.723 254.172 1041.175 241.208 1041.175 267.137"/><polygon class="cls-3" points="1354.016 267.137 1376.468 254.172 1354.016 241.208 1354.016 267.137"/><rect class="cls-3" x="195.56235" y="39.93894" width="543.34326" height="5.14258"/><polygon class="cls-3" points="200.439 59.178 171.574 42.51 200.439 25.842 200.439 59.178"/><polygon class="cls-3" points="734.029 59.178 762.894 42.51 734.029 25.842 734.029 59.178"/><path class="cls-4" d="M70.06382,86.39206c0,8.42579-4.97656,12.5293-13.31494,12.5293-8.42529,0-13.271-4.01611-13.271-12.5293V67.00925h6.854V86.39206c0,3.40528.873,6.76661,6.417,6.76661,4.88965,0,6.46094-2.09522,6.46094-6.76661V67.00925h6.854Z"/><path class="cls-4" d="M80.62485,87.833c0,4.147,3.231,5.76221,6.898,5.76221,2.40088,0,6.06787-.69824,6.06787-3.88525,0-3.40528-4.71484-3.88526-9.25488-5.15137C79.70835,83.4238,75.037,81.459,75.037,75.69675c0-6.41748,6.02491-9.42969,11.65625-9.42969,6.50489,0,12.48536,2.83741,12.48536,10.04053H92.54282c-.21826-3.71045-2.8374-4.71435-6.15527-4.71435-2.18262,0-4.71484.9165-4.71484,3.53564,0,2.40137,1.48437,2.75049,9.29882,4.71484,2.31348.52393,9.25489,2.05176,9.25489,9.08057,0,5.71875-4.45313,9.99707-12.96582,9.99707-6.89746,0-13.40186-3.40527-13.271-11.08838Z"/><path class="cls-4" d="M104.28257,67.00925H118.951c5.937,0,9.95312,1.9209,9.95312,7.72705a6.77455,6.77455,0,0,1-4.23437,6.5044c3.84179,1.09179,5.71875,4.0166,5.71875,7.90185,0,6.33008-5.36963,9.03662-11.001,9.03662h-15.105Zm6.854,12.61621h6.94092c2.44483,0,4.19092-1.09131,4.19092-3.71045,0-2.9248-2.27-3.58007-4.71436-3.58007h-6.41748Zm0,13.22754h7.334c2.66308,0,5.064-.873,5.064-4.10351,0-3.18653-1.96435-4.45264-4.9331-4.45264h-7.46485Z"/><path class="cls-4" d="M36.21177,514.47068c0,4.14746,3.23047,5.76269,6.89746,5.76269,2.40088,0,6.06787-.69824,6.06787-3.88574,0-3.40527-4.71484-3.88476-9.25488-5.15137-4.62744-1.13476-9.29834-3.09961-9.29834-8.86132,0-6.418,6.02441-9.42969,11.65576-9.42969,6.50439,0,12.48535,2.83691,12.48535,10.04H48.12925c-.21826-3.71-2.8374-4.71387-6.15527-4.71387-2.18262,0-4.71485.916-4.71485,3.53516,0,2.40136,1.48438,2.751,9.29883,4.71484,2.31348.52441,9.25488,2.05176,9.25488,9.081,0,5.71875-4.45312,9.99707-12.96582,9.99707-6.89746,0-13.40185-3.40527-13.271-11.08886Z"/><path class="cls-4" d="M70.17173,501.63572c7.11572,0,11.69971,4.71484,11.69971,11.918,0,7.16015-4.584,11.875-11.69971,11.875-7.07227,0-11.65625-4.71485-11.65625-11.875C58.51548,506.35056,63.09946,501.63572,70.17173,501.63572Zm0,19.12109c4.23437,0,5.50049-3.5791,5.50049-7.20312,0-3.623-1.26612-7.2461-5.50049-7.2461-4.19092,0-5.457,3.623-5.457,7.2461C64.7147,517.17771,65.98081,520.75681,70.17173,520.75681Z"/><path class="cls-4" d="M86.05942,493.64744h6.19874v31.16992H86.05942Z"/><path class="cls-4" d="M96.88462,509.18845c.34912-5.76269,5.54395-7.55273,10.60791-7.55273,4.49658,0,9.90967,1.00488,9.90967,6.418v11.74316c0,2.05176.21826,4.10352.78613,5.02051h-6.28662a9.241,9.241,0,0,1-.43652-2.18262,10.286,10.286,0,0,1-7.59619,2.79395c-4.32178,0-7.68311-2.13965-7.68311-6.76661.0874-10.25976,15.2793-4.75879,15.01758-9.82324,0-2.61914-1.8335-3.05566-4.0166-3.05566-2.40088,0-3.88526.96094-4.10352,3.40527Zm14.31885,4.584c-1.04785.917-3.23047.96-5.15137,1.30957s-3.667,1.04785-3.667,3.31738c0,2.27051,1.78955,2.88183,3.79785,2.88183,4.8457,0,5.02051-3.79785,5.02051-5.19531Z"/><path class="cls-4" d="M122.20151,502.247h5.89356v4.19141h.0874a7.93321,7.93321,0,0,1,7.20313-4.80273,4.625,4.625,0,0,1,1.353.21875v5.76269a11.31851,11.31851,0,0,0-2.22607-.21875c-4.584,0-6.11182,3.23047-6.11182,7.24707v10.17188h-6.19922Z"/><path class="cls-4" d="M393.26841,660.97947h14.66846c5.937,0,9.95312,1.9209,9.95312,7.72754a6.77434,6.77434,0,0,1-4.23437,6.5039c3.84179,1.0918,5.71875,4.0166,5.71875,7.90235,0,6.33007-5.36963,9.03613-11.001,9.03613h-15.105Zm6.854,12.61621h6.94092c2.44483,0,4.19092-1.0918,4.19092-3.71094,0-2.92383-2.27-3.58008-4.71436-3.58008h-6.41748Zm0,13.22754h7.334c2.66308,0,5.064-.87305,5.064-4.10352,0-3.18652-1.96435-4.45215-4.9331-4.45215h-7.46485Z"/><path class="cls-4" d="M423.0814,676.52146c.34961-5.76367,5.54443-7.55274,10.6084-7.55274,4.49658,0,9.90966,1.00391,9.90966,6.417v11.74316c0,2.05176.21827,4.10352.78614,5.02051H438.099a9.23116,9.23116,0,0,1-.43653-2.18262,10.28484,10.28484,0,0,1-7.5957,2.79395c-4.32227,0-7.68359-2.13965-7.68359-6.7666.0874-10.25977,15.27929-4.75879,15.01757-9.82227,0-2.61914-1.83349-3.05664-4.0166-3.05664-2.40088,0-3.88525.96094-4.10351,3.40625Zm14.31933,4.583c-1.04785.917-3.23047.96-5.15136,1.30957s-3.667,1.04785-3.667,3.31836c0,2.26953,1.78955,2.88086,3.79786,2.88086,4.8457,0,5.0205-3.79786,5.0205-5.19532Z"/><path class="cls-4" d="M456.25669,669.58005h4.54v4.14649h-4.54v11.17578c0,2.0957.52393,2.61914,2.61914,2.61914a8.73049,8.73049,0,0,0,1.9209-.17383v4.8457a23.87222,23.87222,0,0,1-3.62305.21778c-3.84179,0-7.11621-.8291-7.11621-5.37012V673.72654h-3.75439v-4.14649h3.75439v-6.76758h6.19922Z"/><path class="cls-4" d="M471.62144,669.58005h4.54v4.14649h-4.54v11.17578c0,2.0957.52392,2.61914,2.61914,2.61914a8.73055,8.73055,0,0,0,1.9209-.17383v4.8457a23.8723,23.8723,0,0,1-3.623.21778c-3.8418,0-7.11621-.8291-7.11621-5.37012V673.72654h-3.7544v-4.14649h3.7544v-6.76758h6.19922Z"/><path class="cls-4" d="M484.23569,682.37107c.17481,3.97265,2.05225,5.71875,5.54444,5.71875,2.48828,0,4.49658-1.52832,4.88965-2.92578h5.45654c-1.74609,5.37011-5.45654,7.59668-10.56445,7.59668-7.11573,0-11.52491-4.88965-11.52491-11.874,0-6.76757,4.6709-11.918,11.52491-11.918,7.68359,0,11.4375,6.46094,10.95752,13.40235Zm10.08448-3.92969c-.56739-3.14258-1.9209-4.80176-4.93311-4.80176a4.85619,4.85619,0,0,0-5.15137,4.80176Z"/><path class="cls-4" d="M504.18345,669.58005H510.077v4.19043h.08741a7.93388,7.93388,0,0,1,7.20312-4.80176,4.62464,4.62464,0,0,1,1.353.21778v5.76269a11.31869,11.31869,0,0,0-2.22608-.21875c-4.584,0-6.11181,3.23047-6.11181,7.24707v10.17188h-6.19922Z"/><path class="cls-4" d="M532.29526,694.9863c-1.35351,3.624-3.53613,5.1084-7.771,5.1084a36.94647,36.94647,0,0,1-3.79785-.21777v-5.1084a24.56069,24.56069,0,0,0,3.62353.21777,2.654,2.654,0,0,0,2.40088-2.83691,3.78665,3.78665,0,0,0-.26221-1.39746l-7.94482-21.17188h6.63525l5.10791,15.45313h.08741l4.9331-15.45313h6.417Z"/><path class="cls-4" d="M819.53892,660.97947h13.44531c8.07617,0,14.14453,5.10742,14.14453,15.41015,0,9.03614-4.627,15.75977-14.14453,15.75977H819.53892Zm6.85351,25.40722h6.11231c3.97265,0,7.77051-2.44433,7.77051-9.34179,0-6.28711-2.22657-10.30274-8.99317-10.30274h-4.88965Z"/><path class="cls-4" d="M872.66392,671.457A6.80364,6.80364,0,0,0,865.85337,666c-6.15527,0-8.46875,5.23829-8.46875,10.69532,0,5.19531,2.31348,10.43359,8.46875,10.43359,4.19141,0,6.54883-2.83789,7.07227-6.98437h6.63574c-.69824,7.81445-6.02442,12.74707-13.708,12.74707-9.60352,0-15.32324-7.20313-15.32324-16.19629,0-9.25489,5.71972-16.458,15.32324-16.458,6.81055,0,12.61621,4.0166,13.44629,11.21973Z"/><path class="cls-4" d="M883.5311,677.56833h13.13965v5.32618H883.5311Z"/><path class="cls-4" d="M901.995,660.97947h13.44531c8.07618,0,14.14454,5.10742,14.14454,15.41015,0,9.03614-4.627,15.75977-14.14454,15.75977H901.995Zm6.85352,25.40722h6.1123c3.97266,0,7.77051-2.44433,7.77051-9.34179,0-6.28711-2.22656-10.30274-8.99316-10.30274h-4.88965Z"/><path class="cls-4" d="M955.12,671.457A6.80364,6.80364,0,0,0,948.30942,666c-6.15527,0-8.46875,5.23829-8.46875,10.69532,0,5.19531,2.31348,10.43359,8.46875,10.43359,4.19141,0,6.54883-2.83789,7.07227-6.98437h6.63574c-.69824,7.81445-6.02441,12.74707-13.708,12.74707-9.60351,0-15.32324-7.20313-15.32324-16.19629,0-9.25489,5.71973-16.458,15.32324-16.458,6.81055,0,12.61622,4.0166,13.44629,11.21973Z"/><path class="cls-5" d="M1120.10142,622.27341h11.9541c5.46094,0,8.36426,2.97852,8.36426,8.0586s-2.90332,8.09668-8.36426,8.05859h-8.32617v11.15234h-3.62793Zm3.62793,13.06153h7.10351c4.125.03808,5.958-1.75684,5.958-5.00293s-1.833-5.00293-5.958-5.00293h-7.10351Z"/><path class="cls-5" d="M1152.83189,629.33884c6.26367,0,9.58691,4.54492,9.58691,10.35059,0,5.7666-3.32324,10.31152-9.58691,10.31152s-9.58594-4.54492-9.58594-10.31152C1143.246,633.88376,1146.56821,629.33884,1152.83189,629.33884Zm0,17.79785c3.39941,0,6.14941-2.67382,6.14941-7.44726,0-4.77442-2.75-7.48633-6.14941-7.48633-3.39844,0-6.14844,2.71191-6.14844,7.48633C1146.68345,644.46287,1149.43345,647.13669,1152.83189,647.13669Z"/><path class="cls-5" d="M1185.79185,649.54294h-3.4375l-4.00977-15.69726h-.07715l-3.97168,15.69726h-3.51367l-6.33984-19.74609h3.58984l4.46875,16.15625h.07617l3.97266-16.15625h3.55176l4.125,16.15625h.07617l4.42969-16.15625h3.36132Z"/><path class="cls-5" d="M1212.02915,643.27927c-.87793,4.39258-3.97168,6.72168-8.44043,6.72168-6.30176,0-9.28125-4.3916-9.47168-10.38769,0-5.959,3.89551-10.27442,9.28125-10.27442,6.98926,0,9.12793,6.53125,8.93653,11.30567h-14.78028c-.11523,3.43652,1.833,6.49218,6.14844,6.49218,2.71191,0,4.54492-1.25976,5.11816-3.85742Zm-3.13183-5.5a5.68112,5.68112,0,0,0-5.69043-5.57617,5.59924,5.59924,0,0,0-5.65235,5.57617Z"/><path class="cls-5" d="M1215.58091,629.79685h3.05469v4.16309h.07715c1.56542-3.208,3.74218-4.73536,7.25585-4.6211v3.4375c-5.23242,0-7.1416,2.94043-7.1416,7.98242v8.78418h-3.24609Z"/><path class="cls-5" d="M1241.01743,643.31736c.11426,2.90234,2.67285,3.81933,5.3086,3.81933,2.02441,0,4.77441-.458,4.77441-2.94043,0-5.08007-12.90918-1.64257-12.90918-9.24316,0-3.97168,3.89551-5.61426,7.37109-5.61426,4.42969,0,7.791,1.375,8.09668,6.1875h-3.24609c-.19141-2.52051-2.4834-3.32324-4.584-3.32324-1.94727,0-4.20118.53516-4.20118,2.52148,0,2.291,3.4375,2.749,6.45508,3.43653,3.2461.72558,6.4541,1.834,6.4541,5.61426,0,4.73632-4.3916,6.22558-8.40234,6.22558-4.42969,0-8.17285-1.79492-8.36426-6.68359Z"/><path class="cls-5" d="M1274.47349,649.54294h-3.05567v-3.13183h-.07617a6.8353,6.8353,0,0,1-6.417,3.58984c-5.19336,0-6.79785-2.97851-6.79785-7.21777V629.79685h3.24609V643.165a3.70172,3.70172,0,0,0,4.01074,3.97168c3.9336,0,5.84375-2.63476,5.84375-6.1875V629.79685h3.2461Z"/><path class="cls-5" d="M1279.47642,629.79685h3.24707v2.67383h.07617c1.06934-2.17676,3.55176-3.13184,6.30176-3.13184,6.07226,0,9.08984,4.8125,9.08984,10.38867,0,5.61426-2.97949,10.27344-9.01367,10.27344-1.98633,0-4.96484-.76367-6.37793-3.09375h-.07617v10.19824h-3.24707Zm9.167,2.40625c-4.39258,0-6.03516,3.78125-6.03516,7.44824,0,3.85742,1.75684,7.48535,6.22559,7.48535,4.43066,0,5.91992-3.78125,5.91992-7.63867C1294.75376,635.79392,1292.84458,632.2031,1288.64341,632.2031Z"/><path class="cls-5" d="M1302.12388,629.79685h3.24707v2.67383h.07617c1.06934-2.17676,3.55176-3.13184,6.30176-3.13184,6.07226,0,9.08984,4.8125,9.08984,10.38867,0,5.61426-2.97949,10.27344-9.01367,10.27344-1.98633,0-4.96484-.76367-6.37793-3.09375h-.07617v10.19824h-3.24707Zm9.167,2.40625c-4.39258,0-6.03516,3.78125-6.03516,7.44824,0,3.85742,1.75684,7.48535,6.22559,7.48535,4.43066,0,5.91992-3.78125,5.91992-7.63867C1317.40122,635.79392,1315.492,632.2031,1311.29087,632.2031Z"/><path class="cls-5" d="M1324.84849,622.27341h3.24609v27.26953h-3.24609Z"/><path class="cls-5" d="M1340.88853,652.17869c-1.52735,3.81835-2.82618,5.2705-5.72852,5.2705a6.48494,6.48494,0,0,1-2.25391-.34375V654.126a6.63177,6.63177,0,0,0,1.91016.458,2.74855,2.74855,0,0,0,2.67285-1.79492l1.33692-3.36035-7.82911-19.63184h3.666l5.76758,16.15625h.07617l5.53809-16.15625h3.4375Z"/><path class="cls-5" d="M1119.96275,201.58689h9.35644c8.40234,0,13.10059,4.23926,13.10059,12.98535,0,9.12793-4.01075,14.28418-13.10059,14.28418h-9.35644Zm3.62792,24.21387h6.03418c2.48243,0,9.166-.6875,9.166-10.73145,0-6.49316-2.40527-10.42676-9.08984-10.42676h-6.11036Z"/><path class="cls-5" d="M1163.80747,228.78025a4.57254,4.57254,0,0,1-2.33008.53418c-1.67968,0-2.749-.916-2.749-3.05469a8.645,8.645,0,0,1-6.95117,3.05469c-3.59082,0-6.53125-1.56543-6.53125-5.53809,0-4.46777,3.32226-5.46094,6.68359-6.07226,3.55176-.72559,6.64551-.41993,6.64551-2.90235,0-2.86426-2.36816-3.28515-4.3916-3.28515-2.75,0-4.77442.84082-4.92774,3.74316h-3.24609c.19141-4.88867,3.93359-6.60742,8.36426-6.60742,3.55176,0,7.40918.80176,7.40918,5.42383v10.15918c0,1.52734,0,2.21484,1.03125,2.21484a3.25869,3.25869,0,0,0,.99316-.19043Zm-5.27051-10.1211c-2.5205,1.8711-9.85351.03809-9.85351,4.88868,0,2.13867,1.833,2.90234,3.81933,2.90234,4.27735,0,6.03418-2.63477,6.03418-4.46875Z"/><path class="cls-5" d="M1171.33091,209.11033h3.93359v2.86523h-3.93359v12.25977c0,1.52734.41992,1.75683,2.44434,1.75683h1.48925v2.86426h-2.48242c-3.36133,0-4.69726-.6875-4.69726-4.31543V211.97556h-3.36133v-2.86523h3.36133V203.1904h3.24609Z"/><path class="cls-5" d="M1196.34653,228.78025a4.57252,4.57252,0,0,1-2.33007.53418c-1.67969,0-2.749-.916-2.749-3.05469a8.645,8.645,0,0,1-6.95117,3.05469c-3.59082,0-6.53125-1.56543-6.53125-5.53809,0-4.46777,3.32227-5.46094,6.68359-6.07226,3.55176-.72559,6.64551-.41993,6.64551-2.90235,0-2.86426-2.36816-3.28515-4.3916-3.28515-2.75,0-4.77441.84082-4.92773,3.74316h-3.2461c.19141-4.88867,3.9336-6.60742,8.36426-6.60742,3.55176,0,7.40918.80176,7.40918,5.42383v10.15918c0,1.52734,0,2.21484,1.03125,2.21484a3.25869,3.25869,0,0,0,.99316-.19043Zm-5.2705-10.1211c-2.52051,1.8711-9.85352.03809-9.85352,4.88868,0,2.13867,1.833,2.90234,3.81934,2.90234,4.27734,0,6.03418-2.63477,6.03418-4.46875Z"/><path class="cls-5" d="M1210.51548,201.58689h9.8916c2.36817,0,5.61426,0,7.21875.99316a6.425,6.425,0,0,1,3.208,5.69043,6.25019,6.25019,0,0,1-4.04883,6.11133v.07617a6.27422,6.27422,0,0,1,5.19434,6.56934c0,3.97168-2.90235,7.8291-8.28809,7.8291h-13.17578Zm3.62793,11.72461h7.25684c4.125,0,5.80468-1.45117,5.80468-4.35352,0-3.81933-2.63476-4.31543-5.80468-4.31543h-7.25684Zm0,12.48926h9.08984c3.16992,0,5.11817-1.8711,5.11817-4.88868,0-3.55175-2.86524-4.54492-5.91992-4.54492h-8.28809Z"/><path class="cls-5" d="M1252.48911,228.85642h-3.05566v-3.13184h-.07617a6.83529,6.83529,0,0,1-6.417,3.58985c-5.19336,0-6.79785-2.97852-6.79785-7.21778V209.11033h3.2461v13.36816a3.70172,3.70172,0,0,0,4.01074,3.97168c3.93359,0,5.84375-2.63477,5.84375-6.1875V209.11033h3.24609Z"/><path class="cls-5" d="M1259.36314,222.63083c.11425,2.90235,2.67285,3.81934,5.30859,3.81934,2.02441,0,4.77441-.458,4.77441-2.94043,0-5.08008-12.90918-1.64258-12.90918-9.24316,0-3.97168,3.89551-5.61426,7.3711-5.61426,4.42969,0,7.791,1.375,8.09668,6.1875h-3.2461c-.1914-2.52051-2.48339-3.32324-4.584-3.32324-1.94727,0-4.20117.53515-4.20117,2.52148,0,2.291,3.4375,2.749,6.45508,3.43652,3.24609.72559,6.4541,1.834,6.4541,5.61426,0,4.73633-4.3916,6.22559-8.40235,6.22559-4.42968,0-8.17285-1.79492-8.36425-6.6836Z"/><path class="cls-4" d="M827.1854,243.96042h-7.76758l-6.02441-24.19775h-.09961l-5.9248,24.19775h-7.917l-9.40966-35.5498h7.81689l5.626,24.19775h.09961l6.17382-24.19775H817.078l6.07422,24.49658h.09961l5.82519-24.49658h7.668Z"/><path class="cls-4" d="M846.84849,214.2363h-7.07032v-5.82568h7.07032Zm-7.07032,3.98291h7.07032v25.74121h-7.07032Z"/><path class="cls-4" d="M857.90025,235.59568c0,3.03711,2.68945,4.332,5.42773,4.332,1.99121,0,4.62988-.79688,4.62988-3.28613,0-2.14112-2.9873-2.938-8.01562-3.9834-4.13282-.9458-8.166-2.29-8.166-6.8711,0-6.57177,5.67676-8.26464,11.20313-8.26464,5.57617,0,10.80371,1.8916,11.35156,8.21484h-6.72168c-.19922-2.73828-2.29-3.48486-4.8291-3.48486-1.59375,0-3.9336.24853-3.9336,2.38964,0,2.53956,4.03321,2.8877,8.01661,3.834,4.13183.9458,8.165,2.43945,8.165,7.21924,0,6.77148-5.9248,8.9624-11.75,8.9624-5.9746,0-11.85058-2.24072-12.09863-9.062Z"/><path class="cls-4" d="M903.60435,220.36033a7.75733,7.75733,0,0,0-7.7666-6.22364c-7.02051,0-9.65918,5.97461-9.65918,12.19825,0,5.9248,2.63867,11.8999,9.65918,11.8999,4.77929,0,7.46875-3.23633,8.06542-7.96631h7.56836c-.79687,8.91211-6.87109,14.53809-15.63378,14.53809-10.95411,0-17.47657-8.21485-17.47657-18.47168,0-10.55518,6.52246-18.77051,17.47657-18.77051,7.7666,0,14.38867,4.58056,15.335,12.7959Z"/><path class="cls-4" d="M928.54575,217.52244c8.11621,0,13.34375,5.377,13.34375,13.59228,0,8.16553-5.22754,13.543-13.34375,13.543-8.06543,0-13.29394-5.37744-13.29394-13.543C915.25181,222.89939,920.48032,217.52244,928.54575,217.52244Zm0,21.80761c4.83008,0,6.27344-4.083,6.27344-8.21533s-1.44336-8.26514-6.27344-8.26514c-4.77929,0-6.22363,4.13282-6.22363,8.26514S923.76646,239.33005,928.54575,239.33005Z"/><path class="cls-4" d="M946.46763,218.21921h6.72168V222.999h.09961a9.04837,9.04837,0,0,1,8.21484-5.47656,5.28916,5.28916,0,0,1,1.54395.24853v6.57227a12.90447,12.90447,0,0,0-2.53907-.249c-5.22851,0-6.9707,3.68457-6.9707,8.26514v11.60107h-7.07031Z"/><path class="cls-4" d="M971.659,232.80759c.19922,4.53076,2.34082,6.52246,6.32325,6.52246,2.83789,0,5.1289-1.74267,5.57714-3.33593h6.22364c-1.99219,6.124-6.22364,8.66357-12.04981,8.66357-8.11523,0-13.14355-5.57666-13.14355-13.543,0-7.71728,5.32715-13.59228,13.14355-13.59228,8.76367,0,13.04492,7.36865,12.49805,15.28515Zm11.502-4.481c-.64746-3.585-2.19141-5.477-5.627-5.477-4.58007,0-5.72558,3.48536-5.875,5.477Z"/><path class="cls-4" d="M805.77427,268.15378H816.7772l8.31543,24.44678h.09961l7.86621-24.44678h11.0039v35.54981H836.743V278.51023h-.09961l-8.71289,25.19336H821.9061l-8.71289-24.94434h-.09961v24.94434h-7.31933Z"/><path class="cls-4" d="M862.68052,277.2656c8.11621,0,13.34375,5.377,13.34375,13.59228,0,8.16553-5.22754,13.543-13.34375,13.543-8.06543,0-13.29395-5.37744-13.29395-13.543C849.38657,282.64255,854.61509,277.2656,862.68052,277.2656Zm0,21.80762c4.83008,0,6.27344-4.083,6.27344-8.21534s-1.44336-8.26513-6.27344-8.26513c-4.7793,0-6.22363,4.13281-6.22363,8.26513S857.90122,299.07322,862.68052,299.07322Z"/><path class="cls-4" d="M898.97349,300.41746h-.09961c-1.64258,2.78808-4.48047,3.98339-7.81641,3.98339-7.76758,0-11.55078-6.62207-11.55078-13.792,0-6.92041,3.833-13.34326,11.40137-13.34326a8.85728,8.85728,0,0,1,7.61816,3.8335h.09961V268.15378h7.06934v35.54981h-6.72168Zm-6.17383-17.82471c-4.62988,0-6.22363,4.0332-6.22363,8.21533,0,4.0332,1.84277,8.26514,6.22363,8.26514,4.63086,0,6.07422-4.083,6.07422-8.31494C898.87388,286.57615,897.38071,282.59275,892.79966,282.59275Z"/><path class="cls-4" d="M935.1688,303.70359h-6.72168v-3.585h-.14941a9.07144,9.07144,0,0,1-7.86719,4.28222c-7.51758,0-9.41016-4.23242-9.41016-10.60547v-15.833h7.07031V292.501c0,4.23193,1.19532,6.32324,4.53125,6.32324,3.833,0,5.47657-2.14111,5.47657-7.36865V277.96238h7.07031Z"/><path class="cls-4" d="M940.742,268.15378h7.07031v35.54981H940.742Z"/><path class="cls-4" d="M959.21275,292.55076c.19921,4.53076,2.34082,6.52246,6.32324,6.52246,2.83789,0,5.1289-1.74268,5.57715-3.33594h6.22363c-1.99219,6.124-6.22363,8.66357-12.04981,8.66357-8.11523,0-13.14355-5.57666-13.14355-13.543,0-7.71728,5.32715-13.59228,13.14355-13.59228,8.76368,0,13.04493,7.36865,12.49707,15.28516Zm11.50195-4.481c-.64746-3.585-2.19141-5.477-5.62695-5.477-4.58008,0-5.72559,3.48535-5.875,5.477Z"/><path class="cls-4" d="M1467.369,243.96042h-7.76758l-6.02442-24.19775h-.09961l-5.9248,24.19775h-7.916l-9.41015-35.5498h7.8164l5.626,24.19775h.09961l6.1748-24.19775h7.31836l6.0752,24.49658h.09961l5.82519-24.49658h7.667Z"/><path class="cls-4" d="M1487.03208,214.2363h-7.07031v-5.82568h7.07031Zm-7.07031,3.98291h7.07031v25.74121h-7.07031Z"/><path class="cls-4" d="M1498.08384,235.59568c0,3.03711,2.68945,4.332,5.42773,4.332,1.99121,0,4.62989-.79688,4.62989-3.28613,0-2.14112-2.98731-2.938-8.01563-3.9834-4.13281-.9458-8.166-2.29-8.166-6.8711,0-6.57177,5.67675-8.26464,11.20312-8.26464,5.57617,0,10.80371,1.8916,11.35156,8.21484h-6.72168c-.19922-2.73828-2.29-3.48486-4.8291-3.48486-1.59375,0-3.93359.24853-3.93359,2.38964,0,2.53956,4.0332,2.8877,8.0166,3.834,4.13184.9458,8.165,2.43945,8.165,7.21924,0,6.77148-5.92481,8.9624-11.75,8.9624-5.97461,0-11.85059-2.24072-12.09863-9.062Z"/><path class="cls-4" d="M1525.41587,232.16013c0,4.73,3.68457,6.57227,7.86719,6.57227,2.73828,0,6.9209-.79639,6.9209-4.43116,0-3.8833-5.37793-4.43115-10.55567-5.875-5.27734-1.29443-10.60547-3.53515-10.60547-10.10742,0-7.31885,6.8711-10.75439,13.29395-10.75439,7.41894,0,14.24023,3.23633,14.24023,11.45166h-7.56836c-.249-4.23242-3.23632-5.37744-7.0205-5.37744-2.48926,0-5.377,1.04541-5.377,4.0332,0,2.73828,1.69239,3.13672,10.60547,5.37695,2.63867.59766,10.55469,2.34033,10.55469,10.35645,0,6.52246-5.07813,11.40137-14.78711,11.40137-7.86719,0-15.28516-3.88331-15.13574-12.64649Z"/><path class="cls-4" d="M1557.47739,232.80759c.19922,4.53076,2.34082,6.52246,6.32325,6.52246,2.83789,0,5.1289-1.74267,5.57714-3.33593h6.22364c-1.99219,6.124-6.22364,8.66357-12.04981,8.66357-8.11523,0-13.14355-5.57666-13.14355-13.543,0-7.71728,5.32715-13.59228,13.14355-13.59228,8.76367,0,13.04492,7.36865,12.49707,15.28515Zm11.502-4.481c-.64746-3.585-2.19141-5.477-5.627-5.477-4.58007,0-5.72558,3.48536-5.875,5.477Z"/><path class="cls-4" d="M1580.22935,218.21921h6.72168v3.585h.14941a9.06868,9.06868,0,0,1,7.86719-4.28173c7.51758,0,9.41015,4.23193,9.41015,10.605v15.833h-7.07031V229.42185c0-4.23193-1.19531-6.32324-4.53125-6.32324-3.834,0-5.47656,2.14111-5.47656,7.36865v13.49316h-7.07031Z"/><path class="cls-4" d="M1615.22837,235.59568c0,3.03711,2.68945,4.332,5.42773,4.332,1.99122,0,4.62989-.79688,4.62989-3.28613,0-2.14112-2.98731-2.938-8.01563-3.9834-4.13281-.9458-8.166-2.29-8.166-6.8711,0-6.57177,5.67675-8.26464,11.20312-8.26464,5.57617,0,10.80371,1.8916,11.35156,8.21484h-6.72168c-.19921-2.73828-2.29-3.48486-4.8291-3.48486-1.59375,0-3.93359.24853-3.93359,2.38964,0,2.53956,4.0332,2.8877,8.0166,3.834,4.13184.9458,8.165,2.43945,8.165,7.21924,0,6.77148-5.9248,8.9624-11.75,8.9624-5.97461,0-11.85059-2.24072-12.09863-9.062Z"/><path class="cls-4" d="M1648.98325,217.52244c8.11621,0,13.34375,5.377,13.34375,13.59228,0,8.16553-5.22754,13.543-13.34375,13.543-8.06543,0-13.29394-5.37744-13.29394-13.543C1635.68931,222.89939,1640.91782,217.52244,1648.98325,217.52244Zm0,21.80761c4.83008,0,6.27344-4.083,6.27344-8.21533s-1.44336-8.26514-6.27344-8.26514c-4.77929,0-6.22363,4.13282-6.22363,8.26514S1644.204,239.33005,1648.98325,239.33005Z"/><path class="cls-4" d="M1666.90513,218.21921h6.72168V222.999h.09961a9.04837,9.04837,0,0,1,8.21484-5.47656,5.28916,5.28916,0,0,1,1.54395.24853v6.57227a12.90447,12.90447,0,0,0-2.53907-.249c-5.22851,0-6.9707,3.68457-6.9707,8.26514v11.60107h-7.07031Z"/><path class="cls-4" d="M1501.96665,282.24412c-.24805-7.96631,4.28223-14.09034,12.64649-14.09034,6.373,0,11.95019,4.083,11.95019,10.90381,0,10.55567-11.20312,11.40186-16.28125,18.57178h16.48047v6.07422h-25.5918c0-8.11572,4.97852-11.45166,11.00293-15.584,3.03711-2.14111,7.31934-4.23242,7.31934-8.51416a5.00529,5.00529,0,0,0-5.22754-5.37695c-4.18262,0-5.52734,4.33154-5.52734,8.01563Z"/><path class="cls-4" d="M1530.494,277.96238h6.72167v3.28613h.09961a8.51461,8.51461,0,0,1,7.668-3.98291c8.06543,0,11.7002,6.52246,11.7002,13.84131,0,6.87109-3.73438,13.29394-11.30274,13.29394a9.13562,9.13562,0,0,1-7.71679-3.88379h-.09961v12.248H1530.494Zm19.11914,12.94531c0-4.13232-1.64258-8.31494-6.17383-8.31494-4.62989,0-6.124,4.13281-6.124,8.31494s1.59375,8.16553,6.17383,8.16553C1548.12,299.07322,1549.61314,295.08982,1549.61314,290.90769Z"/><path class="cls-4" d="M1578.43931,287.0239c-.44824-2.9375-2.19141-4.43115-5.22852-4.43115-4.53027,0-6.02441,4.58056-6.02441,8.36474,0,3.73438,1.44433,8.11573,5.875,8.11573,3.33594,0,5.17871-2.04151,5.62695-5.228h6.82031c-.94531,6.82129-5.57617,10.55566-12.39746,10.55566-7.7666,0-12.99511-5.477-12.99511-13.19433,0-8.01612,4.78027-13.94092,13.14453-13.94092,6.07422,0,11.70117,3.18652,12.09863,9.7583Z"/><path class="cls-4" d="M1594.96665,295.33884c0,3.03711,2.68945,4.332,5.42774,4.332,1.99121,0,4.62988-.79687,4.62988-3.28613,0-2.14111-2.98731-2.938-8.01563-3.9834-4.13281-.9458-8.166-2.29-8.166-6.87109,0-6.57178,5.67676-8.26465,11.20312-8.26465,5.57617,0,10.80371,1.8916,11.35157,8.21484h-6.72168c-.19922-2.73828-2.29-3.48486-4.82911-3.48486-1.59375,0-3.93359.24854-3.93359,2.38965,0,2.53955,4.0332,2.88769,8.0166,3.834,4.13184.9458,8.165,2.43946,8.165,7.21924,0,6.77149-5.9248,8.9624-11.75,8.9624-5.97461,0-11.85058-2.24072-12.09863-9.062Z"/><path class="cls-4" d="M413.49888,260.54978a6.80277,6.80277,0,0,0-6.81006-5.45654c-6.15527,0-8.46924,5.23828-8.46924,10.69531,0,5.19531,2.314,10.43359,8.46924,10.43359,4.19092,0,6.54834-2.8374,7.07227-6.98486h6.63574c-.69873,7.81445-6.02442,12.74756-13.708,12.74756-9.604,0-15.32324-7.20313-15.32324-16.19629,0-9.25488,5.71924-16.458,15.32324-16.458,6.81006,0,12.61621,4.01611,13.4458,11.21924Z"/><path class="cls-4" d="M424.40952,250.07273h6.19922v11.74316h.13086a7.826,7.826,0,0,1,6.5918-3.75439c6.59228,0,8.251,3.71094,8.251,9.29883v13.88232h-6.19921V268.49509c0-3.71045-1.04737-5.54394-3.97266-5.54394-3.36133,0-4.80176,1.877-4.80176,6.46093v11.83057h-6.19922Z"/><path class="cls-4" d="M450.03208,265.61423c.34912-5.76269,5.54395-7.55273,10.60791-7.55273,4.49658,0,9.90967,1.00439,9.90967,6.41748v11.74316c0,2.05176.21826,4.10352.78613,5.02051h-6.28662a9.23606,9.23606,0,0,1-.43652-2.18262,10.286,10.286,0,0,1-7.59619,2.79395c-4.32178,0-7.68311-2.13916-7.68311-6.7666.0874-10.25928,15.2793-4.75879,15.01758-9.82276,0-2.61914-1.8335-3.05566-4.0166-3.05566-2.40088,0-3.88526.96045-4.10352,3.40527Zm14.31885,4.5835c-1.04785.917-3.23047.96045-5.15137,1.30957-1.9209.34961-3.667,1.04785-3.667,3.31787s1.78955,2.88135,3.79785,2.88135c4.8457,0,5.02051-3.79785,5.02051-5.19483Z"/><path class="cls-4" d="M475.349,258.67283h5.89355v4.19091h.0874a7.93355,7.93355,0,0,1,7.20313-4.80224,4.6249,4.6249,0,0,1,1.353.21826v5.7627a11.32083,11.32083,0,0,0-2.22608-.21827c-4.584,0-6.11182,3.23047-6.11182,7.24659v10.17187H475.349Z"/><path class="cls-4" d="M514.02573,279.80222c0,3.71045-1.35351,9.99707-11.6997,9.99707-4.45264,0-9.604-2.13916-9.95362-7.24707h6.15576c.56739,2.314,2.40088,3.09961,4.62745,3.09961,3.44873,0,5.02-2.314,4.97656-5.58789v-2.96875h-.0874a7.48479,7.48479,0,0,1-6.76661,3.49268c-6.81,0-9.64794-5.15137-9.64794-11.35059,0-5.84961,3.40527-11.17578,9.69189-11.17578,2.96826,0,5.19482,1.00439,6.72266,3.62353h.0874v-3.0122h5.89355Zm-5.89355-10.12842c0-3.667-1.26611-6.94092-5.28223-6.94092-3.49267,0-5.02051,3.05567-5.02051,6.417,0,3.231,1.17872,6.7666,5.02051,6.7666C506.38609,275.91648,508.13218,272.90427,508.13218,269.6738Z"/><path class="cls-4" d="M524.10679,271.46384c.1748,3.97266,2.05224,5.71875,5.54443,5.71875,2.48828,0,4.49658-1.52783,4.88965-2.9248h5.45654c-1.74609,5.36963-5.45654,7.59619-10.56445,7.59619-7.11572,0-11.5249-4.88965-11.5249-11.87451,0-6.7666,4.6709-11.918,11.5249-11.918,7.68359,0,11.4375,6.46094,10.95752,13.40234Zm10.08447-3.9292c-.56738-3.14306-1.9209-4.80176-4.9331-4.80176a4.85618,4.85618,0,0,0-5.15137,4.80176Z"/><path class="cls-4" d="M441.41294,312.93064a6.80277,6.80277,0,0,0-6.81006-5.45654c-6.15527,0-8.46924,5.23828-8.46924,10.69531,0,5.19531,2.314,10.43359,8.46924,10.43359,4.19092,0,6.54834-2.8374,7.07227-6.98486h6.63574c-.69873,7.81445-6.02441,12.74756-13.708,12.74756-9.604,0-15.32324-7.20313-15.32324-16.19629,0-9.25488,5.71924-16.458,15.32324-16.458,6.81006,0,12.61621,4.01611,13.4458,11.21924Z"/><path class="cls-4" d="M452.32359,302.45359h6.19921v11.74316h.13086a7.826,7.826,0,0,1,6.5918-3.75439c6.59229,0,8.251,3.71093,8.251,9.29883v13.88232h-6.19922V320.876c0-3.71045-1.04737-5.54394-3.97266-5.54394-3.36133,0-4.80176,1.87695-4.80176,6.46093v11.83057h-6.19921Z"/><path class="cls-4" d="M484.5814,307.561h-6.19873v-5.10742h6.19873Zm-6.19873,3.49268h6.19873v22.56982h-6.19873Z"/><path class="cls-4" d="M489.46958,311.05369h5.89356V313.935h.0874a7.46481,7.46481,0,0,1,6.72265-3.49267c7.07227,0,10.25928,5.71875,10.25928,12.13623,0,6.02441-3.27441,11.65625-9.91015,11.65625a8.01157,8.01157,0,0,1-6.76661-3.40528h-.08691v10.73926h-6.19922Zm16.76367,11.35058c0-3.62353-1.44043-7.29053-5.41308-7.29053-4.06006,0-5.36963,3.623-5.36963,7.29053,0,3.667,1.397,7.15918,5.41308,7.15918C504.92368,329.56345,506.23325,326.07126,506.23325,322.40427Z"/></g></g></svg>