<svg xmlns="http://www.w3.org/2000/svg" xmlns:xlink="http://www.w3.org/1999/xlink" viewBox="0 0 960.86281 639.99518"><defs><style>.cls-1,.cls-55,.cls-6,.cls-8{fill:none;}.cls-2{fill:#cfc5b9;}.cls-3{fill:#796d64;}.cls-4{fill:#6f7985;}.cls-5{fill:#242424;}.cls-6{stroke:#fff;stroke-linecap:round;stroke-width:3px;}.cls-55,.cls-6,.cls-8{stroke-miterlimit:10;}.cls-7{fill:#fff;}.cls-8{stroke:#000;}.cls-9{fill:#deaa53;}.cls-10{fill:#f2f3f6;}.cls-11{fill:#ffdb00;}.cls-12{fill:#e9f5ff;}.cls-13{fill:#242a38;}.cls-14{fill:#313c49;}.cls-15{fill:#1f232d;}.cls-16{fill:#bf8e40;}.cls-17{fill:#222630;}.cls-18{fill:#7c5e49;}.cls-19{fill:#232323;}.cls-20{fill:#fffffb;}.cls-21{fill:#cbd1cf;}.cls-22{clip-path:url(#clip-path);}.cls-23{clip-path:url(#clip-path-2);}.cls-24{fill:#e5e5e5;}.cls-25{fill:#b9752b;}.cls-26{clip-path:url(#clip-path-3);}.cls-27{clip-path:url(#clip-path-4);}.cls-28{clip-path:url(#clip-path-5);}.cls-29{clip-path:url(#clip-path-6);}.cls-30{clip-path:url(#clip-path-7);}.cls-31{clip-path:url(#clip-path-8);}.cls-32{clip-path:url(#clip-path-9);}.cls-33{clip-path:url(#clip-path-10);}.cls-34{clip-path:url(#clip-path-11);}.cls-35{clip-path:url(#clip-path-12);}.cls-36{fill:#70786a;}.cls-37{clip-path:url(#clip-path-13);}.cls-38{clip-path:url(#clip-path-14);}.cls-39{clip-path:url(#clip-path-15);}.cls-40{fill:#ca992c;}.cls-41{clip-path:url(#clip-path-17);}.cls-42{clip-path:url(#clip-path-19);}.cls-43{clip-path:url(#clip-path-21);}.cls-44{clip-path:url(#clip-path-22);}.cls-45{clip-path:url(#clip-path-23);}.cls-46{clip-path:url(#clip-path-24);}.cls-47{clip-path:url(#clip-path-25);}.cls-48{clip-path:url(#clip-path-26);}.cls-49{clip-path:url(#clip-path-27);}.cls-50{clip-path:url(#clip-path-28);}.cls-51{clip-path:url(#clip-path-29);}.cls-52{clip-path:url(#clip-path-30);}.cls-53{clip-path:url(#clip-path-31);}.cls-54{clip-path:url(#clip-path-32);}.cls-55{stroke:#ff2400;stroke-width:3.32064px;}.cls-56{fill:#ff2400;}</style><clipPath id="clip-path" transform="translate(-0.41992)"><rect class="cls-1" x="606.78273" y="285.99518" width="32.99765" height="16.95013"/></clipPath><clipPath id="clip-path-2" transform="translate(-0.41992)"><rect class="cls-1" x="606.78273" y="285.99518" width="32.99708" height="16.94942"/></clipPath><clipPath id="clip-path-3" transform="translate(-0.41992)"><rect class="cls-1" x="606.78273" y="260.99518" width="32.99765" height="16.95013"/></clipPath><clipPath id="clip-path-4" transform="translate(-0.41992)"><rect class="cls-1" x="606.78273" y="260.99518" width="32.99708" height="16.94942"/></clipPath><clipPath id="clip-path-5" transform="translate(-0.41992)"><rect class="cls-1" x="606.78273" y="236.99518" width="32.99765" height="16.95013"/></clipPath><clipPath id="clip-path-6" transform="translate(-0.41992)"><rect class="cls-1" x="606.78273" y="236.99518" width="32.99708" height="16.94942"/></clipPath><clipPath id="clip-path-7" transform="translate(-0.41992)"><rect class="cls-1" x="606.78273" y="213.99518" width="32.99765" height="16.95013"/></clipPath><clipPath id="clip-path-8" transform="translate(-0.41992)"><rect class="cls-1" x="606.78273" y="213.99518" width="32.99708" height="16.94942"/></clipPath><clipPath id="clip-path-9" transform="translate(-0.41992)"><rect class="cls-1" x="654.78274" y="154.99518" width="16.95013" height="32.99765"/></clipPath><clipPath id="clip-path-10" transform="translate(-0.41992)"><rect class="cls-1" x="654.78344" y="154.99518" width="16.94942" height="32.99708"/></clipPath><clipPath id="clip-path-11" transform="translate(-0.41992)"><rect class="cls-1" x="654.78274" y="110.99518" width="16.95013" height="32.99765"/></clipPath><clipPath id="clip-path-12" transform="translate(-0.41992)"><rect class="cls-1" x="654.78344" y="110.99518" width="16.94942" height="32.99708"/></clipPath><clipPath id="clip-path-13" transform="translate(-0.41992)"><rect class="cls-1" x="530.78274" y="193.99518" width="16.95013" height="32.99765"/></clipPath><clipPath id="clip-path-14" transform="translate(-0.41992)"><rect class="cls-1" x="530.78344" y="193.99518" width="16.94942" height="32.99708"/></clipPath><clipPath id="clip-path-15" transform="translate(-0.41992)"><rect class="cls-1" x="606.78273" y="192.06621" width="33" height="14.98594"/></clipPath><clipPath id="clip-path-17" transform="translate(-0.41992)"><rect class="cls-1" x="819.78273" y="287.99518" width="30.9628" height="14.8494"/></clipPath><clipPath id="clip-path-19" transform="translate(-0.41992)"><rect class="cls-1" x="570.78274" y="194.99518" width="14.8494" height="30.9628"/></clipPath><clipPath id="clip-path-21" transform="translate(-0.41992)"><rect class="cls-1" x="554.78273" y="310.99519" width="30.9628" height="14.8494"/></clipPath><clipPath id="clip-path-22" transform="translate(-0.41992)"><rect class="cls-1" x="554.78253" y="310.99558" width="30.963" height="14.849"/></clipPath><clipPath id="clip-path-23" transform="translate(-0.41992)"><rect class="cls-1" x="574.78273" y="92.99519" width="30.9628" height="14.8494"/></clipPath><clipPath id="clip-path-24" transform="translate(-0.41992)"><rect class="cls-1" x="574.78253" y="92.99558" width="30.963" height="14.849"/></clipPath><clipPath id="clip-path-25" transform="translate(-0.41992)"><rect class="cls-1" x="574.78273" y="67.99519" width="30.9628" height="14.8494"/></clipPath><clipPath id="clip-path-26" transform="translate(-0.41992)"><rect class="cls-1" x="574.78253" y="67.99558" width="30.963" height="14.849"/></clipPath><clipPath id="clip-path-27" transform="translate(-0.41992)"><rect class="cls-1" x="574.78273" y="43.99519" width="30.9628" height="14.8494"/></clipPath><clipPath id="clip-path-28" transform="translate(-0.41992)"><rect class="cls-1" x="574.78253" y="43.99558" width="30.963" height="14.849"/></clipPath><clipPath id="clip-path-29" transform="translate(-0.41992)"><rect class="cls-1" x="470.78273" y="57.99519" width="30.9628" height="14.8494"/></clipPath><clipPath id="clip-path-30" transform="translate(-0.41992)"><rect class="cls-1" x="470.78253" y="57.99558" width="30.963" height="14.849"/></clipPath><clipPath id="clip-path-31" transform="translate(-0.41992)"><rect class="cls-1" x="470.78273" y="5.99519" width="30.9628" height="14.8494"/></clipPath><clipPath id="clip-path-32" transform="translate(-0.41992)"><rect class="cls-1" x="470.78253" y="5.99558" width="30.963" height="14.849"/></clipPath></defs><g id="Layer_2" data-name="Layer 2"><g id="Layer_1-2" data-name="Layer 1"><path class="cls-2" d="M937.78273,145.56965h18.56718s4.43282-.57447,4.43282,6.42553v178s0,9-7.57609,9H937.78273Z" transform="translate(-0.41992)"/><rect class="cls-3" x="941.36281" y="158.49518" width="19.5" height="16"/><rect class="cls-3" x="941.36281" y="240.99518" width="19.5" height="4.5"/><path class="cls-4" d="M916.78273,438.99518l21-.95745s2-.04255,2-3.04255v-31s0-4-2-4l-21-1.53192Z" transform="translate(-0.41992)"/><path class="cls-3" d="M960.7027,150.02563c.03349.34216.053.71475.053,1.11848h-18.973v-4.156l15.60818.00616A3.33545,3.33545,0,0,1,960.7027,150.02563Z" transform="translate(-0.41992)"/><path class="cls-5" d="M936.78273,384.99518c5-1,5.78479-8,5.78479-8V21.21033C942.56752,2.42554,921.35719,0,921.35719,0H220.28273V260.97394l4.5,5.48926v22.85107l.00263.61584a32.00818,32.00818,0,0,1,.258,61.04358V378.2558l-4.76062,4.76062V639.99518h130v-151.5c0-18,20-18,20-18h233c16,0,18.84045,13,18.84045,13v156.5H921.78273c20,0,20-17,20-17v-159c0-10-8-11-8-11-5,0-8-10-8-10v-45C925.78273,387.99518,936.78273,384.99518,936.78273,384.99518Zm-691,201.5a11.5,11.5,0,1,1,11.5-11.5A11.5,11.5,0,0,1,245.78273,586.49518Zm0-53a11.5,11.5,0,1,1,11.5-11.5A11.5,11.5,0,0,1,245.78273,533.49518Zm0-56a11.5,11.5,0,1,1,11.5-11.5A11.5,11.5,0,0,1,245.78273,477.49518Zm0-53a11.5,11.5,0,1,1,11.5-11.5A11.5,11.5,0,0,1,245.78273,424.49518Zm0-203a11.5,11.5,0,1,1,11.5-11.5A11.5,11.5,0,0,1,245.78273,221.49518Zm0-56a11.5,11.5,0,1,1,11.5-11.5A11.5,11.5,0,0,1,245.78273,165.49518Zm0-53a11.5,11.5,0,1,1,11.5-11.5A11.5,11.5,0,0,1,245.78273,112.49518Zm0-56a11.5,11.5,0,1,1,11.5-11.5A11.5,11.5,0,0,1,245.78273,56.49518Zm614.5-5a30,30,0,1,1-30,30A30,30,0,0,1,860.28273,51.49518Zm.5,533a30,30,0,1,1,30-30A30,30,0,0,1,860.78273,584.49518Z" transform="translate(-0.41992)"/><g id="Labels_Back-RAK19003"><polyline class="cls-6" points="345.863 558.495 276.256 558.495 276.256 337.495 751.863 337.495 751.863 558.495 624.863 558.495"/><line class="cls-6" x1="484.08621" y1="337.49518" x2="484.08621" y2="369.27177"/><polyline class="cls-6" points="484.086 215.059 484.086 319.998 276.256 319.998 276.256 98.995 484.086 98.995 484.086 134.719"/><path class="cls-6" d="M514.66068,235.49518h78.20213a0,0,0,0,1,0,0v68a0,0,0,0,1,0,0h-82a0,0,0,0,1,0,0V239.29305A3.79787,3.79787,0,0,1,514.66068,235.49518Z"/><rect class="cls-6" x="550.86281" y="307.49518" width="38" height="22" rx="4.47872"/><rect class="cls-6" x="813.86281" y="284.49518" width="42" height="22" rx="4.70855"/><rect class="cls-6" x="643.28273" y="115.91623" width="40" height="23.15789" rx="4.71445" transform="translate(790.35799 -535.78755) rotate(90)"/><rect class="cls-6" x="697.78273" y="52.99518" width="42" height="45" rx="6.73414" transform="translate(793.85799 -643.28755) rotate(90)"/><rect class="cls-6" x="643.28273" y="159.91623" width="40" height="23.15789" rx="4.71445" transform="translate(834.35799 -491.78755) rotate(90)"/><rect class="cls-6" x="733.28273" y="151.91623" width="40" height="23.15789" rx="4.71445" transform="translate(916.35799 -589.78755) rotate(90)"/><rect class="cls-6" x="558.28273" y="198.91623" width="40" height="23.15789" rx="4.71445" transform="translate(788.35799 -367.78755) rotate(90)"/><rect class="cls-6" x="519.28273" y="198.91623" width="40" height="23.15789" rx="4.71445" transform="translate(749.35799 -328.78755) rotate(90)"/><rect class="cls-6" x="466.28273" y="53.91623" width="40" height="23.15789" rx="4.71445" transform="translate(972.14554 130.99036) rotate(180)"/><rect class="cls-6" x="466.28273" y="1.91623" width="40" height="23.15789" rx="4.71445" transform="translate(972.14554 26.99036) rotate(180)"/><rect class="cls-6" x="570.86281" y="39.49518" width="40" height="72"/><line class="cls-6" x1="570.86281" y1="88.49518" x2="610.86281" y2="88.49518"/><line class="cls-6" x1="610.86281" y1="63.49518" x2="570.86281" y2="63.49518"/><rect class="cls-6" x="602.86281" y="188.49518" width="40" height="117"/><rect class="cls-6" x="652.86281" y="212.49518" width="39" height="99"/><line class="cls-6" x1="602.86281" y1="282.49518" x2="642.86281" y2="282.49518"/><line class="cls-6" x1="642.86281" y1="258.49518" x2="602.86281" y2="258.49518"/><line class="cls-6" x1="602.86281" y1="234.49518" x2="642.86281" y2="234.49518"/><line class="cls-6" x1="642.86281" y1="210.49518" x2="602.86281" y2="210.49518"/><line class="cls-6" x1="717.86281" y1="54.49518" x2="717.86281" y2="96.49518"/><line class="cls-6" x1="823.86281" y1="280.49518" x2="861.86281" y2="280.49518"/><line class="cls-6" x1="823.86281" y1="210.49518" x2="861.86281" y2="210.49518"/><line class="cls-6" x1="710.86281" y1="199.49518" x2="769.86281" y2="199.49518"/><line class="cls-6" x1="700.86281" y1="177.49518" x2="714.86281" y2="177.49518"/><line class="cls-6" x1="739.86281" y1="123.49518" x2="739.86281" y2="174.49518"/><line class="cls-6" x1="710.86281" y1="241.49518" x2="769.86281" y2="241.49518"/><line class="cls-6" x1="710.86281" y1="260.49518" x2="769.86281" y2="260.49518"/><line class="cls-6" x1="710.86281" y1="303.49518" x2="769.86281" y2="303.49518"/><polygon class="cls-7" points="506.438 247.495 500.9 253.745 495.363 259.995 495.363 247.495 495.363 234.995 500.9 241.245 506.438 247.495"/><path class="cls-7" d="M495.22949,326.76887c.103-1.25488-.144-3.06543-1.78955-3.06543a1.9004,1.9004,0,0,0-1.91308,2.03711c0,1.48047,1.09033,2.24121,2.57128,2.2207v2.77735a4.773,4.773,0,0,1-4.97753-4.97754c0-2.30371,1.41894-4.834,3.99023-4.834a2.86284,2.86284,0,0,1,2.94141,2.01563h.041a3.20124,3.20124,0,0,1,3.27051-2.55078c3.02344,0,4.731,2.55078,4.731,5.34863,0,3.22852-1.9336,5.40918-5.24512,5.34766v-2.77735c1.563-.06152,2.83838-.84277,2.83838-2.52929a2.21423,2.21423,0,0,0-2.2627-2.34473c-2.18017,0-2.13916,1.91211-2.13916,3.332Z" transform="translate(-0.41992)"/><path class="cls-7" d="M503.80664,311.77473v3.64062l-14.686,4.77149v-3.332l10.32519-3.27051v-.041l-10.32519-3.31152v-3.332Z" transform="translate(-0.41992)"/><path class="cls-7" d="M495.22949,302.37532c.103-1.25489-.144-3.06543-1.78955-3.06543a1.9004,1.9004,0,0,0-1.91308,2.03711c0,1.48046,1.09033,2.24121,2.57128,2.2207V306.345a4.77354,4.77354,0,0,1-4.97753-4.97754c0-2.30371,1.41894-4.834,3.99023-4.834a2.86284,2.86284,0,0,1,2.94141,2.01562h.041a3.20125,3.20125,0,0,1,3.27051-2.55078c3.02344,0,4.731,2.55078,4.731,5.34864,0,3.22851-1.9336,5.40917-5.24512,5.34765v-2.77734c1.563-.06153,2.83838-.84278,2.83838-2.5293a2.21423,2.21423,0,0,0-2.2627-2.34473c-2.18017,0-2.13916,1.91211-2.13916,3.332Z" transform="translate(-0.41992)"/><path class="cls-7" d="M505.34912,295.62922V285.345h1.02881v10.28418Z" transform="translate(-0.41992)"/><path class="cls-7" d="M498.93164,281.72492c1.9541,0,2.71533-1.52246,2.71533-3.25,0-1.13085-.3291-2.85937-1.83056-2.85937-1.6045,0-1.83057,2.22168-2.42725,4.36133-.53467,2.17969-1.46045,4.38086-4.17529,4.38086-3.02393,0-4.44287-2.83887-4.44287-5.49219,0-3.06445,1.33691-5.88281,4.73046-5.88281v3.127c-1.748.10254-2.22119,1.33691-2.22119,2.90039,0,1.02832.43213,2.22168,1.666,2.22168,1.13135,0,1.2959-.70019,2.22119-4.38184.24707-1.08984.9668-4.36035,4.27832-4.36035,2.69482,0,4.71045,2.09766,4.71045,6.10938,0,3.249-1.60449,6.31445-5.22461,6.252Z" transform="translate(-0.41992)"/><path class="cls-7" d="M621.19092,316.71784c1.25488.103,3.06543-.144,3.06543-1.78955a1.9004,1.9004,0,0,0-2.03711-1.91308c-1.48047,0-2.24121,1.09033-2.2207,2.57129h-2.77735a4.773,4.773,0,0,1,4.97754-4.97754c2.30371,0,4.834,1.41894,4.834,3.99023a2.86284,2.86284,0,0,1-2.01562,2.94141v.041a3.20125,3.20125,0,0,1,2.55078,3.27051c0,3.02344-2.55078,4.731-5.34863,4.731-3.22852,0-5.40918-1.93359-5.34766-5.24512h2.77735c.06152,1.563.84277,2.83838,2.52929,2.83838a2.21423,2.21423,0,0,0,2.34473-2.26269c0-2.18018-1.91211-2.13916-3.332-2.13916Z" transform="translate(-0.41992)"/><path class="cls-7" d="M636.18506,325.295h-3.64063L627.773,310.609h3.332l3.27051,10.32519h.041L637.728,310.609h3.332Z" transform="translate(-0.41992)"/><path class="cls-7" d="M645.58447,316.71784c1.25489.103,3.06543-.144,3.06543-1.78955a1.9004,1.9004,0,0,0-2.03711-1.91308c-1.48047,0-2.24121,1.09033-2.2207,2.57129h-2.77734a4.77353,4.77353,0,0,1,4.97754-4.97754c2.30371,0,4.834,1.41894,4.834,3.99023a2.86284,2.86284,0,0,1-2.01563,2.94141v.041a3.20124,3.20124,0,0,1,2.55079,3.27051c0,3.02344-2.55079,4.731-5.34864,4.731-3.22851,0-5.40918-1.93359-5.34765-5.24512h2.77734c.06152,1.563.84277,2.83838,2.5293,2.83838a2.21422,2.21422,0,0,0,2.34472-2.26269c0-2.18018-1.91211-2.13916-3.332-2.13916Z" transform="translate(-0.41992)"/></g><circle class="cls-8" cx="860.36281" cy="554.49518" r="30"/><circle class="cls-8" cx="245.36281" cy="44.99518" r="11.5"/><circle class="cls-8" cx="245.36281" cy="574.99518" r="11.5"/><path class="cls-9" d="M229.28273,558.49518v34h34v-34Zm16.5,28a11.5,11.5,0,1,1,11.5-11.5A11.5,11.5,0,0,1,245.78273,586.49518Z" transform="translate(-0.41992)"/><path class="cls-9" d="M245.78273,504.49518a17.5,17.5,0,1,0,17.5,17.5A17.5,17.5,0,0,0,245.78273,504.49518Zm0,29a11.5,11.5,0,1,1,11.5-11.5A11.5,11.5,0,0,1,245.78273,533.49518Z" transform="translate(-0.41992)"/><path class="cls-9" d="M245.78273,448.49518a17.5,17.5,0,1,0,17.5,17.5A17.5,17.5,0,0,0,245.78273,448.49518Zm0,29a11.5,11.5,0,1,1,11.5-11.5A11.5,11.5,0,0,1,245.78273,477.49518Z" transform="translate(-0.41992)"/><path class="cls-9" d="M245.78273,395.49518a17.5,17.5,0,1,0,17.5,17.5A17.5,17.5,0,0,0,245.78273,395.49518Zm0,29a11.5,11.5,0,1,1,11.5-11.5A11.5,11.5,0,0,1,245.78273,424.49518Z" transform="translate(-0.41992)"/><path class="cls-9" d="M245.78273,192.49518a17.5,17.5,0,1,0,17.5,17.5A17.5,17.5,0,0,0,245.78273,192.49518Zm0,29a11.5,11.5,0,1,1,11.5-11.5A11.5,11.5,0,0,1,245.78273,221.49518Z" transform="translate(-0.41992)"/><path class="cls-9" d="M245.78273,136.49518a17.5,17.5,0,1,0,17.5,17.5A17.5,17.5,0,0,0,245.78273,136.49518Zm0,29a11.5,11.5,0,1,1,11.5-11.5A11.5,11.5,0,0,1,245.78273,165.49518Z" transform="translate(-0.41992)"/><path class="cls-9" d="M245.78273,83.49518a17.5,17.5,0,1,0,17.5,17.5A17.5,17.5,0,0,0,245.78273,83.49518Zm0,29a11.5,11.5,0,1,1,11.5-11.5A11.5,11.5,0,0,1,245.78273,112.49518Z" transform="translate(-0.41992)"/><path class="cls-9" d="M229.28273,28.49518v34h34v-34Zm16.5,28a11.5,11.5,0,1,1,11.5-11.5A11.5,11.5,0,0,1,245.78273,56.49518Z" transform="translate(-0.41992)"/><path class="cls-9" d="M860.28273,25.49518a56,56,0,1,0,56,56A56,56,0,0,0,860.28273,25.49518Zm0,86a30,30,0,1,1,30-30A30,30,0,0,1,860.28273,111.49518Z" transform="translate(-0.41992)"/><path class="cls-9" d="M860.28273,498.49518a56,56,0,1,0,56,56A56,56,0,0,0,860.28273,498.49518Zm.5,86a30,30,0,1,1,30-30A30,30,0,0,1,860.78273,584.49518Z" transform="translate(-0.41992)"/><path class="cls-9" d="M656.78273,564.99518a36.00754,36.00754,0,0,0-34,24.167v23.666a36.00012,36.00012,0,1,0,34-47.833Z" transform="translate(-0.41992)"/><path class="cls-9" d="M224.78273,265.99518v25.73633a31.06008,31.06008,0,0,1,0,59.05664v26.98877a57.76676,57.76676,0,0,0,43.75-56.03174C268.53273,294.41852,250.27925,271.99213,224.78273,265.99518Z" transform="translate(-0.41992)"/><circle class="cls-10" cx="656.36281" cy="600.99518" r="25"/><circle class="cls-11" cx="655.86281" cy="601.49518" r="9"/><circle class="cls-10" cx="739.36281" cy="411.99518" r="36"/><circle class="cls-9" cx="739.36281" cy="411.99518" r="25"/><circle class="cls-11" cx="738.86281" cy="412.49518" r="9"/><circle class="cls-10" cx="469.36281" cy="411.99518" r="36"/><circle class="cls-9" cx="469.36281" cy="411.99518" r="25"/><circle class="cls-11" cx="468.86281" cy="412.49518" r="9"/><path class="cls-9" d="M350.78273,586.60406a36,36,0,1,0,0,28.78223Z" transform="translate(-0.41992)"/><circle class="cls-10" cx="317.36281" cy="600.99518" r="25"/><circle class="cls-11" cx="316.86281" cy="601.49518" r="9"/><circle class="cls-10" cx="469.36281" cy="172.99518" r="36"/><circle class="cls-9" cx="469.36281" cy="172.99518" r="25"/><circle class="cls-11" cx="468.86281" cy="173.49518" r="9"/><circle class="cls-9" cx="656.36281" cy="40.99518" r="36"/><circle class="cls-10" cx="656.36281" cy="40.99518" r="25"/><circle class="cls-11" cx="655.86281" cy="41.49518" r="9"/><circle class="cls-9" cx="312.36281" cy="40.99518" r="36"/><circle class="cls-10" cx="312.36281" cy="40.99518" r="25"/><circle class="cls-11" cx="311.86281" cy="41.49518" r="9"/><rect class="cls-12" x="278.7855" y="367.33546" width="67.98921" height="22.0124"/><path class="cls-12" d="M279.20478,400.49687v-1.62752a2.27335,2.27335,0,0,1,2.27337-2.27339h63.44248a2.27334,2.27334,0,0,1,2.27336,2.27339v1.62752a2.27229,2.27229,0,0,1-2.27336,2.27336H281.47815a2.2723,2.2723,0,0,1-2.27337-2.27336" transform="translate(-0.41992)"/><path class="cls-12" d="M279.20478,409.80408v-1.62752a2.27231,2.27231,0,0,1,2.27337-2.27339h63.44248a2.2723,2.2723,0,0,1,2.27336,2.27339v1.62752a2.27333,2.27333,0,0,1-2.27336,2.27334H281.47815a2.27333,2.27333,0,0,1-2.27337-2.27334" transform="translate(-0.41992)"/><path class="cls-12" d="M279.20478,419.11107v-1.62913a2.27335,2.27335,0,0,1,2.27337-2.2734h63.44248a2.27334,2.27334,0,0,1,2.27336,2.2734v1.62913a2.27333,2.27333,0,0,1-2.27336,2.27334H281.47815a2.27333,2.27333,0,0,1-2.27337-2.27334" transform="translate(-0.41992)"/><path class="cls-12" d="M279.20478,428.41668v-1.62751a2.27335,2.27335,0,0,1,2.27337-2.27339h63.44248a2.27334,2.27334,0,0,1,2.27336,2.27339v1.62751a2.27333,2.27333,0,0,1-2.27336,2.27335H281.47815a2.27334,2.27334,0,0,1-2.27337-2.27335" transform="translate(-0.41992)"/><path class="cls-12" d="M279.20478,437.72387v-1.62751a2.27369,2.27369,0,0,1,2.27337-2.275h63.44248a2.27368,2.27368,0,0,1,2.27336,2.275v1.62751a2.27332,2.27332,0,0,1-2.27336,2.27334H281.47815a2.27333,2.27333,0,0,1-2.27337-2.27334" transform="translate(-0.41992)"/><path class="cls-12" d="M279.20478,447.02944v-1.62751a2.27334,2.27334,0,0,1,2.27337-2.27339h63.44248a2.27333,2.27333,0,0,1,2.27336,2.27339v1.62751a2.27367,2.27367,0,0,1-2.27336,2.275H281.47815a2.27368,2.27368,0,0,1-2.27337-2.275" transform="translate(-0.41992)"/><path class="cls-12" d="M279.20478,456.33663v-1.62752a2.27335,2.27335,0,0,1,2.27337-2.27339h63.44248a2.27334,2.27334,0,0,1,2.27336,2.27339v1.62752a2.27333,2.27333,0,0,1-2.27336,2.27334H281.47815a2.27333,2.27333,0,0,1-2.27337-2.27334" transform="translate(-0.41992)"/><path class="cls-12" d="M279.20478,465.64367v-1.62914a2.27335,2.27335,0,0,1,2.27337-2.27339h63.44248a2.27334,2.27334,0,0,1,2.27336,2.27339v1.62914a2.27333,2.27333,0,0,1-2.27336,2.27334H281.47815a2.27333,2.27333,0,0,1-2.27337-2.27334" transform="translate(-0.41992)"/><path class="cls-12" d="M279.20478,474.94923v-1.62751a2.27335,2.27335,0,0,1,2.27337-2.27339h63.44248a2.27334,2.27334,0,0,1,2.27336,2.27339v1.62751a2.27228,2.27228,0,0,1-2.27336,2.27334H281.47815a2.27229,2.27229,0,0,1-2.27337-2.27334" transform="translate(-0.41992)"/><path class="cls-12" d="M279.20478,484.25642v-1.62751a2.2723,2.2723,0,0,1,2.27337-2.27339h63.44248a2.27229,2.27229,0,0,1,2.27336,2.27339v1.62751a2.27332,2.27332,0,0,1-2.27336,2.27334H281.47815a2.27333,2.27333,0,0,1-2.27337-2.27334" transform="translate(-0.41992)"/><path class="cls-12" d="M279.20478,493.56361v-1.62913a2.27335,2.27335,0,0,1,2.27337-2.2734h63.44248a2.27334,2.27334,0,0,1,2.27336,2.2734v1.62913a2.27333,2.27333,0,0,1-2.27336,2.27334H281.47815a2.27333,2.27333,0,0,1-2.27337-2.27334" transform="translate(-0.41992)"/><path class="cls-12" d="M279.20478,502.86918v-1.62752a2.27335,2.27335,0,0,1,2.27337-2.27339h63.44248a2.27334,2.27334,0,0,1,2.27336,2.27339v1.62752a2.27333,2.27333,0,0,1-2.27336,2.27334H281.47815a2.27333,2.27333,0,0,1-2.27337-2.27334" transform="translate(-0.41992)"/><rect class="cls-12" x="278.7855" y="507.98118" width="67.98921" height="22.01399"/><rect class="cls-13" x="288.98597" y="368.49703" width="44.20633" height="160.53895"/><rect class="cls-14" x="326.39144" y="368.49703" width="6.80085" height="160.53895"/><rect class="cls-14" x="288.98597" y="368.49703" width="7.33747" height="160.53895"/><rect class="cls-14" x="289.88087" y="368.49865" width="12.88675" height="5.1894"/><rect class="cls-14" x="319.94888" y="368.49865" width="12.88675" height="5.1894"/><rect class="cls-14" x="289.88087" y="523.84657" width="12.88675" height="5.18942"/><rect class="cls-14" x="319.94888" y="523.84657" width="12.88675" height="5.18942"/><rect class="cls-15" x="304.01919" y="377.44596" width="15.0332" height="151.59003"/><rect class="cls-16" x="297.5766" y="397.93849" width="27.91997" height="3.57956"/><rect class="cls-16" x="297.5766" y="407.20071" width="27.91997" height="3.57956"/><rect class="cls-16" x="297.5766" y="416.46127" width="27.91997" height="3.57956"/><rect class="cls-16" x="297.5766" y="425.7235" width="27.91997" height="3.57956"/><rect class="cls-16" x="297.5766" y="434.98567" width="27.91997" height="3.57956"/><rect class="cls-16" x="297.5766" y="444.24628" width="27.91997" height="3.57956"/><rect class="cls-16" x="297.5766" y="453.50846" width="27.91997" height="3.58118"/><rect class="cls-16" x="297.5766" y="462.77068" width="27.91997" height="3.58118"/><rect class="cls-16" x="297.5766" y="472.03129" width="27.91997" height="3.58118"/><rect class="cls-16" x="297.5766" y="481.29347" width="27.91997" height="3.58118"/><rect class="cls-16" x="297.5766" y="490.55731" width="27.91997" height="3.57956"/><rect class="cls-16" x="297.5766" y="499.81787" width="27.91997" height="3.57956"/><rect class="cls-17" x="304.01919" y="391.76419" width="15.0332" height="112.39478"/><rect class="cls-18" x="325.49657" y="398.38672" width="5.54769" height="2.68468"/><rect class="cls-18" x="325.49657" y="407.64733" width="5.54769" height="2.68466"/><rect class="cls-18" x="325.49657" y="416.90955" width="5.54769" height="2.68466"/><rect class="cls-18" x="325.49657" y="426.17173" width="5.54769" height="2.68466"/><rect class="cls-18" x="325.49657" y="435.43234" width="5.54769" height="2.68466"/><rect class="cls-18" x="325.49657" y="444.69456" width="5.54769" height="2.68466"/><rect class="cls-18" x="325.49657" y="453.95674" width="5.54769" height="2.68466"/><rect class="cls-18" x="325.49657" y="463.21735" width="5.54769" height="2.68466"/><rect class="cls-18" x="325.49657" y="472.48114" width="5.54769" height="2.68466"/><rect class="cls-18" x="325.49657" y="481.74337" width="5.54769" height="2.68466"/><rect class="cls-18" x="325.49657" y="491.00393" width="5.54769" height="2.68466"/><rect class="cls-18" x="325.49657" y="500.26615" width="5.54769" height="2.68466"/><rect class="cls-18" x="292.02894" y="398.38672" width="5.54769" height="2.68468"/><rect class="cls-18" x="292.02894" y="407.64733" width="5.54769" height="2.68466"/><rect class="cls-18" x="292.02894" y="416.90955" width="5.54769" height="2.68466"/><rect class="cls-18" x="292.02894" y="426.17173" width="5.54769" height="2.68466"/><rect class="cls-18" x="292.02894" y="435.43234" width="5.54769" height="2.68466"/><rect class="cls-18" x="292.02894" y="444.69456" width="5.54769" height="2.68466"/><rect class="cls-18" x="292.02894" y="453.95674" width="5.54769" height="2.68466"/><rect class="cls-18" x="292.02894" y="463.21735" width="5.54769" height="2.68466"/><rect class="cls-18" x="292.02894" y="472.48114" width="5.54769" height="2.68466"/><rect class="cls-18" x="292.02894" y="481.74337" width="5.54769" height="2.68466"/><rect class="cls-18" x="292.02894" y="491.00393" width="5.54769" height="2.68466"/><rect class="cls-18" x="292.02894" y="500.26615" width="5.54769" height="2.68466"/><rect class="cls-12" x="278.7855" y="129.33546" width="67.98921" height="22.0124"/><path class="cls-12" d="M279.20478,162.49687v-1.62752a2.27335,2.27335,0,0,1,2.27337-2.27339h63.44248a2.27334,2.27334,0,0,1,2.27336,2.27339v1.62752a2.27229,2.27229,0,0,1-2.27336,2.27336H281.47815a2.2723,2.2723,0,0,1-2.27337-2.27336" transform="translate(-0.41992)"/><path class="cls-12" d="M279.20478,171.80408v-1.62752a2.27231,2.27231,0,0,1,2.27337-2.27339h63.44248a2.2723,2.2723,0,0,1,2.27336,2.27339v1.62752a2.27333,2.27333,0,0,1-2.27336,2.27334H281.47815a2.27333,2.27333,0,0,1-2.27337-2.27334" transform="translate(-0.41992)"/><path class="cls-12" d="M279.20478,181.11107v-1.62913a2.27335,2.27335,0,0,1,2.27337-2.2734h63.44248a2.27334,2.27334,0,0,1,2.27336,2.2734v1.62913a2.27333,2.27333,0,0,1-2.27336,2.27334H281.47815a2.27333,2.27333,0,0,1-2.27337-2.27334" transform="translate(-0.41992)"/><path class="cls-12" d="M279.20478,190.41668v-1.62751a2.27335,2.27335,0,0,1,2.27337-2.27339h63.44248a2.27334,2.27334,0,0,1,2.27336,2.27339v1.62751a2.27333,2.27333,0,0,1-2.27336,2.27335H281.47815a2.27334,2.27334,0,0,1-2.27337-2.27335" transform="translate(-0.41992)"/><path class="cls-12" d="M279.20478,199.72387v-1.62751a2.27369,2.27369,0,0,1,2.27337-2.275h63.44248a2.27368,2.27368,0,0,1,2.27336,2.275v1.62751a2.27332,2.27332,0,0,1-2.27336,2.27334H281.47815a2.27333,2.27333,0,0,1-2.27337-2.27334" transform="translate(-0.41992)"/><path class="cls-12" d="M279.20478,209.02944v-1.62751a2.27334,2.27334,0,0,1,2.27337-2.27339h63.44248a2.27333,2.27333,0,0,1,2.27336,2.27339v1.62751a2.27367,2.27367,0,0,1-2.27336,2.275H281.47815a2.27368,2.27368,0,0,1-2.27337-2.275" transform="translate(-0.41992)"/><path class="cls-12" d="M279.20478,218.33663v-1.62752a2.27335,2.27335,0,0,1,2.27337-2.27339h63.44248a2.27334,2.27334,0,0,1,2.27336,2.27339v1.62752a2.27333,2.27333,0,0,1-2.27336,2.27334H281.47815a2.27333,2.27333,0,0,1-2.27337-2.27334" transform="translate(-0.41992)"/><path class="cls-12" d="M279.20478,227.64367v-1.62914a2.27335,2.27335,0,0,1,2.27337-2.27339h63.44248a2.27334,2.27334,0,0,1,2.27336,2.27339v1.62914a2.27333,2.27333,0,0,1-2.27336,2.27334H281.47815a2.27333,2.27333,0,0,1-2.27337-2.27334" transform="translate(-0.41992)"/><path class="cls-12" d="M279.20478,236.94923v-1.62751a2.27335,2.27335,0,0,1,2.27337-2.27339h63.44248a2.27334,2.27334,0,0,1,2.27336,2.27339v1.62751a2.27228,2.27228,0,0,1-2.27336,2.27334H281.47815a2.27229,2.27229,0,0,1-2.27337-2.27334" transform="translate(-0.41992)"/><path class="cls-12" d="M279.20478,246.25642v-1.62751a2.2723,2.2723,0,0,1,2.27337-2.27339h63.44248a2.27229,2.27229,0,0,1,2.27336,2.27339v1.62751a2.27332,2.27332,0,0,1-2.27336,2.27334H281.47815a2.27333,2.27333,0,0,1-2.27337-2.27334" transform="translate(-0.41992)"/><path class="cls-12" d="M279.20478,255.56361v-1.62913a2.27335,2.27335,0,0,1,2.27337-2.2734h63.44248a2.27334,2.27334,0,0,1,2.27336,2.2734v1.62913a2.27333,2.27333,0,0,1-2.27336,2.27334H281.47815a2.27333,2.27333,0,0,1-2.27337-2.27334" transform="translate(-0.41992)"/><path class="cls-12" d="M279.20478,264.86918v-1.62752a2.27335,2.27335,0,0,1,2.27337-2.27339h63.44248a2.27334,2.27334,0,0,1,2.27336,2.27339v1.62752a2.27333,2.27333,0,0,1-2.27336,2.27334H281.47815a2.27333,2.27333,0,0,1-2.27337-2.27334" transform="translate(-0.41992)"/><rect class="cls-12" x="278.7855" y="269.98118" width="67.98921" height="22.01399"/><rect class="cls-13" x="288.98597" y="130.49703" width="44.20633" height="160.53895"/><rect class="cls-14" x="326.39144" y="130.49703" width="6.80085" height="160.53895"/><rect class="cls-14" x="288.98597" y="130.49703" width="7.33747" height="160.53895"/><rect class="cls-14" x="289.88087" y="130.49865" width="12.88675" height="5.1894"/><rect class="cls-14" x="319.94888" y="130.49865" width="12.88675" height="5.1894"/><rect class="cls-14" x="289.88087" y="285.84657" width="12.88675" height="5.18942"/><rect class="cls-14" x="319.94888" y="285.84657" width="12.88675" height="5.18942"/><rect class="cls-15" x="304.01919" y="139.44596" width="15.0332" height="151.59003"/><rect class="cls-16" x="297.5766" y="159.93849" width="27.91997" height="3.57956"/><rect class="cls-16" x="297.5766" y="169.20071" width="27.91997" height="3.57956"/><rect class="cls-16" x="297.5766" y="178.46127" width="27.91997" height="3.57956"/><rect class="cls-16" x="297.5766" y="187.7235" width="27.91997" height="3.57956"/><rect class="cls-16" x="297.5766" y="196.98567" width="27.91997" height="3.57956"/><rect class="cls-16" x="297.5766" y="206.24628" width="27.91997" height="3.57956"/><rect class="cls-16" x="297.5766" y="215.50846" width="27.91997" height="3.58118"/><rect class="cls-16" x="297.5766" y="224.77068" width="27.91997" height="3.58118"/><rect class="cls-16" x="297.5766" y="234.03129" width="27.91997" height="3.58118"/><rect class="cls-16" x="297.5766" y="243.29347" width="27.91997" height="3.58118"/><rect class="cls-16" x="297.5766" y="252.55731" width="27.91997" height="3.57956"/><rect class="cls-16" x="297.5766" y="261.81787" width="27.91997" height="3.57956"/><rect class="cls-17" x="304.01919" y="153.76419" width="15.0332" height="112.39478"/><rect class="cls-18" x="325.49657" y="160.38672" width="5.54769" height="2.68468"/><rect class="cls-18" x="325.49657" y="169.64733" width="5.54769" height="2.68466"/><rect class="cls-18" x="325.49657" y="178.90955" width="5.54769" height="2.68466"/><rect class="cls-18" x="325.49657" y="188.17173" width="5.54769" height="2.68466"/><rect class="cls-18" x="325.49657" y="197.43234" width="5.54769" height="2.68466"/><rect class="cls-18" x="325.49657" y="206.69456" width="5.54769" height="2.68466"/><rect class="cls-18" x="325.49657" y="215.95674" width="5.54769" height="2.68466"/><rect class="cls-18" x="325.49657" y="225.21735" width="5.54769" height="2.68466"/><rect class="cls-18" x="325.49657" y="234.48114" width="5.54769" height="2.68466"/><rect class="cls-18" x="325.49657" y="243.74337" width="5.54769" height="2.68466"/><rect class="cls-18" x="325.49657" y="253.00393" width="5.54769" height="2.68466"/><rect class="cls-18" x="325.49657" y="262.26615" width="5.54769" height="2.68466"/><rect class="cls-18" x="292.02894" y="160.38672" width="5.54769" height="2.68468"/><rect class="cls-18" x="292.02894" y="169.64733" width="5.54769" height="2.68466"/><rect class="cls-18" x="292.02894" y="178.90955" width="5.54769" height="2.68466"/><rect class="cls-18" x="292.02894" y="188.17173" width="5.54769" height="2.68466"/><rect class="cls-18" x="292.02894" y="197.43234" width="5.54769" height="2.68466"/><rect class="cls-18" x="292.02894" y="206.69456" width="5.54769" height="2.68466"/><rect class="cls-18" x="292.02894" y="215.95674" width="5.54769" height="2.68466"/><rect class="cls-18" x="292.02894" y="225.21735" width="5.54769" height="2.68466"/><rect class="cls-18" x="292.02894" y="234.48114" width="5.54769" height="2.68466"/><rect class="cls-18" x="292.02894" y="243.74337" width="5.54769" height="2.68466"/><rect class="cls-18" x="292.02894" y="253.00393" width="5.54769" height="2.68466"/><rect class="cls-18" x="292.02894" y="262.26615" width="5.54769" height="2.68466"/><path class="cls-7" d="M762.94165,233.854h19.75447a2.08776,2.08776,0,0,0,2.08661-2.08822V208.34686a2.08776,2.08776,0,0,0-2.08661-2.08822H762.94165a2.08812,2.08812,0,0,0-2.08827,2.08822v23.41887a2.08812,2.08812,0,0,0,2.08827,2.08822" transform="translate(-0.41992)"/><path class="cls-7" d="M700.86555,233.854H720.62a2.08776,2.08776,0,0,0,2.08661-2.08822V208.34686a2.08776,2.08776,0,0,0-2.08661-2.08822H700.86555a2.08812,2.08812,0,0,0-2.08827,2.08822v23.41887a2.08812,2.08812,0,0,0,2.08827,2.08822" transform="translate(-0.41992)"/><path class="cls-19" d="M767.0327,236.90892H716.52731a3.25945,3.25945,0,0,1-3.25913-3.25757V207.78691a3.25979,3.25979,0,0,1,3.25913-3.25917H767.0327a3.25978,3.25978,0,0,1,3.25912,3.25917v25.86444a3.25944,3.25944,0,0,1-3.25912,3.25757" transform="translate(-0.41992)"/><path class="cls-7" d="M685.91565,239.035v-20.8387a2.14728,2.14728,0,0,0-2.08822-2.20114H660.40855a2.14728,2.14728,0,0,0-2.08822,2.20114V239.035a2.14772,2.14772,0,0,0,2.08822,2.20288h23.41888a2.14772,2.14772,0,0,0,2.08822-2.20288" transform="translate(-0.41992)"/><path class="cls-7" d="M685.91565,304.51818v-20.8387a2.14727,2.14727,0,0,0-2.08822-2.20113H660.40855a2.14727,2.14727,0,0,0-2.08822,2.20113v20.8387a2.14772,2.14772,0,0,0,2.08822,2.20289h23.41888a2.14772,2.14772,0,0,0,2.08822-2.20289" transform="translate(-0.41992)"/><path class="cls-19" d="M688.97062,234.71944v53.27738a3.35255,3.35255,0,0,1-3.25757,3.438H659.84861a3.35282,3.35282,0,0,1-3.25918-3.438V234.71944a3.35283,3.35283,0,0,1,3.25918-3.438H685.713a3.35256,3.35256,0,0,1,3.25757,3.438" transform="translate(-0.41992)"/><path class="cls-7" d="M762.94165,294.854h19.75447a2.08776,2.08776,0,0,0,2.08661-2.08822V269.34686a2.08776,2.08776,0,0,0-2.08661-2.08822H762.94165a2.08812,2.08812,0,0,0-2.08827,2.08822v23.41887a2.08812,2.08812,0,0,0,2.08827,2.08822" transform="translate(-0.41992)"/><path class="cls-7" d="M700.86555,294.854H720.62a2.08776,2.08776,0,0,0,2.08661-2.08822V269.34686a2.08776,2.08776,0,0,0-2.08661-2.08822H700.86555a2.08812,2.08812,0,0,0-2.08827,2.08822v23.41887a2.08812,2.08812,0,0,0,2.08827,2.08822" transform="translate(-0.41992)"/><path class="cls-19" d="M767.0327,297.90892H716.52731a3.25945,3.25945,0,0,1-3.25913-3.25757V268.78691a3.25979,3.25979,0,0,1,3.25913-3.25917H767.0327a3.25978,3.25978,0,0,1,3.25912,3.25917v25.86444a3.25944,3.25944,0,0,1-3.25912,3.25757" transform="translate(-0.41992)"/><path class="cls-7" d="M517.452,282.14413h67.2653a3.06562,3.06562,0,0,1,3.06542,3.06542v7.80466a3.06559,3.06559,0,0,1-3.06542,3.06538H517.452a3.06559,3.06559,0,0,1-3.06542-3.06538v-7.80466a3.06562,3.06562,0,0,1,3.06542-3.06542" transform="translate(-0.41992)"/><path class="cls-7" d="M517.452,263.74786h67.2653a3.06562,3.06562,0,0,1,3.06542,3.06541v7.80467a3.06684,3.06684,0,0,1-3.06542,3.06684H517.452a3.06684,3.06684,0,0,1-3.06542-3.06684v-7.80467a3.06562,3.06562,0,0,1,3.06542-3.06541" transform="translate(-0.41992)"/><path class="cls-7" d="M517.452,245.35247h67.2653a3.06562,3.06562,0,0,1,3.06542,3.06542v7.80466a3.06684,3.06684,0,0,1-3.06542,3.06684H517.452a3.06684,3.06684,0,0,1-3.06542-3.06684v-7.80466a3.06562,3.06562,0,0,1,3.06542-3.06542" transform="translate(-0.41992)"/><path class="cls-19" d="M561.39714,297.93847H534.63966a2.04437,2.04437,0,0,1-2.04358-2.04358V243.30875a2.04468,2.04468,0,0,1,2.04358-2.045h26.75748a2.04377,2.04377,0,0,1,2.04358,2.045v52.58614a2.04346,2.04346,0,0,1-2.04358,2.04358" transform="translate(-0.41992)"/><path class="cls-7" d="M811.452,257.14413h67.2653a3.06562,3.06562,0,0,1,3.06542,3.06542v7.80466a3.06559,3.06559,0,0,1-3.06542,3.06538H811.452a3.06559,3.06559,0,0,1-3.06542-3.06538v-7.80466a3.06562,3.06562,0,0,1,3.06542-3.06542" transform="translate(-0.41992)"/><path class="cls-7" d="M811.452,238.74786h67.2653a3.06562,3.06562,0,0,1,3.06542,3.06541v7.80467a3.06684,3.06684,0,0,1-3.06542,3.06684H811.452a3.06684,3.06684,0,0,1-3.06542-3.06684v-7.80467a3.06562,3.06562,0,0,1,3.06542-3.06541" transform="translate(-0.41992)"/><path class="cls-7" d="M811.452,220.35247h67.2653a3.06562,3.06562,0,0,1,3.06542,3.06542v7.80466a3.06684,3.06684,0,0,1-3.06542,3.06684H811.452a3.06684,3.06684,0,0,1-3.06542-3.06684v-7.80466a3.06562,3.06562,0,0,1,3.06542-3.06542" transform="translate(-0.41992)"/><path class="cls-19" d="M855.39714,272.93847H828.63966a2.04437,2.04437,0,0,1-2.04358-2.04358V218.30875a2.04468,2.04468,0,0,1,2.04358-2.045h26.75748a2.04377,2.04377,0,0,1,2.04358,2.045v52.58614a2.04346,2.04346,0,0,1-2.04358,2.04358" transform="translate(-0.41992)"/><path class="cls-7" d="M695.92082,114.161v68.88026a3.13923,3.13923,0,0,1-3.139,3.139h-7.992a3.13919,3.13919,0,0,1-3.139-3.139V114.161a3.13918,3.13918,0,0,1,3.139-3.139h7.992a3.13923,3.13923,0,0,1,3.139,3.139" transform="translate(-0.41992)"/><path class="cls-7" d="M714.75888,113.07883V158.212c0,1.13585-1.40557,2.05681-3.139,2.05681h-7.992c-1.73344,0-3.14047-.921-3.14047-2.05681V113.07883c0-1.13585,1.407-2.05681,3.14047-2.05681h7.992c1.73344,0,3.139.921,3.139,2.05681" transform="translate(-0.41992)"/><path class="cls-7" d="M733.5958,114.161v68.88026a3.13923,3.13923,0,0,1-3.139,3.139h-7.992a3.14047,3.14047,0,0,1-3.14047-3.139V114.161a3.14046,3.14046,0,0,1,3.14047-3.139h7.992a3.13923,3.13923,0,0,1,3.139,3.139" transform="translate(-0.41992)"/><path class="cls-19" d="M679.74728,159.16115V131.76127a2.09346,2.09346,0,0,1,2.09264-2.09265h53.84866a2.09378,2.09378,0,0,1,2.09415,2.09265v27.39988a2.09285,2.09285,0,0,1-2.09415,2.09265H681.83992a2.09252,2.09252,0,0,1-2.09264-2.09265" transform="translate(-0.41992)"/><path class="cls-20" d="M779.78273,610.391a13.522,13.522,0,1,1-13.52284-13.52276A13.52336,13.52336,0,0,1,779.78273,610.391" transform="translate(-0.41992)"/><path class="cls-21" d="M775.91991,610.391a9.65814,9.65814,0,1,1-9.65991-9.65984,9.65807,9.65807,0,0,1,9.65991,9.65984" transform="translate(-0.41992)"/><path class="cls-20" d="M774.17007,610.391a7.90913,7.90913,0,1,1-7.90913-7.90911,7.90893,7.90893,0,0,1,7.90913,7.90911" transform="translate(-0.41992)"/><path class="cls-20" d="M779.78273,87.391a13.522,13.522,0,1,1-13.52284-13.52276A13.52336,13.52336,0,0,1,779.78273,87.391" transform="translate(-0.41992)"/><path class="cls-21" d="M775.91991,87.391A9.65814,9.65814,0,1,1,766.26,77.73116a9.65807,9.65807,0,0,1,9.65991,9.65984" transform="translate(-0.41992)"/><path class="cls-20" d="M774.17007,87.391a7.90913,7.90913,0,1,1-7.90913-7.90911,7.90893,7.90893,0,0,1,7.90913,7.90911" transform="translate(-0.41992)"/><rect class="cls-20" x="750.36281" y="28.99518" width="31" height="31" rx="4.26596"/><path class="cls-21" d="M775.91991,44.391A9.65814,9.65814,0,1,1,766.26,34.73116a9.65807,9.65807,0,0,1,9.65991,9.65984" transform="translate(-0.41992)"/><path class="cls-20" d="M774.17007,44.391a7.90913,7.90913,0,1,1-7.90913-7.90911,7.90893,7.90893,0,0,1,7.90913,7.90911" transform="translate(-0.41992)"/><rect class="cls-20" x="750.36281" y="560.99518" width="31" height="31" rx="4.26596"/><path class="cls-21" d="M775.91991,576.391a9.65814,9.65814,0,1,1-9.65991-9.65984,9.65807,9.65807,0,0,1,9.65991,9.65984" transform="translate(-0.41992)"/><path class="cls-20" d="M774.17007,576.391a7.90913,7.90913,0,1,1-7.90913-7.90911,7.90893,7.90893,0,0,1,7.90913,7.90911" transform="translate(-0.41992)"/><path class="cls-20" d="M916.40057,357.47157h-25.562c-8.49522,0-15.38425-6.15341-15.38425-13.74552v-2.24331c0-7.5903,6.889-13.74552,15.38425-13.74552h25.562c8.49718,0,15.38216,6.15522,15.38216,13.74552v2.24331c0,7.59211-6.885,13.74552-15.38216,13.74552" transform="translate(-0.41992)"/><path class="cls-21" d="M913.57382,354.18362H893.66448c-6.61554,0-11.98084-4.792-11.98084-10.70472v-1.74761c0-5.91273,5.3653-10.70653,11.98084-10.70653h19.90934c6.61763,0,11.98083,4.7938,11.98083,10.70653v1.74761c0,5.91274-5.3632,10.70472-11.98083,10.70472" transform="translate(-0.41992)"/><path class="cls-20" d="M913.17911,351.31761H894.0598c-5.38529,0-9.7516-3.90112-9.7516-8.71286s4.36631-8.71285,9.7516-8.71285h19.11931c5.38529,0,9.75148,3.90111,9.75148,8.71285s-4.36619,8.71286-9.75148,8.71286" transform="translate(-0.41992)"/><path class="cls-20" d="M916.40057,169.47157h-25.562c-8.49522,0-15.38425-6.15341-15.38425-13.74552v-2.24331c0-7.5903,6.889-13.74552,15.38425-13.74552h25.562c8.49718,0,15.38216,6.15522,15.38216,13.74552V155.726c0,7.59211-6.885,13.74552-15.38216,13.74552" transform="translate(-0.41992)"/><path class="cls-21" d="M913.57382,166.18362H893.66448c-6.61554,0-11.98084-4.792-11.98084-10.70472v-1.74761c0-5.91273,5.3653-10.70653,11.98084-10.70653h19.90934c6.61763,0,11.98083,4.7938,11.98083,10.70653v1.74761c0,5.91274-5.3632,10.70472-11.98083,10.70472" transform="translate(-0.41992)"/><path class="cls-20" d="M913.17911,163.31761H894.0598c-5.38529,0-9.7516-3.90112-9.7516-8.71286s4.36631-8.71285,9.7516-8.71285h19.11931c5.38529,0,9.75148,3.90111,9.75148,8.71285s-4.36619,8.71286-9.75148,8.71286" transform="translate(-0.41992)"/><g id="Capacitor"><g class="cls-22"><g class="cls-23"><path class="cls-7" d="M619.69474,287.68085v13.57836a1.69049,1.69049,0,0,1-1.68553,1.68553h-9.5401a1.69049,1.69049,0,0,1-1.68554-1.68553V287.68085a1.69049,1.69049,0,0,1,1.68554-1.68553h9.5401a1.69049,1.69049,0,0,1,1.68553,1.68553" transform="translate(-0.41992)"/><path class="cls-7" d="M639.78038,287.68085v13.57836a1.6905,1.6905,0,0,1-1.68554,1.68553h-9.5401a1.69048,1.69048,0,0,1-1.68553-1.68553V287.68085a1.69048,1.69048,0,0,1,1.68553-1.68553h9.5401a1.6905,1.6905,0,0,1,1.68554,1.68553" transform="translate(-0.41992)"/><path class="cls-24" d="M611.44674,287.41622h22.92182a3.27146,3.27146,0,0,1,3.26852,3.26853v7.54415a3.27117,3.27117,0,0,1-3.26852,3.26713H611.44674a3.27028,3.27028,0,0,1-3.26853-3.26713v-7.54415a3.2129,3.2129,0,0,1,3.26853-3.26853" transform="translate(-0.41992)"/><rect class="cls-25" x="615.71189" y="287.40541" width="13.50251" height="14.12897"/></g></g></g><g id="Capacitor-2" data-name="Capacitor"><g class="cls-26"><g class="cls-27"><path class="cls-7" d="M619.69474,262.68085v13.57836a1.69049,1.69049,0,0,1-1.68553,1.68553h-9.5401a1.69049,1.69049,0,0,1-1.68554-1.68553V262.68085a1.69049,1.69049,0,0,1,1.68554-1.68553h9.5401a1.69049,1.69049,0,0,1,1.68553,1.68553" transform="translate(-0.41992)"/><path class="cls-7" d="M639.78038,262.68085v13.57836a1.6905,1.6905,0,0,1-1.68554,1.68553h-9.5401a1.69048,1.69048,0,0,1-1.68553-1.68553V262.68085a1.69048,1.69048,0,0,1,1.68553-1.68553h9.5401a1.6905,1.6905,0,0,1,1.68554,1.68553" transform="translate(-0.41992)"/><path class="cls-24" d="M611.44674,262.41622h22.92182a3.27146,3.27146,0,0,1,3.26852,3.26853v7.54415a3.27117,3.27117,0,0,1-3.26852,3.26713H611.44674a3.27028,3.27028,0,0,1-3.26853-3.26713v-7.54415a3.2129,3.2129,0,0,1,3.26853-3.26853" transform="translate(-0.41992)"/><rect class="cls-25" x="615.71189" y="262.40541" width="13.50251" height="14.12897"/></g></g></g><g id="Capacitor-3" data-name="Capacitor"><g class="cls-28"><g class="cls-29"><path class="cls-7" d="M619.69474,238.68085v13.57836a1.69049,1.69049,0,0,1-1.68553,1.68553h-9.5401a1.69049,1.69049,0,0,1-1.68554-1.68553V238.68085a1.69049,1.69049,0,0,1,1.68554-1.68553h9.5401a1.69049,1.69049,0,0,1,1.68553,1.68553" transform="translate(-0.41992)"/><path class="cls-7" d="M639.78038,238.68085v13.57836a1.6905,1.6905,0,0,1-1.68554,1.68553h-9.5401a1.69048,1.69048,0,0,1-1.68553-1.68553V238.68085a1.69048,1.69048,0,0,1,1.68553-1.68553h9.5401a1.6905,1.6905,0,0,1,1.68554,1.68553" transform="translate(-0.41992)"/><path class="cls-24" d="M611.44674,238.41622h22.92182a3.27146,3.27146,0,0,1,3.26852,3.26853v7.54415a3.27117,3.27117,0,0,1-3.26852,3.26713H611.44674a3.27028,3.27028,0,0,1-3.26853-3.26713v-7.54415a3.2129,3.2129,0,0,1,3.26853-3.26853" transform="translate(-0.41992)"/><rect class="cls-25" x="615.71189" y="238.40541" width="13.50251" height="14.12897"/></g></g></g><g id="Capacitor-4" data-name="Capacitor"><g class="cls-30"><g class="cls-31"><path class="cls-7" d="M619.69474,215.68085v13.57836a1.69049,1.69049,0,0,1-1.68553,1.68553h-9.5401a1.69049,1.69049,0,0,1-1.68554-1.68553V215.68085a1.69049,1.69049,0,0,1,1.68554-1.68553h9.5401a1.69049,1.69049,0,0,1,1.68553,1.68553" transform="translate(-0.41992)"/><path class="cls-7" d="M639.78038,215.68085v13.57836a1.6905,1.6905,0,0,1-1.68554,1.68553h-9.5401a1.69048,1.69048,0,0,1-1.68553-1.68553V215.68085a1.69048,1.69048,0,0,1,1.68553-1.68553h9.5401a1.6905,1.6905,0,0,1,1.68554,1.68553" transform="translate(-0.41992)"/><path class="cls-24" d="M611.44674,215.41622h22.92182a3.27146,3.27146,0,0,1,3.26852,3.26853v7.54415a3.27117,3.27117,0,0,1-3.26852,3.26713H611.44674a3.27028,3.27028,0,0,1-3.26853-3.26713v-7.54415a3.2129,3.2129,0,0,1,3.26853-3.26853" transform="translate(-0.41992)"/><rect class="cls-25" x="615.71189" y="215.40541" width="13.50251" height="14.12897"/></g></g></g><g id="Capacitor-5" data-name="Capacitor"><g class="cls-32"><g class="cls-33"><path class="cls-7" d="M670.0472,167.9072l-13.57836,0a1.69049,1.69049,0,0,1-1.68553-1.68553v-9.54011a1.69049,1.69049,0,0,1,1.68553-1.68553l13.57836,0a1.69049,1.69049,0,0,1,1.68553,1.68553v9.5401a1.69049,1.69049,0,0,1-1.68553,1.68554" transform="translate(-0.41992)"/><path class="cls-7" d="M670.04719,187.99283l-13.57836,0a1.69049,1.69049,0,0,1-1.68553-1.68553v-9.54011a1.69049,1.69049,0,0,1,1.68554-1.68553l13.57835,0a1.69047,1.69047,0,0,1,1.68553,1.68553v9.54011a1.69049,1.69049,0,0,1-1.68553,1.68553" transform="translate(-0.41992)"/><path class="cls-24" d="M670.31183,159.65919l0,22.92182a3.27146,3.27146,0,0,1-3.26853,3.26852h-7.54415A3.27116,3.27116,0,0,1,656.232,182.581V159.65918a3.27027,3.27027,0,0,1,3.26713-3.26852h7.54415a3.2129,3.2129,0,0,1,3.26853,3.26853" transform="translate(-0.41992)"/><rect class="cls-25" x="655.77375" y="164.34426" width="14.12897" height="13.50251"/></g></g></g><g id="Capacitor-6" data-name="Capacitor"><g class="cls-34"><g class="cls-35"><path class="cls-7" d="M670.0472,123.9072l-13.57836,0a1.69049,1.69049,0,0,1-1.68553-1.68553v-9.54011a1.69049,1.69049,0,0,1,1.68553-1.68553l13.57836,0a1.69049,1.69049,0,0,1,1.68553,1.68553v9.5401a1.69049,1.69049,0,0,1-1.68553,1.68554" transform="translate(-0.41992)"/><path class="cls-7" d="M670.04719,143.99283l-13.57836,0a1.69049,1.69049,0,0,1-1.68553-1.68553v-9.54011a1.69049,1.69049,0,0,1,1.68554-1.68553l13.57835,0a1.69047,1.69047,0,0,1,1.68553,1.68553v9.54011a1.69049,1.69049,0,0,1-1.68553,1.68553" transform="translate(-0.41992)"/><path class="cls-24" d="M670.31183,115.65919l0,22.92182a3.27146,3.27146,0,0,1-3.26853,3.26852h-7.54415A3.27116,3.27116,0,0,1,656.232,138.581V115.65918a3.27027,3.27027,0,0,1,3.26713-3.26852h7.54415a3.2129,3.2129,0,0,1,3.26853,3.26853" transform="translate(-0.41992)"/><rect class="cls-25" x="655.77375" y="120.34426" width="14.12897" height="13.50251"/></g></g></g><path class="cls-7" d="M601.70468,145.65388l-32.844,0c-2.24238,0-4.077-1.44825-4.077-3.21834V124.21975c0-1.77009,1.83467-3.21834,4.077-3.21834l32.844,0c2.24237,0,4.077,1.44825,4.077,3.21834v18.21579c0,1.77008-1.83468,3.21833-4.077,3.21833" transform="translate(-0.41992)"/><path class="cls-7" d="M601.70466,184.00519h-32.844c-2.24237,0-4.077-1.44826-4.077-3.21834l0-18.21579c0-1.77009,1.83467-3.21834,4.077-3.21834l32.844,0c2.24238,0,4.077,1.44825,4.077,3.21834l0,18.21579c0,1.77008-1.83467,3.21834-4.077,3.21833" transform="translate(-0.41992)"/><path class="cls-24" d="M602.34478,129.90522l0,43.7667c0,3.48922-3.60479,6.24089-7.90607,6.24089l-18.24817,0c-4.4168,0-7.90267-2.84555-7.90267-6.24089l0-43.7667c0-3.48922,3.60139-6.24089,7.90267-6.24089h18.24818c4.41679-.0885,7.90606,2.75168,7.90606,6.2409" transform="translate(-0.41992)"/><rect class="cls-36" x="567.77519" y="138.85085" width="34.17583" height="25.78156"/><g id="Capacitor-7" data-name="Capacitor"><g class="cls-37"><g class="cls-38"><path class="cls-7" d="M546.0472,206.9072l-13.57836,0a1.69049,1.69049,0,0,1-1.68553-1.68553v-9.54011a1.69049,1.69049,0,0,1,1.68553-1.68553l13.57836,0a1.69049,1.69049,0,0,1,1.68553,1.68553v9.5401a1.69049,1.69049,0,0,1-1.68553,1.68554" transform="translate(-0.41992)"/><path class="cls-7" d="M546.04719,226.99283l-13.57836,0a1.69049,1.69049,0,0,1-1.68553-1.68553v-9.54011a1.69049,1.69049,0,0,1,1.68554-1.68553l13.57835,0a1.69047,1.69047,0,0,1,1.68553,1.68553v9.54011a1.69049,1.69049,0,0,1-1.68553,1.68553" transform="translate(-0.41992)"/><path class="cls-24" d="M546.31183,198.65919l0,22.92182a3.27146,3.27146,0,0,1-3.26853,3.26852h-7.54415A3.27116,3.27116,0,0,1,532.232,221.581V198.65918a3.27027,3.27027,0,0,1,3.26713-3.26852h7.54415a3.2129,3.2129,0,0,1,3.26853,3.26853" transform="translate(-0.41992)"/><rect class="cls-25" x="531.77375" y="203.34426" width="14.12897" height="13.50251"/></g></g></g><g id="c-01"><g class="cls-39"><g class="cls-39"><path class="cls-24" d="M611.81537,192.066H634.752c2.81158,0,5.0307,1.75795,5.0307,3.85493v7.19959c0,2.15406-2.29446,3.85493-5.0307,3.85493H611.81537c-2.81157,0-5.0307-1.75795-5.0307-3.85493v-7.19959c-.0742-2.097,2.21913-3.85493,5.0307-3.85493" transform="translate(-0.41992)"/><rect class="cls-40" x="615.24958" y="192.08562" width="15.16744" height="14.96539"/></g></g></g><g id="r-01"><g class="cls-41"><g class="cls-41"><path class="cls-24" d="M823.218,288.00618h24.093a3.43741,3.43741,0,0,1,3.434,3.435v7.929a3.43742,3.43742,0,0,1-3.434,3.435H823.218a3.43891,3.43891,0,0,1-3.435-3.435v-7.929a3.37725,3.37725,0,0,1,3.435-3.435" transform="translate(-0.41992)"/><rect class="cls-19" x="827.72281" y="287.99518" width="14.192" height="14.85"/></g></g></g><g id="r-01-2" data-name="r-01"><g class="cls-42"><g class="cls-42"><path class="cls-24" d="M585.62115,198.43049l0,24.093a3.43741,3.43741,0,0,1-3.435,3.434l-7.929,0a3.43742,3.43742,0,0,1-3.435-3.434l0-24.093a3.43891,3.43891,0,0,1,3.435-3.435l7.929,0a3.37725,3.37725,0,0,1,3.435,3.435" transform="translate(-0.41992)"/><rect class="cls-19" x="570.36222" y="203.35518" width="14.85" height="14.192"/></g></g></g><g id="r-01-3" data-name="r-01"><g class="cls-43"><g class="cls-44"><path class="cls-24" d="M582.31023,325.83359l-24.093,0a3.43742,3.43742,0,0,1-3.434-3.435l0-7.929a3.43741,3.43741,0,0,1,3.434-3.435l24.093,0a3.43891,3.43891,0,0,1,3.435,3.435l0,7.929a3.37725,3.37725,0,0,1-3.435,3.435" transform="translate(-0.41992)"/><rect class="cls-19" x="562.77361" y="310.99458" width="14.192" height="14.85"/></g></g></g><g id="r-01-4" data-name="r-01"><g class="cls-45"><g class="cls-46"><path class="cls-24" d="M602.31023,107.83359l-24.093,0a3.43742,3.43742,0,0,1-3.434-3.435l0-7.929a3.43741,3.43741,0,0,1,3.434-3.435l24.093,0a3.43891,3.43891,0,0,1,3.435,3.435l0,7.929a3.37725,3.37725,0,0,1-3.435,3.435" transform="translate(-0.41992)"/><rect class="cls-19" x="582.77361" y="92.99458" width="14.192" height="14.85"/></g></g></g><g id="r-01-5" data-name="r-01"><g class="cls-47"><g class="cls-48"><path class="cls-24" d="M602.31023,82.83359l-24.093,0a3.43742,3.43742,0,0,1-3.434-3.435l0-7.929a3.43741,3.43741,0,0,1,3.434-3.435l24.093,0a3.43891,3.43891,0,0,1,3.435,3.435l0,7.929a3.37725,3.37725,0,0,1-3.435,3.435" transform="translate(-0.41992)"/><rect class="cls-19" x="582.77361" y="67.99458" width="14.192" height="14.85"/></g></g></g><g id="r-01-6" data-name="r-01"><g class="cls-49"><g class="cls-50"><path class="cls-24" d="M602.31023,58.83359l-24.093,0a3.43742,3.43742,0,0,1-3.434-3.435l0-7.929a3.43741,3.43741,0,0,1,3.434-3.435l24.093,0a3.43891,3.43891,0,0,1,3.435,3.435l0,7.929a3.37725,3.37725,0,0,1-3.435,3.435" transform="translate(-0.41992)"/><rect class="cls-19" x="582.77361" y="43.99458" width="14.192" height="14.85"/></g></g></g><g id="r-01-7" data-name="r-01"><g class="cls-51"><g class="cls-52"><path class="cls-24" d="M498.31023,72.83359l-24.093,0a3.43742,3.43742,0,0,1-3.434-3.435l0-7.929a3.43741,3.43741,0,0,1,3.434-3.435l24.093,0a3.43891,3.43891,0,0,1,3.435,3.435l0,7.929a3.37725,3.37725,0,0,1-3.435,3.435" transform="translate(-0.41992)"/><rect class="cls-19" x="478.77361" y="57.99458" width="14.192" height="14.85"/></g></g></g><g id="r-01-8" data-name="r-01"><g class="cls-53"><g class="cls-54"><path class="cls-24" d="M498.31023,20.83359l-24.093,0a3.43742,3.43742,0,0,1-3.434-3.435l0-7.929a3.43741,3.43741,0,0,1,3.434-3.435l24.093,0a3.43891,3.43891,0,0,1,3.435,3.435l0,7.929a3.37725,3.37725,0,0,1-3.435,3.435" transform="translate(-0.41992)"/><rect class="cls-19" x="478.77361" y="5.99458" width="14.192" height="14.85"/></g></g></g><rect class="cls-7" x="784.36281" y="330.99518" width="47" height="24" rx="10.2766"/><rect class="cls-7" x="800.78273" y="322.99518" width="38" height="26" rx="9.61774" transform="translate(1155.35799 -483.78755) rotate(90)"/><rect class="cls-7" x="784.36281" y="143.99518" width="47" height="24" rx="10.2766"/><rect class="cls-7" x="800.78273" y="149.99518" width="38" height="26" rx="9.61774" transform="translate(656.36763 982.77791) rotate(-90)"/><circle class="cls-9" cx="604.36281" cy="319.99518" r="11"/><circle class="cls-9" cx="524.36281" cy="319.99518" r="11"/><line class="cls-55" x1="182.28784" y1="204.50154" x2="292.37256" y2="204.50154"/><polygon class="cls-56" points="289.223 215.264 307.862 204.502 289.223 193.739 289.223 215.264"/><line class="cls-55" x1="182.28784" y1="454.98274" x2="292.37354" y2="454.98274"/><polygon class="cls-56" points="289.224 465.745 307.863 454.983 289.224 444.22 289.224 465.745"/><path class="cls-56" d="M25.30762,194.75349H21.84277l-5.70605-21.00195h-.07031L10.291,194.75349H6.82617L.41992,169.76081H3.81543l4.90039,20.79248h.07031l5.60059-20.79248h3.60547l5.53027,20.79248h.07031l5.0752-20.79248h3.32519Z" transform="translate(-0.41992)"/><path class="cls-56" d="M37.80078,173.40144H34.8252v-3.64063h2.97558Zm-2.97558,3.25537h2.97558v18.09668H34.8252Z" transform="translate(-0.41992)"/><path class="cls-56" d="M44.24023,189.04792c.1045,2.66016,2.4502,3.50049,4.86524,3.50049,1.85547,0,4.376-.42041,4.376-2.69531,0-4.65576-11.832-1.50537-11.832-8.47119,0-3.64014,3.57032-5.14551,6.75586-5.14551,4.06055,0,7.14063,1.26025,7.4209,5.6709H52.85059c-.17481-2.31055-2.27442-3.04541-4.2002-3.04541-1.78516,0-3.85059.49023-3.85059,2.31006,0,2.10009,3.1504,2.5205,5.916,3.15039,2.97559.665,5.916,1.68017,5.916,5.1455,0,4.34034-4.02539,5.70557-7.70118,5.70557-4.06054,0-7.49121-1.645-7.666-6.12549Z" transform="translate(-0.41992)"/><path class="cls-56" d="M74.86621,177.07673c-.38476-3.60547-2.73047-5.11084-6.19531-5.11084-2.835,0-5.60059,1.01514-5.60059,4.27051,0,6.16064,15.99707,1.82031,15.99707,11.65625,0,5.3208-5.21582,7.45605-9.7666,7.45605-5.60058,0-10.32617-2.76562-10.32617-8.82129H62.125c0,4.20069,3.501,6.021,7.28125,6.021,3.00977,0,6.335-.94531,6.335-4.55078,0-6.86035-15.99609-2.34522-15.99609-11.51611,0-5.04053,4.48047-7.31592,9.06543-7.31592,5.11035,0,9.03125,2.41553,9.206,7.91113Z" transform="translate(-0.41992)"/><path class="cls-56" d="M98.03613,189.01277c-.80468,4.02539-3.64062,6.16064-7.73535,6.16064-5.77637,0-8.50586-4.02539-8.68164-9.521,0-5.46044,3.57031-9.416,8.50586-9.416,6.40625,0,8.36621,5.98584,8.19141,10.36133H84.76953c-.10449,3.15039,1.68067,5.95068,5.63574,5.95068,2.48535,0,4.166-1.15527,4.69043-3.53564ZM95.166,183.97224a5.20718,5.20718,0,0,0-5.21582-5.11035,5.13252,5.13252,0,0,0-5.18067,5.11035Z" transform="translate(-0.41992)"/><path class="cls-56" d="M101.39355,176.65681h2.80079v2.87012h.06933a6.266,6.266,0,0,1,5.88086-3.29053c4.76074,0,6.23047,2.73047,6.23047,6.61572v11.90137h-2.97559V182.502a3.39177,3.39177,0,0,0-3.6748-3.64013c-3.60547,0-5.35547,2.415-5.35547,5.67041v10.22119h-2.97559Z" transform="translate(-0.41992)"/><path class="cls-56" d="M122.67383,189.04792c.10449,2.66016,2.45019,3.50049,4.86523,3.50049,1.85547,0,4.376-.42041,4.376-2.69531,0-4.65576-11.832-1.50537-11.832-8.47119,0-3.64014,3.57031-5.14551,6.75586-5.14551,4.06054,0,7.14062,1.26025,7.4209,5.6709h-2.97559c-.1748-2.31055-2.27441-3.04541-4.2002-3.04541-1.78515,0-3.85058.49023-3.85058,2.31006,0,2.10009,3.15039,2.5205,5.916,3.15039,2.97559.665,5.916,1.68017,5.916,5.1455,0,4.34034-4.02539,5.70557-7.70117,5.70557-4.06055,0-7.49121-1.645-7.666-6.12549Z" transform="translate(-0.41992)"/><path class="cls-56" d="M146.15918,176.2364c5.74121,0,8.78613,4.16553,8.78613,9.48633,0,5.28515-3.04492,9.45068-8.78613,9.45068-5.74023,0-8.78613-4.16553-8.78613-9.45068C137.37305,180.40193,140.419,176.2364,146.15918,176.2364Zm0,16.312c3.11523,0,5.63574-2.45019,5.63574-6.82568s-2.52051-6.86084-5.63574-6.86084-5.63574,2.48535-5.63574,6.86084S143.044,192.54841,146.15918,192.54841Z" transform="translate(-0.41992)"/><path class="cls-56" d="M158.33789,176.65681h2.80078v3.81543h.07031c1.43457-2.94043,3.42969-4.34082,6.6504-4.23584v3.15039c-4.7959,0-6.5459,2.69531-6.5459,7.31592v8.05078h-2.97559Z" transform="translate(-0.41992)"/><path class="cls-56" d="M17.18652,219.07673c-.38476-3.60547-2.73047-5.11084-6.19531-5.11084-2.835,0-5.60059,1.01514-5.60059,4.27051,0,6.16064,15.99708,1.82031,15.99708,11.65625,0,5.3208-5.21582,7.45605-9.76661,7.45605-5.60058,0-10.32617-2.76562-10.32617-8.82129H4.44531c0,4.20069,3.501,6.021,7.28125,6.021,3.00977,0,6.335-.94531,6.335-4.55078,0-6.86035-15.99609-2.34522-15.99609-11.51611,0-5.04053,4.48047-7.31592,9.06543-7.31592,5.11035,0,9.03125,2.41553,9.20605,7.91113Z" transform="translate(-0.41992)"/><path class="cls-56" d="M25.09473,211.76081h2.97558v24.99268H25.09473Z" transform="translate(-0.41992)"/><path class="cls-56" d="M40.49512,218.2364c5.74121,0,8.78613,4.16553,8.78613,9.48633,0,5.28515-3.04492,9.45068-8.78613,9.45068-5.74024,0-8.78614-4.16553-8.78614-9.45068C31.709,222.40193,34.75488,218.2364,40.49512,218.2364Zm0,16.312c3.11523,0,5.63574-2.45019,5.63574-6.82568s-2.52051-6.86084-5.63574-6.86084-5.63574,2.48535-5.63574,6.86084S37.37988,234.54841,40.49512,234.54841Z" transform="translate(-0.41992)"/><path class="cls-56" d="M56.91016,218.65681h3.60449v2.625H56.91016v11.23633c0,1.3999.38476,1.60986,2.24023,1.60986h1.36426v2.62549H58.24023c-3.081,0-4.30566-.62988-4.30566-3.95557V221.28181H50.85449v-2.625h3.08008V213.231h2.97559Z" transform="translate(-0.41992)"/><path class="cls-56" d="M80.81543,211.76081h3.6748l9.76661,24.99268H90.58105l-2.73046-7.52588H77.2793l-2.79981,7.52588H71.04883Zm-2.48535,14.66651h8.4707l-4.166-11.65625h-.06934Z" transform="translate(-0.41992)"/><path class="cls-56" d="M25.30762,445.23469H21.84277l-5.70605-21.002h-.07031l-5.77539,21.002H6.82617L.41992,420.242H3.81543L8.71582,441.0345h.07031L14.38672,420.242h3.60547l5.53027,20.79249h.07031L28.668,420.242h3.32519Z" transform="translate(-0.41992)"/><path class="cls-56" d="M37.80078,423.88264H34.8252V420.242h2.97558ZM34.8252,427.138h2.97558v18.09668H34.8252Z" transform="translate(-0.41992)"/><path class="cls-56" d="M44.24023,439.52912c.1045,2.66016,2.4502,3.50049,4.86524,3.50049,1.85547,0,4.376-.42041,4.376-2.69531,0-4.65576-11.832-1.50537-11.832-8.47119,0-3.64014,3.57032-5.14551,6.75586-5.14551,4.06055,0,7.14063,1.26025,7.4209,5.6709H52.85059c-.17481-2.31055-2.27442-3.04541-4.2002-3.04541-1.78516,0-3.85059.49023-3.85059,2.31006,0,2.1001,3.1504,2.52051,5.916,3.15039,2.97559.665,5.916,1.68017,5.916,5.14551,0,4.34033-4.02539,5.70556-7.70118,5.70556-4.06054,0-7.49121-1.645-7.666-6.12549Z" transform="translate(-0.41992)"/><path class="cls-56" d="M74.86621,427.55793c-.38476-3.60547-2.73047-5.11084-6.19531-5.11084-2.835,0-5.60059,1.01514-5.60059,4.27051,0,6.16065,15.99707,1.82031,15.99707,11.65625,0,5.3208-5.21582,7.45606-9.7666,7.45606-5.60058,0-10.32617-2.76563-10.32617-8.82129H62.125c0,4.20068,3.501,6.021,7.28125,6.021,3.00977,0,6.335-.94531,6.335-4.55078,0-6.86035-15.99609-2.34521-15.99609-11.51611,0-5.04053,4.48047-7.31592,9.06543-7.31592,5.11035,0,9.03125,2.41553,9.206,7.91113Z" transform="translate(-0.41992)"/><path class="cls-56" d="M98.03613,439.494c-.80468,4.02539-3.64062,6.16064-7.73535,6.16064-5.77637,0-8.50586-4.02539-8.68164-9.521,0-5.46045,3.57031-9.416,8.50586-9.416,6.40625,0,8.36621,5.98584,8.19141,10.36133H84.76953c-.10449,3.15039,1.68067,5.95068,5.63574,5.95068,2.48535,0,4.166-1.15527,4.69043-3.53564ZM95.166,434.45344a5.20718,5.20718,0,0,0-5.21582-5.11035,5.13252,5.13252,0,0,0-5.18067,5.11035Z" transform="translate(-0.41992)"/><path class="cls-56" d="M101.39355,427.138h2.80079v2.87012h.06933a6.266,6.266,0,0,1,5.88086-3.29053c4.76074,0,6.23047,2.73047,6.23047,6.61572v11.90137h-2.97559V432.98323a3.39178,3.39178,0,0,0-3.6748-3.64014c-3.60547,0-5.35547,2.415-5.35547,5.67041v10.22119h-2.97559Z" transform="translate(-0.41992)"/><path class="cls-56" d="M122.67383,439.52912c.10449,2.66016,2.45019,3.50049,4.86523,3.50049,1.85547,0,4.376-.42041,4.376-2.69531,0-4.65576-11.832-1.50537-11.832-8.47119,0-3.64014,3.57031-5.14551,6.75586-5.14551,4.06054,0,7.14062,1.26025,7.4209,5.6709h-2.97559c-.1748-2.31055-2.27441-3.04541-4.2002-3.04541-1.78515,0-3.85058.49023-3.85058,2.31006,0,2.1001,3.15039,2.52051,5.916,3.15039,2.97559.665,5.916,1.68017,5.916,5.14551,0,4.34033-4.02539,5.70556-7.70117,5.70556-4.06055,0-7.49121-1.645-7.666-6.12549Z" transform="translate(-0.41992)"/><path class="cls-56" d="M146.15918,426.7176c5.74121,0,8.78613,4.16553,8.78613,9.48633,0,5.28515-3.04492,9.45068-8.78613,9.45068-5.74023,0-8.78613-4.16553-8.78613-9.45068C137.37305,430.88313,140.419,426.7176,146.15918,426.7176Zm0,16.312c3.11523,0,5.63574-2.45019,5.63574-6.82568s-2.52051-6.86084-5.63574-6.86084-5.63574,2.48535-5.63574,6.86084S143.044,443.02961,146.15918,443.02961Z" transform="translate(-0.41992)"/><path class="cls-56" d="M158.33789,427.138h2.80078v3.81543h.07031c1.43457-2.94043,3.42969-4.34082,6.6504-4.23584V429.868c-4.7959,0-6.5459,2.69531-6.5459,7.31592v8.05078h-2.97559Z" transform="translate(-0.41992)"/><path class="cls-56" d="M17.18652,469.55793c-.38476-3.60547-2.73047-5.11084-6.19531-5.11084-2.835,0-5.60059,1.01514-5.60059,4.27051,0,6.16065,15.99708,1.82031,15.99708,11.65625,0,5.3208-5.21582,7.45606-9.76661,7.45606-5.60058,0-10.32617-2.76563-10.32617-8.82129H4.44531c0,4.20068,3.501,6.021,7.28125,6.021,3.00977,0,6.335-.94531,6.335-4.55078,0-6.86035-15.99609-2.34521-15.99609-11.51611,0-5.04053,4.48047-7.31592,9.06543-7.31592,5.11035,0,9.03125,2.41553,9.20605,7.91113Z" transform="translate(-0.41992)"/><path class="cls-56" d="M25.09473,462.242h2.97558v24.99268H25.09473Z" transform="translate(-0.41992)"/><path class="cls-56" d="M40.49512,468.7176c5.74121,0,8.78613,4.16553,8.78613,9.48633,0,5.28515-3.04492,9.45068-8.78613,9.45068-5.74024,0-8.78614-4.16553-8.78614-9.45068C31.709,472.88313,34.75488,468.7176,40.49512,468.7176Zm0,16.312c3.11523,0,5.63574-2.45019,5.63574-6.82568s-2.52051-6.86084-5.63574-6.86084-5.63574,2.48535-5.63574,6.86084S37.37988,485.02961,40.49512,485.02961Z" transform="translate(-0.41992)"/><path class="cls-56" d="M56.91016,469.138h3.60449v2.625H56.91016v11.23633c0,1.3999.38476,1.60986,2.24023,1.60986h1.36426v2.62549H58.24023c-3.081,0-4.30566-.62988-4.30566-3.95557V471.763H50.85449v-2.625h3.08008v-5.42578h2.97559Z" transform="translate(-0.41992)"/><path class="cls-56" d="M74.02441,462.242h9.06543c2.1709,0,5.14551,0,6.61621.91016a5.89049,5.89049,0,0,1,2.94043,5.21533,5.726,5.726,0,0,1-3.71093,5.60059v.07031a5.75021,5.75021,0,0,1,4.76074,6.02051c0,3.64062-2.66016,7.17578-7.5957,7.17578H74.02441Zm3.3252,10.7461H84c3.78027,0,5.32129-1.33008,5.32129-3.99024,0-3.50048-2.416-3.95556-5.32129-3.95556H77.34961Zm0,11.44629h8.33105c2.90528,0,4.69043-1.71533,4.69043-4.48047,0-3.25537-2.625-4.16553-5.42578-4.16553h-7.5957Z" transform="translate(-0.41992)"/></g></g></svg>