<svg xmlns="http://www.w3.org/2000/svg" viewBox="0 0 377.646 461.026"><defs><style>.cls-1{fill:#1e1e1e;}.cls-2{fill:#bf8e3e;}.cls-3{fill:#899a9e;}.cls-21,.cls-4{fill:#e4e4e4;}.cls-5,.cls-6,.cls-8{fill:none;stroke-width:2px;}.cls-10,.cls-21,.cls-5,.cls-6,.cls-8{stroke:#fff;}.cls-5,.cls-8{stroke-linecap:round;}.cls-5{stroke-linejoin:round;}.cls-10,.cls-21,.cls-6,.cls-8{stroke-miterlimit:10;}.cls-7{fill:#4a4d58;}.cls-9{fill:#b5b5af;}.cls-10{fill:#70737a;}.cls-11{fill:#fffff2;}.cls-11,.cls-12{opacity:0.5;}.cls-12,.cls-22{fill:#f7f1e5;}.cls-13{fill:#ecf3fa;}.cls-14{fill:#383f49;}.cls-15{fill:#272a33;}.cls-16{fill:#b68f4e;}.cls-17{fill:#fff;}.cls-18{fill:#282828;}.cls-19{fill:#ae773d;}.cls-20{fill:#f3ede6;}.cls-23{fill:#f3e2c1;}.cls-24{fill:#e9d197;}.cls-25{fill:#ca9a2c;}.cls-26{fill:#a5a8a6;}.cls-27{fill:#e2b12d;}.cls-28{fill:#fed10d;}.cls-29{fill:#feec4e;}</style></defs><g id="Layer_2" data-name="Layer 2"><g id="Layer_1-2" data-name="Layer 1"><path class="cls-1" d="M209.423,459.154a22.05,22.05,0,0,0-42.588,0H.706V384.613a5.374,5.374,0,0,1,5.374-5.374H94.3a9.993,9.993,0,0,0,9.994-9.994V217.658a9.994,9.994,0,0,0-9.994-9.994H6.08A5.374,5.374,0,0,1,.706,202.29V27.029a14.405,14.405,0,0,1,14.405-14.4h93.053a8.376,8.376,0,0,0,8.354,7.806h27.489a8.377,8.377,0,0,0,8.354-7.806H358.738a14.405,14.405,0,0,1,14.4,14.405V459.154ZM47.284,38.388A20.936,20.936,0,1,0,68.22,59.324,20.936,20.936,0,0,0,47.284,38.388ZM36.992,435.177a7.648,7.648,0,1,0,7.648,7.647A7.648,7.648,0,0,0,36.992,435.177Zm31.745,0a7.648,7.648,0,1,0,7.648,7.647A7.647,7.647,0,0,0,68.737,435.177Zm31.784,0a7.648,7.648,0,1,0,7.648,7.647A7.648,7.648,0,0,0,100.521,435.177Zm31.745,0a7.648,7.648,0,1,0,7.648,7.647A7.647,7.647,0,0,0,132.266,435.177Zm117.9,0a7.648,7.648,0,1,0,7.647,7.647A7.648,7.648,0,0,0,250.17,435.177Zm31.745,0a7.648,7.648,0,1,0,7.648,7.647A7.647,7.647,0,0,0,281.915,435.177ZM313.7,450.472a7.648,7.648,0,1,0-7.648-7.648A7.648,7.648,0,0,0,313.7,450.472Zm13.3-412.084A20.936,20.936,0,1,0,347.93,59.324,20.936,20.936,0,0,0,326.994,38.388Zm18.45,396.789a7.648,7.648,0,1,0,7.648,7.647A7.647,7.647,0,0,0,345.444,435.177Z"/><path class="cls-2" d="M47.284,91.749A32.426,32.426,0,1,1,79.709,59.324,32.425,32.425,0,0,1,47.284,91.749Zm0-50.425a18,18,0,1,0,18,18A18,18,0,0,0,47.284,41.324Z"/><path class="cls-2" d="M46.821,432.878H27.165a.12.12,0,0,0-.12.12v19.655a.12.12,0,0,0,.12.12H46.821a.12.12,0,0,0,.12-.12V433A.12.12,0,0,0,46.821,432.878Zm-9.829,16.408a6.462,6.462,0,1,1,6.462-6.462A6.462,6.462,0,0,1,36.992,449.286Z"/><path class="cls-2" d="M68.737,452.771a9.947,9.947,0,1,1,9.947-9.947A9.946,9.946,0,0,1,68.737,452.771Zm0-16.409a6.462,6.462,0,1,0,6.462,6.462A6.462,6.462,0,0,0,68.737,436.362Z"/><path class="cls-2" d="M100.414,452.771a9.947,9.947,0,1,1,9.946-9.947A9.947,9.947,0,0,1,100.414,452.771Zm0-16.409a6.462,6.462,0,1,0,6.462,6.462A6.462,6.462,0,0,0,100.414,436.362Z"/><path class="cls-2" d="M132.159,452.771a9.947,9.947,0,1,1,9.947-9.947A9.946,9.946,0,0,1,132.159,452.771Zm0-16.409a6.462,6.462,0,1,0,6.462,6.462A6.463,6.463,0,0,0,132.159,436.362Z"/><path class="cls-2" d="M250.17,452.771a9.947,9.947,0,1,1,9.946-9.947A9.946,9.946,0,0,1,250.17,452.771Zm0-16.409a6.462,6.462,0,1,0,6.462,6.462A6.462,6.462,0,0,0,250.17,436.362Z"/><path class="cls-2" d="M281.915,452.771a9.947,9.947,0,1,1,9.947-9.947A9.946,9.946,0,0,1,281.915,452.771Zm0-16.409a6.462,6.462,0,1,0,6.462,6.462A6.462,6.462,0,0,0,281.915,436.362Z"/><path class="cls-2" d="M313.592,452.771a9.947,9.947,0,1,1,9.946-9.947A9.947,9.947,0,0,1,313.592,452.771Zm0-16.409a6.462,6.462,0,1,0,6.462,6.462A6.462,6.462,0,0,0,313.592,436.362Z"/><path class="cls-2" d="M326.994,91.749a32.426,32.426,0,1,1,32.425-32.425A32.426,32.426,0,0,1,326.994,91.749Zm0-50.425a18,18,0,1,0,18,18A18,18,0,0,0,326.994,41.324Z"/><path class="cls-2" d="M207.182,461.026a1.684,1.684,0,0,1-1.623-1.2,18.146,18.146,0,0,0-34.86,0,1.684,1.684,0,0,1-1.623,1.2H156.922a1.713,1.713,0,0,1-1.681-2.017,33.406,33.406,0,0,1,65.776,0,1.713,1.713,0,0,1-1.681,2.017Z"/><path class="cls-2" d="M355.165,432.878H335.51a.12.12,0,0,0-.12.12v19.655a.12.12,0,0,0,.12.12h19.655a.12.12,0,0,0,.12-.12V433A.12.12,0,0,0,355.165,432.878Zm-9.829,16.408a6.462,6.462,0,1,1,6.462-6.462A6.462,6.462,0,0,1,345.336,449.286Z"/><circle class="cls-2" cx="137.778" cy="136.175" r="23.851"/><circle class="cls-3" cx="137.778" cy="136.175" r="15.319"/><circle class="cls-4" cx="137.778" cy="136.175" r="11.784"/><path class="cls-4" d="M4.391,194.445a21,21,0,1,0,0-14.413"/><circle class="cls-3" cx="24.122" cy="187.239" r="15.319"/><circle class="cls-4" cx="24.122" cy="187.239" r="11.784"/><path class="cls-5" d="M39.443,205.519A23.851,23.851,0,1,0,7.066,170.566"/><path class="cls-4" d="M376.748,195.413a21,21,0,1,1,.085-16.143Z"/><circle class="cls-3" cx="357.398" cy="187.239" r="15.319"/><circle class="cls-4" cx="357.398" cy="187.239" r="11.784"/><path class="cls-6" d="M376.831,173.407a23.851,23.851,0,1,0,0,27.663"/><circle class="cls-2" cx="276.717" cy="304.345" r="23.851"/><circle class="cls-3" cx="276.717" cy="304.345" r="15.319"/><circle class="cls-4" cx="276.717" cy="304.345" r="11.784"/><circle class="cls-4" cx="351.616" cy="399.546" r="21"/><circle class="cls-3" cx="351.616" cy="399.546" r="15.319"/><circle class="cls-4" cx="351.616" cy="399.546" r="11.784"/><circle class="cls-6" cx="351.616" cy="399.546" r="23.851"/><circle class="cls-2" cx="137.897" cy="304.345" r="23.851"/><circle class="cls-3" cx="137.897" cy="304.345" r="15.319"/><circle class="cls-4" cx="137.897" cy="304.345" r="11.784"/><circle class="cls-4" cx="24.474" cy="399.546" r="21"/><circle class="cls-3" cx="24.474" cy="399.546" r="15.319"/><circle class="cls-4" cx="24.474" cy="399.546" r="11.784"/><path class="cls-5" d="M6.07,414.717a23.852,23.852,0,1,0,32.8-34.187"/><rect class="cls-4" x="209.273" y="87.866" width="3.947" height="12.761"/><rect class="cls-4" x="202.233" y="87.866" width="3.948" height="12.761"/><rect class="cls-4" x="195.193" y="87.866" width="3.947" height="12.761"/><rect class="cls-4" x="188.153" y="87.866" width="3.947" height="12.761"/><rect class="cls-4" x="181.113" y="87.866" width="3.947" height="12.761"/><rect class="cls-4" x="244.474" y="87.866" width="3.947" height="12.761"/><rect class="cls-4" x="237.433" y="87.866" width="3.948" height="12.761"/><rect class="cls-4" x="258.554" y="87.866" width="3.947" height="12.761"/><rect class="cls-4" x="251.514" y="87.866" width="3.948" height="12.761"/><rect class="cls-4" x="230.393" y="87.866" width="3.947" height="12.761"/><rect class="cls-4" x="223.353" y="87.866" width="3.947" height="12.761"/><rect class="cls-4" x="216.313" y="87.866" width="3.947" height="12.761"/><rect class="cls-4" x="163.799" y="76.463" width="9.957" height="22.588" rx="4.979"/><rect class="cls-4" x="277.813" y="76.463" width="9.957" height="22.588" rx="4.979"/><rect class="cls-7" x="168.061" y="72.658" width="114.73" height="19.243" rx="3.488"/><path class="cls-4" d="M161.334,44.443V23.4a3.432,3.432,0,0,1,3.265-3.56H286.576a3.433,3.433,0,0,1,3.265,3.56V44.442A3.432,3.432,0,0,1,286.576,48H164.6a3.431,3.431,0,0,1-3.265-3.559"/><path class="cls-4" d="M178.073,89.584V78.4a3.212,3.212,0,0,0-2.94-3.187,1.617,1.617,0,0,0-.26-.013h-7.13V3.56A2.482,2.482,0,0,1,170.133,1h110.59A2.479,2.479,0,0,1,283.1,3.56V75.2h-7.121a3.2,3.2,0,0,0-3.2,3.2v11.18Z"/><path class="cls-7" d="M280.723,2a1.5,1.5,0,0,1,1.38,1.56V74.2h-6.12a4.2,4.2,0,0,0-4.2,4.2v10.18h-92.71V78.4a4.218,4.218,0,0,0-3.794-4.178,3.159,3.159,0,0,0-.406-.022h-6.13V3.56A1.484,1.484,0,0,1,170.133,2h110.59m0-2H170.133a3.483,3.483,0,0,0-3.39,3.56V76.2h8.13a1.087,1.087,0,0,1,.18.01,2.193,2.193,0,0,1,2.02,2.19v12.18h96.71V78.4a2.194,2.194,0,0,1,2.2-2.2h8.12V3.56A3.482,3.482,0,0,0,280.723,0Z"/><line class="cls-8" x1="274.832" y1="96.893" x2="265.618" y2="96.893"/><line class="cls-8" x1="179.075" y1="96.893" x2="175.485" y2="96.893"/><path class="cls-9" d="M245.637,38.146V32.663a.746.746,0,0,1,.724-.762h9.789a.746.746,0,0,1,.723.762v5.483a.746.746,0,0,1-.723.761h-9.789a.746.746,0,0,1-.724-.761"/><path class="cls-9" d="M196.167,38.146V32.663a.745.745,0,0,1,.724-.762h9.788a.746.746,0,0,1,.724.762v5.483a.747.747,0,0,1-.724.762h-9.788a.746.746,0,0,1-.724-.762"/><path class="cls-9" d="M262.7,81.971V90.58H243.923V81.971a1.908,1.908,0,0,1,1.908-1.908H260.8A1.908,1.908,0,0,1,262.7,81.971Z"/><path class="cls-7" d="M246.26,91.327V83.688a.535.535,0,0,1,.483-.573h13.3a.536.536,0,0,1,.483.573v7.639a.535.535,0,0,1-.483.573h-13.3a.535.535,0,0,1-.483-.573"/><path class="cls-4" d="M249.169,92.107V78.6c0-1.176.548-2.138,1.219-2.138h6.522c.671,0,1.219.963,1.219,2.139v13.5c0,1.177-.548,2.139-1.219,2.139h-6.522c-.671,0-1.219-.962-1.219-2.139"/><path class="cls-10" d="M194.757,65.041V68.7a1.128,1.128,0,0,1-1.128,1.128h-8.182a1.128,1.128,0,0,1-1.128-1.128V65.041a1.061,1.061,0,0,1,1.061-1.061H193.7A1.061,1.061,0,0,1,194.757,65.041Z"/><path class="cls-10" d="M209.476,65.041V68.7a1.128,1.128,0,0,1-1.128,1.128h-8.182a1.128,1.128,0,0,1-1.128-1.128V65.041A1.061,1.061,0,0,1,200.1,63.98h8.316A1.061,1.061,0,0,1,209.476,65.041Z"/><path class="cls-10" d="M224.2,65.041V68.7a1.128,1.128,0,0,1-1.128,1.128h-8.182a1.128,1.128,0,0,1-1.128-1.128V65.041a1.061,1.061,0,0,1,1.061-1.061h8.316A1.061,1.061,0,0,1,224.2,65.041Z"/><path class="cls-10" d="M238.914,65.041V68.7a1.128,1.128,0,0,1-1.128,1.128H229.6a1.128,1.128,0,0,1-1.128-1.128V65.041a1.061,1.061,0,0,1,1.061-1.061h8.316A1.061,1.061,0,0,1,238.914,65.041Z"/><path class="cls-10" d="M253.633,65.041V68.7a1.128,1.128,0,0,1-1.128,1.128h-8.182A1.127,1.127,0,0,1,243.2,68.7V65.041a1.06,1.06,0,0,1,1.06-1.061h8.316A1.061,1.061,0,0,1,253.633,65.041Z"/><path class="cls-10" d="M268.352,65.041V68.7a1.128,1.128,0,0,1-1.128,1.128h-8.182a1.127,1.127,0,0,1-1.127-1.128V65.041a1.06,1.06,0,0,1,1.06-1.061h8.316A1.061,1.061,0,0,1,268.352,65.041Z"/><path class="cls-9" d="M209.5,81.971V90.58H190.716V81.971a1.909,1.909,0,0,1,1.909-1.908h14.964A1.908,1.908,0,0,1,209.5,81.971Z"/><path class="cls-7" d="M193.053,91.327V83.688a.536.536,0,0,1,.483-.573h13.3a.536.536,0,0,1,.483.573v7.639a.535.535,0,0,1-.483.573h-13.3a.535.535,0,0,1-.483-.573"/><path class="cls-4" d="M195.962,92.107V78.6c0-1.176.549-2.138,1.219-2.138H203.7c.67,0,1.218.963,1.218,2.139v13.5c0,1.177-.548,2.139-1.218,2.139h-6.523c-.67,0-1.219-.962-1.219-2.139"/><path class="cls-11" d="M174.741,0V76.2a1.01,1.01,0,0,0-.173-.01h-7.825V3.559A3.426,3.426,0,0,1,170.006,0Z"/><path class="cls-12" d="M284.1,3.56V76.2h-6.78V0h3.951C282.831,0,284.1,1.6,284.1,3.56Z"/><path class="cls-13" d="M337.865,351.8v-1.519a2.455,2.455,0,0,1,2.372-2.53H365.37a2.455,2.455,0,0,1,2.371,2.53V351.8a2.455,2.455,0,0,1-2.371,2.53H340.237a2.456,2.456,0,0,1-2.372-2.53"/><path class="cls-13" d="M337.865,229.106v-1.512a2.425,2.425,0,0,1,2.315-2.521h24.532a2.423,2.423,0,0,1,2.314,2.521v1.512a2.424,2.424,0,0,1-2.314,2.522H340.18a2.426,2.426,0,0,1-2.315-2.522"/><path class="cls-14" d="M359.028,354.91h2.319c1.238,0,2.243.138,2.243-1.372V347.67c0-1.156-.59-1.026-1.422-1.426V232.6c.832-.4,1.422-.469,1.422-1.624v-3.97a2.525,2.525,0,0,0-2.243-2.734h-2.319a2.346,2.346,0,0,0-2.136,1.944h-8.959a2.346,2.346,0,0,0-2.137-1.944h-2.317a2.525,2.525,0,0,0-2.244,2.734v4.126c0,1.195.633,1.179,1.508,1.551V346.3c-.875.372-1.508.258-1.508,1.451v4.429a2.525,2.525,0,0,0,2.244,2.733H345.8a2.291,2.291,0,0,0,2.075-1.7h9.083a2.291,2.291,0,0,0,2.074,1.7"/><path class="cls-15" d="M344.766,344.474V234.039a1.36,1.36,0,0,1,1.146-1.5h12.565a1.36,1.36,0,0,1,1.146,1.5V344.474a1.36,1.36,0,0,1-1.146,1.5H345.912a1.36,1.36,0,0,1-1.146-1.5"/><path class="cls-13" d="M371.4,242.7v-2.087a.638.638,0,0,0-.692-.56h-2.28a.64.64,0,0,0-.684.53h-6.1v2.147h6.1a.639.639,0,0,0,.684.53h2.28a.638.638,0,0,0,.692-.56"/><path class="cls-16" d="M359.4,242.44v-2.773a.5.5,0,0,1,.548-.443h1.67a.5.5,0,0,1,.548.443v2.773a.5.5,0,0,1-.548.444h-1.67a.5.5,0,0,1-.548-.444"/><path class="cls-13" d="M332.987,242.7v-2.087a.637.637,0,0,1,.692-.56h2.28a.638.638,0,0,1,.683.53h6.1v2.147h-6.1a.638.638,0,0,1-.683.53h-2.28a.637.637,0,0,1-.692-.56"/><path class="cls-16" d="M344.986,242.44v-2.773a.5.5,0,0,0-.548-.443h-1.67a.506.506,0,0,0-.549.443v2.773a.506.506,0,0,0,.549.444h1.67a.5.5,0,0,0,.548-.444"/><path class="cls-13" d="M371.4,247.776V245.69a.637.637,0,0,0-.692-.56h-2.28a.639.639,0,0,0-.684.529h-6.1v2.148h6.1a.638.638,0,0,0,.684.528h2.28a.636.636,0,0,0,.692-.559"/><path class="cls-16" d="M359.4,247.522v-2.773a.506.506,0,0,1,.548-.444h1.67a.5.5,0,0,1,.548.444v2.773a.5.5,0,0,1-.548.444h-1.67a.506.506,0,0,1-.548-.444"/><path class="cls-13" d="M332.987,247.776V245.69a.636.636,0,0,1,.692-.56h2.28a.638.638,0,0,1,.683.529h6.1v2.148h-6.1a.637.637,0,0,1-.683.528h-2.28a.635.635,0,0,1-.692-.559"/><path class="cls-16" d="M344.986,247.522v-2.773a.5.5,0,0,0-.548-.444h-1.67a.507.507,0,0,0-.549.444v2.773a.507.507,0,0,0,.549.444h1.67a.5.5,0,0,0,.548-.444"/><path class="cls-13" d="M371.4,253.16v-2.087a.637.637,0,0,0-.692-.559h-2.28a.638.638,0,0,0-.684.529h-6.1v2.148h6.1a.639.639,0,0,0,.684.529h2.28a.638.638,0,0,0,.692-.56"/><path class="cls-16" d="M359.4,252.906v-2.773a.5.5,0,0,1,.548-.444h1.67a.5.5,0,0,1,.548.444v2.773a.5.5,0,0,1-.548.443h-1.67a.5.5,0,0,1-.548-.443"/><path class="cls-13" d="M332.987,253.16v-2.087a.636.636,0,0,1,.692-.559h2.28a.637.637,0,0,1,.683.529h6.1v2.148h-6.1a.638.638,0,0,1-.683.529h-2.28a.637.637,0,0,1-.692-.56"/><path class="cls-16" d="M344.986,252.906v-2.773a.5.5,0,0,0-.548-.444h-1.67a.506.506,0,0,0-.549.444v2.773a.506.506,0,0,0,.549.443h1.67a.5.5,0,0,0,.548-.443"/><path class="cls-13" d="M371.4,258.423v-2.087a.638.638,0,0,0-.692-.56h-2.28a.639.639,0,0,0-.684.529h-6.1v2.147h6.1a.639.639,0,0,0,.684.531h2.28a.638.638,0,0,0,.692-.56"/><path class="cls-16" d="M359.4,258.168V255.4a.5.5,0,0,1,.548-.443h1.67a.5.5,0,0,1,.548.443v2.773a.5.5,0,0,1-.548.444h-1.67a.5.5,0,0,1-.548-.444"/><path class="cls-13" d="M332.987,258.423v-2.087a.637.637,0,0,1,.692-.56h2.28a.638.638,0,0,1,.683.529h6.1v2.147h-6.1a.638.638,0,0,1-.683.531h-2.28a.637.637,0,0,1-.692-.56"/><path class="cls-16" d="M344.986,258.168V255.4a.5.5,0,0,0-.548-.443h-1.67a.505.505,0,0,0-.549.443v2.773a.506.506,0,0,0,.549.444h1.67a.5.5,0,0,0,.548-.444"/><path class="cls-13" d="M371.4,263.549v-2.086a.638.638,0,0,0-.692-.56h-2.28a.639.639,0,0,0-.684.529h-6.1v2.148h6.1a.639.639,0,0,0,.684.529h2.28a.637.637,0,0,0,.692-.56"/><path class="cls-16" d="M359.4,263.3v-2.772a.506.506,0,0,1,.548-.445h1.67a.5.5,0,0,1,.548.445V263.3a.5.5,0,0,1-.548.444h-1.67a.506.506,0,0,1-.548-.444"/><path class="cls-13" d="M332.987,263.549v-2.086a.637.637,0,0,1,.692-.56h2.28a.638.638,0,0,1,.683.529h6.1v2.148h-6.1a.638.638,0,0,1-.683.529h-2.28a.636.636,0,0,1-.692-.56"/><path class="cls-16" d="M344.986,263.3v-2.772a.5.5,0,0,0-.548-.445h-1.67a.507.507,0,0,0-.549.445V263.3a.507.507,0,0,0,.549.444h1.67a.5.5,0,0,0,.548-.444"/><path class="cls-13" d="M371.4,268.631v-2.087a.638.638,0,0,0-.692-.56h-2.28a.639.639,0,0,0-.684.53h-6.1v2.147h6.1a.639.639,0,0,0,.684.53h2.28a.638.638,0,0,0,.692-.56"/><path class="cls-16" d="M359.4,268.376V265.6a.506.506,0,0,1,.548-.444h1.67a.5.5,0,0,1,.548.444v2.773a.5.5,0,0,1-.548.444h-1.67a.5.5,0,0,1-.548-.444"/><path class="cls-13" d="M332.987,268.631v-2.087a.637.637,0,0,1,.692-.56h2.28a.638.638,0,0,1,.683.53h6.1v2.147h-6.1a.638.638,0,0,1-.683.53h-2.28a.637.637,0,0,1-.692-.56"/><path class="cls-16" d="M344.986,268.376V265.6a.5.5,0,0,0-.548-.444h-1.67a.507.507,0,0,0-.549.444v2.773a.506.506,0,0,0,.549.444h1.67a.5.5,0,0,0,.548-.444"/><path class="cls-13" d="M371.4,273.773v-2.087a.638.638,0,0,0-.692-.56h-2.28a.639.639,0,0,0-.684.529h-6.1V273.8h6.1a.638.638,0,0,0,.684.529h2.28a.637.637,0,0,0,.692-.559"/><path class="cls-16" d="M359.4,273.518v-2.773a.5.5,0,0,1,.548-.444h1.67a.5.5,0,0,1,.548.444v2.773a.5.5,0,0,1-.548.443h-1.67a.5.5,0,0,1-.548-.443"/><path class="cls-13" d="M332.987,273.773v-2.087a.637.637,0,0,1,.692-.56h2.28a.638.638,0,0,1,.683.529h6.1V273.8h-6.1a.637.637,0,0,1-.683.529h-2.28a.636.636,0,0,1-.692-.559"/><path class="cls-16" d="M344.986,273.518v-2.773a.5.5,0,0,0-.548-.444h-1.67a.506.506,0,0,0-.549.444v2.773a.505.505,0,0,0,.549.443h1.67a.5.5,0,0,0,.548-.443"/><path class="cls-13" d="M371.4,278.975v-2.087a.638.638,0,0,0-.692-.56h-2.28a.639.639,0,0,0-.684.529h-6.1v2.148h6.1a.638.638,0,0,0,.684.529h2.28a.637.637,0,0,0,.692-.559"/><path class="cls-16" d="M359.4,278.72v-2.773a.5.5,0,0,1,.548-.443h1.67a.5.5,0,0,1,.548.443v2.773a.5.5,0,0,1-.548.443h-1.67a.5.5,0,0,1-.548-.443"/><path class="cls-13" d="M332.987,278.975v-2.087a.637.637,0,0,1,.692-.56h2.28a.638.638,0,0,1,.683.529h6.1v2.148h-6.1a.637.637,0,0,1-.683.529h-2.28a.636.636,0,0,1-.692-.559"/><path class="cls-16" d="M344.986,278.72v-2.773a.5.5,0,0,0-.548-.443h-1.67a.506.506,0,0,0-.549.443v2.773a.505.505,0,0,0,.549.443h1.67a.5.5,0,0,0,.548-.443"/><path class="cls-13" d="M371.4,284.177V282.09a.638.638,0,0,0-.692-.56h-2.28a.639.639,0,0,0-.684.53h-6.1v2.147h6.1a.639.639,0,0,0,.684.53h2.28a.638.638,0,0,0,.692-.56"/><path class="cls-16" d="M359.4,283.923v-2.774a.5.5,0,0,1,.548-.443h1.67a.5.5,0,0,1,.548.443v2.774a.5.5,0,0,1-.548.444h-1.67a.506.506,0,0,1-.548-.444"/><path class="cls-13" d="M332.987,284.177V282.09a.637.637,0,0,1,.692-.56h2.28a.638.638,0,0,1,.683.53h6.1v2.147h-6.1a.638.638,0,0,1-.683.53h-2.28a.637.637,0,0,1-.692-.56"/><path class="cls-16" d="M344.986,283.923v-2.774a.5.5,0,0,0-.548-.443h-1.67a.506.506,0,0,0-.549.443v2.774a.507.507,0,0,0,.549.444h1.67a.5.5,0,0,0,.548-.444"/><path class="cls-13" d="M371.4,289.319v-2.087a.638.638,0,0,0-.692-.56h-2.28a.639.639,0,0,0-.684.53h-6.1v2.146h6.1a.639.639,0,0,0,.684.531h2.28a.638.638,0,0,0,.692-.56"/><path class="cls-16" d="M359.4,289.064v-2.773a.5.5,0,0,1,.548-.443h1.67a.5.5,0,0,1,.548.443v2.773a.5.5,0,0,1-.548.444h-1.67a.5.5,0,0,1-.548-.444"/><path class="cls-13" d="M332.987,289.319v-2.087a.637.637,0,0,1,.692-.56h2.28a.638.638,0,0,1,.683.53h6.1v2.146h-6.1a.638.638,0,0,1-.683.531h-2.28a.637.637,0,0,1-.692-.56"/><path class="cls-16" d="M344.986,289.064v-2.773a.5.5,0,0,0-.548-.443h-1.67a.505.505,0,0,0-.549.443v2.773a.506.506,0,0,0,.549.444h1.67a.5.5,0,0,0,.548-.444"/><path class="cls-13" d="M371.4,294.642v-2.087a.638.638,0,0,0-.692-.56h-2.28a.639.639,0,0,0-.684.53h-6.1v2.147h6.1a.639.639,0,0,0,.684.53h2.28a.638.638,0,0,0,.692-.56"/><path class="cls-16" d="M359.4,294.387v-2.773a.5.5,0,0,1,.548-.443h1.67a.5.5,0,0,1,.548.443v2.773a.5.5,0,0,1-.548.444h-1.67a.5.5,0,0,1-.548-.444"/><path class="cls-13" d="M332.987,294.642v-2.087a.637.637,0,0,1,.692-.56h2.28a.638.638,0,0,1,.683.53h6.1v2.147h-6.1a.638.638,0,0,1-.683.53h-2.28a.637.637,0,0,1-.692-.56"/><path class="cls-16" d="M344.986,294.387v-2.773a.5.5,0,0,0-.548-.443h-1.67a.506.506,0,0,0-.549.443v2.773a.506.506,0,0,0,.549.444h1.67a.5.5,0,0,0,.548-.444"/><path class="cls-13" d="M371.4,299.846V297.76a.637.637,0,0,0-.692-.56h-2.28a.639.639,0,0,0-.684.529h-6.1v2.148h6.1a.639.639,0,0,0,.684.529h2.28a.637.637,0,0,0,.692-.56"/><path class="cls-16" d="M359.4,299.592v-2.773a.5.5,0,0,1,.548-.443h1.67a.5.5,0,0,1,.548.443v2.773a.5.5,0,0,1-.548.443h-1.67a.5.5,0,0,1-.548-.443"/><path class="cls-13" d="M332.987,299.846V297.76a.636.636,0,0,1,.692-.56h2.28a.638.638,0,0,1,.683.529h6.1v2.148h-6.1a.638.638,0,0,1-.683.529h-2.28a.636.636,0,0,1-.692-.56"/><path class="cls-16" d="M344.986,299.592v-2.773a.5.5,0,0,0-.548-.443h-1.67a.505.505,0,0,0-.549.443v2.773a.505.505,0,0,0,.549.443h1.67a.5.5,0,0,0,.548-.443"/><path class="cls-13" d="M371.4,305.171v-2.087a.638.638,0,0,0-.692-.56h-2.28a.639.639,0,0,0-.684.53h-6.1V305.2h6.1a.639.639,0,0,0,.684.529h2.28a.638.638,0,0,0,.692-.56"/><path class="cls-16" d="M359.4,304.917v-2.773a.506.506,0,0,1,.548-.445h1.67a.5.5,0,0,1,.548.445v2.773a.5.5,0,0,1-.548.443h-1.67a.5.5,0,0,1-.548-.443"/><path class="cls-13" d="M332.987,305.171v-2.087a.637.637,0,0,1,.692-.56h2.28a.638.638,0,0,1,.683.53h6.1V305.2h-6.1a.638.638,0,0,1-.683.529h-2.28a.637.637,0,0,1-.692-.56"/><path class="cls-16" d="M344.986,304.917v-2.773a.5.5,0,0,0-.548-.445h-1.67a.507.507,0,0,0-.549.445v2.773a.506.506,0,0,0,.549.443h1.67a.5.5,0,0,0,.548-.443"/><path class="cls-13" d="M371.4,310.313v-2.087a.638.638,0,0,0-.692-.56h-2.28a.639.639,0,0,0-.684.53h-6.1v2.147h6.1a.639.639,0,0,0,.684.53h2.28a.638.638,0,0,0,.692-.56"/><path class="cls-16" d="M359.4,310.058v-2.772a.5.5,0,0,1,.548-.444h1.67a.5.5,0,0,1,.548.444v2.772a.5.5,0,0,1-.548.444h-1.67a.5.5,0,0,1-.548-.444"/><path class="cls-13" d="M332.987,310.313v-2.087a.637.637,0,0,1,.692-.56h2.28a.638.638,0,0,1,.683.53h6.1v2.147h-6.1a.638.638,0,0,1-.683.53h-2.28a.637.637,0,0,1-.692-.56"/><path class="cls-16" d="M344.986,310.058v-2.772a.5.5,0,0,0-.548-.444h-1.67a.506.506,0,0,0-.549.444v2.772a.506.506,0,0,0,.549.444h1.67a.5.5,0,0,0,.548-.444"/><path class="cls-13" d="M371.4,315.515v-2.087a.638.638,0,0,0-.692-.56h-2.28a.639.639,0,0,0-.684.53h-6.1v2.147h6.1a.639.639,0,0,0,.684.53h2.28a.638.638,0,0,0,.692-.56"/><path class="cls-16" d="M359.4,315.26v-2.773a.5.5,0,0,1,.548-.443h1.67a.5.5,0,0,1,.548.443v2.773a.5.5,0,0,1-.548.444h-1.67a.5.5,0,0,1-.548-.444"/><path class="cls-13" d="M332.987,315.515v-2.087a.637.637,0,0,1,.692-.56h2.28a.638.638,0,0,1,.683.53h6.1v2.147h-6.1a.638.638,0,0,1-.683.53h-2.28a.637.637,0,0,1-.692-.56"/><path class="cls-16" d="M344.986,315.26v-2.773a.5.5,0,0,0-.548-.443h-1.67a.506.506,0,0,0-.549.443v2.773a.506.506,0,0,0,.549.444h1.67a.5.5,0,0,0,.548-.444"/><path class="cls-13" d="M371.4,320.717v-2.086a.637.637,0,0,0-.692-.56h-2.28a.639.639,0,0,0-.684.529h-6.1v2.147h6.1a.639.639,0,0,0,.684.53h2.28a.638.638,0,0,0,.692-.56"/><path class="cls-16" d="M359.4,320.462V317.69a.5.5,0,0,1,.548-.444h1.67a.5.5,0,0,1,.548.444v2.772a.5.5,0,0,1-.548.444h-1.67a.5.5,0,0,1-.548-.444"/><path class="cls-13" d="M332.987,320.717v-2.086a.636.636,0,0,1,.692-.56h2.28a.638.638,0,0,1,.683.529h6.1v2.147h-6.1a.638.638,0,0,1-.683.53h-2.28a.637.637,0,0,1-.692-.56"/><path class="cls-16" d="M344.986,320.462V317.69a.5.5,0,0,0-.548-.444h-1.67a.506.506,0,0,0-.549.444v2.772a.506.506,0,0,0,.549.444h1.67a.5.5,0,0,0,.548-.444"/><path class="cls-13" d="M371.4,325.859v-2.087a.637.637,0,0,0-.692-.559h-2.28a.638.638,0,0,0-.684.529h-6.1v2.147h6.1a.639.639,0,0,0,.684.53h2.28a.638.638,0,0,0,.692-.56"/><path class="cls-16" d="M359.4,325.6v-2.772a.5.5,0,0,1,.548-.444h1.67a.5.5,0,0,1,.548.444V325.6a.5.5,0,0,1-.548.444h-1.67a.5.5,0,0,1-.548-.444"/><path class="cls-13" d="M332.987,325.859v-2.087a.636.636,0,0,1,.692-.559h2.28a.637.637,0,0,1,.683.529h6.1v2.147h-6.1a.638.638,0,0,1-.683.53h-2.28a.637.637,0,0,1-.692-.56"/><path class="cls-16" d="M344.986,325.6v-2.772a.5.5,0,0,0-.548-.444h-1.67a.506.506,0,0,0-.549.444V325.6a.506.506,0,0,0,.549.444h1.67a.5.5,0,0,0,.548-.444"/><path class="cls-13" d="M371.4,331.182V329.1a.637.637,0,0,0-.692-.56h-2.28a.638.638,0,0,0-.684.529h-6.1v2.148h6.1a.639.639,0,0,0,.684.529h2.28a.638.638,0,0,0,.692-.56"/><path class="cls-16" d="M359.4,330.928v-2.773a.506.506,0,0,1,.548-.444h1.67a.5.5,0,0,1,.548.444v2.773a.5.5,0,0,1-.548.443h-1.67a.5.5,0,0,1-.548-.443"/><path class="cls-13" d="M332.987,331.182V329.1a.636.636,0,0,1,.692-.56h2.28a.637.637,0,0,1,.683.529h6.1v2.148h-6.1a.638.638,0,0,1-.683.529h-2.28a.637.637,0,0,1-.692-.56"/><path class="cls-16" d="M344.986,330.928v-2.773a.5.5,0,0,0-.548-.444h-1.67a.507.507,0,0,0-.549.444v2.773a.506.506,0,0,0,.549.443h1.67a.5.5,0,0,0,.548-.443"/><path class="cls-13" d="M371.4,336.387V334.3a.638.638,0,0,0-.692-.56h-2.28a.64.64,0,0,0-.684.529h-6.1v2.148h6.1a.638.638,0,0,0,.684.529h2.28a.637.637,0,0,0,.692-.559"/><path class="cls-16" d="M359.4,336.132v-2.773a.5.5,0,0,1,.548-.443h1.67a.5.5,0,0,1,.548.443v2.773a.5.5,0,0,1-.548.443h-1.67a.5.5,0,0,1-.548-.443"/><path class="cls-13" d="M332.987,336.387V334.3a.637.637,0,0,1,.692-.56h2.28a.639.639,0,0,1,.683.529h6.1v2.148h-6.1a.637.637,0,0,1-.683.529h-2.28a.636.636,0,0,1-.692-.559"/><path class="cls-16" d="M344.986,336.132v-2.773a.5.5,0,0,0-.548-.443h-1.67a.505.505,0,0,0-.549.443v2.773a.505.505,0,0,0,.549.443h1.67a.5.5,0,0,0,.548-.443"/><path class="cls-13" d="M371.4,341.876V339.79a.637.637,0,0,0-.692-.56h-2.28a.64.64,0,0,0-.684.529h-6.1v2.148h6.1a.639.639,0,0,0,.684.529h2.28a.637.637,0,0,0,.692-.56"/><path class="cls-16" d="M359.4,341.622v-2.773a.5.5,0,0,1,.548-.443h1.67a.5.5,0,0,1,.548.443v2.773a.5.5,0,0,1-.548.443h-1.67a.5.5,0,0,1-.548-.443"/><path class="cls-13" d="M332.987,341.876V339.79a.636.636,0,0,1,.692-.56h2.28a.639.639,0,0,1,.683.529h6.1v2.148h-6.1a.638.638,0,0,1-.683.529h-2.28a.636.636,0,0,1-.692-.56"/><path class="cls-16" d="M344.986,341.622v-2.773a.5.5,0,0,0-.548-.443h-1.67a.506.506,0,0,0-.549.443v2.773a.505.505,0,0,0,.549.443h1.67a.5.5,0,0,0,.548-.443"/><path class="cls-16" d="M360.427,348.593c.962,0,1.741.866,1.741,2.629s-.779,2.65-1.741,2.65-1.74-.886-1.74-2.65.78-2.629,1.74-2.629"/><path class="cls-16" d="M344.484,348.593c.962,0,1.742.866,1.742,2.629s-.78,2.65-1.742,2.65-1.741-.886-1.741-2.65.78-2.629,1.741-2.629"/><path class="cls-16" d="M360.427,225.545c.962,0,1.741.866,1.741,2.629s-.779,2.65-1.741,2.65-1.74-.886-1.74-2.65.78-2.629,1.74-2.629"/><path class="cls-16" d="M344.484,225.545c.962,0,1.742.866,1.742,2.629s-.78,2.65-1.742,2.65-1.741-.886-1.741-2.65.78-2.629,1.741-2.629"/><rect class="cls-5" x="21.338" y="422.773" width="32.809" height="33.702" rx="0.163"/><rect class="cls-5" x="54.147" y="422.773" width="95.213" height="33.702" rx="0.278"/><rect class="cls-5" x="331.771" y="422.773" width="32.809" height="33.702" rx="0.163" transform="translate(696.35 879.248) rotate(180)"/><rect class="cls-5" x="236.558" y="422.773" width="95.213" height="33.702" rx="0.278" transform="translate(568.328 879.248) rotate(180)"/><path class="cls-17" d="M134.205,388.8c1.735-.185,2.46-1.314,2.46-2.982,0-1.365-.489-2.695-2.056-2.695-2.965,0-.876,7.7-5.61,7.7-2.56,0-3.587-2.511-3.587-4.7,0-2.695,1.33-4.969,4.245-4.969v1.516c-2.022,0-2.9,1.685-2.9,3.5,0,1.448.455,3.049,2.19,3.049,3.3,0,1.129-7.7,5.542-7.7,2.426,0,3.521,2.156,3.521,4.363,0,2.459-1.162,4.346-3.807,4.43Z"/><path class="cls-17" d="M137.726,392.761v4.127c0,3.706-1.87,5.778-5.728,5.778-4.026,0-6.3-1.769-6.3-5.778v-4.127Zm-10.681,1.6v2.662c0,1.094.3,4.043,4.734,4.043,2.864,0,4.6-1.062,4.6-4.01v-2.695Z"/><path class="cls-17" d="M137.726,407.889v1.77l-12.028,4.7v-1.769l3.622-1.313v-5.088L125.7,404.84v-1.65Zm-7.059-1.195v4.076l5.61-2v-.033Z"/><path class="cls-17" d="M260.278,373.8v4.363a7.237,7.237,0,0,1-.438,3.184,2.834,2.834,0,0,1-2.509,1.415,2.756,2.756,0,0,1-2.7-1.786H254.6a2.767,2.767,0,0,1-2.9,2.291,3.435,3.435,0,0,1-3.454-3.655V373.8Zm-10.68,1.6v4.01a2.045,2.045,0,0,0,2.156,2.257c1.567,0,2-1.263,2-2.611V375.4Zm5.509,0v3.2c0,1.82.64,2.561,1.92,2.561,1.684,0,1.9-1.163,1.9-2.561v-3.2Z"/><path class="cls-17" d="M260.565,390.429c0,3.824-3.016,5.761-6.3,5.761s-6.3-1.937-6.3-5.761,3.015-5.761,6.3-5.761S260.565,386.605,260.565,390.429Zm-11.253,0c0,2.931,2.526,4.161,4.952,4.161s4.953-1.23,4.953-4.161-2.527-4.161-4.953-4.161S249.312,387.5,249.312,390.429Z"/><path class="cls-17" d="M260.565,403.233c0,3.824-3.016,5.761-6.3,5.761s-6.3-1.937-6.3-5.761,3.015-5.761,6.3-5.761S260.565,399.409,260.565,403.233Zm-11.253,0c0,2.931,2.526,4.161,4.952,4.161s4.953-1.23,4.953-4.161-2.527-4.161-4.953-4.161S249.312,400.3,249.312,403.233Z"/><path class="cls-17" d="M258.931,413.679V409.67h1.347v9.619h-1.347v-4.01H248.25v-1.6Z"/><path class="cls-17" d="M271.069,382.8a4.8,4.8,0,0,1-1.785-3.858c0-3.588,2.914-5.727,6.064-5.727,3.5,0,6.536,1.92,6.536,5.727,0,2.611-1.179,4.734-3.992,5.172v-1.6c1.819-.321,2.645-1.769,2.645-3.572,0-2.914-2.544-4.127-5.1-4.127-2.51,0-4.8,1.449-4.8,4.127a3.616,3.616,0,0,0,3.925,3.858v-3.841H275.9v5.272H269.57v-1.01Z"/><path class="cls-17" d="M281.6,386.571v1.7l-9.754,6.334v.033H281.6v1.517H269.57v-1.752l9.652-6.284v-.033H269.57v-1.517Z"/><path class="cls-17" d="M281.6,398.752v4.128c0,3.706-1.87,5.778-5.728,5.778-4.026,0-6.3-1.77-6.3-5.778v-4.128Zm-10.681,1.6v2.662c0,1.095.3,4.043,4.734,4.043,2.864,0,4.6-1.061,4.6-4.009v-2.7Z"/><path class="cls-17" d="M300.676,376.53v-4.009h1.347v9.618h-1.347v-4.008H290v-1.6Z"/><path class="cls-17" d="M296.178,386.335l5.845-3.958v1.92l-4.7,3,4.7,3.133v1.786l-5.845-3.976L290,392.467v-1.954l4.969-3.234L290,383.943v-1.8Z"/><path class="cls-17" d="M290,398.449v-1.433h8.557v-3.1H299.7c0,1.634.421,3.117,2.24,3.436v1.1Z"/><path class="cls-17" d="M321.811,373.8v5.66c0,2.274-1.213,3.656-3.15,3.656a2.858,2.858,0,0,1-3.05-2.089h-.033c-.27,1.4-1.314,1.668-2.477,1.8-1.162.085-2.51.034-3.318.708v-1.786c.488-.454,1.785-.2,2.965-.438,1.162-.185,2.172-.455,2.172-2V375.4h-5.137v-1.6Zm-5.543,4.936c0,1.483.388,2.779,2.14,2.779a1.9,1.9,0,0,0,2.055-2.139V375.4h-4.2Z"/><path class="cls-17" d="M315.965,388.205l5.846-3.958v1.92l-4.7,3,4.7,3.133v1.786l-5.846-3.976-6.182,4.228v-1.954l4.969-3.234-4.969-3.336v-1.8Z"/><path class="cls-17" d="M309.783,400.319v-1.432h8.557v-3.1h1.146c0,1.634.421,3.117,2.24,3.436v1.1Z"/><path class="cls-17" d="M160.791,139.576h5.933c2.383,0,3.831,1.272,3.831,3.3a3,3,0,0,1-2.19,3.2v.035c1.466.282,1.748,1.377,1.889,2.595.089,1.218.036,2.631.742,3.478h-1.872c-.476-.512-.211-1.872-.459-3.107-.194-1.218-.476-2.278-2.1-2.278h-4.095v5.385h-1.678Zm5.173,5.809c1.554,0,2.913-.406,2.913-2.242a1.986,1.986,0,0,0-2.242-2.154h-4.166v4.4Z"/><path class="cls-17" d="M176.307,139.576h1.854l4.925,12.606h-1.854l-1.377-3.8h-5.331l-1.413,3.8h-1.73Zm-1.254,7.4h4.273l-2.1-5.879h-.036Z"/><path class="cls-17" d="M184.319,139.576H186v6.286l6.391-6.286h2.171l-5.314,5.085,5.526,7.521h-2.119l-4.554-6.373-2.1,1.959v4.414h-1.678Z"/><path class="cls-17" d="M201,152.182h-1.5v-8.968h-3.248v-1.2c1.713,0,3.266-.441,3.6-2.348H201Z"/><path class="cls-17" d="M206.894,149.163a2.131,2.131,0,0,0,2.295,1.907c1.837,0,2.737-1.589,2.825-4.838l-.035-.035a3.281,3.281,0,0,1-2.9,1.73c-2.559,0-3.954-1.712-3.954-4.184a3.921,3.921,0,0,1,4.114-4.078c2.33,0,4.29,1.253,4.29,5.985,0,4.325-1.307,6.744-4.344,6.744-2.1,0-3.6-1.077-3.795-3.231Zm2.278-8.174c-1.783,0-2.454,1.43-2.454,2.966a2.543,2.543,0,1,0,2.454-2.966Z"/><path class="cls-17" d="M219.25,139.665c3.92,0,4.167,3.619,4.167,6.373s-.247,6.356-4.167,6.356-4.166-3.6-4.166-6.356S215.332,139.665,219.25,139.665Zm0,11.405c2.561,0,2.578-3.178,2.578-5.05,0-1.853-.017-5.031-2.578-5.031s-2.577,3.178-2.577,5.031C216.673,147.892,216.691,151.07,219.25,151.07Z"/><path class="cls-17" d="M229.064,139.665c3.919,0,4.166,3.619,4.166,6.373s-.247,6.356-4.166,6.356-4.166-3.6-4.166-6.356S225.145,139.665,229.064,139.665Zm0,11.405c2.56,0,2.578-3.178,2.578-5.05,0-1.853-.018-5.031-2.578-5.031s-2.577,3.178-2.577,5.031C226.487,147.892,226.5,151.07,229.064,151.07Z"/><path class="cls-17" d="M237.818,145.032a2.218,2.218,0,0,0,.336.018h.318A2.128,2.128,0,0,0,240.855,143a1.979,1.979,0,0,0-2.225-2.013c-1.624,0-2.365,1.253-2.365,2.719h-1.5c.088-2.383,1.359-4.043,3.866-4.043,2.172,0,3.814,1.041,3.814,3.354a2.818,2.818,0,0,1-1.73,2.49v.035a2.839,2.839,0,0,1,2.26,3.036c0,2.49-1.96,3.814-4.308,3.814-2.543,0-4.22-1.483-4.167-4.078H236a2.544,2.544,0,0,0,2.666,2.754,2.5,2.5,0,0,0,2.719-2.419,2.391,2.391,0,0,0-2.666-2.4,7.341,7.341,0,0,0-.9.053Z"/><path class="cls-17" d="M255.028,152.182h-1.906l-4.449-12.606h1.818l3.6,10.929h.035l3.637-10.929h1.748Z"/><path class="cls-17" d="M268.39,149.286a3.654,3.654,0,0,1-3.9,3.108c-2.912,0-4.29-2.03-4.378-4.8,0-2.754,1.8-4.749,4.29-4.749,3.231,0,4.22,3.019,4.131,5.226H261.7a2.688,2.688,0,0,0,2.842,3,2.174,2.174,0,0,0,2.366-1.784Zm-1.448-2.542a2.626,2.626,0,0,0-2.63-2.577,2.588,2.588,0,0,0-2.613,2.577Z"/><path class="cls-17" d="M270.03,143.054h1.412v1.925h.035a3.3,3.3,0,0,1,3.355-2.136v1.588c-2.419,0-3.3,1.36-3.3,3.69v4.061h-1.5Z"/><path class="cls-17" d="M276.3,150.222h1.96v1.96H276.3Z"/><path class="cls-17" d="M281.114,139.576h4.573a7.566,7.566,0,0,1,3.336.46,2.969,2.969,0,0,1,1.483,2.63,2.888,2.888,0,0,1-1.871,2.825v.035a2.9,2.9,0,0,1,2.4,3.037,3.6,3.6,0,0,1-3.831,3.619h-6.091Zm1.677,5.42h3.355c1.907,0,2.683-.671,2.683-2.012,0-1.765-1.218-2-2.683-2h-3.355Zm0,5.773h4.2a2.144,2.144,0,0,0,2.366-2.259c0-1.642-1.324-2.1-2.736-2.1h-3.832Z"/><path class="cls-17" d="M108.92,388.8c1.736-.185,2.46-1.314,2.46-2.982,0-1.365-.488-2.695-2.055-2.695-2.965,0-.876,7.7-5.61,7.7-2.56,0-3.588-2.511-3.588-4.7,0-2.695,1.331-4.969,4.246-4.969v1.516c-2.022,0-2.9,1.685-2.9,3.5,0,1.448.455,3.049,2.19,3.049,3.3,0,1.128-7.7,5.542-7.7,2.426,0,3.521,2.156,3.521,4.363,0,2.459-1.163,4.346-3.808,4.43Z"/><path class="cls-17" d="M108.82,401.217a3.168,3.168,0,0,0,2.56-3.369c0-2.864-2.358-4.077-4.868-4.077-2.746,0-5.037,1.213-5.037,4.094a3.4,3.4,0,0,0,3.47,3.47v1.6c-3.015-.319-4.818-2.156-4.818-5.2,0-3.723,2.763-5.559,6.267-5.559s6.334,1.988,6.334,5.694c0,2.51-1.348,4.6-3.908,4.953Z"/><path class="cls-17" d="M112.441,404.925v1.6h-10.68v6.368h-1.347v-7.968Z"/><path class="cls-17" d="M79.317,390.839a4.8,4.8,0,0,1-1.785-3.857c0-3.589,2.914-5.728,6.064-5.728,3.5,0,6.536,1.92,6.536,5.728,0,2.611-1.179,4.733-3.992,5.171v-1.6c1.819-.32,2.645-1.769,2.645-3.571,0-2.915-2.544-4.128-5.1-4.128-2.51,0-4.8,1.449-4.8,4.128a3.615,3.615,0,0,0,3.925,3.857V387h1.348v5.273H77.818V391.26Z"/><path class="cls-17" d="M89.846,394.614v1.7l-9.754,6.334v.034h9.754V404.2H77.818v-1.752l9.652-6.284v-.033H77.818v-1.516Z"/><path class="cls-17" d="M89.846,406.8v4.127c0,3.706-1.87,5.778-5.728,5.778-4.026,0-6.3-1.769-6.3-5.778V406.8Zm-10.681,1.6v2.662c0,1.095.3,4.043,4.734,4.043,2.864,0,4.6-1.062,4.6-4.01V408.4Z"/><path class="cls-17" d="M54.147,386.577v-1.819l12.028-4.245v1.735l-10.427,3.436v.034l10.427,3.47v1.668Z"/><path class="cls-17" d="M66.175,392.138v4.127c0,3.706-1.87,5.778-5.728,5.778-4.026,0-6.3-1.769-6.3-5.778v-4.127Zm-10.68,1.6V396.4c0,1.094.3,4.043,4.733,4.043,2.864,0,4.6-1.062,4.6-4.01v-2.695Z"/><path class="cls-17" d="M66.175,404v4.127c0,3.706-1.87,5.778-5.728,5.778-4.026,0-6.3-1.769-6.3-5.778V404ZM55.5,405.6v2.662c0,1.1.3,4.043,4.733,4.043,2.864,0,4.6-1.061,4.6-4.01V405.6Z"/><rect class="cls-6" x="61.376" y="122.363" width="13.687" height="25.596"/><path class="cls-4" d="M64.676,142.768V128.51a2.034,2.034,0,0,1,2.033-2.032H71.4a2.034,2.034,0,0,1,2.033,2.032v14.258A2.035,2.035,0,0,1,71.4,144.8H66.709a2,2,0,0,1-2.033-2.033"/><rect class="cls-18" x="64.669" y="131.455" width="8.788" height="8.399"/><rect class="cls-6" x="61.376" y="93.571" width="13.687" height="25.596"/><rect class="cls-6" x="84.013" y="89.864" width="13.687" height="23.143"/><path class="cls-4" d="M64.676,113.975V99.718a2.035,2.035,0,0,1,2.033-2.033H71.4a2.035,2.035,0,0,1,2.033,2.033v14.257a2.035,2.035,0,0,1-2.033,2.033H66.709a2,2,0,0,1-2.033-2.033"/><rect class="cls-18" x="64.669" y="102.662" width="8.788" height="8.399"/><rect class="cls-6" x="107.083" y="59.86" width="13.687" height="25.596" transform="translate(41.269 186.585) rotate(-90)"/><path class="cls-4" d="M121.534,76.2H107.276a2.034,2.034,0,0,1-2.032-2.033V69.476a2.034,2.034,0,0,1,2.032-2.033h14.258a2.035,2.035,0,0,1,2.033,2.033v4.693a2,2,0,0,1-2.033,2.033"/><rect class="cls-18" x="110.22" y="67.42" width="8.399" height="8.788"/><rect class="cls-6" x="245.977" y="111.593" width="13.687" height="25.596" transform="translate(128.429 377.211) rotate(-90)"/><path class="cls-4" d="M260.427,127.935H246.17a2.035,2.035,0,0,1-2.033-2.033V121.21a2.035,2.035,0,0,1,2.033-2.033h14.257a2.035,2.035,0,0,1,2.033,2.033V125.9a2,2,0,0,1-2.033,2.033"/><rect class="cls-18" x="249.114" y="119.153" width="8.399" height="8.788"/><rect class="cls-6" x="138.412" y="61.806" width="13.384" height="24.475" transform="translate(219.147 -71.061) rotate(90)"/><path class="cls-17" d="M142.953,69.41V77.9a1.057,1.057,0,0,1-1.054,1.055h-5.965A1.058,1.058,0,0,1,134.88,77.9V69.41a1.058,1.058,0,0,1,1.054-1.054H141.9a1.057,1.057,0,0,1,1.054,1.054"/><path class="cls-17" d="M155.512,69.41V77.9a1.057,1.057,0,0,1-1.054,1.055h-5.965a1.058,1.058,0,0,1-1.054-1.055V69.41a1.058,1.058,0,0,1,1.054-1.054h5.965a1.057,1.057,0,0,1,1.054,1.054"/><path class="cls-4" d="M137.795,69.245h14.333a2.045,2.045,0,0,1,2.043,2.044v4.716a2.045,2.045,0,0,1-2.043,2.044H137.795a2.045,2.045,0,0,1-2.042-2.044V71.289a2.009,2.009,0,0,1,2.042-2.044"/><rect class="cls-19" x="140.725" y="69.239" width="8.443" height="8.834"/><g id="WisBLOCK_Graphic_Logo" data-name="WisBLOCK Graphic Logo"><polygon class="cls-17" points="303.315 236.597 298.317 236.597 298.317 231.974 303.315 231.974 303.315 218.23 298.317 218.23 298.317 213.607 303.315 213.607 303.315 200.862 298.317 200.862 298.317 196.364 272.077 196.364 272.077 253.84 298.317 253.84 298.317 249.342 303.315 249.342 303.315 236.597"/></g><g id="WisBlock"><path class="cls-17" d="M260.781,207.988a10.446,10.446,0,0,0,.53-2.026c.1-.338.193-.723.29-1.061a3.173,3.173,0,0,1,.434-.916,2.089,2.089,0,0,1,.675-.627,1.694,1.694,0,0,1,.965-.242,2.854,2.854,0,0,1,1.4.338,2.5,2.5,0,0,1,.869.868,3.014,3.014,0,0,1,.434,1.254,6.868,6.868,0,0,1,0,2.8,3.727,3.727,0,0,1-.483,1.205,2.97,2.97,0,0,1-.868.869,3.431,3.431,0,0,1-1.35.434v-2.315a1.11,1.11,0,0,0,.964-.531,2.271,2.271,0,0,0,.241-1.158,1.344,1.344,0,0,0-.048-.434,1.42,1.42,0,0,0-.1-.434.867.867,0,0,0-.241-.337.712.712,0,0,0-.965.1,2.612,2.612,0,0,0-.338.627,5.891,5.891,0,0,0-.241.868,7.71,7.71,0,0,1-.241,1.013c-.1.338-.193.675-.289,1.061a3.244,3.244,0,0,1-.434.917,2.283,2.283,0,0,1-.724.627,2.022,2.022,0,0,1-1.061.241,2.668,2.668,0,0,1-2.412-1.254,3.038,3.038,0,0,1-.482-1.3,7.785,7.785,0,0,1,0-2.991,3.917,3.917,0,0,1,.531-1.3,3.073,3.073,0,0,1,.964-.965,3.135,3.135,0,0,1,1.5-.385v2.315a1.546,1.546,0,0,0-.675.144,1.373,1.373,0,0,0-.482.434,3.19,3.19,0,0,0-.289.579,3.714,3.714,0,0,0-.1.675,1.821,1.821,0,0,0,.048.531,2.39,2.39,0,0,0,.193.53,1.3,1.3,0,0,0,.338.386.967.967,0,0,0,.53.145C260.3,208.711,260.588,208.47,260.781,207.988Z"/><rect class="cls-17" x="266.858" y="200.03" width="2.026" height="2.46"/><rect class="cls-17" x="257.405" y="200.03" width="8.875" height="2.46"/><polygon class="cls-17" points="269.655 186.428 261.311 188.358 261.311 188.358 269.655 190.528 269.655 193.036 261.215 195.11 261.215 195.158 269.655 197.184 269.655 199.837 257.405 196.509 257.405 193.856 265.749 191.782 265.749 191.734 257.405 189.708 257.405 186.959 269.655 183.728 269.655 186.428"/><polygon class="cls-17" points="269.752 228.157 269.752 225.601 257.405 225.601 257.405 234.331 259.623 234.331 259.623 228.157 269.752 228.157"/><path class="cls-17" d="M270.138,239.829a5.334,5.334,0,0,0-1.447-4.052,6.6,6.6,0,0,0-5.113-1.881,6.734,6.734,0,0,0-5.112,1.881,6.4,6.4,0,0,0,0,8.1,6.663,6.663,0,0,0,5.112,1.881,6.6,6.6,0,0,0,5.113-1.881A5.478,5.478,0,0,0,270.138,239.829ZM260.4,242.24a2.941,2.941,0,0,1-1.109-2.411,2.973,2.973,0,0,1,1.109-2.46,5.075,5.075,0,0,1,3.231-.916,4.878,4.878,0,0,1,3.232.916,2.979,2.979,0,0,1,1.109,2.46,2.8,2.8,0,0,1-1.157,2.411,5.078,5.078,0,0,1-3.232.917A5.023,5.023,0,0,1,260.4,242.24Z"/><path class="cls-17" d="M267.823,251.742a2.5,2.5,0,0,1-.82,2.026,3.486,3.486,0,0,1-1.351.627V257a4.143,4.143,0,0,0,2.315-.868,5.138,5.138,0,0,0,2.026-4.486,5.209,5.209,0,0,0-1.543-3.81,6.776,6.776,0,0,0-4.968-1.736,6.949,6.949,0,0,0-4.727,1.5,5.168,5.168,0,0,0-1.688,4.148,4.766,4.766,0,0,0,1.254,3.473,5.423,5.423,0,0,0,3.28,1.688v-2.557a3.868,3.868,0,0,1-1.447-.627,2.339,2.339,0,0,1-.868-2.025,2.723,2.723,0,0,1,1.012-2.122,4.779,4.779,0,0,1,3.135-.82,5.494,5.494,0,0,1,3.232.82A2.614,2.614,0,0,1,267.823,251.742Z"/><polygon class="cls-17" points="264.688 262.98 269.752 268.044 269.752 264.716 264.688 259.941 269.752 259.941 269.752 257.385 257.405 257.385 257.405 259.941 261.552 259.941 262.806 261.147 257.405 264.957 257.405 268.285 264.688 262.98"/><path class="cls-17" d="M265.17,223.286V221.5h4.63v-8.489H257.453v11.045h7.717Zm2.363-7.669v3.328H265.17v-3.328Zm-7.524,0h2.556V221.5h-2.556Z"/></g><path class="cls-17" d="M163.889,170.641v82.487l84.767-41.243Zm12.006,7.928,2.973,1.446h-.263v62.229l-1.281,2.262-1.429.7Zm-1.875,67.545-2.712,1.32v-71.1l2.712,1.319Zm6.46-7.182V213.815a10.143,10.143,0,0,0,1.679,2.652,11.715,11.715,0,0,0,1.031,1v16.681Zm4.586-19.956c.9.68,1.849,1.363,2.712,1.963v5.1l-2.712,4.791Zm4.587,3.241.211.141-.211.371Zm1.137-1.5c-2.155-1.437-6.03-4.137-7.223-5.493s-1.815-2.961-1.566-3.437c.09-.171.553-.3,1.389-.2,2.757.331,7.389,3.564,9.582,5.273Zm-5.724-13.351.01.006a2.987,2.987,0,0,0,3.081-.32,14.27,14.27,0,0,0-1.262,3.73,15.1,15.1,0,0,0-1.829-.721Zm8.84,7.848c-.61-.469-1.493-1.124-2.529-1.826a9.43,9.43,0,0,0,3.662-4.621c.519-1.16,1.106-1.846,1.745-2.038a2.384,2.384,0,0,1,1.735.337Zm5.538-9.783a4.21,4.21,0,0,0-3.2-.5A5.05,5.05,0,0,0,193.327,208c-.963,2.149-2.143,3.577-3.24,3.918a1.574,1.574,0,0,1-1.242-.119l-.093-.052c-.386-.639.87-3.84,2.666-6.811,2.336-1.243,5.05-2.2,5.695-2.125a12.345,12.345,0,0,1,3.039,1.37Zm1.633-2.885a13.147,13.147,0,0,0-3.732-1.6c-1.652-.206-7.057,2.091-9.481,4.03-.913.729-1.61.9-1.873.757-.218-.121-.39-.633-.283-1.5.205-1.631,6.351-5.244,11.71-7.388,2.558-1.023,5.009.66,6.029,1.516Zm3.309-5.844a11.231,11.231,0,0,0-.973-.69v-4.059l2.871,1.4Zm-2.848-1.616a7.077,7.077,0,0,0-2.712-.429v-4.936l2.712,1.319Zm-4.588-.058c-.076.027-.152.043-.229.074-.034.014-1.044.422-2.483,1.086v-8.7l2.712,1.319Zm-4.587,2.062c-.871.436-1.8.925-2.71,1.45V185.263l2.71,1.318Zm-4.585,2.608a16.184,16.184,0,0,0-2.712,2.186V183.031l2.712,1.32Zm-4.588,10a2.847,2.847,0,0,0-2.71.991V180.8l2.71,1.318Zm1.826,25.021h.05v-.087l22.907-40.461,2.049,1L183.905,241.3,180.3,243.06Zm34.866-27.336a7.748,7.748,0,0,0-2-2.595c-.228-.163-.468-.329-.715-.5v-5.645l2.711,1.319Zm1.875-6.5,2.712,1.319v19.113a91.8,91.8,0,0,0-2.712-9.545Zm-6.461,2.2c-.911-.566-1.841-1.118-2.71-1.619v-5.045l2.71,1.318Zm-5.726-3.306,1.14-2.015v2.641C210.268,200.159,209.884,199.949,209.57,199.779ZM187.778,238.27v1.15l-.9.437Zm1.875-3.312,2.71-4.787v7.018l-2.71,1.318Zm4.585-8.1.483-.853a9.7,9.7,0,0,0,2.229,1.907v7.044l-2.712,1.319Zm4.588,1.935a7.664,7.664,0,0,0,2.712.384v3.547l-2.712,1.32Zm4.587.347a23.653,23.653,0,0,1,4.094.679l-4.094,1.993Zm-1.625-1.853a6.965,6.965,0,0,1-6.067-3.048l12.924-22.829a91.331,91.331,0,0,1,8.151,4.906c2.133,1.526,4.728,10.368,5.993,16.068l-12.732,6.2C208.813,228.192,204.687,227,201.788,227.288Zm24.556-24.173,2.711,1.319v14.9l-2.711,1.319Zm4.586,2.231,2.711,1.319v10.44l-2.711,1.319Zm4.587,2.232,2.71,1.318v5.978l-2.71,1.318Zm4.585,2.231,4.267,2.076-4.267,2.076ZM165.764,173.64l3.668,1.785v72.921l-3.668,1.785Z"/><path class="cls-17" d="M198.554,349.89c6.968.673,13.981,1.363,20.969,2.049v6.406h8.957v-2.577l4.229,4.284,1.411-1.412-2.725-2.771-2.915-2.922-.132-.13a.757.757,0,0,1,.132.013c.979.093,1.944.195,2.915.288v2.751h1.428a3.435,3.435,0,0,0,3.217,2.339,3.515,3.515,0,0,0,3.433-3.59,3.629,3.629,0,0,0-1.39-2.884,19.583,19.583,0,0,0,2.269-4.274,44.724,44.724,0,0,0,2.023-8.92h1.936V325.029h-1.563a55.679,55.679,0,0,0-.915-7.2h1.09v-5.887h-2.688a18.709,18.709,0,0,0-3.342-5.447,1.156,1.156,0,0,0-.955-.354c-.282.027-.556.053-.839.082V302.9h-3.7v3.7l-6.155.611,4.48-4.552-1.454-1.362-6.154,6.226c-7.844.776-15.723,1.548-23.558,2.307q-5.915.575-11.92,1.144L176.29,300.557l-1.533,1.281,9.309,9.381c-4.648.444-9.319.889-13.978,1.328A1.236,1.236,0,0,0,169,313.8h-5.987v5.158H169v17.625a8.751,8.751,0,0,0-5.41,8.19,8.565,8.565,0,0,0,8.36,8.755,8.359,8.359,0,0,0,7.742-5.452c.613.061,1.215.117,1.823.173l-7.905,7.968,1.516,1.3,8.95-9.02c4.861.461,9.7.929,14.483,1.389m39.013,4.728a1.566,1.566,0,0,1-1.527,1.6,1.449,1.449,0,0,1-.941-.346v-2.378l.839.085a1.144,1.144,0,0,0,.907-.32,1.623,1.623,0,0,1,.722,1.362m-12.34-2.11,1.2,1.206v2.328h-4.851v-3.9c1.217.119,2.437.242,3.651.367m17.031-16.275H240.5v-8.9h1.756Zm-2.892-18.4a52.711,52.711,0,0,1,.96,7.2h-1.882V338.54h1.5a42,42,0,0,1-1.847,8.053,17.122,17.122,0,0,1-2.515,4.415c-.161-.019-.321-.035-.479-.052V317.832Zm1.5-2.305h-3.715v-1.275h3.715Zm-5.29-6.815a17.735,17.735,0,0,1,2.015,3.233H235.1v-3.186l.479-.047m-4.183.415V350.59c-.971-.1-1.941-.195-2.915-.3v-1.038H224.8l-6.919-6.936h.605v-17.9h-5.87v12.616l-8.56-8.587,18.384-18.436q4.489-.44,8.952-.889m-14.967,30.885h-.844l-.911-.916V326.73h1.755Zm-17.65-27.675c6.83-.663,13.7-1.336,20.542-2.015l-16.669,16.72-13.719-13.758q4.955-.476,9.846-.947m-34.156,3.485h2.92v1.115h-2.92Zm7.323,20.2c-.181,0-.361.006-.542.022V314.952c4.989-.471,9.989-.945,14.963-1.423l14.879,14.923-17.428,17.486q-1.776-.168-3.55-.338a8.057,8.057,0,0,0,.035-.825,8.56,8.56,0,0,0-8.357-8.753m0,13.317a4.466,4.466,0,0,1-4.356-4.564A4.639,4.639,0,0,1,169,341.419a4.283,4.283,0,0,1,2.408-1.173,4.563,4.563,0,0,1,.542-.032,4.463,4.463,0,0,1,4.358,4.561,3.747,3.747,0,0,1-.023.45,4.621,4.621,0,0,1-.965,2.44,4.265,4.265,0,0,1-3.37,1.674m26.833-1.961q-6.148-.591-12.4-1.195l16.27-16.318,9.968,10v2.457h2.452l6.915,6.936h-2.463v.15c-6.917-.685-13.851-1.363-20.745-2.028"/><line class="cls-5" x1="4.391" y1="158.454" x2="370.296" y2="158.454"/><rect class="cls-4" x="94.04" y="91.369" width="9.574" height="6.317" rx="1.26"/><rect class="cls-4" x="94.04" y="103.21" width="9.574" height="6.317" rx="1.26"/><rect class="cls-4" x="77.125" y="96.893" width="9.574" height="6.317" rx="1.26"/><rect class="cls-18" x="86.04" y="91.749" width="9.787" height="18.704" rx="0.12"/><rect class="cls-6" x="84.013" y="128.005" width="13.687" height="23.143"/><rect class="cls-4" x="94.04" y="129.509" width="9.574" height="6.317" rx="1.26"/><rect class="cls-4" x="94.04" y="141.351" width="9.574" height="6.317" rx="1.26"/><rect class="cls-4" x="77.125" y="135.034" width="9.574" height="6.317" rx="1.26"/><rect class="cls-18" x="86.04" y="129.89" width="9.787" height="18.704" rx="0.12"/><polygon class="cls-17" points="114.891 142.321 114.891 150.551 107.743 146.436 114.891 142.321"/><polyline class="cls-5" points="157.195 30.059 157.195 21.023 151.147 21.023"/><polyline class="cls-5" points="104.43 20.809 99.379 20.809 99.379 30.059"/><polyline class="cls-5" points="157.195 41.508 157.195 50.544 151.147 50.544"/><rect class="cls-4" x="98.216" y="23.121" width="12.995" height="12.283"/><rect class="cls-4" x="145.29" y="42.122" width="7.691" height="14.586"/><rect class="cls-4" x="106.216" y="42.122" width="7.691" height="14.586"/><path class="cls-18" d="M119.211,11.624h19.978q.62,8.8,1.238,17.592H118.238q.488-8.8.973-17.592"/><rect class="cls-3" x="106.216" y="29.128" width="46.145" height="18.652"/><path class="cls-20" d="M113.027,41.032H145.2a1.01,1.01,0,0,1,1.007,1.007v7.752A1.01,1.01,0,0,1,145.2,50.8H113.027a1.009,1.009,0,0,1-1.006-1.007V42.039a1.009,1.009,0,0,1,1.006-1.007"/><polyline class="cls-5" points="104.43 50.758 99.379 50.758 99.379 41.508"/><rect class="cls-4" x="147.058" y="23.121" width="12.995" height="12.283"/><rect class="cls-3" x="104.713" y="21.54" width="49.946" height="20.966"/><rect class="cls-21" x="103.571" y="23.961" width="51.884" height="20.371"/><rect class="cls-5" x="294.568" y="92.276" width="76.834" height="63.497" rx="0.12"/><path class="cls-22" d="M372.717,99.44v49.9a4.347,4.347,0,0,1-4.335,4.334H301.324a4.347,4.347,0,0,1-4.334-4.334V99.44a4.347,4.347,0,0,1,4.334-4.334h67.058a4.347,4.347,0,0,1,4.335,4.334"/><path class="cls-23" d="M366.469,103.932v40.234a3.273,3.273,0,0,1-3.264,3.263h-57.16a3.271,3.271,0,0,1-3.262-3.263V103.932a3.271,3.271,0,0,1,3.262-3.263h57.16a3.272,3.272,0,0,1,3.264,3.263"/><rect class="cls-24" x="302.759" y="123.008" width="63.711" height="4.354"/><path class="cls-2" d="M322.452,112.788a3.691,3.691,0,1,1-3.691,3.691,3.691,3.691,0,0,1,3.691-3.691"/><path class="cls-2" d="M347.753,112.788a3.691,3.691,0,1,1-3.69,3.691,3.691,3.691,0,0,1,3.69-3.691"/><rect class="cls-23" x="296.99" y="109.755" width="9.24" height="11.359"/><rect class="cls-23" x="363.477" y="109.755" width="9.24" height="11.359"/><rect class="cls-5" x="1" y="95.648" width="56.917" height="47.037" rx="0.089"/><path class="cls-22" d="M58.891,100.955v36.966a3.22,3.22,0,0,1-3.211,3.211H6.005a3.221,3.221,0,0,1-3.211-3.211V100.955a3.221,3.221,0,0,1,3.211-3.211H55.68a3.22,3.22,0,0,1,3.211,3.211"/><path class="cls-23" d="M54.263,104.283v29.8a2.425,2.425,0,0,1-2.418,2.417H9.5a2.423,2.423,0,0,1-2.416-2.417v-29.8A2.423,2.423,0,0,1,9.5,101.865H51.845a2.424,2.424,0,0,1,2.418,2.418"/><rect class="cls-24" x="7.067" y="118.414" width="47.196" height="3.226"/><path class="cls-2" d="M21.656,110.843a2.734,2.734,0,1,1-2.735,2.734,2.734,2.734,0,0,1,2.735-2.734"/><path class="cls-2" d="M40.4,110.843a2.734,2.734,0,1,1-2.733,2.734,2.733,2.733,0,0,1,2.733-2.734"/><rect class="cls-23" x="2.794" y="108.596" width="6.845" height="8.414"/><rect class="cls-23" x="52.046" y="108.596" width="6.845" height="8.414"/><path class="cls-25" d="M7,31.1H4.324V53.22H7a1.679,1.679,0,0,1,3.357,0h2.678V31.1H10.361A1.682,1.682,0,1,1,7,31.1"/><rect class="cls-26" x="13.036" y="31.094" width="1.529" height="22.125"/><rect class="cls-27" x="2.794" y="33.097" width="11.77" height="18.119"/><path class="cls-28" d="M6.9,36.124H4.069V48.191H6.9c.02-.5.807-.909,1.777-.909s1.756.405,1.777.909H13.29V36.124H10.46c0,.512-.8.927-1.78.927s-1.78-.415-1.78-.927"/><path class="cls-27" d="M8.68,39.089a3.069,3.069,0,1,1-3.031,3.068A3.051,3.051,0,0,1,8.68,39.089"/><path class="cls-29" d="M8.68,39.828a2.329,2.329,0,1,1-2.3,2.33,2.315,2.315,0,0,1,2.3-2.33"/><path class="cls-25" d="M15.5,20.191v2.674H37.623V20.188a1.679,1.679,0,0,1,0-3.357V14.153H15.5v2.675a1.682,1.682,0,1,1,0,3.363"/><rect class="cls-26" x="15.498" y="12.624" width="22.125" height="1.529"/><rect class="cls-27" x="17.5" y="12.624" width="18.119" height="11.77"/><path class="cls-28" d="M20.527,20.289V23.12H32.594V20.286c-.5-.019-.909-.807-.909-1.777s.405-1.756.909-1.777V13.9H20.527v2.83c.512,0,.928.8.928,1.78s-.416,1.78-.928,1.78"/><path class="cls-27" d="M23.492,18.509A3.069,3.069,0,1,1,26.56,21.54a3.051,3.051,0,0,1-3.068-3.031"/><path class="cls-29" d="M24.231,18.509a2.329,2.329,0,1,1,2.33,2.3,2.316,2.316,0,0,1-2.33-2.3"/><path class="cls-25" d="M63.073,20.191v2.674H85.2V20.188a1.679,1.679,0,0,1,0-3.357V14.153H63.073v2.675a1.682,1.682,0,1,1,0,3.363"/><rect class="cls-26" x="63.072" y="12.624" width="22.125" height="1.529"/><rect class="cls-27" x="65.075" y="12.624" width="18.119" height="11.77"/><path class="cls-28" d="M68.1,20.289V23.12H80.169V20.286c-.5-.019-.91-.807-.91-1.777s.406-1.756.91-1.777V13.9H68.1v2.83c.513,0,.928.8.928,1.78s-.415,1.78-.928,1.78"/><path class="cls-27" d="M71.067,18.509a3.069,3.069,0,1,1,3.068,3.031,3.051,3.051,0,0,1-3.068-3.031"/><path class="cls-29" d="M71.806,18.509a2.329,2.329,0,1,1,2.329,2.3,2.315,2.315,0,0,1-2.329-2.3"/><rect class="cls-4" x="45.338" y="13.634" width="10.66" height="11.798" rx="0.988"/><rect class="cls-18" x="48.023" y="13.634" width="4.634" height="11.798"/></g></g></svg>