<svg xmlns="http://www.w3.org/2000/svg" viewBox="0 0 374.172 461.021"><defs><style>.cls-1{fill:#e8e7dc;}.cls-2{fill:#282828;}.cls-3{fill:#1e1e1e;}.cls-4{fill:#bf8e3e;}.cls-5{fill:#e4e4e4;}.cls-6{fill:#899a9e;}.cls-14,.cls-7,.cls-8{fill:none;stroke:#fff;stroke-width:2px;}.cls-14,.cls-7{stroke-miterlimit:10;}.cls-14,.cls-8{stroke-linecap:round;}.cls-8{stroke-linejoin:round;}.cls-9{fill:#ecf4fb;}.cls-10{fill:#373f4a;}.cls-11{fill:#282b33;}.cls-12{fill:#b58e4e;}.cls-13{fill:#eef6fc;}.cls-15{fill:#fff;}.cls-16{fill:#ae773d;}</style></defs><g id="Layer_2" data-name="Layer 2"><g id="Layer_1-2" data-name="Layer 1"><path class="cls-1" d="M289.327,385.134v72.59a3.307,3.307,0,0,1-3.3,3.3H178.247a3.306,3.306,0,0,1-3.3-3.3v-72.59a3.306,3.306,0,0,1,3.3-3.3H286.03a3.306,3.306,0,0,1,3.3,3.3"/><rect class="cls-2" x="118.985" y="432.766" width="20.851" height="13.787" rx="0.12"/><path class="cls-3" d="M209.635,1.872A22.055,22.055,0,0,1,188.341,18.2a22.055,22.055,0,0,1-21.3-16.328H.917V76.413a5.374,5.374,0,0,0,5.374,5.374H94.51a9.993,9.993,0,0,1,9.993,9.994V243.368a9.994,9.994,0,0,1-9.993,9.994H6.291a5.374,5.374,0,0,0-5.374,5.374V434a14.405,14.405,0,0,0,14.405,14.4h93.053a8.377,8.377,0,0,1,8.354-7.806h27.49a8.375,8.375,0,0,1,8.353,7.806H358.95A14.405,14.405,0,0,0,373.355,434V1.872ZM47.5,422.638A20.936,20.936,0,1,1,68.431,401.7,20.936,20.936,0,0,1,47.5,422.638ZM37.2,25.849A7.648,7.648,0,1,1,44.851,18.2,7.647,7.647,0,0,1,37.2,25.849Zm31.746,0A7.648,7.648,0,1,1,76.6,18.2,7.648,7.648,0,0,1,68.949,25.849Zm31.783,0A7.648,7.648,0,1,1,108.38,18.2,7.647,7.647,0,0,1,100.732,25.849Zm31.746,0a7.648,7.648,0,1,1,7.648-7.647A7.648,7.648,0,0,1,132.478,25.849Zm117.9,0a7.648,7.648,0,1,1,7.648-7.647A7.647,7.647,0,0,1,250.381,25.849Zm31.746,0a7.648,7.648,0,1,1,7.648-7.647A7.648,7.648,0,0,1,282.127,25.849ZM313.91,10.554a7.648,7.648,0,1,1-7.647,7.648A7.648,7.648,0,0,1,313.91,10.554Zm13.295,412.084A20.936,20.936,0,1,1,348.141,401.7,20.936,20.936,0,0,1,327.205,422.638ZM345.656,25.849A7.648,7.648,0,1,1,353.3,18.2,7.648,7.648,0,0,1,345.656,25.849Z"/><path class="cls-4" d="M47.5,369.277A32.426,32.426,0,1,0,79.921,401.7,32.425,32.425,0,0,0,47.5,369.277Zm0,50.425a18,18,0,1,1,18-18A18,18,0,0,1,47.5,419.7Z"/><path class="cls-4" d="M37.2,8.255A9.947,9.947,0,1,0,47.15,18.2,9.946,9.946,0,0,0,37.2,8.255Zm0,16.409A6.462,6.462,0,1,1,43.665,18.2,6.462,6.462,0,0,1,37.2,24.664Z"/><path class="cls-4" d="M68.949,8.255A9.947,9.947,0,1,0,78.9,18.2,9.946,9.946,0,0,0,68.949,8.255Zm0,16.409A6.462,6.462,0,1,1,75.411,18.2,6.462,6.462,0,0,1,68.949,24.664Z"/><path class="cls-4" d="M100.625,8.255a9.947,9.947,0,1,0,9.947,9.947A9.946,9.946,0,0,0,100.625,8.255Zm0,16.409a6.462,6.462,0,1,1,6.462-6.462A6.462,6.462,0,0,1,100.625,24.664Z"/><path class="cls-4" d="M132.371,8.255a9.947,9.947,0,1,0,9.946,9.947A9.946,9.946,0,0,0,132.371,8.255Zm0,16.409a6.462,6.462,0,1,1,6.462-6.462A6.462,6.462,0,0,1,132.371,24.664Z"/><path class="cls-4" d="M250.381,8.255a9.947,9.947,0,1,0,9.947,9.947A9.946,9.946,0,0,0,250.381,8.255Zm0,16.409a6.462,6.462,0,1,1,6.462-6.462A6.462,6.462,0,0,1,250.381,24.664Z"/><path class="cls-4" d="M282.127,8.255a9.947,9.947,0,1,0,9.946,9.947A9.947,9.947,0,0,0,282.127,8.255Zm0,16.409a6.462,6.462,0,1,1,6.462-6.462A6.462,6.462,0,0,1,282.127,24.664Z"/><path class="cls-4" d="M313.8,8.255A9.947,9.947,0,1,0,323.75,18.2,9.946,9.946,0,0,0,313.8,8.255Zm0,16.409a6.462,6.462,0,1,1,6.462-6.462A6.462,6.462,0,0,1,313.8,24.664Z"/><path class="cls-4" d="M345.549,8.255A9.947,9.947,0,1,0,355.5,18.2,9.946,9.946,0,0,0,345.549,8.255Zm0,16.409a6.462,6.462,0,1,1,6.462-6.462A6.462,6.462,0,0,1,345.549,24.664Z"/><path class="cls-4" d="M327.205,369.277A32.426,32.426,0,1,0,359.631,401.7,32.425,32.425,0,0,0,327.205,369.277Zm0,50.425a18,18,0,1,1,18-18A18,18,0,0,1,327.205,419.7Z"/><path class="cls-4" d="M207.393,0a1.682,1.682,0,0,0-1.622,1.2,18.152,18.152,0,0,1-17.43,13.1,18.15,18.15,0,0,1-17.43-13.1A1.684,1.684,0,0,0,169.288,0H157.133a1.714,1.714,0,0,0-1.681,2.017,33.413,33.413,0,0,0,32.889,27.544A33.413,33.413,0,0,0,221.229,2.017,1.714,1.714,0,0,0,219.548,0Z"/><rect class="cls-5" x="167.24" y="408.851" width="18.638" height="34.979" rx="9.319"/><path class="cls-5" d="M184.007,367.31h-1.193v-6.267a7.149,7.149,0,0,0-14.3,0v12.535c0,.033,0,.066,0,.1s0,.066,0,.1v1.364a6.467,6.467,0,0,0,6.467,6.467h9.024a6.467,6.467,0,0,0,6.467-6.467v-1.364A6.467,6.467,0,0,0,184.007,367.31Z"/><path class="cls-5" d="M277.5,367.31H278.7v-6.267a7.149,7.149,0,0,1,14.3,0v12.535c0,.033,0,.066,0,.1s0,.066,0,.1v1.364a6.467,6.467,0,0,1-6.467,6.467H277.5a6.467,6.467,0,0,1-6.467-6.467v-1.364A6.467,6.467,0,0,1,277.5,367.31Z"/><rect class="cls-5" x="276.141" y="408.851" width="18.638" height="34.979" rx="9.319"/><circle class="cls-5" cx="134.304" cy="324.851" r="21"/><circle class="cls-6" cx="134.304" cy="324.851" r="15.319"/><circle class="cls-5" cx="134.304" cy="324.851" r="11.784"/><circle class="cls-7" cx="134.304" cy="324.851" r="23.851"/><path class="cls-5" d="M.917,266.581a21,21,0,1,1,0,14.413"/><circle class="cls-6" cx="20.647" cy="273.787" r="15.319"/><circle class="cls-5" cx="20.647" cy="273.787" r="11.784"/><path class="cls-8" d="M35.969,255.508A23.851,23.851,0,1,1,3.592,290.46"/><path class="cls-5" d="M373.274,265.613a21,21,0,1,0,.085,16.143Z"/><circle class="cls-6" cx="353.924" cy="273.787" r="15.319"/><circle class="cls-5" cx="353.924" cy="273.787" r="11.784"/><path class="cls-7" d="M373.357,287.619a23.852,23.852,0,1,1,0-27.663"/><circle class="cls-5" cx="273.243" cy="156.681" r="21"/><circle class="cls-6" cx="273.243" cy="156.681" r="15.319"/><circle class="cls-5" cx="273.243" cy="156.681" r="11.784"/><circle class="cls-7" cx="273.243" cy="156.681" r="23.851"/><circle class="cls-5" cx="348.141" cy="61.48" r="21"/><circle class="cls-6" cx="348.141" cy="61.48" r="15.319"/><circle class="cls-5" cx="348.141" cy="61.48" r="11.784"/><circle class="cls-7" cx="348.141" cy="61.48" r="23.851"/><circle class="cls-5" cx="134.423" cy="156.681" r="21"/><circle class="cls-6" cx="134.423" cy="156.681" r="15.319"/><circle class="cls-5" cx="134.423" cy="156.681" r="11.784"/><circle class="cls-7" cx="134.423" cy="156.681" r="23.851"/><circle class="cls-5" cx="21" cy="61.48" r="21"/><circle class="cls-6" cx="21" cy="61.48" r="15.319"/><circle class="cls-5" cx="21" cy="61.48" r="11.784"/><path class="cls-8" d="M2.6,46.309A23.852,23.852,0,1,1,35.4,80.5"/><polyline class="cls-7" points="251.434 166.349 188.341 166.349 188.341 37.629 317.061 37.629 317.061 166.349 295.05 166.349"/><polyline class="cls-7" points="49.063 82.48 49.063 37.629 177.783 37.629 177.783 166.349"/><polyline class="cls-7" points="49.063 256.906 49.063 334.34 112.419 334.34"/><line class="cls-7" x1="112.619" y1="166.349" x2="104.503" y2="166.349"/><polyline class="cls-7" points="156.188 334.34 177.783 334.34 177.783 166.349 156.228 166.349"/><path class="cls-9" d="M71.1,74.792H69.9a2.246,2.246,0,0,1-2.013-2.421V46.71A2.246,2.246,0,0,1,69.9,44.288H71.1a2.246,2.246,0,0,1,2.012,2.422V72.371A2.245,2.245,0,0,1,71.1,74.792"/><path class="cls-9" d="M156.19,74.792h-1.207a2.245,2.245,0,0,1-2.012-2.421V46.71a2.245,2.245,0,0,1,2.012-2.422h1.207A2.246,2.246,0,0,1,158.2,46.71V72.371a2.245,2.245,0,0,1-2.013,2.421"/><path class="cls-10" d="M160.238,52.38v-2.5a2.245,2.245,0,0,0-2.013-2.421h-4.159A2.055,2.055,0,0,0,152.2,48.99H74.492a2.056,2.056,0,0,0-1.869-1.534H68.464a2.245,2.245,0,0,0-2.013,2.421v2.5a2.4,2.4,0,0,0,1.431,2.307V64.36a2.4,2.4,0,0,0-1.431,2.307v2.5a2.246,2.246,0,0,0,2.013,2.422h4.159a2.075,2.075,0,0,0,1.893-1.628h77.657a2.075,2.075,0,0,0,1.893,1.628h4.159a2.246,2.246,0,0,0,2.013-2.422v-2.5a2.463,2.463,0,0,0-1.252-2.24V54.62a2.462,2.462,0,0,0,1.252-2.24"/><path class="cls-11" d="M150.086,67.779H76.648a1.147,1.147,0,0,1-1.028-1.238V52.976a1.147,1.147,0,0,1,1.028-1.238h73.438a1.148,1.148,0,0,1,1.029,1.238V66.541a1.148,1.148,0,0,1-1.029,1.238"/><path class="cls-9" d="M83.248,39.021H80.933a.693.693,0,0,0-.62.747V42.23a.7.7,0,0,0,.587.739v6.586h2.381V42.969a.7.7,0,0,0,.587-.739V39.768a.693.693,0,0,0-.62-.747"/><path class="cls-12" d="M82.966,51.976H79.891a.549.549,0,0,1-.492-.592v-1.8a.549.549,0,0,1,.492-.592h3.075a.549.549,0,0,1,.492.592v1.8a.549.549,0,0,1-.492.592"/><path class="cls-9" d="M83.248,80.5H80.933a.692.692,0,0,1-.62-.747V77.288a.7.7,0,0,1,.587-.739V69.962h2.381v6.587a.7.7,0,0,1,.587.739v2.461a.692.692,0,0,1-.62.747"/><path class="cls-12" d="M82.966,67.541H79.891a.549.549,0,0,0-.492.592v1.8a.549.549,0,0,0,.492.592h3.075a.549.549,0,0,0,.492-.592v-1.8a.549.549,0,0,0-.492-.592"/><path class="cls-9" d="M88.883,39.021H86.569a.693.693,0,0,0-.621.747V42.23a.7.7,0,0,0,.587.739v6.586h2.382V42.969a.7.7,0,0,0,.587-.739V39.768a.693.693,0,0,0-.621-.747"/><path class="cls-12" d="M88.6,51.976H85.526a.549.549,0,0,1-.492-.592v-1.8a.549.549,0,0,1,.492-.592H88.6a.549.549,0,0,1,.492.592v1.8a.549.549,0,0,1-.492.592"/><path class="cls-9" d="M88.883,80.5H86.569a.692.692,0,0,1-.621-.747V77.288a.7.7,0,0,1,.587-.739V69.962h2.382v6.587a.7.7,0,0,1,.587.739v2.461a.692.692,0,0,1-.621.747"/><path class="cls-12" d="M88.6,67.541H85.526a.549.549,0,0,0-.492.592v1.8a.549.549,0,0,0,.492.592H88.6a.549.549,0,0,0,.492-.592v-1.8a.549.549,0,0,0-.492-.592"/><path class="cls-9" d="M94.854,39.021H92.54a.692.692,0,0,0-.621.747V42.23a.7.7,0,0,0,.587.739v6.586h2.382V42.969a.7.7,0,0,0,.587-.739V39.768a.693.693,0,0,0-.621-.747"/><path class="cls-12" d="M94.572,51.976H91.5a.549.549,0,0,1-.492-.592v-1.8a.549.549,0,0,1,.492-.592h3.075a.549.549,0,0,1,.492.592v1.8a.549.549,0,0,1-.492.592"/><path class="cls-9" d="M94.854,80.5H92.54a.692.692,0,0,1-.621-.747V77.288a.7.7,0,0,1,.587-.739V69.962h2.382v6.587a.7.7,0,0,1,.587.739v2.461a.692.692,0,0,1-.621.747"/><path class="cls-12" d="M94.572,67.541H91.5a.549.549,0,0,0-.492.592v1.8a.549.549,0,0,0,.492.592h3.075a.549.549,0,0,0,.492-.592v-1.8a.549.549,0,0,0-.492-.592"/><path class="cls-9" d="M100.691,39.021H98.376a.692.692,0,0,0-.62.747V42.23a.7.7,0,0,0,.587.739v6.586h2.381V42.969a.7.7,0,0,0,.587-.739V39.768a.693.693,0,0,0-.62-.747"/><path class="cls-12" d="M100.408,51.976H97.333a.549.549,0,0,1-.492-.592v-1.8a.549.549,0,0,1,.492-.592h3.075a.549.549,0,0,1,.492.592v1.8a.549.549,0,0,1-.492.592"/><path class="cls-9" d="M100.691,80.5H98.376a.692.692,0,0,1-.62-.747V77.288a.7.7,0,0,1,.587-.739V69.962h2.381v6.587a.7.7,0,0,1,.587.739v2.461a.692.692,0,0,1-.62.747"/><path class="cls-12" d="M100.408,67.541H97.333a.549.549,0,0,0-.492.592v1.8a.549.549,0,0,0,.492.592h3.075a.549.549,0,0,0,.492-.592v-1.8a.549.549,0,0,0-.492-.592"/><path class="cls-9" d="M106.376,39.021h-2.314a.693.693,0,0,0-.621.747V42.23a.7.7,0,0,0,.587.739v6.586h2.382V42.969A.7.7,0,0,0,107,42.23V39.768a.693.693,0,0,0-.621-.747"/><path class="cls-12" d="M106.094,51.976h-3.075a.549.549,0,0,1-.492-.592v-1.8a.549.549,0,0,1,.492-.592h3.075a.549.549,0,0,1,.492.592v1.8a.549.549,0,0,1-.492.592"/><path class="cls-9" d="M106.376,80.5h-2.314a.692.692,0,0,1-.621-.747V77.288a.7.7,0,0,1,.587-.739V69.962h2.382v6.587a.7.7,0,0,1,.587.739v2.461a.692.692,0,0,1-.621.747"/><path class="cls-12" d="M106.094,67.541h-3.075a.549.549,0,0,0-.492.592v1.8a.549.549,0,0,0,.492.592h3.075a.549.549,0,0,0,.492-.592v-1.8a.549.549,0,0,0-.492-.592"/><path class="cls-9" d="M112.011,39.021H109.7a.693.693,0,0,0-.621.747V42.23a.7.7,0,0,0,.587.739v6.586h2.382V42.969a.7.7,0,0,0,.587-.739V39.768a.693.693,0,0,0-.621-.747"/><path class="cls-12" d="M111.729,51.976h-3.075a.549.549,0,0,1-.492-.592v-1.8a.549.549,0,0,1,.492-.592h3.075a.549.549,0,0,1,.492.592v1.8a.549.549,0,0,1-.492.592"/><path class="cls-9" d="M112.011,80.5H109.7a.692.692,0,0,1-.621-.747V77.288a.7.7,0,0,1,.587-.739V69.962h2.382v6.587a.7.7,0,0,1,.587.739v2.461a.692.692,0,0,1-.621.747"/><path class="cls-12" d="M111.729,67.541h-3.075a.549.549,0,0,0-.492.592v1.8a.549.549,0,0,0,.492.592h3.075a.549.549,0,0,0,.492-.592v-1.8a.549.549,0,0,0-.492-.592"/><path class="cls-9" d="M117.714,39.021H115.4a.692.692,0,0,0-.62.747V42.23a.7.7,0,0,0,.587.739v6.586h2.381V42.969a.7.7,0,0,0,.587-.739V39.768a.693.693,0,0,0-.62-.747"/><path class="cls-12" d="M117.431,51.976h-3.074a.55.55,0,0,1-.493-.592v-1.8a.55.55,0,0,1,.493-.592h3.074a.549.549,0,0,1,.492.592v1.8a.549.549,0,0,1-.492.592"/><path class="cls-9" d="M117.714,80.5H115.4a.692.692,0,0,1-.62-.747V77.288a.7.7,0,0,1,.587-.739V69.962h2.381v6.587a.7.7,0,0,1,.587.739v2.461a.692.692,0,0,1-.62.747"/><path class="cls-12" d="M117.431,67.541h-3.074a.55.55,0,0,0-.493.592v1.8a.55.55,0,0,0,.493.592h3.074a.549.549,0,0,0,.492-.592v-1.8a.549.549,0,0,0-.492-.592"/><path class="cls-9" d="M123.483,39.021h-2.314a.693.693,0,0,0-.621.747V42.23a.7.7,0,0,0,.587.739v6.586h2.382V42.969a.7.7,0,0,0,.587-.739V39.768a.693.693,0,0,0-.621-.747"/><path class="cls-12" d="M123.2,51.976h-3.075a.549.549,0,0,1-.492-.592v-1.8a.549.549,0,0,1,.492-.592H123.2a.549.549,0,0,1,.492.592v1.8a.549.549,0,0,1-.492.592"/><path class="cls-9" d="M123.483,80.5h-2.314a.692.692,0,0,1-.621-.747V77.288a.7.7,0,0,1,.587-.739V69.962h2.382v6.587a.7.7,0,0,1,.587.739v2.461a.692.692,0,0,1-.621.747"/><path class="cls-12" d="M123.2,67.541h-3.075a.549.549,0,0,0-.492.592v1.8a.549.549,0,0,0,.492.592H123.2a.549.549,0,0,0,.492-.592v-1.8a.549.549,0,0,0-.492-.592"/><path class="cls-9" d="M129.253,39.021h-2.315a.692.692,0,0,0-.62.747V42.23a.7.7,0,0,0,.587.739v6.586h2.381V42.969a.7.7,0,0,0,.587-.739V39.768a.693.693,0,0,0-.62-.747"/><path class="cls-12" d="M128.97,51.976H125.9a.549.549,0,0,1-.492-.592v-1.8a.549.549,0,0,1,.492-.592h3.075a.549.549,0,0,1,.492.592v1.8a.549.549,0,0,1-.492.592"/><path class="cls-9" d="M129.253,80.5h-2.315a.692.692,0,0,1-.62-.747V77.288a.7.7,0,0,1,.587-.739V69.962h2.381v6.587a.7.7,0,0,1,.587.739v2.461a.692.692,0,0,1-.62.747"/><path class="cls-12" d="M128.97,67.541H125.9a.549.549,0,0,0-.492.592v1.8a.549.549,0,0,0,.492.592h3.075a.549.549,0,0,0,.492-.592v-1.8a.549.549,0,0,0-.492-.592"/><path class="cls-9" d="M134.955,39.021h-2.314a.692.692,0,0,0-.621.747V42.23a.7.7,0,0,0,.587.739v6.586h2.381V42.969a.7.7,0,0,0,.588-.739V39.768a.693.693,0,0,0-.621-.747"/><path class="cls-12" d="M134.672,51.976H131.6a.549.549,0,0,1-.492-.592v-1.8a.549.549,0,0,1,.492-.592h3.074a.55.55,0,0,1,.493.592v1.8a.55.55,0,0,1-.493.592"/><path class="cls-9" d="M134.955,80.5h-2.314a.692.692,0,0,1-.621-.747V77.288a.7.7,0,0,1,.587-.739V69.962h2.381v6.587a.7.7,0,0,1,.588.739v2.461a.692.692,0,0,1-.621.747"/><path class="cls-12" d="M134.672,67.541H131.6a.549.549,0,0,0-.492.592v1.8a.549.549,0,0,0,.492.592h3.074a.55.55,0,0,0,.493-.592v-1.8a.55.55,0,0,0-.493-.592"/><path class="cls-9" d="M140.858,39.021h-2.314a.693.693,0,0,0-.621.747V42.23a.7.7,0,0,0,.587.739v6.586h2.382V42.969a.7.7,0,0,0,.587-.739V39.768a.693.693,0,0,0-.621-.747"/><path class="cls-12" d="M140.576,51.976H137.5a.549.549,0,0,1-.492-.592v-1.8a.549.549,0,0,1,.492-.592h3.075a.549.549,0,0,1,.492.592v1.8a.549.549,0,0,1-.492.592"/><path class="cls-9" d="M140.858,80.5h-2.314a.692.692,0,0,1-.621-.747V77.288a.7.7,0,0,1,.587-.739V69.962h2.382v6.587a.7.7,0,0,1,.587.739v2.461a.692.692,0,0,1-.621.747"/><path class="cls-12" d="M140.576,67.541H137.5a.549.549,0,0,0-.492.592v1.8a.549.549,0,0,0,.492.592h3.075a.549.549,0,0,0,.492-.592v-1.8a.549.549,0,0,0-.492-.592"/><path class="cls-9" d="M146.63,39.021h-2.314a.693.693,0,0,0-.621.747V42.23a.7.7,0,0,0,.587.739v6.586h2.382V42.969a.7.7,0,0,0,.587-.739V39.768a.693.693,0,0,0-.621-.747"/><path class="cls-12" d="M146.348,51.976h-3.075a.549.549,0,0,1-.492-.592v-1.8a.549.549,0,0,1,.492-.592h3.075a.549.549,0,0,1,.492.592v1.8a.549.549,0,0,1-.492.592"/><path class="cls-9" d="M146.63,80.5h-2.314a.692.692,0,0,1-.621-.747V77.288a.7.7,0,0,1,.587-.739V69.962h2.382v6.587a.7.7,0,0,1,.587.739v2.461a.692.692,0,0,1-.621.747"/><path class="cls-12" d="M146.348,67.541h-3.075a.549.549,0,0,0-.492.592v1.8a.549.549,0,0,0,.492.592h3.075a.549.549,0,0,0,.492-.592v-1.8a.549.549,0,0,0-.492-.592"/><path class="cls-12" d="M67.882,50.483c0-.825.951-1.493,2.124-1.493s2.125.668,2.125,1.493-.951,1.493-2.125,1.493-2.124-.668-2.124-1.493"/><path class="cls-12" d="M67.882,68.783c0-.826.951-1.494,2.124-1.494s2.125.668,2.125,1.494-.951,1.492-2.125,1.492-2.124-.668-2.124-1.492"/><path class="cls-12" d="M154.021,50.483c0-.825.952-1.493,2.124-1.493s2.125.668,2.125,1.493-.951,1.493-2.125,1.493-2.124-.668-2.124-1.493"/><path class="cls-12" d="M154.021,68.783c0-.826.952-1.494,2.124-1.494s2.125.668,2.125,1.494-.951,1.492-2.125,1.492-2.124-.668-2.124-1.492"/><line class="cls-13" x1="77.498" y1="78.667" x2="73.115" y2="78.667"/><line class="cls-14" x1="77.498" y1="78.667" x2="73.115" y2="78.667"/><polyline class="cls-14" points="70.007 78.667 63.902 78.667 63.902 41.429 77.498 41.429"/><line class="cls-13" x1="149.348" y1="41.429" x2="153.73" y2="41.429"/><line class="cls-14" x1="149.348" y1="41.429" x2="153.73" y2="41.429"/><polyline class="cls-14" points="156.839 41.429 162.944 41.429 162.944 78.667 149.348 78.667"/><path class="cls-9" d="M209.923,74.792h-1.208a2.245,2.245,0,0,1-2.012-2.421V46.71a2.246,2.246,0,0,1,2.012-2.422h1.208a2.246,2.246,0,0,1,2.013,2.422V72.371a2.246,2.246,0,0,1-2.013,2.421"/><path class="cls-9" d="M295.011,74.792H293.8a2.245,2.245,0,0,1-2.012-2.421V46.71a2.246,2.246,0,0,1,2.012-2.422h1.208a2.246,2.246,0,0,1,2.012,2.422V72.371a2.245,2.245,0,0,1-2.012,2.421"/><path class="cls-10" d="M299.058,52.38v-2.5a2.245,2.245,0,0,0-2.012-2.421h-4.16a2.056,2.056,0,0,0-1.868,1.534H213.312a2.056,2.056,0,0,0-1.868-1.534h-4.16a2.246,2.246,0,0,0-2.013,2.421v2.5a2.4,2.4,0,0,0,1.431,2.307V64.36a2.4,2.4,0,0,0-1.431,2.307v2.5a2.247,2.247,0,0,0,2.013,2.422h4.16a2.074,2.074,0,0,0,1.892-1.628h77.658a2.074,2.074,0,0,0,1.892,1.628h4.16a2.246,2.246,0,0,0,2.012-2.422v-2.5a2.463,2.463,0,0,0-1.252-2.24V54.62a2.462,2.462,0,0,0,1.252-2.24"/><path class="cls-11" d="M288.906,67.779H215.469a1.147,1.147,0,0,1-1.029-1.238V52.976a1.147,1.147,0,0,1,1.029-1.238h73.437a1.148,1.148,0,0,1,1.029,1.238V66.541a1.148,1.148,0,0,1-1.029,1.238"/><path class="cls-9" d="M222.068,39.021h-2.314a.693.693,0,0,0-.621.747V42.23a.7.7,0,0,0,.587.739v6.586H222.1V42.969a.7.7,0,0,0,.587-.739V39.768a.693.693,0,0,0-.621-.747"/><path class="cls-12" d="M221.786,51.976h-3.075a.549.549,0,0,1-.492-.592v-1.8a.549.549,0,0,1,.492-.592h3.075a.549.549,0,0,1,.492.592v1.8a.549.549,0,0,1-.492.592"/><path class="cls-9" d="M222.068,80.5h-2.314a.692.692,0,0,1-.621-.747V77.288a.7.7,0,0,1,.587-.739V69.962H222.1v6.587a.7.7,0,0,1,.587.739v2.461a.692.692,0,0,1-.621.747"/><path class="cls-12" d="M221.786,67.541h-3.075a.549.549,0,0,0-.492.592v1.8a.549.549,0,0,0,.492.592h3.075a.549.549,0,0,0,.492-.592v-1.8a.549.549,0,0,0-.492-.592"/><path class="cls-9" d="M227.7,39.021h-2.314a.693.693,0,0,0-.62.747V42.23a.7.7,0,0,0,.587.739v6.586h2.381V42.969a.7.7,0,0,0,.587-.739V39.768a.693.693,0,0,0-.621-.747"/><path class="cls-12" d="M227.421,51.976h-3.075a.549.549,0,0,1-.491-.592v-1.8a.549.549,0,0,1,.491-.592h3.075a.549.549,0,0,1,.492.592v1.8a.549.549,0,0,1-.492.592"/><path class="cls-9" d="M227.7,80.5h-2.314a.692.692,0,0,1-.62-.747V77.288a.7.7,0,0,1,.587-.739V69.962h2.381v6.587a.7.7,0,0,1,.587.739v2.461a.692.692,0,0,1-.621.747"/><path class="cls-12" d="M227.421,67.541h-3.075a.549.549,0,0,0-.491.592v1.8a.549.549,0,0,0,.491.592h3.075a.549.549,0,0,0,.492-.592v-1.8a.549.549,0,0,0-.492-.592"/><path class="cls-9" d="M233.674,39.021H231.36a.693.693,0,0,0-.621.747V42.23a.7.7,0,0,0,.587.739v6.586h2.382V42.969a.7.7,0,0,0,.587-.739V39.768a.693.693,0,0,0-.621-.747"/><path class="cls-12" d="M233.392,51.976h-3.075a.549.549,0,0,1-.492-.592v-1.8a.549.549,0,0,1,.492-.592h3.075a.549.549,0,0,1,.492.592v1.8a.549.549,0,0,1-.492.592"/><path class="cls-9" d="M233.674,80.5H231.36a.692.692,0,0,1-.621-.747V77.288a.7.7,0,0,1,.587-.739V69.962h2.382v6.587a.7.7,0,0,1,.587.739v2.461a.692.692,0,0,1-.621.747"/><path class="cls-12" d="M233.392,67.541h-3.075a.549.549,0,0,0-.492.592v1.8a.549.549,0,0,0,.492.592h3.075a.549.549,0,0,0,.492-.592v-1.8a.549.549,0,0,0-.492-.592"/><path class="cls-9" d="M239.511,39.021H237.2a.692.692,0,0,0-.62.747V42.23a.7.7,0,0,0,.587.739v6.586h2.381V42.969a.7.7,0,0,0,.587-.739V39.768a.693.693,0,0,0-.62-.747"/><path class="cls-12" d="M239.228,51.976h-3.074a.549.549,0,0,1-.492-.592v-1.8a.549.549,0,0,1,.492-.592h3.074a.55.55,0,0,1,.493.592v1.8a.55.55,0,0,1-.493.592"/><path class="cls-9" d="M239.511,80.5H237.2a.692.692,0,0,1-.62-.747V77.288a.7.7,0,0,1,.587-.739V69.962h2.381v6.587a.7.7,0,0,1,.587.739v2.461a.692.692,0,0,1-.62.747"/><path class="cls-12" d="M239.228,67.541h-3.074a.549.549,0,0,0-.492.592v1.8a.549.549,0,0,0,.492.592h3.074a.55.55,0,0,0,.493-.592v-1.8a.55.55,0,0,0-.493-.592"/><path class="cls-9" d="M245.2,39.021h-2.314a.693.693,0,0,0-.621.747V42.23a.7.7,0,0,0,.587.739v6.586h2.382V42.969a.7.7,0,0,0,.587-.739V39.768a.693.693,0,0,0-.621-.747"/><path class="cls-12" d="M244.914,51.976h-3.075a.549.549,0,0,1-.492-.592v-1.8a.549.549,0,0,1,.492-.592h3.075a.549.549,0,0,1,.492.592v1.8a.549.549,0,0,1-.492.592"/><path class="cls-9" d="M245.2,80.5h-2.314a.692.692,0,0,1-.621-.747V77.288a.7.7,0,0,1,.587-.739V69.962h2.382v6.587a.7.7,0,0,1,.587.739v2.461a.692.692,0,0,1-.621.747"/><path class="cls-12" d="M244.914,67.541h-3.075a.549.549,0,0,0-.492.592v1.8a.549.549,0,0,0,.492.592h3.075a.549.549,0,0,0,.492-.592v-1.8a.549.549,0,0,0-.492-.592"/><path class="cls-9" d="M250.832,39.021h-2.315a.692.692,0,0,0-.62.747V42.23a.7.7,0,0,0,.587.739v6.586h2.381V42.969a.7.7,0,0,0,.587-.739V39.768a.693.693,0,0,0-.62-.747"/><path class="cls-12" d="M250.549,51.976h-3.074a.55.55,0,0,1-.493-.592v-1.8a.55.55,0,0,1,.493-.592h3.074a.549.549,0,0,1,.492.592v1.8a.549.549,0,0,1-.492.592"/><path class="cls-9" d="M250.832,80.5h-2.315a.692.692,0,0,1-.62-.747V77.288a.7.7,0,0,1,.587-.739V69.962h2.381v6.587a.7.7,0,0,1,.587.739v2.461a.692.692,0,0,1-.62.747"/><path class="cls-12" d="M250.549,67.541h-3.074a.55.55,0,0,0-.493.592v1.8a.55.55,0,0,0,.493.592h3.074a.549.549,0,0,0,.492-.592v-1.8a.549.549,0,0,0-.492-.592"/><path class="cls-9" d="M256.534,39.021H254.22a.692.692,0,0,0-.621.747V42.23a.7.7,0,0,0,.587.739v6.586h2.382V42.969a.7.7,0,0,0,.587-.739V39.768a.693.693,0,0,0-.621-.747"/><path class="cls-12" d="M256.252,51.976h-3.075a.549.549,0,0,1-.492-.592v-1.8a.549.549,0,0,1,.492-.592h3.075a.549.549,0,0,1,.492.592v1.8a.549.549,0,0,1-.492.592"/><path class="cls-9" d="M256.534,80.5H254.22a.692.692,0,0,1-.621-.747V77.288a.7.7,0,0,1,.587-.739V69.962h2.382v6.587a.7.7,0,0,1,.587.739v2.461a.692.692,0,0,1-.621.747"/><path class="cls-12" d="M256.252,67.541h-3.075a.549.549,0,0,0-.492.592v1.8a.549.549,0,0,0,.492.592h3.075a.549.549,0,0,0,.492-.592v-1.8a.549.549,0,0,0-.492-.592"/><path class="cls-9" d="M262.3,39.021h-2.314a.693.693,0,0,0-.621.747V42.23a.7.7,0,0,0,.587.739v6.586h2.382V42.969a.7.7,0,0,0,.587-.739V39.768a.693.693,0,0,0-.621-.747"/><path class="cls-12" d="M262.021,51.976h-3.075a.549.549,0,0,1-.492-.592v-1.8a.549.549,0,0,1,.492-.592h3.075a.549.549,0,0,1,.492.592v1.8a.549.549,0,0,1-.492.592"/><path class="cls-9" d="M262.3,80.5h-2.314a.692.692,0,0,1-.621-.747V77.288a.7.7,0,0,1,.587-.739V69.962h2.382v6.587a.7.7,0,0,1,.587.739v2.461a.692.692,0,0,1-.621.747"/><path class="cls-12" d="M262.021,67.541h-3.075a.549.549,0,0,0-.492.592v1.8a.549.549,0,0,0,.492.592h3.075a.549.549,0,0,0,.492-.592v-1.8a.549.549,0,0,0-.492-.592"/><path class="cls-9" d="M268.073,39.021h-2.314a.692.692,0,0,0-.621.747V42.23a.7.7,0,0,0,.587.739v6.586h2.381V42.969a.7.7,0,0,0,.588-.739V39.768a.693.693,0,0,0-.621-.747"/><path class="cls-12" d="M267.79,51.976h-3.074a.549.549,0,0,1-.492-.592v-1.8a.549.549,0,0,1,.492-.592h3.074a.55.55,0,0,1,.493.592v1.8a.55.55,0,0,1-.493.592"/><path class="cls-9" d="M268.073,80.5h-2.314a.692.692,0,0,1-.621-.747V77.288a.7.7,0,0,1,.587-.739V69.962h2.381v6.587a.7.7,0,0,1,.588.739v2.461a.692.692,0,0,1-.621.747"/><path class="cls-12" d="M267.79,67.541h-3.074a.549.549,0,0,0-.492.592v1.8a.549.549,0,0,0,.492.592h3.074a.55.55,0,0,0,.493-.592v-1.8a.55.55,0,0,0-.493-.592"/><path class="cls-9" d="M273.775,39.021h-2.314a.693.693,0,0,0-.621.747V42.23a.7.7,0,0,0,.587.739v6.586h2.381V42.969a.7.7,0,0,0,.588-.739V39.768a.693.693,0,0,0-.621-.747"/><path class="cls-12" d="M273.493,51.976h-3.075a.549.549,0,0,1-.492-.592v-1.8a.549.549,0,0,1,.492-.592h3.075a.549.549,0,0,1,.492.592v1.8a.549.549,0,0,1-.492.592"/><path class="cls-9" d="M273.775,80.5h-2.314a.692.692,0,0,1-.621-.747V77.288a.7.7,0,0,1,.587-.739V69.962h2.381v6.587a.7.7,0,0,1,.588.739v2.461a.692.692,0,0,1-.621.747"/><path class="cls-12" d="M273.493,67.541h-3.075a.549.549,0,0,0-.492.592v1.8a.549.549,0,0,0,.492.592h3.075a.549.549,0,0,0,.492-.592v-1.8a.549.549,0,0,0-.492-.592"/><path class="cls-9" d="M279.679,39.021h-2.315a.692.692,0,0,0-.62.747V42.23a.7.7,0,0,0,.587.739v6.586h2.381V42.969a.7.7,0,0,0,.587-.739V39.768a.693.693,0,0,0-.62-.747"/><path class="cls-12" d="M279.4,51.976h-3.074a.55.55,0,0,1-.493-.592v-1.8a.55.55,0,0,1,.493-.592H279.4a.549.549,0,0,1,.492.592v1.8a.549.549,0,0,1-.492.592"/><path class="cls-9" d="M279.679,80.5h-2.315a.692.692,0,0,1-.62-.747V77.288a.7.7,0,0,1,.587-.739V69.962h2.381v6.587a.7.7,0,0,1,.587.739v2.461a.692.692,0,0,1-.62.747"/><path class="cls-12" d="M279.4,67.541h-3.074a.55.55,0,0,0-.493.592v1.8a.55.55,0,0,0,.493.592H279.4a.549.549,0,0,0,.492-.592v-1.8a.549.549,0,0,0-.492-.592"/><path class="cls-9" d="M285.45,39.021h-2.314a.693.693,0,0,0-.621.747V42.23a.7.7,0,0,0,.587.739v6.586h2.382V42.969a.7.7,0,0,0,.587-.739V39.768a.693.693,0,0,0-.621-.747"/><path class="cls-12" d="M285.168,51.976h-3.075a.549.549,0,0,1-.492-.592v-1.8a.549.549,0,0,1,.492-.592h3.075a.549.549,0,0,1,.492.592v1.8a.549.549,0,0,1-.492.592"/><path class="cls-9" d="M285.45,80.5h-2.314a.692.692,0,0,1-.621-.747V77.288a.7.7,0,0,1,.587-.739V69.962h2.382v6.587a.7.7,0,0,1,.587.739v2.461a.692.692,0,0,1-.621.747"/><path class="cls-12" d="M285.168,67.541h-3.075a.549.549,0,0,0-.492.592v1.8a.549.549,0,0,0,.492.592h3.075a.549.549,0,0,0,.492-.592v-1.8a.549.549,0,0,0-.492-.592"/><path class="cls-12" d="M206.7,50.483c0-.825.951-1.493,2.124-1.493s2.124.668,2.124,1.493-.951,1.493-2.124,1.493-2.124-.668-2.124-1.493"/><path class="cls-12" d="M206.7,68.783c0-.826.951-1.494,2.124-1.494s2.124.668,2.124,1.494-.951,1.492-2.124,1.492-2.124-.668-2.124-1.492"/><path class="cls-12" d="M292.842,50.483c0-.825.951-1.493,2.124-1.493s2.124.668,2.124,1.493-.951,1.493-2.124,1.493-2.124-.668-2.124-1.493"/><path class="cls-12" d="M292.842,68.783c0-.826.951-1.494,2.124-1.494s2.124.668,2.124,1.494-.951,1.492-2.124,1.492-2.124-.668-2.124-1.492"/><line class="cls-13" x1="216.318" y1="78.667" x2="211.936" y2="78.667"/><line class="cls-14" x1="216.318" y1="78.667" x2="211.936" y2="78.667"/><polyline class="cls-14" points="208.827 78.667 202.722 78.667 202.722 41.429 216.318 41.429"/><line class="cls-13" x1="288.168" y1="41.429" x2="292.551" y2="41.429"/><line class="cls-14" x1="288.168" y1="41.429" x2="292.551" y2="41.429"/><polyline class="cls-14" points="295.659 41.429 301.764 41.429 301.764 78.667 288.168 78.667"/><rect class="cls-7" x="199.07" y="182.383" width="39.319" height="51.404"/><rect class="cls-7" x="183.751" y="207.021" width="15.319" height="24.638"/><rect class="cls-7" x="241.623" y="193.532" width="23.961" height="13.489"/><rect class="cls-7" x="241.623" y="218.392" width="23.961" height="13.489"/><rect class="cls-7" x="267.62" y="211.648" width="37.578" height="33.288"/><rect class="cls-7" x="311.284" y="219.34" width="13.687" height="25.596"/><rect class="cls-7" x="324.971" y="219.34" width="13.687" height="25.596"/><rect class="cls-7" x="338.659" y="219.34" width="13.687" height="25.596"/><rect class="cls-7" x="330.073" y="155.667" width="13.687" height="25.596"/><rect class="cls-7" x="358.318" y="155.667" width="13.687" height="25.596"/><rect class="cls-7" x="200.021" y="239.989" width="13.384" height="25.596"/><rect class="cls-7" x="213.405" y="239.989" width="13.384" height="25.596"/><rect class="cls-7" x="226.789" y="239.989" width="13.384" height="25.596"/><rect class="cls-7" x="198.14" y="372.277" width="13.384" height="25.596"/><rect class="cls-7" x="211.524" y="378.965" width="42.141" height="25.596"/><rect class="cls-7" x="240.173" y="239.989" width="13.384" height="25.596"/><rect class="cls-7" x="253.558" y="239.989" width="13.384" height="25.596"/><rect class="cls-7" x="200.021" y="306.405" width="23.007" height="39.446"/><rect class="cls-7" x="236.594" y="306.405" width="23.007" height="39.446"/><rect class="cls-7" x="325.672" y="293.581" width="13.384" height="24.475" transform="translate(638.182 -26.545) rotate(90)"/><rect class="cls-7" x="269.501" y="264.582" width="13.384" height="24.475" transform="translate(553.013 0.626) rotate(90)"/><rect class="cls-7" x="266.934" y="289.078" width="42.52" height="31.114" transform="translate(592.828 16.441) rotate(90)"/><rect class="cls-7" x="210.779" y="254.822" width="24.497" height="57.105" transform="translate(506.402 60.347) rotate(90)"/><rect class="cls-7" x="293.977" y="264.582" width="13.384" height="24.475" transform="translate(577.489 -23.849) rotate(90)"/><rect class="cls-7" x="274.063" y="322.103" width="13.384" height="24.475" transform="translate(615.095 53.586) rotate(90)"/><rect class="cls-7" x="325.672" y="306.965" width="13.384" height="24.475" transform="translate(651.567 -13.161) rotate(90)"/><path class="cls-15" d="M330.213,301.186v8.49a1.057,1.057,0,0,1-1.054,1.054h-5.965a1.057,1.057,0,0,1-1.054-1.054v-8.49a1.057,1.057,0,0,1,1.054-1.054h5.965a1.057,1.057,0,0,1,1.054,1.054"/><path class="cls-15" d="M342.772,301.186v8.49a1.057,1.057,0,0,1-1.054,1.054h-5.965a1.057,1.057,0,0,1-1.054-1.054v-8.49a1.057,1.057,0,0,1,1.054-1.054h5.965a1.057,1.057,0,0,1,1.054,1.054"/><path class="cls-5" d="M325.055,301.02h14.333a2.045,2.045,0,0,1,2.043,2.044v4.716a2.045,2.045,0,0,1-2.043,2.044H325.055a2.046,2.046,0,0,1-2.043-2.044v-4.716a2.009,2.009,0,0,1,2.043-2.044"/><rect class="cls-16" x="327.985" y="301.014" width="8.443" height="8.834"/><path class="cls-15" d="M330.213,314.957v8.49a1.057,1.057,0,0,1-1.054,1.055h-5.965a1.057,1.057,0,0,1-1.054-1.055v-8.49a1.057,1.057,0,0,1,1.054-1.054h5.965a1.057,1.057,0,0,1,1.054,1.054"/><path class="cls-15" d="M342.772,314.957v8.49a1.057,1.057,0,0,1-1.054,1.055h-5.965a1.057,1.057,0,0,1-1.054-1.055v-8.49a1.057,1.057,0,0,1,1.054-1.054h5.965a1.057,1.057,0,0,1,1.054,1.054"/><path class="cls-5" d="M325.055,314.792h14.333a2.045,2.045,0,0,1,2.043,2.044v4.716a2.045,2.045,0,0,1-2.043,2.044H325.055a2.046,2.046,0,0,1-2.043-2.044v-4.716a2.009,2.009,0,0,1,2.043-2.044"/><rect class="cls-16" x="327.985" y="314.786" width="8.443" height="8.834"/><path class="cls-15" d="M273.951,272.574v8.49a1.058,1.058,0,0,1-1.054,1.055h-5.965a1.057,1.057,0,0,1-1.054-1.055v-8.49a1.057,1.057,0,0,1,1.054-1.054H272.9a1.058,1.058,0,0,1,1.054,1.054"/><path class="cls-15" d="M286.509,272.574v8.49a1.057,1.057,0,0,1-1.053,1.055h-5.965a1.057,1.057,0,0,1-1.054-1.055v-8.49a1.057,1.057,0,0,1,1.054-1.054h5.965a1.057,1.057,0,0,1,1.053,1.054"/><path class="cls-5" d="M268.793,272.409h14.333a2.045,2.045,0,0,1,2.042,2.044v4.716a2.044,2.044,0,0,1-2.042,2.044H268.793a2.046,2.046,0,0,1-2.043-2.044v-4.716a2.009,2.009,0,0,1,2.043-2.044"/><rect class="cls-16" x="271.722" y="272.403" width="8.443" height="8.834"/><path class="cls-15" d="M201.074,255.03h8.49a1.057,1.057,0,0,1,1.055,1.054v5.965a1.057,1.057,0,0,1-1.055,1.054h-8.49a1.057,1.057,0,0,1-1.053-1.054v-5.965a1.057,1.057,0,0,1,1.053-1.054"/><path class="cls-15" d="M201.074,242.471h8.49a1.058,1.058,0,0,1,1.055,1.054v5.965a1.057,1.057,0,0,1-1.055,1.054h-8.49a1.057,1.057,0,0,1-1.053-1.054v-5.965a1.057,1.057,0,0,1,1.053-1.054"/><path class="cls-5" d="M200.909,260.188V245.855a2.046,2.046,0,0,1,2.044-2.043h4.716a2.045,2.045,0,0,1,2.044,2.043v14.333a2.046,2.046,0,0,1-2.044,2.043h-4.716a2.009,2.009,0,0,1-2.044-2.043"/><rect class="cls-16" x="200.903" y="248.816" width="8.834" height="8.443"/><path class="cls-15" d="M215.852,255.03h8.49a1.057,1.057,0,0,1,1.054,1.054v5.965a1.057,1.057,0,0,1-1.054,1.054h-8.49a1.057,1.057,0,0,1-1.054-1.054v-5.965a1.057,1.057,0,0,1,1.054-1.054"/><path class="cls-15" d="M215.852,242.471h8.49a1.057,1.057,0,0,1,1.054,1.054v5.965a1.057,1.057,0,0,1-1.054,1.054h-8.49a1.057,1.057,0,0,1-1.054-1.054v-5.965a1.057,1.057,0,0,1,1.054-1.054"/><path class="cls-5" d="M215.686,260.188V245.855a2.046,2.046,0,0,1,2.044-2.043h4.716a2.045,2.045,0,0,1,2.044,2.043v14.333a2.046,2.046,0,0,1-2.044,2.043H217.73a2.009,2.009,0,0,1-2.044-2.043"/><rect class="cls-16" x="215.68" y="248.816" width="8.834" height="8.443"/><path class="cls-15" d="M228.539,255.03h8.49a1.057,1.057,0,0,1,1.055,1.054v5.965a1.057,1.057,0,0,1-1.055,1.054h-8.49a1.057,1.057,0,0,1-1.053-1.054v-5.965a1.057,1.057,0,0,1,1.053-1.054"/><path class="cls-15" d="M228.539,242.471h8.49a1.058,1.058,0,0,1,1.055,1.054v5.965a1.057,1.057,0,0,1-1.055,1.054h-8.49a1.057,1.057,0,0,1-1.053-1.054v-5.965a1.057,1.057,0,0,1,1.053-1.054"/><path class="cls-5" d="M228.374,260.188V245.855a2.046,2.046,0,0,1,2.044-2.043h4.716a2.045,2.045,0,0,1,2.044,2.043v14.333a2.046,2.046,0,0,1-2.044,2.043h-4.716a2.009,2.009,0,0,1-2.044-2.043"/><rect class="cls-16" x="228.368" y="248.816" width="8.834" height="8.443"/><path class="cls-15" d="M242.62,255.03h8.49a1.057,1.057,0,0,1,1.055,1.054v5.965a1.057,1.057,0,0,1-1.055,1.054h-8.49a1.057,1.057,0,0,1-1.054-1.054v-5.965a1.057,1.057,0,0,1,1.054-1.054"/><path class="cls-15" d="M242.62,242.471h8.49a1.058,1.058,0,0,1,1.055,1.054v5.965a1.057,1.057,0,0,1-1.055,1.054h-8.49a1.057,1.057,0,0,1-1.054-1.054v-5.965a1.058,1.058,0,0,1,1.054-1.054"/><path class="cls-5" d="M242.455,260.188V245.855a2.046,2.046,0,0,1,2.044-2.043h4.716a2.046,2.046,0,0,1,2.044,2.043v14.333a2.046,2.046,0,0,1-2.044,2.043H244.5a2.009,2.009,0,0,1-2.044-2.043"/><rect class="cls-16" x="242.448" y="248.816" width="8.834" height="8.443"/><path class="cls-15" d="M256,255.03h8.49a1.057,1.057,0,0,1,1.055,1.054v5.965a1.057,1.057,0,0,1-1.055,1.054H256a1.057,1.057,0,0,1-1.053-1.054v-5.965A1.057,1.057,0,0,1,256,255.03"/><path class="cls-15" d="M256,242.471h8.49a1.058,1.058,0,0,1,1.055,1.054v5.965a1.057,1.057,0,0,1-1.055,1.054H256a1.057,1.057,0,0,1-1.053-1.054v-5.965A1.057,1.057,0,0,1,256,242.471"/><path class="cls-5" d="M255.839,260.188V245.855a2.046,2.046,0,0,1,2.044-2.043H262.6a2.045,2.045,0,0,1,2.044,2.043v14.333a2.046,2.046,0,0,1-2.044,2.043h-4.716a2.009,2.009,0,0,1-2.044-2.043"/><rect class="cls-16" x="255.833" y="248.816" width="8.834" height="8.443"/><path class="cls-15" d="M251.36,196.031v8.49a1.057,1.057,0,0,1-1.054,1.055h-5.965a1.058,1.058,0,0,1-1.054-1.055v-8.49a1.058,1.058,0,0,1,1.054-1.054h5.965a1.057,1.057,0,0,1,1.054,1.054"/><path class="cls-15" d="M263.919,196.031v8.49a1.057,1.057,0,0,1-1.054,1.055H256.9a1.057,1.057,0,0,1-1.054-1.055v-8.49a1.057,1.057,0,0,1,1.054-1.054h5.965a1.057,1.057,0,0,1,1.054,1.054"/><path class="cls-5" d="M246.2,195.866h14.333a2.045,2.045,0,0,1,2.043,2.044v4.716a2.046,2.046,0,0,1-2.043,2.044H246.2a2.046,2.046,0,0,1-2.043-2.044V197.91a2.01,2.01,0,0,1,2.043-2.044"/><rect class="cls-16" x="249.132" y="195.859" width="8.443" height="8.834"/><path class="cls-5" d="M294.269,272.051h14.258a2.034,2.034,0,0,1,2.032,2.033v4.692a2.034,2.034,0,0,1-2.032,2.033H294.269a2.035,2.035,0,0,1-2.033-2.033v-4.692a2,2,0,0,1,2.033-2.033"/><rect class="cls-2" x="297.184" y="272.044" width="8.399" height="8.788"/><path class="cls-5" d="M273.037,330.391H287.3a2.034,2.034,0,0,1,2.032,2.033v4.693a2.034,2.034,0,0,1-2.032,2.033H273.037A2.035,2.035,0,0,1,271,337.117v-4.693a2,2,0,0,1,2.033-2.033"/><rect class="cls-2" x="275.951" y="330.385" width="8.399" height="8.788"/><path class="cls-5" d="M208.3,378.922V393.18a2.034,2.034,0,0,1-2.033,2.032h-4.692a2.034,2.034,0,0,1-2.033-2.032V378.922a2.035,2.035,0,0,1,2.033-2.033h4.692a2,2,0,0,1,2.033,2.033"/><rect class="cls-2" x="199.517" y="381.837" width="8.788" height="8.399"/><path class="cls-5" d="M312.8,239.267V225.009a2.035,2.035,0,0,1,2.033-2.033h4.693a2.035,2.035,0,0,1,2.033,2.033v14.258a2.034,2.034,0,0,1-2.033,2.032h-4.693a2,2,0,0,1-2.033-2.032"/><rect class="cls-2" x="312.796" y="227.953" width="8.788" height="8.399"/><path class="cls-5" d="M333.373,176.072V161.814a2.034,2.034,0,0,1,2.033-2.032H340.1a2.034,2.034,0,0,1,2.033,2.032v14.258a2.035,2.035,0,0,1-2.033,2.033h-4.692a2,2,0,0,1-2.033-2.033"/><rect class="cls-2" x="333.366" y="164.758" width="8.788" height="8.399"/><path class="cls-5" d="M183.953,226.469V212.211a2.034,2.034,0,0,1,2.033-2.032h4.692a2.034,2.034,0,0,1,2.033,2.032v14.258a2.035,2.035,0,0,1-2.033,2.033h-4.692a2,2,0,0,1-2.033-2.033"/><rect class="cls-2" x="183.946" y="215.155" width="8.788" height="8.399"/><path class="cls-5" d="M246.225,220.75h14.258a2.034,2.034,0,0,1,2.032,2.032v4.693a2.034,2.034,0,0,1-2.032,2.033H246.225a2.035,2.035,0,0,1-2.033-2.033v-4.693a2,2,0,0,1,2.033-2.032"/><rect class="cls-2" x="249.14" y="220.743" width="8.399" height="8.788"/><path class="cls-5" d="M341.115,239.267V225.009a2.035,2.035,0,0,1,2.033-2.033h4.692a2.035,2.035,0,0,1,2.033,2.033v14.258a2.034,2.034,0,0,1-2.033,2.032h-4.692a2,2,0,0,1-2.033-2.032"/><rect class="cls-2" x="341.108" y="227.953" width="8.788" height="8.399"/><path class="cls-5" d="M361.32,175.593V161.335a2.034,2.034,0,0,1,2.033-2.032h4.693a2.034,2.034,0,0,1,2.033,2.032v14.258a2.035,2.035,0,0,1-2.033,2.033h-4.693a2,2,0,0,1-2.033-2.033"/><rect class="cls-2" x="361.314" y="164.28" width="8.788" height="8.399"/><path class="cls-5" d="M327.428,239.267V225.009a2.035,2.035,0,0,1,2.033-2.033h4.692a2.035,2.035,0,0,1,2.033,2.033v14.258a2.034,2.034,0,0,1-2.033,2.032h-4.692a2,2,0,0,1-2.033-2.032"/><rect class="cls-2" x="327.421" y="227.953" width="8.788" height="8.399"/><path class="cls-5" d="M297.127,288.88h13.526a1.984,1.984,0,0,1,1.927,2.033v4.692a1.984,1.984,0,0,1-1.927,2.033H297.127a1.985,1.985,0,0,1-1.928-2.033v-4.692a1.95,1.95,0,0,1,1.928-2.033"/><path class="cls-5" d="M297.127,301.052h13.526a1.984,1.984,0,0,1,1.927,2.033v4.692a1.984,1.984,0,0,1-1.927,2.033H297.127a1.985,1.985,0,0,1-1.928-2.033v-4.692a1.95,1.95,0,0,1,1.928-2.033"/><path class="cls-5" d="M297.127,313.626h13.526a1.984,1.984,0,0,1,1.927,2.033v4.693a1.983,1.983,0,0,1-1.927,2.032H297.127a1.985,1.985,0,0,1-1.928-2.032v-4.693a1.95,1.95,0,0,1,1.928-2.033"/><path class="cls-5" d="M268.678,288.88H282.2a1.984,1.984,0,0,1,1.928,2.033v4.692a1.984,1.984,0,0,1-1.928,2.033H268.678a1.985,1.985,0,0,1-1.928-2.033v-4.692a1.95,1.95,0,0,1,1.928-2.033"/><path class="cls-5" d="M268.678,313.626H282.2a1.984,1.984,0,0,1,1.928,2.033v4.693a1.983,1.983,0,0,1-1.928,2.032H268.678a1.985,1.985,0,0,1-1.928-2.032v-4.693a1.95,1.95,0,0,1,1.928-2.033"/><rect class="cls-2" x="282.473" y="289.106" width="17.107" height="35.396" rx="1.149"/><path class="cls-5" d="M253.878,301.055V314.58c0,1.079-1.347,1.928-2.953,1.928h-6.817c-1.65,0-2.953-.878-2.953-1.928V301.055c0-1.077,1.347-1.928,2.953-1.928h6.817c1.65-.027,2.953.851,2.953,1.928"/><path class="cls-5" d="M253.878,339.089v13.525c0,1.079-1.347,1.928-2.953,1.928h-6.817c-1.65,0-2.953-.878-2.953-1.928V339.089c0-1.077,1.347-1.928,2.953-1.928h6.817c1.65-.027,2.953.851,2.953,1.928"/><rect class="cls-2" x="238.612" y="309.95" width="17.107" height="35.396" rx="1.149"/><path class="cls-5" d="M224.67,369.379V380.8a1.827,1.827,0,0,1-1.972,1.627h-4.553a1.825,1.825,0,0,1-1.972-1.627V369.379a1.828,1.828,0,0,1,1.972-1.628H222.7a1.8,1.8,0,0,1,1.972,1.628"/><path class="cls-5" d="M224.67,401.487v11.418a1.827,1.827,0,0,1-1.972,1.627h-4.553a1.825,1.825,0,0,1-1.972-1.627V401.487a1.828,1.828,0,0,1,1.972-1.628H222.7a1.794,1.794,0,0,1,1.972,1.628"/><path class="cls-5" d="M236.843,369.379V380.8a1.827,1.827,0,0,1-1.972,1.627h-4.552a1.825,1.825,0,0,1-1.973-1.627V369.379a1.829,1.829,0,0,1,1.973-1.628h4.552a1.8,1.8,0,0,1,1.972,1.628"/><path class="cls-5" d="M236.843,401.487v11.418a1.827,1.827,0,0,1-1.972,1.627h-4.552a1.825,1.825,0,0,1-1.973-1.627V401.487a1.829,1.829,0,0,1,1.973-1.628h4.552a1.794,1.794,0,0,1,1.972,1.628"/><path class="cls-5" d="M247.109,369.379V380.8a1.827,1.827,0,0,1-1.972,1.627h-4.553a1.825,1.825,0,0,1-1.972-1.627V369.379a1.828,1.828,0,0,1,1.972-1.628h4.553a1.8,1.8,0,0,1,1.972,1.628"/><path class="cls-5" d="M247.109,401.487v11.418a1.827,1.827,0,0,1-1.972,1.627h-4.553a1.825,1.825,0,0,1-1.972-1.627V401.487a1.828,1.828,0,0,1,1.972-1.628h4.553a1.794,1.794,0,0,1,1.972,1.628"/><rect class="cls-2" x="214.474" y="376.888" width="34.213" height="29.881" rx="1.493"/><path class="cls-5" d="M211.819,186.323v11.418a1.828,1.828,0,0,1-1.973,1.627h-4.552a1.825,1.825,0,0,1-1.972-1.627V186.323a1.828,1.828,0,0,1,1.972-1.628h4.552a1.8,1.8,0,0,1,1.973,1.628"/><path class="cls-5" d="M211.819,218.431v11.417a1.828,1.828,0,0,1-1.973,1.628h-4.552a1.825,1.825,0,0,1-1.972-1.628V218.431a1.828,1.828,0,0,1,1.972-1.628h4.552a1.8,1.8,0,0,1,1.973,1.628"/><path class="cls-5" d="M223.992,186.323v11.418a1.827,1.827,0,0,1-1.972,1.627h-4.553a1.825,1.825,0,0,1-1.972-1.627V186.323a1.828,1.828,0,0,1,1.972-1.628h4.553a1.794,1.794,0,0,1,1.972,1.628"/><path class="cls-5" d="M223.992,218.431v11.417a1.827,1.827,0,0,1-1.972,1.628h-4.553a1.825,1.825,0,0,1-1.972-1.628V218.431a1.828,1.828,0,0,1,1.972-1.628h4.553a1.794,1.794,0,0,1,1.972,1.628"/><path class="cls-5" d="M234.258,186.323v11.418a1.827,1.827,0,0,1-1.972,1.627h-4.553a1.825,1.825,0,0,1-1.972-1.627V186.323a1.828,1.828,0,0,1,1.972-1.628h4.553a1.794,1.794,0,0,1,1.972,1.628"/><path class="cls-5" d="M234.258,218.431v11.417a1.827,1.827,0,0,1-1.972,1.628h-4.553a1.825,1.825,0,0,1-1.972-1.628V218.431a1.828,1.828,0,0,1,1.972-1.628h4.553a1.794,1.794,0,0,1,1.972,1.628"/><rect class="cls-2" x="201.623" y="193.832" width="34.213" height="29.881" rx="1.493"/><path class="cls-5" d="M218.237,301.055V314.58c0,1.079-1.347,1.928-2.953,1.928h-6.817c-1.65,0-2.953-.878-2.953-1.928V301.055c0-1.077,1.347-1.928,2.953-1.928h6.817c1.65-.027,2.953.851,2.953,1.928"/><path class="cls-5" d="M218.237,339.089v13.525c0,1.079-1.347,1.928-2.953,1.928h-6.817c-1.65,0-2.953-.878-2.953-1.928V339.089c0-1.077,1.347-1.928,2.953-1.928h6.817c1.65-.027,2.953.851,2.953,1.928"/><rect class="cls-2" x="202.97" y="309.95" width="17.107" height="35.396" rx="1.149"/><path class="cls-5" d="M248.707,291.193H235.182c-1.078,0-1.928-1.346-1.928-2.953v-6.816c0-1.65.878-2.953,1.928-2.953h13.525c1.078,0,1.929,1.346,1.929,2.953v6.816c.027,1.65-.851,2.953-1.929,2.953"/><path class="cls-5" d="M210.673,291.193H197.148c-1.078,0-1.928-1.346-1.928-2.953v-6.816c0-1.65.878-2.953,1.928-2.953h13.525c1.078,0,1.929,1.346,1.929,2.953v6.816c.027,1.65-.851,2.953-1.929,2.953"/><rect class="cls-2" x="213.561" y="266.783" width="17.107" height="35.396" rx="1.149" transform="translate(506.595 62.367) rotate(90)"/><rect class="cls-5" x="342.772" y="332.17" width="16.043" height="17.532" rx="3.5"/><rect class="cls-5" x="316.881" y="332.17" width="16.043" height="17.532" rx="8.021"/><rect class="cls-5" x="28.456" y="334.34" width="16.043" height="17.532" rx="3.5"/><rect class="cls-5" x="8.529" y="334.34" width="16.043" height="17.532" rx="8.021"/><path class="cls-15" d="M184.663,172.823a1.53,1.53,0,0,0,.228.012h.215a1.447,1.447,0,0,0,1.62-1.391,1.344,1.344,0,0,0-1.512-1.367c-1.1,0-1.607.851-1.607,1.847h-1.019a2.52,2.52,0,0,1,2.626-2.747c1.476,0,2.591.708,2.591,2.279a1.913,1.913,0,0,1-1.175,1.691v.024a1.929,1.929,0,0,1,1.535,2.063,2.627,2.627,0,0,1-2.926,2.591,2.566,2.566,0,0,1-2.831-2.771h1.02a1.727,1.727,0,0,0,1.811,1.871,1.7,1.7,0,0,0,1.846-1.643,1.624,1.624,0,0,0-1.811-1.631,4.935,4.935,0,0,0-.611.036Z"/><path class="cls-15" d="M193.026,177.681h-1.3l-3.022-8.564h1.235l2.447,7.425h.024l2.471-7.425h1.187Z"/><path class="cls-15" d="M198.667,172.823a1.53,1.53,0,0,0,.228.012h.215a1.447,1.447,0,0,0,1.62-1.391,1.344,1.344,0,0,0-1.512-1.367c-1.1,0-1.607.851-1.607,1.847h-1.019a2.52,2.52,0,0,1,2.626-2.747c1.476,0,2.591.708,2.591,2.279a1.915,1.915,0,0,1-1.175,1.691v.024a1.929,1.929,0,0,1,1.535,2.063,2.627,2.627,0,0,1-2.926,2.591,2.566,2.566,0,0,1-2.831-2.771h1.02a1.727,1.727,0,0,0,1.811,1.871,1.7,1.7,0,0,0,1.846-1.643,1.624,1.624,0,0,0-1.811-1.631,4.935,4.935,0,0,0-.611.036Z"/><path class="cls-15" d="M202.724,178.58h6v.6h-6Z"/><path class="cls-15" d="M214.613,171.624a1.859,1.859,0,0,0-2.123-1.751c-.971,0-1.919.348-1.919,1.463,0,2.111,5.481.624,5.481,3.994,0,1.823-1.787,2.555-3.346,2.555-1.919,0-3.538-.948-3.538-3.023h1.079c0,1.439,1.2,2.063,2.495,2.063,1.031,0,2.171-.324,2.171-1.559,0-2.351-5.481-.8-5.481-3.946,0-1.727,1.535-2.506,3.106-2.506,1.751,0,3.094.827,3.154,2.71Z"/><path class="cls-15" d="M190.834,253.159a1.408,1.408,0,0,0-.013.227v.216a1.446,1.446,0,0,0,1.392,1.619,1.344,1.344,0,0,0,1.367-1.511c0-1.1-.851-1.607-1.847-1.607v-1.02a2.521,2.521,0,0,1,2.747,2.627c0,1.476-.708,2.591-2.279,2.591a1.912,1.912,0,0,1-1.691-1.176h-.025a1.927,1.927,0,0,1-2.062,1.536,2.626,2.626,0,0,1-2.591-2.926A2.565,2.565,0,0,1,188.6,250.9v1.019a1.729,1.729,0,0,0-1.872,1.812,1.7,1.7,0,0,0,1.644,1.847,1.625,1.625,0,0,0,1.631-1.812,4.923,4.923,0,0,0-.036-.611Z"/><path class="cls-15" d="M185.976,261.522v-1.3l8.564-3.022v1.235l-7.425,2.447v.024l7.425,2.47v1.188Z"/><path class="cls-15" d="M190.834,267.163a1.408,1.408,0,0,0-.013.227v.216a1.446,1.446,0,0,0,1.392,1.619,1.344,1.344,0,0,0,1.367-1.511c0-1.1-.851-1.607-1.847-1.607v-1.02a2.521,2.521,0,0,1,2.747,2.627c0,1.476-.708,2.591-2.279,2.591a1.912,1.912,0,0,1-1.691-1.176h-.025a1.927,1.927,0,0,1-2.062,1.536,2.627,2.627,0,0,1-2.591-2.926,2.565,2.565,0,0,1,2.771-2.831v1.019a1.729,1.729,0,0,0-1.872,1.812,1.7,1.7,0,0,0,1.644,1.846,1.624,1.624,0,0,0,1.631-1.811,4.923,4.923,0,0,0-.036-.611Z"/><circle class="cls-16" cx="189.453" cy="192.031" r="6.628"/><circle class="cls-16" cx="189.453" cy="239.989" r="6.628"/></g></g></svg>