<svg xmlns="http://www.w3.org/2000/svg" xmlns:xlink="http://www.w3.org/1999/xlink" viewBox="0 0 1889.48 1263.5"><defs><style>.cls-1{fill:none;}.cls-2,.cls-21,.cls-5,.cls-9{fill:#fff;}.cls-3{fill:#97999b;}.cls-26,.cls-4{fill:#ec2024;}.cls-5,.cls-9{isolation:isolate;}.cls-5{font-size:37.07px;}.cls-26,.cls-5,.cls-9{font-family:HelveticaNeueLTPro-Bd, Helvetica Neue LT Pro;}.cls-6{fill:#ffd400;}.cls-7{fill:#333;}.cls-8{fill:#b2b2b2;}.cls-9{font-size:47.19px;}.cls-10{fill:#7373ff;}.cls-11{opacity:0.29;}.cls-12{clip-path:url(#clip-path);}.cls-13{fill:#242424;}.cls-14{clip-path:url(#clip-path-2);}.cls-15{fill:#deab52;}.cls-16{clip-path:url(#clip-path-3);}.cls-17{clip-path:url(#clip-path-4);}.cls-18{fill:#8a8c8e;}.cls-19{fill:#e7e8ec;}.cls-20{fill:#babcc0;}.cls-21{font-size:52.45px;font-family:HelveticaNeueLTPro-Roman, Helvetica Neue LT Pro;}.cls-22{letter-spacing:0.14em;}.cls-23{letter-spacing:0.04em;}.cls-24{letter-spacing:0.02em;}.cls-25{letter-spacing:0.02em;}.cls-26{font-size:38px;}.cls-27{fill:#ebf3fb;}.cls-28{fill:#333d49;}.cls-29{fill:#222630;}.cls-30{fill:#bf8f3e;}</style><clipPath id="clip-path" transform="translate(0)"><rect class="cls-1" y="283.74" width="1103.86" height="793.94"/></clipPath><clipPath id="clip-path-2" transform="translate(0)"><rect class="cls-1" x="840.98" y="980.43" width="86.41" height="86.41"/></clipPath><clipPath id="clip-path-3" transform="translate(0)"><rect class="cls-1" x="1001.77" y="430.67" width="86.41" height="86.41"/></clipPath><clipPath id="clip-path-4" transform="translate(0)"><rect class="cls-1" x="651.53" y="304.93" width="86.41" height="86.41"/></clipPath></defs><g id="Layer_2" data-name="Layer 2"><g id="Layer_1-2" data-name="Layer 1"><rect class="cls-2" y="282.19" width="1103.86" height="795.49"/><path class="cls-3" d="M1521.24.32h70.38a9.16,9.16,0,0,1,9.16,9.16V1253.69a9.43,9.43,0,0,1-9.43,9.43h-70.11a0,0,0,0,1,0,0V.32A0,0,0,0,1,1521.24.32Z" transform="translate(3122.02 1263.44) rotate(-180)"/><rect class="cls-4" x="1629.93" y="2.48" width="202.64" height="48.51"/><polygon class="cls-4" points="1865.06 2.48 1816.27 2.48 1791.85 26.72 1816.27 51 1865.06 51 1889.48 26.72 1865.06 2.48"/><path class="cls-4" d="M1606,51h43.54L1674,26.72,1649.57,2.48H1606a5.26,5.26,0,0,0-5.25,5.26v38A5.25,5.25,0,0,0,1606,51Z" transform="translate(0)"/><text class="cls-5" transform="translate(1617.15 38.93)">Battery Power</text><path class="cls-6" d="M1665.44,514.12H1714a0,0,0,0,1,0,0V685.36a6.61,6.61,0,0,1-6.61,6.61h-35.32a6.61,6.61,0,0,1-6.61-6.61V514.12A0,0,0,0,1,1665.44,514.12Z" transform="translate(2292.76 -1086.66) rotate(90)"/><polygon class="cls-6" points="1796.4 578.96 1747.61 578.96 1723.19 603.2 1747.61 627.48 1796.4 627.48 1820.82 603.2 1796.4 578.96"/><text class="cls-5" transform="translate(1621.2 615.41)">I2C1_SCL</text><polygon class="cls-7" points="1685.32 65.32 1636.52 65.32 1612.1 89.56 1636.52 113.84 1685.32 113.84 1709.74 89.56 1685.32 65.32"/><path class="cls-7" d="M1606.28,113.84h43.29L1674,89.56l-24.42-24.24h-43.29a5.5,5.5,0,0,0-5.5,5.5v37.52A5.5,5.5,0,0,0,1606.28,113.84Z" transform="translate(0)"/><text class="cls-5" transform="translate(1606.84 101.77)">GND</text><polygon class="cls-7" points="1685.32 1213.88 1636.52 1213.88 1612.1 1238.12 1636.52 1262.4 1685.32 1262.4 1709.74 1238.12 1685.32 1213.88"/><path class="cls-7" d="M1606.28,1262.4h43.29l24.42-24.28-24.42-24.24h-43.29a5.5,5.5,0,0,0-5.5,5.5v37.52A5.5,5.5,0,0,0,1606.28,1262.4Z" transform="translate(0)"/><text class="cls-5" transform="translate(1606.84 1250.33)">GND</text><path class="cls-8" d="M1581,820.07h-52.67a7.11,7.11,0,0,1-7.08-7.08V777.18a7.1,7.1,0,0,1,7.08-7.07H1581a7.1,7.1,0,0,1,7.08,7.07V813A7.11,7.11,0,0,1,1581,820.07Z" transform="translate(0)"/><text class="cls-9" transform="translate(1528.35 810.15)">26</text><path class="cls-8" d="M1581,883.86h-52.67a7.11,7.11,0,0,1-7.08-7.08V841a7.11,7.11,0,0,1,7.08-7.08H1581a7.11,7.11,0,0,1,7.08,7.08v35.8A7.11,7.11,0,0,1,1581,883.86Z" transform="translate(0)"/><text class="cls-9" transform="translate(1528.35 873.95)">28</text><path class="cls-8" d="M1581,947.26h-52.67a7.1,7.1,0,0,1-7.08-7.07V904.38a7.1,7.1,0,0,1,7.08-7.07H1581a7.1,7.1,0,0,1,7.08,7.07v35.81A7.1,7.1,0,0,1,1581,947.26Z" transform="translate(0)"/><text class="cls-9" transform="translate(1528.35 937.35)">30</text><path class="cls-10" d="M1581,1010.67h-52.67a7.11,7.11,0,0,1-7.08-7.08v-35.8a7.11,7.11,0,0,1,7.08-7.08H1581a7.11,7.11,0,0,1,7.08,7.08v35.8A7.11,7.11,0,0,1,1581,1010.67Z" transform="translate(0)"/><text class="cls-9" transform="translate(1528.35 1000.76)">32</text><path class="cls-8" d="M1581,1074.07h-52.67a7.1,7.1,0,0,1-7.08-7.07v-35.81a7.11,7.11,0,0,1,7.08-7.08H1581a7.11,7.11,0,0,1,7.08,7.08V1067A7.1,7.1,0,0,1,1581,1074.07Z" transform="translate(0)"/><text class="cls-9" transform="translate(1528.35 1064.16)">34</text><path class="cls-8" d="M1581,1137.09h-52.67a7.11,7.11,0,0,1-7.08-7.08v-35.8a7.11,7.11,0,0,1,7.08-7.08H1581a7.11,7.11,0,0,1,7.08,7.08V1130A7.11,7.11,0,0,1,1581,1137.09Z" transform="translate(0)"/><text class="cls-9" transform="translate(1528.35 1127.18)">36</text><path class="cls-8" d="M1581,1200.11h-52.67a7.11,7.11,0,0,1-7.08-7.08v-35.81a7.1,7.1,0,0,1,7.08-7.07H1581a7.1,7.1,0,0,1,7.08,7.07V1193A7.11,7.11,0,0,1,1581,1200.11Z" transform="translate(0)"/><text class="cls-9" transform="translate(1528.35 1190.19)">38</text><path class="cls-7" d="M1581,1263.12h-52.67a7.1,7.1,0,0,1-7.08-7.08v-35.8a7.11,7.11,0,0,1,7.08-7.08H1581a7.11,7.11,0,0,1,7.08,7.08V1256A7.1,7.1,0,0,1,1581,1263.12Z" transform="translate(0)"/><text class="cls-9" transform="translate(1528.35 1253.21)">40</text><path class="cls-4" d="M1689,129.51h-81.47c-3.74,0-6.78,1.68-6.78,3.75v41c0,2.07,3,3.75,6.78,3.75H1689" transform="translate(0)"/><polygon class="cls-4" points="1649.61 129.51 1698.4 129.51 1722.82 153.75 1698.4 178.03 1649.61 178.03 1625.19 153.75 1649.61 129.51"/><text class="cls-5" transform="translate(1619.25 165.96)">3.3V</text><path class="cls-8" d="M1605.75,242.38h26.18l24.42-24.28-24.42-24.24h-26.18a5,5,0,0,0-5,5V237.4A5,5,0,0,0,1605.75,242.38Z" transform="translate(0)"/><polygon class="cls-8" points="1631.14 193.86 1679.93 193.86 1704.35 218.09 1679.93 242.38 1631.14 242.38 1606.72 218.09 1631.14 193.86"/><text class="cls-5" transform="translate(1621.63 230.31)">NC</text><path class="cls-8" d="M1605.75,306.45h26.18l24.42-24.28-24.42-24.23h-26.18a5,5,0,0,0-5,5v38.57A5,5,0,0,0,1605.75,306.45Z" transform="translate(0)"/><polygon class="cls-8" points="1631.14 257.94 1679.93 257.94 1704.35 282.17 1679.93 306.45 1631.14 306.45 1606.72 282.17 1631.14 257.94"/><text class="cls-5" transform="translate(1621.63 294.39)">NC</text><path class="cls-8" d="M1605.75,370.53h26.18l24.42-24.28L1631.93,322h-26.18a5,5,0,0,0-5,5v38.57A5,5,0,0,0,1605.75,370.53Z" transform="translate(0)"/><polygon class="cls-8" points="1631.14 322.01 1679.93 322.01 1704.35 346.25 1679.93 370.53 1631.14 370.53 1606.72 346.25 1631.14 322.01"/><text class="cls-5" transform="translate(1621.63 358.46)">NC</text><path class="cls-8" d="M1605.75,434.6h26.18l24.42-24.28-24.42-24.23h-26.18a5,5,0,0,0-5,5v38.57A5,5,0,0,0,1605.75,434.6Z" transform="translate(0)"/><polygon class="cls-8" points="1631.14 386.09 1679.93 386.09 1704.35 410.32 1679.93 434.6 1631.14 434.6 1606.72 410.32 1631.14 386.09"/><text class="cls-5" transform="translate(1621.63 422.53)">NC</text><path class="cls-8" d="M1605.75,498.68h26.18l24.42-24.29-24.42-24.23h-26.18a5,5,0,0,0-5,5V493.7A5,5,0,0,0,1605.75,498.68Z" transform="translate(0)"/><polygon class="cls-8" points="1631.14 450.16 1679.93 450.16 1704.35 474.39 1679.93 498.68 1631.14 498.68 1606.72 474.39 1631.14 450.16"/><text class="cls-5" transform="translate(1621.63 486.61)">NC</text><path class="cls-8" d="M1605.75,562.75h26.18l24.42-24.28-24.42-24.23h-26.18a5,5,0,0,0-5,5v38.57A5,5,0,0,0,1605.75,562.75Z" transform="translate(0)"/><polygon class="cls-8" points="1631.14 514.24 1679.93 514.24 1704.35 538.47 1679.93 562.75 1631.14 562.75 1606.72 538.47 1631.14 514.24"/><text class="cls-5" transform="translate(1621.63 550.68)">NC</text><path class="cls-8" d="M1605.75,755.87h26.18l24.42-24.28-24.42-24.24h-26.18a5,5,0,0,0-5,5V750.9A5,5,0,0,0,1605.75,755.87Z" transform="translate(0)"/><polygon class="cls-8" points="1631.14 707.35 1679.93 707.35 1704.35 731.59 1679.93 755.87 1631.14 755.87 1606.72 731.59 1631.14 707.35"/><text class="cls-5" transform="translate(1621.63 743.8)">NC</text><path class="cls-8" d="M1605.75,819.34h26.18l24.42-24.28-24.42-24.23h-26.18a5,5,0,0,0-5,5v38.57A5,5,0,0,0,1605.75,819.34Z" transform="translate(0)"/><polygon class="cls-8" points="1631.14 770.83 1679.93 770.83 1704.35 795.06 1679.93 819.34 1631.14 819.34 1606.72 795.06 1631.14 770.83"/><text class="cls-5" transform="translate(1621.63 807.28)">NC</text><path class="cls-8" d="M1605.75,882.82h26.18l24.42-24.28-24.42-24.24h-26.18a5,5,0,0,0-5,5v38.57A5,5,0,0,0,1605.75,882.82Z" transform="translate(0)"/><polygon class="cls-8" points="1631.14 834.3 1679.93 834.3 1704.35 858.54 1679.93 882.82 1631.14 882.82 1606.72 858.54 1631.14 834.3"/><text class="cls-5" transform="translate(1621.63 870.75)">NC</text><path class="cls-8" d="M1605.75,946.29h26.18L1656.35,922l-24.42-24.23h-26.18a5,5,0,0,0-5,5v38.57A5,5,0,0,0,1605.75,946.29Z" transform="translate(0)"/><polygon class="cls-8" points="1631.14 897.78 1679.93 897.78 1704.35 922.01 1679.93 946.29 1631.14 946.29 1606.72 922.01 1631.14 897.78"/><text class="cls-5" transform="translate(1621.63 934.22)">NC</text><path class="cls-8" d="M1605.75,1073.35h26.18l24.42-24.28-24.42-24.23h-26.18a5,5,0,0,0-5,5v38.57A5,5,0,0,0,1605.75,1073.35Z" transform="translate(0)"/><polygon class="cls-8" points="1631.14 1024.84 1679.93 1024.84 1704.35 1049.07 1679.93 1073.35 1631.14 1073.35 1606.72 1049.07 1631.14 1024.84"/><text class="cls-5" transform="translate(1621.63 1061.29)">NC</text><path class="cls-8" d="M1605.75,1136.37h26.18l24.42-24.28-24.42-24.24h-26.18a5,5,0,0,0-5,5v38.57A5,5,0,0,0,1605.75,1136.37Z" transform="translate(0)"/><polygon class="cls-8" points="1631.14 1087.85 1679.93 1087.85 1704.35 1112.09 1679.93 1136.37 1631.14 1136.37 1606.72 1112.09 1631.14 1087.85"/><text class="cls-5" transform="translate(1621.63 1124.3)">NC</text><path class="cls-8" d="M1605.75,1199.38h26.18l24.42-24.28-24.42-24.23h-26.18a5,5,0,0,0-5,5v38.57A5,5,0,0,0,1605.75,1199.38Z" transform="translate(0)"/><polygon class="cls-8" points="1631.14 1150.87 1679.93 1150.87 1704.35 1175.1 1679.93 1199.38 1631.14 1199.38 1606.72 1175.1 1631.14 1150.87"/><text class="cls-5" transform="translate(1621.63 1187.32)">NC</text><path class="cls-10" d="M1763.43,643.63H1617.08c-9,0-16.3,2.19-16.3,4.89v38.74c0,2.7,7.3,4.89,16.3,4.89h146.35" transform="translate(0)"/><polygon class="cls-10" points="1756.63 643.63 1805.42 643.63 1829.84 667.87 1805.42 692.15 1756.63 692.15 1732.21 667.87 1756.63 643.63"/><text class="cls-5" transform="translate(1614.91 680.08)">A1 to MCU</text><path class="cls-10" d="M1763.43,961.43H1617.08c-9,0-16.3,2.19-16.3,4.89v38.74c0,2.7,7.3,4.89,16.3,4.89h146.35" transform="translate(0)"/><polygon class="cls-10" points="1756.63 961.43 1805.42 961.43 1829.84 985.67 1805.42 1009.95 1756.63 1009.95 1732.21 985.67 1756.63 961.43"/><text class="cls-5" transform="translate(1611.58 997.88)">A0 to MCU</text><path class="cls-3" d="M1416,.64h66a0,0,0,0,1,0,0V1262.4a0,0,0,0,1,0,0h-66.08a9.48,9.48,0,0,1-9.48-9.48V10.24a9.6,9.6,0,0,1,9.6-9.6Z" transform="translate(2888.35 1263.04) rotate(-180)"/><polygon class="cls-4" points="1154.59 2.48 1203.38 2.48 1227.81 26.72 1203.38 51 1154.59 51 1130.17 26.72 1154.59 2.48"/><rect class="cls-4" x="1203.88" y="2.48" width="173.36" height="48.51" transform="translate(2581.13 53.48) rotate(-180)"/><path class="cls-4" d="M1401.14,51H1357.6l-24.42-24.28L1357.6,2.48h43.54a5.26,5.26,0,0,1,5.25,5.26v38A5.25,5.25,0,0,1,1401.14,51Z" transform="translate(0)"/><text class="cls-5" transform="translate(1149.47 38.93)">Battery Power</text><polygon class="cls-8" points="1323.33 129.71 1372.12 129.71 1396.54 153.94 1372.12 178.22 1323.33 178.22 1298.91 153.94 1323.33 129.71"/><path class="cls-8" d="M1401.14,178.22H1357.6l-24.42-24.28,24.42-24.23h43.54a5.25,5.25,0,0,1,5.25,5.25v38A5.25,5.25,0,0,1,1401.14,178.22Z" transform="translate(0)"/><text class="cls-5" transform="translate(1328.06 166.15)">NC</text><polygon class="cls-8" points="1323.33 193.86 1372.12 193.86 1396.54 218.09 1372.12 242.38 1323.33 242.38 1298.91 218.09 1323.33 193.86"/><path class="cls-8" d="M1401.14,242.38H1357.6l-24.42-24.28,24.42-24.24h43.54a5.25,5.25,0,0,1,5.25,5.25v38A5.26,5.26,0,0,1,1401.14,242.38Z" transform="translate(0)"/><text class="cls-5" transform="translate(1328.06 230.31)">NC</text><polygon class="cls-8" points="1323.33 258.01 1372.12 258.01 1396.54 282.25 1372.12 306.53 1323.33 306.53 1298.91 282.25 1323.33 258.01"/><path class="cls-8" d="M1401.14,306.53H1357.6l-24.42-24.28L1357.6,258h43.54a5.25,5.25,0,0,1,5.25,5.25v38A5.25,5.25,0,0,1,1401.14,306.53Z" transform="translate(0)"/><text class="cls-5" transform="translate(1328.06 294.46)">NC</text><polygon class="cls-8" points="1323.33 322.17 1372.12 322.17 1396.54 346.4 1372.12 370.68 1323.33 370.68 1298.91 346.4 1323.33 322.17"/><path class="cls-8" d="M1401.14,370.68H1357.6l-24.42-24.28,24.42-24.23h43.54a5.25,5.25,0,0,1,5.25,5.25v38A5.25,5.25,0,0,1,1401.14,370.68Z" transform="translate(0)"/><text class="cls-5" transform="translate(1328.06 358.62)">NC</text><polygon class="cls-8" points="1323.33 386.32 1372.12 386.32 1396.54 410.56 1372.12 434.84 1323.33 434.84 1298.91 410.56 1323.33 386.32"/><path class="cls-8" d="M1401.14,434.84H1357.6l-24.42-24.28,24.42-24.24h43.54a5.25,5.25,0,0,1,5.25,5.26v38A5.25,5.25,0,0,1,1401.14,434.84Z" transform="translate(0)"/><text class="cls-5" transform="translate(1328.06 422.77)">NC</text><polygon class="cls-8" points="1323.33 450.48 1372.12 450.48 1396.54 474.71 1372.12 498.99 1323.33 498.99 1298.91 474.71 1323.33 450.48"/><path class="cls-8" d="M1401.14,499H1357.6l-24.42-24.28,24.42-24.23h43.54a5.25,5.25,0,0,1,5.25,5.25v38A5.25,5.25,0,0,1,1401.14,499Z" transform="translate(0)"/><text class="cls-5" transform="translate(1328.06 486.92)">NC</text><polygon class="cls-8" points="1323.33 514.63 1372.12 514.63 1396.54 538.87 1372.12 563.15 1323.33 563.15 1298.91 538.87 1323.33 514.63"/><path class="cls-8" d="M1401.14,563.15H1357.6l-24.42-24.28,24.42-24.24h43.54a5.25,5.25,0,0,1,5.25,5.25v38A5.26,5.26,0,0,1,1401.14,563.15Z" transform="translate(0)"/><text class="cls-5" transform="translate(1328.06 551.08)">NC</text><polygon class="cls-8" points="1323.33 643.3 1372.12 643.3 1396.54 667.54 1372.12 691.82 1323.33 691.82 1298.91 667.54 1323.33 643.3"/><path class="cls-8" d="M1401.14,691.82H1357.6l-24.42-24.28,24.42-24.24h43.54a5.26,5.26,0,0,1,5.25,5.26v38A5.25,5.25,0,0,1,1401.14,691.82Z" transform="translate(0)"/><text class="cls-5" transform="translate(1328.06 679.75)">NC</text><polygon class="cls-8" points="1323.33 707.07 1372.12 707.07 1396.54 731.3 1372.12 755.58 1323.33 755.58 1298.91 731.3 1323.33 707.07"/><path class="cls-8" d="M1401.14,755.58H1357.6l-24.42-24.28,24.42-24.23h43.54a5.25,5.25,0,0,1,5.25,5.25v38A5.25,5.25,0,0,1,1401.14,755.58Z" transform="translate(0)"/><text class="cls-5" transform="translate(1328.06 743.51)">NC</text><polygon class="cls-8" points="1323.33 770.83 1372.12 770.83 1396.54 795.06 1372.12 819.34 1323.33 819.34 1298.91 795.06 1323.33 770.83"/><path class="cls-8" d="M1401.14,819.34H1357.6l-24.42-24.28,24.42-24.23h43.54a5.25,5.25,0,0,1,5.25,5.25v38A5.25,5.25,0,0,1,1401.14,819.34Z" transform="translate(0)"/><text class="cls-5" transform="translate(1328.06 807.28)">NC</text><polygon class="cls-8" points="1323.33 834.59 1372.12 834.59 1396.54 858.82 1372.12 883.11 1323.33 883.11 1298.91 858.82 1323.33 834.59"/><path class="cls-8" d="M1401.14,883.11H1357.6l-24.42-24.29,24.42-24.23h43.54a5.25,5.25,0,0,1,5.25,5.25v38A5.26,5.26,0,0,1,1401.14,883.11Z" transform="translate(0)"/><text class="cls-5" transform="translate(1328.06 871.04)">NC</text><polygon class="cls-8" points="1323.33 961.43 1372.12 961.43 1396.54 985.67 1372.12 1009.95 1323.33 1009.95 1298.91 985.67 1323.33 961.43"/><path class="cls-8" d="M1401.14,1010H1357.6l-24.42-24.28,24.42-24.24h43.54a5.25,5.25,0,0,1,5.25,5.25v38A5.25,5.25,0,0,1,1401.14,1010Z" transform="translate(0)"/><text class="cls-5" transform="translate(1328.06 997.88)">NC</text><polygon class="cls-8" points="1323.33 1024.84 1372.12 1024.84 1396.54 1049.07 1372.12 1073.35 1323.33 1073.35 1298.91 1049.07 1323.33 1024.84"/><path class="cls-8" d="M1401.14,1073.35H1357.6l-24.42-24.28,24.42-24.23h43.54a5.25,5.25,0,0,1,5.25,5.25v38A5.25,5.25,0,0,1,1401.14,1073.35Z" transform="translate(0)"/><text class="cls-5" transform="translate(1328.06 1061.28)">NC</text><polygon class="cls-8" points="1323.33 1087.77 1372.12 1087.77 1396.54 1112.01 1372.12 1136.29 1323.33 1136.29 1298.91 1112.01 1323.33 1087.77"/><path class="cls-8" d="M1401.14,1136.29H1357.6L1333.18,1112l24.42-24.24h43.54a5.25,5.25,0,0,1,5.25,5.26v38A5.25,5.25,0,0,1,1401.14,1136.29Z" transform="translate(0)"/><text class="cls-5" transform="translate(1328.06 1124.22)">NC</text><polygon class="cls-8" points="1323.33 1150.87 1372.12 1150.87 1396.54 1175.1 1372.12 1199.38 1323.33 1199.38 1298.91 1175.1 1323.33 1150.87"/><path class="cls-8" d="M1401.14,1199.38H1357.6l-24.42-24.28,24.42-24.23h43.54a5.25,5.25,0,0,1,5.25,5.25v38A5.25,5.25,0,0,1,1401.14,1199.38Z" transform="translate(0)"/><text class="cls-5" transform="translate(1328.06 1187.32)">NC</text><rect class="cls-10" x="1182.33" y="898.03" width="181.36" height="48.51" transform="translate(2546.03 1844.57) rotate(-180)"/><polygon class="cls-10" points="1157.94 898.03 1206.73 898.03 1231.15 922.26 1206.73 946.54 1157.94 946.54 1133.52 922.26 1157.94 898.03"/><path class="cls-10" d="M1401.14,946.54H1357.6l-24.42-24.28L1357.6,898h43.54a5.25,5.25,0,0,1,5.25,5.25v38A5.25,5.25,0,0,1,1401.14,946.54Z" transform="translate(0)"/><text class="cls-5" transform="translate(1165.23 934.47)">Enable note1</text><path class="cls-6" d="M1299.81,514.12h35.32a6.61,6.61,0,0,1,6.61,6.61V692a0,0,0,0,1,0,0H1293.2a0,0,0,0,1,0,0V520.73A6.61,6.61,0,0,1,1299.81,514.12Z" transform="translate(1920.51 -714.42) rotate(90)"/><polygon class="cls-6" points="1210.77 578.96 1259.57 578.96 1283.99 603.2 1259.57 627.48 1210.77 627.48 1186.35 603.2 1210.77 578.96"/><text class="cls-5" transform="translate(1215.5 615.41)">I2C1_SDA</text><polygon class="cls-7" points="1321.86 65.31 1370.65 65.31 1395.07 89.55 1370.65 113.83 1321.86 113.83 1297.44 89.55 1321.86 65.31"/><path class="cls-7" d="M1400.9,113.83h-43.3l-24.42-24.29,24.42-24.23h43.3a5.49,5.49,0,0,1,5.49,5.5v37.52A5.5,5.5,0,0,1,1400.9,113.83Z" transform="translate(0)"/><text class="cls-5" transform="translate(1317.46 101.76)">GND</text><path class="cls-8" d="M1474.74,307.25h-52.67a7.1,7.1,0,0,1-7.08-7.08v-35.8a7.11,7.11,0,0,1,7.08-7.08h52.67a7.1,7.1,0,0,1,7.08,7.08v35.8A7.09,7.09,0,0,1,1474.74,307.25Z" transform="translate(0)"/><text class="cls-9" transform="translate(1435.22 297.33)">9</text><path class="cls-8" d="M1474.74,371.4h-52.67a7.11,7.11,0,0,1-7.08-7.08V328.51a7.1,7.1,0,0,1,7.08-7.07h52.67a7.09,7.09,0,0,1,7.08,7.07v35.81A7.1,7.1,0,0,1,1474.74,371.4Z" transform="translate(0)"/><text class="cls-9" transform="translate(1422.1 361.48)">11</text><path class="cls-8" d="M1474.74,435.55h-52.67a7.11,7.11,0,0,1-7.08-7.08v-35.8a7.1,7.1,0,0,1,7.08-7.08h52.67a7.09,7.09,0,0,1,7.08,7.08v35.8A7.1,7.1,0,0,1,1474.74,435.55Z" transform="translate(0)"/><text class="cls-9" transform="translate(1422.1 425.63)">13</text><path class="cls-8" d="M1474.74,499.7h-52.67a7.11,7.11,0,0,1-7.08-7.08v-35.8a7.11,7.11,0,0,1,7.08-7.08h52.67a7.1,7.1,0,0,1,7.08,7.08v35.8A7.1,7.1,0,0,1,1474.74,499.7Z" transform="translate(0)"/><text class="cls-9" transform="translate(1422.09 489.79)">15</text><path class="cls-8" d="M1474.74,563.84h-52.67a7.1,7.1,0,0,1-7.08-7.07V521a7.11,7.11,0,0,1,7.08-7.08h52.67a7.1,7.1,0,0,1,7.08,7.08v35.81A7.09,7.09,0,0,1,1474.74,563.84Z" transform="translate(0)"/><text class="cls-9" transform="translate(1422.1 553.94)">17</text><path class="cls-6" d="M1474.74,628h-52.67a7.11,7.11,0,0,1-7.08-7.08V585.12a7.1,7.1,0,0,1,7.08-7.07h52.67a7.09,7.09,0,0,1,7.08,7.07v35.81A7.1,7.1,0,0,1,1474.74,628Z" transform="translate(0)"/><text class="cls-9" transform="translate(1422.1 618.09)">19</text><path class="cls-8" d="M1474.74,692.16h-52.67a7.11,7.11,0,0,1-7.08-7.08v-35.8a7.1,7.1,0,0,1,7.08-7.08h52.67a7.09,7.09,0,0,1,7.08,7.08v35.8A7.1,7.1,0,0,1,1474.74,692.16Z" transform="translate(0)"/><text class="cls-9" transform="translate(1422.1 682.24)">21</text><path class="cls-8" d="M1474.74,756.3h-52.67a7.1,7.1,0,0,1-7.08-7.07V713.42a7.11,7.11,0,0,1,7.08-7.08h52.67a7.1,7.1,0,0,1,7.08,7.08v35.81A7.09,7.09,0,0,1,1474.74,756.3Z" transform="translate(0)"/><text class="cls-9" transform="translate(1422.1 746.39)">23</text><path class="cls-8" d="M1474.74,820.07h-52.67A7.11,7.11,0,0,1,1415,813V777.18a7.1,7.1,0,0,1,7.08-7.07h52.67a7.09,7.09,0,0,1,7.08,7.07V813A7.1,7.1,0,0,1,1474.74,820.07Z" transform="translate(0)"/><text class="cls-9" transform="translate(1422.1 810.15)">25</text><path class="cls-8" d="M1474.74,883.86h-52.67a7.11,7.11,0,0,1-7.08-7.08V841a7.11,7.11,0,0,1,7.08-7.08h52.67a7.1,7.1,0,0,1,7.08,7.08v35.8A7.1,7.1,0,0,1,1474.74,883.86Z" transform="translate(0)"/><text class="cls-9" transform="translate(1422.1 873.95)">27</text><path class="cls-10" d="M1474.74,947.26h-52.67a7.1,7.1,0,0,1-7.08-7.07V904.38a7.1,7.1,0,0,1,7.08-7.07h52.67a7.09,7.09,0,0,1,7.08,7.07v35.81A7.09,7.09,0,0,1,1474.74,947.26Z" transform="translate(0)"/><text class="cls-9" transform="translate(1422.1 937.35)">29</text><path class="cls-8" d="M1474.74,1010.67h-52.67a7.11,7.11,0,0,1-7.08-7.08v-35.8a7.11,7.11,0,0,1,7.08-7.08h52.67a7.1,7.1,0,0,1,7.08,7.08v35.8A7.1,7.1,0,0,1,1474.74,1010.67Z" transform="translate(0)"/><text class="cls-9" transform="translate(1422.1 1000.76)">31</text><path class="cls-8" d="M1474.74,1074.07h-52.67A7.1,7.1,0,0,1,1415,1067v-35.81a7.11,7.11,0,0,1,7.08-7.08h52.67a7.1,7.1,0,0,1,7.08,7.08V1067A7.09,7.09,0,0,1,1474.74,1074.07Z" transform="translate(0)"/><text class="cls-9" transform="translate(1422.1 1064.16)">33</text><path class="cls-8" d="M1474.74,1137.09h-52.67A7.11,7.11,0,0,1,1415,1130v-35.8a7.11,7.11,0,0,1,7.08-7.08h52.67a7.1,7.1,0,0,1,7.08,7.08V1130A7.1,7.1,0,0,1,1474.74,1137.09Z" transform="translate(0)"/><text class="cls-9" transform="translate(1422.1 1127.18)">35</text><path class="cls-8" d="M1474.74,1200.11h-52.67A7.11,7.11,0,0,1,1415,1193v-35.81a7.1,7.1,0,0,1,7.08-7.07h52.67a7.09,7.09,0,0,1,7.08,7.07V1193A7.1,7.1,0,0,1,1474.74,1200.11Z" transform="translate(0)"/><text class="cls-9" transform="translate(1422.1 1190.19)">37</text><path class="cls-7" d="M1474.74,1263.12h-52.67A7.1,7.1,0,0,1,1415,1256v-35.8a7.11,7.11,0,0,1,7.08-7.08h52.67a7.1,7.1,0,0,1,7.08,7.08V1256A7.09,7.09,0,0,1,1474.74,1263.12Z" transform="translate(0)"/><text class="cls-9" transform="translate(1422.1 1253.21)">39</text><path class="cls-4" d="M1474.74,50.64h-52.67a7.1,7.1,0,0,1-7.08-7.07V7.76a7.11,7.11,0,0,1,7.08-7.08h52.67a7.1,7.1,0,0,1,7.08,7.08V43.57A7.09,7.09,0,0,1,1474.74,50.64Z" transform="translate(0)"/><text class="cls-9" transform="translate(1435.27 40.73)">1</text><path class="cls-7" d="M1474.74,114.79h-52.67a7.1,7.1,0,0,1-7.08-7.07V71.91a7.11,7.11,0,0,1,7.08-7.08h52.67a7.1,7.1,0,0,1,7.08,7.08v35.81A7.09,7.09,0,0,1,1474.74,114.79Z" transform="translate(0)"/><text class="cls-9" transform="translate(1435.26 104.88)">3</text><path class="cls-8" d="M1474.74,178.94h-52.67a7.1,7.1,0,0,1-7.08-7.07V136.06a7.1,7.1,0,0,1,7.08-7.07h52.67a7.09,7.09,0,0,1,7.08,7.07v35.81A7.09,7.09,0,0,1,1474.74,178.94Z" transform="translate(0)"/><text class="cls-9" transform="translate(1435.27 169.03)">5</text><path class="cls-8" d="M1474.74,243.1h-52.67A7.11,7.11,0,0,1,1415,236v-35.8a7.1,7.1,0,0,1,7.08-7.08h52.67a7.09,7.09,0,0,1,7.08,7.08V236A7.1,7.1,0,0,1,1474.74,243.1Z" transform="translate(0)"/><text class="cls-9" transform="translate(1435.27 233.18)">7</text><path class="cls-7" d="M1401.68,1262.4h-58.63l-31.71-24.28,31.71-24.24h58.63a4.71,4.71,0,0,1,4.71,4.71v39.1A4.71,4.71,0,0,1,1401.68,1262.4Z" transform="translate(0)"/><polygon class="cls-7" points="1361.51 1213.88 1312.71 1213.88 1288.29 1238.12 1312.71 1262.4 1361.51 1262.4 1385.92 1238.12 1361.51 1213.88"/><text class="cls-5" transform="translate(1309.62 1250.33)">GND</text><path class="cls-8" d="M1581,307.17h-52.67a7.1,7.1,0,0,1-7.08-7.07V264.29a7.11,7.11,0,0,1,7.08-7.08H1581a7.11,7.11,0,0,1,7.08,7.08V300.1A7.1,7.1,0,0,1,1581,307.17Z" transform="translate(0)"/><text class="cls-9" transform="translate(1528.35 297.25)">10</text><path class="cls-8" d="M1581,371.37h-52.67a7.1,7.1,0,0,1-7.08-7.08v-35.8a7.11,7.11,0,0,1,7.08-7.08H1581a7.11,7.11,0,0,1,7.08,7.08v35.8A7.1,7.1,0,0,1,1581,371.37Z" transform="translate(0)"/><text class="cls-9" transform="translate(1528.35 361.46)">12</text><path class="cls-8" d="M1581,435.57h-52.67a7.1,7.1,0,0,1-7.08-7.07V392.69a7.11,7.11,0,0,1,7.08-7.08H1581a7.11,7.11,0,0,1,7.08,7.08V428.5A7.1,7.1,0,0,1,1581,435.57Z" transform="translate(0)"/><text class="cls-9" transform="translate(1528.35 425.66)">14</text><path class="cls-8" d="M1581,499.78h-52.67a7.1,7.1,0,0,1-7.08-7.08V456.9a7.11,7.11,0,0,1,7.08-7.08H1581a7.11,7.11,0,0,1,7.08,7.08v35.8A7.1,7.1,0,0,1,1581,499.78Z" transform="translate(0)"/><text class="cls-9" transform="translate(1528.34 489.87)">16</text><path class="cls-8" d="M1581,564h-52.67a7.11,7.11,0,0,1-7.08-7.08V521.09a7.1,7.1,0,0,1,7.08-7.07H1581a7.1,7.1,0,0,1,7.08,7.07V556.9A7.11,7.11,0,0,1,1581,564Z" transform="translate(0)"/><text class="cls-9" transform="translate(1528.34 554.07)">18</text><path class="cls-6" d="M1581,628.19h-52.67a7.11,7.11,0,0,1-7.08-7.08v-35.8a7.1,7.1,0,0,1,7.08-7.08H1581a7.1,7.1,0,0,1,7.08,7.08v35.8A7.11,7.11,0,0,1,1581,628.19Z" transform="translate(0)"/><text class="cls-9" transform="translate(1528.34 618.27)">20</text><path class="cls-10" d="M1581,692.39h-52.67a7.1,7.1,0,0,1-7.08-7.08v-35.8a7.11,7.11,0,0,1,7.08-7.08H1581a7.11,7.11,0,0,1,7.08,7.08v35.8A7.1,7.1,0,0,1,1581,692.39Z" transform="translate(0)"/><text class="cls-9" transform="translate(1528.35 682.48)">22</text><path class="cls-8" d="M1581,756.59h-52.67a7.1,7.1,0,0,1-7.08-7.08v-35.8a7.11,7.11,0,0,1,7.08-7.08H1581a7.11,7.11,0,0,1,7.08,7.08v35.8A7.1,7.1,0,0,1,1581,756.59Z" transform="translate(0)"/><text class="cls-9" transform="translate(1528.35 746.68)">24</text><path class="cls-4" d="M1581,50.36h-52.67a7.11,7.11,0,0,1-7.08-7.08V7.47A7.1,7.1,0,0,1,1528.32.4H1581a7.1,7.1,0,0,1,7.08,7.07V43.28A7.11,7.11,0,0,1,1581,50.36Z" transform="translate(0)"/><text class="cls-9" transform="translate(1541.52 40.44)">2</text><path class="cls-7" d="M1581,114.56h-52.67a7.11,7.11,0,0,1-7.08-7.08V71.68a7.1,7.1,0,0,1,7.08-7.08H1581a7.1,7.1,0,0,1,7.08,7.08v35.8A7.11,7.11,0,0,1,1581,114.56Z" transform="translate(0)"/><text class="cls-9" transform="translate(1541.51 104.64)">4</text><path class="cls-4" d="M1581,178.76h-52.67a7.1,7.1,0,0,1-7.08-7.08v-35.8a7.11,7.11,0,0,1,7.08-7.08H1581a7.11,7.11,0,0,1,7.08,7.08v35.8A7.1,7.1,0,0,1,1581,178.76Z" transform="translate(0)"/><text class="cls-9" transform="translate(1541.52 168.85)">6</text><path class="cls-8" d="M1581,243h-52.67a7.11,7.11,0,0,1-7.08-7.08V200.08a7.1,7.1,0,0,1,7.08-7.07H1581a7.1,7.1,0,0,1,7.08,7.07v35.81A7.11,7.11,0,0,1,1581,243Z" transform="translate(0)"/><text class="cls-9" transform="translate(1541.52 233.05)">8</text><g class="cls-11"><g class="cls-12"><path class="cls-13" d="M1103.86,1077.68H0V283.74H1103.86ZM1045,500.24a26.37,26.37,0,1,0-26.37-26.36A26.36,26.36,0,0,0,1045,500.24m-160.8,549.59a26.26,26.26,0,1,0-26.26-26.26,26.26,26.26,0,0,0,26.26,26.26M694.74,374.5a26.37,26.37,0,1,0-26.37-26.36,26.36,26.36,0,0,0,26.37,26.36M157.53,1064.93a48.19,48.19,0,1,0-48.18-48.19,48.19,48.19,0,0,0,48.18,48.19m0-663.85a48.19,48.19,0,1,0-48.18-48.19,48.19,48.19,0,0,0,48.18,48.19" transform="translate(0)"/></g><g class="cls-14"><path class="cls-15" d="M884.18,980.43a43.21,43.21,0,1,1-43.2,43.2,43.21,43.21,0,0,1,43.2-43.2m0,69.48a26.27,26.27,0,1,0-26.27-26.28,26.27,26.27,0,0,0,26.27,26.28" transform="translate(0)"/></g><g class="cls-16"><path class="cls-15" d="M1045,430.67a43.21,43.21,0,1,1-43.21,43.2,43.2,43.2,0,0,1,43.21-43.2m0,69.48a26.27,26.27,0,1,0-26.28-26.28A26.27,26.27,0,0,0,1045,500.15" transform="translate(0)"/></g><g class="cls-17"><path class="cls-15" d="M694.74,304.94a43.2,43.2,0,1,1-43.21,43.2,43.2,43.2,0,0,1,43.21-43.2m0,69.47a26.27,26.27,0,1,0-26.27-26.27,26.27,26.27,0,0,0,26.27,26.27" transform="translate(0)"/></g><g class="cls-12"><path class="cls-15" d="M80,353.82A77.54,77.54,0,0,1,123.77,284H191.3a77.56,77.56,0,0,1,43.78,69.8v.06a77.54,77.54,0,0,1-77.52,77.52h-.05A77.55,77.55,0,0,1,80,353.82M157.53,401a47.16,47.16,0,1,0-47.15-47.16A47.16,47.16,0,0,0,157.53,401" transform="translate(0)"/><path class="cls-15" d="M204.86,1077.68H110.21a77.07,77.07,0,1,1,124.4-60.84v0a77,77,0,0,1-29.75,60.8M157.53,970a46.87,46.87,0,1,0,46.88,46.87A46.87,46.87,0,0,0,157.53,970" transform="translate(0)"/><path class="cls-2" d="M639.29,820.56a12.87,12.87,0,0,1,1,4.59c.08,2.05.21,8.25.25,10.05,2.06-.11,4.73-.24,6.52-.24s7.69-.11,16.35-.31h.56c2.23,0,7.5-.87,8.19-7.41.61-5.73-2.53-7.12-2.67-7.17-1.23-.82-6.64-2.27-12.79-2.27-.69,0-1.39,0-2.11.05a82.49,82.49,0,0,0-15.27,2.72" transform="translate(0)"/><path class="cls-2" d="M629.55,814a13,13,0,0,1,3.47.89,13.34,13.34,0,0,1,4.29,2.59,79.35,79.35,0,0,1,16.4-3.15c1.06-.08,2.16-.12,3.25-.12a40.75,40.75,0,0,1,11.55,1.57,19.18,19.18,0,0,0,1.8-1.62,8.64,8.64,0,0,0,2.16-4.28,9.2,9.2,0,0,0-.93-6.65c-1-1.88-3.56-2.84-7.65-2.84-.56,0-1.17,0-1.85-.05s-1.71-.07-2.72-.07a39.8,39.8,0,0,0-13.94,2.59c-6.67,2.38-12.94,8.18-15.83,11.14" transform="translate(0)"/><path class="cls-2" d="M610.1,813.69a14.6,14.6,0,0,1,5.56,1,14,14,0,0,1,4,3.12,11.55,11.55,0,0,1,1.36-1.56,9.61,9.61,0,0,1,3.16-1.83c1.39-1.54,4-4.4,6.71-6.85A46.08,46.08,0,0,1,648.09,798a40.82,40.82,0,0,1,12.28-1.61,59.53,59.53,0,0,1,6.29.32c1-.75,4.57-3.71,4.52-7.63-.1-6.27-2.39-7.73-12.92-8.25-11.14-.6-23.39,3.83-33.61,12.05-8.1,6.53-13,17-14.55,20.85" transform="translate(0)"/><path class="cls-2" d="M654.84,838.38c.1,1.78.25,4.65.25,6.52,0,2.5.19,11.35.27,15.13l0,1.78c.06,2.23.89,7.51,7.42,8.19a10.8,10.8,0,0,0,1.39.08c4.62,0,5.76-2.71,5.77-2.74.79-1.2,2.6-7.46,2.22-14.9a82.3,82.3,0,0,0-2.72-15.28,12.88,12.88,0,0,1-4.6,1c-.83,0-3.26.11-10,.25" transform="translate(0)"/><path class="cls-2" d="M674.31,866.38a15.89,15.89,0,0,0,1.62,1.8,8.58,8.58,0,0,0,4.27,2.17,11.29,11.29,0,0,0,2.22.24,9.43,9.43,0,0,0,4.43-1.16c1.89-1,2.85-3.58,2.85-7.67,0-.5,0-1,0-1.65l0-.2a40.21,40.21,0,0,0-2.52-16.67c-2.39-6.66-8.19-12.92-11.15-15.82a12.41,12.41,0,0,1-.89,3.47,13.06,13.06,0,0,1-2.59,4.3,79.25,79.25,0,0,1,3.16,16.38,42.93,42.93,0,0,1-1.45,14.81" transform="translate(0)"/><path class="cls-2" d="M693.38,864.53c.89,1.21,3.69,4.51,7.52,4.51,6.35-.09,7.84-2.38,8.36-12.91.55-11.15-3.85-23.39-12.07-33.61-6.52-8.11-17-13-20.84-14.55a14.52,14.52,0,0,1-1,5.56,13.82,13.82,0,0,1-3.13,4,11.55,11.55,0,0,1,1.56,1.36,9.69,9.69,0,0,1,1.84,3.16c1.25,1.13,4.28,3.9,6.84,6.71A46.24,46.24,0,0,1,692.09,846c2.29,7.19,1.52,16.41,1.29,18.57" transform="translate(0)"/><path class="cls-2" d="M651.75,852.84c-1.56.08-4.57.24-6.51.24s-7.22.1-16,.3l-.88,0c-2.22.05-7.49.87-8.18,7.42-.61,5.7,2.52,7.1,2.66,7.16,1.45,1,8,2.59,14.9,2.21A83.42,83.42,0,0,0,653,867.48a12.88,12.88,0,0,1-1-4.6c-.06-1.34-.14-4.7-.26-10Z" transform="translate(0)"/><path class="cls-2" d="M623.76,872.3a16.71,16.71,0,0,0-1.8,1.62,8.66,8.66,0,0,0-2.17,4.27,9.26,9.26,0,0,0,.93,6.65c1,1.89,3.57,2.85,7.66,2.85.53,0,1.12,0,1.77,0,.9,0,1.79.07,2.79.07a40,40,0,0,0,14-2.59c6.64-2.38,12.92-8.18,15.82-11.14a12.66,12.66,0,0,1-3.48-.89A13.33,13.33,0,0,1,655,870.6a79.23,79.23,0,0,1-16.38,3.15c-1.07.08-2.17.12-3.27.12a41.34,41.34,0,0,1-11.54-1.57" transform="translate(0)"/><path class="cls-2" d="M625.6,891.38c-1,.75-4.56,3.69-4.51,7.62.1,6.27,2.39,7.73,12.91,8.25.62,0,1.23,0,1.85,0,10.66,0,22.13-4.35,31.76-12.11,8.13-6.53,13-17,14.56-20.84a14.53,14.53,0,0,1-5.57-1,14.05,14.05,0,0,1-4-3.12,13.57,13.57,0,0,1-1.36,1.56,9.88,9.88,0,0,1-3.16,1.83c-.91,1-3.77,4.17-6.72,6.85a46.08,46.08,0,0,1-17.15,9.64,40.82,40.82,0,0,1-12.28,1.61c-3,0-5.42-.22-6.3-.31" transform="translate(0)"/><path class="cls-2" d="M628,818.05c-4.57,0-5.73,2.64-5.77,2.75-.79,1.19-2.6,7.45-2.22,14.89A82,82,0,0,0,622.7,851a12.93,12.93,0,0,1,4.6-1c1,0,3.51-.12,10-.25-.08-1.45-.24-4.55-.24-6.52s-.11-7.49-.31-16.34v-.58c0-2.22-.89-7.49-7.42-8.18a13,13,0,0,0-1.39-.08" transform="translate(0)"/><path class="cls-2" d="M609.75,817.54a9.25,9.25,0,0,0-4.41,1.17c-1.89,1-2.86,3.58-2.86,7.67,0,.55,0,1.16-.05,1.84A40.13,40.13,0,0,0,605,844.89c2.37,6.64,8.18,12.92,11.14,15.82a12.77,12.77,0,0,1,.89-3.47,13.17,13.17,0,0,1,2.59-4.3,78.6,78.6,0,0,1-3.16-16.38,43,43,0,0,1,1.46-14.8,17.15,17.15,0,0,0-1.63-1.81,8.53,8.53,0,0,0-4.26-2.16,10.74,10.74,0,0,0-2.24-.25" transform="translate(0)"/><path class="cls-2" d="M591.17,819.09c-6.26.09-7.72,2.39-8.25,12.91-.54,11.15,3.85,23.4,12.06,33.61,6.52,8.1,17,13,20.85,14.55a14.84,14.84,0,0,1,1-5.56,14.3,14.3,0,0,1,3.13-4,11.43,11.43,0,0,1-1.56-1.36,9.88,9.88,0,0,1-1.83-3.16c-1.26-1.13-4.29-3.9-6.85-6.72a46.26,46.26,0,0,1-9.65-17.15c-2.29-7.17-1.51-16.41-1.28-18.57-.89-1.21-3.68-4.51-7.53-4.51Z" transform="translate(0)"/><path class="cls-2" d="M810,793.54a32.54,32.54,0,0,1,12.23,2.19,28.33,28.33,0,0,1,9.33,6,26.19,26.19,0,0,1,5.94,8.84,28.47,28.47,0,0,1,2,10.82,30.36,30.36,0,0,1-3.75,15.41q-3.75,6.5-12.23,9.89V847a17.11,17.11,0,0,1,6.79,3.47,19.12,19.12,0,0,1,4.38,5.51,26,26,0,0,1,2.48,7,62.46,62.46,0,0,1,1.06,7.63c.09,1.61.18,3.49.28,5.66s.26,4.38.5,6.65a45.07,45.07,0,0,0,1.12,6.43,14.94,14.94,0,0,0,2.34,5.16h-22.2A39.25,39.25,0,0,1,818,883q-.42-6.64-1.27-12.73-1.14-7.92-4.81-11.59t-12-3.68H777.72v39.45h-22.2v-101ZM802,839.21q7.63,0,11.46-3.39t3.81-11q0-7.35-3.81-10.68T802,810.79H777.72v28.42Z" transform="translate(0)"/><path class="cls-2" d="M905.44,793.54l37.75,101H920.14L912.51,872H874.76l-7.92,22.48H844.51l38.17-101Zm1.27,61.93-12.72-37h-.28l-13.15,37Z" transform="translate(0)"/><polygon class="cls-2" points="970.17 793.54 970.17 835.39 1009.62 793.54 1037.33 793.54 997.88 833.41 1041.15 894.49 1013.3 894.49 982.9 849.11 970.17 861.97 970.17 894.49 947.98 894.49 947.98 793.54 970.17 793.54"/><path class="cls-2" d="M1071.34,806.75a13.57,13.57,0,1,1-13.52-13.21,13.26,13.26,0,0,1,13.52,13.21m-23.75,0a10.22,10.22,0,0,0,10.3,10.54c5.8,0,10.07-4.66,10.07-10.46s-4.27-10.63-10.14-10.63a10.26,10.26,0,0,0-10.23,10.55m8.13,6.92h-3.06v-13.2a26.93,26.93,0,0,1,5.07-.4,8.25,8.25,0,0,1,4.59,1,3.64,3.64,0,0,1,1.29,2.9,3.38,3.38,0,0,1-2.74,3.06v.16c1.29.48,2,1.45,2.42,3.22a9.77,9.77,0,0,0,1,3.3H1061a11.31,11.31,0,0,1-1-3.22c-.24-1.45-1.05-2.09-2.74-2.09h-1.45Zm.08-7.49h1.45c1.69,0,3.06-.56,3.06-1.93,0-1.2-.88-2-2.82-2a7.39,7.39,0,0,0-1.69.16Z" transform="translate(0)"/><polygon class="cls-2" points="621.77 933.37 617.28 949.75 617.2 949.75 613.22 933.37 608.3 933.37 604.16 949.75 604.07 949.75 599.75 933.37 594.58 933.37 601.42 955.31 606.55 955.31 610.61 939.02 610.7 939.02 614.8 955.31 619.81 955.31 626.73 933.37 621.77 933.37"/><polygon class="cls-2" points="653.93 933.37 649.44 949.75 649.36 949.75 645.38 933.37 640.46 933.37 636.31 949.75 636.23 949.75 631.91 933.37 626.73 933.37 633.58 955.31 638.71 955.31 642.77 939.02 642.85 939.02 646.96 955.31 651.96 955.31 658.89 933.37 653.93 933.37"/><polygon class="cls-2" points="686.57 933.37 682.08 949.75 681.99 949.75 678.01 933.37 673.1 933.37 668.95 949.75 668.86 949.75 664.54 933.37 659.37 933.37 666.21 955.31 671.34 955.31 675.4 939.02 675.49 939.02 679.6 955.31 684.6 955.31 691.52 933.37 686.57 933.37"/><rect class="cls-2" x="691.03" y="949.58" width="5.94" height="5.73"/><path class="cls-2" d="M704.12,920.44h19.5c6.48,0,10.58,4.47,10.58,9.9,0,4.22-1.67,7.38-5.72,9v.1c3.9,1.06,5,4.72,5.26,8.39.15,2.26,0,6.53,1.52,8.49h-8c-.91-2.26-.86-5.72-1.26-8.59-.56-3.77-2-5.42-6-5.42h-7.95v14h-8Zm8,16.23h8.71c3.6,0,5.47-1.51,5.47-5.13,0-3.46-1.87-5-5.47-5h-8.71Z" transform="translate(0)"/><path class="cls-2" d="M751.4,920.44h8.15l13.52,35.87h-8.25l-2.73-8H748.57l-2.84,8h-8.05Zm-.76,22H760l-4.56-13.17h-.1Z" transform="translate(0)"/><polygon class="cls-2" points="775.95 920.44 783.9 920.44 783.9 935.31 798.03 920.44 807.95 920.44 793.83 934.61 809.32 956.31 799.34 956.31 788.46 940.18 783.9 944.76 783.9 956.31 775.95 956.31 775.95 920.44"/><polygon class="cls-2" points="810.19 929.15 816.05 929.15 820.93 947.69 821.03 947.69 825.72 929.15 831.28 929.15 835.78 947.69 835.88 947.69 840.96 929.15 846.57 929.15 838.74 953.97 833.08 953.97 828.43 935.54 828.34 935.54 823.74 953.97 817.93 953.97 810.19 929.15"/><path class="cls-2" d="M851.22,919.7h5.52v5.18h-5.52Zm0,9.45h5.52V954h-5.52Z" transform="translate(0)"/><path class="cls-2" d="M862.21,929.15h5.17V934h.1c.63-2.64,4-5.47,7.31-5.47a14.44,14.44,0,0,1,2.07.14v5.28a13.48,13.48,0,0,0-2.36-.23c-3.73,0-6.78,3-6.78,8.49V954h-5.51Z" transform="translate(0)"/><path class="cls-2" d="M883.58,943c0,3.89,2.13,7.35,6.73,7.35,3.24,0,5.13-1.4,6.09-4.14h5.23c-1.16,5.43-5.91,8.46-11.32,8.46-7.89,0-12.24-5.38-12.24-13.06,0-7.06,4.64-13.11,12.09-13.11,7.89,0,12.73,7.06,11.81,14.5Zm12.87-3.6c-.24-3.46-2.51-6.58-6.29-6.58a6.52,6.52,0,0,0-6.58,6.58Z" transform="translate(0)"/><rect class="cls-2" x="905.65" y="919.7" width="5.51" height="34.28"/><path class="cls-2" d="M921.23,943c0,3.89,2.12,7.35,6.72,7.35,3.24,0,5.13-1.4,6.1-4.14h5.22c-1.16,5.43-5.9,8.46-11.32,8.46-7.89,0-12.24-5.38-12.24-13.06,0-7.06,4.64-13.11,12.09-13.11,7.89,0,12.73,7.06,11.81,14.5Zm12.86-3.6c-.24-3.46-2.51-6.58-6.29-6.58a6.5,6.5,0,0,0-6.57,6.58Z" transform="translate(0)"/><path class="cls-2" d="M949.78,946c.34,3.22,2.71,4.32,5.67,4.32,2.12,0,5.71-.43,5.56-3.26s-4.16-3.21-8.18-4.13-8-2.3-8-7.34c0-5.43,5.9-7.11,10.45-7.11,5.13,0,9.82,2.07,10.45,7.63h-5.76c-.53-2.64-2.61-3.31-5.08-3.31-1.59,0-4.54.39-4.54,2.54,0,2.7,4.06,3.13,8.13,4s8.08,2.35,8.08,7.25c0,5.91-6,8.07-11.18,8.07-6.34,0-10.93-2.79-11.08-8.65Z" transform="translate(0)"/><path class="cls-2" d="M974.8,946c.33,3.22,2.71,4.32,5.66,4.32,2.13,0,5.71-.43,5.56-3.26s-4.16-3.21-8.17-4.13-8-2.3-8-7.34c0-5.43,5.91-7.11,10.45-7.11,5.13,0,9.82,2.07,10.45,7.63H985c-.54-2.64-2.62-3.31-5.08-3.31-1.6,0-4.55.39-4.55,2.54,0,2.7,4.06,3.13,8.13,4s8.08,2.35,8.08,7.25c0,5.91-6,8.07-11.18,8.07-6.34,0-10.93-2.79-11.08-8.65Z" transform="translate(0)"/><rect class="cls-2" x="994.56" y="948.16" width="6.72" height="6.48"/><path class="cls-2" d="M1019.9,939c-.39-2.71-2.31-4.11-5-4.11-2.52,0-6.07,1.36-6.07,8,0,3.65,1.62,7.51,5.86,7.51,2.86,0,4.79-1.83,5.26-5h4.87c-.9,5.73-4.45,8.82-10.13,8.82-6.93,0-10.74-4.87-10.74-11.32,0-6.62,3.64-11.8,10.91-11.8,5.13,0,9.49,2.55,10,7.93Z" transform="translate(0)"/><path class="cls-2" d="M1027.63,942.57c0-6.66,4.11-11.54,11.16-11.54s11.16,4.88,11.16,11.54-4.1,11.59-11.16,11.59-11.16-4.84-11.16-11.59m17.45,0c0-3.78-1.93-7.72-6.29-7.72s-6.28,3.94-6.28,7.72,1.92,7.77,6.28,7.77,6.29-4,6.29-7.77" transform="translate(0)"/><path class="cls-2" d="M1053.93,931.62h4.61v3.06h.13a7.4,7.4,0,0,1,6.8-3.65c2.69,0,5.22,1.15,6.2,3.65a8,8,0,0,1,6.93-3.65c4.66,0,7.4,2.08,7.4,7.38v15.15h-4.88V940.75c0-3.53-.21-5.9-4-5.9-3.29,0-4.7,2.12-4.7,5.86v12.85h-4.88V939.47c0-3.05-.94-4.62-3.89-4.62-2.52,0-4.83,2.08-4.83,5.68v13h-4.87Z" transform="translate(0)"/><path class="cls-18" d="M186.5,602.62A39.54,39.54,0,1,1,147,563.08a39.54,39.54,0,0,1,39.54,39.54" transform="translate(0)"/><path class="cls-19" d="M184.25,600a35.6,35.6,0,1,1-35.59-35.6A35.59,35.59,0,0,1,184.25,600" transform="translate(0)"/><path class="cls-20" d="M154.87,602.62a7.92,7.92,0,1,1-7.91-7.91,7.91,7.91,0,0,1,7.91,7.91" transform="translate(0)"/><path class="cls-2" d="M153.92,601.93a6.59,6.59,0,1,1-6.58-6.59,6.59,6.59,0,0,1,6.58,6.59" transform="translate(0)"/><path class="cls-18" d="M343.16,493.6a39.54,39.54,0,1,1-39.54-39.54,39.53,39.53,0,0,1,39.54,39.54" transform="translate(0)"/><path class="cls-19" d="M340.92,491a35.6,35.6,0,1,1-35.6-35.6,35.6,35.6,0,0,1,35.6,35.6" transform="translate(0)"/><path class="cls-20" d="M311.53,493.6a7.91,7.91,0,1,1-7.91-7.92,7.91,7.91,0,0,1,7.91,7.92" transform="translate(0)"/><path class="cls-2" d="M310.59,492.91a6.59,6.59,0,1,1-6.59-6.59,6.59,6.59,0,0,1,6.59,6.59" transform="translate(0)"/><path class="cls-18" d="M497.57,619.54A39.54,39.54,0,1,1,458,580a39.54,39.54,0,0,1,39.54,39.53" transform="translate(0)"/><path class="cls-19" d="M495.33,616.9a35.6,35.6,0,1,1-35.6-35.6,35.59,35.59,0,0,1,35.6,35.6" transform="translate(0)"/><path class="cls-20" d="M466,619.54a7.92,7.92,0,1,1-7.91-7.91,7.92,7.92,0,0,1,7.91,7.91" transform="translate(0)"/><path class="cls-2" d="M465,618.86a6.59,6.59,0,1,1-6.59-6.59,6.59,6.59,0,0,1,6.59,6.59" transform="translate(0)"/><path class="cls-18" d="M655.43,507.5A39.54,39.54,0,1,1,615.89,468a39.54,39.54,0,0,1,39.54,39.54" transform="translate(0)"/><path class="cls-19" d="M653.18,504.85a35.6,35.6,0,1,1-35.59-35.59,35.59,35.59,0,0,1,35.59,35.59" transform="translate(0)"/><path class="cls-20" d="M623.8,507.5a7.92,7.92,0,1,1-7.91-7.91,7.91,7.91,0,0,1,7.91,7.91" transform="translate(0)"/><path class="cls-2" d="M622.85,506.81a6.59,6.59,0,1,1-6.59-6.59,6.59,6.59,0,0,1,6.59,6.59" transform="translate(0)"/><path class="cls-18" d="M342.67,713.38a39.54,39.54,0,1,1-39.54-39.54,39.53,39.53,0,0,1,39.54,39.54" transform="translate(0)"/><path class="cls-19" d="M340.43,710.73a35.6,35.6,0,1,1-35.6-35.6,35.59,35.59,0,0,1,35.6,35.6" transform="translate(0)"/><path class="cls-20" d="M311,713.38a7.92,7.92,0,1,1-7.91-7.92,7.91,7.91,0,0,1,7.91,7.92" transform="translate(0)"/><path class="cls-2" d="M310.09,712.69a6.59,6.59,0,1,1-6.58-6.59,6.59,6.59,0,0,1,6.58,6.59" transform="translate(0)"/><path class="cls-18" d="M180.28,825a39.54,39.54,0,1,1-39.54-39.54A39.54,39.54,0,0,1,180.28,825" transform="translate(0)"/><path class="cls-19" d="M178,822.35a35.6,35.6,0,1,1-35.59-35.6A35.6,35.6,0,0,1,178,822.35" transform="translate(0)"/><path class="cls-20" d="M148.66,825a7.92,7.92,0,1,1-7.91-7.91,7.91,7.91,0,0,1,7.91,7.91" transform="translate(0)"/><path class="cls-2" d="M147.71,824.31a6.59,6.59,0,1,1-6.59-6.59,6.59,6.59,0,0,1,6.59,6.59" transform="translate(0)"/><path class="cls-18" d="M495.33,844a39.54,39.54,0,1,1-39.54-39.54A39.53,39.53,0,0,1,495.33,844" transform="translate(0)"/><path class="cls-19" d="M493.09,841.37a35.6,35.6,0,1,1-35.6-35.6,35.59,35.59,0,0,1,35.6,35.6" transform="translate(0)"/><path class="cls-20" d="M463.71,844a7.92,7.92,0,1,1-7.92-7.92,7.91,7.91,0,0,1,7.92,7.92" transform="translate(0)"/><path class="cls-2" d="M462.76,843.33a6.59,6.59,0,1,1-6.59-6.59,6.59,6.59,0,0,1,6.59,6.59" transform="translate(0)"/><path class="cls-18" d="M655.05,731.43a39.54,39.54,0,1,1-39.54-39.53,39.54,39.54,0,0,1,39.54,39.53" transform="translate(0)"/><path class="cls-19" d="M652.81,728.79a35.6,35.6,0,1,1-35.6-35.6,35.59,35.59,0,0,1,35.6,35.6" transform="translate(0)"/><path class="cls-20" d="M623.42,731.43a7.91,7.91,0,1,1-7.91-7.91,7.92,7.92,0,0,1,7.91,7.91" transform="translate(0)"/><path class="cls-2" d="M622.48,730.75a6.59,6.59,0,1,1-6.59-6.59,6.59,6.59,0,0,1,6.59,6.59" transform="translate(0)"/></g><text class="cls-21" transform="translate(364.79 1044.01)">RA</text><text class="cls-21" transform="translate(434.71 1044.01)"><tspan class="cls-22">K5</tspan><tspan x="78.83" y="0">8</tspan></text><text class="cls-21" transform="translate(550.05 1044.01)"><tspan class="cls-23">0</tspan><tspan x="31.21" y="0">1</tspan></text><text class="cls-21" transform="translate(658.26 1044.01)">V</text><text class="cls-21" transform="translate(692.4 1044.01)"><tspan class="cls-24">3</tspan><tspan class="cls-25" x="30.21" y="0" xml:space="preserve"> . </tspan><tspan x="76.95" y="0">0</tspan></text><path class="cls-2" d="M792,530.79,883.7,719.27H700.29Zm0-10.28L693.1,723.76H890.88Z" transform="translate(0)"/><rect class="cls-2" x="805.35" y="576.98" width="4.5" height="130.2" transform="matrix(0.49, -0.87, 0.87, 0.49, -149.04, 1028.52)"/><rect class="cls-2" x="807.01" y="582.44" width="4.5" height="144.04" transform="translate(-158.97 1036.24) rotate(-60.48)"/><path class="cls-2" d="M765.84,618.37l-4-2.1c.3-.56,7.35-13.91,13.11-22,6.08-8.5,39.21-15.73,43-16.53l.93,4.4c-13.53,2.87-36.43,9.41-40.24,14.75-5.58,7.81-12.73,21.32-12.8,21.46" transform="translate(0)"/><path class="cls-2" d="M822.82,652l-2.26-3.89c4.64-2.69,9-8.79,8.36-15.23-.8-8.09,3.21-20.2,3.39-20.71l4.26,1.43c0,.11-3.88,11.71-3.17,18.84.86,8.72-4.88,16.25-10.58,19.56" transform="translate(0)"/><path class="cls-2" d="M774.82,676a15,15,0,0,1-1.73-.11c-9.35-1.17-21.21-30.57-21.33-30.87-4.34-10.87,5.4-20.21,5.82-20.6l3.09,3.27c-.08.08-7.93,7.66-4.73,15.66,5.14,12.85,13.8,27.59,17.71,28.08,2.09.25,3.32-.16,3.61-.68s-.07-2.3-1.81-4.49c-4.66-5.81-10.16-18.77-9.67-22.73.43-3.38,4.26-9.72,5-11l3.83,2.36c-1.69,2.73-4.17,7.38-4.39,9.15-.25,2.14,4.24,13.77,8.71,19.37,3.87,4.83,3.06,8,2.23,9.49-1.1,2-3.38,3.06-6.36,3.06" transform="translate(0)"/><path class="cls-2" d="M792.41,685a5.84,5.84,0,0,1-2.74-.63c-1.62-.86-3.44-2.92-2.84-7.85,1.21-10.1,14.25-26.09,14.8-26.77l3.48,2.85c-3.55,4.33-12.94,17.15-13.81,24.45-.25,2,.06,3.12.46,3.34,1.15.6,5-.91,8.25-3.76,3.73-3.28,11.72-15.05,14.48-19.31l3.78,2.44c-.42.65-10.33,15.88-15.29,20.25-2.4,2.1-6.79,5-10.57,5" transform="translate(0)"/><path class="cls-2" d="M791,668.74c-6.07,0-16.36-6.13-18.52-7.46l2.36-3.83c7.29,4.49,15.34,7.68,16.86,6.69a3.77,3.77,0,0,0,.39-3.19c-.82-2.63-4.25-5.46-9.4-7.77-4-1.8-6.49-4.16-7.35-7-1.21-4,1.14-7.72,2.39-9.71l3.8,2.4c-1.21,1.92-2.45,4.12-1.88,6,.46,1.53,2.11,2.94,4.89,4.19,6.51,2.92,10.61,6.56,11.84,10.53a8.25,8.25,0,0,1-.89,6.93,4.55,4.55,0,0,1-2.9,2,7.26,7.26,0,0,1-1.59.16" transform="translate(0)"/><rect class="cls-2" x="783.42" y="541.02" width="18.07" height="4.5"/><rect class="cls-2" x="778.07" y="552.02" width="27.84" height="4.5"/><rect class="cls-2" x="772.72" y="563.02" width="38.55" height="4.5"/><rect class="cls-2" x="767.37" y="574.01" width="49.25" height="4.5"/><rect class="cls-2" x="762.94" y="585.01" width="29.18" height="4.5"/><rect class="cls-2" x="756.67" y="596.01" width="18.33" height="4.5"/><rect class="cls-2" x="752.31" y="607" width="15.57" height="4.5"/><rect class="cls-2" x="740.62" y="628.99" width="14.61" height="4.5"/><rect class="cls-2" x="831.69" y="628.99" width="11.68" height="4.5"/><rect class="cls-2" x="735.27" y="639.99" width="18.59" height="4.5"/><rect class="cls-2" x="829.7" y="639.99" width="18.59" height="4.5"/><rect class="cls-2" x="730.94" y="650.99" width="26.96" height="4.5"/><rect class="cls-2" x="827.3" y="650.99" width="26.77" height="4.5"/><rect class="cls-2" x="724.48" y="661.99" width="39.51" height="4.5"/><rect class="cls-2" x="812.53" y="661.99" width="14.14" height="4.5"/><rect class="cls-2" x="846.72" y="661.99" width="12.02" height="4.5"/><rect class="cls-2" x="719.22" y="672.99" width="69.75" height="4.5"/><rect class="cls-2" x="804.35" y="672.99" width="42.41" height="4.5"/><rect class="cls-2" x="715.58" y="683.98" width="149.27" height="4.5"/><rect class="cls-2" x="708.51" y="694.98" width="166.96" height="4.5"/><rect class="cls-2" x="702.67" y="705.98" width="177.97" height="4.5"/><path class="cls-2" d="M1034.06,706.72a5.43,5.43,0,0,0-.71,0,7,7,0,0,0-7,7,6.52,6.52,0,0,0,.13,1.33,7,7,0,0,0,12.53,2.78,7,7,0,0,0-4.94-11.06m-.71,8.58a1.57,1.57,0,0,1-.94-.3,1.63,1.63,0,0,1,.94-3,.63.63,0,0,1,.23,0,1.59,1.59,0,0,1,1.39,1.6,1.63,1.63,0,0,1-1.62,1.63" transform="translate(0)"/><path class="cls-2" d="M1041.08,694.67c.14-1.5.27-3,.41-4.47l29.85,31.18v-6.9l-29.27-30.56c1.08-11.92,2.18-23.8,3.26-35.53,1.57-17.1,3.19-34.3,4.8-51.45h15V575h-6l12.24-12.78v-6.91l-12,12.54-6.84,7.15-.31.32a2.91,2.91,0,0,1,0-.32c.22-2.4.46-4.77.68-7.15h6.44v-3.5a8.42,8.42,0,1,0-9.69-12.91,45.55,45.55,0,0,0-10-5.57,101,101,0,0,0-20.9-5v-4.75H987.09V540a125.12,125.12,0,0,0-16.86,2.24v-2.68h-13.8v6.6a43.48,43.48,0,0,0-12.75,8.2,2.87,2.87,0,0,0-.83,2.34c.06.7.12,1.37.19,2.06h-7.79v9.09h8.66c.48,5,1,10,1.44,15.1l-16-16.74v6.91l16.77,17.5c1.81,19.25,3.62,38.58,5.4,57.8q1.35,14.5,2.68,29.24l-24.85,26v6.9l25.42-26.55c1,11.41,2.08,22.87,3.11,34.3a3,3,0,0,0,2.94,2.68V735.6h12.09V720.91h41.28a20.51,20.51,0,1,0,26.93-26.24m15.32-142a3.75,3.75,0,0,1,3.74,3.74,3.63,3.63,0,0,1-.81,2.31h-5.57c.07-.69.13-1.36.2-2.06a2.89,2.89,0,0,0-.75-2.22,3.75,3.75,0,0,1,3.19-1.77M1051.46,583l2.82-2.94h5.46v11.9h-9.14q.42-4.49.86-9m-12,64.89q-1.38,15.09-2.8,30.42l-38.23-39.92,23.43-24.46h5.75v-6l16.25-17v6h.35c-1.6,17-3.19,34-4.75,50.9m-19.4-39h-29v-4.3h31.11v2.07Zm-27.57-67.67h20.87v4.31H992.47Zm-22.24,7.09a117.19,117.19,0,0,1,16.86-2.35v4.61h31.65v-3.66a94,94,0,0,1,18.86,4.53,39.71,39.71,0,0,1,10.35,6.17q-.08.59-.12,1.17h-77.6Zm-8.39-3.68h3v9.11h-3Zm-13,13a41.68,41.68,0,0,1,7.57-4.95v6.12H949c0-.39-.07-.78-.11-1.17m1,10.26H1047c-.23,2.38-.45,4.76-.69,7.15h-2.43v9l-16.25,17v-1.49H985.67v14.4h29.55l-20.12,21-43.19-45.11q-1-11-2.08-22m7.52,80c-1.55-16.76-3.13-33.6-4.72-50.4l39.17,40.9L959.57,672q-1.11-12.16-2.22-24.16m10.78,83.8h-2.61v-7.17h2.61Zm44.71-18c0,.44,0,.89,0,1.33H963.48c-1.1-12.24-2.21-24.51-3.34-36.71l35-36.51,41,42.77c-.27,2.9-.53,5.8-.8,8.7-.63-.06-1.27-.08-1.93-.08a20.5,20.5,0,0,0-20.5,20.5m20.5,10.68a10.64,10.64,0,0,1-7.86-3.44,10.76,10.76,0,0,1-2.75-5.91,11.61,11.61,0,0,1-.07-1.33A10.68,10.68,0,0,1,1033.34,703a9.29,9.29,0,0,1,1.06,0,10.69,10.69,0,0,1-1.06,21.32" transform="translate(0)"/><polygon class="cls-2" points="482.71 306.67 482.71 317.5 472.56 317.5 472.56 306.67 442.49 306.67 442.49 317.5 432.33 317.5 432.33 306.67 405.32 306.67 405.32 317.5 394.62 317.5 394.62 374.31 519.9 374.31 519.9 317.5 510.37 317.5 510.37 306.67 482.71 306.67"/><polygon class="cls-2" points="346.81 437.63 352.08 437.63 357.44 460.28 357.52 460.28 363.5 437.63 368.81 437.63 374.62 460.28 374.7 460.28 380.22 437.63 385.5 437.63 377.32 467.26 372.05 467.26 366.11 444.6 366.03 444.6 359.97 467.26 354.62 467.26 346.81 437.63"/><path class="cls-2" d="M389.1,437.63h4.73v4.48H389.1Zm0,8.17h4.73v21.46H389.1Z" transform="translate(0)"/><path class="cls-2" d="M404.14,460.37c.29,2.78,2.32,3.73,4.85,3.73,1.83,0,4.9-.37,4.78-2.82s-3.57-2.78-7-3.57-6.89-2-6.89-6.35c0-4.69,5.06-6.14,9-6.14,4.4,0,8.42,1.78,9,6.6h-4.94c-.45-2.28-2.24-2.86-4.35-2.86-1.38,0-3.91.33-3.91,2.2,0,2.32,3.49,2.69,7,3.44s6.93,2,6.93,6.27c0,5.1-5.15,7-9.59,7-5.44,0-9.38-2.41-9.51-7.47Z" transform="translate(0)"/><path class="cls-2" d="M423.89,437.62h13.95c5.64,0,9.46,1.83,9.46,7.35a6.42,6.42,0,0,1-4,6.18c3.65,1,5.44,3.82,5.44,7.52,0,6-5.11,8.59-10.46,8.59H423.89Zm6.51,12H437c2.33,0,4-1,4-3.53,0-2.78-2.16-3.4-4.48-3.4H430.4Zm0,12.57h7c2.53,0,4.81-.82,4.81-3.9s-1.86-4.23-4.69-4.23h-7.1Z" transform="translate(0)"/><polygon class="cls-2" points="453.11 437.63 459.62 437.63 459.62 461.78 474.07 461.78 474.07 467.26 453.11 467.26 453.11 437.63"/><path class="cls-2" d="M491,436.92c9.14,0,14.57,6.85,14.57,15.64,0,8.56-5.43,15.4-14.57,15.4s-14.57-6.84-14.57-15.4c0-8.79,5.44-15.64,14.57-15.64m0,25.56c5.86,0,8.06-5,8.06-9.92,0-5.18-2.2-10.16-8.06-10.16s-8.05,5-8.05,10.16c0,4.94,2.2,9.92,8.05,9.92" transform="translate(0)"/><path class="cls-2" d="M529.76,447.59a6.47,6.47,0,0,0-6.48-5.19c-5.85,0-8,5-8,10.16,0,4.94,2.2,9.93,8,9.93,4,0,6.23-2.7,6.72-6.64h6.31c-.66,7.42-5.72,12.11-13,12.11-9.13,0-14.57-6.84-14.57-15.4,0-8.79,5.44-15.64,14.57-15.64,6.48,0,12,3.82,12.78,10.67Z" transform="translate(0)"/><polygon class="cls-2" points="540.75 437.63 547.27 437.63 547.27 449.91 558.85 437.63 566.98 437.63 555.4 449.33 568.1 467.26 559.92 467.26 551 453.94 547.27 457.71 547.27 467.26 540.75 467.26 540.75 437.63"/><rect class="cls-1" y="283.74" width="1103.86" height="793.94"/><rect class="cls-1" y="283.74" width="1103.86" height="793.94" rx="21.86"/></g><text class="cls-26" transform="translate(1055.12 317.76)">1</text><text class="cls-26" transform="translate(1060.14 424.84)">2</text><text class="cls-26" transform="translate(789.2 312.77)">39</text><text class="cls-26" transform="translate(789.88 424.84)">40</text><path class="cls-27" d="M1081.77,383.74h-3.69c-3.4,0-6.15-2.09-6.15-4.67V329.63c0-2.58,2.75-4.67,6.15-4.67h3.69c3.4,0,6.15,2.09,6.15,4.67v49.44c0,2.58-2.75,4.67-6.15,4.67" transform="translate(0)"/><path class="cls-27" d="M791.43,383.74h-3.68c-3.38,0-6.12-2-6.12-4.56V330.92c0-2.51,2.74-4.55,6.12-4.55h3.68c3.39,0,6.14,2,6.14,4.55v48.26c0,2.52-2.75,4.56-6.14,4.56" transform="translate(0)"/><path class="cls-28" d="M1089.34,342.1v-4.56c0-2.43.34-4.41-3.34-4.41h-14.26c-2.81,0-2.49,1.16-3.47,2.8H799.93c-1-1.64-1.14-2.8-3.95-2.8h-9.66c-3.67,0-6.64,2-6.64,4.41v4.56c0,2,2,3.66,4.72,4.21v17.62c-2.72.55-4.72,2.22-4.72,4.21v4.56c0,2.43,3,4.41,6.64,4.41h10c2.9,0,2.86-1.25,3.77-3H1068.4c.91,1.72.63,3,3.53,3h10.77c3.67,0,6.64-2,6.64-4.41v-4.56c0-1.85-1.71-3.42-4.13-4.08V346.19c2.42-.66,4.13-2.24,4.13-4.09" transform="translate(0)"/><path class="cls-29" d="M1064,370.16H803.43c-2,0-3.65-1-3.65-2.25V343.19c0-1.24,1.63-2.25,3.65-2.25H1064c2,0,3.65,1,3.65,2.25v24.72c0,1.24-1.63,2.25-3.65,2.25" transform="translate(0)"/><path class="cls-27" d="M816.5,317.76h-5.07a1.36,1.36,0,0,0-1.36,1.36v4.49a1.34,1.34,0,0,0,1.28,1.34v12h5.23V325a1.34,1.34,0,0,0,1.28-1.34v-4.49a1.36,1.36,0,0,0-1.36-1.36" transform="translate(0)"/><path class="cls-30" d="M815.88,341.37h-6.74a1.08,1.08,0,0,1-1.08-1.08V337a1.08,1.08,0,0,1,1.08-1.08h6.74A1.08,1.08,0,0,1,817,337v3.28a1.08,1.08,0,0,1-1.08,1.08" transform="translate(0)"/><path class="cls-27" d="M816.5,393.34h-5.07a1.36,1.36,0,0,1-1.36-1.37v-4.48a1.35,1.35,0,0,1,1.28-1.35v-12h5.23v12a1.35,1.35,0,0,1,1.28,1.35V392a1.36,1.36,0,0,1-1.36,1.37" transform="translate(0)"/><path class="cls-30" d="M815.88,369.73h-6.74a1.08,1.08,0,0,0-1.08,1.08v3.28a1.08,1.08,0,0,0,1.08,1.08h6.74a1.08,1.08,0,0,0,1.08-1.08v-3.28a1.08,1.08,0,0,0-1.08-1.08" transform="translate(0)"/><path class="cls-27" d="M828.86,317.76h-5.08a1.36,1.36,0,0,0-1.36,1.36v4.49a1.34,1.34,0,0,0,1.29,1.34v12h5.22V325a1.35,1.35,0,0,0,1.29-1.34v-4.49a1.36,1.36,0,0,0-1.36-1.36" transform="translate(0)"/><path class="cls-30" d="M828.24,341.37H821.5a1.08,1.08,0,0,1-1.08-1.08V337a1.08,1.08,0,0,1,1.08-1.08h6.74a1.08,1.08,0,0,1,1.08,1.08v3.28a1.08,1.08,0,0,1-1.08,1.08" transform="translate(0)"/><path class="cls-27" d="M828.86,393.34h-5.08a1.36,1.36,0,0,1-1.36-1.37v-4.48a1.35,1.35,0,0,1,1.29-1.35v-12h5.22v12a1.36,1.36,0,0,1,1.29,1.35V392a1.36,1.36,0,0,1-1.36,1.37" transform="translate(0)"/><path class="cls-30" d="M828.24,369.73H821.5a1.08,1.08,0,0,0-1.08,1.08v3.28a1.08,1.08,0,0,0,1.08,1.08h6.74a1.08,1.08,0,0,0,1.08-1.08v-3.28a1.08,1.08,0,0,0-1.08-1.08" transform="translate(0)"/><path class="cls-27" d="M842,317.76h-5.07a1.36,1.36,0,0,0-1.37,1.36v4.49A1.34,1.34,0,0,0,836.8,325v12H842V325a1.34,1.34,0,0,0,1.29-1.34v-4.49a1.36,1.36,0,0,0-1.36-1.36" transform="translate(0)"/><path class="cls-30" d="M841.33,341.37h-6.74a1.08,1.08,0,0,1-1.08-1.08V337a1.08,1.08,0,0,1,1.08-1.08h6.74a1.08,1.08,0,0,1,1.08,1.08v3.28a1.08,1.08,0,0,1-1.08,1.08" transform="translate(0)"/><path class="cls-27" d="M842,393.34h-5.07a1.37,1.37,0,0,1-1.37-1.37v-4.48a1.35,1.35,0,0,1,1.29-1.35v-12H842v12a1.35,1.35,0,0,1,1.29,1.35V392a1.36,1.36,0,0,1-1.36,1.37" transform="translate(0)"/><path class="cls-30" d="M841.33,369.73h-6.74a1.08,1.08,0,0,0-1.08,1.08v3.28a1.08,1.08,0,0,0,1.08,1.08h6.74a1.08,1.08,0,0,0,1.08-1.08v-3.28a1.08,1.08,0,0,0-1.08-1.08" transform="translate(0)"/><path class="cls-27" d="M854.74,317.76h-5.07a1.36,1.36,0,0,0-1.36,1.36v4.49a1.34,1.34,0,0,0,1.28,1.34v12h5.23V325a1.34,1.34,0,0,0,1.28-1.34v-4.49a1.36,1.36,0,0,0-1.36-1.36" transform="translate(0)"/><path class="cls-30" d="M854.12,341.37h-6.74a1.08,1.08,0,0,1-1.08-1.08V337a1.08,1.08,0,0,1,1.08-1.08h6.74a1.08,1.08,0,0,1,1.09,1.08v3.28a1.08,1.08,0,0,1-1.09,1.08" transform="translate(0)"/><path class="cls-27" d="M854.74,393.34h-5.07a1.36,1.36,0,0,1-1.36-1.37v-4.48a1.35,1.35,0,0,1,1.28-1.35v-12h5.23v12a1.35,1.35,0,0,1,1.28,1.35V392a1.36,1.36,0,0,1-1.36,1.37" transform="translate(0)"/><path class="cls-30" d="M854.12,369.73h-6.74a1.08,1.08,0,0,0-1.08,1.08v3.28a1.08,1.08,0,0,0,1.08,1.08h6.74a1.08,1.08,0,0,0,1.09-1.08v-3.28a1.08,1.08,0,0,0-1.09-1.08" transform="translate(0)"/><path class="cls-27" d="M867.21,317.76h-5.08a1.36,1.36,0,0,0-1.36,1.36v4.49a1.34,1.34,0,0,0,1.29,1.34v12h5.22V325a1.34,1.34,0,0,0,1.29-1.34v-4.49a1.36,1.36,0,0,0-1.36-1.36" transform="translate(0)"/><path class="cls-30" d="M866.59,341.37h-6.74a1.08,1.08,0,0,1-1.08-1.08V337a1.08,1.08,0,0,1,1.08-1.08h6.74a1.08,1.08,0,0,1,1.08,1.08v3.28a1.08,1.08,0,0,1-1.08,1.08" transform="translate(0)"/><path class="cls-27" d="M867.21,393.34h-5.08a1.36,1.36,0,0,1-1.36-1.37v-4.48a1.35,1.35,0,0,1,1.29-1.35v-12h5.22v12a1.35,1.35,0,0,1,1.29,1.35V392a1.36,1.36,0,0,1-1.36,1.37" transform="translate(0)"/><path class="cls-30" d="M866.59,369.73h-6.74a1.08,1.08,0,0,0-1.08,1.08v3.28a1.08,1.08,0,0,0,1.08,1.08h6.74a1.08,1.08,0,0,0,1.08-1.08v-3.28a1.08,1.08,0,0,0-1.08-1.08" transform="translate(0)"/><path class="cls-27" d="M879.56,317.76h-5.07a1.36,1.36,0,0,0-1.36,1.36v4.49a1.34,1.34,0,0,0,1.28,1.34v12h5.23V325a1.35,1.35,0,0,0,1.29-1.34v-4.49a1.36,1.36,0,0,0-1.37-1.36" transform="translate(0)"/><path class="cls-30" d="M878.94,341.37H872.2a1.08,1.08,0,0,1-1.08-1.08V337a1.08,1.08,0,0,1,1.08-1.08h6.74A1.08,1.08,0,0,1,880,337v3.28a1.08,1.08,0,0,1-1.08,1.08" transform="translate(0)"/><path class="cls-27" d="M879.56,393.34h-5.07a1.36,1.36,0,0,1-1.36-1.37v-4.48a1.35,1.35,0,0,1,1.28-1.35v-12h5.23v12a1.36,1.36,0,0,1,1.29,1.35V392a1.37,1.37,0,0,1-1.37,1.37" transform="translate(0)"/><path class="cls-30" d="M878.94,369.73H872.2a1.08,1.08,0,0,0-1.08,1.08v3.28a1.08,1.08,0,0,0,1.08,1.08h6.74a1.08,1.08,0,0,0,1.08-1.08v-3.28a1.08,1.08,0,0,0-1.08-1.08" transform="translate(0)"/><path class="cls-27" d="M892.06,317.76H887a1.36,1.36,0,0,0-1.36,1.36v4.49a1.34,1.34,0,0,0,1.29,1.34v12h5.22V325a1.35,1.35,0,0,0,1.29-1.34v-4.49a1.36,1.36,0,0,0-1.37-1.36" transform="translate(0)"/><path class="cls-30" d="M891.45,341.37H884.7a1.07,1.07,0,0,1-1.07-1.08V337a1.07,1.07,0,0,1,1.07-1.08h6.75a1.07,1.07,0,0,1,1.07,1.08v3.28a1.07,1.07,0,0,1-1.07,1.08" transform="translate(0)"/><path class="cls-27" d="M892.06,393.34H887a1.36,1.36,0,0,1-1.36-1.37v-4.48a1.35,1.35,0,0,1,1.29-1.35v-12h5.22v12a1.36,1.36,0,0,1,1.29,1.35V392a1.37,1.37,0,0,1-1.37,1.37" transform="translate(0)"/><path class="cls-30" d="M891.45,369.73H884.7a1.07,1.07,0,0,0-1.07,1.08v3.28a1.07,1.07,0,0,0,1.07,1.08h6.75a1.07,1.07,0,0,0,1.07-1.08v-3.28a1.07,1.07,0,0,0-1.07-1.08" transform="translate(0)"/><path class="cls-27" d="M904.71,317.76h-5.07a1.36,1.36,0,0,0-1.36,1.36v4.49a1.34,1.34,0,0,0,1.28,1.34v12h5.23V325a1.35,1.35,0,0,0,1.29-1.34v-4.49a1.36,1.36,0,0,0-1.37-1.36" transform="translate(0)"/><path class="cls-30" d="M904.09,341.37h-6.74a1.08,1.08,0,0,1-1.08-1.08V337a1.08,1.08,0,0,1,1.08-1.08h6.74a1.08,1.08,0,0,1,1.08,1.08v3.28a1.08,1.08,0,0,1-1.08,1.08" transform="translate(0)"/><path class="cls-27" d="M904.71,393.34h-5.07a1.36,1.36,0,0,1-1.36-1.37v-4.48a1.35,1.35,0,0,1,1.28-1.35v-12h5.23v12a1.36,1.36,0,0,1,1.29,1.35V392a1.37,1.37,0,0,1-1.37,1.37" transform="translate(0)"/><path class="cls-30" d="M904.09,369.73h-6.74a1.08,1.08,0,0,0-1.08,1.08v3.28a1.08,1.08,0,0,0,1.08,1.08h6.74a1.08,1.08,0,0,0,1.08-1.08v-3.28a1.08,1.08,0,0,0-1.08-1.08" transform="translate(0)"/><path class="cls-27" d="M917.36,317.76h-5.07a1.36,1.36,0,0,0-1.36,1.36v4.49a1.34,1.34,0,0,0,1.28,1.34v12h5.22V325a1.34,1.34,0,0,0,1.29-1.34v-4.49a1.36,1.36,0,0,0-1.36-1.36" transform="translate(0)"/><path class="cls-30" d="M916.74,341.37H910a1.08,1.08,0,0,1-1.08-1.08V337a1.08,1.08,0,0,1,1.08-1.08h6.74a1.08,1.08,0,0,1,1.09,1.08v3.28a1.08,1.08,0,0,1-1.09,1.08" transform="translate(0)"/><path class="cls-27" d="M917.36,393.34h-5.07a1.36,1.36,0,0,1-1.36-1.37v-4.48a1.35,1.35,0,0,1,1.28-1.35v-12h5.22v12a1.35,1.35,0,0,1,1.29,1.35V392a1.36,1.36,0,0,1-1.36,1.37" transform="translate(0)"/><path class="cls-30" d="M916.74,369.73H910a1.08,1.08,0,0,0-1.08,1.08v3.28a1.08,1.08,0,0,0,1.08,1.08h6.74a1.08,1.08,0,0,0,1.09-1.08v-3.28a1.08,1.08,0,0,0-1.09-1.08" transform="translate(0)"/><path class="cls-27" d="M929.86,317.76h-5.07a1.36,1.36,0,0,0-1.36,1.36v4.49a1.34,1.34,0,0,0,1.28,1.34v12h5.23V325a1.35,1.35,0,0,0,1.29-1.34v-4.49a1.36,1.36,0,0,0-1.37-1.36" transform="translate(0)"/><path class="cls-30" d="M929.24,341.37H922.5a1.08,1.08,0,0,1-1.08-1.08V337a1.08,1.08,0,0,1,1.08-1.08h6.74a1.08,1.08,0,0,1,1.09,1.08v3.28a1.08,1.08,0,0,1-1.09,1.08" transform="translate(0)"/><path class="cls-27" d="M929.86,393.34h-5.07a1.36,1.36,0,0,1-1.36-1.37v-4.48a1.35,1.35,0,0,1,1.28-1.35v-12h5.23v12a1.36,1.36,0,0,1,1.29,1.35V392a1.37,1.37,0,0,1-1.37,1.37" transform="translate(0)"/><path class="cls-30" d="M929.24,369.73H922.5a1.08,1.08,0,0,0-1.08,1.08v3.28a1.08,1.08,0,0,0,1.08,1.08h6.74a1.08,1.08,0,0,0,1.09-1.08v-3.28a1.08,1.08,0,0,0-1.09-1.08" transform="translate(0)"/><path class="cls-27" d="M942.81,317.76h-5.08a1.36,1.36,0,0,0-1.36,1.36v4.49a1.34,1.34,0,0,0,1.29,1.34v12h5.22V325a1.34,1.34,0,0,0,1.29-1.34v-4.49a1.36,1.36,0,0,0-1.36-1.36" transform="translate(0)"/><path class="cls-30" d="M942.19,341.37h-6.74a1.08,1.08,0,0,1-1.08-1.08V337a1.08,1.08,0,0,1,1.08-1.08h6.74a1.08,1.08,0,0,1,1.08,1.08v3.28a1.08,1.08,0,0,1-1.08,1.08" transform="translate(0)"/><path class="cls-27" d="M942.81,393.34h-5.08a1.36,1.36,0,0,1-1.36-1.37v-4.48a1.35,1.35,0,0,1,1.29-1.35v-12h5.22v12a1.35,1.35,0,0,1,1.29,1.35V392a1.36,1.36,0,0,1-1.36,1.37" transform="translate(0)"/><path class="cls-30" d="M942.19,369.73h-6.74a1.08,1.08,0,0,0-1.08,1.08v3.28a1.08,1.08,0,0,0,1.08,1.08h6.74a1.08,1.08,0,0,0,1.08-1.08v-3.28a1.08,1.08,0,0,0-1.08-1.08" transform="translate(0)"/><path class="cls-27" d="M955.46,317.76h-5.07a1.36,1.36,0,0,0-1.36,1.36v4.49a1.34,1.34,0,0,0,1.28,1.34v12h5.23V325a1.34,1.34,0,0,0,1.28-1.34v-4.49a1.36,1.36,0,0,0-1.36-1.36" transform="translate(0)"/><path class="cls-30" d="M954.84,341.37H948.1a1.08,1.08,0,0,1-1.08-1.08V337a1.08,1.08,0,0,1,1.08-1.08h6.74a1.08,1.08,0,0,1,1.08,1.08v3.28a1.08,1.08,0,0,1-1.08,1.08" transform="translate(0)"/><path class="cls-27" d="M955.46,393.34h-5.07A1.36,1.36,0,0,1,949,392v-4.48a1.35,1.35,0,0,1,1.28-1.35v-12h5.23v12a1.35,1.35,0,0,1,1.28,1.35V392a1.36,1.36,0,0,1-1.36,1.37" transform="translate(0)"/><path class="cls-30" d="M954.84,369.73H948.1a1.08,1.08,0,0,0-1.08,1.08v3.28a1.08,1.08,0,0,0,1.08,1.08h6.74a1.08,1.08,0,0,0,1.08-1.08v-3.28a1.08,1.08,0,0,0-1.08-1.08" transform="translate(0)"/><path class="cls-27" d="M968.41,317.76h-5.08a1.36,1.36,0,0,0-1.36,1.36v4.49a1.34,1.34,0,0,0,1.29,1.34v12h5.22V325a1.34,1.34,0,0,0,1.29-1.34v-4.49a1.36,1.36,0,0,0-1.36-1.36" transform="translate(0)"/><path class="cls-30" d="M967.79,341.37h-6.74a1.08,1.08,0,0,1-1.09-1.08V337a1.08,1.08,0,0,1,1.09-1.08h6.74a1.08,1.08,0,0,1,1.08,1.08v3.28a1.08,1.08,0,0,1-1.08,1.08" transform="translate(0)"/><path class="cls-27" d="M968.41,393.34h-5.08A1.36,1.36,0,0,1,962,392v-4.48a1.35,1.35,0,0,1,1.29-1.35v-12h5.22v12a1.35,1.35,0,0,1,1.29,1.35V392a1.36,1.36,0,0,1-1.36,1.37" transform="translate(0)"/><path class="cls-30" d="M967.79,369.73h-6.74a1.08,1.08,0,0,0-1.09,1.08v3.28a1.08,1.08,0,0,0,1.09,1.08h6.74a1.08,1.08,0,0,0,1.08-1.08v-3.28a1.08,1.08,0,0,0-1.08-1.08" transform="translate(0)"/><path class="cls-27" d="M980.91,317.76h-5.08a1.36,1.36,0,0,0-1.36,1.36v4.49a1.34,1.34,0,0,0,1.29,1.34v12H981V325a1.34,1.34,0,0,0,1.29-1.34v-4.49a1.36,1.36,0,0,0-1.36-1.36" transform="translate(0)"/><path class="cls-30" d="M980.29,341.37h-6.74a1.08,1.08,0,0,1-1.08-1.08V337a1.08,1.08,0,0,1,1.08-1.08h6.74a1.08,1.08,0,0,1,1.08,1.08v3.28a1.08,1.08,0,0,1-1.08,1.08" transform="translate(0)"/><path class="cls-27" d="M980.91,393.34h-5.08a1.36,1.36,0,0,1-1.36-1.37v-4.48a1.35,1.35,0,0,1,1.29-1.35v-12H981v12a1.35,1.35,0,0,1,1.29,1.35V392a1.36,1.36,0,0,1-1.36,1.37" transform="translate(0)"/><path class="cls-30" d="M980.29,369.73h-6.74a1.08,1.08,0,0,0-1.08,1.08v3.28a1.08,1.08,0,0,0,1.08,1.08h6.74a1.08,1.08,0,0,0,1.08-1.08v-3.28a1.08,1.08,0,0,0-1.08-1.08" transform="translate(0)"/><path class="cls-27" d="M993.56,317.76h-5.08a1.36,1.36,0,0,0-1.36,1.36v4.49a1.34,1.34,0,0,0,1.29,1.34v12h5.22V325a1.34,1.34,0,0,0,1.29-1.34v-4.49a1.36,1.36,0,0,0-1.36-1.36" transform="translate(0)"/><path class="cls-30" d="M992.94,341.37H986.2a1.08,1.08,0,0,1-1.08-1.08V337a1.08,1.08,0,0,1,1.08-1.08h6.74A1.08,1.08,0,0,1,994,337v3.28a1.08,1.08,0,0,1-1.08,1.08" transform="translate(0)"/><path class="cls-27" d="M993.56,393.34h-5.08a1.36,1.36,0,0,1-1.36-1.37v-4.48a1.35,1.35,0,0,1,1.29-1.35v-12h5.22v12a1.35,1.35,0,0,1,1.29,1.35V392a1.36,1.36,0,0,1-1.36,1.37" transform="translate(0)"/><path class="cls-30" d="M992.94,369.73H986.2a1.08,1.08,0,0,0-1.08,1.08v3.28a1.08,1.08,0,0,0,1.08,1.08h6.74a1.08,1.08,0,0,0,1.08-1.08v-3.28a1.08,1.08,0,0,0-1.08-1.08" transform="translate(0)"/><path class="cls-27" d="M1006.21,317.76h-5.08a1.36,1.36,0,0,0-1.36,1.36v4.49a1.34,1.34,0,0,0,1.29,1.34v12h5.22V325a1.34,1.34,0,0,0,1.29-1.34v-4.49a1.36,1.36,0,0,0-1.36-1.36" transform="translate(0)"/><path class="cls-30" d="M1005.59,341.37h-6.74a1.08,1.08,0,0,1-1.08-1.08V337a1.08,1.08,0,0,1,1.08-1.08h6.74a1.08,1.08,0,0,1,1.08,1.08v3.28a1.08,1.08,0,0,1-1.08,1.08" transform="translate(0)"/><path class="cls-27" d="M1006.21,393.34h-5.08a1.36,1.36,0,0,1-1.36-1.37v-4.48a1.35,1.35,0,0,1,1.29-1.35v-12h5.22v12a1.35,1.35,0,0,1,1.29,1.35V392a1.36,1.36,0,0,1-1.36,1.37" transform="translate(0)"/><path class="cls-30" d="M1005.59,369.73h-6.74a1.08,1.08,0,0,0-1.08,1.08v3.28a1.08,1.08,0,0,0,1.08,1.08h6.74a1.08,1.08,0,0,0,1.08-1.08v-3.28a1.08,1.08,0,0,0-1.08-1.08" transform="translate(0)"/><path class="cls-27" d="M1018.71,317.76h-5.08a1.36,1.36,0,0,0-1.36,1.36v4.49a1.34,1.34,0,0,0,1.29,1.34v12h5.22V325a1.34,1.34,0,0,0,1.29-1.34v-4.49a1.36,1.36,0,0,0-1.36-1.36" transform="translate(0)"/><path class="cls-30" d="M1018.09,341.37h-6.74a1.08,1.08,0,0,1-1.08-1.08V337a1.08,1.08,0,0,1,1.08-1.08h6.74a1.08,1.08,0,0,1,1.08,1.08v3.28a1.08,1.08,0,0,1-1.08,1.08" transform="translate(0)"/><path class="cls-27" d="M1018.71,393.34h-5.08a1.36,1.36,0,0,1-1.36-1.37v-4.48a1.35,1.35,0,0,1,1.29-1.35v-12h5.22v12a1.35,1.35,0,0,1,1.29,1.35V392a1.36,1.36,0,0,1-1.36,1.37" transform="translate(0)"/><path class="cls-30" d="M1018.09,369.73h-6.74a1.08,1.08,0,0,0-1.08,1.08v3.28a1.08,1.08,0,0,0,1.08,1.08h6.74a1.08,1.08,0,0,0,1.08-1.08v-3.28a1.08,1.08,0,0,0-1.08-1.08" transform="translate(0)"/><path class="cls-27" d="M1031.65,317.76h-5.07a1.36,1.36,0,0,0-1.37,1.36v4.49a1.35,1.35,0,0,0,1.29,1.34v12h5.22V325a1.34,1.34,0,0,0,1.29-1.34v-4.49a1.36,1.36,0,0,0-1.36-1.36" transform="translate(0)"/><path class="cls-30" d="M1031,341.37h-6.74a1.08,1.08,0,0,1-1.08-1.08V337a1.08,1.08,0,0,1,1.08-1.08H1031a1.08,1.08,0,0,1,1.08,1.08v3.28a1.08,1.08,0,0,1-1.08,1.08" transform="translate(0)"/><path class="cls-27" d="M1031.65,393.34h-5.07a1.37,1.37,0,0,1-1.37-1.37v-4.48a1.36,1.36,0,0,1,1.29-1.35v-12h5.22v12a1.35,1.35,0,0,1,1.29,1.35V392a1.36,1.36,0,0,1-1.36,1.37" transform="translate(0)"/><path class="cls-30" d="M1031,369.73h-6.74a1.08,1.08,0,0,0-1.08,1.08v3.28a1.08,1.08,0,0,0,1.08,1.08H1031a1.08,1.08,0,0,0,1.08-1.08v-3.28a1.08,1.08,0,0,0-1.08-1.08" transform="translate(0)"/><path class="cls-27" d="M1044.31,317.76h-5.08a1.36,1.36,0,0,0-1.36,1.36v4.49a1.34,1.34,0,0,0,1.29,1.34v12h5.22V325a1.35,1.35,0,0,0,1.29-1.34v-4.49a1.36,1.36,0,0,0-1.36-1.36" transform="translate(0)"/><path class="cls-30" d="M1043.69,341.37h-6.75a1.07,1.07,0,0,1-1.07-1.08V337a1.07,1.07,0,0,1,1.07-1.08h6.75a1.07,1.07,0,0,1,1.07,1.08v3.28a1.07,1.07,0,0,1-1.07,1.08" transform="translate(0)"/><path class="cls-27" d="M1044.31,393.34h-5.08a1.36,1.36,0,0,1-1.36-1.37v-4.48a1.35,1.35,0,0,1,1.29-1.35v-12h5.22v12a1.36,1.36,0,0,1,1.29,1.35V392a1.36,1.36,0,0,1-1.36,1.37" transform="translate(0)"/><path class="cls-30" d="M1043.69,369.73h-6.75a1.07,1.07,0,0,0-1.07,1.08v3.28a1.07,1.07,0,0,0,1.07,1.08h6.75a1.07,1.07,0,0,0,1.07-1.08v-3.28a1.07,1.07,0,0,0-1.07-1.08" transform="translate(0)"/><path class="cls-27" d="M1057.65,317.76h-5.07a1.36,1.36,0,0,0-1.36,1.36v4.49a1.34,1.34,0,0,0,1.28,1.34v12h5.22V325a1.34,1.34,0,0,0,1.29-1.34v-4.49a1.36,1.36,0,0,0-1.36-1.36" transform="translate(0)"/><path class="cls-30" d="M1057,341.37h-6.74a1.08,1.08,0,0,1-1.08-1.08V337a1.08,1.08,0,0,1,1.08-1.08H1057a1.08,1.08,0,0,1,1.08,1.08v3.28a1.08,1.08,0,0,1-1.08,1.08" transform="translate(0)"/><path class="cls-27" d="M1057.65,393.34h-5.07a1.36,1.36,0,0,1-1.36-1.37v-4.48a1.35,1.35,0,0,1,1.28-1.35v-12h5.22v12a1.35,1.35,0,0,1,1.29,1.35V392a1.36,1.36,0,0,1-1.36,1.37" transform="translate(0)"/><path class="cls-30" d="M1057,369.73h-6.74a1.08,1.08,0,0,0-1.08,1.08v3.28a1.08,1.08,0,0,0,1.08,1.08H1057a1.08,1.08,0,0,0,1.08-1.08v-3.28a1.08,1.08,0,0,0-1.08-1.08" transform="translate(0)"/><path class="cls-30" d="M1074,339.35c0-1.89,2.11-3.42,6.4-3.42s6.44,1.53,6.44,3.42-2.16,3.43-6.44,3.43-6.4-1.54-6.4-3.43" transform="translate(0)"/><path class="cls-30" d="M1074,370.72c0-1.9,2.11-3.43,6.4-3.43s6.44,1.53,6.44,3.43-2.16,3.42-6.44,3.42-6.4-1.53-6.4-3.42" transform="translate(0)"/><path class="cls-30" d="M782.78,339.35c0-1.89,2.1-3.42,6.39-3.42s6.44,1.53,6.44,3.42-2.15,3.43-6.44,3.43-6.39-1.54-6.39-3.43" transform="translate(0)"/><path class="cls-30" d="M782.78,370.72c0-1.9,2.1-3.43,6.39-3.43s6.44,1.53,6.44,3.43-2.15,3.42-6.44,3.42-6.39-1.53-6.39-3.42" transform="translate(0)"/></g></g></svg>