<svg xmlns="http://www.w3.org/2000/svg" viewBox="0 0 129.27 79.2"><defs><style>.cls-1{fill:#7f8080;}.cls-2{fill:#333;}.cls-3{fill:#a43b3a;}.cls-4{fill:#b3b3b3;}.cls-5{fill:#6b70b4;}.cls-6{fill:#41b9eb;}.cls-7{fill:#fff;}.cls-8{fill:#84cec3;}.cls-9{opacity:0.4;}.cls-10{fill:#242424;}.cls-11{fill:#f5f6f7;}.cls-12{fill:#e0ac52;}.cls-13{fill:#d3d3d3;}.cls-14{fill:#ededed;}.cls-15{fill:#9a732b;}.cls-16{fill:#c5923b;}.cls-17,.cls-18{fill:none;stroke:#fff;stroke-miterlimit:10;}.cls-17{stroke-width:0.25px;}.cls-19{fill:#ebf4fb;}.cls-20{fill:#333e49;}.cls-21{fill:#222630;}.cls-22{fill:#be8e3e;}.cls-23{fill:#ee3224;}</style></defs><g id="Layer_2" data-name="Layer 2"><g id="Layer_1-2" data-name="Layer 1"><g id="RAK17000_Pinouts" data-name="RAK17000 Pinouts"><rect class="cls-1" x="116.72" width="4.25" height="79.19"/><rect class="cls-1" x="111.41" width="4.25" height="79.19"/><rect class="cls-2" x="108.94" y="3.97" width="2.47" height="2.9" rx="0.41"/><rect class="cls-3" x="111.95" width="3.71" height="2.9" rx="0.35"/><rect class="cls-2" x="111.95" y="3.97" width="3.71" height="2.9" rx="0.35"/><rect class="cls-4" x="111.95" y="8.07" width="3.71" height="2.9" rx="0.35"/><rect class="cls-4" x="111.95" y="12.16" width="3.71" height="2.9" rx="0.35"/><rect class="cls-4" x="111.95" y="16.07" width="3.71" height="2.9" rx="0.35"/><rect class="cls-4" x="111.95" y="19.99" width="3.71" height="2.9" rx="0.35"/><rect class="cls-4" x="111.95" y="24.04" width="3.71" height="2.9" rx="0.35"/><rect class="cls-4" x="111.95" y="28.02" width="3.71" height="2.9" rx="0.35"/><rect class="cls-4" x="111.95" y="32.03" width="3.71" height="2.9" rx="0.35"/><rect class="cls-4" x="111.95" y="36.09" width="3.71" height="2.9" rx="0.35"/><rect class="cls-4" x="111.95" y="40.28" width="3.71" height="2.9" rx="0.35"/><rect class="cls-4" x="111.95" y="44.21" width="3.71" height="2.9" rx="0.35"/><rect class="cls-3" x="116.72" width="3.71" height="2.9" rx="0.35"/><rect class="cls-2" x="116.72" y="3.97" width="3.71" height="2.9" rx="0.35"/><rect class="cls-4" x="116.72" y="8.07" width="3.71" height="2.9" rx="0.35"/><rect class="cls-4" x="116.72" y="12.16" width="3.71" height="2.9" rx="0.35"/><rect class="cls-4" x="116.72" y="16.07" width="3.71" height="2.9" rx="0.35"/><rect class="cls-4" x="116.72" y="19.99" width="3.71" height="2.9" rx="0.35"/><rect class="cls-4" x="116.72" y="24.04" width="3.71" height="2.9" rx="0.35"/><rect class="cls-4" x="116.72" y="28.02" width="3.71" height="2.9" rx="0.35"/><rect class="cls-4" x="116.72" y="32.03" width="3.71" height="2.9" rx="0.35"/><rect class="cls-4" x="116.72" y="36.09" width="3.71" height="2.9" rx="0.35"/><rect class="cls-4" x="116.72" y="40.28" width="3.71" height="2.9" rx="0.35"/><rect class="cls-4" x="116.72" y="44.21" width="3.71" height="2.9" rx="0.35"/><rect class="cls-5" x="116.72" y="48.16" width="3.71" height="2.9" rx="0.35"/><rect class="cls-4" x="116.72" y="52.07" width="3.71" height="2.9" rx="0.35"/><rect class="cls-4" x="116.72" y="56.12" width="3.71" height="2.9" rx="0.35"/><rect class="cls-6" x="116.72" y="60.1" width="3.71" height="2.9" rx="0.35"/><rect class="cls-4" x="116.72" y="64.1" width="3.71" height="2.9" rx="0.35"/><rect class="cls-4" x="116.72" y="68.17" width="3.71" height="2.9" rx="0.35"/><rect class="cls-4" x="116.72" y="72.35" width="3.71" height="2.9" rx="0.35"/><path class="cls-7" d="M117.28,49.46a.62.62,0,0,1,.52-.71h.11a.55.55,0,0,1,.6.51v0c0,.53-.56.57-.81.93h.82v.31h-1.28c0-.41.25-.58.55-.78.15-.11.37-.21.37-.43a.25.25,0,0,0-.23-.27h0c-.21,0-.28.22-.28.4Z"/><path class="cls-7" d="M119.82,49.07h-.72l-.07.4h0a.4.4,0,0,1,.34-.14.52.52,0,0,1,.54.53v.06a.65.65,0,0,1-.63.64h0a.61.61,0,0,1-.65-.53v0H119a.27.27,0,0,0,.29.25.3.3,0,0,0,.3-.31h0a.29.29,0,0,0-.27-.33h0a.32.32,0,0,0-.27.14h-.32l.17-1h1Z"/><path class="cls-7" d="M117.28,53.3a.61.61,0,0,1,.51-.7h.12a.55.55,0,0,1,.6.49v0c0,.52-.56.57-.81.93h.82v.3h-1.28c0-.41.25-.57.55-.78.15-.11.37-.21.37-.43a.25.25,0,0,0-.23-.27h0c-.21,0-.28.22-.28.4Z"/><path class="cls-7" d="M119.86,52.92a2.19,2.19,0,0,0-.57,1.45h-.38A2.6,2.6,0,0,1,119.5,53h-.83v-.33h1.19Z"/><path class="cls-7" d="M117.76,65.42c.15,0,.37,0,.37-.22a.23.23,0,0,0-.23-.23h0a.27.27,0,0,0-.27.27v0h-.34a.59.59,0,0,1,.58-.6h0a.54.54,0,0,1,.58.48.34.34,0,0,1-.24.37h0a.41.41,0,0,1,.31.39.66.66,0,0,1-.68.63.66.66,0,0,1-.62-.68h.34a.3.3,0,0,0,.3.34.27.27,0,0,0,.29-.26h0c0-.26-.23-.26-.41-.26Z"/><path class="cls-7" d="M119.14,65.42c.15,0,.37,0,.37-.22a.23.23,0,0,0-.23-.23h0a.27.27,0,0,0-.27.27v0h-.33a.57.57,0,0,1,.54-.6h.06a.55.55,0,0,1,.59.48.36.36,0,0,1-.25.37h0a.38.38,0,0,1,.31.39.59.59,0,0,1-.61.58h0a.58.58,0,0,1-.64-.51v-.11H119a.3.3,0,0,0,.31.34.27.27,0,0,0,.28-.26h0c0-.26-.23-.26-.4-.26Z"/><path class="cls-7" d="M117.76,69.49c.15,0,.37,0,.37-.21a.23.23,0,0,0-.23-.23h0c-.18,0-.27.13-.27.31h-.34a.6.6,0,0,1,.57-.61h0a.55.55,0,0,1,.58.49.35.35,0,0,1-.24.36h0a.41.41,0,0,1,.31.39.65.65,0,1,1-1.3,0h.34a.3.3,0,0,0,.28.34h0a.27.27,0,0,0,.29-.26h0c0-.27-.23-.26-.41-.26Z"/><path class="cls-7" d="M119.82,69.09h-.72l-.07.4h0a.4.4,0,0,1,.34-.13.52.52,0,0,1,.54.53V70a.63.63,0,0,1-.63.62h0a.59.59,0,0,1-.65-.52v0H119a.28.28,0,0,0,.29.26.31.31,0,0,0,.3-.33h0a.32.32,0,0,0-.27-.33h0a.32.32,0,0,0-.27.14h-.32l.17-1h1Z"/><path class="cls-7" d="M117.28,57.41a.63.63,0,0,1,.53-.7h.1a.55.55,0,0,1,.6.49v0c0,.53-.56.57-.81.93h.82v.3h-1.28c0-.41.25-.57.55-.77.15-.11.37-.23.37-.43a.26.26,0,0,0-.23-.28h0c-.21,0-.28.23-.28.41Z"/><path class="cls-7" d="M119,58a.28.28,0,0,0,.23.23c.26,0,.33-.34.34-.53h0a.45.45,0,0,1-.39.2.61.61,0,0,1-.4-.19.62.62,0,0,1-.14-.38.6.6,0,0,1,.58-.64h0c.53,0,.67.46.67.9s-.18.91-.68.91a.54.54,0,0,1-.57-.48Zm.54-.72a.32.32,0,0,0-.28-.32h0a.31.31,0,0,0-.27.32.29.29,0,0,0,.27.33h0C119.45,57.62,119.54,57.46,119.54,57.28Z"/><path class="cls-7" d="M117.76,61.48c.15,0,.37,0,.37-.22a.23.23,0,0,0-.23-.23h0c-.18,0-.27.13-.27.32h-.34a.59.59,0,0,1,.58-.61h0a.53.53,0,0,1,.58.48.37.37,0,0,1-.24.36h0a.41.41,0,0,1,.31.4.61.61,0,0,1-.63.57h0a.61.61,0,0,1-.65-.53v-.1h.34a.29.29,0,0,0,.26.33h0a.29.29,0,0,0,.29-.25h0c0-.26-.23-.26-.41-.26Z"/><path class="cls-7" d="M119.55,62.51h-.36V61.39h-.43v-.27c.24,0,.47-.09.51-.34h.28Z"/><path class="cls-7" d="M117.76,73.7c.15,0,.37,0,.37-.22a.23.23,0,0,0-.23-.23h0c-.18,0-.27.13-.27.31h-.34a.59.59,0,0,1,.58-.6h0a.54.54,0,0,1,.58.48.35.35,0,0,1-.24.36h0a.43.43,0,0,1,.31.4.61.61,0,0,1-.63.58h0a.59.59,0,0,1-.65-.52v-.11h.34a.3.3,0,0,0,.26.34h0a.28.28,0,0,0,.29-.25h0c0-.26-.23-.26-.41-.26Z"/><path class="cls-7" d="M119.86,73.31a2.12,2.12,0,0,0-.57,1.44h-.38a2.54,2.54,0,0,1,.59-1.42h-.83V73h1.19Z"/><rect class="cls-2" x="116.72" y="76.3" width="3.71" height="2.9" rx="0.35"/><rect class="cls-5" x="111.95" y="48.16" width="3.71" height="2.9" rx="0.35"/><path class="cls-7" d="M117.76,77.66c.15,0,.37,0,.37-.22a.23.23,0,0,0-.23-.24h0c-.18,0-.27.13-.27.31h-.34a.59.59,0,0,1,.58-.6h0a.54.54,0,0,1,.58.48.35.35,0,0,1-.24.36h0a.43.43,0,0,1,.31.41.61.61,0,0,1-.63.57h0a.61.61,0,0,1-.65-.53v-.1h.34a.29.29,0,0,0,.26.33h0a.27.27,0,0,0,.29-.25h0c0-.27-.23-.25-.41-.25Z"/><path class="cls-7" d="M119,78.24a.26.26,0,0,0,.23.22c.26,0,.33-.33.34-.52h0a.42.42,0,0,1-.39.19.57.57,0,0,1-.4-.18.63.63,0,0,1,.44-1h0c.53,0,.67.46.67.9s-.18.92-.68.92a.54.54,0,0,1-.57-.49Zm.54-.71a.3.3,0,0,0-.29-.32h0a.34.34,0,0,0-.27.39.33.33,0,0,0,.27.26.27.27,0,0,0,.28-.27v0Z"/><rect class="cls-6" x="111.95" y="52.07" width="3.71" height="2.9" rx="0.35"/><rect class="cls-4" x="111.95" y="56.12" width="3.71" height="2.9" rx="0.35"/><rect class="cls-4" x="111.95" y="60.1" width="3.71" height="2.9" rx="0.35"/><rect class="cls-4" x="111.95" y="64.1" width="3.71" height="2.9" rx="0.35"/><rect class="cls-4" x="111.95" y="68.17" width="3.71" height="2.9" rx="0.35"/><rect class="cls-8" x="111.95" y="72.35" width="3.71" height="2.9" rx="0.35"/><rect class="cls-2" x="111.95" y="76.3" width="3.71" height="2.9" rx="0.35"/><path class="cls-7" d="M113.2,1.44a.62.62,0,0,1,.53-.69h.1a.56.56,0,0,1,.6.5v.05c0,.52-.56.57-.81.92h.82v.3h-1.28c0-.4.25-.57.55-.78s.37-.21.37-.42a.25.25,0,0,0-.23-.26h0c-.21,0-.28.22-.28.4Z"/><path class="cls-7" d="M112.51,49.46a.62.62,0,0,1,.52-.71h.11a.55.55,0,0,1,.6.51v0c0,.52-.56.57-.81.93h.82v.3h-1.28c0-.41.25-.57.55-.78s.37-.21.37-.42a.25.25,0,0,0-.23-.27h0c-.2,0-.27.22-.27.41Z"/><path class="cls-7" d="M114.77,49.23a.25.25,0,0,0-.24-.21c-.25,0-.32.33-.33.53h0a.38.38,0,0,1,.39-.19.49.49,0,0,1,.4.18.58.58,0,0,1,.14.39.62.62,0,0,1-.58.63h0c-.52,0-.66-.46-.66-.9s.18-.91.68-.91a.52.52,0,0,1,.56.48Zm-.54.72a.29.29,0,0,0,.28.31h0a.31.31,0,0,0,.28-.32h0a.29.29,0,0,0-.27-.33h0a.28.28,0,0,0-.28.29Z"/><path class="cls-7" d="M113,61.51c.15,0,.37,0,.37-.22a.23.23,0,0,0-.23-.23h0c-.18,0-.27.13-.27.31h-.34a.59.59,0,0,1,.58-.6h0a.53.53,0,0,1,.58.47h0a.37.37,0,0,1-.24.37h0a.41.41,0,0,1,.31.4.66.66,0,0,1-.68.62.66.66,0,0,1-.62-.68h.34a.31.31,0,0,0,.3.34.27.27,0,0,0,.29-.25h0c0-.26-.23-.26-.4-.26Z"/><path class="cls-7" d="M113.89,61.48a.62.62,0,0,1,.53-.7h.11a.54.54,0,0,1,.59.5v0c0,.53-.56.57-.81.93h.83v.3h-1.28c0-.41.24-.57.55-.78.15-.1.36-.21.36-.42a.25.25,0,0,0-.23-.27h0c-.21,0-.28.21-.28.4Z"/><path class="cls-7" d="M113,69.52c.15,0,.37,0,.37-.21a.23.23,0,0,0-.23-.23h0c-.18,0-.27.13-.27.31h-.34a.59.59,0,0,1,.58-.6h0a.54.54,0,0,1,.58.48h0a.35.35,0,0,1-.24.36h0a.43.43,0,0,1,.31.4.66.66,0,0,1-.68.63.66.66,0,0,1-.62-.68h.34a.29.29,0,0,0,.3.33.27.27,0,0,0,.29-.26h0c0-.26-.23-.26-.4-.26Z"/><path class="cls-7" d="M114.77,69.27a.29.29,0,0,0-.24-.22c-.25,0-.32.34-.33.53h0a.42.42,0,0,1,.39-.19.6.6,0,0,1,.4.18.64.64,0,0,1,.14.39.59.59,0,0,1-.57.63h0c-.52,0-.66-.46-.66-.9s.18-.91.68-.91a.54.54,0,0,1,.56.48Zm-.54.71a.3.3,0,0,0,.28.33h0a.29.29,0,0,0,.28-.31h0a.29.29,0,0,0-.27-.32h0a.29.29,0,0,0-.28.3Z"/><path class="cls-7" d="M113,73.74c.15,0,.37,0,.37-.21a.22.22,0,0,0-.22-.24h0a.25.25,0,0,0-.27.26v0h-.34a.59.59,0,0,1,.58-.61h0a.53.53,0,0,1,.58.47h0a.35.35,0,0,1-.24.37h0a.39.39,0,0,1,.31.4.66.66,0,0,1-.68.62.66.66,0,0,1-.62-.68h.34a.3.3,0,0,0,.3.34.28.28,0,0,0,.29-.26h0c0-.26-.23-.26-.4-.26Z"/><path class="cls-7" d="M114.5,73a.53.53,0,0,1,.58.46v0a.39.39,0,0,1-.25.36h0a.38.38,0,0,1,.32.41.58.58,0,0,1-.61.56h0c-.33,0-.66-.17-.66-.54a.41.41,0,0,1,.33-.43h0a.36.36,0,0,1-.26-.36.53.53,0,0,1,.58-.48Zm0,1.56a.3.3,0,0,0,.3-.28h0a.29.29,0,0,0-.29-.28h0a.28.28,0,0,0-.31.24v0a.28.28,0,0,0,.28.29h0Zm0-.82a.24.24,0,0,0,.28-.19.23.23,0,0,0-.18-.28h-.1a.24.24,0,0,0-.27.2v0h0a.24.24,0,0,0,.24.24h0Z"/><path class="cls-7" d="M113.19,78.21h-.73v-.32l.76-1h.31v1h.23v.3h-.23v.4h-.34Zm0-.9h0l-.45.61h.45Z"/><path class="cls-7" d="M114.49,76.84c.35,0,.65.22.65.91s-.3.91-.65.91-.63-.22-.63-.91S114.15,76.84,114.49,76.84Zm0,1.53c.29,0,.29-.43.29-.63s0-.6-.29-.6-.28.42-.28.6S114.21,78.37,114.49,78.37Z"/><path class="cls-7" d="M112.51,53.3a.61.61,0,0,1,.51-.7h.12a.55.55,0,0,1,.6.49v0c0,.52-.56.57-.81.93h.82v.3h-1.28c0-.41.25-.57.55-.78s.37-.21.37-.43a.25.25,0,0,0-.23-.27h0c-.2,0-.27.22-.27.4Z"/><path class="cls-7" d="M114.5,52.6a.51.51,0,0,1,.58.43v0a.34.34,0,0,1-.25.36h0a.41.41,0,0,1,.32.44.58.58,0,0,1-.61.54h0c-.33,0-.66-.17-.66-.54a.42.42,0,0,1,.33-.44h0a.35.35,0,0,1-.26-.36C113.91,52.75,114.21,52.6,114.5,52.6Zm0,1.54a.3.3,0,0,0,.3-.27h0a.28.28,0,0,0-.29-.28h0a.28.28,0,0,0-.31.24v0a.28.28,0,0,0,.28.29h0Zm0-.82a.23.23,0,0,0,.26-.19v0a.22.22,0,0,0-.2-.24h0a.24.24,0,0,0-.27.19v0h0a.26.26,0,0,0,.26.25h0Z"/><path class="cls-7" d="M113,57.48c.15,0,.37,0,.37-.22a.23.23,0,0,0-.23-.23h0c-.18,0-.27.13-.27.32h-.34a.59.59,0,0,1,.58-.61h0a.53.53,0,0,1,.58.47h0a.37.37,0,0,1-.24.36h0a.41.41,0,0,1,.31.4.66.66,0,0,1-.68.62.66.66,0,0,1-.62-.68h.34a.3.3,0,0,0,.3.34.28.28,0,0,0,.29-.26h0c0-.26-.23-.26-.4-.26Z"/><path class="cls-7" d="M114.49,56.73c.35,0,.65.23.65.91s-.3.91-.65.91-.63-.22-.63-.91S114.15,56.73,114.49,56.73Zm0,1.52c.29,0,.29-.41.29-.61s0-.61-.29-.61-.28.43-.28.61S114.21,58.25,114.49,58.25Z"/><path class="cls-7" d="M113,65.42c.15,0,.37,0,.37-.22a.23.23,0,0,0-.23-.23h0a.27.27,0,0,0-.27.27v0h-.34a.59.59,0,0,1,.58-.6h0a.54.54,0,0,1,.58.48h0a.34.34,0,0,1-.24.37h0a.41.41,0,0,1,.31.39.66.66,0,0,1-.68.63.66.66,0,0,1-.62-.68h.34a.3.3,0,0,0,.3.34.27.27,0,0,0,.29-.26h0c0-.26-.23-.26-.4-.26Z"/><path class="cls-7" d="M114.58,66.06h-.74v-.33l.76-1h.31v1h.23V66h-.23v.41h-.33Zm0-.9h0l-.45.6h.46Z"/><path class="cls-7" d="M118.86,2.41h-.36V1.28h-.44V1c.25,0,.48-.08.52-.35h.28Z"/><path class="cls-7" d="M118.45,5.35c.15,0,.37,0,.37-.21a.23.23,0,0,0-.23-.24h0c-.18,0-.27.13-.27.31H118a.57.57,0,0,1,.55-.61h0a.54.54,0,0,1,.58.48.32.32,0,0,1-.24.36h0a.39.39,0,0,1,.31.41.66.66,0,0,1-.68.62.66.66,0,0,1-.62-.68h.34a.3.3,0,0,0,.31.34.27.27,0,0,0,.28-.25h0c0-.26-.23-.26-.4-.26Z"/><path class="cls-7" d="M119.13,9h-.73l-.07.4h0a.47.47,0,0,1,.34-.13.54.54,0,0,1,.54.54v0a.63.63,0,0,1-.63.63h0a.57.57,0,0,1-.64-.49V9.94h.35a.27.27,0,0,0,.29.26.3.3,0,0,0,.3-.31v0h0a.32.32,0,0,0-.27-.33h0a.31.31,0,0,0-.27.15H118l.17-1h1Z"/><path class="cls-7" d="M118.3,17.91a.24.24,0,0,0,.23.22c.26,0,.32-.34.34-.53h0a.44.44,0,0,1-.39.19.52.52,0,0,1-.4-.18.63.63,0,0,1,.44-1h0c.53,0,.67.46.67.9s-.19.92-.68.92a.53.53,0,0,1-.57-.49Zm.53-.7a.28.28,0,0,0-.24-.32h0a.32.32,0,0,0-.32.32.33.33,0,0,0,.32.32.29.29,0,0,0,.27-.29Z"/><path class="cls-7" d="M118.16,22.33h-.35V21.21h-.44V21c.25,0,.47-.08.51-.35h.28Z"/><path class="cls-7" d="M119.55,22.33h-.36V21.21h-.43V21c.24,0,.47-.08.51-.35h.28Z"/><path class="cls-7" d="M118.16,34.44h-.35V33.3h-.44V33c.25,0,.47-.08.51-.34h.28Z"/><path class="cls-7" d="M119.86,33a2.19,2.19,0,0,0-.57,1.46h-.38A2.62,2.62,0,0,1,119.5,33h-.83v-.33h1.19Z"/><path class="cls-7" d="M118.16,38.5h-.35V37.37h-.44V37.1c.25,0,.47-.09.51-.35h.28Z"/><path class="cls-7" d="M119,38a.28.28,0,0,0,.23.23c.26,0,.33-.34.34-.53h0a.45.45,0,0,1-.39.2.67.67,0,0,1-.4-.18.64.64,0,0,1-.14-.39.6.6,0,0,1,.58-.64h0c.53,0,.67.46.67.9s-.18.91-.68.91a.54.54,0,0,1-.57-.48Zm.54-.7a.32.32,0,0,0-.28-.34h0a.31.31,0,0,0-.27.32.29.29,0,0,0,.27.33h0a.29.29,0,0,0,.28-.28Z"/><path class="cls-7" d="M117.28,41.57a.62.62,0,0,1,.52-.7h.11a.55.55,0,0,1,.6.51v0c0,.53-.56.57-.81.92h.82v.31h-1.28c0-.41.25-.57.55-.77.15-.12.37-.21.37-.43a.25.25,0,0,0-.23-.27h0c-.21,0-.28.23-.28.41Z"/><path class="cls-7" d="M119.55,42.64h-.36V41.51h-.43v-.27a.43.43,0,0,0,.51-.35h.28Z"/><path class="cls-7" d="M117.28,45.57a.61.61,0,0,1,.51-.7h.12a.55.55,0,0,1,.6.49v0c0,.53-.56.57-.81.93h.82v.3h-1.28c0-.41.25-.57.55-.78.15-.11.37-.21.37-.42a.25.25,0,0,0-.23-.27h0c-.21,0-.28.21-.28.4Z"/><path class="cls-7" d="M119.14,45.6c.15,0,.37,0,.37-.22a.23.23,0,0,0-.23-.23h0c-.18,0-.27.13-.27.31h-.33a.56.56,0,0,1,.54-.59h.06a.53.53,0,0,1,.59.48.35.35,0,0,1-.25.36h0a.37.37,0,0,1,.31.4.61.61,0,0,1-.63.57h0a.59.59,0,0,1-.64-.52v-.11H119a.31.31,0,0,0,.31.34.28.28,0,0,0,.28-.26h0c0-.26-.23-.26-.4-.26Z"/><path class="cls-7" d="M113.89,6.1h-.74V5.77l.76-1h.31v1h.23v.29h-.23v.4h-.33Zm0-.91h0l-.45.6h.46Z"/><path class="cls-7" d="M113.39,22.45H113V21.31h-.44V21c.25,0,.47-.08.51-.35h.28Z"/><path class="cls-7" d="M113.89,21.38a.63.63,0,0,1,.54-.71.33.33,0,0,1,.1,0,.56.56,0,0,1,.59.52v0c0,.53-.56.57-.81.93h.83v.3h-1.28c0-.4.24-.57.55-.79.15-.11.36-.2.36-.42a.25.25,0,0,0-.23-.26h0c-.21,0-.28.21-.28.4Z"/><path class="cls-7" d="M113.39,30.53H113V29.39h-.44v-.27c.25,0,.47-.08.51-.34h.28Z"/><path class="cls-7" d="M114.77,29.23a.27.27,0,0,0-.24-.21c-.25,0-.32.34-.33.53h0a.39.39,0,0,1,.39-.2.52.52,0,0,1,.4.18.63.63,0,0,1-.13.88.84.84,0,0,1-.31.12h0c-.52,0-.66-.46-.66-.9s.18-.91.68-.91a.51.51,0,0,1,.56.47h0Zm-.54.71a.3.3,0,0,0,.28.32h0a.29.29,0,0,0,.28-.31h0a.29.29,0,0,0-.27-.32h0a.29.29,0,0,0-.28.3v0Z"/><path class="cls-7" d="M113.39,34.55H113V33.41h-.44v-.27c.25,0,.47-.08.51-.34h.28Z"/><path class="cls-7" d="M114.5,32.76a.53.53,0,0,1,.58.46h0a.39.39,0,0,1-.25.37h0a.38.38,0,0,1,.32.41.58.58,0,0,1-.61.56h0c-.33,0-.66-.17-.66-.54a.42.42,0,0,1,.33-.43h0a.35.35,0,0,1-.26-.36.53.53,0,0,1,.58-.47Zm0,1.55a.29.29,0,0,0,.3-.28h0a.31.31,0,0,0-.29-.28h0a.3.3,0,0,0-.31.25v0a.29.29,0,0,0,.29.3Zm0-.82a.23.23,0,0,0,.28-.18.24.24,0,0,0-.18-.29h-.1a.25.25,0,0,0-.27.21h0a.25.25,0,0,0,.25.24h0Z"/><path class="cls-7" d="M112.51,41.69A.62.62,0,0,1,113,41h.11a.55.55,0,0,1,.6.51v0c0,.52-.56.57-.81.93h.82v.29h-1.28c0-.4.25-.56.55-.77s.37-.21.37-.43a.25.25,0,0,0-.23-.27h0c-.2,0-.27.22-.27.4Z"/><path class="cls-7" d="M113.89,41.69a.63.63,0,0,1,.54-.71h.1a.56.56,0,0,1,.59.52v0c0,.52-.56.57-.81.93h.83v.29h-1.28c0-.4.24-.56.55-.77.15-.11.36-.21.36-.43a.25.25,0,0,0-.23-.27h0c-.21,0-.28.22-.28.4Z"/><path class="cls-7" d="M114.08,9.29a.29.29,0,0,0-.24-.22c-.25,0-.32.34-.33.53h0a.47.47,0,0,1,.4-.19.56.56,0,0,1,.4.19.53.53,0,0,1,.13.39.59.59,0,0,1-.56.63h0c-.53,0-.67-.46-.67-.9s.19-.92.69-.92a.53.53,0,0,1,.56.49Zm-.54.71a.29.29,0,0,0,.26.32h0a.28.28,0,0,0,.27-.3h0c0-.16-.08-.33-.27-.33a.3.3,0,0,0-.27.31Z"/><polygon class="cls-2" points="109.3 3.98 105.92 3.98 104.24 5.43 105.92 6.88 109.3 6.88 110.98 5.43 109.3 3.98"/><path class="cls-7" d="M106.85,6a.63.63,0,0,1-.44.22.78.78,0,0,1-.79-.74.19.19,0,0,1,0-.08.77.77,0,0,1,.71-.84h.07a.64.64,0,0,1,.67.56h-.33a.32.32,0,0,0-.34-.27c-.31,0-.43.27-.43.54s.12.53.43.53a.35.35,0,0,0,.38-.3h-.35V5.38h.67v.86h-.22Z"/><path class="cls-7" d="M107.39,4.63h.34l.66,1.06h0V4.63h.32V6.21h-.35l-.65-1.06h0V6.21h-.33Z"/><path class="cls-7" d="M109,4.64h.68a.68.68,0,0,1,.72.65v.13c0,.46-.23.8-.72.8H109Zm.35,1.29h.31c.2,0,.39-.12.39-.47s-.11-.53-.45-.53h-.25Z"/><rect class="cls-2" x="108.94" y="76.29" width="2.47" height="2.9" rx="0.41"/><polygon class="cls-2" points="109.3 76.29 105.92 76.29 104.24 77.74 105.92 79.19 109.3 79.19 110.98 77.74 109.3 76.29"/><path class="cls-7" d="M106.85,78.35a.54.54,0,0,1-.44.22.83.83,0,0,1,0-1.66.64.64,0,0,1,.67.56h-.33a.34.34,0,0,0-.34-.27c-.31,0-.43.27-.43.55s.12.52.43.52a.33.33,0,0,0,.38-.27v0h-.35v-.26h.67v.86h-.22Z"/><path class="cls-7" d="M107.39,77h.34l.66,1.06h0V77h.32v1.58h-.35l-.65-1.06h0v1.06h-.33Z"/><path class="cls-7" d="M109,77h.68a.69.69,0,0,1,.73.65.53.53,0,0,1,0,.13c0,.46-.23.8-.72.8H109Zm.35,1.29h.31c.2,0,.39-.13.39-.48s-.11-.52-.45-.52h-.25Z"/><rect class="cls-2" x="120.97" y="3.97" width="2.47" height="2.9" rx="0.41"/><polygon class="cls-2" points="123.11 3.97 126.48 3.97 128.16 5.43 126.48 6.88 123.11 6.88 121.42 5.43 123.11 3.97"/><path class="cls-7" d="M123.14,6a.54.54,0,0,1-.44.22.76.76,0,0,1-.78-.74V5.44a.78.78,0,0,1,.72-.84h.06a.63.63,0,0,1,.67.56H123a.32.32,0,0,0-.34-.27c-.31,0-.43.27-.43.54s.12.53.43.53a.34.34,0,0,0,.38-.3h-.35V5.38h.66v.86h-.22Z"/><path class="cls-7" d="M123.68,4.63H124l.66,1.06h0V4.63H125V6.21h-.34L124,5.15h0V6.21h-.33Z"/><path class="cls-7" d="M125.32,4.64H126a.69.69,0,0,1,.73.65.62.62,0,0,1,0,.13.71.71,0,0,1-.61.79h-.8Zm.35,1.29H126c.2,0,.39-.12.39-.47s-.11-.53-.45-.53h-.25Z"/><rect class="cls-2" x="120.98" y="76.3" width="2.47" height="2.9" rx="0.41"/><polygon class="cls-2" points="123.12 76.3 126.49 76.3 128.17 77.75 126.49 79.19 123.12 79.19 121.43 77.75 123.12 76.3"/><path class="cls-7" d="M123.15,78.36a.54.54,0,0,1-.44.22.83.83,0,1,1,0-1.66.63.63,0,0,1,.67.56h-.33a.32.32,0,0,0-.34-.27c-.31,0-.43.27-.43.54s.12.53.43.53a.34.34,0,0,0,.38-.3h-.35v-.26h.66v.86h-.22Z"/><path class="cls-7" d="M123.69,77H124l.66,1.05h0V77H125v1.58h-.34L124,77.47h0v1.06h-.33Z"/><path class="cls-7" d="M125.33,77H126a.69.69,0,0,1,.73.65.62.62,0,0,1,0,.13.71.71,0,0,1-.61.79h-.8Zm.35,1.29H126c.2,0,.39-.13.39-.48s-.11-.52-.45-.52h-.25Z"/><path class="cls-7" d="M113.81,12.79a.53.53,0,0,1,.58.46v0a.4.4,0,0,1-.26.37h0a.4.4,0,0,1,.33.42.59.59,0,0,1-.63.55h0c-.33,0-.66-.17-.66-.54a.4.4,0,0,1,.32-.43h0a.35.35,0,0,1-.25-.36.53.53,0,0,1,.57-.49Zm0,1.56a.3.3,0,0,0,.29-.28h0a.28.28,0,0,0-.28-.28h0a.28.28,0,0,0-.31.24v0a.31.31,0,0,0,.29.3Zm0-.82c.14,0,.26-.07.26-.22a.24.24,0,0,0-.22-.25h0a.25.25,0,0,0-.27.22h0a.26.26,0,0,0,.27.23h0Z"/><path class="cls-7" d="M113.39,18.47H113V17.35h-.44v-.28c.25,0,.47-.08.51-.35h.28Z"/><path class="cls-7" d="M114.49,16.7c.35,0,.65.21.65.9s-.3.92-.65.92-.63-.22-.63-.92S114.15,16.7,114.49,16.7Zm0,1.52c.29,0,.29-.42.29-.62s0-.62-.29-.62-.28.43-.28.62S114.21,18.21,114.49,18.22Z"/><path class="cls-7" d="M113.39,26.55H113V25.4h-.44v-.26c.25,0,.47-.08.51-.35h.28Z"/><path class="cls-7" d="M114.58,26.13h-.74v-.32l.76-1h.31v1.05h.23v.29h-.23v.41h-.33Zm0-.9h0l-.45.62h.46Z"/><path class="cls-7" d="M112.51,37.53a.61.61,0,0,1,.51-.7h.12a.56.56,0,0,1,.6.5v0c0,.52-.56.57-.81.93h.82v.3h-1.28c0-.41.25-.57.55-.78s.37-.21.37-.42a.25.25,0,0,0-.23-.27h0c-.2,0-.27.21-.27.4Z"/><path class="cls-7" d="M114.49,36.82c.35,0,.65.23.65.91s-.3.91-.65.91-.63-.22-.63-.91S114.15,36.82,114.49,36.82Zm0,1.53c.29,0,.29-.42.29-.62s0-.61-.29-.61-.28.43-.28.61S114.21,38.35,114.49,38.35Z"/><path class="cls-7" d="M112.51,45.66A.61.61,0,0,1,113,45h.12a.55.55,0,0,1,.6.49v0c0,.53-.56.57-.81.93h.82v.3h-1.28c0-.41.25-.57.55-.78s.37-.21.37-.42a.25.25,0,0,0-.23-.27h0c-.2,0-.27.21-.27.4Z"/><path class="cls-7" d="M114.58,46.32h-.74V46l.76-1h.31v1h.23v.3h-.23v.4h-.33Zm0-.88h0l-.45.59h.46Z"/><path class="cls-7" d="M119.17,13a2.17,2.17,0,0,0-.57,1.45h-.38A2.5,2.5,0,0,1,118.8,13H118v-.33h1.19Z"/><path class="cls-7" d="M118.16,26.44h-.35V25.3h-.44V25c.25,0,.47-.08.51-.35h.28Z"/><path class="cls-7" d="M119.14,25.39c.15,0,.37,0,.37-.22a.22.22,0,0,0-.23-.22h0c-.18,0-.27.12-.27.3h-.33a.57.57,0,0,1,.54-.6h.06a.55.55,0,0,1,.59.48.34.34,0,0,1-.25.36h0a.39.39,0,0,1,.31.4.61.61,0,0,1-.63.58h0a.58.58,0,0,1-.64-.51v-.12H119a.3.3,0,0,0,.31.34.25.25,0,0,0,.28-.23v0h0c0-.26-.23-.25-.4-.25Z"/><path class="cls-7" d="M118.16,30.41h-.35V29.29h-.44V29c.25,0,.47-.08.51-.35h.28Z"/><path class="cls-7" d="M119.82,29h-.72l-.07.4h0a.42.42,0,0,1,.34-.12.52.52,0,0,1,.54.53v.06a.63.63,0,0,1-.63.62h0a.59.59,0,0,1-.65-.52v0H119a.28.28,0,0,0,.29.26.33.33,0,0,0,.3-.33h0a.29.29,0,0,0-.26-.32h0a.25.25,0,0,0-.27.14h-.32l.17-1h1Z"/><polygon class="cls-3" points="104.52 3 107.44 3 108.9 1.55 107.44 0.1 104.52 0.1 103.06 1.55 104.52 3"/><path class="cls-3" d="M110.88.09H107.4l-2,1.46,2,1.45h3.48c.29,0,.52-.18.52-.39V.48C111.4.27,111.17.09,110.88.09Z"/><rect class="cls-3" x="105.16" y="0.1" width="3.88" height="2.9"/><path class="cls-7" d="M105.53,2.35h-.39l-.52-1.6H105l.36,1.12h0L105.7.75h.37Z"/><path class="cls-7" d="M106.21.75H107c.31,0,.51.1.51.4a.33.33,0,0,1-.22.33.4.4,0,0,1,.3.41c0,.32-.28.46-.57.46h-.77Zm.35.65h.36a.18.18,0,0,0,.21-.15v0c0-.15-.12-.19-.24-.19h-.33Zm0,.68h.38c.13,0,.26-.05.26-.21s-.1-.23-.26-.23h-.38Z"/><path class="cls-7" d="M108.23.75h.36l.6,1.6h-.37L108.7,2h-.6l-.12.36h-.36Zm0,1h.41l-.2-.59h0Z"/><path class="cls-7" d="M109.69,1h-.48V.75h1.31V1H110V2.35h-.35Z"/><polygon class="cls-3" points="127.81 0 124.89 0 123.43 1.46 124.89 2.91 127.81 2.91 129.27 1.46 127.81 0"/><path class="cls-3" d="M121.46,2.9H125l2-1.45L125,0H121.5c-.29,0-.53.17-.53.39V2.53C121,2.74,121.17,2.9,121.46,2.9Z"/><rect class="cls-3" x="123.29" width="3.88" height="2.9"/><path class="cls-7" d="M122.87,2.25h-.4L122,.65h.37l.35,1.12h0l.36-1.12h.36Z"/><path class="cls-7" d="M123.54.65h.76c.3,0,.51.1.51.4a.35.35,0,0,1-.22.33.4.4,0,0,1,.29.41c0,.32-.27.47-.56.47h-.78Zm.36.65h.35c.13,0,.22-.05.22-.19s-.12-.19-.25-.19h-.32Zm0,.69h.37c.14,0,.26-.05.26-.22s-.1-.23-.25-.23h-.38Z"/><path class="cls-7" d="M125.56.65H126l.59,1.6h-.36l-.12-.36h-.6l-.13.37H125Zm0,1H126l-.21-.59h0Z"/><path class="cls-7" d="M127.05,1.11h-.48V.82h1.31v.29h-.48V2.42h-.35Z"/><path class="cls-8" d="M110.93,72.35c.26,0,.47.13.47.28V75c0,.16-.22.28-.48.28h-6.08l-3.29-1.45,3.29-1.45Z"/><polygon class="cls-8" points="106.34 73.81 104.88 72.36 101.96 72.36 100.5 73.81 101.96 75.25 104.88 75.25 106.34 73.81"/><path class="cls-7" d="M102.17,73.25h.3v.16h0a.4.4,0,0,1,.36-.2c.33,0,.42.19.42.48v.71h-.32v-.65c0-.19,0-.29-.2-.29s-.25.1-.25.33v.61h-.31Z"/><path class="cls-7" d="M103.76,74.07c0,.21.16.3.35.3s.31,0,.31-.21-.24-.19-.47-.26-.48-.16-.48-.45.31-.48.6-.48.64.14.64.51h-.34c0-.19-.15-.24-.32-.24s-.24.05-.24.18.08.14.48.24a.49.49,0,0,1,.47.46c0,.35-.23.51-.66.51s-.69-.17-.68-.56Z"/><path class="cls-7" d="M105,73h.35V74.3h.77v.3H105Z"/><path class="cls-7" d="M106.29,73h1.19v.29h-.84v.34h.77v.27h-.77v.39h.85v.3h-1.2Z"/><path class="cls-7" d="M107.73,73h1.19v.29h-.84v.34h.77v.27h-.77v.39H109v.3h-1.21Z"/><path class="cls-7" d="M109.17,73h.72a.5.5,0,0,1,.54.47c0,.28-.13.53-.34.53h-.57v.57h-.35Zm.35.74h.27c.16,0,.31,0,.31-.23s-.15-.24-.31-.24h-.27Z"/><path class="cls-6" d="M111.21,55h-5.92c-.11,0-.2-.13-.2-.3V52.38c0-.16.09-.3.2-.3h5.92c.11,0,.2.14.2.3v2.29C111.41,54.88,111.32,55,111.21,55Z"/><polygon class="cls-6" points="103.55 53.52 105.01 54.97 107.92 54.97 109.38 53.52 107.92 52.08 105.01 52.08 103.55 53.52"/><path class="cls-5" d="M111.22,51.06h-5.34c-.09,0-.17-.14-.17-.3v-2.3c0-.17.08-.3.17-.3h5.34c.1,0,.18.13.18.3v2.3C111.4,50.88,111.32,51.06,111.22,51.06Z"/><polygon class="cls-5" points="104.07 49.6 105.52 51.05 108.43 51.05 109.89 49.6 108.43 48.16 105.52 48.16 104.07 49.6"/><rect class="cls-4" x="108.93" y="44.21" width="2.47" height="2.91" rx="0.41"/><polygon class="cls-4" points="107.02 44.21 109.95 44.21 111.41 45.66 109.95 47.12 107.02 47.12 105.56 45.66 107.02 44.21"/><path class="cls-7" d="M107.47,44.87h.35l.66,1.07h0V44.87h.33v1.59h-.35l-.66-1.07h0v1.07h-.33Z"/><path class="cls-7" d="M110.17,45.41a.33.33,0,0,0-.35-.27c-.31,0-.43.26-.43.54s.12.53.43.53a.36.36,0,0,0,.36-.36h.34a.67.67,0,0,1-.69.65h0a.77.77,0,0,1-.78-.76v-.06a.78.78,0,0,1,.72-.84h.06a.64.64,0,0,1,.69.57Z"/><rect class="cls-4" x="120.97" y="72.35" width="2.47" height="2.91" rx="0.41"/><polygon class="cls-4" points="125.35 75.26 122.43 75.26 120.97 73.8 122.43 72.35 125.35 72.35 126.81 73.8 125.35 75.26"/><path class="cls-7" d="M122.15,73h.35l.66,1.06h0V73h.33V74.6h-.35l-.66-1.06h0V74.6h-.33Z"/><path class="cls-7" d="M124.85,73.55a.33.33,0,0,0-.35-.27c-.31,0-.43.26-.43.54s.12.53.43.53a.36.36,0,0,0,.36-.34v0h.34a.67.67,0,0,1-.69.65h0a.76.76,0,0,1-.77-.75v-.07a.78.78,0,0,1,.72-.84h0a.64.64,0,0,1,.69.57Z"/><rect class="cls-4" x="120.97" y="68.16" width="2.47" height="2.91" rx="0.41"/><polygon class="cls-4" points="125.35 71.06 122.43 71.06 120.97 69.61 122.43 68.17 125.35 68.17 126.81 69.61 125.35 71.06"/><path class="cls-7" d="M122.15,68.82h.35l.66,1.07h0V68.82h.33v1.59h-.35l-.66-1.06h0v1.06h-.33Z"/><path class="cls-7" d="M124.85,69.36a.34.34,0,0,0-.35-.28c-.31,0-.43.27-.43.54s.12.53.43.53a.34.34,0,0,0,.36-.32v0h.34a.67.67,0,0,1-.69.65h0a.83.83,0,0,1,0-1.66.64.64,0,0,1,.69.57Z"/><rect class="cls-4" x="120.97" y="64.1" width="2.47" height="2.91" rx="0.41"/><polygon class="cls-4" points="125.35 67.01 122.43 67.01 120.97 65.56 122.43 64.1 125.35 64.1 126.81 65.56 125.35 67.01"/><path class="cls-7" d="M122.15,64.76h.35l.66,1.06h0V64.76h.33v1.59h-.35l-.66-1.07h0v1.07h-.33Z"/><path class="cls-7" d="M124.85,65.31a.34.34,0,0,0-.35-.28c-.31,0-.43.26-.43.54s.12.53.43.53a.34.34,0,0,0,.36-.32v0h.34a.66.66,0,0,1-.68.64h0a.76.76,0,0,1-.77-.75v-.07a.78.78,0,0,1,.72-.84h0a.64.64,0,0,1,.69.57Z"/><rect class="cls-4" x="120.97" y="56.11" width="2.47" height="2.91" rx="0.41"/><polygon class="cls-4" points="125.35 59.02 122.43 59.02 120.97 57.56 122.43 56.12 125.35 56.12 126.81 57.56 125.35 59.02"/><path class="cls-7" d="M122.15,56.78h.35l.66,1.06h0V56.78h.33v1.58h-.35l-.66-1.06h0v1.06h-.33Z"/><path class="cls-7" d="M124.85,57.31a.35.35,0,0,0-.35-.28c-.31,0-.43.27-.43.54s.12.54.43.54a.36.36,0,0,0,.36-.34v0h.34a.67.67,0,0,1-.69.65h0a.83.83,0,0,1,0-1.66.64.64,0,0,1,.69.57Z"/><rect class="cls-4" x="120.97" y="52.08" width="2.47" height="2.91" rx="0.41"/><polygon class="cls-4" points="125.35 54.99 122.43 54.99 120.97 53.54 122.43 52.09 125.35 52.09 126.81 53.54 125.35 54.99"/><path class="cls-7" d="M122.15,52.75h.35l.66,1.06h0V52.75h.33v1.58h-.35l-.66-1.06h0v1.06h-.33Z"/><path class="cls-7" d="M124.85,53.28a.36.36,0,0,0-.35-.28c-.31,0-.43.27-.43.54s.12.54.43.54a.35.35,0,0,0,.36-.34v0h.34a.67.67,0,0,1-.69.65h0a.83.83,0,0,1,0-1.66.64.64,0,0,1,.69.57Z"/><rect class="cls-4" x="108.93" y="36.08" width="2.47" height="2.91" rx="0.41"/><polygon class="cls-4" points="107.02 36.09 109.95 36.09 111.41 37.53 109.95 38.98 107.02 38.98 105.56 37.53 107.02 36.09"/><path class="cls-7" d="M107.47,36.74h.35l.66,1.07h0V36.74h.33v1.59h-.35l-.66-1.06h0v1.06h-.33Z"/><path class="cls-7" d="M110.17,37.28a.34.34,0,0,0-.35-.28c-.31,0-.43.27-.43.54s.12.53.43.53a.37.37,0,0,0,.36-.35h.34a.67.67,0,0,1-.69.65h0a.83.83,0,0,1,0-1.66.64.64,0,0,1,.69.57Z"/><rect class="cls-4" x="108.93" y="40.27" width="2.47" height="2.91" rx="0.41"/><polygon class="cls-4" points="107.02 40.27 109.95 40.27 111.41 41.73 109.95 43.17 107.02 43.17 105.56 41.73 107.02 40.27"/><path class="cls-7" d="M107.47,40.93h.35l.66,1.07h0V40.93h.33v1.59h-.35l-.66-1.06h0v1.06h-.33Z"/><path class="cls-7" d="M110.17,41.47a.34.34,0,0,0-.35-.28c-.31,0-.43.27-.43.54s.12.53.43.53a.37.37,0,0,0,.36-.35h.34a.67.67,0,0,1-.69.65h0a.83.83,0,1,1,0-1.66.64.64,0,0,1,.69.57Z"/><rect class="cls-4" x="108.93" y="32.02" width="2.47" height="2.91" rx="0.41"/><polygon class="cls-4" points="107.02 32.02 109.95 32.02 111.41 33.48 109.95 34.92 107.02 34.92 105.56 33.48 107.02 32.02"/><path class="cls-7" d="M107.47,32.68h.35l.66,1.07h0V32.68h.33v1.59h-.35l-.66-1.06h0v1.06h-.33Z"/><path class="cls-7" d="M110.17,33.23a.34.34,0,0,0-.35-.28c-.31,0-.43.27-.43.54s.12.53.43.53a.37.37,0,0,0,.36-.35h.34a.68.68,0,0,1-.7.64h0a.77.77,0,0,1-.78-.76v-.06a.78.78,0,0,1,.72-.84h.06a.65.65,0,0,1,.69.58Z"/><rect class="cls-4" x="108.92" y="28.01" width="2.47" height="2.91" rx="0.41"/><polygon class="cls-4" points="107.01 28.01 109.94 28.01 111.4 29.47 109.94 30.92 107.01 30.92 105.55 29.47 107.01 28.01"/><path class="cls-7" d="M107.46,28.67h.35l.66,1.06h0V28.67h.33v1.58h-.35l-.66-1.05h0v1.05h-.33Z"/><path class="cls-7" d="M110.16,29.21a.33.33,0,0,0-.35-.27c-.31,0-.43.26-.43.54s.12.53.43.53.33-.14.36-.36h.34a.67.67,0,0,1-.69.65h0a.77.77,0,0,1-.78-.76v-.06a.78.78,0,0,1,.72-.84h.06a.66.66,0,0,1,.69.57Z"/><rect class="cls-4" x="108.93" y="24.03" width="2.47" height="2.91" rx="0.41"/><polygon class="cls-4" points="107.02 24.04 109.95 24.04 111.41 25.48 109.95 26.93 107.02 26.93 105.56 25.48 107.02 24.04"/><path class="cls-7" d="M107.47,24.7h.35l.66,1.05h0V24.7h.33v1.58h-.35l-.66-1.06h0v1.06h-.33Z"/><path class="cls-7" d="M110.17,25.23a.35.35,0,0,0-.35-.28c-.31,0-.43.27-.43.55s.12.53.43.53a.36.36,0,0,0,.36-.36h.34a.67.67,0,0,1-.69.65h0a.77.77,0,0,1-.78-.76V25.5a.78.78,0,0,1,.72-.84h.06a.64.64,0,0,1,.69.57Z"/><rect class="cls-4" x="108.93" y="19.95" width="2.47" height="2.91" rx="0.41"/><polygon class="cls-4" points="107.02 19.95 109.95 19.95 111.41 21.4 109.95 22.85 107.02 22.85 105.56 21.4 107.02 19.95"/><path class="cls-7" d="M107.47,20.61h.35l.66,1.07h0V20.61h.33V22.2h-.35l-.66-1.06h0V22.2h-.33Z"/><path class="cls-7" d="M110.17,21.15a.36.36,0,0,0-.35-.28c-.31,0-.43.27-.43.54s.12.53.43.53a.36.36,0,0,0,.36-.35h.34a.67.67,0,0,1-.7.64h0a.76.76,0,0,1-.78-.76v-.06a.79.79,0,0,1,.72-.84h.06a.66.66,0,0,1,.69.58Z"/><rect class="cls-4" x="108.93" y="68.16" width="2.47" height="2.91" rx="0.41"/><polygon class="cls-4" points="107.02 68.17 109.95 68.17 111.41 69.61 109.95 71.06 107.02 71.06 105.56 69.61 107.02 68.17"/><path class="cls-7" d="M107.47,68.82h.35l.66,1.07h0V68.82h.33v1.59h-.35l-.66-1.06h0v1.06h-.33Z"/><path class="cls-7" d="M110.17,69.37a.34.34,0,0,0-.35-.28c-.31,0-.43.27-.43.54s.12.53.43.53a.37.37,0,0,0,.36-.35h.34a.68.68,0,0,1-.7.64h0a.77.77,0,0,1-.78-.76v-.06a.78.78,0,0,1,.72-.84h.06a.66.66,0,0,1,.69.57Z"/><rect class="cls-4" x="108.93" y="64.1" width="2.47" height="2.91" rx="0.41"/><polygon class="cls-4" points="107.02 64.1 109.95 64.1 111.41 65.56 109.95 67.01 107.02 67.01 105.56 65.56 107.02 64.1"/><path class="cls-7" d="M107.47,64.76h.35l.66,1.06h0V64.76h.33v1.59h-.35l-.66-1.06h0v1.06h-.33Z"/><path class="cls-7" d="M110.17,65.3a.33.33,0,0,0-.35-.27c-.31,0-.43.26-.43.54s.12.53.43.53.33-.14.36-.36h.34a.67.67,0,0,1-.69.65h0a.77.77,0,0,1-.78-.76v-.06a.78.78,0,0,1,.72-.84h.06a.66.66,0,0,1,.69.57Z"/><rect class="cls-4" x="108.93" y="60.09" width="2.47" height="2.91" rx="0.41"/><polygon class="cls-4" points="107.02 60.09 109.95 60.09 111.41 61.54 109.95 63 107.02 63 105.56 61.54 107.02 60.09"/><path class="cls-7" d="M107.47,60.75h.35l.66,1.07h0V60.75h.33v1.59h-.35l-.66-1.06h0v1.06h-.33Z"/><path class="cls-7" d="M110.17,61.29a.35.35,0,0,0-.35-.28c-.31,0-.43.27-.43.55s.12.53.43.53a.36.36,0,0,0,.36-.36h.34a.67.67,0,0,1-.69.65h0a.77.77,0,0,1-.78-.76v-.06a.78.78,0,0,1,.72-.84h.06a.64.64,0,0,1,.69.57Z"/><rect class="cls-4" x="108.93" y="56.11" width="2.47" height="2.91" rx="0.41"/><polygon class="cls-4" points="107.02 56.12 109.95 56.12 111.41 57.56 109.95 59.02 107.02 59.02 105.56 57.56 107.02 56.12"/><path class="cls-7" d="M107.47,56.77h.35l.66,1.07h0V56.77h.33v1.59h-.35l-.66-1.06h0v1.06h-.33Z"/><path class="cls-7" d="M110.17,57.31a.35.35,0,0,0-.35-.28c-.31,0-.43.27-.43.54s.12.53.43.53a.37.37,0,0,0,.36-.35h.34a.67.67,0,0,1-.69.65h0a.83.83,0,0,1,0-1.66.64.64,0,0,1,.69.57Z"/><rect class="cls-4" x="108.93" y="12.16" width="2.47" height="2.91" rx="0.41"/><polygon class="cls-4" points="107.02 12.16 109.95 12.16 111.41 13.62 109.95 15.07 107.02 15.07 105.56 13.62 107.02 12.16"/><path class="cls-7" d="M107.47,12.82h.35l.66,1.07h0V12.82h.33v1.59h-.35l-.66-1.06h0v1.06h-.33Z"/><path class="cls-7" d="M110.17,13.37a.34.34,0,0,0-.35-.28c-.31,0-.43.27-.43.54s.12.53.43.53a.37.37,0,0,0,.36-.35h.34a.68.68,0,0,1-.7.64h0a.77.77,0,0,1-.78-.76v-.06a.78.78,0,0,1,.72-.84h.06a.66.66,0,0,1,.69.57Z"/><rect class="cls-4" x="108.92" y="16.07" width="2.47" height="2.91" rx="0.41"/><polygon class="cls-4" points="107.01 16.07 109.94 16.07 111.4 17.53 109.94 18.98 107.01 18.98 105.55 17.53 107.01 16.07"/><path class="cls-7" d="M107.46,16.73h.35l.66,1.07h0V16.73h.33v1.59h-.35l-.66-1.06h0v1.06h-.33Z"/><path class="cls-7" d="M110.16,17.28a.34.34,0,0,0-.35-.28c-.31,0-.43.27-.43.54s.12.53.43.53a.37.37,0,0,0,.36-.35h.34a.68.68,0,0,1-.7.64h0a.77.77,0,0,1-.78-.76v-.06a.78.78,0,0,1,.72-.84h.06a.66.66,0,0,1,.69.57Z"/><rect class="cls-4" x="108.93" y="8.07" width="2.47" height="2.91" rx="0.41"/><polygon class="cls-4" points="107.02 8.07 109.95 8.07 111.41 9.52 109.95 10.98 107.02 10.98 105.56 9.52 107.02 8.07"/><path class="cls-7" d="M107.47,8.74h.35l.66,1.06h0V8.74h.33v1.58h-.35l-.66-1.06h0v1.06h-.33Z"/><path class="cls-7" d="M110.17,9.27a.35.35,0,0,0-.35-.28c-.31,0-.43.27-.43.55s.12.53.43.53a.36.36,0,0,0,.36-.36h.34a.67.67,0,0,1-.69.65h0A.77.77,0,0,1,109,9.6V9.54a.78.78,0,0,1,.72-.84h.06a.64.64,0,0,1,.69.57Z"/><path class="cls-7" d="M106.4,48.81h.35l.6,1.59H107l-.12-.35h-.6l-.12.35h-.36Zm0,1h.41l-.2-.58h0Z"/><path class="cls-7" d="M107.49,48.81h.35V50.4h-.35Z"/><path class="cls-7" d="M108.14,48.81h.35l.66,1.07h0V48.81h.33V50.4h-.35l-.66-1.07h0V50.4h-.33Z"/><path class="cls-7" d="M110.51,50.38h-.31v-1h-.4v-.24c.23,0,.43-.07.46-.31h.25Z"/><path class="cls-7" d="M105.44,52.73h.75c.3,0,.5.1.5.39a.34.34,0,0,1-.21.33.4.4,0,0,1,.29.41c0,.32-.27.46-.56.46h-.77Zm.35.64h.35c.13,0,.22,0,.22-.19s-.12-.18-.25-.18h-.32Zm0,.68h.37c.14,0,.26,0,.26-.21s-.1-.23-.25-.23h-.38Z"/><path class="cls-7" d="M107,52.73h.34v1.59H107Z"/><path class="cls-7" d="M107.66,52.73H108l.66,1.06h0V52.73H109v1.59h-.35L108,53.25h0v1.07h-.33Z"/><path class="cls-7" d="M109.24,53.36a.54.54,0,0,1,.46-.62h.11a.49.49,0,0,1,.53.45v0c0,.47-.5.51-.73.83h.74v.27h-1.14c0-.37.22-.51.49-.7s.33-.19.33-.38a.23.23,0,0,0-.22-.24h0c-.19,0-.25.19-.25.36Z"/><path class="cls-6" d="M121.19,60.11H127c.11,0,.19.13.19.3v2.27c0,.16-.08.3-.19.3h-5.87c-.1,0-.19-.14-.19-.3V60.45C121,60.22,121.09,60.11,121.19,60.11Z"/><polygon class="cls-6" points="128.78 61.54 127.34 60.11 124.45 60.11 123.01 61.54 124.45 62.98 127.34 62.98 128.78 61.54"/><path class="cls-5" d="M121.15,48.15h5.33c.1,0,.18.14.18.3v2.3c0,.16-.08.3-.18.3h-5.33c-.1,0-.18-.14-.18-.3v-2.3C121,48.29,121.05,48.15,121.15,48.15Z"/><polygon class="cls-5" points="129 49.6 127.54 48.16 124.63 48.16 123.17 49.6 124.63 51.05 127.54 51.05 129 49.6"/><path class="cls-7" d="M122.74,48.81h.36l.59,1.59h-.36l-.12-.35h-.6l-.12.35h-.35Zm0,1h.41l-.2-.59h0Z"/><path class="cls-7" d="M123.83,48.81h.35V50.4h-.35Z"/><path class="cls-7" d="M124.49,48.81h.35l.66,1.07h0V48.81h.33V50.4h-.35l-.66-1.06h0V50.4h-.33Z"/><path class="cls-7" d="M126.07,49.44a.54.54,0,0,1,.46-.62h.1a.5.5,0,0,1,.54.46v0c0,.47-.5.51-.73.83h.74v.27H126c0-.36.22-.51.49-.7s.33-.19.33-.38a.22.22,0,0,0-.2-.24h0c-.19,0-.25.2-.25.36Z"/><path class="cls-7" d="M122.12,60.75h.74c.3,0,.51.1.51.4a.38.38,0,0,1-.22.34.37.37,0,0,1,.29.4c0,.32-.27.45-.56.45h-.76Zm.35.64h.35c.12,0,.21,0,.21-.18s-.11-.19-.24-.19h-.32Zm0,.67h.37c.13,0,.25,0,.25-.2s-.09-.23-.25-.23h-.37Z"/><path class="cls-7" d="M123.67,60.75H124v1.59h-.35Z"/><path class="cls-7" d="M124.32,60.75h.35l.66,1.07h0V60.75h.33v1.59h-.35l-.66-1h0v1h-.33Z"/><path class="cls-7" d="M126.67,62.3h-.31v-1H126v-.19c.22,0,.42-.07.45-.31h.25Z"/><rect class="cls-4" x="120.97" y="40.27" width="2.47" height="2.91" rx="0.41"/><polygon class="cls-4" points="125.35 43.18 122.43 43.18 120.97 41.72 122.43 40.27 125.35 40.27 126.81 41.72 125.35 43.18"/><path class="cls-7" d="M122.15,40.94h.35l.66,1.06h0V40.94h.33v1.58h-.35l-.66-1.06h0v1.06h-.33Z"/><path class="cls-7" d="M124.85,41.47a.33.33,0,0,0-.35-.27c-.31,0-.43.26-.43.54s.12.53.43.53a.36.36,0,0,0,.36-.34v0h.34a.67.67,0,0,1-.69.65h0a.76.76,0,0,1-.77-.75v-.07a.78.78,0,0,1,.72-.84h0a.64.64,0,0,1,.69.57Z"/><rect class="cls-4" x="120.97" y="36.08" width="2.47" height="2.91" rx="0.41"/><polygon class="cls-4" points="125.35 38.99 122.43 38.99 120.97 37.53 122.43 36.08 125.35 36.08 126.81 37.53 125.35 38.99"/><path class="cls-7" d="M122.15,36.75h.35l.66,1.06h0V36.75h.33v1.58h-.35l-.66-1.06h0v1.06h-.33Z"/><path class="cls-7" d="M124.85,37.28a.33.33,0,0,0-.35-.27c-.31,0-.43.26-.43.54s.12.53.43.53a.36.36,0,0,0,.36-.34v0h.34a.67.67,0,0,1-.69.65h0a.76.76,0,0,1-.77-.75v-.07a.78.78,0,0,1,.72-.84h0a.64.64,0,0,1,.69.57Z"/><rect class="cls-4" x="120.97" y="32.02" width="2.47" height="2.91" rx="0.41"/><polygon class="cls-4" points="125.35 34.93 122.43 34.93 120.97 33.47 122.43 32.02 125.35 32.02 126.81 33.47 125.35 34.93"/><path class="cls-7" d="M122.15,32.68h.35l.66,1.06h0V32.68h.33v1.59h-.35l-.66-1.07h0v1.07h-.33Z"/><path class="cls-7" d="M124.85,33.23a.34.34,0,0,0-.35-.28c-.31,0-.43.26-.43.54s.12.53.43.53a.34.34,0,0,0,.36-.32v0h.34a.66.66,0,0,1-.68.64h0a.76.76,0,0,1-.77-.75v-.07a.78.78,0,0,1,.72-.84h0a.64.64,0,0,1,.69.57Z"/><rect class="cls-4" x="120.97" y="28.01" width="2.47" height="2.91" rx="0.41"/><polygon class="cls-4" points="125.35 30.91 122.43 30.91 120.97 29.46 122.43 28.02 125.35 28.02 126.81 29.46 125.35 30.91"/><path class="cls-7" d="M122.15,28.67h.35l.66,1.07h0V28.67h.33v1.59h-.35l-.66-1.06h0v1.06h-.33Z"/><path class="cls-7" d="M124.85,29.21a.35.35,0,0,0-.35-.28c-.31,0-.43.27-.43.54s.12.53.43.53a.34.34,0,0,0,.36-.32v0h.34a.67.67,0,0,1-.69.65h0a.83.83,0,1,1,0-1.66.64.64,0,0,1,.69.57Z"/><rect class="cls-4" x="120.97" y="24.03" width="2.47" height="2.91" rx="0.41"/><polygon class="cls-4" points="125.35 26.94 122.43 26.94 120.97 25.49 122.43 24.03 125.35 24.03 126.81 25.49 125.35 26.94"/><path class="cls-7" d="M122.15,24.69h.35l.66,1.07h0V24.69h.33v1.59h-.35l-.66-1.06h0v1.06h-.33Z"/><path class="cls-7" d="M124.85,25.23a.34.34,0,0,0-.35-.28c-.31,0-.43.27-.43.54s.12.53.43.53a.34.34,0,0,0,.36-.32v0h.34a.67.67,0,0,1-.69.65h0a.83.83,0,1,1,0-1.66.64.64,0,0,1,.69.57Z"/><rect class="cls-4" x="120.97" y="19.99" width="2.47" height="2.91" rx="0.41"/><polygon class="cls-4" points="125.35 22.89 122.43 22.89 120.97 21.45 122.43 20 125.35 20 126.81 21.45 125.35 22.89"/><path class="cls-7" d="M122.15,20.65h.35l.66,1.06h0V20.65h.33v1.58h-.35l-.66-1.09h0V22.2h-.33Z"/><path class="cls-7" d="M124.85,21.19a.35.35,0,0,0-.35-.28c-.31,0-.43.27-.43.55s.12.53.43.53a.36.36,0,0,0,.36-.34v0h.34a.67.67,0,0,1-.69.65h0a.76.76,0,0,1-.77-.75v-.07a.78.78,0,0,1,.72-.84h0a.64.64,0,0,1,.69.57Z"/><rect class="cls-4" x="120.97" y="16.07" width="2.47" height="2.91" rx="0.41"/><polygon class="cls-4" points="125.35 18.98 122.43 18.98 120.97 17.52 122.43 16.07 125.35 16.07 126.81 17.52 125.35 18.98"/><path class="cls-7" d="M122.15,16.73h.35l.66,1.07h0V16.73h.33v1.59h-.35l-.66-1.06h0v1.06h-.33Z"/><path class="cls-7" d="M124.85,17.27a.34.34,0,0,0-.35-.28c-.31,0-.43.27-.43.54s.12.53.43.53a.34.34,0,0,0,.36-.32v0h.34a.67.67,0,0,1-.69.65h0a.83.83,0,1,1,0-1.66.64.64,0,0,1,.69.57Z"/><rect class="cls-4" x="120.97" y="12.16" width="2.47" height="2.91" rx="0.41"/><polygon class="cls-4" points="125.35 15.07 122.43 15.07 120.97 13.61 122.43 12.16 125.35 12.16 126.81 13.61 125.35 15.07"/><path class="cls-7" d="M122.15,12.82h.35l.66,1.06h0V12.82h.33V14.4h-.35l-.66-1.05h0V14.4h-.33Z"/><path class="cls-7" d="M124.85,13.36a.33.33,0,0,0-.35-.27c-.31,0-.43.26-.43.54s.12.53.43.53a.36.36,0,0,0,.36-.34v0h.34a.67.67,0,0,1-.69.65h0a.76.76,0,0,1-.77-.75v-.07a.78.78,0,0,1,.72-.84h0a.64.64,0,0,1,.69.57Z"/><rect class="cls-4" x="120.97" y="8.07" width="2.47" height="2.91" rx="0.41"/><polygon class="cls-4" points="125.35 10.97 122.43 10.97 120.97 9.53 122.43 8.07 125.35 8.07 126.81 9.53 125.35 10.97"/><path class="cls-7" d="M122.15,8.73h.35l.66,1.07h0V8.73h.33v1.59h-.35l-.66-1.06h0v1.06h-.33Z"/><path class="cls-7" d="M124.85,9.27A.35.35,0,0,0,124.5,9c-.31,0-.43.27-.43.54s.12.53.43.53a.34.34,0,0,0,.36-.32v0h.34a.67.67,0,0,1-.69.65h0a.77.77,0,0,1-.77-.77V9.53a.77.77,0,0,1,.71-.83h.06a.64.64,0,0,1,.69.57Z"/><rect class="cls-4" x="120.97" y="44.21" width="2.47" height="2.91" rx="0.41"/><polygon class="cls-4" points="125.35 47.12 122.43 47.12 120.97 45.66 122.43 44.21 125.35 44.21 126.81 45.66 125.35 47.12"/><path class="cls-7" d="M122.15,44.87h.35l.66,1.07h0V44.87h.33v1.59h-.35l-.66-1.07h0v1.07h-.33Z"/><path class="cls-7" d="M124.85,45.41a.35.35,0,0,0-.35-.28c-.31,0-.43.27-.43.55s.12.53.43.53a.36.36,0,0,0,.36-.34v0h.34a.67.67,0,0,1-.69.65h0a.76.76,0,0,1-.77-.75v-.07a.78.78,0,0,1,.72-.84h0a.64.64,0,0,1,.69.57Z"/><g class="cls-9"><path class="cls-10" d="M0,16.11v47H65v-47Zm9.23,1.05a2.76,2.76,0,1,1-2.74,2.78v0a2.74,2.74,0,0,1,2.72-2.75Zm0,44.73A2.8,2.8,0,1,1,12,59.06v0a2.77,2.77,0,0,1-2.76,2.79Zm31.62-40.7a1.48,1.48,0,0,1-1.48-1.46,1.47,1.47,0,0,1,2.94,0h0A1.48,1.48,0,0,1,40.85,21.19ZM52,61a1.47,1.47,0,1,1,1.46-1.47h0A1.45,1.45,0,0,1,52,61Zm9.53-32.29a1.48,1.48,0,0,1-1.47-1.48,1.47,1.47,0,0,1,2.94,0v0a1.46,1.46,0,0,1-1.45,1.47h0Z"/><g id="dispose-properly"><g id="Layer_2-2" data-name="Layer 2-2"><g id="Layer_1-2-2" data-name="Layer 1-2-2"><path class="cls-11" d="M61.85,58.17a.38.38,0,0,0-.42.34h0v.09a.35.35,0,1,0,.69-.12.4.4,0,0,0-.27-.31m0,.47H61.8a.08.08,0,0,1,0-.11,0,0,0,0,1,.07,0h0a0,0,0,0,1,0,0,.09.09,0,0,1-.09.09h0"/><path class="cls-11" d="M64.05,50l-.18-.18-.65.65-.38.39h0v-.39h.35v-.19a.47.47,0,0,0,.26-.61.44.44,0,0,0-.58-.27h0a.54.54,0,0,0-.21.16,2,2,0,0,0-.55-.31A5.77,5.77,0,0,0,61,49v-.22H59.26V49a4.94,4.94,0,0,0-.93.12V49h-.77v.37a2.33,2.33,0,0,0-.7.45.15.15,0,0,0,0,.13V50h-.43v.5h.48l.09.87L55.65,50l-.19.19L57,51.8l.29,3.2c0,.54.11,1.07.15,1.62L56.06,58l.18.19L57.43,57c.06.66.12,1.28.17,1.89a.17.17,0,0,0,.16.16v.77h.65V59h2.27a1.13,1.13,0,1,0,2.11-.8,1.15,1.15,0,0,0-.63-.65V57.3l1,1.09.19-.18L62.15,57c.06-.66.13-1.31.19-2,.08-1,.17-1.91.25-2.84h.91V50.87h-.3Zm-1-.34a.22.22,0,0,1,.15.34h-.3v-.12a.24.24,0,0,0,0-.12.21.21,0,0,1,.17-.1M59.53,49h1.15v.23H59.54Zm-1.69.19H58v.5h-.16Zm-.71.72a3.62,3.62,0,0,1,.41-.27V50h-.4v-.06m.46,5c-.08-.93-.17-1.87-.26-2.79l2.16,2.26-1.77,1.87c0-.45-.09-.9-.13-1.31m.59,4.64h-.14v-.38h.14Zm2.47-1v.07H58c-.06-.65-.12-1.36-.18-2l1.94-2L62,56.91v.5h-.15a1.11,1.11,0,0,0-1.12,1.11v0h0m1.72,0a.59.59,0,0,1-1.18.07v-.07a.6.6,0,0,1,.58-.6h.07a.59.59,0,0,1,.53.59m-.25-3.65L62,56.57l-2.1-2.22L61.16,53h.31v-.34l.9-.93v.34h0c-.09.93-.18,1.88-.26,2.82M61,52.73H59.46v-.25H61.2v.16Zm1.46-1.85h-.14v.5l-.89.94v-.09H59.16V53h1.63l-1.11,1.17-2.37-2.5-.12-1.22h5.35v.4m.08-.9h-4.3v-.59a7,7,0,0,1,.92-.13v.25H61v-.19a6.65,6.65,0,0,1,1,.25,2.36,2.36,0,0,1,.57.35V50m.65,1.19v.65h-.51a1.67,1.67,0,0,1,0-.5l.16-.16Z"/></g></g></g><path class="cls-12" d="M9.23,54.55A4.74,4.74,0,0,0,6.45,63.1H12a4.74,4.74,0,0,0-2.77-8.55Zm0,7.33A2.8,2.8,0,1,1,12,59.06v0a2.77,2.77,0,0,1-2.76,2.79Z"/><path class="cls-12" d="M11.52,16.11H6.93a4.39,4.39,0,1,0,6,1.44A4.34,4.34,0,0,0,11.52,16.11ZM9.23,22.69A2.76,2.76,0,1,1,12,19.92a2.77,2.77,0,0,1-2.77,2.77Z"/><path class="cls-12" d="M40.85,16.8a2.91,2.91,0,1,0,2.89,2.93v0a2.88,2.88,0,0,0-2.87-2.9Zm0,4.39a1.48,1.48,0,0,1-1.48-1.46,1.47,1.47,0,0,1,2.94,0h0A1.48,1.48,0,0,1,40.85,21.19Z"/><path class="cls-12" d="M61.43,24.58a2.68,2.68,0,1,0,2.66,2.7h0a2.68,2.68,0,0,0-2.66-2.69Zm.08,4.15A1.47,1.47,0,1,1,63,27.27a1.46,1.46,0,0,1-1.49,1.46Z"/><path class="cls-12" d="M52,56.84a2.68,2.68,0,1,0,2.66,2.69h0A2.66,2.66,0,0,0,52,56.84ZM52,61a1.47,1.47,0,1,1,1.46-1.47h0A1.45,1.45,0,0,1,52,61Z"/><ellipse class="cls-13" cx="36.26" cy="42.46" rx="0.91" ry="0.92"/><ellipse class="cls-14" cx="36.26" cy="42.46" rx="0.65" ry="0.66"/><ellipse class="cls-13" cx="26.8" cy="49.09" rx="0.91" ry="0.92"/><ellipse class="cls-14" cx="26.8" cy="49.09" rx="0.65" ry="0.66"/><ellipse class="cls-13" cx="26.8" cy="35.8" rx="0.91" ry="0.92"/><ellipse class="cls-14" cx="26.8" cy="35.8" rx="0.65" ry="0.66"/><ellipse class="cls-13" cx="17.83" cy="28.27" rx="0.91" ry="0.92"/><ellipse class="cls-14" cx="17.83" cy="28.27" rx="0.65" ry="0.66"/><ellipse class="cls-13" cx="8.31" cy="34.89" rx="0.91" ry="0.92"/><ellipse class="cls-14" cx="8.31" cy="34.89" rx="0.65" ry="0.66"/><ellipse class="cls-13" cx="8.31" cy="48.28" rx="0.91" ry="0.92"/><ellipse class="cls-14" cx="8.31" cy="48.28" rx="0.65" ry="0.66"/><ellipse class="cls-13" cx="36.26" cy="29.17" rx="0.91" ry="0.92"/><ellipse class="cls-14" cx="36.26" cy="29.17" rx="0.65" ry="0.66"/><ellipse class="cls-13" cx="17.83" cy="41.53" rx="0.91" ry="0.92"/><ellipse class="cls-14" cx="17.83" cy="41.53" rx="0.65" ry="0.66"/><rect class="cls-15" x="17.49" y="19.36" width="1.29" height="1.3" rx="0.26"/><rect class="cls-16" x="17.89" y="19.75" width="0.5" height="0.5" rx="0.15"/><rect class="cls-15" x="22.3" y="19.36" width="1.29" height="1.3" rx="0.26"/><rect class="cls-16" x="22.69" y="19.75" width="0.5" height="0.5" rx="0.15"/><rect class="cls-15" x="27.06" y="19.36" width="1.29" height="1.3" rx="0.26"/><rect class="cls-16" x="27.45" y="19.75" width="0.5" height="0.5" rx="0.15"/><circle class="cls-17" cx="61.56" cy="17.63" r="0.3"/><path class="cls-7" d="M21.7,49.14,26.75,59.6H16.65Zm0-.57L16.25,59.85h10.9Z"/><polygon class="cls-7" points="19.38 53.66 19.5 53.44 25.74 56.99 25.62 57.22 19.38 53.66"/><polygon class="cls-7" points="19.14 54.15 19.26 53.94 26.16 57.88 26.04 58.09 19.14 54.15"/><path class="cls-7" d="M20.28,54l-.21-.11a10.37,10.37,0,0,1,.72-1.25c.33-.47,2.15-.86,2.36-.91l.06.25A5.58,5.58,0,0,0,21,52.8c-.31.43-.7,1.18-.71,1.18"/><path class="cls-7" d="M23.4,55.87l-.13-.22a1,1,0,0,0,.47-.85,3.2,3.2,0,0,1,.18-1.14l.23.09a3.34,3.34,0,0,0-.18,1,1.2,1.2,0,0,1-.62,1.09"/><path class="cls-7" d="M20.76,57.21h-.1c-.52-.07-1.17-1.71-1.18-1.73a1.11,1.11,0,0,1,.32-1.13l.18.18s-.44.43-.27.86c.28.71.76,1.53,1,1.57s.18,0,.19,0a.37.37,0,0,0-.09-.25,2.71,2.71,0,0,1-.53-1.23,2.29,2.29,0,0,1,.27-.62l.21.13a2.1,2.1,0,0,0-.24.5,3,3,0,0,0,.48,1c.21.27.17.43.13.52a.38.38,0,0,1-.35.17"/><path class="cls-7" d="M21.72,57.69a.22.22,0,0,1-.15-.06c-.09,0-.19-.16-.16-.43a4.36,4.36,0,0,1,.82-1.49l.19.16a4.06,4.06,0,0,0-.76,1.36v.18a.7.7,0,0,0,.45-.21,8.51,8.51,0,0,0,.8-1.07l.21.14a8.46,8.46,0,0,1-.85,1.12,1,1,0,0,1-.61.28"/><path class="cls-7" d="M21.65,56.8a2.44,2.44,0,0,1-1-.41l.13-.2a1.84,1.84,0,0,0,.92.36.19.19,0,0,0,0-.18.94.94,0,0,0-.51-.43.62.62,0,0,1-.41-.38A.63.63,0,0,1,20.9,55l.21.14a.43.43,0,0,0-.11.33c0,.09.12.16.27.23a1.08,1.08,0,0,1,.65.59.47.47,0,0,1-.05.38.21.21,0,0,1-.16.11h-.08"/><rect class="cls-7" x="21.23" y="49.71" width="1" height="0.25"/><rect class="cls-7" x="20.93" y="50.32" width="1.54" height="0.25"/><rect class="cls-7" x="20.64" y="50.92" width="2.12" height="0.25"/><rect class="cls-7" x="20.34" y="51.55" width="2.71" height="0.25"/><rect class="cls-7" x="20.1" y="52.14" width="1.61" height="0.25"/><rect class="cls-7" x="19.75" y="52.76" width="1.01" height="0.25"/><rect class="cls-7" x="19.51" y="53.37" width="0.86" height="0.25"/><rect class="cls-7" x="18.87" y="54.59" width="0.8" height="0.25"/><rect class="cls-7" x="23.88" y="54.59" width="0.65" height="0.25"/><rect class="cls-7" x="18.57" y="55.21" width="1.03" height="0.25"/><rect class="cls-7" x="23.77" y="55.21" width="1.03" height="0.25"/><rect class="cls-7" x="18.33" y="55.82" width="1.49" height="0.25"/><rect class="cls-7" x="23.64" y="55.82" width="1.47" height="0.25"/><rect class="cls-7" x="17.98" y="56.42" width="2.18" height="0.25"/><rect class="cls-7" x="22.83" y="56.42" width="0.78" height="0.25"/><rect class="cls-18" x="24.71" y="56.42" width="0.66" height="0.25"/><rect class="cls-7" x="17.69" y="57.03" width="3.84" height="0.25"/><rect class="cls-7" x="22.38" y="57.03" width="2.33" height="0.25"/><rect class="cls-7" x="17.49" y="57.64" width="8.22" height="0.25"/><rect class="cls-7" x="17.1" y="58.25" width="9.19" height="0.25"/><rect class="cls-7" x="16.78" y="58.87" width="9.8" height="0.25"/></g><path class="cls-19" d="M46.76,22h-.15a.25.25,0,0,1-.24-.25v-2.6a.24.24,0,0,1,.24-.24h.15a.26.26,0,0,1,.25.24h0v2.62a.25.25,0,0,1-.25.25h0"/><path class="cls-19" d="M62.91,22h-.15a.25.25,0,0,1-.25-.25h0v-2.6a.24.24,0,0,1,.24-.24h.16a.26.26,0,0,1,.24.23h0v2.61a.25.25,0,0,1-.24.25h0"/><path class="cls-20" d="M63.3,19.73v-.25a.24.24,0,0,0-.24-.24h-.51a.31.31,0,0,0-.22.16H47.17a.25.25,0,0,0-.23-.16h-.5a.24.24,0,0,0-.24.22h0v.25a.25.25,0,0,0,.17.24v1a.27.27,0,0,0-.17.24v.25a.23.23,0,0,0,.23.25h.51a.22.22,0,0,0,.23-.17H62.33a.23.23,0,0,0,.22.17h.51a.23.23,0,0,0,.24-.23h0v-.28a.25.25,0,0,0-.15-.21V20A.24.24,0,0,0,63.3,19.73Z"/><path class="cls-21" d="M62,21.3H47.51c-.11,0-.2-.05-.2-.13V19.8c0-.07.09-.13.2-.13H62c.12,0,.2,0,.2.13v1.37c0,.07-.08.13-.2.13"/><path class="cls-19" d="M48.23,18.38H48a.08.08,0,0,0-.07.07h0v.25s0,.07.06.07h0v.67h.29v-.67a.07.07,0,0,0,.07-.08h0v-.25a.08.08,0,0,0-.07-.07h0"/><path class="cls-22" d="M48.2,19.7h-.38a.06.06,0,0,1,0-.06V19.4h.38a.06.06,0,0,1,.06.06h0v.18a.06.06,0,0,1-.06.06h0"/><path class="cls-19" d="M48.23,22.58H48a.07.07,0,0,1-.07-.06h0v-.25a.08.08,0,0,1,.07-.05v-.69h.29v.69a.08.08,0,0,1,.08.08h0v.25a.08.08,0,0,1-.08.07h0"/><path class="cls-22" d="M48.2,21.28h-.38a0,0,0,0,0,0,0v.19a0,0,0,0,0,0,.05h.38a.06.06,0,0,0,.06-.05h0v-.19a.06.06,0,0,0-.06,0h0"/><path class="cls-19" d="M48.91,18.38h-.27a.08.08,0,0,0-.08.07h0v.25a.07.07,0,0,0,.06.07h0v.67h.29v-.67a.08.08,0,0,0,.09-.06h0v-.25a.07.07,0,0,0-.07-.07h0"/><path class="cls-22" d="M48.88,19.7h-.37a.06.06,0,0,1-.06-.06h0v-.18a.06.06,0,0,1,.06-.06h.37a.06.06,0,0,1,.06.06h0v.18a.06.06,0,0,1-.06.06h0"/><path class="cls-19" d="M48.91,22.58h-.27a.07.07,0,0,1-.07-.06v-.25a.05.05,0,0,1,.06-.05v-.69h.29v.69a.07.07,0,0,1,.07.08h0v.25a.08.08,0,0,1-.07.07h0"/><path class="cls-22" d="M48.88,21.28h-.37a.06.06,0,0,0-.06,0h0v.19a0,0,0,0,0,0,.05h.38a0,0,0,0,0,.06,0h0v-.18a.06.06,0,0,0-.06-.06h0"/><path class="cls-19" d="M49.64,18.38h-.28a.08.08,0,0,0-.08.07h0v.25a.08.08,0,0,0,.08.08h0v.67h.29v-.67a.06.06,0,0,0,.06-.07h0v-.25a.08.08,0,0,0-.07-.07h0"/><path class="cls-22" d="M49.6,19.7h-.37a.06.06,0,0,1-.06-.06h0v-.18a.06.06,0,0,1,.06-.06h.37a.05.05,0,0,1,.06.05h0v.18s0,.05,0,.06h0"/><path class="cls-19" d="M49.64,22.58h-.28s-.07,0-.08-.06h0v-.25a.07.07,0,0,1,.08-.05v-.69h.29v.69a.07.07,0,0,1,.06.07h0v.25a.08.08,0,0,1-.07.07h0"/><path class="cls-22" d="M49.6,21.28h-.37a.06.06,0,0,0-.06,0h0v.19a0,0,0,0,0,0,.05h.38m.06,0h0v-.18a.06.06,0,0,0-.06-.06h0"/><path class="cls-19" d="M50.35,18.38h-.29a.08.08,0,0,0-.07.07h0v.25a.07.07,0,0,0,.07.08h0v.67h.29v-.67a.07.07,0,0,0,.07-.08h0v-.25a.08.08,0,0,0-.08-.07h0"/><path class="cls-22" d="M50.31,19.7h-.37a.06.06,0,0,1-.06-.06h0v-.18a0,0,0,0,1,0-.06h.39a.05.05,0,0,1,.06.05h0v.18s0,.05,0,.06h0"/><path class="cls-19" d="M50.35,22.58h-.29a.07.07,0,0,1-.07-.06h0v-.25a.08.08,0,0,1,.07-.05v-.69h.29v.69a.07.07,0,0,1,.07.07h0v.25a.08.08,0,0,1-.07.07h0"/><path class="cls-22" d="M50.31,21.28h-.37a.06.06,0,0,0-.06,0h0v.19a0,0,0,0,0,0,.05h.38m.06,0h0v-.18a.06.06,0,0,0-.06-.06h0"/><path class="cls-19" d="M51,18.38h-.28a.08.08,0,0,0-.08.07h0v.25a.08.08,0,0,0,.08.08h0v.67H51v-.67a.08.08,0,0,0,.08-.08h0v-.25a.08.08,0,0,0-.08-.07h0"/><path class="cls-22" d="M51,19.7h-.37a.06.06,0,0,1-.06-.06h0v-.18a0,0,0,0,1,0-.06H51a.05.05,0,0,1,.06.05h0v.18s0,.05,0,.06h0"/><path class="cls-19" d="M51,22.58h-.28s-.07,0-.08-.06h0v-.25a.1.1,0,0,1,.08-.05v-.69H51v.69a.08.08,0,0,1,.08.08h0v.25H51"/><path class="cls-22" d="M51,21.28h-.37a.06.06,0,0,0-.06,0h0v.19a0,0,0,0,0,0,.05H51m.06,0h0v-.18a.06.06,0,0,0-.06-.06h0"/><path class="cls-19" d="M51.72,18.38h-.28a.08.08,0,0,0-.08.07h0v.25a.08.08,0,0,0,.08.08h0v.67h.28v-.67a.07.07,0,0,0,.07-.08h0v-.25a.08.08,0,0,0-.07-.07h0"/><path class="cls-22" d="M51.68,19.7h-.37a.06.06,0,0,1-.06-.06h0v-.18a.06.06,0,0,1,.06-.06h.37a.08.08,0,0,1,.07.05h0v.18a.06.06,0,0,1-.07.06"/><path class="cls-19" d="M51.72,22.58h-.28s-.07,0-.08-.06h0v-.25a.07.07,0,0,1,.08-.05v-.69h.28v.69a.07.07,0,0,1,.07.08h0v.25a.08.08,0,0,1-.07.07h0"/><path class="cls-22" d="M51.68,21.28h-.37a.06.06,0,0,0-.06,0h0v.19a0,0,0,0,0,0,.05h.38s.06,0,.07,0h0v-.18s0-.07-.07-.06"/><path class="cls-19" d="M52.41,18.38h-.28a.08.08,0,0,0-.08.07h0v.25a.08.08,0,0,0,.08.08h0v.67h.29v-.67a.06.06,0,0,0,.06-.07h0v-.25a.08.08,0,0,0-.07-.07h0"/><path class="cls-22" d="M52.38,19.7H52l-.06-.06v-.18A.06.06,0,0,1,52,19.4h.38v.24a.06.06,0,0,1,0,.06"/><path class="cls-19" d="M52.41,22.58h-.28s-.07,0-.08-.06h0v-.25a.07.07,0,0,1,.08-.05v-.69h.29v.69a.07.07,0,0,1,.06.07h0v.25a.08.08,0,0,1-.07.07h0"/><path class="cls-22" d="M52.38,21.28H52l-.06,0v.19a.06.06,0,0,0,.06.05h.38a0,0,0,0,0,.06,0h0v-.18a.06.06,0,0,0,0-.06"/><path class="cls-19" d="M53.11,18.38h-.28a.08.08,0,0,0-.08.07h0v.25a.07.07,0,0,0,.07.07h0v.67h.29v-.67a.08.08,0,0,0,.08-.08h0v-.25a.08.08,0,0,0-.08-.07h0"/><path class="cls-22" d="M53.07,19.7h-.36s-.07,0-.07-.06v-.18a.06.06,0,0,1,.06-.06h.37s.06,0,.07.06v.18a.07.07,0,0,1-.07.06"/><path class="cls-19" d="M53.11,22.58h-.28s-.07,0-.08-.06h0v-.25a.08.08,0,0,1,.07-.05v-.69h.29v.69a.08.08,0,0,1,.08.08h0v.25a.08.08,0,0,1-.08.07h0"/><path class="cls-22" d="M53.07,21.28h-.36s-.06,0-.07,0v.19a0,0,0,0,0,0,.05H53s.07,0,.07-.05v-.19s0-.06-.07,0"/><path class="cls-19" d="M53.81,18.38h-.28a.09.09,0,0,0-.08.06h0v.25a.07.07,0,0,0,.07.08h0v.67h.29v-.67a.08.08,0,0,0,.08-.08h0v-.25a.08.08,0,0,0-.08-.07h0"/><path class="cls-22" d="M53.78,19.7H53.4a.06.06,0,0,1-.06-.06h0v-.18a.06.06,0,0,1,.06-.06h.38v.24a.06.06,0,0,1,0,.06"/><path class="cls-19" d="M53.81,22.58h-.28a.06.06,0,0,1-.08,0v0h0v-.25a.08.08,0,0,1,.07-.05v-.69h.29v.69a.08.08,0,0,1,.08.08h0v.25a.08.08,0,0,1-.08.07h0"/><path class="cls-22" d="M53.78,21.28H53.4a.06.06,0,0,0-.06,0h0v.19a.06.06,0,0,0,.06.05h.38m0,0h0v-.18a.06.06,0,0,0,0-.06"/><path class="cls-19" d="M54.5,18.38h-.28a.08.08,0,0,0-.07.07h0v.25a.05.05,0,0,0,.05.07h0v.67h.29v-.67a.08.08,0,0,0,.08-.08h0v-.25a.08.08,0,0,0-.08-.07h0"/><path class="cls-22" d="M54.47,19.7h-.36a.06.06,0,0,1-.06-.06h0v-.18a.06.06,0,0,1,.06-.06h.37s.06,0,.07.06v.18a.07.07,0,0,1-.07.06"/><path class="cls-19" d="M54.5,22.58h-.28a.07.07,0,0,1-.07-.06h0v-.25a.05.05,0,0,1,.06-.05v-.69h.29v.69a.08.08,0,0,1,.08.08h0v.25a.08.08,0,0,1-.08.07h0"/><path class="cls-22" d="M54.47,21.28h-.36a.06.06,0,0,0-.06,0h0v.19a.06.06,0,0,0,0,.08h.4a.07.07,0,0,0,.07-.06v-.21s0-.06-.07,0"/><path class="cls-19" d="M55.22,18.38h-.29a.08.08,0,0,0-.07.07h0v.25a.07.07,0,0,0,.07.08h0v.67h.29v-.67a.07.07,0,0,0,.07-.08h0v-.25a.08.08,0,0,0-.07-.07h0"/><path class="cls-22" d="M55.18,19.7h-.37a.06.06,0,0,1-.06-.06h0V19.4h.38a.05.05,0,0,1,.06.05h0v.18a.06.06,0,0,1-.06.06h0"/><path class="cls-19" d="M55.22,22.58h-.29a.07.07,0,0,1-.07-.06h0v-.25a.08.08,0,0,1,.07-.05v-.69h.29v.69a.07.07,0,0,1,.07.08h0v.25a.08.08,0,0,1-.07.07h0"/><path class="cls-22" d="M55.18,21.28h-.37a.06.06,0,0,0-.06,0h0v.19a0,0,0,0,0,0,.05h.38m.06,0h0v-.18a.06.06,0,0,0-.06-.06h0"/><path class="cls-19" d="M55.91,18.38h-.27a.09.09,0,0,0-.08.06h0v.25a.07.07,0,0,0,.06.07h0v.67h.29v-.67a.08.08,0,0,0,.09-.06h0v-.25a.07.07,0,0,0-.07-.07h0"/><path class="cls-22" d="M55.88,19.7h-.37a.06.06,0,0,1-.06-.06h0v-.18a.06.06,0,0,1,.06-.06h.37a.06.06,0,0,1,.06.06h0v.18a.06.06,0,0,1-.06.06h0"/><path class="cls-19" d="M55.91,22.58h-.27a.07.07,0,0,1-.08,0h0v-.25a.08.08,0,0,1,.07-.05v-.69h.29v.69a.07.07,0,0,1,.07.08h0v.25a.08.08,0,0,1-.07.07h0"/><path class="cls-22" d="M55.88,21.28h-.37a.06.06,0,0,0-.06,0h0v.19a0,0,0,0,0,0,.05h.38a0,0,0,0,0,.06,0v-.21a.06.06,0,0,0-.06,0h0"/><path class="cls-19" d="M56.68,18.38h-.29a.08.08,0,0,0-.07.07h0v.25a.07.07,0,0,0,.07.08h0v.67h.29v-.67a.07.07,0,0,0,.07-.07h0v-.25a.08.08,0,0,0-.07-.07h0"/><path class="cls-22" d="M56.64,19.7h-.37a.06.06,0,0,1-.06-.06h0v-.18a.06.06,0,0,1,.06-.06h.37a.05.05,0,0,1,.06.05h0v.18a.06.06,0,0,1-.06.06h0"/><path class="cls-19" d="M56.68,22.58h-.29a.07.07,0,0,1-.07-.06h0v-.25a.08.08,0,0,1,.07-.05v-.69h.29v.69a.07.07,0,0,1,.07.07h0v.25a.08.08,0,0,1-.07.07h0"/><path class="cls-22" d="M56.64,21.28h-.37a.06.06,0,0,0-.06,0h0v.19a.06.06,0,0,0,.06.05h.37m.06,0h0v-.18a.06.06,0,0,0-.06-.06h0"/><path class="cls-19" d="M57.36,18.38h-.28a.08.08,0,0,0-.08.07h0v.25a.08.08,0,0,0,.08.08h0v.67h.29v-.67a.06.06,0,0,0,.06-.07h0v-.25a.08.08,0,0,0-.07-.07h0"/><path class="cls-22" d="M57.32,19.7H57a.06.06,0,0,1-.06-.06h0v-.18A.06.06,0,0,1,57,19.4h.37a.05.05,0,0,1,.06.05h0v.18s0,.05,0,.06h0"/><path class="cls-19" d="M57.36,22.58h-.28s-.07,0-.08-.06h0v-.25a.07.07,0,0,1,.08-.05v-.69h.29v.69a.07.07,0,0,1,.06.07h0v.25a.08.08,0,0,1-.07.07h0"/><path class="cls-22" d="M57.32,21.28H57a.06.06,0,0,0-.06,0h0v.19a.06.06,0,0,0,.06.05h.37m.06,0h0v-.18a.06.06,0,0,0-.06-.06h0"/><path class="cls-19" d="M58.05,18.38H57.8a.08.08,0,0,0-.08.07h0v.25a.08.08,0,0,0,.08.08h0v.67h.29v-.67a.06.06,0,0,0,.06-.07h0v-.25a.08.08,0,0,0-.07-.07h0"/><path class="cls-22" d="M58,19.7h-.38a.06.06,0,0,1-.06-.06h0v-.18a.06.06,0,0,1,.06-.06H58v.24a.06.06,0,0,1,0,.06"/><path class="cls-19" d="M58.05,22.58H57.8s-.07,0-.08,0h0v-.25s0-.05.05-.05v-.69h.28v.69a.07.07,0,0,1,.07.07h0v.25a.08.08,0,0,1-.07.07h0"/><path class="cls-22" d="M58,21.28h-.38a.06.06,0,0,0-.06,0h0v.19a.06.06,0,0,0,.06.05H58m0,0h0v-.18a.06.06,0,0,0,0-.06"/><path class="cls-19" d="M58.75,18.38h-.28a.08.08,0,0,0-.08.07h0v.25a.08.08,0,0,0,.08.08h0v.67h.29v-.67a.06.06,0,0,0,.06-.07h0v-.25a.08.08,0,0,0-.07-.07h0"/><path class="cls-22" d="M58.71,19.7h-.37a.06.06,0,0,1-.06-.06h0v-.18a.06.06,0,0,1,.06-.06h.37a.05.05,0,0,1,.06.05h0v.18a.06.06,0,0,1-.07.06"/><path class="cls-19" d="M58.75,22.58h-.28a.06.06,0,0,1,0-.06v-.25a0,0,0,0,1,0-.05v-.69h.29v.69a.07.07,0,0,1,.06.07h0v.25a.08.08,0,0,1-.07.07h0"/><path class="cls-22" d="M58.71,21.28h-.37a.06.06,0,0,0-.06,0h0v.19a0,0,0,0,0,0,.05h.38s.06,0,.07,0h0v-.18s0-.07-.07-.06"/><path class="cls-19" d="M59.45,18.38h-.28a.08.08,0,0,0-.07.07h0v.25a.05.05,0,0,0,0,.07h0v.67h.29v-.67a.08.08,0,0,0,.08-.08h0v-.25a.08.08,0,0,0-.08-.07h0"/><path class="cls-22" d="M59.42,19.7H59a.07.07,0,0,1,0-.06v-.18s0-.06,0-.06h.38a.06.06,0,0,1,.06.06h0v.18a.06.06,0,0,1-.06.06h0"/><path class="cls-19" d="M59.45,22.58h-.28a.07.07,0,0,1-.07-.06h0v-.25a.05.05,0,0,1,.06-.05v-.69h.29v.69a.08.08,0,0,1,.08.08h0v.25a.08.08,0,0,1-.08.07h0"/><path class="cls-22" d="M59.42,21.28H59a.05.05,0,0,0,0,0v.27h.41a.06.06,0,0,0,.06-.06h0v-.21a.06.06,0,0,0-.06,0h0"/><path class="cls-19" d="M60.14,18.38h-.28a.08.08,0,0,0-.08.07h0v.25a.08.08,0,0,0,.08.08h0v.67h.28v-.67a.08.08,0,0,0,.08-.08h0v-.25a.08.08,0,0,0-.08-.07h0"/><path class="cls-22" d="M60.1,19.7h-.36s-.07,0-.07-.06v-.18a.06.06,0,0,1,.06-.06h.37s.06,0,.07.05h0v.18a.06.06,0,0,1-.07.06"/><path class="cls-19" d="M60.14,22.58h-.28s-.07,0-.08-.06h0v-.25a.1.1,0,0,1,.08-.05v-.69h.28v.69a.08.08,0,0,1,.08.08h0v.25a.08.08,0,0,1-.08.07h0"/><path class="cls-22" d="M60.1,21.28h-.36s-.06,0-.07,0v.19a0,0,0,0,0,0,.05h.38s.06,0,.07,0h0v-.18s0-.07-.07-.06"/><path class="cls-19" d="M60.88,18.38h-.31a.08.08,0,0,0-.07.07h0v.25a.07.07,0,0,0,.07.08h0v.67h.31v-.67a.07.07,0,0,0,.07-.07h0v-.25a.08.08,0,0,0-.07-.07"/><path class="cls-22" d="M60.82,19.7h-.37a.06.06,0,0,1-.06-.06h0v-.18a.06.06,0,0,1,.06-.06h.37a.05.05,0,0,1,.06.05h0v.18a.06.06,0,0,1-.06.06h0"/><path class="cls-19" d="M60.88,22.58h-.31a.07.07,0,0,1-.07-.06h0v-.25a.08.08,0,0,1,.07-.05v-.69h.31v.69a.07.07,0,0,1,.07.07h0v.25a.09.09,0,0,1-.07,0"/><path class="cls-22" d="M60.82,21.28h-.37a.06.06,0,0,0-.06,0h0v.19a.06.06,0,0,0,.06.05h.37m.06,0h0v-.18a.06.06,0,0,0-.06-.06h0"/><path class="cls-19" d="M61.56,18.38h-.29a.08.08,0,0,0-.07.07h0v.25s0,.07.06.07h0v.67h.29v-.67a.07.07,0,0,0,.07-.08h0v-.25a.08.08,0,0,0-.07-.07h0"/><path class="cls-22" d="M61.5,19.7h-.37s-.07,0-.07-.06v-.18a.06.06,0,0,1,.06-.06h.38l.06.06v.18a.06.06,0,0,1-.06.06"/><path class="cls-19" d="M61.56,22.58h-.29a.07.07,0,0,1-.07-.06h0v-.25a.08.08,0,0,1,.07-.05v-.69h.29v.69a.07.07,0,0,1,.07.08h0v.25a.08.08,0,0,1-.07.07h0"/><path class="cls-22" d="M61.5,21.28h-.37s-.06,0-.07,0v.19a0,0,0,0,0,0,.05h.39a.06.06,0,0,0,.06-.05h0v-.19a.05.05,0,0,0-.06,0"/><path class="cls-22" d="M46.37,19.55c0-.08.12-.15.26-.15s.25.07.25.15-.11.15-.25.15-.26-.06-.26-.15"/><path class="cls-22" d="M46.37,21.4c0-.09.12-.16.26-.16s.25.07.25.16-.11.15-.25.15-.26-.07-.26-.15"/><path class="cls-22" d="M62.57,19.55c0-.08.12-.15.26-.15s.26.07.26.15-.12.15-.26.15-.26-.06-.26-.15"/><path class="cls-22" d="M62.57,21.4c0-.09.12-.16.26-.16s.26.07.26.16-.12.15-.26.15-.26-.07-.26-.15"/><path class="cls-7" d="M47.28,22.48H45.81a.26.26,0,0,1-.26-.26h0V18.49a.25.25,0,0,1,.25-.25h1.48a.15.15,0,0,1,.15.15h0a.16.16,0,0,1-.15.16H45.85v3.62h1.43a.15.15,0,0,1,.15.15h0A.16.16,0,0,1,47.28,22.48Z"/><path class="cls-7" d="M62.3,22.48h1.47a.26.26,0,0,0,.26-.25V18.49a.27.27,0,0,0-.26-.25H62.3a.15.15,0,0,0-.15.15h0a.16.16,0,0,0,.15.16h1.42v3.62H62.3a.15.15,0,0,0-.15.15h0A.16.16,0,0,0,62.3,22.48Z"/><path class="cls-23" d="M63.25,18.53h-.16V18h-.2v-.1c.11,0,.21,0,.23-.16h.13Z"/><path class="cls-23" d="M62.85,22.66a.28.28,0,0,1,.26-.31s0,0,0,0a.23.23,0,0,1,.26.21v0c0,.22-.25.25-.36.4h.37v.14h-.57c0-.18.11-.26.24-.35s.17-.1.17-.19a.11.11,0,0,0-.1-.12h0c-.1,0-.13.1-.13.18Z"/><path class="cls-23" d="M46,18.06c.06,0,.16,0,.16-.1a.1.1,0,0,0-.1-.1h0c-.08,0-.12.05-.12.13h-.15a.25.25,0,0,1,.24-.26h0c.13,0,.26.07.26.21a.14.14,0,0,1-.11.16h0a.17.17,0,0,1,.14.18.29.29,0,1,1-.58,0H46c0,.09,0,.16.14.16a.13.13,0,0,0,.13-.13h0c0-.11-.11-.11-.18-.11Z"/><path class="cls-23" d="M46.59,18.32a.11.11,0,0,0,.1.1c.12,0,.14-.14.15-.23h0a.23.23,0,0,1-.18.08.24.24,0,0,1-.24-.24h0a.26.26,0,0,1,.26-.28h0c.24,0,.3.21.3.4s-.08.41-.3.41a.22.22,0,0,1-.25-.2v0Zm.23-.32a.12.12,0,1,0-.24,0c0,.07,0,.15.12.15S46.82,18.08,46.82,18Z"/><path class="cls-23" d="M46.13,23H45.8v-.14l.34-.46h.14v.47h.1V23h-.1v.19h-.15Zm0-.39h0l-.21.27h.21Z"/><path class="cls-23" d="M46.71,22.35c.15,0,.28.1.28.39s-.13.41-.28.41-.29-.1-.29-.41S46.55,22.35,46.71,22.35Zm0,.68c.13,0,.13-.2.13-.29s0-.27-.13-.27-.13.19-.13.27,0,.26.13.26Z"/></g></g></g></svg>