<svg xmlns="http://www.w3.org/2000/svg" viewBox="0 0 129.3 79.19"><defs><style>.cls-1{fill:#7f8080;}.cls-2{fill:#333;}.cls-3{fill:#a43b3a;}.cls-4{fill:#b3b3b3;}.cls-5{fill:#84cec3;}.cls-6{fill:#6b70b4;}.cls-7{fill:#41b9eb;}.cls-8{fill:#fff;}.cls-9{opacity:0.4;}.cls-10{fill:#242424;}.cls-11{fill:#f5f6f7;}.cls-12{fill:#e0ac52;}.cls-13{fill:#d3d3d3;}.cls-14{fill:#ededed;}.cls-15{fill:#9a732b;}.cls-16{fill:#c5923b;}.cls-17,.cls-18{fill:none;stroke:#fff;stroke-miterlimit:10;}.cls-17{stroke-width:0.25px;}.cls-19{fill:#ebf4fb;}.cls-20{fill:#333e49;}.cls-21{fill:#222630;}.cls-22{fill:#be8e3e;}.cls-23{fill:#ee3224;}</style></defs><g id="Layer_2" data-name="Layer 2"><g id="Layer_1-2" data-name="Layer 1"><g id="RAK17000_Pinouts"><rect class="cls-1" x="116.72" width="4.25" height="79.19"/><rect class="cls-1" x="111.41" width="4.25" height="79.19"/><rect class="cls-2" x="108.94" y="4.03" width="2.47" height="2.9" rx="0.41"/><rect class="cls-3" x="111.95" width="3.71" height="2.9" rx="0.35"/><rect class="cls-2" x="111.95" y="3.97" width="3.71" height="2.9" rx="0.35"/><rect class="cls-4" x="111.95" y="8.07" width="3.71" height="2.9" rx="0.35"/><rect class="cls-4" x="111.95" y="12.16" width="3.71" height="2.9" rx="0.35"/><rect class="cls-5" x="111.95" y="16.07" width="3.71" height="2.9" rx="0.35"/><rect class="cls-4" x="111.95" y="19.99" width="3.71" height="2.9" rx="0.35"/><rect class="cls-4" x="111.95" y="24.03" width="3.71" height="2.9" rx="0.35"/><rect class="cls-4" x="111.95" y="28.01" width="3.71" height="2.9" rx="0.35"/><rect class="cls-4" x="111.95" y="32.02" width="3.71" height="2.9" rx="0.35"/><rect class="cls-4" x="111.95" y="36.08" width="3.71" height="2.9" rx="0.35"/><rect class="cls-6" x="111.95" y="40.27" width="3.71" height="2.9" rx="0.35"/><rect class="cls-4" x="111.95" y="44.21" width="3.71" height="2.9" rx="0.35"/><rect class="cls-3" x="116.72" width="3.71" height="2.9" rx="0.35"/><rect class="cls-2" x="116.72" y="3.97" width="3.71" height="2.9" rx="0.35"/><rect class="cls-4" x="116.72" y="8.07" width="3.71" height="2.9" rx="0.35"/><rect class="cls-4" x="116.72" y="12.16" width="3.71" height="2.9" rx="0.35"/><rect class="cls-4" x="116.72" y="16.07" width="3.71" height="2.9" rx="0.35"/><rect class="cls-4" x="116.72" y="19.99" width="3.71" height="2.9" rx="0.35"/><rect class="cls-4" x="116.72" y="24.03" width="3.71" height="2.9" rx="0.35"/><rect class="cls-4" x="116.72" y="28.01" width="3.71" height="2.9" rx="0.35"/><rect class="cls-4" x="116.72" y="32.02" width="3.71" height="2.9" rx="0.35"/><rect class="cls-4" x="116.72" y="36.08" width="3.71" height="2.9" rx="0.35"/><rect class="cls-4" x="116.72" y="40.27" width="3.71" height="2.9" rx="0.35"/><rect class="cls-4" x="116.72" y="44.21" width="3.71" height="2.9" rx="0.35"/><rect class="cls-6" x="116.72" y="48.15" width="3.71" height="2.9" rx="0.35"/><rect class="cls-7" x="116.72" y="52.07" width="3.71" height="2.9" rx="0.35"/><rect class="cls-4" x="116.72" y="56.11" width="3.71" height="2.9" rx="0.35"/><rect class="cls-4" x="116.72" y="60.09" width="3.71" height="2.9" rx="0.35"/><rect class="cls-4" x="116.72" y="64.1" width="3.71" height="2.9" rx="0.35"/><rect class="cls-4" x="116.72" y="68.16" width="3.71" height="2.9" rx="0.35"/><rect class="cls-4" x="116.72" y="72.35" width="3.71" height="2.9" rx="0.35"/><path class="cls-8" d="M117.28,49.45a.62.62,0,0,1,.63-.71.56.56,0,0,1,.6.54c0,.53-.56.57-.81.93h.82v.31h-1.28c0-.41.25-.58.55-.78.15-.11.37-.21.37-.43a.25.25,0,0,0-.23-.27h0c-.21,0-.28.22-.28.4Z"/><path class="cls-8" d="M119.82,49.06h-.72l-.07.4h0a.41.41,0,0,1,.34-.14.54.54,0,0,1,.54.59.64.64,0,0,1-.63.64h0a.59.59,0,0,1-.65-.56H119a.28.28,0,0,0,.29.26.31.31,0,0,0,.3-.32h0a.3.3,0,0,0-.27-.33h0a.29.29,0,0,0-.27.14h-.32l.17-1h1Z"/><path class="cls-8" d="M117.28,53.29a.61.61,0,0,1,.63-.7.55.55,0,0,1,.6.54c0,.52-.56.57-.81.93h.82v.3h-1.28c0-.41.25-.57.55-.78.15-.11.37-.21.37-.43a.26.26,0,0,0-.23-.27h0c-.21,0-.28.22-.28.4Z"/><path class="cls-8" d="M119.86,52.92a2.15,2.15,0,0,0-.57,1.45h-.38A2.57,2.57,0,0,1,119.5,53h-.83v-.33h1.19Z"/><path class="cls-8" d="M117.76,65.42c.15,0,.37,0,.37-.22a.23.23,0,0,0-.23-.23h0a.27.27,0,0,0-.27.31h-.34a.59.59,0,0,1,.61-.6.54.54,0,0,1,.58.48.35.35,0,0,1-.24.37h0a.39.39,0,0,1,.31.39.65.65,0,0,1-1.3-.06h.34c0,.19.1.35.3.35a.28.28,0,0,0,.29-.26h0c0-.27-.23-.26-.41-.26Z"/><path class="cls-8" d="M119.14,65.42c.15,0,.37,0,.37-.22a.23.23,0,0,0-.23-.23h0a.27.27,0,0,0-.27.31h-.33a.57.57,0,0,1,.6-.6.54.54,0,0,1,.59.48.36.36,0,0,1-.25.37h0a.37.37,0,0,1,.31.39.59.59,0,0,1-.65.57.58.58,0,0,1-.64-.63H119c0,.19.1.35.31.35a.28.28,0,0,0,.28-.26h0c0-.27-.23-.26-.4-.26Z"/><path class="cls-8" d="M117.76,69.49c.15,0,.37,0,.37-.21a.23.23,0,0,0-.23-.23h0c-.18,0-.27.13-.27.31h-.34a.59.59,0,0,1,.61-.61.54.54,0,0,1,.58.49.35.35,0,0,1-.24.36h0a.4.4,0,0,1,.31.39.65.65,0,0,1-1.3,0h.34a.31.31,0,0,0,.3.34.28.28,0,0,0,.29-.26h0c0-.27-.23-.26-.41-.26Z"/><path class="cls-8" d="M119.82,69.08h-.72l-.07.4h0a.43.43,0,0,1,.34-.13.54.54,0,0,1,.54.59.63.63,0,0,1-.63.63h0a.59.59,0,0,1-.65-.56H119a.29.29,0,0,0,.29.27.32.32,0,0,0,.3-.33h0a.31.31,0,0,0-.27-.33h0a.29.29,0,0,0-.27.14h-.32l.17-1h1Z"/><path class="cls-8" d="M117.28,57.4a.62.62,0,0,1,.63-.7.55.55,0,0,1,.6.54c0,.53-.56.57-.81.93h.82v.3h-1.28c0-.4.25-.57.55-.77.15-.11.37-.22.37-.43a.26.26,0,0,0-.23-.27h0c-.21,0-.28.22-.28.4Z"/><path class="cls-8" d="M119,58a.26.26,0,0,0,.23.22c.26,0,.33-.34.34-.53h0a.43.43,0,0,1-.39.2.56.56,0,0,1-.4-.19.57.57,0,0,1-.14-.38.61.61,0,0,1,.61-.64c.53,0,.67.46.67.9s-.18.91-.68.91a.53.53,0,0,1-.57-.48Zm.54-.72a.31.31,0,0,0-.28-.32h0a.3.3,0,0,0-.27.32.3.3,0,0,0,.27.33c.19,0,.28-.15.28-.33Z"/><path class="cls-8" d="M117.76,61.48c.15,0,.37,0,.37-.22a.23.23,0,0,0-.23-.23h0c-.18,0-.27.13-.27.31h-.34a.59.59,0,0,1,.61-.6.54.54,0,0,1,.58.48.36.36,0,0,1-.24.36h0a.41.41,0,0,1,.31.4.6.6,0,0,1-.65.57.59.59,0,0,1-.65-.63h.34a.3.3,0,0,0,.3.34.28.28,0,0,0,.29-.25v0c0-.26-.23-.26-.41-.26Z"/><path class="cls-8" d="M119.55,62.51h-.36V61.38h-.43v-.27c.24,0,.47-.08.51-.34h.28Z"/><path class="cls-8" d="M117.76,73.7c.15,0,.37,0,.37-.22a.23.23,0,0,0-.23-.23h0c-.18,0-.27.13-.27.31h-.34a.59.59,0,0,1,.61-.6.54.54,0,0,1,.58.48.35.35,0,0,1-.24.36h0a.41.41,0,0,1,.31.4.6.6,0,0,1-.65.57.59.59,0,0,1-.65-.63h.34a.3.3,0,0,0,.3.34.28.28,0,0,0,.29-.25v0c0-.26-.23-.26-.41-.26Z"/><path class="cls-8" d="M119.86,73.3a2.12,2.12,0,0,0-.57,1.44h-.38a2.57,2.57,0,0,1,.59-1.42h-.83V73h1.19Z"/><rect class="cls-2" x="116.72" y="76.29" width="3.71" height="2.9" rx="0.35"/><rect class="cls-7" x="111.95" y="48.15" width="3.71" height="2.9" rx="0.35"/><path class="cls-8" d="M117.76,77.65c.15,0,.37,0,.37-.22a.23.23,0,0,0-.23-.23h0c-.18,0-.27.13-.27.31h-.34a.59.59,0,0,1,.61-.6.54.54,0,0,1,.58.48.36.36,0,0,1-.24.36h0a.41.41,0,0,1,.31.4.6.6,0,0,1-.65.57.59.59,0,0,1-.65-.63h.34a.3.3,0,0,0,.3.34.27.27,0,0,0,.29-.25v0c0-.26-.23-.25-.41-.25Z"/><path class="cls-8" d="M119,78.24a.26.26,0,0,0,.23.22c.26,0,.33-.34.34-.53h0a.43.43,0,0,1-.39.2.6.6,0,0,1-.4-.18.62.62,0,0,1-.14-.39.61.61,0,0,1,.61-.64c.53,0,.67.46.67.9s-.18.91-.68.91a.53.53,0,0,1-.57-.48Zm.54-.71a.31.31,0,0,0-.29-.33.33.33,0,0,0,0,.65.28.28,0,0,0,.28-.32Z"/><rect class="cls-4" x="111.95" y="52.07" width="3.71" height="2.9" rx="0.35"/><rect class="cls-4" x="111.95" y="56.11" width="3.71" height="2.9" rx="0.35"/><rect class="cls-4" x="111.95" y="60.09" width="3.71" height="2.9" rx="0.35"/><rect class="cls-4" x="111.95" y="64.1" width="3.71" height="2.9" rx="0.35"/><rect class="cls-4" x="111.95" y="68.16" width="3.71" height="2.9" rx="0.35"/><rect class="cls-4" x="111.95" y="72.35" width="3.71" height="2.9" rx="0.35"/><rect class="cls-2" x="111.95" y="76.29" width="3.71" height="2.9" rx="0.35"/><path class="cls-8" d="M113.2,1.44a.62.62,0,0,1,.63-.7.55.55,0,0,1,.6.54c0,.53-.56.57-.81.93h.82v.3h-1.28c0-.4.25-.57.55-.78s.37-.21.37-.42a.25.25,0,0,0-.23-.27h0c-.21,0-.28.21-.28.4Z"/><path class="cls-8" d="M112.51,49.45a.62.62,0,0,1,.63-.71.56.56,0,0,1,.6.55c0,.53-.56.57-.81.93h.82v.3h-1.28c0-.41.25-.57.55-.78s.37-.21.37-.42a.25.25,0,0,0-.23-.27h0c-.2,0-.27.22-.27.41Z"/><path class="cls-8" d="M114.77,49.22a.25.25,0,0,0-.24-.21c-.25,0-.32.33-.33.53h0a.42.42,0,0,1,.39-.19.52.52,0,0,1,.4.18.6.6,0,0,1,.14.39.61.61,0,0,1-.58.63h0c-.52,0-.66-.46-.66-.9s.18-.91.68-.91a.53.53,0,0,1,.56.48Zm-.54.72a.3.3,0,0,0,.28.32h0a.3.3,0,0,0,.28-.32.3.3,0,0,0-.28-.33.29.29,0,0,0-.28.33Z"/><path class="cls-8" d="M113,61.51c.15,0,.37,0,.37-.22a.23.23,0,0,0-.23-.23h0c-.18,0-.27.13-.27.31h-.34a.59.59,0,0,1,.61-.6.53.53,0,0,1,.58.48.36.36,0,0,1-.24.36h0a.41.41,0,0,1,.31.4.65.65,0,0,1-1.3-.06h.34c0,.19.1.34.3.34a.27.27,0,0,0,.29-.25v0c0-.26-.23-.26-.4-.26Z"/><path class="cls-8" d="M113.89,61.47a.62.62,0,0,1,.64-.7.55.55,0,0,1,.59.54c0,.53-.56.57-.81.93h.83v.3h-1.28c0-.4.24-.57.55-.78.15-.1.36-.21.36-.42a.25.25,0,0,0-.23-.27h0c-.21,0-.28.21-.28.4Z"/><path class="cls-8" d="M113,69.52c.15,0,.37,0,.37-.21a.23.23,0,0,0-.23-.23h0c-.18,0-.27.13-.27.31h-.34a.59.59,0,0,1,.61-.6.53.53,0,0,1,.58.48.35.35,0,0,1-.24.36h0a.41.41,0,0,1,.31.4.65.65,0,0,1-1.3-.06h.34c0,.19.1.34.3.34a.28.28,0,0,0,.29-.26h0c0-.26-.23-.26-.4-.26Z"/><path class="cls-8" d="M114.77,69.27a.27.27,0,0,0-.24-.22c-.25,0-.32.34-.33.53h0a.42.42,0,0,1,.39-.19.55.55,0,0,1,.4.18.62.62,0,0,1,.14.39.6.6,0,0,1-.58.63h0c-.52,0-.66-.46-.66-.9s.18-.91.68-.91a.53.53,0,0,1,.56.48Zm-.54.71a.31.31,0,0,0,.28.33h0a.3.3,0,0,0,.28-.32.3.3,0,0,0-.28-.33.29.29,0,0,0-.28.32Z"/><path class="cls-8" d="M113,73.73c.15,0,.37,0,.37-.21a.23.23,0,0,0-.23-.24h0a.27.27,0,0,0-.27.31h-.34a.59.59,0,0,1,.61-.6.53.53,0,0,1,.58.48.35.35,0,0,1-.24.37h0a.4.4,0,0,1,.31.4.65.65,0,0,1-1.3-.06h.34c0,.19.1.34.3.34a.28.28,0,0,0,.29-.26h0c0-.26-.23-.26-.4-.26Z"/><path class="cls-8" d="M114.5,73a.52.52,0,0,1,.58.47.37.37,0,0,1-.25.36h0a.39.39,0,0,1,.32.42.58.58,0,0,1-.65.55c-.33,0-.66-.17-.66-.54a.41.41,0,0,1,.33-.43h0a.36.36,0,0,1-.26-.36A.53.53,0,0,1,114.5,73Zm0,1.55a.3.3,0,0,0,.3-.28v0a.3.3,0,0,0-.29-.28h0a.28.28,0,0,0-.31.28.29.29,0,0,0,.29.3Zm0-.82a.24.24,0,1,0,0-.47h0a.24.24,0,0,0-.27.22v0a.24.24,0,0,0,.27.24Z"/><path class="cls-8" d="M113.19,78.21h-.73v-.32l.76-1h.31v1h.23v.29h-.23v.4h-.34Zm0-.9h0l-.45.61h.45Z"/><path class="cls-8" d="M114.49,76.83c.35,0,.65.22.65.91s-.3.91-.65.91-.63-.22-.63-.91S114.15,76.83,114.49,76.83Zm0,1.53c.29,0,.29-.43.29-.63s0-.6-.29-.6-.28.42-.28.6S114.21,78.36,114.49,78.36Z"/><path class="cls-8" d="M112.51,53.29a.61.61,0,0,1,.63-.7.55.55,0,0,1,.6.54c0,.52-.56.57-.81.93h.82v.3h-1.28c0-.41.25-.57.55-.78s.37-.21.37-.43a.26.26,0,0,0-.23-.27h0c-.2,0-.27.22-.27.4Z"/><path class="cls-8" d="M114.5,52.59a.51.51,0,0,1,.58.46.35.35,0,0,1-.25.36h0a.4.4,0,0,1,.32.43.58.58,0,0,1-.65.54c-.33,0-.66-.17-.66-.54a.41.41,0,0,1,.33-.43h0a.36.36,0,0,1-.26-.36C113.91,52.75,114.21,52.59,114.5,52.59Zm0,1.54a.29.29,0,0,0,.3-.27v0a.29.29,0,0,0-.29-.28h0a.28.28,0,0,0-.31.27.29.29,0,0,0,.29.3Zm0-.81a.23.23,0,0,0,.26-.23.22.22,0,0,0-.22-.24h0a.23.23,0,0,0-.27.21v0a.25.25,0,0,0,.27.24Z"/><path class="cls-8" d="M113,57.48c.15,0,.37,0,.37-.22a.23.23,0,0,0-.23-.23h0c-.18,0-.27.13-.27.31h-.34a.59.59,0,0,1,.61-.6.53.53,0,0,1,.58.48.36.36,0,0,1-.24.36h0a.41.41,0,0,1,.31.4.65.65,0,0,1-1.3-.06h.34c0,.19.1.34.3.34a.28.28,0,0,0,.29-.26h0c0-.26-.23-.26-.4-.26Z"/><path class="cls-8" d="M114.49,56.73c.35,0,.65.22.65.9s-.3.92-.65.92-.63-.22-.63-.92S114.15,56.73,114.49,56.73Zm0,1.52c.29,0,.29-.42.29-.62s0-.61-.29-.61-.28.43-.28.61S114.21,58.25,114.49,58.25Z"/><path class="cls-8" d="M113,65.42c.15,0,.37,0,.37-.22a.23.23,0,0,0-.23-.23h0a.27.27,0,0,0-.27.31h-.34a.59.59,0,0,1,.61-.6.53.53,0,0,1,.58.48.35.35,0,0,1-.24.37h0a.39.39,0,0,1,.31.39.65.65,0,0,1-1.3-.06h.34c0,.19.1.35.3.35a.28.28,0,0,0,.29-.26h0c0-.27-.23-.26-.4-.26Z"/><path class="cls-8" d="M114.58,66.06h-.74v-.33l.76-1h.31v1h.23v.3h-.23v.4h-.33Zm0-.9h0l-.45.6h.46Z"/><path class="cls-8" d="M118.86,2.41h-.36V1.28h-.44V1c.25,0,.48-.08.52-.35h.28Z"/><path class="cls-8" d="M118.45,5.34c.15,0,.37,0,.37-.21a.24.24,0,0,0-.23-.24h0c-.18,0-.27.13-.27.31H118a.58.58,0,0,1,.6-.61.54.54,0,0,1,.58.49.34.34,0,0,1-.24.36h0a.39.39,0,0,1,.31.4.65.65,0,0,1-1.3-.06h.34c0,.19.1.34.31.34a.27.27,0,0,0,.28-.25v0c0-.26-.23-.26-.4-.26Z"/><path class="cls-8" d="M119.13,9h-.73l-.07.4h0a.43.43,0,0,1,.34-.13.54.54,0,0,1,.54.59.63.63,0,0,1-.63.63h0a.57.57,0,0,1-.64-.55h.35a.28.28,0,0,0,.29.26.31.31,0,0,0,.3-.33h0a.31.31,0,0,0-.27-.33h0a.29.29,0,0,0-.27.14H118l.17-1h1Z"/><path class="cls-8" d="M118.3,17.91a.25.25,0,0,0,.23.22c.26,0,.32-.34.34-.53h0a.44.44,0,0,1-.39.19.55.55,0,0,1-.4-.18.62.62,0,0,1-.14-.39.61.61,0,0,1,.61-.64c.53,0,.67.46.67.9s-.19.92-.68.92a.54.54,0,0,1-.57-.49Zm.53-.71a.28.28,0,0,0-.27-.32h0a.32.32,0,0,0,0,.64A.28.28,0,0,0,118.83,17.2Z"/><path class="cls-8" d="M118.16,22.33h-.35V21.2h-.44v-.26c.25,0,.47-.08.51-.35h.28Z"/><path class="cls-8" d="M119.55,22.33h-.36V21.2h-.43v-.26c.24,0,.47-.08.51-.35h.28Z"/><path class="cls-8" d="M118.16,34.43h-.35V33.3h-.44V33c.25,0,.47-.08.51-.35h.28Z"/><path class="cls-8" d="M119.86,33a2.15,2.15,0,0,0-.57,1.45h-.38A2.57,2.57,0,0,1,119.5,33h-.83v-.33h1.19Z"/><path class="cls-8" d="M118.16,38.49h-.35V37.36h-.44v-.27c.25,0,.47-.08.51-.35h.28Z"/><path class="cls-8" d="M119,38a.26.26,0,0,0,.23.22c.26,0,.33-.34.34-.53h0a.43.43,0,0,1-.39.2.6.6,0,0,1-.4-.18.62.62,0,0,1-.14-.39.61.61,0,0,1,.61-.64c.53,0,.67.46.67.9s-.18.91-.68.91a.53.53,0,0,1-.57-.48Zm.54-.71a.31.31,0,0,0-.28-.33h0a.3.3,0,0,0-.27.32.3.3,0,0,0,.27.33.28.28,0,0,0,.28-.32Z"/><path class="cls-8" d="M117.28,41.57a.62.62,0,0,1,.63-.71.56.56,0,0,1,.6.55c0,.52-.56.57-.81.92h.82v.31h-1.28c0-.41.25-.57.55-.78.15-.11.37-.21.37-.43a.25.25,0,0,0-.23-.27h0c-.21,0-.28.22-.28.4Z"/><path class="cls-8" d="M119.55,42.64h-.36V41.51h-.43v-.27a.44.44,0,0,0,.51-.35h.28Z"/><path class="cls-8" d="M117.28,45.56a.61.61,0,0,1,.63-.7.55.55,0,0,1,.6.54c0,.53-.56.57-.81.93h.82v.3h-1.28c0-.4.25-.57.55-.78.15-.11.37-.21.37-.42a.25.25,0,0,0-.23-.27h0c-.21,0-.28.21-.28.4Z"/><path class="cls-8" d="M119.14,45.6c.15,0,.37,0,.37-.22a.23.23,0,0,0-.23-.23h0c-.18,0-.27.13-.27.31h-.33a.57.57,0,0,1,.6-.6.54.54,0,0,1,.59.48.35.35,0,0,1-.25.36h0a.39.39,0,0,1,.31.4.6.6,0,0,1-.65.57.58.58,0,0,1-.64-.63H119c0,.19.1.34.31.34a.27.27,0,0,0,.28-.26h0c0-.26-.23-.26-.4-.26Z"/><path class="cls-8" d="M113.89,6.09h-.74V5.76l.76-1h.31v1h.23v.29h-.23v.4h-.33Zm0-.9h0l-.45.6h.46Z"/><path class="cls-8" d="M113.39,22.44H113V21.31h-.44V21c.25,0,.47-.08.51-.35h.28Z"/><path class="cls-8" d="M113.89,21.37a.63.63,0,0,1,.64-.71.56.56,0,0,1,.59.55c0,.53-.56.57-.81.93h.83v.3h-1.28c0-.4.24-.57.55-.78.15-.11.36-.21.36-.42a.25.25,0,0,0-.23-.27h0c-.21,0-.28.21-.28.4Z"/><path class="cls-8" d="M113.39,30.52H113V29.39h-.44v-.27c.25,0,.47-.08.51-.34h.28Z"/><path class="cls-8" d="M114.77,29.23a.27.27,0,0,0-.24-.22c-.25,0-.32.34-.33.53h0a.41.41,0,0,1,.39-.2.55.55,0,0,1,.4.18.63.63,0,0,1-.44,1h0c-.52,0-.66-.46-.66-.9s.18-.91.68-.91a.52.52,0,0,1,.56.48Zm-.54.71a.3.3,0,0,0,.28.32h0a.3.3,0,0,0,.28-.32.3.3,0,0,0-.28-.33.29.29,0,0,0-.28.32Z"/><path class="cls-8" d="M113.39,34.54H113V33.41h-.44v-.27c.25,0,.47-.08.51-.34h.28Z"/><path class="cls-8" d="M114.5,32.76a.52.52,0,0,1,.58.47.37.37,0,0,1-.25.36h0a.39.39,0,0,1,.32.42.58.58,0,0,1-.65.55c-.33,0-.66-.17-.66-.54a.41.41,0,0,1,.33-.43h0a.36.36,0,0,1-.26-.36A.53.53,0,0,1,114.5,32.76Zm0,1.55a.3.3,0,0,0,.3-.28v0a.3.3,0,0,0-.29-.28h0a.28.28,0,0,0-.31.28.3.3,0,0,0,.29.3Zm0-.82a.24.24,0,1,0,0-.47h0a.24.24,0,0,0-.27.22v0a.24.24,0,0,0,.27.23Z"/><path class="cls-8" d="M112.51,41.68a.62.62,0,0,1,.63-.71.56.56,0,0,1,.6.55c0,.52-.56.57-.81.93h.82v.3h-1.28c0-.41.25-.57.55-.78s.37-.21.37-.43a.26.26,0,0,0-.23-.27h0c-.2,0-.27.22-.27.4Z"/><path class="cls-8" d="M113.89,41.68a.63.63,0,0,1,.64-.71.56.56,0,0,1,.59.55c0,.52-.56.57-.81.93h.83v.3h-1.28c0-.41.24-.57.55-.78.15-.11.36-.21.36-.43a.25.25,0,0,0-.23-.27h0c-.21,0-.28.22-.28.4Z"/><path class="cls-8" d="M114.08,9.29a.27.27,0,0,0-.24-.22c-.25,0-.32.34-.33.53h0a.45.45,0,0,1,.4-.19.57.57,0,0,1,.4.18.56.56,0,0,1,.13.39.6.6,0,0,1-.61.64c-.53,0-.67-.46-.67-.9s.19-.92.69-.92a.53.53,0,0,1,.56.49Zm-.54.71a.29.29,0,0,0,.27.32h0a.29.29,0,0,0,.27-.31c0-.16-.08-.33-.27-.33A.29.29,0,0,0,113.54,10Z"/><polygon class="cls-2" points="109.3 4.03 105.92 4.03 104.24 5.49 105.92 6.93 109.3 6.93 110.98 5.49 109.3 4.03"/><path class="cls-8" d="M106.85,6a.56.56,0,0,1-.44.22.76.76,0,0,1-.78-.82.78.78,0,0,1,.78-.84.64.64,0,0,1,.67.56h-.33a.33.33,0,0,0-.34-.27c-.31,0-.43.27-.43.54s.12.53.43.53a.34.34,0,0,0,.38-.3v0h-.35V5.34h.67V6.2h-.22Z"/><path class="cls-8" d="M107.39,4.61h.34l.66,1.06h0V4.61h.32V6.19h-.35l-.65-1.06h0V6.19h-.33Z"/><path class="cls-8" d="M109,4.61h.68a.69.69,0,0,1,.72.78c0,.46-.23.8-.72.8H109Zm.35,1.29h.31c.2,0,.39-.12.39-.47s-.11-.53-.45-.53h-.25Z"/><rect class="cls-2" x="108.94" y="76.29" width="2.47" height="2.9" rx="0.41"/><polygon class="cls-2" points="109.3 76.29 105.92 76.29 104.24 77.74 105.92 79.19 109.3 79.19 110.98 77.74 109.3 76.29"/><path class="cls-8" d="M106.85,78.27a.54.54,0,0,1-.44.22.83.83,0,0,1,0-1.66.64.64,0,0,1,.67.56h-.33a.34.34,0,0,0-.34-.27c-.31,0-.43.27-.43.55s.12.52.43.52a.33.33,0,0,0,.38-.3v0h-.35v-.26h.67v.86h-.22Z"/><path class="cls-8" d="M107.39,76.87h.34l.66,1.06h0V76.87h.32v1.58h-.35l-.65-1.06h0v1.06h-.33Z"/><path class="cls-8" d="M109,76.87h.68a.69.69,0,0,1,.72.78c0,.46-.23.8-.72.8H109Zm.35,1.29h.31c.2,0,.39-.13.39-.48s-.11-.52-.45-.52h-.25Z"/><rect class="cls-2" x="120.98" y="4.03" width="2.47" height="2.9" rx="0.41"/><polygon class="cls-2" points="123.12 4.03 126.49 4.03 128.17 5.49 126.49 6.94 123.12 6.94 121.43 5.49 123.12 4.03"/><path class="cls-8" d="M123.15,6a.54.54,0,0,1-.44.22.76.76,0,0,1-.78-.82.78.78,0,0,1,.78-.84.64.64,0,0,1,.67.56h-.33a.33.33,0,0,0-.34-.27c-.31,0-.43.27-.43.54s.12.53.43.53a.34.34,0,0,0,.38-.3v0h-.35V5.34h.66V6.2h-.22Z"/><path class="cls-8" d="M123.69,4.61H124l.66,1.06h0V4.61H125V6.19h-.34L124,5.13h0V6.19h-.33Z"/><path class="cls-8" d="M125.33,4.61H126a.69.69,0,0,1,.72.78.71.71,0,0,1-.72.8h-.69Zm.35,1.29H126c.2,0,.39-.12.39-.47s-.11-.53-.45-.53h-.25Z"/><rect class="cls-2" x="120.98" y="76.29" width="2.47" height="2.9" rx="0.41"/><polygon class="cls-2" points="123.12 76.29 126.49 76.29 128.17 77.74 126.49 79.19 123.12 79.19 121.43 77.74 123.12 76.29"/><path class="cls-8" d="M123.15,78.27a.54.54,0,0,1-.44.22.83.83,0,0,1,0-1.66.64.64,0,0,1,.67.56h-.33a.33.33,0,0,0-.34-.27c-.31,0-.43.27-.43.54s.12.53.43.53a.34.34,0,0,0,.38-.3v0h-.35v-.26h.66v.86h-.22Z"/><path class="cls-8" d="M123.69,76.87H124l.66,1.06h0V76.87H125v1.58h-.34L124,77.39h0v1.06h-.33Z"/><path class="cls-8" d="M125.33,76.87H126a.69.69,0,0,1,.72.78.71.71,0,0,1-.72.8h-.69Zm.35,1.29H126c.2,0,.39-.13.39-.48s-.11-.52-.45-.52h-.25Z"/><path class="cls-8" d="M113.81,12.79a.52.52,0,0,1,.58.47.38.38,0,0,1-.26.37h0a.4.4,0,0,1,.33.42.59.59,0,0,1-.65.55c-.33,0-.66-.17-.66-.54a.4.4,0,0,1,.32-.43h0a.35.35,0,0,1-.25-.36A.53.53,0,0,1,113.81,12.79Zm0,1.55a.29.29,0,0,0,.29-.28s0,0,0,0a.28.28,0,0,0-.28-.28h0a.28.28,0,0,0-.31.28.3.3,0,0,0,.29.3Zm0-.82c.14,0,.26-.07.26-.22a.25.25,0,0,0-.22-.25h0a.25.25,0,0,0-.27.22v0a.25.25,0,0,0,.28.23Z"/><path class="cls-8" d="M113.39,18.47H113V17.34h-.44v-.27c.25,0,.47-.08.51-.35h.28Z"/><path class="cls-8" d="M114.49,16.69c.35,0,.65.22.65.9s-.3.92-.65.92-.63-.22-.63-.92S114.15,16.69,114.49,16.69Zm0,1.52c.29,0,.29-.42.29-.62s0-.61-.29-.61-.28.43-.28.61S114.21,18.21,114.49,18.21Z"/><path class="cls-8" d="M113.39,26.54H113V25.4h-.44v-.26c.25,0,.47-.08.51-.35h.28Z"/><path class="cls-8" d="M114.58,26.13h-.74v-.32l.76-1h.31v1.05h.23v.29h-.23v.41h-.33Zm0-.9h0l-.45.61h.46Z"/><path class="cls-8" d="M112.51,37.52a.61.61,0,0,1,.63-.7.55.55,0,0,1,.6.54c0,.53-.56.57-.81.93h.82v.3h-1.28c0-.41.25-.57.55-.78s.37-.21.37-.42a.25.25,0,0,0-.23-.27h0c-.2,0-.27.21-.27.4Z"/><path class="cls-8" d="M114.49,36.82c.35,0,.65.22.65.9s-.3.92-.65.92-.63-.22-.63-.92S114.15,36.82,114.49,36.82Zm0,1.52c.29,0,.29-.42.29-.62s0-.61-.29-.61-.28.43-.28.61,0,.62.28.62Z"/><path class="cls-8" d="M112.51,45.65a.61.61,0,0,1,.63-.7.55.55,0,0,1,.6.54c0,.53-.56.57-.81.93h.82v.3h-1.28c0-.4.25-.57.55-.78s.37-.21.37-.42a.26.26,0,0,0-.23-.27h0c-.2,0-.27.21-.27.4Z"/><path class="cls-8" d="M114.58,46.32h-.74V46l.76-1h.31V46h.23v.29h-.23v.4h-.33Zm0-.89h0l-.45.6h.46Z"/><path class="cls-8" d="M119.17,13a2.14,2.14,0,0,0-.57,1.44h-.38a2.53,2.53,0,0,1,.58-1.41H118v-.33h1.19Z"/><path class="cls-8" d="M118.16,26.43h-.35V25.3h-.44V25c.25,0,.47-.08.51-.35h.28Z"/><path class="cls-8" d="M119.14,25.39c.15,0,.37,0,.37-.22a.23.23,0,0,0-.23-.23h0c-.18,0-.27.13-.27.31h-.33a.57.57,0,0,1,.6-.6.54.54,0,0,1,.59.48.35.35,0,0,1-.25.36h0a.39.39,0,0,1,.31.4.6.6,0,0,1-.65.57.58.58,0,0,1-.64-.63H119c0,.19.1.34.31.34a.26.26,0,0,0,.28-.25v0c0-.26-.23-.25-.4-.25Z"/><path class="cls-8" d="M118.16,30.41h-.35V29.28h-.44V29c.25,0,.47-.08.51-.35h.28Z"/><path class="cls-8" d="M119.82,29h-.72l-.07.4h0a.43.43,0,0,1,.34-.13.54.54,0,0,1,.54.59.63.63,0,0,1-.63.63h0a.59.59,0,0,1-.65-.55H119a.28.28,0,0,0,.29.26.32.32,0,0,0,.3-.33h0a.29.29,0,0,0-.27-.32h0a.27.27,0,0,0-.27.14h-.32l.17-1h1Z"/><polygon class="cls-3" points="104.52 2.9 107.44 2.9 108.9 1.45 107.44 0 104.52 0 103.06 1.45 104.52 2.9"/><path class="cls-3" d="M110.88,0H107.4l-2,1.46,2,1.45h3.48c.29,0,.52-.18.52-.39V.39C111.4.18,111.17,0,110.88,0Z"/><rect class="cls-3" x="105.16" width="3.88" height="2.9" transform="translate(214.2 2.91) rotate(180)"/><path class="cls-8" d="M105.53,2.41h-.39l-.52-1.6H105l.36,1.12h0L105.7.81h.37Z"/><path class="cls-8" d="M106.21.81H107c.31,0,.51.1.51.4a.34.34,0,0,1-.22.33.4.4,0,0,1,.3.41c0,.32-.28.46-.57.46h-.77Zm.35.65h.36a.18.18,0,0,0,.21-.19c0-.15-.12-.19-.24-.19h-.33Zm0,.68h.38c.13,0,.26-.05.26-.21s-.1-.23-.26-.23h-.38Z"/><path class="cls-8" d="M108.23.81h.36l.6,1.6h-.37l-.12-.36h-.6l-.12.36h-.36Zm0,1h.41l-.2-.59h0Z"/><path class="cls-8" d="M109.69,1.1h-.48V.81h1.31V1.1H110V2.41h-.35Z"/><polygon class="cls-3" points="127.84 0.17 124.92 0.17 123.46 1.63 124.92 3.08 127.84 3.08 129.3 1.63 127.84 0.17"/><path class="cls-3" d="M121.49,3.07H125l2-1.45L125,.17h-3.47c-.29,0-.53.17-.53.39V2.69C121,2.9,121.2,3.07,121.49,3.07Z"/><rect class="cls-3" x="123.32" y="0.17" width="3.88" height="2.9"/><path class="cls-8" d="M122.9,2.41h-.4L122,.81h.37l.35,1.12h0l.36-1.12h.36Z"/><path class="cls-8" d="M123.57.81h.76c.3,0,.51.1.51.4a.36.36,0,0,1-.22.33.39.39,0,0,1,.29.41c0,.32-.27.46-.56.46h-.78Zm.36.65h.35c.13,0,.22-.06.22-.19s-.12-.19-.25-.19h-.32Zm0,.68h.37c.14,0,.26-.05.26-.21s-.1-.23-.25-.23h-.38Z"/><path class="cls-8" d="M125.59.81H126l.59,1.6h-.36l-.12-.36h-.6l-.13.36H125Zm0,1H126l-.21-.59h0Z"/><path class="cls-8" d="M127.05,1.1h-.48V.81h1.31V1.1h-.48V2.41h-.35Z"/><path class="cls-5" d="M110.94,16.15c.26,0,.47.13.47.28v2.34c0,.16-.22.28-.48.28h-6.08l-3.29-1.45,3.29-1.45h6.09Z"/><polygon class="cls-5" points="106.08 17.6 104.62 16.15 101.7 16.15 100.24 17.6 101.7 19.05 104.62 19.05 106.08 17.6"/><path class="cls-8" d="M102.18,17.25h.3v.16h0a.4.4,0,0,1,.36-.2c.33,0,.42.19.42.48v.71h-.32v-.65c0-.19,0-.29-.2-.29s-.25.1-.25.33v.61h-.31Z"/><path class="cls-8" d="M103.77,17.87c0,.21.16.29.35.29s.31,0,.31-.2-.24-.19-.47-.26-.48-.16-.48-.45.31-.48.6-.48.64.14.64.51h-.34c0-.19-.15-.24-.32-.24s-.24.05-.24.18.08.14.48.24c.12,0,.47.11.47.46s-.23.51-.66.51-.69-.17-.68-.56Z"/><path class="cls-8" d="M105,16.81h.35V18.1h.77v.3H105Z"/><path class="cls-8" d="M106.3,16.81h1.19v.29h-.84v.34h.77v.27h-.77v.39h.85v.3h-1.2Z"/><path class="cls-8" d="M107.74,16.81h1.19v.29h-.84v.34h.77v.27h-.77v.39H109v.3h-1.21Z"/><path class="cls-8" d="M109.18,16.81h.72a.51.51,0,1,1,0,1h-.37v.57h-.35Zm.35.74h.27c.16,0,.31,0,.31-.23s-.15-.24-.31-.24h-.27Z"/><path class="cls-7" d="M111.21,51h-5.92c-.11,0-.2-.13-.2-.3v-2.3c0-.16.09-.3.2-.3h5.92c.11,0,.2.14.2.3v2.3C111.41,50.91,111.32,51,111.21,51Z"/><polygon class="cls-7" points="103.55 49.59 105.01 51.04 107.92 51.04 109.38 49.59 107.92 48.15 105.01 48.15 103.55 49.59"/><path class="cls-6" d="M111.23,43.18h-5.34c-.09,0-.17-.14-.17-.3v-2.3c0-.17.08-.3.17-.3h5.34c.1,0,.18.13.18.3v2.3C111.41,43,111.33,43.18,111.23,43.18Z"/><polygon class="cls-6" points="104.08 41.73 105.53 43.18 108.44 43.18 109.9 41.73 108.44 40.28 105.53 40.28 104.08 41.73"/><rect class="cls-4" x="108.93" y="44.21" width="2.47" height="2.91" rx="0.41"/><polygon class="cls-4" points="107.02 44.21 109.95 44.21 111.41 45.66 109.95 47.12 107.02 47.12 105.56 45.66 107.02 44.21"/><path class="cls-8" d="M107.47,44.79h.35l.66,1.06h0V44.79h.33v1.58h-.35l-.66-1.06h0v1.06h-.33Z"/><path class="cls-8" d="M110.17,45.32a.34.34,0,0,0-.35-.27c-.31,0-.43.26-.43.54s.12.53.43.53a.36.36,0,0,0,.36-.36h.34a.67.67,0,0,1-.7.65.77.77,0,0,1-.78-.82.78.78,0,0,1,.78-.84.65.65,0,0,1,.69.57Z"/><rect class="cls-4" x="120.97" y="72.35" width="2.47" height="2.91" rx="0.41"/><polygon class="cls-4" points="125.35 75.26 122.43 75.26 120.97 73.8 122.43 72.35 125.35 72.35 126.81 73.8 125.35 75.26"/><path class="cls-8" d="M122.15,72.93h.35l.66,1.06h0V72.93h.33v1.58h-.35l-.66-1.06h0v1.06h-.33Z"/><path class="cls-8" d="M124.85,73.46a.34.34,0,0,0-.35-.27c-.31,0-.43.26-.43.54s.12.53.43.53a.35.35,0,0,0,.36-.36h.34a.67.67,0,0,1-.7.65.76.76,0,0,1-.77-.82.78.78,0,0,1,.77-.84.65.65,0,0,1,.69.57Z"/><rect class="cls-4" x="120.97" y="68.16" width="2.47" height="2.91" rx="0.41"/><polygon class="cls-4" points="125.35 71.06 122.43 71.06 120.97 69.61 122.43 68.16 125.35 68.16 126.81 69.61 125.35 71.06"/><path class="cls-8" d="M122.15,68.73h.35l.66,1.07h0V68.73h.33v1.59h-.35l-.66-1.06h0v1.06h-.33Z"/><path class="cls-8" d="M124.85,69.27a.35.35,0,0,0-.35-.28c-.31,0-.43.27-.43.54s.12.53.43.53a.34.34,0,0,0,.36-.35h.34a.67.67,0,0,1-.7.65.83.83,0,0,1,0-1.66.64.64,0,0,1,.69.57Z"/><rect class="cls-4" x="120.97" y="64.09" width="2.47" height="2.91" rx="0.41"/><polygon class="cls-4" points="125.35 67 122.43 67 120.97 65.55 122.43 64.09 125.35 64.09 126.81 65.55 125.35 67"/><path class="cls-8" d="M122.15,64.67h.35l.66,1.06h0V64.67h.33v1.59h-.35l-.66-1.07h0v1.07h-.33Z"/><path class="cls-8" d="M124.85,65.21a.35.35,0,0,0-.35-.28c-.31,0-.43.26-.43.54s.12.53.43.53a.34.34,0,0,0,.36-.35h.34a.66.66,0,0,1-.7.64.76.76,0,0,1-.77-.82.78.78,0,0,1,.77-.84.65.65,0,0,1,.69.57Z"/><rect class="cls-4" x="120.97" y="60.08" width="2.47" height="2.91" rx="0.41"/><polygon class="cls-4" points="125.35 62.99 122.43 62.99 120.97 61.54 122.43 60.08 125.35 60.08 126.81 61.54 125.35 62.99"/><path class="cls-8" d="M122.15,60.66h.35l.66,1.07h0V60.66h.33v1.59h-.35l-.66-1.06h0v1.06h-.33Z"/><path class="cls-8" d="M124.85,61.2a.35.35,0,0,0-.35-.28c-.31,0-.43.27-.43.54s.12.53.43.53a.34.34,0,0,0,.36-.35h.34a.66.66,0,0,1-.7.64.76.76,0,0,1-.77-.82.78.78,0,0,1,.77-.84.65.65,0,0,1,.69.57Z"/><rect class="cls-4" x="120.97" y="56.11" width="2.47" height="2.91" rx="0.41"/><polygon class="cls-4" points="125.35 59.01 122.43 59.01 120.97 57.56 122.43 56.11 125.35 56.11 126.81 57.56 125.35 59.01"/><path class="cls-8" d="M122.15,56.69h.35l.66,1.06h0V56.69h.33v1.58h-.35l-.66-1.06h0v1.06h-.33Z"/><path class="cls-8" d="M124.85,57.22a.36.36,0,0,0-.35-.28c-.31,0-.43.27-.43.54s.12.54.43.54a.35.35,0,0,0,.36-.36h.34a.67.67,0,0,1-.7.65.83.83,0,0,1,0-1.66.64.64,0,0,1,.69.57Z"/><path class="cls-8" d="M105,38.44h1.11v.11H105Z"/><rect class="cls-4" x="108.93" y="36.08" width="2.47" height="2.91" rx="0.41"/><polygon class="cls-4" points="107.02 36.08 109.95 36.08 111.41 37.53 109.95 38.98 107.02 38.98 105.56 37.53 107.02 36.08"/><path class="cls-8" d="M107.47,36.65h.35l.66,1.07h0V36.65h.33v1.59h-.35l-.66-1.06h0v1.06h-.33Z"/><path class="cls-8" d="M110.17,37.19a.35.35,0,0,0-.35-.28c-.31,0-.43.27-.43.54s.12.53.43.53a.36.36,0,0,0,.36-.35h.34a.67.67,0,0,1-.7.65.83.83,0,0,1,0-1.66.65.65,0,0,1,.69.57Z"/><rect class="cls-4" x="108.93" y="32.02" width="2.47" height="2.91" rx="0.41"/><polygon class="cls-4" points="107.02 32.02 109.95 32.02 111.41 33.47 109.95 34.92 107.02 34.92 105.56 33.47 107.02 32.02"/><path class="cls-8" d="M107.47,32.59h.35l.66,1.07h0V32.59h.33v1.59h-.35l-.66-1.06h0v1.06h-.33Z"/><path class="cls-8" d="M110.17,33.13a.35.35,0,0,0-.35-.28c-.31,0-.43.27-.43.54s.12.53.43.53a.36.36,0,0,0,.36-.35h.34a.67.67,0,0,1-.7.64.77.77,0,0,1-.78-.82.78.78,0,0,1,.78-.84.66.66,0,0,1,.69.58Z"/><path class="cls-8" d="M105,30.32h1.11v.11H105Z"/><rect class="cls-4" x="108.93" y="28.02" width="2.47" height="2.91" rx="0.41"/><polygon class="cls-4" points="107.02 28.02 109.95 28.02 111.41 29.48 109.95 30.93 107.02 30.93 105.56 29.48 107.02 28.02"/><path class="cls-8" d="M107.47,28.6h.35l.66,1.06h0V28.6h.33v1.58h-.35l-.66-1.06h0v1.06h-.33Z"/><path class="cls-8" d="M110.17,29.13a.34.34,0,0,0-.35-.27c-.31,0-.43.26-.43.54s.12.53.43.53.33-.14.36-.36h.34a.67.67,0,0,1-.7.65.77.77,0,0,1-.78-.82.78.78,0,0,1,.78-.84.66.66,0,0,1,.69.57Z"/><rect class="cls-4" x="108.93" y="24.03" width="2.47" height="2.91" rx="0.41"/><polygon class="cls-4" points="107.02 24.03 109.95 24.03 111.41 25.48 109.95 26.93 107.02 26.93 105.56 25.48 107.02 24.03"/><path class="cls-8" d="M107.47,24.61h.35l.66,1.06h0V24.61h.33v1.58h-.35l-.66-1.06h0v1.06h-.33Z"/><path class="cls-8" d="M110.17,25.14a.36.36,0,0,0-.35-.28c-.31,0-.43.27-.43.55s.12.53.43.53a.36.36,0,0,0,.36-.36h.34a.67.67,0,0,1-.7.65.77.77,0,0,1-.78-.82.78.78,0,0,1,.78-.84.65.65,0,0,1,.69.57Z"/><rect class="cls-4" x="108.93" y="19.99" width="2.47" height="2.91" rx="0.41"/><polygon class="cls-4" points="107.02 19.99 109.95 19.99 111.41 21.44 109.95 22.89 107.02 22.89 105.56 21.44 107.02 19.99"/><path class="cls-8" d="M107.47,20.56h.35l.66,1.07h0V20.56h.33v1.59h-.35l-.66-1.06h0v1.06h-.33Z"/><path class="cls-8" d="M110.17,21.1a.35.35,0,0,0-.35-.28c-.31,0-.43.27-.43.54s.12.53.43.53a.36.36,0,0,0,.36-.35h.34a.67.67,0,0,1-.7.64.77.77,0,0,1-.78-.82.78.78,0,0,1,.78-.84.66.66,0,0,1,.69.58Z"/><path class="cls-8" d="M105,70.52h1.11v.11H105Z"/><rect class="cls-4" x="108.93" y="68.15" width="2.47" height="2.91" rx="0.41"/><polygon class="cls-4" points="107.02 68.16 109.95 68.16 111.41 69.61 109.95 71.06 107.02 71.06 105.56 69.61 107.02 68.16"/><path class="cls-8" d="M107.47,68.73h.35l.66,1.07h0V68.73h.33v1.59h-.35l-.66-1.06h0v1.06h-.33Z"/><path class="cls-8" d="M110.17,69.27a.35.35,0,0,0-.35-.28c-.31,0-.43.27-.43.54s.12.53.43.53a.36.36,0,0,0,.36-.35h.34a.67.67,0,0,1-.7.64.77.77,0,0,1-.78-.82.78.78,0,0,1,.78-.84.66.66,0,0,1,.69.57Z"/><path class="cls-8" d="M105,74.71h1.11v.12H105Z"/><rect class="cls-4" x="108.93" y="72.35" width="2.47" height="2.91" rx="0.41"/><polygon class="cls-4" points="107.02 72.35 109.95 72.35 111.41 73.81 109.95 75.26 107.02 75.26 105.56 73.81 107.02 72.35"/><path class="cls-8" d="M107.47,72.93h.35l.66,1.06h0V72.93h.33v1.58h-.35l-.66-1.06h0v1.06h-.33Z"/><path class="cls-8" d="M110.17,73.46a.34.34,0,0,0-.35-.27c-.31,0-.43.26-.43.54s.12.53.43.53a.36.36,0,0,0,.36-.36h.34a.67.67,0,0,1-.7.65.77.77,0,0,1-.78-.82.78.78,0,0,1,.78-.84.66.66,0,0,1,.69.57Z"/><rect class="cls-4" x="108.93" y="64.09" width="2.47" height="2.91" rx="0.41"/><polygon class="cls-4" points="107.02 64.09 109.95 64.09 111.41 65.55 109.95 67 107.02 67 105.56 65.55 107.02 64.09"/><path class="cls-8" d="M107.47,64.67h.35l.66,1.06h0V64.67h.33v1.58h-.35l-.66-1.06h0v1.06h-.33Z"/><path class="cls-8" d="M110.17,65.2a.34.34,0,0,0-.35-.27c-.31,0-.43.26-.43.54s.12.53.43.53.33-.14.36-.36h.34a.67.67,0,0,1-.7.65.77.77,0,0,1-.78-.82.78.78,0,0,1,.78-.84.66.66,0,0,1,.69.57Z"/><path class="cls-8" d="M105,62.39h1.11v.11H105Z"/><rect class="cls-4" x="108.93" y="60.1" width="2.47" height="2.91" rx="0.41"/><polygon class="cls-4" points="107.02 60.1 109.95 60.1 111.41 61.55 109.95 63.01 107.02 63.01 105.56 61.55 107.02 60.1"/><path class="cls-8" d="M107.47,60.68h.35l.66,1.06h0V60.68h.33v1.58h-.35l-.66-1.06h0v1.06h-.33Z"/><path class="cls-8" d="M110.17,61.21a.36.36,0,0,0-.35-.28c-.31,0-.43.27-.43.55s.12.53.43.53a.36.36,0,0,0,.36-.36h.34a.67.67,0,0,1-.7.65.77.77,0,0,1-.78-.82.78.78,0,0,1,.78-.84.65.65,0,0,1,.69.57Z"/><rect class="cls-4" x="108.93" y="56.11" width="2.47" height="2.91" rx="0.41"/><polygon class="cls-4" points="107.02 56.11 109.95 56.11 111.41 57.56 109.95 59.01 107.02 59.01 105.56 57.56 107.02 56.11"/><path class="cls-8" d="M107.47,56.68h.35l.66,1.07h0V56.68h.33v1.59h-.35l-.66-1.06h0v1.06h-.33Z"/><path class="cls-8" d="M110.17,57.22a.36.36,0,0,0-.35-.28c-.31,0-.43.27-.43.54s.12.53.43.53a.36.36,0,0,0,.36-.35h.34a.67.67,0,0,1-.7.65.83.83,0,0,1,0-1.66.65.65,0,0,1,.69.57Z"/><rect class="cls-4" x="108.93" y="52.06" width="2.47" height="2.91" rx="0.41"/><polygon class="cls-4" points="107.02 52.06 109.95 52.06 111.41 53.52 109.95 54.97 107.02 54.97 105.56 53.52 107.02 52.06"/><path class="cls-8" d="M107.47,52.64h.35l.66,1.06h0V52.64h.33v1.58h-.35l-.66-1.06h0v1.06h-.33Z"/><path class="cls-8" d="M110.17,53.17a.34.34,0,0,0-.35-.27c-.31,0-.43.26-.43.54s.12.53.43.53.33-.14.36-.36h.34a.67.67,0,0,1-.7.65.77.77,0,0,1-.78-.82.78.78,0,0,1,.78-.84.66.66,0,0,1,.69.57Z"/><rect class="cls-4" x="108.93" y="12.16" width="2.47" height="2.91" rx="0.41"/><polygon class="cls-4" points="107.02 12.15 109.95 12.15 111.41 13.61 109.95 15.06 107.02 15.06 105.56 13.61 107.02 12.15"/><path class="cls-8" d="M107.47,12.73h.35l.66,1.07h0V12.73h.33v1.59h-.35l-.66-1.06h0v1.06h-.33Z"/><path class="cls-8" d="M110.17,13.27a.35.35,0,0,0-.35-.28c-.31,0-.43.27-.43.54s.12.53.43.53a.36.36,0,0,0,.36-.35h.34a.67.67,0,0,1-.7.64.77.77,0,0,1-.78-.82.78.78,0,0,1,.78-.84.66.66,0,0,1,.69.57Z"/><rect class="cls-4" x="108.93" y="8.11" width="2.47" height="2.91" rx="0.41"/><polygon class="cls-4" points="107.02 8.11 109.95 8.11 111.41 9.56 109.95 11.02 107.02 11.02 105.56 9.56 107.02 8.11"/><path class="cls-8" d="M107.47,8.69h.35l.66,1.06h0V8.69h.33v1.58h-.35l-.66-1.06h0v1.06h-.33Z"/><path class="cls-8" d="M110.17,9.22a.36.36,0,0,0-.35-.28c-.31,0-.43.27-.43.55s.12.53.43.53a.36.36,0,0,0,.36-.36h.34a.67.67,0,0,1-.7.65.77.77,0,0,1-.78-.82.78.78,0,0,1,.78-.84.65.65,0,0,1,.69.57Z"/><path class="cls-8" d="M106.41,40.89h.35l.6,1.59H107l-.12-.35h-.6l-.12.35h-.36Zm0,1h.41l-.2-.58h0Z"/><path class="cls-8" d="M107.5,40.89h.35v1.59h-.35Z"/><path class="cls-8" d="M108.15,40.89h.35l.66,1.07h0V40.89h.33v1.59h-.35l-.66-1.07h0v1.07h-.33Z"/><path class="cls-8" d="M110.52,42.48h-.31v-1h-.4v-.24c.23,0,.43-.07.46-.31h.25Z"/><path class="cls-8" d="M105.44,48.78h.75c.3,0,.5.1.5.39a.34.34,0,0,1-.21.33.4.4,0,0,1,.29.41c0,.32-.27.46-.56.46h-.77Zm.35.64h.35c.13,0,.22-.05.22-.19s-.12-.18-.25-.18h-.32Zm0,.68h.37c.14,0,.26-.05.26-.21s-.1-.23-.25-.23h-.38Z"/><path class="cls-8" d="M107,48.78h.34v1.59H107Z"/><path class="cls-8" d="M107.66,48.78H108l.66,1.06h0V48.78H109v1.59h-.35L108,49.3h0v1.07h-.33Z"/><path class="cls-8" d="M109.24,49.41a.55.55,0,0,1,.57-.63.49.49,0,0,1,.53.49c0,.47-.5.51-.73.83h.74v.27h-1.14c0-.37.22-.51.49-.7s.33-.19.33-.38a.23.23,0,0,0-.24-.24c-.19,0-.25.19-.25.36Z"/><path class="cls-7" d="M121.16,52H127c.11,0,.19.13.19.3v2.27c0,.16-.08.3-.19.3h-5.87c-.1,0-.19-.14-.19-.3V52.34C121,52.17,121.06,52,121.16,52Z"/><polygon class="cls-7" points="128.75 53.47 127.31 52.04 124.42 52.04 122.98 53.47 124.42 54.91 127.31 54.91 128.75 53.47"/><path class="cls-6" d="M121.15,48.18h5.33c.1,0,.18.14.18.3v2.3c0,.16-.08.3-.18.3h-5.33c-.1,0-.18-.14-.18-.3v-2.3C121,48.32,121.05,48.18,121.15,48.18Z"/><polygon class="cls-6" points="129 49.63 127.54 48.18 124.63 48.18 123.17 49.63 124.63 51.08 127.54 51.08 129 49.63"/><path class="cls-8" d="M122.74,48.79h.36l.59,1.59h-.36l-.12-.35h-.6l-.12.35h-.35Zm0,1h.41l-.2-.59h0Z"/><path class="cls-8" d="M123.83,48.79h.35v1.59h-.35Z"/><path class="cls-8" d="M124.49,48.79h.35l.66,1.07h0V48.79h.33v1.59h-.35l-.66-1.06h0v1.06h-.33Z"/><path class="cls-8" d="M126.07,49.42a.55.55,0,0,1,.56-.63.5.5,0,0,1,.54.49c0,.47-.5.51-.73.83h.74v.27H126c0-.36.22-.51.49-.7s.33-.19.33-.38a.22.22,0,0,0-.23-.24c-.19,0-.25.2-.25.36Z"/><path class="cls-8" d="M122.09,52.61h.74c.3,0,.51.1.51.4a.36.36,0,0,1-.22.33.37.37,0,0,1,.29.4c0,.32-.27.45-.56.45h-.76Zm.35.64h.35c.12,0,.21,0,.21-.18s-.11-.19-.24-.19h-.32Zm0,.67h.37c.13,0,.25,0,.25-.2s-.09-.23-.25-.23h-.37Z"/><path class="cls-8" d="M123.64,52.61H124v1.58h-.35Z"/><path class="cls-8" d="M124.29,52.61h.35l.66,1.06h0V52.61h.33v1.58h-.35l-.66-1h0v1h-.33Z"/><path class="cls-8" d="M126.64,54.19h-.31v-1h-.39V53c.22,0,.42-.07.45-.31h.25Z"/><rect class="cls-4" x="120.97" y="40.25" width="2.47" height="2.91" rx="0.41"/><polygon class="cls-4" points="125.35 43.16 122.43 43.16 120.97 41.7 122.43 40.25 125.35 40.25 126.81 41.7 125.35 43.16"/><path class="cls-8" d="M122.15,40.83h.35l.66,1.06h0V40.83h.33v1.58h-.35l-.66-1.06h0v1.06h-.33Z"/><path class="cls-8" d="M124.85,41.36a.34.34,0,0,0-.35-.27c-.31,0-.43.26-.43.54s.12.53.43.53a.35.35,0,0,0,.36-.36h.34a.67.67,0,0,1-.7.65.76.76,0,0,1-.77-.82.78.78,0,0,1,.77-.84.64.64,0,0,1,.69.57Z"/><rect class="cls-4" x="120.97" y="36.13" width="2.47" height="2.91" rx="0.41"/><polygon class="cls-4" points="125.35 39.04 122.43 39.04 120.97 37.58 122.43 36.13 125.35 36.13 126.81 37.58 125.35 39.04"/><path class="cls-8" d="M122.15,36.71h.35l.66,1.06h0V36.71h.33v1.58h-.35l-.66-1.06h0v1.06h-.33Z"/><path class="cls-8" d="M124.85,37.24a.34.34,0,0,0-.35-.27c-.31,0-.43.26-.43.54s.12.53.43.53a.35.35,0,0,0,.36-.36h.34a.67.67,0,0,1-.7.65.76.76,0,0,1-.77-.82.78.78,0,0,1,.77-.84.65.65,0,0,1,.69.57Z"/><rect class="cls-4" x="120.97" y="32.04" width="2.47" height="2.91" rx="0.41"/><polygon class="cls-4" points="125.35 34.95 122.43 34.95 120.97 33.49 122.43 32.04 125.35 32.04 126.81 33.49 125.35 34.95"/><path class="cls-8" d="M122.15,32.62h.35l.66,1.06h0V32.62h.33v1.59h-.35l-.66-1.07h0v1.07h-.33Z"/><path class="cls-8" d="M124.85,33.16a.34.34,0,0,0-.35-.28c-.31,0-.43.26-.43.54s.12.53.43.53a.34.34,0,0,0,.36-.35h.34a.66.66,0,0,1-.7.64.76.76,0,0,1-.77-.82.78.78,0,0,1,.77-.84.65.65,0,0,1,.69.57Z"/><rect class="cls-4" x="120.97" y="27.95" width="2.47" height="2.91" rx="0.41"/><polygon class="cls-4" points="125.35 30.85 122.43 30.85 120.97 29.4 122.43 27.95 125.35 27.95 126.81 29.4 125.35 30.85"/><path class="cls-8" d="M122.15,28.52h.35l.66,1.07h0V28.52h.33v1.59h-.35l-.66-1.06h0v1.06h-.33Z"/><path class="cls-8" d="M124.85,29.06a.36.36,0,0,0-.35-.28c-.31,0-.43.27-.43.54s.12.53.43.53a.34.34,0,0,0,.36-.35h.34a.67.67,0,0,1-.7.65.83.83,0,0,1,0-1.66.64.64,0,0,1,.69.57Z"/><rect class="cls-4" x="120.97" y="23.97" width="2.47" height="2.91" rx="0.41"/><polygon class="cls-4" points="125.35 26.87 122.43 26.87 120.97 25.42 122.43 23.96 125.35 23.96 126.81 25.42 125.35 26.87"/><path class="cls-8" d="M122.15,24.54h.35l.66,1.07h0V24.54h.33v1.59h-.35l-.66-1.06h0v1.06h-.33Z"/><path class="cls-8" d="M124.85,25.08a.35.35,0,0,0-.35-.28c-.31,0-.43.27-.43.54s.12.53.43.53a.34.34,0,0,0,.36-.35h.34a.67.67,0,0,1-.7.65.83.83,0,0,1,0-1.66.64.64,0,0,1,.69.57Z"/><rect class="cls-4" x="120.97" y="19.93" width="2.47" height="2.91" rx="0.41"/><polygon class="cls-4" points="125.35 22.83 122.43 22.83 120.97 21.38 122.43 19.93 125.35 19.93 126.81 21.38 125.35 22.83"/><path class="cls-8" d="M122.15,20.51h.35l.66,1.06h0V20.51h.33v1.58h-.35L122.48,21h0v1.06h-.33Z"/><path class="cls-8" d="M124.85,21a.36.36,0,0,0-.35-.28c-.31,0-.43.27-.43.55s.12.53.43.53a.35.35,0,0,0,.36-.36h.34a.67.67,0,0,1-.7.65.76.76,0,0,1-.77-.82.78.78,0,0,1,.77-.84.64.64,0,0,1,.69.57Z"/><rect class="cls-4" x="120.97" y="16.01" width="2.47" height="2.91" rx="0.41"/><polygon class="cls-4" points="125.35 18.91 122.43 18.91 120.97 17.46 122.43 16.01 125.35 16.01 126.81 17.46 125.35 18.91"/><path class="cls-8" d="M122.15,16.58h.35l.66,1.07h0V16.58h.33v1.59h-.35l-.66-1.06h0v1.06h-.33Z"/><path class="cls-8" d="M124.85,17.12a.35.35,0,0,0-.35-.28c-.31,0-.43.27-.43.54s.12.53.43.53a.34.34,0,0,0,.36-.35h.34a.67.67,0,0,1-.7.65.83.83,0,0,1,0-1.66.64.64,0,0,1,.69.57Z"/><rect class="cls-4" x="120.97" y="12.07" width="2.47" height="2.91" rx="0.41"/><polygon class="cls-4" points="125.35 14.98 122.43 14.98 120.97 13.52 122.43 12.07 125.35 12.07 126.81 13.52 125.35 14.98"/><path class="cls-8" d="M122.15,12.65h.35l.66,1.06h0V12.65h.33v1.58h-.35l-.66-1.06h0v1.06h-.33Z"/><path class="cls-8" d="M124.85,13.18a.34.34,0,0,0-.35-.27c-.31,0-.43.26-.43.54s.12.53.43.53a.35.35,0,0,0,.36-.36h.34a.67.67,0,0,1-.7.65.76.76,0,0,1-.77-.82.78.78,0,0,1,.77-.84.65.65,0,0,1,.69.57Z"/><rect class="cls-4" x="120.97" y="8.11" width="2.47" height="2.91" rx="0.41"/><polygon class="cls-4" points="125.35 11.01 122.43 11.01 120.97 9.56 122.43 8.11 125.35 8.11 126.81 9.56 125.35 11.01"/><path class="cls-8" d="M122.15,8.68h.35l.66,1.07h0V8.68h.33v1.59h-.35l-.66-1.06h0v1.06h-.33Z"/><path class="cls-8" d="M124.85,9.22a.36.36,0,0,0-.35-.28c-.31,0-.43.27-.43.54s.12.53.43.53a.34.34,0,0,0,.36-.35h.34a.67.67,0,0,1-.7.65.77.77,0,0,1-.77-.83.77.77,0,0,1,.77-.83.64.64,0,0,1,.69.57Z"/><rect class="cls-4" x="120.97" y="44.21" width="2.47" height="2.91" rx="0.41"/><polygon class="cls-4" points="125.35 47.12 122.43 47.12 120.97 45.66 122.43 44.21 125.35 44.21 126.81 45.66 125.35 47.12"/><path class="cls-8" d="M122.15,44.79h.35l.66,1.06h0V44.79h.33v1.58h-.35l-.66-1.06h0v1.06h-.33Z"/><path class="cls-8" d="M124.85,45.32a.36.36,0,0,0-.35-.28c-.31,0-.43.27-.43.55s.12.53.43.53a.35.35,0,0,0,.36-.36h.34a.67.67,0,0,1-.7.65.76.76,0,0,1-.77-.82.78.78,0,0,1,.77-.84.64.64,0,0,1,.69.57Z"/><g class="cls-9"><path class="cls-10" d="M0,16.1v47H65v-47Zm9.23,1.06a2.76,2.76,0,1,1-2.74,2.76A2.74,2.74,0,0,1,9.23,17.16Zm0,44.72A2.8,2.8,0,1,1,12,59.08,2.78,2.78,0,0,1,9.23,61.88Zm31.62-40.7a1.47,1.47,0,1,1,1.46-1.47A1.47,1.47,0,0,1,40.85,21.18ZM52,61a1.47,1.47,0,1,1,1.46-1.47A1.46,1.46,0,0,1,52,61Zm9.53-32.3A1.47,1.47,0,1,1,63,27.26,1.46,1.46,0,0,1,61.51,28.73Z"/><g id="dispose-properly"><g id="Layer_2-2" data-name="Layer 2-2"><g id="Layer_1-2-2" data-name="Layer 1-2"><path class="cls-11" d="M61.85,58.17a.38.38,0,0,0-.42.34h0v.09a.38.38,0,0,0,.37.31.38.38,0,0,0,.05-.74m0,.47h-.05a.09.09,0,0,1,0-.12.08.08,0,0,1,.07,0h0a.08.08,0,0,1,0,.05.09.09,0,0,1-.09.09"/><path class="cls-11" d="M64.05,50l-.18-.19-.65.65-.38.39h0l0-.39h.35v-.19a.47.47,0,0,0,.26-.61.45.45,0,0,0-.6-.26h0a.54.54,0,0,0-.21.16,2.29,2.29,0,0,0-.55-.31A5.68,5.68,0,0,0,61,49v-.23H59.26v.22a7,7,0,0,0-.93.12v-.15h-.77v.37a2.33,2.33,0,0,0-.7.45.15.15,0,0,0,0,.13V50h-.43v.5h.48l.09.86L55.65,50l-.19.18L57,51.79l.29,3.2c0,.54.11,1.07.15,1.62L56.06,58l.18.19L57.43,57c.06.65.12,1.27.17,1.89a.16.16,0,0,0,.16.15v.77h.65V59h2.27a1.13,1.13,0,1,0,1.48-1.45v-.25l1,1.09.19-.18-1.2-1.25c.06-.66.13-1.31.19-2,.08-1,.17-1.91.25-2.85h.91V50.87H63.2Zm-1-.35a.21.21,0,0,1,.15.34h-.3v-.12a.17.17,0,0,0,0-.12.21.21,0,0,1,.17-.1M59.53,49h1.15v.23H59.54Zm-1.69.19H58v.5h-.16Zm-.71.72a2.71,2.71,0,0,1,.41-.28V50h-.4v-.06m.46,5c-.08-.93-.17-1.87-.26-2.79l2.16,2.26-1.77,1.87c0-.45-.09-.9-.13-1.31m.59,4.64h-.14v-.38h.14Zm2.47-1v.07H58c-.06-.65-.12-1.36-.18-2l1.94-2L62,56.91l0,.49h-.15a1.12,1.12,0,0,0-1.12,1.13h0m1.72,0a.59.59,0,0,1-1.18.07v-.07a.6.6,0,0,1,.58-.6h.07a.6.6,0,0,1,.53.59m-.25-3.65L62,56.57l-2.1-2.22L61.16,53h.31v-.34l.9-.94v.34h0c-.09.94-.18,1.88-.26,2.82M61,52.72H59.46v-.24H61.2v.16Zm1.46-1.85h-.14v.5l-.89.94v-.08H59.16V53h1.63l-1.11,1.17-2.37-2.5-.12-1.22h5.35l0,.4m.08-.9H58.32v-.59a5.66,5.66,0,0,1,.92-.13v.25H61v-.19a5.43,5.43,0,0,1,1,.25,2,2,0,0,1,.57.35V50m.65,1.18v.65h-.51a1.73,1.73,0,0,1,.05-.5l.16-.16Z"/></g></g></g><path class="cls-12" d="M9.23,54.55A4.74,4.74,0,0,0,6.45,63.1H12a4.74,4.74,0,0,0-2.77-8.55Zm0,7.33A2.8,2.8,0,1,1,12,59.08,2.78,2.78,0,0,1,9.23,61.88Z"/><path class="cls-12" d="M11.52,16.1H6.93a4.39,4.39,0,1,0,4.59,0ZM9.23,22.68A2.76,2.76,0,1,1,12,19.92,2.75,2.75,0,0,1,9.23,22.68Z"/><path class="cls-12" d="M40.85,16.8a2.91,2.91,0,1,0,2.89,2.91A2.89,2.89,0,0,0,40.85,16.8Zm0,4.38a1.47,1.47,0,1,1,1.46-1.47A1.47,1.47,0,0,1,40.85,21.18Z"/><path class="cls-12" d="M61.43,24.58a2.68,2.68,0,1,0,2.66,2.68A2.67,2.67,0,0,0,61.43,24.58Zm.08,4.15A1.47,1.47,0,1,1,63,27.26,1.46,1.46,0,0,1,61.51,28.73Z"/><path class="cls-12" d="M52,56.83a2.68,2.68,0,1,0,2.66,2.68A2.67,2.67,0,0,0,52,56.83ZM52,61a1.47,1.47,0,1,1,1.46-1.47A1.46,1.46,0,0,1,52,61Z"/><ellipse class="cls-13" cx="36.26" cy="42.45" rx="0.91" ry="0.92"/><ellipse class="cls-14" cx="36.26" cy="42.45" rx="0.65" ry="0.66"/><ellipse class="cls-13" cx="26.8" cy="49.08" rx="0.91" ry="0.92"/><ellipse class="cls-14" cx="26.8" cy="49.08" rx="0.65" ry="0.66"/><ellipse class="cls-13" cx="26.8" cy="35.79" rx="0.91" ry="0.92"/><ellipse class="cls-14" cx="26.8" cy="35.79" rx="0.65" ry="0.66"/><ellipse class="cls-13" cx="17.83" cy="28.26" rx="0.91" ry="0.92"/><ellipse class="cls-14" cx="17.83" cy="28.26" rx="0.65" ry="0.66"/><ellipse class="cls-13" cx="8.31" cy="34.88" rx="0.91" ry="0.92"/><ellipse class="cls-14" cx="8.31" cy="34.88" rx="0.65" ry="0.66"/><ellipse class="cls-13" cx="8.31" cy="48.27" rx="0.91" ry="0.92"/><ellipse class="cls-14" cx="8.31" cy="48.27" rx="0.65" ry="0.66"/><ellipse class="cls-13" cx="36.26" cy="29.17" rx="0.91" ry="0.92"/><ellipse class="cls-14" cx="36.26" cy="29.17" rx="0.65" ry="0.66"/><ellipse class="cls-13" cx="17.83" cy="41.53" rx="0.91" ry="0.92"/><ellipse class="cls-14" cx="17.83" cy="41.53" rx="0.65" ry="0.66"/><rect class="cls-15" x="17.49" y="19.35" width="1.29" height="1.3" rx="0.26"/><rect class="cls-16" x="17.89" y="19.75" width="0.5" height="0.5" rx="0.15"/><rect class="cls-15" x="22.3" y="19.35" width="1.29" height="1.3" rx="0.26"/><rect class="cls-16" x="22.69" y="19.75" width="0.5" height="0.5" rx="0.15"/><rect class="cls-15" x="27.06" y="19.35" width="1.29" height="1.3" rx="0.26"/><rect class="cls-16" x="27.45" y="19.75" width="0.5" height="0.5" rx="0.15"/><circle class="cls-17" cx="61.56" cy="17.62" r="0.3"/><path class="cls-8" d="M21.7,49.13,26.75,59.6H16.65Zm0-.57L16.25,59.85h10.9Z"/><polygon class="cls-8" points="19.38 53.65 19.5 53.43 25.74 56.99 25.62 57.21 19.38 53.65"/><polygon class="cls-8" points="19.14 54.14 19.26 53.93 26.16 57.87 26.04 58.08 19.14 54.14"/><path class="cls-8" d="M20.28,54l-.21-.12a10.25,10.25,0,0,1,.72-1.24c.33-.47,2.15-.87,2.36-.92l.06.25a5.8,5.8,0,0,0-2.22.82c-.31.43-.7,1.18-.71,1.19"/><path class="cls-8" d="M23.4,55.87l-.13-.22a1,1,0,0,0,.47-.85,3.13,3.13,0,0,1,.18-1.14l.23.08a3.29,3.29,0,0,0-.18,1,1.2,1.2,0,0,1-.62,1.09"/><path class="cls-8" d="M20.76,57.2h-.1c-.52-.07-1.17-1.7-1.18-1.72a1.13,1.13,0,0,1,.32-1.14l.18.18s-.44.43-.27.87c.28.71.76,1.53,1,1.56s.18,0,.19,0,0-.13-.09-.25a2.66,2.66,0,0,1-.53-1.23,2.29,2.29,0,0,1,.27-.62l.21.13a2.3,2.3,0,0,0-.24.5A2.84,2.84,0,0,0,21,56.52c.21.27.17.44.13.53a.41.41,0,0,1-.35.17"/><path class="cls-8" d="M21.72,57.69a.32.32,0,0,1-.15-.06c-.09,0-.19-.16-.16-.43a4.18,4.18,0,0,1,.82-1.49l.19.16a4,4,0,0,0-.76,1.36c0,.11,0,.17,0,.18a.76.76,0,0,0,.45-.21,8.51,8.51,0,0,0,.8-1.07l.21.14a9.17,9.17,0,0,1-.85,1.12,1,1,0,0,1-.61.28"/><path class="cls-8" d="M21.65,56.79a2.45,2.45,0,0,1-1-.4l.13-.21a1.85,1.85,0,0,0,.92.37.19.19,0,0,0,0-.18.91.91,0,0,0-.51-.43.67.67,0,0,1-.41-.38A.63.63,0,0,1,20.9,55l.21.13a.44.44,0,0,0-.11.33c0,.09.12.16.27.23a1.11,1.11,0,0,1,.65.59.46.46,0,0,1-.05.38.21.21,0,0,1-.16.11h-.08"/><rect class="cls-8" x="21.23" y="49.7" width="1" height="0.25"/><rect class="cls-8" x="20.93" y="50.32" width="1.54" height="0.25"/><rect class="cls-8" x="20.64" y="50.92" width="2.12" height="0.25"/><rect class="cls-8" x="20.34" y="51.54" width="2.71" height="0.25"/><rect class="cls-8" x="20.1" y="52.14" width="1.61" height="0.25"/><rect class="cls-8" x="19.75" y="52.76" width="1.01" height="0.25"/><rect class="cls-8" x="19.51" y="53.36" width="0.86" height="0.25"/><rect class="cls-8" x="18.87" y="54.58" width="0.8" height="0.25"/><rect class="cls-8" x="23.88" y="54.58" width="0.65" height="0.25"/><rect class="cls-8" x="18.57" y="55.2" width="1.03" height="0.25"/><rect class="cls-8" x="23.77" y="55.2" width="1.03" height="0.25"/><rect class="cls-8" x="18.33" y="55.81" width="1.49" height="0.25"/><rect class="cls-8" x="23.64" y="55.81" width="1.47" height="0.25"/><rect class="cls-8" x="17.98" y="56.42" width="2.18" height="0.25"/><rect class="cls-8" x="22.83" y="56.42" width="0.78" height="0.25"/><rect class="cls-18" x="24.71" y="56.42" width="0.66" height="0.25"/><rect class="cls-8" x="17.69" y="57.03" width="3.84" height="0.25"/><rect class="cls-8" x="22.38" y="57.03" width="2.33" height="0.25"/><rect class="cls-8" x="17.49" y="57.64" width="8.22" height="0.25"/><rect class="cls-8" x="17.1" y="58.25" width="9.19" height="0.25"/><rect class="cls-8" x="16.78" y="58.86" width="9.8" height="0.25"/></g><path class="cls-19" d="M46.76,22h-.15a.26.26,0,0,1-.24-.25V19.15a.24.24,0,0,1,.24-.24h.15a.25.25,0,0,1,.25.24h0v2.61a.25.25,0,0,1-.25.25h0"/><path class="cls-19" d="M62.91,22h-.15a.25.25,0,0,1-.25-.25h0V19.15a.24.24,0,0,1,.24-.24h.16a.25.25,0,0,1,.24.23h0v2.61a.26.26,0,0,1-.24.25h0"/><path class="cls-20" d="M63.3,19.73v-.25a.24.24,0,0,0-.24-.24h-.51a.28.28,0,0,0-.22.16H47.17a.24.24,0,0,0-.23-.16h-.5a.23.23,0,0,0-.24.23h0v.25a.26.26,0,0,0,.17.24v1a.25.25,0,0,0-.17.24v.25a.24.24,0,0,0,.23.25h.51a.24.24,0,0,0,.23-.17H62.33a.23.23,0,0,0,.22.17h.51a.24.24,0,0,0,.24-.24h0v-.28a.25.25,0,0,0-.15-.21V20A.25.25,0,0,0,63.3,19.73Z"/><path class="cls-21" d="M62,21.29H47.51c-.11,0-.2-.05-.2-.12V19.79c0-.07.09-.12.2-.12H62c.12,0,.2,0,.2.12v1.38c0,.07-.08.12-.2.12"/><path class="cls-19" d="M48.23,18.38H48a.07.07,0,0,0-.07.07h0v.25s0,.07.06.07h0v.67h.29v-.67a.08.08,0,0,0,.07-.08h0v-.25a.07.07,0,0,0-.07-.07h0"/><path class="cls-22" d="M48.2,19.69h-.38a.06.06,0,0,1,0-.06v-.18s0-.06,0-.06h.38a.06.06,0,0,1,.06.06v.18a.06.06,0,0,1-.06.06"/><path class="cls-19" d="M48.23,22.58H48a.07.07,0,0,1-.07-.07h0v-.25a.08.08,0,0,1,.07-.05v-.69h.29v.69a.09.09,0,0,1,.08.08h0v.25a.08.08,0,0,1-.08.07h0"/><path class="cls-22" d="M48.2,21.27h-.38a.06.06,0,0,0,0,.06v.18a.06.06,0,0,0,0,.06h.38a.06.06,0,0,0,.06-.06v-.18a.06.06,0,0,0-.06-.06"/><path class="cls-19" d="M48.91,18.38h-.27a.08.08,0,0,0-.08.07h0v.25a.07.07,0,0,0,.06.07h0v.67h.29v-.67A.08.08,0,0,0,49,18.7h0v-.25a.07.07,0,0,0-.07-.07h0"/><path class="cls-22" d="M48.88,19.69h-.37a.06.06,0,0,1-.06-.06v-.18a.06.06,0,0,1,.06-.06h.37a.06.06,0,0,1,.06.06v.18a.06.06,0,0,1-.06.06"/><path class="cls-19" d="M48.91,22.58h-.27a.07.07,0,0,1-.07-.07v-.25a.06.06,0,0,1,.06-.05v-.69h.29v.69a.08.08,0,0,1,.07.08h0v.25a.07.07,0,0,1-.07.07h0"/><path class="cls-22" d="M48.88,21.27h-.37a.06.06,0,0,0-.06.06v.18a.06.06,0,0,0,0,.06h.38a.06.06,0,0,0,.06-.05h0v-.18a.06.06,0,0,0-.06-.06"/><path class="cls-19" d="M49.64,18.38h-.28a.08.08,0,0,0-.08.07h0v.25a.09.09,0,0,0,.08.08h0v.67h.29v-.67s.06,0,.06-.07h0v-.25a.07.07,0,0,0-.07-.07h0"/><path class="cls-22" d="M49.6,19.69h-.37a.06.06,0,0,1-.06-.06v-.18a.06.06,0,0,1,.06-.06h.37a.06.06,0,0,1,.06.05h0v.18a.05.05,0,0,1-.06.06"/><path class="cls-19" d="M49.64,22.58h-.28a.08.08,0,0,1-.08-.07h0v-.25a.08.08,0,0,1,.08-.05v-.69h.29v.69a.07.07,0,0,1,.06.07h0v.25a.07.07,0,0,1-.07.07h0"/><path class="cls-22" d="M49.6,21.27h-.37a.06.06,0,0,0-.06.06v.18a.06.06,0,0,0,0,.06h.38a0,0,0,0,0,.06-.05s0,0,0,0v-.18a.06.06,0,0,0-.06-.06"/><path class="cls-19" d="M50.35,18.38h-.29a.07.07,0,0,0-.07.07h0v.25a.08.08,0,0,0,.07.08h0v.67h.29v-.67a.08.08,0,0,0,.07-.08h0v-.25a.08.08,0,0,0-.08-.07h0"/><path class="cls-22" d="M50.31,19.69h-.37a.06.06,0,0,1-.06-.06v-.18a.05.05,0,0,1,.06-.06h.37a.06.06,0,0,1,.06.05h0v.18a.05.05,0,0,1-.06.06"/><path class="cls-19" d="M50.35,22.58h-.29a.07.07,0,0,1-.07-.07h0v-.25a.08.08,0,0,1,.07-.05v-.69h.29v.69a.07.07,0,0,1,.07.07h0v.25a.07.07,0,0,1-.07.07h0"/><path class="cls-22" d="M50.31,21.27h-.37a.06.06,0,0,0-.06.06v.18a.06.06,0,0,0,0,.06h.38a0,0,0,0,0,.06-.05h0v-.18a.06.06,0,0,0-.06-.06"/><path class="cls-19" d="M51,18.38h-.28a.08.08,0,0,0-.08.07h0v.25a.09.09,0,0,0,.08.08h0v.67H51v-.67a.09.09,0,0,0,.08-.08h0v-.25a.08.08,0,0,0-.08-.07h0"/><path class="cls-22" d="M51,19.69h-.37a.06.06,0,0,1-.06-.06v-.18a.05.05,0,0,1,.06-.06H51a.06.06,0,0,1,.06.05h0v.18a.05.05,0,0,1-.06.06"/><path class="cls-19" d="M51,22.58h-.28a.08.08,0,0,1-.08-.07h0v-.25a.1.1,0,0,1,.08-.05v-.69H51v.69a.09.09,0,0,1,.08.08h0v.25a.07.07,0,0,1-.08,0"/><path class="cls-22" d="M51,21.27h-.37a.06.06,0,0,0-.06.06v.18a.06.06,0,0,0,0,.06H51a0,0,0,0,0,.06-.05h0v-.18a.06.06,0,0,0-.06-.06"/><path class="cls-19" d="M51.72,18.38h-.28a.08.08,0,0,0-.08.07h0v.25a.09.09,0,0,0,.08.08h0v.67h.28v-.67a.08.08,0,0,0,.07-.08h0v-.25a.07.07,0,0,0-.07-.07h0"/><path class="cls-22" d="M51.68,19.69h-.37a.06.06,0,0,1-.06-.06v-.18a.06.06,0,0,1,.06-.06h.37a.08.08,0,0,1,.07.05h0v.18s0,.06-.07.06"/><path class="cls-19" d="M51.72,22.58h-.28a.08.08,0,0,1-.08-.07h0v-.25a.08.08,0,0,1,.08-.05v-.69h.28v.69a.08.08,0,0,1,.07.08h0v.25a.07.07,0,0,1-.07.07h0"/><path class="cls-22" d="M51.68,21.27h-.37a.06.06,0,0,0-.06.06v.18a.06.06,0,0,0,0,.06h.38s.06,0,.07-.05h0v-.18a.07.07,0,0,0-.07-.06"/><path class="cls-19" d="M52.41,18.38h-.28a.08.08,0,0,0-.08.07h0v.25a.09.09,0,0,0,.08.08h0v.67h.29v-.67s.06,0,.06-.07h0v-.25a.07.07,0,0,0-.07-.07h0"/><path class="cls-22" d="M52.38,19.69H52s0,0-.06-.06v-.18s0-.06.06-.06h.38s0,0,0,.06v.18a.06.06,0,0,1,0,.06"/><path class="cls-19" d="M52.41,22.58h-.28a.08.08,0,0,1-.08-.07h0v-.25a.08.08,0,0,1,.08-.05v-.69h.29v.69a.07.07,0,0,1,.06.07h0v.25a.07.07,0,0,1-.07.07h0"/><path class="cls-22" d="M52.38,21.27H52s0,0-.06.06v.18a.06.06,0,0,0,.06.06h.38a.06.06,0,0,0,.06-.05h0v-.18a.06.06,0,0,0,0-.06"/><path class="cls-19" d="M53.11,18.38h-.28a.08.08,0,0,0-.08.07h0v.25a.07.07,0,0,0,.07.07h0v.67h.29v-.67a.09.09,0,0,0,.08-.08h0v-.25a.08.08,0,0,0-.08-.07h0"/><path class="cls-22" d="M53.07,19.69h-.36s-.07,0-.07-.06v-.18a.06.06,0,0,1,.06-.06h.37a.07.07,0,0,1,.07.06v.18a.07.07,0,0,1-.07.06"/><path class="cls-19" d="M53.11,22.58h-.28a.08.08,0,0,1-.08-.07h0v-.25a.08.08,0,0,1,.07-.05v-.69h.29v.69a.09.09,0,0,1,.08.08h0v.25a.08.08,0,0,1-.08.07h0"/><path class="cls-22" d="M53.07,21.27h-.36a.07.07,0,0,0-.07.06v.18a.06.06,0,0,0,0,.06h.38s.07,0,.07-.06v-.18a.07.07,0,0,0-.07-.06"/><path class="cls-19" d="M53.81,18.38h-.28a.07.07,0,0,0-.08.07h0v.25a.08.08,0,0,0,.07.08h0v.67h.29v-.67a.09.09,0,0,0,.08-.08h0v-.25a.08.08,0,0,0-.08-.07h0"/><path class="cls-22" d="M53.78,19.69H53.4a.06.06,0,0,1-.06-.06v-.18a.06.06,0,0,1,.06-.06h.38s0,0,0,.06v.18a.06.06,0,0,1,0,.06"/><path class="cls-19" d="M53.81,22.58h-.28a.06.06,0,0,1-.08-.06h0v-.25a.08.08,0,0,1,.07-.05v-.69h.29v.69a.09.09,0,0,1,.08.08h0v.25a.08.08,0,0,1-.08.07h0"/><path class="cls-22" d="M53.78,21.27H53.4a.06.06,0,0,0-.06.06v.18a.06.06,0,0,0,.06.06h.38a0,0,0,0,0,0-.05h0v-.18a.06.06,0,0,0,0-.06"/><path class="cls-19" d="M54.5,18.38h-.28a.07.07,0,0,0-.07.07h0v.25a.06.06,0,0,0,.06.07h0v.67h.29v-.67a.09.09,0,0,0,.08-.08h0v-.25a.08.08,0,0,0-.08-.07h0"/><path class="cls-22" d="M54.47,19.69h-.36a.06.06,0,0,1-.06-.06v-.18a.06.06,0,0,1,.06-.06h.37a.07.07,0,0,1,.07.06v.18a.07.07,0,0,1-.07.06"/><path class="cls-19" d="M54.5,22.58h-.28a.07.07,0,0,1-.07-.07h0v-.25a.06.06,0,0,1,.06-.05v-.69h.29v.69a.09.09,0,0,1,.08.08h0v.25a.08.08,0,0,1-.08.07h0"/><path class="cls-22" d="M54.47,21.27h-.36a.06.06,0,0,0-.06.06v.18a.07.07,0,0,0,0,.08h.4a.07.07,0,0,0,.07-.06v-.2a.07.07,0,0,0-.07-.06"/><path class="cls-19" d="M55.22,18.38h-.29a.07.07,0,0,0-.07.07h0v.25a.08.08,0,0,0,.07.08h0v.67h.29v-.67a.08.08,0,0,0,.07-.08h0v-.25a.07.07,0,0,0-.07-.07h0"/><path class="cls-22" d="M55.18,19.69h-.37a.06.06,0,0,1-.06-.06v-.18s0-.06,0-.06h.38a.06.06,0,0,1,.06.05h0v.18a.06.06,0,0,1-.06.06"/><path class="cls-19" d="M55.22,22.58h-.29a.07.07,0,0,1-.07-.07h0v-.25a.08.08,0,0,1,.07-.05v-.69h.29v.69a.08.08,0,0,1,.07.08h0v.25a.07.07,0,0,1-.07.07h0"/><path class="cls-22" d="M55.18,21.27h-.37a.06.06,0,0,0-.06.06v.18a.06.06,0,0,0,0,.06h.38a0,0,0,0,0,.06-.05h0v-.18a.06.06,0,0,0-.06-.06"/><path class="cls-19" d="M55.91,18.38h-.27a.07.07,0,0,0-.08.07h0v.25a.07.07,0,0,0,.06.07h0v.67h.29v-.67A.08.08,0,0,0,56,18.7h0v-.25a.07.07,0,0,0-.07-.07h0"/><path class="cls-22" d="M55.88,19.69h-.37a.06.06,0,0,1-.06-.06v-.18a.06.06,0,0,1,.06-.06h.37a.06.06,0,0,1,.06.06v.18a.06.06,0,0,1-.06.06"/><path class="cls-19" d="M55.91,22.58h-.27a.07.07,0,0,1-.08-.07h0v-.25a.08.08,0,0,1,.07-.05v-.69h.29v.69a.08.08,0,0,1,.07.08h0v.25a.07.07,0,0,1-.07.07h0"/><path class="cls-22" d="M55.88,21.27h-.37a.06.06,0,0,0-.06.06v.18a.06.06,0,0,0,0,.06h.38a.05.05,0,0,0,.06-.06v-.18a.06.06,0,0,0-.06-.06"/><path class="cls-19" d="M56.68,18.38h-.29a.07.07,0,0,0-.07.07h0v.25a.08.08,0,0,0,.07.08h0v.67h.29v-.67a.08.08,0,0,0,.07-.07h0v-.25a.07.07,0,0,0-.07-.07h0"/><path class="cls-22" d="M56.64,19.69h-.37a.06.06,0,0,1-.06-.06v-.18a.06.06,0,0,1,.06-.06h.37a.06.06,0,0,1,.06.05h0v.18a.06.06,0,0,1-.06.06"/><path class="cls-19" d="M56.68,22.58h-.29a.07.07,0,0,1-.07-.07h0v-.25a.08.08,0,0,1,.07-.05v-.69h.29v.69a.07.07,0,0,1,.07.07h0v.25a.07.07,0,0,1-.07.07h0"/><path class="cls-22" d="M56.64,21.27h-.37a.06.06,0,0,0-.06.06v.18a.06.06,0,0,0,.06.06h.37a0,0,0,0,0,.06-.05h0v-.18a.06.06,0,0,0-.06-.06"/><path class="cls-19" d="M57.36,18.38h-.28a.08.08,0,0,0-.08.07h0v.25a.09.09,0,0,0,.08.08h0v.67h.29v-.67s.06,0,.06-.07h0v-.25a.07.07,0,0,0-.07-.07h0"/><path class="cls-22" d="M57.32,19.69H57a.06.06,0,0,1-.06-.06v-.18a.06.06,0,0,1,.06-.06h.37a.06.06,0,0,1,.06.05h0v.18a.05.05,0,0,1-.06.06"/><path class="cls-19" d="M57.36,22.58h-.28a.08.08,0,0,1-.08-.07h0v-.25a.08.08,0,0,1,.08-.05v-.69h.29v.69a.07.07,0,0,1,.06.07h0v.25a.07.07,0,0,1-.07.07h0"/><path class="cls-22" d="M57.32,21.27H57a.06.06,0,0,0-.06.06v.18a.06.06,0,0,0,.06.06h.37a0,0,0,0,0,.06-.05h0v-.18a.06.06,0,0,0-.06-.06"/><path class="cls-19" d="M58.05,18.38H57.8s-.07,0-.08.07h0v.25a.09.09,0,0,0,.08.08h0v.67h.29v-.67s.06,0,.06-.07h0v-.25a.07.07,0,0,0-.07-.07h0"/><path class="cls-22" d="M58,19.69h-.38a.06.06,0,0,1-.06-.06v-.18a.06.06,0,0,1,.06-.06H58s0,0,0,.06v.18a.06.06,0,0,1,0,.06"/><path class="cls-19" d="M58.05,22.58H57.8s-.07,0-.08-.06h0v-.25a.08.08,0,0,1,.05-.05v-.69h.28v.69a.07.07,0,0,1,.07.07h0v.25a.07.07,0,0,1-.07.07h0"/><path class="cls-22" d="M58,21.27h-.38a.06.06,0,0,0-.06.06v.18a.06.06,0,0,0,.06.06H58a0,0,0,0,0,0-.05h0v-.18a.06.06,0,0,0,0-.06"/><path class="cls-19" d="M58.75,18.38h-.28a.08.08,0,0,0-.08.07h0v.25a.09.09,0,0,0,.08.08h0v.67h.29v-.67s.06,0,.06-.07h0v-.25a.07.07,0,0,0-.07-.07h0"/><path class="cls-22" d="M58.71,19.69h-.37a.06.06,0,0,1-.06-.06v-.18a.06.06,0,0,1,.06-.06h.37a.06.06,0,0,1,.06.05h0v.18s0,.06-.07.06"/><path class="cls-19" d="M58.75,22.58h-.28a.08.08,0,0,1,0-.07v-.25a.08.08,0,0,1,0-.05v-.69h.29v.69a.07.07,0,0,1,.06.07h0v.25a.07.07,0,0,1-.07.07h0"/><path class="cls-22" d="M58.71,21.27h-.37a.06.06,0,0,0-.06.06v.18a.06.06,0,0,0,0,.06h.38s.06,0,.07-.05h0v-.18a.07.07,0,0,0-.07-.06"/><path class="cls-19" d="M59.45,18.38h-.28a.07.07,0,0,0-.07.07h0v.25a.06.06,0,0,0,.06.07h0v.67h.29v-.67a.09.09,0,0,0,.08-.08h0v-.25a.08.08,0,0,0-.08-.07h0"/><path class="cls-22" d="M59.42,19.69H59a.06.06,0,0,1-.05-.06v-.18s0-.06.05-.06h.38a.06.06,0,0,1,.06.06v.18a.06.06,0,0,1-.06.06"/><path class="cls-19" d="M59.45,22.58h-.28a.07.07,0,0,1-.07-.07h0v-.25a.06.06,0,0,1,.06-.05v-.69h.29v.69a.09.09,0,0,1,.08.08h0v.25a.08.08,0,0,1-.08.07h0"/><path class="cls-22" d="M59.42,21.27H59a.06.06,0,0,0-.05.06v.18s0,.06,0,.08h.41a.06.06,0,0,0,.06-.06v-.2a.06.06,0,0,0-.06-.06"/><path class="cls-19" d="M60.14,18.38h-.28a.08.08,0,0,0-.08.07h0v.25a.09.09,0,0,0,.08.08h0v.67h.28v-.67a.09.09,0,0,0,.08-.08h0v-.25a.08.08,0,0,0-.08-.07h0"/><path class="cls-22" d="M60.1,19.69h-.36s-.07,0-.07-.06v-.18a.06.06,0,0,1,.06-.06h.37a.07.07,0,0,1,.07.05h0v.18s0,.06-.07.06"/><path class="cls-19" d="M60.14,22.58h-.28a.08.08,0,0,1-.08-.07h0v-.25a.1.1,0,0,1,.08-.05v-.69h.28v.69a.09.09,0,0,1,.08.08h0v.25a.08.08,0,0,1-.08.07h0"/><path class="cls-22" d="M60.1,21.27h-.36a.07.07,0,0,0-.07.06v.18a.06.06,0,0,0,0,.06h.38s.06,0,.07-.05h0v-.18a.07.07,0,0,0-.07-.06"/><path class="cls-19" d="M60.88,18.38h-.31a.07.07,0,0,0-.07.07h0v.25a.08.08,0,0,0,.07.08h0v.67h.31v-.67a.08.08,0,0,0,.07-.07h0v-.25a.07.07,0,0,0-.07-.07"/><path class="cls-22" d="M60.82,19.69h-.37a.06.06,0,0,1-.06-.06v-.18a.06.06,0,0,1,.06-.06h.37a.06.06,0,0,1,.06.05h0v.18a.06.06,0,0,1-.06.06"/><path class="cls-19" d="M60.88,22.58h-.31a.07.07,0,0,1-.07-.07h0v-.25a.08.08,0,0,1,.07-.05v-.69h.31v.69a.07.07,0,0,1,.07.07h0v.25a.08.08,0,0,1-.07,0"/><path class="cls-22" d="M60.82,21.27h-.37a.06.06,0,0,0-.06.06v.18a.06.06,0,0,0,.06.06h.37a0,0,0,0,0,.06-.05h0v-.18a.06.06,0,0,0-.06-.06"/><path class="cls-19" d="M61.56,18.38h-.29a.07.07,0,0,0-.07.07h0v.25s0,.07.06.07h0v.67h.29v-.67a.08.08,0,0,0,.07-.08h0v-.25a.07.07,0,0,0-.07-.07h0"/><path class="cls-22" d="M61.5,19.69h-.37s-.07,0-.07-.06v-.18a.06.06,0,0,1,.06-.06h.38s0,0,.06.06v.18s0,.06-.06.06"/><path class="cls-19" d="M61.56,22.58h-.29a.07.07,0,0,1-.07-.07h0v-.25a.08.08,0,0,1,.07-.05v-.69h.29v.69a.08.08,0,0,1,.07.08h0v.25a.07.07,0,0,1-.07.07h0"/><path class="cls-22" d="M61.5,21.27h-.37a.07.07,0,0,0-.07.06v.18a.06.06,0,0,0,0,.06h.39a.06.06,0,0,0,.06-.06v-.18s0-.06-.06-.06"/><path class="cls-22" d="M46.37,19.54c0-.08.12-.15.26-.15s.25.07.25.15-.11.15-.25.15-.26-.06-.26-.15"/><path class="cls-22" d="M46.37,21.4c0-.09.12-.16.26-.16s.25.07.25.16-.11.15-.25.15-.26-.07-.26-.15"/><path class="cls-22" d="M62.57,19.54c0-.08.12-.15.26-.15s.26.07.26.15-.12.15-.26.15-.26-.06-.26-.15"/><path class="cls-22" d="M62.57,21.4c0-.09.12-.16.26-.16s.26.07.26.16-.12.15-.26.15-.26-.07-.26-.15"/><path class="cls-8" d="M47.28,22.48H45.81a.26.26,0,0,1-.26-.26h0V18.49a.25.25,0,0,1,.25-.25h1.48a.15.15,0,0,1,.15.15.16.16,0,0,1-.15.16H45.85v3.62h1.43a.15.15,0,0,1,.15.15A.16.16,0,0,1,47.28,22.48Z"/><path class="cls-8" d="M62.3,22.48h1.47a.26.26,0,0,0,.26-.25V18.49a.26.26,0,0,0-.26-.25H62.3a.15.15,0,0,0-.15.15.16.16,0,0,0,.15.16h1.42v3.62H62.3a.15.15,0,0,0-.15.15A.16.16,0,0,0,62.3,22.48Z"/><path class="cls-23" d="M63.25,18.52h-.16V18h-.2V17.9c.11,0,.21,0,.23-.16h.13Z"/><path class="cls-23" d="M62.85,22.66a.29.29,0,0,1,.29-.32.24.24,0,0,1,.26.25c0,.23-.25.25-.36.41h.37v.14h-.57c0-.18.11-.26.24-.35s.17-.1.17-.19a.11.11,0,0,0-.12-.12c-.1,0-.13.1-.13.18Z"/><path class="cls-23" d="M46,18.06c.06,0,.16,0,.16-.1a.1.1,0,0,0-.11-.1c-.08,0-.12.05-.12.13h-.15a.25.25,0,0,1,.27-.26c.13,0,.26.07.26.21a.14.14,0,0,1-.11.16h0a.17.17,0,0,1,.14.18.29.29,0,0,1-.58,0H46c0,.09,0,.16.14.16a.13.13,0,0,0,.13-.13c0-.11-.11-.11-.18-.11Z"/><path class="cls-23" d="M46.59,18.32a.12.12,0,0,0,.1.1c.12,0,.14-.15.15-.24h0a.21.21,0,0,1-.18.08.24.24,0,0,1-.24-.25.27.27,0,0,1,.27-.28c.24,0,.3.2.3.4s-.08.41-.3.41a.23.23,0,0,1-.25-.22Zm.23-.32a.12.12,0,1,0-.24,0c0,.07,0,.15.12.15S46.82,18.08,46.82,18Z"/><path class="cls-23" d="M46.13,23H45.8v-.15l.34-.45h.14v.47h.1V23h-.1v.18h-.15Zm0-.4h0l-.21.27h.21Z"/><path class="cls-23" d="M46.71,22.34c.15,0,.28.1.28.4s-.13.41-.28.41-.29-.1-.29-.41S46.55,22.34,46.71,22.34Zm0,.68c.13,0,.13-.19.13-.28s0-.27-.13-.27-.13.19-.13.27S46.58,23,46.71,23Z"/></g></g></g></svg>