<svg id="Layer_1" data-name="Layer 1" xmlns="http://www.w3.org/2000/svg" xmlns:xlink="http://www.w3.org/1999/xlink" viewBox="0 0 1985.83 1634.81"><defs><style>.cls-1,.cls-16{fill:none;stroke:#000;}.cls-1,.cls-16,.cls-6{stroke-miterlimit:10;}.cls-1{stroke-width:2px;}.cls-2{fill:#fff;}.cls-3{fill:#ffd400;}.cls-4{fill:#f0cc66;}.cls-5{fill:#00865e;}.cls-6{fill:url(#linear-gradient);stroke:url(#linear-gradient-2);}.cls-7{fill:url(#linear-gradient-3);}.cls-8{fill:#dbd2ab;}.cls-9{fill:#ede3b8;}.cls-10{fill:#dea954;}.cls-11{fill:url(#linear-gradient-4);}.cls-12{fill:#e5e4e5;}.cls-13{fill:#2a64cf;}.cls-14{fill:#ccc8c3;}.cls-15{fill:#2b2b2b;}.cls-16{stroke-width:10px;}.cls-17{fill:#339;}.cls-18{isolation:isolate;}</style><linearGradient id="linear-gradient" x1="820.08" y1="1442.54" x2="820.08" y2="1572.05" gradientTransform="matrix(1, 0, 0, -1, -240.55, 2130.29)" gradientUnits="userSpaceOnUse"><stop offset="0" stop-color="#fff"/><stop offset="0.95" stop-color="#d5d7d8"/><stop offset="1" stop-color="#cfcfcf"/></linearGradient><linearGradient id="linear-gradient-2" x1="697.51" y1="1507.3" x2="943.14" y2="1507.3" gradientTransform="matrix(1, 0, 0, -1, -240.55, 2130.29)" gradientUnits="userSpaceOnUse"><stop offset="0" stop-color="#fff"/><stop offset="0.27" stop-color="#cfcfcf"/><stop offset="0.95" stop-color="#d5d7d8"/></linearGradient><linearGradient id="linear-gradient-3" x1="789.36" y1="1437.29" x2="856.05" y2="1437.29" gradientTransform="matrix(1, 0, 0, -1, -240.55, 2130.29)" gradientUnits="userSpaceOnUse"><stop offset="0" stop-color="#fff"/><stop offset="1" stop-color="#cfcfcf"/></linearGradient><linearGradient id="linear-gradient-4" x1="770.31" y1="1496.72" x2="872.95" y2="1496.72" gradientTransform="matrix(1, 0, 0, -1, -240.55, 2130.29)" gradientUnits="userSpaceOnUse"><stop offset="0" stop-color="#fcb457"/><stop offset="1" stop-color="#ffd9a2"/></linearGradient></defs><g id="Layer_8" data-name="Layer 8"><ellipse cx="987.64" cy="507.84" rx="5.97" ry="5.12"/><polyline class="cls-1" points="987.64 507.84 987.64 380.95 987.64 272.13 876.25 272.13"/><ellipse cx="1184.22" cy="508.01" rx="5.97" ry="4.95"/><polyline class="cls-1" points="1184.22 508.01 1184.22 385.21 1184.22 204.14 879.03 204.14"/><ellipse cx="730.63" cy="506.49" rx="5.97" ry="6.48"/><polyline class="cls-1" points="730.63 506.49 730.63 427.4 678.06 427.4"/><ellipse cx="795.93" cy="506.49" rx="5.97" ry="6.48"/><polyline class="cls-1" points="795.93 506.49 795.93 363.69 678.06 363.69"/><path d="M672.22,379.74H628.77c-3.21,0-5.84-2.36-5.84-5.25V347.9c0-2.89,2.63-5.26,5.84-5.26h43.45c3.21,0,5.84,2.37,5.84,5.26v26.56A5.61,5.61,0,0,1,672.22,379.74Z"/><path class="cls-2" d="M646.22,366.06a3.75,3.75,0,0,0,3.65,3c4,0,5-4.76,5.22-7.46l-.08-.07a7.11,7.11,0,0,1-6.15,2.73,9.13,9.13,0,0,1-6.26-2.52,7.83,7.83,0,0,1-2.11-5.46c0-5,3.82-9,9.54-9,8.25,0,10.47,6.48,10.47,12.67,0,6-3,12.81-10.7,12.81-4.71,0-8.22-2.45-8.84-6.79Zm8.36-10a4.36,4.36,0,0,0-4.19-4.54h-.2a4.25,4.25,0,0,0-4.19,4.31V356c0,2.31,1.32,4.62,4.17,4.62a4.22,4.22,0,0,0,4.42-4,4.87,4.87,0,0,0,0-.54Z"/><path d="M672.22,445.93H628.77c-3.21,0-5.84-2.36-5.84-5.25V414.12c0-2.89,2.63-5.25,5.84-5.25h43.45c3.21,0,5.84,2.36,5.84,5.25v26.56C678.06,443.57,675.43,445.93,672.22,445.93Z"/><path class="cls-2" d="M644.11,438.58h-5.52V422.74h-6.86V419c3.86.1,7.36-1.12,8-4.87h4.4Z"/><path class="cls-2" d="M661.28,413.59c5.45,0,10,3.08,10,12.64,0,9.76-4.59,12.84-10,12.84s-10-3.08-10-12.84C651.31,416.67,655.87,413.59,661.28,413.59Zm0,21.39c4.52,0,4.52-6,4.52-8.75,0-2.56,0-8.54-4.52-8.54s-4.44,6-4.44,8.54C656.84,429,656.84,435,661.28,435Z"/><polygon class="cls-3" points="575.95 404.57 522.93 404.57 496.38 427.38 522.93 450.22 575.95 450.22 602.5 427.38 575.95 404.57"/><polygon class="cls-3" points="504.45 404.57 451.43 404.57 424.88 427.38 451.43 450.22 504.45 450.22 531 427.38 504.45 404.57"/><polygon class="cls-3" points="558.06 404.57 469.32 404.57 424.88 427.38 469.32 450.22 558.06 450.22 602.5 427.38 558.06 404.57"/><path class="cls-2" d="M447.22,414h5.32v24.21h-5.32Z"/><path class="cls-2" d="M456.14,423.62c-.17-5.43,2.91-9.6,8.61-9.6,4.34,0,8.14,2.78,8.14,7.43,0,7.19-7.63,7.76-11.09,12.64H473v4.14H455.59c0-5.53,3.4-7.8,7.5-10.61,2.07-1.46,5-2.88,5-5.8a3.41,3.41,0,0,0-3.15-3.65h-.41c-2.85,0-3.76,3-3.76,5.46Z"/><path class="cls-2" d="M492.21,422.16a5.28,5.28,0,0,0-5.29-4.24c-4.78,0-6.58,4.07-6.58,8.31,0,4,1.8,8.1,6.58,8.1,3.26,0,5.09-2.2,5.49-5.42h5.16c-.54,6.07-4.68,9.9-10.65,9.9-7.46,0-11.9-5.6-11.9-12.58,0-7.19,4.44-12.78,11.9-12.78,5.29,0,9.8,3.11,10.44,8.71Z"/><path class="cls-2" d="M498.85,440.74h17v1.7h-17Z"/><path class="cls-2" d="M521.77,430.19c0,3.23,2.51,4.48,5.36,4.48,1.86,0,4.71-.54,4.71-3,0-2.64-3.66-3-7.19-4s-7.22-2.41-7.22-6.88c0-5,4.68-7.32,9.06-7.32,5,0,9.69,2.2,9.69,7.79H531c-.17-2.88-2.2-3.66-4.78-3.66-1.7,0-3.66.71-3.66,2.75,0,1.86,1.15,2.13,7.22,3.66,1.8.41,7.19,1.59,7.19,7,0,4.44-3.46,7.77-10.07,7.77-5.36,0-10.41-2.65-10.31-8.62Z"/><path class="cls-2" d="M540.15,414h10.44c6.27,0,11,4,11,12,0,7-3.6,12.24-11,12.24H540.15Zm5.32,19.72h4.75c3.08,0,6-1.89,6-7.25,0-4.88-1.73-8-7-8h-3.8Z"/><path class="cls-2" d="M571.88,414h5.46l9,24.21h-5.52L579,432.84h-9l-1.9,5.39h-5.39Zm-.51,14.85h6.28L574.59,420h-.06Z"/><polygon class="cls-3" points="579.2 340.93 532.18 340.93 508.63 361.16 532.18 381.42 579.2 381.42 602.75 361.16 579.2 340.93"/><polygon class="cls-3" points="495.2 340.93 448.18 340.93 424.63 361.16 448.18 381.42 495.2 381.42 518.75 361.16 495.2 340.93"/><polygon class="cls-3" points="558.19 340.93 469.2 340.93 424.63 361.16 469.2 381.42 558.19 381.42 602.75 361.16 558.19 340.93"/><path class="cls-2" d="M446.41,347.8h5.32V372h-5.32Z"/><path class="cls-2" d="M455.31,357.4c-.16-5.43,2.92-9.6,8.6-9.6,4.33,0,8.12,2.78,8.12,7.43,0,7.18-7.61,7.76-11.06,12.64h11.2V372h-17.4c0-5.53,3.39-7.8,7.48-10.61,2.07-1.46,5-2.88,5-5.8A3.41,3.41,0,0,0,464.1,352h-.41c-2.84,0-3.75,2.95-3.75,5.46Z"/><path class="cls-2" d="M491.33,355.94a5.29,5.29,0,0,0-5.28-4.2c-4.77,0-6.57,4.07-6.57,8.31,0,4,1.8,8.1,6.57,8.1,3.25,0,5.07-2.2,5.48-5.42h5.14c-.54,6.07-4.67,9.9-10.62,9.9-7.45,0-11.88-5.6-11.88-12.58,0-7.19,4.43-12.78,11.88-12.78,5.28,0,9.78,3.11,10.42,8.71Z"/><path class="cls-2" d="M498,374.55h16.92v1.7H498Z"/><path class="cls-2" d="M520.85,364c0,3.23,2.5,4.48,5.34,4.48,1.87,0,4.71-.54,4.71-3,0-2.64-3.66-3-7.18-4s-7.21-2.41-7.21-6.88c0-5,4.68-7.32,9-7.32,5,0,9.68,2.2,9.68,7.79h-5.14c-.17-2.88-2.2-3.66-4.78-3.66-1.69,0-3.65.71-3.65,2.75,0,1.86,1.15,2.13,7.21,3.66,1.79.41,7.17,1.59,7.17,7,0,4.44-3.45,7.77-10,7.77-5.35,0-10.39-2.65-10.29-8.62Z"/><path class="cls-2" d="M555.3,355.94a5.27,5.27,0,0,0-5.3-4.2c-4.77,0-6.56,4.07-6.56,8.31,0,4,1.79,8.1,6.56,8.1,3.25,0,5.08-2.2,5.49-5.42h5.14c-.54,6.07-4.67,9.9-10.63,9.9-7.44,0-11.88-5.6-11.88-12.58,0-7.19,4.44-12.78,11.88-12.78,5.28,0,9.78,3.11,10.43,8.71Z"/><path class="cls-2" d="M564.27,347.8h5.32v19.73h11.78V372h-17.1Z"/><path class="cls-4" d="M1421.4,506.4h-88.28a18.48,18.48,0,0,1-35.38,0h-29.83a18.48,18.48,0,0,1-35.38,0h-29.82a18.48,18.48,0,0,1-35.39,0H1137.5a18.48,18.48,0,0,1-35.39,0h-29.82a18.48,18.48,0,0,1-35.38,0h-29.83a18.48,18.48,0,0,1-35.38,0H941.88a18.48,18.48,0,0,1-35.39,0H875.93a18.48,18.48,0,0,1-35.39,0H811.46a18.48,18.48,0,0,1-35.39,0H745.46a18.48,18.48,0,0,1-35.39,0H680.46a18.48,18.48,0,0,1-35.39,0H615.7a18.48,18.48,0,0,1-35.38,0H451.4a25.67,25.67,0,0,0-25.67,25.67h0V1468a25.67,25.67,0,0,0,25.67,25.67H581a18.49,18.49,0,0,1,34.11,0h30.64a18.49,18.49,0,0,1,34.11,0h30.89a18.49,18.49,0,0,1,34.11,0h292.72a18.49,18.49,0,0,1,34.11,0h31.1a18.49,18.49,0,0,1,34.11,0H1168a18.49,18.49,0,0,1,34.11,0h31.1a18.48,18.48,0,0,1,34.1,0h31.1a18.49,18.49,0,0,1,34.11,0h88.92A25.66,25.66,0,0,0,1447.1,1468h0V532.07a25.66,25.66,0,0,0-25.65-25.67Z"/><path class="cls-5" d="M1409,506.4h-73a22,22,0,0,1-43,0h-22.19a22,22,0,0,1-43,0h-22.19a22,22,0,0,1-43,0h-22.18a22.06,22.06,0,0,1-43,0h-22.18a22.06,22.06,0,0,1-43,0h-22.18a22.06,22.06,0,0,1-43,0H945a22.06,22.06,0,0,1-43,0H879.8a22.06,22.06,0,0,1-43,0H814.62a22.06,22.06,0,0,1-43,0H749.44a22,22,0,0,1-43,0H684.26a22,22,0,0,1-43,0H619.08a22,22,0,0,1-43,0H460.35a25.66,25.66,0,0,0-25.66,25.66h0V1468a25.66,25.66,0,0,0,25.65,25.67H576a22.06,22.06,0,0,1,43.09,0h22.09a22.06,22.06,0,0,1,43.09,0H706.4a22.06,22.06,0,0,1,43.09,0h282.8a22.06,22.06,0,0,1,43.09,0h22.09a22.06,22.06,0,0,1,43.09,0h22.09a22.06,22.06,0,0,1,43.09,0h22.09a22.06,22.06,0,0,1,43.09,0H1293a22.06,22.06,0,0,1,43.09,0H1409a25.67,25.67,0,0,0,25.67-25.67h0V532.07A25.67,25.67,0,0,0,1409,506.4Z"/><rect class="cls-5" x="424.88" y="774.95" width="1022.18" height="448.68" rx="25.66"/><polyline class="cls-6" points="456.96 558.24 702.09 558.24 702.09 687.75 456.96 687.75"/><rect class="cls-7" x="548.81" y="632.87" width="66.69" height="120.27"/><rect class="cls-8" x="501.16" y="550.78" width="161.6" height="161.6" rx="6.11"/><rect class="cls-9" x="508.62" y="558.23" width="146.17" height="146.17" rx="6.11"/><circle class="cls-10" cx="581.08" cy="633.57" r="58.26"/><circle class="cls-11" cx="581.08" cy="633.57" r="51.32"/><circle class="cls-10" cx="581.08" cy="633.57" r="16.39"/><path class="cls-12" d="M1386.25,542H774.81a34.13,34.13,0,0,0-34.13,34.11h0V672.3a19.48,19.48,0,0,0,8.08,15.81,14.56,14.56,0,0,1,6,11.78v97.35a14.6,14.6,0,0,1-14.6,14.6H481.21A34.13,34.13,0,0,0,447.08,846v572.78a34.12,34.12,0,0,0,34.12,34.12h905a34.12,34.12,0,0,0,34.12-34.12V576.15A34.12,34.12,0,0,0,1386.25,542Z"/><path class="cls-2" d="M1340.06,589.31H860.37a75,75,0,0,0-75,75h0V823.66a30.13,30.13,0,0,1-30.13,30.13H558.81a75,75,0,0,0-75,75h0v439.74a75,75,0,0,0,75,75h781.25a75,75,0,0,0,75-75V664.31a75,75,0,0,0-75-75Z"/><path class="cls-13" d="M880.27,663.87a14.47,14.47,0,0,1,1.44,6.23c.1,2.63.26,10.62.31,13.35,2.16-.1,6.23-.36,8.81-.36,2.37,0,9.58-.16,20.87-.41h.72c3-.06,10-1.19,11-9.95.83-7.73-3.55-9.58-3.71-9.68-1.6-1.09-8.55-2.94-16.54-2.94-.87,0-1.8,0-2.73,0A110.54,110.54,0,0,0,880.27,663.87Z"/><path class="cls-13" d="M867.39,656.24a14.92,14.92,0,0,1,5.35,1.19,17.33,17.33,0,0,1,5.57,3.4,102.7,102.7,0,0,1,21.12-4.09c1.34-.1,2.73-.16,4.12-.16a50.71,50.71,0,0,1,14.84,2.06,26.41,26.41,0,0,0,2.58-2.26,11.35,11.35,0,0,0,2.88-5.72,12.28,12.28,0,0,0-1.23-8.86c-1.34-2.58-4.79-3.92-10.25-3.92-.73,0-1.5,0-2.32,0-1-.05-2.22-.1-3.51-.1a51.51,51.51,0,0,0-18,3.35C879.39,644.34,870.89,652.53,867.39,656.24Z"/><path class="cls-13" d="M843.07,655.94a18.58,18.58,0,0,1,7.52,1.28,17.6,17.6,0,0,1,5.41,4.33,13.6,13.6,0,0,1,2.06-2.42,12.31,12.31,0,0,1,4-2.27c.72-.82,4.63-5.15,8.6-8.81a58.39,58.39,0,0,1,21.74-12.21,52.13,52.13,0,0,1,15.56-2c4,0,7.17.31,8.2.41,1.18-.82,6.23-4.79,6.13-10.25-.11-8.29-3.3-10.35-17-11-14.38-.73-30.25,5-43.28,15.5-11,8.81-17.26,23.09-19,27.52C843,655.94,843,655.94,843.07,655.94Z"/><path class="cls-13" d="M900.31,686.49c.1,2.06.36,6.18.36,8.81,0,3.09.21,13.65.36,19.32l.05,2.27c0,3,1.19,10,9.95,11,.61.05,1.23.1,1.8.1,6.18,0,7.78-3.65,7.83-3.81,1-1.54,3.35-9.58,2.89-19.27-.42-7.57-2.68-16.64-3.66-20.2a14.53,14.53,0,0,1-6.24,1.45C912.42,686.18,909.07,686.28,900.31,686.49Z"/><path class="cls-13" d="M925.14,722.86a19.87,19.87,0,0,0,2.27,2.58,11.35,11.35,0,0,0,5.72,2.88,14.53,14.53,0,0,0,2.94.31,12.44,12.44,0,0,0,5.87-1.54c2.58-1.39,3.91-4.79,3.91-10.26,0-.61,0-1.33.06-2.11v-.26A51.42,51.42,0,0,0,942.66,693c-3.3-9.12-11.44-17.62-15.15-21.18a15,15,0,0,1-1.18,5.36,16.46,16.46,0,0,1-3.4,5.57,104.1,104.1,0,0,1,4.12,21.12A54.46,54.46,0,0,1,925.14,722.86Z"/><path class="cls-13" d="M949.51,720.54c1,1.4,4.79,6.14,10.15,6.14,8.45-.11,10.51-3.3,11.18-17,.72-14.37-4.94-30.14-15.51-43.28-8.81-10.92-23.08-17.26-27.51-19a19.29,19.29,0,0,1-1.29,7.63,18.73,18.73,0,0,1-4.32,5.41,13.6,13.6,0,0,1,2.42,2.06,11.35,11.35,0,0,1,2.26,4c1.09,1,5.26,4.74,8.81,8.6a59.21,59.21,0,0,1,12.22,21.74C950.9,706.12,949.77,718.28,949.51,720.54Z"/><path class="cls-13" d="M897.37,704.88c-2.16.1-6.23.36-8.81.36-3.3,0-14.89.26-20.5.36h-1.14c-3,0-10,1.19-11,9.95-.83,7.78,3.66,9.68,3.71,9.68,1.75,1.19,10,3.35,19.27,2.89,7.57-.41,16.64-2.68,20.19-3.66a14.73,14.73,0,0,1-1.44-6.23c-.1-2.37-.26-9.38-.31-12.78Z"/><path class="cls-13" d="M861.05,729.74a20.57,20.57,0,0,0-2.58,2.26,11.35,11.35,0,0,0-2.88,5.72,12.24,12.24,0,0,0,1.23,8.81c1.4,2.58,4.8,3.92,10.26,3.92.67,0,1.44,0,2.32,0,1.08,0,2.21.1,3.5.1a51.28,51.28,0,0,0,18-3.35c9.12-3.29,17.62-11.44,21.18-15.14a15.29,15.29,0,0,1-5.41-1.19,16.55,16.55,0,0,1-5.57-3.4,103.07,103.07,0,0,1-21.1,4.1c-1.39.1-2.78.16-4.12.16A51.31,51.31,0,0,1,861.05,729.74Z"/><path class="cls-13" d="M863.37,754.14c-1.19.82-6.19,4.79-6.13,10.25.1,8.29,3.29,10.36,17,11,14.37.67,30.24-5,43.28-15.51,11-8.81,17.26-23.08,19-27.52h-.1a14.51,14.51,0,0,1-12.93-5.62,13.26,13.26,0,0,1-2.06,2.42,11.53,11.53,0,0,1-4,2.27c-1.19,1.34-4.9,5.41-8.66,8.81A58.74,58.74,0,0,1,887,752.45a52.13,52.13,0,0,1-15.56,2A70.67,70.67,0,0,1,863.37,754.14Z"/><path class="cls-13" d="M866.51,660.52c-6.18,0-7.78,3.66-7.83,3.81-1,1.55-3.35,9.59-2.89,19.27.42,7.63,2.68,16.64,3.66,20.2a14.81,14.81,0,0,1,6.24-1.44c1.23-.05,4.53-.16,13.34-.31-.1-1.7-.36-6.08-.36-8.81,0-2.37-.16-9.59-.41-20.92v-.72c0-3-1.19-10.05-10-11A11.39,11.39,0,0,0,866.51,660.52Z"/><path class="cls-13" d="M843.27,659.85a12.57,12.57,0,0,0-5.87,1.55c-2.58,1.39-3.92,4.84-3.92,10.25,0,.72-.05,1.49-.05,2.32a51.74,51.74,0,0,0,3.25,21.48c3.3,9.12,11.44,17.62,15.15,21.18a15,15,0,0,1,1.18-5.36,16,16,0,0,1,3.4-5.56,101.4,101.4,0,0,1-4.12-21.13,54.19,54.19,0,0,1,1.91-19,19.78,19.78,0,0,0-2.27-2.57,11.44,11.44,0,0,0-5.72-2.89A16.08,16.08,0,0,0,843.27,659.85Z"/><path class="cls-13" d="M819.52,661.81c-8.29.1-10.35,3.3-11,17-.73,14.38,4.94,30.14,15.5,43.28,8.81,11,23.09,17.26,27.52,19a18.89,18.89,0,0,1,1.29-7.62,18.11,18.11,0,0,1,4.32-5.41,12.52,12.52,0,0,1-2.42-2.06,11.69,11.69,0,0,1-2.27-4c-1.33-1.19-5.41-4.9-8.81-8.61a58.13,58.13,0,0,1-12.23-21.65c-3-9.32-1.85-21.48-1.59-23.7-1-1.39-4.8-6.13-10.15-6.13h-.16Z"/><path class="cls-13" d="M1073.56,635.26a37.26,37.26,0,0,1,14.08,2.53,33.34,33.34,0,0,1,10.76,7,30.1,30.1,0,0,1,6.86,10.18,32.53,32.53,0,0,1,2.37,12.44c0,6.86-1.42,12.76-4.32,17.72s-7.6,8.81-14.09,11.39v.27a19.13,19.13,0,0,1,7.81,4,22.65,22.65,0,0,1,5.06,6.33,27.94,27.94,0,0,1,2.85,8.07,72.7,72.7,0,0,1,1.21,8.8c.11,1.85.21,4,.32,6.49s.32,5.06.58,7.65a46.21,46.21,0,0,0,1.32,7.38,16.76,16.76,0,0,0,2.69,6h-25.58a43.93,43.93,0,0,1-2.58-13.18c-.32-5.12-.8-10-1.48-14.67-.84-6.06-2.69-10.54-5.54-13.34s-7.43-4.22-13.82-4.22h-25.57v45.39h-25.58V635.26Zm-9.12,52.58c5.85,0,10.23-1.32,13.18-3.91s4.38-6.85,4.38-12.71c0-5.64-1.48-9.75-4.38-12.28s-7.33-3.8-13.18-3.8h-28v32.7Z"/><path class="cls-13" d="M1183.52,635.26,1227,751.49h-26.53l-8.81-25.89h-43.45l-9.13,25.89h-25.73l43.93-116.23Zm1.43,71.3-14.66-42.67H1170l-15.14,42.67Z"/><path class="cls-13" d="M1258,635.26v48.2l45.41-48.2h31.91l-45.42,45.88,49.78,70.3h-32.06l-35-52.26L1258,714v37.44h-25.58V635.26Z"/><path class="cls-14" d="M1014.38,766.91h7.92v36h-7.92Z"/><path class="cls-14" d="M1052.11,789.9c0,7.47-4.39,13.77-12.31,13.77s-12.3-6.3-12.3-13.77,4.38-13.77,12.3-13.77S1052.11,782.44,1052.11,789.9Zm-21.44,0c0,5.5,3.08,11.1,9.13,11.1s9.13-5.6,9.13-11.1-3.08-11.09-9.13-11.09S1030.67,784.4,1030.67,789.9Z"/><path class="cls-14" d="M1065.27,773.56h-10.79v-6.65H1084v6.65h-10.79v29.35h-7.92Z"/><path class="cls-14" d="M1102.19,766.91h5l12.46,31.56,12.4-31.56h5v36h-3.43V771.8h-.1l-12.31,31.11H1118l-12.35-31.11h-.1v31.11h-3.43Z"/><path class="cls-14" d="M1143.39,784.86c.36-6.1,4.54-8.73,10.54-8.73,4.59,0,9.59,1.37,9.59,8.38v13.81a1.66,1.66,0,0,0,1.39,1.91,1.48,1.48,0,0,0,.47,0,2.32,2.32,0,0,0,1-.2v2.7a9,9,0,0,1-2.07.2c-3.23,0-3.73-1.86-3.73-4.54h-.1c-2.27,3.38-4.44,5.3-9.48,5.3-4.84,0-8.73-2.37-8.73-7.62,0-7.26,7.12-7.56,14-8.37,2.63-.25,4.09-.7,4.09-3.53,0-4.28-3-5.34-6.81-5.34-4,0-6.81,1.81-7,6Zm16.95,3.83h-.1c-.41.76-1.82,1-2.68,1.16-5.39,1-12.1,1-12.1,6,0,3.18,2.77,5.15,5.8,5.15,4.89,0,9.08-3.08,9.08-8.17Z"/><path class="cls-14" d="M1192.77,802.91h-2.93V798h-.1c-1.36,3.43-5.5,5.7-9.28,5.7-7.92,0-11.7-6.36-11.7-13.77s3.78-13.77,11.7-13.77c3.83,0,7.72,2,9,5.7h.1V766.91h3.18ZM1180.46,801c6.71,0,9.13-5.7,9.13-11.1s-2.42-11.09-9.13-11.09c-6,0-8.52,5.7-8.52,11.09S1174.41,801,1180.46,801Z"/><path class="cls-14" d="M1200.69,790.74c0,4.64,2.52,10.24,8.57,10.24,4.64,0,7.16-2.68,8.17-6.66h3.18c-1.37,5.9-4.74,9.33-11.35,9.33-8.27,0-11.75-6.36-11.75-13.77,0-6.86,3.48-13.77,11.75-13.77s11.7,7.32,11.45,14.63Zm16.84-2.67c-.15-4.79-3.18-9.28-8.27-9.28-5.25,0-8,4.54-8.57,9.28Z"/><path class="cls-14" d="M1239.62,766.91h24.86v2.92h-21.43v13h20.07v2.91h-20.07V800h21.69v2.92h-25.12Z"/><path class="cls-14" d="M1268.62,784.86c.35-6.1,4.54-8.73,10.54-8.73,4.59,0,9.58,1.37,9.58,8.38v13.81a1.68,1.68,0,0,0,1.41,1.92,1.77,1.77,0,0,0,.46,0,2.32,2.32,0,0,0,1-.2v2.7a9,9,0,0,1-2.07.2c-3.23,0-3.73-1.86-3.73-4.54h-.1c-2.27,3.38-4.44,5.3-9.49,5.3-4.84,0-8.72-2.37-8.72-7.62,0-7.26,7.11-7.56,14-8.37,2.62-.25,4.08-.7,4.08-3.53,0-4.28-3-5.34-6.8-5.34-4,0-6.81,1.81-7,6Zm16.94,3.83h-.1c-.4.76-1.81,1-2.67,1.16-5.39,1-12.1,1-12.1,6,0,3.18,2.77,5.15,5.8,5.15,4.89,0,9.07-3.08,9.07-8.17Z"/><path class="cls-14" d="M1310.68,784.51c-.15-3.94-3.18-5.7-6.81-5.7-2.82,0-6.15,1.11-6.15,4.49,0,2.77,3.18,3.83,5.4,4.38l4.23,1c3.63.56,7.42,2.67,7.42,7.21,0,5.65-5.6,7.82-10.44,7.82-6.1,0-10.14-2.77-10.69-9.18h3.17c.25,4.29,3.43,6.51,7.67,6.51,3,0,7.11-1.32,7.11-4.95,0-3-2.82-4-5.7-4.74l-4.08-.9c-4.14-1.06-7.27-2.58-7.27-7,0-5.3,5.2-7.32,9.79-7.32,5.24,0,9.28,2.73,9.53,8.38Z"/><path class="cls-14" d="M1316.43,776.89h3.38l8.57,22.19,8-22.19h3.18l-11.3,30c-1.86,4.38-2.87,5.64-6.86,5.64a8.59,8.59,0,0,1-2.42-.25v-2.67a10.54,10.54,0,0,0,2.17.25c2.83,0,3.48-1.66,4.54-4.08l1.11-3Z"/><path class="cls-15" d="M1023.81,864a30.82,30.82,0,0,0,30.81,30.78,18.3,18.3,0,0,0,2.78-.14v-9.21a23.46,23.46,0,0,1-2.78.19,21.65,21.65,0,1,1,0-43.3h0a19.88,19.88,0,0,1,2.78.19v-9.21c-.91-.08-1.84-.14-2.78-.14A30.83,30.83,0,0,0,1023.81,864Z"/><path class="cls-15" d="M1101.94,842.31a19.88,19.88,0,0,1,2.78.19v-9.21c-.91-.08-1.85-.14-2.78-.14a30.81,30.81,0,1,0,0,61.62h0a18.37,18.37,0,0,0,2.78-.14v-9.21a23.46,23.46,0,0,1-2.78.19,21.68,21.68,0,0,1-21.16-17.06h17.91v-9.18h-17.91A21.69,21.69,0,0,1,1101.94,842.31Z"/><path class="cls-15" d="M1221.34,879.33a27,27,0,1,1-.26-31.13l5.54-4a33.81,33.81,0,0,0-61,16.28h-13.7V837.91h16.61l5.28-7h-29v65.63l7-4.75V867.5h13.69a33.81,33.81,0,0,0,61.5,15.69Z"/><path class="cls-15" d="M1199.19,851.41a12.48,12.48,0,0,1,10.19,5.31l5.48-4A19.31,19.31,0,1,0,1215,875l-5.57-3.83a12.53,12.53,0,1,1-10.26-19.76Z"/><path class="cls-15" d="M1314.18,854q.55-6,1.13-12.08h3.52v-5.16h-1.42l9.78-10.21-.81-.77-8.91,9.3-1.61,1.68-.07.08v-.08a15.9,15.9,0,0,1,.16-1.68h1.51v-.82a2,2,0,1,0-2.27-3,11.28,11.28,0,0,0-2.35-1.31,25.05,25.05,0,0,0-4.91-1.16v-1.11h-7.43v.9a30,30,0,0,0-4,.52v-.62h-3.23V830a10.55,10.55,0,0,0-3,1.93.64.64,0,0,0-.19.55V833h-1.83v2.13h2l.33,3.55L1278,825.53l-.81.77,13.53,14.14q.64,6.78,1.27,13.57.32,3.4.63,6.86l-14.6,15.25.81.77,13.93-14.54c.24,2.68.48,5.37.73,8a.69.69,0,0,0,.69.63v3.45H1297V871h9.69a4.82,4.82,0,0,0,9-3.38,4.88,4.88,0,0,0-2.71-2.78c0-.35.07-.7.1-1.05l12.27,12.81.81-.77-12.94-13.51C1313.67,859.52,1313.93,856.74,1314.18,854Zm2.6-22.47a.88.88,0,0,1,.88.88h0a.87.87,0,0,1-.19.54h-1.31v-.48a.67.67,0,0,0-.18-.52A.89.89,0,0,1,1316.78,831.51Zm-1.16,7.11.66-.7h1.28v2.82h-2.14C1315.49,840,1315.55,839.32,1315.62,838.62Zm-13.84-9.81h4.89v1h-4.89Zm-5.23,1.66a28.49,28.49,0,0,1,4-.55V831H1308v-.87a23.26,23.26,0,0,1,4.43,1.07,8.75,8.75,0,0,1,2.42,1.45v.27h-18.22Zm-2-.86h.7v2.13h-.7Zm-3,3a9.94,9.94,0,0,1,1.78-1.17v1.44h-1.76l0-.22Zm.23,2.4h22.8c-.06.56-.11,1.12-.17,1.68h-.57v2.12l-3.81,4v-.35h-9.84v3.38h6.93l-4.72,4.93-10.13-10.59c-.18-1.68-.34-3.44-.5-5.12Zm17,8.62v.49l-.5.52h-6.8v-1Zm-15.22,10.17q-.54-5.91-1.11-11.83l9.2,9.6-7.57,7.9c-.2-1.85-.38-3.73-.55-5.62Zm2.53,19.67h-.61v-1.63h.61Zm10.5-4.22v.31H1295l-.78-8.61,8.2-8.57,9.62,10c-.06.68-.12,1.37-.19,2h-.45a4.81,4.81,0,0,0-4.84,4.78v.14Zm7.32,0a2.51,2.51,0,0,1-4.36,1.7,2.59,2.59,0,0,1-.64-1.39,1.6,1.6,0,0,1,0-.31,2.51,2.51,0,0,1,2.51-2.51h.25a2.54,2.54,0,0,1,1.34.56,2.52,2.52,0,0,1,.87,2Zm-1.08-15.45q-.33,3.54-.66,7.14l-9-9.37,5.5-5.74H1310v-1.42l3.81-4v1.42h.08q-.53,6.07-1.09,12Z"/><path class="cls-15" d="M1311.54,867.67h-.17a1.65,1.65,0,0,0-1.65,1.63h0a.81.81,0,0,0,0,.31,1.64,1.64,0,0,0,1.94,1.29,1.62,1.62,0,0,0,1-.63,1.69,1.69,0,0,0,.31-1,1.75,1.75,0,0,0-.16-.71A1.65,1.65,0,0,0,1311.54,867.67Zm-.17,2a.34.34,0,0,1-.22-.07.37.37,0,0,1-.16-.31.38.38,0,0,1,.38-.38h.05a.39.39,0,0,1,.33.38.37.37,0,0,1-.37.39h0Z"/><rect class="cls-15" x="1280.19" y="887.54" width="44.21" height="10.8"/><path class="cls-15" d="M674.14,919.47h25.58v4.36h-20.4v12.39h17.9v4.36h-17.9v17.84h-5.18Z"/><path class="cls-15" d="M732.84,931.2c-1.15-5.51-5.46-8.29-10.91-8.29-9.28,0-13.2,7.63-13.2,15.76,0,8.89,3.92,16.31,13.25,16.31,6.77,0,10.8-4.8,11.24-11.23h5.18c-1,9.76-7,15.6-16.86,15.6-12,0-18-9-18-20.3S710,918.54,722,918.54c8.13,0,14.89,4.37,16,12.66Z"/><path class="cls-15" d="M772.22,931.2c-1.14-5.51-5.45-8.29-10.91-8.29-9.27,0-13.2,7.63-13.2,15.76,0,8.89,3.93,16.31,13.26,16.31,6.76,0,10.8-4.8,11.23-11.23h5.19c-1,9.76-7,15.6-16.86,15.6-12.06,0-18-9-18-20.3s6.44-20.51,18.44-20.51c8.12,0,14.89,4.37,16,12.66Z"/><path class="cls-15" d="M799.61,919.47h5.18v38.95h-5.18Z"/><path class="cls-15" d="M813.52,919.47h13.36c12,0,18.71,6.06,18.71,18.55,0,13-5.73,20.4-18.71,20.4H813.52Zm5.18,34.58h8.62c3.54,0,13.09-1,13.09-15.32,0-9.28-3.44-14.9-13-14.9H818.7Z"/><path class="cls-15" d="M858.25,936.27h-6.06v-6h6.06Zm-6.06,16.09h6.06v6.06h-6.06Z"/><path class="cls-15" d="M865.23,933.43c-.44-7.85,4.26-13.69,12.44-13.69,6.71,0,12.11,3.93,12.11,11.13,0,6.82-4.58,10.2-9.38,13.26-4.8,2.89-10,5.45-10.86,10.2H889.4v4.09H864.14c.71-9.11,5.4-12.55,10.86-15.82,6.54-4.09,9.87-6.38,9.87-11.78,0-4.2-3.38-7-7.47-7-5.4,0-7.7,5-7.53,9.6Z"/><path class="cls-15" d="M908,919.47h5.73L929,958.42h-5.73L919,946.74H902.49l-4.36,11.73h-5.35Zm-3.87,22.86h13.2l-6.49-18.17h-.11Z"/><path class="cls-15" d="M932.77,919.47h25.58v4.36H938v12.39h17.89v4.36H938v17.84h-5.18Z"/><path class="cls-15" d="M982.41,929.62a6.17,6.17,0,0,0-6.49-5.79c-7.86,0-9.22,8.73-9.39,14.68l.11.11c2.18-3.55,5.46-5.08,9.66-5.08,7.42,0,11.83,5.4,11.83,12.55,0,5.67-3.16,13-12.92,13-11.51,0-13.31-10.53-13.31-18.6,0-10.64,3.21-20.73,14.23-20.73,6.39,0,10.31,3.55,10.91,9.88Zm-15,16.74c0,4.8,2.94,8.62,8,8.62s7.8-4,7.8-8.56c0-4.8-2.5-8.78-7.8-8.78S967.41,941.51,967.41,946.36Z"/><path class="cls-15" d="M994.41,919.47h14.13c3.38,0,8,0,10.31,1.42a9.19,9.19,0,0,1,4.58,8.13,8.91,8.91,0,0,1-5.78,8.72v.11c4.8,1,7.42,4.59,7.42,9.39,0,5.67-4.15,11.18-11.84,11.18H994.41Zm5.18,16.75H1010c5.89,0,8.29-2.08,8.29-6.22,0-5.46-3.77-6.17-8.29-6.17H999.59Zm0,17.83h13c4.53,0,7.31-2.67,7.31-7,0-5.07-4.09-6.49-8.45-6.49H999.59Z"/><path class="cls-15" d="M1030.25,941.07H1046v4.37h-15.76Z"/><path class="cls-15" d="M1053,919.47h18.32c7.37,0,11.84,3.93,11.84,10.2,0,4.75-2,8.57-6.76,9.87v.11c4.53.88,5.4,4.26,5.83,8,.28,3.77.11,8.13,2.3,10.75h-5.79c-1.47-1.58-.65-5.78-1.42-9.6-.59-3.77-1.47-7-6.49-7h-12.65v16.64H1053Zm16,17.95c4.8,0,9-1.26,9-6.93,0-3.87-2.07-6.66-6.93-6.66H1058.2v13.59Z"/><path class="cls-15" d="M1101,919.47h5.72l15.22,38.95h-5.72l-4.31-11.68h-16.47l-4.37,11.73h-5.34Zm-3.88,22.86h13.2l-6.49-18.17h-.11Z"/><path class="cls-15" d="M1125.71,919.47h5.19v19.42l19.74-19.42h6.71l-16.42,15.71L1158,958.42h-6.55l-14.06-19.68-6.49,6v13.64h-5.19Z"/><path class="cls-15" d="M1180.7,945.27h5.24v4.09h-5.24v9.06h-4.37v-9.06h-17v-4.47L1177,919.74h3.71Zm-4.37,0V926.34h-.1l-12.88,18.93Z"/><path class="cls-15" d="M1190.57,933.43c-.43-7.85,4.26-13.69,12.44-13.69,6.71,0,12.11,3.93,12.11,11.13,0,6.82-4.58,10.2-9.38,13.26-4.8,2.89-10,5.45-10.86,10.2h19.86v4.09h-25.26c.71-9.11,5.4-12.55,10.86-15.82,6.54-4.09,9.87-6.38,9.87-11.78,0-4.2-3.38-7-7.47-7-5.4,0-7.69,5-7.53,9.6Z"/><path class="cls-15" d="M1233.67,919.74c12.11,0,12.87,11.19,12.87,19.7s-.76,19.63-12.87,19.63-12.88-11.12-12.88-19.63S1221.56,919.74,1233.67,919.74Zm0,35.24c7.91,0,8-9.82,8-15.6s-.05-15.55-8-15.55-8,9.82-8,15.55S1225.76,955,1233.67,955Z"/><path class="cls-15" d="M1264,919.74c12.11,0,12.87,11.19,12.87,19.7s-.76,19.63-12.87,19.63-12.87-11.12-12.87-19.63S1251.89,919.74,1264,919.74Zm0,35.24c7.91,0,8-9.82,8-15.6s0-15.55-8-15.55-8,9.82-8,15.55S1256.09,955,1264,955Z"/><path class="cls-15" d="M1290.29,969.22c-5.23-8.13-8.56-16-8.56-25.53a42.62,42.62,0,0,1,8.56-25.15h3.55a44.76,44.76,0,0,0-7.2,25.15,46,46,0,0,0,7.2,25.53Z"/><path class="cls-15" d="M1297.55,919.47h5.18v16.75h20.51V919.47h5.18v38.95h-5.18V940.58h-20.51v17.84h-5.18Z"/><path class="cls-15" d="M1332.13,969.22a44.74,44.74,0,0,0,7.2-25.15,46,46,0,0,0-7.2-25.53h3.55c5.24,8.13,8.56,16,8.56,25.53a42.47,42.47,0,0,1-8.56,25.15Z"/><path class="cls-15" d="M521.32,1039.91h25.9c10.41,0,16.73,5.55,16.73,14.42,0,6.7-2.85,12.1-9.56,14v.15c6.4,1.24,7.63,6,8.25,11.34.39,5.32.16,11.48,3.24,15.18h-8.17c-2.08-2.23-.93-8.17-2-13.56-.84-5.32-2.08-10-9.17-10H528.65V1095h-7.33Zm22.59,25.36c6.78,0,12.72-1.77,12.72-9.79,0-5.47-2.93-9.4-9.79-9.4H528.65v19.19Z"/><path class="cls-15" d="M589.08,1039.91h8.1l21.51,55h-8.1l-6-16.57H581.3l-6.17,16.57h-7.55Zm-5.47,32.3h18.66l-9.18-25.67h-.15Z"/><path class="cls-15" d="M624.08,1039.91h7.33v27.45l27.9-27.45h9.48l-23.2,22.2L669.72,1095h-9.25l-19.89-27.83-9.17,8.56V1095h-7.33Z"/><path class="cls-15" d="M701.79,1076.37h7.4v5.79h-7.4V1095h-6.17v-12.79h-24v-6.33l24.9-35.53h5.24Zm-6.17,0v-26.74h-.15l-18.19,26.74Z"/><path class="cls-15" d="M715.74,1059.65c-.61-11.1,6-19.35,17.58-19.35,9.48,0,17.11,5.55,17.11,15.72,0,9.64-6.47,14.42-13.26,18.74-6.78,4.08-14.1,7.7-15.34,14.41h28.06V1095H714.2c1-12.87,7.63-17.73,15.34-22.35,9.25-5.78,14-9,14-16.65,0-5.94-4.78-9.87-10.57-9.87-7.63,0-10.87,7-10.63,13.57Z"/><path class="cls-15" d="M776.64,1040.3c17.12,0,18.2,15.8,18.2,27.83s-1.08,27.75-18.2,27.75-18.19-15.73-18.19-27.75S759.53,1040.3,776.64,1040.3Zm0,49.8c11.18,0,11.26-13.88,11.26-22s-.08-22-11.26-22-11.25,13.87-11.25,22S765.47,1090.1,776.64,1090.1Z"/><path class="cls-15" d="M819.51,1040.3c17.11,0,18.19,15.8,18.19,27.83s-1.08,27.75-18.19,27.75-18.2-15.73-18.2-27.75S802.39,1040.3,819.51,1040.3Zm0,49.8c11.17,0,11.25-13.88,11.25-22s-.08-22-11.25-22-11.26,13.87-11.26,22S808.33,1090.1,819.51,1090.1Z"/><path class="cls-15" d="M856.67,1110.22c-7.41-11.49-12.11-22.59-12.11-36.08a60.05,60.05,0,0,1,12.11-35.54h5a63.17,63.17,0,0,0-10.17,35.54,65,65,0,0,0,10.18,36.08Z"/><path class="cls-15" d="M866.92,1039.91h7.32v23.67h29v-23.67h7.32v55h-7.32v-25.17h-29v25.2h-7.32Z"/><path class="cls-15" d="M915.79,1110.22A63.16,63.16,0,0,0,926,1074.68a65.08,65.08,0,0,0-10.18-36.08h5c7.4,11.49,12.11,22.59,12.11,36.08a60.1,60.1,0,0,1-12.11,35.54Z"/><path class="cls-15" d="M519.51,1157.82h13.18c11.84,0,18.46,6,18.46,18.3,0,12.86-5.65,20.12-18.46,20.12H519.51Zm5.11,34.12h8.5c3.5,0,12.92-1,12.92-15.12,0-9.15-3.39-14.7-12.81-14.7h-8.61Z"/><path class="cls-15" d="M580.38,1187.42c-1.24,6.19-5.6,9.47-11.89,9.47-8.88,0-13.08-6.19-13.35-14.64,0-8.39,5.49-14.48,13.08-14.48,9.85,0,12.86,9.21,12.59,15.93H560c-.16,4.85,2.59,9.15,8.67,9.15,3.82,0,6.4-1.77,7.21-5.43Zm-4.38-7.75a8,8,0,0,0-8-7.86c-4.74,0-7.7,3.55-8,7.86Z"/><path class="cls-15" d="M598.09,1196.24h-4.9l-10.33-27.82H588l7.8,23.2h.11l7.59-23.2h4.79Z"/><path class="cls-15" d="M613.21,1157.82h26.54v4.3H618.33v12.22h20v4.31h-20v13.29h21.58v4.3h-26.7Z"/><path class="cls-15" d="M676.78,1182.36c0,9.74-5.49,14.8-15.13,14.8-9.9,0-15.76-4.58-15.76-14.8v-24.54H651v24.54c0,6.83,3.82,10.49,10.65,10.49,6.52,0,10-3.66,10-10.49v-24.54h5.12Z"/><path class="cls-15" d="M685.18,1157.82h5.11v38.42h-5.11Z"/><path class="cls-15" d="M705.14,1174.39h-6v-6h6Zm-6,15.88h6v6h-6Z"/><path class="cls-15" d="M746.91,1167.83a6.08,6.08,0,0,0-6.4-5.71c-7.75,0-9.1,8.61-9.26,14.48l.11.11c2.15-3.5,5.38-5,9.52-5,7.32,0,11.68,5.33,11.68,12.38,0,5.6-3.12,12.81-12.75,12.81-11.36,0-13.14-10.39-13.14-18.35,0-10.5,3.18-20.45,14.05-20.45,6.3,0,10.17,3.5,10.76,9.74Zm-14.8,16.52c0,4.74,2.91,8.5,7.91,8.5s7.7-3.93,7.7-8.45c0-4.73-2.48-8.66-7.7-8.66s-7.91,3.82-7.91,8.61Z"/><path class="cls-15" d="M769.52,1158.09c11.94,0,12.7,11,12.7,19.43s-.76,19.37-12.7,19.37-12.7-11-12.7-19.37S757.57,1158.09,769.52,1158.09Zm0,34.76c7.8,0,7.86-9.68,7.86-15.39s-.06-15.34-7.86-15.34-7.86,9.69-7.86,15.34S761.71,1192.85,769.52,1192.85Z"/><path class="cls-15" d="M806.82,1177.35c-.7-3.49-3.07-5.54-6.89-5.54-6.62,0-8.67,5.27-8.67,10.87,0,5.17,2.32,10.17,8.13,10.17,4.47,0,7.05-2.53,7.64-6.78h4.68c-1,6.84-5.22,10.82-12.27,10.82-8.5,0-13-5.87-13-14.21s4.29-14.94,13.11-14.94c6.35,0,11.3,3,12,9.58Z"/><path class="cls-15" d="M838.68,1162.74H823.29l-2,11,.11.11a9.64,9.64,0,0,1,7.1-2.75c6.79,0,12.33,4.31,12.33,13.08,0,6.46-4.47,12.7-13.35,12.7-6.62,0-12-4-12.16-10.93h4.57c.27,3.93,3.45,6.89,8,6.89,4.36,0,8.08-3,8.08-9a8.27,8.27,0,0,0-7.86-8.66h-.76a9.11,9.11,0,0,0-7.1,3.6l-3.93-.21,3.52-19.83h18.84Z"/><path class="cls-15" d="M871.4,1196.14a6.36,6.36,0,0,1-3.28.75c-2.37,0-3.87-1.29-3.87-4.31a12.14,12.14,0,0,1-9.8,4.31c-5.06,0-9.2-2.21-9.2-7.8,0-6.3,4.68-7.7,9.42-8.56,5-1,9.36-.59,9.36-4.09,0-4-3.34-4.63-6.19-4.63-3.87,0-6.72,1.19-6.94,5.27h-4.57c.26-6.88,5.54-9.31,11.78-9.31,5,0,10.44,1.13,10.44,7.65v14.32c0,2.15,0,3.12,1.45,3.12a4.19,4.19,0,0,0,1.4-.27Zm-7.4-14.27c-3.55,2.64-13.89.06-13.89,6.89,0,3,2.59,4.09,5.38,4.09,6,0,8.51-3.71,8.51-6.29Z"/><path class="cls-15" d="M886.91,1158.09c8.34,0,11.57,4.84,11.57,9.74a8.73,8.73,0,0,1-5.28,7.91c4.58,1.45,6.78,4.79,6.78,9.53,0,7.37-5.59,11.62-12.64,11.62-7.32,0-13-3.88-13-11.62a9.59,9.59,0,0,1,6.66-9.53,8.53,8.53,0,0,1-5.33-7.91C875.71,1161.59,881,1158.09,886.91,1158.09Zm.43,34.76c4.57,0,7.8-3.17,7.8-7.42,0-4.09-3.55-7.27-7.86-7.27-4.52,0-8.07,2.85-8.07,7.32s3.39,7.37,8.13,7.37Zm0-18.73c3.66,0,6.29-2.26,6.29-6.13s-2.69-5.87-6.4-5.87-6.67,2-6.67,5.87c0,4.14,3.06,6.13,6.78,6.13Z"/><path class="cls-15" d="M520.64,1233H516v-4h4.68v-4.15c0-4.52,2.69-6.88,7.69-6.88a11.33,11.33,0,0,1,3,.43v4a8.4,8.4,0,0,0-2.58-.38c-2.21,0-3.5.7-3.5,3.12V1229h5.38v4h-5.38v23.78h-4.57Z"/><path class="cls-15" d="M536.57,1233h-4.68v-4h4.68v-4.15c0-4.52,2.69-6.88,7.7-6.88a11.33,11.33,0,0,1,3,.43v4a8.73,8.73,0,0,0-2.59-.38c-2.2,0-3.5.7-3.5,3.12V1229h5.39v4h-5.39v23.78h-4.57Z"/><path class="cls-15" d="M574.35,1248c-1.24,6.19-5.6,9.47-11.89,9.47-8.88,0-13.08-6.19-13.35-14.64,0-8.4,5.49-14.48,13.08-14.48,9.85,0,12.86,9.21,12.59,15.93H554c-.16,4.85,2.59,9.15,8.67,9.15,3.82,0,6.4-1.77,7.21-5.43Zm-4.41-7.75a8,8,0,0,0-8-7.86c-4.74,0-7.7,3.55-8,7.86Z"/><path class="cls-15" d="M603.47,1223.22c-7.7,7.59-13.94,21.69-14.64,33.58h-5.11c.86-12.91,7-24.75,15.07-33.2h-20v-4.31h24.7Z"/><path class="cls-15" d="M631.3,1223.33H615.9l-2,11,.11.1a9.71,9.71,0,0,1,7.1-2.74c6.78,0,12.33,4.31,12.33,13.08,0,6.46-4.47,12.7-13.35,12.7-6.62,0-12-4-12.16-10.93h4.57c.27,3.93,3.44,6.89,8,6.89,4.36,0,8.07-3,8.07-9a8.27,8.27,0,0,0-7.84-8.66H620a9,9,0,0,0-7.1,3.6l-3.93-.21,3.55-19.81H631.3Z"/><path class="cls-15" d="M658.48,1243.83h5.16v4h-5.16v8.93h-4.31v-8.93H637.44v-4.41l17.38-24.81h3.66Zm-4.31,0v-18.67h-.11l-12.7,18.67Z"/><path class="cls-15" d="M680.82,1218.65c11.94,0,12.7,11,12.7,19.42s-.76,19.38-12.7,19.38-12.71-11-12.71-19.38S668.87,1218.65,680.82,1218.65Zm0,34.76c7.8,0,7.85-9.69,7.85-15.39s0-15.34-7.85-15.34S673,1232.37,673,1238,673,1253.41,680.82,1253.41Z"/><path class="cls-15" d="M707.51,1235a6.7,6.7,0,0,0,1,0h1c3.88,0,7.27-2.15,7.27-6.24s-2.91-6.14-6.78-6.14c-5,0-7.21,3.82-7.21,8.29H698.2c.27-7.27,4.15-12.32,11.79-12.32,6.62,0,11.62,3.17,11.62,10.22a8.6,8.6,0,0,1-5.27,7.59v.11c4.68,1,6.89,4.68,6.89,9.25,0,7.59-6,11.63-13.13,11.63-7.75,0-12.87-4.52-12.7-12.43H702c.16,5,2.91,8.39,8.13,8.39,4.46,0,8.28-2.8,8.28-7.37,0-4.79-3.6-7.32-8.12-7.32a22.93,22.93,0,0,0-2.75.16Z"/><path class="cls-15" d="M731,1233h-4.69v-4H731v-4.15c0-4.52,2.69-6.88,7.69-6.88a11.33,11.33,0,0,1,3,.43v4a8.71,8.71,0,0,0-2.58-.38c-2.21,0-3.5.7-3.5,3.12V1229H741v4h-5.38v23.78H731Z"/><rect class="cls-16" x="1018.12" y="1036.9" width="72" height="72"/><rect x="1034.49" y="1053.27" width="39.26" height="39.26"/><rect class="cls-16" x="1018.12" y="1268.9" width="72" height="72"/><rect x="1034.49" y="1285.27" width="39.26" height="39.26"/><rect class="cls-16" x="1249.81" y="1036.9" width="72" height="72"/><rect x="1266.18" y="1053.27" width="39.26" height="39.26"/><rect x="1018.12" y="1196.24" width="9.6" height="60.56"/><rect x="1018.12" y="1174.4" width="22.48" height="10"/><rect x="1040.61" y="1184.4" width="16.79" height="30"/><rect x="1015.39" y="1130.73" width="12.33" height="22"/><rect x="1031.73" y="1156.73" width="17.28" height="6"/><rect x="1027.73" y="1144.07" width="12.67" height="12.67"/><rect x="1040.61" y="1120.73" width="6.79" height="23.33"/><rect x="1047.39" y="1120.73" width="22.33" height="8.33"/><rect x="1062.06" y="1120.73" width="7.67" height="29.67"/><rect x="1049" y="1162.73" width="20.72" height="10"/><rect x="1069.73" y="1150.4" width="12.33" height="12.33"/><rect x="1062.06" y="1162.73" width="7.67" height="41.67"/><rect x="1040.61" y="1184.4" width="29.12" height="20"/><rect x="1057.4" y="1214.4" width="12.32" height="32"/><rect x="1065.89" y="1236.07" width="16.17" height="10.33"/><rect x="1082.06" y="1226.52" width="51.33" height="9.54"/><rect x="1082.06" y="1246.4" width="8.06" height="8.06"/><rect x="1090.12" y="1130.73" width="8.6" height="105.33"/><rect x="1082.06" y="1206.73" width="16.67" height="7.67"/><rect x="1082.06" y="1186.4" width="16.67" height="6"/><rect x="1082.06" y="1165.73" width="16.67" height="8.67"/><rect x="1082.06" y="1141.73" width="16.67" height="8.67"/><rect x="1082.06" y="1120.73" width="8.06" height="10"/><rect x="1098.73" y="1089.07" width="12" height="41.67"/><rect x="1094.43" y="1146.07" width="26.67" height="26.67"/><rect x="1110.73" y="1130.73" width="10.37" height="19.67"/><rect x="1121.09" y="1130.73" width="10.3" height="7.67"/><rect x="1110.73" y="1111.4" width="19" height="6"/><rect x="1110.73" y="1069.07" width="19" height="25.89"/><rect x="1121.06" y="1084.4" width="8.67" height="33"/><rect x="1126.24" y="1069.07" width="49.82" height="9.33"/><rect x="1144.06" y="1060.73" width="12.16" height="12.16"/><rect x="1168.73" y="1060.73" width="7.33" height="12.16"/><rect x="1133.39" y="1049.73" width="10.67" height="11"/><rect x="1144.06" y="1036.9" width="12.59" height="12.59"/><rect x="1100.39" y="1036.9" width="10.33" height="32.17"/><rect x="1105.56" y="1049.73" width="15.53" height="7"/><rect x="1186.81" y="1036.9" width="9.88" height="9.88"/><rect x="1186.81" y="1069.07" width="9.33" height="9.33"/><rect x="1206.31" y="1046.77" width="11" height="31.63"/><rect x="1196.14" y="1078.4" width="10.17" height="21.25"/><rect x="1186.81" y="1089.07" width="9.33" height="22.33"/><rect x="1206.31" y="1099.65" width="9.75" height="21.08"/><rect x="1196.14" y="1111.4" width="10.17" height="9.33"/><rect x="1177.06" y="1111.4" width="9.75" height="8"/><rect x="1167.56" y="1091.15" width="9.5" height="20.25"/><rect x="1156.65" y="1069.07" width="10.91" height="30.58"/><rect x="1121.09" y="1091.15" width="22.97" height="8.5"/><rect x="1144.06" y="1099.65" width="12.59" height="39.5"/><rect x="1151.15" y="1111.4" width="16.41" height="19.33"/><rect x="1167.56" y="1130.73" width="8.5" height="22"/><rect x="1131.43" y="1119.4" width="17.38" height="9.67"/><rect x="1125.39" y="1094.95" width="6" height="43.45"/><rect x="1094.43" y="1167.1" width="16.3" height="16.3"/><rect x="1094.43" y="1196.24" width="16.3" height="8.16"/><rect x="1110.73" y="1183.4" width="42.83" height="12.84"/><rect x="1123.06" y="1179.4" width="10.33" height="25"/><rect x="1123.06" y="1175.25" width="63.75" height="8.32"/><rect x="1110.73" y="1152.73" width="58" height="10"/><rect x="1131.39" y="1138.4" width="12.67" height="36.85"/><rect x="1159.36" y="1167.1" width="16.7" height="12.31"/><rect x="1159.36" y="1152.73" width="9.37" height="20.52"/><rect x="1176.06" y="1146.07" width="16.93" height="21.03"/><rect x="1186.81" y="1157.73" width="19.5" height="15.52"/><rect x="1196.56" y="1173.26" width="65.83" height="10.15"/><rect x="1186.81" y="1130.73" width="6.18" height="32"/><rect x="1186.81" y="1130.73" width="29.25" height="9.83"/><rect x="1206.31" y="1130.73" width="11" height="27"/><rect x="1211.18" y="1140.19" width="16.38" height="17.67"/><rect x="1219.37" y="1152.73" width="28.19" height="10.26"/><rect x="1219.37" y="1148.38" width="8.19" height="29.95"/><rect x="1227.56" y="1091.15" width="9.5" height="29.58"/><rect x="1225.56" y="1069.07" width="11.5" height="11.5"/><rect x="1225.56" y="1046.77" width="13.96" height="13.96"/><rect x="1227.56" y="1130.73" width="20" height="11"/><rect x="1237.06" y="1120.73" width="31.33" height="10"/><rect x="1262.39" y="1120.73" width="6" height="21"/><rect x="1239.52" y="1140.57" width="22.87" height="12.17"/><rect x="1281.06" y="1130.73" width="12.08" height="12.08"/><rect x="1293.14" y="1120.73" width="28.67" height="10.5"/><rect x="1311.56" y="1124.23" width="10.25" height="18.58"/><rect x="1293.14" y="1142.82" width="18.42" height="22.68"/><rect x="1303.81" y="1154.16" width="18" height="11.34"/><rect x="1303.81" y="1174.4" width="7.75" height="40"/><rect x="1303.81" y="1196.24" width="18" height="8.16"/><rect x="1291.31" y="1204.4" width="20.25" height="10"/><rect x="1277.81" y="1197.4" width="13.5" height="7"/><rect x="1237.56" y="1178.33" width="8.5" height="16.07"/><rect x="1262.39" y="1152.73" width="10.92" height="20.52"/><rect x="1273.31" y="1173.26" width="7.75" height="126.4"/><rect x="1262.39" y="1183.4" width="18.67" height="11"/><rect x="1311.56" y="1214.4" width="12.12" height="12.12"/><rect x="1303.81" y="1226.52" width="9" height="27.94"/><rect x="1312.81" y="1237.9" width="9" height="51.5"/><rect x="1295.06" y="1246.4" width="17.75" height="8.06"/><rect x="1273.31" y="1267.65" width="28.13" height="12.5"/><rect x="1229.48" y="1289.4" width="71.96" height="10.25"/><rect x="1284.56" y="1289.4" width="16.88" height="20.88"/><rect x="1295.06" y="1303.4" width="16.5" height="6.88"/><rect x="1303.81" y="1304.9" width="7.75" height="26.01"/><rect x="1254.56" y="1324.53" width="57" height="6.38"/><rect x="1239.56" y="1312.65" width="41.5" height="8.5"/><rect x="1252.82" y="1312.65" width="28.24" height="28.24"/><rect x="1218.81" y="1332.4" width="62.25" height="8.49"/><rect x="1227.56" y="1246.4" width="12" height="66.25"/><rect x="1249.93" y="1270.15" width="10" height="10"/><rect x="1239.56" y="1237.9" width="20.75" height="12.53"/><rect x="1227.56" y="1226.52" width="11.38" height="11.38"/><rect x="1227.56" y="1246.4" width="53.5" height="10.4"/><rect x="1167.56" y="1170.07" width="8.5" height="24.33"/><rect x="1123.06" y="1216.9" width="45.67" height="13.5"/><rect x="1144.06" y="1206.73" width="12.59" height="16.9"/><rect x="1113.33" y="1226.52" width="9.73" height="19.88"/><rect x="1102.58" y="1246.4" width="10.75" height="21.25"/><rect x="1123.06" y="1246.4" width="10.33" height="33.13"/><rect x="1144.06" y="1237.9" width="12.59" height="30.99"/><rect x="1145.89" y="1244.17" width="31.88" height="12.64"/><rect x="1168.73" y="1230.4" width="18.08" height="6.06"/><rect x="1177.77" y="1216.9" width="9.04" height="27.27"/><rect x="1177.77" y="1233.43" width="21.29" height="10.74"/><rect x="1168.73" y="1207.86" width="9.04" height="9.04"/><rect x="1186.81" y="1207.86" width="29.25" height="9.04"/><rect x="1197.56" y="1197.4" width="18.5" height="26.25"/><rect x="1197.56" y="1196.24" width="38" height="8.16"/><rect x="1227.56" y="1204.4" width="20.75" height="10.78"/><rect x="1301.43" y="1280.15" width="11.38" height="9.25"/><rect x="1206.81" y="1312.65" width="20.75" height="8.5"/><rect x="1206.81" y="1283.4" width="23.75" height="7.25"/><rect x="1199.06" y="1244.17" width="17" height="20.73"/><rect x="1207.56" y="1237.9" width="8.5" height="18.9"/><rect x="1216.06" y="1264.9" width="17.19" height="21.25"/><rect x="1196.56" y="1290.65" width="10.25" height="22"/><rect x="1188.41" y="1303.4" width="8.15" height="17.75"/><rect x="1196.56" y="1321.15" width="10.25" height="11.25"/><rect x="1147.81" y="1313.02" width="40.6" height="8.13"/><rect x="1167.56" y="1303.4" width="7.5" height="37.49"/><rect x="1173.25" y="1319.09" width="11.81" height="11.81"/><rect x="1113.33" y="1267.65" width="9.73" height="23"/><rect x="1102.58" y="1290.65" width="10.75" height="32.75"/><rect x="1109.31" y="1303.4" width="13.75" height="8.25"/><rect x="1113.33" y="1323.4" width="34.48" height="9"/><rect x="1125.06" y="1327.9" width="15.25" height="12.99"/><rect x="1123.06" y="1290.65" width="33.59" height="12.75"/><rect x="1133.39" y="1279.53" width="14.42" height="33.5"/><rect x="1143.1" y="1279.15" width="13.54" height="14.54"/><rect x="1156.65" y="1268.9" width="31.77" height="10.63"/><rect x="1175.06" y="1279.15" width="13.35" height="24.25"/><rect x="1185.43" y="1279.53" width="11.12" height="11.13"/></g><polygon class="cls-17" points="781.34 181.96 744.93 181.96 729.81 181.96 713.04 181.96 693.4 181.96 617.49 181.96 597.84 181.96 565.96 181.96 540.15 204.12 565.96 226.33 597.84 226.33 617.49 226.33 693.4 226.33 713.04 226.33 729.81 226.33 744.93 226.33 781.34 226.33 807.15 204.12 781.34 181.96"/><g class="cls-18"><path class="cls-2" d="M597.32,205.82c0,6.54-3.86,9.73-10.34,9.73s-10.31-3.12-10.31-9.73v-15H582v15c0,2.64.67,5.25,5,5.25,3.8,0,5-1.62,5-5.25v-15h5.32Z"/><path class="cls-2" d="M605.52,206.94c0,3.22,2.51,4.47,5.36,4.47,1.87,0,4.71-.54,4.71-3,0-2.65-3.66-3-7.18-4s-7.23-2.41-7.23-6.89c0-5,4.68-7.32,9.06-7.32,5,0,9.69,2.2,9.69,7.8h-5.15c-.17-2.88-2.2-3.66-4.78-3.66-1.7,0-3.66.71-3.66,2.74,0,1.87,1.15,2.14,7.22,3.66,1.8.41,7.19,1.6,7.19,7.06,0,4.44-3.46,7.76-10.07,7.76-5.36,0-10.41-2.64-10.31-8.61Z"/><path class="cls-2" d="M630.51,190.77H636l9,24.2H639.5l-1.84-5.39h-9l-1.9,5.39h-5.39ZM630,205.62h6.27l-3-8.89h-.06Z"/><path class="cls-2" d="M647.12,190.77h13.06c4.34,0,7.08,3,7.08,6.67,0,2.85-1.12,5-3.83,6.07v.07c2.61.71,3.36,3.19,3.53,5.66.1,1.53,0,4.41,1,5.73h-5.32c-.61-1.52-.58-3.86-.85-5.79-.37-2.55-1.35-3.67-4-3.67h-5.32V215h-5.33Zm5.33,10.95h5.83c2.4,0,3.66-1,3.66-3.46s-1.26-3.36-3.66-3.36h-5.83Z"/><path class="cls-2" d="M677,195.24H669.7v-4.47h19.84v4.47h-7.26V215H677Z"/><path class="cls-2" d="M691.23,200.36c-.17-5.42,2.91-9.59,8.61-9.59,4.34,0,8.14,2.78,8.14,7.42,0,7.19-7.63,7.77-11.09,12.65h11.22V215H690.69c0-5.52,3.39-7.79,7.49-10.61,2.07-1.46,5-2.88,5-5.8a3.41,3.41,0,0,0-3.56-3.66c-2.85,0-3.76,2.95-3.76,5.46Z"/><path class="cls-2" d="M708.82,217.52h17v1.69h-17Z"/><path class="cls-2" d="M728.12,190.77h10.44c6.27,0,11,4,11,12,0,7-3.59,12.24-11,12.24H728.12Zm5.32,19.73h4.75c3.08,0,6-1.9,6-7.26,0-4.88-1.73-8-7-8h-3.8Z"/><path class="cls-2" d="M753.24,190.77h18.1v4.47H758.56v5.19h11.73v4.13H758.56v5.94h13.05V215H753.24Z"/></g><polygon class="cls-17" points="781.34 249.95 744.93 249.95 729.81 249.95 713.04 249.95 693.4 249.95 617.49 249.95 597.84 249.95 565.96 249.95 540.15 272.11 565.96 294.32 597.84 294.32 617.49 294.32 693.4 294.32 713.04 294.32 729.81 294.32 744.93 294.32 781.34 294.32 807.15 272.11 781.34 249.95"/><g class="cls-18"><path class="cls-2" d="M597.32,273.81c0,6.54-3.86,9.73-10.34,9.73s-10.31-3.12-10.31-9.73V258.76H582v15.05c0,2.64.67,5.25,5,5.25,3.8,0,5-1.62,5-5.25V258.76h5.32Z"/><path class="cls-2" d="M605.52,274.93c0,3.22,2.51,4.47,5.36,4.47,1.87,0,4.71-.54,4.71-3,0-2.65-3.66-3-7.18-4s-7.23-2.41-7.23-6.89c0-5,4.68-7.32,9.06-7.32,5,0,9.69,2.2,9.69,7.8h-5.15c-.17-2.88-2.2-3.66-4.78-3.66-1.7,0-3.66.71-3.66,2.74,0,1.87,1.15,2.14,7.22,3.66,1.8.41,7.19,1.6,7.19,7.06,0,4.44-3.46,7.76-10.07,7.76-5.36,0-10.41-2.64-10.31-8.61Z"/><path class="cls-2" d="M630.51,258.76H636l9,24.2H639.5l-1.84-5.39h-9l-1.9,5.39h-5.39ZM630,273.61h6.27l-3-8.89h-.06Z"/><path class="cls-2" d="M647.12,258.76h13.06c4.34,0,7.08,3,7.08,6.67,0,2.85-1.12,5-3.83,6.07v.07c2.61.71,3.36,3.19,3.53,5.66.1,1.53,0,4.41,1,5.73h-5.32c-.61-1.52-.58-3.86-.85-5.79-.37-2.55-1.35-3.67-4-3.67h-5.32V283h-5.33Zm5.33,10.95h5.83c2.4,0,3.66-1,3.66-3.46s-1.26-3.36-3.66-3.36h-5.83Z"/><path class="cls-2" d="M677,263.23H669.7v-4.47h19.84v4.47h-7.26V283H677Z"/><path class="cls-2" d="M703.26,283h-4.81V267.57h-6v-3.63c3.36.1,6.41-1.08,6.95-4.71h3.83Z"/><path class="cls-2" d="M708.82,285.51h17v1.69h-17Z"/><path class="cls-2" d="M728.12,258.76h10.44c6.27,0,11,4,11,12,0,7-3.59,12.24-11,12.24H728.12Zm5.32,19.73h4.75c3.08,0,6-1.9,6-7.26,0-4.88-1.73-8-7-8h-3.8Z"/><path class="cls-2" d="M753.24,258.76h18.1v4.47H758.56v5.19h11.73v4.13H758.56v5.94h13.05V283H753.24Z"/></g><path d="M873.19,222.68H829.74c-3.21,0-5.84-2.37-5.84-5.26V190.86c0-2.89,2.63-5.25,5.84-5.25h43.45c3.21,0,5.84,2.36,5.84,5.25v26.56C879,220.31,876.4,222.68,873.19,222.68Z"/><g class="cls-18"><path class="cls-2" d="M849.5,200.69c2.4.18,5.85-.24,5.85-3.07,0-2.12-1.84-3.29-3.89-3.29-2.83,0-4.28,1.88-4.24,4.42h-5.31c.2-5.09,3.82-8.56,9.51-8.56,4.41,0,9.24,2.44,9.24,6.86a5,5,0,0,1-3.85,5.06v.07a5.64,5.64,0,0,1,4.87,5.62c0,5.2-4.87,8.13-10.22,8.13-6.17,0-10.33-3.32-10.22-9h5.31c.12,2.68,1.61,4.88,4.84,4.88,2.51,0,4.48-1.52,4.48-3.89,0-3.75-3.66-3.68-6.37-3.68Z"/></g><path d="M873.19,290.67H829.74c-3.21,0-5.84-2.37-5.84-5.26V258.85c0-2.89,2.63-5.25,5.84-5.25h43.45c3.21,0,5.84,2.36,5.84,5.25v26.56C879,288.3,876.4,290.67,873.19,290.67Z"/><g class="cls-18"><path class="cls-2" d="M855.79,265a3.81,3.81,0,0,0-3.7-3.07c-4,0-5.15,4.81-5.26,7.53l.07.07a7.21,7.21,0,0,1,6.21-2.76,9.23,9.23,0,0,1,6.33,2.55,7.9,7.9,0,0,1,2.13,5.51c0,5.06-3.9,9.05-9.63,9.05-8.34,0-10.58-6.54-10.58-12.8,0-6.08,3-12.94,10.81-12.94,4.76,0,8.3,2.48,8.92,6.86Zm-8.45,10.15a4.43,4.43,0,0,0,4.44,4.6,4.29,4.29,0,0,0,4.2-4.53c0-2.33-1.33-4.67-4.2-4.67S847.34,272.75,847.34,275.19Z"/></g></svg>