<svg xmlns="http://www.w3.org/2000/svg" viewBox="0 0 492.26 297.19"><defs><style>.cls-1,.cls-22{fill:#fff;}.cls-2{fill:#e6e7e8;}.cls-3{fill:#bbbdbf;}.cls-20,.cls-21,.cls-4,.cls-5,.cls-6{fill:none;stroke:#231f20;}.cls-4,.cls-5,.cls-6{stroke-miterlimit:10;stroke-width:0.5px;}.cls-4{stroke-dasharray:6.06 6.06;}.cls-5{stroke-dasharray:6.07 6.07;}.cls-6{stroke-dasharray:6.03 6.03;}.cls-7{fill:#f1f1f2;}.cls-10,.cls-12,.cls-23,.cls-24,.cls-8,.cls-9{fill:#231f20;}.cls-10,.cls-12,.cls-22,.cls-9{font-size:8px;}.cls-13,.cls-14,.cls-9{font-family:HelveticaNeueLTPro-Bd, Helvetica Neue LT Pro;}.cls-10{font-family:HelveticaNeueLTPro-Th, Helvetica Neue LT Pro;}.cls-11{letter-spacing:0.02em;}.cls-12,.cls-15,.cls-22{font-family:HelveticaNeueLTPro-Roman, Helvetica Neue LT Pro;}.cls-14,.cls-19{letter-spacing:0em;}.cls-16{font-family:HelveticaNeueLTPro-Cn, Helvetica Neue LT Pro;}.cls-17{letter-spacing:-0.05em;}.cls-18{letter-spacing:0.01em;}.cls-20,.cls-21{stroke-linecap:round;stroke-linejoin:round;}.cls-20{stroke-width:1.5px;}.cls-21{stroke-width:2px;}.cls-23{font-size:5.35px;}.cls-23,.cls-24{font-family:HelveticaNeueLTPro-LtCn, Helvetica Neue LT Pro;}.cls-24{font-size:1.92px;}</style></defs><g id="Layer_2" data-name="Layer 2"><g id="Layer_6" data-name="Layer 6"><rect class="cls-1" width="492.26" height="297.19"/><rect class="cls-2" x="16.38" y="85.88" width="139.77" height="188.61" rx="6"/><rect class="cls-3" x="25.63" y="100.32" width="121.27" height="156.78" rx="6"/><rect class="cls-4" x="25.63" y="100.32" width="121.27" height="156.78" rx="6"/><rect class="cls-3" x="408.61" y="98.94" width="64.53" height="175.54" rx="32.27"/><rect class="cls-5" x="408.61" y="98.94" width="64.53" height="175.54" rx="32.27"/><rect class="cls-2" x="177.71" y="129.79" width="139.77" height="144.7" rx="6"/><rect class="cls-3" x="186.97" y="138.48" width="121.27" height="113.07" rx="6"/><rect class="cls-6" x="186.96" y="138.48" width="121.27" height="113.07" rx="6"/><rect class="cls-7" x="44.56" y="143.14" width="83.41" height="34.12"/><path class="cls-8" d="M127.47,143.64v33.12H45.06V143.64h82.41m1-1H44.06v35.12h84.41V142.64Z"/><path class="cls-1" d="M199.56,242.41a5,5,0,0,1-5-5v-62h44.79v67Z"/><path class="cls-8" d="M238.35,176.41v65H199.56a4,4,0,0,1-4-4v-61h42.79m2-2H193.56v63a6,6,0,0,0,6,6h40.79v-69Z"/><rect class="cls-1" x="239.65" y="175.41" width="46.5" height="67.01"/><path class="cls-8" d="M285.15,176.41v65h-44.5v-65h44.5m2-2h-48.5v69h48.5v-69Z"/><path class="cls-1" d="M286.1,209.84V175.41h64a5,5,0,0,1,5,5v29.43Z"/><path class="cls-8" d="M350.15,176.41a4,4,0,0,1,4,4v28.43h-67V176.41h63m0-2h-65v36.43h71V180.41a6,6,0,0,0-6-6Z"/><rect class="cls-3" x="34.38" y="23.2" width="103.77" height="51.37" rx="6"/><text class="cls-9" transform="translate(67.45 33.4)">Customer</text><text class="cls-9" transform="translate(76.12 268.35)">Node</text><text class="cls-9" transform="translate(210.41 265.54)">Developer Gateway</text><text class="cls-10" transform="translate(361.78 175.19)"><tspan class="cls-11">W</tspan><tspan x="7.3" y="0">ireless link</tspan><tspan class="cls-11" x="12.02" y="9.6">W</tspan><tspan x="19.33" y="9.6">i-FI</tspan></text><text class="cls-10" transform="translate(156.4 192.05)">LoRa</text><text class="cls-12" transform="translate(173.73 189.39) scale(0.58)">®</text><text class="cls-10" transform="translate(152.82 208.91)"><tspan class="cls-11">W</tspan><tspan x="7.3" y="0">ireless</tspan><tspan x="8.84" y="9.6">link</tspan></text><text class="cls-12" transform="translate(142.02 206.43) rotate(-90)">RAK<tspan class="cls-13" x="16" y="0">7204</tspan><tspan x="33.79" y="0" xml:space="preserve"> Node</tspan></text><path class="cls-1" d="M86.76,65.78V38.32H127a5.5,5.5,0,0,1,5.5,5.5V60.28a5.5,5.5,0,0,1-5.5,5.5Z"/><path class="cls-8" d="M127,38.82a5,5,0,0,1,5,5V60.28a5,5,0,0,1-5,5H87.26V38.82H127m0-1H86.26V66.28H127a6,6,0,0,0,6-6V43.82a6,6,0,0,0-6-6Z"/><path class="cls-1" d="M47.77,65.78a5.51,5.51,0,0,1-5.5-5.5V43.82a5.51,5.51,0,0,1,5.5-5.5h40V65.78Z"/><path class="cls-8" d="M87.26,38.82V65.28H47.77a5,5,0,0,1-5-5V43.82a5,5,0,0,1,5-5H87.26m1-1H47.77a6,6,0,0,0-6,6V60.28a6,6,0,0,0,6,6H88.26V37.82Z"/><text class="cls-12" transform="translate(96.06 62.25)">Sensors</text><path class="cls-8" d="M112,48.83a1.23,1.23,0,0,0-1.17.83h-.93L109,47.73a.42.42,0,0,0-.4-.24.41.41,0,0,0-.37.28l-1,3.1-1-5.13a.41.41,0,0,0-.38-.33.41.41,0,0,0-.42.29l-1.23,4.14h-.6a.41.41,0,1,0,0,.82h.91a.41.41,0,0,0,.39-.29l.84-2.8,1,5a.4.4,0,0,0,.37.33h0a.4.4,0,0,0,.39-.28l1.18-3.61.53,1.19a.41.41,0,0,0,.38.24h1.19A1.24,1.24,0,1,0,112,48.83Z"/><path class="cls-8" d="M115.69,50.07a3.12,3.12,0,0,0-1.27-2.41.57.57,0,0,0-.66.94,2,2,0,0,1,.77,1.47,2.11,2.11,0,0,1-.78,1.5.59.59,0,0,0-.13.81.6.6,0,0,0,.47.23.53.53,0,0,0,.34-.11A3.21,3.21,0,0,0,115.69,50.07Z"/><path class="cls-8" d="M115.44,45a.59.59,0,0,0-.81.15.58.58,0,0,0,.15.8,5.4,5.4,0,0,1,2.13,4.06,5.64,5.64,0,0,1-2.14,4.13.58.58,0,0,0-.13.81.57.57,0,0,0,.47.24.6.6,0,0,0,.34-.11,6.74,6.74,0,0,0,2.62-5.07A6.54,6.54,0,0,0,115.44,45Z"/><path class="cls-1" d="M44.56,144.16V120.83a5.5,5.5,0,0,1,5.5-5.5h72.41a5.51,5.51,0,0,1,5.5,5.5v23.33Z"/><path class="cls-8" d="M122.47,115.83a5,5,0,0,1,5,5v22.83H45.06V120.83a5,5,0,0,1,5-5h72.41m0-1H50.06a6,6,0,0,0-6,6v23.83h84.41V120.83a6,6,0,0,0-6-6Z"/><rect class="cls-1" x="44.56" y="224.75" width="83.41" height="18.17" rx="5.5"/><path class="cls-8" d="M122.47,225.25a5,5,0,0,1,5,5v7.16a5,5,0,0,1-5,5H50.06a5,5,0,0,1-5-5v-7.16a5,5,0,0,1,5-5h72.41m0-1H50.06a6,6,0,0,0-6,6v7.16a6,6,0,0,0,6,6h72.41a6,6,0,0,0,6-6v-7.16a6,6,0,0,0-6-6Z"/><path class="cls-1" d="M50.06,199.09a5.5,5.5,0,0,1-5.5-5.5V176.44H128v17.15a5.51,5.51,0,0,1-5.5,5.5Z"/><path class="cls-8" d="M127.47,176.94v16.65a5,5,0,0,1-5,5H50.06a5,5,0,0,1-5-5V176.94h82.41m1-1H44.06v17.65a6,6,0,0,0,6,6h72.41a6,6,0,0,0,6-6V175.94Z"/><text class="cls-12" transform="translate(84.6 131.49)">Sensor</text><path class="cls-8" d="M71.43,127.43a1.47,1.47,0,0,0-1.39,1h-1.1l-1-2.29a.5.5,0,0,0-.48-.29.51.51,0,0,0-.44.34l-1.19,3.68-1.15-6.09a.49.49,0,0,0-.46-.4.48.48,0,0,0-.49.35l-1.47,4.92h-.71a.49.49,0,0,0,0,1H62.6a.5.5,0,0,0,.47-.35l1-3.33,1.13,6a.48.48,0,0,0,.45.39h0a.51.51,0,0,0,.47-.34l1.39-4.3.64,1.41a.48.48,0,0,0,.45.29H70a1.48,1.48,0,1,0,1.39-2Z"/><path class="cls-8" d="M75.85,128.9a3.77,3.77,0,0,0-1.5-2.87.69.69,0,1,0-.79,1.13,2.36,2.36,0,0,1,.92,1.74,2.5,2.5,0,0,1-.93,1.79.68.68,0,0,0-.15,1,.66.66,0,0,0,.55.28.69.69,0,0,0,.41-.13A3.84,3.84,0,0,0,75.85,128.9Z"/><path class="cls-8" d="M75.56,122.93a.69.69,0,1,0-.79,1.12,6.4,6.4,0,0,1,2.54,4.83,6.76,6.76,0,0,1-2.55,4.92.69.69,0,0,0,.41,1.24.66.66,0,0,0,.4-.13,8,8,0,0,0,3.11-6A7.7,7.7,0,0,0,75.56,122.93Z"/><text class="cls-10" transform="translate(63.88 191.33)">SX<tspan class="cls-14" x="9.49" y="0">127x</tspan><tspan class="cls-15" x="27.13" y="0" xml:space="preserve"> HAL</tspan></text><path class="cls-1" d="M194.56,174.93v-22.7a5,5,0,0,1,5-5h81.59a5,5,0,0,1,5,5v22.7Z"/><path class="cls-8" d="M281.15,148.23a4,4,0,0,1,4,4v21.7H195.56v-21.7a4,4,0,0,1,4-4h81.59m0-2H199.56a6,6,0,0,0-6,6v23.7h93.59v-23.7a6,6,0,0,0-6-6Z"/><text class="cls-12" transform="translate(208.58 162.89)">Packet Forwarder</text><text class="cls-12" transform="translate(304.98 189.43)">RPi Wi-Fi<tspan x="1.04" y="9.6">Interface</tspan></text><path class="cls-1" d="M286.1,242.41v-32.5h69v27.5a5,5,0,0,1-5,5Z"/><path class="cls-8" d="M354.15,210.91v26.5a4,4,0,0,1-4,4h-63v-30.5h67m2-2h-71v34.5h65a6,6,0,0,0,6-6v-28.5Z"/><text class="cls-12" transform="translate(299.28 223.93)">RPi Ethernet<tspan x="6.74" y="9.6">Interface</tspan></text><text class="cls-12" transform="translate(199.21 201.88)">RAK<tspan class="cls-13" x="16" y="0">2245</tspan><tspan class="cls-16"><tspan x="7.42" y="9.6">Pi H</tspan><tspan class="cls-17" x="19.11" y="9.6">A</tspan><tspan x="22.67" y="9.6">T</tspan><tspan x="-2.17" y="19.2">Concentr</tspan><tspan class="cls-18" x="24.34" y="19.2">a</tspan><tspan class="cls-19" x="27.97" y="19.2">tor</tspan></tspan></text><text class="cls-12" transform="translate(244.45 201.88)">Raspberry<tspan x="0.74" y="9.6">Pi4 Board</tspan><tspan x="8.22" y="19.2">Stack</tspan></text><line class="cls-20" x1="64.15" y1="74.72" x2="64.15" y2="106.88"/><polygon class="cls-8" points="61.9 75.38 64.15 71.49 66.39 75.38 61.9 75.38"/><polygon class="cls-8" points="61.9 106.22 64.15 110.11 66.39 106.22 61.9 106.22"/><line class="cls-20" x1="110.65" y1="74.72" x2="110.65" y2="106.88"/><polygon class="cls-8" points="108.4 75.38 110.65 71.49 112.89 75.38 108.4 75.38"/><polygon class="cls-8" points="108.4 106.22 110.65 110.11 112.89 106.22 108.4 106.22"/><line class="cls-20" x1="86.26" y1="202.82" x2="86.26" y2="221.02"/><polygon class="cls-8" points="84.02 203.47 86.27 199.59 88.51 203.47 84.02 203.47"/><polygon class="cls-8" points="84.02 220.36 86.27 224.25 88.51 220.36 84.02 220.36"/><line class="cls-21" x1="182.66" y1="197.66" x2="151.2" y2="197.66"/><polygon class="cls-8" points="181.78 194.66 186.97 197.66 181.78 200.65 181.78 194.66"/><polygon class="cls-8" points="152.08 194.66 146.9 197.66 152.08 200.65 152.08 194.66"/><line class="cls-21" x1="404.09" y1="191.69" x2="360.45" y2="192.02"/><polygon class="cls-8" points="403.19 188.71 408.4 191.66 403.24 194.69 403.19 188.71"/><polygon class="cls-8" points="361.31 189.02 356.15 192.05 361.35 195 361.31 189.02"/><text class="cls-10" transform="translate(366.15 238.58)"><tspan class="cls-11">W</tspan><tspan x="7.3" y="0">ired link</tspan><tspan x="2.39" y="9.6">Ethernet</tspan></text><text class="cls-10" transform="translate(379.01 210.84)">or</text><line class="cls-21" x1="404.09" y1="225.41" x2="360.45" y2="225.74"/><polygon class="cls-8" points="403.19 222.42 408.4 225.38 403.24 228.41 403.19 222.42"/><polygon class="cls-8" points="361.31 222.74 356.15 225.77 361.35 228.72 361.31 222.74"/><rect class="cls-8" x="414.47" y="107.32" width="52.83" height="158.79" rx="26.41"/><rect class="cls-1" x="418.96" y="148.06" width="43.84" height="112.8" rx="21.92"/><text class="cls-22" transform="translate(420.42 131.61)">LoRaWAN</text><text class="cls-22" transform="translate(457.61 128.95) scale(0.58)">®</text><text class="cls-22" transform="translate(429.33 141.21)">Server</text><text class="cls-10" transform="translate(423.84 169.03)">examples:</text><text class="cls-23" transform="translate(431.63 208.89)">IoT Ready</text><path class="cls-8" d="M430,201.73a2,2,0,0,1,1.87-2.13,1,1,0,0,1,.95.57l-.57.45a.49.49,0,0,0-.42-.28c-.5,0-.95.58-.95,1.33,0,.5.19.79.66.79a.88.88,0,0,0,.54-.24l.35.54a1.62,1.62,0,0,1-1.07.44A1.31,1.31,0,0,1,430,201.73Z"/><path class="cls-8" d="M433,202.16a1.64,1.64,0,0,1,1.42-1.76.79.79,0,0,1,.71.33h0l.11-.26H436l-.54,2.67h-.69v-.36h0a1.2,1.2,0,0,1-.84.42C433.34,203.2,433,202.83,433,202.16Zm1.76,0,.18-.83a.44.44,0,0,0-.36-.2c-.36,0-.69.39-.69,1,0,.31.11.45.3.45A.74.74,0,0,0,434.77,202.13Z"/><path class="cls-8" d="M435.8,204l.24-.58a.75.75,0,0,0,.34.09.56.56,0,0,0,.54-.28l.07-.12-.58-2.64h.82l.17,1c.05.27.09.63.11.86h0c.1-.23.27-.59.41-.86l.53-1h.87l-1.52,2.67a1.62,1.62,0,0,1-1.49,1A1,1,0,0,1,435.8,204Z"/><path class="cls-8" d="M439.49,202a1.56,1.56,0,0,1,1.56-1.6,1,1,0,0,1,1.11,1.06,2.36,2.36,0,0,1-.09.59h-1.94l.09-.54h1.35l-.22.12a.54.54,0,0,0,0-.19c0-.26-.14-.39-.35-.39s-.68.27-.68.92c0,.46.26.58.55.58a1.42,1.42,0,0,0,.76-.26l.28.57a2.23,2.23,0,0,1-1.24.34A1.1,1.1,0,0,1,439.49,202Z"/><path class="cls-8" d="M443.05,200.47h.69v.42h0a1.59,1.59,0,0,1,1-.49.63.63,0,0,1,.69.7,1.76,1.76,0,0,1,0,.38l-.33,1.66h-.85l.3-1.55a.85.85,0,0,0,0-.24.2.2,0,0,0-.22-.22.93.93,0,0,0-.63.41l-.31,1.6h-.85Z"/><path class="cls-8" d="M446.26,200.47H447l0,.42h0a1.59,1.59,0,0,1,1-.49.63.63,0,0,1,.69.7,1.76,1.76,0,0,1,0,.38l-.33,1.66h-.86l.31-1.55a.85.85,0,0,0,0-.24.2.2,0,0,0-.22-.22.93.93,0,0,0-.63.41l-.31,1.6h-.85Z"/><path class="cls-8" d="M449.12,202a1.55,1.55,0,0,1,1.56-1.6,1,1,0,0,1,1.11,1.06,2.28,2.28,0,0,1-.1.59h-1.94l.09-.54h1.36l-.22.12a1,1,0,0,0,0-.19c0-.26-.14-.39-.35-.39s-.69.27-.69.92a.51.51,0,0,0,.56.58,1.42,1.42,0,0,0,.76-.26l.27.57a2.2,2.2,0,0,1-1.23.34A1.1,1.1,0,0,1,449.12,202Z"/><text class="cls-24" transform="translate(450.71 206.27)">TM</text><path class="cls-8" d="M441.59,182.13a7.15,7.15,0,0,0-1.46.14,7.76,7.76,0,0,0,2.75,15.27,7.42,7.42,0,0,0,4.74-2.8,2.09,2.09,0,0,0,.19-2.45,2.13,2.13,0,0,0-2.16-1.11,2.35,2.35,0,0,0-1.62.91A3.29,3.29,0,0,1,438.4,189a3.15,3.15,0,0,1,2.4-2.29,3.23,3.23,0,0,1,3.34,1.14,2.25,2.25,0,0,0,3.18.29,2.21,2.21,0,0,0,.2-3.18A7.72,7.72,0,0,0,441.59,182.13Z"/><path class="cls-8" d="M441.55,191.49a1.55,1.55,0,1,0-1.56-1.55A1.56,1.56,0,0,0,441.55,191.49Z"/><path class="cls-8" d="M437.09,222.43a4.91,4.91,0,0,1,2.24-2.9,4.76,4.76,0,0,1,2.81-.68,4.93,4.93,0,0,1,4.58,4.19,3.58,3.58,0,0,1,.42-.25,3,3,0,0,1,2.9,0,3.5,3.5,0,0,1,1.85,2.26,2.79,2.79,0,0,1-.11,1.93,2.5,2.5,0,0,1-.21.35c-.09.13-.09.13.05.19a2.26,2.26,0,0,1,1.31,1.71,2.74,2.74,0,0,1-.67,2.24,3,3,0,0,1-1.91,1,4.26,4.26,0,0,1-.5,0H429.4a3.16,3.16,0,0,1-3.1-2.53,3.21,3.21,0,0,1,1-3.11,2.93,2.93,0,0,1,1.45-.72.1.1,0,0,0,.1-.1,3.15,3.15,0,0,1,1.65-2.19,3.11,3.11,0,0,1,1.07-.38c.07,0,.09,0,.11-.11a3,3,0,0,1,2.43-2.28,2.82,2.82,0,0,1,2.64.88A3,3,0,0,1,437.09,222.43Z"/><path class="cls-8" d="M455.54,224.81a6,6,0,0,1-.15,1.32.53.53,0,0,1-.67.38.51.51,0,0,1-.39-.63,4.33,4.33,0,0,0-3.08-5.2.52.52,0,0,1-.38-.62.53.53,0,0,1,.66-.43,5.5,5.5,0,0,1,2.38,1.35,5.4,5.4,0,0,1,1.59,3.23C455.53,224.43,455.53,224.66,455.54,224.81Z"/><path class="cls-8" d="M453.7,224.8a3.19,3.19,0,0,1-.1.8.52.52,0,0,1-.67.4.51.51,0,0,1-.39-.66,2.27,2.27,0,0,0-.18-1.6,2.24,2.24,0,0,0-1.45-1.17.54.54,0,0,1-.42-.4.56.56,0,0,1,.17-.55.43.43,0,0,1,.44-.13,3.36,3.36,0,0,1,2.53,2.58c0,.09,0,.18,0,.27A3.44,3.44,0,0,1,453.7,224.8Z"/><path class="cls-8" d="M426.14,234.18h2.53c.1,0,.13,0,.12.12v.56c0,.08,0,.1-.09.09-.24,0-.47,0-.7,0s-.11,0-.11.11c0,.92,0,1.84,0,2.77,0,.1,0,.13-.13.13s-.42,0-.63,0-.11,0-.11-.11v-2.77c0-.1,0-.13-.13-.13h-.76Z"/><path class="cls-8" d="M445.07,241.55a1.25,1.25,0,0,1-.55-.28,1.18,1.18,0,0,1-.32-1.24,1.09,1.09,0,0,1,.92-.8,1.16,1.16,0,0,1,1.33,1.21,1.12,1.12,0,0,1-.9,1.09l0,0Zm.8-1.16a.66.66,0,0,0,0-.24.55.55,0,0,0-.53-.44.54.54,0,0,0-.55.42.86.86,0,0,0,0,.55.51.51,0,0,0,.49.37.54.54,0,0,0,.56-.35A.65.65,0,0,0,445.87,240.39Z"/><path class="cls-8" d="M446,235.67V237c0,.29,0,.58,0,.88,0,.07,0,.09-.1.09h-.68c-.08,0-.09,0-.09-.09v-3.59c0-.08,0-.1.1-.1h.66a.17.17,0,0,1,.16.09l1.36,2.12.06.1a.21.21,0,0,0,0-.13V234.3c0-.09,0-.12.11-.12h.65c.09,0,.11,0,.11.11,0,1.19,0,2.38,0,3.56,0,.1,0,.11-.12.11h-.66a.16.16,0,0,1-.15-.08c-.45-.72-.91-1.43-1.37-2.15l0-.06Z"/><path class="cls-8" d="M451.61,235.85h.79s.08,0,.08.05a4.82,4.82,0,0,1,0,.76,1.55,1.55,0,0,1-.49.9,1.82,1.82,0,0,1-2.68-.26,2,2,0,0,1,.48-2.9,1.92,1.92,0,0,1,2.36.31s.05.06,0,.12-.32.34-.48.52c0,0-.05.06-.08,0a.9.9,0,0,0-1-.41,1,1,0,0,0-.72.77,1.22,1.22,0,0,0,.36,1.33.85.85,0,0,0,1.25-.17.62.62,0,0,0,.09-.26c0-.07,0-.09-.08-.09h-.68c-.07,0-.09,0-.09-.08a4.34,4.34,0,0,0,0-.51c0-.07,0-.08.09-.08Z"/><path class="cls-8" d="M432.22,236.08v1.77c0,.09,0,.11-.11.11s-.45,0-.67,0c-.07,0-.09,0-.09-.09v-1.32c0-.09,0-.11-.11-.11h-1c-.09,0-.12,0-.12.12,0,.43,0,.86,0,1.3,0,.08,0,.1-.1.1h-.69c-.06,0-.08,0-.08-.08v-3.6c0-.07,0-.1.09-.1h.68c.08,0,.1,0,.1.1,0,.43,0,.87,0,1.3,0,.1,0,.12.12.12h1c.09,0,.12,0,.12-.12v-1.29c0-.08,0-.11.1-.11h.66c.09,0,.11,0,.11.11Z"/><path class="cls-8" d="M439.87,236.07V234.3c0-.09,0-.12.11-.12h.67c.07,0,.09,0,.09.1v1.31c0,.09,0,.11.1.11h1c.09,0,.1,0,.1-.11v-1.3c0-.08,0-.11.1-.11h.68c.07,0,.09,0,.09.09,0,1.21,0,2.41,0,3.61,0,.05,0,.08-.08.08H442c-.07,0-.07,0-.07-.09v-1.32c0-.08,0-.11-.1-.11h-1c-.07,0-.09,0-.09.09v1.33c0,.08,0,.1-.1.1H440c-.09,0-.11,0-.11-.1Z"/><path class="cls-8" d="M432.93,236.07c0-.59,0-1.19,0-1.78,0-.08,0-.11.1-.11h2c.09,0,.11,0,.1.11v.57c0,.08,0,.1-.09.1h-1.1c-.07,0-.1,0-.1.09a5,5,0,0,1,0,.55c0,.08,0,.1.11.09h1c.08,0,.1,0,.1.1a5,5,0,0,0,0,.55c0,.09,0,.12-.11.12h-1c-.11,0-.13,0-.13.13a4.68,4.68,0,0,1,0,.53c0,.07,0,.1.1.1H435c.07,0,.1,0,.1.1a5.42,5.42,0,0,0,0,.57c0,.08,0,.09-.09.09h-2c-.08,0-.1,0-.1-.09C432.94,237.27,432.93,236.67,432.93,236.07Z"/><path class="cls-8" d="M453.22,236.8a2.42,2.42,0,0,0,.6.35.91.91,0,0,0,.61,0,.34.34,0,0,0,.25-.25.33.33,0,0,0-.14-.34,5.12,5.12,0,0,0-.7-.36,1.26,1.26,0,0,1-.67-.67,1.11,1.11,0,0,1,.56-1.3,1.48,1.48,0,0,1,1.15-.08,2.18,2.18,0,0,1,.56.25c.06,0,.06.06,0,.12s-.19.37-.28.56-.06,0-.11,0a1.55,1.55,0,0,0-.6-.22.69.69,0,0,0-.32,0,.27.27,0,0,0-.09.48,1.74,1.74,0,0,0,.5.27,2.9,2.9,0,0,1,.74.44,1.08,1.08,0,0,1-.28,1.72,2.09,2.09,0,0,1-1.61,0,2.27,2.27,0,0,1-.57-.31s-.07-.05,0-.1Z"/><path class="cls-8" d="M437.63,236.45v-1.4c0-.07,0-.1-.1-.1s-.47,0-.7,0c-.08,0-.11,0-.1-.1s0-.38,0-.58,0-.09.09-.09h2.48c.07,0,.08,0,.08.09v.59c0,.08,0,.1-.1.09-.22,0-.45,0-.67,0s-.13,0-.13.12c0,.92,0,1.84,0,2.76,0,.11,0,.13-.14.13s-.42,0-.62,0-.12,0-.11-.12Z"/><path class="cls-8" d="M439.7,240.77l.21-.82a6.06,6.06,0,0,0,.16-.61.1.1,0,0,1,.11-.08c.3,0,.3,0,.38.29s.21.79.31,1.19c0,0,0,.06.05.08.06-.21.11-.42.16-.64l.21-.84s0-.08.07-.08.35,0,.53,0c-.1.37-.2.72-.3,1.07s-.22.74-.32,1.11c0,.07,0,.1-.11.09h-.39c-.08,0-.11,0-.13-.09-.1-.38-.21-.75-.32-1.12-.05,0-.05.08-.06.13l-.28,1c0,.09-.05.12-.14.11h-.4c-.05,0-.07,0-.09-.05-.2-.74-.41-1.47-.62-2.22.18,0,.34,0,.51,0s.07,0,.08.09c.12.46.23.93.34,1.39a0,0,0,0,1,0,0Z"/><path class="cls-8" d="M443.54,236.07c0-.59,0-1.18,0-1.77,0-.09,0-.12.12-.12h.67c.07,0,.08,0,.08.09v3.61c0,.06,0,.08-.07.08-.24,0-.48,0-.71,0s-.09,0-.09-.1C443.54,237.26,443.54,236.67,443.54,236.07Z"/><path class="cls-8" d="M426.94,240.18v1.24c0,.08,0,.12-.1.11h-.34c-.06,0-.08,0-.08-.07v-2.12c0-.06,0-.08.07-.08s0,0,0,0,.3,0,.4,0,.16.22.24.33c.19.31.39.61.58.91l.07.1a.15.15,0,0,0,0-.11v-1.15c0-.08,0-.1.1-.1a2,2,0,0,0,.35,0c.06,0,.07,0,.07.07v2.13c0,.06,0,.08-.07.07h0a1,1,0,0,1-.42,0c-.11,0-.16-.22-.24-.33l-.58-.92-.07-.09Z"/><path class="cls-8" d="M449.54,240.68c0,.25,0,.5,0,.75,0,.08,0,.11-.1.1h-.34c-.07,0-.09,0-.09-.08v-2.1s0-.09.06-.09c.29,0,.58,0,.87,0a.63.63,0,0,1,.61.55.67.67,0,0,1-.39.75c-.07,0,0,.06,0,.09l.73.88h-.4a.39.39,0,0,1-.43-.21c-.14-.2-.3-.39-.45-.59C449.59,240.71,449.58,240.68,449.54,240.68Zm0-.73a1.2,1.2,0,0,1,0,.19c0,.11,0,.13.13.12h.1A.26.26,0,0,0,450,240a.27.27,0,0,0-.25-.3c-.23,0-.23,0-.23.2Z"/><path class="cls-8" d="M453.81,240.19l.71-.86a.17.17,0,0,1,.15-.07c.17,0,.35,0,.55,0l-.53.62-.33.38c-.06.06-.05.09,0,.15l.92,1.05.07.07h-.68c-.05,0-.07,0-.09-.07l-.75-.86s0,.07,0,.1v.75c0,.06,0,.08-.08.08h-.37c-.06,0-.08,0-.08-.07q0-1.07,0-2.13c0-.05,0-.07.08-.07a2.16,2.16,0,0,0,.36,0c.08,0,.09,0,.09.09Z"/><path class="cls-8" d="M431,240.38v-1c0-.08,0-.1.1-.1h1.11c.07,0,.1,0,.09.09s0,.27,0,.35-.22,0-.34,0h-.34c-.06,0-.08,0-.08.08s0,.25,0,.32.2,0,.31,0h.33c.07,0,.09,0,.08.1s.06.28,0,.36-.23,0-.34,0h-.3c-.06,0-.08,0-.08.08s0,.26,0,.34.22,0,.33,0h.36c.06,0,.08,0,.07.08s.05.28,0,.37-.23,0-.35,0h-.83c-.09,0-.1,0-.1-.1Z"/><path class="cls-8" d="M435.35,240.61c0-.26,0-.53,0-.79,0-.08,0-.11-.1-.1h-.37c-.05,0-.08,0-.07-.07v0c0-.12,0-.28,0-.36s.23,0,.35,0h1.12c.09,0,.11,0,.11.11a1.31,1.31,0,0,0,0,.28c0,.06,0,.08-.08.08H436c-.07,0-.09,0-.09.09v1.59c0,.1,0,.13-.11.12h-.32c-.07,0-.1,0-.1-.09C435.35,241.16,435.35,240.88,435.35,240.61Z"/><text class="cls-12" transform="translate(46.92 62.25)">Actuators</text><path class="cls-8" d="M72.64,49.58h-4.2V47.49a.5.5,0,0,0-.27-.45.49.49,0,0,0-.51,0l-3,2.06V46.08h1.71a.48.48,0,0,0,.37-.17.5.5,0,0,0,.13-.39,2.71,2.71,0,1,0-5.42,0,.5.5,0,0,0,.12.39.52.52,0,0,0,.38.17h1.71v3.05l-3-2.06a.51.51,0,0,0-.52,0,.52.52,0,0,0-.27.45v2.09H55.66a.51.51,0,0,0,0,1h4.19v2.09a.52.52,0,0,0,.27.45.53.53,0,0,0,.24.06.49.49,0,0,0,.28-.09l3.51-2.41,3.51,2.41a.48.48,0,0,0,.51,0,.5.5,0,0,0,.27-.45V50.59h4.2a.51.51,0,0,0,0-1ZM62.58,45.07a1.61,1.61,0,0,1,3.14,0H62.58Zm-1.72,6.66V48.44l2.4,1.64Zm6.58,0L65,50.08l2.4-1.64Z"/><polygon class="cls-1" points="126.39 144.66 46.02 144.66 46.02 175.94 126.39 144.66"/><text class="cls-12" transform="translate(52.47 159.7)">LoRaWAN</text><text class="cls-12" transform="translate(89.66 157.04) scale(0.58)">®</text><text class="cls-12" transform="translate(93.39 159.7)"><tspan xml:space="preserve"> Slave /</tspan><tspan x="-21.2" y="9.6">RAK LR</tspan></text><text class="cls-10" transform="translate(72.7 236.39)">SX<tspan class="cls-14" x="9.49" y="0">127x</tspan></text></g></g></svg>