<svg xmlns="http://www.w3.org/2000/svg" viewBox="0 0 962.4519 487.3916"><defs><style>.cls-1{fill:#006ac6;}.cls-2{fill:#da6d15;}.cls-3{fill:#ffe000;}.cls-4{fill:#e83d32;}.cls-5{fill:#fff;}.cls-6,.cls-8{fill:#333;}.cls-7,.cls-9{fill:none;}.cls-7,.cls-8{stroke:#000;}.cls-7,.cls-8,.cls-9{stroke-miterlimit:10;}.cls-9{stroke:#e83d32;}</style></defs><g id="Layer_2" data-name="Layer 2"><g id="Layer_1-2" data-name="Layer 1"><rect class="cls-1" x="24.13037" y="64.6958" width="217" height="370.39111" rx="10.08732"/><rect class="cls-1" x="351.01074" y="286.53872" width="163.82666" height="167.95605" rx="5.90209"/><rect class="cls-1" x="311.3916" y="127.26123" width="88.63037" height="45.6084" rx="2.26219"/><rect class="cls-1" x="619.43506" y="43.82617" width="70.91309" height="101.04346" rx="3.01185"/><rect class="cls-1" x="742.17383" y="14.86963" width="70.91309" height="146.04346" rx="3.62093"/><rect class="cls-2" x="554.39932" y="273.48718" width="61.14746" height="61.14746" rx="2.17567"/><path d="M866.26084,487.3916H8.52188A8.52187,8.52187,0,0,1,0,478.86972V8.52188A8.52187,8.52187,0,0,1,8.52188,0h857.739a8.52187,8.52187,0,0,1,8.52187,8.52188V478.86972A8.52187,8.52187,0,0,1,866.26084,487.3916Zm-856.739-1h855.739a8.52187,8.52187,0,0,0,8.52187-8.52188V9.52188A8.52187,8.52187,0,0,0,865.26084,1H9.52188A8.52187,8.52187,0,0,0,1,9.52188V477.86972A8.52187,8.52187,0,0,0,9.52188,486.3916Z"/><path d="M885.34814,387.1084H874.03271V179.02588h11.31543Zm-10.80413-.5h10.29284V179.52588H874.544Z"/><path d="M885.34814,129.62988H874.03271V82.16309h11.31543Zm-10.80413-.5h10.29284V82.66309H874.544Z"/><path d="M885.34814,73.99951H874.03271V26.53271h11.31543Zm-10.80413-.5h10.29284V27.03271H874.544Z"/><path d="M879.56494,309.73926a5.78272,5.78272,0,1,1,5.7832-5.78223A5.78859,5.78859,0,0,1,879.56494,309.73926Zm0-10.56543a4.78272,4.78272,0,1,0,4.7832,4.7832A4.78812,4.78812,0,0,0,879.56494,299.17383Z"/><path d="M879.56494,256.98193a5.78272,5.78272,0,1,1,5.7832-5.78271A5.789,5.789,0,0,1,879.56494,256.98193Zm0-10.56543a4.78272,4.78272,0,1,0,4.7832,4.78272A4.788,4.788,0,0,0,879.56494,246.4165Z"/><path d="M879.56494,198.64258a5.78272,5.78272,0,1,1,5.7832-5.78272A5.789,5.789,0,0,1,879.56494,198.64258Zm0-10.56543a4.78272,4.78272,0,1,0,4.7832,4.78271A4.788,4.788,0,0,0,879.56494,188.07715Z"/><path d="M879.56494,125.66064a5.78272,5.78272,0,1,1,5.7832-5.78271A5.789,5.789,0,0,1,879.56494,125.66064Zm0-10.56543a4.78272,4.78272,0,1,0,4.7832,4.78272A4.788,4.788,0,0,0,879.56494,115.09521Z"/><path d="M879.56494,99.95508a5.78272,5.78272,0,1,1,5.7832-5.78272A5.789,5.789,0,0,1,879.56494,99.95508Zm0-10.56543a4.78272,4.78272,0,1,0,4.7832,4.78271A4.788,4.788,0,0,0,879.56494,89.38965Z"/><path d="M879.56494,68.90137a5.78247,5.78247,0,1,1,5.7832-5.78223A5.78859,5.78859,0,0,1,879.56494,68.90137Zm0-10.56494a4.78247,4.78247,0,1,0,4.7832,4.78271A4.788,4.788,0,0,0,879.56494,58.33643Z"/><path d="M879.56494,43.1958a5.78247,5.78247,0,1,1,5.7832-5.78223A5.78859,5.78859,0,0,1,879.56494,43.1958Zm0-10.56494a4.78247,4.78247,0,1,0,4.7832,4.78271A4.788,4.788,0,0,0,879.56494,32.63086Z"/><path d="M879.56494,362.80762a5.78272,5.78272,0,1,1,5.7832-5.78321A5.78943,5.78943,0,0,1,879.56494,362.80762Zm0-10.56543a4.78272,4.78272,0,1,0,4.7832,4.78222A4.78791,4.78791,0,0,0,879.56494,352.24219Z"/><path d="M879.56494,435.93457a5.78223,5.78223,0,1,1,5.7832-5.78223A5.78859,5.78859,0,0,1,879.56494,435.93457Zm0-10.56445a4.78223,4.78223,0,1,0,4.7832,4.78222A4.78791,4.78791,0,0,0,879.56494,425.37012Z"/><rect x="241.13037" y="350.6084" width="0.98875" height="1"/><path d="M348.06042,351.6084h-1.96206v-1h1.96206Zm-3.92363,0h-1.96205v-1h1.96205Zm-3.92411,0h-1.96157v-1h1.96157Zm-3.92362,0h-1.96158v-1h1.96158Zm-3.92363,0h-1.96206v-1h1.96206Zm-3.92363,0h-1.962v-1h1.962Zm-3.92411,0h-1.96157v-1h1.96157Zm-3.92362,0H318.6325v-1h1.96157Zm-3.92363,0h-1.962v-1h1.962Zm-3.92363,0h-1.962v-1h1.962Zm-3.92411,0h-1.96157v-1h1.96157Zm-3.92362,0h-1.96157v-1h1.96157Zm-3.92363,0H299.0134v-1h1.96205Zm-3.92362,0h-1.96206v-1h1.96206Zm-3.92411,0h-1.96158v-1h1.96158Zm-3.92363,0h-1.96157v-1h1.96157Zm-3.92363,0h-1.96205v-1h1.96205Zm-3.92362,0h-1.96206v-1h1.96206Zm-3.92363,0h-1.962v-1h1.962Zm-3.92411,0h-1.96157v-1h1.96157Zm-3.92363,0h-1.962v-1h1.962Zm-3.92362,0h-1.96206v-1h1.96206Zm-3.92363,0h-1.96205v-1h1.96205Zm-3.92411,0h-1.96157v-1h1.96157Zm-3.92362,0h-1.96206v-1h1.96206Zm-3.92363,0H248.0048v-1h1.96206Zm-3.92363,0h-1.96205v-1h1.96205Z"/><rect x="350.02199" y="350.6084" width="0.98875" height="1"/><rect x="241.13037" y="386.87012" width="0.98831" height="1"/><path d="M348.013,387.87012h-1.96118v-1H348.013Zm-3.92188,0h-1.96119v-1h1.96119Zm-3.92237,0h-1.9607v-1h1.9607Zm-3.92189,0h-1.9607v-1h1.9607Zm-3.92188,0h-1.96119v-1H332.325Zm-3.92189,0H326.4419v-1h1.96119Zm-3.92237,0H322.52v-1h1.9607Zm-3.92189,0h-1.9607v-1h1.9607Zm-3.92188,0h-1.96119v-1H316.637Zm-3.92189,0h-1.96119v-1h1.96119Zm-3.92237,0H306.832v-1h1.9607Zm-3.92189,0h-1.9607v-1h1.9607Zm-3.92188,0h-1.96119v-1h1.96119Zm-3.92189,0h-1.96119v-1H297.027Zm-3.92237,0H291.144v-1h1.9607Zm-3.92189,0h-1.9607v-1h1.9607Zm-3.92188,0H283.2997v-1h1.96119Zm-3.92189,0h-1.96118v-1H281.339Zm-3.92189,0h-1.96118v-1h1.96118Zm-3.92237,0H271.534v-1h1.9607Zm-3.92188,0h-1.96119v-1h1.96119Zm-3.92189,0h-1.96118v-1H265.651Zm-3.92189,0H259.7679v-1h1.96118Zm-3.92237,0H255.846v-1h1.9607Zm-3.92188,0h-1.96119v-1h1.96119Zm-3.92189,0h-1.96118v-1h1.96118Zm-3.92189,0h-1.96118v-1h1.96118Z"/><rect x="349.97371" y="386.87012" width="0.98831" height="1"/><path d="M434.17383,286.53872h-1v-.55024h1Zm0-12.45407h-1V264.003h-.83692v-.992h1.83692ZM420.33691,264.003h-12v-.992h12Zm-24,0h-12v-.992h12Zm-24,0h-12v-.992h12Zm-16.13037-7.80656h-1V244.29262h1Zm0-23.80766h-1V220.485h1Zm0-23.80767h-1V196.67729h1Zm0-23.80766h-1V172.86963h1Z"/><rect x="241.11963" y="250.76074" width="109.48633" height="1"/><rect x="360.80712" y="250.76074" width="204.74903" height="1"/><rect x="575.75732" y="250.76074" width="14.49023" height="1"/><rect x="600.44873" y="250.76074" width="273.83398" height="1"/><rect x="594.84814" y="120.43066" width="1" height="125.72949"/><rect x="575.75732" y="119.93066" width="43.67773" height="1"/><polygon points="480.25 251.006 479.25 251.006 479.25 119.931 565.556 119.931 565.556 120.931 480.25 120.931 480.25 251.006"/><rect x="514.8374" y="429.65234" width="359.44531" height="1"/><polygon points="785.379 384.479 514.837 384.479 514.837 383.479 784.377 383.479 784.377 356.524 874.283 356.524 874.283 357.524 785.379 357.524 785.379 384.479"/><polygon class="cls-3" points="720.263 351.609 514.837 351.609 514.837 350.609 719.262 350.609 719.262 303.457 873.783 303.457 873.783 304.457 720.263 304.457 720.263 351.609"/><rect class="cls-4" x="241.13037" y="150.06543" width="70.26123" height="1"/><rect class="cls-4" x="400.02197" y="150.06543" width="33.65186" height="1"/><polygon class="cls-4" points="475.055 193.36 433.174 193.36 433.174 71.022 620.435 71.022 620.435 93.435 619.435 93.435 619.435 72.022 434.174 72.022 434.174 192.36 475.055 192.36 475.055 193.36"/><rect class="cls-4" x="485.25586" y="192.35986" width="80.30029" height="1"/><rect class="cls-4" x="575.75732" y="192.35986" width="14.49023" height="1"/><rect class="cls-4" x="600.44873" y="192.35986" width="273.33398" height="1"/><rect x="594.84814" y="120.43066" width="1" height="153.05225"/><rect class="cls-4" x="570.15674" y="70.41309" width="1" height="203.06982"/><rect x="690.34814" y="115.95654" width="51.82568" height="1"/><rect class="cls-4" x="689.84814" y="72.65234" width="52.32568" height="1"/><rect class="cls-4" x="813.08691" y="36.91357" width="61.1958" height="1"/><rect x="813.08691" y="62.61914" width="61.1958" height="1"/><rect class="cls-4" x="813.08691" y="93.67236" width="61.1958" height="1"/><rect x="813.08691" y="119.37793" width="61.1958" height="1"/><path d="M464.95654,286.53872h-1v-5.71808h1Zm0-11.43615h-1v-5.71808h1Zm101.09961-1.88137h-1v-4.83161h.35645v-.4765h.64355Zm-6.64355-4.3551h-6v-.953h6Zm-12,0h-6v-.953h6Zm-12,0h-6v-.953h6Zm-12,0h-6v-.953h6Zm-12,0h-6v-.953h6Zm-12,0h-6v-.953h6Zm-12,0h-6v-.953h6Zm-12,0h-6v-.953h6Z"/><path class="cls-4" d="M475.60571,193.35986a4.506,4.506,0,0,1-.05053-.5,4.60034,4.60034,0,1,1,9.20068,0,4.506,4.506,0,0,1-.05054.5h1.02521c.01471-.165.02533-.33123.02533-.5a5.60034,5.60034,0,1,0-11.20068,0c0,.16877.01062.335.02533.5Z"/><path class="cls-4" d="M566.10669,193.35986a4.506,4.506,0,0,1-.05054-.5,4.60059,4.60059,0,0,1,9.20117,0,4.506,4.506,0,0,1-.05053.5h1.0252c.01471-.165.02533-.33123.02533-.5a5.60059,5.60059,0,0,0-11.20117,0c0,.16877.01062.335.02533.5Z"/><path class="cls-4" d="M590.7981,193.35986a4.506,4.506,0,0,1-.05054-.5,4.60058,4.60058,0,0,1,9.20117,0,4.506,4.506,0,0,1-.05054.5h1.02521c.01471-.165.02533-.33123.02533-.5a5.60058,5.60058,0,0,0-11.20117,0c0,.16877.01062.335.02533.5Z"/><path d="M566.10669,251.76074a4.506,4.506,0,0,1-.05054-.5,4.60059,4.60059,0,0,1,9.20117,0,4.506,4.506,0,0,1-.05053.5h1.0252c.01471-.165.02533-.33124.02533-.5a5.60059,5.60059,0,0,0-11.20117,0c0,.16876.01062.335.02533.5Z"/><path d="M355.70654,247.16016a4.606,4.606,0,0,1,4.60058,4.60058h1a5.60058,5.60058,0,1,0-11.20116,0h1A4.606,4.606,0,0,1,355.70654,247.16016Z"/><path d="M590.7981,251.76074a4.506,4.506,0,0,1-.05054-.5,4.60058,4.60058,0,0,1,9.20117,0,4.506,4.506,0,0,1-.05054.5h1.02521c.01471-.165.02533-.33124.02533-.5a5.60058,5.60058,0,0,0-11.20117,0c0,.16876.01062.335.02533.5Z"/><path d="M566.10669,120.93066a4.506,4.506,0,0,1-.05054-.5,4.60059,4.60059,0,0,1,9.20117,0,4.506,4.506,0,0,1-.05053.5h1.0252c.01471-.165.02533-.33123.02533-.5a5.60059,5.60059,0,0,0-11.20117,0c0,.16877.01062.335.02533.5Z"/><path class="cls-5" d="M74.33813,221.95353H70.67456v-2.84131a5.49126,5.49126,0,0,0,2.96582-.88477,3.76628,3.76628,0,0,0,1.57031-2.5791h3.33936v17.22119H74.33813Z"/><path class="cls-5" d="M81.366,215.05021h8.0249a8.53308,8.53308,0,0,1,2.84131.42334,5.49214,5.49214,0,0,1,2.01855,1.22119,5.29559,5.29559,0,0,1,1.3335,1.91943,6.43169,6.43169,0,0,1,.46094,2.46729,6.30793,6.30793,0,0,1-.42383,2.34228,5.27369,5.27369,0,0,1-1.2085,1.84473A5.53557,5.53557,0,0,1,92.5061,226.477a6.81931,6.81931,0,0,1-2.49218.436H85.85181v5.95654H81.366Zm7.751,8.37353a2.49272,2.49272,0,0,0,1.84424-.648,2.32439,2.32439,0,0,0,.64795-1.71924,2.20288,2.20288,0,0,0-.64795-1.68261,2.5886,2.5886,0,0,0-1.84424-.61035H85.85181v4.66015Z"/><path class="cls-5" d="M104.86743,229.08146H96.91724v-3.86328l7.90039-9.59473h4.1372v10.26807h2.46729v3.18994h-2.46729v3.78808h-4.0874Zm0-3.18994v-5.85694h-.0498l-4.73535,5.80664v.0503Z"/><path class="cls-5" d="M120.17017,233.29337a12.59853,12.59853,0,0,1-3.22754-.38623,7.33164,7.33164,0,0,1-2.49219-1.14648,5.38685,5.38685,0,0,1-1.62012-1.894,5.80574,5.80574,0,0,1-.61035-2.60449h4.436a2.5519,2.5519,0,0,0,1.022,1.94385,4.329,4.329,0,0,0,2.46728.59814,5.52613,5.52613,0,0,0,1.05909-.09961,3.01775,3.01775,0,0,0,.90966-.32421,1.9191,1.9191,0,0,0,.648-.58545,1.47693,1.47693,0,0,0,.249-.85987,1.41182,1.41182,0,0,0-.26172-.87256,2.10642,2.10642,0,0,0-.75977-.59814,6.30165,6.30165,0,0,0-1.22119-.436q-.72363-.18677-1.645-.41113-1.17187-.27393-2.30517-.62305a7.74011,7.74011,0,0,1-2.03125-.94677,4.81253,4.81253,0,0,1-1.458-1.52051,4.3908,4.3908,0,0,1-.56055-2.31787,5.17542,5.17542,0,0,1,.54785-2.45459,4.84936,4.84936,0,0,1,1.49561-1.70752,6.59161,6.59161,0,0,1,2.24316-.99658,11.48758,11.48758,0,0,1,2.791-.32422,10.44947,10.44947,0,0,1,2.7041.33642,6.67194,6.67194,0,0,1,2.19336,1.00928,5.023,5.023,0,0,1,1.49512,1.70752,5.672,5.672,0,0,1,.63574,2.42969h-4.31153a2.19867,2.19867,0,0,0-.87255-1.59473,3.29976,3.29976,0,0,0-1.99366-.54834,3.34747,3.34747,0,0,0-1.86914.46094,1.39482,1.39482,0,0,0-.69775,1.2085,1.17648,1.17648,0,0,0,.26172.78515,2.092,2.092,0,0,0,.75976.53613,7.46813,7.46813,0,0,0,1.25879.41114q.75952.18676,1.75684.41113,1.24584.29883,2.38037.67285a7.43962,7.43962,0,0,1,2.00635.99707,4.70713,4.70713,0,0,1,1.3955,1.56983,4.8516,4.8516,0,0,1,.52344,2.36767,5.31776,5.31776,0,0,1-.561,2.48,5.25781,5.25781,0,0,1-1.54492,1.81934,7.17536,7.17536,0,0,1-2.31788,1.12158A10.3146,10.3146,0,0,1,120.17017,233.29337Z"/><path class="cls-5" d="M133.12915,215.05021h4.41113v14.08105h8v3.73828H133.12915Z"/><path class="cls-5" d="M147.21021,215.05021h4.062v3.28955h-4.062Zm0,5.05908h4.062v12.76025h-4.062Z"/><path class="cls-5" d="M153.04126,224.86954h6.77881v3.48926h-6.77881Z"/><path class="cls-5" d="M161.56519,215.05021h4.062v3.28955h-4.062Zm0,5.05908h4.062v12.76025h-4.062Z"/><path class="cls-5" d="M173.82642,233.26847a7.3953,7.3953,0,0,1-2.80371-.51123,6.227,6.227,0,0,1-3.53907-3.564,7.62889,7.62889,0,0,1,0-5.35791,6.227,6.227,0,0,1,3.53907-3.564,7.94373,7.94373,0,0,1,5.60742,0,6.20331,6.20331,0,0,1,2.14306,1.42041,6.40958,6.40958,0,0,1,1.3711,2.14355,7.62889,7.62889,0,0,1,0,5.35791,6.40473,6.40473,0,0,1-1.3711,2.14356,6.18971,6.18971,0,0,1-2.14306,1.42041A7.399,7.399,0,0,1,173.82642,233.26847Zm-.02491-2.89111a2.26411,2.26411,0,0,0,2.03125-1.05909,5.09718,5.09718,0,0,0,.68506-2.80371,5.16261,5.16261,0,0,0-.68506-2.8164,2.25725,2.25725,0,0,0-2.03125-1.07178,2.22584,2.22584,0,0,0-2.01855,1.07178,5.23349,5.23349,0,0,0-.67334,2.8164,5.16694,5.16694,0,0,0,.67334,2.80371A2.2324,2.2324,0,0,0,173.80151,230.37736Z"/><path class="cls-5" d="M182.00122,220.10929h3.9126v1.74463h.07471a5.149,5.149,0,0,1,1.65722-1.58252,4.51679,4.51679,0,0,1,2.28076-.53613,4.60647,4.60647,0,0,1,1.86914.36181,4.03829,4.03829,0,0,1,1.39551.99658,4.2925,4.2925,0,0,1,.87207,1.52051,6.07128,6.07128,0,0,1,.29932,1.95606v8.29931h-4.0625V225.393a2.55468,2.55468,0,0,0-.49854-1.645,1.80067,1.80067,0,0,0-1.49511-.62305,1.99848,1.99848,0,0,0-1.63233.74756,2.97458,2.97458,0,0,0-.61084,1.94385v7.05322h-4.062Z"/><path class="cls-5" d="M91.721,244.957h8.59814a8.04237,8.04237,0,0,1,2.41748.32373,5.41043,5.41043,0,0,1,1.74463.89746,4.193,4.193,0,0,1,1.54492,3.41406,3.50888,3.50888,0,0,1-.648,2.19336,4.0281,4.0281,0,0,1-1.84423,1.2959v.0747a4.41959,4.41959,0,0,1,2.33056,1.60743,4.49429,4.49429,0,0,1,.85987,2.7539,5.33028,5.33028,0,0,1-.47364,2.33057,4.57583,4.57583,0,0,1-1.3457,1.65723,6.925,6.925,0,0,1-4.38672,1.271H91.721Zm7.95019,7.05273a2.45879,2.45879,0,0,0,1.54541-.46094,1.78235,1.78235,0,0,0,.02491-2.6416,2.39592,2.39592,0,0,0-1.54542-.46143H96.08228v3.564Zm.34912,7.22754a2.44123,2.44123,0,0,0,1.71924-.57324,1.96546,1.96546,0,0,0,.623-1.52,1.91588,1.91588,0,0,0-.68506-1.60742,2.687,2.687,0,0,0-1.707-.53614H96.08228v4.23682Z"/><path class="cls-5" d="M112.08228,263.1005a5.95263,5.95263,0,0,1-1.75733-.24951,3.75374,3.75374,0,0,1-1.38281-.74756,3.46951,3.46951,0,0,1-.89746-1.22119,4.04843,4.04843,0,0,1-.32373-1.66992,3.63615,3.63615,0,0,1,.38623-1.75684,3.329,3.329,0,0,1,1.05908-1.17139,5.26849,5.26849,0,0,1,1.55762-.71045,12.77236,12.77236,0,0,1,1.88183-.37353,12.32225,12.32225,0,0,0,2.51709-.49854.956.956,0,0,0,.72266-.92236,1.282,1.282,0,0,0-.41113-.99658,1.95143,1.95143,0,0,0-1.3335-.374,2.21528,2.21528,0,0,0-1.47021.42382,1.82609,1.82609,0,0,0-.59815,1.22119h-3.73828a4.22156,4.22156,0,0,1,.39844-1.69482,4.076,4.076,0,0,1,1.084-1.39551,5.26238,5.26238,0,0,1,1.78223-.94726,8.15542,8.15542,0,0,1,2.51709-.34912,9.77155,9.77155,0,0,1,2.44238.26171,4.85281,4.85281,0,0,1,1.69482.78516,3.63588,3.63588,0,0,1,1.2212,1.52051,5.29719,5.29719,0,0,1,.39892,2.11816v6.43018a6.498,6.498,0,0,0,.08692,1.20849.88431.88431,0,0,0,.36132.61084v.17432H116.344a1.68679,1.68679,0,0,1-.24951-.56055,7.4012,7.4012,0,0,1-.17431-.85986h-.04981a4.221,4.221,0,0,1-1.458,1.271A4.94208,4.94208,0,0,1,112.08228,263.1005Zm1.29589-2.59229a2.711,2.711,0,0,0,1.85645-.623,2.10848,2.10848,0,0,0,.71045-1.66944v-1.5205a5.922,5.922,0,0,1-.93457.36132q-.53613.1626-1.15869.31153a5.21063,5.21063,0,0,0-1.69483.63574,1.22894,1.22894,0,0,0-.52344,1.084,1.20707,1.20707,0,0,0,.49854,1.09668A2.24226,2.24226,0,0,0,113.37817,260.50821Z"/><path class="cls-5" d="M126.61157,262.9257a7.60213,7.60213,0,0,1-1.63232-.16211,3.38051,3.38051,0,0,1-1.28369-.56055,2.57815,2.57815,0,0,1-.84717-1.084,4.27072,4.27072,0,0,1-.29932-1.70751V252.558h-1.69482v-2.542h1.69482v-4.0376H126.512v4.0376h2.31787v2.542H126.512v5.98144a1.10326,1.10326,0,0,0,.38623.99708,1.887,1.887,0,0,0,1.03418.249q.27393,0,.52344-.01221.249-.01245.374-.01269v2.96582a6.02359,6.02359,0,0,1-.835.1372A12.99556,12.99556,0,0,1,126.61157,262.9257Z"/><path class="cls-5" d="M135.23462,262.9257a7.60222,7.60222,0,0,1-1.63233-.16211,3.38065,3.38065,0,0,1-1.28369-.56055,2.57813,2.57813,0,0,1-.84716-1.084,4.27072,4.27072,0,0,1-.29932-1.70751V252.558h-1.69483v-2.542h1.69483v-4.0376H135.135v4.0376h2.31787v2.542H135.135v5.98144a1.10326,1.10326,0,0,0,.38623.99708,1.88692,1.88692,0,0,0,1.03418.249q.27393,0,.52344-.01221.249-.01245.374-.01269v2.96582a6.02359,6.02359,0,0,1-.835.1372A12.99556,12.99556,0,0,1,135.23462,262.9257Z"/><path class="cls-5" d="M145.02954,263.1503a7.56389,7.56389,0,0,1-2.84131-.51123,6.04027,6.04027,0,0,1-2.14306-1.42041,6.30246,6.30246,0,0,1-1.3462-2.15576,7.52028,7.52028,0,0,1-.47314-2.69189,7.347,7.347,0,0,1,.47314-2.65381,6.33421,6.33421,0,0,1,1.3462-2.14356,6.21018,6.21018,0,0,1,2.06836-1.42041,7.26316,7.26316,0,0,1,5.12158-.0874,6.11787,6.11787,0,0,1,1.90674,1.17139,6.359,6.359,0,0,1,1.707,2.6543,10.32336,10.32336,0,0,1,.53564,3.55127h-9.17139a3.74759,3.74759,0,0,0,.89747,2.04394,2.5618,2.5618,0,0,0,1.96875.74756,2.39905,2.39905,0,0,0,1.3208-.33643,2.14506,2.14506,0,0,0,.79736-.93457h3.96289a4.72467,4.72467,0,0,1-.74756,1.65723,5.31154,5.31154,0,0,1-1.396,1.3584,6.02446,6.02446,0,0,1-1.78174.87207A7.58277,7.58277,0,0,1,145.02954,263.1503Zm2.24317-8.125a3.00726,3.00726,0,0,0-.77295-1.81933,2.18713,2.18713,0,0,0-1.64454-.67285,2.32494,2.32494,0,0,0-1.79443.67285,3.48984,3.48984,0,0,0-.82275,1.81933Z"/><path class="cls-5" d="M152.75562,250.016h3.88769v1.99365h.07471a4.8044,4.8044,0,0,1,1.4956-1.66943,3.63363,3.63363,0,0,1,1.99366-.52344,2.19406,2.19406,0,0,1,.79736.09961v3.48926H160.905a3.23758,3.23758,0,0,0-4.0874,3.63867v5.73193h-4.062Z"/><path class="cls-5" d="M162.9729,263.82316h1.396a1.8984,1.8984,0,0,0,1.2832-.34912,1.27528,1.27528,0,0,0,.38623-.99659,3.5222,3.5222,0,0,0-.18652-1.022q-.1875-.5984-.58594-1.62012l-3.76318-9.81933h4.28662l1.71972,5.4331q.14942.47388.28662.99707.13623.523.26172.94678.12452.49878.249.99707h.0498q.09961-.498.22461-.99707.09888-.42335.23633-.94678.137-.52368.28662-.99707l1.66992-5.4331h4.0625l-4.41113,12.93457a10.24,10.24,0,0,1-.82276,1.894,4.67774,4.67774,0,0,1-1.00927,1.24609,3.48866,3.48866,0,0,1-1.28369.68555,6.05591,6.05591,0,0,1-1.69434.21192H162.9729Z"/><path class="cls-5" d="M105.01733,293.96671a19.512,19.512,0,0,1-1.03418-2.54248,19.97163,19.97163,0,0,1-.71044-2.87842,18.95179,18.95179,0,0,1-.26172-3.21484,21.8932,21.8932,0,0,1,.26172-3.43945,24.03374,24.03374,0,0,1,.69775-3.10254,18.8644,18.8644,0,0,1,1.022-2.6919,17.42127,17.42127,0,0,1,1.23389-2.20556h3.439a25.19686,25.19686,0,0,0-1.88134,4.95947,24.756,24.756,0,0,0-.76026,6.48,21.79553,21.79553,0,0,0,.22412,3.20264,23.79124,23.79124,0,0,0,.59815,2.85351,24.44517,24.44517,0,0,0,.84765,2.52979q.47314,1.18286.97168,2.20556h-3.41406A19.27191,19.27191,0,0,1,105.01733,293.96671Z"/><path class="cls-5" d="M111.30981,274.86368H115.721v14.08106h8V292.683H111.30981Z"/><path class="cls-5" d="M125.39087,274.86368h13.25879v3.71338H129.802v3.61377h7.40186v3.564H129.802V292.683h-4.41113Z"/><path class="cls-5" d="M140.3938,274.86368h8.0249a8.53329,8.53329,0,0,1,2.84131.42334,5.49227,5.49227,0,0,1,2.01855,1.22119,5.29572,5.29572,0,0,1,1.3335,1.91944,6.43164,6.43164,0,0,1,.46094,2.46728,6.308,6.308,0,0,1-.42383,2.34229,5.27365,5.27365,0,0,1-1.2085,1.84473,5.53582,5.53582,0,0,1-1.90673,1.20849,6.81936,6.81936,0,0,1-2.49219.436h-4.16211V292.683H140.3938Zm7.751,8.37354a2.49271,2.49271,0,0,0,1.84423-.64795A2.32439,2.32439,0,0,0,150.637,280.87a2.20292,2.20292,0,0,0-.64795-1.68262,2.58864,2.58864,0,0,0-1.84423-.61035h-3.26514v4.66016Z"/><path class="cls-5" d="M156.61792,293.7548a24.90834,24.90834,0,0,0,.835-2.6543,25.81042,25.81042,0,0,0,.57324-2.99072,25.29513,25.29513,0,0,0,.21192-3.35205,24.26329,24.26329,0,0,0-.21192-3.28955,21.94286,21.94286,0,0,0-.58545-2.89112,22.74107,22.74107,0,0,0-.84765-2.50488q-.47314-1.15869-.99658-2.18066h3.439a20.86408,20.86408,0,0,1,1.209,2.11865,18.66023,18.66023,0,0,1,1.03418,2.542,20.16016,20.16016,0,0,1,.71045,2.92822,19.78411,19.78411,0,0,1,.26172,3.27735,21.09426,21.09426,0,0,1-.26172,3.36474,23.86154,23.86154,0,0,1-.69775,3.06543,19.802,19.802,0,0,1-1.022,2.69141,16.75545,16.75545,0,0,1-1.25879,2.24316h-3.41406Q156.14429,295.00041,156.61792,293.7548Z"/><path class="cls-5" d="M395.35522,345.15177h5.93165l2.168,7.80078q.12451.4248.28614,1.10938.1626.68554.33691,1.333.19922.77344.39844,1.62012h.0498q.17432-.84667.374-1.62012.14941-.64746.32422-1.333.17431-.68556.29882-1.10938l2.19336-7.80078H413.698v17.81934h-4.03809v-9.832q0-.58446.02539-1.18359.0249-.69726.04981-1.52051h-.04981q-.19921.77344-.34863,1.4209-.126.57421-.26172,1.10938-.1377.53613-.21191.78515l-2.56739,9.22071H402.657l-2.542-9.19629c-.0498-.166-.124-.43164-.22461-.79688q-.14941-.54784-.27344-1.12207-.14941-.64746-.32422-1.4209h-.0498q0,.82324.02441,1.52051.02491.59911.03809,1.19629c.00781.39941.0127.68945.0127.87207v8.94727h-3.9629Z"/><path class="cls-5" d="M419.65405,363.29532a5.94911,5.94911,0,0,1-1.75683-.249,3.74746,3.74746,0,0,1-1.38282-.748,3.472,3.472,0,0,1-.89746-1.2207,4.05,4.05,0,0,1-.32422-1.66992,3.6348,3.6348,0,0,1,.38672-1.75684,3.32912,3.32912,0,0,1,1.0586-1.17187,5.27328,5.27328,0,0,1,1.55761-.71,12.78357,12.78357,0,0,1,1.88184-.374,12.33806,12.33806,0,0,0,2.51758-.498.95611.95611,0,0,0,.72265-.92285,1.28253,1.28253,0,0,0-.41113-.9961,1.94943,1.94943,0,0,0-1.334-.374,2.212,2.212,0,0,0-1.46973.42383,1.82518,1.82518,0,0,0-.59863,1.2207H415.866a4.22758,4.22758,0,0,1,.39843-1.69434,4.08318,4.08318,0,0,1,1.084-1.3955,5.24517,5.24517,0,0,1,1.78223-.94727,8.16008,8.16008,0,0,1,2.51757-.34961,9.79962,9.79962,0,0,1,2.44239.26172,4.84994,4.84994,0,0,1,1.69433.78516,3.643,3.643,0,0,1,1.22168,1.5205,5.30043,5.30043,0,0,1,.39844,2.11817v6.43066a6.53627,6.53627,0,0,0,.08691,1.208.88889.88889,0,0,0,.36133.61133v.17383h-3.9375a1.68242,1.68242,0,0,1-.249-.56055,7.383,7.383,0,0,1-.17481-.85938h-.0498a4.22042,4.22042,0,0,1-1.458,1.27051A4.94074,4.94074,0,0,1,419.65405,363.29532Zm1.2959-2.59179a2.71167,2.71167,0,0,0,1.85645-.623,2.10916,2.10916,0,0,0,.71093-1.66992V356.89a5.86416,5.86416,0,0,1-.93457.36133q-.53613.1626-1.15918.31152a5.22982,5.22982,0,0,0-1.69433.63574,1.229,1.229,0,0,0-.52344,1.084,1.20733,1.20733,0,0,0,.49805,1.09668A2.24346,2.24346,0,0,0,420.95,360.70353Z"/><path class="cls-5" d="M434.8064,363.37052a7.38187,7.38187,0,0,1-4.46094-1.209,4.16382,4.16382,0,0,1-1.74512-3.32715h3.83887a2.06289,2.06289,0,0,0,.72266,1.4209,2.53955,2.53955,0,0,0,1.61914.47265,2.811,2.811,0,0,0,1.458-.32324,1.04185,1.04185,0,0,0,.53614-.94727.90618.90618,0,0,0-.27442-.68554,2.02163,2.02163,0,0,0-.72265-.42383,5.466,5.466,0,0,0-1.03418-.249q-.58594-.08643-1.209-.21192-.82178-.14941-1.64453-.36133A5.02154,5.02154,0,0,1,430.408,356.89a3.15461,3.15461,0,0,1-1.05957-1.13379,3.72,3.72,0,0,1-.39844-1.832,3.53684,3.53684,0,0,1,.43555-1.76953,3.80529,3.80529,0,0,1,1.18457-1.2832,5.57827,5.57827,0,0,1,1.75683-.77246,8.44185,8.44185,0,0,1,2.13086-.26172,6.78614,6.78614,0,0,1,4.16211,1.09668,3.97456,3.97456,0,0,1,1.59473,2.99023h-3.73828a1.51991,1.51991,0,0,0-.66016-1.18359,2.7387,2.7387,0,0,0-1.38379-.31153,2.53936,2.53936,0,0,0-1.25879.28711.94706.94706,0,0,0-.51074.88477.66322.66322,0,0,0,.249.54785,2.1245,2.1245,0,0,0,.67382.33691,7.54156,7.54156,0,0,0,.98438.23633q.55958.09962,1.1582.19922.84667.14942,1.707.36133a5.3033,5.3033,0,0,1,1.57032.66016,3.52014,3.52014,0,0,1,1.15917,1.209,3.87061,3.87061,0,0,1,.44825,1.98144,3.6561,3.6561,0,0,1-1.64453,3.165,5.8501,5.8501,0,0,1-1.84473.79786A9.33079,9.33079,0,0,1,434.8064,363.37052Z"/><path class="cls-5" d="M446.61987,363.12052a7.57574,7.57574,0,0,1-1.63281-.16211,3.3706,3.3706,0,0,1-1.2832-.56055,2.57535,2.57535,0,0,1-.84766-1.084,4.27729,4.27729,0,0,1-.29883-1.707v-6.85352h-1.69531v-2.542h1.69531v-4.03809h3.96289v4.03809h2.31739v2.542h-2.31739v5.98145a1.10367,1.10367,0,0,0,.38575.99707,1.88918,1.88918,0,0,0,1.03418.249c.18261,0,.35742-.00391.52343-.01269.166-.00782.291-.0127.374-.0127v2.96582a5.98211,5.98211,0,0,1-.835.1377A13.01113,13.01113,0,0,1,446.61987,363.12052Z"/><path class="cls-5" d="M456.41479,363.34513a7.57626,7.57626,0,0,1-2.84179-.51074,6.05039,6.05039,0,0,1-2.14258-1.4209,6.30174,6.30174,0,0,1-1.34668-2.15528,7.52468,7.52468,0,0,1-.47266-2.69238,7.34612,7.34612,0,0,1,.47266-2.65332,6.32585,6.32585,0,0,1,1.34668-2.14355,6.20646,6.20646,0,0,1,2.06836-1.4209,7.26529,7.26529,0,0,1,5.12109-.08692,6.12468,6.12468,0,0,1,1.90723,1.1709,6.36514,6.36514,0,0,1,1.707,2.6543,10.33971,10.33971,0,0,1,.53516,3.55176h-9.1709a3.74566,3.74566,0,0,0,.89746,2.04394,2.56081,2.56081,0,0,0,1.96875.74707,2.4025,2.4025,0,0,0,1.32031-.33593,2.14289,2.14289,0,0,0,.79785-.93457h3.96289a4.73871,4.73871,0,0,1-.748,1.65722,5.31713,5.31713,0,0,1-1.39551,1.3584,6.04481,6.04481,0,0,1-1.78223.87207A7.57985,7.57985,0,0,1,456.41479,363.34513Zm2.24317-8.125a3.00887,3.00887,0,0,0-.77344-1.81934,2.18637,2.18637,0,0,0-1.64453-.67285,2.32384,2.32384,0,0,0-1.79395.67285,3.4884,3.4884,0,0,0-.82324,1.81934Z"/><path class="cls-5" d="M464.14038,350.21134h3.8877v1.99316h.07519a4.80153,4.80153,0,0,1,1.49512-1.66894,3.63124,3.63124,0,0,1,1.99414-.52344,2.19086,2.19086,0,0,1,.79687.09961V353.601h-.09961a3.237,3.237,0,0,0-4.08691,3.63867v5.73145h-4.0625Z"/><path class="cls-5" d="M400.365,393.27677a8.986,8.986,0,0,1-3.58887-.69727,8.2512,8.2512,0,0,1-2.77929-1.93164,8.67814,8.67814,0,0,1-1.79395-2.92871,10.42066,10.42066,0,0,1-.63574-3.68847,10.727,10.727,0,0,1,.623-3.70118,8.7182,8.7182,0,0,1,1.76953-2.95312,8.15258,8.15258,0,0,1,2.7666-1.95606,8.903,8.903,0,0,1,3.61328-.71093,9.07234,9.07234,0,0,1,2.85352.42382,7.56465,7.56465,0,0,1,2.23144,1.14649,6.2284,6.2284,0,0,1,1.83106,2.14355,7.93873,7.93873,0,0,1,.835,2.76661h-4.41114a3.228,3.228,0,0,0-3.36425-2.81641,3.989,3.989,0,0,0-1.89454.42383,3.67868,3.67868,0,0,0-1.32031,1.18359,5.5022,5.5022,0,0,0-.78515,1.79395,9.17769,9.17769,0,0,0-.26172,2.25586,8.10138,8.10138,0,0,0,.29882,2.25586,5.458,5.458,0,0,0,.86036,1.78125,4.09571,4.09571,0,0,0,1.3457,1.17187,3.69325,3.69325,0,0,0,1.78125.42383,3.41758,3.41758,0,0,0,2.40527-.835,3.30531,3.30531,0,0,0,1.05957-2.13086h4.41114a6.97988,6.97988,0,0,1-.66016,2.5166,6.872,6.872,0,0,1-1.4834,2.04394,7.00186,7.00186,0,0,1-2.42969,1.50782A9.47953,9.47953,0,0,1,400.365,393.27677Z"/><path class="cls-5" d="M416.04077,393.27677a7.40481,7.40481,0,0,1-2.80371-.51074,6.23346,6.23346,0,0,1-3.53906-3.56446,7.63475,7.63475,0,0,1,0-5.35742,6.23348,6.23348,0,0,1,3.53906-3.56445,7.95086,7.95086,0,0,1,5.60742,0,6.20654,6.20654,0,0,1,2.14356,1.4209,6.39993,6.39993,0,0,1,1.37109,2.14355,7.63475,7.63475,0,0,1,0,5.35742,6.4,6.4,0,0,1-1.37109,2.14356,6.19293,6.19293,0,0,1-2.14356,1.4209A7.40478,7.40478,0,0,1,416.04077,393.27677Zm-.02441-2.89063a2.2656,2.2656,0,0,0,2.03125-1.05957,5.10152,5.10152,0,0,0,.68457-2.80371,5.16818,5.16818,0,0,0-.68457-2.8164,2.25894,2.25894,0,0,0-2.03125-1.07129,2.22645,2.22645,0,0,0-2.01856,1.07129,5.23017,5.23017,0,0,0-.67383,2.8164,5.16253,5.16253,0,0,0,.67383,2.80371A2.2328,2.2328,0,0,0,416.01636,390.38614Z"/><path class="cls-5" d="M424.21558,380.11759h3.91211v1.74512h.07519a5.14069,5.14069,0,0,1,1.65723-1.583,4.51486,4.51486,0,0,1,2.28027-.53613,4.59507,4.59507,0,0,1,1.86914.3623,4.02177,4.02177,0,0,1,1.39551.99609,4.2925,4.2925,0,0,1,.87207,1.52051,6.058,6.058,0,0,1,.2998,1.95606v8.2998h-4.0625v-7.47656a2.55344,2.55344,0,0,0-.499-1.64551,1.79942,1.79942,0,0,0-1.49512-.623,1.99586,1.99586,0,0,0-1.63183.748,2.97334,2.97334,0,0,0-.61133,1.94336v7.05371h-4.06152Z"/><path class="cls-5" d="M443.2312,393.02775a7.63817,7.63817,0,0,1-1.63281-.16211,3.38584,3.38584,0,0,1-1.2832-.56055,2.57533,2.57533,0,0,1-.84766-1.084,4.28239,4.28239,0,0,1-.29883-1.708v-6.85352h-1.69531v-2.542h1.69531v-4.03711h3.96289v4.03711H445.449v2.542h-2.31738V388.641a1.10256,1.10256,0,0,0,.38574.99707,1.88922,1.88922,0,0,0,1.03418.249c.18262,0,.35743-.00391.52344-.01172.166-.00879.291-.01269.374-.01269v2.96582a6.01381,6.01381,0,0,1-.835.13672A12.97932,12.97932,0,0,1,443.2312,393.02775Z"/><path class="cls-5" d="M446.91968,380.11759h3.88769v1.99414h.07422a4.80731,4.80731,0,0,1,1.4961-1.66992,3.63611,3.63611,0,0,1,1.99316-.52344,2.19711,2.19711,0,0,1,.79785.09961v3.48926h-.09961a3.23817,3.23817,0,0,0-4.08789,3.63867v5.73242h-4.06152Z"/><path class="cls-5" d="M462.47046,393.27677a7.40481,7.40481,0,0,1-2.80371-.51074,6.23338,6.23338,0,0,1-3.53906-3.56446,7.6346,7.6346,0,0,1,0-5.35742,6.23341,6.23341,0,0,1,3.53906-3.56445,7.95086,7.95086,0,0,1,5.60742,0,6.20641,6.20641,0,0,1,2.14355,1.4209,6.3998,6.3998,0,0,1,1.3711,2.14355,7.63475,7.63475,0,0,1,0,5.35742,6.39985,6.39985,0,0,1-1.3711,2.14356,6.1928,6.1928,0,0,1-2.14355,1.4209A7.40481,7.40481,0,0,1,462.47046,393.27677Zm-.02442-2.89063a2.26558,2.26558,0,0,0,2.03125-1.05957,5.10144,5.10144,0,0,0,.68458-2.80371,5.16809,5.16809,0,0,0-.68458-2.8164,2.25892,2.25892,0,0,0-2.03125-1.07129,2.22643,2.22643,0,0,0-2.01855,1.07129,5.23017,5.23017,0,0,0-.67383,2.8164,5.16253,5.16253,0,0,0,.67383,2.80371A2.23278,2.23278,0,0,0,462.446,390.38614Z"/><path class="cls-5" d="M470.67065,375.059H474.782v17.81933h-4.11133Z"/><path class="cls-5" d="M335.08423,145.72892a5.39995,5.39995,0,0,1-2.16016-.42041,4.95239,4.95239,0,0,1-1.67334-1.1626,5.21464,5.21464,0,0,1-1.08008-1.76318,6.27512,6.27512,0,0,1-.38232-2.22022,6.43983,6.43983,0,0,1,.375-2.228,5.2517,5.2517,0,0,1,1.06494-1.77783,4.90795,4.90795,0,0,1,1.66553-1.17822,5.36657,5.36657,0,0,1,2.17578-.42725,5.46251,5.46251,0,0,1,1.71777.25489,4.5497,4.5497,0,0,1,1.34278.69043,3.74134,3.74134,0,0,1,1.10254,1.29,4.7879,4.7879,0,0,1,.50293,1.66552h-2.65577a1.9429,1.9429,0,0,0-2.02539-1.69531,2.39769,2.39769,0,0,0-1.14013.25488,2.21805,2.21805,0,0,0-.79541.71289,3.32611,3.32611,0,0,0-.47266,1.08008,5.52966,5.52966,0,0,0-.15771,1.35791,4.869,4.869,0,0,0,.18017,1.35791,3.29754,3.29754,0,0,0,.51758,1.07276,2.47517,2.47517,0,0,0,.81055.70507,2.22242,2.22242,0,0,0,1.07275.25489,2.05781,2.05781,0,0,0,1.44775-.50244,1.9918,1.9918,0,0,0,.6377-1.28272h2.65527a4.19405,4.19405,0,0,1-.39746,1.51514,4.13406,4.13406,0,0,1-.89258,1.23047,4.21558,4.21558,0,0,1-1.46289.90771A5.70782,5.70782,0,0,1,335.08423,145.72892Z"/><path class="cls-5" d="M343.24634,145.71378a2.52472,2.52472,0,0,1-2.01758-.7876,3.05887,3.05887,0,0,1-.68311-2.07812v-5.041h2.43067v4.53076a1.46053,1.46053,0,0,0,.28515.96778,1.07511,1.07511,0,0,0,.87012.33789,1.22434,1.22434,0,0,0,.99024-.42774,1.676,1.676,0,0,0,.36035-1.11767v-4.291h2.44531v7.68164h-2.34033v-.94531h-.04492a3.05475,3.05475,0,0,1-.95264.87012A2.70858,2.70858,0,0,1,343.24634,145.71378Z"/><path class="cls-5" d="M349.09741,137.807h2.34082v1.2002h.04492a2.8917,2.8917,0,0,1,.90039-1.00537,2.19016,2.19016,0,0,1,1.2002-.31494,1.31818,1.31818,0,0,1,.48.06005v2.1001h-.06006a1.94913,1.94913,0,0,0-2.46045,2.19092v3.45068h-2.4458Z"/><path class="cls-5" d="M354.844,137.807h2.34082v1.2002h.04493a2.8916,2.8916,0,0,1,.90039-1.00537,2.19013,2.19013,0,0,1,1.20019-.31494,1.31818,1.31818,0,0,1,.48.06005v2.1001h-.06006a1.94913,1.94913,0,0,0-2.46045,2.19092v3.45068H354.844Z"/><path class="cls-5" d="M364.19116,145.71378a4.55064,4.55064,0,0,1-1.71045-.30762,3.641,3.641,0,0,1-1.29-.855,3.7969,3.7969,0,0,1-.81054-1.29785,4.52718,4.52718,0,0,1-.28467-1.6206,4.42118,4.42118,0,0,1,.28467-1.59766,3.81216,3.81216,0,0,1,.81054-1.29053,3.738,3.738,0,0,1,1.24512-.855,4.37635,4.37635,0,0,1,3.0835-.05273,3.69,3.69,0,0,1,1.14746.70508,3.82687,3.82687,0,0,1,1.02783,1.59814,6.2121,6.2121,0,0,1,.32275,2.1377h-5.52148a2.25566,2.25566,0,0,0,.54,1.23046,1.541,1.541,0,0,0,1.18555.4502,1.4415,1.4415,0,0,0,.79492-.20264,1.29694,1.29694,0,0,0,.48047-.5625h2.38525a2.83366,2.83366,0,0,1-.4502.99756,3.19257,3.19257,0,0,1-.83984.81787,3.63923,3.63923,0,0,1-1.07275.52491A4.561,4.561,0,0,1,364.19116,145.71378Zm1.35059-4.89111a1.8089,1.8089,0,0,0-.46533-1.09522,1.31665,1.31665,0,0,0-.99024-.40527,1.39906,1.39906,0,0,0-1.08008.40527,2.094,2.094,0,0,0-.49511,1.09522Z"/><path class="cls-5" d="M368.842,137.807h2.356v1.04981h.04492a3.10234,3.10234,0,0,1,.99756-.95264,2.723,2.723,0,0,1,1.37305-.32226,2.77059,2.77059,0,0,1,1.125.21728,2.43579,2.43579,0,0,1,.84033.6001,2.58129,2.58129,0,0,1,.5249.91553,3.65658,3.65658,0,0,1,.18018,1.17773v4.99609h-2.44532v-4.501a1.53717,1.53717,0,0,0-.30029-.99024,1.08446,1.08446,0,0,0-.90039-.375,1.20317,1.20317,0,0,0-.98242.44971,1.7918,1.7918,0,0,0-.36768,1.17041v4.24609H368.842Z"/><path class="cls-5" d="M380.29028,145.57853a4.58359,4.58359,0,0,1-.98291-.09717,2.03952,2.03952,0,0,1-.77246-.33789,1.553,1.553,0,0,1-.51025-.65235,2.57385,2.57385,0,0,1-.18018-1.02783v-4.126h-1.02V137.807h1.02v-2.43066h2.38574V137.807h1.39551v1.53028h-1.39551v3.60058a.66426.66426,0,0,0,.23243.6001,1.13672,1.13672,0,0,0,.623.15039q.16481,0,.31494-.00781c.09961-.00488.17481-.00733.2251-.00733v1.78565a3.6799,3.6799,0,0,1-.50293.08252A7.89518,7.89518,0,0,1,380.29028,145.57853Z"/><path class="cls-5" d="M320.54614,152.76554h4.83106a5.13637,5.13637,0,0,1,1.71045.25488,3.31024,3.31024,0,0,1,1.21533.73535,3.19168,3.19168,0,0,1,.80273,1.15528,3.87954,3.87954,0,0,1,.27735,1.48535,3.80187,3.80187,0,0,1-.25489,1.41015,3.17476,3.17476,0,0,1-.728,1.11036,3.33013,3.33013,0,0,1-1.14746.72754,4.10557,4.10557,0,0,1-1.50049.26269h-2.50537v3.58594h-2.70069Zm4.666,5.041a1.50191,1.50191,0,0,0,1.11035-.39013,1.39972,1.39972,0,0,0,.39014-1.03516,1.32593,1.32593,0,0,0-.39014-1.01269,1.55779,1.55779,0,0,0-1.11035-.36768h-1.96533v2.80566Z"/><path class="cls-5" d="M330.178,155.81144h2.34082v1.20019h.04492a2.8916,2.8916,0,0,1,.90039-1.00537,2.19014,2.19014,0,0,1,1.2002-.31494,1.31793,1.31793,0,0,1,.48.06006v2.1001h-.06006a1.94913,1.94913,0,0,0-2.46045,2.19091v3.45069H330.178Z"/><path class="cls-5" d="M339.54028,163.73331a4.45841,4.45841,0,0,1-1.688-.30761,3.75014,3.75014,0,0,1-2.13037-2.14551,4.59423,4.59423,0,0,1,0-3.22608,3.75009,3.75009,0,0,1,2.13037-2.1455,4.785,4.785,0,0,1,3.376,0,3.73149,3.73149,0,0,1,1.29.85546,3.85323,3.85323,0,0,1,.8252,1.29,4.58719,4.58719,0,0,1,0,3.22608,3.84835,3.84835,0,0,1-.8252,1.29,3.73165,3.73165,0,0,1-1.29.85547A4.46013,4.46013,0,0,1,339.54028,163.73331Zm-.01513-1.74072a1.363,1.363,0,0,0,1.22314-.6377,3.0668,3.0668,0,0,0,.4126-1.688,3.10823,3.10823,0,0,0-.4126-1.69532,1.35989,1.35989,0,0,0-1.22314-.645,1.34126,1.34126,0,0,0-1.21534.645,3.15256,3.15256,0,0,0-.40478,1.69532,3.11041,3.11041,0,0,0,.40478,1.688A1.34423,1.34423,0,0,0,339.52515,161.99259Z"/><path class="cls-5" d="M347.35718,163.58292a4.58289,4.58289,0,0,1-.98291-.09717,2.0393,2.0393,0,0,1-.77246-.33789,1.5529,1.5529,0,0,1-.51026-.65234,2.57407,2.57407,0,0,1-.18017-1.02783v-4.126h-1.02v-1.53027h1.02v-2.43067h2.38574v2.43067h1.39551v1.53027h-1.39551v3.60059a.66427.66427,0,0,0,.23242.60009,1.13673,1.13673,0,0,0,.623.1504q.16479,0,.31494-.00782c.09961-.00488.1748-.00732.2251-.00732v1.78564a3.6786,3.6786,0,0,1-.50293.08252A7.89247,7.89247,0,0,1,347.35718,163.58292Z"/><path class="cls-5" d="M353.25366,163.71818a4.55064,4.55064,0,0,1-1.71045-.30762,3.64124,3.64124,0,0,1-1.29-.855,3.797,3.797,0,0,1-.81054-1.29785,4.5272,4.5272,0,0,1-.28467-1.62061,4.42122,4.42122,0,0,1,.28467-1.59766,3.81212,3.81212,0,0,1,.81054-1.29052,3.73783,3.73783,0,0,1,1.24512-.855,4.37628,4.37628,0,0,1,3.0835-.05274,3.69023,3.69023,0,0,1,1.14746.70508,3.82691,3.82691,0,0,1,1.02783,1.59815,6.212,6.212,0,0,1,.32275,2.13769h-5.52148a2.25566,2.25566,0,0,0,.54,1.23047,1.541,1.541,0,0,0,1.18555.45019,1.44158,1.44158,0,0,0,.79492-.20263,1.29705,1.29705,0,0,0,.48047-.5625h2.38525a2.83366,2.83366,0,0,1-.4502.99756,3.19257,3.19257,0,0,1-.83984.81787,3.63921,3.63921,0,0,1-1.07275.5249A4.56066,4.56066,0,0,1,353.25366,163.71818Zm1.35059-4.89112a1.80887,1.80887,0,0,0-.46533-1.09521,1.31666,1.31666,0,0,0-.99024-.40528,1.39906,1.39906,0,0,0-1.08008.40528,2.094,2.094,0,0,0-.49511,1.09521Z"/><path class="cls-5" d="M361.64136,163.73331a4.40068,4.40068,0,0,1-1.68067-.30761,3.74256,3.74256,0,0,1-1.28271-.85547,3.84079,3.84079,0,0,1-.8252-1.29,4.35685,4.35685,0,0,1-.29248-1.61328,4.46743,4.46743,0,0,1,.28467-1.6128,3.81,3.81,0,0,1,.81055-1.29,3.684,3.684,0,0,1,1.26758-.85546,4.30412,4.30412,0,0,1,1.6582-.30762,4.37227,4.37227,0,0,1,1.41748.21777,3.41291,3.41291,0,0,1,1.103.60742,3.07944,3.07944,0,0,1,.75.93018,3.58323,3.58323,0,0,1,.375,1.18555h-2.35547a1.67355,1.67355,0,0,0-.42774-.83252,1.12467,1.12467,0,0,0-.83252-.30762,1.31089,1.31089,0,0,0-1.185.60742,3.04486,3.04486,0,0,0-.39014,1.65772,2.9729,2.9729,0,0,0,.39014,1.63574,1.31651,1.31651,0,0,0,1.185.6001q1.17042,0,1.33545-1.32032h2.34034a3.3295,3.3295,0,0,1-.29249,1.2378,3.03556,3.03556,0,0,1-.73535,1.00537,3.38351,3.38351,0,0,1-1.14013.66748A4.35,4.35,0,0,1,361.64136,163.73331Z"/><path class="cls-5" d="M369.11255,163.58292a4.583,4.583,0,0,1-.98291-.09717,2.0393,2.0393,0,0,1-.77246-.33789,1.5529,1.5529,0,0,1-.51026-.65234,2.57407,2.57407,0,0,1-.18017-1.02783v-4.126h-1.02v-1.53027h1.02v-2.43067h2.38574v2.43067H370.448v1.53027h-1.39551v3.60059a.66427.66427,0,0,0,.23242.60009,1.13678,1.13678,0,0,0,.623.1504q.16479,0,.31494-.00782c.09961-.00488.17481-.00732.2251-.00732v1.78564a3.67832,3.67832,0,0,1-.50293.08252A7.89247,7.89247,0,0,1,369.11255,163.58292Z"/><path class="cls-5" d="M371.33276,152.76554h2.4458V154.746h-2.4458Zm0,3.0459h2.4458v7.68164h-2.4458Z"/><path class="cls-5" d="M378.71509,163.73331a4.45834,4.45834,0,0,1-1.688-.30761,3.75014,3.75014,0,0,1-2.13037-2.14551,4.59423,4.59423,0,0,1,0-3.22608,3.75009,3.75009,0,0,1,2.13037-2.1455,4.785,4.785,0,0,1,3.376,0,3.73158,3.73158,0,0,1,1.29.85546,3.853,3.853,0,0,1,.82519,1.29,4.587,4.587,0,0,1,0,3.22608,3.84817,3.84817,0,0,1-.82519,1.29,3.73174,3.73174,0,0,1-1.29.85547A4.46013,4.46013,0,0,1,378.71509,163.73331ZM378.7,161.99259a1.363,1.363,0,0,0,1.22315-.6377,3.06681,3.06681,0,0,0,.41259-1.688,3.10824,3.10824,0,0,0-.41259-1.69532,1.3599,1.3599,0,0,0-1.22315-.645,1.34124,1.34124,0,0,0-1.21533.645,3.15256,3.15256,0,0,0-.40479,1.69532,3.11041,3.11041,0,0,0,.40479,1.688A1.34421,1.34421,0,0,0,378.7,161.99259Z"/><path class="cls-5" d="M383.636,155.81144h2.356v1.0498h.04493a3.10218,3.10218,0,0,1,.99755-.95263,2.72286,2.72286,0,0,1,1.373-.32227,2.77075,2.77075,0,0,1,1.125.21728,2.43569,2.43569,0,0,1,.84033.6001,2.5814,2.5814,0,0,1,.52491.91553,3.6569,3.6569,0,0,1,.18017,1.17773v4.9961h-2.44531v-4.501a1.53722,1.53722,0,0,0-.30029-.99023,1.08447,1.08447,0,0,0-.9004-.375,1.2032,1.2032,0,0,0-.98242.4497,1.79187,1.79187,0,0,0-.36767,1.17041v4.2461H383.636Z"/><path class="cls-6" d="M278.50024,363.143h3.31641l2.74854,9.03223q.10913.39258.229.8291.11939.43652.229.80664.10914.43652.21827.85156h.04345l.21826-.873c.07276-.24707.14893-.51562.229-.80761.08008-.29.15625-.55957.229-.80664l2.727-9.03223h3.207l-5.25781,15.59863h-2.87939Z"/><path class="cls-6" d="M296.58618,363.143h2.356l-6.1084,15.59863h-2.356Z"/><path class="cls-6" d="M299.83569,363.143h12.54395v2.66211H307.6897v12.93652h-3.16358V365.80509h-4.69043Z"/><path class="cls-6" d="M244.02466,231.48771h5.53711a5.94272,5.94272,0,0,1,1.75635.2334,3.292,3.292,0,0,1,1.23681.6665,2.96051,2.96051,0,0,1,.98633,2.31836,2.31546,2.31546,0,0,1-.52783,1.56592,3.10082,3.10082,0,0,1-1.41016.9082v.05225a3.138,3.138,0,0,1,1.66992,1.10742,3.09233,3.09233,0,0,1,.63135,1.95508,3.73352,3.73352,0,0,1-.26807,1.49658,2.95827,2.95827,0,0,1-.82177,1.08154,3.78659,3.78659,0,0,1-1.33252.72656,5.72146,5.72146,0,0,1-1.78223.25977h-5.67529Zm5.22558,4.9834a2.14738,2.14738,0,0,0,1.332-.38086,1.46028,1.46028,0,0,0,.02636-2.18018,2.03958,2.03958,0,0,0-1.30664-.38086h-2.76855v2.9419Zm-2.71679,5.312h2.88965a2.06218,2.06218,0,0,0,1.42773-.4585,1.56138,1.56138,0,0,0,.51025-1.22021,1.59312,1.59312,0,0,0-.5708-1.332,2.25077,2.25077,0,0,0-1.43652-.45019h-2.82031Z"/><path class="cls-6" d="M258.69751,231.48771h2.59521l4.36084,12.37158h-2.61279l-.83056-2.62988h-4.46436l-.81348,2.62988h-2.54345Zm-.36328,7.8208h3.27l-1.10742-3.56446a5.40072,5.40072,0,0,1-.16407-.5708q-.07836-.32884-.16455-.623-.08642-.34571-.17285-.70948h-.03467q-.104.36328-.19043.70948-.08641.29444-.16455.623a5.3985,5.3985,0,0,1-.16406.5708Z"/><path class="cls-6" d="M264.49438,231.48771h9.94922v2.11084h-3.72021v10.26074H268.2146V233.59855h-3.72022Z"/><path class="cls-6" d="M273.95923,238.56437h4.689v2.02441h-4.689Z"/><path class="cls-6" d="M467.01147,255.88956h2.88038l1.42627,5.06934q.1267.48046.24707.96.11939.48046.20459.87549.09886.46654.18359.88965h.02832q.085-.42335.18359-.88965.085-.39479.19043-.87549.1062-.47973.24707-.96l1.42627-5.06934h2.92285v10.09619h-1.90625V260.1962q0-.31054.00733-.67041.00659-.36034.03515-.68506.01392-.36693.04249-.73437h-.02833q-.071.353-.14111.69189-.071.29664-.14844.62159-.07763.32519-.14843.60693l-1.73682,5.959h-1.9624l-1.69434-5.959q-.085-.282-.15576-.60693-.0703-.32447-.14111-.62159-.07032-.33837-.14112-.69189h-.02832q.01392.36768.04248.73437.01392.3252.02832.68506.01392.35962.01416.67041v5.78955h-1.87793Z"/><path class="cls-6" d="M482.93921,266.21183a4.9908,4.9908,0,0,1-2.019-.39551,4.48192,4.48192,0,0,1-1.53955-1.09424,4.815,4.815,0,0,1-.97413-1.6665,6.6575,6.6575,0,0,1,0-4.19385,4.88922,4.88922,0,0,1,.97413-1.67285,4.43647,4.43647,0,0,1,1.53955-1.10156,5.33382,5.33382,0,0,1,4.03125,0,4.45651,4.45651,0,0,1,1.53173,1.10156,4.89007,4.89007,0,0,1,.97461,1.67285,6.65731,6.65731,0,0,1,0,4.19385,4.81578,4.81578,0,0,1-.97461,1.6665,4.50246,4.50246,0,0,1-1.53173,1.09424A4.94453,4.94453,0,0,1,482.93921,266.21183Zm.01416-1.68067a2.52514,2.52514,0,0,0,1.207-.27539,2.49917,2.49917,0,0,0,.86182-.75537,3.34406,3.34406,0,0,0,.51465-1.13672,5.92213,5.92213,0,0,0,0-2.81689,3.43668,3.43668,0,0,0-.51465-1.13672,2.4807,2.4807,0,0,0-.86182-.7627,2.53085,2.53085,0,0,0-1.207-.2749,2.57193,2.57193,0,0,0-1.21436.2749,2.51932,2.51932,0,0,0-.87548.7627,3.45857,3.45857,0,0,0-.5293,1.13672,5.69967,5.69967,0,0,0,0,2.81689,3.36363,3.36363,0,0,0,.5293,1.13672,2.53876,2.53876,0,0,0,.87548.75537A2.56611,2.56611,0,0,0,482.95337,264.53116Z"/><path class="cls-6" d="M492.823,266.21183a5.10317,5.10317,0,0,1-3.1836-.86865,3.09453,3.09453,0,0,1-1.17968-2.478h2.00586a1.78864,1.78864,0,0,0,.64941,1.30615,2.77159,2.77159,0,0,0,1.624.38818,3.82932,3.82932,0,0,0,.748-.07031,2.02924,2.02924,0,0,0,.62109-.22607,1.27963,1.27963,0,0,0,.43164-.40235,1.0747,1.0747,0,0,0,.16211-.60009.99606.99606,0,0,0-.17675-.60743,1.37209,1.37209,0,0,0-.502-.40234,4.09494,4.09494,0,0,0-.7832-.28223q-.46-.1201-1.03809-.24707-.67821-.15526-1.30566-.34619a3.95572,3.95572,0,0,1-1.10156-.51562,2.48306,2.48306,0,0,1-.7627-.833,2.59661,2.59661,0,0,1-.28906-1.29883,2.83856,2.83856,0,0,1,.28906-1.31348,2.67663,2.67663,0,0,1,.80469-.9458,3.61127,3.61127,0,0,1,1.22168-.57177,5.93248,5.93248,0,0,1,1.55273-.19092,4.35983,4.35983,0,0,1,2.74707.80517,3.09281,3.09281,0,0,1,1.15039,2.34375h-1.96289a1.533,1.533,0,0,0-.62109-1.14355,2.23029,2.23029,0,0,0-1.32715-.38135,2.38756,2.38756,0,0,0-1.32715.32471.98855.98855,0,0,0-.49414.86133.92018.92018,0,0,0,.13379.51562,1.15586,1.15586,0,0,0,.40918.35987,3.05058,3.05058,0,0,0,.68555.26806q.40869.11354.97363.24024.77637.16919,1.46192.374a4.534,4.534,0,0,1,1.20019.54395,2.49589,2.49589,0,0,1,.8125.86132,2.7,2.7,0,0,1,.2959,1.34131,3.04122,3.04122,0,0,1-.2959,1.36279,2.84756,2.84756,0,0,1-.81934,1.00245,3.754,3.754,0,0,1-1.24218.61425A5.54393,5.54393,0,0,1,492.823,266.21183Z"/><path class="cls-6" d="M504.76929,266.19767a4.87094,4.87094,0,0,1-1.95606-.38819,4.49675,4.49675,0,0,1-1.53906-1.0874,5.06027,5.06027,0,0,1-1.002-1.65234,5.88462,5.88462,0,0,1-.36035-2.09668,6.26676,6.26676,0,0,1,.33886-2.083,5.0044,5.0044,0,0,1,.96778-1.68018,4.41142,4.41142,0,0,1,1.52441-1.11572,4.86564,4.86564,0,0,1,2.0127-.40234,4.96305,4.96305,0,0,1,1.666.26123,3.92021,3.92021,0,0,1,1.26367.72021,3.47934,3.47934,0,0,1,.83985,1.08008,4.03445,4.03445,0,0,1,.3955,1.3418h-2.0332a2.01434,2.01434,0,0,0-.69238-1.22168,2.17348,2.17348,0,0,0-1.43945-.459,2.55522,2.55522,0,0,0-1.22168.2754,2.43816,2.43816,0,0,0-.8545.75537,3.44423,3.44423,0,0,0-.50781,1.12988,5.50856,5.50856,0,0,0-.16992,1.39795,5.05691,5.05691,0,0,0,.19043,1.42627,3.41961,3.41961,0,0,0,.55078,1.12256,2.47261,2.47261,0,0,0,2.02637.99511,2.25513,2.25513,0,0,0,1.49023-.48681,1.92329,1.92329,0,0,0,.68457-1.292H508.949a3.60464,3.60464,0,0,1-.32519,1.292,3.50155,3.50155,0,0,1-.79,1.09424,3.85471,3.85471,0,0,1-1.26367.78369A4.9647,4.9647,0,0,1,504.76929,266.19767Z"/><path class="cls-6" d="M513.35425,266.19767a3.86382,3.86382,0,0,1-1.53906-.29688,3.58758,3.58758,0,0,1-1.96973-2.02588,4.24411,4.24411,0,0,1,0-3.00781,3.59046,3.59046,0,0,1,1.96973-2.02637,4.14425,4.14425,0,0,1,3.07812,0,3.59046,3.59046,0,0,1,1.96973,2.02637,4.24411,4.24411,0,0,1,0,3.00781,3.58758,3.58758,0,0,1-1.96973,2.02588A3.8706,3.8706,0,0,1,513.35425,266.19767Zm0-1.46875a1.58211,1.58211,0,0,0,1.3623-.64942,2.83561,2.83561,0,0,0,.47364-1.70849,2.86934,2.86934,0,0,0-.47364-1.71582,1.74131,1.74131,0,0,0-2.72461,0,2.8626,2.8626,0,0,0-.47363,1.71582,2.829,2.829,0,0,0,.47363,1.70849A1.58094,1.58094,0,0,0,513.35425,264.72892Z"/><path class="cls-6" d="M519.906,259.73038h.043a2.52634,2.52634,0,0,1,.88184-.88965,2.7616,2.7616,0,0,1,2.28809-.09179,2.312,2.312,0,0,1,.7832.56494,2.63617,2.63617,0,0,1,.50879.854,3.11033,3.11033,0,0,1,.18359,1.08741v4.73046h-1.9209V261.538a1.39971,1.39971,0,0,0-.32421-.96045,1.18018,1.18018,0,0,0-.93262-.36719,1.36071,1.36071,0,0,0-1.05176.459,1.72919,1.72919,0,0,0-.416,1.20752v4.10888h-1.92089V258.7421H519.906Z"/><path class="cls-6" d="M525.2146,258.7421h1.00293v-2.25928h1.87793v2.25928h1.24316v1.27051h-1.24316v3.84082a.67948.67948,0,0,0,.19824.56494.81965.81965,0,0,0,.52246.15527h.36719a1.34946,1.34946,0,0,0,.19727-.01416v1.41211a3.03389,3.03389,0,0,1-.31055.01416c-.10352.00928-.23047.01416-.38184.01416h-.50781a3.18348,3.18348,0,0,1-.69922-.07763,1.74685,1.74685,0,0,1-.62793-.27539,1.46051,1.46051,0,0,1-.459-.53662,1.816,1.816,0,0,1-.17676-.84717v-4.25049H525.2146Z"/><path class="cls-6" d="M532.17651,259.89982h.043a2.72742,2.72742,0,0,1,.73438-.93213,1.68253,1.68253,0,0,1,1.04492-.31055,1.38669,1.38669,0,0,1,.45117.05664V260.394h-.042a1.99812,1.99812,0,0,0-1.55371.40966,2.04142,2.04142,0,0,0-.60645,1.65186v3.53027h-1.9209V258.7421h1.84961Z"/><path class="cls-6" d="M538.50269,266.19767a3.8639,3.8639,0,0,1-1.53907-.29688,3.58752,3.58752,0,0,1-1.96972-2.02588,4.24411,4.24411,0,0,1,0-3.00781,3.5904,3.5904,0,0,1,1.96972-2.02637,4.14428,4.14428,0,0,1,3.07813,0,3.5904,3.5904,0,0,1,1.96972,2.02637,4.244,4.244,0,0,1,0,3.00781,3.58752,3.58752,0,0,1-1.96972,2.02588A3.87064,3.87064,0,0,1,538.50269,266.19767Zm0-1.46875a1.58211,1.58211,0,0,0,1.3623-.64942,2.83561,2.83561,0,0,0,.47363-1.70849,2.86934,2.86934,0,0,0-.47363-1.71582,1.74131,1.74131,0,0,0-2.72461,0,2.86254,2.86254,0,0,0-.47363,1.71582,2.82892,2.82892,0,0,0,.47363,1.70849A1.58093,1.58093,0,0,0,538.50269,264.72892Z"/><path class="cls-6" d="M543.20386,255.88956h1.9209v10.09619h-1.9209Z"/><path class="cls-5" d="M569.02222,299.38321h1.623V302.518h3.14649v-3.13477h1.624v8.00586h-1.624v-3.52734h-3.14649v3.52734h-1.623Z"/><path class="cls-5" d="M579.22339,307.557a3.22676,3.22676,0,0,1-1.27149-.23535,2.64315,2.64315,0,0,1-1.51074-1.6123,3.5944,3.5944,0,0,1-.19629-1.19825,3.36284,3.36284,0,0,1,.207-1.19238,2.84865,2.84865,0,0,1,.582-.957,2.74606,2.74606,0,0,1,2.04394-.874,2.79877,2.79877,0,0,1,1.2207.252,2.45827,2.45827,0,0,1,.88477.71094,3.243,3.243,0,0,1,.543,1.09179,5.01127,5.01127,0,0,1,.18457,1.40528h-4.166a1.8223,1.8223,0,0,0,.4541,1.05273,1.33334,1.33334,0,0,0,1.0127.38086,1.21482,1.21482,0,0,0,.7168-.19043,1.09231,1.09231,0,0,0,.39257-.51465h1.5a2.25634,2.25634,0,0,1-.28515.72168,2.22041,2.22041,0,0,1-.53809.59961,2.59408,2.59408,0,0,1-.77832.40821A3.10446,3.10446,0,0,1,579.22339,307.557Zm-.12305-4.89355a1.20618,1.20618,0,0,0-.918.33008,1.70417,1.70417,0,0,0-.415.90136H580.321a1.3543,1.3543,0,0,0-.36425-.88964A1.14017,1.14017,0,0,0,579.10034,302.66349Z"/><path class="cls-5" d="M586.23218,307.38907a.75153.75153,0,0,1-.11133-.26855,2.81634,2.81634,0,0,1-.06738-.37012H586.031a2.09122,2.09122,0,0,1-.252.3086,1.37126,1.37126,0,0,1-.33593.24023,2.03418,2.03418,0,0,1-.46485.16309,2.95546,2.95546,0,0,1-.63867.06152,2.23874,2.23874,0,0,1-1.44434-.44824,1.57924,1.57924,0,0,1-.55957-1.31055,1.62957,1.62957,0,0,1,.17871-.79492,1.554,1.554,0,0,1,.49317-.53711,2.48738,2.48738,0,0,1,.7334-.33008,6.76615,6.76615,0,0,1,.90136-.18555,6.48966,6.48966,0,0,0,1.05274-.21191.43384.43384,0,0,0,.33594-.4375.59357.59357,0,0,0-.24122-.49805,1.17646,1.17646,0,0,0-.72167-.18457,1.36643,1.36643,0,0,0-.80665.19629.78937.78937,0,0,0-.30273.60938h-1.35449a1.85015,1.85015,0,0,1,.168-.72168,1.73875,1.73875,0,0,1,.459-.59961,2.32875,2.32875,0,0,1,.76172-.41406,3.36755,3.36755,0,0,1,1.08594-.15625,2.5852,2.5852,0,0,1,1.85351.55371,2.08989,2.08989,0,0,1,.56543,1.5625v2.92285q0,.64893.20117.79492v.05566Zm-1.52246-.92968a1.62391,1.62391,0,0,0,.57617-.09473,1.3981,1.3981,0,0,0,.42578-.24609,1.03123,1.03123,0,0,0,.2627-.34766.9594.9594,0,0,0,.08984-.4082v-.86231a1.74439,1.74439,0,0,1-.48731.19531c-.19043.04883-.38183.09571-.57617.14063a3.01519,3.01519,0,0,0-.89551.31348.74685.74685,0,0,0-.04492,1.14746A1.16126,1.16126,0,0,0,584.70972,306.45939Z"/><path class="cls-5" d="M588.01343,301.64493h.79492v-1.792h1.48926v1.792h.98535v1.00782h-.98535v3.04589a.54087.54087,0,0,0,.15625.44727.65293.65293,0,0,0,.41406.123h.292a1.04952,1.04952,0,0,0,.15625-.01075v1.12012c-.07422.00684-.15625.01074-.24609.01074-.082.00782-.1836.01075-.30274.01075H590.364a2.46109,2.46109,0,0,1-.55371-.06153,1.37662,1.37662,0,0,1-.498-.21777,1.15484,1.15484,0,0,1-.36426-.42578,1.43889,1.43889,0,0,1-.13965-.67188v-3.37011h-.79492Z"/><path class="cls-5" d="M594.70874,307.557a3.22667,3.22667,0,0,1-1.27148-.23535,2.64321,2.64321,0,0,1-1.51075-1.6123,3.5944,3.5944,0,0,1-.19629-1.19825,3.36262,3.36262,0,0,1,.207-1.19238,2.84847,2.84847,0,0,1,.582-.957,2.74606,2.74606,0,0,1,2.04394-.874,2.79885,2.79885,0,0,1,1.22071.252,2.45832,2.45832,0,0,1,.88476.71094,3.243,3.243,0,0,1,.543,1.09179,5.01127,5.01127,0,0,1,.18457,1.40528h-4.166a1.82224,1.82224,0,0,0,.45411,1.05273,1.3333,1.3333,0,0,0,1.01269.38086,1.21482,1.21482,0,0,0,.7168-.19043,1.09233,1.09233,0,0,0,.39258-.51465h1.5a2.25637,2.25637,0,0,1-.28516.72168,2.22041,2.22041,0,0,1-.53809.59961,2.59408,2.59408,0,0,1-.77832.40821A3.10446,3.10446,0,0,1,594.70874,307.557Zm-.12305-4.89355a1.20618,1.20618,0,0,0-.918.33008,1.70409,1.70409,0,0,0-.415.90136h2.55371a1.35426,1.35426,0,0,0-.36426-.88964A1.14015,1.14015,0,0,0,594.58569,302.66349Z"/><path class="cls-5" d="M599.56909,302.5629h.0332a2.16945,2.16945,0,0,1,.582-.73926,1.33572,1.33572,0,0,1,.8291-.24609,1.092,1.092,0,0,1,.3584.04492v1.332h-.03418a1.58445,1.58445,0,0,0-1.23145.3252,1.61572,1.61572,0,0,0-.48144,1.30957v2.7998h-1.52247v-5.74414h1.4668Z"/><path class="cls-6" d="M902.54272,44.36417h5.14551a5.02693,5.02693,0,0,1,1.78614.28662,3.58984,3.58984,0,0,1,1.27832.81153,3.76051,3.76051,0,0,1,.7705,1.17968,3.8633,3.8633,0,0,1,.27832,1.49121,4.06071,4.06071,0,0,1-.2705,1.51563,3.286,3.286,0,0,1-.77051,1.16357,3.484,3.484,0,0,1-1.22852.75391,4.71616,4.71616,0,0,1-1.64746.27051h-2.88379V56.081h-2.458Zm2.458,5.53906h2.458a1.9413,1.9413,0,0,0,1.418-.47558,1.71349,1.71349,0,0,0,.4834-1.27783,1.63022,1.63022,0,0,0-.49219-1.27832,1.98332,1.98332,0,0,0-1.376-.44239h-2.49121Z"/><path class="cls-6" d="M912.031,44.36417h2.49023l2.06445,6.78418q.082.29517.17285.623.08937.32739.17188.606.082.32813.16406.63916h.03223q.082-.3274.16406-.65528.082-.27831.17188-.60644c.06054-.21826.11718-.42041.17187-.60645l2.04883-6.78418h2.40918L918.14331,56.081h-2.16309Z"/><path class="cls-6" d="M925.10718,48.248h-2.54V46.77335a4.85893,4.85893,0,0,0,.9834-.13135,3.06918,3.06918,0,0,0,.86035-.34423,2.07658,2.07658,0,0,0,.64746-.606,2.16232,2.16232,0,0,0,.34375-.918h1.95019V56.081h-2.24511Z"/><path class="cls-6" d="M902.9939,102.37833h5.1455a5.02715,5.02715,0,0,1,1.78614.28662,3.58984,3.58984,0,0,1,1.27832.81153,3.76054,3.76054,0,0,1,.77051,1.17968,3.86348,3.86348,0,0,1,.27832,1.49121,4.06071,4.06071,0,0,1-.27051,1.51563,3.286,3.286,0,0,1-.77051,1.16357,3.484,3.484,0,0,1-1.22852.75391,4.71612,4.71612,0,0,1-1.64746.27051H905.4519v4.24414h-2.458Zm2.458,5.53906h2.458a1.9413,1.9413,0,0,0,1.418-.47558,1.71349,1.71349,0,0,0,.4834-1.27783,1.63019,1.63019,0,0,0-.49219-1.27832,1.98331,1.98331,0,0,0-1.376-.44239H905.4519Z"/><path class="cls-6" d="M912.48218,102.37833h2.49023l2.06446,6.78418q.082.29517.17285.62305.08935.32739.17187.606.082.32813.16406.63916h.03223q.082-.32741.16406-.65528.082-.27831.17188-.60644c.06055-.21826.11719-.42041.17187-.60645l2.04883-6.78418h2.40918l-3.94922,11.7168H916.4314Z"/><path class="cls-6" d="M923.281,112.63663a5.377,5.377,0,0,1,.62207-1.19629,6.08259,6.08259,0,0,1,.85254-.98291q.4746-.44312.95019-.81982.52441-.40942,1.05664-.78613a9.55355,9.55355,0,0,0,.95117-.76221,3.76092,3.76092,0,0,0,.67969-.81934,1.85041,1.85041,0,0,0,.2627-.97509,1.92367,1.92367,0,0,0-.40235-1.27,1.41593,1.41593,0,0,0-1.15527-.4834,1.61072,1.61072,0,0,0-1.32715.58984,2.77075,2.77075,0,0,0-.50781,1.688h-2.09766a4.4583,4.4583,0,0,1,.99121-3.04785,3.76876,3.76876,0,0,1,2.99121-1.13086,4.34266,4.34266,0,0,1,1.62989.28662,3.461,3.461,0,0,1,1.19629.77881,3.32974,3.32974,0,0,1,.7373,1.147,3.76546,3.76546,0,0,1,.25488,1.37647,3.68211,3.68211,0,0,1-.24609,1.39306,3.85936,3.85936,0,0,1-.64746,1.07324,5.59994,5.59994,0,0,1-.90918.84375q-.50831.3772-1.0166.7212-.32812.21313-.67188.45068-.34423.2373-.64648.4917a5.54148,5.54148,0,0,0-.54981.52392,2.98705,2.98705,0,0,0-.39258.53272h5.17774v1.83545h-8.0625A4.6897,4.6897,0,0,1,923.281,112.63663Z"/><path class="cls-6" d="M903.38647,212.726h2.376v9.73437h5.50586v1.98243h-7.88184Z"/><path class="cls-6" d="M917.20093,224.70548a5.79188,5.79188,0,0,1-2.34375-.459A5.19456,5.19456,0,0,1,913.071,222.976a5.57838,5.57838,0,0,1-1.13085-1.9336,7.73615,7.73615,0,0,1,0-4.86621,5.682,5.682,0,0,1,1.13085-1.94238,5.16288,5.16288,0,0,1,1.78614-1.27832,5.79188,5.79188,0,0,1,2.34375-.459,5.72955,5.72955,0,0,1,2.335.459,5.18763,5.18763,0,0,1,1.77832,1.27832,5.68219,5.68219,0,0,1,1.13086,1.94238,7.73615,7.73615,0,0,1,0,4.86621,5.57855,5.57855,0,0,1-1.13086,1.9336,5.21962,5.21962,0,0,1-1.77832,1.27051A5.72955,5.72955,0,0,1,917.20093,224.70548Zm.0166-1.95019a2.81913,2.81913,0,0,0,2.40039-1.19629,3.91373,3.91373,0,0,0,.59863-1.31934,6.90553,6.90553,0,0,0,0-3.26953,4.01607,4.01607,0,0,0-.59863-1.31836,2.87863,2.87863,0,0,0-1-.88574,2.92893,2.92893,0,0,0-1.40039-.31934,2.97587,2.97587,0,0,0-1.40918.31934,2.93965,2.93965,0,0,0-1.0166.88574,4.02,4.02,0,0,0-.61426,1.31836,6.61815,6.61815,0,0,0,0,3.26953,3.91622,3.91622,0,0,0,.61426,1.31934,2.87931,2.87931,0,0,0,2.42578,1.19629Z"/><path class="cls-6" d="M926.70581,212.726h2.458l4.1289,11.7168h-2.47363l-.78711-2.49024h-4.22754l-.7705,2.49024h-2.40918Zm-.34473,7.40722h3.09766l-1.04883-3.376a5.27716,5.27716,0,0,1-.15625-.54c-.04883-.208-.10058-.4043-.15527-.59082-.05469-.21777-.10938-.44238-.16406-.67188h-.03223c-.06641.2295-.126.45411-.18066.67188-.05469.18652-.10645.38281-.15528.59082a5.27462,5.27462,0,0,1-.15625.54Z"/><path class="cls-6" d="M934.27612,212.726h4.57227a4.90612,4.90612,0,0,1,2.12988.45117,4.79189,4.79189,0,0,1,1.62207,1.24512,5.60208,5.60208,0,0,1,1.03223,1.89258,7.638,7.638,0,0,1,.36133,2.39257,7.1247,7.1247,0,0,1-.46778,2.62989,4.67122,4.67122,0,0,1-2.9082,2.81054,5.98959,5.98959,0,0,1-1.9668.29493h-4.375Zm4.21094,9.66894a2.76781,2.76781,0,0,0,2.38477-.96679,4.513,4.513,0,0,0,.71289-2.72071,6.40681,6.40681,0,0,0-.18848-1.59765,3.65754,3.65754,0,0,0-.57324-1.25391,2.66206,2.66206,0,0,0-.95117-.81055,2.87521,2.87521,0,0,0-1.31836-.28711H936.6521v7.63672Z"/><path class="cls-6" d="M902.36206,298.02286h5.375a4.78631,4.78631,0,0,1,1.54883.23731,3.522,3.522,0,0,1,1.1875.66406,2.932,2.932,0,0,1,.76172,1.02344,3.20512,3.20512,0,0,1,.27051,1.33594,3.08,3.08,0,0,1-.50782,1.77832,2.778,2.778,0,0,1-1.63867,1.05664v.04882a2.388,2.388,0,0,1,1.23731.7627,3.02126,3.02126,0,0,1,.54882,1.59766q.06592.62256.08985,1.15527.0249.53173.0664.94238a3.405,3.405,0,0,0,.12207.67188.49013.49013,0,0,0,.2295.32715v.11523h-2.27735c-.07617-.0332-.13672-.13379-.18066-.30371a4.48794,4.48794,0,0,1-.10645-.63086q-.041-.37647-.07324-.83594c-.02246-.30566-.04394-.61621-.06543-.93359a2.21394,2.21394,0,0,0-.63086-1.4834,2.35569,2.35569,0,0,0-1.66406-.51562h-1.917v4.70312h-2.376Zm2.376,5.17774h2.52343a2.05571,2.05571,0,0,0,1.459-.4502,1.52329,1.52329,0,0,0,.47461-1.15527,1.62356,1.62356,0,0,0-.459-1.18848,1.90055,1.90055,0,0,0-1.40918-.46679H904.738Z"/><path class="cls-6" d="M917.56909,310.00138a5.92549,5.92549,0,0,1-3.69531-1.00781,3.59309,3.59309,0,0,1-1.36816-2.876h2.32714a2.0712,2.0712,0,0,0,.75391,1.51562,3.21258,3.21258,0,0,0,1.88379.45118,4.42923,4.42923,0,0,0,.86914-.082,2.35962,2.35962,0,0,0,.7207-.26172,1.47449,1.47449,0,0,0,.5-.46778,1.24234,1.24234,0,0,0,.18848-.69629,1.1548,1.1548,0,0,0-.20508-.7041,1.57519,1.57519,0,0,0-.582-.46777,4.7515,4.7515,0,0,0-.90918-.32715q-.53321-.13915-1.2041-.28711-.78663-.18018-1.51563-.40137a4.57165,4.57165,0,0,1-1.27832-.59863,2.87973,2.87973,0,0,1-.88476-.9668,3.009,3.009,0,0,1-.33594-1.50683,3.29223,3.29223,0,0,1,.33594-1.52442,3.1197,3.1197,0,0,1,.93359-1.09765,4.191,4.191,0,0,1,1.418-.66406A6.899,6.899,0,0,1,917.323,297.81a5.05739,5.05739,0,0,1,3.1875.9336,3.59248,3.59248,0,0,1,1.33594,2.7207h-2.27832a1.78162,1.78162,0,0,0-.72071-1.32813,2.59183,2.59183,0,0,0-1.54-.44238,2.7748,2.7748,0,0,0-1.541.377,1.15036,1.15036,0,0,0-.57324,1,1.07039,1.07039,0,0,0,.15527.59766,1.33767,1.33767,0,0,0,.47558.418,3.46776,3.46776,0,0,0,.79493.31152q.4746.13184,1.13086.27832.90087.19776,1.69531.43457a5.28123,5.28123,0,0,1,1.39355.63086,2.90117,2.90117,0,0,1,.94239,1,3.12747,3.12747,0,0,1,.34375,1.55664,3.51947,3.51947,0,0,1-.34375,1.58106,3.28515,3.28515,0,0,1-.95118,1.16406,4.36723,4.36723,0,0,1-1.4414.71289A6.45812,6.45812,0,0,1,917.56909,310.00138Z"/><path class="cls-6" d="M928.22046,307.29728h-5.17774v-2.40821l5.09571-6.50586h2.26172v7.12793h1.7041v1.78614h-1.7041v2.44238h-2.17969Zm-3.375-1.78614h3.375v-4.35839h-.03223l-3.34277,4.30957Z"/><path class="cls-6" d="M937.42944,309.98478a6.7434,6.7434,0,0,1-1.78613-.22852,4.49105,4.49105,0,0,1-1.45019-.67187,3.32493,3.32493,0,0,1-.97559-1.08985,3.272,3.272,0,0,1,.19629-3.31836,3.23322,3.23322,0,0,1,1.49121-1.13086v-.0498a3.004,3.004,0,0,1-1.16309-.876,2.15216,2.15216,0,0,1-.40918-1.35254,2.64926,2.64926,0,0,1,.29493-1.26171,2.69768,2.69768,0,0,1,.835-.94239,3.94147,3.94147,0,0,1,1.28711-.58105,6.48473,6.48473,0,0,1,1.66308-.19727,6.41711,6.41711,0,0,1,1.64649.19727,3.72887,3.72887,0,0,1,1.26171.57324,2.58621,2.58621,0,0,1,1.08985,2.17969,2.20885,2.20885,0,0,1-.40918,1.34375,2.92029,2.92029,0,0,1-1.14746.90136v.04883a3.0206,3.0206,0,0,1,1.4834,1.082,2.955,2.955,0,0,1,.54882,1.78614,3.40289,3.40289,0,0,1-.33593,1.54,3.133,3.133,0,0,1-.93457,1.12207,4.32487,4.32487,0,0,1-1.417.68847A6.34284,6.34284,0,0,1,937.42944,309.98478Zm-.0498-1.80176a2.50562,2.50562,0,0,0,1.59765-.4834,1.554,1.554,0,0,0,.61524-1.28711,1.77214,1.77214,0,0,0-.57422-1.38476,2.3155,2.3155,0,0,0-1.60547-.51563,2.44622,2.44622,0,0,0-1.63867.51563,1.72789,1.72789,0,0,0-.60645,1.38476,1.56544,1.56544,0,0,0,.58985,1.30274A2.54838,2.54838,0,0,0,937.37964,308.183Zm0-5.22754a2.03009,2.03009,0,0,0,1.36816-.418,1.3722,1.3722,0,0,0,.48438-1.08984,1.32419,1.32419,0,0,0-.48438-1.07324,2.0854,2.0854,0,0,0-1.36816-.40137,2.11759,2.11759,0,0,0-1.376.40137,1.31366,1.31366,0,0,0-.49219,1.07324,1.36087,1.36087,0,0,0,.49219,1.08984A2.06108,2.06108,0,0,0,937.37964,302.95548Z"/><path class="cls-6" d="M946.99976,309.98478a6.02464,6.02464,0,0,1-1.7295-.23731,4.2602,4.2602,0,0,1-1.38476-.68847,3.61447,3.61447,0,0,1-.958-1.09766,3.65878,3.65878,0,0,1-.45117-1.4668h2.19629a1.72523,1.72523,0,0,0,.76953,1.2295,2.771,2.771,0,0,0,1.50781.39257,1.96826,1.96826,0,0,0,1.52442-.60547,2.14617,2.14617,0,0,0,.55664-1.50781,1.9461,1.9461,0,0,0-.59766-1.53222,2.14877,2.14877,0,0,0-1.4834-.53223,2.69417,2.69417,0,0,0-1.11426.21289,2.084,2.084,0,0,0-.7207.49121h-2.14648l1.08105-6.12891h6.62012v1.85157H945.6062l-.42578,2.42578h.03223a2.72808,2.72808,0,0,1,.959-.5166,4.47061,4.47061,0,0,1,1.36816-.18848,3.87611,3.87611,0,0,1,1.42579.27051,3.73673,3.73673,0,0,1,1.2207.77832,3.68114,3.68114,0,0,1,.84375,1.2373,4.10844,4.10844,0,0,1,.31152,1.63086,3.78074,3.78074,0,0,1-1.25293,2.86719,4.2111,4.2111,0,0,1-1.37695.81934A4.8694,4.8694,0,0,1,946.99976,309.98478Z"/><path class="cls-6" d="M955.865,298.02286h2.458l4.1289,11.7168h-2.47363l-.78711-2.49121h-4.22754l-.7705,2.49121h-2.40918Zm-.34473,7.40723h3.09766l-1.04883-3.376a5.3005,5.3005,0,0,1-.15625-.541c-.04883-.207-.10058-.4043-.15527-.58985q-.082-.32812-.16406-.67187h-.03223c-.06641.22949-.126.45312-.18066.67187-.05469.18555-.10645.38282-.15528.58985a5.29794,5.29794,0,0,1-.15625.541Z"/><path class="cls-6" d="M902.35522,351.25431h5.375a4.78611,4.78611,0,0,1,1.54883.23828,3.52024,3.52024,0,0,1,1.1875.66309,2.93538,2.93538,0,0,1,.76172,1.02441,3.1986,3.1986,0,0,1,.27051,1.33594,3.079,3.079,0,0,1-.50781,1.77734,2.78357,2.78357,0,0,1-1.63868,1.05762v.04883a2.393,2.393,0,0,1,1.23731.76172,3.02439,3.02439,0,0,1,.54883,1.59765q.06591.624.08984,1.15527.0249.5332.06641.94239a3.38954,3.38954,0,0,0,.12207.67187.495.495,0,0,0,.22949.32813v.11426H909.3689c-.07618-.03223-.13672-.13379-.18067-.30274a4.51284,4.51284,0,0,1-.10644-.63086c-.02735-.251-.05176-.53027-.07325-.83594q-.03369-.45849-.06542-.93457a2.21141,2.21141,0,0,0-.63086-1.48242,2.3513,2.3513,0,0,0-1.66407-.5166h-1.917v4.70313h-2.376Zm2.376,5.17871h2.52344a2.05581,2.05581,0,0,0,1.459-.45117,1.52037,1.52037,0,0,0,.47461-1.15528,1.62128,1.62128,0,0,0-.459-1.1875,1.89654,1.89654,0,0,0-1.40918-.46679H904.7312Z"/><path class="cls-6" d="M917.56226,363.2338a5.92552,5.92552,0,0,1-3.69532-1.00781,3.59449,3.59449,0,0,1-1.36816-2.876h2.32715a2.075,2.075,0,0,0,.7539,1.51563,3.21318,3.21318,0,0,0,1.88379.45019,4.43046,4.43046,0,0,0,.86914-.08105,2.36021,2.36021,0,0,0,.72071-.2627,1.472,1.472,0,0,0,.5-.46679,1.24685,1.24685,0,0,0,.18847-.69629,1.15787,1.15787,0,0,0-.20507-.70508,1.58293,1.58293,0,0,0-.582-.4668,4.68294,4.68294,0,0,0-.90918-.32812q-.53319-.13917-1.2041-.28614-.78661-.18016-1.51562-.40234a4.59726,4.59726,0,0,1-1.27832-.59766,2.87972,2.87972,0,0,1-.88477-.96679,3.013,3.013,0,0,1-.33594-1.50782,3.28523,3.28523,0,0,1,.33594-1.52343,3.11446,3.11446,0,0,1,.9336-1.09864,4.18946,4.18946,0,0,1,1.418-.66308,6.89837,6.89837,0,0,1,1.80176-.22168,5.05762,5.05762,0,0,1,3.1875.93457,3.59037,3.59037,0,0,1,1.33594,2.71972h-2.27832a1.77782,1.77782,0,0,0-.7207-1.32714,2.59177,2.59177,0,0,0-1.54-.44239,2.77473,2.77473,0,0,0-1.541.377,1.14767,1.14767,0,0,0-.57324.999,1.07163,1.07163,0,0,0,.15527.59863,1.347,1.347,0,0,0,.47559.418,3.55951,3.55951,0,0,0,.79492.31153q.47461.13036,1.13086.27832.90089.19628,1.69531.43457a5.24979,5.24979,0,0,1,1.39356.63086,2.89808,2.89808,0,0,1,.94238.999,3.13,3.13,0,0,1,.34375,1.55664,3.52662,3.52662,0,0,1-.34375,1.582,3.2904,3.2904,0,0,1-.95117,1.16309,4.34894,4.34894,0,0,1-1.44141.71289A6.42263,6.42263,0,0,1,917.56226,363.2338Z"/><path class="cls-6" d="M928.21362,360.5297h-5.17773v-2.40918l5.0957-6.50586h2.26172v7.12891h1.7041v1.78613h-1.7041v2.44141h-2.17969Zm-3.375-1.78613h3.375v-4.35938h-.03222l-3.34278,4.31055Z"/><path class="cls-6" d="M937.42261,363.2172a6.7035,6.7035,0,0,1-1.78614-.22949,4.471,4.471,0,0,1-1.45019-.67188,3.31529,3.31529,0,0,1-.97559-1.08984,3.272,3.272,0,0,1,.19629-3.31836,3.23315,3.23315,0,0,1,1.49121-1.13086v-.04883a3.00557,3.00557,0,0,1-1.16308-.87695,2.14921,2.14921,0,0,1-.40918-1.35156,2.64652,2.64652,0,0,1,.29492-1.26172,2.69788,2.69788,0,0,1,.835-.94239,3.92276,3.92276,0,0,1,1.28711-.582,6.53,6.53,0,0,1,1.66309-.19629,6.462,6.462,0,0,1,1.64648.19629,3.72893,3.72893,0,0,1,1.26172.57325,2.58956,2.58956,0,0,1,1.08984,2.17968,2.20881,2.20881,0,0,1-.40918,1.34375,2.9115,2.9115,0,0,1-1.14746.90137v.04883a3.02653,3.02653,0,0,1,1.4834,1.082,2.957,2.957,0,0,1,.54883,1.78613,3.39994,3.39994,0,0,1-.33594,1.54,3.1443,3.1443,0,0,1-.93457,1.12305,4.32482,4.32482,0,0,1-1.417.68847A6.34294,6.34294,0,0,1,937.42261,363.2172Zm-.04981-1.80274a2.50573,2.50573,0,0,0,1.59766-.48339,1.55349,1.55349,0,0,0,.61523-1.28614,1.76931,1.76931,0,0,0-.57422-1.38476,2.31578,2.31578,0,0,0-1.60546-.5166,2.44657,2.44657,0,0,0-1.63868.5166,1.72523,1.72523,0,0,0-.60644,1.38476,1.568,1.568,0,0,0,.58984,1.30274A2.54825,2.54825,0,0,0,937.3728,361.41446Zm0-5.22753a2.02506,2.02506,0,0,0,1.36817-.418,1.37222,1.37222,0,0,0,.48437-1.08985,1.32688,1.32688,0,0,0-.48437-1.07324,2.08543,2.08543,0,0,0-1.36817-.40137,2.11756,2.11756,0,0,0-1.376.40137,1.31626,1.31626,0,0,0-.49219,1.07324,1.36085,1.36085,0,0,0,.49219,1.08985A2.05589,2.05589,0,0,0,937.3728,356.18693Z"/><path class="cls-6" d="M946.99292,363.2172a6.02452,6.02452,0,0,1-1.72949-.23731,4.26025,4.26025,0,0,1-1.38477-.68847,3.62593,3.62593,0,0,1-.958-1.09766,3.66362,3.66362,0,0,1-.45117-1.4668h2.19629a1.72326,1.72326,0,0,0,.76953,1.22852,2.76288,2.76288,0,0,0,1.50782.39356,1.96885,1.96885,0,0,0,1.52441-.60645,2.14454,2.14454,0,0,0,.55664-1.50781,1.94612,1.94612,0,0,0-.59766-1.53223,2.15336,2.15336,0,0,0-1.48339-.53223,2.71,2.71,0,0,0-1.11426.21289,2.08528,2.08528,0,0,0-.72071.49219h-2.14648l1.08105-6.1289h6.62012v1.85156h-5.06347l-.42579,2.4248h.03223a2.74265,2.74265,0,0,1,.959-.51562,4.44078,4.44078,0,0,1,1.36817-.18848,3.85626,3.85626,0,0,1,1.42578.27051,3.66394,3.66394,0,0,1,2.06445,2.01562,4.1036,4.1036,0,0,1,.31153,1.62989,3.785,3.785,0,0,1-1.25293,2.86816,4.22806,4.22806,0,0,1-1.377.81934A4.89146,4.89146,0,0,1,946.99292,363.2172Z"/><path class="cls-6" d="M952.62964,351.25431h5.24414a5.63145,5.63145,0,0,1,1.66309.22168,3.12688,3.12688,0,0,1,1.17187.63086,2.80608,2.80608,0,0,1,.93359,2.19531,2.19559,2.19559,0,0,1-.5,1.4834,2.93941,2.93941,0,0,1-1.335.86035v.04883a2.97694,2.97694,0,0,1,1.58106,1.04883,2.93062,2.93062,0,0,1,.59765,1.85156,3.52688,3.52688,0,0,1-.2539,1.418,2.79538,2.79538,0,0,1-.77832,1.02441,3.58972,3.58972,0,0,1-1.26172.68848,5.44492,5.44492,0,0,1-1.6875.24512h-5.375Zm4.94922,4.71973a2.03686,2.03686,0,0,0,1.26172-.36036,1.38358,1.38358,0,0,0,.02441-2.06445,1.93024,1.93024,0,0,0-1.2373-.36133h-2.62207V355.974Zm-2.57324,5.03125h2.73632a1.95587,1.95587,0,0,0,1.35254-.43458,1.47677,1.47677,0,0,0,.4834-1.15527,1.50893,1.50893,0,0,0-.541-1.26172,2.12834,2.12834,0,0,0-1.36036-.42578h-2.67089Z"/><path class="cls-6" d="M906.78687,436.19669a5.92552,5.92552,0,0,1-3.69532-1.00781,3.59307,3.59307,0,0,1-1.36816-2.876h2.32715a2.07124,2.07124,0,0,0,.7539,1.51563,3.21266,3.21266,0,0,0,1.88379.45117,4.42832,4.42832,0,0,0,.86914-.082,2.35942,2.35942,0,0,0,.72071-.26172,1.47465,1.47465,0,0,0,.5-.46777,1.24236,1.24236,0,0,0,.18847-.69629,1.15478,1.15478,0,0,0-.20508-.7041,1.575,1.575,0,0,0-.582-.46778,4.75168,4.75168,0,0,0-.90918-.32715q-.5332-.13915-1.2041-.28711-.78661-.18017-1.51562-.40136a4.57112,4.57112,0,0,1-1.27832-.59864,2.87972,2.87972,0,0,1-.88477-.96679,3.00909,3.00909,0,0,1-.33594-1.50684,3.29218,3.29218,0,0,1,.33594-1.52441,3.11975,3.11975,0,0,1,.93359-1.09766,4.191,4.191,0,0,1,1.418-.66406,6.89952,6.89952,0,0,1,1.80176-.2207,5.05735,5.05735,0,0,1,3.1875.93359,3.59245,3.59245,0,0,1,1.33594,2.7207h-2.27832a1.78162,1.78162,0,0,0-.7207-1.32812,2.59186,2.59186,0,0,0-1.54-.44239,2.77473,2.77473,0,0,0-1.541.377,1.15033,1.15033,0,0,0-.57324,1,1.07046,1.07046,0,0,0,.15527.59765,1.33761,1.33761,0,0,0,.47559.418,3.46765,3.46765,0,0,0,.79492.31153q.47461.13183,1.13086.27832.90089.19774,1.69531.43457a5.281,5.281,0,0,1,1.39356.63086,2.901,2.901,0,0,1,.94238,1,3.12744,3.12744,0,0,1,.34375,1.55664,3.51946,3.51946,0,0,1-.34375,1.58105,3.28512,3.28512,0,0,1-.95117,1.16406,4.36738,4.36738,0,0,1-1.44141.71289A6.4581,6.4581,0,0,1,906.78687,436.19669Z"/><path class="cls-6" d="M911.68628,427.52775h2.21191l1.0166,3.90039c.043.1748.08985.35547.13868.541.0498.18555.09082.35547.123.50781q.06592.27832.11524.52442h.03222c.03321-.17481.07129-.35449.11524-.541.03223-.15234.06836-.32226.10644-.50781a5.286,5.286,0,0,1,.13965-.541l1.04785-3.88379h1.90137l1.09766,3.88379q.06591.27978.13183.55761c.043.18555.08692.35547.13086.50781q.06445.27832.13086.52442h.03321q.04833-.24609.11425-.52442c.06543-.32812.15332-.67675.2627-1.04882l1.06445-3.90039h2.16309l-2.50684,8.40722h-2.03222l-1.11426-4.12988q-.082-.24609-.14746-.50781c-.044-.17481-.082-.333-.11426-.47559-.04395-.16406-.082-.32226-.11524-.47461h-.03222q-.06592.22852-.13184.47461c-.04394.14258-.08691.30078-.13086.47559s-.08789.34375-.13086.50781l-1.14746,4.12988h-2.01562Z"/><path class="cls-6" d="M924.55054,424.21818h2.22851v1.999h-2.22851Zm0,3.30957h2.22851V435.935h-2.22851Z"/><path class="cls-6" d="M927.72925,427.52775h1.16308v-2.6211H931.072v2.6211h1.44238v1.47558H931.072v4.457a.7901.7901,0,0,0,.22949.65528.954.954,0,0,0,.60645.18066h.42578a1.64941,1.64941,0,0,0,.22949-.0166v1.63867c-.10937.01074-.22949.0166-.36035.0166-.12012.01074-.26758.0166-.44238.0166h-.58985a3.66567,3.66567,0,0,1-.81152-.09082,2.024,2.024,0,0,1-.72949-.31933,1.71064,1.71064,0,0,1-.53223-.62305,2.10955,2.10955,0,0,1-.20508-.98242v-4.93262h-1.16308Z"/><path class="cls-6" d="M937.47925,436.18009a4.46975,4.46975,0,0,1-1.79395-.34375,3.97364,3.97364,0,0,1-1.35254-.94238,4.199,4.199,0,0,1-.86035-1.40918,4.943,4.943,0,0,1-.30273-1.74512,5.07572,5.07572,0,0,1,.29492-1.74512,4.14566,4.14566,0,0,1,.84375-1.40918,3.96751,3.96751,0,0,1,1.31934-.94238,4.21165,4.21165,0,0,1,1.7373-.34375,4.464,4.464,0,0,1,1.47461.22852,3.66348,3.66348,0,0,1,1.13867.63086,3.25516,3.25516,0,0,1,.78711.96777,4.03878,4.03878,0,0,1,.417,1.25293h-2.17871a1.69132,1.69132,0,0,0-.5166-.92578,1.45417,1.45417,0,0,0-1.02441-.36817,1.74635,1.74635,0,0,0-1.52344.71289,3.28531,3.28531,0,0,0-.50781,1.94141,3.425,3.425,0,0,0,.48339,1.92578,1.686,1.686,0,0,0,1.51563.72852,1.7616,1.7616,0,0,0,1.13086-.35157,1.63667,1.63667,0,0,0,.55664-1.07324h2.14648a3.35273,3.35273,0,0,1-1.10546,2.26953,3.61309,3.61309,0,0,1-1.16407.6875A4.28735,4.28735,0,0,1,937.47925,436.18009Z"/><path class="cls-6" d="M944.45972,428.62638h.0498a3.26117,3.26117,0,0,1,1.01563-1,2.77851,2.77851,0,0,1,1.42578-.32715,2.89233,2.89233,0,0,1,1.18847.23731,2.689,2.689,0,0,1,.90918.65527,3.04436,3.04436,0,0,1,.58985.99121,3.60872,3.60872,0,0,1,.21289,1.26172V435.935H947.6228v-5.16211a1.62081,1.62081,0,0,0-.37695-1.11425,1.36707,1.36707,0,0,0-1.08106-.42579,1.58028,1.58028,0,0,0-1.22167.53223,2.00559,2.00559,0,0,0-.4834,1.40137V435.935H942.2312V424.21818h2.22852Z"/><path class="cls-6" d="M244.02466,164.96622h5.53711a5.94305,5.94305,0,0,1,1.75635.2334,3.292,3.292,0,0,1,1.23681.6665,2.96052,2.96052,0,0,1,.98633,2.31836,2.31544,2.31544,0,0,1-.52783,1.56592,3.10084,3.10084,0,0,1-1.41016.90821v.05224a3.138,3.138,0,0,1,1.66992,1.10742,3.09235,3.09235,0,0,1,.63135,1.95508,3.73349,3.73349,0,0,1-.26807,1.49658,2.95838,2.95838,0,0,1-.82177,1.08155,3.78659,3.78659,0,0,1-1.33252.72656,5.72146,5.72146,0,0,1-1.78223.25976h-5.67529Zm5.22558,4.9834a2.14732,2.14732,0,0,0,1.332-.38086,1.46027,1.46027,0,0,0,.02636-2.18017,2.03958,2.03958,0,0,0-1.30664-.38086h-2.76855v2.94189Zm-2.71679,5.312h2.88965a2.06222,2.06222,0,0,0,1.42773-.45849,1.56141,1.56141,0,0,0,.51025-1.22022,1.5931,1.5931,0,0,0-.5708-1.332,2.25077,2.25077,0,0,0-1.43652-.45019h-2.82031Z"/><path class="cls-6" d="M258.69751,164.96622h2.59521l4.36084,12.37158h-2.61279l-.83056-2.62988h-4.46436l-.81348,2.62988h-2.54345Zm-.36328,7.8208h3.27l-1.10742-3.56445a5.40072,5.40072,0,0,1-.16407-.5708q-.07836-.32886-.16455-.62305-.08642-.3457-.17285-.70947h-.03467q-.104.36328-.19043.70947-.08641.29443-.16455.62305a5.3985,5.3985,0,0,1-.16406.5708Z"/><path class="cls-6" d="M264.49438,164.96622h9.94922v2.11084h-3.72021V177.3378H268.2146V167.07706h-3.72022Z"/><path class="cls-6" d="M275.36011,170.79728h3.40869v-3.5127h1.7998v3.5127h3.42578v1.73047H280.5686V176.04h-1.7998v-3.5122h-3.40869Z"/><path class="cls-5" d="M641.83667,89.60489a7.5877,7.5877,0,0,1-1.94238-.23242,4.40411,4.40411,0,0,1-1.501-.68994,3.23619,3.23619,0,0,1-.97461-1.14062,3.49327,3.49327,0,0,1-.36816-1.56787h2.6709a1.53407,1.53407,0,0,0,.61523,1.17041,2.60419,2.60419,0,0,0,1.48535.36035,3.32352,3.32352,0,0,0,.6377-.06006,1.81541,1.81541,0,0,0,.54785-.19531,1.153,1.153,0,0,0,.38965-.35254.89182.89182,0,0,0,.15039-.51758.84781.84781,0,0,0-.15821-.5249,1.25677,1.25677,0,0,0-.457-.36036,3.809,3.809,0,0,0-.73535-.26269q-.43506-.11207-.99023-.24756-.70606-.16479-1.3877-.375a4.64729,4.64729,0,0,1-1.22265-.57031,2.88322,2.88322,0,0,1-.87793-.915,2.64,2.64,0,0,1-.33789-1.39551,3.11725,3.11725,0,0,1,.33007-1.47754,2.92156,2.92156,0,0,1,.90039-1.02783,3.96181,3.96181,0,0,1,1.35059-.6001,6.91669,6.91669,0,0,1,1.68066-.19531,6.2924,6.2924,0,0,1,1.627.20264,4.00471,4.00471,0,0,1,1.32031.60791,3.01112,3.01112,0,0,1,.90039,1.02783,3.41088,3.41088,0,0,1,.38281,1.4624h-2.5957a1.32077,1.32077,0,0,0-.52539-.96,1.98682,1.98682,0,0,0-1.2002-.33008,2.01942,2.01942,0,0,0-1.125.27735.83991.83991,0,0,0-.41992.728.71251.71251,0,0,0,.15723.47266,1.264,1.264,0,0,0,.458.32227,4.4229,4.4229,0,0,0,.75781.24755q.457.1128,1.05762.24756.75.18018,1.43261.40528a4.47714,4.47714,0,0,1,1.208.60009,2.82638,2.82638,0,0,1,.83984.94532,2.91851,2.91851,0,0,1,.31543,1.42529,3.11291,3.11291,0,0,1-1.26757,2.58789,4.30587,4.30587,0,0,1-1.39551.67529A6.21646,6.21646,0,0,1,641.83667,89.60489Z"/><path class="cls-5" d="M651.00366,89.59025a4.45578,4.45578,0,0,1-1.6875-.30762,3.75286,3.75286,0,0,1-2.13086-2.14551,4.60142,4.60142,0,0,1,0-3.22607,3.75286,3.75286,0,0,1,2.13086-2.14551,4.785,4.785,0,0,1,3.376,0,3.73611,3.73611,0,0,1,1.29.85547,3.8681,3.8681,0,0,1,.82519,1.29,4.587,4.587,0,0,1,0,3.22607,3.86328,3.86328,0,0,1-.82519,1.29,3.73625,3.73625,0,0,1-1.29.85547A4.46449,4.46449,0,0,1,651.00366,89.59025Zm-.01465-1.74073a1.36223,1.36223,0,0,0,1.22266-.63769,3.06262,3.06262,0,0,0,.41309-1.688,3.10386,3.10386,0,0,0-.41309-1.69531,1.35908,1.35908,0,0,0-1.22266-.645,1.34255,1.34255,0,0,0-1.21582.645,3.157,3.157,0,0,0-.40429,1.69531,3.1149,3.1149,0,0,0,.40429,1.688A1.34556,1.34556,0,0,0,650.989,87.84952Z"/><path class="cls-5" d="M655.94019,78.62247h2.47558V89.35h-2.47558Z"/><path class="cls-5" d="M661.866,89.54484a3.579,3.579,0,0,1-1.05762-.14991,2.24943,2.24943,0,0,1-.832-.45019,2.088,2.088,0,0,1-.541-.73487,2.43794,2.43794,0,0,1-.19433-1.00537,2.18859,2.18859,0,0,1,.23242-1.05761,2.00841,2.00841,0,0,1,.63769-.70557,3.1632,3.1632,0,0,1,.9375-.42725,7.70121,7.70121,0,0,1,1.13282-.22509,7.4186,7.4186,0,0,0,1.51562-.3003.57454.57454,0,0,0,.43457-.55517.77248.77248,0,0,0-.24707-.6001,1.17592,1.17592,0,0,0-.80273-.2251,1.33667,1.33667,0,0,0-.88575.25537,1.09528,1.09528,0,0,0-.35937.73487h-2.251a2.53548,2.53548,0,0,1,.24024-1.02,2.45832,2.45832,0,0,1,.65234-.84033,3.17219,3.17219,0,0,1,1.07324-.56983,4.89733,4.89733,0,0,1,1.51465-.21045,5.88416,5.88416,0,0,1,1.47071.15772,2.91485,2.91485,0,0,1,1.0205.47265,2.1914,2.1914,0,0,1,.73535.915,3.20309,3.20309,0,0,1,.23926,1.27539v3.8711a3.89048,3.89048,0,0,0,.05274.72754.53209.53209,0,0,0,.21777.36767v.105h-2.37012a1.005,1.005,0,0,1-.15039-.3374,4.498,4.498,0,0,1-.10547-.51758h-.02929a2.55339,2.55339,0,0,1-.87793.76514A2.97825,2.97825,0,0,1,661.866,89.54484Zm.78027-1.56006a1.6349,1.6349,0,0,0,1.11816-.375,1.27039,1.27039,0,0,0,.42774-1.00537v-.915a3.57812,3.57812,0,0,1-.5625.21728q-.32373.09815-.69824.1875a3.15429,3.15429,0,0,0-1.02051.38281.73968.73968,0,0,0-.31445.65235.7258.7258,0,0,0,.2998.66015A1.34712,1.34712,0,0,0,662.64624,87.98478Z"/><path class="cls-5" d="M667.71753,81.66837h2.34082v1.2002h.04492a2.88684,2.88684,0,0,1,.90039-1.00537,2.1889,2.1889,0,0,1,1.2002-.315,1.31658,1.31658,0,0,1,.47949.06006v2.1001h-.05957a1.94964,1.94964,0,0,0-2.46094,2.19092V89.35h-2.44531Z"/><path class="cls-5" d="M632.68433,107.59464a5.40164,5.40164,0,0,1-2.16016-.42041,4.94544,4.94544,0,0,1-1.67285-1.1626,5.21423,5.21423,0,0,1-1.08008-1.76318,6.27518,6.27518,0,0,1-.38281-2.22022,6.4513,6.4513,0,0,1,.375-2.228,5.25272,5.25272,0,0,1,1.06543-1.77784,4.90611,4.90611,0,0,1,1.665-1.17822,5.36823,5.36823,0,0,1,2.17578-.42724,5.46067,5.46067,0,0,1,1.71777.25488,4.53758,4.53758,0,0,1,1.34277.69043,3.7308,3.7308,0,0,1,1.10254,1.29,4.77716,4.77716,0,0,1,.50293,1.66553h-2.65527a1.94293,1.94293,0,0,0-2.02539-1.69532,2.401,2.401,0,0,0-1.14063.25489,2.21658,2.21658,0,0,0-.79492.71289,3.31563,3.31563,0,0,0-.47265,1.08007,5.50551,5.50551,0,0,0-.15821,1.35791,4.8686,4.8686,0,0,0,.18067,1.35791,3.28739,3.28739,0,0,0,.51758,1.07276,2.47027,2.47027,0,0,0,.81054.70508,2.2193,2.2193,0,0,0,1.07227.25488,2.05826,2.05826,0,0,0,1.44824-.50244,1.99636,1.99636,0,0,0,.6377-1.28272h2.65527a4.204,4.204,0,0,1-.39746,1.51514,4.14265,4.14265,0,0,1-.89258,1.23047,4.22,4.22,0,0,1-1.46289.90771A5.71077,5.71077,0,0,1,632.68433,107.59464Z"/><path class="cls-5" d="M638.20581,96.62687h2.44629v3.99072h.04492a3.24557,3.24557,0,0,1,.94531-.8623,2.60961,2.60961,0,0,1,1.335-.30762,2.77052,2.77052,0,0,1,1.125.21728,2.44229,2.44229,0,0,1,.84083.6001,2.58042,2.58042,0,0,1,.52441.91553,3.65646,3.65646,0,0,1,.18066,1.17773v4.9961h-2.44531v-4.501a1.53736,1.53736,0,0,0-.30078-.99023,1.08383,1.08383,0,0,0-.90039-.375,1.20383,1.20383,0,0,0-.98242.4497,1.79161,1.79161,0,0,0-.36719,1.17041v4.2461h-2.44629Z"/><path class="cls-5" d="M649.02319,107.54923a3.579,3.579,0,0,1-1.05761-.1499,2.24942,2.24942,0,0,1-.832-.4502,2.08785,2.08785,0,0,1-.541-.73486,2.438,2.438,0,0,1-.19434-1.00537,2.18854,2.18854,0,0,1,.23243-1.05762,2.00832,2.00832,0,0,1,.63769-.70557,3.163,3.163,0,0,1,.9375-.42724,7.6995,7.6995,0,0,1,1.13281-.2251,7.41875,7.41875,0,0,0,1.51563-.30029.57455.57455,0,0,0,.43457-.55518.7725.7725,0,0,0-.24707-.6001,1.17593,1.17593,0,0,0-.80274-.22509,1.33666,1.33666,0,0,0-.88574.25537,1.09525,1.09525,0,0,0-.35937.73486h-2.251a2.53551,2.53551,0,0,1,.24023-1.02,2.45833,2.45833,0,0,1,.65235-.84033,3.17191,3.17191,0,0,1,1.07324-.56982,4.89733,4.89733,0,0,1,1.51465-.21045,5.88406,5.88406,0,0,1,1.4707.15771,2.91491,2.91491,0,0,1,1.02051.47266,2.19142,2.19142,0,0,1,.73535.915,3.20305,3.20305,0,0,1,.23926,1.27539v3.87109a3.89134,3.89134,0,0,0,.05273.72754.53218.53218,0,0,0,.21778.36768v.105H651.5896a1.00487,1.00487,0,0,1-.15039-.33741,4.49612,4.49612,0,0,1-.10547-.51757h-.0293a2.55338,2.55338,0,0,1-.87793.76513A2.97823,2.97823,0,0,1,649.02319,107.54923Zm.78028-1.56006a1.63492,1.63492,0,0,0,1.11816-.375,1.27039,1.27039,0,0,0,.42774-1.00537v-.915a3.57809,3.57809,0,0,1-.5625.21729q-.32375.09814-.69825.1875a3.154,3.154,0,0,0-1.0205.38281.73964.73964,0,0,0-.31446.65234.72582.72582,0,0,0,.29981.66016A1.34715,1.34715,0,0,0,649.80347,105.98917Z"/><path class="cls-5" d="M654.87476,99.67277h2.34082V100.873h.04492a2.88684,2.88684,0,0,1,.90039-1.00537,2.189,2.189,0,0,1,1.20019-.31494,1.31664,1.31664,0,0,1,.4795.06006v2.10009H659.781a1.94965,1.94965,0,0,0-2.46094,2.19092v3.45069h-2.44531Z"/><path class="cls-5" d="M664.04175,110.01017a4.73884,4.73884,0,0,1-2.58106-.63037,2.51707,2.51707,0,0,1-1.16992-1.84522h2.3711a1.09213,1.09213,0,0,0,.41992.5249,1.59442,1.59442,0,0,0,.92968.2251,1.45238,1.45238,0,0,0,1.126-.38232,1.57224,1.57224,0,0,0,.34473-1.08789v-.76514h-.06055a2.90613,2.90613,0,0,1-.80176.6377,2.432,2.432,0,0,1-1.16308.24755,3.31535,3.31535,0,0,1-1.24512-.24023,3.18512,3.18512,0,0,1-1.06543-.69775,3.33605,3.33605,0,0,1-.74316-1.14014,4.14535,4.14535,0,0,1-.27735-1.56787,4.90412,4.90412,0,0,1,.23242-1.54541,3.65034,3.65034,0,0,1,.66016-1.21533,3.04,3.04,0,0,1,1.02051-.79541,2.99579,2.99579,0,0,1,1.3125-.28467,2.68419,2.68419,0,0,1,1.291.28467,2.57409,2.57409,0,0,1,.87012.76562h.0293v-.82519h2.34082v6.93164a3.70894,3.70894,0,0,1-.27735,1.5,3.04339,3.04339,0,0,1-.74316,1.05029,3.0881,3.0881,0,0,1-1.2373.65283A5.89808,5.89808,0,0,1,664.04175,110.01017Zm-.01465-4.89112a1.3325,1.3325,0,0,0,1.17773-.55517,2.34975,2.34975,0,0,0,.38184-1.36572,2.71307,2.71307,0,0,0-.09668-.73487,1.77284,1.77284,0,0,0-.30078-.60791,1.458,1.458,0,0,0-.49512-.41259,1.44282,1.44282,0,0,0-.667-.14991,1.33864,1.33864,0,0,0-1.10352.51758,2.194,2.194,0,0,0-.41211,1.40283,2.168,2.168,0,0,0,.41211,1.38819A1.34,1.34,0,0,0,664.0271,105.11905Z"/><path class="cls-5" d="M672.80347,107.5795a4.54637,4.54637,0,0,1-1.71-.30761,3.63678,3.63678,0,0,1-1.29-.855,3.7895,3.7895,0,0,1-.81055-1.29786,4.51665,4.51665,0,0,1-.28516-1.6206,4.411,4.411,0,0,1,.28516-1.59766,3.80446,3.80446,0,0,1,.81055-1.29052,3.72786,3.72786,0,0,1,1.24511-.855,4.37494,4.37494,0,0,1,3.083-.05274,3.6844,3.6844,0,0,1,1.14746.70508,3.83251,3.83251,0,0,1,1.02832,1.59814,6.22425,6.22425,0,0,1,.32227,2.1377h-5.52149a2.25569,2.25569,0,0,0,.54,1.23047,1.54244,1.54244,0,0,0,1.18555.45019,1.44045,1.44045,0,0,0,.79492-.20263,1.297,1.297,0,0,0,.48047-.5625h2.38574a2.84262,2.84262,0,0,1-.45019.99755,3.19249,3.19249,0,0,1-.83985.81788,3.63607,3.63607,0,0,1-1.07324.5249A4.56065,4.56065,0,0,1,672.80347,107.5795Zm1.35058-4.89111a1.80851,1.80851,0,0,0-.46484-1.09521,1.31813,1.31813,0,0,0-.99024-.40528,1.39832,1.39832,0,0,0-1.08007.40528,2.08636,2.08636,0,0,0-.49512,1.09521Z"/><path class="cls-5" d="M677.45483,99.67277h2.34082V100.873h.04493a2.89628,2.89628,0,0,1,.90039-1.00537,2.19126,2.19126,0,0,1,1.20019-.31494,1.31922,1.31922,0,0,1,.48047.06006v2.10009h-.06055a1.94863,1.94863,0,0,0-2.46,2.19092v3.45069h-2.44629Z"/><path class="cls-5" d="M751.85229,73.27482h4.57618a5.11113,5.11113,0,0,1,2.02539.39013,4.53142,4.53142,0,0,1,1.56836,1.09522,4.94343,4.94343,0,0,1,1.01269,1.71045,6.61131,6.61131,0,0,1,.35938,2.23535,6.29236,6.29236,0,0,1-.4795,2.52832,4.45182,4.45182,0,0,1-1.38085,1.793,4.53854,4.53854,0,0,1-1.44043.72754,6.25744,6.25744,0,0,1-1.83008.24756h-4.41114Zm4.21583,8.49218a2.43772,2.43772,0,0,0,1.98046-.78808,3.44856,3.44856,0,0,0,.66016-2.273,3.71929,3.71929,0,0,0-.6748-2.34033,2.30508,2.30508,0,0,0-1.93555-.87012h-1.59082V81.767Z"/><path class="cls-5" d="M767.29077,84.24259a5.39821,5.39821,0,0,1-2.16015-.42041,4.95912,4.95912,0,0,1-1.67383-1.1626,5.21432,5.21432,0,0,1-1.08008-1.76318,6.275,6.275,0,0,1-.38184-2.22022,6.42849,6.42849,0,0,1,.375-2.228,5.25059,5.25059,0,0,1,1.06446-1.77784,4.91,4.91,0,0,1,1.666-1.17822,5.365,5.365,0,0,1,2.17578-.42724,5.46505,5.46505,0,0,1,1.71778.25488,4.56188,4.56188,0,0,1,1.34277.69043,3.75181,3.75181,0,0,1,1.10254,1.29,4.798,4.798,0,0,1,.50293,1.66552h-2.65625a1.94294,1.94294,0,0,0-2.02539-1.69531,2.39437,2.39437,0,0,0-1.13965.25488,2.21954,2.21954,0,0,0-.7959.7129,3.33644,3.33644,0,0,0-.47266,1.08007,5.554,5.554,0,0,0-.15722,1.35791,4.86928,4.86928,0,0,0,.17969,1.35791,3.30723,3.30723,0,0,0,.51757,1.07276,2.48026,2.48026,0,0,0,.81055.70508,2.22584,2.22584,0,0,0,1.07324.25488,2.05743,2.05743,0,0,0,1.44727-.50244,1.98724,1.98724,0,0,0,.63769-1.28272h2.65528a4.18436,4.18436,0,0,1-.39746,1.51514,4.12551,4.12551,0,0,1-.89258,1.23047,4.21117,4.21117,0,0,1-1.46289.90771A5.705,5.705,0,0,1,767.29077,84.24259Z"/><path class="cls-5" d="M775.28784,73.27482h4.83106a5.14132,5.14132,0,0,1,1.71093.25488,3.31216,3.31216,0,0,1,1.21485.73535,3.1858,3.1858,0,0,1,.80273,1.15527,3.87963,3.87963,0,0,1,.27735,1.48536,3.80211,3.80211,0,0,1-.25489,1.41015,3.16681,3.16681,0,0,1-.72754,1.11035,3.33437,3.33437,0,0,1-1.14746.72754,4.10793,4.10793,0,0,1-1.501.2627H777.989v3.58594h-2.70117Zm4.666,5.041a1.5004,1.5004,0,0,0,1.11035-.39013,1.40008,1.40008,0,0,0,.39062-1.03516,1.3263,1.3263,0,0,0-.39062-1.0127,1.55623,1.55623,0,0,0-1.11035-.36767H777.989v2.80566Z"/><path class="cls-5" d="M784.9353,73.27482h2.47559V84.00236H784.9353Z"/><path class="cls-5" d="M791.23608,84.22745a2.52609,2.52609,0,0,1-2.01757-.78759,3.06114,3.06114,0,0,1-.68262-2.07813v-5.041h2.43066v4.53077a1.45782,1.45782,0,0,0,.28516.96777,1.07375,1.07375,0,0,0,.87012.33789,1.22566,1.22566,0,0,0,.99023-.42773,1.67607,1.67607,0,0,0,.36035-1.11768v-4.291h2.44531v7.68165H793.5769V83.057H793.532a3.05311,3.05311,0,0,1-.95215.87012A2.70914,2.70914,0,0,1,791.23608,84.22745Z"/><path class="cls-5" d="M800.35815,84.24259a4.44293,4.44293,0,0,1-2.68554-.728,2.50256,2.50256,0,0,1-1.04981-2.00293h2.31055a1.242,1.242,0,0,0,.43457.85547,1.53117,1.53117,0,0,0,.97559.28516,1.69053,1.69053,0,0,0,.87793-.19531.62677.62677,0,0,0,.32226-.57032.544.544,0,0,0-.165-.41259,1.22737,1.22737,0,0,0-.43554-.25489,3.26637,3.26637,0,0,0-.62208-.1499q-.353-.05274-.72753-.12744-.49512-.09009-.99024-.21777a3.04459,3.04459,0,0,1-.89258-.38233,1.89385,1.89385,0,0,1-.63769-.6831,2.23428,2.23428,0,0,1-.24024-1.10254,2.12271,2.12271,0,0,1,.2627-1.06543,2.29076,2.29076,0,0,1,.71191-.77246,3.35485,3.35485,0,0,1,1.0586-.46534,5.08562,5.08562,0,0,1,1.28222-.15722,4.08537,4.08537,0,0,1,2.50586.66015,2.38859,2.38859,0,0,1,.96,1.8003h-2.25a.91519.91519,0,0,0-.39843-.71289,1.64,1.64,0,0,0-.832-.1875,1.5258,1.5258,0,0,0-.75781.17285.5696.5696,0,0,0-.30761.53222.397.397,0,0,0,.15039.33008,1.249,1.249,0,0,0,.40429.20264,4.41776,4.41776,0,0,0,.59278.14258q.33837.06006.69824.12011.50976.09009,1.02734.21778a3.18188,3.18188,0,0,1,.94531.39746,2.11569,2.11569,0,0,1,.69727.72754,2.32243,2.32243,0,0,1,.27051,1.19287,2.28113,2.28113,0,0,1-.2627,1.11035,2.25808,2.25808,0,0,1-.72754.79492,3.52511,3.52511,0,0,1-1.11035.48047A5.62563,5.62563,0,0,1,800.35815,84.24259Z"/><path class="cls-5" d="M757.6062,91.27921H762.783a4.842,4.842,0,0,1,1.45508.19483,3.2598,3.2598,0,0,1,1.0498.54052,2.524,2.524,0,0,1,.93067,2.05518,2.10909,2.10909,0,0,1-.39063,1.32031,2.42292,2.42292,0,0,1-1.11035.78027v.04493a2.65886,2.65886,0,0,1,1.40332.96777,2.70847,2.70847,0,0,1,.51758,1.6582,3.2009,3.2009,0,0,1-.28516,1.40283,2.74922,2.74922,0,0,1-.81055.99756,4.16428,4.16428,0,0,1-2.64062.76514h-5.2959Zm4.78613,4.24609a1.47963,1.47963,0,0,0,.93067-.27783,1.07418,1.07418,0,0,0,.01465-1.59033,1.44289,1.44289,0,0,0-.93067-.27734h-2.1748v2.1455Zm.21,4.35108a1.47054,1.47054,0,0,0,1.03516-.34522,1.18406,1.18406,0,0,0,.375-.915,1.154,1.154,0,0,0-.41211-.96777,1.61837,1.61837,0,0,0-1.02832-.32275h-2.33984v2.55078Z"/><path class="cls-5" d="M771.43921,102.247a4.45578,4.45578,0,0,1-1.6875-.30761,3.75286,3.75286,0,0,1-2.13086-2.14551,4.60142,4.60142,0,0,1,0-3.22607,3.75286,3.75286,0,0,1,2.13086-2.14551,4.785,4.785,0,0,1,3.376,0,3.736,3.736,0,0,1,1.29.85547,3.868,3.868,0,0,1,.8252,1.29,4.587,4.587,0,0,1,0,3.22607,3.86315,3.86315,0,0,1-.8252,1.29,3.73611,3.73611,0,0,1-1.29.85547A4.46449,4.46449,0,0,1,771.43921,102.247Zm-.01465-1.74072a1.36223,1.36223,0,0,0,1.22266-.63769,3.06262,3.06262,0,0,0,.41308-1.688,3.10386,3.10386,0,0,0-.41308-1.69531,1.35908,1.35908,0,0,0-1.22266-.645,1.34255,1.34255,0,0,0-1.21582.645,3.157,3.157,0,0,0-.4043,1.69531,3.1149,3.1149,0,0,0,.4043,1.688A1.34556,1.34556,0,0,0,771.42456,100.50626Z"/><path class="cls-5" d="M778.62573,102.20157a3.579,3.579,0,0,1-1.05761-.1499,2.24955,2.24955,0,0,1-.832-.45019,2.088,2.088,0,0,1-.541-.73487,2.438,2.438,0,0,1-.19434-1.00537,2.18866,2.18866,0,0,1,.23242-1.05762,2.0085,2.0085,0,0,1,.6377-.70556,3.163,3.163,0,0,1,.9375-.42725,7.7008,7.7008,0,0,1,1.13281-.2251,7.41875,7.41875,0,0,0,1.51563-.30029.57454.57454,0,0,0,.43457-.55517.77247.77247,0,0,0-.24707-.6001,1.17593,1.17593,0,0,0-.80274-.2251,1.33666,1.33666,0,0,0-.88574.25537,1.09525,1.09525,0,0,0-.35937.73487h-2.251a2.53531,2.53531,0,0,1,.24023-1.02,2.45836,2.45836,0,0,1,.65235-.84034,3.17226,3.17226,0,0,1,1.07324-.56982,4.89733,4.89733,0,0,1,1.51465-.21045,5.88406,5.88406,0,0,1,1.4707.15771,2.91509,2.91509,0,0,1,1.02051.47266,2.19148,2.19148,0,0,1,.73535.915,3.20309,3.20309,0,0,1,.23926,1.27539v3.87109a3.89134,3.89134,0,0,0,.05273.72754.5321.5321,0,0,0,.21778.36768v.105h-2.37012a1.00481,1.00481,0,0,1-.15039-.3374,4.49633,4.49633,0,0,1-.10547-.51758h-.0293a2.5536,2.5536,0,0,1-.87793.76514A2.97823,2.97823,0,0,1,778.62573,102.20157Zm.78028-1.56005a1.63492,1.63492,0,0,0,1.11816-.375,1.27038,1.27038,0,0,0,.42773-1.00538v-.915a3.57833,3.57833,0,0,1-.5625.21728q-.32373.09815-.69824.1875a3.15416,3.15416,0,0,0-1.02051.38281.73968.73968,0,0,0-.31445.65235.72582.72582,0,0,0,.29981.66015A1.34716,1.34716,0,0,0,779.406,100.64152Z"/><path class="cls-5" d="M784.47729,94.32511h2.34083V95.5253h.04492a2.88684,2.88684,0,0,1,.90039-1.00537,2.189,2.189,0,0,1,1.20019-.31494,1.31664,1.31664,0,0,1,.4795.06006v2.1001h-.05958a1.94963,1.94963,0,0,0-2.46093,2.19092v3.45068h-2.44532Z"/><path class="cls-5" d="M793.0896,102.247a3.246,3.246,0,0,1-1.35059-.27783,3.024,3.024,0,0,1-1.06543-.80273,3.72112,3.72112,0,0,1-.69726-1.28272,5.51844,5.51844,0,0,1-.24805-1.71777,5.2411,5.2411,0,0,1,.24805-1.65039,3.89151,3.89151,0,0,1,.68945-1.28272,3.168,3.168,0,0,1,1.05762-.833A3.07818,3.07818,0,0,1,793.0896,94.1a2.44561,2.44561,0,0,1,1.30469.30762,2.93536,2.93536,0,0,1,.84082.7876H795.28v-3.916h2.44531v10.72754h-2.34082v-1.03516h-.03027a2.51366,2.51366,0,0,1-.92188.9375A2.61456,2.61456,0,0,1,793.0896,102.247Zm.62988-1.93554a1.38211,1.38211,0,0,0,1.19239-.6001,2.60137,2.60137,0,0,0,.42773-1.54541,3.85685,3.85685,0,0,0-.09766-.89307,2.05541,2.05541,0,0,0-.2998-.70507,1.48793,1.48793,0,0,0-.49512-.45752,1.4,1.4,0,0,0-.69726-.165,1.29326,1.29326,0,0,0-1.14063.60791,3.33586,3.33586,0,0,0-.00781,3.17285A1.27487,1.27487,0,0,0,793.71948,100.31144Z"/><line class="cls-7" x1="603.76093" y1="58.46149" x2="603.76093" y2="70.05456"/><line class="cls-7" x1="609.55747" y1="64.25802" x2="597.9644" y2="64.25802"/><line class="cls-7" x1="730.86963" y1="58.46149" x2="730.86963" y2="70.05456"/><line class="cls-7" x1="736.66616" y1="64.25802" x2="725.07309" y2="64.25802"/><line class="cls-8" x1="895.2317" y1="33.2331" x2="895.2317" y2="44.82617"/><line class="cls-8" x1="901.02824" y1="39.02964" x2="889.43516" y2="39.02964"/><line class="cls-7" x1="609.55747" y1="111.50021" x2="597.9644" y2="111.50021"/><line class="cls-7" x1="732.03573" y1="111.50021" x2="720.44266" y2="111.50021"/><line class="cls-8" x1="901.02824" y1="64.25802" x2="889.43516" y2="64.25802"/><line class="cls-8" x1="895.2317" y1="90.38402" x2="895.2317" y2="101.97709"/><line class="cls-8" x1="901.02824" y1="96.18056" x2="889.43516" y2="96.18056"/><line class="cls-8" x1="901.02824" y1="121.40895" x2="889.43516" y2="121.40895"/><line class="cls-8" x1="895.2317" y1="184.43181" x2="895.2317" y2="196.02488"/><line class="cls-8" x1="901.02824" y1="190.22835" x2="889.43516" y2="190.22835"/><line class="cls-8" x1="901.02824" y1="249.10891" x2="889.43516" y2="249.10891"/><line class="cls-9" x1="689.84814" y1="72.65234" x2="689.84814" y2="93.50074"/></g></g></svg>