<svg xmlns="http://www.w3.org/2000/svg" viewBox="0 0 586.91311 104.87598"><defs><style>.cls-1{fill:#006ac6;}.cls-2{fill:none;stroke:#333;stroke-miterlimit:10;}.cls-3{fill:#333;}.cls-4{fill:#fff;}</style></defs><g id="Layer_2" data-name="Layer 2"><g id="Layer_1-2" data-name="Layer 1"><path class="cls-1" d="M5.11243.00644H134.19191a5.11246,5.11246,0,0,1,5.11246,5.11246V99.76352a5.11243,5.11243,0,0,1-5.11243,5.11243H5.11246A5.11246,5.11246,0,0,1,0,99.76349V5.11886A5.11243,5.11243,0,0,1,5.11243.00644Z"/><rect class="cls-1" x="212.08696" y="0.00641" width="139.30435" height="104.86957" rx="5.11246"/><rect class="cls-1" x="447.60876" width="139.30435" height="104.86957" rx="5.11246"/><line class="cls-2" x1="351.39131" y1="35.9738" x2="447.6087" y2="35.9738"/><line class="cls-2" x1="351.39131" y1="52.44119" x2="447.6087" y2="52.44119"/><line class="cls-2" x1="351.39131" y1="69.7238" x2="447.6087" y2="69.7238"/><line class="cls-2" x1="351.39131" y1="93.69119" x2="447.6087" y2="93.69119"/><line class="cls-2" x1="139.30437" y1="44.72924" x2="212.08696" y2="44.72924"/><line class="cls-2" x1="139.30437" y1="69.90315" x2="212.08696" y2="69.90315"/><line class="cls-2" x1="197.69837" y1="63.65859" x2="205.72011" y2="63.65859"/><line class="cls-2" x1="353.18479" y1="46.57163" x2="361.20653" y2="46.57163"/><line class="cls-2" x1="197.69837" y1="39.07978" x2="205.72011" y2="39.07978"/><line class="cls-2" x1="201.70924" y1="35.06891" x2="201.70924" y2="43.09065"/><line class="cls-2" x1="353.18479" y1="29.49282" x2="361.20653" y2="29.49282"/><line class="cls-2" x1="357.19566" y1="25.48195" x2="357.19566" y2="33.50369"/><path class="cls-3" d="M354.89277,59.88436h3.22265a2.86912,2.86912,0,0,1,.92871.14258,2.13126,2.13126,0,0,1,.7129.39844,1.75256,1.75256,0,0,1,.45605.61426,1.9142,1.9142,0,0,1,.16211.80078,1.84565,1.84565,0,0,1-.30469,1.06543,1.66546,1.66546,0,0,1-.98242.63379v.02929a1.43357,1.43357,0,0,1,.74219.457,1.81019,1.81019,0,0,1,.3291.958q.03956.37355.05371.69239.01466.31934.04.56543a1.97824,1.97824,0,0,0,.07324.40234.29761.29761,0,0,0,.1377.19726v.06836h-1.36621c-.0459-.01953-.082-.08007-.10743-.18164a2.72859,2.72859,0,0,1-.06445-.37793c-.01562-.15136-.03125-.31836-.04394-.50195-.0127-.18262-.02637-.36914-.03907-.55957a1.331,1.331,0,0,0-.37793-.88965,1.41414,1.41414,0,0,0-.998-.30859h-1.14942v2.81933h-1.4248Zm1.4248,3.10547h1.51367a1.22981,1.22981,0,0,0,.874-.27051.91368.91368,0,0,0,.28515-.69238.9749.9749,0,0,0-.27539-.71289,1.13826,1.13826,0,0,0-.84472-.2793h-1.55274Z"/><path class="cls-3" d="M364.01093,67.067a3.55243,3.55243,0,0,1-2.21582-.60449,2.15376,2.15376,0,0,1-.82031-1.72363h1.39551a1.245,1.245,0,0,0,.45215.9082,1.924,1.924,0,0,0,1.12988.27051,2.69215,2.69215,0,0,0,.52051-.04883,1.44427,1.44427,0,0,0,.43261-.15723.89784.89784,0,0,0,.29981-.28027.74427.74427,0,0,0,.1123-.418.69839.69839,0,0,0-.12207-.42188.94622.94622,0,0,0-.34961-.28027,2.82222,2.82222,0,0,0-.54492-.19629q-.31934-.08349-.72168-.17187c-.31445-.07227-.61816-.15235-.90918-.24121a2.74994,2.74994,0,0,1-.7666-.3584,1.71849,1.71849,0,0,1-.53027-.58008,1.80338,1.80338,0,0,1-.20118-.90332,1.9699,1.9699,0,0,1,.20118-.91406,1.863,1.863,0,0,1,.55957-.65821,2.52636,2.52636,0,0,1,.85058-.39843,4.15888,4.15888,0,0,1,1.08008-.13184,3.03527,3.03527,0,0,1,1.91113.55957,2.15246,2.15246,0,0,1,.80078,1.63086h-1.36523a1.06885,1.06885,0,0,0-.43262-.7959,1.55465,1.55465,0,0,0-.92382-.26465,1.659,1.659,0,0,0-.92286.22559.68864.68864,0,0,0-.34472.59961.63943.63943,0,0,0,.09375.3584.80817.80817,0,0,0,.28515.251,2.17488,2.17488,0,0,0,.47657.18653c.18945.05175.416.10742.67773.167q.54053.11718,1.0166.25976a3.18579,3.18579,0,0,1,.835.37891,1.73477,1.73477,0,0,1,.56543.59863,1.87746,1.87746,0,0,1,.20606.9336,2.111,2.111,0,0,1-.20606.94824,1.97189,1.97189,0,0,1-.57031.69727,2.59491,2.59491,0,0,1-.86426.42773A3.8363,3.8363,0,0,1,364.01093,67.067Z"/><path class="cls-3" d="M370.39765,65.44589h-3.10547V64.00155l3.05567-3.90039h1.35644V64.3746h1.02149v1.07129h-1.02149v1.46386h-1.30664Zm-2.02441-1.07129h2.02441V61.76132h-.01953l-2.00488,2.584Z"/><path class="cls-3" d="M375.91816,67.05721a4.02164,4.02164,0,0,1-1.07031-.13769,2.70537,2.70537,0,0,1-.87012-.40234,1.99729,1.99729,0,0,1-.584-.65332,1.95973,1.95973,0,0,1,.11719-1.99024,1.94239,1.94239,0,0,1,.89453-.67773v-.0293a1.792,1.792,0,0,1-.69726-.52539,1.29071,1.29071,0,0,1-.2461-.81152,1.59848,1.59848,0,0,1,.17676-.75586,1.62821,1.62821,0,0,1,.501-.56543,2.3808,2.3808,0,0,1,.77148-.34864,3.93323,3.93323,0,0,1,.99707-.11816,3.88757,3.88757,0,0,1,.98731.11816,2.24427,2.24427,0,0,1,.75683.34375,1.55506,1.55506,0,0,1,.65332,1.30664,1.3263,1.3263,0,0,1-.24511.80567,1.75544,1.75544,0,0,1-.68848.541v.0293a1.80671,1.80671,0,0,1,.88965.64844,1.769,1.769,0,0,1,.3291,1.07129,2.04282,2.04282,0,0,1-.20117.92285,1.88961,1.88961,0,0,1-.56055.67285,2.59,2.59,0,0,1-.84961.41309A3.8059,3.8059,0,0,1,375.91816,67.05721Zm-.0293-1.08105a1.50131,1.50131,0,0,0,.958-.29.92881.92881,0,0,0,.36816-.77051,1.06292,1.06292,0,0,0-.34375-.83105,1.38958,1.38958,0,0,0-.96289-.3086,1.46732,1.46732,0,0,0-.98242.3086,1.03706,1.03706,0,0,0-.36328.83105.93947.93947,0,0,0,.35352.78028A1.52476,1.52476,0,0,0,375.88886,65.97616Zm0-3.13379a1.21708,1.21708,0,0,0,.82031-.251.82219.82219,0,0,0,.29-.65332.7946.7946,0,0,0-.29-.64355,1.25233,1.25233,0,0,0-.82031-.24023,1.27227,1.27227,0,0,0-.82519.24023.79009.79009,0,0,0-.29493.64355.81732.81732,0,0,0,.29493.65332A1.23623,1.23623,0,0,0,375.88886,62.84237Z"/><path class="cls-3" d="M381.65644,67.05721a3.61291,3.61291,0,0,1-1.03711-.14257,2.54452,2.54452,0,0,1-.83008-.41309,2.17635,2.17635,0,0,1-.57519-.6582,2.20169,2.20169,0,0,1-.26953-.87891h1.3164a1.035,1.035,0,0,0,.46192.73731,1.66536,1.66536,0,0,0,.90332.23535,1.18018,1.18018,0,0,0,.91406-.36328,1.28612,1.28612,0,0,0,.334-.9043,1.16578,1.16578,0,0,0-.3584-.919,1.293,1.293,0,0,0-.88964-.31933,1.62695,1.62695,0,0,0-.668.12793,1.24282,1.24282,0,0,0-.43164.29492h-1.28711l.64843-3.6748h3.96875v1.11035H380.8205l-.25488,1.4541h.01953a1.62167,1.62167,0,0,1,.5752-.30957,2.67361,2.67361,0,0,1,.82031-.11231,2.31371,2.31371,0,0,1,.85449.16211,2.19739,2.19739,0,0,1,1.23828,1.208,2.47444,2.47444,0,0,1,.18653.97754,2.265,2.265,0,0,1-.752,1.71973,2.53485,2.53485,0,0,1-.82519.49121A2.92092,2.92092,0,0,1,381.65644,67.05721Z"/><path class="cls-3" d="M384.83906,63.19589h1.93554V61.20175h1.02149v1.99414h1.94629v.98242h-1.94629v1.99414H386.7746V64.17831h-1.93554Z"/><path class="cls-4" d="M46.10126,50.25643a12.5785,12.5785,0,0,1-3.22754-.38672,7.30332,7.30332,0,0,1-2.49218-1.14648,5.38648,5.38648,0,0,1-1.62012-1.89355,5.81213,5.81213,0,0,1-.61035-2.6045h4.43555a2.55245,2.55245,0,0,0,1.02246,1.94336,4.32311,4.32311,0,0,0,2.46679.59864,5.532,5.532,0,0,0,1.05957-.09961,3.02822,3.02822,0,0,0,.90918-.32422,1.91258,1.91258,0,0,0,.64844-.58594,1.4753,1.4753,0,0,0,.249-.85937,1.41037,1.41037,0,0,0-.26171-.87208,2.10827,2.10827,0,0,0-.75977-.59863,6.233,6.233,0,0,0-1.22168-.43554q-.72218-.1875-1.64453-.41114-1.17187-.27391-2.30567-.623a7.78727,7.78727,0,0,1-2.03125-.94727,4.81784,4.81784,0,0,1-1.458-1.52051,4.39813,4.39813,0,0,1-.56055-2.31738,5.1646,5.1646,0,0,1,.54883-2.45508,4.84212,4.84212,0,0,1,1.49512-1.707,6.56912,6.56912,0,0,1,2.24316-.99707,11.48461,11.48461,0,0,1,2.791-.32422,10.42317,10.42317,0,0,1,2.70411.33691,6.65173,6.65173,0,0,1,2.19336,1.00879,5.04021,5.04021,0,0,1,1.49511,1.707,5.67819,5.67819,0,0,1,.63575,2.43066H48.49384a2.20443,2.20443,0,0,0-.87207-1.5957,3.30317,3.30317,0,0,0-1.99414-.54786,3.3434,3.3434,0,0,0-1.86914.46094,1.3939,1.3939,0,0,0-.69824,1.209,1.18337,1.18337,0,0,0,.26172.78515,2.08939,2.08939,0,0,0,.76074.53516,7.39635,7.39635,0,0,0,1.25781.41113q.76026.1875,1.75781.41113,1.24512.3003,2.37989.67383a7.42051,7.42051,0,0,1,2.00586.9961,4.69746,4.69746,0,0,1,1.3955,1.57031,4.8415,4.8415,0,0,1,.52344,2.36816,5.16632,5.16632,0,0,1-2.10547,4.29883,7.15212,7.15212,0,0,1-2.31836,1.12109A10.28749,10.28749,0,0,1,46.10126,50.25643Z"/><path class="cls-4" d="M61.32783,50.231a7.38581,7.38581,0,0,1-2.80371-.51074,6.22808,6.22808,0,0,1-3.53907-3.56348,7.623,7.623,0,0,1,0-5.35839A6.226,6.226,0,0,1,58.52412,37.234a7.95086,7.95086,0,0,1,5.60742,0,6.20664,6.20664,0,0,1,2.14355,1.4209,6.40721,6.40721,0,0,1,1.37012,2.14356,7.623,7.623,0,0,1,0,5.35839,6.39319,6.39319,0,0,1-1.37012,2.14258,6.1792,6.1792,0,0,1-2.14355,1.4209A7.38588,7.38588,0,0,1,61.32783,50.231Zm-.02539-2.89062a2.26142,2.26142,0,0,0,2.03125-1.05957,5.09306,5.09306,0,0,0,.68554-2.80371,5.16183,5.16183,0,0,0-.68554-2.81641,2.25679,2.25679,0,0,0-2.03125-1.07129,2.22856,2.22856,0,0,0-2.01856,1.07129,5.24149,5.24149,0,0,0-.67285,2.81641,5.1714,5.1714,0,0,0,.67285,2.80371A2.233,2.233,0,0,0,61.30244,47.34042Z"/><path class="cls-4" d="M69.528,32.01327h4.11231V49.83261H69.528Z"/><path class="cls-4" d="M79.37177,50.15682a5.97672,5.97672,0,0,1-1.75683-.249,3.76579,3.76579,0,0,1-1.38379-.748,3.46444,3.46444,0,0,1-.89649-1.22168,4.02964,4.02964,0,0,1-.32422-1.66894,3.63881,3.63881,0,0,1,.38575-1.75781,3.338,3.338,0,0,1,1.05957-1.1709,5.23721,5.23721,0,0,1,1.55761-.71,12.78357,12.78357,0,0,1,1.88184-.374,12.22535,12.22535,0,0,0,2.5166-.499.95393.95393,0,0,0,.72266-.92187,1.28136,1.28136,0,0,0-.41114-.99708,1.95166,1.95166,0,0,0-1.333-.374,2.2203,2.2203,0,0,0-1.47071.42383A1.83325,1.83325,0,0,0,79.322,41.11H75.58369a4.23214,4.23214,0,0,1,.39843-1.69531,4.07778,4.07778,0,0,1,1.084-1.39551,5.261,5.261,0,0,1,1.78222-.94629,8.12634,8.12634,0,0,1,2.51758-.34961,9.79948,9.79948,0,0,1,2.44238.26172,4.85818,4.85818,0,0,1,1.69434.78516,3.63461,3.63461,0,0,1,1.2207,1.5205,5.29366,5.29366,0,0,1,.39942,2.11817v6.42968a6.45558,6.45558,0,0,0,.08691,1.209.881.881,0,0,0,.36133.61035v.17481h-3.9375a1.6631,1.6631,0,0,1-.249-.56055,7.20346,7.20346,0,0,1-.17481-.86035h-.0498a4.22192,4.22192,0,0,1-1.458,1.27148A4.94346,4.94346,0,0,1,79.37177,50.15682Zm1.2959-2.59179a2.71511,2.71511,0,0,0,1.85645-.623,2.11054,2.11054,0,0,0,.71093-1.66992V43.75155a5.95921,5.95921,0,0,1-.93457.36133q-.5376.1626-1.15918.31152a5.20089,5.20089,0,0,0-1.69531.63574,1.2305,1.2305,0,0,0-.52246,1.084,1.20519,1.20519,0,0,0,.49805,1.09668A2.24346,2.24346,0,0,0,80.66767,47.565Z"/><path class="cls-4" d="M89.09052,37.07284h3.8877V39.066h.07519a4.81445,4.81445,0,0,1,1.49512-1.66992,3.64185,3.64185,0,0,1,1.99414-.52344,2.22308,2.22308,0,0,1,.79785.09961v3.48926h-.10058A3.23788,3.23788,0,0,0,93.153,44.10018v5.73243h-4.0625Z"/><path class="cls-4" d="M32.905,61.9205h8.02442a8.52762,8.52762,0,0,1,2.84082.42382A5.48894,5.48894,0,0,1,45.78974,63.565a5.307,5.307,0,0,1,1.333,1.91894,6.42676,6.42676,0,0,1,.46094,2.46778,6.32224,6.32224,0,0,1-.42383,2.34277,5.26853,5.26853,0,0,1-1.209,1.84375,5.51121,5.51121,0,0,1-1.90625,1.209,6.81559,6.81559,0,0,1-2.49218.43653H37.39033v5.95605H32.905Zm7.75,8.374a2.49413,2.49413,0,0,0,1.84473-.64844,2.32446,2.32446,0,0,0,.64746-1.71972,2.2004,2.2004,0,0,0-.64746-1.68165,2.588,2.588,0,0,0-1.84473-.61132H37.39033v4.66113Z"/><path class="cls-4" d="M52.04462,80.06405a5.97672,5.97672,0,0,1-1.75683-.249,3.76608,3.76608,0,0,1-1.38379-.748,3.46453,3.46453,0,0,1-.89649-1.22168,4.02967,4.02967,0,0,1-.32422-1.66894,3.63886,3.63886,0,0,1,.38575-1.75782,3.3382,3.3382,0,0,1,1.05957-1.1709,5.23771,5.23771,0,0,1,1.55761-.71,12.78488,12.78488,0,0,1,1.88184-.374,12.22535,12.22535,0,0,0,2.5166-.499.95393.95393,0,0,0,.72266-.92188,1.28135,1.28135,0,0,0-.41113-.99707,1.95169,1.95169,0,0,0-1.333-.374,2.22031,2.22031,0,0,0-1.47071.42383,1.83325,1.83325,0,0,0-.59765,1.22168H48.25654a4.23219,4.23219,0,0,1,.39843-1.69532,4.07787,4.07787,0,0,1,1.084-1.3955,5.261,5.261,0,0,1,1.78223-.94629,8.12627,8.12627,0,0,1,2.51757-.34961,9.79962,9.79962,0,0,1,2.44239.26172,4.85838,4.85838,0,0,1,1.69433.78515,3.63474,3.63474,0,0,1,1.22071,1.52051A5.29378,5.29378,0,0,1,59.7956,71.316v6.42969a6.45558,6.45558,0,0,0,.08691,1.209.88106.88106,0,0,0,.36133.61035v.1748h-3.9375a1.66294,1.66294,0,0,1-.249-.56054,7.20565,7.20565,0,0,1-.17481-.86036h-.0498a4.22175,4.22175,0,0,1-1.458,1.27149A4.94346,4.94346,0,0,1,52.04462,80.06405Zm1.2959-2.5918a2.71511,2.71511,0,0,0,1.85645-.623,2.11054,2.11054,0,0,0,.71093-1.66992V73.65878a5.9602,5.9602,0,0,1-.93457.36133q-.53758.16258-1.15918.31152a5.20089,5.20089,0,0,0-1.69531.63574,1.23049,1.23049,0,0,0-.52246,1.084,1.2052,1.2052,0,0,0,.498,1.09668A2.24346,2.24346,0,0,0,53.34052,77.47225Z"/><path class="cls-4" d="M61.76435,66.98007h3.91309v1.74414h.07519a5.14069,5.14069,0,0,1,1.65723-1.583,4.52479,4.52479,0,0,1,2.28027-.53516,4.60158,4.60158,0,0,1,1.86914.36133,4.055,4.055,0,0,1,1.39551.99707,4.28813,4.28813,0,0,1,.87207,1.51953,6.08671,6.08671,0,0,1,.29883,1.957v8.29883H70.06415V72.26327a2.55437,2.55437,0,0,0-.499-1.64453,1.79844,1.79844,0,0,0-1.49512-.624,2.00184,2.00184,0,0,0-1.63281.74805,2.9757,2.9757,0,0,0-.61035,1.94434v7.05273h-4.0625Z"/><path class="cls-4" d="M82.1999,80.11386a7.57451,7.57451,0,0,1-2.84082-.51075,6.0543,6.0543,0,0,1-2.14356-1.4209,6.31847,6.31847,0,0,1-1.3457-2.15625,7.5158,7.5158,0,0,1-.47363-2.6914,7.348,7.348,0,0,1,.47363-2.6543,6.344,6.344,0,0,1,1.3457-2.14258,6.22056,6.22056,0,0,1,2.06934-1.42089,7.26515,7.26515,0,0,1,5.12109-.08692,6.10854,6.10854,0,0,1,1.90625,1.1709,6.346,6.346,0,0,1,1.707,2.6543,10.31231,10.31231,0,0,1,.53614,3.55175h-9.1709a3.7488,3.7488,0,0,0,.89648,2.043,2.55927,2.55927,0,0,0,1.96875.74805,2.39553,2.39553,0,0,0,1.32129-.33691,2.14471,2.14471,0,0,0,.79785-.93457h3.96192a4.70329,4.70329,0,0,1-.74707,1.65722,5.317,5.317,0,0,1-1.39551,1.3584,6.04729,6.04729,0,0,1-1.78223.873A7.582,7.582,0,0,1,82.1999,80.11386Zm2.24316-8.125a3.00813,3.00813,0,0,0-.77246-1.81934,2.18637,2.18637,0,0,0-1.64453-.67285,2.32607,2.32607,0,0,0-1.79492.67285,3.49511,3.49511,0,0,0-.82227,1.81934Z"/><path class="cls-4" d="M89.95087,61.9205h4.11231V79.73983H89.95087Z"/><path class="cls-4" d="M101.46552,80.13827a7.37976,7.37976,0,0,1-4.46094-1.208,4.16376,4.16376,0,0,1-1.74511-3.32715h3.83789A2.06653,2.06653,0,0,0,99.82,77.023a2.5369,2.5369,0,0,0,1.62012.47363,2.80326,2.80326,0,0,0,1.458-.32422,1.04035,1.04035,0,0,0,.53613-.94629.90475.90475,0,0,0-.27441-.68555,2.03029,2.03029,0,0,0-.72266-.42382,5.3925,5.3925,0,0,0-1.03418-.249q-.58593-.08789-1.209-.21191-.82178-.14941-1.64453-.36133a5.05323,5.05323,0,0,1-1.4834-.63574,3.15215,3.15215,0,0,1-1.0586-1.13379,3.709,3.709,0,0,1-.39941-1.832,3.53741,3.53741,0,0,1,.43652-1.76953,3.81241,3.81241,0,0,1,1.1836-1.28321,5.54437,5.54437,0,0,1,1.75683-.77246,8.45336,8.45336,0,0,1,2.13086-.26172,6.78426,6.78426,0,0,1,4.16211,1.09668,3.96917,3.96917,0,0,1,1.5957,2.99024h-3.73828a1.52059,1.52059,0,0,0-.66113-1.1836,2.72483,2.72483,0,0,0-1.38281-.31152,2.54986,2.54986,0,0,0-1.25879.28613.94734.94734,0,0,0-.51074.88477.66385.66385,0,0,0,.249.54883,2.10887,2.10887,0,0,0,.67285.33593,7.41612,7.41612,0,0,0,.98438.23731q.561.0996,1.15918.19922.84667.14942,1.707.36133a5.30311,5.30311,0,0,1,1.57031.66015,3.5206,3.5206,0,0,1,1.15918,1.209,3.86812,3.86812,0,0,1,.44824,1.98144,3.6652,3.6652,0,0,1-1.64453,3.165,5.86,5.86,0,0,1-1.84473.79785A9.3424,9.3424,0,0,1,101.46552,80.13827Z"/><path class="cls-4" d="M243.88593,36.96249h6.15625a6.30434,6.30434,0,0,1,1.78223.24316,4.28085,4.28085,0,0,1,1.43066.71094,3.30413,3.30413,0,0,1,.94531,1.16113,3.5608,3.5608,0,0,1,.3418,1.59278,3.05264,3.05264,0,0,1-2.23242,3.11425v.05371a2.73137,2.73137,0,0,1,1.28711.83692,3.12375,3.12375,0,0,1,.585,1.52148,9.98381,9.98381,0,0,1,.13574,1.23243q.02637.60351.0625,1.08007a5.43334,5.43334,0,0,0,.1084.792q.07177.31494.2334.36914v.16211h-3.0957a.53963.53963,0,0,1-.18946-.36915,7.03044,7.03044,0,0,1-.10742-.71972q-.0454-.42335-.081-.918-.03663-.49512-.1084-.98145a2.24663,2.24663,0,0,0-.6211-1.36816,2.149,2.149,0,0,0-1.5205-.46777h-1.92578v4.82422h-3.18653ZM249.466,42.651a2.12917,2.12917,0,0,0,1.43066-.41406,1.44463,1.44463,0,0,0,.47754-1.15234,1.54726,1.54726,0,0,0-.459-1.15235,1.89289,1.89289,0,0,0-1.377-.44921h-2.46582v3.168Z"/><path class="cls-4" d="M259.87031,36.96249h3.27539l4.64453,12.87012H264.4416l-.75586-2.32227h-4.5l-.73828,2.32227h-3.20313Zm3.07715,8.26172-.97168-3.11328c-.05957-.168-.12012-.3545-.17969-.5586-.06055-.2041-.11426-.40137-.16211-.59375q-.09083-.32373-.16211-.666h-.03613c-.05957.22851-.12012.45019-.17969.666-.06055.19238-.11719.38965-.1709.59375q-.082.30615-.1709.5586l-.99023,3.11328Z"/><path class="cls-4" d="M268.68964,36.96249h3.18653V41.6246l4.42773-4.66211h3.78027l-4.93261,5.166,5.2207,7.70411h-3.708l-3.708-5.56153-1.08007,1.13379v4.42774h-3.18653Z"/><path class="cls-4" d="M285.78925,50.12069a6.22085,6.22085,0,0,1-1.80859-.24316,4.51016,4.51016,0,0,1-1.39453-.6836,3.71946,3.71946,0,0,1-.97266-1.0625,3.82394,3.82394,0,0,1-.50391-1.35839h2.87989A1.63872,1.63872,0,0,0,285.718,47.943a1.89491,1.89491,0,0,0,1.60157-.70215,3.98653,3.98653,0,0,0,.70214-2.44824h-.03613a3.93168,3.93168,0,0,1-1.125.86425,3.50647,3.50647,0,0,1-1.62891.3418,4.97011,4.97011,0,0,1-1.75488-.30566,4.28477,4.28477,0,0,1-1.43066-.873,4.0441,4.0441,0,0,1-.96387-1.377,4.49445,4.49445,0,0,1-.35059-1.80078,4.29228,4.29228,0,0,1,.36915-1.79981,3.99953,3.99953,0,0,1,1.03515-1.38574,4.754,4.754,0,0,1,1.5752-.89063,6.03389,6.03389,0,0,1,1.98828-.31543,5.91987,5.91987,0,0,1,2.10644.36036,4.33821,4.33821,0,0,1,1.60157,1.02539q1.6201,1.56591,1.62011,4.95019a11.1781,11.1781,0,0,1-.30566,2.68164,5.60806,5.60806,0,0,1-.97168,2.10645,4.26866,4.26866,0,0,1-1.63867,1.30469A5.586,5.586,0,0,1,285.78925,50.12069Zm-.01758-6.35449a2.18535,2.18535,0,0,0,1.5752-.59375,2.02145,2.02145,0,0,0,.62109-1.53027,2.066,2.066,0,0,0-.6123-1.53809,2.15933,2.15933,0,0,0-1.584-.60352,2.0999,2.0999,0,0,0-1.5664.60352,2.07761,2.07761,0,0,0-.59375,1.52051,2.147,2.147,0,0,0,.57617,1.53027A2.06872,2.06872,0,0,0,285.77167,43.7662Z"/><path class="cls-4" d="M294.57343,41.94882h-2.64648V39.89706a3.97609,3.97609,0,0,0,2.14258-.63965,2.71959,2.71959,0,0,0,1.13378-1.86328h2.41211V49.83261h-3.042Z"/><path class="cls-4" d="M304.22089,50.12069a7.35207,7.35207,0,0,1-1.9707-.252,4.93877,4.93877,0,0,1-1.59375-.74707,3.94856,3.94856,0,0,1-1.11523-1.24219,4.36609,4.36609,0,0,1-.54-1.7373h2.96972a1.68353,1.68353,0,0,0,.74707,1.17968,2.59118,2.59118,0,0,0,1.43067.38672,1.88726,1.88726,0,0,0,1.458-.585,2.15114,2.15114,0,0,0,.54-1.52148,1.98274,1.98274,0,0,0-.55761-1.49317,2.0076,2.0076,0,0,0-1.458-.54,2.37431,2.37431,0,0,0-1.05371.22461,2.10749,2.10749,0,0,0-.71094.53125h-2.84375l1.25977-6.82226h7.65039v2.42968h-5.47168l-.43262,2.19629h.03613A2.83179,2.83179,0,0,1,303.51,41.607a4.29376,4.29376,0,0,1,1.44921-.2168,4.57306,4.57306,0,0,1,1.65528.29785,4.01051,4.01051,0,0,1,1.35058.84571,3.96,3.96,0,0,1,.90918,1.332,4.44438,4.44438,0,0,1,.333,1.75488,4.598,4.598,0,0,1-.36035,1.85352,4.04132,4.04132,0,0,1-1.02637,1.42285,4.56407,4.56407,0,0,1-1.584.9082A6.17513,6.17513,0,0,1,304.22089,50.12069Z"/><path class="cls-4" d="M315.07538,50.12069a7.35212,7.35212,0,0,1-1.9707-.252,4.939,4.939,0,0,1-1.59375-.74707,3.9488,3.9488,0,0,1-1.11523-1.24219,4.36609,4.36609,0,0,1-.54-1.7373h2.96972a1.68351,1.68351,0,0,0,.74708,1.17968,2.59112,2.59112,0,0,0,1.43066.38672,1.8873,1.8873,0,0,0,1.458-.585,2.15118,2.15118,0,0,0,.54-1.52148,1.98275,1.98275,0,0,0-.55762-1.49317,2.0076,2.0076,0,0,0-1.458-.54,2.37434,2.37434,0,0,0-1.05371.22461,2.10759,2.10759,0,0,0-.71094.53125h-2.84375l1.25977-6.82226h7.65039v2.42968h-5.47168L313.383,42.1285h.03613a2.83179,2.83179,0,0,1,.94532-.52148,4.29378,4.29378,0,0,1,1.44922-.2168,4.573,4.573,0,0,1,1.65527.29785,4.01066,4.01066,0,0,1,1.35059.84571,3.96032,3.96032,0,0,1,.90918,1.332,4.44456,4.44456,0,0,1,.333,1.75488,4.59778,4.59778,0,0,1-.36035,1.85352,4.0412,4.0412,0,0,1-1.02637,1.42285,4.56407,4.56407,0,0,1-1.584.9082A6.17513,6.17513,0,0,1,315.07538,50.12069Z"/><path class="cls-4" d="M252.19257,58.5621h6.21a5.79532,5.79532,0,0,1,1.7461.23437,3.91366,3.91366,0,0,1,1.25976.64746,3.02911,3.02911,0,0,1,1.11621,2.46582,2.536,2.536,0,0,1-.46777,1.584,2.91144,2.91144,0,0,1-1.332.93652V64.484a3.191,3.191,0,0,1,1.68262,1.16114,3.24756,3.24756,0,0,1,.62109,1.98925,3.85209,3.85209,0,0,1-.3418,1.68262,3.30173,3.30173,0,0,1-.97168,1.19727,4.99745,4.99745,0,0,1-3.168.918h-6.35449Zm5.74219,5.09375a1.77289,1.77289,0,0,0,1.11621-.333,1.28689,1.28689,0,0,0,.01758-1.90723,1.72608,1.72608,0,0,0-1.11621-.333H255.343v2.57324Zm.252,5.2207a1.76274,1.76274,0,0,0,1.24219-.41406,1.42181,1.42181,0,0,0,.4502-1.09863,1.38137,1.38137,0,0,0-.49512-1.16016,1.93751,1.93751,0,0,0-1.2334-.3877H255.343v3.06055Z"/><path class="cls-4" d="M266.89863,71.66659a4.28723,4.28723,0,0,1-1.26856-.18066,2.693,2.693,0,0,1-.999-.54,2.50187,2.50187,0,0,1-.64844-.88184,2.91724,2.91724,0,0,1-.23437-1.206,2.63181,2.63181,0,0,1,.27929-1.26856,2.4202,2.4202,0,0,1,.76563-.84668,3.78582,3.78582,0,0,1,1.125-.51269,9.16142,9.16142,0,0,1,1.3584-.26953,8.93817,8.93817,0,0,0,1.81836-.36036.68953.68953,0,0,0,.52148-.666.92407.92407,0,0,0-.29687-.71973,1.40586,1.40586,0,0,0-.9629-.27051,1.59887,1.59887,0,0,0-1.06152.30664,1.32015,1.32015,0,0,0-.43262.88184H264.1623a3.07294,3.07294,0,0,1,.28808-1.22461A2.95453,2.95453,0,0,1,265.23359,62.9a3.79928,3.79928,0,0,1,1.28711-.6836,5.88832,5.88832,0,0,1,1.81836-.25195,7.05851,7.05851,0,0,1,1.76367.18848,3.498,3.498,0,0,1,1.22363.56738,2.628,2.628,0,0,1,.88281,1.09766,3.83584,3.83584,0,0,1,.28711,1.53027v4.64356a4.67714,4.67714,0,0,0,.06348.873.639.639,0,0,0,.26074.44141v.126h-2.84375a1.20186,1.20186,0,0,1-.17969-.40527,5.01127,5.01127,0,0,1-.126-.62109H269.635a3.03608,3.03608,0,0,1-1.05372.918A3.5573,3.5573,0,0,1,266.89863,71.66659Zm.93652-1.87207a1.96,1.96,0,0,0,1.34082-.4502,1.52416,1.52416,0,0,0,.5127-1.206V67.04061a4.35726,4.35726,0,0,1-.67481.26075c-.25879.07812-.53711.15332-.83691.2246a3.7812,3.7812,0,0,0-1.22461.459.89006.89006,0,0,0-.37793.7832.871.871,0,0,0,.36035.792A1.61821,1.61821,0,0,0,267.83515,69.79452Z"/><path class="cls-4" d="M277.39277,71.54061a5.487,5.487,0,0,1-1.17969-.11718,2.44877,2.44877,0,0,1-.92676-.40528,1.86993,1.86993,0,0,1-.6123-.7832,3.09294,3.09294,0,0,1-.21582-1.23242v-4.9502h-1.22364V62.21639h1.22364v-2.916h2.8623v2.916h1.67383v1.83594H277.3205v4.32031a.79637.79637,0,0,0,.2793.71973,1.35855,1.35855,0,0,0,.74609.17969c.13282,0,.25879-.00293.37891-.00879q.17871-.00879.26953-.00879v2.1416a4.28737,4.28737,0,0,1-.60254.09961A9.4803,9.4803,0,0,1,277.39277,71.54061Z"/><path class="cls-4" d="M283.62128,71.54061a5.487,5.487,0,0,1-1.17968-.11718,2.44877,2.44877,0,0,1-.92676-.40528,1.87,1.87,0,0,1-.61231-.7832,3.09311,3.09311,0,0,1-.21582-1.23242v-4.9502h-1.22363V62.21639h1.22363v-2.916H283.549v2.916h1.67383v1.83594H283.549v4.32031a.79637.79637,0,0,0,.27929.71973,1.35856,1.35856,0,0,0,.7461.17969c.13281,0,.25879-.00293.3789-.00879q.17872-.00879.26954-.00879v2.1416a4.28737,4.28737,0,0,1-.60254.09961A9.4805,9.4805,0,0,1,283.62128,71.54061Z"/><path class="cls-4" d="M290.69453,71.70175a5.47227,5.47227,0,0,1-2.05176-.36817,4.36367,4.36367,0,0,1-1.54883-1.02637,4.55286,4.55286,0,0,1-.97168-1.55664,5.44049,5.44049,0,0,1-.3418-1.94433,5.31423,5.31423,0,0,1,.3418-1.917,4.5806,4.5806,0,0,1,.97168-1.54786,4.47965,4.47965,0,0,1,1.49414-1.02636,5.24289,5.24289,0,0,1,3.69922-.0625,4.39787,4.39787,0,0,1,1.37695.8457,4.59276,4.59276,0,0,1,1.2334,1.917,7.47081,7.47081,0,0,1,.38672,2.56543h-6.624a2.69876,2.69876,0,0,0,.64843,1.47559,1.84615,1.84615,0,0,0,1.42188.54,1.73218,1.73218,0,0,0,.9541-.24317,1.54588,1.54588,0,0,0,.5752-.6748h2.8623a3.40589,3.40589,0,0,1-.54,1.19726,3.81286,3.81286,0,0,1-1.00781.98047,4.34,4.34,0,0,1-1.28711.62989A5.45049,5.45049,0,0,1,290.69453,71.70175Zm1.62011-5.86719a2.1723,2.1723,0,0,0-.55859-1.31445,1.57691,1.57691,0,0,0-1.1875-.48633,1.67716,1.67716,0,0,0-1.2959.48633,2.52285,2.52285,0,0,0-.59473,1.31445Z"/><path class="cls-4" d="M296.2746,62.21639h2.80762v1.43946h.05469a3.46578,3.46578,0,0,1,1.0791-1.20606,2.62931,2.62931,0,0,1,1.44043-.37793,1.58681,1.58681,0,0,1,.57617.07227v2.52051h-.07226a2.33814,2.33814,0,0,0-2.95215,2.62793v4.13964h-2.9336Z"/><path class="cls-4" d="M303.65449,72.18807h1.00781a1.37291,1.37291,0,0,0,.92773-.25195.92157.92157,0,0,0,.27832-.71973,2.55038,2.55038,0,0,0-.13476-.73828q-.13478-.43212-.42285-1.16992l-2.71778-7.0918h3.09571l1.24218,3.92383c.07227.22852.14063.46778.207.71973.06543.252.12891.48047.18848.68457.06055.24023.12012.47949.18067.71973h.03613c.04687-.24024.10156-.4795.16113-.71973.04785-.2041.10547-.43262.1709-.68457.06641-.25195.13574-.49121.207-.71973l1.20606-3.92383h2.93457l-3.18653,9.3418a7.39617,7.39617,0,0,1-.59375,1.36817,3.3813,3.3813,0,0,1-.72851.89941,2.50531,2.50531,0,0,1-.92774.49512,4.34849,4.34849,0,0,1-1.22363.15332h-1.9082Z"/><path class="cls-4" d="M222.66083,42.95761v2.53027a2.15978,2.15978,0,0,1-.15283.84473,1.62532,1.62532,0,0,1-.94726.90039,1.87889,1.87889,0,0,1-.64112.10546,1.7544,1.7544,0,0,1-1.312-.47949,2.04153,2.04153,0,0,1-.47119-1.48144V43.72128h-2.54736v-.76367Zm-2.90429.76367V45.318a1.32526,1.32526,0,0,0,.30127.95508,1.10087,1.10087,0,0,0,.82812.31054,1.048,1.048,0,0,0,.832-.31933,1.32377,1.32377,0,0,0,.28028-.9043V43.72128Z"/><path class="cls-4" d="M222.66083,47.59335v.82324l-4.51757,1.49512c-.07373.02246-.15577.04687-.24659.07226-.09033.02539-.17822.05176-.26318.08008l-.30566.085v.01758l.30566.085q.12744.04248.26758.07617a1.64064,1.64064,0,0,1,.24219.07617l4.51757,1.47754v.79883l-6.07177-2.13183v-.84082Z"/><path class="cls-4" d="M222.66083,54.70077v.76465h-6.07177v-.76465Z"/><path class="cls-4" d="M220.402,57.20663v.0166a1.78678,1.78678,0,0,1,.49659.57324,1.69624,1.69624,0,0,1,.18261.81934,1.54673,1.54673,0,0,1-.36084,1.083,1.3516,1.3516,0,0,1-1.04882.39453h-3.08252v-.6875h3.023a.831.831,0,0,0,.66259-.26367,1.07609,1.07609,0,0,0,.229-.73047,1.28454,1.28454,0,0,0-.08887-.4834,1.16562,1.16562,0,0,0-.24658-.38281,1.08139,1.08139,0,0,0-.38184-.25,1.33777,1.33777,0,0,0-.49707-.08887h-2.70019v-.68848h4.39013v.68848Z"/><path class="cls-4" d="M220.97919,61.00155V61.69h-.61963v.0166a1.83164,1.83164,0,0,1,.53077.58594,1.66054,1.66054,0,0,1,.19091.82324,1.84357,1.84357,0,0,1-.15722.76465,1.65838,1.65838,0,0,1-.4502.59472,2.12287,2.12287,0,0,1-.72607.38575,3.15416,3.15416,0,0,1-.97656.14062,3.23949,3.23949,0,0,1-.95508-.13184,2.13037,2.13037,0,0,1-.73047-.37792,1.644,1.644,0,0,1-.4624-.60254,1.91262,1.91262,0,0,1-.16162-.79883,1.94513,1.94513,0,0,1,.14453-.78125,1.5423,1.5423,0,0,1,.501-.60254V61.69h-1.92773v-.68848Zm-3.93994,2.03809a1.11651,1.11651,0,0,0,.13135.55175,1.15083,1.15083,0,0,0,.36084.39551,1.63719,1.63719,0,0,0,.54346.2334,3.12528,3.12528,0,0,0,1.37158,0,1.68349,1.68349,0,0,0,.55176-.2334,1.15589,1.15589,0,0,0,.36523-.39062,1.09894,1.09894,0,0,0,.13184-.54785,1.36015,1.36015,0,0,0-.13575-.624,1.19109,1.19109,0,0,0-.374-.4375,1.70089,1.70089,0,0,0-.55176-.25488,2.56114,2.56114,0,0,0-.6709-.085,2.84081,2.84081,0,0,0-.67089.07617,1.60081,1.60081,0,0,0-.54786.24219,1.18135,1.18135,0,0,0-.36914.42871A1.393,1.393,0,0,0,217.03925,63.03964Z"/><path class="cls-4" d="M216.58906,68.483h.603v-.01661a2.01825,2.01825,0,0,1-.51367-.53906,1.44843,1.44843,0,0,1-.1914-.78613,1.49206,1.49206,0,0,1,.38232-1.07813,1.40935,1.40935,0,0,1,1.06982-.39941h3.04v.6875h-3.02295a.8505.8505,0,0,0-.6665.25977,1.04282,1.04282,0,0,0-.2334.72558,1.16441,1.16441,0,0,0,.09326.47559,1.04483,1.04483,0,0,0,.25879.36133,1.17915,1.17915,0,0,0,.38672.22851,1.39948,1.39948,0,0,0,.48389.08106h2.70019v.6875h-4.39013Z"/><path class="cls-4" d="M220.97919,69.82382v.63672h1.38428V71.149h-1.38428v.84863h-.56054V71.149h-2.853a.38261.38261,0,0,0-.31836.11426.52185.52185,0,0,0-.08936.32715.99959.99959,0,0,0,.02149.2041c.01367.06738.02685.12109.03808.16113V71.981h-.59423c-.01709-.0791-.03125-.166-.04248-.25879a2.46206,2.46206,0,0,1-.01709-.293,1.18128,1.18128,0,0,1,.19091-.69629.7477.7477,0,0,1,.65821-.27246h3.00586v-.63672Z"/><path class="cls-4" d="M496.91816,40.5455h2.82812v9.02832h5.12989v2.39746h-7.958Z"/><path class="cls-4" d="M510.72578,52.24276a5.91064,5.91064,0,0,1-2.3418-.44726,5.04259,5.04259,0,0,1-1.77344-1.2461,5.67575,5.67575,0,0,1-1.127-1.89453,7.24911,7.24911,0,0,1,0-4.74609,5.68111,5.68111,0,0,1,1.127-1.89356,5.04257,5.04257,0,0,1,1.77344-1.24609,6.33885,6.33885,0,0,1,4.68262,0,5.12185,5.12185,0,0,1,1.78222,1.24609,5.61817,5.61817,0,0,1,1.13477,1.89356,7.24928,7.24928,0,0,1,0,4.74609,5.61294,5.61294,0,0,1-1.13477,1.89453,5.12188,5.12188,0,0,1-1.78222,1.2461A5.90244,5.90244,0,0,1,510.72578,52.24276Zm.01562-2.30078a2.5091,2.5091,0,0,0,1.207-.28027,2.55868,2.55868,0,0,0,.8711-.7666,3.35088,3.35088,0,0,0,.51855-1.15918,6.378,6.378,0,0,0,0-2.90821,3.43691,3.43691,0,0,0-.51855-1.166,2.544,2.544,0,0,0-.8711-.77539,2.53765,2.53765,0,0,0-3.28418.77539,3.54561,3.54561,0,0,0-.52734,1.166,6.10229,6.10229,0,0,0,0,2.90821,3.45477,3.45477,0,0,0,.52734,1.15918,2.54068,2.54068,0,0,0,.8711.7666A2.50244,2.50244,0,0,0,510.7414,49.942Z"/><path class="cls-4" d="M520.07343,40.5455h2.90918l4.12207,11.42578H524.133l-.67187-2.06153H519.466l-.65527,2.06153H515.967Zm2.7334,7.335-.86328-2.76465c-.05371-.14942-.10645-.31445-.16016-.4961q-.08056-.271-.14355-.52734-.08056-.28712-.14356-.59082h-.03222c-.05371.20215-.10645.39941-.16016.59082q-.07909.25635-.15137.52734-.07177.27248-.15234.4961l-.87891,2.76465Z"/><path class="cls-4" d="M527.90449,40.5455h4.874a5.457,5.457,0,0,1,2.15723.415,4.82214,4.82214,0,0,1,1.66992,1.167,5.24646,5.24646,0,0,1,1.0791,1.82129,7.01839,7.01839,0,0,1,.38281,2.38086,6.692,6.692,0,0,1-.51074,2.69336,4.72933,4.72933,0,0,1-1.4707,1.90917,4.82187,4.82187,0,0,1-1.53418.7754,6.66176,6.66176,0,0,1-1.94922.26367h-4.69824Zm4.49023,9.04492a2.5983,2.5983,0,0,0,2.10938-.83887,3.67877,3.67877,0,0,0,.70312-2.42187,3.95836,3.95836,0,0,0-.71875-2.49219,2.45484,2.45484,0,0,0-2.06152-.92774h-1.69434v6.68067Z"/><path class="cls-4" d="M478.94648,64.48593a7.90453,7.90453,0,0,1-.415-1.01954,8.024,8.024,0,0,1-.28516-1.15527,7.66158,7.66158,0,0,1-.10449-1.29,8.86623,8.86623,0,0,1,.10449-1.37988,9.62489,9.62489,0,0,1,.28028-1.24512,7.48539,7.48539,0,0,1,.41015-1.08008,6.8964,6.8964,0,0,1,.49512-.88476h1.37988a10.1045,10.1045,0,0,0-.75488,1.99023,9.90314,9.90314,0,0,0-.30566,2.59961,8.79163,8.79163,0,0,0,.08984,1.28516,9.71036,9.71036,0,0,0,.24023,1.14551,10.11936,10.11936,0,0,0,.33985,1.01464q.19043.47461.39062.88477H479.4416A7.55154,7.55154,0,0,1,478.94648,64.48593Z"/><path class="cls-4" d="M484.592,64.13143a3.494,3.494,0,0,1-1.37989-.25976,3.10425,3.10425,0,0,1-1.06054-.74024,3.44658,3.44658,0,0,1-.71485-1.20019,4.48771,4.48771,0,0,1-.24511-1.50977A4.322,4.322,0,0,1,481.467,58.856a3.4572,3.4572,0,0,1,.78418-1.22461,3.20794,3.20794,0,0,1,1.06054-.70019,3.63152,3.63152,0,0,1,1.38965-.25,4.09589,4.09589,0,0,1,1.24024.1748,2.87941,2.87941,0,0,1,.95019.5,2.53606,2.53606,0,0,1,.64453.78516,3.21773,3.21773,0,0,1,.335,1.02051h-1.71972a1.29553,1.29553,0,0,0-.4502-.73047,1.42722,1.42722,0,0,0-.93945-.29,1.65622,1.65622,0,0,0-.77539.1748,1.57625,1.57625,0,0,0-.55469.48047,2.168,2.168,0,0,0-.33008.71973,3.5268,3.5268,0,0,0-.11035.90527,3.19371,3.19371,0,0,0,.125.91016,2.2818,2.2818,0,0,0,.35547.72461,1.60109,1.60109,0,0,0,1.31934.64551,1.73287,1.73287,0,0,0,.625-.10547,1.48794,1.48794,0,0,0,.4707-.28028,1.36728,1.36728,0,0,0,.30957-.39941,1.40566,1.40566,0,0,0,.14551-.46484v-.02051h-1.34082V60.13143h2.98046v3.83985H486.7414l-.09961-.86035h-.02051a2.019,2.019,0,0,1-.86425.78515A2.77125,2.77125,0,0,1,484.592,64.13143Z"/><path class="cls-4" d="M490.25214,64.10116a2.389,2.389,0,0,1-.70508-.09961,1.51558,1.51558,0,0,1-.55566-.2998,1.39168,1.39168,0,0,1-.35937-.49024,1.62048,1.62048,0,0,1-.12989-.66992,1.45648,1.45648,0,0,1,.1543-.70508,1.3387,1.3387,0,0,1,.42578-.4707,2.09584,2.09584,0,0,1,.625-.28418,5.01273,5.01273,0,0,1,.75488-.15039,4.91868,4.91868,0,0,0,1.00977-.2002.38308.38308,0,0,0,.29-.37011.51227.51227,0,0,0-.165-.39942.78054.78054,0,0,0-.53516-.15039.88917.88917,0,0,0-.58984.16992.73226.73226,0,0,0-.24024.49024h-1.5a1.70122,1.70122,0,0,1,.16016-.67969,1.633,1.633,0,0,1,.43457-.56055,2.11965,2.11965,0,0,1,.71582-.37988,3.28432,3.28432,0,0,1,1.00977-.13965,3.9465,3.9465,0,0,1,.97949.10449,1.948,1.948,0,0,1,.68066.31543,1.45879,1.45879,0,0,1,.48926.60938,2.11451,2.11451,0,0,1,.16016.85058v2.58008a2.58922,2.58922,0,0,0,.03515.48438.35062.35062,0,0,0,.14551.24511v.07032H491.9621a.6706.6706,0,0,1-.10058-.22461,2.94538,2.94538,0,0,1-.06934-.34571h-.02051a1.69671,1.69671,0,0,1-.585.51075A1.99042,1.99042,0,0,1,490.25214,64.10116Zm.51953-1.04a1.08808,1.08808,0,0,0,.74512-.25.84384.84384,0,0,0,.28516-.66992v-.61035a2.2984,2.2984,0,0,1-.375.14551c-.14356.043-.29883.085-.46485.125a2.09533,2.09533,0,0,0-.68066.25488.49465.49465,0,0,0-.21.43457.48431.48431,0,0,0,.20019.44043A.89809.89809,0,0,0,490.77167,63.06112Z"/><path class="cls-4" d="M496.08124,64.03085a3.07962,3.07962,0,0,1-.65527-.06446,1.34569,1.34569,0,0,1-.51465-.22558,1.03426,1.03426,0,0,1-.33984-.43457,1.71257,1.71257,0,0,1-.12012-.68457v-2.75h-.67969V58.85116h.67969V57.231h1.58985v1.62012h.92968v1.02051h-.92968v2.39941a.44278.44278,0,0,0,.15527.40039.7588.7588,0,0,0,.415.09961c.07324,0,.14355-.001.21-.00488.0664-.00293.11621-.00488.14941-.00488v1.19043a2.439,2.439,0,0,1-.335.05468A5.17744,5.17744,0,0,1,496.08124,64.03085Z"/><path class="cls-4" d="M500.01093,64.12167a3.02914,3.02914,0,0,1-1.13965-.20508,2.43391,2.43391,0,0,1-.86035-.57031,2.53119,2.53119,0,0,1-.54-.86524,3.02929,3.02929,0,0,1-.18945-1.08008,2.95915,2.95915,0,0,1,.18945-1.06445,2.5475,2.5475,0,0,1,.54-.86035,2.50421,2.50421,0,0,1,.83008-.57031,2.92434,2.92434,0,0,1,2.05566-.03418,2.44188,2.44188,0,0,1,.76465.46972,2.54442,2.54442,0,0,1,.68457,1.06446,4.15416,4.15416,0,0,1,.21582,1.42578h-3.68066a1.50325,1.50325,0,0,0,.36035.81933,1.02741,1.02741,0,0,0,.79.30079.96724.96724,0,0,0,.53027-.13575.85886.85886,0,0,0,.31934-.375h1.58984a1.88252,1.88252,0,0,1-.2998.665,2.12605,2.12605,0,0,1-.55957.54492,2.43745,2.43745,0,0,1-.71485.35059A3.0411,3.0411,0,0,1,500.01093,64.12167Zm.90039-3.26074a1.20462,1.20462,0,0,0-.30957-.7295.87973.87973,0,0,0-.66015-.2705.936.936,0,0,0-.72071.2705,1.40538,1.40538,0,0,0-.33008.7295Z"/><path class="cls-4" d="M502.552,58.85116h1.65918l.56054,2.12012c.02637.10644.05469.21679.085.33008s.05469.21972.0752.32031c.02637.11914.0498.2334.06934.33984h.0205l.06934-.35058c.02051-.09961.04395-.208.07031-.32422.02637-.11719.05664-.23242.08985-.34571l.54-2.08984h1.37988l.56054,2.08984c.02637.11329.05274.23047.08008.35059.02637.12012.05274.22949.08008.33008.02637.11914.05274.23633.08008.34961h.01953c.02637-.11328.05371-.23047.08008-.34961.02637-.10059.05176-.207.07519-.32031s.05176-.22364.085-.33008l.57032-2.12012h1.60937L508.841,63.97128h-1.5293l-.60058-2.32032a3.05681,3.05681,0,0,1-.085-.30957c-.02344-.10644-.04493-.207-.06446-.2998-.02734-.10645-.0498-.21-.07031-.31055h-.01953q-.03077.15088-.07031.31055c-.02051.09277-.04493.19336-.0752.2998s-.05859.21-.085.30957l-.61035,2.32032h-1.50977Z"/><path class="cls-4" d="M512.10175,64.10116a2.389,2.389,0,0,1-.70508-.09961,1.51558,1.51558,0,0,1-.55566-.2998,1.39183,1.39183,0,0,1-.35938-.49024,1.62064,1.62064,0,0,1-.12988-.66992,1.45648,1.45648,0,0,1,.1543-.70508,1.3386,1.3386,0,0,1,.42578-.4707,2.09584,2.09584,0,0,1,.625-.28418,5.01273,5.01273,0,0,1,.75488-.15039,4.91868,4.91868,0,0,0,1.00977-.2002.38308.38308,0,0,0,.29-.37011.51227.51227,0,0,0-.165-.39942.78054.78054,0,0,0-.53516-.15039.88917.88917,0,0,0-.58984.16992.73226.73226,0,0,0-.24024.49024h-1.5a1.70122,1.70122,0,0,1,.16016-.67969,1.633,1.633,0,0,1,.43457-.56055,2.11965,2.11965,0,0,1,.71582-.37988,3.28432,3.28432,0,0,1,1.00977-.13965,3.9465,3.9465,0,0,1,.97949.10449,1.948,1.948,0,0,1,.68066.31543,1.45879,1.45879,0,0,1,.48926.60938,2.11451,2.11451,0,0,1,.16016.85058v2.58008a2.58922,2.58922,0,0,0,.03515.48438.35062.35062,0,0,0,.14551.24511v.07032h-1.58008a.6706.6706,0,0,1-.10058-.22461,2.94538,2.94538,0,0,1-.06934-.34571h-.02051a1.69671,1.69671,0,0,1-.585.51075A1.99042,1.99042,0,0,1,512.10175,64.10116Zm.51953-1.04a1.08808,1.08808,0,0,0,.74512-.25.84384.84384,0,0,0,.28516-.66992v-.61035a2.2984,2.2984,0,0,1-.375.14551c-.14356.043-.29883.085-.46485.125a2.09533,2.09533,0,0,0-.68066.25488.49465.49465,0,0,0-.21.43457.48431.48431,0,0,0,.20019.44043A.89809.89809,0,0,0,512.62128,63.06112Z"/><path class="cls-4" d="M516.0705,64.3912h.56055a.76352.76352,0,0,0,.51465-.13965.51162.51162,0,0,0,.15527-.40039,1.42378,1.42378,0,0,0-.07519-.41016c-.04981-.16015-.12793-.376-.23438-.64941l-1.51074-3.94043h1.7207l.68945,2.17969c.04.127.07813.26074.11524.40039.03613.13965.07129.2666.10449.37988.0332.13379.06738.2666.10059.40039h.01953c.02637-.13379.05664-.2666.08984-.40039.02735-.11328.0586-.24023.09571-.37988.03613-.13965.07519-.27344.11425-.40039l.6709-2.17969h1.62988l-1.7705,5.19043a4.09182,4.09182,0,0,1-.33008.75977,1.9095,1.9095,0,0,1-.4043.5,1.41452,1.41452,0,0,1-.51562.27539,2.466,2.466,0,0,1-.67969.085H516.0705Z"/><path class="cls-4" d="M522.841,56.82089h3.0498a3.39746,3.39746,0,0,1,1.34961.26074,3.002,3.002,0,0,1,1.04493.72949,3.28763,3.28763,0,0,1,.67578,1.14063,4.41129,4.41129,0,0,1,.23925,1.48925,4.195,4.195,0,0,1-.31933,1.68555,2.9792,2.9792,0,0,1-.91992,1.19434,3.035,3.035,0,0,1-.96.48535,4.16693,4.16693,0,0,1-1.22071.165H522.841Zm2.80957,5.66015a1.62665,1.62665,0,0,0,1.32031-.52441,2.30479,2.30479,0,0,0,.43946-1.51563,2.47944,2.47944,0,0,0-.44922-1.55957,1.53731,1.53731,0,0,0-1.29-.58007h-1.06055V62.481Z"/><path class="cls-4" d="M532.29023,64.12167a3.0291,3.0291,0,0,1-1.13965-.20508,2.43391,2.43391,0,0,1-.86035-.57031,2.531,2.531,0,0,1-.54-.86524,3.02907,3.02907,0,0,1-.18945-1.08008,2.95893,2.95893,0,0,1,.18945-1.06445,2.54735,2.54735,0,0,1,.54-.86035,2.50421,2.50421,0,0,1,.83008-.57031,2.92434,2.92434,0,0,1,2.05566-.03418,2.442,2.442,0,0,1,.76465.46972,2.54442,2.54442,0,0,1,.68457,1.06446,4.15416,4.15416,0,0,1,.21582,1.42578h-3.68066a1.50317,1.50317,0,0,0,.36035.81933,1.02739,1.02739,0,0,0,.79.30079.96726.96726,0,0,0,.53027-.13575.85892.85892,0,0,0,.31934-.375h1.58984a1.88236,1.88236,0,0,1-.29981.665,2.12575,2.12575,0,0,1-.55957.54492,2.43727,2.43727,0,0,1-.71484.35059A3.0411,3.0411,0,0,1,532.29023,64.12167Zm.90039-3.26074a1.20462,1.20462,0,0,0-.30957-.7295.87975.87975,0,0,0-.66016-.2705.936.936,0,0,0-.7207.2705,1.40523,1.40523,0,0,0-.33008.7295Z"/><path class="cls-4" d="M534.8205,58.85116h1.68067l.69921,2.31055c.03321.13281.06836.26172.10547.38476.03614.123.06836.23145.09473.3252.02637.11328.05371.21972.08008.31933h.02051c.02636-.09961.05273-.20605.08007-.31933.02637-.09375.05567-.20215.08985-.3252.0332-.123.06933-.252.10937-.38476l.71-2.31055h1.62989l-1.76953,5.12012H536.591Z"/><path class="cls-4" d="M540.48066,56.82089h1.62988V58.1412h-1.62988Zm0,2.03027h1.62988v5.12012h-1.62988Z"/><path class="cls-4" d="M545.38105,64.13143a2.9308,2.9308,0,0,1-1.12012-.20507,2.48613,2.48613,0,0,1-.85449-.57032,2.55175,2.55175,0,0,1-.54981-.85937,2.8912,2.8912,0,0,1-.19531-1.0752,2.99078,2.99078,0,0,1,.18946-1.07519,2.55709,2.55709,0,0,1,.54-.86035,2.46091,2.46091,0,0,1,.84571-.56934,2.86068,2.86068,0,0,1,1.10449-.20508,2.9143,2.9143,0,0,1,.94531.14453,2.2734,2.2734,0,0,1,.73438.40528,2.03829,2.03829,0,0,1,.5.62011,2.3551,2.3551,0,0,1,.25.79h-1.56934a1.12062,1.12062,0,0,0-.28515-.55566.75236.75236,0,0,0-.55469-.2041.87442.87442,0,0,0-.79.40429,2.02808,2.02808,0,0,0-.26074,1.10547,1.9774,1.9774,0,0,0,.26074,1.08985.87756.87756,0,0,0,.79.40039q.77929,0,.88965-.88086h1.55957a2.20841,2.20841,0,0,1-.19434.82519,2.02482,2.02482,0,0,1-.49023.66992,2.25051,2.25051,0,0,1-.75977.44532A2.90072,2.90072,0,0,1,545.38105,64.13143Z"/><path class="cls-4" d="M550.83027,64.12167a3.0291,3.0291,0,0,1-1.13965-.20508,2.43391,2.43391,0,0,1-.86035-.57031,2.531,2.531,0,0,1-.54-.86524,3.02907,3.02907,0,0,1-.18945-1.08008,2.95893,2.95893,0,0,1,.18945-1.06445,2.54735,2.54735,0,0,1,.54-.86035,2.50421,2.50421,0,0,1,.83008-.57031,2.92434,2.92434,0,0,1,2.05566-.03418,2.442,2.442,0,0,1,.76465.46972,2.54452,2.54452,0,0,1,.68457,1.06446,4.15416,4.15416,0,0,1,.21582,1.42578h-3.68067a1.50325,1.50325,0,0,0,.36036.81933,1.02739,1.02739,0,0,0,.79.30079.96726.96726,0,0,0,.53027-.13575.85884.85884,0,0,0,.31933-.375h1.58985a1.88254,1.88254,0,0,1-.29981.665,2.12575,2.12575,0,0,1-.55957.54492,2.43727,2.43727,0,0,1-.71484.35059A3.0411,3.0411,0,0,1,550.83027,64.12167Zm.90039-3.26074a1.20462,1.20462,0,0,0-.30957-.7295.87975.87975,0,0,0-.66016-.2705.936.936,0,0,0-.7207.2705,1.40523,1.40523,0,0,0-.33008.7295Z"/><path class="cls-4" d="M554.12128,64.401a9.86818,9.86818,0,0,0,.335-1.06445,10.34409,10.34409,0,0,0,.2295-1.20019,10.14227,10.14227,0,0,0,.08593-1.34473,9.72754,9.72754,0,0,0-.08593-1.32031,8.88722,8.88722,0,0,0-.23438-1.16016,9.37626,9.37626,0,0,0-.33984-1.00488q-.19044-.46435-.40039-.875H555.091a8.49718,8.49718,0,0,1,.48535.84961,7.59021,7.59021,0,0,1,.415,1.02051,8.107,8.107,0,0,1,.28516,1.1748,8.01422,8.01422,0,0,1,.10449,1.31543,8.53168,8.53168,0,0,1-.10449,1.34961,9.63141,9.63141,0,0,1-.28028,1.23047,8.06,8.06,0,0,1-.41015,1.08008,6.70044,6.70044,0,0,1-.50489.89941h-1.37011Q553.93085,64.90146,554.12128,64.401Z"/><path class="cls-3" d="M354.89277,82.03866h3.22265a2.86912,2.86912,0,0,1,.92871.14258,2.13126,2.13126,0,0,1,.7129.39844,1.75261,1.75261,0,0,1,.45605.61425,1.9142,1.9142,0,0,1,.16211.80078,1.84565,1.84565,0,0,1-.30469,1.06543,1.66537,1.66537,0,0,1-.98242.63379v.0293a1.43357,1.43357,0,0,1,.74219.457,1.81016,1.81016,0,0,1,.3291.958q.03956.37353.05371.69238.01466.31933.04.56543a1.97849,1.97849,0,0,0,.07324.40235.29766.29766,0,0,0,.1377.19726v.06836h-1.36621c-.0459-.01953-.082-.08008-.10743-.18164a2.72859,2.72859,0,0,1-.06445-.37793c-.01562-.15137-.03125-.31836-.04394-.502-.0127-.18262-.02637-.36914-.03907-.55957a1.331,1.331,0,0,0-.37793-.88965,1.4141,1.4141,0,0,0-.998-.3086h-1.14942v2.81934h-1.4248Zm1.4248,3.10547h1.51367a1.22981,1.22981,0,0,0,.874-.27051.91369.91369,0,0,0,.28515-.69238.97488.97488,0,0,0-.27539-.71289,1.13822,1.13822,0,0,0-.84472-.2793h-1.55274Z"/><path class="cls-3" d="M364.01093,89.22128a3.55243,3.55243,0,0,1-2.21582-.60449,2.15376,2.15376,0,0,1-.82031-1.72364h1.39551a1.24507,1.24507,0,0,0,.45215.90821,1.924,1.924,0,0,0,1.12988.2705,2.69216,2.69216,0,0,0,.52051-.04882,1.44454,1.44454,0,0,0,.43261-.15723.898.898,0,0,0,.29981-.28027.74427.74427,0,0,0,.1123-.418.69837.69837,0,0,0-.12207-.42188.946.946,0,0,0-.34961-.28027,2.82088,2.82088,0,0,0-.54492-.19629q-.31934-.08351-.72168-.17188c-.31445-.07226-.61816-.15234-.90918-.24121a2.74966,2.74966,0,0,1-.7666-.3584,1.71855,1.71855,0,0,1-.53027-.58007,1.80341,1.80341,0,0,1-.20118-.90332,1.96994,1.96994,0,0,1,.20118-.91407,1.863,1.863,0,0,1,.55957-.6582,2.52637,2.52637,0,0,1,.85058-.39844,4.15889,4.15889,0,0,1,1.08008-.13183,3.03527,3.03527,0,0,1,1.91113.55957,2.15244,2.15244,0,0,1,.80078,1.63086h-1.36523a1.06885,1.06885,0,0,0-.43262-.7959,1.55465,1.55465,0,0,0-.92382-.26465,1.659,1.659,0,0,0-.92286.22559.68864.68864,0,0,0-.34472.59961.63938.63938,0,0,0,.09375.35839.80819.80819,0,0,0,.28515.251,2.1744,2.1744,0,0,0,.47657.18652c.18945.05176.416.10743.67773.167q.54053.11718,1.0166.25976a3.18546,3.18546,0,0,1,.835.37891,1.7346,1.7346,0,0,1,.56543.59863,1.87742,1.87742,0,0,1,.20606.93359,2.111,2.111,0,0,1-.20606.94825,1.97177,1.97177,0,0,1-.57031.69726,2.59512,2.59512,0,0,1-.86426.42774A3.8363,3.8363,0,0,1,364.01093,89.22128Z"/><path class="cls-3" d="M370.39765,87.60018h-3.10547V86.15585l3.05567-3.90039h1.35644v4.27343h1.02149v1.07129h-1.02149v1.46387h-1.30664Zm-2.02441-1.07129h2.02441V83.91561h-.01953l-2.00488,2.584Z"/><path class="cls-3" d="M375.91816,89.21151a4.02205,4.02205,0,0,1-1.07031-.13769,2.70518,2.70518,0,0,1-.87012-.40235,1.99709,1.99709,0,0,1-.584-.65332,1.95971,1.95971,0,0,1,.11719-1.99023,1.94241,1.94241,0,0,1,.89453-.67774v-.02929a1.792,1.792,0,0,1-.69726-.52539,1.29072,1.29072,0,0,1-.2461-.81153,1.59851,1.59851,0,0,1,.17676-.75586,1.62838,1.62838,0,0,1,.501-.56543,2.38058,2.38058,0,0,1,.77148-.34863,3.93323,3.93323,0,0,1,.99707-.11816,3.88757,3.88757,0,0,1,.98731.11816,2.24408,2.24408,0,0,1,.75683.34375,1.555,1.555,0,0,1,.65332,1.30664,1.32632,1.32632,0,0,1-.24511.80567,1.75544,1.75544,0,0,1-.68848.541v.0293a1.80671,1.80671,0,0,1,.88965.64844,1.769,1.769,0,0,1,.3291,1.07128,2.04287,2.04287,0,0,1-.20117.92286,1.88961,1.88961,0,0,1-.56055.67285,2.58975,2.58975,0,0,1-.84961.41308A3.80553,3.80553,0,0,1,375.91816,89.21151Zm-.0293-1.08105a1.50131,1.50131,0,0,0,.958-.29.92882.92882,0,0,0,.36816-.77051,1.06291,1.06291,0,0,0-.34375-.831,1.38958,1.38958,0,0,0-.96289-.3086,1.46732,1.46732,0,0,0-.98242.3086,1.037,1.037,0,0,0-.36328.831.93945.93945,0,0,0,.35352.78027A1.52476,1.52476,0,0,0,375.88886,88.13046Zm0-3.13379a1.21714,1.21714,0,0,0,.82031-.251.82219.82219,0,0,0,.29-.65332.7946.7946,0,0,0-.29-.64355,1.25234,1.25234,0,0,0-.82031-.24024,1.27227,1.27227,0,0,0-.82519.24024.79009.79009,0,0,0-.29493.64355.81732.81732,0,0,0,.29493.65332A1.23629,1.23629,0,0,0,375.88886,84.99667Z"/><path class="cls-3" d="M381.65644,89.21151a3.61255,3.61255,0,0,1-1.03711-.14258,2.54431,2.54431,0,0,1-.83008-.41308,2.17638,2.17638,0,0,1-.57519-.65821,2.20159,2.20159,0,0,1-.26953-.8789h1.3164a1.03494,1.03494,0,0,0,.46192.7373,1.66536,1.66536,0,0,0,.90332.23535,1.18015,1.18015,0,0,0,.91406-.36328,1.28608,1.28608,0,0,0,.334-.90429,1.16576,1.16576,0,0,0-.3584-.91895,1.293,1.293,0,0,0-.88964-.31933,1.627,1.627,0,0,0-.668.12792,1.243,1.243,0,0,0-.43164.29493h-1.28711l.64843-3.67481h3.96875v1.11035H380.8205l-.25488,1.45411h.01953a1.62184,1.62184,0,0,1,.5752-.30958,2.67393,2.67393,0,0,1,.82031-.1123,2.31371,2.31371,0,0,1,.85449.16211,2.19739,2.19739,0,0,1,1.23828,1.208,2.47441,2.47441,0,0,1,.18653.97754,2.26493,2.26493,0,0,1-.752,1.71972,2.53467,2.53467,0,0,1-.82519.49121A2.9207,2.9207,0,0,1,381.65644,89.21151Z"/><path class="cls-3" d="M384.82929,86.05721h2.66309v1.14942h-2.66309Z"/></g></g></svg>