<?xml version="1.0" encoding="utf-8"?>
<!-- Generator: Adobe Illustrator 26.0.1, SVG Export Plug-In . SVG Version: 6.00 Build 0)  -->
<svg version="1.1" id="Layer_1" xmlns="http://www.w3.org/2000/svg" xmlns:xlink="http://www.w3.org/1999/xlink" x="0px" y="0px"
	 viewBox="0 0 788 475.7" style="enable-background:new 0 0 788 475.7;" xml:space="preserve">
<style type="text/css">
	.st0{opacity:0.3;}
	.st1{fill:#39393E;}
	.st2{fill:#438C5C;}
	.st3{fill:#C0BFBF;}
	.st4{fill:#DEAA54;}
	.st5{fill:#D3D3D3;}
	.st6{fill:#EBF4FB;}
	.st7{fill:#333E49;}
	.st8{fill:#222630;}
	.st9{fill:#BE8E3E;}
	.st10{fill:#96908A;}
	.st11{fill:#C0B5AB;}
	.st12{fill:#E0AC52;}
	.st13{fill:#7F8080;}
	.st14{fill:#333333;}
	.st15{fill:#B3B3B3;}
	.st16{fill:#EB2627;}
	.st17{fill:#65BC46;}
	.st18{fill:#FFFFFF;}
	.st19{fill:#FED401;}
</style>
<g id="Layer_2_00000052809518176498972680000000997424011802217362_">
	<g id="RAK13007">
		<g class="st0">
			<path class="st1" d="M129.6,174.6h233.8c1.1,0,2,0.9,2,2v169.8c0,1.1-0.9,2-2,2H129.6c-1.1,0-2-0.9-2-2V176.6
				C127.6,175.5,128.5,174.6,129.6,174.6z"/>
		</g>
		<g class="st0">
			<rect y="237" class="st2" width="121.4" height="113.2"/>
		</g>
		<path class="st3" d="M2.3,102.4v271h522.3v-271L2.3,102.4z M382.6,113.7c5,0,9,4,9,9s-4,9-9,9s-9-4-9-9l0,0
			C373.6,117.7,377.6,113.7,382.6,113.7z M219.1,297.7H37.8c-3.6,0.3-6.7-2.4-7-6c-0.3-3.6,2.4-6.7,6-7c0.3,0,0.7,0,1,0h181.3
			c3.6,0.3,6.3,3.4,6,7C224.9,294.9,222.3,297.5,219.1,297.7L219.1,297.7z M391.8,220.8V300c0,1.9-1.5,3.4-3.4,3.4l0,0H287.1v46.1
			c0,1.9-1.5,3.4-3.4,3.4l0,0h-16.8c-1.9,0-3.4-1.5-3.4-3.4l0,0v-66.3c0-1.9,1.5-3.4,3.4-3.4c0,0,0,0,0,0h101.3v-49H266.9
			c-1.9,0-3.4-1.5-3.4-3.4c0,0,0,0,0,0v-66.3c0-1.9,1.5-3.4,3.4-3.4l0,0h16.8c1.9,0,3.4,1.5,3.4,3.4l0,0v46.1h101.3
			c1.9,0,3.4,1.5,3.4,3.4l0,0L391.8,220.8z M448.5,364c-5,0-9-4-9-9s4-9,9-9s9,4,9,9S453.5,364,448.5,364z M504.3,175.8
			c-5,0-9-4-9-9s4-9,9-9s9,4,9,9C513.2,171.7,509.2,175.7,504.3,175.8L504.3,175.8z"/>
		<g class="st0">
			<path class="st4" d="M382.6,106.7c-6.1,0-11.6,3.4-14.3,8.8l0.1,12.1l10.3,10.6c1.3,0.3,2.6,0.5,3.9,0.5c8.9,0,16-7.2,16-16
				S391.4,106.7,382.6,106.7z M382.6,131.7c-5,0-9-4-9-9s4-9,9-9s9,4,9,9S387.5,131.7,382.6,131.7L382.6,131.7z"/>
		</g>
		<g class="st0">
			<path class="st4" d="M504.3,151.9c-8.2,0-14.9,6.7-14.9,14.9c0,8.2,6.7,14.9,14.9,14.9c8.2,0,14.9-6.7,14.9-14.9
				C519.1,158.5,512.5,151.9,504.3,151.9C504.3,151.9,504.3,151.9,504.3,151.9z M504.3,175.7c-5,0-9-4-9-9s4-9,9-9s9,4,9,9
				C513.3,171.7,509.2,175.7,504.3,175.7L504.3,175.7z"/>
		</g>
		<g class="st0">
			<path class="st4" d="M448.5,339.1c-1.7,0-3.5,0.3-5.1,0.9l-9.3,9.3v12.4c3.7,7.9,13.1,11.4,21.1,7.7c7.9-3.7,11.4-13.1,7.7-21.1
				C460.3,342.7,454.7,339.1,448.5,339.1z M448.5,364c-5,0-9-4-9-9s4-9,9-9s9,4,9,9C457.5,359.9,453.5,364,448.5,364
				C448.5,364,448.5,364,448.5,364L448.5,364z"/>
		</g>
		<g id="Back_Label">
			<path class="st5" d="M92,112.9c1.4,0,2.9,0.2,4.2,0.8c1.2,0.5,2.3,1.2,3.2,2.1c0.9,0.9,1.5,1.9,2,3c0.5,1.2,0.7,2.5,0.7,3.8
				c0,1.9-0.4,3.7-1.3,5.3c-1,1.6-2.4,2.8-4.2,3.4l0,0c0.9,0.2,1.7,0.6,2.3,1.2c0.6,0.5,1.1,1.2,1.5,1.9c0.4,0.8,0.7,1.6,0.8,2.4
				c0.2,0.9,0.3,1.7,0.4,2.6v2c0,0.8,0,1.5,0.2,2.3c0.1,0.7,0.2,1.5,0.4,2.2c0.1,0.6,0.4,1.2,0.8,1.8h-7.5c-0.4-1.2-0.7-2.5-0.8-3.8
				c-0.1-1.5-0.2-2.9-0.4-4.3c-0.1-1.5-0.6-3-1.6-4.1c-1.2-1-2.6-1.4-4.1-1.3H81v13.5h-7.5v-34.6H92z M89.2,128.6
				c1.4,0.1,2.9-0.3,4-1.2c1-1,1.4-2.4,1.3-3.8c0.1-1.4-0.4-2.8-1.3-3.8c-1.2-0.9-2.6-1.3-4-1.1h-8.3v9.8L89.2,128.6z"/>
			<path class="st5" d="M124.7,112.9l13,34.6h-7.9l-2.7-7.6h-12.9l-2.7,7.5H104l13.1-34.6L124.7,112.9z M125.2,134.2l-4.4-12.7l0,0
				l-4.6,12.7H125.2z"/>
			<polygon class="st5" points="146.9,112.9 146.9,127.3 160.4,112.9 170,112.9 156.4,126.6 171.3,147.6 161.7,147.6 151.3,132 
				146.9,136.4 146.9,147.6 139.3,147.6 139.3,112.9 			"/>
			<path class="st5" d="M38.9,120.2c1.6,0,3.3,0.2,4.8,0.8l0,0c0,0,1,0.5,0.9,2.5c0,1.5-1.3,2.7-2.8,2.6c0,0,0,0,0,0h-9.1v-3.8
				c0-0.5-0.1-1.1-0.3-1.6c1.8-0.5,3.7-0.8,5.6-1h0.8"/>
			<path class="st5" d="M39.9,113.3h1.8c1,0,2.3,0.2,2.8,1c0.4,0.7,0.5,1.6,0.3,2.4c-0.1,0.6-0.4,1.1-0.8,1.5
				c-0.2,0.2-0.3,0.4-0.5,0.5c-1.5-0.4-3-0.6-4.5-0.6h-1.3c-2.2,0.2-4.3,0.6-6.4,1.2c-0.5-0.4-1.1-0.7-1.7-1l-0.8-0.3
				c1.6-1.6,3.6-2.9,5.7-3.8C36.3,113.6,38.1,113.3,39.9,113.3"/>
			<path class="st5" d="M38.8,105.6h0.7c4.2,0.2,4.7,0.8,4.8,2.9c-0.1,1.1-0.7,2-1.5,2.7h-2.4c-1.7,0-3.3,0.2-4.9,0.7
				c-2.5,0.8-4.9,2-6.9,3.8c-0.9,0.8-1.8,1.7-2.6,2.7c-0.5,0.2-0.9,0.4-1.3,0.8l-0.3,0.3c-0.4-0.4-0.9-0.7-1.4-1
				c-0.6-0.3-1.2-0.4-1.9-0.4c1.2-2.9,3.1-5.5,5.5-7.5c3.5-2.9,7.8-4.6,12.4-4.7l0,0"/>
			<path class="st5" d="M43.7,128c0.5,1.9,0.8,3.7,1,5.7c0.1,1.9-0.1,3.8-0.8,5.6l0,0c0,0-0.4,0.9-2,0.9h-0.5
				c-1.5,0-2.7-1.3-2.7-2.8c0,0,0,0,0,0l0,0l0,0v-8.9h3.6c0.5,0,1.1-0.1,1.6-0.3"/>
			<path class="st5" d="M46.8,124.3c1.6,1.6,2.9,3.5,3.8,5.7c0.8,2.1,1.1,4.3,0.9,6.5v0.7c0,1,0,2.3-0.9,2.8c-0.5,0.3-1,0.4-1.6,0.4
				c-0.3,0-0.6,0-0.8,0c-0.6-0.1-1.1-0.4-1.5-0.8l-0.5-0.5c0.5-1.9,0.7-3.9,0.5-5.8c-0.2-2.1-0.6-4.2-1.2-6.3
				c0.4-0.5,0.7-1.1,0.9-1.7c0.1-0.3,0.2-0.6,0.3-0.9"/>
			<path class="st5" d="M47,116.5c2.9,1.2,5.5,3.1,7.5,5.5c3.1,3.7,4.7,8.3,4.6,13.1c0,4.2-0.8,4.8-3,4.8c-1.1-0.1-2-0.7-2.6-1.6
				c0.3-2.5,0.1-4.9-0.5-7.4c-0.8-2.5-2-4.9-3.8-6.9c-0.8-0.9-1.7-1.8-2.7-2.6c-0.2-0.5-0.4-0.9-0.8-1.3c-0.1-0.1-0.2-0.3-0.4-0.4
				c0.4-0.4,0.8-0.9,1.1-1.4C46.8,117.7,46.9,117.1,47,116.5"/>
			<path class="st5" d="M36.6,134.2v3.8c0,0.6,0.1,1.1,0.3,1.6c-1.9,0.5-3.7,0.8-5.6,0.9h-0.8c-1.7,0-3.3-0.2-4.9-0.8l0,0
				c0,0-1.1-0.5-0.9-2.5c0.1-1.5,1.3-2.7,2.9-2.7h9"/>
			<path class="st5" d="M38.1,141.1c0.5,0.4,1.1,0.8,1.7,1l0.9,0.3c-1.6,1.6-3.6,2.9-5.7,3.8c-1.7,0.6-3.5,1-5.4,1h-1.8
				c-1,0-2.3,0-2.7-0.9c-0.4-0.7-0.5-1.6-0.3-2.4c0.1-0.6,0.4-1.1,0.8-1.6l0.6-0.5c1.5,0.4,3,0.6,4.5,0.6h1.3
				C33.9,142.1,36,141.7,38.1,141.1"/>
			<path class="st5" d="M45.2,141c0.8,0.9,2,1.5,3.3,1.5c-1.2,2.9-3.1,5.5-5.5,7.5c-3.5,2.9-7.8,4.6-12.4,4.7H30
				c-4.2,0-4.8-0.8-4.8-2.9c0.1-1,0.7-2,1.6-2.6h2.3c1.7,0,3.3-0.2,4.9-0.6c2.5-0.8,4.9-2,6.9-3.8c1.1-1,2.2-2.2,2.6-2.7
				c0.5-0.2,0.9-0.4,1.3-0.8L45.2,141"/>
			<path class="st5" d="M27.6,120.3h0.5c1.5,0.1,2.7,1.3,2.6,2.8v9H27c-0.5,0-1.1,0.1-1.6,0.3c-0.5-1.9-0.8-3.7-1-5.7
				c-0.1-1.9,0.2-3.8,0.8-5.7l0,0c0,0,0.4-0.9,2-0.9"/>
			<path class="st5" d="M20.4,120.1h0.8c0.6,0.1,1.1,0.4,1.5,0.8l0.5,0.6c-0.5,1.9-0.7,3.8-0.6,5.8c0.2,2.2,0.6,4.3,1.2,6.4
				c-0.4,0.5-0.7,1.1-0.9,1.7c-0.1,0.3-0.2,0.5-0.3,0.8c-1.6-1.6-2.9-3.6-3.8-5.7c-0.8-2.1-1.1-4.3-1-6.5v-0.7c0-1.1,0-2.3,0.9-2.8
				c0.5-0.3,1-0.4,1.6-0.5"/>
			<path class="st5" d="M13.1,120.7c1.1,0.1,2,0.7,2.7,1.5c-0.3,2.5-0.1,5,0.5,7.3c0.8,2.5,2,4.9,3.8,6.9c0.8,0.9,1.7,1.8,2.7,2.6
				c0.2,0.5,0.4,0.9,0.8,1.3l0.3,0.3c-0.4,0.4-0.8,0.9-1.1,1.4c-0.2,0.6-0.4,1.2-0.4,1.9c-2.9-1.2-5.5-3.1-7.5-5.5
				c-3.1-3.6-4.8-8.3-4.7-13.1C10.3,121.3,10.9,120.7,13.1,120.7L13.1,120.7"/>
			<path class="st5" d="M176.4,112c2.9,0.1,5.2,2.5,5.1,5.4c-0.1,2.9-2.5,5.2-5.4,5.1c-2.9-0.1-5.1-2.4-5.1-5.3
				c0-2.9,2.3-5.2,5.2-5.3C176.3,112,176.3,112,176.4,112z M176.4,121.4c2.3,0.1,4.2-1.7,4.3-4c0.1-2.3-1.7-4.2-4-4.3
				c-2.3-0.1-4.2,1.7-4.3,4c0,0,0,0.1,0,0.1c-0.1,2.2,1.7,4,3.9,4.1C176.3,121.4,176.4,121.4,176.4,121.4L176.4,121.4z M174.3,114.3
				h2.2c1.5,0,2.3,0.5,2.3,1.8c0.1,0.8-0.6,1.5-1.4,1.6c-0.1,0-0.1,0-0.2,0l1.6,2.6h-1.2l-1.4-2.5h-0.7v2.5h-1.2V114.3z
				 M175.5,116.8h1c0.7,0,1.1-0.1,1.1-0.8s-0.7-0.7-1.2-0.7h-1L175.5,116.8z"/>
			<path class="st5" d="M23.8,168.6h-2.4L20,163l0,0l-1.4,5.6h-2.4l-2.6-8.4h2.4l1.5,5.7l0,0l1.4-5.7H21l1.4,5.7l0,0l1.5-5.7h2.4
				L23.8,168.6z"/>
			<path class="st5" d="M36.6,168.6h-2.4l-1.5-5.6l0,0l-1.4,5.6H29l-2.6-8.4h2.4l1.5,5.7l0,0l1.4-5.7h2.2l1.4,5.7l0,0l1.5-5.7h2.4
				L36.6,168.6z"/>
			<path class="st5" d="M49.5,168.6h-2.4l-1.5-5.6l0,0l-1.4,5.6h-2.4l-2.7-8.4h2.4l1.5,5.7l0,0l1.4-5.7h2.2l1.4,5.7l0,0l1.5-5.7H52
				L49.5,168.6z"/>
			<path class="st5" d="M52.8,166.1h2.5v2.5h-2.5V166.1z"/>
			<path class="st5" d="M57.1,157.1h6.2c1.7-0.1,3.3,1.2,3.4,3c0,0.1,0,0.2,0,0.2c0.1,1.3-0.6,2.5-1.8,2.9l0,0
				c1.2,0.3,1.6,1.5,1.7,2.7c-0.1,0.9,0.1,1.9,0.5,2.7h-2.5c-0.2-0.9-0.4-1.8-0.4-2.8c-0.2-1.2-0.7-1.7-1.9-1.7h-2.5v4.5h-2.5V157.1
				z M59.7,162.3h2.8c1.2,0,1.7-0.5,1.7-1.6s-0.6-1.6-1.7-1.6h-2.8V162.3z"/>
			<path class="st5" d="M71.6,157.1h2.6l4.3,11.5h-2.6L75,166h-4.3l-0.9,2.6h-2.6L71.6,157.1z M71.4,164.1h3l-1.4-4.2l0,0
				L71.4,164.1z"/>
			<path class="st5" d="M79.2,157.1h2.5v4.8l4.5-4.8h3.2l-4.5,4.6l4.9,7h-3.2l-3.5-5.2l-1.4,1.5v3.7h-2.5V157.1z"/>
			<path class="st5" d="M99.9,168.6h-2.4L96,163l0,0l-1.4,5.6h-2.4l-2.7-8.4H92l1.5,5.7l0,0l1.4-5.7h2.2l1.4,5.7l0,0l1.5-5.7h2.4
				L99.9,168.6z"/>
			<path class="st5" d="M105.5,159h-2.3v-1.9h2.3V159z M103.2,160.3h2.3v8.4h-2.3V160.3z"/>
			<path class="st5" d="M107,160.2h2.2v1.6l0,0c0.5-1.1,1.5-1.8,2.7-1.8c0.2,0,0.3,0,0.5,0.1v2.1c-0.3-0.1-0.5-0.1-0.8-0.1
				c-1.7,0-2.3,1.2-2.3,2.7v3.8H107V160.2z"/>
			<path class="st5" d="M114.8,165c0.1,1.5,0.8,2.1,2.1,2.1c0.8,0,1.5-0.4,1.8-1.1h2c-0.4,1.8-2.1,2.9-3.9,2.8
				c-2.3,0.1-4.2-1.6-4.3-3.9c0-0.2,0-0.3,0-0.5c-0.1-2.3,1.7-4.3,4-4.4c0.1,0,0.2,0,0.3,0c2.8,0,4.2,2.4,4,5L114.8,165z
				 M118.6,163.5c-0.2-1.2-0.7-1.8-1.8-1.8c-1-0.1-1.8,0.7-1.9,1.7c0,0,0,0.1,0,0.1H118.6z"/>
			<path class="st5" d="M122,157.1h2.3v11.5H122V157.1z"/>
			<path class="st5" d="M127.7,165c0.1,1.5,0.8,2.1,2,2.1c0.8,0,1.5-0.4,1.8-1.1h2c-0.4,1.8-2.1,3-3.9,2.8c-2.3,0.1-4.2-1.6-4.3-3.9
				c0-0.2,0-0.3,0-0.5c-0.1-2.3,1.6-4.3,3.9-4.4c0.1,0,0.2,0,0.3,0c2.9,0,4.2,2.4,4.1,5L127.7,165z M131.4,163.5
				c-0.2-1.2-0.7-1.8-1.8-1.8c-1-0.1-1.8,0.7-1.9,1.7c0,0,0,0.1,0,0.1H131.4z"/>
			<path class="st5" d="M136.5,165.9c0,1,0.9,1.4,1.8,1.4c0.6,0,1.5-0.3,1.5-1.1s-1-0.9-2.6-1.3c-1.3-0.3-2.6-0.7-2.6-2.2
				c0-2.1,1.8-2.7,3.6-2.7s3.5,0.6,3.7,2.7h-2.2c-0.1-0.9-0.7-1.1-1.6-1.1c-0.5,0-1.3,0.1-1.3,0.8s1.3,0.9,2.6,1.2s2.6,0.8,2.6,2.4
				c0,2.2-1.9,2.9-3.8,2.9s-3.8-0.7-3.9-2.9L136.5,165.9z"/>
			<path class="st5" d="M144.8,165.9c0,1,0.9,1.4,1.8,1.4c0.6,0,1.5-0.3,1.5-1.1s-1-0.9-2.6-1.3c-1.3-0.3-2.6-0.7-2.6-2.2
				c0-2.1,1.9-2.7,3.6-2.7s3.5,0.6,3.7,2.7H148c-0.1-0.9-0.7-1.1-1.6-1.1c-0.5,0-1.3,0.1-1.3,0.8s1.3,0.9,2.6,1.2s2.6,0.8,2.6,2.4
				c0,2.2-1.9,2.9-3.8,2.9s-3.9-0.7-3.9-2.9L144.8,165.9z"/>
			<path class="st5" d="M151.5,166.1h2.5v2.5h-2.5V166.1z"/>
			<path class="st5" d="M161.3,163.2c-0.1-0.8-0.8-1.5-1.6-1.4c0,0,0,0-0.1,0c-1.5,0-2,1.5-2,2.7s0.5,2.6,1.9,2.6
				c1,0,1.8-0.7,1.8-1.7c0,0,0,0,0,0h2.2c-0.2,2-2,3.6-4,3.4c-2.2,0.1-4.1-1.6-4.2-3.8c0-0.2,0-0.3,0-0.5c0-2.6,1.6-4.5,4.3-4.5
				c2,0,3.8,1,3.9,3.2L161.3,163.2z"/>
			<path class="st5" d="M168.6,160c2.4,0,4.4,1.9,4.5,4.3c0,2.4-1.9,4.4-4.3,4.5s-4.4-1.9-4.5-4.3c0,0,0-0.1,0-0.1
				c-0.2-2.3,1.5-4.2,3.8-4.4C168.2,160,168.4,160,168.6,160z M168.6,167.1c1.6,0,2-1.3,2-2.7s-0.5-2.7-2-2.7s-2,1.3-2,2.7
				S167,167.1,168.6,167.1L168.6,167.1z"/>
			<path class="st5" d="M174.1,160.2h2.2v1.1l0,0c0.6-0.9,1.5-1.4,2.6-1.4c1-0.1,2,0.5,2.4,1.4c0.6-0.9,1.5-1.4,2.5-1.4
				c1.8,0,3.1,0.8,3.1,3v5.6h-2.3v-4.7c0-1.1-0.1-2-1.4-2s-1.5,1.1-1.5,2.1v4.7h-2.3v-4.7c0-1,0.1-2.1-1.4-2.1
				c-0.5,0-1.6,0.3-1.6,1.9v4.9h-2.3L174.1,160.2z"/>
			<path class="st5" d="M16.9,211.4h9.7c2.7-0.2,5.1,1.9,5.3,4.6c0,0.1,0,0.3,0,0.4c0.2,2-1,3.8-2.8,4.5v0.1
				c1.9,0.5,2.5,2.4,2.6,4.2c0.1,1.1,0,3.3,0.8,4.3h-4c-0.4-1.4-0.6-2.9-0.6-4.3c-0.3-1.9-1-2.7-3-2.7h-4v7h-4L16.9,211.4z
				 M20.9,219.6h4.3c1.8,0,2.7-0.8,2.7-2.6s-0.9-2.5-2.7-2.5h-4.4L20.9,219.6z"/>
			<path class="st5" d="M39.5,211.4h4.1l6.7,18h-4.1l-1.4-4h-6.7l-1.4,4h-4L39.5,211.4z M39.1,222.4h4.7l-2.3-6.6l0,0L39.1,222.4z"
				/>
			<path class="st5" d="M51.3,211.4h4v7.5l7-7.5h4.9l-7,7.1l7.7,10.9h-5l-5.4-8.1l-2.3,2.3v5.8h-4L51.3,211.4z"/>
			<path class="st5" d="M77.2,229.4h-3.6V218h-4.4v-2.7c2.5,0.1,4.8-0.8,5.2-3.5h2.8L77.2,229.4z"/>
			<path class="st5" d="M86.5,218.9c1.5,0.1,3.8-0.2,3.8-2.2c0-1.3-1-2.3-2.3-2.3c-0.1,0-0.1,0-0.2,0c-1.8,0-2.7,1.3-2.7,3.1h-3.4
				c0.1-3.6,2.4-6.1,6.1-6.1c2.8,0,5.9,1.7,5.9,4.9c0.1,1.6-0.9,3.1-2.5,3.6l0,0c1.9,0.4,3.2,2.1,3.1,4c0,3.7-3.1,5.8-6.6,5.8
				c-4,0-6.6-2.4-6.6-6.4h3.4c0.1,1.9,1,3.5,3.1,3.5c1.5,0.1,2.8-1.1,2.9-2.6c0-0.1,0-0.1,0-0.2c0-2.7-2.3-2.6-4.1-2.6L86.5,218.9z"
				/>
			<path class="st5" d="M101.3,211.4c3.5,0,6.5,2.2,6.5,9.1s-3,9.2-6.5,9.2s-6.4-2.2-6.4-9.2S97.8,211.4,101.3,211.4z M101.3,226.8
				c2.9,0,2.9-4.3,2.9-6.3c0-1.8,0-6.1-2.9-6.1s-2.9,4.3-2.9,6.1C98.4,222.5,98.4,226.8,101.3,226.8z"/>
			<path class="st5" d="M114.8,211.4c3.5,0,6.5,2.2,6.5,9.1s-3,9.2-6.5,9.2s-6.4-2.2-6.4-9.2S111.3,211.4,114.8,211.4z M114.8,226.8
				c2.9,0,2.9-4.3,2.9-6.3c0-1.8,0-6.1-2.9-6.1s-2.9,4.3-2.9,6.1C111.9,222.5,111.9,226.8,114.8,226.8z"/>
			<path class="st5" d="M134.4,214.8c-3.7,3.3-5.7,9.9-5.8,14.6h-3.8c0.5-5.3,2.5-10.3,5.9-14.3h-8.4v-3.3h12L134.4,214.8z"/>
			<path class="st5" d="M151.5,229.4H147l-5.9-18h4.1l4,12.6h0.1l4.1-12.6h4.1L151.5,229.4z"/>
			<path class="st5" d="M163.4,211.4h4.1l6.7,18h-4.1l-1.4-4H162l-1.4,4h-4L163.4,211.4z M163,222.4h4.7l-2.3-6.6l0,0L163,222.4z"/>
			<path class="st5" d="M13.3,260.9c-0.2-1.2-1.3-2.1-2.6-2.1c-2.3,0-3.2,2-3.2,4.1s0.9,4,3.2,4c1.5,0,2.7-1.2,2.7-2.6c0,0,0,0,0,0
				h2.5c-0.1,2.8-2.4,4.9-5.2,4.8c0,0,0,0,0,0c-3.7,0-5.8-2.8-5.8-6.2s2.2-6.3,5.8-6.3c2.6-0.2,4.8,1.7,5.1,4.3L13.3,260.9z"/>
			<path class="st5" d="M23,256.6c3.7,0,5.8,2.8,5.8,6.3S26.7,269,23,269s-5.8-2.8-5.8-6.2S19.4,256.6,23,256.6z M23,266.8
				c2.4,0,3.2-2,3.2-4s-0.9-4.1-3.2-4.1s-3.2,2-3.2,4.1S20.7,266.8,23,266.8z"/>
			<path class="st5" d="M30.7,256.9h3.7l2.8,8.1l0,0l2.6-8.2h3.7v11.9H41v-8.4l0,0l-2.9,8.4h-2l-2.9-8.3l0,0v8.3h-2.5V256.9z"/>
			<path class="st5" d="M9.8,316.1h2.6l5,8l0,0v-8h2.5V328h-2.6l-4.9-8l0,0v8H9.8V316.1z"/>
			<path class="st5" d="M27.5,315.8c3.7,0,5.9,2.8,5.9,6.3s-2.2,6.2-5.9,6.2s-5.8-2.7-5.8-6.2S23.8,315.8,27.5,315.8z M27.5,326.1
				c2.4,0,3.2-2,3.2-4s-0.9-4.1-3.2-4.1s-3.2,2-3.2,4.1S25.1,326.1,27.5,326.1z"/>
			<path class="st5" d="M35,325.4h2.6v2.6H35V325.4z"/>
			<polygon class="st5" points="302.4,110.6 302.4,114.4 298.7,114.4 298.7,110.6 287.9,110.6 287.9,114.4 284.3,114.4 284.3,110.6 
				274.6,110.6 274.6,114.4 270.8,114.4 270.8,134.8 315.7,134.8 315.7,114.4 312.2,114.4 312.2,110.6 			"/>
			<path class="st5" d="M260.7,138h1.6l1.6,6.8l0,0l1.8-6.8h1.6l1.8,6.8l0,0l1.6-6.8h1.7l-2.4,8.9h-1.6l-1.8-6.9l0,0l-1.8,6.8H263
				L260.7,138z"/>
			<path class="st5" d="M273.1,138h1.4v1.3h-1.4V138z M273.1,140.4h1.4v6.4h-1.4V140.4z"/>
			<path class="st5" d="M277.1,144.8c0.1,0.7,0.7,1.2,1.3,1.1c0,0,0,0,0,0h0.1c0.6,0,1.5,0,1.4-0.8s-1-0.8-2.1-1.1s-2-0.6-2-1.9
				s1.5-1.8,2.7-1.8c1.3-0.2,2.5,0.7,2.7,2h-1.5c0-0.7-0.7-0.8-1.3-0.8s-1.2,0-1.2,0.6s1,0.8,2.1,1s2.1,0.6,2.1,1.9
				s-1.5,2.1-2.9,2.1c-1.4,0.1-2.7-0.8-2.8-2.2L277.1,144.8z"/>
			<path class="st5" d="M284.2,138.1h4.3c1.7,0,2.7,0.5,2.7,2.2c0,0.8-0.4,1.6-1.2,1.9c1,0.3,1.7,1.2,1.6,2.2c0,1.8-1.5,2.7-3.1,2.7
				h-4.3L284.2,138.1z M286.2,141.7h2c0.7,0,1.2-0.3,1.2-1s-0.6-1-1.3-1h-1.8L286.2,141.7z M286.2,145.4h2.1c0.8,0,1.5-0.2,1.5-1.2
				s-0.6-1.3-1.4-1.3h-2.1L286.2,145.4z"/>
			<path class="st5" d="M292.9,138.1h1.9v7.3h4.4v1.6h-6.3V138.1z"/>
			<path class="st5" d="M304.3,137.9c2.6-0.1,4.7,1.8,4.9,4.4c0.1,2.6-1.8,4.7-4.4,4.9c-2.6,0.1-4.7-1.8-4.9-4.4v-0.2
				c-0.2-2.4,1.5-4.4,3.9-4.6c0,0,0,0,0,0C303.9,137.9,304.1,137.9,304.3,137.9z M304.3,145.5c1.8,0,2.4-1.5,2.4-3s-0.6-3-2.4-3
				s-2.4,1.5-2.4,3S302.5,145.5,304.3,145.5z"/>
			<path class="st5" d="M315.8,141.1c-0.2-0.9-1-1.6-1.9-1.5c-1.8,0-2.4,1.5-2.4,3s0.6,3,2.4,3c1.1,0,2-0.9,2-2h1.9
				c-0.1,2.1-1.8,3.7-3.9,3.6c0,0,0,0,0,0l0,0c-2.6,0-4.6-2.1-4.6-4.6c0-2.6,2.1-4.6,4.6-4.6c0,0,0,0,0,0c1.9-0.1,3.6,1.3,3.8,3.2
				L315.8,141.1z"/>
			<path class="st5" d="M319.1,138.1h1.9v3.7l3.5-3.7h2.5l-3.5,3.5l3.8,5.4h-2.5l-2.7-4l-1.1,1.1v2.9h-2L319.1,138.1z"/>
			<g id="dispose-properly">
				<g id="Layer_2-2">
					<g id="Layer_1-2">
						<path class="st5" d="M417.9,238.5c-1.3,0.1-2.2,1.3-2.1,2.5c0.1,1.3,1.3,2.2,2.5,2.1c1-0.1,1.9-0.9,2.1-1.9c0-0.1,0-0.3,0-0.4
							v-0.2C420.3,239.3,419.2,238.4,417.9,238.5 M418.1,241.2c-0.3,0-0.5-0.2-0.5-0.5c0-0.3,0.2-0.5,0.5-0.5l0,0
							c0.2,0,0.3,0.1,0.5,0.2c0.2,0.2,0.2,0.5,0,0.7c0,0,0,0,0,0C418.4,241.2,418.3,241.2,418.1,241.2"/>
						<path class="st5" d="M409.6,194.8h-2v7.3h5c0.5,5.7,1.1,11.3,1.6,17c0.4,3.9,0.7,7.8,1.1,11.8l-7.2,7.5l1.1,1.1l6.2-6.5v1.5
							c-1.8,0.7-3.1,2.1-3.8,3.9c-1.4,3.5,0.3,7.5,3.8,8.8c3.4,1.3,7.2-0.2,8.7-3.5c0.1-0.2,0.2-0.4,0.2-0.6h13.7v4.9h4v-4.9
							c0.5,0,0.9-0.4,1-0.9l1-11.4l7.2,7.5l1.1-1.1l-8-8.4c0.3-3.3,0.6-6.5,0.9-9.7c0.6-6.4,1.2-12.8,1.8-19.2l9.1-9.4l-1.1-1.1
							l-7.7,8l0.5-5h2.9v-3H448v-0.7c0-0.3-0.1-0.6-0.3-0.8c-1.2-1.1-2.7-2-4.2-2.7V183h-4.4v0.9c-1.8-0.4-3.7-0.6-5.6-0.7v-1.2H423
							v1.6c-2.4,0.3-4.7,0.8-6.9,1.6c-1.2,0.5-2.3,1.1-3.3,1.8c-0.3-0.4-0.8-0.8-1.3-0.9c-1.4-0.6-2.9,0.1-3.5,1.4c0,0,0,0,0,0
							l-0.1,0.2c-0.5,1.4,0.2,3,1.6,3.6v1.1h2.2c0,0.8,0.1,1.6,0.2,2.4l0,0l-2.3-2.4l-3.9-4.1l-1.1,1.1L409.6,194.8z M410.5,187.4
							c0.4,0,0.8,0.2,1.1,0.6c-0.2,0.2-0.3,0.5-0.3,0.8v0.7h-1.9c-0.4-0.5-0.3-1.3,0.2-1.7C409.9,187.5,410.2,187.4,410.5,187.4
							L410.5,187.4 M431.6,185h-6.8v-1.4h6.9L431.6,185z M442,187.8h-1v-3.1h1V187.8z M446.3,189.1c0,0.1,0,0.2,0,0.4h-2.5v-2
							C444.7,187.9,445.5,188.5,446.3,189.1 M443.6,219c-0.2,2.7-0.5,5.3-0.7,8l-10.7-11.1l13-13.6
							C444.6,207.9,444.1,213.4,443.6,219 M440,244.4h0.9v2.4H440V244.4z M425.2,240.8L425.2,240.8c0-3.7-3.1-6.8-6.8-6.8h-0.6
							c0-1-0.1-1.9-0.3-2.9l13.6-14.2l11.6,12.1c-0.4,4-0.7,8-1.1,12.2h-16.6c0-0.1,0-0.3,0-0.4 M414.6,240.8c0-1.9,1.5-3.5,3.4-3.6
							h0.3c1.9,0,3.5,1.5,3.5,3.5c0,0,0,0,0,0l0,0c0.1,2-1.4,3.6-3.3,3.7s-3.6-1.4-3.7-3.3c0-0.1,0-0.3,0-0.4 M416.3,218.9
							c-0.5-5.6-1.1-11.2-1.6-16.9l0,0v-2l5.3,5.6v2h1.9l7.8,8L417,229c-0.3-3.4-0.6-6.8-0.9-10.1 M421.9,205.2v-0.7h10.3v1.4h-9.6
							L421.9,205.2z M413.9,194.8l-0.2-2.4h32.2c-0.2,2.4-0.5,4.9-0.7,7.3l-14.3,14.8l-6.7-7h9.8v-4.7h-13.9v0.5l-5.3-5.6v-3
							L413.9,194.8 M413.4,189.4c0-0.1,0-0.3,0-0.4c1-0.8,2.2-1.5,3.4-2.1c2-0.7,4.1-1.2,6.3-1.5v1.2h10.5v-1.6
							c1.9,0.1,3.7,0.4,5.6,0.8v3.5L413.4,189.4 M411.2,196.4l0.9,1c0,1,0.1,2,0.3,3h-3v-3.9L411.2,196.4z"/>
					</g>
				</g>
			</g>
			<path class="st5" d="M430.9,269.8l31.2,64.4h-62.6L430.9,269.8z M430.9,266.3l-33.8,69.5h67.6L430.9,266.3z"/>
			
				<rect x="435.4" y="285.6" transform="matrix(0.4927 -0.8702 0.8702 0.4927 -46.605 535.7308)" class="st5" width="1.5" height="44.5"/>
			
				<rect x="436" y="287.4" transform="matrix(0.4927 -0.8702 0.8702 0.4927 -49.9871 538.3531)" class="st5" width="1.5" height="49.2"/>
			<path class="st5" d="M422,299.7l-1.4-0.7c1.4-2.6,2.9-5.1,4.5-7.5c2.1-2.9,13.4-5.5,14.7-5.6l0.3,1.5c-4.6,1-12.4,3.2-13.7,5
				C424.8,294.7,423.3,297.2,422,299.7"/>
			<path class="st5" d="M441.4,311.2l-0.8-1.3c1.8-1.1,2.9-3.1,2.7-5.2c0-2.4,0.4-4.8,1.1-7.1l1.5,0.5c-0.7,2.1-1.1,4.2-1.1,6.4
				c0.2,2.7-1.2,5.3-3.6,6.7"/>
			<path class="st5" d="M425,319.4h-0.6c-3.2-0.4-7.3-10.4-7.3-10.5c-0.7-2.5,0.1-5.3,2-7l1.1,1.1c-1.5,1.4-2.1,3.5-1.6,5.5
				c1.8,4.4,4.7,9.4,6,9.6c0.7,0,1.1,0,1.2-0.2s0-0.8-0.6-1.5c-1.7-2.3-2.9-5.1-3.3-8c0.4-1.3,1-2.6,1.8-3.7l1.3,0.8
				c-0.6,1-1.1,2-1.5,3.1c0.5,2.4,1.5,4.7,2.9,6.6c1.3,1.6,1,2.7,0.8,3.2C426.8,319.1,426,319.5,425,319.4"/>
			<path class="st5" d="M431,322.5c-0.3,0-0.6-0.1-0.9-0.2c-0.6-0.3-1.2-1-1-2.7c0.4-3.5,4.9-8.9,5.1-9.2l1.2,1
				c-2.1,2.4-3.7,5.3-4.7,8.4c0,0.7,0,1.1,0.2,1.1c1-0.1,2-0.6,2.7-1.3c1.8-2,3.5-4.2,4.9-6.6l1.3,0.8c-1.5,2.5-3.1,4.8-5,7
				c-1,1-2.3,1.6-3.6,1.7"/>
			<path class="st5" d="M430.5,316.9c-2.3-0.4-4.4-1.3-6.3-2.5l0.8-1.3c2.5,1.5,5.2,2.7,5.8,2.3c0.1-0.3,0.1-0.7,0-1.1
				c-0.7-1.3-1.8-2.3-3.2-2.7c-1.2-0.4-2.1-1.3-2.5-2.4c-0.2-1.2,0.1-2.4,0.8-3.3l1.3,0.8c-0.4,0.7-0.9,1.4-0.6,2.1s0.7,1,1.7,1.4
				c1.9,0.6,3.4,1.9,4.2,3.7c0.3,0.8,0.1,1.7-0.3,2.4c-0.2,0.4-0.6,0.6-1,0.7L430.5,316.9"/>
			<rect x="428" y="273.3" class="st5" width="6.2" height="1.5"/>
			<rect x="426.1" y="277" class="st5" width="9.5" height="1.5"/>
			<rect x="424.3" y="280.8" class="st5" width="13.2" height="1.5"/>
			<rect x="422.5" y="284.5" class="st5" width="16.8" height="1.5"/>
			<rect x="420.9" y="288.3" class="st5" width="10" height="1.5"/>
			<rect x="418.8" y="292.1" class="st5" width="6.3" height="1.5"/>
			<rect x="417.3" y="295.8" class="st5" width="5.3" height="1.5"/>
			<rect x="413.3" y="303.4" class="st5" width="5" height="1.5"/>
			<rect x="444.5" y="303.4" class="st5" width="4" height="1.5"/>
			<rect x="411.5" y="307.1" class="st5" width="6.4" height="1.5"/>
			<rect x="443.8" y="307.1" class="st5" width="6.4" height="1.5"/>
			<rect x="410" y="310.9" class="st5" width="9.2" height="1.5"/>
			<rect x="443" y="310.9" class="st5" width="9.1" height="1.5"/>
			<rect x="407.8" y="314.6" class="st5" width="13.5" height="1.5"/>
			<rect x="437.9" y="314.6" class="st5" width="4.8" height="1.5"/>
			<path class="st5" d="M454.1,316.5h-4.8v-2.3h4.8V316.5z M450,315.8h3.4V315H450L450,315.8z"/>
			<rect x="406" y="318.4" class="st5" width="23.9" height="1.5"/>
			<rect x="435.1" y="318.4" class="st5" width="14.5" height="1.5"/>
			<rect x="404.8" y="322.1" class="st5" width="51" height="1.5"/>
			<rect x="402.3" y="325.9" class="st5" width="57.1" height="1.5"/>
			<rect x="400.4" y="329.7" class="st5" width="60.9" height="1.5"/>
			<path class="st5" d="M419.5,138.2h-11.7v-26.7h11.7c0.6,0,1,0.4,1,1s-0.4,1-1,1h-9.7v22.7h9.7c0.6,0,1,0.4,1,1
				S420,138.2,419.5,138.2z"/>
			<path class="st5" d="M522.7,138.2H511c-0.6,0-1-0.4-1-1s0.4-1,1-1h9.7v-22.7H511c-0.6,0-1-0.4-1-1s0.4-1,1-1h11.7L522.7,138.2z"
				/>
			<circle class="st5" cx="505.9" cy="108" r="2.1"/>
		</g>
		<path class="st6" d="M415.8,134.2h-0.9c-0.8,0-1.5-0.7-1.5-1.5v-16c0-0.8,0.7-1.5,1.5-1.5h0.9c0.8,0,1.5,0.7,1.5,1.5v16
			C417.3,133.5,416.6,134.2,415.8,134.2"/>
		<path class="st6" d="M515,134.2h-0.9c-0.8,0-1.5-0.7-1.5-1.5l0,0v-16c0-0.8,0.7-1.5,1.5-1.5h0.9c0.8,0,1.5,0.7,1.5,1.5l0,0v16
			C516.5,133.5,515.8,134.2,515,134.2C515,134.2,515,134.2,515,134.2L515,134.2"/>
		<path class="st7" d="M517.4,120.3v-1.5c0-0.8-0.7-1.5-1.5-1.5h-3.1c-0.6,0-1.1,0.4-1.4,0.9h-93.1c-0.2-0.6-0.8-0.9-1.4-0.9h-3.1
			c-0.8,0-1.5,0.7-1.5,1.5v1.6c0,0.7,0.4,1.2,1.1,1.4v6c-0.6,0.2-1.1,0.8-1.1,1.4v1.5c0,0.8,0.7,1.5,1.5,1.5h3.1
			c0.6,0,1.2-0.4,1.4-1h93c0.2,0.6,0.8,1,1.4,1h3.1c0.8,0,1.5-0.7,1.5-1.5c0,0,0,0,0,0v-1.5c0-0.6-0.4-1.2-0.9-1.4v-6
			C517,121.5,517.4,120.9,517.4,120.3z"/>
		<path class="st8" d="M509.1,129.9h-88.7c-0.7,0-1.2-0.3-1.2-0.8v-8.4c0-0.4,0.6-0.8,1.2-0.8h88.7c0.7,0,1.2,0.3,1.2,0.8v8.4
			C510.4,129.5,509.8,129.8,509.1,129.9"/>
		<path class="st6" d="M424.8,112h-1.7c-0.2,0-0.4,0.2-0.5,0.5v1.5c0,0.2,0.2,0.4,0.4,0.4l0,0v4.1h1.8v-4.1c0.2,0,0.4-0.2,0.4-0.4
			c0,0,0,0,0,0v-1.5C425.3,112.2,425.1,112,424.8,112L424.8,112"/>
		<path class="st9" d="M424.6,120h-2.3c-0.2,0-0.3-0.2-0.3-0.3v-1.1c0-0.2,0.1-0.4,0.3-0.4h2.3c0.2,0,0.4,0.2,0.4,0.4v1.1
			C425,119.8,424.8,120,424.6,120L424.6,120"/>
		<path class="st6" d="M424.8,137.7h-1.7c-0.2,0-0.4-0.2-0.5-0.5v-1.5c0-0.2,0.2-0.4,0.4-0.4l0,0v-4.1h1.8v4c0.2,0,0.4,0.2,0.4,0.4
			v0v1.6C425.3,137.4,425.1,137.6,424.8,137.7L424.8,137.7L424.8,137.7"/>
		<path class="st9" d="M424.6,129.7h-2.3c-0.2,0-0.3,0.2-0.3,0.3v1.1c0,0.2,0.1,0.4,0.3,0.4c0,0,0,0,0,0h2.3c0.2,0,0.4-0.2,0.4-0.4
			V130C425,129.8,424.8,129.7,424.6,129.7L424.6,129.7"/>
		<path class="st6" d="M429,112h-1.7c-0.3,0-0.5,0.2-0.5,0.5v1.5c0,0.2,0.2,0.4,0.5,0.4l0,0l0,0v4.1h1.8v-4.1c0.3,0,0.5-0.2,0.5-0.4
			l0,0v-1.5C429.5,112.2,429.3,112,429,112"/>
		<path class="st9" d="M428.8,120h-2.3c-0.2,0-0.4-0.1-0.4-0.3c0,0,0,0,0,0v-1.1c0-0.2,0.2-0.4,0.4-0.4l0,0h2.3
			c0.2,0,0.4,0.2,0.4,0.4l0,0v1.1C429.2,119.8,429,120,428.8,120L428.8,120"/>
		<path class="st6" d="M429,137.7h-1.7c-0.3,0-0.5-0.2-0.5-0.5v-1.5c0-0.2,0.2-0.4,0.5-0.4l0,0l0,0v-4.1h1.8v4
			c0.3,0,0.5,0.2,0.5,0.4l0,0v1.5C429.5,137.4,429.3,137.6,429,137.7"/>
		<path class="st9" d="M428.8,129.7h-2.3c-0.2,0-0.4,0.1-0.4,0.3c0,0,0,0,0,0v1.1c0,0.2,0.2,0.4,0.4,0.4l0,0h2.3
			c0.2,0,0.4-0.2,0.4-0.4c0,0,0,0,0,0V130C429.2,129.8,429,129.7,428.8,129.7L428.8,129.7"/>
		<path class="st6" d="M433.5,112h-1.7c-0.2,0-0.4,0.2-0.5,0.5v1.5c0,0.2,0.2,0.4,0.4,0.4l0,0v4.1h1.8v-4.1c0.2,0,0.4-0.2,0.4-0.4
			c0,0,0,0,0,0v-1.5C433.9,112.2,433.7,112,433.5,112L433.5,112"/>
		<path class="st9" d="M433.3,120H431c-0.2,0-0.3-0.2-0.3-0.3v-1.1c0-0.2,0.1-0.4,0.3-0.4h2.3c0.2,0,0.4,0.2,0.4,0.4v1.1
			C433.7,119.8,433.5,120,433.3,120L433.3,120"/>
		<path class="st6" d="M433.5,137.7h-1.7c-0.2,0-0.4-0.2-0.5-0.5v-1.5c0-0.2,0.2-0.4,0.4-0.4l0,0v-4.1h1.8v4c0.2,0,0.4,0.2,0.4,0.4
			v0v1.6C433.9,137.4,433.7,137.6,433.5,137.7L433.5,137.7L433.5,137.7"/>
		<path class="st9" d="M433.3,129.7H431c-0.2,0-0.3,0.2-0.3,0.3v1.1c0,0.2,0.1,0.4,0.3,0.4c0,0,0,0,0,0h2.3c0.2,0,0.4-0.2,0.4-0.4
			V130C433.7,129.8,433.5,129.7,433.3,129.7L433.3,129.7"/>
		<path class="st6" d="M437.8,112h-1.7c-0.2,0-0.4,0.2-0.5,0.5v1.5c0,0.2,0.2,0.4,0.4,0.4c0,0,0,0,0,0l0,0v4.1h1.8v-4.1
			c0.2,0,0.4-0.2,0.4-0.4v-1.5C438.3,112.2,438.1,112,437.8,112L437.8,112"/>
		<path class="st9" d="M437.7,120h-2.3c-0.2,0-0.4-0.1-0.4-0.3v-1.1c0-0.2,0.2-0.4,0.4-0.4h2.3c0.2,0,0.4,0.2,0.4,0.4v1.1
			C438,119.8,437.9,120,437.7,120L437.7,120"/>
		<path class="st6" d="M437.8,137.7h-1.7c-0.2,0-0.4-0.2-0.5-0.5v-1.5c0-0.2,0.1-0.4,0.3-0.5c0,0,0,0,0,0h0.1v-4h1.8v4
			c0.2,0,0.4,0.2,0.4,0.4c0,0,0,0,0,0v1.6C438.3,137.4,438.1,137.6,437.8,137.7L437.8,137.7L437.8,137.7"/>
		<path class="st9" d="M437.7,129.7h-2.3c-0.2,0-0.4,0.1-0.4,0.3v1.1c0,0.2,0.2,0.4,0.4,0.4h2.3c0.2,0,0.4-0.2,0.4-0.4V130
			C438,129.8,437.9,129.7,437.7,129.7L437.7,129.7"/>
		<path class="st6" d="M442.1,112h-1.7c-0.2,0-0.4,0.2-0.5,0.5v1.5c0,0.2,0.2,0.4,0.4,0.4c0,0,0,0,0,0l0,0v4.1h1.8v-4.1
			c0.2,0,0.4-0.2,0.4-0.4v-1.5C442.5,112.2,442.3,112,442.1,112"/>
		<path class="st9" d="M441.9,120h-2.3c-0.2,0-0.3-0.1-0.4-0.3c0,0,0,0,0,0v-1.1c0-0.2,0.2-0.4,0.4-0.4c0,0,0,0,0,0h2.3
			c0.2,0,0.4,0.2,0.4,0.4l0,0v1.1C442.2,119.9,442,120,441.9,120"/>
		<path class="st6" d="M442.1,137.7h-1.7c-0.2,0-0.4-0.2-0.5-0.5v-1.5c0-0.2,0.1-0.5,0.3-0.5c0,0,0.1,0,0.1,0v-4h1.8v4
			c0.2,0,0.4,0.2,0.4,0.4v1.6C442.5,137.4,442.3,137.6,442.1,137.7"/>
		<path class="st9" d="M441.9,129.7h-2.3c-0.2,0-0.4,0.1-0.4,0.3c0,0,0,0,0,0v1.1c0,0.2,0.2,0.4,0.4,0.4c0,0,0,0,0,0h2.3
			c0.2,0,0.4-0.2,0.4-0.4c0,0,0,0,0,0V130C442.2,129.8,442,129.7,441.9,129.7"/>
		<path class="st6" d="M446.2,112h-1.7c-0.2,0-0.4,0.2-0.5,0.5v1.5c0,0.2,0.2,0.4,0.4,0.4c0,0,0,0,0,0l0,0v4.1h1.8v-4.1
			c0.2,0,0.4-0.2,0.4-0.4v-1.5C446.7,112.2,446.5,112,446.2,112L446.2,112"/>
		<path class="st9" d="M446,120h-2.3c-0.2,0-0.3-0.1-0.3-0.3c0,0,0,0,0,0v-1.1c0-0.2,0.1-0.4,0.3-0.4h2.3c0.2,0,0.4,0.2,0.4,0.4
			c0,0,0,0,0,0v1.1C446.4,119.8,446.2,120,446,120L446,120"/>
		<path class="st6" d="M446.2,137.7h-1.7c-0.2,0-0.4-0.2-0.5-0.5v-1.5c0-0.2,0.2-0.4,0.4-0.4c0,0,0,0,0,0l0,0v-4.1h1.8v4
			c0.2,0,0.4,0.2,0.4,0.4c0,0,0,0,0,0v1.6C446.7,137.4,446.5,137.6,446.2,137.7L446.2,137.7"/>
		<path class="st9" d="M446,129.7h-2.3c-0.2,0-0.3,0.1-0.3,0.3c0,0,0,0,0,0v1.1c0,0.2,0.1,0.4,0.3,0.4c0,0,0,0,0,0h2.3
			c0.2,0,0.4-0.2,0.4-0.4c0,0,0,0,0,0V130C446.4,129.8,446.2,129.7,446,129.7L446,129.7"/>
		<path class="st6" d="M450.5,112h-1.7c-0.3,0-0.5,0.2-0.5,0.5v1.5c0,0.2,0.2,0.4,0.5,0.4l0,0v4.1h1.8v-4.1c0.3,0,0.5-0.2,0.5-0.4
			c0,0,0,0,0,0v-1.5C451,112.2,450.8,112,450.5,112"/>
		<path class="st9" d="M450.3,120H448c-0.2,0-0.3-0.1-0.3-0.3c0,0,0,0,0,0v-1.1c0-0.2,0.1-0.4,0.3-0.4h2.3c0.2,0,0.4,0.2,0.4,0.4
			c0,0,0,0,0,0v1.1C450.7,119.8,450.5,120,450.3,120L450.3,120"/>
		<path class="st6" d="M450.5,137.7h-1.7c-0.3,0-0.5-0.2-0.5-0.5v-1.5c0-0.2,0.2-0.4,0.5-0.4l0,0v-4.1h1.8v4c0.2,0,0.5,0.2,0.5,0.4
			c0,0,0,0,0,0v1.5C451,137.4,450.7,137.6,450.5,137.7"/>
		<path class="st9" d="M450.3,129.7H448c-0.2,0-0.3,0.1-0.3,0.3c0,0,0,0,0,0v1.1c0,0.2,0.1,0.4,0.3,0.4c0,0,0,0,0,0h2.3
			c0.2,0,0.4-0.2,0.4-0.4c0,0,0,0,0,0V130C450.7,129.8,450.5,129.7,450.3,129.7L450.3,129.7"/>
		<path class="st6" d="M454.8,112h-1.7c-0.3,0-0.5,0.2-0.5,0.5v1.5c0,0.2,0.2,0.4,0.5,0.4l0,0v4.1h1.8v-4.1c0.3,0,0.5-0.2,0.5-0.4
			v-1.5C455.3,112.2,455,112,454.8,112"/>
		<path class="st9" d="M454.6,120h-2.3c-0.2,0-0.4-0.1-0.4-0.3c0,0,0,0,0,0v-1.1c0-0.2,0.2-0.4,0.4-0.4l0,0h2.3
			c0.2,0,0.4,0.2,0.4,0.4l0,0v1.1C454.9,119.8,454.8,120,454.6,120L454.6,120"/>
		<path class="st6" d="M454.8,137.7h-1.7c-0.3,0-0.5-0.2-0.5-0.5v-1.5c0-0.2,0.2-0.4,0.5-0.4l0,0v-4.1h1.8v4c0.3,0,0.5,0.2,0.5,0.4
			v1.5C455.3,137.4,455,137.6,454.8,137.7"/>
		<path class="st9" d="M454.6,129.7h-2.3c-0.2,0-0.4,0.1-0.4,0.3v1.1c0,0.2,0.2,0.4,0.4,0.4l0,0h2.3c0.2,0,0.4-0.2,0.4-0.4
			c0,0,0,0,0,0V130C454.9,129.8,454.8,129.7,454.6,129.7L454.6,129.7"/>
		<path class="st6" d="M459,112h-1.7c-0.3,0-0.5,0.2-0.5,0.5v1.5c0,0.3,0.2,0.5,0.5,0.4v4.1h1.7v-4.1c0.2,0,0.5-0.2,0.5-0.4v0v-1.5
			C459.4,112.2,459.3,112,459,112"/>
		<path class="st9" d="M459,120h-2.4c-0.2,0-0.3-0.2-0.3-0.3v-1.1c0-0.2,0.2-0.4,0.4-0.4l0,0h2.3c0.2,0,0.4,0.2,0.4,0.4c0,0,0,0,0,0
			v1.1C459.4,119.8,459.2,120,459,120L459,120"/>
		<path class="st6" d="M459,137.7h-1.7c-0.3,0-0.5-0.2-0.5-0.5v-1.5c0-0.3,0.2-0.5,0.5-0.4v-4.1h1.7v4c0.2,0,0.5,0.2,0.5,0.4
			c0,0,0,0,0,0v1.5C459.4,137.4,459.2,137.6,459,137.7"/>
		<path class="st9" d="M459,129.7h-2.4c-0.2,0-0.4,0.1-0.4,0.3c0,0,0,0,0,0v1.1c0,0.2,0.2,0.4,0.4,0.4c0,0,0,0,0,0h2.4
			c0.2,0,0.4-0.2,0.4-0.4c0,0,0,0,0,0V130C459.4,129.8,459.2,129.7,459,129.7L459,129.7"/>
		<path class="st6" d="M463.4,112h-1.7c-0.3,0-0.5,0.2-0.5,0.5v1.5c0,0.2,0.2,0.4,0.4,0.4l0,0v4.1h1.8v-4.1c0.2,0,0.4-0.2,0.4-0.4
			c0,0,0,0,0,0v-1.6C463.8,112.2,463.6,112,463.4,112"/>
		<path class="st9" d="M463.1,120h-2.3c-0.2,0-0.3-0.1-0.4-0.3c0,0,0,0,0,0v-1.1c0-0.2,0.2-0.4,0.4-0.4c0,0,0,0,0,0h2.3
			c0.2,0,0.4,0.2,0.4,0.3c0,0,0,0,0,0v1.2C463.5,119.8,463.3,120,463.1,120L463.1,120"/>
		<path class="st6" d="M463.4,137.7h-1.7c-0.3,0-0.5-0.2-0.5-0.5v-1.5c0-0.2,0.1-0.4,0.3-0.5c0,0,0.1,0,0.1,0v-4h1.8v4
			c0.2,0,0.4,0.2,0.4,0.4c0,0,0,0,0,0v1.6C463.9,137.4,463.7,137.6,463.4,137.7"/>
		<path class="st9" d="M463.1,129.7h-2.3c-0.2,0-0.4,0.1-0.4,0.3c0,0,0,0,0,0v1.1c0,0.2,0.2,0.4,0.4,0.4c0,0,0,0,0,0h2.3
			c0.2,0,0.4-0.2,0.4-0.3v0V130C463.5,129.8,463.3,129.7,463.1,129.7L463.1,129.7"/>
		<path class="st6" d="M467.7,112H466c-0.3,0-0.5,0.2-0.5,0.5v1.5c0,0.3,0.2,0.5,0.5,0.4v4.1h1.8v-4.1c0.2,0,0.5-0.2,0.5-0.4v0v-1.5
			C468.2,112.2,468,112,467.7,112"/>
		<path class="st9" d="M467.5,120h-2.3c-0.2,0-0.3-0.1-0.4-0.3c0,0,0,0,0,0v-1.1c0-0.2,0.2-0.4,0.4-0.4c0,0,0,0,0,0h2.3
			c0.2,0,0.4,0.2,0.4,0.4v1.1C467.9,119.8,467.7,120,467.5,120C467.5,120,467.5,120,467.5,120L467.5,120"/>
		<path class="st6" d="M467.7,137.7H466c-0.3,0-0.5-0.2-0.5-0.5v-1.5c0-0.3,0.2-0.5,0.5-0.4v-4.1h1.8v4c0.2,0,0.5,0.2,0.5,0.4
			c0,0,0,0,0,0v1.5C468.2,137.4,468,137.6,467.7,137.7"/>
		<path class="st9" d="M467.5,129.7h-2.3c-0.2,0-0.4,0.1-0.4,0.3c0,0,0,0,0,0v1.1c0,0.2,0.2,0.4,0.4,0.4c0,0,0,0,0,0h2.3
			c0.2,0,0.4-0.2,0.4-0.4V130C467.9,129.8,467.7,129.7,467.5,129.7C467.5,129.7,467.5,129.7,467.5,129.7L467.5,129.7"/>
		<path class="st6" d="M472,112h-1.7c-0.3,0-0.5,0.2-0.5,0.5v1.5c0,0.2,0.2,0.4,0.4,0.4l0,0v4.1h1.8v-4.1c0.2,0,0.4-0.1,0.4-0.4
			c0,0,0,0,0,0v-1.6C472.5,112.2,472.3,112,472,112"/>
		<path class="st9" d="M471.8,120h-2.2c-0.2,0-0.4-0.1-0.4-0.3c0,0,0,0,0,0v-1.1c0-0.2,0.2-0.4,0.4-0.4l0,0h2.3
			c0.2,0,0.4,0.2,0.4,0.3c0,0,0,0,0,0v1.2c0,0.2-0.2,0.3-0.4,0.3l0,0"/>
		<path class="st6" d="M472,137.7h-1.7c-0.3,0-0.5-0.2-0.5-0.5v-1.5c0-0.2,0.2-0.4,0.4-0.4l0,0v-4.1h1.8v4c0.2,0,0.4,0.1,0.4,0.4
			c0,0,0,0,0,0v1.6C472.4,137.4,472.2,137.6,472,137.7"/>
		<path class="st9" d="M471.8,129.7h-2.2c-0.2,0-0.4,0.1-0.4,0.3v1.1c0,0.2,0.2,0.4,0.4,0.4l0,0h2.3c0.2,0,0.4-0.2,0.4-0.3v0V130
			c0-0.2-0.2-0.3-0.4-0.3l0,0"/>
		<path class="st6" d="M476.7,112H475c-0.3,0-0.5,0.2-0.5,0.5v1.5c0,0.2,0.2,0.4,0.4,0.4c0,0,0,0,0,0l0,0v4.1h1.8v-4.1
			c0.2,0,0.4-0.2,0.4-0.4v-1.5C477.2,112.2,477,112,476.7,112"/>
		<path class="st9" d="M476.5,120h-2.3c-0.2,0-0.3-0.1-0.4-0.3c0,0,0,0,0,0v-1.1c0-0.2,0.2-0.4,0.4-0.4c0,0,0,0,0,0h2.3
			c0.2,0,0.4,0.2,0.4,0.3c0,0,0,0,0,0v1.2C476.8,119.8,476.7,120,476.5,120L476.5,120"/>
		<path class="st6" d="M476.7,137.7H475c-0.3,0-0.5-0.2-0.5-0.5v-1.5c0-0.2,0.1-0.5,0.3-0.5c0,0,0,0,0,0c0,0,0.1,0,0.1,0v-4h1.8v4
			c0.2,0,0.4,0.2,0.4,0.4v0v1.6C477.2,137.4,477,137.6,476.7,137.7"/>
		<path class="st9" d="M476.5,129.7h-2.3c-0.2,0-0.4,0.1-0.4,0.3c0,0,0,0,0,0v1.1c0,0.2,0.2,0.4,0.4,0.4c0,0,0,0,0,0h2.3
			c0.2,0,0.4-0.2,0.4-0.3v0V130C476.8,129.8,476.7,129.7,476.5,129.7L476.5,129.7"/>
		<path class="st6" d="M480.9,112h-1.7c-0.2,0-0.4,0.2-0.5,0.5v1.5c0,0.2,0.2,0.4,0.4,0.4c0,0,0,0,0,0l0,0v4.1h1.8v-4.1
			c0.2,0,0.4-0.2,0.4-0.4v-1.5C481.3,112.2,481.1,112,480.9,112"/>
		<path class="st9" d="M480.7,120h-2.3c-0.2,0-0.4-0.1-0.4-0.3v-1.1c0-0.2,0.2-0.4,0.4-0.4l0,0h2.3c0.2,0,0.4,0.2,0.4,0.4
			c0,0,0,0,0,0v1.1C481,119.8,480.9,120,480.7,120L480.7,120"/>
		<path class="st6" d="M480.9,137.7h-1.7c-0.2,0-0.4-0.2-0.5-0.5v-1.5c0-0.2,0.2-0.4,0.4-0.4c0,0,0,0,0,0l0,0v-4.1h1.8v4
			c0.2,0,0.4,0.2,0.4,0.4c0,0,0,0,0,0v1.6C481.3,137.4,481.1,137.6,480.9,137.7"/>
		<path class="st9" d="M480.7,129.7h-2.3c-0.2,0-0.4,0.1-0.4,0.3v1.1c0,0.2,0.2,0.4,0.4,0.4l0,0h2.3c0.2,0,0.4-0.2,0.4-0.4
			c0,0,0,0,0,0V130C481,129.8,480.9,129.7,480.7,129.7L480.7,129.7"/>
		<path class="st6" d="M485.1,112h-1.7c-0.3,0-0.5,0.2-0.5,0.5v1.5c0,0.2,0.2,0.4,0.4,0.4c0,0,0,0,0,0l0,0v4.1h1.8v-4.1
			c0.2,0,0.4-0.1,0.5-0.3c0,0,0,0,0,0c0,0,0-0.1,0-0.1v-1.5C485.6,112.2,485.4,112,485.1,112"/>
		<path class="st9" d="M484.9,120h-2.3c-0.2,0-0.3-0.2-0.4-0.3l0,0v-1.1c0-0.2,0.1-0.4,0.3-0.4h2.3c0.2,0,0.4,0.2,0.4,0.4
			c0,0,0,0,0,0v1.1C485.3,119.8,485.1,120,484.9,120L484.9,120"/>
		<path class="st6" d="M485.1,137.7h-1.7c-0.3,0-0.5-0.2-0.5-0.5v-1.5c0-0.2,0.2-0.4,0.4-0.4c0,0,0,0,0,0l0,0v-4.1h1.8v4
			c0.2,0,0.4,0.2,0.4,0.4c0,0,0,0,0,0v1.6C485.5,137.4,485.3,137.6,485.1,137.7"/>
		<path class="st9" d="M484.9,129.7h-2.3c-0.2,0-0.3,0.2-0.4,0.3l0,0v1.1c0,0.2,0.1,0.4,0.3,0.4h2.3c0.2,0,0.4-0.2,0.4-0.4
			c0,0,0,0,0,0V130C485.3,129.8,485.1,129.7,484.9,129.7L484.9,129.7"/>
		<path class="st6" d="M489.4,112h-1.7c-0.3,0-0.5,0.2-0.5,0.5v1.5c0,0.2,0.2,0.4,0.5,0.4l0,0v4.1h1.8v-4.1c0.3,0,0.5-0.2,0.5-0.4
			v-1.5C489.9,112.2,489.7,112,489.4,112"/>
		<path class="st9" d="M489.2,120h-2.3c-0.2,0-0.3-0.2-0.4-0.3l0,0v-1.1c0-0.2,0.1-0.4,0.3-0.4h2.3c0.2,0,0.4,0.2,0.4,0.4l0,0v1.1
			C489.6,119.8,489.4,120,489.2,120L489.2,120"/>
		<path class="st6" d="M489.4,137.7h-1.7c-0.3,0-0.5-0.2-0.5-0.5v-1.5c0-0.2,0.2-0.4,0.5-0.4l0,0v-4.1h1.8v4c0.3,0,0.5,0.2,0.5,0.4
			v1.5C489.9,137.4,489.7,137.6,489.4,137.7"/>
		<path class="st9" d="M489.2,129.7h-2.3c-0.2,0-0.3,0.2-0.4,0.3l0,0v1.1c0,0.2,0.1,0.4,0.3,0.4h2.3c0.2,0,0.4-0.2,0.4-0.4
			c0,0,0,0,0,0V130C489.6,129.8,489.4,129.7,489.2,129.7L489.2,129.7"/>
		<path class="st6" d="M493.7,112H492c-0.3,0-0.5,0.2-0.5,0.5v1.5c0,0.2,0.2,0.4,0.5,0.4l0,0v4.1h1.7v-4.1c0.2,0,0.5-0.2,0.5-0.4v0
			v-1.5C494.1,112.2,494,112,493.7,112"/>
		<path class="st9" d="M493.5,120h-2.3c-0.2,0-0.3-0.2-0.2-0.3v-1.1c0-0.2,0.2-0.4,0.4-0.4h2.3c0.2,0,0.4,0.2,0.4,0.4c0,0,0,0,0,0
			v1.1c0,0.2-0.2,0.3-0.3,0.3l0,0"/>
		<path class="st6" d="M493.7,137.7H492c-0.3,0-0.5-0.2-0.5-0.5v-1.5c0-0.2,0.2-0.4,0.5-0.4l0,0v-4.1h1.7v4c0.2,0,0.5,0.2,0.5,0.4
			c0,0,0,0,0,0v1.5C494.1,137.4,493.9,137.6,493.7,137.7"/>
		<path class="st9" d="M493.5,129.7h-2.3c-0.2,0-0.4,0.1-0.4,0.3c0,0,0,0,0,0v1.1c0,0.2,0.2,0.4,0.4,0.4c0,0,0,0,0,0h2.3
			c0.2,0,0.4-0.2,0.4-0.4V130C493.9,129.8,493.7,129.7,493.5,129.7C493.5,129.7,493.5,129.7,493.5,129.7L493.5,129.7"/>
		<path class="st6" d="M498,112h-1.6c-0.3,0-0.5,0.2-0.5,0.5v1.5c0,0.2,0.2,0.4,0.4,0.4l0,0v4.1h1.8v-4.1c0.2,0,0.4-0.2,0.4-0.4
			c0,0,0,0,0,0v-1.6C498.5,112.2,498.3,112,498,112C498,112,498,112,498,112"/>
		<path class="st9" d="M497.8,120h-2.3c-0.2,0-0.3-0.1-0.4-0.3c0,0,0,0,0,0v-1.1c0-0.2,0.2-0.4,0.4-0.4c0,0,0,0,0,0h2.3
			c0.2,0,0.4,0.2,0.4,0.3c0,0,0,0,0,0v1.2C498.1,119.8,498,120,497.8,120C497.8,120,497.8,120,497.8,120L497.8,120"/>
		<path class="st6" d="M498,137.7h-1.6c-0.3,0-0.5-0.2-0.5-0.5v-1.5c0-0.2,0.1-0.4,0.3-0.5c0,0,0.1,0,0.1,0v-4h1.8v4
			c0.2,0,0.4,0.2,0.5,0.4c0,0,0,0,0,0v1.6c0,0.3-0.2,0.5-0.5,0.4"/>
		<path class="st9" d="M497.8,129.7h-2.3c-0.2,0-0.4,0.1-0.4,0.3c0,0,0,0,0,0v1.1c0,0.2,0.2,0.4,0.4,0.4c0,0,0,0,0,0h2.3
			c0.2,0,0.4-0.2,0.4-0.3v0V130C498.1,129.8,498,129.7,497.8,129.7C497.8,129.7,497.8,129.7,497.8,129.7L497.8,129.7"/>
		<path class="st6" d="M502.4,112h-1.7c-0.3,0-0.5,0.2-0.5,0.5v1.5c0,0.3,0.2,0.5,0.5,0.4v4.1h1.8v-4.1c0.2,0,0.5-0.2,0.5-0.4v0
			v-1.5C502.8,112.2,502.6,112,502.4,112"/>
		<path class="st9" d="M502.1,120h-2.3c-0.2,0-0.3-0.1-0.4-0.3c0,0,0,0,0,0v-1.1c0-0.2,0.2-0.4,0.4-0.4c0,0,0,0,0,0h2.3
			c0.2,0,0.4,0.2,0.4,0.4v1.1C502.5,119.8,502.4,120,502.1,120L502.1,120"/>
		<path class="st6" d="M502.4,137.7h-1.7c-0.3,0-0.5-0.2-0.5-0.5v-1.5c0-0.3,0.2-0.5,0.5-0.4v-4.1h1.8v4c0.2,0,0.5,0.2,0.5,0.4
			c0,0,0,0,0,0v1.5C502.8,137.4,502.6,137.6,502.4,137.7"/>
		<path class="st9" d="M502.1,129.7h-2.3c-0.2,0-0.4,0.1-0.4,0.3c0,0,0,0,0,0v1.1c0,0.2,0.2,0.4,0.4,0.4c0,0,0,0,0,0h2.3
			c0.2,0,0.4-0.2,0.4-0.4V130C502.5,129.8,502.4,129.7,502.1,129.7L502.1,129.7"/>
		<path class="st6" d="M506.6,112H505c-0.3,0-0.5,0.2-0.5,0.5v1.5c0,0.2,0.2,0.4,0.5,0.4l0,0v4.1h1.8v-4.1c0.2,0,0.5-0.2,0.5-0.4v0
			v-1.5C507.2,112.2,507,112,506.6,112"/>
		<path class="st9" d="M506.5,120h-2.3c-0.2,0-0.4-0.1-0.4-0.3c0,0,0,0,0,0v-1.1c0-0.2,0.2-0.4,0.4-0.4h2.3c0.2,0,0.3,0.2,0.4,0.3
			v1.2C506.8,119.8,506.7,120,506.5,120L506.5,120"/>
		<path class="st6" d="M506.6,137.7H505c-0.3,0-0.5-0.2-0.5-0.5v-1.5c0-0.2,0.2-0.4,0.5-0.4l0,0v-4.1h1.8v4c0.2,0,0.5,0.2,0.5,0.4
			c0,0,0,0,0,0v1.5C507.2,137.4,507,137.6,506.6,137.7"/>
		<path class="st9" d="M506.5,129.7h-2.3c-0.2,0-0.4,0.1-0.4,0.3v1.1c0,0.2,0.2,0.4,0.4,0.4h2.3c0.2,0,0.3-0.2,0.4-0.4l0,0V130
			C506.8,129.8,506.7,129.7,506.5,129.7L506.5,129.7"/>
		<path class="st9" d="M413.4,119.2c0-0.5,0.7-0.9,1.6-0.9s1.6,0.4,1.6,0.9s-0.7,0.9-1.6,0.9S413.4,119.6,413.4,119.2"/>
		<path class="st9" d="M413.4,130.4c0-0.5,0.7-0.9,1.6-0.9s1.6,0.4,1.6,0.9s-0.7,0.9-1.6,0.9S413.4,131,413.4,130.4"/>
		<path class="st9" d="M512.9,119.2c0-0.5,0.7-0.9,1.6-0.9s1.6,0.4,1.6,0.9s-0.7,0.9-1.6,0.9S512.9,119.7,512.9,119.2"/>
		<path class="st9" d="M512.9,130.4c0-0.5,0.7-0.9,1.6-0.9s1.6,0.4,1.6,0.9s-0.7,0.9-1.6,0.9S512.9,131,512.9,130.4"/>
		<g class="st0">
			<circle class="st10" cx="185.2" cy="322.1" r="12.3"/>
			<circle class="st11" cx="185.2" cy="322.1" r="10.9"/>
			<path class="st12" d="M182.5,318.7h5.4c0.4,0,0.8,0.4,0.8,0.8v5.3c0,0.4-0.4,0.8-0.8,0.8h-5.4c-0.4,0-0.8-0.4-0.8-0.8v-5.3
				C181.7,319,182.1,318.7,182.5,318.7z"/>
		</g>
		<g class="st0">
			<circle class="st10" cx="319.2" cy="322.1" r="12.3"/>
			<circle class="st11" cx="319.2" cy="322.1" r="10.9"/>
			<path class="st12" d="M316.6,318.7h5.3c0.4,0,0.8,0.4,0.8,0.8v5.3c0,0.4-0.4,0.8-0.8,0.8h-5.3c-0.4,0-0.8-0.4-0.8-0.8v-5.3
				C315.8,319,316.1,318.7,316.6,318.7z"/>
			
				<ellipse transform="matrix(0.9985 -5.530037e-02 5.530037e-02 0.9985 -17.5224 4.0877)" class="st10" cx="65.1" cy="318.7" rx="12.3" ry="12.3"/>
			<circle class="st11" cx="65.1" cy="318.7" r="10.9"/>
			<path class="st12" d="M62.4,315.2h5.3c0.4,0,0.8,0.4,0.8,0.8v5.3c0,0.4-0.4,0.8-0.8,0.8h-5.3c-0.4,0-0.8-0.4-0.8-0.8V316
				C61.6,315.5,62,315.2,62.4,315.2z"/>
			<circle class="st10" cx="339.9" cy="256.7" r="12.3"/>
			<circle class="st11" cx="339.9" cy="256.7" r="10.9"/>
			<path class="st12" d="M337.2,253.2h5.3c0.4,0,0.8,0.4,0.8,0.8v5.4c0,0.4-0.4,0.8-0.8,0.8h-5.3c-0.4,0-0.8-0.4-0.8-0.8V254
				C336.4,253.6,336.7,253.2,337.2,253.2z"/>
			
				<ellipse transform="matrix(4.531437e-02 -0.999 0.999 4.531437e-02 -201.2492 315.035)" class="st10" cx="64.2" cy="262.8" rx="12.3" ry="12.3"/>
			<circle class="st11" cx="64.2" cy="262.8" r="10.9"/>
			<path class="st12" d="M61.5,259.3h5.3c0.4,0,0.8,0.4,0.8,0.8v5.3c0,0.4-0.4,0.8-0.8,0.8h-5.3c-0.4,0-0.8-0.4-0.8-0.8v-5.3
				C60.7,259.7,61.1,259.3,61.5,259.3z"/>
			<circle class="st10" cx="319.2" cy="191.2" r="12.3"/>
			<circle class="st11" cx="319.2" cy="191.2" r="10.9"/>
			<path class="st12" d="M316.6,187.8h5.3c0.4,0,0.8,0.4,0.8,0.8v5.4c0,0.4-0.4,0.8-0.8,0.8h-5.3c-0.4,0-0.8-0.4-0.8-0.8v-5.4
				C315.8,188.1,316.1,187.8,316.6,187.8z"/>
			<circle class="st10" cx="186.9" cy="191.2" r="12.3"/>
			<circle class="st11" cx="186.9" cy="191.2" r="10.9"/>
			<path class="st12" d="M184.2,187.8h5.4c0.4,0,0.8,0.4,0.8,0.8v5.4c0,0.4-0.4,0.8-0.8,0.8h-5.4c-0.4,0-0.8-0.4-0.8-0.8v-5.4
				C183.4,188.1,183.8,187.8,184.2,187.8z"/>
		</g>
		<rect x="719.2" y="0" class="st13" width="25.5" height="475.7"/>
		<rect x="687.3" y="0" class="st13" width="25.5" height="475.7"/>
		<path class="st14" d="M674.9,24.2h9.9c1.4,0,2.5,1.1,2.5,2.5v12.5c0,1.4-1.1,2.5-2.5,2.5h-9.9c-1.4,0-2.5-1.1-2.5-2.5V26.7
			C672.5,25.3,673.6,24.2,674.9,24.2z"/>
		<path class="st15" d="M692.7,0h18c1.2,0,2.1,0.9,2.1,2.1v13.2c0,1.2-0.9,2.1-2.1,2.1h-18c-1.2,0-2.1-0.9-2.1-2.1V2.1
			C690.5,1,691.5,0,692.7,0z"/>
		<path class="st14" d="M692.7,23.9h18c1.2,0,2.1,0.9,2.1,2.1v13.2c0,1.2-0.9,2.1-2.1,2.1h-18c-1.2,0-2.1-0.9-2.1-2.1V26
			C690.5,24.8,691.5,23.9,692.7,23.9z"/>
		<path class="st16" d="M692.7,48.5h18c1.2,0,2.1,0.9,2.1,2.1v13.2c0,1.2-0.9,2.1-2.1,2.1h-18c-1.2,0-2.1-0.9-2.1-2.1V50.6
			C690.5,49.4,691.5,48.5,692.7,48.5z"/>
		<path class="st15" d="M692.7,73h18c1.2,0,2.1,0.9,2.1,2.1v13.2c0,1.2-0.9,2.1-2.1,2.1h-18c-1.2,0-2.1-0.9-2.1-2.1V75.2
			C690.5,74,691.5,73,692.7,73z"/>
		<path class="st15" d="M692.7,96.5h18c1.2,0,2.1,0.9,2.1,2.1v13.2c0,1.2-0.9,2.1-2.1,2.1h-18c-1.2,0-2.1-0.9-2.1-2.1V98.7
			C690.5,97.5,691.5,96.5,692.7,96.5z"/>
		<path class="st15" d="M692.7,120.1h18c1.2,0,2.1,0.9,2.1,2.1v13.2c0,1.2-0.9,2.1-2.1,2.1h-18c-1.2,0-2.1-0.9-2.1-2.1v-13.2
			C690.5,121,691.5,120.1,692.7,120.1z"/>
		<path class="st15" d="M692.7,144.4h18c1.2,0,2.1,0.9,2.1,2.1v13.2c0,1.2-0.9,2.1-2.1,2.1h-18c-1.2,0-2.1-0.9-2.1-2.1v-13.2
			C690.5,145.3,691.5,144.4,692.7,144.4z"/>
		<path class="st15" d="M692.7,168.2h18c1.2,0,2.1,0.9,2.1,2.1v13.2c0,1.2-0.9,2.1-2.1,2.1h-18c-1.2,0-2.1-0.9-2.1-2.1v-13.2
			C690.5,169.2,691.5,168.2,692.7,168.2z"/>
		<path class="st15" d="M692.7,192.3h18c1.2,0,2.1,0.9,2.1,2.1v13.2c0,1.2-0.9,2.1-2.1,2.1h-18c-1.2,0-2.1-0.9-2.1-2.1v-13.2
			C690.5,193.3,691.5,192.3,692.7,192.3z"/>
		<path class="st15" d="M692.7,216.7h18c1.2,0,2.1,0.9,2.1,2.1v13.2c0,1.2-0.9,2.1-2.1,2.1h-18c-1.2,0-2.1-0.9-2.1-2.1v-13.2
			C690.5,217.7,691.5,216.7,692.7,216.7z"/>
		<path class="st15" d="M692.7,241.9h18c1.2,0,2.1,0.9,2.1,2.1v13.2c0,1.2-0.9,2.1-2.1,2.1h-18c-1.2,0-2.1-0.9-2.1-2.1V244
			C690.5,242.9,691.5,241.9,692.7,241.9z"/>
		<path class="st17" d="M692.7,265.6h18c1.2,0,2.1,0.9,2.1,2.1v13.2c0,1.2-0.9,2.1-2.1,2.1h-18c-1.2,0-2.1-0.9-2.1-2.1v-13.2
			C690.5,266.5,691.5,265.6,692.7,265.6z"/>
		<path class="st15" d="M721.3,0h18c1.2,0,2.1,0.9,2.1,2.1v13.2c0,1.2-0.9,2.1-2.1,2.1h-18c-1.2,0-2.1-0.9-2.1-2.1V2.1
			C719.2,1,720.2,0,721.3,0z"/>
		<path class="st14" d="M721.3,23.9h18c1.2,0,2.1,0.9,2.1,2.1v13.2c0,1.2-0.9,2.1-2.1,2.1h-18c-1.2,0-2.1-0.9-2.1-2.1V26
			C719.2,24.8,720.2,23.9,721.3,23.9z"/>
		<path class="st15" d="M721.3,48.5h18c1.2,0,2.1,0.9,2.1,2.1v13.2c0,1.2-0.9,2.1-2.1,2.1h-18c-1.2,0-2.1-0.9-2.1-2.1V50.6
			C719.2,49.4,720.2,48.5,721.3,48.5z"/>
		<path class="st15" d="M721.3,73h18c1.2,0,2.1,0.9,2.1,2.1v13.2c0,1.2-0.9,2.1-2.1,2.1h-18c-1.2,0-2.1-0.9-2.1-2.1V75.2
			C719.2,74,720.2,73,721.3,73z"/>
		<path class="st15" d="M721.3,96.5h18c1.2,0,2.1,0.9,2.1,2.1v13.2c0,1.2-0.9,2.1-2.1,2.1h-18c-1.2,0-2.1-0.9-2.1-2.1V98.7
			C719.2,97.5,720.2,96.5,721.3,96.5z"/>
		<path class="st15" d="M721.3,120.1h18c1.2,0,2.1,0.9,2.1,2.1v13.2c0,1.2-0.9,2.1-2.1,2.1h-18c-1.2,0-2.1-0.9-2.1-2.1v-13.2
			C719.2,121,720.2,120.1,721.3,120.1z"/>
		<path class="st15" d="M721.3,144.4h18c1.2,0,2.1,0.9,2.1,2.1v13.2c0,1.2-0.9,2.1-2.1,2.1h-18c-1.2,0-2.1-0.9-2.1-2.1v-13.2
			C719.2,145.3,720.2,144.4,721.3,144.4z"/>
		<path class="st15" d="M721.3,168.2h18c1.2,0,2.1,0.9,2.1,2.1v13.2c0,1.2-0.9,2.1-2.1,2.1h-18c-1.2,0-2.1-0.9-2.1-2.1v-13.2
			C719.2,169.2,720.2,168.2,721.3,168.2z"/>
		<path class="st15" d="M721.3,192.3h18c1.2,0,2.1,0.9,2.1,2.1v13.2c0,1.2-0.9,2.1-2.1,2.1h-18c-1.2,0-2.1-0.9-2.1-2.1v-13.2
			C719.2,193.3,720.2,192.3,721.3,192.3z"/>
		<path class="st15" d="M721.3,216.7h18c1.2,0,2.1,0.9,2.1,2.1v13.2c0,1.2-0.9,2.1-2.1,2.1h-18c-1.2,0-2.1-0.9-2.1-2.1v-13.2
			C719.2,217.7,720.2,216.7,721.3,216.7z"/>
		<path class="st15" d="M721.3,241.9h18c1.2,0,2.1,0.9,2.1,2.1v13.2c0,1.2-0.9,2.1-2.1,2.1h-18c-1.2,0-2.1-0.9-2.1-2.1V244
			C719.2,242.9,720.2,241.9,721.3,241.9z"/>
		<path class="st15" d="M721.3,265.6h18c1.2,0,2.1,0.9,2.1,2.1v13.2c0,1.2-0.9,2.1-2.1,2.1h-18c-1.2,0-2.1-0.9-2.1-2.1v-13.2
			C719.2,266.5,720.2,265.6,721.3,265.6z"/>
		<path class="st15" d="M721.3,289.2h18c1.2,0,2.1,0.9,2.1,2.1v13.2c0,1.2-0.9,2.1-2.1,2.1h-18c-1.2,0-2.1-0.9-2.1-2.1v-13.2
			C719.2,290.2,720.2,289.2,721.3,289.2z"/>
		<path class="st15" d="M721.3,312.8h18c1.2,0,2.1,0.9,2.1,2.1v13.2c0,1.2-0.9,2.1-2.1,2.1h-18c-1.2,0-2.1-0.9-2.1-2.1v-13.2
			C719.2,313.7,720.2,312.8,721.3,312.8z"/>
		<path class="st15" d="M721.3,337.1h18c1.2,0,2.1,0.9,2.1,2.1v13.2c0,1.2-0.9,2.1-2.1,2.1h-18c-1.2,0-2.1-0.9-2.1-2.1v-13.2
			C719.2,338,720.2,337.1,721.3,337.1z"/>
		<path class="st15" d="M721.3,360.9h18c1.2,0,2.1,0.9,2.1,2.1v13.2c0,1.2-0.9,2.1-2.1,2.1h-18c-1.2,0-2.1-0.9-2.1-2.1v-13.2
			C719.2,361.9,720.2,360.9,721.3,360.9z"/>
		<path class="st15" d="M721.3,385h18c1.2,0,2.1,0.9,2.1,2.1v13.2c0,1.2-0.9,2.1-2.1,2.1h-18c-1.2,0-2.1-0.9-2.1-2.1v-13.2
			C719.2,386,720.2,385,721.3,385z"/>
		<path class="st15" d="M721.3,409.4h18c1.2,0,2.1,0.9,2.1,2.1v13.2c0,1.2-0.9,2.1-2.1,2.1h-18c-1.2,0-2.1-0.9-2.1-2.1v-13.2
			C719.2,410.4,720.2,409.4,721.3,409.4z"/>
		<path class="st15" d="M721.3,434.6h18c1.2,0,2.1,0.9,2.1,2.1V450c0,1.2-0.9,2.1-2.1,2.1h-18c-1.2,0-2.1-0.9-2.1-2.1v-13.2
			C719.2,435.6,720.2,434.6,721.3,434.6z"/>
		<path class="st18" d="M722.6,297c-0.1-2.4,1.3-4.2,3.8-4.2c1.8-0.1,3.4,1.2,3.6,3c0,0.1,0,0.1,0,0.2c0,3.2-3.4,3.4-4.9,5.6h4.9
			v1.8h-7.7c0-2.4,1.5-3.4,3.3-4.7c0.9-0.6,2.2-1.3,2.2-2.6c0.1-0.8-0.5-1.5-1.4-1.6c-0.1,0-0.1,0-0.2,0c-1.2,0-1.7,1.3-1.7,2.4
			L722.6,297z"/>
		<path class="st18" d="M737.8,294.7h-4.3l-0.4,2.4l0,0c0.5-0.5,1.2-0.8,2-0.8c1.8,0,3.3,1.5,3.3,3.3c0,0.1,0,0.2,0,0.3
			c0,2.1-1.7,3.8-3.8,3.8h-0.1c-2,0-3.8-1.1-3.9-3.3h2.1c0,0.9,0.8,1.6,1.7,1.6c1,0,1.9-0.9,1.8-2c0,0,0,0,0,0v0
			c0.1-1-0.6-1.9-1.6-2h-0.2c-0.7-0.1-1.3,0.3-1.6,0.8h-1.9l1-5.8h5.8L737.8,294.7z"/>
		<path class="st18" d="M722.6,320.1c-0.1-2.4,1.3-4.2,3.8-4.2c1.8-0.1,3.4,1.2,3.6,3c0,0.1,0,0.1,0,0.2c0,3.2-3.4,3.4-4.9,5.6h4.9
			v1.8h-7.7c0-2.4,1.5-3.4,3.3-4.7c0.9-0.6,2.2-1.3,2.2-2.6c0.1-0.8-0.5-1.5-1.4-1.6h-0.2c-1.2,0-1.7,1.3-1.7,2.4L722.6,320.1z"/>
		<path class="st18" d="M738.1,317.9c-2.2,1.9-3.4,5.8-3.4,8.7h-2.3c0.3-3.1,1.5-6.1,3.5-8.5h-5v-2h7.1L738.1,317.9z"/>
		<path class="st18" d="M725.5,393c0.9,0.1,2.2-0.1,2.2-1.3c0-0.8-0.6-1.4-1.4-1.4h-0.1c-1.1,0-1.6,0.8-1.6,1.9h-2
			c-0.1-1.9,1.4-3.5,3.3-3.6c0.1,0,0.2,0,0.3,0c1.7,0,3.5,1,3.5,2.9c0.1,1-0.5,1.9-1.5,2.2l0,0c1.1,0.2,1.9,1.2,1.9,2.4
			c0,2.2-1.9,3.4-3.9,3.4c-2.4,0-3.9-1.4-3.9-3.8h2c0,1.1,0.6,2.1,1.8,2.1c0.9,0,1.7-0.6,1.7-1.5v-0.1c0-1.6-1.4-1.5-2.4-1.5
			L725.5,393z"/>
		<path class="st18" d="M733.8,393c0.9,0.1,2.2-0.1,2.2-1.3c0-0.8-0.6-1.4-1.4-1.4h-0.1c-1.1,0-1.6,0.8-1.6,1.9h-2
			c-0.1-1.9,1.4-3.5,3.3-3.6c0.1,0,0.2,0,0.3,0c1.7,0,3.5,1,3.5,2.9c0.1,1-0.5,1.9-1.5,2.2l0,0c1.1,0.2,1.9,1.2,1.8,2.4
			c0,2.2-1.8,3.4-3.9,3.4c-2.3,0-3.9-1.4-3.9-3.8h2c0,1.1,0.6,2.1,1.8,2.1c0.9,0,1.7-0.6,1.7-1.5v-0.1c0-1.6-1.4-1.5-2.4-1.5
			L733.8,393z"/>
		<path class="st18" d="M725.5,417.5c0.9,0.1,2.2-0.1,2.2-1.3c0-0.8-0.6-1.4-1.4-1.4h-0.1c-1.1,0-1.6,0.8-1.6,1.9h-2
			c-0.1-1.9,1.4-3.5,3.3-3.6c0.1,0,0.2,0,0.3,0c1.7,0,3.5,1,3.5,2.9c0.1,1-0.5,1.9-1.5,2.2l0,0c1.1,0.2,1.9,1.2,1.9,2.4
			c0,2.2-1.9,3.4-3.9,3.4c-2.4,0-3.9-1.4-3.9-3.8h2c0,1.1,0.6,2.1,1.8,2.1c0.9,0.1,1.7-0.6,1.7-1.5c0,0,0,0,0,0v-0.1
			c0-1.6-1.4-1.6-2.4-1.6L725.5,417.5z"/>
		<path class="st18" d="M737.8,415h-4.3l-0.4,2.4l0,0c0.5-0.5,1.3-0.8,2-0.8c1.8,0,3.3,1.5,3.3,3.3c0,0.1,0,0.2,0,0.3
			c0,2.1-1.7,3.8-3.8,3.8c0,0,0,0,0,0h-0.1c-2,0-3.8-1.1-3.9-3.3h2.1c0,0.9,0.8,1.6,1.7,1.6c1,0,1.9-0.9,1.8-2c0,0,0,0,0,0v0
			c0.1-1-0.6-1.9-1.6-2c0,0,0,0,0,0h-0.2c-0.7-0.1-1.3,0.3-1.6,0.8h-1.9l1-5.8h5.8L737.8,415z"/>
		<path class="st18" d="M722.6,344.8c-0.1-2.4,1.3-4.2,3.8-4.2c1.8-0.1,3.4,1.2,3.6,3.1c0,0.1,0,0.1,0,0.2c0,3.2-3.4,3.4-4.9,5.6
			h4.9v1.8h-7.7c0-2.4,1.5-3.4,3.3-4.7c0.9-0.6,2.2-1.3,2.2-2.6c0.1-0.8-0.5-1.6-1.4-1.6c0,0,0,0,0,0h-0.2c-1.2,0-1.7,1.3-1.7,2.4
			L722.6,344.8z"/>
		<path class="st18" d="M732.9,348.6c0.1,0.7,0.7,1.3,1.4,1.3c1.6,0,1.9-2,2-3.2l0,0c-0.5,0.8-1.4,1.2-2.4,1.2
			c-0.9,0-1.8-0.4-2.4-1.1c-1.3-1.7-1-4.1,0.7-5.4c0.6-0.5,1.4-0.8,2.2-0.8c3.2,0,4,2.8,4,5.4s-1.1,5.5-4.1,5.5
			c-1.7,0.1-3.2-1.2-3.4-2.9L732.9,348.6z M736.1,344.3c0.1-1-0.7-1.8-1.6-1.9c0,0,0,0,0,0h0c-1,0.1-1.7,0.9-1.6,1.9c0,0,0,0,0,0
			c-0.1,1,0.5,1.8,1.5,2c0.1,0,0.1,0,0.2,0c0.9,0,1.7-0.8,1.7-1.8C736.1,344.5,736.1,344.4,736.1,344.3L736.1,344.3z"/>
		<path class="st18" d="M725.5,369.3c0.9,0.1,2.2-0.1,2.2-1.3c0-0.8-0.6-1.4-1.4-1.4h-0.1c-1.1,0-1.6,0.8-1.6,1.9h-2
			c-0.1-1.9,1.4-3.5,3.3-3.6c0.1,0,0.2,0,0.3,0c1.7,0,3.5,1,3.5,2.9c0.1,1-0.5,1.9-1.5,2.1l0,0c1.1,0.2,1.9,1.2,1.9,2.4
			c0,2.2-1.9,3.4-3.9,3.4c-2.4,0-3.9-1.4-3.9-3.8h2c0,1.1,0.6,2.1,1.8,2.1c0.9,0,1.7-0.7,1.7-1.5v-0.1c0-1.6-1.4-1.6-2.4-1.6
			L725.5,369.3z"/>
		<path class="st18" d="M736.2,375.5h-2.1v-6.8h-2.6v-1.6c1.5,0,2.8-0.5,3.1-2.1h1.7V375.5z"/>
		<path class="st18" d="M725.5,442.7c0.9,0.1,2.2-0.1,2.2-1.3c0-0.8-0.6-1.4-1.4-1.4h-0.1c-1.1,0-1.6,0.8-1.6,1.9h-2
			c-0.1-1.9,1.4-3.5,3.3-3.6c0.1,0,0.2,0,0.3,0c1.7,0,3.5,1,3.5,2.9c0.1,1-0.5,1.9-1.5,2.1l0,0c1.1,0.2,1.9,1.2,1.9,2.4
			c0,2.2-1.9,3.4-3.9,3.4c-2.4,0-3.9-1.4-3.9-3.8h2c0,1.1,0.6,2.1,1.8,2.1c0.9,0.1,1.7-0.6,1.7-1.5c0,0,0,0,0,0v-0.1
			c0-1.6-1.4-1.6-2.4-1.6L725.5,442.7z"/>
		<path class="st18" d="M738.1,440.3c-2.2,1.9-3.4,5.9-3.4,8.6h-2.3c0.3-3.1,1.5-6.1,3.5-8.5h-5v-2h7.1L738.1,440.3z"/>
		<path class="st14" d="M721.3,458.3h18c1.2,0,2.1,0.9,2.1,2.1v13.2c0,1.2-0.9,2.1-2.1,2.1h-18c-1.2,0-2.1-0.9-2.1-2.1v-13.2
			C719.2,459.2,720.2,458.3,721.3,458.3z"/>
		<path class="st15" d="M692.7,289.2h18c1.2,0,2.1,0.9,2.1,2.1v13.2c0,1.2-0.9,2.1-2.1,2.1h-18c-1.2,0-2.1-0.9-2.1-2.1v-13.2
			C690.5,290.2,691.5,289.2,692.7,289.2z"/>
		<path class="st18" d="M725.5,466.5c0.9,0.1,2.2-0.1,2.2-1.3c0-0.8-0.6-1.4-1.4-1.4h-0.1c-1.1,0-1.6,0.8-1.6,1.9h-2
			c-0.1-1.9,1.4-3.5,3.3-3.6c0.1,0,0.2,0,0.3,0c1.7,0,3.5,1,3.5,2.9c0.1,1-0.5,1.9-1.5,2.1l0,0c1.1,0.2,1.9,1.2,1.9,2.4
			c0,2.2-1.9,3.4-3.9,3.4c-2.4,0-3.9-1.4-3.9-3.8h2c0,1.1,0.6,2.1,1.8,2.1c0.9,0,1.7-0.6,1.7-1.5v-0.1c0-1.6-1.4-1.5-2.4-1.5
			L725.5,466.5z"/>
		<path class="st18" d="M732.9,470c0.1,0.7,0.7,1.3,1.4,1.3c1.6,0,1.9-2,2-3.2l0,0c-0.5,0.8-1.4,1.2-2.4,1.2c-0.9,0-1.8-0.4-2.4-1.1
			c-1.3-1.7-1-4.1,0.7-5.4c0.6-0.5,1.4-0.8,2.2-0.8c3.2,0,4,2.8,4,5.4s-1.1,5.5-4.1,5.5c-1.7,0.1-3.2-1.2-3.4-2.9L732.9,470z
			 M736.1,465.7c0.1-1-0.6-1.9-1.6-1.9c0,0,0,0,0,0c-1,0-1.7,0.9-1.6,1.8c0,0,0,0.1,0,0.1c-0.1,1,0.5,1.9,1.5,2c0,0,0.1,0,0.1,0
			c0.9,0,1.7-0.8,1.7-1.8C736.1,465.9,736.1,465.8,736.1,465.7L736.1,465.7z"/>
		<path class="st15" d="M692.7,312.8h18c1.2,0,2.1,0.9,2.1,2.1v13.2c0,1.2-0.9,2.1-2.1,2.1h-18c-1.2,0-2.1-0.9-2.1-2.1v-13.2
			C690.5,313.7,691.5,312.8,692.7,312.8z"/>
		<path class="st15" d="M692.7,337.1h18c1.2,0,2.1,0.9,2.1,2.1v13.2c0,1.2-0.9,2.1-2.1,2.1h-18c-1.2,0-2.1-0.9-2.1-2.1v-13.2
			C690.5,338,691.5,337.1,692.7,337.1z"/>
		<path class="st19" d="M692.7,360.9h18c1.2,0,2.1,0.9,2.1,2.1v13.2c0,1.2-0.9,2.1-2.1,2.1h-18c-1.2,0-2.1-0.9-2.1-2.1v-13.2
			C690.5,361.9,691.5,360.9,692.7,360.9z"/>
		<path class="st15" d="M692.7,385h18c1.2,0,2.1,0.9,2.1,2.1v13.2c0,1.2-0.9,2.1-2.1,2.1h-18c-1.2,0-2.1-0.9-2.1-2.1v-13.2
			C690.5,386,691.5,385,692.7,385z"/>
		<path class="st17" d="M692.7,409.4h18c1.2,0,2.1,0.9,2.1,2.1v13.2c0,1.2-0.9,2.1-2.1,2.1h-18c-1.2,0-2.1-0.9-2.1-2.1v-13.2
			C690.5,410.4,691.5,409.4,692.7,409.4z"/>
		<path class="st15" d="M692.7,434.6h18c1.2,0,2.1,0.9,2.1,2.1V450c0,1.2-0.9,2.1-2.1,2.1h-18c-1.2,0-2.1-0.9-2.1-2.1v-13.2
			C690.5,435.6,691.5,434.6,692.7,434.6z"/>
		<path class="st14" d="M692.7,458.3h18c1.2,0,2.1,0.9,2.1,2.1v13.2c0,1.2-0.9,2.1-2.1,2.1h-18c-1.2,0-2.1-0.9-2.1-2.1v-13.2
			C690.5,459.2,691.5,458.3,692.7,458.3z"/>
		<path class="st18" d="M698.1,8.7c-0.1-2.4,1.3-4.2,3.8-4.2c1.8-0.1,3.4,1.2,3.6,3.1c0,0.1,0,0.1,0,0.2c0,3.2-3.4,3.4-4.9,5.6h5
			v1.8h-7.7c0-2.4,1.5-3.4,3.3-4.7c0.9-0.6,2.2-1.3,2.2-2.6c0.1-0.8-0.5-1.5-1.4-1.6c-0.1,0-0.1,0-0.2,0c-1.2,0-1.7,1.3-1.7,2.4
			L698.1,8.7z"/>
		<path class="st18" d="M693.9,297c-0.1-2.4,1.3-4.2,3.8-4.2c1.8-0.1,3.4,1.2,3.6,3.1c0,0.1,0,0.1,0,0.2c0,3.2-3.4,3.4-4.9,5.6h4.9
			v1.8h-7.7c0-2.4,1.5-3.4,3.3-4.7c0.9-0.6,2.2-1.3,2.2-2.6c0.1-0.8-0.5-1.5-1.4-1.6h-0.2c-1.3,0-1.7,1.3-1.7,2.4L693.9,297z"/>
		<path class="st18" d="M707.5,295.7c-0.1-0.7-0.7-1.3-1.4-1.3c-1.5,0-2,2-2,3.2l0,0c0.5-0.8,1.4-1.2,2.4-1.2c0.9,0,1.8,0.4,2.4,1.1
			c1.3,1.7,1,4.1-0.7,5.4c-0.6,0.4-1.2,0.7-1.9,0.8H706c-3.2,0-4-2.8-4-5.4s1.1-5.5,4.1-5.5c1.7-0.1,3.2,1.2,3.4,2.9L707.5,295.7z
			 M704.3,300c-0.1,1,0.7,1.9,1.6,1.9c0,0,0,0,0,0l0,0c1.1-0.3,1.7-1.3,1.5-2.4c-0.2-0.7-0.7-1.3-1.5-1.5c-1,0-1.7,0.8-1.7,1.8
			C704.2,299.9,704.2,300,704.3,300L704.3,300z"/>
		<path class="st18" d="M696.8,369.5c0.9,0.1,2.2-0.1,2.2-1.3c0-0.8-0.6-1.4-1.4-1.4h0h-0.1c-1.1,0-1.6,0.8-1.6,1.9h-2
			c-0.1-1.9,1.4-3.5,3.3-3.6c0.1,0,0.2,0,0.3,0c1.7,0,3.5,1,3.5,2.9c0.1,1-0.5,1.9-1.5,2.1l0,0c1.1,0.2,1.9,1.2,1.8,2.4
			c0,2.2-1.8,3.4-3.9,3.4c-2.3,0-3.9-1.4-3.9-3.8h2c0,1.1,0.6,2.1,1.8,2.1c0.9,0,1.7-0.6,1.7-1.5v-0.1c0-1.6-1.4-1.5-2.4-1.5
			L696.8,369.5z"/>
		<path class="st18" d="M702.2,369.3c-0.1-2.4,1.3-4.2,3.8-4.2c1.8-0.1,3.4,1.2,3.6,3c0,0.1,0,0.1,0,0.2c0,3.2-3.4,3.4-4.9,5.6h5
			v1.8H702c0-2.4,1.5-3.4,3.3-4.7c0.9-0.6,2.2-1.3,2.2-2.6c0.1-0.8-0.5-1.6-1.4-1.6c0,0,0,0,0,0H706c-1.2,0-1.7,1.3-1.7,2.4
			L702.2,369.3z"/>
		<path class="st18" d="M696.8,417.6c0.9,0.1,2.2-0.1,2.2-1.3c0-0.8-0.6-1.4-1.3-1.4c0,0,0,0,0,0h-0.1c-1.1,0-1.6,0.8-1.6,1.9h-2
			c-0.1-1.9,1.4-3.5,3.3-3.6c0.1,0,0.2,0,0.3,0c1.7,0,3.5,1,3.5,2.9c0.1,1-0.5,1.9-1.5,2.2l0,0c1.1,0.2,1.9,1.2,1.8,2.4
			c0,2.2-1.8,3.4-3.9,3.4c-2.3,0-3.9-1.4-3.9-3.8h2c0,1.1,0.6,2.1,1.8,2.1c0.9,0.1,1.6-0.6,1.7-1.5c0,0,0,0,0,0v-0.1
			c0-1.6-1.4-1.6-2.4-1.6L696.8,417.6z"/>
		<path class="st18" d="M707.5,416.1c-0.1-0.7-0.7-1.3-1.4-1.3c-1.5,0-2,2-2,3.2l0,0c0.5-0.8,1.4-1.2,2.4-1.2c0.9,0,1.8,0.4,2.4,1.1
			c0.5,0.7,0.8,1.5,0.8,2.3c0.1,2-1.4,3.7-3.4,3.8c0,0,0,0,0,0H706c-3.2,0-4-2.8-4-5.4s1.1-5.5,4.1-5.5c1.7-0.1,3.2,1.2,3.4,2.9
			L707.5,416.1z M704.3,420.4c-0.1,1,0.7,1.9,1.6,1.9c0,0,0,0,0,0l0,0c1.1-0.3,1.7-1.3,1.5-2.4c-0.2-0.7-0.7-1.3-1.5-1.5
			c-1,0-1.7,0.8-1.7,1.8C704.2,420.3,704.2,420.3,704.3,420.4L704.3,420.4z"/>
		<path class="st18" d="M696.8,442.9c0.9,0.1,2.2-0.1,2.2-1.3c0-0.8-0.6-1.4-1.4-1.4c0,0,0,0,0,0h-0.1c-1.1,0-1.6,0.8-1.6,1.9h-2
			c-0.1-1.9,1.4-3.5,3.3-3.6c0.1,0,0.2,0,0.3,0c1.7,0,3.5,1,3.5,2.9c0.1,1-0.5,1.9-1.5,2.2l0,0c1.1,0.2,1.9,1.2,1.8,2.4
			c0,2.2-1.8,3.4-3.9,3.4c-2.3,0-3.9-1.4-3.9-3.8h2c0,1.1,0.6,2.1,1.8,2.1c0.9,0.1,1.6-0.6,1.7-1.5c0,0,0,0,0,0V446
			c0-1.6-1.4-1.6-2.4-1.6L696.8,442.9z"/>
		<path class="st18" d="M705.9,438.5c2.6,0,3.5,1.8,3.5,2.8c0,1-0.6,1.9-1.5,2.2l0,0c1.2,0.2,2.1,1.3,2,2.5c0,2.2-2,3.3-3.9,3.3
			s-4-1-4-3.2c-0.1-1.2,0.8-2.3,2-2.6l0,0c-1-0.3-1.6-1.2-1.5-2.2C702.3,439.4,704.2,438.5,705.9,438.5z M705.9,447.7
			c0.9,0,1.8-0.7,1.8-1.6c0,0,0,0,0,0c0,0,0-0.1,0-0.1c0-0.9-0.7-1.7-1.7-1.7h-0.1c-0.9-0.1-1.8,0.5-1.9,1.4c0,0.1,0,0.2,0,0.3
			c0,1,0.8,1.8,1.7,1.8c0,0,0,0,0,0L705.9,447.7L705.9,447.7z M705.9,442.9c0.8,0.1,1.5-0.4,1.6-1.2c0.1-0.8-0.4-1.5-1.2-1.6
			c-0.1,0-0.2,0-0.2,0c-0.1,0-0.2,0-0.2,0c-0.8-0.1-1.5,0.5-1.6,1.3c0,0.1,0,0.1,0,0.2C704.3,442.3,705,442.9,705.9,442.9
			C705.8,442.9,705.8,442.9,705.9,442.9L705.9,442.9z"/>
		<path class="st18" d="M698,469.8h-4.4v-1.9l4.5-6.1h1.9v6.3h1.4v1.8h-1.4v2.4h-2L698,469.8z M698,464.4L698,464.4l-2.7,3.6h2.7
			L698,464.4z"/>
		<path class="st18" d="M705.8,461.6c2.1,0,3.9,1.3,3.9,5.4s-1.8,5.5-3.9,5.5s-3.8-1.3-3.8-5.5S703.8,461.6,705.8,461.6z
			 M705.8,470.7c1.7,0,1.7-2.6,1.7-3.7s0-3.6-1.7-3.6s-1.7,2.5-1.7,3.6S704.1,470.7,705.8,470.7z"/>
		<path class="st18" d="M693.9,320.1c-0.1-2.4,1.3-4.2,3.8-4.2c1.8-0.1,3.4,1.2,3.6,3c0,0.1,0,0.1,0,0.2c0,3.2-3.4,3.4-4.9,5.6h4.9
			v1.8h-7.7c0-2.4,1.5-3.4,3.3-4.7c0.9-0.6,2.2-1.3,2.2-2.6c0.1-0.8-0.5-1.5-1.4-1.6h-0.2c-1.3,0-1.7,1.3-1.7,2.4L693.9,320.1z"/>
		<path class="st18" d="M705.9,315.9c2.6,0,3.5,1.8,3.5,2.8c0,1-0.6,1.9-1.5,2.2l0,0c1.2,0.2,2.1,1.3,2,2.6c0,2.2-2,3.3-3.9,3.3
			s-4-1-4-3.2c-0.1-1.2,0.8-2.3,2-2.6l0,0c-1-0.3-1.6-1.2-1.5-2.2C702.3,316.9,704.2,315.9,705.9,315.9z M705.9,325.2
			c0.9,0,1.8-0.7,1.8-1.6c0,0,0,0,0,0c0,0,0-0.1,0-0.1c0-0.9-0.8-1.7-1.7-1.7c0,0,0,0,0,0h-0.1c-0.9-0.1-1.7,0.6-1.8,1.5
			c0,0.1,0,0.1,0,0.2c0,1,0.8,1.8,1.7,1.8c0,0,0,0,0,0L705.9,325.2L705.9,325.2z M705.9,320.3c0.8,0.1,1.5-0.4,1.6-1.2
			c0.1-0.8-0.4-1.5-1.2-1.6c-0.1,0-0.2,0-0.2,0c-0.1,0-0.2,0-0.2,0c-0.8-0.1-1.5,0.5-1.6,1.3c0,0.1,0,0.1,0,0.2
			C704.3,319.7,705,320.4,705.9,320.3C705.8,320.3,705.9,320.3,705.9,320.3L705.9,320.3z"/>
		<path class="st18" d="M696.8,345.3c0.9,0.1,2.2-0.1,2.2-1.3c0-0.8-0.6-1.4-1.4-1.4c0,0,0,0,0,0h-0.1c-1.1,0-1.6,0.8-1.6,1.9h-2
			c-0.1-1.9,1.4-3.5,3.3-3.6c0.1,0,0.2,0,0.3,0c1.7,0,3.5,1,3.5,2.9c0.1,1-0.5,1.9-1.5,2.1l0,0c1.1,0.2,1.9,1.2,1.8,2.4
			c0,2.2-1.8,3.4-3.9,3.4c-2.3,0-3.9-1.4-3.9-3.8h2c0,1.1,0.6,2.1,1.8,2.1c0.9,0,1.7-0.6,1.7-1.5v-0.1c0-1.6-1.4-1.5-2.4-1.5
			L696.8,345.3z"/>
		<path class="st18" d="M705.8,340.8c2.1,0,3.9,1.3,3.9,5.4s-1.8,5.5-3.9,5.5s-3.8-1.3-3.8-5.5S703.8,340.8,705.8,340.8z
			 M705.8,349.9c1.7,0,1.7-2.6,1.7-3.7s0-3.6-1.7-3.6s-1.7,2.6-1.7,3.6S704.1,349.9,705.8,349.9L705.8,349.9z"/>
		<path class="st18" d="M696.8,393c0.9,0.1,2.2-0.1,2.2-1.3c0-0.8-0.6-1.4-1.4-1.4h0h-0.1c-1.1,0-1.6,0.8-1.6,1.9h-2
			c-0.1-1.9,1.4-3.5,3.3-3.6c0.1,0,0.2,0,0.3,0c1.7,0,3.5,1,3.5,2.9c0.1,1-0.5,1.9-1.5,2.2l0,0c1.1,0.2,1.9,1.2,1.8,2.4
			c0,2.2-1.8,3.4-3.9,3.4c-2.3,0-3.9-1.4-3.9-3.8h2c0,1.1,0.6,2.1,1.8,2.1c0.9,0,1.7-0.6,1.7-1.5v-0.1c0-1.6-1.4-1.5-2.4-1.5
			L696.8,393z"/>
		<path class="st18" d="M706.4,396.8h-4.5v-2l4.5-6.1h1.9v6.3h1.4v1.8h-1.4v2.4h-2V396.8z M706.4,391.4L706.4,391.4l-2.7,3.6h2.8
			L706.4,391.4z"/>
		<path class="st18" d="M732.1,14.5h-2.1V7.7h-2.6V6.1c1.5,0.1,2.8-0.5,3.1-2.1h1.7V14.5z"/>
		<path class="st18" d="M729.6,32.1c0.9,0.1,2.2-0.1,2.2-1.3c0-0.8-0.6-1.4-1.4-1.4c0,0,0,0,0,0h-0.1c-1.1,0-1.6,0.8-1.6,1.9h-2
			c-0.1-1.9,1.4-3.5,3.3-3.6c0.1,0,0.2,0,0.3,0c1.7,0,3.5,1,3.5,2.9c0.1,1-0.5,1.9-1.5,2.2l0,0c1.1,0.2,1.9,1.2,1.9,2.4
			c0,2.2-1.9,3.4-3.9,3.4c-2,0.2-3.7-1.2-3.9-3.2c0-0.2,0-0.4,0-0.6h2c0,1.1,0.6,2.1,1.8,2.1c0.9,0,1.6-0.6,1.7-1.5c0,0,0-0.1,0-0.1
			c0-1.6-1.4-1.5-2.4-1.5L729.6,32.1z"/>
		<path class="st18" d="M733.7,54.2h-4.3l-0.4,2.4l0,0c0.5-0.5,1.2-0.8,2-0.8c1.8,0,3.3,1.5,3.3,3.3c0,0.1,0,0.2,0,0.3
			c0,2.1-1.7,3.8-3.8,3.8h-0.1c-2,0-3.8-1.1-3.9-3.3h2.1c0.1,0.9,0.8,1.6,1.7,1.6c1,0,1.8-0.9,1.8-1.9c0,0,0,0,0-0.1l0,0
			c0.1-1-0.6-1.9-1.6-2c0,0,0,0,0,0h-0.2c-0.7,0-1.3,0.3-1.6,0.8h-1.9l1-5.8h5.8L733.7,54.2z"/>
		<path class="st18" d="M728.7,107.6c0.1,0.7,0.7,1.3,1.4,1.3c1.6,0,1.9-2,2-3.2l0,0c-0.5,0.8-1.4,1.2-2.4,1.2
			c-0.9,0-1.8-0.4-2.4-1.1c-0.5-0.7-0.8-1.5-0.8-2.3c-0.1-2,1.4-3.7,3.4-3.8c0.1,0,0.2,0,0.3,0c3.2,0,4,2.8,4,5.4s-1.1,5.5-4.1,5.5
			c-1.7,0.1-3.2-1.2-3.4-2.9L728.7,107.6z M731.9,103.3c0.1-1-0.6-1.9-1.6-1.9c0,0,0,0,0,0l0,0c-1,0.1-1.7,0.9-1.6,1.9c0,0,0,0,0,0
			c0,1,0.5,2,1.6,2c1,0,1.7-0.8,1.7-1.8C731.9,103.4,731.9,103.4,731.9,103.3L731.9,103.3z"/>
		<path class="st18" d="M727.9,134.2h-2.1v-6.8h-2.6v-1.6c1.5,0,2.8-0.5,3.1-2.1h1.7L727.9,134.2z"/>
		<path class="st18" d="M736.2,134.2h-2.1v-6.8h-2.6v-1.6c1.5,0,2.8-0.5,3.1-2.1h1.7V134.2z"/>
		<path class="st18" d="M727.9,206.8h-2.1V200h-2.6v-1.6c1.5,0,2.8-0.5,3.1-2.1h1.7L727.9,206.8z"/>
		<path class="st18" d="M738.1,198.2c-2.2,1.9-3.4,5.8-3.4,8.7h-2.3c0.3-3.1,1.5-6.1,3.5-8.5h-5v-2h7.1L738.1,198.2z"/>
		<path class="st18" d="M727.9,231.2h-2.1v-6.8h-2.6v-1.6c1.5,0,2.8-0.5,3.1-2.1h1.7L727.9,231.2z"/>
		<path class="st18" d="M732.9,228.5c0.1,0.7,0.7,1.3,1.4,1.3c1.6,0,1.9-2,2-3.2l0,0c-0.5,0.8-1.4,1.2-2.4,1.2
			c-0.9,0-1.8-0.4-2.4-1.1c-0.5-0.7-0.8-1.5-0.8-2.3c-0.1-2,1.4-3.7,3.4-3.8c0.1,0,0.2,0,0.2,0c3.2,0,4,2.8,4,5.4s-1.1,5.5-4.1,5.5
			c-1.7,0.1-3.2-1.2-3.4-2.9L732.9,228.5z M736.1,224.2c0.1-1-0.6-1.9-1.6-1.9c0,0,0,0,0,0h0c-1.1,0.3-1.7,1.4-1.5,2.4
			c0.2,0.7,0.7,1.3,1.5,1.5c0.9,0,1.7-0.8,1.7-1.8C736.1,224.3,736.1,224.3,736.1,224.2L736.1,224.2z"/>
		<path class="st18" d="M722.6,249.7c-0.1-2.4,1.3-4.2,3.8-4.2c1.8-0.1,3.4,1.2,3.6,3.1c0,0.1,0,0.1,0,0.2c0,3.2-3.4,3.4-4.9,5.6
			h4.9v1.8h-7.7c0-2.4,1.5-3.4,3.3-4.7c0.9-0.6,2.2-1.3,2.2-2.6c0.1-0.8-0.5-1.5-1.4-1.6c-0.1,0-0.1,0-0.2,0c-1.2,0-1.7,1.3-1.7,2.4
			L722.6,249.7z"/>
		<path class="st18" d="M736.2,256.2h-2.1v-6.8h-2.6v-1.6c1.5,0.1,2.8-0.5,3.1-2.1h1.7V256.2z"/>
		<path class="st18" d="M722.6,273.7c-0.1-2.4,1.3-4.2,3.8-4.2c1.8-0.1,3.4,1.2,3.6,3.1c0,0.1,0,0.1,0,0.2c0,3.2-3.4,3.4-4.9,5.6
			h4.9v1.8h-7.7c0-2.4,1.5-3.4,3.3-4.7c0.9-0.6,2.2-1.3,2.2-2.6c0.1-0.8-0.5-1.5-1.3-1.6c0,0,0,0,0,0h-0.2c-1.2,0-1.7,1.3-1.7,2.4
			L722.6,273.7z"/>
		<path class="st18" d="M733.8,273.9c0.9,0.1,2.2-0.1,2.2-1.3c0-0.8-0.6-1.4-1.3-1.4c0,0,0,0,0,0h-0.1c-1.1,0-1.6,0.8-1.6,1.9h-2
			c-0.1-1.9,1.4-3.5,3.3-3.6c0.1,0,0.2,0,0.3,0c1.7,0,3.5,1,3.5,2.9c0.1,1-0.5,1.9-1.5,2.1l0,0c1.1,0.2,1.9,1.2,1.8,2.4
			c0,2.2-1.8,3.4-3.9,3.4c-2.3,0-3.9-1.4-3.9-3.8h2c0,1.1,0.6,2.1,1.8,2.1c0.9,0,1.7-0.6,1.7-1.5V277c0-1.6-1.4-1.5-2.4-1.5
			L733.8,273.9z"/>
		<path class="st18" d="M702.2,36.5h-4.4v-1.9l4.5-6.1h1.9v6.3h1.4v1.8h-1.4V39h-2L702.2,36.5z M702.2,31.2L702.2,31.2l-2.8,3.6h2.8
			L702.2,31.2z"/>
		<path class="st18" d="M699.2,134.8h-2.1V128h-2.6v-1.6c1.5,0,2.8-0.5,3.1-2.1h1.7V134.8z"/>
		<path class="st18" d="M702.2,128.4c-0.1-2.4,1.3-4.2,3.8-4.2c1.8-0.1,3.4,1.2,3.6,3c0,0.1,0,0.1,0,0.2c0,3.2-3.4,3.4-4.9,5.6h5
			v1.8H702c0-2.4,1.5-3.4,3.3-4.7c0.9-0.6,2.2-1.3,2.2-2.6c0.1-0.8-0.5-1.6-1.4-1.6c0,0,0,0,0,0H706c-1.2,0-1.7,1.3-1.7,2.4
			L702.2,128.4z"/>
		<path class="st18" d="M699.2,183.3h-2.1v-6.8h-2.6v-1.6c1.5,0,2.8-0.5,3.1-2.1h1.7V183.3z"/>
		<path class="st18" d="M707.5,175.6c-0.1-0.7-0.7-1.3-1.4-1.3c-1.5,0-2,2-2,3.2l0,0c0.5-0.8,1.4-1.2,2.4-1.2c0.9,0,1.8,0.4,2.4,1.1
			c1.3,1.7,1,4.1-0.7,5.4c-0.6,0.4-1.2,0.7-1.9,0.8H706c-3.2,0-4-2.8-4-5.4s1.1-5.5,4.1-5.5c1.7-0.1,3.2,1.2,3.4,2.9L707.5,175.6z
			 M704.3,179.9c-0.1,1,0.7,1.9,1.6,1.9c0,0,0,0,0,0l0,0c1-0.1,1.7-0.9,1.6-1.9c0,0,0,0,0,0c0.1-0.9-0.5-1.8-1.4-1.9
			c-0.9-0.1-1.8,0.5-1.9,1.4C704.2,179.5,704.2,179.7,704.3,179.9L704.3,179.9z"/>
		<path class="st18" d="M699.2,207.5h-2.1v-6.8h-2.6v-1.6c1.5,0,2.8-0.5,3.1-2.1h1.7V207.5z"/>
		<path class="st18" d="M705.9,196.8c2.6,0,3.5,1.8,3.5,2.8c0.1,1-0.6,1.9-1.5,2.2l0,0c1.2,0.2,2.1,1.3,2,2.6c0,2.2-2,3.3-3.9,3.3
			s-4-1-4-3.2c-0.1-1.2,0.8-2.3,2-2.6l0,0c-1-0.3-1.6-1.2-1.5-2.2C702.3,197.8,704.2,196.8,705.9,196.8z M705.9,206.1
			c0.9,0,1.8-0.7,1.8-1.6c0,0,0,0,0,0c0,0,0-0.1,0-0.1c0-0.9-0.8-1.7-1.7-1.7c0,0,0,0,0,0h-0.1c-0.9-0.1-1.7,0.6-1.8,1.5
			c0,0.1,0,0.1,0,0.2c0,1,0.8,1.8,1.7,1.8L705.9,206.1L705.9,206.1z M705.9,201.2c0.8,0.1,1.5-0.5,1.5-1.3c0.1-0.8-0.5-1.5-1.3-1.5
			l0,0c-0.1,0-0.2,0-0.2,0c-0.8-0.1-1.5,0.5-1.6,1.3c0,0,0,0,0,0c0,0.1,0,0.1,0,0.2C704.3,200.6,705,201.3,705.9,201.2
			C705.8,201.2,705.9,201.2,705.9,201.2L705.9,201.2z"/>
		<path class="st18" d="M693.9,250.4c-0.1-2.4,1.3-4.2,3.8-4.2c1.8-0.1,3.4,1.2,3.6,3.1c0,0.1,0,0.1,0,0.2c0,3.2-3.4,3.4-4.9,5.6
			h4.9v1.8h-7.7c0-2.4,1.5-3.4,3.3-4.7c0.9-0.6,2.2-1.3,2.2-2.6c0.1-0.8-0.5-1.6-1.4-1.6c0,0,0,0,0,0h-0.2c-1.3,0-1.7,1.3-1.7,2.4
			L693.9,250.4z"/>
		<path class="st18" d="M702.2,250.4c-0.1-2.4,1.3-4.2,3.8-4.2c1.8-0.1,3.4,1.2,3.6,3.1c0,0.1,0,0.1,0,0.2c0,3.2-3.4,3.4-4.9,5.6h5
			v1.8H702c0-2.4,1.5-3.4,3.3-4.7c0.9-0.6,2.2-1.3,2.2-2.6c0.1-0.8-0.5-1.6-1.4-1.6c0,0,0,0,0,0H706c-1.2,0-1.7,1.3-1.7,2.4
			L702.2,250.4z"/>
		<path class="st18" d="M703.3,55.8c-0.1-0.7-0.7-1.3-1.4-1.3c-1.5,0-2,2-2,3.2l0,0c0.5-0.8,1.4-1.2,2.4-1.2c0.9,0,1.8,0.4,2.4,1.1
			c0.5,0.7,0.8,1.5,0.8,2.3c0.1,2-1.4,3.7-3.4,3.8c-0.1,0-0.1,0-0.2,0c-3.2,0-4-2.8-4-5.4s1.1-5.4,4.1-5.4c1.7-0.1,3.2,1.2,3.4,2.9
			L703.3,55.8z M700.1,60.1c-0.1,1,0.6,1.9,1.6,2c0,0,0,0,0,0h0c1-0.1,1.7-0.9,1.6-1.9c0,0,0,0,0,0c0-1-0.5-2-1.6-2
			c-1,0-1.7,0.8-1.7,1.8C700.1,60,700.1,60,700.1,60.1z"/>
		<polygon class="st14" points="674.6,24.2 654.4,24.2 644.2,32.9 654.4,41.7 674.6,41.7 684.8,32.9 		"/>
		<path class="st18" d="M659.9,36.1c-0.6,0.8-1.6,1.3-2.6,1.3c-2.9,0-4.7-2.2-4.7-4.9s1.7-5,4.7-5c2-0.1,3.8,1.4,4,3.4h-2
			c-0.2-1-1-1.6-2-1.6c-1.9,0-2.6,1.6-2.6,3.2s0.7,3.2,2.6,3.2c1.1,0.1,2.1-0.6,2.2-1.7c0,0,0-0.1,0-0.1c0-0.1,0-0.2,0-0.2h-2.1
			v-1.5h4v5.1h-1.3L659.9,36.1z"/>
		<path class="st18" d="M663.2,27.7h2.1l4,6.4l0,0v-6.4h2v9.5h-2.1l-4-6.4l0,0v6.4h-2L663.2,27.7z"/>
		<path class="st18" d="M673,27.7h4.1c2.5,0,4.3,1.5,4.3,4.7c0,2.8-1.4,4.8-4.3,4.8H673V27.7z M675.1,35.5h1.9
			c1.2,0,2.4-0.7,2.4-2.8c0-1.9-0.7-3.1-2.7-3.1h-1.5L675.1,35.5z"/>
		<path class="st14" d="M674.9,458.3h9.9c1.4,0,2.5,1.1,2.5,2.5v12.5c0,1.4-1.1,2.5-2.5,2.5h-9.9c-1.4,0-2.5-1.1-2.5-2.5v-12.5
			C672.5,459.4,673.6,458.3,674.9,458.3z"/>
		<polygon class="st14" points="674.6,458.3 654.4,458.3 644.2,467 654.4,475.7 674.6,475.7 684.8,467 		"/>
		<path class="st18" d="M659.9,470.2c-0.6,0.8-1.6,1.3-2.6,1.3c-2.9,0-4.7-2.2-4.7-4.9s1.7-5,4.7-5c2-0.1,3.8,1.4,4,3.4h-2
			c-0.2-1-1-1.6-2-1.6c-1.9,0-2.6,1.6-2.6,3.2s0.7,3.2,2.6,3.2c1.1,0.1,2.1-0.6,2.2-1.7c0,0,0-0.1,0-0.1c0-0.1,0-0.2,0-0.2h-2.1
			v-1.6h4v5.1h-1.3L659.9,470.2z"/>
		<path class="st18" d="M663.2,461.8h2.1l4,6.4l0,0v-6.4h2v9.5h-2.1l-4-6.4l0,0v6.4h-2L663.2,461.8z"/>
		<path class="st18" d="M673,461.8h4.1c2.5,0,4.3,1.6,4.3,4.7c0,2.8-1.4,4.8-4.3,4.8H673V461.8z M675.1,469.5h1.9
			c1.2,0,2.4-0.8,2.4-2.9c0-1.9-0.7-3.1-2.7-3.1h-1.5L675.1,469.5z"/>
		<path class="st14" d="M747.3,24.2h9.9c1.4,0,2.5,1.1,2.5,2.5v12.5c0,1.4-1.1,2.5-2.5,2.5h-9.9c-1.4,0-2.5-1.1-2.5-2.5V26.7
			C744.8,25.3,745.9,24.2,747.3,24.2z"/>
		<polygon class="st14" points="757.6,24.2 777.9,24.2 788,33 777.9,41.7 757.6,41.7 747.5,33 		"/>
		<path class="st18" d="M757.8,36.1c-0.6,0.8-1.6,1.3-2.6,1.3c-2.9,0-4.7-2.2-4.7-4.9s1.7-5,4.7-5c2-0.1,3.8,1.4,4,3.4h-2
			c-0.2-1-1-1.7-2-1.6c-1.9,0-2.6,1.6-2.6,3.2s0.7,3.2,2.6,3.2c1.1,0.1,2.1-0.7,2.3-1.8c0,0,0,0,0,0c0-0.1,0-0.2,0-0.2h-2.1v-1.5h4
			v5.1H758L757.8,36.1z"/>
		<path class="st18" d="M761.1,27.7h2.1l4,6.4l0,0v-6.4h2v9.5H767l-4-6.4l0,0v6.4h-2L761.1,27.7z"/>
		<path class="st18" d="M770.9,27.7h4.1c2.5,0,4.3,1.6,4.3,4.7c0,2.8-1.4,4.8-4.3,4.8H771L770.9,27.7z M773,35.5h1.9
			c1.2,0,2.4-0.8,2.4-2.8c0-1.9-0.7-3.1-2.8-3.1H773V35.5z"/>
		<path class="st14" d="M747.3,458.3h9.9c1.4,0,2.5,1.1,2.5,2.5v12.5c0,1.4-1.1,2.5-2.5,2.5h-9.9c-1.4,0-2.5-1.1-2.5-2.5v-12.5
			C744.8,459.4,745.9,458.3,747.3,458.3z"/>
		<polygon class="st14" points="757.6,458.3 777.9,458.3 788,467 777.9,475.7 757.6,475.7 747.5,467 		"/>
		<path class="st18" d="M757.8,470.2c-0.6,0.8-1.6,1.3-2.6,1.3c-2.9,0-4.7-2.2-4.7-4.9s1.7-5,4.7-5c2-0.1,3.8,1.3,4,3.4h-2
			c-0.2-1-1-1.6-2-1.6c-1.9,0-2.6,1.6-2.6,3.3s0.7,3.2,2.6,3.2c1.1,0.1,2.1-0.7,2.3-1.8c0,0,0,0,0,0c0-0.1,0-0.2,0-0.2h-2.1v-1.6h4
			v5.1H758L757.8,470.2z"/>
		<path class="st18" d="M761.1,461.8h2.1l4,6.4l0,0v-6.4h2v9.5H767l-4-6.4l0,0v6.4h-2L761.1,461.8z"/>
		<path class="st18" d="M770.9,461.8h4.1c2.5,0,4.3,1.5,4.3,4.7c0,2.8-1.4,4.8-4.3,4.8H771L770.9,461.8z M773,469.5h1.9
			c1.2,0,2.4-0.7,2.4-2.9c0-1.9-0.7-3.1-2.8-3.1H773V469.5z"/>
		<path class="st18" d="M701.7,76.8c2.6,0,3.5,1.8,3.5,2.8c0,1-0.6,1.9-1.5,2.2l0,0c1.2,0.2,2.1,1.3,2,2.6c0,2.2-2,3.3-3.9,3.3
			s-4-1-4-3.2c-0.1-1.2,0.8-2.3,2-2.6l0,0c-1-0.3-1.6-1.2-1.5-2.2C698.2,77.8,700,76.8,701.7,76.8z M701.7,86.1
			c0.9,0,1.7-0.7,1.8-1.6c0,0,0,0,0,0c0,0,0-0.1,0-0.1c0-0.9-0.7-1.7-1.7-1.7c0,0,0,0,0,0h-0.1c-0.9-0.1-1.7,0.6-1.8,1.5
			c0,0.1,0,0.1,0,0.2c0,1,0.8,1.8,1.8,1.8h0L701.7,86.1L701.7,86.1z M701.7,81.2c0.8,0.1,1.5-0.5,1.5-1.3c0.1-0.8-0.5-1.5-1.3-1.5
			c-0.1,0-0.2,0-0.2,0c-0.8-0.1-1.5,0.5-1.6,1.3c0,0,0,0,0,0c0,0.1,0,0.1,0,0.2c0,0.8,0.7,1.4,1.5,1.4
			C701.7,81.3,701.7,81.3,701.7,81.2L701.7,81.2z"/>
		<path class="st18" d="M699.2,111h-2.1v-6.8h-2.6v-1.6c1.5,0,2.8-0.5,3.1-2.1h1.7V111z"/>
		<path class="st18" d="M705.8,100.3c2.1,0,3.9,1.3,3.9,5.4s-1.8,5.5-3.9,5.5s-3.8-1.3-3.8-5.5S703.8,100.3,705.8,100.3z
			 M705.8,109.4c1.7,0,1.7-2.6,1.7-3.7s0-3.7-1.7-3.7s-1.7,2.6-1.7,3.7S704.1,109.4,705.8,109.4z"/>
		<path class="st18" d="M699.2,159.4h-2.1v-6.8h-2.6V151c1.5,0.1,2.8-0.5,3.1-2.1h1.7V159.4z"/>
		<path class="st18" d="M706.4,157h-4.5v-2l4.5-6.1h1.9v6.3h1.4v1.8h-1.4v2.4h-2V157z M706.4,151.6L706.4,151.6l-2.7,3.6h2.8
			L706.4,151.6z"/>
		<path class="st18" d="M693.9,225.4c-0.1-2.4,1.3-4.2,3.8-4.2c1.8-0.1,3.4,1.2,3.6,3c0,0.1,0,0.1,0,0.2c0,3.2-3.4,3.4-4.9,5.6h4.9
			v1.8h-7.7c0-2.4,1.5-3.4,3.3-4.7c0.9-0.6,2.2-1.3,2.2-2.6c0.1-0.8-0.5-1.6-1.4-1.6c0,0,0,0,0,0h-0.2c-1.3,0-1.7,1.3-1.7,2.4
			L693.9,225.4z"/>
		<path class="st18" d="M705.8,221.2c2.1,0,3.9,1.3,3.9,5.4s-1.8,5.5-3.9,5.5s-3.8-1.3-3.8-5.5S703.8,221.2,705.8,221.2z
			 M705.8,230.3c1.7,0,1.7-2.6,1.7-3.8s0-3.6-1.7-3.6s-1.7,2.6-1.7,3.6S704.1,230.3,705.8,230.3L705.8,230.3z"/>
		<path class="st18" d="M693.9,274.2c-0.1-2.4,1.3-4.2,3.8-4.2c1.8-0.1,3.4,1.2,3.6,3.1c0,0.1,0,0.1,0,0.2c0,3.2-3.4,3.4-4.9,5.6
			h4.9v1.8h-7.7c0-2.4,1.5-3.4,3.3-4.7c0.9-0.6,2.2-1.3,2.2-2.6c0.1-0.8-0.6-1.6-1.4-1.6h-0.2c-1.3,0-1.7,1.3-1.7,2.4L693.9,274.2z"
			/>
		<path class="st18" d="M706.4,278.2h-4.5v-1.9l4.5-6.1h1.9v6.3h1.4v1.8h-1.4v2.4h-2V278.2z M706.4,272.9L706.4,272.9l-2.7,3.6h2.8
			L706.4,272.9z"/>
		<path class="st18" d="M733.9,78.2c-2.2,1.9-3.4,5.8-3.4,8.6h-2.3c0.3-3.1,1.5-6.1,3.5-8.5h-5v-2h7.2L733.9,78.2z"/>
		<path class="st15" d="M674.9,0h9.9c1.4,0,2.5,1.1,2.5,2.5V15c0,1.4-1.1,2.5-2.5,2.5h-9.9c-1.4,0-2.5-1.1-2.5-2.5V2.5
			C672.5,1.1,673.6,0,674.9,0z"/>
		<polygon class="st15" points="661,0 678.5,0 687.3,8.7 678.5,17.5 661,17.5 652.2,8.7 		"/>
		<path class="st18" d="M663.7,3.5h2.1l4,6.4l0,0V3.5h2V13h-2.1l-4-6.4l0,0V13h-2L663.7,3.5z"/>
		<path class="st18" d="M679.9,6.7c-0.2-1-1.1-1.7-2.1-1.7c-1.9,0-2.6,1.6-2.6,3.2s0.7,3.2,2.6,3.2c1.2,0,2.2-0.9,2.2-2.1
			c0,0,0,0,0,0h2c-0.1,2.2-1.9,4-4.1,3.9c0,0-0.1,0-0.1,0c-2.9,0-4.7-2.2-4.7-4.9s1.7-5,4.7-5c2.1-0.1,3.9,1.4,4.1,3.4H679.9z"/>
		<path class="st15" d="M674.9,73h9.9c1.4,0,2.5,1.1,2.5,2.5V88c0,1.4-1.1,2.5-2.5,2.5h-9.9c-1.4,0-2.5-1.1-2.5-2.5V75.5
			C672.5,74.1,673.6,73,674.9,73z"/>
		<polygon class="st15" points="661,73 678.5,73 687.3,81.8 678.5,90.5 661,90.5 652.2,81.8 		"/>
		<path class="st18" d="M663.7,76.5h2.1l4,6.4l0,0v-6.4h2V86h-2.1l-4-6.4l0,0V86h-2L663.7,76.5z"/>
		<path class="st18" d="M679.9,79.7c-0.2-1-1.1-1.7-2.1-1.7c-1.9,0-2.6,1.6-2.6,3.2s0.7,3.2,2.6,3.2c1.2,0,2.2-0.9,2.2-2.1h2
			c-0.1,2.2-1.9,4-4.1,3.9c0,0-0.1,0-0.1,0c-2.9,0-4.7-2.2-4.7-4.9s1.7-5,4.7-5c2.1-0.1,3.9,1.4,4.1,3.4L679.9,79.7z"/>
		<path class="st15" d="M747.2,0h9.9c1.4,0,2.5,1.1,2.5,2.5V15c0,1.4-1.1,2.5-2.5,2.5h-9.9c-1.4,0-2.5-1.1-2.5-2.5V2.5
			C744.8,1.1,745.9,0,747.2,0z"/>
		<polygon class="st15" points="771.1,0 753.5,0 744.7,8.7 753.5,17.4 771.1,17.4 779.8,8.7 		"/>
		<path class="st18" d="M751.2,3.5h2.1l4,6.4l0,0V3.5h2V13h-2.1l-3.9-6.4l0,0V13h-2L751.2,3.5z"/>
		<path class="st18" d="M767.4,6.7c-0.2-1-1.1-1.7-2.1-1.7c-1.9,0-2.6,1.6-2.6,3.2s0.7,3.2,2.6,3.2c1.2,0,2.2-0.9,2.2-2.1
			c0,0,0,0,0,0h2c-0.1,2.2-1.9,3.9-4.1,3.9c0,0,0,0-0.1,0c-2.9,0-4.7-2.2-4.7-4.9s1.7-5,4.7-5c2.1-0.1,3.9,1.4,4.1,3.4L767.4,6.7z"
			/>
		<path class="st15" d="M747.2,48.5h9.9c1.4,0,2.5,1.1,2.5,2.5v12.5c0,1.4-1.1,2.5-2.5,2.5h-9.9c-1.4,0-2.5-1.1-2.5-2.5V50.9
			C744.8,49.6,745.9,48.5,747.2,48.5z"/>
		<polygon class="st15" points="771.1,48.5 753.5,48.5 744.7,57.2 753.5,65.9 771.1,65.9 779.8,57.2 		"/>
		<path class="st18" d="M751.2,51.9h2.1l4,6.4l0,0v-6.4h2v9.5h-2.1l-4-6.4l0,0v6.4h-2L751.2,51.9z"/>
		<path class="st18" d="M767.4,55.1c-0.2-1-1.1-1.7-2.1-1.7c-1.9,0-2.6,1.6-2.6,3.2s0.7,3.2,2.6,3.2c1.2,0,2.1-0.9,2.2-2.1
			c0,0,0,0,0,0h2c-0.1,2.2-1.9,4-4.1,3.9c0,0-0.1,0-0.1,0c-2.9,0-4.7-2.2-4.7-4.9s1.7-5,4.7-5c2.1-0.1,3.9,1.4,4.1,3.4L767.4,55.1z"
			/>
		<path class="st15" d="M747.2,73h9.9c1.4,0,2.5,1.1,2.5,2.5V88c0,1.4-1.1,2.5-2.5,2.5h-9.9c-1.4,0-2.5-1.1-2.5-2.5V75.5
			C744.8,74.1,745.9,73,747.2,73z"/>
		<polygon class="st15" points="771.1,73 753.5,73 744.7,81.8 753.5,90.5 771.1,90.5 779.8,81.8 		"/>
		<path class="st18" d="M751.2,76.5h2.1l4,6.4l0,0v-6.4h2V86h-2.1l-4-6.4l0,0V86h-2L751.2,76.5z"/>
		<path class="st18" d="M767.4,79.7c-0.2-1-1.1-1.7-2.1-1.7c-1.9,0-2.6,1.6-2.6,3.2s0.7,3.2,2.6,3.2c1.2,0,2.1-0.9,2.2-2.1
			c0,0,0,0,0,0h2c-0.1,2.2-1.9,4-4.1,3.9c0,0-0.1,0-0.1,0c-2.9,0-4.7-2.2-4.7-4.9s1.7-5,4.7-5c2.1-0.1,3.9,1.4,4.1,3.4L767.4,79.7z"
			/>
		<path class="st15" d="M674.9,96.5h9.9c1.4,0,2.5,1.1,2.5,2.5v12.5c0,1.4-1.1,2.5-2.5,2.5h-9.9c-1.4,0-2.5-1.1-2.5-2.5V99
			C672.5,97.6,673.6,96.5,674.9,96.5z"/>
		<polygon class="st15" points="661,96.5 678.5,96.5 687.3,105.3 678.5,114 661,114 652.2,105.3 		"/>
		<path class="st18" d="M663.7,100h2.1l4,6.4l0,0V100h2v9.5h-2.1l-4-6.4l0,0v6.4h-2L663.7,100z"/>
		<path class="st18" d="M679.9,103.2c-0.2-1-1.1-1.7-2.1-1.7c-1.9,0-2.6,1.6-2.6,3.2s0.8,3.2,2.6,3.2c1.2,0,2.2-0.9,2.2-2.1
			c0,0,0,0,0,0h2c-0.1,2.2-1.9,4-4.1,3.9c0,0-0.1,0-0.1,0c-2.9,0-4.7-2.2-4.7-4.9s1.7-5,4.7-5c2.1-0.1,3.9,1.4,4.1,3.4L679.9,103.2z
			"/>
		<path class="st15" d="M747.2,96.5h9.9c1.4,0,2.5,1.1,2.5,2.5v12.5c0,1.4-1.1,2.5-2.5,2.5h-9.9c-1.4,0-2.5-1.1-2.5-2.5V99
			C744.8,97.6,745.9,96.5,747.2,96.5z"/>
		<polygon class="st15" points="771.1,96.5 753.5,96.5 744.7,105.3 753.5,114 771.1,114 779.8,105.3 		"/>
		<path class="st18" d="M751.2,100h2.1l4,6.4l0,0V100h2v9.5h-2.1l-4-6.4l0,0v6.4h-2L751.2,100z"/>
		<path class="st18" d="M767.4,103.2c-0.2-1-1.1-1.7-2.1-1.7c-1.9,0-2.6,1.6-2.6,3.2s0.7,3.2,2.6,3.2c1.2,0,2.1-0.9,2.2-2.1
			c0,0,0,0,0,0h2c-0.1,2.2-1.9,4-4.1,3.9c0,0-0.1,0-0.1,0c-2.9,0-4.7-2.2-4.7-4.9s1.7-5,4.7-5c2.1-0.1,3.9,1.4,4.1,3.4L767.4,103.2z
			"/>
		<path class="st15" d="M674.9,120.1h9.9c1.4,0,2.5,1.1,2.5,2.5V135c0,1.4-1.1,2.5-2.5,2.5h-9.9c-1.4,0-2.5-1.1-2.5-2.5v-12.5
			C672.5,121.2,673.6,120.1,674.9,120.1z"/>
		<polygon class="st15" points="661,120.1 678.5,120.1 687.3,128.8 678.5,137.5 661,137.5 652.2,128.8 		"/>
		<path class="st18" d="M663.7,123.5h2.1l4,6.4l0,0v-6.4h2v9.5h-2.1l-4-6.4l0,0v6.4h-2L663.7,123.5z"/>
		<path class="st18" d="M679.9,126.7c-0.2-1-1.1-1.7-2.1-1.7c-1.9,0-2.6,1.6-2.6,3.2c0,1.6,0.7,3.2,2.6,3.2c1.2,0,2.2-0.9,2.2-2.1
			c0,0,0,0,0,0h2c-0.1,2.2-1.9,4-4.1,3.9c0,0-0.1,0-0.1,0c-2.9,0-4.7-2.2-4.7-4.9s1.7-5,4.7-5c2.1-0.1,3.9,1.4,4.1,3.4L679.9,126.7z
			"/>
		<path class="st15" d="M747.2,120.1h9.9c1.4,0,2.5,1.1,2.5,2.5V135c0,1.4-1.1,2.5-2.5,2.5h-9.9c-1.4,0-2.5-1.1-2.5-2.5v-12.5
			C744.8,121.2,745.9,120.1,747.2,120.1z"/>
		<polygon class="st15" points="771.1,120.1 753.5,120.1 744.7,128.8 753.5,137.5 771.1,137.5 779.8,128.8 		"/>
		<path class="st18" d="M751.2,123.5h2.1l4,6.4l0,0v-6.4h2v9.5h-2.1l-4-6.4l0,0v6.4h-2L751.2,123.5z"/>
		<path class="st18" d="M767.4,126.7c-0.2-1-1.1-1.7-2.1-1.7c-1.9,0-2.6,1.6-2.6,3.2c0,1.6,0.7,3.2,2.6,3.2c1.2,0,2.1-0.9,2.2-2.1
			c0,0,0,0,0,0h2c-0.1,2.2-1.9,4-4.1,3.9c0,0-0.1,0-0.1,0c-2.9,0-4.7-2.2-4.7-4.9s1.7-5,4.7-5c2.1-0.1,3.9,1.4,4.1,3.4L767.4,126.7z
			"/>
		<path class="st15" d="M674.9,168.2h9.9c1.4,0,2.5,1.1,2.5,2.5v12.5c0,1.4-1.1,2.5-2.5,2.5h-9.9c-1.4,0-2.5-1.1-2.5-2.5v-12.5
			C672.5,169.3,673.6,168.2,674.9,168.2z"/>
		<polygon class="st15" points="661,168.2 678.5,168.2 687.3,177 678.5,185.7 661,185.7 652.2,177 		"/>
		<path class="st18" d="M663.7,171.7h2.1l4,6.4l0,0v-6.4h2v9.5h-2.1l-4-6.4l0,0v6.4h-2L663.7,171.7z"/>
		<path class="st18" d="M679.9,174.9c-0.2-1-1.1-1.7-2.1-1.7c-1.9,0-2.6,1.6-2.6,3.2s0.7,3.2,2.6,3.2c1.2,0,2.2-0.9,2.2-2.1
			c0,0,0,0,0,0h2c-0.1,2.2-1.9,4-4.1,3.9c0,0-0.1,0-0.1,0c-2.9,0-4.7-2.2-4.7-5s1.7-5,4.7-5c2.1-0.1,3.9,1.4,4.1,3.4L679.9,174.9z"
			/>
		<path class="st15" d="M674.9,144.4h9.9c1.4,0,2.5,1.1,2.5,2.5v12.5c0,1.4-1.1,2.5-2.5,2.5h-9.9c-1.4,0-2.5-1.1-2.5-2.5v-12.5
			C672.5,145.5,673.6,144.4,674.9,144.4z"/>
		<polygon class="st15" points="661,144.4 678.5,144.4 687.3,153.1 678.5,161.8 661,161.8 652.2,153.1 		"/>
		<path class="st18" d="M663.7,147.9h2.1l4,6.4l0,0v-6.4h2v9.5h-2.1l-4-6.4l0,0v6.4h-2L663.7,147.9z"/>
		<path class="st18" d="M679.9,151.1c-0.2-1-1.1-1.7-2.1-1.7c-1.9,0-2.6,1.6-2.6,3.2s0.7,3.2,2.6,3.2c1.2,0,2.2-0.9,2.2-2.1
			c0,0,0,0,0,0h2c-0.1,2.2-1.9,4-4.1,3.9c0,0-0.1,0-0.1,0c-2.9,0-4.7-2.2-4.7-5s1.7-5,4.7-5c2.1-0.1,3.9,1.4,4.1,3.4L679.9,151.1z"
			/>
		<path class="st15" d="M747.2,168.2h9.9c1.4,0,2.5,1.1,2.5,2.5v12.5c0,1.4-1.1,2.5-2.5,2.5h-9.9c-1.4,0-2.5-1.1-2.5-2.5v-12.5
			C744.8,169.3,745.9,168.2,747.2,168.2z"/>
		<polygon class="st15" points="771.1,168.2 753.5,168.2 744.7,177 753.5,185.7 771.1,185.7 779.8,177 		"/>
		<path class="st18" d="M751.2,171.7h2.1l4,6.4l0,0v-6.4h2v9.5h-2.1l-4-6.4l0,0v6.4h-2L751.2,171.7z"/>
		<path class="st18" d="M767.4,174.9c-0.2-1-1.1-1.7-2.1-1.7c-1.9,0-2.6,1.6-2.6,3.2s0.7,3.2,2.6,3.2c1.2,0,2.1-0.9,2.2-2.1
			c0,0,0,0,0,0h2c-0.1,2.2-1.9,4-4.1,3.9c0,0-0.1,0-0.1,0c-2.9,0-4.7-2.2-4.7-5s1.7-5,4.7-5c2.1-0.1,3.9,1.4,4.1,3.4L767.4,174.9z"
			/>
		<path class="st15" d="M747.2,144.4h9.9c1.4,0,2.5,1.1,2.5,2.5v12.5c0,1.4-1.1,2.5-2.5,2.5h-9.9c-1.4,0-2.5-1.1-2.5-2.5v-12.5
			C744.8,145.5,745.9,144.4,747.2,144.4z"/>
		<polygon class="st15" points="771.1,144.4 753.5,144.4 744.7,153.1 753.5,161.8 771.1,161.8 779.8,153.1 		"/>
		<path class="st18" d="M751.2,147.8h2.1l4,6.4l0,0v-6.4h2v9.5h-2.1l-4-6.4l0,0v6.4h-2L751.2,147.8z"/>
		<path class="st18" d="M767.4,151c-0.2-1-1.1-1.7-2.1-1.7c-1.9,0-2.6,1.6-2.6,3.3s0.7,3.2,2.6,3.2c1.2,0,2.1-0.9,2.2-2.1
			c0,0,0,0,0,0h2c-0.1,2.2-1.9,4-4.1,3.9c0,0-0.1,0-0.1,0c-2.9,0-4.7-2.2-4.7-4.9s1.7-5,4.7-5c2.1-0.1,3.9,1.4,4.1,3.4L767.4,151z"
			/>
		<path class="st15" d="M674.9,192.3h9.9c1.4,0,2.5,1.1,2.5,2.5v12.5c0,1.4-1.1,2.5-2.5,2.5h-9.9c-1.4,0-2.5-1.1-2.5-2.5v-12.5
			C672.5,193.4,673.6,192.3,674.9,192.3z"/>
		<polygon class="st15" points="661,192.3 678.5,192.3 687.3,201.1 678.5,209.8 661,209.8 652.2,201.1 		"/>
		<path class="st18" d="M663.7,195.8h2.1l4,6.4l0,0v-6.4h2v9.5h-2.1l-4-6.3l0,0v6.3h-2L663.7,195.8z"/>
		<path class="st18" d="M679.9,199c-0.2-1-1.1-1.7-2.1-1.7c-1.9,0-2.6,1.6-2.6,3.3s0.7,3.2,2.6,3.2c1.2,0,2.2-0.9,2.2-2.1
			c0,0,0,0,0,0h2c-0.1,2.2-1.9,4-4.1,3.9c0,0-0.1,0-0.1,0c-2.9,0-4.7-2.2-4.7-4.9s1.7-5,4.7-5c2.1-0.1,3.9,1.4,4.1,3.4L679.9,199z"
			/>
		<path class="st15" d="M747.2,192.3h9.9c1.4,0,2.5,1.1,2.5,2.5v12.5c0,1.4-1.1,2.5-2.5,2.5h-9.9c-1.4,0-2.5-1.1-2.5-2.5v-12.5
			C744.8,193.4,745.9,192.3,747.2,192.3z"/>
		<polygon class="st15" points="771.1,192.3 753.5,192.3 744.7,201.1 753.5,209.8 771.1,209.8 779.8,201.1 		"/>
		<path class="st18" d="M751.2,195.8h2.1l4,6.4l0,0v-6.4h2v9.5h-2.1l-4-6.4l0,0v6.4h-2L751.2,195.8z"/>
		<path class="st18" d="M767.4,199c-0.2-1-1.1-1.7-2.1-1.6c-1.9,0-2.6,1.6-2.6,3.2s0.7,3.2,2.6,3.2c1.2,0,2.2-0.9,2.2-2.1
			c0,0,0,0,0,0h2c-0.1,2.2-1.9,4-4.1,3.9c0,0-0.1,0-0.1,0c-2.9,0-4.7-2.2-4.7-4.9s1.7-5,4.7-5c2.1-0.1,3.9,1.4,4.1,3.4L767.4,199z"
			/>
		<path class="st15" d="M674.9,216.7h9.9c1.4,0,2.5,1.1,2.5,2.5v12.5c0,1.4-1.1,2.5-2.5,2.5h-9.9c-1.4,0-2.5-1.1-2.5-2.5v-12.5
			C672.5,217.8,673.6,216.7,674.9,216.7z"/>
		<polygon class="st15" points="661,216.7 678.5,216.7 687.3,225.4 678.5,234.2 661,234.2 652.2,225.4 		"/>
		<path class="st18" d="M663.7,220.2h2.1l4,6.4l0,0v-6.4h2v9.5h-2.1l-4-6.4l0,0v6.4h-2L663.7,220.2z"/>
		<path class="st18" d="M679.9,223.4c-0.2-1-1.1-1.7-2.1-1.7c-1.9,0-2.6,1.6-2.6,3.2s0.7,3.2,2.6,3.2c1.2,0,2.2-0.9,2.2-2.1
			c0,0,0,0,0,0h2c-0.1,2.2-1.9,4-4.1,3.9c0,0-0.1,0-0.1,0c-2.9,0-4.7-2.2-4.7-4.9s1.7-5,4.7-5c2.1-0.1,3.9,1.4,4.1,3.4L679.9,223.4z
			"/>
		<path class="st15" d="M674.9,241.9h9.9c1.4,0,2.5,1.1,2.5,2.5v12.5c0,1.4-1.1,2.5-2.5,2.5h-9.9c-1.4,0-2.5-1.1-2.5-2.5v-12.5
			C672.5,243,673.6,241.9,674.9,241.9z"/>
		<polygon class="st15" points="661,241.9 678.5,241.9 687.3,250.7 678.5,259.4 661,259.4 652.2,250.7 		"/>
		<path class="st18" d="M663.7,245.4h2.1l4,6.4l0,0v-6.4h2v9.5h-2.1l-4-6.4l0,0v6.4h-2L663.7,245.4z"/>
		<path class="st18" d="M679.9,248.6c-0.2-1-1.1-1.7-2.1-1.7c-1.9,0-2.6,1.6-2.6,3.2s0.7,3.2,2.6,3.2c1.2,0,2.2-0.9,2.2-2.1
			c0,0,0,0,0,0h2c-0.1,2.2-1.9,4-4.1,3.9c0,0-0.1,0-0.1,0c-2.9,0-4.7-2.2-4.7-4.9s1.7-5,4.7-5c2.1-0.1,3.9,1.4,4.1,3.4L679.9,248.6z
			"/>
		<path class="st15" d="M747.2,216.7h9.9c1.4,0,2.5,1.1,2.5,2.5v12.5c0,1.4-1.1,2.5-2.5,2.5h-9.9c-1.4,0-2.5-1.1-2.5-2.5v-12.5
			C744.8,217.8,745.9,216.7,747.2,216.7z"/>
		<polygon class="st15" points="771.1,216.7 753.5,216.7 744.7,225.4 753.5,234.2 771.1,234.2 779.8,225.4 		"/>
		<path class="st18" d="M751.2,220.2h2.1l4,6.4l0,0v-6.4h2v9.5h-2.1l-4-6.4l0,0v6.4h-2L751.2,220.2z"/>
		<path class="st18" d="M767.4,223.4c-0.2-1-1.1-1.7-2.1-1.7c-1.9,0-2.6,1.6-2.6,3.2s0.7,3.2,2.6,3.2c1.2,0,2.2-0.9,2.2-2.1
			c0,0,0,0,0,0h2c-0.1,2.2-1.9,4-4.1,3.9c0,0-0.1,0-0.1,0c-2.9,0-4.7-2.2-4.7-4.9s1.7-5,4.7-5c2.1-0.1,3.9,1.4,4.1,3.4L767.4,223.4z
			"/>
		<path class="st15" d="M674.9,289.2h9.9c1.4,0,2.5,1.1,2.5,2.5v12.5c0,1.4-1.1,2.5-2.5,2.5h-9.9c-1.4,0-2.5-1.1-2.5-2.5v-12.5
			C672.5,290.3,673.6,289.2,674.9,289.2z"/>
		<polygon class="st15" points="661,289.2 678.5,289.2 687.3,298 678.5,306.7 661,306.7 652.2,298 		"/>
		<path class="st18" d="M663.7,292.7h2.1l4,6.4l0,0v-6.4h2v9.5h-2.1l-4-6.4l0,0v6.4h-2L663.7,292.7z"/>
		<path class="st18" d="M679.9,295.9c-0.2-1-1.1-1.7-2.1-1.7c-1.9,0-2.6,1.6-2.6,3.2s0.7,3.2,2.6,3.2c1.2,0,2.2-0.9,2.2-2.1
			c0,0,0,0,0,0h2c-0.1,2.2-1.9,4-4.1,3.9c0,0-0.1,0-0.1,0c-2.9,0-4.7-2.2-4.7-4.9s1.7-5,4.7-5c2.1-0.1,3.9,1.4,4.1,3.4H679.9z"/>
		<path class="st15" d="M747.2,289.2h9.9c1.4,0,2.5,1.1,2.5,2.5v12.5c0,1.4-1.1,2.5-2.5,2.5h-9.9c-1.4,0-2.5-1.1-2.5-2.5v-12.5
			C744.8,290.3,745.9,289.2,747.2,289.2z"/>
		<polygon class="st15" points="771.1,289.2 753.5,289.2 744.7,298 753.5,306.7 771.1,306.7 779.8,298 		"/>
		<path class="st18" d="M751.2,292.7h2.1l4,6.4l0,0v-6.4h2v9.5h-2.1l-4-6.4l0,0v6.4h-2L751.2,292.7z"/>
		<path class="st18" d="M767.4,295.9c-0.2-1-1.1-1.7-2.1-1.7c-1.9,0-2.6,1.6-2.6,3.2s0.7,3.2,2.6,3.2c1.2,0,2.2-0.9,2.2-2.1
			c0,0,0,0,0,0h2c-0.1,2.2-1.9,4-4.1,3.9c0,0-0.1,0-0.1,0c-2.9,0-4.7-2.2-4.7-5s1.7-5,4.7-5c2.1-0.1,3.9,1.4,4.1,3.4H767.4z"/>
		<path class="st15" d="M674.9,312.8h9.9c1.4,0,2.5,1.1,2.5,2.5v12.5c0,1.4-1.1,2.5-2.5,2.5h-9.9c-1.4,0-2.5-1.1-2.5-2.5v-12.5
			C672.5,313.9,673.6,312.8,674.9,312.8z"/>
		<polygon class="st15" points="661,312.8 678.5,312.8 687.3,321.5 678.5,330.2 661,330.2 652.2,321.5 		"/>
		<path class="st18" d="M663.7,316.2h2.1l4,6.4l0,0v-6.4h2v9.5h-2.1l-4-6.4l0,0v6.4h-2L663.7,316.2z"/>
		<path class="st18" d="M679.9,319.4c-0.2-1-1.1-1.7-2.1-1.7c-1.9,0-2.6,1.6-2.6,3.2s0.7,3.2,2.6,3.2c1.2,0,2.2-0.9,2.2-2.1
			c0,0,0,0,0,0h2c-0.1,2.2-1.9,4-4.1,3.9c0,0-0.1,0-0.1,0c-2.9,0-4.7-2.2-4.7-4.9s1.7-5,4.7-5c2.1-0.1,3.9,1.4,4.1,3.4L679.9,319.4z
			"/>
		<path class="st15" d="M747.2,241.9h9.9c1.4,0,2.5,1.1,2.5,2.5v12.5c0,1.4-1.1,2.5-2.5,2.5h-9.9c-1.4,0-2.5-1.1-2.5-2.5v-12.5
			C744.8,243,745.9,241.9,747.2,241.9z"/>
		<polygon class="st15" points="771.1,241.9 753.5,241.9 744.7,250.7 753.5,259.4 771.1,259.4 779.8,250.7 		"/>
		<path class="st18" d="M751.2,245.4h2.1l4,6.4l0,0v-6.4h2v9.5h-2.1l-4-6.4l0,0v6.4h-2L751.2,245.4z"/>
		<path class="st18" d="M767.4,248.6c-0.2-1-1.1-1.7-2.1-1.7c-1.9,0-2.6,1.6-2.6,3.2s0.7,3.2,2.6,3.2c1.2,0,2.1-0.9,2.2-2.1
			c0,0,0,0,0,0h2c-0.1,2.2-1.9,4-4.1,3.9c0,0-0.1,0-0.1,0c-2.9,0-4.7-2.2-4.7-4.9s1.7-5,4.7-5c2.1-0.1,3.9,1.4,4.1,3.4L767.4,248.6z
			"/>
		<path class="st15" d="M747.2,265.6h9.9c1.4,0,2.5,1.1,2.5,2.5v12.5c0,1.4-1.1,2.5-2.5,2.5h-9.9c-1.4,0-2.5-1.1-2.5-2.5v-12.5
			C744.8,266.7,745.9,265.6,747.2,265.6z"/>
		<polygon class="st15" points="771.1,265.6 753.5,265.6 744.7,274.3 753.5,283 771.1,283 779.8,274.3 		"/>
		<path class="st18" d="M751.2,269h2.1l4,6.4l0,0V269h2v9.5h-2.1l-4-6.4l0,0v6.4h-2L751.2,269z"/>
		<path class="st18" d="M767.4,272.2c-0.2-1-1.1-1.7-2.1-1.7c-1.9,0-2.6,1.6-2.6,3.2s0.7,3.2,2.6,3.2c1.2,0,2.1-0.9,2.2-2.1
			c0,0,0,0,0,0h2c-0.1,2.2-1.9,4-4.1,3.9c0,0-0.1,0-0.1,0c-2.9,0-4.7-2.2-4.7-4.9s1.7-5,4.7-5c2.1-0.1,3.9,1.4,4.1,3.4L767.4,272.2z
			"/>
		<path class="st18" d="M751.2,269h2.1l4,6.4l0,0V269h2v9.5h-2.1l-4-6.4l0,0v6.4h-2L751.2,269z"/>
		<path class="st18" d="M767.4,272.2c-0.2-1-1.1-1.7-2.1-1.7c-1.9,0-2.6,1.6-2.6,3.2s0.7,3.2,2.6,3.2c1.2,0,2.1-0.9,2.2-2.1
			c0,0,0,0,0,0h2c-0.1,2.2-1.9,4-4.1,3.9c0,0-0.1,0-0.1,0c-2.9,0-4.7-2.2-4.7-4.9s1.7-5,4.7-5c2.1-0.1,3.9,1.4,4.1,3.4L767.4,272.2z
			"/>
		<path class="st15" d="M674.9,337.1h9.9c1.4,0,2.5,1.1,2.5,2.5V352c0,1.4-1.1,2.5-2.5,2.5h-9.9c-1.4,0-2.5-1.1-2.5-2.5v-12.5
			C672.5,338.2,673.6,337.1,674.9,337.1z"/>
		<polygon class="st15" points="661,337.1 678.5,337.1 687.3,345.8 678.5,354.5 661,354.5 652.2,345.8 		"/>
		<path class="st18" d="M663.7,340.5h2.1l4,6.4l0,0v-6.4h2v9.5h-2.1l-4-6.4l0,0v6.4h-2L663.7,340.5z"/>
		<path class="st18" d="M679.9,343.7c-0.2-1-1.1-1.7-2.1-1.7c-1.9,0-2.6,1.6-2.6,3.2s0.7,3.2,2.6,3.2c1.2,0,2.2-0.9,2.2-2.1
			c0,0,0,0,0,0h2c-0.1,2.2-1.9,4-4.1,3.9c0,0-0.1,0-0.1,0c-2.9,0-4.7-2.2-4.7-4.9s1.7-5,4.7-5c2.1-0.1,3.9,1.4,4.1,3.4H679.9z"/>
		<path class="st15" d="M747.2,337.1h9.9c1.4,0,2.5,1.1,2.5,2.5V352c0,1.4-1.1,2.5-2.5,2.5h-9.9c-1.4,0-2.5-1.1-2.5-2.5v-12.5
			C744.8,338.2,745.9,337.1,747.2,337.1z"/>
		<polygon class="st15" points="771.1,337.1 753.5,337.1 744.7,345.8 753.5,354.5 771.1,354.5 779.8,345.8 		"/>
		<path class="st18" d="M751.2,340.5h2.1l4,6.4l0,0v-6.4h2v9.5h-2.1l-4-6.4l0,0v6.4h-2L751.2,340.5z"/>
		<path class="st18" d="M767.4,343.7c-0.2-1-1.1-1.7-2.1-1.7c-1.9,0-2.6,1.6-2.6,3.2s0.7,3.2,2.6,3.2c1.2,0,2.1-0.9,2.2-2.1
			c0,0,0,0,0,0h2c-0.1,2.2-1.9,4-4.1,3.9c0,0-0.1,0-0.1,0c-2.9,0-4.7-2.2-4.7-4.9s1.7-5,4.7-5c2.1-0.1,3.9,1.4,4.1,3.4H767.4z"/>
		<path class="st15" d="M747.2,312.8h9.9c1.4,0,2.5,1.1,2.5,2.5v12.5c0,1.4-1.1,2.5-2.5,2.5h-9.9c-1.4,0-2.5-1.1-2.5-2.5v-12.5
			C744.8,313.9,745.9,312.8,747.2,312.8z"/>
		<polygon class="st15" points="771.1,312.8 753.5,312.8 744.7,321.5 753.5,330.2 771.1,330.2 779.8,321.5 		"/>
		<path class="st18" d="M751.2,316.2h2.1l4,6.4l0,0v-6.4h2v9.5h-2.1l-4-6.4l0,0v6.4h-2L751.2,316.2z"/>
		<path class="st18" d="M767.4,319.4c-0.2-1-1.1-1.7-2.1-1.7c-1.9,0-2.6,1.6-2.6,3.2s0.7,3.2,2.6,3.2c1.2,0,2.1-0.9,2.2-2.1
			c0,0,0,0,0,0h2c-0.1,2.2-1.9,4-4.1,3.9c0,0-0.1,0-0.1,0c-2.9,0-4.7-2.2-4.7-4.9s1.7-5,4.7-5c2.1-0.1,3.9,1.4,4.1,3.4L767.4,319.4z
			"/>
		<path class="st15" d="M674.9,385h9.9c1.4,0,2.5,1.1,2.5,2.5V400c0,1.4-1.1,2.5-2.5,2.5h-9.9c-1.4,0-2.5-1.1-2.5-2.5v-12.5
			C672.5,386.1,673.6,385,674.9,385z"/>
		<polygon class="st15" points="661,385 678.5,385 687.3,393.8 678.5,402.5 661,402.5 652.2,393.8 		"/>
		<path class="st18" d="M663.7,388.5h2.1l4,6.4l0,0v-6.4h2v9.5h-2.1l-4-6.4l0,0v6.4h-2L663.7,388.5z"/>
		<path class="st18" d="M679.9,391.7c-0.2-1-1.1-1.7-2.1-1.7c-1.9,0-2.6,1.6-2.6,3.2s0.7,3.2,2.6,3.2c1.2,0,2.2-0.9,2.2-2.1
			c0,0,0,0,0,0h2c-0.1,2.2-1.9,4-4.1,3.9c0,0-0.1,0-0.1,0c-2.9,0-4.7-2.2-4.7-4.9s1.7-5,4.7-5c2.1-0.1,3.9,1.4,4.1,3.4L679.9,391.7z
			"/>
		<path class="st17" d="M674.9,409.4h9.9c1.4,0,2.5,1.1,2.5,2.5v12.5c0,1.4-1.1,2.5-2.5,2.5h-9.9c-1.4,0-2.5-1.1-2.5-2.5v-12.5
			C672.5,410.5,673.6,409.4,674.9,409.4z"/>
		<path class="st17" d="M638.5,409.4h35.6c4.9,0,8.9,1.1,8.9,2.5v12.5c0,1.4-4,2.5-8.9,2.5h-35.6c-4.9,0-8.9-1.1-8.9-2.5v-12.5
			C629.7,410.5,633.6,409.4,638.5,409.4z"/>
		<polygon class="st17" points="625.9,409.4 643.5,409.4 652.3,418.1 643.5,426.9 625.9,426.9 617.2,418.1 		"/>
		<path class="st15" d="M747.2,385h9.9c1.4,0,2.5,1.1,2.5,2.5V400c0,1.4-1.1,2.5-2.5,2.5h-9.9c-1.4,0-2.5-1.1-2.5-2.5v-12.5
			C744.8,386.1,745.9,385,747.2,385z"/>
		<polygon class="st15" points="771.1,385 753.5,385 744.7,393.8 753.5,402.5 771.1,402.5 779.8,393.8 		"/>
		<path class="st18" d="M751.2,388.5h2.1l4,6.4l0,0v-6.4h2v9.5h-2.1l-4-6.4l0,0v6.4h-2L751.2,388.5z"/>
		<path class="st18" d="M767.4,391.7c-0.2-1-1.1-1.7-2.1-1.7c-1.9,0-2.6,1.6-2.6,3.2s0.7,3.2,2.6,3.2c1.2,0,2.1-0.9,2.2-2.1
			c0,0,0,0,0,0h2c-0.1,2.2-1.9,4-4.1,3.9c0,0-0.1,0-0.1,0c-2.9,0-4.7-2.2-4.7-4.9s1.7-5,4.7-5c2.1-0.1,3.9,1.4,4.1,3.4L767.4,391.7z
			"/>
		<path class="st15" d="M674.9,434.6h9.9c1.4,0,2.5,1.1,2.5,2.5v12.5c0,1.4-1.1,2.5-2.5,2.5h-9.9c-1.4,0-2.5-1.1-2.5-2.5v-12.5
			C672.5,435.7,673.6,434.6,674.9,434.6z"/>
		<polygon class="st15" points="661,434.6 678.5,434.6 687.3,443.4 678.5,452.1 661,452.1 652.2,443.4 		"/>
		<path class="st18" d="M663.7,438.1h2.1l4,6.4l0,0v-6.4h2v9.5h-2.1l-4-6.4l0,0v6.4h-2L663.7,438.1z"/>
		<path class="st18" d="M679.9,441.3c-0.2-1-1.1-1.7-2.1-1.7c-1.9,0-2.6,1.6-2.6,3.2s0.7,3.2,2.6,3.2c1.2,0,2.2-0.9,2.2-2.1
			c0,0,0,0,0,0h2c-0.1,2.2-1.9,4-4.1,3.9c0,0-0.1,0-0.1,0c-2.9,0-4.7-2.2-4.7-5s1.7-5,4.7-5c2.1-0.1,3.9,1.4,4.1,3.4L679.9,441.3z"
			/>
		<path class="st15" d="M747.2,434.6h9.9c1.4,0,2.5,1.1,2.5,2.5v12.5c0,1.4-1.1,2.5-2.5,2.5h-9.9c-1.4,0-2.5-1.1-2.5-2.5v-12.5
			C744.8,435.7,745.9,434.6,747.2,434.6z"/>
		<polygon class="st15" points="771.1,434.6 753.5,434.6 744.7,443.4 753.5,452.1 771.1,452.1 779.8,443.4 		"/>
		<path class="st18" d="M751.2,438.1h2.1l4,6.4l0,0v-6.4h2v9.5h-2.1l-4-6.4l0,0v6.4h-2L751.2,438.1z"/>
		<path class="st18" d="M767.4,441.3c-0.2-1-1.1-1.7-2.1-1.7c-1.9,0-2.6,1.6-2.6,3.2s0.7,3.2,2.6,3.2c1.2,0,2.1-0.9,2.2-2.1
			c0,0,0,0,0,0h2c-0.1,2.2-1.9,4-4.1,3.9c0,0-0.1,0-0.1,0c-2.9,0-4.7-2.2-4.7-5s1.7-5,4.7-5c2.1-0.1,3.9,1.4,4.1,3.4L767.4,441.3z"
			/>
		<path class="st15" d="M747.2,360.9h9.9c1.4,0,2.5,1.1,2.5,2.5v12.5c0,1.4-1.1,2.5-2.5,2.5h-9.9c-1.4,0-2.5-1.1-2.5-2.5v-12.5
			C744.8,362,745.9,360.9,747.2,360.9z"/>
		<polygon class="st15" points="771.1,360.9 753.5,360.9 744.7,369.7 753.5,378.4 771.1,378.4 779.8,369.7 		"/>
		<path class="st18" d="M751.2,364.4h2.1l4,6.4l0,0v-6.4h2v9.5h-2.1l-4-6.4l0,0v6.4h-2L751.2,364.4z"/>
		<path class="st18" d="M767.4,367.6c-0.2-1-1.1-1.7-2.1-1.7c-1.9,0-2.6,1.6-2.6,3.2s0.7,3.2,2.6,3.2c1.2,0,2.1-0.9,2.2-2.1
			c0,0,0,0,0,0h2c-0.1,2.2-1.9,4-4.1,3.9c0,0-0.1,0-0.1,0c-2.9,0-4.7-2.2-4.7-4.9s1.7-5,4.7-5c2.1-0.1,3.9,1.4,4.1,3.4L767.4,367.6z
			"/>
		<path class="st15" d="M747.2,409.4h9.9c1.4,0,2.5,1.1,2.5,2.5v12.5c0,1.4-1.1,2.5-2.5,2.5h-9.9c-1.4,0-2.5-1.1-2.5-2.5v-12.5
			C744.8,410.5,745.9,409.4,747.2,409.4z"/>
		<polygon class="st15" points="771.1,409.4 753.5,409.4 744.7,418.1 753.5,426.9 771.1,426.9 779.8,418.1 		"/>
		<path class="st18" d="M751.2,412.9h2.1l4,6.4l0,0v-6.4h2v9.5h-2.1l-4-6.4l0,0v6.4h-2L751.2,412.9z"/>
		<path class="st18" d="M767.4,416.1c-0.2-1-1.1-1.7-2.1-1.7c-1.9,0-2.6,1.6-2.6,3.2s0.7,3.2,2.6,3.2c1.2,0,2.1-0.9,2.2-2.1
			c0,0,0,0,0,0h2c-0.1,2.2-1.9,4-4.1,3.9c0,0-0.1,0-0.1,0c-2.9,0-4.7-2.2-4.7-4.9s1.7-5,4.7-5c2.1-0.1,3.9,1.4,4.1,3.4L767.4,416.1z
			"/>
		<path class="st18" d="M727.9,158.8h-2.1V152h-2.6v-1.6c1.5,0,2.8-0.5,3.1-2.1h1.7L727.9,158.8z"/>
		<path class="st18" d="M733.8,152.5c0.9,0.1,2.2-0.1,2.2-1.3c0-0.8-0.6-1.4-1.3-1.4c0,0,0,0,0,0h-0.1c-1.1,0-1.6,0.8-1.6,1.9h-2
			c-0.1-1.9,1.4-3.5,3.3-3.6c0.1,0,0.2,0,0.3,0c1.7,0,3.5,1,3.5,2.9c0.1,1-0.5,1.9-1.5,2.1l0,0c1.1,0.2,1.9,1.2,1.8,2.4
			c0,2.2-1.8,3.4-3.9,3.4c-2.3,0-3.9-1.4-3.9-3.8h2c0,1.1,0.6,2.1,1.8,2.1c0.9,0.1,1.7-0.6,1.7-1.5c0,0,0,0,0,0v-0.1
			c0-1.6-1.4-1.6-2.4-1.6L733.8,152.5z"/>
		<path class="st18" d="M727.9,182.7h-2.1v-6.8h-2.6v-1.6c1.5,0.1,2.8-0.5,3.1-2.1h1.7L727.9,182.7z"/>
		<path class="st18" d="M737.8,174h-4.3l-0.4,2.4l0,0c0.5-0.5,1.2-0.8,2-0.8c1.8,0,3.3,1.4,3.3,3.2c0,0.1,0,0.2,0,0.3
			c0,2.1-1.7,3.8-3.8,3.8c0,0,0,0,0,0h-0.1c-2,0-3.8-1.1-3.9-3.3h2.1c0,0.9,0.8,1.6,1.7,1.6c1,0,1.9-0.9,1.8-2c0,0,0,0,0,0l0,0
			c0.1-1-0.6-1.9-1.6-2c0,0,0,0,0,0h-0.2c-0.7,0-1.3,0.3-1.6,0.8h-1.9l1-5.8h5.8L737.8,174z"/>
		<path class="st18" d="M633.8,412.7c2.9,0,4.7,2.2,4.7,5s-1.8,5-4.7,5s-4.7-2.2-4.7-5S630.8,412.7,633.8,412.7z M633.8,420.9
			c1.9,0,2.6-1.6,2.6-3.2s-0.7-3.3-2.6-3.3s-2.6,1.6-2.6,3.3S631.9,420.9,633.8,420.9z"/>
		<path class="st18" d="M639.7,415.5h1.8v0.9l0,0c0.4-0.7,1.2-1.1,2-1.1c2.2,0,3.1,1.7,3.1,3.7s-1,3.6-3,3.6c-0.8,0-1.6-0.3-2.1-1
			l0,0v3.3h-1.9L639.7,415.5z M644.8,419c0-1.1-0.5-2.2-1.7-2.2s-1.6,1.1-1.6,2.2s0.4,2.2,1.7,2.2S644.8,420.1,644.8,419L644.8,419z
			"/>
		<path class="st18" d="M650.3,415.5h1.4v1.3h-1.4v3.4c0,0.6,0.2,0.8,0.8,0.8c0.2,0,0.4,0,0.6,0v1.5c-0.4,0-0.7,0.1-1.1,0.1
			c-1.2,0-2.2-0.2-2.2-1.6v-4.1h-1.1v-1.3h1.1v-2.1h1.9L650.3,415.5z"/>
		<path class="st18" d="M654.5,414.4h-1.9v-1.6h1.9V414.4z M652.6,415.5h1.9v6.9h-1.9V415.5z"/>
		<path class="st18" d="M659.4,415.3c2,0,3.7,1.5,3.7,3.6c0,2-1.5,3.7-3.6,3.7c-2,0-3.7-1.5-3.7-3.6c0,0,0,0,0,0
			c-0.2-1.9,1.2-3.5,3.1-3.7C659,415.3,659.2,415.3,659.4,415.3z M659.4,421.2c1.3,0,1.7-1.1,1.7-2.2s-0.4-2.2-1.7-2.2
			s-1.7,1.1-1.7,2.2S658.1,421.2,659.4,421.2L659.4,421.2z"/>
		<path class="st18" d="M664.2,415.5h1.8v1l0,0c0.5-0.7,1.3-1.2,2.1-1.1c2,0,2.5,1.1,2.5,2.8v4.2h-1.9v-3.9c0-1.1-0.3-1.7-1.2-1.7
			s-1.5,0.6-1.5,2v3.6h-1.9L664.2,415.5z"/>
		<path class="st18" d="M672,417.6c0.1-1.8,1.7-2.3,3.2-2.3c1.4,0,3,0.3,3,2v3.6c0,0.5,0,1,0.2,1.5h-1.9c-0.1-0.2-0.1-0.4-0.1-0.7
			c-0.6,0.6-1.5,0.9-2.3,0.9c-1.3,0-2.3-0.6-2.3-2.1c0-3.1,4.7-1.5,4.6-3c0-0.8-0.6-0.9-1.2-0.9s-1.2,0.3-1.2,1L672,417.6z
			 M676.4,419c-0.5,0.2-1,0.4-1.6,0.4c-0.6,0.1-1.1,0.3-1.1,1s0.5,0.9,1.2,0.9c0.8,0.1,1.5-0.5,1.5-1.2c0-0.1,0-0.2,0-0.4L676.4,419
			z"/>
		<path class="st18" d="M679.8,412.9h1.9v9.5h-1.9V412.9z"/>
		<path class="st17" d="M674.9,265.6h9.9c1.4,0,2.5,1.1,2.5,2.5v12.5c0,1.4-1.1,2.5-2.5,2.5h-9.9c-1.4,0-2.5-1.1-2.5-2.5v-12.5
			C672.5,266.7,673.6,265.6,674.9,265.6z"/>
		<path class="st17" d="M638.5,265.6h35.6c4.9,0,8.9,1.1,8.9,2.5v12.5c0,1.4-4,2.5-8.9,2.5h-35.6c-4.9,0-8.9-1.1-8.9-2.5v-12.5
			C629.7,266.7,633.6,265.6,638.5,265.6z"/>
		<polygon class="st17" points="625.9,265.6 643.5,265.6 652.3,274.3 643.5,283 625.9,283 617.2,274.3 		"/>
		<path class="st18" d="M633.8,268.8c2.9,0,4.7,2.2,4.7,5s-1.8,5-4.7,5s-4.7-2.2-4.7-5S630.8,268.8,633.8,268.8z M633.8,277
			c1.9,0,2.6-1.6,2.6-3.2s-0.7-3.3-2.6-3.3s-2.6,1.6-2.6,3.3S631.9,277,633.8,277L633.8,277z"/>
		<path class="st18" d="M639.7,271.7h1.8v0.9l0,0c0.4-0.7,1.2-1.1,2-1.1c2.2,0,3.1,1.8,3.1,3.7s-1,3.6-3,3.6c-0.8,0-1.6-0.3-2.1-1
			l0,0v3.2h-1.9L639.7,271.7z M644.8,275.1c0-1.1-0.5-2.2-1.7-2.2s-1.6,1.1-1.6,2.2s0.4,2.2,1.7,2.2S644.8,276.3,644.8,275.1z"/>
		<path class="st18" d="M650.3,271.7h1.4v1.3h-1.4v3.4c0,0.6,0.2,0.8,0.8,0.8c0.2,0,0.4,0,0.6,0v1.5c-0.4,0-0.7,0.1-1.1,0.1
			c-1.2,0-2.2-0.3-2.2-1.6v-4.1h-1.1v-1.3h1.1v-2.1h1.9L650.3,271.7z"/>
		<path class="st18" d="M654.5,270.6h-1.9V269h1.9V270.6z M652.6,271.7h1.9v6.9h-1.9V271.7z"/>
		<path class="st18" d="M659.4,271.5c2,0,3.7,1.5,3.7,3.6s-1.5,3.7-3.6,3.7c-2,0-3.7-1.5-3.7-3.6c0,0,0-0.1,0-0.1
			c-0.1-1.9,1.3-3.5,3.1-3.6C659.1,271.5,659.2,271.5,659.4,271.5z M659.4,277.3c1.3,0,1.7-1.1,1.7-2.2s-0.4-2.2-1.7-2.2
			s-1.7,1.1-1.7,2.2S658.1,277.3,659.4,277.3z"/>
		<path class="st18" d="M664.2,271.7h1.8v1l0,0c0.5-0.7,1.3-1.2,2.1-1.1c2,0,2.5,1.1,2.5,2.8v4.2h-1.9v-3.9c0-1.1-0.3-1.7-1.2-1.7
			s-1.5,0.6-1.5,2v3.6h-1.9L664.2,271.7z"/>
		<path class="st18" d="M672,273.8c0.1-1.8,1.7-2.3,3.2-2.3c1.4,0,3,0.3,3,2v3.5c0,0.5,0,1.1,0.2,1.5h-1.9c-0.1-0.2-0.1-0.4-0.1-0.7
			c-0.6,0.6-1.5,0.9-2.3,0.9c-1.3,0-2.3-0.6-2.3-2.1c0-3.1,4.7-1.5,4.6-3c0-0.8-0.6-0.9-1.2-0.9s-1.2,0.3-1.2,1L672,273.8z
			 M676.4,275.2c-0.5,0.2-1,0.4-1.6,0.4c-0.6,0.1-1.1,0.3-1.1,1s0.5,0.9,1.2,0.9c0.8,0.1,1.5-0.5,1.5-1.2c0-0.1,0-0.2,0-0.3
			L676.4,275.2z"/>
		<path class="st18" d="M679.8,269h1.9v9.5h-1.9V269z"/>
		<path class="st16" d="M657,48.5h28c1.3,0,2.3,0.6,2.3,1.3v14.7c0,0.7-1,1.3-2.3,1.3h-28"/>
		<polygon class="st16" points="671.6,48.5 654,48.5 645.3,57.2 654,65.9 671.6,65.9 680.3,57.2 		"/>
		<polygon class="st16" points="661.4,48.5 643.9,48.5 635.2,57.2 643.9,65.9 661.4,65.9 670.2,57.2 		"/>
		<g>
			<path class="st18" d="M648.5,55.9c0.8,0.1,2.1-0.1,2.1-1.2c0-0.7-0.6-1.3-1.3-1.3c0,0-0.1,0-0.1,0c-1,0-1.5,0.7-1.5,1.7h-1.9
				c-0.1-1.8,1.3-3.3,3.1-3.4c0.1,0,0.2,0,0.3,0c1.6,0,3.3,1,3.3,2.7c0.1,0.9-0.5,1.7-1.4,2l0,0c1,0.2,1.8,1.2,1.7,2.2
				c0,2-1.7,3.2-3.6,3.2c-1.8,0.2-3.4-1.1-3.6-3c0-0.2,0-0.4,0-0.6h1.9c0,1.1,0.6,1.9,1.7,1.9c0.8,0.1,1.5-0.6,1.6-1.4
				c0,0,0-0.1,0-0.1c0-1.5-1.3-1.5-2.3-1.5V55.9z"/>
			<path class="st18" d="M657.8,61.7h-2.2l-2.5-7.2h2.1l1.5,4.9l0,0l1.5-4.9h2L657.8,61.7z"/>
			<path class="st18" d="M663.5,55.9c0.9,0.1,2.1-0.1,2.1-1.2c0-0.7-0.6-1.3-1.3-1.3c0,0-0.1,0-0.1,0c-1,0-1.5,0.7-1.5,1.7h-1.9
				c-0.1-1.8,1.3-3.3,3.1-3.4c0.1,0,0.2,0,0.3,0c1.6,0,3.3,1,3.3,2.7c0.1,0.9-0.5,1.7-1.4,2l0,0c1,0.2,1.8,1.2,1.7,2.2
				c0,2-1.7,3.2-3.6,3.2c-1.8,0.2-3.4-1.1-3.6-3c0-0.2,0-0.4,0-0.6h1.9c0,1.1,0.6,1.9,1.7,1.9c0.8,0.1,1.5-0.6,1.6-1.4
				c0,0,0-0.1,0-0.1c0-1.5-1.3-1.5-2.3-1.5V55.9z"/>
			<path class="st18" d="M668.1,62.8h7v0.7h-7V62.8z"/>
			<path class="st18" d="M677.5,58.4c0,1.3,1,1.8,2.2,1.8c0.8,0,1.9-0.2,1.9-1.2s-1.5-1.2-3-1.7s-3-1-3-2.8c0-2,1.9-3,3.7-3
				c2.1,0,4,0.9,4,3.2h-2.1c-0.1-1.2-0.9-1.5-2-1.5c-0.7,0-1.5,0.3-1.5,1.1s0.5,0.9,3,1.5c0.7,0.2,3,0.7,3,2.9
				c0,1.8-1.4,3.2-4.2,3.2c-2.2,0-4.3-1.1-4.2-3.5L677.5,58.4z"/>
		</g>
		<path class="st19" d="M674.9,360.9h9.9c1.4,0,2.5,1.1,2.5,2.5v12.5c0,1.4-1.1,2.5-2.5,2.5h-9.9c-1.4,0-2.5-1.1-2.5-2.5v-12.5
			C672.5,362,673.6,360.9,674.9,360.9z"/>
		<path class="st19" d="M642.8,360.9H675c4.4,0,8.1,1.1,8.1,2.5v12.5c0,1.4-3.6,2.5-8.1,2.5h-32.2c-4.4,0-8.1-1.1-8.1-2.5v-12.5
			C634.7,362,638.3,360.9,642.8,360.9z"/>
		<polygon class="st19" points="627.1,361 644.6,361 653.3,369.6 644.6,378.4 627.1,378.4 618.3,369.6 		"/>
		<path class="st16" d="M515.6,110.2h-0.9v-2.8h-1.1v-0.7c0.6,0,1.2-0.2,1.3-0.9h0.7L515.6,110.2z"/>
		<path class="st16" d="M513.4,141.4c-0.1-0.8,0.5-1.6,1.3-1.7c0.1,0,0.2,0,0.3,0c0.8-0.1,1.4,0.5,1.5,1.3c0,0,0,0,0,0.1
			c0,1.3-1.4,1.4-2,2.3h2.1v0.8h-3.2c0-1,0.6-1.4,1.4-1.9c0.4-0.3,0.9-0.5,0.9-1.1c0-0.3-0.2-0.6-0.6-0.7c0,0,0,0-0.1,0
			c-0.5,0-0.7,0.5-0.7,1H513.4z"/>
		<path class="st16" d="M414.4,107.6c0.4,0,0.9,0,0.9-0.5c0-0.3-0.2-0.6-0.6-0.6c0,0,0,0-0.1,0c-0.5,0-0.7,0.3-0.7,0.8h-0.8
			c0-0.8,0.6-1.5,1.4-1.5c0,0,0.1,0,0.1,0c0.7-0.1,1.4,0.5,1.5,1.2c0,0,0,0,0,0c0,0.4-0.2,0.8-0.6,0.9l0,0c0.5,0.1,0.8,0.5,0.8,1
			c-0.1,0.9-0.9,1.5-1.8,1.4c-0.8-0.1-1.4-0.8-1.4-1.6h0.9c0,0.5,0.2,0.9,0.8,0.9c0.4,0,0.7-0.3,0.7-0.6c0,0,0,0,0-0.1
			c0-0.7-0.6-0.7-1-0.7L414.4,107.6z"/>
		<path class="st16" d="M417.5,109.1c0,0.3,0.3,0.5,0.6,0.5c0.6,0,0.8-0.8,0.8-1.3l0,0c-0.2,0.3-0.6,0.5-1,0.5c-0.4,0-0.7-0.2-1-0.4
			c-0.5-0.7-0.4-1.7,0.3-2.2c0.3-0.2,0.6-0.3,0.9-0.3c1.3,0,1.7,1.2,1.7,2.3s-0.5,2.3-1.7,2.3c-0.7,0.1-1.3-0.5-1.4-1.2L417.5,109.1
			z M418.8,107.3c0-0.4-0.3-0.8-0.7-0.8c0,0,0,0,0,0c-0.4,0-0.7,0.4-0.7,0.8c0,0,0,0,0,0c0,0.4,0.2,0.8,0.7,0.8
			C418.5,108.1,418.9,107.8,418.8,107.3C418.8,107.3,418.8,107.3,418.8,107.3z"/>
		<path class="st16" d="M414.9,143.1h-1.9v-0.8l1.9-2.5h0.8v2.6h0.6v0.7h-0.6v1h-0.8V143.1z M414.9,140.8L414.9,140.8l-1.1,1.5h1.1
			L414.9,140.8z"/>
		<path class="st16" d="M418.2,139.6c0.9,0,1.6,0.6,1.6,2.2s-0.7,2.3-1.6,2.3s-1.6-0.6-1.6-2.3S417.3,139.6,418.2,139.6z
			 M418.2,143.4c0.7,0,0.7-1.1,0.7-1.6s0-1.5-0.7-1.5s-0.7,1.1-0.7,1.5S417.5,143.4,418.2,143.4z"/>
		<g>
			<path class="st18" d="M629.9,364.4h4.1c2.5,0,4.3,1.6,4.3,4.7c0,2.8-1.4,4.8-4.3,4.8h-4.1V364.4z M632,372.2h1.9
				c1.2,0,2.4-0.7,2.4-2.9c0-1.9-0.7-3.1-2.7-3.1H632V372.2z"/>
			<path class="st18" d="M644,364.2c2.9,0,4.7,2.2,4.7,5c0,2.7-1.7,4.9-4.7,4.9c-2.9,0-4.7-2.2-4.7-4.9
				C639.4,366.4,641.1,364.2,644,364.2z M644,372.4c1.9,0,2.6-1.6,2.6-3.2c0-1.7-0.7-3.3-2.6-3.3c-1.9,0-2.6,1.6-2.6,3.3
				C641.4,370.8,642.2,372.4,644,372.4z"/>
			<path class="st18" d="M657,364.2c-1,1.9-1.5,4-1.5,6c0,2.1,0.4,4.2,1.4,6.1h-1.6c-1.1-1.8-1.8-3.9-1.8-6c0-2,0.6-4.5,1.8-6.2H657
				z"/>
			<path class="st18" d="M657.8,364.4h2.1v9.5h-2.1V364.4z"/>
			<path class="st18" d="M666,364.2c2.9,0,4.7,2.2,4.7,5c0,2.7-1.7,4.9-4.7,4.9c-2.9,0-4.7-2.2-4.7-4.9
				C661.3,366.4,663.1,364.2,666,364.2z M666,372.4c1.9,0,2.6-1.6,2.6-3.2c0-1.7-0.7-3.3-2.6-3.3c-1.9,0-2.6,1.6-2.6,3.3
				C663.4,370.8,664.1,372.4,666,372.4z"/>
			<path class="st18" d="M675.4,371.8h-3.9V370l4.1-5.4h1.7v5.6h1.2v1.6h-1.2v2.2h-1.8V371.8z M675.4,367L675.4,367l-2.5,3.2h2.5
				V367z"/>
			<path class="st18" d="M678.5,376.4c1-1.9,1.5-3.9,1.5-6c0-2.1-0.4-4.2-1.4-6.1h1.6c1.1,1.8,1.8,3.9,1.8,6c0,2-0.6,4.5-1.8,6.2
				H678.5z"/>
		</g>
	</g>
</g>
</svg>
