<?xml version="1.0" encoding="UTF-8"?><svg id="Layer_2" xmlns="http://www.w3.org/2000/svg" xmlns:xlink="http://www.w3.org/1999/xlink" viewBox="0 0 240.62 159.13"><defs><style>.cls-1{fill:#222630;}.cls-2{fill:#b85c00;}.cls-3{fill:#fff;}.cls-4{fill:#323d49;}.cls-5{opacity:.5;}.cls-6{fill:#b2b2b2;}.cls-7{fill:#333;}.cls-8{clip-path:url(#clippath-1);}.cls-9{fill:#eaf4fc;}.cls-10{fill:#242424;}.cls-11{fill:#deab51;}.cls-12{fill:#013a5b;}.cls-13{clip-path:url(#clippath);}.cls-14{fill:none;}.cls-15{fill:#00cd01;}.cls-16{fill:#7f7f7f;}.cls-17{fill:#d2d2d2;}.cls-18{fill:#be8e3f;}.cls-19{fill:#ec2024;}</style><clipPath id="clippath"><rect class="cls-14" x="73.52" y="44.18" width="25.75" height="70.03"/></clipPath><clipPath id="clippath-1"><rect class="cls-14" x="73.52" y="44.18" width="25.75" height="70.03"/></clipPath></defs><g id="RAK12034"><g><g><rect class="cls-16" x="185.38" y="0" width="14.35" height="159.12"/><rect class="cls-16" x="167.45" y="0" width="14.35" height="159.12"/><rect class="cls-7" x="159.1" y="0" width="8.33" height="9.8" rx="1.39" ry="1.39"/><rect class="cls-7" x="169.09" y="0" width="12.53" height="9.8" rx="1.19" ry="1.19"/><rect class="cls-6" x="169.09" y="13.42" width="12.53" height="9.8" rx="1.19" ry="1.19"/><rect class="cls-6" x="169.09" y="27.24" width="12.53" height="9.8" rx="1.19" ry="1.19"/><rect class="cls-2" x="169.09" y="41.06" width="12.53" height="9.8" rx="1.19" ry="1.19"/><rect class="cls-15" x="169.09" y="54.28" width="12.53" height="9.8" rx="1.19" ry="1.19"/><rect class="cls-15" x="169.09" y="67.5" width="12.53" height="9.8" rx="1.19" ry="1.19"/><rect class="cls-6" x="169.09" y="81.16" width="12.53" height="9.8" rx="1.19" ry="1.19"/><rect class="cls-12" x="169.09" y="94.58" width="12.53" height="9.8" rx="1.19" ry="1.19"/><rect class="cls-2" x="169.09" y="108.12" width="12.53" height="9.8" rx="1.19" ry="1.19"/><rect class="cls-6" x="169.09" y="121.84" width="12.53" height="9.8" rx="1.19" ry="1.19"/><rect class="cls-6" x="169.09" y="136.01" width="12.53" height="9.8" rx="1.19" ry="1.19"/><rect class="cls-6" x="169.09" y="149.31" width="12.53" height="9.8" rx="1.19" ry="1.19"/><rect class="cls-6" x="185.38" y="0" width="12.53" height="9.8" rx="1.19" ry="1.19"/><rect class="cls-6" x="185.38" y="13.42" width="12.53" height="9.8" rx="1.19" ry="1.19"/><rect class="cls-6" x="185.38" y="27.24" width="12.53" height="9.8" rx="1.19" ry="1.19"/><rect class="cls-2" x="185.38" y="41.06" width="12.53" height="9.8" rx="1.19" ry="1.19"/><rect class="cls-12" x="185.38" y="54.28" width="12.53" height="9.8" rx="1.19" ry="1.19"/><rect class="cls-6" x="185.38" y="67.5" width="12.53" height="9.8" rx="1.19" ry="1.19"/><rect class="cls-15" x="185.38" y="81.16" width="12.53" height="9.8" rx="1.19" ry="1.19"/><rect class="cls-15" x="185.38" y="94.58" width="12.53" height="9.8" rx="1.19" ry="1.19"/><rect class="cls-2" x="185.38" y="108.12" width="12.53" height="9.8" rx="1.19" ry="1.19"/><rect class="cls-6" x="185.38" y="121.84" width="12.53" height="9.8" rx="1.19" ry="1.19"/><rect class="cls-6" x="185.38" y="136.01" width="12.53" height="9.8" rx="1.19" ry="1.19"/><rect class="cls-7" x="185.38" y="149.31" width="12.53" height="9.8" rx="1.19" ry="1.19"/><path class="cls-3" d="M173.24,4.91c-.04-1.2,.64-2.12,1.9-2.12,.96,0,1.8,.62,1.8,1.64,0,1.59-1.69,1.71-2.45,2.79h2.48v.92h-3.85c0-1.22,.75-1.72,1.65-2.34,.46-.32,1.1-.64,1.1-1.28,.03-.41-.28-.78-.7-.81-.03,0-.06,0-.09,0-.63,0-.83,.65-.83,1.21h-1.02Z"/><path class="cls-3" d="M192.8,8.14h-1.19v-3.82h-1.48v-.91c.83,.02,1.59-.27,1.72-1.17h.95v5.89Z"/><path class="cls-3" d="M191.42,18.05c.51,.04,1.25-.06,1.25-.73,0-.43-.35-.78-.78-.77-.02,0-.04,0-.06,0-.61,0-.92,.44-.91,1.05h-1.14c.04-1.21,.82-2.03,2.04-2.03,.94,0,1.97,.58,1.97,1.63,.04,.54-.3,1.03-.82,1.2v.02c.63,.13,1.07,.7,1.04,1.34,0,1.24-1.04,1.93-2.19,1.93-1.32,0-2.21-.79-2.19-2.14h1.14c.03,.64,.35,1.15,1.03,1.15,.5,.03,.93-.35,.96-.85,0-.02,0-.05,0-.07,0-.89-.78-.87-1.36-.87v-.84Z"/><path class="cls-3" d="M193.71,30.47h-2.43l-.23,1.34,.02,.02c.3-.31,.72-.48,1.15-.46,1.15,0,1.82,.9,1.82,2,0,1.18-.96,2.13-2.14,2.12h-.04c-1.15,0-2.16-.63-2.19-1.87h1.2c.03,.51,.46,.9,.97,.88,.62,0,1.02-.55,1.02-1.14s-.38-1.1-1.02-1.1c-.36-.03-.71,.15-.9,.46h-1.08l.58-3.24h3.29v.98Z"/><path class="cls-3" d="M190.92,60.5c.05,.4,.39,.71,.79,.73,.87,0,1.08-1.15,1.13-1.79l-.02-.02c-.29,.44-.8,.69-1.33,.65-.51,0-1-.23-1.35-.6-.3-.37-.47-.83-.46-1.31,0-1.2,.82-2.15,2.07-2.15,1.78,0,2.26,1.55,2.26,3.04s-.64,3.08-2.3,3.08c-1.02,0-1.78-.59-1.91-1.63h1.12Zm1.81-2.41c0-.55-.35-1.09-.95-1.09s-.9,.54-.9,1.08,.29,1.11,.9,1.11,.95-.51,.95-1.09Z"/><g><path class="cls-3" d="M190.47,75.43h-1.19v-3.82h-1.48v-.9c.83,.03,1.59-.27,1.72-1.17h.95v5.89Z"/><path class="cls-3" d="M195.14,75.43h-1.19v-3.82h-1.48v-.9c.83,.03,1.59-.27,1.72-1.17h.95v5.89Z"/></g><g><path class="cls-3" d="M190.47,116.28h-1.19v-3.82h-1.48v-.9c.83,.03,1.59-.27,1.72-1.17h.95v5.89Z"/><path class="cls-3" d="M196.18,111.42c-1.23,1.08-1.9,3.29-1.92,4.86h-1.28c.15-1.76,.84-3.42,1.98-4.77h-2.78v-1.11h4.01v1.03Z"/></g><g><path class="cls-3" d="M190.47,129.98h-1.19v-3.82h-1.48v-.9c.83,.03,1.59-.27,1.72-1.17h.95v5.88Z"/><path class="cls-3" d="M193.26,128.47c.05,.4,.38,.71,.79,.73,.87,0,1.08-1.15,1.13-1.79l-.02-.02c-.29,.44-.8,.69-1.33,.66-.52,0-1.01-.23-1.35-.61-.3-.37-.47-.83-.46-1.31,0-1.2,.82-2.15,2.06-2.15,1.78,0,2.26,1.56,2.26,3.05s-.64,3.08-2.3,3.08c-1.02,0-1.77-.59-1.91-1.63h1.13Zm1.81-2.41c0-.55-.34-1.09-.95-1.09s-.9,.54-.9,1.08,.29,1.11,.9,1.11,.95-.51,.95-1.09h0Z"/></g><g><path class="cls-3" d="M187.48,140.39c-.04-1.35,.72-2.38,2.14-2.38,1.08,0,2.02,.69,2.02,1.84,0,1.78-1.89,1.93-2.75,3.13h2.78v1.03h-4.32c0-1.38,.84-1.93,1.86-2.63,.51-.36,1.24-.71,1.24-1.44,.03-.47-.31-.87-.78-.91-.03,0-.07,0-.1,0-.7,0-.93,.73-.93,1.35h-1.14Z"/><path class="cls-3" d="M195.14,144.01h-1.19v-3.82h-1.48v-.9c.83,.03,1.59-.27,1.72-1.17h.95v5.89Z"/></g><g><path class="cls-3" d="M187.48,153.86c-.04-1.35,.72-2.38,2.14-2.38,1.08,0,2.02,.69,2.02,1.84,0,1.78-1.89,1.92-2.75,3.13h2.78v1.03h-4.32c0-1.37,.84-1.93,1.86-2.63,.51-.36,1.24-.71,1.24-1.44,.03-.47-.31-.87-.78-.91-.03,0-.07,0-.1,0-.7,0-.93,.73-.93,1.35h-1.14Z"/><path class="cls-3" d="M193.76,153.98c.51,.04,1.25-.06,1.25-.73,0-.43-.34-.78-.77-.79-.02,0-.04,0-.06,0-.61,0-.92,.45-.91,1.05h-1.14c.04-1.21,.82-2.04,2.03-2.04,.94,0,1.98,.58,1.98,1.63,.04,.54-.3,1.04-.82,1.2v.02c.63,.13,1.07,.69,1.04,1.34,0,1.24-1.04,1.93-2.19,1.93-1.32,0-2.21-.79-2.19-2.14h1.14c.03,.64,.35,1.15,1.03,1.15,.5,.03,.93-.35,.96-.85,0-.02,0-.05,0-.07,0-.89-.78-.88-1.36-.88v-.84Z"/></g><path class="cls-3" d="M175.3,20.34h-2.22v-.97l2.28-3.05h.95v3.15h.69v.88h-.69v1.21h-1.01v-1.22Zm0-2.7h-.02l-1.35,1.82h1.38v-1.82Z"/><rect class="cls-7" x="199.78" y="149.31" width="8.33" height="9.8" rx="1.39" ry="1.39"/><g><path class="cls-3" d="M173.81,75.43h-1.06v-3.4h-1.32v-.8c.74,.02,1.42-.23,1.54-1.04h.85v5.24Z"/><path class="cls-3" d="M175.32,72.2c-.04-1.2,.64-2.12,1.9-2.12,.96,0,1.8,.62,1.8,1.64,0,1.59-1.69,1.72-2.45,2.79h2.48v.92h-3.85c0-1.22,.75-1.72,1.66-2.34,.46-.32,1.1-.64,1.1-1.28,.03-.41-.28-.78-.7-.81-.03,0-.06,0-.09,0-.63,0-.83,.65-.83,1.2h-1.02Z"/></g><g><path class="cls-3" d="M173.81,102.71h-1.06v-3.4h-1.32v-.8c.74,.02,1.42-.23,1.54-1.04h.85v5.24Z"/><path class="cls-3" d="M177.95,98.82c-.05-.36-.34-.63-.7-.65-.76,0-.98,1.02-1,1.59l.02,.02c.26-.39,.71-.62,1.18-.59,.46,0,.89,.2,1.2,.54,.27,.33,.41,.74,.41,1.17,0,1.07-.74,1.92-1.84,1.92-1.59,0-2.02-1.38-2.02-2.71s.57-2.74,2.07-2.74c.91,0,1.58,.52,1.7,1.45h-1.02Zm-1.61,2.15c0,.49,.31,.97,.85,.97s.8-.48,.8-.96-.25-.99-.8-.99-.84,.46-.84,.97h0Z"/></g><g><path class="cls-3" d="M173.81,116.28h-1.06v-3.4h-1.32v-.8c.74,.02,1.42-.23,1.54-1.04h.85v5.24Z"/><path class="cls-3" d="M177.13,110.94c1.3,0,1.75,.9,1.75,1.41,.03,.5-.29,.95-.76,1.1v.02c.6,.12,1.03,.67,.98,1.28,0,1.11-.98,1.65-1.96,1.65s-1.99-.51-1.99-1.64c-.04-.62,.38-1.16,.99-1.29v-.02c-.48-.13-.8-.58-.77-1.08,0-.94,.91-1.43,1.77-1.43Zm0,4.65c.48,.02,.88-.35,.9-.82,0-.02,0-.04,0-.06,0-.47-.38-.84-.85-.84-.02,0-.03,0-.05,0-.52,0-.92,.29-.92,.83,0,.49,.38,.89,.87,.9,.02,0,.04,0,.06,0h0Zm0-2.44c.44,0,.79-.23,.79-.69,0-.27-.13-.73-.79-.73-.4-.04-.76,.25-.8,.66,0,.02,0,.05,0,.07,0,.45,.37,.69,.8,.69h0Z"/></g><g><path class="cls-3" d="M171.15,140.78c-.04-1.2,.64-2.12,1.9-2.12,.96,0,1.8,.62,1.8,1.64,0,1.59-1.68,1.72-2.45,2.79h2.48v.92h-3.85c0-1.22,.75-1.72,1.65-2.34,.46-.32,1.1-.64,1.1-1.28,.03-.41-.28-.78-.7-.81-.03,0-.06,0-.09,0-.63,0-.83,.65-.83,1.2h-1.02Z"/><path class="cls-3" d="M175.32,140.78c-.04-1.2,.64-2.12,1.9-2.12,.96,0,1.8,.62,1.8,1.64,0,1.59-1.69,1.72-2.45,2.79h2.48v.92h-3.85c0-1.22,.75-1.72,1.66-2.34,.46-.32,1.1-.64,1.1-1.28,.03-.41-.28-.78-.7-.81-.03,0-.06,0-.09,0-.63,0-.83,.65-.83,1.2h-1.02Z"/></g><path class="cls-3" d="M175.86,31.48c-.05-.36-.34-.63-.7-.65-.76,0-.98,1.02-1,1.59v.02c.28-.39,.73-.62,1.2-.59,.46,0,.89,.2,1.2,.54,.27,.33,.41,.74,.41,1.17,0,1.07-.74,1.92-1.84,1.92-1.59,0-2.01-1.38-2.01-2.71s.57-2.74,2.06-2.74c.91,0,1.58,.52,1.7,1.45h-1Zm-1.61,2.15c0,.49,.31,.97,.85,.97s.8-.48,.8-.96-.25-.99-.8-.99-.84,.46-.84,.97h0Z"/><polygon class="cls-7" points="160.31 0 148.92 0 143.23 4.91 148.92 9.8 160.31 9.8 166.01 4.91 160.31 0"/><g><path class="cls-3" d="M152.04,6.69c-.34,.47-.89,.74-1.47,.73-1.65,0-2.63-1.23-2.63-2.78s.98-2.82,2.63-2.82c1.09,0,2.14,.67,2.26,1.89h-1.13c-.09-.54-.58-.93-1.13-.9-1.05,0-1.45,.9-1.45,1.84,0,.89,.4,1.79,1.45,1.79,.77,0,1.21-.41,1.27-1.15h-1.18v-.88h2.25v2.88h-.75l-.12-.61Z"/><path class="cls-3" d="M153.86,1.95h1.17l2.23,3.59h.01V1.95h1.1V7.3h-1.17l-2.23-3.58h-.01v3.58h-1.1V1.95Z"/><path class="cls-3" d="M159.41,1.95h2.3c1.38,0,2.43,.88,2.43,2.64,0,1.55-.79,2.7-2.43,2.7h-2.3V1.95Zm1.17,4.36h1.05c.69,0,1.33-.42,1.33-1.61,0-1.08-.38-1.77-1.54-1.77h-.84v3.38Z"/></g><polygon class="cls-7" points="206.98 149.31 218.37 149.31 224.07 154.21 218.37 159.11 206.98 159.11 201.28 154.21 206.98 149.31"/><g><path class="cls-3" d="M207.09,156c-.34,.46-.89,.74-1.46,.73-1.65,0-2.63-1.23-2.63-2.78s.98-2.82,2.63-2.82c1.09,0,2.14,.67,2.26,1.89h-1.12c-.1-.54-.58-.93-1.13-.9-1.06,0-1.45,.9-1.45,1.84,0,.89,.4,1.79,1.45,1.79,.77,0,1.2-.41,1.27-1.15h-1.18v-.88h2.25v2.89h-.75l-.12-.62Z"/><path class="cls-3" d="M208.91,151.26h1.17l2.23,3.59h.02v-3.59h1.1v5.35h-1.18l-2.22-3.58h-.02v3.58h-1.1v-5.35Z"/><path class="cls-3" d="M214.46,151.26h2.3c1.38,0,2.43,.88,2.43,2.64,0,1.55-.79,2.7-2.43,2.7h-2.3v-5.35Zm1.18,4.36h1.05c.69,0,1.33-.42,1.33-1.61,0-1.08-.38-1.77-1.54-1.77h-.84v3.38Z"/></g><path class="cls-3" d="M175.05,43.5c1.3,0,1.75,.9,1.75,1.41,.03,.5-.29,.95-.76,1.1v.03c.6,.12,1.02,.67,.98,1.28,0,1.11-.98,1.65-1.96,1.65s-1.99-.51-1.99-1.64c-.04-.62,.38-1.16,.99-1.29v-.02c-.48-.13-.8-.58-.77-1.08,0-.96,.91-1.44,1.77-1.44Zm0,4.65c.48,.02,.88-.35,.9-.82,0-.02,0-.04,0-.06,0-.47-.39-.84-.86-.84h-.04c-.52,0-.92,.29-.92,.83,0,.49,.39,.89,.88,.89,.02,0,.03,0,.05,0h0Zm0-2.43c.44,0,.79-.23,.79-.69,0-.27-.13-.73-.79-.73-.4-.04-.76,.25-.8,.66,0,.02,0,.05,0,.07,0,.45,.37,.69,.8,.69h0Z"/><rect class="cls-6" x="199.79" y="0" width="8.33" height="9.8" rx="1.39" ry="1.39"/><g><path class="cls-3" d="M173.81,62.01h-1.06v-3.4h-1.32v-.8c.74,.02,1.42-.23,1.54-1.04h.85v5.24Z"/><path class="cls-3" d="M177.12,56.67c1.05,0,1.93,.66,1.93,2.7s-.88,2.75-1.93,2.75-1.92-.66-1.92-2.75c0-2.05,.88-2.7,1.92-2.7Zm0,4.58c.87,0,.87-1.28,.87-1.87,0-.55,0-1.83-.87-1.83s-.85,1.28-.85,1.83c0,.59,0,1.87,.85,1.87Z"/></g><g><path class="cls-3" d="M173.81,89.25h-1.06v-3.4h-1.32v-.8c.74,.02,1.42-.23,1.54-1.04h.85v5.24Z"/><path class="cls-3" d="M177.38,88.03h-2.22v-.97l2.28-3.06h.95v3.15h.69v.88h-.69v1.21h-1.01v-1.21Zm0-2.69h-.02l-1.36,1.82h1.38v-1.82Z"/></g><g><path class="cls-3" d="M171.15,126.75c-.04-1.2,.64-2.12,1.9-2.12,.96,0,1.8,.61,1.8,1.64,0,1.59-1.68,1.71-2.45,2.79h2.48v.92h-3.85c0-1.22,.75-1.72,1.65-2.34,.46-.32,1.1-.64,1.1-1.28,.03-.41-.28-.78-.7-.81-.03,0-.06,0-.09,0-.63,0-.83,.65-.83,1.21h-1.02Z"/><path class="cls-3" d="M177.12,124.63c1.05,0,1.93,.66,1.93,2.7s-.88,2.75-1.93,2.75-1.92-.66-1.92-2.75c0-2.04,.88-2.7,1.92-2.7Zm0,4.57c.87,0,.87-1.28,.87-1.87,0-.55,0-1.83-.87-1.83s-.85,1.28-.85,1.83c0,.59,0,1.87,.85,1.87Z"/></g><g><path class="cls-3" d="M171.15,154.2c-.04-1.2,.64-2.12,1.9-2.12,.96,0,1.8,.62,1.8,1.64,0,1.59-1.68,1.72-2.45,2.79h2.48v.92h-3.85c0-1.22,.75-1.72,1.66-2.34,.46-.32,1.1-.64,1.1-1.28,.03-.41-.28-.78-.69-.81-.03,0-.06,0-.09,0-.63,0-.83,.65-.83,1.2h-1.02Z"/><path class="cls-3" d="M177.38,156.22h-2.22v-.97l2.28-3.05h.95v3.15h.69v.88h-.69v1.21h-1.01v-1.21Zm0-2.69h-.02l-1.35,1.82h1.38v-1.82Z"/></g><path class="cls-3" d="M193.85,43.98c-1.24,1.08-1.9,3.29-1.93,4.86h-1.27c.15-1.76,.84-3.43,1.98-4.78h-2.8v-1.11h4.02v1.03Z"/><polygon class="cls-6" points="214.5 0 204.64 0 199.71 4.91 204.64 9.81 214.5 9.81 219.43 4.91 214.5 0"/><g><path class="cls-3" d="M202.93,1.95h1.17l2.23,3.59h.02V1.95h1.1V7.3h-1.18l-2.23-3.58h-.01v3.58h-1.1V1.95Z"/><path class="cls-3" d="M212.05,3.75c-.11-.55-.6-.95-1.17-.94-1.06,0-1.45,.9-1.45,1.84,0,.89,.4,1.79,1.45,1.79,.72,0,1.12-.49,1.21-1.2h1.15c-.12,1.34-1.03,2.19-2.35,2.19-1.65,0-2.63-1.23-2.63-2.78s.98-2.82,2.63-2.82c1.17,0,2.16,.69,2.3,1.93h-1.15Z"/></g><rect class="cls-6" x="199.79" y="13.42" width="8.33" height="9.8" rx="1.39" ry="1.39"/><polygon class="cls-6" points="214.5 13.42 204.64 13.42 199.71 18.32 204.64 23.22 214.5 23.22 219.43 18.32 214.5 13.42"/><g><path class="cls-3" d="M202.93,15.36h1.17l2.23,3.59h.02v-3.59h1.1v5.35h-1.18l-2.23-3.58h-.01v3.58h-1.1v-5.35Z"/><path class="cls-3" d="M212.05,17.16c-.11-.55-.6-.95-1.17-.94-1.06,0-1.45,.9-1.45,1.84,0,.89,.4,1.79,1.45,1.79,.72,0,1.12-.49,1.21-1.2h1.15c-.12,1.34-1.03,2.19-2.35,2.19-1.65,0-2.63-1.23-2.63-2.78s.98-2.82,2.63-2.82c1.17,0,2.16,.69,2.3,1.93h-1.15Z"/></g><rect class="cls-6" x="199.79" y="27.24" width="8.33" height="9.8" rx="1.39" ry="1.39"/><polygon class="cls-6" points="214.5 27.24 204.64 27.24 199.71 32.15 204.64 37.04 214.5 37.04 219.43 32.15 214.5 27.24"/><g><path class="cls-3" d="M202.93,29.19h1.17l2.23,3.59h.02v-3.59h1.1v5.35h-1.18l-2.23-3.58h-.01v3.58h-1.1v-5.35Z"/><path class="cls-3" d="M212.05,30.99c-.11-.55-.6-.95-1.17-.94-1.06,0-1.45,.9-1.45,1.84,0,.89,.4,1.79,1.45,1.79,.72,0,1.12-.49,1.21-1.2h1.15c-.12,1.34-1.03,2.19-2.35,2.19-1.65,0-2.63-1.24-2.63-2.78s.98-2.82,2.63-2.82c1.17,0,2.16,.69,2.3,1.93h-1.15Z"/></g><rect class="cls-6" x="159.09" y="27.24" width="8.33" height="9.8" rx="1.39" ry="1.39"/><polygon class="cls-6" points="152.64 27.24 162.5 27.24 167.44 32.15 162.5 37.05 152.64 37.05 147.71 32.15 152.64 27.24"/><g><path class="cls-3" d="M154.15,29.19h1.17l2.23,3.59h.01v-3.59h1.1v5.35h-1.18l-2.23-3.58h-.02v3.58h-1.1v-5.35Z"/><path class="cls-3" d="M163.27,30.99c-.11-.55-.6-.95-1.17-.94-1.05,0-1.45,.9-1.45,1.84,0,.89,.4,1.79,1.45,1.79,.72,0,1.12-.49,1.21-1.2h1.14c-.12,1.34-1.03,2.19-2.35,2.19-1.65,0-2.63-1.23-2.63-2.78s.98-2.82,2.63-2.82c1.17,0,2.17,.69,2.3,1.93h-1.14Z"/></g><rect class="cls-6" x="159.09" y="13.62" width="8.33" height="9.8" rx="1.39" ry="1.39"/><polygon class="cls-6" points="152.64 13.63 162.5 13.63 167.44 18.53 162.5 23.43 152.64 23.43 147.71 18.53 152.64 13.63"/><g><path class="cls-3" d="M154.15,15.57h1.17l2.23,3.59h.01v-3.59h1.1v5.35h-1.18l-2.23-3.58h-.02v3.58h-1.1v-5.35Z"/><path class="cls-3" d="M163.27,17.37c-.11-.56-.61-.95-1.17-.94-1.05,0-1.45,.9-1.45,1.84,0,.89,.4,1.79,1.45,1.79,.72,0,1.12-.49,1.21-1.2h1.14c-.12,1.34-1.03,2.19-2.35,2.19-1.65,0-2.63-1.23-2.63-2.78s.98-2.82,2.63-2.82c1.17,0,2.17,.69,2.3,1.93h-1.13Z"/></g><rect class="cls-6" x="159.1" y="80.83" width="8.33" height="9.8" rx="1.39" ry="1.39"/><polygon class="cls-6" points="152.66 80.83 162.51 80.83 167.45 85.74 162.51 90.63 152.66 90.63 147.73 85.74 152.66 80.83"/><g><path class="cls-3" d="M154.16,82.78h1.17l2.23,3.59h.01v-3.59h1.1v5.35h-1.17l-2.23-3.58h-.01v3.58h-1.1v-5.35Z"/><path class="cls-3" d="M163.28,84.57c-.11-.55-.61-.95-1.17-.94-1.05,0-1.45,.9-1.45,1.84,0,.89,.4,1.79,1.45,1.79,.72,0,1.12-.49,1.21-1.2h1.14c-.12,1.34-1.03,2.19-2.35,2.19-1.65,0-2.63-1.24-2.63-2.78s.98-2.82,2.63-2.82c1.17,0,2.17,.69,2.3,1.92h-1.13Z"/></g><rect class="cls-6" x="159.1" y="121.84" width="8.33" height="9.8" rx="1.39" ry="1.39"/><polygon class="cls-6" points="152.66 121.84 162.51 121.84 167.45 126.75 162.51 131.65 152.66 131.65 147.73 126.75 152.66 121.84"/><g><path class="cls-3" d="M154.16,123.79h1.17l2.23,3.59h.01v-3.59h1.1v5.35h-1.17l-2.23-3.58h-.01v3.58h-1.1v-5.35Z"/><path class="cls-3" d="M163.28,125.59c-.11-.55-.6-.95-1.17-.94-1.05,0-1.45,.9-1.45,1.84,0,.89,.4,1.79,1.45,1.79,.72,0,1.12-.49,1.21-1.2h1.14c-.12,1.34-1.03,2.19-2.35,2.19-1.65,0-2.63-1.23-2.63-2.78s.98-2.82,2.63-2.82c1.17,0,2.17,.69,2.3,1.93h-1.13Z"/></g><rect class="cls-6" x="159.1" y="135.8" width="8.33" height="9.8" rx="1.39" ry="1.39"/><polygon class="cls-6" points="152.66 135.8 162.51 135.8 167.45 140.71 162.51 145.6 152.66 145.6 147.73 140.71 152.66 135.8"/><g><path class="cls-3" d="M154.16,137.75h1.17l2.23,3.59h.01v-3.59h1.1v5.35h-1.17l-2.23-3.58h-.01v3.58h-1.1v-5.35Z"/><path class="cls-3" d="M163.28,139.55c-.11-.55-.6-.95-1.17-.94-1.05,0-1.45,.9-1.45,1.84,0,.89,.4,1.79,1.45,1.79,.72,0,1.12-.49,1.21-1.2h1.14c-.12,1.34-1.03,2.19-2.35,2.19-1.65,0-2.63-1.23-2.63-2.78s.98-2.82,2.63-2.82c1.17,0,2.17,.69,2.3,1.93h-1.13Z"/></g><rect class="cls-6" x="159.1" y="149.31" width="8.33" height="9.8" rx="1.39" ry="1.39"/><polygon class="cls-6" points="152.66 149.31 162.51 149.31 167.45 154.21 162.51 159.11 152.66 159.11 147.73 154.21 152.66 149.31"/><g><path class="cls-3" d="M154.16,151.26h1.17l2.23,3.59h.01v-3.59h1.1v5.35h-1.17l-2.23-3.58h-.01v3.58h-1.1v-5.35Z"/><path class="cls-3" d="M163.28,153.05c-.11-.55-.6-.95-1.17-.94-1.05,0-1.45,.9-1.45,1.84,0,.89,.4,1.79,1.45,1.79,.72,0,1.12-.49,1.21-1.2h1.14c-.12,1.34-1.03,2.19-2.35,2.19-1.65,0-2.63-1.23-2.63-2.78s.98-2.82,2.63-2.82c1.17,0,2.17,.69,2.3,1.93h-1.13Z"/></g><polygon class="cls-6" points="214.5 67.7 204.64 67.7 199.71 72.61 204.64 77.5 214.5 77.5 219.43 72.61 214.5 67.7"/><rect class="cls-6" x="199.78" y="67.73" width="8.33" height="9.8" rx="1.39" ry="1.39"/><g><path class="cls-3" d="M202.93,69.65h1.17l2.23,3.59h.02v-3.59h1.1v5.35h-1.18l-2.23-3.58h-.01v3.58h-1.1v-5.35Z"/><path class="cls-3" d="M212.05,71.44c-.11-.55-.6-.95-1.17-.94-1.06,0-1.45,.9-1.45,1.84,0,.89,.4,1.79,1.45,1.79,.72,0,1.12-.49,1.21-1.2h1.15c-.12,1.34-1.03,2.19-2.35,2.19-1.65,0-2.63-1.23-2.63-2.78s.98-2.82,2.63-2.82c1.17,0,2.16,.69,2.3,1.93h-1.15Z"/></g><rect class="cls-6" x="199.78" y="121.83" width="8.33" height="9.8" rx="1.39" ry="1.39"/><polygon class="cls-6" points="214.5 121.85 204.64 121.85 199.71 126.76 204.64 131.66 214.5 131.66 219.43 126.76 214.5 121.85"/><g><path class="cls-3" d="M202.93,123.8h1.17l2.23,3.59h.02v-3.59h1.1v5.35h-1.18l-2.23-3.58h-.01v3.58h-1.1v-5.35Z"/><path class="cls-3" d="M212.05,125.6c-.11-.55-.6-.95-1.17-.94-1.06,0-1.45,.9-1.45,1.84,0,.89,.4,1.79,1.45,1.79,.72,0,1.12-.49,1.21-1.2h1.15c-.12,1.34-1.03,2.19-2.35,2.19-1.65,0-2.63-1.24-2.63-2.78s.98-2.82,2.63-2.82c1.17,0,2.16,.69,2.3,1.93h-1.15Z"/></g><rect class="cls-6" x="199.78" y="136" width="8.33" height="9.8" rx="1.39" ry="1.39"/><polygon class="cls-6" points="214.5 136.03 204.64 136.03 199.71 140.93 204.64 145.83 214.5 145.83 219.43 140.93 214.5 136.03"/><g><path class="cls-3" d="M202.93,137.97h1.17l2.23,3.59h.02v-3.59h1.1v5.35h-1.18l-2.23-3.58h-.01v3.58h-1.1v-5.35Z"/><path class="cls-3" d="M212.05,139.78c-.11-.55-.6-.95-1.17-.94-1.06,0-1.45,.9-1.45,1.84,0,.89,.4,1.79,1.45,1.79,.72,0,1.12-.49,1.21-1.2h1.15c-.12,1.34-1.03,2.19-2.35,2.19-1.65,0-2.63-1.23-2.63-2.78s.98-2.82,2.63-2.82c1.17,0,2.16,.69,2.3,1.93h-1.15Z"/></g><g><path class="cls-3" d="M190.47,89.25h-1.19v-3.82h-1.48v-.9c.83,.03,1.59-.27,1.72-1.17h.95v5.89Z"/><path class="cls-3" d="M193.76,85.74c.51,.04,1.25-.06,1.25-.73,0-.43-.34-.78-.77-.79-.02,0-.04,0-.06,0-.61,0-.92,.45-.91,1.05h-1.14c.04-1.21,.82-2.03,2.03-2.03,.94,0,1.98,.58,1.98,1.63,.04,.54-.3,1.04-.82,1.2v.02c.63,.13,1.07,.7,1.04,1.34,0,1.23-1.04,1.93-2.19,1.93-1.32,0-2.21-.79-2.19-2.14h1.14c.03,.64,.35,1.15,1.03,1.15,.5,.03,.93-.35,.96-.85,0-.02,0-.05,0-.07,0-.89-.78-.88-1.36-.88v-.84Z"/></g><g><path class="cls-3" d="M190.47,102.71h-1.19v-3.82h-1.48v-.9c.83,.03,1.59-.27,1.72-1.17h.95v5.89Z"/><path class="cls-3" d="M196.05,97.81h-2.43l-.23,1.34,.02,.02c.3-.31,.72-.48,1.15-.46,1.15,0,1.82,.9,1.82,2,0,1.18-.96,2.12-2.14,2.12h-.05c-1.15,0-2.16-.63-2.19-1.87h1.19c.03,.51,.46,.9,.97,.88,.62,0,1.02-.55,1.02-1.13s-.38-1.1-1.02-1.1c-.36-.03-.71,.15-.9,.46h-1.08l.58-3.25h3.29v1Z"/></g><rect class="cls-2" x="159.1" y="108.19" width="8.33" height="9.8" rx="1.39" ry="1.39"/><path class="cls-2" d="M136.35,108.19h23.3c3.21,0,5.81,.62,5.81,1.39v7.03c0,.77-2.6,1.39-5.81,1.39h-23.3c-3.21,0-5.81-.62-5.81-1.39v-7.03c0-.77,2.6-1.39,5.81-1.39Z"/><polygon class="cls-2" points="131.54 108.19 141.4 108.19 146.33 113.09 141.4 117.99 131.54 117.99 126.61 113.09 131.54 108.19"/><g><path class="cls-3" d="M133.64,110.15h1.2v5.44h-1.2v-5.44Z"/><path class="cls-3" d="M135.64,112.31c-.04-1.22,.65-2.16,1.93-2.16,.97,0,1.83,.62,1.83,1.67,0,1.61-1.71,1.74-2.49,2.84h2.52v.93h-3.91c0-1.24,.76-1.75,1.68-2.38,.46-.33,1.12-.65,1.12-1.3,0-.51-.33-.82-.8-.82-.64,0-.85,.66-.85,1.23h-1.04Z"/><path class="cls-3" d="M143.74,111.98c-.08-.54-.6-.95-1.19-.95-1.07,0-1.48,.91-1.48,1.87s.4,1.82,1.48,1.82c.73,0,1.14-.49,1.23-1.22h1.16c-.12,1.36-1.05,2.22-2.39,2.22-1.68,0-2.67-1.26-2.67-2.83s1-2.87,2.67-2.87c1.19,0,2.2,.7,2.35,1.96h-1.16Z"/><path class="cls-3" d="M145.23,116.16h3.81v.38h-3.81v-.38Z"/><path class="cls-3" d="M150.37,113.79c0,.72,.56,1,1.2,1,.42,0,1.06-.12,1.06-.68,0-.59-.82-.68-1.61-.9-.81-.2-1.62-.54-1.62-1.54,0-1.12,1.05-1.65,2.03-1.65,1.13,0,2.18,.5,2.18,1.75h-1.16c-.04-.65-.5-.82-1.07-.82-.38,0-.82,.16-.82,.62,0,.42,.26,.48,1.62,.82,.4,.09,1.61,.36,1.61,1.58,0,1-.78,1.74-2.26,1.74-1.2,0-2.34-.59-2.31-1.93h1.16Z"/><path class="cls-3" d="M158.12,111.98c-.08-.54-.6-.95-1.19-.95-1.07,0-1.48,.91-1.48,1.87s.4,1.82,1.48,1.82c.73,0,1.14-.49,1.23-1.22h1.16c-.12,1.36-1.05,2.22-2.39,2.22-1.68,0-2.67-1.26-2.67-2.83s1-2.87,2.67-2.87c1.19,0,2.2,.7,2.35,1.96h-1.16Z"/><path class="cls-3" d="M160.13,110.15h1.2v4.43h2.65v1h-3.85v-5.44Z"/></g><rect class="cls-2" x="199.79" y="108.19" width="8.33" height="9.8" rx="1.39" ry="1.39"/><path class="cls-2" d="M230.88,117.99h-23.3c-3.21,0-5.81-.62-5.81-1.39v-7.03c0-.77,2.6-1.39,5.81-1.39h23.3c3.21,0,5.81,.62,5.81,1.39v7.03c0,.77-2.6,1.39-5.81,1.39Z"/><polygon class="cls-2" points="235.69 117.99 225.83 117.99 220.9 113.08 225.83 108.19 235.69 108.19 240.62 113.08 235.69 117.99"/><g><path class="cls-3" d="M202.84,110.15h1.2v5.44h-1.2v-5.44Z"/><path class="cls-3" d="M204.84,112.31c-.04-1.22,.65-2.16,1.93-2.16,.97,0,1.83,.62,1.83,1.67,0,1.61-1.71,1.74-2.49,2.84h2.52v.93h-3.91c0-1.24,.76-1.75,1.68-2.38,.46-.33,1.12-.65,1.12-1.3,0-.51-.33-.82-.8-.82-.64,0-.85,.66-.85,1.23h-1.04Z"/><path class="cls-3" d="M212.93,111.98c-.08-.54-.6-.95-1.19-.95-1.07,0-1.48,.91-1.48,1.87s.4,1.82,1.48,1.82c.73,0,1.14-.49,1.23-1.22h1.16c-.12,1.36-1.05,2.22-2.39,2.22-1.68,0-2.67-1.26-2.67-2.83s1-2.87,2.67-2.87c1.19,0,2.2,.7,2.35,1.96h-1.16Z"/><path class="cls-3" d="M214.42,116.16h3.81v.38h-3.81v-.38Z"/><path class="cls-3" d="M219.57,113.79c0,.72,.56,1,1.2,1,.42,0,1.06-.12,1.06-.68,0-.59-.82-.68-1.61-.9-.81-.2-1.62-.54-1.62-1.54,0-1.12,1.05-1.65,2.03-1.65,1.13,0,2.18,.5,2.18,1.75h-1.16c-.04-.65-.5-.82-1.07-.82-.38,0-.82,.16-.82,.62,0,.42,.26,.48,1.62,.82,.4,.09,1.61,.36,1.61,1.58,0,1-.78,1.74-2.26,1.74-1.2,0-2.34-.59-2.31-1.93h1.16Z"/><path class="cls-3" d="M223.69,110.15h2.35c1.41,0,2.47,.89,2.47,2.69,0,1.58-.81,2.75-2.47,2.75h-2.35v-5.44Zm1.2,4.43h1.07c.69,0,1.36-.43,1.36-1.63,0-1.1-.39-1.8-1.57-1.8h-.85v3.43Z"/><path class="cls-3" d="M230.81,110.15h1.23l2.03,5.44h-1.24l-.41-1.21h-2.03l-.43,1.21h-1.21l2.06-5.44Zm-.11,3.33h1.41l-.69-2h-.02l-.71,2Z"/></g><rect class="cls-2" x="159.1" y="40.87" width="8.33" height="9.8" rx="1.39" ry="1.39"/><path class="cls-2" d="M136.35,40.87h23.3c3.21,0,5.81,.62,5.81,1.39v7.03c0,.77-2.6,1.39-5.81,1.39h-23.3c-3.21,0-5.81-.62-5.81-1.39v-7.03c0-.77,2.6-1.39,5.81-1.39Z"/><polygon class="cls-2" points="127.54 40.87 137.4 40.87 142.33 45.78 137.4 50.68 127.54 50.68 122.61 45.78 127.54 40.87"/><g><path class="cls-3" d="M132.64,42.84h1.2v5.44h-1.2v-5.44Z"/><path class="cls-3" d="M134.64,44.99c-.04-1.22,.65-2.16,1.93-2.16,.97,0,1.83,.62,1.83,1.67,0,1.61-1.71,1.74-2.49,2.84h2.52v.93h-3.91c0-1.24,.76-1.75,1.68-2.38,.46-.33,1.12-.65,1.12-1.3,0-.51-.33-.82-.8-.82-.64,0-.85,.66-.85,1.23h-1.04Z"/><path class="cls-3" d="M142.74,44.67c-.08-.54-.6-.95-1.19-.95-1.07,0-1.48,.91-1.48,1.87s.4,1.82,1.48,1.82c.73,0,1.14-.49,1.23-1.22h1.16c-.12,1.36-1.05,2.22-2.39,2.22-1.68,0-2.67-1.26-2.67-2.83s1-2.87,2.67-2.87c1.19,0,2.2,.7,2.35,1.96h-1.16Z"/><path class="cls-3" d="M144.23,48.85h3.81v.38h-3.81v-.38Z"/><path class="cls-3" d="M149.37,46.47c0,.72,.56,1,1.2,1,.42,0,1.06-.12,1.06-.68,0-.59-.82-.68-1.61-.9-.81-.2-1.62-.54-1.62-1.54,0-1.12,1.05-1.65,2.03-1.65,1.13,0,2.18,.5,2.18,1.75h-1.16c-.04-.65-.5-.82-1.07-.82-.38,0-.82,.16-.82,.62,0,.42,.26,.48,1.62,.82,.4,.09,1.61,.36,1.61,1.58,0,1-.78,1.74-2.26,1.74-1.2,0-2.34-.59-2.31-1.93h1.16Z"/><path class="cls-3" d="M153.49,42.84h2.35c1.41,0,2.47,.89,2.47,2.69,0,1.58-.81,2.75-2.47,2.75h-2.35v-5.44Zm1.2,4.43h1.07c.69,0,1.36-.43,1.36-1.63,0-1.1-.39-1.8-1.57-1.8h-.85v3.43Z"/><path class="cls-3" d="M160.61,42.84h1.23l2.03,5.44h-1.24l-.41-1.21h-2.03l-.43,1.21h-1.21l2.06-5.44Zm-.11,3.33h1.41l-.69-2h-.02l-.71,2Z"/></g><rect class="cls-2" x="199.79" y="40.87" width="8.33" height="9.8" rx="1.39" ry="1.39"/><path class="cls-2" d="M230.88,50.68h-23.3c-3.21,0-5.81-.62-5.81-1.39v-7.03c0-.77,2.6-1.39,5.81-1.39h23.3c3.21,0,5.81,.62,5.81,1.39v7.03c0,.77-2.6,1.39-5.81,1.39Z"/><polygon class="cls-2" points="235.69 50.67 225.83 50.67 220.9 45.77 225.83 40.87 235.69 40.87 240.62 45.77 235.69 50.67"/><g><path class="cls-3" d="M202.84,42.84h1.2v5.44h-1.2v-5.44Z"/><path class="cls-3" d="M204.84,44.99c-.04-1.22,.65-2.16,1.93-2.16,.97,0,1.83,.62,1.83,1.67,0,1.61-1.71,1.74-2.49,2.84h2.52v.93h-3.91c0-1.24,.76-1.75,1.68-2.38,.46-.33,1.12-.65,1.12-1.3,0-.51-.33-.82-.8-.82-.64,0-.85,.66-.85,1.23h-1.04Z"/><path class="cls-3" d="M212.93,44.67c-.08-.54-.6-.95-1.19-.95-1.07,0-1.48,.91-1.48,1.87s.4,1.82,1.48,1.82c.73,0,1.14-.49,1.23-1.22h1.16c-.12,1.36-1.05,2.22-2.39,2.22-1.68,0-2.67-1.26-2.67-2.83s1-2.87,2.67-2.87c1.19,0,2.2,.7,2.35,1.96h-1.16Z"/><path class="cls-3" d="M214.42,48.85h3.81v.38h-3.81v-.38Z"/><path class="cls-3" d="M219.57,46.47c0,.72,.56,1,1.2,1,.42,0,1.06-.12,1.06-.68,0-.59-.82-.68-1.61-.9-.81-.2-1.62-.54-1.62-1.54,0-1.12,1.05-1.65,2.03-1.65,1.13,0,2.18,.5,2.18,1.75h-1.16c-.04-.65-.5-.82-1.07-.82-.38,0-.82,.16-.82,.62,0,.42,.26,.48,1.62,.82,.4,.09,1.61,.36,1.61,1.58,0,1-.78,1.74-2.26,1.74-1.2,0-2.34-.59-2.31-1.93h1.16Z"/><path class="cls-3" d="M227.31,44.67c-.08-.54-.6-.95-1.19-.95-1.07,0-1.48,.91-1.48,1.87s.4,1.82,1.48,1.82c.73,0,1.14-.49,1.23-1.22h1.16c-.12,1.36-1.05,2.22-2.39,2.22-1.68,0-2.67-1.26-2.67-2.83s1-2.87,2.67-2.87c1.19,0,2.2,.7,2.35,1.96h-1.16Z"/><path class="cls-3" d="M229.33,42.84h1.2v4.43h2.65v1h-3.85v-5.44Z"/></g><rect class="cls-12" x="159.1" y="94.89" width="8.33" height="9.8" rx="1.39" ry="1.39"/><rect class="cls-12" x="150.23" y="94.89" width="15.23" height="9.8"/><polygon class="cls-12" points="151.42 94.89 140.03 94.89 134.33 99.8 140.03 104.69 151.42 104.69 157.12 99.8 151.42 94.89"/><g><path class="cls-3" d="M143.78,102.57h-1.35l-1.77-5.44h1.23l1.21,3.82h.02l1.23-3.82h1.23l-1.8,5.44Z"/><path class="cls-3" d="M149.67,98.96c-.08-.54-.6-.95-1.19-.95-1.07,0-1.48,.91-1.48,1.87s.4,1.82,1.48,1.82c.73,0,1.14-.49,1.23-1.22h1.16c-.12,1.36-1.05,2.22-2.39,2.22-1.68,0-2.67-1.26-2.67-2.83s1-2.87,2.67-2.87c1.19,0,2.2,.7,2.35,1.96h-1.16Z"/><path class="cls-3" d="M155.3,98.96c-.08-.54-.6-.95-1.19-.95-1.07,0-1.48,.91-1.48,1.87s.4,1.82,1.48,1.82c.73,0,1.14-.49,1.23-1.22h1.16c-.12,1.36-1.05,2.22-2.39,2.22-1.67,0-2.67-1.26-2.67-2.83s1-2.87,2.67-2.87c1.19,0,2.2,.7,2.35,1.96h-1.16Z"/><path class="cls-3" d="M156.79,103.14h3.81v.38h-3.81v-.38Z"/><path class="cls-3" d="M163.58,102.57h-1.08v-3.46h-1.34v-.81c.75,.02,1.44-.24,1.56-1.06h.86v5.33Z"/></g><rect class="cls-12" x="199.99" y="54.17" width="8.33" height="9.8" rx="1.39" ry="1.39"/><rect class="cls-12" x="202.45" y="54.17" width="15.07" height="9.8"/><polygon class="cls-12" points="216.79 63.97 228.18 63.97 233.88 59.06 228.18 54.17 216.79 54.17 211.09 59.06 216.79 63.97"/><g><path class="cls-3" d="M206,61.85h-1.35l-1.77-5.44h1.23l1.21,3.82h.02l1.23-3.82h1.23l-1.8,5.44Z"/><path class="cls-3" d="M211.89,58.24c-.08-.54-.6-.95-1.19-.95-1.07,0-1.48,.91-1.48,1.87s.4,1.82,1.48,1.82c.73,0,1.14-.49,1.23-1.22h1.16c-.12,1.36-1.05,2.22-2.39,2.22-1.68,0-2.67-1.26-2.67-2.83s1-2.87,2.67-2.87c1.19,0,2.2,.7,2.35,1.96h-1.16Z"/><path class="cls-3" d="M217.52,58.24c-.08-.54-.6-.95-1.19-.95-1.07,0-1.48,.91-1.48,1.87s.4,1.82,1.48,1.82c.73,0,1.14-.49,1.23-1.22h1.16c-.12,1.36-1.05,2.22-2.39,2.22-1.67,0-2.67-1.26-2.67-2.83s1-2.87,2.67-2.87c1.19,0,2.2,.7,2.35,1.96h-1.16Z"/><path class="cls-3" d="M219.01,62.42h3.81v.38h-3.81v-.38Z"/><path class="cls-3" d="M225.8,61.85h-1.08v-3.46h-1.34v-.81c.75,.02,1.44-.24,1.56-1.06h.86v5.33Z"/></g><polygon class="cls-15" points="208.08 86.44 212.57 91.34 221.54 91.34 226.03 86.44 221.54 81.53 212.57 81.53 208.08 86.44"/><rect class="cls-15" x="199.71" y="81.54" width="8.33" height="9.8" rx="1.39" ry="1.39"/><polygon class="cls-15" points="199.71 83.54 202.44 81.53 215.8 81.53 222.48 86.44 215.8 91.34 202.44 91.34 199.71 89.33 199.71 83.54"/><g><path class="cls-3" d="M203.47,83.73h1.2v5.44h-1.2v-5.44Z"/><path class="cls-3" d="M205.71,83.73h1.19l2.27,3.65h.02v-3.65h1.12v5.44h-1.2l-2.26-3.64h-.02v3.64h-1.12v-5.44Z"/><path class="cls-3" d="M212.55,84.74h-1.63v-1h4.45v1h-1.63v4.43h-1.2v-4.43Z"/><path class="cls-3" d="M218.46,89.17h-1.08v-3.46h-1.34v-.81c.75,.02,1.44-.24,1.56-1.06h.86v5.33Z"/></g><polygon class="cls-15" points="208.08 99.49 212.57 104.38 221.54 104.38 226.03 99.49 221.54 94.58 212.57 94.58 208.08 99.49"/><rect class="cls-15" x="199.71" y="94.58" width="8.33" height="9.8" rx="1.39" ry="1.39"/><polygon class="cls-15" points="199.71 96.59 202.44 94.58 215.8 94.58 222.48 99.49 215.8 104.38 202.44 104.38 199.71 102.38 199.71 96.59"/><g><path class="cls-3" d="M203.47,96.78h1.2v5.44h-1.2v-5.44Z"/><path class="cls-3" d="M205.71,96.78h1.19l2.27,3.65h.02v-3.65h1.12v5.44h-1.2l-2.26-3.64h-.02v3.64h-1.12v-5.44Z"/><path class="cls-3" d="M212.55,97.79h-1.63v-1h4.45v1h-1.63v4.43h-1.2v-4.43Z"/><path class="cls-3" d="M215.76,98.94c-.04-1.22,.65-2.16,1.93-2.16,.97,0,1.83,.62,1.83,1.67,0,1.61-1.71,1.74-2.49,2.84h2.52v.93h-3.91c0-1.24,.76-1.75,1.68-2.38,.46-.33,1.12-.65,1.12-1.3,0-.51-.33-.82-.8-.82-.64,0-.85,.66-.85,1.23h-1.04Z"/></g><polygon class="cls-15" points="161.94 72.69 157.46 67.79 148.48 67.79 143.99 72.69 148.48 77.6 157.46 77.6 161.94 72.69"/><rect class="cls-15" x="159.09" y="67.79" width="8.33" height="9.8" rx="1.39" ry="1.39"/><polygon class="cls-15" points="167.42 75.59 164.69 77.6 151.33 77.6 144.65 72.69 151.33 67.79 164.69 67.79 167.42 69.8 167.42 75.59"/><g><path class="cls-3" d="M149.19,69.87h1.2v5.44h-1.2v-5.44Z"/><path class="cls-3" d="M151.43,69.87h1.19l2.27,3.65h.02v-3.65h1.12v5.44h-1.2l-2.26-3.64h-.02v3.64h-1.12v-5.44Z"/><path class="cls-3" d="M158.27,70.87h-1.63v-1h4.45v1h-1.63v4.43h-1.2v-4.43Z"/><path class="cls-3" d="M164.18,75.31h-1.08v-3.46h-1.34v-.81c.75,.02,1.44-.24,1.56-1.06h.86v5.33Z"/></g><polygon class="cls-15" points="160.49 59.39 156.01 54.49 147.03 54.49 142.54 59.39 147.03 64.3 156.01 64.3 160.49 59.39"/><rect class="cls-15" x="159.09" y="54.49" width="8.33" height="9.8" rx="1.39" ry="1.39"/><polygon class="cls-15" points="167.42 62.29 164.69 64.3 151.33 64.3 144.65 59.39 151.33 54.49 164.69 54.49 167.42 56.5 167.42 62.29"/><g><path class="cls-3" d="M148.47,56.57h1.2v5.44h-1.2v-5.44Z"/><path class="cls-3" d="M150.72,56.57h1.19l2.27,3.65h.02v-3.65h1.12v5.44h-1.2l-2.26-3.64h-.02v3.64h-1.12v-5.44Z"/><path class="cls-3" d="M157.56,57.57h-1.63v-1h4.45v1h-1.63v4.43h-1.2v-4.43Z"/><path class="cls-3" d="M160.76,58.72c-.04-1.22,.65-2.16,1.93-2.16,.97,0,1.83,.62,1.83,1.67,0,1.61-1.71,1.74-2.49,2.84h2.52v.93h-3.91c0-1.24,.76-1.75,1.68-2.38,.46-.33,1.12-.65,1.12-1.3,0-.51-.33-.82-.8-.82-.64,0-.85,.66-.85,1.23h-1.04Z"/></g></g><g class="cls-5"><path class="cls-10" d="M104.56,26.85H0v25.22H6.1c4.8,0,8.7,4.03,8.7,8.99,0,4.97-3.89,8.99-8.7,8.99H0v62.23H104.56V26.85Z"/><path class="cls-11" d="M19.93,61.03v-.96c0-7.65-6-13.85-13.39-13.85H0v5.86H6.1c4.8,0,8.7,4.03,8.7,8.99,0,4.97-3.89,8.99-8.7,8.99H0v4.82H6.53c7.4,0,13.39-6.2,13.39-13.85"/></g><g><path class="cls-17" d="M103.26,103.81c0-.38-.31-.07-.43,.03l-3.18,2.8c-.14,.13-.14,.33,0,.45l3.18,2.8c.12,.1,.43,.33,.43,.03v-6.11Z"/><path class="cls-17" d="M98.25,116.84h-23.14c-.13,0-.24-.11-.24-.24v-10.18c0-.13,.11-.24,.24-.24s.24,.11,.24,.24v9.94h22.66v-9.94c0-.13,.11-.24,.24-.24s.24,.11,.24,.24v10.18c0,.13-.11,.24-.24,.24Z"/><path class="cls-17" d="M98.25,51.89c-.13,0-.24-.11-.24-.24v-9.94h-22.66v9.94c0,.13-.11,.24-.24,.24s-.24-.11-.24-.24v-10.18c0-.13,.11-.24,.24-.24h23.14c.13,0,.24,.11,.24,.24v10.18c0,.13-.11,.24-.24,.24Z"/><g><path class="cls-17" d="M47.82,36.25h1.93c.12,.41,.47,.78,1.16,.78,.46,0,.82-.14,1.07-.47,.29-.35,.45-.9,.47-1.64h-.02c-.42,.46-.99,.81-1.84,.81-1.66,0-3.01-1.15-3.01-2.92s1.4-2.94,3.33-2.94c1.02,0,1.9,.34,2.48,.93,.74,.71,1.08,1.81,1.08,3.31,0,1.28-.27,2.44-.86,3.21-.59,.76-1.45,1.17-2.65,1.17-1.78,0-2.91-.92-3.13-2.24Zm4.59-3.44c0-.83-.61-1.43-1.47-1.43s-1.45,.61-1.45,1.42,.55,1.43,1.45,1.43c.84,0,1.47-.59,1.47-1.42Z"/><path class="cls-17" d="M57.19,34.43h3.28v1.69h-3.28v-1.69Z"/><path class="cls-17" d="M65.62,29.68h2.19l3.11,8.62h-2.24l-.51-1.56h-3.01l-.49,1.56h-2.15l3.1-8.62Zm2.06,5.53l-.65-2.09c-.14-.45-.34-1.22-.34-1.22h-.02s-.21,.77-.35,1.22l-.66,2.09h2.03Z"/><path class="cls-17" d="M75.1,35.05l-1.94-2.93h2.24l.92,1.59h.02l.87-1.59h2.06l-1.83,2.91,2.1,3.27h-2.28l-1.01-1.84h-.02l-1.12,1.84h-2.15l2.15-3.24Z"/><path class="cls-17" d="M82.02,29.68h1.96v1.59h-1.96v-1.59Zm0,2.45h1.96v6.17h-1.96v-6.17Z"/><path class="cls-17" d="M86.49,36.3h1.86c.07,.61,.48,.92,1.13,.92,.59,0,.96-.22,.96-.61,0-.55-.75-.61-1.57-.76-1.07-.18-2.22-.47-2.22-1.92,0-1.3,1.21-1.98,2.66-1.98,1.75,0,2.69,.76,2.78,1.98h-1.81c-.07-.55-.45-.72-.99-.72-.48,0-.86,.18-.86,.57,0,.43,.7,.49,1.48,.64,1.08,.18,2.36,.46,2.36,2.04,0,1.35-1.19,2.05-2.81,2.05-1.81,0-2.94-.83-3-2.19Z"/></g><g><polygon class="cls-17" points="66.69 88.25 62.87 88.25 62.87 84.66 66.69 84.66 66.69 74.04 62.87 74.04 62.87 70.49 66.69 70.49 66.69 60.94 62.87 60.94 62.87 57.16 42.82 57.16 42.82 101.39 62.87 101.39 62.87 98.03 66.69 98.03 66.69 88.25"/><path class="cls-17" d="M35.64,40.23v1.9l-8.29,1.97h0l8.29,2.17v1.97l-8.29,2.09h0l8.29,2.01v1.94l-10.84-2.79v-1.94l8.29-2.17h0l-8.29-2.21v-1.97l10.84-2.98Z"/><path class="cls-17" d="M35.64,55.37v1.7h-1.63v-1.7h1.63Zm-2.98,0v1.7h-7.74v-1.7h7.74Z"/><path class="cls-17" d="M27.32,60.29c-1.01,0-1.36,.85-1.36,1.78s0,1.82,1.05,1.74,1.01-1.28,1.32-2.56c.31-1.28,.7-2.52,2.28-2.52s2.28,1.86,2.28,3.29-.66,3.06-2.44,3.25v-1.78c.85,0,1.05-.81,1.05-1.59s0-1.43-.81-1.43-.97,1.28-1.24,2.56c-.27,1.28-.74,2.52-2.28,2.52s-2.56-1.86-2.56-3.48,.89-3.45,2.71-3.48v1.7Z"/><path class="cls-17" d="M35.64,66.99v5.11c0,2.09-.66,3.48-2.67,3.48-.99,.02-1.89-.56-2.28-1.47-.32,1.24-1.47,2.07-2.75,1.97-2.17,0-3.14-1.86-3.14-3.87v-5.23h10.84Zm-4.38,2.4v2.4c0,.85,.39,1.47,1.28,1.47s1.28-.77,1.28-1.63v-2.25h-2.56Zm-4.61,0v2.56c0,.93,.31,1.74,1.43,1.74s1.55-.66,1.55-1.7v-2.59h-2.98Z"/><path class="cls-17" d="M35.64,77.67v2.4h-9.02v5.27h-2.01v-7.74l11.03,.08Z"/><path class="cls-17" d="M35.91,91.53c.03,2.91-2.3,5.29-5.21,5.32-.17,0-.35,0-.52-.02-2.94,.25-5.53-1.93-5.78-4.87-.25-2.94,1.93-5.53,4.87-5.78,.3-.03,.61-.03,.91,0,2.9-.26,5.45,1.88,5.71,4.78,.02,.19,.02,.38,.02,.56Zm-9.37,0c0,2.13,1.82,2.94,3.64,2.94s3.87-.81,3.87-2.94-1.82-2.94-3.87-2.94-3.56,.77-3.56,2.94h-.08Z"/><path class="cls-17" d="M32,105.7c1.12-.22,1.92-1.22,1.9-2.36,0-2.13-1.82-2.94-3.87-2.94s-3.64,.81-3.64,2.94c0,1.35,1.09,2.46,2.44,2.48v2.28c-2.5-.06-4.48-2.14-4.42-4.64,0-.04,0-.08,0-.12-.13-2.86,2.09-5.28,4.96-5.41,.27-.01,.54,0,.81,.03,2.9-.26,5.45,1.88,5.71,4.78,.02,.17,.02,.35,.02,.52,.16,2.34-1.54,4.4-3.87,4.68l-.04-2.25Z"/><path class="cls-17" d="M35.64,109.58v2.36h-4.49l4.49,4.26v2.98l-4.26-4.26-6.58,4.65v-2.98l4.88-3.14-1.36-1.39h-3.52v-2.48h10.84Z"/></g></g><g id="slot-male-connector"><g class="cls-13"><g class="cls-8"><g><path class="cls-9" d="M77.07,47.65v-.91c.02-.83,.69-1.48,1.52-1.48h15.93c.82,0,1.48,.66,1.48,1.48v.91c.02,.82-.63,1.5-1.45,1.52-.01,0-.02,0-.04,0h-15.93c-.84,0-1.52-.68-1.52-1.52h0"/><path class="cls-9" d="M77.07,111.2v-.91c0-.84,.68-1.52,1.52-1.52h15.93c.82,0,1.48,.66,1.49,1.48,0,.01,0,.02,0,.04v.91c0,.82-.66,1.48-1.48,1.48h-15.93c-.83,0-1.5-.66-1.52-1.48"/><path class="cls-4" d="M91.01,114.21h1.59c.84,0,1.52-.68,1.52-1.52h0v-3.08c0-.62-.37-1.18-.94-1.41V50.12c.57-.22,.94-.77,.94-1.38v-3.04c0-.84-.68-1.52-1.52-1.52h-1.52c-.67,0-1.26,.44-1.45,1.09h-6.08c-.19-.63-.76-1.07-1.41-1.09h-1.56c-.84,0-1.52,.68-1.52,1.52h0v3.11c.05,.6,.45,1.11,1.01,1.3v57.94c-.61,.2-1.02,.77-1.01,1.41v3.08c0,.84,.68,1.52,1.52,1.52h1.56c.61,0,1.15-.38,1.38-.94h6.08c.24,.57,.79,.94,1.41,.94"/><path class="cls-1" d="M81.46,106.64V51.82c-.02-.42,.3-.78,.72-.8,.01,0,.02,0,.04,0h8.4c.44,0,.8,.36,.8,.8v54.82c-.02,.43-.37,.76-.8,.76h-8.4c-.42,0-.76-.34-.76-.76"/><path class="cls-9" d="M99.27,56.74v-1.74c.02-.24-.16-.45-.4-.47-.01,0-.03,0-.04,0h-1.56c-.23,.02-.42,.2-.43,.43h-4.24v1.77h4.24c-.08,.25,.06,.51,.3,.59,.04,.01,.09,.02,.13,.02h1.56c.24,0,.44-.19,.44-.43,0-.01,0-.03,0-.04"/><path class="cls-18" d="M91.23,56.53v-2.28c-.06-.21,.06-.43,.27-.49,.04-.01,.08-.02,.12-.01h.98c.22,0,.4,.18,.4,.4h0v2.28c0,.2-.16,.36-.36,.36-.01,0-.03,0-.04,0h-1.09c-.2,.02-.38-.13-.4-.32,0-.01,0-.03,0-.04"/><path class="cls-9" d="M73.56,56.74v-1.74c0-.26,.21-.47,.47-.47h1.52c.24,0,.43,.19,.43,.43h4.09v1.77h-4.09c.1,.22,0,.48-.21,.58-.07,.03-.15,.05-.22,.04h-1.52c-.26,0-.47-.21-.47-.47h0"/><path class="cls-18" d="M81.74,56.53v-2.28c0-.21-.16-.38-.36-.4h-1.12c-.2,0-.36,.16-.36,.36,0,.01,0,.03,0,.04v2.28c-.02,.18,.11,.34,.29,.36,.03,0,.05,0,.08,0h.98c.2,0,.36-.16,.36-.36"/><path class="cls-9" d="M99.27,60.98v-1.77c.02-.24-.16-.45-.4-.47-.01,0-.03,0-.04,0h-1.56c-.25,.02-.44,.22-.43,.47h-4.24v1.77h4.24c.02,.23,.2,.42,.43,.43h1.56c.24,0,.43-.19,.43-.43"/><path class="cls-18" d="M91.23,60.73v-2.28c0-.2,.16-.36,.36-.36,.01,0,.03,0,.04,0h.98c.2-.02,.38,.13,.4,.32,0,.01,0,.03,0,.04v2.28c-.05,.17-.22,.28-.4,.25h-1.09c-.2,.02-.38-.13-.4-.32,0-.01,0-.03,0-.04"/><path class="cls-9" d="M73.56,60.98v-1.77c0-.26,.21-.47,.47-.47h1.52c.24,0,.44,.19,.44,.43,0,.01,0,.03,0,.04h4.09v1.77h-4.09c0,.24-.19,.43-.43,.43h-1.52c-.25,0-.45-.19-.47-.43"/><path class="cls-18" d="M81.74,60.73v-2.28c0-.2-.16-.36-.36-.36h-1.12c-.18-.02-.34,.11-.36,.29,0,.03,0,.05,0,.08v2.28c-.02,.18,.11,.34,.29,.36,.03,0,.05,0,.08,0h.98c.2,0,.36-.16,.36-.36h0"/><path class="cls-9" d="M99.27,65.4v-1.74c0-.24-.19-.43-.43-.43h-1.56c-.24,0-.43,.19-.43,.43h-4.24v1.77h4.24c.02,.23,.2,.42,.43,.43h1.56c.24,0,.44-.19,.44-.43,0-.01,0-.03,0-.04"/><path class="cls-18" d="M91.23,65.18v-2.28c0-.2,.16-.36,.36-.36,.01,0,.03,0,.04,0h.98c.2-.02,.38,.13,.4,.32,0,.01,0,.03,0,.04v2.28c0,.2-.16,.36-.36,.36-.01,0-.03,0-.04,0h-1.09c-.2,.02-.38-.13-.4-.32,0-.01,0-.03,0-.04"/><path class="cls-9" d="M73.56,65.4v-1.74c0-.24,.19-.44,.43-.44,.01,0,.03,0,.04,0h1.52c.24,0,.43,.19,.43,.43h4.09v1.77h-4.09c0,.24-.19,.43-.43,.43h-1.52c-.26,0-.47-.21-.47-.47h0"/><path class="cls-18" d="M81.74,65.18v-2.28c0-.2-.16-.36-.36-.36h-1.12c-.18-.02-.34,.11-.36,.29,0,.03,0,.05,0,.08v2.28c-.02,.18,.11,.34,.29,.36,.03,0,.05,0,.08,0h.98c.2,0,.36-.16,.36-.36h0"/><path class="cls-9" d="M99.27,69.74v-1.52c.02-.24-.16-.45-.4-.47-.01,0-.03,0-.04,0h-1.56c-.24,0-.43,.19-.43,.43h-4.24v1.77h4.24c0,.24,.19,.43,.43,.43h1.56c.24,0,.44-.19,.44-.43,0-.01,0-.03,0-.04"/><path class="cls-18" d="M91.23,69.56v-2.32c.02-.21,.19-.36,.4-.36h.98c.21,0,.38,.16,.4,.36v2.32c-.02,.21-.19,.36-.4,.36h-1.09c-.21,0-.38-.16-.4-.36"/><path class="cls-9" d="M73.56,69.74v-1.52c0-.26,.21-.47,.47-.47h1.52c.24,0,.43,.19,.43,.43h4.09v1.77h-4.09c0,.24-.19,.43-.43,.43h-1.52c-.26,0-.47-.21-.47-.47h0"/><path class="cls-18" d="M81.74,69.56v-2.32c-.02-.19-.17-.35-.36-.36h-1.12c-.2,0-.36,.16-.36,.36h0v2.32c0,.2,.16,.36,.36,.36h.98c.19-.02,.35-.17,.36-.36"/><path class="cls-9" d="M99.27,74.01v-1.74c.02-.24-.16-.45-.4-.47-.01,0-.03,0-.04,0h-1.56c-.24,0-.43,.19-.43,.43h-4.24v1.77h4.24c0,.24,.19,.43,.43,.43h1.56c.24,0,.43-.19,.43-.43"/><path class="cls-18" d="M91.23,73.8v-2.32c.02-.21,.19-.36,.4-.36h.98c.21,0,.38,.16,.4,.36v2.32c-.02,.21-.19,.36-.4,.36h-1.09c-.21,0-.38-.16-.4-.36"/><path class="cls-9" d="M73.56,74.01v-1.74c.02-.25,.22-.44,.47-.43h1.52c.24,0,.43,.19,.43,.43h4.09v1.77h-4.09c0,.24-.19,.43-.43,.43h-1.52c-.24,.02-.45-.16-.47-.4,0-.01,0-.03,0-.04"/><path class="cls-18" d="M81.74,73.8v-2.32c-.02-.19-.17-.35-.36-.36h-1.12c-.2,0-.36,.16-.36,.36h0v2.32c0,.2,.16,.36,.36,.36h.98c.19-.02,.35-.17,.36-.36"/><path class="cls-9" d="M99.27,78.22v-1.74c.02-.24-.16-.45-.4-.47-.01,0-.03,0-.04,0h-1.56c-.23,.02-.42,.2-.43,.43h-4.24v1.77h4.24c0,.25,.19,.45,.43,.47h1.56c.24,0,.44-.19,.44-.43,0-.01,0-.03,0-.04"/><path class="cls-18" d="M91.23,78v-2.28c.06-.16,.22-.27,.4-.25h.98c.22,0,.4,.18,.4,.4v2.28c0,.2-.16,.36-.36,.36-.01,0-.03,0-.04,0h-1.09c-.2,.02-.38-.13-.4-.32,0-.01,0-.03,0-.04"/><path class="cls-9" d="M73.56,78.22v-1.74c0-.26,.21-.47,.47-.47h1.52c.24,0,.43,.19,.43,.43h4.09v1.77h-4.09c.02,.24-.16,.45-.4,.47-.01,0-.03,0-.04,0h-1.52c-.26,0-.47-.21-.47-.47h0"/><path class="cls-18" d="M81.74,78v-2.28c0-.21-.16-.38-.36-.4h-1.12c-.2,0-.36,.16-.36,.36,0,.01,0,.03,0,.04v2.28c-.02,.18,.11,.34,.29,.36,.03,0,.05,0,.08,0h.98c.2,0,.36-.16,.36-.36h0"/><path class="cls-9" d="M99.27,82.45v-1.7c.02-.24-.16-.45-.4-.47-.01,0-.03,0-.04,0h-1.56c-.24,0-.43,.19-.43,.43h-4.24v1.77h4.24c0,.24,.19,.43,.43,.43h1.56c.24,0,.44-.19,.44-.43,0-.01,0-.03,0-.04"/><path class="cls-18" d="M91.23,82.23v-2.28c0-.2,.16-.36,.36-.36,.01,0,.03,0,.04,0h.98c.2-.02,.38,.13,.4,.32,0,.01,0,.03,0,.04v2.28c.04,.22-.1,.42-.32,.46-.03,0-.05,0-.08,0h-1.09c-.22,0-.4-.18-.4-.4"/><path class="cls-9" d="M73.56,82.45v-1.7c0-.26,.21-.47,.47-.47h1.52c.24,0,.43,.19,.43,.43h4.09v1.77h-4.09c0,.24-.19,.43-.43,.43h-1.52c-.26,0-.47-.21-.47-.47h0"/><path class="cls-18" d="M81.74,82.23v-2.28c0-.2-.16-.36-.36-.36h-1.12c-.18-.02-.34,.11-.36,.29,0,.03,0,.05,0,.08v2.28c-.02,.2,.13,.38,.32,.4,.01,0,.03,0,.04,0h.98c.21-.02,.36-.19,.36-.4"/><path class="cls-9" d="M99.27,86.76v-1.7c.02-.24-.16-.45-.4-.47-.01,0-.03,0-.04,0h-1.56c-.24,0-.43,.19-.43,.43h-4.24v1.77h4.24c0,.24,.19,.43,.43,.43h1.56c.24,0,.44-.19,.44-.43,0-.01,0-.03,0-.04"/><path class="cls-18" d="M91.23,86.54v-2.28c0-.2,.16-.36,.36-.36,.01,0,.03,0,.04,0h.98c.2-.02,.38,.13,.4,.32,0,.01,0,.03,0,.04v2.28c0,.22-.18,.4-.4,.4h-1.09c-.22,0-.4-.18-.4-.4h0"/><path class="cls-9" d="M73.56,86.76v-1.7c-.02-.24,.16-.45,.4-.47,.03,0,.05,0,.08,0h1.52c.24,0,.43,.19,.43,.43h4.09v1.77h-4.09c0,.24-.19,.43-.43,.43h-1.52c-.26,0-.47-.21-.47-.47"/><path class="cls-18" d="M81.74,86.54v-2.28c0-.2-.16-.36-.36-.36h-1.12c-.18-.02-.34,.11-.36,.29,0,.03,0,.05,0,.08v2.28c-.02,.2,.13,.38,.32,.4,.01,0,.03,0,.04,0h.98c.21-.02,.36-.19,.36-.4"/><path class="cls-9" d="M99.27,91.07v-1.74c0-.24-.19-.43-.43-.43h-1.56c-.24,0-.43,.19-.43,.43h-4.24v1.77h4.24c0,.24,.19,.43,.43,.43h1.56c.24,0,.44-.19,.44-.43,0-.01,0-.03,0-.04"/><path class="cls-18" d="M91.23,90.85v-2.28c0-.2,.16-.36,.36-.36,.01,0,.03,0,.04,0h.98c.2-.02,.38,.13,.4,.32,0,.01,0,.03,0,.04v2.28c0,.22-.18,.4-.4,.4h-1.09c-.22,0-.4-.18-.4-.4h0"/><path class="cls-9" d="M73.56,91.07v-1.74c0-.24,.19-.44,.43-.44,.01,0,.03,0,.04,0h1.52c.24,0,.43,.19,.43,.43h4.09v1.77h-4.09c0,.24-.19,.43-.43,.43h-1.52c-.26,0-.47-.21-.47-.47"/><path class="cls-18" d="M81.74,90.85v-2.28c0-.2-.16-.36-.36-.36h-1.12c-.18-.02-.34,.11-.36,.29,0,.03,0,.05,0,.08v2.28c-.02,.2,.13,.38,.32,.4,.01,0,.03,0,.04,0h.98c.21-.02,.36-.19,.36-.4"/><path class="cls-9" d="M99.27,95.34v-1.77c.02-.24-.16-.45-.4-.47-.01,0-.03,0-.04,0h-1.56c-.23,.02-.42,.2-.43,.43h-4.24v1.77h4.24c0,.25,.19,.45,.43,.47h1.56c.24,0,.44-.19,.44-.43,0-.01,0-.03,0-.04"/><path class="cls-18" d="M91.23,95.13v-2.28c0-.22,.18-.4,.4-.4h.98c.22,0,.4,.18,.4,.4h0v2.28c0,.2-.16,.36-.36,.36-.01,0-.03,0-.04,0h-1.09c-.2,.02-.38-.13-.4-.32,0-.01,0-.03,0-.04"/><path class="cls-9" d="M73.56,95.34v-1.77c0-.26,.21-.47,.47-.47h1.52c.24,0,.44,.19,.44,.43,0,.01,0,.03,0,.04h4.09v1.77h-4.09c.02,.24-.16,.45-.4,.47-.01,0-.03,0-.04,0h-1.52c-.26,0-.47-.21-.47-.47"/><path class="cls-18" d="M81.74,95.13v-2.28c0-.21-.16-.38-.36-.4h-1.12c-.2,0-.36,.16-.36,.36,0,.01,0,.03,0,.04v2.28c-.02,.18,.11,.34,.29,.36,.03,0,.05,0,.08,0h.98c.2,0,.36-.16,.36-.36h0"/><path class="cls-9" d="M99.27,99.72v-1.7c.02-.24-.16-.45-.4-.47-.01,0-.03,0-.04,0h-1.56c-.24,0-.43,.19-.43,.43h-4.24v1.77h4.24c0,.24,.19,.43,.43,.43h1.56c.24,0,.44-.19,.44-.43,0-.01,0-.03,0-.04"/><path class="cls-18" d="M91.23,99.54v-2.35c.02-.21,.19-.36,.4-.36h.98c.21,0,.38,.16,.4,.36v2.32c-.02,.21-.19,.36-.4,.36h-1.09c-.21,0-.38-.16-.4-.36"/><path class="cls-9" d="M73.56,99.72v-1.7c0-.26,.21-.47,.47-.47h1.52c.24,0,.43,.19,.43,.43h4.09v1.77h-4.09c0,.24-.19,.43-.43,.43h-1.52c-.24,.02-.45-.16-.47-.4,0-.03,0-.05,0-.08"/><path class="cls-18" d="M81.74,99.54v-2.35c-.02-.19-.17-.35-.36-.36h-1.12c-.2,0-.36,.16-.36,.36h0v2.32c0,.2,.16,.36,.36,.36h.98c.19-.02,.35-.17,.36-.36"/><path class="cls-9" d="M99.27,104.03v-1.7c.02-.24-.16-.45-.4-.47-.01,0-.03,0-.04,0h-1.56c-.24,0-.43,.19-.43,.43h-4.24v1.77h4.24c.04,.21,.22,.37,.43,.36h1.56c.24,0,.44-.19,.44-.43,0-.01,0-.03,0-.04"/><path class="cls-18" d="M91.23,103.85v-2.32c.02-.21,.19-.36,.4-.36h.98c.21,0,.38,.16,.4,.36v2.32c-.02,.21-.19,.36-.4,.36h-1.09c-.21,0-.38-.16-.4-.36"/><path class="cls-9" d="M73.56,104.03v-1.7c0-.26,.21-.47,.47-.47h1.52c.24,0,.43,.19,.43,.43h4.09v1.77h-4.09c0,.24-.19,.43-.43,.43h-1.52c-.24,.02-.45-.16-.47-.4,0-.03,0-.05,0-.08"/><path class="cls-18" d="M81.74,103.85v-2.32c-.02-.19-.17-.35-.36-.36h-1.12c-.2,0-.36,.16-.36,.36h0v2.32c0,.2,.16,.36,.36,.36h.98c.19-.02,.35-.17,.36-.36"/><path class="cls-18" d="M92.17,45.26c.51,0,.94,.72,.94,1.59,0,.87-.43,1.59-.94,1.59s-.94-.72-.94-1.59c0-.87,.43-1.59,.94-1.59"/><path class="cls-18" d="M80.8,45.26c.54,0,.94,.72,.94,1.59,0,.87-.4,1.59-.94,1.59-.54,0-.91-.72-.91-1.59s.4-1.59,.91-1.59"/><path class="cls-18" d="M92.17,109.57c.51,0,.94,.69,.94,1.59,0,.91-.43,1.56-.94,1.56-.51,0-.94-.69-.94-1.56s.43-1.59,.94-1.59"/><path class="cls-18" d="M80.8,109.57c.54,0,.94,.69,.94,1.59,0,.91-.4,1.56-.94,1.56s-.91-.69-.91-1.56c0-.87,.4-1.59,.91-1.59"/></g></g></g></g><g><path class="cls-19" d="M101.24,104.58h-.6v-1.91h-.74v-.45c.42,.01,.79-.13,.86-.58h.47v2.94Z"/><path class="cls-19" d="M70.73,102.72c-.02-.67,.36-1.19,1.07-1.19,.54,0,1.01,.34,1.01,.92,0,.89-.94,.96-1.37,1.57h1.39v.51h-2.16c0-.68,.42-.97,.93-1.31,.26-.18,.62-.36,.62-.72,0-.28-.18-.45-.44-.45-.35,0-.47,.36-.47,.68h-.57Z"/><g><path class="cls-19" d="M99.68,55.26c-.02-.67,.36-1.19,1.07-1.19,.54,0,1.01,.34,1.01,.92,0,.89-.94,.96-1.37,1.57h1.39v.51h-2.16c0-.68,.42-.97,.93-1.31,.26-.18,.62-.36,.62-.72,0-.28-.18-.45-.44-.45-.35,0-.47,.36-.47,.68h-.57Z"/><path class="cls-19" d="M102.82,55.32c.26,.02,.63-.03,.63-.36,0-.25-.2-.39-.42-.39-.3,0-.46,.22-.45,.52h-.57c.02-.6,.41-1.02,1.02-1.02,.47,0,.99,.29,.99,.81,0,.28-.14,.52-.41,.6h0c.32,.08,.52,.34,.52,.68,0,.62-.52,.96-1.09,.96-.66,0-1.1-.39-1.09-1.07h.57c.01,.32,.17,.58,.52,.58,.27,0,.48-.18,.48-.46,0-.44-.39-.44-.68-.44v-.42Z"/></g><g><path class="cls-19" d="M68.55,55.26c-.02-.67,.36-1.19,1.07-1.19,.54,0,1.01,.34,1.01,.92,0,.89-.94,.96-1.37,1.57h1.39v.51h-2.16c0-.68,.42-.97,.93-1.31,.26-.18,.62-.36,.62-.72,0-.28-.18-.45-.44-.45-.35,0-.47,.36-.47,.68h-.57Z"/><path class="cls-19" d="M72.03,56.39h-1.24v-.55l1.28-1.71h.53v1.77h.39v.49h-.39v.68h-.57v-.68Zm0-1.51h-.01l-.76,1.02h.77v-1.02Z"/></g></g></g></g></svg>