<svg xmlns="http://www.w3.org/2000/svg" viewBox="0 0 149.42 79.19"><defs><style>.cls-1{fill:#232323;}.cls-1,.cls-2,.cls-3,.cls-4,.cls-5,.cls-6,.cls-7{opacity:0.4;}.cls-2{fill:#e0ac52;}.cls-3{fill:#96908a;}.cls-4{fill:#c0b5ab;}.cls-13,.cls-5{fill:#fff;}.cls-6{fill:none;stroke:#fff;stroke-miterlimit:10;}.cls-8{fill:#f5f6f7;}.cls-9{fill:#ebf4fb;}.cls-10{fill:#333e49;}.cls-11{fill:#222630;}.cls-12{fill:#be8e3e;}.cls-14{fill:#b3b3b3;}.cls-15{fill:#eb2627;}.cls-16{fill:#7f8080;}.cls-17{fill:#333;}.cls-18{fill:#fdd407;}.cls-19{fill:#363896;}.cls-20{fill:#5dba48;}.cls-21{fill:#6b70b4;}.cls-22{fill:#a43b3a;}.cls-23{fill:#fed401;}.cls-24{isolation:isolate;}.cls-25{fill:#ee3224;}</style></defs><g id="Layer_2" data-name="Layer 2"><g id="Layer_1-2" data-name="Layer 1"><g id="RAK13002_Pinout"><path class="cls-1" d="M0,4.16V75H99.21V4.16ZM91.73,21.23a2.21,2.21,0,1,1,2.21,2.21h0A2.21,2.21,0,0,1,91.73,21.23ZM77.24,69.92a2.22,2.22,0,1,1,2.22,2.24,2.22,2.22,0,0,1-2.22-2.24ZM60.41,9.61a2.21,2.21,0,1,1,2.21,2.22,2.22,2.22,0,0,1-2.21-2.22ZM10.67,69.47a4,4,0,1,1,4.05,4,4,4,0,0,1-4.05-4Zm-.15-59.41a4,4,0,1,1,4,4h0A4,4,0,0,1,10.52,10.06Z"/><path class="cls-2" d="M90.13,21.23a3.81,3.81,0,1,0,3.81-3.81h0a3.8,3.8,0,0,0-3.81,3.79Zm1.6,0a2.21,2.21,0,1,1,2.21,2.21h0A2.21,2.21,0,0,1,91.73,21.23Z"/><path class="cls-2" d="M58.47,9.61a4.15,4.15,0,1,0,4.16-4.14h0A4.15,4.15,0,0,0,58.47,9.61Zm1.94,0a2.21,2.21,0,1,1,2.21,2.22,2.22,2.22,0,0,1-2.21-2.22Z"/><path class="cls-2" d="M75.75,69.8A3.82,3.82,0,1,0,79.57,66h0A3.82,3.82,0,0,0,75.75,69.8Zm1.49.12a2.22,2.22,0,1,1,2.22,2.24,2.22,2.22,0,0,1-2.22-2.24Z"/><path class="cls-2" d="M7.31,10.06a7.25,7.25,0,1,0,11.44-5.9H10.36A7.25,7.25,0,0,0,7.31,10.06Zm3.21,0a4,4,0,1,1,4,4h0A4,4,0,0,1,10.52,10.06Z"/><path class="cls-2" d="M21.8,69.47A7.08,7.08,0,1,0,10.35,75h8.74A7.07,7.07,0,0,0,21.8,69.47Zm-3,0a4,4,0,1,1-4-4,4,4,0,0,1,4,4h0Z"/><circle class="cls-3" cx="4.53" cy="23.68" r="2.64"/><circle class="cls-4" cx="4.53" cy="23.68" r="2.34"/><rect class="cls-2" x="3.79" y="22.93" width="1.49" height="1.49" rx="0.17"/><circle class="cls-3" cx="11.68" cy="23.68" r="2.64"/><circle class="cls-4" cx="11.68" cy="23.68" r="2.34"/><rect class="cls-2" x="10.93" y="22.93" width="1.49" height="1.49" rx="0.17"/><circle class="cls-3" cx="19.16" cy="23.68" r="2.64"/><circle class="cls-4" cx="19.16" cy="23.68" r="2.34"/><rect class="cls-2" x="18.42" y="22.93" width="1.49" height="1.49" rx="0.17"/><circle class="cls-3" cx="26.23" cy="23.68" r="2.64"/><circle class="cls-4" cx="26.23" cy="23.68" r="2.34"/><rect class="cls-2" x="25.48" y="22.93" width="1.49" height="1.49" rx="0.17"/><circle class="cls-3" cx="33.46" cy="23.68" r="2.64"/><circle class="cls-4" cx="33.46" cy="23.68" r="2.34"/><rect class="cls-2" x="32.72" y="22.93" width="1.49" height="1.49" rx="0.17"/><circle class="cls-3" cx="40.74" cy="23.68" r="2.64"/><circle class="cls-4" cx="40.74" cy="23.68" r="2.34"/><rect class="cls-2" x="39.99" y="22.93" width="1.49" height="1.49" rx="0.17"/><circle class="cls-3" cx="47.93" cy="23.68" r="2.64"/><circle class="cls-4" cx="47.93" cy="23.68" r="2.34"/><rect class="cls-2" x="47.18" y="22.93" width="1.49" height="1.49" rx="0.17"/><rect class="cls-3" x="52.63" y="21.04" width="5.19" height="4.98" rx="0.37"/><rect class="cls-4" x="52.93" y="21.33" width="4.59" height="4.4" rx="0.37"/><rect class="cls-2" x="54.48" y="22.78" width="1.49" height="1.49" rx="0.17"/><circle class="cls-3" cx="4.53" cy="34.56" r="2.64"/><circle class="cls-4" cx="4.53" cy="34.56" r="2.34"/><rect class="cls-2" x="3.79" y="33.81" width="1.49" height="1.49" rx="0.17"/><circle class="cls-3" cx="11.68" cy="34.56" r="2.64"/><circle class="cls-4" cx="11.68" cy="34.56" r="2.34"/><rect class="cls-2" x="10.93" y="33.81" width="1.49" height="1.49" rx="0.17"/><circle class="cls-3" cx="19.16" cy="34.56" r="2.64"/><circle class="cls-4" cx="19.16" cy="34.56" r="2.34"/><rect class="cls-2" x="18.42" y="33.81" width="1.49" height="1.49" rx="0.17"/><circle class="cls-3" cx="26.23" cy="34.56" r="2.64"/><circle class="cls-4" cx="26.23" cy="34.56" r="2.34"/><rect class="cls-2" x="25.48" y="33.81" width="1.49" height="1.49" rx="0.17"/><circle class="cls-3" cx="33.46" cy="34.56" r="2.64"/><circle class="cls-4" cx="33.46" cy="34.56" r="2.34"/><rect class="cls-2" x="32.72" y="33.81" width="1.49" height="1.49" rx="0.17"/><circle class="cls-3" cx="40.74" cy="34.56" r="2.64"/><circle class="cls-4" cx="40.74" cy="34.56" r="2.34"/><rect class="cls-2" x="39.99" y="33.81" width="1.49" height="1.49" rx="0.17"/><circle class="cls-3" cx="47.93" cy="34.56" r="2.64"/><circle class="cls-4" cx="47.93" cy="34.56" r="2.34"/><rect class="cls-2" x="47.18" y="33.81" width="1.49" height="1.49" rx="0.17"/><rect class="cls-3" x="52.63" y="31.92" width="5.19" height="4.98" rx="0.37"/><rect class="cls-4" x="52.93" y="32.21" width="4.59" height="4.4" rx="0.37"/><rect class="cls-2" x="54.48" y="33.66" width="1.49" height="1.49" rx="0.17"/><circle class="cls-3" cx="4.53" cy="45.03" r="2.64"/><circle class="cls-4" cx="4.53" cy="45.03" r="2.34"/><rect class="cls-2" x="3.79" y="44.29" width="1.49" height="1.49" rx="0.17"/><circle class="cls-3" cx="11.68" cy="45.03" r="2.64"/><circle class="cls-4" cx="11.68" cy="45.03" r="2.34"/><rect class="cls-2" x="10.93" y="44.29" width="1.49" height="1.49" rx="0.17"/><circle class="cls-3" cx="19.16" cy="45.03" r="2.64"/><circle class="cls-4" cx="19.16" cy="45.03" r="2.34"/><rect class="cls-2" x="18.42" y="44.29" width="1.49" height="1.49" rx="0.17"/><circle class="cls-3" cx="26.23" cy="45.03" r="2.64"/><circle class="cls-4" cx="26.23" cy="45.03" r="2.34"/><rect class="cls-2" x="25.48" y="44.29" width="1.49" height="1.49" rx="0.17"/><circle class="cls-3" cx="33.46" cy="45.03" r="2.64"/><circle class="cls-4" cx="33.46" cy="45.03" r="2.34"/><rect class="cls-2" x="32.72" y="44.29" width="1.49" height="1.49" rx="0.17"/><circle class="cls-3" cx="40.74" cy="45.03" r="2.64"/><circle class="cls-4" cx="40.74" cy="45.03" r="2.34"/><rect class="cls-2" x="39.99" y="44.29" width="1.49" height="1.49" rx="0.17"/><circle class="cls-3" cx="47.93" cy="45.03" r="2.64"/><circle class="cls-4" cx="47.93" cy="45.03" r="2.34"/><rect class="cls-2" x="47.18" y="44.29" width="1.49" height="1.49" rx="0.17"/><rect class="cls-3" x="52.63" y="42.39" width="5.19" height="4.98" rx="0.37"/><rect class="cls-4" x="52.93" y="42.68" width="4.59" height="4.4" rx="0.37"/><rect class="cls-2" x="54.48" y="44.14" width="1.49" height="1.49" rx="0.17"/><circle class="cls-3" cx="4.53" cy="56.19" r="2.64"/><circle class="cls-4" cx="4.53" cy="56.19" r="2.34"/><rect class="cls-2" x="3.79" y="55.44" width="1.49" height="1.49" rx="0.17"/><circle class="cls-3" cx="11.68" cy="56.19" r="2.64"/><circle class="cls-4" cx="11.68" cy="56.19" r="2.34"/><rect class="cls-2" x="10.93" y="55.44" width="1.49" height="1.49" rx="0.17"/><circle class="cls-3" cx="19.16" cy="56.19" r="2.64"/><circle class="cls-4" cx="19.16" cy="56.19" r="2.34"/><rect class="cls-2" x="18.42" y="55.44" width="1.49" height="1.49" rx="0.17"/><circle class="cls-3" cx="26.23" cy="56.19" r="2.64"/><circle class="cls-4" cx="26.23" cy="56.19" r="2.34"/><rect class="cls-2" x="25.48" y="55.44" width="1.49" height="1.49" rx="0.17"/><circle class="cls-3" cx="33.46" cy="56.19" r="2.64"/><circle class="cls-4" cx="33.46" cy="56.19" r="2.34"/><rect class="cls-2" x="32.72" y="55.44" width="1.49" height="1.49" rx="0.17"/><circle class="cls-3" cx="40.74" cy="56.19" r="2.64"/><circle class="cls-4" cx="40.74" cy="56.19" r="2.34"/><rect class="cls-2" x="39.99" y="55.44" width="1.49" height="1.49" rx="0.17"/><circle class="cls-3" cx="47.93" cy="56.19" r="2.64"/><circle class="cls-4" cx="47.93" cy="56.19" r="2.34"/><rect class="cls-2" x="47.18" y="55.44" width="1.49" height="1.49" rx="0.17"/><rect class="cls-3" x="52.63" y="53.55" width="5.19" height="4.98" rx="0.37"/><rect class="cls-4" x="52.93" y="53.84" width="4.59" height="4.4" rx="0.37"/><rect class="cls-2" x="54.48" y="55.3" width="1.49" height="1.49" rx="0.17"/><path class="cls-5" d="M62.7,73.57h.62v.59H62.7Z"/><polygon class="cls-5" points="39.56 5.98 39.56 6.98 38.63 6.98 38.63 5.98 35.89 5.98 35.89 6.98 34.96 6.98 34.96 5.98 32.49 5.98 32.49 6.98 31.51 6.98 31.51 12.17 42.96 12.17 42.96 6.98 42.09 6.98 42.09 5.98 39.56 5.98"/><path class="cls-5" d="M27,16.07h.5l.5,2.14h0l.57-2.14h.5l.55,2.14h0l.53-2.14h.49l-.77,2.8h-.5l-.56-2.14h0l-.57,2.14h-.5Z"/><path class="cls-5" d="M30.91,16.07h.44v.42h-.44Zm0,.77h.44v2h-.44Z"/><path class="cls-5" d="M32.18,18.22c0,.26.22.35.46.35s.46,0,.45-.27-.34-.26-.67-.34-.65-.18-.65-.6.48-.58.85-.58a.77.77,0,0,1,.85.63H33c0-.22-.21-.27-.41-.27s-.37,0-.37.21.33.25.66.32.65.19.65.59-.48.66-.9.66a.81.81,0,0,1-.9-.7Z"/><path class="cls-5" d="M33.91,16.07h1.31c.54,0,.9.17.9.69a.64.64,0,0,1-.38.59.68.68,0,0,1,.51.71c0,.56-.48.81-1,.81H33.91Zm.61,1.09h.63c.22,0,.37-.1.37-.33s-.2-.33-.42-.33h-.58Zm0,1.19h.66c.24,0,.46-.08.46-.37s-.18-.4-.45-.4h-.67Z"/><path class="cls-5" d="M36.66,16.07h.62v2.28h1.36v.52h-2Z"/><path class="cls-5" d="M40.24,16a1.37,1.37,0,0,1,1.38,1.35s0,.09,0,.13A1.38,1.38,0,0,1,40.35,19a1.36,1.36,0,0,1-1.49-1.25,1,1,0,0,1,0-.24A1.37,1.37,0,0,1,40.12,16Zm0,2.42c.55,0,.76-.47.76-.94s-.21-1-.76-1-.76.47-.76,1S39.69,18.42,40.24,18.42Z"/><path class="cls-5" d="M43.9,17a.62.62,0,0,0-.62-.49c-.55,0-.76.47-.76,1s.21.94.76.94a.64.64,0,0,0,.64-.63h.6A1.19,1.19,0,0,1,43.28,19h0a1.33,1.33,0,0,1-1.37-1.3.75.75,0,0,1,0-.15,1.35,1.35,0,0,1,1.23-1.47h.14a1.14,1.14,0,0,1,1.21,1Z"/><path class="cls-5" d="M44.93,16.07h.61v1.16l1.1-1.16h.77l-1.1,1.09,1.2,1.7h-.77L45.9,17.6l-.36.35v.91h-.61Z"/><path class="cls-5" d="M81.31,18.44l8.21,16.9H73.09Zm0-.92L72.44,35.74H90.17Z"/><rect class="cls-5" x="82.5" y="22.59" width="0.4" height="11.67" transform="translate(17.22 86.39) rotate(-60.48)"/><rect class="cls-5" x="82.65" y="23.08" width="0.4" height="12.91" transform="translate(16.33 87.08) rotate(-60.48)"/><path class="cls-5" d="M79,26.29l-.35-.19a20.07,20.07,0,0,1,1.17-2c.55-.76,3.51-1.41,3.85-1.48l.09.4c-1.22.25-3.27.84-3.61,1.32-.5.7-1.14,1.91-1.15,1.92"/><path class="cls-5" d="M84.07,29.31l-.2-.35a1.53,1.53,0,0,0,.75-1.37,5.32,5.32,0,0,1,.3-1.85l.38.13a5.35,5.35,0,0,0-.3,1.68,1.92,1.92,0,0,1-1,1.76"/><path class="cls-5" d="M79.77,31.46h-.16c-.84-.11-1.9-2.74-1.91-2.77a1.82,1.82,0,0,1,.52-1.84l.28.29s-.71.69-.43,1.4c.46,1.15,1.24,2.48,1.59,2.52.19,0,.3,0,.32-.06s0-.21-.16-.4a4.59,4.59,0,0,1-.86-2,3.46,3.46,0,0,1,.45-1l.34.21a3.24,3.24,0,0,0-.39.82,4.38,4.38,0,0,0,.78,1.73c.34.44.27.72.2.86a.62.62,0,0,1-.57.27"/><path class="cls-5" d="M81.34,32.26a.43.43,0,0,1-.24-.1c-.15-.07-.31-.26-.26-.7a6.75,6.75,0,0,1,1.33-2.4l.31.26a6.19,6.19,0,0,0-1.24,2.19c0,.18,0,.28.05.3a1.4,1.4,0,0,0,.73-.34,12.22,12.22,0,0,0,1.3-1.73l.34.22a14.33,14.33,0,0,1-1.37,1.81,1.65,1.65,0,0,1-1,.45"/><path class="cls-5" d="M81.22,30.81a4.34,4.34,0,0,1-1.66-.65l.21-.34a3,3,0,0,0,1.51.59.34.34,0,0,0,0-.28c-.07-.24-.38-.49-.84-.7a1.09,1.09,0,0,1-.66-.62,1,1,0,0,1,.22-.87l.34.21a.72.72,0,0,0-.17.54c0,.14.19.26.44.37a1.81,1.81,0,0,1,1.06,1,.75.75,0,0,1-.08.62.4.4,0,0,1-.26.18h-.14"/><rect class="cls-5" x="80.54" y="19.36" width="1.62" height="0.4"/><rect class="cls-5" x="80.06" y="20.35" width="2.5" height="0.4"/><rect class="cls-5" x="79.58" y="21.33" width="3.45" height="0.4"/><rect class="cls-5" x="79.1" y="22.32" width="4.41" height="0.4"/><rect class="cls-5" x="78.7" y="23.3" width="2.62" height="0.4"/><rect class="cls-5" x="78.14" y="24.29" width="1.64" height="0.4"/><rect class="cls-5" x="77.75" y="25.27" width="1.4" height="0.4"/><rect class="cls-5" x="76.7" y="27.24" width="1.31" height="0.4"/><rect class="cls-5" x="84.86" y="27.24" width="1.05" height="0.4"/><rect class="cls-5" x="76.22" y="28.23" width="1.67" height="0.4"/><rect class="cls-5" x="84.68" y="28.23" width="1.67" height="0.4"/><rect class="cls-5" x="75.83" y="29.22" width="2.42" height="0.4"/><rect class="cls-5" x="84.47" y="29.22" width="2.4" height="0.4"/><rect class="cls-5" x="75.25" y="30.2" width="3.54" height="0.4"/><rect class="cls-5" x="83.15" y="30.2" width="1.27" height="0.4"/><rect class="cls-6" x="86.21" y="30.2" width="1.08" height="0.4"/><rect class="cls-5" x="74.78" y="31.19" width="6.25" height="0.4"/><rect class="cls-5" x="82.41" y="31.19" width="3.8" height="0.4"/><rect class="cls-5" x="74.46" y="32.17" width="13.38" height="0.4"/><rect class="cls-5" x="73.82" y="33.16" width="14.96" height="0.4"/><rect class="cls-5" x="73.3" y="34.14" width="15.95" height="0.4"/><g id="dispose-properly" class="cls-7"><g id="Layer_2-2" data-name="Layer 2-2"><g id="Layer_1-2-2" data-name="Layer 1-2"><path class="cls-8" d="M85,59.61a.6.6,0,0,0-.65.53h0v.13a.54.54,0,1,0,1.05-.21.61.61,0,0,0-.4-.45m-.06.73h-.08a.14.14,0,0,1,0-.19.13.13,0,0,1,.11-.06h0a.11.11,0,0,1,0,.07.14.14,0,0,1-.14.14"/><path class="cls-8" d="M88.39,47.08l-.28-.29-1,1-.58.6h0l.06-.6h.54v-.3a.7.7,0,0,0,.4-.92.71.71,0,0,0-.92-.41h0a.9.9,0,0,0-.33.25,3.92,3.92,0,0,0-.85-.47,8.31,8.31,0,0,0-1.77-.43v-.35H81v.33a9.82,9.82,0,0,0-1.43.19v-.23H78.38V46a4.22,4.22,0,0,0-1.08.69.26.26,0,0,0-.07.2v.18h-.66v.77h.73l.14,1.31-2-2-.29.28,2.31,2.41.45,4.9c.08.82.16,1.64.23,2.47l-2.07,2.17.28.28,1.84-1.91c.09,1,.18,1.94.26,2.9a.25.25,0,0,0,.25.23v1.17h1V60.81h3.5a1.74,1.74,0,1,0,2.28-2.22v-.38l1.6,1.67.29-.28-1.84-1.92c.09-1,.19-2,.28-3,.13-1.45.27-2.91.4-4.36H87.6V48.44h-.52Zm-1.53-.53a.33.33,0,0,1,.31.32.29.29,0,0,1-.07.2h-.47v-.18a.33.33,0,0,0-.06-.19.33.33,0,0,1,.27-.15m-5.42-1h1.77v.36H81.44Zm-2.6.29h.25v.77h-.25Zm-1.1,1.1a3.92,3.92,0,0,1,.64-.42V47h-.63v-.1m.72,7.65c-.13-1.42-.26-2.85-.4-4.27l3.32,3.46-2.73,2.86c-.06-.69-.13-1.37-.19-2m.91,7.1h-.22v-.58h.22Zm3.8-1.58v.11H79c-.09-1-.19-2.08-.28-3.11l3-3.09,3.47,3.62-.06.74H84.9a1.75,1.75,0,0,0-1.74,1.73h0m2.65,0a.91.91,0,0,1-1.81.11v-.11a.9.9,0,0,1,.89-.91H85a.9.9,0,0,1,.82.9m-.39-5.58-.25,2.59-3.24-3.39,2-2.07h.48v-.51l1.38-1.44v.52h0c-.13,1.43-.27,2.88-.4,4.31m-1.65-3.31H81.32v-.36H84v.25ZM86,48.44h-.21v.77l-1.38,1.44v-.13H80.86v1.22h2.51l-1.71,1.78L78,49.7l-.18-1.86h8.24l-.06.6m.13-1.37H79.55v-.91A9.84,9.84,0,0,1,81,46v.39h2.68v-.29a7.93,7.93,0,0,1,1.6.38,3.44,3.44,0,0,1,.88.53.17.17,0,0,0,0,.1m1,1.8v1h-.78a2.46,2.46,0,0,1,.08-.76l.24-.25Z"/></g></g></g><path class="cls-5" d="M45.52,60.16a3.11,3.11,0,0,1,1,.19,2.55,2.55,0,0,1,.79.51,2.06,2.06,0,0,1,.5.74,2.24,2.24,0,0,1,.17.92,2.59,2.59,0,0,1-.31,1.31,2,2,0,0,1-1,.83h0a1.34,1.34,0,0,1,.57.29,1.57,1.57,0,0,1,.38.47,3.19,3.19,0,0,1,.21.59,4.81,4.81,0,0,1,.08.65v.48a5.23,5.23,0,0,0,0,.56,5.07,5.07,0,0,0,.09.54,1.35,1.35,0,0,0,.2.44H46.39a3.41,3.41,0,0,1-.19-1,9,9,0,0,0-.1-1.08,1.75,1.75,0,0,0-.41-1,1.45,1.45,0,0,0-1-.32h-1.9v3.35H40.91V60.16ZM44.85,64a1.34,1.34,0,0,0,1-.29,1.14,1.14,0,0,0,.32-.93,1.12,1.12,0,0,0-.32-.9,1.49,1.49,0,0,0-1-.29H42.79V64Z"/><path class="cls-5" d="M54.22,60.16l3.19,8.55H55.46l-.65-1.9H51.62L51,68.7H49.1l3.19-8.54Zm.11,5.25-1.08-3.15h0L52.14,65.4Z"/><polygon class="cls-5" points="60.15 60.15 60.15 63.7 63.49 60.15 65.83 60.15 62.49 63.53 66.16 68.7 63.8 68.7 61.22 64.86 60.15 65.95 60.15 68.7 58.26 68.7 58.26 60.15 60.15 60.15"/><path class="cls-5" d="M31.41,62a3,3,0,0,1,1.11.19h0s.24.11.2.57a.64.64,0,0,1-.66.61H30V62.5a1.53,1.53,0,0,0-.07-.36,8.23,8.23,0,0,1,1.3-.23h.18"/><path class="cls-5" d="M31.65,60.38h.41c.24,0,.54,0,.63.22a.78.78,0,0,1,.08.56.71.71,0,0,1-.31.46,4.22,4.22,0,0,0-1-.13h-.31a8.18,8.18,0,0,0-1.46.28,1.11,1.11,0,0,0-.38-.22.6.6,0,0,0-.19-.06,4.06,4.06,0,0,1,1.31-.89,3.54,3.54,0,0,1,1.24-.23"/><path class="cls-5" d="M31.38,58.62h.17c1,0,1.09.18,1.1.68a.8.8,0,0,1-.36.61h-.54a3.65,3.65,0,0,0-1.14.15,4.4,4.4,0,0,0-1.58.88c-.25.24-.5.51-.6.62a1.05,1.05,0,0,0-.29.17l-.08.08a2,2,0,0,0-.33-.24,1.57,1.57,0,0,0-.43-.09,4.79,4.79,0,0,1,1.26-1.76,4.55,4.55,0,0,1,2.82-1.08h0"/><path class="cls-5" d="M32.52,63.75a7.21,7.21,0,0,1,.22,1.3,2.83,2.83,0,0,1-.18,1.29h0s-.1.2-.46.2H32a.64.64,0,0,1-.61-.66h0v-2h.83a1.53,1.53,0,0,0,.36-.07"/><path class="cls-5" d="M33.22,62.92a4.17,4.17,0,0,1,.89,1.31,3.75,3.75,0,0,1,.22,1.48v.17c0,.24,0,.54-.22.63a.69.69,0,0,1-.37.1h-.18a.65.65,0,0,1-.36-.18l-.11-.12A4.24,4.24,0,0,0,33.21,65a7.38,7.38,0,0,0-.28-1.46,1.11,1.11,0,0,0,.22-.38.6.6,0,0,0,.06-.19"/><path class="cls-5" d="M33.26,61.16A4.79,4.79,0,0,1,35,62.37a4.57,4.57,0,0,1,1.08,3c0,1-.18,1.09-.68,1.1a.83.83,0,0,1-.61-.36,4.76,4.76,0,0,0-.12-1.68,4.28,4.28,0,0,0-.89-1.58,7,7,0,0,0-.62-.6A.9.9,0,0,0,33,62l-.08-.08a1,1,0,0,0,.24-.33,1.17,1.17,0,0,0,.09-.42"/><path class="cls-5" d="M30.89,65.16V66a1.44,1.44,0,0,0,.07.36,6.31,6.31,0,0,1-1.3.22h-.17a2.7,2.7,0,0,1-1.12-.19h0s-.24-.12-.2-.57a.64.64,0,0,1,.66-.61H30.9"/><path class="cls-5" d="M31.23,66.77a1.87,1.87,0,0,0,.39.22l.19.06a4.17,4.17,0,0,1-1.31.89,3.54,3.54,0,0,1-1.24.23h-.41c-.23,0-.53,0-.63-.22a.84.84,0,0,1-.08-.56.78.78,0,0,1,.18-.35l.13-.12a3.36,3.36,0,0,0,1,.14h.3a6.52,6.52,0,0,0,1.45-.28"/><path class="cls-5" d="M32.86,66.76a1,1,0,0,0,.75.33,4.75,4.75,0,0,1-1.26,1.77,4.59,4.59,0,0,1-2.83,1.07h-.16c-1,0-1.09-.17-1.1-.67a.91.91,0,0,1,.36-.62,5,5,0,0,0,.55,0,3.62,3.62,0,0,0,1.13-.15,4.28,4.28,0,0,0,1.58-.89,6.92,6.92,0,0,0,.6-.61.92.92,0,0,0,.3-.18l.08-.08"/><path class="cls-5" d="M28.81,62h.12a.64.64,0,0,1,.61.66h0v2H28.7a1.13,1.13,0,0,0-.36.06,7,7,0,0,1-.22-1.29,2.9,2.9,0,0,1,.18-1.3h0s.09-.21.46-.21"/><path class="cls-5" d="M27.16,62h.19a.78.78,0,0,1,.35.18l.12.13a4,4,0,0,0-.13,1.33A7.49,7.49,0,0,0,28,65.07a1.45,1.45,0,0,0-.22.38.7.7,0,0,0-.06.19,4.06,4.06,0,0,1-.89-1.31,3.54,3.54,0,0,1-.23-1.48v-.17c0-.24,0-.54.22-.63a.88.88,0,0,1,.36-.1"/><path class="cls-5" d="M25.49,62.1a.82.82,0,0,1,.6.35,4.67,4.67,0,0,0,.13,1.71,4.12,4.12,0,0,0,.89,1.58c.22.24.49.49.61.6a1.05,1.05,0,0,0,.17.29l.08.08a2,2,0,0,0-.24.33,1.07,1.07,0,0,0-.09.43,4.84,4.84,0,0,1-1.76-1.31,4.57,4.57,0,0,1-1.08-3c.05-1,.18-1.09.68-1.09h0"/><path class="cls-5" d="M28.46,74.1H27.9l-.36-1.34h0L27.2,74.1h-.56L26,72.16h.58L27,73.51h0l.33-1.35h.53l.34,1.35h0l.37-1.35h.57Z"/><path class="cls-5" d="M31.61,74.1H31l-.35-1.34h0l-.34,1.34h-.57l-.63-2h.58l.37,1.35h0l.36-1.29H31l.34,1.35h0l.33-1.35h.57Z"/><path class="cls-5" d="M34.75,74.1h-.56l-.36-1.34h0l-.34,1.34h-.57l-.63-2h.58l.36,1.35h0l.34-1.29h.53l.34,1.35h0l.38-1.35h.56Z"/><path class="cls-5" d="M35.22,73.51h.61v.59h-.61Z"/><path class="cls-5" d="M36.28,71h1.66a.85.85,0,0,1,.9.8v0a.74.74,0,0,1-.49.77h0c.33.09.43.4.45.72a1.53,1.53,0,0,0,.13.73h-.68a3.66,3.66,0,0,1-.1-.74c0-.32-.18-.47-.52-.47H37v1.21h-.68ZM37,72.38h.74c.3,0,.46-.13.46-.44s-.16-.42-.46-.42H37Z"/><path class="cls-5" d="M40.23,71h.7l1.14,3.08h-.7l-.23-.69H40l-.24.69h-.68Zm-.06,1.89H41l-.38-1.13h0Z"/><path class="cls-5" d="M42.35,71H43v1.28L44.2,71h.85l-1.2,1.22,1.31,1.86h-.85l-.92-1.39-.39.4v1h-.67Z"/><path class="cls-5" d="M48.16,74.07h-.63l-.39-1.5h0l-.38,1.5h-.63l-.71-2.23h.65l.41,1.51h0l.37-1.51h.6l.38,1.51h0l.4-1.51h.63Z"/><path class="cls-5" d="M49.75,71.5h-.61V71h.61Zm-.61.34h.61v2.23h-.61Z"/><path class="cls-5" d="M50.06,71.84h.58v.41h0a.79.79,0,0,1,.71-.47h.14v.57h-.22c-.45,0-.61.32-.61.71v1h-.61Z"/><path class="cls-5" d="M52.3,73a.49.49,0,0,0,.54.56.52.52,0,0,0,.49-.28h.53a1,1,0,0,1-1,.75,1.08,1.08,0,0,1-1.13-1v-.14a1.13,1.13,0,0,1,1-1.21,1.12,1.12,0,0,1,1.2,1,1.22,1.22,0,0,1,0,.33Zm1-.39a.43.43,0,0,0-.48-.47.49.49,0,0,0-.51.45v0Z"/><path class="cls-5" d="M54.34,71H55v3.08h-.61Z"/><path class="cls-5" d="M55.9,73a.49.49,0,0,0,.54.56.52.52,0,0,0,.49-.28h.53a1,1,0,0,1-1,.75,1.08,1.08,0,0,1-1.13-1v-.14a1.13,1.13,0,0,1,1-1.21,1.12,1.12,0,0,1,1.2,1,1.22,1.22,0,0,1,0,.33Zm1-.39a.43.43,0,0,0-.48-.47.49.49,0,0,0-.51.45v0Z"/><path class="cls-5" d="M58.27,73.28c0,.26.24.38.47.38s.4-.07.4-.29-.25-.25-.69-.34-.7-.2-.7-.6c0-.56.49-.71,1-.71s.94.16,1,.71h-.58c0-.24-.19-.3-.41-.3s-.34,0-.34.21.34.25.69.33.71.21.71.62c0,.59-.52.78-1,.78s-1-.2-1-.79Z"/><path class="cls-5" d="M60.76,73.28c0,.26.23.38.47.38s.4-.07.4-.29-.26-.25-.69-.34-.71-.2-.71-.6c0-.56.49-.71,1-.71s.93.16,1,.71H61.6c0-.24-.2-.3-.42-.3s-.34,0-.34.21.35.25.69.33.71.21.71.62c0,.59-.51.78-1,.78s-1-.2-1-.79Z"/><path class="cls-5" d="M65.16,72.85a.37.37,0,0,0-.39-.35h0c-.36,0-.48.36-.48.66s.12.65.47.65a.43.43,0,0,0,.44-.42h.54a.91.91,0,0,1-1,.84h0a1,1,0,0,1-1-1,1,1,0,0,1,.89-1.09h.11a.86.86,0,0,1,1,.71.13.13,0,0,1,0,.06Z"/><path class="cls-5" d="M67,72.08a1.08,1.08,0,1,1-1,1.16v-.08a1,1,0,0,1,.92-1.07Zm0,1.73c.38,0,.5-.33.5-.65s-.12-.66-.5-.66-.49.33-.49.66S66.65,73.81,67,73.81Z"/><path class="cls-5" d="M68.47,72.16H69v.28h0a.76.76,0,0,1,.63-.33.6.6,0,0,1,.59.34.75.75,0,0,1,.62-.34.67.67,0,0,1,.74.57.43.43,0,0,1,0,.16v1.32H71V73c0-.27,0-.5-.34-.5s-.37.26-.37.52v1.12h-.56V73c0-.24,0-.51-.34-.51-.11,0-.38.07-.38.47v1.17h-.56Z"/><circle class="cls-5" cx="95.37" cy="5.67" r="0.69"/><path class="cls-9" d="M71.06,12.83h-.24a.39.39,0,0,1-.39-.4V8.23a.39.39,0,0,1,.39-.39h.24a.4.4,0,0,1,.4.38h0v4.2a.4.4,0,0,1-.4.4h0"/><path class="cls-9" d="M97.29,12.83h-.24a.4.4,0,0,1-.4-.4h0V8.23A.39.39,0,0,1,97,7.84h.25a.39.39,0,0,1,.39.37v4.22a.38.38,0,0,1-.38.4h0"/><path class="cls-10" d="M97.93,9.16v-.4a.39.39,0,0,0-.39-.39h-.82a.45.45,0,0,0-.37.25H71.73a.4.4,0,0,0-.37-.25h-.82a.39.39,0,0,0-.39.37v.42a.39.39,0,0,0,.28.38v1.62a.4.4,0,0,0-.28.38V12a.38.38,0,0,0,.38.4h.83a.39.39,0,0,0,.37-.27H96.35a.39.39,0,0,0,.37.27h.82a.38.38,0,0,0,.39-.39h0V11.5a.39.39,0,0,0-.24-.34V9.53A.39.39,0,0,0,97.93,9.16Z"/><path class="cls-11" d="M95.74,11.68H72.28c-.18,0-.33-.09-.33-.2V9.26c0-.11.15-.2.33-.2H95.74c.19,0,.33.09.33.2v2.22c0,.11-.14.2-.33.2"/><path class="cls-9" d="M73.45,7H73a.12.12,0,0,0-.12.12h0v.4a.11.11,0,0,0,.1.12h0V8.7h.47V7.62a.12.12,0,0,0,.12-.12h0V7.1A.12.12,0,0,0,73.46,7h0"/><path class="cls-12" d="M73.4,9.1h-.61A.1.1,0,0,1,72.7,9V8.7a.09.09,0,0,1,.09-.09h.61a.11.11,0,0,1,.1.09V9a.1.1,0,0,1-.1.1"/><path class="cls-9" d="M73.45,13.76H73a.12.12,0,0,1-.12-.12h0v-.4a.12.12,0,0,1,.12-.08V12h.47v1.12a.12.12,0,0,1,.12.12h0v.4a.12.12,0,0,1-.12.12h0"/><path class="cls-12" d="M73.4,11.64h-.61a.11.11,0,0,0-.09.1V12a.08.08,0,0,0,.08.1h.62a.09.09,0,0,0,.1-.1v-.29a.12.12,0,0,0-.1-.1"/><path class="cls-9" d="M74.56,7h-.45A.12.12,0,0,0,74,7.1h0v.4a.11.11,0,0,0,.1.12h0V8.7h.47V7.62a.12.12,0,0,0,.12-.12h0V7.1A.12.12,0,0,0,74.57,7h0"/><path class="cls-12" d="M74.51,9.1H73.9a.1.1,0,0,1-.09-.1V8.7a.09.09,0,0,1,.09-.09h.61a.09.09,0,0,1,.09.09V9a.1.1,0,0,1-.09.1"/><path class="cls-9" d="M74.56,13.76h-.45a.12.12,0,0,1-.11-.12v-.4a.11.11,0,0,1,.1-.08V12h.47v1.12a.12.12,0,0,1,.12.12h0v.4a.12.12,0,0,1-.12.12h0"/><path class="cls-12" d="M74.51,11.64H73.9a.11.11,0,0,0-.09.1V12a.08.08,0,0,0,.08.1h.62A.09.09,0,0,0,74.6,12h0v-.29a.11.11,0,0,0-.09-.1"/><path class="cls-9" d="M75.74,7h-.46a.12.12,0,0,0-.12.12h0v.4a.12.12,0,0,0,.12.12h0V8.7h.47V7.62a.11.11,0,0,0,.11-.11h0V7.1A.12.12,0,0,0,75.74,7h0"/><path class="cls-12" d="M75.68,9.1h-.6A.09.09,0,0,1,75,9V8.7a.09.09,0,0,1,.09-.09h.61a.1.1,0,0,1,.1.08h0V9a.09.09,0,0,1-.1.1"/><path class="cls-9" d="M75.74,13.76h-.46a.12.12,0,0,1-.12-.12h0v-.4a.13.13,0,0,1,.12-.08V12h.47v1.12a.11.11,0,0,1,.11.11h0v.4a.12.12,0,0,1-.12.12h0"/><path class="cls-12" d="M75.68,11.64h-.6a.1.1,0,0,0-.1.1V12a.08.08,0,0,0,.08.1h.62a.09.09,0,0,0,.1-.08v-.31a.1.1,0,0,0-.1-.1"/><path class="cls-9" d="M76.89,7h-.46a.12.12,0,0,0-.12.12h0v.4a.12.12,0,0,0,.12.12h0V8.7h.47V7.62A.11.11,0,0,0,77,7.5h0V7.1A.12.12,0,0,0,76.88,7h0"/><path class="cls-12" d="M76.83,9.1h-.6a.09.09,0,0,1-.1-.1V8.7a.09.09,0,0,1,.09-.09h.61a.1.1,0,0,1,.1.08h0V9a.09.09,0,0,1-.1.1"/><path class="cls-9" d="M76.89,13.76h-.46a.12.12,0,0,1-.12-.12h0v-.4a.13.13,0,0,1,.12-.08V12h.47v1.12a.11.11,0,0,1,.11.11h0v.4a.12.12,0,0,1-.12.12h0"/><path class="cls-12" d="M76.83,11.64h-.6a.1.1,0,0,0-.1.1V12a.08.08,0,0,0,.08.1h.62a.09.09,0,0,0,.1-.08v-.31a.1.1,0,0,0-.1-.1"/><path class="cls-9" d="M78,7h-.46a.12.12,0,0,0-.12.12h0v.4a.12.12,0,0,0,.12.12h0V8.7H78V7.62a.12.12,0,0,0,.12-.12h0V7.1A.12.12,0,0,0,78,7h0"/><path class="cls-12" d="M78,9.1h-.6a.09.09,0,0,1-.1-.1V8.7a.09.09,0,0,1,.09-.09H78a.1.1,0,0,1,.1.08h0V9a.09.09,0,0,1-.1.1"/><path class="cls-9" d="M78,13.76h-.46a.12.12,0,0,1-.12-.12h0v-.4a.12.12,0,0,1,.13-.08V12H78v1.12a.12.12,0,0,1,.12.12h0v.4a.12.12,0,0,1-.12.08"/><path class="cls-12" d="M78,11.64h-.6a.1.1,0,0,0-.1.1V12a.08.08,0,0,0,.08.1H78a.09.09,0,0,0,.1-.08v-.31a.1.1,0,0,0-.1-.1"/><path class="cls-9" d="M79.12,7h-.46a.12.12,0,0,0-.12.12h0v.4a.12.12,0,0,0,.12.12h0V8.7h.46V7.62a.12.12,0,0,0,.12-.12h0V7.1A.12.12,0,0,0,79.12,7h0"/><path class="cls-12" d="M79.06,9.1h-.6a.09.09,0,0,1-.1-.1V8.7a.09.09,0,0,1,.09-.09h.61a.1.1,0,0,1,.1.08h0V9a.09.09,0,0,1-.1.1"/><path class="cls-9" d="M79.12,13.76h-.46a.12.12,0,0,1-.12-.12h0v-.4a.13.13,0,0,1,.12-.08V12h.46v1.12a.12.12,0,0,1,.12.12h0v.4a.12.12,0,0,1-.12.12h0"/><path class="cls-12" d="M79.06,11.64h-.6a.1.1,0,0,0-.1.1V12a.08.08,0,0,0,.08.1h.62a.09.09,0,0,0,.1-.08v-.31a.1.1,0,0,0-.1-.1"/><path class="cls-9" d="M80.24,7h-.46a.12.12,0,0,0-.12.12h0v.4a.12.12,0,0,0,.12.12h0V8.7h.47V7.62a.11.11,0,0,0,.11-.11h0V7.1A.12.12,0,0,0,80.24,7h0"/><path class="cls-12" d="M80.19,9.1h-.61a.1.1,0,0,1-.1-.1V8.7a.11.11,0,0,1,.1-.09h.61a.09.09,0,0,1,.09.09V9a.1.1,0,0,1-.09.1"/><path class="cls-9" d="M80.24,13.76h-.46a.12.12,0,0,1-.12-.12h0v-.4a.13.13,0,0,1,.12-.08V12h.47v1.12a.11.11,0,0,1,.11.11h0v.4a.12.12,0,0,1-.12.12h0"/><path class="cls-12" d="M80.19,11.64h-.61a.12.12,0,0,0-.1.1V12a.09.09,0,0,0,.1.1h.61a.09.09,0,0,0,.09-.09h0v-.29a.11.11,0,0,0-.09-.1"/><path class="cls-9" d="M81.38,7h-.46a.12.12,0,0,0-.12.12h0v.4a.11.11,0,0,0,.1.12h0V8.7h.47V7.62a.12.12,0,0,0,.12-.12h0V7.1A.12.12,0,0,0,81.38,7h0"/><path class="cls-12" d="M81.32,9.1h-.6a.09.09,0,0,1-.1-.1V8.7a.09.09,0,0,1,.09-.09h.61a.11.11,0,0,1,.1.09V9a.1.1,0,0,1-.1.1"/><path class="cls-9" d="M81.38,13.76h-.46a.12.12,0,0,1-.12-.12h0v-.4a.11.11,0,0,1,.11-.08V12h.47v1.12a.12.12,0,0,1,.12.12h0v.4a.12.12,0,0,1-.12.12h0"/><path class="cls-12" d="M81.32,11.64h-.6a.1.1,0,0,0-.1.1V12a.08.08,0,0,0,.08.1h.62a.09.09,0,0,0,.1-.1v-.29a.12.12,0,0,0-.1-.1"/><path class="cls-9" d="M82.51,7h-.45a.13.13,0,0,0-.13.11h0v.4a.12.12,0,0,0,.12.12h0V8.7h.47V7.62a.12.12,0,0,0,.12-.12h0V7.1A.12.12,0,0,0,82.52,7h0"/><path class="cls-12" d="M82.46,9.1h-.61a.1.1,0,0,1-.1-.1V8.7a.11.11,0,0,1,.1-.09h.61a.09.09,0,0,1,.09.09V9a.1.1,0,0,1-.09.1"/><path class="cls-9" d="M82.51,13.76h-.45a.12.12,0,0,1-.13-.11h0v-.4a.13.13,0,0,1,.12-.08V12h.47v1.12a.12.12,0,0,1,.12.12h0v.4a.12.12,0,0,1-.12.12h0"/><path class="cls-12" d="M82.46,11.64h-.61a.12.12,0,0,0-.1.1V12a.09.09,0,0,0,.1.1h.61a.09.09,0,0,0,.09-.09h0v-.29a.11.11,0,0,0-.09-.1"/><path class="cls-9" d="M83.64,7h-.46a.12.12,0,0,0-.12.12h0v.4a.11.11,0,0,0,.1.12h0V8.7h.47V7.62a.12.12,0,0,0,.12-.12h0V7.1A.12.12,0,0,0,83.64,7h0"/><path class="cls-12" d="M83.58,9.1H83a.1.1,0,0,1-.09-.1V8.7A.09.09,0,0,1,83,8.61h.61a.11.11,0,0,1,.1.09V9a.1.1,0,0,1-.1.1"/><path class="cls-9" d="M83.64,13.76h-.46a.12.12,0,0,1-.12-.12h0v-.4a.11.11,0,0,1,.11-.08V12h.47v1.12a.12.12,0,0,1,.12.12h0v.4a.12.12,0,0,1-.12.12h0"/><path class="cls-12" d="M83.58,11.64H83a.11.11,0,0,0-.09.1V12a.09.09,0,0,0,0,.12h.66a.09.09,0,0,0,.1-.1v-.32a.12.12,0,0,0-.1-.1"/><path class="cls-9" d="M84.8,7h-.46a.12.12,0,0,0-.12.12h0v.4a.12.12,0,0,0,.12.12h0V8.7h.46V7.62a.12.12,0,0,0,.12-.12h0V7.1A.12.12,0,0,0,84.8,7h0"/><path class="cls-12" d="M84.74,9.1h-.6A.09.09,0,0,1,84,9V8.7a.09.09,0,0,1,.09-.09h.61a.1.1,0,0,1,.1.08h0V9a.09.09,0,0,1-.1.1"/><path class="cls-9" d="M84.8,13.76h-.46a.12.12,0,0,1-.12-.12h0v-.4a.13.13,0,0,1,.12-.08V12h.46v1.12a.12.12,0,0,1,.12.12h0v.4a.12.12,0,0,1-.12.12h0"/><path class="cls-12" d="M84.74,11.64h-.6a.1.1,0,0,0-.1.1V12a.08.08,0,0,0,.08.1h.62a.09.09,0,0,0,.1-.08v-.31a.1.1,0,0,0-.1-.1"/><path class="cls-9" d="M85.93,7h-.45a.12.12,0,0,0-.12.12h0v.4a.11.11,0,0,0,.1.12h0V8.7h.47V7.62a.12.12,0,0,0,.12-.12h0V7.1A.12.12,0,0,0,85.94,7h0"/><path class="cls-12" d="M85.88,9.1h-.61a.1.1,0,0,1-.09-.1V8.7a.09.09,0,0,1,.09-.09h.61a.11.11,0,0,1,.1.09V9a.1.1,0,0,1-.1.1"/><path class="cls-9" d="M85.93,13.76h-.45a.12.12,0,0,1-.12-.12h0v-.4a.11.11,0,0,1,.11-.08V12h.47v1.12a.12.12,0,0,1,.12.12h0v.4a.12.12,0,0,1-.12.12h0"/><path class="cls-12" d="M85.88,11.64h-.61a.11.11,0,0,0-.09.1V12a.08.08,0,0,0,.08.1h.62A.09.09,0,0,0,86,12v-.29a.12.12,0,0,0-.1-.1"/><path class="cls-9" d="M87.17,7h-.46a.12.12,0,0,0-.12.12h0v.4a.12.12,0,0,0,.12.12h0V8.7h.47V7.62a.11.11,0,0,0,.11-.11h0V7.1A.12.12,0,0,0,87.17,7h0"/><path class="cls-12" d="M87.11,9.1h-.6a.1.1,0,0,1-.1-.1V8.7a.11.11,0,0,1,.1-.09h.6a.1.1,0,0,1,.1.08h0V9a.09.09,0,0,1-.1.1"/><path class="cls-9" d="M87.17,13.76h-.46a.12.12,0,0,1-.12-.12h0v-.4a.13.13,0,0,1,.12-.08V12h.47v1.12a.11.11,0,0,1,.11.11h0v.4a.12.12,0,0,1-.12.12h0"/><path class="cls-12" d="M87.11,11.64h-.6a.12.12,0,0,0-.1.1V12a.09.09,0,0,0,.1.1h.6a.09.09,0,0,0,.1-.08v-.31a.1.1,0,0,0-.1-.1"/><path class="cls-9" d="M88.28,7h-.46a.12.12,0,0,0-.12.12h0v.4a.12.12,0,0,0,.12.12h0V8.7h.47V7.62a.11.11,0,0,0,.11-.11h0V7.1A.12.12,0,0,0,88.28,7h0"/><path class="cls-12" d="M88.22,9.1h-.6a.1.1,0,0,1-.1-.1V8.7a.11.11,0,0,1,.1-.09h.6a.1.1,0,0,1,.1.08h0V9a.09.09,0,0,1-.1.1"/><path class="cls-9" d="M88.28,13.76h-.46a.12.12,0,0,1-.12-.12h0v-.4a.13.13,0,0,1,.12-.08V12h.47v1.12a.11.11,0,0,1,.11.11h0v.4a.12.12,0,0,1-.12.12h0"/><path class="cls-12" d="M88.22,11.64h-.6a.12.12,0,0,0-.1.1V12a.09.09,0,0,0,.1.1h.6a.09.09,0,0,0,.1-.08v-.31a.1.1,0,0,0-.1-.1"/><path class="cls-9" d="M89.4,7H89a.13.13,0,0,0-.13.11h0v.4a.12.12,0,0,0,.12.12h0V8.7h.47V7.62a.11.11,0,0,0,.11-.11h0V7.1A.12.12,0,0,0,89.45,7h0"/><path class="cls-12" d="M89.35,9.1h-.61a.1.1,0,0,1-.1-.1V8.7a.11.11,0,0,1,.1-.09h.61a.09.09,0,0,1,.09.09V9a.1.1,0,0,1-.09.1"/><path class="cls-9" d="M89.4,13.76H89a.12.12,0,0,1-.13-.11h0v-.4a.18.18,0,0,1,.07-.08V12h.47v1.12a.11.11,0,0,1,.11.11h0v.4a.12.12,0,0,1-.12.12h0"/><path class="cls-12" d="M89.35,11.64h-.61a.12.12,0,0,0-.1.1V12a.09.09,0,0,0,.1.1h.61a.09.09,0,0,0,.09-.09h0v-.29a.11.11,0,0,0-.09-.1"/><path class="cls-9" d="M90.54,7h-.46A.12.12,0,0,0,90,7.1h0v.4a.12.12,0,0,0,.12.12h0V8.7h.47V7.62a.11.11,0,0,0,.11-.11h0V7.1A.12.12,0,0,0,90.54,7h0"/><path class="cls-12" d="M90.48,9.1h-.6a.09.09,0,0,1-.1-.1V8.7a.09.09,0,0,1,.09-.09h.61a.1.1,0,0,1,.1.08h0V9a.09.09,0,0,1-.1.1"/><path class="cls-9" d="M90.54,13.76h-.46a.12.12,0,0,1-.08-.12v-.4a.11.11,0,0,1,.08-.08V12h.47v1.12a.11.11,0,0,1,.11.11h0v.4a.12.12,0,0,1-.12.12h0"/><path class="cls-12" d="M90.48,11.64h-.6a.1.1,0,0,0-.1.1V12a.08.08,0,0,0,.08.1h.62a.09.09,0,0,0,.1-.08v-.31a.1.1,0,0,0-.1-.1"/><path class="cls-9" d="M91.67,7h-.45a.12.12,0,0,0-.12.12h0v.4a.11.11,0,0,0,.1.12h0V8.7h.47V7.62a.12.12,0,0,0,.12-.12h0V7.1A.12.12,0,0,0,91.68,7h0"/><path class="cls-12" d="M91.62,9.1H91a.1.1,0,0,1-.09-.1V8.7A.09.09,0,0,1,91,8.61h.61a.11.11,0,0,1,.1.09V9a.1.1,0,0,1-.1.1"/><path class="cls-9" d="M91.67,13.76h-.45a.12.12,0,0,1-.12-.12h0v-.4a.11.11,0,0,1,.11-.08V12h.47v1.12a.12.12,0,0,1,.12.12h0v.4a.12.12,0,0,1-.12.12h0"/><path class="cls-12" d="M91.62,11.64H91a.11.11,0,0,0-.09.1V12a.09.09,0,0,0,0,.12h.66a.09.09,0,0,0,.1-.1v-.32a.12.12,0,0,0-.1-.1"/><path class="cls-9" d="M92.8,7h-.46a.12.12,0,0,0-.12.12h0v.4a.12.12,0,0,0,.12.12h0V8.7h.46V7.62a.12.12,0,0,0,.12-.12h0V7.1A.12.12,0,0,0,92.8,7h0"/><path class="cls-12" d="M92.74,9.1h-.6A.09.09,0,0,1,92,9V8.7a.09.09,0,0,1,.09-.09h.61a.1.1,0,0,1,.1.08h0V9a.09.09,0,0,1-.1.1"/><path class="cls-9" d="M92.8,13.76h-.46a.12.12,0,0,1-.12-.12h0v-.4a.13.13,0,0,1,.12-.08V12h.46v1.12a.12.12,0,0,1,.12.12h0v.4a.12.12,0,0,1-.12.12h0"/><path class="cls-12" d="M92.74,11.64h-.6a.1.1,0,0,0-.1.1V12a.08.08,0,0,0,.08.1h.62a.09.09,0,0,0,.1-.08v-.31a.1.1,0,0,0-.1-.1"/><path class="cls-9" d="M94,7h-.5a.12.12,0,0,0-.12.12h0v.4a.12.12,0,0,0,.12.12h0V8.7H94V7.62a.11.11,0,0,0,.11-.11h0V7.1A.13.13,0,0,0,94,7"/><path class="cls-12" d="M93.9,9.1h-.6a.1.1,0,0,1-.1-.1V8.7a.11.11,0,0,1,.1-.09h.6a.1.1,0,0,1,.1.08h0V9a.09.09,0,0,1-.1.1"/><path class="cls-9" d="M94,13.76h-.5a.12.12,0,0,1-.12-.12h0v-.4a.13.13,0,0,1,.12-.08V12H94v1.12a.11.11,0,0,1,.11.11h0v.4a.12.12,0,0,1-.11.08"/><path class="cls-12" d="M93.9,11.64h-.6a.12.12,0,0,0-.1.1V12a.09.09,0,0,0,.1.1h.6a.09.09,0,0,0,.1-.08v-.31a.1.1,0,0,0-.1-.1"/><path class="cls-9" d="M95.1,7h-.46a.12.12,0,0,0-.12.12h0v.4a.11.11,0,0,0,.1.12h0V8.7h.47V7.62a.12.12,0,0,0,.12-.12h0V7.1A.12.12,0,0,0,95.1,7h0"/><path class="cls-12" d="M95,9.1h-.6a.09.09,0,0,1-.1-.1V8.7a.09.09,0,0,1,.09-.09H95a.11.11,0,0,1,.1.09V9a.1.1,0,0,1-.1.1"/><path class="cls-9" d="M95.1,13.76h-.46a.12.12,0,0,1-.12-.12h0v-.4a.11.11,0,0,1,.11-.08V12h.47v1.12a.12.12,0,0,1,.12.12h0v.4a.12.12,0,0,1-.12.12h0"/><path class="cls-12" d="M95,11.64h-.6a.1.1,0,0,0-.1.1V12a.08.08,0,0,0,.08.1H95a.09.09,0,0,0,.1-.1v-.29a.12.12,0,0,0-.1-.1"/><path class="cls-12" d="M70.43,8.85c0-.13.19-.24.42-.24s.41.11.41.24-.18.25-.41.25-.42-.11-.42-.25"/><path class="cls-12" d="M70.43,11.85c0-.14.19-.25.42-.25s.41.11.41.25-.18.24-.41.24-.42-.11-.42-.24"/><path class="cls-12" d="M96.75,8.85c0-.13.19-.24.42-.24s.42.11.42.24-.19.25-.42.25-.42-.11-.42-.25"/><path class="cls-12" d="M96.75,11.85c0-.14.19-.25.42-.25s.42.11.42.25-.19.24-.42.24-.42-.11-.42-.24"/><path class="cls-13" d="M71.9,13.59H69.51a.42.42,0,0,1-.42-.42h0v-6a.41.41,0,0,1,.41-.41h2.4a.25.25,0,0,1,0,.5H69.59v5.84H71.9a.25.25,0,0,1,0,.5Z"/><path class="cls-13" d="M96.31,13.59H98.7a.41.41,0,0,0,.41-.41v-6a.41.41,0,0,0-.41-.41H96.31a.25.25,0,0,0,0,.5h2.3v5.84h-2.3a.25.25,0,0,0,0,.5Z"/><rect class="cls-14" x="136.55" y="12.14" width="2.47" height="2.91" rx="0.41"/><polygon class="cls-14" points="142.39 13.59 140.93 15.04 138 15.04 136.54 13.59 138 12.14 140.93 12.14 142.39 13.59"/><path class="cls-13" d="M137.5,12.71h.35l.66,1.07h0V12.71h.33V14.3h-.35l-.66-1.06h0V14.3h-.33Z"/><path class="cls-13" d="M140.2,13.25a.35.35,0,0,0-.35-.28c-.31,0-.43.27-.43.54s.12.53.43.53a.36.36,0,0,0,.36-.35h.34a.67.67,0,0,1-.7.65.83.83,0,0,1,0-1.66.65.65,0,0,1,.69.57Z"/><rect class="cls-14" x="136.55" width="2.47" height="2.91" rx="0.41"/><polygon class="cls-14" points="142.39 1.45 140.93 2.9 138 2.9 136.54 1.45 138 0 140.93 0 142.39 1.45"/><path class="cls-13" d="M137.5.58h.35l.66,1.06h0V.58h.33V2.16h-.35l-.66-1.06h0V2.16h-.33Z"/><path class="cls-13" d="M140.2,1.11a.36.36,0,0,0-.35-.28c-.31,0-.43.27-.43.55s.12.53.43.53a.36.36,0,0,0,.36-.36h.34a.67.67,0,0,1-.7.65.77.77,0,0,1-.78-.82.78.78,0,0,1,.78-.84.65.65,0,0,1,.69.57Z"/><rect class="cls-14" x="136.55" y="16.07" width="2.47" height="2.91" rx="0.41"/><polygon class="cls-14" points="142.39 17.52 140.93 18.97 138 18.97 136.54 17.52 138 16.07 140.93 16.07 142.39 17.52"/><path class="cls-13" d="M137.5,16.65h.35l.66,1.06h0V16.65h.33v1.58h-.35l-.66-1.06h0v1.06h-.33Z"/><path class="cls-13" d="M140.2,17.18a.36.36,0,0,0-.35-.28c-.31,0-.43.27-.43.54s.12.54.43.54a.36.36,0,0,0,.36-.36h.34a.67.67,0,0,1-.7.65.83.83,0,0,1,0-1.66.65.65,0,0,1,.69.57Z"/><rect class="cls-14" x="136.56" y="44.21" width="2.47" height="2.91" rx="0.41"/><polygon class="cls-14" points="142.4 45.66 140.94 47.12 138.02 47.12 136.56 45.66 138.02 44.21 140.94 44.21 142.4 45.66"/><path class="cls-13" d="M137.51,44.79h.36l.66,1.06h0V44.79h.32v1.58h-.35l-.66-1.06h0v1.06h-.32Z"/><path class="cls-13" d="M140.21,45.32a.33.33,0,0,0-.34-.27c-.32,0-.43.26-.43.54s.11.53.43.53a.36.36,0,0,0,.36-.36h.34a.67.67,0,0,1-.7.65.77.77,0,0,1-.78-.82.78.78,0,0,1,.78-.84.64.64,0,0,1,.68.57Z"/><polygon class="cls-15" points="124.48 9.52 123.02 10.97 120.11 10.97 118.65 9.52 120.11 8.06 123.02 8.06 124.48 9.52"/><path class="cls-15" d="M122.23,8.06h4.32a.43.43,0,0,1,.43.43v2.06a.43.43,0,0,1-.43.43h-4.32a0,0,0,0,1,0,0V8.06a0,0,0,0,1,0,0Z"/><path class="cls-13" d="M120.32,9.3c.14,0,.33,0,.33-.19a.2.2,0,0,0-.22-.21c-.16,0-.24.12-.24.28h-.3a.51.51,0,0,1,.54-.54.48.48,0,0,1,.53.43.32.32,0,0,1-.22.32h0a.35.35,0,0,1,.28.35.54.54,0,0,1-.59.52.53.53,0,0,1-.58-.57h.3c0,.17.09.31.28.31a.24.24,0,0,0,.25-.25c0-.24-.2-.23-.36-.23Z"/><path class="cls-13" d="M121.82,10.24h-.35l-.4-1.16h.34l.24.79h0l.25-.79h.32Z"/><path class="cls-13" d="M122.74,9.3c.14,0,.34,0,.34-.19a.21.21,0,0,0-.23-.21c-.16,0-.24.12-.24.28h-.3a.52.52,0,0,1,.54-.54.48.48,0,0,1,.53.43.32.32,0,0,1-.22.32h0a.35.35,0,0,1,.28.35.54.54,0,0,1-.59.52.53.53,0,0,1-.58-.57h.3c0,.17.09.31.28.31a.24.24,0,0,0,.25-.25c0-.24-.2-.23-.36-.23Z"/><path class="cls-13" d="M123.48,10.41h1.12v.11h-1.12Z"/><path class="cls-13" d="M125,9.71c0,.21.17.29.35.29s.32,0,.32-.2-.25-.2-.48-.26-.48-.16-.48-.46.31-.48.6-.48.64.14.64.51h-.34c0-.19-.14-.24-.31-.24s-.25.05-.25.18.08.15.48.25c.12,0,.48.1.48.46s-.23.52-.67.52-.69-.18-.68-.57Z"/><rect class="cls-14" x="124.51" width="2.47" height="2.91" rx="0.41"/><polygon class="cls-14" points="122.6 0 125.52 0 126.98 1.45 125.52 2.9 122.6 2.9 121.14 1.45 122.6 0"/><path class="cls-13" d="M123.05.58h.35l.66,1.06h0V.58h.32V2.16H124l-.66-1.06h0V2.16h-.32Z"/><path class="cls-13" d="M125.74,1.11a.35.35,0,0,0-.34-.28c-.32,0-.43.27-.43.55s.11.53.43.53a.36.36,0,0,0,.36-.36h.34a.67.67,0,0,1-.7.65.77.77,0,0,1-.78-.82.78.78,0,0,1,.78-.84.64.64,0,0,1,.68.57Z"/><rect class="cls-14" x="124.51" y="12.16" width="2.47" height="2.91" rx="0.41"/><polygon class="cls-14" points="122.6 12.16 125.52 12.16 126.98 13.61 125.52 15.06 122.6 15.06 121.14 13.61 122.6 12.16"/><path class="cls-13" d="M123.05,12.73h.35l.66,1.07h0V12.73h.32v1.59H124l-.66-1.06h0v1.06h-.32Z"/><path class="cls-13" d="M125.74,13.27a.34.34,0,0,0-.34-.28c-.32,0-.43.27-.43.54s.11.53.43.53a.36.36,0,0,0,.36-.35h.34a.68.68,0,0,1-.7.65.83.83,0,0,1,0-1.66.64.64,0,0,1,.68.57Z"/><rect class="cls-14" x="124.51" y="28.01" width="2.47" height="2.91" rx="0.41"/><polygon class="cls-14" points="122.6 28 125.52 28 126.98 29.46 125.52 30.91 122.6 30.91 121.14 29.46 122.6 28"/><path class="cls-13" d="M123.05,28.58h.35l.66,1.07h0V28.58h.32v1.59H124l-.66-1.06h0v1.06h-.32Z"/><path class="cls-13" d="M125.74,29.12a.34.34,0,0,0-.34-.28c-.32,0-.43.27-.43.54s.11.53.43.53a.36.36,0,0,0,.36-.35h.34a.67.67,0,0,1-.7.64.76.76,0,0,1-.78-.82.78.78,0,0,1,.78-.84.65.65,0,0,1,.68.57Z"/><rect class="cls-16" x="132.29" width="4.25" height="79.19"/><rect class="cls-16" x="126.98" width="4.25" height="79.19"/><rect class="cls-17" x="124.51" y="4.03" width="2.47" height="2.9" rx="0.41"/><rect class="cls-14" x="127.52" width="3.71" height="2.9" rx="0.35"/><rect class="cls-17" x="127.52" y="3.97" width="3.71" height="2.9" rx="0.35"/><rect class="cls-15" x="127.52" y="8.07" width="3.71" height="2.9" rx="0.35"/><rect class="cls-14" x="127.52" y="12.16" width="3.71" height="2.9" rx="0.35"/><rect class="cls-18" x="127.52" y="16.07" width="3.71" height="2.9" rx="0.35"/><rect class="cls-19" x="127.52" y="19.99" width="3.71" height="2.9" rx="0.35"/><rect class="cls-20" x="127.52" y="24.03" width="3.71" height="2.9" rx="0.35"/><rect class="cls-14" x="127.52" y="28.01" width="3.71" height="2.9" rx="0.35"/><rect class="cls-15" x="127.52" y="32.02" width="3.71" height="2.9" rx="0.35"/><rect class="cls-18" x="127.52" y="36.08" width="3.71" height="2.9" rx="0.35"/><rect class="cls-21" x="127.52" y="40.27" width="3.71" height="2.9" rx="0.35"/><rect class="cls-18" x="127.52" y="44.21" width="3.71" height="2.9" rx="0.35"/><rect class="cls-14" x="132.29" width="3.71" height="2.9" rx="0.35"/><rect class="cls-17" x="132.29" y="3.97" width="3.71" height="2.9" rx="0.35"/><rect class="cls-15" x="132.29" y="8.07" width="3.71" height="2.9" rx="0.35"/><rect class="cls-14" x="132.29" y="12.16" width="3.71" height="2.9" rx="0.35"/><rect class="cls-14" x="132.29" y="16.07" width="3.71" height="2.9" rx="0.35"/><rect class="cls-19" x="132.29" y="19.99" width="3.71" height="2.9" rx="0.35"/><rect class="cls-22" x="132.29" y="24.03" width="3.71" height="2.9" rx="0.35"/><rect class="cls-20" x="132.29" y="28.01" width="3.71" height="2.9" rx="0.35"/><rect class="cls-15" x="132.29" y="32.02" width="3.71" height="2.9" rx="0.35"/><rect class="cls-18" x="132.29" y="36.08" width="3.71" height="2.9" rx="0.35"/><rect class="cls-21" x="132.29" y="40.27" width="3.71" height="2.9" rx="0.35"/><rect class="cls-14" x="132.29" y="44.21" width="3.71" height="2.9" rx="0.35"/><rect class="cls-21" x="132.29" y="48.15" width="3.71" height="2.9" rx="0.35"/><rect class="cls-21" x="132.29" y="52.07" width="3.71" height="2.9" rx="0.35"/><rect class="cls-18" x="132.29" y="56.11" width="3.71" height="2.9" rx="0.35"/><rect class="cls-18" x="132.29" y="60.09" width="3.71" height="2.9" rx="0.35"/><rect class="cls-19" x="132.29" y="64.1" width="3.71" height="2.9" rx="0.35"/><rect class="cls-23" x="132.29" y="68.16" width="3.71" height="2.9" rx="0.35"/><rect class="cls-23" x="132.29" y="72.35" width="3.71" height="2.9" rx="0.35"/><path class="cls-13" d="M132.86,49.45a.62.62,0,0,1,.63-.71.55.55,0,0,1,.59.54c0,.53-.56.57-.81.93h.83v.31h-1.28c0-.41.24-.58.55-.78.15-.11.36-.21.36-.43a.25.25,0,0,0-.23-.27h0c-.21,0-.28.22-.28.4Z"/><path class="cls-13" d="M135.39,49.06h-.72l-.07.4h0a.41.41,0,0,1,.34-.14.54.54,0,0,1,.54.59.64.64,0,0,1-.63.64h0a.59.59,0,0,1-.65-.56h.36a.27.27,0,0,0,.28.26.31.31,0,0,0,.31-.32h0a.31.31,0,0,0-.28-.33h0a.3.3,0,0,0-.27.14h-.32l.18-1h1Z"/><path class="cls-13" d="M132.86,53.29a.61.61,0,0,1,.63-.7.54.54,0,0,1,.59.54c0,.52-.56.57-.81.93h.83v.3h-1.28c0-.41.24-.57.55-.78.15-.11.36-.21.36-.43a.26.26,0,0,0-.23-.27h0c-.21,0-.28.22-.28.4Z"/><path class="cls-13" d="M135.43,52.92a2.2,2.2,0,0,0-.57,1.45h-.37a2.56,2.56,0,0,1,.58-1.42h-.82v-.33h1.18Z"/><path class="cls-13" d="M133.33,65.42c.15,0,.37,0,.37-.22a.23.23,0,0,0-.23-.23h0a.27.27,0,0,0-.27.31h-.34a.57.57,0,0,1,.6-.6.54.54,0,0,1,.59.48.36.36,0,0,1-.25.37h0a.37.37,0,0,1,.31.39.59.59,0,0,1-.65.57.58.58,0,0,1-.64-.63h.33c0,.19.1.35.31.35a.28.28,0,0,0,.28-.26h0c0-.27-.23-.26-.4-.26Z"/><path class="cls-13" d="M134.71,65.42c.16,0,.38,0,.38-.22a.24.24,0,0,0-.23-.23h0a.27.27,0,0,0-.27.31h-.34a.58.58,0,0,1,.61-.6.54.54,0,0,1,.58.48.36.36,0,0,1-.24.37h0a.39.39,0,0,1,.31.39.65.65,0,0,1-1.3-.06h.34c0,.19.1.35.3.35a.28.28,0,0,0,.29-.26h0c0-.27-.23-.26-.41-.26Z"/><path class="cls-13" d="M133.33,69.49c.15,0,.37,0,.37-.21a.23.23,0,0,0-.23-.23h0c-.18,0-.27.13-.27.31h-.34a.58.58,0,0,1,.6-.61.55.55,0,0,1,.59.49.35.35,0,0,1-.25.36h0a.38.38,0,0,1,.31.39.6.6,0,0,1-.65.58.59.59,0,0,1-.64-.63h.33c0,.18.1.34.31.34a.27.27,0,0,0,.28-.26h0c0-.27-.23-.26-.4-.26Z"/><path class="cls-13" d="M135.39,69.08h-.72l-.07.4h0a.43.43,0,0,1,.34-.13.54.54,0,0,1,.54.59.64.64,0,0,1-.64.63h0a.59.59,0,0,1-.65-.56h.36a.28.28,0,0,0,.28.27.33.33,0,0,0,.31-.33h0a.32.32,0,0,0-.28-.33h0a.3.3,0,0,0-.27.14h-.31l.17-1h1Z"/><path class="cls-13" d="M132.86,57.4a.61.61,0,0,1,.63-.7.54.54,0,0,1,.59.54c0,.53-.56.57-.81.93h.83v.3h-1.28c0-.4.24-.57.55-.77.15-.11.36-.22.36-.43a.25.25,0,0,0-.23-.27h0c-.21,0-.28.22-.28.4Z"/><path class="cls-13" d="M134.57,58a.25.25,0,0,0,.23.22c.26,0,.32-.34.33-.53h0a.45.45,0,0,1-.39.2.59.59,0,0,1-.41-.19.57.57,0,0,1-.13-.38.6.6,0,0,1,.61-.64c.53,0,.67.46.67.9s-.19.91-.68.91a.53.53,0,0,1-.57-.48Zm.53-.72a.31.31,0,0,0-.27-.32h0a.29.29,0,0,0-.27.32c0,.16.08.33.27.33s.28-.15.28-.33Z"/><path class="cls-13" d="M133.33,61.48c.15,0,.37,0,.37-.22a.23.23,0,0,0-.23-.23h0c-.18,0-.27.13-.27.31h-.34a.57.57,0,0,1,.6-.6.54.54,0,0,1,.59.48.35.35,0,0,1-.25.36h0a.39.39,0,0,1,.31.4.6.6,0,0,1-.65.57.58.58,0,0,1-.64-.63h.33c0,.19.1.34.31.34a.27.27,0,0,0,.28-.25v0c0-.26-.23-.26-.4-.26Z"/><path class="cls-13" d="M135.12,62.51h-.35V61.38h-.44v-.27c.25,0,.47-.08.51-.34h.28Z"/><path class="cls-13" d="M133.33,73.7c.15,0,.37,0,.37-.22a.23.23,0,0,0-.23-.23h0c-.18,0-.27.13-.27.31h-.34a.57.57,0,0,1,.6-.6.54.54,0,0,1,.59.48.35.35,0,0,1-.25.36h0a.39.39,0,0,1,.31.4.6.6,0,0,1-.65.57.58.58,0,0,1-.64-.63h.33c0,.19.1.34.31.34a.27.27,0,0,0,.28-.25v0c0-.26-.23-.26-.4-.26Z"/><path class="cls-13" d="M135.43,73.3a2.17,2.17,0,0,0-.57,1.44h-.37a2.56,2.56,0,0,1,.58-1.42h-.82V73h1.18Z"/><rect class="cls-17" x="132.29" y="76.29" width="3.71" height="2.9" rx="0.35"/><rect class="cls-21" x="127.52" y="48.15" width="3.71" height="2.9" rx="0.35"/><path class="cls-13" d="M133.33,77.65c.15,0,.37,0,.37-.22a.23.23,0,0,0-.23-.23h0c-.18,0-.27.13-.27.31h-.34a.57.57,0,0,1,.6-.6.54.54,0,0,1,.59.48.35.35,0,0,1-.25.36h0a.39.39,0,0,1,.31.4.6.6,0,0,1-.65.57.58.58,0,0,1-.64-.63h.33c0,.19.1.34.31.34a.26.26,0,0,0,.28-.25v0c0-.26-.23-.25-.4-.25Z"/><path class="cls-13" d="M134.57,78.24a.25.25,0,0,0,.23.22c.26,0,.32-.34.33-.53h0a.45.45,0,0,1-.39.2.62.62,0,0,1-.41-.18.61.61,0,0,1-.13-.39.6.6,0,0,1,.61-.64c.53,0,.67.46.67.9s-.19.91-.68.91a.53.53,0,0,1-.57-.48Zm.53-.71a.3.3,0,0,0-.28-.33.29.29,0,0,0-.27.32c0,.16.08.33.27.33a.28.28,0,0,0,.28-.32Z"/><rect class="cls-21" x="127.52" y="52.07" width="3.71" height="2.9" rx="0.35"/><rect class="cls-14" x="127.52" y="56.11" width="3.71" height="2.9" rx="0.35"/><rect class="cls-18" x="127.52" y="60.09" width="3.71" height="2.9" rx="0.35"/><rect class="cls-19" x="127.52" y="64.1" width="3.71" height="2.9" rx="0.35"/><rect class="cls-23" x="127.52" y="68.16" width="3.71" height="2.9" rx="0.35"/><rect class="cls-23" x="127.52" y="72.35" width="3.71" height="2.9" rx="0.35"/><rect class="cls-17" x="127.52" y="76.29" width="3.71" height="2.9" rx="0.35"/><path class="cls-13" d="M128.78,1.44a.61.61,0,0,1,.63-.7.55.55,0,0,1,.6.54c0,.53-.56.57-.82.93H130v.3h-1.28c0-.4.25-.57.55-.78s.36-.21.36-.42a.24.24,0,0,0-.23-.27h0c-.21,0-.27.21-.27.4Z"/><path class="cls-13" d="M128.09,49.45a.62.62,0,0,1,.63-.71.55.55,0,0,1,.59.55c0,.53-.56.57-.81.93h.82v.3H128c0-.41.25-.57.55-.78s.37-.21.37-.42a.25.25,0,0,0-.23-.27h0c-.21,0-.28.22-.28.41Z"/><path class="cls-13" d="M130.34,49.22a.23.23,0,0,0-.23-.21c-.25,0-.33.33-.33.53h0a.44.44,0,0,1,.39-.19.54.54,0,0,1,.41.18.59.59,0,0,1,.13.39.6.6,0,0,1-.57.63h0c-.53,0-.67-.46-.67-.9s.19-.91.68-.91a.54.54,0,0,1,.57.48Zm-.53.72a.29.29,0,0,0,.27.32h0a.29.29,0,0,0,.27-.32c0-.16-.08-.33-.27-.33s-.28.15-.28.33Z"/><path class="cls-13" d="M128.56,61.51c.15,0,.37,0,.37-.22a.23.23,0,0,0-.23-.23h0c-.18,0-.27.13-.27.31h-.34a.57.57,0,0,1,.6-.6.54.54,0,0,1,.59.48.35.35,0,0,1-.25.36h0a.39.39,0,0,1,.31.4.59.59,0,0,1-.64.57A.58.58,0,0,1,128,62h.33c0,.19.11.34.31.34A.26.26,0,0,0,129,62v0c0-.26-.23-.26-.4-.26Z"/><path class="cls-13" d="M129.47,61.47a.61.61,0,0,1,.63-.7.55.55,0,0,1,.6.54c0,.53-.56.57-.81.93h.82v.3h-1.28c0-.4.25-.57.55-.78s.37-.21.37-.42a.25.25,0,0,0-.23-.27h0c-.21,0-.28.21-.28.4Z"/><path class="cls-13" d="M128.56,69.52c.15,0,.37,0,.37-.21a.23.23,0,0,0-.23-.23h0c-.18,0-.27.13-.27.31h-.34a.57.57,0,0,1,.6-.6.54.54,0,0,1,.59.48.35.35,0,0,1-.25.36h0a.39.39,0,0,1,.31.4A.65.65,0,0,1,128,70h.33c0,.19.11.34.31.34a.26.26,0,0,0,.28-.26h0c0-.26-.23-.26-.4-.26Z"/><path class="cls-13" d="M130.34,69.27a.25.25,0,0,0-.23-.22c-.25,0-.33.34-.33.53h0a.44.44,0,0,1,.39-.19.58.58,0,0,1,.41.18.61.61,0,0,1,.13.39.6.6,0,0,1-.57.63h0c-.53,0-.67-.46-.67-.9s.19-.91.68-.91a.54.54,0,0,1,.57.48Zm-.53.71a.3.3,0,0,0,.27.33h0a.29.29,0,0,0,.27-.32c0-.16-.08-.33-.27-.33a.28.28,0,0,0-.28.32Z"/><path class="cls-13" d="M128.56,73.73c.15,0,.37,0,.37-.21a.23.23,0,0,0-.23-.24h0a.27.27,0,0,0-.27.31h-.34a.57.57,0,0,1,.6-.6.54.54,0,0,1,.59.48.36.36,0,0,1-.25.37h0a.39.39,0,0,1,.31.4.59.59,0,0,1-.64.57.58.58,0,0,1-.65-.63h.33c0,.19.11.34.31.34a.26.26,0,0,0,.28-.26h0c0-.26-.23-.26-.4-.26Z"/><path class="cls-13" d="M130.07,73a.52.52,0,0,1,.59.47.38.38,0,0,1-.26.36h0a.41.41,0,0,1,.33.42.59.59,0,0,1-.65.55c-.33,0-.67-.17-.67-.54a.42.42,0,0,1,.33-.43h0a.36.36,0,0,1-.26-.36A.53.53,0,0,1,130.07,73Zm0,1.55a.3.3,0,0,0,.3-.28v0a.29.29,0,0,0-.28-.28h0a.28.28,0,0,0-.31.28.3.3,0,0,0,.29.3h0Zm0-.82a.23.23,0,0,0,.26-.23.23.23,0,0,0-.22-.24h0a.25.25,0,0,0-.27.22v0a.25.25,0,0,0,.27.24Z"/><path class="cls-13" d="M128.77,78.21H128v-.32l.76-1h.32v1h.23v.29h-.23v.4h-.34Zm0-.9h0l-.45.61h.46Z"/><path class="cls-13" d="M130.07,76.83c.35,0,.64.22.64.91s-.29.91-.64.91-.64-.22-.64-.91S129.72,76.83,130.07,76.83Zm0,1.53c.29,0,.29-.43.29-.63s0-.6-.29-.6-.29.42-.29.6S129.78,78.36,130.07,78.36Z"/><path class="cls-13" d="M128.09,53.29a.61.61,0,0,1,.63-.7.54.54,0,0,1,.59.54c0,.52-.56.57-.81.93h.82v.3H128c0-.41.25-.57.55-.78s.37-.21.37-.43a.26.26,0,0,0-.23-.27h0c-.21,0-.28.22-.28.4Z"/><path class="cls-13" d="M130.07,52.59c.44,0,.59.29.59.46a.36.36,0,0,1-.26.36h0a.41.41,0,0,1,.33.43.58.58,0,0,1-.65.54c-.33,0-.67-.17-.67-.54a.42.42,0,0,1,.33-.43h0a.36.36,0,0,1-.26-.36C129.48,52.75,129.79,52.59,130.07,52.59Zm0,1.54a.29.29,0,0,0,.3-.27v0a.28.28,0,0,0-.28-.28h0a.28.28,0,0,0-.31.27.29.29,0,0,0,.29.3h0Zm0-.81a.23.23,0,0,0,.26-.23.22.22,0,0,0-.22-.24h0a.24.24,0,0,0-.27.21v0a.26.26,0,0,0,.27.24Z"/><path class="cls-13" d="M128.56,57.47c.15,0,.37,0,.37-.21a.23.23,0,0,0-.23-.23h0c-.18,0-.27.13-.27.31h-.34a.57.57,0,0,1,.6-.6.54.54,0,0,1,.59.48.35.35,0,0,1-.25.36h0a.39.39,0,0,1,.31.4.65.65,0,0,1-1.29-.06h.33c0,.19.11.34.31.34A.26.26,0,0,0,129,58h0c0-.26-.23-.26-.4-.26Z"/><path class="cls-13" d="M130.07,56.73c.35,0,.64.22.64.9s-.29.92-.64.92-.64-.22-.64-.92S129.72,56.73,130.07,56.73Zm0,1.52c.29,0,.29-.42.29-.62s0-.61-.29-.61-.29.43-.29.61S129.78,58.25,130.07,58.25Z"/><path class="cls-13" d="M128.56,65.42c.15,0,.37,0,.37-.22a.23.23,0,0,0-.23-.23h0a.27.27,0,0,0-.27.31h-.34a.57.57,0,0,1,.6-.6.54.54,0,0,1,.59.48.36.36,0,0,1-.25.37h0a.37.37,0,0,1,.31.39.65.65,0,0,1-1.29-.06h.33c0,.19.11.35.31.35A.27.27,0,0,0,129,66h0c0-.27-.23-.26-.4-.26Z"/><path class="cls-13" d="M130.15,66.06h-.74v-.33l.76-1h.32v1h.23v.3h-.23v.4h-.34Zm0-.9h0l-.45.6h.45Z"/><path class="cls-13" d="M134.43,2.41h-.35V1.28h-.44V1c.25,0,.47-.08.51-.35h.28Z"/><path class="cls-13" d="M134,5.34c.15,0,.37,0,.37-.21a.23.23,0,0,0-.22-.24h0c-.18,0-.27.13-.27.31h-.34a.58.58,0,0,1,.6-.61.55.55,0,0,1,.59.49.35.35,0,0,1-.25.36h0a.39.39,0,0,1,.31.4.65.65,0,0,1-1.29-.06h.33c0,.19.11.34.31.34a.26.26,0,0,0,.28-.25v0c0-.26-.23-.26-.4-.26Z"/><path class="cls-13" d="M134.7,9H134l-.07.4h0a.45.45,0,0,1,.35-.13.54.54,0,0,1,.54.59.63.63,0,0,1-.63.63h0a.58.58,0,0,1-.65-.55h.36a.27.27,0,0,0,.28.26.31.31,0,0,0,.3-.33h0a.3.3,0,0,0-.27-.33h0a.3.3,0,0,0-.27.14h-.32l.18-1h1Z"/><path class="cls-13" d="M133.87,17.91a.27.27,0,0,0,.24.22c.26,0,.32-.34.33-.53h0a.45.45,0,0,1-.4.19.57.57,0,0,1-.4-.18.61.61,0,0,1-.13-.39.6.6,0,0,1,.61-.64c.53,0,.67.46.67.9s-.19.92-.69.92a.53.53,0,0,1-.56-.49Zm.54-.71a.29.29,0,0,0-.27-.32h0a.29.29,0,0,0-.27.32.29.29,0,0,0,.27.32A.29.29,0,0,0,134.41,17.2Z"/><path class="cls-13" d="M133.74,22.33h-.36V21.2H133v-.26c.24,0,.47-.08.51-.35h.28Z"/><path class="cls-13" d="M135.12,22.33h-.35V21.2h-.44v-.26c.25,0,.47-.08.51-.35h.28Z"/><path class="cls-13" d="M133.74,34.43h-.36V33.3H133V33c.24,0,.47-.09.51-.35h.28Z"/><path class="cls-13" d="M135.43,33a2.2,2.2,0,0,0-.57,1.45h-.37a2.56,2.56,0,0,1,.58-1.42h-.82v-.33h1.18Z"/><path class="cls-13" d="M133.74,38.49h-.36V37.36H133v-.27a.44.44,0,0,0,.51-.35h.28Z"/><path class="cls-13" d="M134.57,38a.25.25,0,0,0,.23.22c.26,0,.32-.34.33-.53h0a.45.45,0,0,1-.39.2.62.62,0,0,1-.41-.18.61.61,0,0,1-.13-.39.6.6,0,0,1,.61-.64c.53,0,.67.46.67.9s-.19.91-.68.91a.53.53,0,0,1-.57-.48Zm.53-.71a.31.31,0,0,0-.27-.33h0a.29.29,0,0,0-.27.32c0,.16.08.33.27.33a.28.28,0,0,0,.28-.32Z"/><path class="cls-13" d="M132.86,41.57a.62.62,0,0,1,.63-.71.56.56,0,0,1,.59.55c0,.52-.56.57-.81.92h.83v.31h-1.28c0-.41.24-.57.55-.78.15-.11.36-.21.36-.43a.25.25,0,0,0-.23-.27h0c-.21,0-.28.22-.28.4Z"/><path class="cls-13" d="M135.12,42.64h-.35V41.51h-.44v-.27c.25,0,.47-.08.51-.35h.28Z"/><path class="cls-13" d="M132.86,45.56a.61.61,0,0,1,.63-.7.55.55,0,0,1,.59.54c0,.53-.56.57-.81.93h.83v.3h-1.28c0-.4.24-.57.55-.78.15-.11.36-.21.36-.42a.25.25,0,0,0-.23-.27h0c-.21,0-.28.21-.28.4Z"/><path class="cls-13" d="M134.71,45.6c.16,0,.38,0,.38-.22a.23.23,0,0,0-.23-.23h0c-.18,0-.27.13-.27.31h-.34a.58.58,0,0,1,.61-.6.54.54,0,0,1,.58.48.36.36,0,0,1-.24.36h0a.41.41,0,0,1,.31.4.6.6,0,0,1-.65.57.59.59,0,0,1-.65-.63h.34a.3.3,0,0,0,.3.34.28.28,0,0,0,.29-.26h0c0-.26-.23-.26-.41-.26Z"/><path class="cls-13" d="M129.46,6.09h-.73V5.76l.75-1h.32v1H130v.29h-.23v.4h-.34Zm0-.9h0l-.45.6h.46Z"/><path class="cls-13" d="M129,22.44h-.35V21.31h-.44V21a.44.44,0,0,0,.51-.35H129Z"/><path class="cls-13" d="M129.47,21.37a.62.62,0,0,1,.63-.71.56.56,0,0,1,.6.55c0,.53-.56.57-.81.93h.82v.3h-1.28c0-.4.25-.57.55-.78s.37-.21.37-.42a.25.25,0,0,0-.23-.27h0c-.21,0-.28.21-.28.4Z"/><path class="cls-13" d="M129,30.52h-.35V29.39h-.44v-.27c.24,0,.47-.08.51-.34H129Z"/><path class="cls-13" d="M130.34,29.23a.25.25,0,0,0-.23-.22c-.25,0-.33.34-.33.53h0a.43.43,0,0,1,.39-.2.58.58,0,0,1,.41.18.65.65,0,0,1-.44,1h0c-.53,0-.67-.46-.67-.9s.19-.91.68-.91a.53.53,0,0,1,.57.48Zm-.53.71a.29.29,0,0,0,.27.32h0a.29.29,0,0,0,.27-.32c0-.16-.08-.33-.27-.33a.28.28,0,0,0-.28.32Z"/><path class="cls-13" d="M129,34.54h-.35V33.41h-.44v-.27c.24,0,.47-.08.51-.34H129Z"/><path class="cls-13" d="M130.07,32.76a.52.52,0,0,1,.59.47.38.38,0,0,1-.26.36h0a.41.41,0,0,1,.33.42.59.59,0,0,1-.65.55c-.33,0-.67-.17-.67-.54a.42.42,0,0,1,.33-.43h0a.36.36,0,0,1-.26-.36A.53.53,0,0,1,130.07,32.76Zm0,1.55a.3.3,0,0,0,.3-.28v0a.29.29,0,0,0-.28-.28h0a.28.28,0,0,0-.31.28.3.3,0,0,0,.29.3h0Zm0-.82c.15,0,.26-.08.26-.22a.24.24,0,0,0-.22-.25h0a.25.25,0,0,0-.27.22v0a.25.25,0,0,0,.27.23Z"/><path class="cls-13" d="M128.09,41.68a.62.62,0,0,1,.63-.71.55.55,0,0,1,.59.55c0,.52-.56.57-.81.93h.82v.3H128c0-.41.25-.57.55-.78s.37-.21.37-.43a.26.26,0,0,0-.23-.27h0c-.21,0-.28.22-.28.4Z"/><path class="cls-13" d="M129.47,41.68a.62.62,0,0,1,.63-.71.56.56,0,0,1,.6.55c0,.52-.56.57-.81.93h.82v.3h-1.28c0-.41.25-.57.55-.78s.37-.21.37-.43a.25.25,0,0,0-.23-.27h0c-.21,0-.28.22-.28.4Z"/><path class="cls-13" d="M129.65,9.29a.25.25,0,0,0-.23-.22c-.26,0-.33.34-.34.53h0a.44.44,0,0,1,.39-.19.54.54,0,0,1,.4.18A.62.62,0,0,1,130,10a.61.61,0,0,1-.61.64c-.53,0-.67-.46-.67-.9s.19-.92.68-.92a.54.54,0,0,1,.57.49Zm-.53.71a.29.29,0,0,0,.27.32h0a.29.29,0,0,0,.27-.31.3.3,0,0,0-.27-.33A.28.28,0,0,0,129.12,10Z"/><polygon class="cls-17" points="124.87 4.03 121.5 4.03 119.81 5.48 121.5 6.93 124.87 6.93 126.56 5.48 124.87 4.03"/><path class="cls-13" d="M122.42,6a.53.53,0,0,1-.43.22.76.76,0,0,1-.78-.82.78.78,0,0,1,.78-.84.63.63,0,0,1,.66.56h-.33a.32.32,0,0,0-.33-.27c-.32,0-.43.27-.43.54s.11.53.43.53a.34.34,0,0,0,.37-.3v0H122V5.34h.66V6.2h-.22Z"/><path class="cls-13" d="M123,4.61h.35L124,5.67h0V4.61h.33V6.19H124l-.66-1.06h0V6.19H123Z"/><path class="cls-13" d="M124.6,4.61h.69a.69.69,0,0,1,.72.78.71.71,0,0,1-.72.8h-.69ZM125,5.9h.32c.2,0,.39-.12.39-.47s-.11-.53-.46-.53H125Z"/><rect class="cls-17" x="124.51" y="76.29" width="2.47" height="2.9" rx="0.41"/><polygon class="cls-17" points="124.87 76.29 121.5 76.29 119.81 77.74 121.5 79.19 124.87 79.19 126.56 77.74 124.87 76.29"/><path class="cls-13" d="M122.42,78.27a.53.53,0,0,1-.43.22.83.83,0,0,1,0-1.66.63.63,0,0,1,.66.56h-.33a.33.33,0,0,0-.33-.27c-.32,0-.43.27-.43.55s.11.52.43.52a.33.33,0,0,0,.37-.3v0H122v-.26h.66v.86h-.22Z"/><path class="cls-13" d="M123,76.87h.35l.66,1.06h0V76.87h.33v1.58H124l-.66-1.06h0v1.06H123Z"/><path class="cls-13" d="M124.6,76.87h.69a.69.69,0,0,1,.72.78.71.71,0,0,1-.72.8h-.69Zm.35,1.29h.32c.2,0,.39-.13.39-.48s-.11-.52-.46-.52H125Z"/><rect class="cls-17" x="136.56" y="4.03" width="2.47" height="2.9" rx="0.41"/><polygon class="cls-17" points="138.69 4.03 142.06 4.03 143.75 5.49 142.06 6.94 138.69 6.94 137 5.49 138.69 4.03"/><path class="cls-13" d="M138.72,6a.53.53,0,0,1-.43.22.76.76,0,0,1-.78-.82.78.78,0,0,1,.78-.84.64.64,0,0,1,.67.56h-.34a.32.32,0,0,0-.33-.27c-.32,0-.43.27-.43.54s.11.53.43.53a.33.33,0,0,0,.37-.3v0h-.35V5.34H139V6.2h-.23Z"/><path class="cls-13" d="M139.26,4.61h.35l.66,1.06h0V4.61h.33V6.19h-.35l-.66-1.06h0V6.19h-.32Z"/><path class="cls-13" d="M140.9,4.61h.69a.69.69,0,0,1,.72.78c0,.46-.23.8-.72.8h-.68Zm.35,1.29h.31c.2,0,.4-.12.4-.47s-.12-.53-.46-.53h-.25Z"/><rect class="cls-17" x="136.56" y="76.29" width="2.47" height="2.9" rx="0.41"/><polygon class="cls-17" points="138.69 76.29 142.06 76.29 143.75 77.74 142.06 79.19 138.69 79.19 137 77.74 138.69 76.29"/><path class="cls-13" d="M138.72,78.27a.53.53,0,0,1-.43.22.83.83,0,0,1,0-1.66.64.64,0,0,1,.67.56h-.34a.32.32,0,0,0-.33-.27c-.32,0-.43.27-.43.54s.11.53.43.53a.33.33,0,0,0,.37-.3v0h-.35v-.26H139v.86h-.23Z"/><path class="cls-13" d="M139.26,76.87h.35l.66,1.06h0V76.87h.33v1.58h-.35l-.66-1.06h0v1.06h-.32Z"/><path class="cls-13" d="M140.9,76.87h.69a.69.69,0,0,1,.72.78c0,.46-.23.8-.72.8h-.68Zm.35,1.29h.31c.2,0,.4-.13.4-.48s-.12-.52-.46-.52h-.25Z"/><path class="cls-13" d="M129.38,12.79a.52.52,0,0,1,.58.47.37.37,0,0,1-.25.37h0a.4.4,0,0,1,.33.42.59.59,0,0,1-.66.55c-.32,0-.66-.17-.66-.54a.41.41,0,0,1,.33-.43h0a.35.35,0,0,1-.26-.36A.53.53,0,0,1,129.38,12.79Zm0,1.55a.3.3,0,0,0,.3-.28v0a.29.29,0,0,0-.28-.28h0a.28.28,0,0,0-.31.28.3.3,0,0,0,.29.3Zm0-.82c.15,0,.26-.07.26-.22a.24.24,0,0,0-.22-.25h0a.26.26,0,0,0-.27.22v0c0,.15.12.23.27.23Z"/><path class="cls-13" d="M129,18.47h-.35V17.34h-.44v-.27a.44.44,0,0,0,.51-.35H129Z"/><path class="cls-13" d="M130.07,16.69c.35,0,.64.22.64.9s-.29.92-.64.92-.64-.22-.64-.92S129.72,16.69,130.07,16.69Zm0,1.52c.29,0,.29-.42.29-.62s0-.61-.29-.61-.29.43-.29.61S129.78,18.21,130.07,18.21Z"/><path class="cls-13" d="M129,26.54h-.35V25.4h-.44v-.26c.24,0,.47-.08.51-.35H129Z"/><path class="cls-13" d="M130.15,26.13h-.74v-.32l.76-1h.32v1.05h.23v.29h-.23v.41h-.34Zm0-.9h0l-.45.61h.45Z"/><path class="cls-13" d="M128.09,37.52a.61.61,0,0,1,.63-.7.54.54,0,0,1,.59.54c0,.53-.56.57-.81.93h.82v.3H128c0-.41.25-.57.55-.78s.37-.21.37-.42a.25.25,0,0,0-.23-.27h0c-.21,0-.28.21-.28.4Z"/><path class="cls-13" d="M130.07,36.82c.35,0,.64.22.64.9s-.29.92-.64.92-.64-.22-.64-.92S129.72,36.82,130.07,36.82Zm0,1.52c.29,0,.29-.42.29-.62s0-.61-.29-.61-.29.43-.29.61,0,.62.29.62Z"/><path class="cls-13" d="M128.09,45.65a.61.61,0,0,1,.63-.7.54.54,0,0,1,.59.54c0,.53-.56.57-.81.93h.82v.3H128c0-.4.25-.57.55-.78s.37-.21.37-.42a.25.25,0,0,0-.23-.27h0c-.21,0-.28.21-.28.4Z"/><path class="cls-13" d="M130.15,46.32h-.74V46l.76-1h.32V46h.23v.29h-.23v.4h-.34Zm0-.89h0l-.45.6h.45Z"/><path class="cls-13" d="M134.74,13a2.19,2.19,0,0,0-.57,1.44h-.38a2.54,2.54,0,0,1,.59-1.41h-.83v-.33h1.19Z"/><path class="cls-13" d="M133.74,26.43h-.36V25.3H133V25c.24,0,.47-.08.51-.35h.28Z"/><path class="cls-13" d="M134.71,25.39c.16,0,.38,0,.38-.22a.23.23,0,0,0-.23-.23h0c-.18,0-.27.13-.27.31h-.34a.58.58,0,0,1,.61-.6.54.54,0,0,1,.58.48.36.36,0,0,1-.24.36h0a.41.41,0,0,1,.31.4.6.6,0,0,1-.65.57.59.59,0,0,1-.65-.63h.34a.3.3,0,0,0,.3.34.27.27,0,0,0,.29-.25v0c0-.26-.23-.25-.41-.25Z"/><path class="cls-13" d="M133.74,30.41h-.36V29.28H133V29c.24,0,.47-.08.51-.35h.28Z"/><path class="cls-13" d="M135.39,29h-.72l-.07.4h0a.43.43,0,0,1,.34-.13.54.54,0,0,1,.54.59.64.64,0,0,1-.64.63h0a.59.59,0,0,1-.65-.55h.36a.28.28,0,0,0,.28.26.33.33,0,0,0,.31-.33h0a.3.3,0,0,0-.28-.32h0a.28.28,0,0,0-.27.14h-.31l.17-1h1Z"/><polygon class="cls-15" points="138.38 8.07 141.3 8.07 142.75 9.52 141.3 10.98 138.38 10.98 136.92 9.52 138.38 8.07"/><polygon class="cls-22" points="142.4 24.04 139.48 24.04 138.01 25.49 139.48 26.94 142.4 26.94 143.86 25.49 142.4 24.04"/><path class="cls-22" d="M137.12,26.94h3.74L143,25.49,140.86,24h-3.74c-.31,0-.56.17-.56.38v2.14C136.56,26.77,136.81,26.94,137.12,26.94Z"/><path class="cls-15" d="M136.54,8.07h4.32a.43.43,0,0,1,.43.43v2.06a.43.43,0,0,1-.43.43h-4.32a0,0,0,0,1,0,0V8.07a0,0,0,0,1,0,0Z" transform="translate(277.83 19.05) rotate(-180)"/><polygon class="cls-15" points="125.39 32.08 122.48 32.08 121.02 33.54 122.48 35 125.39 35 126.85 33.54 125.39 32.08"/><path class="cls-15" d="M122.94,32.08h3.56a.43.43,0,0,1,.43.43v2.06a.43.43,0,0,1-.43.43h-3.56a0,0,0,0,1,0,0V32.08A0,0,0,0,1,122.94,32.08Z"/><polygon class="cls-15" points="136.91 33.56 138.37 35.02 141.28 35.02 142.74 33.56 141.28 32.11 138.37 32.11 136.91 33.56"/><path class="cls-15" d="M136.55,32.11h4.13a.43.43,0,0,1,.43.43v2.06a.43.43,0,0,1-.43.43h-4.13a0,0,0,0,1,0,0V32.11a0,0,0,0,1,0,0Z" transform="translate(277.65 67.13) rotate(-180)"/><path class="cls-13" d="M137.85,24.68h.86a.44.44,0,0,1,.47.44.4.4,0,0,1-.25.41h0a.36.36,0,0,1,.23.37c0,.11,0,.3.07.38h-.35a2,2,0,0,1-.06-.38c0-.17-.09-.24-.27-.24h-.35v.62h-.35Zm.35.73h.39c.16,0,.24-.07.24-.23s-.08-.22-.24-.22h-.39Z"/><path class="cls-13" d="M139.71,25.75c0,.22.17.3.36.3s.31,0,.31-.2-.24-.2-.47-.27-.48-.16-.48-.45a.54.54,0,0,1,.6-.49c.33,0,.64.15.64.52h-.34c0-.19-.15-.24-.32-.24s-.24,0-.24.18.07.14.48.24c.11,0,.47.11.47.47s-.23.51-.66.51-.69-.17-.69-.57Z"/><path class="cls-13" d="M141.29,25h-.48v-.3h1.31V25h-.48v1.3h-.35Z"/><path class="cls-20" d="M126.74,27h-3.58l-1.94-1.47L123.16,24h3.58a.28.28,0,0,1,.28.28v2.38a.28.28,0,0,1-.28.29Z"/><polygon class="cls-20" points="123.07 24 120.09 24 118.6 25.48 120.09 26.96 123.07 26.96 124.56 25.48 123.07 24"/><rect class="cls-20" x="121.22" y="24" width="3.48" height="2.96"/><path class="cls-13" d="M120.24,24.61h.35v1.32h.79v.3h-1.14Z"/><path class="cls-13" d="M121.58,24.61h1.21v.3h-.85v.35h.78v.27h-.78v.4h.87v.3h-1.23Z"/><path class="cls-13" d="M123.05,24.61h.69a.71.71,0,0,1,.73.8c0,.47-.23.82-.73.82h-.69Zm.35,1.32h.32c.2,0,.4-.13.4-.49s-.12-.53-.47-.53h-.25Z"/><path class="cls-13" d="M126.08,26.23h-.32v-1h-.4V25c.23,0,.43-.07.46-.31h.26Z"/><path class="cls-20" d="M136.83,30.91a.27.27,0,0,1-.27-.29V28.28a.27.27,0,0,1,.28-.27h3.51l1.89,1.45-1.89,1.45h-3.52Z"/><polygon class="cls-20" points="139.2 29.46 140.66 30.91 143.59 30.91 145.05 29.46 143.59 28.01 140.66 28.01 139.2 29.46"/><rect class="cls-20" x="138.12" y="28.01" width="4.21" height="2.9"/><path class="cls-13" d="M137.56,28.67h.35V30h.77v.29h-1.12Z"/><path class="cls-13" d="M138.88,28.67h1.18V29h-.83v.34H140v.27h-.77V30h.86v.29h-1.21Z"/><path class="cls-13" d="M140.31,28.67H141a.69.69,0,0,1,.72.78.71.71,0,0,1-.72.8h-.69Zm.35,1.29H141c.2,0,.4-.13.4-.48s-.12-.52-.46-.52h-.25Z"/><path class="cls-13" d="M142.5,29.29a.55.55,0,0,1,.57-.62.49.49,0,0,1,.53.48c0,.47-.5.51-.73.83h.74v.27h-1.14c0-.36.22-.51.49-.69s.32-.19.32-.38a.22.22,0,0,0-.2-.24h0c-.18,0-.25.19-.25.35Z"/><path class="cls-18" d="M136.82,72.34h3.51l1.9,1.46-1.9,1.45h-3.51a.29.29,0,0,1-.28-.28V72.63a.29.29,0,0,1,.27-.29Z"/><polygon class="cls-18" points="139.14 75.25 142.06 75.25 143.52 73.8 142.06 72.34 139.14 72.34 137.68 73.8 139.14 75.25"/><path class="cls-18" d="M126.71,72.34a.28.28,0,0,1,.27.29V75a.28.28,0,0,1-.28.28h-3.5l-1.9-1.45,1.9-1.46h3.51Z"/><polygon class="cls-18" points="125.85 73.8 124.39 72.34 121.47 72.34 120.01 73.8 121.47 75.25 124.39 75.25 125.85 73.8"/><path class="cls-13" d="M137.73,73.06h.35v1.59h-.35Z"/><path class="cls-13" d="M139.1,73a.84.84,0,1,1-.78.84A.77.77,0,0,1,139.1,73Zm0,1.37c.31,0,.43-.26.43-.53s-.12-.54-.43-.54-.43.26-.43.54S138.79,74.39,139.1,74.39Z"/><path class="cls-13" d="M141.08,73.35h-.64l-.07.36h0a.37.37,0,0,1,.3-.12.48.48,0,0,1,.48.53.56.56,0,0,1-.58.56.51.51,0,0,1-.57-.49h.31a.25.25,0,0,0,.26.23.28.28,0,0,0,.27-.3.27.27,0,0,0-.27-.29.26.26,0,0,0-.24.12h-.29l.16-.86h.87Z"/><path class="cls-13" d="M122.62,73.06H123v1.59h-.35Z"/><path class="cls-13" d="M124,73a.84.84,0,1,1-.78.84A.77.77,0,0,1,124,73Zm0,1.37c.32,0,.44-.26.44-.53s-.12-.54-.44-.54-.43.26-.43.54S123.68,74.39,124,74.39Z"/><path class="cls-13" d="M125.72,73.49a.22.22,0,0,0-.21-.19c-.22,0-.29.3-.29.47h0a.39.39,0,0,1,.35-.18.52.52,0,0,1,.36.16.57.57,0,0,1,.12.35.54.54,0,0,1-.54.57c-.48,0-.6-.41-.6-.8s.17-.82.61-.82a.47.47,0,0,1,.5.43Zm-.48.64a.27.27,0,0,0,.26.29.25.25,0,0,0,.23-.28c0-.15-.07-.3-.23-.3A.27.27,0,0,0,125.24,74.13Z"/><path class="cls-18" d="M136.82,60.09h3.51l1.9,1.45L140.33,63h-3.51a.29.29,0,0,1-.28-.28V60.37a.28.28,0,0,1,.27-.28Z"/><polygon class="cls-18" points="139.14 62.99 142.06 62.99 143.52 61.54 142.06 60.09 139.14 60.09 137.68 61.54 139.14 62.99"/><path class="cls-18" d="M126.71,60.09a.27.27,0,0,1,.27.28v2.34a.28.28,0,0,1-.28.28h-3.5l-1.9-1.45,1.9-1.45h3.51Z"/><polygon class="cls-18" points="125.85 61.54 124.39 60.09 121.47 60.09 120.01 61.54 121.47 62.99 124.39 62.99 125.85 61.54"/><path class="cls-13" d="M137.73,60.8h.35v1.59h-.35Z"/><path class="cls-13" d="M139.1,60.76a.84.84,0,1,1-.78.84A.77.77,0,0,1,139.1,60.76Zm0,1.38c.31,0,.43-.27.43-.54s-.12-.54-.43-.54-.43.27-.43.54S138.79,62.14,139.1,62.14Z"/><path class="cls-13" d="M140.47,61.46c.14,0,.34,0,.34-.19a.22.22,0,0,0-.23-.21c-.16,0-.24.12-.24.28H140a.52.52,0,0,1,.54-.54.49.49,0,0,1,.53.43.32.32,0,0,1-.22.32h0a.34.34,0,0,1,.27.35.52.52,0,0,1-.58.51.52.52,0,0,1-.57-.56h.3a.27.27,0,0,0,.27.3.23.23,0,0,0,.25-.24c0-.24-.2-.23-.36-.23Z"/><path class="cls-13" d="M122.62,60.8H123v1.59h-.35Z"/><path class="cls-13" d="M124,60.76a.84.84,0,1,1-.78.84A.77.77,0,0,1,124,60.76Zm0,1.38c.32,0,.44-.27.44-.54s-.12-.54-.44-.54-.43.27-.43.54S123.68,62.14,124,62.14Z"/><path class="cls-13" d="M125.55,62h-.66v-.29l.68-.91h.28v.94h.21V62h-.21v.36h-.3Zm0-.8h0l-.41.54h.41Z"/><path class="cls-18" d="M126.71,44.21a.27.27,0,0,1,.27.29v2.34a.27.27,0,0,1-.28.27h-3.5l-1.9-1.45,1.9-1.45h3.51Z"/><polygon class="cls-18" points="125.85 45.66 124.39 44.21 121.47 44.21 120.01 45.66 121.47 47.12 124.39 47.12 125.85 45.66"/><path class="cls-13" d="M122.62,44.93H123v1.59h-.35Z"/><path class="cls-13" d="M124,44.89a.84.84,0,1,1-.78.84A.77.77,0,0,1,124,44.89Zm0,1.37c.32,0,.44-.26.44-.53s-.12-.55-.44-.55-.43.27-.43.55S123.68,46.26,124,46.26Z"/><path class="cls-13" d="M126,45.23a1.92,1.92,0,0,0-.51,1.29h-.34a2.32,2.32,0,0,1,.53-1.27H125V45H126Z"/><path class="cls-18" d="M136.82,56.11h3.51l1.9,1.45L140.33,59h-3.51a.28.28,0,0,1-.28-.28V56.4a.28.28,0,0,1,.27-.29Z"/><polygon class="cls-18" points="139.14 59.01 142.06 59.01 143.52 57.56 142.06 56.11 139.14 56.11 137.68 57.56 139.14 59.01"/><path class="cls-13" d="M137.73,56.83h.35v1.59h-.35Z"/><path class="cls-13" d="M139.1,56.79a.84.84,0,1,1-.78.84A.77.77,0,0,1,139.1,56.79Zm0,1.37c.31,0,.43-.27.43-.53s-.12-.55-.43-.55-.43.27-.43.55S138.79,58.16,139.1,58.16Z"/><path class="cls-13" d="M140.84,58.42h-.32v-1h-.39v-.24c.22,0,.42-.07.46-.31h.25Z"/><path class="cls-18" d="M126.71,16.15a.27.27,0,0,1,.27.28v2.34a.27.27,0,0,1-.28.28h-3.5l-1.9-1.45,1.9-1.45h3.51Z"/><polygon class="cls-18" points="125.85 17.6 124.39 16.15 121.47 16.15 120.01 17.6 121.47 19.05 124.39 19.05 125.85 17.6"/><path class="cls-13" d="M122.05,17.93c0,.21.16.29.35.29s.31,0,.31-.2-.24-.19-.47-.26-.48-.16-.48-.45.31-.48.6-.48.63.14.63.51h-.33c0-.19-.15-.24-.32-.24s-.24,0-.24.18.08.14.48.24c.11,0,.47.1.47.46s-.23.51-.66.51-.69-.17-.68-.56Z"/><path class="cls-13" d="M124.77,18.46h-.35l-.27-1.09h0l-.27,1.09h-.35l-.42-1.59h.35l.25,1.08h0l.28-1.08h.33l.27,1.09h0l.26-1.09h.35Z"/><path class="cls-13" d="M126.08,18.46h-.32v-1h-.39v-.23c.22,0,.42-.08.45-.31h.26Z"/><rect class="cls-19" x="138.12" y="64.09" width="4.96" height="2.91"/><rect class="cls-19" x="136.54" y="64.09" width="2.47" height="2.91" rx="0.41"/><polygon class="cls-19" points="143.08 64.09 140.15 64.09 138.69 65.55 140.15 67 143.08 67 144.54 65.55 143.08 64.09"/><rect class="cls-19" x="121.45" y="64.09" width="3.8" height="2.91"/><rect class="cls-19" x="124.5" y="64.09" width="2.47" height="2.91" rx="0.41"/><polygon class="cls-19" points="123.22 64.09 120.29 64.09 118.83 65.55 120.29 67 123.22 67 124.68 65.55 123.22 64.09"/><path class="cls-13" d="M120.61,64.7h.86a.44.44,0,0,1,.46.44.4.4,0,0,1-.25.4h0a.36.36,0,0,1,.23.37,1,1,0,0,0,.07.38h-.35a1.52,1.52,0,0,1,0-.38c0-.17-.09-.24-.27-.24H121v.62h-.35Zm.35.72h.38c.16,0,.24-.07.24-.23s-.08-.22-.24-.22H121Z"/><path class="cls-13" d="M122.61,65.45l-.51-.75h.4l.31.51.33-.51h.38l-.51.76.55.83h-.41l-.35-.55-.35.55h-.4Z"/><path class="cls-13" d="M123.7,64.7h.69a.69.69,0,0,1,.72.78c0,.47-.23.81-.72.81h-.69Zm.35,1.29h.32c.2,0,.39-.12.39-.47s-.11-.53-.46-.53h-.25Z"/><path class="cls-13" d="M126.07,66.29h-.31v-1h-.39V65c.22,0,.42-.07.45-.31h.25Z"/><path class="cls-13" d="M138,65h-.47V64.7h1.3V65h-.48v1.3H138Z"/><path class="cls-13" d="M139.35,65.45l-.51-.75h.41l.31.51.32-.51h.38l-.51.76.56.83h-.42l-.34-.55-.36.55h-.39Z"/><path class="cls-13" d="M140.45,64.7h.69a.69.69,0,0,1,.72.78c0,.47-.24.81-.72.81h-.69ZM140.8,66h.31c.2,0,.4-.12.4-.47s-.12-.53-.46-.53h-.25Z"/><path class="cls-13" d="M142.82,66.29h-.32v-1h-.39V65c.22,0,.42-.07.46-.31h.25Z"/><rect class="cls-19" x="138.12" y="20.02" width="4.98" height="2.91"/><rect class="cls-19" x="136.54" y="20.02" width="2.47" height="2.91" rx="0.41"/><polygon class="cls-19" points="143.22 20.02 140.3 20.02 138.84 21.48 140.3 22.93 143.22 22.93 144.69 21.48 143.22 20.02"/><rect class="cls-19" x="120.24" y="20.02" width="5.01" height="2.91"/><rect class="cls-19" x="124.5" y="20.02" width="2.47" height="2.91" rx="0.41"/><polygon class="cls-19" points="122.84 20.02 119.92 20.02 118.46 21.48 119.92 22.93 122.84 22.93 124.31 21.48 122.84 20.02"/><path class="cls-13" d="M120.31,20.63h.86a.44.44,0,0,1,.46.44.38.38,0,0,1-.25.4h0a.36.36,0,0,1,.23.37,1,1,0,0,0,.07.38h-.35a1.46,1.46,0,0,1,0-.38c0-.17-.09-.24-.27-.24h-.35v.62h-.35Zm.35.72H121c.16,0,.24-.07.24-.23s-.08-.22-.24-.22h-.38Z"/><path class="cls-13" d="M122.31,21.39l-.51-.76h.4l.31.51.33-.51h.38l-.51.76.55.83h-.41l-.35-.55-.35.55h-.4Z"/><path class="cls-13" d="M123.4,20.63h.69a.7.7,0,0,1,.72.79c0,.46-.23.8-.72.8h-.69Zm.35,1.3h.32c.2,0,.39-.13.39-.48s-.11-.53-.46-.53h-.25Z"/><path class="cls-13" d="M125.52,20.63c.31,0,.57.2.57.8s-.26.82-.57.82-.57-.19-.57-.82S125.21,20.63,125.52,20.63Zm0,1.36c.26,0,.26-.38.26-.56s0-.54-.26-.54-.26.38-.26.54S125.26,22,125.52,22Z"/><path class="cls-13" d="M138,20.92h-.48v-.29h1.31v.29h-.48v1.3H138Z"/><path class="cls-13" d="M139.38,21.39l-.51-.76h.4l.31.51.33-.51h.38l-.51.76.55.83h-.41l-.35-.55-.35.55h-.4Z"/><path class="cls-13" d="M140.47,20.63h.69a.7.7,0,0,1,.72.79c0,.46-.23.8-.72.8h-.69Zm.35,1.3h.32c.2,0,.39-.13.39-.48s-.11-.53-.46-.53h-.25Z"/><path class="cls-13" d="M142.59,20.63c.31,0,.57.2.57.8s-.26.82-.57.82-.57-.19-.57-.82S142.28,20.63,142.59,20.63Zm0,1.36c.26,0,.26-.38.26-.56s0-.54-.26-.54-.26.38-.26.54S142.33,22,142.59,22Z"/><rect class="cls-21" x="136.56" y="52.07" width="11.04" height="2.9" rx="0.3"/><polygon class="cls-21" points="147.96 52.07 145.05 52.07 143.59 53.52 145.05 54.97 147.96 54.97 149.42 53.52 147.96 52.07"/><g class="cls-24"><path class="cls-13" d="M137.83,53.72c0,.21.16.29.35.29s.31,0,.31-.19-.24-.2-.47-.26-.47-.16-.47-.45.3-.48.59-.48.63.14.63.51h-.34c0-.19-.14-.24-.31-.24s-.24.05-.24.18.08.14.47.24c.12,0,.47.1.47.46s-.22.5-.65.5-.68-.17-.68-.56Z"/><path class="cls-13" d="M139,52.67h.71a.51.51,0,1,1,0,1h-.36v.57H139V52.67Zm.35.74h.27c.16,0,.3,0,.3-.24s-.14-.23-.3-.23h-.27Z"/><path class="cls-13" d="M140.51,52.67h.34v1.58h-.34Z"/><path class="cls-13" d="M141,54.41h1.11v.11H141Z"/><path class="cls-13" d="M142.25,52.67h.49l.37,1.08h0l.35-1.08H144v1.58h-.33V53.13h0l-.39,1.12H143l-.39-1.11h0v1.11h-.33V52.67Z"/><path class="cls-13" d="M144.26,52.67h.35v1.58h-.35Z"/><path class="cls-13" d="M145.15,53.72c0,.21.17.29.35.29s.31,0,.31-.19-.24-.2-.47-.26-.47-.16-.47-.45.3-.48.59-.48.63.14.63.51h-.33c0-.19-.15-.24-.31-.24s-.24.05-.24.18.07.14.47.24c.12,0,.47.1.47.46s-.23.5-.66.5-.68-.17-.67-.56Z"/><path class="cls-13" d="M147.06,52.63a.83.83,0,1,1-.78.83A.76.76,0,0,1,147.06,52.63Zm0,1.36c.31,0,.43-.26.43-.53s-.12-.54-.43-.54-.43.27-.43.54S146.75,54,147.06,54Z"/></g><rect class="cls-21" x="115.95" y="52.07" width="11.03" height="2.9" rx="0.3"/><polygon class="cls-21" points="114.36 53.52 115.82 54.97 118.73 54.97 120.19 53.52 118.73 52.07 115.82 52.07 114.36 53.52"/><rect class="cls-21" x="136.56" y="48.14" width="8.72" height="2.9" rx="0.3"/><polygon class="cls-21" points="145.3 48.14 142.39 48.14 140.93 49.59 142.39 51.04 145.3 51.04 146.76 49.59 145.3 48.14"/><rect class="cls-21" x="117.45" y="48.14" width="9.53" height="2.9" rx="0.3"/><polygon class="cls-21" points="115.34 49.59 116.79 51.04 119.71 51.04 121.16 49.59 119.71 48.15 116.79 48.15 115.34 49.59"/><path class="cls-21" d="M136.72,40.27h4.57c.09,0,.17.14.17.3v2.3c0,.17-.08.3-.17.3h-4.57c-.09,0-.16-.13-.16-.3v-2.3C136.56,40.41,136.63,40.27,136.72,40.27Z"/><polygon class="cls-21" points="142.56 40.28 139.65 40.28 138.19 41.73 139.65 43.18 142.56 43.18 144.02 41.73 142.56 40.28"/><path class="cls-21" d="M126.8,43.18h-5.33c-.1,0-.18-.14-.18-.3v-2.3c0-.17.08-.3.18-.3h5.33c.1,0,.18.13.18.3v2.3C127,43,126.9,43.18,126.8,43.18Z"/><polygon class="cls-21" points="119.65 41.73 121.11 43.18 124.02 43.18 125.48 41.73 124.02 40.28 121.11 40.28 119.65 41.73"/><g class="cls-24"><path class="cls-13" d="M116.07,53.72c0,.21.17.3.35.3s.31,0,.31-.2-.24-.2-.47-.26-.47-.16-.47-.45a.53.53,0,0,1,.59-.48c.33,0,.64.14.64.51h-.34c0-.19-.14-.24-.31-.24s-.24.05-.24.18.07.14.47.24c.12,0,.47.1.47.46s-.23.51-.66.51-.68-.18-.67-.57Z"/><path class="cls-13" d="M117.27,52.67H118a.51.51,0,1,1,0,1h-.37v.57h-.35V52.67Zm.35.74h.27c.16,0,.31,0,.31-.23s-.15-.24-.31-.24h-.27Z"/><path class="cls-13" d="M118.75,52.67h.35v1.58h-.35Z"/><path class="cls-13" d="M119.25,54.41h1.11v.11h-1.11Z"/><path class="cls-13" d="M120.51,52.67H121l.37,1.09h0l.35-1.09h.49v1.58h-.33V53.13h0l-.39,1.12h-.26l-.39-1.11h0v1.11h-.32V52.67Z"/><path class="cls-13" d="M123.22,52.63a.83.83,0,0,1,0,1.66.83.83,0,0,1,0-1.66Zm0,1.36c.31,0,.43-.26.43-.52s-.12-.55-.43-.55-.43.27-.43.55S122.91,54,123.22,54Z"/><path class="cls-13" d="M124.47,53.72c0,.21.17.3.35.3s.31,0,.31-.2-.24-.2-.47-.26-.47-.16-.47-.45.3-.48.59-.48.63.14.63.51h-.33c0-.19-.15-.24-.32-.24s-.23.05-.23.18.07.14.47.24c.11,0,.47.1.47.46s-.23.51-.66.51-.68-.18-.67-.57Z"/><path class="cls-13" d="M125.67,52.67H126v1.58h-.35Z"/></g><path class="cls-23" d="M136.79,36.07H146a.27.27,0,0,1,.25.3v2.32a.28.28,0,0,1-.25.3h-9.19a.28.28,0,0,1-.25-.3V36.37A.27.27,0,0,1,136.79,36.07Z"/><polygon class="cls-23" points="147.84 36.08 144.9 36.08 143.44 37.53 144.9 38.99 147.84 38.99 149.3 37.53 147.84 36.08"/><g class="cls-24"><path class="cls-13" d="M142.84,38.26h-.32v-1h-.39V37c.22,0,.42-.07.45-.3h.25v1.55Z"/><path class="cls-13" d="M137.81,37.74c0,.21.17.29.35.29s.31,0,.31-.2-.24-.2-.47-.26-.47-.16-.47-.45.3-.48.59-.48.64.14.64.51h-.34c0-.19-.14-.24-.31-.24s-.24.05-.24.18.07.14.47.24c.12,0,.47.1.47.46s-.22.51-.66.51-.68-.17-.68-.56Z"/><path class="cls-13" d="M139,36.67h.69a.7.7,0,0,1,.72.79.71.71,0,0,1-.72.8H139Zm.35,1.3h.31c.2,0,.4-.12.4-.48S140,37,139.62,37h-.25v1Z"/><path class="cls-13" d="M141.1,36.67h.36l.6,1.59h-.37l-.12-.35H141l-.13.35h-.35Zm0,1h.41l-.2-.58h0Z"/></g><path class="cls-23" d="M127,36.38V38.7a.28.28,0,0,1-.28.29H116.11a.28.28,0,0,1-.28-.29V36.38a.28.28,0,0,1,.28-.3H126.7A.28.28,0,0,1,127,36.38Z"/><polygon class="cls-23" points="114.46 37.54 115.92 39 118.86 39 120.32 37.54 118.86 36.08 115.92 36.08 114.46 37.54"/><g class="cls-24"><path class="cls-13" d="M126.06,38.27h-.31v-1h-.39V37c.22,0,.42-.07.45-.31h.25v1.56Z"/><path class="cls-13" d="M121.29,37.74c0,.22.16.3.35.3s.31,0,.31-.2-.24-.2-.47-.26-.48-.16-.48-.45a.54.54,0,0,1,.6-.49c.33,0,.64.15.64.52h-.34c0-.19-.15-.24-.32-.24s-.24,0-.24.18.08.14.48.24c.12,0,.47.1.47.46s-.23.51-.66.51-.68-.17-.68-.57Z"/><path class="cls-13" d="M123.56,37.22a.36.36,0,0,0-.35-.28c-.32,0-.43.27-.43.54s.11.54.43.54a.36.36,0,0,0,.36-.36h.34a.67.67,0,0,1-.7.65.84.84,0,0,1,0-1.67.64.64,0,0,1,.68.58Z"/><path class="cls-13" d="M124.15,36.68h.35V38h.77v.29h-1.12Z"/></g><path class="cls-23" d="M136.7,68.15h6.57c.1,0,.18.13.18.3v2.31c0,.17-.08.3-.18.3H136.7c-.09,0-.17-.13-.17-.3V68.45C136.53,68.28,136.61,68.15,136.7,68.15Z"/><polygon class="cls-23" points="143.41 68.15 140.48 68.15 139.01 69.61 140.48 71.06 143.41 71.06 144.88 69.61 143.41 68.15"/><g class="cls-24"><path class="cls-13" d="M142.24,69.38a.56.56,0,0,1,.57-.63.49.49,0,0,1,.53.49c0,.47-.5.51-.72.83h.73v.27h-1.14c0-.36.22-.51.49-.7s.33-.19.33-.38a.23.23,0,0,0-.24-.24c-.18,0-.24.2-.24.36Z"/><path class="cls-13" d="M137.81,69.81c0,.21.17.3.35.3s.31,0,.31-.2-.24-.2-.47-.26-.47-.16-.47-.46a.53.53,0,0,1,.59-.48c.33,0,.64.15.64.51h-.34c0-.18-.14-.24-.31-.24s-.24,0-.24.18.07.15.47.24c.12,0,.47.11.47.47s-.22.51-.66.51-.68-.18-.68-.57Z"/><path class="cls-13" d="M139,68.75h.68a.7.7,0,0,1,.73.79.71.71,0,0,1-.73.8H139Zm.35,1.3h.31c.2,0,.4-.13.4-.48S140,69,139.62,69h-.25v1Z"/><path class="cls-13" d="M141.1,68.75h.36l.6,1.59h-.37l-.12-.35H141l-.13.35h-.35Zm0,1h.41l-.2-.59h0Z"/></g><path class="cls-23" d="M127,68.45v2.32c0,.17-.07.3-.16.3h-5.89c-.09,0-.16-.13-.16-.3V68.45c0-.16.07-.29.16-.29h5.89C126.9,68.16,127,68.29,127,68.45Z"/><polygon class="cls-23" points="119.12 69.61 120.59 71.07 123.52 71.07 124.98 69.61 123.52 68.16 120.59 68.16 119.12 69.61"/><g class="cls-24"><path class="cls-13" d="M120.76,69.82c0,.21.17.29.35.29s.31,0,.31-.19-.24-.2-.47-.27-.47-.15-.47-.45.3-.48.59-.48.64.14.64.51h-.34c0-.19-.15-.24-.31-.24s-.24.05-.24.18.07.14.47.24c.12,0,.47.11.47.47s-.23.51-.66.51-.68-.18-.68-.57Z"/><path class="cls-13" d="M123,69.29a.36.36,0,0,0-.35-.28c-.31,0-.43.27-.43.55s.12.53.43.53a.36.36,0,0,0,.36-.35h.34a.67.67,0,0,1-.7.65.84.84,0,0,1,0-1.67.66.66,0,0,1,.69.57Z"/><path class="cls-13" d="M123.62,68.76H124v1.29h.77v.3h-1.12Z"/><path class="cls-13" d="M124.93,69.38a.56.56,0,0,1,.57-.63.5.5,0,0,1,.53.49c0,.47-.5.51-.73.83H126v.27h-1.15c0-.36.23-.51.5-.69s.32-.19.32-.38a.22.22,0,0,0-.23-.24c-.19,0-.25.19-.25.35Z"/></g><rect class="cls-14" x="124.51" y="56.19" width="2.47" height="2.91" rx="0.41"/><polygon class="cls-14" points="122.6 56.19 125.52 56.19 126.98 57.64 125.52 59.09 122.6 59.09 121.14 57.64 122.6 56.19"/><path class="cls-13" d="M123.05,56.77h.35l.66,1.06h0V56.77h.32v1.58H124l-.66-1.06h0v1.06h-.32Z"/><path class="cls-13" d="M125.74,57.3a.35.35,0,0,0-.34-.28c-.32,0-.43.27-.43.55s.11.53.43.53a.36.36,0,0,0,.36-.36h.34a.67.67,0,0,1-.7.65.77.77,0,0,1-.78-.82.78.78,0,0,1,.78-.84.64.64,0,0,1,.68.57Z"/><path class="cls-13" d="M122,40.89h.36l.59,1.59h-.36l-.12-.35h-.59l-.13.35h-.35Zm0,1h.41l-.2-.58h0Z"/><path class="cls-13" d="M123.07,40.89h.35v1.59h-.35Z"/><path class="cls-13" d="M123.73,40.89h.35l.66,1.07h0V40.89h.33v1.59h-.35l-.66-1.07h0v1.07h-.33Z"/><path class="cls-13" d="M126.1,42.48h-.32v-1h-.39v-.24c.22,0,.42-.07.46-.31h.25Z"/><path class="cls-13" d="M138.09,40.89h.35l.6,1.59h-.36l-.12-.35H138l-.12.35h-.36Zm0,1h.41l-.2-.58h0Z"/><path class="cls-13" d="M139.18,40.89h.35v1.59h-.35Z"/><path class="cls-13" d="M139.83,40.89h.35l.67,1.07h0V40.89h.33v1.59h-.35l-.66-1.07h0v1.07h-.33Z"/><path class="cls-13" d="M142,40.89c.31,0,.57.19.57.8s-.26.82-.57.82-.57-.2-.57-.82S141.64,40.89,142,40.89Zm0,1.36c.26,0,.26-.38.26-.56s0-.54-.26-.54-.26.38-.26.54S141.69,42.25,142,42.25Z"/><path class="cls-13" d="M117.17,49.84c0,.21.16.29.35.29s.31,0,.31-.19-.24-.2-.48-.27-.47-.16-.47-.45.31-.48.6-.48.63.14.63.51h-.34c0-.19-.14-.24-.31-.24s-.24.05-.24.18.07.14.47.24c.12,0,.48.11.48.47s-.23.51-.67.51-.68-.18-.67-.57Z"/><path class="cls-13" d="M118.37,48.78h.72a.51.51,0,1,1,0,1h-.37v.57h-.35Zm.35.75H119c.16,0,.31,0,.31-.24s-.15-.24-.31-.24h-.27Z"/><path class="cls-13" d="M119.86,48.78h.35v1.59h-.35Z"/><path class="cls-13" d="M120.36,50.54h1.12v.11h-1.12Z"/><path class="cls-13" d="M122.69,49.31a.36.36,0,0,0-.35-.28c-.31,0-.43.27-.43.55s.12.53.43.53a.34.34,0,0,0,.36-.35H123a.67.67,0,0,1-.7.65.84.84,0,0,1,0-1.67.64.64,0,0,1,.69.57Z"/><path class="cls-13" d="M123.28,48.78h.35v1.29h.77v.3h-1.12Z"/><path class="cls-13" d="M124.6,48.78H125v.66l.62-.66H126l-.62.63.68,1h-.44l-.48-.72-.2.21v.51h-.35Z"/><path class="cls-13" d="M137.92,49.84c0,.21.17.29.35.29s.31,0,.31-.19-.24-.2-.47-.27-.47-.16-.47-.45.3-.48.59-.48.64.14.64.51h-.34c0-.19-.15-.24-.31-.24s-.25.05-.25.18.08.14.48.24c.12,0,.47.11.47.47s-.23.51-.66.51-.68-.18-.68-.57Z"/><path class="cls-13" d="M139.13,48.78h.72a.51.51,0,1,1,0,1h-.37v.57h-.35Zm.35.75h.27c.16,0,.31,0,.31-.24s-.15-.24-.31-.24h-.27Z"/><path class="cls-13" d="M140.61,48.78H141v1.59h-.35Z"/><path class="cls-13" d="M141.12,50.54h1.11v.11h-1.11Z"/><path class="cls-13" d="M143.44,49.31a.34.34,0,0,0-.34-.28c-.32,0-.44.27-.44.55s.12.53.44.53a.36.36,0,0,0,.36-.35h.34a.68.68,0,0,1-.7.65.84.84,0,0,1,0-1.67.64.64,0,0,1,.68.57Z"/><path class="cls-13" d="M144.27,49.84c0,.21.17.29.35.29s.31,0,.31-.19-.24-.2-.47-.27-.47-.16-.47-.45.3-.48.59-.48.64.14.64.51h-.34c0-.19-.14-.24-.31-.24s-.24.05-.24.18.07.14.47.24c.12,0,.47.11.47.47s-.22.51-.66.51-.68-.18-.68-.57Z"/><path class="cls-13" d="M123,33.38c.13,0,.33,0,.33-.19a.21.21,0,0,0-.22-.21c-.16,0-.24.12-.24.28h-.3a.51.51,0,0,1,.54-.54.47.47,0,0,1,.52.43.31.31,0,0,1-.22.32h0a.36.36,0,0,1,.28.36.54.54,0,0,1-.58.51.53.53,0,0,1-.58-.57h.3c0,.17.09.31.27.31a.24.24,0,0,0,.26-.25c0-.23-.21-.23-.36-.23Z"/><path class="cls-13" d="M124.47,34.31h-.36l-.39-1.15h.33l.24.78h0l.24-.78h.32Z"/><path class="cls-13" d="M125.37,33.38c.14,0,.34,0,.34-.19a.21.21,0,0,0-.22-.21c-.17,0-.25.12-.25.28h-.3a.53.53,0,0,1,.54-.54.48.48,0,0,1,.53.43.32.32,0,0,1-.22.32h0a.35.35,0,0,1,.27.36.58.58,0,0,1-1.15-.06h.3a.27.27,0,0,0,.27.31.24.24,0,0,0,.25-.25c0-.23-.2-.23-.36-.23Z"/><path class="cls-13" d="M138,33.38c.13,0,.33,0,.33-.19a.21.21,0,0,0-.22-.21c-.16,0-.24.12-.24.28h-.3a.51.51,0,0,1,.54-.54.47.47,0,0,1,.52.43.31.31,0,0,1-.22.32h0a.36.36,0,0,1,.28.36.54.54,0,0,1-.58.51.53.53,0,0,1-.58-.57h.3c0,.17.09.31.27.31a.24.24,0,0,0,.26-.25c0-.23-.21-.23-.36-.23Z"/><path class="cls-13" d="M139.51,34.31h-.36l-.39-1.15h.33l.24.78h0l.24-.78h.32Z"/><path class="cls-13" d="M140.41,33.38c.14,0,.34,0,.34-.19a.21.21,0,0,0-.22-.21c-.17,0-.25.12-.25.28H140a.53.53,0,0,1,.54-.54.48.48,0,0,1,.53.43.32.32,0,0,1-.22.32h0a.35.35,0,0,1,.27.36.58.58,0,0,1-1.15-.06h.3a.27.27,0,0,0,.27.31.24.24,0,0,0,.25-.25c0-.23-.2-.23-.36-.23Z"/><path class="cls-13" d="M138.09,9.4c.14,0,.34,0,.34-.2a.21.21,0,0,0-.22-.21c-.17,0-.25.12-.25.28h-.3a.53.53,0,0,1,.54-.54.49.49,0,0,1,.53.44.3.3,0,0,1-.22.31h0a.34.34,0,0,1,.27.35.58.58,0,0,1-1.15-.05h.3a.27.27,0,0,0,.27.31.24.24,0,0,0,.25-.25c0-.24-.2-.23-.36-.23Z"/><path class="cls-13" d="M139.58,10.32h-.35l-.39-1.15h.33l.24.79h0l.25-.79H140Z"/><path class="cls-13" d="M140.49,9.4c.14,0,.33,0,.33-.2A.21.21,0,0,0,140.6,9c-.16,0-.24.12-.24.28h-.3a.52.52,0,0,1,.54-.54.48.48,0,0,1,.52.44.29.29,0,0,1-.22.31h0a.34.34,0,0,1,.28.35A.58.58,0,0,1,140,9.79h.3c0,.17.09.31.28.31a.24.24,0,0,0,.25-.25c0-.24-.21-.23-.36-.23Z"/><path class="cls-25" d="M97.39,7.25h-.24V6.47h-.3V6.29c.17,0,.32,0,.35-.24h.19Z"/><path class="cls-25" d="M96.78,13.58a.43.43,0,0,1,.44-.49.38.38,0,0,1,.41.38c0,.36-.39.39-.56.63h.57v.21h-.88c0-.28.17-.39.38-.53s.25-.15.25-.3a.17.17,0,0,0-.18-.18c-.15,0-.19.15-.19.28Z"/><path class="cls-25" d="M70.85,6.54c.11,0,.26,0,.26-.15a.16.16,0,0,0-.17-.16.18.18,0,0,0-.19.21h-.23A.4.4,0,0,1,70.94,6a.37.37,0,0,1,.4.33.24.24,0,0,1-.17.24h0a.26.26,0,0,1,.21.27.4.4,0,0,1-.44.39.41.41,0,0,1-.45-.43h.23c0,.13.07.23.21.23a.18.18,0,0,0,.2-.18c0-.19-.16-.18-.28-.18Z"/><path class="cls-25" d="M71.7,6.94a.17.17,0,0,0,.16.15c.18,0,.22-.23.23-.36h0a.31.31,0,0,1-.27.14.37.37,0,0,1-.28-.13.41.41,0,0,1-.09-.26A.42.42,0,0,1,71.87,6c.36,0,.46.32.46.62s-.13.62-.47.62a.37.37,0,0,1-.39-.33Zm.37-.49a.21.21,0,0,0-.2-.22.2.2,0,0,0-.18.22.2.2,0,0,0,.18.22A.2.2,0,0,0,72.07,6.45Z"/><path class="cls-25" d="M71,14h-.51v-.22l.52-.69h.22v.71h.15V14h-.15v.28H71Zm0-.61h0l-.31.41H71Z"/><path class="cls-25" d="M71.89,13.09c.23,0,.44.15.44.62s-.21.63-.44.63-.44-.15-.44-.63S71.65,13.09,71.89,13.09Zm0,1.05c.19,0,.19-.3.19-.43s0-.42-.19-.42-.2.29-.2.42S71.69,14.14,71.89,14.14Z"/></g></g></g></svg>