<?xml version="1.0" encoding="UTF-8"?><svg id="_9012" xmlns="http://www.w3.org/2000/svg" viewBox="0 0 1000 1000"><defs><style>.cls-1{fill:#6f7985;}.cls-2,.cls-3{fill:#ed1c24;}.cls-2,.cls-4{font-family:NHaasGroteskDSPro-55Rg, 'Neue Haas Grotesk Display Pro';font-size:25px;}.cls-5,.cls-6{fill:#fff;}.cls-7{fill:#e9d197;}.cls-8{fill:#e4e9ad;}.cls-9{fill:#343235;}.cls-10{fill:#dbdbdb;}.cls-11{fill:#ca9a2c;}.cls-12{fill:#b6c2cc;}.cls-13{fill:#323134;}.cls-14{fill:#fed10d;}.cls-15{fill:#deaa53;}.cls-16{stroke-width:.83px;}.cls-16,.cls-17,.cls-18,.cls-19,.cls-20,.cls-21,.cls-22{fill:none;}.cls-16,.cls-18,.cls-19,.cls-20,.cls-21{stroke:#fff;stroke-linecap:round;stroke-linejoin:round;}.cls-23{fill:#f3e2c1;}.cls-24{fill:#131313;}.cls-25{fill:#f4ede6;}.cls-26{fill:#0a0a0a;}.cls-27{fill:#e0e0e0;}.cls-28{fill:#ccd3cf;}.cls-29{fill:#f7f1e5;}.cls-30{fill:#a5a8a6;}.cls-31{fill:#feec4e;}.cls-17{stroke:#231f20;}.cls-17,.cls-22{stroke-miterlimit:10;stroke-width:2px;}.cls-32{fill:#a3988f;}.cls-33{fill:#dcd1a2;}.cls-34{fill:#eaeaea;}.cls-35{fill:#a4a9b8;}.cls-36{fill:#cecbc2;}.cls-18{stroke-width:.62px;}.cls-19{stroke-width:1.05px;}.cls-37{fill:#292929;}.cls-4,.cls-38{fill:#231f20;}.cls-39{fill:#78695e;}.cls-6{font-family:NHaasGroteskDSPro-75Bd, 'Neue Haas Grotesk Display Pro';font-size:22.48px;}.cls-40{fill:#bcc1d2;}.cls-20{stroke-width:1.01px;}.cls-41{fill:#e2b12d;}.cls-21{stroke-width:.5px;}.cls-42{fill:#ba8436;}.cls-43{fill:#baaea6;}.cls-44{fill:#eeefeb;}.cls-45{fill:#a09c9f;}.cls-46{fill:#fffefe;}.cls-22{stroke:#ed1c24;}.cls-47{fill:#9b8e83;}.cls-48{fill:#f2f2f2;}</style></defs><g><g><path class="cls-37" d="M532.22,181.17h-196.52c-10.99,0-19.9,8.91-19.9,19.9v346.34c.06,.86,.56,2.86,3.81,4.04,0,0,13.88,6.28,13.88,17.26v38.48s-.53,10.93-10.82,13.51c0,0-6.46,1.11-6.87,9.45v146.24c0,10.99,8.91,19.9,19.9,19.9h196.52c10.99,0,19.9-8.91,19.9-19.9v-94c0-10.99,8.91-19.9,19.9-19.9h135.06c10.99,0,19.9-8.91,19.9-19.9V334.88c0-10.99-8.91-19.9-19.9-19.9h-135.06c-10.99,0-19.9-8.91-19.9-19.9v-94c0-10.99-8.91-19.9-19.9-19.9Zm30.3,436.83c8.91,0,16.13,7.22,16.13,16.13,0,8.91-7.22,16.13-16.13,16.13-8.91,0-16.13-7.22-16.13-16.13,0-8.91,7.22-16.13,16.13-16.13Zm123.42,0c8.91,0,16.13,7.22,16.13,16.13,0,8.91-7.22,16.13-16.13,16.13-8.91,0-16.13-7.22-16.13-16.13,0-8.91,7.22-16.13,16.13-16.13Zm-123.42-288.77c8.91,0,16.13,7.22,16.13,16.13,0,8.91-7.22,16.13-16.13,16.13s-16.13-7.22-16.13-16.13c0-8.91,7.22-16.13,16.13-16.13Zm123.42,0c8.91,0,16.13,7.22,16.13,16.13s-7.22,16.13-16.13,16.13-16.13-7.22-16.13-16.13c0-8.91,7.22-16.13,16.13-16.13Z"/><path class="cls-15" d="M685.94,607.16c-14.89,0-26.97,12.07-26.97,26.97,0,14.89,12.07,26.97,26.97,26.97,14.89,0,26.97-12.07,26.97-26.97,0-14.89-12.07-26.97-26.97-26.97Zm0,10.83c8.91,0,16.13,7.22,16.13,16.13,0,8.91-7.22,16.13-16.13,16.13s-16.13-7.22-16.13-16.13c0-8.91,7.22-16.13,16.13-16.13Z"/><path class="cls-15" d="M685.94,318.54c-14.82,0-26.83,12.01-26.83,26.83,0,14.82,12.01,26.83,26.83,26.83,14.82,0,26.83-12.01,26.83-26.83,0-14.82-12.01-26.83-26.83-26.83Zm0,10.69c8.91,0,16.13,7.22,16.13,16.13s-7.22,16.13-16.13,16.13-16.13-7.22-16.13-16.13c0-8.91,7.22-16.13,16.13-16.13Z"/><path class="cls-15" d="M562.52,607.39c-14.77,0-26.74,11.97-26.74,26.74,0,14.77,11.97,26.74,26.74,26.74,14.77,0,26.74-11.97,26.74-26.74,0-14.77-11.97-26.74-26.74-26.74Zm0,10.61c8.91,0,16.13,7.22,16.13,16.13,0,8.91-7.22,16.13-16.13,16.13-8.91,0-16.13-7.22-16.13-16.13s7.22-16.13,16.13-16.13Z"/><path class="cls-15" d="M562.52,318.76c-14.69,0-26.6,11.91-26.6,26.6,0,14.69,11.91,26.6,26.6,26.6,14.69,0,26.6-11.91,26.6-26.6,0-14.69-11.91-26.6-26.6-26.6Zm0,10.47c8.91,0,16.13,7.22,16.13,16.13,0,8.91-7.22,16.13-16.13,16.13s-16.13-7.22-16.13-16.13c0-8.91,7.22-16.13,16.13-16.13Z"/></g><g><rect class="cls-21" x="337.03" y="210.05" width="41.22" height="23.56" rx=".9" ry=".9" transform="translate(579.47 -135.81) rotate(90)"/><rect class="cls-21" x="370.54" y="256.53" width="41.22" height="23.56" rx=".9" ry=".9" transform="translate(659.46 -122.84) rotate(90)"/><rect class="cls-21" x="480.17" y="335.82" width="41.22" height="23.56" rx=".9" ry=".9" transform="translate(1001.57 695.2) rotate(-180)"/><rect class="cls-21" x="437.56" y="531.13" width="39.25" height="21.17" rx=".84" ry=".84" transform="translate(914.37 1083.44) rotate(-180)"/><rect class="cls-21" x="599.74" y="396.57" width="39.99" height="20.94" rx=".52" ry=".52" transform="translate(1026.78 -212.7) rotate(90)"/><rect class="cls-21" x="661.62" y="390.92" width="39.99" height="20.94" rx=".52" ry=".52" transform="translate(1083 -280.23) rotate(90)"/><rect class="cls-21" x="669.81" y="450.47" width="39.99" height="20.94" rx=".52" ry=".52"/><rect class="cls-21" x="653.77" y="471.41" width="59" height="27.06" rx=".72" ry=".72"/><rect class="cls-21" x="608.2" y="442.28" width="39.99" height="20.94" rx=".52" ry=".52" transform="translate(1080.94 -175.45) rotate(90)"/><rect class="cls-21" x="557.31" y="387.04" width="39.99" height="39.99" rx=".72" ry=".72" transform="translate(984.35 -170.27) rotate(90)"/><path class="cls-21" d="M621.37,472.74h-24.52c-1.19,0-2.16-.97-2.16-2.16v-36.77h19.25"/><rect class="cls-21" x="603.99" y="463.45" width="24.04" height="42.62" rx=".42" ry=".42" transform="translate(1100.77 -131.24) rotate(90)"/><polyline class="cls-21" points="594.69 493.43 557.31 493.43 557.31 417.66"/><path class="cls-21" d="M494.86,559.03v-77.4h62.46v75.41s.82,7.64-7.64,7.64"/><polyline class="cls-21" points="496.73 564.69 534.86 564.69 534.86 585.58 496.73 585.58"/><rect class="cls-21" x="544.99" y="554.56" width="20.89" height="41.14" rx=".59" ry=".59" transform="translate(1130.57 19.7) rotate(90)"/><rect class="cls-21" x="586.86" y="554.56" width="20.89" height="41.14" rx=".59" ry=".59" transform="translate(1172.44 -22.17) rotate(90)"/><rect class="cls-21" x="671.71" y="522.53" width="20.89" height="38.56" rx=".57" ry=".57"/><line class="cls-21" x1="651.14" y1="561.09" x2="590.57" y2="561.09"/><line class="cls-21" x1="654.61" y1="496.78" x2="633.38" y2="496.78"/><line class="cls-21" x1="480.18" y1="557.05" x2="420.45" y2="557.05"/><rect class="cls-21" x="442.26" y="572.42" width="36.17" height="92.96" rx=".54" ry=".54" transform="translate(1079.25 158.56) rotate(90)"/><rect class="cls-5" x="496.09" y="612.95" width="39.43" height="11.17" rx=".35" ry=".35" transform="translate(1134.35 102.73) rotate(90)"/><line class="cls-16" x1="545.53" y1="725.6" x2="521.39" y2="725.6"/><line class="cls-16" x1="545.53" y1="764.68" x2="521.39" y2="764.68"/><line class="cls-20" x1="391.15" y1="198.69" x2="426.37" y2="198.69"/><line class="cls-20" x1="323.24" y1="197.26" x2="343.37" y2="197.26"/><line class="cls-16" x1="494.86" y1="645.68" x2="437.56" y2="645.68"/><line class="cls-16" x1="533.46" y1="737.67" x2="533.46" y2="713.54"/><line class="cls-19" x1="423.99" y1="300.37" x2="393.53" y2="300.37"/><line class="cls-19" x1="408.76" y1="315.6" x2="408.76" y2="285.14"/><line class="cls-18" x1="413.86" y1="664.27" x2="395.84" y2="664.27"/><line class="cls-18" x1="404.85" y1="673.28" x2="404.85" y2="655.26"/><line class="cls-18" x1="398.9" y1="575.13" x2="380.88" y2="575.13"/><line class="cls-18" x1="389.89" y1="584.14" x2="389.89" y2="566.12"/><rect class="cls-21" x="428.68" y="702.43" width="93.84" height="80.39" rx="1.01" ry="1.01" transform="translate(1218.22 267.02) rotate(90)"/><rect class="cls-21" x="419.41" y="193.91" width="122.58" height="105.53" rx="1.32" ry="1.32" transform="translate(727.37 -234.02) rotate(90)"/><path class="cls-5" d="M417.18,744.2c0,1.73,1.18,.34,1.64-.14l12.08-12.9c.54-.58,.54-1.52,0-2.09l-12.08-12.9c-.45-.48-1.64-1.54-1.64-.14v28.18Z"/><path class="cls-5" d="M406.71,239.11c0,1.73,1.18,.34,1.64-.14l12.08-12.9c.54-.58,.54-1.52,0-2.09l-12.08-12.9c-.45-.48-1.64-1.54-1.64-.14v28.18Z"/><line class="cls-21" x1="552.53" y1="412.66" x2="552.53" y2="445.49"/><line class="cls-21" x1="487.33" y1="412.66" x2="487.33" y2="424.71"/><line class="cls-21" x1="487.33" y1="435.09" x2="487.33" y2="447.15"/><polyline class="cls-18" points="385.4 533.8 385.4 523.16 325.39 523.16 325.39 541.72"/><polyline class="cls-18" points="385.4 632.78 385.4 643.42 325.39 643.42 325.39 624.86"/><line class="cls-18" x1="346.61" y1="656.8" x2="346.61" y2="691.39"/><line class="cls-18" x1="346.61" y1="732.7" x2="346.61" y2="767.29"/><rect class="cls-5" x="331" y="707.01" width="6.35" height="22.99" rx=".16" ry=".16" transform="translate(1052.68 384.33) rotate(90)"/><circle class="cls-5" cx="483.27" cy="459.06" r="7.34"/><circle class="cls-5" cx="547.62" cy="475.89" r="4.7"/><circle class="cls-5" cx="564.17" cy="497.73" r="4.38"/><circle class="cls-5" cx="414.7" cy="546.7" r="10.35"/><line class="cls-21" x1="530.98" y1="559.41" x2="517.55" y2="559.41"/><line class="cls-21" x1="423.99" y1="327.2" x2="385.4" y2="327.2"/><line class="cls-21" x1="326.98" y1="327.2" x2="319.88" y2="327.2"/><line class="cls-21" x1="465.6" y1="347.6" x2="465.6" y2="358.91"/><line class="cls-21" x1="423.99" y1="516.25" x2="385.4" y2="516.25"/><line class="cls-21" x1="326.98" y1="516.25" x2="319.88" y2="516.25"/><line class="cls-21" x1="465.6" y1="488.73" x2="465.6" y2="477.42"/><text class="cls-6" transform="translate(612.68 362.3) rotate(-90)"><tspan x="0" y="0">M1</tspan></text><text class="cls-6" transform="translate(648.72 362.3) rotate(-90)"><tspan x="0" y="0">M4</tspan></text><text class="cls-6" transform="translate(612.68 648.23) rotate(-90)"><tspan x="0" y="0">M2</tspan></text><text class="cls-6" transform="translate(648.72 648.23) rotate(-90)"><tspan x="0" y="0">M3</tspan></text><path class="cls-5" d="M719.54,343.33c0-11.92-6.26-22.39-15.64-28.35h-6.12c11.08,4.65,18.9,15.6,18.9,28.35,0,16.95-13.79,30.74-30.74,30.74s-30.74-13.79-30.74-30.74c0-12.75,7.81-23.71,18.9-28.35h-6.12c-9.39,5.97-15.64,16.43-15.64,28.35,0,18.53,15.07,33.6,33.6,33.6s33.6-15.07,33.6-33.6Z"/><path class="cls-5" d="M596.13,343.33c0-11.92-6.26-22.39-15.64-28.35h-6.12c11.08,4.65,18.9,15.6,18.9,28.35,0,16.95-13.79,30.74-30.74,30.74s-30.74-13.79-30.74-30.74,13.79-30.74,30.74-30.74c.15,0,.3,.04,.45,.05-1.44-.75-2.78-1.66-3.99-2.72-16.88,1.77-30.07,16.08-30.07,33.42,0,18.53,15.08,33.6,33.61,33.6s33.6-15.07,33.6-33.6Z"/><path class="cls-5" d="M572.25,662.41h4.68c11.33-5.41,19.2-16.94,19.2-30.32,0-18.53-15.07-33.61-33.6-33.61s-33.61,15.07-33.61,33.61,14.47,32.94,32.48,33.55c3.14-2.03,6.85-3.23,10.86-3.23Zm-40.47-30.32c0-16.95,13.79-30.74,30.74-30.74s30.74,13.79,30.74,30.74-13.79,30.74-30.74,30.74-30.74-13.79-30.74-30.74Z"/><path class="cls-5" d="M682.47,662.48c-15.3-1.75-27.26-14.63-27.26-30.39,0-16.95,13.79-30.74,30.74-30.74s30.74,13.79,30.74,30.74c0,15.76-11.97,28.64-27.26,30.39h10.78c11.41-5.38,19.35-16.96,19.35-30.39,0-18.53-15.07-33.61-33.6-33.61s-33.6,15.07-33.6,33.61c0,13.43,7.94,25.01,19.35,30.39h10.78Z"/></g><g><path class="cls-40" d="M674.75,463.57v-5.27c0-1.82,1.14-3.29,2.55-3.29h25c1.41,0,2.55,1.47,2.55,3.29v5.27c0,1.82-1.14,3.29-2.55,3.29h-25c-1.41,0-2.55-1.47-2.55-3.29"/><path class="cls-35" d="M677.95,464.01v-6.15c0-1.58,.99-2.85,2.21-2.85h18.19c1.22,0,2.21,1.28,2.21,2.85v6.15c0,1.58-.99,2.85-2.21,2.85h-18.19c-1.22,0-2.21-1.28-2.21-2.85"/><path class="cls-44" d="M679.48,465.54v-9.21c0-1.06,.67-1.92,1.49-1.92h16.91c.82,0,1.49,.86,1.49,1.92v9.21c0,1.06-.67,1.92-1.49,1.92h-16.91c-.82,0-1.49-.86-1.49-1.92"/><rect class="cls-15" x="684.06" y="454.4" width="11.44" height="13.06"/></g><g><path class="cls-40" d="M497.03,577.77v-5.27c0-1.82,1.14-3.29,2.55-3.29h25c1.41,0,2.55,1.47,2.55,3.29v5.27c0,1.82-1.14,3.29-2.55,3.29h-25c-1.41,0-2.55-1.47-2.55-3.29"/><path class="cls-35" d="M500.23,578.21v-6.15c0-1.58,.99-2.85,2.21-2.85h18.19c1.22,0,2.21,1.28,2.21,2.85v6.15c0,1.58-.99,2.85-2.21,2.85h-18.19c-1.22,0-2.21-1.28-2.21-2.85"/><path class="cls-44" d="M501.76,579.74v-9.21c0-1.06,.67-1.92,1.49-1.92h16.91c.82,0,1.49,.86,1.49,1.92v9.21c0,1.06-.67,1.92-1.49,1.92h-16.91c-.82,0-1.49-.86-1.49-1.92"/><rect class="cls-15" x="506.34" y="568.6" width="11.44" height="13.06"/></g><g><path class="cls-40" d="M442.14,544.35v-5.27c0-1.82,1.14-3.29,2.55-3.29h25c1.41,0,2.55,1.47,2.55,3.29v5.27c0,1.82-1.14,3.29-2.55,3.29h-25c-1.41,0-2.55-1.47-2.55-3.29"/><path class="cls-35" d="M445.34,544.79v-6.15c0-1.58,.99-2.85,2.21-2.85h18.19c1.22,0,2.21,1.28,2.21,2.85v6.15c0,1.58-.99,2.85-2.21,2.85h-18.19c-1.22,0-2.21-1.28-2.21-2.85"/><path class="cls-44" d="M446.86,546.33v-9.21c0-1.06,.67-1.92,1.49-1.92h16.91c.82,0,1.49,.86,1.49,1.92v9.21c0,1.06-.67,1.92-1.49,1.92h-16.91c-.82,0-1.49-.86-1.49-1.92"/><rect class="cls-15" x="451.44" y="535.19" width="11.44" height="13.06"/></g><g><path class="cls-40" d="M684.8,416.43h-5.27c-1.82,0-3.29-1.14-3.29-2.55v-25c0-1.41,1.47-2.55,3.29-2.55h5.27c1.82,0,3.29,1.14,3.29,2.55v25c0,1.41-1.47,2.55-3.29,2.55"/><path class="cls-35" d="M685.23,413.23h-6.15c-1.58,0-2.85-.99-2.85-2.21v-18.19c0-1.22,1.28-2.21,2.85-2.21h6.15c1.58,0,2.85,.99,2.85,2.21v18.19c0,1.22-1.28,2.21-2.85,2.21"/><path class="cls-44" d="M686.77,411.71h-9.21c-1.06,0-1.92-.67-1.92-1.49v-16.91c0-.82,.86-1.49,1.92-1.49h9.21c1.06,0,1.92,.67,1.92,1.49v16.91c0,.82-.86,1.49-1.92,1.49"/><rect class="cls-15" x="675.63" y="395.69" width="13.06" height="11.44"/></g><g><path class="cls-40" d="M622.37,422.09h-5.27c-1.82,0-3.29-1.14-3.29-2.55v-25c0-1.41,1.47-2.55,3.29-2.55h5.27c1.82,0,3.29,1.14,3.29,2.55v25c0,1.41-1.47,2.55-3.29,2.55"/><path class="cls-35" d="M622.81,418.89h-6.15c-1.58,0-2.85-.99-2.85-2.21v-18.19c0-1.22,1.28-2.21,2.85-2.21h6.15c1.58,0,2.85,.99,2.85,2.21v18.19c0,1.22-1.28,2.21-2.85,2.21"/><path class="cls-44" d="M624.34,417.36h-9.21c-1.06,0-1.92-.67-1.92-1.49v-16.91c0-.82,.86-1.49,1.92-1.49h9.21c1.06,0,1.92,.67,1.92,1.49v16.91c0,.82-.86,1.49-1.92,1.49"/><rect class="cls-15" x="613.21" y="401.34" width="13.06" height="11.44"/></g><g><path class="cls-40" d="M589.56,422.09h-5.27c-1.82,0-3.29-1.14-3.29-2.55v-25c0-1.41,1.47-2.55,3.29-2.55h5.27c1.82,0,3.29,1.14,3.29,2.55v25c0,1.41-1.47,2.55-3.29,2.55"/><path class="cls-35" d="M590,418.89h-6.15c-1.58,0-2.85-.99-2.85-2.21v-18.19c0-1.22,1.28-2.21,2.85-2.21h6.15c1.58,0,2.85,.99,2.85,2.21v18.19c0,1.22-1.28,2.21-2.85,2.21"/><path class="cls-44" d="M591.54,417.36h-9.21c-1.06,0-1.92-.67-1.92-1.49v-16.91c0-.82,.86-1.49,1.92-1.49h9.21c1.06,0,1.92,.67,1.92,1.49v16.91c0,.82-.86,1.49-1.92,1.49"/><rect class="cls-15" x="580.4" y="401.34" width="13.06" height="11.44"/></g><g><path class="cls-40" d="M571.19,422.09h-5.27c-1.82,0-3.29-1.14-3.29-2.55v-25c0-1.41,1.47-2.55,3.29-2.55h5.27c1.82,0,3.29,1.14,3.29,2.55v25c0,1.41-1.47,2.55-3.29,2.55"/><path class="cls-35" d="M571.63,418.89h-6.15c-1.58,0-2.85-.99-2.85-2.21v-18.19c0-1.22,1.28-2.21,2.85-2.21h6.15c1.58,0,2.85,.99,2.85,2.21v18.19c0,1.22-1.28,2.21-2.85,2.21"/><path class="cls-44" d="M573.16,417.36h-9.21c-1.06,0-1.92-.67-1.92-1.49v-16.91c0-.82,.86-1.49,1.92-1.49h9.21c1.06,0,1.92,.67,1.92,1.49v16.91c0,.82-.86,1.49-1.92,1.49"/><rect class="cls-15" x="562.02" y="401.34" width="13.06" height="11.44"/></g><g><path class="cls-40" d="M679.5,526.6h5.33c1.84,0,3.33,1.16,3.33,2.58v25.29c0,1.43-1.49,2.58-3.33,2.58h-5.33c-1.84,0-3.33-1.16-3.33-2.58v-25.29c0-1.43,1.49-2.58,3.33-2.58"/><path class="cls-35" d="M679.05,529.83h6.22c1.59,0,2.89,1,2.89,2.24v18.4c0,1.23-1.29,2.24-2.89,2.24h-6.22c-1.59,0-2.89-1-2.89-2.24v-18.4c0-1.24,1.29-2.24,2.89-2.24"/><path class="cls-44" d="M677.5,531.38h9.32c1.08,0,1.95,.68,1.95,1.51v17.11c0,.83-.87,1.51-1.95,1.51h-9.32c-1.08,0-1.95-.68-1.95-1.51v-17.11c0-.83,.87-1.51,1.95-1.51"/><rect class="cls-26" x="675.55" y="536.01" width="13.22" height="11.58"/></g><g><path class="cls-40" d="M625.37,438.05h5.33c1.84,0,3.33,1.16,3.33,2.58v25.29c0,1.43-1.49,2.58-3.33,2.58h-5.33c-1.84,0-3.33-1.16-3.33-2.58v-25.29c0-1.43,1.49-2.58,3.33-2.58"/><path class="cls-35" d="M624.93,441.28h6.22c1.59,0,2.89,1,2.89,2.24v18.4c0,1.23-1.29,2.24-2.89,2.24h-6.22c-1.59,0-2.89-1-2.89-2.24v-18.4c0-1.24,1.29-2.24,2.89-2.24"/><path class="cls-44" d="M623.37,442.83h9.32c1.08,0,1.95,.68,1.95,1.51v17.11c0,.83-.87,1.51-1.95,1.51h-9.32c-1.08,0-1.95-.68-1.95-1.51v-17.11c0-.83,.87-1.51,1.95-1.51"/><rect class="cls-26" x="621.43" y="447.46" width="13.22" height="11.58"/></g><g><path class="cls-40" d="M603.32,438.05h5.33c1.84,0,3.33,1.16,3.33,2.58v25.29c0,1.43-1.49,2.58-3.33,2.58h-5.33c-1.84,0-3.33-1.16-3.33-2.58v-25.29c0-1.43,1.49-2.58,3.33-2.58"/><path class="cls-35" d="M602.88,441.28h6.22c1.59,0,2.89,1,2.89,2.24v18.4c0,1.23-1.29,2.24-2.89,2.24h-6.22c-1.59,0-2.89-1-2.89-2.24v-18.4c0-1.24,1.29-2.24,2.89-2.24"/><path class="cls-44" d="M601.32,442.83h9.32c1.08,0,1.95,.68,1.95,1.51v17.11c0,.83-.87,1.51-1.95,1.51h-9.32c-1.08,0-1.95-.68-1.95-1.51v-17.11c0-.83,.87-1.51,1.95-1.51"/><rect class="cls-26" x="599.38" y="447.46" width="13.22" height="11.58"/></g><g><path class="cls-40" d="M388.48,253.08h5.33c1.84,0,3.33,1.16,3.33,2.58v25.29c0,1.43-1.49,2.58-3.33,2.58h-5.33c-1.84,0-3.33-1.16-3.33-2.58v-25.29c0-1.43,1.49-2.58,3.33-2.58"/><path class="cls-35" d="M388.04,256.32h6.22c1.59,0,2.89,1,2.89,2.24v18.4c0,1.23-1.29,2.24-2.89,2.24h-6.22c-1.59,0-2.89-1-2.89-2.24v-18.4c0-1.24,1.29-2.24,2.89-2.24"/><path class="cls-44" d="M386.49,257.87h9.32c1.08,0,1.95,.68,1.95,1.51v17.11c0,.83-.87,1.51-1.95,1.51h-9.32c-1.08,0-1.95-.68-1.95-1.51v-17.11c0-.83,.87-1.51,1.95-1.51"/><rect class="cls-26" x="384.54" y="262.5" width="13.22" height="11.58"/></g><g><path class="cls-40" d="M354.97,206.6h5.33c1.84,0,3.33,1.16,3.33,2.58v25.29c0,1.43-1.49,2.58-3.33,2.58h-5.33c-1.84,0-3.33-1.16-3.33-2.58v-25.29c0-1.43,1.49-2.58,3.33-2.58"/><path class="cls-35" d="M354.53,209.84h6.22c1.59,0,2.89,1,2.89,2.24v18.4c0,1.23-1.29,2.24-2.89,2.24h-6.22c-1.59,0-2.89-1-2.89-2.24v-18.4c0-1.24,1.29-2.24,2.89-2.24"/><path class="cls-44" d="M352.98,211.39h9.32c1.08,0,1.95,.68,1.95,1.51v17.11c0,.83-.87,1.51-1.95,1.51h-9.32c-1.08,0-1.95-.68-1.95-1.51v-17.11c0-.83,.87-1.51,1.95-1.51"/><rect class="cls-26" x="351.03" y="216.02" width="13.22" height="11.58"/></g><g><path class="cls-40" d="M601.64,486.84v-5.33c0-1.84,1.16-3.33,2.58-3.33h25.29c1.43,0,2.58,1.49,2.58,3.33v5.33c0,1.84-1.16,3.33-2.58,3.33h-25.29c-1.43,0-2.58-1.49-2.58-3.33"/><path class="cls-35" d="M604.88,487.29v-6.22c0-1.59,1-2.89,2.24-2.89h18.4c1.23,0,2.24,1.29,2.24,2.89v6.22c0,1.59-1,2.89-2.24,2.89h-18.4c-1.24,0-2.24-1.29-2.24-2.89"/><path class="cls-44" d="M606.43,488.84v-9.32c0-1.08,.68-1.95,1.51-1.95h17.11c.83,0,1.51,.87,1.51,1.95v9.32c0,1.08-.68,1.95-1.51,1.95h-17.11c-.83,0-1.51-.87-1.51-1.95"/><rect class="cls-26" x="611.06" y="477.57" width="11.58" height="13.22"/></g><g><path class="cls-40" d="M581.38,577.8v-5.33c0-1.84,1.16-3.33,2.58-3.33h25.29c1.43,0,2.58,1.49,2.58,3.33v5.33c0,1.84-1.16,3.33-2.58,3.33h-25.29c-1.43,0-2.58-1.49-2.58-3.33"/><path class="cls-35" d="M584.62,578.24v-6.22c0-1.59,1-2.89,2.24-2.89h18.4c1.23,0,2.24,1.29,2.24,2.89v6.22c0,1.59-1,2.89-2.24,2.89h-18.4c-1.24,0-2.24-1.29-2.24-2.89"/><path class="cls-44" d="M586.16,579.8v-9.32c0-1.08,.68-1.95,1.51-1.95h17.11c.83,0,1.51,.87,1.51,1.95v9.32c0,1.08-.68,1.95-1.51,1.95h-17.11c-.83,0-1.51-.87-1.51-1.95"/><rect class="cls-26" x="590.79" y="568.53" width="11.58" height="13.22"/></g><g><path class="cls-40" d="M540.21,577.8v-5.33c0-1.84,1.16-3.33,2.58-3.33h25.29c1.43,0,2.58,1.49,2.58,3.33v5.33c0,1.84-1.16,3.33-2.58,3.33h-25.29c-1.43,0-2.58-1.49-2.58-3.33"/><path class="cls-35" d="M543.44,578.24v-6.22c0-1.59,1-2.89,2.24-2.89h18.4c1.23,0,2.24,1.29,2.24,2.89v6.22c0,1.59-1,2.89-2.24,2.89h-18.4c-1.24,0-2.24-1.29-2.24-2.89"/><path class="cls-44" d="M544.99,579.8v-9.32c0-1.08,.68-1.95,1.51-1.95h17.11c.83,0,1.51,.87,1.51,1.95v9.32c0,1.08-.68,1.95-1.51,1.95h-17.11c-.83,0-1.51-.87-1.51-1.95"/><rect class="cls-26" x="549.62" y="568.53" width="11.58" height="13.22"/></g><g><path class="cls-40" d="M484.77,350.27v-5.33c0-1.84,1.16-3.33,2.58-3.33h25.29c1.43,0,2.58,1.49,2.58,3.33v5.33c0,1.84-1.16,3.33-2.58,3.33h-25.29c-1.43,0-2.58-1.49-2.58-3.33"/><path class="cls-35" d="M488.01,350.71v-6.22c0-1.59,1-2.89,2.24-2.89h18.4c1.23,0,2.24,1.29,2.24,2.89v6.22c0,1.59-1,2.89-2.24,2.89h-18.4c-1.24,0-2.24-1.29-2.24-2.89"/><path class="cls-44" d="M489.55,352.26v-9.32c0-1.08,.68-1.95,1.51-1.95h17.11c.83,0,1.51,.87,1.51,1.95v9.32c0,1.08-.68,1.95-1.51,1.95h-17.11c-.83,0-1.51-.87-1.51-1.95"/><rect class="cls-26" x="494.18" y="340.99" width="11.58" height="13.22"/></g><g><rect class="cls-34" x="674.45" y="459.54" width="17.64" height="50.8" rx=".5" ry=".5" transform="translate(1168.2 -198.33) rotate(90)"/><g><rect class="cls-42" x="672.71" y="466.27" width="21.11" height="37.32" rx=".44" ry=".44" transform="translate(1168.2 -198.33) rotate(90)"/><rect class="cls-15" x="673.09" y="466.93" width="20.36" height="36" rx=".42" ry=".42" transform="translate(1168.2 -198.33) rotate(90)"/></g></g><g><rect class="cls-5" x="446.07" y="576.25" width="27.93" height="85.72" rx=".36" ry=".36" transform="translate(1079.15 159.08) rotate(90)"/><rect class="cls-26" x="446.49" y="590.58" width="30.51" height="57.07" rx=".34" ry=".34" transform="translate(1080.86 157.37) rotate(90)"/><rect class="cls-9" x="447.36" y="590.58" width="28.76" height="57.07" rx=".33" ry=".33" transform="translate(1080.86 157.37) rotate(90)"/><path class="cls-27" d="M421.99,614.62h13.46v8.6c0,.21-.17,.37-.37,.37h-12.71c-.21,0-.37-.17-.37-.37v-8.6h0Z" transform="translate(1047.83 190.39) rotate(90)"/><path class="cls-27" d="M488.13,614.62h13.46v8.6c0,.21-.17,.37-.37,.37h-12.71c-.21,0-.37-.17-.37-.37v-8.6h0Z" transform="translate(-124.25 1113.97) rotate(-90)"/></g><g><rect class="cls-5" x="452.13" y="624.62" width="27.93" height="85.72" rx=".36" ry=".36" transform="translate(1133.57 201.39) rotate(90)"/><rect class="cls-26" x="452.55" y="638.95" width="30.51" height="57.07" rx=".34" ry=".34" transform="translate(1135.28 199.68) rotate(90)"/><rect class="cls-9" x="453.42" y="638.95" width="28.76" height="57.07" rx=".33" ry=".33" transform="translate(1135.28 199.68) rotate(90)"/></g><g><rect class="cls-5" x="436.35" y="535.92" width="27.93" height="85.72" rx=".36" ry=".36" transform="translate(1029.1 128.46) rotate(90)"/><rect class="cls-26" x="436.77" y="550.25" width="30.51" height="57.07" rx=".34" ry=".34" transform="translate(1030.81 126.75) rotate(90)"/><rect class="cls-9" x="437.64" y="550.25" width="28.76" height="57.07" rx=".33" ry=".33" transform="translate(1030.81 126.75) rotate(90)"/></g><g><g><rect class="cls-5" x="508.56" y="516.92" width="73.39" height="14.96" rx=".52" ry=".52" transform="translate(1069.65 -20.86) rotate(90)"/><rect class="cls-5" x="470.24" y="516.92" width="73.39" height="14.96" rx=".52" ry=".52" transform="translate(1031.33 17.46) rotate(90)"/><path class="cls-5" d="M533.57,513.05v-22.4c0-1.63-1.32-2.95-2.95-2.95h-9.05c-1.63,0-2.95,1.32-2.95,2.95v22.4h14.96Z"/></g><g><rect class="cls-26" x="507.88" y="494.55" width="36.44" height="57.9" rx=".6" ry=".6" transform="translate(1049.6 -2.6) rotate(90)"/><rect class="cls-9" x="509.54" y="494.55" width="33.12" height="57.9" rx=".57" ry=".57" transform="translate(1049.6 -2.6) rotate(90)"/></g></g><g><g><rect class="cls-5" x="502.03" y="425.27" width="73.39" height="14.96" rx=".52" ry=".52" transform="translate(971.48 -105.97) rotate(90)"/><rect class="cls-5" x="463.7" y="425.27" width="73.39" height="14.96" rx=".52" ry=".52" transform="translate(933.15 -67.65) rotate(90)"/><path class="cls-5" d="M527.04,421.4v-22.4c0-1.63-1.32-2.95-2.95-2.95h-9.05c-1.63,0-2.95,1.32-2.95,2.95v22.4h14.96Z"/><path class="cls-5" d="M512.08,444.16v22.4c0,1.63,1.32,2.95,2.95,2.95h9.05c1.63,0,2.95-1.32,2.95-2.95v-22.4h-14.96Z"/></g><g><rect class="cls-26" x="501.34" y="402.91" width="36.44" height="57.9" rx=".6" ry=".6" transform="translate(951.42 -87.7) rotate(90)"/><rect class="cls-9" x="503" y="402.91" width="33.12" height="57.9" rx=".57" ry=".57" transform="translate(951.42 -87.7) rotate(90)"/></g></g><g><ellipse class="cls-33" cx="339.74" cy="552.58" rx="4.46" ry="4.97"/><ellipse class="cls-33" cx="339.74" cy="614.71" rx="4.46" ry="4.97"/><rect class="cls-12" x="333.88" y="537.56" width="21.77" height="19.73"/><rect class="cls-12" x="333.76" y="611.91" width="21.77" height="19.73"/><rect class="cls-12" x="364.95" y="548.38" width="32.72" height="11.71"/><rect class="cls-12" x="364.95" y="607.84" width="32.72" height="11.71"/><path class="cls-1" d="M322.68,599.82v-30.43c8.15-.64,16.17-1.27,24.32-1.91v33.74c-8.02-.38-16.17-.89-24.32-1.4Z"/><rect class="cls-8" x="347" y="549.27" width="25.85" height="70.15"/><rect class="cls-8" x="340.25" y="545.83" width="25.46" height="76.01"/><path class="cls-25" d="M363.42,608.48v-47.49c0-1.27,1.02-2.29,2.29-2.29h9.04c1.27,0,2.29,1.02,2.29,2.29v47.49c0,1.27-1.02,2.29-2.29,2.29h-9.04c-1.27,0-2.29-1.02-2.29-2.29Z"/><rect class="cls-25" x="343.31" y="544.69" width="24.7" height="78.94"/></g><g><g><rect class="cls-40" x="621.92" y="513.57" width="52.42" height="29.49" rx=".27" ry=".27" transform="translate(1176.45 -119.81) rotate(90)"/><rect class="cls-40" x="567.05" y="513.57" width="52.42" height="29.49" rx=".27" ry=".27" transform="translate(1121.58 -64.94) rotate(90)"/></g><g><path class="cls-44" d="M586.85,543.49v-30.34c0-3.5,2.2-6.34,4.91-6.34h55.66c2.71,0,4.91,2.84,4.91,6.34v30.34c0,3.5-2.2,6.34-4.91,6.34h-55.66c-2.71,0-4.91-2.84-4.91-6.34"/><rect class="cls-26" x="601.92" y="506.81" width="37.67" height="43.01"/></g></g><g><path class="cls-29" d="M506.06,786.45h-60.63c-1.98,0-3.61-1.62-3.61-3.61v-80.5c0-1.98,1.62-3.61,3.61-3.61h60.63c1.98,0,3.61,1.62,3.61,3.61v80.5c0,1.98-1.62,3.61-3.61,3.61"/><path class="cls-23" d="M500.11,779.22h-48.73c-1.49,0-2.72-1.22-2.72-2.72v-68.34c0-1.49,1.22-2.72,2.72-2.72h48.73c1.5,0,2.72,1.22,2.72,2.72v68.34c0,1.49-1.22,2.72-2.72,2.72"/><rect class="cls-7" x="471.91" y="705.42" width="5.04" height="73.8"/><path class="cls-5" d="M489.19,728.23c0,2.36-1.91,4.27-4.27,4.27s-4.28-1.91-4.28-4.27,1.91-4.27,4.28-4.27,4.27,1.91,4.27,4.27"/><path class="cls-5" d="M489.19,757.54c0,2.36-1.91,4.27-4.27,4.27s-4.28-1.91-4.28-4.27,1.91-4.27,4.28-4.27,4.27,1.91,4.27,4.27"/><rect class="cls-23" x="479.54" y="698.74" width="13.16" height="10.7"/></g><g><path class="cls-15" d="M453.62,342.11h8.25c7.03,0,12.77-5.75,12.77-12.77s-5.75-12.77-12.77-12.77h-21c-7.03,0-12.77,5.75-12.77,12.77,0,.59,.1,1.16,.18,1.74-.08,.57-.18,1.14-.18,1.74v9.08c0,7.03,5.75,12.77,12.77,12.77s12.63-5.63,12.75-12.56Z"/><path class="cls-5" d="M452.67,340.5h7.35c6.26,0,11.39-5.13,11.39-11.39s-5.13-11.39-11.39-11.39h-18.72c-6.26,0-11.39,5.13-11.39,11.39,0,.53,.09,1.04,.16,1.55-.07,.51-.16,1.02-.16,1.55v8.1c0,6.26,5.13,11.39,11.39,11.39s11.26-5.02,11.37-11.19Z"/></g><g><path class="cls-15" d="M453.62,494.22h8.25c7.03,0,12.77,5.75,12.77,12.77,0,7.03-5.75,12.77-12.77,12.77h-21c-7.03,0-12.77-5.75-12.77-12.77,0-.59,.1-1.16,.18-1.74-.08-.57-.18-1.14-.18-1.74v-9.08c0-7.03,5.75-12.77,12.77-12.77,6.95,0,12.63,5.63,12.75,12.56Z"/><path class="cls-5" d="M452.67,495.83h7.35c6.26,0,11.39,5.13,11.39,11.39,0,6.26-5.13,11.39-11.39,11.39h-18.72c-6.26,0-11.39-5.13-11.39-11.39,0-.53,.09-1.04,.16-1.55-.07-.51-.16-1.02-.16-1.55v-8.1c0-6.26,5.13-11.39,11.39-11.39s11.26,5.02,11.37,11.19Z"/></g><g><rect class="cls-15" x="343.79" y="303.99" width="25.55" height="50.69" rx="2.23" ry="2.23" transform="translate(685.9 -27.22) rotate(90)"/><rect class="cls-5" x="345.24" y="306.87" width="22.65" height="44.93" rx="1.98" ry="1.98" transform="translate(685.9 -27.22) rotate(90)"/></g><g><rect class="cls-15" x="343.79" y="482.49" width="25.55" height="50.69" rx="2.23" ry="2.23" transform="translate(864.39 151.27) rotate(90)"/><rect class="cls-5" x="345.24" y="485.37" width="22.65" height="44.93" rx="1.98" ry="1.98" transform="translate(864.39 151.27) rotate(90)"/></g><rect class="cls-43" x="392.66" y="379.9" width="5.68" height="9.81" transform="translate(780.3 -10.69) rotate(90)"/><rect class="cls-43" x="392.66" y="451.92" width="5.68" height="9.81" transform="translate(852.33 61.34) rotate(90)"/><g><rect class="cls-48" x="422.08" y="197.23" width="116.95" height="98.89" rx="1.63" ry="1.63" transform="translate(727.23 -233.88) rotate(90)"/><g><g><rect class="cls-27" x="432.47" y="206.01" width="96.17" height="81.32" rx="1.34" ry="1.34" transform="translate(727.23 -233.88) rotate(90)"/><rect class="cls-27" x="424.86" y="242.28" width="21.29" height="8.79" transform="translate(682.18 -188.83) rotate(90)"/></g><rect class="cls-36" x="428.84" y="242.28" width="96.17" height="8.79" transform="translate(723.61 -230.25) rotate(90)"/></g><g><rect class="cls-45" x="457" y="220.92" width="9.07" height="7.95" rx=".23" ry=".23" transform="translate(686.42 -236.65) rotate(90)"/><rect class="cls-10" x="457.44" y="221.3" width="8.18" height="7.17" rx=".21" ry=".21" transform="translate(686.42 -236.65) rotate(90)"/></g><g><rect class="cls-45" x="457" y="261.77" width="9.07" height="7.95" rx=".23" ry=".23" transform="translate(727.28 -195.79) rotate(90)"/><rect class="cls-10" x="457.44" y="262.16" width="8.18" height="7.17" rx=".21" ry=".21" transform="translate(727.28 -195.79) rotate(90)"/></g></g><g><path class="cls-11" d="M329.14,204.31h-5.03v41.59h5.03c.03-1.74,1.43-3.13,3.15-3.13s3.12,1.4,3.15,3.13h5.03v-41.59h-5.03c0,1.77-1.41,3.2-3.16,3.2s-3.16-1.43-3.16-3.2"/><rect class="cls-30" x="321.24" y="204.31" width="2.87" height="41.59"/><rect class="cls-41" x="321.24" y="208.07" width="22.12" height="34.06"/><path class="cls-14" d="M328.96,213.76h-5.32v22.68h5.33c.04-.95,1.52-1.71,3.34-1.71s3.3,.76,3.34,1.71h5.33v-22.68h-5.32c0,.96-1.5,1.74-3.35,1.74s-3.35-.78-3.35-1.74"/><path class="cls-41" d="M332.3,219.34c3.15,0,5.7,2.58,5.7,5.77s-2.55,5.77-5.7,5.77-5.7-2.58-5.7-5.77,2.55-5.77,5.7-5.77"/><path class="cls-31" d="M332.3,220.73c2.39,0,4.32,1.96,4.32,4.38s-1.94,4.38-4.32,4.38-4.32-1.96-4.32-4.38,1.94-4.38,4.32-4.38"/></g><g><path class="cls-11" d="M329.14,655.26h-5.03v41.59h5.03c.03-1.74,1.43-3.13,3.15-3.13s3.12,1.4,3.15,3.13h5.03v-41.59h-5.03c0,1.77-1.41,3.2-3.16,3.2s-3.16-1.43-3.16-3.2"/><rect class="cls-30" x="321.24" y="655.26" width="2.87" height="41.59"/><rect class="cls-41" x="321.24" y="659.02" width="22.12" height="34.06"/><path class="cls-14" d="M328.96,664.71h-5.32v22.68h5.33c.04-.95,1.52-1.71,3.34-1.71s3.3,.76,3.34,1.71h5.33v-22.68h-5.32c0,.96-1.5,1.74-3.35,1.74s-3.35-.78-3.35-1.74"/><path class="cls-41" d="M332.3,670.28c3.15,0,5.7,2.58,5.7,5.77s-2.55,5.77-5.7,5.77-5.7-2.58-5.7-5.77,2.55-5.77,5.7-5.77"/><path class="cls-31" d="M332.3,671.67c2.39,0,4.32,1.96,4.32,4.38s-1.94,4.38-4.32,4.38-4.32-1.96-4.32-4.38,1.94-4.38,4.32-4.38"/></g><g><path class="cls-11" d="M329.14,729.2h-5.03v41.59h5.03c.03-1.74,1.43-3.13,3.15-3.13s3.12,1.4,3.15,3.13h5.03v-41.59h-5.03c0,1.77-1.41,3.2-3.16,3.2s-3.16-1.43-3.16-3.2"/><rect class="cls-30" x="321.24" y="729.2" width="2.87" height="41.59"/><rect class="cls-41" x="321.24" y="732.97" width="22.12" height="34.06"/><path class="cls-14" d="M328.96,738.66h-5.32v22.68h5.33c.04-.95,1.52-1.71,3.34-1.71s3.3,.76,3.34,1.71h5.33v-22.68h-5.32c0,.96-1.5,1.74-3.35,1.74s-3.35-.78-3.35-1.74"/><path class="cls-41" d="M332.3,744.23c3.15,0,5.7,2.58,5.7,5.77s-2.55,5.77-5.7,5.77-5.7-2.58-5.7-5.77,2.55-5.77,5.7-5.77"/><path class="cls-31" d="M332.3,745.62c2.39,0,4.32,1.96,4.32,4.38s-1.94,4.38-4.32,4.38-4.32-1.96-4.32-4.38,1.94-4.38,4.32-4.38"/></g><g><g><g><rect class="cls-9" x="442.24" y="336.63" width="14.93" height="26.35" rx=".57" ry=".57" transform="translate(799.52 -99.9) rotate(90)"/><rect class="cls-9" x="442.24" y="473.44" width="14.93" height="26.35" rx=".57" ry=".57" transform="translate(936.32 36.91) rotate(90)"/><rect class="cls-9" x="378.4" y="407.94" width="136.8" height="20.53" transform="translate(865.01 -28.59) rotate(90)"/></g><g><rect class="cls-24" x="444.14" y="339.13" width="11.14" height="25.14" rx=".48" ry=".48" transform="translate(801.4 -98.01) rotate(90)"/><rect class="cls-24" x="444.14" y="472.15" width="11.14" height="25.14" rx=".48" ry=".48" transform="translate(934.42 35.01) rotate(90)"/><rect class="cls-24" x="384.45" y="408.42" width="124.96" height="19.59" transform="translate(865.14 -28.72) rotate(90)"/></g></g><g><rect class="cls-46" x="457.38" y="362.88" width="7.61" height="23.55" rx=".16" ry=".16" transform="translate(835.85 -86.53) rotate(90)"/><rect class="cls-28" x="452.99" y="364.73" width="6.52" height="19.86" rx=".56" ry=".56" transform="translate(830.91 -81.6) rotate(90)"/></g><g><rect class="cls-46" x="457.38" y="353.38" width="7.61" height="23.55" rx=".16" ry=".16" transform="translate(826.34 -96.04) rotate(90)"/><rect class="cls-28" x="453.11" y="355.1" width="6.52" height="20.1" rx=".57" ry=".57" transform="translate(821.53 -91.22) rotate(90)"/></g><g><rect class="cls-46" x="457.38" y="372.58" width="7.61" height="23.55" rx=".16" ry=".16" transform="translate(845.54 -76.84) rotate(90)"/><rect class="cls-28" x="453.11" y="374.3" width="6.52" height="20.1" rx=".57" ry=".57" transform="translate(840.72 -72.02) rotate(90)"/></g><g><rect class="cls-46" x="457.38" y="382.17" width="7.61" height="23.55" rx=".16" ry=".16" transform="translate(855.13 -67.25) rotate(90)"/><rect class="cls-28" x="453.11" y="383.89" width="6.52" height="20.1" rx=".57" ry=".57" transform="translate(850.32 -62.43) rotate(90)"/></g><g><rect class="cls-46" x="457.38" y="391.67" width="7.61" height="23.55" rx=".16" ry=".16" transform="translate(864.64 -57.74) rotate(90)"/><rect class="cls-28" x="453.11" y="393.4" width="6.52" height="20.1" rx=".57" ry=".57" transform="translate(859.82 -52.93) rotate(90)"/></g><g><rect class="cls-46" x="457.38" y="401.36" width="7.61" height="23.55" rx=".16" ry=".16" transform="translate(874.33 -48.05) rotate(90)"/><rect class="cls-28" x="453.11" y="403.09" width="6.52" height="20.1" rx=".57" ry=".57" transform="translate(869.51 -43.23) rotate(90)"/></g><g><rect class="cls-46" x="457.38" y="411.4" width="7.61" height="23.55" rx=".16" ry=".16" transform="translate(884.37 -38.01) rotate(90)"/><rect class="cls-28" x="453.11" y="413.13" width="6.52" height="20.1" rx=".57" ry=".57" transform="translate(879.55 -33.19) rotate(90)"/></g><g><rect class="cls-46" x="457.38" y="420.91" width="7.61" height="23.55" rx=".16" ry=".16" transform="translate(893.87 -28.51) rotate(90)"/><rect class="cls-28" x="453.11" y="422.63" width="6.52" height="20.1" rx=".57" ry=".57" transform="translate(889.05 -23.69) rotate(90)"/></g><g><rect class="cls-46" x="457.38" y="430.6" width="7.61" height="23.55" rx=".16" ry=".16" transform="translate(903.56 -18.81) rotate(90)"/><rect class="cls-28" x="453.11" y="432.33" width="6.52" height="20.1" rx=".57" ry=".57" transform="translate(898.75 -14) rotate(90)"/></g><g><rect class="cls-46" x="457.38" y="440.3" width="7.61" height="23.55" rx=".16" ry=".16" transform="translate(913.26 -9.12) rotate(90)"/><rect class="cls-28" x="453.11" y="442.02" width="6.52" height="20.1" rx=".57" ry=".57" transform="translate(908.45 -4.3) rotate(90)"/></g><g><rect class="cls-46" x="457.38" y="449.8" width="7.61" height="23.55" rx=".16" ry=".16" transform="translate(922.77 .39) rotate(90)"/><rect class="cls-28" x="453.11" y="451.53" width="6.52" height="20.1" rx=".57" ry=".57" transform="translate(917.95 5.2) rotate(90)"/></g><g><rect class="cls-46" x="457.38" y="459.49" width="7.61" height="23.55" rx=".16" ry=".16" transform="translate(932.46 10.08) rotate(90)"/><rect class="cls-28" x="453.11" y="461.22" width="6.52" height="20.1" rx=".57" ry=".57" transform="translate(927.64 14.9) rotate(90)"/></g><g><rect class="cls-24" x="444.14" y="339.13" width="11.14" height="25.14" rx=".48" ry=".48" transform="translate(801.4 -98.01) rotate(90)"/><rect class="cls-24" x="444.14" y="472.15" width="11.14" height="25.14" rx=".48" ry=".48" transform="translate(934.42 35.01) rotate(90)"/><rect class="cls-24" x="384.45" y="408.42" width="124.96" height="19.59" transform="translate(865.14 -28.72) rotate(90)"/></g></g><g><path class="cls-32" d="M456.49,505.07v-35.45h-5.09c-1.72,0-3.12-1.4-3.12-3.12s1.4-3.12,3.12-3.12h5.09c4.86-3.36,4.67-12.68,0-15.88h-5.09c-1.72,0-3.12-1.4-3.12-3.12s1.4-3.12,3.12-3.12h5.09v-44.51h-5.09c-1.72,0-3.12-1.4-3.12-3.12s1.4-3.12,3.12-3.12h5.09c4.95-1.59,5.14-13.56,0-15.88h-5.09c-1.72,0-3.12-1.4-3.12-3.12s1.4-3.12,3.12-3.12h5.09v-35.45c0-2.79-2.28-5.07-5.07-5.07h-148.57c-2.79,0-5.07,2.28-5.07,5.07v172.13c0,2.79,2.28,5.07,5.07,5.07h148.57c2.79,0,5.07-2.28,5.07-5.07Z"/><g><rect class="cls-13" x="424.29" y="363.28" width="15.21" height="9.93" rx=".43" ry=".43" transform="translate(800.14 -63.66) rotate(90)"/><rect class="cls-13" x="424.29" y="384.07" width="15.21" height="9.93" rx=".43" ry=".43" transform="translate(820.93 -42.86) rotate(90)"/><rect class="cls-13" x="424.29" y="404.87" width="15.21" height="9.93" rx=".43" ry=".43" transform="translate(841.73 -22.07) rotate(90)"/><rect class="cls-13" x="424.29" y="425.66" width="15.21" height="9.93" rx=".43" ry=".43" transform="translate(862.52 -1.28) rotate(90)"/><rect class="cls-13" x="424.29" y="446.45" width="15.21" height="9.93" rx=".43" ry=".43" transform="translate(883.32 19.52) rotate(90)"/><rect class="cls-13" x="424.29" y="467.25" width="15.21" height="9.93" rx=".43" ry=".43" transform="translate(904.11 40.31) rotate(90)"/></g><rect class="cls-39" x="391.15" y="379.9" width="14.58" height="9.81" rx=".18" ry=".18" transform="translate(783.25 -13.64) rotate(90)"/><rect class="cls-39" x="391.15" y="451.92" width="14.58" height="9.81" rx=".18" ry=".18" transform="translate(855.28 58.39) rotate(90)"/><g><path class="cls-47" d="M448.29,395.37c0,1.6,1.4,2.91,3.12,2.91h5.09v-1.53h-5.09c-1.4,0-2.54-.95-2.94-2.22-.09,.27-.18,.54-.18,.84Z"/><path class="cls-47" d="M448.29,442.63c0,.3,.09,.57,.18,.84,.4-1.27,1.54-2.22,2.94-2.22h5.09v-1.53h-5.09c-1.72,0-3.12,1.31-3.12,2.91Z"/><path class="cls-47" d="M456.49,460.33h-5.09c-1.72,0-3.12,1.31-3.12,2.91,0,.59,.24,1.12,.57,1.58,.56-.84,1.47-1.43,2.55-1.43h5.09c2.74-1.9,3.82-5.68,3.45-9.2-.28,2.47-1.38,4.82-3.45,6.15Z"/><path class="cls-47" d="M456.49,505.07v-5.92c0,2.6-2.28,4.72-5.07,4.72h-148.57c-2.79,0-5.07-2.13-5.07-4.72v5.92c0,2.79,2.28,5.07,5.07,5.07h148.57c2.79,0,5.07-2.28,5.07-5.07Z"/><path class="cls-47" d="M302.85,334.14h148.57c2.79,0,5.07,2.13,5.07,4.72v-5.92c0-2.79-2.28-5.07-5.07-5.07h-148.57c-2.79,0-5.07,2.28-5.07,5.07v5.92c0-2.6,2.28-4.72,5.07-4.72Z"/><path class="cls-47" d="M448.29,374.77c0,1.6,1.4,2.91,3.12,2.91h5.09c2.23,.94,3.39,3.57,3.67,6.36,.35-3.83-.8-8.11-3.67-9.41h-5.09c-1.08,0-1.99-.59-2.55-1.43-.33,.46-.57,.98-.57,1.58Z"/></g></g><g><g><rect class="cls-5" x="560.07" y="457" width="53.4" height="6.03" rx=".53" ry=".53" transform="translate(1046.78 -126.75) rotate(90)"/><rect class="cls-5" x="549.43" y="457" width="53.4" height="6.03" rx=".53" ry=".53" transform="translate(1036.15 -116.11) rotate(90)"/><rect class="cls-5" x="538.79" y="457" width="53.4" height="6.03" rx=".53" ry=".53" transform="translate(1025.51 -105.48) rotate(90)"/></g><rect class="cls-26" x="554.62" y="444.73" width="43.02" height="30.57" rx=".36" ry=".36" transform="translate(1036.15 -116.11) rotate(90)"/><rect class="cls-9" x="555.69" y="444.73" width="40.88" height="30.57" rx=".36" ry=".36" transform="translate(1036.15 -116.11) rotate(90)"/></g></g><g><line class="cls-22" x1="504.36" y1="728.23" x2="615.8" y2="728.23"/><polygon class="cls-3" points="506.26 734.71 495.03 728.23 506.26 721.75 506.26 734.71"/></g><g><line class="cls-17" x1="504.36" y1="757.54" x2="615.8" y2="757.54"/><polygon class="cls-38" points="506.26 764.02 495.03 757.54 506.26 751.05 506.26 764.02"/></g><text class="cls-2" transform="translate(625.03 736.53)"><tspan x="0" y="0">+</tspan></text><text class="cls-4" transform="translate(627.43 764.66)"><tspan x="0" y="0">-</tspan></text><g><line class="cls-17" x1="504.36" y1="232.37" x2="615.8" y2="232.37"/><polygon class="cls-38" points="506.26 238.85 495.03 232.37 506.26 225.89 506.26 238.85"/></g><g><line class="cls-22" x1="504.36" y1="261.68" x2="615.8" y2="261.68"/><polygon class="cls-3" points="506.26 268.16 495.03 261.68 506.26 255.2 506.26 268.16"/></g><text class="cls-4" transform="translate(626.43 238.67)"><tspan x="0" y="0">-</tspan></text><text class="cls-2" transform="translate(624.03 269.81)"><tspan x="0" y="0">+</tspan></text><g><path class="cls-3" d="M649.44,746.09h2.2c.3,3.02,2.15,4.6,5.52,4.6,2.47,0,4.25-1.12,4.25-3.35,0-2.45-2.15-3.02-5.35-3.72-3.15-.7-5.85-1.6-5.85-4.97,0-2.95,2.45-4.72,6.07-4.72,4.47,0,6.32,2.27,6.77,5.57h-2.12c-.33-2.55-1.97-3.82-4.6-3.82-2.42,0-4.02,1.02-4.02,2.87,0,2.02,2,2.62,4.67,3.15,3.47,.7,6.65,1.55,6.65,5.57,0,3.35-2.72,5.22-6.57,5.22-5.02,0-7.42-2.8-7.62-6.4Z"/><path class="cls-3" d="M665.19,745.69c0-3.75,2.4-6.8,6.25-6.8s6.22,3.05,6.22,6.8-2.35,6.8-6.22,6.8-6.25-3.05-6.25-6.8Zm10.4,0c0-2.85-1.4-5.12-4.15-5.12s-4.17,2.27-4.17,5.12,1.42,5.1,4.17,5.1,4.15-2.25,4.15-5.1Z"/><path class="cls-3" d="M679.77,734.27h2.03v17.87h-2.03v-17.87Z"/><path class="cls-3" d="M692.54,750.34h-.03c-.77,1-2.1,2.05-4.3,2.05-2.45,0-4.37-1.15-4.37-3.6,0-3.05,2.4-3.67,5.62-4.17,1.82-.27,3.1-.45,3.1-1.85s-1.05-2.27-2.9-2.27c-2.1,0-3.15,.9-3.22,2.85h-1.95c.07-2.5,1.72-4.37,5.15-4.37,2.75,0,4.77,1.02,4.77,4.1v6.15c0,1.05,.25,1.62,1.38,1.37h.08v1.47c-.25,.1-.58,.2-1.1,.2-1.33,0-2.02-.6-2.22-1.92Zm.05-2.97v-2.2c-.67,.42-1.85,.75-2.95,.95-2.02,.38-3.65,.72-3.65,2.62,0,1.72,1.35,2.1,2.67,2.1,2.7,0,3.92-1.97,3.92-3.47Z"/><path class="cls-3" d="M699.39,741.37h.05c.77-1.25,2.12-2.3,3.85-2.3,.38,0,.58,.05,.83,.15v1.95h-.08c-.3-.1-.5-.12-.9-.12-2,0-3.75,1.5-3.75,3.92v7.17h-2.02v-12.92h2.02v2.15Z"/><path class="cls-3" d="M710.22,734.27h7.45c1.87,0,3.32,.62,4.25,1.72,.75,.88,1.2,2.05,1.2,3.4,0,3.27-1.87,5.25-5.77,5.25h-4.87v7.5h-2.25v-17.87Zm2.25,8.55h4.7c2.52,0,3.72-1.28,3.72-3.32,0-2.15-1.32-3.27-3.6-3.27h-4.82v6.6Z"/><path class="cls-3" d="M732.41,750.34h-.03c-.77,1-2.1,2.05-4.3,2.05-2.45,0-4.37-1.15-4.37-3.6,0-3.05,2.4-3.67,5.62-4.17,1.82-.27,3.1-.45,3.1-1.85s-1.05-2.27-2.9-2.27c-2.1,0-3.15,.9-3.22,2.85h-1.95c.07-2.5,1.72-4.37,5.15-4.37,2.75,0,4.77,1.02,4.77,4.1v6.15c0,1.05,.25,1.62,1.38,1.37h.08v1.47c-.25,.1-.58,.2-1.1,.2-1.33,0-2.02-.6-2.22-1.92Zm.05-2.97v-2.2c-.67,.42-1.85,.75-2.95,.95-2.02,.38-3.65,.72-3.65,2.62,0,1.72,1.35,2.1,2.67,2.1,2.7,0,3.92-1.97,3.92-3.47Z"/><path class="cls-3" d="M739.27,740.92h.05c.92-1.22,2.22-2,4.1-2,2.7,0,4.35,1.47,4.35,4.15v9.07h-2.02v-8.9c0-1.67-1.1-2.62-2.92-2.62-2.05,0-3.55,1.45-3.55,3.57v7.95h-2.02v-12.92h2.02v1.7Z"/><path class="cls-3" d="M749.72,745.69c0-3.75,2.45-6.8,6.12-6.8,3.87,0,5.95,3,5.95,7.27h-10c.15,2.62,1.57,4.62,4.17,4.62,1.87,0,3.12-.9,3.57-2.65h1.97c-.6,2.77-2.62,4.35-5.55,4.35-3.95,0-6.25-3.05-6.25-6.8Zm2.12-1.05h7.77c-.12-2.57-1.45-4.15-3.77-4.15s-3.7,1.8-4,4.15Z"/><path class="cls-3" d="M763.84,734.27h2.03v17.87h-2.03v-17.87Z"/></g><g><path class="cls-3" d="M650.57,237.87h7.57c1.87,0,3.3,.5,4.3,1.55,.72,.75,1.15,1.77,1.15,3.05,0,1.97-1.1,3.2-2.87,3.75v.08c2.02,.47,3.6,1.92,3.6,4.32,0,1.38-.47,2.55-1.3,3.42-1,1.07-2.55,1.7-4.47,1.7h-7.97v-17.87Zm7.3,7.65c2.17,0,3.47-1.07,3.47-2.92,0-1.72-1.17-2.77-3.17-2.77h-5.35v5.7h5.05Zm.58,8.2c1.27,0,2.2-.33,2.8-.9,.5-.53,.8-1.23,.8-2.08,0-2.22-1.57-3.32-3.75-3.32h-5.47v6.3h5.62Z"/><path class="cls-3" d="M674.29,253.94h-.03c-.77,1-2.1,2.05-4.3,2.05-2.45,0-4.37-1.15-4.37-3.6,0-3.05,2.4-3.67,5.62-4.17,1.82-.27,3.1-.45,3.1-1.85s-1.05-2.27-2.9-2.27c-2.1,0-3.15,.9-3.22,2.85h-1.95c.07-2.5,1.72-4.37,5.15-4.37,2.75,0,4.77,1.02,4.77,4.1v6.15c0,1.05,.25,1.62,1.38,1.37h.08v1.47c-.25,.1-.58,.2-1.1,.2-1.33,0-2.02-.6-2.22-1.92Zm.05-2.97v-2.2c-.67,.42-1.85,.75-2.95,.95-2.02,.38-3.65,.72-3.65,2.62,0,1.72,1.35,2.1,2.67,2.1,2.7,0,3.92-1.97,3.92-3.47Z"/><path class="cls-3" d="M678.04,242.82h1.88v-4.07h2.02v4.07h2.5v1.65h-2.5v8.4c0,.9,.47,1.2,1.3,1.2,.4,0,.85-.1,1.07-.17h.08v1.75c-.47,.1-1.02,.17-1.62,.17-1.65,0-2.85-.67-2.85-2.5v-8.85h-1.88v-1.65Z"/><path class="cls-3" d="M685.34,242.82h1.88v-4.07h2.02v4.07h2.5v1.65h-2.5v8.4c0,.9,.47,1.2,1.3,1.2,.4,0,.85-.1,1.07-.17h.08v1.75c-.47,.1-1.02,.17-1.62,.17-1.65,0-2.85-.67-2.85-2.5v-8.85h-1.88v-1.65Z"/><path class="cls-3" d="M692.99,249.29c0-3.75,2.45-6.8,6.12-6.8,3.87,0,5.95,3,5.95,7.27h-10c.15,2.62,1.57,4.62,4.17,4.62,1.87,0,3.12-.9,3.57-2.65h1.97c-.6,2.77-2.62,4.35-5.55,4.35-3.95,0-6.25-3.05-6.25-6.8Zm2.12-1.05h7.77c-.12-2.57-1.45-4.15-3.77-4.15s-3.7,1.8-4,4.15Z"/><path class="cls-3" d="M709.07,244.97h.05c.77-1.25,2.12-2.3,3.85-2.3,.38,0,.58,.05,.83,.15v1.95h-.08c-.3-.1-.5-.12-.9-.12-2,0-3.75,1.5-3.75,3.92v7.17h-2.02v-12.92h2.02v2.15Z"/><path class="cls-3" d="M715.44,259.74v-1.8h.1c.27,.15,.7,.28,1.38,.28,.85,0,1.42-.33,1.92-1.58l.5-1.27-5.05-12.55h2.2l3.05,8.05c.4,1.08,.88,2.52,.88,2.52h.05s.45-1.45,.85-2.52l2.95-8.05h2.15l-5.52,13.97c-1.05,2.67-2.05,3.22-3.62,3.22-.78,0-1.27-.05-1.82-.28Z"/></g></svg>