<svg xmlns="http://www.w3.org/2000/svg" viewBox="0 0 134.12 79.19"><defs><style>.cls-1{fill:#b3b3b3;}.cls-2{fill:#fff;}.cls-3{fill:#7f8080;}.cls-4{fill:#333;}.cls-5{fill:#eb2627;}.cls-6{fill:#fdd407;}.cls-7{fill:#414a9f;}.cls-8{fill:#fed401;}.cls-9{opacity:0.4;}.cls-10{fill:#242424;}.cls-11{fill:#bf8f3e;}.cls-12{fill:#605954;}.cls-13{fill:#453d37;}.cls-14{fill:#f5e9dd;}.cls-15{fill:#867d75;}.cls-16{fill:#181818;}.cls-17{fill:#c2b8af;}.cls-18{fill:#8c8c8c;}.cls-19{fill:#ebf4fb;}.cls-20{fill:#333e49;}.cls-21{fill:#222630;}.cls-22{fill:#be8e3e;}.cls-23{fill:#ee3224;}</style></defs><g id="Layer_2" data-name="Layer 2"><g id="Layer_1-2" data-name="Layer 1"><g id="RAK13001_Pinout"><rect class="cls-1" x="120.97" y="40.32" width="2.47" height="2.91" rx="0.41"/><polygon class="cls-1" points="125.35 43.22 122.43 43.22 120.97 41.77 122.43 40.31 125.35 40.31 126.81 41.77 125.35 43.22"/><path class="cls-2" d="M122.15,40.89h.35l.66,1.07h0V40.89h.33v1.59h-.35l-.66-1.06h0v1.06h-.33Z"/><path class="cls-2" d="M124.85,41.43a.35.35,0,0,0-.35-.28c-.31,0-.43.27-.43.54s.12.53.43.53a.34.34,0,0,0,.36-.35h.34a.67.67,0,0,1-.7.65.83.83,0,0,1,0-1.66.64.64,0,0,1,.69.57Z"/><rect class="cls-1" x="120.97" y="36.2" width="2.47" height="2.91" rx="0.41"/><polygon class="cls-1" points="125.35 39.1 122.43 39.1 120.97 37.65 122.43 36.2 125.35 36.2 126.81 37.65 125.35 39.1"/><path class="cls-2" d="M122.15,36.77h.35l.66,1.07h0V36.77h.33v1.59h-.35l-.66-1.06h0v1.06h-.33Z"/><path class="cls-2" d="M124.85,37.31a.36.36,0,0,0-.35-.28c-.31,0-.43.27-.43.54s.12.53.43.53a.34.34,0,0,0,.36-.35h.34a.67.67,0,0,1-.7.65.83.83,0,0,1,0-1.66.64.64,0,0,1,.69.57Z"/><rect class="cls-1" x="120.97" y="32.11" width="2.47" height="2.91" rx="0.41"/><polygon class="cls-1" points="125.35 35.01 122.43 35.01 120.97 33.56 122.43 32.11 125.35 32.11 126.81 33.56 125.35 35.01"/><path class="cls-2" d="M122.15,32.69h.35l.66,1.06h0V32.69h.33v1.58h-.35l-.66-1.06h0v1.06h-.33Z"/><path class="cls-2" d="M124.85,33.22a.36.36,0,0,0-.35-.28c-.31,0-.43.27-.43.55s.12.53.43.53a.35.35,0,0,0,.36-.36h.34a.67.67,0,0,1-.7.65.76.76,0,0,1-.77-.82.78.78,0,0,1,.77-.84.64.64,0,0,1,.69.57Z"/><rect class="cls-1" x="120.97" y="28.01" width="2.47" height="2.91" rx="0.41"/><polygon class="cls-1" points="125.35 30.92 122.43 30.92 120.97 29.46 122.43 28.01 125.35 28.01 126.81 29.46 125.35 30.92"/><path class="cls-2" d="M122.15,28.59h.35l.66,1.06h0V28.59h.33v1.58h-.35l-.66-1.06h0v1.06h-.33Z"/><path class="cls-2" d="M124.85,29.12a.34.34,0,0,0-.35-.27c-.31,0-.43.26-.43.54s.12.53.43.53a.35.35,0,0,0,.36-.36h.34a.67.67,0,0,1-.7.65.76.76,0,0,1-.77-.82.78.78,0,0,1,.77-.84.65.65,0,0,1,.69.57Z"/><rect class="cls-1" x="120.97" y="24.03" width="2.47" height="2.91" rx="0.41"/><polygon class="cls-1" points="125.35 26.93 122.43 26.93 120.97 25.48 122.43 24.03 125.35 24.03 126.81 25.48 125.35 26.93"/><path class="cls-2" d="M122.15,24.61h.35l.66,1.06h0V24.61h.33v1.58h-.35l-.66-1.06h0v1.06h-.33Z"/><path class="cls-2" d="M124.85,25.14a.34.34,0,0,0-.35-.27c-.31,0-.43.26-.43.54s.12.53.43.53a.35.35,0,0,0,.36-.36h.34a.67.67,0,0,1-.7.65.76.76,0,0,1-.77-.82.78.78,0,0,1,.77-.84.64.64,0,0,1,.69.57Z"/><rect class="cls-1" x="120.97" y="19.99" width="2.47" height="2.91" rx="0.41"/><polygon class="cls-1" points="125.35 22.9 122.43 22.9 120.97 21.45 122.43 19.99 125.35 19.99 126.81 21.45 125.35 22.9"/><path class="cls-2" d="M122.15,20.57h.35l.66,1.07h0V20.57h.33v1.59h-.35l-.66-1.06h0v1.06h-.33Z"/><path class="cls-2" d="M124.85,21.11a.35.35,0,0,0-.35-.28c-.31,0-.43.27-.43.54s.12.53.43.53a.34.34,0,0,0,.36-.35h.34a.66.66,0,0,1-.7.64.76.76,0,0,1-.77-.82.78.78,0,0,1,.77-.84.65.65,0,0,1,.69.57Z"/><rect class="cls-1" x="120.97" y="16.07" width="2.47" height="2.91" rx="0.41"/><polygon class="cls-1" points="125.35 18.98 122.43 18.98 120.97 17.52 122.43 16.07 125.35 16.07 126.81 17.52 125.35 18.98"/><path class="cls-2" d="M122.15,16.65h.35l.66,1.06h0V16.65h.33v1.58h-.35l-.66-1.06h0v1.06h-.33Z"/><path class="cls-2" d="M124.85,17.18a.34.34,0,0,0-.35-.27c-.31,0-.43.26-.43.54s.12.53.43.53a.35.35,0,0,0,.36-.36h.34a.67.67,0,0,1-.7.65.76.76,0,0,1-.77-.82.78.78,0,0,1,.77-.84.65.65,0,0,1,.69.57Z"/><rect class="cls-1" x="120.97" y="12.14" width="2.47" height="2.91" rx="0.41"/><polygon class="cls-1" points="125.35 15.04 122.43 15.04 120.97 13.59 122.43 12.14 125.35 12.14 126.81 13.59 125.35 15.04"/><path class="cls-2" d="M122.15,12.72h.35l.66,1.06h0V12.72h.33V14.3h-.35l-.66-1.06h0V14.3h-.33Z"/><path class="cls-2" d="M124.85,13.25a.36.36,0,0,0-.35-.28c-.31,0-.43.27-.43.54s.12.54.43.54a.35.35,0,0,0,.36-.36h.34a.67.67,0,0,1-.7.65.83.83,0,0,1,0-1.66.64.64,0,0,1,.69.57Z"/><rect class="cls-1" x="120.97" y="8.17" width="2.47" height="2.91" rx="0.41"/><polygon class="cls-1" points="125.35 11.08 122.43 11.08 120.97 9.62 122.43 8.17 125.35 8.17 126.81 9.62 125.35 11.08"/><path class="cls-2" d="M122.15,8.75h.35l.66,1.06h0V8.75h.33v1.58h-.35l-.66-1.06h0v1.06h-.33Z"/><path class="cls-2" d="M124.85,9.28A.34.34,0,0,0,124.5,9c-.31,0-.43.26-.43.54s.12.53.43.53a.35.35,0,0,0,.36-.36h.34a.67.67,0,0,1-.7.65.76.76,0,0,1-.77-.82.78.78,0,0,1,.77-.84.65.65,0,0,1,.69.57Z"/><rect class="cls-1" x="120.97" width="2.47" height="2.91" rx="0.41"/><polygon class="cls-1" points="125.35 2.9 122.43 2.9 120.97 1.45 122.43 0 125.35 0 126.81 1.45 125.35 2.9"/><path class="cls-2" d="M122.15.58h.35l.66,1.06h0V.58h.33V2.16h-.35l-.66-1.06h0V2.16h-.33Z"/><path class="cls-2" d="M124.85,1.11a.34.34,0,0,0-.35-.27c-.31,0-.43.26-.43.54s.12.53.43.53a.35.35,0,0,0,.36-.36h.34a.67.67,0,0,1-.7.65.76.76,0,0,1-.77-.82.78.78,0,0,1,.77-.84.64.64,0,0,1,.69.57Z"/><path class="cls-2" d="M105,2.36h1.11v.11H105Z"/><rect class="cls-1" x="108.93" width="2.47" height="2.91" rx="0.41"/><polygon class="cls-1" points="107.02 0 109.95 0 111.41 1.45 109.95 2.9 107.02 2.9 105.56 1.45 107.02 0"/><path class="cls-2" d="M107.47.58h.35l.66,1.06h0V.58h.33V2.16h-.35L107.8,1.1h0V2.16h-.33Z"/><path class="cls-2" d="M110.17,1.11a.36.36,0,0,0-.35-.28c-.31,0-.43.27-.43.55s.12.53.43.53a.36.36,0,0,0,.36-.36h.34a.67.67,0,0,1-.7.65.77.77,0,0,1-.78-.82.78.78,0,0,1,.78-.84.65.65,0,0,1,.69.57Z"/><path class="cls-2" d="M105,14.52h1.11v.11H105Z"/><rect class="cls-1" x="108.93" y="12.16" width="2.47" height="2.91" rx="0.41"/><polygon class="cls-1" points="107.02 12.16 109.95 12.16 111.41 13.61 109.95 15.06 107.02 15.06 105.56 13.61 107.02 12.16"/><path class="cls-2" d="M107.47,12.73h.35l.66,1.07h0V12.73h.33v1.59h-.35l-.66-1.06h0v1.06h-.33Z"/><path class="cls-2" d="M110.17,13.27a.35.35,0,0,0-.35-.28c-.31,0-.43.27-.43.54s.12.53.43.53a.36.36,0,0,0,.36-.35h.34a.68.68,0,0,1-.7.65.83.83,0,0,1,0-1.66.65.65,0,0,1,.69.57Z"/><path class="cls-2" d="M105,30.37h1.11v.11H105Z"/><rect class="cls-1" x="108.93" y="28.01" width="2.47" height="2.91" rx="0.41"/><polygon class="cls-1" points="107.02 28 109.95 28 111.41 29.46 109.95 30.91 107.02 30.91 105.56 29.46 107.02 28"/><path class="cls-2" d="M107.47,28.58h.35l.66,1.07h0V28.58h.33v1.59h-.35l-.66-1.06h0v1.06h-.33Z"/><path class="cls-2" d="M110.17,29.12a.35.35,0,0,0-.35-.28c-.31,0-.43.27-.43.54s.12.53.43.53a.36.36,0,0,0,.36-.35h.34a.67.67,0,0,1-.7.64.77.77,0,0,1-.78-.82.78.78,0,0,1,.78-.84.66.66,0,0,1,.69.57Z"/><path class="cls-2" d="M105,34.38h1.11v.11H105Z"/><rect class="cls-1" x="108.93" y="32.02" width="2.47" height="2.91" rx="0.41"/><polygon class="cls-1" points="107.02 32.02 109.95 32.02 111.41 33.47 109.95 34.92 107.02 34.92 105.56 33.47 107.02 32.02"/><path class="cls-2" d="M107.47,32.59h.35l.66,1.07h0V32.59h.33v1.59h-.35l-.66-1.06h0v1.06h-.33Z"/><path class="cls-2" d="M110.17,33.13a.35.35,0,0,0-.35-.28c-.31,0-.43.27-.43.54s.12.53.43.53a.36.36,0,0,0,.36-.35h.34a.67.67,0,0,1-.7.64.77.77,0,0,1-.78-.82.78.78,0,0,1,.78-.84.66.66,0,0,1,.69.58Z"/><path class="cls-2" d="M105,38.44h1.11v.11H105Z"/><rect class="cls-1" x="108.93" y="36.08" width="2.47" height="2.91" rx="0.41"/><polygon class="cls-1" points="107.02 36.08 109.95 36.08 111.41 37.53 109.95 38.98 107.02 38.98 105.56 37.53 107.02 36.08"/><path class="cls-2" d="M107.47,36.66h.35l.66,1.06h0V36.66h.33v1.58h-.35l-.66-1.06h0v1.06h-.33Z"/><path class="cls-2" d="M110.17,37.19a.36.36,0,0,0-.35-.28c-.31,0-.43.27-.43.54s.12.54.43.54a.36.36,0,0,0,.36-.36h.34a.67.67,0,0,1-.7.65.83.83,0,0,1,0-1.66.65.65,0,0,1,.69.57Z"/><path class="cls-2" d="M105,42.64h1.11v.11H105Z"/><rect class="cls-1" x="108.93" y="40.27" width="2.47" height="2.91" rx="0.41"/><polygon class="cls-1" points="107.02 40.27 109.95 40.27 111.41 41.73 109.95 43.18 107.02 43.18 105.56 41.73 107.02 40.27"/><path class="cls-2" d="M107.47,40.85h.35l.66,1.06h0V40.85h.33v1.58h-.35l-.66-1.06h0v1.06h-.33Z"/><path class="cls-2" d="M110.17,41.38a.34.34,0,0,0-.35-.27c-.31,0-.43.26-.43.54s.12.53.43.53.33-.14.36-.36h.34a.67.67,0,0,1-.7.65.77.77,0,0,1-.78-.82.78.78,0,0,1,.78-.84.66.66,0,0,1,.69.57Z"/><path class="cls-2" d="M105,50.51h1.11v.11H105Z"/><rect class="cls-1" x="108.93" y="48.15" width="2.47" height="2.91" rx="0.41"/><polygon class="cls-1" points="107.02 48.15 109.95 48.15 111.41 49.6 109.95 51.05 107.02 51.05 105.56 49.6 107.02 48.15"/><path class="cls-2" d="M107.47,48.73h.35l.66,1.06h0V48.73h.33v1.58h-.35l-.66-1.06h0v1.06h-.33Z"/><path class="cls-2" d="M110.17,49.26a.36.36,0,0,0-.35-.28c-.31,0-.43.27-.43.55s.12.53.43.53a.36.36,0,0,0,.36-.36h.34a.67.67,0,0,1-.7.65.77.77,0,0,1-.78-.82.78.78,0,0,1,.78-.84.65.65,0,0,1,.69.57Z"/><path class="cls-2" d="M105,54.47h1.11v.11H105Z"/><rect class="cls-1" x="108.93" y="52.11" width="2.47" height="2.91" rx="0.41"/><polygon class="cls-1" points="107.02 52.1 109.95 52.1 111.41 53.56 109.95 55.01 107.02 55.01 105.56 53.56 107.02 52.1"/><path class="cls-2" d="M107.47,52.68h.35l.66,1.07h0V52.68h.33v1.59h-.35l-.66-1.06h0v1.06h-.33Z"/><path class="cls-2" d="M110.17,53.22a.35.35,0,0,0-.35-.28c-.31,0-.43.27-.43.54s.12.53.43.53a.36.36,0,0,0,.36-.35h.34a.67.67,0,0,1-.7.64.77.77,0,0,1-.78-.82.78.78,0,0,1,.78-.84.66.66,0,0,1,.69.57Z"/><path class="cls-2" d="M105,58.47h1.11v.11H105Z"/><rect class="cls-1" x="108.93" y="56.11" width="2.47" height="2.91" rx="0.41"/><polygon class="cls-1" points="107.02 56.11 109.95 56.11 111.41 57.56 109.95 59.01 107.02 59.01 105.56 57.56 107.02 56.11"/><path class="cls-2" d="M107.47,56.69h.35l.66,1.06h0V56.69h.33v1.58h-.35l-.66-1.06h0v1.06h-.33Z"/><path class="cls-2" d="M110.17,57.22a.36.36,0,0,0-.35-.28c-.31,0-.43.27-.43.54s.12.54.43.54a.36.36,0,0,0,.36-.36h.34a.67.67,0,0,1-.7.65.83.83,0,0,1,0-1.66.65.65,0,0,1,.69.57Z"/><path class="cls-2" d="M105,66.46h1.11v.11H105Z"/><rect class="cls-1" x="108.93" y="64.09" width="2.47" height="2.91" rx="0.41"/><polygon class="cls-1" points="107.02 64.09 109.95 64.09 111.41 65.55 109.95 67 107.02 67 105.56 65.55 107.02 64.09"/><path class="cls-2" d="M107.47,64.67h.35l.66,1.06h0V64.67h.33v1.59h-.35l-.66-1.07h0v1.07h-.33Z"/><path class="cls-2" d="M110.17,65.21a.35.35,0,0,0-.35-.28c-.31,0-.43.26-.43.54s.12.53.43.53a.36.36,0,0,0,.36-.35h.34a.67.67,0,0,1-.7.64.77.77,0,0,1-.78-.82.78.78,0,0,1,.78-.84.66.66,0,0,1,.69.57Z"/><path class="cls-2" d="M105,74.71h1.12v.12H105Z"/><rect class="cls-1" x="108.93" y="72.35" width="2.47" height="2.91" rx="0.41"/><polygon class="cls-1" points="107.02 72.35 109.94 72.35 111.4 73.81 109.94 75.26 107.02 75.26 105.56 73.81 107.02 72.35"/><path class="cls-2" d="M107.47,72.93h.35l.66,1.06h0V72.93h.32v1.58h-.34l-.66-1.06h0v1.06h-.33Z"/><path class="cls-2" d="M110.16,73.46a.33.33,0,0,0-.34-.27c-.32,0-.43.26-.43.54s.11.53.43.53a.36.36,0,0,0,.36-.36h.34a.67.67,0,0,1-.7.65.77.77,0,0,1-.78-.82.78.78,0,0,1,.78-.84.65.65,0,0,1,.68.57Z"/><rect class="cls-1" x="108.93" y="24.08" width="2.47" height="2.91" rx="0.41"/><polygon class="cls-1" points="107.02 24.08 109.95 24.08 111.41 25.54 109.95 26.99 107.02 26.99 105.56 25.54 107.02 24.08"/><path class="cls-2" d="M107.47,24.66h.35l.66,1.06h0V24.66h.33v1.59h-.35l-.66-1.07h0v1.07h-.33Z"/><path class="cls-2" d="M110.17,25.2a.34.34,0,0,0-.35-.28c-.31,0-.43.26-.43.54s.12.53.43.53.33-.14.36-.36h.34a.67.67,0,0,1-.7.65.77.77,0,0,1-.78-.82.78.78,0,0,1,.78-.84.66.66,0,0,1,.69.57Z"/><path class="cls-2" d="M105,22.28h1.11v.11H105Z"/><rect class="cls-1" x="108.93" y="19.99" width="2.47" height="2.91" rx="0.41"/><polygon class="cls-1" points="107.02 19.99 109.95 19.99 111.41 21.44 109.95 22.89 107.02 22.89 105.56 21.44 107.02 19.99"/><path class="cls-2" d="M107.47,20.56h.35l.66,1.07h0V20.56h.33v1.59h-.35l-.66-1.06h0v1.06h-.33Z"/><path class="cls-2" d="M110.17,21.1a.35.35,0,0,0-.35-.28c-.31,0-.43.27-.43.54s.12.53.43.53a.36.36,0,0,0,.36-.35h.34a.67.67,0,0,1-.7.65.83.83,0,0,1,0-1.66.65.65,0,0,1,.69.57Z"/><rect class="cls-3" x="116.72" width="4.25" height="79.19"/><rect class="cls-3" x="111.41" width="4.25" height="79.19"/><rect class="cls-4" x="108.94" y="4.03" width="2.47" height="2.9" rx="0.41"/><rect class="cls-1" x="111.95" width="3.71" height="2.9" rx="0.35"/><rect class="cls-4" x="111.95" y="3.97" width="3.71" height="2.9" rx="0.35"/><rect class="cls-5" x="111.95" y="8.07" width="3.71" height="2.9" rx="0.35"/><rect class="cls-1" x="111.95" y="12.16" width="3.71" height="2.9" rx="0.35"/><rect class="cls-6" x="111.95" y="16.07" width="3.71" height="2.9" rx="0.35"/><rect class="cls-1" x="111.95" y="19.99" width="3.71" height="2.9" rx="0.35"/><rect class="cls-1" x="111.95" y="24.03" width="3.71" height="2.9" rx="0.35"/><rect class="cls-1" x="111.95" y="28.01" width="3.71" height="2.9" rx="0.35"/><rect class="cls-1" x="111.95" y="32.02" width="3.71" height="2.9" rx="0.35"/><rect class="cls-1" x="111.95" y="36.08" width="3.71" height="2.9" rx="0.35"/><rect class="cls-1" x="111.95" y="40.27" width="3.71" height="2.9" rx="0.35"/><rect class="cls-7" x="111.95" y="44.21" width="3.71" height="2.9" rx="0.35"/><rect class="cls-1" x="116.72" width="3.71" height="2.9" rx="0.35"/><rect class="cls-4" x="116.72" y="3.97" width="3.71" height="2.9" rx="0.35"/><rect class="cls-1" x="116.72" y="8.07" width="3.71" height="2.9" rx="0.35"/><rect class="cls-1" x="116.72" y="12.16" width="3.71" height="2.9" rx="0.35"/><rect class="cls-1" x="116.72" y="16.07" width="3.71" height="2.9" rx="0.35"/><rect class="cls-1" x="116.72" y="19.99" width="3.71" height="2.9" rx="0.35"/><rect class="cls-1" x="116.72" y="24.03" width="3.71" height="2.9" rx="0.35"/><rect class="cls-1" x="116.72" y="28.01" width="3.71" height="2.9" rx="0.35"/><rect class="cls-1" x="116.72" y="32.02" width="3.71" height="2.9" rx="0.35"/><rect class="cls-1" x="116.72" y="36.08" width="3.71" height="2.9" rx="0.35"/><rect class="cls-1" x="116.72" y="40.27" width="3.71" height="2.9" rx="0.35"/><rect class="cls-1" x="116.72" y="44.21" width="3.71" height="2.9" rx="0.35"/><rect class="cls-1" x="116.72" y="48.15" width="3.71" height="2.9" rx="0.35"/><rect class="cls-1" x="116.72" y="52.07" width="3.71" height="2.9" rx="0.35"/><rect class="cls-1" x="116.72" y="56.11" width="3.71" height="2.9" rx="0.35"/><rect class="cls-6" x="116.72" y="60.09" width="3.71" height="2.9" rx="0.35"/><rect class="cls-1" x="116.72" y="64.1" width="3.71" height="2.9" rx="0.35"/><rect class="cls-8" x="116.72" y="68.16" width="3.71" height="2.9" rx="0.35"/><rect class="cls-1" x="116.72" y="72.35" width="3.71" height="2.9" rx="0.35"/><path class="cls-2" d="M117.28,49.45a.62.62,0,0,1,.63-.71.56.56,0,0,1,.6.54c0,.53-.56.57-.81.93h.82v.31h-1.28c0-.41.25-.58.55-.78.15-.11.37-.21.37-.43a.25.25,0,0,0-.23-.27h0c-.21,0-.28.22-.28.4Z"/><path class="cls-2" d="M119.82,49.06h-.72l-.07.4h0a.41.41,0,0,1,.34-.14.54.54,0,0,1,.54.59.64.64,0,0,1-.63.64h0a.59.59,0,0,1-.65-.56H119a.28.28,0,0,0,.29.26.31.31,0,0,0,.3-.32h0a.3.3,0,0,0-.27-.33h0a.29.29,0,0,0-.27.14h-.32l.17-1h1Z"/><path class="cls-2" d="M117.28,53.29a.61.61,0,0,1,.63-.7.55.55,0,0,1,.6.54c0,.52-.56.57-.81.93h.82v.3h-1.28c0-.41.25-.57.55-.78.15-.11.37-.21.37-.43a.26.26,0,0,0-.23-.27h0c-.21,0-.28.22-.28.4Z"/><path class="cls-2" d="M119.86,52.92a2.15,2.15,0,0,0-.57,1.45h-.38A2.57,2.57,0,0,1,119.5,53h-.83v-.33h1.19Z"/><path class="cls-2" d="M117.76,65.42c.15,0,.37,0,.37-.22a.23.23,0,0,0-.23-.23h0a.27.27,0,0,0-.27.31h-.34a.59.59,0,0,1,.61-.6.54.54,0,0,1,.58.48.35.35,0,0,1-.24.37h0a.39.39,0,0,1,.31.39.65.65,0,0,1-1.3-.06h.34c0,.19.1.35.3.35a.28.28,0,0,0,.29-.26h0c0-.27-.23-.26-.41-.26Z"/><path class="cls-2" d="M119.14,65.42c.15,0,.37,0,.37-.22a.23.23,0,0,0-.23-.23h0a.27.27,0,0,0-.27.31h-.33a.57.57,0,0,1,.6-.6.54.54,0,0,1,.59.48.36.36,0,0,1-.25.37h0a.37.37,0,0,1,.31.39.59.59,0,0,1-.65.57.58.58,0,0,1-.64-.63H119c0,.19.1.35.31.35a.28.28,0,0,0,.28-.26h0c0-.27-.23-.26-.4-.26Z"/><path class="cls-2" d="M117.76,69.49c.15,0,.37,0,.37-.21a.23.23,0,0,0-.23-.23h0c-.18,0-.27.13-.27.31h-.34a.59.59,0,0,1,.61-.61.54.54,0,0,1,.58.49.35.35,0,0,1-.24.36h0a.4.4,0,0,1,.31.39.65.65,0,0,1-1.3,0h.34a.31.31,0,0,0,.3.34.28.28,0,0,0,.29-.26h0c0-.27-.23-.26-.41-.26Z"/><path class="cls-2" d="M119.82,69.08h-.72l-.07.4h0a.43.43,0,0,1,.34-.13.54.54,0,0,1,.54.59.63.63,0,0,1-.63.63h0a.59.59,0,0,1-.65-.56H119a.29.29,0,0,0,.29.27.32.32,0,0,0,.3-.33h0a.31.31,0,0,0-.27-.33h0a.29.29,0,0,0-.27.14h-.32l.17-1h1Z"/><path class="cls-2" d="M117.28,57.4a.62.62,0,0,1,.63-.7.55.55,0,0,1,.6.54c0,.53-.56.57-.81.93h.82v.3h-1.28c0-.4.25-.57.55-.77.15-.11.37-.22.37-.43a.26.26,0,0,0-.23-.27h0c-.21,0-.28.22-.28.4Z"/><path class="cls-2" d="M119,58a.26.26,0,0,0,.23.22c.26,0,.33-.34.34-.53h0a.43.43,0,0,1-.39.2.56.56,0,0,1-.4-.19.57.57,0,0,1-.14-.38.61.61,0,0,1,.61-.64c.53,0,.67.46.67.9s-.18.91-.68.91a.53.53,0,0,1-.57-.48Zm.54-.72a.31.31,0,0,0-.28-.32h0a.3.3,0,0,0-.27.32.3.3,0,0,0,.27.33c.19,0,.28-.15.28-.33Z"/><path class="cls-2" d="M117.76,61.48c.15,0,.37,0,.37-.22a.23.23,0,0,0-.23-.23h0c-.18,0-.27.13-.27.31h-.34a.59.59,0,0,1,.61-.6.54.54,0,0,1,.58.48.36.36,0,0,1-.24.36h0a.41.41,0,0,1,.31.4.6.6,0,0,1-.65.57.59.59,0,0,1-.65-.63h.34a.3.3,0,0,0,.3.34.28.28,0,0,0,.29-.25v0c0-.26-.23-.26-.41-.26Z"/><path class="cls-2" d="M119.55,62.51h-.36V61.38h-.43v-.27c.24,0,.47-.08.51-.34h.28Z"/><path class="cls-2" d="M117.76,73.7c.15,0,.37,0,.37-.22a.23.23,0,0,0-.23-.23h0c-.18,0-.27.13-.27.31h-.34a.59.59,0,0,1,.61-.6.54.54,0,0,1,.58.48.35.35,0,0,1-.24.36h0a.41.41,0,0,1,.31.4.6.6,0,0,1-.65.57.59.59,0,0,1-.65-.63h.34a.3.3,0,0,0,.3.34.28.28,0,0,0,.29-.25v0c0-.26-.23-.26-.41-.26Z"/><path class="cls-2" d="M119.86,73.3a2.12,2.12,0,0,0-.57,1.44h-.38a2.57,2.57,0,0,1,.59-1.42h-.83V73h1.19Z"/><rect class="cls-4" x="116.72" y="76.29" width="3.71" height="2.9" rx="0.35"/><rect class="cls-1" x="111.95" y="48.15" width="3.71" height="2.9" rx="0.35"/><path class="cls-2" d="M117.76,77.65c.15,0,.37,0,.37-.22a.23.23,0,0,0-.23-.23h0c-.18,0-.27.13-.27.31h-.34a.59.59,0,0,1,.61-.6.54.54,0,0,1,.58.48.36.36,0,0,1-.24.36h0a.41.41,0,0,1,.31.4.6.6,0,0,1-.65.57.59.59,0,0,1-.65-.63h.34a.3.3,0,0,0,.3.34.27.27,0,0,0,.29-.25v0c0-.26-.23-.25-.41-.25Z"/><path class="cls-2" d="M119,78.24a.26.26,0,0,0,.23.22c.26,0,.33-.34.34-.53h0a.43.43,0,0,1-.39.2.6.6,0,0,1-.4-.18.62.62,0,0,1-.14-.39.61.61,0,0,1,.61-.64c.53,0,.67.46.67.9s-.18.91-.68.91a.53.53,0,0,1-.57-.48Zm.54-.71a.31.31,0,0,0-.29-.33.33.33,0,0,0,0,.65.28.28,0,0,0,.28-.32Z"/><rect class="cls-1" x="111.95" y="52.07" width="3.71" height="2.9" rx="0.35"/><rect class="cls-1" x="111.95" y="56.11" width="3.71" height="2.9" rx="0.35"/><rect class="cls-7" x="111.95" y="60.09" width="3.71" height="2.9" rx="0.35"/><rect class="cls-1" x="111.95" y="64.1" width="3.71" height="2.9" rx="0.35"/><rect class="cls-7" x="111.95" y="68.16" width="3.71" height="2.9" rx="0.35"/><rect class="cls-1" x="111.95" y="72.35" width="3.71" height="2.9" rx="0.35"/><rect class="cls-4" x="111.95" y="76.29" width="3.71" height="2.9" rx="0.35"/><path class="cls-2" d="M113.2,1.44a.62.62,0,0,1,.63-.7.55.55,0,0,1,.6.54c0,.53-.56.57-.81.93h.82v.3h-1.28c0-.4.25-.57.55-.78s.37-.21.37-.42a.25.25,0,0,0-.23-.27h0c-.21,0-.28.21-.28.4Z"/><path class="cls-2" d="M112.51,49.45a.62.62,0,0,1,.63-.71.56.56,0,0,1,.6.55c0,.53-.56.57-.81.93h.82v.3h-1.28c0-.41.25-.57.55-.78s.37-.21.37-.42a.25.25,0,0,0-.23-.27h0c-.2,0-.27.22-.27.41Z"/><path class="cls-2" d="M114.77,49.22a.25.25,0,0,0-.24-.21c-.25,0-.32.33-.33.53h0a.42.42,0,0,1,.39-.19.52.52,0,0,1,.4.18.6.6,0,0,1,.14.39.61.61,0,0,1-.58.63h0c-.52,0-.66-.46-.66-.9s.18-.91.68-.91a.53.53,0,0,1,.56.48Zm-.54.72a.3.3,0,0,0,.28.32h0a.3.3,0,0,0,.28-.32.3.3,0,0,0-.28-.33.29.29,0,0,0-.28.33Z"/><path class="cls-2" d="M113,61.51c.15,0,.37,0,.37-.22a.23.23,0,0,0-.23-.23h0c-.18,0-.27.13-.27.31h-.34a.59.59,0,0,1,.61-.6.53.53,0,0,1,.58.48.36.36,0,0,1-.24.36h0a.41.41,0,0,1,.31.4.65.65,0,0,1-1.3-.06h.34c0,.19.1.34.3.34a.27.27,0,0,0,.29-.25v0c0-.26-.23-.26-.4-.26Z"/><path class="cls-2" d="M113.89,61.47a.62.62,0,0,1,.64-.7.55.55,0,0,1,.59.54c0,.53-.56.57-.81.93h.83v.3h-1.28c0-.4.24-.57.55-.78.15-.1.36-.21.36-.42a.25.25,0,0,0-.23-.27h0c-.21,0-.28.21-.28.4Z"/><path class="cls-2" d="M113,69.52c.15,0,.37,0,.37-.21a.23.23,0,0,0-.23-.23h0c-.18,0-.27.13-.27.31h-.34a.59.59,0,0,1,.61-.6.53.53,0,0,1,.58.48.35.35,0,0,1-.24.36h0a.41.41,0,0,1,.31.4.65.65,0,0,1-1.3-.06h.34c0,.19.1.34.3.34a.28.28,0,0,0,.29-.26h0c0-.26-.23-.26-.4-.26Z"/><path class="cls-2" d="M114.77,69.27a.27.27,0,0,0-.24-.22c-.25,0-.32.34-.33.53h0a.42.42,0,0,1,.39-.19.55.55,0,0,1,.4.18.62.62,0,0,1,.14.39.6.6,0,0,1-.58.63h0c-.52,0-.66-.46-.66-.9s.18-.91.68-.91a.53.53,0,0,1,.56.48Zm-.54.71a.31.31,0,0,0,.28.33h0a.3.3,0,0,0,.28-.32.3.3,0,0,0-.28-.33.29.29,0,0,0-.28.32Z"/><path class="cls-2" d="M113,73.73c.15,0,.37,0,.37-.21a.23.23,0,0,0-.23-.24h0a.27.27,0,0,0-.27.31h-.34a.59.59,0,0,1,.61-.6.53.53,0,0,1,.58.48.35.35,0,0,1-.24.37h0a.4.4,0,0,1,.31.4.65.65,0,0,1-1.3-.06h.34c0,.19.1.34.3.34a.28.28,0,0,0,.29-.26h0c0-.26-.23-.26-.4-.26Z"/><path class="cls-2" d="M114.5,73a.52.52,0,0,1,.58.47.37.37,0,0,1-.25.36h0a.39.39,0,0,1,.32.42.58.58,0,0,1-.65.55c-.33,0-.66-.17-.66-.54a.41.41,0,0,1,.33-.43h0a.36.36,0,0,1-.26-.36A.53.53,0,0,1,114.5,73Zm0,1.55a.3.3,0,0,0,.3-.28v0a.3.3,0,0,0-.29-.28h0a.28.28,0,0,0-.31.28.29.29,0,0,0,.29.3Zm0-.82a.24.24,0,1,0,0-.47h0a.24.24,0,0,0-.27.22v0a.24.24,0,0,0,.27.24Z"/><path class="cls-2" d="M113.19,78.21h-.73v-.32l.76-1h.31v1h.23v.29h-.23v.4h-.34Zm0-.9h0l-.45.61h.45Z"/><path class="cls-2" d="M114.49,76.83c.35,0,.65.22.65.91s-.3.91-.65.91-.63-.22-.63-.91S114.15,76.83,114.49,76.83Zm0,1.53c.29,0,.29-.43.29-.63s0-.6-.29-.6-.28.42-.28.6S114.21,78.36,114.49,78.36Z"/><path class="cls-2" d="M112.51,53.29a.61.61,0,0,1,.63-.7.55.55,0,0,1,.6.54c0,.52-.56.57-.81.93h.82v.3h-1.28c0-.41.25-.57.55-.78s.37-.21.37-.43a.26.26,0,0,0-.23-.27h0c-.2,0-.27.22-.27.4Z"/><path class="cls-2" d="M114.5,52.59a.51.51,0,0,1,.58.46.35.35,0,0,1-.25.36h0a.4.4,0,0,1,.32.43.58.58,0,0,1-.65.54c-.33,0-.66-.17-.66-.54a.41.41,0,0,1,.33-.43h0a.36.36,0,0,1-.26-.36C113.91,52.75,114.21,52.59,114.5,52.59Zm0,1.54a.29.29,0,0,0,.3-.27v0a.29.29,0,0,0-.29-.28h0a.28.28,0,0,0-.31.27.29.29,0,0,0,.29.3Zm0-.81a.23.23,0,0,0,.26-.23.22.22,0,0,0-.22-.24h0a.23.23,0,0,0-.27.21v0a.25.25,0,0,0,.27.24Z"/><path class="cls-2" d="M113,57.47c.15,0,.37,0,.37-.21a.23.23,0,0,0-.23-.23h0c-.18,0-.27.13-.27.31h-.34a.59.59,0,0,1,.61-.6.53.53,0,0,1,.58.48.36.36,0,0,1-.24.36h0a.41.41,0,0,1,.31.4.65.65,0,0,1-1.3-.06h.34c0,.19.1.34.3.34a.28.28,0,0,0,.29-.26h0c0-.26-.23-.26-.4-.26Z"/><path class="cls-2" d="M114.49,56.73c.35,0,.65.22.65.9s-.3.92-.65.92-.63-.22-.63-.92S114.15,56.73,114.49,56.73Zm0,1.52c.29,0,.29-.42.29-.62s0-.61-.29-.61-.28.43-.28.61S114.21,58.25,114.49,58.25Z"/><path class="cls-2" d="M113,65.42c.15,0,.37,0,.37-.22a.23.23,0,0,0-.23-.23h0a.27.27,0,0,0-.27.31h-.34a.59.59,0,0,1,.61-.6.53.53,0,0,1,.58.48.35.35,0,0,1-.24.37h0a.39.39,0,0,1,.31.39.65.65,0,0,1-1.3-.06h.34c0,.19.1.35.3.35a.28.28,0,0,0,.29-.26h0c0-.27-.23-.26-.4-.26Z"/><path class="cls-2" d="M114.58,66.06h-.74v-.33l.76-1h.31v1h.23v.3h-.23v.4h-.33Zm0-.9h0l-.45.6h.46Z"/><path class="cls-2" d="M118.86,2.41h-.36V1.28h-.44V1c.25,0,.48-.08.52-.35h.28Z"/><path class="cls-2" d="M118.45,5.34c.15,0,.37,0,.37-.21a.24.24,0,0,0-.23-.24h0c-.18,0-.27.13-.27.31H118a.58.58,0,0,1,.6-.61.54.54,0,0,1,.58.49.34.34,0,0,1-.24.36h0a.39.39,0,0,1,.31.4.65.65,0,0,1-1.3-.06h.34c0,.19.1.34.31.34a.27.27,0,0,0,.28-.25v0c0-.26-.23-.26-.4-.26Z"/><path class="cls-2" d="M119.13,9h-.73l-.07.4h0a.43.43,0,0,1,.34-.13.54.54,0,0,1,.54.59.63.63,0,0,1-.63.63h0a.57.57,0,0,1-.64-.55h.35a.28.28,0,0,0,.29.26.31.31,0,0,0,.3-.33h0a.31.31,0,0,0-.27-.33h0a.29.29,0,0,0-.27.14H118l.17-1h1Z"/><path class="cls-2" d="M118.3,17.91a.25.25,0,0,0,.23.22c.26,0,.32-.34.34-.53h0a.44.44,0,0,1-.39.19.55.55,0,0,1-.4-.18.62.62,0,0,1-.14-.39.61.61,0,0,1,.61-.64c.53,0,.67.46.67.9s-.19.92-.68.92a.54.54,0,0,1-.57-.49Zm.53-.71a.28.28,0,0,0-.27-.32h0a.32.32,0,0,0,0,.64A.28.28,0,0,0,118.83,17.2Z"/><path class="cls-2" d="M118.16,22.33h-.35V21.2h-.44v-.26c.25,0,.47-.08.51-.35h.28Z"/><path class="cls-2" d="M119.55,22.33h-.36V21.2h-.43v-.26c.24,0,.47-.08.51-.35h.28Z"/><path class="cls-2" d="M118.16,34.43h-.35V33.3h-.44V33c.25,0,.47-.09.51-.35h.28Z"/><path class="cls-2" d="M119.86,33a2.15,2.15,0,0,0-.57,1.45h-.38A2.57,2.57,0,0,1,119.5,33h-.83v-.33h1.19Z"/><path class="cls-2" d="M118.16,38.49h-.35V37.36h-.44v-.27c.25,0,.47-.08.51-.35h.28Z"/><path class="cls-2" d="M119,38a.26.26,0,0,0,.23.22c.26,0,.33-.34.34-.53h0a.43.43,0,0,1-.39.2.6.6,0,0,1-.4-.18.62.62,0,0,1-.14-.39.61.61,0,0,1,.61-.64c.53,0,.67.46.67.9s-.18.91-.68.91a.53.53,0,0,1-.57-.48Zm.54-.71a.31.31,0,0,0-.28-.33h0a.3.3,0,0,0-.27.32.3.3,0,0,0,.27.33.28.28,0,0,0,.28-.32Z"/><path class="cls-2" d="M117.28,41.57a.62.62,0,0,1,.63-.71.56.56,0,0,1,.6.55c0,.52-.56.57-.81.92h.82v.31h-1.28c0-.41.25-.57.55-.78.15-.11.37-.21.37-.43a.25.25,0,0,0-.23-.27h0c-.21,0-.28.22-.28.4Z"/><path class="cls-2" d="M119.55,42.64h-.36V41.51h-.43v-.27a.44.44,0,0,0,.51-.35h.28Z"/><path class="cls-2" d="M117.28,45.56a.61.61,0,0,1,.63-.7.55.55,0,0,1,.6.54c0,.53-.56.57-.81.93h.82v.3h-1.28c0-.4.25-.57.55-.78.15-.11.37-.21.37-.42a.25.25,0,0,0-.23-.27h0c-.21,0-.28.21-.28.4Z"/><path class="cls-2" d="M119.14,45.6c.15,0,.37,0,.37-.22a.23.23,0,0,0-.23-.23h0c-.18,0-.27.13-.27.31h-.33a.57.57,0,0,1,.6-.6.54.54,0,0,1,.59.48.35.35,0,0,1-.25.36h0a.39.39,0,0,1,.31.4.6.6,0,0,1-.65.57.58.58,0,0,1-.64-.63H119c0,.19.1.34.31.34a.27.27,0,0,0,.28-.26h0c0-.26-.23-.26-.4-.26Z"/><path class="cls-2" d="M113.89,6.09h-.74V5.76l.76-1h.31v1h.23v.29h-.23v.4h-.33Zm0-.9h0l-.45.6h.46Z"/><path class="cls-2" d="M113.39,22.44H113V21.31h-.44V21c.25,0,.47-.08.51-.35h.28Z"/><path class="cls-2" d="M113.89,21.37a.63.63,0,0,1,.64-.71.56.56,0,0,1,.59.55c0,.53-.56.57-.81.93h.83v.3h-1.28c0-.4.24-.57.55-.78.15-.11.36-.21.36-.42a.25.25,0,0,0-.23-.27h0c-.21,0-.28.21-.28.4Z"/><path class="cls-2" d="M113.39,30.52H113V29.39h-.44v-.27c.25,0,.47-.08.51-.34h.28Z"/><path class="cls-2" d="M114.77,29.23a.27.27,0,0,0-.24-.22c-.25,0-.32.34-.33.53h0a.41.41,0,0,1,.39-.2.55.55,0,0,1,.4.18.63.63,0,0,1-.44,1h0c-.52,0-.66-.46-.66-.9s.18-.91.68-.91a.52.52,0,0,1,.56.48Zm-.54.71a.3.3,0,0,0,.28.32h0a.3.3,0,0,0,.28-.32.3.3,0,0,0-.28-.33.29.29,0,0,0-.28.32Z"/><path class="cls-2" d="M113.39,34.54H113V33.41h-.44v-.27c.25,0,.47-.08.51-.34h.28Z"/><path class="cls-2" d="M114.5,32.76a.52.52,0,0,1,.58.47.37.37,0,0,1-.25.36h0a.39.39,0,0,1,.32.42.58.58,0,0,1-.65.55c-.33,0-.66-.17-.66-.54a.41.41,0,0,1,.33-.43h0a.36.36,0,0,1-.26-.36A.53.53,0,0,1,114.5,32.76Zm0,1.55a.3.3,0,0,0,.3-.28v0a.3.3,0,0,0-.29-.28h0a.28.28,0,0,0-.31.28.3.3,0,0,0,.29.3Zm0-.82a.24.24,0,1,0,0-.47h0a.24.24,0,0,0-.27.22v0a.24.24,0,0,0,.27.23Z"/><path class="cls-2" d="M112.51,41.68a.62.62,0,0,1,.63-.71.56.56,0,0,1,.6.55c0,.52-.56.57-.81.93h.82v.3h-1.28c0-.41.25-.57.55-.78s.37-.21.37-.43a.26.26,0,0,0-.23-.27h0c-.2,0-.27.22-.27.4Z"/><path class="cls-2" d="M113.89,41.68a.63.63,0,0,1,.64-.71.56.56,0,0,1,.59.55c0,.52-.56.57-.81.93h.83v.3h-1.28c0-.41.24-.57.55-.78.15-.11.36-.21.36-.43a.25.25,0,0,0-.23-.27h0c-.21,0-.28.22-.28.4Z"/><path class="cls-2" d="M114.08,9.29a.27.27,0,0,0-.24-.22c-.25,0-.32.34-.33.53h0a.45.45,0,0,1,.4-.19.57.57,0,0,1,.4.18.56.56,0,0,1,.13.39.6.6,0,0,1-.61.64c-.53,0-.67-.46-.67-.9s.19-.92.69-.92a.53.53,0,0,1,.56.49Zm-.54.71a.29.29,0,0,0,.27.32h0a.29.29,0,0,0,.27-.31c0-.16-.08-.33-.27-.33A.29.29,0,0,0,113.54,10Z"/><polygon class="cls-4" points="109.3 4.03 105.92 4.03 104.24 5.48 105.92 6.93 109.3 6.93 110.98 5.48 109.3 4.03"/><path class="cls-2" d="M106.85,6a.56.56,0,0,1-.44.22.76.76,0,0,1-.78-.82.78.78,0,0,1,.78-.84.64.64,0,0,1,.67.56h-.33a.33.33,0,0,0-.34-.27c-.31,0-.43.27-.43.54s.12.53.43.53a.34.34,0,0,0,.38-.3v0h-.35V5.34h.67V6.2h-.22Z"/><path class="cls-2" d="M107.39,4.61h.34l.66,1.06h0V4.61h.32V6.19h-.35l-.65-1.06h0V6.19h-.33Z"/><path class="cls-2" d="M109,4.61h.68a.69.69,0,0,1,.72.78c0,.46-.23.8-.72.8H109Zm.35,1.29h.31c.2,0,.39-.12.39-.47s-.11-.53-.45-.53h-.25Z"/><rect class="cls-4" x="108.94" y="76.29" width="2.47" height="2.9" rx="0.41"/><polygon class="cls-4" points="109.3 76.29 105.92 76.29 104.24 77.74 105.92 79.19 109.3 79.19 110.98 77.74 109.3 76.29"/><path class="cls-2" d="M106.85,78.27a.54.54,0,0,1-.44.22.83.83,0,0,1,0-1.66.64.64,0,0,1,.67.56h-.33a.34.34,0,0,0-.34-.27c-.31,0-.43.27-.43.55s.12.52.43.52a.33.33,0,0,0,.38-.3v0h-.35v-.26h.67v.86h-.22Z"/><path class="cls-2" d="M107.39,76.87h.34l.66,1.06h0V76.87h.32v1.58h-.35l-.65-1.06h0v1.06h-.33Z"/><path class="cls-2" d="M109,76.87h.68a.69.69,0,0,1,.72.78c0,.46-.23.8-.72.8H109Zm.35,1.29h.31c.2,0,.39-.13.39-.48s-.11-.52-.45-.52h-.25Z"/><rect class="cls-4" x="120.98" y="4.03" width="2.47" height="2.9" rx="0.41"/><polygon class="cls-4" points="123.12 4.03 126.49 4.03 128.17 5.49 126.49 6.94 123.12 6.94 121.43 5.49 123.12 4.03"/><path class="cls-2" d="M123.15,6a.54.54,0,0,1-.44.22.76.76,0,0,1-.78-.82.78.78,0,0,1,.78-.84.64.64,0,0,1,.67.56h-.33a.33.33,0,0,0-.34-.27c-.31,0-.43.27-.43.54s.12.53.43.53a.34.34,0,0,0,.38-.3v0h-.35V5.34h.66V6.2h-.22Z"/><path class="cls-2" d="M123.69,4.61H124l.66,1.06h0V4.61H125V6.19h-.34L124,5.13h0V6.19h-.33Z"/><path class="cls-2" d="M125.33,4.61H126a.69.69,0,0,1,.72.78.71.71,0,0,1-.72.8h-.69Zm.35,1.29H126c.2,0,.39-.12.39-.47s-.11-.53-.45-.53h-.25Z"/><rect class="cls-4" x="120.98" y="76.29" width="2.47" height="2.9" rx="0.41"/><polygon class="cls-4" points="123.12 76.29 126.49 76.29 128.17 77.74 126.49 79.19 123.12 79.19 121.43 77.74 123.12 76.29"/><path class="cls-2" d="M123.15,78.27a.54.54,0,0,1-.44.22.83.83,0,0,1,0-1.66.64.64,0,0,1,.67.56h-.33a.33.33,0,0,0-.34-.27c-.31,0-.43.27-.43.54s.12.53.43.53a.34.34,0,0,0,.38-.3v0h-.35v-.26h.66v.86h-.22Z"/><path class="cls-2" d="M123.69,76.87H124l.66,1.06h0V76.87H125v1.58h-.34L124,77.39h0v1.06h-.33Z"/><path class="cls-2" d="M125.33,76.87H126a.69.69,0,0,1,.72.78.71.71,0,0,1-.72.8h-.69Zm.35,1.29H126c.2,0,.39-.13.39-.48s-.11-.52-.45-.52h-.25Z"/><path class="cls-2" d="M113.81,12.79a.52.52,0,0,1,.58.47.38.38,0,0,1-.26.37h0a.4.4,0,0,1,.33.42.59.59,0,0,1-.65.55c-.33,0-.66-.17-.66-.54a.4.4,0,0,1,.32-.43h0a.35.35,0,0,1-.25-.36A.53.53,0,0,1,113.81,12.79Zm0,1.55a.29.29,0,0,0,.29-.28s0,0,0,0a.28.28,0,0,0-.28-.28h0a.28.28,0,0,0-.31.28.3.3,0,0,0,.29.3Zm0-.82c.14,0,.26-.07.26-.22a.25.25,0,0,0-.22-.25h0a.25.25,0,0,0-.27.22v0a.25.25,0,0,0,.28.23Z"/><path class="cls-2" d="M113.39,18.47H113V17.34h-.44v-.27c.25,0,.47-.08.51-.35h.28Z"/><path class="cls-2" d="M114.49,16.69c.35,0,.65.22.65.9s-.3.92-.65.92-.63-.22-.63-.92S114.15,16.69,114.49,16.69Zm0,1.52c.29,0,.29-.42.29-.62s0-.61-.29-.61-.28.43-.28.61S114.21,18.21,114.49,18.21Z"/><path class="cls-2" d="M113.39,26.54H113V25.4h-.44v-.26c.25,0,.47-.08.51-.35h.28Z"/><path class="cls-2" d="M114.58,26.13h-.74v-.32l.76-1h.31v1.05h.23v.29h-.23v.41h-.33Zm0-.9h0l-.45.61h.46Z"/><path class="cls-2" d="M112.51,37.52a.61.61,0,0,1,.63-.7.55.55,0,0,1,.6.54c0,.53-.56.57-.81.93h.82v.3h-1.28c0-.41.25-.57.55-.78s.37-.21.37-.42a.25.25,0,0,0-.23-.27h0c-.2,0-.27.21-.27.4Z"/><path class="cls-2" d="M114.49,36.82c.35,0,.65.22.65.9s-.3.92-.65.92-.63-.22-.63-.92S114.15,36.82,114.49,36.82Zm0,1.52c.29,0,.29-.42.29-.62s0-.61-.29-.61-.28.43-.28.61,0,.62.28.62Z"/><path class="cls-2" d="M112.51,45.65a.61.61,0,0,1,.63-.7.55.55,0,0,1,.6.54c0,.53-.56.57-.81.93h.82v.3h-1.28c0-.4.25-.57.55-.78s.37-.21.37-.42a.26.26,0,0,0-.23-.27h0c-.2,0-.27.21-.27.4Z"/><path class="cls-2" d="M114.58,46.32h-.74V46l.76-1h.31V46h.23v.29h-.23v.4h-.33Zm0-.89h0l-.45.6h.46Z"/><path class="cls-2" d="M119.17,13a2.14,2.14,0,0,0-.57,1.44h-.38a2.53,2.53,0,0,1,.58-1.41H118v-.33h1.19Z"/><path class="cls-2" d="M118.16,26.43h-.35V25.3h-.44V25c.25,0,.47-.08.51-.35h.28Z"/><path class="cls-2" d="M119.14,25.39c.15,0,.37,0,.37-.22a.23.23,0,0,0-.23-.23h0c-.18,0-.27.13-.27.31h-.33a.57.57,0,0,1,.6-.6.54.54,0,0,1,.59.48.35.35,0,0,1-.25.36h0a.39.39,0,0,1,.31.4.6.6,0,0,1-.65.57.58.58,0,0,1-.64-.63H119c0,.19.1.34.31.34a.26.26,0,0,0,.28-.25v0c0-.26-.23-.25-.4-.25Z"/><path class="cls-2" d="M118.16,30.41h-.35V29.28h-.44V29c.25,0,.47-.08.51-.35h.28Z"/><path class="cls-2" d="M119.82,29h-.72l-.07.4h0a.43.43,0,0,1,.34-.13.54.54,0,0,1,.54.59.63.63,0,0,1-.63.63h0a.59.59,0,0,1-.65-.55H119a.28.28,0,0,0,.29.26.32.32,0,0,0,.3-.33h0a.29.29,0,0,0-.27-.32h0a.27.27,0,0,0-.27.14h-.32l.17-1h1Z"/><polygon class="cls-5" points="106.69 8.07 103.77 8.07 102.31 9.52 103.77 10.98 106.69 10.98 108.14 9.52 106.69 8.07"/><path class="cls-5" d="M106.66,8.07H111a.43.43,0,0,1,.43.43v2.06A.43.43,0,0,1,111,11h-4.32a0,0,0,0,1,0,0V8.07A0,0,0,0,1,106.66,8.07Z"/><path class="cls-2" d="M104.71,9.32c.13,0,.33,0,.33-.2a.2.2,0,0,0-.21-.2h0c-.16,0-.24.12-.24.28h-.3a.52.52,0,0,1,.53-.55.49.49,0,0,1,.53.43.31.31,0,0,1-.22.32h0a.35.35,0,0,1,.27.35.52.52,0,0,1-.58.51.52.52,0,0,1-.57-.56h.3a.27.27,0,0,0,.27.3.24.24,0,0,0,.25-.22v0c0-.23-.21-.23-.36-.23Z"/><path class="cls-2" d="M106.19,10.24h-.35l-.4-1.14h.34l.24.78h0l.24-.78h.31Z"/><path class="cls-2" d="M107.09,9.32c.14,0,.33,0,.33-.2a.2.2,0,0,0-.2-.2h0c-.16,0-.24.12-.24.28h-.3a.54.54,0,0,1,.55-.55.49.49,0,0,1,.52.43.31.31,0,0,1-.22.32h0a.35.35,0,0,1,.27.35.58.58,0,0,1-1.15-.05h.3a.27.27,0,0,0,.27.3.24.24,0,0,0,.25-.22v0c0-.23-.21-.23-.36-.23Z"/><path class="cls-2" d="M107.78,10.41h1.12v.11h-1.12Z"/><path class="cls-2" d="M109.3,9.71c0,.21.17.29.35.29s.32,0,.32-.2-.25-.2-.48-.26-.48-.16-.48-.46.31-.48.6-.48.64.14.64.51h-.34c0-.19-.14-.24-.31-.24s-.25.05-.25.18.08.14.48.24c.12,0,.48.11.48.47s-.23.51-.67.51-.69-.17-.68-.56Z"/><path class="cls-6" d="M111.13,16.15a.28.28,0,0,1,.28.28v2.34a.28.28,0,0,1-.29.28h-3.61l-2-1.45,2-1.45h3.62Z"/><polygon class="cls-6" points="111.41 17.6 109.94 16.15 107.03 16.15 105.56 17.6 107.03 19.05 109.94 19.05 111.41 17.6"/><path class="cls-2" d="M107.87,16.81h.68a.7.7,0,0,1,.73.78.72.72,0,0,1-.73.81h-.68Zm.35,1.29h.31c.2,0,.4-.12.4-.47s-.12-.53-.46-.53h-.25Z"/><path class="cls-2" d="M109.52,16.81h.35V18.4h-.35Z"/><rect class="cls-7" x="101.5" y="44.28" width="5.19" height="2.9"/><path class="cls-7" d="M111,44.28c.24,0,.43.13.43.28V46.9c0,.15-.2.28-.44.28h-5.54l-3-1.45,3-1.45H111Z"/><polygon class="cls-7" points="103.14 45.73 101.68 44.28 98.76 44.28 97.3 45.73 98.76 47.18 101.68 47.18 103.14 45.73"/><path class="cls-2" d="M99.1,44.93h.69a.7.7,0,0,1,.72.79.71.71,0,0,1-.72.8H99.1Zm.35,1.3h.31c.2,0,.4-.12.4-.48s-.11-.52-.46-.52h-.25Z"/><path class="cls-2" d="M101.46,44.9a.83.83,0,0,1,0,1.66.83.83,0,0,1,0-1.66Zm0,1.37c.32,0,.44-.27.44-.53s-.12-.55-.44-.55-.43.27-.43.55S101.15,46.27,101.46,46.27Z"/><path class="cls-2" d="M102.33,46.69h1.11v.11h-1.11Z"/><path class="cls-2" d="M104.31,44.9a.83.83,0,1,1-.78.84A.77.77,0,0,1,104.31,44.9Zm0,1.37c.31,0,.43-.27.43-.53s-.12-.55-.43-.55-.43.27-.43.55S104,46.27,104.31,46.27Z"/><path class="cls-2" d="M105.3,45.37h.3v.15h0a.39.39,0,0,1,.34-.18c.37,0,.53.29.53.62a.54.54,0,0,1-.51.6.38.38,0,0,1-.34-.18h0v.55h-.31Zm.85.58c0-.18-.07-.37-.27-.37s-.28.18-.28.37.07.37.28.37S106.15,46.14,106.15,46Z"/><path class="cls-2" d="M107.06,45.37h.23v.21h-.23v.57c0,.11,0,.14.13.14h.1v.25h-.19c-.19,0-.36,0-.36-.28v-.68h-.19v-.21h.19V45h.32Z"/><path class="cls-2" d="M107.77,45.19h-.32v-.26h.32Zm-.32.18h.32v1.15h-.32Z"/><path class="cls-2" d="M108.57,45.34A.61.61,0,1,1,108,46,.56.56,0,0,1,108.57,45.34Zm0,1c.22,0,.29-.19.29-.37s-.07-.37-.29-.37-.27.18-.27.37S108.36,46.32,108.57,46.32Z"/><path class="cls-2" d="M109.38,45.37h.3v.16h0a.41.41,0,0,1,.36-.19c.33,0,.42.19.42.48v.7h-.32v-.65c0-.19,0-.28-.2-.28s-.25.1-.25.33v.6h-.31Z"/><path class="cls-7" d="M111.13,60.09a.28.28,0,0,1,.28.28v2.34a.29.29,0,0,1-.29.28h-3.61l-2-1.45,2-1.45h3.62Z"/><polygon class="cls-7" points="111.41 61.54 109.94 60.09 107.03 60.09 105.56 61.54 107.03 62.99 109.94 62.99 111.41 61.54"/><path class="cls-2" d="M107.37,60.74h.68a.7.7,0,0,1,.73.79.71.71,0,0,1-.73.8h-.68Zm.35,1.3H108c.2,0,.4-.12.4-.48S108.31,61,108,61h-.25Z"/><path class="cls-2" d="M109.73,60.71a.83.83,0,1,1-.78.84A.77.77,0,0,1,109.73,60.71Zm0,1.37c.32,0,.43-.27.43-.53s-.11-.55-.43-.55-.43.27-.43.55S109.42,62.08,109.73,62.08Z"/><rect class="cls-7" x="101.5" y="68.16" width="5.19" height="2.9"/><path class="cls-7" d="M111,68.16c.24,0,.43.13.43.28v2.34c0,.16-.2.28-.44.28h-5.54l-3-1.45,3-1.45H111Z"/><polygon class="cls-7" points="103.14 69.61 101.68 68.16 98.76 68.16 97.3 69.61 98.76 71.06 101.68 71.06 103.14 69.61"/><path class="cls-2" d="M98.79,68.82h.69a.69.69,0,0,1,.72.78c0,.46-.23.81-.72.81h-.69Zm.35,1.29h.32c.2,0,.39-.12.39-.47s-.11-.53-.46-.53h-.25Z"/><path class="cls-2" d="M101.16,68.78a.77.77,0,0,1,.78.84.76.76,0,0,1-.78.82.77.77,0,0,1-.79-.82A.78.78,0,0,1,101.16,68.78Zm0,1.37c.31,0,.43-.27.43-.53s-.12-.55-.43-.55-.44.27-.44.55S100.84,70.15,101.16,70.15Z"/><path class="cls-2" d="M102,70.57h1.12v.11H102Z"/><path class="cls-2" d="M104,68.78a.77.77,0,0,1,.78.84.78.78,0,1,1-1.56,0A.77.77,0,0,1,104,68.78Zm0,1.37c.32,0,.43-.27.43-.53s-.11-.55-.43-.55-.43.27-.43.55S103.69,70.15,104,70.15Z"/><path class="cls-2" d="M105,69.25h.3v.15h0a.4.4,0,0,1,.35-.18c.36,0,.52.29.52.62a.54.54,0,0,1-.51.6.39.39,0,0,1-.34-.18h0v.55H105Zm.85.58c0-.18-.07-.37-.27-.37s-.28.19-.28.37.08.37.28.37S105.84,70,105.84,69.83Z"/><path class="cls-2" d="M106.75,69.25H107v.22h-.23V70c0,.1,0,.13.13.13h.1v.25h-.18c-.2,0-.37,0-.37-.27v-.68h-.19v-.22h.19v-.34h.32Z"/><path class="cls-2" d="M107.46,69.08h-.32v-.26h.32Zm-.32.17h.32v1.16h-.32Z"/><path class="cls-2" d="M108.27,69.22a.61.61,0,0,1,0,1.22.61.61,0,0,1,0-1.22Zm0,1c.21,0,.28-.18.28-.37s-.07-.37-.28-.37-.28.19-.28.37S108.05,70.2,108.27,70.2Z"/><path class="cls-2" d="M109.07,69.25h.3v.16h0a.4.4,0,0,1,.35-.19c.33,0,.42.19.42.48v.71h-.32v-.65c0-.19,0-.29-.2-.29s-.24.1-.24.33v.61h-.32Z"/><rect class="cls-6" x="125.69" y="60.22" width="5.19" height="2.9" transform="translate(256.57 123.35) rotate(180)"/><path class="cls-6" d="M121.39,63.13c-.24,0-.43-.14-.42-.29V60.5c0-.15.19-.28.44-.28H127l3,1.45-3,1.46h-5.56Z"/><polygon class="cls-6" points="128.28 61.67 129.74 63.13 132.66 63.13 134.12 61.67 132.66 60.22 129.74 60.22 128.28 61.67"/><path class="cls-2" d="M122.09,60.84h.68a.7.7,0,0,1,.73.79.71.71,0,0,1-.73.8h-.68Zm.35,1.3h.31c.2,0,.4-.13.4-.48s-.12-.53-.46-.53h-.25Z"/><path class="cls-2" d="M123.74,60.84h.35v1.59h-.35Z"/><path class="cls-2" d="M124.24,62.6h1.12v.11h-1.12Z"/><path class="cls-2" d="M126.22,60.8a.84.84,0,1,1-.78.84A.77.77,0,0,1,126.22,60.8Zm0,1.37c.32,0,.43-.26.43-.53s-.11-.54-.43-.54-.43.26-.43.54S125.91,62.17,126.22,62.17Z"/><path class="cls-2" d="M127.21,61.28h.3v.15h0a.38.38,0,0,1,.35-.18c.36,0,.52.29.52.62a.53.53,0,0,1-.51.59.41.41,0,0,1-.34-.17h0v.55h-.31Zm.85.58c0-.19-.07-.37-.27-.37s-.28.18-.28.37.07.36.28.36S128.06,62.05,128.06,61.86Z"/><path class="cls-2" d="M129,61.28h.23v.21H129v.57c0,.11,0,.13.13.13h.1v.24H129c-.2,0-.37,0-.37-.27v-.68h-.19v-.21h.19v-.35H129Z"/><path class="cls-2" d="M129.68,61.1h-.32v-.26h.32Zm-.32.18h.32v1.15h-.32Z"/><path class="cls-2" d="M130.49,61.25a.61.61,0,1,1-.6.61A.57.57,0,0,1,130.49,61.25Zm0,1c.21,0,.28-.18.28-.36s-.07-.37-.28-.37-.28.18-.28.37S130.27,62.22,130.49,62.22Z"/><path class="cls-2" d="M131.29,61.28h.3v.16h0a.4.4,0,0,1,.35-.19c.33,0,.42.19.42.47v.71h-.32v-.65c0-.19-.05-.28-.2-.28s-.25.09-.25.33v.6h-.31Z"/><rect class="cls-6" x="125.69" y="68.24" width="5.19" height="2.9" transform="translate(256.57 139.38) rotate(180)"/><path class="cls-6" d="M121.39,71.14c-.24,0-.43-.13-.42-.28V68.52c0-.16.19-.28.44-.28H127l3,1.45-3,1.45h-5.56Z"/><polygon class="cls-6" points="128.28 69.69 129.74 71.14 132.66 71.14 134.12 69.69 132.66 68.24 129.74 68.24 128.28 69.69"/><path class="cls-2" d="M122.09,68.92h.68a.71.71,0,0,1,.73.79.72.72,0,0,1-.73.81h-.68Zm.35,1.3h.31c.2,0,.4-.12.4-.48s-.12-.52-.46-.52h-.25Z"/><path class="cls-2" d="M123.74,68.92h.35v1.6h-.35Z"/><path class="cls-2" d="M124.24,70.68h1.12v.11h-1.12Z"/><path class="cls-2" d="M126.22,68.89a.83.83,0,1,1-.78.84A.77.77,0,0,1,126.22,68.89Zm0,1.37c.32,0,.43-.27.43-.53s-.11-.55-.43-.55-.43.27-.43.55S125.91,70.26,126.22,70.26Z"/><path class="cls-2" d="M127.21,69.36h.3v.15h0a.4.4,0,0,1,.35-.18c.36,0,.52.29.52.62a.54.54,0,0,1-.51.6.39.39,0,0,1-.34-.18h0v.55h-.31Zm.85.58c0-.18-.07-.37-.27-.37s-.28.19-.28.37.07.37.28.37S128.06,70.13,128.06,69.94Z"/><path class="cls-2" d="M129,69.36h.23v.21H129v.58c0,.1,0,.13.13.13h.1v.25H129c-.2,0-.37,0-.37-.28v-.68h-.19v-.21h.19V69H129Z"/><path class="cls-2" d="M129.68,69.19h-.32v-.27h.32Zm-.32.17h.32v1.16h-.32Z"/><path class="cls-2" d="M130.49,69.33a.61.61,0,0,1,0,1.22.61.61,0,0,1,0-1.22Zm0,1c.21,0,.28-.18.28-.37s-.07-.37-.28-.37-.28.19-.28.37S130.27,70.31,130.49,70.31Z"/><path class="cls-2" d="M131.29,69.36h.3v.16h0a.4.4,0,0,1,.35-.19c.33,0,.42.19.42.48v.71h-.32v-.66c0-.18-.05-.28-.2-.28s-.25.1-.25.33v.61h-.31Z"/><rect class="cls-1" x="120.97" y="56.11" width="2.47" height="2.91" rx="0.41"/><polygon class="cls-1" points="125.35 59.01 122.43 59.01 120.97 57.56 122.43 56.11 125.35 56.11 126.81 57.56 125.35 59.01"/><path class="cls-2" d="M122.15,56.69h.35l.66,1.06h0V56.69h.33v1.58h-.35l-.66-1.06h0v1.06h-.33Z"/><path class="cls-2" d="M124.85,57.22a.36.36,0,0,0-.35-.28c-.31,0-.43.27-.43.55s.12.53.43.53a.35.35,0,0,0,.36-.36h.34a.67.67,0,0,1-.7.65.76.76,0,0,1-.77-.82.78.78,0,0,1,.77-.84.64.64,0,0,1,.69.57Z"/><rect class="cls-1" x="120.97" y="72.35" width="2.47" height="2.91" rx="0.41"/><polygon class="cls-1" points="125.35 75.26 122.43 75.26 120.97 73.8 122.43 72.35 125.35 72.35 126.81 73.8 125.35 75.26"/><path class="cls-2" d="M122.15,72.93h.35l.66,1.06h0V72.93h.33v1.58h-.35l-.66-1.06h0v1.06h-.33Z"/><path class="cls-2" d="M124.85,73.46a.34.34,0,0,0-.35-.27c-.31,0-.43.26-.43.54s.12.53.43.53a.35.35,0,0,0,.36-.36h.34a.67.67,0,0,1-.7.65.76.76,0,0,1-.77-.82.78.78,0,0,1,.77-.84.65.65,0,0,1,.69.57Z"/><rect class="cls-1" x="120.97" y="64.09" width="2.47" height="2.91" rx="0.41"/><polygon class="cls-1" points="125.35 67 122.43 67 120.97 65.55 122.43 64.09 125.35 64.09 126.81 65.55 125.35 67"/><path class="cls-2" d="M122.15,64.67h.35l.66,1.07h0V64.67h.33v1.59h-.35l-.66-1.06h0v1.06h-.33Z"/><path class="cls-2" d="M124.85,65.21a.35.35,0,0,0-.35-.28c-.31,0-.43.27-.43.54s.12.53.43.53a.34.34,0,0,0,.36-.35h.34a.66.66,0,0,1-.7.64.76.76,0,0,1-.77-.82.78.78,0,0,1,.77-.84.65.65,0,0,1,.69.58Z"/><rect class="cls-1" x="120.97" y="52.12" width="2.47" height="2.91" rx="0.41"/><polygon class="cls-1" points="125.35 55.02 122.43 55.02 120.97 53.57 122.43 52.12 125.35 52.12 126.81 53.57 125.35 55.02"/><path class="cls-2" d="M122.15,52.7h.35l.66,1.06h0V52.7h.33v1.58h-.35l-.66-1.06h0v1.06h-.33Z"/><path class="cls-2" d="M124.85,53.23a.36.36,0,0,0-.35-.28c-.31,0-.43.27-.43.55s.12.53.43.53a.35.35,0,0,0,.36-.36h.34a.67.67,0,0,1-.7.65.76.76,0,0,1-.77-.82.78.78,0,0,1,.77-.84.64.64,0,0,1,.69.57Z"/><rect class="cls-1" x="120.97" y="48.21" width="2.47" height="2.91" rx="0.41"/><polygon class="cls-1" points="125.35 51.12 122.43 51.12 120.97 49.67 122.43 48.21 125.35 48.21 126.81 49.67 125.35 51.12"/><path class="cls-2" d="M122.15,48.79h.35l.66,1.07h0V48.79h.33v1.59h-.35l-.66-1.06h0v1.06h-.33Z"/><path class="cls-2" d="M124.85,49.33a.35.35,0,0,0-.35-.28c-.31,0-.43.27-.43.54s.12.53.43.53a.34.34,0,0,0,.36-.35h.34a.66.66,0,0,1-.7.64.76.76,0,0,1-.77-.82.78.78,0,0,1,.77-.84.65.65,0,0,1,.69.58Z"/><rect class="cls-1" x="120.97" y="44.27" width="2.47" height="2.91" rx="0.41"/><polygon class="cls-1" points="125.35 47.18 122.43 47.18 120.97 45.73 122.43 44.27 125.35 44.27 126.81 45.73 125.35 47.18"/><path class="cls-2" d="M122.15,44.85h.35l.66,1.07h0V44.85h.33v1.59h-.35l-.66-1.06h0v1.06h-.33Z"/><path class="cls-2" d="M124.85,45.39a.35.35,0,0,0-.35-.28c-.31,0-.43.27-.43.54s.12.53.43.53a.34.34,0,0,0,.36-.35h.34a.67.67,0,0,1-.7.65.77.77,0,0,1-.77-.83.78.78,0,0,1,.77-.84.65.65,0,0,1,.69.58Z"/><g class="cls-9"><path class="cls-10" d="M0,16.1v47H65v-47ZM9.11,61.91a2.67,2.67,0,1,1,2.66-2.67A2.67,2.67,0,0,1,9.11,61.91ZM9.2,22.38a2.63,2.63,0,1,1,2.62-2.63A2.62,2.62,0,0,1,9.2,22.38ZM41,21a1.43,1.43,0,1,1,1.42-1.43A1.43,1.43,0,0,1,41,21Zm11.2,40a1.43,1.43,0,1,1,1.42-1.42A1.43,1.43,0,0,1,52.21,61ZM61.7,28.64a1.43,1.43,0,1,1,1.41-1.42A1.42,1.42,0,0,1,61.7,28.64Z"/><path class="cls-11" d="M41,16.62a3,3,0,1,0,3,3A3,3,0,0,0,41,16.62ZM41,21a1.43,1.43,0,1,1,1.42-1.43A1.43,1.43,0,0,1,41,21Z"/><path class="cls-11" d="M61.7,24.6a2.62,2.62,0,1,0,2.59,2.62A2.61,2.61,0,0,0,61.7,24.6Zm0,4a1.43,1.43,0,1,1,1.41-1.42A1.42,1.42,0,0,1,61.7,28.64Z"/><path class="cls-11" d="M52.21,56.71a2.88,2.88,0,1,0,2.86,2.88A2.87,2.87,0,0,0,52.21,56.71Zm0,4.3a1.43,1.43,0,1,1,1.42-1.42A1.43,1.43,0,0,1,52.21,61Z"/><path class="cls-11" d="M11.76,63.1a4.69,4.69,0,1,0-5.29,0ZM9.11,56.56a2.65,2.65,0,1,1-2.63,2.65A2.65,2.65,0,0,1,9.11,56.56Z"/><path class="cls-11" d="M12.65,16.1H5.9a4.81,4.81,0,1,0,6.75,0ZM9.2,22.38a2.63,2.63,0,1,1,2.62-2.63A2.62,2.62,0,0,1,9.2,22.38Z"/><ellipse class="cls-12" cx="25.89" cy="24.34" rx="1.02" ry="1.03"/><circle class="cls-13" cx="25.89" cy="24.34" r="0.66"/><circle class="cls-14" cx="25.89" cy="24.34" r="0.33"/><ellipse class="cls-12" cx="34.65" cy="24.34" rx="1.02" ry="1.03"/><circle class="cls-13" cx="34.65" cy="24.34" r="0.66"/><circle class="cls-14" cx="34.65" cy="24.34" r="0.33"/><ellipse class="cls-15" cx="34.7" cy="45.94" rx="1.05" ry="1.05"/><rect class="cls-14" x="33.99" y="45.7" width="1.41" height="0.48" rx="0.13"/><ellipse class="cls-15" cx="34.7" cy="59.21" rx="1.05" ry="1.05"/><rect class="cls-14" x="33.99" y="58.97" width="1.41" height="0.48" rx="0.13"/><ellipse class="cls-16" cx="18.53" cy="41.41" rx="1.05" ry="1.05"/><ellipse class="cls-17" cx="18.53" cy="41.41" rx="0.86" ry="0.87"/><ellipse class="cls-16" cx="9.11" cy="48.04" rx="1.05" ry="1.05"/><ellipse class="cls-17" cx="9.11" cy="48.04" rx="0.86" ry="0.87"/><ellipse class="cls-16" cx="9.11" cy="34.64" rx="1.05" ry="1.05"/><ellipse class="cls-17" cx="9.11" cy="34.64" rx="0.86" ry="0.87"/><ellipse class="cls-16" cx="18.53" cy="28.31" rx="1.05" ry="1.05"/><ellipse class="cls-17" cx="18.53" cy="28.31" rx="0.86" ry="0.87"/><path class="cls-18" d="M6.12,41H7a3.11,3.11,0,0,0,2-.89l5.28-5.29a2.46,2.46,0,0,1,1.94-.75h9.34A1.44,1.44,0,0,1,27,35.55a1.41,1.41,0,0,1-1.52,1.35H17.58a3,3,0,0,0-2.39,1l-5,5a2.82,2.82,0,0,1-2.38.85H5.31a1.37,1.37,0,0,1-1.15-1.5A1.53,1.53,0,0,1,5.2,41Z"/></g><path class="cls-19" d="M46.44,21.85h-.16a.27.27,0,0,1-.26-.27V18.8a.26.26,0,0,1,.26-.26h.16a.25.25,0,0,1,.26.25h0v2.78a.27.27,0,0,1-.26.27h0"/><path class="cls-19" d="M63.73,21.85h-.15a.27.27,0,0,1-.27-.27h0V18.8a.26.26,0,0,1,.26-.26h.16a.24.24,0,0,1,.26.24v2.8a.26.26,0,0,1-.25.27h0"/><path class="cls-20" d="M64.16,19.41v-.26a.26.26,0,0,0-.26-.26h-.54a.29.29,0,0,0-.25.16H46.88a.26.26,0,0,0-.25-.16h-.54a.24.24,0,0,0-.25.24v.28a.25.25,0,0,0,.18.25v1.08a.26.26,0,0,0-.18.25v.27a.26.26,0,0,0,.25.27h.54a.27.27,0,0,0,.25-.18H63.11a.28.28,0,0,0,.25.18h.54a.26.26,0,0,0,.26-.26h0V21a.28.28,0,0,0-.16-.22V19.66A.26.26,0,0,0,64.16,19.41Z"/><path class="cls-21" d="M62.71,21.08H47.24c-.12,0-.22-.06-.22-.13V19.48c0-.07.1-.13.22-.13H62.71c.13,0,.22.06.22.13V21c0,.07-.09.13-.22.13"/><path class="cls-19" d="M48,18h-.29a.07.07,0,0,0-.08.08h0v.26a.06.06,0,0,0,.06.08h0v.72H48v-.72a.08.08,0,0,0,.08-.08h0v-.26A.08.08,0,0,0,48,18h0"/><path class="cls-22" d="M48,19.37h-.4a.06.06,0,0,1-.06-.06v-.2a.05.05,0,0,1,.06-.06H48a.07.07,0,0,1,.07.06v.2a.09.09,0,0,1-.07.06"/><path class="cls-19" d="M48,22.46h-.29a.07.07,0,0,1-.08-.08h0v-.26a.06.06,0,0,1,.08-.05v-.75H48v.75a.08.08,0,0,1,.08.08h0v.26a.09.09,0,0,1-.08.08h0"/><path class="cls-22" d="M48,21.06h-.4a.06.06,0,0,0-.06.06v.2a.05.05,0,0,0,0,.06H48a.07.07,0,0,0,.07-.06v-.2a.09.09,0,0,0-.07-.06"/><path class="cls-19" d="M48.74,18h-.29a.07.07,0,0,0-.08.08h0v.26s0,.08.06.08h0v.72h.31v-.72a.07.07,0,0,0,.08-.08h0v-.26a.07.07,0,0,0-.08-.08h0"/><path class="cls-22" d="M48.71,19.37h-.4a.06.06,0,0,1-.06-.06v-.2a.06.06,0,0,1,.06-.06h.4a.06.06,0,0,1,.06.06v.2a.06.06,0,0,1-.06.06"/><path class="cls-19" d="M48.74,22.46h-.29a.07.07,0,0,1-.07-.08v-.26a.06.06,0,0,1,.06-.05v-.75h.31v.75a.07.07,0,0,1,.08.08h0v.26a.08.08,0,0,1-.08.08h0"/><path class="cls-22" d="M48.71,21.06h-.4a.06.06,0,0,0-.06.06v.2a.06.06,0,0,0,0,.06h.41a.06.06,0,0,0,.06-.06h0v-.2a.06.06,0,0,0-.06-.06"/><path class="cls-19" d="M49.52,18h-.3a.08.08,0,0,0-.08.08h0v.26a.08.08,0,0,0,.08.08h0v.72h.31v-.72a.07.07,0,0,0,.07-.07h0v-.26a.07.07,0,0,0-.08-.08h0"/><path class="cls-22" d="M49.48,19.37h-.39a.07.07,0,0,1-.07-.06v-.2a.06.06,0,0,1,.06-.06h.4a.05.05,0,0,1,.07.05h0v.2a.07.07,0,0,1-.07.06"/><path class="cls-19" d="M49.52,22.46h-.3a.08.08,0,0,1-.08-.08h0v-.26a.07.07,0,0,1,.08-.05v-.75h.31v.75a.07.07,0,0,1,.07.07h0v.26a.08.08,0,0,1-.08.08h0"/><path class="cls-22" d="M49.48,21.06h-.39a.07.07,0,0,0-.07.06v.2a.06.06,0,0,0,0,.06h.41a.05.05,0,0,0,.07-.05h0v-.2a.07.07,0,0,0-.07-.06"/><path class="cls-19" d="M50.28,18H50a.07.07,0,0,0-.08.08h0v.26a.07.07,0,0,0,.08.08h0v.72h.31v-.72a.06.06,0,0,0,.06-.08h0v-.26a.07.07,0,0,0-.08-.08h0"/><path class="cls-22" d="M50.24,19.37h-.39a.07.07,0,0,1-.07-.06v-.2a.06.06,0,0,1,.06-.06h.4s.06,0,.07.05h0v.2a.07.07,0,0,1-.07.06"/><path class="cls-19" d="M50.28,22.46H50a.07.07,0,0,1-.08-.08h0v-.26a.07.07,0,0,1,.08-.05v-.75h.31v.75a.07.07,0,0,1,.07.07h0v.26a.08.08,0,0,1-.08.08h0"/><path class="cls-22" d="M50.24,21.06h-.39a.07.07,0,0,0-.07.06v.2a.06.06,0,0,0,0,.06h.41s.06,0,.07-.05h0v-.2a.07.07,0,0,0-.07-.06"/><path class="cls-19" d="M51,18h-.3a.08.08,0,0,0-.08.08h0v.26a.08.08,0,0,0,.08.08h0v.72H51v-.72a.07.07,0,0,0,.08-.08h0v-.26A.07.07,0,0,0,51,18h0"/><path class="cls-22" d="M51,19.37h-.39a.07.07,0,0,1-.07-.06v-.2a.06.06,0,0,1,.06-.06H51a.05.05,0,0,1,.07.05h0v.2a.07.07,0,0,1-.07.06"/><path class="cls-19" d="M51,22.46h-.3a.08.08,0,0,1-.08-.08h0v-.26a.07.07,0,0,1,.09-.05v-.75H51v.75a.07.07,0,0,1,.08.08h0v.26a.07.07,0,0,1-.08.05"/><path class="cls-22" d="M51,21.06h-.39a.07.07,0,0,0-.07.06v.2a.06.06,0,0,0,.05.06H51a.05.05,0,0,0,.07-.05h0v-.2a.07.07,0,0,0-.07-.06"/><path class="cls-19" d="M51.75,18h-.3a.07.07,0,0,0-.08.08h0v.26a.07.07,0,0,0,.08.08h0v.72h.3v-.72a.07.07,0,0,0,.08-.08h0v-.26a.07.07,0,0,0-.08-.08h0"/><path class="cls-22" d="M51.71,19.37h-.39a.07.07,0,0,1-.07-.06v-.2a.06.06,0,0,1,.06-.06h.4s.06,0,.07.05h0v.2a.07.07,0,0,1-.07.06"/><path class="cls-19" d="M51.75,22.46h-.3a.07.07,0,0,1-.08-.08h0v-.26a.07.07,0,0,1,.08-.05v-.75h.3v.75a.07.07,0,0,1,.08.08h0v.26a.08.08,0,0,1-.08.08h0"/><path class="cls-22" d="M51.71,21.06h-.39a.07.07,0,0,0-.07.06v.2a.06.06,0,0,0,0,.06h.41s.06,0,.07-.05h0v-.2a.07.07,0,0,0-.07-.06"/><path class="cls-19" d="M52.49,18h-.3a.07.07,0,0,0-.08.08h0v.26a.07.07,0,0,0,.08.08h0v.72h.31v-.72a.07.07,0,0,0,.07-.07h0v-.26a.08.08,0,0,0-.08-.08h0"/><path class="cls-22" d="M52.46,19.37h-.4a.07.07,0,0,1-.07-.06v-.2s0-.06.07-.06h.4a.06.06,0,0,1,.06.06v.2a.06.06,0,0,1-.06.06"/><path class="cls-19" d="M52.49,22.46h-.3a.07.07,0,0,1-.08-.08h0v-.26a.07.07,0,0,1,.08-.05v-.75h.31v.75a.07.07,0,0,1,.07.07h0v.26a.09.09,0,0,1-.08.08h0"/><path class="cls-22" d="M52.46,21.06h-.4a.07.07,0,0,0-.07.06v.2a.07.07,0,0,0,.07.06h.4a.06.06,0,0,0,.06-.06h0v-.2a.06.06,0,0,0-.06-.06"/><path class="cls-19" d="M53.24,18h-.3a.08.08,0,0,0-.08.08h0v.26a.08.08,0,0,0,.07.08h0v.72h.31v-.72a.07.07,0,0,0,.08-.08h0v-.26a.07.07,0,0,0-.08-.08h0"/><path class="cls-22" d="M53.2,19.37h-.39a.07.07,0,0,1-.07-.06v-.2a.06.06,0,0,1,.06-.06h.4s.07,0,.07.06v.2a.07.07,0,0,1-.07.06"/><path class="cls-19" d="M53.24,22.46h-.3a.08.08,0,0,1-.08-.08h0v-.26s0-.06.07-.05v-.75h.31v.75a.07.07,0,0,1,.08.08h0v.26a.08.08,0,0,1-.08.08h0"/><path class="cls-22" d="M53.2,21.06h-.39a.07.07,0,0,0-.07.06v.2a.06.06,0,0,0,0,.06h.41a.07.07,0,0,0,.07-.06v-.2a.07.07,0,0,0-.07-.06"/><path class="cls-19" d="M54,18h-.3a.07.07,0,0,0-.08.07h0v.26a.07.07,0,0,0,.07.08h0v.72H54v-.72a.07.07,0,0,0,.08-.08h0v-.26A.07.07,0,0,0,54,18h0"/><path class="cls-22" d="M54,19.37h-.4a.06.06,0,0,1-.06-.06v-.2a.06.06,0,0,1,.06-.06H54a.05.05,0,0,1,.06.06v.2a.06.06,0,0,1-.06.06"/><path class="cls-19" d="M54,22.46h-.3a.07.07,0,0,1-.08-.07h0v-.26s0-.06.07-.05v-.75H54v.75a.07.07,0,0,1,.08.08h0v.26a.08.08,0,0,1-.08.08h0"/><path class="cls-22" d="M54,21.06h-.4a.06.06,0,0,0-.06.06v.2a.06.06,0,0,0,.06.06H54a.05.05,0,0,0,.06-.06h0v-.2a.06.06,0,0,0-.06-.06"/><path class="cls-19" d="M54.73,18h-.3a.08.08,0,0,0-.08.08h0v.26a.08.08,0,0,0,.07.08h0v.72h.31v-.72a.07.07,0,0,0,.08-.08h0v-.26a.07.07,0,0,0-.08-.08h0"/><path class="cls-22" d="M54.69,19.37h-.38a.06.06,0,0,1-.06-.06v-.2a.06.06,0,0,1,.06-.06h.4s.07,0,.07.06v.2a.07.07,0,0,1-.07.06"/><path class="cls-19" d="M54.73,22.46h-.3a.08.08,0,0,1-.08-.08h0v-.26s0-.06.07-.05v-.75h.31v.75a.07.07,0,0,1,.08.08h0v.26a.08.08,0,0,1-.08.08h0"/><path class="cls-22" d="M54.69,21.06h-.38a.06.06,0,0,0-.06.06v.2a.07.07,0,0,0,0,.08h.43a.07.07,0,0,0,.07-.06v-.22a.07.07,0,0,0-.07-.06"/><path class="cls-19" d="M55.5,18h-.31a.07.07,0,0,0-.07.08h0v.26a.07.07,0,0,0,.07.08h0v.72h.31v-.72a.08.08,0,0,0,.08-.08h0v-.26A.08.08,0,0,0,55.5,18h0"/><path class="cls-22" d="M55.46,19.37h-.4a.06.06,0,0,1-.06-.06v-.2a.05.05,0,0,1,.06-.06h.4a.05.05,0,0,1,.06.05h0v.2a.06.06,0,0,1-.06.06"/><path class="cls-19" d="M55.5,22.46h-.31a.07.07,0,0,1-.07-.08h0v-.26s0-.06.07-.05v-.75h.31v.75a.08.08,0,0,1,.08.08h0v.26a.09.09,0,0,1-.08.08h0"/><path class="cls-22" d="M55.46,21.06h-.4a.06.06,0,0,0-.06.06v.2a.05.05,0,0,0,0,.06h.41a.05.05,0,0,0,.06-.05h0v-.2a.06.06,0,0,0-.06-.06"/><path class="cls-19" d="M56.24,18H56a.07.07,0,0,0-.08.08h0v.26a.06.06,0,0,0,.06.08h0v.72h.31v-.72a.08.08,0,0,0,.08-.08h0v-.26a.08.08,0,0,0-.08-.08h0"/><path class="cls-22" d="M56.21,19.37h-.4a.06.06,0,0,1-.06-.06v-.2a.05.05,0,0,1,.06-.06h.4a.07.07,0,0,1,.07.06v.2a.09.09,0,0,1-.07.06"/><path class="cls-19" d="M56.24,22.46H56a.07.07,0,0,1-.08-.08h0v-.26s0-.06.07-.05v-.75h.31v.75a.08.08,0,0,1,.08.08h0v.26a.09.09,0,0,1-.08.08h0"/><path class="cls-22" d="M56.21,21.06h-.4a.06.06,0,0,0-.06.06v.2a.05.05,0,0,0,0,.06h.41a.07.07,0,0,0,.07-.06v-.2a.09.09,0,0,0-.07-.06"/><path class="cls-19" d="M57.06,18h-.3a.07.07,0,0,0-.08.08h0v.26a.07.07,0,0,0,.08.08h0v.72h.31v-.72a.07.07,0,0,0,.07-.07h0v-.26a.08.08,0,0,0-.08-.08h0"/><path class="cls-22" d="M57,19.37h-.39a.07.07,0,0,1-.07-.06v-.2s0-.06.07-.06H57s.06,0,.07.05h0v.2a.07.07,0,0,1-.07.06"/><path class="cls-19" d="M57.06,22.46h-.3a.07.07,0,0,1-.08-.08h0v-.26a.07.07,0,0,1,.08-.05v-.75h.31v.75a.07.07,0,0,1,.07.07h0v.26a.09.09,0,0,1-.08.08h0"/><path class="cls-22" d="M57,21.06h-.39a.07.07,0,0,0-.07.06v.2a.07.07,0,0,0,.07.06H57s.06,0,.07-.05h0v-.2a.07.07,0,0,0-.07-.06"/><path class="cls-19" d="M57.79,18h-.3a.08.08,0,0,0-.08.08h0v.26a.08.08,0,0,0,.08.08h0v.72h.31v-.72a.07.07,0,0,0,.07-.07h0v-.26a.07.07,0,0,0-.08-.08h0"/><path class="cls-22" d="M57.75,19.37h-.39a.07.07,0,0,1-.07-.06v-.2s0-.06.07-.06h.39s.06,0,.07.05h0v.2a.07.07,0,0,1-.07.06"/><path class="cls-19" d="M57.79,22.46h-.3a.08.08,0,0,1-.08-.08h0v-.26a.07.07,0,0,1,.08-.05v-.75h.31v.75a.07.07,0,0,1,.07.07h0v.26a.08.08,0,0,1-.08.08h0"/><path class="cls-22" d="M57.75,21.06h-.39a.07.07,0,0,0-.07.06v.2a.07.07,0,0,0,.07.06h.39a.05.05,0,0,0,.07-.05h0v-.2a.07.07,0,0,0-.07-.06"/><path class="cls-19" d="M58.53,18h-.26a.08.08,0,0,0-.09.07h0v.26a.08.08,0,0,0,.08.08h0v.72h.31v-.72a.07.07,0,0,0,.07-.07h0v-.26a.07.07,0,0,0-.08-.08h0"/><path class="cls-22" d="M58.5,19.37h-.4a.07.07,0,0,1-.07-.06v-.2s0-.06.07-.06h.4a.06.06,0,0,1,.06.06v.2a.06.06,0,0,1-.06.06"/><path class="cls-19" d="M58.53,22.46h-.26a.08.08,0,0,1-.09-.07h0v-.26a.08.08,0,0,1,0-.05v-.75h.31v.75a.07.07,0,0,1,.07.07h0v.26a.09.09,0,0,1-.08.08h0"/><path class="cls-22" d="M58.5,21.06h-.4a.07.07,0,0,0-.07.06v.2a.07.07,0,0,0,.07.06h.4a.06.06,0,0,0,.06-.06h0v-.2a.06.06,0,0,0-.06-.06"/><path class="cls-19" d="M59.28,18H59a.08.08,0,0,0-.08.08h0v.26a.08.08,0,0,0,.08.08h0v.72h.31v-.72a.07.07,0,0,0,.07-.07h0v-.26a.07.07,0,0,0-.08-.08h0"/><path class="cls-22" d="M59.24,19.37h-.39a.07.07,0,0,1-.07-.06v-.2a.06.06,0,0,1,.06-.06h.4a.05.05,0,0,1,.07.05h0v.2a.07.07,0,0,1-.07.06"/><path class="cls-19" d="M59.28,22.46H59a.07.07,0,0,1,0-.08v-.26a0,0,0,0,1,0-.05v-.75h.31v.75a.07.07,0,0,1,.07.07h0v.26a.08.08,0,0,1-.08.08h0"/><path class="cls-22" d="M59.24,21.06h-.39a.07.07,0,0,0-.07.06v.2a.06.06,0,0,0,0,.06h.41a.05.05,0,0,0,.07-.05h0v-.2a.07.07,0,0,0-.07-.06"/><path class="cls-19" d="M60,18h-.3a.08.08,0,0,0-.08.08h0v.26a.08.08,0,0,0,.07.08h0v.72H60v-.72a.07.07,0,0,0,.08-.08h0v-.26A.07.07,0,0,0,60,18h0"/><path class="cls-22" d="M60,19.37h-.41a.06.06,0,0,1-.06-.06v-.2a.05.05,0,0,1,.06-.06H60a.06.06,0,0,1,.06.06v.2a.06.06,0,0,1-.06.06"/><path class="cls-19" d="M60,22.46h-.3a.08.08,0,0,1-.08-.08h0v-.26s0-.06.07-.05v-.75H60v.75a.07.07,0,0,1,.08.08h0v.26a.08.08,0,0,1-.08.08h0"/><path class="cls-22" d="M60,21.06h-.41a.06.06,0,0,0-.06.06v.2a.05.05,0,0,0,0,.08H60a.06.06,0,0,0,.06-.06v-.22a.06.06,0,0,0-.06-.06"/><path class="cls-19" d="M60.77,18h-.3a.08.08,0,0,0-.08.08h0v.26a.08.08,0,0,0,.08.08h0v.72h.3v-.72a.07.07,0,0,0,.08-.08h0v-.26a.07.07,0,0,0-.08-.08h0"/><path class="cls-22" d="M60.73,19.37h-.39a.07.07,0,0,1-.07-.06v-.2a.06.06,0,0,1,.06-.06h.4a.05.05,0,0,1,.07.05h0v.2a.07.07,0,0,1-.07.06"/><path class="cls-19" d="M60.77,22.46h-.3a.08.08,0,0,1-.08-.08h0v-.26a.07.07,0,0,1,.08-.05v-.75h.3v.75a.07.07,0,0,1,.08.08h0v.26a.08.08,0,0,1-.08.08h0"/><path class="cls-22" d="M60.73,21.06h-.39a.07.07,0,0,0-.07.06v.2a.06.06,0,0,0,0,.06h.41a.05.05,0,0,0,.07-.05h0v-.2a.07.07,0,0,0-.07-.06"/><path class="cls-19" d="M61.56,18h-.33a.07.07,0,0,0-.07.08h0v.26a.07.07,0,0,0,.07.08h0v.72h.33v-.72a.08.08,0,0,0,.08-.07h0v-.26a.07.07,0,0,0-.08-.08"/><path class="cls-22" d="M61.5,19.37h-.4a.06.06,0,0,1-.06-.06v-.2a.06.06,0,0,1,.06-.06h.4a.05.05,0,0,1,.06.05h0v.2a.06.06,0,0,1-.06.06"/><path class="cls-19" d="M61.56,22.46h-.33a.07.07,0,0,1-.07-.08h0v-.26s0-.06.07-.05v-.75h.33v.75a.08.08,0,0,1,.08.07h0v.26a.08.08,0,0,1-.08.05"/><path class="cls-22" d="M61.5,21.06h-.4a.06.06,0,0,0-.06.06v.2a.06.06,0,0,0,.06.06h.4a.05.05,0,0,0,.06-.05s0,0,0,0v-.2a.06.06,0,0,0-.06-.06"/><path class="cls-19" d="M62.29,18H62a.07.07,0,0,0-.08.08h0v.26a.06.06,0,0,0,.06.08h0v.72h.31v-.72a.08.08,0,0,0,.08-.08h0v-.26a.08.08,0,0,0-.08-.08h0"/><path class="cls-22" d="M62.22,19.37h-.39a.07.07,0,0,1-.07-.06v-.2a.06.06,0,0,1,.06-.06h.4s.07,0,.07.06v.2a.07.07,0,0,1-.07.06"/><path class="cls-19" d="M62.29,22.46H62a.07.07,0,0,1-.08-.08h0v-.26s0-.06.07-.05v-.75h.31v.75a.08.08,0,0,1,.08.08h0v.26a.09.09,0,0,1-.08.08h0"/><path class="cls-22" d="M62.22,21.06h-.39a.07.07,0,0,0-.07.06v.2a.06.06,0,0,0,.05.06h.41a.07.07,0,0,0,.07-.06v-.2a.07.07,0,0,0-.07-.06"/><path class="cls-22" d="M46,19.21c0-.09.13-.16.28-.16s.27.07.27.16-.12.16-.27.16S46,19.3,46,19.21"/><path class="cls-22" d="M46,21.2c0-.1.13-.17.28-.17s.27.07.27.17-.12.16-.27.16S46,21.28,46,21.2"/><path class="cls-22" d="M63.38,19.21c0-.09.12-.16.28-.16s.27.07.27.16-.12.16-.27.16-.28-.07-.28-.16"/><path class="cls-22" d="M63.38,21.2c0-.1.12-.17.28-.17s.27.07.27.17-.12.16-.27.16-.28-.08-.28-.16"/><path class="cls-23" d="M64.1,18.12h-.17v-.54h-.21v-.13c.12,0,.23,0,.25-.16h.13Z"/><path class="cls-23" d="M63.68,22.54a.3.3,0,0,1,.3-.34.27.27,0,0,1,.29.26c0,.26-.27.28-.39.45h.39v.14h-.61c0-.19.12-.27.26-.37s.18-.1.18-.2a.13.13,0,0,0-.13-.13c-.1,0-.13.1-.13.19Z"/><path class="cls-23" d="M45.66,17.62c.07,0,.18,0,.18-.1a.11.11,0,0,0-.12-.11.13.13,0,0,0-.13.15h-.16a.28.28,0,0,1,.29-.29.26.26,0,0,1,.28.23.16.16,0,0,1-.12.17h0a.19.19,0,0,1,.15.19.31.31,0,0,1-.62,0h.16c0,.09,0,.17.15.17a.13.13,0,0,0,.13-.13c0-.13-.11-.13-.19-.13Z"/><path class="cls-23" d="M46.25,17.9a.12.12,0,0,0,.11.11c.13,0,.16-.16.16-.26h0a.22.22,0,0,1-.19.1.28.28,0,0,1-.19-.09.32.32,0,0,1-.07-.19.29.29,0,0,1,.3-.3c.25,0,.32.22.32.43s-.09.44-.33.44a.26.26,0,0,1-.27-.24Zm.26-.34a.14.14,0,0,0-.14-.15.14.14,0,0,0-.13.15c0,.08,0,.16.13.16A.14.14,0,0,0,46.51,17.56Z"/><path class="cls-23" d="M45.76,22.86h-.35v-.15l.36-.49h.15v.5H46v.14h-.11v.19h-.16Zm0-.43h0l-.22.29h.22Z"/><path class="cls-23" d="M46.38,22.2c.17,0,.31.11.31.43s-.14.44-.31.44-.31-.1-.31-.44S46.21,22.2,46.38,22.2Zm0,.73c.14,0,.14-.2.14-.3s0-.29-.14-.29-.14.21-.14.29S46.24,22.93,46.38,22.93Z"/></g></g></g></svg>