<svg xmlns="http://www.w3.org/2000/svg" viewBox="0 0 148.28 79.22"><defs><style>.cls-1{fill:#232323;}.cls-1,.cls-2,.cls-3,.cls-4,.cls-5,.cls-6{opacity:0.4;}.cls-2{fill:#e0ac52;}.cls-3,.cls-7{fill:#fff;}.cls-4{fill:#96908a;}.cls-5{fill:#c0b5ab;}.cls-6{fill:#dfe8e8;}.cls-8{fill:#ebf4fb;}.cls-9{fill:#333e49;}.cls-10{fill:#222630;}.cls-11{fill:#be8e3e;}.cls-12{fill:#b3b3b3;}.cls-13{fill:#7f8080;}.cls-14{fill:#333;}.cls-15{fill:#eb2627;}.cls-16{fill:#fdd407;}.cls-17{fill:#fed401;}.cls-18{isolation:isolate;}.cls-19{fill:#ee3224;}</style></defs><g id="Layer_2" data-name="Layer 2"><g id="Layer_1-2" data-name="Layer 1"><g id="_13004_Pinout" data-name="13004_Pinout"><path class="cls-1" d="M0,4.18V75.05H99.21V4.18ZM91.73,21.25a2.21,2.21,0,1,1,2.21,2.21h0A2.21,2.21,0,0,1,91.73,21.25ZM77.24,69.94a2.22,2.22,0,1,1,2.22,2.24,2.22,2.22,0,0,1-2.22-2.24ZM60.41,9.63a2.21,2.21,0,1,1,2.21,2.22,2.21,2.21,0,0,1-2.21-2.22ZM10.67,69.49a4,4,0,1,1,0,.05Zm-.15-59.41a4,4,0,1,1,4,4h0A4,4,0,0,1,10.52,10.08Z"/><path class="cls-2" d="M90.13,21.25a3.81,3.81,0,1,0,3.81-3.81h0a3.8,3.8,0,0,0-3.81,3.79Zm1.6,0a2.21,2.21,0,1,1,2.21,2.21h0A2.21,2.21,0,0,1,91.73,21.25Z"/><path class="cls-2" d="M58.47,9.63a4.15,4.15,0,1,0,4.16-4.14h0A4.15,4.15,0,0,0,58.47,9.63Zm1.94,0a2.21,2.21,0,1,1,2.21,2.22,2.21,2.21,0,0,1-2.21-2.22Z"/><path class="cls-2" d="M75.75,69.82A3.82,3.82,0,1,0,79.57,66h0A3.82,3.82,0,0,0,75.75,69.82Zm1.49.12a2.22,2.22,0,1,1,2.22,2.24,2.22,2.22,0,0,1-2.22-2.24Z"/><path class="cls-2" d="M7.31,10.08a7.25,7.25,0,1,0,11.44-5.9H10.36A7.22,7.22,0,0,0,7.31,10.08Zm3.21,0a4,4,0,1,1,4,4h0A4,4,0,0,1,10.52,10.08Z"/><path class="cls-2" d="M21.8,69.49a7.08,7.08,0,1,0-11.45,5.56h8.74A7.07,7.07,0,0,0,21.8,69.49Zm-3,0a4,4,0,1,1-4-4,4,4,0,0,1,4,4h0Z"/><polygon class="cls-3" points="63.48 23.93 63.48 24.92 62.55 24.92 62.55 23.93 59.8 23.93 59.8 24.92 58.87 24.92 58.87 23.93 56.4 23.93 56.4 24.92 55.42 24.92 55.42 30.11 66.87 30.11 66.87 24.92 66 24.92 66 23.93 63.48 23.93"/><path class="cls-3" d="M50.9,34h.5l.5,2.17h0L52.47,34H53l.53,2.14h0L54.05,34h.49l-.77,2.8h-.5l-.56-2.14h0l-.58,2.14h-.5Z"/><path class="cls-3" d="M54.82,34h.45v.42h-.45Zm0,.77h.45v2h-.45Z"/><path class="cls-3" d="M56.09,36.18c0,.26.22.35.46.35s.46,0,.45-.27-.34-.26-.67-.33-.65-.19-.65-.6.48-.58.85-.58a.77.77,0,0,1,.85.62h-.47c0-.22-.21-.27-.41-.27s-.37,0-.37.21.33.25.66.32.65.2.65.59-.48.66-.9.66-.89-.22-.9-.7Z"/><path class="cls-3" d="M57.82,34h1.32c.53,0,.89.17.89.69a.62.62,0,0,1-.38.59.68.68,0,0,1,.51.71c0,.57-.48.81-1,.81H57.82Zm.61,1.17h.63c.22,0,.37-.1.37-.33s-.2-.32-.42-.32h-.58Zm0,1.19h.66c.24,0,.46-.08.46-.37s-.18-.4-.45-.4h-.67Z"/><path class="cls-3" d="M60.57,34h.62v2.28h1.36v.52h-2Z"/><path class="cls-3" d="M64.15,33.94a1.47,1.47,0,1,1-1.38,1.55v-.07A1.37,1.37,0,0,1,64,33.94Zm0,2.42c.55,0,.76-.47.76-.94s-.21-1-.76-1-.76.47-.76,1S63.6,36.36,64.15,36.36Z"/><path class="cls-3" d="M67.81,35a.61.61,0,0,0-.62-.49c-.55,0-.76.47-.76,1s.21.94.76.94a.64.64,0,0,0,.64-.63h.6a1.19,1.19,0,0,1-1.23,1.15h0a1.47,1.47,0,1,1,0-2.94,1.12,1.12,0,0,1,1.21,1Z"/><path class="cls-3" d="M68.84,34h.62v1.17L70.55,34h.77l-1.1,1.11,1.2,1.69h-.77l-.84-1.26-.35.36v.9h-.62Z"/><path class="cls-3" d="M60.25,43.88a2.66,2.66,0,0,1,1.08.2,2.23,2.23,0,0,1,.82.53,2.21,2.21,0,0,1,.53.78,2.55,2.55,0,0,1,.18,1,2.71,2.71,0,0,1-.33,1.36,2.08,2.08,0,0,1-1.08.88h0a1.5,1.5,0,0,1,1,.8,1.86,1.86,0,0,1,.22.61,3.84,3.84,0,0,1,.09.68v1.08a3.78,3.78,0,0,0,.1.57,1.37,1.37,0,0,0,.21.46h-2a3.78,3.78,0,0,1-.2-1,8,8,0,0,0-.11-1.12,1.84,1.84,0,0,0-.43-1,1.42,1.42,0,0,0-1.06-.32h-2v3.48h-2V43.88Zm-.7,4a1.5,1.5,0,0,0,1-.3,1.25,1.25,0,0,0,.34-1,1.2,1.2,0,0,0-.34-.95,1.49,1.49,0,0,0-1-.29H57.4v2.51Z"/><path class="cls-3" d="M69.31,43.88l3.34,8.92h-2l-.67-2H66.6l-.69,2h-2l3.39-8.92Zm.12,5.47L68.3,46.08h0l-1.16,3.27Z"/><polygon class="cls-3" points="75.5 43.88 75.5 47.58 78.98 43.88 81.43 43.88 77.94 47.41 81.76 52.8 79.31 52.8 76.62 48.79 75.5 49.93 75.5 52.8 73.54 52.8 73.54 43.88 75.5 43.88"/><path class="cls-3" d="M47,43.78a4,4,0,0,1,1.59.27h0s.35.16.29.83a.91.91,0,0,1-.94.87h-3v-1.2a1.5,1.5,0,0,0-.09-.52,10.64,10.64,0,0,1,1.86-.32H47"/><path class="cls-3" d="M47.35,41.49h.59c.34,0,.77,0,.91.31a1.06,1.06,0,0,1,.11.8.9.9,0,0,1-.26.5,1,1,0,0,1-.18.17A5.22,5.22,0,0,0,47,43.1h-.43a10,10,0,0,0-2.1.4,1.86,1.86,0,0,0-.47-.32l-.27-.08a5.37,5.37,0,0,1,1.88-1.28,4.93,4.93,0,0,1,1.78-.33"/><path class="cls-3" d="M47,39h.24c1.38.07,1.57.26,1.58,1a1.22,1.22,0,0,1-.51.88h-.79a5.61,5.61,0,0,0-1.63.21,6.09,6.09,0,0,0-2.27,1.28c-.37.33-.73.73-.87.88a1.2,1.2,0,0,0-.42.25l-.12.12a1.32,1.32,0,0,0-.47-.34,1.43,1.43,0,0,0-.61-.14,6.9,6.9,0,0,1,1.8-2.53A6.65,6.65,0,0,1,47,39h0"/><path class="cls-3" d="M48.6,46.34a9.45,9.45,0,0,1,.32,1.84A4.38,4.38,0,0,1,48.66,50h0s-.13.29-.65.29h-.17a.92.92,0,0,1-.88-.94v-3h1.19a2.27,2.27,0,0,0,.52-.09"/><path class="cls-3" d="M49.6,45.18a5.62,5.62,0,0,1,1.28,1.87,5,5,0,0,1,.32,2.13v.24c0,.34-.05.77-.31.91a1.34,1.34,0,0,1-.53.14H50.1a1.08,1.08,0,0,1-.51-.26L49.42,50a5.87,5.87,0,0,0,.17-1.91A10.65,10.65,0,0,0,49.2,46a2.1,2.1,0,0,0,.31-.54,1.71,1.71,0,0,0,.09-.3"/><path class="cls-3" d="M49.67,42.55a6.81,6.81,0,0,1,2.53,1.81,6.5,6.5,0,0,1,1.55,4.3c-.07,1.38-.26,1.57-1,1.58a1.22,1.22,0,0,1-.87-.51,7,7,0,0,0-.18-2.42A6.15,6.15,0,0,0,50.42,45c-.35-.38-.75-.75-.88-.87a1.27,1.27,0,0,0-.25-.42l-.12-.12a1.94,1.94,0,0,0,.34-.47,1.64,1.64,0,0,0,.14-.61"/><path class="cls-3" d="M46.26,48.35v1.2a1.91,1.91,0,0,0,.1.52,9.78,9.78,0,0,1-1.86.32h-.26a4.23,4.23,0,0,1-1.58-.21h0s-.35-.17-.29-.83a.91.91,0,0,1,.94-.87h.14l2.09,0h.75"/><path class="cls-3" d="M46.75,50.67a2.33,2.33,0,0,0,.55.32l.28.08a6,6,0,0,1-1.88,1.28,5,5,0,0,1-1.79.33h-.58c-.34,0-.77-.06-.91-.32a1,1,0,0,1-.11-.79.9.9,0,0,1,.26-.51l.18-.17a5.68,5.68,0,0,0,1.48.2h.43a9.9,9.9,0,0,0,2.09-.4"/><path class="cls-3" d="M49.08,50.66a1.61,1.61,0,0,0,1.09.48,7,7,0,0,1-1.8,2.53,6.68,6.68,0,0,1-4.07,1.56h-.24c-1.38-.07-1.57-.26-1.58-1a1.26,1.26,0,0,1,.51-.88h.79a5.26,5.26,0,0,0,1.63-.17,5.89,5.89,0,0,0,2.27-1.28,10.31,10.31,0,0,0,.87-.88,1.22,1.22,0,0,0,.45-.24l.12-.12"/><path class="cls-3" d="M43.27,43.81h.17a.91.91,0,0,1,.87.94v3H43.1a1.54,1.54,0,0,0-.52.09A10.64,10.64,0,0,1,42.26,46a4.19,4.19,0,0,1,.34-1.82h0s.13-.29.65-.29"/><path class="cls-3" d="M40.9,43.75h.26a1,1,0,0,1,.51.25l.17.18a5.61,5.61,0,0,0-.18,2,10.11,10.11,0,0,0,.4,2.1,1.64,1.64,0,0,0-.32.54,1.31,1.31,0,0,0-.09.28,6,6,0,0,1-1.28-1.92,5.34,5.34,0,0,1-.32-2.13V44.8c0-.34,0-.77.31-.9a1.08,1.08,0,0,1,.53-.14"/><path class="cls-3" d="M38.49,44a1.23,1.23,0,0,1,.87.52,6.59,6.59,0,0,0,.18,2.42,6.17,6.17,0,0,0,1.28,2.29c.28.3.57.59.88.87a1.51,1.51,0,0,0,.25.42.57.57,0,0,0,.11.11,1.82,1.82,0,0,0-.34.48,1.6,1.6,0,0,0-.14.61,7.13,7.13,0,0,1-2.53-1.81,6.6,6.6,0,0,1-1.54-4.31c.06-1.38.25-1.58,1-1.58h0"/><path class="cls-3" d="M43.81,58.28h-.56L42.91,57h0l-.33,1.32H42l-.62-2H42l.36,1.33h0l.33-1.33h.52l.33,1.32h0l.36-1.32h.55Z"/><path class="cls-3" d="M46.89,58.28h-.55L46,57h0l-.33,1.32h-.56l-.62-2H45l.36,1.33h0l.32-1.33h.53l.33,1.32h0L47,56.32h.55Z"/><path class="cls-3" d="M50,58.28h-.55L49.1,57h0l-.33,1.32h-.56l-.62-2h.57l.36,1.33h0l.32-1.33h.52l.34,1.32h0l.3-1.28h.56Z"/><path class="cls-3" d="M50.44,57.69H51v.59h-.59Z"/><path class="cls-3" d="M51.48,55.23H53.1A.83.83,0,0,1,54,56v.07a.74.74,0,0,1-.48.75h0c.32.09.42.4.44.71a1.59,1.59,0,0,0,.12.71h-.66a3.57,3.57,0,0,1-.1-.72c-.05-.32-.17-.46-.51-.46h-.66v1.18h-.66Zm.66,1.36h.73c.3,0,.45-.13.45-.43s-.15-.42-.45-.42h-.73Z"/><path class="cls-3" d="M55.35,55.23H56l1.13,3h-.69l-.23-.67H55.12l-.24.67h-.67Zm-.06,1.84h.78L55.69,56h0Z"/><path class="cls-3" d="M57.43,55.23h.66v1.25l1.17-1.25h.83l-1.18,1.19,1.3,1.82h-.84l-.9-1.36-.38.39v1h-.66Z"/><path class="cls-3" d="M63.13,58.24h-.62l-.39-1.46h0l-.37,1.46h-.62l-.69-2.18h.63l.4,1.48h0l.37-1.48h.58l.37,1.47h0l.4-1.47h.61Z"/><path class="cls-3" d="M64.69,55.72h-.6v-.49h.6Zm-.6.34h.6v2.18h-.6Z"/><path class="cls-3" d="M65,56.06h.57v.4h0a.77.77,0,0,1,.7-.46h.13v.56a.81.81,0,0,0-.22,0c-.44,0-.59.31-.59.7v1H65Z"/><path class="cls-3" d="M67.18,57.24a.48.48,0,0,0,.54.55.5.5,0,0,0,.47-.28h.53a1,1,0,0,1-1,.73,1.06,1.06,0,0,1-1.11-1,.66.66,0,0,1,0-.14,1.1,1.1,0,1,1,2.19-.18,1.22,1.22,0,0,1,0,.33Zm1-.38c-.06-.31-.19-.47-.48-.47a.48.48,0,0,0-.5.46h1Z"/><path class="cls-3" d="M69.19,55.23h.6v3h-.6Z"/><path class="cls-3" d="M70.71,57.24a.48.48,0,0,0,.54.55.5.5,0,0,0,.47-.28h.53a1,1,0,0,1-1,.73,1.06,1.06,0,0,1-1.11-1,.66.66,0,0,1,0-.14,1.1,1.1,0,1,1,2.19-.18,1.22,1.22,0,0,1,0,.33Zm1-.38c-.06-.31-.19-.47-.48-.47a.48.48,0,0,0-.5.46h1Z"/><path class="cls-3" d="M73.05,57.47c0,.26.22.37.46.37s.39-.07.39-.28-.25-.25-.68-.34-.69-.19-.69-.58c0-.56.48-.7,1-.7s.91.16,1,.7H74c0-.24-.2-.3-.41-.3s-.33,0-.33.2.34.25.68.33.69.2.69.61c0,.57-.5.76-1,.76s-1-.19-1-.77Z"/><path class="cls-3" d="M75.48,57.47c0,.26.23.37.46.37s.4-.07.4-.28-.26-.25-.68-.34S75,57,75,56.64c0-.56.49-.7,1-.7s.92.16,1,.7h-.57c0-.24-.2-.3-.41-.3s-.34,0-.34.2.35.25.68.33.69.2.69.61c0,.57-.5.76-1,.76s-1-.19-1-.77Z"/><path class="cls-3" d="M79.8,57.05a.36.36,0,0,0-.4-.34h0c-.35,0-.46.35-.46.64s.11.63.45.63a.42.42,0,0,0,.44-.4h.53a.9.9,0,0,1-1,.82h0a1,1,0,0,1-.08-2.08h.08a.84.84,0,0,1,.94.75h0Z"/><path class="cls-3" d="M81.63,56.29a1,1,0,0,1,1,1.15,1,1,0,1,1-1-1.15Zm0,1.69c.38,0,.49-.31.49-.63s-.11-.64-.49-.64-.48.32-.48.64S81.26,58,81.63,58Z"/><path class="cls-3" d="M83,56.35h.52v.27h0a.69.69,0,0,1,.61-.33.6.6,0,0,1,.58.33.72.72,0,0,1,.61-.33.65.65,0,0,1,.73.56.43.43,0,0,1,0,.16v1.33H85.5V57.18c0-.26,0-.49-.34-.49s-.37.26-.37.51v1.11h-.55V57.18c0-.23,0-.5-.33-.5-.11,0-.37.07-.37.46V58.3H83Z"/><circle class="cls-3" cx="95.37" cy="5.69" r="0.69"/><circle class="cls-4" cx="5.35" cy="49.05" r="2.17"/><circle class="cls-5" cx="5.35" cy="49.05" r="1.61"/><rect class="cls-2" x="4.62" y="48.33" width="1.46" height="1.46" rx="0.23"/><circle class="cls-4" cx="12.43" cy="49.05" r="2.17"/><circle class="cls-5" cx="12.43" cy="49.05" r="1.61"/><rect class="cls-2" x="11.7" y="48.33" width="1.46" height="1.46" rx="0.23"/><circle class="cls-4" cx="19.88" cy="49.05" r="2.17"/><circle class="cls-5" cx="19.88" cy="49.05" r="1.61"/><rect class="cls-2" x="19.15" y="48.33" width="1.46" height="1.46" rx="0.23"/><circle class="cls-4" cx="27.11" cy="49.05" r="2.17"/><circle class="cls-5" cx="27.11" cy="49.05" r="1.61"/><rect class="cls-2" x="26.38" y="48.33" width="1.46" height="1.46" rx="0.23"/><circle class="cls-4" cx="34.45" cy="49.05" r="2.17"/><circle class="cls-5" cx="34.45" cy="49.05" r="1.61"/><rect class="cls-2" x="33.72" y="48.33" width="1.46" height="1.46" rx="0.23"/><circle class="cls-4" cx="12.43" cy="56.49" r="2.17"/><circle class="cls-5" cx="12.43" cy="56.49" r="1.61"/><rect class="cls-2" x="11.7" y="55.76" width="1.46" height="1.46" rx="0.23"/><circle class="cls-4" cx="19.88" cy="56.49" r="2.17"/><circle class="cls-5" cx="19.88" cy="56.49" r="1.61"/><rect class="cls-2" x="19.15" y="55.76" width="1.46" height="1.46" rx="0.23"/><circle class="cls-4" cx="27.11" cy="56.49" r="2.17"/><circle class="cls-5" cx="27.11" cy="56.49" r="1.61"/><rect class="cls-2" x="26.38" y="55.76" width="1.46" height="1.46" rx="0.23"/><circle class="cls-4" cx="34.45" cy="56.49" r="2.17"/><circle class="cls-5" cx="34.45" cy="56.49" r="1.61"/><rect class="cls-2" x="33.72" y="55.76" width="1.46" height="1.46" rx="0.23"/><circle class="cls-4" cx="5.26" cy="22.42" r="2.17"/><circle class="cls-5" cx="5.26" cy="22.42" r="1.61"/><rect class="cls-2" x="4.53" y="21.69" width="1.46" height="1.46" rx="0.23"/><circle class="cls-4" cx="12.35" cy="22.42" r="2.17"/><circle class="cls-5" cx="12.35" cy="22.42" r="1.61"/><rect class="cls-2" x="11.62" y="21.69" width="1.46" height="1.46" rx="0.23"/><circle class="cls-4" cx="19.8" cy="22.42" r="2.17"/><circle class="cls-5" cx="19.8" cy="22.42" r="1.61"/><rect class="cls-2" x="19.07" y="21.69" width="1.46" height="1.46" rx="0.23"/><circle class="cls-4" cx="27.03" cy="22.42" r="2.17"/><circle class="cls-5" cx="27.03" cy="22.42" r="1.61"/><rect class="cls-2" x="26.3" y="21.69" width="1.46" height="1.46" rx="0.23"/><circle class="cls-4" cx="34.37" cy="22.42" r="2.17"/><circle class="cls-5" cx="34.37" cy="22.42" r="1.61"/><rect class="cls-2" x="33.64" y="21.69" width="1.46" height="1.46" rx="0.23"/><circle class="cls-4" cx="12.35" cy="29.86" r="2.17"/><circle class="cls-5" cx="12.35" cy="29.86" r="1.61"/><rect class="cls-2" x="11.62" y="29.13" width="1.46" height="1.46" rx="0.23"/><circle class="cls-4" cx="19.8" cy="29.86" r="2.17"/><circle class="cls-5" cx="19.8" cy="29.86" r="1.61"/><rect class="cls-2" x="19.07" y="29.13" width="1.46" height="1.46" rx="0.23"/><circle class="cls-4" cx="27.03" cy="29.86" r="2.17"/><circle class="cls-5" cx="27.03" cy="29.86" r="1.61"/><rect class="cls-2" x="26.3" y="29.13" width="1.46" height="1.46" rx="0.23"/><circle class="cls-4" cx="34.37" cy="29.86" r="2.17"/><circle class="cls-5" cx="34.37" cy="29.86" r="1.61"/><rect class="cls-2" x="33.64" y="29.13" width="1.46" height="1.46" rx="0.23"/><rect class="cls-4" x="2.97" y="27.56" width="4.59" height="4.59"/><rect class="cls-5" x="3.3" y="27.9" width="3.93" height="3.93" rx="0.17"/><rect class="cls-6" x="4.61" y="29.2" width="1.31" height="1.31" rx="0.19"/><rect class="cls-4" x="3.05" y="54.2" width="4.59" height="4.59"/><rect class="cls-5" x="3.38" y="54.53" width="3.93" height="3.93" rx="0.17"/><rect class="cls-6" x="4.69" y="55.84" width="1.31" height="1.31" rx="0.19"/><path class="cls-7" d="M71.53,13.65H69.14a.42.42,0,0,1-.42-.42V7.18a.42.42,0,0,1,.42-.42h2.39a.25.25,0,0,1,.25.25.25.25,0,0,1-.25.25H69.22v5.92h2.31a.25.25,0,0,1,.25.25A.27.27,0,0,1,71.53,13.65Z"/><path class="cls-7" d="M95.94,13.65h2.38a.42.42,0,0,0,.42-.42V7.18a.42.42,0,0,0-.42-.42H95.94a.25.25,0,0,0,0,.5h2.3v5.92h-2.3a.25.25,0,0,0-.25.25A.26.26,0,0,0,95.94,13.65Z"/><path class="cls-8" d="M70.67,12.68h-.24a.4.4,0,0,1-.4-.4h0V8.08a.4.4,0,0,1,.4-.4h.24a.39.39,0,0,1,.39.4v4.2a.41.41,0,0,1-.39.4"/><path class="cls-8" d="M96.89,12.68h-.24a.39.39,0,0,1-.39-.39h0V8.08a.38.38,0,0,1,.38-.4h.25a.4.4,0,0,1,.4.4h0v4.2a.4.4,0,0,1-.4.4h0"/><path class="cls-9" d="M97.54,9V8.6a.41.41,0,0,0-.4-.4h-.82a.41.41,0,0,0-.37.25H71.33A.39.39,0,0,0,71,8.18h-.82a.4.4,0,0,0-.4.4h0V9a.38.38,0,0,0,.22.39V11a.39.39,0,0,0-.28.38v.4a.4.4,0,0,0,.4.4H71a.4.4,0,0,0,.37-.27H96a.4.4,0,0,0,.37.27h.82a.4.4,0,0,0,.4-.4h0v-.4a.39.39,0,0,0-.25-.37V9.37A.41.41,0,0,0,97.54,9Z"/><path class="cls-10" d="M95.35,11.53H71.88c-.18,0-.32-.09-.32-.21V9.1c0-.11.14-.2.32-.2H95.35c.18,0,.33.09.33.2v2.22c0,.12-.15.21-.33.21"/><path class="cls-8" d="M73.06,6.82H72.6a.12.12,0,0,0-.12.12h0v.41a.14.14,0,0,0,.12.12V8.54h.46V7.47a.14.14,0,0,0,.12-.12V6.94a.12.12,0,0,0-.12-.12"/><path class="cls-11" d="M73,8.94h-.6a.1.1,0,0,1-.1-.08V8.55a.09.09,0,0,1,.1-.1H73a.09.09,0,0,1,.1.1v.29a.09.09,0,0,1-.08.1h0"/><path class="cls-8" d="M73.06,13.61H72.6a.12.12,0,0,1-.12-.12h0v-.41A.12.12,0,0,1,72.6,13V11.88h.46V13a.12.12,0,0,1,.12.12v.41a.14.14,0,0,1-.12.12"/><path class="cls-11" d="M73,11.49h-.6a.09.09,0,0,0-.1.08v.31a.1.1,0,0,0,.1.1H73a.1.1,0,0,0,.1-.1v-.29a.08.08,0,0,0-.08-.1h0"/><path class="cls-8" d="M74.17,6.82h-.46a.12.12,0,0,0-.12.12h0v.41a.13.13,0,0,0,.11.12V8.54h.47V7.47a.14.14,0,0,0,.12-.12V6.94a.12.12,0,0,0-.12-.12"/><path class="cls-11" d="M74.11,8.94h-.6a.1.1,0,0,1-.1-.08V8.55a.09.09,0,0,1,.1-.1h.6a.09.09,0,0,1,.1.1v.29a.09.09,0,0,1-.08.1h0"/><path class="cls-8" d="M74.17,13.61h-.46a.12.12,0,0,1-.12-.12h0v-.41A.13.13,0,0,1,73.7,13V11.88h.47V13a.12.12,0,0,1,.12.12v.41a.14.14,0,0,1-.12.12"/><path class="cls-11" d="M74.11,11.49h-.6a.09.09,0,0,0-.1.08v.31a.1.1,0,0,0,.1.1h.6a.1.1,0,0,0,.1-.1v-.29a.08.08,0,0,0-.08-.1h0"/><path class="cls-8" d="M75.34,6.82h-.45a.13.13,0,0,0-.13.12v.41a.15.15,0,0,0,.12.12V8.54h.47V7.47a.15.15,0,0,0,.12-.12V6.94a.13.13,0,0,0-.13-.12"/><path class="cls-11" d="M75.29,8.94h-.61a.1.1,0,0,1-.1-.1V8.55a.1.1,0,0,1,.1-.1h.61a.1.1,0,0,1,.09.1v.29a.09.09,0,0,1-.08.1h0"/><path class="cls-8" d="M75.34,13.61h-.45a.14.14,0,0,1-.13-.12v-.41a.14.14,0,0,1,.12-.12V11.88h.47V13a.14.14,0,0,1,.12.12v.41a.14.14,0,0,1-.13.12"/><path class="cls-11" d="M75.29,11.49h-.61a.09.09,0,0,0-.1.1v.29a.12.12,0,0,0,.1.1h.61a.11.11,0,0,0,.09-.1v-.29a.08.08,0,0,0-.08-.1h0"/><path class="cls-8" d="M76.49,6.82H76a.13.13,0,0,0-.13.12v.41a.15.15,0,0,0,.12.12V8.54h.47V7.47a.13.13,0,0,0,.11-.12V6.94a.12.12,0,0,0-.12-.12h0"/><path class="cls-11" d="M76.44,8.94h-.61a.1.1,0,0,1-.1-.1V8.55a.1.1,0,0,1,.1-.1h.61a.1.1,0,0,1,.09.1v.29a.09.09,0,0,1-.08.1h0"/><path class="cls-8" d="M76.49,13.61H76a.14.14,0,0,1-.13-.12v-.41A.13.13,0,0,1,76,13V11.88h.47V13a.13.13,0,0,1,.11.12v.41a.12.12,0,0,1-.12.12h0"/><path class="cls-11" d="M76.44,11.49h-.61a.09.09,0,0,0-.1.1v.29a.12.12,0,0,0,.1.1h.61a.11.11,0,0,0,.09-.1v-.29a.08.08,0,0,0-.08-.1h0"/><path class="cls-8" d="M77.61,6.82h-.45a.13.13,0,0,0-.13.12v.41a.15.15,0,0,0,.12.12V8.54h.47V7.47a.13.13,0,0,0,.11-.12V6.94a.12.12,0,0,0-.12-.12h0"/><path class="cls-11" d="M77.56,8.94H77a.1.1,0,0,1-.1-.1V8.55a.1.1,0,0,1,.1-.1h.61a.1.1,0,0,1,.09.1v.29a.09.09,0,0,1-.08.1h0"/><path class="cls-8" d="M77.61,13.61h-.45a.14.14,0,0,1-.16-.1v-.43a.14.14,0,0,1,.12-.12V11.88h.47V13a.13.13,0,0,1,.11.12v.41a.12.12,0,0,1-.12.12h0"/><path class="cls-11" d="M77.56,11.49H77a.09.09,0,0,0-.1.1v.29a.12.12,0,0,0,.1.1h.61a.11.11,0,0,0,.09-.1v-.29a.08.08,0,0,0-.08-.1h0"/><path class="cls-8" d="M78.72,6.82h-.45a.13.13,0,0,0-.13.12v.41a.14.14,0,0,0,.12.12V8.54h.47V7.47a.13.13,0,0,0,.11-.12V6.94a.12.12,0,0,0-.12-.12h0"/><path class="cls-11" d="M78.67,8.94h-.61a.1.1,0,0,1-.1-.1V8.55a.1.1,0,0,1,.1-.1h.61a.1.1,0,0,1,.09.1v.29a.09.09,0,0,1-.08.1h0"/><path class="cls-8" d="M78.72,13.61h-.45a.14.14,0,0,1-.13-.12v-.41a.12.12,0,0,1,.12-.12V11.88h.47V13a.13.13,0,0,1,.11.12v.41a.12.12,0,0,1-.12.12h0"/><path class="cls-11" d="M78.67,11.49h-.61a.09.09,0,0,0-.1.1v.29a.12.12,0,0,0,.1.1h.61a.11.11,0,0,0,.09-.1v-.29a.08.08,0,0,0-.08-.1h0"/><path class="cls-8" d="M79.84,6.82h-.45a.12.12,0,0,0-.12.12h0v.41a.13.13,0,0,0,.11.12V8.54h.47V7.47A.13.13,0,0,0,80,7.36h0V6.94a.13.13,0,0,0-.13-.12"/><path class="cls-11" d="M79.79,8.94h-.61a.09.09,0,0,1-.09-.09h0V8.55a.1.1,0,0,1,.09-.1h.61a.1.1,0,0,1,.1.1v.29a.1.1,0,0,1-.1.1"/><path class="cls-8" d="M79.84,13.61h-.45a.12.12,0,0,1-.12-.12h0v-.41a.13.13,0,0,1,.11-.12V11.88h.47V13a.13.13,0,0,1,.15.11h0v.41a.14.14,0,0,1-.13.12"/><path class="cls-11" d="M79.79,11.49h-.61a.09.09,0,0,0-.09.09h0v.29a.11.11,0,0,0,.09.1h.61a.12.12,0,0,0,.1-.1v-.29a.09.09,0,0,0-.1-.1"/><path class="cls-8" d="M81,6.82h-.46a.12.12,0,0,0-.12.12v.41a.14.14,0,0,0,.12.12V8.54H81V7.47a.13.13,0,0,0,.11-.12V6.94A.11.11,0,0,0,81,6.82"/><path class="cls-11" d="M80.92,8.94h-.6a.1.1,0,0,1-.1-.1V8.55a.1.1,0,0,1,.1-.1h.6a.09.09,0,0,1,.1.1v.29a.09.09,0,0,1-.08.1h0"/><path class="cls-8" d="M81,13.61h-.46a.14.14,0,0,1-.12-.12v-.41a.12.12,0,0,1,.12-.12V11.88H81V13a.13.13,0,0,1,.11.12v.41a.12.12,0,0,1-.12.12h0"/><path class="cls-11" d="M80.92,11.49h-.6a.09.09,0,0,0-.1.1v.29a.12.12,0,0,0,.1.1h.6a.1.1,0,0,0,.1-.1v-.29a.08.08,0,0,0-.08-.1h0"/><path class="cls-8" d="M82.12,6.82h-.46a.12.12,0,0,0-.12.12h0v.41a.13.13,0,0,0,.11.12V8.54h.47V7.47a.14.14,0,0,0,.12-.12V6.94a.12.12,0,0,0-.12-.12"/><path class="cls-11" d="M82.06,8.94h-.6a.1.1,0,0,1-.1-.08V8.55a.09.09,0,0,1,.1-.1h.6a.1.1,0,0,1,.1.1v.29a.1.1,0,0,1-.1.1"/><path class="cls-8" d="M82.12,13.61h-.46a.12.12,0,0,1-.12-.12h0v-.41a.13.13,0,0,1,.11-.12V11.88h.47V13a.12.12,0,0,1,.12.12v.41a.14.14,0,0,1-.12.12"/><path class="cls-11" d="M82.06,11.49h-.6a.09.09,0,0,0-.1.08v.31a.1.1,0,0,0,.1.1h.6a.12.12,0,0,0,.1-.1v-.29a.09.09,0,0,0-.1-.1"/><path class="cls-8" d="M83.24,6.82h-.46a.12.12,0,0,0-.12.12v.41a.14.14,0,0,0,.12.12V8.54h.47V7.47a.13.13,0,0,0,.11-.12V6.94a.12.12,0,0,0-.12-.12h0"/><path class="cls-11" d="M83.18,8.94h-.6a.1.1,0,0,1-.1-.08V8.55a.09.09,0,0,1,.1-.1h.6a.09.09,0,0,1,.1.1v.29a.09.09,0,0,1-.08.1h0"/><path class="cls-8" d="M83.24,13.61h-.46a.14.14,0,0,1-.12-.12v-.41a.12.12,0,0,1,.12-.12V11.88h.47V13a.13.13,0,0,1,.11.12v.41a.12.12,0,0,1-.12.12h0"/><path class="cls-11" d="M83.18,11.49h-.6a.09.09,0,0,0-.1.08v.31a.1.1,0,0,0,.1.1h.6a.1.1,0,0,0,.1-.1v-.29a.08.08,0,0,0-.08-.1h0"/><path class="cls-8" d="M84.4,6.82H84a.13.13,0,0,0-.13.12v.41a.15.15,0,0,0,.12.12V8.54h.47V7.47a.13.13,0,0,0,.11-.12V6.94a.12.12,0,0,0-.12-.12h0"/><path class="cls-11" d="M84.35,8.94h-.61a.1.1,0,0,1-.1-.1V8.55a.1.1,0,0,1,.1-.1h.61a.1.1,0,0,1,.09.1v.29a.09.09,0,0,1-.08.1h0"/><path class="cls-8" d="M84.4,13.61H84a.14.14,0,0,1-.13-.12v-.41A.14.14,0,0,1,84,13V11.88h.47V13a.13.13,0,0,1,.11.12v.41a.12.12,0,0,1-.12.12h0"/><path class="cls-11" d="M84.35,11.49h-.61a.09.09,0,0,0-.1.1v.29a.12.12,0,0,0,.1.1h.61a.11.11,0,0,0,.09-.1v-.29a.08.08,0,0,0-.08-.1h0"/><path class="cls-8" d="M85.54,6.82h-.46a.12.12,0,0,0-.12.12v.41a.14.14,0,0,0,.12.12V8.54h.46V7.47a.14.14,0,0,0,.12-.12V6.94a.12.12,0,0,0-.12-.12h0"/><path class="cls-11" d="M85.48,8.94h-.6a.1.1,0,0,1-.1-.08V8.55a.09.09,0,0,1,.1-.1h.6a.09.09,0,0,1,.1.1v.29a.09.09,0,0,1-.08.1h0"/><path class="cls-8" d="M85.54,13.61h-.46a.13.13,0,0,1-.08-.12v-.41a.12.12,0,0,1,.12-.12V11.88h.46V13a.12.12,0,0,1,.12.12v.41a.12.12,0,0,1-.12.12h0"/><path class="cls-11" d="M85.48,11.49h-.6a.09.09,0,0,0-.1.08v.31a.1.1,0,0,0,.1.1h.6a.1.1,0,0,0,.1-.1v-.29a.08.08,0,0,0-.08-.1h0"/><path class="cls-8" d="M86.77,6.82h-.45a.12.12,0,0,0-.12.12h0v.41a.13.13,0,0,0,.11.12V8.54h.47V7.47a.15.15,0,0,0,.12-.12V6.94a.13.13,0,0,0-.13-.12"/><path class="cls-11" d="M86.72,8.94h-.61A.09.09,0,0,1,86,8.85h0V8.55a.1.1,0,0,1,.09-.1h.61a.1.1,0,0,1,.09.1v.29a.09.09,0,0,1-.08.1h0"/><path class="cls-8" d="M86.77,13.61h-.45a.12.12,0,0,1-.12-.12h0v-.41a.13.13,0,0,1,.11-.12V11.88h.47V13a.14.14,0,0,1,.12.12v.41a.14.14,0,0,1-.13.12"/><path class="cls-11" d="M86.72,11.49h-.61a.09.09,0,0,0-.09.09h0v.29a.11.11,0,0,0,.09.1h.61a.11.11,0,0,0,.09-.1v-.29a.08.08,0,0,0-.08-.1h0"/><path class="cls-8" d="M87.88,6.82h-.45a.12.12,0,0,0-.12.12h0v.41a.13.13,0,0,0,.11.12V8.54h.47V7.47A.15.15,0,0,0,88,7.35V6.94a.13.13,0,0,0-.13-.12"/><path class="cls-11" d="M87.83,8.94h-.61a.09.09,0,0,1-.09-.09h0V8.55a.1.1,0,0,1,.09-.1h.61a.1.1,0,0,1,.09.1v.29a.09.09,0,0,1-.08.1h0"/><path class="cls-8" d="M87.88,13.61h-.45a.12.12,0,0,1-.12-.12h0v-.41a.13.13,0,0,1,.11-.12V11.88h.47V13a.14.14,0,0,1,.11.12v.41a.14.14,0,0,1-.13.12"/><path class="cls-11" d="M87.83,11.49h-.61a.09.09,0,0,0-.09.09h0v.29a.11.11,0,0,0,.09.1h.61a.11.11,0,0,0,.09-.1v-.29a.08.08,0,0,0-.08-.1h0"/><path class="cls-8" d="M89,6.82h-.46a.12.12,0,0,0-.12.12h0v.41a.13.13,0,0,0,.11.12V8.54H89V7.47a.14.14,0,0,0,.12-.12V6.94A.12.12,0,0,0,89,6.82"/><path class="cls-11" d="M89,8.94h-.6a.1.1,0,0,1-.1-.08V8.55a.09.09,0,0,1,.1-.1H89a.1.1,0,0,1,.1.1v.29a.1.1,0,0,1-.1.1"/><path class="cls-8" d="M89,13.61h-.46a.12.12,0,0,1-.12-.12h0v-.41a.13.13,0,0,1,.11-.12V11.88H89V13a.12.12,0,0,1,.12.12v.41a.14.14,0,0,1-.12.12"/><path class="cls-11" d="M89,11.49h-.6a.09.09,0,0,0-.1.08v.31a.1.1,0,0,0,.1.1H89a.12.12,0,0,0,.1-.1v-.29a.09.09,0,0,0-.1-.1"/><path class="cls-8" d="M90.14,6.82h-.45a.13.13,0,0,0-.13.12v.41a.15.15,0,0,0,.12.12V8.54h.47V7.47a.13.13,0,0,0,.11-.12V6.94a.12.12,0,0,0-.12-.12h0"/><path class="cls-11" d="M90.09,8.94h-.61a.1.1,0,0,1-.1-.1V8.55a.1.1,0,0,1,.1-.1h.61a.1.1,0,0,1,.09.1v.29a.09.09,0,0,1-.08.1h0"/><path class="cls-8" d="M90.14,13.61h-.45a.14.14,0,0,1-.13-.12v-.41a.14.14,0,0,1,.12-.12V11.88h.47V13a.13.13,0,0,1,.11.12v.41a.12.12,0,0,1-.12.12h0"/><path class="cls-11" d="M90.09,11.49h-.61a.09.09,0,0,0-.1.1v.29a.12.12,0,0,0,.1.1h.61a.11.11,0,0,0,.09-.1v-.29a.08.08,0,0,0-.08-.1h0"/><path class="cls-8" d="M91.28,6.82h-.46a.12.12,0,0,0-.12.12v.41a.14.14,0,0,0,.12.12V8.54h.46V7.47a.14.14,0,0,0,.12-.12V6.94a.12.12,0,0,0-.12-.12h0"/><path class="cls-11" d="M91.22,8.94h-.6a.1.1,0,0,1-.1-.08V8.55a.09.09,0,0,1,.1-.1h.6a.09.09,0,0,1,.1.1v.29a.09.09,0,0,1-.08.1h0"/><path class="cls-8" d="M91.28,13.61h-.46a.14.14,0,0,1-.12-.12v-.41a.12.12,0,0,1,.12-.12V11.88h.46V13a.12.12,0,0,1,.12.12v.41a.12.12,0,0,1-.12.12h0"/><path class="cls-11" d="M91.22,11.49h-.6a.09.09,0,0,0-.1.08v.31a.1.1,0,0,0,.1.1h.6a.1.1,0,0,0,.1-.1v-.29a.08.08,0,0,0-.08-.1h0"/><path class="cls-8" d="M92.4,6.82H92a.13.13,0,0,0-.13.12v.41a.14.14,0,0,0,.12.12V8.54h.47V7.47a.13.13,0,0,0,.11-.12V6.94a.12.12,0,0,0-.12-.12h0"/><path class="cls-11" d="M92.35,8.94h-.61a.1.1,0,0,1-.1-.1V8.55a.1.1,0,0,1,.1-.1h.61a.1.1,0,0,1,.09.1v.29a.09.09,0,0,1-.08.1h0"/><path class="cls-8" d="M92.4,13.61H92a.14.14,0,0,1-.13-.12v-.41A.12.12,0,0,1,92,13V11.88h.47V13a.13.13,0,0,1,.11.12v.41a.12.12,0,0,1-.12.12h0"/><path class="cls-11" d="M92.35,11.49h-.61a.09.09,0,0,0-.1.1v.29a.12.12,0,0,0,.1.1h.61a.11.11,0,0,0,.09-.1v-.29a.08.08,0,0,0-.08-.1h0"/><path class="cls-8" d="M93.56,6.82h-.45a.12.12,0,0,0-.12.12h0v.41a.13.13,0,0,0,.11.12V8.54h.47V7.47a.15.15,0,0,0,.12-.12V6.94a.13.13,0,0,0-.13-.12"/><path class="cls-11" d="M93.51,8.94H92.9a.09.09,0,0,1-.09-.09h0V8.55a.1.1,0,0,1,.09-.1h.61a.1.1,0,0,1,.09.1v.29a.09.09,0,0,1-.08.1h0"/><path class="cls-8" d="M93.56,13.61h-.45a.13.13,0,0,1-.11-.12v-.41a.13.13,0,0,1,.11-.12V11.88h.47V13a.14.14,0,0,1,.12.12v.41a.14.14,0,0,1-.13.12"/><path class="cls-11" d="M93.51,11.49H92.9a.09.09,0,0,0-.09.09h0v.29a.11.11,0,0,0,.09.1h.61a.11.11,0,0,0,.09-.1v-.29a.08.08,0,0,0-.08-.1h0"/><path class="cls-8" d="M94.7,6.82h-.46a.12.12,0,0,0-.12.12v.41a.14.14,0,0,0,.12.12V8.54h.47V7.47a.13.13,0,0,0,.11-.12V6.94a.12.12,0,0,0-.12-.12h0"/><path class="cls-11" d="M94.64,8.94H94a.1.1,0,0,1-.1-.1V8.55a.1.1,0,0,1,.1-.1h.6a.09.09,0,0,1,.1.1v.29a.09.09,0,0,1-.08.1h0"/><path class="cls-8" d="M94.7,13.61h-.46a.14.14,0,0,1-.12-.12v-.41a.12.12,0,0,1,.12-.12V11.88h.47V13a.13.13,0,0,1,.11.12v.41a.12.12,0,0,1-.12.12h0"/><path class="cls-11" d="M94.64,11.49H94a.09.09,0,0,0-.1.1v.29a.12.12,0,0,0,.1.1h.6a.1.1,0,0,0,.1-.1v-.29a.08.08,0,0,0-.08-.1h0"/><path class="cls-11" d="M70,8.7c0-.14.19-.25.42-.25s.42.11.42.25-.19.24-.42.24S70,8.83,70,8.7"/><path class="cls-11" d="M70,11.69c0-.13.19-.24.42-.24s.42.11.42.24-.19.25-.42.25-.42-.11-.42-.25"/><path class="cls-11" d="M96.35,8.7c0-.14.19-.25.42-.25s.42.11.42.25-.19.24-.42.24-.42-.11-.42-.24"/><path class="cls-11" d="M96.35,11.69c0-.13.19-.24.42-.24s.42.11.42.24-.19.25-.42.25-.42-.11-.42-.25"/><rect class="cls-12" x="123.48" y="12.19" width="2.47" height="2.91" rx="0.41"/><polygon class="cls-12" points="121.57 12.19 124.5 12.19 125.96 13.64 124.5 15.09 121.57 15.09 120.11 13.64 121.57 12.19"/><path class="cls-7" d="M122,12.76h.35l.66,1.07h0V12.76h.33v1.59H123l-.66-1.06h0v1.06H122Z"/><path class="cls-7" d="M124.72,13.3a.35.35,0,0,0-.35-.28c-.31,0-.43.27-.43.54s.12.53.43.53a.36.36,0,0,0,.36-.35h.34a.67.67,0,0,1-.7.65.83.83,0,0,1,0-1.66.65.65,0,0,1,.69.57Z"/><rect class="cls-12" x="123.48" y="16.1" width="2.47" height="2.91" rx="0.41"/><polygon class="cls-12" points="121.57 16.1 124.5 16.1 125.96 17.55 124.5 19 121.57 19 120.11 17.55 121.57 16.1"/><path class="cls-7" d="M122,16.68h.35l.66,1.06h0V16.68h.33v1.58H123l-.66-1.06h0v1.06H122Z"/><path class="cls-7" d="M124.72,17.21a.36.36,0,0,0-.35-.28c-.31,0-.43.27-.43.54s.12.54.43.54a.36.36,0,0,0,.36-.36h.34a.67.67,0,0,1-.7.65.83.83,0,0,1,0-1.66.65.65,0,0,1,.69.57Z"/><rect class="cls-12" x="123.48" y="20.01" width="2.47" height="2.91" rx="0.41"/><polygon class="cls-12" points="121.57 20.01 124.5 20.01 125.96 21.47 124.5 22.92 121.57 22.92 120.11 21.47 121.57 20.01"/><path class="cls-7" d="M122,20.59h.35l.66,1.06h0V20.59h.33v1.59H123l-.66-1.07h0v1.07H122Z"/><path class="cls-7" d="M124.72,21.13a.34.34,0,0,0-.35-.28c-.31,0-.43.26-.43.54s.12.53.43.53a.36.36,0,0,0,.36-.35h.34a.67.67,0,0,1-.7.64.77.77,0,0,1-.78-.82.78.78,0,0,1,.78-.84.66.66,0,0,1,.69.57Z"/><rect class="cls-12" x="123.48" y="24.06" width="2.47" height="2.91" rx="0.41"/><polygon class="cls-12" points="121.57 24.06 124.5 24.06 125.96 25.51 124.5 26.96 121.57 26.96 120.11 25.51 121.57 24.06"/><path class="cls-7" d="M122,24.64h.35L123,25.7h0V24.64h.33v1.58H123l-.66-1.06h0v1.06H122Z"/><path class="cls-7" d="M124.72,25.17a.36.36,0,0,0-.35-.28c-.31,0-.43.27-.43.54s.12.54.43.54a.36.36,0,0,0,.36-.36h.34a.67.67,0,0,1-.7.65.83.83,0,0,1,0-1.66.65.65,0,0,1,.69.57Z"/><rect class="cls-12" x="123.48" y="28.03" width="2.47" height="2.91" rx="0.41"/><polygon class="cls-12" points="121.57 28.03 124.5 28.03 125.96 29.49 124.5 30.94 121.57 30.94 120.11 29.49 121.57 28.03"/><path class="cls-7" d="M122,28.61h.35l.66,1.06h0V28.61h.33V30.2H123l-.66-1.07h0V30.2H122Z"/><path class="cls-7" d="M124.72,29.15a.34.34,0,0,0-.35-.28c-.31,0-.43.26-.43.54s.12.53.43.53.33-.14.36-.36h.34a.67.67,0,0,1-.7.65.77.77,0,0,1-.78-.82.78.78,0,0,1,.78-.84.66.66,0,0,1,.69.57Z"/><rect class="cls-12" x="123.48" y="32.04" width="2.47" height="2.91" rx="0.41"/><polygon class="cls-12" points="121.57 32.04 124.5 32.04 125.96 33.5 124.5 34.95 121.57 34.95 120.11 33.5 121.57 32.04"/><path class="cls-7" d="M122,32.62h.35l.66,1.06h0V32.62h.33v1.59H123l-.66-1.07h0v1.07H122Z"/><path class="cls-7" d="M124.72,33.16a.34.34,0,0,0-.35-.28c-.31,0-.43.26-.43.54s.12.53.43.53a.36.36,0,0,0,.36-.35h.34a.67.67,0,0,1-.7.64.77.77,0,0,1-.78-.82.78.78,0,0,1,.78-.84.66.66,0,0,1,.69.57Z"/><rect class="cls-12" x="135.52" y="12.13" width="2.47" height="2.91" rx="0.41"/><polygon class="cls-12" points="141.36 13.58 139.9 15.03 136.98 15.03 135.52 13.58 136.98 12.13 139.9 12.13 141.36 13.58"/><path class="cls-7" d="M136.47,12.7h.35l.67,1.07h0V12.7h.32v1.59h-.35l-.66-1.06h0v1.06h-.32Z"/><path class="cls-7" d="M139.17,13.24a.35.35,0,0,0-.34-.28c-.32,0-.43.27-.43.54s.11.53.43.53a.36.36,0,0,0,.36-.35h.33a.66.66,0,0,1-.69.65.83.83,0,0,1,0-1.66.64.64,0,0,1,.68.57Z"/><rect class="cls-12" x="123.48" y="0.06" width="2.47" height="2.91" rx="0.41"/><polygon class="cls-12" points="121.57 0.06 124.5 0.06 125.96 1.51 124.5 2.96 121.57 2.96 120.11 1.51 121.57 0.06"/><path class="cls-7" d="M122,.64h.35L123,1.7h0V.64h.33V2.22H123l-.66-1.06h0V2.22H122Z"/><path class="cls-7" d="M124.72,1.17a.36.36,0,0,0-.35-.28c-.31,0-.43.27-.43.55s.12.53.43.53a.36.36,0,0,0,.36-.36h.34a.67.67,0,0,1-.7.65.77.77,0,0,1-.78-.82.78.78,0,0,1,.78-.84.65.65,0,0,1,.69.57Z"/><rect class="cls-12" x="135.52" width="2.47" height="2.91" rx="0.41"/><polygon class="cls-12" points="141.36 1.45 139.9 2.9 136.98 2.9 135.52 1.45 136.98 0 139.9 0 141.36 1.45"/><path class="cls-7" d="M136.47.58h.35l.67,1.06h0V.58h.32V2.16h-.35L136.8,1.1h0V2.16h-.32Z"/><path class="cls-7" d="M139.17,1.11a.35.35,0,0,0-.34-.28c-.32,0-.43.27-.43.55s.11.53.43.53a.36.36,0,0,0,.36-.36h.33a.66.66,0,0,1-.69.65.77.77,0,0,1-.78-.82.78.78,0,0,1,.78-.84.64.64,0,0,1,.68.57Z"/><rect class="cls-12" x="135.52" y="16.04" width="2.47" height="2.91" rx="0.41"/><polygon class="cls-12" points="141.36 17.49 139.9 18.94 136.98 18.94 135.52 17.49 136.98 16.04 139.9 16.04 141.36 17.49"/><path class="cls-7" d="M136.47,16.62h.35l.67,1.06h0V16.62h.32V18.2h-.35l-.66-1.06h0V18.2h-.32Z"/><path class="cls-7" d="M139.17,17.15a.35.35,0,0,0-.34-.28c-.32,0-.43.27-.43.54s.11.54.43.54a.36.36,0,0,0,.36-.36h.33a.66.66,0,0,1-.69.65.83.83,0,0,1,0-1.66.64.64,0,0,1,.68.57Z"/><rect class="cls-12" x="135.52" y="19.95" width="2.47" height="2.91" rx="0.41"/><polygon class="cls-12" points="141.36 21.41 139.9 22.86 136.98 22.86 135.52 21.41 136.98 19.95 139.9 19.95 141.36 21.41"/><path class="cls-7" d="M136.47,20.53h.35l.67,1.07h0V20.53h.32v1.59h-.35l-.66-1.06h0v1.06h-.32Z"/><path class="cls-7" d="M139.17,21.07a.34.34,0,0,0-.34-.28c-.32,0-.43.27-.43.54s.11.53.43.53a.36.36,0,0,0,.36-.35h.33a.66.66,0,0,1-.69.64.76.76,0,0,1-.78-.82.78.78,0,0,1,.78-.84.65.65,0,0,1,.68.57Z"/><rect class="cls-12" x="135.52" y="24" width="2.47" height="2.91" rx="0.41"/><polygon class="cls-12" points="141.36 25.45 139.9 26.9 136.98 26.9 135.52 25.45 136.98 24 139.9 24 141.36 25.45"/><path class="cls-7" d="M136.47,24.58h.35l.67,1.06h0V24.58h.32v1.58h-.35l-.66-1.06h0v1.06h-.32Z"/><path class="cls-7" d="M139.17,25.11a.35.35,0,0,0-.34-.28c-.32,0-.43.27-.43.55s.11.53.43.53a.36.36,0,0,0,.36-.36h.33a.66.66,0,0,1-.69.65.77.77,0,0,1-.78-.82.78.78,0,0,1,.78-.84.64.64,0,0,1,.68.57Z"/><rect class="cls-12" x="135.52" y="27.97" width="2.47" height="2.91" rx="0.41"/><polygon class="cls-12" points="141.36 29.43 139.9 30.88 136.98 30.88 135.52 29.43 136.98 27.97 139.9 27.97 141.36 29.43"/><path class="cls-7" d="M136.47,28.55h.35l.67,1.06h0V28.55h.32v1.59h-.35l-.66-1.07h0v1.07h-.32Z"/><path class="cls-7" d="M139.17,29.09a.34.34,0,0,0-.34-.28c-.32,0-.43.26-.43.54s.11.53.43.53a.36.36,0,0,0,.36-.35h.33a.66.66,0,0,1-.69.64.76.76,0,0,1-.78-.82.78.78,0,0,1,.78-.84.65.65,0,0,1,.68.57Z"/><rect class="cls-12" x="135.52" y="31.98" width="2.47" height="2.91" rx="0.41"/><polygon class="cls-12" points="141.36 33.44 139.9 34.89 136.98 34.89 135.52 33.44 136.98 31.98 139.9 31.98 141.36 33.44"/><path class="cls-7" d="M136.47,32.56h.35l.67,1.07h0V32.56h.32v1.59h-.35l-.66-1.06h0v1.06h-.32Z"/><path class="cls-7" d="M139.17,33.1a.34.34,0,0,0-.34-.28c-.32,0-.43.27-.43.54s.11.53.43.53a.36.36,0,0,0,.36-.35h.33a.66.66,0,0,1-.69.64.76.76,0,0,1-.78-.82.78.78,0,0,1,.78-.84.65.65,0,0,1,.68.57Z"/><rect class="cls-12" x="135.52" y="40.3" width="2.47" height="2.91" rx="0.41"/><polygon class="cls-12" points="141.36 41.76 139.9 43.21 136.98 43.21 135.52 41.76 136.98 40.3 139.9 40.3 141.36 41.76"/><path class="cls-7" d="M136.47,40.88h.35l.67,1.06h0V40.88h.32v1.58h-.35l-.66-1.06h0v1.06h-.32Z"/><path class="cls-7" d="M139.17,41.41a.33.33,0,0,0-.34-.27c-.32,0-.43.26-.43.54s.11.53.43.53.33-.14.36-.36h.33a.66.66,0,0,1-.69.65.76.76,0,0,1-.78-.82.78.78,0,0,1,.78-.84.65.65,0,0,1,.68.57Z"/><rect class="cls-12" x="135.46" y="44.24" width="2.47" height="2.91" rx="0.41"/><polygon class="cls-12" points="141.31 45.69 139.84 47.15 136.92 47.15 135.46 45.69 136.92 44.24 139.84 44.24 141.31 45.69"/><path class="cls-7" d="M136.42,44.82h.35l.66,1.06h0V44.82h.32V46.4h-.34l-.66-1.06h0V46.4h-.33Z"/><path class="cls-7" d="M139.11,45.35a.34.34,0,0,0-.34-.28c-.32,0-.43.27-.43.55s.11.53.43.53a.36.36,0,0,0,.36-.36h.34a.67.67,0,0,1-.7.65.77.77,0,0,1-.78-.82.78.78,0,0,1,.78-.84.63.63,0,0,1,.68.57Z"/><rect class="cls-12" x="135.52" y="48.18" width="2.47" height="2.91" rx="0.41"/><polygon class="cls-12" points="141.36 49.63 139.9 51.08 136.98 51.08 135.52 49.63 136.98 48.18 139.9 48.18 141.36 49.63"/><path class="cls-7" d="M136.47,48.75h.35l.67,1.07h0V48.75h.32v1.59h-.35l-.66-1.06h0v1.06h-.32Z"/><path class="cls-7" d="M139.17,49.29a.34.34,0,0,0-.34-.28c-.32,0-.43.27-.43.54s.11.53.43.53a.36.36,0,0,0,.36-.35h.33a.66.66,0,0,1-.69.65.83.83,0,0,1,0-1.66.64.64,0,0,1,.68.57Z"/><rect class="cls-12" x="135.52" y="52.09" width="2.47" height="2.91" rx="0.41"/><polygon class="cls-12" points="141.36 53.55 139.9 55 136.98 55 135.52 53.55 136.98 52.09 139.9 52.09 141.36 53.55"/><path class="cls-7" d="M136.47,52.67h.35l.67,1.06h0V52.67h.32v1.58h-.35l-.66-1.06h0v1.06h-.32Z"/><path class="cls-7" d="M139.17,53.2a.33.33,0,0,0-.34-.27c-.32,0-.43.26-.43.54s.11.53.43.53.33-.14.36-.36h.33a.66.66,0,0,1-.69.65.76.76,0,0,1-.78-.82.78.78,0,0,1,.78-.84.65.65,0,0,1,.68.57Z"/><rect class="cls-12" x="135.52" y="56.14" width="2.47" height="2.91" rx="0.41"/><polygon class="cls-12" points="141.36 57.59 139.9 59.04 136.98 59.04 135.52 57.59 136.98 56.14 139.9 56.14 141.36 57.59"/><path class="cls-7" d="M136.47,56.71h.35l.67,1.07h0V56.71h.32V58.3h-.35l-.66-1.06h0V58.3h-.32Z"/><path class="cls-7" d="M139.17,57.25a.35.35,0,0,0-.34-.28c-.32,0-.43.27-.43.54s.11.53.43.53a.36.36,0,0,0,.36-.35h.33a.66.66,0,0,1-.69.65.83.83,0,0,1,0-1.66.64.64,0,0,1,.68.57Z"/><rect class="cls-12" x="135.52" y="60.11" width="2.47" height="2.91" rx="0.41"/><polygon class="cls-12" points="141.36 61.57 139.9 63.02 136.98 63.02 135.52 61.57 136.98 60.11 139.9 60.11 141.36 61.57"/><path class="cls-7" d="M136.47,60.69h.35l.67,1.06h0V60.69h.32v1.58h-.35l-.66-1.06h0v1.06h-.32Z"/><path class="cls-7" d="M139.17,61.22a.33.33,0,0,0-.34-.27c-.32,0-.43.26-.43.54s.11.53.43.53a.36.36,0,0,0,.36-.36h.33a.66.66,0,0,1-.69.65.76.76,0,0,1-.78-.82.78.78,0,0,1,.78-.84.65.65,0,0,1,.68.57Z"/><rect class="cls-12" x="135.52" y="64.12" width="2.47" height="2.91" rx="0.41"/><polygon class="cls-12" points="141.36 65.58 139.9 67.03 136.98 67.03 135.52 65.58 136.98 64.12 139.9 64.12 141.36 65.58"/><path class="cls-7" d="M136.47,64.7h.35l.67,1.06h0V64.7h.32v1.58h-.35l-.66-1.06h0v1.06h-.32Z"/><path class="cls-7" d="M139.17,65.23a.33.33,0,0,0-.34-.27c-.32,0-.43.26-.43.54s.11.53.43.53.33-.14.36-.36h.33a.66.66,0,0,1-.69.65.76.76,0,0,1-.78-.82.78.78,0,0,1,.78-.84.65.65,0,0,1,.68.57Z"/><rect class="cls-12" x="135.52" y="68.18" width="2.47" height="2.91" rx="0.41"/><polygon class="cls-12" points="141.36 69.64 139.9 71.09 136.98 71.09 135.52 69.64 136.98 68.19 139.9 68.19 141.36 69.64"/><path class="cls-7" d="M136.47,68.76h.35l.67,1.06h0V68.76h.32v1.59h-.35l-.66-1.06h0v1.06h-.32Z"/><path class="cls-7" d="M139.17,69.3a.34.34,0,0,0-.34-.28c-.32,0-.43.27-.43.54s.11.53.43.53a.36.36,0,0,0,.36-.35h.33a.66.66,0,0,1-.69.64.76.76,0,0,1-.78-.82.78.78,0,0,1,.78-.84.65.65,0,0,1,.68.57Z"/><rect class="cls-12" x="135.52" y="72.38" width="2.47" height="2.91" rx="0.41"/><polygon class="cls-12" points="141.36 73.83 139.9 75.29 136.98 75.29 135.52 73.83 136.98 72.38 139.9 72.38 141.36 73.83"/><path class="cls-7" d="M136.47,73h.35l.67,1.06h0V73h.32v1.58h-.35l-.66-1.06h0v1.06h-.32Z"/><path class="cls-7" d="M139.17,73.49a.35.35,0,0,0-.34-.28c-.32,0-.43.27-.43.55s.11.53.43.53a.36.36,0,0,0,.36-.36h.33a.66.66,0,0,1-.69.65.77.77,0,0,1-.78-.82.78.78,0,0,1,.78-.84.64.64,0,0,1,.68.57Z"/><rect class="cls-12" x="123.43" y="44.25" width="2.47" height="2.91" rx="0.41"/><polygon class="cls-12" points="121.52 44.25 124.44 44.25 125.91 45.7 124.44 47.15 121.52 47.15 120.06 45.7 121.52 44.25"/><path class="cls-7" d="M122,44.82h.35l.66,1.07h0V44.82h.32v1.59H123l-.66-1.06h0v1.06H122Z"/><path class="cls-7" d="M124.66,45.36a.33.33,0,0,0-.34-.28c-.31,0-.43.27-.43.54s.12.53.43.53a.36.36,0,0,0,.36-.35H125a.68.68,0,0,1-.7.65.83.83,0,0,1,0-1.66.63.63,0,0,1,.68.57Z"/><rect class="cls-12" x="123.43" y="40.3" width="2.47" height="2.91" rx="0.41"/><polygon class="cls-12" points="121.52 40.3 124.44 40.3 125.91 41.76 124.44 43.21 121.52 43.21 120.06 41.76 121.52 40.3"/><path class="cls-7" d="M122,40.88h.35l.66,1.06h0V40.88h.32v1.58H123l-.66-1.06h0v1.06H122Z"/><path class="cls-7" d="M124.66,41.41a.33.33,0,0,0-.34-.27c-.31,0-.43.26-.43.54s.12.53.43.53.33-.14.36-.36H125a.67.67,0,0,1-.7.65.76.76,0,0,1-.78-.82.78.78,0,0,1,.78-.84.64.64,0,0,1,.68.57Z"/><rect class="cls-12" x="123.43" y="48.19" width="2.47" height="2.91" rx="0.41"/><polygon class="cls-12" points="121.52 48.19 124.44 48.19 125.91 49.64 124.44 51.09 121.52 51.09 120.06 49.64 121.52 48.19"/><path class="cls-7" d="M122,48.77h.35l.66,1.06h0V48.77h.32v1.58H123l-.66-1.06h0v1.06H122Z"/><path class="cls-7" d="M124.66,49.3a.34.34,0,0,0-.34-.28c-.31,0-.43.27-.43.55s.12.53.43.53a.36.36,0,0,0,.36-.36H125a.67.67,0,0,1-.7.65.77.77,0,0,1-.78-.82.78.78,0,0,1,.78-.84.63.63,0,0,1,.68.57Z"/><rect class="cls-12" x="123.43" y="52.14" width="2.47" height="2.91" rx="0.41"/><polygon class="cls-12" points="121.52 52.13 124.44 52.13 125.91 53.59 124.44 55.04 121.52 55.04 120.06 53.59 121.52 52.13"/><path class="cls-7" d="M122,52.71h.35l.66,1.07h0V52.71h.32V54.3H123l-.66-1.06h0V54.3H122Z"/><path class="cls-7" d="M124.66,53.25a.33.33,0,0,0-.34-.28c-.31,0-.43.27-.43.54s.12.53.43.53a.36.36,0,0,0,.36-.35H125a.67.67,0,0,1-.7.64.76.76,0,0,1-.78-.82.78.78,0,0,1,.78-.84.64.64,0,0,1,.68.57Z"/><rect class="cls-12" x="123.43" y="56.14" width="2.47" height="2.91" rx="0.41"/><polygon class="cls-12" points="121.52 56.14 124.44 56.14 125.91 57.59 124.44 59.04 121.52 59.04 120.06 57.59 121.52 56.14"/><path class="cls-7" d="M122,56.72h.35l.66,1.06h0V56.72h.32V58.3H123l-.66-1.06h0V58.3H122Z"/><path class="cls-7" d="M124.66,57.25a.34.34,0,0,0-.34-.28c-.31,0-.43.27-.43.54s.12.54.43.54a.36.36,0,0,0,.36-.36H125a.67.67,0,0,1-.7.65.83.83,0,0,1,0-1.66.63.63,0,0,1,.68.57Z"/><rect class="cls-12" x="123.43" y="60.11" width="2.47" height="2.91" rx="0.41"/><polygon class="cls-12" points="121.52 60.11 124.44 60.11 125.91 61.57 124.44 63.02 121.52 63.02 120.06 61.57 121.52 60.11"/><path class="cls-7" d="M122,60.69h.35l.66,1.06h0V60.69h.32v1.59H123l-.66-1.07h0v1.07H122Z"/><path class="cls-7" d="M124.66,61.23a.33.33,0,0,0-.34-.28c-.31,0-.43.26-.43.54s.12.53.43.53.33-.14.36-.36H125a.67.67,0,0,1-.7.65.76.76,0,0,1-.78-.82.78.78,0,0,1,.78-.84.64.64,0,0,1,.68.57Z"/><rect class="cls-12" x="123.43" y="64.15" width="2.47" height="2.91" rx="0.41"/><polygon class="cls-12" points="121.52 64.15 124.44 64.15 125.91 65.6 124.44 67.06 121.52 67.06 120.06 65.6 121.52 64.15"/><path class="cls-7" d="M122,64.73h.35l.66,1.06h0V64.73h.32v1.58H123l-.66-1.06h0v1.06H122Z"/><path class="cls-7" d="M124.66,65.26a.34.34,0,0,0-.34-.28c-.31,0-.43.27-.43.55s.12.53.43.53a.36.36,0,0,0,.36-.36H125a.67.67,0,0,1-.7.65.77.77,0,0,1-.78-.82.78.78,0,0,1,.78-.84.63.63,0,0,1,.68.57Z"/><rect class="cls-12" x="123.43" y="68.18" width="2.47" height="2.91" rx="0.41"/><polygon class="cls-12" points="121.52 68.18 124.44 68.18 125.91 69.64 124.44 71.09 121.52 71.09 120.06 69.64 121.52 68.18"/><path class="cls-7" d="M122,68.76h.35l.66,1.06h0V68.76h.32v1.58H123l-.66-1.06h0v1.06H122Z"/><path class="cls-7" d="M124.66,69.29a.33.33,0,0,0-.34-.27c-.31,0-.43.26-.43.54s.12.53.43.53a.36.36,0,0,0,.36-.36H125a.67.67,0,0,1-.7.65.77.77,0,0,1-.78-.82.78.78,0,0,1,.78-.84.63.63,0,0,1,.68.57Z"/><rect class="cls-13" x="131.27" y="0.03" width="4.25" height="79.19"/><rect class="cls-13" x="125.96" y="0.03" width="4.25" height="79.19"/><rect class="cls-14" x="123.49" y="4.06" width="2.47" height="2.9" rx="0.41"/><rect class="cls-12" x="126.5" y="0.03" width="3.71" height="2.9" rx="0.35"/><rect class="cls-14" x="126.5" y="4" width="3.71" height="2.9" rx="0.35"/><rect class="cls-15" x="126.5" y="8.1" width="3.71" height="2.9" rx="0.35"/><rect class="cls-12" x="126.5" y="12.19" width="3.71" height="2.9" rx="0.35"/><rect class="cls-12" x="126.5" y="16.1" width="3.71" height="2.9" rx="0.35"/><rect class="cls-12" x="126.5" y="20.02" width="3.71" height="2.9" rx="0.35"/><rect class="cls-12" x="126.5" y="24.06" width="3.71" height="2.9" rx="0.35"/><rect class="cls-12" x="126.5" y="28.04" width="3.71" height="2.9" rx="0.35"/><rect class="cls-12" x="126.5" y="32.05" width="3.71" height="2.9" rx="0.35"/><rect class="cls-16" x="126.5" y="36.11" width="3.71" height="2.9" rx="0.35"/><rect class="cls-12" x="126.5" y="40.3" width="3.71" height="2.9" rx="0.35"/><rect class="cls-12" x="126.5" y="44.24" width="3.71" height="2.9" rx="0.35"/><rect class="cls-12" x="131.27" y="0.03" width="3.71" height="2.9" rx="0.35"/><rect class="cls-14" x="131.27" y="4" width="3.71" height="2.9" rx="0.35"/><rect class="cls-15" x="131.27" y="8.1" width="3.71" height="2.9" rx="0.35"/><rect class="cls-12" x="131.27" y="12.19" width="3.71" height="2.9" rx="0.35"/><rect class="cls-12" x="131.27" y="16.1" width="3.71" height="2.9" rx="0.35"/><rect class="cls-12" x="131.27" y="20.02" width="3.71" height="2.9" rx="0.35"/><rect class="cls-12" x="131.27" y="24.06" width="3.71" height="2.9" rx="0.35"/><rect class="cls-12" x="131.27" y="28.04" width="3.71" height="2.9" rx="0.35"/><rect class="cls-12" x="131.27" y="32.05" width="3.71" height="2.9" rx="0.35"/><rect class="cls-16" x="131.27" y="36.11" width="3.71" height="2.9" rx="0.35"/><rect class="cls-12" x="131.27" y="40.3" width="3.71" height="2.9" rx="0.35"/><rect class="cls-12" x="131.27" y="44.24" width="3.71" height="2.9" rx="0.35"/><rect class="cls-12" x="131.27" y="48.18" width="3.71" height="2.9" rx="0.35"/><rect class="cls-12" x="131.27" y="52.1" width="3.71" height="2.9" rx="0.35"/><rect class="cls-12" x="131.27" y="56.14" width="3.71" height="2.9" rx="0.35"/><rect class="cls-12" x="131.27" y="60.12" width="3.71" height="2.9" rx="0.35"/><rect class="cls-12" x="131.27" y="64.13" width="3.71" height="2.9" rx="0.35"/><rect class="cls-12" x="131.27" y="68.19" width="3.71" height="2.9" rx="0.35"/><rect class="cls-12" x="131.27" y="72.38" width="3.71" height="2.9" rx="0.35"/><path class="cls-7" d="M131.83,49.48a.62.62,0,0,1,.63-.71.56.56,0,0,1,.6.54c0,.53-.56.57-.81.93h.82v.31h-1.28c0-.41.25-.58.55-.78.15-.11.37-.21.37-.43a.25.25,0,0,0-.23-.27h0c-.21,0-.28.22-.28.4Z"/><path class="cls-7" d="M134.37,49.09h-.72l-.07.4h0a.41.41,0,0,1,.34-.14.54.54,0,0,1,.54.59.64.64,0,0,1-.63.64h0a.59.59,0,0,1-.65-.56h.35a.28.28,0,0,0,.29.26.31.31,0,0,0,.3-.32h0a.3.3,0,0,0-.27-.33h0a.29.29,0,0,0-.27.14h-.32l.17-1h1Z"/><path class="cls-7" d="M131.83,53.32a.62.62,0,0,1,.63-.71.56.56,0,0,1,.6.55c0,.52-.56.57-.81.93h.82v.3h-1.28c0-.41.25-.57.55-.78.15-.11.37-.21.37-.43a.26.26,0,0,0-.23-.27h0c-.21,0-.28.22-.28.4Z"/><path class="cls-7" d="M134.41,53a2.15,2.15,0,0,0-.57,1.45h-.38a2.57,2.57,0,0,1,.59-1.42h-.83v-.33h1.19Z"/><path class="cls-7" d="M132.31,65.45c.15,0,.37,0,.37-.22a.23.23,0,0,0-.23-.23h0c-.18,0-.27.13-.27.31h-.34a.59.59,0,0,1,.61-.6.54.54,0,0,1,.58.48.35.35,0,0,1-.24.37h0a.39.39,0,0,1,.31.39.65.65,0,0,1-1.3-.06h.34c0,.19.1.35.3.35a.28.28,0,0,0,.29-.26h0c0-.27-.23-.26-.41-.26Z"/><path class="cls-7" d="M133.69,65.45c.15,0,.37,0,.37-.22a.23.23,0,0,0-.23-.23h0c-.18,0-.27.13-.27.31h-.33a.57.57,0,0,1,.6-.6.54.54,0,0,1,.59.48.36.36,0,0,1-.25.37h0a.37.37,0,0,1,.31.39.59.59,0,0,1-.65.57.58.58,0,0,1-.64-.63h.33c0,.19.1.35.31.35a.28.28,0,0,0,.28-.26h0c0-.27-.23-.26-.4-.26Z"/><path class="cls-7" d="M132.31,69.52c.15,0,.37,0,.37-.21a.23.23,0,0,0-.23-.23s0,0,0,0c-.18,0-.27.13-.27.31h-.34a.59.59,0,0,1,.61-.61.54.54,0,0,1,.58.49.35.35,0,0,1-.24.36h0a.4.4,0,0,1,.31.39.65.65,0,0,1-1.3-.06h.34c0,.19.1.35.3.35a.28.28,0,0,0,.29-.26h0c0-.27-.23-.26-.41-.26Z"/><path class="cls-7" d="M134.37,69.11h-.72l-.07.4h0a.43.43,0,0,1,.34-.13.54.54,0,0,1,.54.59.63.63,0,0,1-.63.63h0a.59.59,0,0,1-.65-.56h.35a.29.29,0,0,0,.29.27.32.32,0,0,0,.3-.33h0a.3.3,0,0,0-.27-.33h0a.29.29,0,0,0-.27.14h-.32l.17-1h1Z"/><path class="cls-7" d="M131.83,57.43a.62.62,0,0,1,.63-.7.55.55,0,0,1,.6.54c0,.53-.56.57-.81.93h.82v.3h-1.28c0-.4.25-.57.55-.78.15-.1.37-.21.37-.42a.26.26,0,0,0-.23-.27h0c-.21,0-.28.22-.28.4Z"/><path class="cls-7" d="M133.54,58.06a.26.26,0,0,0,.23.22c.26,0,.33-.34.34-.53h0a.4.4,0,0,1-.39.19.52.52,0,0,1-.4-.18.57.57,0,0,1-.14-.38.61.61,0,0,1,.61-.64c.53,0,.67.46.67.9s-.18.91-.68.91a.53.53,0,0,1-.57-.48Zm.54-.72a.31.31,0,0,0-.28-.32h0a.3.3,0,0,0-.27.32.3.3,0,0,0,.27.33c.19,0,.28-.15.28-.33Z"/><path class="cls-7" d="M132.31,61.51c.15,0,.37,0,.37-.22a.23.23,0,0,0-.23-.23h0c-.18,0-.27.13-.27.31h-.34a.59.59,0,0,1,.61-.6.54.54,0,0,1,.58.48.36.36,0,0,1-.24.36h0a.41.41,0,0,1,.31.4.65.65,0,0,1-1.3-.06h.34a.3.3,0,0,0,.3.34.28.28,0,0,0,.29-.26h0c0-.26-.23-.26-.41-.26Z"/><path class="cls-7" d="M134.1,62.54h-.36V61.41h-.43v-.27c.24,0,.47-.08.51-.34h.28Z"/><path class="cls-7" d="M132.31,73.73c.15,0,.37,0,.37-.22a.23.23,0,0,0-.23-.23h0c-.18,0-.27.13-.27.31h-.34a.59.59,0,0,1,.61-.6.54.54,0,0,1,.58.48.36.36,0,0,1-.24.36h0a.41.41,0,0,1,.31.4.6.6,0,0,1-.65.57.59.59,0,0,1-.65-.63h.34a.3.3,0,0,0,.3.34.28.28,0,0,0,.29-.25v0c0-.26-.23-.26-.41-.26Z"/><path class="cls-7" d="M134.41,73.33a2.12,2.12,0,0,0-.57,1.44h-.38a2.57,2.57,0,0,1,.59-1.42h-.83V73h1.19Z"/><rect class="cls-14" x="131.27" y="76.32" width="3.71" height="2.9" rx="0.35"/><rect class="cls-12" x="126.5" y="48.18" width="3.71" height="2.9" rx="0.35"/><path class="cls-7" d="M132.31,77.68c.15,0,.37,0,.37-.22a.23.23,0,0,0-.23-.23h0c-.18,0-.27.13-.27.31h-.34a.59.59,0,0,1,.61-.6.54.54,0,0,1,.58.48.36.36,0,0,1-.24.36h0a.41.41,0,0,1,.31.4.6.6,0,0,1-.65.57.59.59,0,0,1-.65-.63h.34a.3.3,0,0,0,.3.34.27.27,0,0,0,.29-.25v0c0-.26-.23-.25-.41-.25Z"/><path class="cls-7" d="M133.54,78.27a.26.26,0,0,0,.23.22c.26,0,.33-.34.34-.53h0a.43.43,0,0,1-.39.2.56.56,0,0,1-.4-.19.57.57,0,0,1-.14-.38.61.61,0,0,1,.61-.64c.53,0,.67.46.67.9s-.18.91-.68.91a.53.53,0,0,1-.57-.48Zm.54-.71a.31.31,0,0,0-.29-.33.33.33,0,0,0,0,.65.28.28,0,0,0,.28-.32Z"/><rect class="cls-12" x="126.5" y="52.1" width="3.71" height="2.9" rx="0.35"/><rect class="cls-12" x="126.5" y="56.14" width="3.71" height="2.9" rx="0.35"/><rect class="cls-12" x="126.5" y="60.12" width="3.71" height="2.9" rx="0.35"/><rect class="cls-12" x="126.5" y="64.13" width="3.71" height="2.9" rx="0.35"/><rect class="cls-12" x="126.5" y="68.19" width="3.71" height="2.9" rx="0.35"/><rect class="cls-17" x="126.5" y="72.38" width="3.71" height="2.9" rx="0.35"/><rect class="cls-14" x="126.5" y="76.32" width="3.71" height="2.9" rx="0.35"/><path class="cls-7" d="M127.75,1.47a.62.62,0,0,1,.63-.7.55.55,0,0,1,.6.54c0,.53-.56.57-.81.93H129v.3h-1.28c0-.4.25-.57.55-.78s.37-.21.37-.42a.25.25,0,0,0-.23-.27h0c-.21,0-.28.21-.28.4Z"/><path class="cls-7" d="M127.06,49.48a.62.62,0,0,1,.63-.71.56.56,0,0,1,.6.55c0,.53-.56.57-.81.93h.82v.3H127c0-.41.25-.57.55-.78s.37-.21.37-.42a.25.25,0,0,0-.23-.27h0c-.2,0-.27.22-.27.41Z"/><path class="cls-7" d="M129.32,49.25a.27.27,0,0,0-.24-.22c-.25,0-.32.34-.33.54h0a.42.42,0,0,1,.39-.19.52.52,0,0,1,.4.18.6.6,0,0,1,.14.39.61.61,0,0,1-.58.63h0c-.52,0-.66-.46-.66-.9s.18-.91.68-.91a.53.53,0,0,1,.56.48Zm-.54.72a.3.3,0,0,0,.28.32h0a.3.3,0,0,0,.28-.32.3.3,0,0,0-.28-.33.29.29,0,0,0-.28.33Z"/><path class="cls-7" d="M127.54,61.54c.15,0,.37,0,.37-.22a.23.23,0,0,0-.23-.23h0c-.18,0-.27.13-.27.31h-.34a.59.59,0,0,1,.61-.6.53.53,0,0,1,.58.48.36.36,0,0,1-.24.36h0a.41.41,0,0,1,.31.4A.65.65,0,0,1,127,62h.34c0,.19.1.34.3.34a.28.28,0,0,0,.29-.25v0c0-.26-.23-.26-.4-.26Z"/><path class="cls-7" d="M128.44,61.5a.62.62,0,0,1,.64-.7.55.55,0,0,1,.59.54c0,.53-.56.57-.81.93h.83v.3h-1.28c0-.4.24-.57.55-.78.15-.1.36-.21.36-.42a.25.25,0,0,0-.23-.27h0c-.21,0-.28.21-.28.4Z"/><path class="cls-7" d="M127.54,69.55c.15,0,.37,0,.37-.21a.23.23,0,0,0-.23-.23h0c-.18,0-.27.13-.27.31h-.34a.59.59,0,0,1,.61-.61.54.54,0,0,1,.58.49.35.35,0,0,1-.24.36h0a.41.41,0,0,1,.31.4A.65.65,0,0,1,127,70h.34c0,.19.1.34.3.34a.28.28,0,0,0,.29-.26h0c0-.26-.23-.26-.4-.26Z"/><path class="cls-7" d="M129.32,69.3a.27.27,0,0,0-.24-.22c-.25,0-.32.34-.33.53h0a.42.42,0,0,1,.39-.19.55.55,0,0,1,.4.18.62.62,0,0,1,.14.39.6.6,0,0,1-.58.63h0c-.52,0-.66-.46-.66-.9s.18-.91.68-.91a.53.53,0,0,1,.56.48Zm-.54.71a.31.31,0,0,0,.28.33h0a.3.3,0,0,0,.28-.32.3.3,0,0,0-.28-.33.29.29,0,0,0-.28.32Z"/><path class="cls-7" d="M127.54,73.76c.15,0,.37,0,.37-.22a.23.23,0,0,0-.23-.23h0c-.18,0-.27.13-.27.31h-.34a.59.59,0,0,1,.61-.6.53.53,0,0,1,.58.48.35.35,0,0,1-.24.37h0a.4.4,0,0,1,.31.4.65.65,0,0,1-1.3-.06h.34c0,.19.1.34.3.34a.28.28,0,0,0,.29-.26h0c0-.27-.23-.26-.4-.26Z"/><path class="cls-7" d="M129.05,73a.52.52,0,0,1,.58.47.37.37,0,0,1-.25.36h0a.39.39,0,0,1,.32.42.58.58,0,0,1-.65.55c-.33,0-.66-.17-.66-.54a.41.41,0,0,1,.33-.43h0a.36.36,0,0,1-.26-.36A.53.53,0,0,1,129.05,73Zm0,1.55a.3.3,0,0,0,.3-.28v0a.3.3,0,0,0-.29-.28h0a.28.28,0,0,0-.31.28.29.29,0,0,0,.29.3Zm0-.82a.24.24,0,1,0,0-.47h0a.24.24,0,0,0-.27.22v0a.24.24,0,0,0,.27.24Z"/><path class="cls-7" d="M127.74,78.24H127v-.32l.76-1h.31v1h.23v.29h-.23v.4h-.34Zm0-.9h0l-.45.61h.45Z"/><path class="cls-7" d="M129,76.86c.35,0,.65.22.65.91s-.3.91-.65.91-.63-.22-.63-.91S128.7,76.86,129,76.86Zm0,1.53c.29,0,.29-.43.29-.63s0-.6-.29-.6-.28.42-.28.6S128.76,78.39,129,78.39Z"/><path class="cls-7" d="M127.06,53.32a.62.62,0,0,1,.63-.71.56.56,0,0,1,.6.55c0,.52-.56.57-.81.93h.82v.3H127c0-.41.25-.57.55-.78s.37-.21.37-.43a.26.26,0,0,0-.23-.27h0c-.2,0-.27.22-.27.4Z"/><path class="cls-7" d="M129.05,52.61a.52.52,0,0,1,.58.47.35.35,0,0,1-.25.36h0a.4.4,0,0,1,.32.43.58.58,0,0,1-.65.54c-.33,0-.66-.17-.66-.54a.41.41,0,0,1,.33-.43h0a.37.37,0,0,1-.26-.37A.53.53,0,0,1,129.05,52.61Zm0,1.55a.29.29,0,0,0,.3-.27v0a.29.29,0,0,0-.29-.28h0a.28.28,0,0,0-.31.27.29.29,0,0,0,.29.3Zm0-.81a.23.23,0,0,0,.26-.23.22.22,0,0,0-.22-.24h0a.23.23,0,0,0-.27.21v0a.25.25,0,0,0,.27.24Z"/><path class="cls-7" d="M127.54,57.5c.15,0,.37,0,.37-.21a.23.23,0,0,0-.23-.23h0c-.18,0-.27.13-.27.31h-.34a.59.59,0,0,1,.61-.6.53.53,0,0,1,.58.48.34.34,0,0,1-.24.35h0a.41.41,0,0,1,.31.4A.65.65,0,0,1,127,58h.34c0,.19.1.34.3.34a.28.28,0,0,0,.29-.26h0c0-.26-.23-.26-.4-.26Z"/><path class="cls-7" d="M129,56.76c.35,0,.65.22.65.9s-.3.92-.65.92-.63-.22-.63-.92S128.7,56.76,129,56.76Zm0,1.52c.29,0,.29-.42.29-.62s0-.61-.29-.61-.28.43-.28.61S128.76,58.28,129,58.28Z"/><path class="cls-7" d="M127.54,65.45c.15,0,.37,0,.37-.22a.23.23,0,0,0-.23-.23h0c-.18,0-.27.13-.27.31h-.34a.59.59,0,0,1,.61-.6.53.53,0,0,1,.58.48.35.35,0,0,1-.24.37h0a.39.39,0,0,1,.31.39.65.65,0,0,1-1.3-.06h.34c0,.19.1.35.3.35a.28.28,0,0,0,.29-.26h0c0-.27-.23-.26-.4-.26Z"/><path class="cls-7" d="M129.13,66.09h-.74v-.33l.76-1h.31v1h.23v.3h-.23v.4h-.33Zm0-.9h0l-.45.6h.46Z"/><path class="cls-7" d="M133.41,2.44h-.36V1.31h-.44V1c.25,0,.48-.08.52-.35h.28Z"/><path class="cls-7" d="M133,5.37c.15,0,.37,0,.37-.21a.24.24,0,0,0-.23-.24h0c-.18,0-.27.13-.27.31h-.33a.58.58,0,0,1,.6-.61.54.54,0,0,1,.58.49.34.34,0,0,1-.24.36h0a.39.39,0,0,1,.31.4.65.65,0,0,1-1.3-.06h.34c0,.19.1.34.31.34a.27.27,0,0,0,.28-.25v0c0-.26-.23-.26-.4-.26Z"/><path class="cls-7" d="M133.68,9.05H133l-.07.4h0a.43.43,0,0,1,.34-.13.54.54,0,0,1,.54.59.63.63,0,0,1-.63.63h0a.57.57,0,0,1-.64-.55h.35a.28.28,0,0,0,.29.26.31.31,0,0,0,.3-.33h0a.31.31,0,0,0-.27-.33h0a.29.29,0,0,0-.27.14h-.32l.17-1h1Z"/><path class="cls-7" d="M132.85,17.94a.25.25,0,0,0,.23.22c.26,0,.32-.34.34-.53h0a.44.44,0,0,1-.39.19.55.55,0,0,1-.4-.18.62.62,0,0,1-.14-.39.61.61,0,0,1,.61-.64c.53,0,.67.46.67.9s-.19.92-.68.92a.54.54,0,0,1-.57-.49Zm.53-.71a.28.28,0,0,0-.27-.32h0a.29.29,0,0,0-.27.31.3.3,0,0,0,.27.33A.28.28,0,0,0,133.38,17.23Z"/><path class="cls-7" d="M132.71,22.36h-.35V21.23h-.44V21c.25,0,.47-.08.51-.35h.28Z"/><path class="cls-7" d="M134.1,22.36h-.36V21.23h-.43V21c.24,0,.47-.08.51-.35h.28Z"/><path class="cls-7" d="M132.71,34.46h-.35V33.33h-.44v-.27c.25,0,.47-.08.51-.34h.28Z"/><path class="cls-7" d="M134.41,33a2.15,2.15,0,0,0-.57,1.45h-.38a2.57,2.57,0,0,1,.59-1.42h-.83v-.33h1.19Z"/><path class="cls-7" d="M132.71,38.52h-.35V37.39h-.44v-.27c.25,0,.47-.08.51-.35h.28Z"/><path class="cls-7" d="M133.54,38.07a.26.26,0,0,0,.23.22c.26,0,.33-.34.34-.53h0a.43.43,0,0,1-.39.2.6.6,0,0,1-.4-.18.62.62,0,0,1-.14-.39.61.61,0,0,1,.61-.64c.53,0,.67.46.67.9s-.18.91-.68.91a.53.53,0,0,1-.57-.48Zm.54-.72a.31.31,0,0,0-.28-.32h0a.3.3,0,0,0-.27.32.3.3,0,0,0,.27.33c.19,0,.28-.15.28-.33Z"/><path class="cls-7" d="M131.83,41.6a.62.62,0,0,1,.63-.71.56.56,0,0,1,.6.55c0,.52-.56.57-.81.92h.82v.31h-1.28c0-.41.25-.58.55-.78.15-.11.37-.21.37-.43a.25.25,0,0,0-.23-.27h0c-.21,0-.28.22-.28.4Z"/><path class="cls-7" d="M134.1,42.67h-.36V41.54h-.43v-.27a.44.44,0,0,0,.51-.35h.28Z"/><path class="cls-7" d="M131.83,45.59a.61.61,0,0,1,.63-.7.55.55,0,0,1,.6.54c0,.53-.56.57-.81.93h.82v.3h-1.28c0-.41.25-.57.55-.78.15-.11.37-.21.37-.42a.25.25,0,0,0-.23-.27h0c-.21,0-.28.21-.28.4Z"/><path class="cls-7" d="M133.69,45.63c.15,0,.37,0,.37-.22a.23.23,0,0,0-.23-.23h0c-.18,0-.27.13-.27.31h-.33a.57.57,0,0,1,.6-.6.54.54,0,0,1,.59.48.35.35,0,0,1-.25.36h0a.39.39,0,0,1,.31.4.6.6,0,0,1-.65.57.58.58,0,0,1-.64-.63h.33c0,.19.1.34.31.34a.27.27,0,0,0,.28-.26h0c0-.26-.23-.26-.4-.26Z"/><path class="cls-7" d="M128.44,6.11h-.74V5.79l.76-1h.31v1H129v.29h-.23v.4h-.33Zm0-.89h0l-.45.6h.46Z"/><path class="cls-7" d="M127.94,22.47h-.35V21.34h-.44v-.27c.25,0,.47-.08.51-.35h.28Z"/><path class="cls-7" d="M128.44,21.4a.63.63,0,0,1,.64-.71.56.56,0,0,1,.59.55c0,.53-.56.57-.81.93h.83v.3h-1.28c0-.4.24-.57.55-.78.15-.11.36-.21.36-.42a.25.25,0,0,0-.23-.27,0,0,0,0,0,0,0c-.21,0-.28.21-.28.4Z"/><path class="cls-7" d="M127.94,30.55h-.35V29.42h-.44v-.27c.25,0,.47-.08.51-.35h.28Z"/><path class="cls-7" d="M129.32,29.26a.27.27,0,0,0-.24-.22c-.25,0-.32.34-.33.53h0a.41.41,0,0,1,.39-.2.55.55,0,0,1,.4.18.63.63,0,0,1-.44,1h0c-.52,0-.66-.46-.66-.9s.18-.91.68-.91a.52.52,0,0,1,.56.48Zm-.54.71a.3.3,0,0,0,.28.32h0a.29.29,0,0,0,.28-.31.3.3,0,0,0-.28-.33.29.29,0,0,0-.28.32Z"/><path class="cls-7" d="M127.94,34.57h-.35V33.44h-.44v-.27c.25,0,.47-.08.51-.34h.28Z"/><path class="cls-7" d="M129.05,32.79a.52.52,0,0,1,.58.47.37.37,0,0,1-.25.36h0a.39.39,0,0,1,.32.42.58.58,0,0,1-.65.55c-.33,0-.66-.17-.66-.54a.41.41,0,0,1,.33-.43h0a.36.36,0,0,1-.26-.36A.53.53,0,0,1,129.05,32.79Zm0,1.55a.3.3,0,0,0,.3-.28v0a.3.3,0,0,0-.29-.28h0a.28.28,0,0,0-.31.28.3.3,0,0,0,.29.3Zm0-.82a.24.24,0,1,0,0-.47h0a.24.24,0,0,0-.27.22v0a.24.24,0,0,0,.27.24Z"/><path class="cls-7" d="M127.06,41.71a.62.62,0,0,1,.63-.71.56.56,0,0,1,.6.55c0,.52-.56.57-.81.93h.82v.3H127c0-.41.25-.57.55-.78s.37-.21.37-.43a.26.26,0,0,0-.23-.27h0c-.2,0-.27.22-.27.4Z"/><path class="cls-7" d="M128.44,41.71a.63.63,0,0,1,.64-.71.56.56,0,0,1,.59.55c0,.52-.56.57-.81.93h.83v.3h-1.28c0-.41.24-.57.55-.78.15-.11.36-.21.36-.43a.25.25,0,0,0-.23-.27h0c-.21,0-.28.22-.28.4Z"/><path class="cls-7" d="M128.63,9.32a.27.27,0,0,0-.24-.22c-.25,0-.32.34-.33.53h0a.45.45,0,0,1,.4-.19.57.57,0,0,1,.4.18A.56.56,0,0,1,129,10a.6.6,0,0,1-.61.64c-.53,0-.67-.46-.67-.9s.19-.92.69-.92a.53.53,0,0,1,.56.49Zm-.54.71a.29.29,0,0,0,.27.32h0a.29.29,0,0,0,.27-.31c0-.16-.08-.33-.27-.33A.29.29,0,0,0,128.09,10Z"/><polygon class="cls-14" points="123.85 4.06 120.47 4.06 118.79 5.51 120.47 6.96 123.85 6.96 125.53 5.51 123.85 4.06"/><path class="cls-7" d="M121.4,6a.56.56,0,0,1-.44.22.76.76,0,0,1-.78-.82A.78.78,0,0,1,121,4.6a.64.64,0,0,1,.67.56h-.33a.33.33,0,0,0-.34-.27c-.31,0-.43.27-.43.54s.12.53.43.53a.34.34,0,0,0,.38-.3v0H121V5.37h.67v.85h-.22Z"/><path class="cls-7" d="M121.94,4.64h.34l.66,1.06h0V4.64h.32V6.22h-.35l-.65-1.06h0V6.22h-.33Z"/><path class="cls-7" d="M123.58,4.64h.68a.69.69,0,0,1,.72.78c0,.46-.23.8-.72.8h-.68Zm.35,1.29h.31c.2,0,.39-.12.39-.47s-.11-.53-.45-.53h-.25Z"/><rect class="cls-14" x="123.49" y="76.32" width="2.47" height="2.9" rx="0.41"/><polygon class="cls-14" points="123.85 76.32 120.47 76.32 118.79 77.77 120.47 79.22 123.85 79.22 125.53 77.77 123.85 76.32"/><path class="cls-7" d="M121.4,78.3a.54.54,0,0,1-.44.22.83.83,0,0,1,0-1.66.64.64,0,0,1,.67.56h-.33a.34.34,0,0,0-.34-.27c-.31,0-.43.27-.43.55s.12.52.43.52a.33.33,0,0,0,.38-.3v0H121v-.26h.67v.86h-.22Z"/><path class="cls-7" d="M121.94,76.9h.34l.66,1.06h0V76.9h.32v1.58h-.35l-.65-1.06h0v1.06h-.33Z"/><path class="cls-7" d="M123.58,76.9h.68a.69.69,0,0,1,.72.78c0,.46-.23.8-.72.8h-.68Zm.35,1.29h.31c.2,0,.39-.13.39-.48s-.11-.52-.45-.52h-.25Z"/><rect class="cls-14" x="135.53" y="4.06" width="2.47" height="2.9" rx="0.41"/><polygon class="cls-14" points="137.67 4.06 141.04 4.06 142.72 5.51 141.04 6.97 137.67 6.97 135.98 5.51 137.67 4.06"/><path class="cls-7" d="M137.7,6a.54.54,0,0,1-.44.22.76.76,0,0,1-.78-.82.78.78,0,0,1,.78-.84.64.64,0,0,1,.67.56h-.33a.33.33,0,0,0-.34-.27c-.31,0-.43.27-.43.54s.12.53.43.53a.34.34,0,0,0,.38-.3v0h-.35V5.37H138v.85h-.22Z"/><path class="cls-7" d="M138.24,4.64h.34l.66,1.06h0V4.64h.33V6.22h-.34l-.66-1.06h0V6.22h-.33Z"/><path class="cls-7" d="M139.88,4.64h.69a.69.69,0,0,1,.72.78.71.71,0,0,1-.72.8h-.69Zm.35,1.29h.31c.2,0,.39-.12.39-.47s-.11-.53-.45-.53h-.25Z"/><rect class="cls-14" x="135.53" y="76.32" width="2.47" height="2.9" rx="0.41"/><polygon class="cls-14" points="137.67 76.32 141.04 76.32 142.72 77.77 141.04 79.22 137.67 79.22 135.98 77.77 137.67 76.32"/><path class="cls-7" d="M137.7,78.3a.54.54,0,0,1-.44.22.83.83,0,0,1,0-1.66.64.64,0,0,1,.67.56h-.33a.33.33,0,0,0-.34-.27c-.31,0-.43.27-.43.54s.12.53.43.53a.34.34,0,0,0,.38-.3v0h-.35v-.26H138v.86h-.22Z"/><path class="cls-7" d="M138.24,76.9h.34l.66,1.06h0V76.9h.33v1.58h-.34l-.66-1.06h0v1.06h-.33Z"/><path class="cls-7" d="M139.88,76.9h.69a.69.69,0,0,1,.72.78.71.71,0,0,1-.72.8h-.69Zm.35,1.29h.31c.2,0,.39-.13.39-.48s-.11-.52-.45-.52h-.25Z"/><path class="cls-7" d="M128.36,12.82a.52.52,0,0,1,.58.47.36.36,0,0,1-.26.36h0a.42.42,0,0,1,.33.43.59.59,0,0,1-.65.55c-.33,0-.66-.17-.66-.54a.4.4,0,0,1,.32-.43h0a.35.35,0,0,1-.25-.36A.53.53,0,0,1,128.36,12.82Zm0,1.55a.29.29,0,0,0,.29-.28s0,0,0,0a.28.28,0,0,0-.28-.28h0a.28.28,0,0,0-.31.28.3.3,0,0,0,.29.3Zm0-.82c.14,0,.26-.07.26-.22a.25.25,0,0,0-.22-.25h0a.25.25,0,0,0-.27.22v0a.25.25,0,0,0,.28.23Z"/><path class="cls-7" d="M127.94,18.5h-.35V17.37h-.44V17.1c.25,0,.47-.08.51-.35h.28Z"/><path class="cls-7" d="M129,16.72c.35,0,.65.22.65.9s-.3.92-.65.92-.63-.22-.63-.92S128.7,16.72,129,16.72Zm0,1.52c.29,0,.29-.42.29-.62s0-.61-.29-.61-.28.43-.28.61S128.76,18.24,129,18.24Z"/><path class="cls-7" d="M127.94,26.57h-.35V25.43h-.44v-.26c.25,0,.47-.08.51-.35h.28Z"/><path class="cls-7" d="M129.13,26.16h-.74v-.32l.76-1h.31v1.05h.23v.29h-.23v.41h-.33Zm0-.9h0l-.45.61h.46Z"/><path class="cls-7" d="M127.06,37.55a.61.61,0,0,1,.63-.7.55.55,0,0,1,.6.54c0,.53-.56.57-.81.93h.82v.3H127c0-.41.25-.57.55-.78s.37-.21.37-.42a.25.25,0,0,0-.23-.27h0c-.2,0-.27.22-.27.41Z"/><path class="cls-7" d="M129,36.85c.35,0,.65.22.65.9s-.3.92-.65.92-.63-.22-.63-.92S128.7,36.85,129,36.85Zm0,1.52c.29,0,.29-.43.29-.62s0-.61-.29-.61-.28.43-.28.61,0,.62.28.62Z"/><path class="cls-7" d="M127.06,45.68a.61.61,0,0,1,.63-.7.55.55,0,0,1,.6.54c0,.53-.56.57-.81.93h.82v.3H127c0-.4.25-.57.55-.78s.37-.21.37-.42a.26.26,0,0,0-.23-.27h0c-.2,0-.27.21-.27.4Z"/><path class="cls-7" d="M129.13,46.35h-.74V46l.76-1h.31v1.05h.23v.29h-.23v.4h-.33Zm0-.9h0l-.45.61h.46Z"/><path class="cls-7" d="M133.72,13.05a2.14,2.14,0,0,0-.57,1.44h-.38a2.53,2.53,0,0,1,.58-1.41h-.82v-.33h1.19Z"/><path class="cls-7" d="M132.71,26.46h-.35V25.33h-.44v-.27c.25,0,.47-.08.51-.35h.28Z"/><path class="cls-7" d="M133.69,25.42c.15,0,.37,0,.37-.22a.23.23,0,0,0-.23-.23h0c-.18,0-.27.13-.27.31h-.33a.57.57,0,0,1,.6-.6.54.54,0,0,1,.59.48.35.35,0,0,1-.25.36h0a.39.39,0,0,1,.31.4.6.6,0,0,1-.65.57.58.58,0,0,1-.64-.63h.33c0,.19.1.34.31.34a.26.26,0,0,0,.28-.25v0c0-.26-.23-.26-.4-.26Z"/><path class="cls-7" d="M132.71,30.44h-.35V29.31h-.44v-.26c.25,0,.47-.08.51-.35h.28Z"/><path class="cls-7" d="M134.37,29h-.72l-.07.4h0a.43.43,0,0,1,.34-.13.54.54,0,0,1,.54.59.63.63,0,0,1-.63.63h0a.59.59,0,0,1-.65-.55h.35a.28.28,0,0,0,.29.26.32.32,0,0,0,.3-.33h0a.29.29,0,0,0-.27-.32h0a.27.27,0,0,0-.27.14h-.32l.17-1h1Z"/><polygon class="cls-15" points="137.34 8.1 140.25 8.1 141.71 9.55 140.25 11.01 137.34 11.01 135.88 9.55 137.34 8.1"/><path class="cls-15" d="M135.53,8.1h4.32a.43.43,0,0,1,.43.43v2.06a.43.43,0,0,1-.43.43h-4.32a0,0,0,0,1,0,0V8.1A0,0,0,0,1,135.53,8.1Z" transform="translate(275.81 19.11) rotate(-180)"/><polygon class="cls-15" points="123.46 9.55 122 11.01 119.09 11.01 117.63 9.55 119.09 8.1 122 8.1 123.46 9.55"/><path class="cls-15" d="M121.21,8.1h4.32a.43.43,0,0,1,.43.43v2.06a.43.43,0,0,1-.43.43h-4.32a0,0,0,0,1,0,0V8.1A0,0,0,0,1,121.21,8.1Z"/><path class="cls-7" d="M137,9.35c.14,0,.33,0,.33-.2a.2.2,0,0,0-.2-.2h0c-.16,0-.24.12-.24.28h-.3a.53.53,0,0,1,.54-.55.48.48,0,0,1,.52.43.31.31,0,0,1-.22.32h0a.34.34,0,0,1,.27.35.58.58,0,0,1-1.15,0h.3c0,.17.09.3.27.3a.23.23,0,0,0,.25-.22v0c0-.23-.2-.23-.36-.23Z"/><path class="cls-7" d="M138.5,10.27h-.35l-.39-1.15h.33l.24.79h0l.24-.79h.32Z"/><path class="cls-7" d="M139.41,9.35c.13,0,.33,0,.33-.2a.2.2,0,0,0-.2-.2h0c-.16,0-.24.12-.24.28H139a.52.52,0,0,1,.54-.55.48.48,0,0,1,.52.43.31.31,0,0,1-.22.32h0a.34.34,0,0,1,.27.35.58.58,0,0,1-1.15,0h.3c0,.17.09.3.27.3a.23.23,0,0,0,.25-.22v0c0-.23-.2-.23-.36-.23Z"/><path class="cls-7" d="M119.35,9.33c.13,0,.33,0,.33-.19a.2.2,0,0,0-.22-.21c-.16,0-.24.12-.24.28h-.3a.51.51,0,0,1,.54-.54.48.48,0,0,1,.53.43.32.32,0,0,1-.22.32h0a.34.34,0,0,1,.27.35.58.58,0,0,1-1.16,0h.3c0,.17.09.31.28.31a.24.24,0,0,0,.25-.25c0-.24-.21-.23-.36-.23Z"/><path class="cls-7" d="M120.85,10.27h-.35l-.4-1.16h.33l.25.79h0l.25-.79h.31Z"/><path class="cls-7" d="M121.77,9.33c.14,0,.33,0,.33-.19a.2.2,0,0,0-.22-.21c-.16,0-.24.12-.24.28h-.3a.51.51,0,0,1,.54-.54.48.48,0,0,1,.53.43.32.32,0,0,1-.22.32h0a.34.34,0,0,1,.27.35.58.58,0,0,1-1.16,0h.3c0,.17.09.31.28.31a.24.24,0,0,0,.25-.25c0-.24-.21-.23-.36-.23Z"/><path class="cls-7" d="M122.51,10.44h1.12v.11h-1.12Z"/><path class="cls-7" d="M124,9.74c0,.21.16.29.35.29s.31,0,.31-.2-.24-.2-.47-.26-.48-.16-.48-.46.31-.48.6-.48.64.14.64.51h-.34c0-.19-.15-.24-.32-.24s-.24,0-.24.18.08.14.48.25c.12,0,.48.1.48.46s-.23.52-.67.52-.69-.18-.68-.57Z"/><path class="cls-16" d="M125.69,72.37a.29.29,0,0,1,.27.29V75a.29.29,0,0,1-.28.28h-3.51l-1.9-1.45,1.9-1.46h3.52Z"/><polygon class="cls-16" points="125.75 73.83 124.29 72.37 121.37 72.37 119.91 73.83 121.37 75.28 124.29 75.28 125.75 73.83"/><path class="cls-7" d="M122.83,73.05a.84.84,0,0,1,0,1.67.84.84,0,0,1,0-1.67Zm0,1.37c.32,0,.44-.26.44-.53s-.12-.54-.44-.54-.43.26-.43.54S122.52,74.42,122.83,74.42Z"/><path class="cls-7" d="M123.85,73.09H125v.29h-.84v.35H125V74h-.77v.39h.86v.29h-1.21Z"/><path class="cls-17" d="M135.76,36.1H145a.27.27,0,0,1,.24.3v2.32a.28.28,0,0,1-.24.3h-9.2a.28.28,0,0,1-.24-.3V36.4A.27.27,0,0,1,135.76,36.1Z"/><polygon class="cls-17" points="146.81 36.1 143.88 36.1 142.41 37.56 143.88 39.02 146.81 39.02 148.28 37.56 146.81 36.1"/><g class="cls-18"><path class="cls-7" d="M136.45,36.7h.35v1.59h-.35Z"/><path class="cls-7" d="M137,37.33a.56.56,0,0,1,.57-.63.5.5,0,0,1,.54.49c0,.47-.5.51-.73.83h.73v.27H137c0-.36.22-.51.49-.69s.33-.19.33-.38a.23.23,0,0,0-.24-.24c-.18,0-.24.19-.24.35Z"/><path class="cls-7" d="M139.41,37.24a.36.36,0,0,0-.35-.28c-.32,0-.43.27-.43.55s.11.53.43.53a.36.36,0,0,0,.36-.36h.34a.67.67,0,0,1-.7.65.83.83,0,0,1,0-1.66.63.63,0,0,1,.68.57Z"/><path class="cls-7" d="M140.72,38.29h-.32v-1H140V37c.22,0,.42-.07.45-.31h.25v1.56Z"/><path class="cls-7" d="M141.08,38.46h1.11v.11h-1.11Z"/><path class="cls-7" d="M142.59,37.77c0,.21.16.29.35.29s.31,0,.31-.2-.24-.2-.48-.26-.47-.16-.47-.45.31-.48.6-.48.63.14.63.51h-.34c0-.19-.14-.24-.31-.24s-.24.05-.24.18.08.14.47.24c.12,0,.48.1.48.46s-.23.51-.66.51-.69-.17-.68-.56Z"/><path class="cls-7" d="M143.79,36.7h.69a.7.7,0,0,1,.72.79.71.71,0,0,1-.72.8h-.69Zm.35,1.3h.31c.21,0,.4-.12.4-.48s-.11-.52-.46-.52h-.25v1Z"/><path class="cls-7" d="M145.88,36.7h.36l.59,1.59h-.36l-.12-.35h-.6l-.12.35h-.36Zm0,1h.42l-.2-.58h0Z"/></g><rect class="cls-17" x="114.8" y="36.11" width="11.16" height="2.92" rx="0.28"/><polygon class="cls-17" points="113.43 37.57 114.9 39.03 117.83 39.03 119.3 37.57 117.83 36.11 114.9 36.11 113.43 37.57"/><g class="cls-18"><path class="cls-7" d="M114.9,36.71h.35V38.3h-.35Z"/><path class="cls-7" d="M115.48,37.34a.56.56,0,0,1,.57-.63.49.49,0,0,1,.53.49c0,.47-.5.51-.73.83h.74v.27h-1.14c0-.36.22-.51.49-.7s.33-.18.33-.38A.23.23,0,0,0,116,37c-.19,0-.25.2-.25.36Z"/><path class="cls-7" d="M117.85,37.25a.34.34,0,0,0-.35-.28c-.31,0-.43.27-.43.54s.12.54.43.54a.37.37,0,0,0,.37-.36h.33a.66.66,0,0,1-.7.65.84.84,0,0,1,0-1.67.65.65,0,0,1,.69.58Z"/><path class="cls-7" d="M119.16,38.3h-.31v-1h-.4v-.24c.22,0,.42-.07.46-.31h.25V38.3Z"/><path class="cls-7" d="M119.53,38.47h1.11v.11h-1.11Z"/><path class="cls-7" d="M121,37.77c0,.22.17.3.35.3s.31,0,.31-.2-.24-.2-.47-.26-.47-.16-.47-.46a.53.53,0,0,1,.59-.48c.33,0,.64.15.64.52h-.34c0-.19-.14-.24-.31-.24s-.24,0-.24.18.07.14.47.24c.12,0,.47.1.47.46s-.22.51-.66.51-.68-.17-.68-.57Z"/><path class="cls-7" d="M123.3,37.25A.35.35,0,0,0,123,37c-.31,0-.43.27-.43.54s.12.54.43.54a.35.35,0,0,0,.36-.36h.34a.67.67,0,0,1-.7.65.84.84,0,0,1,0-1.67.65.65,0,0,1,.69.58Z"/><path class="cls-7" d="M123.89,36.71h.35V38H125v.29h-1.12Z"/></g><path class="cls-19" d="M97,7.28h-.24V6.5h-.3V6.32c.17,0,.32-.06.35-.24H97Z"/><path class="cls-19" d="M96.35,13.6a.43.43,0,0,1,.44-.48.38.38,0,0,1,.41.37c0,.37-.39.39-.56.64h.56v.21h-.87c0-.28.17-.39.37-.54s.25-.14.25-.29a.17.17,0,0,0-.18-.18c-.14,0-.18.15-.18.27Z"/><path class="cls-19" d="M70.42,6.56c.1,0,.25,0,.25-.14a.15.15,0,0,0-.16-.16.18.18,0,0,0-.19.21h-.23a.39.39,0,0,1,.41-.41.36.36,0,0,1,.4.33.23.23,0,0,1-.16.24h0a.26.26,0,0,1,.21.27.4.4,0,0,1-.44.39.41.41,0,0,1-.45-.43h.23c0,.12.07.23.21.23a.19.19,0,0,0,.2-.19c0-.18-.16-.17-.28-.17Z"/><path class="cls-19" d="M71.27,7a.16.16,0,0,0,.16.15c.18,0,.22-.23.23-.37h0a.28.28,0,0,1-.27.13.36.36,0,0,1-.27-.12A.37.37,0,0,1,71,6.49a.4.4,0,0,1,.41-.43c.37,0,.46.31.46.62s-.13.62-.47.62A.36.36,0,0,1,71,7Zm.36-.49a.19.19,0,1,0-.37,0,.2.2,0,0,0,.18.22C71.57,6.7,71.63,6.6,71.63,6.48Z"/><path class="cls-19" d="M70.56,14.06h-.5v-.22l.52-.7h.21v.72H71v.2h-.16v.28h-.23Zm0-.61h0l-.31.41h.31Z"/><path class="cls-19" d="M71.45,13.12c.24,0,.44.15.44.62s-.2.62-.44.62-.43-.15-.43-.62S71.22,13.12,71.45,13.12Zm0,1c.2,0,.2-.29.2-.42s0-.42-.2-.42-.19.29-.19.42S71.26,14.16,71.45,14.16Z"/></g></g></g></svg>