<svg id="Layer_1" data-name="Layer 1" xmlns="http://www.w3.org/2000/svg" viewBox="0 0 1745.7 832.3"><defs><style>.cls-1{fill:#26292e;}.cls-2{fill:#4c5059;}.cls-3{fill:#a6762a;}.cls-4{fill:#b68f31;}.cls-5{fill:#956725;}.cls-6{fill:#ffeeb6;}.cls-7{fill:#e5d1b0;}.cls-8{fill:#1b1c20;}.cls-9{fill:#121318;}.cls-10{fill:#4f5b5b;}.cls-11{fill:#1e2628;}.cls-12{fill:#1b1e22;}.cls-13{fill:#31383b;}.cls-14{fill:#868d90;}.cls-15{fill:#141c1f;}.cls-16{fill:#273039;}.cls-17{fill:#1c2127;}.cls-18{fill:#232732;}.cls-19{fill:#0b0e12;}.cls-20{fill:#4c4f58;opacity:0.35;isolation:isolate;}.cls-21{fill:#505551;}.cls-22{fill:#13181c;}.cls-23{fill:#616066;}.cls-24{fill:#d38d29;}.cls-25{fill:#393d3a;}.cls-26,.cls-29{fill:none;}.cls-26{stroke:#fff200;stroke-miterlimit:9;}.cls-27{fill:#fff200;}.cls-28{fill:#333;}.cls-29{stroke:#1b1e22;stroke-miterlimit:10;stroke-width:4px;}</style></defs><rect class="cls-1" x="770.1" y="295.3" width="409.1" height="285.4"/><rect class="cls-2" x="770.1" y="295.3" width="12.1" height="285.4"/><rect class="cls-2" x="1159.8" y="295.3" width="12.1" height="285.4"/><circle class="cls-3" cx="860.2" cy="335.7" r="31.8"/><circle class="cls-4" cx="860.2" cy="335.7" r="26.6"/><circle class="cls-5" cx="860.2" cy="335.7" r="24.5"/><circle class="cls-6" cx="860.2" cy="335.7" r="20.8"/><circle class="cls-7" cx="860.2" cy="335.7" r="16.1"/><circle class="cls-5" cx="860.2" cy="335.7" r="4.3"/><path class="cls-8" d="M1030.6,542.7H938.5a10.07,10.07,0,0,1-10.1-10.1v-24a10.07,10.07,0,0,1,10.1-10.1h92.1a10.07,10.07,0,0,1,10.1,10.1v24A10.07,10.07,0,0,1,1030.6,542.7Z"/><path class="cls-9" d="M1022.3,534.3h-76a9.86,9.86,0,0,1-9.9-9.9V514.3h95.8v10.1A9.92,9.92,0,0,1,1022.3,534.3Z"/><rect class="cls-10" x="936.5" y="507.8" width="95.8" height="6.5"/><rect class="cls-11" x="936.5" y="517.3" width="95.8" height="6.5"/><circle class="cls-9" cx="1078.5" cy="489.2" r="4.6"/><circle class="cls-9" cx="1094.8" cy="489.2" r="4.6"/><circle class="cls-12" cx="860.2" cy="445.4" r="30"/><circle class="cls-13" cx="860.2" cy="445.4" r="22.9"/><circle class="cls-12" cx="1082.8" cy="445.4" r="30"/><circle class="cls-13" cx="1082.8" cy="445.4" r="22.9"/><circle class="cls-12" cx="1082.8" cy="335.7" r="30"/><circle class="cls-13" cx="1082.8" cy="335.7" r="22.9"/><rect class="cls-1" x="1254" y="295.1" width="409.1" height="285.4"/><rect class="cls-2" x="1254" y="295.1" width="12.1" height="285.4"/><rect class="cls-2" x="1643.7" y="295.1" width="12.1" height="285.4"/><rect class="cls-1" x="767.2" y="260.6" width="59.4" height="34.8"/><rect class="cls-1" x="1115.9" y="260.6" width="63.9" height="34.8"/><rect class="cls-1" x="825.39" y="284.2" width="308.51" height="11.2"/><rect class="cls-1" x="842.5" y="260.6" width="12.7" height="34.8"/><rect class="cls-1" x="874" y="260.6" width="12.7" height="34.8"/><rect class="cls-1" x="905.5" y="260.6" width="12.7" height="34.8"/><rect class="cls-1" x="1026.8" y="260.6" width="12.7" height="34.8"/><rect class="cls-1" x="966.2" y="260.6" width="12.7" height="34.8"/><rect class="cls-1" x="1058.3" y="260.6" width="12.7" height="34.8"/><rect class="cls-1" x="1089.9" y="260.6" width="12.7" height="34.8"/><rect class="cls-1" x="938.8" y="260.6" width="66.1" height="9.1"/><rect class="cls-1" x="1251.2" y="260.3" width="59.4" height="34.8"/><rect class="cls-1" x="1599.8" y="260.3" width="63.9" height="34.8"/><rect class="cls-1" x="1310.6" y="284" width="307.2" height="11.1"/><rect class="cls-1" x="1326.4" y="260.3" width="12.7" height="34.8"/><rect class="cls-1" x="1357.9" y="260.3" width="12.7" height="34.8"/><rect class="cls-1" x="1389.4" y="260.3" width="12.7" height="34.8"/><rect class="cls-1" x="1510.7" y="260.3" width="12.7" height="34.8"/><rect class="cls-1" x="1450.1" y="260.3" width="12.7" height="34.8"/><rect class="cls-1" x="1542.3" y="260.3" width="12.7" height="34.8"/><rect class="cls-1" x="1573.8" y="260.3" width="12.7" height="34.8"/><rect class="cls-1" x="1422.8" y="260.3" width="66.1" height="9.1"/><rect class="cls-1" x="767.2" y="580" width="59.4" height="34.8"/><rect class="cls-1" x="1115.9" y="580" width="63.9" height="34.8"/><rect class="cls-1" x="826.7" y="580" width="307.2" height="11.1"/><rect class="cls-1" x="842.5" y="580" width="12.7" height="34.8"/><rect class="cls-1" x="874" y="580" width="12.7" height="34.8"/><rect class="cls-1" x="905.5" y="580" width="12.7" height="34.8"/><rect class="cls-1" x="1026.8" y="580" width="12.7" height="34.8"/><rect class="cls-1" x="966.2" y="580" width="12.7" height="34.8"/><rect class="cls-1" x="1058.3" y="580" width="12.7" height="34.8"/><rect class="cls-1" x="1089.9" y="580" width="12.7" height="34.8"/><rect class="cls-1" x="938.8" y="605.6" width="66.1" height="9.1"/><rect class="cls-1" x="1251.2" y="580.3" width="59.4" height="34.8"/><rect class="cls-1" x="1599.8" y="580.3" width="63.9" height="34.8"/><rect class="cls-1" x="1310.6" y="580.3" width="307.2" height="11.1"/><rect class="cls-1" x="1326.4" y="580.3" width="12.7" height="34.8"/><rect class="cls-1" x="1357.9" y="580.3" width="12.7" height="34.8"/><rect class="cls-1" x="1389.4" y="580.3" width="12.7" height="34.8"/><rect class="cls-1" x="1510.7" y="580.3" width="12.7" height="34.8"/><rect class="cls-1" x="1450.1" y="580.3" width="12.7" height="34.8"/><rect class="cls-1" x="1542.3" y="580.3" width="12.7" height="34.8"/><rect class="cls-1" x="1573.8" y="580.3" width="12.7" height="34.8"/><rect class="cls-1" x="1422.8" y="606" width="66.1" height="9.1"/><path class="cls-14" d="M1382.7,529H1312a6.27,6.27,0,0,1-6.3-6.3V441.5a6.27,6.27,0,0,1,6.3-6.3h70.7a6.27,6.27,0,0,1,6.3,6.3v81.2A6.34,6.34,0,0,1,1382.7,529Z"/><path class="cls-14" d="M1490.2,529h-70.7a6.27,6.27,0,0,1-6.3-6.3V441.5a6.27,6.27,0,0,1,6.3-6.3h70.7a6.27,6.27,0,0,1,6.3,6.3v81.2A6.27,6.27,0,0,1,1490.2,529Z"/><rect class="cls-14" x="1521.3" y="450.7" width="93.4" height="84.5"/><rect class="cls-15" x="1529.5" y="464.8" width="77.6" height="53.6"/><rect class="cls-15" x="1554" y="502" width="28.1" height="28.1"/><rect class="cls-16" x="140.1" y="255.9" width="572.9" height="329.4"/><rect class="cls-17" x="140.1" y="255.9" width="572.9" height="39.1"/><rect class="cls-18" x="140.1" y="294.9" width="32.9" height="290.3"/><rect class="cls-18" x="543.8" y="294.9" width="169.3" height="290.3"/><rect class="cls-19" x="533.8" y="294.9" width="10" height="290.3"/><rect class="cls-19" x="173" y="294.8" width="370.7" height="10.3"/><rect class="cls-20" x="696.6" y="255.9" width="7.3" height="334.5"/><path class="cls-21" d="M244.8,536.2H206.5a8.71,8.71,0,0,1-8.7-8.7v-8.2a8.71,8.71,0,0,1,8.7-8.7h38.3a8.71,8.71,0,0,1,8.7,8.7v8.2A8.71,8.71,0,0,1,244.8,536.2Z"/><path class="cls-22" d="M244.7,529.6H207.9a5.55,5.55,0,0,1-5.5-5.5v-2.8a5.55,5.55,0,0,1,5.5-5.5h36.8a5.55,5.55,0,0,1,5.5,5.5v2.8A5.62,5.62,0,0,1,244.7,529.6Z"/><rect class="cls-23" x="206.1" y="519.9" width="40" height="5.1"/><rect class="cls-24" x="125.8" y="323.5" width="14.3" height="27.1"/><rect class="cls-24" x="82" y="320.4" width="44.05" height="32.4"/><rect class="cls-3" x="125.8" y="310.8" width="14.3" height="55.3"/><path class="cls-3" d="M125,344c-.1-2.6-.1-5.2-.1-7.8s0-5.2.1-7.8c.1,2.6.1,5.2.1,7.8S125,341.4,125,344Z"/><path class="cls-3" d="M123.8,350.2a10.87,10.87,0,0,1,0-3.6,14,14,0,0,1,1-3.5A13.28,13.28,0,0,1,123.8,350.2Z"/><path class="cls-3" d="M125.9,350.2a14,14,0,0,1-1-3.5,10.88,10.88,0,0,1,0-3.6,14,14,0,0,1,1,3.5A10.87,10.87,0,0,1,125.9,350.2Z"/><path class="cls-3" d="M123.8,348.7a14,14,0,0,1,1,3.5,10.87,10.87,0,0,1,0,3.6,14,14,0,0,1-1-3.5A21.63,21.63,0,0,1,123.8,348.7Z"/><path class="cls-3" d="M125.9,348.7a13,13,0,0,1-1,7.1,15.74,15.74,0,0,1,1-7.1Z"/><path class="cls-3" d="M122,350.2a10.88,10.88,0,0,1,0-3.6,14,14,0,0,1,1-3.5A14.32,14.32,0,0,1,122,350.2Z"/><path class="cls-3" d="M124.1,350.2a14,14,0,0,1-1-3.5,10.88,10.88,0,0,1,0-3.6,14,14,0,0,1,1,3.5A21.64,21.64,0,0,1,124.1,350.2Z"/><path class="cls-3" d="M122,348.7a14,14,0,0,1,1,3.5,10.87,10.87,0,0,1,0,3.6,14,14,0,0,1-1-3.5A10.87,10.87,0,0,1,122,348.7Z"/><path class="cls-3" d="M124.1,348.7a10.87,10.87,0,0,1,0,3.6,14,14,0,0,1-1,3.5A13.41,13.41,0,0,1,124.1,348.7Z"/><path class="cls-3" d="M120.1,350.2a13,13,0,0,1,1-7.1,14.32,14.32,0,0,1-1,7.1Z"/><path class="cls-3" d="M122.2,350.2a14,14,0,0,1-1-3.5,10.88,10.88,0,0,1,0-3.6,14,14,0,0,1,1,3.5A10.88,10.88,0,0,1,122.2,350.2Z"/><path class="cls-3" d="M120.1,348.7a14.32,14.32,0,0,1,1,7.1,14,14,0,0,1-1-3.5A21.63,21.63,0,0,1,120.1,348.7Z"/><path class="cls-3" d="M122.2,348.7a10.88,10.88,0,0,1,0,3.6,14,14,0,0,1-1,3.5A14.48,14.48,0,0,1,122.2,348.7Z"/><path class="cls-3" d="M118.3,350.2a14.32,14.32,0,0,1,1-7.1,10.87,10.87,0,0,1,0,3.6A14,14,0,0,1,118.3,350.2Z"/><path class="cls-3" d="M120.4,350.2a14,14,0,0,1-1-3.5,10.88,10.88,0,0,1,0-3.6,14,14,0,0,1,1,3.5A10.87,10.87,0,0,1,120.4,350.2Z"/><path class="cls-3" d="M118.3,348.7a14.32,14.32,0,0,1,1,7.1A13.14,13.14,0,0,1,118.3,348.7Z"/><path class="cls-3" d="M120.4,348.7a10.87,10.87,0,0,1,0,3.6,14,14,0,0,1-1,3.5,10.88,10.88,0,0,1,0-3.6A11.55,11.55,0,0,1,120.4,348.7Z"/><path class="cls-3" d="M116.5,350.2a14.32,14.32,0,0,1,1-7.1,10.87,10.87,0,0,1,0,3.6A14,14,0,0,1,116.5,350.2Z"/><path class="cls-3" d="M118.5,350.2a14,14,0,0,1-1-3.5,10.88,10.88,0,0,1,0-3.6,14,14,0,0,1,1,3.5A10.87,10.87,0,0,1,118.5,350.2Z"/><path class="cls-3" d="M116.5,348.7a14.32,14.32,0,0,1,1,7.1A13.14,13.14,0,0,1,116.5,348.7Z"/><path class="cls-3" d="M118.5,348.7a10.87,10.87,0,0,1,0,3.6,14,14,0,0,1-1,3.5,10.88,10.88,0,0,1,0-3.6A15.36,15.36,0,0,1,118.5,348.7Z"/><path class="cls-3" d="M114.6,350.2a10.88,10.88,0,0,1,0-3.6,14,14,0,0,1,1-3.5,10.87,10.87,0,0,1,0,3.6A14,14,0,0,1,114.6,350.2Z"/><path class="cls-3" d="M116.7,350.2a14,14,0,0,1-1-3.5,10.88,10.88,0,0,1,0-3.6,14,14,0,0,1,1,3.5A21.64,21.64,0,0,1,116.7,350.2Z"/><path class="cls-3" d="M114.6,348.7a14,14,0,0,1,1,3.5,10.87,10.87,0,0,1,0,3.6,14,14,0,0,1-1-3.5A10.87,10.87,0,0,1,114.6,348.7Z"/><path class="cls-3" d="M116.7,348.7a10.88,10.88,0,0,1,0,3.6,14,14,0,0,1-1,3.5,10.88,10.88,0,0,1,0-3.6A15.36,15.36,0,0,1,116.7,348.7Z"/><path class="cls-3" d="M112.7,350.2a10.88,10.88,0,0,1,0-3.6,14,14,0,0,1,1-3.5,13,13,0,0,1-1,7.1Z"/><path class="cls-3" d="M114.8,350.2a14.32,14.32,0,0,1-1-7.1A13.41,13.41,0,0,1,114.8,350.2Z"/><path class="cls-3" d="M112.7,348.7a14,14,0,0,1,1,3.5,10.88,10.88,0,0,1,0,3.6,14,14,0,0,1-1-3.5A21.63,21.63,0,0,1,112.7,348.7Z"/><path class="cls-3" d="M114.8,348.7a14.32,14.32,0,0,1-1,7.1,10.87,10.87,0,0,1,0-3.6A15.36,15.36,0,0,1,114.8,348.7Z"/><path class="cls-3" d="M110.9,350.2a10.88,10.88,0,0,1,0-3.6,14,14,0,0,1,1-3.5,10.87,10.87,0,0,1,0,3.6A14,14,0,0,1,110.9,350.2Z"/><path class="cls-3" d="M113,350.2a14.32,14.32,0,0,1-1-7.1A14.48,14.48,0,0,1,113,350.2Z"/><path class="cls-3" d="M110.9,348.7a14,14,0,0,1,1,3.5,10.87,10.87,0,0,1,0,3.6,14,14,0,0,1-1-3.5A10.87,10.87,0,0,1,110.9,348.7Z"/><path class="cls-3" d="M113,348.7a14.32,14.32,0,0,1-1,7.1,10.88,10.88,0,0,1,0-3.6A11.55,11.55,0,0,1,113,348.7Z"/><path class="cls-3" d="M109,350.2a10.88,10.88,0,0,1,0-3.6,14,14,0,0,1,1-3.5A13.28,13.28,0,0,1,109,350.2Z"/><path class="cls-3" d="M111.1,350.2a14.48,14.48,0,0,1-1-7.1,14,14,0,0,1,1,3.5A10.87,10.87,0,0,1,111.1,350.2Z"/><path class="cls-3" d="M109,348.7a14,14,0,0,1,1,3.5,10.87,10.87,0,0,1,0,3.6,14,14,0,0,1-1-3.5A10.87,10.87,0,0,1,109,348.7Z"/><path class="cls-3" d="M111.1,348.7a10.87,10.87,0,0,1,0,3.6,14,14,0,0,1-1,3.5A14.48,14.48,0,0,1,111.1,348.7Z"/><path class="cls-3" d="M107.2,350.2a10.88,10.88,0,0,1,0-3.6,14,14,0,0,1,1-3.5A14.32,14.32,0,0,1,107.2,350.2Z"/><path class="cls-3" d="M109.3,350.2a14,14,0,0,1-1-3.5,10.87,10.87,0,0,1,0-3.6,14,14,0,0,1,1,3.5A21.64,21.64,0,0,1,109.3,350.2Z"/><path class="cls-3" d="M107.2,348.7a14,14,0,0,1,1,3.5,10.88,10.88,0,0,1,0,3.6,14,14,0,0,1-1-3.5A10.87,10.87,0,0,1,107.2,348.7Z"/><path class="cls-3" d="M109.3,348.7a13,13,0,0,1-1,7.1,14.48,14.48,0,0,1,1-7.1Z"/><path class="cls-3" d="M105.3,350.2a10.87,10.87,0,0,1,0-3.6,14,14,0,0,1,1-3.5A13.28,13.28,0,0,1,105.3,350.2Z"/><path class="cls-3" d="M107.5,350.2a14,14,0,0,1-1-3.5,10.88,10.88,0,0,1,0-3.6,14,14,0,0,1,1,3.5A21.64,21.64,0,0,1,107.5,350.2Z"/><path class="cls-3" d="M105.3,348.7a14,14,0,0,1,1,3.5,10.87,10.87,0,0,1,0,3.6,14,14,0,0,1-1-3.5A21.63,21.63,0,0,1,105.3,348.7Z"/><path class="cls-3" d="M107.5,348.7a13,13,0,0,1-1,7.1,14.48,14.48,0,0,1,1-7.1Z"/><path class="cls-3" d="M103.5,350.2a13,13,0,0,1,1-7.1,17,17,0,0,1-1,7.1Z"/><path class="cls-3" d="M105.6,350.2a14,14,0,0,1-1-3.5,10.88,10.88,0,0,1,0-3.6,14,14,0,0,1,1,3.5A10.87,10.87,0,0,1,105.6,350.2Z"/><path class="cls-3" d="M103.5,348.7a14.32,14.32,0,0,1,1,7.1,14,14,0,0,1-1-3.5A10.87,10.87,0,0,1,103.5,348.7Z"/><path class="cls-3" d="M105.6,348.7a10.87,10.87,0,0,1,0,3.6,14,14,0,0,1-1,3.5A13.41,13.41,0,0,1,105.6,348.7Z"/><path class="cls-3" d="M101.6,350.2a14.32,14.32,0,0,1,1-7.1,13,13,0,0,1-1,7.1Z"/><path class="cls-3" d="M103.7,350.2a14.48,14.48,0,0,1-1-7.1,14,14,0,0,1,1,3.5A10.88,10.88,0,0,1,103.7,350.2Z"/><path class="cls-3" d="M101.6,348.7a14.32,14.32,0,0,1,1,7.1A15.36,15.36,0,0,1,101.6,348.7Z"/><path class="cls-3" d="M103.7,348.7a10.88,10.88,0,0,1,0,3.6,14,14,0,0,1-1,3.5,10.88,10.88,0,0,1,0-3.6A15.36,15.36,0,0,1,103.7,348.7Z"/><path class="cls-3" d="M99.8,350.2a14.32,14.32,0,0,1,1-7.1,10.87,10.87,0,0,1,0,3.6A14,14,0,0,1,99.8,350.2Z"/><path class="cls-3" d="M101.9,350.2a14,14,0,0,1-1-3.5,10.88,10.88,0,0,1,0-3.6,14,14,0,0,1,1,3.5A10.87,10.87,0,0,1,101.9,350.2Z"/><path class="cls-3" d="M99.8,348.7a14.32,14.32,0,0,1,1,7.1A14.16,14.16,0,0,1,99.8,348.7Z"/><path class="cls-3" d="M101.9,348.7a10.87,10.87,0,0,1,0,3.6,14,14,0,0,1-1,3.5,10.88,10.88,0,0,1,0-3.6A11.55,11.55,0,0,1,101.9,348.7Z"/><path class="cls-3" d="M97.9,350.2a10.88,10.88,0,0,1,0-3.6,14,14,0,0,1,1-3.5,13,13,0,0,1-1,7.1Z"/><path class="cls-3" d="M100,350.2a14,14,0,0,1-1-3.5,10.88,10.88,0,0,1,0-3.6,14,14,0,0,1,1,3.5A10.87,10.87,0,0,1,100,350.2Z"/><path class="cls-3" d="M97.9,348.7a14,14,0,0,1,1,3.5,10.87,10.87,0,0,1,0,3.6,14,14,0,0,1-1-3.5A21.63,21.63,0,0,1,97.9,348.7Z"/><path class="cls-3" d="M100,348.7a10.87,10.87,0,0,1,0,3.6,14,14,0,0,1-1,3.5,10.88,10.88,0,0,1,0-3.6A15.36,15.36,0,0,1,100,348.7Z"/><path class="cls-3" d="M96.1,350.2a10.88,10.88,0,0,1,0-3.6,14,14,0,0,1,1-3.5,10.87,10.87,0,0,1,0,3.6A14,14,0,0,1,96.1,350.2Z"/><path class="cls-3" d="M98.2,350.2a14.32,14.32,0,0,1-1-7.1A14.48,14.48,0,0,1,98.2,350.2Z"/><path class="cls-3" d="M96.1,348.7a14,14,0,0,1,1,3.5,10.87,10.87,0,0,1,0,3.6,14,14,0,0,1-1-3.5A10.87,10.87,0,0,1,96.1,348.7Z"/><path class="cls-3" d="M98.2,348.7a14.32,14.32,0,0,1-1,7.1,10.88,10.88,0,0,1,0-3.6A11.55,11.55,0,0,1,98.2,348.7Z"/><path class="cls-3" d="M94.2,350.2a10.88,10.88,0,0,1,0-3.6,14,14,0,0,1,1-3.5,13,13,0,0,1-1,7.1Z"/><path class="cls-3" d="M96.3,350.2a14.32,14.32,0,0,1-1-7.1A13.41,13.41,0,0,1,96.3,350.2Z"/><path class="cls-3" d="M94.2,348.7a14,14,0,0,1,1,3.5,10.88,10.88,0,0,1,0,3.6,14,14,0,0,1-1-3.5A21.63,21.63,0,0,1,94.2,348.7Z"/><path class="cls-3" d="M96.3,348.7a14.32,14.32,0,0,1-1,7.1,10.87,10.87,0,0,1,0-3.6A15.36,15.36,0,0,1,96.3,348.7Z"/><path class="cls-3" d="M92.4,350.2a13,13,0,0,1,1-7.1,15.55,15.55,0,0,1-1,7.1Z"/><path class="cls-3" d="M94.5,350.2a14.48,14.48,0,0,1-1-7.1,14,14,0,0,1,1,3.5A21.64,21.64,0,0,1,94.5,350.2Z"/><path class="cls-3" d="M92.4,348.7a14,14,0,0,1,1,3.5,10.87,10.87,0,0,1,0,3.6,14,14,0,0,1-1-3.5A10.87,10.87,0,0,1,92.4,348.7Z"/><path class="cls-3" d="M94.5,348.7a10.87,10.87,0,0,1,0,3.6,14,14,0,0,1-1,3.5A13.41,13.41,0,0,1,94.5,348.7Z"/><path class="cls-3" d="M90.5,350.2a10.88,10.88,0,0,1,0-3.6,14,14,0,0,1,1-3.5A13.28,13.28,0,0,1,90.5,350.2Z"/><path class="cls-3" d="M92.6,350.2a14,14,0,0,1-1-3.5,10.88,10.88,0,0,1,0-3.6,14,14,0,0,1,1,3.5A10.87,10.87,0,0,1,92.6,350.2Z"/><path class="cls-3" d="M90.5,348.7a14,14,0,0,1,1,3.5,10.87,10.87,0,0,1,0,3.6,14,14,0,0,1-1-3.5A14.45,14.45,0,0,1,90.5,348.7Z"/><path class="cls-3" d="M92.6,348.7a13,13,0,0,1-1,7.1,17.25,17.25,0,0,1,1-7.1Z"/><path class="cls-3" d="M88.7,350.2a10.88,10.88,0,0,1,0-3.6,14,14,0,0,1,1-3.5A14.32,14.32,0,0,1,88.7,350.2Z"/><path class="cls-3" d="M90.8,350.2a14,14,0,0,1-1-3.5,10.87,10.87,0,0,1,0-3.6,14,14,0,0,1,1,3.5A21.64,21.64,0,0,1,90.8,350.2Z"/><path class="cls-3" d="M88.7,348.7a14,14,0,0,1,1,3.5,10.88,10.88,0,0,1,0,3.6,14,14,0,0,1-1-3.5A10.87,10.87,0,0,1,88.7,348.7Z"/><path class="cls-3" d="M90.8,348.7a13,13,0,0,1-1,7.1,15.74,15.74,0,0,1,1-7.1Z"/><path class="cls-3" d="M86.8,350.2a10.87,10.87,0,0,1,0-3.6,14,14,0,0,1,1-3.5A13.28,13.28,0,0,1,86.8,350.2Z"/><path class="cls-3" d="M88.9,350.2a14,14,0,0,1-1-3.5,10.88,10.88,0,0,1,0-3.6,14,14,0,0,1,1,3.5A10.87,10.87,0,0,1,88.9,350.2Z"/><path class="cls-3" d="M86.8,348.7a14.32,14.32,0,0,1,1,7.1,14,14,0,0,1-1-3.5A21.63,21.63,0,0,1,86.8,348.7Z"/><path class="cls-3" d="M88.9,348.7a10.87,10.87,0,0,1,0,3.6,14,14,0,0,1-1,3.5A15.74,15.74,0,0,1,88.9,348.7Z"/><path class="cls-3" d="M123.8,325.4a10.87,10.87,0,0,1,0-3.6,14,14,0,0,1,1-3.5,13.28,13.28,0,0,1-1,7.1Z"/><path class="cls-3" d="M125.9,325.4a14,14,0,0,1-1-3.5,10.88,10.88,0,0,1,0-3.6,14,14,0,0,1,1,3.5A10.87,10.87,0,0,1,125.9,325.4Z"/><path class="cls-3" d="M123.8,323.9a14,14,0,0,1,1,3.5,10.87,10.87,0,0,1,0,3.6,14,14,0,0,1-1-3.5A21.63,21.63,0,0,1,123.8,323.9Z"/><path class="cls-3" d="M125.9,323.9a13,13,0,0,1-1,7.1,15.74,15.74,0,0,1,1-7.1Z"/><path class="cls-3" d="M122,325.4a10.88,10.88,0,0,1,0-3.6,14,14,0,0,1,1-3.5,14.32,14.32,0,0,1-1,7.1Z"/><path class="cls-3" d="M124.1,325.4a14,14,0,0,1-1-3.5,10.88,10.88,0,0,1,0-3.6,14,14,0,0,1,1,3.5A21.64,21.64,0,0,1,124.1,325.4Z"/><path class="cls-3" d="M122,323.9a14,14,0,0,1,1,3.5,10.87,10.87,0,0,1,0,3.6,14,14,0,0,1-1-3.5A10.87,10.87,0,0,1,122,323.9Z"/><path class="cls-3" d="M124.1,323.9a10.87,10.87,0,0,1,0,3.6,14,14,0,0,1-1,3.5A13.41,13.41,0,0,1,124.1,323.9Z"/><path class="cls-3" d="M120.1,325.4a13,13,0,0,1,1-7.1,14.32,14.32,0,0,1-1,7.1Z"/><path class="cls-3" d="M122.2,325.4a14,14,0,0,1-1-3.5,10.88,10.88,0,0,1,0-3.6,14,14,0,0,1,1,3.5A10.88,10.88,0,0,1,122.2,325.4Z"/><path class="cls-3" d="M120.1,323.9a14.48,14.48,0,0,1,1,7.1,14,14,0,0,1-1-3.5A21.63,21.63,0,0,1,120.1,323.9Z"/><path class="cls-3" d="M122.2,323.9a10.87,10.87,0,0,1,0,3.6,14,14,0,0,1-1,3.5A14.48,14.48,0,0,1,122.2,323.9Z"/><path class="cls-3" d="M118.3,325.4a14.32,14.32,0,0,1,1-7.1,10.87,10.87,0,0,1,0,3.6A14,14,0,0,1,118.3,325.4Z"/><path class="cls-3" d="M120.4,325.4a14,14,0,0,1-1-3.5,10.88,10.88,0,0,1,0-3.6,14,14,0,0,1,1,3.5A10.87,10.87,0,0,1,120.4,325.4Z"/><path class="cls-3" d="M118.3,323.9a14.32,14.32,0,0,1,1,7.1A13.14,13.14,0,0,1,118.3,323.9Z"/><path class="cls-3" d="M120.4,323.9a10.87,10.87,0,0,1,0,3.6,14,14,0,0,1-1,3.5,10.88,10.88,0,0,1,0-3.6A11.55,11.55,0,0,1,120.4,323.9Z"/><path class="cls-3" d="M116.5,325.4a14.32,14.32,0,0,1,1-7.1,10.87,10.87,0,0,1,0,3.6A14,14,0,0,1,116.5,325.4Z"/><path class="cls-3" d="M118.5,325.4a14,14,0,0,1-1-3.5,10.88,10.88,0,0,1,0-3.6,14,14,0,0,1,1,3.5A10.87,10.87,0,0,1,118.5,325.4Z"/><path class="cls-3" d="M116.5,323.9a14.32,14.32,0,0,1,1,7.1A13.14,13.14,0,0,1,116.5,323.9Z"/><path class="cls-3" d="M118.5,323.9a10.87,10.87,0,0,1,0,3.6,14,14,0,0,1-1,3.5,10.88,10.88,0,0,1,0-3.6A15.36,15.36,0,0,1,118.5,323.9Z"/><path class="cls-3" d="M114.6,325.4a10.88,10.88,0,0,1,0-3.6,14,14,0,0,1,1-3.5,10.87,10.87,0,0,1,0,3.6A14,14,0,0,1,114.6,325.4Z"/><path class="cls-3" d="M116.7,325.4a14,14,0,0,1-1-3.5,10.88,10.88,0,0,1,0-3.6,14,14,0,0,1,1,3.5A21.64,21.64,0,0,1,116.7,325.4Z"/><path class="cls-3" d="M114.6,323.9a14,14,0,0,1,1,3.5,10.87,10.87,0,0,1,0,3.6,14,14,0,0,1-1-3.5A10.87,10.87,0,0,1,114.6,323.9Z"/><path class="cls-3" d="M116.7,323.9a10.87,10.87,0,0,1,0,3.6,14,14,0,0,1-1,3.5,10.88,10.88,0,0,1,0-3.6A15.36,15.36,0,0,1,116.7,323.9Z"/><path class="cls-3" d="M112.7,325.4a10.88,10.88,0,0,1,0-3.6,14,14,0,0,1,1-3.5,13,13,0,0,1-1,7.1Z"/><path class="cls-3" d="M114.8,325.4a14.32,14.32,0,0,1-1-7.1A13.28,13.28,0,0,1,114.8,325.4Z"/><path class="cls-3" d="M112.7,323.9a14,14,0,0,1,1,3.5,10.87,10.87,0,0,1,0,3.6,14,14,0,0,1-1-3.5A21.63,21.63,0,0,1,112.7,323.9Z"/><path class="cls-3" d="M114.8,323.9a14.32,14.32,0,0,1-1,7.1,10.88,10.88,0,0,1,0-3.6A15.36,15.36,0,0,1,114.8,323.9Z"/><path class="cls-3" d="M110.9,325.4a10.88,10.88,0,0,1,0-3.6,14,14,0,0,1,1-3.5,10.87,10.87,0,0,1,0,3.6A14,14,0,0,1,110.9,325.4Z"/><path class="cls-3" d="M113,325.4a14.32,14.32,0,0,1-1-7.1A14.32,14.32,0,0,1,113,325.4Z"/><path class="cls-3" d="M110.9,323.9a14,14,0,0,1,1,3.5,10.87,10.87,0,0,1,0,3.6,14,14,0,0,1-1-3.5A10.87,10.87,0,0,1,110.9,323.9Z"/><path class="cls-3" d="M113,323.9a14.32,14.32,0,0,1-1,7.1,10.88,10.88,0,0,1,0-3.6A11.55,11.55,0,0,1,113,323.9Z"/><path class="cls-3" d="M109,325.4a10.88,10.88,0,0,1,0-3.6,14,14,0,0,1,1-3.5,13.28,13.28,0,0,1-1,7.1Z"/><path class="cls-3" d="M111.1,325.4a14.48,14.48,0,0,1-1-7.1,14,14,0,0,1,1,3.5A10.87,10.87,0,0,1,111.1,325.4Z"/><path class="cls-3" d="M109,323.9a14,14,0,0,1,1,3.5,10.87,10.87,0,0,1,0,3.6,14,14,0,0,1-1-3.5A10.87,10.87,0,0,1,109,323.9Z"/><path class="cls-3" d="M111.1,323.9a10.87,10.87,0,0,1,0,3.6,14,14,0,0,1-1,3.5A15.74,15.74,0,0,1,111.1,323.9Z"/><path class="cls-3" d="M107.2,325.4a10.88,10.88,0,0,1,0-3.6,14,14,0,0,1,1-3.5,14.32,14.32,0,0,1-1,7.1Z"/><path class="cls-3" d="M109.3,325.4a14,14,0,0,1-1-3.5,10.87,10.87,0,0,1,0-3.6,14,14,0,0,1,1,3.5A21.64,21.64,0,0,1,109.3,325.4Z"/><path class="cls-3" d="M107.2,323.9a14,14,0,0,1,1,3.5,10.87,10.87,0,0,1,0,3.6,14,14,0,0,1-1-3.5A10.87,10.87,0,0,1,107.2,323.9Z"/><path class="cls-3" d="M109.3,323.9a13,13,0,0,1-1,7.1,15.74,15.74,0,0,1,1-7.1Z"/><path class="cls-3" d="M105.3,325.4a10.87,10.87,0,0,1,0-3.6,14,14,0,0,1,1-3.5,13.28,13.28,0,0,1-1,7.1Z"/><path class="cls-3" d="M107.5,325.4a14,14,0,0,1-1-3.5,10.88,10.88,0,0,1,0-3.6,14,14,0,0,1,1,3.5A21.64,21.64,0,0,1,107.5,325.4Z"/><path class="cls-3" d="M105.3,323.9a14,14,0,0,1,1,3.5,10.87,10.87,0,0,1,0,3.6,14,14,0,0,1-1-3.5A21.63,21.63,0,0,1,105.3,323.9Z"/><path class="cls-3" d="M107.5,323.9a13,13,0,0,1-1,7.1,14.48,14.48,0,0,1,1-7.1Z"/><path class="cls-3" d="M103.5,325.4a13,13,0,0,1,1-7.1,17,17,0,0,1-1,7.1Z"/><path class="cls-3" d="M105.6,325.4a14,14,0,0,1-1-3.5,10.88,10.88,0,0,1,0-3.6,14,14,0,0,1,1,3.5A10.87,10.87,0,0,1,105.6,325.4Z"/><path class="cls-3" d="M103.5,323.9a14.48,14.48,0,0,1,1,7.1,14,14,0,0,1-1-3.5A10.87,10.87,0,0,1,103.5,323.9Z"/><path class="cls-3" d="M105.6,323.9a10.87,10.87,0,0,1,0,3.6,14,14,0,0,1-1,3.5A13.41,13.41,0,0,1,105.6,323.9Z"/><path class="cls-3" d="M101.6,325.4a14.32,14.32,0,0,1,1-7.1,13,13,0,0,1-1,7.1Z"/><path class="cls-3" d="M103.7,325.4a14.48,14.48,0,0,1-1-7.1,14,14,0,0,1,1,3.5A10.88,10.88,0,0,1,103.7,325.4Z"/><path class="cls-3" d="M101.6,323.9a14.32,14.32,0,0,1,1,7.1A15.36,15.36,0,0,1,101.6,323.9Z"/><path class="cls-3" d="M103.7,323.9a10.87,10.87,0,0,1,0,3.6,14,14,0,0,1-1,3.5,10.88,10.88,0,0,1,0-3.6A15.36,15.36,0,0,1,103.7,323.9Z"/><path class="cls-3" d="M99.8,325.4a14.32,14.32,0,0,1,1-7.1,10.87,10.87,0,0,1,0,3.6A14,14,0,0,1,99.8,325.4Z"/><path class="cls-3" d="M101.9,325.4a14,14,0,0,1-1-3.5,10.88,10.88,0,0,1,0-3.6,14,14,0,0,1,1,3.5A10.87,10.87,0,0,1,101.9,325.4Z"/><path class="cls-3" d="M99.8,323.9a14.32,14.32,0,0,1,1,7.1A14.16,14.16,0,0,1,99.8,323.9Z"/><path class="cls-3" d="M101.9,323.9a10.87,10.87,0,0,1,0,3.6,14,14,0,0,1-1,3.5,10.88,10.88,0,0,1,0-3.6A11.55,11.55,0,0,1,101.9,323.9Z"/><path class="cls-3" d="M97.9,325.4a10.88,10.88,0,0,1,0-3.6,14,14,0,0,1,1-3.5,13,13,0,0,1-1,7.1Z"/><path class="cls-3" d="M100,325.4a14,14,0,0,1-1-3.5,10.88,10.88,0,0,1,0-3.6,14,14,0,0,1,1,3.5A10.87,10.87,0,0,1,100,325.4Z"/><path class="cls-3" d="M97.9,323.9a14,14,0,0,1,1,3.5,10.87,10.87,0,0,1,0,3.6,14,14,0,0,1-1-3.5A21.63,21.63,0,0,1,97.9,323.9Z"/><path class="cls-3" d="M100,323.9a10.87,10.87,0,0,1,0,3.6,14,14,0,0,1-1,3.5,10.88,10.88,0,0,1,0-3.6A15.36,15.36,0,0,1,100,323.9Z"/><path class="cls-3" d="M96.1,325.4a10.88,10.88,0,0,1,0-3.6,14,14,0,0,1,1-3.5,10.87,10.87,0,0,1,0,3.6A14,14,0,0,1,96.1,325.4Z"/><path class="cls-3" d="M98.2,325.4a14.32,14.32,0,0,1-1-7.1A14.32,14.32,0,0,1,98.2,325.4Z"/><path class="cls-3" d="M96.1,323.9a14,14,0,0,1,1,3.5,10.87,10.87,0,0,1,0,3.6,14,14,0,0,1-1-3.5A10.87,10.87,0,0,1,96.1,323.9Z"/><path class="cls-3" d="M98.2,323.9a14.32,14.32,0,0,1-1,7.1,10.88,10.88,0,0,1,0-3.6A11.55,11.55,0,0,1,98.2,323.9Z"/><path class="cls-3" d="M94.2,325.4a10.88,10.88,0,0,1,0-3.6,14,14,0,0,1,1-3.5,13,13,0,0,1-1,7.1Z"/><path class="cls-3" d="M96.3,325.4a14.32,14.32,0,0,1-1-7.1A13.28,13.28,0,0,1,96.3,325.4Z"/><path class="cls-3" d="M94.2,323.9a14,14,0,0,1,1,3.5,10.87,10.87,0,0,1,0,3.6,14,14,0,0,1-1-3.5A21.63,21.63,0,0,1,94.2,323.9Z"/><path class="cls-3" d="M96.3,323.9a14.32,14.32,0,0,1-1,7.1,10.88,10.88,0,0,1,0-3.6A15.36,15.36,0,0,1,96.3,323.9Z"/><path class="cls-3" d="M92.4,325.4a13,13,0,0,1,1-7.1,15.55,15.55,0,0,1-1,7.1Z"/><path class="cls-3" d="M94.5,325.4a14.48,14.48,0,0,1-1-7.1,14,14,0,0,1,1,3.5A21.64,21.64,0,0,1,94.5,325.4Z"/><path class="cls-3" d="M92.4,323.9a14,14,0,0,1,1,3.5,10.87,10.87,0,0,1,0,3.6,14,14,0,0,1-1-3.5A10.87,10.87,0,0,1,92.4,323.9Z"/><path class="cls-3" d="M94.5,323.9a10.87,10.87,0,0,1,0,3.6,14,14,0,0,1-1,3.5A13.41,13.41,0,0,1,94.5,323.9Z"/><path class="cls-3" d="M90.5,325.4a10.88,10.88,0,0,1,0-3.6,14,14,0,0,1,1-3.5,13.28,13.28,0,0,1-1,7.1Z"/><path class="cls-3" d="M92.6,325.4a14,14,0,0,1-1-3.5,10.88,10.88,0,0,1,0-3.6,14,14,0,0,1,1,3.5A10.87,10.87,0,0,1,92.6,325.4Z"/><path class="cls-3" d="M90.5,323.9a10.64,10.64,0,0,1,.9,3.5,10.87,10.87,0,0,1,0,3.6,14,14,0,0,1-1-3.5A21.66,21.66,0,0,1,90.5,323.9Z"/><path class="cls-3" d="M92.6,323.9a13,13,0,0,1-1,7.1,17.25,17.25,0,0,1,1-7.1Z"/><path class="cls-3" d="M88.7,325.4a10.88,10.88,0,0,1,0-3.6,14,14,0,0,1,1-3.5,14.32,14.32,0,0,1-1,7.1Z"/><path class="cls-3" d="M90.8,325.4a14,14,0,0,1-1-3.5,10.87,10.87,0,0,1,0-3.6,14,14,0,0,1,1,3.5A21.64,21.64,0,0,1,90.8,325.4Z"/><path class="cls-3" d="M88.7,323.9a14,14,0,0,1,1,3.5,10.87,10.87,0,0,1,0,3.6,14,14,0,0,1-1-3.5A10.87,10.87,0,0,1,88.7,323.9Z"/><path class="cls-3" d="M90.8,323.9a13,13,0,0,1-1,7.1,15.74,15.74,0,0,1,1-7.1Z"/><path class="cls-3" d="M86.8,325.4a10.87,10.87,0,0,1,0-3.6,14,14,0,0,1,1-3.5,13.28,13.28,0,0,1-1,7.1Z"/><path class="cls-3" d="M88.9,325.4a14,14,0,0,1-1-3.5,10.88,10.88,0,0,1,0-3.6,14,14,0,0,1,1,3.5A10.87,10.87,0,0,1,88.9,325.4Z"/><path class="cls-3" d="M86.8,323.9a14.48,14.48,0,0,1,1,7.1,14,14,0,0,1-1-3.5A21.63,21.63,0,0,1,86.8,323.9Z"/><path class="cls-3" d="M88.9,323.9a10.87,10.87,0,0,1,0,3.6,14,14,0,0,1-1,3.5A15.74,15.74,0,0,1,88.9,323.9Z"/><path class="cls-3" d="M123,344c-.1-2.6-.1-5.2-.1-7.8s0-5.2.1-7.8c.1,2.6.1,5.2.1,7.8S123.1,341.4,123,344Z"/><path class="cls-3" d="M121.1,344c-.1-2.6-.1-5.2-.1-7.8s0-5.2.1-7.8c.1,2.6.1,5.2.1,7.8S121.2,341.4,121.1,344Z"/><path class="cls-3" d="M119.3,344c-.1-2.6-.1-5.2-.1-7.8s0-5.2.1-7.8c.1,2.6.1,5.2.1,7.8S119.4,341.4,119.3,344Z"/><path class="cls-3" d="M117.4,343.9c-.1-2.6-.1-5.2-.1-7.8s0-5.2.1-7.8c.1,2.6.1,5.2.1,7.8S117.5,341.3,117.4,343.9Z"/><path class="cls-3" d="M115.6,344c-.1-2.6-.1-5.2-.1-7.8s0-5.2.1-7.8c.1,2.6.1,5.2.1,7.8S115.7,341.4,115.6,344Z"/><path class="cls-3" d="M113.8,343.9c-.1-2.6-.1-5.2-.1-7.8s0-5.2.1-7.8c.1,2.6.1,5.2.1,7.8S113.9,341.3,113.8,343.9Z"/><path class="cls-3" d="M111.9,343.9c-.1-2.6-.1-5.2-.1-7.8s0-5.2.1-7.8c.1,2.6.1,5.2.1,7.8S112,341.3,111.9,343.9Z"/><path class="cls-3" d="M110.1,344c-.1-2.6-.1-5.2-.1-7.8s0-5.2.1-7.8c.1,2.6.1,5.2.1,7.8S110.2,341.4,110.1,344Z"/><path class="cls-3" d="M108.3,344c-.1-2.6-.1-5.2-.1-7.8s0-5.2.1-7.8c.1,2.6.1,5.2.1,7.8S108.4,341.4,108.3,344Z"/><path class="cls-3" d="M106.3,344c-.1-2.6-.1-5.2-.1-7.8s0-5.2.1-7.8c.1,2.6.1,5.2.1,7.8S106.4,341.4,106.3,344Z"/><path class="cls-3" d="M104.5,343.9c-.1-2.6-.1-5.2-.1-7.8s0-5.2.1-7.8c.1,2.6.1,5.2.1,7.8S104.6,341.3,104.5,343.9Z"/><path class="cls-3" d="M102.7,344c-.1-2.6-.1-5.2-.1-7.8s0-5.2.1-7.8c.1,2.6.1,5.2.1,7.8S102.8,341.4,102.7,344Z"/><path class="cls-3" d="M100.8,343.9c-.1-2.6-.1-5.2-.1-7.8s0-5.2.1-7.8c.1,2.6.1,5.2.1,7.8S100.9,341.3,100.8,343.9Z"/><path class="cls-3" d="M99,344.2c-.1-2.6-.1-5.2-.1-7.8s0-5.2.1-7.8c.1,2.6.1,5.2.1,7.8S99.1,341.6,99,344.2Z"/><path class="cls-3" d="M97.1,344c-.1-2.6-.1-5.2-.1-7.8s0-5.2.1-7.8c.1,2.6.1,5.2.1,7.8S97.2,341.4,97.1,344Z"/><path class="cls-3" d="M95.3,344c-.1-2.6-.1-5.2-.1-7.8s0-5.2.1-7.8c.1,2.6.1,5.2.1,7.8S95.4,341.4,95.3,344Z"/><path class="cls-3" d="M93.5,344c-.1-2.6-.1-5.2-.1-7.8s0-5.2.1-7.8c.1,2.6.1,5.2.1,7.8S93.6,341.4,93.5,344Z"/><path class="cls-3" d="M91.6,344c-.1-2.6-.1-5.2-.1-7.8s0-5.2.1-7.8c.1,2.6.1,5.2.1,7.8S91.7,341.4,91.6,344Z"/><path class="cls-3" d="M89.7,344c-.1-2.6-.1-5.2-.1-7.8s0-5.2.1-7.8c.1,2.6.1,5.2.1,7.8S89.8,341.4,89.7,344Z"/><path class="cls-3" d="M87.9,344c-.1-2.6-.1-5.2-.1-7.8s0-5.2.1-7.8c.1,2.6.1,5.2.1,7.8S88,341.4,87.9,344Z"/><rect class="cls-12" x="125.8" y="448.9" width="14.3" height="55.3"/><rect class="cls-25" x="125.8" y="461.7" width="14.3" height="27.1"/><circle class="cls-12" cx="290.3" cy="445.4" r="26.12"/><circle class="cls-13" cx="290.3" cy="445.4" r="22.9"/><path class="cls-12" d="M1489.8,527.9h-70a5.55,5.55,0,0,1-5.5-5.5V442a5.55,5.55,0,0,1,5.5-5.5h70a5.55,5.55,0,0,1,5.5,5.5v80.4A5.48,5.48,0,0,1,1489.8,527.9Z"/><path class="cls-12" d="M1382.3,527.9h-70a5.55,5.55,0,0,1-5.5-5.5V442a5.55,5.55,0,0,1,5.5-5.5h70a5.55,5.55,0,0,1,5.5,5.5v80.4A5.48,5.48,0,0,1,1382.3,527.9Z"/><line class="cls-26" x1="226.15" y1="540.15" x2="226.15" y2="616.95"/><path class="cls-27" d="M222.35,616.75a3.8,3.8,0,1,0,3.8-3.8A3.86,3.86,0,0,0,222.35,616.75Z"/><path class="cls-28" d="M214.79,633.16c0,2.32-1.36,3.45-3.65,3.45s-3.65-1.11-3.65-3.45v-5.32h1.88v5.32c0,.94.24,1.86,1.77,1.86,1.34,0,1.77-.57,1.77-1.86v-5.32h1.88Z"/><path class="cls-28" d="M217.7,633.56c0,1.14.89,1.58,1.9,1.58.66,0,1.66-.19,1.66-1.07s-1.29-1.06-2.54-1.41-2.55-.85-2.55-2.44c0-1.76,1.65-2.59,3.2-2.59,1.79,0,3.43.78,3.43,2.76H221c-.06-1-.78-1.29-1.7-1.29-.6,0-1.29.25-1.29,1s.41.75,2.55,1.29c.64.15,2.55.57,2.55,2.5,0,1.57-1.23,2.75-3.57,2.75-1.89,0-3.68-.94-3.64-3.05Z"/><path class="cls-28" d="M224.21,627.84h4c1.63,0,2.73.53,2.73,2.12a1.87,1.87,0,0,1-1.16,1.79,2.08,2.08,0,0,1,1.57,2.17c0,1.74-1.48,2.48-3,2.48h-4.14Zm1.88,3.46H228c.67,0,1.15-.3,1.15-1s-.63-1-1.3-1h-1.76Zm0,3.64h2c.73,0,1.39-.24,1.39-1.13s-.53-1.22-1.35-1.22h-2Z"/><path class="cls-28" d="M232.46,632.4h3.61v1.46h-3.61Z"/><path class="cls-28" d="M243.25,630.72a1.88,1.88,0,0,0-1.87-1.5c-1.7,0-2.33,1.44-2.33,2.94s.63,2.86,2.33,2.86a1.92,1.92,0,0,0,1.94-1.92h1.82a3.6,3.6,0,0,1-3.76,3.51,4.14,4.14,0,0,1-4.21-4.45c0-2.55,1.57-4.53,4.21-4.53a3.49,3.49,0,0,1,3.69,3.09Z"/><path class="cls-28" d="M191,639.84h3.8a2.45,2.45,0,1,1,0,4.89h-3v3.67H191Zm.82,4.2h2.8a1.76,1.76,0,1,0,0-3.51h-2.8Z"/><path class="cls-28" d="M204,645.31a2.94,2.94,0,1,1-5.85,0c0-1.78,1-3.28,2.92-3.28S204,643.53,204,645.31Zm-5.1,0a2.21,2.21,0,1,0,4.34,0c0-1.31-.73-2.64-2.17-2.64S198.86,644,198.86,645.31Z"/><path class="cls-28" d="M204.47,642.21h.8l1.58,5.3h0l1.51-5.3h.85l1.51,5.3h0l1.59-5.3h.8l-2,6.19h-.83l-1.52-5.2h0l-1.52,5.2h-.82Z"/><path class="cls-28" d="M214.43,645.51a2.2,2.2,0,0,0,2,2.44,1.88,1.88,0,0,0,1.95-1.59h.75a2.51,2.51,0,0,1-2.7,2.22c-2,0-2.79-1.51-2.79-3.27s.83-3.28,2.79-3.28,2.79,1.74,2.73,3.48Zm4-.63a2.08,2.08,0,0,0-2-2.21c-1.24,0-1.9,1.08-2,2.21Z"/><path class="cls-28" d="M220.21,642.21h.7v1.45h0a2.27,2.27,0,0,1,2.34-1.53v.75a2.13,2.13,0,0,0-2.3,2.22v3.3h-.76Z"/><path class="cls-28" d="M227.85,645.58c0,1.77,1.23,2.31,2.8,2.31.9,0,2.26-.5,2.26-1.74,0-1-.95-1.36-1.76-1.55l-1.91-.47c-1-.25-1.93-.72-1.93-2.06,0-.84.54-2.41,2.95-2.41,1.71,0,3.17.9,3.17,2.66h-.82a2.11,2.11,0,0,0-2.33-2c-1.12,0-2.15.44-2.15,1.71,0,.8.59,1.15,1.29,1.3l2.09.52c1.21.32,2.22.86,2.22,2.25,0,.59-.24,2.45-3.27,2.45-2,0-3.52-.91-3.42-3Z"/><path class="cls-28" d="M239.9,648.4h-.7v-1.11h0a2.32,2.32,0,0,1-2.14,1.29c-1.57,0-2.17-.9-2.17-2.35v-4h.76v4c0,1.12.45,1.71,1.65,1.71s1.86-1.23,1.86-2.49v-3.25h.76Z"/><path class="cls-28" d="M241.33,642.21H242v1.18h0a2.3,2.3,0,0,1,2.21-1.36c1.88,0,2.78,1.51,2.78,3.28s-.9,3.27-2.78,3.27a2.19,2.19,0,0,1-2.15-1.35h0v3.46h-.75Zm2.93.46c-1.68,0-2.18,1.23-2.18,2.64s.58,2.64,2.18,2.64c1.43,0,2-1.36,2-2.64S245.69,642.67,244.26,642.67Z"/><path class="cls-28" d="M248.22,642.21h.69v1.18h0a2.28,2.28,0,0,1,2.2-1.36c1.89,0,2.79,1.51,2.79,3.28s-.9,3.27-2.79,3.27a2.19,2.19,0,0,1-2.14-1.35h0v3.46h-.75Zm2.92.46c-1.68,0-2.17,1.23-2.17,2.64s.58,2.64,2.17,2.64,2-1.36,2-2.64S252.58,642.67,251.14,642.67Z"/><path class="cls-28" d="M255.12,639.84h.75v8.56h-.75Z"/><path class="cls-28" d="M256.63,642.21h.8l2,5.28,1.91-5.28h.75l-2.68,7.14c-.45,1-.69,1.34-1.63,1.34a1.9,1.9,0,0,1-.58-.06V650a3.07,3.07,0,0,0,.52.06c.67,0,.82-.4,1.08-1l.26-.7Z"/><line class="cls-26" x1="860.2" y1="298.3" x2="860.2" y2="221.5"/><path class="cls-27" d="M856.4,221.7a3.8,3.8,0,1,1,3.8,3.8A3.86,3.86,0,0,1,856.4,221.7Z"/><path class="cls-28" d="M817.78,181h1.88v7h4.17v1.58h-6.05Z"/><path class="cls-28" d="M827.72,183.16a3.27,3.27,0,1,1-3.2,3.28A3.05,3.05,0,0,1,827.72,183.16Zm0,5.26c1.17,0,1.51-1,1.51-2s-.34-2-1.51-2-1.5,1-1.5,2S826.57,188.42,827.72,188.42Z"/><path class="cls-28" d="M832.23,181h4.61a2.35,2.35,0,0,1,2.51,2.36,2.1,2.1,0,0,1-1.36,2.15v0c.93.25,1.19,1.13,1.25,2a4.52,4.52,0,0,0,.36,2h-1.88a9.62,9.62,0,0,1-.3-2.05c-.13-.9-.48-1.3-1.43-1.3h-1.88v3.35h-1.88Zm1.88,3.87h2.06c.85,0,1.3-.36,1.3-1.22s-.45-1.19-1.3-1.19h-2.06Z"/><path class="cls-28" d="M840.64,185.24c.09-1.59,1.52-2.08,2.91-2.08s2.72.28,2.72,1.76v3.23a3.12,3.12,0,0,0,.22,1.38h-1.73a2.46,2.46,0,0,1-.12-.6,2.84,2.84,0,0,1-2.08.77c-1.19,0-2.11-.59-2.11-1.86,0-2.82,4.19-1.31,4.12-2.7,0-.72-.5-.84-1.1-.84s-1.07.27-1.13.94Zm3.93,1.26a3.5,3.5,0,0,1-1.41.36c-.53.09-1,.28-1,.91s.49.79,1,.79a1.26,1.26,0,0,0,1.38-1.43Z"/><path class="cls-28" d="M849.75,180.43a2.61,2.61,0,1,1-2.69,2.6A2.59,2.59,0,0,1,849.75,180.43Zm0,4.66a2.06,2.06,0,1,0-2-2.06A2,2,0,0,0,849.75,185.09Zm-1-3.53h1.11c.73,0,1.14.23,1.14.87a.72.72,0,0,1-.76.78l.78,1.28h-.61l-.71-1.25h-.37v1.25h-.58Zm.58,1.23h.52c.34,0,.57,0,.57-.41s-.33-.36-.6-.36h-.49Z"/><path class="cls-28" d="M859.05,181H861l3.2,8.56h-1.95l-.65-1.91h-3.2l-.67,1.91H855.8Zm-.18,5.25h2.22L860,183.08h0Z"/><path class="cls-28" d="M864.75,183.33h1.62v.86h0a2.19,2.19,0,0,1,1.89-1c1.81,0,2.27,1,2.27,2.56v3.81h-1.71V186c0-1-.28-1.53-1.09-1.53s-1.32.52-1.32,1.78v3.25h-1.7Z"/><path class="cls-28" d="M874,183.33h1.25v1.14H874v3.07c0,.58.15.72.72.72a2.12,2.12,0,0,0,.53,0v1.33a6.27,6.27,0,0,1-1,.06c-1.06,0-2-.23-2-1.47v-3.66h-1v-1.14h1v-1.86H874Z"/><path class="cls-28" d="M877.49,186.84c0,1.1.57,1.58,1.53,1.58a1.4,1.4,0,0,0,1.34-.81h1.5a2.77,2.77,0,0,1-2.9,2.09,3,3,0,0,1-3.17-3.26,3.11,3.11,0,0,1,3.17-3.28c2.11,0,3.14,1.78,3,3.68Zm2.77-1.08c-.15-.86-.52-1.31-1.35-1.31a1.33,1.33,0,0,0-1.42,1.31Z"/><path class="cls-28" d="M883,183.33h1.62v.86h0a2.21,2.21,0,0,1,1.9-1c1.81,0,2.26,1,2.26,2.56v3.81h-1.7V186c0-1-.29-1.53-1.09-1.53s-1.32.52-1.32,1.78v3.25H883Z"/><path class="cls-28" d="M890.09,183.33h1.62v.86h0a2.19,2.19,0,0,1,1.89-1c1.81,0,2.27,1,2.27,2.56v3.81h-1.7V186c0-1-.29-1.53-1.09-1.53s-1.32.52-1.32,1.78v3.25h-1.71Z"/><path class="cls-28" d="M897.14,185.24c.09-1.59,1.52-2.08,2.91-2.08s2.72.28,2.72,1.76v3.23a3.12,3.12,0,0,0,.22,1.38h-1.73a2.46,2.46,0,0,1-.12-.6,2.84,2.84,0,0,1-2.08.77c-1.19,0-2.11-.59-2.11-1.86,0-2.82,4.19-1.31,4.12-2.7,0-.72-.5-.84-1.1-.84s-1.07.27-1.13.94Zm3.93,1.26a3.5,3.5,0,0,1-1.41.36c-.53.09-1,.28-1,.91s.49.79,1,.79a1.26,1.26,0,0,0,1.38-1.43Z"/><path class="cls-28" d="M787.81,203.82a9.84,9.84,0,0,1,0-11h.6a10.83,10.83,0,0,0-1.54,5.83,10.43,10.43,0,0,0,1.54,5.2Z"/><path class="cls-28" d="M789.26,193h3.92c1.41,0,2.61.68,2.61,2.23a2.06,2.06,0,0,1-1.67,2.18v0c1.12.16,1.44.9,1.5,1.94a4.73,4.73,0,0,0,.39,2.19h-.89a3.52,3.52,0,0,1-.23-1.33c-.06-1.2-.18-2.53-1.72-2.47h-3.09v3.8h-.82Zm.82,4.06h3a1.7,1.7,0,0,0,1.85-1.66c0-1.06-.61-1.71-1.85-1.71h-3Z"/><path class="cls-28" d="M797.27,193h3.8a2.45,2.45,0,1,1,0,4.89h-3v3.67h-.81Zm.81,4.2h2.81a1.76,1.76,0,1,0,0-3.51h-2.81Z"/><path class="cls-28" d="M804.68,198.58v-.7h3v.7Z"/><path class="cls-28" d="M809.65,198.71c0,1.76,1.22,2.3,2.79,2.3.9,0,2.27-.49,2.27-1.73,0-1-1-1.36-1.76-1.55l-1.91-.47c-1-.25-1.93-.72-1.93-2.06,0-.84.54-2.41,2.95-2.41,1.7,0,3.17.9,3.17,2.66h-.82a2.11,2.11,0,0,0-2.34-2c-1.11,0-2.14.43-2.14,1.71,0,.8.58,1.15,1.29,1.3l2.09.52c1.21.32,2.22.86,2.22,2.25,0,.59-.24,2.45-3.28,2.45-2,0-3.51-.91-3.42-3Z"/><path class="cls-28" d="M816.8,193H818l3,7.5,2.95-7.5h1.2v8.56h-.81v-7.4h0l-2.92,7.4h-.77l-2.94-7.4h0v7.4h-.82Z"/><path class="cls-28" d="M829.33,193h.91l3.36,8.56h-.88l-1-2.66h-3.9l-1,2.66h-.88Zm-1.3,5.2h3.37l-1.65-4.39Z"/><path class="cls-28" d="M837.72,193h5.43v.69h-4.62v3.1h4.1v.69h-4.1v4.08h-.81Z"/><path class="cls-28" d="M844.46,198.64a2.19,2.19,0,0,0,2,2.43,1.87,1.87,0,0,0,1.94-1.58h.76a2.52,2.52,0,0,1-2.7,2.22c-2,0-2.79-1.51-2.79-3.27s.82-3.28,2.79-3.28,2.78,1.74,2.72,3.48Zm4-.64a2.09,2.09,0,0,0-2-2.2,2.19,2.19,0,0,0-2,2.2Z"/><path class="cls-28" d="M850.25,195.34h.69v1h0a2.13,2.13,0,0,1,2-1.22,1.73,1.73,0,0,1,1.78,1.21,2.1,2.1,0,0,1,2-1.21c1.36,0,2,.72,2,2.17v4.2H858v-4.16c0-1-.37-1.57-1.46-1.57-1.31,0-1.68,1.08-1.68,2.23v3.5h-.76v-4.2c0-.84-.32-1.53-1.29-1.53-1.3,0-1.85,1-1.85,2.28v3.45h-.75Z"/><path class="cls-28" d="M860.17,197.24c.08-1.45,1.08-2.08,2.51-2.08,1.09,0,2.28.33,2.28,2v3.29c0,.3.14.45.44.45a.71.71,0,0,0,.24,0v.63a1.94,1.94,0,0,1-.49.05c-.77,0-.89-.44-.89-1.08h0a2.37,2.37,0,0,1-2.26,1.26c-1.15,0-2.07-.56-2.07-1.81,0-1.73,1.69-1.8,3.32-2,.62-.06,1-.17,1-.84,0-1-.72-1.27-1.62-1.27s-1.62.43-1.65,1.44Zm4,.91h0c-.1.18-.44.24-.64.27-1.28.23-2.88.23-2.88,1.43a1.28,1.28,0,0,0,1.38,1.22,2,2,0,0,0,2.16-1.94Z"/><path class="cls-28" d="M866.48,193h.76v8.56h-.76Z"/><path class="cls-28" d="M869.13,198.64a2.19,2.19,0,0,0,2,2.43,1.86,1.86,0,0,0,1.94-1.58h.76a2.52,2.52,0,0,1-2.7,2.22c-2,0-2.79-1.51-2.79-3.27s.83-3.28,2.79-3.28,2.78,1.74,2.72,3.48Zm4-.64a2.09,2.09,0,0,0-2-2.2c-1.25,0-1.9,1.08-2,2.2Z"/><path class="cls-28" d="M884.66,195.56a2.6,2.6,0,0,0-2.63-2.08c-2.27,0-3.23,1.9-3.23,3.77s1,3.76,3.23,3.76a2.81,2.81,0,0,0,2.75-2.74h.81a3.48,3.48,0,0,1-3.56,3.44c-2.7,0-4-2.11-4-4.46s1.34-4.46,4-4.46a3.28,3.28,0,0,1,3.44,2.77Z"/><path class="cls-28" d="M892.24,198.44a2.94,2.94,0,1,1-5.85,0c0-1.78,1-3.28,2.93-3.28S892.24,196.66,892.24,198.44Zm-5.09,0a2.21,2.21,0,1,0,2.17-2.64C887.88,195.8,887.15,197.13,887.15,198.44Z"/><path class="cls-28" d="M893.36,195.34h.76v1.07h0a2.12,2.12,0,0,1,2-1.25c1.74,0,2.27.91,2.27,2.39v4h-.76v-3.86c0-1.06-.35-1.87-1.57-1.87a2,2,0,0,0-1.94,2.12v3.61h-.76Z"/><path class="cls-28" d="M899.8,195.34h.76v1.07h0a2.13,2.13,0,0,1,2-1.25c1.74,0,2.27.91,2.27,2.39v4h-.76v-3.86c0-1.06-.34-1.87-1.57-1.87a2,2,0,0,0-1.94,2.12v3.61h-.76Z"/><path class="cls-28" d="M906.71,198.64a2.19,2.19,0,0,0,2,2.43,1.87,1.87,0,0,0,2-1.58h.75a2.52,2.52,0,0,1-2.7,2.22c-2,0-2.79-1.51-2.79-3.27s.83-3.28,2.79-3.28,2.79,1.74,2.73,3.48Zm4-.64a2.09,2.09,0,0,0-2-2.2,2.19,2.19,0,0,0-2,2.2Z"/><path class="cls-28" d="M916.85,197.28a1.66,1.66,0,0,0-1.75-1.48c-1.44,0-2.17,1.33-2.17,2.64a2.36,2.36,0,0,0,2.17,2.63,1.85,1.85,0,0,0,1.8-1.76h.76a2.51,2.51,0,0,1-2.56,2.4,3,3,0,0,1-2.92-3.27c0-1.78,1-3.28,2.92-3.28a2.31,2.31,0,0,1,2.51,2.12Z"/><path class="cls-28" d="M919.92,195.34h1.26V196h-1.26v4.17c0,.49.07.78.61.82a4.82,4.82,0,0,0,.65,0v.65l-.68,0c-1,0-1.35-.33-1.34-1.39V196h-1.08v-.64h1.08v-1.86h.76Z"/><path class="cls-28" d="M927.81,198.44a2.94,2.94,0,1,1-5.85,0c0-1.78,1-3.28,2.92-3.28S927.81,196.66,927.81,198.44Zm-5.1,0a2.21,2.21,0,1,0,4.34,0c0-1.31-.73-2.64-2.17-2.64S922.71,197.13,922.71,198.44Z"/><path class="cls-28" d="M928.94,195.34h.7v1.45h0a2.27,2.27,0,0,1,2.34-1.53V196a2.13,2.13,0,0,0-2.3,2.22v3.3h-.76Z"/><path class="cls-28" d="M932.59,192.79a10,10,0,0,1,1.69,5.48,10.17,10.17,0,0,1-1.69,5.55H932a10.82,10.82,0,0,0,1.53-5.83,10.69,10.69,0,0,0-1.53-5.2Z"/><path class="cls-28" d="M1075.66,660.19h1.89v7h4.17v1.58h-6.06Z"/><path class="cls-28" d="M1082.78,660.19h6.4v1.58h-4.52v1.84h4.15v1.46h-4.15v2.1h4.62v1.58h-6.5Z"/><path class="cls-28" d="M1090.56,660.19h3.69c2.22,0,3.88,1.4,3.88,4.23,0,2.49-1.27,4.33-3.88,4.33h-3.69Zm1.88,7h1.68c1.09,0,2.13-.67,2.13-2.57,0-1.72-.61-2.83-2.47-2.83h-1.34Z"/><path class="cls-28" d="M964.24,699.08h-2.57V697.5h7v1.58h-2.57v7h-1.88Z"/><path class="cls-28" d="M969.68,697.5h6v1.58h-4.14v2h3.59v1.47h-3.59v3.53h-1.88Z"/><path class="cls-28" d="M985.84,700.38a1.87,1.87,0,0,0-1.87-1.5c-1.69,0-2.33,1.44-2.33,2.94s.64,2.87,2.33,2.87a1.92,1.92,0,0,0,1.94-1.92h1.82a3.6,3.6,0,0,1-3.76,3.5,4.14,4.14,0,0,1-4.21-4.45c0-2.54,1.57-4.52,4.21-4.52a3.48,3.48,0,0,1,3.69,3.08Z"/><path class="cls-28" d="M988.77,701.77c.1-1.58,1.52-2.07,2.91-2.07s2.73.27,2.73,1.76v3.23a3.24,3.24,0,0,0,.21,1.37h-1.73a2.36,2.36,0,0,1-.11-.6,2.81,2.81,0,0,1-2.09.77c-1.19,0-2.11-.59-2.11-1.86,0-2.82,4.2-1.3,4.12-2.7,0-.71-.5-.84-1.1-.84s-1.07.27-1.13.94ZM992.7,703a3.41,3.41,0,0,1-1.41.36c-.53.1-1,.29-1,.91s.49.79,1,.79a1.25,1.25,0,0,0,1.38-1.42Z"/><path class="cls-28" d="M995.73,699.86h1.62V701h0a2.19,2.19,0,0,1,2-1.32,1.15,1.15,0,0,1,.37.06v1.58a2.74,2.74,0,0,0-.61-.06c-1.26,0-1.68.89-1.68,2v2.79h-1.7Z"/><path class="cls-28" d="M1004.82,705.27h0a2.05,2.05,0,0,1-1.88,1c-1.88,0-2.79-1.59-2.79-3.32s.93-3.21,2.75-3.21a2.12,2.12,0,0,1,1.83.92h0V697.5h1.7v8.56h-1.62Zm-1.49-4.29c-1.11,0-1.49,1-1.49,2s.44,2,1.49,2,1.47-1,1.47-2S1004.44,701,1003.33,701Z"/><path class="cls-28" d="M975.54,715.25c0,1.76,1.23,2.3,2.8,2.3.9,0,2.27-.49,2.27-1.74,0-1-1-1.36-1.77-1.55l-1.9-.47c-1-.25-1.94-.71-1.94-2.06,0-.84.54-2.41,3-2.41,1.7,0,3.16.9,3.16,2.66h-.81a2.12,2.12,0,0,0-2.34-2c-1.12,0-2.15.43-2.15,1.7,0,.8.59,1.15,1.3,1.31l2.08.51c1.21.33,2.22.87,2.22,2.26,0,.59-.24,2.44-3.27,2.44-2,0-3.52-.91-3.42-3Z"/><path class="cls-28" d="M982.59,709.5h.75v8.56h-.75Z"/><path class="cls-28" d="M990.34,715a3,3,0,0,1-2.93,3.27c-1.88,0-2.92-1.49-2.92-3.27a2.94,2.94,0,1,1,5.85,0Zm-5.1,0c0,1.31.73,2.64,2.17,2.64s2.17-1.33,2.17-2.64-.73-2.64-2.17-2.64S985.24,713.66,985.24,715Z"/><path class="cls-28" d="M992.67,711.88h1.26v.63h-1.26v4.18c0,.49.07.77.61.81a4.73,4.73,0,0,0,.65,0v.65c-.23,0-.45,0-.67,0-1,0-1.36-.34-1.35-1.39v-4.24h-1.08v-.63h1.08V710h.76Z"/><path class="cls-28" d="M271,684.29h3.86a2.75,2.75,0,1,1,0,5.49h-2v3.07H271Zm1.88,4h1.46c.87,0,1.66-.2,1.66-1.29s-.79-1.28-1.66-1.28h-1.46Z"/><path class="cls-28" d="M278.78,688.56c.1-1.59,1.52-2.08,2.91-2.08s2.73.28,2.73,1.76v3.23a3.29,3.29,0,0,0,.21,1.38h-1.72a2.46,2.46,0,0,1-.12-.6,2.85,2.85,0,0,1-2.09.77c-1.19,0-2.11-.59-2.11-1.86,0-2.82,4.2-1.31,4.12-2.7,0-.72-.5-.84-1.1-.84s-1.07.26-1.13.94Zm3.93,1.26a3.27,3.27,0,0,1-1.41.35c-.53.1-1,.29-1,.92s.49.79,1,.79a1.26,1.26,0,0,0,1.38-1.43Z"/><path class="cls-28" d="M287.49,685.69h-1.7v-1.4h1.7Zm-1.7,1h1.7v6.2h-1.7Z"/><path class="cls-28" d="M288.84,686.65h1.62v1.15h0a2.18,2.18,0,0,1,2-1.32,1.15,1.15,0,0,1,.37.06v1.58a3.71,3.71,0,0,0-.61-.06c-1.26,0-1.68.89-1.68,2v2.8h-1.7Z"/><path class="cls-28" d="M295.25,685.69h-1.7v-1.4h1.7Zm-1.7,1h1.7v6.2h-1.7Z"/><path class="cls-28" d="M296.6,686.65h1.62v.86h0a2.2,2.2,0,0,1,1.9-1c1.81,0,2.27,1,2.27,2.56v3.81h-1.71v-3.5c0-1-.28-1.53-1.09-1.53s-1.32.52-1.32,1.78v3.25h-1.7Z"/><path class="cls-28" d="M309.68,692.45c0,1-.38,2.75-3.22,2.75-1.22,0-2.64-.59-2.73-2h1.69a1.15,1.15,0,0,0,1.27.85c.95,0,1.38-.64,1.37-1.53v-.82h0a2.05,2.05,0,0,1-1.86,1c-1.87,0-2.65-1.42-2.65-3.12a2.78,2.78,0,0,1,2.67-3.07,1.94,1.94,0,0,1,1.84,1h0v-.83h1.62Zm-1.62-2.78c0-1-.35-1.91-1.45-1.91s-1.38.84-1.38,1.77.32,1.86,1.38,1.86A1.53,1.53,0,0,0,308.06,689.67Z"/><path class="cls-28" d="M273.83,696.29h3.62c1.44,0,2.75.5,2.75,2.09a1.94,1.94,0,0,1-1.49,1.92v0a2,2,0,0,1,1.81,2.09c0,.81-.29,2.43-3.07,2.43h-3.62Zm.82,3.75h2.8c1.3,0,1.93-.65,1.93-1.45,0-1.07-.64-1.61-1.93-1.61h-2.8Zm0,4.11h2.8c1.21,0,2.26-.37,2.26-1.76,0-1.1-.82-1.65-2.26-1.65h-2.8Z"/><path class="cls-28" d="M286.7,704.85H286v-1.12h0a2.29,2.29,0,0,1-2.13,1.3c-1.57,0-2.17-.9-2.17-2.35v-4h.75v4c0,1.12.46,1.7,1.66,1.7s1.86-1.22,1.86-2.48v-3.25h.75Z"/><path class="cls-28" d="M289.33,698.66h1.26v.64h-1.26v4.17c0,.49.08.78.62.82.21,0,.43,0,.64,0v.65l-.67,0c-1,0-1.35-.33-1.34-1.39V699.3H287.5v-.64h1.08V696.8h.75Z"/><path class="cls-28" d="M292.89,698.66h1.25v.64h-1.25v4.17c0,.49.07.78.61.82.21,0,.43,0,.64,0v.65l-.67,0c-1,0-1.35-.33-1.34-1.39V699.3h-1.08v-.64h1.08V696.8h.76Z"/><path class="cls-28" d="M300.78,701.75c0,1.78-1,3.28-2.93,3.28s-2.92-1.5-2.92-3.28a2.94,2.94,0,1,1,5.85,0Zm-5.1,0c0,1.31.73,2.64,2.17,2.64s2.17-1.33,2.17-2.64a2.21,2.21,0,1,0-4.34,0Z"/><path class="cls-28" d="M301.9,698.66h.75v1.07h0a2.1,2.1,0,0,1,2-1.25c1.74,0,2.26.91,2.26,2.39v4h-.75V701c0-1.06-.35-1.87-1.57-1.87a2,2,0,0,0-2,2.12v3.61h-.75Z"/><line class="cls-26" x1="290.3" y1="486.68" x2="290.3" y2="673.56"/><path class="cls-27" d="M286.54,673.37a3.76,3.76,0,1,0,3.76-3.76A3.76,3.76,0,0,0,286.54,673.37Z"/><line class="cls-26" x1="1086.73" y1="499.97" x2="1086.73" y2="646.59"/><path class="cls-27" d="M1083,646.4a3.76,3.76,0,1,0,3.76-3.76A3.76,3.76,0,0,0,1083,646.4Z"/><line class="cls-26" x1="984.55" y1="550.03" x2="984.55" y2="682.85"/><path class="cls-27" d="M980.79,682.66a3.76,3.76,0,1,0,3.76-3.76A3.76,3.76,0,0,0,980.79,682.66Z"/><path class="cls-28" d="M1528.36,187.46a2.89,2.89,0,0,1-2.35,1.18,4.14,4.14,0,0,1-4.21-4.45c0-2.55,1.57-4.52,4.21-4.52a3.42,3.42,0,0,1,3.61,3h-1.8a1.74,1.74,0,0,0-1.81-1.44c-1.69,0-2.33,1.44-2.33,2.94s.64,2.86,2.33,2.86a1.84,1.84,0,0,0,2-1.84h-1.9V183.8h3.6v4.63h-1.2Z"/><path class="cls-28" d="M1532.85,181.27h-1.7v-1.4h1.7Zm-1.7,1h1.7v6.2h-1.7Z"/><path class="cls-28" d="M1540.16,188c0,1-.37,2.74-3.22,2.74-1.22,0-2.64-.58-2.73-2h1.69a1.14,1.14,0,0,0,1.27.85c.95,0,1.38-.63,1.37-1.53v-.82h0a2.05,2.05,0,0,1-1.86,1c-1.87,0-2.65-1.41-2.65-3.12a2.78,2.78,0,0,1,2.67-3.07,1.94,1.94,0,0,1,1.84,1h0v-.83h1.62Zm-1.62-2.79c0-1-.35-1.9-1.45-1.9s-1.38.84-1.38,1.76.32,1.86,1.38,1.86A1.53,1.53,0,0,0,1538.54,185.25Z"/><path class="cls-28" d="M1541.46,184.14c.09-1.58,1.52-2.08,2.91-2.08s2.72.28,2.72,1.77v3.22a3.09,3.09,0,0,0,.22,1.38h-1.73a2.37,2.37,0,0,1-.12-.6,2.8,2.8,0,0,1-2.08.77c-1.19,0-2.12-.59-2.12-1.86,0-2.82,4.2-1.31,4.13-2.7,0-.72-.5-.84-1.1-.84s-1.07.27-1.13.94Zm3.93,1.26a3.5,3.5,0,0,1-1.42.36c-.52.09-1,.29-1,.91s.49.79,1,.79a1.26,1.26,0,0,0,1.38-1.43Z"/><path class="cls-28" d="M1548.42,179.87h1.7V183h0a2.29,2.29,0,0,1,2-.93c1.23,0,2.56,1,2.56,3.27s-1.33,3.27-2.56,3.27a2.16,2.16,0,0,1-2-1h0v.79h-1.62Zm3.09,3.48c-1,0-1.45.93-1.45,2s.44,2,1.45,2,1.45-.95,1.45-2S1552.52,183.35,1551.51,183.35Z"/><path class="cls-28" d="M1557.5,181.27h-1.7v-1.4h1.7Zm-1.7,1h1.7v6.2h-1.7Z"/><path class="cls-28" d="M1561,182.23h1.25v1.14H1561v3.07c0,.58.15.72.72.72a2.22,2.22,0,0,0,.53,0v1.33a6.33,6.33,0,0,1-1,.06c-1,0-2-.22-2-1.47v-3.66h-1v-1.14h1v-1.86h1.7Z"/><path class="cls-28" d="M1566.58,179.87H1573v1.58h-4.52v1.84h4.15v1.46h-4.15v2.1h4.61v1.58h-6.5Z"/><path class="cls-28" d="M1576.34,182.23h1.25v1.14h-1.25v3.07c0,.58.14.72.72.72a2.22,2.22,0,0,0,.53,0v1.33a6.33,6.33,0,0,1-1,.06c-1,0-2-.22-2-1.47v-3.66h-1v-1.14h1v-1.86h1.71Z"/><path class="cls-28" d="M1578.4,179.87h1.71v3.23h0a2.16,2.16,0,0,1,1.81-1c1.81,0,2.27,1,2.27,2.56v3.81h-1.7v-3.5c0-1-.29-1.52-1.09-1.52s-1.32.51-1.32,1.77v3.25h-1.71Z"/><path class="cls-28" d="M1586.92,185.75c0,1.09.57,1.57,1.53,1.57a1.4,1.4,0,0,0,1.34-.81h1.5a2.77,2.77,0,0,1-2.9,2.09,3,3,0,0,1-3.17-3.26,3.11,3.11,0,0,1,3.17-3.28c2.11,0,3.14,1.78,3,3.69Zm2.77-1.08c-.15-.87-.52-1.32-1.35-1.32a1.34,1.34,0,0,0-1.42,1.32Z"/><path class="cls-28" d="M1592.41,182.23H1594v1.15h0a2.19,2.19,0,0,1,2-1.32,1.51,1.51,0,0,1,.37.06v1.59a2.8,2.8,0,0,0-.61-.06c-1.26,0-1.68.89-1.68,2v2.79h-1.7Z"/><path class="cls-28" d="M1597.07,182.23h1.62v.87h0a2.19,2.19,0,0,1,1.89-1c1.82,0,2.27,1,2.27,2.56v3.81h-1.7v-3.5c0-1-.29-1.52-1.09-1.52s-1.32.51-1.32,1.77v3.25h-1.71Z"/><path class="cls-28" d="M1605.59,185.75c.05,1.09.57,1.57,1.53,1.57a1.4,1.4,0,0,0,1.34-.81h1.5a2.77,2.77,0,0,1-2.9,2.09,3,3,0,0,1-3.17-3.26,3.11,3.11,0,0,1,3.17-3.28c2.11,0,3.14,1.78,3,3.69Zm2.78-1.08c-.16-.87-.53-1.32-1.36-1.32a1.34,1.34,0,0,0-1.42,1.32Z"/><path class="cls-28" d="M1613.24,182.23h1.24v1.14h-1.24v3.07c0,.58.14.72.72.72a2.09,2.09,0,0,0,.52,0v1.33a6.12,6.12,0,0,1-1,.06c-1.06,0-2-.22-2-1.47v-3.66h-1v-1.14h1v-1.86h1.7Z"/><line class="cls-26" x1="1568" y1="445.52" x2="1568" y2="207.93"/><path class="cls-27" d="M1571.76,208.11a3.76,3.76,0,1,0-3.76,3.76A3.76,3.76,0,0,0,1571.76,208.11Z"/><rect class="cls-26" x="1063.65" y="479.79" width="46.16" height="20.18" rx="8.61"/><line class="cls-29" x1="842.5" y1="463.1" x2="877.9" y2="427.7"/><line class="cls-29" x1="1062.1" y1="457.31" x2="1103.79" y2="433.67"/><line class="cls-29" x1="1059.85" y1="329.32" x2="1106.04" y2="342.08"/></svg>