<?xml version="1.0" encoding="utf-8"?>
<!-- Generator: Adobe Illustrator 25.3.1, SVG Export Plug-In . SVG Version: 6.00 Build 0)  -->
<svg version="1.1" id="Layer_1" xmlns="http://www.w3.org/2000/svg" xmlns:xlink="http://www.w3.org/1999/xlink" x="0px" y="0px"
	 viewBox="0 0 1745.7 832.3" style="enable-background:new 0 0 1745.7 832.3;" xml:space="preserve">
<style type="text/css">
	.st0{fill:#1C2127;}
	.st1{fill:#26292E;}
	.st2{fill:#4C5059;}
	.st3{fill:#A6762A;}
	.st4{fill:#B68F31;}
	.st5{fill:#956725;}
	.st6{fill:#FFEEB6;}
	.st7{fill:#E5D1B0;}
	.st8{fill:#1B1C20;}
	.st9{fill:#121318;}
	.st10{fill:#4F5B5B;}
	.st11{fill:#1E2628;}
	.st12{fill:#1B1E22;}
	.st13{fill:#31383B;}
	.st14{fill:#868D90;}
	.st15{fill:#141C1F;}
	.st16{fill:#273039;}
	.st17{fill:#232732;}
	.st18{fill:#0B0E12;}
	.st19{opacity:0.35;fill:#4C4F58;enable-background:new    ;}
	.st20{fill:#505551;}
	.st21{fill:#13181C;}
	.st22{fill:#616066;}
	.st23{fill:#D38D29;}
	.st24{fill:#393D3A;}
	.st25{fill:none;stroke:#FFF200;stroke-width:1.0762;stroke-miterlimit:9;}
	.st26{fill:#FFF200;}
	.st27{fill:#333333;}
	.st28{fill:none;stroke:#FFF200;stroke-miterlimit:9;}
	.st29{fill:none;stroke:#1B1E22;stroke-width:4;stroke-miterlimit:10;}
</style>
<rect x="140.1" y="585.2" class="st0" width="573" height="29.5"/>
<rect x="770.1" y="295.3" class="st1" width="409.1" height="285.4"/>
<rect x="770.1" y="295.3" class="st2" width="12.1" height="285.4"/>
<rect x="1159.8" y="295.3" class="st2" width="12.1" height="285.4"/>
<circle class="st3" cx="860.2" cy="335.7" r="31.8"/>
<circle class="st4" cx="860.2" cy="335.7" r="26.6"/>
<circle class="st5" cx="860.2" cy="335.7" r="24.5"/>
<circle class="st6" cx="860.2" cy="335.7" r="20.8"/>
<circle class="st7" cx="860.2" cy="335.7" r="16.1"/>
<circle class="st5" cx="860.2" cy="335.7" r="4.3"/>
<path class="st8" d="M1030.6,542.7h-92.1c-5.6,0-10.1-4.5-10.1-10c0,0,0,0,0-0.1v-24c0-5.6,4.5-10.1,10-10.1c0,0,0,0,0.1,0h92.1
	c5.6,0,10.1,4.5,10.1,10c0,0,0,0,0,0.1v24C1040.7,538.2,1036.2,542.7,1030.6,542.7C1030.6,542.7,1030.6,542.7,1030.6,542.7z"/>
<path class="st9" d="M1022.3,534.3h-76c-5.4,0-9.9-4.4-9.9-9.8c0,0,0-0.1,0-0.1v-10.1h95.8v10.1
	C1032.2,529.9,1027.8,534.3,1022.3,534.3z"/>
<rect x="936.5" y="507.8" class="st10" width="95.8" height="6.5"/>
<rect x="936.5" y="517.3" class="st11" width="95.8" height="6.5"/>
<circle class="st9" cx="1078.5" cy="489.2" r="4.6"/>
<circle class="st9" cx="1094.8" cy="489.2" r="4.6"/>
<circle class="st12" cx="860.2" cy="445.4" r="30"/>
<circle class="st13" cx="860.2" cy="445.4" r="22.9"/>
<circle class="st12" cx="1082.8" cy="445.4" r="30"/>
<circle class="st13" cx="1082.8" cy="445.4" r="22.9"/>
<circle class="st12" cx="1082.8" cy="335.7" r="30"/>
<circle class="st13" cx="1082.8" cy="335.7" r="22.9"/>
<rect x="1254" y="295.1" class="st1" width="409.1" height="285.4"/>
<rect x="1254" y="295.1" class="st2" width="12.1" height="285.4"/>
<rect x="1643.7" y="295.1" class="st2" width="12.1" height="285.4"/>
<rect x="767.2" y="260.6" class="st1" width="59.4" height="34.8"/>
<rect x="1115.9" y="260.6" class="st1" width="63.9" height="34.8"/>
<rect x="825.4" y="284.2" class="st1" width="308.5" height="11.2"/>
<rect x="842.5" y="260.6" class="st1" width="12.7" height="34.8"/>
<rect x="874" y="260.6" class="st1" width="12.7" height="34.8"/>
<rect x="905.5" y="260.6" class="st1" width="12.7" height="34.8"/>
<rect x="1026.8" y="260.6" class="st1" width="12.7" height="34.8"/>
<rect x="966.2" y="260.6" class="st1" width="12.7" height="34.8"/>
<rect x="1058.3" y="260.6" class="st1" width="12.7" height="34.8"/>
<rect x="1089.9" y="260.6" class="st1" width="12.7" height="34.8"/>
<rect x="938.8" y="260.6" class="st1" width="66.1" height="9.1"/>
<rect x="1251.2" y="260.3" class="st1" width="59.4" height="34.8"/>
<rect x="1599.8" y="260.3" class="st1" width="63.9" height="34.8"/>
<rect x="1310.6" y="284" class="st1" width="307.2" height="11.1"/>
<rect x="1326.4" y="260.3" class="st1" width="12.7" height="34.8"/>
<rect x="1357.9" y="260.3" class="st1" width="12.7" height="34.8"/>
<rect x="1389.4" y="260.3" class="st1" width="12.7" height="34.8"/>
<rect x="1510.7" y="260.3" class="st1" width="12.7" height="34.8"/>
<rect x="1450.1" y="260.3" class="st1" width="12.7" height="34.8"/>
<rect x="1542.3" y="260.3" class="st1" width="12.7" height="34.8"/>
<rect x="1573.8" y="260.3" class="st1" width="12.7" height="34.8"/>
<rect x="1422.8" y="260.3" class="st1" width="66.1" height="9.1"/>
<rect x="767.2" y="580" class="st1" width="59.4" height="34.8"/>
<rect x="1115.9" y="580" class="st1" width="63.9" height="34.8"/>
<rect x="826.7" y="580" class="st1" width="307.2" height="11.1"/>
<rect x="842.5" y="580" class="st1" width="12.7" height="34.8"/>
<rect x="874" y="580" class="st1" width="12.7" height="34.8"/>
<rect x="905.5" y="580" class="st1" width="12.7" height="34.8"/>
<rect x="1026.8" y="580" class="st1" width="12.7" height="34.8"/>
<rect x="966.2" y="580" class="st1" width="12.7" height="34.8"/>
<rect x="1058.3" y="580" class="st1" width="12.7" height="34.8"/>
<rect x="1089.9" y="580" class="st1" width="12.7" height="34.8"/>
<rect x="938.8" y="605.6" class="st1" width="66.1" height="9.1"/>
<rect x="1251.2" y="580.3" class="st1" width="59.4" height="34.8"/>
<rect x="1599.8" y="580.3" class="st1" width="63.9" height="34.8"/>
<rect x="1310.6" y="580.3" class="st1" width="307.2" height="11.1"/>
<rect x="1326.4" y="580.3" class="st1" width="12.7" height="34.8"/>
<rect x="1357.9" y="580.3" class="st1" width="12.7" height="34.8"/>
<rect x="1389.4" y="580.3" class="st1" width="12.7" height="34.8"/>
<rect x="1510.7" y="580.3" class="st1" width="12.7" height="34.8"/>
<rect x="1450.1" y="580.3" class="st1" width="12.7" height="34.8"/>
<rect x="1542.3" y="580.3" class="st1" width="12.7" height="34.8"/>
<rect x="1573.8" y="580.3" class="st1" width="12.7" height="34.8"/>
<rect x="1422.8" y="606" class="st1" width="66.1" height="9.1"/>
<path class="st14" d="M1382.7,529H1312c-3.5,0-6.3-2.8-6.3-6.2c0,0,0,0,0-0.1v-81.2c0-3.5,2.8-6.3,6.2-6.3c0,0,0,0,0.1,0h70.7
	c3.5,0,6.3,2.8,6.3,6.2c0,0,0,0,0,0.1v81.2C1389,526.2,1386.2,529,1382.7,529z"/>
<path class="st14" d="M1490.2,529h-70.7c-3.5,0-6.3-2.8-6.3-6.2c0,0,0,0,0-0.1v-81.2c0-3.5,2.8-6.3,6.2-6.3c0,0,0,0,0.1,0h70.7
	c3.5,0,6.3,2.8,6.3,6.2c0,0,0,0,0,0.1v81.2C1496.5,526.2,1493.7,529,1490.2,529C1490.2,529,1490.2,529,1490.2,529z"/>
<rect x="1521.3" y="450.7" class="st14" width="93.4" height="84.5"/>
<rect x="1529.5" y="464.8" class="st15" width="77.6" height="53.6"/>
<rect x="1554" y="502" class="st15" width="28.1" height="28.1"/>
<rect x="140.1" y="255.9" class="st16" width="572.9" height="329.4"/>
<rect x="140.1" y="255.9" class="st0" width="572.9" height="39.1"/>
<rect x="140.1" y="294.9" class="st17" width="32.9" height="290.3"/>
<rect x="543.8" y="294.9" class="st17" width="169.3" height="290.3"/>
<rect x="533.8" y="294.9" class="st18" width="10" height="290.3"/>
<rect x="173" y="294.8" class="st18" width="370.7" height="10.3"/>
<rect x="696.6" y="255.9" class="st19" width="7.3" height="329.6"/>
<path class="st20" d="M244.8,536.2h-38.3c-4.8,0-8.7-3.9-8.7-8.7v-8.2c0-4.8,3.9-8.7,8.7-8.7h38.3c4.8,0,8.7,3.9,8.7,8.7v8.2
	C253.5,532.3,249.6,536.2,244.8,536.2z"/>
<path class="st21" d="M244.7,529.6h-36.8c-3,0-5.5-2.5-5.5-5.5v-2.8c0-3,2.5-5.5,5.5-5.5h36.8c3,0,5.5,2.5,5.5,5.5v2.8
	C250.1,527.1,247.7,529.5,244.7,529.6z"/>
<rect x="206.1" y="519.9" class="st22" width="40" height="5.1"/>
<rect x="125.8" y="323.5" class="st23" width="14.3" height="27.1"/>
<rect x="82" y="320.4" class="st23" width="44.1" height="32.4"/>
<rect x="125.8" y="310.8" class="st3" width="14.3" height="55.3"/>
<path class="st3" d="M125,344c-0.1-2.6-0.1-5.2-0.1-7.8s0-5.2,0.1-7.8c0.1,2.6,0.1,5.2,0.1,7.8S125,341.4,125,344z"/>
<path class="st3" d="M123.8,350.2c-0.2-1.2-0.2-2.4,0-3.6c0.2-1.2,0.5-2.4,1-3.5C125.1,345.5,124.8,348,123.8,350.2z"/>
<path class="st3" d="M125.9,350.2c-0.5-1.1-0.8-2.3-1-3.5c-0.2-1.2-0.2-2.4,0-3.6c0.5,1.1,0.8,2.3,1,3.5
	C126.1,347.8,126.1,349,125.9,350.2z"/>
<path class="st3" d="M123.8,348.7c0.5,1.1,0.8,2.3,1,3.5c0.2,1.2,0.2,2.4,0,3.6c-0.5-1.1-0.8-2.3-1-3.5
	C123.7,351.1,123.7,349.9,123.8,348.7z"/>
<path class="st3" d="M125.9,348.7c0.3,2.4,0,4.9-1,7.1C124.7,353.4,125,351,125.9,348.7z"/>
<path class="st3" d="M122,350.2c-0.2-1.2-0.2-2.4,0-3.6c0.2-1.2,0.5-2.4,1-3.5C123.3,345.5,122.9,348,122,350.2z"/>
<path class="st3" d="M124.1,350.2c-0.5-1.1-0.8-2.3-1-3.5c-0.2-1.2-0.2-2.4,0-3.6c0.5,1.1,0.8,2.3,1,3.5
	C124.2,347.8,124.2,349,124.1,350.2z"/>
<path class="st3" d="M122,348.7c0.5,1.1,0.8,2.3,1,3.5c0.2,1.2,0.2,2.4,0,3.6c-0.5-1.1-0.8-2.3-1-3.5
	C121.8,351.1,121.8,349.9,122,348.7z"/>
<path class="st3" d="M124.1,348.7c0.2,1.2,0.2,2.4,0,3.6c-0.2,1.2-0.5,2.4-1,3.5C122.8,353.4,123.1,350.9,124.1,348.7z"/>
<path class="st3" d="M120.1,350.2c-0.3-2.4,0-4.9,1-7.1C121.4,345.5,121,348,120.1,350.2z"/>
<path class="st3" d="M122.2,350.2c-0.5-1.1-0.8-2.3-1-3.5c-0.2-1.2-0.2-2.4,0-3.6c0.5,1.1,0.8,2.3,1,3.5
	C122.4,347.8,122.4,349,122.2,350.2z"/>
<path class="st3" d="M120.1,348.7c0.9,2.2,1.3,4.7,1,7.1c-0.5-1.1-0.8-2.3-1-3.5C120,351.1,120,349.9,120.1,348.7z"/>
<path class="st3" d="M122.2,348.7c0.2,1.2,0.2,2.4,0,3.6c-0.2,1.2-0.5,2.4-1,3.5C120.9,353.4,121.3,350.9,122.2,348.7z"/>
<path class="st3" d="M118.3,350.2c-0.3-2.4,0.1-4.9,1-7.1c0.2,1.2,0.2,2.4,0,3.6C119.1,347.9,118.8,349.1,118.3,350.2z"/>
<path class="st3" d="M120.4,350.2c-0.5-1.1-0.8-2.3-1-3.5c-0.2-1.2-0.2-2.4,0-3.6c0.5,1.1,0.8,2.3,1,3.5
	C120.6,347.8,120.6,349,120.4,350.2z"/>
<path class="st3" d="M118.3,348.7c0.9,2.2,1.3,4.7,1,7.1C118.3,353.6,118,351.1,118.3,348.7z"/>
<path class="st3" d="M120.4,348.7c0.2,1.2,0.2,2.4,0,3.6c-0.2,1.2-0.5,2.4-1,3.5c-0.2-1.2-0.2-2.4,0-3.6
	C119.5,351,119.9,349.8,120.4,348.7z"/>
<path class="st3" d="M116.5,350.2c-0.3-2.4,0.1-4.9,1-7.1c0.2,1.2,0.2,2.4,0,3.6C117.3,347.9,117,349.1,116.5,350.2z"/>
<path class="st3" d="M118.5,350.2c-0.5-1.1-0.8-2.3-1-3.5c-0.2-1.2-0.2-2.4,0-3.6c0.5,1.1,0.8,2.3,1,3.5
	C118.7,347.8,118.7,349,118.5,350.2z"/>
<path class="st3" d="M116.5,348.7c0.9,2.2,1.3,4.7,1,7.1C116.5,353.6,116.2,351.1,116.5,348.7z"/>
<path class="st3" d="M118.5,348.7c0.2,1.2,0.2,2.4,0,3.6c-0.2,1.2-0.5,2.4-1,3.5c-0.2-1.2-0.2-2.4,0-3.6
	C117.7,351,118,349.8,118.5,348.7z"/>
<path class="st3" d="M114.6,350.2c-0.2-1.2-0.2-2.4,0-3.6c0.2-1.2,0.5-2.4,1-3.5c0.2,1.2,0.2,2.4,0,3.6
	C115.4,347.9,115.1,349.1,114.6,350.2z"/>
<path class="st3" d="M116.7,350.2c-0.5-1.1-0.8-2.3-1-3.5c-0.2-1.2-0.2-2.4,0-3.6c0.5,1.1,0.8,2.3,1,3.5
	C116.8,347.8,116.8,349,116.7,350.2z"/>
<path class="st3" d="M114.6,348.7c0.5,1.1,0.8,2.3,1,3.5c0.2,1.2,0.2,2.4,0,3.6c-0.5-1.1-0.8-2.3-1-3.5
	C114.4,351.1,114.4,349.9,114.6,348.7z"/>
<path class="st3" d="M116.7,348.7c0.2,1.2,0.2,2.4,0,3.6c-0.2,1.2-0.5,2.4-1,3.5c-0.2-1.2-0.2-2.4,0-3.6
	C115.9,351,116.2,349.8,116.7,348.7z"/>
<path class="st3" d="M112.7,350.2c-0.2-1.2-0.2-2.4,0-3.6c0.2-1.2,0.5-2.4,1-3.5C114,345.5,113.7,348,112.7,350.2z"/>
<path class="st3" d="M114.8,350.2c-0.9-2.2-1.3-4.7-1-7.1C114.8,345.3,115.1,347.8,114.8,350.2z"/>
<path class="st3" d="M112.7,348.7c0.5,1.1,0.8,2.3,1,3.5c0.2,1.2,0.2,2.4,0,3.6c-0.5-1.1-0.8-2.3-1-3.5
	C112.6,351.1,112.6,349.9,112.7,348.7z"/>
<path class="st3" d="M114.8,348.7c0.3,2.4-0.1,4.9-1,7.1c-0.2-1.2-0.2-2.4,0-3.6C114,351,114.3,349.8,114.8,348.7z"/>
<path class="st3" d="M110.9,350.2c-0.2-1.2-0.2-2.4,0-3.6c0.2-1.2,0.5-2.4,1-3.5c0.2,1.2,0.2,2.4,0,3.6
	C111.7,347.9,111.4,349.1,110.9,350.2z"/>
<path class="st3" d="M113,350.2c-0.9-2.2-1.3-4.7-1-7.1C112.9,345.3,113.3,347.8,113,350.2z"/>
<path class="st3" d="M110.9,348.7c0.5,1.1,0.8,2.3,1,3.5c0.2,1.2,0.2,2.4,0,3.6c-0.5-1.1-0.8-2.3-1-3.5
	C110.7,351.1,110.7,349.9,110.9,348.7z"/>
<path class="st3" d="M113,348.7c0.3,2.4-0.1,4.9-1,7.1c-0.2-1.2-0.2-2.4,0-3.6C112.1,351,112.5,349.8,113,348.7z"/>
<path class="st3" d="M109,350.2c-0.2-1.2-0.2-2.4,0-3.6c0.2-1.2,0.5-2.4,1-3.5C110.3,345.5,110,348,109,350.2z"/>
<path class="st3" d="M111.1,350.2c-0.9-2.2-1.3-4.7-1-7.1c0.5,1.1,0.8,2.3,1,3.5C111.3,347.8,111.3,349,111.1,350.2z"/>
<path class="st3" d="M109,348.7c0.5,1.1,0.8,2.3,1,3.5c0.2,1.2,0.2,2.4,0,3.6c-0.5-1.1-0.8-2.3-1-3.5
	C108.8,351.1,108.8,349.9,109,348.7z"/>
<path class="st3" d="M111.1,348.7c0.2,1.2,0.2,2.4,0,3.6c-0.2,1.2-0.5,2.4-1,3.5C109.8,353.4,110.2,350.9,111.1,348.7z"/>
<path class="st3" d="M107.2,350.2c-0.2-1.2-0.2-2.4,0-3.6c0.2-1.2,0.5-2.4,1-3.5C108.5,345.5,108.1,348,107.2,350.2z"/>
<path class="st3" d="M109.3,350.2c-0.5-1.1-0.8-2.3-1-3.5c-0.2-1.2-0.2-2.4,0-3.6c0.5,1.1,0.8,2.3,1,3.5
	C109.4,347.8,109.4,349,109.3,350.2z"/>
<path class="st3" d="M107.2,348.7c0.5,1.1,0.8,2.3,1,3.5c0.2,1.2,0.2,2.4,0,3.6c-0.5-1.1-0.8-2.3-1-3.5
	C107,351.1,107,349.9,107.2,348.7z"/>
<path class="st3" d="M109.3,348.7c0.3,2.4,0,4.9-1,7.1C108,353.4,108.4,350.9,109.3,348.7z"/>
<path class="st3" d="M105.3,350.2c-0.2-1.2-0.2-2.4,0-3.6c0.2-1.2,0.5-2.4,1-3.5C106.6,345.5,106.3,348,105.3,350.2z"/>
<path class="st3" d="M107.5,350.2c-0.5-1.1-0.8-2.3-1-3.5c-0.2-1.2-0.2-2.4,0-3.6c0.5,1.1,0.8,2.3,1,3.5
	C107.6,347.8,107.6,349,107.5,350.2z"/>
<path class="st3" d="M105.3,348.7c0.5,1.1,0.8,2.3,1,3.5c0.2,1.2,0.2,2.4,0,3.6c-0.5-1.1-0.8-2.3-1-3.5
	C105.2,351.1,105.2,349.9,105.3,348.7z"/>
<path class="st3" d="M107.5,348.7c0.3,2.4,0,4.9-1,7.1C106.2,353.4,106.6,350.9,107.5,348.7z"/>
<path class="st3" d="M103.5,350.2c-0.3-2.4,0-4.9,1-7.1C104.7,345.5,104.3,347.9,103.5,350.2z"/>
<path class="st3" d="M105.6,350.2c-0.5-1.1-0.8-2.3-1-3.5c-0.2-1.2-0.2-2.4,0-3.6c0.5,1.1,0.8,2.3,1,3.5
	C105.8,347.8,105.8,349,105.6,350.2z"/>
<path class="st3" d="M103.5,348.7c0.9,2.2,1.3,4.7,1,7.1c-0.5-1.1-0.8-2.3-1-3.5C103.3,351.1,103.3,349.9,103.5,348.7z"/>
<path class="st3" d="M105.6,348.7c0.2,1.2,0.2,2.4,0,3.6c-0.2,1.2-0.5,2.4-1,3.5C104.3,353.4,104.6,350.9,105.6,348.7z"/>
<path class="st3" d="M101.6,350.2c-0.3-2.4,0.1-4.9,1-7.1C102.9,345.5,102.6,348,101.6,350.2z"/>
<path class="st3" d="M103.7,350.2c-0.9-2.2-1.3-4.7-1-7.1c0.5,1.1,0.8,2.3,1,3.5C103.9,347.8,103.9,349,103.7,350.2z"/>
<path class="st3" d="M101.6,348.7c0.9,2.2,1.3,4.7,1,7.1C101.7,353.5,101.4,351.1,101.6,348.7z"/>
<path class="st3" d="M103.7,348.7c0.2,1.2,0.2,2.4,0,3.6c-0.2,1.2-0.5,2.4-1,3.5c-0.2-1.2-0.2-2.4,0-3.6
	C102.9,351,103.2,349.8,103.7,348.7z"/>
<path class="st3" d="M99.8,350.2c-0.3-2.4,0.1-4.9,1-7.1c0.2,1.2,0.2,2.4,0,3.6C100.6,347.9,100.3,349.1,99.8,350.2z"/>
<path class="st3" d="M101.9,350.2c-0.5-1.1-0.8-2.3-1-3.5c-0.2-1.2-0.2-2.4,0-3.6c0.5,1.1,0.8,2.3,1,3.5
	C102.1,347.8,102.1,349,101.9,350.2z"/>
<path class="st3" d="M99.8,348.7c0.9,2.2,1.3,4.7,1,7.1C99.9,353.6,99.5,351.1,99.8,348.7z"/>
<path class="st3" d="M101.9,348.7c0.2,1.2,0.2,2.4,0,3.6c-0.2,1.2-0.5,2.4-1,3.5c-0.2-1.2-0.2-2.4,0-3.6
	C101,351,101.4,349.8,101.9,348.7z"/>
<path class="st3" d="M97.9,350.2c-0.2-1.2-0.2-2.4,0-3.6c0.2-1.2,0.5-2.4,1-3.5C99.2,345.5,98.9,348,97.9,350.2z"/>
<path class="st3" d="M100,350.2c-0.5-1.1-0.8-2.3-1-3.5c-0.2-1.2-0.2-2.4,0-3.6c0.5,1.1,0.8,2.3,1,3.5
	C100.2,347.8,100.2,349,100,350.2z"/>
<path class="st3" d="M97.9,348.7c0.5,1.1,0.8,2.3,1,3.5c0.2,1.2,0.2,2.4,0,3.6c-0.5-1.1-0.8-2.3-1-3.5
	C97.8,351.1,97.8,349.9,97.9,348.7z"/>
<path class="st3" d="M100,348.7c0.2,1.2,0.2,2.4,0,3.6c-0.2,1.2-0.5,2.4-1,3.5c-0.2-1.2-0.2-2.4,0-3.6
	C99.2,351,99.5,349.8,100,348.7z"/>
<path class="st3" d="M96.1,350.2c-0.2-1.2-0.2-2.4,0-3.6c0.2-1.2,0.5-2.4,1-3.5c0.2,1.2,0.2,2.4,0,3.6
	C96.9,347.9,96.6,349.1,96.1,350.2z"/>
<path class="st3" d="M98.2,350.2c-0.9-2.2-1.3-4.7-1-7.1C98.1,345.3,98.5,347.8,98.2,350.2z"/>
<path class="st3" d="M96.1,348.7c0.5,1.1,0.8,2.3,1,3.5c0.2,1.2,0.2,2.4,0,3.6c-0.5-1.1-0.8-2.3-1-3.5
	C95.9,351.1,95.9,349.9,96.1,348.7z"/>
<path class="st3" d="M98.2,348.7c0.3,2.4-0.1,4.9-1,7.1c-0.2-1.2-0.2-2.4,0-3.6C97.3,351,97.7,349.8,98.2,348.7z"/>
<path class="st3" d="M94.2,350.2c-0.2-1.2-0.2-2.4,0-3.6c0.2-1.2,0.5-2.4,1-3.5C95.5,345.5,95.2,348,94.2,350.2z"/>
<path class="st3" d="M96.3,350.2c-0.9-2.2-1.3-4.7-1-7.1C96.3,345.3,96.6,347.8,96.3,350.2z"/>
<path class="st3" d="M94.2,348.7c0.5,1.1,0.8,2.3,1,3.5c0.2,1.2,0.2,2.4,0,3.6c-0.5-1.1-0.8-2.3-1-3.5
	C94.1,351.1,94.1,349.9,94.2,348.7z"/>
<path class="st3" d="M96.3,348.7c0.3,2.4-0.1,4.9-1,7.1c-0.2-1.2-0.2-2.4,0-3.6C95.5,351,95.8,349.8,96.3,348.7z"/>
<path class="st3" d="M92.4,350.2c-0.3-2.4,0-4.9,1-7.1C93.6,345.5,93.3,347.9,92.4,350.2z"/>
<path class="st3" d="M94.5,350.2c-0.9-2.2-1.3-4.7-1-7.1c0.5,1.1,0.8,2.3,1,3.5C94.6,347.8,94.6,349,94.5,350.2z"/>
<path class="st3" d="M92.4,348.7c0.5,1.1,0.8,2.3,1,3.5c0.2,1.2,0.2,2.4,0,3.6c-0.5-1.1-0.8-2.3-1-3.5
	C92.2,351.1,92.2,349.9,92.4,348.7z"/>
<path class="st3" d="M94.5,348.7c0.2,1.2,0.2,2.4,0,3.6c-0.2,1.2-0.5,2.4-1,3.5C93.2,353.4,93.5,350.9,94.5,348.7z"/>
<path class="st3" d="M90.5,350.2c-0.2-1.2-0.2-2.4,0-3.6c0.2-1.2,0.5-2.4,1-3.5C91.8,345.5,91.5,348,90.5,350.2z"/>
<path class="st3" d="M92.6,350.2c-0.5-1.1-0.8-2.3-1-3.5c-0.2-1.2-0.2-2.4,0-3.6c0.5,1.1,0.8,2.3,1,3.5
	C92.8,347.8,92.8,349,92.6,350.2z"/>
<path class="st3" d="M90.5,348.7c0.5,1.1,0.8,2.3,1,3.5c0.2,1.2,0.2,2.4,0,3.6c-0.5-1.1-0.8-2.3-1-3.5
	C90.3,351.1,90.3,349.9,90.5,348.7z"/>
<path class="st3" d="M92.6,348.7c0.3,2.4,0,4.9-1,7.1C91.4,353.4,91.8,351,92.6,348.7z"/>
<path class="st3" d="M88.7,350.2c-0.2-1.2-0.2-2.4,0-3.6c0.2-1.2,0.5-2.4,1-3.5C90,345.5,89.6,348,88.7,350.2z"/>
<path class="st3" d="M90.8,350.2c-0.5-1.1-0.8-2.3-1-3.5c-0.2-1.2-0.2-2.4,0-3.6c0.5,1.1,0.8,2.3,1,3.5
	C90.9,347.8,90.9,349,90.8,350.2z"/>
<path class="st3" d="M88.7,348.7c0.5,1.1,0.8,2.3,1,3.5c0.2,1.2,0.2,2.4,0,3.6c-0.5-1.1-0.8-2.3-1-3.5
	C88.5,351.1,88.5,349.9,88.7,348.7z"/>
<path class="st3" d="M90.8,348.7c0.3,2.4,0,4.9-1,7.1C89.6,353.4,89.9,351,90.8,348.7z"/>
<path class="st3" d="M86.8,350.2c-0.2-1.2-0.2-2.4,0-3.6c0.2-1.2,0.5-2.4,1-3.5C88.1,345.5,87.8,348,86.8,350.2z"/>
<path class="st3" d="M88.9,350.2c-0.5-1.1-0.8-2.3-1-3.5c-0.2-1.2-0.2-2.4,0-3.6c0.5,1.1,0.8,2.3,1,3.5
	C89.1,347.8,89.1,349,88.9,350.2z"/>
<path class="st3" d="M86.8,348.7c0.9,2.2,1.3,4.7,1,7.1c-0.5-1.1-0.8-2.3-1-3.5C86.7,351.1,86.7,349.9,86.8,348.7z"/>
<path class="st3" d="M88.9,348.7c0.2,1.2,0.2,2.4,0,3.6c-0.2,1.2-0.5,2.4-1,3.5C87.7,353.4,88,351,88.9,348.7z"/>
<path class="st3" d="M123.8,325.4c-0.2-1.2-0.2-2.4,0-3.6c0.2-1.2,0.5-2.4,1-3.5C125.1,320.7,124.8,323.2,123.8,325.4z"/>
<path class="st3" d="M125.9,325.4c-0.5-1.1-0.8-2.3-1-3.5c-0.2-1.2-0.2-2.4,0-3.6c0.5,1.1,0.8,2.3,1,3.5
	C126.1,323,126.1,324.2,125.9,325.4z"/>
<path class="st3" d="M123.8,323.9c0.5,1.1,0.8,2.3,1,3.5c0.2,1.2,0.2,2.4,0,3.6c-0.5-1.1-0.8-2.3-1-3.5
	C123.7,326.3,123.7,325.1,123.8,323.9z"/>
<path class="st3" d="M125.9,323.9c0.3,2.4,0,4.9-1,7.1C124.7,328.6,125,326.2,125.9,323.9z"/>
<path class="st3" d="M122,325.4c-0.2-1.2-0.2-2.4,0-3.6c0.2-1.2,0.5-2.4,1-3.5C123.3,320.7,122.9,323.2,122,325.4z"/>
<path class="st3" d="M124.1,325.4c-0.5-1.1-0.8-2.3-1-3.5c-0.2-1.2-0.2-2.4,0-3.6c0.5,1.1,0.8,2.3,1,3.5
	C124.2,323,124.2,324.2,124.1,325.4z"/>
<path class="st3" d="M122,323.9c0.5,1.1,0.8,2.3,1,3.5c0.2,1.2,0.2,2.4,0,3.6c-0.5-1.1-0.8-2.3-1-3.5
	C121.8,326.3,121.8,325.1,122,323.9z"/>
<path class="st3" d="M124.1,323.9c0.2,1.2,0.2,2.4,0,3.6c-0.2,1.2-0.5,2.4-1,3.5C122.8,328.6,123.1,326.1,124.1,323.9z"/>
<path class="st3" d="M120.1,325.4c-0.3-2.4,0-4.9,1-7.1C121.4,320.7,121,323.2,120.1,325.4z"/>
<path class="st3" d="M122.2,325.4c-0.5-1.1-0.8-2.3-1-3.5c-0.2-1.2-0.2-2.4,0-3.6c0.5,1.1,0.8,2.3,1,3.5
	C122.4,323,122.4,324.2,122.2,325.4z"/>
<path class="st3" d="M120.1,323.9c0.9,2.2,1.3,4.7,1,7.1c-0.5-1.1-0.8-2.3-1-3.5C120,326.3,120,325.1,120.1,323.9z"/>
<path class="st3" d="M122.2,323.9c0.2,1.2,0.2,2.4,0,3.6c-0.2,1.2-0.5,2.4-1,3.5C120.9,328.6,121.3,326.1,122.2,323.9z"/>
<path class="st3" d="M118.3,325.4c-0.3-2.4,0.1-4.9,1-7.1c0.2,1.2,0.2,2.4,0,3.6C119.1,323.1,118.8,324.3,118.3,325.4z"/>
<path class="st3" d="M120.4,325.4c-0.5-1.1-0.8-2.3-1-3.5c-0.2-1.2-0.2-2.4,0-3.6c0.5,1.1,0.8,2.3,1,3.5
	C120.6,323,120.6,324.2,120.4,325.4z"/>
<path class="st3" d="M118.3,323.9c0.9,2.2,1.3,4.7,1,7.1C118.3,328.8,118,326.3,118.3,323.9z"/>
<path class="st3" d="M120.4,323.9c0.2,1.2,0.2,2.4,0,3.6c-0.2,1.2-0.5,2.4-1,3.5c-0.2-1.2-0.2-2.4,0-3.6
	C119.5,326.2,119.9,325,120.4,323.9z"/>
<path class="st3" d="M116.5,325.4c-0.3-2.4,0.1-4.9,1-7.1c0.2,1.2,0.2,2.4,0,3.6C117.3,323.1,117,324.3,116.5,325.4z"/>
<path class="st3" d="M118.5,325.4c-0.5-1.1-0.8-2.3-1-3.5c-0.2-1.2-0.2-2.4,0-3.6c0.5,1.1,0.8,2.3,1,3.5
	C118.7,323,118.7,324.2,118.5,325.4z"/>
<path class="st3" d="M116.5,323.9c0.9,2.2,1.3,4.7,1,7.1C116.5,328.8,116.2,326.3,116.5,323.9z"/>
<path class="st3" d="M118.5,323.9c0.2,1.2,0.2,2.4,0,3.6c-0.2,1.2-0.5,2.4-1,3.5c-0.2-1.2-0.2-2.4,0-3.6
	C117.7,326.2,118,325,118.5,323.9z"/>
<path class="st3" d="M114.6,325.4c-0.2-1.2-0.2-2.4,0-3.6c0.2-1.2,0.5-2.4,1-3.5c0.2,1.2,0.2,2.4,0,3.6
	C115.4,323.1,115.1,324.3,114.6,325.4z"/>
<path class="st3" d="M116.7,325.4c-0.5-1.1-0.8-2.3-1-3.5c-0.2-1.2-0.2-2.4,0-3.6c0.5,1.1,0.8,2.3,1,3.5
	C116.8,323,116.8,324.2,116.7,325.4z"/>
<path class="st3" d="M114.6,323.9c0.5,1.1,0.8,2.3,1,3.5c0.2,1.2,0.2,2.4,0,3.6c-0.5-1.1-0.8-2.3-1-3.5
	C114.4,326.3,114.4,325.1,114.6,323.9z"/>
<path class="st3" d="M116.7,323.9c0.2,1.2,0.2,2.4,0,3.6c-0.2,1.2-0.5,2.4-1,3.5c-0.2-1.2-0.2-2.4,0-3.6
	C115.9,326.2,116.2,325,116.7,323.9z"/>
<path class="st3" d="M112.7,325.4c-0.2-1.2-0.2-2.4,0-3.6c0.2-1.2,0.5-2.4,1-3.5C114,320.7,113.7,323.2,112.7,325.4z"/>
<path class="st3" d="M114.8,325.4c-0.9-2.2-1.3-4.7-1-7.1C114.8,320.5,115.1,323,114.8,325.4z"/>
<path class="st3" d="M112.7,323.9c0.5,1.1,0.8,2.3,1,3.5c0.2,1.2,0.2,2.4,0,3.6c-0.5-1.1-0.8-2.3-1-3.5
	C112.6,326.3,112.6,325.1,112.7,323.9z"/>
<path class="st3" d="M114.8,323.9c0.3,2.4-0.1,4.9-1,7.1c-0.2-1.2-0.2-2.4,0-3.6C114,326.2,114.3,325,114.8,323.9z"/>
<path class="st3" d="M110.9,325.4c-0.2-1.2-0.2-2.4,0-3.6c0.2-1.2,0.5-2.4,1-3.5c0.2,1.2,0.2,2.4,0,3.6
	C111.7,323.1,111.4,324.3,110.9,325.4z"/>
<path class="st3" d="M113,325.4c-0.9-2.2-1.3-4.7-1-7.1C112.9,320.5,113.3,323,113,325.4z"/>
<path class="st3" d="M110.9,323.9c0.5,1.1,0.8,2.3,1,3.5c0.2,1.2,0.2,2.4,0,3.6c-0.5-1.1-0.8-2.3-1-3.5
	C110.7,326.3,110.7,325.1,110.9,323.9z"/>
<path class="st3" d="M113,323.9c0.3,2.4-0.1,4.9-1,7.1c-0.2-1.2-0.2-2.4,0-3.6C112.1,326.2,112.5,325,113,323.9z"/>
<path class="st3" d="M109,325.4c-0.2-1.2-0.2-2.4,0-3.6c0.2-1.2,0.5-2.4,1-3.5C110.3,320.7,110,323.2,109,325.4z"/>
<path class="st3" d="M111.1,325.4c-0.9-2.2-1.3-4.7-1-7.1c0.5,1.1,0.8,2.3,1,3.5C111.3,323,111.3,324.2,111.1,325.4z"/>
<path class="st3" d="M109,323.9c0.5,1.1,0.8,2.3,1,3.5c0.2,1.2,0.2,2.4,0,3.6c-0.5-1.1-0.8-2.3-1-3.5
	C108.8,326.3,108.8,325.1,109,323.9z"/>
<path class="st3" d="M111.1,323.9c0.2,1.2,0.2,2.4,0,3.6c-0.2,1.2-0.5,2.4-1,3.5C109.9,328.6,110.2,326.2,111.1,323.9z"/>
<path class="st3" d="M107.2,325.4c-0.2-1.2-0.2-2.4,0-3.6c0.2-1.2,0.5-2.4,1-3.5C108.5,320.7,108.1,323.2,107.2,325.4z"/>
<path class="st3" d="M109.3,325.4c-0.5-1.1-0.8-2.3-1-3.5c-0.2-1.2-0.2-2.4,0-3.6c0.5,1.1,0.8,2.3,1,3.5
	C109.4,323,109.4,324.2,109.3,325.4z"/>
<path class="st3" d="M107.2,323.9c0.5,1.1,0.8,2.3,1,3.5c0.2,1.2,0.2,2.4,0,3.6c-0.5-1.1-0.8-2.3-1-3.5
	C107,326.3,107,325.1,107.2,323.9z"/>
<path class="st3" d="M109.3,323.9c0.3,2.4,0,4.9-1,7.1C108.1,328.6,108.4,326.2,109.3,323.9z"/>
<path class="st3" d="M105.3,325.4c-0.2-1.2-0.2-2.4,0-3.6c0.2-1.2,0.5-2.4,1-3.5C106.6,320.7,106.3,323.2,105.3,325.4z"/>
<path class="st3" d="M107.5,325.4c-0.5-1.1-0.8-2.3-1-3.5c-0.2-1.2-0.2-2.4,0-3.6c0.5,1.1,0.8,2.3,1,3.5
	C107.6,323,107.6,324.2,107.5,325.4z"/>
<path class="st3" d="M105.3,323.9c0.5,1.1,0.8,2.3,1,3.5c0.2,1.2,0.2,2.4,0,3.6c-0.5-1.1-0.8-2.3-1-3.5
	C105.2,326.3,105.2,325.1,105.3,323.9z"/>
<path class="st3" d="M107.5,323.9c0.3,2.4,0,4.9-1,7.1C106.2,328.6,106.6,326.1,107.5,323.9z"/>
<path class="st3" d="M103.5,325.4c-0.3-2.4,0-4.9,1-7.1C104.7,320.7,104.3,323.1,103.5,325.4z"/>
<path class="st3" d="M105.6,325.4c-0.5-1.1-0.8-2.3-1-3.5c-0.2-1.2-0.2-2.4,0-3.6c0.5,1.1,0.8,2.3,1,3.5
	C105.8,323,105.8,324.2,105.6,325.4z"/>
<path class="st3" d="M103.5,323.9c0.9,2.2,1.3,4.7,1,7.1c-0.5-1.1-0.8-2.3-1-3.5C103.3,326.3,103.3,325.1,103.5,323.9z"/>
<path class="st3" d="M105.6,323.9c0.2,1.2,0.2,2.4,0,3.6c-0.2,1.2-0.5,2.4-1,3.5C104.3,328.6,104.6,326.1,105.6,323.9z"/>
<path class="st3" d="M101.6,325.4c-0.3-2.4,0.1-4.9,1-7.1C102.9,320.7,102.6,323.2,101.6,325.4z"/>
<path class="st3" d="M103.7,325.4c-0.9-2.2-1.3-4.7-1-7.1c0.5,1.1,0.8,2.3,1,3.5C103.9,323,103.9,324.2,103.7,325.4z"/>
<path class="st3" d="M101.6,323.9c0.9,2.2,1.3,4.7,1,7.1C101.7,328.7,101.4,326.3,101.6,323.9z"/>
<path class="st3" d="M103.7,323.9c0.2,1.2,0.2,2.4,0,3.6c-0.2,1.2-0.5,2.4-1,3.5c-0.2-1.2-0.2-2.4,0-3.6
	C102.9,326.2,103.2,325,103.7,323.9z"/>
<path class="st3" d="M99.8,325.4c-0.3-2.4,0.1-4.9,1-7.1c0.2,1.2,0.2,2.4,0,3.6C100.6,323.1,100.3,324.3,99.8,325.4z"/>
<path class="st3" d="M101.9,325.4c-0.5-1.1-0.8-2.3-1-3.5c-0.2-1.2-0.2-2.4,0-3.6c0.5,1.1,0.8,2.3,1,3.5
	C102.1,323,102.1,324.2,101.9,325.4z"/>
<path class="st3" d="M99.8,323.9c0.9,2.2,1.3,4.7,1,7.1C99.9,328.8,99.5,326.3,99.8,323.9z"/>
<path class="st3" d="M101.9,323.9c0.2,1.2,0.2,2.4,0,3.6c-0.2,1.2-0.5,2.4-1,3.5c-0.2-1.2-0.2-2.4,0-3.6
	C101,326.2,101.4,325,101.9,323.9z"/>
<path class="st3" d="M97.9,325.4c-0.2-1.2-0.2-2.4,0-3.6c0.2-1.2,0.5-2.4,1-3.5C99.2,320.7,98.9,323.2,97.9,325.4z"/>
<path class="st3" d="M100,325.4c-0.5-1.1-0.8-2.3-1-3.5c-0.2-1.2-0.2-2.4,0-3.6c0.5,1.1,0.8,2.3,1,3.5
	C100.2,323,100.2,324.2,100,325.4z"/>
<path class="st3" d="M97.9,323.9c0.5,1.1,0.8,2.3,1,3.5c0.2,1.2,0.2,2.4,0,3.6c-0.5-1.1-0.8-2.3-1-3.5
	C97.8,326.3,97.8,325.1,97.9,323.9z"/>
<path class="st3" d="M100,323.9c0.2,1.2,0.2,2.4,0,3.6c-0.2,1.2-0.5,2.4-1,3.5c-0.2-1.2-0.2-2.4,0-3.6
	C99.2,326.2,99.5,325,100,323.9z"/>
<path class="st3" d="M96.1,325.4c-0.2-1.2-0.2-2.4,0-3.6c0.2-1.2,0.5-2.4,1-3.5c0.2,1.2,0.2,2.4,0,3.6
	C96.9,323.1,96.6,324.3,96.1,325.4z"/>
<path class="st3" d="M98.2,325.4c-0.9-2.2-1.3-4.7-1-7.1C98.1,320.5,98.5,323,98.2,325.4z"/>
<path class="st3" d="M96.1,323.9c0.5,1.1,0.8,2.3,1,3.5c0.2,1.2,0.2,2.4,0,3.6c-0.5-1.1-0.8-2.3-1-3.5
	C95.9,326.3,95.9,325.1,96.1,323.9z"/>
<path class="st3" d="M98.2,323.9c0.3,2.4-0.1,4.9-1,7.1c-0.2-1.2-0.2-2.4,0-3.6C97.3,326.2,97.7,325,98.2,323.9z"/>
<path class="st3" d="M94.2,325.4c-0.2-1.2-0.2-2.4,0-3.6c0.2-1.2,0.5-2.4,1-3.5C95.5,320.7,95.2,323.2,94.2,325.4z"/>
<path class="st3" d="M96.3,325.4c-0.9-2.2-1.3-4.7-1-7.1C96.3,320.5,96.6,323,96.3,325.4z"/>
<path class="st3" d="M94.2,323.9c0.5,1.1,0.8,2.3,1,3.5c0.2,1.2,0.2,2.4,0,3.6c-0.5-1.1-0.8-2.3-1-3.5
	C94.1,326.3,94.1,325.1,94.2,323.9z"/>
<path class="st3" d="M96.3,323.9c0.3,2.4-0.1,4.9-1,7.1c-0.2-1.2-0.2-2.4,0-3.6C95.5,326.2,95.8,325,96.3,323.9z"/>
<path class="st3" d="M92.4,325.4c-0.3-2.4,0-4.9,1-7.1C93.6,320.7,93.3,323.1,92.4,325.4z"/>
<path class="st3" d="M94.5,325.4c-0.9-2.2-1.3-4.7-1-7.1c0.5,1.1,0.8,2.3,1,3.5C94.6,323,94.6,324.2,94.5,325.4z"/>
<path class="st3" d="M92.4,323.9c0.5,1.1,0.8,2.3,1,3.5c0.2,1.2,0.2,2.4,0,3.6c-0.5-1.1-0.8-2.3-1-3.5
	C92.2,326.3,92.2,325.1,92.4,323.9z"/>
<path class="st3" d="M94.5,323.9c0.2,1.2,0.2,2.4,0,3.6c-0.2,1.2-0.5,2.4-1,3.5C93.2,328.6,93.5,326.1,94.5,323.9z"/>
<path class="st3" d="M90.5,325.4c-0.2-1.2-0.2-2.4,0-3.6c0.2-1.2,0.5-2.4,1-3.5C91.8,320.7,91.5,323.2,90.5,325.4z"/>
<path class="st3" d="M92.6,325.4c-0.5-1.1-0.8-2.3-1-3.5c-0.2-1.2-0.2-2.4,0-3.6c0.5,1.1,0.8,2.3,1,3.5
	C92.8,323,92.8,324.2,92.6,325.4z"/>
<path class="st3" d="M90.5,323.9c0.5,1.1,0.8,2.3,0.9,3.5c0.2,1.2,0.2,2.4,0,3.6c-0.5-1.1-0.8-2.3-1-3.5
	C90.3,326.3,90.4,325.1,90.5,323.9z"/>
<path class="st3" d="M92.6,323.9c0.3,2.4,0,4.9-1,7.1C91.4,328.6,91.8,326.2,92.6,323.9z"/>
<path class="st3" d="M88.7,325.4c-0.2-1.2-0.2-2.4,0-3.6c0.2-1.2,0.5-2.4,1-3.5C90,320.7,89.6,323.2,88.7,325.4z"/>
<path class="st3" d="M90.8,325.4c-0.5-1.1-0.8-2.3-1-3.5c-0.2-1.2-0.2-2.4,0-3.6c0.5,1.1,0.8,2.3,1,3.5
	C90.9,323,90.9,324.2,90.8,325.4z"/>
<path class="st3" d="M88.7,323.9c0.5,1.1,0.8,2.3,1,3.5c0.2,1.2,0.2,2.4,0,3.6c-0.5-1.1-0.8-2.3-1-3.5
	C88.5,326.3,88.5,325.1,88.7,323.9z"/>
<path class="st3" d="M90.8,323.9c0.3,2.4,0,4.9-1,7.1C89.6,328.6,89.9,326.2,90.8,323.9z"/>
<path class="st3" d="M86.8,325.4c-0.2-1.2-0.2-2.4,0-3.6c0.2-1.2,0.5-2.4,1-3.5C88.1,320.7,87.8,323.2,86.8,325.4z"/>
<path class="st3" d="M88.9,325.4c-0.5-1.1-0.8-2.3-1-3.5c-0.2-1.2-0.2-2.4,0-3.6c0.5,1.1,0.8,2.3,1,3.5
	C89.1,323,89.1,324.2,88.9,325.4z"/>
<path class="st3" d="M86.8,323.9c0.9,2.2,1.3,4.7,1,7.1c-0.5-1.1-0.8-2.3-1-3.5C86.7,326.3,86.7,325.1,86.8,323.9z"/>
<path class="st3" d="M88.9,323.9c0.2,1.2,0.2,2.4,0,3.6c-0.2,1.2-0.5,2.4-1,3.5C87.7,328.6,88,326.2,88.9,323.9z"/>
<path class="st3" d="M123,344c-0.1-2.6-0.1-5.2-0.1-7.8s0-5.2,0.1-7.8c0.1,2.6,0.1,5.2,0.1,7.8S123.1,341.4,123,344z"/>
<path class="st3" d="M121.1,344c-0.1-2.6-0.1-5.2-0.1-7.8s0-5.2,0.1-7.8c0.1,2.6,0.1,5.2,0.1,7.8S121.2,341.4,121.1,344z"/>
<path class="st3" d="M119.3,344c-0.1-2.6-0.1-5.2-0.1-7.8s0-5.2,0.1-7.8c0.1,2.6,0.1,5.2,0.1,7.8S119.4,341.4,119.3,344z"/>
<path class="st3" d="M117.4,343.9c-0.1-2.6-0.1-5.2-0.1-7.8s0-5.2,0.1-7.8c0.1,2.6,0.1,5.2,0.1,7.8S117.5,341.3,117.4,343.9z"/>
<path class="st3" d="M115.6,344c-0.1-2.6-0.1-5.2-0.1-7.8s0-5.2,0.1-7.8c0.1,2.6,0.1,5.2,0.1,7.8S115.7,341.4,115.6,344z"/>
<path class="st3" d="M113.8,343.9c-0.1-2.6-0.1-5.2-0.1-7.8s0-5.2,0.1-7.8c0.1,2.6,0.1,5.2,0.1,7.8S113.9,341.3,113.8,343.9z"/>
<path class="st3" d="M111.9,343.9c-0.1-2.6-0.1-5.2-0.1-7.8s0-5.2,0.1-7.8c0.1,2.6,0.1,5.2,0.1,7.8S112,341.3,111.9,343.9z"/>
<path class="st3" d="M110.1,344c-0.1-2.6-0.1-5.2-0.1-7.8s0-5.2,0.1-7.8c0.1,2.6,0.1,5.2,0.1,7.8S110.2,341.4,110.1,344z"/>
<path class="st3" d="M108.3,344c-0.1-2.6-0.1-5.2-0.1-7.8s0-5.2,0.1-7.8c0.1,2.6,0.1,5.2,0.1,7.8S108.4,341.4,108.3,344z"/>
<path class="st3" d="M106.3,344c-0.1-2.6-0.1-5.2-0.1-7.8s0-5.2,0.1-7.8c0.1,2.6,0.1,5.2,0.1,7.8S106.4,341.4,106.3,344z"/>
<path class="st3" d="M104.5,343.9c-0.1-2.6-0.1-5.2-0.1-7.8s0-5.2,0.1-7.8c0.1,2.6,0.1,5.2,0.1,7.8S104.6,341.3,104.5,343.9z"/>
<path class="st3" d="M102.7,344c-0.1-2.6-0.1-5.2-0.1-7.8s0-5.2,0.1-7.8c0.1,2.6,0.1,5.2,0.1,7.8S102.8,341.4,102.7,344z"/>
<path class="st3" d="M100.8,343.9c-0.1-2.6-0.1-5.2-0.1-7.8s0-5.2,0.1-7.8c0.1,2.6,0.1,5.2,0.1,7.8S100.9,341.3,100.8,343.9z"/>
<path class="st3" d="M99,344.2c-0.1-2.6-0.1-5.2-0.1-7.8s0-5.2,0.1-7.8c0.1,2.6,0.1,5.2,0.1,7.8S99.1,341.6,99,344.2z"/>
<path class="st3" d="M97.1,344c-0.1-2.6-0.1-5.2-0.1-7.8s0-5.2,0.1-7.8c0.1,2.6,0.1,5.2,0.1,7.8S97.2,341.4,97.1,344z"/>
<path class="st3" d="M95.3,344c-0.1-2.6-0.1-5.2-0.1-7.8s0-5.2,0.1-7.8c0.1,2.6,0.1,5.2,0.1,7.8S95.4,341.4,95.3,344z"/>
<path class="st3" d="M93.5,344c-0.1-2.6-0.1-5.2-0.1-7.8s0-5.2,0.1-7.8c0.1,2.6,0.1,5.2,0.1,7.8S93.6,341.4,93.5,344z"/>
<path class="st3" d="M91.6,344c-0.1-2.6-0.1-5.2-0.1-7.8s0-5.2,0.1-7.8c0.1,2.6,0.1,5.2,0.1,7.8S91.7,341.4,91.6,344z"/>
<path class="st3" d="M89.7,344c-0.1-2.6-0.1-5.2-0.1-7.8s0-5.2,0.1-7.8c0.1,2.6,0.1,5.2,0.1,7.8S89.8,341.4,89.7,344z"/>
<path class="st3" d="M87.9,344c-0.1-2.6-0.1-5.2-0.1-7.8s0-5.2,0.1-7.8c0.1,2.6,0.1,5.2,0.1,7.8S88,341.4,87.9,344z"/>
<rect x="125.8" y="448.9" class="st12" width="14.3" height="55.3"/>
<rect x="125.8" y="461.7" class="st24" width="14.3" height="27.1"/>
<circle class="st12" cx="290.3" cy="445.4" r="26.1"/>
<circle class="st13" cx="290.3" cy="445.4" r="22.9"/>
<path class="st12" d="M1489.8,527.9h-70c-3,0-5.5-2.5-5.5-5.5V442c0-3,2.5-5.5,5.5-5.5h70c3,0,5.5,2.5,5.5,5.5v80.4
	C1495.3,525.4,1492.9,527.9,1489.8,527.9C1489.8,527.9,1489.8,527.9,1489.8,527.9z"/>
<path class="st12" d="M1382.3,527.9h-70c-3,0-5.5-2.5-5.5-5.5V442c0-3,2.5-5.5,5.5-5.5h70c3,0,5.5,2.5,5.5,5.5v80.4
	C1387.8,525.4,1385.4,527.9,1382.3,527.9C1382.3,527.9,1382.3,527.9,1382.3,527.9z"/>
<line class="st25" x1="226.1" y1="540.2" x2="226.1" y2="629.1"/>
<path class="st26" d="M222.4,629.1c0,2.1,1.7,3.8,3.8,3.8c2.1,0,3.8-1.7,3.8-3.8c0-2.1-1.7-3.8-3.8-3.8c0,0,0,0,0,0
	C224.1,625.3,222.4,627,222.4,629.1z"/>
<path class="st27" d="M214.8,645.5c0,2.3-1.4,3.5-3.6,3.5s-3.6-1.1-3.6-3.5v-5.3h1.9v5.3c0,0.9,0.2,1.9,1.8,1.9
	c1.3,0,1.8-0.6,1.8-1.9v-5.3h1.9L214.8,645.5z"/>
<path class="st27" d="M217.7,645.9c0,1.1,0.9,1.6,1.9,1.6c0.7,0,1.7-0.2,1.7-1.1s-1.3-1.1-2.5-1.4s-2.6-0.8-2.6-2.4
	c0-1.8,1.6-2.6,3.2-2.6c1.8,0,3.4,0.8,3.4,2.8H221c-0.1-1-0.8-1.3-1.7-1.3c-0.6,0-1.3,0.2-1.3,1s0.4,0.8,2.6,1.3
	c0.6,0.2,2.6,0.6,2.6,2.5c0,1.6-1.2,2.8-3.6,2.8c-1.9,0-3.7-0.9-3.6-3L217.7,645.9z"/>
<path class="st27" d="M224.2,640.2h4c1.6,0,2.7,0.5,2.7,2.1c0,0.8-0.4,1.5-1.2,1.8c1,0.2,1.6,1.2,1.6,2.2c0,1.7-1.5,2.5-3,2.5h-4.1
	V640.2z M226.1,643.7h1.9c0.7,0,1.1-0.3,1.1-1s-0.6-1-1.3-1h-1.8L226.1,643.7z M226.1,647.3h2c0.7,0,1.4-0.2,1.4-1.1
	s-0.5-1.2-1.4-1.2h-2L226.1,647.3z"/>
<path class="st27" d="M232.5,644.8h3.6v1.5h-3.6V644.8z"/>
<path class="st27" d="M243.2,643.1c-0.2-0.9-1-1.5-1.9-1.5c-1.7,0-2.3,1.4-2.3,2.9s0.6,2.9,2.3,2.9c1.1,0,1.9-0.8,1.9-1.9
	c0,0,0,0,0,0h1.8c0,2-1.7,3.6-3.7,3.5c0,0,0,0-0.1,0c-2.3,0-4.2-1.8-4.2-4.1c0-0.1,0-0.3,0-0.4c0-2.5,1.6-4.5,4.2-4.5
	c1.9-0.1,3.5,1.2,3.7,3.1H243.2z"/>
<path class="st27" d="M191,652.2h3.8c1.4-0.1,2.5,0.9,2.6,2.3c0.1,1.4-0.9,2.5-2.3,2.6c-0.1,0-0.2,0-0.3,0h-3v3.7H191V652.2z
	 M191.8,656.4h2.8c1,0.1,1.8-0.7,1.9-1.6s-0.7-1.8-1.6-1.9c-0.1,0-0.2,0-0.3,0h-2.8V656.4z"/>
<path class="st27" d="M204,657.7c0.2,1.6-1,3.1-2.6,3.2c-1.6,0.2-3.1-1-3.2-2.6c0-0.2,0-0.4,0-0.6c0-1.8,1-3.3,2.9-3.3
	S204,655.9,204,657.7z M198.9,657.7c-0.2,1.2,0.6,2.4,1.8,2.6c1.2,0.2,2.4-0.6,2.6-1.8c0.1-0.3,0.1-0.6,0-0.8c0-1.3-0.7-2.6-2.2-2.6
	S198.9,656.4,198.9,657.7L198.9,657.7z"/>
<path class="st27" d="M204.5,654.6h0.8l1.6,5.3l0,0l1.5-5.3h0.9l1.5,5.3l0,0l1.6-5.3h0.8l-2,6.2h-0.8l-1.5-5.2l0,0l-1.5,5.2h-0.8
	L204.5,654.6z"/>
<path class="st27" d="M214.4,657.9c-0.1,1.2,0.7,2.3,1.9,2.4c0,0,0,0,0.1,0c1,0,1.8-0.6,1.9-1.6h0.8c-0.2,1.3-1.3,2.3-2.7,2.2
	c-2,0-2.8-1.5-2.8-3.3s0.8-3.3,2.8-3.3s2.8,1.7,2.7,3.5L214.4,657.9z M218.4,657.2c0.1-1.1-0.8-2.1-1.9-2.2c0,0,0,0-0.1,0
	c-1.2,0-1.9,1.1-2,2.2H218.4z"/>
<path class="st27" d="M220.2,654.6h0.7v1.5l0,0c0.3-1,1.3-1.6,2.3-1.5v0.8c-1.2-0.1-2.2,0.8-2.3,2c0,0.1,0,0.2,0,0.3v3.3h-0.8
	L220.2,654.6z"/>
<path class="st27" d="M227.9,657.9c0,1.8,1.2,2.3,2.8,2.3c0.9,0,2.3-0.5,2.3-1.7c0-1-0.9-1.4-1.8-1.5l-1.9-0.5
	c-1-0.2-1.9-0.7-1.9-2.1c0-0.8,0.5-2.4,2.9-2.4c1.7,0,3.2,0.9,3.2,2.7h-0.8c-0.1-1.2-1-2.1-2.2-2c0,0-0.1,0-0.1,0
	c-1.1,0-2.1,0.4-2.1,1.7c0,0.8,0.6,1.2,1.3,1.3l2.1,0.5c1.2,0.3,2.2,0.9,2.2,2.2c0,0.6-0.2,2.5-3.3,2.5c-2,0-3.5-0.9-3.4-3
	L227.9,657.9z"/>
<path class="st27" d="M239.9,660.8h-0.7v-1.1l0,0c-0.4,0.8-1.2,1.3-2.1,1.3c-1.6,0-2.2-0.9-2.2-2.3v-4h0.8v4c0,1.1,0.4,1.7,1.6,1.7
	s1.9-1.2,1.9-2.5v-3.2h0.8L239.9,660.8z"/>
<path class="st27" d="M241.3,654.6h0.7v1.2l0,0c0.4-0.9,1.3-1.4,2.2-1.4c1.9,0,2.8,1.5,2.8,3.3s-0.9,3.3-2.8,3.3
	c-0.9,0.1-1.8-0.5-2.1-1.3l0,0v3.5h-0.8L241.3,654.6z M244.3,655c-1.7,0-2.2,1.2-2.2,2.6s0.6,2.6,2.2,2.6c1.4,0,2-1.4,2-2.6
	S245.7,655,244.3,655L244.3,655z"/>
<path class="st27" d="M248.2,654.6h0.7v1.2l0,0c0.4-0.9,1.3-1.4,2.2-1.4c1.9,0,2.8,1.5,2.8,3.3s-0.9,3.3-2.8,3.3
	c-0.9,0-1.8-0.5-2.1-1.3l0,0v3.5h-0.8V654.6z M251.1,655c-1.7,0-2.2,1.2-2.2,2.6s0.6,2.6,2.2,2.6s2-1.4,2-2.6S252.6,655,251.1,655
	L251.1,655z"/>
<path class="st27" d="M255.1,652.2h0.8v8.6h-0.8V652.2z"/>
<path class="st27" d="M256.6,654.6h0.8l2,5.3l1.9-5.3h0.8l-2.7,7.1c-0.5,1-0.7,1.3-1.6,1.3c-0.2,0-0.4,0-0.6-0.1v-0.6
	c0.2,0,0.3,0.1,0.5,0.1c0.7,0,0.8-0.4,1.1-1l0.3-0.7L256.6,654.6z"/>
<line class="st28" x1="860.2" y1="298.3" x2="860.2" y2="221.5"/>
<path class="st26" d="M856.4,221.7c0-2.1,1.7-3.8,3.8-3.8c2.1,0,3.8,1.7,3.8,3.8c0,2.1-1.7,3.8-3.8,3.8l0,0
	C858.1,225.5,856.4,223.8,856.4,221.7z"/>
<path class="st27" d="M817.8,181h1.9v7h4.2v1.6h-6V181z"/>
<path class="st27" d="M827.7,183.2c1.8,0,3.3,1.4,3.3,3.2s-1.4,3.3-3.2,3.3c-1.8,0-3.3-1.4-3.3-3.2c0,0,0,0,0-0.1
	c-0.1-1.7,1.1-3.1,2.8-3.3C827.5,183.2,827.6,183.2,827.7,183.2z M827.7,188.4c1.2,0,1.5-1,1.5-2s-0.3-2-1.5-2s-1.5,1-1.5,2
	S826.6,188.4,827.7,188.4z"/>
<path class="st27" d="M832.2,181h4.6c1.3-0.1,2.4,0.9,2.5,2.2c0,0.1,0,0.1,0,0.2c0.1,0.9-0.5,1.8-1.4,2.1l0,0c0.9,0.2,1.2,1.1,1.2,2
	c0,0.7,0.1,1.4,0.4,2h-1.9c-0.2-0.7-0.3-1.4-0.3-2.1c-0.1-0.9-0.5-1.3-1.4-1.3h-1.9v3.4h-1.9V181z M834.1,184.9h2.1
	c0.8,0,1.3-0.4,1.3-1.2s-0.5-1.2-1.3-1.2h-2.1V184.9z"/>
<path class="st27" d="M840.6,185.2c0.1-1.6,1.5-2.1,2.9-2.1s2.7,0.3,2.7,1.8v3.2c0,0.5,0,0.9,0.2,1.4h-1.7c-0.1-0.2-0.1-0.4-0.1-0.6
	c-0.6,0.5-1.3,0.8-2.1,0.8c-1.2,0-2.1-0.6-2.1-1.9c0-2.8,4.2-1.3,4.1-2.7c0-0.7-0.5-0.8-1.1-0.8s-1.1,0.3-1.1,0.9H840.6z
	 M844.6,186.5c-0.4,0.2-0.9,0.3-1.4,0.4c-0.5,0.1-1,0.3-1,0.9s0.5,0.8,1,0.8c0.7,0.1,1.3-0.4,1.4-1.1c0-0.1,0-0.2,0-0.3L844.6,186.5
	z"/>
<path class="st27" d="M849.8,180.4c1.4,0,2.6,1.2,2.5,2.7c0,1.4-1.2,2.6-2.7,2.5c-1.4,0-2.5-1.2-2.5-2.6c0-1.4,1.1-2.6,2.6-2.6
	C849.7,180.4,849.7,180.4,849.8,180.4z M849.8,185.1c1.1,0,2.1-0.9,2.1-2s-0.9-2.1-2-2.1c-1.1,0-2.1,0.9-2.1,2c0,0,0,0,0,0.1
	C847.7,184.1,848.6,185.1,849.8,185.1C849.7,185.1,849.7,185.1,849.8,185.1z M848.8,181.6h1.1c0.7,0,1.1,0.2,1.1,0.9
	c0,0.4-0.3,0.7-0.7,0.8c0,0-0.1,0-0.1,0l0.8,1.3h-0.6l-0.7-1.2h-0.4v1.2h-0.6V181.6z M849.3,182.8h0.5c0.3,0,0.6,0,0.6-0.4
	s-0.3-0.4-0.6-0.4h-0.5L849.3,182.8z"/>
<path class="st27" d="M859,181h2l3.2,8.6h-2l-0.7-1.9h-3.2l-0.7,1.9h-1.9L859,181z M858.9,186.2h2.2l-1.1-3.2l0,0L858.9,186.2z"/>
<path class="st27" d="M864.8,183.3h1.6v0.9l0,0c0.4-0.6,1.1-1,1.9-1c1.8,0,2.3,1,2.3,2.6v3.8h-1.7V186c0-1-0.3-1.5-1.1-1.5
	s-1.3,0.5-1.3,1.8v3.2h-1.7L864.8,183.3z"/>
<path class="st27" d="M874,183.3h1.2v1.1H874v3.1c0,0.6,0.2,0.7,0.7,0.7c0.2,0,0.4,0,0.5,0v1.3c-0.3,0-0.7,0.1-1,0.1
	c-1.1,0-2-0.2-2-1.5v-3.7h-1v-1.1h1v-1.9h1.8V183.3z"/>
<path class="st27" d="M877.5,186.8c0,1.1,0.6,1.6,1.5,1.6c0.6,0,1.1-0.3,1.3-0.8h1.5c-0.3,1.3-1.6,2.2-2.9,2.1
	c-1.7,0.1-3.1-1.2-3.2-2.8c0-0.1,0-0.3,0-0.4c-0.1-1.7,1.2-3.2,2.9-3.3c0.1,0,0.2,0,0.2,0c2.1,0,3.1,1.8,3,3.7H877.5z M880.3,185.8
	c-0.2-0.9-0.5-1.3-1.3-1.3c-0.7,0-1.4,0.5-1.4,1.2c0,0,0,0,0,0.1H880.3z"/>
<path class="st27" d="M883,183.3h1.6v0.9l0,0c0.4-0.6,1.1-1,1.9-1c1.8,0,2.3,1,2.3,2.6v3.8h-1.7V186c0-1-0.3-1.5-1.1-1.5
	s-1.3,0.5-1.3,1.8v3.2H883V183.3z"/>
<path class="st27" d="M890.1,183.3h1.6v0.9l0,0c0.4-0.6,1.1-1,1.9-1c1.8,0,2.3,1,2.3,2.6v3.8h-1.7V186c0-1-0.3-1.5-1.1-1.5
	s-1.3,0.5-1.3,1.8v3.2H890L890.1,183.3z"/>
<path class="st27" d="M897.1,185.2c0.1-1.6,1.5-2.1,2.9-2.1s2.7,0.3,2.7,1.8v3.2c0,0.5,0,0.9,0.2,1.4h-1.7c-0.1-0.2-0.1-0.4-0.1-0.6
	c-0.6,0.5-1.3,0.8-2.1,0.8c-1.2,0-2.1-0.6-2.1-1.9c0-2.8,4.2-1.3,4.1-2.7c0-0.7-0.5-0.8-1.1-0.8s-1.1,0.3-1.1,0.9H897.1z
	 M901.1,186.5c-0.4,0.2-0.9,0.3-1.4,0.4c-0.5,0.1-1,0.3-1,0.9s0.5,0.8,1,0.8c0.7,0.1,1.3-0.4,1.4-1.1c0-0.1,0-0.2,0-0.3L901.1,186.5
	z"/>
<path class="st27" d="M787.8,203.8c-2.2-3.3-2.2-7.7,0-11h0.6c-1.1,1.8-1.6,3.8-1.5,5.8c0,1.8,0.6,3.6,1.5,5.2L787.8,203.8z"/>
<path class="st27" d="M789.3,193h3.9c1.4,0,2.6,0.7,2.6,2.2c0.1,1-0.6,2-1.7,2.2l0,0c1.1,0.2,1.4,0.9,1.5,1.9c0,0.8,0.1,1.5,0.4,2.2
	h-0.9c-0.2-0.4-0.2-0.9-0.2-1.3c-0.1-1.2-0.2-2.5-1.7-2.5h-3.1v3.8h-0.8V193z M790.1,197.1h3c0.9,0.1,1.8-0.6,1.8-1.5
	c0,0,0-0.1,0-0.1c0-1.1-0.6-1.7-1.8-1.7h-3V197.1z"/>
<path class="st27" d="M797.3,193h3.8c1.4-0.1,2.5,0.9,2.6,2.3c0.1,1.4-0.9,2.5-2.3,2.6c-0.1,0-0.2,0-0.3,0h-3v3.7h-0.8L797.3,193z
	 M798.1,197.2h2.8c1,0.1,1.8-0.7,1.9-1.6c0.1-1-0.7-1.8-1.6-1.9c-0.1,0-0.2,0-0.3,0h-2.8V197.2z"/>
<path class="st27" d="M804.7,198.6v-0.7h3v0.7H804.7z"/>
<path class="st27" d="M809.7,198.7c0,1.8,1.2,2.3,2.8,2.3c0.9,0,2.3-0.5,2.3-1.7c0-1-1-1.4-1.8-1.6l-1.9-0.5c-1-0.2-1.9-0.7-1.9-2.1
	c0-0.8,0.5-2.4,3-2.4c1.7,0,3.2,0.9,3.2,2.7h-0.8c-0.1-1.2-1-2.1-2.2-2c0,0-0.1,0-0.1,0c-1.1,0-2.1,0.4-2.1,1.7
	c0,0.8,0.6,1.1,1.3,1.3l2.1,0.5c1.2,0.3,2.2,0.9,2.2,2.2c0,0.6-0.2,2.4-3.3,2.4c-2,0-3.5-0.9-3.4-3L809.7,198.7z"/>
<path class="st27" d="M816.8,193h1.2l3,7.5l3-7.5h1.2v8.6h-0.8v-7.4l0,0l-2.9,7.4h-0.8l-2.9-7.4l0,0v7.4h-0.8L816.8,193z"/>
<path class="st27" d="M829.3,193h0.9l3.4,8.6h-0.9l-1-2.7h-3.9l-1,2.7h-0.9L829.3,193z M828,198.2h3.4l-1.7-4.4L828,198.2z"/>
<path class="st27" d="M837.7,193h5.4v0.7h-4.6v3.1h4.1v0.7h-4.1v4.1h-0.8V193z"/>
<path class="st27" d="M844.5,198.6c-0.1,1.2,0.7,2.3,1.9,2.4c0,0,0,0,0.1,0c1,0,1.8-0.6,1.9-1.6h0.8c-0.2,1.3-1.3,2.3-2.7,2.2
	c-2,0-2.8-1.5-2.8-3.3s0.8-3.3,2.8-3.3s2.8,1.7,2.7,3.5L844.5,198.6z M848.5,198c0.1-1.2-0.8-2.1-2-2.2c0,0,0,0,0,0
	c-1.1,0.1-2,1.1-2,2.2H848.5z"/>
<path class="st27" d="M850.2,195.3h0.7v1l0,0c0.4-0.8,1.1-1.2,2-1.2c0.8-0.1,1.5,0.4,1.8,1.2c0.4-0.8,1.1-1.2,2-1.2
	c1.4,0,2,0.7,2,2.2v4.2H858v-4.2c0-1-0.4-1.6-1.5-1.6c-1.3,0-1.7,1.1-1.7,2.2v3.5h-0.8v-4.2c0-0.8-0.3-1.5-1.3-1.5
	c-1.3,0-1.8,1-1.8,2.3v3.4h-0.8L850.2,195.3z"/>
<path class="st27" d="M860.2,197.2c0.1-1.4,1.1-2.1,2.5-2.1c1.1,0,2.3,0.3,2.3,2v3.3c0,0.3,0.1,0.4,0.4,0.4c0.1,0,0.2,0,0.2,0v0.6
	c-0.2,0-0.3,0.1-0.5,0.1c-0.8,0-0.9-0.4-0.9-1.1l0,0c-0.4,0.8-1.3,1.3-2.3,1.3c-1.2,0-2.1-0.6-2.1-1.8c0-1.7,1.7-1.8,3.3-2
	c0.6-0.1,1-0.2,1-0.8c0-1-0.7-1.3-1.6-1.3s-1.6,0.4-1.7,1.4L860.2,197.2z M864.2,198.2L864.2,198.2c-0.1,0.2-0.4,0.2-0.6,0.3
	c-1.3,0.2-2.9,0.2-2.9,1.4c0,0.7,0.6,1.3,1.3,1.2c0,0,0,0,0,0c1.1,0.1,2.1-0.7,2.2-1.8c0,0,0-0.1,0-0.1L864.2,198.2z"/>
<path class="st27" d="M866.5,193h0.8v8.6h-0.8V193z"/>
<path class="st27" d="M869.1,198.6c-0.1,1.2,0.7,2.3,1.9,2.4c0,0,0,0,0.1,0c1,0.1,1.8-0.6,1.9-1.6h0.8c-0.2,1.3-1.3,2.3-2.7,2.2
	c-2,0-2.8-1.5-2.8-3.3s0.8-3.3,2.8-3.3s2.8,1.7,2.7,3.5L869.1,198.6z M873.1,198c0.1-1.2-0.8-2.1-2-2.2c0,0,0,0,0,0
	c-1.2,0-1.9,1.1-2,2.2H873.1z"/>
<path class="st27" d="M884.7,195.6c-0.3-1.2-1.4-2.1-2.6-2.1c-2.3,0-3.2,1.9-3.2,3.8s1,3.8,3.2,3.8c1.5,0,2.7-1.2,2.8-2.7h0.8
	c0,1.9-1.6,3.5-3.5,3.4c0,0,0,0,0,0c-2.7,0-4-2.1-4-4.5s1.3-4.5,4-4.5c1.7-0.1,3.2,1.1,3.4,2.8L884.7,195.6z"/>
<path class="st27" d="M892.2,198.4c0.2,1.6-1,3.1-2.6,3.2c-1.6,0.2-3.1-1-3.2-2.6c0-0.2,0-0.4,0-0.6c0-1.8,1-3.3,2.9-3.3
	S892.2,196.7,892.2,198.4z M887.1,198.4c0.2,1.2,1.4,2,2.6,1.7c1.2-0.2,2-1.4,1.7-2.6c-0.2-1-1.1-1.8-2.2-1.8
	C887.9,195.8,887.2,197.1,887.1,198.4L887.1,198.4z"/>
<path class="st27" d="M893.4,195.3h0.8v1.1l0,0c0.4-0.8,1.1-1.3,2-1.2c1.7,0,2.3,0.9,2.3,2.4v4h-0.8v-3.9c0-1.1-0.3-1.9-1.6-1.9
	c-1.1,0-2,1-1.9,2.1c0,0,0,0,0,0.1v3.6h-0.8V195.3z"/>
<path class="st27" d="M899.8,195.3h0.8v1.1l0,0c0.4-0.8,1.1-1.3,2-1.2c1.7,0,2.3,0.9,2.3,2.4v4h-0.8v-3.9c0-1.1-0.3-1.9-1.6-1.9
	c-1.1,0-2,1-1.9,2.1c0,0,0,0,0,0.1v3.6h-0.8V195.3z"/>
<path class="st27" d="M906.7,198.6c-0.1,1.2,0.7,2.3,1.9,2.4c0,0,0,0,0.1,0c1,0.1,1.9-0.6,2-1.6h0.8c-0.2,1.3-1.3,2.3-2.7,2.2
	c-2,0-2.8-1.5-2.8-3.3s0.8-3.3,2.8-3.3s2.8,1.7,2.7,3.5L906.7,198.6z M910.7,198c0.1-1.2-0.8-2.1-2-2.2c0,0,0,0,0,0
	c-1.1,0.1-2,1.1-2,2.2H910.7z"/>
<path class="st27" d="M916.8,197.3c-0.1-0.9-0.9-1.5-1.8-1.5c-1.4,0-2.2,1.3-2.2,2.6c-0.2,1.3,0.8,2.5,2.1,2.6c0,0,0.1,0,0.1,0
	c1,0,1.8-0.8,1.8-1.8h0.8c-0.1,1.4-1.2,2.4-2.6,2.4c-1.7,0-3-1.4-2.9-3.1c0-0.1,0-0.1,0-0.2c0-1.8,1-3.3,2.9-3.3
	c1.3-0.1,2.4,0.8,2.5,2.1c0,0,0,0,0,0H916.8z"/>
<path class="st27" d="M919.9,195.3h1.3v0.7h-1.3v4.2c0,0.5,0.1,0.8,0.6,0.8c0.2,0,0.4,0,0.7,0v0.6h-0.7c-1,0-1.3-0.3-1.3-1.4V196
	h-1.1v-0.6h1.1v-1.9h0.8V195.3z"/>
<path class="st27" d="M927.8,198.4c0.2,1.6-1,3.1-2.6,3.2c-1.6,0.2-3.1-1-3.2-2.6c0-0.2,0-0.4,0-0.6c0-1.8,1-3.3,2.9-3.3
	S927.8,196.7,927.8,198.4z M922.7,198.4c-0.2,1.2,0.6,2.4,1.8,2.6c1.2,0.2,2.4-0.6,2.6-1.8c0.1-0.3,0.1-0.6,0-0.8
	c0-1.3-0.7-2.6-2.2-2.6S922.7,197.1,922.7,198.4z"/>
<path class="st27" d="M928.9,195.3h0.7v1.4l0,0c0.3-1,1.3-1.6,2.3-1.5v0.7c-1.2-0.1-2.2,0.8-2.3,2c0,0.1,0,0.2,0,0.3v3.3h-0.8
	L928.9,195.3z"/>
<path class="st27" d="M932.6,192.8c1.1,1.6,1.7,3.5,1.7,5.5c0,2-0.6,3.9-1.7,5.6H932c1.1-1.8,1.6-3.8,1.5-5.8
	c-0.1-1.8-0.6-3.6-1.5-5.2H932.6z"/>
<path class="st27" d="M1075.7,660.2h1.9v7h4.2v1.6h-6.1V660.2z"/>
<path class="st27" d="M1082.8,660.2h6.4v1.6h-4.5v1.8h4.2v1.5h-4.2v2.1h4.6v1.6h-6.5V660.2z"/>
<path class="st27" d="M1090.6,660.2h3.7c2.2,0,3.9,1.4,3.9,4.2c0,2.5-1.3,4.3-3.9,4.3h-3.7V660.2z M1092.4,667.2h1.7
	c1.1,0,2.1-0.7,2.1-2.6c0-1.7-0.6-2.8-2.5-2.8h-1.3L1092.4,667.2z"/>
<path class="st27" d="M964.2,699.1h-2.6v-1.6h7v1.6h-2.6v7h-1.9L964.2,699.1z"/>
<path class="st27" d="M969.7,697.5h6v1.6h-4.1v2h3.6v1.5h-3.6v3.5h-1.9L969.7,697.5z"/>
<path class="st27" d="M985.8,700.4c-0.2-0.9-1-1.5-1.9-1.5c-1.7,0-2.3,1.4-2.3,2.9s0.6,2.9,2.3,2.9c1.1,0,1.9-0.8,1.9-1.9
	c0,0,0,0,0,0h1.8c-0.1,2-1.7,3.6-3.7,3.5c0,0,0,0-0.1,0c-2.3,0-4.2-1.8-4.2-4.1c0-0.1,0-0.3,0-0.4c0-2.5,1.6-4.5,4.2-4.5
	c1.9-0.1,3.5,1.2,3.7,3.1H985.8z"/>
<path class="st27" d="M988.8,701.8c0.1-1.6,1.5-2.1,2.9-2.1s2.7,0.3,2.7,1.8v3.2c0,0.5,0,0.9,0.2,1.4h-1.7c-0.1-0.2-0.1-0.4-0.1-0.6
	c-0.6,0.5-1.3,0.8-2.1,0.8c-1.2,0-2.1-0.6-2.1-1.9c0-2.8,4.2-1.3,4.1-2.7c0-0.7-0.5-0.8-1.1-0.8s-1.1,0.3-1.1,0.9H988.8z M992.7,703
	c-0.4,0.2-0.9,0.3-1.4,0.4c-0.5,0.1-1,0.3-1,0.9s0.5,0.8,1,0.8c0.7,0.1,1.3-0.4,1.4-1.1c0-0.1,0-0.2,0-0.3L992.7,703z"/>
<path class="st27" d="M995.7,699.9h1.6v1.1l0,0c0.3-0.8,1.1-1.3,2-1.3c0.1,0,0.3,0,0.4,0.1v1.6c-0.2,0-0.4-0.1-0.6-0.1
	c-1.3,0-1.7,0.9-1.7,2v2.8h-1.7V699.9z"/>
<path class="st27" d="M1004.8,705.3L1004.8,705.3c-0.4,0.7-1.1,1-1.9,1c-1.9,0-2.8-1.6-2.8-3.3s0.9-3.2,2.8-3.2
	c0.7,0,1.4,0.3,1.8,0.9l0,0v-3.2h1.7v8.6h-1.6L1004.8,705.3z M1003.3,701c-1.1,0-1.5,1-1.5,2s0.4,2,1.5,2s1.5-1,1.5-2
	S1004.4,701,1003.3,701L1003.3,701z"/>
<path class="st27" d="M975.5,715.2c0,1.8,1.2,2.3,2.8,2.3c0.9,0,2.3-0.5,2.3-1.7c0-1-1-1.4-1.8-1.5l-1.9-0.5c-1-0.2-1.9-0.7-1.9-2.1
	c0-0.8,0.5-2.4,3-2.4c1.7,0,3.2,0.9,3.2,2.7h-0.8c-0.1-1.2-1.1-2.1-2.2-2c0,0-0.1,0-0.1,0c-1.1,0-2.2,0.4-2.2,1.7
	c0,0.8,0.6,1.2,1.3,1.3l2.1,0.5c1.2,0.3,2.2,0.9,2.2,2.3c0,0.6-0.2,2.4-3.3,2.4c-2,0-3.5-0.9-3.4-3L975.5,715.2z"/>
<path class="st27" d="M982.6,709.5h0.8v8.6h-0.8V709.5z"/>
<path class="st27" d="M990.3,715c0.1,1.7-1.1,3.1-2.7,3.3c-0.1,0-0.1,0-0.2,0c-1.9,0-2.9-1.5-2.9-3.3c-0.2-1.6,1-3.1,2.6-3.2
	c1.6-0.2,3.1,1,3.2,2.6C990.4,714.6,990.4,714.8,990.3,715z M985.2,715c0,1.3,0.7,2.6,2.2,2.6s2.2-1.3,2.2-2.6s-0.7-2.6-2.2-2.6
	S985.2,713.7,985.2,715L985.2,715z"/>
<path class="st27" d="M992.7,711.9h1.3v0.6h-1.3v4.2c0,0.5,0.1,0.8,0.6,0.8c0.2,0,0.4,0,0.7,0v0.7c-0.2,0-0.5,0-0.7,0
	c-1,0-1.4-0.3-1.3-1.4v-4.2h-1.1v-0.6h1.1V710h0.8L992.7,711.9z"/>
<path class="st27" d="M271,684.3h3.9c1.5-0.1,2.8,1.1,2.9,2.6c0.1,1.5-1.1,2.8-2.6,2.9c-0.1,0-0.2,0-0.3,0h-2v3.1H271V684.3z
	 M272.9,688.3h1.5c0.9,0,1.7-0.2,1.7-1.3s-0.8-1.3-1.7-1.3h-1.5V688.3z"/>
<path class="st27" d="M278.8,688.6c0.1-1.6,1.5-2.1,2.9-2.1s2.7,0.3,2.7,1.8v3.2c0,0.5,0,0.9,0.2,1.4h-1.7c-0.1-0.2-0.1-0.4-0.1-0.6
	c-0.6,0.5-1.3,0.8-2.1,0.8c-1.2,0-2.1-0.6-2.1-1.9c0-2.8,4.2-1.3,4.1-2.7c0-0.7-0.5-0.8-1.1-0.8s-1.1,0.3-1.1,0.9H278.8z
	 M282.7,689.8c-0.4,0.2-0.9,0.3-1.4,0.3c-0.5,0.1-1,0.3-1,0.9s0.5,0.8,1,0.8c0.7,0.1,1.3-0.4,1.4-1.1c0-0.1,0-0.2,0-0.3L282.7,689.8
	z"/>
<path class="st27" d="M287.5,685.7h-1.7v-1.4h1.7V685.7z M285.8,686.7h1.7v6.2h-1.7V686.7z"/>
<path class="st27" d="M288.8,686.7h1.6v1.2l0,0c0.3-0.8,1.1-1.3,2-1.3c0.1,0,0.3,0,0.4,0.1v1.6c-0.2,0-0.4-0.1-0.6-0.1
	c-1.3,0-1.7,0.9-1.7,2v2.8h-1.7V686.7z"/>
<path class="st27" d="M295.2,685.7h-1.7v-1.4h1.7V685.7z M293.5,686.7h1.7v6.2h-1.7V686.7z"/>
<path class="st27" d="M296.6,686.7h1.6v0.9l0,0c0.4-0.6,1.1-1,1.9-1c1.8,0,2.3,1,2.3,2.6v3.8h-1.7v-3.5c0-1-0.3-1.5-1.1-1.5
	s-1.3,0.5-1.3,1.8v3.2h-1.7L296.6,686.7z"/>
<path class="st27" d="M309.7,692.5c0,1-0.4,2.8-3.2,2.8c-1.2,0-2.6-0.6-2.7-2h1.7c0.1,0.6,0.7,0.9,1.3,0.8c1,0,1.4-0.6,1.4-1.5v-0.8
	l0,0c-0.4,0.7-1.1,1-1.9,1c-1.9,0-2.6-1.4-2.6-3.1c-0.2-1.5,0.9-2.9,2.5-3.1c0.1,0,0.1,0,0.2,0c0.8-0.1,1.5,0.3,1.8,1l0,0v-0.8h1.6
	V692.5z M308.1,689.7c0-1-0.4-1.9-1.5-1.9s-1.4,0.8-1.4,1.8s0.3,1.9,1.4,1.9c0.8,0,1.5-0.8,1.5-1.6
	C308.1,689.8,308.1,689.7,308.1,689.7z"/>
<path class="st27" d="M273.8,696.3h3.6c1.4,0,2.8,0.5,2.8,2.1c0,0.9-0.6,1.7-1.5,1.9l0,0c1.1,0.1,1.9,1,1.8,2.1
	c0,0.8-0.3,2.4-3.1,2.4h-3.6V696.3z M274.6,700h2.8c1.3,0,1.9-0.7,1.9-1.5c0-1.1-0.6-1.6-1.9-1.6h-2.8V700z M274.6,704.1h2.8
	c1.2,0,2.3-0.4,2.3-1.8c0-1.1-0.8-1.7-2.3-1.7h-2.8V704.1z"/>
<path class="st27" d="M286.7,704.8H286v-1.1l0,0c-0.4,0.8-1.2,1.3-2.1,1.3c-1.6,0-2.2-0.9-2.2-2.3v-4h0.8v4c0,1.1,0.5,1.7,1.7,1.7
	s1.9-1.2,1.9-2.5v-3.2h0.8L286.7,704.8z"/>
<path class="st27" d="M289.3,698.7h1.3v0.6h-1.3v4.2c0,0.5,0.1,0.8,0.6,0.8c0.2,0,0.4,0,0.6,0v0.7h-0.7c-1,0-1.4-0.3-1.3-1.4v-4.2
	h-1.1v-0.6h1.1v-1.9h0.8V698.7z"/>
<path class="st27" d="M292.9,698.7h1.2v0.6h-1.2v4.2c0,0.5,0.1,0.8,0.6,0.8c0.2,0,0.4,0,0.6,0v0.7h-0.7c-1,0-1.4-0.3-1.3-1.4v-4.2
	h-1.1v-0.6h1.1v-1.9h0.8V698.7z"/>
<path class="st27" d="M300.8,701.8c0,1.8-1,3.3-2.9,3.3s-2.9-1.5-2.9-3.3c-0.2-1.6,1-3.1,2.6-3.2c1.6-0.2,3.1,1,3.2,2.6
	C300.8,701.4,300.8,701.6,300.8,701.8z M295.7,701.8c0,1.3,0.7,2.6,2.2,2.6s2.2-1.3,2.2-2.6c0.2-1.2-0.6-2.4-1.8-2.6
	c-1.2-0.2-2.4,0.6-2.6,1.8C295.6,701.2,295.6,701.5,295.7,701.8L295.7,701.8z"/>
<path class="st27" d="M301.9,698.7h0.8v1.1l0,0c0.3-0.8,1.1-1.3,2-1.2c1.7,0,2.3,0.9,2.3,2.4v4h-0.8V701c0-1.1-0.4-1.9-1.6-1.9
	c-1.1,0-2,0.9-2,2c0,0,0,0.1,0,0.1v3.6h-0.8L301.9,698.7z"/>
<line class="st28" x1="290.3" y1="486.7" x2="290.3" y2="673.6"/>
<path class="st26" d="M286.5,673.4c0,2.1,1.7,3.8,3.8,3.8s3.8-1.7,3.8-3.8c0-2.1-1.7-3.8-3.8-3.8
	C288.2,669.6,286.5,671.3,286.5,673.4L286.5,673.4z"/>
<line class="st28" x1="1086.7" y1="500" x2="1086.7" y2="646.6"/>
<path class="st26" d="M1083,646.4c0,2.1,1.7,3.8,3.8,3.8s3.8-1.7,3.8-3.8s-1.7-3.8-3.8-3.8S1083,644.3,1083,646.4L1083,646.4z"/>
<line class="st28" x1="984.5" y1="550" x2="984.5" y2="682.8"/>
<path class="st26" d="M980.8,682.7c0,2.1,1.7,3.8,3.8,3.8s3.8-1.7,3.8-3.8s-1.7-3.8-3.8-3.8S980.8,680.6,980.8,682.7L980.8,682.7z"
	/>
<path class="st27" d="M1528.4,187.5c-0.5,0.7-1.4,1.2-2.3,1.2c-2.3,0-4.2-1.8-4.2-4.1c0-0.1,0-0.3,0-0.4c0-2.6,1.6-4.5,4.2-4.5
	c1.8-0.1,3.4,1.2,3.6,3h-1.8c-0.2-0.9-0.9-1.5-1.8-1.4c-1.7,0-2.3,1.4-2.3,2.9s0.6,2.9,2.3,2.9c1,0.1,1.9-0.7,2-1.7
	c0-0.1,0-0.1,0-0.2h-1.9v-1.4h3.6v4.6h-1.2L1528.4,187.5z"/>
<path class="st27" d="M1532.8,181.3h-1.7v-1.4h1.7V181.3z M1531.2,182.3h1.7v6.2h-1.7V182.3z"/>
<path class="st27" d="M1540.2,188c0,1-0.4,2.7-3.2,2.7c-1.2,0-2.6-0.6-2.7-2h1.7c0.1,0.6,0.7,0.9,1.3,0.9c0.9,0,1.4-0.6,1.4-1.5
	v-0.8l0,0c-0.4,0.7-1.1,1-1.9,1c-1.9,0-2.7-1.4-2.7-3.1c-0.2-1.5,0.9-2.9,2.5-3.1c0.1,0,0.1,0,0.2,0c0.8-0.1,1.5,0.3,1.8,1l0,0v-0.8
	h1.6V188z M1538.5,185.2c0-1-0.3-1.9-1.4-1.9s-1.4,0.8-1.4,1.8s0.3,1.9,1.4,1.9c0.8,0,1.5-0.8,1.5-1.6
	C1538.5,185.3,1538.5,185.3,1538.5,185.2L1538.5,185.2z"/>
<path class="st27" d="M1541.5,184.1c0.1-1.6,1.5-2.1,2.9-2.1s2.7,0.3,2.7,1.8v3.2c0,0.5,0,0.9,0.2,1.4h-1.7
	c-0.1-0.2-0.1-0.4-0.1-0.6c-0.6,0.5-1.3,0.8-2.1,0.8c-1.2,0-2.1-0.6-2.1-1.9c0-2.8,4.2-1.3,4.1-2.7c0-0.7-0.5-0.8-1.1-0.8
	s-1.1,0.3-1.1,0.9L1541.5,184.1z M1545.4,185.4c-0.4,0.2-0.9,0.3-1.4,0.4c-0.5,0.1-1,0.3-1,0.9s0.5,0.8,1,0.8
	c0.7,0.1,1.3-0.4,1.4-1.1c0-0.1,0-0.2,0-0.3L1545.4,185.4z"/>
<path class="st27" d="M1548.4,179.9h1.7v3.1l0,0c0.5-0.6,1.2-1,2-0.9c1.2,0,2.6,1,2.6,3.3s-1.3,3.3-2.6,3.3c-0.8,0.1-1.6-0.3-2-1
	l0,0v0.8h-1.6L1548.4,179.9z M1551.5,183.3c-1,0-1.4,0.9-1.4,2s0.4,2,1.4,2s1.4-0.9,1.4-2S1552.5,183.4,1551.5,183.3L1551.5,183.3z"
	/>
<path class="st27" d="M1557.5,181.3h-1.7v-1.4h1.7V181.3z M1555.8,182.3h1.7v6.2h-1.7V182.3z"/>
<path class="st27" d="M1561,182.2h1.2v1.1h-1.2v3.1c0,0.6,0.2,0.7,0.7,0.7c0.2,0,0.4,0,0.5,0v1.3c-0.3,0-0.7,0.1-1,0.1
	c-1,0-2-0.2-2-1.5v-3.7h-1v-1.1h1v-1.9h1.7L1561,182.2z"/>
<path class="st27" d="M1566.6,179.9h6.4v1.6h-4.5v1.8h4.2v1.5h-4.2v2.1h4.6v1.6h-6.5L1566.6,179.9z"/>
<path class="st27" d="M1576.3,182.2h1.2v1.1h-1.2v3.1c0,0.6,0.1,0.7,0.7,0.7c0.2,0,0.4,0,0.5,0v1.3c-0.3,0-0.7,0.1-1,0.1
	c-1,0-2-0.2-2-1.5v-3.7h-1v-1.1h1v-1.9h1.7L1576.3,182.2z"/>
<path class="st27" d="M1578.4,179.9h1.7v3.2l0,0c0.4-0.6,1.1-1,1.8-1c1.8,0,2.3,1,2.3,2.6v3.8h-1.7V185c0-1-0.3-1.5-1.1-1.5
	s-1.3,0.5-1.3,1.8v3.2h-1.7L1578.4,179.9z"/>
<path class="st27" d="M1586.9,185.8c0,1.1,0.6,1.6,1.5,1.6c0.6,0,1.1-0.3,1.3-0.8h1.5c-0.3,1.3-1.6,2.2-2.9,2.1
	c-1.7,0.1-3.1-1.2-3.2-2.8c0-0.1,0-0.3,0-0.4c-0.1-1.7,1.2-3.2,2.9-3.3c0.1,0,0.2,0,0.2,0c2.1,0,3.1,1.8,3,3.7L1586.9,185.8z
	 M1589.7,184.7c-0.2-0.9-0.5-1.3-1.3-1.3c-0.7,0-1.4,0.5-1.4,1.3c0,0,0,0,0,0.1H1589.7z"/>
<path class="st27" d="M1592.4,182.2h1.6v1.1l0,0c0.3-0.8,1.1-1.3,2-1.3c0.1,0,0.2,0,0.4,0.1v1.6c-0.2,0-0.4-0.1-0.6-0.1
	c-1.3,0-1.7,0.9-1.7,2v2.8h-1.7L1592.4,182.2z"/>
<path class="st27" d="M1597.1,182.2h1.6v0.9l0,0c0.4-0.6,1.1-1,1.9-1c1.8,0,2.3,1,2.3,2.6v3.8h-1.7V185c0-1-0.3-1.5-1.1-1.5
	s-1.3,0.5-1.3,1.8v3.2h-1.7L1597.1,182.2z"/>
<path class="st27" d="M1605.6,185.8c0.1,1.1,0.6,1.6,1.5,1.6c0.6,0,1.1-0.3,1.3-0.8h1.5c-0.3,1.3-1.6,2.2-2.9,2.1
	c-1.7,0.1-3.1-1.2-3.2-2.8c0-0.1,0-0.3,0-0.4c-0.1-1.7,1.2-3.2,2.9-3.3c0.1,0,0.2,0,0.2,0c2.1,0,3.1,1.8,3,3.7L1605.6,185.8z
	 M1608.4,184.7c-0.2-0.9-0.5-1.3-1.4-1.3c-0.7,0-1.4,0.5-1.4,1.3c0,0,0,0,0,0.1H1608.4z"/>
<path class="st27" d="M1613.2,182.2h1.2v1.1h-1.2v3.1c0,0.6,0.1,0.7,0.7,0.7c0.2,0,0.3,0,0.5,0v1.3c-0.3,0-0.7,0.1-1,0.1
	c-1.1,0-2-0.2-2-1.5v-3.7h-1v-1.1h1v-1.9h1.7L1613.2,182.2z"/>
<line class="st28" x1="1568" y1="445.5" x2="1568" y2="207.9"/>
<path class="st26" d="M1571.8,208.1c0-2.1-1.7-3.8-3.8-3.8c-2.1,0-3.8,1.7-3.8,3.8c0,2.1,1.7,3.8,3.8,3.8S1571.8,210.2,1571.8,208.1
	L1571.8,208.1z"/>
<path class="st28" d="M1072.3,479.8h28.9c4.8,0,8.6,3.9,8.6,8.6v3c0,4.8-3.9,8.6-8.6,8.6h-28.9c-4.8,0-8.6-3.9-8.6-8.6v-3
	C1063.7,483.6,1067.5,479.8,1072.3,479.8z"/>
<line class="st29" x1="842.5" y1="463.1" x2="877.9" y2="427.7"/>
<line class="st29" x1="1062.1" y1="457.3" x2="1103.8" y2="433.7"/>
<line class="st29" x1="1059.8" y1="329.3" x2="1106" y2="342.1"/>
</svg>
