<svg xmlns="http://www.w3.org/2000/svg" viewBox="0 0 139.01 140.17"><defs><style>.cls-1{fill:#005cab;}.cls-1,.cls-2,.cls-3{fill-rule:evenodd;}.cls-2{fill:#009d57;}.cls-3{fill:#ffdf1b;}</style></defs><g id="Layer_2" data-name="Layer 2"><g id="Layer_1-2" data-name="Layer 1"><path class="cls-1" d="M37.49,109.65A31.22,31.22,0,1,1,68.68,78.46a31.27,31.27,0,0,1-31.19,31.19Z"/><path class="cls-2" d="M16.88,134a51.47,51.47,0,0,1-.23,6.15h6.1c.62-8.68-1.38-20.27-2.53-24.66H15.64c-3.48,4.39-11.59,16-15.64,24.66H6.2c.86-1.95,1.91-4,3.05-6.15Zm-6.2-2.77c2.77-4.81,5.39-8.77,5.39-8.77s.53,4,.72,8.77Z"/><polygon class="cls-2" points="42.73 140.17 46.6 140.17 53.13 115.51 47.6 115.51 43.74 130.11 36.68 115.51 32.77 115.51 26.28 140.17 31.77 140.17 35.63 125.63 42.73 140.17 42.73 140.17"/><path class="cls-2" d="M66.58,134a51.43,51.43,0,0,1-.24,6.15h6.11c.52-8.68-1.43-20.27-2.53-24.66H65.29c-3.48,4.39-11.59,16-15.59,24.66h6.2A68.58,68.58,0,0,1,59,134Zm-6.2-2.77c2.77-4.81,5.39-8.77,5.39-8.77s.53,4,.72,8.77Z"/><polygon class="cls-2" points="83.18 140.17 88.95 118.28 95.15 118.28 95.87 115.51 77.5 115.51 76.79 118.28 83.04 118.28 77.27 140.17 83.18 140.17 83.18 140.17"/><polygon class="cls-2" points="99.16 137.45 101.4 128.96 108.55 128.96 109.32 126.2 102.16 126.2 104.21 118.28 112.65 118.28 113.32 115.51 99.01 115.51 92.48 140.17 107.27 140.17 107.93 137.45 99.16 137.45 99.16 137.45"/><polygon class="cls-2" points="117.66 137.45 123.43 115.51 117.52 115.51 110.98 140.17 125.58 140.17 126.3 137.45 117.66 137.45 117.66 137.45"/><path class="cls-3" d="M127.82,109.74C146,67.2,142,24.66,115.56,7.49,90.43-8.83,52.8,2.43,22.18,32.38,42.21,17,64.86,12.83,78.7,24c17.64,14.16,13.83,48.12-8.59,75.83a125.46,125.46,0,0,1-9.25,10.07l67-.15Z"/></g></g></svg>