<svg xmlns="http://www.w3.org/2000/svg" viewBox="0 0 1198.96 494.94"><g id="Layer_2" data-name="Layer 2"><g id="Layer_1-2" data-name="Layer 1"><path d="M0,247.38c2.48-5,1.92-10.55,2.68-15.83,8.67-59.54,35-110.49,74.92-155C102.31,49,130.42,25.69,162.65,7.33c5.48-3.12,11.64-4.44,17.17-7.33h14c3.69,1.73,7.47,3.29,11,5.24a31,31,0,0,1,6.41,4.69c5.82,5.5,5.29,8.05-1.93,11.28C125,58.87,67,121.24,34.19,207.25,21.41,240.77,14.09,275.33,15,311.37c.57,22.55,4.15,44.58,11.8,65.88.39,1.09.77,2.19,1.09,3.3.08.28-.08.63-.22,1.53-4.35-5.53-7.06-11.48-9.64-17.46-9.49-22-14.29-45.17-16.89-68.87C1,294.55,1.67,293,0,292.27v-7c1.08-2,.25-4.06.52-6.08-.26-2.29.57-4.66-.52-6.89v-6a13,13,0,0,0,0-8Z"/><path d="M0,258.35a7.43,7.43,0,0,1,0,8Z"/><path d="M0,272.32c1.9,2.14.66,4.7,1,7.05-.35.38-.66.38-.95-.07Z"/><path d="M0,279.3c.32,0,.63,0,1,.07-.35,2,1,4.21-.95,5.92Z"/><path d="M152.85,490.76c-36.78-14.08-61.57-39.21-70.9-78-6.57-27.33-3.44-54.47,3.43-81.31,13.68-53.41,42.24-98,82.53-135,66.48-61,145.31-97.7,233.37-115.29,18.27-3.64,36.8-5.66,55.58-3.48,21.19,2.46,35.41,13.87,41.82,37.48,2.16,8-.82,12.2-8.94,13.39-14.8,2.19-29.66,4-44.5,5.93-48.59,6.3-95.39,19-140,39.46-50.82,23.32-96.44,54.22-135.47,94.37-25.4,26.13-45.91,55.57-57.33,90.58-8.91,27.34-11.16,54.95-1.34,82.6,7.61,21.42,21.82,37.33,41.7,48.27.26.22.35.43.26.65S152.93,490.76,152.85,490.76Z"/><path d="M80,444.36a88.16,88.16,0,0,1-21.38-19.85c-22.51-28.29-31.86-60.79-30.95-96.58.85-33.29,10.41-64.38,24.14-94.37,34-74.3,85.13-133.57,155.78-175.41C239.8,39.07,274.08,25,310.93,17.36c21-4.34,37.7,1.84,49.93,19.55A31.75,31.75,0,0,1,364.28,43c2,4.91.63,7.38-4.53,8.71C265.88,75.9,188.29,125.9,126.19,199.84,94.9,237.1,72.07,279,61.63,327,54,362,55.09,396.28,71,429.17c1.3,2.68,2.77,5.3,4.29,7.87S78.4,441.92,80,444.36Z"/><path d="M142.67,424.86c-10,.31-10,.31-10.94-8.79-1.26-12.75-1.26-12.69,11.4-13.26,65.7-3,130.34-12.25,193.09-32.65,18.81-6.11,37.33-13,55-22,13.39-6.79,17.33-.34,22.71,8.67,1.84,3.08-1.34,3.26-2.75,4a387.33,387.33,0,0,1-48.35,21.17c-46,16.93-93.5,28-142,35C194.5,420.9,168,423.32,142.67,424.86Z"/><path d="M142.15,446c28.3-1.61,56.17-3.73,83.89-7.31,47.42-6.12,94.27-14.67,138.27-34.54a36.06,36.06,0,0,1,5.18-1.8c9.41-2.59,18.31,2.78,20.61,12.26.68,2.8-1.77,2.48-2.94,3.05A444.75,444.75,0,0,1,325,442a576.82,576.82,0,0,1-116.69,23c-14.4,1.37-28.83,2.42-43.24,3.73a10,10,0,0,1-7.38-2.09C150.13,460.84,144.45,453.6,142.15,446Z"/><path d="M180.8,484.24c43.4,0,85.77-6.93,127.64-17.37,15.16-3.78,29.76-9.38,44.47-14.6a18.89,18.89,0,0,1,25,15.24c.34,2.45-1.61,2.19-2.78,2.62A526.62,526.62,0,0,1,312.73,489c-30.71,7.21-61.77,6.1-92.79,5.43A90.92,90.92,0,0,1,180.8,484.24Z"/><path d="M635.22,361.7l5-14.49c3.61-10.51,7.48-20.93,10.72-31.56,1.72-5.63,5.82-3.21,9-3.32,3.67-.13,2.06,3.19,2.07,4.93.13,18.78,0,37.56.15,56.34,0,3.4-.8,4.55-4.38,4.55s-4.87-.8-4.78-4.66c.26-12,.09-23.93.09-36.08-2.13.84-2,3-2.49,4.47-3.78,10.8-7.49,21.62-11,32.51-.87,2.69-2.1,3.56-4.91,3.61-3,.05-4-1.25-4.8-3.78-3.67-11.31-7.52-22.56-12.23-33.67,0,11-.18,22,.1,33,.1,3.9-1.21,4.65-4.8,4.63s-4.47-1-4.44-4.48c.17-18.94,0-37.89.14-56.83,0-1.63-1.36-4.75,2-4.5,3.12.23,7.22-2.45,9,3.2,4.62,14.54,9.73,28.92,14.65,43.36C634.43,359.46,634.63,360,635.22,361.7Z"/><path d="M715.4,338.66c-4,11.73-8.06,23.44-11.93,35.22-.86,2.62-1.68,4.15-5,4.16s-4.09-1.73-4.92-4.26c-3.67-11.16-7.47-22.28-12.14-33.32,0,10.92-.18,21.84.1,32.75.1,4-1.06,5-4.95,5s-4.25-1.43-4.23-4.67c.13-18.93,0-37.86.13-56.79,0-1.62-1.37-4.71,2-4.42,3,.25,7-2.38,8.75,2.84,5,15.21,10.29,30.35,15.79,46.47,1.88-5.46,3.49-10.1,5.08-14.75,3.53-10.35,7.3-20.63,10.46-31.1,1.67-5.51,5.71-3.45,8.9-3.46,3.6,0,2,3.21,2,5,.12,18.76,0,37.53.14,56.29,0,3.31-.65,4.61-4.31,4.62s-4.86-.93-4.78-4.72c.24-11.56.08-23.14.08-34.71Z"/><path d="M832,359.7c0-15.13,0-28.83,0-42.52,0-5.43,2.38-7.1,7.63-5.64,1.89.52,1.66,1.79,1.66,3.06q0,30.15,0,60.3c0,1.22.41,3.13-1.59,3-3.21-.27-6.92,1.76-9.35-2.44-7.3-12.64-14.81-25.18-22.25-37.75a29.43,29.43,0,0,0-4.92-6.61v7.6c0,12-.17,23.92.09,35.88.09,4.26-2.48,3.44-4.85,3.41s-5,.94-5-3.33c.16-19.76.06-39.53.08-59.3,0-1.57-.48-3.86,2-3.68,3.05.23,6.7-1.83,9,2.16,3.11,5.49,6.41,10.87,9.61,16.3q7.21,12.22,14.43,24.45C829.33,355.91,830.27,357.19,832,359.7Z"/><path d="M1136.75,358.23c0-14,.08-27.89-.07-41.83,0-3.34.29-5.13,4.45-5,3.81.1,5.11.92,5.06,5-.22,18.45,0,36.91-.2,55.36,0,2,1.91,5.59-1.88,6.1-3.54.48-7.19,1.13-9.72-3.54-6-11.09-12.77-21.78-19.22-32.63l-6.39-10.78c-1.68.93-.86,2.4-.86,3.51-.08,13.13-.19,26.27,0,39.4.07,3.69-1.25,4.35-4.56,4.31s-5.05-.35-5-4.48c.24-18.95.07-37.91.16-56.86,0-1.75-1.19-4.73,1.58-5,3.14-.27,6.88-1.94,9.32,2.29,7.31,12.66,14.84,25.19,22.29,37.77q2,3.38,4,6.74Z"/><path d="M683.45,278.66c-.22,5.8-3.46,6.81-8.12,6.18-5.42-.72-7.83-2.88-7.87-8.35-.13-14.29-.05-28.58-.06-42.88,0-5.65-.12-11.3.05-17,.11-3.7-1.52-5.21-5.07-5-.17,0-.34,0-.5,0-9.81.13-8-1.12-8.2,8.13-.09,5,.11,10-.07,15-.1,2.76.73,4,3.64,3.68,1.64-.18,3.33.09,5-.06,2.48-.22,3.12.9,3.06,3.2-.06,2-.47,3-2.77,3.06-2.76.06-6.33-1.32-8.11.74-2,2.35-.67,6.07-.72,9.18-.12,8.64-.16,17.28,0,25.92.07,3.23-.91,4.3-4.21,4.27s-3.92-1.2-3.88-4.13c.13-10-.27-19.95.18-29.91.23-5.14-1.31-6.86-6.35-6.22-1.69.21-4.41,1.24-5.2-1.25-.84-2.66-.71-5,3.6-4.94,7.81.16,7.82-.11,7.82-7.76,0-4.82-.2-9.65.07-14.46.19-3.49-1-4.92-4.49-4.43-1,.14-2-.05-3,0-2.29.17-2.73-1.06-2.77-3.05,0-2.21.44-3.36,3-3.33,8.65.11,17.31,0,26,0,7.87,0,10.91,3,10.93,10.81.05,17.95,0,35.9,0,53.85C675.41,278,675.41,278,683.45,278.66Z"/><path d="M715.59,437.76c0,9.3-.11,18.6.06,27.89.06,3.46-.24,5.39-4.66,5.3-4-.07-5-1.25-4.86-5.06.27-9,0-17.93.15-26.89.07-3.15-.67-4.38-4.08-4.25-6.81.26-13.64.26-20.45,0-3.42-.13-4.58.77-4.48,4.35.26,9.29-.11,18.6.18,27.89.12,3.76-1.65,4-4.47,3.82-2.58-.15-5.16.67-5.11-3.75q.32-29.38,0-58.78c0-4.23,2.18-4,5-4s4.84-.11,4.58,3.78c-.34,5.13,0,10.29-.13,15.44-.08,2.49.53,3.54,3.28,3.47q11.22-.25,22.45,0c2.82.07,3.28-1.13,3.22-3.54-.14-5,.21-10-.12-14.94-.26-3.82,1.43-4.36,4.65-4.24,2.93.11,5,0,4.9,4.1C715.38,418.16,715.59,428,715.59,437.76Z"/><path d="M784.19,336.45c0,5.82-.4,11.66.07,17.44,1.28,15.79-12.28,26.36-28.73,23.73-12.32-2-19.2-10.3-19.22-22.74,0-13.13.16-26.25-.1-39.37-.09-4.09,1.91-4.08,4.85-4s5.08-.16,5,4c-.24,13.45,0,26.91-.14,40.36-.08,5.68,1.57,10.28,6.88,12.7,5.78,2.63,11.63,2.49,17.05-1.25,3.81-2.63,4.79-6.51,4.78-10.9-.06-13.29.1-26.58-.1-39.86-.06-3.81.85-5.13,4.93-5.17s4.94,1.47,4.8,5.16C784,323.15,784.19,329.81,784.19,336.45Z"/><path d="M558.23,429.45c0-7.14.21-14.3-.09-21.44-.17-4,2.15-3.66,4.74-3.66s4.79-.4,4.72,3.65c-.25,13.45-.11,26.92-.09,40.39,0,9.53,5,14.53,14.34,14.57s14.54-4.87,14.57-14.31c0-13.3.13-26.6-.07-39.9-.05-3.53,1-4.65,4.49-4.45,3,.17,5.38-.18,5.28,4.26-.27,13.29,0,26.59-.13,39.89-.12,10.8-6.15,18.62-16.09,21.36-11.49,3.17-23.23-.74-28.76-9.52a18.72,18.72,0,0,1-2.91-10.39C558.27,443.08,558.24,436.27,558.23,429.45Z"/><path d="M1169.79,378c-3.33,0-6.67-.2-10,.06s-4.3-.76-4.24-4.11c0-3.14,1.09-3.94,4.06-3.84,6,.21,12,.14,18,0,7.78-.13,13.54-4.83,14.14-11.35.58-6.36-3.94-11.46-11.71-13.07-4.55-.94-9.18-1.55-13.69-2.65-8.16-2-12.93-8.27-12.63-16.23.26-7.14,6.15-13.55,14-14.67,8.93-1.29,17.94-.37,26.91-.56,3.31-.07,2.36,2.46,2.52,4.27.18,2-.11,3.47-2.82,3.42-7.32-.13-14.64-.16-22,0-4.1.11-7.37,2-8.86,6.07-1.18,3.25.15,5.84,2.38,8.08,1.74,1.74,4.12,2.08,6.39,2.53,3.91.76,7.85,1.4,11.76,2.16a21.94,21.94,0,0,1,9.84,4.57c3.36,2.76,5.74,5.93,5,10.67a32.94,32.94,0,0,0,0,5c0,12.23-6.6,19.07-19,19.58-3.32.13-6.65,0-10,0Z"/><path d="M511.39,248.76c12.11.71,13,2.11,9.11,13.11-.33.94-.67,1.87-1,2.8-2.64,6.67-1.57,9,5.22,12,4.26,1.86,8.73,1.94,13.22,2,12.82,0,25.64,0,38.46.07,1.33,0,4-1.19,3.75,1.46-.18,2-.73,4.83-4,4.77-15.63-.29-31.29.73-46.91-.6a19.43,19.43,0,0,1-11.91-5.78c-2.38-2.33-3.65-2.2-4.85.86-1.62,4.15-4.35,6.19-9.19,5.64-3.47-.39-3-1.42-1.55-3.55a128.56,128.56,0,0,0,11.77-21.9c1.73-4.11.65-5.17-3.58-5-2.81.11-6.42,1.49-8.3-1.67-2.05-3.46,1.34-5.77,2.83-8.37,2-3.45,4.18-6.78,6.32-10.15,1.29-2.05.89-3-1.66-2.92-2,.07-4-.07-6,0-2.23.11-3.69-.06-3.69-3s1.54-3.07,3.72-3c3.83.09,7.66-.06,11.49.05,6.18.17,8.15,3.36,5.26,8.7C517.28,238.93,514.43,243.56,511.39,248.76Z"/><path d="M509.31,342.4c0,3.65,0,7.3,0,11,.11,9.44,6.66,16.32,16.13,16.72,5.14.21,10.32.29,15.45,0,3.58-.21,3.54,1.62,3.6,4.22S544,378.22,541,378c-6.78-.44-13.62.61-20.38-.8-12.9-2.69-20.84-12.24-20.91-25.33,0-7.14-.1-14.28,0-21.42.16-9.74,6.57-17.07,16.26-18.38,8.59-1.16,17.27-.24,25.9-.5,3.4-.11,2.47,2.32,2.58,4.14s.3,3.61-2.61,3.54c-6.82-.15-13.64-.09-20.46,0-8.47.08-12,3.69-12,12.19C509.3,335.09,509.31,338.74,509.31,342.4Z"/><path d="M869.12,342.1c0-3.83,0-7.65,0-11.47.1-9.79,6.3-17.11,16.06-18.51,8.6-1.22,17.29-.27,25.93-.51,3.21-.09,2.57,2.22,2.73,4.14.21,2.45-.46,3.62-3.25,3.54-6.49-.17-13-.09-19.47,0-9,.05-12.6,3.74-12.63,12.8q0,9.72,0,19.45c.06,11.95,6.58,18.53,18.45,18.64,4.49,0,9,.19,13.48-.05,3.16-.17,3.51,1.38,3.45,3.91-.06,2.36,0,4.25-3.32,4-7-.46-14,.66-20.9-.85-12.68-2.76-20.47-12.26-20.53-25.11C869.11,348.74,869.12,345.42,869.12,342.1Z"/><path d="M913.26,404.81c7.23-1.6,12-.3,15.26,6.35,2.63,5.46,6.61,10.27,10.4,16,4.53-6.83,8.8-13.29,13.1-19.74,1.72-2.58,8.42-4.43,11-3,2,1.11.28,2.27-.3,3.15-5.42,8.16-10.84,16.31-16.43,24.36a13.39,13.39,0,0,0-2.6,8.3c.17,9-.17,17.94.16,26.9.16,4.55-2.65,3.59-5.17,3.66s-4.85.56-4.7-3.58c.33-9.12,0-18.27.16-27.4a12,12,0,0,0-2.29-7.37C925.69,423.43,919.64,414.31,913.26,404.81Z"/><path d="M1040.76,262.54c1.65,4.43.22,7-4.25,8.7-7.41,2.81-14.62,6.14-22,9.3-1.71-5.2-.79-8.41,4.74-9.26,3-.46,4.38-2.13,4.23-5.49-.28-6.29-.28-12.61,0-18.9.16-3.61-1.19-4.79-4.57-4.34-2.45.33-4-.09-3.94-3.31s2-3,4-2.75c4,.59,4.79-1.21,4.56-4.76a96.34,96.34,0,0,1,0-12.94c.23-3.48-.9-4.84-4.42-4.41a10.29,10.29,0,0,1-4.92-.25c-1.66-.68-.83-2.64-.86-4,0-1.93,1.48-1.89,2.82-1.89,7.32,0,14.63.06,21.94-.05,2.39,0,3.13.82,3.14,3.17s-.68,3.57-3.09,3.1c-5.94-1.17-7,1.87-6.38,6.87a53,53,0,0,1,0,8.45c-.14,3.89-.83,8,5.47,6.79,2.33-.43,1.93,1.67,2,3.09.07,1.58,0,3.3-2.21,2.9-5.37-1-5.46,2.23-5.27,6.09a114.71,114.71,0,0,1,0,12.44c-.24,3.93.68,5.34,4.54,3.13C1037.58,263.37,1039,262.34,1040.76,262.54Z"/><path d="M986.6,348.14c0-8.31-.1-16.62.06-24.92.05-3-.76-4.19-3.92-4-4.15.25-8.33-.09-12.48.1-3.1.15-3-1.69-3-3.81s-.23-4,2.9-4c14.14.08,28.29.05,42.43,0,3.4,0,2.31,2.51,2.46,4.28s.2,3.65-2.66,3.52c-3.82-.18-7.67.19-11.48-.11s-5.11.69-5,4.81c.27,15.78.15,31.57.07,47.35,0,3,1.73,6.82-4.5,6.84-6.43,0-4.79-3.85-4.83-7.14C986.54,363.43,986.6,355.79,986.6,348.14Z"/><path d="M878.1,441.15c0-8.47-.1-16.94,0-25.41.05-2.73-.63-3.89-3.58-3.72-4.15.23-8.32-.11-12.47.11-2.93.15-3.23-1.33-3.13-3.63s-.35-4.25,3.13-4.21q20.71.21,41.42,0c3.28,0,3.29,1.78,3.31,4.14s-.21,3.85-3.15,3.68c-3.48-.2-7,.22-10.47-.11-4.41-.43-6,.82-5.9,5.61.32,16.1,0,32.22.22,48.33.06,4-1.14,4.91-5,5s-4.61-1.38-4.51-4.87C878.26,457.77,878.1,449.46,878.1,441.15Z"/><path d="M641.53,441.76c0,8.48-.22,17,.1,25.43.15,4.11-2.2,3.63-4.72,3.6s-4.81.65-4.75-3.54c.24-16.78,0-33.58.2-50.36.06-4-1.16-5.23-5-4.88-3.46.31-7-.06-10.48.1-2.61.13-4-.41-3.85-3.47.14-2.56.07-4.41,3.61-4.36q20.22.25,40.45,0c3.39,0,3.65,1.56,3.73,4.26.09,2.93-1,3.73-3.78,3.58-3.31-.19-6.68.22-10-.11-4.22-.43-5.87.68-5.63,5.33C641.84,425.46,641.53,433.62,641.53,441.76Z"/><path d="M867.53,278.8l1.45-.35c3-.79,7.78,2,9-1.71a28.12,28.12,0,0,0,0-16.67c-1-3.25-5.34-1.09-8.14-1.58-2.25-.39-2.64,1.11-3.09,2.89a40.67,40.67,0,0,1-6.56,13.85c-4.85,6.8-10.19,12.5-20.17,9.23,1.64-1.33,3.36-2.68,5-4.08,6.09-5.08,11-11,13.52-18.68.77-2.36.41-3.43-2.3-3.25-2.15.14-4.32,0-6.48,0s-3.86.25-3.85-2.9c0-2.93,1.07-3.81,3.78-3.54,1.65.16,3.35-.15,5,.06,4,.52,6.31-.47,6.14-5.11s3.49-2.19,5.48-2.57c2.65-.51,2.53,1.42,2.09,3.13-1.05,4,.84,5,4.42,4.55a33.1,33.1,0,0,1,5,0c5.79.16,8.68,2.65,9,8.38a128.13,128.13,0,0,1-.05,15.92c-.49,6.95-10.47,12.06-16.34,8.47C868.53,283.68,868.37,281.22,867.53,278.8Z"/><path d="M840.17,437.91c0-10,.19-19.94-.1-29.9-.12-4,2-3.72,4.66-3.7s5.17-.45,5.13,3.85q-.29,29.4,0,58.8c0,4.28-2.27,3.78-5,3.87-3,.1-4.93.05-4.8-4C840.38,457.18,840.17,447.54,840.17,437.91Z"/><path d="M1022.91,345.17c0-9.95.17-19.9-.09-29.84-.1-3.66,1.55-4,4.45-3.9,2.68.13,5.15-.48,5.11,3.83q-.29,29.6,0,59.18c0,4-2.25,3.61-4.77,3.55s-4.92.76-4.79-3.48C1023.12,364.74,1022.91,355,1022.91,345.17Z"/><path d="M860.13,345.16c0,9.78-.21,19.57.1,29.34.14,4.24-2.37,3.44-4.77,3.49s-4.84.51-4.8-3.53q.26-29.59,0-59.19c0-4.3,2.44-3.71,5.12-3.83,2.88-.13,4.55.19,4.45,3.88C860,325.26,860.13,335.21,860.13,345.16Z"/><path d="M911.82,221.65a98,98,0,0,0,9.57-15.36c1-2.12,6.75-3.47,8.77-2.22.37.22.89.83.8,1-2.25,5.34,2.16,3.31,4,3.41,4.64.23,9.3.17,13.94,0,2.3-.06,3.24.59,3.25,3.06s-.9,3.18-3.21,3c-2.64-.15-5.3,0-7.92,0-.07.54-.15.86-.16,1.18,0,1.93,3.55,3.45,1.16,5.36s-8.5-.28-9.83-2.8c-2.78-5.29-4.71-5.56-7.47-.42C921.77,223.55,917,220.56,911.82,221.65Z"/><path d="M614.57,213.58a20.35,20.35,0,0,1-1.31-3.48c-.28-1.89-3.68-4.45-.39-5.47,2.62-.81,7.27-2.33,8.39,3,1,4.91,3.86,6.84,8.82,6,2.3-.4,4.15-.14,4.1,3.18,0,3.15-1.61,3.42-4.08,3.39-7.62-.08-15.25-.06-22.88,0-2.29,0-4.11.11-4.18-3.21-.08-3.67,2-3.49,4.43-3.41C609.62,213.63,611.76,213.58,614.57,213.58Z"/><path d="M821.32,248.43q-.93,10.63-2.86,21.12c-.86,4.73-4.33,2.72-6.59,2.64-3.28-.11-1.2-2.63-1-4.07.94-7.21,2.3-14.38,2.91-21.61.3-3.45,1.31-4.35,4.7-4.3,4.12.06,2.76,2.66,2.84,4.73C821.33,247.43,821.31,247.93,821.32,248.43Z"/><path d="M618.17,248c-3.15,0-6.3-.1-9.45,0-2.42.1-3.62-.52-3.59-3.28,0-2.53.7-3.48,3.36-3.42,6.63.17,13.27.16,19.9,0,2.65-.07,3.37.89,3.39,3.42,0,2.79-1.28,3.34-3.66,3.26C624.81,247.94,621.49,248,618.17,248Z"/><path d="M502.89,204.83c5.36-1.3,9.42-.54,11.51,5.56,1.15,3.35,3.61,6.26,5.47,9.38C510.16,222.26,506.72,219.23,502.89,204.83Z"/><path d="M618.39,233.64c-3.48,0-6.95-.12-10.42,0-2.75.12-2.71-1.5-2.79-3.47-.08-2.17.77-2.84,2.88-2.81q10.43.15,20.84,0c2.19,0,2.84.83,2.82,2.9s-.3,3.49-2.92,3.38C625.34,233.52,621.86,233.64,618.39,233.64Z"/><path d="M160.84,492.81a27.31,27.31,0,0,1,3.63,1.53c.07.59-2.15.45-3.95-.65C160.42,493.63,160.73,493.22,160.84,492.81Z"/><path d="M784.48,254.82c-2.56,0-2.26-1.66-2.43-3.35-.64-6.25-2.67-8.18-8.89-8.28-6.65-.1-13.31,0-20,0-1.91,0-3.78.13-3.66-2.69s2.19-2,3.66-2c6.82-.07,13.65.05,20.47-.06,6-.09,7.66-2.2,7.66-9s-1.65-8.86-7.69-8.93c-6.65-.08-13.31,0-20-.07-1.54,0-4,1.09-4-2.06,0-3,2.36-2.23,4-2.24q13.73-.09,27.46,0c2.29,0,4.23.13,4.13-3.25s-2.38-2.56-4.17-2.57q-13.72-.09-27.46,0c-2.44,0-4.3-.15-4.07-3.35.27-3.82-2.74-2.36-4.57-2.57-2.05-.23-4.2-.3-3.76,2.86s-1.51,3.07-3.71,3.06q-13.47-.09-27,0c-1.94,0-4.43-1-4.45,2.8,0,3.59,2.24,3,4.33,3h27.47c1.67,0,3.42-.23,3.33,2.41-.09,2.45-1.82,1.93-3.19,1.94-7,0-14-.09-21,.07-5.52.12-7.2,2.39-7.19,9,0,6.78,1.54,8.8,7.17,8.91,6.49.12,13-.08,19.47.1,1.74,0,4.77-1.51,4.65,2.41-.1,3.44-2.79,2.16-4.47,2.19-8.15.12-16.31.06-24.46,0-1.87,0-3.64-.21-3.68,2.65s1.23,3.32,3.65,3.3q12.24-.13,24.47,0c1.88,0,4.5-1.07,4.57,2.68s-2.45,2.84-4.42,2.86c-9.49,0-19,.08-28.46,0-2.44,0-3.12.85-3.14,3.19s1,2.76,3,2.73c5-.09,10,0,15,0,4.66,0,9.32.06,14,0,2.36,0,4.14-.06,4.08,3.27s-2,2.87-4,2.87c-8,0-16,0-24,0-2.18,0-4.85-.83-4.8,3.1.05,3.75,2.67,2.67,4.57,2.69,8,.09,16,0,24,.06,1.82,0,4.11-.8,4.16,2.6s-1.74,3.86-4.4,3.82c-3.33-.05-6.66,0-10,0-2.08,0-2.67.59-1.7,2.62s1.89,3.32,4.4,3.19c3.65-.19,7.32,0,11-.07,6.85-.17,8.7-1.74,8.9-8.46.09-3.29,1.45-3.81,4.24-3.75,6.33.15,12.65.11,19,0s8.65-2.16,9.41-8.45c.19-1.6-.31-3.52,2.32-3.47,2.06.05,1.81-1.5,1.8-2.79S786.5,254.8,784.48,254.82ZM738,232.49c-5.32-.1-10.63,0-16,0-2,0-3.66-.05-3.73-2.74s1.52-3.3,3.82-3.24c2.82.06,5.65,0,8.47,0,2.49,0,5,.11,7.47,0,2.32-.13,3.2.63,3.23,3.07C741.29,232.13,740.12,232.53,738,232.49Zm14.45-6c3,.11,6,0,8.92,0,2.64,0,5.28.07,7.92,0,2.24-.07,3.38.74,3.34,3.13,0,2.12-1,2.89-3,2.87-5.78-.06-11.56-.09-17.33,0-2.32,0-2.71-1.12-2.69-3.06S750.2,226.43,752.4,226.52Zm.2,22.61q8.7.08,17.4,0c2.15,0,3.44.59,3.5,3,.07,2.9-1.89,2.57-3.69,2.58h-8.45c-3,0-6-.06-9,0-2.11,0-2.91-.82-2.93-2.94C749.46,249.51,750.66,249.11,752.6,249.13Zm17.89,17.51c-6.14,0-12.28,0-18.41,0-2.38,0-2.59-1.37-2.6-3.23,0-2.07.74-3,2.91-3,3.15.11,6.31,0,9.46,0,2.82,0,5.64,0,8.45,0,1.86,0,3.28.18,3.22,2.59C773.48,265.2,772.92,266.64,770.49,266.64Z"/><path d="M981.53,214.6c2.31.19,4.66,0,7,.06s3.37-.43,3.35-3-1.08-3.08-3.32-3c-5.16.1-10.34.3-15.47-.11-1.9-.15-6.77,2.78-5.27-3.37.19-.75-.87-.82-1.49-.84-3.73-.12-7.06-.76-9.22,4.2S953.81,220,946.54,221c-1,.14-1.11,1.11-.69,2,2.14,4.4-.59,4.36-3.71,4.21-2.65-.13-5.32,0-8,0-5.16,0-10.33-.19-15.46.2s-6.33,3.95-6.51,8.44c-.14,3.56,0,6.38,4.79,5.57.87-.15,1.81-.11,1.57,1.58-1.52,10.74-.45,21.55-.65,32.32-.13,6.86,2.35,9.15,9.33,9.16q23.7,0,47.41,0c13,0,13.17-.18,13.08-13-.05-7.18-2-9.1-9.25-9.11-15.64,0-31.28.07-46.92-.11-1.88,0-5.57,2.05-5.39-2.6.17-4.49,3.74-2.38,5.66-2.41,13.14-.2,26.29-.1,39.43-.1,10.82,0,12.47-1.44,11.6-12-.32-3.85,1.19-4.12,3.94-3.74,3.27.46,4.26-.78,4.2-4.08-.15-7.68-2.34-10.12-10.09-10.16-6.82,0-13.64-.11-20.46,0-2.74.06-3.25-1.81-4-3.64-.29-.72-.69-2,.41-2,4.09.27,4.42-3.35,6.2-5.51s4.2-2.31,5.11.31c2.31,6.73,7.48,4.84,12.15,4.9.34-1.36-.41-2.13-1-2.91C977.33,215.48,977.92,214.31,981.53,214.6Zm-51.22,53.64c14.76.13,29.52.23,44.28-.05,4.63-.09,4.44,2.32,4.58,5.55.16,3.49-.61,5.11-4.59,4.95-7.28-.3-14.59-.08-21.88-.08-7.47,0-14.94-.17-22.39.05-5.34.16-3.87-3.53-4.25-6.44C925.6,268.7,927.28,268.21,930.31,268.24Zm40.52-17.07c-7-.06-13.93,0-20.89,0-6.8,0-13.6,0-20.4,0-2,0-3.66,0-3.48-2.77.15-2.18.45-4.09,3.16-4.1q21.39,0,42.78,0c2.37,0,2.51,1.73,2.57,3.43C974.65,250.28,973.26,251.19,970.83,251.17Zm5-18.14c6.26,0,6.26,0,5.87,7a14.1,14.1,0,0,0-6.46-1.72c-17.45.15-34.91.17-52.37.38-1.2,0-1.93.17-1.86-1.16.09-1.52-.83-3.56,1.46-4.21a14.8,14.8,0,0,1,3.95-.27Q951.11,233,975.81,233Z"/><path d="M1197,246.17c-.08-7.41-2.58-9.81-10-9.82q-26.44,0-52.91,0c-2.22,0-4.59.71-4.65-3.18-.07-4.07,2.32-3.56,4.84-3.56q23.21,0,46.42,0c14.16,0,14.6-.45,14.37-14.55-.12-7.45-2-9.37-9.57-9.38q-26.71,0-53.41,0c-8.8,0-11,2.37-11.13,11.33-.36,22,1.79,44.21-4.64,65.83,11.38.85,9,1.18,10.63-7.4,1.86-9.49,2-19.14,2.21-28.77.06-2.26.09-4.17,3.4-4.14,17.46.13,34.94.08,52.41,0,2.7,0,3.88.92,3.85,3.77q-.18,14.2,0,28.41c0,2.86-1.2,3.83-3.9,3.73-3.16-.12-6.33.08-9.49-.05-2.82-.12-3,.94-2,3.26s2,3.57,4.7,3.38c3.14-.23,6.32,0,9.48-.07,6.79-.18,9.38-2.7,9.44-9.4Q1197.14,260.87,1197,246.17ZM1133,212.41c16.92,0,33.84,0,50.76,0,4.35,0,3,3.12,3,5.27,0,2.39,1.19,5.64-3.32,5.59-8.46-.09-16.92,0-25.38,0-8.3,0-16.6-.15-24.88.07-3.5.1-4-1.71-3.53-4.28S1127.67,212.42,1133,212.41Z"/><path d="M1091.36,278.65c-3.65.16-7.32.11-11,0-9.64-.22-8.1,1.81-8.42-8.41-.09-3,.72-4.17,3.88-4,4,.26,8,0,12,.09,2.23.07,3.29-.44,3.27-3s-.76-3.23-3.15-3.11c-3.32.17-6.69-.27-10,.11-4.68.55-6.35-.81-6.12-5.82.19-4,1-5.8,5.24-5.2a16.8,16.8,0,0,0,5.48-.12c4.1-.82,7.22-3.06,7.3-7.57.18-9.47.2-19,0-28.41-.12-4.83-3.17-7.74-8-7.84q-14-.27-28,0c-4.86.09-8.22,2.88-8.36,7.53-.3,9.62-.19,19.26.06,28.89.12,4.49,3.25,6.74,7.45,7.38a20,20,0,0,0,6,.11c5-.8,4.34,2.47,4.32,5.49s.74,6.17-4.3,5.55c-3.61-.44-7.31,0-11-.11-2.1-.05-3.37.21-3.41,2.87s1.08,3.42,3.54,3.24,4.66,0,7,0c8.33,0,8.17,0,8.21,8.1,0,3.26-1,4.36-4.24,4.2-4.81-.24-9.65.07-14.47-.11-2.87-.11-3.69.94-3.71,3.74,0,3.15,1.8,2.93,3.88,2.92,7.66,0,15.31,0,23,0,7.82,0,15.65,0,23.47,0,2.16,0,3.42-.34,3.39-2.94C1094.64,279.89,1094.14,278.54,1091.36,278.65Zm-14.82-67.43c5.94.1,5.14,3.45,5.27,7.12s.37,6.32-5.13,6.32c-6,0-4.66-3.42-4.66-7.15C1072.26,214.94,1070.35,211.12,1076.54,211.22Zm-4.51,26c0-3.77-1.08-8,4.84-6.75,1.63.34,4.39-1,4.68,1.27.45,3.49,1.61,7.56-.73,10.56-1.69,2.17-5.23,1.49-7.53.68C1070.49,242,1072.72,238.86,1072,237.23Zm-13.33,6.19c-6.17,0-4.79-3.8-5-7.26-.24-3.68-.07-5.89,5-5.9,6.1,0,4.38,3.72,4.6,6.8C1063.4,240.35,1064.21,243.44,1058.7,243.42Zm4.67-25.87c-.46,3.17,1.77,7.93-4.49,6.85-1.72-.3-4.6,1.38-5-1.44-.42-3.5-1.42-7.56.61-10.58,1.49-2.22,5.14-1.39,7.43-.67C1064.84,212.61,1062.56,215.77,1063.37,217.55Z"/><path d="M577.61,232c-.05-6.22-2.54-8.51-9-8.58-4.06,0-8.12,0-12.17,0l-.18-1.44c4.42-2.23,9.08-4.06,13-7.08,1.93-1.47,4.36-2.79,3.42-5.95s-3.47-3.56-6.33-3.55c-11.81.05-23.62,0-35.43,0-2.3,0-4.63-.57-4.51,3.29s2.54,2.76,4.47,2.78c9.51.06,19,0,28.55,0-3.12,2.69-6.7,6.1-10,4.47-4-2-7.56-.9-12.35-1.51l7.23,8.94h-8.69c-8.1,0-9.93,1.84-9.95,10,0,11.8.1,23.59-.07,35.38,0,3.25.49,4.64,4.24,4.7,4,.05,3.81-2,3.71-4.62-.09-2.32,0-4.65,0-7,.08-7.14-.86-6.26,6.44-6.31,7.45,0,7.45,0,7.45,7.25,0,1.49.07,3,0,4.48-.16,2.82-.29,4.92,3.91,5,4.49.07,4.26-2.28,4.16-5.24s0-5.65,0-8.47c0-1-.23-2.55.8-2.63,3.95-.29,8-.84,11.87-.09,2.94.57,1,4,1.45,6.06.81,4.32-1,6.25-5.43,5.53a18.7,18.7,0,0,0-3,0c1.12,6.25,1.35,6.4,8.91,5.89,4.93-.34,7.42-2.63,7.47-7.45Q577.77,248.94,577.61,232ZM542,249.68c-.66.06-1.32,0-2.37,0-1.66-1.16-5.58,2.3-6.09-2.71-.31-3.1.23-5.16,4.07-4.59,1.45.22,3,0,4.44.05,2.45.18,5.6-1.36,5.56,3.62S544.46,249.45,542,249.68Zm.53-13.3h-2c-1.32,0-2.65-.1-3.95,0-2.36.23-3.25-.72-3.09-3.09.15-2.1.16-4.07,3-4.1,2,0,4-.05,5.93,0,2.44.06,5.14-1,5.17,3.55S545,236.32,542.53,236.38Zm13-5c.06-.32-.07-.82.1-1,3.48-2.64,7.47-.82,11.22-1.19,2.48-.24,2.76,1.62,2.86,3.62.12,2.35-.34,3.84-3.17,3.52a38.66,38.66,0,0,0-4.44,0C558.64,236.35,554.23,237.63,555.49,231.42Zm8.88,18.27h-2c-1.48,0-3-.07-4.44,0-2.92.13-2.45-1.94-2.46-3.69s-.41-3.78,2.52-3.59c2.13.13,4.28-.09,6.41,0,2.31.14,5.25-1.27,5.36,3.36S567.06,249.66,564.37,249.69Z"/><path d="M880.36,238.18c-3.07-1.93-6.33-3.62-8.94-6.26,3.52-4.29,7-8.49,10.43-12.78a4,4,0,0,1,3.79-1.86c2.74.31,2.76-1.46,2.85-3.45.1-2.49-1.07-3.12-3.32-3.08-5.66.09-11.32,0-17,0-6.82,0-6.82,0-5.5-6.47-3.31.8-7.46-2.34-9.62,2.53a85.58,85.58,0,0,1-11.16,18.72,25.65,25.65,0,0,0,4,0c5.1-1,8.51,1.5,11.53,5.12.89,1.08,2,1.82.27,3.15-4.14,3.25-8.24,6.56-14,9.23,2.25-11.77-5.14-12.57-13.45-12.13,3.35-5.42,6.48-10.1,9.22-15,3.1-5.55.93-9.68-5.28-9.94-6.48-.28-13,0-19.47-.14-2.86-.06-3.18,1.39-3.24,3.72-.06,2.68,1.37,2.95,3.46,2.87a58.22,58.22,0,0,1,7,0c3.22.26,8.33-1.55,9.23.83,1.11,2.92-2.45,6.4-4.65,9.29-.17.22-.57.26-.87.38-4.09-7-4.09-7-11.39-6.05,1.2,5,5,8.72,6.64,13.93-2.77,0-5.09.1-7.4,0s-3.64.51-3.64,3.28.89,3.56,3.47,3.35c2.15-.18,4.35.17,6.49-.08,3.59-.43,4.92.64,4.8,4.55-.3,10-.1,19.94-.1,29.91,0,6.52,0,6.45-6.44,6.69-1.28,0-3.53-1-3.68,1.11-.14,1.84.42,4.22,2.21,5.3,6.21,3.72,15.66-1.53,15.71-8.7.07-11.8,0-23.61.06-35.41,0-1.25-.85-3.37,1.7-3.27,2.06.09,2,1.82,2.05,3.34,0,2.66.18,5.34,0,8-.24,2.85.83,3.72,3.64,3.61,2.58-.1,4.79,0,4.19-3.59s1.11-4.78,4.48-4.29c5.28.76,9.92-.64,13.51-4.61,2.41-2.68,4.32-2.39,7.09-.31,7.36,5.54,11.89,6.29,21,4.15C886.57,241.82,883.41,240.09,880.36,238.18Zm-19.24-15.09c-1.43-2.22-4-1-6.35-2.28,5-6.72,11.8-2.1,17.71-3.82-.49,2.84-2.29,4-3.34,5.57C866.71,226.28,864.08,227.65,861.12,223.09Z"/><path d="M816.5,437.58c-1-2.22-1.34-3.07,1.51-4.11,5.82-2.12,9.75-6.29,10.25-12.83.7-9.13-6.13-15.86-16.81-16.19-8.64-.28-17.3.06-25.94-.14-3.33-.07-3.76,1.45-3.75,4.21.08,19.43.16,38.86,0,58.29-.05,4,1.89,4,4.84,4.05s4.91,0,4.78-4.05c-.33-9.45-.14-18.92-.07-28.39,0-1.29-.76-2.93,1.52-3.58a12.83,12.83,0,0,1,15.44,6.85c3.28,7.07,6.47,14.18,9.7,21.27,3.76,8.26,3.76,8.26,13.86,7.53C826.55,459.18,821.62,448.33,816.5,437.58ZM802.26,427c-12.08,0-12,0-11.09-12,.16-2.11.74-2.92,2.9-2.87,5.48.11,11-.11,16.45.11,4.85.19,8.48,3.67,8.36,7.54s-3.71,7-8.65,7.23C807.57,427,804.91,427,802.26,427Z"/><path d="M1090,352.93c-.62-7.42,0-14.94-.12-22.42-.11-9.56-6.22-16.74-15.69-18.38a50.84,50.84,0,0,0-17.87.05,18.12,18.12,0,0,0-15.3,18.18c-.06,4.32,0,8.64,0,13,0,3.82,0,7.64,0,11.46,0,12.64,7.13,21.15,19.62,22.92C1078,380.17,1091.33,369.64,1090,352.93Zm-9.86,5.23c-.17,7.44-5.74,11.91-14.28,12-9.12.08-14.73-4.06-15.16-11.57-.28-5-.05-10-.05-15h0c0-4.82-.17-9.65,0-14.46.34-7.65,4.36-10,16.81-9.88,8.39,0,12.61,3.19,12.73,10C1080.29,338.88,1080.32,348.52,1080.09,358.16Z"/><path d="M773.15,423A18.2,18.2,0,0,0,757.63,405a54.37,54.37,0,0,0-17.91,0A18.16,18.16,0,0,0,724.28,423c-.06,4.32,0,8.64,0,13,0,4.48,0,9,0,13.46,0,7.22,3.11,12.78,8.9,16.91,8.91,6.37,23.83,6,32.33-.88a19.51,19.51,0,0,0,7.66-15.56C773.22,441,773.26,432,773.15,423Zm-9.68,27.64c-.25,7.21-5.33,11.92-13,12.28-9.82.46-16.08-3.37-16.47-11.08-.51-10.25-.15-20.54-.16-30.81a5.4,5.4,0,0,1,.15-1c1.3-6.53,6.43-8.67,19-8,6.34.36,10.21,3.85,10.42,9.71.17,4.8,0,9.62,0,14.42S763.63,445.85,763.47,450.65Z"/><path d="M599.45,330.45c-.1-9.34-6-16.59-15.17-18.26a50.58,50.58,0,0,0-18.36,0A18,18,0,0,0,550.68,330c-.2,9.13-.27,18.28,0,27.41.36,11.16,9.25,19.58,21.17,20.56,13.78,1.13,24.74-5.54,27.19-16.61a20.63,20.63,0,0,0,.37-4.45c.05-4.48,0-9,0-13.46C599.46,339.08,599.49,334.77,599.45,330.45ZM590,357.55c-.31,8.53-6.24,12.85-16.31,12.55-8.32-.24-13.29-5.15-13.4-13.33-.06-4.47,0-8.95,0-13.43h0c0-4.8,0-9.61,0-14.42s2.6-7.92,7.05-9a32.84,32.84,0,0,1,15.27-.05c4.77,1.07,7.33,4.53,7.41,9.37C590.15,338.66,590.31,348.11,590,357.55Z"/><path d="M972.8,373.68c-6.71-19.23-13.52-38.43-20.09-57.71-1.14-3.37-2.7-4.49-6.31-4.61-4-.14-5.08,1.75-6.14,4.86-6,17.55-12.17,35-18.27,52.56-1,2.92-2,5.84-3.08,8.88,9.54.82,9.54.82,12.36-7.3.38-1.09.75-2.19,1.13-3.28,3-8.8,3-8.8,12.55-8.8,12.5,0,12.5,0,16.54,11.61,3,8.49,3,8.49,12.52,7.87C973.54,376.17,973.23,374.9,972.8,373.68Zm-21.08-22.86c-14,1-14,1-9.62-11.78,1.32-3.88,2.7-7.75,4.43-12.72,2.74,7.84,5,14.53,7.41,21.19C954.72,349.71,954.44,350.64,951.72,350.82Z"/><path d="M554.38,469c-7.18-20.65-14.46-41.26-21.51-62-1.22-3.57-3.79-2.38-6.06-2.64-2.55-.29-4.31.3-5.24,3.16-2.59,8-5.46,16-8.25,23.95-4.52,12.95-9.07,25.9-13.64,38.94,9.68,1,9.68,1,12.6-7.52a32.43,32.43,0,0,0,1.7-5.19c.88-5.42,3.86-7.31,9.27-6.62,4.9.62,11.12-1.89,14.49.91s4.28,8.76,5.44,13.54c1.1,4.51,3.41,6,7.7,5.26a32.52,32.52,0,0,1,3.52-.23A5.64,5.64,0,0,0,554.38,469Zm-21.46-25.36c-3.49,0-7-.11-10.46,0-2.84.1-3.44-.8-2.44-3.51,2.42-6.51,4.57-13.11,7.33-21.12,2.86,8.35,5.15,15.21,7.58,22C535.73,443.24,534.8,443.63,532.92,443.61Z"/><path d="M1179.89,255.33c0-4-2.25-6.31-6.14-6.38-9.81-.18-19.62-.24-29.42,0-4.18.1-6.74,2.58-6.77,7,0,4.15-.13,8.31,0,12.45.2,4.52,2.61,7,7.3,7h14v0c4.82,0,9.65.12,14.46,0,4.12-.14,6.47-2.37,6.55-6.59C1180,264.3,1179.94,259.82,1179.89,255.33ZM1168.39,269q-9.69-.09-19.39,0c-2.52,0-3.39-1-3.54-3.58-.61-9.95-.69-9.95,9-9.95H1159c1.16,0,2.32,0,3.48,0,10.6.28,9.27-2.36,9.44,10C1171.92,268,1170.88,269,1168.39,269Z"/><path d="M633.29,263.73c-.25-5.4-3.45-8.32-8.95-8.48-1.66-.05-3.32,0-5,0-13.74,0-14.26.52-14.25,14.24,0,2-.06,4,0,6,.25,6.68,2.75,9.25,9.47,9.42a108.61,108.61,0,0,0,11.41-.31c4.74-.38,7.07-3.37,7.27-7.91Q633.57,270.19,633.29,263.73Zm-8.07,11.83c0,2.1-1.1,3-3.14,2.87a19.6,19.6,0,0,0-4,0c-4.17.66-5.33-1.37-4.86-5.1a28.67,28.67,0,0,0,0-3.47v-2c0-5.74,5.45-8.94,10.49-6.19a3,3,0,0,1,1.47,2.92C625.23,268.27,625.22,271.92,625.22,275.56Z"/><path d="M160.84,492.81a84.35,84.35,0,0,1-8.67-3.4c-4.46-2.07.68,1.35.68,1.35s8.94,3.55,9.63,3.76S160.84,492.81,160.84,492.81Z"/></g></g></svg>