<svg xmlns="http://www.w3.org/2000/svg" viewBox="0 0 56.21 41.32"><g id="Layer_2" data-name="Layer 2"><g id="Layer_1-2" data-name="Layer 1"><path d="M48.82,41.32H7.4a7.4,7.4,0,0,1-5.8-12L22.81,2.56a6.76,6.76,0,0,1,10.59,0L54.61,29.34a7.39,7.39,0,0,1-5.79,12ZM26.16,5.21,5,32a3.12,3.12,0,0,0,2.45,5H48.82a3.12,3.12,0,0,0,2.44-5L30.05,5.21a2.48,2.48,0,0,0-3.89,0Z"/><path d="M26.69,29.29a1.92,1.92,0,0,1-.41-.05,1.71,1.71,0,0,1-1.21-1.12l-2-6a1.48,1.48,0,1,1,2.81-.92l1.35,4.1,8.62-8.44a1.48,1.48,0,1,1,2.07,2.11L27.87,28.8A1.67,1.67,0,0,1,26.69,29.29Z"/><path d="M28.11,36.41a12.46,12.46,0,0,1-8.82-21.29,12.2,12.2,0,0,1,4-2.67,12.58,12.58,0,0,1,8.83-.34A1.48,1.48,0,0,1,31.61,15a1.55,1.55,0,0,1-.47-.08,9.38,9.38,0,0,0-3-.49,9.51,9.51,0,1,0,9.51,9.51,1.48,1.48,0,1,1,3,0,12.36,12.36,0,0,1-1,4.85A12.45,12.45,0,0,1,33,35.43,12.4,12.4,0,0,1,28.11,36.41Z"/></g></g></svg>