<svg xmlns="http://www.w3.org/2000/svg" viewBox="0 0 44.26 44.97"><g id="Layer_2" data-name="Layer 2"><g id="Layer_1-2" data-name="Layer 1"><g id="Layer_2-2" data-name="Layer 2"><g id="Layer_1-2-2" data-name="Layer 1-2"><path d="M22.49,41.73A19.26,19.26,0,0,1,3.24,22.49a20.48,20.48,0,0,1,.17-2.59l17.36-4.29v6.88l20.35-4.84,3.14-.74a22.48,22.48,0,1,0-.54,12.94H40.27A19.24,19.24,0,0,1,22.49,41.73Zm0-38.49A19.27,19.27,0,0,1,40.07,14.66l-16.18,4V11.73L4.2,16.47A19.28,19.28,0,0,1,22.49,3.24Z"/><rect x="10.39" y="23.87" width="23.94" height="3.72"/><polygon points="24.61 39.35 24.61 33.57 34.33 33.57 34.33 29.85 10.39 29.85 10.39 33.57 20.03 33.57 20.03 39.35 24.61 39.35"/></g></g></g></g></svg>