<svg id="Board_Back" data-name="Board Back" xmlns="http://www.w3.org/2000/svg" viewBox="0 0 720 720"><defs><style>.cls-1{fill:#0e1115;}.cls-2{fill:#c2d1d6;}.cls-3{fill:#caa167;}.cls-4{fill:#fff;}.cls-5{fill:#896733;}.cls-6,.cls-7{fill:#e8ba54;}.cls-7{opacity:0.51;}.cls-8{fill:#586571;}.cls-9{fill:#948a88;}.cls-10{fill:#7c5e3b;}.cls-11{fill:#7f6540;}.cls-12{fill:#cbc9be;}.cls-13{fill:#1d1e23;}.cls-14{fill:#97a2ac;}.cls-15{fill:#36312f;}.cls-16{fill:#9b9673;}.cls-17{fill:#eaf1ea;}.cls-18{fill:#32343a;}.cls-19{fill:#c8d0b8;}.cls-20{fill:#263039;}.cls-21{fill:#9c9f9e;}.cls-22{fill:#3b323f;}.cls-23{fill:#c1beb6;}.cls-24{fill:#898893;}.cls-25{fill:#c3beb2;}.cls-26{fill:#f2f4f2;}.cls-27{fill:#7f8179;}.cls-28{fill:#283131;}.cls-29{fill:#0075cf;}.cls-30,.cls-31,.cls-32{fill:none;stroke-miterlimit:10;}.cls-30{stroke:#0075cf;}.cls-31{stroke:#cbc9be;stroke-width:0.5px;}.cls-32{stroke:#283131;}.cls-33{fill:#ff0;}</style></defs><path class="cls-1" d="M168.12,484.28a3.34,3.34,0,0,1,1.45-.33c.62,0,2.49-.06,3.13-.08,0-.5-.09-1.45-.09-2.06s0-2.24-.1-4.88v-.16a2.45,2.45,0,0,0-2.32-2.57c-1.81-.19-2.24.83-2.27.87a9.5,9.5,0,0,0-.68,3.86c0,.21,0,.43,0,.64A26,26,0,0,0,168.12,484.28Z"/><path class="cls-1" d="M166.33,487.3a3.68,3.68,0,0,1,.28-1.26,4,4,0,0,1,.8-1.3,23.88,23.88,0,0,1-1-4.94c0-.31,0-.64,0-1a11.54,11.54,0,0,1,.48-3.47,6,6,0,0,0-.53-.6,2.72,2.72,0,0,0-1.34-.68,2.87,2.87,0,0,0-2.07.29c-.6.31-.92,1.12-.92,2.4,0,.17,0,.35,0,.54s0,.52,0,.82a12,12,0,0,0,.78,4.2A14.57,14.57,0,0,0,166.33,487.3Z"/><path class="cls-1" d="M166.26,493a4.41,4.41,0,0,1,.3-1.76,4.14,4.14,0,0,1,1-1.26,3.7,3.7,0,0,1-.56-.48,2.88,2.88,0,0,1-.53-.93c-.19-.17-1.21-1.08-2.06-2a13.62,13.62,0,0,1-2.86-5.09,12.28,12.28,0,0,1-.47-3.64,17.31,17.31,0,0,1,.1-1.91,3.22,3.22,0,0,0-2.4-1.44c-1.94,0-2.42.78-2.58,4a15.45,15.45,0,0,0,3.63,10.12,16.69,16.69,0,0,0,6.43,4.45S166.26,493,166.26,493Z"/><path class="cls-1" d="M173.41,479.6c.48,0,1.44-.09,2.06-.09s3.19-.05,4.52-.08h.53a2.46,2.46,0,0,0,2.56-2.33c0-.14,0-.29,0-.42,0-1.45-.86-1.82-.9-1.83a10.11,10.11,0,0,0-4.5-.68A25.73,25.73,0,0,0,173,475a3.26,3.26,0,0,1,.34,1.46C173.33,476.77,173.36,477.55,173.41,479.6Z"/><path class="cls-1" d="M181.91,473.79a4.69,4.69,0,0,0,.61-.53,2.71,2.71,0,0,0,.67-1.34,3.37,3.37,0,0,0,.07-.69,3,3,0,0,0-.36-1.37c-.32-.6-1.12-.91-2.4-.91a4.35,4.35,0,0,1-.49,0H180a12.28,12.28,0,0,0-5,.76,14.68,14.68,0,0,0-4.95,3.55,3.57,3.57,0,0,1,1.26.27,3.83,3.83,0,0,1,1.3.8,24.35,24.35,0,0,1,4.94-1A12.77,12.77,0,0,1,181.91,473.79Z"/><path class="cls-1" d="M181.37,468.09a3.2,3.2,0,0,0,1.43-2.37c0-2-.77-2.46-4-2.62a15.38,15.38,0,0,0-10.12,3.63,16.81,16.81,0,0,0-4.45,6.43,4.54,4.54,0,0,1,1.78.3,4.45,4.45,0,0,1,1.27,1,3.38,3.38,0,0,1,.48-.57,2.69,2.69,0,0,1,.93-.53c.23-.25,1.11-1.23,2-2.06a13.9,13.9,0,0,1,5.09-2.86A15.2,15.2,0,0,1,181.37,468.09Z"/><path class="cls-1" d="M177.71,480.28c0,.51.08,1.46.08,2.06,0,.78.06,3.49.09,4.8v.26A2.45,2.45,0,0,0,180.2,490c1.82.19,2.27-.85,2.27-.87a10.23,10.23,0,0,0,.67-4.5,25,25,0,0,0-.85-4.73,3.3,3.3,0,0,1-1.46.34c-.56,0-2.19.06-3,.07Z"/><path class="cls-1" d="M183.52,488.78a4.61,4.61,0,0,0,.53.6,2.65,2.65,0,0,0,1.33.68,2.94,2.94,0,0,0,2.06-.29c.61-.33.92-1.12.92-2.4,0-.16,0-.34,0-.54s0-.52,0-.82a12.07,12.07,0,0,0-.79-4.21,14.68,14.68,0,0,0-3.54-4.95,3.46,3.46,0,0,1-.28,1.26,4,4,0,0,1-.79,1.31,24.24,24.24,0,0,1,1,4.94c0,.32,0,.65,0,1A12.08,12.08,0,0,1,183.52,488.78Z"/><path class="cls-1" d="M189.23,488.24a3.27,3.27,0,0,0,2.39,1.43c1.94,0,2.43-.77,2.58-4a15.54,15.54,0,0,0-3.62-10.12,16.7,16.7,0,0,0-6.44-4.44v0a4.36,4.36,0,0,1-.3,1.76,4.09,4.09,0,0,1-1,1.26,3.51,3.51,0,0,1,.56.49,2.83,2.83,0,0,1,.54.92c.31.28,1.26,1.15,2.06,2a13.84,13.84,0,0,1,2.85,5.08,12.33,12.33,0,0,1,.47,3.64A19,19,0,0,1,189.23,488.24Z"/><path class="cls-1" d="M167.33,487.5c0,1.45.86,1.82.9,1.83a10.11,10.11,0,0,0,4.5.68,25.27,25.27,0,0,0,4.72-.86,3.47,3.47,0,0,1-.33-1.46c0-.29,0-1.06-.07-3.12-.4,0-1.43.09-2.07.09s-2.24,0-4.89.09h-.17a2.46,2.46,0,0,0-2.56,2.33A1.93,1.93,0,0,0,167.33,487.5Z"/><path class="cls-1" d="M167.18,492.94a3,3,0,0,0,.36,1.37c.32.6,1.13.91,2.4.91l.54,0a12.12,12.12,0,0,0,5-.76,14.71,14.71,0,0,0,4.95-3.54,3.81,3.81,0,0,1-1.25-.28,3.62,3.62,0,0,1-1.3-.8,23.72,23.72,0,0,1-4.94,1,12.62,12.62,0,0,1-4.43-.45,4.69,4.69,0,0,0-.61.53,2.63,2.63,0,0,0-.67,1.34A3.44,3.44,0,0,0,167.18,492.94Z"/><path class="cls-1" d="M167.63,498.49c0,1.94.78,2.42,4,2.58a15.38,15.38,0,0,0,10.12-3.63,16.69,16.69,0,0,0,4.45-6.43,4.53,4.53,0,0,1-1.78-.3,4.19,4.19,0,0,1-1.27-1,3.09,3.09,0,0,1-.48.57,2.79,2.79,0,0,1-.93.53c-.28.31-1.14,1.27-2,2.06a13.62,13.62,0,0,1-5.09,2.86,15.16,15.16,0,0,1-5.54.37,3.23,3.23,0,0,0-1.43,2.37v0Z"/><path class="cls-1" d="M196.54,494.43a4.05,4.05,0,0,1,.28-1.56,3.57,3.57,0,0,1,.76-1.19,3.46,3.46,0,0,1,1.13-.76,3.63,3.63,0,0,1,1.37-.26,3.86,3.86,0,0,1,2,.48,3,3,0,0,1,1.26,1.55h0a2.08,2.08,0,0,1,.45-.86,2.4,2.4,0,0,1,.7-.56,3,3,0,0,1,.89-.31,6.67,6.67,0,0,1,1-.14l.72,0,.85-.07a5.06,5.06,0,0,0,.81-.14,2,2,0,0,0,.66-.3v2.83a4.9,4.9,0,0,1-1.46.29c-.56,0-1.1.08-1.62.16a2.48,2.48,0,0,0-1.47.61,2.12,2.12,0,0,0-.47,1.53v2.83h5v2.83H196.54Zm5.82,1a2.14,2.14,0,0,0-.44-1.46,1.76,1.76,0,0,0-1.4-.49,1.72,1.72,0,0,0-1.36.49,2.19,2.19,0,0,0-.42,1.46v3.1h3.62Z"/><path class="cls-1" d="M196.54,482.26l12.86-4.81v2.94l-2.87,1v4.81l2.87,1V490l-12.86-4.86Zm7.89-.16-4.72,1.62v0l4.72,1.67Z"/><path class="cls-1" d="M196.54,474h5.33l-5.33-5v-3.53l5.07,5,7.78-5.51v3.55l-5.78,3.87,1.64,1.62h4.14v2.84H196.54Z"/><rect class="cls-2" x="-73.15" y="252.03" width="510.87" height="253.69" transform="translate(-196.6 561.16) rotate(-90)"/><g id="Side_Circle" data-name="Side Circle"><circle class="cls-3" cx="276.89" cy="599.38" r="20.91"/><circle class="cls-4" cx="276.54" cy="599.38" r="10.45"/></g><g id="Side_Circle-2" data-name="Side Circle"><circle class="cls-3" cx="88.37" cy="599.38" r="20.91"/><circle class="cls-4" cx="88.02" cy="599.38" r="10.45"/></g><g id="Side_Circle-3" data-name="Side Circle"><circle class="cls-3" cx="88.37" cy="155.76" r="20.91"/><circle class="cls-4" cx="88.02" cy="155.76" r="10.45"/></g><rect class="cls-5" x="228.8" y="56.45" width="75.97" height="45.3" rx="6.67" transform="translate(187.69 345.88) rotate(-90)"/><rect class="cls-6" x="260.69" y="89.38" width="13.24" height="55.41" transform="translate(150.23 384.39) rotate(-90)"/><rect class="cls-5" x="264.65" y="59.67" width="4.18" height="52.27" rx="2" transform="translate(180.94 352.55) rotate(-90)"/><rect class="cls-5" x="264.65" y="54.44" width="4.18" height="52.27" rx="2" transform="translate(186.17 347.32) rotate(-90)"/><rect class="cls-5" x="264.65" y="49.21" width="4.18" height="52.27" rx="2" transform="translate(191.39 342.09) rotate(-90)"/><rect class="cls-5" x="264.65" y="43.99" width="4.18" height="52.27" rx="2" transform="translate(196.62 336.87) rotate(-90)"/><rect class="cls-5" x="264.65" y="38.76" width="4.18" height="52.27" rx="2" transform="translate(201.85 331.64) rotate(-90)"/><rect class="cls-5" x="264.65" y="33.53" width="4.18" height="52.27" rx="2" transform="translate(207.07 326.41) rotate(-90)"/><rect class="cls-5" x="264.65" y="28.31" width="4.18" height="52.27" rx="2" transform="translate(212.3 321.19) rotate(-90)"/><path class="cls-7" d="M273.58,128.58h25.79v43.21H281.08v-21.6s-.35-5.58-7.5-4.18C273.41,131.37,273.58,128.58,273.58,128.58Z"/><path class="cls-7" d="M258.73,128.58H233v43.21h18.29v-21.6s.35-5.58,7.49-4.18C258.91,131.37,258.73,128.58,258.73,128.58Z"/><rect class="cls-6" x="270.75" y="134.72" width="33.8" height="7.58" transform="translate(149.14 426.17) rotate(-90)"/><rect class="cls-6" x="228.98" y="134.72" width="33.8" height="7.58" transform="translate(107.37 384.39) rotate(-90)"/><rect class="cls-7" x="244.08" y="51.31" width="45.29" height="1.05" rx="0.45" transform="translate(533.45 103.66) rotate(-180)"/><rect class="cls-7" x="244.08" y="56.53" width="45.29" height="1.05" rx="0.45" transform="translate(533.45 114.11) rotate(-180)"/><rect class="cls-7" x="244.08" y="61.76" width="45.29" height="1.05" rx="0.45" transform="translate(533.45 124.57) rotate(-180)"/><rect class="cls-7" x="244.08" y="66.99" width="45.29" height="1.05" rx="0.45" transform="translate(533.45 135.02) rotate(-180)"/><rect class="cls-7" x="244.08" y="72.21" width="45.29" height="1.05" rx="0.45" transform="translate(533.45 145.47) rotate(-180)"/><rect class="cls-7" x="244.08" y="77.44" width="45.29" height="1.05" rx="0.45" transform="translate(533.45 155.93) rotate(-180)"/><rect class="cls-7" x="244.08" y="82.67" width="45.29" height="1.05" rx="0.45" transform="translate(533.45 166.38) rotate(-180)"/><rect class="cls-7" x="244.08" y="87.9" width="45.29" height="1.05" rx="0.45" transform="translate(533.45 176.84) rotate(-180)"/><rect class="cls-5" x="124.19" y="56.45" width="75.97" height="45.3" rx="6.67" transform="translate(83.08 241.27) rotate(-90)"/><path class="cls-7" d="M169,128.58h25.79v43.21h-18.3v-21.6s-.35-5.58-7.49-4.18C168.8,131.37,169,128.58,169,128.58Z"/><path class="cls-7" d="M154.12,128.58H128.33v43.21h18.3v-21.6s.35-5.58,7.49-4.18C154.3,131.37,154.12,128.58,154.12,128.58Z"/><rect class="cls-6" x="156.08" y="89.38" width="13.24" height="55.41" transform="translate(45.62 279.78) rotate(-90)"/><rect class="cls-5" x="160.04" y="59.67" width="4.18" height="52.27" rx="2" transform="translate(76.33 247.94) rotate(-90)"/><rect class="cls-5" x="160.04" y="54.44" width="4.18" height="52.27" rx="2" transform="translate(81.55 242.71) rotate(-90)"/><rect class="cls-5" x="160.04" y="49.21" width="4.18" height="52.27" rx="2" transform="translate(86.78 237.48) rotate(-90)"/><rect class="cls-5" x="160.04" y="43.99" width="4.18" height="52.27" rx="2" transform="translate(92.01 232.25) rotate(-90)"/><rect class="cls-5" x="160.04" y="38.76" width="4.18" height="52.27" rx="2" transform="translate(97.23 227.03) rotate(-90)"/><rect class="cls-5" x="160.04" y="33.53" width="4.18" height="52.27" rx="2" transform="translate(102.46 221.8) rotate(-90)"/><rect class="cls-5" x="160.04" y="28.31" width="4.18" height="52.27" rx="2" transform="translate(107.69 216.57) rotate(-90)"/><rect class="cls-7" x="139.53" y="51.31" width="45.29" height="1.05" rx="0.45" transform="translate(324.35 103.66) rotate(-180)"/><rect class="cls-7" x="139.53" y="56.53" width="45.29" height="1.05" rx="0.45" transform="translate(324.35 114.11) rotate(-180)"/><rect class="cls-7" x="139.53" y="61.76" width="45.29" height="1.05" rx="0.45" transform="translate(324.35 124.57) rotate(-180)"/><rect class="cls-7" x="139.53" y="66.99" width="45.29" height="1.05" rx="0.45" transform="translate(324.35 135.02) rotate(-180)"/><rect class="cls-7" x="139.53" y="72.21" width="45.29" height="1.05" rx="0.45" transform="translate(324.35 145.47) rotate(-180)"/><rect class="cls-7" x="139.53" y="77.44" width="45.29" height="1.05" rx="0.45" transform="translate(324.35 155.93) rotate(-180)"/><rect class="cls-7" x="139.53" y="82.67" width="45.29" height="1.05" rx="0.45" transform="translate(324.35 166.38) rotate(-180)"/><rect class="cls-7" x="139.53" y="87.9" width="45.29" height="1.05" rx="0.45" transform="translate(324.35 176.84) rotate(-180)"/><rect class="cls-6" x="166.14" y="134.72" width="33.8" height="7.58" transform="translate(44.53 321.55) rotate(-90)"/><rect class="cls-6" x="124.36" y="134.72" width="33.8" height="7.58" transform="translate(2.75 279.78) rotate(-90)"/><rect class="cls-8" x="195.74" y="534.97" width="4.25" height="12.2" rx="1.26" transform="translate(395.73 1082.13) rotate(-180)"/><rect class="cls-9" x="195.74" y="536.88" width="4.25" height="7.67" rx="1.26" transform="translate(395.73 1081.44) rotate(-180)"/><rect class="cls-10" x="195.65" y="538.63" width="4.33" height="4.33" transform="translate(395.64 1081.59) rotate(-180)"/><rect class="cls-8" x="212.92" y="548.27" width="4.25" height="12.2" rx="1.26" transform="translate(-339.33 769.42) rotate(-90)"/><rect class="cls-9" x="213.27" y="550.54" width="4.25" height="7.67" rx="1.26" transform="translate(-338.98 769.76) rotate(-90)"/><rect class="cls-10" x="213.15" y="552.16" width="4.33" height="4.33" transform="translate(-339.01 769.64) rotate(-90)"/><rect class="cls-8" x="235.88" y="456.29" width="4.25" height="12.2" rx="1.26" transform="translate(-224.39 700.39) rotate(-90)"/><rect class="cls-9" x="236.23" y="458.55" width="4.25" height="7.67" rx="1.26" transform="translate(-224.04 700.74) rotate(-90)"/><rect class="cls-10" x="236.11" y="460.18" width="4.33" height="4.33" transform="translate(-224.07 700.62) rotate(-90)"/><rect class="cls-8" x="235.88" y="446.09" width="4.25" height="12.2" rx="1.26" transform="translate(-214.19 690.19) rotate(-90)"/><rect class="cls-9" x="236.23" y="448.36" width="4.25" height="7.67" rx="1.26" transform="translate(-213.84 690.54) rotate(-90)"/><rect class="cls-10" x="236.11" y="449.98" width="4.33" height="4.33" transform="translate(-213.87 690.42) rotate(-90)"/><rect class="cls-8" x="193.11" y="418.17" width="4.25" height="12.2" rx="1.26" transform="translate(-229.03 619.51) rotate(-90)"/><rect class="cls-9" x="193.46" y="420.43" width="4.25" height="7.67" rx="1.26" transform="translate(-228.68 619.85) rotate(-90)"/><rect class="cls-10" x="193.34" y="422.06" width="4.33" height="4.33" transform="translate(-228.71 619.73) rotate(-90)"/><rect class="cls-8" x="193.11" y="408.55" width="4.25" height="12.2" rx="1.26" transform="translate(-219.41 609.88) rotate(-90)"/><rect class="cls-9" x="193.46" y="410.81" width="4.25" height="7.67" rx="1.26" transform="translate(-219.06 610.23) rotate(-90)"/><rect class="cls-10" x="193.34" y="412.43" width="4.33" height="4.33" transform="translate(-219.09 610.11) rotate(-90)"/><rect class="cls-8" x="120.34" y="362.03" width="4.25" height="12.2" rx="1.26" transform="translate(-245.66 490.59) rotate(-90)"/><rect class="cls-9" x="120.69" y="364.3" width="4.25" height="7.67" rx="1.26" transform="translate(-245.32 490.94) rotate(-90)"/><rect class="cls-10" x="120.57" y="365.92" width="4.33" height="4.33" transform="translate(-245.35 490.82) rotate(-90)"/><rect class="cls-8" x="214.12" y="326.32" width="4.25" height="12.2" rx="1.26" transform="translate(-116.17 548.66) rotate(-90)"/><rect class="cls-9" x="214.47" y="328.58" width="4.25" height="7.67" rx="1.26" transform="translate(-115.82 549.01) rotate(-90)"/><rect class="cls-10" x="214.35" y="330.21" width="4.33" height="4.33" transform="translate(-115.86 548.89) rotate(-90)"/><rect class="cls-8" x="130.62" y="306.66" width="4.25" height="12.2" rx="1.26" transform="translate(-180.02 445.51) rotate(-90)"/><rect class="cls-9" x="130.97" y="308.93" width="4.25" height="7.67" rx="1.26" transform="translate(-179.67 445.86) rotate(-90)"/><rect class="cls-10" x="130.85" y="310.55" width="4.33" height="4.33" transform="translate(-179.7 445.74) rotate(-90)"/><rect class="cls-8" x="206.91" y="376.27" width="4.25" height="12.2" rx="1.26" transform="translate(418.07 764.73) rotate(-180)"/><rect class="cls-9" x="206.91" y="378.18" width="4.25" height="7.67" rx="1.26" transform="translate(418.07 764.04) rotate(-180)"/><rect class="cls-10" x="206.82" y="379.93" width="4.33" height="4.33" transform="translate(417.98 764.19) rotate(-180)"/><circle class="cls-4" cx="291.65" cy="245.26" r="6.97"/><rect class="cls-11" x="289.64" y="239.87" width="4.01" height="4.01"/><circle class="cls-4" cx="291.65" cy="266.49" r="6.97"/><rect class="cls-11" x="289.64" y="261.1" width="4.01" height="4.01"/><circle class="cls-4" cx="291.65" cy="287.72" r="6.97"/><rect class="cls-11" x="289.64" y="282.33" width="4.01" height="4.01"/><circle class="cls-4" cx="291.65" cy="308.95" r="6.97"/><rect class="cls-11" x="289.64" y="303.55" width="4.01" height="4.01"/><circle class="cls-4" cx="291.65" cy="330.18" r="6.97"/><rect class="cls-11" x="289.64" y="324.78" width="4.01" height="4.01"/><circle class="cls-4" cx="291.65" cy="351.4" r="6.97"/><rect class="cls-11" x="289.64" y="346.01" width="4.01" height="4.01"/><circle class="cls-4" cx="291.65" cy="372.63" r="6.97"/><rect class="cls-11" x="289.64" y="367.24" width="4.01" height="4.01"/><circle class="cls-4" cx="291.65" cy="393.86" r="6.97"/><rect class="cls-11" x="289.64" y="388.46" width="4.01" height="4.01"/><circle class="cls-4" cx="291.65" cy="415.09" r="6.97"/><rect class="cls-11" x="289.64" y="409.69" width="4.01" height="4.01"/><circle class="cls-4" cx="291.65" cy="436.31" r="6.97"/><rect class="cls-11" x="289.64" y="430.92" width="4.01" height="4.01"/><circle class="cls-4" cx="291.65" cy="457.54" r="6.97"/><rect class="cls-11" x="289.64" y="452.15" width="4.01" height="4.01"/><circle class="cls-4" cx="291.65" cy="478.77" r="6.97"/><rect class="cls-11" x="289.64" y="473.38" width="4.01" height="4.01"/><circle class="cls-4" cx="291.65" cy="500" r="6.97"/><rect class="cls-11" x="289.64" y="494.6" width="4.01" height="4.01"/><circle class="cls-4" cx="291.65" cy="521.22" r="6.97"/><rect class="cls-11" x="289.64" y="515.83" width="4.01" height="4.01"/><circle class="cls-4" cx="291.65" cy="542.45" r="6.97"/><rect class="cls-11" x="289.64" y="537.06" width="4.01" height="4.01"/><circle class="cls-4" cx="266.51" cy="245.26" r="6.97"/><rect class="cls-11" x="264.51" y="239.87" width="4.01" height="4.01"/><circle class="cls-4" cx="266.51" cy="266.49" r="6.97"/><rect class="cls-11" x="264.51" y="261.1" width="4.01" height="4.01"/><circle class="cls-4" cx="266.51" cy="287.72" r="6.97"/><rect class="cls-11" x="264.51" y="282.33" width="4.01" height="4.01"/><circle class="cls-4" cx="266.51" cy="308.95" r="6.97"/><rect class="cls-11" x="264.51" y="303.55" width="4.01" height="4.01"/><circle class="cls-4" cx="266.51" cy="330.18" r="6.97"/><rect class="cls-11" x="264.51" y="324.78" width="4.01" height="4.01"/><circle class="cls-4" cx="266.51" cy="351.4" r="6.97"/><rect class="cls-11" x="264.51" y="346.01" width="4.01" height="4.01"/><circle class="cls-4" cx="266.51" cy="372.63" r="6.97"/><rect class="cls-11" x="264.51" y="367.24" width="4.01" height="4.01"/><circle class="cls-4" cx="266.51" cy="393.86" r="6.97"/><rect class="cls-11" x="264.51" y="388.46" width="4.01" height="4.01"/><circle class="cls-4" cx="266.51" cy="415.09" r="6.97"/><rect class="cls-11" x="264.51" y="409.69" width="4.01" height="4.01"/><circle class="cls-4" cx="266.51" cy="436.31" r="6.97"/><rect class="cls-11" x="264.51" y="430.92" width="4.01" height="4.01"/><circle class="cls-4" cx="266.51" cy="457.54" r="6.97"/><rect class="cls-11" x="264.51" y="452.15" width="4.01" height="4.01"/><circle class="cls-4" cx="266.51" cy="478.77" r="6.97"/><rect class="cls-11" x="264.51" y="473.38" width="4.01" height="4.01"/><circle class="cls-4" cx="266.51" cy="500" r="6.97"/><rect class="cls-11" x="264.51" y="494.6" width="4.01" height="4.01"/><circle class="cls-4" cx="266.51" cy="521.22" r="6.97"/><rect class="cls-11" x="264.51" y="515.83" width="4.01" height="4.01"/><rect class="cls-4" x="259.58" y="535.48" width="13.88" height="13.94"/><rect class="cls-11" x="264.51" y="537.06" width="4.01" height="4.01"/><rect class="cls-3" x="177.09" y="605.81" width="9.23" height="16.43" rx="4.61"/><rect class="cls-12" x="177.09" y="608.18" width="9.23" height="12.11" rx="4.61"/><rect class="cls-3" x="238.98" y="605.81" width="9.23" height="16.43" rx="4.61"/><rect class="cls-12" x="238.98" y="608.18" width="9.23" height="12.11" rx="4.61"/><circle class="cls-3" cx="191.83" cy="591.07" r="5.51"/><circle class="cls-12" cx="192.14" cy="590.76" r="3.52"/><circle class="cls-3" cx="233.47" cy="591.07" r="5.51"/><circle class="cls-12" cx="232.99" cy="590.76" r="3.52"/><rect class="cls-13" x="125.66" y="609.83" width="4.16" height="6.9"/><rect class="cls-14" x="124.98" y="606.6" width="5.51" height="4.39"/><rect class="cls-14" x="124.98" y="615.38" width="5.51" height="4.16"/><rect class="cls-13" x="120.1" y="464.4" width="4.16" height="6.9" transform="translate(590.03 345.66) rotate(90)"/><rect class="cls-14" x="123.91" y="465.65" width="5.51" height="4.39" transform="translate(594.51 341.17) rotate(90)"/><rect class="cls-14" x="115.25" y="465.76" width="5.51" height="4.16" transform="translate(585.85 349.84) rotate(90)"/><rect class="cls-13" x="120.1" y="455.46" width="4.16" height="6.9" transform="translate(581.1 336.73) rotate(90)"/><rect class="cls-14" x="123.91" y="456.72" width="5.51" height="4.39" transform="translate(585.58 332.24) rotate(90)"/><rect class="cls-14" x="115.25" y="456.83" width="5.51" height="4.16" transform="translate(576.92 340.91) rotate(90)"/><rect class="cls-13" x="236.06" y="438.84" width="4.16" height="6.9" transform="translate(680.43 204.15) rotate(90)"/><rect class="cls-14" x="239.87" y="440.1" width="5.51" height="4.39" transform="translate(684.92 199.66) rotate(90)"/><rect class="cls-14" x="231.2" y="440.21" width="5.51" height="4.16" transform="translate(676.25 208.33) rotate(90)"/><rect class="cls-13" x="216.6" y="437.74" width="4.16" height="6.9" transform="translate(437.37 882.38) rotate(180)"/><rect class="cls-14" x="215.93" y="443.48" width="5.51" height="4.39" transform="translate(437.37 891.35) rotate(180)"/><rect class="cls-14" x="215.93" y="434.93" width="5.51" height="4.16" transform="translate(437.37 874.02) rotate(180)"/><rect class="cls-13" x="177.74" y="452.86" width="4.16" height="6.9" transform="translate(359.65 912.61) rotate(180)"/><rect class="cls-14" x="177.07" y="458.6" width="5.51" height="4.39" transform="translate(359.65 921.58) rotate(180)"/><rect class="cls-14" x="177.07" y="450.04" width="5.51" height="4.16" transform="translate(359.65 904.25) rotate(180)"/><rect class="cls-13" x="140.68" y="609.83" width="4.16" height="6.9"/><rect class="cls-14" x="140.01" y="606.6" width="5.51" height="4.39"/><rect class="cls-14" x="140.01" y="615.38" width="5.51" height="4.16"/><rect class="cls-13" x="155.54" y="609.83" width="4.16" height="6.9"/><rect class="cls-14" x="154.86" y="606.6" width="5.51" height="4.39"/><rect class="cls-14" x="154.86" y="615.38" width="5.51" height="4.16"/><rect class="cls-14" x="153.79" y="575.09" width="12.77" height="12.77"/><rect class="cls-12" x="157.62" y="580.6" width="4.5" height="3.83"/><circle class="cls-14" cx="138.68" cy="581.7" r="6.16"/><circle class="cls-12" cx="138.77" cy="581.79" r="3.54"/><rect class="cls-14" x="66.59" y="541.6" width="10.9" height="10.9" transform="translate(619.1 475.01) rotate(90)"/><rect class="cls-12" x="69.23" y="545.16" width="3.84" height="3.27" transform="translate(617.94 475.64) rotate(90)"/><circle class="cls-14" cx="71.85" cy="528.71" r="5.26"/><circle class="cls-12" cx="71.78" cy="528.78" r="3.03"/><rect class="cls-14" x="69.11" y="465.76" width="7.97" height="7.97" transform="translate(-396.64 542.84) rotate(-90)"/><rect class="cls-12" x="72.34" y="468.74" width="2.81" height="2.39" transform="translate(-396.19 543.68) rotate(-90)"/><circle class="cls-14" cx="73.24" cy="483.16" r="3.85"/><circle class="cls-12" cx="73.29" cy="483.1" r="2.21"/><rect class="cls-14" x="85.81" y="382.97" width="13.4" height="13.4" transform="translate(-297.16 482.18) rotate(-90)"/><rect class="cls-12" x="91.24" y="387.99" width="4.72" height="4.01" transform="translate(-296.39 483.59) rotate(-90)"/><circle class="cls-14" cx="92.74" cy="412.22" r="6.47"/><circle class="cls-12" cx="92.83" cy="412.14" r="3.72"/><rect class="cls-14" x="61.12" y="382.97" width="15.27" height="15.27" transform="translate(-321.85 459.35) rotate(-90)"/><rect class="cls-12" x="67.31" y="388.68" width="5.38" height="4.57" transform="translate(-320.97 460.97) rotate(-90)"/><circle class="cls-14" cx="68.75" cy="413.7" r="7.36"/><circle class="cls-14" cx="68.75" cy="434.93" r="7.36"/><circle class="cls-12" cx="68.85" cy="413.6" r="4.24"/><circle class="cls-15" cx="72.32" cy="322.11" r="3.49"/><circle class="cls-16" cx="72.76" cy="321.66" r="2.02"/><circle class="cls-15" cx="72.32" cy="336.62" r="3.49"/><circle class="cls-16" cx="72.76" cy="336.18" r="2.02"/><rect class="cls-17" x="89.2" y="481.35" width="12.27" height="39.16" rx="1.5"/><rect class="cls-18" x="88.07" y="489" width="14.63" height="23.07" rx="1.56"/><rect class="cls-19" x="92.8" y="486.75" width="5.29" height="3.38" rx="0.89"/><rect class="cls-19" x="92.8" y="510.76" width="5.29" height="3.38" rx="0.89"/><rect class="cls-20" x="191.75" y="342.03" width="26.1" height="26.1"/><rect class="cls-4" x="211.56" y="482.25" width="5.04" height="5.04"/><rect class="cls-4" x="218.92" y="482.25" width="5.04" height="5.04"/><rect class="cls-4" x="215.24" y="453.98" width="5.04" height="5.04" transform="translate(674.26 238.74) rotate(90)"/><rect class="cls-4" x="215.24" y="461.34" width="5.04" height="5.04" transform="translate(681.62 246.1) rotate(90)"/><rect class="cls-21" x="182.28" y="481.35" width="7.65" height="7.65"/><rect class="cls-21" x="195.26" y="481.35" width="7.65" height="7.65"/><rect class="cls-22" x="186.84" y="482.7" width="11.85" height="5.18"/><rect class="cls-23" x="186.09" y="481.35" width="2.4" height="7.58"/><rect class="cls-23" x="196.29" y="481.35" width="2.4" height="7.58"/><rect class="cls-21" x="156.81" y="481.35" width="7.65" height="7.65"/><rect class="cls-21" x="169.79" y="481.35" width="7.65" height="7.65"/><rect class="cls-22" x="161.37" y="482.7" width="11.85" height="5.18"/><rect class="cls-23" x="160.62" y="481.35" width="2.4" height="7.58"/><rect class="cls-23" x="170.82" y="481.35" width="2.4" height="7.58"/><rect class="cls-21" x="135.75" y="365.41" width="7.65" height="7.65"/><rect class="cls-21" x="148.73" y="365.41" width="7.65" height="7.65"/><rect class="cls-22" x="140.3" y="366.76" width="11.85" height="5.18"/><rect class="cls-23" x="139.55" y="365.41" width="2.4" height="7.58"/><rect class="cls-23" x="149.76" y="365.41" width="2.4" height="7.58"/><rect class="cls-21" x="162.12" y="406.34" width="7.65" height="7.65"/><rect class="cls-21" x="175.1" y="406.34" width="7.65" height="7.65"/><rect class="cls-22" x="166.68" y="407.69" width="11.85" height="5.18"/><rect class="cls-23" x="165.93" y="406.34" width="2.4" height="7.58"/><rect class="cls-23" x="176.13" y="406.34" width="2.4" height="7.58"/><rect class="cls-21" x="149.57" y="406.17" width="7.65" height="7.65" transform="translate(563.39 256.6) rotate(90)"/><rect class="cls-21" x="149.57" y="419.15" width="7.65" height="7.65" transform="translate(576.37 269.57) rotate(90)"/><rect class="cls-22" x="147.36" y="414.06" width="11.85" height="5.18" transform="translate(569.94 263.37) rotate(90)"/><rect class="cls-23" x="152.23" y="407.39" width="2.4" height="7.58" transform="translate(564.61 257.74) rotate(90)"/><rect class="cls-23" x="152.23" y="417.59" width="2.4" height="7.58" transform="translate(574.81 267.94) rotate(90)"/><rect class="cls-24" x="142.05" y="435.36" width="4.02" height="4.5" rx="0.76"/><rect class="cls-24" x="148.68" y="435.36" width="4.02" height="4.5" rx="0.76"/><rect class="cls-24" x="155.32" y="435.36" width="4.02" height="4.5" rx="0.76"/><rect class="cls-24" x="161.95" y="435.36" width="4.02" height="4.5" rx="0.76"/><rect class="cls-24" x="142.05" y="461.03" width="4.02" height="4.5" rx="0.76"/><rect class="cls-24" x="148.68" y="461.03" width="4.02" height="4.5" rx="0.76"/><rect class="cls-24" x="155.32" y="461.03" width="4.02" height="4.5" rx="0.76"/><rect class="cls-24" x="161.95" y="461.03" width="4.02" height="4.5" rx="0.76"/><rect class="cls-25" x="141.3" y="437.74" width="25.38" height="25.38"/><rect class="cls-24" x="142.33" y="440.21" width="22.13" height="22.13" rx="3.49"/><rect class="cls-25" x="144.02" y="441.13" width="18.62" height="18.62" rx="3.49"/><circle class="cls-24" cx="147.63" cy="445.41" r="1.56"/><rect class="cls-26" x="188.49" y="434.31" width="4.85" height="11.37"/><rect class="cls-27" x="188.49" y="439.99" width="4.85" height="2.19"/><rect class="cls-26" x="196.48" y="434.31" width="4.85" height="11.37"/><rect class="cls-27" x="196.48" y="439.99" width="4.85" height="2.19"/><rect class="cls-26" x="204.48" y="434.31" width="4.85" height="11.37"/><rect class="cls-27" x="204.48" y="439.99" width="4.85" height="2.19"/><rect class="cls-26" x="188.49" y="454.44" width="4.85" height="11.37"/><rect class="cls-27" x="188.49" y="457.93" width="4.85" height="2.19"/><rect class="cls-26" x="196.48" y="454.44" width="4.85" height="11.37"/><rect class="cls-27" x="196.48" y="457.93" width="4.85" height="2.19"/><rect class="cls-26" x="204.48" y="454.44" width="4.85" height="11.37"/><rect class="cls-27" x="204.48" y="457.93" width="4.85" height="2.19"/><rect class="cls-28" x="186.11" y="443.48" width="24.63" height="13.35" rx="1.18"/><rect class="cls-26" x="125.22" y="324.81" width="4.85" height="11.37"/><rect class="cls-27" x="125.22" y="330.49" width="4.85" height="2.19"/><rect class="cls-26" x="133.21" y="324.81" width="4.85" height="11.37"/><rect class="cls-27" x="133.21" y="330.49" width="4.85" height="2.19"/><rect class="cls-26" x="141.21" y="324.81" width="4.85" height="11.37"/><rect class="cls-27" x="141.21" y="330.49" width="4.85" height="2.19"/><rect class="cls-26" x="125.22" y="344.95" width="4.85" height="11.37"/><rect class="cls-27" x="125.22" y="348.44" width="4.85" height="2.19"/><rect class="cls-26" x="133.21" y="344.95" width="4.85" height="11.37"/><rect class="cls-27" x="133.21" y="348.44" width="4.85" height="2.19"/><rect class="cls-26" x="141.21" y="344.95" width="4.85" height="11.37"/><rect class="cls-27" x="141.21" y="348.44" width="4.85" height="2.19"/><rect class="cls-28" x="122.84" y="333.98" width="24.63" height="13.35" rx="1.18"/><path class="cls-29" d="M237.24,205.62a5.15,5.15,0,0,1-2.29.53c-1,0-3.9.1-4.9.12,0,.79.13,2.29.13,3.23s.06,3.53.15,7.67v.27a3.86,3.86,0,0,0,3.65,4c2.84.3,3.53-1.31,3.56-1.36a14.84,14.84,0,0,0,1.08-6.08c0-.32,0-.66,0-1A40.92,40.92,0,0,0,237.24,205.62Z"/><path class="cls-29" d="M240,200.89a5.47,5.47,0,0,1-.43,2,6.54,6.54,0,0,1-1.25,2,37.78,37.78,0,0,1,1.51,7.77c0,.49.06,1,.06,1.51a18.34,18.34,0,0,1-.76,5.45,9.42,9.42,0,0,0,.83,1,4.19,4.19,0,0,0,2.11,1.06,4.58,4.58,0,0,0,3.25-.45c.95-.5,1.44-1.77,1.44-3.77,0-.27,0-.55,0-.85s0-.82,0-1.29a18.9,18.9,0,0,0-1.23-6.61C244.42,205.3,241.41,202.18,240,200.89Z"/><path class="cls-29" d="M240.16,192a6.78,6.78,0,0,1-.48,2.77,6.6,6.6,0,0,1-1.59,2,4.72,4.72,0,0,1,.89.75,4.51,4.51,0,0,1,.84,1.46c.3.27,1.89,1.71,3.23,3.16a21.39,21.39,0,0,1,4.49,8,19.24,19.24,0,0,1,.74,5.72c0,1.46-.12,2.63-.15,3,.3.44,1.76,2.29,3.76,2.25,3.05,0,3.81-1.21,4.05-6.24.27-5.29-1.85-11.12-5.69-15.91-3.24-4-8.48-6.34-10.11-7C240.16,191.92,240.16,191.94,240.16,192Z"/><path class="cls-29" d="M228.93,213c-.76,0-2.27.13-3.24.13-1.13,0-5,.08-7.1.13l-.83,0a3.85,3.85,0,0,0-4,3.66c0,.22,0,.45,0,.66,0,2.27,1.34,2.86,1.4,2.88a16.12,16.12,0,0,0,7.08,1.06,40.34,40.34,0,0,0,7.42-1.35,5.26,5.26,0,0,1-.53-2.29C229,217.44,229,216.21,228.93,213Z"/><path class="cls-29" d="M215.56,222.11a8.2,8.2,0,0,0-.94.84,4.16,4.16,0,0,0-1.06,2.1,5.25,5.25,0,0,0-.12,1.08,4.52,4.52,0,0,0,.57,2.15c.51.95,1.76,1.44,3.77,1.44.23,0,.49,0,.77,0h.1a18.83,18.83,0,0,0,7.89-1.19c3.35-1.21,6.48-4.2,7.78-5.57a5.45,5.45,0,0,1-2-.43,6,6,0,0,1-2.05-1.25,38.26,38.26,0,0,1-7.76,1.51A20,20,0,0,1,215.56,222.11Z"/><path class="cls-29" d="M216.42,231.07a5,5,0,0,0-2.26,3.73c0,3.1,1.21,3.86,6.25,4.11,5.28.26,11.08-1.82,15.9-5.7,4-3.24,6.34-8.48,7-10.11a7,7,0,0,1-2.8-.48,6.58,6.58,0,0,1-2-1.59,4.94,4.94,0,0,1-.76.89,4.23,4.23,0,0,1-1.46.84c-.36.39-1.74,1.93-3.16,3.23a21.51,21.51,0,0,1-8,4.49A24,24,0,0,1,216.42,231.07Z"/><path class="cls-29" d="M222.17,211.91c0-.8-.13-2.29-.13-3.24,0-1.21-.1-5.47-.13-7.53v-.42a3.85,3.85,0,0,0-3.66-4c-2.86-.31-3.56,1.34-3.56,1.36a16,16,0,0,0-1.06,7.08,39.5,39.5,0,0,0,1.35,7.42,5.49,5.49,0,0,1,2.29-.53c.87,0,3.44-.09,4.69-.11Z"/><path class="cls-29" d="M213.05,198.56a8.33,8.33,0,0,0-.84-.94,4.08,4.08,0,0,0-2.1-1.06,4.44,4.44,0,0,0-3.24.45c-.94.51-1.43,1.76-1.43,3.77,0,.24,0,.53,0,.85s0,.81,0,1.29a18.82,18.82,0,0,0,1.23,6.6c1.21,3.35,4.2,6.48,5.56,7.78a5.63,5.63,0,0,1,.44-2,6,6,0,0,1,1.25-2,38,38,0,0,1-1.51-7.76c0-.51-.06-1-.06-1.51A18.76,18.76,0,0,1,213.05,198.56Z"/><path class="cls-29" d="M204.07,199.41c-.3-.43-1.76-2.27-3.77-2.25-3,0-3.8,1.21-4.05,6.25-.24,5.28,1.86,11.11,5.7,15.9,3.24,4,8.48,6.34,10.11,7v0a6.91,6.91,0,0,1,.47-2.77,6.57,6.57,0,0,1,1.59-2,5.92,5.92,0,0,1-.89-.76,4.33,4.33,0,0,1-.83-1.46,45.32,45.32,0,0,1-3.24-3.18,21.71,21.71,0,0,1-4.48-8,19.19,19.19,0,0,1-.74-5.72A25.79,25.79,0,0,1,204.07,199.41Z"/><path class="cls-29" d="M238.47,200.57c0-2.27-1.34-2.86-1.4-2.88a16,16,0,0,0-7.08-1.06,40.15,40.15,0,0,0-7.42,1.34,5.43,5.43,0,0,1,.53,2.3c0,.45.06,1.66.11,4.9.63,0,2.24-.13,3.24-.13s3.52-.06,7.69-.15h.26a3.85,3.85,0,0,0,4-3.66A3.55,3.55,0,0,0,238.47,200.57Z"/><path class="cls-29" d="M238.72,192a4.59,4.59,0,0,0-.57-2.16c-.51-.94-1.78-1.44-3.77-1.44l-.85,0a19,19,0,0,0-7.89,1.2c-3.36,1.21-6.48,4.2-7.79,5.56a5.53,5.53,0,0,1,2,.44,5.89,5.89,0,0,1,2.05,1.25,37.12,37.12,0,0,1,7.76-1.52,20.27,20.27,0,0,1,7,.7,7.94,7.94,0,0,0,.94-.83,4.2,4.2,0,0,0,1.06-2.1A5.4,5.4,0,0,0,238.72,192Z"/><path class="cls-29" d="M238,183.3c0-3.05-1.21-3.8-6.25-4.05-5.28-.26-11.07,1.82-15.9,5.7-4,3.24-6.34,8.48-7,10.11a7.13,7.13,0,0,1,2.8.47,6.63,6.63,0,0,1,2,1.59,5.07,5.07,0,0,1,.76-.89,4.16,4.16,0,0,1,1.46-.83c.43-.49,1.79-2,3.16-3.24a21.43,21.43,0,0,1,8-4.48,23.77,23.77,0,0,1,8.71-.59,5.06,5.06,0,0,0,2.25-3.73v-.06Z"/><path class="cls-29" d="M192.59,189.68a6.52,6.52,0,0,1-.44,2.45A5.89,5.89,0,0,1,191,194a5.39,5.39,0,0,1-1.77,1.2,5.78,5.78,0,0,1-2.17.41,6,6,0,0,1-3.08-.75,4.74,4.74,0,0,1-2-2.45h-.06a3.3,3.3,0,0,1-.69,1.36,4.1,4.1,0,0,1-1.1.88,5.1,5.1,0,0,1-1.41.49,11.26,11.26,0,0,1-1.53.21l-1.13.06c-.43,0-.88.05-1.32.1a7.38,7.38,0,0,0-1.29.23,2.86,2.86,0,0,0-1,.46v-4.44a7.44,7.44,0,0,1,2.29-.45c.89-.06,1.73-.14,2.55-.26a4,4,0,0,0,2.32-1,3.36,3.36,0,0,0,.73-2.4v-4.45h-7.89v-4.45h20.2Zm-9.15-1.58a3.37,3.37,0,0,0,.68,2.29,2.82,2.82,0,0,0,2.21.76,2.69,2.69,0,0,0,2.14-.76,3.42,3.42,0,0,0,.66-2.29v-4.87h-5.69Z"/><path class="cls-29" d="M192.59,208.8l-20.21,7.56v-4.61l4.5-1.53v-7.56l-4.5-1.59V196.6l20.21,7.64Zm-12.4.25,7.42-2.55v-.05l-7.42-2.63Z"/><path class="cls-29" d="M192.59,221.75h-8.38l8.38,7.9v5.55l-8-7.9L172.39,236v-5.58l9.08-6.09-2.57-2.55h-6.51V217.3h20.2Z"/><polygon id="Shape" class="cls-29" points="92.63 179.06 112.19 179.06 112.19 183.93 96.75 183.93 96.75 191.52 92.63 191.52 92.63 179.06"/><path id="Shape-2" data-name="Shape" class="cls-29" d="M92.63,211.3h19.56V221c0,4.69-2.15,7.06-6.45,7.06a5.24,5.24,0,0,1-3.33-1.1,5.75,5.75,0,0,1-2-2.93l-7.85,4.47v-5.44l7-3.81v-3.12h-7V211.3Zm15.92,4.86h-5.26v4.48c0,1.75.88,2.58,2.63,2.58a2.31,2.31,0,0,0,2.63-2.58Z"/><path id="Shape-3" data-name="Shape" class="cls-29" d="M103.33,243.48H95.61a8.76,8.76,0,0,0-3.07.4v-3.95a7.43,7.43,0,0,1,1.5-.26v0a3.56,3.56,0,0,1-1.36-1.88,6.24,6.24,0,0,1-.53-2.5,5.14,5.14,0,0,1,1.14-3.47,4,4,0,0,1,3.2-1.4,4.12,4.12,0,0,1,3.77,2,13.74,13.74,0,0,1,1.62,5.48l.22,1.58h1.23c1,0,1.58-.66,1.58-2a2.11,2.11,0,0,0-.44-1.53,2.48,2.48,0,0,0-1.49-.7v-4.13c3.07.09,4.61,2.11,4.61,6a10,10,0,0,1-.88,4.74,3.75,3.75,0,0,1-3.38,1.66m-4.69-4.07h1l-.83-2.86c-.4-1.35-1-2.06-1.89-2.06-1.1,0-1.67.66-1.67,2a2.76,2.76,0,0,0,.88,2.11,3.74,3.74,0,0,0,2.5.79"/><path id="Shape-4" data-name="Shape" class="cls-29" d="M107.54,200.59a7.82,7.82,0,0,1-2,5.62,7.52,7.52,0,0,1-5.65,2.15,7.37,7.37,0,0,1-5.66-2.15,8.81,8.81,0,0,1,0-11.23,7.56,7.56,0,0,1,5.66-2.15,7.34,7.34,0,0,1,5.65,2.15,7.87,7.87,0,0,1,2,5.61m-3.24,0A3,3,0,0,0,103,198a5.68,5.68,0,0,0-3.16-.83,5.28,5.28,0,0,0-3.16.83,3.1,3.1,0,0,0-1.27,2.63c0,2.33,1.53,3.47,4.6,3.47a4.88,4.88,0,0,0,3-.83,3.07,3.07,0,0,0,1.23-2.64"/><path id="Shape-5" data-name="Shape" class="cls-29" d="M110.74,200.55a10.52,10.52,0,0,1-1.71,5.79l1.19.83a12.12,12.12,0,0,0,.17-13l-1.18.84a10.79,10.79,0,0,1,1.53,5.52"/><path id="Shape-6" data-name="Shape" class="cls-29" d="M114.16,191.56l-1.57,1.1a14.6,14.6,0,0,1,2.28,7.85,14.77,14.77,0,0,1-2.46,8.11l1.58,1.1a16.55,16.55,0,0,0,.17-18.16"/><path id="Shape-7" data-name="Shape" class="cls-29" d="M119,200.55a18.77,18.77,0,0,1-3.2,10.48l2,1.41a21.14,21.14,0,0,0,.22-23.51l-2,1.4a18.54,18.54,0,0,1,3,10.22"/><path id="Shape-8" data-name="Shape" class="cls-29" d="M89.3,200.81A10.49,10.49,0,0,1,91,195l-1.18-.84a12.1,12.1,0,0,0-.18,13l1.18-.83a10.83,10.83,0,0,1-1.53-5.53"/><path id="Shape-9" data-name="Shape" class="cls-29" d="M86,209.72l1.57-1.1a14.63,14.63,0,0,1,.18-16l-1.58-1.1A16.49,16.49,0,0,0,86,209.72"/><path id="Shape-10" data-name="Shape" class="cls-29" d="M81.23,200.81a18.74,18.74,0,0,1,3.2-10.48l-2-1.4a21.37,21.37,0,0,0-3.64,11.88,21.12,21.12,0,0,0,3.46,11.63l2-1.41a18.23,18.23,0,0,1-3.07-10.22"/><path class="cls-29" d="M144.79,201c7.74-.33,11.45-5.16,11.45-11.13,0-6.76-5-11-11.12-11.12-4.35-.16-6.61,1.78-8.06,4a16.06,16.06,0,0,0-2.1,6.61l-10-8.06v7.74s2.74,2.09,6.29,5C135.29,197.32,139.8,201.19,144.79,201Zm-4-11.13a4.67,4.67,0,1,1,4.67,4.68A4.68,4.68,0,0,1,140.77,189.9Z"/><path class="cls-29" d="M154.3,208.12a15.47,15.47,0,0,0,2.1-6.45l9.67,7.74v-7.74s-2.58-2.09-6.12-4.83c-1.13-.81-2.26-1.78-3.55-2.74a10.65,10.65,0,0,1-6,6.44v.32a4.51,4.51,0,0,1-4.52,4.52,4.57,4.57,0,0,1-4.51-4.19,23.28,23.28,0,0,1-6-3.07,16.16,16.16,0,0,0-.33,2.91c0,6.6,4.84,10.63,11,11C150.44,212,152.69,210.37,154.3,208.12Z"/><path class="cls-29" d="M148.82,190.39h0a8.7,8.7,0,0,0-3.54-.32,10.52,10.52,0,0,0-3.39,1h0a3.65,3.65,0,0,0,3.39,2.58A3.52,3.52,0,0,0,148.82,190.39Z"/><path class="cls-29" d="M154.63,218.11a39.06,39.06,0,0,1,.32,5c0,2.58-.32,4-1.13,5.32a4,4,0,0,1-3.55,1.93,4.39,4.39,0,0,1-4-3.06h0a4.74,4.74,0,0,1-4.68,3.7,4.91,4.91,0,0,1-3.87-1.77c-1.13-1.29-1.77-3.54-1.77-6.93a23.16,23.16,0,0,1,.32-4.19Zm-7.26,3.39v1.77c0,2.42,1.13,3.71,2.74,3.71,1.78,0,2.58-1.29,2.58-3.55a5.56,5.56,0,0,0-.16-1.93Zm-8.54,0a5.51,5.51,0,0,0-.16,1.77c0,2.25.81,4.19,3.06,4.19s3.06-1.94,3.06-4.19V221.5Z"/><path class="cls-29" d="M143.18,246.32c-5,0-7.25-3.55-7.25-6.93,0-3.87,2.58-6.77,6.93-6.77s7.09,2.9,7.09,6.93C150.11,243.74,147.21,246.32,143.18,246.32ZM143,236.16c-2.58,0-4.51,1.29-4.51,3.39,0,1.93,1.93,3.38,4.67,3.38,2.1,0,4.52-1,4.52-3.22C147.53,237.13,145.28,236.16,143,236.16Z"/><path class="cls-29" d="M136.25,256.31l1.45-.16V256a4.79,4.79,0,0,1-1.77-4,3.93,3.93,0,0,1,4-4.19c3.38,0,5.16,3.06,5.16,8.06h.16c.8,0,2.42-.33,2.42-2.74a7.73,7.73,0,0,0-1-3.55l2.26-.64a9.3,9.3,0,0,1,1.12,4.83c0,4.35-2.74,5.48-5.64,5.48h-4.83a18.8,18.8,0,0,0-3.23.16v-3.06Zm6.61-.48c0-2.42-.48-4.68-2.58-4.68a1.78,1.78,0,0,0-1.93,1.94,2.81,2.81,0,0,0,1.93,2.74,7.19,7.19,0,0,0,.81.16h1.77Z"/><path class="cls-29" d="M145.44,262.27a35.37,35.37,0,0,0,4.35-.16V265l-2.58.16v.17a4,4,0,0,1,2.9,3.7v.81h-3.22c0-.32.16-.65.16-1a3,3,0,0,0-2.58-3.06c-.32,0-.64-.16-1-.16h-6.94v-3.39Z"/><path class="cls-29" d="M155.92,283.71h-15.8a24.16,24.16,0,0,0-3.71.16v-3.06l2.1-.16h0a4.89,4.89,0,0,1-2.42-4.35c0-3.23,2.74-5.81,6.93-5.81,4.51,0,7.25,2.74,7.25,6a4.12,4.12,0,0,1-1.77,3.7h7.42Zm-11.77-3.39h1a3.09,3.09,0,0,0,2.41-2.9c0-2.25-1.93-3.38-4.51-3.38-2.42,0-4.35,1.29-4.35,3.38a2.93,2.93,0,0,0,2.42,2.9c.32,0,.64.17,1,.17h2.1Z"/><path class="cls-29" d="M139.48,286.77a7.51,7.51,0,0,0-1,3.39c0,1.45.64,2.09,1.45,2.09,1,0,1.45-.48,1.93-2.25,1-2.58,2.42-3.71,3.87-3.71,2.42,0,4.19,1.93,4.19,5.16a7.21,7.21,0,0,1-.8,3.54l-2.42-.64a6.28,6.28,0,0,0,.8-2.9c0-1.29-.64-1.94-1.45-1.94s-1.29.65-1.93,2.42c-.81,2.42-2.1,3.55-4,3.55-2.42,0-4.19-1.94-4.19-5.48a7.38,7.38,0,0,1,1-4Z"/><path class="cls-29" d="M135,219.08h-7.57v-1H135Z"/><path class="cls-29" d="M131.26,220.21l1,.48a1.55,1.55,0,0,1,.65.81,4,4,0,0,1,0,2.25,1.59,1.59,0,0,1-.65.81,5.33,5.33,0,0,1-1,.48,2.79,2.79,0,0,1-1.13.16A2.4,2.4,0,0,1,129,225l-1-.48a1.62,1.62,0,0,1-.64-.81,4,4,0,0,1,0-2.25,1.58,1.58,0,0,1,.64-.81,5.46,5.46,0,0,1,1-.48,2.27,2.27,0,0,1,1.13-.17A2.64,2.64,0,0,1,131.26,220.21Zm-2.1,1c-.32.16-.48.16-.64.33s-.33.32-.33.48a1,1,0,0,0-.16.64,1,1,0,0,0,.16.65c.16.16.16.32.33.48a.83.83,0,0,0,.64.32,1.66,1.66,0,0,0,1,.17,1.92,1.92,0,0,0,1-.17c.33-.16.49-.16.65-.32l.48-.48a1,1,0,0,0,.16-.65,1,1,0,0,0-.16-.64c-.16-.16-.16-.32-.48-.48a.81.81,0,0,0-.65-.33,1.73,1.73,0,0,0-1-.16A2.07,2.07,0,0,0,129.16,221.17Z"/><path class="cls-29" d="M134.16,225.36h.8v6.13h-.8v-2.58h-6.77v-1h6.77Z"/><path class="cls-29" d="M135,238.9h-.8v-4.19h-2.42v3.87h-.81v-3.87h-2.58v4.19h-.8v-5.32H135Z"/><path class="cls-29" d="M127.39,243.74h.8a1.23,1.23,0,0,1-.64-.65,4,4,0,0,1,0-2.25,1.58,1.58,0,0,1,.64-.81l1-.48a2.42,2.42,0,0,1,1.13-.16,2.79,2.79,0,0,1,1.13.16l1,.48a1.55,1.55,0,0,1,.65.81,2.37,2.37,0,0,1,.16,1.12v.49a.59.59,0,0,1-.16.48c0,.16-.16.32-.32.49s-.33.32-.49.32H135v1h-7.57Zm1.93-3.23a.84.84,0,0,0-.64.33l-.49.48a1.22,1.22,0,0,0-.16.81,1.44,1.44,0,0,0,.16.8l.49.49c.16.16.48.16.64.32.32,0,.49.16.81.16a1.44,1.44,0,0,0,.8-.16.84.84,0,0,0,.65-.32l.48-.49a1.2,1.2,0,0,0,.16-.8,1.46,1.46,0,0,0-.16-.81l-.48-.48c-.16-.16-.49-.16-.65-.33-.32,0-.48-.16-.8-.16A1.48,1.48,0,0,0,129.32,240.51Z"/><path class="cls-29" d="M133.83,245.67H135v1h-1.13Zm-1,1h-5.48v-1h5.48Z"/><path class="cls-29" d="M132.87,250.18h-.81v-1.12h-3.71a.16.16,0,0,0-.16.16v1h-.8v-1.45c0-.16.16-.32.16-.48.16-.16.16-.16.32-.16h4.19v-1h.81v1h1.61v1h-1.61v1.12Z"/><path class="cls-29" d="M133.83,250.83H135v1h-1.13Zm-1,1h-5.48v-1h5.48Z"/><path class="cls-29" d="M131.26,252.76l1,.49a1.56,1.56,0,0,1,.65.8,4.07,4.07,0,0,1,0,2.26,1.63,1.63,0,0,1-.65.81,5.33,5.33,0,0,1-1,.48,2.79,2.79,0,0,1-1.13.16,2.4,2.4,0,0,1-1.13-.16l-1-.48a1.67,1.67,0,0,1-.64-.81,4.07,4.07,0,0,1,0-2.26,1.6,1.6,0,0,1,.64-.8,5.42,5.42,0,0,1,1-.49,2.4,2.4,0,0,1,1.13-.16A2.79,2.79,0,0,1,131.26,252.76Zm-2.1,1c-.32.16-.48.16-.64.32s-.33.33-.33.49a1,1,0,0,0-.16.64,1,1,0,0,0,.16.65c.16.16.16.32.33.48a.83.83,0,0,0,.64.32,1.75,1.75,0,0,0,1,.16,2,2,0,0,0,1-.16c.33-.16.49-.16.65-.32l.48-.48a1,1,0,0,0,.16-.65,1,1,0,0,0-.16-.64c-.16-.16-.16-.33-.48-.49a.84.84,0,0,0-.65-.32,1.73,1.73,0,0,0-1-.16A2.07,2.07,0,0,0,129.16,253.73Z"/><path class="cls-29" d="M132.87,259.53h-.81a1.86,1.86,0,0,1,1,1.78,2,2,0,0,1-.16,1c-.16.16-.16.49-.49.65a.83.83,0,0,1-.64.32c-.32,0-.48.16-.81.16h-3.54v-1.13h3.7a1.09,1.09,0,0,0,1.13-1.13c0-.32,0-.48-.16-.64s-.16-.32-.32-.48-.32-.16-.48-.33c-.17,0-.49-.16-.65-.16h-3.06v-1H133v1Z"/><path class="cls-29" d="M98.47,300.74a20.93,20.93,0,1,1-20.93,20.53A20.92,20.92,0,0,1,98.47,300.74Zm8.15,5.42a17.49,17.49,0,0,0-20.1,28.24c.58-.81,1.14-1.63,1.74-2.42a1.43,1.43,0,0,0,.31-1,4.51,4.51,0,0,1,1.65-4.05.71.71,0,0,0,.13-.17H88.87v-2.4h4.48a.56.56,0,0,0,.53-.26q1.77-2.52,3.57-5a.4.4,0,0,0,0-.5,5.7,5.7,0,0,1-.63-2.72c0-1.16,0-2.32,0-3.48,0-.13,0-.26,0-.42H88.93v-2.74h15.18a.59.59,0,0,0,.43-.14C105.24,308.1,105.92,307.14,106.62,306.16Zm-6.08,20.58a4.54,4.54,0,0,1,1.78,2.23,5.51,5.51,0,0,1-3,6.73,9.86,9.86,0,0,1-5.55.58,7.18,7.18,0,0,1-3-1.14l-1.13,1.59a17.48,17.48,0,0,0,20.21-28.37,1.66,1.66,0,0,0-.47,1.18c.06,2.1.05,4.21,0,6.31a6.87,6.87,0,0,1-.37,2.06,5.9,5.9,0,0,1-5.81,3.88,27.09,27.09,0,0,1-2.73-.3l-2,2.84h10.9v2.41ZM92.26,333a6.83,6.83,0,0,0,3.76.78,5.67,5.67,0,0,0,3.12-1,3.09,3.09,0,0,0,.5-4.55,4.65,4.65,0,0,0-2.75-1.44c-.11,0-.29.11-.37.22-.81,1.12-1.61,2.25-2.41,3.38Zm10-14.05h1.6a3,3,0,0,0,3-2.55,11.16,11.16,0,0,0,.14-1.91c0-.71,0-1.42,0-2.13l-.09,0Zm-3-2.52,3.2-4.5H99.12A31.28,31.28,0,0,0,99.31,316.43Z"/><polygon class="cls-30" points="119.87 275.07 79.87 297.55 79.87 252.6 119.87 275.07"/><line class="cls-30" x1="82.12" y1="253.87" x2="82.12" y2="296.04"/><line class="cls-30" x1="84.46" y1="255.18" x2="84.46" y2="294.91"/><line class="cls-30" x1="86.44" y1="256.29" x2="86.44" y2="293.86"/><line class="cls-30" x1="114.83" y1="272.25" x2="114.83" y2="277.88"/><line class="cls-30" x1="117.07" y1="273.5" x2="117.07" y2="276.76"/><line class="cls-30" x1="112.04" y1="270.68" x2="112.04" y2="279.76"/><line class="cls-30" x1="109.56" y1="269.28" x2="109.56" y2="280.51"/><line class="cls-30" x1="104.11" y1="266.03" x2="91.32" y2="291.12"/><line class="cls-30" x1="102.57" y1="265.36" x2="88.31" y2="292.8"/><line class="cls-30" x1="88.56" y1="257.76" x2="88.56" y2="292.39"/><line class="cls-30" x1="91.17" y1="258.95" x2="91.17" y2="285.97"/><line class="cls-30" x1="93.57" y1="260.3" x2="93.57" y2="282.09"/><line class="cls-30" x1="91.17" y1="285.97" x2="91.17" y2="287.31"/><line class="cls-30" x1="93.57" y1="281.41" x2="93.57" y2="282.69"/><line class="cls-30" x1="107.47" y1="268.11" x2="107.47" y2="281.87"/><path class="cls-30" d="M107.47,276.08s-.53-5.62-7.06-7.57c-2.17-2.26-3-3.83-4.2-3.16a16.08,16.08,0,0,0-2.64,2.1"/><path class="cls-30" d="M98.07,272.46h.39s-2.42-3.88-3.17-3.58a11.59,11.59,0,0,0-1.72,1"/><path class="cls-30" d="M97.62,274.9s-1.07-3.39-2.18-3.24a4,4,0,0,0-1.87.8"/><path class="cls-30" d="M103,284.56s-.78-2.25-2.47-2.47a18,18,0,0,0-4.93.6"/><line class="cls-30" x1="93.79" y1="286.26" x2="93.79" y2="289.76"/><line class="cls-30" x1="95.44" y1="261.35" x2="95.44" y2="265.75"/><line class="cls-30" x1="95.59" y1="282.69" x2="95.59" y2="288.69"/><line class="cls-30" x1="97.62" y1="262.3" x2="97.62" y2="265.75"/><line class="cls-30" x1="97.78" y1="282.24" x2="97.78" y2="287.31"/><line class="cls-30" x1="99.36" y1="263.55" x2="99.36" y2="267.29"/><line class="cls-30" x1="99.72" y1="282.05" x2="99.72" y2="286.39"/><line class="cls-30" x1="104.71" y1="266.56" x2="104.71" y2="270.79"/><line class="cls-31" x1="329.54" y1="125.42" x2="361.49" y2="125.42"/><line class="cls-31" x1="329.54" y1="633.62" x2="361.49" y2="633.62"/><line class="cls-32" x1="346.32" y1="126.5" x2="346.32" y2="632.54"/><polygon class="cls-28" points="342.23 129.82 342.96 130.5 346.32 126.89 349.68 130.5 350.41 129.82 346.32 125.42 342.23 129.82"/><polygon class="cls-28" points="342.23 629.22 342.96 628.54 346.32 632.15 349.68 628.54 350.41 629.22 346.32 633.62 342.23 629.22"/><line class="cls-32" x1="307.14" y1="672.06" x2="57.41" y2="672.06"/><polygon class="cls-28" points="303.83 667.97 303.15 668.7 306.76 672.06 303.15 675.42 303.83 676.15 308.23 672.06 303.83 667.97"/><polygon class="cls-28" points="60.73 667.97 61.41 668.7 57.8 672.06 61.41 675.42 60.73 676.15 56.33 672.06 60.73 667.97"/><path d="M367.42,385.64a2.64,2.64,0,0,0-2.41,2.72c0,3.05,3.45,3.58,5.81,3.58v0a3.87,3.87,0,0,1-2.15-3.46,4.11,4.11,0,0,1,4.35-4.29,4.26,4.26,0,0,1,4.4,4.4c0,3.16-1.84,4.56-6.91,4.56-1.55,0-6.49-.4-6.49-4.65,0-2.31,1.12-3.72,3.4-4Zm5.67,6.06a3,3,0,0,0,3.35-3.25,3.18,3.18,0,0,0-3.35-3.12,3.14,3.14,0,0,0-3.44,3.14A3.18,3.18,0,0,0,373.09,391.7Z"/><path d="M370.71,373.82c3.05,0,6.71.74,6.71,4.53s-3.66,4.54-6.69,4.54-6.71-.74-6.71-4.54S367.68,373.82,370.71,373.82Zm0,7.9c2.27,0,5.73-.39,5.73-3.37S373,375,370.71,375s-5.7.39-5.7,3.36S368.46,381.72,370.71,381.72Z"/><path d="M367.55,366.9v-1.07h1.62v-.06a3.3,3.3,0,0,1-1.9-3.14,2.66,2.66,0,0,1,1.88-2.75,3.26,3.26,0,0,1-1.88-3.05q0-3.18,3.37-3.18h6.5v1.17h-6.45c-1.58,0-2.43.58-2.43,2.27,0,2,1.67,2.6,3.45,2.6h5.43v1.17h-6.5c-1.3,0-2.38.5-2.38,2,0,2,1.52,2.86,3.53,2.86h5.35v1.17Z"/><path d="M367.55,351.42v-1.08h1.62v-.06a3.3,3.3,0,0,1-1.9-3.14,2.67,2.67,0,0,1,1.88-2.75,3.24,3.24,0,0,1-1.88-3.05c0-2.12,1.12-3.17,3.37-3.17h6.5v1.17h-6.45c-1.58,0-2.43.57-2.43,2.26,0,2,1.67,2.61,3.45,2.61h5.43v1.17h-6.5c-1.3,0-2.38.5-2.38,2,0,2,1.52,2.87,3.53,2.87h5.35v1.17Z"/><path d="M166.25,695.62a3.06,3.06,0,0,0,3.25,3.44c1.71,0,3.33-1,3.33-2.88s-1.39-2.75-3.12-2.75h-1v-1h1a2.43,2.43,0,0,0,2.64-2.36c0-1.71-1.28-2.45-2.85-2.45-1.93,0-3,1.35-2.95,3.29h-1.17a4,4,0,0,1,4.11-4.28c2,0,4,1,4,3.31a2.8,2.8,0,0,1-2.19,2.88v0a3,3,0,0,1,2.67,3.21c0,2.55-2.08,4-4.48,4-2.67,0-4.64-1.63-4.44-4.42Z"/><path d="M184.51,693.33c0,3-.75,6.71-4.54,6.71s-4.53-3.66-4.53-6.69.74-6.71,4.53-6.71S184.51,690.3,184.51,693.33Zm-7.9,0c0,2.27.39,5.73,3.36,5.73s3.36-3.46,3.36-5.73-.38-5.7-3.36-5.7S176.61,691.08,176.61,693.33Z"/><path d="M191.42,690.17h1.08v1.62h.06a3.3,3.3,0,0,1,3.14-1.9,2.67,2.67,0,0,1,2.75,1.88,3.24,3.24,0,0,1,3.05-1.88c2.12,0,3.17,1.12,3.17,3.37v6.5H203.5v-6.45c0-1.57-.57-2.43-2.26-2.43-2,0-2.61,1.67-2.61,3.46v5.42h-1.17v-6.5c0-1.3-.5-2.38-2-2.38-2,0-2.87,1.52-2.87,3.53v5.35h-1.17Z"/><path d="M206.91,690.17H208v1.62h0a3.31,3.31,0,0,1,3.14-1.9,2.68,2.68,0,0,1,2.76,1.88,3.24,3.24,0,0,1,3-1.88q3.18,0,3.18,3.37v6.5H219v-6.45c0-1.57-.58-2.43-2.27-2.43-2,0-2.6,1.67-2.6,3.46v5.42H213v-6.5c0-1.3-.5-2.38-2-2.38-2,0-2.86,1.52-2.86,3.53v5.35h-1.17Z"/><path d="M431.75,181.63h2.92v10.81h6.46v2.46h-9.38Z"/><path d="M442.77,181.63h2.92V194.9h-2.92Z"/><path d="M450.24,190.49c0,1.77,1.38,2.46,2.94,2.46,1,0,2.58-.3,2.58-1.66s-2-1.65-3.94-2.19-3.95-1.32-3.95-3.77c0-2.74,2.56-4,5-4,2.77,0,5.31,1.21,5.31,4.27h-2.82c-.09-1.57-1.21-2-2.62-2-.93,0-2,.39-2,1.5s.63,1.17,4,2c1,.22,3.94.87,3.94,3.87,0,2.43-1.9,4.25-5.52,4.25-2.94,0-5.71-1.45-5.65-4.72Z"/><path d="M463.28,187.15c1.13.09,2.76-.13,2.76-1.62a1.71,1.71,0,0,0-1.83-1.73c-1.34,0-2,1-2,2.32h-2.51a4.31,4.31,0,0,1,4.5-4.49c2.08,0,4.36,1.28,4.36,3.6a2.58,2.58,0,0,1-1.82,2.66v0a2.89,2.89,0,0,1,2.31,2.95c0,2.73-2.31,4.28-4.83,4.28-2.92,0-4.89-1.75-4.84-4.74h2.51c.06,1.41.76,2.56,2.29,2.56a2,2,0,0,0,2.12-2c0-2-1.73-1.94-3-1.94Z"/><path d="M470.66,181.63h5.72c3.44,0,6,2.17,6,6.56,0,3.84-2,6.71-6,6.71h-5.72Zm2.92,10.81h2.6c1.69,0,3.31-1,3.31-4,0-2.68-.95-4.39-3.83-4.39h-2.08Z"/><path d="M484.43,181.63h2.92v5.09h5.37v-5.09h2.92V194.9h-2.92v-5.73h-5.37v5.73h-2.92Z"/><path d="M430.37,203.94h10.52V205h-4.63v12.2H435V205h-4.63Z"/><path d="M440.21,207.62h1.07v2.24h0a3.52,3.52,0,0,1,3.63-2.37v1.17a3.3,3.3,0,0,0-3.57,3.43v5.12h-1.17Z"/><path d="M446.08,203.94h1.17v1.87h-1.17Zm0,3.68h1.17v9.59h-1.17Z"/><path d="M449.39,210.55c.13-2.25,1.67-3.21,3.88-3.21,1.7,0,3.54.5,3.54,3.08v5.09c0,.47.22.71.68.71a1.06,1.06,0,0,0,.38-.07v1a3.14,3.14,0,0,1-.77.08c-1.19,0-1.37-.69-1.37-1.68h0a3.64,3.64,0,0,1-3.49,1.95c-1.79,0-3.22-.87-3.22-2.8,0-2.68,2.62-2.79,5.15-3.09,1-.09,1.5-.26,1.5-1.3,0-1.58-1.11-2-2.5-2s-2.51.67-2.57,2.23Zm6.24,1.41h0c-.15.28-.67.38-1,.43-2,.36-4.46.36-4.46,2.21a2,2,0,0,0,2.14,1.9,3.08,3.08,0,0,0,3.34-3Z"/><path d="M461.77,212.22l-3.44-4.6h1.47l2.73,3.64,2.68-3.64h1.47l-3.46,4.59,3.74,5h-1.49l-3-4-3,4h-1.45Z"/><path d="M468.11,203.94h1.17v1.87h-1.17Zm0,3.68h1.17v9.59h-1.17Z"/><path d="M471.42,210.55c.13-2.25,1.67-3.21,3.88-3.21,1.7,0,3.53.5,3.53,3.08v5.09a.62.62,0,0,0,.69.71,1,1,0,0,0,.37-.07v1a3,3,0,0,1-.76.08c-1.19,0-1.37-.69-1.37-1.68h0a3.65,3.65,0,0,1-3.49,1.95c-1.79,0-3.22-.87-3.22-2.8,0-2.68,2.62-2.79,5.15-3.09,1-.09,1.5-.26,1.5-1.3,0-1.58-1.11-2-2.5-2s-2.51.67-2.57,2.23Zm6.24,1.41h0c-.15.28-.67.38-1,.43-2,.36-4.46.36-4.46,2.21a2,2,0,0,0,2.14,1.9,3.08,3.08,0,0,0,3.34-3Z"/><path d="M481.2,203.94h1.17v13.27H481.2Z"/><path d="M493.89,203.94h1.42l5.2,13.27h-1.36l-1.61-4.13h-6l-1.6,4.13h-1.36Zm-2,8.06h5.22l-2.57-6.8Z"/><path d="M508.26,210.63a2.59,2.59,0,0,0-2.71-2.31c-2.23,0-3.36,2.06-3.36,4.09s1.13,4.09,3.36,4.09a2.89,2.89,0,0,0,2.79-2.73h1.17a3.88,3.88,0,0,1-4,3.71c-2.92,0-4.53-2.32-4.53-5.07s1.61-5.07,4.53-5.07a3.57,3.57,0,0,1,3.89,3.29Z"/><path d="M517.91,210.63a2.59,2.59,0,0,0-2.71-2.31c-2.23,0-3.36,2.06-3.36,4.09s1.13,4.09,3.36,4.09a2.89,2.89,0,0,0,2.79-2.73h1.17a3.88,3.88,0,0,1-4,3.71c-2.92,0-4.54-2.32-4.54-5.07s1.62-5.07,4.54-5.07a3.57,3.57,0,0,1,3.88,3.29Z"/><path d="M521.48,212.73c0,1.71.93,3.77,3.16,3.77a2.91,2.91,0,0,0,3-2.45h1.18c-.51,2.17-1.75,3.43-4.19,3.43-3,0-4.33-2.34-4.33-5.07,0-2.53,1.29-5.07,4.33-5.07s4.32,2.69,4.22,5.39Zm6.21-1a3.23,3.23,0,0,0-3.05-3.42c-1.93,0-2.95,1.67-3.16,3.42Z"/><path d="M530.46,203.94h1.17v13.27h-1.17Z"/><path d="M534.57,212.73c0,1.71.93,3.77,3.16,3.77a2.91,2.91,0,0,0,3-2.45h1.17c-.5,2.17-1.74,3.43-4.18,3.43-3.05,0-4.33-2.34-4.33-5.07,0-2.53,1.28-5.07,4.33-5.07S542,210,542,212.73Zm6.21-1c-.06-1.76-1.17-3.42-3-3.42s-3,1.67-3.16,3.42Z"/><path d="M543.53,207.62h1.08v2.24h0a3.5,3.5,0,0,1,3.62-2.37v1.17a3.3,3.3,0,0,0-3.57,3.43v5.12h-1.17Z"/><path d="M549.28,210.55c.13-2.25,1.67-3.21,3.88-3.21,1.69,0,3.53.5,3.53,3.08v5.09a.62.62,0,0,0,.69.71,1,1,0,0,0,.37-.07v1a3.06,3.06,0,0,1-.76.08c-1.19,0-1.37-.69-1.37-1.68h0a3.66,3.66,0,0,1-3.5,1.95c-1.78,0-3.21-.87-3.21-2.8,0-2.68,2.62-2.79,5.15-3.09,1-.09,1.5-.26,1.5-1.3,0-1.58-1.11-2-2.51-2s-2.51.67-2.56,2.23Zm6.24,1.41h0c-.14.28-.66.38-1,.43-2,.36-4.46.36-4.46,2.21a2,2,0,0,0,2.14,1.9,3.08,3.08,0,0,0,3.34-3Z"/><path d="M560.9,207.62h2v1h-2v6.47c0,.76.11,1.21.94,1.26.34,0,.67,0,1-.05v1c-.36,0-.69,0-1,0-1.56,0-2.1-.52-2.09-2.16V208.6h-1.67v-1h1.67v-2.89h1.18Z"/><path d="M564.56,203.94h1.17v1.87h-1.17Zm0,3.68h1.17v9.59h-1.17Z"/><path d="M576.57,212.41c0,2.75-1.62,5.07-4.54,5.07s-4.53-2.32-4.53-5.07,1.61-5.07,4.53-5.07S576.57,209.66,576.57,212.41Zm-7.9,0c0,2,1.13,4.09,3.36,4.09s3.36-2.06,3.36-4.09-1.13-4.09-3.36-4.09S568.67,210.38,568.67,212.41Z"/><path d="M578.3,207.62h1.17v1.65h0a3.25,3.25,0,0,1,3.06-1.93c2.7,0,3.51,1.41,3.51,3.7v6.17h-1.17v-6c0-1.64-.53-2.9-2.43-2.9s-3,1.41-3,3.29v5.6H578.3Z"/><path d="M594.29,212.84c-.06,2.73,1.89,3.57,4.33,3.57,1.39,0,3.51-.77,3.51-2.7,0-1.5-1.49-2.1-2.73-2.4l-3-.72c-1.56-.39-3-1.12-3-3.2,0-1.3.84-3.73,4.57-3.73,2.64,0,4.91,1.39,4.91,4.12h-1.27c-.09-2-1.73-3.05-3.62-3.05-1.73,0-3.33.67-3.33,2.64,0,1.25.91,1.79,2,2l3.23.8c1.88.5,3.44,1.34,3.44,3.49,0,.91-.37,3.79-5.07,3.79-3.14,0-5.45-1.41-5.3-4.64Z"/><path d="M605.87,212.73c0,1.71.93,3.77,3.16,3.77a2.91,2.91,0,0,0,3-2.45h1.17a3.9,3.9,0,0,1-4.18,3.43c-3,0-4.33-2.34-4.33-5.07,0-2.53,1.28-5.07,4.33-5.07s4.31,2.69,4.22,5.39Zm6.2-1a3.23,3.23,0,0,0-3-3.42c-1.94,0-3,1.67-3.16,3.42Z"/><path d="M614.81,207.62H616v1.65h0a3.26,3.26,0,0,1,3.06-1.93c2.7,0,3.52,1.41,3.52,3.7v6.17h-1.17v-6c0-1.64-.54-2.9-2.44-2.9s-3,1.41-3,3.29v5.6h-1.17Z"/><path d="M630.55,210.42c0-1.45-1.17-2.1-2.51-2.1-1,0-2.26.41-2.26,1.66,0,1,1.17,1.41,2,1.61l1.56.36c1.34.2,2.73,1,2.73,2.65,0,2.08-2.06,2.88-3.85,2.88-2.25,0-3.73-1-3.94-3.38h1.17a2.54,2.54,0,0,0,2.83,2.4c1.11,0,2.62-.48,2.62-1.82,0-1.12-1-1.49-2.1-1.75l-1.51-.33c-1.52-.39-2.67-.95-2.67-2.57,0-1.95,1.91-2.69,3.6-2.69,1.93,0,3.42,1,3.51,3.08Z"/><path d="M642.34,212.41c0,2.75-1.62,5.07-4.54,5.07s-4.53-2.32-4.53-5.07,1.62-5.07,4.53-5.07S642.34,209.66,642.34,212.41Zm-7.9,0c0,2,1.13,4.09,3.36,4.09s3.37-2.06,3.37-4.09-1.13-4.09-3.37-4.09S634.44,210.38,634.44,212.41Z"/><path d="M644.09,207.62h1.08v2.24h0a3.5,3.5,0,0,1,3.62-2.37v1.17a3.3,3.3,0,0,0-3.57,3.43v5.12h-1.17Z"/><path d="M433,239.53h6.24c2.53,0,4.24.81,4.24,3.29a2.89,2.89,0,0,1-1.8,2.77,3.22,3.22,0,0,1,2.43,3.36c0,2.69-2.28,3.85-4.68,3.85H433Zm2.92,5.37h2.95c1,0,1.79-.47,1.79-1.58s-1-1.53-2-1.53h-2.73Zm0,5.63H439c1.13,0,2.15-.37,2.15-1.75s-.83-1.89-2.1-1.89h-3.17Z"/><path d="M446.05,239.53h4.1l3.11,9.12h0l2.94-9.12h4.11V252.8h-2.73v-9.41h0l-3.25,9.41h-2.25l-3.25-9.32h0v9.32h-2.73Z"/><path d="M462.91,239.53h9.92V242h-7v2.84h6.43v2.27h-6.43v3.25H473v2.46H462.91Z"/><path d="M480.88,243.13a1.85,1.85,0,0,0-1.74-1.61c-1.9,0-2.44,2.52-2.49,3.95l0,0a3.29,3.29,0,0,1,2.94-1.45,4.15,4.15,0,0,1,3,1.34,4.44,4.44,0,0,1,1,2.9,4.52,4.52,0,0,1-4.56,4.76c-3.94,0-5-3.44-5-6.73s1.41-6.8,5.11-6.8a4,4,0,0,1,4.22,3.6Zm-4,5.34a2.23,2.23,0,0,0,2.1,2.41,2.18,2.18,0,0,0,2-2.38c0-1.22-.64-2.45-2-2.45A2.15,2.15,0,0,0,476.89,248.47Z"/><path d="M489.19,239.53c3.24,0,4.35,2.23,4.35,3.49a2.73,2.73,0,0,1-1.89,2.73v0a3,3,0,0,1,2.43,3.18c0,2.75-2.43,4.09-4.87,4.09s-4.94-1.27-4.94-4.07a3.07,3.07,0,0,1,2.45-3.2v0a2.59,2.59,0,0,1-1.91-2.67C484.81,240.73,487.08,239.53,489.19,239.53Zm0,11.54a2.13,2.13,0,0,0,2.23-2.2,2.1,2.1,0,0,0-2.23-2.08,2.07,2.07,0,0,0-2.3,2.07A2.19,2.19,0,0,0,489.21,251.07Zm0-6a1.77,1.77,0,1,0,0-3.51,1.81,1.81,0,0,0-2,1.8A1.78,1.78,0,0,0,489.19,245Z"/><path d="M499.49,239.53c2.61,0,4.8,1.63,4.8,6.71s-2.19,6.82-4.8,6.82-4.75-1.64-4.75-6.82S496.91,239.53,499.49,239.53Zm0,11.35c2.16,0,2.16-3.18,2.16-4.64s0-4.54-2.16-4.54-2.11,3.18-2.11,4.54S497.38,250.88,499.49,250.88Z"/><path d="M431.58,261.84H442.1v1.07h-4.63V275.1h-1.26V262.91h-4.63Z"/><path d="M441.75,270.63c0,1.71.93,3.77,3.16,3.77a2.91,2.91,0,0,0,3-2.45h1.17c-.5,2.17-1.74,3.43-4.18,3.43-3.05,0-4.33-2.34-4.33-5.07,0-2.53,1.28-5.07,4.33-5.07s4.31,2.69,4.22,5.39Zm6.21-1c-.06-1.76-1.17-3.42-3-3.42s-3,1.67-3.16,3.42Z"/><path d="M450.71,265.52h1.08v1.61h.06a3.29,3.29,0,0,1,3.14-1.89,2.67,2.67,0,0,1,2.75,1.87,3.23,3.23,0,0,1,3.05-1.87c2.11,0,3.17,1.11,3.17,3.36v6.5h-1.17v-6.44c0-1.58-.57-2.44-2.26-2.44-2,0-2.61,1.67-2.61,3.46v5.42h-1.17v-6.5c0-1.3-.5-2.38-2-2.38-2,0-2.87,1.53-2.87,3.53v5.35h-1.17Z"/><path d="M466.2,265.52h1.08v1.82h0a3.54,3.54,0,0,1,3.42-2.1c2.92,0,4.31,2.34,4.31,5.07s-1.39,5.07-4.31,5.07a3.39,3.39,0,0,1-3.32-2.1h0v5.37H466.2Zm4.53.7c-2.6,0-3.36,1.92-3.36,4.09,0,2,.89,4.09,3.36,4.09,2.23,0,3.15-2.1,3.15-4.09S473,266.22,470.73,266.22Z"/><path d="M477.56,270.63c0,1.71.93,3.77,3.16,3.77a2.91,2.91,0,0,0,3-2.45h1.17a3.9,3.9,0,0,1-4.18,3.43c-3.05,0-4.33-2.34-4.33-5.07,0-2.53,1.28-5.07,4.33-5.07s4.31,2.69,4.22,5.39Zm6.2-1a3.23,3.23,0,0,0-3-3.42c-1.94,0-3,1.67-3.16,3.42Z"/><path d="M486.52,265.52h1.08v2.24h0a3.52,3.52,0,0,1,3.63-2.37v1.17a3.3,3.3,0,0,0-3.57,3.43v5.11h-1.17Z"/><path d="M492.26,268.45c.13-2.25,1.68-3.21,3.89-3.21,1.69,0,3.53.5,3.53,3.08v5.09c0,.47.22.71.69.71a1,1,0,0,0,.37-.07v1a3.15,3.15,0,0,1-.77.07c-1.18,0-1.37-.68-1.37-1.67h0a3.63,3.63,0,0,1-3.49,1.95c-1.78,0-3.22-.87-3.22-2.8,0-2.68,2.62-2.79,5.15-3.09,1-.09,1.51-.26,1.51-1.3,0-1.58-1.12-2-2.51-2s-2.51.67-2.57,2.23Zm6.25,1.41h0c-.15.28-.67.38-1,.43-2,.36-4.46.36-4.46,2.21a2,2,0,0,0,2.14,1.9,3.09,3.09,0,0,0,3.35-3Z"/><path d="M503.88,265.52h1.95v1h-1.95V273c0,.76.11,1.21.95,1.26.33,0,.67,0,1-.05v1c-.35,0-.69,0-1,0-1.56,0-2.1-.52-2.08-2.16V266.5H501v-1h1.67v-2.89h1.17Z"/><path d="M515.29,275.1h-1.07v-1.72h0a3.57,3.57,0,0,1-3.31,2c-2.43,0-3.36-1.39-3.36-3.64v-6.22h1.17v6.24c.05,1.73.7,2.64,2.56,2.64s2.88-1.9,2.88-3.85v-5h1.17Z"/><path d="M517.51,265.52h1.08v2.24h0a3.52,3.52,0,0,1,3.63-2.37v1.17a3.3,3.3,0,0,0-3.57,3.43v5.11h-1.17Z"/><path d="M523.72,270.63c0,1.71.93,3.77,3.16,3.77a2.91,2.91,0,0,0,3-2.45h1.17a3.9,3.9,0,0,1-4.18,3.43c-3,0-4.33-2.34-4.33-5.07,0-2.53,1.28-5.07,4.33-5.07s4.31,2.69,4.22,5.39Zm6.2-1a3.23,3.23,0,0,0-3-3.42c-1.94,0-3,1.67-3.16,3.42Z"/><path d="M534.93,273.14v2a2.5,2.5,0,0,1-1.64,2.53v-.8c.6-.2.91-1.17.86-1.75h-.78v-2Z"/><path d="M543.24,261.84h1.26v5.76h7.88v-5.76h1.27V275.1h-1.27v-6.43H544.5v6.43h-1.26Z"/><path d="M563.87,275.1h-1.08v-1.72h0a3.58,3.58,0,0,1-3.31,2c-2.44,0-3.37-1.39-3.37-3.64v-6.22h1.18v6.24c0,1.73.7,2.64,2.56,2.64s2.88-1.9,2.88-3.85v-5h1.17Z"/><path d="M566.09,265.52h1.07v1.61h.06a3.29,3.29,0,0,1,3.14-1.89,2.66,2.66,0,0,1,2.75,1.87,3.24,3.24,0,0,1,3-1.87c2.12,0,3.18,1.11,3.18,3.36v6.5h-1.17v-6.44c0-1.58-.58-2.44-2.27-2.44-2,0-2.6,1.67-2.6,3.46v5.42h-1.17v-6.5c0-1.3-.51-2.38-2-2.38-2,0-2.86,1.53-2.86,3.53v5.35h-1.17Z"/><path d="M581.59,261.84h1.17v1.87h-1.17Zm0,3.68h1.17v9.58h-1.17Z"/><path d="M593.45,275.1h-1.08v-1.82h0a3.75,3.75,0,0,1-3.42,2.1c-2.91,0-4.31-2.34-4.31-5.07s1.4-5.07,4.31-5.07a3.41,3.41,0,0,1,3.33,2.1h0v-5.5h1.17Zm-4.54-.7c2.48,0,3.37-2.1,3.37-4.09s-.89-4.09-3.37-4.09c-2.23,0-3.14,2.1-3.14,4.09S586.68,274.4,588.91,274.4Z"/><path d="M595.7,261.84h1.17v1.87H595.7Zm0,3.68h1.17v9.58H595.7Z"/><path d="M601,265.52h1.95v1H601V273c0,.76.11,1.21.95,1.26.33,0,.67,0,1-.05v1c-.35,0-.69,0-1,0-1.56,0-2.1-.52-2.08-2.16V266.5h-1.67v-1h1.67v-2.89H601Z"/><path d="M603.55,265.52h1.24l3.16,8.17,3-8.17h1.17l-4.17,11.05c-.68,1.62-1.06,2.08-2.52,2.08a2.75,2.75,0,0,1-.9-.09v-1a4.36,4.36,0,0,0,.8.09c1,0,1.29-.61,1.68-1.51l.41-1.09Z"/><path d="M613.77,273.14v2a2.5,2.5,0,0,1-1.64,2.53v-.8c.6-.2.91-1.17.86-1.75h-.78v-2Z"/><path d="M622.08,261.84H628c2.38,0,3.94,1.39,3.94,3.79a3.59,3.59,0,0,1-3.94,3.79h-4.63v5.68h-1.26Zm1.26,6.5h4.35c1.77,0,3-.87,3-2.71s-1.19-2.72-3-2.72h-4.35Z"/><path d="M633.57,265.52h1.08v2.24h0a3.5,3.5,0,0,1,3.62-2.37v1.17a3.3,3.3,0,0,0-3.57,3.43v5.11h-1.17Z"/><path d="M639.78,270.63c0,1.71.93,3.77,3.16,3.77a2.91,2.91,0,0,0,3-2.45h1.17a3.9,3.9,0,0,1-4.18,3.43c-3.05,0-4.33-2.34-4.33-5.07,0-2.53,1.28-5.07,4.33-5.07s4.31,2.69,4.22,5.39Zm6.21-1c-.06-1.76-1.17-3.42-3-3.42s-3,1.67-3.16,3.42Z"/><path d="M654.48,268.32c-.05-1.45-1.17-2.1-2.51-2.1-1,0-2.26.41-2.26,1.66,0,1,1.17,1.41,2,1.61l1.56.36c1.33.2,2.73,1,2.73,2.65,0,2.08-2.06,2.88-3.85,2.88-2.25,0-3.73-1-3.94-3.38h1.17a2.53,2.53,0,0,0,2.83,2.4c1.11,0,2.62-.48,2.62-1.82,0-1.12-1-1.49-2.1-1.75l-1.51-.33c-1.52-.39-2.67-.95-2.67-2.57,0-1.95,1.91-2.69,3.6-2.69,1.93,0,3.42,1,3.51,3.08Z"/><path d="M663.42,268.32a2.2,2.2,0,0,0-2.5-2.1c-1,0-2.27.41-2.27,1.66,0,1,1.17,1.41,2,1.61l1.56.36c1.34.2,2.73,1,2.73,2.65,0,2.08-2.06,2.88-3.85,2.88-2.25,0-3.73-1-3.94-3.38h1.17a2.54,2.54,0,0,0,2.83,2.4c1.11,0,2.62-.48,2.62-1.82,0-1.12-1-1.49-2.1-1.75l-1.51-.33c-1.52-.39-2.67-.95-2.67-2.57,0-1.95,1.91-2.69,3.6-2.69,1.94,0,3.42,1,3.52,3.08Z"/><path d="M674.39,275.1h-1.08v-1.72h0a3.58,3.58,0,0,1-3.31,2c-2.43,0-3.36-1.39-3.36-3.64v-6.22h1.17v6.24c.05,1.73.7,2.64,2.56,2.64s2.88-1.9,2.88-3.85v-5h1.17Z"/><path d="M676.61,265.52h1.08v2.24h0a3.52,3.52,0,0,1,3.63-2.37v1.17a3.3,3.3,0,0,0-3.57,3.43v5.11h-1.17Z"/><path d="M682.82,270.63c0,1.71.93,3.77,3.16,3.77a2.91,2.91,0,0,0,3-2.45h1.17a3.9,3.9,0,0,1-4.18,3.43c-3.05,0-4.34-2.34-4.34-5.07,0-2.53,1.29-5.07,4.34-5.07s4.31,2.69,4.21,5.39Zm6.2-1a3.23,3.23,0,0,0-3-3.42c-1.94,0-3,1.67-3.16,3.42Z"/><path d="M432.68,290.76c.13-2.25,1.67-3.21,3.88-3.21,1.69,0,3.53.5,3.53,3.08v5.09a.62.62,0,0,0,.69.71.83.83,0,0,0,.37-.08v1a3,3,0,0,1-.76.07c-1.19,0-1.37-.68-1.37-1.67h0a3.65,3.65,0,0,1-3.49,1.95c-1.79,0-3.22-.87-3.22-2.8,0-2.68,2.62-2.79,5.15-3.09,1-.09,1.5-.26,1.5-1.3,0-1.58-1.11-2-2.5-2s-2.51.67-2.57,2.23Zm6.24,1.41h0c-.15.28-.67.38-1,.43-2,.35-4.46.35-4.46,2.21a2,2,0,0,0,2.14,1.9,3.08,3.08,0,0,0,3.34-3Z"/><path d="M442.42,287.82h1.17v1.66h0a3.28,3.28,0,0,1,3.07-1.93c2.69,0,3.51,1.41,3.51,3.69v6.17H449v-6c0-1.64-.54-2.9-2.44-2.9s-3,1.41-3,3.29v5.59h-1.17Z"/><path d="M460.86,297.41h-1.08v-1.82h0a3.77,3.77,0,0,1-3.42,2.1c-2.92,0-4.32-2.34-4.32-5.07s1.4-5.07,4.32-5.07a3.4,3.4,0,0,1,3.32,2.1h0v-5.5h1.17Zm-4.53-.7c2.47,0,3.36-2.1,3.36-4.09s-.89-4.09-3.36-4.09c-2.23,0-3.15,2.1-3.15,4.09S454.1,296.71,456.33,296.71Z"/><path d="M479.82,297.41h-.91l-.17-2.41h0a4.81,4.81,0,0,1-4.59,2.69c-4.19,0-6.27-3.27-6.27-6.91s2.08-6.91,6.27-6.91a5.2,5.2,0,0,1,5.53,4.4h-1.26a4.15,4.15,0,0,0-4.27-3.33c-3.52,0-5,2.94-5,5.84s1.48,5.84,5,5.84c2.93,0,4.64-2.05,4.59-4.87h-4.52v-1.08h5.63Z"/><path d="M481.93,290.76c.13-2.25,1.67-3.21,3.88-3.21,1.69,0,3.53.5,3.53,3.08v5.09c0,.47.22.71.69.71a.83.83,0,0,0,.37-.08v1a3.07,3.07,0,0,1-.76.07c-1.19,0-1.38-.68-1.38-1.67h0a3.66,3.66,0,0,1-3.5,1.95c-1.78,0-3.21-.87-3.21-2.8,0-2.68,2.62-2.79,5.15-3.09,1-.09,1.5-.26,1.5-1.3,0-1.58-1.11-2-2.51-2s-2.51.67-2.56,2.23Zm6.24,1.41h0c-.15.28-.67.38-1,.43-2,.35-4.46.35-4.46,2.21a2,2,0,0,0,2.14,1.9,3.08,3.08,0,0,0,3.34-3Z"/><path d="M497.43,290.63a2.21,2.21,0,0,0-2.51-2.1c-1,0-2.27.41-2.27,1.66,0,1,1.17,1.41,2,1.61l1.56.35c1.34.21,2.73,1,2.73,2.66,0,2.08-2.06,2.88-3.84,2.88-2.25,0-3.74-1-3.94-3.38h1.17a2.52,2.52,0,0,0,2.82,2.4c1.12,0,2.62-.48,2.62-1.82,0-1.12-1-1.49-2.1-1.75l-1.5-.33c-1.53-.39-2.68-.95-2.68-2.57,0-1.95,1.92-2.69,3.61-2.69,1.93,0,3.42,1,3.51,3.08Z"/><path d="M506.61,293.05c-.05,2.73,1.9,3.57,4.33,3.57,1.4,0,3.52-.77,3.52-2.7,0-1.5-1.49-2.1-2.74-2.4l-3-.72c-1.56-.39-3-1.12-3-3.2,0-1.3.83-3.73,4.57-3.73,2.64,0,4.91,1.39,4.91,4.12H514c-.09-2-1.73-3.05-3.62-3.05-1.73,0-3.33.67-3.33,2.64,0,1.25.91,1.79,2,2l3.23.8c1.88.5,3.44,1.34,3.44,3.49,0,.91-.37,3.79-5.07,3.79-3.14,0-5.45-1.41-5.3-4.64Z"/><path d="M518.2,292.94c0,1.71.92,3.77,3.16,3.77a2.91,2.91,0,0,0,3-2.45h1.17a3.9,3.9,0,0,1-4.18,3.43c-3.05,0-4.33-2.34-4.33-5.07,0-2.53,1.28-5.07,4.33-5.07s4.31,2.69,4.21,5.39Zm6.2-1a3.23,3.23,0,0,0-3-3.42c-1.94,0-3,1.67-3.16,3.42Z"/><path d="M527.14,287.82h1.17v1.66h0a3.26,3.26,0,0,1,3.06-1.93c2.7,0,3.52,1.41,3.52,3.69v6.17h-1.18v-6c0-1.64-.53-2.9-2.43-2.9s-3,1.41-3,3.29v5.59h-1.17Z"/><path d="M542.88,290.63c0-1.45-1.17-2.1-2.51-2.1-1,0-2.26.41-2.26,1.66,0,1,1.17,1.41,2,1.61l1.56.35c1.33.21,2.73,1,2.73,2.66,0,2.08-2.06,2.88-3.85,2.88-2.25,0-3.73-1-3.94-3.38h1.17a2.54,2.54,0,0,0,2.83,2.4c1.11,0,2.62-.48,2.62-1.82,0-1.12-1-1.49-2.1-1.75l-1.51-.33c-1.52-.39-2.67-.95-2.67-2.57,0-1.95,1.91-2.69,3.6-2.69,1.93,0,3.42,1,3.51,3.08Z"/><path d="M554.67,292.62c0,2.75-1.62,5.07-4.54,5.07s-4.53-2.32-4.53-5.07,1.62-5.07,4.53-5.07S554.67,289.87,554.67,292.62Zm-7.9,0c0,2,1.13,4.09,3.36,4.09s3.37-2.06,3.37-4.09-1.14-4.09-3.37-4.09S546.77,290.59,546.77,292.62Z"/><path d="M556.42,287.82h1.08v2.25h0a3.54,3.54,0,0,1,3.63-2.38v1.18a3.3,3.3,0,0,0-3.57,3.43v5.11h-1.17Z"/><rect class="cls-33" x="388.83" y="175.94" width="25.03" height="25.03" rx="4"/><path d="M403.3,194.9h-2.44v-7.8h-3v-1.83c1.7,0,3.25-.55,3.52-2.39h1.94Z"/><rect class="cls-33" x="390.04" y="234.57" width="25.03" height="25.03" rx="4"/><path d="M398.42,246.13c-.09-2.75,1.48-4.86,4.36-4.86A3.83,3.83,0,0,1,406.9,245c0,3.64-3.86,3.93-5.61,6.4H407v2.1h-8.83c0-2.8,1.72-3.95,3.8-5.38,1.05-.73,2.52-1.46,2.52-2.93a1.73,1.73,0,0,0-1.8-1.86c-1.44,0-1.91,1.5-1.91,2.77Z"/><rect class="cls-33" x="197.87" y="347.28" width="16.07" height="16.07" rx="4"/><path d="M207.16,359.45H205.6v-5h-1.94v-1.17c1.09,0,2.08-.36,2.25-1.54h1.25Z"/><rect class="cls-33" x="148.78" y="446.41" width="16.07" height="16.07" rx="4"/><path d="M154.16,453.83a2.74,2.74,0,0,1,2.8-3.12,2.45,2.45,0,0,1,2.64,2.41c0,2.34-2.48,2.53-3.6,4.11h3.64v1.35H154c0-1.8,1.1-2.54,2.44-3.45.67-.47,1.61-.94,1.61-1.88a1.1,1.1,0,0,0-1.15-1.19c-.93,0-1.23.95-1.23,1.77Z"/><line class="cls-31" x1="308.23" y1="661.67" x2="308.23" y2="684.45"/><line class="cls-31" x1="56.2" y1="661.67" x2="56.2" y2="684.45"/></svg>