<svg xmlns="http://www.w3.org/2000/svg" viewBox="20 0 160 70"><defs><style>.cls-1{fill:#fff;}.cls-2{fill:none;}</style></defs><g id="Layer_2" data-name="Layer 2"><g id="Layer_1-2" data-name="Layer 1"><path class="cls-1" d="M41.57,26.93a4.34,4.34,0,0,1,.34,1.58c0,.71.07,2.84.09,3.46.7,0,1.62-.09,2.24-.09s2.64,0,5.62-.1h.19a2.69,2.69,0,0,0,2.82-2.55c.21-2-.87-2.45-.92-2.47a10.89,10.89,0,0,0-4.4-.78l-.72,0A29.32,29.32,0,0,0,41.57,26.93Z"/><path class="cls-1" d="M38.22,24.66a4.43,4.43,0,0,1,1.2.31,4.68,4.68,0,0,1,1.48.89,27,27,0,0,1,5.63-1.08c.37,0,.75,0,1.12,0a13.9,13.9,0,0,1,4,.54,7,7,0,0,0,.62-.56A2.91,2.91,0,0,0,53,23.25,3.17,3.17,0,0,0,52.67,21c-.34-.65-1.23-1-2.64-1H49.4q-.42,0-.93,0a13.87,13.87,0,0,0-4.8.89A16.47,16.47,0,0,0,38.22,24.66Z"/><path class="cls-1" d="M31.54,24.57a5.12,5.12,0,0,1,1.91.35A5,5,0,0,1,34.84,26a3.69,3.69,0,0,1,.47-.54,3.44,3.44,0,0,1,1.08-.63c.48-.53,1.39-1.51,2.31-2.35a15.85,15.85,0,0,1,5.9-3.32,14,14,0,0,1,4.23-.55,19,19,0,0,1,2.16.11,3.65,3.65,0,0,0,1.55-2.63c0-2.15-.82-2.66-4.44-2.83A17.47,17.47,0,0,0,36.54,17.4,19,19,0,0,0,31.54,24.57Z"/><path class="cls-1" d="M46.92,33.06c0,.62.09,1.6.09,2.24,0,.86.07,3.91.09,5.21l0,.61a2.69,2.69,0,0,0,2.55,2.82l.47,0c1.59,0,2-.93,2-.94a11.53,11.53,0,0,0,.77-5.12A29,29,0,0,0,52,32.64a4.34,4.34,0,0,1-1.58.34Z"/><path class="cls-1" d="M53.62,42.69a5.34,5.34,0,0,0,.56.62,2.87,2.87,0,0,0,1.46.74,3.65,3.65,0,0,0,.77.09,3.2,3.2,0,0,0,1.52-.4c.65-.35,1-1.23,1-2.64,0-.17,0-.36,0-.57v-.06a13.91,13.91,0,0,0-.87-5.73,16.22,16.22,0,0,0-3.83-5.45,4.09,4.09,0,0,1-.31,1.2A4.68,4.68,0,0,1,53,32a27.27,27.27,0,0,1,1.09,5.63A14.77,14.77,0,0,1,53.62,42.69Z"/><path class="cls-1" d="M60.18,42.06a3.57,3.57,0,0,0,2.58,1.55c2.19,0,2.7-.82,2.88-4.44a17.6,17.6,0,0,0-4.15-11.56,19,19,0,0,0-7.17-5A4.89,4.89,0,0,1,54,24.52a5,5,0,0,1-1.08,1.39,3.67,3.67,0,0,1,.54.46,3.41,3.41,0,0,1,.63,1.09c.43.39,1.47,1.34,2.36,2.31a15.75,15.75,0,0,1,3.31,5.9A17.91,17.91,0,0,1,60.18,42.06Z"/><path class="cls-1" d="M45.86,38c-.53,0-1.57.09-2.24.09s-2.48,0-5.51.1h-.3A2.69,2.69,0,0,0,35,40.78c-.21,2,.87,2.44.91,2.46A11.57,11.57,0,0,0,41,44a28.16,28.16,0,0,0,5.25-.93A4.6,4.6,0,0,1,46,41.49c0-.46-.05-1.62-.09-3.44Z"/><path class="cls-1" d="M36.23,44.73a5.89,5.89,0,0,0-.61.56,2.88,2.88,0,0,0-.75,1.46A3.17,3.17,0,0,0,35.19,49c.34.65,1.23,1,2.63,1l.61,0,1,0a13.66,13.66,0,0,0,4.8-.89,16.27,16.27,0,0,0,5.44-3.83A4.11,4.11,0,0,1,48.44,45,4.56,4.56,0,0,1,47,44.14a27.12,27.12,0,0,1-5.63,1.09c-.37,0-.75,0-1.13,0A14.39,14.39,0,0,1,36.23,44.73Z"/><path class="cls-1" d="M36.87,51.29a3.57,3.57,0,0,0-1.55,2.62c0,2.15.82,2.66,4.44,2.84h.63A17.87,17.87,0,0,0,51.32,52.6a19.05,19.05,0,0,0,5-7.17A3.9,3.9,0,0,1,53,44a3.64,3.64,0,0,1-.47.54,3.34,3.34,0,0,1-1.08.63c-.32.35-1.3,1.43-2.31,2.36a15.89,15.89,0,0,1-5.9,3.31A14,14,0,0,1,39,51.4C38,51.4,37.17,51.32,36.87,51.29Z"/><path class="cls-1" d="M37.68,26.07c-1.57,0-2,.91-2,.95a11.53,11.53,0,0,0-.77,5.12,28.57,28.57,0,0,0,.94,5.25,4.37,4.37,0,0,1,1.58-.33c.34,0,1.21,0,3.46-.09,0-.5-.09-1.56-.09-2.24s0-2.57-.1-5.62v-.2a2.69,2.69,0,0,0-2.55-2.81A3.87,3.87,0,0,0,37.68,26.07Z"/><path class="cls-1" d="M31.42,25.89a3.21,3.21,0,0,0-1.52.41c-.65.34-1,1.23-1,2.63,0,.19,0,.4,0,.64a13.75,13.75,0,0,0,.87,5.73,16.38,16.38,0,0,0,3.83,5.44,4.11,4.11,0,0,1,.31-1.19,4.44,4.44,0,0,1,.89-1.48,27,27,0,0,1-1.09-5.63,14.84,14.84,0,0,1,.5-5.1,5.4,5.4,0,0,0-.56-.61A2.88,2.88,0,0,0,32.19,26,3.65,3.65,0,0,0,31.42,25.89Z"/><path class="cls-1" d="M25,26.43c-2.15,0-2.66.82-2.84,4.44a17.58,17.58,0,0,0,4.15,11.56,19.21,19.21,0,0,0,7.17,5,5,5,0,0,1,.35-1.91,5,5,0,0,1,1.07-1.39,3.6,3.6,0,0,1-.53-.47,3.36,3.36,0,0,1-.63-1.09c-.43-.38-1.48-1.34-2.36-2.31a15.79,15.79,0,0,1-3.31-5.89A17.91,17.91,0,0,1,27.65,28a3.49,3.49,0,0,0-2.58-1.55Z"/><path class="cls-1" d="M96.7,19.84a9.81,9.81,0,0,1,3.65.65,8.39,8.39,0,0,1,2.79,1.8,7.72,7.72,0,0,1,1.77,2.64,8.45,8.45,0,0,1,.62,3.23,9.15,9.15,0,0,1-1.12,4.61,7.11,7.11,0,0,1-3.66,3v.08a5.19,5.19,0,0,1,2,1,5.82,5.82,0,0,1,1.31,1.65,7.85,7.85,0,0,1,.74,2.09,17.77,17.77,0,0,1,.32,2.29c0,.48,0,1,.08,1.69s.08,1.31.15,2a12.37,12.37,0,0,0,.34,1.92,4.25,4.25,0,0,0,.7,1.55H99.78a11.47,11.47,0,0,1-.67-3.43c-.09-1.32-.22-2.59-.38-3.8a6,6,0,0,0-1.44-3.46,4.9,4.9,0,0,0-3.59-1.1H87.06V50H80.43V19.84ZM94.33,33.49a5,5,0,0,0,3.42-1,4.19,4.19,0,0,0,1.14-3.29A4,4,0,0,0,97.75,26a5,5,0,0,0-3.42-1H87.06v8.5Z"/><path class="cls-1" d="M125.23,19.84,136.51,50h-6.88l-2.28-6.72H116.07L113.7,50H107l11.41-30.17Zm.38,18.5-3.8-11.07h-.08L117.8,38.34Z"/><path class="cls-1" d="M144.58,19.84v12.5l11.79-12.5h8.28L152.86,31.75,165.79,50h-8.32l-9.09-13.57-3.8,3.85V50H138V19.84Z"/><path class="cls-1" d="M174.81,23.78a4,4,0,0,1-4,4,4,4,0,1,1,0-7.94A4,4,0,0,1,174.81,23.78Zm-7.1,0a3.06,3.06,0,0,0,3.08,3.16,3.16,3.16,0,0,0,0-6.31A3.07,3.07,0,0,0,167.71,23.78Zm2.43,2.07h-.91V21.91a8.22,8.22,0,0,1,1.52-.12,2.45,2.45,0,0,1,1.37.29,1.09,1.09,0,0,1,.38.86,1,1,0,0,1-.82.92v.05a1.15,1.15,0,0,1,.73,1,2.82,2.82,0,0,0,.29,1h-1a3.29,3.29,0,0,1-.31-1c-.08-.43-.32-.62-.82-.62h-.44Zm0-2.23h.43c.51,0,.92-.17.92-.58s-.27-.6-.85-.6a1.8,1.8,0,0,0-.5,0Z"/><rect class="cls-2" width="200" height="70"/></g></g></svg>