<svg xmlns="http://www.w3.org/2000/svg" viewBox="0 0 11.92 3.4"><defs><style>.cls-1{fill:#fff;}</style></defs><g id="Layer_2" data-name="Layer 2"><g id="Layer_1-2" data-name="Layer 1"><path class="cls-1" d="M1.52,1.07a.37.37,0,0,1,0,.12c0,.06,0,.22,0,.27h.63a.22.22,0,0,0,.22-.2c0-.16-.07-.19-.07-.19A.77.77,0,0,0,2,1H1.93a1.81,1.81,0,0,0-.41.07"/><path class="cls-1" d="M1.25.89a.38.38,0,0,1,.1,0A.2.2,0,0,1,1.46,1,2.47,2.47,0,0,1,1.9.9H2a1.36,1.36,0,0,1,.31,0l.05,0A.27.27,0,0,0,2.41.78a.26.26,0,0,0,0-.18S2.29.53,2.18.53H2.05a1.12,1.12,0,0,0-.37.07,1.4,1.4,0,0,0-.43.3"/><path class="cls-1" d="M.73.89a.36.36,0,0,1,.15,0A.48.48,0,0,1,1,1L1,1a.15.15,0,0,1,.08,0L1.29.72A1.38,1.38,0,0,1,1.75.46a1.06,1.06,0,0,1,.33,0h.17A.28.28,0,0,0,2.37.22C2.37.05,2.31,0,2,0a1.38,1.38,0,0,0-.91.33A1.35,1.35,0,0,0,.73.89"/><path class="cls-1" d="M1.93,1.55a1,1,0,0,1,0,.17c0,.07,0,.31,0,.41v.05a.21.21,0,0,0,.2.22h0c.13,0,.16-.07.16-.07a1,1,0,0,0,.06-.4,2.63,2.63,0,0,0-.07-.41l-.13,0H1.93"/><path class="cls-1" d="M2.46,2.3s0,0,0,.05a.24.24,0,0,0,.11.06h.06a.27.27,0,0,0,.12,0s.08-.09.08-.2V2.13h0a1.08,1.08,0,0,0-.07-.45,1.25,1.25,0,0,0-.3-.43.36.36,0,0,1,0,.1.42.42,0,0,1-.07.11,2.47,2.47,0,0,1,.09.44,1.44,1.44,0,0,1,0,.4"/><path class="cls-1" d="M3,2.25a.28.28,0,0,0,.2.12c.17,0,.21-.06.23-.34a1.44,1.44,0,0,0-.33-.91A1.42,1.42,0,0,0,2.51.73a.37.37,0,0,1,0,.15A.44.44,0,0,1,2.4,1s0,0,0,0a.18.18,0,0,1,.05.08s.12.11.18.18a1.1,1.1,0,0,1,.26.46,1.38,1.38,0,0,1,0,.5"/><path class="cls-1" d="M1.85,1.94H1.22a.22.22,0,0,0-.22.2c0,.15.07.19.07.19a.86.86,0,0,0,.4.06,1.81,1.81,0,0,0,.41-.07.37.37,0,0,1,0-.12s0-.13,0-.27Z"/><path class="cls-1" d="M1.1,2.46l-.05,0A.27.27,0,0,0,1,2.62.26.26,0,0,0,1,2.8c0,.05.09.07.2.07h.12a1.13,1.13,0,0,0,.38-.07,1.23,1.23,0,0,0,.42-.3.32.32,0,0,1-.09,0,.26.26,0,0,1-.11-.07,2.47,2.47,0,0,1-.44.09H1.41a1.19,1.19,0,0,1-.31,0"/><path class="cls-1" d="M1.15,3A.28.28,0,0,0,1,3.18c0,.17.06.2.34.22h0a1.4,1.4,0,0,0,.86-.33,1.58,1.58,0,0,0,.39-.56.36.36,0,0,1-.15,0,.33.33,0,0,1-.11-.09l0,.05-.08,0a2.51,2.51,0,0,1-.18.19,1.38,1.38,0,0,1-.46.26,1.06,1.06,0,0,1-.33,0H1.15"/><path class="cls-1" d="M1.21,1c-.12,0-.15.07-.15.08a.91.91,0,0,0-.06.4,1.81,1.81,0,0,0,.07.41.35.35,0,0,1,.12,0h.27V1.68c0-.05,0-.2,0-.44v0A.22.22,0,0,0,1.25,1h0"/><path class="cls-1" d="M.72,1A.27.27,0,0,0,.6,1s-.07.1-.07.21v.05a1,1,0,0,0,.06.44,1.4,1.4,0,0,0,.3.43.32.32,0,0,1,0-.09A.25.25,0,0,1,1,1.94,2.28,2.28,0,0,1,.9,1.5a1.44,1.44,0,0,1,0-.4l0-.05A.26.26,0,0,0,.78,1H.72"/><path class="cls-1" d="M.22,1C.05,1,0,1.09,0,1.38a1.34,1.34,0,0,0,.33.9,1.35,1.35,0,0,0,.56.39.39.39,0,0,1,0-.15A.48.48,0,0,1,1,2.41L1,2.38a.23.23,0,0,1,0-.09,1.42,1.42,0,0,1-.19-.18,1.29,1.29,0,0,1-.26-.46,1.31,1.31,0,0,1,0-.5A.3.3,0,0,0,.23,1Z"/><path class="cls-1" d="M5.82.52a.68.68,0,0,1,.29,0,.6.6,0,0,1,.21.14.52.52,0,0,1,.14.2.58.58,0,0,1,0,.26.74.74,0,0,1-.09.36.55.55,0,0,1-.28.23h0a.8.8,0,0,1,.16.08A.64.64,0,0,1,6.4,2a.85.85,0,0,1,.06.17,1,1,0,0,1,0,.17s0,.09,0,.14a.76.76,0,0,0,0,.15.8.8,0,0,0,0,.15.33.33,0,0,0,0,.12H6.06A.93.93,0,0,1,6,2.6l0-.29A.49.49,0,0,0,5.87,2,.38.38,0,0,0,5.59,2H5.07v.92H4.55V.52ZM5.64,1.58A.34.34,0,0,0,5.9,1.5.33.33,0,0,0,6,1.24.3.3,0,0,0,5.9,1,.34.34,0,0,0,5.64.92H5.07v.66Z"/><path class="cls-1" d="M8.05.52l.88,2.35H8.39l-.17-.52H7.33l-.18.52H6.63L7.52.52ZM8.08,2l-.3-.86h0L7.47,2Z"/><polygon class="cls-1" points="9.56 0.52 9.56 1.49 10.48 0.52 11.13 0.52 10.21 1.45 11.22 2.87 10.57 2.87 9.86 1.81 9.56 2.11 9.56 2.87 9.04 2.87 9.04 0.52 9.56 0.52"/><path class="cls-1" d="M11.92.82a.31.31,0,0,1-.31.32.32.32,0,0,1-.32-.32.31.31,0,0,1,.32-.3.3.3,0,0,1,.31.3m-.55,0a.24.24,0,0,0,.24.25.23.23,0,0,0,.23-.24.23.23,0,0,0-.23-.25.24.24,0,0,0-.24.24m.19.17h-.07V.68h.12l.1,0a.08.08,0,0,1,0,.07.07.07,0,0,1-.06.07h0a.1.1,0,0,1,.06.08.29.29,0,0,0,0,.08h-.08a.45.45,0,0,1,0-.08.07.07,0,0,0-.07-.05h0Zm0-.18h0s.08,0,.08,0,0-.05-.07-.05h0Z"/></g></g></svg>