<svg xmlns="http://www.w3.org/2000/svg" viewBox="0 0 21.22 7.24"><defs><style>.cls-1{fill:#bbbcbc;}</style></defs><g id="Layer_2" data-name="Layer 2"><g id="Layer_1-2" data-name="Layer 1"><path class="cls-1" d="M2.7,1.9a.57.57,0,0,1,0,.22c0,.1,0,.4,0,.48H3.88a.39.39,0,0,0,.39-.36c0-.27-.12-.34-.13-.34a1.5,1.5,0,0,0-.61-.11h-.1a5.53,5.53,0,0,0-.73.13"/><path class="cls-1" d="M2.23,1.59a.53.53,0,0,1,.17,0,1.09,1.09,0,0,1,.2.12,4.59,4.59,0,0,1,.79-.15h.15a2.2,2.2,0,0,1,.55.07.28.28,0,0,0,.09-.07.38.38,0,0,0,.1-.21.43.43,0,0,0,0-.32c0-.09-.17-.13-.37-.13H3.65A1.75,1.75,0,0,0,3,1.06a2.24,2.24,0,0,0-.76.53"/><path class="cls-1" d="M1.3,1.58a.84.84,0,0,1,.27,0,1,1,0,0,1,.19.15.46.46,0,0,1,.07-.07A.35.35,0,0,1,2,1.61a4.48,4.48,0,0,1,.32-.33A2.33,2.33,0,0,1,3.12.82,2,2,0,0,1,3.7.75H4A.53.53,0,0,0,4.22.4C4.22.1,4.11,0,3.6,0A2.44,2.44,0,0,0,2,.58a2.64,2.64,0,0,0-.7,1"/><path class="cls-1" d="M3.44,2.76c0,.08,0,.22,0,.31s0,.54,0,.72v.09a.38.38,0,0,0,.35.39h.07c.22,0,.27-.13.27-.13a1.54,1.54,0,0,0,.11-.71,3.46,3.46,0,0,0-.13-.73.57.57,0,0,1-.22,0l-.48,0"/><path class="cls-1" d="M4.37,4.09l.08.09a.38.38,0,0,0,.2.1l.11,0A.42.42,0,0,0,5,4.24c.09,0,.14-.17.14-.37V3.79h0A1.8,1.8,0,0,0,5,3a2.39,2.39,0,0,0-.53-.76.55.55,0,0,1,0,.17.53.53,0,0,1-.12.2,3.77,3.77,0,0,1,.15.79,1.78,1.78,0,0,1-.07.7"/><path class="cls-1" d="M5.28,4a.54.54,0,0,0,.36.21C6,4.22,6,4.11,6,3.6A2.42,2.42,0,0,0,5.47,2a2.8,2.8,0,0,0-1-.7.65.65,0,0,1,0,.27,1,1,0,0,1-.15.19l.08.07A.44.44,0,0,1,4.43,2a3,3,0,0,1,.33.32,2.19,2.19,0,0,1,.46.82A2.46,2.46,0,0,1,5.28,4"/><path class="cls-1" d="M3.29,3.45H2.17a.39.39,0,0,0-.39.36c0,.27.12.34.13.34a1.64,1.64,0,0,0,.71.11,4.25,4.25,0,0,0,.73-.13.57.57,0,0,1,0-.22c0-.07,0-.23,0-.48Z"/><path class="cls-1" d="M2,4.38l-.08.08a.36.36,0,0,0-.11.2A.5.5,0,0,0,1.81,5c.05.09.17.13.37.13h.21A1.76,1.76,0,0,0,3.06,5a2.24,2.24,0,0,0,.76-.53.53.53,0,0,1-.17,0,.53.53,0,0,1-.2-.12,4.59,4.59,0,0,1-.79.15H2.51A2.15,2.15,0,0,1,2,4.38"/><path class="cls-1" d="M2,5.29a.48.48,0,0,0-.21.36c0,.3.11.37.61.4h.09a2.49,2.49,0,0,0,1.52-.58,2.7,2.7,0,0,0,.7-1,1.17,1.17,0,0,1-.27-.05.74.74,0,0,1-.19-.15l-.07.07a.42.42,0,0,1-.15.09,4.19,4.19,0,0,1-.32.33,2.33,2.33,0,0,1-.82.46,2,2,0,0,1-.59.07H2"/><path class="cls-1" d="M2.16,1.78c-.22,0-.28.13-.28.14a1.63,1.63,0,0,0-.11.71,5.86,5.86,0,0,0,.13.73.8.8,0,0,1,.22,0H2.6c0-.07,0-.22,0-.31s0-.36,0-.78v0a.38.38,0,0,0-.36-.39H2.16"/><path class="cls-1" d="M1.28,1.76a.42.42,0,0,0-.21.06C1,1.86.94,2,.94,2.18a.28.28,0,0,1,0,.09,2,2,0,0,0,.13.8,2.29,2.29,0,0,0,.53.75.47.47,0,0,1,0-.16,1.07,1.07,0,0,1,.12-.21,4.42,4.42,0,0,1-.15-.78A2.43,2.43,0,0,1,1.67,2L1.6,1.87a.46.46,0,0,0-.21-.1H1.28"/><path class="cls-1" d="M.4,1.83C.1,1.84,0,2,0,2.45A2.52,2.52,0,0,0,.58,4.06a2.48,2.48,0,0,0,1,.69.78.78,0,0,1,0-.26.8.8,0,0,1,.15-.2L1.7,4.23a.42.42,0,0,1-.09-.15l-.33-.32a2.43,2.43,0,0,1-.46-.82,2.48,2.48,0,0,1-.06-.89A.47.47,0,0,0,.4,1.83Z"/><path class="cls-1" d="M10.36.92a1.36,1.36,0,0,1,.51.09,1.14,1.14,0,0,1,.39.25,1,1,0,0,1,.24.37,1,1,0,0,1,.09.44,1.19,1.19,0,0,1-.16.64.94.94,0,0,1-.51.42h0a.78.78,0,0,1,.29.14,1,1,0,0,1,.18.23,1.42,1.42,0,0,1,.1.29,1.75,1.75,0,0,1,0,.32c0,.07,0,.14,0,.23a2.64,2.64,0,0,0,0,.28,2.51,2.51,0,0,0,0,.27,1,1,0,0,0,.1.21h-.92a1.94,1.94,0,0,1-.1-.47,4.34,4.34,0,0,0,0-.53.82.82,0,0,0-.2-.48.65.65,0,0,0-.5-.16H9V5.11H8.1V.92ZM10,2.81a.69.69,0,0,0,.48-.14.58.58,0,0,0,.16-.45.58.58,0,0,0-.16-.45A.74.74,0,0,0,10,1.63H9V2.81Z"/><path class="cls-1" d="M14.33.92,15.9,5.11h-1l-.32-.93H13.05l-.33.93H11.8L13.38.92Zm.05,2.57L13.85,2h0l-.55,1.54Z"/><polygon class="cls-1" points="17.02 0.92 17.02 2.66 18.66 0.92 19.81 0.92 18.17 2.57 19.96 5.11 18.81 5.11 17.55 3.23 17.02 3.76 17.02 5.11 16.09 5.11 16.09 0.92 17.02 0.92"/><rect class="cls-1" x="8.11" y="5.99" width="0.21" height="0.97"/><path class="cls-1" d="M8.51,6.46a.34.34,0,0,1,.06-.12.41.41,0,0,1,.11-.07.33.33,0,0,1,.15,0,.32.32,0,0,1,.14,0,.3.3,0,0,1,.11.07.75.75,0,0,1,.07.12.77.77,0,0,1,0,.15.59.59,0,0,1,0,.14.47.47,0,0,1-.07.12A.31.31,0,0,1,9,7L8.83,7,8.68,7l-.11-.08a.27.27,0,0,1-.06-.12.32.32,0,0,1,0-.14.39.39,0,0,1,0-.15m.11.26a.56.56,0,0,0,.05.08.15.15,0,0,0,.07,0,.15.15,0,0,0,.09,0,.11.11,0,0,0,.08,0A.12.12,0,0,0,9,6.8a.22.22,0,0,0,0-.08.36.36,0,0,0,0-.11.43.43,0,0,0,0-.12.22.22,0,0,0,0-.08.18.18,0,0,0-.07,0l-.08,0-.09,0-.07,0a.56.56,0,0,0-.05.08.45.45,0,0,0,0,.12.37.37,0,0,0,0,.11"/><polygon class="cls-1" points="9.14 6.17 9.14 5.99 9.94 5.99 9.94 6.17 9.65 6.17 9.65 6.96 9.43 6.96 9.43 6.17 9.14 6.17"/><polygon class="cls-1" points="10.57 5.99 10.87 6.8 11.18 5.99 11.36 5.99 11.36 6.96 11.23 6.96 11.23 6.15 11.23 6.15 10.93 6.96 10.82 6.96 10.52 6.15 10.51 6.15 10.51 6.96 10.39 6.96 10.39 5.99 10.57 5.99"/><path class="cls-1" d="M12.18,7H12.1L12,7a.11.11,0,0,1,0-.08L11.89,7l-.14,0h-.09a.15.15,0,0,1-.07,0l-.05-.06a.29.29,0,0,1,0-.09.25.25,0,0,1,0-.1.1.1,0,0,1,.05-.06l.08,0,.09,0h.09l.07,0,.06,0a.07.07,0,0,0,0,0s0,0,0-.06a.08.08,0,0,0,0,0l0,0h-.05a.21.21,0,0,0-.12,0s-.05,0-.06.1h-.11a.36.36,0,0,1,0-.11.23.23,0,0,1,.07-.07l.09,0h.21l.08,0,.07.06a.3.3,0,0,1,0,.1v.42l0,0h0ZM12,6.59s0,0-.05,0h-.16l-.07,0a.1.1,0,0,0-.05,0,.14.14,0,0,0,0,.07s0,0,0,.05l0,0,.05,0h.15l.06,0a.21.21,0,0,0,0-.06.07.07,0,0,0,0,0Z"/><path class="cls-1" d="M12.81,7v-.1h0a.2.2,0,0,1-.09.09l-.13,0a.29.29,0,0,1-.14,0,.2.2,0,0,1-.1-.08.24.24,0,0,1-.06-.11.4.4,0,0,1,0-.15.68.68,0,0,1,0-.14l.06-.11a.23.23,0,0,1,.11-.08.29.29,0,0,1,.14,0h.05l.07,0,.06,0a.1.1,0,0,1,0,0h0V6h.11V7Zm-.42-.25a.2.2,0,0,0,0,.08.13.13,0,0,0,.07.06.16.16,0,0,0,.1,0l.09,0,.07-.06a.25.25,0,0,0,0-.09.28.28,0,0,0,0-.09.31.31,0,0,0,0-.1.25.25,0,0,0,0-.09l-.07-.06-.1,0-.1,0-.07.06,0,.09a.51.51,0,0,0,0,.2"/><path class="cls-1" d="M13.6,6.91a.32.32,0,0,1-.2.06l-.14,0-.11-.08a.34.34,0,0,1-.06-.12.61.61,0,0,1,0-.15.32.32,0,0,1,0-.14.35.35,0,0,1,.07-.12.23.23,0,0,1,.1-.07.32.32,0,0,1,.14,0,.29.29,0,0,1,.25.14.29.29,0,0,1,0,.13.59.59,0,0,1,0,.13h-.53a.28.28,0,0,0,0,.09.16.16,0,0,0,0,.07.18.18,0,0,0,.07,0,.16.16,0,0,0,.1,0,.21.21,0,0,0,.12,0,.17.17,0,0,0,.06-.11h.12a.28.28,0,0,1-.11.18m0-.45a.21.21,0,0,0,0-.06s0,0-.06,0l-.08,0-.08,0s-.05,0-.06,0l0,.06a.24.24,0,0,0,0,.08h.4a.12.12,0,0,0,0-.08"/><polygon class="cls-1" points="14.85 5.99 14.85 6.09 14.31 6.09 14.31 6.4 14.81 6.4 14.81 6.51 14.31 6.51 14.31 6.85 14.85 6.85 14.85 6.96 14.18 6.96 14.18 5.99 14.85 5.99"/><path class="cls-1" d="M15.62,7h-.08l-.07,0a.11.11,0,0,1,0-.08L15.33,7l-.14,0H15.1a.15.15,0,0,1-.07,0l0-.06a.29.29,0,0,1,0-.09.25.25,0,0,1,0-.1.1.1,0,0,1,0-.06l.08,0,.09,0h.09l.07,0a.11.11,0,0,0,.06,0,.08.08,0,0,0,0,0,.08.08,0,0,0,0-.06.08.08,0,0,0,0,0l-.05,0h-.05a.21.21,0,0,0-.12,0s-.05,0-.06.1H15a.36.36,0,0,1,0-.11.23.23,0,0,1,.07-.07l.09,0h.21l.09,0,.06.06a.3.3,0,0,1,0,.1v.42a.05.05,0,0,0,0,0h0Zm-.19-.37s0,0,0,0h-.16l-.07,0-.05,0a.14.14,0,0,0,0,.07s0,0,0,.05l0,0,.05,0h.15l.06,0,0-.06a.07.07,0,0,0,0,0Z"/><path class="cls-1" d="M15.83,6.8a.08.08,0,0,0,0,0l.06,0h.13l.05,0s0,0,0,0a.08.08,0,0,0,0-.05.09.09,0,0,0,0-.07l-.09,0-.11,0-.11,0a.24.24,0,0,1-.09-.06.15.15,0,0,1,0-.1.2.2,0,0,1,0-.09.13.13,0,0,1,.07-.06.2.2,0,0,1,.08,0h.2l.09,0a.13.13,0,0,1,.06.07.2.2,0,0,1,0,.11h-.11s0,0,0-.06l0,0-.05,0h-.11l0,0s0,0,0,0a.05.05,0,0,0,0,0,.08.08,0,0,0,0,.05l.06,0,.07,0,.08,0,.09,0a.15.15,0,0,1,.07,0l.05.06a.11.11,0,0,1,0,.08.31.31,0,0,1,0,.11.23.23,0,0,1-.07.07.29.29,0,0,1-.1,0h-.22a.25.25,0,0,1-.09,0,.23.23,0,0,1-.07-.07.36.36,0,0,1,0-.11h.11a.14.14,0,0,0,0,.06"/><path class="cls-1" d="M16.69,7.05l0,.09,0,.06-.05,0H16.4V7.12h.07l.06,0a.1.1,0,0,0,0,0l0-.12-.28-.7h.14l.2.58h0l.2-.58H17Z"/><path class="cls-1" d="M21.22,1.47a.54.54,0,0,1-.56.55.55.55,0,1,1,0-1.1.54.54,0,0,1,.56.55m-1,0a.43.43,0,1,0,.85,0,.43.43,0,1,0-.85,0m.34.28h-.13V1.21l.21,0a.35.35,0,0,1,.19,0,.16.16,0,0,1,.06.12.15.15,0,0,1-.12.13h0a.14.14,0,0,1,.1.14.68.68,0,0,0,0,.13h-.13a.44.44,0,0,1-.05-.13.1.1,0,0,0-.11-.09h-.06Zm0-.31h.06c.07,0,.13,0,.13-.08s0-.08-.12-.08h-.07Z"/></g></g></svg>