<svg xmlns="http://www.w3.org/2000/svg" viewBox="0 0 1745.73 887.49"><defs><style>.cls-1,.cls-33,.cls-35,.cls-36{fill:none;}.cls-2{fill:#26292e;}.cls-3{fill:#4c5059;}.cls-4{fill:#a6762a;}.cls-5{fill:#b68f31;}.cls-6{fill:#956725;}.cls-7{fill:#ffeeb6;}.cls-8{fill:#e5d1b0;}.cls-9{fill:#1b1c20;}.cls-10{fill:#121318;}.cls-11{fill:#4f5b5b;}.cls-12{fill:#1e2628;}.cls-13{fill:#868d90;}.cls-14{fill:#4e4543;}.cls-15{fill:#1b1e22;}.cls-16{fill:#31383b;}.cls-17{fill:#756e6b;}.cls-18{fill:#7b9eb0;}.cls-19{fill:#141c1f;}.cls-20{fill:#273039;}.cls-21{fill:#1c2127;}.cls-22{fill:#232732;}.cls-23{fill:#0b0e12;}.cls-24{fill:#4c4f58;opacity:0.35;}.cls-25{fill:#505551;}.cls-26{fill:#13181c;}.cls-27{fill:#616066;}.cls-28{fill:#f7931e;}.cls-29{fill:#fbb03b;}.cls-30{fill:#fbb04a;}.cls-31{isolation:isolate;}.cls-32{fill:#666;}.cls-33,.cls-35,.cls-36{stroke:#fff200;stroke-miterlimit:9;}.cls-33{stroke-width:1.34px;}.cls-34{fill:#fff200;}.cls-36{stroke-width:1.15px;}</style></defs><g id="Layer_2" data-name="Layer 2"><rect class="cls-1" width="1745.73" height="887.49"/></g><g id="Layer_7" data-name="Layer 7"><rect class="cls-2" x="770.06" y="285.79" width="409.11" height="305.53"/><rect class="cls-3" x="770.06" y="285.79" width="12.13" height="305.53"/><rect class="cls-3" x="1159.76" y="285.79" width="12.13" height="305.53"/><rect class="cls-2" x="767.23" y="256.58" width="59.43" height="34.77"/><rect class="cls-2" x="1115.9" y="256.58" width="63.87" height="34.77"/><rect class="cls-2" x="826.66" y="280.23" width="307.16" height="11.12"/><rect class="cls-2" x="842.46" y="256.58" width="12.7" height="34.77"/><rect class="cls-2" x="873.99" y="256.58" width="12.7" height="34.77"/><rect class="cls-2" x="905.52" y="256.58" width="12.7" height="34.77"/><rect class="cls-2" x="1026.8" y="256.58" width="12.7" height="34.77"/><rect class="cls-2" x="966.16" y="256.58" width="12.7" height="34.77"/><rect class="cls-2" x="1058.33" y="256.58" width="12.7" height="34.77"/><rect class="cls-2" x="1089.86" y="256.58" width="12.7" height="34.77"/><rect class="cls-2" x="938.84" y="256.58" width="66.1" height="9.1"/><rect class="cls-2" x="1120.35" y="588.69" width="59.43" height="34.77" transform="translate(2300.13 1212.15) rotate(180)"/><rect class="cls-2" x="767.23" y="588.69" width="63.87" height="34.77" transform="translate(1598.33 1212.15) rotate(180)"/><rect class="cls-2" x="813.19" y="588.69" width="307.16" height="11.12" transform="translate(1933.54 1188.5) rotate(180)"/><rect class="cls-2" x="1091.85" y="588.69" width="12.7" height="34.77" transform="translate(2196.4 1212.15) rotate(180)"/><rect class="cls-2" x="1060.32" y="588.69" width="12.7" height="34.77" transform="translate(2133.34 1212.15) rotate(180)"/><rect class="cls-2" x="1028.79" y="588.69" width="12.7" height="34.77" transform="translate(2070.27 1212.15) rotate(180)"/><rect class="cls-2" x="907.51" y="588.69" width="12.7" height="34.77" transform="translate(1827.72 1212.15) rotate(180)"/><rect class="cls-2" x="968.15" y="588.69" width="12.7" height="34.77" transform="translate(1949 1212.15) rotate(180)"/><rect class="cls-2" x="875.98" y="588.69" width="12.7" height="34.77" transform="translate(1764.66 1212.15) rotate(180)"/><rect class="cls-2" x="844.45" y="588.69" width="12.7" height="34.77" transform="translate(1701.59 1212.15) rotate(180)"/><rect class="cls-2" x="942.07" y="614.36" width="66.1" height="9.1" transform="translate(1950.24 1237.82) rotate(180)"/><circle class="cls-4" cx="860.24" cy="335.71" r="31.84"/><circle class="cls-5" cx="860.24" cy="335.71" r="26.57"/><circle class="cls-6" cx="860.24" cy="335.71" r="24.46"/><circle class="cls-7" cx="860.24" cy="335.71" r="20.82"/><circle class="cls-8" cx="860.24" cy="335.71" r="16.1"/><circle class="cls-6" cx="860.24" cy="335.71" r="4.3"/><circle class="cls-4" cx="1088.79" cy="335.71" r="31.84"/><circle class="cls-5" cx="1088.79" cy="335.71" r="26.57"/><circle class="cls-6" cx="1088.79" cy="335.71" r="24.46"/><circle class="cls-7" cx="1088.79" cy="335.71" r="20.82"/><circle class="cls-8" cx="1088.79" cy="335.71" r="16.1"/><circle class="cls-6" cx="1088.79" cy="335.71" r="4.3"/><rect class="cls-9" x="928.41" y="498.44" width="112.34" height="44.26" rx="10.11"/><path class="cls-10" d="M936.47,514.29h95.75a0,0,0,0,1,0,0v10.09a9.87,9.87,0,0,1-9.87,9.87h-76a9.87,9.87,0,0,1-9.87-9.87V514.29A0,0,0,0,1,936.47,514.29Z"/><rect class="cls-11" x="936.47" y="507.83" width="95.75" height="6.46"/><rect class="cls-12" x="936.47" y="517.34" width="95.75" height="6.46"/><circle class="cls-10" cx="1078.54" cy="489.22" r="4.57"/><circle class="cls-10" cx="1094.79" cy="489.22" r="4.57"/></g><g id="Layer_8" data-name="Layer 8"><rect class="cls-2" x="1253.99" y="285.79" width="409.11" height="308.46"/><rect class="cls-3" x="1253.99" y="285.79" width="12.13" height="308.46"/><rect class="cls-3" x="1643.69" y="285.79" width="12.13" height="308.46"/><rect class="cls-2" x="1251.16" y="255.98" width="59.43" height="34.77"/><rect class="cls-2" x="1599.83" y="255.98" width="63.87" height="34.77"/><rect class="cls-2" x="1310.58" y="279.63" width="307.16" height="11.12"/><rect class="cls-2" x="1326.38" y="255.98" width="12.7" height="34.77"/><rect class="cls-2" x="1357.91" y="255.98" width="12.7" height="34.77"/><rect class="cls-2" x="1389.45" y="255.98" width="12.7" height="34.77"/><rect class="cls-2" x="1510.72" y="255.98" width="12.7" height="34.77"/><rect class="cls-2" x="1450.08" y="255.98" width="12.7" height="34.77"/><rect class="cls-2" x="1542.25" y="255.98" width="12.7" height="34.77"/><rect class="cls-2" x="1573.79" y="255.98" width="12.7" height="34.77"/><rect class="cls-2" x="1422.76" y="255.98" width="66.1" height="9.1"/><rect class="cls-2" x="1604.28" y="588.69" width="59.43" height="34.77" transform="translate(3267.98 1212.15) rotate(180)"/><rect class="cls-2" x="1251.16" y="588.69" width="63.87" height="34.77" transform="translate(2566.19 1212.15) rotate(180)"/><rect class="cls-2" x="1297.11" y="588.69" width="307.16" height="11.12" transform="translate(2901.39 1188.5) rotate(180)"/><rect class="cls-2" x="1575.78" y="588.69" width="12.7" height="34.77" transform="translate(3164.25 1212.15) rotate(180)"/><rect class="cls-2" x="1544.24" y="588.69" width="12.7" height="34.77" transform="translate(3101.19 1212.15) rotate(180)"/><rect class="cls-2" x="1512.71" y="588.69" width="12.7" height="34.77" transform="translate(3038.12 1212.15) rotate(180)"/><rect class="cls-2" x="1391.43" y="588.69" width="12.7" height="34.77" transform="translate(2795.57 1212.15) rotate(180)"/><rect class="cls-2" x="1452.07" y="588.69" width="12.7" height="34.77" transform="translate(2916.85 1212.15) rotate(180)"/><rect class="cls-2" x="1359.9" y="588.69" width="12.7" height="34.77" transform="translate(2732.51 1212.15) rotate(180)"/><rect class="cls-2" x="1328.37" y="588.69" width="12.7" height="34.77" transform="translate(2669.44 1212.15) rotate(180)"/><rect class="cls-2" x="1426" y="614.36" width="66.1" height="9.1" transform="translate(2918.09 1237.82) rotate(180)"/><rect class="cls-13" x="1305.68" y="435.12" width="83.34" height="93.85" rx="6.33"/><rect class="cls-14" x="1309.56" y="472.6" width="75.57" height="18.89"/><path class="cls-15" d="M1318.65,440.26H1376a9.09,9.09,0,0,1,9.09,9.09v24.74a0,0,0,0,1,0,0h-75.57a0,0,0,0,1,0,0V449.35A9.09,9.09,0,0,1,1318.65,440.26Z"/><path class="cls-15" d="M1309.56,491.49h75.57a0,0,0,0,1,0,0v23.25a9.09,9.09,0,0,1-9.09,9.09h-57.4a9.09,9.09,0,0,1-9.09-9.09V491.49A0,0,0,0,1,1309.56,491.49Z"/><rect class="cls-16" x="1313.98" y="450.72" width="64.85" height="10.72"/><rect class="cls-16" x="1313.98" y="497.68" width="64.85" height="10.72"/><rect class="cls-13" x="1413.23" y="435.12" width="83.34" height="93.85" rx="6.33"/><rect class="cls-17" x="1417.11" y="472.6" width="75.57" height="18.89"/><path class="cls-15" d="M1426.2,440.26h57.4a9.09,9.09,0,0,1,9.09,9.09v24.74a0,0,0,0,1,0,0h-75.57a0,0,0,0,1,0,0V449.35A9.09,9.09,0,0,1,1426.2,440.26Z"/><path class="cls-15" d="M1417.11,491.49h75.57a0,0,0,0,1,0,0v23.25a9.09,9.09,0,0,1-9.09,9.09h-57.4a9.09,9.09,0,0,1-9.09-9.09V491.49A0,0,0,0,1,1417.11,491.49Z"/><rect class="cls-18" x="1421.54" y="450.72" width="64.85" height="10.72"/><rect class="cls-18" x="1421.54" y="497.68" width="64.85" height="10.72"/><rect class="cls-13" x="1521.3" y="450.72" width="93.45" height="84.48"/><rect class="cls-19" x="1529.49" y="464.76" width="77.62" height="53.62"/><rect class="cls-19" x="1553.95" y="502.04" width="28.1" height="28.1"/></g><g id="Layer_9" data-name="Layer 9"><rect class="cls-20" x="140.1" y="255.86" width="572.94" height="329.36"/><rect class="cls-21" x="140.1" y="255.86" width="572.94" height="39.06"/><rect class="cls-21" x="140.1" y="584.54" width="572.94" height="39.06"/><rect class="cls-22" x="140.1" y="294.92" width="32.94" height="290.3"/><rect class="cls-22" x="543.76" y="294.92" width="169.28" height="290.3"/><rect class="cls-23" x="533.8" y="294.92" width="9.96" height="290.3"/><rect class="cls-23" x="173.03" y="294.77" width="370.72" height="10.28"/><rect class="cls-24" x="696.56" y="255.86" width="7.28" height="367.74"/><rect class="cls-25" x="197.8" y="510.67" width="55.66" height="25.53" rx="8.68"/><rect class="cls-26" x="202.4" y="515.78" width="47.74" height="13.79" rx="5.49"/><rect class="cls-27" x="206.1" y="519.86" width="39.96" height="5.11"/><rect class="cls-28" x="125.78" y="310.78" width="14.32" height="55.27"/><rect class="cls-29" x="125.78" y="323.55" width="14.32" height="27.07"/><rect class="cls-30" x="82.04" y="320.42" width="43.74" height="32.41"/><rect class="cls-29" x="82.03" y="338.41" width="4.1" height="14.42"/><rect class="cls-29" x="82.03" y="320.41" width="4.1" height="14.42"/><path class="cls-28" d="M125,344c-.1-2.59-.08-5.17-.11-7.76s0-5.18.11-7.77c.1,2.59.07,5.18.11,7.77S125.05,341.42,125,344Z"/><path class="cls-28" d="M123.83,350.23a13,13,0,0,1,0-3.63,12.2,12.2,0,0,1,1-3.5A14.37,14.37,0,0,1,123.83,350.23Z"/><path class="cls-28" d="M125.92,350.23a12.69,12.69,0,0,1-1-3.51,12.91,12.91,0,0,1,0-3.62,12.11,12.11,0,0,1,1,3.5A13.37,13.37,0,0,1,125.92,350.23Z"/><path class="cls-28" d="M123.83,348.74a12.53,12.53,0,0,1,1,3.5,12.91,12.91,0,0,1,0,3.62,11.89,11.89,0,0,1-1-3.5A12.91,12.91,0,0,1,123.83,348.74Z"/><path class="cls-28" d="M125.92,348.74a12.91,12.91,0,0,1,0,3.62,12.11,12.11,0,0,1-1,3.5,14.22,14.22,0,0,1,1-7.12Z"/><path class="cls-28" d="M122,350.23a13,13,0,0,1,0-3.63,12.2,12.2,0,0,1,1-3.5A14.37,14.37,0,0,1,122,350.23Z"/><path class="cls-28" d="M124.07,350.23a12.69,12.69,0,0,1-1-3.51,12.91,12.91,0,0,1,0-3.62,12.53,12.53,0,0,1,1,3.5A13,13,0,0,1,124.07,350.23Z"/><path class="cls-28" d="M122,348.74a12.53,12.53,0,0,1,1,3.5,12.91,12.91,0,0,1,0,3.62,11.89,11.89,0,0,1-1-3.5A12.91,12.91,0,0,1,122,348.74Z"/><path class="cls-28" d="M124.07,348.74a12.91,12.91,0,0,1,0,3.62,12.53,12.53,0,0,1-1,3.5A14.22,14.22,0,0,1,124.07,348.74Z"/><path class="cls-28" d="M120.13,350.23a13,13,0,0,1,0-3.63,12.11,12.11,0,0,1,1-3.5,14.37,14.37,0,0,1-1,7.13Z"/><path class="cls-28" d="M122.22,350.23a12.69,12.69,0,0,1-1-3.51,12.91,12.91,0,0,1,0-3.62,12.53,12.53,0,0,1,1,3.5A13,13,0,0,1,122.22,350.23Z"/><path class="cls-28" d="M120.13,348.74a14.33,14.33,0,0,1,1,7.12,12.11,12.11,0,0,1-.95-3.5A12.55,12.55,0,0,1,120.13,348.74Z"/><path class="cls-28" d="M122.22,348.74a12.91,12.91,0,0,1,0,3.62,12.53,12.53,0,0,1-1,3.5A14.22,14.22,0,0,1,122.22,348.74Z"/><path class="cls-28" d="M118.28,350.23a14.26,14.26,0,0,1,1-7.13,12.2,12.2,0,0,1,0,3.62A12.69,12.69,0,0,1,118.28,350.23Z"/><path class="cls-28" d="M120.37,350.23a13.77,13.77,0,0,1-1-7.13,12.53,12.53,0,0,1,1,3.5A13.37,13.37,0,0,1,120.37,350.23Z"/><path class="cls-28" d="M118.28,348.74a14,14,0,0,1,1,7.12A14.22,14.22,0,0,1,118.28,348.74Z"/><path class="cls-28" d="M120.37,348.74a12.91,12.91,0,0,1,0,3.62,12.53,12.53,0,0,1-1,3.5,12.2,12.2,0,0,1,0-3.62A12.53,12.53,0,0,1,120.37,348.74Z"/><path class="cls-28" d="M116.46,350.23a14.26,14.26,0,0,1,1-7.13,12.2,12.2,0,0,1,0,3.62A12.69,12.69,0,0,1,116.46,350.23Z"/><path class="cls-28" d="M118.52,350.23a13.77,13.77,0,0,1-1-7.13,12.53,12.53,0,0,1,1,3.5A13.37,13.37,0,0,1,118.52,350.23Z"/><path class="cls-28" d="M116.46,348.74a14,14,0,0,1,1,7.12A14.22,14.22,0,0,1,116.46,348.74Z"/><path class="cls-28" d="M118.52,348.74a12.91,12.91,0,0,1,0,3.62,12.53,12.53,0,0,1-1,3.5,12.2,12.2,0,0,1,0-3.62A12.53,12.53,0,0,1,118.52,348.74Z"/><path class="cls-28" d="M114.59,350.23a12.27,12.27,0,0,1,0-3.63,12.87,12.87,0,0,1,1-3.5,12.2,12.2,0,0,1,0,3.62A13.42,13.42,0,0,1,114.59,350.23Z"/><path class="cls-28" d="M116.67,350.23a13.42,13.42,0,0,1-1-3.51,12.2,12.2,0,0,1,0-3.62,12.78,12.78,0,0,1,1,3.5A12.61,12.61,0,0,1,116.67,350.23Z"/><path class="cls-28" d="M114.59,348.74a13.24,13.24,0,0,1,1,3.5,12.91,12.91,0,0,1,0,3.62,12.53,12.53,0,0,1-1-3.5A12.2,12.2,0,0,1,114.59,348.74Z"/><path class="cls-28" d="M116.67,348.74a13.71,13.71,0,0,1-1,7.12,12.2,12.2,0,0,1,0-3.62A12.78,12.78,0,0,1,116.67,348.74Z"/><path class="cls-28" d="M112.74,350.23a13,13,0,0,1,0-3.63,12.53,12.53,0,0,1,1-3.5,12.2,12.2,0,0,1,0,3.62A13.42,13.42,0,0,1,112.74,350.23Z"/><path class="cls-28" d="M114.83,350.23a14,14,0,0,1-1-7.13A14.37,14.37,0,0,1,114.83,350.23Z"/><path class="cls-28" d="M112.74,348.74a13.24,13.24,0,0,1,1,3.5,12.91,12.91,0,0,1,0,3.62,12.53,12.53,0,0,1-1-3.5A12.91,12.91,0,0,1,112.74,348.74Z"/><path class="cls-28" d="M114.83,348.74a14.33,14.33,0,0,1-1,7.12,12.2,12.2,0,0,1,0-3.62A12.53,12.53,0,0,1,114.83,348.74Z"/><path class="cls-28" d="M110.89,350.23a13,13,0,0,1,0-3.63,12.53,12.53,0,0,1,1-3.5,12.2,12.2,0,0,1,0,3.62A13.42,13.42,0,0,1,110.89,350.23Z"/><path class="cls-28" d="M113,350.23a14,14,0,0,1-1-7.13A14.37,14.37,0,0,1,113,350.23Z"/><path class="cls-28" d="M110.89,348.74a13.24,13.24,0,0,1,1,3.5,12.91,12.91,0,0,1,0,3.62,12.53,12.53,0,0,1-1-3.5A12.91,12.91,0,0,1,110.89,348.74Z"/><path class="cls-28" d="M113,348.74a14.33,14.33,0,0,1-1,7.12,12.2,12.2,0,0,1,0-3.62A12.53,12.53,0,0,1,113,348.74Z"/><path class="cls-28" d="M109,350.23a13.1,13.1,0,0,1,1-7.13A14.37,14.37,0,0,1,109,350.23Z"/><path class="cls-28" d="M111.13,350.23a14.26,14.26,0,0,1-1-7.13,12.53,12.53,0,0,1,1,3.5A13,13,0,0,1,111.13,350.23Z"/><path class="cls-28" d="M109,348.74a13.71,13.71,0,0,1,.95,7.12,11.89,11.89,0,0,1-1-3.5A12.55,12.55,0,0,1,109,348.74Z"/><path class="cls-28" d="M111.13,348.74a12.91,12.91,0,0,1,0,3.62,12.53,12.53,0,0,1-1,3.5A14.22,14.22,0,0,1,111.13,348.74Z"/><path class="cls-28" d="M107.19,350.23a13,13,0,0,1,0-3.63,12.2,12.2,0,0,1,1-3.5A14.37,14.37,0,0,1,107.19,350.23Z"/><path class="cls-28" d="M109.28,350.23a12.69,12.69,0,0,1-1-3.51,12.91,12.91,0,0,1,0-3.62,12.11,12.11,0,0,1,1,3.5A13.37,13.37,0,0,1,109.28,350.23Z"/><path class="cls-28" d="M107.19,348.74a13.71,13.71,0,0,1,1,7.12,11.89,11.89,0,0,1-1-3.5A12.55,12.55,0,0,1,107.19,348.74Z"/><path class="cls-28" d="M109.28,348.74a12.91,12.91,0,0,1,0,3.62,12.11,12.11,0,0,1-1,3.5,14.22,14.22,0,0,1,1-7.12Z"/><path class="cls-28" d="M105.34,350.23a13,13,0,0,1,0-3.63,12.2,12.2,0,0,1,1-3.5A14.37,14.37,0,0,1,105.34,350.23Z"/><path class="cls-28" d="M107.46,350.23a12.69,12.69,0,0,1-1-3.51,12.91,12.91,0,0,1,0-3.62,12.11,12.11,0,0,1,1,3.5A13.37,13.37,0,0,1,107.46,350.23Z"/><path class="cls-28" d="M105.34,348.74a12.53,12.53,0,0,1,1,3.5,12.91,12.91,0,0,1,0,3.62,11.89,11.89,0,0,1-1-3.5A12.91,12.91,0,0,1,105.34,348.74Z"/><path class="cls-28" d="M107.46,348.74a12.91,12.91,0,0,1,0,3.62,12.11,12.11,0,0,1-.95,3.5,14.22,14.22,0,0,1,1-7.12Z"/><path class="cls-28" d="M103.46,350.23a13,13,0,0,1,0-3.63,12.11,12.11,0,0,1,1-3.5,14.37,14.37,0,0,1-1,7.13Z"/><path class="cls-28" d="M105.58,350.23a12.69,12.69,0,0,1-1-3.51,12.91,12.91,0,0,1,0-3.62,12.53,12.53,0,0,1,1,3.5A13,13,0,0,1,105.58,350.23Z"/><path class="cls-28" d="M103.46,348.74a14.33,14.33,0,0,1,1,7.12,12.11,12.11,0,0,1-.95-3.5A12.55,12.55,0,0,1,103.46,348.74Z"/><path class="cls-28" d="M105.58,348.74a12.91,12.91,0,0,1,0,3.62,12.53,12.53,0,0,1-1,3.5A14.22,14.22,0,0,1,105.58,348.74Z"/><path class="cls-28" d="M101.64,350.23a14.26,14.26,0,0,1,1-7.13,12.2,12.2,0,0,1,0,3.62A12.69,12.69,0,0,1,101.64,350.23Z"/><path class="cls-28" d="M103.73,350.23a14.26,14.26,0,0,1-1-7.13,12.53,12.53,0,0,1,1,3.5A13,13,0,0,1,103.73,350.23Z"/><path class="cls-28" d="M101.64,348.74a14,14,0,0,1,1,7.12A14.22,14.22,0,0,1,101.64,348.74Z"/><path class="cls-28" d="M103.73,348.74a12.91,12.91,0,0,1,0,3.62,12.53,12.53,0,0,1-1,3.5,12.2,12.2,0,0,1,0-3.62A12.53,12.53,0,0,1,103.73,348.74Z"/><path class="cls-28" d="M99.79,350.23a14.26,14.26,0,0,1,1-7.13,12.2,12.2,0,0,1,0,3.62A12.69,12.69,0,0,1,99.79,350.23Z"/><path class="cls-28" d="M101.88,350.23a13.77,13.77,0,0,1-.95-7.13,12.53,12.53,0,0,1,1,3.5A13.37,13.37,0,0,1,101.88,350.23Z"/><path class="cls-28" d="M99.79,348.74a14,14,0,0,1,1,7.12A14.22,14.22,0,0,1,99.79,348.74Z"/><path class="cls-28" d="M101.88,348.74a12.91,12.91,0,0,1,0,3.62,12.53,12.53,0,0,1-1,3.5,12.2,12.2,0,0,1,0-3.62A12.53,12.53,0,0,1,101.88,348.74Z"/><path class="cls-28" d="M98,350.23a12.27,12.27,0,0,1,0-3.63,12.87,12.87,0,0,1,1-3.5,12.2,12.2,0,0,1,0,3.62A13.42,13.42,0,0,1,98,350.23Z"/><path class="cls-28" d="M100,350.23a13.42,13.42,0,0,1-1-3.51,12.2,12.2,0,0,1,0-3.62,12.78,12.78,0,0,1,1,3.5A12.61,12.61,0,0,1,100,350.23Z"/><path class="cls-28" d="M98,348.74a13.24,13.24,0,0,1,1,3.5,12.91,12.91,0,0,1,0,3.62,12.53,12.53,0,0,1-1-3.5A12.2,12.2,0,0,1,98,348.74Z"/><path class="cls-28" d="M100,348.74a13.71,13.71,0,0,1-1,7.12,12.2,12.2,0,0,1,0-3.62A12.78,12.78,0,0,1,100,348.74Z"/><path class="cls-28" d="M96.1,350.23a13,13,0,0,1,0-3.63,12.53,12.53,0,0,1,1-3.5,12.2,12.2,0,0,1,0,3.62A13.42,13.42,0,0,1,96.1,350.23Z"/><path class="cls-28" d="M98.19,350.23a14,14,0,0,1-1-7.13A14.37,14.37,0,0,1,98.19,350.23Z"/><path class="cls-28" d="M96.1,348.74a13.24,13.24,0,0,1,1,3.5,12.91,12.91,0,0,1,0,3.62,12.53,12.53,0,0,1-1-3.5A12.91,12.91,0,0,1,96.1,348.74Z"/><path class="cls-28" d="M98.19,348.74a14.33,14.33,0,0,1-1,7.12,12.2,12.2,0,0,1,0-3.62A12.53,12.53,0,0,1,98.19,348.74Z"/><path class="cls-28" d="M94.25,350.23a13,13,0,0,1,0-3.63,12.53,12.53,0,0,1,1-3.5,12.2,12.2,0,0,1,0,3.62A13.42,13.42,0,0,1,94.25,350.23Z"/><path class="cls-28" d="M96.34,350.23a14,14,0,0,1-1-7.13A14.37,14.37,0,0,1,96.34,350.23Z"/><path class="cls-28" d="M94.25,348.74a13.24,13.24,0,0,1,1,3.5,12.91,12.91,0,0,1,0,3.62,12.53,12.53,0,0,1-1-3.5A12.91,12.91,0,0,1,94.25,348.74Z"/><path class="cls-28" d="M96.34,348.74a14.33,14.33,0,0,1-1,7.12,12.2,12.2,0,0,1,0-3.62A12.53,12.53,0,0,1,96.34,348.74Z"/><path class="cls-28" d="M92.4,350.23a12.27,12.27,0,0,1,0-3.63,12.11,12.11,0,0,1,.95-3.5,14.37,14.37,0,0,1-1,7.13Z"/><path class="cls-28" d="M94.46,350.23a14.26,14.26,0,0,1-1-7.13,12.53,12.53,0,0,1,1,3.5A13,13,0,0,1,94.46,350.23Z"/><path class="cls-28" d="M92.4,348.74a13.71,13.71,0,0,1,.95,7.12,13.71,13.71,0,0,1-.95-7.12Z"/><path class="cls-28" d="M94.46,348.74a12.91,12.91,0,0,1,0,3.62,12.53,12.53,0,0,1-1,3.5A14.22,14.22,0,0,1,94.46,348.74Z"/><path class="cls-28" d="M90.55,350.23a13,13,0,0,1,0-3.63,12.2,12.2,0,0,1,1-3.5A14.37,14.37,0,0,1,90.55,350.23Z"/><path class="cls-28" d="M92.64,350.23a12.26,12.26,0,0,1-1-3.51,12.91,12.91,0,0,1,0-3.62,12.11,12.11,0,0,1,1,3.5A13,13,0,0,1,92.64,350.23Z"/><path class="cls-28" d="M90.55,348.74a13.71,13.71,0,0,1,1,7.12,11.89,11.89,0,0,1-1-3.5A12.55,12.55,0,0,1,90.55,348.74Z"/><path class="cls-28" d="M92.64,348.74a12.91,12.91,0,0,1,0,3.62,12.11,12.11,0,0,1-1,3.5,14.22,14.22,0,0,1,1-7.12Z"/><path class="cls-28" d="M88.7,350.23a13,13,0,0,1,0-3.63,12.2,12.2,0,0,1,1-3.5A14.37,14.37,0,0,1,88.7,350.23Z"/><path class="cls-28" d="M90.79,350.23a12.69,12.69,0,0,1-1-3.51,12.91,12.91,0,0,1,0-3.62,12.11,12.11,0,0,1,.95,3.5A13.37,13.37,0,0,1,90.79,350.23Z"/><path class="cls-28" d="M88.7,348.74a12.53,12.53,0,0,1,1,3.5,12.91,12.91,0,0,1,0,3.62,11.89,11.89,0,0,1-1-3.5A12.91,12.91,0,0,1,88.7,348.74Z"/><path class="cls-28" d="M90.79,348.74a12.91,12.91,0,0,1,0,3.62,12.11,12.11,0,0,1-1,3.5,14.22,14.22,0,0,1,1-7.12Z"/><path class="cls-28" d="M86.85,350.23a13,13,0,0,1,0-3.63,12.2,12.2,0,0,1,1-3.5A14.37,14.37,0,0,1,86.85,350.23Z"/><path class="cls-28" d="M88.94,350.23a12.69,12.69,0,0,1-1-3.51,12.91,12.91,0,0,1,0-3.62,12.53,12.53,0,0,1,1,3.5A13,13,0,0,1,88.94,350.23Z"/><path class="cls-28" d="M86.85,348.74a14.33,14.33,0,0,1,1,7.12,11.89,11.89,0,0,1-1-3.5A12.91,12.91,0,0,1,86.85,348.74Z"/><path class="cls-28" d="M88.94,348.74a12.91,12.91,0,0,1,0,3.62,12.53,12.53,0,0,1-1,3.5A14.22,14.22,0,0,1,88.94,348.74Z"/><path class="cls-28" d="M123.83,325.42a12.91,12.91,0,0,1,0-3.62,12,12,0,0,1,1-3.51,14.37,14.37,0,0,1-1,7.13Z"/><path class="cls-28" d="M125.92,325.42a12.53,12.53,0,0,1-1-3.5,13,13,0,0,1,0-3.63,12.26,12.26,0,0,1,1,3.51A13.3,13.3,0,0,1,125.92,325.42Z"/><path class="cls-28" d="M123.83,323.94a12.6,12.6,0,0,1,1,3.51,12.91,12.91,0,0,1,0,3.62,11.89,11.89,0,0,1-1-3.5A13,13,0,0,1,123.83,323.94Z"/><path class="cls-28" d="M125.92,323.94a13,13,0,0,1,0,3.63,12.11,12.11,0,0,1-1,3.5,14.26,14.26,0,0,1,1-7.13Z"/><path class="cls-28" d="M122,325.42a12.91,12.91,0,0,1,0-3.62,12,12,0,0,1,1-3.51,14.37,14.37,0,0,1-1,7.13Z"/><path class="cls-28" d="M124.07,325.42a12.53,12.53,0,0,1-1-3.5,13,13,0,0,1,0-3.63,12.6,12.6,0,0,1,1,3.51A12.91,12.91,0,0,1,124.07,325.42Z"/><path class="cls-28" d="M122,323.94a12.6,12.6,0,0,1,1,3.51,12.91,12.91,0,0,1,0,3.62,11.89,11.89,0,0,1-1-3.5A13,13,0,0,1,122,323.94Z"/><path class="cls-28" d="M124.07,323.94a13,13,0,0,1,0,3.63,12.53,12.53,0,0,1-1,3.5A14.26,14.26,0,0,1,124.07,323.94Z"/><path class="cls-28" d="M120.13,325.42a12.91,12.91,0,0,1,0-3.62,12.26,12.26,0,0,1,1-3.51,14.37,14.37,0,0,1-1,7.13Z"/><path class="cls-28" d="M122.22,325.42a12.53,12.53,0,0,1-1-3.5,13,13,0,0,1,0-3.63,12.6,12.6,0,0,1,1,3.51A12.91,12.91,0,0,1,122.22,325.42Z"/><path class="cls-28" d="M120.13,323.94a14.37,14.37,0,0,1,1,7.13,12.11,12.11,0,0,1-.95-3.5A12.61,12.61,0,0,1,120.13,323.94Z"/><path class="cls-28" d="M122.22,323.94a13,13,0,0,1,0,3.63,12.53,12.53,0,0,1-1,3.5A14.26,14.26,0,0,1,122.22,323.94Z"/><path class="cls-28" d="M118.28,325.42a14.26,14.26,0,0,1,1-7.13,12.27,12.27,0,0,1,0,3.63A12.53,12.53,0,0,1,118.28,325.42Z"/><path class="cls-28" d="M120.37,325.42a13.73,13.73,0,0,1-1-7.13,12.6,12.6,0,0,1,1,3.51A13.3,13.3,0,0,1,120.37,325.42Z"/><path class="cls-28" d="M118.28,323.94a14.15,14.15,0,0,1,1,7.13A14.26,14.26,0,0,1,118.28,323.94Z"/><path class="cls-28" d="M120.37,323.94a13.1,13.1,0,0,1-1,7.13,12.2,12.2,0,0,1,0-3.62A12.69,12.69,0,0,1,120.37,323.94Z"/><path class="cls-28" d="M116.46,325.42a14.26,14.26,0,0,1,1-7.13,12.27,12.27,0,0,1,0,3.63A12.53,12.53,0,0,1,116.46,325.42Z"/><path class="cls-28" d="M118.52,325.42a13.73,13.73,0,0,1-1-7.13,12.6,12.6,0,0,1,1,3.51A13.3,13.3,0,0,1,118.52,325.42Z"/><path class="cls-28" d="M116.46,323.94a14.15,14.15,0,0,1,1,7.13A14.26,14.26,0,0,1,116.46,323.94Z"/><path class="cls-28" d="M118.52,323.94a13.1,13.1,0,0,1-1,7.13,12.2,12.2,0,0,1,0-3.62A12.69,12.69,0,0,1,118.52,323.94Z"/><path class="cls-28" d="M114.59,325.42a12.2,12.2,0,0,1,0-3.62,12.69,12.69,0,0,1,1-3.51,12.27,12.27,0,0,1,0,3.63A13.24,13.24,0,0,1,114.59,325.42Z"/><path class="cls-28" d="M116.67,325.42a13.35,13.35,0,0,1-1-3.5,12.27,12.27,0,0,1,0-3.63,13,13,0,0,1,1,3.51A12.55,12.55,0,0,1,116.67,325.42Z"/><path class="cls-28" d="M114.59,323.94a13.42,13.42,0,0,1,1,3.51,12.91,12.91,0,0,1,0,3.62,12.53,12.53,0,0,1-1-3.5A12.27,12.27,0,0,1,114.59,323.94Z"/><path class="cls-28" d="M116.67,323.94a13.73,13.73,0,0,1-1,7.13,12.2,12.2,0,0,1,0-3.62A13,13,0,0,1,116.67,323.94Z"/><path class="cls-28" d="M112.74,325.42a12.91,12.91,0,0,1,0-3.62,12.6,12.6,0,0,1,1-3.51,12.27,12.27,0,0,1,0,3.63A13.24,13.24,0,0,1,112.74,325.42Z"/><path class="cls-28" d="M114.83,325.42a13.93,13.93,0,0,1-1-7.13A14.37,14.37,0,0,1,114.83,325.42Z"/><path class="cls-28" d="M112.74,323.94a13.42,13.42,0,0,1,1,3.51,12.91,12.91,0,0,1,0,3.62,12.53,12.53,0,0,1-1-3.5A13,13,0,0,1,112.74,323.94Z"/><path class="cls-28" d="M114.83,323.94a14.37,14.37,0,0,1-1,7.13,12.2,12.2,0,0,1,0-3.62A12.6,12.6,0,0,1,114.83,323.94Z"/><path class="cls-28" d="M110.89,325.42a12.91,12.91,0,0,1,0-3.62,12.6,12.6,0,0,1,1-3.51,12.27,12.27,0,0,1,0,3.63A13.24,13.24,0,0,1,110.89,325.42Z"/><path class="cls-28" d="M113,325.42a13.93,13.93,0,0,1-1-7.13A14.37,14.37,0,0,1,113,325.42Z"/><path class="cls-28" d="M110.89,323.94a13.42,13.42,0,0,1,1,3.51,12.91,12.91,0,0,1,0,3.62,12.53,12.53,0,0,1-1-3.5A13,13,0,0,1,110.89,323.94Z"/><path class="cls-28" d="M113,323.94a14.37,14.37,0,0,1-1,7.13,12.2,12.2,0,0,1,0-3.62A12.6,12.6,0,0,1,113,323.94Z"/><path class="cls-28" d="M109,325.42a12.2,12.2,0,0,1,0-3.62,12,12,0,0,1,1-3.51,14.37,14.37,0,0,1-1,7.13Z"/><path class="cls-28" d="M111.13,325.42a14.26,14.26,0,0,1-1-7.13,12.6,12.6,0,0,1,1,3.51A12.91,12.91,0,0,1,111.13,325.42Z"/><path class="cls-28" d="M109,323.94a13.77,13.77,0,0,1,.95,7.13,11.89,11.89,0,0,1-1-3.5A12.61,12.61,0,0,1,109,323.94Z"/><path class="cls-28" d="M111.13,323.94a13,13,0,0,1,0,3.63,12.53,12.53,0,0,1-1,3.5A14.26,14.26,0,0,1,111.13,323.94Z"/><path class="cls-28" d="M107.19,325.42a12.91,12.91,0,0,1,0-3.62,12,12,0,0,1,1-3.51,14.37,14.37,0,0,1-1,7.13Z"/><path class="cls-28" d="M109.28,325.42a12.53,12.53,0,0,1-1-3.5,13,13,0,0,1,0-3.63,12.26,12.26,0,0,1,1,3.51A13.3,13.3,0,0,1,109.28,325.42Z"/><path class="cls-28" d="M107.19,323.94a13.77,13.77,0,0,1,1,7.13,11.89,11.89,0,0,1-1-3.5A12.61,12.61,0,0,1,107.19,323.94Z"/><path class="cls-28" d="M109.28,323.94a13,13,0,0,1,0,3.63,12.11,12.11,0,0,1-1,3.5,14.26,14.26,0,0,1,1-7.13Z"/><path class="cls-28" d="M105.34,325.42a12.91,12.91,0,0,1,0-3.62,12,12,0,0,1,1-3.51,14.37,14.37,0,0,1-1,7.13Z"/><path class="cls-28" d="M107.46,325.42a12.53,12.53,0,0,1-1-3.5,13,13,0,0,1,0-3.63,12.26,12.26,0,0,1,1,3.51A13.3,13.3,0,0,1,107.46,325.42Z"/><path class="cls-28" d="M105.34,323.94a12.6,12.6,0,0,1,1,3.51,12.91,12.91,0,0,1,0,3.62,11.89,11.89,0,0,1-1-3.5A13,13,0,0,1,105.34,323.94Z"/><path class="cls-28" d="M107.46,323.94a13,13,0,0,1,0,3.63,12.11,12.11,0,0,1-.95,3.5,14.26,14.26,0,0,1,1-7.13Z"/><path class="cls-28" d="M103.46,325.42a12.91,12.91,0,0,1,0-3.62,12.26,12.26,0,0,1,1-3.51,14.37,14.37,0,0,1-1,7.13Z"/><path class="cls-28" d="M105.58,325.42a12.53,12.53,0,0,1-1-3.5,13,13,0,0,1,0-3.63,12.6,12.6,0,0,1,1,3.51A12.91,12.91,0,0,1,105.58,325.42Z"/><path class="cls-28" d="M103.46,323.94a14.37,14.37,0,0,1,1,7.13,12.11,12.11,0,0,1-.95-3.5A12.61,12.61,0,0,1,103.46,323.94Z"/><path class="cls-28" d="M105.58,323.94a13,13,0,0,1,0,3.63,12.53,12.53,0,0,1-1,3.5A14.26,14.26,0,0,1,105.58,323.94Z"/><path class="cls-28" d="M101.64,325.42a14.26,14.26,0,0,1,1-7.13,12.27,12.27,0,0,1,0,3.63A12.53,12.53,0,0,1,101.64,325.42Z"/><path class="cls-28" d="M103.73,325.42a14.26,14.26,0,0,1-1-7.13,12.6,12.6,0,0,1,1,3.51A12.91,12.91,0,0,1,103.73,325.42Z"/><path class="cls-28" d="M101.64,323.94a14.15,14.15,0,0,1,1,7.13A14.26,14.26,0,0,1,101.64,323.94Z"/><path class="cls-28" d="M103.73,323.94a13.1,13.1,0,0,1-1,7.13,12.2,12.2,0,0,1,0-3.62A12.69,12.69,0,0,1,103.73,323.94Z"/><path class="cls-28" d="M99.79,325.42a14.26,14.26,0,0,1,1-7.13,12.27,12.27,0,0,1,0,3.63A12.53,12.53,0,0,1,99.79,325.42Z"/><path class="cls-28" d="M101.88,325.42a13.73,13.73,0,0,1-.95-7.13,12.6,12.6,0,0,1,1,3.51A13.3,13.3,0,0,1,101.88,325.42Z"/><path class="cls-28" d="M99.79,323.94a14.15,14.15,0,0,1,1,7.13A14.26,14.26,0,0,1,99.79,323.94Z"/><path class="cls-28" d="M101.88,323.94a13.1,13.1,0,0,1-1,7.13,12.2,12.2,0,0,1,0-3.62A12.69,12.69,0,0,1,101.88,323.94Z"/><path class="cls-28" d="M98,325.42a12.2,12.2,0,0,1,0-3.62,12.69,12.69,0,0,1,1-3.51,12.27,12.27,0,0,1,0,3.63A13.24,13.24,0,0,1,98,325.42Z"/><path class="cls-28" d="M100,325.42a13.35,13.35,0,0,1-1-3.5,12.27,12.27,0,0,1,0-3.63,13,13,0,0,1,1,3.51A12.55,12.55,0,0,1,100,325.42Z"/><path class="cls-28" d="M98,323.94a13.42,13.42,0,0,1,1,3.51,12.91,12.91,0,0,1,0,3.62,12.53,12.53,0,0,1-1-3.5A12.27,12.27,0,0,1,98,323.94Z"/><path class="cls-28" d="M100,323.94a13.73,13.73,0,0,1-1,7.13,12.2,12.2,0,0,1,0-3.62A13,13,0,0,1,100,323.94Z"/><path class="cls-28" d="M96.1,325.42a12.91,12.91,0,0,1,0-3.62,12.6,12.6,0,0,1,1-3.51,12.27,12.27,0,0,1,0,3.63A13.24,13.24,0,0,1,96.1,325.42Z"/><path class="cls-28" d="M98.19,325.42a13.93,13.93,0,0,1-1-7.13A14.37,14.37,0,0,1,98.19,325.42Z"/><path class="cls-28" d="M96.1,323.94a13.42,13.42,0,0,1,1,3.51,12.91,12.91,0,0,1,0,3.62,12.53,12.53,0,0,1-1-3.5A13,13,0,0,1,96.1,323.94Z"/><path class="cls-28" d="M98.19,323.94a14.37,14.37,0,0,1-1,7.13,12.2,12.2,0,0,1,0-3.62A12.6,12.6,0,0,1,98.19,323.94Z"/><path class="cls-28" d="M94.25,325.42a12.91,12.91,0,0,1,0-3.62,12.6,12.6,0,0,1,1-3.51,12.27,12.27,0,0,1,0,3.63A13.24,13.24,0,0,1,94.25,325.42Z"/><path class="cls-28" d="M96.34,325.42a13.93,13.93,0,0,1-1-7.13A14.37,14.37,0,0,1,96.34,325.42Z"/><path class="cls-28" d="M94.25,323.94a13.42,13.42,0,0,1,1,3.51,12.91,12.91,0,0,1,0,3.62,12.53,12.53,0,0,1-1-3.5A13,13,0,0,1,94.25,323.94Z"/><path class="cls-28" d="M96.34,323.94a14.37,14.37,0,0,1-1,7.13,12.2,12.2,0,0,1,0-3.62A12.6,12.6,0,0,1,96.34,323.94Z"/><path class="cls-28" d="M92.4,325.42a13.77,13.77,0,0,1,.95-7.13,14.37,14.37,0,0,1-1,7.13Z"/><path class="cls-28" d="M94.46,325.42a14.26,14.26,0,0,1-1-7.13,12.6,12.6,0,0,1,1,3.51A12.91,12.91,0,0,1,94.46,325.42Z"/><path class="cls-28" d="M92.4,323.94a13.77,13.77,0,0,1,.95,7.13,12.11,12.11,0,0,1-.95-3.5A12.27,12.27,0,0,1,92.4,323.94Z"/><path class="cls-28" d="M94.46,323.94a13,13,0,0,1,0,3.63,12.53,12.53,0,0,1-1,3.5A14.26,14.26,0,0,1,94.46,323.94Z"/><path class="cls-28" d="M90.55,325.42a12.91,12.91,0,0,1,0-3.62,12,12,0,0,1,1-3.51,14.37,14.37,0,0,1-1,7.13Z"/><path class="cls-28" d="M92.64,325.42a12.2,12.2,0,0,1-1-3.5,13,13,0,0,1,0-3.63,12.26,12.26,0,0,1,1,3.51A12.91,12.91,0,0,1,92.64,325.42Z"/><path class="cls-28" d="M90.55,323.94a12.67,12.67,0,0,1,.91,3.48,12.91,12.91,0,0,1,0,3.62,11.89,11.89,0,0,1-1-3.5A12.77,12.77,0,0,1,90.55,323.94Z"/><path class="cls-28" d="M92.64,323.94a13,13,0,0,1,0,3.63,12.11,12.11,0,0,1-1,3.5,14.26,14.26,0,0,1,1-7.13Z"/><path class="cls-28" d="M88.7,325.42a12.91,12.91,0,0,1,0-3.62,12,12,0,0,1,1-3.51,14.37,14.37,0,0,1-1,7.13Z"/><path class="cls-28" d="M90.79,325.42a12.53,12.53,0,0,1-1-3.5,13,13,0,0,1,0-3.63,12.26,12.26,0,0,1,.95,3.51A13.3,13.3,0,0,1,90.79,325.42Z"/><path class="cls-28" d="M88.7,323.94a12.6,12.6,0,0,1,1,3.51,12.91,12.91,0,0,1,0,3.62,11.89,11.89,0,0,1-1-3.5A13,13,0,0,1,88.7,323.94Z"/><path class="cls-28" d="M90.79,323.94a13,13,0,0,1,0,3.63,12.11,12.11,0,0,1-1,3.5,14.26,14.26,0,0,1,1-7.13Z"/><path class="cls-28" d="M86.85,325.42a12.91,12.91,0,0,1,0-3.62,12,12,0,0,1,1-3.51,14.37,14.37,0,0,1-1,7.13Z"/><path class="cls-28" d="M88.94,325.42a12.53,12.53,0,0,1-1-3.5,13,13,0,0,1,0-3.63,12.6,12.6,0,0,1,1,3.51A12.91,12.91,0,0,1,88.94,325.42Z"/><path class="cls-28" d="M86.85,323.94a14.37,14.37,0,0,1,1,7.13,11.89,11.89,0,0,1-1-3.5A13,13,0,0,1,86.85,323.94Z"/><path class="cls-28" d="M88.94,323.94a13,13,0,0,1,0,3.63,12.53,12.53,0,0,1-1,3.5A14.26,14.26,0,0,1,88.94,323.94Z"/><path class="cls-28" d="M123,344c-.11-2.59-.08-5.17-.12-7.76s0-5.18.12-7.77c.1,2.59.07,5.18.11,7.77S123.13,341.42,123,344Z"/><path class="cls-28" d="M121.14,344c-.1-2.59-.07-5.17-.11-7.76s0-5.18.11-7.77c.1,2.59.07,5.18.11,7.77S121.24,341.42,121.14,344Z"/><path class="cls-28" d="M119.29,344c-.1-2.59-.07-5.17-.11-7.76s0-5.18.11-7.77c.1,2.59.07,5.18.11,7.77S119.39,341.42,119.29,344Z"/><path class="cls-28" d="M117.37,343.9c-.1-2.59-.08-5.17-.11-7.76s0-5.18.11-7.77c.1,2.59.07,5.18.11,7.77S117.46,341.31,117.37,343.9Z"/><path class="cls-28" d="M115.62,344c-.1-2.59-.07-5.17-.11-7.76s0-5.18.11-7.77c.1,2.59.07,5.18.11,7.77S115.71,341.42,115.62,344Z"/><path class="cls-28" d="M113.85,343.9c-.11-2.59-.08-5.17-.12-7.76s0-5.18.12-7.77c.1,2.59.07,5.18.11,7.77S114,341.31,113.85,343.9Z"/><path class="cls-28" d="M111.9,343.9c-.11-2.59-.08-5.17-.12-7.76s0-5.18.12-7.77c.1,2.59.07,5.18.11,7.77S112,341.31,111.9,343.9Z"/><path class="cls-28" d="M110.12,344c-.1-2.59-.07-5.17-.11-7.76s0-5.18.11-7.77c.1,2.59.07,5.18.11,7.77S110.22,341.42,110.12,344Z"/><path class="cls-28" d="M108.32,344c-.1-2.59-.08-5.17-.11-7.76s0-5.18.11-7.77c.1,2.59.07,5.18.11,7.77S108.41,341.42,108.32,344Z"/><path class="cls-28" d="M106.31,344c-.1-2.59-.07-5.17-.11-7.76s0-5.18.11-7.77c.1,2.59.08,5.18.11,7.77S106.4,341.42,106.31,344Z"/><path class="cls-28" d="M104.54,343.9c-.11-2.59-.08-5.17-.11-7.76s0-5.18.11-7.77c.1,2.59.07,5.18.11,7.77S104.64,341.31,104.54,343.9Z"/><path class="cls-28" d="M102.72,344c-.1-2.59-.07-5.17-.11-7.76s0-5.18.11-7.77c.11,2.59.08,5.18.12,7.77S102.83,341.42,102.72,344Z"/><path class="cls-28" d="M100.78,343.9c-.1-2.59-.07-5.17-.11-7.76s0-5.18.11-7.77c.1,2.59.08,5.18.11,7.77S100.88,341.31,100.78,343.9Z"/><path class="cls-28" d="M99,344.18c-.1-2.59-.08-5.18-.11-7.77s0-5.17.11-7.76c.1,2.59.07,5.18.11,7.76S99.11,341.59,99,344.18Z"/><path class="cls-28" d="M97.1,344c-.1-2.59-.07-5.17-.11-7.76s0-5.18.11-7.77c.11,2.59.08,5.18.11,7.77S97.21,341.42,97.1,344Z"/><path class="cls-28" d="M95.29,344c-.1-2.59-.07-5.17-.11-7.76s0-5.18.11-7.77c.1,2.59.08,5.18.11,7.77S95.39,341.42,95.29,344Z"/><path class="cls-28" d="M93.46,344c-.1-2.59-.07-5.17-.11-7.76s0-5.18.11-7.77c.1,2.59.07,5.18.11,7.77S93.58,341.42,93.46,344Z"/><path class="cls-28" d="M91.62,344c-.1-2.59-.07-5.17-.11-7.76s0-5.18.11-7.77c.1,2.59.08,5.18.11,7.77S91.72,341.42,91.62,344Z"/><path class="cls-28" d="M89.75,344c-.11-2.59-.08-5.17-.12-7.76s0-5.18.12-7.77c.1,2.59.07,5.18.11,7.77S89.85,341.42,89.75,344Z"/><path class="cls-28" d="M87.91,344c-.1-2.59-.07-5.17-.11-7.76s0-5.18.11-7.77c.11,2.59.08,5.18.12,7.77S88,341.42,87.91,344Z"/></g><g id="Layer_10" data-name="Layer 10"><g class="cls-31"><path class="cls-32" d="M207.71,713.24c0,3.57-2.11,5.31-5.64,5.31s-5.63-1.7-5.63-5.31V705h2.91v8.21c0,1.45.37,2.87,2.72,2.87,2.07,0,2.73-.89,2.73-2.87V705h2.91Z"/><path class="cls-32" d="M212.18,713.85c0,1.76,1.37,2.45,2.92,2.45,1,0,2.57-.3,2.57-1.65s-2-1.65-3.92-2.18-3.94-1.32-3.94-3.76c0-2.72,2.55-4,4.94-4,2.76,0,5.29,1.2,5.29,4.25h-2.81c-.09-1.57-1.2-2-2.61-2-.92,0-2,.38-2,1.49s.63,1.17,3.94,2c1,.22,3.92.87,3.92,3.85,0,2.42-1.88,4.23-5.49,4.23-2.92,0-5.68-1.44-5.62-4.7Z"/><path class="cls-32" d="M222.2,705h6.21c2.52,0,4.22.82,4.22,3.28a2.87,2.87,0,0,1-1.79,2.75,3.21,3.21,0,0,1,2.42,3.35c0,2.68-2.28,3.83-4.66,3.83h-6.4Zm2.9,5.35H228c1,0,1.78-.46,1.78-1.57s-1-1.52-2-1.52H225.1Zm0,5.6h3.11c1.13,0,2.15-.37,2.15-1.74s-.84-1.88-2.09-1.88H225.1Z"/><path class="cls-32" d="M234.92,712.06h5.57v2.26h-5.57Z"/><path class="cls-32" d="M251.55,709.47a2.9,2.9,0,0,0-2.89-2.31c-2.61,0-3.59,2.22-3.59,4.53s1,4.42,3.59,4.42c1.78,0,2.78-1.2,3-3h2.81a5.56,5.56,0,0,1-5.81,5.4c-4.07,0-6.49-3-6.49-6.86s2.42-7,6.49-7c2.89,0,5.35,1.7,5.7,4.75Z"/><path class="cls-32" d="M169,727.22h5.79c2.64,0,4,1.44,4,3.9s-1.41,3.92-4,3.91h-4v5.4H169Zm1.76,6.33h3.44c2,0,2.88-.85,2.88-2.43s-.89-2.42-2.88-2.42h-3.44Z"/><path class="cls-32" d="M184.8,730.64c3,0,4.64,2.2,4.64,5s-1.61,5-4.64,5-4.65-2.2-4.65-5S181.76,730.64,184.8,730.64Zm0,8.62c1.64,0,3-1.29,3-3.61s-1.33-3.62-3-3.62-3,1.31-3,3.62S183.15,739.26,184.8,739.26Z"/><path class="cls-32" d="M200.75,740.43h-1.66l-1.94-7.6h0l-1.92,7.6h-1.7l-3.07-9.57h1.74l2.16,7.83h0l1.92-7.83H198l2,7.83h0l2.15-7.83h1.63Z"/><path class="cls-32" d="M213.46,737.39a3.84,3.84,0,0,1-4.09,3.26c-3.05,0-4.49-2.13-4.59-5s1.89-5,4.5-5c3.38,0,4.42,3.17,4.32,5.48h-7.15a2.81,2.81,0,0,0,3,3.14,2.27,2.27,0,0,0,2.47-1.87Zm-1.52-2.66a2.74,2.74,0,0,0-2.75-2.7,2.71,2.71,0,0,0-2.74,2.7Z"/><path class="cls-32" d="M215.17,730.86h1.48v2h0a3.46,3.46,0,0,1,3.51-2.24v1.67c-2.53,0-3.45,1.42-3.45,3.86v4.26h-1.58Z"/><path class="cls-32" d="M234.42,731.09c-.2-1.91-1.44-2.7-3.27-2.7-1.5,0-3,.53-3,2.25,0,3.26,8.45,1,8.45,6.16,0,2.81-2.75,3.94-5.16,3.94-3,0-5.45-1.46-5.45-4.66h1.66c0,2.22,1.85,3.18,3.85,3.18,1.59,0,3.35-.5,3.35-2.4,0-3.63-8.45-1.24-8.45-6.09,0-2.66,2.36-3.86,4.78-3.86,2.7,0,4.78,1.27,4.87,4.18Z"/><path class="cls-32" d="M246.42,740.43h-1.48v-1.52h0a3.32,3.32,0,0,1-3.11,1.74c-2.51,0-3.29-1.44-3.29-3.5v-6.29h1.57v6.48a1.79,1.79,0,0,0,1.94,1.92,2.68,2.68,0,0,0,2.83-3v-5.41h1.57Z"/><path class="cls-32" d="M248.84,730.86h1.58v1.3h0a3.19,3.19,0,0,1,3.05-1.52c2.95,0,4.41,2.33,4.41,5s-1.45,5-4.37,5a3.67,3.67,0,0,1-3.09-1.5h0v4.94h-1.58Zm4.44,1.17c-2.12,0-2.92,1.83-2.92,3.61s.85,3.62,3,3.62,2.86-1.83,2.86-3.7S255.32,732,253.28,732Z"/><path class="cls-32" d="M259.81,730.86h1.57v1.3h0a3.19,3.19,0,0,1,3.05-1.52c2.94,0,4.4,2.33,4.4,5s-1.44,5-4.36,5a3.65,3.65,0,0,1-3.09-1.5h0v4.94h-1.57Zm4.44,1.17c-2.13,0-2.92,1.83-2.92,3.61s.85,3.62,3,3.62,2.87-1.83,2.87-3.7S266.28,732,264.25,732Z"/><path class="cls-32" d="M270.81,727.22h1.57v13.21h-1.57Z"/><path class="cls-32" d="M278.58,741.7c-.74,1.85-1.37,2.55-2.78,2.55a3.1,3.1,0,0,1-1.09-.16v-1.44a3.32,3.32,0,0,0,.93.22,1.34,1.34,0,0,0,1.29-.87l.65-1.63-3.79-9.51h1.77l2.79,7.83h0l2.68-7.83h1.67Z"/></g><line class="cls-33" x1="225.2" y1="547.41" x2="225.2" y2="686.06"/><path class="cls-34" d="M220.17,685.81a5,5,0,1,0,5-5A5,5,0,0,0,220.17,685.81Z"/><g class="cls-31"><path class="cls-32" d="M794.87,140.34h2.91V151.1h6.43v2.44h-9.34Z"/><path class="cls-32" d="M810.2,143.72a5,5,0,1,1-4.94,5.05A4.7,4.7,0,0,1,810.2,143.72Zm0,8.1c1.8,0,2.33-1.51,2.33-3s-.53-3.07-2.33-3.07-2.31,1.54-2.31,3.07S808.43,151.82,810.2,151.82Z"/><path class="cls-32" d="M817.13,140.34h7.12a3.63,3.63,0,0,1,3.87,3.64,3.22,3.22,0,0,1-2.09,3.31v0c1.42.39,1.83,1.74,1.92,3.09.06.83,0,2.4.56,3.12H825.6a16.09,16.09,0,0,1-.46-3.16c-.2-1.39-.74-2-2.2-2H820v5.16h-2.91Zm2.91,6h3.18c1.31,0,2-.55,2-1.88s-.69-1.83-2-1.83H820Z"/><path class="cls-32" d="M830.1,146.92c.14-2.44,2.34-3.2,4.49-3.2,1.9,0,4.2.43,4.2,2.72v5a4.85,4.85,0,0,0,.33,2.12h-2.66a4.07,4.07,0,0,1-.19-.92,4.34,4.34,0,0,1-3.22,1.18c-1.83,0-3.25-.9-3.25-2.86,0-4.35,6.47-2,6.36-4.16,0-1.11-.78-1.3-1.7-1.3s-1.65.41-1.74,1.44Zm6.06,2a5.38,5.38,0,0,1-2.18.55c-.82.15-1.55.44-1.55,1.41s.75,1.22,1.6,1.22a1.94,1.94,0,0,0,2.13-2.2Z"/><path class="cls-32" d="M844.13,139.51a4,4,0,1,1-4.14,4A4,4,0,0,1,844.13,139.51Zm0,7.2a3.17,3.17,0,1,0-3-3.18A3.07,3.07,0,0,0,844.13,146.71Zm-1.6-5.44h1.7c1.13,0,1.76.35,1.76,1.33a1.13,1.13,0,0,1-1.18,1.21l1.21,2h-.94l-1.1-1.93h-.56v1.93h-.89Zm.89,1.88h.8c.51,0,.88-.07.88-.62s-.52-.56-.93-.56h-.75Z"/><path class="cls-32" d="M858.47,140.34h3l4.94,13.2h-3l-1-2.94h-4.94l-1,2.94h-2.94Zm-.28,8.1h3.42L860,143.6h0Z"/><path class="cls-32" d="M867.25,144h2.5v1.33h0a3.37,3.37,0,0,1,2.92-1.59c2.8,0,3.5,1.58,3.5,3.94v5.88h-2.63v-5.4c0-1.57-.44-2.34-1.68-2.34-1.42,0-2,.79-2,2.73v5h-2.62Z"/><path class="cls-32" d="M881.54,144h1.93v1.76h-1.93v4.73c0,.89.22,1.11,1.11,1.11a3.53,3.53,0,0,0,.82-.07v2.05a9.42,9.42,0,0,1-1.54.1c-1.63,0-3-.36-3-2.28v-5.64h-1.59V144h1.59v-2.86h2.62Z"/><path class="cls-32" d="M886.89,149.4c.07,1.68.86,2.42,2.34,2.42a2.17,2.17,0,0,0,2.08-1.23h2.31a4.28,4.28,0,0,1-4.48,3.21,4.67,4.67,0,0,1-4.88-5,4.8,4.8,0,0,1,4.88-5.05c3.26,0,4.85,2.74,4.64,5.68Zm4.27-1.66c-.24-1.33-.82-2-2.09-2a2.06,2.06,0,0,0-2.18,2Z"/><path class="cls-32" d="M895.33,144h2.5v1.33h.06a3.36,3.36,0,0,1,2.92-1.59c2.79,0,3.49,1.58,3.49,3.94v5.88h-2.62v-5.4c0-1.57-.45-2.34-1.68-2.34-1.43,0-2,.79-2,2.73v5h-2.63Z"/><path class="cls-32" d="M906.3,144h2.5v1.33h.05a3.37,3.37,0,0,1,2.92-1.59c2.8,0,3.5,1.58,3.5,3.94v5.88h-2.63v-5.4c0-1.57-.44-2.34-1.68-2.34-1.42,0-2,.79-2,2.73v5H906.3Z"/><path class="cls-32" d="M917.15,146.92c.15-2.44,2.35-3.2,4.5-3.2,1.9,0,4.19.43,4.19,2.72v5a4.83,4.83,0,0,0,.34,2.12h-2.67a4.05,4.05,0,0,1-.18-.92,4.36,4.36,0,0,1-3.22,1.18c-1.83,0-3.25-.9-3.25-2.86,0-4.35,6.47-2,6.36-4.16,0-1.11-.78-1.3-1.7-1.3s-1.65.41-1.74,1.44Zm6.07,2a5.42,5.42,0,0,1-2.18.55c-.82.15-1.56.44-1.56,1.41s.76,1.22,1.61,1.22a2,2,0,0,0,2.13-2.2Z"/><path class="cls-32" d="M744.5,179.4a15.53,15.53,0,0,1-2.9-8.66,14.48,14.48,0,0,1,2.9-8.53h1.2a15.23,15.23,0,0,0-2.44,8.53,15.68,15.68,0,0,0,2.44,8.66Z"/><path class="cls-32" d="M747,162.53h6.21c2.5,0,4,1.33,4,3.46a3.13,3.13,0,0,1-2.3,3.34v0c1.54.3,1.83,1.44,2,2.72s0,2.76.78,3.64h-2c-.5-.53-.22-2-.48-3.25s-.5-2.39-2.2-2.39h-4.29v5.64H747Zm5.42,6.08c1.63,0,3-.42,3-2.35a2.08,2.08,0,0,0-2.35-2.25h-4.36v4.6Z"/><path class="cls-32" d="M759.63,162.53h5.78c2.65,0,4.05,1.44,4.05,3.9s-1.4,3.92-4.05,3.9h-4v5.4h-1.75Zm1.75,6.32h3.44c2,0,2.89-.85,2.89-2.42s-.89-2.42-2.89-2.42h-3.44Z"/><path class="cls-32" d="M771.09,169.85h5.34v1.48h-5.34Z"/><path class="cls-32" d="M786.44,166.39c-.21-1.9-1.44-2.7-3.28-2.7-1.49,0-2.95.54-2.95,2.26,0,3.25,8.45,1,8.45,6.16,0,2.81-2.76,3.94-5.16,3.94-3,0-5.46-1.46-5.46-4.66h1.67c0,2.22,1.85,3.18,3.84,3.18,1.59,0,3.35-.5,3.35-2.41,0-3.62-8.45-1.24-8.45-6.08,0-2.66,2.37-3.87,4.79-3.87,2.7,0,4.77,1.28,4.86,4.18Z"/><path class="cls-32" d="M790.82,162.53h2.4l4.16,11.09,4.18-11.09H804v13.2H802.3v-11h0l-4.13,11h-1.5l-4.12-11h0v11h-1.66Z"/><path class="cls-32" d="M810.47,162.53h1.95l5.16,13.2h-2l-1.44-4h-5.58l-1.48,4h-1.82Zm-1.31,7.75h4.48l-2.2-6.16h0Z"/><path class="cls-32" d="M824,162.53h8.67V164h-6.92v4.2h6.07v1.48h-6.07v6H824Z"/><path class="cls-32" d="M842.52,172.7a3.83,3.83,0,0,1-4.09,3.25c-3,0-4.49-2.12-4.59-5s1.89-5,4.5-5c3.38,0,4.42,3.16,4.32,5.47h-7.15a2.82,2.82,0,0,0,3,3.15A2.27,2.27,0,0,0,841,172.7ZM841,170a2.74,2.74,0,0,0-2.75-2.7,2.71,2.71,0,0,0-2.74,2.7Z"/><path class="cls-32" d="M844.29,166.17h1.48v1.41h0A3.47,3.47,0,0,1,848.9,166a2.49,2.49,0,0,1,2.62,1.63,3.47,3.47,0,0,1,3-1.63c1.9,0,3.18.79,3.18,2.77v7h-1.57v-6.27c0-1.18-.32-2.12-1.85-2.12a2.31,2.31,0,0,0-2.5,2.44v5.95h-1.57v-6.27c0-1.24-.39-2.12-1.8-2.12a2.59,2.59,0,0,0-2.55,2.44v5.95h-1.57Z"/><path class="cls-32" d="M868.53,175.7a2.25,2.25,0,0,1-1.13.25c-.81,0-1.33-.44-1.33-1.47a4.19,4.19,0,0,1-3.36,1.47c-1.74,0-3.17-.75-3.17-2.68,0-2.16,1.61-2.64,3.24-2.94s3.22-.2,3.22-1.4c0-1.39-1.15-1.59-2.13-1.59-1.33,0-2.31.4-2.38,1.81h-1.58c.1-2.37,1.91-3.2,4.05-3.2,1.72,0,3.59.39,3.59,2.63v4.92c0,.73,0,1.07.5,1.07a1.69,1.69,0,0,0,.48-.09ZM866,170.8c-1.22.9-4.77,0-4.77,2.36,0,1,.89,1.41,1.85,1.41,2.07,0,2.92-1.28,2.92-2.17Z"/><path class="cls-32" d="M870.08,162.53h1.58v13.2h-1.58Z"/><path class="cls-32" d="M882.25,172.7a3.82,3.82,0,0,1-4.09,3.25c-3,0-4.49-2.12-4.58-5s1.88-5,4.49-5c3.39,0,4.42,3.16,4.33,5.47h-7.16a2.82,2.82,0,0,0,3,3.15,2.28,2.28,0,0,0,2.48-1.87ZM880.74,170a2.76,2.76,0,0,0-2.76-2.7,2.71,2.71,0,0,0-2.74,2.7Z"/><path class="cls-32" d="M898.71,166.5a3.49,3.49,0,0,0-3.7-2.81c-3.14,0-4.48,2.59-4.48,5.35,0,3,1.34,5.53,4.5,5.53a3.74,3.74,0,0,0,3.81-3.81h1.75c-.35,3.31-2.36,5.29-5.71,5.29-4.09,0-6.1-3-6.1-6.88s2.18-7,6.25-7c2.75,0,5.05,1.48,5.43,4.29Z"/><path class="cls-32" d="M906.64,166c3,0,4.64,2.2,4.64,5s-1.61,5-4.64,5-4.64-2.2-4.64-5S903.61,166,906.64,166Zm0,8.62c1.64,0,3-1.3,3-3.61s-1.34-3.62-3-3.62-3,1.31-3,3.62S905,174.57,906.64,174.57Z"/><path class="cls-32" d="M913.13,166.17h1.48v1.52h0a3.31,3.31,0,0,1,3.11-1.74c2.52,0,3.29,1.44,3.29,3.49v6.29h-1.57v-6.47a1.79,1.79,0,0,0-1.94-1.92,2.68,2.68,0,0,0-2.83,3v5.4h-1.57Z"/><path class="cls-32" d="M923.41,166.17h1.48v1.52h0A3.31,3.31,0,0,1,928,166c2.52,0,3.29,1.44,3.29,3.49v6.29h-1.57v-6.47a1.79,1.79,0,0,0-1.94-1.92,2.68,2.68,0,0,0-2.83,3v5.4h-1.57Z"/><path class="cls-32" d="M941.84,172.7a3.81,3.81,0,0,1-4.08,3.25c-3,0-4.5-2.12-4.59-5s1.89-5,4.49-5c3.39,0,4.42,3.16,4.33,5.47h-7.16a2.82,2.82,0,0,0,3,3.15,2.28,2.28,0,0,0,2.48-1.87ZM940.33,170a2.75,2.75,0,0,0-2.76-2.7,2.72,2.72,0,0,0-2.74,2.7Z"/><path class="cls-32" d="M950.11,169.24a2.22,2.22,0,0,0-2.37-1.9c-2.27,0-3,1.81-3,3.73s.8,3.5,2.8,3.5a2.45,2.45,0,0,0,2.62-2.33h1.61a3.94,3.94,0,0,1-4.21,3.71c-2.93,0-4.48-2-4.48-4.88s1.48-5.12,4.51-5.12c2.18,0,3.89,1,4.13,3.29Z"/><path class="cls-32" d="M955.73,166.17h1.9v1.39h-1.9v5.94c0,.73.2.85,1.18.85h.72v1.38h-1.2c-1.63,0-2.27-.33-2.27-2.09v-6.08h-1.63v-1.39h1.63v-2.86h1.57Z"/><path class="cls-32" d="M963.49,166c3,0,4.65,2.2,4.65,5s-1.61,5-4.65,5-4.64-2.2-4.64-5S960.46,166,963.49,166Zm0,8.62c1.65,0,3-1.3,3-3.61s-1.33-3.62-3-3.62-3,1.31-3,3.62S961.85,174.57,963.49,174.57Z"/><path class="cls-32" d="M969.93,166.17h1.48v2h0A3.45,3.45,0,0,1,975,166v1.66c-2.54,0-3.46,1.43-3.46,3.87v4.25h-1.57Z"/><path class="cls-32" d="M974.77,179.4a15.15,15.15,0,0,0,2.44-8.53,15.57,15.57,0,0,0-2.44-8.66H976a15.46,15.46,0,0,1,2.91,8.66A14.43,14.43,0,0,1,976,179.4Z"/></g><line class="cls-35" x1="860.24" y1="184.34" x2="860.24" y2="296.24"/><path class="cls-34" d="M856.48,184.53a3.76,3.76,0,1,1,3.76,3.76A3.76,3.76,0,0,1,856.48,184.53Z"/><g class="cls-31"><path class="cls-32" d="M1507.23,147.05a4.43,4.43,0,0,1-3.62,1.81c-4.07,0-6.49-3.05-6.49-6.86s2.42-7,6.49-7c2.7,0,5.27,1.64,5.56,4.66h-2.77a2.68,2.68,0,0,0-2.79-2.22c-2.61,0-3.59,2.22-3.59,4.53s1,4.42,3.59,4.42a2.84,2.84,0,0,0,3.14-2.85h-2.92v-2.16h5.55v7.13h-1.85Z"/><path class="cls-32" d="M1514.15,137.5h-2.63v-2.16h2.63Zm-2.63,1.48h2.63v9.56h-2.63Z"/><path class="cls-32" d="M1525.41,147.93c0,1.58-.58,4.24-5,4.24-1.88,0-4.07-.91-4.21-3.07h2.6a1.76,1.76,0,0,0,2,1.31c1.46,0,2.13-1,2.11-2.36v-1.26h0a3.18,3.18,0,0,1-2.86,1.48c-2.89,0-4.09-2.19-4.09-4.81s1.44-4.74,4.11-4.74a3,3,0,0,1,2.84,1.54h0V139h2.5Zm-2.5-4.29c0-1.55-.53-2.94-2.24-2.94-1.48,0-2.12,1.3-2.12,2.72s.5,2.87,2.12,2.87S1522.91,145,1522.91,143.64Z"/><path class="cls-32" d="M1527.4,141.92c.15-2.44,2.35-3.2,4.5-3.2,1.9,0,4.19.43,4.19,2.72v5a4.83,4.83,0,0,0,.34,2.12h-2.67a4.05,4.05,0,0,1-.18-.92,4.34,4.34,0,0,1-3.22,1.18c-1.83,0-3.25-.9-3.25-2.86,0-4.35,6.47-2,6.36-4.16,0-1.11-.78-1.3-1.7-1.3s-1.65.41-1.74,1.44Zm6.07,2a5.38,5.38,0,0,1-2.18.55c-.82.15-1.56.44-1.56,1.41s.76,1.22,1.61,1.22a2,2,0,0,0,2.13-2.2Z"/><path class="cls-32" d="M1538.13,135.34h2.62v4.81h0a3.54,3.54,0,0,1,3-1.43c1.91,0,4,1.54,4,5s-2,5.05-4,5.05a3.3,3.3,0,0,1-3.14-1.48h0v1.22h-2.49Zm4.77,5.36c-1.56,0-2.24,1.45-2.24,3.07s.68,3,2.24,3,2.24-1.46,2.24-3S1544.45,140.7,1542.9,140.7Z"/><path class="cls-32" d="M1552.12,137.5h-2.62v-2.16h2.62ZM1549.5,139h2.62v9.56h-2.62Z"/><path class="cls-32" d="M1557.52,139h1.93v1.76h-1.93v4.73c0,.89.23,1.11,1.11,1.11a3.48,3.48,0,0,0,.82-.07v2.05a9.42,9.42,0,0,1-1.54.1c-1.63,0-3-.36-3-2.28v-5.64h-1.59V139h1.59v-2.86h2.62Z"/><path class="cls-32" d="M1566.12,135.34H1576v2.44h-7v2.83h6.4v2.26H1569v3.23h7.12v2.44h-10Z"/><path class="cls-32" d="M1581.15,139h1.93v1.76h-1.93v4.73c0,.89.22,1.11,1.11,1.11a3.48,3.48,0,0,0,.82-.07v2.05a9.42,9.42,0,0,1-1.54.1c-1.63,0-3-.36-3-2.28v-5.64h-1.59V139h1.59v-2.86h2.62Z"/><path class="cls-32" d="M1584.33,135.34H1587v5h0a3.33,3.33,0,0,1,2.8-1.59c2.79,0,3.49,1.58,3.49,3.94v5.88h-2.62v-5.4c0-1.57-.45-2.34-1.69-2.34-1.42,0-2,.79-2,2.73v5h-2.63Z"/><path class="cls-32" d="M1597.46,144.4c.08,1.68.87,2.42,2.35,2.42a2.17,2.17,0,0,0,2.07-1.23h2.31a4.28,4.28,0,0,1-4.47,3.21,4.67,4.67,0,0,1-4.89-5,4.8,4.8,0,0,1,4.89-5.05c3.25,0,4.84,2.74,4.64,5.68Zm4.27-1.66c-.24-1.33-.81-2-2.09-2a2.06,2.06,0,0,0-2.18,2Z"/><path class="cls-32" d="M1605.91,139h2.5v1.78h0a3.37,3.37,0,0,1,3.06-2,1.85,1.85,0,0,1,.57.1v2.44a4.48,4.48,0,0,0-.94-.09c-2,0-2.59,1.36-2.59,3.07v4.3h-2.63Z"/><path class="cls-32" d="M1613.1,139h2.5v1.33h.06a3.36,3.36,0,0,1,2.92-1.59c2.79,0,3.49,1.58,3.49,3.94v5.88h-2.62v-5.4c0-1.57-.45-2.34-1.69-2.34-1.42,0-2,.79-2,2.73v5h-2.63Z"/><path class="cls-32" d="M1626.23,144.4c.07,1.68.87,2.42,2.35,2.42a2.17,2.17,0,0,0,2.07-1.23H1633a4.28,4.28,0,0,1-4.47,3.21,4.67,4.67,0,0,1-4.89-5,4.8,4.8,0,0,1,4.89-5.05c3.25,0,4.84,2.74,4.64,5.68Zm4.27-1.66c-.24-1.33-.81-2-2.09-2a2.06,2.06,0,0,0-2.18,2Z"/><path class="cls-32" d="M1638,139h1.92v1.76H1638v4.73c0,.89.22,1.11,1.11,1.11a3.44,3.44,0,0,0,.81-.07v2.05a9.22,9.22,0,0,1-1.53.1c-1.63,0-3-.36-3-2.28v-5.64h-1.59V139h1.59v-2.86H1638Z"/><path class="cls-32" d="M1469.17,174.4a15.45,15.45,0,0,1-2.9-8.66,14.42,14.42,0,0,1,2.9-8.53h1.2a15.23,15.23,0,0,0-2.44,8.53,15.68,15.68,0,0,0,2.44,8.66Z"/><path class="cls-32" d="M1471.63,157.53h5.79c2.64,0,4,1.44,4,3.9s-1.41,3.92-4,3.9h-4v5.4h-1.75Zm1.75,6.32h3.45c2,0,2.88-.85,2.88-2.42s-.89-2.42-2.88-2.42h-3.45Z"/><path class="cls-32" d="M1487.47,161c3,0,4.65,2.2,4.65,5s-1.61,5-4.65,5-4.64-2.2-4.64-5S1484.44,161,1487.47,161Zm0,8.62c1.65,0,3-1.3,3-3.61s-1.33-3.62-3-3.62-3,1.31-3,3.62S1485.83,169.57,1487.47,169.57Z"/><path class="cls-32" d="M1494.22,157.53h9.12V159H1496v4.2h6.86v1.48H1496v4.56h7.42v1.48h-9.18Z"/><path class="cls-32" d="M1514.53,161c3,0,4.64,2.2,4.64,5s-1.61,5-4.64,5-4.65-2.2-4.65-5S1511.49,161,1514.53,161Zm0,8.62c1.64,0,3-1.3,3-3.61s-1.33-3.62-3-3.62-3,1.31-3,3.62S1512.88,169.57,1514.53,169.57Z"/><path class="cls-32" d="M1521,161.17h1.48v1.52h0a3.31,3.31,0,0,1,3.11-1.74c2.51,0,3.29,1.44,3.29,3.49v6.29h-1.57v-6.47a1.79,1.79,0,0,0-1.94-1.92,2.68,2.68,0,0,0-2.83,3v5.4H1521Z"/><path class="cls-32" d="M1531.39,157.53H1533v13.2h-1.57Z"/><path class="cls-32" d="M1539.15,172c-.74,1.85-1.36,2.55-2.77,2.55a3.35,3.35,0,0,1-1.09-.16V173a3.25,3.25,0,0,0,.92.22,1.34,1.34,0,0,0,1.3-.86l.65-1.63-3.8-9.51h1.78l2.79,7.82h0l2.68-7.82h1.66Z"/><path class="cls-32" d="M1550.43,162.56h-1.61v-1.39h1.61v-1.42c0-1.56.93-2.37,2.65-2.37a3.92,3.92,0,0,1,1,.15v1.37a2.68,2.68,0,0,0-.88-.13c-.76,0-1.21.24-1.21,1.07v1.33h1.85v1.39H1552v8.17h-1.57Z"/><path class="cls-32" d="M1559.38,161c3,0,4.64,2.2,4.64,5s-1.61,5-4.64,5-4.64-2.2-4.64-5S1556.35,161,1559.38,161Zm0,8.62c1.65,0,3-1.3,3-3.61s-1.33-3.62-3-3.62-3,1.31-3,3.62S1557.74,169.57,1559.38,169.57Z"/><path class="cls-32" d="M1565.81,161.17h1.48v2h0a3.44,3.44,0,0,1,3.51-2.24v1.66c-2.53,0-3.45,1.43-3.45,3.87v4.25h-1.58Z"/><path class="cls-32" d="M1577.43,157.53h6.21c2.5,0,4,1.33,4,3.46a3.12,3.12,0,0,1-2.29,3.34v0c1.54.3,1.83,1.44,2,2.72s0,2.76.78,3.64h-2c-.5-.53-.23-2-.49-3.25s-.49-2.39-2.2-2.39h-4.29v5.64h-1.75Zm5.42,6.08c1.62,0,3.05-.42,3.05-2.35a2.08,2.08,0,0,0-2.35-2.25h-4.37v4.6Z"/><path class="cls-32" d="M1593.68,157.53h1.94l5.16,13.2h-1.94l-1.44-4h-5.59l-1.48,4h-1.81Zm-1.31,7.75h4.47l-2.2-6.16h0Z"/><path class="cls-32" d="M1602.07,157.53h1.76v6.58l6.7-6.58h2.27l-5.57,5.32,5.79,7.88h-2.22l-4.77-6.67-2.2,2.05v4.62h-1.76Z"/><path class="cls-32" d="M1613.61,157.79h8.86v1.75a18.19,18.19,0,0,0-4.83,11.19h-2.31a19.32,19.32,0,0,1,5-11.06h-6.71Z"/><path class="cls-32" d="M1632.81,170.73H1624a5.77,5.77,0,0,1,2.84-4.9c1.69-1.24,3.85-2.24,3.91-4.25a2,2,0,0,0-2.19-2.29c-1.66,0-2.16,1.4-2.22,3.23h-2.1c0-2.87,1.57-5,4.45-5a3.84,3.84,0,0,1,4.16,4c0,4.15-5.62,5-6.32,7.35h6.31Z"/><path class="cls-32" d="M1643.18,167.66h-1.67v3.07h-2v-3.07H1634v-2.09l5.55-7.78h2V166h1.67ZM1635.6,166h3.92v-5.7h0Z"/><path class="cls-32" d="M1653.46,167.66h-1.67v3.07h-2v-3.07h-5.55v-2.09l5.55-7.78h2V166h1.67Zm-7.58-1.66h3.92v-5.7h0Z"/><path class="cls-32" d="M1655.49,157.53h5.83c3.77,0,4.49,2.44,4.49,4.09s-.72,4-4.49,4h-3.52v5.06h-2.31Zm2.31,6.25h3.39a2.11,2.11,0,0,0,2.31-2.18c0-1.74-1.06-2.19-2.28-2.19h-3.42Z"/><path class="cls-32" d="M1666.23,174.4a15.15,15.15,0,0,0,2.44-8.53,15.57,15.57,0,0,0-2.44-8.66h1.21a15.53,15.53,0,0,1,2.9,8.66,14.48,14.48,0,0,1-2.9,8.53Z"/></g><line class="cls-35" x1="1568.3" y1="184.34" x2="1568.3" y2="435.12"/><path class="cls-34" d="M1564.54,184.53a3.76,3.76,0,1,1,3.76,3.76A3.76,3.76,0,0,1,1564.54,184.53Z"/><g class="cls-31"><path class="cls-32" d="M1041.09,89.4a4.43,4.43,0,0,1-3.62,1.81c-4.07,0-6.49-3-6.49-6.86s2.42-7,6.49-7c2.7,0,5.27,1.64,5.56,4.66h-2.77a2.69,2.69,0,0,0-2.79-2.22c-2.61,0-3.59,2.22-3.59,4.53s1,4.42,3.59,4.42a2.84,2.84,0,0,0,3.14-2.85h-2.92V83.76h5.55v7.13h-1.85Z"/><path class="cls-32" d="M1045.58,77.69h6c3.31,0,4.57,2.09,4.57,4.23s-1.26,4.24-4.57,4.24h-3v4.73h-2.91Zm2.91,6.21h2.25c1.33,0,2.55-.29,2.55-2s-1.22-2-2.55-2h-2.25Z"/><path class="cls-32" d="M1059.89,86.51c0,1.76,1.37,2.44,2.93,2.44,1,0,2.57-.29,2.57-1.64s-2-1.65-3.92-2.19-3.94-1.31-3.94-3.75c0-2.72,2.55-4,4.93-4,2.76,0,5.29,1.2,5.29,4.25h-2.81c-.09-1.57-1.2-2-2.61-2-.92,0-2,.39-2,1.5s.63,1.16,3.94,2c1,.22,3.92.87,3.92,3.84,0,2.43-1.89,4.24-5.49,4.24-2.93,0-5.68-1.44-5.63-4.7Z"/><path class="cls-32" d="M1078.66,77.69h3l4.94,13.2h-3l-1-2.94h-4.93l-1,2.94h-2.94Zm-.28,8.1h3.43l-1.67-4.85h0Z"/><path class="cls-32" d="M1087.44,81.33h2.5v1.33h.06a3.36,3.36,0,0,1,2.92-1.59c2.79,0,3.49,1.58,3.49,3.94v5.88h-2.62v-5.4c0-1.57-.45-2.34-1.69-2.34-1.42,0-2,.79-2,2.73v5h-2.63Z"/><path class="cls-32" d="M1101.74,81.33h1.92v1.76h-1.92v4.73c0,.89.22,1.11,1.11,1.11a3.44,3.44,0,0,0,.81-.07v2a9.34,9.34,0,0,1-1.54.1c-1.62,0-3-.36-3-2.28V83.09h-1.59V81.33h1.59V78.47h2.63Z"/><path class="cls-32" d="M1107.08,86.75c.07,1.68.87,2.42,2.35,2.42a2.17,2.17,0,0,0,2.07-1.23h2.31a4.28,4.28,0,0,1-4.47,3.21,4.67,4.67,0,0,1-4.89-5,4.8,4.8,0,0,1,4.89-5.05c3.25,0,4.84,2.74,4.64,5.68Zm4.27-1.66c-.24-1.33-.81-2-2.09-2a2.06,2.06,0,0,0-2.18,2Z"/><path class="cls-32" d="M1115.53,81.33h2.5v1.33h0a3.37,3.37,0,0,1,2.92-1.59c2.8,0,3.5,1.58,3.5,3.94v5.88h-2.63v-5.4c0-1.57-.44-2.34-1.68-2.34-1.42,0-2,.79-2,2.73v5h-2.63Z"/><path class="cls-32" d="M1126.49,81.33h2.5v1.33h.06a3.36,3.36,0,0,1,2.92-1.59c2.79,0,3.49,1.58,3.49,3.94v5.88h-2.62v-5.4c0-1.57-.45-2.34-1.69-2.34-1.42,0-2,.79-2,2.73v5h-2.63Z"/><path class="cls-32" d="M1137.35,84.27c.15-2.44,2.35-3.2,4.49-3.2,1.91,0,4.2.43,4.2,2.72v5a4.85,4.85,0,0,0,.33,2.12h-2.66a4.07,4.07,0,0,1-.19-.92,4.34,4.34,0,0,1-3.21,1.18c-1.84,0-3.26-.9-3.26-2.86,0-4.35,6.47-2,6.36-4.16,0-1.11-.77-1.3-1.7-1.3s-1.64.41-1.74,1.44Zm6.06,2a5.38,5.38,0,0,1-2.18.55c-.81.15-1.55.44-1.55,1.41s.75,1.22,1.61,1.22a1.94,1.94,0,0,0,2.12-2.21Z"/><path class="cls-32" d="M988.86,116.74a15.41,15.41,0,0,1-2.91-8.65,14.43,14.43,0,0,1,2.91-8.53h1.2a15.13,15.13,0,0,0-2.44,8.53,15.54,15.54,0,0,0,2.44,8.65Z"/><path class="cls-32" d="M999,103.74c-.2-1.9-1.44-2.7-3.27-2.7-1.5,0-3,.54-3,2.26,0,3.25,8.45,1,8.45,6.16,0,2.81-2.75,3.94-5.16,3.94-3,0-5.45-1.46-5.45-4.66h1.66c0,2.22,1.85,3.18,3.85,3.18,1.59,0,3.35-.5,3.35-2.41,0-3.62-8.46-1.24-8.46-6.08,0-2.66,2.37-3.87,4.79-3.87,2.7,0,4.78,1.28,4.87,4.18Z"/><path class="cls-32" d="M1003.33,99.88h2.41L1009.9,111l4.18-11.09h2.4v13.2h-1.66v-11h0l-4.12,11h-1.5l-4.12-11h0v11h-1.67Z"/><path class="cls-32" d="M1023,99.88h1.94l5.16,13.2h-1.94l-1.44-4h-5.59l-1.48,4h-1.81Zm-1.31,7.75h4.47l-2.2-6.16h0Z"/><path class="cls-32" d="M1036.52,99.88h8.68v1.48h-6.92v4.2h6.07V107h-6.07v6h-1.76Z"/><path class="cls-32" d="M1055,110.05a3.81,3.81,0,0,1-4.08,3.25c-3.06,0-4.5-2.12-4.59-5s1.89-5,4.49-5c3.39,0,4.42,3.16,4.33,5.47H1048a2.82,2.82,0,0,0,3,3.15,2.28,2.28,0,0,0,2.48-1.87Zm-1.51-2.66a2.76,2.76,0,0,0-2.76-2.7,2.72,2.72,0,0,0-2.74,2.7Z"/><path class="cls-32" d="M1056.81,103.52h1.48v1.41h0a3.47,3.47,0,0,1,3.09-1.63,2.5,2.5,0,0,1,2.63,1.63,3.45,3.45,0,0,1,3-1.63c1.91,0,3.18.79,3.18,2.77v7h-1.57v-6.27c0-1.18-.31-2.12-1.85-2.12a2.3,2.3,0,0,0-2.49,2.44v6h-1.58v-6.27c0-1.24-.38-2.12-1.79-2.12a2.58,2.58,0,0,0-2.55,2.44v6h-1.57Z"/><path class="cls-32" d="M1081.05,113.05a2.31,2.31,0,0,1-1.13.25c-.81,0-1.33-.44-1.33-1.48a4.18,4.18,0,0,1-3.37,1.48c-1.74,0-3.16-.75-3.16-2.68,0-2.16,1.61-2.64,3.24-2.94s3.21-.2,3.21-1.4c0-1.39-1.14-1.59-2.12-1.59-1.33,0-2.31.4-2.39,1.81h-1.57c.09-2.37,1.9-3.2,4-3.2,1.72,0,3.59.39,3.59,2.63v4.92c0,.73,0,1.07.5,1.07a1.47,1.47,0,0,0,.48-.1Zm-2.55-4.9c-1.22.9-4.78,0-4.78,2.36,0,1,.89,1.41,1.85,1.41,2.08,0,2.93-1.28,2.93-2.17Z"/><path class="cls-32" d="M1082.6,99.88h1.57v13.2h-1.57Z"/><path class="cls-32" d="M1094.77,110.05a3.83,3.83,0,0,1-4.09,3.25c-3,0-4.49-2.12-4.59-5s1.89-5,4.5-5c3.38,0,4.42,3.16,4.32,5.47h-7.15a2.82,2.82,0,0,0,3,3.15,2.27,2.27,0,0,0,2.47-1.87Zm-1.52-2.66a2.74,2.74,0,0,0-2.75-2.7,2.71,2.71,0,0,0-2.74,2.7Z"/><path class="cls-32" d="M1111.22,103.85a3.49,3.49,0,0,0-3.7-2.81c-3.14,0-4.47,2.59-4.47,5.35,0,3,1.33,5.53,4.49,5.53a3.73,3.73,0,0,0,3.81-3.81h1.76c-.35,3.31-2.37,5.29-5.71,5.29-4.09,0-6.11-3-6.11-6.88s2.18-7,6.25-7c2.76,0,5,1.48,5.44,4.29Z"/><path class="cls-32" d="M1119.15,103.3c3,0,4.65,2.2,4.65,5s-1.61,5-4.65,5-4.64-2.2-4.64-5S1116.12,103.3,1119.15,103.3Zm0,8.62c1.65,0,3-1.3,3-3.61s-1.33-3.62-3-3.62-3,1.31-3,3.62S1117.51,111.92,1119.15,111.92Z"/><path class="cls-32" d="M1125.64,103.52h1.48V105h0a3.31,3.31,0,0,1,3.11-1.74c2.51,0,3.29,1.44,3.29,3.49v6.29H1132v-6.47a1.79,1.79,0,0,0-2-1.92,2.69,2.69,0,0,0-2.83,3v5.4h-1.57Z"/><path class="cls-32" d="M1135.92,103.52h1.48V105h0a3.31,3.31,0,0,1,3.11-1.74c2.51,0,3.29,1.44,3.29,3.49v6.29h-1.57v-6.47a1.79,1.79,0,0,0-1.94-1.92,2.68,2.68,0,0,0-2.83,3v5.4h-1.58Z"/><path class="cls-32" d="M1154.36,110.05a3.82,3.82,0,0,1-4.09,3.25c-3,0-4.49-2.12-4.58-5s1.88-5,4.49-5c3.38,0,4.42,3.16,4.33,5.47h-7.16a2.82,2.82,0,0,0,3,3.15,2.28,2.28,0,0,0,2.48-1.87Zm-1.52-2.66a2.74,2.74,0,0,0-2.75-2.7,2.71,2.71,0,0,0-2.74,2.7Z"/><path class="cls-32" d="M1162.62,106.59a2.21,2.21,0,0,0-2.36-1.9c-2.28,0-3,1.81-3,3.73s.8,3.5,2.79,3.5a2.45,2.45,0,0,0,2.63-2.33h1.61a4,4,0,0,1-4.22,3.71c-2.92,0-4.47-2-4.47-4.88s1.47-5.12,4.51-5.12c2.18,0,3.88,1,4.12,3.29Z"/><path class="cls-32" d="M1168.24,103.52h1.91v1.39h-1.91v5.94c0,.73.21.85,1.19.85h.72v1.38H1169c-1.63,0-2.28-.33-2.28-2.09v-6.08H1165v-1.39h1.63v-2.87h1.57Z"/><path class="cls-32" d="M1176,103.3c3,0,4.64,2.2,4.64,5s-1.61,5-4.64,5-4.64-2.2-4.64-5S1173,103.3,1176,103.3Zm0,8.62c1.65,0,3-1.3,3-3.61s-1.33-3.62-3-3.62-3,1.31-3,3.62S1174.36,111.92,1176,111.92Z"/><path class="cls-32" d="M1182.44,103.52h1.48v2h0a3.44,3.44,0,0,1,3.51-2.24V105c-2.53,0-3.45,1.43-3.45,3.87v4.25h-1.58Z"/><path class="cls-32" d="M1187.29,116.74a15.18,15.18,0,0,0,2.44-8.52,15.65,15.65,0,0,0-2.44-8.66h1.2a15.53,15.53,0,0,1,2.9,8.66,14.43,14.43,0,0,1-2.9,8.52Z"/></g><line class="cls-35" x1="1088.67" y1="122.3" x2="1088.67" y2="293.85"/><path class="cls-34" d="M1084.91,122.48a3.76,3.76,0,1,1,3.76,3.76A3.77,3.77,0,0,1,1084.91,122.48Z"/><g class="cls-31"><path class="cls-32" d="M953.67,773.91h-3.95v-2.44h10.81v2.44h-3.95v10.76h-2.91Z"/><path class="cls-32" d="M962.05,771.47h9.28v2.44H965V777h5.53v2.26H965v5.45h-2.9Z"/><path class="cls-32" d="M987,775.91a2.88,2.88,0,0,0-2.89-2.31c-2.61,0-3.59,2.21-3.59,4.53s1,4.42,3.59,4.42c1.78,0,2.78-1.21,3-3h2.81a5.56,5.56,0,0,1-5.81,5.4c-4.07,0-6.49-3-6.49-6.86s2.42-7,6.49-7c2.89,0,5.35,1.71,5.7,4.76Z"/><path class="cls-32" d="M991.47,778.05c.14-2.44,2.34-3.2,4.49-3.2,1.91,0,4.2.43,4.2,2.72v5a4.88,4.88,0,0,0,.33,2.12h-2.66a4.07,4.07,0,0,1-.19-.92,4.34,4.34,0,0,1-3.22,1.18c-1.83,0-3.25-.9-3.25-2.86,0-4.35,6.47-2,6.36-4.17,0-1.1-.78-1.29-1.7-1.29s-1.65.41-1.74,1.44Zm6.06,1.94a5.21,5.21,0,0,1-2.18.56c-.81.15-1.55.44-1.55,1.4s.75,1.23,1.61,1.23a1.94,1.94,0,0,0,2.12-2.21Z"/><path class="cls-32" d="M1002.19,775.11h2.5v1.78h0a3.37,3.37,0,0,1,3-2,1.86,1.86,0,0,1,.58.1v2.44a4.44,4.44,0,0,0-.94-.1c-1.95,0-2.59,1.37-2.59,3.07v4.31h-2.63Z"/><path class="cls-32" d="M1016.21,783.45h0a3.15,3.15,0,0,1-2.9,1.48c-2.89,0-4.29-2.46-4.29-5.12s1.42-5,4.23-5a3.27,3.27,0,0,1,2.83,1.43h0v-4.81h2.62v13.2h-2.49Zm-2.3-6.62c-1.72,0-2.31,1.5-2.31,3s.69,3.07,2.31,3.07,2.26-1.51,2.26-3.09S1015.61,776.83,1013.91,776.83Z"/><path class="cls-32" d="M977.4,797.52c-.21-1.9-1.45-2.7-3.28-2.7-1.49,0-3,.54-3,2.26,0,3.25,8.46,1,8.46,6.16,0,2.81-2.76,3.94-5.16,3.94-3,0-5.46-1.46-5.46-4.66h1.66c0,2.21,1.85,3.18,3.85,3.18,1.59,0,3.35-.5,3.35-2.41,0-3.62-8.45-1.24-8.45-6.08,0-2.66,2.37-3.87,4.79-3.87,2.7,0,4.77,1.28,4.86,4.18Z"/><path class="cls-32" d="M981.57,793.66h1.58v13.2h-1.58Z"/><path class="cls-32" d="M989.71,797.08c3,0,4.64,2.2,4.64,5s-1.61,5-4.64,5-4.64-2.2-4.64-5S986.68,797.08,989.71,797.08Zm0,8.62c1.65,0,3-1.3,3-3.61s-1.33-3.62-3-3.62-3,1.31-3,3.62S988.06,805.7,989.71,805.7Z"/><path class="cls-32" d="M998.38,797.3h1.91v1.39h-1.91v5.93c0,.74.2.86,1.19.86h.72v1.38h-1.21c-1.62,0-2.27-.33-2.27-2.09v-6.08h-1.63V797.3h1.63v-2.87h1.57Z"/></g><line class="cls-35" x1="984.58" y1="544.71" x2="984.58" y2="755.02"/><path class="cls-34" d="M980.82,754.83a3.76,3.76,0,1,0,3.76-3.76A3.76,3.76,0,0,0,980.82,754.83Z"/><g class="cls-31"><path class="cls-32" d="M1300.88,696.36c-.15-2.66,1.45-4.64,4.22-4.64,2.27,0,4.11,1.33,4.11,3.77s-1.56,3.46-3.19,4.5-3.38,1.85-3.68,3.46h6.74v1.38h-8.57c.24-3.09,1.83-4.25,3.68-5.36,2.22-1.39,3.35-2.16,3.35-4a2.39,2.39,0,0,0-2.53-2.37c-1.83,0-2.61,1.68-2.55,3.25Z"/><path class="cls-32" d="M1314.1,699.8l-3.33-4.53h2l2.29,3.35,2.39-3.35h1.89l-3.3,4.4,3.7,5.16h-2l-2.67-4-2.66,4h-1.9Z"/><path class="cls-32" d="M1337.55,699.84c0,3.57-2.11,5.31-5.64,5.31s-5.62-1.7-5.62-5.31v-8.21h2.9v8.21c0,1.44.37,2.87,2.72,2.87,2.07,0,2.74-.89,2.74-2.87v-8.21h2.9Z"/><path class="cls-32" d="M1342,700.45c0,1.76,1.37,2.44,2.93,2.44,1,0,2.57-.29,2.57-1.65s-2-1.64-3.93-2.18-3.93-1.31-3.93-3.75c0-2.72,2.55-4,4.93-4,2.76,0,5.29,1.21,5.29,4.26h-2.81c-.09-1.57-1.2-2-2.61-2-.92,0-2,.39-2,1.5s.63,1.16,3.94,2c1,.23,3.92.87,3.92,3.85,0,2.42-1.89,4.24-5.5,4.24-2.92,0-5.67-1.45-5.62-4.7Z"/><path class="cls-32" d="M1352,691.63h6.22c2.51,0,4.21.81,4.21,3.27a2.87,2.87,0,0,1-1.79,2.76,3.2,3.2,0,0,1,2.42,3.34c0,2.69-2.27,3.83-4.66,3.83H1352ZM1355,697h2.94c1,0,1.77-.46,1.77-1.57s-1-1.52-2-1.52H1355Zm0,5.61h3.1c1.13,0,2.15-.37,2.15-1.74s-.83-1.89-2.09-1.89H1355Z"/><path class="cls-32" d="M1369.61,696.86c-.09-3,1.59-5.23,4.7-5.23,2.36,0,4.44,1.52,4.44,4,0,3.92-4.17,4.23-6,6.9h6.12v2.25h-9.51c0-3,1.85-4.25,4.09-5.79,1.13-.79,2.72-1.57,2.72-3.16a1.86,1.86,0,0,0-1.94-2c-1.56,0-2.06,1.61-2.06,3Z"/><path class="cls-32" d="M1380.32,702h2.9v2.85h-2.9Z"/><path class="cls-32" d="M1389.47,691.63c2.59,0,4.77,1.63,4.77,6.67s-2.18,6.79-4.77,6.79-4.74-1.63-4.74-6.79S1386.9,691.63,1389.47,691.63Zm0,11.3c2.14,0,2.14-3.16,2.14-4.63s0-4.51-2.14-4.51-2.11,3.16-2.11,4.51S1387.36,702.93,1389.47,702.93Z"/></g><line class="cls-36" x1="1347.35" y1="547.8" x2="1347.35" y2="673.28"/><path class="cls-34" d="M1343,673.07a4.34,4.34,0,1,0,4.34-4.34A4.33,4.33,0,0,0,1343,673.07Z"/><g class="cls-31"><path class="cls-32" d="M1408.44,782.76c-.15-2.67,1.44-4.65,4.21-4.65,2.28,0,4.11,1.33,4.11,3.78s-1.55,3.45-3.18,4.49-3.39,1.85-3.68,3.46h6.73v1.39h-8.56c.24-3.09,1.83-4.26,3.68-5.37,2.22-1.38,3.34-2.16,3.34-4a2.38,2.38,0,0,0-2.53-2.37c-1.83,0-2.61,1.68-2.55,3.26Z"/><path class="cls-32" d="M1421.66,786.19l-3.33-4.53h2l2.3,3.35,2.38-3.35h1.89l-3.29,4.4,3.7,5.17h-2l-2.66-4-2.67,4h-1.9Z"/><path class="cls-32" d="M1445.1,786.23c0,3.57-2.1,5.31-5.64,5.31s-5.62-1.7-5.62-5.31V778h2.9v8.21c0,1.44.37,2.87,2.72,2.87,2.07,0,2.74-.89,2.74-2.87V778h2.9Z"/><path class="cls-32" d="M1449.58,786.84c0,1.76,1.37,2.44,2.92,2.44,1,0,2.57-.29,2.57-1.64s-2-1.65-3.92-2.18-3.94-1.32-3.94-3.76c0-2.72,2.55-4,4.94-4,2.75,0,5.29,1.2,5.29,4.25h-2.82c-.09-1.57-1.2-2-2.6-2-.93,0-2,.39-2,1.5s.63,1.17,3.94,2c1,.22,3.92.87,3.92,3.84,0,2.43-1.89,4.24-5.49,4.24-2.92,0-5.68-1.44-5.62-4.7Z"/><path class="cls-32" d="M1459.6,778h6.21c2.52,0,4.22.81,4.22,3.27a2.86,2.86,0,0,1-1.8,2.76,3.21,3.21,0,0,1,2.43,3.35c0,2.68-2.28,3.83-4.66,3.83h-6.4Zm2.9,5.35h2.94c1,0,1.78-.47,1.78-1.58s-1-1.51-2-1.51h-2.72Zm0,5.6h3.11c1.13,0,2.14-.37,2.14-1.74s-.83-1.89-2.09-1.89h-3.16Z"/><path class="cls-32" d="M1480.7,783.51c1.12.1,2.75-.13,2.75-1.61a1.71,1.71,0,0,0-1.83-1.72c-1.33,0-2,1-2,2.32h-2.49a4.29,4.29,0,0,1,4.47-4.48c2.07,0,4.35,1.28,4.35,3.59a2.56,2.56,0,0,1-1.82,2.64v0a2.88,2.88,0,0,1,2.3,2.94c0,2.72-2.3,4.25-4.81,4.25-2.9,0-4.86-1.73-4.81-4.71h2.5c0,1.4.76,2.55,2.27,2.55a2,2,0,0,0,2.11-2c0-2-1.72-1.93-3-1.93Z"/><path class="cls-32" d="M1487.87,788.38h2.9v2.85h-2.9Z"/><path class="cls-32" d="M1497,778c2.59,0,4.77,1.63,4.77,6.68s-2.18,6.78-4.77,6.78-4.73-1.62-4.73-6.78S1494.45,778,1497,778Zm0,11.3c2.15,0,2.15-3.16,2.15-4.62s0-4.52-2.15-4.52-2.11,3.17-2.11,4.52S1494.91,789.32,1497,789.32Z"/></g><line class="cls-36" x1="1454.9" y1="547.8" x2="1454.9" y2="761.67"/><path class="cls-34" d="M1450.57,761.45a4.33,4.33,0,1,0,4.33-4.33A4.33,4.33,0,0,0,1450.57,761.45Z"/><g class="cls-31"><path class="cls-32" d="M1071,677.4h1.76v11.72h7v1.48H1071Z"/><path class="cls-32" d="M1081.24,677.4h9.12v1.48H1083v4.19h6.86v1.48H1083v4.57h7.41v1.48h-9.17Z"/><path class="cls-32" d="M1092.54,677.4h4.53c4.07,0,6.34,2.05,6.34,6.28,0,4.42-1.94,6.92-6.34,6.92h-4.53Zm1.75,11.72h2.93c1.2,0,4.44-.33,4.44-5.19,0-3.15-1.17-5-4.41-5h-3Z"/></g><line class="cls-35" x1="1086.81" y1="498.75" x2="1086.81" y2="664.95"/><path class="cls-34" d="M1083.05,664.77a3.76,3.76,0,1,0,3.76-3.76A3.77,3.77,0,0,0,1083.05,664.77Z"/><rect class="cls-35" x="1068.63" y="479.69" width="36.37" height="19.06" rx="6.53"/></g></svg>