<svg xmlns="http://www.w3.org/2000/svg" viewBox="0 0 785.17 471.64"><defs><style>.cls-1,.cls-14{fill:#256bb4;}.cls-2,.cls-4,.cls-5{fill:none;stroke-miterlimit:10;stroke-width:2px;}.cls-2{stroke:#fbb038;}.cls-3{fill:#fbb038;}.cls-4{stroke:#999;}.cls-5{stroke:#be1e2d;}.cls-6,.cls-8{fill:#be1e2d;}.cls-7{fill:#999;}.cls-14,.cls-8,.cls-9{font-size:17px;}.cls-11,.cls-12,.cls-14,.cls-8,.cls-9{font-family:HelveticaNeueLTPro-Roman, Helvetica Neue LT Pro;}.cls-9{fill:#97999a;}.cls-10,.cls-11,.cls-12{font-size:19px;}.cls-10,.cls-11,.cls-13{fill:#fff;}.cls-10{font-family:MyriadPro-Regular, Myriad Pro;}.cls-12{fill:#f99d22;}</style></defs><g id="Layer_2" data-name="Layer 2"><g id="Layer_2-2" data-name="Layer 2"><rect class="cls-1" x="249.49" y="9.28" width="260.43" height="324" rx="15.32"/><rect class="cls-1" x="249.49" y="421.64" width="116.26" height="50" rx="6.98"/><rect class="cls-1" x="-96.97" y="137.96" width="342.47" height="66.55" rx="6.98" transform="translate(245.49 96.97) rotate(90)"/><rect class="cls-1" x="546.18" y="421.64" width="76.09" height="50" rx="6.98"/><rect class="cls-1" x="544.9" y="335.34" width="106.72" height="50" rx="6.98"/><polyline class="cls-2" points="595.21 212.82 595.21 249.76 509.92 249.76"/><polygon class="cls-3" points="579.25 188.91 595.21 215.7 611.16 188.91 579.25 188.91"/><polyline class="cls-4" points="546.18 456.94 489.24 456.94 489.24 333.28"/><polyline class="cls-4" points="544.9 370.98 489.24 370.98 489.24 333.28"/><polyline class="cls-2" points="509.92 142.3 595.21 142.3 595.21 104.93"/><polygon class="cls-3" points="611.16 81.02 595.21 107.81 579.25 81.02 611.16 81.02"/><line class="cls-5" x1="107.54" y1="104.51" x2="240.88" y2="104.51"/><polygon class="cls-6" points="239.13 110.49 249.5 104.51 239.13 98.53 239.13 110.49"/><line class="cls-4" x1="116.15" y1="180.09" x2="240.88" y2="180.09"/><polygon class="cls-7" points="117.9 186.07 107.54 180.09 117.9 174.1 117.9 186.07"/><polygon class="cls-7" points="239.13 186.07 249.5 180.09 239.13 174.1 239.13 186.07"/><line class="cls-4" x1="116.15" y1="285.62" x2="240.88" y2="285.62"/><polygon class="cls-7" points="117.9 291.6 107.54 285.62 117.9 279.63 117.9 291.6"/><polygon class="cls-7" points="239.13 291.6 249.5 285.62 239.13 279.63 239.13 291.6"/><line class="cls-4" x1="307.62" y1="341.89" x2="307.62" y2="421.64"/><polygon class="cls-7" points="301.64 343.64 307.62 333.28 313.61 343.64 301.64 343.64"/><text class="cls-8" transform="translate(147.66 99.04)">POWER</text><text class="cls-9" transform="translate(156.17 173.01)">UART</text><text class="cls-9" transform="translate(150.5 279.43)">Control</text><text class="cls-9" transform="translate(150.81 303.39)">Signals</text><text class="cls-10" transform="translate(291.41 452.69)">USB</text><text class="cls-11" transform="translate(556.73 366.67)">Nano Sim</text><text class="cls-12" transform="translate(612.35 225.42)">GPS Antenna</text><text class="cls-12" transform="translate(612.35 120.63)">LTE Antenna</text><text class="cls-11" transform="translate(560.86 452.76)">ESIM</text><path class="cls-13" d="M336,158.43h9.32c2.24,0,5.3,0,6.81.93a6.07,6.07,0,0,1,3,5.37,5.87,5.87,0,0,1-3.82,5.75v.08a5.91,5.91,0,0,1,4.9,6.19c0,3.74-2.74,7.38-7.81,7.38H336Zm3.42,11h6.84c3.89,0,5.47-1.37,5.47-4.11,0-3.6-2.48-4.06-5.47-4.06h-6.84Zm0,11.77h8.57c3,0,4.82-1.77,4.82-4.61,0-3.35-2.7-4.28-5.58-4.28h-7.81Z"/><path class="cls-13" d="M379.83,180.92a10.23,10.23,0,0,1-8.24,3.82c-7.67,0-12.24-6.23-12.24-13,0-7.49,4.1-14,12.24-14,5.58,0,10.11,2.52,11.05,8.54h-3.42c-.68-3.89-3.78-5.66-7.63-5.66-6.23,0-8.82,5.44-8.82,10.91s3.1,10.26,8.82,10.26c5.33,0,8.42-3.67,8.24-8.39h-8.2v-2.88h11.26v13.54h-2.16Z"/><path class="cls-13" d="M403.45,161.67c-5.15,5.07-9.32,14.5-9.79,22.46h-3.42a36.4,36.4,0,0,1,10.08-22.21H386.93V159h16.52Z"/><path class="cls-13" d="M423.46,161.67c-5.14,5.07-9.32,14.5-9.79,22.46h-3.42a36.51,36.51,0,0,1,10.08-22.21H406.94V159h16.52Z"/><text class="cls-14" transform="translate(0 372.75)">WisIO Connector</text></g></g></svg>