<?xml version="1.0" encoding="utf-8"?>
<!-- Generator: Adobe Illustrator 26.3.1, SVG Export Plug-In . SVG Version: 6.00 Build 0)  -->
<svg version="1.1" id="Layer_2_00000138567586368090714260000009772400480714747274_"
	 xmlns="http://www.w3.org/2000/svg" xmlns:xlink="http://www.w3.org/1999/xlink" x="0px" y="0px" viewBox="0 0 245 159.1"
	 style="enable-background:new 0 0 245 159.1;" xml:space="preserve">
<style type="text/css">
	.st0{fill:#BFBFBF;}
	.st1{fill:#E9F3FB;}
	.st2{fill:#323C49;}
	.st3{fill:#222630;}
	.st4{fill:#C8B99F;}
	.st5{fill:#D2D2D2;}
	.st6{fill:#BD8C3F;}
	.st7{fill:#7F7F7F;}
	.st8{fill:#333333;}
	.st9{fill:#B2B2B2;}
	.st10{fill:#B85C00;}
	.st11{fill:#FA0200;}
	.st12{fill:#FFFFFF;}
	.st13{fill:none;stroke:#FFFFFF;stroke-width:0.6795;stroke-linecap:round;stroke-miterlimit:10;}
</style>
<path class="st0" d="M105.8,28H0v24.7h6.2c4.9,0,8.8,3.9,8.8,8.8v0c0,4.9-3.9,8.8-8.8,8.8H0v60.9h105.8V28z"/>
<path class="st1" d="M96.9,46.6v0.9c0,0.8-0.7,1.5-1.5,1.5H79.3c-0.8,0-1.5-0.7-1.5-1.5v-0.9c0-0.8,0.7-1.5,1.5-1.5h16.1
	C96.2,45.1,96.9,45.8,96.9,46.6z"/>
<path class="st1" d="M96.9,110.8v0.9c0,0.8-0.7,1.5-1.5,1.5H79.3c-0.8,0-1.5-0.7-1.5-1.5v-0.9c0-0.8,0.7-1.5,1.5-1.5h16.1
	C96.2,109.3,96.9,110,96.9,110.8z"/>
<path class="st2" d="M91.8,114.8h1.6c0.8,0,1.5-0.7,1.5-1.5v-3.1c0-0.6-0.4-1.2-1-1.4V50.1c0.6-0.2,1-0.8,1-1.4v-3.1
	c0-0.8-0.7-1.5-1.5-1.5h-1.6c-0.7,0-1.3,0.5-1.4,1.1h-6.1c-0.2-0.6-0.8-1.1-1.4-1.1h-1.6c-0.8,0-1.5,0.7-1.5,1.5v3.1
	c0,0.7,0.4,1.2,1,1.4v58.6c-0.6,0.2-1,0.8-1,1.4v3.1c0,0.8,0.7,1.5,1.5,1.5h1.6c0.6,0,1.2-0.4,1.4-0.9h6.1
	C90.6,114.4,91.2,114.8,91.8,114.8z"/>
<path class="st3" d="M92.2,51.7v55.4c0,0.4-0.3,0.8-0.8,0.8h-8.5c-0.4,0-0.8-0.3-0.8-0.8V51.7c0-0.4,0.3-0.8,0.8-0.8h8.5
	C91.9,51,92.2,51.3,92.2,51.7z"/>
<path class="st4" d="M20.2,61.4v-0.9c0-7.5-6.1-13.6-13.6-13.6H0v5.7h6.2c4.9,0,8.8,3.9,8.8,8.8v0c0,4.9-3.9,8.8-8.8,8.8H0V75h6.6
	C14.1,75,20.2,68.9,20.2,61.4L20.2,61.4z"/>
<polygon class="st5" points="64.3,100 68.1,100 68.1,90.5 64.3,90.5 64.3,87 68.1,87 68.1,76.6 64.3,76.6 64.3,73.1 68.1,73.1 
	68.1,63.8 64.3,63.8 64.3,60.1 44.7,60.1 44.7,103.3 64.3,103.3 "/>
<g>
	<path class="st5" d="M25.3,53.8v-2.3l7-1.7v0l-7-1.7v-2.3L35.6,43v2.3l-7,1.6v0l7,1.8v2.1l-7.1,1.8v0l7.1,1.7v2.2L25.3,53.8
		L25.3,53.8z"/>
	<path class="st5" d="M32.8,57.4v2h-7.5v-2H32.8z M33.9,59.5v-2h1.7v2H33.9z"/>
	<path class="st5" d="M27.7,62.7c-0.9,0-1.3,0.8-1.3,1.6c0,0.6,0.2,1.3,1,1.3c0.6,0,0.9-0.9,1.2-2.3c0.3-1.2,0.7-2.4,2-2.4
		c1.9,0,2.4,1.6,2.4,3.2c0,1.6-0.5,3.1-2.4,3.3v-1.9c0.8-0.1,1-0.7,1-1.4c0-0.5-0.1-1.1-0.7-1.1c-0.7,0-0.8,1.2-1.1,2.3
		c-0.3,1.2-0.7,2.4-2.1,2.4c-2,0-2.6-1.7-2.6-3.4c0-1.7,0.6-3.4,2.6-3.5V62.7L27.7,62.7z"/>
	<path class="st5" d="M35.6,69.1v4.9c0,2-0.6,3.3-2.6,3.3c-1,0-1.7-0.5-2.2-1.4c-0.4,1.3-1.3,1.9-2.6,1.9c-2.1,0-3-1.8-3-3.6v-5
		C25.3,69.1,35.6,69.1,35.6,69.1z M27.1,71.3v2.4c0,0.9,0.3,1.7,1.4,1.7c1.1,0,1.5-0.6,1.5-1.6v-2.5H27.1z M31.4,71.3v2.3
		c0,0.8,0.4,1.4,1.2,1.4c1,0,1.2-0.8,1.2-1.6v-2.1H31.4z"/>
	<path class="st5" d="M35.6,79.2v2.3h-8.4v5h-1.9v-7.3H35.6z"/>
	<path class="st5" d="M35.9,92.4c0,3.2-2.4,5.1-5.4,5.1c-3,0-5.4-1.9-5.4-5.1s2.4-5.1,5.4-5.1C33.5,87.3,35.9,89.2,35.9,92.4z
		 M27,92.4c0,2,1.7,2.8,3.4,2.8c1.8,0,3.5-0.8,3.5-2.8c0-2-1.7-2.8-3.5-2.8C28.7,89.6,27,90.4,27,92.4z"/>
	<path class="st5" d="M32.2,105.9c1-0.2,1.8-1.1,1.8-2.3c0-2-1.7-2.8-3.5-2.8c-1.7,0-3.4,0.8-3.4,2.8c0,1.4,0.9,2.2,2.3,2.3v2.2
		c-2.6-0.2-4.2-2-4.2-4.5c0-3.2,2.4-5.1,5.4-5.1c3.1,0,5.4,1.9,5.4,5.1c0,2.3-1.3,4.2-3.7,4.4C32.2,108.1,32.2,105.9,32.2,105.9z"/>
	<path class="st5" d="M35.6,109.7v2.3h-4.3l4.3,4v2.8l-4.1-4l-6.2,4.4v-2.8l4.6-3.1l-1.3-1.3h-3.3v-2.3
		C25.3,109.7,35.6,109.7,35.6,109.7z"/>
</g>
<g>
	<path class="st1" d="M100.2,56.7V55c0-0.3-0.2-0.5-0.5-0.5h-1.5c-0.2,0-0.4,0.2-0.5,0.4h-4.1v1.8h4.1c0,0.2,0.2,0.4,0.5,0.4h1.5
		C100,57.2,100.2,57,100.2,56.7z"/>
	<path class="st6" d="M93.9,54.2v2.3c0,0.2-0.2,0.4-0.4,0.4h-1.1c-0.2,0-0.4-0.2-0.4-0.4v-2.3c0-0.2,0.2-0.4,0.4-0.4h1.1
		C93.8,53.8,93.9,54,93.9,54.2z"/>
	<path class="st1" d="M74.2,56.7V55c0-0.3,0.2-0.5,0.5-0.5h1.5c0.2,0,0.4,0.2,0.5,0.4h4.1v1.8h-4.1c0,0.2-0.2,0.4-0.5,0.4h-1.5
		C74.4,57.2,74.2,57,74.2,56.7z"/>
	<path class="st6" d="M82.3,54.2v2.3c0,0.2-0.2,0.4-0.4,0.4h-1.1c-0.2,0-0.4-0.2-0.4-0.4v-2.3c0-0.2,0.2-0.4,0.4-0.4H82
		C82.2,53.8,82.3,54,82.3,54.2z"/>
</g>
<g>
	<path class="st1" d="M100.2,61v-1.7c0-0.3-0.2-0.5-0.5-0.5h-1.5c-0.2,0-0.4,0.2-0.5,0.4h-4.1V61h4.1c0,0.2,0.2,0.4,0.5,0.4h1.5
		C100,61.4,100.2,61.2,100.2,61z"/>
	<path class="st6" d="M93.9,58.4v2.3c0,0.2-0.2,0.4-0.4,0.4h-1.1c-0.2,0-0.4-0.2-0.4-0.4v-2.3c0-0.2,0.2-0.4,0.4-0.4h1.1
		C93.8,58.1,93.9,58.2,93.9,58.4z"/>
	<path class="st1" d="M74.2,61v-1.7c0-0.3,0.2-0.5,0.5-0.5h1.5c0.2,0,0.4,0.2,0.5,0.4h4.1V61h-4.1c0,0.2-0.2,0.4-0.5,0.4h-1.5
		C74.4,61.4,74.2,61.2,74.2,61z"/>
	<path class="st6" d="M82.3,58.4v2.3c0,0.2-0.2,0.4-0.4,0.4h-1.1c-0.2,0-0.4-0.2-0.4-0.4v-2.3c0-0.2,0.2-0.4,0.4-0.4H82
		C82.2,58.1,82.3,58.2,82.3,58.4z"/>
</g>
<g>
	<path class="st1" d="M100.2,65.5v-1.7c0-0.3-0.2-0.5-0.5-0.5h-1.5c-0.2,0-0.4,0.2-0.5,0.4h-4.1v1.8h4.1c0,0.2,0.2,0.4,0.5,0.4h1.5
		C100,65.9,100.2,65.7,100.2,65.5z"/>
	<path class="st6" d="M93.9,62.9v2.3c0,0.2-0.2,0.4-0.4,0.4h-1.1c-0.2,0-0.4-0.2-0.4-0.4v-2.3c0-0.2,0.2-0.4,0.4-0.4h1.1
		C93.8,62.6,93.9,62.7,93.9,62.9z"/>
	<path class="st1" d="M74.2,65.5v-1.7c0-0.3,0.2-0.5,0.5-0.5h1.5c0.2,0,0.4,0.2,0.5,0.4h4.1v1.8h-4.1c0,0.2-0.2,0.4-0.5,0.4h-1.5
		C74.4,65.9,74.2,65.7,74.2,65.5z"/>
	<path class="st6" d="M82.3,62.9v2.3c0,0.2-0.2,0.4-0.4,0.4h-1.1c-0.2,0-0.4-0.2-0.4-0.4v-2.3c0-0.2,0.2-0.4,0.4-0.4H82
		C82.2,62.6,82.3,62.7,82.3,62.9z"/>
</g>
<g>
	<path class="st1" d="M100.2,69.9v-1.7c0-0.3-0.2-0.5-0.5-0.5h-1.5c-0.2,0-0.4,0.2-0.5,0.4h-4.1v1.8h4.1c0,0.2,0.2,0.4,0.5,0.4h1.5
		C100,70.3,100.2,70.1,100.2,69.9z"/>
	<path class="st6" d="M93.9,67.3v2.3c0,0.2-0.2,0.4-0.4,0.4h-1.1c-0.2,0-0.4-0.2-0.4-0.4v-2.3c0-0.2,0.2-0.4,0.4-0.4h1.1
		C93.8,67,93.9,67.1,93.9,67.3z"/>
	<path class="st1" d="M74.2,69.9v-1.7c0-0.3,0.2-0.5,0.5-0.5h1.5c0.2,0,0.4,0.2,0.5,0.4h4.1v1.8h-4.1c0,0.2-0.2,0.4-0.5,0.4h-1.5
		C74.4,70.3,74.2,70.1,74.2,69.9z"/>
	<path class="st6" d="M82.3,67.3v2.3c0,0.2-0.2,0.4-0.4,0.4h-1.1c-0.2,0-0.4-0.2-0.4-0.4v-2.3c0-0.2,0.2-0.4,0.4-0.4H82
		C82.2,67,82.3,67.1,82.3,67.3z"/>
</g>
<g>
	<path class="st1" d="M100.2,74.2v-1.7c0-0.3-0.2-0.5-0.5-0.5h-1.5c-0.2,0-0.4,0.2-0.5,0.4h-4.1v1.8h4.1c0,0.2,0.2,0.4,0.5,0.4h1.5
		C100,74.6,100.2,74.4,100.2,74.2z"/>
	<path class="st6" d="M93.9,71.6v2.3c0,0.2-0.2,0.4-0.4,0.4h-1.1c-0.2,0-0.4-0.2-0.4-0.4v-2.3c0-0.2,0.2-0.4,0.4-0.4h1.1
		C93.8,71.3,93.9,71.4,93.9,71.6z"/>
	<path class="st1" d="M74.2,74.2v-1.7c0-0.3,0.2-0.5,0.5-0.5h1.5c0.2,0,0.4,0.2,0.5,0.4h4.1v1.8h-4.1c0,0.2-0.2,0.4-0.5,0.4h-1.5
		C74.4,74.6,74.2,74.4,74.2,74.2z"/>
	<path class="st6" d="M82.3,71.6v2.3c0,0.2-0.2,0.4-0.4,0.4h-1.1c-0.2,0-0.4-0.2-0.4-0.4v-2.3c0-0.2,0.2-0.4,0.4-0.4H82
		C82.2,71.3,82.3,71.4,82.3,71.6z"/>
</g>
<g>
	<path class="st1" d="M100.2,78.4v-1.7c0-0.3-0.2-0.5-0.5-0.5h-1.5c-0.2,0-0.4,0.2-0.5,0.4h-4.1v1.8h4.1c0,0.2,0.2,0.4,0.5,0.4h1.5
		C100,78.9,100.2,78.7,100.2,78.4z"/>
	<path class="st6" d="M93.9,75.9v2.3c0,0.2-0.2,0.4-0.4,0.4h-1.1c-0.2,0-0.4-0.2-0.4-0.4v-2.3c0-0.2,0.2-0.4,0.4-0.4h1.1
		C93.8,75.5,93.9,75.7,93.9,75.9z"/>
	<path class="st1" d="M74.2,78.4v-1.7c0-0.3,0.2-0.5,0.5-0.5h1.5c0.2,0,0.4,0.2,0.5,0.4h4.1v1.8h-4.1c0,0.2-0.2,0.4-0.5,0.4h-1.5
		C74.4,78.9,74.2,78.7,74.2,78.4z"/>
	<path class="st6" d="M82.3,75.9v2.3c0,0.2-0.2,0.4-0.4,0.4h-1.1c-0.2,0-0.4-0.2-0.4-0.4v-2.3c0-0.2,0.2-0.4,0.4-0.4H82
		C82.2,75.5,82.3,75.7,82.3,75.9z"/>
</g>
<g>
	<path class="st1" d="M100.2,82.7V81c0-0.3-0.2-0.5-0.5-0.5h-1.5c-0.2,0-0.4,0.2-0.5,0.4h-4.1v1.8h4.1c0,0.2,0.2,0.4,0.5,0.4h1.5
		C100,83.2,100.2,83,100.2,82.7z"/>
	<path class="st6" d="M93.9,80.2v2.3c0,0.2-0.2,0.4-0.4,0.4h-1.1c-0.2,0-0.4-0.2-0.4-0.4v-2.3c0-0.2,0.2-0.4,0.4-0.4h1.1
		C93.8,79.8,93.9,80,93.9,80.2z"/>
	<path class="st1" d="M74.2,82.7V81c0-0.3,0.2-0.5,0.5-0.5h1.5c0.2,0,0.4,0.2,0.5,0.4h4.1v1.8h-4.1c0,0.2-0.2,0.4-0.5,0.4h-1.5
		C74.4,83.2,74.2,83,74.2,82.7z"/>
	<path class="st6" d="M82.3,80.2v2.3c0,0.2-0.2,0.4-0.4,0.4h-1.1c-0.2,0-0.4-0.2-0.4-0.4v-2.3c0-0.2,0.2-0.4,0.4-0.4H82
		C82.2,79.8,82.3,80,82.3,80.2z"/>
</g>
<g>
	<path class="st1" d="M100.2,87.1v-1.7c0-0.3-0.2-0.5-0.5-0.5h-1.5c-0.2,0-0.4,0.2-0.5,0.4h-4.1v1.8h4.1c0,0.2,0.2,0.4,0.5,0.4h1.5
		C100,87.5,100.2,87.3,100.2,87.1z"/>
	<path class="st6" d="M93.9,84.5v2.3c0,0.2-0.2,0.4-0.4,0.4h-1.1c-0.2,0-0.4-0.2-0.4-0.4v-2.3c0-0.2,0.2-0.4,0.4-0.4h1.1
		C93.8,84.2,93.9,84.3,93.9,84.5z"/>
	<path class="st1" d="M74.2,87.1v-1.7c0-0.3,0.2-0.5,0.5-0.5h1.5c0.2,0,0.4,0.2,0.5,0.4h4.1v1.8h-4.1c0,0.2-0.2,0.4-0.5,0.4h-1.5
		C74.4,87.5,74.2,87.3,74.2,87.1z"/>
	<path class="st6" d="M82.3,84.5v2.3c0,0.2-0.2,0.4-0.4,0.4h-1.1c-0.2,0-0.4-0.2-0.4-0.4v-2.3c0-0.2,0.2-0.4,0.4-0.4H82
		C82.2,84.2,82.3,84.3,82.3,84.5z"/>
</g>
<g>
	<path class="st1" d="M100.2,91.4v-1.7c0-0.3-0.2-0.5-0.5-0.5h-1.5c-0.2,0-0.4,0.2-0.5,0.4h-4.1v1.8h4.1c0,0.2,0.2,0.4,0.5,0.4h1.5
		C100,91.9,100.2,91.7,100.2,91.4z"/>
	<path class="st6" d="M93.9,88.9v2.3c0,0.2-0.2,0.4-0.4,0.4h-1.1c-0.2,0-0.4-0.2-0.4-0.4v-2.3c0-0.2,0.2-0.4,0.4-0.4h1.1
		C93.8,88.5,93.9,88.7,93.9,88.9z"/>
	<path class="st1" d="M74.2,91.4v-1.7c0-0.3,0.2-0.5,0.5-0.5h1.5c0.2,0,0.4,0.2,0.5,0.4h4.1v1.8h-4.1c0,0.2-0.2,0.4-0.5,0.4h-1.5
		C74.4,91.9,74.2,91.7,74.2,91.4z"/>
	<path class="st6" d="M82.3,88.9v2.3c0,0.2-0.2,0.4-0.4,0.4h-1.1c-0.2,0-0.4-0.2-0.4-0.4v-2.3c0-0.2,0.2-0.4,0.4-0.4H82
		C82.2,88.5,82.3,88.7,82.3,88.9z"/>
</g>
<g>
	<path class="st1" d="M100.2,95.7V94c0-0.3-0.2-0.5-0.5-0.5h-1.5c-0.2,0-0.4,0.2-0.5,0.4h-4.1v1.8h4.1c0,0.2,0.2,0.4,0.5,0.4h1.5
		C100,96.2,100.2,96,100.2,95.7z"/>
	<path class="st6" d="M93.9,93.2v2.3c0,0.2-0.2,0.4-0.4,0.4h-1.1c-0.2,0-0.4-0.2-0.4-0.4v-2.3c0-0.2,0.2-0.4,0.4-0.4h1.1
		C93.8,92.8,93.9,93,93.9,93.2z"/>
	<path class="st1" d="M74.2,95.7V94c0-0.3,0.2-0.5,0.5-0.5h1.5c0.2,0,0.4,0.2,0.5,0.4h4.1v1.8h-4.1c0,0.2-0.2,0.4-0.5,0.4h-1.5
		C74.4,96.2,74.2,96,74.2,95.7z"/>
	<path class="st6" d="M82.3,93.2v2.3c0,0.2-0.2,0.4-0.4,0.4h-1.1c-0.2,0-0.4-0.2-0.4-0.4v-2.3c0-0.2,0.2-0.4,0.4-0.4H82
		C82.2,92.8,82.3,93,82.3,93.2z"/>
</g>
<g>
	<path class="st1" d="M100.2,100.2v-1.7c0-0.3-0.2-0.5-0.5-0.5h-1.5c-0.2,0-0.4,0.2-0.5,0.4h-4.1v1.8h4.1c0,0.2,0.2,0.4,0.5,0.4h1.5
		C100,100.6,100.2,100.4,100.2,100.2z"/>
	<path class="st6" d="M93.9,97.6v2.3c0,0.2-0.2,0.4-0.4,0.4h-1.1c-0.2,0-0.4-0.2-0.4-0.4v-2.3c0-0.2,0.2-0.4,0.4-0.4h1.1
		C93.8,97.3,93.9,97.4,93.9,97.6z"/>
	<path class="st1" d="M74.2,100.2v-1.7c0-0.3,0.2-0.5,0.5-0.5h1.5c0.2,0,0.4,0.2,0.5,0.4h4.1v1.8h-4.1c0,0.2-0.2,0.4-0.5,0.4h-1.5
		C74.4,100.6,74.2,100.4,74.2,100.2z"/>
	<path class="st6" d="M82.3,97.6v2.3c0,0.2-0.2,0.4-0.4,0.4h-1.1c-0.2,0-0.4-0.2-0.4-0.4v-2.3c0-0.2,0.2-0.4,0.4-0.4H82
		C82.2,97.3,82.3,97.4,82.3,97.6z"/>
</g>
<g>
	<path class="st1" d="M100.2,104.5v-1.7c0-0.3-0.2-0.5-0.5-0.5h-1.5c-0.2,0-0.4,0.2-0.5,0.4h-4.1v1.8h4.1c0,0.2,0.2,0.4,0.5,0.4h1.5
		C100,105,100.2,104.8,100.2,104.5z"/>
	<path class="st6" d="M93.9,102v2.3c0,0.2-0.2,0.4-0.4,0.4h-1.1c-0.2,0-0.4-0.2-0.4-0.4V102c0-0.2,0.2-0.4,0.4-0.4h1.1
		C93.8,101.6,93.9,101.8,93.9,102z"/>
	<path class="st1" d="M74.2,104.5v-1.7c0-0.3,0.2-0.5,0.5-0.5h1.5c0.2,0,0.4,0.2,0.5,0.4h4.1v1.8h-4.1c0,0.2-0.2,0.4-0.5,0.4h-1.5
		C74.4,105,74.2,104.8,74.2,104.5z"/>
	<path class="st6" d="M82.3,102v2.3c0,0.2-0.2,0.4-0.4,0.4h-1.1c-0.2,0-0.4-0.2-0.4-0.4V102c0-0.2,0.2-0.4,0.4-0.4H82
		C82.2,101.6,82.3,101.8,82.3,102z"/>
</g>
<ellipse class="st6" cx="93" cy="46.7" rx="0.9" ry="1.6"/>
<ellipse class="st6" cx="81.5" cy="46.7" rx="0.9" ry="1.6"/>
<ellipse class="st6" cx="93" cy="111.7" rx="0.9" ry="1.6"/>
<ellipse class="st6" cx="81.5" cy="111.7" rx="0.9" ry="1.6"/>
<g>
	<rect x="185.8" y="0" class="st7" width="14.4" height="159.1"/>
	<rect x="167.8" y="0" class="st7" width="14.4" height="159.1"/>
	<path class="st8" d="M160.9,0h5.6c0.8,0,1.4,0.6,1.4,1.4v7c0,0.8-0.6,1.4-1.4,1.4h-5.6c-0.8,0-1.4-0.6-1.4-1.4v-7
		C159.5,0.6,160.1,0,160.9,0z"/>
	<path class="st8" d="M170.7,0h10.1c0.7,0,1.2,0.5,1.2,1.2v7.4c0,0.7-0.5,1.2-1.2,1.2h-10.1c-0.7,0-1.2-0.5-1.2-1.2V1.2
		C169.5,0.5,170,0,170.7,0z"/>
	<path class="st9" d="M170.7,13.4h10.1c0.7,0,1.2,0.5,1.2,1.2V22c0,0.7-0.5,1.2-1.2,1.2h-10.1c-0.7,0-1.2-0.5-1.2-1.2v-7.4
		C169.5,14,170,13.4,170.7,13.4z"/>
	<path class="st9" d="M170.7,27.2h10.1c0.7,0,1.2,0.5,1.2,1.2v7.4c0,0.7-0.5,1.2-1.2,1.2h-10.1c-0.7,0-1.2-0.5-1.2-1.2v-7.4
		C169.5,27.8,170,27.2,170.7,27.2z"/>
	<path class="st10" d="M170.7,41.1h10.1c0.7,0,1.2,0.5,1.2,1.2v7.4c0,0.7-0.5,1.2-1.2,1.2h-10.1c-0.7,0-1.2-0.5-1.2-1.2v-7.4
		C169.5,41.6,170,41.1,170.7,41.1z"/>
	<path class="st9" d="M170.7,54.3h10.1c0.7,0,1.2,0.5,1.2,1.2v7.4c0,0.7-0.5,1.2-1.2,1.2h-10.1c-0.7,0-1.2-0.5-1.2-1.2v-7.4
		C169.5,54.8,170,54.3,170.7,54.3z"/>
	<path class="st9" d="M170.7,67.5h10.1c0.7,0,1.2,0.5,1.2,1.2v7.4c0,0.7-0.5,1.2-1.2,1.2h-10.1c-0.7,0-1.2-0.5-1.2-1.2v-7.4
		C169.5,68,170,67.5,170.7,67.5z"/>
	<path class="st9" d="M170.7,81.2h10.1c0.7,0,1.2,0.5,1.2,1.2v7.4c0,0.7-0.5,1.2-1.2,1.2h-10.1c-0.7,0-1.2-0.5-1.2-1.2v-7.4
		C169.5,81.7,170,81.2,170.7,81.2z"/>
	<path class="st11" d="M170.7,94.6h10.1c0.7,0,1.2,0.5,1.2,1.2v7.4c0,0.7-0.5,1.2-1.2,1.2h-10.1c-0.7,0-1.2-0.5-1.2-1.2v-7.4
		C169.5,95.1,170,94.6,170.7,94.6z"/>
	<path class="st10" d="M170.7,108.1h10.1c0.7,0,1.2,0.5,1.2,1.2v7.4c0,0.7-0.5,1.2-1.2,1.2h-10.1c-0.7,0-1.2-0.5-1.2-1.2v-7.4
		C169.5,108.7,170,108.1,170.7,108.1z"/>
	<path class="st9" d="M170.7,121.8h10.1c0.7,0,1.2,0.5,1.2,1.2v7.4c0,0.7-0.5,1.2-1.2,1.2h-10.1c-0.7,0-1.2-0.5-1.2-1.2V123
		C169.5,122.4,170,121.8,170.7,121.8z"/>
	<path class="st9" d="M170.7,136h10.1c0.7,0,1.2,0.5,1.2,1.2v7.4c0,0.7-0.5,1.2-1.2,1.2h-10.1c-0.7,0-1.2-0.5-1.2-1.2v-7.4
		C169.5,136.5,170,136,170.7,136z"/>
	<path class="st9" d="M170.7,149.3h10.1c0.7,0,1.2,0.5,1.2,1.2v7.4c0,0.7-0.5,1.2-1.2,1.2h-10.1c-0.7,0-1.2-0.5-1.2-1.2v-7.4
		C169.5,149.8,170,149.3,170.7,149.3z"/>
	<path class="st9" d="M187,0h10.1c0.7,0,1.2,0.5,1.2,1.2v7.4c0,0.7-0.5,1.2-1.2,1.2H187c-0.7,0-1.2-0.5-1.2-1.2V1.2
		C185.8,0.5,186.3,0,187,0z"/>
	<path class="st9" d="M187,13.4h10.1c0.7,0,1.2,0.5,1.2,1.2V22c0,0.7-0.5,1.2-1.2,1.2H187c-0.7,0-1.2-0.5-1.2-1.2v-7.4
		C185.8,14,186.3,13.4,187,13.4z"/>
	<path class="st9" d="M187,27.2h10.1c0.7,0,1.2,0.5,1.2,1.2v7.4c0,0.7-0.5,1.2-1.2,1.2H187c-0.7,0-1.2-0.5-1.2-1.2v-7.4
		C185.8,27.8,186.3,27.2,187,27.2z"/>
	<path class="st10" d="M187,41.1h10.1c0.7,0,1.2,0.5,1.2,1.2v7.4c0,0.7-0.5,1.2-1.2,1.2H187c-0.7,0-1.2-0.5-1.2-1.2v-7.4
		C185.8,41.6,186.3,41.1,187,41.1z"/>
	<path class="st11" d="M187,54.3h10.1c0.7,0,1.2,0.5,1.2,1.2v7.4c0,0.7-0.5,1.2-1.2,1.2H187c-0.7,0-1.2-0.5-1.2-1.2v-7.4
		C185.8,54.8,186.3,54.3,187,54.3z"/>
	<path class="st9" d="M187,67.5h10.1c0.7,0,1.2,0.5,1.2,1.2v7.4c0,0.7-0.5,1.2-1.2,1.2H187c-0.7,0-1.2-0.5-1.2-1.2v-7.4
		C185.8,68,186.3,67.5,187,67.5z"/>
	<path class="st9" d="M187,81.2h10.1c0.7,0,1.2,0.5,1.2,1.2v7.4c0,0.7-0.5,1.2-1.2,1.2H187c-0.7,0-1.2-0.5-1.2-1.2v-7.4
		C185.8,81.7,186.3,81.2,187,81.2z"/>
	<path class="st9" d="M187,94.6h10.1c0.7,0,1.2,0.5,1.2,1.2v7.4c0,0.7-0.5,1.2-1.2,1.2H187c-0.7,0-1.2-0.5-1.2-1.2v-7.4
		C185.8,95.1,186.3,94.6,187,94.6z"/>
	<path class="st10" d="M187,108.1h10.1c0.7,0,1.2,0.5,1.2,1.2v7.4c0,0.7-0.5,1.2-1.2,1.2H187c-0.7,0-1.2-0.5-1.2-1.2v-7.4
		C185.8,108.7,186.3,108.1,187,108.1z"/>
	<path class="st9" d="M187,121.8h10.1c0.7,0,1.2,0.5,1.2,1.2v7.4c0,0.7-0.5,1.2-1.2,1.2H187c-0.7,0-1.2-0.5-1.2-1.2V123
		C185.8,122.4,186.3,121.8,187,121.8z"/>
	<path class="st9" d="M187,136h10.1c0.7,0,1.2,0.5,1.2,1.2v7.4c0,0.7-0.5,1.2-1.2,1.2H187c-0.7,0-1.2-0.5-1.2-1.2v-7.4
		C185.8,136.5,186.3,136,187,136z"/>
	<path class="st8" d="M187,149.3h10.1c0.7,0,1.2,0.5,1.2,1.2v7.4c0,0.7-0.5,1.2-1.2,1.2H187c-0.7,0-1.2-0.5-1.2-1.2v-7.4
		C185.8,149.8,186.3,149.3,187,149.3z"/>
	<path class="st12" d="M173.6,4.9c0-1.2,0.6-2.1,1.9-2.1c1,0,1.8,0.6,1.8,1.6c0,1.6-1.7,1.7-2.4,2.8h2.5v0.9h-3.8
		c0-1.2,0.7-1.7,1.7-2.3c0.5-0.3,1.1-0.6,1.1-1.3c0-0.4-0.3-0.8-0.7-0.8c0,0-0.1,0-0.1,0c-0.6,0-0.8,0.7-0.8,1.2L173.6,4.9
		L173.6,4.9z"/>
	<path class="st12" d="M193.2,8.1H192V4.3h-1.5V3.4c0.8,0,1.6-0.3,1.7-1.2h0.9L193.2,8.1L193.2,8.1z"/>
	<path class="st12" d="M191.8,18c0.5,0,1.3-0.1,1.3-0.7c0-0.4-0.4-0.8-0.8-0.8c0,0,0,0-0.1,0c-0.6,0-0.9,0.4-0.9,1.1h-1.1
		c0-1.2,0.8-2,2-2c0.9,0,2,0.6,2,1.6c0,0.5-0.3,1-0.8,1.2v0c0.6,0.1,1.1,0.7,1,1.3c0,1.2-1,1.9-2.2,1.9c-1.3,0-2.2-0.8-2.2-2.1h1.1
		c0,0.6,0.3,1.2,1,1.2c0.5,0,0.9-0.4,1-0.9c0,0,0,0,0-0.1c0-0.9-0.8-0.9-1.4-0.9L191.8,18L191.8,18z"/>
	<path class="st12" d="M194.1,30.5h-2.4l-0.2,1.3l0,0c0.3-0.3,0.7-0.5,1.2-0.5c1.2,0,1.8,0.9,1.8,2c0,1.2-1,2.1-2.1,2.1l0,0
		c-1.2,0-2.2-0.6-2.2-1.9h1.2c0,0.5,0.5,0.9,1,0.9c0.6,0,1-0.5,1-1.1s-0.4-1.1-1-1.1c-0.4,0-0.7,0.2-0.9,0.5h-1.1l0.6-3.2h3.3
		L194.1,30.5L194.1,30.5z"/>
	<path class="st12" d="M191.3,60.5c0.1,0.4,0.4,0.7,0.8,0.7c0.9,0,1.1-1.2,1.1-1.8l0,0c-0.3,0.4-0.8,0.7-1.3,0.7
		c-0.5,0-1-0.2-1.4-0.6c-0.3-0.4-0.5-0.8-0.5-1.3c0-1.2,0.8-2.2,2.1-2.2c1.8,0,2.3,1.6,2.3,3c0,1.4-0.6,3.1-2.3,3.1
		c-1,0-1.8-0.6-1.9-1.6L191.3,60.5L191.3,60.5z M193.1,58.1c0-0.5-0.3-1.1-1-1.1s-0.9,0.5-0.9,1.1s0.3,1.1,0.9,1.1
		S193.1,58.7,193.1,58.1z"/>
	<g>
		<path class="st12" d="M190.9,75.4h-1.2v-3.8h-1.5v-0.9c0.8,0,1.6-0.3,1.7-1.2h1L190.9,75.4L190.9,75.4z"/>
		<path class="st12" d="M195.5,75.4h-1.2v-3.8h-1.5v-0.9c0.8,0,1.6-0.3,1.7-1.2h0.9L195.5,75.4L195.5,75.4z"/>
	</g>
	<g>
		<path class="st12" d="M190.9,116.3h-1.2v-3.8h-1.5v-0.9c0.8,0,1.6-0.3,1.7-1.2h1L190.9,116.3L190.9,116.3z"/>
		<path class="st12" d="M196.6,111.4c-1.2,1.1-1.9,3.3-1.9,4.9h-1.3c0.2-1.8,0.8-3.4,2-4.8h-2.8v-1.1h4
			C196.6,110.4,196.6,111.4,196.6,111.4z"/>
	</g>
	<g>
		<path class="st12" d="M190.9,130h-1.2v-3.8h-1.5v-0.9c0.8,0,1.6-0.3,1.7-1.2h1L190.9,130L190.9,130z"/>
		<path class="st12" d="M193.7,128.5c0.1,0.4,0.4,0.7,0.8,0.7c0.9,0,1.1-1.2,1.1-1.8l0,0c-0.3,0.4-0.8,0.7-1.3,0.7
			c-0.5,0-1-0.2-1.4-0.6c-0.3-0.4-0.5-0.8-0.5-1.3c0-1.2,0.8-2.2,2.1-2.2c1.8,0,2.3,1.6,2.3,3c0,1.4-0.6,3.1-2.3,3.1
			c-1,0-1.8-0.6-1.9-1.6L193.7,128.5L193.7,128.5z M195.5,126.1c0-0.5-0.3-1.1-0.9-1.1s-0.9,0.5-0.9,1.1s0.3,1.1,0.9,1.1
			S195.5,126.6,195.5,126.1L195.5,126.1L195.5,126.1z"/>
	</g>
	<g>
		<path class="st12" d="M187.9,140.4c0-1.3,0.7-2.4,2.1-2.4c1.1,0,2,0.7,2,1.8c0,1.8-1.9,1.9-2.8,3.1h2.8v1h-4.3
			c0-1.4,0.8-1.9,1.9-2.6c0.5-0.4,1.2-0.7,1.2-1.4c0-0.5-0.3-0.9-0.8-0.9c0,0-0.1,0-0.1,0c-0.7,0-0.9,0.7-0.9,1.4L187.9,140.4
			L187.9,140.4z"/>
		<path class="st12" d="M195.5,144h-1.2v-3.8h-1.5v-0.9c0.8,0,1.6-0.3,1.7-1.2h0.9L195.5,144L195.5,144z"/>
	</g>
	<g>
		<path class="st12" d="M187.9,153.9c0-1.3,0.7-2.4,2.1-2.4c1.1,0,2,0.7,2,1.8c0,1.8-1.9,1.9-2.8,3.1h2.8v1h-4.3
			c0-1.4,0.8-1.9,1.9-2.6c0.5-0.4,1.2-0.7,1.2-1.4c0-0.5-0.3-0.9-0.8-0.9c0,0-0.1,0-0.1,0c-0.7,0-0.9,0.7-0.9,1.4L187.9,153.9
			L187.9,153.9z"/>
		<path class="st12" d="M194.2,154c0.5,0,1.3-0.1,1.3-0.7c0-0.4-0.3-0.8-0.8-0.8c0,0,0,0-0.1,0c-0.6,0-0.9,0.4-0.9,1.1h-1.1
			c0-1.2,0.8-2,2-2c0.9,0,2,0.6,2,1.6c0,0.5-0.3,1-0.8,1.2v0c0.6,0.1,1.1,0.7,1,1.3c0,1.2-1,1.9-2.2,1.9c-1.3,0-2.2-0.8-2.2-2.1h1.1
			c0,0.6,0.3,1.2,1,1.2c0.5,0,0.9-0.4,1-0.9c0,0,0,0,0-0.1c0-0.9-0.8-0.9-1.4-0.9L194.2,154L194.2,154z"/>
	</g>
	<path class="st12" d="M175.7,20.3h-2.2v-1l2.3-3.1h1v3.2h0.7v0.9h-0.7v1.2h-1V20.3z M175.7,17.6L175.7,17.6l-1.4,1.8h1.4
		L175.7,17.6z"/>
	<path class="st8" d="M201.6,149.3h5.6c0.8,0,1.4,0.6,1.4,1.4v7c0,0.8-0.6,1.4-1.4,1.4h-5.6c-0.8,0-1.4-0.6-1.4-1.4v-7
		C200.2,149.9,200.8,149.3,201.6,149.3z"/>
	<g>
		<path class="st12" d="M174.2,75.4h-1.1V72h-1.3v-0.8c0.7,0,1.4-0.2,1.5-1h0.8V75.4z"/>
		<path class="st12" d="M175.7,72.2c0-1.2,0.6-2.1,1.9-2.1c1,0,1.8,0.6,1.8,1.6c0,1.6-1.7,1.7-2.4,2.8h2.5v0.9h-3.9
			c0-1.2,0.8-1.7,1.7-2.3c0.5-0.3,1.1-0.6,1.1-1.3c0-0.4-0.3-0.8-0.7-0.8c0,0-0.1,0-0.1,0c-0.6,0-0.8,0.7-0.8,1.2L175.7,72.2
			L175.7,72.2z"/>
	</g>
	<g>
		<path class="st12" d="M174.2,102.7h-1.1v-3.4h-1.3v-0.8c0.7,0,1.4-0.2,1.5-1h0.8V102.7z"/>
		<path class="st12" d="M178.3,98.8c0-0.4-0.3-0.6-0.7-0.6c-0.8,0-1,1-1,1.6l0,0c0.3-0.4,0.7-0.6,1.2-0.6c0.5,0,0.9,0.2,1.2,0.5
			c0.3,0.3,0.4,0.7,0.4,1.2c0,1.1-0.7,1.9-1.8,1.9c-1.6,0-2-1.4-2-2.7c0-1.3,0.6-2.7,2.1-2.7c0.9,0,1.6,0.5,1.7,1.5L178.3,98.8
			L178.3,98.8z M176.7,101c0,0.5,0.3,1,0.8,1s0.8-0.5,0.8-1s-0.3-1-0.8-1S176.7,100.5,176.7,101L176.7,101z"/>
	</g>
	<g>
		<path class="st12" d="M174.2,116.3h-1.1v-3.4h-1.3v-0.8c0.7,0,1.4-0.2,1.5-1h0.8V116.3z"/>
		<path class="st12" d="M177.5,110.9c1.3,0,1.8,0.9,1.8,1.4c0,0.5-0.3,0.9-0.8,1.1v0c0.6,0.1,1,0.7,1,1.3c0,1.1-1,1.6-2,1.6
			s-2-0.5-2-1.6c0-0.6,0.4-1.2,1-1.3v0c-0.5-0.1-0.8-0.6-0.8-1.1C175.8,111.4,176.7,110.9,177.5,110.9L177.5,110.9z M177.5,115.6
			c0.5,0,0.9-0.3,0.9-0.8c0,0,0,0,0-0.1c0-0.5-0.4-0.8-0.9-0.8c0,0,0,0,0,0c-0.5,0-0.9,0.3-0.9,0.8
			C176.6,115.2,177,115.6,177.5,115.6C177.5,115.6,177.5,115.6,177.5,115.6L177.5,115.6L177.5,115.6z M177.5,113.2
			c0.4,0,0.8-0.2,0.8-0.7c0-0.3-0.1-0.7-0.8-0.7c-0.4,0-0.8,0.3-0.8,0.7c0,0,0,0,0,0.1C176.7,112.9,177.1,113.2,177.5,113.2
			L177.5,113.2L177.5,113.2z"/>
	</g>
	<g>
		<path class="st12" d="M171.5,140.8c0-1.2,0.6-2.1,1.9-2.1c1,0,1.8,0.6,1.8,1.6c0,1.6-1.7,1.7-2.4,2.8h2.5v0.9h-3.8
			c0-1.2,0.7-1.7,1.7-2.3c0.5-0.3,1.1-0.6,1.1-1.3c0-0.4-0.3-0.8-0.7-0.8c0,0-0.1,0-0.1,0c-0.6,0-0.8,0.7-0.8,1.2L171.5,140.8z"/>
		<path class="st12" d="M175.7,140.8c0-1.2,0.6-2.1,1.9-2.1c1,0,1.8,0.6,1.8,1.6c0,1.6-1.7,1.7-2.4,2.8h2.5v0.9h-3.9
			c0-1.2,0.8-1.7,1.7-2.3c0.5-0.3,1.1-0.6,1.1-1.3c0-0.4-0.3-0.8-0.7-0.8c0,0-0.1,0-0.1,0c-0.6,0-0.8,0.7-0.8,1.2L175.7,140.8
			L175.7,140.8z"/>
	</g>
	<path class="st12" d="M176.3,31.5c0-0.4-0.3-0.6-0.7-0.7c-0.8,0-1,1-1,1.6l0,0c0.3-0.4,0.7-0.6,1.2-0.6c0.5,0,0.9,0.2,1.2,0.5
		c0.3,0.3,0.4,0.7,0.4,1.2c0,1.1-0.7,1.9-1.8,1.9c-1.6,0-2-1.4-2-2.7c0-1.3,0.6-2.7,2.1-2.7c0.9,0,1.6,0.5,1.7,1.5
		C177.3,31.5,176.3,31.5,176.3,31.5z M174.6,33.6c0,0.5,0.3,1,0.8,1s0.8-0.5,0.8-1s-0.3-1-0.8-1S174.6,33.1,174.6,33.6
		C174.6,33.6,174.6,33.6,174.6,33.6z"/>
	<polygon class="st8" points="160.7,0 149.3,0 143.6,4.9 149.3,9.8 160.7,9.8 166.4,4.9 	"/>
	<g>
		<path class="st12" d="M152.4,6.7c-0.3,0.5-0.9,0.7-1.5,0.7c-1.6,0-2.6-1.2-2.6-2.8c0-1.6,1-2.8,2.6-2.8c1.1,0,2.1,0.7,2.3,1.9
			h-1.1c-0.1-0.5-0.6-0.9-1.1-0.9c-1.1,0-1.5,0.9-1.5,1.8c0,0.9,0.4,1.8,1.5,1.8c0.8,0,1.2-0.4,1.3-1.2h-1.2V4.4h2.2v2.9h-0.7
			L152.4,6.7L152.4,6.7z"/>
		<path class="st12" d="M154.3,2h1.2l2.2,3.6h0V2h1.1v5.3h-1.2l-2.2-3.6h0v3.6h-1.1C154.3,7.3,154.3,2,154.3,2z"/>
		<path class="st12" d="M159.8,2h2.3c1.4,0,2.4,0.9,2.4,2.6c0,1.6-0.8,2.7-2.4,2.7h-2.3V2z M161,6.3h1c0.7,0,1.3-0.4,1.3-1.6
			c0-1.1-0.4-1.8-1.5-1.8H161L161,6.3z"/>
	</g>
	<polygon class="st8" points="207.4,149.3 218.8,149.3 224.5,154.2 218.8,159.1 207.4,159.1 201.7,154.2 	"/>
	<g>
		<path class="st12" d="M207.5,156c-0.3,0.5-0.9,0.7-1.5,0.7c-1.6,0-2.6-1.2-2.6-2.8c0-1.6,1-2.8,2.6-2.8c1.1,0,2.1,0.7,2.3,1.9
			h-1.1c-0.1-0.5-0.6-0.9-1.1-0.9c-1.1,0-1.5,0.9-1.5,1.8c0,0.9,0.4,1.8,1.5,1.8c0.8,0,1.2-0.4,1.3-1.2h-1.2v-0.9h2.2v2.9h-0.7
			L207.5,156L207.5,156z"/>
		<path class="st12" d="M209.3,151.3h1.2l2.2,3.6h0v-3.6h1.1v5.3h-1.2l-2.2-3.6h0v3.6h-1.1L209.3,151.3L209.3,151.3z"/>
		<path class="st12" d="M214.9,151.3h2.3c1.4,0,2.4,0.9,2.4,2.6c0,1.6-0.8,2.7-2.4,2.7h-2.3V151.3z M216,155.6h1
			c0.7,0,1.3-0.4,1.3-1.6c0-1.1-0.4-1.8-1.5-1.8H216L216,155.6L216,155.6z"/>
	</g>
	<path class="st12" d="M175.4,43.5c1.3,0,1.8,0.9,1.8,1.4c0,0.5-0.3,1-0.8,1.1v0c0.6,0.1,1,0.7,1,1.3c0,1.1-1,1.6-2,1.6
		s-2-0.5-2-1.6c0-0.6,0.4-1.2,1-1.3v0c-0.5-0.1-0.8-0.6-0.8-1.1C173.7,44,174.6,43.5,175.4,43.5L175.4,43.5z M175.4,48.1
		c0.5,0,0.9-0.3,0.9-0.8c0,0,0,0,0-0.1c0-0.5-0.4-0.8-0.9-0.8l0,0c-0.5,0-0.9,0.3-0.9,0.8C174.5,47.7,174.9,48.1,175.4,48.1
		C175.4,48.1,175.4,48.1,175.4,48.1L175.4,48.1L175.4,48.1z M175.4,45.7c0.4,0,0.8-0.2,0.8-0.7c0-0.3-0.1-0.7-0.8-0.7
		c-0.4,0-0.8,0.3-0.8,0.7c0,0,0,0,0,0.1C174.6,45.5,175,45.7,175.4,45.7L175.4,45.7z"/>
	<path class="st9" d="M201.6,0h5.6c0.8,0,1.4,0.6,1.4,1.4v7c0,0.8-0.6,1.4-1.4,1.4h-5.6c-0.8,0-1.4-0.6-1.4-1.4v-7
		C200.2,0.6,200.8,0,201.6,0z"/>
	<g>
		<path class="st12" d="M174.2,62h-1.1v-3.4h-1.3v-0.8c0.7,0,1.4-0.2,1.5-1h0.8V62z"/>
		<path class="st12" d="M177.5,56.7c1,0,1.9,0.7,1.9,2.7c0,2.1-0.9,2.7-1.9,2.7s-1.9-0.7-1.9-2.7C175.6,57.3,176.5,56.7,177.5,56.7z
			 M177.5,61.2c0.9,0,0.9-1.3,0.9-1.9c0-0.5,0-1.8-0.9-1.8s-0.9,1.3-0.9,1.8C176.7,60,176.7,61.2,177.5,61.2z"/>
	</g>
	<g>
		<path class="st12" d="M174.2,89.2h-1.1v-3.4h-1.3V85c0.7,0,1.4-0.2,1.5-1h0.8V89.2z"/>
		<path class="st12" d="M177.8,88h-2.2v-1l2.3-3.1h1v3.2h0.7V88h-0.7v1.2h-1V88z M177.8,85.3L177.8,85.3l-1.4,1.8h1.4L177.8,85.3z"
			/>
	</g>
	<g>
		<path class="st12" d="M171.5,126.8c0-1.2,0.6-2.1,1.9-2.1c1,0,1.8,0.6,1.8,1.6c0,1.6-1.7,1.7-2.4,2.8h2.5v0.9h-3.8
			c0-1.2,0.7-1.7,1.7-2.3c0.5-0.3,1.1-0.6,1.1-1.3c0-0.4-0.3-0.8-0.7-0.8c0,0-0.1,0-0.1,0c-0.6,0-0.8,0.7-0.8,1.2
			C172.6,126.8,171.5,126.8,171.5,126.8z"/>
		<path class="st12" d="M177.5,124.6c1,0,1.9,0.7,1.9,2.7c0,2.1-0.9,2.8-1.9,2.8s-1.9-0.7-1.9-2.8
			C175.6,125.3,176.5,124.6,177.5,124.6z M177.5,129.2c0.9,0,0.9-1.3,0.9-1.9c0-0.5,0-1.8-0.9-1.8s-0.9,1.3-0.9,1.8
			C176.7,127.9,176.7,129.2,177.5,129.2z"/>
	</g>
	<g>
		<path class="st12" d="M171.5,154.2c0-1.2,0.6-2.1,1.9-2.1c1,0,1.8,0.6,1.8,1.6c0,1.6-1.7,1.7-2.4,2.8h2.5v0.9h-3.8
			c0-1.2,0.7-1.7,1.7-2.3c0.5-0.3,1.1-0.6,1.1-1.3c0-0.4-0.3-0.8-0.7-0.8c0,0-0.1,0-0.1,0c-0.6,0-0.8,0.7-0.8,1.2L171.5,154.2
			L171.5,154.2z"/>
		<path class="st12" d="M177.8,156.2h-2.2v-1l2.3-3.1h1v3.2h0.7v0.9h-0.7v1.2h-1V156.2L177.8,156.2z M177.8,153.5L177.8,153.5
			l-1.4,1.8h1.4L177.8,153.5z"/>
	</g>
	<path class="st12" d="M194.2,44c-1.2,1.1-1.9,3.3-1.9,4.9h-1.3c0.2-1.8,0.8-3.4,2-4.8h-2.8V43h4V44z"/>
	<polygon class="st9" points="214.9,0 205,0 200.1,4.9 205,9.8 214.9,9.8 219.8,4.9 	"/>
	<g>
		<path class="st12" d="M203.3,2h1.2l2.2,3.6h0V2h1.1v5.3h-1.2l-2.2-3.6h0v3.6h-1.1V2z"/>
		<path class="st12" d="M212.4,3.8c-0.1-0.6-0.6-0.9-1.2-0.9c-1.1,0-1.5,0.9-1.5,1.8c0,0.9,0.4,1.8,1.5,1.8c0.7,0,1.1-0.5,1.2-1.2
			h1.2c-0.1,1.3-1,2.2-2.4,2.2c-1.6,0-2.6-1.2-2.6-2.8c0-1.6,1-2.8,2.6-2.8c1.2,0,2.2,0.7,2.3,1.9L212.4,3.8z"/>
	</g>
	<path class="st9" d="M201.6,13.4h5.6c0.8,0,1.4,0.6,1.4,1.4v7c0,0.8-0.6,1.4-1.4,1.4h-5.6c-0.8,0-1.4-0.6-1.4-1.4v-7
		C200.2,14,200.8,13.4,201.6,13.4z"/>
	<polygon class="st9" points="214.9,13.4 205,13.4 200.1,18.3 205,23.2 214.9,23.2 219.8,18.3 	"/>
	<g>
		<path class="st12" d="M203.3,15.4h1.2l2.2,3.6h0v-3.6h1.1v5.3h-1.2l-2.2-3.6h0v3.6h-1.1V15.4z"/>
		<path class="st12" d="M212.4,17.2c-0.1-0.6-0.6-0.9-1.2-0.9c-1.1,0-1.5,0.9-1.5,1.8c0,0.9,0.4,1.8,1.5,1.8c0.7,0,1.1-0.5,1.2-1.2
			h1.2c-0.1,1.3-1,2.2-2.4,2.2c-1.6,0-2.6-1.2-2.6-2.8c0-1.6,1-2.8,2.6-2.8c1.2,0,2.2,0.7,2.3,1.9C213.6,17.2,212.4,17.2,212.4,17.2
			z"/>
	</g>
	<path class="st9" d="M201.6,27.2h5.6c0.8,0,1.4,0.6,1.4,1.4v7c0,0.8-0.6,1.4-1.4,1.4h-5.6c-0.8,0-1.4-0.6-1.4-1.4v-7
		C200.2,27.9,200.8,27.2,201.6,27.2z"/>
	<polygon class="st9" points="214.9,27.2 205,27.2 200.1,32.1 205,37 214.9,37 219.8,32.1 	"/>
	<g>
		<path class="st12" d="M203.3,29.2h1.2l2.2,3.6h0v-3.6h1.1v5.3h-1.2l-2.2-3.6h0v3.6h-1.1C203.3,34.5,203.3,29.2,203.3,29.2z"/>
		<path class="st12" d="M212.4,31c-0.1-0.6-0.6-0.9-1.2-0.9c-1.1,0-1.5,0.9-1.5,1.8c0,0.9,0.4,1.8,1.5,1.8c0.7,0,1.1-0.5,1.2-1.2
			h1.2c-0.1,1.3-1,2.2-2.4,2.2c-1.6,0-2.6-1.2-2.6-2.8c0-1.6,1-2.8,2.6-2.8c1.2,0,2.2,0.7,2.3,1.9L212.4,31L212.4,31z"/>
	</g>
	<path class="st9" d="M160.9,27.2h5.6c0.8,0,1.4,0.6,1.4,1.4v7c0,0.8-0.6,1.4-1.4,1.4h-5.6c-0.8,0-1.4-0.6-1.4-1.4v-7
		C159.5,27.9,160.1,27.2,160.9,27.2z"/>
	<polygon class="st9" points="153,27.2 162.9,27.2 167.8,32.1 162.9,37 153,37 148.1,32.1 	"/>
	<g>
		<path class="st12" d="M154.5,29.2h1.2l2.2,3.6h0v-3.6h1.1v5.3h-1.2l-2.2-3.6h0v3.6h-1.1L154.5,29.2L154.5,29.2z"/>
		<path class="st12" d="M163.7,31c-0.1-0.6-0.6-0.9-1.2-0.9c-1.1,0-1.5,0.9-1.5,1.8c0,0.9,0.4,1.8,1.5,1.8c0.7,0,1.1-0.5,1.2-1.2
			h1.1c-0.1,1.3-1,2.2-2.4,2.2c-1.6,0-2.6-1.2-2.6-2.8c0-1.6,1-2.8,2.6-2.8c1.2,0,2.2,0.7,2.3,1.9L163.7,31L163.7,31z"/>
	</g>
	<path class="st9" d="M160.9,54h5.6c0.8,0,1.4,0.6,1.4,1.4v7c0,0.8-0.6,1.4-1.4,1.4h-5.6c-0.8,0-1.4-0.6-1.4-1.4v-7
		C159.5,54.6,160.1,54,160.9,54z"/>
	<polygon class="st9" points="153,54 162.9,54 167.8,58.9 162.9,63.8 153,63.8 148.1,58.9 	"/>
	<g>
		<path class="st12" d="M154.5,56h1.2l2.2,3.6h0V56h1.1v5.3h-1.2l-2.2-3.6h0v3.6h-1.1L154.5,56L154.5,56z"/>
		<path class="st12" d="M163.7,57.8c-0.1-0.6-0.6-0.9-1.2-0.9c-1.1,0-1.5,0.9-1.5,1.8c0,0.9,0.4,1.8,1.5,1.8c0.7,0,1.1-0.5,1.2-1.2
			h1.1c-0.1,1.3-1,2.2-2.4,2.2c-1.6,0-2.6-1.2-2.6-2.8c0-1.6,1-2.8,2.6-2.8c1.2,0,2.2,0.7,2.3,1.9C164.8,57.8,163.7,57.8,163.7,57.8
			z"/>
	</g>
	<path class="st9" d="M160.9,67.8h5.6c0.8,0,1.4,0.6,1.4,1.4v7c0,0.8-0.6,1.4-1.4,1.4h-5.6c-0.8,0-1.4-0.6-1.4-1.4v-7
		C159.5,68.5,160.1,67.8,160.9,67.8z"/>
	<polygon class="st9" points="153,67.8 162.9,67.8 167.8,72.8 162.9,77.7 153,77.7 148.1,72.8 	"/>
	<g>
		<path class="st12" d="M154.5,69.8h1.2l2.2,3.6h0v-3.6h1.1v5.3h-1.2l-2.2-3.6h0v3.6h-1.1L154.5,69.8L154.5,69.8z"/>
		<path class="st12" d="M163.7,71.6c-0.1-0.6-0.6-0.9-1.2-0.9c-1.1,0-1.5,0.9-1.5,1.8c0,0.9,0.4,1.8,1.5,1.8c0.7,0,1.1-0.5,1.2-1.2
			h1.1c-0.1,1.3-1,2.2-2.4,2.2c-1.6,0-2.6-1.2-2.6-2.8c0-1.6,1-2.8,2.6-2.8c1.2,0,2.2,0.7,2.3,1.9L163.7,71.6L163.7,71.6z"/>
	</g>
	<path class="st9" d="M160.9,13.6h5.6c0.8,0,1.4,0.6,1.4,1.4v7c0,0.8-0.6,1.4-1.4,1.4h-5.6c-0.8,0-1.4-0.6-1.4-1.4v-7
		C159.5,14.2,160.1,13.6,160.9,13.6z"/>
	<polygon class="st9" points="153,13.6 162.9,13.6 167.8,18.5 162.9,23.4 153,23.4 148.1,18.5 	"/>
	<g>
		<path class="st12" d="M154.5,15.6h1.2l2.2,3.6h0v-3.6h1.1v5.4h-1.2l-2.2-3.6h0v3.6h-1.1L154.5,15.6L154.5,15.6z"/>
		<path class="st12" d="M163.7,17.4c-0.1-0.6-0.6-1-1.2-0.9c-1.1,0-1.5,0.9-1.5,1.8c0,0.9,0.4,1.8,1.5,1.8c0.7,0,1.1-0.5,1.2-1.2
			h1.1c-0.1,1.3-1,2.2-2.4,2.2c-1.6,0-2.6-1.2-2.6-2.8c0-1.6,1-2.8,2.6-2.8c1.2,0,2.2,0.7,2.3,1.9L163.7,17.4z"/>
	</g>
	<path class="st9" d="M160.9,80.8h5.6c0.8,0,1.4,0.6,1.4,1.4v7c0,0.8-0.6,1.4-1.4,1.4h-5.6c-0.8,0-1.4-0.6-1.4-1.4v-7
		C159.5,81.4,160.1,80.8,160.9,80.8z"/>
	<polygon class="st9" points="153.1,80.8 162.9,80.8 167.8,85.7 162.9,90.6 153.1,90.6 148.1,85.7 	"/>
	<g>
		<path class="st12" d="M154.6,82.8h1.2l2.2,3.6h0v-3.6h1.1v5.3h-1.2l-2.2-3.6h0v3.6h-1.1L154.6,82.8L154.6,82.8z"/>
		<path class="st12" d="M163.7,84.6c-0.1-0.6-0.6-0.9-1.2-0.9c-1.1,0-1.5,0.9-1.5,1.8c0,0.9,0.4,1.8,1.5,1.8c0.7,0,1.1-0.5,1.2-1.2
			h1.1c-0.1,1.3-1,2.2-2.4,2.2c-1.6,0-2.6-1.2-2.6-2.8c0-1.6,1-2.8,2.6-2.8c1.2,0,2.2,0.7,2.3,1.9L163.7,84.6z"/>
	</g>
	<path class="st9" d="M160.9,121.8h5.6c0.8,0,1.4,0.6,1.4,1.4v7c0,0.8-0.6,1.4-1.4,1.4h-5.6c-0.8,0-1.4-0.6-1.4-1.4v-7
		C159.5,122.5,160.1,121.8,160.9,121.8z"/>
	<polygon class="st9" points="153.1,121.8 162.9,121.8 167.8,126.7 162.9,131.6 153.1,131.6 148.1,126.7 	"/>
	<g>
		<path class="st12" d="M154.6,123.8h1.2l2.2,3.6h0v-3.6h1.1v5.3h-1.2l-2.2-3.6h0v3.6h-1.1L154.6,123.8L154.6,123.8z"/>
		<path class="st12" d="M163.7,125.6c-0.1-0.6-0.6-0.9-1.2-0.9c-1.1,0-1.5,0.9-1.5,1.8c0,0.9,0.4,1.8,1.5,1.8c0.7,0,1.1-0.5,1.2-1.2
			h1.1c-0.1,1.3-1,2.2-2.4,2.2c-1.6,0-2.6-1.2-2.6-2.8c0-1.6,1-2.8,2.6-2.8c1.2,0,2.2,0.7,2.3,1.9
			C164.8,125.6,163.7,125.6,163.7,125.6z"/>
	</g>
	<path class="st9" d="M160.9,135.8h5.6c0.8,0,1.4,0.6,1.4,1.4v7c0,0.8-0.6,1.4-1.4,1.4h-5.6c-0.8,0-1.4-0.6-1.4-1.4v-7
		C159.5,136.4,160.1,135.8,160.9,135.8z"/>
	<polygon class="st9" points="153.1,135.8 162.9,135.8 167.8,140.7 162.9,145.6 153.1,145.6 148.1,140.7 	"/>
	<g>
		<path class="st12" d="M154.6,137.7h1.2l2.2,3.6h0v-3.6h1.1v5.3h-1.2l-2.2-3.6h0v3.6h-1.1L154.6,137.7L154.6,137.7z"/>
		<path class="st12" d="M163.7,139.5c-0.1-0.6-0.6-0.9-1.2-0.9c-1.1,0-1.5,0.9-1.5,1.8c0,0.9,0.4,1.8,1.5,1.8c0.7,0,1.1-0.5,1.2-1.2
			h1.1c-0.1,1.3-1,2.2-2.4,2.2c-1.6,0-2.6-1.2-2.6-2.8c0-1.6,1-2.8,2.6-2.8c1.2,0,2.2,0.7,2.3,1.9L163.7,139.5z"/>
	</g>
	<path class="st9" d="M160.9,149.3h5.6c0.8,0,1.4,0.6,1.4,1.4v7c0,0.8-0.6,1.4-1.4,1.4h-5.6c-0.8,0-1.4-0.6-1.4-1.4v-7
		C159.5,149.9,160.1,149.3,160.9,149.3z"/>
	<polygon class="st9" points="153.1,149.3 162.9,149.3 167.8,154.2 162.9,159.1 153.1,159.1 148.1,154.2 	"/>
	<g>
		<path class="st12" d="M154.6,151.3h1.2l2.2,3.6h0v-3.6h1.1v5.3h-1.2l-2.2-3.6h0v3.6h-1.1L154.6,151.3L154.6,151.3z"/>
		<path class="st12" d="M163.7,153.1c-0.1-0.6-0.6-0.9-1.2-0.9c-1.1,0-1.5,0.9-1.5,1.8c0,0.9,0.4,1.8,1.5,1.8c0.7,0,1.1-0.5,1.2-1.2
			h1.1c-0.1,1.3-1,2.2-2.4,2.2c-1.6,0-2.6-1.2-2.6-2.8c0-1.6,1-2.8,2.6-2.8c1.2,0,2.2,0.7,2.3,1.9L163.7,153.1z"/>
	</g>
	<path class="st9" d="M201.6,81h5.6c0.8,0,1.4,0.6,1.4,1.4v7c0,0.8-0.6,1.4-1.4,1.4h-5.6c-0.8,0-1.4-0.6-1.4-1.4v-7
		C200.2,81.6,200.8,81,201.6,81z"/>
	<polygon class="st9" points="214.9,81 205,81 200.1,85.9 205,90.8 214.9,90.8 219.8,85.9 	"/>
	<g>
		<path class="st12" d="M203.3,83h1.2l2.2,3.6h0V83h1.1v5.3h-1.2l-2.2-3.6h0v3.6h-1.1V83z"/>
		<path class="st12" d="M212.4,84.8c-0.1-0.6-0.6-0.9-1.2-0.9c-1.1,0-1.5,0.9-1.5,1.8c0,0.9,0.4,1.8,1.5,1.8c0.7,0,1.1-0.5,1.2-1.2
			h1.2c-0.1,1.3-1,2.2-2.4,2.2c-1.6,0-2.6-1.2-2.6-2.8c0-1.6,1-2.8,2.6-2.8c1.2,0,2.2,0.7,2.3,1.9L212.4,84.8L212.4,84.8z"/>
	</g>
	<polygon class="st9" points="214.9,94.8 205,94.8 200.1,99.7 205,104.6 214.9,104.6 219.8,99.7 	"/>
	<path class="st9" d="M201.6,94.8h5.6c0.8,0,1.4,0.6,1.4,1.4v7c0,0.8-0.6,1.4-1.4,1.4h-5.6c-0.8,0-1.4-0.6-1.4-1.4v-7
		C200.2,95.5,200.8,94.8,201.6,94.8z"/>
	<g>
		<path class="st12" d="M203.3,96.7h1.2l2.2,3.6h0v-3.6h1.1v5.4h-1.2l-2.2-3.6h0v3.6h-1.1V96.7z"/>
		<path class="st12" d="M212.4,98.5c-0.1-0.6-0.6-0.9-1.2-0.9c-1.1,0-1.5,0.9-1.5,1.8c0,0.9,0.4,1.8,1.5,1.8c0.7,0,1.1-0.5,1.2-1.2
			h1.2c-0.1,1.3-1,2.2-2.4,2.2c-1.6,0-2.6-1.2-2.6-2.8c0-1.6,1-2.8,2.6-2.8c1.2,0,2.2,0.7,2.3,1.9L212.4,98.5z"/>
	</g>
	<polygon class="st9" points="214.9,67.7 205,67.7 200.1,72.6 205,77.5 214.9,77.5 219.8,72.6 	"/>
	<path class="st9" d="M201.6,67.7h5.6c0.8,0,1.4,0.6,1.4,1.4v7c0,0.8-0.6,1.4-1.4,1.4h-5.6c-0.8,0-1.4-0.6-1.4-1.4v-7
		C200.2,68.4,200.8,67.7,201.6,67.7z"/>
	<g>
		<path class="st12" d="M203.3,69.6h1.2l2.2,3.6h0v-3.6h1.1V75h-1.2l-2.2-3.6h0V75h-1.1V69.6z"/>
		<path class="st12" d="M212.4,71.4c-0.1-0.6-0.6-0.9-1.2-0.9c-1.1,0-1.5,0.9-1.5,1.8c0,0.9,0.4,1.8,1.5,1.8c0.7,0,1.1-0.5,1.2-1.2
			h1.2c-0.1,1.3-1,2.2-2.4,2.2c-1.6,0-2.6-1.2-2.6-2.8c0-1.6,1-2.8,2.6-2.8c1.2,0,2.2,0.7,2.3,1.9C213.6,71.5,212.4,71.4,212.4,71.4
			z"/>
	</g>
	<path class="st9" d="M201.6,121.8h5.6c0.8,0,1.4,0.6,1.4,1.4v7c0,0.8-0.6,1.4-1.4,1.4h-5.6c-0.8,0-1.4-0.6-1.4-1.4v-7
		C200.2,122.4,200.8,121.8,201.6,121.8z"/>
	<polygon class="st9" points="214.9,121.9 205,121.9 200.1,126.8 205,131.7 214.9,131.7 219.8,126.8 	"/>
	<g>
		<path class="st12" d="M203.3,123.8h1.2l2.2,3.6h0v-3.6h1.1v5.3h-1.2l-2.2-3.6h0v3.6h-1.1C203.3,129.1,203.3,123.8,203.3,123.8z"/>
		<path class="st12" d="M212.4,125.6c-0.1-0.6-0.6-0.9-1.2-0.9c-1.1,0-1.5,0.9-1.5,1.8c0,0.9,0.4,1.8,1.5,1.8c0.7,0,1.1-0.5,1.2-1.2
			h1.2c-0.1,1.3-1,2.2-2.4,2.2c-1.6,0-2.6-1.2-2.6-2.8c0-1.6,1-2.8,2.6-2.8c1.2,0,2.2,0.7,2.3,1.9L212.4,125.6L212.4,125.6z"/>
	</g>
	<path class="st9" d="M201.6,136h5.6c0.8,0,1.4,0.6,1.4,1.4v7c0,0.8-0.6,1.4-1.4,1.4h-5.6c-0.8,0-1.4-0.6-1.4-1.4v-7
		C200.2,136.6,200.8,136,201.6,136z"/>
	<polygon class="st9" points="214.9,136 205,136 200.1,140.9 205,145.8 214.9,145.8 219.8,140.9 	"/>
	<g>
		<path class="st12" d="M203.3,138h1.2l2.2,3.6h0V138h1.1v5.3h-1.2l-2.2-3.6h0v3.6h-1.1V138z"/>
		<path class="st12" d="M212.4,139.8c-0.1-0.6-0.6-0.9-1.2-0.9c-1.1,0-1.5,0.9-1.5,1.8c0,0.9,0.4,1.8,1.5,1.8c0.7,0,1.1-0.5,1.2-1.2
			h1.2c-0.1,1.3-1,2.2-2.4,2.2c-1.6,0-2.6-1.2-2.6-2.8c0-1.6,1-2.8,2.6-2.8c1.2,0,2.2,0.7,2.3,1.9L212.4,139.8z"/>
	</g>
	<g>
		<path class="st12" d="M190.9,89.2h-1.2v-3.8h-1.5v-0.9c0.8,0,1.6-0.3,1.7-1.2h1L190.9,89.2L190.9,89.2z"/>
		<path class="st12" d="M194.2,85.7c0.5,0,1.3-0.1,1.3-0.7c0-0.4-0.3-0.8-0.8-0.8c0,0,0,0-0.1,0c-0.6,0-0.9,0.4-0.9,1.1h-1.1
			c0-1.2,0.8-2,2-2c0.9,0,2,0.6,2,1.6c0,0.5-0.3,1-0.8,1.2v0c0.6,0.1,1.1,0.7,1,1.3c0,1.2-1,1.9-2.2,1.9c-1.3,0-2.2-0.8-2.2-2.1h1.1
			c0,0.6,0.3,1.2,1,1.2c0.5,0,0.9-0.4,1-0.9c0,0,0,0,0-0.1c0-0.9-0.8-0.9-1.4-0.9L194.2,85.7L194.2,85.7z"/>
	</g>
	<g>
		<path class="st12" d="M190.9,102.7h-1.2v-3.8h-1.5V98c0.8,0,1.6-0.3,1.7-1.2h1L190.9,102.7L190.9,102.7z"/>
		<path class="st12" d="M196.4,97.8H194l-0.2,1.3l0,0c0.3-0.3,0.7-0.5,1.2-0.5c1.2,0,1.8,0.9,1.8,2c0,1.2-1,2.1-2.1,2.1l0,0
			c-1.2,0-2.2-0.6-2.2-1.9h1.2c0,0.5,0.5,0.9,1,0.9c0.6,0,1-0.5,1-1.1s-0.4-1.1-1-1.1c-0.4,0-0.7,0.2-0.9,0.5h-1.1l0.6-3.3h3.3
			C196.4,96.8,196.4,97.8,196.4,97.8z"/>
	</g>
	<path class="st10" d="M160.9,108.3h5.6c0.8,0,1.4,0.6,1.4,1.4v7c0,0.8-0.6,1.4-1.4,1.4h-5.6c-0.8,0-1.4-0.6-1.4-1.4v-7
		C159.5,108.9,160.1,108.3,160.9,108.3z"/>
	<path class="st10" d="M136.7,108.3H160c3.2,0,5.8,0.6,5.8,1.4v7c0,0.8-2.6,1.4-5.8,1.4h-23.3c-3.2,0-5.8-0.6-5.8-1.4v-7
		C130.9,108.9,133.5,108.3,136.7,108.3z"/>
	<polygon class="st10" points="127.9,108.3 137.8,108.3 142.7,113.2 137.8,118.1 127.9,118.1 123,113.2 	"/>
	<g>
		<path class="st12" d="M130.1,110.4h1.2v5.4h-1.2V110.4z"/>
		<path class="st12" d="M132.1,112.5c0-1.2,0.7-2.2,1.9-2.2c1,0,1.8,0.6,1.8,1.7c0,1.6-1.7,1.7-2.5,2.8h2.5v0.9H132
			c0-1.2,0.8-1.8,1.7-2.4c0.5-0.3,1.1-0.6,1.1-1.3c0-0.5-0.3-0.8-0.8-0.8c-0.6,0-0.8,0.7-0.8,1.2H132.1z"/>
		<path class="st12" d="M140.2,112.2c-0.1-0.5-0.6-1-1.2-1c-1.1,0-1.5,0.9-1.5,1.9c0,0.9,0.4,1.8,1.5,1.8c0.7,0,1.1-0.5,1.2-1.2h1.2
			c-0.1,1.4-1.1,2.2-2.4,2.2c-1.7,0-2.7-1.3-2.7-2.8c0-1.6,1-2.9,2.7-2.9c1.2,0,2.2,0.7,2.3,2H140.2z"/>
		<path class="st12" d="M144.7,115.8h-1.1v-3.5h-1.3v-0.8c0.8,0,1.4-0.2,1.6-1.1h0.9V115.8z"/>
		<path class="st12" d="M145.9,116.4h3.8v0.4h-3.8V116.4z"/>
		<path class="st12" d="M151.1,114c0,0.7,0.6,1,1.2,1c0.4,0,1.1-0.1,1.1-0.7c0-0.6-0.8-0.7-1.6-0.9c-0.8-0.2-1.6-0.5-1.6-1.5
			c0-1.1,1.1-1.6,2-1.6c1.1,0,2.2,0.5,2.2,1.8h-1.2c0-0.6-0.5-0.8-1.1-0.8c-0.4,0-0.8,0.2-0.8,0.6c0,0.4,0.3,0.5,1.6,0.8
			c0.4,0.1,1.6,0.4,1.6,1.6c0,1-0.8,1.7-2.3,1.7c-1.2,0-2.3-0.6-2.3-1.9H151.1z"/>
		<path class="st12" d="M158.8,112.2c-0.1-0.5-0.6-1-1.2-1c-1.1,0-1.5,0.9-1.5,1.9c0,0.9,0.4,1.8,1.5,1.8c0.7,0,1.1-0.5,1.2-1.2h1.2
			c-0.1,1.4-1.1,2.2-2.4,2.2c-1.7,0-2.7-1.3-2.7-2.8c0-1.6,1-2.9,2.7-2.9c1.2,0,2.2,0.7,2.3,2H158.8z"/>
		<path class="st12" d="M160.8,110.4h1.2v4.4h2.6v1h-3.8V110.4z"/>
	</g>
	<path class="st10" d="M201.6,108.3h5.6c0.8,0,1.4,0.6,1.4,1.4v7c0,0.8-0.6,1.4-1.4,1.4h-5.6c-0.8,0-1.4-0.6-1.4-1.4v-7
		C200.2,108.9,200.8,108.3,201.6,108.3z"/>
	<path class="st10" d="M231.3,118.1H208c-3.2,0-5.8-0.6-5.8-1.4v-7c0-0.8,2.6-1.4,5.8-1.4h23.3c3.2,0,5.8,0.6,5.8,1.4v7
		C237.1,117.5,234.5,118.1,231.3,118.1z"/>
	<polygon class="st10" points="240.1,118.1 230.2,118.1 225.3,113.2 230.2,108.3 240.1,108.3 245,113.2 	"/>
	<g>
		<path class="st12" d="M203.3,110.4h1.2v5.4h-1.2V110.4z"/>
		<path class="st12" d="M205.3,112.5c0-1.2,0.7-2.2,1.9-2.2c1,0,1.8,0.6,1.8,1.7c0,1.6-1.7,1.7-2.5,2.8h2.5v0.9h-3.9
			c0-1.2,0.8-1.8,1.7-2.4c0.5-0.3,1.1-0.6,1.1-1.3c0-0.5-0.3-0.8-0.8-0.8c-0.6,0-0.8,0.7-0.8,1.2H205.3z"/>
		<path class="st12" d="M213.4,112.2c-0.1-0.5-0.6-1-1.2-1c-1.1,0-1.5,0.9-1.5,1.9c0,0.9,0.4,1.8,1.5,1.8c0.7,0,1.1-0.5,1.2-1.2h1.2
			c-0.1,1.4-1.1,2.2-2.4,2.2c-1.7,0-2.7-1.3-2.7-2.8c0-1.6,1-2.9,2.7-2.9c1.2,0,2.2,0.7,2.3,2H213.4z"/>
		<path class="st12" d="M217.9,115.8h-1.1v-3.5h-1.3v-0.8c0.8,0,1.4-0.2,1.6-1.1h0.9V115.8z"/>
		<path class="st12" d="M219.1,116.4h3.8v0.4h-3.8V116.4z"/>
		<path class="st12" d="M224.2,114c0,0.7,0.6,1,1.2,1c0.4,0,1.1-0.1,1.1-0.7c0-0.6-0.8-0.7-1.6-0.9c-0.8-0.2-1.6-0.5-1.6-1.5
			c0-1.1,1.1-1.6,2-1.6c1.1,0,2.2,0.5,2.2,1.8h-1.2c0-0.6-0.5-0.8-1.1-0.8c-0.4,0-0.8,0.2-0.8,0.6c0,0.4,0.3,0.5,1.6,0.8
			c0.4,0.1,1.6,0.4,1.6,1.6c0,1-0.8,1.7-2.3,1.7c-1.2,0-2.3-0.6-2.3-1.9H224.2z"/>
		<path class="st12" d="M228.4,110.4h2.3c1.4,0,2.5,0.9,2.5,2.7c0,1.6-0.8,2.7-2.5,2.7h-2.3V110.4z M229.6,114.8h1.1
			c0.7,0,1.4-0.4,1.4-1.6c0-1.1-0.4-1.8-1.6-1.8h-0.9C229.6,111.4,229.6,114.8,229.6,114.8z"/>
		<path class="st12" d="M235.5,110.4h1.2l2,5.4h-1.2l-0.4-1.2h-2l-0.4,1.2h-1.2L235.5,110.4z M235.4,113.7h1.4l-0.7-2h0L235.4,113.7
			z"/>
	</g>
	<path class="st10" d="M160.9,41h5.6c0.8,0,1.4,0.6,1.4,1.4v7c0,0.8-0.6,1.4-1.4,1.4h-5.6c-0.8,0-1.4-0.6-1.4-1.4v-7
		C159.5,41.6,160.1,41,160.9,41z"/>
	<path class="st10" d="M136.7,41H160c3.2,0,5.8,0.6,5.8,1.4v7c0,0.8-2.6,1.4-5.8,1.4h-23.3c-3.2,0-5.8-0.6-5.8-1.4v-7
		C130.9,41.6,133.5,41,136.7,41z"/>
	<polygon class="st10" points="127.9,41 137.8,41 142.7,45.9 137.8,50.8 127.9,50.8 123,45.9 	"/>
	<g>
		<path class="st12" d="M130.1,43h1.2v5.4h-1.2V43z"/>
		<path class="st12" d="M132.1,45.2c0-1.2,0.7-2.2,1.9-2.2c1,0,1.8,0.6,1.8,1.7c0,1.6-1.7,1.7-2.5,2.8h2.5v0.9H132
			c0-1.2,0.8-1.8,1.7-2.4c0.5-0.3,1.1-0.6,1.1-1.3c0-0.5-0.3-0.8-0.8-0.8c-0.6,0-0.8,0.7-0.8,1.2H132.1z"/>
		<path class="st12" d="M140.2,44.9c-0.1-0.5-0.6-1-1.2-1c-1.1,0-1.5,0.9-1.5,1.9c0,0.9,0.4,1.8,1.5,1.8c0.7,0,1.1-0.5,1.2-1.2h1.2
			c-0.1,1.4-1.1,2.2-2.4,2.2c-1.7,0-2.7-1.3-2.7-2.8c0-1.6,1-2.9,2.7-2.9c1.2,0,2.2,0.7,2.3,2H140.2z"/>
		<path class="st12" d="M144.7,48.5h-1.1V45h-1.3v-0.8c0.8,0,1.4-0.2,1.6-1.1h0.9V48.5L144.7,48.5z"/>
		<path class="st12" d="M145.9,49h3.8v0.4h-3.8V49z"/>
		<path class="st12" d="M151.1,46.7c0,0.7,0.6,1,1.2,1c0.4,0,1.1-0.1,1.1-0.7c0-0.6-0.8-0.7-1.6-0.9c-0.8-0.2-1.6-0.5-1.6-1.5
			c0-1.1,1.1-1.6,2-1.6c1.1,0,2.2,0.5,2.2,1.8h-1.2c0-0.6-0.5-0.8-1.1-0.8c-0.4,0-0.8,0.2-0.8,0.6c0,0.4,0.3,0.5,1.6,0.8
			c0.4,0.1,1.6,0.4,1.6,1.6c0,1-0.8,1.7-2.3,1.7c-1.2,0-2.3-0.6-2.3-1.9L151.1,46.7L151.1,46.7z"/>
		<path class="st12" d="M155.2,43h2.3c1.4,0,2.5,0.9,2.5,2.7c0,1.6-0.8,2.7-2.5,2.7h-2.3V43z M156.4,47.5h1.1c0.7,0,1.4-0.4,1.4-1.6
			c0-1.1-0.4-1.8-1.6-1.8h-0.9C156.4,44,156.4,47.5,156.4,47.5z"/>
		<path class="st12" d="M162.3,43h1.2l2,5.4h-1.2l-0.4-1.2h-2l-0.4,1.2h-1.2L162.3,43z M162.2,46.4h1.4l-0.7-2h0L162.2,46.4z"/>
	</g>
	<path class="st10" d="M201.6,41h5.6c0.8,0,1.4,0.6,1.4,1.4v7c0,0.8-0.6,1.4-1.4,1.4h-5.6c-0.8,0-1.4-0.6-1.4-1.4v-7
		C200.2,41.6,200.8,41,201.6,41z"/>
	<path class="st10" d="M231.3,50.8H208c-3.2,0-5.8-0.6-5.8-1.4v-7c0-0.8,2.6-1.4,5.8-1.4h23.3c3.2,0,5.8,0.6,5.8,1.4v7
		C237.1,50.2,234.5,50.8,231.3,50.8z"/>
	<polygon class="st10" points="240.1,50.8 230.2,50.8 225.3,45.9 230.2,41 240.1,41 245,45.9 	"/>
	<g>
		<path class="st12" d="M203.3,43h1.2v5.4h-1.2V43z"/>
		<path class="st12" d="M205.3,45.2c0-1.2,0.7-2.2,1.9-2.2c1,0,1.8,0.6,1.8,1.7c0,1.6-1.7,1.7-2.5,2.8h2.5v0.9h-3.9
			c0-1.2,0.8-1.8,1.7-2.4c0.5-0.3,1.1-0.6,1.1-1.3c0-0.5-0.3-0.8-0.8-0.8c-0.6,0-0.8,0.7-0.8,1.2H205.3z"/>
		<path class="st12" d="M213.4,44.9c-0.1-0.5-0.6-1-1.2-1c-1.1,0-1.5,0.9-1.5,1.9c0,0.9,0.4,1.8,1.5,1.8c0.7,0,1.1-0.5,1.2-1.2h1.2
			c-0.1,1.4-1.1,2.2-2.4,2.2c-1.7,0-2.7-1.3-2.7-2.8c0-1.6,1-2.9,2.7-2.9c1.2,0,2.2,0.7,2.3,2H213.4z"/>
		<path class="st12" d="M217.9,48.5h-1.1V45h-1.3v-0.8c0.8,0,1.4-0.2,1.6-1.1h0.9V48.5L217.9,48.5z"/>
		<path class="st12" d="M219.1,49h3.8v0.4h-3.8V49z"/>
		<path class="st12" d="M224.2,46.7c0,0.7,0.6,1,1.2,1c0.4,0,1.1-0.1,1.1-0.7c0-0.6-0.8-0.7-1.6-0.9c-0.8-0.2-1.6-0.5-1.6-1.5
			c0-1.1,1.1-1.6,2-1.6c1.1,0,2.2,0.5,2.2,1.8h-1.2c0-0.6-0.5-0.8-1.1-0.8c-0.4,0-0.8,0.2-0.8,0.6c0,0.4,0.3,0.5,1.6,0.8
			c0.4,0.1,1.6,0.4,1.6,1.6c0,1-0.8,1.7-2.3,1.7c-1.2,0-2.3-0.6-2.3-1.9L224.2,46.7L224.2,46.7z"/>
		<path class="st12" d="M232,44.9c-0.1-0.5-0.6-1-1.2-1c-1.1,0-1.5,0.9-1.5,1.9c0,0.9,0.4,1.8,1.5,1.8c0.7,0,1.1-0.5,1.2-1.2h1.2
			c-0.1,1.4-1.1,2.2-2.4,2.2c-1.7,0-2.7-1.3-2.7-2.8c0-1.6,1-2.9,2.7-2.9c1.2,0,2.2,0.7,2.3,2H232z"/>
		<path class="st12" d="M234,43h1.2v4.4h2.6v1H234V43z"/>
	</g>
	<path class="st11" d="M160.9,95h5.6c0.8,0,1.4,0.6,1.4,1.4v7c0,0.8-0.6,1.4-1.4,1.4h-5.6c-0.8,0-1.4-0.6-1.4-1.4v-7
		C159.5,95.6,160.1,95,160.9,95z"/>
	<rect x="154.5" y="95" class="st11" width="11.3" height="9.8"/>
	<polygon class="st11" points="159.8,95 148.4,95 142.7,99.9 148.4,104.8 159.8,104.8 165.5,99.9 	"/>
	<g>
		<path class="st12" d="M152.2,102.8h-1.3l-1.8-5.4h1.2l1.2,3.8h0l1.2-3.8h1.2L152.2,102.8z"/>
		<path class="st12" d="M154.5,97.3h2.3c1.4,0,2.5,0.9,2.5,2.7c0,1.6-0.8,2.7-2.5,2.7h-2.3V97.3z M155.7,101.8h1.1
			c0.7,0,1.4-0.4,1.4-1.6c0-1.1-0.4-1.8-1.6-1.8h-0.9C155.7,98.3,155.7,101.8,155.7,101.8z"/>
		<path class="st12" d="M160.1,97.3h2.3c1.4,0,2.5,0.9,2.5,2.7c0,1.6-0.8,2.7-2.5,2.7h-2.3V97.3z M161.3,101.8h1.1
			c0.7,0,1.4-0.4,1.4-1.6c0-1.1-0.4-1.8-1.6-1.8h-0.9C161.3,98.3,161.3,101.8,161.3,101.8z"/>
	</g>
	<path class="st11" d="M201.8,54.3h5.6c0.8,0,1.4,0.6,1.4,1.4v7c0,0.8-0.6,1.4-1.4,1.4h-5.6c-0.8,0-1.4-0.6-1.4-1.4v-7
		C200.4,54.9,201,54.3,201.8,54.3z"/>
	<rect x="202.8" y="54.3" class="st11" width="11.3" height="9.8"/>
	<polygon class="st11" points="208.4,64.1 219.8,64.1 225.5,59.2 219.8,54.3 208.4,54.3 202.7,59.2 	"/>
	<g>
		<path class="st12" d="M206.4,62.1h-1.3l-1.8-5.4h1.2l1.2,3.8h0l1.2-3.8h1.2L206.4,62.1z"/>
		<path class="st12" d="M208.7,56.6h2.3c1.4,0,2.5,0.9,2.5,2.7c0,1.6-0.8,2.7-2.5,2.7h-2.3V56.6z M209.9,61h1.1
			c0.7,0,1.4-0.4,1.4-1.6c0-1.1-0.4-1.8-1.6-1.8h-0.9C209.9,57.6,209.9,61,209.9,61z"/>
		<path class="st12" d="M214.3,56.6h2.3c1.4,0,2.5,0.9,2.5,2.7c0,1.6-0.8,2.7-2.5,2.7h-2.3V56.6z M215.5,61h1.1
			c0.7,0,1.4-0.4,1.4-1.6c0-1.1-0.4-1.8-1.6-1.8h-0.9C215.5,57.6,215.5,61,215.5,61z"/>
	</g>
</g>
<line class="st13" x1="75.7" y1="52.7" x2="75.7" y2="49.4"/>
<polyline class="st13" points="75.7,47.1 75.7,42.5 99,42.5 99,52.7 "/>
<line class="st13" x1="99" y1="106.9" x2="99" y2="110.2"/>
<polyline class="st13" points="99,112.5 99,117.1 75.7,117.1 75.7,106.9 "/>
<g>
	<g>
		<path class="st11" d="M102,103.4h-0.4v-0.3c0.2,0,0.4-0.1,0.5-0.4h0.3v2.1H102V103.4z"/>
	</g>
	<g>
		<path class="st11" d="M71.3,104c0.2-0.2,0.5-0.3,0.5-0.6c0-0.2-0.1-0.3-0.3-0.3c-0.2,0-0.3,0.2-0.3,0.4h-0.4
			c0-0.5,0.2-0.8,0.7-0.8c0.4,0,0.6,0.3,0.6,0.7c0,0.4-0.2,0.6-0.5,0.7c-0.1,0.1-0.3,0.2-0.4,0.4h0.9v0.3h-1.4
			C70.9,104.4,71.1,104.2,71.3,104z"/>
	</g>
	<g>
		<path class="st11" d="M102,56.1c0.2-0.2,0.5-0.3,0.5-0.6c0-0.2-0.1-0.3-0.3-0.3c-0.2,0-0.3,0.2-0.3,0.4h-0.4
			c0-0.5,0.2-0.8,0.7-0.8c0.4,0,0.6,0.3,0.6,0.7c0,0.4-0.2,0.6-0.5,0.7c-0.1,0.1-0.3,0.2-0.4,0.4h0.9v0.3h-1.4
			C101.5,56.5,101.8,56.3,102,56.1z"/>
		<path class="st11" d="M103,56.2h0.4c0,0.2,0.1,0.4,0.4,0.4c0.2,0,0.3-0.1,0.3-0.3c0-0.2-0.1-0.3-0.3-0.3h-0.1v-0.3h0.1
			c0.2,0,0.3-0.1,0.3-0.3c0-0.2-0.1-0.3-0.3-0.3c-0.2,0-0.3,0.2-0.3,0.4h-0.4c0-0.4,0.2-0.7,0.7-0.7c0.4,0,0.6,0.2,0.6,0.6
			c0,0.2-0.1,0.4-0.3,0.4v0c0.2,0.1,0.4,0.2,0.4,0.5c0,0.4-0.3,0.6-0.7,0.6C103.3,56.9,103,56.6,103,56.2z"/>
	</g>
	<g>
		<path class="st11" d="M70.4,56.1c0.2-0.2,0.5-0.3,0.5-0.6c0-0.2-0.1-0.3-0.3-0.3c-0.2,0-0.3,0.2-0.3,0.4H70c0-0.5,0.2-0.8,0.7-0.8
			c0.4,0,0.6,0.3,0.6,0.7c0,0.4-0.2,0.6-0.5,0.7c-0.1,0.1-0.3,0.2-0.4,0.4h0.9v0.3h-1.4C70,56.5,70.2,56.3,70.4,56.1z"/>
		<path class="st11" d="M72.3,56.4h-0.9V56l0.9-1.2h0.4v1.3h0.3v0.3h-0.3v0.4h-0.4V56.4z M71.7,56.1h0.6v-0.8h0L71.7,56.1L71.7,56.1
			z"/>
	</g>
</g>
</svg>
