<svg xmlns="http://www.w3.org/2000/svg" xmlns:xlink="http://www.w3.org/1999/xlink" viewBox="0 0 148.28 79.28"><defs><style>.cls-1,.cls-22,.cls-24{fill:none;}.cls-2,.cls-7{fill:#232323;}.cls-18,.cls-19,.cls-2,.cls-20,.cls-21,.cls-22,.cls-23,.cls-24,.cls-25,.cls-3,.cls-37,.cls-4{opacity:0.4;}.cls-3{fill:#e0ac52;}.cls-5{clip-path:url(#clip-path);}.cls-6{fill:#e5e5e5;}.cls-8{clip-path:url(#clip-path-3);}.cls-23,.cls-9{fill:#fff;}.cls-10{clip-path:url(#clip-path-5);}.cls-11{clip-path:url(#clip-path-7);}.cls-12{clip-path:url(#clip-path-9);}.cls-13{clip-path:url(#clip-path-11);}.cls-14,.cls-18{fill:#bdc2d2;}.cls-15,.cls-19{fill:#a4abba;}.cls-16,.cls-20{fill:#eeefeb;}.cls-17{fill:#c8ac8c;}.cls-21{fill:#8b5324;}.cls-22,.cls-24{stroke:#fff;stroke-miterlimit:10;stroke-width:0.5px;}.cls-22{stroke-linecap:round;}.cls-25{fill:#3c383d;}.cls-26{clip-path:url(#clip-path-13);}.cls-27{clip-path:url(#clip-path-14);}.cls-28{clip-path:url(#clip-path-15);}.cls-29{clip-path:url(#clip-path-16);}.cls-30{clip-path:url(#clip-path-17);}.cls-31{clip-path:url(#clip-path-18);}.cls-32{clip-path:url(#clip-path-19);}.cls-33{clip-path:url(#clip-path-20);}.cls-34{clip-path:url(#clip-path-21);}.cls-35{fill:#41454a;}.cls-36{fill:#1e1d1e;}.cls-37{fill:#282628;}.cls-38{fill:#ebf4fb;}.cls-39{fill:#333e49;}.cls-40{fill:#222630;}.cls-41{fill:#be8e3e;}.cls-42{fill:#7f8080;}.cls-43{fill:#333;}.cls-44{fill:#b3b3b3;}.cls-45{fill:#fdd407;}.cls-46{fill:#eb2627;}.cls-47{fill:#fed401;}.cls-48{isolation:isolate;}.cls-49{fill:#ee3224;}</style><clipPath id="clip-path"><rect class="cls-1" x="53.44" y="7.66" width="1.92" height="4"/></clipPath><clipPath id="clip-path-3"><rect class="cls-1" x="50.1" y="7.66" width="1.83" height="1.64"/></clipPath><clipPath id="clip-path-5"><rect class="cls-1" x="50.1" y="10.1" width="1.83" height="1.64"/></clipPath><clipPath id="clip-path-7"><rect class="cls-1" x="46.9" y="7.66" width="1.83" height="1.64"/></clipPath><clipPath id="clip-path-9"><rect class="cls-1" x="46.9" y="10.1" width="1.83" height="1.64"/></clipPath><clipPath id="clip-path-11"><rect class="cls-1" x="40.99" y="10.43" width="4.15" height="1.4"/></clipPath><clipPath id="clip-path-13"><rect class="cls-1" x="45.52" y="14.25" width="5.89" height="10.06"/></clipPath><clipPath id="clip-path-14"><rect class="cls-1" x="45.76" y="23.29" width="0.78" height="1.02"/></clipPath><clipPath id="clip-path-15"><rect class="cls-1" x="47.35" y="23.29" width="0.78" height="1.02"/></clipPath><clipPath id="clip-path-16"><rect class="cls-1" x="48.94" y="23.29" width="0.78" height="1.02"/></clipPath><clipPath id="clip-path-17"><rect class="cls-1" x="50.35" y="23.29" width="0.78" height="1.02"/></clipPath><clipPath id="clip-path-18"><rect class="cls-1" x="45.76" y="14.25" width="0.78" height="1.02"/></clipPath><clipPath id="clip-path-19"><rect class="cls-1" x="47.35" y="14.25" width="0.78" height="1.02"/></clipPath><clipPath id="clip-path-20"><rect class="cls-1" x="48.94" y="14.25" width="0.78" height="1.02"/></clipPath><clipPath id="clip-path-21"><rect class="cls-1" x="50.35" y="14.25" width="0.78" height="1.02"/></clipPath></defs><g id="Layer_2" data-name="Layer 2"><g id="Layer_1-2" data-name="Layer 1"><g id="RAK14002_Pinout"><path class="cls-2" d="M0,4.2V75.07H99.21V4.2ZM91.73,21.27a2.21,2.21,0,1,1,2.21,2.21h0A2.2,2.2,0,0,1,91.73,21.27ZM77.24,70a2.22,2.22,0,1,1,2.22,2.24A2.21,2.21,0,0,1,77.24,70ZM60.41,9.65a2.21,2.21,0,1,1,2.21,2.22,2.22,2.22,0,0,1-2.21-2.22ZM10.67,69.51a4,4,0,1,1,0,.06ZM10.52,10.1a4,4,0,1,1,4,4h0A4,4,0,0,1,10.52,10.1Z"/><path class="cls-3" d="M90.13,21.27a3.81,3.81,0,1,0,3.81-3.81h0a3.81,3.81,0,0,0-3.81,3.79Zm1.6,0a2.21,2.21,0,1,1,2.21,2.21h0A2.2,2.2,0,0,1,91.73,21.27Z"/><path class="cls-3" d="M58.47,9.65a4.15,4.15,0,1,0,4.16-4.14h0A4.16,4.16,0,0,0,58.47,9.65Zm1.94,0a2.21,2.21,0,1,1,2.21,2.22,2.22,2.22,0,0,1-2.21-2.22Z"/><path class="cls-3" d="M75.75,69.84A3.82,3.82,0,1,0,79.57,66h0A3.83,3.83,0,0,0,75.75,69.84Zm1.49.12a2.22,2.22,0,1,1,2.22,2.24A2.21,2.21,0,0,1,77.24,70Z"/><path class="cls-3" d="M7.31,10.1A7.25,7.25,0,1,0,18.75,4.2H10.36A7.25,7.25,0,0,0,7.31,10.1Zm3.21,0a4,4,0,1,1,4,4h0A4,4,0,0,1,10.52,10.1Z"/><path class="cls-3" d="M21.8,69.51a7.08,7.08,0,1,0-11.45,5.56h8.74A7,7,0,0,0,21.8,69.51Zm-3,0a4,4,0,1,1-4-4.05,4,4,0,0,1,4,4.05h0Z"/><g id="r-01" class="cls-4"><g class="cls-5"><g class="cls-5"><path class="cls-6" d="M53.44,11.2V8.1a.44.44,0,0,1,.44-.44h1a.44.44,0,0,1,.44.44v3.1a.45.45,0,0,1-.44.45h-1a.43.43,0,0,1-.44-.41v0"/><rect class="cls-7" x="53.44" y="8.74" width="1.92" height="1.84"/></g></g></g><g id="square" class="cls-4"><g class="cls-8"><g class="cls-8"><path class="cls-9" d="M50.34,7.66h1.34a.26.26,0,0,1,.25.24V9.05a.25.25,0,0,1-.25.25H50.34a.25.25,0,0,1-.24-.25V7.9a.24.24,0,0,1,.24-.24h0"/></g></g></g><g id="square-2" class="cls-4"><g class="cls-10"><g class="cls-10"><path class="cls-9" d="M50.34,10.1h1.34a.25.25,0,0,1,.25.25V11.5a.24.24,0,0,1-.25.24H50.34a.24.24,0,0,1-.24-.24h0V10.35a.26.26,0,0,1,.24-.25"/></g></g></g><g id="square-3" class="cls-4"><g class="cls-11"><g class="cls-11"><path class="cls-9" d="M47.15,7.66h1.34a.24.24,0,0,1,.24.24h0V9.05a.25.25,0,0,1-.24.25H47.15a.25.25,0,0,1-.25-.25V7.9a.26.26,0,0,1,.25-.24"/></g></g></g><g id="square-4" class="cls-4"><g class="cls-12"><g class="cls-12"><path class="cls-9" d="M47.15,10.1h1.34a.26.26,0,0,1,.24.25V11.5a.24.24,0,0,1-.24.24H47.15a.24.24,0,0,1-.25-.24V10.35a.25.25,0,0,1,.25-.25"/></g></g></g><g id="Artwork_6" data-name="Artwork 6" class="cls-4"><g class="cls-13"><g class="cls-13"><path class="cls-14" d="M41,11.47v-.56a.37.37,0,0,1,.36-.35H44.8a.35.35,0,0,1,.35.35v.56a.36.36,0,0,1-.35.36H41.35a.36.36,0,0,1-.35-.36"/><path class="cls-15" d="M41.44,11.52v-.66a.29.29,0,0,1,.28-.3h2.53a.31.31,0,0,1,.31.29h0v.66a.31.31,0,0,1-.31.31H41.74a.29.29,0,0,1-.3-.29v0"/><path class="cls-16" d="M41.65,11.62v-1a.2.2,0,0,1,.2-.2h2.34a.2.2,0,0,1,.2.2h0v1a.2.2,0,0,1-.2.21H41.85a.2.2,0,0,1-.2-.21"/><rect class="cls-17" x="42.28" y="10.43" width="1.58" height="1.4"/></g></g></g><path class="cls-18" d="M41,8.56V8a.36.36,0,0,1,.36-.36H44.8a.37.37,0,0,1,.35.36v.56a.35.35,0,0,1-.35.35H41.35A.35.35,0,0,1,41,8.56"/><path class="cls-19" d="M41.44,8.61V8a.29.29,0,0,1,.29-.3h2.52a.31.31,0,0,1,.31.31h0v.66a.3.3,0,0,1-.31.3H41.74a.29.29,0,0,1-.3-.3"/><path class="cls-20" d="M41.65,8.71v-1a.22.22,0,0,1,.2-.21h2.34a.22.22,0,0,1,.2.21v1a.19.19,0,0,1-.2.2H41.85a.19.19,0,0,1-.2-.2h0"/><rect class="cls-21" x="42.28" y="7.51" width="1.58" height="1.4"/><path class="cls-22" d="M71.55,7.2h-2.5a.13.13,0,0,0-.13.13h0v6a.13.13,0,0,0,.13.13h2.52"/><path class="cls-22" d="M95.73,7.2h2.5a.14.14,0,0,1,.14.14v6a.13.13,0,0,1-.13.14H95.71"/><circle class="cls-23" cx="94.82" cy="5.67" r="0.51"/><line class="cls-22" x1="44.86" y1="14.62" x2="44.86" y2="23.55"/><line class="cls-22" x1="52.36" y1="14.62" x2="52.36" y2="23.55"/><rect class="cls-24" x="39.8" y="6.46" width="6.07" height="6.07" rx="0.19"/><path class="cls-24" d="M45.87,6.8H55.8A.2.2,0,0,1,56,7v5.15a.19.19,0,0,1-.19.19H45.87V6.8Z"/><line class="cls-24" x1="49.42" y1="6.8" x2="49.42" y2="12.33"/><line class="cls-24" x1="52.68" y1="6.8" x2="52.68" y2="12.33"/><circle class="cls-25" cx="16.76" cy="43.88" r="13.91"/><circle class="cls-25" cx="49.5" cy="43.88" r="13.91"/><circle class="cls-25" cx="82.24" cy="43.88" r="13.91"/><g id="chips" class="cls-4"><g class="cls-26"><g class="cls-27"><path class="cls-9" d="M45.76,24.2v-.75a.14.14,0,0,1,.12-.14h.55c.06,0,.11.07.11.14v.75a.11.11,0,0,1-.11.13h-.55a.12.12,0,0,1-.12-.13"/></g><g class="cls-28"><path class="cls-9" d="M47.35,24.2v-.75a.12.12,0,0,1,.12-.13H48a.13.13,0,0,1,.12.14h0v.75a.11.11,0,0,1-.11.13h-.55a.11.11,0,0,1-.12-.11v0"/></g><g class="cls-29"><path class="cls-9" d="M48.94,24.2v-.75a.12.12,0,0,1,.12-.13h.54a.13.13,0,0,1,.12.14h0v.75a.11.11,0,0,1-.11.13h-.55a.11.11,0,0,1-.12-.11v0"/></g><g class="cls-30"><path class="cls-9" d="M50.35,24.2v-.75c0-.07,0-.14.11-.14H51a.14.14,0,0,1,.12.14v.75a.12.12,0,0,1-.12.13h-.55a.11.11,0,0,1-.11-.12h0"/></g><g class="cls-31"><path class="cls-9" d="M45.76,15.14v-.75a.14.14,0,0,1,.12-.14h.55c.06,0,.11.07.11.14v.75a.11.11,0,0,1-.11.13h-.55a.12.12,0,0,1-.12-.13"/></g><g class="cls-32"><path class="cls-9" d="M47.35,15.14v-.75a.12.12,0,0,1,.12-.13H48a.13.13,0,0,1,.12.14h0v.75a.11.11,0,0,1-.11.13h-.55a.11.11,0,0,1-.12-.11v0"/></g><g class="cls-33"><path class="cls-9" d="M48.94,15.14v-.75a.12.12,0,0,1,.12-.13h.54a.13.13,0,0,1,.12.14h0v.75a.11.11,0,0,1-.11.13h-.55a.11.11,0,0,1-.12-.11v0"/></g><g class="cls-34"><path class="cls-9" d="M50.35,15.14v-.75c0-.07,0-.14.11-.14H51a.14.14,0,0,1,.12.14v.75a.12.12,0,0,1-.12.13h-.55a.11.11,0,0,1-.11-.12h0"/></g><g class="cls-26"><path class="cls-35" d="M45.52,23.12V15.54c0-.21.1-.39.23-.39h5.43c.13,0,.23.18.23.39v7.58c0,.21-.1.38-.23.38H45.75c-.13,0-.23-.17-.23-.38"/><path class="cls-36" d="M45.52,22.91V15.72c0-.21.1-.39.23-.39h5.43c.13,0,.23.18.23.39v7.19c0,.21-.1.38-.23.38H45.75c-.13,0-.23-.17-.23-.38"/></g></g></g><path class="cls-25" d="M80.15,24.5H51.54a0,0,0,0,1,0,0,.39.39,0,0,1-.38-.41v-.58H45.76v.7c0,.32-.45.32-.45.32H18.24l-2.81,2.22V30c.44,0,.88-.06,1.33-.06s.82,0,1.23.06V28l1.19-1,26.94-.19c.4,0,.4.46.4.46v3a14,14,0,0,1,3-.32c.36,0,.72,0,1.08.05V27.48c0-.58.42-.58.42-.58H78.91a9.85,9.85,0,0,1,1,.85v2.42l.28,0a13.83,13.83,0,0,1,2-.16h.26V26.63Z"/><path class="cls-37" d="M80,25.34H50.49l-.76-.77V23.51h-2.3v1.12l-.74.73H18.45l-2.18,1.77V30l.49,0,.42,0,0-2.46,1.74-1.43H46.65l.79.79v3.24A14,14,0,0,1,49.5,30h.21V26.88l.77-.77H79.53l1.29,1.31v2.63c.32,0,.64,0,1-.05V27.15Z"/><path class="cls-38" d="M70.41,14.43h-.23a.4.4,0,0,1-.4-.4h0V9.83a.4.4,0,0,1,.4-.4h.23a.4.4,0,0,1,.4.4h0V14a.4.4,0,0,1-.4.4h0"/><path class="cls-38" d="M96.64,14.43H96.4A.39.39,0,0,1,96,14h0V9.83a.38.38,0,0,1,.38-.4h.25a.4.4,0,0,1,.4.4h0V14a.4.4,0,0,1-.4.4h0"/><path class="cls-39" d="M97.29,10.75v-.4a.41.41,0,0,0-.4-.4h-.82a.41.41,0,0,0-.37.25H71.08a.4.4,0,0,0-.37-.25H69.9a.4.4,0,0,0-.4.4h0v.41a.41.41,0,0,0,.28.38v1.58a.39.39,0,0,0-.28.38v.41a.41.41,0,0,0,.4.39h.81a.4.4,0,0,0,.38-.26H95.7a.42.42,0,0,0,.37.26h.82a.4.4,0,0,0,.4-.38h0V13.1a.39.39,0,0,0-.29-.37V11.12A.39.39,0,0,0,97.29,10.75Z"/><path class="cls-40" d="M95.1,13.28H71.63c-.18,0-.33-.09-.33-.2V10.86c0-.12.15-.21.33-.21H95.1c.18,0,.33.09.33.21v2.22c0,.11-.15.2-.33.2"/><path class="cls-38" d="M72.81,8.57h-.46a.12.12,0,0,0-.12.12h0V9.1a.13.13,0,0,0,.11.12V10.3h.47V9.22a.14.14,0,0,0,.12-.12V8.69a.12.12,0,0,0-.12-.12"/><path class="cls-41" d="M72.75,10.69h-.6a.1.1,0,0,1-.1-.08h0v-.3a.09.09,0,0,1,.1-.1h.6a.1.1,0,0,1,.1.1v.27a.11.11,0,0,1-.1.09"/><path class="cls-38" d="M72.81,15.36h-.46a.12.12,0,0,1-.12-.12h0v-.41a.13.13,0,0,1,.11-.12V13.64h.47v1.07a.12.12,0,0,1,.12.12v.41a.14.14,0,0,1-.12.12"/><path class="cls-41" d="M72.75,13.24h-.6a.09.09,0,0,0-.1.08v.31a.1.1,0,0,0,.1.1h.6a.12.12,0,0,0,.1-.1v-.29a.09.09,0,0,0-.1-.1"/><path class="cls-38" d="M73.92,8.57h-.46a.12.12,0,0,0-.12.12h0V9.1a.13.13,0,0,0,.11.12V10.3h.47V9.22A.13.13,0,0,0,74,9.1V8.69a.12.12,0,0,0-.08-.12"/><path class="cls-41" d="M73.86,10.69h-.6a.1.1,0,0,1-.1-.08h0v-.3a.09.09,0,0,1,.1-.1h.6a.1.1,0,0,1,.1.1v.27a.11.11,0,0,1-.1.09"/><path class="cls-38" d="M73.92,15.36h-.46a.12.12,0,0,1-.12-.12h0v-.41a.13.13,0,0,1,.11-.12V13.64h.47v1.07a.12.12,0,0,1,.12.12v.41a.14.14,0,0,1-.12.12"/><path class="cls-41" d="M73.86,13.24h-.6a.09.09,0,0,0-.1.08v.31a.1.1,0,0,0,.1.1h.6a.12.12,0,0,0,.1-.1v-.29a.09.09,0,0,0-.1-.1"/><path class="cls-38" d="M75.09,8.57h-.45a.13.13,0,0,0-.13.12V9.1a.15.15,0,0,0,.12.12V10.3h.47V9.22a.13.13,0,0,0,.11-.12V8.69a.12.12,0,0,0-.12-.12h0"/><path class="cls-41" d="M75,10.69h-.61a.11.11,0,0,1-.1-.09v-.3a.1.1,0,0,1,.1-.1H75a.1.1,0,0,1,.09.1v.27a.09.09,0,0,1-.09.09"/><path class="cls-38" d="M75.09,15.36h-.45a.14.14,0,0,1-.13-.12v-.41a.14.14,0,0,1,.12-.12V13.64h.47v1.07a.13.13,0,0,1,.11.12v.41a.12.12,0,0,1-.12.12h0"/><path class="cls-41" d="M75,13.24h-.61a.09.09,0,0,0-.1.1v.29a.12.12,0,0,0,.1.1H75a.11.11,0,0,0,.09-.1v-.29a.08.08,0,0,0-.08-.1h0"/><path class="cls-38" d="M76.24,8.57h-.45a.13.13,0,0,0-.13.12V9.1a.14.14,0,0,0,.12.12V10.3h.47V9.22a.13.13,0,0,0,.11-.12V8.69a.12.12,0,0,0-.12-.12h0"/><path class="cls-41" d="M76.19,10.69h-.61a.11.11,0,0,1-.1-.09v-.3a.1.1,0,0,1,.1-.1h.61a.1.1,0,0,1,.09.1v.27a.09.09,0,0,1-.09.09"/><path class="cls-38" d="M76.24,15.36h-.45a.14.14,0,0,1-.13-.12v-.41a.12.12,0,0,1,.12-.12V13.64h.47v1.07a.13.13,0,0,1,.11.12v.41a.12.12,0,0,1-.12.12h0"/><path class="cls-41" d="M76.19,13.24h-.61a.09.09,0,0,0-.1.1v.29a.12.12,0,0,0,.1.1h.61a.11.11,0,0,0,.09-.1v-.29a.08.08,0,0,0-.08-.1h0"/><path class="cls-38" d="M77.36,8.57H76.9a.12.12,0,0,0-.12.12V9.1a.14.14,0,0,0,.12.12V10.3h.47V9.22a.13.13,0,0,0,.11-.12V8.69a.12.12,0,0,0-.12-.12h0"/><path class="cls-41" d="M77.31,10.69H76.7a.1.1,0,0,1-.1-.1v-.32a.1.1,0,0,1,.1-.1h.61a.1.1,0,0,1,.09.1v.3a.09.09,0,0,1-.09.09"/><path class="cls-38" d="M77.36,15.36H76.9a.14.14,0,0,1-.12-.12v-.41a.12.12,0,0,1,.12-.12V13.64h.47v1.07a.13.13,0,0,1,.11.12v.41a.12.12,0,0,1-.12.12h0"/><path class="cls-41" d="M77.31,13.24H76.7a.09.09,0,0,0-.1.1v.29a.12.12,0,0,0,.1.1h.61a.11.11,0,0,0,.09-.1v-.29a.08.08,0,0,0-.08-.1h0"/><path class="cls-38" d="M78.47,8.57H78a.12.12,0,0,0-.12.12V9.1a.14.14,0,0,0,.12.12V10.3h.47V9.22a.13.13,0,0,0,.11-.12V8.69a.11.11,0,0,0-.11-.12"/><path class="cls-41" d="M78.41,10.69h-.6a.11.11,0,0,1-.1-.09v-.3a.1.1,0,0,1,.1-.1h.6a.09.09,0,0,1,.1.1v.27a.09.09,0,0,1-.09.09h0"/><path class="cls-38" d="M78.47,15.36H78a.14.14,0,0,1-.12-.12v-.41a.12.12,0,0,1,.12-.12V13.64h.47v1.07a.13.13,0,0,1,.11.12v.41a.12.12,0,0,1-.12.12h0"/><path class="cls-41" d="M78.41,13.24h-.6a.09.09,0,0,0-.1.1v.29a.12.12,0,0,0,.1.1h.6a.1.1,0,0,0,.1-.1v-.29a.08.08,0,0,0-.08-.1h0"/><path class="cls-38" d="M79.59,8.57h-.45a.12.12,0,0,0-.12.12h0V9.1a.13.13,0,0,0,.11.12V10.3h.47V9.22a.15.15,0,0,0,.12-.12V8.69a.13.13,0,0,0-.13-.12"/><path class="cls-41" d="M79.54,10.69h-.61a.11.11,0,0,1-.1-.09v-.33a.1.1,0,0,1,.09-.1h.61a.1.1,0,0,1,.09.1v.3a.09.09,0,0,1-.09.09"/><path class="cls-38" d="M79.59,15.36h-.45a.12.12,0,0,1-.14-.1v-.43a.13.13,0,0,1,.11-.12V13.64h.47v1.07a.14.14,0,0,1,.12.12v.41a.14.14,0,0,1-.13.12"/><path class="cls-41" d="M79.54,13.24h-.61a.09.09,0,0,0-.09.09h0v.29a.11.11,0,0,0,.09.1h.61a.11.11,0,0,0,.09-.1v-.29a.08.08,0,0,0-.08-.1h0"/><path class="cls-38" d="M80.73,8.57h-.46a.12.12,0,0,0-.12.12V9.1a.14.14,0,0,0,.12.12V10.3h.47V9.22a.13.13,0,0,0,.11-.12V8.69a.12.12,0,0,0-.12-.12h0"/><path class="cls-41" d="M80.67,10.69h-.6a.09.09,0,0,1-.07-.11h0v-.3a.09.09,0,0,1,.1-.1h.6a.09.09,0,0,1,.1.1v.3a.09.09,0,0,1-.09.09h0"/><path class="cls-38" d="M80.73,15.36h-.46a.14.14,0,0,1-.12-.12v-.41a.12.12,0,0,1,.12-.12V13.64h.47v1.07a.13.13,0,0,1,.11.12v.41a.12.12,0,0,1-.12.12h0"/><path class="cls-41" d="M80.67,13.24h-.6a.09.09,0,0,0-.1.08v.31a.1.1,0,0,0,.1.1h.6a.1.1,0,0,0,.1-.1v-.29a.08.08,0,0,0-.08-.1h0"/><path class="cls-38" d="M81.87,8.57h-.46a.12.12,0,0,0-.12.12h0V9.1a.13.13,0,0,0,.11.12V10.3h.47V9.22A.14.14,0,0,0,82,9.1V8.69a.13.13,0,0,0-.13-.12"/><path class="cls-41" d="M81.81,10.69H81.2a.11.11,0,0,1-.1-.09v-.33a.1.1,0,0,1,.09-.1h.61a.1.1,0,0,1,.1.1v.3a.11.11,0,0,1-.1.09"/><path class="cls-38" d="M81.87,15.36h-.46a.12.12,0,0,1-.12-.12h0v-.41a.13.13,0,0,1,.11-.12V13.64h.47v1.07a.12.12,0,0,1,.12.12v.41a.14.14,0,0,1-.12.12"/><path class="cls-41" d="M81.81,13.24H81.2a.09.09,0,0,0-.09.09h0v.29a.11.11,0,0,0,.09.1h.61a.12.12,0,0,0,.1-.1v-.29a.09.09,0,0,0-.1-.1"/><path class="cls-38" d="M83,8.57h-.46a.12.12,0,0,0-.12.12h0V9.1a.14.14,0,0,0,.12.12V10.3H83V9.22a.14.14,0,0,0,.12-.12V8.69A.12.12,0,0,0,83,8.57h0"/><path class="cls-41" d="M82.93,10.69h-.6a.1.1,0,0,1-.1-.08h0v-.3a.09.09,0,0,1,.1-.1h.6a.09.09,0,0,1,.1.1v.27a.09.09,0,0,1-.09.09h0"/><path class="cls-38" d="M83,15.36h-.46a.12.12,0,0,1-.12-.12h0v-.41a.12.12,0,0,1,.12-.12V13.64H83v1.07a.12.12,0,0,1,.12.12v.41a.12.12,0,0,1-.12.12h0"/><path class="cls-41" d="M82.93,13.24h-.6a.09.09,0,0,0-.1.08v.31a.1.1,0,0,0,.1.1h.6a.1.1,0,0,0,.1-.1v-.29a.08.08,0,0,0-.08-.1h0"/><path class="cls-38" d="M84.15,8.57h-.46a.12.12,0,0,0-.12.12V9.1a.14.14,0,0,0,.12.12V10.3h.47V9.22a.13.13,0,0,0,.11-.12V8.69a.12.12,0,0,0-.12-.12h0"/><path class="cls-41" d="M84.1,10.69h-.61a.11.11,0,0,1-.1-.09v-.3a.1.1,0,0,1,.1-.1h.61a.1.1,0,0,1,.09.1v.27a.09.09,0,0,1-.09.09"/><path class="cls-38" d="M84.15,15.36h-.46a.14.14,0,0,1-.12-.12v-.41a.12.12,0,0,1,.12-.12V13.64h.47v1.07a.13.13,0,0,1,.11.12v.41a.12.12,0,0,1-.12.12h0"/><path class="cls-41" d="M84.1,13.24h-.61a.09.09,0,0,0-.1.1v.29a.12.12,0,0,0,.1.1h.61a.11.11,0,0,0,.09-.1v-.29a.08.08,0,0,0-.08-.1h0"/><path class="cls-38" d="M85.29,8.57h-.46a.12.12,0,0,0-.12.12h0V9.1a.13.13,0,0,0,.11.12V10.3h.47V9.22a.14.14,0,0,0,.12-.12V8.69a.12.12,0,0,0-.12-.12"/><path class="cls-41" d="M85.23,10.69h-.6a.1.1,0,0,1-.1-.08h0v-.3a.09.09,0,0,1,.1-.1h.6a.09.09,0,0,1,.1.1v.27a.09.09,0,0,1-.09.09h0"/><path class="cls-38" d="M85.29,15.36h-.46a.12.12,0,0,1-.12-.12h0v-.41a.13.13,0,0,1,.11-.12V13.64h.47v1.07a.12.12,0,0,1,.12.12v.41a.14.14,0,0,1-.12.12"/><path class="cls-41" d="M85.23,13.24h-.6a.09.09,0,0,0-.1.08v.31a.1.1,0,0,0,.1.1h.6a.1.1,0,0,0,.1-.1v-.29a.08.08,0,0,0-.08-.1h0"/><path class="cls-38" d="M86.52,8.57h-.45a.13.13,0,0,0-.13.12V9.1a.15.15,0,0,0,.12.12V10.3h.47V9.22a.13.13,0,0,0,.11-.12V8.69a.12.12,0,0,0-.12-.12h0"/><path class="cls-41" d="M86.47,10.69h-.61a.11.11,0,0,1-.1-.09v-.3a.1.1,0,0,1,.1-.1h.61a.1.1,0,0,1,.09.1v.27a.09.09,0,0,1-.09.09"/><path class="cls-38" d="M86.52,15.36h-.45a.14.14,0,0,1-.13-.12v-.41a.14.14,0,0,1,.12-.12V13.64h.47v1.07a.13.13,0,0,1,.11.12v.41a.12.12,0,0,1-.12.12h0"/><path class="cls-41" d="M86.47,13.24h-.61a.09.09,0,0,0-.1.1v.29a.12.12,0,0,0,.1.1h.61a.11.11,0,0,0,.09-.1v-.29a.08.08,0,0,0-.08-.1h0"/><path class="cls-38" d="M87.63,8.57h-.45a.13.13,0,0,0-.13.12V9.1a.15.15,0,0,0,.12.12V10.3h.47V9.22a.13.13,0,0,0,.11-.12V8.69a.12.12,0,0,0-.12-.12h0"/><path class="cls-41" d="M87.58,10.69H87a.11.11,0,0,1-.1-.09v-.3a.1.1,0,0,1,.1-.1h.61a.1.1,0,0,1,.09.1v.27a.09.09,0,0,1-.09.09"/><path class="cls-38" d="M87.63,15.36h-.45a.14.14,0,0,1-.13-.12v-.41a.14.14,0,0,1,.12-.12V13.64h.47v1.07a.13.13,0,0,1,.11.12v.41a.12.12,0,0,1-.12.12h0"/><path class="cls-41" d="M87.58,13.24H87a.09.09,0,0,0-.1.1v.29a.12.12,0,0,0,.1.1h.61a.11.11,0,0,0,.09-.1v-.29a.08.08,0,0,0-.08-.1h0"/><path class="cls-38" d="M88.76,8.57H88.3a.12.12,0,0,0-.12.12h0V9.1a.13.13,0,0,0,.11.12V10.3h.47V9.22a.14.14,0,0,0,.12-.12V8.69a.12.12,0,0,0-.12-.12"/><path class="cls-41" d="M88.7,10.69h-.61a.11.11,0,0,1-.1-.09v-.33a.1.1,0,0,1,.09-.1h.61a.1.1,0,0,1,.1.1v.3a.11.11,0,0,1-.1.09"/><path class="cls-38" d="M88.76,15.36H88.3a.12.12,0,0,1-.12-.12h0v-.41a.13.13,0,0,1,.11-.12V13.64h.47v1.07a.12.12,0,0,1,.12.12v.41a.14.14,0,0,1-.12.12"/><path class="cls-41" d="M88.7,13.24h-.61a.09.09,0,0,0-.09.09h0v.29a.11.11,0,0,0,.09.1h.61a.12.12,0,0,0,.1-.1v-.29a.09.09,0,0,0-.1-.1"/><path class="cls-38" d="M89.89,8.57h-.45a.13.13,0,0,0-.13.12V9.1a.14.14,0,0,0,.12.12V10.3h.47V9.22A.14.14,0,0,0,90,9.1V8.69a.11.11,0,0,0-.11-.12"/><path class="cls-41" d="M89.84,10.69h-.61a.11.11,0,0,1-.1-.09v-.3a.1.1,0,0,1,.1-.1h.61a.1.1,0,0,1,.09.1v.27a.09.09,0,0,1-.09.09"/><path class="cls-38" d="M89.89,15.36h-.45a.14.14,0,0,1-.13-.12v-.41a.12.12,0,0,1,.12-.12V13.64h.47v1.07a.13.13,0,0,1,.11.12v.41a.12.12,0,0,1-.12.12h0"/><path class="cls-41" d="M89.84,13.24h-.61a.09.09,0,0,0-.1.1v.29a.12.12,0,0,0,.1.1h.61a.11.11,0,0,0,.09-.1v-.29a.08.08,0,0,0-.08-.1h0"/><path class="cls-38" d="M91,8.57h-.46a.12.12,0,0,0-.12.12h0V9.1a.13.13,0,0,0,.11.12V10.3H91V9.22a.14.14,0,0,0,.12-.12V8.69A.12.12,0,0,0,91,8.57"/><path class="cls-41" d="M91,10.69h-.6a.1.1,0,0,1-.1-.08h0v-.3a.09.09,0,0,1,.1-.1H91a.09.09,0,0,1,.1.1v.27a.09.09,0,0,1-.09.09h0"/><path class="cls-38" d="M91,15.36h-.46a.12.12,0,0,1-.12-.12h0v-.41a.13.13,0,0,1,.11-.12V13.64H91v1.07a.12.12,0,0,1,.12.12v.41a.14.14,0,0,1-.12.12"/><path class="cls-41" d="M91,13.24h-.6a.09.09,0,0,0-.1.08v.31a.1.1,0,0,0,.1.1H91a.1.1,0,0,0,.1-.1v-.29a.08.08,0,0,0-.08-.1h0"/><path class="cls-38" d="M92.15,8.57h-.46a.12.12,0,0,0-.12.12V9.1a.14.14,0,0,0,.12.12V10.3h.47V9.22a.13.13,0,0,0,.11-.12V8.69a.12.12,0,0,0-.12-.12h0"/><path class="cls-41" d="M92.09,10.69h-.6a.11.11,0,0,1-.1-.09v-.3a.1.1,0,0,1,.1-.1h.6a.09.09,0,0,1,.1.1v.27a.09.09,0,0,1-.09.09h0"/><path class="cls-38" d="M92.15,15.36h-.46a.14.14,0,0,1-.12-.12v-.41a.12.12,0,0,1,.12-.12V13.64h.47v1.07a.13.13,0,0,1,.11.12v.41a.12.12,0,0,1-.12.12h0"/><path class="cls-41" d="M92.09,13.24h-.6a.09.09,0,0,0-.1.1v.29a.12.12,0,0,0,.1.1h.6a.1.1,0,0,0,.1-.1v-.29a.08.08,0,0,0-.08-.1h0"/><path class="cls-38" d="M93.31,8.57h-.45a.13.13,0,0,0-.13.12V9.1a.15.15,0,0,0,.12.12V10.3h.47V9.22a.13.13,0,0,0,.11-.12V8.69a.12.12,0,0,0-.12-.12h0"/><path class="cls-41" d="M93.26,10.69h-.61a.11.11,0,0,1-.1-.09v-.3a.1.1,0,0,1,.1-.1h.61a.1.1,0,0,1,.09.1v.27a.09.09,0,0,1-.09.09"/><path class="cls-38" d="M93.31,15.36h-.45a.14.14,0,0,1-.13-.12v-.41a.14.14,0,0,1,.12-.12V13.64h.47v1.07a.13.13,0,0,1,.11.12v.41a.12.12,0,0,1-.12.12h0"/><path class="cls-41" d="M93.26,13.24h-.61a.09.09,0,0,0-.1.1v.29a.12.12,0,0,0,.1.1h.61a.11.11,0,0,0,.09-.1v-.29a.08.08,0,0,0-.08-.1h0"/><path class="cls-38" d="M94.45,8.57H94a.12.12,0,0,0-.12.12V9.1a.14.14,0,0,0,.12.12V10.3h.47V9.22a.13.13,0,0,0,.11-.12V8.69a.12.12,0,0,0-.12-.12h0"/><path class="cls-41" d="M94.39,10.69h-.6a.1.1,0,0,1-.1-.08h0v-.3a.09.09,0,0,1,.1-.1h.6a.09.09,0,0,1,.1.1v.27a.09.09,0,0,1-.09.09h0"/><path class="cls-38" d="M94.45,15.36H94a.14.14,0,0,1-.12-.12v-.41a.12.12,0,0,1,.12-.12V13.64h.47v1.07a.13.13,0,0,1,.11.12v.41a.12.12,0,0,1-.12.12h0"/><path class="cls-41" d="M94.39,13.24h-.6a.09.09,0,0,0-.1.08v.31a.1.1,0,0,0,.1.1h.6a.1.1,0,0,0,.1-.1v-.29a.08.08,0,0,0-.08-.1h0"/><path class="cls-41" d="M69.78,10.45c0-.14.19-.25.42-.25s.42.11.42.25-.19.24-.42.24-.42-.11-.42-.24"/><path class="cls-41" d="M69.78,13.44c0-.13.19-.24.42-.24s.42.11.42.24-.19.25-.42.25-.42-.11-.42-.25"/><path class="cls-41" d="M96.1,10.45c0-.14.19-.25.42-.25s.42.11.42.25-.19.24-.42.24-.42-.12-.42-.24"/><path class="cls-41" d="M96.1,13.44c0-.13.19-.24.42-.24s.42.11.42.24-.19.25-.42.25-.42-.12-.42-.25"/><rect class="cls-42" x="131.27" y="0.09" width="4.25" height="79.19"/><rect class="cls-42" x="125.96" y="0.09" width="4.25" height="79.19"/><rect class="cls-43" x="123.49" y="4.12" width="2.47" height="2.9" rx="0.41"/><rect class="cls-44" x="126.5" y="0.09" width="3.71" height="2.9" rx="0.35"/><rect class="cls-43" x="126.5" y="4.06" width="3.71" height="2.9" rx="0.35"/><rect class="cls-44" x="126.5" y="8.15" width="3.71" height="2.9" rx="0.35"/><rect class="cls-44" x="126.5" y="12.24" width="3.71" height="2.9" rx="0.35"/><rect class="cls-44" x="126.5" y="16.16" width="3.71" height="2.9" rx="0.35"/><rect class="cls-44" x="126.5" y="20.07" width="3.71" height="2.9" rx="0.35"/><rect class="cls-44" x="126.5" y="24.12" width="3.71" height="2.9" rx="0.35"/><rect class="cls-44" x="126.5" y="28.09" width="3.71" height="2.9" rx="0.35"/><rect class="cls-44" x="126.5" y="32.1" width="3.71" height="2.9" rx="0.35"/><rect class="cls-45" x="126.5" y="36.16" width="3.71" height="2.9" rx="0.35"/><rect class="cls-44" x="126.5" y="40.36" width="3.71" height="2.9" rx="0.35"/><rect class="cls-44" x="126.5" y="44.3" width="3.71" height="2.9" rx="0.35"/><rect class="cls-44" x="131.27" y="0.09" width="3.71" height="2.9" rx="0.35"/><rect class="cls-43" x="131.27" y="4.06" width="3.71" height="2.9" rx="0.35"/><rect class="cls-46" x="131.27" y="8.15" width="3.71" height="2.9" rx="0.35"/><rect class="cls-44" x="131.27" y="12.24" width="3.71" height="2.9" rx="0.35"/><rect class="cls-44" x="131.27" y="16.16" width="3.71" height="2.9" rx="0.35"/><rect class="cls-44" x="131.27" y="20.07" width="3.71" height="2.9" rx="0.35"/><rect class="cls-44" x="131.27" y="24.12" width="3.71" height="2.9" rx="0.35"/><rect class="cls-44" x="131.27" y="28.09" width="3.71" height="2.9" rx="0.35"/><rect class="cls-44" x="131.27" y="32.1" width="3.71" height="2.9" rx="0.35"/><rect class="cls-45" x="131.27" y="36.16" width="3.71" height="2.9" rx="0.35"/><rect class="cls-44" x="131.27" y="40.36" width="3.71" height="2.9" rx="0.35"/><rect class="cls-44" x="131.27" y="44.3" width="3.71" height="2.9" rx="0.35"/><rect class="cls-44" x="131.27" y="48.24" width="3.71" height="2.9" rx="0.35"/><rect class="cls-44" x="131.27" y="52.15" width="3.71" height="2.9" rx="0.35"/><rect class="cls-44" x="131.27" y="56.2" width="3.71" height="2.9" rx="0.35"/><rect class="cls-44" x="131.27" y="60.17" width="3.71" height="2.9" rx="0.35"/><rect class="cls-44" x="131.27" y="64.18" width="3.71" height="2.9" rx="0.35"/><rect class="cls-44" x="131.27" y="68.24" width="3.71" height="2.9" rx="0.35"/><rect class="cls-44" x="131.27" y="72.44" width="3.71" height="2.9" rx="0.35"/><path class="cls-9" d="M131.83,49.53a.61.61,0,0,1,.63-.7.55.55,0,0,1,.6.54c0,.53-.56.57-.81.93h.82v.3h-1.28c0-.4.25-.57.55-.78.15-.1.37-.21.37-.42a.25.25,0,0,0-.23-.27h0c-.21,0-.28.21-.28.4Z"/><path class="cls-9" d="M134.37,49.15h-.72l-.07.4h0a.43.43,0,0,1,.34-.13.53.53,0,0,1,.54.59.63.63,0,0,1-.63.63h0a.59.59,0,0,1-.65-.55h.35a.28.28,0,0,0,.29.26.31.31,0,0,0,.3-.33h0a.29.29,0,0,0-.27-.32h0a.27.27,0,0,0-.27.14h-.32l.17-1h1Z"/><path class="cls-9" d="M131.83,53.38a.62.62,0,0,1,.63-.71.55.55,0,0,1,.6.54c0,.53-.56.57-.81.93h.82v.31h-1.28c0-.41.25-.58.55-.78.15-.11.37-.22.37-.43a.25.25,0,0,0-.23-.27h0c-.21,0-.28.22-.28.4Z"/><path class="cls-9" d="M134.41,53a2.12,2.12,0,0,0-.57,1.44h-.38a2.54,2.54,0,0,1,.59-1.41h-.83v-.33h1.19Z"/><path class="cls-9" d="M132.31,65.51c.15,0,.37,0,.37-.22a.23.23,0,0,0-.23-.23h0c-.18,0-.27.13-.27.31h-.34a.59.59,0,0,1,.61-.6.54.54,0,0,1,.58.48.35.35,0,0,1-.24.36h0a.41.41,0,0,1,.31.4.6.6,0,0,1-.65.57.59.59,0,0,1-.65-.63h.34a.3.3,0,0,0,.3.34.28.28,0,0,0,.29-.25v0c0-.26-.23-.26-.41-.26Z"/><path class="cls-9" d="M133.69,65.51c.15,0,.37,0,.37-.22a.23.23,0,0,0-.23-.23h0c-.18,0-.27.13-.27.31h-.33a.57.57,0,0,1,.6-.6.54.54,0,0,1,.59.48.35.35,0,0,1-.25.36h0a.39.39,0,0,1,.31.4.6.6,0,0,1-.65.57.58.58,0,0,1-.64-.63h.33c0,.19.1.34.31.34a.27.27,0,0,0,.28-.25v0c0-.26-.23-.26-.4-.26Z"/><path class="cls-9" d="M132.31,69.58c.15,0,.37,0,.37-.22a.23.23,0,0,0-.23-.23h0c-.18,0-.27.13-.27.31h-.34a.59.59,0,0,1,.61-.6.54.54,0,0,1,.58.48.33.33,0,0,1-.24.36h0a.41.41,0,0,1,.31.4.65.65,0,0,1-1.3-.06h.34a.3.3,0,0,0,.3.34.27.27,0,0,0,.29-.25v0c0-.26-.23-.25-.41-.25Z"/><path class="cls-9" d="M134.37,69.17h-.72l-.07.39h0a.44.44,0,0,1,.34-.14.54.54,0,0,1,.54.6.63.63,0,0,1-.63.62h0a.58.58,0,0,1-.65-.55h.35a.28.28,0,0,0,.29.26.31.31,0,0,0,.3-.33h0a.3.3,0,0,0-.27-.33h0a.27.27,0,0,0-.27.14h-.32l.17-1h1Z"/><path class="cls-9" d="M131.83,57.49a.61.61,0,0,1,.63-.7.55.55,0,0,1,.6.54c0,.52-.56.57-.81.93h.82v.3h-1.28c0-.41.25-.57.55-.78.15-.11.37-.21.37-.43a.27.27,0,0,0-.23-.27h0c-.21,0-.28.22-.28.41Z"/><path class="cls-9" d="M133.54,58.12a.25.25,0,0,0,.23.21c.26,0,.33-.34.34-.53h0a.42.42,0,0,1-.39.19.55.55,0,0,1-.4-.18.62.62,0,0,1-.14-.39.61.61,0,0,1,.61-.64c.53,0,.67.46.67.91s-.18.91-.68.91a.54.54,0,0,1-.57-.48Zm.54-.72a.3.3,0,0,0-.28-.32h0a.3.3,0,0,0-.27.32.29.29,0,0,0,.27.32.28.28,0,0,0,.28-.32Z"/><path class="cls-9" d="M132.31,61.56c.15,0,.37,0,.37-.21a.23.23,0,0,0-.23-.24h0a.27.27,0,0,0-.27.31h-.34a.59.59,0,0,1,.61-.6.54.54,0,0,1,.58.49.35.35,0,0,1-.24.35h0a.39.39,0,0,1,.31.39.65.65,0,0,1-1.3-.06h.34c0,.19.1.35.3.35a.28.28,0,0,0,.29-.26h0c0-.27-.23-.26-.41-.26Z"/><path class="cls-9" d="M134.1,62.6h-.36V61.47h-.43V61.2a.44.44,0,0,0,.51-.35h.28Z"/><path class="cls-9" d="M132.31,73.79c.15,0,.37,0,.37-.22a.23.23,0,0,0-.23-.23h0c-.18,0-.27.13-.27.31h-.34a.59.59,0,0,1,.61-.6.54.54,0,0,1,.58.48.36.36,0,0,1-.24.36h0a.4.4,0,0,1,.31.39.65.65,0,0,1-1.3-.06h.34c0,.19.1.35.3.35a.28.28,0,0,0,.29-.26h0c0-.27-.23-.26-.41-.26Z"/><path class="cls-9" d="M134.41,73.39a2.12,2.12,0,0,0-.57,1.43h-.38a2.54,2.54,0,0,1,.59-1.41h-.83v-.33h1.19Z"/><rect class="cls-43" x="131.27" y="76.38" width="3.71" height="2.9" rx="0.35"/><rect class="cls-44" x="126.5" y="48.24" width="3.71" height="2.9" rx="0.35"/><path class="cls-9" d="M132.31,77.74c.15,0,.37,0,.37-.22a.23.23,0,0,0-.23-.23h0c-.18,0-.27.13-.27.31h-.34a.59.59,0,0,1,.61-.6.54.54,0,0,1,.58.48.34.34,0,0,1-.24.35h0a.41.41,0,0,1,.31.4.65.65,0,0,1-1.3-.06h.34a.3.3,0,0,0,.3.34.28.28,0,0,0,.29-.26h0c0-.26-.23-.26-.41-.26Z"/><path class="cls-9" d="M133.54,78.33a.25.25,0,0,0,.23.21c.26,0,.33-.34.34-.53h0a.42.42,0,0,1-.39.19.55.55,0,0,1-.4-.18.62.62,0,0,1-.14-.39.6.6,0,0,1,.61-.63c.53,0,.67.46.67.9s-.18.91-.68.91a.54.54,0,0,1-.57-.48Zm.54-.72a.3.3,0,0,0-.29-.32.29.29,0,0,0-.27.32.3.3,0,0,0,.27.33.29.29,0,0,0,.28-.33Z"/><rect class="cls-44" x="126.5" y="52.15" width="3.71" height="2.9" rx="0.35"/><rect class="cls-44" x="126.5" y="56.2" width="3.71" height="2.9" rx="0.35"/><rect class="cls-44" x="126.5" y="60.17" width="3.71" height="2.9" rx="0.35"/><rect class="cls-44" x="126.5" y="64.18" width="3.71" height="2.9" rx="0.35"/><rect class="cls-44" x="126.5" y="68.24" width="3.71" height="2.9" rx="0.35"/><rect class="cls-47" x="126.5" y="72.44" width="3.71" height="2.9" rx="0.35"/><rect class="cls-43" x="126.5" y="76.38" width="3.71" height="2.9" rx="0.35"/><path class="cls-9" d="M127.75,1.53a.63.63,0,0,1,.63-.71.56.56,0,0,1,.6.55c0,.52-.56.57-.81.92H129V2.6h-1.28c0-.41.25-.57.55-.78s.37-.21.37-.43a.25.25,0,0,0-.23-.27h0c-.21,0-.28.22-.28.4Z"/><path class="cls-9" d="M127.06,49.53a.62.62,0,0,1,.63-.7.55.55,0,0,1,.6.54c0,.53-.56.57-.81.93h.82v.31H127c0-.41.25-.58.55-.78s.37-.22.37-.43a.25.25,0,0,0-.23-.27h0c-.2,0-.27.22-.27.4Z"/><path class="cls-9" d="M129.32,49.31a.27.27,0,0,0-.24-.22c-.25,0-.32.34-.33.53h0a.43.43,0,0,1,.39-.2.55.55,0,0,1,.4.18.62.62,0,0,1,.14.39.61.61,0,0,1-.58.64h0c-.52,0-.66-.46-.66-.9s.18-.91.68-.91a.52.52,0,0,1,.56.48Zm-.54.71a.31.31,0,0,0,.28.33h0a.3.3,0,0,0,.28-.32.3.3,0,0,0-.28-.33.29.29,0,0,0-.28.32Z"/><path class="cls-9" d="M127.54,61.59c.15,0,.37,0,.37-.21a.24.24,0,0,0-.23-.24h0c-.18,0-.27.13-.27.31h-.34a.59.59,0,0,1,.61-.61.54.54,0,0,1,.58.49.34.34,0,0,1-.24.35h0a.4.4,0,0,1,.31.39A.65.65,0,0,1,127,62h.34c0,.19.1.35.3.35a.28.28,0,0,0,.29-.26h0c0-.27-.23-.26-.4-.26Z"/><path class="cls-9" d="M128.44,61.56a.63.63,0,0,1,.64-.71.56.56,0,0,1,.59.55c0,.52-.56.57-.81.92h.83v.31h-1.28c0-.41.24-.57.55-.78.15-.11.36-.21.36-.43a.25.25,0,0,0-.23-.27h0c-.21,0-.28.22-.28.4Z"/><path class="cls-9" d="M127.54,69.61c.15,0,.37,0,.37-.22a.23.23,0,0,0-.23-.23h0c-.18,0-.27.13-.27.31h-.34a.59.59,0,0,1,.61-.6.53.53,0,0,1,.58.48.35.35,0,0,1-.24.37h0a.39.39,0,0,1,.31.39.65.65,0,0,1-1.3-.06h.34c0,.19.1.35.3.35a.28.28,0,0,0,.29-.26h0c0-.27-.23-.26-.4-.26Z"/><path class="cls-9" d="M129.32,69.35a.25.25,0,0,0-.24-.21c-.25,0-.32.34-.33.53h0a.43.43,0,0,1,.39-.2.6.6,0,0,1,.4.18.62.62,0,0,1,.14.39.61.61,0,0,1-.58.64h0c-.52,0-.66-.46-.66-.9s.18-.91.68-.91a.52.52,0,0,1,.56.48Zm-.54.72a.3.3,0,0,0,.28.32h0a.33.33,0,0,0,0-.65.3.3,0,0,0-.28.33Z"/><path class="cls-9" d="M127.54,73.82c.15,0,.37,0,.37-.22a.23.23,0,0,0-.23-.23h0c-.18,0-.27.13-.27.31h-.34a.59.59,0,0,1,.61-.6.53.53,0,0,1,.58.48.35.35,0,0,1-.24.36h0a.38.38,0,0,1,.31.39.65.65,0,0,1-1.3-.06h.34c0,.19.1.35.3.35a.28.28,0,0,0,.29-.26h0c0-.27-.23-.26-.4-.26Z"/><path class="cls-9" d="M129.05,73.08a.51.51,0,0,1,.58.46.37.37,0,0,1-.25.37h0a.4.4,0,0,1,.32.43.58.58,0,0,1-.65.55c-.33,0-.66-.17-.66-.54a.4.4,0,0,1,.33-.43h0a.35.35,0,0,1-.26-.36C128.46,73.24,128.76,73.08,129.05,73.08Zm0,1.54a.29.29,0,0,0,.3-.27v0a.29.29,0,0,0-.29-.28h0a.29.29,0,1,0,0,.57Zm0-.81a.23.23,0,0,0,.26-.23.22.22,0,0,0-.22-.24h0a.23.23,0,0,0-.27.21v0c0,.16.13.23.27.23Z"/><path class="cls-9" d="M127.74,78.29H127V78l.76-1h.31v1h.23v.29h-.23v.41h-.34Zm0-.89h0l-.45.6h.45Z"/><path class="cls-9" d="M129,76.92c.35,0,.65.22.65.9s-.3.92-.65.92-.63-.22-.63-.92S128.7,76.92,129,76.92Zm0,1.52c.29,0,.29-.42.29-.62s0-.61-.29-.61-.28.43-.28.61S128.76,78.44,129,78.44Z"/><path class="cls-9" d="M127.06,53.38a.62.62,0,0,1,.63-.71.55.55,0,0,1,.6.54c0,.53-.56.57-.81.93h.82v.31H127c0-.41.25-.58.55-.78s.37-.22.37-.43a.25.25,0,0,0-.23-.27h0c-.2,0-.27.22-.27.4Z"/><path class="cls-9" d="M129.05,52.67a.52.52,0,0,1,.58.47.37.37,0,0,1-.25.36h0a.39.39,0,0,1,.32.42.58.58,0,0,1-.65.55c-.33,0-.66-.17-.66-.54a.4.4,0,0,1,.33-.43h0a.35.35,0,0,1-.26-.36C128.46,52.83,128.76,52.67,129.05,52.67Zm0,1.55a.3.3,0,0,0,.3-.28v0a.3.3,0,0,0-.29-.28h0a.28.28,0,0,0-.31.28.3.3,0,0,0,.29.3Zm0-.81a.24.24,0,0,0,.26-.23.24.24,0,0,0-.22-.25h0a.25.25,0,0,0-.27.22v0a.24.24,0,0,0,.27.23Z"/><path class="cls-9" d="M127.54,57.56c.15,0,.37,0,.37-.22a.23.23,0,0,0-.23-.23h0c-.18,0-.27.13-.27.31h-.34a.59.59,0,0,1,.61-.6.53.53,0,0,1,.58.48.35.35,0,0,1-.24.36h0a.39.39,0,0,1,.31.39A.65.65,0,0,1,127,58h.34c0,.19.1.35.3.35a.28.28,0,0,0,.29-.26h0c0-.27-.23-.26-.4-.26Z"/><path class="cls-9" d="M129,56.82c.35,0,.65.22.65.9s-.3.91-.65.91-.63-.22-.63-.91S128.7,56.82,129,56.82Zm0,1.52c.29,0,.29-.43.29-.62s0-.61-.29-.61-.28.42-.28.61S128.76,58.34,129,58.34Z"/><path class="cls-9" d="M127.54,65.51c.15,0,.37,0,.37-.22a.23.23,0,0,0-.23-.23h0c-.18,0-.27.13-.27.31h-.34a.59.59,0,0,1,.61-.6.53.53,0,0,1,.58.48.35.35,0,0,1-.24.36h0a.41.41,0,0,1,.31.4A.65.65,0,0,1,127,66h.34c0,.19.1.34.3.34a.28.28,0,0,0,.29-.25v0c0-.26-.23-.26-.4-.26Z"/><path class="cls-9" d="M129.13,66.14h-.74v-.32l.76-1h.31v1h.23v.29h-.23v.4h-.33Zm0-.9h0l-.45.61h.46Z"/><path class="cls-9" d="M133.41,2.5h-.36V1.37h-.44V1.1c.25,0,.48-.08.52-.35h.28Z"/><path class="cls-9" d="M133,5.43c.15,0,.37,0,.37-.22a.23.23,0,0,0-.23-.23h0c-.18,0-.27.13-.27.31h-.33a.57.57,0,0,1,.6-.6.53.53,0,0,1,.58.48.32.32,0,0,1-.24.36h0a.38.38,0,0,1,.31.39.65.65,0,0,1-1.3,0h.34c0,.18.1.34.31.34A.28.28,0,0,0,133.4,6h0c0-.27-.23-.26-.4-.26Z"/><path class="cls-9" d="M133.68,9.11H133l-.07.39h0a.48.48,0,0,1,.34-.14.55.55,0,0,1,.54.6.63.63,0,0,1-.63.63h0a.58.58,0,0,1-.64-.55h.35a.28.28,0,0,0,.29.26.32.32,0,0,0,.3-.33h0a.3.3,0,0,0-.27-.32h0a.27.27,0,0,0-.27.14h-.32l.17-1h1Z"/><path class="cls-9" d="M132.85,18a.25.25,0,0,0,.23.22c.26,0,.32-.34.34-.53h0a.45.45,0,0,1-.39.2.56.56,0,0,1-.4-.19.57.57,0,0,1-.14-.38.61.61,0,0,1,.61-.64c.53,0,.67.46.67.9s-.19.91-.68.91a.53.53,0,0,1-.57-.48Zm.53-.71a.3.3,0,0,0-.27-.33h0a.33.33,0,0,0,0,.65A.28.28,0,0,0,133.38,17.29Z"/><path class="cls-9" d="M132.71,22.42h-.35V21.29h-.44V21c.25,0,.47-.08.51-.34h.28Z"/><path class="cls-9" d="M134.1,22.42h-.36V21.29h-.43V21c.24,0,.47-.08.51-.34h.28Z"/><path class="cls-9" d="M132.71,34.52h-.35V33.39h-.44v-.27c.25,0,.47-.08.51-.35h.28Z"/><path class="cls-9" d="M134.41,33.08a2.12,2.12,0,0,0-.57,1.44h-.38a2.54,2.54,0,0,1,.59-1.41h-.83v-.33h1.19Z"/><path class="cls-9" d="M132.71,38.57h-.35V37.45h-.44v-.27c.25,0,.47-.08.51-.35h.28Z"/><path class="cls-9" d="M133.54,38.13a.25.25,0,0,0,.23.21c.26,0,.33-.34.34-.53h0a.42.42,0,0,1-.39.19.55.55,0,0,1-.4-.18.62.62,0,0,1-.14-.39.6.6,0,0,1,.61-.63c.53,0,.67.46.67.9s-.18.91-.68.91a.54.54,0,0,1-.57-.48Zm.54-.72a.3.3,0,0,0-.28-.32h0a.3.3,0,0,0-.27.32.29.29,0,0,0,.27.32.28.28,0,0,0,.28-.32Z"/><path class="cls-9" d="M131.83,41.65a.62.62,0,0,1,.63-.7.55.55,0,0,1,.6.54c0,.53-.56.57-.81.93h.82v.3h-1.28c0-.4.25-.57.55-.78.15-.1.37-.21.37-.42a.25.25,0,0,0-.23-.27h0c-.21,0-.28.21-.28.4Z"/><path class="cls-9" d="M134.1,42.73h-.36V41.6h-.43v-.28c.24,0,.47-.07.51-.34h.28Z"/><path class="cls-9" d="M131.83,45.65a.62.62,0,0,1,.63-.71.56.56,0,0,1,.6.54c0,.53-.56.57-.81.93h.82v.31h-1.28c0-.41.25-.58.55-.78.15-.11.37-.21.37-.43a.25.25,0,0,0-.23-.27h0c-.21,0-.28.22-.28.4Z"/><path class="cls-9" d="M133.69,45.68c.15,0,.37,0,.37-.22a.23.23,0,0,0-.23-.23h0c-.18,0-.27.14-.27.32h-.33a.57.57,0,0,1,.6-.61.54.54,0,0,1,.59.49.34.34,0,0,1-.25.35h0a.37.37,0,0,1,.31.39.59.59,0,0,1-.65.57.58.58,0,0,1-.64-.63h.33c0,.19.1.35.31.35a.28.28,0,0,0,.28-.26h0c0-.27-.23-.26-.4-.26Z"/><path class="cls-9" d="M128.44,6.17h-.74V5.85l.76-1h.31v1H129v.29h-.23v.4h-.33Zm0-.9h0l-.45.61h.46Z"/><path class="cls-9" d="M127.94,22.53h-.35V21.4h-.44v-.27c.25,0,.47-.08.51-.35h.28Z"/><path class="cls-9" d="M128.44,21.45a.63.63,0,0,1,.64-.7.55.55,0,0,1,.59.54c0,.53-.56.57-.81.93h.83v.31h-1.28c0-.41.24-.58.55-.78.15-.11.36-.21.36-.43a.25.25,0,0,0-.23-.27h0c-.21,0-.28.22-.28.4Z"/><path class="cls-9" d="M127.94,30.61h-.35V29.48h-.44v-.27c.25,0,.47-.08.51-.35h.28Z"/><path class="cls-9" d="M129.32,29.31a.25.25,0,0,0-.24-.21c-.25,0-.32.33-.33.53h0a.42.42,0,0,1,.39-.19.55.55,0,0,1,.4.18.63.63,0,0,1-.44,1h0c-.52,0-.66-.46-.66-.9s.18-.91.68-.91a.53.53,0,0,1,.56.48Zm-.54.72a.3.3,0,0,0,.28.32h0a.3.3,0,0,0,.28-.32.3.3,0,0,0-.28-.33.29.29,0,0,0-.28.33Z"/><path class="cls-9" d="M127.94,34.63h-.35V33.49h-.44v-.26c.25,0,.47-.08.51-.35h.28Z"/><path class="cls-9" d="M129.05,32.85a.51.51,0,0,1,.58.46.37.37,0,0,1-.25.37h0a.4.4,0,0,1,.32.43.58.58,0,0,1-.65.55c-.33,0-.66-.17-.66-.54a.4.4,0,0,1,.33-.43h0a.35.35,0,0,1-.26-.36C128.46,33,128.76,32.85,129.05,32.85Zm0,1.54a.28.28,0,0,0,.3-.27v0a.29.29,0,0,0-.29-.28h0a.28.28,0,0,0-.31.28.29.29,0,0,0,.29.29Zm0-.81a.23.23,0,0,0,.26-.23.22.22,0,0,0-.22-.24h0a.23.23,0,0,0-.27.21v0a.24.24,0,0,0,.27.23Z"/><path class="cls-9" d="M127.06,41.76a.61.61,0,0,1,.63-.7.55.55,0,0,1,.6.54c0,.53-.56.57-.81.93h.82v.3H127c0-.4.25-.57.55-.77s.37-.22.37-.43a.25.25,0,0,0-.23-.27h0c-.2,0-.27.22-.27.4Z"/><path class="cls-9" d="M128.44,41.76a.62.62,0,0,1,.64-.7.55.55,0,0,1,.59.54c0,.53-.56.57-.81.93h.83v.3h-1.28c0-.4.24-.57.55-.77.15-.11.36-.22.36-.43a.25.25,0,0,0-.23-.27h0c-.21,0-.28.22-.28.4Z"/><path class="cls-9" d="M128.63,9.37a.25.25,0,0,0-.24-.21c-.25,0-.32.33-.33.53h0a.45.45,0,0,1,.4-.19.53.53,0,0,1,.4.18.54.54,0,0,1,.13.39.6.6,0,0,1-.61.63c-.53,0-.67-.46-.67-.9s.19-.91.69-.91a.52.52,0,0,1,.56.48Zm-.54.72a.3.3,0,0,0,.27.32h0a.29.29,0,0,0,.27-.32c0-.16-.08-.33-.27-.33A.29.29,0,0,0,128.09,10.09Z"/><polygon class="cls-43" points="123.85 4.12 120.47 4.12 118.79 5.57 120.47 7.02 123.85 7.02 125.53 5.57 123.85 4.12"/><path class="cls-9" d="M121.4,6.1a.56.56,0,0,1-.44.22.76.76,0,0,1-.78-.83.77.77,0,0,1,.78-.83.64.64,0,0,1,.67.56h-.33A.33.33,0,0,0,121,5c-.31,0-.43.27-.43.54s.12.53.43.53a.35.35,0,0,0,.38-.3v0H121V5.42h.67v.86h-.22Z"/><path class="cls-9" d="M121.94,4.7h.34l.66,1.06h0V4.7h.32V6.28h-.35l-.65-1.06h0V6.28h-.33Z"/><path class="cls-9" d="M123.58,4.7h.68a.69.69,0,0,1,.72.78c0,.46-.23.8-.72.8h-.68ZM123.93,6h.31c.2,0,.39-.13.39-.48s-.11-.52-.45-.52h-.25Z"/><rect class="cls-43" x="123.49" y="76.38" width="2.47" height="2.9" rx="0.41"/><polygon class="cls-43" points="123.85 76.38 120.47 76.38 118.79 77.83 120.47 79.28 123.85 79.28 125.53 77.83 123.85 76.38"/><path class="cls-9" d="M121.4,78.36a.54.54,0,0,1-.44.22.83.83,0,0,1,0-1.66.63.63,0,0,1,.67.56h-.33a.33.33,0,0,0-.34-.27c-.31,0-.43.27-.43.54s.12.53.43.53a.34.34,0,0,0,.38-.3v0H121v-.26h.67v.86h-.22Z"/><path class="cls-9" d="M121.94,77h.34l.66,1.07h0V77h.32v1.59h-.35l-.65-1.06h0v1.06h-.33Z"/><path class="cls-9" d="M123.58,77h.68a.7.7,0,0,1,.72.79c0,.46-.23.8-.72.8h-.68Zm.35,1.29h.31c.2,0,.39-.12.39-.47s-.11-.52-.45-.52h-.25Z"/><rect class="cls-43" x="135.53" y="4.12" width="2.47" height="2.9" rx="0.41"/><polygon class="cls-43" points="137.67 4.12 141.04 4.12 142.72 5.57 141.04 7.02 137.67 7.02 135.98 5.57 137.67 4.12"/><path class="cls-9" d="M137.7,6.1a.54.54,0,0,1-.44.22.76.76,0,0,1-.78-.83.77.77,0,0,1,.78-.83.64.64,0,0,1,.67.56h-.33a.33.33,0,0,0-.34-.27c-.31,0-.43.27-.43.54s.12.53.43.53a.35.35,0,0,0,.38-.3v0h-.35V5.42H138v.86h-.22Z"/><path class="cls-9" d="M138.24,4.7h.34l.66,1.06h0V4.7h.33V6.28h-.34l-.66-1.06h0V6.28h-.33Z"/><path class="cls-9" d="M139.88,4.7h.69a.69.69,0,0,1,.72.78.71.71,0,0,1-.72.8h-.69ZM140.23,6h.31c.2,0,.39-.13.39-.48s-.11-.52-.45-.52h-.25Z"/><rect class="cls-43" x="135.53" y="76.38" width="2.47" height="2.9" rx="0.41"/><polygon class="cls-43" points="137.67 76.38 141.04 76.38 142.72 77.83 141.04 79.28 137.67 79.28 135.98 77.83 137.67 76.38"/><path class="cls-9" d="M137.7,78.36a.51.51,0,0,1-.44.21.83.83,0,0,1,0-1.65.63.63,0,0,1,.67.55h-.33a.32.32,0,0,0-.34-.26c-.31,0-.43.26-.43.54s.12.53.43.53a.35.35,0,0,0,.38-.3v0h-.35v-.26H138v.85h-.22Z"/><path class="cls-9" d="M138.24,77h.34l.66,1.07h0V77h.33v1.59h-.34l-.66-1.06h0v1.06h-.33Z"/><path class="cls-9" d="M139.88,77h.69a.7.7,0,0,1,.72.79.71.71,0,0,1-.72.8h-.69Zm.35,1.29h.31c.2,0,.39-.12.39-.47s-.11-.52-.45-.52h-.25Z"/><path class="cls-9" d="M128.36,12.88a.51.51,0,0,1,.58.46.37.37,0,0,1-.26.37h0a.41.41,0,0,1,.33.43.58.58,0,0,1-.65.54c-.33,0-.66-.16-.66-.54a.4.4,0,0,1,.32-.43h0a.34.34,0,0,1-.25-.36C127.77,13,128.07,12.88,128.36,12.88Zm0,1.54a.27.27,0,0,0,.29-.27s0,0,0,0a.27.27,0,0,0-.28-.28h0a.28.28,0,0,0-.31.28.29.29,0,0,0,.29.29Zm0-.81a.24.24,0,1,0,0-.47h0a.23.23,0,0,0-.27.21v0a.25.25,0,0,0,.28.23Z"/><path class="cls-9" d="M127.94,18.56h-.35V17.42h-.44v-.26c.25,0,.47-.08.51-.35h.28Z"/><path class="cls-9" d="M129,16.78c.35,0,.65.22.65.9s-.3.91-.65.91-.63-.22-.63-.91S128.7,16.78,129,16.78Zm0,1.52c.29,0,.29-.43.29-.62s0-.61-.29-.61-.28.42-.28.61S128.76,18.3,129,18.3Z"/><path class="cls-9" d="M127.94,26.62h-.35V25.49h-.44v-.27c.25,0,.47-.08.51-.34h.28Z"/><path class="cls-9" d="M129.13,26.22h-.74v-.33l.76-1h.31v1h.23v.3h-.23v.4h-.33Zm0-.9h0l-.45.6h.46Z"/><path class="cls-9" d="M127.06,37.61a.62.62,0,0,1,.63-.71.56.56,0,0,1,.6.54c0,.53-.56.57-.81.93h.82v.31H127c0-.41.25-.58.55-.78s.37-.21.37-.43a.25.25,0,0,0-.23-.27h0c-.2,0-.27.22-.27.4Z"/><path class="cls-9" d="M129,36.9c.35,0,.65.22.65.91s-.3.91-.65.91-.63-.22-.63-.91S128.7,36.9,129,36.9Zm0,1.53c.29,0,.29-.43.29-.63s0-.6-.29-.6-.28.42-.28.6,0,.62.28.62Z"/><path class="cls-9" d="M127.06,45.74a.62.62,0,0,1,.63-.71.56.56,0,0,1,.6.54c0,.53-.56.57-.81.93h.82v.31H127c0-.41.25-.58.55-.78s.37-.21.37-.43a.26.26,0,0,0-.23-.27h0c-.2,0-.27.22-.27.4Z"/><path class="cls-9" d="M129.13,46.41h-.74v-.33l.76-1h.31v1h.23v.29h-.23v.4h-.33Zm0-.9h0l-.45.61h.46Z"/><path class="cls-9" d="M133.72,13.11a2.12,2.12,0,0,0-.57,1.44h-.38a2.56,2.56,0,0,1,.58-1.42h-.82V12.8h1.19Z"/><path class="cls-9" d="M132.71,26.51h-.35V25.38h-.44v-.27c.25,0,.47-.08.51-.34h.28Z"/><path class="cls-9" d="M133.69,25.47c.15,0,.37,0,.37-.21a.23.23,0,0,0-.23-.23h0c-.18,0-.27.13-.27.31h-.33a.58.58,0,0,1,.6-.61.55.55,0,0,1,.59.49.34.34,0,0,1-.25.35h0a.39.39,0,0,1,.31.4.6.6,0,0,1-.65.57.59.59,0,0,1-.64-.63h.33c0,.19.1.34.31.34a.27.27,0,0,0,.28-.26h0c0-.26-.23-.26-.4-.26Z"/><path class="cls-9" d="M132.71,30.5h-.35V29.37h-.44V29.1c.25,0,.47-.08.51-.34h.28Z"/><path class="cls-9" d="M134.37,29.05h-.72l-.07.39h0a.43.43,0,0,1,.34-.13.53.53,0,0,1,.54.59.63.63,0,0,1-.63.63h0a.58.58,0,0,1-.65-.55h.35a.28.28,0,0,0,.29.26.31.31,0,0,0,.3-.32h0a.3.3,0,0,0-.27-.33h0a.29.29,0,0,0-.27.14h-.32l.17-1h1Z"/><polygon class="cls-46" points="135.94 9.61 137.4 11.07 140.31 11.07 141.77 9.61 140.31 8.15 137.4 8.15 135.94 9.61"/><path class="cls-46" d="M135.52,8.15h4.32a.43.43,0,0,1,.43.43v2.06a.43.43,0,0,1-.43.43h-4.32a0,0,0,0,1,0,0V8.15A0,0,0,0,1,135.52,8.15Z" transform="translate(275.79 19.22) rotate(-180)"/><path class="cls-9" d="M136.93,9.4c.14,0,.33,0,.33-.19a.2.2,0,0,0-.2-.21h0a.24.24,0,0,0-.24.28h-.3a.51.51,0,0,1,.53-.54.47.47,0,0,1,.52.43.32.32,0,0,1-.21.32h0a.34.34,0,0,1,.27.35.52.52,0,0,1-.58.51.53.53,0,0,1-.58-.57h.3c0,.17.09.31.27.31a.24.24,0,0,0,.26-.22v0c0-.24-.21-.23-.36-.23Z"/><path class="cls-9" d="M138.42,10.33h-.35l-.4-1.15H138l.25.78h0l.24-.78h.31Z"/><path class="cls-9" d="M139.32,9.4c.14,0,.33,0,.33-.19a.21.21,0,0,0-.2-.21h0c-.16,0-.24.12-.24.28h-.3a.52.52,0,0,1,.54-.54.47.47,0,0,1,.52.43.31.31,0,0,1-.21.32h0a.34.34,0,0,1,.27.35.58.58,0,0,1-1.15-.06h.29c0,.17.09.31.28.31a.24.24,0,0,0,.25-.22v0c0-.24-.21-.23-.36-.23Z"/><path class="cls-45" d="M125.69,72.43a.28.28,0,0,1,.27.28v2.34a.28.28,0,0,1-.28.28h-3.51l-1.9-1.45,1.9-1.45h3.52Z"/><polygon class="cls-45" points="124.82 73.88 123.36 72.43 120.44 72.43 118.98 73.88 120.44 75.33 123.36 75.33 124.82 73.88"/><path class="cls-9" d="M121.6,73.15H122v1.59h-.35Z"/><path class="cls-9" d="M123,73.11a.77.77,0,0,1,.78.84.78.78,0,1,1-1.56,0A.77.77,0,0,1,123,73.11Zm0,1.37c.31,0,.43-.27.43-.53s-.12-.55-.43-.55-.43.27-.43.55S122.65,74.48,123,74.48Z"/><path class="cls-9" d="M124.7,73.58a.22.22,0,0,0-.21-.2c-.23,0-.29.31-.3.48h0a.42.42,0,0,1,.36-.17.5.5,0,0,1,.36.16.55.55,0,0,1,.12.35.54.54,0,0,1-.55.57c-.47,0-.6-.41-.6-.81s.17-.81.61-.81a.48.48,0,0,1,.51.43Zm-.48.64a.25.25,0,1,0,.49,0,.26.26,0,0,0-.24-.29C124.3,73.93,124.22,74.06,124.22,74.22Z"/><path class="cls-47" d="M135.76,36.16H145a.27.27,0,0,1,.24.3v2.31a.27.27,0,0,1-.24.3h-9.2a.27.27,0,0,1-.24-.3V36.46A.27.27,0,0,1,135.76,36.16Z"/><polygon class="cls-47" points="146.81 36.16 143.88 36.16 142.41 37.62 143.88 39.08 146.81 39.08 148.28 37.62 146.81 36.16"/><g class="cls-48"><path class="cls-9" d="M136.45,36.76h.35v1.59h-.35Z"/><path class="cls-9" d="M137,37.39a.56.56,0,0,1,.57-.63.5.5,0,0,1,.54.49c0,.47-.5.51-.73.83h.73v.27H137c0-.36.22-.51.49-.7s.33-.19.33-.38a.23.23,0,0,0-.24-.24c-.18,0-.24.2-.24.36Z"/><path class="cls-9" d="M139.41,37.29a.36.36,0,0,0-.35-.27c-.32,0-.43.26-.43.54s.11.53.43.53a.36.36,0,0,0,.36-.35h.34a.67.67,0,0,1-.7.65.84.84,0,0,1,0-1.67.64.64,0,0,1,.68.58h-.33Z"/><path class="cls-9" d="M140.72,38.35h-.32v-1H140V37.1c.22,0,.42-.07.45-.31h.25v1.56Z"/><path class="cls-9" d="M141.08,38.52h1.11v.11h-1.11Z"/><path class="cls-9" d="M142.59,37.82c0,.21.16.3.35.3s.31,0,.31-.2-.24-.2-.48-.26-.47-.16-.47-.46a.54.54,0,0,1,.6-.48c.33,0,.63.15.63.51h-.34c0-.18-.14-.24-.31-.24s-.24,0-.24.18.08.14.47.24c.12,0,.48.11.48.47s-.23.51-.66.51-.69-.18-.68-.57Z"/><path class="cls-9" d="M143.79,36.76h.69a.7.7,0,0,1,.72.79.71.71,0,0,1-.72.8h-.69Zm.35,1.3h.31c.21,0,.4-.13.4-.48s-.11-.53-.46-.53h-.25v1Z"/><path class="cls-9" d="M145.88,36.76h.36l.59,1.59h-.36l-.12-.35h-.6l-.12.35h-.36Zm0,1h.42l-.2-.59h0Z"/></g><path class="cls-47" d="M126,36.46v2.32a.29.29,0,0,1-.28.3h-10.6a.29.29,0,0,1-.28-.3V36.46a.3.3,0,0,1,.28-.3h10.6A.3.3,0,0,1,126,36.46Z"/><polygon class="cls-47" points="113.43 37.62 114.9 39.08 117.83 39.08 119.3 37.62 117.83 36.17 114.9 36.17 113.43 37.62"/><g class="cls-48"><path class="cls-9" d="M114.9,36.77h.35v1.59h-.35Z"/><path class="cls-9" d="M115.48,37.4a.55.55,0,0,1,.57-.63.49.49,0,0,1,.53.48c0,.48-.5.51-.73.84h.74v.27h-1.14c0-.37.22-.52.49-.7s.33-.19.33-.38A.23.23,0,0,0,116,37c-.19,0-.25.19-.25.36Z"/><path class="cls-9" d="M117.85,37.3a.34.34,0,0,0-.35-.28c-.31,0-.43.27-.43.55s.12.53.43.53a.36.36,0,0,0,.37-.35h.33a.67.67,0,0,1-.7.65.84.84,0,0,1,0-1.67.65.65,0,0,1,.69.57Z"/><path class="cls-9" d="M119.16,38.36h-.31v-1h-.4v-.24c.22,0,.42-.07.46-.31h.25v1.56Z"/><path class="cls-9" d="M119.53,38.52h1.11v.12h-1.11Z"/><path class="cls-9" d="M121,37.83c0,.21.17.29.35.29s.31,0,.31-.19-.24-.2-.47-.27-.47-.15-.47-.45.3-.48.59-.48.64.14.64.51h-.34c0-.19-.14-.24-.31-.24s-.24,0-.24.18.07.14.47.24c.12,0,.47.11.47.47s-.22.5-.66.5-.68-.17-.68-.56Z"/><path class="cls-9" d="M123.3,37.3A.35.35,0,0,0,123,37c-.31,0-.43.27-.43.55s.12.53.43.53a.34.34,0,0,0,.36-.35h.34a.67.67,0,0,1-.7.65.84.84,0,0,1,0-1.67.65.65,0,0,1,.69.57Z"/><path class="cls-9" d="M123.89,36.77h.35v1.29H125v.3h-1.12Z"/></g><rect class="cls-44" x="123.43" y="44.23" width="2.47" height="2.91" rx="0.41"/><polygon class="cls-44" points="121.52 44.23 124.44 44.23 125.91 45.68 124.44 47.13 121.52 47.13 120.06 45.68 121.52 44.23"/><path class="cls-9" d="M122,44.8h.35l.66,1.07h0V44.8h.32v1.59H123l-.66-1.06h0v1.06H122Z"/><path class="cls-9" d="M124.66,45.34a.33.33,0,0,0-.34-.28c-.31,0-.43.27-.43.54s.12.53.43.53a.36.36,0,0,0,.36-.35H125a.67.67,0,0,1-.7.64.76.76,0,0,1-.78-.82.78.78,0,0,1,.78-.84.64.64,0,0,1,.68.58Z"/><rect class="cls-44" x="123.43" y="40.49" width="2.47" height="2.91" rx="0.41"/><polygon class="cls-44" points="121.52 40.49 124.44 40.49 125.91 41.95 124.44 43.4 121.52 43.4 120.06 41.95 121.52 40.49"/><path class="cls-9" d="M122,41.07h.35l.66,1.06h0V41.07h.32v1.58H123l-.66-1.06h0v1.06H122Z"/><path class="cls-9" d="M124.66,41.6a.33.33,0,0,0-.34-.27c-.31,0-.43.26-.43.54s.12.53.43.53.33-.14.36-.36H125a.67.67,0,0,1-.7.65.76.76,0,0,1-.78-.82.78.78,0,0,1,.78-.84.64.64,0,0,1,.68.57Z"/><rect class="cls-44" x="123.43" y="48.22" width="2.47" height="2.91" rx="0.41"/><polygon class="cls-44" points="121.52 48.22 124.44 48.22 125.91 49.68 124.44 51.13 121.52 51.13 120.06 49.68 121.52 48.22"/><path class="cls-9" d="M122,48.8h.35l.66,1.06h0V48.8h.32v1.59H123l-.66-1.07h0v1.07H122Z"/><path class="cls-9" d="M124.66,49.34a.33.33,0,0,0-.34-.28c-.31,0-.43.26-.43.54s.12.53.43.53a.36.36,0,0,0,.36-.35H125a.67.67,0,0,1-.7.64.76.76,0,0,1-.78-.82.78.78,0,0,1,.78-.84.64.64,0,0,1,.68.57Z"/><rect class="cls-44" x="123.43" y="52.19" width="2.47" height="2.91" rx="0.41"/><polygon class="cls-44" points="121.52 52.19 124.44 52.19 125.91 53.65 124.44 55.1 121.52 55.1 120.06 53.65 121.52 52.19"/><path class="cls-9" d="M122,52.77h.35l.66,1.06h0V52.77h.32v1.58H123l-.66-1.06h0v1.06H122Z"/><path class="cls-9" d="M124.66,53.3a.33.33,0,0,0-.34-.27c-.31,0-.43.26-.43.54s.12.53.43.53a.36.36,0,0,0,.36-.36H125a.67.67,0,0,1-.7.65.77.77,0,0,1-.78-.82.78.78,0,0,1,.78-.84.63.63,0,0,1,.68.57Z"/><rect class="cls-44" x="123.43" y="56.19" width="2.47" height="2.91" rx="0.41"/><polygon class="cls-44" points="121.52 56.2 124.44 56.2 125.91 57.65 124.44 59.1 121.52 59.1 120.06 57.65 121.52 56.2"/><path class="cls-9" d="M122,56.77h.35l.66,1.06h0V56.77h.32v1.59H123l-.66-1.06h0v1.06H122Z"/><path class="cls-9" d="M124.66,57.31a.33.33,0,0,0-.34-.28c-.31,0-.43.27-.43.54s.12.53.43.53a.36.36,0,0,0,.36-.35H125a.67.67,0,0,1-.7.64.76.76,0,0,1-.78-.82.78.78,0,0,1,.78-.84.64.64,0,0,1,.68.57Z"/><rect class="cls-44" x="123.43" y="60.17" width="2.47" height="2.91" rx="0.41"/><polygon class="cls-44" points="121.52 60.17 124.44 60.17 125.91 61.62 124.44 63.08 121.52 63.08 120.06 61.62 121.52 60.17"/><path class="cls-9" d="M122,60.75h.35l.66,1.06h0V60.75h.32v1.58H123l-.66-1.06h0v1.06H122Z"/><path class="cls-9" d="M124.66,61.28a.34.34,0,0,0-.34-.28c-.31,0-.43.27-.43.55s.12.53.43.53a.36.36,0,0,0,.36-.36H125a.67.67,0,0,1-.7.65.77.77,0,0,1-.78-.82.78.78,0,0,1,.78-.84.63.63,0,0,1,.68.57Z"/><rect class="cls-44" x="123.43" y="64.18" width="2.47" height="2.91" rx="0.41"/><polygon class="cls-44" points="121.52 64.18 124.44 64.18 125.91 65.63 124.44 67.08 121.52 67.08 120.06 65.63 121.52 64.18"/><path class="cls-9" d="M122,64.76h.35l.66,1.06h0V64.76h.32v1.58H123l-.66-1.06h0v1.06H122Z"/><path class="cls-9" d="M124.66,65.29a.34.34,0,0,0-.34-.28c-.31,0-.43.27-.43.55s.12.53.43.53a.36.36,0,0,0,.36-.36H125a.67.67,0,0,1-.7.65.77.77,0,0,1-.78-.82.78.78,0,0,1,.78-.84.63.63,0,0,1,.68.57Z"/><rect class="cls-44" x="123.49" y="12.24" width="2.47" height="2.91" rx="0.41"/><polygon class="cls-44" points="121.58 12.24 124.5 12.24 125.96 13.7 124.5 15.15 121.58 15.15 120.12 13.7 121.58 12.24"/><path class="cls-9" d="M122,12.82h.35l.66,1.06h0V12.82h.33v1.59H123l-.66-1.07h0v1.07H122Z"/><path class="cls-9" d="M124.72,13.36a.34.34,0,0,0-.35-.28c-.31,0-.43.26-.43.54s.12.53.43.53a.36.36,0,0,0,.37-.35h.33a.66.66,0,0,1-.69.64.76.76,0,0,1-.78-.82.78.78,0,0,1,.78-.84.65.65,0,0,1,.68.57Z"/><rect class="cls-44" x="123.49" y="8.15" width="2.47" height="2.91" rx="0.41"/><polygon class="cls-44" points="121.58 8.15 124.5 8.15 125.96 9.6 124.5 11.06 121.58 11.06 120.12 9.6 121.58 8.15"/><path class="cls-9" d="M122,8.73h.35L123,9.79h0V8.73h.33v1.58H123l-.66-1.06h0v1.06H122Z"/><path class="cls-9" d="M124.72,9.26a.36.36,0,0,0-.35-.28c-.31,0-.43.27-.43.55s.12.53.43.53a.37.37,0,0,0,.37-.36h.33a.66.66,0,0,1-.69.65.77.77,0,0,1-.78-.82.78.78,0,0,1,.78-.84.64.64,0,0,1,.68.57Z"/><rect class="cls-44" x="123.49" width="2.47" height="2.91" rx="0.41"/><polygon class="cls-44" points="121.58 0 124.5 0 125.96 1.45 124.5 2.9 121.58 2.9 120.12 1.45 121.58 0"/><path class="cls-9" d="M122,.58h.35L123,1.64h0V.58h.33V2.16H123l-.66-1.06h0V2.16H122Z"/><path class="cls-9" d="M124.72,1.11a.36.36,0,0,0-.35-.28c-.31,0-.43.27-.43.55s.12.53.43.53a.37.37,0,0,0,.37-.36h.33a.66.66,0,0,1-.69.65.77.77,0,0,1-.78-.82.78.78,0,0,1,.78-.84.64.64,0,0,1,.68.57Z"/><rect class="cls-44" x="123.49" y="16.16" width="2.47" height="2.91" rx="0.41"/><polygon class="cls-44" points="121.58 16.16 124.5 16.16 125.96 17.61 124.5 19.06 121.58 19.06 120.12 17.61 121.58 16.16"/><path class="cls-9" d="M122,16.73h.35L123,17.8h0V16.73h.33v1.59H123l-.66-1.06h0v1.06H122Z"/><path class="cls-9" d="M124.72,17.27a.35.35,0,0,0-.35-.28c-.31,0-.43.27-.43.54s.12.53.43.53a.36.36,0,0,0,.37-.35h.33a.66.66,0,0,1-.69.64.76.76,0,0,1-.78-.82.78.78,0,0,1,.78-.84.65.65,0,0,1,.68.58Z"/><rect class="cls-44" x="123.49" y="20.07" width="2.47" height="2.91" rx="0.41"/><polygon class="cls-44" points="121.58 20.07 124.5 20.07 125.96 21.52 124.5 22.98 121.58 22.98 120.12 21.52 121.58 20.07"/><path class="cls-9" d="M122,20.65h.35l.66,1.06h0V20.65h.33v1.58H123l-.66-1.06h0v1.06H122Z"/><path class="cls-9" d="M124.72,21.18a.34.34,0,0,0-.35-.27c-.31,0-.43.26-.43.54s.12.53.43.53a.37.37,0,0,0,.37-.36h.33a.66.66,0,0,1-.69.65.77.77,0,0,1-.78-.82.78.78,0,0,1,.78-.84.64.64,0,0,1,.68.57Z"/><rect class="cls-44" x="123.49" y="24.12" width="2.47" height="2.91" rx="0.41"/><polygon class="cls-44" points="121.58 24.12 124.5 24.12 125.96 25.57 124.5 27.02 121.58 27.02 120.12 25.57 121.58 24.12"/><path class="cls-9" d="M122,24.69h.35l.66,1.07h0V24.69h.33v1.59H123l-.66-1.06h0v1.06H122Z"/><path class="cls-9" d="M124.72,25.23a.35.35,0,0,0-.35-.28c-.31,0-.43.27-.43.54s.12.53.43.53a.36.36,0,0,0,.37-.35h.33a.66.66,0,0,1-.69.65.77.77,0,0,1-.78-.83.78.78,0,0,1,.78-.84.65.65,0,0,1,.68.58Z"/><rect class="cls-44" x="123.49" y="28.09" width="2.47" height="2.91" rx="0.41"/><polygon class="cls-44" points="121.58 28.09 124.5 28.09 125.96 29.54 124.5 31 121.58 31 120.12 29.54 121.58 28.09"/><path class="cls-9" d="M122,28.67h.35l.66,1.06h0V28.67h.33v1.58H123l-.66-1.06h0v1.06H122Z"/><path class="cls-9" d="M124.72,29.2a.34.34,0,0,0-.35-.27c-.31,0-.43.26-.43.54s.12.53.43.53a.37.37,0,0,0,.37-.36h.33a.66.66,0,0,1-.69.65.77.77,0,0,1-.78-.82.78.78,0,0,1,.78-.84.64.64,0,0,1,.68.57Z"/><rect class="cls-44" x="123.49" y="32.1" width="2.47" height="2.91" rx="0.41"/><polygon class="cls-44" points="121.58 32.1 124.5 32.1 125.96 33.55 124.5 35.01 121.58 35.01 120.12 33.55 121.58 32.1"/><path class="cls-9" d="M122,32.68h.35l.66,1.06h0V32.68h.33v1.58H123l-.66-1.06h0v1.06H122Z"/><path class="cls-9" d="M124.72,33.21a.34.34,0,0,0-.35-.27c-.31,0-.43.26-.43.54s.12.53.43.53a.37.37,0,0,0,.37-.36h.33a.66.66,0,0,1-.69.65.77.77,0,0,1-.78-.82.78.78,0,0,1,.78-.84.64.64,0,0,1,.68.57Z"/><rect class="cls-44" x="135.52" y="0.08" width="2.47" height="2.91" rx="0.41"/><polygon class="cls-44" points="141.36 1.54 139.9 2.99 136.98 2.99 135.52 1.54 136.98 0.08 139.9 0.08 141.36 1.54"/><path class="cls-9" d="M136.47.66h.35l.67,1.06h0V.66h.32V2.24h-.35l-.66-1.06h0V2.24h-.32Z"/><path class="cls-9" d="M139.17,1.19a.33.33,0,0,0-.34-.27c-.32,0-.43.26-.43.54s.11.53.43.53.33-.14.36-.36h.33a.66.66,0,0,1-.69.65.76.76,0,0,1-.78-.82.78.78,0,0,1,.78-.84.65.65,0,0,1,.68.57Z"/><rect class="cls-44" x="135.52" y="40.36" width="2.47" height="2.91" rx="0.41"/><polygon class="cls-44" points="141.36 41.81 139.9 43.27 136.98 43.27 135.52 41.81 136.98 40.36 139.9 40.36 141.36 41.81"/><path class="cls-9" d="M136.47,40.94h.35l.67,1.06h0V40.94h.32v1.58h-.35l-.66-1.06h0v1.06h-.32Z"/><path class="cls-9" d="M139.17,41.47a.35.35,0,0,0-.34-.28c-.32,0-.43.27-.43.55s.11.53.43.53a.36.36,0,0,0,.36-.36h.33a.66.66,0,0,1-.69.65.77.77,0,0,1-.78-.82.78.78,0,0,1,.78-.84.64.64,0,0,1,.68.57Z"/><rect class="cls-44" x="135.46" y="44.3" width="2.47" height="2.91" rx="0.41"/><polygon class="cls-44" points="141.31 45.75 139.84 47.2 136.92 47.2 135.46 45.75 136.92 44.3 139.84 44.3 141.31 45.75"/><path class="cls-9" d="M136.42,44.87h.35l.66,1.07h0V44.87h.32v1.59h-.34l-.66-1.06h0v1.06h-.33Z"/><path class="cls-9" d="M139.11,45.41a.33.33,0,0,0-.34-.28c-.32,0-.43.27-.43.54s.11.53.43.53a.36.36,0,0,0,.36-.35h.34a.67.67,0,0,1-.7.65.83.83,0,0,1,0-1.66.63.63,0,0,1,.68.57Z"/><rect class="cls-44" x="135.52" y="48.23" width="2.47" height="2.91" rx="0.41"/><polygon class="cls-44" points="141.36 49.69 139.9 51.14 136.98 51.14 135.52 49.69 136.98 48.23 139.9 48.23 141.36 49.69"/><path class="cls-9" d="M136.47,48.81h.35l.67,1.06h0V48.81h.32V50.4h-.35l-.66-1.07h0V50.4h-.32Z"/><path class="cls-9" d="M139.17,49.35a.34.34,0,0,0-.34-.28c-.32,0-.43.26-.43.54s.11.53.43.53a.36.36,0,0,0,.36-.35h.33a.66.66,0,0,1-.69.64.76.76,0,0,1-.78-.82.78.78,0,0,1,.78-.84.65.65,0,0,1,.68.57Z"/><rect class="cls-44" x="135.52" y="52.15" width="2.47" height="2.91" rx="0.41"/><polygon class="cls-44" points="141.36 53.6 139.9 55.05 136.98 55.05 135.52 53.6 136.98 52.15 139.9 52.15 141.36 53.6"/><path class="cls-9" d="M136.47,52.73h.35l.67,1.06h0V52.73h.32v1.58h-.35l-.66-1.06h0v1.06h-.32Z"/><path class="cls-9" d="M139.17,53.26a.35.35,0,0,0-.34-.28c-.32,0-.43.27-.43.55s.11.53.43.53a.36.36,0,0,0,.36-.36h.33a.66.66,0,0,1-.69.65.77.77,0,0,1-.78-.82.78.78,0,0,1,.78-.84.64.64,0,0,1,.68.57Z"/><rect class="cls-44" x="135.52" y="56.19" width="2.47" height="2.91" rx="0.41"/><polygon class="cls-44" points="141.36 57.65 139.9 59.1 136.98 59.1 135.52 57.65 136.98 56.2 139.9 56.2 141.36 57.65"/><path class="cls-9" d="M136.47,56.77h.35l.67,1.06h0V56.77h.32v1.59h-.35l-.66-1.06h0v1.06h-.32Z"/><path class="cls-9" d="M139.17,57.31a.34.34,0,0,0-.34-.28c-.32,0-.43.27-.43.54s.11.53.43.53a.36.36,0,0,0,.36-.35h.33a.66.66,0,0,1-.69.64.76.76,0,0,1-.78-.82.78.78,0,0,1,.78-.84.65.65,0,0,1,.68.57Z"/><rect class="cls-44" x="135.52" y="60.17" width="2.47" height="2.91" rx="0.41"/><polygon class="cls-44" points="141.36 61.62 139.9 63.08 136.98 63.08 135.52 61.62 136.98 60.17 139.9 60.17 141.36 61.62"/><path class="cls-9" d="M136.47,60.75h.35l.67,1.06h0V60.75h.32v1.58h-.35l-.66-1.06h0v1.06h-.32Z"/><path class="cls-9" d="M139.17,61.28a.35.35,0,0,0-.34-.28c-.32,0-.43.27-.43.55s.11.53.43.53a.36.36,0,0,0,.36-.36h.33a.66.66,0,0,1-.69.65.77.77,0,0,1-.78-.82.78.78,0,0,1,.78-.84.64.64,0,0,1,.68.57Z"/><rect class="cls-44" x="135.52" y="12.25" width="2.47" height="2.91" rx="0.41"/><polygon class="cls-44" points="141.36 13.71 139.9 15.16 136.98 15.16 135.52 13.71 136.98 12.25 139.9 12.25 141.36 13.71"/><path class="cls-9" d="M136.47,12.83h.35l.67,1.06h0V12.83h.32v1.59h-.35l-.66-1.07h0v1.07h-.32Z"/><path class="cls-9" d="M139.17,13.37a.34.34,0,0,0-.34-.28c-.32,0-.43.26-.43.54s.11.53.43.53a.36.36,0,0,0,.36-.35h.33a.66.66,0,0,1-.69.64.76.76,0,0,1-.78-.82.78.78,0,0,1,.78-.84.65.65,0,0,1,.68.57Z"/><rect class="cls-44" x="135.46" y="16.19" width="2.47" height="2.91" rx="0.41"/><polygon class="cls-44" points="141.31 17.64 139.84 19.1 136.92 19.1 135.46 17.64 136.92 16.19 139.84 16.19 141.31 17.64"/><path class="cls-9" d="M136.42,16.77h.35l.66,1.06h0V16.77h.32v1.58h-.34l-.66-1.06h0v1.06h-.33Z"/><path class="cls-9" d="M139.11,17.3a.33.33,0,0,0-.34-.27c-.32,0-.43.26-.43.54s.11.53.43.53a.36.36,0,0,0,.36-.36h.34a.67.67,0,0,1-.7.65.77.77,0,0,1-.78-.82.78.78,0,0,1,.78-.84.63.63,0,0,1,.68.57Z"/><rect class="cls-44" x="135.52" y="20.13" width="2.47" height="2.91" rx="0.41"/><polygon class="cls-44" points="141.36 21.58 139.9 23.03 136.98 23.03 135.52 21.58 136.98 20.13 139.9 20.13 141.36 21.58"/><path class="cls-9" d="M136.47,20.71h.35l.67,1.06h0V20.71h.32v1.58h-.35l-.66-1.06h0v1.06h-.32Z"/><path class="cls-9" d="M139.17,21.24a.35.35,0,0,0-.34-.28c-.32,0-.43.27-.43.54s.11.54.43.54a.36.36,0,0,0,.36-.36h.33a.66.66,0,0,1-.69.65.83.83,0,0,1,0-1.66.64.64,0,0,1,.68.57Z"/><rect class="cls-44" x="135.52" y="24.04" width="2.47" height="2.91" rx="0.41"/><polygon class="cls-44" points="141.36 25.5 139.9 26.95 136.98 26.95 135.52 25.5 136.98 24.04 139.9 24.04 141.36 25.5"/><path class="cls-9" d="M136.47,24.62h.35l.67,1.06h0V24.62h.32v1.59h-.35l-.66-1.07h0v1.07h-.32Z"/><path class="cls-9" d="M139.17,25.16a.33.33,0,0,0-.34-.28c-.32,0-.43.26-.43.54s.11.53.43.53a.36.36,0,0,0,.36-.35h.33a.66.66,0,0,1-.69.64.76.76,0,0,1-.78-.82.78.78,0,0,1,.78-.84.65.65,0,0,1,.68.57Z"/><rect class="cls-44" x="135.52" y="28.09" width="2.47" height="2.91" rx="0.41"/><polygon class="cls-44" points="141.36 29.54 139.9 30.99 136.98 30.99 135.52 29.54 136.98 28.09 139.9 28.09 141.36 29.54"/><path class="cls-9" d="M136.47,28.67h.35l.67,1.06h0V28.67h.32v1.58h-.35l-.66-1.06h0v1.06h-.32Z"/><path class="cls-9" d="M139.17,29.2a.35.35,0,0,0-.34-.28c-.32,0-.43.27-.43.54s.11.54.43.54a.36.36,0,0,0,.36-.36h.33a.66.66,0,0,1-.69.65.83.83,0,0,1,0-1.66.64.64,0,0,1,.68.57Z"/><rect class="cls-44" x="135.52" y="32.06" width="2.47" height="2.91" rx="0.41"/><polygon class="cls-44" points="141.36 33.52 139.9 34.97 136.98 34.97 135.52 33.52 136.98 32.06 139.9 32.06 141.36 33.52"/><path class="cls-9" d="M136.47,32.64h.35l.67,1.06h0V32.64h.32v1.59h-.35l-.66-1.07h0v1.07h-.32Z"/><path class="cls-9" d="M139.17,33.18a.33.33,0,0,0-.34-.28c-.32,0-.43.26-.43.54s.11.53.43.53.33-.14.36-.36h.33a.66.66,0,0,1-.69.65.76.76,0,0,1-.78-.82.78.78,0,0,1,.78-.84.65.65,0,0,1,.68.57Z"/><rect class="cls-44" x="135.52" y="64.18" width="2.47" height="2.91" rx="0.41"/><polygon class="cls-44" points="141.36 65.63 139.9 67.08 136.98 67.08 135.52 65.63 136.98 64.18 139.9 64.18 141.36 65.63"/><path class="cls-9" d="M136.47,64.76h.35l.67,1.06h0V64.76h.32v1.58h-.35l-.66-1.06h0v1.06h-.32Z"/><path class="cls-9" d="M139.17,65.29a.35.35,0,0,0-.34-.28c-.32,0-.43.27-.43.55s.11.53.43.53a.36.36,0,0,0,.36-.36h.33a.66.66,0,0,1-.69.65.77.77,0,0,1-.78-.82.78.78,0,0,1,.78-.84.64.64,0,0,1,.68.57Z"/><rect class="cls-44" x="135.52" y="68.24" width="2.47" height="2.91" rx="0.41"/><polygon class="cls-44" points="141.36 69.69 139.9 71.15 136.98 71.15 135.52 69.69 136.98 68.24 139.9 68.24 141.36 69.69"/><path class="cls-9" d="M136.47,68.82h.35l.67,1.06h0V68.82h.32V70.4h-.35l-.66-1.06h0V70.4h-.32Z"/><path class="cls-9" d="M139.17,69.35a.33.33,0,0,0-.34-.27c-.32,0-.43.26-.43.54s.11.53.43.53a.36.36,0,0,0,.36-.36h.33a.66.66,0,0,1-.69.65.77.77,0,0,1-.78-.82.78.78,0,0,1,.78-.84.64.64,0,0,1,.68.57Z"/><rect class="cls-44" x="135.52" y="72.44" width="2.47" height="2.91" rx="0.41"/><polygon class="cls-44" points="141.36 73.89 139.9 75.34 136.98 75.34 135.52 73.89 136.98 72.44 139.9 72.44 141.36 73.89"/><path class="cls-9" d="M136.47,73h.35l.67,1.07h0V73h.32V74.6h-.35l-.66-1.06h0V74.6h-.32Z"/><path class="cls-9" d="M139.17,73.55a.35.35,0,0,0-.34-.28c-.32,0-.43.27-.43.54s.11.53.43.53a.36.36,0,0,0,.36-.35h.33a.66.66,0,0,1-.69.65.83.83,0,0,1,0-1.66.64.64,0,0,1,.68.57Z"/><rect class="cls-44" x="123.43" y="68.25" width="2.47" height="2.91" rx="0.41"/><polygon class="cls-44" points="121.52 68.25 124.44 68.25 125.91 69.7 124.44 71.15 121.52 71.15 120.06 69.7 121.52 68.25"/><path class="cls-9" d="M122,68.82h.35l.66,1.07h0V68.82h.32v1.59H123l-.66-1.06h0v1.06H122Z"/><path class="cls-9" d="M124.66,69.36a.33.33,0,0,0-.34-.28c-.31,0-.43.27-.43.54s.12.53.43.53a.36.36,0,0,0,.36-.35H125a.68.68,0,0,1-.7.65.77.77,0,0,1-.78-.83.78.78,0,0,1,.78-.84.64.64,0,0,1,.68.58Z"/><path class="cls-49" d="M96.68,8.94h-.24V8.17h-.3V8c.17,0,.32-.05.35-.23h.19Z"/><path class="cls-49" d="M96.08,15.27a.42.42,0,0,1,.43-.49.38.38,0,0,1,.41.38c0,.36-.38.39-.56.64h.57V16h-.88c0-.27.17-.39.38-.53s.25-.15.25-.29A.18.18,0,0,0,96.5,15c-.14,0-.19.15-.19.28Z"/><path class="cls-49" d="M70.14,8.23c.11,0,.26,0,.26-.15a.16.16,0,0,0-.17-.16.19.19,0,0,0-.19.21h-.23a.4.4,0,0,1,.42-.41.37.37,0,0,1,.4.33.25.25,0,0,1-.17.25h0a.27.27,0,0,1,.21.27.41.41,0,0,1-.44.4.42.42,0,0,1-.45-.44H70a.21.21,0,0,0,.21.24.18.18,0,0,0,.19-.19c0-.18-.16-.18-.28-.18Z"/><path class="cls-49" d="M71,8.63a.18.18,0,0,0,.16.15c.18,0,.22-.23.23-.36h0a.32.32,0,0,1-.27.13.4.4,0,0,1-.28-.12.46.46,0,0,1-.09-.27.42.42,0,0,1,.42-.44c.36,0,.46.32.46.62s-.13.63-.47.63a.37.37,0,0,1-.39-.34Zm.37-.49a.19.19,0,1,0-.38,0,.21.21,0,0,0,.19.23C71.3,8.37,71.36,8.26,71.36,8.14Z"/><path class="cls-49" d="M70.29,15.73h-.51V15.5l.52-.69h.22v.72h.16v.2h-.16V16h-.23Zm0-.62h0l-.31.42h.32Z"/><path class="cls-49" d="M71.18,14.78c.24,0,.44.15.44.62s-.2.63-.44.63-.44-.15-.44-.63S70.94,14.78,71.18,14.78Zm0,1.05c.2,0,.2-.29.2-.43s0-.42-.2-.42-.2.3-.2.42S71,15.83,71.18,15.83Z"/></g></g></g></svg>