<svg xmlns="http://www.w3.org/2000/svg" viewBox="0 0 99.21 70.87"><defs><style>.cls-1{fill:#232323;}.cls-2{fill:#dfab52;}.cls-3{fill:#fff;}.cls-4{fill:#3b373c;}.cls-5,.cls-7,.cls-8{fill:none;stroke:#fff;stroke-miterlimit:10;}.cls-5{stroke-width:0.25px;}.cls-6{fill:#f5f6f7;}.cls-8{stroke-width:0.5px;}</style></defs><g id="Layer_2" data-name="Layer 2"><g id="RAK14002_illustrations"><g id="RAK14002_Top-View"><path class="cls-1" d="M0,0V70.87H99.21V0ZM5.27,19.28a2.21,2.21,0,1,1,2.21-2.21A2.21,2.21,0,0,1,5.27,19.28ZM19.76,68A2.22,2.22,0,1,1,22,65.76,2.21,2.21,0,0,1,19.76,68ZM36.59,7.67A2.22,2.22,0,1,1,38.8,5.45,2.21,2.21,0,0,1,36.59,7.67ZM84.5,69.35a4,4,0,1,1,4-4A4,4,0,0,1,84.5,69.35Zm.15-59.41a4,4,0,1,1,4-4A4,4,0,0,1,84.65,9.94Z"/><path class="cls-2" d="M5.27,13.26a3.81,3.81,0,1,0,3.82,3.81A3.81,3.81,0,0,0,5.27,13.26Zm0,6a2.21,2.21,0,1,1,2.21-2.21A2.21,2.21,0,0,1,5.27,19.28Z"/><path class="cls-2" d="M36.59,1.31a4.15,4.15,0,1,0,4.15,4.14A4.14,4.14,0,0,0,36.59,1.31Zm0,6.36A2.22,2.22,0,1,1,38.8,5.45,2.21,2.21,0,0,1,36.59,7.67Z"/><path class="cls-2" d="M19.64,61.82a3.82,3.82,0,1,0,3.82,3.82A3.82,3.82,0,0,0,19.64,61.82ZM19.76,68A2.22,2.22,0,1,1,22,65.76,2.21,2.21,0,0,1,19.76,68Z"/><path class="cls-2" d="M88.85,0H80.46a7.25,7.25,0,1,0,8.39,0Zm-4.2,9.94a4,4,0,1,1,4-4A4,4,0,0,1,84.65,9.94Z"/><path class="cls-2" d="M80.12,70.87h8.75a7.08,7.08,0,1,0-8.75,0Zm4.38-9.61a4,4,0,1,1-4,4.05A4,4,0,0,1,84.5,61.26Z"/><circle class="cls-3" cx="71.96" cy="7.66" r="0.34"/><circle class="cls-4" cx="17.21" cy="39.69" r="14.09"/><circle class="cls-2" cx="17.21" cy="39.69" r="11.36"/><circle class="cls-4" cx="49.64" cy="39.69" r="14.09"/><circle class="cls-2" cx="49.64" cy="39.69" r="11.36"/><circle class="cls-4" cx="82.25" cy="39.69" r="14.09"/><circle class="cls-2" cx="82.25" cy="39.69" r="11.36"/><polygon class="cls-3" points="4.2 0.76 4.2 3.2 12.54 3.2 15.88 5.33 19.39 3.29 27.48 3.29 27.48 0.76 4.2 0.76"/><circle class="cls-5" cx="19.64" cy="65.57" r="4.49"/><circle class="cls-5" cx="5.17" cy="17.07" r="4.49"/><circle class="cls-5" cx="36.59" cy="5.45" r="4.49"/><path class="cls-3" d="M78.66,70.87H79a7.78,7.78,0,1,1,10.56,0H90a8,8,0,1,0-11.3,0Z"/><path class="cls-3" d="M90.22,0h-.34A7.92,7.92,0,1,1,78.74,0H78.4A8.16,8.16,0,1,0,90.22,0Z"/><g id="Layer_2-2" data-name="Layer 2"><g id="Layer_1-2" data-name="Layer 1-2"><path class="cls-6" d="M11.73,66.87a.62.62,0,0,0-.67.54v.06a.49.49,0,0,0,0,.12.62.62,0,0,0,.6.49.61.61,0,0,0,.06-1.21m-.06.74a.11.11,0,0,1-.08,0,.15.15,0,0,1,0-.2.14.14,0,0,1,.12-.06h0a.14.14,0,0,1,.12.14.14.14,0,0,1-.14.14"/><path class="cls-6" d="M15.23,54.07l-.29-.3-1,1.08-.6.61,0,0v0l.06-.61h.56v-.31a.73.73,0,0,0-.51-1.37.75.75,0,0,0-.33.25,4.59,4.59,0,0,0-.87-.48,9.35,9.35,0,0,0-1.81-.43V52.1H7.66v.33a11.92,11.92,0,0,0-1.46.2V52.4H5V53a3.82,3.82,0,0,0-1.11.71.25.25,0,0,0-.07.2c0,.06,0,.12,0,.18H3.17v.79h.75c0,.43.09.87.13,1.3l-2-2.08-.29.29,2.35,2.46c.16,1.66.31,3.34.47,5,.08.84.15,1.68.23,2.53L2.69,66.56l.29.3,1.88-2,.27,3a.25.25,0,0,0,.25.23v1.27h1V68.1H10a1.78,1.78,0,1,0,2.34-2.27l0-.39L14,67.15l.29-.29-1.88-2c.09-1,.19-2.06.28-3.08l.42-4.45h1.3V55.46H13.9Zm-1.57-.54a.33.33,0,0,1,.33.33.37.37,0,0,1-.07.2h-.49c0-.06,0-.12,0-.18a.26.26,0,0,0-.06-.19.32.32,0,0,1,.27-.16m-5.53-1h1.8v.37H8.13Zm-2.66.29h.26v.79H5.47ZM4.35,54A3.26,3.26,0,0,1,5,53.53v.53H4.36V54m.74,7.81c-.14-1.45-.27-2.91-.41-4.36L8.07,61,5.28,63.86c-.07-.7-.13-1.39-.19-2.09M6,69H5.79v-.62H6Zm3.87-1.56v.12H5.62c-.1-1.06-.19-2.12-.29-3.18l3-3.16L11.9,65c0,.25,0,.5-.07.76h-.16a1.78,1.78,0,0,0-1.78,1.77h0m2.7,0a.92.92,0,0,1-1.84.12.49.49,0,0,1,0-.12.92.92,0,0,1,.93-.92h.09a.93.93,0,0,1,.83.92m-.4-5.7L12,64.41,8.64,61l2-2.12h.5v-.52l1.4-1.47v.53h0l-.42,4.4M10.51,58.4H8V58H10.7v.18Zm2.28-2.94h-.22v.78l-1.4,1.47v-.12H7.54v1.24H10.1L8.35,60.65l-3.73-3.9-.18-1.9h8.41c0,.2,0,.41-.06.61m.13-1.4H6.2v-.91A10.25,10.25,0,0,1,7.66,53v.4H10.4V53a8.24,8.24,0,0,1,1.63.39,3.17,3.17,0,0,1,.9.54s0,.06,0,.1m1,1.84v1h-.79c0-.26.05-.52.07-.77l.25-.26Z"/></g></g><path class="cls-3" d="M32.27,9.77l8,16.52H24.24Zm0-.9L23.61,26.68H40.94Z"/><rect class="cls-3" x="33.44" y="13.82" width="0.39" height="11.41" transform="matrix(0.49, -0.87, 0.87, 0.49, 0.08, 39.18)"/><rect class="cls-3" x="33.59" y="14.29" width="0.39" height="12.62" transform="translate(-0.79 39.85) rotate(-60.48)"/><path class="cls-3" d="M30,17.44l-.35-.18c0-.05.65-1.22,1.15-1.93s3.44-1.38,3.77-1.45l.08.39c-1.19.25-3.19.82-3.53,1.29-.49.69-1.11,1.87-1.12,1.88"/><path class="cls-3" d="M35,20.39l-.2-.34a1.49,1.49,0,0,0,.73-1.34,5.36,5.36,0,0,1,.3-1.81l.37.12a5.51,5.51,0,0,0-.28,1.66A1.87,1.87,0,0,1,35,20.39"/><path class="cls-3" d="M30.77,22.49h-.15c-.82-.11-1.86-2.68-1.87-2.71A1.79,1.79,0,0,1,29.26,18l.27.29s-.7.67-.42,1.37c.45,1.13,1.21,2.42,1.56,2.46.18,0,.29,0,.31-.06s0-.2-.16-.39a4.43,4.43,0,0,1-.84-2,3.2,3.2,0,0,1,.44-1l.33.21a3.13,3.13,0,0,0-.38.8,4.37,4.37,0,0,0,.76,1.69c.34.43.27.71.2.84a.61.61,0,0,1-.56.26"/><path class="cls-3" d="M32.31,23.28a.5.5,0,0,1-.24-.06c-.14-.07-.3-.25-.25-.69a6.68,6.68,0,0,1,1.3-2.34l.3.25a6.19,6.19,0,0,0-1.21,2.14c0,.18,0,.27,0,.29s.44-.08.73-.33a13.56,13.56,0,0,0,1.27-1.69l.33.22a14.31,14.31,0,0,1-1.34,1.77,1.69,1.69,0,0,1-.93.44"/><path class="cls-3" d="M32.19,21.86a4.24,4.24,0,0,1-1.63-.66l.21-.33c.64.39,1.34.67,1.48.58a.34.34,0,0,0,0-.28c-.07-.23-.37-.47-.82-.68a1.07,1.07,0,0,1-.65-.61A1.07,1.07,0,0,1,31,19l.34.21a.7.7,0,0,0-.17.53c0,.13.19.25.43.36a1.77,1.77,0,0,1,1,.93.71.71,0,0,1-.08.6.36.36,0,0,1-.26.18l-.13,0"/><rect class="cls-3" x="31.52" y="10.66" width="1.58" height="0.39"/><rect class="cls-3" x="31.05" y="11.63" width="2.44" height="0.39"/><rect class="cls-3" x="30.58" y="12.59" width="3.38" height="0.39"/><rect class="cls-3" x="30.12" y="13.55" width="4.32" height="0.39"/><rect class="cls-3" x="29.73" y="14.52" width="2.56" height="0.39"/><rect class="cls-3" x="29.18" y="15.48" width="1.61" height="0.39"/><rect class="cls-3" x="28.8" y="16.45" width="1.36" height="0.39"/><rect class="cls-3" x="27.77" y="18.37" width="1.28" height="0.39"/><rect class="cls-3" x="35.75" y="18.37" width="1.02" height="0.39"/><rect class="cls-3" x="27.3" y="19.34" width="1.63" height="0.39"/><rect class="cls-3" x="35.58" y="19.34" width="1.63" height="0.39"/><rect class="cls-3" x="26.92" y="20.3" width="2.36" height="0.39"/><rect class="cls-3" x="35.37" y="20.3" width="2.35" height="0.39"/><rect class="cls-3" x="26.36" y="21.27" width="3.46" height="0.39"/><rect class="cls-3" x="34.07" y="21.27" width="1.24" height="0.39"/><rect class="cls-7" x="37.07" y="21.27" width="1.05" height="0.39"/><rect class="cls-3" x="25.9" y="22.23" width="6.11" height="0.39"/><rect class="cls-3" x="33.36" y="22.23" width="3.72" height="0.39"/><rect class="cls-3" x="25.58" y="23.19" width="13.08" height="0.39"/><rect class="cls-3" x="24.96" y="24.16" width="14.63" height="0.39"/><rect class="cls-3" x="24.44" y="25.12" width="15.6" height="0.39"/><circle class="cls-8" cx="17.21" cy="39.69" r="12.25"/><circle class="cls-8" cx="49.64" cy="39.69" r="12.25"/><circle class="cls-8" cx="82.25" cy="39.69" r="12.25"/><path class="cls-3" d="M47.82,3.73a1,1,0,0,1,1.08.87.69.69,0,0,1-.47.69h0a.74.74,0,0,1,.6.79,1.09,1.09,0,0,1-1.21,1c-.63,0-1.23-.32-1.23-1a.75.75,0,0,1,.61-.79h0a.65.65,0,0,1-.48-.67A1,1,0,0,1,47.82,3.73Zm0,2.88a.53.53,0,1,0,0-1.06.52.52,0,0,0-.58.51A.55.55,0,0,0,47.82,6.61Zm0-1.51c.27,0,.48-.14.48-.42a.43.43,0,0,0-.48-.45.45.45,0,0,0-.5.45C47.32,5,47.55,5.1,47.82,5.1Z"/><path class="cls-3" d="M49.92,5.05A1.16,1.16,0,0,1,51.1,3.73a1,1,0,0,1,1.11,1c0,1-1,1.06-1.51,1.73h1.53V7H49.85c0-.75.46-1.06,1-1.45.29-.2.68-.39.68-.79a.46.46,0,0,0-.48-.5c-.39,0-.52.4-.52.75Z"/><path class="cls-3" d="M54.78,4.63a.46.46,0,0,0-.44-.4c-.47,0-.6.63-.62,1h0a.82.82,0,0,1,.73-.37,1,1,0,0,1,.75.34,1.11,1.11,0,0,1,.25.72,1.13,1.13,0,0,1-1.13,1.19c-1,0-1.25-.86-1.25-1.68s.35-1.7,1.27-1.7a1,1,0,0,1,1.06.9ZM53.78,6a.57.57,0,0,0,.53.61A.55.55,0,0,0,54.8,6c0-.3-.15-.61-.49-.61A.53.53,0,0,0,53.78,6Z"/><path class="cls-3" d="M58,7h-.66V4.94h-.82v-.5c.46,0,.88-.15,1-.64H58Z"/><path class="cls-3" d="M60.72,3.73c.65,0,1.2.41,1.2,1.68s-.55,1.7-1.2,1.7-1.18-.41-1.18-1.7S60.08,3.73,60.72,3.73Zm0,2.84c.54,0,.54-.8.54-1.16s0-1.14-.54-1.14-.52.8-.52,1.14S60.2,6.57,60.72,6.57Z"/><path class="cls-3" d="M64,3.73c.65,0,1.2.41,1.2,1.68s-.55,1.7-1.2,1.7-1.18-.41-1.18-1.7S63.31,3.73,64,3.73Zm0,2.84c.54,0,.54-.8.54-1.16s0-1.14-.54-1.14-.52.8-.52,1.14S63.43,6.57,64,6.57Z"/><path class="cls-3" d="M67.35,6.29H66v-.6L67.38,3.8H68v2h.43v.54H68V7h-.62Zm0-1.67h0l-.84,1.13h.86Z"/><path class="cls-3" d="M71.53,4.36A4,4,0,0,0,70.46,7h-.7a4.7,4.7,0,0,1,1.09-2.63H69.31V3.8h2.22Z"/><path class="cls-3" d="M49.35,54.54a2.67,2.67,0,0,1,1,.18,2.51,2.51,0,0,1,.8.52,2.28,2.28,0,0,1,.68,1.68,2.53,2.53,0,0,1-.32,1.32,2.07,2.07,0,0,1-1,.85v0a1.61,1.61,0,0,1,.58.3,1.54,1.54,0,0,1,.37.47,2.14,2.14,0,0,1,.21.6,3.51,3.51,0,0,1,.09.65c0,.14,0,.3,0,.49a6.41,6.41,0,0,0,.13,1.12,1.37,1.37,0,0,0,.21.44h-1.9a3.35,3.35,0,0,1-.2-1c0-.37-.06-.74-.1-1.08a1.73,1.73,0,0,0-.42-1,1.4,1.4,0,0,0-1-.32h-1.9v3.38h-1.9V54.54Zm-.67,3.91a1.49,1.49,0,0,0,1-.29,1.18,1.18,0,0,0,.32-.95,1.14,1.14,0,0,0-.32-.91,1.45,1.45,0,0,0-1-.28H46.59v2.43Z"/><path class="cls-3" d="M58.14,54.54l3.23,8.64h-2l-.66-1.93H55.51l-.67,1.93H52.93l3.26-8.64Zm.11,5.3-1.09-3.17h0L56,59.84Z"/><polygon class="cls-3" points="64.13 54.54 64.13 58.12 67.51 54.54 69.88 54.54 66.51 57.95 70.21 63.18 67.83 63.18 65.22 59.29 64.13 60.39 64.13 63.18 62.23 63.18 62.23 54.54 64.13 54.54"/><path class="cls-3" d="M35.32,53.46a3.89,3.89,0,0,1,1.55.26h0s.34.16.28.8a.89.89,0,0,1-.91.85h-.1l-2.06,0-.72,0c0-.34,0-.95,0-1.17a2.1,2.1,0,0,0-.09-.5,9.16,9.16,0,0,1,1.8-.31h.26"/><path class="cls-3" d="M35.65,51.24h.58c.33,0,.74.06.88.31a1,1,0,0,1,.1.77,1,1,0,0,1-.24.49l-.18.16a5.34,5.34,0,0,0-1.43-.18h-.42a10.07,10.07,0,0,0-2,.39,1.89,1.89,0,0,0-.53-.31l-.27-.09a5.59,5.59,0,0,1,1.83-1.24,5,5,0,0,1,1.72-.32"/><path class="cls-3" d="M35.28,48.78h.24c1.34.07,1.52.25,1.53.95a1.22,1.22,0,0,1-.5.85c-.14,0-.42,0-.76,0a5.57,5.57,0,0,0-1.58.2A6.06,6.06,0,0,0,32,52c-.36.33-.71.71-.84.86a1.3,1.3,0,0,0-.41.24,1.14,1.14,0,0,0-.11.11,2.15,2.15,0,0,0-.46-.33,1.74,1.74,0,0,0-.6-.13,6.8,6.8,0,0,1,1.75-2.46,6.54,6.54,0,0,1,3.94-1.5h0"/><path class="cls-3" d="M36.87,55.94a10,10,0,0,1,.31,1.8,4.23,4.23,0,0,1-.25,1.8v0h0s-.13.28-.64.28h-.16a.88.88,0,0,1-.85-.92v-.25c0-.52,0-1.6,0-1.9s0-.48,0-.73l1.15,0a1.81,1.81,0,0,0,.51-.08"/><path class="cls-3" d="M37.84,54.78a5.66,5.66,0,0,1,1.24,1.82,5,5,0,0,1,.31,2.07v.24c0,.32,0,.74-.31.87a1,1,0,0,1-.51.14l-.26,0a1,1,0,0,1-.49-.25,1.29,1.29,0,0,1-.16-.17,5.55,5.55,0,0,0,.17-1.86,10,10,0,0,0-.39-2,1.89,1.89,0,0,0,.31-.53,2,2,0,0,0,.08-.26"/><path class="cls-3" d="M37.9,52.27A6.69,6.69,0,0,1,40.36,54a6.39,6.39,0,0,1,1.5,4.17c-.07,1.34-.26,1.52-1,1.53a1.15,1.15,0,0,1-.84-.5,6.83,6.83,0,0,0-.17-2.34,6,6,0,0,0-1.24-2.21c-.34-.36-.73-.72-.86-.83a1.14,1.14,0,0,0-.24-.41l-.11-.12a1.92,1.92,0,0,0,.33-.46,1.64,1.64,0,0,0,.13-.59"/><path class="cls-3" d="M34.6,57.89c0,.35,0,1,0,1.16a1.52,1.52,0,0,0,.09.51,10.08,10.08,0,0,1-1.81.31h-.25a4.09,4.09,0,0,1-1.55-.27h0s-.33-.17-.27-.8a.87.87,0,0,1,.91-.85h.13l2,0c.21,0,.5,0,.72,0"/><path class="cls-3" d="M35.08,60.13a1.48,1.48,0,0,0,.53.31,1.14,1.14,0,0,0,.26.09,5.66,5.66,0,0,1-1.82,1.24,4.87,4.87,0,0,1-1.73.32h-.57c-.33,0-.74,0-.88-.3a1,1,0,0,1-.1-.77.89.89,0,0,1,.25-.49,1.37,1.37,0,0,1,.17-.17,5.37,5.37,0,0,0,1.44.19h.42a10,10,0,0,0,2-.39"/><path class="cls-3" d="M37.33,60.12a1.45,1.45,0,0,0,1.06.47,6.8,6.8,0,0,1-1.75,2.46,6.55,6.55,0,0,1-4,1.5h-.22c-1.35-.06-1.53-.25-1.54-.94a1.22,1.22,0,0,1,.5-.86,6.1,6.1,0,0,0,.76,0,5.24,5.24,0,0,0,1.58-.21A5.78,5.78,0,0,0,36,61.34a10.46,10.46,0,0,0,.84-.85,1.52,1.52,0,0,0,.41-.24l.12-.12"/><path class="cls-3" d="M31.7,53.49h.16a.88.88,0,0,1,.85.91v.09c0,1.13,0,1.84,0,2.07s0,.52,0,.72l-1.16,0a1.71,1.71,0,0,0-.51.09,10.08,10.08,0,0,1-.31-1.81,4.16,4.16,0,0,1,.26-1.81h0s.13-.29.64-.29"/><path class="cls-3" d="M29.4,53.42l.26,0a1,1,0,0,1,.49.25l.16.18a5.49,5.49,0,0,0-.17,1.85,10.18,10.18,0,0,0,.38,2,1.73,1.73,0,0,0-.3.53,1.14,1.14,0,0,0-.09.26,5.66,5.66,0,0,1-1.24-1.82,5,5,0,0,1-.31-2.06v-.24c0-.33.06-.75.31-.88a1.15,1.15,0,0,1,.51-.14"/><path class="cls-3" d="M27.07,53.63a1.15,1.15,0,0,1,.84.49,6.42,6.42,0,0,0,.17,2.35,5.86,5.86,0,0,0,1.24,2.2c.32.35.68.69.85.84a1.33,1.33,0,0,0,.25.41.57.57,0,0,0,.11.11,1.89,1.89,0,0,0-.34.46,1.74,1.74,0,0,0-.13.6,6.83,6.83,0,0,1-2.45-1.76,6.38,6.38,0,0,1-1.5-4.17c.07-1.35.25-1.53.94-1.53h0"/><path class="cls-3" d="M32.34,68.61h-.56l-.36-1.33h0l-.34,1.33h-.57l-.63-2h.58L30.83,68h0l.33-1.34h.53L32,68h0l.36-1.34H33Z"/><path class="cls-3" d="M35.47,68.61h-.56l-.36-1.33h0l-.34,1.33h-.57l-.63-2h.58L34,68h0l.33-1.34h.53L35.16,68h0l.36-1.34h.56Z"/><path class="cls-3" d="M38.6,68.61H38l-.36-1.33h0l-.34,1.33h-.57l-.63-2h.58L37.08,68h0l.33-1.34H38L38.29,68h0l.36-1.34h.56Z"/><path class="cls-3" d="M39.06,68h.61v.59h-.61Z"/><path class="cls-3" d="M40.12,65.52h1.65a.84.84,0,0,1,.89.84.75.75,0,0,1-.48.77h0c.33.09.42.41.44.72a1.74,1.74,0,0,0,.13.72h-.67a3.87,3.87,0,0,1-.11-.73c0-.32-.17-.46-.51-.46h-.67v1.19h-.67Zm.67,1.38h.74c.3,0,.46-.13.46-.44s-.16-.42-.46-.42h-.74Z"/><path class="cls-3" d="M44.05,65.52h.69l1.14,3h-.7L45,67.89H43.81l-.24.68h-.68ZM44,67.39h.8l-.39-1.12h0Z"/><path class="cls-3" d="M46.15,65.52h.67v1.26L48,65.52h.83l-1.19,1.2L49,68.57h-.84l-.92-1.37-.39.39v1h-.67Z"/><path class="cls-3" d="M51.93,68.57h-.62l-.4-1.48h0l-.38,1.48H49.9l-.7-2.21h.64l.41,1.5h0l.36-1.5h.59l.38,1.5h0l.41-1.5h.62Z"/><path class="cls-3" d="M53.52,66h-.61v-.5h.61Zm-.61.34h.61v2.21h-.61Z"/><path class="cls-3" d="M53.83,66.36h.57v.41h0a.78.78,0,0,1,.71-.47l.13,0v.57a.78.78,0,0,0-.22,0c-.45,0-.6.31-.6.71v1h-.6Z"/><path class="cls-3" d="M56.05,67.55c0,.39.2.56.54.56a.5.5,0,0,0,.48-.28h.54a1,1,0,0,1-1,.74,1.08,1.08,0,0,1-1.13-1.16,1.11,1.11,0,1,1,2.2.14Zm1-.38c-.06-.31-.19-.47-.49-.47a.47.47,0,0,0-.5.47Z"/><path class="cls-3" d="M58.08,65.52h.61v3h-.61Z"/><path class="cls-3" d="M59.63,67.55c0,.39.2.56.54.56a.5.5,0,0,0,.48-.28h.54a1,1,0,0,1-1,.74A1.08,1.08,0,0,1,59,67.41a1.11,1.11,0,1,1,2.2.14Zm1-.38c-.06-.31-.19-.47-.49-.47a.47.47,0,0,0-.5.47Z"/><path class="cls-3" d="M62,67.79c0,.26.23.38.47.38s.4-.07.4-.29-.26-.25-.69-.34-.7-.2-.7-.59c0-.56.48-.71,1-.71s.93.16,1,.71h-.57c0-.24-.2-.3-.42-.3s-.34,0-.34.2.35.25.69.33.7.21.7.62c0,.58-.51.77-1,.77s-1-.19-1-.78Z"/><path class="cls-3" d="M64.46,67.79c0,.26.24.38.47.38s.4-.07.4-.29-.26-.25-.69-.34-.7-.2-.7-.59c0-.56.49-.71,1-.71s.93.16,1,.71H65.3c0-.24-.2-.3-.42-.3s-.33,0-.33.2.34.25.68.33.71.21.71.62c0,.58-.51.77-1,.77s-1-.19-1-.78Z"/><path class="cls-3" d="M68.84,67.37a.36.36,0,0,0-.41-.35c-.36,0-.48.36-.48.66s.12.63.47.63a.42.42,0,0,0,.44-.41h.54a.91.91,0,0,1-1,.83,1,1,0,0,1-1-1,1,1,0,0,1,1-1.1.87.87,0,0,1,1,.77Z"/><path class="cls-3" d="M70.7,66.6a1.07,1.07,0,1,1-1,1.07A1,1,0,0,1,70.7,66.6Zm0,1.71c.38,0,.49-.32.49-.64S71.08,67,70.7,67s-.49.32-.49.65S70.32,68.31,70.7,68.31Z"/><path class="cls-3" d="M72.13,66.65h.53v.28h0a.74.74,0,0,1,.62-.33.59.59,0,0,1,.59.33.77.77,0,0,1,.62-.33.65.65,0,0,1,.74.72v1.36h-.56V67.53c0-.27,0-.49-.34-.49s-.37.26-.37.51v1.13H73.4V67.54c0-.23,0-.5-.34-.5-.11,0-.37.07-.37.46v1.18h-.56Z"/><polygon class="cls-3" points="70.66 11.59 70.66 12.58 69.73 12.58 69.73 11.59 66.98 11.59 66.98 12.58 66.06 12.58 66.06 11.59 63.59 11.59 63.59 12.58 62.61 12.58 62.61 17.77 74.06 17.77 74.06 12.58 73.19 12.58 73.19 11.59 70.66 11.59"/><path class="cls-3" d="M58.09,21.67h.49l.51,2.14h0l.56-2.14h.51l.54,2.14h0l.52-2.14h.5L61,24.47h-.5l-.56-2.14h0l-.57,2.14h-.51Z"/><path class="cls-3" d="M62,21.67h.44v.42H62Zm0,.77h.44v2H62Z"/><path class="cls-3" d="M63.27,23.82c0,.26.22.35.46.35s.47,0,.45-.27-.33-.26-.66-.34-.65-.18-.65-.59.48-.59.85-.59.79.17.84.63H64.1c0-.22-.21-.27-.41-.27s-.37,0-.37.21.33.25.66.32.65.19.65.59-.48.66-.9.66-.89-.23-.9-.7Z"/><path class="cls-3" d="M65,21.67h1.32c.54,0,.9.17.9.69a.63.63,0,0,1-.38.59.68.68,0,0,1,.51.71c0,.56-.48.81-1,.81H65Zm.62,1.13h.62c.22,0,.38-.1.38-.33s-.2-.33-.42-.33h-.58Zm0,1.19h.66c.24,0,.45-.08.45-.37s-.17-.4-.44-.4h-.67Z"/><path class="cls-3" d="M67.76,21.67h.62V24h1.36v.52h-2Z"/><path class="cls-3" d="M71.34,21.6a1.36,1.36,0,0,1,1.37,1.48,1.38,1.38,0,1,1-2.75,0A1.36,1.36,0,0,1,71.34,21.6Zm0,2.42c.55,0,.76-.47.76-.94s-.21-1-.76-1-.76.47-.76,1S70.78,24,71.34,24Z"/><path class="cls-3" d="M75,22.61a.61.61,0,0,0-.61-.49c-.55,0-.76.47-.76,1s.21.94.76.94a.64.64,0,0,0,.64-.63h.59a1.17,1.17,0,0,1-1.23,1.14A1.34,1.34,0,0,1,73,23.08a1.36,1.36,0,0,1,1.37-1.48,1.14,1.14,0,0,1,1.21,1Z"/><path class="cls-3" d="M76,21.67h.61v1.16l1.1-1.16h.77l-1.1,1.1,1.2,1.7h-.77L77,23.21l-.36.35v.91H76Z"/></g></g></g></svg>