<svg xmlns="http://www.w3.org/2000/svg" viewBox="0 0 149.81 79.19"><defs><style>.cls-1{fill:#232323;}.cls-1,.cls-2,.cls-3,.cls-4,.cls-5,.cls-7,.cls-8,.cls-9{opacity:0.4;}.cls-2{fill:#e0ac52;}.cls-14,.cls-3{fill:#fff;}.cls-4{fill:none;stroke:#fff;stroke-miterlimit:10;}.cls-6{fill:#f5f6f7;}.cls-7{fill:#4c4d4c;}.cls-8{fill:#a5a4a4;}.cls-9{fill:#d8d9d8;}.cls-10{fill:#ebf4fb;}.cls-11{fill:#333e49;}.cls-12{fill:#222630;}.cls-13{fill:#be8e3e;}.cls-15{fill:#b3b3b3;}.cls-16{fill:#7f8080;}.cls-17{fill:#333;}.cls-18{fill:#eb2627;}.cls-19{fill:#363896;}.cls-20{fill:#fed401;}.cls-21{fill:#fdd407;}.cls-22{fill:#ee3224;}</style></defs><g id="Layer_2" data-name="Layer 2"><g id="Layer_1-2" data-name="Layer 1"><g id="RAK13005_Pinout"><path class="cls-1" d="M0,4.16V75H99.21V4.16ZM91.73,21.23a2.21,2.21,0,1,1,2.21,2.21h0A2.21,2.21,0,0,1,91.73,21.23ZM77.21,69.92a2.22,2.22,0,1,1,2.24,2.24,2.22,2.22,0,0,1-2.24-2.24ZM60.41,9.61a2.21,2.21,0,1,1,2.21,2.22,2.22,2.22,0,0,1-2.21-2.22ZM10.67,69.47a4,4,0,1,1,4,4A4,4,0,0,1,10.67,69.47Zm-.16-59.41a4,4,0,1,1,4,4h0A4,4,0,0,1,10.51,10.06Z"/><path class="cls-2" d="M90.12,21.23A3.82,3.82,0,1,0,94,17.42h0a3.82,3.82,0,0,0-3.82,3.8Zm1.61,0a2.21,2.21,0,1,1,2.21,2.21h0A2.21,2.21,0,0,1,91.73,21.23Z"/><path class="cls-2" d="M58.47,9.61a4.15,4.15,0,1,0,4.16-4.14h0A4.15,4.15,0,0,0,58.47,9.61Zm1.94,0a2.21,2.21,0,1,1,2.21,2.22,2.22,2.22,0,0,1-2.21-2.22Z"/><path class="cls-2" d="M75.75,69.8A3.82,3.82,0,1,0,79.57,66h0A3.82,3.82,0,0,0,75.75,69.8Zm1.46.12a2.22,2.22,0,1,1,2.24,2.24,2.22,2.22,0,0,1-2.24-2.24Z"/><path class="cls-2" d="M7.31,10.06a7.25,7.25,0,1,0,11.44-5.9H10.36A7.25,7.25,0,0,0,7.31,10.06Zm3.2,0a4,4,0,1,1,4,4h0A4,4,0,0,1,10.51,10.06Z"/><path class="cls-2" d="M21.79,69.47A7.08,7.08,0,1,0,10.34,75h8.75A7.09,7.09,0,0,0,21.79,69.47Zm-3,0a4,4,0,1,1-4-4,4,4,0,0,1,4,4v0Z"/><path class="cls-3" d="M63.46,29.57l-16.9,8.22V21.35Zm.92,0L46.16,20.71V38.44Z"/><rect class="cls-3" x="47.64" y="30.77" width="11.67" height="0.4" transform="translate(0.18 62.25) rotate(-60.48)"/><rect class="cls-3" x="45.92" y="30.92" width="12.91" height="0.4" transform="translate(-0.51 61.36) rotate(-60.48)"/><path class="cls-3" d="M55.61,27.23l.18-.36a21,21,0,0,1,2,1.18c.77.54,1.41,3.51,1.49,3.85l-.4.08c-.26-1.21-.84-3.26-1.32-3.6-.7-.5-1.91-1.14-1.92-1.15"/><path class="cls-3" d="M52.59,32.34l.35-.18a1.47,1.47,0,0,0,1.36.75,5.57,5.57,0,0,1,1.86.25l-.13.38a5.39,5.39,0,0,0-1.69-.28,1.91,1.91,0,0,1-1.75-.95"/><path class="cls-3" d="M50.44,28v-.16c.1-.84,2.74-1.9,2.77-1.91a1.81,1.81,0,0,1,1.84.52l-.29.28s-.69-.71-1.4-.43c-1.16.46-2.48,1.24-2.52,1.59,0,.19,0,.3.06.32s.21,0,.4-.16a4.61,4.61,0,0,1,2-.87,4.09,4.09,0,0,1,1,.45l-.21.35a3.46,3.46,0,0,0-.82-.4,4.66,4.66,0,0,0-1.74.79c-.43.34-.71.27-.85.2a.61.61,0,0,1-.27-.57"/><path class="cls-3" d="M49.64,29.61a.53.53,0,0,1,.06-.24c.07-.15.26-.31.7-.26a6.9,6.9,0,0,1,2.4,1.33l-.26.31a6.19,6.19,0,0,0-2.19-1.24h-.3a1.49,1.49,0,0,0,.34.74,12,12,0,0,0,1.73,1.3l-.22.34a13.24,13.24,0,0,1-1.81-1.37,1.69,1.69,0,0,1-.45-.95"/><path class="cls-3" d="M51.09,29.48a4.54,4.54,0,0,1,.67-1.66l.34.22a3.11,3.11,0,0,0-.6,1.51.37.37,0,0,0,.29,0c.24-.07.49-.38.7-.84a1.09,1.09,0,0,1,.62-.66,1,1,0,0,1,.87.22l-.21.34a.75.75,0,0,0-.54-.17c-.14,0-.26.19-.38.43a1.75,1.75,0,0,1-.94,1.07.72.72,0,0,1-.62-.08.4.4,0,0,1-.18-.26v-.15"/><rect class="cls-3" x="62.14" y="28.81" width="0.4" height="1.62"/><rect class="cls-3" x="61.15" y="28.33" width="0.4" height="2.5"/><rect class="cls-3" x="60.17" y="27.85" width="0.4" height="3.45"/><rect class="cls-3" x="59.18" y="27.37" width="0.4" height="4.41"/><rect class="cls-3" x="58.2" y="26.97" width="0.4" height="2.62"/><rect class="cls-3" x="57.21" y="26.41" width="0.4" height="1.64"/><rect class="cls-3" x="56.23" y="26.02" width="0.4" height="1.4"/><rect class="cls-3" x="54.25" y="24.97" width="0.4" height="1.31"/><rect class="cls-3" x="54.25" y="33.13" width="0.4" height="1.05"/><rect class="cls-3" x="53.27" y="24.49" width="0.4" height="1.67"/><rect class="cls-3" x="53.27" y="32.95" width="0.4" height="1.67"/><rect class="cls-3" x="52.28" y="24.1" width="0.4" height="2.42"/><rect class="cls-3" x="52.28" y="32.74" width="0.4" height="2.4"/><rect class="cls-3" x="51.3" y="23.52" width="0.4" height="3.54"/><rect class="cls-3" x="51.3" y="31.41" width="0.4" height="1.27"/><rect class="cls-4" x="51.3" y="34.48" width="0.4" height="1.08"/><rect class="cls-3" x="50.31" y="23.05" width="0.4" height="6.25"/><rect class="cls-3" x="50.31" y="30.68" width="0.4" height="3.8"/><rect class="cls-3" x="49.33" y="22.73" width="0.4" height="13.38"/><rect class="cls-3" x="48.34" y="22.09" width="0.4" height="14.96"/><rect class="cls-3" x="47.35" y="21.57" width="0.4" height="15.95"/><g id="dispose-properly" class="cls-5"><g id="Layer_2-2" data-name="Layer 2-2"><g id="Layer_1-2-2" data-name="Layer 1-2"><path class="cls-6" d="M48.87,54.65a.6.6,0,0,0-.53-.66h-.18a.6.6,0,0,0-.48.7.61.61,0,0,0,.71.48.6.6,0,0,0,.48-.53m-.73-.06V54.5a.18.18,0,0,1,.2,0,.16.16,0,0,1,.06.12h0a.12.12,0,0,1-.12.12h0a.14.14,0,0,1-.14-.14"/><path class="cls-6" d="M61.54,58.16l.29-.29-1.06-1-.61-.58h0l.61.06v.55h.3a.72.72,0,1,0,1.36-.47v0a.81.81,0,0,0-.25-.33,3.39,3.39,0,0,0,.48-.85,8.47,8.47,0,0,0,.42-1.79h.41v-2.8h-.33A10.1,10.1,0,0,0,63,49.18h.25V48h-.57a3.5,3.5,0,0,0-.7-1.09.25.25,0,0,0-.2-.07h-.17v-.68h-.78v.74l-1.3.12,2.07-2-.29-.29-2.45,2.43-5,.46-2.51.23-2.1-2.14-.29.29,1.93,1.86-2.93.26a.25.25,0,0,0-.23.25H46.43v1h1.23v3.54a1.75,1.75,0,1,0,1.24,3.27,1.74,1.74,0,0,0,1-1h.39L48.6,56.82l.29.29,1.93-1.85,3,.27,4.4.42v1.28h1.94v-.52Zm.52-1.56a.32.32,0,0,1-.32.32.23.23,0,0,1-.19-.07v-.47h.17a.22.22,0,0,0,.19-.06.33.33,0,0,1,.15.27m1-5.47v1.79h-.37V51.09Zm-.29-2.62v.25H62V48.5Zm-1.11-1.12a4,4,0,0,1,.42.65h-.52v-.67h.1m-7.74.73,4.32-.4L54.74,51l-2.88-2.76,2.06-.19M46.75,49v-.22h.61V49Zm1.54,3.83h-.12V48.61l3.15-.29,3.12,3-3.66,3.51a2.62,2.62,0,0,1-.74-.07V54.6a1.75,1.75,0,0,0-1.74-1.76h0m0,2.67a.92.92,0,0,1-.92-.91.94.94,0,0,1,.8-.91h.12a.93.93,0,0,1,.91.92v.09a.91.91,0,0,1-.91.82m5.63-.36-2.61-.24,3.42-3.27,2.09,2v.5h.52l1.45,1.39h-.52l-4.35-.41m3.29-1.68V51h.37v2.66h-.17Zm2.91,2.25v-.21h-.78L57.89,54.1H58V50.51H56.78V53L55,51.31l3.87-3.69,1.88-.18v8.32l-.62-.06m1.4.13V49.16h.89a10.11,10.11,0,0,1,.2,1.45h-.39v2.71h.31a7.42,7.42,0,0,1-.39,1.61,3.46,3.46,0,0,1-.52.89h-.1m-1.83,1h-1V56c.26,0,.52.05.77.07l.25.24Z"/></g></g></g><circle class="cls-7" cx="21.51" cy="27" r="3.45"/><circle class="cls-7" cx="21.51" cy="46.53" r="3.45"/><circle class="cls-7" cx="7.22" cy="56.62" r="3.45"/><circle class="cls-7" cx="7.22" cy="36.92" r="3.45"/><circle class="cls-8" cx="21.51" cy="27" r="3.29"/><circle class="cls-8" cx="21.51" cy="46.53" r="3.29"/><circle class="cls-8" cx="7.22" cy="56.62" r="3.29"/><circle class="cls-8" cx="7.22" cy="36.92" r="3.29"/><circle class="cls-9" cx="21.51" cy="27" r="1.19"/><circle class="cls-9" cx="21.51" cy="46.53" r="1.19"/><circle class="cls-9" cx="7.22" cy="36.92" r="1.19"/><circle class="cls-9" cx="7.22" cy="56.62" r="1.19"/><path class="cls-10" d="M70.9,13.06h-.24a.39.39,0,0,1-.39-.4V8.46a.39.39,0,0,1,.39-.39h.24a.4.4,0,0,1,.4.38h0v4.2a.4.4,0,0,1-.4.4"/><path class="cls-10" d="M97.13,13.06h-.24a.4.4,0,0,1-.4-.4V8.46a.39.39,0,0,1,.39-.39h.25a.39.39,0,0,1,.39.37v4.22a.38.38,0,0,1-.38.4h0"/><path class="cls-11" d="M97.77,9.38V9a.39.39,0,0,0-.39-.39h-.82a.42.42,0,0,0-.35.25H71.57a.4.4,0,0,0-.37-.25h-.82A.39.39,0,0,0,70,9v.43a.39.39,0,0,0,.28.38v1.58a.4.4,0,0,0-.28.38v.43a.38.38,0,0,0,.38.4h.84a.39.39,0,0,0,.37-.27H96.21a.39.39,0,0,0,.37.27h.8a.38.38,0,0,0,.39-.39h0v-.43a.4.4,0,0,0-.24-.37V9.76A.38.38,0,0,0,97.77,9.38Z"/><path class="cls-12" d="M95.58,11.91H72.12c-.18,0-.33-.09-.33-.2V9.49c0-.11.15-.2.33-.2H95.58c.19,0,.33.09.33.2v2.22c0,.11-.14.2-.33.2"/><path class="cls-10" d="M73.29,7.16h-.45a.12.12,0,0,0-.12.12h0v.4a.11.11,0,0,0,.1.12h0V8.93h.47V7.85a.12.12,0,0,0,.12-.12h0v-.4a.13.13,0,0,0-.13-.13"/><path class="cls-13" d="M73.21,9.33H72.6a.1.1,0,0,1-.09-.1v-.3a.09.09,0,0,1,.09-.09h.61a.11.11,0,0,1,.1.09v.3a.1.1,0,0,1-.1.1"/><path class="cls-10" d="M73.29,14h-.45a.12.12,0,0,1-.12-.12h0v-.4a.11.11,0,0,1,.1-.12h0V12.27h.47v1.08a.12.12,0,0,1,.12.12h0v.4a.12.12,0,0,1-.12.12h0"/><path class="cls-13" d="M73.21,11.87H72.6a.11.11,0,0,0-.09.1v.29a.08.08,0,0,0,.08.1h.62a.09.09,0,0,0,.1-.1h0V12a.12.12,0,0,0-.1-.1"/><path class="cls-10" d="M74.4,7.16H74a.12.12,0,0,0-.12.12h0v.4a.11.11,0,0,0,.1.12h0V8.93h.47V7.85a.12.12,0,0,0,.12-.12h0v-.4a.13.13,0,0,0-.13-.13"/><path class="cls-13" d="M74.35,9.33h-.61a.1.1,0,0,1-.09-.1v-.3a.09.09,0,0,1,.09-.09h.61a.09.09,0,0,1,.09.09h0v.3a.1.1,0,0,1-.09.1"/><path class="cls-10" d="M74.4,14H74a.12.12,0,0,1-.12-.12h0v-.4a.11.11,0,0,1,.1-.12h0V12.27h.47v1.08a.12.12,0,0,1,.12.12h0v.4a.12.12,0,0,1-.12.12h0"/><path class="cls-13" d="M74.35,11.87h-.61a.11.11,0,0,0-.09.1v.29a.08.08,0,0,0,.08.1h.62a.09.09,0,0,0,.09-.09h0V12a.11.11,0,0,0-.09-.1"/><path class="cls-10" d="M75.58,7.16h-.46a.13.13,0,0,0-.12.13v.4a.12.12,0,0,0,.12.12h0V8.93h.47V7.85a.11.11,0,0,0,.11-.11h0v-.4a.12.12,0,0,0-.11-.13h0"/><path class="cls-13" d="M75.52,9.33h-.6a.09.09,0,0,1-.1-.1h0v-.3a.09.09,0,0,1,.09-.09h.61a.1.1,0,0,1,.1.08h0v.3a.09.09,0,0,1-.1.1h0"/><path class="cls-10" d="M75.58,14h-.46a.12.12,0,0,1-.12-.12h0v-.4a.12.12,0,0,1,.12-.12h0V12.27h.47v1.08a.11.11,0,0,1,.11.11h0v.4a.12.12,0,0,1-.12.12h0"/><path class="cls-13" d="M75.52,11.87h-.6a.1.1,0,0,0-.1.1h0v.29a.08.08,0,0,0,.08.1h.62a.09.09,0,0,0,.1-.08V12a.1.1,0,0,0-.1-.1h0"/><path class="cls-10" d="M76.73,7.16h-.46a.13.13,0,0,0-.12.13v.4a.12.12,0,0,0,.12.12h0V8.93h.46V7.85a.12.12,0,0,0,.12-.12h0v-.4a.12.12,0,0,0-.11-.13h0"/><path class="cls-13" d="M76.67,9.33h-.6a.09.09,0,0,1-.1-.1h0v-.3a.09.09,0,0,1,.09-.09h.61a.1.1,0,0,1,.1.08h0v.3a.09.09,0,0,1-.1.1h0"/><path class="cls-10" d="M76.73,14h-.46a.12.12,0,0,1-.12-.12h0v-.4a.12.12,0,0,1,.12-.12h0V12.27h.46v1.08a.12.12,0,0,1,.12.12h0v.4a.12.12,0,0,1-.12.12h0"/><path class="cls-13" d="M76.67,11.87h-.6a.1.1,0,0,0-.1.1h0v.29a.08.08,0,0,0,.08.1h.62a.09.09,0,0,0,.1-.08V12a.1.1,0,0,0-.1-.1h0"/><path class="cls-10" d="M77.85,7.16h-.46a.12.12,0,0,0-.12.12h0v.4a.12.12,0,0,0,.12.12h0V8.93h.46V7.85A.12.12,0,0,0,78,7.73h0v-.4a.12.12,0,0,0-.11-.13h0"/><path class="cls-13" d="M77.79,9.33h-.58a.09.09,0,0,1-.1-.1h0v-.3a.09.09,0,0,1,.09-.09h.61a.1.1,0,0,1,.1.08h0v.3a.09.09,0,0,1-.1.1h0"/><path class="cls-10" d="M77.85,14h-.46a.12.12,0,0,1-.12-.12h0v-.4a.12.12,0,0,1,.12-.12h0V12.27h.46v1.08a.12.12,0,0,1,.12.12h0v.4a.12.12,0,0,1-.12.12h0"/><path class="cls-13" d="M77.79,11.87h-.58a.1.1,0,0,0-.1.1h0v.29a.08.08,0,0,0,.08.1h.62a.09.09,0,0,0,.1-.08V12a.1.1,0,0,0-.1-.1h0"/><path class="cls-10" d="M79,7.16H78.5a.12.12,0,0,0-.12.12h0v.4a.12.12,0,0,0,.12.12h0V8.93H79V7.85a.12.12,0,0,0,.12-.12h0v-.4A.13.13,0,0,0,79,7.2"/><path class="cls-13" d="M78.9,9.33h-.6a.09.09,0,0,1-.1-.1h0v-.3a.09.09,0,0,1,.09-.09h.61a.1.1,0,0,1,.1.08h0v.3a.09.09,0,0,1-.1.1h0"/><path class="cls-10" d="M79,14H78.5a.12.12,0,0,1-.12-.12h0v-.4a.12.12,0,0,1,.12-.12h0V12.27H79v1.08a.12.12,0,0,1,.12.12h0v.4A.12.12,0,0,1,79,14h0"/><path class="cls-13" d="M78.9,11.87h-.6a.1.1,0,0,0-.1.1h0v.29a.08.08,0,0,0,.08.1h.62a.09.09,0,0,0,.1-.08V12a.1.1,0,0,0-.1-.1h0"/><path class="cls-10" d="M80.08,7.16h-.46a.13.13,0,0,0-.12.13v.4a.12.12,0,0,0,.12.12h0V8.93h.47V7.85a.11.11,0,0,0,.12-.1V7.33a.12.12,0,0,0-.11-.13h0"/><path class="cls-13" d="M80,9.33h-.6a.1.1,0,0,1-.1-.1v-.3a.11.11,0,0,1,.1-.09H80a.1.1,0,0,1,.1.08h0v.3a.09.09,0,0,1-.1.1h0"/><path class="cls-10" d="M80.08,14h-.46a.12.12,0,0,1-.12-.12h0v-.4a.12.12,0,0,1,.12-.12h0V12.27h.47v1.08a.12.12,0,0,1,.12.1v.42a.12.12,0,0,1-.12.12h0"/><path class="cls-13" d="M80,11.87h-.6a.12.12,0,0,0-.1.1v.29a.09.09,0,0,0,.1.1H80a.09.09,0,0,0,.1-.08V12a.1.1,0,0,0-.1-.1h0"/><path class="cls-10" d="M81.21,7.16h-.46a.12.12,0,0,0-.12.12h0v.4a.11.11,0,0,0,.1.12h0V8.93h.47V7.85a.12.12,0,0,0,.12-.12h0v-.4a.13.13,0,0,0-.08-.16h0"/><path class="cls-13" d="M81.16,9.33h-.6a.09.09,0,0,1-.1-.1h0v-.3a.09.09,0,0,1,.09-.09h.61a.11.11,0,0,1,.1.09v.3a.1.1,0,0,1-.1.1"/><path class="cls-10" d="M81.21,14h-.46a.12.12,0,0,1-.12-.12h0v-.4a.11.11,0,0,1,.1-.12h0V12.27h.47v1.08a.12.12,0,0,1,.12.12h0v.4a.12.12,0,0,1-.12.12h0"/><path class="cls-13" d="M81.16,11.87h-.6a.1.1,0,0,0-.1.1h0v.29a.08.08,0,0,0,.08.1h.62a.09.09,0,0,0,.1-.1h0V12a.12.12,0,0,0-.1-.1"/><path class="cls-10" d="M82.35,7.16H81.9a.13.13,0,0,0-.13.13v.4a.12.12,0,0,0,.12.12h0V8.93h.47V7.85a.11.11,0,0,0,.11-.11h0v-.4a.12.12,0,0,0-.11-.13h0"/><path class="cls-13" d="M82.3,9.33h-.61a.1.1,0,0,1-.1-.1v-.3a.11.11,0,0,1,.1-.09h.61a.09.09,0,0,1,.09.09h0v.3a.1.1,0,0,1-.09.1"/><path class="cls-10" d="M82.35,14H81.9a.12.12,0,0,1-.13-.11h0v-.4a.12.12,0,0,1,.12-.12h0V12.27h.47v1.08a.11.11,0,0,1,.11.11h0v.4a.12.12,0,0,1-.12.12h0"/><path class="cls-13" d="M82.3,11.87h-.61a.12.12,0,0,0-.1.1v.29a.09.09,0,0,0,.1.1h.61a.09.09,0,0,0,.09-.09h0V12a.11.11,0,0,0-.09-.1"/><path class="cls-10" d="M83.48,7.16H83a.12.12,0,0,0-.12.12h0v.4a.11.11,0,0,0,.1.12h0V8.93h.47V7.85a.12.12,0,0,0,.12-.12v-.4a.13.13,0,0,0-.12-.13"/><path class="cls-13" d="M83.42,9.33h-.61a.1.1,0,0,1-.09-.1v-.3a.09.09,0,0,1,.09-.09h.61a.11.11,0,0,1,.1.09v.3a.1.1,0,0,1-.1.1"/><path class="cls-10" d="M83.48,14H83a.12.12,0,0,1-.12-.12h0v-.4a.11.11,0,0,1,.1-.12h0V12.27h.47v1.08a.12.12,0,0,1,.12.12v.4a.12.12,0,0,1-.12.12"/><path class="cls-13" d="M83.42,11.87h-.61a.11.11,0,0,0-.09.1v.29a.08.08,0,0,0,.08.1h.62a.09.09,0,0,0,.1-.1h0V12a.12.12,0,0,0-.1-.1"/><path class="cls-10" d="M84.64,7.16h-.43a.12.12,0,0,0-.12.12h0v.4a.14.14,0,0,0,.07.16h0V8.93h.46V7.85a.12.12,0,0,0,.12-.12v-.4a.12.12,0,0,0-.11-.13h0"/><path class="cls-13" d="M84.58,9.33H84a.09.09,0,0,1-.1-.1h0v-.3A.09.09,0,0,1,84,8.84h.61a.1.1,0,0,1,.1.08h0v.3a.09.09,0,0,1-.1.1h0"/><path class="cls-10" d="M84.64,14h-.43a.12.12,0,0,1-.12-.12v-.4a.12.12,0,0,1,.12-.12h0V12.27h.46v1.08a.12.12,0,0,1,.12.12v.4a.12.12,0,0,1-.12.12"/><path class="cls-13" d="M84.58,11.87H84a.1.1,0,0,0-.1.1h0v.29a.08.08,0,0,0,.08.1h.62a.09.09,0,0,0,.1-.08V12a.1.1,0,0,0-.1-.1h0"/><path class="cls-10" d="M85.77,7.16h-.45a.12.12,0,0,0-.12.12h0v.4a.11.11,0,0,0,.1.12h0V8.93h.47V7.85a.12.12,0,0,0,.12-.12v-.4a.13.13,0,0,0-.13-.13h0"/><path class="cls-13" d="M85.72,9.33h-.61a.1.1,0,0,1-.09-.1v-.3a.09.09,0,0,1,.09-.09h.61a.11.11,0,0,1,.1.09v.3a.1.1,0,0,1-.1.1"/><path class="cls-10" d="M85.77,14h-.45a.12.12,0,0,1-.12-.12v-.4a.11.11,0,0,1,.1-.12h0V12.27h.47v1.08a.12.12,0,0,1,.12.12v.4a.12.12,0,0,1-.12.12h0"/><path class="cls-13" d="M85.72,11.87h-.61A.11.11,0,0,0,85,12v.29a.08.08,0,0,0,.08.1h.62a.09.09,0,0,0,.1-.1h0V12a.12.12,0,0,0-.1-.1"/><path class="cls-10" d="M87,7.16h-.46a.13.13,0,0,0-.12.13v.4a.12.12,0,0,0,.12.12V8.93H87V7.85a.11.11,0,0,0,.11-.11h0v-.4a.12.12,0,0,0-.06-.16H87"/><path class="cls-13" d="M87,9.33h-.6a.1.1,0,0,1-.1-.1v-.3a.11.11,0,0,1,.1-.09H87a.1.1,0,0,1,.1.08h0v.3a.09.09,0,0,1-.1.1h0"/><path class="cls-10" d="M87,14h-.46a.12.12,0,0,1-.12-.12v-.4a.12.12,0,0,1,.12-.12V12.27H87v1.08a.11.11,0,0,1,.11.11h0v.4A.12.12,0,0,1,87,14"/><path class="cls-13" d="M87,11.87h-.6a.12.12,0,0,0-.1.1v.29a.09.09,0,0,0,.1.1H87a.09.09,0,0,0,.1-.08V12a.1.1,0,0,0-.1-.1h0"/><path class="cls-10" d="M88.12,7.16h-.46a.13.13,0,0,0-.12.13v.4a.12.12,0,0,0,.12.12V8.93h.47V7.85a.1.1,0,0,0,.08-.12v-.4a.12.12,0,0,0-.11-.13h0"/><path class="cls-13" d="M88.06,9.33h-.6a.09.09,0,0,1-.1-.1h0v-.3a.09.09,0,0,1,.09-.09h.61a.1.1,0,0,1,.1.08h0v.3a.09.09,0,0,1-.1.1h0"/><path class="cls-10" d="M88.12,14h-.46a.12.12,0,0,1-.12-.12v-.4a.12.12,0,0,1,.12-.12V12.27h.47v1.08a.12.12,0,0,1,.08.12v.4a.12.12,0,0,1-.12.12"/><path class="cls-13" d="M88.06,11.87h-.6a.1.1,0,0,0-.1.1h0v.29a.08.08,0,0,0,.08.1h.62a.09.09,0,0,0,.1-.08V12a.1.1,0,0,0-.1-.1h0"/><path class="cls-10" d="M89.21,7.16h-.45a.13.13,0,0,0-.13.13h0v.4a.12.12,0,0,0,.12.12V8.93h.46V7.85a.11.11,0,0,0,.11-.11h0v-.4a.12.12,0,0,0-.06-.16h-.05"/><path class="cls-13" d="M89.21,9.33H88.6a.1.1,0,0,1-.1-.1v-.3a.11.11,0,0,1,.1-.09h.61a.09.09,0,0,1,.09.09h0v.3a.1.1,0,0,1-.09.1"/><path class="cls-10" d="M89.21,14h-.45a.12.12,0,0,1-.13-.11h0v-.4a.12.12,0,0,1,.12-.12V12.27h.46v1.08a.11.11,0,0,1,.11.11h0v.4a.12.12,0,0,1-.12.12"/><path class="cls-13" d="M89.21,11.87H88.6a.12.12,0,0,0-.1.1v.29a.09.09,0,0,0,.1.1h.61a.09.09,0,0,0,.09-.09h0V12a.11.11,0,0,0-.09-.1"/><path class="cls-10" d="M90.38,7.16h-.46a.13.13,0,0,0-.12.13v.4a.12.12,0,0,0,.12.12V8.93h.47V7.85a.11.11,0,0,0,.11-.11h0v-.4a.12.12,0,0,0-.06-.16h-.06"/><path class="cls-13" d="M90.32,9.33h-.6a.09.09,0,0,1-.1-.1h0v-.3a.09.09,0,0,1,.09-.09h.61a.1.1,0,0,1,.1.08h0v.3a.09.09,0,0,1-.1.1h0"/><path class="cls-10" d="M90.38,14h-.46a.12.12,0,0,1-.12-.12v-.4a.12.12,0,0,1,.12-.12V12.27h.47v1.08a.11.11,0,0,1,.11.11h0v.4a.12.12,0,0,1-.12.12"/><path class="cls-13" d="M90.32,11.87h-.6a.1.1,0,0,0-.1.1h0v.29a.08.08,0,0,0,.08.1h.62a.09.09,0,0,0,.1-.08V12a.1.1,0,0,0-.1-.1h0"/><path class="cls-10" d="M91.51,7.16h-.45a.12.12,0,0,0-.12.12h0v.4a.11.11,0,0,0,.1.12h0V8.93h.47V7.85a.12.12,0,0,0,.12-.12v-.4a.13.13,0,0,0-.08-.16h0"/><path class="cls-13" d="M91.46,9.33h-.61a.1.1,0,0,1-.09-.1v-.3a.09.09,0,0,1,.09-.09h.61a.11.11,0,0,1,.1.09v.3a.1.1,0,0,1-.1.1"/><path class="cls-10" d="M91.51,14h-.45a.12.12,0,0,1-.12-.12v-.4a.11.11,0,0,1,.1-.12h0V12.27h.47v1.08a.12.12,0,0,1,.12.12v.4a.12.12,0,0,1-.12.12h0"/><path class="cls-13" d="M91.46,11.87h-.61a.11.11,0,0,0-.09.1v.29a.08.08,0,0,0,.08.1h.62a.09.09,0,0,0,.1-.1h0V12a.12.12,0,0,0-.1-.1"/><path class="cls-10" d="M92.64,7.16h-.43a.12.12,0,0,0-.12.12h0v.4a.14.14,0,0,0,.07.16h0V8.93h.43V7.85a.12.12,0,0,0,.12-.12v-.4a.13.13,0,0,0-.08-.16h0"/><path class="cls-13" d="M92.58,9.33H92a.09.09,0,0,1-.1-.1v-.3A.09.09,0,0,1,92,8.84h.61a.1.1,0,0,1,.1.08h0v.3a.09.09,0,0,1-.1.1"/><path class="cls-10" d="M92.64,14h-.43a.12.12,0,0,1-.12-.12v-.4a.12.12,0,0,1,.12-.12h0V12.27h.43v1.08a.12.12,0,0,1,.12.12v.4a.12.12,0,0,1-.12.12"/><path class="cls-13" d="M92.58,11.87H92a.1.1,0,0,0-.1.1v.29a.08.08,0,0,0,.08.1h.62a.09.09,0,0,0,.1-.08V12a.1.1,0,0,0-.1-.1"/><path class="cls-10" d="M93.8,7.16h-.46a.14.14,0,0,0-.14.13v.44a.12.12,0,0,0,.12.12V8.93h.48V7.85a.11.11,0,0,0,.11-.11h0v-.4a.12.12,0,0,0-.06-.16H93.8"/><path class="cls-13" d="M93.74,9.33h-.6a.1.1,0,0,1-.1-.1v-.3a.11.11,0,0,1,.1-.09h.6a.1.1,0,0,1,.1.08h0v.3a.09.09,0,0,1-.1.1"/><path class="cls-10" d="M93.8,14h-.46a.12.12,0,0,1-.13-.11h0v-.4a.12.12,0,0,1,.12-.12V12.27h.48v1.08a.11.11,0,0,1,.11.11h0v.4a.12.12,0,0,1-.12.12"/><path class="cls-13" d="M93.74,11.87h-.6a.12.12,0,0,0-.1.1v.29a.09.09,0,0,0,.1.1h.6a.09.09,0,0,0,.1-.08V12a.1.1,0,0,0-.1-.1"/><path class="cls-10" d="M94.94,7.16h-.46a.12.12,0,0,0-.12.12h0v.4a.11.11,0,0,0,.1.12h0V8.93h.47V7.85a.12.12,0,0,0,.12-.12v-.4A.13.13,0,0,0,95,7.17h0"/><path class="cls-13" d="M94.88,9.33h-.6a.09.09,0,0,1-.1-.1v-.3a.09.09,0,0,1,.09-.09h.61a.11.11,0,0,1,.1.09v.3a.1.1,0,0,1-.1.1"/><path class="cls-10" d="M94.94,14h-.46a.12.12,0,0,1-.12-.12v-.4a.11.11,0,0,1,.1-.12h0V12.27h.47v1.08a.12.12,0,0,1,.12.12v.4a.12.12,0,0,1-.12.12"/><path class="cls-13" d="M94.88,11.87h-.6a.1.1,0,0,0-.1.1v.29a.08.08,0,0,0,.08.1h.62a.09.09,0,0,0,.1-.1h0V12a.12.12,0,0,0-.1-.1"/><path class="cls-13" d="M70.27,9.08c0-.13.19-.24.42-.24s.41.11.41.24-.18.24-.41.24-.42-.1-.42-.24"/><path class="cls-13" d="M70.27,12.08c0-.14.19-.25.42-.25s.41.11.41.25-.18.24-.41.24-.42-.11-.42-.24"/><path class="cls-13" d="M96.59,9.08c0-.13.19-.24.42-.24s.42.11.42.24-.19.24-.42.24-.42-.1-.42-.24"/><path class="cls-13" d="M96.59,12.08c0-.14.19-.25.42-.25s.42.11.42.25-.19.24-.42.24-.42-.11-.42-.24"/><path class="cls-14" d="M96.09,7.16h2.38a.42.42,0,0,1,.42.42h0v6a.42.42,0,0,1-.42.42H96.09a.25.25,0,0,1,0-.5h2.3V7.67h-2.3a.25.25,0,0,1,0-.5Z"/><path class="cls-14" d="M71.67,7.16H69.29a.42.42,0,0,0-.42.42h0v6a.42.42,0,0,0,.42.42h2.38a.25.25,0,0,0,0-.5h-2.3V7.67h2.3a.25.25,0,0,0,0-.5Z"/><rect class="cls-15" x="123.38" width="2.47" height="2.91" rx="0.41"/><polygon class="cls-15" points="121.47 0 124.39 0 125.85 1.45 124.39 2.9 121.47 2.9 120 1.45 121.47 0"/><path class="cls-14" d="M121.91.58h.35l.66,1.06h0V.58h.33V2.16h-.35l-.66-1.06h0V2.16h-.32Z"/><path class="cls-14" d="M124.61,1.11a.36.36,0,0,0-.35-.28c-.31,0-.43.27-.43.55s.12.53.43.53a.37.37,0,0,0,.37-.36H125a.66.66,0,0,1-.69.65.77.77,0,0,1-.78-.82.78.78,0,0,1,.78-.84.64.64,0,0,1,.68.57Z"/><rect class="cls-15" x="123.38" y="8.07" width="2.47" height="2.91" rx="0.41"/><polygon class="cls-15" points="121.47 8.07 124.39 8.07 125.85 9.53 124.39 10.98 121.47 10.98 120 9.53 121.47 8.07"/><path class="cls-14" d="M121.91,8.65h.35l.66,1.06h0V8.65h.33v1.58h-.35l-.66-1.06h0v1.06h-.32Z"/><path class="cls-14" d="M124.61,9.18a.34.34,0,0,0-.35-.27c-.31,0-.43.26-.43.54s.12.53.43.53a.37.37,0,0,0,.37-.36H125a.66.66,0,0,1-.69.65.77.77,0,0,1-.78-.82.78.78,0,0,1,.78-.84.64.64,0,0,1,.68.57Z"/><rect class="cls-15" x="135.41" y="0.08" width="2.47" height="2.91" rx="0.41"/><polygon class="cls-15" points="141.25 1.54 139.79 2.99 136.87 2.99 135.41 1.54 136.87 0.08 139.79 0.08 141.25 1.54"/><path class="cls-14" d="M136.36.66h.35l.67,1.06h0V.66h.32V2.24h-.35l-.66-1.06h0V2.24h-.32Z"/><path class="cls-14" d="M139.06,1.19a.33.33,0,0,0-.34-.27c-.32,0-.43.26-.43.54s.11.53.43.53.33-.14.36-.36h.33a.66.66,0,0,1-.69.65.76.76,0,0,1-.78-.82.78.78,0,0,1,.78-.84.65.65,0,0,1,.68.57Z"/><rect class="cls-15" x="135.42" y="8.19" width="2.47" height="2.91" rx="0.41"/><polygon class="cls-15" points="141.26 9.65 139.8 11.1 136.88 11.1 135.42 9.65 136.88 8.19 139.8 8.19 141.26 9.65"/><path class="cls-14" d="M136.38,8.77h.35l.66,1.06h0V8.77h.32v1.58h-.34l-.66-1.06h0v1.06h-.33Z"/><path class="cls-14" d="M139.07,9.3a.33.33,0,0,0-.34-.27c-.32,0-.43.26-.43.54s.11.53.43.53.33-.14.36-.36h.34a.67.67,0,0,1-.7.65.76.76,0,0,1-.78-.82.78.78,0,0,1,.78-.84.64.64,0,0,1,.68.57Z"/><rect class="cls-15" x="135.37" y="12.13" width="2.47" height="2.91" rx="0.41"/><polygon class="cls-15" points="141.21 13.58 139.75 15.04 136.82 15.04 135.36 13.58 136.82 12.13 139.75 12.13 141.21 13.58"/><path class="cls-14" d="M136.32,12.71h.35l.66,1.06h0V12.71h.32v1.58h-.34l-.66-1.06h0v1.06h-.33Z"/><path class="cls-14" d="M139,13.24a.36.36,0,0,0-.35-.28c-.31,0-.43.27-.43.55s.12.53.43.53a.36.36,0,0,0,.36-.36h.34a.67.67,0,0,1-.7.65.77.77,0,0,1-.78-.82.78.78,0,0,1,.78-.84.63.63,0,0,1,.68.57Z"/><rect class="cls-15" x="135.42" y="16.07" width="2.47" height="2.91" rx="0.41"/><polygon class="cls-15" points="141.26 17.52 139.8 18.97 136.88 18.97 135.42 17.52 136.88 16.07 139.8 16.07 141.26 17.52"/><path class="cls-14" d="M136.38,16.64h.35l.66,1.07h0V16.64h.32v1.59h-.34l-.66-1.06h0v1.06h-.33Z"/><path class="cls-14" d="M139.07,17.18a.35.35,0,0,0-.34-.28c-.32,0-.43.27-.43.54s.11.53.43.53a.36.36,0,0,0,.36-.35h.34a.67.67,0,0,1-.7.65.83.83,0,0,1,0-1.66.63.63,0,0,1,.68.57Z"/><rect class="cls-15" x="135.42" y="19.98" width="2.47" height="2.91" rx="0.41"/><polygon class="cls-15" points="141.26 21.44 139.8 22.89 136.88 22.89 135.42 21.44 136.88 19.98 139.8 19.98 141.26 21.44"/><path class="cls-14" d="M136.38,20.56h.35l.66,1.06h0V20.56h.32v1.58h-.34l-.66-1.06h0v1.06h-.33Z"/><path class="cls-14" d="M139.07,21.09a.33.33,0,0,0-.34-.27c-.32,0-.43.26-.43.54s.11.53.43.53.33-.14.36-.36h.34a.67.67,0,0,1-.7.65.76.76,0,0,1-.78-.82.78.78,0,0,1,.78-.84.64.64,0,0,1,.68.57Z"/><rect class="cls-15" x="135.42" y="24.03" width="2.47" height="2.91" rx="0.41"/><polygon class="cls-15" points="141.26 25.48 139.8 26.93 136.88 26.93 135.42 25.48 136.88 24.03 139.8 24.03 141.26 25.48"/><path class="cls-14" d="M136.38,24.6h.35l.66,1.07h0V24.6h.32v1.59h-.34l-.66-1.06h0v1.06h-.33Z"/><path class="cls-14" d="M139.07,25.14a.35.35,0,0,0-.34-.28c-.32,0-.43.27-.43.54s.11.53.43.53a.36.36,0,0,0,.36-.35h.34a.67.67,0,0,1-.7.65.83.83,0,0,1,0-1.66.63.63,0,0,1,.68.57Z"/><rect class="cls-15" x="135.42" y="28" width="2.47" height="2.91" rx="0.41"/><polygon class="cls-15" points="141.26 29.46 139.8 30.91 136.88 30.91 135.42 29.46 136.88 28 139.8 28 141.26 29.46"/><path class="cls-14" d="M136.38,28.58h.35l.66,1.06h0V28.58h.32v1.58h-.34l-.66-1.06h0v1.06h-.33Z"/><path class="cls-14" d="M139.07,29.11a.33.33,0,0,0-.34-.27c-.32,0-.43.26-.43.54s.11.53.43.53.33-.14.36-.36h.34a.67.67,0,0,1-.7.65.76.76,0,0,1-.78-.82.78.78,0,0,1,.78-.84.64.64,0,0,1,.68.57Z"/><rect class="cls-15" x="135.42" y="32.01" width="2.47" height="2.91" rx="0.41"/><polygon class="cls-15" points="141.26 33.47 139.8 34.92 136.88 34.92 135.42 33.47 136.88 32.01 139.8 32.01 141.26 33.47"/><path class="cls-14" d="M136.38,32.59h.35l.66,1.06h0V32.59h.32v1.58h-.34l-.66-1.06h0v1.06h-.33Z"/><path class="cls-14" d="M139.07,33.12a.33.33,0,0,0-.34-.27c-.32,0-.43.26-.43.54s.11.53.43.53.33-.14.36-.36h.34a.67.67,0,0,1-.7.65.76.76,0,0,1-.78-.82.78.78,0,0,1,.78-.84.64.64,0,0,1,.68.57Z"/><rect class="cls-15" x="135.42" y="36.14" width="2.47" height="2.91" rx="0.41"/><polygon class="cls-15" points="141.26 37.6 139.8 39.05 136.88 39.05 135.42 37.6 136.88 36.14 139.8 36.14 141.26 37.6"/><path class="cls-14" d="M136.38,36.72h.35l.66,1.06h0V36.72h.32V38.3h-.34l-.66-1.06h0V38.3h-.33Z"/><path class="cls-14" d="M139.07,37.25a.33.33,0,0,0-.34-.27c-.32,0-.43.26-.43.54s.11.53.43.53.33-.14.36-.36h.34a.67.67,0,0,1-.7.65.76.76,0,0,1-.78-.82.78.78,0,0,1,.78-.84.64.64,0,0,1,.68.57Z"/><rect class="cls-15" x="135.45" y="40.27" width="2.47" height="2.91" rx="0.41"/><polygon class="cls-15" points="141.29 41.73 139.83 43.18 136.91 43.18 135.45 41.73 136.91 40.27 139.83 40.27 141.29 41.73"/><path class="cls-14" d="M136.4,40.85h.36l.66,1.06h0V40.85h.32v1.58h-.35l-.66-1.06h0v1.06h-.32Z"/><path class="cls-14" d="M139.1,41.38a.33.33,0,0,0-.34-.27c-.32,0-.43.26-.43.54s.11.53.43.53.33-.14.36-.36h.34a.67.67,0,0,1-.7.65.76.76,0,0,1-.78-.82.78.78,0,0,1,.78-.84.65.65,0,0,1,.68.57Z"/><rect class="cls-15" x="135.45" y="44.21" width="2.47" height="2.91" rx="0.41"/><polygon class="cls-15" points="141.29 45.66 139.83 47.12 136.91 47.12 135.45 45.66 136.91 44.21 139.83 44.21 141.29 45.66"/><path class="cls-14" d="M136.4,44.79h.36l.66,1.06h0V44.79h.32v1.58h-.35l-.66-1.06h0v1.06h-.32Z"/><path class="cls-14" d="M139.1,45.32a.35.35,0,0,0-.34-.28c-.32,0-.43.27-.43.55s.11.53.43.53a.36.36,0,0,0,.36-.36h.34a.67.67,0,0,1-.7.65.77.77,0,0,1-.78-.82.78.78,0,0,1,.78-.84.64.64,0,0,1,.68.57Z"/><rect class="cls-15" x="135.45" y="48.13" width="2.47" height="2.91" rx="0.41"/><polygon class="cls-15" points="141.29 49.58 139.83 51.03 136.91 51.03 135.45 49.58 136.91 48.13 139.83 48.13 141.29 49.58"/><path class="cls-14" d="M136.4,48.7h.36l.66,1.07h0V48.7h.32v1.59h-.35l-.66-1.06h0v1.06h-.32Z"/><path class="cls-14" d="M139.1,49.24a.34.34,0,0,0-.34-.28c-.32,0-.43.27-.43.54s.11.53.43.53a.36.36,0,0,0,.36-.35h.34a.68.68,0,0,1-.7.65.77.77,0,0,1-.78-.83.78.78,0,0,1,.78-.84.65.65,0,0,1,.68.58Z"/><rect class="cls-15" x="135.45" y="52.17" width="2.47" height="2.91" rx="0.41"/><polygon class="cls-15" points="141.29 53.62 139.83 55.08 136.91 55.08 135.45 53.62 136.91 52.17 139.83 52.17 141.29 53.62"/><path class="cls-14" d="M136.4,52.75h.36l.66,1.06h0V52.75h.32v1.58h-.35l-.66-1.06h0v1.06h-.32Z"/><path class="cls-14" d="M139.1,53.28a.35.35,0,0,0-.34-.28c-.32,0-.43.27-.43.55s.11.53.43.53a.36.36,0,0,0,.36-.36h.34a.67.67,0,0,1-.7.65.77.77,0,0,1-.78-.82.78.78,0,0,1,.78-.84.64.64,0,0,1,.68.57Z"/><rect class="cls-15" x="135.45" y="56.15" width="2.47" height="2.91" rx="0.41"/><polygon class="cls-15" points="141.29 57.6 139.83 59.05 136.91 59.05 135.45 57.6 136.91 56.15 139.83 56.15 141.29 57.6"/><path class="cls-14" d="M136.4,56.72h.36l.66,1.07h0V56.72h.32v1.59h-.35l-.66-1.06h0v1.06h-.32Z"/><path class="cls-14" d="M139.1,57.26a.34.34,0,0,0-.34-.28c-.32,0-.43.27-.43.54s.11.53.43.53a.36.36,0,0,0,.36-.35h.34a.67.67,0,0,1-.7.64.76.76,0,0,1-.78-.82.78.78,0,0,1,.78-.84.65.65,0,0,1,.68.58Z"/><rect class="cls-15" x="135.45" y="60.16" width="2.47" height="2.91" rx="0.41"/><polygon class="cls-15" points="141.29 61.61 139.83 63.06 136.91 63.06 135.45 61.61 136.91 60.16 139.83 60.16 141.29 61.61"/><path class="cls-14" d="M136.4,60.73h.36l.66,1.07h0V60.73h.32v1.59h-.35l-.66-1.06h0v1.06h-.32Z"/><path class="cls-14" d="M139.1,61.27a.34.34,0,0,0-.34-.28c-.32,0-.43.27-.43.54s.11.53.43.53a.36.36,0,0,0,.36-.35h.34a.68.68,0,0,1-.7.65.77.77,0,0,1-.78-.83.78.78,0,0,1,.78-.84.65.65,0,0,1,.68.58Z"/><rect class="cls-15" x="123.32" y="16.25" width="2.47" height="2.91" rx="0.41"/><polygon class="cls-15" points="121.41 16.25 124.33 16.25 125.8 17.7 124.33 19.16 121.41 19.16 119.95 17.7 121.41 16.25"/><path class="cls-14" d="M121.86,16.83h.35l.66,1.06h0V16.83h.32v1.58h-.34l-.66-1.06h0v1.06h-.33Z"/><path class="cls-14" d="M124.55,17.36a.33.33,0,0,0-.34-.27c-.31,0-.43.26-.43.54s.12.53.43.53a.36.36,0,0,0,.36-.36h.34a.67.67,0,0,1-.7.65.77.77,0,0,1-.78-.82.78.78,0,0,1,.78-.84.63.63,0,0,1,.68.57Z"/><rect class="cls-15" x="123.32" y="12.1" width="2.47" height="2.91" rx="0.41"/><polygon class="cls-15" points="121.41 12.11 124.33 12.11 125.8 13.56 124.33 15.01 121.41 15.01 119.95 13.56 121.41 12.11"/><path class="cls-14" d="M121.86,12.68h.35l.66,1.07h0V12.68h.32v1.59h-.34l-.66-1.06h0v1.06h-.33Z"/><path class="cls-14" d="M124.55,13.22a.33.33,0,0,0-.34-.28c-.31,0-.43.27-.43.54s.12.53.43.53a.36.36,0,0,0,.36-.35h.34a.67.67,0,0,1-.7.64.76.76,0,0,1-.78-.82.78.78,0,0,1,.78-.84.64.64,0,0,1,.68.57Z"/><rect class="cls-15" x="123.32" y="20.25" width="2.47" height="2.91" rx="0.41"/><polygon class="cls-15" points="121.41 20.25 124.33 20.25 125.8 21.7 124.33 23.16 121.41 23.16 119.95 21.7 121.41 20.25"/><path class="cls-14" d="M121.86,20.83h.35l.66,1.06h0V20.83h.32v1.58h-.34l-.66-1.06h0v1.06h-.33Z"/><path class="cls-14" d="M124.55,21.36a.34.34,0,0,0-.34-.28c-.31,0-.43.27-.43.55s.12.53.43.53a.36.36,0,0,0,.36-.36h.34a.67.67,0,0,1-.7.65.77.77,0,0,1-.78-.82.78.78,0,0,1,.78-.84.63.63,0,0,1,.68.57Z"/><rect class="cls-15" x="123.32" y="24.22" width="2.47" height="2.91" rx="0.41"/><polygon class="cls-15" points="121.41 24.22 124.33 24.22 125.8 25.67 124.33 27.12 121.41 27.12 119.95 25.67 121.41 24.22"/><path class="cls-14" d="M121.86,24.79h.35l.66,1.07h0V24.79h.32v1.59h-.34l-.66-1.06h0v1.06h-.33Z"/><path class="cls-14" d="M124.55,25.33a.33.33,0,0,0-.34-.28c-.31,0-.43.27-.43.54s.12.53.43.53a.36.36,0,0,0,.36-.35h.34a.67.67,0,0,1-.7.65.83.83,0,0,1,0-1.66.63.63,0,0,1,.68.57Z"/><rect class="cls-15" x="123.32" y="28.22" width="2.47" height="2.91" rx="0.41"/><polygon class="cls-15" points="121.41 28.22 124.33 28.22 125.8 29.68 124.33 31.13 121.41 31.13 119.95 29.68 121.41 28.22"/><path class="cls-14" d="M121.86,28.8h.35l.66,1.06h0V28.8h.32v1.58h-.34l-.66-1.06h0v1.06h-.33Z"/><path class="cls-14" d="M124.55,29.33a.33.33,0,0,0-.34-.27c-.31,0-.43.26-.43.54s.12.53.43.53a.36.36,0,0,0,.36-.36h.34a.67.67,0,0,1-.7.65.77.77,0,0,1-.78-.82.78.78,0,0,1,.78-.84.63.63,0,0,1,.68.57Z"/><rect class="cls-15" x="123.32" y="32.2" width="2.47" height="2.91" rx="0.41"/><polygon class="cls-15" points="121.41 32.2 124.33 32.2 125.8 33.65 124.33 35.1 121.41 35.1 119.95 33.65 121.41 32.2"/><path class="cls-14" d="M121.86,32.77h.35l.66,1.07h0V32.77h.32v1.59h-.34l-.66-1.06h0v1.06h-.33Z"/><path class="cls-14" d="M124.55,33.31a.33.33,0,0,0-.34-.28c-.31,0-.43.27-.43.54s.12.53.43.53a.36.36,0,0,0,.36-.35h.34a.68.68,0,0,1-.7.65.83.83,0,0,1,0-1.66.63.63,0,0,1,.68.57Z"/><rect class="cls-15" x="123.32" y="36.21" width="2.47" height="2.91" rx="0.41"/><polygon class="cls-15" points="121.41 36.21 124.33 36.21 125.8 37.66 124.33 39.11 121.41 39.11 119.95 37.66 121.41 36.21"/><path class="cls-14" d="M121.86,36.78h.35l.66,1.07h0V36.78h.32v1.59h-.34l-.66-1.06h0v1.06h-.33Z"/><path class="cls-14" d="M124.55,37.32a.33.33,0,0,0-.34-.28c-.31,0-.43.27-.43.54s.12.53.43.53a.36.36,0,0,0,.36-.35h.34a.68.68,0,0,1-.7.65.83.83,0,0,1,0-1.66.63.63,0,0,1,.68.57Z"/><rect class="cls-15" x="123.32" y="40.27" width="2.47" height="2.91" rx="0.41"/><polygon class="cls-15" points="121.41 40.27 124.33 40.27 125.8 41.73 124.33 43.18 121.41 43.18 119.95 41.73 121.41 40.27"/><path class="cls-14" d="M121.86,40.85h.35l.66,1.06h0V40.85h.32v1.58h-.34l-.66-1.06h0v1.06h-.33Z"/><path class="cls-14" d="M124.55,41.38a.33.33,0,0,0-.34-.27c-.31,0-.43.26-.43.54s.12.53.43.53a.36.36,0,0,0,.36-.36h.34a.67.67,0,0,1-.7.65.77.77,0,0,1-.78-.82.78.78,0,0,1,.78-.84.64.64,0,0,1,.68.57Z"/><rect class="cls-15" x="123.38" y="44.08" width="2.47" height="2.91" rx="0.41"/><polygon class="cls-15" points="121.47 44.08 124.39 44.08 125.86 45.54 124.39 46.99 121.47 46.99 120.01 45.54 121.47 44.08"/><path class="cls-14" d="M121.92,44.66h.35l.66,1.06h0V44.66h.32v1.58h-.34l-.66-1.06h0v1.06h-.33Z"/><path class="cls-14" d="M124.61,45.19a.33.33,0,0,0-.34-.27c-.31,0-.43.26-.43.54s.12.53.43.53a.36.36,0,0,0,.36-.36H125a.67.67,0,0,1-.7.65.76.76,0,0,1-.78-.82.78.78,0,0,1,.78-.84.64.64,0,0,1,.68.57Z"/><rect class="cls-15" x="123.38" y="48.09" width="2.47" height="2.91" rx="0.41"/><polygon class="cls-15" points="121.47 48.09 124.39 48.09 125.86 49.54 124.39 50.99 121.47 50.99 120.01 49.54 121.47 48.09"/><path class="cls-14" d="M121.92,48.66h.35l.66,1.07h0V48.66h.32v1.59h-.34l-.66-1.06h0v1.06h-.33Z"/><path class="cls-14" d="M124.61,49.2a.33.33,0,0,0-.34-.28c-.31,0-.43.27-.43.54s.12.53.43.53a.36.36,0,0,0,.36-.35H125a.68.68,0,0,1-.7.65.77.77,0,0,1-.78-.83.78.78,0,0,1,.78-.84.64.64,0,0,1,.68.58Z"/><rect class="cls-15" x="123.38" y="52.06" width="2.47" height="2.91" rx="0.41"/><polygon class="cls-15" points="121.47 52.06 124.39 52.06 125.86 53.52 124.39 54.97 121.47 54.97 120.01 53.52 121.47 52.06"/><path class="cls-14" d="M121.92,52.64h.35l.66,1.06h0V52.64h.32v1.58h-.34l-.66-1.06h0v1.06h-.33Z"/><path class="cls-14" d="M124.61,53.17a.33.33,0,0,0-.34-.27c-.31,0-.43.26-.43.54s.12.53.43.53a.36.36,0,0,0,.36-.36H125a.67.67,0,0,1-.7.65.77.77,0,0,1-.78-.82.78.78,0,0,1,.78-.84.63.63,0,0,1,.68.57Z"/><rect class="cls-15" x="123.38" y="56.07" width="2.47" height="2.91" rx="0.41"/><polygon class="cls-15" points="121.47 56.07 124.39 56.07 125.86 57.52 124.39 58.98 121.47 58.98 120.01 57.52 121.47 56.07"/><path class="cls-14" d="M121.92,56.65h.35l.66,1.06h0V56.65h.32v1.58h-.34l-.66-1.06h0v1.06h-.33Z"/><path class="cls-14" d="M124.61,57.18a.33.33,0,0,0-.34-.27c-.31,0-.43.26-.43.54s.12.53.43.53a.36.36,0,0,0,.36-.36H125a.67.67,0,0,1-.7.65.77.77,0,0,1-.78-.82.78.78,0,0,1,.78-.84.63.63,0,0,1,.68.57Z"/><rect class="cls-15" x="123.38" y="60.14" width="2.47" height="2.91" rx="0.41"/><polygon class="cls-15" points="121.47 60.14 124.39 60.14 125.86 61.59 124.39 63.04 121.47 63.04 120.01 61.59 121.47 60.14"/><path class="cls-14" d="M121.92,60.71h.35l.66,1.07h0V60.71h.32V62.3h-.34l-.66-1.06h0V62.3h-.33Z"/><path class="cls-14" d="M124.61,61.25a.33.33,0,0,0-.34-.28c-.31,0-.43.27-.43.54s.12.53.43.53a.36.36,0,0,0,.36-.35H125a.67.67,0,0,1-.7.65.83.83,0,0,1,0-1.66.63.63,0,0,1,.68.57Z"/><rect class="cls-15" x="135.45" y="68.17" width="2.47" height="2.91" rx="0.41"/><polygon class="cls-15" points="141.29 69.62 139.83 71.07 136.91 71.07 135.45 69.62 136.91 68.17 139.83 68.17 141.29 69.62"/><path class="cls-14" d="M136.4,68.74h.36l.66,1.07h0V68.74h.32v1.59h-.35l-.66-1.06h0v1.06h-.32Z"/><path class="cls-14" d="M139.1,69.28a.34.34,0,0,0-.34-.28c-.32,0-.43.27-.43.54s.11.53.43.53a.36.36,0,0,0,.36-.35h.34a.67.67,0,0,1-.7.64.76.76,0,0,1-.78-.82.78.78,0,0,1,.78-.84.65.65,0,0,1,.68.57Z"/><rect class="cls-15" x="123.38" y="68.15" width="2.47" height="2.91" rx="0.41"/><polygon class="cls-15" points="121.47 68.15 124.39 68.15 125.86 69.6 124.39 71.05 121.47 71.05 120.01 69.6 121.47 68.15"/><path class="cls-14" d="M121.92,68.72h.35l.66,1.07h0V68.72h.32v1.59h-.34l-.66-1.06h0v1.06h-.33Z"/><path class="cls-14" d="M124.61,69.26a.33.33,0,0,0-.34-.28c-.31,0-.43.27-.43.54s.12.53.43.53a.36.36,0,0,0,.36-.35H125a.67.67,0,0,1-.7.65.83.83,0,0,1,0-1.66.63.63,0,0,1,.68.57Z"/><rect class="cls-16" x="131.16" width="4.25" height="79.19"/><rect class="cls-16" x="125.85" width="4.25" height="79.19"/><rect class="cls-17" x="123.38" y="4.03" width="2.47" height="2.9" rx="0.41"/><rect class="cls-15" x="126.39" width="3.71" height="2.9" rx="0.35"/><rect class="cls-17" x="126.39" y="3.97" width="3.71" height="2.9" rx="0.35"/><rect class="cls-15" x="126.39" y="8.07" width="3.71" height="2.9" rx="0.35"/><rect class="cls-15" x="126.39" y="12.16" width="3.71" height="2.9" rx="0.35"/><rect class="cls-15" x="126.39" y="16.07" width="3.71" height="2.9" rx="0.35"/><rect class="cls-15" x="126.39" y="19.99" width="3.71" height="2.9" rx="0.35"/><rect class="cls-15" x="126.39" y="24.03" width="3.71" height="2.9" rx="0.35"/><rect class="cls-15" x="126.39" y="28.01" width="3.71" height="2.9" rx="0.35"/><rect class="cls-15" x="126.39" y="32.02" width="3.71" height="2.9" rx="0.35"/><rect class="cls-15" x="126.39" y="36.08" width="3.71" height="2.9" rx="0.35"/><rect class="cls-15" x="126.39" y="40.27" width="3.71" height="2.9" rx="0.35"/><rect class="cls-15" x="126.39" y="44.21" width="3.71" height="2.9" rx="0.35"/><rect class="cls-15" x="131.16" width="3.71" height="2.9" rx="0.35"/><rect class="cls-17" x="131.16" y="3.97" width="3.71" height="2.9" rx="0.35"/><rect class="cls-18" x="131.16" y="8.07" width="3.71" height="2.9" rx="0.35"/><rect class="cls-15" x="131.16" y="12.16" width="3.71" height="2.9" rx="0.35"/><rect class="cls-15" x="131.16" y="16.07" width="3.71" height="2.9" rx="0.35"/><rect class="cls-15" x="131.16" y="19.99" width="3.71" height="2.9" rx="0.35"/><rect class="cls-15" x="131.16" y="24.03" width="3.71" height="2.9" rx="0.35"/><rect class="cls-15" x="131.16" y="28.01" width="3.71" height="2.9" rx="0.35"/><rect class="cls-15" x="131.16" y="32.02" width="3.71" height="2.9" rx="0.35"/><rect class="cls-15" x="131.16" y="36.08" width="3.71" height="2.9" rx="0.35"/><rect class="cls-15" x="131.16" y="40.27" width="3.71" height="2.9" rx="0.35"/><rect class="cls-15" x="131.16" y="44.21" width="3.71" height="2.9" rx="0.35"/><rect class="cls-15" x="131.16" y="48.15" width="3.71" height="2.9" rx="0.35"/><rect class="cls-15" x="131.16" y="52.07" width="3.71" height="2.9" rx="0.35"/><rect class="cls-15" x="131.16" y="56.11" width="3.71" height="2.9" rx="0.35"/><rect class="cls-15" x="131.16" y="60.09" width="3.71" height="2.9" rx="0.35"/><rect class="cls-19" x="131.16" y="64.1" width="3.71" height="2.9" rx="0.35"/><rect class="cls-15" x="131.16" y="68.16" width="3.71" height="2.9" rx="0.35"/><rect class="cls-20" x="131.16" y="72.35" width="3.71" height="2.9" rx="0.35"/><path class="cls-14" d="M131.72,49.45a.62.62,0,0,1,.63-.71.56.56,0,0,1,.6.54c0,.53-.56.57-.81.93H133v.31h-1.28c0-.41.25-.58.55-.78s.37-.21.37-.43a.25.25,0,0,0-.23-.27h0c-.2,0-.27.22-.27.4Z"/><path class="cls-14" d="M134.26,49.06h-.72l-.07.4h0a.41.41,0,0,1,.34-.14.54.54,0,0,1,.54.59.64.64,0,0,1-.63.64h0a.59.59,0,0,1-.65-.56h.35a.28.28,0,0,0,.29.26.31.31,0,0,0,.3-.32h0a.31.31,0,0,0-.27-.33h0a.29.29,0,0,0-.27.14h-.32l.17-1h1Z"/><path class="cls-14" d="M131.72,53.29a.61.61,0,0,1,.63-.7.55.55,0,0,1,.6.54c0,.52-.56.57-.81.93H133v.3h-1.28c0-.41.25-.57.55-.78s.37-.21.37-.43a.26.26,0,0,0-.23-.27h0c-.2,0-.27.22-.27.4Z"/><path class="cls-14" d="M134.3,52.92a2.15,2.15,0,0,0-.57,1.45h-.38a2.57,2.57,0,0,1,.59-1.42h-.83v-.33h1.19Z"/><path class="cls-14" d="M132.2,65.42c.15,0,.37,0,.37-.22a.24.24,0,0,0-.23-.23h0a.27.27,0,0,0-.27.31h-.34a.58.58,0,0,1,.61-.6.54.54,0,0,1,.58.48.36.36,0,0,1-.24.37h0a.39.39,0,0,1,.31.39.65.65,0,0,1-1.3-.06H132c0,.19.1.35.3.35a.28.28,0,0,0,.29-.26h0c0-.27-.23-.26-.41-.26Z"/><path class="cls-14" d="M133.58,65.42c.15,0,.37,0,.37-.22a.23.23,0,0,0-.23-.23h0a.27.27,0,0,0-.27.31h-.33a.57.57,0,0,1,.6-.6.53.53,0,0,1,.58.48.34.34,0,0,1-.24.37h0a.37.37,0,0,1,.31.39.59.59,0,0,1-.65.57.58.58,0,0,1-.64-.63h.33c0,.19.1.35.31.35A.28.28,0,0,0,134,66h0c0-.27-.23-.26-.4-.26Z"/><path class="cls-14" d="M132.2,69.49c.15,0,.37,0,.37-.21a.23.23,0,0,0-.23-.23h0c-.18,0-.27.13-.27.31h-.34a.59.59,0,0,1,.61-.61.54.54,0,0,1,.58.49.36.36,0,0,1-.24.36h0A.4.4,0,0,1,133,70a.65.65,0,0,1-1.3,0H132a.31.31,0,0,0,.3.34.28.28,0,0,0,.29-.26h0c0-.27-.23-.26-.41-.26Z"/><path class="cls-14" d="M134.26,69.08h-.72l-.07.4h0a.43.43,0,0,1,.34-.13.54.54,0,0,1,.54.59.63.63,0,0,1-.63.63h0a.59.59,0,0,1-.65-.56h.35a.29.29,0,0,0,.29.27A.32.32,0,0,0,134,70h0a.32.32,0,0,0-.27-.33h0a.29.29,0,0,0-.27.14h-.32l.17-1h1Z"/><path class="cls-14" d="M131.72,57.4a.62.62,0,0,1,.63-.7.55.55,0,0,1,.6.54c0,.53-.56.57-.81.93H133v.3h-1.28c0-.4.25-.57.55-.77s.37-.22.37-.43a.26.26,0,0,0-.23-.27h0c-.2,0-.27.22-.27.4Z"/><path class="cls-14" d="M133.43,58a.26.26,0,0,0,.23.22c.26,0,.33-.34.34-.53h0a.43.43,0,0,1-.39.2.56.56,0,0,1-.4-.19.57.57,0,0,1-.14-.38.61.61,0,0,1,.61-.64c.53,0,.67.46.67.9s-.19.91-.68.91a.53.53,0,0,1-.57-.48Zm.54-.72a.31.31,0,0,0-.28-.32h0a.3.3,0,0,0-.27.32.3.3,0,0,0,.27.33c.19,0,.28-.15.28-.33Z"/><path class="cls-14" d="M132.2,61.48c.15,0,.37,0,.37-.22a.23.23,0,0,0-.23-.23h0c-.18,0-.27.13-.27.31h-.34a.58.58,0,0,1,.61-.6.54.54,0,0,1,.58.48.36.36,0,0,1-.24.36h0a.41.41,0,0,1,.31.4.6.6,0,0,1-.65.57.59.59,0,0,1-.65-.63H132a.3.3,0,0,0,.3.34.28.28,0,0,0,.29-.25v0c0-.26-.23-.26-.41-.26Z"/><path class="cls-14" d="M134,62.51h-.36V61.38h-.43v-.27c.24,0,.47-.08.51-.34H134Z"/><path class="cls-14" d="M132.2,73.7c.15,0,.37,0,.37-.22a.23.23,0,0,0-.23-.23h0c-.18,0-.27.13-.27.31h-.34a.58.58,0,0,1,.61-.6.54.54,0,0,1,.58.48.35.35,0,0,1-.24.36h0a.41.41,0,0,1,.31.4.6.6,0,0,1-.65.57.59.59,0,0,1-.65-.63H132a.3.3,0,0,0,.3.34.28.28,0,0,0,.29-.25v0c0-.26-.23-.26-.41-.26Z"/><path class="cls-14" d="M134.3,73.3a2.12,2.12,0,0,0-.57,1.44h-.38a2.57,2.57,0,0,1,.59-1.42h-.83V73h1.19Z"/><rect class="cls-17" x="131.16" y="76.29" width="3.71" height="2.9" rx="0.35"/><rect class="cls-15" x="126.39" y="48.15" width="3.71" height="2.9" rx="0.35"/><path class="cls-14" d="M132.2,77.65c.15,0,.37,0,.37-.22a.23.23,0,0,0-.23-.23h0c-.18,0-.27.13-.27.31h-.34a.58.58,0,0,1,.61-.6.54.54,0,0,1,.58.48.36.36,0,0,1-.24.36h0a.41.41,0,0,1,.31.4.6.6,0,0,1-.65.57.59.59,0,0,1-.65-.63H132a.3.3,0,0,0,.3.34.27.27,0,0,0,.29-.25v0c0-.26-.23-.25-.41-.25Z"/><path class="cls-14" d="M133.43,78.24a.26.26,0,0,0,.23.22c.26,0,.33-.34.34-.53h0a.43.43,0,0,1-.39.2.6.6,0,0,1-.4-.18.62.62,0,0,1-.14-.39.61.61,0,0,1,.61-.64c.53,0,.67.46.67.9s-.19.91-.68.91a.53.53,0,0,1-.57-.48Zm.54-.71a.31.31,0,0,0-.29-.33.29.29,0,0,0-.27.32.3.3,0,0,0,.27.33.28.28,0,0,0,.28-.32Z"/><rect class="cls-15" x="126.39" y="52.07" width="3.71" height="2.9" rx="0.35"/><rect class="cls-15" x="126.39" y="56.11" width="3.71" height="2.9" rx="0.35"/><rect class="cls-15" x="126.39" y="60.09" width="3.71" height="2.9" rx="0.35"/><rect class="cls-19" x="126.39" y="64.1" width="3.71" height="2.9" rx="0.35"/><rect class="cls-15" x="126.39" y="68.16" width="3.71" height="2.9" rx="0.35"/><rect class="cls-20" x="126.39" y="72.35" width="3.71" height="2.9" rx="0.35"/><rect class="cls-17" x="126.39" y="76.29" width="3.71" height="2.9" rx="0.35"/><path class="cls-14" d="M127.64,1.44a.62.62,0,0,1,.63-.7.55.55,0,0,1,.6.54c0,.53-.56.57-.81.93h.82v.3H127.6c0-.4.25-.57.55-.78s.37-.21.37-.42a.25.25,0,0,0-.23-.27h0c-.21,0-.28.21-.28.4Z"/><path class="cls-14" d="M127,49.45a.62.62,0,0,1,.63-.71.56.56,0,0,1,.6.55c0,.53-.56.57-.81.93h.82v.3h-1.28c0-.41.25-.57.55-.78s.37-.21.37-.42a.25.25,0,0,0-.23-.27h0c-.21,0-.27.22-.27.41Z"/><path class="cls-14" d="M129.21,49.22A.25.25,0,0,0,129,49c-.25,0-.32.33-.33.53h0a.42.42,0,0,1,.39-.19.52.52,0,0,1,.4.18.54.54,0,0,1,.13.39.6.6,0,0,1-.57.63h0c-.52,0-.67-.46-.67-.9s.19-.91.69-.91a.53.53,0,0,1,.56.48Zm-.54.72a.3.3,0,0,0,.28.32h0a.29.29,0,0,0,.27-.32c0-.16-.08-.33-.27-.33a.29.29,0,0,0-.28.33Z"/><path class="cls-14" d="M127.43,61.51c.15,0,.37,0,.37-.22a.23.23,0,0,0-.23-.23h0c-.18,0-.27.13-.27.31h-.34a.59.59,0,0,1,.61-.6.53.53,0,0,1,.58.48.36.36,0,0,1-.24.36h0a.41.41,0,0,1,.31.4.6.6,0,0,1-.65.57.59.59,0,0,1-.65-.63h.34c0,.19.1.34.3.34a.27.27,0,0,0,.29-.25v0c0-.26-.23-.26-.4-.26Z"/><path class="cls-14" d="M128.33,61.47a.62.62,0,0,1,.64-.7.55.55,0,0,1,.59.54c0,.53-.56.57-.81.93h.83v.3H128.3c0-.4.24-.57.55-.78.15-.1.36-.21.36-.42a.25.25,0,0,0-.23-.27h0c-.21,0-.28.21-.28.4Z"/><path class="cls-14" d="M127.43,69.52c.15,0,.37,0,.37-.21a.23.23,0,0,0-.23-.23h0c-.18,0-.27.13-.27.31h-.34a.59.59,0,0,1,.61-.6.53.53,0,0,1,.58.48.36.36,0,0,1-.24.36h0a.41.41,0,0,1,.31.4.65.65,0,0,1-1.3-.06h.34c0,.19.1.34.3.34a.28.28,0,0,0,.29-.26h0c0-.26-.23-.26-.4-.26Z"/><path class="cls-14" d="M129.21,69.27a.27.27,0,0,0-.24-.22c-.25,0-.32.34-.33.53h0a.42.42,0,0,1,.39-.19.55.55,0,0,1,.4.18.56.56,0,0,1,.13.39.59.59,0,0,1-.57.63h0c-.52,0-.67-.46-.67-.9s.19-.91.69-.91a.53.53,0,0,1,.56.48Zm-.54.71a.31.31,0,0,0,.28.33h0a.29.29,0,0,0,.27-.32c0-.16-.08-.33-.27-.33a.29.29,0,0,0-.28.32Z"/><path class="cls-14" d="M127.43,73.73c.15,0,.37,0,.37-.21a.23.23,0,0,0-.23-.24h0a.27.27,0,0,0-.27.31h-.34a.59.59,0,0,1,.61-.6.53.53,0,0,1,.58.48.35.35,0,0,1-.24.37h0a.41.41,0,0,1,.31.4.6.6,0,0,1-.65.57.59.59,0,0,1-.65-.63h.34c0,.19.1.34.3.34a.28.28,0,0,0,.29-.26h0c0-.26-.23-.26-.4-.26Z"/><path class="cls-14" d="M128.94,73a.52.52,0,0,1,.58.47.37.37,0,0,1-.25.36h0a.39.39,0,0,1,.32.42.58.58,0,0,1-.65.55c-.33,0-.66-.17-.66-.54a.4.4,0,0,1,.33-.43h0a.35.35,0,0,1-.26-.36A.53.53,0,0,1,128.94,73Zm0,1.55a.3.3,0,0,0,.3-.28v0A.3.3,0,0,0,129,74h0a.28.28,0,0,0-.31.28.29.29,0,0,0,.29.3Zm0-.82a.23.23,0,0,0,.26-.23.24.24,0,0,0-.22-.24h0a.24.24,0,0,0-.27.22v0a.24.24,0,0,0,.27.24Z"/><path class="cls-14" d="M127.63,78.21h-.73v-.32l.76-1H128v1h.23v.29H128v.4h-.34Zm0-.9h0l-.45.61h.45Z"/><path class="cls-14" d="M128.93,76.83c.35,0,.64.22.64.91s-.29.91-.64.91-.64-.22-.64-.91S128.59,76.83,128.93,76.83Zm0,1.53c.29,0,.29-.43.29-.63s0-.6-.29-.6-.28.42-.28.6S128.65,78.36,128.93,78.36Z"/><path class="cls-14" d="M127,53.29a.61.61,0,0,1,.63-.7.55.55,0,0,1,.6.54c0,.52-.56.57-.81.93h.82v.3h-1.28c0-.41.25-.57.55-.78s.37-.21.37-.43a.26.26,0,0,0-.23-.27h0c-.21,0-.27.22-.27.4Z"/><path class="cls-14" d="M128.94,52.59a.51.51,0,0,1,.58.46.35.35,0,0,1-.25.36h0a.4.4,0,0,1,.32.43.58.58,0,0,1-.65.54c-.33,0-.66-.17-.66-.54a.4.4,0,0,1,.33-.43h0a.35.35,0,0,1-.26-.36C128.35,52.75,128.65,52.59,128.94,52.59Zm0,1.54a.29.29,0,0,0,.3-.27v0a.29.29,0,0,0-.29-.28h0a.27.27,0,0,0-.31.27.29.29,0,0,0,.29.3Zm0-.81a.23.23,0,0,0,.26-.23.23.23,0,0,0-.22-.24h0a.23.23,0,0,0-.27.21v0a.25.25,0,0,0,.27.24Z"/><path class="cls-14" d="M127.43,57.47c.15,0,.37,0,.37-.21a.23.23,0,0,0-.23-.23h0c-.18,0-.27.13-.27.31h-.34a.59.59,0,0,1,.61-.6.53.53,0,0,1,.58.48.36.36,0,0,1-.24.36h0a.41.41,0,0,1,.31.4.65.65,0,0,1-1.3-.06h.34c0,.19.1.34.3.34a.28.28,0,0,0,.29-.26h0c0-.26-.23-.26-.4-.26Z"/><path class="cls-14" d="M128.93,56.73c.35,0,.64.22.64.9s-.29.92-.64.92-.64-.22-.64-.92S128.59,56.73,128.93,56.73Zm0,1.52c.29,0,.29-.42.29-.62s0-.61-.29-.61-.28.43-.28.61S128.65,58.25,128.93,58.25Z"/><path class="cls-14" d="M127.43,65.42c.15,0,.37,0,.37-.22a.24.24,0,0,0-.23-.23h0a.27.27,0,0,0-.27.31h-.34a.59.59,0,0,1,.61-.6.53.53,0,0,1,.58.48.36.36,0,0,1-.24.37h0a.39.39,0,0,1,.31.39.65.65,0,0,1-1.3-.06h.34c0,.19.1.35.3.35a.28.28,0,0,0,.29-.26h0c0-.27-.23-.26-.4-.26Z"/><path class="cls-14" d="M129,66.06h-.74v-.33l.76-1h.31v1h.23v.3h-.23v.4H129Zm0-.9h0l-.45.6H129Z"/><path class="cls-14" d="M133.3,2.41h-.36V1.28h-.44V1c.25,0,.48-.08.51-.35h.29Z"/><path class="cls-14" d="M132.89,5.34c.15,0,.37,0,.37-.21a.24.24,0,0,0-.23-.24h0c-.18,0-.27.13-.27.31h-.34A.59.59,0,0,1,133,4.6a.54.54,0,0,1,.58.49.35.35,0,0,1-.24.36h0a.4.4,0,0,1,.31.4.65.65,0,0,1-1.3-.06h.34c0,.19.1.34.3.34a.27.27,0,0,0,.29-.25v0c0-.26-.23-.26-.4-.26Z"/><path class="cls-14" d="M133.56,9h-.72l-.07.4h0a.43.43,0,0,1,.34-.13.54.54,0,0,1,.54.59.63.63,0,0,1-.63.63h0a.57.57,0,0,1-.64-.55h.35a.28.28,0,0,0,.29.26.31.31,0,0,0,.3-.33h0a.31.31,0,0,0-.27-.33h0a.29.29,0,0,0-.27.14h-.32l.17-1h1Z"/><path class="cls-14" d="M132.74,17.91a.25.25,0,0,0,.23.22c.26,0,.32-.34.34-.53h0a.44.44,0,0,1-.39.19.54.54,0,0,1-.4-.18.62.62,0,0,1-.14-.39.61.61,0,0,1,.61-.64c.53,0,.67.46.67.9s-.19.92-.68.92a.54.54,0,0,1-.57-.49Zm.53-.71a.29.29,0,0,0-.27-.32h0a.32.32,0,0,0,0,.64A.28.28,0,0,0,133.27,17.2Z"/><path class="cls-14" d="M132.6,22.33h-.35V21.2h-.44v-.26c.25,0,.47-.08.51-.35h.28Z"/><path class="cls-14" d="M134,22.33h-.36V21.2h-.43v-.26c.24,0,.47-.08.51-.35H134Z"/><path class="cls-14" d="M132.6,34.43h-.35V33.3h-.44V33c.25,0,.47-.09.51-.35h.28Z"/><path class="cls-14" d="M134.3,33a2.15,2.15,0,0,0-.57,1.45h-.38a2.57,2.57,0,0,1,.59-1.42h-.83v-.33h1.19Z"/><path class="cls-14" d="M132.6,38.49h-.35V37.36h-.44v-.27c.25,0,.47-.08.51-.35h.28Z"/><path class="cls-14" d="M133.43,38a.26.26,0,0,0,.23.22c.26,0,.33-.34.34-.53h0a.43.43,0,0,1-.39.2.6.6,0,0,1-.4-.18.62.62,0,0,1-.14-.39.61.61,0,0,1,.61-.64c.53,0,.67.46.67.9s-.19.91-.68.91a.53.53,0,0,1-.57-.48Zm.54-.71a.31.31,0,0,0-.28-.33h0a.3.3,0,0,0-.27.32.3.3,0,0,0,.27.33.28.28,0,0,0,.28-.32Z"/><path class="cls-14" d="M131.72,41.57a.62.62,0,0,1,.63-.71.56.56,0,0,1,.6.55c0,.52-.56.57-.81.92H133v.31h-1.28c0-.41.25-.57.55-.78s.37-.21.37-.43a.25.25,0,0,0-.23-.27h0c-.2,0-.27.22-.27.4Z"/><path class="cls-14" d="M134,42.64h-.36V41.51h-.43v-.27a.44.44,0,0,0,.51-.35H134Z"/><path class="cls-14" d="M131.72,45.56a.61.61,0,0,1,.63-.7.55.55,0,0,1,.6.54c0,.53-.56.57-.81.93H133v.3h-1.28c0-.4.25-.57.55-.78s.37-.21.37-.42a.25.25,0,0,0-.23-.27h0c-.2,0-.27.21-.27.4Z"/><path class="cls-14" d="M133.58,45.6c.15,0,.37,0,.37-.22a.23.23,0,0,0-.23-.23h0c-.18,0-.27.13-.27.31h-.33a.57.57,0,0,1,.6-.6.53.53,0,0,1,.58.48.34.34,0,0,1-.24.36h0a.39.39,0,0,1,.31.4.6.6,0,0,1-.65.57.58.58,0,0,1-.64-.63h.33c0,.19.1.34.31.34a.27.27,0,0,0,.28-.26h0c0-.26-.23-.26-.4-.26Z"/><path class="cls-14" d="M128.33,6.09h-.74V5.76l.76-1h.31v1h.23v.29h-.23v.4h-.33Zm0-.9h0l-.45.6h.46Z"/><path class="cls-14" d="M127.83,22.44h-.35V21.31H127V21c.25,0,.47-.08.51-.35h.28Z"/><path class="cls-14" d="M128.33,21.37a.63.63,0,0,1,.64-.71.56.56,0,0,1,.59.55c0,.53-.56.57-.81.93h.83v.3H128.3c0-.4.24-.57.55-.78.15-.11.36-.21.36-.42A.25.25,0,0,0,129,21h0c-.21,0-.28.21-.28.4Z"/><path class="cls-14" d="M127.83,30.52h-.35V29.39H127v-.27c.25,0,.47-.08.51-.34h.28Z"/><path class="cls-14" d="M129.21,29.23A.27.27,0,0,0,129,29c-.25,0-.32.34-.33.53h0a.41.41,0,0,1,.39-.2.55.55,0,0,1,.4.18.56.56,0,0,1,.13.39.6.6,0,0,1-.57.64h0c-.52,0-.67-.46-.67-.9s.19-.91.69-.91a.52.52,0,0,1,.56.48Zm-.54.71a.3.3,0,0,0,.28.32h0a.29.29,0,0,0,.27-.32c0-.16-.08-.33-.27-.33a.29.29,0,0,0-.28.32Z"/><path class="cls-14" d="M127.83,34.54h-.35V33.41H127v-.27c.25,0,.47-.08.51-.34h.28Z"/><path class="cls-14" d="M128.94,32.76a.52.52,0,0,1,.58.47.37.37,0,0,1-.25.36h0a.39.39,0,0,1,.32.42.58.58,0,0,1-.65.55c-.33,0-.66-.17-.66-.54a.4.4,0,0,1,.33-.43h0a.35.35,0,0,1-.26-.36A.53.53,0,0,1,128.94,32.76Zm0,1.55a.3.3,0,0,0,.3-.28v0a.3.3,0,0,0-.29-.28h0a.28.28,0,0,0-.31.28.29.29,0,0,0,.29.3Zm0-.82a.23.23,0,0,0,.26-.22A.24.24,0,0,0,129,33h0a.24.24,0,0,0-.27.22v0a.24.24,0,0,0,.27.23Z"/><path class="cls-14" d="M127,41.68a.62.62,0,0,1,.63-.71.56.56,0,0,1,.6.55c0,.52-.56.57-.81.93h.82v.3h-1.28c0-.41.25-.57.55-.78s.37-.21.37-.43a.26.26,0,0,0-.23-.27h0c-.21,0-.27.22-.27.4Z"/><path class="cls-14" d="M128.33,41.68A.63.63,0,0,1,129,41a.56.56,0,0,1,.59.55c0,.52-.56.57-.81.93h.83v.3H128.3c0-.41.24-.57.55-.78.15-.11.36-.21.36-.43a.25.25,0,0,0-.23-.27h0c-.21,0-.28.22-.28.4Z"/><path class="cls-14" d="M128.52,9.29a.27.27,0,0,0-.24-.22c-.25,0-.32.34-.33.53h0a.45.45,0,0,1,.4-.19.57.57,0,0,1,.4.18.61.61,0,0,1,.13.39.6.6,0,0,1-.61.64c-.53,0-.67-.46-.67-.9s.19-.92.69-.92a.53.53,0,0,1,.56.49ZM128,10a.29.29,0,0,0,.27.32h0a.29.29,0,0,0,.27-.31c0-.16-.08-.33-.27-.33A.29.29,0,0,0,128,10Z"/><polygon class="cls-17" points="123.73 4.03 120.36 4.03 118.68 5.48 120.36 6.93 123.73 6.93 125.42 5.48 123.73 4.03"/><path class="cls-14" d="M121.29,6a.56.56,0,0,1-.44.22.76.76,0,0,1-.78-.82.78.78,0,0,1,.78-.84.64.64,0,0,1,.67.56h-.33a.33.33,0,0,0-.34-.27c-.31,0-.43.27-.43.54s.12.53.43.53a.34.34,0,0,0,.38-.3v0h-.35V5.34h.67V6.2h-.22Z"/><path class="cls-14" d="M121.83,4.61h.34l.66,1.06h0V4.61h.32V6.19h-.35l-.65-1.06h0V6.19h-.33Z"/><path class="cls-14" d="M123.47,4.61h.68a.69.69,0,0,1,.72.78c0,.46-.23.8-.72.8h-.68Zm.35,1.29h.31c.2,0,.39-.12.39-.47s-.11-.53-.45-.53h-.25Z"/><rect class="cls-17" x="123.38" y="76.29" width="2.47" height="2.9" rx="0.41"/><polygon class="cls-17" points="123.73 76.29 120.36 76.29 118.68 77.74 120.36 79.19 123.73 79.19 125.42 77.74 123.73 76.29"/><path class="cls-14" d="M121.29,78.27a.56.56,0,0,1-.44.22.83.83,0,0,1,0-1.66.64.64,0,0,1,.67.56h-.33a.34.34,0,0,0-.34-.27c-.31,0-.43.27-.43.55s.12.52.43.52a.33.33,0,0,0,.38-.3v0h-.35v-.26h.67v.86h-.22Z"/><path class="cls-14" d="M121.83,76.87h.34l.66,1.06h0V76.87h.32v1.58h-.35l-.65-1.06h0v1.06h-.33Z"/><path class="cls-14" d="M123.47,76.87h.68a.69.69,0,0,1,.72.78c0,.46-.23.8-.72.8h-.68Zm.35,1.29h.31c.2,0,.39-.13.39-.48s-.11-.52-.45-.52h-.25Z"/><rect class="cls-17" x="135.42" y="4.03" width="2.47" height="2.9" rx="0.41"/><polygon class="cls-17" points="137.56 4.03 140.93 4.03 142.61 5.49 140.93 6.94 137.56 6.94 135.87 5.49 137.56 4.03"/><path class="cls-14" d="M137.59,6a.54.54,0,0,1-.44.22.76.76,0,0,1-.78-.82.78.78,0,0,1,.78-.84.64.64,0,0,1,.67.56h-.33a.33.33,0,0,0-.34-.27c-.31,0-.43.27-.43.54s.12.53.43.53a.34.34,0,0,0,.38-.3v0h-.35V5.34h.66V6.2h-.22Z"/><path class="cls-14" d="M138.13,4.61h.34l.66,1.06h0V4.61h.33V6.19h-.34l-.66-1.06h0V6.19h-.33Z"/><path class="cls-14" d="M139.77,4.61h.69a.69.69,0,0,1,.72.78.71.71,0,0,1-.72.8h-.69Zm.35,1.29h.31c.2,0,.39-.12.39-.47s-.11-.53-.45-.53h-.25Z"/><rect class="cls-17" x="135.42" y="76.29" width="2.47" height="2.9" rx="0.41"/><polygon class="cls-17" points="137.56 76.29 140.93 76.29 142.61 77.74 140.93 79.19 137.56 79.19 135.87 77.74 137.56 76.29"/><path class="cls-14" d="M137.59,78.27a.54.54,0,0,1-.44.22.83.83,0,0,1,0-1.66.64.64,0,0,1,.67.56h-.33a.33.33,0,0,0-.34-.27c-.31,0-.43.27-.43.54s.12.53.43.53a.34.34,0,0,0,.38-.3v0h-.35v-.26h.66v.86h-.22Z"/><path class="cls-14" d="M138.13,76.87h.34l.66,1.06h0V76.87h.33v1.58h-.34l-.66-1.06h0v1.06h-.33Z"/><path class="cls-14" d="M139.77,76.87h.69a.69.69,0,0,1,.72.78.71.71,0,0,1-.72.8h-.69Zm.35,1.29h.31c.2,0,.39-.13.39-.48s-.11-.52-.45-.52h-.25Z"/><path class="cls-14" d="M128.24,12.79a.52.52,0,0,1,.59.47.38.38,0,0,1-.26.37h0a.4.4,0,0,1,.33.42.59.59,0,0,1-.65.55c-.33,0-.67-.17-.67-.54a.41.41,0,0,1,.33-.43h0a.35.35,0,0,1-.25-.36A.52.52,0,0,1,128.24,12.79Zm0,1.55a.29.29,0,0,0,.3-.28v0a.28.28,0,0,0-.28-.28h0a.27.27,0,0,0-.3.28.3.3,0,0,0,.29.3h0Zm0-.82c.15,0,.27-.07.27-.22a.25.25,0,0,0-.22-.25h0a.24.24,0,0,0-.26.22v0a.25.25,0,0,0,.27.23Z"/><path class="cls-14" d="M127.83,18.47h-.35V17.34H127v-.27c.25,0,.47-.08.51-.35h.28Z"/><path class="cls-14" d="M128.93,16.69c.35,0,.64.22.64.9s-.29.92-.64.92-.64-.22-.64-.92S128.59,16.69,128.93,16.69Zm0,1.52c.29,0,.29-.42.29-.62s0-.61-.29-.61-.28.43-.28.61S128.65,18.21,128.93,18.21Z"/><path class="cls-14" d="M127.83,26.54h-.35V25.4H127v-.26c.25,0,.47-.08.51-.35h.28Z"/><path class="cls-14" d="M129,26.13h-.74v-.32l.76-1h.31v1.05h.23v.29h-.23v.41H129Zm0-.9h0l-.45.61H129Z"/><path class="cls-14" d="M127,37.52a.61.61,0,0,1,.63-.7.55.55,0,0,1,.6.54c0,.53-.56.57-.81.93h.82v.3h-1.28c0-.41.25-.57.55-.78s.37-.21.37-.42a.25.25,0,0,0-.23-.27h0c-.21,0-.27.21-.27.4Z"/><path class="cls-14" d="M128.93,36.82c.35,0,.64.22.64.9s-.29.92-.64.92-.64-.22-.64-.92S128.59,36.82,128.93,36.82Zm0,1.52c.29,0,.29-.42.29-.62s0-.61-.29-.61-.28.43-.28.61,0,.62.28.62Z"/><path class="cls-14" d="M127,45.65a.61.61,0,0,1,.63-.7.55.55,0,0,1,.6.54c0,.53-.56.57-.81.93h.82v.3h-1.28c0-.4.25-.57.55-.78s.37-.21.37-.42a.26.26,0,0,0-.23-.27h0c-.21,0-.27.21-.27.4Z"/><path class="cls-14" d="M129,46.32h-.74V46l.76-1h.31V46h.23v.29h-.23v.4H129Zm0-.89h0l-.45.6H129Z"/><path class="cls-14" d="M133.61,13a2.1,2.1,0,0,0-.57,1.44h-.38a2.53,2.53,0,0,1,.58-1.41h-.82v-.33h1.19Z"/><path class="cls-14" d="M132.6,26.43h-.35V25.3h-.44V25c.25,0,.47-.08.51-.35h.28Z"/><path class="cls-14" d="M133.58,25.39c.15,0,.37,0,.37-.22a.23.23,0,0,0-.23-.23h0c-.18,0-.27.13-.27.31h-.33a.57.57,0,0,1,.6-.6.53.53,0,0,1,.58.48.34.34,0,0,1-.24.36h0a.39.39,0,0,1,.31.4.6.6,0,0,1-.65.57.58.58,0,0,1-.64-.63h.33c0,.19.1.34.31.34a.26.26,0,0,0,.28-.25v0c0-.26-.23-.25-.4-.25Z"/><path class="cls-14" d="M132.6,30.41h-.35V29.28h-.44V29c.25,0,.47-.08.51-.35h.28Z"/><path class="cls-14" d="M134.26,29h-.72l-.07.4h0a.43.43,0,0,1,.34-.13.54.54,0,0,1,.54.59.63.63,0,0,1-.63.63h0a.59.59,0,0,1-.65-.55h.35a.28.28,0,0,0,.29.26.32.32,0,0,0,.3-.33h0a.3.3,0,0,0-.27-.32h0a.27.27,0,0,0-.27.14h-.32l.17-1h1Z"/><polygon class="cls-18" points="135.77 9.52 137.23 10.98 140.15 10.98 141.6 9.52 140.15 8.07 137.23 8.07 135.77 9.52"/><path class="cls-18" d="M135.41,8.07h4.32a.43.43,0,0,1,.43.43v2.06a.43.43,0,0,1-.43.43h-4.32a0,0,0,0,1,0,0V8.07A0,0,0,0,1,135.41,8.07Z" transform="translate(275.57 19.05) rotate(-180)"/><path class="cls-14" d="M136.82,9.32c.14,0,.33,0,.33-.2a.19.19,0,0,0-.2-.2h0a.24.24,0,0,0-.24.28h-.3a.52.52,0,0,1,.53-.55.48.48,0,0,1,.52.43.31.31,0,0,1-.21.32h0a.36.36,0,0,1,.27.35.52.52,0,0,1-.58.51.53.53,0,0,1-.58-.56h.3c0,.17.09.3.27.3a.24.24,0,0,0,.26-.22v0c0-.23-.21-.23-.36-.23Z"/><path class="cls-14" d="M138.31,10.24H138l-.4-1.14h.33l.24.78h0l.25-.78h.31Z"/><path class="cls-14" d="M139.21,9.32c.14,0,.33,0,.33-.2a.2.2,0,0,0-.2-.2h0c-.16,0-.24.12-.24.28h-.3a.53.53,0,0,1,.54-.55.48.48,0,0,1,.52.43.31.31,0,0,1-.21.32h0a.36.36,0,0,1,.27.35.52.52,0,0,1-.58.51.53.53,0,0,1-.58-.56h.3c0,.17.09.3.27.3a.24.24,0,0,0,.26-.22v0c0-.23-.21-.23-.36-.23Z"/><path class="cls-21" d="M125.56,72.34h-3.5l-1.9,1.46,1.9,1.45h3.5a.28.28,0,0,0,.28-.28V72.63a.28.28,0,0,0-.27-.29Z"/><polygon class="cls-21" points="123.25 75.25 120.33 75.25 118.86 73.8 120.33 72.34 123.25 72.34 124.71 73.8 123.25 75.25"/><path class="cls-21" d="M135.72,72.35a.29.29,0,0,0-.27.29V75a.29.29,0,0,0,.28.28h3.51l1.9-1.45-1.9-1.46h-3.52Z"/><rect class="cls-21" x="138.29" y="72.35" width="7.93" height="2.9" transform="translate(284.52 147.61) rotate(-180)"/><polygon class="cls-21" points="142.74 73.81 144.2 72.35 147.12 72.35 148.58 73.81 147.12 75.26 144.2 75.26 142.74 73.81"/><path class="cls-14" d="M122,73.06h1.19v.29h-.84v.35h.77V74h-.77v.39h.86v.29H122Z"/><path class="cls-14" d="M123.45,73.06h.35l.67,1.07h0V73.06h.33v1.59h-.35l-.66-1.06h0v1.06h-.33Z"/><path class="cls-14" d="M136.39,73.07h.5l.37,1.09h0l.36-1.09h.49v1.59h-.33V73.53h0l-.39,1.13h-.27l-.39-1.12h0v1.12h-.33Z"/><path class="cls-14" d="M139.48,73.6a.36.36,0,0,0-.35-.27c-.32,0-.43.26-.43.54s.11.53.43.53a.36.36,0,0,0,.36-.35h.34a.67.67,0,0,1-.7.65.84.84,0,0,1,0-1.67.64.64,0,0,1,.68.57Z"/><path class="cls-14" d="M141.41,74.06a.59.59,0,0,1-.67.64c-.43,0-.68-.21-.68-.64v-1h.35v1c0,.17,0,.34.33.34s.33-.1.33-.34v-1h.34Z"/><path class="cls-14" d="M141.56,74.83h1.12v.11h-1.12Z"/><path class="cls-14" d="M144.34,74.66H144l-.27-1.08h0l-.26,1.08h-.36l-.42-1.59H143l.25,1.08h0l.27-1.08h.33l.27,1.1h0l.26-1.1h.34Z"/><path class="cls-14" d="M144.93,73.07h.35v.66l.62-.66h.44l-.62.63.68,1H146l-.48-.71-.2.2v.51h-.35Z"/><rect class="cls-19" x="136.98" y="64.09" width="9.9" height="2.91"/><rect class="cls-19" x="135.41" y="64.09" width="2.47" height="2.91" rx="0.41"/><polygon class="cls-19" points="148.34 64.09 145.42 64.09 143.96 65.55 145.42 67 148.34 67 149.81 65.55 148.34 64.09"/><rect class="cls-19" x="113.14" y="64.09" width="10.98" height="2.91"/><rect class="cls-19" x="123.36" y="64.09" width="2.47" height="2.91" rx="0.41"/><polygon class="cls-19" points="115.78 64.09 112.86 64.09 111.39 65.55 112.86 67 115.78 67 117.25 65.55 115.78 64.09"/><path class="cls-14" d="M113,64.7h.49l.38,1.09h0l.35-1.09h.49v1.59h-.32V65.16h0L114,66.29h-.27l-.39-1.12h0v1.12H113Z"/><path class="cls-14" d="M116.1,65.23a.35.35,0,0,0-.35-.28c-.31,0-.43.27-.43.55s.12.53.43.53a.34.34,0,0,0,.36-.35h.34a.67.67,0,0,1-.7.65.84.84,0,0,1,0-1.67.64.64,0,0,1,.69.57Z"/><path class="cls-14" d="M118,65.69c0,.43-.25.64-.68.64s-.68-.21-.68-.64v-1H117v1c0,.17,0,.34.33.34s.33-.11.33-.34v-1H118Z"/><path class="cls-14" d="M118.19,66.46h1.11v.11h-1.11Z"/><path class="cls-14" d="M119.45,64.7h.86a.44.44,0,0,1,.47.44.41.41,0,0,1-.25.4h0a.36.36,0,0,1,.23.37.82.82,0,0,0,.06.38h-.35a2.18,2.18,0,0,1,0-.38c0-.17-.09-.24-.27-.24h-.35v.62h-.35Zm.35.72h.39c.16,0,.24-.07.24-.23s-.08-.22-.24-.22h-.39Z"/><path class="cls-14" d="M121.45,65.45l-.51-.75h.41l.31.51.32-.51h.38l-.51.76.56.83H122l-.35-.55-.35.55h-.39Z"/><path class="cls-14" d="M122.55,64.7h.68a.7.7,0,0,1,.73.78.72.72,0,0,1-.73.81h-.68ZM122.9,66h.31c.2,0,.4-.12.4-.47s-.12-.53-.46-.53h-.25Z"/><path class="cls-14" d="M124.92,66.29h-.32v-1h-.39V65c.22,0,.42-.07.46-.31h.25Z"/><path class="cls-14" d="M136.39,64.7h.5l.37,1.09h0l.36-1.09h.49v1.59h-.33V65.16h0l-.39,1.13h-.27l-.39-1.12h0v1.12h-.33Z"/><path class="cls-14" d="M139.48,65.23a.36.36,0,0,0-.35-.28c-.32,0-.43.27-.43.55s.11.53.43.53a.36.36,0,0,0,.36-.35h.34a.68.68,0,0,1-.7.65.84.84,0,0,1,0-1.67.63.63,0,0,1,.68.57Z"/><path class="cls-14" d="M141.42,65.69a.6.6,0,0,1-.68.64c-.43,0-.68-.21-.68-.64v-1h.35v1c0,.17,0,.34.33.34s.33-.11.33-.34v-1h.35Z"/><path class="cls-14" d="M141.56,66.46h1.12v.11h-1.12Z"/><path class="cls-14" d="M143.18,65h-.48V64.7H144V65h-.48v1.3h-.35Z"/><path class="cls-14" d="M144.58,65.45l-.51-.75h.4l.31.51.33-.51h.38l-.51.76.55.83h-.41l-.35-.55-.35.55H144Z"/><path class="cls-14" d="M145.67,64.7h.69a.69.69,0,0,1,.72.78c0,.46-.23.81-.72.81h-.69ZM146,66h.32c.2,0,.39-.12.39-.47s-.11-.53-.46-.53H146Z"/><path class="cls-14" d="M148,66.29h-.31v-1h-.39V65c.22,0,.42-.07.45-.31H148Z"/><path class="cls-22" d="M97.21,7.54H97V6.77h-.3V6.59c.17,0,.32-.06.35-.24h.19Z"/><path class="cls-22" d="M96.61,13.87a.42.42,0,0,1,.43-.48.38.38,0,0,1,.41.37c0,.36-.38.39-.56.64h.57v.21h-.88c0-.28.17-.4.38-.54s.25-.14.25-.29a.18.18,0,0,0-.18-.19c-.15,0-.19.15-.19.28Z"/><path class="cls-22" d="M70.67,6.83c.11,0,.26,0,.26-.15a.16.16,0,0,0-.17-.16c-.12,0-.19.09-.19.22h-.23a.4.4,0,0,1,.42-.42.37.37,0,0,1,.4.34A.24.24,0,0,1,71,6.9h0a.27.27,0,0,1,.21.27.4.4,0,0,1-.44.4.41.41,0,0,1-.45-.44h.23c0,.13.08.24.22.24A.19.19,0,0,0,71,7.18C71,7,70.79,7,70.67,7Z"/><path class="cls-22" d="M71.52,7.24a.18.18,0,0,0,.16.15c.18,0,.22-.24.23-.37h0a.32.32,0,0,1-.27.13A.4.4,0,0,1,71.36,7a.44.44,0,0,1-.09-.27.42.42,0,0,1,.42-.44c.36,0,.46.32.46.62s-.13.63-.47.63a.37.37,0,0,1-.39-.33Zm.37-.49a.21.21,0,0,0-.2-.23.2.2,0,0,0-.18.22c0,.12.06.23.18.23A.21.21,0,0,0,71.89,6.75Z"/><path class="cls-22" d="M70.82,14.33h-.51v-.22l.52-.7h.22v.72h.16v.2h-.16v.28h-.23Zm0-.62h0l-.31.42h.32Z"/><path class="cls-22" d="M71.71,13.39c.24,0,.44.15.44.61s-.2.63-.44.63-.44-.15-.44-.63S71.47,13.39,71.71,13.39Zm0,1c.2,0,.2-.29.2-.43s0-.41-.2-.41-.2.29-.2.41S71.51,14.43,71.71,14.43Z"/></g></g></g></svg>