<svg xmlns="http://www.w3.org/2000/svg" viewBox="0 0 149.11 79.19"><defs><style>.cls-1{fill:#232323;}.cls-1,.cls-2,.cls-3{opacity:0.4;}.cls-2{fill:#e0ac52;}.cls-10,.cls-3{fill:#fff;}.cls-4{fill:#ebf4fb;}.cls-5{fill:#333e49;}.cls-6{fill:#222630;}.cls-7{fill:#be8e3e;}.cls-8{fill:none;stroke:#fff;stroke-linecap:round;stroke-miterlimit:10;stroke-width:0.5px;}.cls-9{fill:#b3b3b3;}.cls-11{fill:#7f8080;}.cls-12{fill:#333;}.cls-13{fill:#eb2627;}.cls-14{fill:#6b70b4;}.cls-15{fill:#fed401;}.cls-16{fill:#fdd407;}.cls-17{isolation:isolate;}.cls-18{fill:#ee3224;}</style></defs><g id="Layer_2" data-name="Layer 2"><g id="Layer_1-2" data-name="Layer 1"><g id="RAK15002_Pinout"><path class="cls-1" d="M0,4.19V75.06H99.21V4.19ZM91.73,21.26a2.21,2.21,0,1,1,2.21,2.21h0A2.21,2.21,0,0,1,91.73,21.26ZM77.21,70a2.22,2.22,0,1,1,2.24,2.24A2.22,2.22,0,0,1,77.21,70ZM60.41,9.64a2.21,2.21,0,1,1,2.21,2.22,2.21,2.21,0,0,1-2.21-2.22ZM10.67,69.5a4,4,0,1,1,4,4A4,4,0,0,1,10.67,69.5Zm-.16-59.41a4,4,0,1,1,4,4h0A4,4,0,0,1,10.51,10.09Z"/><path class="cls-2" d="M90.12,21.26A3.82,3.82,0,1,0,94,17.45h0a3.81,3.81,0,0,0-3.82,3.8Zm1.61,0a2.21,2.21,0,1,1,2.21,2.21h0A2.21,2.21,0,0,1,91.73,21.26Z"/><path class="cls-2" d="M58.47,9.64A4.15,4.15,0,1,0,62.63,5.5h0A4.15,4.15,0,0,0,58.47,9.64Zm1.94,0a2.21,2.21,0,1,1,2.21,2.22,2.21,2.21,0,0,1-2.21-2.22Z"/><path class="cls-2" d="M75.75,69.83A3.82,3.82,0,1,0,79.57,66h0A3.82,3.82,0,0,0,75.75,69.83Zm1.46.12a2.22,2.22,0,1,1,2.24,2.24A2.22,2.22,0,0,1,77.21,70Z"/><path class="cls-2" d="M7.31,10.09a7.25,7.25,0,1,0,11.44-5.9H10.36A7.22,7.22,0,0,0,7.31,10.09Zm3.2,0a4,4,0,1,1,4,4h0A4,4,0,0,1,10.51,10.09Z"/><path class="cls-2" d="M21.79,69.5a7.08,7.08,0,1,0-11.45,5.56h8.75A7.09,7.09,0,0,0,21.79,69.5Zm-3,0a4,4,0,1,1-4-4,4,4,0,0,1,4,4v0Z"/><circle class="cls-3" cx="94.73" cy="4.96" r="0.51"/><path class="cls-4" d="M70.32,12.36h-.24a.4.4,0,0,1-.4-.4V7.76a.4.4,0,0,1,.4-.4h.24a.4.4,0,0,1,.4.4V12a.4.4,0,0,1-.4.4"/><path class="cls-4" d="M96.54,12.36h-.23a.4.4,0,0,1-.4-.4h0V7.76a.4.4,0,0,1,.4-.4h.23a.4.4,0,0,1,.4.4h0V12a.4.4,0,0,1-.4.4"/><path class="cls-5" d="M97.21,8.68v-.4a.4.4,0,0,0-.4-.4H96a.4.4,0,0,0-.36.25H71a.4.4,0,0,0-.37-.25H69.8a.4.4,0,0,0-.4.4v.41a.38.38,0,0,0,.28.37v1.59a.39.39,0,0,0-.28.38v.4a.4.4,0,0,0,.4.4h.82a.39.39,0,0,0,.37-.27H95.56a.39.39,0,0,0,.37.27h.86a.4.4,0,0,0,.4-.4h0V11a.4.4,0,0,0-.25-.37V9.05A.38.38,0,0,0,97.21,8.68Z"/><path class="cls-6" d="M95,11.19H71.54c-.18,0-.33-.09-.33-.21V8.78c0-.11.15-.2.33-.2H95c.18,0,.33.09.33.2V11c0,.12-.15.21-.33.21"/><path class="cls-4" d="M72.71,6.5h-.5a.12.12,0,0,0-.12.12V7a.13.13,0,0,0,.1.16h0v1h.47v-1a.13.13,0,0,0,.11-.12V6.62a.12.12,0,0,0-.12-.12h0"/><path class="cls-7" d="M72.65,8.62h-.6a.1.1,0,0,1-.1-.1h0V8.19a.11.11,0,0,1,.1-.1h.6a.09.09,0,0,1,.1.1h0v.29a.09.09,0,0,1-.08.1h0"/><path class="cls-4" d="M72.71,13.29h-.5a.14.14,0,0,1-.12-.12v-.41a.12.12,0,0,1,.12-.12V11.56h.47v1.08a.13.13,0,0,1,.11.12v.43a.12.12,0,0,1-.12.12h0"/><path class="cls-7" d="M72.65,11.19h-.6a.09.09,0,0,0-.1.1h0v.29a.12.12,0,0,0,.1.1h.6a.1.1,0,0,0,.1-.1h0v-.31a.08.08,0,0,0-.08-.1h0"/><path class="cls-4" d="M73.82,6.5h-.46a.12.12,0,0,0-.12.12V7a.13.13,0,0,0,.1.16h0v1h.47v-1a.13.13,0,0,0,.11-.12V6.62a.12.12,0,0,0-.12-.12h0"/><path class="cls-7" d="M73.76,8.62h-.6a.1.1,0,0,1-.1-.1h0V8.19a.11.11,0,0,1,.1-.1h.6a.09.09,0,0,1,.1.1h0v.29a.09.09,0,0,1-.08.1h0"/><path class="cls-4" d="M73.82,13.29h-.46a.13.13,0,0,1-.15-.1v-.43a.12.12,0,0,1,.12-.12V11.56h.47v1.08a.13.13,0,0,1,.11.12v.43a.12.12,0,0,1-.12.12h0"/><path class="cls-7" d="M73.76,11.19h-.6a.09.09,0,0,0-.1.1h0v.29a.12.12,0,0,0,.1.1h.6a.1.1,0,0,0,.1-.1h0v-.31a.08.08,0,0,0-.08-.1h0"/><path class="cls-4" d="M75,6.5h-.46a.12.12,0,0,0-.12.12h0V7a.13.13,0,0,0,.1.16h0v1H75v-1a.14.14,0,0,0,.12-.12V6.62A.12.12,0,0,0,75,6.5"/><path class="cls-7" d="M74.94,8.62h-.61a.09.09,0,0,1-.09-.09h0V8.19a.1.1,0,0,1,.09-.1h.61a.11.11,0,0,1,.1.1v.29a.1.1,0,0,1-.1.1h0"/><path class="cls-4" d="M75,13.29h-.46a.12.12,0,0,1-.12-.12h0v-.41a.13.13,0,0,1,.11-.12V11.56H75v1.08a.12.12,0,0,1,.12.12v.43a.14.14,0,0,1-.12.12"/><path class="cls-7" d="M74.94,11.19h-.61a.09.09,0,0,0-.09.09h0v.29a.11.11,0,0,0,.09.1h.61a.12.12,0,0,0,.1-.1v-.31a.09.09,0,0,0-.1-.1h0"/><path class="cls-4" d="M76.15,6.5h-.46a.12.12,0,0,0-.12.12h0V7a.13.13,0,0,0,.1.16h0v1h.47v-1a.14.14,0,0,0,.12-.12V6.62a.12.12,0,0,0-.12-.12"/><path class="cls-7" d="M76.09,8.62h-.61a.09.09,0,0,1-.09-.09h0V8.19a.1.1,0,0,1,.09-.1h.61a.11.11,0,0,1,.12.1h0v.29a.1.1,0,0,1-.1.1h0"/><path class="cls-4" d="M76.15,13.29h-.46a.12.12,0,0,1-.12-.12h0v-.41a.13.13,0,0,1,.11-.12V11.56h.47v1.08a.12.12,0,0,1,.12.12v.43a.14.14,0,0,1-.12.12"/><path class="cls-7" d="M76.09,11.19h-.61a.09.09,0,0,0-.09.09h0v.29a.11.11,0,0,0,.09.1h.61a.12.12,0,0,0,.1-.1v-.31a.09.09,0,0,0-.1-.1h0"/><path class="cls-4" d="M77.21,6.5h-.45a.12.12,0,0,0-.12.12h0V7a.13.13,0,0,0,.09.16h.07v1h.47v-1a.14.14,0,0,0,.12-.12V6.62a.13.13,0,0,0-.13-.12"/><path class="cls-7" d="M77.21,8.62H76.6a.09.09,0,0,1-.09-.09h0V8.19a.1.1,0,0,1,.09-.1h.61a.11.11,0,0,1,.1.1v.29a.1.1,0,0,1-.1.1h0"/><path class="cls-4" d="M77.21,13.29h-.45a.12.12,0,0,1-.12-.12h0v-.41a.13.13,0,0,1,.11-.12V11.56h.47v1.08a.12.12,0,0,1,.12.12v.43a.13.13,0,0,1-.13.1"/><path class="cls-7" d="M77.21,11.19H76.6a.09.09,0,0,0-.09.09h0v.29a.11.11,0,0,0,.09.1h.61a.12.12,0,0,0,.1-.1v-.31a.1.1,0,0,0-.1-.08"/><path class="cls-4" d="M78.37,6.5h-.45a.12.12,0,0,0-.12.12h0V7a.13.13,0,0,0,.1.16h0v1h.47v-1a.14.14,0,0,0,.12-.12V6.62a.13.13,0,0,0-.13-.12"/><path class="cls-7" d="M78.32,8.62h-.61a.09.09,0,0,1-.09-.09h0V8.19a.1.1,0,0,1,.09-.1h.61a.11.11,0,0,1,.1.1v.29a.1.1,0,0,1-.1.1h0"/><path class="cls-4" d="M78.37,13.29h-.45a.12.12,0,0,1-.12-.12h0v-.41a.13.13,0,0,1,.11-.12V11.56h.47v1.08a.12.12,0,0,1,.12.12v.43a.13.13,0,0,1-.13.12"/><path class="cls-7" d="M78.32,11.19h-.61a.09.09,0,0,0-.09.09h0v.29a.11.11,0,0,0,.09.1h.61a.12.12,0,0,0,.1-.1v-.31a.09.09,0,0,0-.1-.1h0"/><path class="cls-4" d="M79.5,6.5H79a.12.12,0,0,0-.12.12h0V7a.13.13,0,0,0,.1.16h0v1h.47v-1a.14.14,0,0,0,.12-.12V6.62a.12.12,0,0,0-.12-.12"/><path class="cls-7" d="M79.44,8.62h-.6a.1.1,0,0,1-.1-.08V8.19a.09.09,0,0,1,.1-.1h.6a.09.09,0,0,1,.1.1h0v.29a.09.09,0,0,1-.08.1h0"/><path class="cls-4" d="M79.5,13.29H79a.12.12,0,0,1-.12-.12h0v-.41a.13.13,0,0,1,.11-.12V11.56h.47v1.08a.12.12,0,0,1,.12.12v.43a.14.14,0,0,1-.12.12"/><path class="cls-7" d="M79.44,11.19h-.6a.09.09,0,0,0-.1.08v.31a.1.1,0,0,0,.1.1h.6a.1.1,0,0,0,.1-.1h0v-.31a.08.08,0,0,0-.08-.1h0"/><path class="cls-4" d="M80.63,6.5h-.42a.12.12,0,0,0-.12.12h0V7a.13.13,0,0,0,.1.16h0v1h.47v-1a.15.15,0,0,0,.12-.12V6.62a.13.13,0,0,0-.13-.12"/><path class="cls-7" d="M80.58,8.62H80a.09.09,0,0,1-.09-.09h0V8.19a.1.1,0,0,1,.09-.1h.61a.1.1,0,0,1,.09.1v.29a.09.09,0,0,1-.08.1h0"/><path class="cls-4" d="M80.63,13.29h-.42a.12.12,0,0,1-.12-.12h0v-.41a.12.12,0,0,1,.12-.12V11.56h.47v1.08a.15.15,0,0,1,.12.12v.43a.13.13,0,0,1-.13.12"/><path class="cls-7" d="M80.58,11.19H80a.09.09,0,0,0-.09.09h0v.29a.11.11,0,0,0,.09.1h.61a.11.11,0,0,0,.09-.1v-.31a.08.08,0,0,0-.08-.1h0"/><path class="cls-4" d="M81.77,6.5h-.46a.12.12,0,0,0-.12.12V7a.13.13,0,0,0,.1.16h0v1h.47v-1a.13.13,0,0,0,.11-.12V6.62a.12.12,0,0,0-.12-.12h0"/><path class="cls-7" d="M81.71,8.62h-.6a.1.1,0,0,1-.1-.08V8.19a.09.09,0,0,1,.1-.1h.6a.09.09,0,0,1,.1.1h0v.29a.09.09,0,0,1-.08.1h0"/><path class="cls-4" d="M81.77,13.29h-.46a.13.13,0,0,1-.1-.1v-.43a.12.12,0,0,1,.12-.12V11.56h.47v1.08a.13.13,0,0,1,.11.12v.43a.12.12,0,0,1-.12.12h0"/><path class="cls-7" d="M81.71,11.19h-.6a.09.09,0,0,0-.1.08v.31a.1.1,0,0,0,.1.1h.6a.1.1,0,0,0,.1-.1h0v-.31a.08.08,0,0,0-.08-.1h0"/><path class="cls-4" d="M82.89,6.5h-.45a.13.13,0,0,0-.13.12V7a.14.14,0,0,0,.12.16h0v1h.47v-1A.13.13,0,0,0,83,7.07V6.62a.12.12,0,0,0-.12-.12h0"/><path class="cls-7" d="M82.84,8.62h-.63a.1.1,0,0,1-.1-.1h0V8.19a.11.11,0,0,1,.1-.1h.61a.1.1,0,0,1,.09.1v.29a.09.09,0,0,1-.08.1h0"/><path class="cls-4" d="M82.89,13.29h-.45a.13.13,0,0,1-.13-.1v-.43a.15.15,0,0,1,.12-.12V11.56h.47v1.08a.13.13,0,0,1,.11.12v.43a.12.12,0,0,1-.12.12h0"/><path class="cls-7" d="M82.84,11.19h-.63a.09.09,0,0,0-.1.1h0v.29a.12.12,0,0,0,.1.1h.61a.11.11,0,0,0,.09-.1v-.31a.08.08,0,0,0-.08-.1h0"/><path class="cls-4" d="M84.05,6.5H83.6a.12.12,0,0,0-.12.12V7a.13.13,0,0,0,.1.16h0v1h.47v-1a.13.13,0,0,0,.15-.11s0,0,0,0V6.62a.13.13,0,0,0-.13-.12"/><path class="cls-7" d="M84,8.62h-.61a.09.09,0,0,1-.09-.09h0V8.19a.1.1,0,0,1,.09-.1H84a.11.11,0,0,1,.1.1v.29a.1.1,0,0,1-.1.1h0"/><path class="cls-4" d="M84.05,13.29H83.6a.12.12,0,0,1-.12-.12v-.41a.13.13,0,0,1,.11-.12V11.56h.47v1.08a.13.13,0,0,1,.15.11h0v.43a.13.13,0,0,1-.13.12"/><path class="cls-7" d="M84,11.19h-.61a.09.09,0,0,0-.09.09h0v.29a.11.11,0,0,0,.09.1H84a.12.12,0,0,0,.1-.1v-.31a.09.09,0,0,0-.1-.1h0"/><path class="cls-4" d="M85.21,6.5h-.45a.13.13,0,0,0-.13.12V7a.13.13,0,0,0,.09.16h0v1h.48v-1a.13.13,0,0,0,.11-.12V6.62a.12.12,0,0,0-.12-.12"/><path class="cls-7" d="M85.14,8.62h-.61a.1.1,0,0,1-.1-.1h0V8.19a.11.11,0,0,1,.1-.1h.61a.1.1,0,0,1,.07.1v.29a.09.09,0,0,1-.08.1h0"/><path class="cls-4" d="M85.21,13.29h-.45a.13.13,0,0,1-.15-.1v-.43a.12.12,0,0,1,.12-.12V11.56h.48v1.08a.13.13,0,0,1,.11.12v.43a.13.13,0,0,1-.11.1"/><path class="cls-7" d="M85.14,11.19h-.61a.09.09,0,0,0-.1.1h0v.29a.12.12,0,0,0,.1.1h.61a.11.11,0,0,0,.09-.1v-.31a.08.08,0,0,0-.08-.1h0"/><path class="cls-4" d="M86.43,6.5H86a.12.12,0,0,0-.12.12V7a.13.13,0,0,0,.1.16h0v1h.47v-1a.14.14,0,0,0,.12-.12V6.62a.12.12,0,0,0-.12-.12"/><path class="cls-7" d="M86.37,8.62h-.6a.1.1,0,0,1-.1-.08V8.19a.09.09,0,0,1,.1-.1h.6a.11.11,0,0,1,.1.1v.29a.1.1,0,0,1-.1.1h0"/><path class="cls-4" d="M86.43,13.29H86a.12.12,0,0,1-.12-.12v-.41a.13.13,0,0,1,.11-.12V11.56h.47v1.08a.12.12,0,0,1,.12.12v.43a.14.14,0,0,1-.12.12"/><path class="cls-7" d="M86.37,11.19h-.6a.09.09,0,0,0-.1.08v.31a.1.1,0,0,0,.1.1h.6a.12.12,0,0,0,.1-.1v-.31a.09.09,0,0,0-.1-.1h0"/><path class="cls-4" d="M87.54,6.5h-.46a.12.12,0,0,0-.12.12V7a.13.13,0,0,0,.1.16h0v1h.47v-1a.14.14,0,0,0,.12-.12V6.62a.12.12,0,0,0-.12-.12"/><path class="cls-7" d="M87.48,8.62h-.6a.1.1,0,0,1-.1-.08V8.19a.09.09,0,0,1,.1-.1h.6a.11.11,0,0,1,.1.1v.29a.1.1,0,0,1-.1.1h0"/><path class="cls-4" d="M87.54,13.29h-.46a.12.12,0,0,1-.12-.12v-.41a.13.13,0,0,1,.11-.12V11.56h.47v1.08a.12.12,0,0,1,.12.12v.43a.14.14,0,0,1-.12.12"/><path class="cls-7" d="M87.48,11.19h-.6a.09.09,0,0,0-.1.08v.31a.1.1,0,0,0,.1.1h.6a.12.12,0,0,0,.1-.1v-.31a.09.09,0,0,0-.1-.1h0"/><path class="cls-4" d="M88.66,6.5h-.45a.12.12,0,0,0-.12.12V7a.13.13,0,0,0,.1.16h0v1h.47v-1a.13.13,0,0,0,.11-.12V6.62a.12.12,0,0,0-.12-.12"/><path class="cls-7" d="M88.6,8.62H88a.1.1,0,0,1-.1-.08V8.19a.09.09,0,0,1,.1-.1h.6a.09.09,0,0,1,.1.1h0v.29a.09.09,0,0,1-.08.1h0"/><path class="cls-4" d="M88.66,13.29h-.45a.14.14,0,0,1-.12-.12v-.41a.12.12,0,0,1,.12-.12V11.56h.47v1.08a.13.13,0,0,1,.11.12v.43a.12.12,0,0,1-.12.12"/><path class="cls-7" d="M88.6,11.19H88a.09.09,0,0,0-.1.08v.31a.1.1,0,0,0,.1.1h.6a.1.1,0,0,0,.1-.1h0v-.31a.08.08,0,0,0-.08-.1h0"/><path class="cls-4" d="M89.8,6.5h-.46a.12.12,0,0,0-.12.12V7a.13.13,0,0,0,.1.16h0v1h.47v-1a.14.14,0,0,0,.12-.12V6.62a.12.12,0,0,0-.12-.12"/><path class="cls-7" d="M89.74,8.62h-.61A.09.09,0,0,1,89,8.53h0V8.19a.1.1,0,0,1,.09-.1h.61a.11.11,0,0,1,.1.1v.29a.1.1,0,0,1-.1.1h0"/><path class="cls-4" d="M89.8,13.29h-.46a.13.13,0,0,1-.13-.1v-.43a.13.13,0,0,1,.11-.12V11.56h.48v1.08a.12.12,0,0,1,.12.12v.43a.14.14,0,0,1-.12.12"/><path class="cls-7" d="M89.74,11.19h-.61a.09.09,0,0,0-.09.09h0v.29a.11.11,0,0,0,.09.1h.61a.12.12,0,0,0,.1-.1v-.31a.09.09,0,0,0-.1-.1h0"/><path class="cls-4" d="M90.93,6.5h-.45a.13.13,0,0,0-.13.12V7a.13.13,0,0,0,.1.16h0v1h.47v-1a.13.13,0,0,0,.11-.12V6.62a.12.12,0,0,0-.12-.12"/><path class="cls-7" d="M90.88,8.62h-.61a.1.1,0,0,1-.1-.1h0V8.19a.11.11,0,0,1,.1-.1h.61a.1.1,0,0,1,.09.1v.29a.09.09,0,0,1-.08.1h0"/><path class="cls-4" d="M90.93,13.29h-.45a.13.13,0,0,1-.13-.1v-.43a.12.12,0,0,1,.12-.12V11.56h.47v1.08a.13.13,0,0,1,.11.12v.43a.12.12,0,0,1-.12.12"/><path class="cls-7" d="M90.88,11.19h-.61a.09.09,0,0,0-.1.1h0v.29a.12.12,0,0,0,.1.1h.61a.11.11,0,0,0,.09-.1v-.31a.08.08,0,0,0-.08-.1h0"/><path class="cls-4" d="M92.05,6.5H91.6a.12.12,0,0,0-.12.12V7a.13.13,0,0,0,.1.16h0v1h.47v-1a.14.14,0,0,0,.15-.13V6.62a.13.13,0,0,0-.13-.12"/><path class="cls-7" d="M92,8.62h-.61a.09.09,0,0,1-.09-.09h0V8.19a.1.1,0,0,1,.09-.1H92a.11.11,0,0,1,.1.1v.29a.1.1,0,0,1-.1.1"/><path class="cls-4" d="M92.05,13.29H91.6a.12.12,0,0,1-.12-.1v-.43a.13.13,0,0,1,.11-.12V11.56h.47v1.08a.14.14,0,0,1,.15.12v.43a.13.13,0,0,1-.13.12"/><path class="cls-7" d="M92,11.19h-.61a.09.09,0,0,0-.09.09h0v.29a.11.11,0,0,0,.09.1H92a.12.12,0,0,0,.1-.1v-.31a.09.09,0,0,0-.1-.1"/><path class="cls-4" d="M93.21,6.5h-.46a.12.12,0,0,0-.12.12V7a.13.13,0,0,0,.1.16h0v1h.46v-1a.14.14,0,0,0,.12-.12V6.62a.12.12,0,0,0-.12-.12"/><path class="cls-7" d="M93.16,8.62h-.6a.1.1,0,0,1-.1-.08V8.19a.09.09,0,0,1,.1-.1h.6a.12.12,0,0,1,0,.1v.29a.1.1,0,0,1-.1.1"/><path class="cls-4" d="M93.21,13.29h-.46a.13.13,0,0,1-.11-.1v-.43a.13.13,0,0,1,.11-.12V11.56h.46v1.08a.12.12,0,0,1,.12.12v.43a.13.13,0,0,1-.12.1"/><path class="cls-7" d="M93.16,11.19h-.6a.09.09,0,0,0-.1.08v.31a.1.1,0,0,0,.1.1h.6a.12.12,0,0,0,.1-.1v-.31a.09.09,0,0,0-.1-.1"/><path class="cls-4" d="M94.35,6.5H93.9a.12.12,0,0,0-.12.12V7a.13.13,0,0,0,.1.16h0v1h.47v-1a.15.15,0,0,0,.12-.12V6.62a.13.13,0,0,0-.13-.12"/><path class="cls-7" d="M94.3,8.62h-.61a.09.09,0,0,1-.09-.09h0V8.19a.1.1,0,0,1,.09-.1h.61a.1.1,0,0,1,.09.1v.29a.09.09,0,0,1-.08.1h0"/><path class="cls-4" d="M94.35,13.29H93.9a.12.12,0,0,1-.12-.1v-.43a.13.13,0,0,1,.11-.12V11.56h.47v1.08a.15.15,0,0,1,.12.12v.43a.13.13,0,0,1-.13.12"/><path class="cls-7" d="M94.3,11.19h-.61a.09.09,0,0,0-.09.09h0v.29a.11.11,0,0,0,.09.1h.61a.11.11,0,0,0,.09-.1v-.31a.08.08,0,0,0-.08-.1h0"/><path class="cls-7" d="M69.68,8.38c0-.14.19-.25.42-.25s.42.11.42.25-.19.24-.42.24-.42-.11-.42-.24"/><path class="cls-7" d="M69.68,11.37c0-.13.19-.24.42-.24s.42.11.42.24-.19.25-.42.25-.42-.11-.42-.25"/><path class="cls-7" d="M96,8.38c0-.14.18-.25.41-.25s.42.11.42.25-.18.24-.42.24S96,8.51,96,8.38"/><path class="cls-7" d="M96,11.37c0-.13.18-.24.41-.24s.42.11.42.24-.18.25-.42.25-.41-.11-.41-.25"/><path class="cls-8" d="M71.46,6.5H69a.13.13,0,0,0-.13.13v6a.13.13,0,0,0,.12.14h2.54"/><path class="cls-8" d="M95.63,6.5h2.51a.13.13,0,0,1,.13.13h0v6a.13.13,0,0,1-.12.14H95.61"/><rect class="cls-9" x="136.23" y="56.11" width="2.47" height="2.91" rx="0.41"/><polygon class="cls-9" points="142.07 57.56 140.61 59.01 137.69 59.01 136.23 57.56 137.69 56.11 140.61 56.11 142.07 57.56"/><path class="cls-10" d="M137.18,56.68h.35l.66,1.07h0V56.68h.33v1.59h-.35l-.66-1.06h0v1.06h-.32Z"/><path class="cls-10" d="M139.88,57.22a.35.35,0,0,0-.34-.28c-.32,0-.44.27-.44.54s.12.53.44.53a.36.36,0,0,0,.36-.35h.33a.66.66,0,0,1-.69.65.83.83,0,0,1,0-1.66.64.64,0,0,1,.68.57Z"/><rect class="cls-9" x="136.23" y="60.08" width="2.47" height="2.91" rx="0.41"/><polygon class="cls-9" points="142.07 61.54 140.61 62.99 137.69 62.99 136.23 61.54 137.69 60.08 140.61 60.08 142.07 61.54"/><path class="cls-10" d="M137.18,60.66h.35l.66,1.06h0V60.66h.33v1.58h-.35l-.66-1.06h0v1.06h-.32Z"/><path class="cls-10" d="M139.88,61.19a.33.33,0,0,0-.34-.27c-.32,0-.44.26-.44.54s.12.53.44.53.33-.14.36-.36h.33a.66.66,0,0,1-.69.65.76.76,0,0,1-.78-.82.78.78,0,0,1,.78-.84.65.65,0,0,1,.68.57Z"/><rect class="cls-9" x="136.23" y="64.09" width="2.47" height="2.91" rx="0.41"/><polygon class="cls-9" points="142.07 65.55 140.61 67 137.69 67 136.23 65.55 137.69 64.09 140.61 64.09 142.07 65.55"/><path class="cls-10" d="M137.18,64.67h.35l.66,1.06h0V64.67h.33v1.58h-.35l-.66-1.06h0v1.06h-.32Z"/><path class="cls-10" d="M139.88,65.2a.33.33,0,0,0-.34-.27c-.32,0-.44.26-.44.54s.12.53.44.53.33-.14.36-.36h.33a.66.66,0,0,1-.69.65.76.76,0,0,1-.78-.82.78.78,0,0,1,.78-.84.65.65,0,0,1,.68.57Z"/><rect class="cls-9" x="136.23" y="68.15" width="2.47" height="2.91" rx="0.41"/><polygon class="cls-9" points="142.07 69.61 140.61 71.06 137.69 71.06 136.23 69.61 137.69 68.16 140.61 68.16 142.07 69.61"/><path class="cls-10" d="M137.18,68.73h.35l.66,1.07h0V68.73h.33v1.59h-.35l-.66-1.06h0v1.06h-.32Z"/><path class="cls-10" d="M139.88,69.27a.34.34,0,0,0-.34-.28c-.32,0-.44.27-.44.54s.12.53.44.53a.36.36,0,0,0,.36-.35h.33a.66.66,0,0,1-.69.64.76.76,0,0,1-.78-.82.78.78,0,0,1,.78-.84.65.65,0,0,1,.68.57Z"/><rect class="cls-9" x="136.23" y="72.35" width="2.47" height="2.91" rx="0.41"/><polygon class="cls-9" points="142.07 73.81 140.61 75.26 137.69 75.26 136.23 73.81 137.69 72.35 140.61 72.35 142.07 73.81"/><path class="cls-10" d="M137.18,72.93h.35l.66,1.06h0V72.93h.33v1.58h-.35l-.66-1.06h0v1.06h-.32Z"/><path class="cls-10" d="M139.88,73.46a.33.33,0,0,0-.34-.27c-.32,0-.44.26-.44.54s.12.53.44.53a.36.36,0,0,0,.36-.36h.33a.66.66,0,0,1-.69.65.77.77,0,0,1-.78-.82.78.78,0,0,1,.78-.84.64.64,0,0,1,.68.57Z"/><rect class="cls-9" x="136.23" y="12.16" width="2.47" height="2.91" rx="0.41"/><polygon class="cls-9" points="142.07 13.61 140.61 15.06 137.69 15.06 136.23 13.61 137.69 12.16 140.61 12.16 142.07 13.61"/><path class="cls-10" d="M137.18,12.73h.35l.66,1.07h0V12.73h.33v1.59h-.35l-.66-1.06h0v1.06h-.32Z"/><path class="cls-10" d="M139.88,13.27a.34.34,0,0,0-.34-.28c-.32,0-.44.27-.44.54s.12.53.44.53a.36.36,0,0,0,.36-.35h.33a.66.66,0,0,1-.69.65.83.83,0,0,1,0-1.66.64.64,0,0,1,.68.57Z"/><rect class="cls-9" x="136.23" y="16.07" width="2.47" height="2.91" rx="0.41"/><polygon class="cls-9" points="142.07 17.52 140.61 18.98 137.69 18.98 136.23 17.52 137.69 16.07 140.61 16.07 142.07 17.52"/><path class="cls-10" d="M137.18,16.65h.35l.66,1.06h0V16.65h.33v1.58h-.35l-.66-1.06h0v1.06h-.32Z"/><path class="cls-10" d="M139.88,17.18a.33.33,0,0,0-.34-.27c-.32,0-.44.26-.44.54s.12.53.44.53a.36.36,0,0,0,.36-.36h.33a.66.66,0,0,1-.69.65.77.77,0,0,1-.78-.82.78.78,0,0,1,.78-.84.64.64,0,0,1,.68.57Z"/><rect class="cls-9" x="136.23" y="19.99" width="2.47" height="2.91" rx="0.41"/><polygon class="cls-9" points="142.07 21.44 140.61 22.89 137.69 22.89 136.23 21.44 137.69 19.99 140.61 19.99 142.07 21.44"/><path class="cls-10" d="M137.18,20.56h.35l.66,1.07h0V20.56h.33v1.59h-.35l-.66-1.06h0v1.06h-.32Z"/><path class="cls-10" d="M139.88,21.1a.34.34,0,0,0-.34-.28c-.32,0-.44.27-.44.54s.12.53.44.53a.36.36,0,0,0,.36-.35h.33a.66.66,0,0,1-.69.64.76.76,0,0,1-.78-.82.78.78,0,0,1,.78-.84.65.65,0,0,1,.68.58Z"/><rect class="cls-9" x="136.23" y="24.03" width="2.47" height="2.91" rx="0.41"/><polygon class="cls-9" points="142.07 25.48 140.61 26.93 137.69 26.93 136.23 25.48 137.69 24.03 140.61 24.03 142.07 25.48"/><path class="cls-10" d="M137.18,24.61h.35l.66,1.06h0V24.61h.33v1.58h-.35l-.66-1.06h0v1.06h-.32Z"/><path class="cls-10" d="M139.88,25.14a.35.35,0,0,0-.34-.28c-.32,0-.44.27-.44.55s.12.53.44.53a.36.36,0,0,0,.36-.36h.33a.66.66,0,0,1-.69.65.77.77,0,0,1-.78-.82.78.78,0,0,1,.78-.84.64.64,0,0,1,.68.57Z"/><rect class="cls-9" x="136.23" y="28" width="2.47" height="2.91" rx="0.41"/><polygon class="cls-9" points="142.07 29.45 140.61 30.9 137.69 30.9 136.23 29.45 137.69 28 140.61 28 142.07 29.45"/><path class="cls-10" d="M137.18,28.57h.35l.66,1.07h0V28.57h.33v1.59h-.35l-.66-1.06h0v1.06h-.32Z"/><path class="cls-10" d="M139.88,29.11a.34.34,0,0,0-.34-.28c-.32,0-.44.27-.44.54s.12.53.44.53a.36.36,0,0,0,.36-.35h.33a.66.66,0,0,1-.69.65.83.83,0,0,1,0-1.66.64.64,0,0,1,.68.57Z"/><rect class="cls-9" x="136.23" y="32.02" width="2.47" height="2.91" rx="0.41"/><polygon class="cls-9" points="142.07 33.47 140.61 34.92 137.69 34.92 136.23 33.47 137.69 32.02 140.61 32.02 142.07 33.47"/><path class="cls-10" d="M137.18,32.59h.35l.66,1.07h0V32.59h.33v1.59h-.35l-.66-1.06h0v1.06h-.32Z"/><path class="cls-10" d="M139.88,33.13a.34.34,0,0,0-.34-.28c-.32,0-.44.27-.44.54s.12.53.44.53a.36.36,0,0,0,.36-.35h.33a.66.66,0,0,1-.69.64.76.76,0,0,1-.78-.82.78.78,0,0,1,.78-.84.65.65,0,0,1,.68.58Z"/><rect class="cls-9" x="136.23" y="36.08" width="2.47" height="2.91" rx="0.41"/><polygon class="cls-9" points="142.07 37.53 140.61 38.98 137.69 38.98 136.23 37.53 137.69 36.08 140.61 36.08 142.07 37.53"/><path class="cls-10" d="M137.18,36.66h.35l.66,1.06h0V36.66h.33v1.58h-.35l-.66-1.06h0v1.06h-.32Z"/><path class="cls-10" d="M139.88,37.19a.35.35,0,0,0-.34-.28c-.32,0-.44.27-.44.55s.12.53.44.53a.36.36,0,0,0,.36-.36h.33a.66.66,0,0,1-.69.65.77.77,0,0,1-.78-.82.78.78,0,0,1,.78-.84.64.64,0,0,1,.68.57Z"/><rect class="cls-9" x="136.23" y="40.27" width="2.47" height="2.91" rx="0.41"/><polygon class="cls-9" points="142.07 41.73 140.61 43.18 137.69 43.18 136.23 41.73 137.69 40.27 140.61 40.27 142.07 41.73"/><path class="cls-10" d="M137.18,40.85h.35l.66,1.06h0V40.85h.33v1.58h-.35l-.66-1.06h0v1.06h-.32Z"/><path class="cls-10" d="M139.88,41.38a.33.33,0,0,0-.34-.27c-.32,0-.44.26-.44.54s.12.53.44.53.33-.14.36-.36h.33a.66.66,0,0,1-.69.65.76.76,0,0,1-.78-.82.78.78,0,0,1,.78-.84.65.65,0,0,1,.68.57Z"/><rect class="cls-9" x="136.23" y="44.29" width="2.47" height="2.91" rx="0.41"/><polygon class="cls-9" points="142.07 45.74 140.61 47.2 137.69 47.2 136.23 45.74 137.69 44.29 140.61 44.29 142.07 45.74"/><path class="cls-10" d="M137.18,44.87h.35l.66,1.06h0V44.87h.33v1.58h-.35l-.66-1.06h0v1.06h-.32Z"/><path class="cls-10" d="M139.88,45.4a.33.33,0,0,0-.34-.27c-.32,0-.44.26-.44.54s.12.53.44.53a.36.36,0,0,0,.36-.36h.33a.66.66,0,0,1-.69.65.77.77,0,0,1-.78-.82.78.78,0,0,1,.78-.84.64.64,0,0,1,.68.57Z"/><rect class="cls-9" x="124.19" y="16.07" width="2.47" height="2.91" rx="0.41"/><polygon class="cls-9" points="122.28 16.07 125.2 16.07 126.67 17.52 125.2 18.98 122.28 18.98 120.82 17.52 122.28 16.07"/><path class="cls-10" d="M122.73,16.65h.35l.66,1.06h0V16.65h.33v1.58h-.35l-.66-1.06h0v1.06h-.33Z"/><path class="cls-10" d="M125.43,17.18a.34.34,0,0,0-.35-.27c-.31,0-.43.26-.43.54s.12.53.43.53a.36.36,0,0,0,.36-.36h.34a.67.67,0,0,1-.7.65.77.77,0,0,1-.78-.82.78.78,0,0,1,.78-.84.65.65,0,0,1,.69.57Z"/><rect class="cls-9" x="124.19" y="12.16" width="2.47" height="2.91" rx="0.41"/><polygon class="cls-9" points="122.28 12.16 125.2 12.16 126.67 13.61 125.2 15.06 122.28 15.06 120.82 13.61 122.28 12.16"/><path class="cls-10" d="M122.73,12.73h.35l.66,1.07h0V12.73h.33v1.59h-.35l-.66-1.06h0v1.06h-.33Z"/><path class="cls-10" d="M125.43,13.27a.35.35,0,0,0-.35-.28c-.31,0-.43.27-.43.54s.12.53.43.53a.36.36,0,0,0,.36-.35h.34a.68.68,0,0,1-.7.65.83.83,0,0,1,0-1.66.65.65,0,0,1,.69.57Z"/><rect class="cls-9" x="136.23" width="2.47" height="2.91" rx="0.41"/><polygon class="cls-9" points="142.07 1.45 140.61 2.9 137.69 2.9 136.23 1.45 137.69 0 140.61 0 142.07 1.45"/><path class="cls-10" d="M137.18.58h.35l.66,1.06h0V.58h.33V2.16h-.35l-.66-1.06h0V2.16h-.32Z"/><path class="cls-10" d="M139.88,1.11a.35.35,0,0,0-.34-.28c-.32,0-.44.27-.44.55s.12.53.44.53a.36.36,0,0,0,.36-.36h.33a.66.66,0,0,1-.69.65.77.77,0,0,1-.78-.82.78.78,0,0,1,.78-.84.64.64,0,0,1,.68.57Z"/><rect class="cls-9" x="124.19" width="2.47" height="2.91" rx="0.41"/><polygon class="cls-9" points="122.28 0 125.2 0 126.67 1.45 125.2 2.9 122.28 2.9 120.82 1.45 122.28 0"/><path class="cls-10" d="M122.73.58h.35l.66,1.06h0V.58h.33V2.16h-.35l-.66-1.06h0V2.16h-.33Z"/><path class="cls-10" d="M125.43,1.11a.36.36,0,0,0-.35-.28c-.31,0-.43.27-.43.55s.12.53.43.53a.36.36,0,0,0,.36-.36h.34a.67.67,0,0,1-.7.65.77.77,0,0,1-.78-.82.78.78,0,0,1,.78-.84.65.65,0,0,1,.69.57Z"/><rect class="cls-9" x="124.19" y="8.06" width="2.47" height="2.91" rx="0.41"/><polygon class="cls-9" points="122.28 8.06 125.2 8.06 126.67 9.52 125.2 10.97 122.28 10.97 120.82 9.52 122.28 8.06"/><path class="cls-10" d="M122.73,8.64h.35l.66,1.07h0V8.64h.33v1.59h-.35l-.66-1.06h0v1.06h-.33Z"/><path class="cls-10" d="M125.43,9.18a.35.35,0,0,0-.35-.28c-.31,0-.43.27-.43.54s.12.53.43.53a.36.36,0,0,0,.36-.35h.34a.67.67,0,0,1-.7.64.76.76,0,0,1-.78-.82.78.78,0,0,1,.78-.84.66.66,0,0,1,.69.57Z"/><rect class="cls-9" x="124.19" y="19.99" width="2.47" height="2.91" rx="0.41"/><polygon class="cls-9" points="122.28 19.99 125.2 19.99 126.67 21.44 125.2 22.89 122.28 22.89 120.82 21.44 122.28 19.99"/><path class="cls-10" d="M122.73,20.56h.35l.66,1.07h0V20.56h.33v1.59h-.35l-.66-1.06h0v1.06h-.33Z"/><path class="cls-10" d="M125.43,21.1a.35.35,0,0,0-.35-.28c-.31,0-.43.27-.43.54s.12.53.43.53a.36.36,0,0,0,.36-.35h.34a.67.67,0,0,1-.7.64.76.76,0,0,1-.78-.82.78.78,0,0,1,.78-.84.66.66,0,0,1,.69.58Z"/><rect class="cls-9" x="124.19" y="24.03" width="2.47" height="2.91" rx="0.41"/><polygon class="cls-9" points="122.28 24.03 125.2 24.03 126.67 25.48 125.2 26.93 122.28 26.93 120.82 25.48 122.28 24.03"/><path class="cls-10" d="M122.73,24.61h.35l.66,1.06h0V24.61h.33v1.58h-.35l-.66-1.06h0v1.06h-.33Z"/><path class="cls-10" d="M125.43,25.14a.36.36,0,0,0-.35-.28c-.31,0-.43.27-.43.54s.12.54.43.54a.36.36,0,0,0,.36-.36h.34a.67.67,0,0,1-.7.65.83.83,0,0,1,0-1.66.65.65,0,0,1,.69.57Z"/><rect class="cls-9" x="124.19" y="28.01" width="2.47" height="2.91" rx="0.41"/><polygon class="cls-9" points="122.28 28 125.2 28 126.67 29.46 125.2 30.91 122.28 30.91 120.82 29.46 122.28 28"/><path class="cls-10" d="M122.73,28.58h.35l.66,1.07h0V28.58h.33v1.59h-.35l-.66-1.06h0v1.06h-.33Z"/><path class="cls-10" d="M125.43,29.12a.35.35,0,0,0-.35-.28c-.31,0-.43.27-.43.54s.12.53.43.53a.36.36,0,0,0,.36-.35h.34a.67.67,0,0,1-.7.64.76.76,0,0,1-.78-.82.78.78,0,0,1,.78-.84.66.66,0,0,1,.69.57Z"/><rect class="cls-9" x="124.19" y="32.02" width="2.47" height="2.91" rx="0.41"/><polygon class="cls-9" points="122.28 32.02 125.2 32.02 126.67 33.47 125.2 34.92 122.28 34.92 120.82 33.47 122.28 32.02"/><path class="cls-10" d="M122.73,32.59h.35l.66,1.07h0V32.59h.33v1.59h-.35l-.66-1.06h0v1.06h-.33Z"/><path class="cls-10" d="M125.43,33.13a.35.35,0,0,0-.35-.28c-.31,0-.43.27-.43.54s.12.53.43.53a.36.36,0,0,0,.36-.35h.34a.67.67,0,0,1-.7.64.76.76,0,0,1-.78-.82.78.78,0,0,1,.78-.84.66.66,0,0,1,.69.58Z"/><rect class="cls-9" x="124.19" y="36.08" width="2.47" height="2.91" rx="0.41"/><polygon class="cls-9" points="122.28 36.08 125.2 36.08 126.67 37.53 125.2 38.98 122.28 38.98 120.82 37.53 122.28 36.08"/><path class="cls-10" d="M122.73,36.65h.35l.66,1.07h0V36.65h.33v1.59h-.35l-.66-1.06h0v1.06h-.33Z"/><path class="cls-10" d="M125.43,37.19a.35.35,0,0,0-.35-.28c-.31,0-.43.27-.43.54s.12.53.43.53a.36.36,0,0,0,.36-.35h.34a.67.67,0,0,1-.7.65.83.83,0,0,1,0-1.66.65.65,0,0,1,.69.57Z"/><rect class="cls-9" x="124.19" y="40.27" width="2.47" height="2.91" rx="0.41"/><polygon class="cls-9" points="122.28 40.27 125.2 40.27 126.67 41.73 125.2 43.18 122.28 43.18 120.82 41.73 122.28 40.27"/><path class="cls-10" d="M122.73,40.85h.35l.66,1.06h0V40.85h.33v1.58h-.35l-.66-1.06h0v1.06h-.33Z"/><path class="cls-10" d="M125.43,41.38a.34.34,0,0,0-.35-.27c-.31,0-.43.26-.43.54s.12.53.43.53a.36.36,0,0,0,.36-.36h.34a.67.67,0,0,1-.7.65.77.77,0,0,1-.78-.82.78.78,0,0,1,.78-.84.66.66,0,0,1,.69.57Z"/><rect class="cls-11" x="131.98" width="4.25" height="79.19"/><rect class="cls-11" x="126.67" width="4.25" height="79.19"/><rect class="cls-12" x="124.2" y="4.03" width="2.47" height="2.9" rx="0.41"/><rect class="cls-9" x="127.21" width="3.71" height="2.9" rx="0.35"/><rect class="cls-12" x="127.21" y="3.97" width="3.71" height="2.9" rx="0.35"/><rect class="cls-9" x="127.21" y="8.07" width="3.71" height="2.9" rx="0.35"/><rect class="cls-9" x="127.21" y="12.16" width="3.71" height="2.9" rx="0.35"/><rect class="cls-9" x="127.21" y="16.07" width="3.71" height="2.9" rx="0.35"/><rect class="cls-9" x="127.21" y="19.99" width="3.71" height="2.9" rx="0.35"/><rect class="cls-9" x="127.21" y="24.03" width="3.71" height="2.9" rx="0.35"/><rect class="cls-9" x="127.21" y="28.01" width="3.71" height="2.9" rx="0.35"/><rect class="cls-9" x="127.21" y="32.02" width="3.71" height="2.9" rx="0.35"/><rect class="cls-9" x="127.21" y="36.08" width="3.71" height="2.9" rx="0.35"/><rect class="cls-9" x="127.21" y="40.27" width="3.71" height="2.9" rx="0.35"/><rect class="cls-9" x="127.21" y="44.21" width="3.71" height="2.9" rx="0.35"/><rect class="cls-9" x="131.98" width="3.71" height="2.9" rx="0.35"/><rect class="cls-12" x="131.98" y="3.97" width="3.71" height="2.9" rx="0.35"/><rect class="cls-13" x="131.98" y="8.07" width="3.71" height="2.9" rx="0.35"/><rect class="cls-9" x="131.98" y="12.16" width="3.71" height="2.9" rx="0.35"/><rect class="cls-9" x="131.98" y="16.07" width="3.71" height="2.9" rx="0.35"/><rect class="cls-9" x="131.98" y="19.99" width="3.71" height="2.9" rx="0.35"/><rect class="cls-9" x="131.98" y="24.03" width="3.71" height="2.9" rx="0.35"/><rect class="cls-9" x="131.98" y="28.01" width="3.71" height="2.9" rx="0.35"/><rect class="cls-9" x="131.98" y="32.02" width="3.71" height="2.9" rx="0.35"/><rect class="cls-9" x="131.98" y="36.08" width="3.71" height="2.9" rx="0.35"/><rect class="cls-9" x="131.98" y="40.27" width="3.71" height="2.9" rx="0.35"/><rect class="cls-9" x="131.98" y="44.21" width="3.71" height="2.9" rx="0.35"/><rect class="cls-14" x="131.98" y="48.15" width="3.71" height="2.9" rx="0.35"/><rect class="cls-14" x="131.98" y="52.07" width="3.71" height="2.9" rx="0.35"/><rect class="cls-9" x="131.98" y="56.11" width="3.71" height="2.9" rx="0.35"/><rect class="cls-9" x="131.98" y="60.09" width="3.71" height="2.9" rx="0.35"/><rect class="cls-9" x="131.98" y="64.1" width="3.71" height="2.9" rx="0.35"/><rect class="cls-9" x="131.98" y="68.16" width="3.71" height="2.9" rx="0.35"/><rect class="cls-9" x="131.98" y="72.35" width="3.71" height="2.9" rx="0.35"/><path class="cls-10" d="M132.54,49.45a.62.62,0,0,1,.63-.71.56.56,0,0,1,.6.54c0,.53-.56.57-.81.93h.82v.31H132.5c0-.41.25-.58.55-.78.15-.11.37-.21.37-.43a.25.25,0,0,0-.23-.27h0c-.2,0-.27.22-.27.4Z"/><path class="cls-10" d="M135.08,49.06h-.73l-.06.4h0a.41.41,0,0,1,.34-.14.54.54,0,0,1,.54.59.64.64,0,0,1-.63.64h0a.59.59,0,0,1-.65-.56h.35a.28.28,0,0,0,.29.26.31.31,0,0,0,.3-.32h0a.31.31,0,0,0-.27-.33h0a.29.29,0,0,0-.27.14h-.32l.17-1h1Z"/><path class="cls-10" d="M132.54,53.29a.61.61,0,0,1,.63-.7.55.55,0,0,1,.6.54c0,.52-.56.57-.81.93h.82v.3H132.5c0-.41.25-.57.55-.78.15-.11.37-.21.37-.43a.26.26,0,0,0-.23-.27h0c-.2,0-.27.22-.27.4Z"/><path class="cls-10" d="M135.12,52.92a2.15,2.15,0,0,0-.57,1.45h-.38a2.57,2.57,0,0,1,.59-1.42h-.83v-.33h1.19Z"/><path class="cls-10" d="M133,65.42c.15,0,.37,0,.37-.22a.24.24,0,0,0-.23-.23h0a.27.27,0,0,0-.27.31h-.34a.58.58,0,0,1,.61-.6.54.54,0,0,1,.58.48.36.36,0,0,1-.24.37h0a.39.39,0,0,1,.31.39.65.65,0,0,1-1.3-.06h.34c0,.19.1.35.3.35a.28.28,0,0,0,.29-.26h0c0-.27-.24-.26-.41-.26Z"/><path class="cls-10" d="M134.4,65.42c.15,0,.37,0,.37-.22a.23.23,0,0,0-.23-.23h0a.27.27,0,0,0-.27.31h-.33a.57.57,0,0,1,.6-.6.53.53,0,0,1,.58.48.34.34,0,0,1-.24.37h0a.37.37,0,0,1,.31.39.65.65,0,0,1-1.3-.06h.34c0,.19.1.35.31.35a.28.28,0,0,0,.28-.26h0c0-.27-.23-.26-.4-.26Z"/><path class="cls-10" d="M133,69.49c.15,0,.37,0,.37-.21a.23.23,0,0,0-.23-.23h0c-.18,0-.27.13-.27.31h-.34a.59.59,0,0,1,.61-.61.54.54,0,0,1,.58.49.36.36,0,0,1-.24.36h0a.4.4,0,0,1,.31.39.65.65,0,0,1-1.3,0h.34a.31.31,0,0,0,.3.34.28.28,0,0,0,.29-.26h0c0-.27-.24-.26-.41-.26Z"/><path class="cls-10" d="M135.08,69.08h-.73l-.06.4h0a.43.43,0,0,1,.34-.13.54.54,0,0,1,.54.59.63.63,0,0,1-.63.63h0a.59.59,0,0,1-.65-.56h.35a.29.29,0,0,0,.29.27.32.32,0,0,0,.3-.33h0a.32.32,0,0,0-.27-.33h0a.29.29,0,0,0-.27.14h-.32l.17-1h1Z"/><path class="cls-10" d="M132.54,57.4a.62.62,0,0,1,.63-.7.55.55,0,0,1,.6.54c0,.53-.56.57-.81.93h.82v.3H132.5c0-.4.25-.57.55-.77.15-.11.37-.22.37-.43a.26.26,0,0,0-.23-.27h0c-.2,0-.27.22-.27.4Z"/><path class="cls-10" d="M134.25,58a.26.26,0,0,0,.23.22c.26,0,.32-.34.34-.53h0a.43.43,0,0,1-.39.2.56.56,0,0,1-.4-.19.57.57,0,0,1-.14-.38.61.61,0,0,1,.61-.64c.53,0,.67.46.67.9s-.19.91-.68.91a.53.53,0,0,1-.57-.48Zm.54-.72a.31.31,0,0,0-.28-.32h0a.33.33,0,0,0,0,.65c.19,0,.28-.15.28-.33Z"/><path class="cls-10" d="M133,61.48c.15,0,.37,0,.37-.22a.23.23,0,0,0-.23-.23h0c-.18,0-.27.13-.27.31h-.34a.58.58,0,0,1,.61-.6.54.54,0,0,1,.58.48.36.36,0,0,1-.24.36h0a.41.41,0,0,1,.31.4.6.6,0,0,1-.65.57.59.59,0,0,1-.65-.63h.34a.3.3,0,0,0,.3.34.28.28,0,0,0,.29-.25v0c0-.26-.24-.26-.41-.26Z"/><path class="cls-10" d="M134.81,62.51h-.36V61.38H134v-.27c.24,0,.47-.08.51-.34h.28Z"/><path class="cls-10" d="M133,73.7c.15,0,.37,0,.37-.22a.23.23,0,0,0-.23-.23h0c-.18,0-.27.13-.27.31h-.34a.58.58,0,0,1,.61-.6.54.54,0,0,1,.58.48.35.35,0,0,1-.24.36h0a.41.41,0,0,1,.31.4.6.6,0,0,1-.65.57.59.59,0,0,1-.65-.63h.34a.3.3,0,0,0,.3.34.28.28,0,0,0,.29-.25v0c0-.26-.24-.26-.41-.26Z"/><path class="cls-10" d="M135.12,73.3a2.12,2.12,0,0,0-.57,1.44h-.38a2.57,2.57,0,0,1,.59-1.42h-.83V73h1.19Z"/><rect class="cls-12" x="131.98" y="76.29" width="3.71" height="2.9" rx="0.35"/><rect class="cls-14" x="127.21" y="48.15" width="3.71" height="2.9" rx="0.35"/><path class="cls-10" d="M133,77.65c.15,0,.37,0,.37-.22a.23.23,0,0,0-.23-.23h0c-.18,0-.27.13-.27.31h-.34a.58.58,0,0,1,.61-.6.54.54,0,0,1,.58.48.36.36,0,0,1-.24.36h0a.41.41,0,0,1,.31.4.6.6,0,0,1-.65.57.59.59,0,0,1-.65-.63h.34a.3.3,0,0,0,.3.34.27.27,0,0,0,.29-.25v0c0-.26-.24-.25-.41-.25Z"/><path class="cls-10" d="M134.25,78.24a.26.26,0,0,0,.23.22c.26,0,.32-.34.34-.53h0a.43.43,0,0,1-.39.2.6.6,0,0,1-.4-.18.62.62,0,0,1-.14-.39.61.61,0,0,1,.61-.64c.53,0,.67.46.67.9s-.19.91-.68.91a.53.53,0,0,1-.57-.48Zm.54-.71a.31.31,0,0,0-.29-.33.29.29,0,0,0-.27.32.3.3,0,0,0,.27.33.28.28,0,0,0,.28-.32Z"/><rect class="cls-14" x="127.21" y="52.07" width="3.71" height="2.9" rx="0.35"/><rect class="cls-9" x="127.21" y="56.11" width="3.71" height="2.9" rx="0.35"/><rect class="cls-9" x="127.21" y="60.09" width="3.71" height="2.9" rx="0.35"/><rect class="cls-9" x="127.21" y="64.1" width="3.71" height="2.9" rx="0.35"/><rect class="cls-9" x="127.21" y="68.16" width="3.71" height="2.9" rx="0.35"/><rect class="cls-15" x="127.21" y="72.35" width="3.71" height="2.9" rx="0.35"/><rect class="cls-12" x="127.21" y="76.29" width="3.71" height="2.9" rx="0.35"/><path class="cls-10" d="M128.46,1.44a.62.62,0,0,1,.63-.7.55.55,0,0,1,.6.54c0,.53-.56.57-.81.93h.82v.3h-1.28c0-.4.25-.57.55-.78s.37-.21.37-.42a.25.25,0,0,0-.23-.27h0c-.21,0-.28.21-.28.4Z"/><path class="cls-10" d="M127.77,49.45a.62.62,0,0,1,.63-.71.56.56,0,0,1,.6.55c0,.53-.56.57-.81.93H129v.3h-1.28c0-.41.25-.57.55-.78s.37-.21.37-.42a.26.26,0,0,0-.23-.27h0c-.21,0-.27.22-.27.41Z"/><path class="cls-10" d="M130,49.22a.25.25,0,0,0-.24-.21c-.25,0-.32.33-.33.53h0a.42.42,0,0,1,.39-.19.52.52,0,0,1,.4.18.54.54,0,0,1,.13.39.6.6,0,0,1-.57.63h0c-.52,0-.67-.46-.67-.9s.19-.91.69-.91a.53.53,0,0,1,.56.48Zm-.54.72a.3.3,0,0,0,.28.32h0a.29.29,0,0,0,.27-.32c0-.16-.08-.33-.27-.33a.29.29,0,0,0-.28.33Z"/><path class="cls-10" d="M128.25,61.51c.15,0,.37,0,.37-.22a.23.23,0,0,0-.23-.23h0c-.18,0-.27.13-.27.31h-.34a.59.59,0,0,1,.61-.6.53.53,0,0,1,.58.48.36.36,0,0,1-.24.36h0a.41.41,0,0,1,.31.4.6.6,0,0,1-.65.57.59.59,0,0,1-.65-.63h.34c0,.19.1.34.3.34a.27.27,0,0,0,.29-.25v0c0-.26-.23-.26-.41-.26Z"/><path class="cls-10" d="M129.15,61.47a.62.62,0,0,1,.64-.7.55.55,0,0,1,.59.54c0,.53-.56.57-.81.93h.83v.3h-1.28c0-.4.24-.57.55-.78.15-.1.36-.21.36-.42a.25.25,0,0,0-.23-.27h0c-.21,0-.28.21-.28.4Z"/><path class="cls-10" d="M128.25,69.52c.15,0,.37,0,.37-.21a.23.23,0,0,0-.23-.23h0c-.18,0-.27.13-.27.31h-.34a.59.59,0,0,1,.61-.6.53.53,0,0,1,.58.48.36.36,0,0,1-.24.36h0a.41.41,0,0,1,.31.4.65.65,0,0,1-1.3-.06h.34c0,.19.1.34.3.34a.28.28,0,0,0,.29-.26h0c0-.26-.23-.26-.41-.26Z"/><path class="cls-10" d="M130,69.27a.27.27,0,0,0-.24-.22c-.25,0-.32.34-.33.53h0a.42.42,0,0,1,.39-.19.55.55,0,0,1,.4.18.56.56,0,0,1,.13.39.6.6,0,0,1-.57.63h0c-.52,0-.67-.46-.67-.9s.19-.91.69-.91a.53.53,0,0,1,.56.48Zm-.54.71a.31.31,0,0,0,.28.33h0A.29.29,0,0,0,130,70c0-.16-.08-.33-.27-.33a.29.29,0,0,0-.28.32Z"/><path class="cls-10" d="M128.25,73.73c.15,0,.37,0,.37-.21a.23.23,0,0,0-.23-.24h0a.27.27,0,0,0-.27.31h-.34a.59.59,0,0,1,.61-.6.53.53,0,0,1,.58.48.36.36,0,0,1-.24.37h0a.41.41,0,0,1,.31.4.6.6,0,0,1-.65.57.59.59,0,0,1-.65-.63h.34c0,.19.1.34.3.34a.28.28,0,0,0,.29-.26h0c0-.26-.23-.26-.41-.26Z"/><path class="cls-10" d="M129.76,73a.52.52,0,0,1,.58.47.36.36,0,0,1-.26.36h0a.39.39,0,0,1,.33.42.59.59,0,0,1-.65.55c-.33,0-.66-.17-.66-.54a.4.4,0,0,1,.33-.43h0a.35.35,0,0,1-.26-.36A.53.53,0,0,1,129.76,73Zm0,1.55a.29.29,0,0,0,.29-.28s0,0,0,0a.3.3,0,0,0-.29-.28h0a.28.28,0,0,0-.31.28.29.29,0,0,0,.29.3Zm0-.82a.23.23,0,0,0,.26-.23.24.24,0,0,0-.22-.24h0a.24.24,0,0,0-.27.22v0a.24.24,0,0,0,.27.24Z"/><path class="cls-10" d="M128.45,78.21h-.73v-.32l.75-1h.32v1H129v.29h-.23v.4h-.34Zm0-.9h0l-.45.61h.45Z"/><path class="cls-10" d="M129.75,76.83c.35,0,.64.22.64.91s-.29.91-.64.91-.64-.22-.64-.91S129.41,76.83,129.75,76.83Zm0,1.53c.29,0,.29-.43.29-.63s0-.6-.29-.6-.28.42-.28.6S129.47,78.36,129.75,78.36Z"/><path class="cls-10" d="M127.77,53.29a.61.61,0,0,1,.63-.7.55.55,0,0,1,.6.54c0,.52-.56.57-.81.93H129v.3h-1.28c0-.41.25-.57.55-.78s.37-.21.37-.43a.27.27,0,0,0-.23-.27h0c-.21,0-.27.22-.27.4Z"/><path class="cls-10" d="M129.76,52.59a.51.51,0,0,1,.58.46.35.35,0,0,1-.26.36h0a.4.4,0,0,1,.33.43.58.58,0,0,1-.65.54c-.33,0-.66-.17-.66-.54a.4.4,0,0,1,.33-.43h0a.35.35,0,0,1-.26-.36C129.17,52.75,129.47,52.59,129.76,52.59Zm0,1.54a.28.28,0,0,0,.29-.27v0a.29.29,0,0,0-.29-.28h0a.27.27,0,0,0-.31.27.29.29,0,0,0,.29.3Zm0-.81a.23.23,0,0,0,.26-.23.23.23,0,0,0-.22-.24h0a.23.23,0,0,0-.27.21v0a.25.25,0,0,0,.27.24Z"/><path class="cls-10" d="M128.25,57.47c.15,0,.37,0,.37-.21a.23.23,0,0,0-.23-.23h0c-.18,0-.27.13-.27.31h-.34a.59.59,0,0,1,.61-.6.53.53,0,0,1,.58.48.36.36,0,0,1-.24.36h0a.41.41,0,0,1,.31.4.65.65,0,0,1-1.3-.06h.34c0,.19.1.34.3.34a.28.28,0,0,0,.29-.26h0c0-.26-.23-.26-.41-.26Z"/><path class="cls-10" d="M129.75,56.73c.35,0,.64.22.64.9s-.29.92-.64.92-.64-.22-.64-.92S129.41,56.73,129.75,56.73Zm0,1.52c.29,0,.29-.42.29-.62s0-.61-.29-.61-.28.43-.28.61S129.47,58.25,129.75,58.25Z"/><path class="cls-10" d="M128.25,65.42c.15,0,.37,0,.37-.22a.24.24,0,0,0-.23-.23h0a.27.27,0,0,0-.27.31h-.34a.59.59,0,0,1,.61-.6.53.53,0,0,1,.58.48.36.36,0,0,1-.24.37h0a.39.39,0,0,1,.31.39.65.65,0,0,1-1.3-.06h.34c0,.19.1.35.3.35a.28.28,0,0,0,.29-.26h0c0-.27-.23-.26-.41-.26Z"/><path class="cls-10" d="M129.84,66.06h-.74v-.33l.76-1h.31v1h.23v.3h-.23v.4h-.33Zm0-.9h0l-.45.6h.46Z"/><path class="cls-10" d="M134.12,2.41h-.36V1.28h-.44V1c.25,0,.47-.08.51-.35h.29Z"/><path class="cls-10" d="M133.71,5.34c.15,0,.37,0,.37-.21a.24.24,0,0,0-.23-.24h0c-.18,0-.27.13-.27.31h-.34a.59.59,0,0,1,.61-.61.54.54,0,0,1,.58.49.35.35,0,0,1-.24.36h0a.4.4,0,0,1,.31.4.65.65,0,0,1-1.3-.06h.34c0,.19.1.34.3.34a.27.27,0,0,0,.29-.25v0c0-.26-.23-.26-.4-.26Z"/><path class="cls-10" d="M134.38,9h-.72l-.07.4h0a.43.43,0,0,1,.34-.13.54.54,0,0,1,.54.59.63.63,0,0,1-.63.63h0a.57.57,0,0,1-.64-.55h.35a.28.28,0,0,0,.29.26.31.31,0,0,0,.3-.33h0a.31.31,0,0,0-.27-.33h0a.29.29,0,0,0-.27.14h-.32l.17-1h1Z"/><path class="cls-10" d="M133.56,17.91a.25.25,0,0,0,.23.22c.26,0,.32-.34.34-.53h0a.44.44,0,0,1-.39.19.54.54,0,0,1-.4-.18.62.62,0,0,1-.14-.39.61.61,0,0,1,.61-.64c.53,0,.67.46.67.9s-.19.92-.68.92a.54.54,0,0,1-.57-.49Zm.53-.71a.29.29,0,0,0-.27-.32h0a.32.32,0,0,0,0,.64A.28.28,0,0,0,134.09,17.2Z"/><path class="cls-10" d="M133.42,22.33h-.35V21.2h-.44v-.26c.25,0,.47-.08.51-.35h.28Z"/><path class="cls-10" d="M134.81,22.33h-.36V21.2H134v-.26c.24,0,.47-.08.51-.35h.28Z"/><path class="cls-10" d="M133.42,34.43h-.35V33.3h-.44V33c.25,0,.47-.09.51-.35h.28Z"/><path class="cls-10" d="M135.12,33a2.15,2.15,0,0,0-.57,1.45h-.38a2.57,2.57,0,0,1,.59-1.42h-.83v-.33h1.19Z"/><path class="cls-10" d="M133.42,38.49h-.35V37.36h-.44v-.27c.25,0,.47-.08.51-.35h.28Z"/><path class="cls-10" d="M134.25,38a.26.26,0,0,0,.23.22c.26,0,.32-.34.34-.53h0a.43.43,0,0,1-.39.2.6.6,0,0,1-.4-.18.62.62,0,0,1-.14-.39.61.61,0,0,1,.61-.64c.53,0,.67.46.67.9s-.19.91-.68.91a.53.53,0,0,1-.57-.48Zm.54-.71a.31.31,0,0,0-.28-.33h0a.33.33,0,0,0,0,.65.28.28,0,0,0,.28-.32Z"/><path class="cls-10" d="M132.54,41.57a.62.62,0,0,1,.63-.71.56.56,0,0,1,.6.55c0,.52-.56.57-.81.92h.82v.31H132.5c0-.41.25-.57.55-.78.15-.11.37-.21.37-.43a.25.25,0,0,0-.23-.27h0c-.2,0-.27.22-.27.4Z"/><path class="cls-10" d="M134.81,42.64h-.36V41.51H134v-.27a.44.44,0,0,0,.51-.35h.28Z"/><path class="cls-10" d="M132.54,45.56a.61.61,0,0,1,.63-.7.55.55,0,0,1,.6.54c0,.53-.56.57-.81.93h.82v.3H132.5c0-.4.25-.57.55-.78.15-.11.37-.21.37-.42a.25.25,0,0,0-.23-.27h0c-.2,0-.27.21-.27.4Z"/><path class="cls-10" d="M134.4,45.6c.15,0,.37,0,.37-.22a.23.23,0,0,0-.23-.23h0c-.18,0-.27.13-.27.31h-.33a.57.57,0,0,1,.6-.6.53.53,0,0,1,.58.48.34.34,0,0,1-.24.36h0a.39.39,0,0,1,.31.4.65.65,0,0,1-1.3-.06h.34c0,.19.1.34.31.34a.27.27,0,0,0,.28-.26h0c0-.26-.23-.26-.4-.26Z"/><path class="cls-10" d="M129.15,6.09h-.74V5.76l.76-1h.31v1h.23v.29h-.23v.4h-.33Zm0-.9h0l-.45.6h.46Z"/><path class="cls-10" d="M128.65,22.44h-.35V21.31h-.44V21c.25,0,.47-.08.51-.35h.28Z"/><path class="cls-10" d="M129.15,21.37a.63.63,0,0,1,.64-.71.56.56,0,0,1,.59.55c0,.53-.56.57-.81.93h.83v.3h-1.28c0-.4.24-.57.55-.78.15-.11.36-.21.36-.42a.25.25,0,0,0-.23-.27h0c-.21,0-.28.21-.28.4Z"/><path class="cls-10" d="M128.65,30.52h-.35V29.39h-.44v-.27c.25,0,.47-.08.51-.34h.28Z"/><path class="cls-10" d="M130,29.23a.27.27,0,0,0-.24-.22c-.25,0-.32.34-.33.53h0a.41.41,0,0,1,.39-.2.55.55,0,0,1,.4.18.56.56,0,0,1,.13.39.61.61,0,0,1-.57.64h0c-.52,0-.67-.46-.67-.9s.19-.91.69-.91a.52.52,0,0,1,.56.48Zm-.54.71a.3.3,0,0,0,.28.32h0A.29.29,0,0,0,130,30c0-.16-.08-.33-.27-.33a.29.29,0,0,0-.28.32Z"/><path class="cls-10" d="M128.65,34.54h-.35V33.41h-.44v-.27c.25,0,.47-.08.51-.34h.28Z"/><path class="cls-10" d="M129.76,32.76a.52.52,0,0,1,.58.47.36.36,0,0,1-.26.36h0a.39.39,0,0,1,.33.42.59.59,0,0,1-.65.55c-.33,0-.66-.17-.66-.54a.4.4,0,0,1,.33-.43h0a.35.35,0,0,1-.26-.36A.53.53,0,0,1,129.76,32.76Zm0,1.55a.29.29,0,0,0,.29-.28s0,0,0,0a.3.3,0,0,0-.29-.28h0a.28.28,0,0,0-.31.28.29.29,0,0,0,.29.3Zm0-.82a.23.23,0,0,0,.26-.22.24.24,0,0,0-.22-.25h0a.24.24,0,0,0-.27.22v0c0,.15.12.23.27.23Z"/><path class="cls-10" d="M127.77,41.68a.62.62,0,0,1,.63-.71.56.56,0,0,1,.6.55c0,.52-.56.57-.81.93H129v.3h-1.28c0-.41.25-.57.55-.78s.37-.21.37-.43a.27.27,0,0,0-.23-.27h0c-.21,0-.27.22-.27.4Z"/><path class="cls-10" d="M129.15,41.68a.63.63,0,0,1,.64-.71.56.56,0,0,1,.59.55c0,.52-.56.57-.81.93h.83v.3h-1.28c0-.41.24-.57.55-.78.15-.11.36-.21.36-.43a.25.25,0,0,0-.23-.27h0c-.21,0-.28.22-.28.4Z"/><path class="cls-10" d="M129.34,9.29a.27.27,0,0,0-.24-.22c-.25,0-.32.34-.33.53h0a.45.45,0,0,1,.4-.19.57.57,0,0,1,.4.18.61.61,0,0,1,.13.39.6.6,0,0,1-.61.64c-.53,0-.67-.46-.67-.9s.19-.92.69-.92a.53.53,0,0,1,.56.49Zm-.54.71a.29.29,0,0,0,.27.32h0a.29.29,0,0,0,.27-.31c0-.16-.08-.33-.27-.33A.29.29,0,0,0,128.8,10Z"/><polygon class="cls-12" points="124.56 4.03 121.18 4.03 119.5 5.48 121.18 6.93 124.56 6.93 126.24 5.48 124.56 4.03"/><path class="cls-10" d="M122.11,6a.56.56,0,0,1-.44.22.76.76,0,0,1-.78-.82.78.78,0,0,1,.78-.84.64.64,0,0,1,.67.56H122a.33.33,0,0,0-.34-.27c-.31,0-.43.27-.43.54s.12.53.43.53a.34.34,0,0,0,.38-.3v0h-.35V5.34h.67V6.2h-.22Z"/><path class="cls-10" d="M122.65,4.61H123l.66,1.06h0V4.61H124V6.19h-.35L123,5.13h0V6.19h-.33Z"/><path class="cls-10" d="M124.29,4.61H125a.69.69,0,0,1,.72.78c0,.46-.23.8-.72.8h-.68Zm.35,1.29H125c.2,0,.39-.12.39-.47s-.11-.53-.45-.53h-.25Z"/><rect class="cls-12" x="124.2" y="76.29" width="2.47" height="2.9" rx="0.41"/><polygon class="cls-12" points="124.56 76.29 121.18 76.29 119.5 77.74 121.18 79.19 124.56 79.19 126.24 77.74 124.56 76.29"/><path class="cls-10" d="M122.11,78.27a.56.56,0,0,1-.44.22.83.83,0,0,1,0-1.66.64.64,0,0,1,.67.56H122a.34.34,0,0,0-.34-.27c-.31,0-.43.27-.43.55s.12.52.43.52a.33.33,0,0,0,.38-.3v0h-.35v-.26h.67v.86h-.22Z"/><path class="cls-10" d="M122.65,76.87H123l.66,1.06h0V76.87H124v1.58h-.35L123,77.39h0v1.06h-.33Z"/><path class="cls-10" d="M124.29,76.87H125a.69.69,0,0,1,.72.78c0,.46-.23.8-.72.8h-.68Zm.35,1.29H125c.2,0,.39-.13.39-.48s-.11-.52-.45-.52h-.25Z"/><rect class="cls-12" x="136.24" y="4.03" width="2.47" height="2.9" rx="0.41"/><polygon class="cls-12" points="138.38 4.03 141.75 4.03 143.43 5.49 141.75 6.94 138.38 6.94 136.69 5.49 138.38 4.03"/><path class="cls-10" d="M138.41,6a.56.56,0,0,1-.44.22.76.76,0,0,1-.78-.82.78.78,0,0,1,.78-.84.64.64,0,0,1,.67.56h-.33a.33.33,0,0,0-.34-.27c-.31,0-.43.27-.43.54s.12.53.43.53a.34.34,0,0,0,.38-.3v0H138V5.34h.66V6.2h-.22Z"/><path class="cls-10" d="M139,4.61h.34L140,5.67h0V4.61h.33V6.19h-.34l-.66-1.06h0V6.19H139Z"/><path class="cls-10" d="M140.59,4.61h.69a.69.69,0,0,1,.72.78.71.71,0,0,1-.72.8h-.69Zm.35,1.29h.31c.2,0,.39-.12.39-.47s-.11-.53-.46-.53h-.24Z"/><rect class="cls-12" x="136.24" y="76.29" width="2.47" height="2.9" rx="0.41"/><polygon class="cls-12" points="138.38 76.29 141.75 76.29 143.43 77.74 141.75 79.19 138.38 79.19 136.69 77.74 138.38 76.29"/><path class="cls-10" d="M138.41,78.27a.56.56,0,0,1-.44.22.83.83,0,0,1,0-1.66.64.64,0,0,1,.67.56h-.33a.33.33,0,0,0-.34-.27c-.31,0-.43.27-.43.54s.12.53.43.53a.34.34,0,0,0,.38-.3v0H138v-.26h.66v.86h-.22Z"/><path class="cls-10" d="M139,76.87h.34l.66,1.06h0V76.87h.33v1.58h-.34l-.66-1.06h0v1.06H139Z"/><path class="cls-10" d="M140.59,76.87h.69a.69.69,0,0,1,.72.78.71.71,0,0,1-.72.8h-.69Zm.35,1.29h.31c.2,0,.39-.13.39-.48s-.11-.52-.46-.52h-.24Z"/><path class="cls-10" d="M129.06,12.79a.52.52,0,0,1,.59.47.38.38,0,0,1-.26.37h0a.4.4,0,0,1,.33.42.59.59,0,0,1-.65.55c-.33,0-.67-.17-.67-.54a.41.41,0,0,1,.33-.43h0a.34.34,0,0,1-.25-.36A.52.52,0,0,1,129.06,12.79Zm0,1.55a.29.29,0,0,0,.3-.28v0a.28.28,0,0,0-.28-.28h0a.27.27,0,0,0-.3.28.29.29,0,0,0,.29.3h0Zm0-.82c.15,0,.27-.07.27-.22a.25.25,0,0,0-.22-.25h-.05a.24.24,0,0,0-.26.22v0a.25.25,0,0,0,.27.23Z"/><path class="cls-10" d="M128.65,18.47h-.35V17.34h-.44v-.27c.25,0,.47-.08.51-.35h.28Z"/><path class="cls-10" d="M129.75,16.69c.35,0,.64.22.64.9s-.29.92-.64.92-.64-.22-.64-.92S129.41,16.69,129.75,16.69Zm0,1.52c.29,0,.29-.42.29-.62s0-.61-.29-.61-.28.43-.28.61S129.47,18.21,129.75,18.21Z"/><path class="cls-10" d="M128.65,26.54h-.35V25.4h-.44v-.26c.25,0,.47-.08.51-.35h.28Z"/><path class="cls-10" d="M129.84,26.13h-.74v-.32l.76-1h.31v1.05h.23v.29h-.23v.41h-.33Zm0-.9h0l-.45.61h.46Z"/><path class="cls-10" d="M127.77,37.52a.61.61,0,0,1,.63-.7.55.55,0,0,1,.6.54c0,.53-.56.57-.81.93H129v.3h-1.28c0-.41.25-.57.55-.78s.37-.21.37-.42a.26.26,0,0,0-.23-.27h0c-.21,0-.27.21-.27.4Z"/><path class="cls-10" d="M129.75,36.82c.35,0,.64.22.64.9s-.29.92-.64.92-.64-.22-.64-.92S129.41,36.82,129.75,36.82Zm0,1.52c.29,0,.29-.42.29-.62s0-.61-.29-.61-.28.43-.28.61,0,.62.28.62Z"/><path class="cls-10" d="M127.77,45.65a.61.61,0,0,1,.63-.7.55.55,0,0,1,.6.54c0,.53-.56.57-.81.93H129v.3h-1.28c0-.4.25-.57.55-.78s.37-.21.37-.42a.26.26,0,0,0-.23-.27h0c-.21,0-.27.21-.27.4Z"/><path class="cls-10" d="M129.84,46.32h-.74V46l.76-1h.31V46h.23v.29h-.23v.4h-.33Zm0-.89h0l-.45.6h.46Z"/><path class="cls-10" d="M134.43,13a2.1,2.1,0,0,0-.57,1.44h-.38a2.53,2.53,0,0,1,.58-1.41h-.82v-.33h1.19Z"/><path class="cls-10" d="M133.42,26.43h-.35V25.3h-.44V25c.25,0,.47-.08.51-.35h.28Z"/><path class="cls-10" d="M134.4,25.39c.15,0,.37,0,.37-.22a.23.23,0,0,0-.23-.23h0c-.18,0-.27.13-.27.31h-.33a.57.57,0,0,1,.6-.6.53.53,0,0,1,.58.48.34.34,0,0,1-.24.36h0a.39.39,0,0,1,.31.4.65.65,0,0,1-1.3-.06h.34c0,.19.1.34.31.34a.26.26,0,0,0,.28-.25v0c0-.26-.23-.25-.4-.25Z"/><path class="cls-10" d="M133.42,30.41h-.35V29.28h-.44V29c.25,0,.47-.08.51-.35h.28Z"/><path class="cls-10" d="M135.08,29h-.73l-.06.4h0a.43.43,0,0,1,.34-.13.54.54,0,0,1,.54.59.63.63,0,0,1-.63.63h0a.59.59,0,0,1-.65-.55h.35a.28.28,0,0,0,.29.26.32.32,0,0,0,.3-.33h0a.3.3,0,0,0-.27-.32h0a.27.27,0,0,0-.27.14h-.32l.17-1h1Z"/><polygon class="cls-13" points="136.58 9.52 138.04 10.98 140.95 10.98 142.41 9.52 140.95 8.07 138.04 8.07 136.58 9.52"/><path class="cls-13" d="M136.23,8.07h4.32a.43.43,0,0,1,.43.43v2.06a.43.43,0,0,1-.43.43h-4.32a0,0,0,0,1,0,0V8.07a0,0,0,0,1,0,0Z" transform="translate(277.21 19.05) rotate(-180)"/><path class="cls-10" d="M137.64,9.32c.14,0,.33,0,.33-.2a.2.2,0,0,0-.2-.2h0a.25.25,0,0,0-.24.28h-.29a.52.52,0,0,1,.53-.55.48.48,0,0,1,.52.43.31.31,0,0,1-.21.32h0a.36.36,0,0,1,.27.35.52.52,0,0,1-.58.51.53.53,0,0,1-.58-.56h.3c0,.17.09.3.27.3a.24.24,0,0,0,.26-.22v0c0-.23-.21-.23-.37-.23Z"/><path class="cls-10" d="M139.12,10.24h-.35l-.39-1.14h.33l.24.78h0l.25-.78h.31Z"/><path class="cls-10" d="M140,9.32c.13,0,.33,0,.33-.2a.2.2,0,0,0-.2-.2h0c-.16,0-.24.12-.24.28h-.3a.53.53,0,0,1,.54-.55.48.48,0,0,1,.52.43.31.31,0,0,1-.21.32h0a.36.36,0,0,1,.27.35.52.52,0,0,1-.58.51.53.53,0,0,1-.58-.56h.3c0,.17.09.3.27.3a.24.24,0,0,0,.26-.22v0c0-.23-.21-.23-.36-.23Z"/><path class="cls-16" d="M126.4,72.34a.29.29,0,0,1,.27.29V75a.29.29,0,0,1-.28.28h-3.51L121,73.8l1.9-1.46h3.52Z"/><polygon class="cls-16" points="126.75 73.8 125.29 72.34 122.37 72.34 120.91 73.8 122.37 75.25 125.29 75.25 126.75 73.8"/><path class="cls-10" d="M123.75,73.59a.36.36,0,0,0-.35-.27c-.31,0-.43.26-.43.54s.12.53.43.53a.34.34,0,0,0,.36-.35h.34a.67.67,0,0,1-.7.65.84.84,0,0,1,0-1.67.65.65,0,0,1,.69.57Z"/><path class="cls-10" d="M124.34,73.06H125a.7.7,0,0,1,.73.79.71.71,0,0,1-.73.8h-.68Zm.35,1.3H125c.2,0,.4-.13.4-.48s-.12-.53-.46-.53h-.25Z"/><rect class="cls-14" x="136.24" y="52.07" width="11.04" height="2.9" rx="0.3"/><polygon class="cls-14" points="147.65 52.07 144.73 52.07 143.27 53.52 144.73 54.97 147.65 54.97 149.11 53.52 147.65 52.07"/><g class="cls-17"><path class="cls-10" d="M137.51,53.72c0,.21.17.29.35.29s.31,0,.31-.19-.24-.2-.47-.26-.47-.16-.47-.45a.53.53,0,0,1,.59-.48c.33,0,.63.14.63.51h-.33c0-.19-.15-.24-.31-.24s-.24.05-.24.18.07.14.47.24c.12,0,.47.1.47.46s-.23.5-.66.5-.68-.17-.67-.56Z"/><path class="cls-10" d="M138.71,52.67h.72a.51.51,0,1,1,0,1h-.37v.57h-.35V52.67Zm.35.74h.27c.16,0,.31,0,.31-.24s-.15-.23-.31-.23h-.27Z"/><path class="cls-10" d="M140.19,52.67h.35v1.58h-.35Z"/><path class="cls-10" d="M140.68,54.41h1.1v.11h-1.1Z"/><path class="cls-10" d="M141.94,52.67h.49l.37,1.08h0l.35-1.08h.49v1.58h-.32V53.13h0l-.39,1.12h-.26l-.39-1.11h0v1.11h-.32V52.67Z"/><path class="cls-10" d="M144,52.67h.34v1.58H144Z"/><path class="cls-10" d="M144.84,53.72c0,.21.16.29.35.29s.3,0,.3-.19-.23-.2-.47-.26-.47-.16-.47-.45a.53.53,0,0,1,.59-.48c.33,0,.64.14.64.51h-.34c0-.19-.14-.24-.31-.24s-.24.05-.24.18.08.14.47.24c.12,0,.47.1.47.46s-.22.5-.66.5-.68-.17-.67-.56Z"/><path class="cls-10" d="M146.75,52.63a.83.83,0,1,1-.78.83A.76.76,0,0,1,146.75,52.63Zm0,1.36c.31,0,.43-.26.43-.53s-.12-.54-.43-.54-.43.27-.43.54S146.43,54,146.75,54Z"/></g><rect class="cls-14" x="115.64" y="52.07" width="11.03" height="2.9" rx="0.3"/><polygon class="cls-14" points="114.04 53.52 115.5 54.97 118.41 54.97 119.87 53.52 118.41 52.07 115.5 52.07 114.04 53.52"/><rect class="cls-14" x="136.24" y="48.14" width="8.72" height="2.9" rx="0.3"/><polygon class="cls-14" points="144.99 48.14 142.07 48.14 140.61 49.59 142.07 51.04 144.99 51.04 146.45 49.59 144.99 48.14"/><rect class="cls-14" x="117.14" y="48.14" width="9.53" height="2.9" rx="0.3"/><polygon class="cls-14" points="115.02 49.59 116.48 51.04 119.39 51.04 120.85 49.59 119.39 48.15 116.48 48.15 115.02 49.59"/><g class="cls-17"><path class="cls-10" d="M115.76,53.72c0,.21.16.3.35.3s.31,0,.31-.2-.24-.2-.47-.26-.47-.16-.47-.45.3-.48.59-.48.63.14.63.51h-.34c0-.19-.14-.24-.31-.24s-.24.05-.24.18.08.14.47.24c.12,0,.47.1.47.46s-.22.51-.65.51-.68-.18-.68-.57Z"/><path class="cls-10" d="M117,52.67h.71a.51.51,0,1,1,0,1h-.37v.57H117V52.67Zm.34.74h.27c.16,0,.31,0,.31-.23s-.15-.24-.31-.24h-.27Z"/><path class="cls-10" d="M118.43,52.67h.35v1.58h-.35Z"/><path class="cls-10" d="M118.93,54.41H120v.11h-1.11Z"/><path class="cls-10" d="M120.19,52.67h.49l.37,1.09h0l.35-1.09h.49v1.58h-.32V53.13h0l-.38,1.12h-.27l-.39-1.11h0v1.11h-.33V52.67Z"/><path class="cls-10" d="M122.91,52.63a.83.83,0,1,1-.78.83A.77.77,0,0,1,122.91,52.63Zm0,1.36c.31,0,.43-.26.43-.52s-.12-.55-.43-.55-.43.27-.43.55S122.59,54,122.91,54Z"/><path class="cls-10" d="M124.16,53.72c0,.21.16.3.35.3s.3,0,.3-.2-.24-.2-.47-.26-.47-.16-.47-.45a.53.53,0,0,1,.59-.48c.33,0,.64.14.64.51h-.34c0-.19-.14-.24-.31-.24s-.24.05-.24.18.08.14.47.24c.12,0,.47.1.47.46s-.22.51-.66.51-.68-.18-.67-.57Z"/><path class="cls-10" d="M125.36,52.67h.34v1.58h-.34Z"/></g><rect class="cls-9" x="124.19" y="44.21" width="2.47" height="2.91" rx="0.41"/><polygon class="cls-9" points="122.28 44.21 125.2 44.21 126.67 45.66 125.2 47.12 122.28 47.12 120.82 45.66 122.28 44.21"/><path class="cls-10" d="M122.73,44.79h.35l.66,1.06h0V44.79h.33v1.58h-.35l-.66-1.06h0v1.06h-.33Z"/><path class="cls-10" d="M125.43,45.32a.34.34,0,0,0-.35-.27c-.31,0-.43.26-.43.54s.12.53.43.53a.36.36,0,0,0,.36-.36h.34a.67.67,0,0,1-.7.65.77.77,0,0,1-.78-.82.78.78,0,0,1,.78-.84.65.65,0,0,1,.69.57Z"/><rect class="cls-9" x="124.19" y="56.11" width="2.47" height="2.91" rx="0.41"/><polygon class="cls-9" points="122.28 56.11 125.2 56.11 126.67 57.56 125.2 59.01 122.28 59.01 120.82 57.56 122.28 56.11"/><path class="cls-10" d="M122.73,56.68h.35l.66,1.07h0V56.68h.33v1.59h-.35l-.66-1.06h0v1.06h-.33Z"/><path class="cls-10" d="M125.43,57.22a.36.36,0,0,0-.35-.28c-.31,0-.43.27-.43.54s.12.53.43.53a.36.36,0,0,0,.36-.35h.34a.67.67,0,0,1-.7.65.83.83,0,0,1,0-1.66.65.65,0,0,1,.69.57Z"/><rect class="cls-9" x="124.19" y="60.1" width="2.47" height="2.91" rx="0.41"/><polygon class="cls-9" points="122.28 60.1 125.2 60.1 126.67 61.55 125.2 63.01 122.28 63.01 120.82 61.55 122.28 60.1"/><path class="cls-10" d="M122.73,60.68h.35l.66,1.06h0V60.68h.33v1.58h-.35l-.66-1.06h0v1.06h-.33Z"/><path class="cls-10" d="M125.43,61.21a.34.34,0,0,0-.35-.27c-.31,0-.43.26-.43.54s.12.53.43.53a.36.36,0,0,0,.36-.36h.34a.67.67,0,0,1-.7.65.77.77,0,0,1-.78-.82.78.78,0,0,1,.78-.84.65.65,0,0,1,.69.57Z"/><rect class="cls-9" x="124.19" y="64.09" width="2.47" height="2.91" rx="0.41"/><polygon class="cls-9" points="122.28 64.09 125.2 64.09 126.67 65.55 125.2 67 122.28 67 120.82 65.55 122.28 64.09"/><path class="cls-10" d="M122.73,64.67h.35l.66,1.06h0V64.67h.33v1.59h-.35l-.66-1.07h0v1.07h-.33Z"/><path class="cls-10" d="M125.43,65.21a.35.35,0,0,0-.35-.28c-.31,0-.43.26-.43.54s.12.53.43.53a.36.36,0,0,0,.36-.35h.34a.67.67,0,0,1-.7.64.76.76,0,0,1-.78-.82.78.78,0,0,1,.78-.84.66.66,0,0,1,.69.57Z"/><rect class="cls-9" x="124.19" y="68.15" width="2.47" height="2.91" rx="0.41"/><polygon class="cls-9" points="122.28 68.16 125.2 68.16 126.67 69.61 125.2 71.06 122.28 71.06 120.82 69.61 122.28 68.16"/><path class="cls-10" d="M122.73,68.73h.35l.66,1.07h0V68.73h.33v1.59h-.35l-.66-1.06h0v1.06h-.33Z"/><path class="cls-10" d="M125.43,69.27a.35.35,0,0,0-.35-.28c-.31,0-.43.27-.43.54s.12.53.43.53a.36.36,0,0,0,.36-.35h.34a.67.67,0,0,1-.7.64.76.76,0,0,1-.78-.82.78.78,0,0,1,.78-.84.66.66,0,0,1,.69.57Z"/><path class="cls-10" d="M116.85,49.84c0,.21.16.29.35.29s.31,0,.31-.19-.24-.2-.47-.27-.48-.16-.48-.45.31-.48.6-.48.64.14.64.51h-.34c0-.19-.15-.24-.32-.24s-.24.05-.24.18.08.14.48.24c.12,0,.47.11.47.47s-.23.51-.66.51-.69-.18-.68-.57Z"/><path class="cls-10" d="M118.06,48.78h.71a.51.51,0,1,1,0,1h-.36v.57h-.35Zm.35.75h.27c.16,0,.31,0,.31-.24s-.15-.24-.31-.24h-.27Z"/><path class="cls-10" d="M119.54,48.78h.35v1.59h-.35Z"/><path class="cls-10" d="M120.05,50.54h1.11v.11h-1.11Z"/><path class="cls-10" d="M122.37,49.31A.34.34,0,0,0,122,49c-.32,0-.44.27-.44.55s.12.53.44.53a.36.36,0,0,0,.36-.35h.33a.66.66,0,0,1-.69.65.84.84,0,0,1,0-1.67.64.64,0,0,1,.68.57Z"/><path class="cls-10" d="M123,48.78h.35v1.29h.78v.3H123Z"/><path class="cls-10" d="M124.28,48.78h.35v.66l.62-.66h.44l-.62.63.68,1h-.44l-.48-.72-.2.21v.51h-.35Z"/><path class="cls-10" d="M137.61,49.84c0,.21.16.29.35.29s.31,0,.31-.19-.24-.2-.48-.27-.47-.16-.47-.45a.53.53,0,0,1,.59-.48c.34,0,.64.14.64.51h-.34c0-.19-.14-.24-.31-.24s-.24.05-.24.18.07.14.47.24c.12,0,.48.11.48.47s-.23.51-.67.51-.68-.18-.67-.57Z"/><path class="cls-10" d="M138.81,48.78h.72a.51.51,0,1,1,0,1h-.37v.57h-.35Zm.35.75h.27c.16,0,.31,0,.31-.24s-.15-.24-.31-.24h-.27Z"/><path class="cls-10" d="M140.3,48.78h.35v1.59h-.35Z"/><path class="cls-10" d="M140.8,50.54h1.11v.11H140.8Z"/><path class="cls-10" d="M143.13,49.31a.36.36,0,0,0-.35-.28c-.31,0-.43.27-.43.55s.12.53.43.53a.36.36,0,0,0,.36-.35h.34a.68.68,0,0,1-.7.65.84.84,0,0,1,0-1.67.65.65,0,0,1,.69.57Z"/><path class="cls-10" d="M144,49.84c0,.21.16.29.35.29s.31,0,.31-.19-.24-.2-.47-.27-.48-.16-.48-.45.31-.48.6-.48.63.14.63.51h-.34c0-.19-.14-.24-.31-.24s-.24.05-.24.18.08.14.47.24c.12,0,.48.11.48.47s-.23.51-.67.51-.68-.18-.67-.57Z"/><path class="cls-18" d="M96.62,6.66h-.25V5.89h-.3V5.7c.17,0,.33,0,.35-.23h.2Z"/><path class="cls-18" d="M96,13a.42.42,0,0,1,.43-.48.38.38,0,0,1,.41.37c0,.36-.38.39-.56.64h.57v.21H96c0-.28.17-.4.38-.54s.25-.14.25-.29a.17.17,0,0,0-.18-.19c-.14,0-.19.15-.19.28Z"/><path class="cls-18" d="M70.08,6c.1,0,.25,0,.25-.15a.16.16,0,0,0-.17-.16c-.12,0-.18.09-.18.22h-.23a.39.39,0,0,1,.41-.42.37.37,0,0,1,.4.33.24.24,0,0,1-.17.25h0a.27.27,0,0,1,.22.27.42.42,0,0,1-.45.4.4.4,0,0,1-.44-.44H70a.21.21,0,0,0,.21.24.18.18,0,0,0,.19-.19c0-.18-.16-.18-.27-.18Z"/><path class="cls-18" d="M70.92,6.36a.17.17,0,0,0,.16.14c.18,0,.22-.23.23-.36h0a.31.31,0,0,1-.27.13.42.42,0,0,1-.28-.12.44.44,0,0,1-.09-.27.42.42,0,0,1,.42-.44c.36,0,.46.32.46.62s-.13.63-.47.63a.37.37,0,0,1-.39-.33Zm.37-.5a.19.19,0,1,0-.38,0,.21.21,0,0,0,.19.23C71.23,6.09,71.29,6,71.29,5.86Z"/><path class="cls-18" d="M70.22,13.45h-.51v-.22l.52-.7h.22v.72h.16v.2h-.16v.28h-.23Zm0-.62h0l-.31.42h.32Z"/><path class="cls-18" d="M71.11,12.51c.24,0,.44.15.44.61s-.2.63-.44.63-.44-.15-.44-.63S70.87,12.51,71.11,12.51Zm0,1c.2,0,.2-.29.2-.43s0-.42-.2-.42-.2.3-.2.42S70.91,13.55,71.11,13.55Z"/></g></g></g></svg>