<svg xmlns="http://www.w3.org/2000/svg" xmlns:xlink="http://www.w3.org/1999/xlink" viewBox="0 0 83.20828 43.86002"><defs><style>.cls-1,.cls-15,.cls-17{fill:none;}.cls-2{fill:#7f7f7f;}.cls-3{fill:#333;}.cls-4{fill:#b2b2b2;}.cls-5{fill:#ec2024;}.cls-6{fill:#7373ff;}.cls-16,.cls-7{fill:#fff;}.cls-8{fill:#fff200;}.cls-9{fill:#242424;}.cls-10,.cls-15,.cls-16,.cls-17,.cls-18,.cls-19,.cls-20,.cls-21,.cls-22,.cls-23,.cls-24,.cls-25,.cls-26,.cls-27,.cls-28,.cls-9{opacity:0.5;}.cls-11{clip-path:url(#clip-path);}.cls-12,.cls-21{fill:#bf8f3e;}.cls-13{clip-path:url(#clip-path-2);}.cls-14{clip-path:url(#clip-path-3);}.cls-15,.cls-17{stroke:#fff;stroke-miterlimit:10;}.cls-15{stroke-linecap:round;stroke-width:0.28766px;}.cls-17{stroke-width:0.04794px;}.cls-18{fill:#fdfefe;}.cls-19{fill:#fffffb;}.cls-20{fill:#cbd1cf;}.cls-23{fill:#c1831f;}.cls-24{fill:#c99448;}.cls-25{fill:#dc9b21;}.cls-26{fill:#613e22;}.cls-27{fill:#c3862e;}.cls-28{fill:#dc9527;}.cls-29{fill:#eaf4fc;}.cls-30{fill:#323d49;}.cls-31{fill:#222630;}.cls-32{fill:#be8e3f;}</style><clipPath id="clip-path"><rect class="cls-1" x="44.7704" y="11.33034" width="5.15864" height="5.15864"/></clipPath><clipPath id="clip-path-2"><rect class="cls-1" x="36.65273" y="33.77427" width="5.15864" height="5.15864"/></clipPath><clipPath id="clip-path-3"><rect class="cls-1" x="1.29589" y="23.32035" width="5.15864" height="5.15864"/></clipPath></defs><g id="Layer_2" data-name="Layer 2"><g id="_12015" data-name="12015"><rect class="cls-2" x="76.86285" y="0.0005" width="2.35343" height="43.85952"/><rect class="cls-2" x="73.92243" y="0.0005" width="2.35343" height="43.85952"/><rect class="cls-3" x="72.55313" y="2.23354" width="1.3663" height="1.60759" rx="0.2273"/><rect class="cls-4" x="74.22117" width="2.0547" height="1.60759" rx="0.19533"/><rect class="cls-3" x="74.22117" y="2.19957" width="2.0547" height="1.60759" rx="0.19533"/><rect class="cls-5" x="74.22117" y="4.46658" width="2.0547" height="1.60759" rx="0.19533"/><rect class="cls-4" x="74.22117" y="6.73259" width="2.0547" height="1.60759" rx="0.19533"/><rect class="cls-4" x="74.22117" y="8.90019" width="2.0547" height="1.60759" rx="0.19533"/><rect class="cls-4" x="74.22117" y="11.06879" width="2.0547" height="1.60759" rx="0.19533"/><rect class="cls-4" x="74.22117" y="13.30932" width="2.0547" height="1.60759" rx="0.19533"/><rect class="cls-4" x="74.22117" y="15.51039" width="2.0547" height="1.60759" rx="0.19533"/><rect class="cls-4" x="74.22117" y="17.73144" width="2.0547" height="1.60759" rx="0.19533"/><rect class="cls-4" x="74.22117" y="19.98097" width="2.0547" height="1.60759" rx="0.19533"/><rect class="cls-6" x="74.22117" y="22.30493" width="2.0547" height="1.60759" rx="0.19533"/><rect class="cls-4" x="74.22117" y="24.48552" width="2.0547" height="1.60759" rx="0.19533"/><rect class="cls-4" x="76.86285" width="2.0547" height="1.60759" rx="0.19533"/><rect class="cls-3" x="76.86285" y="2.19957" width="2.0547" height="1.60759" rx="0.19533"/><rect class="cls-4" x="76.86285" y="4.46658" width="2.0547" height="1.60759" rx="0.19533"/><rect class="cls-4" x="76.86285" y="6.73259" width="2.0547" height="1.60759" rx="0.19533"/><rect class="cls-4" x="76.86285" y="8.90019" width="2.0547" height="1.60759" rx="0.19533"/><rect class="cls-4" x="76.86285" y="11.06879" width="2.0547" height="1.60759" rx="0.19533"/><rect class="cls-4" x="76.86285" y="13.30932" width="2.0547" height="1.60759" rx="0.19533"/><rect class="cls-4" x="76.86285" y="15.51039" width="2.0547" height="1.60759" rx="0.19533"/><rect class="cls-4" x="76.86285" y="17.73144" width="2.0547" height="1.60759" rx="0.19533"/><rect class="cls-4" x="76.86285" y="19.98097" width="2.0547" height="1.60759" rx="0.19533"/><rect class="cls-4" x="76.86285" y="22.30493" width="2.0547" height="1.60759" rx="0.19533"/><rect class="cls-4" x="76.86285" y="24.48552" width="2.0547" height="1.60759" rx="0.19533"/><rect class="cls-4" x="76.86285" y="26.6666" width="2.0547" height="1.60759" rx="0.19533"/><rect class="cls-4" x="76.86285" y="28.8352" width="2.0547" height="1.60759" rx="0.19533"/><rect class="cls-4" x="76.86285" y="31.07574" width="2.0547" height="1.60759" rx="0.19533"/><rect class="cls-4" x="76.86285" y="33.2768" width="2.0547" height="1.60759" rx="0.19533"/><rect class="cls-4" x="76.86285" y="35.49786" width="2.0547" height="1.60759" rx="0.19533"/><rect class="cls-4" x="76.86285" y="37.74738" width="2.0547" height="1.60759" rx="0.19533"/><rect class="cls-4" x="76.86285" y="40.07134" width="2.0547" height="1.60759" rx="0.19533"/><path class="cls-7" d="M77.17458,27.383a.34307.34307,0,0,1,.34969-.39016.30725.30725,0,0,1,.33121.30223c0,.29225-.31023.31573-.44961.51405h.4566v.16835H77.1536c0-.2248.13788-.31722.30473-.43162.08393-.05945.20282-.1174.20282-.23579a.13889.13889,0,0,0-.14487-.14987c-.1159,0-.15287.1199-.15287.22181Z"/><path class="cls-7" d="M78.58184,27.17366h-.39965l-.03846.21931v.0025a.2498.2498,0,0,1,.18883-.07444.30008.30008,0,0,1,.29974.32821.3497.3497,0,0,1-.34958.34981l-.00911-.00011a.32279.32279,0,0,1-.35869-.30624h.19583a.15437.15437,0,0,0,.15887.14488.17484.17484,0,0,0,.16707-.18229l-.00022-.004a.16636.16636,0,0,0-.15123-.18021c-.00519-.00045-.01041-.00066-.01562-.00063a.16038.16038,0,0,0-.14987.07743H77.9434l.09492-.53353h.54352Z"/><path class="cls-7" d="M77.17458,29.5141a.34284.34284,0,0,1,.34969-.39015.30682.30682,0,0,1,.33121.29973c0,.29275-.31023.31623-.44961.51455h.4566v.16835H77.1536c0-.2248.13788-.31722.30473-.43162.08393-.05945.20282-.11739.20282-.23579a.13889.13889,0,0,0-.14487-.14987c-.1159,0-.15287.1199-.15287.22181Z"/><path class="cls-7" d="M78.60333,29.31028a1.1852,1.1852,0,0,0-.31572.7993h-.20982a1.40981,1.40981,0,0,1,.32422-.78331h-.4581v-.18184h.65942Z"/><path class="cls-7" d="M77.43785,36.23171c.08442.007.20581-.00949.20581-.1199a.12737.12737,0,0,0-.12653-.12823l-.01034.00035c-.09992,0-.14987.07293-.14987.17235h-.18584a.3189.3189,0,0,1,.33371-.33371.29739.29739,0,0,1,.32372.26726.19235.19235,0,0,1-.13488.19983h0a.21481.21481,0,0,1,.17085.21931.35977.35977,0,0,1-.71688-.03248h.18534c.00449.10491.057.19034.16985.19034a.14988.14988,0,0,0,.15718-.14219l.00018-.00768c0-.14637-.12838-.14338-.2238-.14338Z"/><path class="cls-7" d="M78.20467,36.23171c.08393.007.20532-.00949.20532-.1199a.12688.12688,0,0,0-.12552-.12823l-.01086.00035c-.09991,0-.14987.07293-.14987.17235h-.18633a.31943.31943,0,0,1,.33371-.33371.29786.29786,0,0,1,.32421.26726.19233.19233,0,0,1-.13538.19983h0a.2148.2148,0,0,1,.17185.21831.36.36,0,0,1-.71738-.03247h.18634c.004.1049.05645.19033.16935.19033a.14987.14987,0,0,0,.15718-.14219l.00018-.00768c0-.14637-.12838-.14337-.2233-.14337Z"/><path class="cls-7" d="M77.43785,38.48773c.08442.0065.20581-.01.20581-.12039a.12739.12739,0,0,0-.12653-.12824l-.01034.00035c-.09992,0-.14987.07294-.14987.17235h-.18584a.31891.31891,0,0,1,.33371-.33371.29739.29739,0,0,1,.32372.26727.19183.19183,0,0,1-.13488.19982v.003a.21381.21381,0,0,1,.17085.21881.35977.35977,0,0,1-.71688-.03247h.18534c.00449.1049.057.19033.16985.19033a.14987.14987,0,0,0,.15718-.14219l.00018-.00768c0-.14637-.12838-.14337-.2238-.14337Z"/><path class="cls-7" d="M78.58184,38.25643h-.39965l-.03846.21931v.003a.2453.2453,0,0,1,.18833-.07244.3014.3014,0,0,1,.29974.32822.34969.34969,0,0,1-.35207.3473l-.00662-.00011a.32272.32272,0,0,1-.35869-.30573h.19583a.15437.15437,0,0,0,.15887.14437.17433.17433,0,0,0,.16709-.1813l-.00024-.00453a.16635.16635,0,0,0-.15123-.18021c-.00519-.00046-.01041-.00067-.01562-.00063a.16034.16034,0,0,0-.14987.07743H77.9429l.09492-.534h.544Z"/><path class="cls-7" d="M77.17458,31.7921a.34284.34284,0,0,1,.34969-.39015.30682.30682,0,0,1,.33121.29973c0,.29275-.31023.31573-.44961.51455h.4566v.16835H77.1536c0-.2248.13788-.31722.30473-.43162.08393-.05945.20282-.11739.20282-.23579a.13889.13889,0,0,0-.14487-.14987c-.1159,0-.15287.1199-.15287.22181Z"/><path class="cls-7" d="M78.12175,32.1383a.13837.13837,0,0,0,.12988.1199c.14338,0,.17785-.18734.18484-.29374l-.0045-.0025a.24227.24227,0,0,1-.2178.1079.30824.30824,0,0,1-.22181-.09991.3277.3277,0,0,1-.07443-.21531.3342.3342,0,0,1,.3377-.35269c.29225,0,.37068.25477.37068.49956s-.10441.50456-.37916.50456a.29376.29376,0,0,1-.31273-.26727Zm.29674-.39565a.16555.16555,0,0,0-.15587-.17934.15915.15915,0,0,0-.14987.17634.155.155,0,1,0,.30574.003Z"/><path class="cls-7" d="M77.43785,34.04713c.08442.007.20581-.00949.20581-.1199a.12737.12737,0,0,0-.126-.12873l-.01085.00034c-.09992,0-.14987.07294-.14987.17235h-.18584a.3189.3189,0,0,1,.33371-.3337.29777.29777,0,0,1,.32372.26776.19135.19135,0,0,1-.13488.19683v.003a.2148.2148,0,0,1,.17085.2193.35977.35977,0,0,1-.71688-.03247h.18534c.00449.10491.057.19033.16985.19033a.14987.14987,0,0,0,.15718-.14218l.00018-.00769c0-.14587-.12838-.14337-.2238-.14337Z"/><path class="cls-7" d="M78.432,34.62212h-.19583v-.626h-.24278V33.8463c.13638.004.26077-.04446.28275-.19183H78.432Z"/><path class="cls-7" d="M77.43785,40.81719c.08442.007.20581-.00949.20581-.1199a.12737.12737,0,0,0-.126-.12873l-.01085.00034c-.09992,0-.14987.07344-.14987.17235h-.18584a.3189.3189,0,0,1,.33371-.3337.29777.29777,0,0,1,.32372.26776.19235.19235,0,0,1-.13488.19983h0a.21481.21481,0,0,1,.17085.2193.35977.35977,0,0,1-.71688-.03247h.18534c.00449.10491.057.19033.16985.19033a.14986.14986,0,0,0,.15718-.14218l.00018-.00768c0-.14588-.12838-.14338-.2238-.14338Z"/><path class="cls-7" d="M78.60333,40.59538a1.18278,1.18278,0,0,0-.31572.7968h-.20982a1.4113,1.4113,0,0,1,.32422-.78331h-.4581V40.427h.65942Z"/><rect class="cls-3" x="76.86285" y="42.25193" width="2.0547" height="1.60759" rx="0.19533"/><rect class="cls-4" x="74.22117" y="26.6666" width="2.0547" height="1.60759" rx="0.19533"/><path class="cls-7" d="M77.43785,43.00477c.08442.007.20581-.00949.20581-.1199a.12737.12737,0,0,0-.126-.12873l-.01085.00034c-.09992,0-.14987.07294-.14987.17235h-.18584a.3189.3189,0,0,1,.33371-.3337.29777.29777,0,0,1,.32372.26776.19135.19135,0,0,1-.13488.19683v.003a.2148.2148,0,0,1,.17085.2193.35977.35977,0,0,1-.71688-.03247h.18534c.00449.10441.057.19033.16985.19033A.14987.14987,0,0,0,77.66,43.2977l.00018-.00768c0-.14638-.12838-.14338-.2238-.14338Z"/><path class="cls-7" d="M78.12175,43.33148a.13837.13837,0,0,0,.12988.1199c.14338,0,.17785-.18734.18484-.29374l-.003-.0025a.24331.24331,0,0,1-.21781.10741.30624.30624,0,0,1-.2218-.09992.32618.32618,0,0,1-.07444-.21481.33435.33435,0,0,1,.33771-.35319c.29224,0,.37068.25528.37068.49956s-.10441.50506-.37917.50506a.29424.29424,0,0,1-.31273-.26776Zm.29674-.39565a.16555.16555,0,0,0-.15587-.17934.15942.15942,0,0,0-.14987.17634.16259.16259,0,0,0,.14987.18235.16071.16071,0,0,0,.15587-.17935Z"/><rect class="cls-4" x="74.22117" y="28.8352" width="2.0547" height="1.60759" rx="0.19533"/><rect class="cls-4" x="74.22117" y="31.07574" width="2.0547" height="1.60759" rx="0.19533"/><rect class="cls-8" x="74.22117" y="33.2768" width="2.0547" height="1.60759" rx="0.19533"/><rect class="cls-4" x="74.22117" y="35.49786" width="2.0547" height="1.60759" rx="0.19533"/><rect class="cls-4" x="74.22117" y="37.74738" width="2.0547" height="1.60759" rx="0.19533"/><rect class="cls-4" x="74.22117" y="40.07134" width="2.0547" height="1.60759" rx="0.19533"/><rect class="cls-3" x="74.22117" y="42.25193" width="2.0547" height="1.60759" rx="0.19533"/><path class="cls-7" d="M74.91606.7988a.34285.34285,0,0,1,.34969-.39016A.30682.30682,0,0,1,75.597.70838c0,.29274-.31022.31572-.4496.51455h.4566v.16835h-.70888c0-.2248.13788-.31722.30473-.43162.08393-.05945.20283-.1174.20283-.2358a.13889.13889,0,0,0-.1273-.14957A.13749.13749,0,0,0,75.25776.574c-.11589,0-.15286.11989-.15286.2218Z"/><path class="cls-7" d="M74.53539,27.383a.34283.34283,0,0,1,.3497-.39016.3071.3071,0,0,1,.33071.30223c0,.29225-.31023.31573-.44961.51405h.4561v.16835h-.70838c0-.2248.13788-.31722.30473-.43162.08393-.05945.20233-.1174.20233-.23579a.13839.13839,0,0,0-.14438-.14987c-.11589,0-.15336.1199-.15336.22181Z"/><path class="cls-7" d="M75.7843,27.26058a.13788.13788,0,0,0-.12939-.11989c-.14087,0-.18084.18733-.18483.29324v.003a.24277.24277,0,0,1,.21831-.10741.30875.30875,0,0,1,.2218.09991.33022.33022,0,0,1,.07443.21531.33381.33381,0,0,1-.3377.35319c-.29224,0-.37118-.25527-.37118-.49956s.10491-.50455.37917-.50455a.29423.29423,0,0,1,.31322.26776Zm-.29625.39565a.16586.16586,0,0,0,.15153.179l.00434.00031a.1616.1616,0,0,0,.14737-.17684c0-.08843-.047-.18185-.14737-.18185a.16265.16265,0,0,0-.15686.17934Z"/><path class="cls-7" d="M74.79616,34.06461c.08443.007.20532-.01.20532-.11989a.12739.12739,0,0,0-.12606-.1287l-.01032.00031c-.09991,0-.14987.07294-.14987.17235H74.5289a.31943.31943,0,0,1,.33371-.33371.29756.29756,0,0,1,.32421.26727.19182.19182,0,0,1-.13488.19982v.003a.21432.21432,0,0,1,.17086.21931.35981.35981,0,0,1-.71688-.033h.18584c.004.10441.05645.18983.16985.18983a.14987.14987,0,0,0,.1567-.14271l.00016-.00716c0-.14637-.12789-.14337-.2233-.14337Z"/><path class="cls-7" d="M75.29973,34.04513a.34259.34259,0,0,1,.34969-.39016.30666.30666,0,0,1,.33071.29974c0,.29274-.31023.31572-.44961.51455h.4536v.16835h-.70887c0-.2248.13788-.31722.30473-.43162.08442-.05945.20282-.1174.20282-.23579a.13834.13834,0,0,0-.14487-.14987c-.1159,0-.15287.11989-.15287.2218Z"/><path class="cls-7" d="M74.79616,38.50622c.08443.007.20532-.0095.20532-.1199a.12739.12739,0,0,0-.12606-.1287l-.01032.00031c-.09991,0-.14987.07344-.14987.17235H74.5289a.31944.31944,0,0,1,.33371-.33371.29794.29794,0,0,1,.32421.26777.19231.19231,0,0,1-.13488.19982h0a.21481.21481,0,0,1,.17086.21931.35977.35977,0,0,1-.71688-.03247h.18584c.004.10491.05645.19033.16985.19033a.14987.14987,0,0,0,.1567-.14271l.00016-.00716c0-.14587-.12789-.14337-.2233-.14337Z"/><path class="cls-7" d="M75.7843,38.36284a.13738.13738,0,0,0-.12939-.11989c-.14087,0-.18084.18733-.18483.29374h.003a.2423.2423,0,0,1,.21781-.10741.30725.30725,0,0,1,.2218.09991.32925.32925,0,0,1,.07443.21481.33381.33381,0,0,1-.3377.35319c-.29224,0-.37118-.25527-.37118-.49956s.10491-.50505.37917-.50505a.29473.29473,0,0,1,.31322.26776Zm-.29625.39565a.16555.16555,0,0,0,.15587.17935.15757.15757,0,0,0,.14737-.17635c0-.08792-.047-.18234-.14737-.18234a.16292.16292,0,0,0-.15686.17934Z"/><path class="cls-7" d="M74.79616,40.83467c.08443.007.20532-.01.20532-.11989a.12738.12738,0,0,0-.12606-.1287l-.01032.00031c-.09991,0-.14987.07294-.14987.17235H74.5289a.31943.31943,0,0,1,.33371-.33371.29794.29794,0,0,1,.32421.26776.19131.19131,0,0,1-.13488.19683v.003a.21481.21481,0,0,1,.17086.21931.35977.35977,0,0,1-.71688-.03247h.18584c.004.1044.05645.19033.16985.19033a.14987.14987,0,0,0,.1567-.14271l.00016-.00716c0-.14637-.12789-.14337-.2233-.14337Z"/><path class="cls-7" d="M75.63443,40.425a.28731.28731,0,0,1,.32221.25927.20231.20231,0,0,1-.14038.20283v.00249a.22431.22431,0,0,1,.18035.23579.32328.32328,0,0,1-.36119.30374c-.18084,0-.36667-.09392-.36667-.29974a.22779.22779,0,0,1,.18184-.23729v-.0025a.19284.19284,0,0,1-.14188-.19982A.29251.29251,0,0,1,75.63443,40.425Zm0,.85625a.15886.15886,0,0,0,.16575-.15166l.0001-.0112a.15687.15687,0,0,0-.15908-.15461l-.00677.00025a.15363.15363,0,0,0-.17085.15336.16285.16285,0,0,0,.16165.164Zm0-.44961a.13139.13139,0,1,0,0-.26077.13488.13488,0,0,0-.149.11907l-.00084.01482a.13353.13353,0,0,0,.14987.12838Z"/><path class="cls-7" d="M74.91206,43.3145h-.40814v-.17935l.41913-.5625h.17535v.57949h.12789v.16136H75.0984v.2233h-.18634Zm0-.49657h-.004l-.24978.33521h.25377Z"/><path class="cls-7" d="M75.63043,42.55267c.19284,0,.35569.12139.35569.49956,0,.38466-.16285.50605-.35569.50605s-.35318-.12139-.35318-.50605C75.27724,42.67456,75.4386,42.55267,75.63043,42.55267Zm0,.84276c.15986,0,.15986-.2358.15986-.3447,0-.09992,0-.33671-.15986-.33671s-.15736.23579-.15736.33671c0,.1094,0,.3452.15736.3452Z"/><path class="cls-7" d="M74.53539,29.5141a.3426.3426,0,0,1,.3497-.39015.3071.3071,0,0,1,.33121.29973c0,.29275-.31073.31623-.44961.51455h.4566v.16835h-.70887c0-.2248.13788-.31722.30473-.43162.08393-.05945.20282-.11739.20282-.23579a.13889.13889,0,0,0-.14487-.14987c-.1159,0-.15336.1199-.15336.22181Z"/><path class="cls-7" d="M75.63443,29.123a.2873.2873,0,0,1,.32221.25927.20231.20231,0,0,1-.14038.20282v.0025a.22431.22431,0,0,1,.18035.23579.32291.32291,0,0,1-.36119.30323c-.18084,0-.36667-.09341-.36667-.29973a.22779.22779,0,0,1,.18184-.23729V29.587a.19285.19285,0,0,1-.14188-.19983A.29381.29381,0,0,1,75.63443,29.123Zm0,.85625a.15886.15886,0,0,0,.16575-.15166l.0001-.0112a.15636.15636,0,0,0-.16-.15261l-.00582.00024a.15364.15364,0,0,0-.17085.15337.16285.16285,0,0,0,.16365.162Zm0-.44961a.13139.13139,0,1,0,0-.26077.13488.13488,0,0,0-.149.11906l-.00084.01482a.13353.13353,0,0,0,.14987.12839Z"/><path class="cls-7" d="M74.79616,31.82858c.08443.007.20532-.0095.20532-.1199a.12739.12739,0,0,0-.12606-.1287l-.01032.00031c-.09991,0-.14987.07344-.14987.17285H74.5289a.31984.31984,0,0,1,.33371-.33421.29794.29794,0,0,1,.32421.26777.19231.19231,0,0,1-.13488.19982h0a.21481.21481,0,0,1,.17086.21931.35977.35977,0,0,1-.71688-.03247h.18584c.004.10491.05645.19033.16985.19033a.14987.14987,0,0,0,.1567-.14271l.00016-.00716c0-.14587-.12789-.14337-.2233-.14337Z"/><path class="cls-7" d="M75.63043,31.41893c.19284,0,.35569.1214.35569.49957,0,.38466-.16285.50605-.35569.50605s-.35318-.12139-.35318-.50605C75.27724,31.54033,75.4386,31.41893,75.63043,31.41893Zm0,.84276c.15986,0,.15986-.23579.15986-.34469,0-.09992,0-.33671-.15986-.33671s-.15736.23579-.15736.33671C75.47307,32.0259,75.47307,32.26169,75.63043,32.26169Z"/><path class="cls-7" d="M74.79616,36.23171c.08443.007.20532-.00949.20532-.1199a.12688.12688,0,0,0-.12552-.12823l-.01086.00035c-.09991,0-.14987.07293-.14987.17235H74.5289a.31943.31943,0,0,1,.33371-.33371.29756.29756,0,0,1,.32421.26726.19233.19233,0,0,1-.13488.19983h0a.21481.21481,0,0,1,.17086.21931.35977.35977,0,0,1-.71688-.03248h.18584c.004.10491.05645.19034.16985.19034a.14987.14987,0,0,0,.1567-.14271l.00016-.00716c0-.14637-.12789-.14338-.2233-.14338Z"/><path class="cls-7" d="M75.67889,36.5834h-.40814v-.17934l.41913-.56251h.17485V36.422h.12838v.16136h-.12838v.22431h-.18584Zm0-.49606H75.6744l-.24978.33471h.25377Z"/><path class="cls-7" d="M78.04731,1.33383h-.19583v-.626H77.6092V.56051c.13638.004.26027-.04446.28225-.19183h.15586Z"/><path class="cls-7" d="M77.82151,2.9589c.08393.007.20532-.00949.20532-.11989a.12739.12739,0,0,0-.12606-.1287l-.01032.00031c-.09991,0-.14987.07294-.14987.17235h-.18633a.31944.31944,0,0,1,.33371-.33371.29824.29824,0,0,1,.32421.26777.19183.19183,0,0,1-.13538.19683v.003a.21433.21433,0,0,1,.17086.21931.35977.35977,0,0,1-.71688-.03247h.18634c.004.10441.05645.19033.16935.19033a.14986.14986,0,0,0,.15717-.14218l.00019-.00769c0-.14637-.12838-.14337-.2233-.14337Z"/><path class="cls-7" d="M78.19618,4.99662h-.39965l-.039.2188.003.003A.24527.24527,0,0,1,77.9494,5.144a.3014.3014,0,0,1,.29974.32821.3497.3497,0,0,1-.34959.3498l-.0086-.00011a.32256.32256,0,0,1-.35869-.30623h.19583a.15386.15386,0,0,0,.15837.14487.17484.17484,0,0,0,.16707-.18228l-.00022-.00405a.16585.16585,0,0,0-.15018-.18017.16278.16278,0,0,0-.01667-.00067.15983.15983,0,0,0-.14987.07743h-.17635l.09492-.53353h.539Z"/><path class="cls-7" d="M77.73858,9.9208a.13838.13838,0,0,0,.12989.12039c.14337,0,.17784-.18784.18433-.29374l-.0025-.003a.2423.2423,0,0,1-.21781.10741.30974.30974,0,0,1-.2223-.09992.35223.35223,0,0,1,.26377-.5685c.29224,0,.37068.25528.37068.49956,0,.2368-.10491.50456-.37917.50456a.29473.29473,0,0,1-.31322-.26776Zm.29674-.39566a.16636.16636,0,0,0-.15253-.17911l-.00333-.00023a.18224.18224,0,0,0,0,.35869.16046.16046,0,0,0,.15587-.17935Z"/><path class="cls-7" d="M77.66415,12.36915h-.19583V11.7432h-.24279v-.14987c.13638.00449.26077-.044.28276-.19133h.15586Z"/><path class="cls-7" d="M78.432,12.36915h-.19583V11.7432h-.24278v-.14987c.13638.00449.26077-.044.28275-.19133H78.432Z"/><path class="cls-7" d="M77.66415,19.06927h-.19583v-.62595h-.24279V18.296c.13638.004.26077-.044.28276-.19183h.15586Z"/><path class="cls-7" d="M78.60333,18.274a1.18274,1.18274,0,0,0-.31572.7968h-.20982A1.40829,1.40829,0,0,1,78.402,18.288h-.4581v-.18383h.65942Z"/><path class="cls-7" d="M77.66415,21.3158h-.19583v-.62645h-.24279v-.14987c.13638.004.26077-.044.28276-.19183h.15586Z"/><path class="cls-7" d="M78.12175,21.06752a.13837.13837,0,0,0,.12988.11989c.14338,0,.17785-.18733.18484-.29374l-.003-.003a.2418.2418,0,0,1-.21781.10791.30924.30924,0,0,1-.2218-.09992.33021.33021,0,0,1-.07444-.21531.33421.33421,0,0,1,.33771-.35269c.29224,0,.37068.25478.37068.49956s-.10441.50456-.37917.50456a.29374.29374,0,0,1-.31273-.26726Zm.29674-.39566a.16555.16555,0,0,0-.15587-.17934.15731.15731,0,0,0-.14737.17635c0,.08842.04647.18184.14737.18184A.16145.16145,0,0,0,78.41849,20.67186Z"/><path class="cls-7" d="M77.17458,23.0198a.34281.34281,0,0,1,.34969-.39015.3074.3074,0,0,1,.33121.29973c0,.29225-.31023.31573-.44961.51405h.4566v.16835H77.1536c0-.2248.13788-.31722.30473-.43162.08393-.05945.20282-.1174.20282-.23579a.13889.13889,0,0,0-.14487-.14987c-.1159,0-.15336.11989-.15336.22181Z"/><path class="cls-7" d="M78.432,23.61628h-.19583v-.62595h-.24278v-.14987c.13638.004.26077-.04446.28275-.19183H78.432Z"/><path class="cls-7" d="M77.17458,25.23286a.34259.34259,0,0,1,.34969-.39016.3071.3071,0,0,1,.33121.29974c0,.29224-.31023.31572-.44961.51405h.4566v.16835H77.1536c0-.2248.13788-.31722.30473-.43162.08393-.05945.20282-.1174.20282-.23579a.13889.13889,0,0,0-.14487-.14987c-.1159,0-.15336.11989-.15336.2218Z"/><path class="cls-7" d="M78.20467,25.25234c.08393.007.20532-.01.20532-.11989a.12739.12739,0,0,0-.12606-.1287l-.01032.00031c-.09991,0-.14987.07294-.14987.17235h-.18633a.31944.31944,0,0,1,.33371-.33371.29786.29786,0,0,1,.32421.26727.19182.19182,0,0,1-.13538.19732v.003a.21482.21482,0,0,1,.17136.21931.36007.36007,0,0,1-.71738-.033h.18634c.004.10441.05645.19033.16985.19033a.14986.14986,0,0,0,.1567-.14271l.00016-.00716c0-.14637-.12789-.14337-.2233-.14337Z"/><path class="cls-7" d="M75.29522,3.36954h-.41013V3.1902l.41913-.56251h.17535v.5805H75.608v.16135h-.12838v.22331h-.18634Zm0-.49656h-.004l-.24978.33521h.25377Z"/><path class="cls-7" d="M75.02247,12.42909h-.19583v-.627h-.24129v-.14737c.13638.004.26077-.04446.28275-.19183H75.024Z"/><path class="cls-7" d="M75.29923,11.83362a.34332.34332,0,0,1,.34969-.39016.307.307,0,0,1,.33071.29974c0,.29224-.31023.31572-.44961.51405h.4541v.17184h-.70887c0-.2248.13788-.31722.30473-.43162.08442-.05945.20282-.11739.20282-.23579a.1384.1384,0,0,0-.14487-.14987c-.1159,0-.15287.1199-.15287.22181Z"/><path class="cls-7" d="M75.02247,16.90317h-.19583v-.62745h-.24129v-.14737c.13638.004.26077-.04446.28275-.19183H75.024Z"/><path class="cls-7" d="M75.7843,16.1863a.13788.13788,0,0,0-.12939-.1199c-.14087,0-.18084.18734-.18483.29325v.003a.24278.24278,0,0,1,.21831-.1074.30871.30871,0,0,1,.2218.09991.33022.33022,0,0,1,.07443.21531.33522.33522,0,0,1-.3377.35319c-.29224,0-.37118-.25527-.37118-.49956s.10491-.50456.37917-.50456a.29424.29424,0,0,1,.31322.26777Zm-.29625.39565a.16587.16587,0,0,0,.15153.179l.00434.0003a.1616.1616,0,0,0,.14737-.17684c0-.08842-.047-.18184-.14737-.18184a.16265.16265,0,0,0-.15686.17934Z"/><path class="cls-7" d="M75.02247,19.12872h-.19583v-.62595h-.24129V18.3529c.13638.00449.26077-.044.28275-.19133H75.024Z"/><path class="cls-7" d="M75.63443,18.14408a.28751.28751,0,0,1,.32271.25927.20229.20229,0,0,1-.14038.20282v.0025a.22431.22431,0,0,1,.18035.2358.32291.32291,0,0,1-.36119.30323c-.18084,0-.36667-.09342-.36667-.29974a.22779.22779,0,0,1,.18184-.23729v-.0025a.19284.19284,0,0,1-.14188-.19982A.29174.29174,0,0,1,75.63443,18.14408Zm0,.85625a.15837.15837,0,0,0,.16527-.15114l.00009-.01172a.15586.15586,0,0,0-.15707-.15465l-.00829.00029a.15363.15363,0,0,0-.17085.15336.16235.16235,0,0,0,.16062.16407l.01023-.00021Zm0-.44961a.13146.13146,0,1,0,0-.26077.13488.13488,0,0,0-.149.11906l-.00084.01482a.13353.13353,0,0,0,.14987.12839Z"/><path class="cls-7" d="M74.53539,23.08125a.3426.3426,0,0,1,.3497-.39016.30667.30667,0,0,1,.33071.29974c0,.29224-.31023.31572-.44961.51455h.4561v.16785h-.70838c0-.2243.13788-.31672.30473-.43112.08393-.05945.20233-.1174.20233-.2363a.13832.13832,0,0,0-.14438-.14986c-.11589,0-.15336.12039-.15336.2223Z"/><path class="cls-7" d="M75.29923,23.08125a.34309.34309,0,0,1,.34969-.39016.30666.30666,0,0,1,.33071.29974c0,.29224-.31023.31572-.44961.51455h.4541v.16785h-.70887c0-.2243.13788-.31672.30473-.43112.08442-.05945.20282-.1174.20282-.2363a.13882.13882,0,0,0-.14487-.14986c-.1159,0-.15287.12039-.15287.2223Z"/><path class="cls-7" d="M75.40014,5.14249a.13788.13788,0,0,0-.12939-.1199c-.14087,0-.18084.18734-.18483.29375h0a.24379.24379,0,0,1,.21781-.10741.30825.30825,0,0,1,.2223.09991.32925.32925,0,0,1,.07443.21481.33522.33522,0,0,1-.3377.35319c-.29274,0-.37118-.25527-.37118-.49956s.10491-.50506.37917-.50506A.29474.29474,0,0,1,75.584,5.14Zm-.29625.39565a.16587.16587,0,0,0,.1515.17907l.00387.00027a.18223.18223,0,0,0,0-.35868A.16034.16034,0,0,0,75.10389,5.53814Z"/><polygon class="cls-3" points="72.752 2.233 70.885 2.233 69.95 3.037 70.885 3.84 72.752 3.84 73.687 3.037 72.752 2.233"/><path class="cls-7" d="M71.39615,3.33058a.29573.29573,0,0,1-.24079.12039.42379.42379,0,0,1-.43112-.4556.43.43,0,0,1,.43112-.46309.35091.35091,0,0,1,.36968.30923h-.18433a.17884.17884,0,0,0-.18534-.14987c-.17335,0-.23829.14987-.23829.29974,0,.14587.06494.29324.23829.29324a.18886.18886,0,0,0,.20882-.18884h-.19433V2.95591H71.538V3.43h-.12289Z"/><path class="cls-7" d="M71.69439,2.55326h.19333l.36567.588h0v-.588h.18384V3.43H72.2449l-.36518-.587h0V3.43h-.18084Z"/><path class="cls-7" d="M72.60459,2.55326h.37816a.38547.38547,0,0,1,.39965.43312.39036.39036,0,0,1-.39965.44361h-.37816Zm.19283.71437h.17184c.1119,0,.21881-.06844.21881-.26277,0-.17684-.06294-.28974-.25327-.28974h-.13738Z"/><rect class="cls-3" x="72.55313" y="42.25243" width="1.3663" height="1.60759" rx="0.2273"/><polygon class="cls-3" points="72.752 42.252 70.885 42.252 69.95 43.056 70.885 43.86 72.752 43.86 73.687 43.056 72.752 42.252"/><path class="cls-7" d="M71.39615,43.352a.29574.29574,0,0,1-.24079.1204.42353.42353,0,0,1-.43112-.4556.42972.42972,0,0,1,.43112-.4631.35094.35094,0,0,1,.36968.30973h-.18433a.17835.17835,0,0,0-.18534-.14737c-.17335,0-.23829.14737-.23829.29974s.06494.29374.23829.29374a.18883.18883,0,0,0,.20776-.16778.1869.1869,0,0,0,.00106-.02155h-.19433v-.14388H71.538v.47409h-.12289Z"/><path class="cls-7" d="M71.69439,42.57215h.19333l.36567.58848h0v-.58848h.18384v.87673H72.2449l-.36518-.587h0v.587h-.18084Z"/><path class="cls-7" d="M72.60459,42.57215h.37816a.38588.38588,0,0,1,.39965.43362.39.39,0,0,1-.39965.44311h-.37816Zm.19283.71487h.17184c.1119,0,.21881-.06894.21881-.26277,0-.17684-.06294-.28974-.25327-.28974h-.13738Z"/><rect class="cls-3" x="79.22478" y="42.25193" width="1.3663" height="1.60759" rx="0.2273"/><polygon class="cls-3" points="80.407 42.252 82.273 42.252 83.208 43.056 82.273 43.86 80.407 43.86 79.472 43.056 80.407 42.252"/><path class="cls-7" d="M80.42373,43.349a.29524.29524,0,0,1-.24079.12039.46031.46031,0,0,1,0-.9187.351.351,0,0,1,.36968.30973h-.18384a.17935.17935,0,0,0-.18584-.14986c-.17285,0-.23829.14986-.23829.29973,0,.14587.06544.29324.23829.29324a.18832.18832,0,0,0,.20882-.18883h-.19383v-.14388h.36818v.47409h-.12289Z"/><path class="cls-7" d="M80.72246,42.57165h.19133l.36618.588h0v-.588h.18034v.87673h-.19283l-.36468-.587h0v.587h-.18034Z"/><path class="cls-7" d="M81.63266,42.57165h.37817a.38587.38587,0,0,1,.39965.43362.39019.39019,0,0,1-.39965.44311h-.37817Zm.19233.71437h.17235c.1114,0,.21831-.06844.21831-.26277,0-.17684-.06245-.28974-.25278-.28974H81.825Z"/><rect class="cls-3" x="79.22478" y="2.19957" width="1.3663" height="1.60759" rx="0.2273"/><polygon class="cls-3" points="80.407 2.2 82.273 2.2 83.208 3.004 82.273 3.807 80.407 3.807 79.472 3.004 80.407 2.2"/><path class="cls-7" d="M80.42373,3.29661a.29521.29521,0,0,1-.24079.12039.42368.42368,0,0,1-.43062-.4556.42591.42591,0,0,1,.43062-.46309.35094.35094,0,0,1,.36968.30973h-.18384a.17935.17935,0,0,0-.18584-.14987c-.17285,0-.23829.14987-.23829.29973,0,.14588.06544.29325.23829.29325a.18833.18833,0,0,0,.20882-.18884h-.19383V2.91844h.36818v.47408h-.12289Z"/><path class="cls-7" d="M80.72246,2.51929h.19133l.36618.588h0v-.588h.18034V3.396h-.19283l-.36468-.587h0v.587h-.18034Z"/><path class="cls-7" d="M81.63266,2.51929h.37817a.38587.38587,0,0,1,.39965.43362.39019.39019,0,0,1-.39965.44311h-.37817Zm.19233.71437h.17235c.1114,0,.21831-.06844.21831-.26277,0-.17684-.06245-.28974-.25278-.28974H81.825Z"/><path class="cls-7" d="M75.24977,7.08378a.28784.28784,0,0,1,.32271.25928.20282.20282,0,0,1-.14087.20282h0a.2248.2248,0,0,1,.18084.23579.32354.32354,0,0,1-.36118.30374c-.18034,0-.36618-.09192-.36618-.30224a.22779.22779,0,0,1,.18184-.23729h0a.19235.19235,0,0,1-.14188-.19983A.29226.29226,0,0,1,75.24977,7.08378Zm0,.85625A.15836.15836,0,0,0,75.415,7.7889l.00009-.01172a.15637.15637,0,0,0-.1581-.15462l-.00726.00025a.15339.15339,0,0,0-.17085.15337.16237.16237,0,0,0,.161.16366l.0113-.00031Zm0-.4496a.13146.13146,0,1,0,0-.26077.13487.13487,0,0,0-.149.11906l-.00084.01482a.13556.13556,0,0,0,.14987.12789Z"/><path class="cls-7" d="M75.02247,10.231h-.19583V9.60208h-.24129V9.4547c.13638.004.26077-.044.28275-.19183H75.024Z"/><path class="cls-7" d="M75.63043,9.24389c.19284,0,.35569.12139.35569.49956,0,.38466-.16285.50606-.35569.50606s-.35318-.1214-.35318-.50606C75.27724,9.36528,75.4386,9.24389,75.63043,9.24389Zm0,.84226c.15986,0,.15986-.23579.15986-.3447,0-.09991,0-.3362-.15986-.3362s-.15736.23579-.15736.3362C75.47307,9.85036,75.47307,10.08615,75.63043,10.08615Z"/><path class="cls-7" d="M75.02247,14.69461h-.19583v-.626h-.24129v-.14737c.13638.004.26077-.04447.28275-.19184H75.024Z"/><path class="cls-7" d="M75.67889,14.4713h-.40864V14.292l.41963-.56251h.17485v.58049h.12838v.16136h-.12838v.22331h-.18584Zm0-.49656H75.6744l-.24978.3352h.25377Z"/><path class="cls-7" d="M74.53539,20.78027a.34283.34283,0,0,1,.3497-.39016.30711.30711,0,0,1,.33071.30224c0,.29224-.31023.31572-.44961.514h.4561v.16836h-.70838c0-.22481.13788-.31723.30473-.43163.08393-.05944.20233-.11739.20233-.23579a.13839.13839,0,0,0-.14438-.14987c-.11589,0-.15336.1199-.15336.22181Z"/><path class="cls-7" d="M75.63043,20.39011c.19284,0,.35569.12139.35569.49956,0,.38466-.16285.50606-.35569.50606s-.35318-.1214-.35318-.50606C75.27724,20.5115,75.4386,20.39011,75.63043,20.39011Zm0,.84276c.15986,0,.15986-.23579.15986-.3447,0-.09991,0-.3367-.15986-.3367s-.15736.23579-.15736.3367c0,.10891,0,.3447.15736.3447Z"/><path class="cls-7" d="M74.53539,25.28282a.3426.3426,0,0,1,.3497-.39016.30667.30667,0,0,1,.33071.29974c0,.29274-.31023.31572-.44961.51454h.4561v.16836h-.70838c0-.22481.13788-.31722.30473-.43163.08393-.05944.20233-.11739.20233-.23579a.13839.13839,0,0,0-.14438-.14987c-.11589,0-.15336.1199-.15336.22181Z"/><path class="cls-7" d="M75.67889,25.654h-.40864v-.17934l.41963-.563h.17485v.581h.12838V25.654h-.12838v.2233h-.18584Zm0-.49656H75.6744l-.24978.3352h.25377Z"/><path class="cls-7" d="M78.21966,7.21167a1.2013,1.2013,0,0,0-.31572.7993h-.20931a1.40771,1.40771,0,0,1,.32371-.78331h-.4576V7.04532h.65892Z"/><rect class="cls-4" x="72.55413" y="24.48552" width="1.3663" height="1.60759" rx="0.2273"/><polygon class="cls-4" points="71.497 24.486 73.114 24.486 73.923 25.29 73.114 26.094 71.497 26.094 70.688 25.29 71.497 24.486"/><path class="cls-7" d="M71.74384,24.80524h.19383l.36568.588h0v-.588h.18034V25.682h-.19233l-.36518-.587h0v.587h-.18084Z"/><path class="cls-7" d="M73.23653,25.1a.19085.19085,0,0,0-.19133-.15337c-.17334,0-.23829.14737-.23829.29974,0,.14587.06495.29324.23829.29324a.19793.19793,0,0,0,.19983-.19633h.18683a.36933.36933,0,0,1-.38566.35869.46027.46027,0,0,1,0-.91869.35665.35665,0,0,1,.37817.31572Z"/><rect class="cls-4" x="72.55413" y="26.6661" width="1.3663" height="1.60759" rx="0.2273"/><polygon class="cls-4" points="71.497 26.667 73.114 26.667 73.923 27.471 73.114 28.274 71.497 28.274 70.688 27.471 71.497 26.667"/><path class="cls-7" d="M71.74384,26.98632h.19383l.36568.588h0v-.588h.18034v.87923h-.19233l-.36518-.587h0v.587h-.18084Z"/><path class="cls-7" d="M73.23653,27.28106a.19132.19132,0,0,0-.19133-.15386c-.17334,0-.23829.14737-.23829.29973,0,.14588.06495.29325.23829.29325a.19826.19826,0,0,0,.19983-.19633h.18683a.36932.36932,0,0,1-.38566.35868.46027.46027,0,0,1,0-.91869.35665.35665,0,0,1,.37817.31572Z"/><rect class="cls-4" x="72.55413" y="28.8347" width="1.3663" height="1.60759" rx="0.2273"/><polygon class="cls-4" points="71.497 28.835 73.114 28.835 73.923 29.639 73.114 30.443 71.497 30.443 70.688 29.639 71.497 28.835"/><path class="cls-7" d="M71.74384,29.15442h.19383l.36568.58848h0v-.58848h.18034v.87723h-.19233l-.36518-.587h0v.587h-.18084Z"/><path class="cls-7" d="M73.23653,29.44916a.19132.19132,0,0,0-.19133-.15336c-.17334,0-.23829.14987-.23829.29973s.06495.29375.23829.29375A.19826.19826,0,0,0,73.245,29.693h.18683a.36891.36891,0,0,1-.38566.35818.42221.42221,0,0,1-.43112-.4556.428.428,0,0,1,.43112-.46259.35662.35662,0,0,1,.37817.31522Z"/><rect class="cls-4" x="72.55413" width="1.3663" height="1.60759" rx="0.2273"/><polygon class="cls-4" points="71.497 0 73.114 0 73.923 0.805 73.114 1.608 71.497 1.608 70.688 0.805 71.497 0"/><path class="cls-7" d="M71.74384.31972h.19383l.36568.588h0v-.588h.18034v.87673h-.19233l-.36518-.587h0v.587h-.18084Z"/><path class="cls-7" d="M73.23653.61446A.19083.19083,0,0,0,73.0452.4611c-.17334,0-.23829.14737-.23829.29973,0,.14587.06495.29325.23829.29325A.19794.19794,0,0,0,73.245.85775h.18683a.36932.36932,0,0,1-.38566.35868.42379.42379,0,0,1-.43112-.4556A.426.426,0,0,1,73.0462.29774a.35665.35665,0,0,1,.37817.31572Z"/><rect class="cls-4" x="72.55413" y="6.73259" width="1.3663" height="1.60759" rx="0.2273"/><polygon class="cls-4" points="71.497 6.733 73.114 6.733 73.923 7.537 73.114 8.341 71.497 8.341 70.688 7.537 71.497 6.733"/><path class="cls-7" d="M71.74384,7.05231h.19383l.36568.588h0v-.588h.18034V7.929h-.19233l-.36518-.587h0v.587h-.18084Z"/><path class="cls-7" d="M73.23653,7.34705a.19083.19083,0,0,0-.19133-.15336c-.17334,0-.23829.14987-.23829.29974,0,.14587.06495.29324.23829.29324a.19793.19793,0,0,0,.19983-.19633h.18683a.36933.36933,0,0,1-.38566.35869.46027.46027,0,0,1,0-.9187.35665.35665,0,0,1,.37817.31572Z"/><rect class="cls-4" x="79.21928" y="6.73259" width="1.3663" height="1.60759" rx="0.2273"/><polygon class="cls-4" points="81.643 6.733 80.026 6.733 79.216 7.537 80.026 8.34 81.643 8.34 82.451 7.537 81.643 6.733"/><path class="cls-7" d="M79.80976,7.05231h.19183l.36568.588h0v-.588h.18084V7.929h-.19283l-.36468-.587h0v.587h-.18084Z"/><path class="cls-7" d="M81.30445,7.34705a.19132.19132,0,0,0-.19133-.15386c-.17334,0-.23829.14737-.23829.29974s.06495.29374.23829.29374a.19795.19795,0,0,0,.19983-.19633h.18683a.36892.36892,0,0,1-.38566.35819.42353.42353,0,0,1-.43112-.4556.4293.4293,0,0,1,.43112-.4626.35665.35665,0,0,1,.37817.31573Z"/><rect class="cls-4" x="79.21928" y="4.46608" width="1.3663" height="1.60759" rx="0.2273"/><polygon class="cls-4" points="81.643 4.466 80.026 4.466 79.216 5.27 80.026 6.074 81.643 6.074 82.451 5.27 81.643 4.466"/><path class="cls-7" d="M79.80976,4.7858h.19183l.36568.588h0v-.588h.18084v.87673h-.19283l-.36468-.587h0v.587h-.18084Z"/><path class="cls-7" d="M81.30445,5.08054a.19132.19132,0,0,0-.19133-.15386c-.17334,0-.23829.14737-.23829.29973s.06495.29375.23829.29375a.19795.19795,0,0,0,.19983-.19633h.18683a.36892.36892,0,0,1-.38566.35819.42353.42353,0,0,1-.43112-.4556.4293.4293,0,0,1,.43112-.4626.35665.35665,0,0,1,.37817.31572Z"/><rect class="cls-4" x="79.21928" y="0.04746" width="1.3663" height="1.60759" rx="0.2273"/><polygon class="cls-4" points="81.643 0.047 80.026 0.047 79.216 0.852 80.026 1.655 81.643 1.655 82.451 0.852 81.643 0.047"/><path class="cls-7" d="M79.80976.36718h.19183l.36568.588h0v-.588h.18084v.87673h-.19283l-.36468-.587h0v.587h-.18084Z"/><path class="cls-7" d="M81.30445.66192a.19134.19134,0,0,0-.19133-.15387c-.17334,0-.23829.14738-.23829.29974s.06495.29374.23829.29374A.19794.19794,0,0,0,81.313.90521h.18683a.36892.36892,0,0,1-.38566.35818A.42352.42352,0,0,1,80.683.80779.4293.4293,0,0,1,81.11412.3452a.35665.35665,0,0,1,.37817.31572Z"/><rect class="cls-4" x="72.55413" y="8.89969" width="1.3663" height="1.60759" rx="0.2273"/><polygon class="cls-4" points="71.497 8.901 73.114 8.901 73.923 9.705 73.114 10.508 71.497 10.508 70.688 9.705 71.497 8.901"/><path class="cls-7" d="M71.74384,9.21991h.19383l.36568.588h0v-.588h.18034v.87673h-.19233l-.36518-.587h0v.587h-.18084Z"/><path class="cls-7" d="M73.23653,9.51465a.19132.19132,0,0,0-.19133-.15386c-.17334,0-.23829.14737-.23829.29973,0,.14588.06495.29325.23829.29325a.19826.19826,0,0,0,.19983-.19633h.18683a.36932.36932,0,0,1-.38566.35868.46027.46027,0,0,1,0-.91869.35665.35665,0,0,1,.37817.31572Z"/><rect class="cls-4" x="79.21928" y="8.90019" width="1.3663" height="1.60759" rx="0.2273"/><polygon class="cls-4" points="81.643 8.9 80.026 8.9 79.216 9.704 80.026 10.508 81.643 10.508 82.451 9.704 81.643 8.9"/><path class="cls-7" d="M79.80976,9.21941h.19183l.36568.58848h0V9.21941h.18084v.87673h-.19283l-.36468-.587h0v.587h-.18084Z"/><path class="cls-7" d="M81.30445,9.51415a.19132.19132,0,0,0-.19133-.15336c-.17334,0-.23829.14737-.23829.29973s.06495.29375.23829.29375a.198.198,0,0,0,.19983-.19683h.18683a.369.369,0,0,1-.38566.35868.42352.42352,0,0,1-.43112-.4556.42972.42972,0,0,1,.43112-.46309.357.357,0,0,1,.37817.31572Z"/><rect class="cls-4" x="72.55413" y="11.06879" width="1.3663" height="1.60759" rx="0.2273"/><polygon class="cls-4" points="71.497 11.069 73.114 11.069 73.923 11.873 73.114 12.676 71.497 12.676 70.688 11.873 71.497 11.069"/><path class="cls-7" d="M71.74384,11.388h.19383l.36568.58848h0V11.388h.18034v.87673h-.19233l-.36468-.585h0v.587h-.18084Z"/><path class="cls-7" d="M73.23653,11.68275a.19134.19134,0,0,0-.19133-.15337c-.17334,0-.23829.14737-.23829.29974s.06495.29374.23829.29374A.19836.19836,0,0,0,73.245,11.926h.18683a.369.369,0,0,1-.38566.35868.42352.42352,0,0,1-.43112-.4556.42971.42971,0,0,1,.43112-.46309.357.357,0,0,1,.37817.31572Z"/><rect class="cls-4" x="79.21928" y="11.06879" width="1.3663" height="1.60759" rx="0.2273"/><polygon class="cls-4" points="81.643 11.069 80.026 11.069 79.216 11.873 80.026 12.676 81.643 12.676 82.451 11.873 81.643 11.069"/><path class="cls-7" d="M79.80976,11.388h.19183l.36568.58848h0V11.388h.18084v.87673h-.19283l-.36468-.587h0v.587h-.18084Z"/><path class="cls-7" d="M81.30445,11.68275a.19134.19134,0,0,0-.19133-.15337c-.17334,0-.23829.14737-.23829.29974s.06495.29374.23829.29374A.198.198,0,0,0,81.313,11.926h.18683a.36932.36932,0,0,1-.38566.35868.42352.42352,0,0,1-.43112-.4556.42971.42971,0,0,1,.43112-.46309.357.357,0,0,1,.37817.31572Z"/><rect class="cls-4" x="79.21928" y="13.31232" width="1.3663" height="1.60759" rx="0.2273"/><polygon class="cls-4" points="81.643 13.312 80.026 13.312 79.216 14.117 80.026 14.92 81.643 14.92 82.451 14.117 81.643 13.312"/><path class="cls-7" d="M79.80976,13.63154h.19183l.36568.58848h0v-.58848h.18084v.87673h-.19283l-.36468-.587h0v.587h-.18084Z"/><path class="cls-7" d="M81.30445,13.92778a.19134.19134,0,0,0-.19133-.15337c-.17334,0-.23829.14987-.23829.29974s.06495.29374.23829.29374a.198.198,0,0,0,.19983-.19682h.18683a.36932.36932,0,0,1-.38566.35868.42352.42352,0,0,1-.43112-.4556.42971.42971,0,0,1,.43112-.46309.35665.35665,0,0,1,.37817.31572Z"/><rect class="cls-4" x="72.55413" y="15.51039" width="1.3663" height="1.60759" rx="0.2273"/><polygon class="cls-4" points="71.497 15.51 73.114 15.51 73.923 16.315 73.114 17.118 71.497 17.118 70.688 16.315 71.497 15.51"/><path class="cls-7" d="M71.74384,15.83011h.19383l.36568.588h0v-.588h.18034v.87673h-.19233l-.36518-.587h0v.587h-.18084Z"/><path class="cls-7" d="M73.23653,16.12585a.19132.19132,0,0,0-.19133-.15386c-.17334,0-.23829.14987-.23829.29973,0,.14588.06495.29325.23829.29325a.19826.19826,0,0,0,.19983-.19633h.18683a.36932.36932,0,0,1-.38566.35868.42379.42379,0,0,1-.43112-.4556.43.43,0,0,1,.43112-.46309.35665.35665,0,0,1,.37817.31572Z"/><rect class="cls-4" x="72.55413" y="13.31232" width="1.3663" height="1.60759" rx="0.2273"/><polygon class="cls-4" points="71.497 13.312 73.114 13.312 73.923 14.117 73.114 14.92 71.497 14.92 70.688 14.117 71.497 13.312"/><path class="cls-7" d="M71.74384,13.63154h.19383l.36568.58848h0v-.58848h.18034v.87673h-.19233l-.36518-.587h0v.587h-.18084Z"/><path class="cls-7" d="M73.23653,13.92778a.19134.19134,0,0,0-.19133-.15337c-.17334,0-.23829.14987-.23829.29974s.06495.29374.23829.29374a.19836.19836,0,0,0,.19983-.19682h.18683a.36932.36932,0,0,1-.38566.35868.42352.42352,0,0,1-.43112-.4556.42971.42971,0,0,1,.43112-.46309.35665.35665,0,0,1,.37817.31572Z"/><rect class="cls-4" x="79.21928" y="15.51039" width="1.3663" height="1.60759" rx="0.2273"/><polygon class="cls-4" points="81.643 15.51 80.026 15.51 79.216 16.315 80.026 17.118 81.643 17.118 82.451 16.315 81.643 15.51"/><path class="cls-7" d="M79.80976,15.83011h.19183l.36568.588h0v-.588h.18084v.87673h-.19283l-.36468-.587h0v.587h-.18084Z"/><path class="cls-7" d="M81.30445,16.12585a.19132.19132,0,0,0-.19133-.15386c-.17334,0-.23829.14987-.23829.29973,0,.14588.06495.29325.23829.29325a.19795.19795,0,0,0,.19983-.19633h.18683a.36932.36932,0,0,1-.38566.35868.42379.42379,0,0,1-.43112-.4556.43.43,0,0,1,.43112-.46309.35665.35665,0,0,1,.37817.31572Z"/><rect class="cls-4" x="72.55413" y="17.73144" width="1.3663" height="1.60759" rx="0.2273"/><polygon class="cls-4" points="71.497 17.731 73.114 17.731 73.923 18.536 73.114 19.339 71.497 19.339 70.688 18.536 71.497 17.731"/><path class="cls-7" d="M71.74384,18.05066h.19383l.36568.58849h0v-.58849h.18034v.87723h-.19233l-.36518-.587h0v.587h-.18084Z"/><path class="cls-7" d="M73.23653,18.3454a.19132.19132,0,0,0-.19133-.15336c-.17334,0-.23829.14737-.23829.29973s.06495.29375.23829.29375a.19826.19826,0,0,0,.19983-.19633h.18683a.36892.36892,0,0,1-.38566.35819.42353.42353,0,0,1-.43112-.4556.4293.4293,0,0,1,.43112-.4626.35662.35662,0,0,1,.37817.31523Z"/><rect class="cls-4" x="79.21928" y="17.73144" width="1.3663" height="1.60759" rx="0.2273"/><polygon class="cls-4" points="81.643 17.731 80.026 17.731 79.216 18.536 80.026 19.339 81.643 19.339 82.451 18.536 81.643 17.731"/><path class="cls-7" d="M79.80976,18.05066h.19183l.36568.58849h0v-.58849h.18084v.87723h-.19283l-.36468-.587h0v.587h-.18084Z"/><path class="cls-7" d="M81.30445,18.3454a.19132.19132,0,0,0-.19133-.15336c-.17334,0-.23829.14737-.23829.29973s.06495.29375.23829.29375a.19795.19795,0,0,0,.19983-.19633h.18683a.36892.36892,0,0,1-.38566.35819.42353.42353,0,0,1-.43112-.4556.4293.4293,0,0,1,.43112-.4626.35662.35662,0,0,1,.37817.31523Z"/><rect class="cls-4" x="72.55413" y="19.98097" width="1.3663" height="1.60759" rx="0.2273"/><polygon class="cls-4" points="71.497 19.981 73.114 19.981 73.923 20.785 73.114 21.589 71.497 21.589 70.688 20.785 71.497 19.981"/><path class="cls-7" d="M71.74384,20.30069h.19383l.36568.588h0v-.588h.18034v.87673h-.19233l-.36518-.587h0v.587h-.18084Z"/><path class="cls-7" d="M73.23653,20.59543a.19132.19132,0,0,0-.19133-.15386c-.17334,0-.23829.14737-.23829.29973,0,.14588.06495.29325.23829.29325a.19827.19827,0,0,0,.19983-.19633h.18683a.36932.36932,0,0,1-.38566.35868.46027.46027,0,0,1,0-.91869.35665.35665,0,0,1,.37817.31572Z"/><rect class="cls-6" x="72.55413" y="22.37812" width="1.3663" height="1.60759" rx="0.2273"/><polygon class="cls-6" points="71.305 22.378 72.922 22.378 73.731 23.182 72.922 23.986 71.305 23.986 70.496 23.182 71.305 22.378"/><polygon class="cls-6" points="71.081 22.378 72.698 22.378 73.508 23.182 72.698 23.986 71.081 23.986 70.273 23.182 71.081 22.378"/><rect class="cls-4" x="79.21928" y="19.98097" width="1.3663" height="1.60759" rx="0.2273"/><polygon class="cls-4" points="81.643 19.981 80.026 19.981 79.216 20.785 80.026 21.589 81.643 21.589 82.451 20.785 81.643 19.981"/><path class="cls-7" d="M79.80976,20.30069h.19183l.36568.588h0v-.588h.18084v.87673h-.19283l-.36468-.587h0v.587h-.18084Z"/><path class="cls-7" d="M81.30445,20.59543a.19132.19132,0,0,0-.19133-.15386c-.17334,0-.23829.14737-.23829.29973,0,.14588.06495.29325.23829.29325a.198.198,0,0,0,.19983-.19633h.18683a.36932.36932,0,0,1-.38566.35868.46027.46027,0,0,1,0-.91869.35665.35665,0,0,1,.37817.31572Z"/><rect class="cls-4" x="79.21928" y="22.30493" width="1.3663" height="1.60759" rx="0.2273"/><polygon class="cls-4" points="81.643 22.305 80.026 22.305 79.216 23.109 80.026 23.913 81.643 23.913 82.451 23.109 81.643 22.305"/><path class="cls-7" d="M79.80976,22.62415h.19183l.36568.58848h0v-.58848h.18084v.87673h-.19283l-.36468-.587h0v.587h-.18084Z"/><path class="cls-7" d="M81.30445,22.91989a.19134.19134,0,0,0-.19133-.15337c-.17334,0-.23829.14738-.23829.29974s.06495.29374.23829.29374a.198.198,0,0,0,.19983-.19682h.18683a.36932.36932,0,0,1-.38566.35868.42379.42379,0,0,1-.43112-.4556.43.43,0,0,1,.43112-.46309.35665.35665,0,0,1,.37817.31572Z"/><rect class="cls-4" x="79.21928" y="24.48602" width="1.3663" height="1.60759" rx="0.2273"/><polygon class="cls-4" points="81.643 24.486 80.026 24.486 79.216 25.29 80.026 26.094 81.643 26.094 82.451 25.29 81.643 24.486"/><path class="cls-7" d="M79.80976,24.80524h.19183l.36568.58848h0v-.58848h.18084V25.682h-.19283l-.36468-.587h0v.587h-.18084Z"/><path class="cls-7" d="M81.30445,25.1a.19134.19134,0,0,0-.19133-.15337c-.17334,0-.23829.14737-.23829.29974s.06495.29374.23829.29374a.198.198,0,0,0,.19983-.19683h.18683a.36933.36933,0,0,1-.38566.35869.42352.42352,0,0,1-.43112-.4556.42971.42971,0,0,1,.43112-.46309.35665.35665,0,0,1,.37817.31572Z"/><path class="cls-7" d="M79.80976,24.80424h.19183l.36568.58848h0v-.58848h.18084V25.681h-.19283l-.36468-.587h0v.587h-.18084Z"/><path class="cls-7" d="M81.30445,25.099a.19084.19084,0,0,0-.19133-.15337c-.17334,0-.23829.14987-.23829.29974s.06495.29374.23829.29374a.198.198,0,0,0,.19983-.19683h.18683a.36933.36933,0,0,1-.38566.35869.46027.46027,0,0,1,0-.9187.35665.35665,0,0,1,.37817.31573Z"/><rect class="cls-4" x="79.21928" y="26.6666" width="1.3663" height="1.60759" rx="0.2273"/><polygon class="cls-4" points="81.643 26.667 80.026 26.667 79.216 27.471 80.026 28.274 81.643 28.274 82.451 27.471 81.643 26.667"/><path class="cls-7" d="M79.80976,26.98632h.19183l.36568.588h0v-.588h.18084v.87923h-.19283l-.36468-.587h0v.587h-.18084Z"/><path class="cls-7" d="M81.30445,27.28106a.19132.19132,0,0,0-.19133-.15386c-.17334,0-.23829.14737-.23829.29973,0,.14588.06495.29325.23829.29325a.19795.19795,0,0,0,.19983-.19633h.18683a.36932.36932,0,0,1-.38566.35868.46027.46027,0,0,1,0-.91869.35665.35665,0,0,1,.37817.31572Z"/><path class="cls-7" d="M79.80976,26.98532h.19183l.36568.588h0v-.588h.18084v.87673h-.19283l-.36468-.587h0v.587h-.18084Z"/><path class="cls-7" d="M81.30445,27.28007a.19133.19133,0,0,0-.19133-.15387c-.17334,0-.23829.14737-.23829.29974,0,.14587.06495.29324.23829.29324a.19795.19795,0,0,0,.19983-.19633h.18683a.36933.36933,0,0,1-.38566.35869.46027.46027,0,0,1,0-.9187.35665.35665,0,0,1,.37817.31573Z"/><rect class="cls-4" x="72.55413" y="31.07574" width="1.3663" height="1.60759" rx="0.2273"/><polygon class="cls-4" points="71.497 31.076 73.114 31.076 73.923 31.88 73.114 32.683 71.497 32.683 70.688 31.88 71.497 31.076"/><path class="cls-7" d="M71.74384,31.395h.19383l.36568.588h0v-.588h.18034v.87673h-.19233l-.36518-.587h0v.587h-.18084Z"/><path class="cls-7" d="M73.23653,31.6897a.19083.19083,0,0,0-.19133-.15337c-.17334,0-.23829.14737-.23829.29974,0,.14587.06495.29324.23829.29324A.19793.19793,0,0,0,73.245,31.933h.18683a.36933.36933,0,0,1-.38566.35869.46027.46027,0,0,1,0-.9187.35665.35665,0,0,1,.37817.31573Z"/><rect class="cls-4" x="79.21928" y="31.07574" width="1.3663" height="1.60759" rx="0.2273"/><polygon class="cls-4" points="81.643 31.076 80.026 31.076 79.216 31.88 80.026 32.683 81.643 32.683 82.451 31.88 81.643 31.076"/><path class="cls-7" d="M79.80976,31.395h.19183l.36568.588h0v-.588h.18084v.87673h-.19283l-.36468-.587h0v.587h-.18084Z"/><path class="cls-7" d="M81.30445,31.6897a.19082.19082,0,0,0-.19133-.15337c-.17334,0-.23829.14737-.23829.29974,0,.14587.06495.29324.23829.29324A.19762.19762,0,0,0,81.313,31.933h.18683a.36933.36933,0,0,1-.38566.35869.46027.46027,0,0,1,0-.9187.35665.35665,0,0,1,.37817.31573Z"/><rect class="cls-4" x="79.21928" y="33.2768" width="1.3663" height="1.60759" rx="0.2273"/><polygon class="cls-4" points="81.643 33.277 80.026 33.277 79.216 34.081 80.026 34.884 81.643 34.884 82.451 34.081 81.643 33.277"/><path class="cls-7" d="M79.80976,33.596h.19183l.36568.588h0v-.588h.18084v.87673h-.19283l-.36468-.587h0v.587h-.18084Z"/><path class="cls-7" d="M81.30445,33.89076a.19082.19082,0,0,0-.19133-.15336c-.17334,0-.23829.14737-.23829.29974,0,.14587.06495.29324.23829.29324a.19762.19762,0,0,0,.19983-.19633h.18683a.36933.36933,0,0,1-.38566.35869.46027.46027,0,0,1,0-.9187.35665.35665,0,0,1,.37817.31572Z"/><rect class="cls-4" x="79.21928" y="28.8352" width="1.3663" height="1.60759" rx="0.2273"/><polygon class="cls-4" points="81.643 28.835 80.026 28.835 79.216 29.639 80.026 30.443 81.643 30.443 82.451 29.639 81.643 28.835"/><path class="cls-7" d="M79.80976,29.15442h.19183l.36568.58848h0v-.58848h.18084v.87673h-.19283l-.36468-.587h0v.587h-.18084Z"/><path class="cls-7" d="M81.30445,29.44916a.19082.19082,0,0,0-.19133-.15336c-.17334,0-.23829.14987-.23829.29973s.06495.29375.23829.29375a.198.198,0,0,0,.19983-.19683h.18683a.36932.36932,0,0,1-.38566.35868.42379.42379,0,0,1-.43112-.4556.43.43,0,0,1,.43112-.46309.35665.35665,0,0,1,.37817.31572Z"/><rect class="cls-4" x="72.55413" y="35.49786" width="1.3663" height="1.60759" rx="0.2273"/><polygon class="cls-4" points="71.497 35.498 73.114 35.498 73.923 36.302 73.114 37.105 71.497 37.105 70.688 36.302 71.497 35.498"/><path class="cls-7" d="M71.74384,35.81707h.19383l.36568.58849h0v-.58849h.18034v.87723h-.19233l-.36468-.586h0v.587h-.18084Z"/><path class="cls-7" d="M73.23653,36.11182a.19133.19133,0,0,0-.19133-.15337c-.17334,0-.23829.14987-.23829.29974s.06495.29374.23829.29374a.19826.19826,0,0,0,.19983-.19633h.18683a.36892.36892,0,0,1-.38566.35819.42221.42221,0,0,1-.43112-.4556.428.428,0,0,1,.43112-.4626.35662.35662,0,0,1,.37817.31523Z"/><rect class="cls-4" x="79.21928" y="35.49786" width="1.3663" height="1.60759" rx="0.2273"/><polygon class="cls-4" points="81.643 35.498 80.026 35.498 79.216 36.302 80.026 37.105 81.643 37.105 82.451 36.302 81.643 35.498"/><path class="cls-7" d="M79.80976,35.81707h.19183l.36568.58849h0v-.58849h.18084v.87723h-.19283l-.36468-.587h0v.587h-.18084Z"/><path class="cls-7" d="M81.30445,36.11182a.19133.19133,0,0,0-.19133-.15337c-.17334,0-.23829.14987-.23829.29974s.06495.29374.23829.29374a.19795.19795,0,0,0,.19983-.19633h.18683a.36892.36892,0,0,1-.38566.35819.42221.42221,0,0,1-.43112-.4556.428.428,0,0,1,.43112-.4626.35662.35662,0,0,1,.37817.31523Z"/><rect class="cls-4" x="72.55413" y="37.74738" width="1.3663" height="1.60759" rx="0.2273"/><polygon class="cls-4" points="71.497 37.747 73.114 37.747 73.923 38.552 73.114 39.355 71.497 39.355 70.688 38.552 71.497 37.747"/><path class="cls-7" d="M71.74384,38.0671h.19383l.36568.588h0v-.588h.18034v.87673h-.19233l-.36468-.58748h0v.587h-.18084Z"/><path class="cls-7" d="M73.23653,38.36184a.19132.19132,0,0,0-.19133-.15386c-.17334,0-.23829.14986-.23829.29973,0,.14587.06495.29324.23829.29324a.19825.19825,0,0,0,.19983-.19632h.18683a.36932.36932,0,0,1-.38566.35868.42379.42379,0,0,1-.43112-.4556.43.43,0,0,1,.43112-.46309.35665.35665,0,0,1,.37817.31572Z"/><rect class="cls-4" x="79.21928" y="37.74738" width="1.3663" height="1.60759" rx="0.2273"/><polygon class="cls-4" points="81.643 37.747 80.026 37.747 79.216 38.552 80.026 39.355 81.643 39.355 82.451 38.552 81.643 37.747"/><path class="cls-7" d="M79.80976,38.0671h.19183l.36568.588h0v-.588h.18084v.87673h-.19283l-.36468-.587h0v.587h-.18084Z"/><path class="cls-7" d="M81.30445,38.36184a.19132.19132,0,0,0-.19133-.15386c-.17334,0-.23829.14986-.23829.29973,0,.14587.06495.29324.23829.29324a.19794.19794,0,0,0,.19983-.19632h.18683a.36932.36932,0,0,1-.38566.35868.42379.42379,0,0,1-.43112-.4556.43.43,0,0,1,.43112-.46309.35665.35665,0,0,1,.37817.31572Z"/><rect class="cls-4" x="72.55413" y="40.07134" width="1.3663" height="1.60759" rx="0.2273"/><polygon class="cls-4" points="71.497 40.071 73.114 40.071 73.923 40.876 73.114 41.679 71.497 41.679 70.688 40.876 71.497 40.071"/><path class="cls-7" d="M71.74384,40.39106h.19383l.36568.588h0v-.588h.18034v.87673h-.19233l-.36468-.58748h0v.587h-.18084Z"/><path class="cls-7" d="M73.23653,40.6858a.19132.19132,0,0,0-.19133-.15386c-.17334,0-.23829.14987-.23829.29973,0,.14588.06495.29325.23829.29325a.19826.19826,0,0,0,.19983-.19633h.18683a.36932.36932,0,0,1-.38566.35868.42379.42379,0,0,1-.43112-.4556.43.43,0,0,1,.43112-.46309.35665.35665,0,0,1,.37817.31572Z"/><rect class="cls-4" x="79.21928" y="40.07134" width="1.3663" height="1.60759" rx="0.2273"/><polygon class="cls-4" points="81.643 40.071 80.026 40.071 79.216 40.876 80.026 41.679 81.643 41.679 82.451 40.876 81.643 40.071"/><path class="cls-7" d="M79.80976,40.39106h.19183l.36568.588h0v-.588h.18084v.87673h-.19283l-.36468-.587h0v.587h-.18084Z"/><path class="cls-7" d="M81.30445,40.6858a.19132.19132,0,0,0-.19133-.15386c-.17334,0-.23829.14987-.23829.29973,0,.14588.06495.29325.23829.29325a.19795.19795,0,0,0,.19983-.19633h.18683a.36932.36932,0,0,1-.38566.35868.42379.42379,0,0,1-.43112-.4556.43.43,0,0,1,.43112-.46309.35665.35665,0,0,1,.37817.31572Z"/><path class="cls-7" d="M77.66415,14.63566h-.19583v-.62595h-.24279v-.14987c.13638.0045.26077-.044.28276-.19133h.15586Z"/><path class="cls-7" d="M78.20467,14.06066c.08393.007.20532-.00949.20532-.11989a.12739.12739,0,0,0-.12606-.1287l-.01032.00031c-.09991,0-.14987.07294-.14987.17235h-.18633a.31944.31944,0,0,1,.33371-.33371.29824.29824,0,0,1,.32421.26777.19133.19133,0,0,1-.13538.19683v.003a.21482.21482,0,0,1,.17136.21931.36.36,0,0,1-.71738-.03247h.18634c.004.10491.05645.19033.16985.19033a.14986.14986,0,0,0,.1567-.14271l.00016-.00716c0-.14637-.12789-.14337-.2233-.14337Z"/><path class="cls-7" d="M77.66415,16.84422h-.19583v-.62645h-.24279V16.0704c.13638.004.26077-.044.28276-.19183h.15586Z"/><path class="cls-7" d="M78.58184,16.03993h-.39965l-.03846.21931v.003a.24579.24579,0,0,1,.18933-.07443.30037.30037,0,0,1,.29974.32821.34969.34969,0,0,1-.35207.3473l-.00662-.0001a.32272.32272,0,0,1-.35869-.30573h.19583a.15437.15437,0,0,0,.15887.14437.17434.17434,0,0,0,.16709-.18131L78.437,16.516a.16585.16585,0,0,0-.16685-.18084.16038.16038,0,0,0-.14987.07743H77.9439l.09542-.534h.54252Z"/><path class="cls-5" d="M73.5532,4.555H72.08426c-.20227,0-.36624.10177-.36624.2273v1.153c0,.12554.164.2273.36624.2273H73.5532c.20226,0,.36623-.10176.36623-.2273V4.7823C73.91943,4.65677,73.75546,4.555,73.5532,4.555Z"/><polygon class="cls-5" points="69.877 4.555 71.494 4.555 72.303 5.359 71.494 6.163 69.877 6.163 69.068 5.359 69.877 4.555"/><polygon class="cls-5" points="70.498 4.555 72.115 4.555 72.924 5.359 72.115 6.163 70.498 6.163 69.689 5.359 70.498 4.555"/><path class="cls-7" d="M70.24,5.24424c.07227.00586.17725-.00879.17725-.10352a.10993.10993,0,0,0-.11768-.11084c-.08594,0-.12988.063-.12891.14893H70.01a.27637.27637,0,0,1,.28809-.28809.25705.25705,0,0,1,.27978.23047.16527.16527,0,0,1-.1167.17041V5.294a.1849.1849,0,0,1,.14746.18945A.31048.31048,0,0,1,69.99,5.45371h.16064c.00342.09033.04883.16406.14649.16406a.12822.12822,0,0,0,.13574-.13086c0-.12646-.11084-.124-.19287-.124Z"/><path class="cls-7" d="M71.10817,5.74033h-.21045l-.27587-.84961h.19238l.18945.59717h.00244l.19141-.59717h.19287Z"/><path class="cls-7" d="M71.65358,5.24424c.07227.00586.17725-.00879.17725-.10352a.10992.10992,0,0,0-.11768-.11084c-.08593,0-.12988.063-.1289.14893H71.4236a.2761.2761,0,0,1,.28809-.28809.25705.25705,0,0,1,.27978.23047.16527.16527,0,0,1-.11669.17041V5.294a.18491.18491,0,0,1,.14746.18945.31048.31048,0,0,1-.61866-.02978h.16065c.00342.09033.04883.16406.14648.16406a.12823.12823,0,0,0,.13575-.13086c0-.12646-.11084-.124-.19288-.124Z"/><path class="cls-7" d="M72.04519,5.82969h.59521v.05957h-.59521Z"/><path class="cls-7" d="M72.85085,5.4581c0,.11328.08789.15723.188.15723.06543,0,.16553-.019.16553-.106,0-.09277-.12842-.10595-.25245-.14013-.126-.03125-.25341-.085-.25341-.2417,0-.1753.16406-.25733.31787-.25733.17724,0,.34033.07764.34033.27393h-.18115c-.00586-.10108-.07715-.12842-.16748-.12842-.05957,0-.12842.0249-.12842.09619,0,.06543.04.0752.25342.12842.063.01465.25195.05615.25195.24756,0,.15625-.12109.27246-.353.27246-.18847,0-.36572-.09277-.3623-.30225Z"/><path class="cls-7" d="M71.678,22.7623h.1914l.31788.84961h-.19434l-.064-.18945H71.6111l-.06689.18945h-.189Zm-.01807.521h.22022l-.10743-.31152h-.002Z"/><path class="cls-7" d="M72.262,22.7623h.187v.84961h-.187Z"/><path class="cls-7" d="M72.614,22.7623h.18555l.355.56983H73.157V22.7623h.17481v.84961h-.187l-.35352-.56885h-.00195v.56885H72.614Z"/><rect class="cls-8" x="72.55413" y="33.27655" width="1.3663" height="1.60759" rx="0.2273"/><rect class="cls-8" x="71.87098" y="33.27655" width="1.3663" height="1.60759" rx="0.2273"/><path class="cls-8" d="M65.97888,33.27655h5.91c.81379,0,1.47348.10177,1.47348.2273v1.153c0,.12554-.65969.2273-1.47348.2273h-5.91c-.81378,0-1.47348-.10176-1.47348-.2273v-1.153C64.5054,33.37832,65.1651,33.27655,65.97888,33.27655Z"/><polygon class="cls-8" points="64.568 33.277 66.185 33.277 66.995 34.081 66.185 34.885 64.568 34.885 63.76 34.081 64.568 33.277"/><polygon class="cls-8" points="63.186 33.277 64.803 33.277 65.612 34.081 64.803 34.885 63.186 34.885 62.378 34.081 63.186 33.277"/><path class="cls-7" d="M63.50563,33.60654a.446.446,0,1,1-.41748.44873A.41294.41294,0,0,1,63.50563,33.60654Zm0,.7334c.168,0,.231-.14307.231-.28467,0-.14892-.063-.2915-.231-.2915s-.23095.14258-.23095.2915C63.27468,34.19687,63.33767,34.33994,63.50563,34.33994Z"/><path class="cls-7" d="M64.77321,34.15537a.31675.31675,0,0,1-.36279.34131c-.23,0-.36182-.10938-.36182-.34131V33.627h.187v.52832c0,.09277.02343.18457.1748.18457.1333,0,.17627-.05713.17627-.18457V33.627h.18652Z"/><path class="cls-7" d="M65.12331,33.78379h-.25439V33.627h.69629v.15674h-.25489v.69287h-.187Z"/><path class="cls-7" d="M66.27419,33.60654a1.14337,1.14337,0,0,0-.12988.53906,1.17957,1.17957,0,0,0,.12841.54785h-.14013a1.01766,1.01766,0,0,1,0-1.08691Z"/><path class="cls-7" d="M66.34792,33.627h.187v.84961h-.187Z"/><path class="cls-7" d="M67.08083,33.60654a.446.446,0,1,1-.41748.44873A.41294.41294,0,0,1,67.08083,33.60654Zm0,.7334c.168,0,.231-.14307.231-.28467,0-.14892-.063-.2915-.231-.2915s-.231.14258-.231.2915C66.84987,34.19687,66.91286,34.33994,67.08083,34.33994Z"/><path class="cls-7" d="M67.91677,34.28379h-.35254V34.129l.36182-.48535h.15136v.501h.11035v.13916h-.11035v.19287h-.16064Zm0-.42823h-.00391l-.21533.28907h.21924Z"/><path class="cls-7" d="M68.19948,34.69345a1.13947,1.13947,0,0,0,.12989-.53808,1.184,1.184,0,0,0-.12891-.54883h.14062a1.04871,1.04871,0,0,1,.15723.53711,1.02658,1.02658,0,0,1-.15723.5498Z"/><path class="cls-7" d="M69.25515,33.84482a.32429.32429,0,1,1-.31739.32471A.3021.3021,0,0,1,69.25515,33.84482Zm0,.521c.11572,0,.15039-.09766.15039-.19629s-.03467-.19775-.15039-.19775c-.11426,0-.14844.09912-.14844.19775S69.14089,34.36582,69.25515,34.36582Z"/><path class="cls-7" d="M69.68483,33.86142h.16065V33.94h.00244a.20255.20255,0,0,1,.18311-.09522c.19287,0,.27978.15576.27978.33057a.28324.28324,0,0,1-.27051.31787.21819.21819,0,0,1-.18408-.09277h-.00244v.293h-.16895Zm.457.30957c0-.09912-.03956-.19921-.14795-.19921-.11036,0-.146.09912-.146.19921,0,.09961.03809.19483.14746.19483C70.10622,34.36582,70.14187,34.2706,70.14187,34.171Z"/><path class="cls-7" d="M70.62722,33.86142h.124v.1128h-.124v.30468c0,.05713.01465.07178.07177.07178a.24671.24671,0,0,0,.05225-.00488v.13183a.63115.63115,0,0,1-.09863.00635c-.105,0-.19434-.023-.19434-.14648v-.36328h-.10205v-.1128h.10205v-.18457h.16895Z"/><path class="cls-7" d="M71.00661,33.76621h-.16943V33.627h.16943Zm-.16943.09521h.16943v.61524h-.16943Z"/><path class="cls-7" d="M71.43874,33.84482a.32429.32429,0,1,1-.31738.32471A.3021.3021,0,0,1,71.43874,33.84482Zm0,.521c.11572,0,.15039-.09766.15039-.19629s-.03467-.19775-.15039-.19775c-.11426,0-.14844.09912-.14844.19775S71.32448,34.36582,71.43874,34.36582Z"/><path class="cls-7" d="M71.86892,33.86142h.16064v.08545H72.033a.21758.21758,0,0,1,.188-.102c.17968,0,.22509.10108.22509.25342v.37842h-.16894V34.129c0-.10107-.02881-.15088-.1084-.15088-.0918,0-.13086.05127-.13086.17578v.32276h-.16894Z"/><path class="cls-7" d="M72.56862,34.05039c.00928-.15674.15137-.20557.28907-.20557.12255,0,.2705.02735.2705.17481v.32031a.32114.32114,0,0,0,.021.13672h-.1709a.24377.24377,0,0,1-.01221-.05957.27966.27966,0,0,1-.207.07617c-.11767,0-.20947-.05811-.20947-.18457.00244-.2793.4165-.1294.40918-.26758,0-.07129-.0498-.08349-.10938-.08349-.06542,0-.10595.02636-.11181.09277Zm.39014.125a.33187.33187,0,0,1-.14014.03564c-.05224.00977-.10009.02881-.10009.09082,0,.06153.04882.07862.10351.07862a.12525.12525,0,0,0,.13672-.14209Z"/><path class="cls-7" d="M73.26442,33.627h.16895v.84961h-.16895Z"/><path class="cls-9" d="M51.107,9.894H0V40.15066H51.107ZM39.33992,34.76669a.1217.1217,0,1,1,0-.0024ZM3.99843,24.41584a1.49776,1.49776,0,1,1-.23089,0A1.49246,1.49246,0,0,1,3.99843,24.41584ZM47.47868,12.44789a1.47472,1.47472,0,1,1-.29155,0A1.47089,1.47089,0,0,1,47.47868,12.44789Z"/><g class="cls-10"><g class="cls-11"><path class="cls-12" d="M47.34924,11.33226a2.57956,2.57956,0,1,0,.00048,0h-.00048m0,4.148a1.56869,1.56869,0,1,1,1.56869-1.56869h0a1.56869,1.56869,0,0,1-1.56869,1.56869"/></g></g><g class="cls-10"><g class="cls-13"><path class="cls-12" d="M39.23205,33.77427a2.57932,2.57932,0,1,0,2.57932,2.57932h0a2.5798,2.5798,0,0,0-2.57932-2.57932m0,4.14753a1.56821,1.56821,0,1,1,1.56725-1.56917v.001a1.56821,1.56821,0,0,1-1.56821,1.56821h0"/></g></g><g class="cls-10"><g class="cls-14"><path class="cls-12" d="M3.87521,23.32035a2.57932,2.57932,0,1,0,2.57933,2.57932h0a2.57933,2.57933,0,0,0-2.57933-2.57932m0,4.14753a1.56869,1.56869,0,1,1,1.56821-1.56917v.001a1.56821,1.56821,0,0,1-1.56821,1.56821h0"/></g></g><polyline class="cls-15" points="49.213 20.465 49.213 18.644 44.467 18.644 44.467 20.465"/><polyline class="cls-15" points="49.189 37.797 49.189 39.618 44.443 39.618 44.443 37.797"/><path class="cls-16" d="M40.30453,13.86987a.63935.63935,0,0,1-.22965.04794c-.1026.00432-.41279.011-.50244.01247.00575.10356.012.23684.012.326s.00527.38354.01486.8179v.02829a.39121.39121,0,0,0,.37108.40991h0c.28765.02973.35573-.12657.35861-.13376a1.5883,1.5883,0,0,0,.11362-.64c0-.034,0-.06951-.00287-.10451a4.088,4.088,0,0,0-.13616-.76085"/><path class="cls-16" d="M40.62526,13.38229a.61662.61662,0,0,1-.04458.17356.677.677,0,0,1-.12993.21526,3.94458,3.94458,0,0,1,.15678.82126c.00383.05322.00575.10835.00575.163a2.03081,2.03081,0,0,1-.07815.57532.894.894,0,0,0,.081.08965.4281.4281,0,0,0,.21382.10835.46409.46409,0,0,0,.3356-.04794c.09589-.04794.14383-.17835.14383-.38354,0-.02781,0-.05849.00287-.09205s.00336-.08582.00336-.13616a1.98376,1.98376,0,0,0-.1328-.69517,2.34915,2.34915,0,0,0-.5571-.792"/><path class="cls-16" d="M40.63917,12.40954a.72878.72878,0,0,1-.0513.27854.69663.69663,0,0,1-.15629.20184.557.557,0,0,1,.07814.06808.48742.48742,0,0,1,.09157.15773c.07719.06952.22006.20184.34232.3356a2.30415,2.30415,0,0,1,.48278.85818,2.0462,2.0462,0,0,1,.08006.61414,2.87291,2.87291,0,0,1-.01582.31451.52739.52739,0,0,0,.38354.22581c.31355-.00432.3869-.11842.41279-.64579a2.54092,2.54092,0,0,0-.60312-1.68087,2.77427,2.77427,0,0,0-1.04275-.72825"/><path class="cls-16" d="M39.40416,14.6475c-.08965.00528-.23252.01247-.326.01247-.12513,0-.56764.00959-.75654.0139h-.09013a.39217.39217,0,0,0-.40895.3706.67824.67824,0,0,0-.00384.06952c0,.23108.13568.28765.13712.28765a1.68368,1.68368,0,0,0,.74551.11123,4.17617,4.17617,0,0,0,.76373-.13664.64254.64254,0,0,1-.048-.23012c0-.04171-.00527-.163-.01246-.50244"/><path class="cls-16" d="M38.00375,15.59917a.806.806,0,0,0-.09013.081.4315.4315,0,0,0-.10835.21383.57525.57525,0,0,0-.01247.11122.46944.46944,0,0,0,.0585.221c.04794.09588.17978.14383.38354.14383h.09253a2.0176,2.0176,0,0,0,.83372-.12609,2.38237,2.38237,0,0,0,.79154-.5571.63454.63454,0,0,1-.17356-.04506.66222.66222,0,0,1-.21526-.12945,4.00467,4.00467,0,0,1-.81934.15773,2.14543,2.14543,0,0,1-.74072-.07095"/><path class="cls-16" d="M38.0958,16.57624a.51542.51542,0,0,0-.22437.37635c.00432.31738.11938.3917.64579.41806a2.55961,2.55961,0,0,0,1.68087-.6036,2.77242,2.77242,0,0,0,.72682-1.04323.71922.71922,0,0,1-.27807-.0513.70092.70092,0,0,1-.20136-.15629.58514.58514,0,0,1-.06808.07814.47958.47958,0,0,1-.15821.09158c-.05609.0628-.19465.2143-.3356.34231a2.30412,2.30412,0,0,1-.85818.48182,2.56525,2.56525,0,0,1-.92817.06424"/><path class="cls-16" d="M38.68119,14.49361c-.00432-.07863-.01247-.22917-.01247-.326s-.00479-.36149-.01486-.80257v-.04362a.39026.39026,0,0,0-.37014-.40939l-.00094,0c-.2843-.03021-.35525.12656-.35813.1328a1.678,1.678,0,0,0-.11075.74551,4.12672,4.12672,0,0,0,.13568.76373.65437.65437,0,0,1,.23012-.048c.06712-.00239.2354-.00719.50005-.01246Z"/><path class="cls-16" d="M37.70747,13.0932a.80332.80332,0,0,0-.081-.09013.43139.43139,0,0,0-.21382-.10835.46073.46073,0,0,0-.33224.04794c-.09589.04794-.14383.17835-.14383.38354,0,.02637,0,.05609-.0024.0887,0,.04458-.00335.08965-.00335.13951a1.98619,1.98619,0,0,0,.129.69613,2.36452,2.36452,0,0,0,.55662.79153.63412.63412,0,0,1,.04506-.17355.66678.66678,0,0,1,.12945-.21526,3.94645,3.94645,0,0,1-.15821-.81983c-.00384-.05369-.00624-.10883-.00624-.16348a2.08071,2.08071,0,0,1,.07863-.57531"/><path class="cls-16" d="M36.75341,13.18525a.52737.52737,0,0,0-.38115-.22581c-.31355.00479-.3869.11986-.41279.64627,0,.02972-.00239.06136-.00239.09205a2.59849,2.59849,0,0,0,.60551,1.58882,2.77453,2.77453,0,0,0,1.04276.72825.7378.7378,0,0,1,.0513-.27855.70492.70492,0,0,1,.15629-.20184.58435.58435,0,0,1-.07814-.06807.49209.49209,0,0,1-.09205-.15774c-.0513-.04506-.20856-.18889-.3428-.3356a2.30978,2.30978,0,0,1-.4823-.86009,2.05868,2.05868,0,0,1-.08054-.61367,3.12222,3.12222,0,0,1,.01582-.3145"/><path class="cls-16" d="M40.421,13.23559c0-.22917-.13184-.28766-.1376-.28766a1.68085,1.68085,0,0,0-.745-.11122,4.1747,4.1747,0,0,0-.76373.13615.65492.65492,0,0,1,.048.23013c0,.04794.00575.17547.01246.50244.0724-.00432.22725-.012.326-.012.09157,0,.374-.00575.81743-.01534h.02876a.39169.39169,0,0,0,.40943-.37108.67257.67257,0,0,0,.00384-.06951"/><path class="cls-16" d="M40.44692,12.39228a.46266.46266,0,0,0-.059-.22054c-.04794-.09589-.17931-.14383-.38354-.14383-.02781,0-.05849,0-.09253-.0024a2.00083,2.00083,0,0,0-.83373.12609,2.37846,2.37846,0,0,0-.792.55758.64175.64175,0,0,1,.174.04506.6832.6832,0,0,1,.21574.12945,3.961,3.961,0,0,1,.81887-.15725,2.15446,2.15446,0,0,1,.74023.07287.80768.80768,0,0,0,.09013-.0815.42086.42086,0,0,0,.10835-.21335.51125.51125,0,0,0,.01247-.1117"/><path class="cls-16" d="M40.36781,11.46315c-.00383-.31355-.11985-.38642-.64483-.41327a2.56059,2.56059,0,0,0-1.68135.6036,2.78057,2.78057,0,0,0-.72777,1.04275.728.728,0,0,1,.27807.0513.71567.71567,0,0,1,.20279.1563.55705.55705,0,0,1,.06808-.07815.49.49,0,0,1,.15774-.09109c.05657-.06329.19464-.21479.3356-.34279a2.32141,2.32141,0,0,1,.861-.48423,2.57359,2.57359,0,0,1,.92961-.06424.51442.51442,0,0,0,.22533-.37635Z"/><path class="cls-16" d="M41.52275,22.06137a1.51793,1.51793,0,0,1-.1002.56046,1.30335,1.30335,0,0,1-.26944.42812,1.16192,1.16192,0,0,1-.395.27232,1.23891,1.23891,0,0,1-.48471.09588,1.33568,1.33568,0,0,1-.69037-.17163,1.0758,1.0758,0,0,1-.44347-.56093h-.07575a.7374.7374,0,0,1-.15054.29485.81892.81892,0,0,1-.23972.19177,1.12432,1.12432,0,0,1-.30443.10787,2.7589,2.7589,0,0,1-.33177.04794c-.07.00432-.152.00815-.24594.012s-.19177.0115-.28766.02157a1.96131,1.96131,0,0,0-.27951.04794.637.637,0,0,0-.22485.10164v-.96892a1.69939,1.69939,0,0,1,.49813-.09828q.28765-.01871.55326-.05514a.87152.87152,0,0,0,.50388-.21.71916.71916,0,0,0,.16013-.52257V20.50084h-1.7154V19.565h4.5234ZM39.49429,21.569a.73928.73928,0,0,0,.14911.5034.61842.61842,0,0,0,.48422.16732.59015.59015,0,0,0,.46936-.16732.74888.74888,0,0,0,.14383-.5034V20.50084H39.49429Z"/><path class="cls-16" d="M41.52275,26.35129l-4.52292,1.69094v-.933l1.09166-.3706V24.90725l-1.09166-.38354v-.90132l4.52292,1.70916Zm-2.808.07623,1.71588-.58922v-.01294l-1.7154-.60887Z"/><polygon class="cls-16" points="41.523 29.235 39.648 29.235 41.523 30.898 41.523 32.066 39.736 30.403 37 32.227 37 31.053 39.033 29.771 38.457 29.235 37 29.235 37 28.299 41.523 28.299 41.523 29.235"/><path class="cls-16" d="M43.70271,33.18745a1.34381,1.34381,0,1,1-1.34-1.37883A1.33247,1.33247,0,0,1,43.70271,33.18745Zm-2.39953,0a1.05686,1.05686,0,1,0,1.05953-1.01255A1.02056,1.02056,0,0,0,41.30318,33.18745Zm1.81367-.535v.56765c0,.3773-.11842.58921-.44539.58921a.37783.37783,0,0,1-.40224-.39553l-.65729.40272v-.31258l.64291-.36629v-.187h-.64291v-.2982Zm-.62853.2982v.26561c0,.17259.02541.29485.20855.29485.15821,0,.187-.1726.187-.30924v-.25122Z"/><path class="cls-16" d="M30.67906,31.89971l-11.88549,5.7795V26.11589Zm.64771,0L18.51214,25.66236V38.13227Z"/><rect class="cls-16" x="19.55554" y="32.74034" width="8.20876" height="0.28334" transform="translate(-16.61136 37.26862) rotate(-60.48)"/><rect class="cls-16" x="18.33972" y="32.84447" width="9.08132" height="0.28334" transform="translate(-17.09741 36.6431) rotate(-60.48)"/><path class="cls-16" d="M25.15749,30.249l.13232-.25074a15.055,15.055,0,0,1,1.38555.827c.536.38355.99145,2.47193,1.04227,2.70877l-.27759.05849a6.76711,6.76711,0,0,0-.92769-2.53665,14.68418,14.68418,0,0,0-1.35294-.80688"/><path class="cls-16" d="M23.0365,33.84139l.245-.14383a1.06221,1.06221,0,0,0,.95885.52737,4.048,4.048,0,0,1,1.306.21335l-.09013.26848a3.84182,3.84182,0,0,0-1.188-.19944,1.33957,1.33957,0,0,1-1.23309-.66689"/><path class="cls-16" d="M21.52247,30.81476a.86867.86867,0,0,1,.00719-.10883c.07383-.58969,1.9273-1.33712,1.946-1.34479a1.27856,1.27856,0,0,1,1.29877.36676l-.20615.19465a1.01608,1.01608,0,0,0-.98715-.2982c-.81023.32409-1.73936.87016-1.77052,1.11658-.01583.13185.01007.20951.04315.22773s.14382-.00431.28286-.11458a3.20363,3.20363,0,0,1,1.43349-.60888,2.5254,2.5254,0,0,1,.69085.316l-.1491.23971a2.38106,2.38106,0,0,0-.57531-.27663,3.19554,3.19554,0,0,0-1.2211.54943c-.30444.24355-.5058.19177-.59881.14047a.43161.43161,0,0,1-.19177-.40128"/><path class="cls-16" d="M20.95962,31.92368a.36814.36814,0,0,1,.03979-.17259c.0537-.10212.18362-.2167.49477-.17931a4.768,4.768,0,0,1,1.68759.93345l-.17979.2191a4.42713,4.42713,0,0,0-1.54136-.87112c-.12657-.01487-.19656.00431-.21047.0302-.03739.07191.05753.315.23684.5197a8.83236,8.83236,0,0,0,1.21775.91091l-.15438.23972a9.53713,9.53713,0,0,1-1.27575-.96413,1.17985,1.17985,0,0,1-.315-.66641"/><path class="cls-16" d="M21.98128,31.83451a3.08864,3.08864,0,0,1,.4708-1.16789l.23971.14862a2.16663,2.16663,0,0,0-.42189,1.06337.23973.23973,0,0,0,.20136.02446,1.03865,1.03865,0,0,0,.49-.59258.7651.7651,0,0,1,.44059-.4636.75675.75675,0,0,1,.61223.151l-.15149.23971a.51225.51225,0,0,0-.37875-.11841c-.09589.02876-.18554.1328-.26369.30827a1.24815,1.24815,0,0,1-.66448.747.51967.51967,0,0,1-.43676-.05658.28479.28479,0,0,1-.12849-.18314.43094.43094,0,0,1-.01054-.09972"/><rect class="cls-16" x="29.75041" y="31.357" width="0.28334" height="1.1396"/><rect class="cls-16" x="29.05667" y="31.01948" width="0.28382" height="1.75566"/><rect class="cls-16" x="28.3639" y="30.68244" width="0.28334" height="2.43022"/><rect class="cls-16" x="27.67065" y="30.34493" width="0.28334" height="3.10477"/><rect class="cls-16" x="26.97692" y="30.0659" width="0.28334" height="1.83956"/><rect class="cls-16" x="26.28414" y="29.67037" width="0.28334" height="1.1559"/><rect class="cls-16" x="25.59089" y="29.39566" width="0.28334" height="0.98187"/><rect class="cls-16" x="24.20391" y="28.6583" width="0.28334" height="0.92146"/><rect class="cls-16" x="24.20391" y="34.39993" width="0.28334" height="0.7364"/><rect class="cls-16" x="23.51066" y="28.32078" width="0.28334" height="1.17172"/><rect class="cls-16" x="23.51066" y="34.27479" width="0.28334" height="1.17172"/><rect class="cls-16" x="22.81693" y="28.04799" width="0.28334" height="1.70005"/><rect class="cls-16" x="22.81693" y="34.1233" width="0.28334" height="1.68759"/><rect class="cls-16" x="22.12415" y="27.64095" width="0.28334" height="2.49063"/><rect class="cls-16" x="22.12415" y="33.19177" width="0.28334" height="0.89173"/><rect class="cls-17" x="22.12415" y="35.34823" width="0.28334" height="0.75798"/><rect class="cls-16" x="21.43042" y="27.30871" width="0.28334" height="4.39731"/><rect class="cls-16" x="21.43042" y="32.67638" width="0.28334" height="2.67377"/><rect class="cls-16" x="20.73717" y="27.07954" width="0.28334" height="9.41069"/><rect class="cls-16" x="20.04391" y="26.63416" width="0.28334" height="10.52679"/><rect class="cls-16" x="19.35066" y="26.26548" width="0.28334" height="11.22053"/><path class="cls-18" d="M23.56147,12.55288c-.7503.0724-1.51019.14383-2.27344.21814l-1.4052-1.41623-.23972.20472,1.24076,1.25083c-.09588.00863-.19177.01726-.28765.02684a1.31268,1.31268,0,0,0-1.21583-.85577,1.34475,1.34475,0,0,0-1.3122,1.37452,1.374,1.374,0,0,0,.8529,1.28438v2.76678h-.93967v.80975h.93967a.19419.19419,0,0,0,.17164.197c.73161.069,1.46465.13855,2.19434.20855l-1.4613,1.4728.23972.20088,1.62382-1.63533q.943.09014,1.86977.17979c1.23021.1189,2.46713.23971,3.69878.362l.966.97755.22821-.21431-.70332-.71434c.32313.03212.64435.06376.966.09588v.58059h.584v-.52066c.04458.0048.08725.00911.13184.01343a.18316.18316,0,0,0,.15006-.05562,2.94818,2.94818,0,0,0,.52449-.8553h.4219v-.92433h-.17116a8.741,8.741,0,0,0,.14383-1.12953h.245V14.33444h-.304a7.01138,7.01138,0,0,0-.31738-1.39993,3.08246,3.08246,0,0,0-.35621-.6712.56957.56957,0,0,0,.21813-.45258.55182.55182,0,0,0-.53887-.56381.53936.53936,0,0,0-.50484.36725h-.22389v.43148c-.15246.01438-.304.03068-.45738.04507a.09656.09656,0,0,1-.02109,0l.02109-.02062.45738-.45593.42813-.43485-.222-.222-.66353.6712v-.40416H26.85418v1.0068c-1.09693.10787-2.19817.21622-3.29223.32169m6.12421-.74119a.255.255,0,0,1-.11314.21382.1808.1808,0,0,0-.14383-.05034c-.04459.0048-.08726.00863-.13184.01343v-.37348A.2263.2263,0,0,1,29.445,11.561a.246.246,0,0,1,.23972.25074m-1.93737.33128q-.28766.02973-.57532.05754v-.61319h.76517v.36532l-.18841.18937m2.67376,3.95241h-.27567V14.69688h.27567Zm-1.12377,1.491V12.387l.07527-.00815a2.6913,2.6913,0,0,1,.39457.69325,6.59343,6.59343,0,0,1,.29149,1.26234H29.8252v2.12147h.2958a8.36389,8.36389,0,0,1-.151,1.12953Zm.90515.56189h-.58346v-.199h.58346Zm-.83036.86968-.07527-.00719v-.50005h.39121a2.76775,2.76775,0,0,1-.31594.50724m-.65586-.06472q-.70044-.07145-1.4052-.13952l-2.88616-2.8943,1.3424-1.34815v1.98051h.92242V13.74139h-.09589l1.08639-1.08926H28.257V12.4896c.15246-.0163.30492-.03068.45737-.04794v6.51063m-2.34584-2.76343h-.27567V14.24718l.14383-.14383h.13184Zm-2.77061,2.25955q-.76708-.07479-1.54567-.14863l2.15359-2.1603,2.61575,2.62391C25.74719,18.65648,24.669,18.551,23.597,18.447m-5.3624-.72106h.45882v.17451h-.45882ZM19.38518,14.73a1.344,1.344,0,0,0,1.31219-1.374,1.286,1.286,0,0,0-.00575-.12944c.186-.01822.37156-.03548.55758-.05322l2.73609,2.74521L21.649,18.261c-.78051-.07479-1.56533-.14958-2.3492-.22341V14.72661c.02829,0,.05658.00336.08486.00336m0-2.09079a.67118.67118,0,0,1,.52737.26321.72584.72584,0,0,1,.1515.38354.56824.56824,0,0,1,.00336.07048.7001.7001,0,0,1-.68415.71578.7079.7079,0,0,1-.08486-.00479.67506.67506,0,0,1-.37826-.1841.72968.72968,0,0,1-.22054-.52737.70329.70329,0,0,1,.68366-.71914m4.21274.30827c1.08206-.10452,2.17085-.211,3.25675-.31834v.023h.38642L26.15326,13.739h-.38354v.38354l-1.56485,1.57252-2.55439-2.56014c.653-.06281,1.30308-.12561,1.94647-.18746"/><path class="cls-16" d="M19.82913,13.3075a.466.466,0,0,0-.25122-.37443.43147.43147,0,0,0-.19177-.04794.42528.42528,0,0,0-.26321.09013.4718.4718,0,0,0-.18554.38019.4641.4641,0,0,0,.36341.46073.36.36,0,0,0,.08486.00911.45834.45834,0,0,0,.44733-.46909l0-.00075v-.048m-.54895.048a.10691.10691,0,0,1,.104-.10883.10451.10451,0,0,1,.1026.093.04827.04827,0,0,1,0,.01582.10691.10691,0,0,1-.10447.1093l0,0a.10356.10356,0,0,1-.08486-.048.10933.10933,0,0,1-.01918-.0628"/><path class="cls-19" d="M32.99134,17.13334a1.5989,1.5989,0,1,1,1.59889-1.5989,1.59889,1.59889,0,0,1-1.59889,1.5989"/><path class="cls-20" d="M32.99134,16.67644a1.14248,1.14248,0,1,1,.00287,0h-.001"/><path class="cls-19" d="M32.99134,16.46981a.93537.93537,0,1,1,.93536-.93536.93536.93536,0,0,1-.93536.93536h0"/><path class="cls-19" d="M14.05394,17.18128a1.59889,1.59889,0,1,1,1.59889-1.59889h0a1.59937,1.59937,0,0,1-1.59889,1.59889"/><path class="cls-20" d="M14.05394,16.72438a1.14248,1.14248,0,1,1,.00288,0h-.001"/><path class="cls-19" d="M14.05394,16.51775a.93537.93537,0,1,1,.93537-.93536.93536.93536,0,0,1-.93537.93536h0"/><path class="cls-21" d="M20.52622,24.42064a1.5989,1.5989,0,1,1,1.59889-1.5989v0a1.59938,1.59938,0,0,1-1.59889,1.59889"/><path class="cls-20" d="M20.52622,23.96374a1.14248,1.14248,0,1,1,.00287,0h-.001"/><path class="cls-19" d="M20.52622,23.75711a.93537.93537,0,1,1,.93536-.93536.93537.93537,0,0,1-.93536.93536h0"/><path class="cls-21" d="M24.79312,24.42064a1.5989,1.5989,0,1,1,1.59889-1.5989v0a1.59937,1.59937,0,0,1-1.59889,1.59889"/><path class="cls-20" d="M24.79312,23.96374a1.14248,1.14248,0,1,1,.00288,0h-.001"/><path class="cls-19" d="M24.79312,23.75711a.93537.93537,0,1,1,.93537-.93536.93537.93537,0,0,1-.93537.93536h0"/><path class="cls-22" d="M29.86835,4.45391V9.894H17.40323V4.45391a.45689.45689,0,0,1,.45689-.45689H29.41145A.4569.4569,0,0,1,29.86835,4.45391Z"/><path class="cls-23" d="M30.68337,4.40022V9.894h-.815V4.40022a.21143.21143,0,0,1,.21142-.21143h.3917a.21142.21142,0,0,1,.2119.211Z"/><path class="cls-24" d="M33.41611,4.40022V9.894h-.815V4.40022a.21143.21143,0,0,1,.21143-.21143h.39169a.21142.21142,0,0,1,.21191.211Z"/><path class="cls-25" d="M31.21074,4.359V9.894h-.52737V4.359a.1702.1702,0,0,1,.1702-.1702h.187a.17019.17019,0,0,1,.17019.17019Z"/><rect class="cls-26" x="31.21074" y="4.38056" width="1.39034" height="5.51342"/><rect class="cls-27" x="31.43847" y="3.70936" width="0.89317" height="2.99403" rx="0.44635"/><path class="cls-27" d="M32.33165,7.36787V9.91555h-.89318V7.36787a.44634.44634,0,0,1,.44635-.44634h0a.44634.44634,0,0,1,.44683.44586Z"/><circle class="cls-28" cx="31.88482" cy="6.28341" r="0.44635"/><path class="cls-23" d="M17.40323,4.40022V9.894h-.815V4.40022a.21143.21143,0,0,1,.21142-.21143h.3917a.21143.21143,0,0,1,.21191.21094Z"/><path class="cls-24" d="M14.67049,4.40022V9.894h-.815V4.40022a.21143.21143,0,0,1,.21143-.21143h.39169a.21143.21143,0,0,1,.21191.21094Z"/><path class="cls-25" d="M16.5882,4.359V9.894h-.52737V4.359a.1702.1702,0,0,1,.17019-.1702h.187A.1702.1702,0,0,1,16.5882,4.359Z"/><rect class="cls-26" x="14.67049" y="4.38056" width="1.39034" height="5.51342"/><rect class="cls-27" x="14.93993" y="3.70936" width="0.89317" height="2.99403" rx="0.44635"/><path class="cls-27" d="M15.8331,7.36787V9.91555h-.89317V7.36787a.44634.44634,0,0,1,.44634-.44634h.00048A.44634.44634,0,0,1,15.8331,7.36787Z"/><circle class="cls-28" cx="15.38675" cy="6.28341" r="0.44635"/><path class="cls-29" d="M44.90128,38.60067V38.361a.3602.3602,0,0,1,.30156-.39793h3.19874a.3602.3602,0,0,1,.30156.39793v.23971a.36071.36071,0,0,1-.30156.39841H45.20284a.36071.36071,0,0,1-.30156-.39841"/><path class="cls-29" d="M44.90128,19.74238v-.23971c0-.2191.13184-.39649.29485-.39649h3.12155c.163,0,.29485.17739.29485.39649v.23971c0,.21862-.13184.39649-.29485.39649H45.19613c-.163,0-.29485-.17787-.29485-.39649"/><path class="cls-30" d="M47.59471,39.09113h.29484c.15773,0,.28766.02157.28766-.21623V37.952c0-.18218-.07479-.16156-.18074-.22437V20.36947c.106-.0628.18074-.07383.18074-.25505v-.62326c0-.23732-.12753-.43148-.28766-.43148h-.29484c-.129,0-.23636.12944-.27184.30587H46.18279c-.036-.17643-.14383-.30587-.27183-.30587h-.29533c-.15773,0-.28526.19177-.28526.43148v.64915c0,.18793.08054.18506.19177.244V37.73962c-.11123.05849-.19177.04075-.19177.22869v.69133c0,.23971.12753.43149.28526.43149H45.911c.11937,0,.221-.11075.26368-.26753h1.1559c.04267.15678.14383.26753.26417.26753"/><path class="cls-31" d="M45.77959,37.44909V20.59576c0-.12992.0652-.23588.14383-.23588h1.60081c.08054,0,.14383.106.14383.23588V37.44909c0,.1304-.0652.23635-.14383.23635H45.92534c-.08055,0-.14383-.10595-.14383-.23635"/><path class="cls-29" d="M49.16915,21.44195v-.32936a.08774.08774,0,0,0-.08774-.08774h-.29053a.08678.08678,0,0,0-.08678.08294h-.77667v.3404h.77667a.08726.08726,0,0,0,.08678.08342h.29005a.08822.08822,0,0,0,.08822-.08822"/><path class="cls-32" d="M47.64217,21.40024v-.4358a.0695.0695,0,0,1,.069-.07h.21287a.07.07,0,0,1,.07.07v.4358a.07.07,0,0,1-.07.07h-.21238a.06951.06951,0,0,1-.06952-.06952v-.00048"/><path class="cls-29" d="M44.2809,21.44195v-.32936a.08774.08774,0,0,1,.08774-.08774h.29005a.08727.08727,0,0,1,.08726.08294h.77619v.3404H44.746a.08775.08775,0,0,1-.08726.08342h-.29005a.08822.08822,0,0,1-.08774-.08822"/><path class="cls-32" d="M45.8074,21.40024v-.4358a.06952.06952,0,0,0-.069-.07H45.5255a.07.07,0,0,0-.07.07v.4358a.07.07,0,0,0,.07.07h.2119a.06951.06951,0,0,0,.06952-.06952v-.00048"/><path class="cls-29" d="M49.16915,22.24116v-.32841a.08773.08773,0,0,0-.08774-.08773h-.29053a.08677.08677,0,0,0-.08678.08294h-.77667v.338h.77667a.08678.08678,0,0,0,.08678.083h.29005a.08773.08773,0,0,0,.08821-.08726l0-.00048"/><path class="cls-32" d="M47.64217,22.20089v-.4358a.07.07,0,0,1,.06952-.07h.21238a.07.07,0,0,1,.07.07v.4358a.07.07,0,0,1-.07.07h-.21238a.07.07,0,0,1-.06952-.07"/><path class="cls-29" d="M44.2809,22.24116v-.32841a.08773.08773,0,0,1,.08774-.08773h.29005a.08726.08726,0,0,1,.08726.08294h.77619v.338H44.746a.08728.08728,0,0,1-.08726.083h-.29005a.08774.08774,0,0,1-.08774-.08774"/><path class="cls-32" d="M45.8074,22.20089v-.4358a.07.07,0,0,0-.06952-.07H45.5255a.07048.07048,0,0,0-.07.07v.4358a.07047.07047,0,0,0,.07.07h.2119a.07.07,0,0,0,.06952-.07"/><path class="cls-29" d="M49.16915,23.08783V22.7599a.08821.08821,0,0,0-.08822-.08821h-.29005a.08677.08677,0,0,0-.08678.08294h-.77667v.338h.77667a.08678.08678,0,0,0,.08678.08151h.29005a.08773.08773,0,0,0,.08821-.08726l0-.00048"/><path class="cls-32" d="M47.64217,23.04756v-.4358a.06951.06951,0,0,1,.069-.07h.21287a.07.07,0,0,1,.07.07v.4358a.07.07,0,0,1-.07.07h-.21238a.06951.06951,0,0,1-.06952-.06951v-.00048"/><path class="cls-29" d="M44.2809,23.08783V22.7599a.08774.08774,0,0,1,.08726-.08821h.29053a.08726.08726,0,0,1,.08726.08294h.77619v.338H44.746a.08727.08727,0,0,1-.08726.08151h-.29005a.08774.08774,0,0,1-.08774-.08774"/><path class="cls-32" d="M45.8074,23.04756v-.4358a.06953.06953,0,0,0-.069-.07H45.5255a.07.07,0,0,0-.07.07v.4358a.07.07,0,0,0,.07.07h.2119a.06951.06951,0,0,0,.06952-.06951v-.00048"/><path class="cls-29" d="M49.16915,23.91532v-.32793a.08821.08821,0,0,0-.08822-.08821h-.29005a.08726.08726,0,0,0-.08678.08342h-.77667v.3356h.77667a.08726.08726,0,0,0,.08678.08342h.29005a.08822.08822,0,0,0,.08822-.08822"/><path class="cls-32" d="M47.64217,23.87553v-.43628a.06952.06952,0,0,1,.06952-.06952h.21238a.06953.06953,0,0,1,.07.069v.43676a.07.07,0,0,1-.07.07h-.21238a.07.07,0,0,1-.06952-.07"/><path class="cls-29" d="M44.2809,23.91532v-.32793a.08774.08774,0,0,1,.08726-.08821h.29053a.08726.08726,0,0,1,.08726.08342h.77619v.3356H44.746a.08727.08727,0,0,1-.08726.08342h-.29005a.08774.08774,0,0,1-.08774-.08774V23.9134"/><path class="cls-32" d="M45.8074,23.87553v-.43628a.06952.06952,0,0,0-.06952-.06952H45.5255a.07.07,0,0,0-.07.06952v.43628a.07047.07047,0,0,0,.07.07h.2119a.07.07,0,0,0,.06952-.07"/><path class="cls-29" d="M49.16915,24.72172v-.32793a.08821.08821,0,0,0-.08822-.08821h-.29005a.08726.08726,0,0,0-.08678.08342h-.77667v.33559h.77667a.08726.08726,0,0,0,.08678.08342h.29005a.08821.08821,0,0,0,.08822-.08821"/><path class="cls-32" d="M47.64217,24.68193v-.43628a.07.07,0,0,1,.06952-.07h.21238a.07.07,0,0,1,.07.07v.43628a.06953.06953,0,0,1-.06952.06952l-.00048,0h-.21238a.06951.06951,0,0,1-.06952-.06951h0"/><path class="cls-29" d="M44.2809,24.72172v-.32793a.08773.08773,0,0,1,.08726-.08821h.29053a.08726.08726,0,0,1,.08726.08342h.77619v.33559H44.746a.08774.08774,0,0,1-.08726.08342h-.29005a.08821.08821,0,0,1-.08774-.08821"/><path class="cls-32" d="M45.8074,24.68193v-.43628a.07.07,0,0,0-.06952-.07H45.5255a.07048.07048,0,0,0-.07.07v.43628a.07.07,0,0,0,.07.06951h.2119a.06951.06951,0,0,0,.06952-.06951h0"/><path class="cls-29" d="M49.16915,25.52332v-.3308a.08774.08774,0,0,0-.08774-.08774h-.29053a.08726.08726,0,0,0-.08678.08294h-.77667v.3356h.77667a.08726.08726,0,0,0,.08678.08342h.29005a.08822.08822,0,0,0,.08822-.08342"/><path class="cls-32" d="M47.64217,25.48113v-.43724a.07.07,0,0,1,.06952-.07h.21238a.07.07,0,0,1,.07.07v.43628a.06951.06951,0,0,1-.06952.06952h-.21286a.06951.06951,0,0,1-.06952-.06952h0"/><path class="cls-29" d="M44.2809,25.52332v-.3308a.08774.08774,0,0,1,.08774-.08774h.29005a.08727.08727,0,0,1,.08726.08342h.77619v.3356H44.746a.08726.08726,0,0,1-.08726.08342h-.29005a.08821.08821,0,0,1-.08774-.08821"/><path class="cls-32" d="M45.8074,25.48113v-.43724a.07.07,0,0,0-.06952-.07H45.5255a.07047.07047,0,0,0-.07.07v.43628a.07.07,0,0,0,.07.06952h.2119a.06951.06951,0,0,0,.06952-.06952h0"/><path class="cls-29" d="M49.16915,26.32972v-.327a.08774.08774,0,0,0-.08774-.08774h-.29053a.08727.08727,0,0,0-.08678.08342h-.77667v.3356h.77667a.08679.08679,0,0,0,.08678.083h.29005a.08773.08773,0,0,0,.08821-.08726l0-.00048"/><path class="cls-32" d="M47.64217,26.29041v-.4358a.06951.06951,0,0,1,.069-.07h.21287a.07.07,0,0,1,.07.07v.4358a.07.07,0,0,1-.07.07h-.21238a.06951.06951,0,0,1-.06952-.06951v-.00048"/><path class="cls-29" d="M44.2809,26.32972v-.327a.08774.08774,0,0,1,.08774-.08774h.29005a.08727.08727,0,0,1,.08726.08342h.77619v.3356H44.746a.08728.08728,0,0,1-.08726.083h-.29005a.08774.08774,0,0,1-.08774-.08774"/><path class="cls-32" d="M45.8074,26.29041v-.4358a.06953.06953,0,0,0-.069-.07H45.5255a.07.07,0,0,0-.07.07v.4358a.07.07,0,0,0,.07.07h.2119a.06951.06951,0,0,0,.06952-.06951v-.00048"/><path class="cls-29" d="M49.16915,27.14762v-.32984a.08822.08822,0,0,0-.08822-.08822h-.29005a.08726.08726,0,0,0-.08678.08342h-.77667v.3356h.77667a.08726.08726,0,0,0,.08678.08342h.29005a.08821.08821,0,0,0,.08822-.08821"/><path class="cls-32" d="M47.64217,27.10783V26.674a.06951.06951,0,0,1,.06952-.06952h.21238a.06953.06953,0,0,1,.07.069v.43676a.06953.06953,0,0,1-.06952.06952l-.00048,0h-.21238a.06951.06951,0,0,1-.06952-.06951h0"/><path class="cls-29" d="M44.2809,27.14762v-.32984a.08774.08774,0,0,1,.08726-.08822h.29053a.08727.08727,0,0,1,.08726.08342h.77619v.3356H44.746a.08726.08726,0,0,1-.08726.08342h-.29005a.08773.08773,0,0,1-.08774-.08773v-.00048"/><path class="cls-32" d="M45.8074,27.10783V26.674a.06953.06953,0,0,0-.06708-.07188l-.00292,0H45.525a.07.07,0,0,0-.07.06952v.43628a.07.07,0,0,0,.07.06952h.21238a.06952.06952,0,0,0,.06952-.06952h0"/><path class="cls-29" d="M49.16915,27.9684v-.3308a.08774.08774,0,0,0-.08774-.08774h-.29053a.08726.08726,0,0,0-.08678.08294h-.77667v.3356h.77667a.08726.08726,0,0,0,.08678.08342h.29005a.08822.08822,0,0,0,.08822-.08342"/><path class="cls-32" d="M47.64217,27.92621V27.489a.06951.06951,0,0,1,.06952-.06951h.21238a.06952.06952,0,0,1,.07.069v.43676a.06951.06951,0,0,1-.06952.06952h-.21286a.06951.06951,0,0,1-.06952-.06952h0"/><path class="cls-29" d="M44.2809,27.9684v-.3308a.08774.08774,0,0,1,.08774-.08774h.29005a.08727.08727,0,0,1,.08726.08342h.77619v.3356H44.746a.08774.08774,0,0,1-.08726.08342h-.29005a.08821.08821,0,0,1-.08774-.08821"/><path class="cls-32" d="M45.8074,27.92621V27.489a.06951.06951,0,0,0-.06952-.06951H45.5255a.07.07,0,0,0-.07.06951v.43628a.07.07,0,0,0,.07.06952h.2119a.06951.06951,0,0,0,.06952-.06952h0"/><path class="cls-29" d="M49.16915,28.7748v-.327a.08774.08774,0,0,0-.08774-.08774h-.29053a.08679.08679,0,0,0-.08678.08294h-.77667v.3356h.77667a.08726.08726,0,0,0,.08678.08342h.29005a.08772.08772,0,0,0,.08821-.08725l0-.00048"/><path class="cls-32" d="M47.64217,28.73549v-.4358a.06951.06951,0,0,1,.069-.07h.21287a.07.07,0,0,1,.07.07v.4358a.07.07,0,0,1-.07.07h-.21238a.07.07,0,0,1-.06952-.07"/><path class="cls-29" d="M44.2809,28.7748v-.327a.08726.08726,0,0,1,.08677-.08774h.291a.08728.08728,0,0,1,.08726.08294h.77619v.3356H44.746a.08726.08726,0,0,1-.08726.08342h-.29005a.08773.08773,0,0,1-.08774-.08773h0"/><path class="cls-32" d="M45.8074,28.73549v-.4358a.06953.06953,0,0,0-.069-.07H45.5255a.07.07,0,0,0-.07.07v.4358a.07047.07047,0,0,0,.07.07h.2119a.07.07,0,0,0,.06952-.07"/><path class="cls-29" d="M49.16915,29.61188v-.3284a.08774.08774,0,0,0-.08774-.08774h-.29053a.08726.08726,0,0,0-.08678.08342h-.77667v.3356h.77667a.08678.08678,0,0,0,.08678.08294h.29005a.08773.08773,0,0,0,.08821-.08725l0-.00049"/><path class="cls-32" d="M47.64217,29.57161v-.4358a.07.07,0,0,1,.06952-.07h.21238a.07.07,0,0,1,.07.07h0v.4358a.07.07,0,0,1-.07.07h-.21238a.06952.06952,0,0,1-.06952-.06952v-.00048"/><path class="cls-29" d="M44.2809,29.61188v-.3284a.08774.08774,0,0,1,.08774-.08774h.29005a.08726.08726,0,0,1,.08726.08342h.77619v.3356H44.746a.08726.08726,0,0,1-.08726.08294h-.29005A.08774.08774,0,0,1,44.2809,29.61h0"/><path class="cls-32" d="M45.8074,29.57161v-.4358a.07.07,0,0,0-.06952-.07H45.5255a.07048.07048,0,0,0-.07.07v.4358a.07.07,0,0,0,.07.07h.21191a.06952.06952,0,0,0,.06952-.06952v-.00048"/><path class="cls-29" d="M49.16915,30.43026v-.32793a.08821.08821,0,0,0-.08822-.08821h-.29005a.08726.08726,0,0,0-.08678.08342h-.77667v.3356h.77667a.08726.08726,0,0,0,.08678.08342h.29005a.08822.08822,0,0,0,.08822-.08822h0"/><path class="cls-32" d="M47.64217,30.39047v-.43628a.06952.06952,0,0,1,.06952-.06808h.21238a.06953.06953,0,0,1,.07.069v.43676a.06952.06952,0,0,1-.06952.06952h-.21286a.06952.06952,0,0,1-.06952-.06952h0"/><path class="cls-29" d="M44.2809,30.43026v-.32793a.08773.08773,0,0,1,.08725-.08821h.29054a.08726.08726,0,0,1,.08726.08342h.77619v.3356H44.746a.08727.08727,0,0,1-.08726.08342h-.29005a.08774.08774,0,0,1-.08774-.08774v-.00048"/><path class="cls-32" d="M45.8074,30.39047v-.43628a.06953.06953,0,0,0-.07-.06808H45.525a.07.07,0,0,0-.07.06952v.43628a.07.07,0,0,0,.07.06952h.21238a.06952.06952,0,0,0,.06952-.06952h0"/><path class="cls-29" d="M49.16915,31.26782v-.327a.08822.08822,0,0,0-.08822-.08821h-.29005a.08726.08726,0,0,0-.08678.08342h-.77667v.3356h.77667a.08679.08679,0,0,0,.08678.08294h.29005a.08773.08773,0,0,0,.08821-.08726l0-.00048"/><path class="cls-32" d="M47.64217,31.22851v-.4358a.0695.0695,0,0,1,.069-.07l.00049,0h.21238a.07.07,0,0,1,.07.07h0v.4358a.07.07,0,0,1-.07.07h-.21238a.06951.06951,0,0,1-.06952-.06952v-.00048"/><path class="cls-29" d="M44.2809,31.26782v-.327a.08773.08773,0,0,1,.08725-.08821h.29054a.08726.08726,0,0,1,.08726.08342h.77619v.3356H44.746a.08727.08727,0,0,1-.08726.08294h-.29005a.08774.08774,0,0,1-.08774-.08774h0"/><path class="cls-32" d="M45.8074,31.22851v-.4358a.06951.06951,0,0,0-.069-.07l-.00048,0H45.5255a.07.07,0,0,0-.07.07h0v.4358a.07.07,0,0,0,.07.07h.21191a.06951.06951,0,0,0,.06952-.06952v-.00048"/><path class="cls-29" d="M49.16915,32.07662v-.32841a.08774.08774,0,0,0-.08726-.08821h-.291a.08677.08677,0,0,0-.08678.08294h-.77667v.3356h.77667a.08679.08679,0,0,0,.08678.08294h.29005a.08774.08774,0,0,0,.08821-.08726l0-.00048"/><path class="cls-32" d="M47.64217,32.03635v-.43581a.0695.0695,0,0,1,.069-.07h.21287a.07.07,0,0,1,.07.07h0v.43581a.07.07,0,0,1-.07.07h-.21238a.06951.06951,0,0,1-.06952-.06951v-.00048"/><path class="cls-29" d="M44.2809,32.07662v-.32841a.08773.08773,0,0,1,.08774-.08773h.29005a.08726.08726,0,0,1,.08726.08294h.77619v.3356H44.746a.08728.08728,0,0,1-.08726.08294h-.29005a.08774.08774,0,0,1-.08774-.08774h0"/><path class="cls-32" d="M45.8074,32.03635v-.43581a.06952.06952,0,0,0-.069-.07H45.525a.07.07,0,0,0-.07.07h0v.4358a.07.07,0,0,0,.07.07h.21239a.06952.06952,0,0,0,.06952-.06952v-.00048"/><path class="cls-29" d="M49.16915,32.89452v-.32793a.08821.08821,0,0,0-.08822-.08821h-.29005a.08726.08726,0,0,0-.08678.08342h-.77667v.3356h.77667a.08727.08727,0,0,0,.08678.08342h.29005a.08822.08822,0,0,0,.08822-.08822h0"/><path class="cls-32" d="M47.64217,32.85473v-.43628a.06952.06952,0,0,1,.06952-.06952h.21238a.06953.06953,0,0,1,.07.069v.43676a.06952.06952,0,0,1-.06952.06952h-.21286a.06952.06952,0,0,1-.06952-.06952h0"/><path class="cls-29" d="M44.2809,32.89452v-.32793a.08773.08773,0,0,1,.08725-.08821h.29054a.08726.08726,0,0,1,.08726.08342h.77619v.3356H44.746a.08727.08727,0,0,1-.08726.08342h-.29005a.08774.08774,0,0,1-.08774-.08774V32.8926"/><path class="cls-32" d="M45.8074,32.85473v-.43628a.06952.06952,0,0,0-.06952-.06952H45.5255a.07.07,0,0,0-.07.06952v.43628a.07.07,0,0,0,.07.06952h.2119a.06952.06952,0,0,0,.06952-.06952h0"/><path class="cls-29" d="M49.16915,33.71291v-.327a.08774.08774,0,0,0-.08774-.08774h-.29053a.08726.08726,0,0,0-.08678.08342h-.77667v.3356h.77667a.08678.08678,0,0,0,.08678.08294h.29005a.08773.08773,0,0,0,.08821-.08725l0-.00049"/><path class="cls-32" d="M47.64217,33.67359v-.4358a.07.07,0,0,1,.06952-.07h.21238a.07.07,0,0,1,.07.07h0v.4358a.07.07,0,0,1-.07.07h-.21238a.06951.06951,0,0,1-.06952-.06952v-.00048"/><path class="cls-29" d="M44.2809,33.71291v-.327a.08774.08774,0,0,1,.08774-.08774h.29005a.08726.08726,0,0,1,.08726.08342h.77619v.3356H44.746a.08726.08726,0,0,1-.08726.08294h-.29005a.08774.08774,0,0,1-.08774-.08774h0"/><path class="cls-32" d="M45.8074,33.67359v-.4358a.07.07,0,0,0-.06952-.07H45.5255a.07048.07048,0,0,0-.07.07v.4358a.07.07,0,0,0,.07.07h.21191a.06951.06951,0,0,0,.06952-.06952v-.00048"/><path class="cls-29" d="M49.16915,34.5217v-.32841a.08821.08821,0,0,0-.08822-.08821h-.29005a.08726.08726,0,0,0-.08678.08342h-.77667v.3356h.77667a.08726.08726,0,0,0,.08678.08342h.29005a.08773.08773,0,0,0,.08821-.08726l0-.00048"/><path class="cls-32" d="M47.64217,34.48143v-.4358a.06951.06951,0,0,1,.069-.07h.21287a.07.07,0,0,1,.07.07h0v.4358a.07.07,0,0,1-.07.07h-.21238a.06951.06951,0,0,1-.06952-.06951v-.00048"/><path class="cls-29" d="M44.2809,34.5217v-.32841a.08821.08821,0,0,1,.08774-.08821h.29005a.08774.08774,0,0,1,.08726.08342h.77619v.3356H44.746a.08727.08727,0,0,1-.08726.08342h-.29005a.08774.08774,0,0,1-.08774-.08774h0"/><path class="cls-32" d="M45.8074,34.48143v-.4358a.06952.06952,0,0,0-.069-.07H45.525a.07.07,0,0,0-.07.07h0v.4358a.07.07,0,0,0,.07.07h.21239a.06952.06952,0,0,0,.06952-.06952v-.00048"/><path class="cls-29" d="M49.16915,35.35878v-.32793a.08821.08821,0,0,0-.08822-.08821h-.29005a.08677.08677,0,0,0-.08678.08294h-.77667v.3356h.77667a.08678.08678,0,0,0,.08678.08629h.29005a.08772.08772,0,0,0,.08821-.08725l0-.00048"/><path class="cls-32" d="M47.64217,35.31851v-.4358a.07.07,0,0,1,.06952-.07h.21238a.07.07,0,0,1,.07.07h0v.4358a.07.07,0,0,1-.07.07h-.21238a.06952.06952,0,0,1-.06952-.06952v-.00048"/><path class="cls-29" d="M44.2809,35.35878v-.32793a.08773.08773,0,0,1,.08725-.08821h.29054a.08726.08726,0,0,1,.08726.08294h.77619v.3356H44.746a.08725.08725,0,0,1-.08726.08629h-.29005a.08773.08773,0,0,1-.08774-.08773h0"/><path class="cls-32" d="M45.8074,35.31851v-.4358a.07.07,0,0,0-.06952-.07H45.5255a.07048.07048,0,0,0-.07.07v.4358a.07.07,0,0,0,.07.07h.21191a.06952.06952,0,0,0,.06952-.06952v-.00048"/><path class="cls-29" d="M49.16915,36.17716v-.32793a.08821.08821,0,0,0-.08822-.08821h-.29005a.08726.08726,0,0,0-.08678.08342h-.77667V36.18h.77667a.08727.08727,0,0,0,.08678.08342h.29005a.08822.08822,0,0,0,.08822-.08822h0"/><path class="cls-32" d="M47.64217,36.13737v-.43628a.06951.06951,0,0,1,.06952-.06951h.21238a.06952.06952,0,0,1,.07.069v.43676a.06951.06951,0,0,1-.06952.06952h-.21286a.06951.06951,0,0,1-.06952-.06952h0"/><path class="cls-29" d="M44.2809,36.17716v-.32793a.08773.08773,0,0,1,.08725-.08821h.29054a.08726.08726,0,0,1,.08726.08342h.77619V36.18H44.746a.08727.08727,0,0,1-.08726.08342h-.29005a.08822.08822,0,0,1-.08774-.08822"/><path class="cls-32" d="M45.8074,36.13737v-.43628a.06951.06951,0,0,0-.06952-.06951H45.5255a.07.07,0,0,0-.07.06951v.43628a.07.07,0,0,0,.07.06952h.2119a.06951.06951,0,0,0,.06952-.06952h0"/><path class="cls-29" d="M49.16915,37.04061v-.32793a.08821.08821,0,0,0-.08822-.08821h-.29005a.08726.08726,0,0,0-.08678.08342h-.77667v.3356h.77667a.08727.08727,0,0,0,.08678.08342h.29005a.08822.08822,0,0,0,.08822-.08822h0"/><path class="cls-32" d="M47.64217,37.00082v-.43628a.06951.06951,0,0,1,.06952-.06951h.21238a.06952.06952,0,0,1,.07.069v.43676a.06951.06951,0,0,1-.06952.06952h-.21286a.06951.06951,0,0,1-.06952-.06952h0"/><path class="cls-29" d="M44.2809,37.04061v-.32793a.08773.08773,0,0,1,.08725-.08821h.29054a.08726.08726,0,0,1,.08726.08342h.77619v.3356H44.746a.08727.08727,0,0,1-.08726.08342h-.29005a.08822.08822,0,0,1-.08774-.08822"/><path class="cls-32" d="M45.8074,37.00082v-.43628a.06951.06951,0,0,0-.06952-.06951H45.5255a.07.07,0,0,0-.07.06951v.43628a.07.07,0,0,0,.07.06952h.2119a.06951.06951,0,0,0,.06952-.06952h0"/><path class="cls-32" d="M47.77257,38.09727c.12274,0,.2215.13616.2215.41327s-.09876.41662-.2215.41662-.22149-.139-.22149-.41662.09924-.41327.22149-.41327"/><path class="cls-32" d="M45.74363,38.09727c.12274,0,.2215.13616.2215.41327s-.09876.41662-.2215.41662-.22149-.139-.22149-.41662.09924-.41327.22149-.41327"/><path class="cls-32" d="M47.77257,19.26008c.12274,0,.2215.13663.2215.41374s-.09876.41663-.2215.41663-.22149-.13952-.22149-.41663.09924-.41374.22149-.41374"/><path class="cls-32" d="M45.74363,19.26008c.12274,0,.2215.13663.2215.41374s-.09876.41663-.2215.41663-.22149-.13952-.22149-.41663.09924-.41374.22149-.41374"/><path class="cls-5" d="M49.94948,20.422c.05664.00488.13867-.00635.13867-.08105a.08613.08613,0,0,0-.09228-.08643c-.0669,0-.10156.04932-.10059.11621H49.7698a.21586.21586,0,0,1,.22509-.2251.20074.20074,0,0,1,.21875.18067.12941.12941,0,0,1-.09131.13281v.002a.14541.14541,0,0,1,.11573.14795.24308.24308,0,0,1-.48438-.02295h.126c.00244.07032.03808.12842.11426.12842a.10012.10012,0,0,0,.106-.10254c0-.09863-.08642-.09668-.15039-.09668Z"/><path class="cls-5" d="M50.41335,20.64267a.09364.09364,0,0,0,.0874.08106c.09717,0,.12012-.127.125-.19824l-.00195-.002a.16311.16311,0,0,1-.147.07276.20844.20844,0,0,1-.14991-.06739.22058.22058,0,0,1-.05029-.145.22569.22569,0,0,1,.228-.23828c.19726,0,.25049.17237.25049.33692,0,.16015-.0708.34082-.25586.34082a.1987.1987,0,0,1-.21143-.18067Zm.2002-.26709a.11182.11182,0,0,0-.105-.12109.10875.10875,0,0,0-.0996.11914c0,.06152.03173.12305.0996.12305A.10763.10763,0,0,0,50.61355,20.37558Z"/><path class="cls-5" d="M49.84157,38.53135h-.13183V38.109h-.16407v-.09961c.09229.00244.17579-.02978.19092-.12939h.105Z"/><path class="cls-5" d="M43.66774,20.65879h-.27587v-.1211l.2832-.37939h.11816v.3916h.08643v.10889h-.08643v.15088h-.12549Zm0-.335h-.00293l-.16845.22607h.17138Z"/><path class="cls-5" d="M44.15554,20.14512c.13037,0,.24023.082.24023.33593,0,.25977-.10986.3418-.24023.3418-.1294,0-.23828-.082-.23828-.3418C43.91726,20.22715,44.02614,20.14512,44.15554,20.14512Zm0,.56884c.10791,0,.10791-.15918.10791-.23291,0-.06787,0-.227-.10791-.227-.10694,0-.106.15918-.106.227C44.04958,20.55478,44.04958,20.714,44.15554,20.714Z"/><path class="cls-5" d="M43.15163,38.13a.231.231,0,0,1,.23633-.26319.20707.20707,0,0,1,.22314.20362c0,.19775-.20947.21338-.3042.34717H43.615v.11377h-.47852c0-.15186.09327-.21387.20557-.29151.05713-.04.13721-.0791.13721-.15918a.094.094,0,0,0-.09815-.10058c-.07812,0-.103.081-.103.1499Z"/></g></g></svg>