<?xml version="1.0" encoding="utf-8"?>
<!-- Generator: Adobe Illustrator 26.0.1, SVG Export Plug-In . SVG Version: 6.00 Build 0)  -->
<svg version="1.1" id="Layer_1" xmlns="http://www.w3.org/2000/svg" xmlns:xlink="http://www.w3.org/1999/xlink" x="0px" y="0px"
	 viewBox="0 0 606.3 414.9" style="enable-background:new 0 0 606.3 414.9;" xml:space="preserve">
<style type="text/css">
	.st0{fill:#C0BFBF;}
	.st1{opacity:0.3;}
	.st2{fill:#DEAA54;}
	.st3{fill:#D3D3D3;}
	.st4{clip-path:url(#SVGID_00000062904353830477711280000002523769985873953415_);}
	.st5{clip-path:url(#SVGID_00000140717722631376705040000009835259165621350313_);}
	.st6{fill:#EAF4FC;}
	.st7{fill:#323D49;}
	.st8{fill:#222630;}
	.st9{fill:#BE8E3F;}
	.st10{fill:#EB2627;}
	.st11{fill:#7F8080;}
	.st12{fill:#333333;}
	.st13{fill:#B3B3B3;}
	.st14{fill:#FED401;}
	.st15{fill:#ED1C24;}
	.st16{fill:#FFFFFF;}
</style>
<g>
	<path class="st0" d="M247.2,86.9H0v57.7h14.4c11.4,0.3,20.4,9.7,20.1,21c-0.2,11-9.1,19.9-20.1,20.1H0V328h247.2V86.9z"/>
	<g class="st1">
		<path class="st2" d="M47.1,165v-2.2c0-17.5-14.2-31.7-31.7-31.7c0,0,0,0,0,0H0v13.4h14.4c11.4,0.3,20.4,9.7,20.1,21
			c-0.2,11-9.1,19.9-20.1,20.1H0v11h15.4C32.9,196.6,47.1,182.5,47.1,165"/>
	</g>
	<g id="Back_Label">
		<polygon class="st3" points="171.9,143.7 171.9,118.4 236.9,118.4 236.9,143.7 234.9,143.7 234.9,120.4 173.9,120.4 173.9,143.7 
					"/>
		<polygon class="st3" points="171.9,294.5 171.9,269.3 173.9,269.3 173.9,292.5 234.9,292.5 234.9,269.3 236.9,269.3 236.9,294.5 
					"/>
		<polygon class="st3" points="162.8,226.4 154,226.4 154,218.2 162.8,218.2 162.8,193.7 154,193.7 154,185.4 162.8,185.4 
			162.8,163.4 154,163.4 154,154.8 107.8,154.8 107.8,256.7 154,256.7 154,248.9 162.8,248.9 		"/>
		<path class="st3" d="M100.6,131.9v3.5l-15.4,3.7l0,0l15.4,4v3.6l-15.4,4l0,0l15.4,3.7v3.8l-20.1-5.5V149l15.5-4l0,0l-15.4-4.1
			v-3.7L100.6,131.9z"/>
		<path class="st3" d="M100.6,160.1v3.2h-3v-3.2H100.6z M95,160.1v3.2H80.5v-3.2H95z"/>
		<path class="st3" d="M85.2,169.2c-1.6,0.2-2.7,1.6-2.6,3.1c0,0.1,0,0.1,0,0.2c0,1.3,0,3.4,1.9,3.2s1.9-2.4,2.4-4.8
			s1.3-4.6,4.3-4.6s4.2,3.4,4.2,6.1s-1.2,5.7-4.5,6.1v-3.4c1.5,0,1.9-1.5,1.9-2.9s0-2.7-1.5-2.7s-1.8,2.4-2.3,4.8s-1.4,4.7-4.3,4.7
			s-4.7-3.5-4.7-6.5s1.6-6.1,5.1-6.4V169.2z"/>
		<path class="st3" d="M100.4,185.2v9.7c0,3.9-1.2,6.1-5,6.1c-1.8,0.1-3.5-1-4.2-2.7c-0.6,2.3-2.7,3.8-5,3.7c-4.1,0-6.1-3.5-6.1-7.1
			v-9.8L100.4,185.2z M92.2,189.7v4.5c0,1.6,0.7,2.7,2.4,2.7s2.3-1.5,2.3-3v-4.1L92.2,189.7z M83.7,189.7v4.7c0,1.7,0.6,3.3,2.6,3.3
			s2.9-1.3,2.9-3.2v-4.8H83.7z"/>
		<path class="st3" d="M100.4,205v4.4H83.8v9.9h-3.7V205H100.4z"/>
		<path class="st3" d="M100.8,230.8c0.3,5.8-4.1,10.8-9.9,11.1c-5.8,0.3-10.8-4.1-11.1-9.9c-0.3-5.8,4.1-10.8,9.9-11.1c0,0,0,0,0,0
			h0.5c5.3-0.5,10,3.5,10.5,8.8c0,0,0,0,0,0C100.8,230,100.8,230.4,100.8,230.8z M83.5,230.8c0,4,3.4,5.4,6.8,5.4s6.8-1.5,6.8-5.4
			s-3.4-5.5-6.8-5.5S83.5,226.8,83.5,230.8z"/>
		<path class="st3" d="M93.6,257c2.1-0.4,3.6-2.3,3.5-4.4c0-4-3.4-5.4-6.8-5.4s-6.8,1.5-6.8,5.4c0,2.5,2,4.6,4.5,4.6v4.3
			c-4.7-0.2-8.3-4.1-8.2-8.8c0,0,0,0,0,0v-0.1c0.3-5.8,5.2-10.3,11-10c5.4,0.2,9.8,4.6,10,10c0.3,4.4-2.9,8.2-7.2,8.7L93.6,257z"/>
		<path class="st3" d="M100.4,264.5v4.4h-8.3l8.3,7.9v5.5l-7.9-7.9l-12.2,8.6v-5.6l9-6.1l-2.6-2.6h-6.4v-4.4L100.4,264.5z"/>
		<path class="st3" d="M74,119.5v9.4c0.2,2.6-1.8,4.9-4.5,5.1c-0.1,0-0.2,0-0.4,0c-1.9,0.2-3.7-1-4.4-2.8l0,0
			c-0.5,1.9-2.3,2.4-4.1,2.5c-1.1,0.1-3.2,0-4.1,0.7v-3.9c1.4-0.3,2.8-0.5,4.2-0.6c1.8-0.3,2.6-1,2.6-2.9v-3.8h-6.9v-3.8H74z
			 M66.1,123.4v4.2c0,1.7,0.7,2.6,2.5,2.6s2.4-0.9,2.4-2.7v-4.2L66.1,123.4z"/>
		<path class="st3" d="M74,143v3.9l-17.5,6.5v-4l3.9-1.3v-6.5l-3.9-1.4v-3.9L74,143z M63.3,142.6v4.5l6.4-2.2l0,0L63.3,142.6z"/>
		<path class="st3" d="M74,155.9v3.9h-7.3l7.3,6.8v4.8l-6.9-6.8l-10.6,7.5v-4.8l7.9-5.2l-2.2-2.2h-5.6v-3.9L74,155.9z"/>
		<path class="st3" d="M56.5,182.5V179h11.1v-4.3h2.6c-0.1,2.4,0.8,4.6,3.4,5v2.8L56.5,182.5z"/>
		<path class="st3" d="M67.1,188.4c3.9-0.1,6.9,2.1,6.9,6.2c0,3.1-2,5.9-5.4,5.9c-5.2,0-5.6-5.5-9.1-8v8.1h-3V188
			c4,0,5.6,2.4,7.7,5.4c1,1.5,2.1,3.6,4.2,3.6c1.4,0.1,2.5-0.9,2.7-2.3c0-0.1,0-0.2,0-0.3c0-2.1-2.1-2.7-3.9-2.7V188.4z"/>
		<path class="st3" d="M74,208.9c0,3.4-2.2,6.3-8.8,6.3c-6.8,0-9-2.9-9-6.3s2.2-6.3,9-6.3C71.8,202.6,74,205.4,74,208.9z M59,208.9
			c0,2.9,4.2,2.9,6.1,2.9c1.8,0,6,0,6-2.9s-4.2-2.8-6-2.8C63.2,206.1,59,206.1,59,208.9z"/>
		<path class="st3" d="M56.5,226.3v-3.5h11.1v-4.3h2.6c-0.1,2.4,0.8,4.6,3.4,5v2.8L56.5,226.3z"/>
		<path class="st3" d="M60.9,235.4c-1.2,0.2-2.1,1.1-2.1,2.3c0,2.6,3.3,3.2,5.2,3.3H64c-1.3-0.9-2-2.4-1.9-3.9
			c0-1.5,0.7-2.9,1.8-3.9c1.1-0.9,2.4-1.3,3.8-1.3c3.3-0.2,6.1,2.3,6.3,5.6c0,0.1,0,0.3,0,0.4c0,5.2-4.5,6.6-8.9,6.6s-9-1.9-9-6.7
			c-0.2-2.8,1.9-5.3,4.8-5.6L60.9,235.4z M67.9,240.6c1.6,0.1,3-1.1,3.2-2.7c0,0,0-0.1,0-0.1c0-1.7-1.6-2.6-3.1-2.6
			s-3.2,0.8-3.2,2.6S66.2,240.6,67.9,240.6L67.9,240.6z"/>
		<path class="st3" d="M54.7,245.9v12.2h-1.2v-12.2H54.7z"/>
		<path class="st3" d="M56.5,268.9v-4.3l17.5-5.7v4l-12.3,3.9l0,0l12.3,4v4L56.5,268.9z"/>
		<path class="st3" d="M74,281.9v4l-17.5,6.5v-4l3.9-1.3v-6.5l-3.9-1.4v-3.9L74,281.9z M63.3,281.6v4.5l6.4-2.2l0,0L63.3,281.6z"/>
	</g>
	<g id="slot-male-connector">
		<g>
			<defs>
				<rect id="SVGID_1_" x="173.2" y="125.9" width="59.8" height="162.7"/>
			</defs>
			<clipPath id="SVGID_00000026856505253421494930000001272086231274018738_">
				<use xlink:href="#SVGID_1_"  style="overflow:visible;"/>
			</clipPath>
			<g style="clip-path:url(#SVGID_00000026856505253421494930000001272086231274018738_);">
				<g>
					<defs>
						<rect id="SVGID_00000011029165551956844870000016235137176613728443_" x="173.2" y="125.9" width="59.8" height="162.7"/>
					</defs>
					<clipPath id="SVGID_00000026859567762104302300000014194240725823136397_">
						<use xlink:href="#SVGID_00000011029165551956844870000016235137176613728443_"  style="overflow:visible;"/>
					</clipPath>
					<g style="clip-path:url(#SVGID_00000026859567762104302300000014194240725823136397_);">
						<path class="st6" d="M181.4,134v-2.1c0-1.9,1.6-3.5,3.5-3.5c0,0,0,0,0,0h37c1.9,0,3.5,1.6,3.5,3.5c0,0,0,0,0,0v2.1
							c0,1.9-1.6,3.5-3.5,3.5c0,0,0,0,0,0h-37C182.9,137.5,181.4,135.9,181.4,134C181.4,134,181.4,134,181.4,134"/>
						<path class="st6" d="M181.4,281.6v-2.1c0-1.9,1.6-3.5,3.5-3.5h37c1.9,0,3.5,1.6,3.5,3.5v2.1c0,1.9-1.6,3.5-3.5,3.5h-37
							C182.9,285.1,181.4,283.5,181.4,281.6"/>
						<path class="st7" d="M213.7,288.6h3.6c1.9,0,3.5-1.6,3.5-3.5v-7.2c0-1.4-0.9-2.7-2.2-3.2V139.9c1.3-0.5,2.2-1.8,2.2-3.2v-7.2
							c0-1.9-1.6-3.5-3.5-3.5l0,0h-3.6c-1.5,0-2.9,1-3.3,2.5h-14c-0.4-1.5-1.8-2.5-3.3-2.5h-3.6c-1.9,0-3.5,1.6-3.5,3.5l0,0v7.2
							c0,1.5,0.9,2.8,2.4,3.3v134.7c-1.4,0.5-2.3,1.8-2.4,3.3v7.2c0,1.9,1.6,3.5,3.5,3.5h3.6c1.4,0,2.7-0.9,3.2-2.2h14.1
							C211,287.8,212.2,288.6,213.7,288.6"/>
						<path class="st8" d="M191.5,271V143.6c0-1,0.8-1.8,1.8-1.8h19.6c1,0,1.8,0.8,1.8,1.8V271c0,1-0.8,1.8-1.8,1.8h-19.6
							C192.3,272.8,191.5,272,191.5,271L191.5,271"/>
						<path class="st6" d="M233,155.1v-4c0-0.6-0.5-1.1-1.1-1.1l0,0h-3.6c-0.6,0-1,0.4-1.1,1h-9.5v4.1h9.5c0,0.6,0.5,1,1.1,1h3.6
							C232.5,156.1,233,155.7,233,155.1C233,155.1,233,155.1,233,155.1"/>
						<path class="st9" d="M214.3,154.6v-5.3c0-0.5,0.4-0.9,0.8-0.9h0h2.6c0.5,0,0.9,0.4,0.9,0.8v0v5.3c0,0.5-0.4,0.9-0.8,0.9h0
							h-2.6C214.7,155.4,214.3,155.1,214.3,154.6L214.3,154.6"/>
						<path class="st6" d="M173.2,155.1v-4c0-0.6,0.5-1.1,1.1-1.1l0,0h3.6c0.6,0,1,0.4,1.1,1h9.5v4.1h-9.5c0,0.6-0.5,1-1.1,1h-3.6
							C173.6,156.1,173.2,155.7,173.2,155.1C173.2,155.1,173.2,155.1,173.2,155.1"/>
						<path class="st9" d="M191.8,154.6v-5.3c0-0.5-0.4-0.9-0.8-0.9c0,0,0,0,0,0h-2.6c-0.5,0-0.9,0.4-0.9,0.8c0,0,0,0,0,0v5.3
							c0,0.5,0.4,0.9,0.8,0.9c0,0,0,0,0,0h2.6C191.5,155.4,191.9,155.1,191.8,154.6C191.9,154.6,191.9,154.6,191.8,154.6"/>
						<path class="st6" d="M233,164.9v-4c0-0.6-0.5-1.1-1.1-1.1l0,0h-3.6c-0.6,0-1,0.4-1.1,1h-9.5v4.1h9.5c0,0.6,0.5,1,1.1,1h3.6
							C232.5,165.9,233,165.4,233,164.9L233,164.9"/>
						<path class="st9" d="M214.3,164.4V159c0-0.5,0.4-0.9,0.8-0.9h0h2.6c0.5,0,0.9,0.4,0.9,0.8v0v5.3c0,0.5-0.4,0.9-0.9,0.9h-2.6
							C214.7,165.2,214.3,164.8,214.3,164.4"/>
						<path class="st6" d="M173.2,164.9v-4c0-0.6,0.5-1.1,1.1-1.1l0,0h3.6c0.6,0,1,0.4,1.1,1h9.5v4.1h-9.5c0,0.6-0.5,1-1.1,1h-3.6
							C173.6,165.9,173.2,165.4,173.2,164.9L173.2,164.9"/>
						<path class="st9" d="M191.8,164.4V159c0-0.5-0.4-0.9-0.8-0.9c0,0,0,0,0,0h-2.6c-0.5,0-0.9,0.4-0.9,0.8c0,0,0,0,0,0v5.3
							c0,0.5,0.4,0.9,0.9,0.9l0,0h2.6C191.5,165.2,191.9,164.8,191.8,164.4L191.8,164.4"/>
						<path class="st6" d="M233,175.2v-4c0-0.6-0.5-1.1-1.1-1.1c0,0,0,0,0,0h-3.6c-0.6,0-1,0.4-1.1,1h-9.5v4.1h9.5
							c0,0.6,0.5,1,1.1,1h3.6C232.5,176.3,233,175.8,233,175.2L233,175.2"/>
						<path class="st9" d="M214.3,174.7v-5.3c0-0.5,0.4-0.9,0.8-0.9c0,0,0,0,0,0h2.6c0.5,0,0.9,0.4,0.9,0.8c0,0,0,0,0,0v5.3
							c0,0.5-0.4,0.9-0.8,0.9h0h-2.6C214.7,175.6,214.3,175.2,214.3,174.7L214.3,174.7"/>
						<path class="st6" d="M173.2,175.2v-4c0-0.6,0.5-1.1,1.1-1.1c0,0,0,0,0,0h3.6c0.6,0,1,0.4,1.1,1h9.5v4.1h-9.5
							c0,0.6-0.5,1-1.1,1h-3.6C173.6,176.3,173.2,175.8,173.2,175.2L173.2,175.2"/>
						<path class="st9" d="M191.8,174.7v-5.3c0-0.5-0.4-0.9-0.8-0.9c0,0,0,0,0,0h-2.6c-0.5,0-0.9,0.4-0.9,0.8c0,0,0,0,0,0v5.3
							c0,0.5,0.4,0.9,0.8,0.9c0,0,0,0,0,0h2.6C191.5,175.6,191.9,175.2,191.8,174.7C191.9,174.7,191.9,174.7,191.8,174.7"/>
						<path class="st6" d="M233,185.3v-4c0-0.6-0.5-1.1-1.1-1.1l0,0h-3.6c-0.6,0-1,0.4-1.1,1h-9.5v4.1h9.5c0,0.6,0.5,1,1.1,1h3.6
							C232.5,186.4,233,185.9,233,185.3L233,185.3"/>
						<path class="st9" d="M214.3,184.8v-5.3c0-0.5,0.4-0.9,0.8-0.9h0h2.6c0.5,0,0.9,0.4,0.9,0.8v0v5.3c0,0.5-0.4,0.9-0.8,0.9
							c0,0,0,0,0,0h-2.6C214.7,185.7,214.3,185.3,214.3,184.8C214.3,184.8,214.3,184.8,214.3,184.8"/>
						<path class="st6" d="M173.2,185.3v-4c0-0.6,0.5-1.1,1.1-1.1l0,0h3.6c0.6,0,1,0.4,1.1,1h9.5v4.1h-9.5c0,0.6-0.5,1-1.1,1h-3.6
							C173.6,186.4,173.2,185.9,173.2,185.3L173.2,185.3"/>
						<path class="st9" d="M191.8,184.8v-5.3c0-0.5-0.4-0.9-0.8-0.9c0,0,0,0,0,0h-2.6c-0.5,0-0.9,0.4-0.9,0.8c0,0,0,0,0,0v5.3
							c0,0.5,0.4,0.9,0.8,0.9c0,0,0,0,0,0h2.6C191.5,185.7,191.9,185.3,191.8,184.8C191.9,184.9,191.9,184.8,191.8,184.8"/>
						<path class="st6" d="M233,195.2v-4c0-0.6-0.5-1.1-1.1-1.1c0,0,0,0,0,0h-3.6c-0.6,0-1,0.4-1.1,1h-9.5v4.1h9.5
							c0,0.6,0.5,1,1.1,1h3.6C232.5,196.3,233,195.8,233,195.2C233,195.2,233,195.2,233,195.2"/>
						<path class="st9" d="M214.3,194.7v-5.3c0-0.5,0.4-0.9,0.8-0.9h0h2.6c0.5,0,0.9,0.4,0.9,0.8v0v5.3c0,0.5-0.4,0.9-0.8,0.9h0
							h-2.6C214.7,195.6,214.3,195.2,214.3,194.7L214.3,194.7"/>
						<path class="st6" d="M173.2,195.2v-4c0-0.6,0.5-1.1,1.1-1.1c0,0,0,0,0,0h3.6c0.6,0,1,0.4,1.1,1h9.5v4.1h-9.5
							c0,0.6-0.5,1-1.1,1h-3.6C173.6,196.3,173.2,195.8,173.2,195.2C173.2,195.2,173.2,195.2,173.2,195.2"/>
						<path class="st9" d="M191.8,194.7v-5.3c0-0.5-0.4-0.9-0.8-0.9c0,0,0,0,0,0h-2.6c-0.5,0-0.9,0.4-0.9,0.8c0,0,0,0,0,0v5.3
							c0,0.5,0.4,0.9,0.8,0.9c0,0,0,0,0,0h2.6C191.5,195.6,191.9,195.2,191.8,194.7C191.9,194.7,191.9,194.7,191.8,194.7"/>
						<path class="st6" d="M233,205v-4c0-0.6-0.5-1.1-1.1-1.1l0,0h-3.6c-0.6,0-1,0.4-1.1,1h-9.5v4.1h9.5c0,0.6,0.5,1,1.1,1h3.6
							C232.5,206,233,205.6,233,205"/>
						<path class="st9" d="M214.3,204.5v-5.3c0-0.5,0.4-0.9,0.8-0.9h0h2.6c0.5,0,0.9,0.4,0.9,0.8v0v5.3c0,0.5-0.4,0.9-0.9,0.9h-2.6
							C214.7,205.3,214.3,205,214.3,204.5"/>
						<path class="st6" d="M173.2,205v-4c0-0.6,0.5-1.1,1.1-1.1l0,0h3.6c0.6,0,1,0.4,1.1,1h9.5v4.1h-9.5c0,0.6-0.5,1-1.1,1h-3.6
							C173.6,206,173.2,205.5,173.2,205L173.2,205"/>
						<path class="st9" d="M191.8,204.5v-5.3c0-0.5-0.4-0.9-0.8-0.9c0,0,0,0,0,0h-2.6c-0.5,0-0.9,0.4-0.9,0.8c0,0,0,0,0,0v5.3
							c0,0.5,0.4,0.9,0.9,0.9l0,0h2.6C191.5,205.3,191.9,205,191.8,204.5L191.8,204.5"/>
						<path class="st6" d="M233,214.9v-4c0-0.6-0.5-1.1-1.1-1.1l0,0h-3.6c-0.6,0-1,0.4-1.1,1h-9.5v4.1h9.5c0,0.6,0.5,1,1.1,1h3.6
							C232.5,215.9,233,215.5,233,214.9C233,214.9,233,214.9,233,214.9"/>
						<path class="st9" d="M214.3,214.4V209c0-0.5,0.4-0.9,0.8-0.9h0h2.6c0.5,0,0.9,0.4,0.9,0.8v0v5.3c0,0.5-0.4,0.9-0.8,0.9h0h-2.6
							C214.7,215.2,214.3,214.8,214.3,214.4L214.3,214.4"/>
						<path class="st6" d="M173.2,214.9v-4c0-0.6,0.5-1.1,1.1-1.1l0,0h3.6c0.6,0,1,0.4,1.1,1h9.5v4.1h-9.5c0,0.6-0.5,1-1.1,1h-3.6
							C173.6,215.9,173.2,215.5,173.2,214.9C173.2,214.9,173.2,214.9,173.2,214.9"/>
						<path class="st9" d="M191.8,214.4V209c0-0.5-0.4-0.9-0.8-0.9c0,0,0,0,0,0h-2.6c-0.5,0-0.9,0.4-0.9,0.8c0,0,0,0,0,0v5.3
							c0,0.5,0.4,0.9,0.8,0.9c0,0,0,0,0,0h2.6C191.5,215.2,191.9,214.8,191.8,214.4C191.9,214.3,191.9,214.3,191.8,214.4"/>
						<path class="st6" d="M233,224.9v-4c0-0.6-0.5-1.1-1.1-1.1l0,0h-3.6c-0.6,0-1,0.4-1.1,1h-9.5v4.1h9.5c0,0.6,0.5,1,1.1,1h3.6
							C232.5,225.9,233,225.4,233,224.9L233,224.9"/>
						<path class="st9" d="M214.3,224.4v-5.3c0-0.5,0.4-0.9,0.8-0.9h0h2.6c0.5,0,0.9,0.4,0.9,0.8v0v5.3c0,0.5-0.4,0.9-0.9,0.9h-2.6
							C214.7,225.2,214.3,224.9,214.3,224.4"/>
						<path class="st6" d="M173.2,224.9v-4c0-0.6,0.5-1.1,1.1-1.1l0,0h3.6c0.6,0,1,0.4,1.1,1h9.5v4.1h-9.5c0,0.6-0.5,1-1.1,1h-3.6
							C173.6,225.9,173.2,225.4,173.2,224.9L173.2,224.9"/>
						<path class="st9" d="M191.8,224.4v-5.3c0-0.5-0.4-0.9-0.8-0.9c0,0,0,0,0,0h-2.6c-0.5,0-0.9,0.4-0.9,0.8c0,0,0,0,0,0v5.3
							c0,0.5,0.4,0.9,0.9,0.9l0,0h2.6C191.5,225.2,191.9,224.9,191.8,224.4L191.8,224.4"/>
						<path class="st6" d="M233,234.9v-4c0-0.6-0.5-1.1-1.1-1.1l0,0h-3.6c-0.6,0-1,0.4-1.1,1h-9.5v4.1h9.5c0,0.6,0.5,1,1.1,1h3.6
							C232.5,235.9,233,235.4,233,234.9L233,234.9"/>
						<path class="st9" d="M214.3,234.4v-5.3c0-0.5,0.4-0.9,0.9-0.9h2.6c0.5,0,0.9,0.4,0.9,0.9v5.3c0,0.5-0.4,0.9-0.9,0.9h-2.6
							C214.7,235.2,214.3,234.9,214.3,234.4"/>
						<path class="st6" d="M173.2,234.9v-4c0-0.6,0.5-1.1,1.1-1.1l0,0h3.6c0.6,0,1,0.4,1.1,1h9.5v4.1h-9.5c0,0.6-0.5,1-1.1,1h-3.6
							C173.6,235.9,173.2,235.4,173.2,234.9L173.2,234.9"/>
						<path class="st9" d="M191.8,234.4v-5.3c0-0.5-0.4-0.9-0.9-0.9l0,0h-2.6c-0.5,0-0.9,0.4-0.9,0.9l0,0v5.3c0,0.5,0.4,0.9,0.9,0.9
							l0,0h2.6C191.5,235.2,191.9,234.9,191.8,234.4L191.8,234.4"/>
						<path class="st6" d="M233,244.8v-4c0-0.6-0.5-1.1-1.1-1.1l0,0h-3.6c-0.6,0-1,0.4-1.1,1h-9.5v4.1h9.5c0,0.6,0.5,1,1.1,1h3.6
							C232.5,245.8,233,245.3,233,244.8L233,244.8"/>
						<path class="st9" d="M214.3,244.3V239c0-0.5,0.4-0.9,0.8-0.9h0h2.6c0.5,0,0.9,0.4,0.9,0.8v0v5.3c0,0.5-0.4,0.9-0.8,0.9
							c0,0,0,0,0,0h-2.6C214.7,245.2,214.3,244.8,214.3,244.3C214.3,244.3,214.3,244.3,214.3,244.3"/>
						<path class="st6" d="M173.2,244.8v-4c0-0.6,0.5-1.1,1.1-1.1l0,0h3.6c0.6,0,1,0.4,1.1,1h9.5v4.1h-9.5c0,0.6-0.5,1-1.1,1h-3.6
							C173.6,245.8,173.2,245.3,173.2,244.8L173.2,244.8"/>
						<path class="st9" d="M191.8,244.3V239c0-0.5-0.4-0.9-0.8-0.9c0,0,0,0,0,0h-2.6c-0.5,0-0.9,0.4-0.9,0.8c0,0,0,0,0,0v5.3
							c0,0.5,0.4,0.9,0.8,0.9c0,0,0,0,0,0h2.6C191.5,245.2,191.9,244.8,191.8,244.3C191.9,244.3,191.9,244.3,191.8,244.3"/>
						<path class="st6" d="M233,255v-4c0-0.6-0.5-1.1-1.1-1.1l0,0h-3.6c-0.6,0-1,0.4-1.1,1h-9.5v4.1h9.5c0,0.6,0.5,1,1.1,1h3.6
							C232.5,256.1,233,255.6,233,255"/>
						<path class="st9" d="M214.3,254.5v-5.3c0-0.5,0.4-0.9,0.8-0.9h0h2.6c0.5,0,0.9,0.4,0.9,0.8v0v5.3c0,0.5-0.4,0.9-0.8,0.9h0
							h-2.6C214.7,255.4,214.3,255,214.3,254.5L214.3,254.5"/>
						<path class="st6" d="M173.2,255v-4c0-0.6,0.5-1.1,1.1-1.1l0,0h3.6c0.6,0,1,0.4,1.1,1h9.5v4.1h-9.5c0,0.6-0.5,1-1.1,1h-3.6
							C173.6,256,173.2,255.6,173.2,255L173.2,255"/>
						<path class="st9" d="M191.8,254.5v-5.3c0-0.5-0.4-0.9-0.8-0.9c0,0,0,0,0,0h-2.6c-0.5,0-0.9,0.4-0.9,0.8c0,0,0,0,0,0v5.3
							c0,0.5,0.4,0.9,0.8,0.9c0,0,0,0,0,0h2.6C191.5,255.4,191.9,255,191.8,254.5C191.9,254.5,191.9,254.5,191.8,254.5"/>
						<path class="st6" d="M233,265v-4c0-0.6-0.5-1.1-1.1-1.1c0,0,0,0,0,0h-3.6c-0.6,0-1,0.4-1.1,1h-9.5v4.1h9.5c0,0.6,0.5,1,1.1,1
							h3.6C232.5,266.1,233,265.6,233,265C233,265,233,265,233,265"/>
						<path class="st9" d="M214.3,264.5v-5.3c0-0.5,0.4-0.9,0.8-0.9h0h2.6c0.5,0,0.9,0.4,0.9,0.9l0,0v5.3c0,0.5-0.4,0.9-0.8,0.9h0
							h-2.6C214.7,265.4,214.3,265,214.3,264.5L214.3,264.5"/>
						<path class="st6" d="M173.2,265v-4c0-0.6,0.5-1.1,1.1-1.1c0,0,0,0,0,0h3.6c0.6,0,1,0.4,1.1,1h9.5v4.1h-9.5c0,0.6-0.5,1-1.1,1
							h-3.6C173.6,266.1,173.2,265.6,173.2,265C173.2,265,173.2,265,173.2,265"/>
						<path class="st9" d="M191.8,264.5v-5.3c0-0.5-0.4-0.9-0.8-0.9c0,0,0,0,0,0h-2.6c-0.5,0-0.9,0.4-0.9,0.8c0,0,0,0,0,0v5.3
							c0,0.5,0.4,0.9,0.8,0.9c0,0,0,0,0,0h2.6C191.5,265.4,191.9,265,191.8,264.5C191.9,264.5,191.9,264.5,191.8,264.5"/>
						<path class="st9" d="M216.4,128.4c1.2,0,2.2,1.6,2.2,3.7s-1,3.7-2.2,3.7s-2.1-1.6-2.1-3.7S215.3,128.4,216.4,128.4"/>
						<path class="st9" d="M190.1,128.4c1.2,0,2.1,1.6,2.1,3.7s-1,3.7-2.1,3.7s-2.1-1.6-2.1-3.7S188.9,128.4,190.1,128.4"/>
						<path class="st9" d="M216.4,277.9c1.2,0,2.2,1.6,2.2,3.7s-1,3.7-2.2,3.7s-2.1-1.6-2.1-3.7S215.3,277.9,216.4,277.9"/>
						<path class="st9" d="M190.1,277.9c1.2,0,2.1,1.6,2.1,3.7s-1,3.7-2.1,3.7s-2.1-1.6-2.1-3.7S188.9,277.9,190.1,277.9"/>
					</g>
				</g>
			</g>
		</g>
	</g>
	<path class="st10" d="M235.5,280h-1.4v-4.4h-1.7v-1c0.9,0,1.8-0.3,2-1.3h1.1L235.5,280z"/>
	<path class="st10" d="M172.8,275.9c-0.2-1.3,0.7-2.5,2-2.7c0.1,0,0.3,0,0.4,0c1.2-0.1,2.2,0.8,2.3,2c0,0,0,0.1,0,0.1
		c0,2-2.2,2.2-3.1,3.6h3.2v1.1h-4.9c0-1.6,1-2.2,2.1-3c0.6-0.4,1.4-0.8,1.4-1.6c0-0.6-0.4-1-1-1c-0.8,0-1.1,0.8-1.1,1.5L172.8,275.9
		z"/>
	<path class="st10" d="M229.4,141c-0.2-1.3,0.7-2.5,2-2.7c0.1,0,0.3,0,0.4,0c1.2-0.1,2.2,0.8,2.3,2c0,0,0,0.1,0,0.1
		c0,2-2.2,2.2-3.1,3.6h3.2v1.2h-4.9c0-1.6,1-2.2,2.1-3c0.6-0.4,1.4-0.8,1.4-1.6c0-0.6-0.4-1-1-1c-0.8,0-1.1,0.8-1.1,1.5L229.4,141z"
		/>
	<path class="st10" d="M236.6,141.1c0.6,0,1.4-0.1,1.4-0.8c0-0.5-0.4-0.9-0.9-0.9c0,0,0,0-0.1,0c-0.7,0-1,0.5-1,1.2h-1.3
		c-0.1-1.2,0.9-2.3,2.1-2.3c0.1,0,0.1,0,0.2,0c1.1-0.1,2.1,0.7,2.2,1.9c0,0,0,0,0,0c0,0.6-0.3,1.2-0.9,1.4l0,0
		c0.7,0.2,1.2,0.8,1.2,1.5c-0.1,1.4-1.2,2.4-2.6,2.4c-1.4-0.1-2.4-1.2-2.4-2.6h1.3c0,0.7,0.4,1.3,1.2,1.3c0.5,0.1,1-0.3,1.1-0.9
		c0-0.1,0-0.1,0-0.2c0-1-0.9-1-1.6-1L236.6,141.1z"/>
	<path class="st10" d="M170.1,141c-0.2-1.3,0.7-2.5,2-2.7c0.1,0,0.3,0,0.4,0c1.2-0.1,2.2,0.8,2.3,2c0,0,0,0.1,0,0.1
		c0,2-2.1,2.2-3.1,3.6h3.2v1.2H170c0-1.6,0.9-2.2,2.1-3c0.6-0.4,1.4-0.8,1.4-1.6c0-0.6-0.4-1-1-1c-0.8,0-1.1,0.8-1.1,1.5L170.1,141z
		"/>
	<path class="st10" d="M178.1,143.5h-2.8v-1.2l2.9-3.9h1.2v4h0.9v1.1h-0.9v1.6h-1.3L178.1,143.5z M178.1,140.1L178.1,140.1l-1.7,2.3
		h1.8L178.1,140.1z"/>
	<g>
		<g>
			<rect x="465.2" y="0" class="st11" width="37.4" height="414.8"/>
		</g>
		<g>
			<rect x="418.5" y="0" class="st11" width="37.4" height="414.8"/>
		</g>
		<g>
			<path class="st12" d="M400.3,0h14.5c2,0,3.6,1.6,3.6,3.6V22c0,2-1.6,3.6-3.6,3.6h-14.5c-2,0-3.6-1.6-3.6-3.6V3.6
				C396.7,1.6,398.3,0,400.3,0C400.3,0,400.3,0,400.3,0z"/>
		</g>
		<g>
			<path class="st12" d="M425.8,0h26.5c1.7,0,3.1,1.4,3.1,3.1v19.4c0,1.7-1.4,3.1-3.1,3.1h-26.5c-1.7,0-3.1-1.4-3.1-3.1V3.1
				C422.7,1.4,424.1,0,425.8,0z"/>
		</g>
		<g>
			<path class="st13" d="M425.8,35h26.5c1.7,0,3.1,1.4,3.1,3.1v19.4c0,1.7-1.4,3.1-3.1,3.1h-26.5c-1.7,0-3.1-1.4-3.1-3.1V38.1
				C422.7,36.4,424.1,35,425.8,35z"/>
		</g>
		<g>
			<path class="st13" d="M425.8,71h26.5c1.7,0,3.1,1.4,3.1,3.1v19.4c0,1.7-1.4,3.1-3.1,3.1h-26.5c-1.7,0-3.1-1.4-3.1-3.1V74.1
				C422.7,72.4,424.1,71,425.8,71z"/>
		</g>
		<g>
			<path class="st14" d="M425.8,107h26.5c1.7,0,3.1,1.4,3.1,3.1v19.4c0,1.7-1.4,3.1-3.1,3.1h-26.5c-1.7,0-3.1-1.4-3.1-3.1v-19.4
				C422.7,108.4,424.1,107,425.8,107z"/>
		</g>
		<g>
			<path class="st13" d="M425.8,141.5h26.5c1.7,0,3.1,1.4,3.1,3.1V164c0,1.7-1.4,3.1-3.1,3.1h-26.5c-1.7,0-3.1-1.4-3.1-3.1v-19.4
				C422.7,142.9,424.1,141.5,425.8,141.5z"/>
		</g>
		<g>
			<path class="st14" d="M425.8,176h26.5c1.7,0,3.1,1.4,3.1,3.1v19.4c0,1.7-1.4,3.1-3.1,3.1h-26.5c-1.7,0-3.1-1.4-3.1-3.1v-19.4
				C422.7,177.4,424.1,176,425.8,176z"/>
		</g>
		<g>
			<path class="st15" d="M425.8,211.6h26.5c1.7,0,3.1,1.4,3.1,3.1V234c0,1.7-1.4,3.1-3.1,3.1h-26.5c-1.7,0-3.1-1.4-3.1-3.1v-19.4
				C422.7,213,424.1,211.6,425.8,211.6z"/>
		</g>
		<g>
			<path class="st13" d="M425.8,246.6h26.5c1.7,0,3.1,1.4,3.1,3.1V269c0,1.7-1.4,3.1-3.1,3.1h-26.5c-1.7,0-3.1-1.4-3.1-3.1v-19.4
				C422.7,248,424.1,246.6,425.8,246.6z"/>
		</g>
		<g>
			<path class="st14" d="M425.8,281.9h26.5c1.7,0,3.1,1.4,3.1,3.1v19.4c0,1.7-1.4,3.1-3.1,3.1h-26.5c-1.7,0-3.1-1.4-3.1-3.1V285
				C422.7,283.3,424.1,281.9,425.8,281.9z"/>
		</g>
		<g>
			<path class="st13" d="M425.8,317.6h26.5c1.7,0,3.1,1.4,3.1,3.1v19.4c0,1.7-1.4,3.1-3.1,3.1h-26.5c-1.7,0-3.1-1.4-3.1-3.1v-19.4
				C422.7,319,424.1,317.6,425.8,317.6z"/>
		</g>
		<g>
			<path class="st13" d="M425.8,354.6h26.5c1.7,0,3.1,1.4,3.1,3.1V377c0,1.7-1.4,3.1-3.1,3.1h-26.5c-1.7,0-3.1-1.4-3.1-3.1v-19.4
				C422.7,356,424.1,354.6,425.8,354.6z"/>
		</g>
		<g>
			<path class="st13" d="M425.8,389.2h26.5c1.7,0,3.1,1.4,3.1,3.1v19.4c0,1.7-1.4,3.1-3.1,3.1h-26.5c-1.7,0-3.1-1.4-3.1-3.1v-19.4
				C422.7,390.6,424.1,389.2,425.8,389.2z"/>
		</g>
		<g>
			<path class="st13" d="M468.3,0h26.5c1.7,0,3.1,1.4,3.1,3.1v19.4c0,1.7-1.4,3.1-3.1,3.1h-26.5c-1.7,0-3.1-1.4-3.1-3.1V3.1
				C465.2,1.4,466.6,0,468.3,0z"/>
		</g>
		<g>
			<path class="st13" d="M468.3,35h26.5c1.7,0,3.1,1.4,3.1,3.1v19.4c0,1.7-1.4,3.1-3.1,3.1h-26.5c-1.7,0-3.1-1.4-3.1-3.1V38.1
				C465.2,36.4,466.6,35,468.3,35z"/>
		</g>
		<g>
			<path class="st13" d="M468.3,71h26.5c1.7,0,3.1,1.4,3.1,3.1v19.4c0,1.7-1.4,3.1-3.1,3.1h-26.5c-1.7,0-3.1-1.4-3.1-3.1V74.1
				C465.2,72.4,466.6,71,468.3,71z"/>
		</g>
		<g>
			<path class="st14" d="M468.3,107h26.5c1.7,0,3.1,1.4,3.1,3.1v19.4c0,1.7-1.4,3.1-3.1,3.1h-26.5c-1.7,0-3.1-1.4-3.1-3.1v-19.4
				C465.2,108.4,466.6,107,468.3,107z"/>
		</g>
		<g>
			<path class="st13" d="M468.3,141.5h26.5c1.7,0,3.1,1.4,3.1,3.1V164c0,1.7-1.4,3.1-3.1,3.1h-26.5c-1.7,0-3.1-1.4-3.1-3.1v-19.4
				C465.2,142.9,466.6,141.5,468.3,141.5z"/>
		</g>
		<g>
			<path class="st15" d="M468.3,176h26.5c1.7,0,3.1,1.4,3.1,3.1v19.4c0,1.7-1.4,3.1-3.1,3.1h-26.5c-1.7,0-3.1-1.4-3.1-3.1v-19.4
				C465.2,177.4,466.6,176,468.3,176z"/>
		</g>
		<g>
			<path class="st14" d="M468.3,211.6h26.5c1.7,0,3.1,1.4,3.1,3.1V234c0,1.7-1.4,3.1-3.1,3.1h-26.5c-1.7,0-3.1-1.4-3.1-3.1v-19.4
				C465.2,213,466.6,211.6,468.3,211.6z"/>
		</g>
		<g>
			<path class="st13" d="M468.3,246.6h26.5c1.7,0,3.1,1.4,3.1,3.1V269c0,1.7-1.4,3.1-3.1,3.1h-26.5c-1.7,0-3.1-1.4-3.1-3.1v-19.4
				C465.2,248,466.6,246.6,468.3,246.6z"/>
		</g>
		<g>
			<path class="st14" d="M468.3,281.9h26.5c1.7,0,3.1,1.4,3.1,3.1v19.4c0,1.7-1.4,3.1-3.1,3.1h-26.5c-1.7,0-3.1-1.4-3.1-3.1V285
				C465.2,283.3,466.6,281.9,468.3,281.9z"/>
		</g>
		<g>
			<path class="st13" d="M468.3,317.6h26.5c1.7,0,3.1,1.4,3.1,3.1v19.4c0,1.7-1.4,3.1-3.1,3.1h-26.5c-1.7,0-3.1-1.4-3.1-3.1v-19.4
				C465.2,319,466.6,317.6,468.3,317.6z"/>
		</g>
		<g>
			<path class="st13" d="M468.3,354.6h26.5c1.7,0,3.1,1.4,3.1,3.1V377c0,1.7-1.4,3.1-3.1,3.1h-26.5c-1.7,0-3.1-1.4-3.1-3.1v-19.4
				C465.2,356,466.6,354.6,468.3,354.6z"/>
		</g>
		<g>
			<path class="st12" d="M468.3,389.2h26.5c1.7,0,3.1,1.4,3.1,3.1v19.4c0,1.7-1.4,3.1-3.1,3.1h-26.5c-1.7,0-3.1-1.4-3.1-3.1v-19.4
				C465.2,390.6,466.6,389.2,468.3,389.2z"/>
		</g>
		<g>
			<path class="st16" d="M433.5,12.8c-0.1-3.1,1.7-5.5,5-5.5c2.5,0,4.7,1.6,4.7,4.3c0,4.1-4.4,4.5-6.4,7.3h6.5v2.4h-10
				c0-3.2,2-4.5,4.3-6.1c1.2-0.8,2.9-1.7,2.9-3.3c0.1-1.1-0.7-2-1.8-2.1h-0.2c-1.6,0-2.2,1.7-2.2,3.2L433.5,12.8z"/>
		</g>
		<g>
			<path class="st16" d="M484.5,21.2h-3.1v-9.9h-3.9V8.9c2.2,0.1,4.1-0.7,4.5-3.1h2.5V21.2z"/>
		</g>
		<g>
			<path class="st16" d="M481,47.1c1.3,0.1,3.3-0.2,3.3-1.9c0-1.1-0.9-2-2-2h-0.1c-1.6,0-2.4,1.2-2.4,2.7h-3
				c0.1-3.2,2.1-5.3,5.3-5.3c2.5,0,5.1,1.5,5.1,4.2c0.1,1.4-0.8,2.7-2.2,3.1l0,0c1.6,0.3,2.8,1.8,2.7,3.5c0,3.2-2.7,5-5.7,5
				c-3.5,0-5.8-2.1-5.7-5.6h3c0.1,1.7,0.9,3,2.7,3c1.3,0.1,2.4-0.9,2.5-2.2v-0.2c0-2.3-2-2.3-3.5-2.3L481,47.1z"/>
		</g>
		<g>
			<path class="st16" d="M486.9,79.4h-6.3l-0.6,3.5l0,0c0.8-0.8,1.9-1.2,3-1.2c3,0,4.7,2.3,4.7,5.2c0,3.1-2.5,5.5-5.6,5.5
				c0,0,0,0,0,0H482c-3,0-5.6-1.6-5.7-4.9h3.1c0,1.3,1.1,2.4,2.5,2.4c0,0,0,0,0.1,0c1.5-0.1,2.7-1.4,2.7-2.9c0,0,0-0.1,0-0.1
				c0.1-1.5-1-2.8-2.5-2.9c-0.1,0-0.1,0-0.2,0c-0.9-0.1-1.8,0.4-2.3,1.2h-2.8l1.5-8.4h8.6L486.9,79.4z"/>
		</g>
		<g>
			<path class="st16" d="M479.6,157.7c0.1,1,1,1.8,2.1,1.9c2.3,0,2.8-3,2.9-4.7l0,0c-0.8,1.1-2.1,1.8-3.5,1.7
				c-1.3,0-2.6-0.6-3.5-1.6c-0.8-1-1.2-2.2-1.2-3.4c-0.2-2.9,2.1-5.4,5-5.6c0.1,0,0.2,0,0.4,0c4.6,0,5.9,4.1,5.9,7.9s-1.7,8-6,8
				c-2.5,0.2-4.8-1.7-5-4.2L479.6,157.7z M484.4,151.4c0.1-1.4-1-2.7-2.4-2.8c0,0,0,0-0.1,0c-1.6,0-2.3,1.4-2.3,2.8s0.7,2.9,2.3,2.9
				c1.4,0,2.5-1.2,2.5-2.7C484.4,151.6,484.4,151.5,484.4,151.4z"/>
		</g>
		<g>
			<path class="st16" d="M478.5,196.6h-3.1v-9.9h-3.9v-2.4c2.2,0.1,4.1-0.7,4.5-3h2.5L478.5,196.6z"/>
		</g>
		<g>
			<path class="st16" d="M490.6,196.6h-3.1v-9.9h-3.9v-2.4c2.2,0.1,4.1-0.7,4.5-3h2.5L490.6,196.6z"/>
		</g>
		<g>
			<path class="st16" d="M478.5,303.1h-3.1v-9.9h-3.9v-2.3c2.2,0.1,4.1-0.7,4.5-3h2.5L478.5,303.1z"/>
		</g>
		<g>
			<path class="st16" d="M493.4,290.5c-3.2,2.8-5,8.6-5,12.7H485c0.4-4.6,2.2-8.9,5.1-12.5h-7.3v-2.9h10.5L493.4,290.5z"/>
		</g>
		<g>
			<path class="st16" d="M478.5,338.9h-3.1v-10h-3.9v-2.3c2.2,0.1,4.1-0.7,4.5-3h2.5L478.5,338.9z"/>
		</g>
		<g>
			<path class="st16" d="M485.7,334.9c0.1,1,1,1.9,2.1,1.9c2.3,0,2.8-3,2.9-4.7l0,0c-0.8,1.1-2.1,1.8-3.5,1.7
				c-1.3,0-2.6-0.6-3.5-1.6c-0.8-1-1.2-2.2-1.2-3.4c-0.2-2.9,2.1-5.4,5-5.6c0.1,0,0.2,0,0.3,0c4.6,0,5.9,4.1,5.9,7.9s-1.7,8-6,8
				c-2.5,0.2-4.8-1.7-5-4.2L485.7,334.9z M490.4,328.6c0.1-1.4-0.9-2.7-2.4-2.8c0,0,0,0-0.1,0c-1.6,0-2.4,1.4-2.4,2.8
				s0.7,2.9,2.4,2.9c1.4,0,2.5-1.2,2.5-2.6C490.5,328.8,490.5,328.7,490.4,328.6L490.4,328.6z"/>
		</g>
		<g>
			<path class="st16" d="M470.7,366c-0.1-3.5,1.9-6.2,5.6-6.2c2.8,0,5.3,1.8,5.3,4.8c0,4.6-4.9,5-7.2,8.2h7.2v2.7h-11.3
				c0-3.6,2.2-5,4.8-6.9c1.3-0.9,3.2-1.9,3.2-3.7c0.1-1.2-0.8-2.3-2-2.4h-0.3c-1.8,0-2.4,1.9-2.4,3.5L470.7,366z"/>
		</g>
		<g>
			<path class="st16" d="M490.6,375.4h-3.1v-10h-3.9v-2.4c2.2,0.1,4.1-0.7,4.5-3h2.5L490.6,375.4z"/>
		</g>
		<g>
			<path class="st16" d="M470.7,401.1c-0.1-3.5,1.9-6.2,5.6-6.2c2.8,0,5.3,1.8,5.3,4.8c0,4.6-4.9,5-7.2,8.2h7.2v2.7h-11.3
				c0-3.6,2.2-5,4.8-6.9c1.3-0.9,3.2-1.9,3.2-3.7c0.1-1.2-0.8-2.3-2-2.4h-0.3c-1.8,0-2.4,1.9-2.4,3.5L470.7,401.1z"/>
		</g>
		<g>
			<path class="st16" d="M487.1,401.4c1.3,0.1,3.3-0.1,3.3-1.9c0-1.1-0.9-2-2-2h-0.2c-1.6,0-2.4,1.2-2.4,2.7h-3
				c0.1-3.2,2.1-5.3,5.3-5.3c2.5,0,5.1,1.5,5.1,4.3c0.1,1.4-0.8,2.7-2.1,3.1v0c1.6,0.3,2.8,1.8,2.7,3.5c0,3.2-2.7,5-5.7,5
				c-3.4,0-5.8-2.1-5.7-5.6h3c0.1,1.7,0.9,3,2.7,3c1.3,0.1,2.4-0.9,2.5-2.2c0-0.1,0-0.1,0-0.2c0-2.3-2-2.3-3.5-2.3L487.1,401.4z"/>
		</g>
		<g>
			<path class="st16" d="M438.9,53h-5.8v-2.5l5.9-8h2.5v8.2h1.8V53h-1.8v3.2h-2.6V53z M438.9,46L438.9,46l-3.6,4.7h3.6L438.9,46z"/>
		</g>
		<g>
			<path class="st12" d="M506.4,389.2h14.5c2,0,3.6,1.6,3.6,3.6v18.3c0,2-1.6,3.6-3.6,3.6h-14.5c-2,0-3.6-1.6-3.6-3.6v-18.3
				C502.7,390.9,504.4,389.2,506.4,389.2z"/>
		</g>
		<g>
			<path class="st16" d="M435,196.6h-2.8v-8.9h-3.4v-2.1c1.9,0.1,3.7-0.6,4-2.7h2.2V196.6z"/>
		</g>
		<g>
			<path class="st16" d="M439,188.2c-0.1-3.1,1.7-5.5,5-5.5c2.5,0,4.7,1.6,4.7,4.3c0,4.1-4.4,4.5-6.4,7.3h6.5v2.4h-10
				c0-3.2,2-4.5,4.3-6.1c1.2-0.8,2.9-1.6,2.9-3.3c0.1-1.1-0.8-2-1.9-2.1c0,0,0,0,0,0h-0.2c-1.6,0-2.2,1.7-2.2,3.1L439,188.2z"/>
		</g>
		<g>
			<path class="st16" d="M435,267.8h-2.8v-8.9h-3.4v-2.1c1.9,0.1,3.7-0.6,4-2.7h2.2V267.8z"/>
		</g>
		<g>
			<path class="st16" d="M445.8,257.6c-0.1-0.9-0.9-1.6-1.8-1.7c-2,0-2.6,2.6-2.6,4.1l0,0c0.7-1,1.9-1.6,3.1-1.5
				c1.2,0,2.3,0.5,3.1,1.4c0.7,0.9,1.1,1.9,1.1,3c0.1,2.6-1.9,4.9-4.5,5c-0.1,0-0.2,0-0.3,0c-4.1,0-5.2-3.6-5.2-7.1s1.5-7.1,5.4-7.1
				c2.3-0.2,4.2,1.5,4.4,3.8L445.8,257.6z M441.6,263.2c-0.1,1.3,0.9,2.4,2.1,2.5c0,0,0,0,0.1,0c1.2-0.1,2.2-1.1,2.1-2.4
				c0,0,0-0.1,0-0.1c0-1.2-0.7-2.6-2.1-2.6c-1.3,0-2.2,1.1-2.2,2.3C441.6,263.1,441.6,263.2,441.6,263.2L441.6,263.2z"/>
		</g>
		<g>
			<path class="st16" d="M435,303.1h-2.8v-8.9h-3.4v-2.1c1.9,0.1,3.7-0.6,4-2.7h2.2V303.1z"/>
		</g>
		<g>
			<path class="st16" d="M443.7,289.2c3.4,0,4.6,2.3,4.6,3.7c0.1,1.3-0.8,2.5-2,2.9l0,0c1.6,0.3,2.7,1.7,2.6,3.3
				c0,2.9-2.6,4.3-5.1,4.3s-5.2-1.3-5.2-4.3c-0.1-1.6,1-3,2.6-3.4l0,0c-1.2-0.3-2.1-1.5-2-2.8C439.1,290.5,441.5,289.2,443.7,289.2z
				 M443.7,301.3c1.2,0.1,2.3-0.9,2.3-2.1c0-0.1,0-0.1,0-0.2c0-1.2-1-2.2-2.2-2.2c0,0,0,0,0,0h-0.1c-1.2-0.1-2.3,0.7-2.4,1.9
				c0,0.1,0,0.2,0,0.3c0,1.3,1,2.3,2.3,2.3c0,0,0,0,0,0L443.7,301.3L443.7,301.3z M443.7,295c1,0.1,2-0.6,2.1-1.6
				c0.1-1-0.6-2-1.6-2.1c-0.2,0-0.3,0-0.5,0c-1-0.1-2,0.7-2.1,1.7c0,0.1,0,0.1,0,0.2c0,1,0.9,1.8,1.9,1.8
				C443.6,295,443.7,295,443.7,295L443.7,295z"/>
		</g>
		<g>
			<path class="st16" d="M428.1,367c-0.1-3.1,1.7-5.5,5-5.5c2.5,0,4.7,1.6,4.7,4.3c0,4.1-4.4,4.5-6.4,7.3h6.5v2.4h-10
				c0-3.2,2-4.5,4.3-6.1c1.2-0.8,2.9-1.7,2.9-3.3c0.1-1.1-0.7-2-1.8-2.1H433c-1.6,0-2.2,1.7-2.2,3.1L428.1,367z"/>
		</g>
		<g>
			<path class="st16" d="M439,367c-0.1-3.1,1.7-5.5,5-5.5c2.5,0,4.7,1.6,4.7,4.3c0,4.1-4.4,4.5-6.4,7.3h6.5v2.4h-10
				c0-3.2,2-4.5,4.3-6.1c1.2-0.8,2.9-1.7,2.9-3.3c0.1-1.1-0.7-2-1.8-2.1h-0.2c-1.6,0-2.2,1.7-2.2,3.1L439,367z"/>
		</g>
		<g>
			<path class="st16" d="M440.4,82.1c-0.1-0.9-0.9-1.6-1.8-1.7c-2,0-2.6,2.7-2.6,4.2l0,0c0.7-1,1.9-1.6,3.1-1.5
				c1.2,0,2.3,0.5,3.1,1.4c0.7,0.8,1.1,1.9,1.1,3c0.1,2.6-1.9,4.8-4.5,5c-0.1,0-0.2,0-0.3,0c-4.1,0-5.2-3.6-5.2-7.1s1.5-7.2,5.4-7.2
				c2.3-0.1,4.2,1.6,4.4,3.9H440.4z M436.2,87.7c-0.1,1.3,0.8,2.4,2.1,2.5c0,0,0,0,0.1,0c1.2-0.1,2.2-1.1,2.1-2.4c0,0,0-0.1,0-0.1
				c0-1.2-0.7-2.6-2.1-2.6c-1.3,0-2.2,1.1-2.2,2.3C436.2,87.5,436.2,87.6,436.2,87.7z"/>
		</g>
		<g>
			<polygon class="st12" points="399.9,0 370.2,0 355.3,12.8 370.2,25.6 399.9,25.6 414.7,12.8 			"/>
		</g>
		<g>
			<path class="st16" d="M378.3,17.5c-0.9,1.2-2.3,1.9-3.8,1.9c-4.3,0-6.9-3.2-6.9-7.2s2.6-7.4,6.9-7.4c2.9,0,5.6,1.7,5.9,4.9h-2.9
				c-0.2-1.4-1.5-2.4-3-2.3c-2.8,0-3.8,2.3-3.8,4.8s1,4.7,3.8,4.7c1.6,0.2,3.1-1,3.3-2.7c0-0.1,0-0.2,0-0.3h-3v-2.3h5.9V19h-2
				L378.3,17.5z"/>
		</g>
		<g>
			<path class="st16" d="M383,5.1h3l5.8,9.4l0,0V5.1h2.9V19h-3.1l-5.8-9.3l0,0V19H383V5.1z"/>
		</g>
		<g>
			<path class="st16" d="M397.5,5.1h6c3.6,0,6.3,2.3,6.3,6.9c0,4-2.1,7-6.3,7h-6V5.1z M400.6,16.5h2.7c1.8,0,3.5-1.1,3.5-4.2
				c0-2.8-1-4.6-4-4.6h-2.2L400.6,16.5z"/>
		</g>
		<g>
			<polygon class="st12" points="521.5,389.2 551.2,389.2 566.1,402 551.2,414.8 521.5,414.8 506.7,402 			"/>
		</g>
		<g>
			<path class="st16" d="M521.8,406.7c-0.9,1.2-2.3,1.9-3.8,1.9c-4.3,0-6.9-3.2-6.9-7.2s2.6-7.4,6.9-7.4c2.8,0,5.6,1.7,5.9,4.9H521
				c-0.3-1.4-1.5-2.4-3-2.3c-2.8,0-3.8,2.3-3.8,4.8s1,4.7,3.8,4.7c1.6,0.2,3.1-1,3.3-2.7c0-0.1,0-0.2,0-0.3h-3.1v-2.3h5.9v7.5h-2
				L521.8,406.7z"/>
		</g>
		<g>
			<path class="st16" d="M526.5,394.3h3l5.8,9.4h0v-9.4h2.9v14h-3.1l-5.8-9.3h0v9.3h-2.9L526.5,394.3z"/>
		</g>
		<g>
			<path class="st16" d="M541,394.3h6c3.6,0,6.3,2.3,6.3,6.9c0,4-2.1,7-6.3,7h-6V394.3z M544.1,405.7h2.7c1.8,0,3.5-1.1,3.5-4.2
				c0-2.8-1-4.6-4-4.6h-2.2L544.1,405.7z"/>
		</g>
		<g>
			<path class="st16" d="M438.3,113.4c3.4,0,4.6,2.3,4.6,3.7c0.1,1.3-0.8,2.5-2,2.9v0.1c1.6,0.3,2.7,1.7,2.6,3.3
				c0,2.9-2.6,4.3-5.1,4.3s-5.2-1.3-5.2-4.3c-0.1-1.6,1-3,2.6-3.3l0,0c-1.2-0.3-2.1-1.5-2-2.8C433.7,114.7,436,113.4,438.3,113.4z
				 M438.3,125.5c1.2,0.1,2.3-0.9,2.3-2.2c0-0.1,0-0.1,0-0.2c0-1.2-1-2.2-2.2-2.2h-0.1c-1.2-0.1-2.3,0.7-2.4,1.9c0,0.1,0,0.2,0,0.3
				c0,1.3,1,2.3,2.3,2.3c0,0,0,0,0,0L438.3,125.5L438.3,125.5z M438.3,119.2c1,0.1,2-0.6,2.1-1.6c0.1-1-0.6-2-1.6-2.1
				c-0.2,0-0.3,0-0.5,0c-1-0.1-2,0.7-2.1,1.7c0,0.1,0,0.1,0,0.2c0,1,0.9,1.8,1.9,1.8C438.2,119.2,438.2,119.2,438.3,119.2
				L438.3,119.2z"/>
		</g>
		<g>
			<path class="st13" d="M506.4,0h14.5c2,0,3.6,1.6,3.6,3.6V22c0,2-1.6,3.6-3.6,3.6h-14.5c-2,0-3.6-1.6-3.6-3.6V3.6
				C502.8,1.6,504.4,0,506.4,0C506.4,0,506.4,0,506.4,0z"/>
		</g>
		<g>
			<path class="st16" d="M435,161.7h-2.8v-8.9h-3.4v-2.1c1.9,0.1,3.7-0.6,4-2.7h2.2V161.7z"/>
		</g>
		<g>
			<path class="st16" d="M443.7,147.7c2.7,0,5,1.7,5,7.1s-2.3,7.2-5,7.2s-5-1.7-5-7.2S441,147.7,443.7,147.7z M443.7,159.7
				c2.3,0,2.3-3.3,2.3-4.9s0-4.8-2.3-4.8s-2.2,3.3-2.2,4.8S441.4,159.7,443.7,159.7z"/>
		</g>
		<g>
			<path class="st16" d="M435,232.7h-2.8v-8.9h-3.4v-2.1c1.9,0.1,3.7-0.6,4-2.7h2.2V232.7z"/>
		</g>
		<g>
			<path class="st16" d="M444.3,229.5h-5.8V227l5.9-8h2.5v8.2h1.8v2.3H447v3.2h-2.6L444.3,229.5z M444.3,222.5L444.3,222.5l-3.6,4.7
				h3.6L444.3,222.5z"/>
		</g>
		<g>
			<path class="st16" d="M428.1,330.4c-0.1-3.1,1.7-5.5,5-5.5c2.5,0,4.7,1.6,4.7,4.3c0,4.1-4.4,4.5-6.4,7.3h6.5v2.4h-10
				c0-3.2,2-4.5,4.3-6.1c1.2-0.8,2.9-1.7,2.9-3.3c0.1-1.1-0.7-2-1.8-2.1H433c-1.6,0-2.2,1.7-2.2,3.1L428.1,330.4z"/>
		</g>
		<g>
			<path class="st16" d="M443.7,324.9c2.7,0,5,1.7,5,7s-2.3,7.2-5,7.2s-5-1.7-5-7.2S441,324.9,443.7,324.9z M443.7,336.8
				c2.3,0,2.3-3.3,2.3-4.9s0-4.8-2.3-4.8s-2.2,3.3-2.2,4.8S441.4,336.8,443.7,336.8L443.7,336.8z"/>
		</g>
		<g>
			<path class="st16" d="M428.1,402c-0.1-3.1,1.7-5.5,5-5.5c2.5,0,4.7,1.6,4.7,4.3c0,4.1-4.4,4.5-6.4,7.3h6.5v2.4h-10
				c0-3.2,2-4.5,4.3-6.1c1.2-0.8,2.9-1.6,2.9-3.3c0.1-1.1-0.7-2-1.8-2.1H433c-1.6,0-2.2,1.7-2.2,3.1L428.1,402z"/>
		</g>
		<g>
			<path class="st16" d="M444.3,407.3h-5.8v-2.5l5.9-8h2.5v8.3h1.8v2.3H447v3.2h-2.6L444.3,407.3z M444.3,400.3L444.3,400.3
				l-3.6,4.7h3.6L444.3,400.3z"/>
		</g>
		<g>
			<path class="st16" d="M487.3,114.7c-3.2,2.8-5,8.6-5,12.7H479c0.4-4.6,2.2-8.9,5.1-12.4h-7.3V112h10.4V114.7z"/>
		</g>
		<g>
			<polygon class="st13" points="541.1,0 515.4,0 502.6,12.8 515.4,25.6 541.1,25.6 554,12.8 			"/>
		</g>
		<g>
			<path class="st16" d="M511,5.1h3l5.8,9.4l0,0V5.1h2.9V19h-3.1l-5.8-9.3l0,0V19H511V5.1z"/>
		</g>
		<g>
			<path class="st16" d="M534.7,9.8c-0.3-1.4-1.6-2.5-3-2.4c-2.8,0-3.8,2.3-3.8,4.8s1,4.7,3.8,4.7c1.9,0,2.9-1.3,3.2-3.1h3
				c-0.1,3.2-2.8,5.8-6,5.7c0,0-0.1,0-0.1,0c-4.3,0-6.9-3.2-6.9-7.2s2.6-7.4,6.9-7.4c3,0,5.6,1.8,6,5L534.7,9.8z"/>
		</g>
		<g>
			<path class="st13" d="M506.4,35h14.5c2,0,3.6,1.6,3.6,3.6v18.3c0,2-1.6,3.6-3.6,3.6h-14.5c-2,0-3.6-1.6-3.6-3.6V38.6
				C502.8,36.6,504.4,35,506.4,35z"/>
		</g>
		<g>
			<polygon class="st13" points="541.1,35 515.4,35 502.6,47.8 515.4,60.5 541.1,60.5 554,47.8 			"/>
		</g>
		<g>
			<path class="st16" d="M511,40h3l5.8,9.4l0,0V40h2.9v14h-3.1l-5.8-9.3l0,0V54H511V40z"/>
		</g>
		<g>
			<path class="st16" d="M534.7,44.7c-0.3-1.4-1.6-2.5-3-2.4c-2.8,0-3.8,2.3-3.8,4.8s1,4.7,3.8,4.7c1.9,0,2.9-1.3,3.2-3.1h3
				c-0.1,3.2-2.8,5.8-6,5.7c0,0-0.1,0-0.1,0c-4.3,0-6.9-3.2-6.9-7.2s2.6-7.4,6.9-7.4c3,0,5.6,1.8,6,5L534.7,44.7z"/>
		</g>
		<g>
			<path class="st13" d="M506.4,71h14.5c2,0,3.6,1.6,3.6,3.6V93c0,2-1.6,3.6-3.6,3.6h-14.5c-2,0-3.6-1.6-3.6-3.6V74.6
				C502.8,72.6,504.4,71,506.4,71z"/>
		</g>
		<g>
			<polygon class="st13" points="541.1,71 515.4,71 502.6,83.8 515.4,96.6 541.1,96.6 554,83.8 			"/>
		</g>
		<g>
			<path class="st16" d="M511,76.1h3l5.8,9.3l0,0v-9.3h2.9V90h-3.1l-5.8-9.3l0,0V90H511V76.1z"/>
		</g>
		<g>
			<path class="st16" d="M534.7,80.8c-0.3-1.4-1.6-2.5-3-2.4c-2.8,0-3.8,2.3-3.8,4.8s1,4.7,3.8,4.7c1.9,0,2.9-1.3,3.2-3.1h3
				c-0.1,3.2-2.8,5.8-6,5.7c0,0-0.1,0-0.1,0c-4.3,0-6.9-3.2-6.9-7.2s2.6-7.4,6.9-7.4c3,0,5.6,1.8,6,5L534.7,80.8z"/>
		</g>
		<g>
			<path class="st13" d="M400.3,71h14.5c2,0,3.6,1.6,3.6,3.6v18.3c0,2-1.6,3.6-3.6,3.6h-14.5c-2,0-3.6-1.6-3.6-3.6V74.6
				C396.7,72.6,398.3,71,400.3,71z"/>
		</g>
		<g>
			<polygon class="st13" points="379.9,71 405.6,71 418.4,83.8 405.6,96.6 379.9,96.6 367,83.8 			"/>
		</g>
		<g>
			<path class="st16" d="M383.8,76.1h3l5.8,9.3l0,0v-9.3h2.9V90h-3.1l-5.8-9.3l0,0V90h-2.9L383.8,76.1z"/>
		</g>
		<g>
			<path class="st16" d="M407.6,80.8c-0.3-1.5-1.6-2.5-3-2.4c-2.8,0-3.8,2.3-3.8,4.8s1,4.7,3.8,4.7c1.9,0,2.9-1.3,3.2-3.1h3
				c-0.1,3.2-2.8,5.8-6,5.7c0,0-0.1,0-0.1,0c-4.3,0-6.9-3.2-6.9-7.2s2.6-7.4,6.9-7.4c3,0,5.6,1.8,6,5L407.6,80.8z"/>
		</g>
		<g>
			<path class="st13" d="M506.4,141.3h14.5c2,0,3.6,1.6,3.6,3.6v18.3c0,2-1.6,3.6-3.6,3.6h-14.5c-2,0-3.6-1.6-3.6-3.6v-18.3
				C502.8,142.9,504.4,141.3,506.4,141.3z"/>
		</g>
		<g>
			<polygon class="st13" points="541.1,141.3 515.4,141.3 502.6,154.1 515.4,166.8 541.1,166.8 554,154.1 			"/>
		</g>
		<g>
			<path class="st16" d="M511,146.4h3l5.8,9.4l0,0v-9.4h2.9v13.9h-3.1l-5.8-9.3l0,0v9.3H511V146.4z"/>
		</g>
		<g>
			<path class="st16" d="M534.7,151c-0.3-1.4-1.6-2.5-3-2.4c-2.8,0-3.8,2.3-3.8,4.8c0,2.3,1,4.7,3.8,4.7c1.9,0,2.9-1.3,3.2-3.1h3
				c-0.1,3.2-2.8,5.8-6,5.7c0,0-0.1,0-0.1,0c-4.3,0-6.9-3.2-6.9-7.2s2.6-7.4,6.9-7.4c3,0,5.6,1.8,6,5H534.7z"/>
		</g>
		<g>
			<path class="st13" d="M400.3,141.3h14.5c2,0,3.6,1.6,3.6,3.6v18.3c0,2-1.6,3.6-3.6,3.6h-14.5c-2,0-3.6-1.6-3.6-3.6v-18.3
				C396.7,142.9,398.3,141.3,400.3,141.3z"/>
		</g>
		<g>
			<polygon class="st13" points="379.9,141.3 405.6,141.3 418.4,154.1 405.6,166.8 379.9,166.8 367,154.1 			"/>
		</g>
		<g>
			<path class="st16" d="M383.8,146.4h3l5.8,9.4l0,0v-9.4h2.9v13.9h-3.1l-5.8-9.3l0,0v9.3h-2.9L383.8,146.4z"/>
		</g>
		<g>
			<path class="st16" d="M407.6,151.1c-0.3-1.5-1.6-2.5-3-2.4c-2.8,0-3.8,2.4-3.8,4.8s1,4.7,3.8,4.7c1.9,0,2.9-1.3,3.2-3.1h3
				c-0.1,3.2-2.8,5.8-6,5.7c0,0-0.1,0-0.1,0c-4.3,0-6.9-3.2-6.9-7.2s2.6-7.4,6.9-7.4c3,0,5.6,1.8,6,5L407.6,151.1z"/>
		</g>
		<g>
			<path class="st13" d="M506.4,246.6h14.5c2,0,3.6,1.6,3.6,3.6v18.3c0,2-1.6,3.6-3.6,3.6h-14.5c-2,0-3.6-1.6-3.6-3.6v-18.3
				C502.8,248.2,504.4,246.6,506.4,246.6z"/>
		</g>
		<g>
			<polygon class="st13" points="541.1,246.6 515.4,246.6 502.6,259.4 515.4,272.1 541.1,272.1 554,259.4 			"/>
		</g>
		<g>
			<path class="st16" d="M511,251.6h3l5.8,9.4l0,0v-9.4h2.9v13.9h-3.1l-5.8-9.3l0,0v9.3H511V251.6z"/>
		</g>
		<g>
			<path class="st16" d="M534.7,256.3c-0.3-1.5-1.6-2.5-3-2.4c-2.8,0-3.8,2.3-3.8,4.8s1,4.7,3.8,4.7c1.9,0,2.9-1.3,3.2-3.1h3
				c-0.1,3.2-2.8,5.8-6,5.7c0,0-0.1,0-0.1,0c-4.3,0-6.9-3.2-6.9-7.2s2.6-7.4,6.9-7.4c3,0,5.6,1.8,6,5L534.7,256.3z"/>
		</g>
		<g>
			<path class="st13" d="M400.3,246.6h14.5c2,0,3.6,1.6,3.6,3.6v18.3c0,2-1.6,3.6-3.6,3.6h-14.5c-2,0-3.6-1.6-3.6-3.6v-18.3
				C396.7,248.2,398.3,246.6,400.3,246.6z"/>
		</g>
		<g>
			<polygon class="st13" points="379.9,246.6 405.6,246.6 418.4,259.4 405.6,272.1 379.9,272.1 367,259.4 			"/>
		</g>
		<g>
			<path class="st16" d="M383.8,251.6h3l5.8,9.4l0,0v-9.4h2.9v14h-3.1l-5.8-9.3l0,0v9.3h-2.9L383.8,251.6z"/>
		</g>
		<g>
			<path class="st16" d="M407.6,256.3c-0.3-1.5-1.6-2.5-3-2.4c-2.8,0-3.8,2.4-3.8,4.8s1,4.7,3.8,4.7c1.9,0,2.9-1.3,3.2-3.1h3
				c-0.1,3.2-2.8,5.8-6,5.7c0,0-0.1,0-0.1,0c-4.3,0-6.9-3.2-6.9-7.2s2.6-7.4,6.9-7.4c3,0,5.6,1.8,6,5L407.6,256.3z"/>
		</g>
		<g>
			<path class="st13" d="M400.3,35.5h14.5c2,0,3.6,1.6,3.6,3.6v18.3c0,2-1.6,3.6-3.6,3.6h-14.5c-2,0-3.6-1.6-3.6-3.6V39.1
				C396.7,37.1,398.3,35.5,400.3,35.5C400.3,35.5,400.3,35.5,400.3,35.5z"/>
		</g>
		<g>
			<polygon class="st13" points="379.9,35.5 405.6,35.5 418.4,48.3 405.6,61.1 379.9,61.1 367,48.3 			"/>
		</g>
		<g>
			<path class="st16" d="M383.8,40.6h3l5.8,9.4l0,0v-9.4h2.9v14h-3.1l-5.8-9.3l0,0v9.3h-2.9L383.8,40.6z"/>
		</g>
		<g>
			<path class="st16" d="M407.6,45.3c-0.3-1.5-1.6-2.5-3.1-2.4c-2.8,0-3.8,2.3-3.8,4.8s1,4.7,3.8,4.7c1.9,0,2.9-1.3,3.2-3.1h3
				c-0.1,3.2-2.8,5.8-6,5.7c0,0-0.1,0-0.1,0c-4.3,0-6.9-3.2-6.9-7.2s2.6-7.4,6.9-7.4c3,0,5.6,1.8,6,5H407.6z"/>
		</g>
		<g>
			<path class="st13" d="M400.3,317.6h14.5c2,0,3.6,1.6,3.6,3.6v18.3c0,2-1.6,3.6-3.6,3.6h-14.5c-2,0-3.6-1.6-3.6-3.6v-18.3
				C396.7,319.3,398.3,317.6,400.3,317.6z"/>
		</g>
		<g>
			<polygon class="st13" points="379.9,317.6 405.6,317.6 418.5,330.4 405.6,343.2 379.9,343.2 367,330.4 			"/>
		</g>
		<g>
			<path class="st16" d="M383.8,322.7h3l5.8,9.4l0,0v-9.4h2.9v13.9h-3.1l-5.8-9.3l0,0v9.3h-2.9L383.8,322.7z"/>
		</g>
		<g>
			<path class="st16" d="M407.6,327.4c-0.3-1.4-1.5-2.5-3-2.4c-2.8,0-3.8,2.3-3.8,4.8s1,4.7,3.8,4.7c1.9,0,2.9-1.3,3.2-3.1h3
				c-0.1,3.2-2.8,5.8-6,5.7c0,0-0.1,0-0.1,0c-4.3,0-6.9-3.2-6.9-7.2s2.5-7.4,6.9-7.4c3,0,5.6,1.8,6,5L407.6,327.4z"/>
		</g>
		<g>
			<path class="st13" d="M400.3,354h14.5c2,0,3.6,1.6,3.6,3.6V376c0,2-1.6,3.6-3.6,3.6h-14.5c-2,0-3.6-1.6-3.6-3.6v-18.3
				C396.7,355.6,398.3,354,400.3,354z"/>
		</g>
		<g>
			<polygon class="st13" points="379.9,354 405.6,354 418.5,366.8 405.6,379.6 379.9,379.6 367,366.8 			"/>
		</g>
		<g>
			<path class="st16" d="M383.8,359.1h3l5.8,9.4l0,0v-9.4h2.9v14h-3.1l-5.8-9.3l0,0v9.3h-2.9L383.8,359.1z"/>
		</g>
		<g>
			<path class="st16" d="M407.6,363.8c-0.3-1.4-1.5-2.4-3-2.4c-2.8,0-3.8,2.3-3.8,4.8s1,4.7,3.8,4.7c1.9,0,2.9-1.3,3.2-3.1h3
				c-0.1,3.2-2.8,5.8-6,5.7c0,0-0.1,0-0.1,0c-4.3,0-6.9-3.2-6.9-7.2s2.5-7.4,6.9-7.4c3,0,5.6,1.8,6,5L407.6,363.8z"/>
		</g>
		<g>
			<path class="st13" d="M400.3,389.2h14.5c2,0,3.6,1.6,3.6,3.6v18.3c0,2-1.6,3.6-3.6,3.6h-14.5c-2,0-3.6-1.6-3.6-3.6v-18.3
				C396.7,390.9,398.3,389.2,400.3,389.2z"/>
		</g>
		<g>
			<polygon class="st13" points="379.9,389.2 405.6,389.2 418.5,402 405.6,414.8 379.9,414.8 367,402 			"/>
		</g>
		<g>
			<path class="st16" d="M383.8,394.3h3l5.8,9.4l0,0v-9.4h2.9v14h-3.1l-5.8-9.3l0,0v9.3h-2.9L383.8,394.3z"/>
		</g>
		<g>
			<path class="st16" d="M407.6,399c-0.3-1.4-1.5-2.4-3-2.4c-2.8,0-3.8,2.3-3.8,4.8s1,4.7,3.8,4.7c1.9,0,2.9-1.3,3.2-3.1h3
				c-0.1,3.2-2.8,5.8-6,5.7c0,0-0.1,0-0.1,0c-4.3,0-6.9-3.2-6.9-7.2s2.5-7.4,6.9-7.4c3,0,5.6,1.8,6,5L407.6,399z"/>
		</g>
		<g>
			<path class="st13" d="M506.4,317.6h14.5c2,0,3.6,1.6,3.6,3.6v18.3c0,2-1.6,3.6-3.6,3.6h-14.5c-2,0-3.6-1.6-3.6-3.6v-18.3
				C502.7,319.2,504.4,317.6,506.4,317.6z"/>
		</g>
		<g>
			<polygon class="st13" points="541.1,317.7 515.4,317.7 502.6,330.5 515.4,343.2 541.1,343.2 554,330.5 			"/>
		</g>
		<g>
			<path class="st16" d="M511,322.8h3l5.8,9.4l0,0v-9.4h2.9v13.9h-3.1l-5.8-9.3l0,0v9.3H511V322.8z"/>
		</g>
		<g>
			<path class="st16" d="M534.7,327.4c-0.3-1.4-1.6-2.5-3-2.4c-2.8,0-3.8,2.3-3.8,4.8c0,2.3,1,4.7,3.8,4.7c1.9,0,2.9-1.3,3.2-3.1h3
				c-0.1,3.2-2.8,5.8-6,5.7c0,0-0.1,0-0.1,0c-4.3,0-6.9-3.2-6.9-7.2s2.6-7.4,6.9-7.4c3,0,5.6,1.8,6,5L534.7,327.4z"/>
		</g>
		<g>
			<path class="st13" d="M506.4,354.5h14.5c2,0,3.6,1.6,3.6,3.6v18.3c0,2-1.6,3.6-3.6,3.6h-14.5c-2,0-3.6-1.6-3.6-3.6v-18.3
				C502.7,356.2,504.4,354.5,506.4,354.5z"/>
		</g>
		<g>
			<polygon class="st13" points="541.1,354.6 515.4,354.6 502.6,367.4 515.4,380.2 541.1,380.2 554,367.4 			"/>
		</g>
		<g>
			<path class="st16" d="M511,359.7h3l5.8,9.4l0,0v-9.4h2.9v14h-3.1l-5.8-9.3l0,0v9.3H511V359.7z"/>
		</g>
		<g>
			<path class="st16" d="M534.7,364.4c-0.3-1.4-1.6-2.5-3-2.4c-2.8,0-3.8,2.3-3.8,4.8s1,4.7,3.8,4.7c1.9,0,2.9-1.3,3.2-3.1h3
				c-0.1,3.2-2.8,5.8-6,5.7c0,0-0.1,0-0.1,0c-4.3,0-6.9-3.2-6.9-7.2s2.6-7.4,6.9-7.4c3,0,5.6,1.8,6,5L534.7,364.4z"/>
		</g>
		<g>
			<path class="st16" d="M478.5,232.7h-3.1v-9.9h-3.9v-2.3c2.2,0.1,4.1-0.7,4.5-3h2.5L478.5,232.7z"/>
		</g>
		<g>
			<path class="st16" d="M487.1,223.5c1.3,0.1,3.3-0.1,3.3-1.9c0-1.1-0.9-2-2-2h-0.2c-1.6,0-2.4,1.2-2.4,2.7h-3
				c0.1-3.1,2.1-5.3,5.3-5.3c2.5,0,5.1,1.5,5.1,4.2c0.1,1.4-0.8,2.7-2.1,3.1l0,0c1.6,0.3,2.8,1.8,2.7,3.5c0,3.2-2.7,5-5.7,5
				c-3.4,0-5.8-2.1-5.7-5.6h3c0.1,1.7,0.9,3,2.7,3c1.3,0.1,2.4-0.9,2.5-2.2c0,0,0,0,0,0c0-0.1,0-0.1,0-0.2c0-2.3-2-2.3-3.5-2.3
				L487.1,223.5z"/>
		</g>
		<g>
			<path class="st16" d="M478.5,267.8h-3.1v-10h-3.9v-2.3c2.2,0.1,4.1-0.7,4.5-3h2.5L478.5,267.8z"/>
		</g>
		<g>
			<path class="st16" d="M493,255h-6.3l-0.6,3.5h0c0.8-0.8,1.9-1.3,3-1.2c3,0,4.7,2.3,4.7,5.2c0,3.1-2.5,5.5-5.6,5.5c0,0,0,0,0,0
				h-0.1c-3,0-5.6-1.6-5.7-4.9h3.1c0.1,1.3,1.2,2.3,2.5,2.3c1.5-0.1,2.7-1.4,2.7-2.9c0,0,0-0.1,0-0.1c0.1-1.5-1-2.8-2.5-2.9
				c-0.1,0-0.1,0-0.2,0c-0.9-0.1-1.8,0.4-2.3,1.2h-2.8l1.5-8.5h8.6V255z"/>
		</g>
		<g>
			<path class="st14" d="M589,107v25.5h-83c-1.8-0.1-3.3-1.6-3.2-3.5v-18.5c-0.1-1.9,1.4-3.4,3.2-3.5H589z"/>
		</g>
		<g>
			<polygon class="st14" points="593.4,107.1 567.8,107.1 555,119.8 567.8,132.6 593.4,132.6 606.3,119.8 			"/>
		</g>
		<g>
			<g>
				<path class="st16" d="M514.8,112.4h3.1v13.9h-3.1V112.4z"/>
			</g>
			<g>
				<path class="st16" d="M520,117.9c-0.1-3.1,1.7-5.5,5-5.5c2.5,0,4.7,1.6,4.7,4.3c0,4.1-4.4,4.5-6.4,7.3h6.5v2.4h-10
					c0-3.2,1.9-4.5,4.3-6.1c1.2-0.8,2.9-1.7,2.9-3.3c0.1-1.1-0.8-2-1.9-2.1c-0.1,0-0.1,0-0.2,0c-1.6,0-2.2,1.7-2.2,3.1L520,117.9z"
					/>
			</g>
			<g>
				<path class="st16" d="M540.7,117c-0.3-1.4-1.5-2.5-3-2.4c-2.8,0-3.8,2.3-3.8,4.8s1,4.7,3.8,4.7c1.9,0,2.9-1.3,3.2-3.1h3
					c-0.1,3.2-2.8,5.8-6,5.7c0,0-0.1,0-0.1,0c-4.3,0-6.8-3.2-6.8-7.2s2.5-7.3,6.8-7.3c3,0,5.6,1.8,6,5H540.7z"/>
			</g>
			<g>
				<path class="st16" d="M544.5,127.7h9.7v1h-9.7V127.7z"/>
			</g>
			<g>
				<path class="st16" d="M557.7,121.7c0,1.8,1.4,2.6,3.1,2.6c1.1,0,2.7-0.3,2.7-1.7s-2.1-1.7-4.1-2.3s-4.2-1.4-4.2-4
					c0-2.9,2.7-4.2,5.2-4.2c2.9,0,5.6,1.3,5.6,4.5h-3c-0.1-1.7-1.3-2.1-2.8-2.1c-1,0-2.1,0.4-2.1,1.6s0.7,1.2,4.2,2.1
					c1,0.2,4.1,0.9,4.1,4c0,2.6-2,4.5-5.8,4.5c-3.1,0-6-1.5-5.9-4.9L557.7,121.7z"/>
			</g>
			<g>
				<path class="st16" d="M577.5,117c-0.3-1.4-1.5-2.5-3-2.4c-2.7,0-3.8,2.3-3.8,4.8s1,4.7,3.8,4.7c1.9,0,2.9-1.3,3.2-3.1h3
					c-0.1,3.2-2.8,5.8-6,5.7c0,0-0.1,0-0.1,0c-4.3,0-6.8-3.2-6.8-7.2s2.6-7.3,6.8-7.3c3,0,5.6,1.8,6,5H577.5z"/>
			</g>
			<g>
				<path class="st16" d="M582.7,112.4h3.1v11.3h6.8v2.6h-9.8V112.4z"/>
			</g>
		</g>
		<g>
			<path class="st14" d="M418.4,110.5V129c0,1.9-1.2,3.5-2.6,3.5h-68.4V107h68.4C417.2,107,418.4,108.6,418.4,110.5L418.4,110.5z"/>
		</g>
		<g>
			<polygon class="st14" points="330.1,107.1 355.7,107.1 368.5,119.8 355.7,132.6 330.1,132.6 317.3,119.8 			"/>
		</g>
		<g>
			<g>
				<path class="st16" d="M330.9,112.4h3v13.9h-3V112.4z"/>
			</g>
			<g>
				<path class="st16" d="M336,117.9c-0.1-3.1,1.7-5.5,4.9-5.5c2.5,0,4.7,1.6,4.7,4.3c0,4.1-4.4,4.5-6.4,7.3h6.4v2.4h-10
					c0-3.2,2-4.5,4.3-6.1c1.2-0.8,2.9-1.7,2.9-3.3c0.1-1.1-0.8-2-1.9-2.1c0,0-0.1,0-0.1,0c-1.6,0-2.2,1.7-2.2,3.1H336z"/>
			</g>
			<g>
				<path class="st16" d="M356.7,117c-0.3-1.4-1.5-2.5-3-2.4c-2.8,0-3.8,2.3-3.8,4.8s1,4.7,3.8,4.7c1.9,0,2.9-1.3,3.1-3.1h3
					c-0.1,3.2-2.8,5.8-6,5.7c0,0-0.1,0-0.1,0c-4.3,0-6.8-3.2-6.8-7.2s2.5-7.3,6.8-7.3c3,0,5.6,1.8,6,5H356.7z"/>
			</g>
			<g>
				<path class="st16" d="M360.5,127.7h9.7v1h-9.7V127.7z"/>
			</g>
			<g>
				<path class="st16" d="M373.6,121.7c0,1.8,1.4,2.6,3.1,2.6c1.1,0,2.7-0.3,2.7-1.7s-2.1-1.7-4.1-2.3s-4.1-1.4-4.1-4
					c0-2.9,2.7-4.2,5.2-4.2c2.9,0,5.6,1.3,5.6,4.5h-3c-0.1-1.7-1.3-2.1-2.7-2.1c-1,0-2.1,0.4-2.1,1.6s0.7,1.2,4.1,2.1
					c1,0.2,4.1,0.9,4.1,4c0,2.6-2,4.4-5.8,4.4c-3.1,0-6-1.5-5.9-4.9L373.6,121.7z"/>
			</g>
			<g>
				<path class="st16" d="M384.2,112.4h6c3.6,0,6.3,2.3,6.3,6.9c0,4-2.1,7-6.3,7h-6V112.4z M387.2,123.7h2.7c1.8,0,3.5-1.1,3.5-4.2
					c0-2.8-1-4.6-4-4.6h-2.2V123.7z"/>
			</g>
			<g>
				<path class="st16" d="M402.4,112.4h3.1l5.2,13.9h-3.2l-1-3.1h-5.2l-1.1,3.1h-3.1L402.4,112.4z M402.1,120.9h3.6l-1.8-5.1l0,0
					L402.1,120.9z"/>
			</g>
		</g>
		<g>
			<path class="st14" d="M589,281.7v25.5h-83c-1.8-0.1-3.3-1.6-3.2-3.5v-18.6c-0.1-1.8,1.4-3.4,3.2-3.5H589z"/>
		</g>
		<g>
			<polygon class="st14" points="593.4,281.8 567.8,281.8 555,294.6 567.8,307.3 593.4,307.3 606.3,294.6 			"/>
		</g>
		<g>
			<g>
				<path class="st16" d="M514.8,287.1h3.1V301h-3.1V287.1z"/>
			</g>
			<g>
				<path class="st16" d="M520,292.6c-0.1-3.1,1.7-5.5,5-5.5c2.5,0,4.7,1.6,4.7,4.3c0,4.1-4.4,4.5-6.4,7.3h6.5v2.4h-10
					c0-3.2,1.9-4.5,4.3-6.1c1.2-0.8,2.9-1.7,2.9-3.3c0.1-1.1-0.8-2-1.9-2.1c-0.1,0-0.1,0-0.2,0c-1.6,0-2.2,1.7-2.2,3.1L520,292.6z"
					/>
			</g>
			<g>
				<path class="st16" d="M540.7,291.7c-0.3-1.4-1.5-2.5-3-2.4c-2.8,0-3.8,2.3-3.8,4.8s1,4.7,3.8,4.7c1.9,0,2.9-1.3,3.2-3.1h3
					c-0.1,3.2-2.8,5.8-6,5.7c0,0-0.1,0-0.1,0c-4.3,0-6.8-3.2-6.8-7.2s2.5-7.4,6.8-7.4c3,0,5.6,1.8,6,5L540.7,291.7z"/>
			</g>
			<g>
				<path class="st16" d="M544.5,302.4h9.7v1h-9.7V302.4z"/>
			</g>
			<g>
				<path class="st16" d="M557.7,296.4c0,1.9,1.4,2.6,3.1,2.6c1.1,0,2.7-0.3,2.7-1.7s-2.1-1.7-4.1-2.3s-4.2-1.4-4.2-4
					c0-2.9,2.7-4.2,5.2-4.2c2.9,0,5.6,1.3,5.6,4.5h-3c-0.1-1.7-1.3-2.1-2.8-2.1c-1,0-2.1,0.4-2.1,1.6s0.7,1.2,4.2,2.1
					c1,0.2,4.1,0.9,4.1,4.1c0,2.5-2,4.5-5.8,4.5c-3.1,0-6-1.5-5.9-5L557.7,296.4z"/>
			</g>
			<g>
				<path class="st16" d="M568.2,287.1h6c3.6,0,6.3,2.3,6.3,6.9c0,4-2.1,7-6.3,7h-6V287.1z M571.3,298.4h2.7c1.8,0,3.5-1.1,3.5-4.2
					c0-2.8-1-4.6-4-4.6h-2.2L571.3,298.4z"/>
			</g>
			<g>
				<path class="st16" d="M586.5,287.1h3.1l5.2,13.9h-3.2l-1.1-3.1h-5.2l-1.1,3.1h-3.1L586.5,287.1z M586.2,295.6h3.6l-1.8-5.1l0,0
					L586.2,295.6z"/>
			</g>
		</g>
		<g>
			<path class="st14" d="M418.4,285.2v18.5c0,1.9-1.2,3.5-2.6,3.5h-68.4v-25.5h68.4C417.2,281.8,418.4,283.3,418.4,285.2
				L418.4,285.2z"/>
		</g>
		<g>
			<polygon class="st14" points="330.1,281.8 355.7,281.8 368.5,294.6 355.7,307.3 330.1,307.3 317.3,294.6 			"/>
		</g>
		<g>
			<g>
				<path class="st16" d="M330.9,287.1h3V301h-3V287.1z"/>
			</g>
			<g>
				<path class="st16" d="M336,292.6c-0.1-3.1,1.7-5.5,4.9-5.5c2.5,0,4.7,1.6,4.7,4.3c0,4.1-4.4,4.5-6.4,7.2h6.4v2.4h-10
					c0-3.2,2-4.5,4.3-6.1c1.2-0.8,2.9-1.7,2.9-3.3c0.1-1.1-0.8-2-1.9-2.1c0,0-0.1,0-0.1,0c-1.6,0-2.2,1.7-2.2,3.1L336,292.6z"/>
			</g>
			<g>
				<path class="st16" d="M356.7,291.8c-0.3-1.4-1.5-2.5-3-2.4c-2.8,0-3.8,2.3-3.8,4.8s1,4.6,3.8,4.6c1.9,0,2.9-1.3,3.1-3.1h3
					c-0.1,3.2-2.8,5.8-6,5.7c0,0-0.1,0-0.1,0c-4.3,0-6.8-3.2-6.8-7.2s2.5-7.3,6.8-7.3c3,0,5.6,1.8,6,5H356.7z"/>
			</g>
			<g>
				<path class="st16" d="M360.5,302.4h9.7v1h-9.7V302.4z"/>
			</g>
			<g>
				<path class="st16" d="M373.6,296.4c0,1.9,1.4,2.6,3.1,2.6c1.1,0,2.7-0.3,2.7-1.7s-2.1-1.7-4.1-2.3s-4.1-1.4-4.1-4
					c0-2.9,2.7-4.2,5.2-4.2c2.9,0,5.6,1.3,5.6,4.5h-3c-0.1-1.6-1.3-2.1-2.7-2.1c-1,0-2.1,0.4-2.1,1.6s0.7,1.2,4.1,2.1
					c1,0.2,4.1,0.9,4.1,4c0,2.5-2,4.5-5.8,4.5c-3.1,0-6-1.5-5.9-4.9L373.6,296.4z"/>
			</g>
			<g>
				<path class="st16" d="M393.4,291.8c-0.3-1.4-1.5-2.5-3-2.4c-2.7,0-3.8,2.3-3.8,4.8s1,4.6,3.8,4.6c1.9,0,2.9-1.3,3.1-3.1h3
					c-0.1,3.2-2.8,5.8-6,5.7c0,0-0.1,0-0.1,0c-4.3,0-6.8-3.2-6.8-7.2s2.5-7.3,6.8-7.3c3,0,5.6,1.8,6,5H393.4z"/>
			</g>
			<g>
				<path class="st16" d="M398.6,287.1h3v11.3h6.8v2.6h-9.8L398.6,287.1z"/>
			</g>
		</g>
		<g>
			<path class="st14" d="M568.3,211.7v25.5h-63.1c-1.4,0-2.4-1.6-2.4-3.5v-18.6c0-1.9,1.1-3.5,2.4-3.5H568.3z"/>
		</g>
		<g>
			<polygon class="st14" points="593.1,211.7 567.5,211.7 554.7,224.5 567.5,237.2 593.1,237.2 606,224.5 			"/>
		</g>
		<g>
			<path class="st14" d="M418.5,179.5v18.6c0,1.9-1.1,3.5-2.5,3.5h-63.3v-25.5H416C417.3,176.1,418.4,177.6,418.5,179.5L418.5,179.5
				z"/>
		</g>
		<g>
			<polygon class="st14" points="329.2,176.1 354.8,176.1 367.6,188.8 354.8,201.5 329.2,201.5 316.4,188.8 			"/>
		</g>
		<g>
			<path class="st10" d="M374,211.6h41c1.9,0,3.4,0.9,3.4,2v21.6c0,1.1-1.5,2-3.4,2h-41"/>
		</g>
		<g>
			<polygon class="st10" points="395.3,211.6 369.7,211.6 356.9,224.4 369.7,237.1 395.3,237.1 408.2,224.4 			"/>
		</g>
		<g>
			<polygon class="st10" points="380.5,211.6 354.8,211.6 342,224.4 354.8,237.1 380.5,237.1 393.3,224.4 			"/>
		</g>
		<g>
			<g>
				<path class="st16" d="M359.6,222.5c1.2,0.1,3-0.1,3-1.8c0-1-0.8-1.9-1.9-1.9c0,0-0.1,0-0.1,0c-1.5,0-2.2,1.1-2.2,2.6h-2.8
					c-0.1-2.6,1.9-4.8,4.5-4.9c0.1,0,0.3,0,0.4,0c2.3,0,4.8,1.4,4.8,4c0.1,1.3-0.7,2.5-2,2.9l0,0c1.5,0.3,2.6,1.7,2.5,3.2
					c0,3-2.5,4.7-5.3,4.7c-3.2,0-5.4-1.9-5.3-5.2h2.8c0.1,1.6,0.8,2.8,2.5,2.8c1.2,0.1,2.3-0.9,2.3-2.1c0-0.1,0-0.1,0-0.2
					c0-2.2-1.9-2.1-3.3-2.1L359.6,222.5z"/>
			</g>
			<g>
				<path class="st16" d="M373.3,231h-3.2l-3.6-10.6h3l2.2,7.2l0,0l2.2-7.2h2.9L373.3,231z"/>
			</g>
			<g>
				<path class="st16" d="M381.6,222.5c1.2,0.1,3-0.1,3-1.8c0-1-0.8-1.9-1.9-1.9c0,0-0.1,0-0.1,0c-1.5,0-2.2,1.1-2.2,2.6h-2.8
					c-0.1-2.6,1.9-4.8,4.5-4.9c0.1,0,0.3,0,0.4,0c2.3,0,4.8,1.4,4.8,4c0.1,1.3-0.7,2.5-2,2.9l0,0c1.5,0.3,2.6,1.7,2.5,3.2
					c0,3-2.5,4.7-5.3,4.7c-3.2,0-5.4-1.9-5.3-5.2h2.8c0.1,1.6,0.8,2.8,2.5,2.8c1.2,0.1,2.3-0.9,2.3-2.1c0-0.1,0-0.1,0-0.2
					c0-2.2-1.9-2.1-3.3-2.1L381.6,222.5z"/>
			</g>
			<g>
				<path class="st16" d="M388.4,232.6h10.2v1h-10.2V232.6z"/>
			</g>
			<g>
				<path class="st16" d="M402.2,226.2c0,1.9,1.5,2.7,3.2,2.7c1.1,0,2.9-0.3,2.9-1.8s-2.2-1.8-4.3-2.4s-4.4-1.4-4.4-4.1
					c0-3,2.8-4.4,5.5-4.4c3,0,5.9,1.3,5.9,4.7h-3.1c-0.1-1.7-1.3-2.2-2.9-2.2c-1,0-2.2,0.4-2.2,1.6s0.7,1.3,4.4,2.2
					c1.1,0.2,4.3,1,4.3,4.2c0,2.7-2.1,4.7-6.1,4.7c-3.2,0-6.3-1.6-6.2-5.2H402.2z"/>
			</g>
		</g>
		<g>
			<path class="st10" d="M547.2,201.7h-41c-1.9,0-3.4-0.9-3.4-2v-21.5c0-1.1,1.5-2,3.4-2h41"/>
		</g>
		<g>
			<polygon class="st10" points="556.1,176.2 530.5,176.2 517.6,189 530.5,201.7 556.1,201.7 569,189 			"/>
		</g>
		<g>
			<polygon class="st10" points="540.8,201.7 566.4,201.7 579.2,189 566.4,176.2 540.8,176.2 527.9,189 			"/>
		</g>
		<g>
			<g>
				<path class="st16" d="M515.2,188.2c1.2,0.1,3-0.1,3-1.8c0-1-0.8-1.9-1.9-1.9c0,0-0.1,0-0.1,0c-1.5,0-2.2,1.1-2.2,2.6h-2.7
					c-0.1-2.6,1.9-4.8,4.5-4.9c0.1,0,0.3,0,0.4,0c2.3,0,4.8,1.4,4.8,4c0.1,1.3-0.7,2.5-2,2.9l0,0c1.5,0.3,2.6,1.7,2.5,3.2
					c0,3-2.5,4.7-5.3,4.7c-3.2,0-5.4-1.9-5.3-5.2h2.8c0.1,1.6,0.8,2.8,2.5,2.8c1.2,0.1,2.3-0.9,2.3-2.1c0-0.1,0-0.1,0-0.2
					c0-2.2-1.9-2.1-3.3-2.1V188.2z"/>
			</g>
			<g>
				<path class="st16" d="M528.9,196.7h-3.2l-3.6-10.6h3l2.2,7.2l0,0l2.2-7.2h2.9L528.9,196.7z"/>
			</g>
			<g>
				<path class="st16" d="M537.3,188.2c1.2,0.1,3-0.1,3-1.8c0-1-0.8-1.9-1.9-1.9c0,0-0.1,0-0.1,0c-1.5,0-2.2,1.1-2.2,2.6h-2.8
					c-0.1-2.6,1.9-4.8,4.5-4.9c0.2,0,0.3,0,0.5,0c2.3,0,4.8,1.4,4.8,4c0.1,1.3-0.7,2.5-2,2.9l0,0c1.5,0.3,2.6,1.7,2.5,3.2
					c0,3-2.5,4.7-5.3,4.7c-3.2,0-5.4-1.9-5.3-5.2h2.8c0.1,1.6,0.8,2.8,2.5,2.8c1.2,0.1,2.3-0.9,2.3-2.1c0-0.1,0-0.1,0-0.2
					c0-2.2-1.9-2.1-3.3-2.1L537.3,188.2z"/>
			</g>
			<g>
				<path class="st16" d="M544,198.2h10.2v1H544V198.2z"/>
			</g>
			<g>
				<path class="st16" d="M557.8,191.9c0,1.9,1.5,2.7,3.2,2.7c1.1,0,2.8-0.3,2.8-1.8s-2.2-1.8-4.3-2.4s-4.4-1.5-4.4-4.2
					c0-3,2.8-4.4,5.5-4.4c3,0,5.8,1.3,5.8,4.7h-3.1c-0.1-1.7-1.3-2.2-2.9-2.2c-1,0-2.2,0.4-2.2,1.7s0.7,1.3,4.4,2.2
					c1.1,0.2,4.3,1,4.3,4.2c0,2.7-2.1,4.7-6.1,4.7c-3.2,0-6.3-1.6-6.2-5.2L557.8,191.9z"/>
			</g>
		</g>
		<g>
			<path class="st16" d="M332.3,181.1h3.1v14h-3.1V181.1z"/>
			<path class="st16" d="M338,181.1h3.1l5.8,9.4h0v-9.4h2.9v14h-3.1l-5.8-9.4h0v9.4H338V181.1z"/>
			<path class="st16" d="M355.6,183.7h-4.2v-2.6h11.5v2.6h-4.2v11.4h-3.1V183.7z"/>
			<path class="st16" d="M374.6,180.7c-1.5,2.8-2.1,5.8-2.1,8.9c0,3.1,0.6,6.2,2.1,9h-2.3c-1.6-2.7-2.6-5.7-2.6-8.8
				c0-2.9,0.9-6.6,2.6-9.1H374.6z"/>
			<path class="st16" d="M375.8,181.1h3.1v14h-3.1V181.1z"/>
			<path class="st16" d="M387.8,180.7c4.3,0,6.9,3.2,6.9,7.4c0,4-2.6,7.3-6.9,7.3c-4.3,0-6.9-3.2-6.9-7.3
				C380.9,184,383.5,180.7,387.8,180.7z M387.8,192.8c2.8,0,3.8-2.4,3.8-4.7c0-2.4-1-4.8-3.8-4.8c-2.8,0-3.8,2.4-3.8,4.8
				C384,190.5,385.1,192.8,387.8,192.8z"/>
			<path class="st16" d="M403.1,195.1h-2.8v-8.9h-3.4v-2.1c1.9,0.1,3.7-0.6,4-2.7h2.2V195.1z"/>
			<path class="st16" d="M406.2,198.6c1.5-2.8,2.1-5.8,2.1-8.9c0-3.1-0.6-6.2-2.1-9h2.3c1.6,2.7,2.6,5.8,2.6,8.8
				c0,2.9-0.9,6.6-2.6,9.1H406.2z"/>
		</g>
		<g>
			<path class="st16" d="M510.9,216.8h3.1v14h-3.1V216.8z"/>
			<path class="st16" d="M516.7,216.8h3.1l5.8,9.4h0v-9.4h2.9v14h-3.1l-5.8-9.4h0v9.4h-2.9V216.8z"/>
			<path class="st16" d="M534.3,219.4h-4.2v-2.6h11.5v2.6h-4.2v11.4h-3.1V219.4z"/>
			<path class="st16" d="M553.2,216.4c-1.5,2.8-2.1,5.8-2.1,8.9c0,3.1,0.6,6.2,2.1,9h-2.3c-1.6-2.7-2.6-5.7-2.6-8.8
				c0-2.9,0.9-6.6,2.6-9.1H553.2z"/>
			<path class="st16" d="M554.4,216.8h3.1v14h-3.1V216.8z"/>
			<path class="st16" d="M566.5,216.4c4.3,0,6.9,3.2,6.9,7.4c0,4-2.6,7.3-6.9,7.3c-4.3,0-6.9-3.2-6.9-7.3
				C559.6,219.7,562.1,216.4,566.5,216.4z M566.5,228.5c2.8,0,3.8-2.4,3.8-4.7c0-2.4-1-4.8-3.8-4.8c-2.8,0-3.8,2.4-3.8,4.8
				C562.7,226.2,563.7,228.5,566.5,228.5z"/>
			<path class="st16" d="M581.8,230.8H579v-8.9h-3.4v-2.1c1.9,0.1,3.7-0.6,4-2.7h2.2V230.8z"/>
			<path class="st16" d="M584.8,234.3c1.5-2.8,2.1-5.8,2.1-8.9c0-3.1-0.6-6.2-2.1-9h2.3c1.6,2.7,2.6,5.8,2.6,8.8
				c0,2.9-0.9,6.6-2.6,9.1H584.8z"/>
		</g>
	</g>
</g>
</svg>
