<svg xmlns="http://www.w3.org/2000/svg" viewBox="0 0 1313.61 852.01"><defs><style>.cls-1{fill:#222;}.cls-2,.cls-5{fill:#333;}.cls-3{fill:#6d6d6d;}.cls-4,.cls-5{opacity:0.5;}.cls-6{fill:#727373;}.cls-7{fill:#aeadae;}.cls-8{fill:#c0c6c6;}</style></defs><g id="Layer_2" data-name="Layer 2"><g id="Layer_1-2" data-name="Layer 1"><path d="M16.26,419.13,7,457.79l4.64,39.67s486.2,239.2,490.84,239.2h509l248.18-29.42,40.26-232.64-17-66.71-26.32-320s-713.81-10.84-774.2-6.2-38.71,19.55-106.84,45.39S16.26,419.13,16.26,419.13Z"/><rect class="cls-1" x="560" y="159.63" width="642.32" height="496.52" rx="14.45"/><path class="cls-1" d="M1298.87,815.89c0,11.83-12.2,21.42-27.24,21.42H44.55c-15,0-27.24-9.59-27.24-21.42L0,474.6H526.19l15,204s15.49,8.14,40.26,7.74L1193.81,684s23.22,11.2,24.77-19.35l14.19-190.06h80.84Z"/><path class="cls-2" d="M1202.32,127.11H553.55c-24.78-.51-24.26,31-24.26,31l-3.1,307.6h24.32c1.66-.18,4-1,4.2-4.25V155.63h652.77v304.9s0,5.15,4.13,5.15h21.16V163.76C1231.23,124.53,1202.32,127.11,1202.32,127.11Z"/><path class="cls-1" d="M1298.87,27.5A27.37,27.37,0,0,0,1271.63,0H44.55A27.37,27.37,0,0,0,17.31,27.5L0,465.68H526.19l3.1-307.6s-.52-31.48,24.26-31h648.77s28.91-2.58,30.45,36.65V465.68h80.84Z"/><path class="cls-2" d="M1202.32,692.53H553.55c-24.78.32-24.26-26.93-24.26-26.93l-3.1-191h24.32c1.66.1,4,.61,4.2,2.63V667.12h652.77V477.79s0-3.19,4.13-3.19h21.16V662.07C1231.23,686.43,1202.32,692.53,1202.32,692.53Z"/><path class="cls-2" d="M63.74,743.89H329a0,0,0,0,1,0,0V815.8A36.22,36.22,0,0,1,292.82,852H100A36.22,36.22,0,0,1,63.74,815.8V743.89a0,0,0,0,1,0,0Z"/><polygon class="cls-3" points="63.74 743.89 65.81 474.6 98.84 474.6 98.84 743.89 63.74 743.89"/><polygon class="cls-3" points="293.94 743.89 304.52 474.6 336 474.6 329.03 743.89 293.94 743.89"/><path class="cls-4" d="M1016,351.6c-2.55,0-5.07.08-7.58.23.27-3.32.42-6.69.42-10.08,0-69.23-57.7-125.35-128.86-125.35S751.09,272.52,751.09,341.75c0,3.39.14,6.76.41,10.08-2.5-.15-5-.23-7.57-.23-68.68,0-124.36,55.46-124.36,123.88s55.68,123.89,124.36,123.89A124.23,124.23,0,0,0,867,493.36h0v-.08c.09-.65.19-1.3.27-2,.79-4.43,3.57-14.65,12.68-15.84,0,0,9.82-1.31,12.42,13.7a.08.08,0,0,0,0,0C899.24,551.17,952,599.37,1016,599.37c68.68,0,124.35-55.47,124.35-123.89S1084.65,351.6,1016,351.6Z"/><path class="cls-5" d="M893.81,259.06h0V217.12c-16.36-2.75-35.46,1-35.46,1v40.48a74.59,74.59,0,1,0,35.46.42Z"/><circle class="cls-5" cx="736.45" cy="457.79" r="64.77"/><circle class="cls-5" cx="1011.43" cy="457.79" r="64.77"/><circle class="cls-6" cx="738.99" cy="460.6" r="41.48"/><circle class="cls-7" cx="738.81" cy="462.36" r="35.1"/><circle class="cls-8" cx="739.07" cy="467.07" r="32.65"/><circle class="cls-6" cx="879.48" cy="337.85" r="41.48"/><circle class="cls-7" cx="879.3" cy="339.61" r="35.1"/><circle class="cls-8" cx="879.56" cy="344.32" r="32.65"/><circle class="cls-6" cx="1011.61" cy="460.6" r="41.48"/><circle class="cls-7" cx="1011.43" cy="462.36" r="35.1"/><circle class="cls-8" cx="1011.69" cy="467.07" r="32.65"/></g></g></svg>