<svg xmlns="http://www.w3.org/2000/svg" xmlns:xlink="http://www.w3.org/1999/xlink" viewBox="0 0 899.13 603.15"><defs><style>.cls-1,.cls-18{fill:none;}.cls-2{fill:#7f7f7f;}.cls-3{fill:#fa0200;}.cls-4{fill:#00a7db;}.cls-5{fill:#333;}.cls-6{isolation:isolate;}.cls-7{fill:#fff;}.cls-8{fill:#7373ff;}.cls-9{fill:#b2b2b2;}.cls-10{fill:#bfbfbf;}.cls-11{fill:#eaf4fc;}.cls-12{fill:#323d49;}.cls-13{fill:#222630;}.cls-14{fill:#c8b99f;}.cls-15{fill:#d2d2d2;}.cls-16{clip-path:url(#clip-path);}.cls-17{fill:#be8e3f;}.cls-18{stroke:#fff;stroke-linecap:round;stroke-miterlimit:10;stroke-width:2.55px;}.cls-19{fill:#ec2024;}</style><clipPath id="clip-path"><rect class="cls-1" x="17.08" y="126.35" width="389.94" height="386.95"/></clipPath></defs><g id="Layer_7" data-name="Layer 7"><rect class="cls-2" x="685.06" y="17.91" width="51.12" height="566.89"/><rect class="cls-2" x="621.18" y="17.91" width="51.12" height="566.89"/><rect class="cls-3" x="591.46" y="354.82" width="29.68" height="34.92" rx="4.94"/><rect class="cls-3" x="544.07" y="354.82" width="70.05" height="34.92"/><polygon class="cls-4" points="556.04 258.66 524.06 258.66 508.06 276.13 524.06 293.58 556.04 293.58 572.02 276.13 556.04 258.66"/><rect class="cls-4" x="591.5" y="258.67" width="29.68" height="34.92" rx="4.94"/><polygon class="cls-4" points="621.18 265.81 607.99 258.66 543.51 258.66 511.27 276.13 543.51 293.58 607.99 293.58 621.18 286.44 621.18 265.81"/><polygon class="cls-4" points="785.27 324.49 801.25 341.94 833.23 341.94 849.23 324.49 833.23 307.02 801.25 307.02 785.27 324.49"/><rect class="cls-4" x="736.12" y="307.02" width="29.68" height="34.92" rx="4.94"/><polygon class="cls-4" points="736.12 314.17 749.31 307.02 813.78 307.02 846.02 324.49 813.78 341.94 749.31 341.94 736.12 334.8 736.12 314.17"/><rect class="cls-5" x="591.44" y="17.9" width="29.68" height="34.92" rx="4.94"/><g class="cls-6"><path class="cls-7" d="M745.85,314.24H750v7.31h7.7v-7.31h4.19v19.05h-4.19v-8.22H750v8.22h-4.19Z"/><path class="cls-7" d="M774.15,313.79c5.87,0,9.36,4.4,9.36,10.06,0,5.49-3.49,9.89-9.36,9.89s-9.36-4.4-9.36-9.89C764.79,318.19,768.28,313.79,774.15,313.79Zm0,16.43c3.76,0,5.18-3.2,5.18-6.37,0-3.34-1.42-6.54-5.18-6.54s-5.17,3.2-5.17,6.54C769,327,770.39,330.22,774.15,330.22Z"/><path class="cls-7" d="M786.37,314.24h4.19v15.53h9.28v3.52H786.37Z"/><path class="cls-7" d="M802.2,314.24h8.21c4.94,0,8.64,3.13,8.64,9.42,0,5.52-2.82,9.63-8.64,9.63H802.2Zm4.18,15.53h3.74c2.42,0,4.74-1.5,4.74-5.71,0-3.84-1.36-6.29-5.49-6.29h-3Z"/></g><polygon class="cls-8" points="795.97 83.16 811.95 100.61 843.93 100.61 859.93 83.16 843.93 65.68 811.95 65.68 795.97 83.16"/><rect class="cls-8" x="736.12" y="65.68" width="29.68" height="34.92" rx="4.94"/><polygon class="cls-8" points="736.12 72.84 750.2 65.68 819.01 65.68 853.42 83.16 819.01 100.61 750.2 100.61 736.12 93.46 736.12 72.84"/><g class="cls-6"><path class="cls-7" d="M748.7,85.35c0,2.53,2,3.52,4.22,3.52,1.46,0,3.7-.43,3.7-2.38s-2.88-2.37-5.65-3.14-5.68-1.9-5.68-5.42c0-3.92,3.68-5.76,7.12-5.76,4,0,7.63,1.74,7.63,6.14H756c-.13-2.27-1.73-2.88-3.76-2.88-1.33,0-2.88.56-2.88,2.16s.91,1.68,5.68,2.88c1.42.32,5.66,1.25,5.66,5.54,0,3.5-2.72,6.11-7.92,6.11-4.22,0-8.19-2.08-8.11-6.77Z"/><path class="cls-7" d="M763.16,72.63h8.59c4.78,0,6.59,3,6.59,6.1s-1.81,6.11-6.59,6.11h-4.4v6.83h-4.19Zm4.19,9h3.25c1.92,0,3.68-.43,3.68-2.86s-1.76-2.85-3.68-2.85h-3.25Z"/><path class="cls-7" d="M781,72.63h4.19v19H781Z"/><path class="cls-7" d="M787,93.67h13.33V95H787Z"/><path class="cls-7" d="M814.86,79a4.15,4.15,0,0,0-4.16-3.34c-3.76,0-5.17,3.2-5.17,6.54,0,3.17,1.41,6.37,5.17,6.37,2.56,0,4-1.73,4.32-4.27h4.06c-.43,4.78-3.68,7.79-8.38,7.79-5.86,0-9.36-4.4-9.36-9.89,0-5.66,3.5-10.06,9.36-10.06,4.16,0,7.71,2.46,8.22,6.86Z"/><path class="cls-7" d="M824.79,85.35c0,2.53,2,3.52,4.22,3.52,1.46,0,3.7-.43,3.7-2.38s-2.88-2.37-5.65-3.14-5.68-1.9-5.68-5.42c0-3.92,3.68-5.76,7.12-5.76,4,0,7.63,1.74,7.63,6.14h-4.06c-.13-2.27-1.73-2.88-3.76-2.88-1.33,0-2.88.56-2.88,2.16s.91,1.68,5.68,2.88c1.42.32,5.66,1.25,5.66,5.54,0,3.5-2.72,6.11-7.92,6.11-4.22,0-8.19-2.08-8.11-6.77Z"/></g><polygon class="cls-8" points="795.97 132.41 811.95 149.86 843.93 149.86 859.93 132.41 843.93 114.93 811.95 114.93 795.97 132.41"/><polygon class="cls-8" points="821.44 132.41 837.42 149.86 869.4 149.86 885.4 132.41 869.4 114.93 837.42 114.93 821.44 132.41"/><rect class="cls-8" x="736.12" y="114.93" width="29.68" height="34.92" rx="4.94"/><polygon class="cls-8" points="736.12 122.09 750.2 114.93 819.01 114.93 853.42 132.41 819.01 149.86 750.2 149.86 736.12 142.71 736.12 122.09"/><g class="cls-6"><path class="cls-7" d="M748.7,134.6c0,2.53,2,3.52,4.22,3.52,1.46,0,3.7-.43,3.7-2.38s-2.88-2.37-5.65-3.14-5.68-1.9-5.68-5.42c0-3.92,3.68-5.76,7.12-5.76,4,0,7.63,1.73,7.63,6.14H756c-.13-2.27-1.73-2.89-3.76-2.89-1.33,0-2.88.56-2.88,2.17s.91,1.68,5.68,2.88c1.42.32,5.66,1.25,5.66,5.54,0,3.5-2.72,6.11-7.92,6.11-4.22,0-8.19-2.08-8.11-6.77Z"/><path class="cls-7" d="M763.16,121.87h8.59c4.78,0,6.59,3,6.59,6.11s-1.81,6.11-6.59,6.11h-4.4v6.83h-4.19Zm4.19,9h3.25c1.92,0,3.68-.43,3.68-2.86s-1.76-2.85-3.68-2.85h-3.25Z"/><path class="cls-7" d="M781,121.87h4.19v19H781Z"/><path class="cls-7" d="M787,142.92h13.33v1.33H787Z"/><path class="cls-7" d="M802.17,121.87h5.89l4.46,13.1h.05l4.21-13.1h5.9v19h-3.92v-13.5h-.06L814,140.92h-3.23l-4.67-13.36h0v13.36h-3.92Z"/><path class="cls-7" d="M826.37,121.87h4.19v19h-4.19Z"/><path class="cls-7" d="M837.09,134.6c0,2.53,2,3.52,4.22,3.52,1.46,0,3.7-.43,3.7-2.38s-2.88-2.37-5.65-3.14-5.68-1.9-5.68-5.42c0-3.92,3.68-5.76,7.12-5.76,4,0,7.63,1.73,7.63,6.14h-4.06c-.13-2.27-1.73-2.89-3.76-2.89-1.33,0-2.88.56-2.88,2.17s.91,1.68,5.68,2.88c1.42.32,5.66,1.25,5.66,5.54,0,3.5-2.72,6.11-7.92,6.11-4.22,0-8.19-2.08-8.11-6.77Z"/><path class="cls-7" d="M860.09,121.42c5.87,0,9.36,4.4,9.36,10.06,0,5.49-3.49,9.89-9.36,9.89s-9.36-4.4-9.36-9.89C850.73,125.82,854.22,121.42,860.09,121.42Zm0,16.43c3.76,0,5.17-3.2,5.17-6.37,0-3.34-1.41-6.54-5.17-6.54s-5.18,3.2-5.18,6.54C854.91,134.65,856.33,137.85,860.09,137.85Z"/></g><polygon class="cls-8" points="795.97 519.91 811.95 537.36 843.93 537.36 859.93 519.91 843.93 502.43 811.95 502.43 795.97 519.91"/><polygon class="cls-8" points="821.44 519.91 837.42 537.36 869.4 537.36 885.4 519.91 869.4 502.43 837.42 502.43 821.44 519.91"/><rect class="cls-8" x="736.12" y="502.43" width="29.68" height="34.92" rx="4.94"/><polygon class="cls-8" points="736.12 509.59 750.2 502.43 819.01 502.43 853.42 519.91 819.01 537.36 750.2 537.36 736.12 530.21 736.12 509.59"/><g class="cls-6"><path class="cls-7" d="M748.7,522.1c0,2.53,2,3.52,4.22,3.52,1.46,0,3.7-.43,3.7-2.37s-2.88-2.38-5.65-3.15-5.68-1.9-5.68-5.42c0-3.92,3.68-5.76,7.12-5.76,4,0,7.63,1.74,7.63,6.14H756c-.13-2.27-1.73-2.88-3.76-2.88-1.33,0-2.88.56-2.88,2.16s.91,1.68,5.68,2.88c1.42.32,5.66,1.25,5.66,5.55,0,3.49-2.72,6.1-7.92,6.1-4.22,0-8.19-2.08-8.11-6.77Z"/><path class="cls-7" d="M763.16,509.38h8.59c4.78,0,6.59,3,6.59,6.1s-1.81,6.11-6.59,6.11h-4.4v6.83h-4.19Zm4.19,9h3.25c1.92,0,3.68-.43,3.68-2.86s-1.76-2.85-3.68-2.85h-3.25Z"/><path class="cls-7" d="M781,509.38h4.19v19H781Z"/><path class="cls-7" d="M787,530.42h13.33v1.33H787Z"/><path class="cls-7" d="M814.86,515.78a4.15,4.15,0,0,0-4.16-3.34c-3.76,0-5.17,3.2-5.17,6.54,0,3.17,1.41,6.37,5.17,6.37,2.56,0,4-1.73,4.32-4.27h4.06c-.43,4.78-3.68,7.79-8.38,7.79-5.86,0-9.36-4.4-9.36-9.89,0-5.66,3.5-10.06,9.36-10.06,4.16,0,7.71,2.46,8.22,6.86Z"/><path class="cls-7" d="M821.94,509.38h4.19V524.9h9.28v3.52H821.94Z"/><path class="cls-7" d="M837.76,509.38H842v7.89l7.44-7.89h5.23l-7.45,7.52,8.17,11.52h-5.26l-5.73-8.56-2.4,2.42v6.14h-4.19Z"/></g><polygon class="cls-8" points="795.97 469.43 811.95 486.88 843.93 486.88 859.93 469.43 843.93 451.96 811.95 451.96 795.97 469.43"/><polygon class="cls-8" points="821.44 469.43 837.42 486.88 869.4 486.88 885.4 469.43 869.4 451.96 837.42 451.96 821.44 469.43"/><rect class="cls-8" x="736.12" y="451.96" width="29.68" height="34.92" rx="4.94"/><polygon class="cls-8" points="736.12 459.11 750.2 451.96 819.01 451.96 853.42 469.43 819.01 486.88 750.2 486.88 736.12 479.74 736.12 459.11"/><g class="cls-6"><path class="cls-7" d="M748.7,471.62c0,2.54,2,3.52,4.22,3.52,1.46,0,3.7-.42,3.7-2.37s-2.88-2.37-5.65-3.15-5.68-1.89-5.68-5.41c0-3.92,3.68-5.76,7.12-5.76,4,0,7.63,1.73,7.63,6.13H756c-.13-2.27-1.73-2.88-3.76-2.88-1.33,0-2.88.56-2.88,2.16s.91,1.68,5.68,2.88c1.42.32,5.66,1.25,5.66,5.55,0,3.49-2.72,6.11-7.92,6.11-4.22,0-8.19-2.08-8.11-6.78Z"/><path class="cls-7" d="M763.16,458.9h8.59c4.78,0,6.59,3,6.59,6.11s-1.81,6.1-6.59,6.1h-4.4v6.83h-4.19Zm4.19,9h3.25c1.92,0,3.68-.43,3.68-2.85s-1.76-2.86-3.68-2.86h-3.25Z"/><path class="cls-7" d="M781,458.9h4.19v19H781Z"/><path class="cls-7" d="M787,479.94h13.33v1.34H787Z"/><path class="cls-7" d="M802.17,458.9h5.89l4.46,13.1h.05l4.21-13.1h5.9v19h-3.92V464.45h-.06L814,477.94h-3.23l-4.67-13.36h0v13.36h-3.92Z"/><path class="cls-7" d="M834.9,458.45c5.87,0,9.36,4.4,9.36,10.05s-3.49,9.9-9.36,9.9-9.36-4.4-9.36-9.9S829,458.45,834.9,458.45Zm0,16.43c3.76,0,5.18-3.2,5.18-6.38S838.66,462,834.9,462s-5.17,3.2-5.17,6.53S831.14,474.88,834.9,474.88Z"/><path class="cls-7" d="M850,471.62c0,2.54,2,3.52,4.21,3.52,1.47,0,3.71-.42,3.71-2.37s-2.88-2.37-5.65-3.15-5.69-1.89-5.69-5.41c0-3.92,3.68-5.76,7.13-5.76,4,0,7.62,1.73,7.62,6.13h-4c-.13-2.27-1.73-2.88-3.76-2.88-1.33,0-2.88.56-2.88,2.16s.91,1.68,5.68,2.88c1.41.32,5.65,1.25,5.65,5.55,0,3.49-2.72,6.11-7.92,6.11-4.21,0-8.19-2.08-8.11-6.78Z"/><path class="cls-7" d="M864.44,458.9h4.19v19h-4.19Z"/></g><polygon class="cls-8" points="527.27 65.76 495.29 65.76 479.29 83.24 495.29 100.69 527.27 100.69 543.25 83.24 527.27 65.76"/><rect class="cls-8" x="591.5" y="65.76" width="29.68" height="34.92" rx="4.94"/><polygon class="cls-8" points="621.18 72.92 604.15 65.76 520.92 65.76 479.29 83.24 520.92 100.69 604.15 100.69 621.18 93.54 621.18 72.92"/><g class="cls-6"><path class="cls-7" d="M501.38,85.43c0,2.53,2,3.52,4.22,3.52,1.47,0,3.71-.43,3.71-2.38s-2.88-2.37-5.66-3.14S498,81.53,498,78c0-3.92,3.68-5.76,7.12-5.76,4,0,7.63,1.74,7.63,6.14h-4.05c-.14-2.27-1.74-2.88-3.77-2.88-1.33,0-2.88.56-2.88,2.16s.91,1.68,5.69,2.88c1.41.32,5.65,1.25,5.65,5.54,0,3.5-2.72,6.11-7.92,6.11-4.22,0-8.19-2.08-8.11-6.77Z"/><path class="cls-7" d="M515.85,72.71h8.58c4.78,0,6.59,3,6.59,6.1s-1.81,6.11-6.59,6.11H520v6.83h-4.18Zm4.18,9h3.26c1.92,0,3.68-.43,3.68-2.86S525.21,76,523.29,76H520Z"/><path class="cls-7" d="M533.64,72.71h4.19v19h-4.19Z"/><path class="cls-7" d="M539.67,93.75H553v1.33H539.67Z"/><path class="cls-7" d="M567.55,79.11a4.16,4.16,0,0,0-4.16-3.34c-3.76,0-5.18,3.2-5.18,6.54,0,3.17,1.42,6.37,5.18,6.37,2.56,0,4-1.73,4.32-4.27h4c-.43,4.78-3.68,7.79-8.37,7.79-5.87,0-9.37-4.4-9.37-9.89,0-5.66,3.5-10.06,9.37-10.06,4.16,0,7.7,2.46,8.21,6.86Z"/><path class="cls-7" d="M574.62,72.71h4.19V88.23h9.28v3.52H574.62Z"/><path class="cls-7" d="M590.44,72.71h4.19V80.6l7.44-7.89h5.23l-7.44,7.52L608,91.75h-5.26L597,83.19l-2.4,2.42v6.14h-4.19Z"/></g><polygon class="cls-8" points="504.56 114.93 472.58 114.93 456.58 132.41 472.58 149.86 504.56 149.86 520.54 132.41 504.56 114.93"/><rect class="cls-8" x="591.5" y="114.93" width="29.68" height="34.92" rx="4.94"/><polygon class="cls-8" points="621.18 122.09 601.42 114.93 504.87 114.93 456.58 132.41 504.87 149.86 601.42 149.86 621.18 142.71 621.18 122.09"/><g class="cls-6"><path class="cls-7" d="M485,134.6c0,2.53,2,3.52,4.21,3.52,1.47,0,3.71-.43,3.71-2.38s-2.88-2.37-5.65-3.14-5.69-1.9-5.69-5.42c0-3.92,3.69-5.76,7.13-5.76,4,0,7.62,1.73,7.62,6.14h-4.05c-.13-2.27-1.73-2.89-3.76-2.89-1.33,0-2.88.56-2.88,2.17s.91,1.68,5.68,2.88c1.41.32,5.65,1.25,5.65,5.54,0,3.5-2.72,6.11-7.92,6.11-4.21,0-8.18-2.08-8.1-6.77Z"/><path class="cls-7" d="M499.45,121.87H508c4.77,0,6.59,3,6.59,6.11s-1.82,6.11-6.59,6.11h-4.4v6.83h-4.19Zm4.19,9h3.25c1.92,0,3.68-.43,3.68-2.86s-1.76-2.85-3.68-2.85h-3.25Z"/><path class="cls-7" d="M517.25,121.87h4.18v19h-4.18Z"/><path class="cls-7" d="M523.28,142.92h13.33v1.33H523.28Z"/><path class="cls-7" d="M538.46,121.87h5.89L548.8,135h.06l4.21-13.1H559v19h-3.92v-13.5H555l-4.67,13.5H547.1l-4.67-13.36h0v13.36h-3.92Z"/><path class="cls-7" d="M571.19,121.42c5.87,0,9.36,4.4,9.36,10.06,0,5.49-3.49,9.89-9.36,9.89s-9.36-4.4-9.36-9.89C561.83,125.82,565.32,121.42,571.19,121.42Zm0,16.43c3.76,0,5.17-3.2,5.17-6.37,0-3.34-1.41-6.54-5.17-6.54s-5.17,3.2-5.17,6.54C566,134.65,567.43,137.85,571.19,137.85Z"/><path class="cls-7" d="M586.27,134.6c0,2.53,2,3.52,4.21,3.52,1.47,0,3.71-.43,3.71-2.38s-2.88-2.37-5.66-3.14-5.68-1.9-5.68-5.42c0-3.92,3.68-5.76,7.12-5.76,4,0,7.63,1.73,7.63,6.14h-4.05c-.14-2.27-1.74-2.89-3.76-2.89-1.34,0-2.88.56-2.88,2.17s.9,1.68,5.68,2.88c1.41.32,5.65,1.25,5.65,5.54,0,3.5-2.72,6.11-7.92,6.11-4.21,0-8.19-2.08-8.11-6.77Z"/><path class="cls-7" d="M600.73,121.87h4.18v19h-4.18Z"/></g><polygon class="cls-8" points="504.56 451.96 472.58 451.96 456.58 469.43 472.58 486.88 504.56 486.88 520.54 469.43 504.56 451.96"/><rect class="cls-8" x="591.5" y="451.96" width="29.68" height="34.92" rx="4.94"/><polygon class="cls-8" points="621.18 459.11 601.42 451.96 504.87 451.96 456.58 469.43 504.87 486.88 601.42 486.88 621.18 479.74 621.18 459.11"/><g class="cls-6"><path class="cls-7" d="M485,471.62c0,2.54,2,3.52,4.21,3.52,1.47,0,3.71-.42,3.71-2.37s-2.88-2.37-5.65-3.15-5.69-1.89-5.69-5.41c0-3.92,3.69-5.76,7.13-5.76,4,0,7.62,1.73,7.62,6.13h-4.05c-.13-2.27-1.73-2.88-3.76-2.88-1.33,0-2.88.56-2.88,2.16s.91,1.68,5.68,2.88c1.41.32,5.65,1.25,5.65,5.55,0,3.49-2.72,6.11-7.92,6.11-4.21,0-8.18-2.08-8.1-6.78Z"/><path class="cls-7" d="M499.45,458.9H508c4.77,0,6.59,3,6.59,6.11s-1.82,6.1-6.59,6.1h-4.4v6.83h-4.19Zm4.19,9h3.25c1.92,0,3.68-.43,3.68-2.85s-1.76-2.86-3.68-2.86h-3.25Z"/><path class="cls-7" d="M517.25,458.9h4.18v19h-4.18Z"/><path class="cls-7" d="M523.28,479.94h13.33v1.34H523.28Z"/><path class="cls-7" d="M538.46,458.9h5.89L548.8,472h.06l4.21-13.1H559v19h-3.92V464.45H555l-4.67,13.49H547.1l-4.67-13.36h0v13.36h-3.92Z"/><path class="cls-7" d="M562.65,458.9h4.19v19h-4.19Z"/><path class="cls-7" d="M573.38,471.62c0,2.54,2,3.52,4.21,3.52,1.47,0,3.71-.42,3.71-2.37s-2.88-2.37-5.65-3.15-5.69-1.89-5.69-5.41c0-3.92,3.69-5.76,7.13-5.76,4,0,7.62,1.73,7.62,6.13h-4.05c-.13-2.27-1.73-2.88-3.76-2.88-1.33,0-2.88.56-2.88,2.16s.91,1.68,5.68,2.88c1.41.32,5.65,1.25,5.65,5.55,0,3.49-2.72,6.11-7.92,6.11-4.21,0-8.19-2.08-8.11-6.78Z"/><path class="cls-7" d="M596.38,458.45c5.86,0,9.36,4.4,9.36,10.05s-3.5,9.9-9.36,9.9S587,474,587,468.5,590.51,458.45,596.38,458.45Zm0,16.43c3.76,0,5.17-3.2,5.17-6.38s-1.41-6.53-5.17-6.53-5.18,3.2-5.18,6.53S592.61,474.88,596.38,474.88Z"/></g><polygon class="cls-8" points="535.79 502.43 503.81 502.43 487.81 519.91 503.81 537.36 535.79 537.36 551.76 519.91 535.79 502.43"/><rect class="cls-8" x="591.5" y="502.43" width="29.68" height="34.92" rx="4.94"/><polygon class="cls-8" points="621.18 509.59 605.9 502.43 531.26 502.43 493.94 519.91 531.26 537.36 605.9 537.36 621.18 530.21 621.18 509.59"/><g class="cls-6"><path class="cls-7" d="M514.76,522.1c0,2.53,2,3.52,4.21,3.52,1.47,0,3.71-.43,3.71-2.37s-2.88-2.38-5.65-3.15-5.69-1.9-5.69-5.42c0-3.92,3.69-5.76,7.13-5.76,4,0,7.62,1.74,7.62,6.14H522c-.13-2.27-1.73-2.88-3.76-2.88-1.33,0-2.88.56-2.88,2.16s.91,1.68,5.68,2.88c1.41.32,5.65,1.25,5.65,5.55,0,3.49-2.72,6.1-7.92,6.1-4.21,0-8.19-2.08-8.11-6.77Z"/><path class="cls-7" d="M529.22,509.38h8.59c4.77,0,6.59,3,6.59,6.1s-1.82,6.11-6.59,6.11h-4.4v6.83h-4.19Zm4.19,9h3.25c1.92,0,3.68-.43,3.68-2.86s-1.76-2.85-3.68-2.85h-3.25Z"/><path class="cls-7" d="M547,509.38h4.18v19H547Z"/><path class="cls-7" d="M553,530.42h13.34v1.33H553Z"/><path class="cls-7" d="M580.92,515.78a4.15,4.15,0,0,0-4.16-3.34c-3.76,0-5.17,3.2-5.17,6.54,0,3.17,1.41,6.37,5.17,6.37,2.56,0,4-1.73,4.32-4.27h4.06c-.43,4.78-3.69,7.79-8.38,7.79-5.87,0-9.36-4.4-9.36-9.89,0-5.66,3.49-10.06,9.36-10.06,4.16,0,7.71,2.46,8.22,6.86Z"/><path class="cls-7" d="M590.85,522.1c0,2.53,2,3.52,4.21,3.52,1.47,0,3.71-.43,3.71-2.37s-2.88-2.38-5.65-3.15-5.68-1.9-5.68-5.42c0-3.92,3.68-5.76,7.12-5.76,4,0,7.63,1.74,7.63,6.14h-4.06c-.13-2.27-1.73-2.88-3.76-2.88-1.33,0-2.88.56-2.88,2.16s.91,1.68,5.68,2.88c1.41.32,5.65,1.25,5.65,5.55,0,3.49-2.72,6.1-7.92,6.1-4.21,0-8.18-2.08-8.11-6.77Z"/></g><g class="cls-6"><path class="cls-7" d="M531.12,265.49h4.18v7.31H543v-7.31h4.19v19H543v-8.21H535.3v8.21h-4.18Z"/><path class="cls-7" d="M559.42,265c5.87,0,9.36,4.4,9.36,10s-3.49,9.9-9.36,9.9-9.36-4.4-9.36-9.9S553.55,265,559.42,265Zm0,16.43c3.76,0,5.17-3.2,5.17-6.38s-1.41-6.53-5.17-6.53-5.17,3.2-5.17,6.53S555.66,281.47,559.42,281.47Z"/><path class="cls-7" d="M571.64,265.49h4.19V281h9.28v3.52H571.64Z"/><path class="cls-7" d="M587.46,265.49h8.22c4.93,0,8.64,3.12,8.64,9.41,0,5.53-2.83,9.63-8.64,9.63h-8.22ZM591.65,281h3.73c2.43,0,4.75-1.49,4.75-5.7,0-3.85-1.36-6.3-5.49-6.3h-3Z"/></g><rect class="cls-5" x="627.05" y="17.91" width="44.63" height="34.92" rx="4.24"/><rect class="cls-8" x="627.05" y="65.68" width="44.63" height="34.92" rx="4.24"/><rect class="cls-8" x="627.05" y="114.93" width="44.63" height="34.92" rx="4.24"/><rect class="cls-9" x="627.05" y="164.16" width="44.63" height="34.92" rx="4.24"/><rect class="cls-4" x="627.05" y="211.24" width="44.63" height="34.92" rx="4.24"/><rect class="cls-4" x="627.05" y="258.35" width="44.63" height="34.92" rx="4.24"/><rect class="cls-9" x="627.05" y="307.02" width="44.63" height="34.92" rx="4.24"/><rect class="cls-3" x="627.05" y="354.84" width="44.63" height="34.92" rx="4.24"/><rect class="cls-9" x="627.05" y="403.09" width="44.63" height="34.92" rx="4.24"/><rect class="cls-8" x="627.05" y="451.96" width="44.63" height="34.92" rx="4.24"/><rect class="cls-8" x="627.05" y="502.43" width="44.63" height="34.92" rx="4.24"/><rect class="cls-9" x="627.05" y="549.81" width="44.63" height="34.92" rx="4.24"/><rect class="cls-9" x="685.06" y="17.91" width="44.63" height="34.92" rx="4.24"/><rect class="cls-8" x="685.06" y="65.68" width="44.63" height="34.92" rx="4.24"/><rect class="cls-8" x="685.06" y="114.93" width="44.63" height="34.92" rx="4.24"/><rect class="cls-9" x="685.06" y="164.16" width="44.63" height="34.92" rx="4.24"/><rect class="cls-3" x="685.06" y="211.24" width="44.63" height="34.92" rx="4.24"/><rect class="cls-9" x="685.06" y="258.35" width="44.63" height="34.92" rx="4.24"/><rect class="cls-4" x="685.06" y="307.02" width="44.63" height="34.92" rx="4.24"/><rect class="cls-4" x="685.06" y="354.84" width="44.63" height="34.92" rx="4.24"/><rect class="cls-9" x="685.06" y="403.09" width="44.63" height="34.92" rx="4.24"/><rect class="cls-8" x="685.06" y="451.96" width="44.63" height="34.92" rx="4.24"/><rect class="cls-8" x="685.06" y="502.43" width="44.63" height="34.92" rx="4.24"/><rect class="cls-5" x="685.06" y="549.81" width="44.63" height="34.92" rx="4.24"/><g class="cls-6"><path class="cls-7" d="M641.81,35.39c-.14-4.27,2.29-7.55,6.77-7.55,3.41,0,6.4,2.19,6.4,5.84,0,5.66-6,6.11-8.72,10h8.83v3.25H641.38c0-4.34,2.67-6.13,5.89-8.34,1.63-1.15,3.92-2.27,3.92-4.56a2.69,2.69,0,0,0-2.8-2.89c-2.24,0-3,2.33-3,4.3Z"/></g><g class="cls-6"><path class="cls-7" d="M711.52,46.88h-4.26V33.29H702V30.08c3,.09,5.66-1,6.14-4.16h3.39Z"/></g><g class="cls-6"><path class="cls-7" d="M706.6,82.18c1.83.15,4.47-.21,4.47-2.6a2.77,2.77,0,0,0-3-2.79c-2.16,0-3.26,1.59-3.23,3.75h-4c.15-4.32,2.91-7.25,7.25-7.25,3.36,0,7,2.06,7,5.81a4.17,4.17,0,0,1-2.94,4.28v.06a4.67,4.67,0,0,1,3.72,4.76c0,4.41-3.72,6.89-7.79,6.89-4.7,0-7.88-2.81-7.79-7.64h4.05c.09,2.28,1.22,4.14,3.68,4.14a3.23,3.23,0,0,0,3.42-3.3c0-3.17-2.79-3.11-4.86-3.11Z"/></g><g class="cls-6"><path class="cls-7" d="M714.75,126.45h-8.66l-.83,4.76.06.06a5.3,5.3,0,0,1,4.1-1.62c4.13,0,6.47,3.21,6.47,7.13a7.6,7.6,0,0,1-7.79,7.55c-4.07,0-7.7-2.25-7.79-6.65h4.26a3.33,3.33,0,0,0,3.44,3.14,3.79,3.79,0,0,0,3.63-4,3.6,3.6,0,0,0-3.63-3.92,3.46,3.46,0,0,0-3.2,1.67H701L703,122.94h11.71Z"/></g><g class="cls-6"><path class="cls-7" d="M704.81,233.42a3,3,0,0,0,2.81,2.61c3.12,0,3.87-4.07,4-6.38l-.06-.06a5.28,5.28,0,0,1-4.74,2.34,6.7,6.7,0,0,1-4.82-2.16,7.16,7.16,0,0,1-1.62-4.67c0-4.29,2.94-7.67,7.34-7.67,6.35,0,8.06,5.54,8.06,10.84,0,5.15-2.28,11-8.24,11-3.62,0-6.32-2.09-6.8-5.81Zm6.44-8.59c0-2-1.23-3.9-3.39-3.9s-3.2,1.92-3.2,3.84,1,3.95,3.2,3.95S711.25,226.89,711.25,224.83Z"/></g><g class="cls-6"><path class="cls-7" d="M703.19,286.6h-4.26V273h-5.27v-3.2c3,.09,5.66-1,6.14-4.17h3.39Z"/><path class="cls-7" d="M719.84,286.6h-4.25V273h-5.27v-3.2c3,.09,5.66-1,6.14-4.17h3.38Z"/></g><g class="cls-6"><path class="cls-7" d="M703.19,432.15h-4.26V418.56h-5.27v-3.21c3,.09,5.66-1,6.14-4.16h3.39Z"/><path class="cls-7" d="M723.59,414.84c-4.41,3.87-6.77,11.71-6.86,17.31h-4.56a30.65,30.65,0,0,1,7-17h-9.94v-3.95h14.32Z"/></g><g class="cls-6"><path class="cls-7" d="M703.19,481h-4.26v-13.6h-5.27v-3.21c3,.09,5.66-.95,6.14-4.16h3.39Z"/><path class="cls-7" d="M713.13,475.56a3,3,0,0,0,2.82,2.6c3.11,0,3.86-4.07,4-6.38l-.06-.06a5.25,5.25,0,0,1-4.73,2.34,6.69,6.69,0,0,1-4.82-2.16,7.14,7.14,0,0,1-1.62-4.67c0-4.28,2.94-7.67,7.34-7.67,6.35,0,8.06,5.54,8.06,10.84s-2.28,11-8.24,11c-3.63,0-6.32-2.1-6.8-5.81Zm6.44-8.6c0-1.95-1.22-3.89-3.38-3.89S713,465,713,466.9s1,4,3.21,4S719.57,469,719.57,467Z"/></g><g class="cls-6"><path class="cls-7" d="M692.55,518c-.15-4.8,2.58-8.48,7.61-8.48,3.84,0,7.19,2.46,7.19,6.56,0,6.35-6.74,6.86-9.79,11.17h9.91v3.66h-15.4c0-4.89,3-6.89,6.62-9.38,1.83-1.29,4.41-2.54,4.41-5.12a3,3,0,0,0-3.15-3.24c-2.51,0-3.32,2.61-3.32,4.83Z"/><path class="cls-7" d="M719.84,530.93h-4.25v-13.6h-5.27v-3.21c3,.09,5.66-1,6.14-4.16h3.38Z"/></g><g class="cls-6"><path class="cls-7" d="M692.55,566c-.15-4.79,2.58-8.47,7.61-8.47,3.84,0,7.19,2.45,7.19,6.56,0,6.35-6.74,6.85-9.79,11.17h9.91V579h-15.4c0-4.88,3-6.89,6.62-9.37,1.83-1.29,4.41-2.55,4.41-5.12a3,3,0,0,0-3.15-3.24c-2.51,0-3.32,2.61-3.32,4.82Z"/><path class="cls-7" d="M714.93,566.46c1.83.15,4.46-.21,4.46-2.6a2.76,2.76,0,0,0-3-2.79c-2.16,0-3.27,1.59-3.24,3.75h-4c.15-4.32,2.91-7.25,7.25-7.25,3.35,0,7,2.06,7,5.81a4.17,4.17,0,0,1-2.94,4.28v.06a4.67,4.67,0,0,1,3.72,4.76c0,4.41-3.72,6.89-7.79,6.89-4.7,0-7.88-2.81-7.79-7.64h4c.09,2.28,1.23,4.14,3.69,4.14a3.23,3.23,0,0,0,3.41-3.3c0-3.17-2.78-3.11-4.85-3.11Z"/></g><g class="cls-6"><path class="cls-7" d="M649.14,90.35h-7.89V86.88L649.35,76h3.39V87.23h2.48v3.12h-2.48v4.32h-3.6Zm0-9.6h-.08l-4.83,6.48h4.91Z"/></g><rect class="cls-5" x="736.37" y="549.81" width="29.68" height="34.92" rx="4.94"/><g class="cls-6"><path class="cls-7" d="M643.86,286.6h-3.79V274.49h-4.69v-2.85c2.64.08,5-.86,5.46-3.71h3Z"/><path class="cls-7" d="M649.22,275.1c-.13-4.26,2.3-7.54,6.78-7.54,3.41,0,6.4,2.18,6.4,5.84,0,5.65-6,6.1-8.72,10h8.83v3.25H648.8c0-4.35,2.66-6.14,5.89-8.35,1.63-1.15,3.92-2.27,3.92-4.56a2.68,2.68,0,0,0-2.8-2.88c-2.24,0-3,2.32-3,4.29Z"/></g><g class="cls-6"><path class="cls-7" d="M643.86,383.81h-3.79V371.7h-4.69v-2.85c2.64.08,5-.85,5.46-3.71h3Z"/><path class="cls-7" d="M658.58,369.94a2.67,2.67,0,0,0-2.5-2.32c-2.72,0-3.5,3.63-3.58,5.68l.06.06a4.68,4.68,0,0,1,4.21-2.08,6,6,0,0,1,4.3,1.92,6.38,6.38,0,0,1,1.44,4.16,6.5,6.5,0,0,1-6.54,6.83c-5.65,0-7.17-4.94-7.17-9.66s2-9.76,7.33-9.76a5.7,5.7,0,0,1,6.06,5.17Zm-5.73,7.66a3.21,3.21,0,0,0,3,3.47c1.82,0,2.86-1.71,2.86-3.42s-.91-3.52-2.86-3.52S652.85,375.76,652.85,377.6Z"/></g><g class="cls-6"><path class="cls-7" d="M643.86,432.15h-3.79v-12.1h-4.69v-2.86c2.64.08,5-.85,5.47-3.71h3Z"/><path class="cls-7" d="M655.68,413.11c4.64,0,6.24,3.2,6.24,5a3.91,3.91,0,0,1-2.72,3.92v.05a4.34,4.34,0,0,1,3.49,4.56c0,3.95-3.49,5.87-7,5.87s-7.1-1.82-7.1-5.84a4.41,4.41,0,0,1,3.52-4.59v-.05a3.73,3.73,0,0,1-2.75-3.84C649.38,414.84,652.64,413.11,655.68,413.11Zm0,16.56a3.07,3.07,0,0,0,3.2-3.14,3,3,0,0,0-3.2-3c-1.84,0-3.31,1-3.31,3A3.14,3.14,0,0,0,655.71,429.67Zm0-8.66c1.57,0,2.8-.86,2.8-2.46a2.48,2.48,0,0,0-2.8-2.59,2.61,2.61,0,0,0-2.85,2.59C652.83,420.15,654.16,421,655.68,421Z"/></g><g class="cls-6"><path class="cls-7" d="M634.39,519.43c-.13-4.27,2.29-7.55,6.77-7.55,3.42,0,6.41,2.19,6.41,5.84,0,5.66-6,6.11-8.73,9.95h8.83v3.26H634c0-4.35,2.67-6.14,5.9-8.35,1.62-1.15,3.92-2.27,3.92-4.56a2.68,2.68,0,0,0-2.8-2.88c-2.24,0-3,2.32-3,4.29Z"/><path class="cls-7" d="M649.22,519.43c-.13-4.27,2.3-7.55,6.78-7.55,3.41,0,6.4,2.19,6.4,5.84,0,5.66-6,6.11-8.72,9.95h8.83v3.26H648.8c0-4.35,2.66-6.14,5.89-8.35,1.63-1.15,3.92-2.27,3.92-4.56a2.68,2.68,0,0,0-2.8-2.88c-2.24,0-3,2.32-3,4.29Z"/></g><g class="cls-6"><path class="cls-7" d="M651.17,130a2.68,2.68,0,0,0-2.51-2.32c-2.72,0-3.49,3.63-3.57,5.68l0,0a4.7,4.7,0,0,1,4.21-2.08,6,6,0,0,1,4.3,1.92,6.37,6.37,0,0,1,1.44,4.16,6.48,6.48,0,0,1-6.54,6.83c-5.65,0-7.17-4.93-7.17-9.65s2-9.77,7.33-9.77a5.7,5.7,0,0,1,6.06,5.18Zm-5.74,7.65a3.21,3.21,0,0,0,3,3.47c1.81,0,2.85-1.71,2.85-3.41s-.91-3.52-2.85-3.52S645.43,135.85,645.43,137.69Z"/></g><polygon class="cls-5" points="595.76 17.89 555.2 17.89 534.89 35.36 555.2 52.81 595.76 52.81 616.07 35.36 595.76 17.89"/><g class="cls-6"><path class="cls-7" d="M566.3,41.73a6.43,6.43,0,0,1-5.23,2.62c-5.87,0-9.36-4.4-9.36-9.9,0-5.65,3.49-10.05,9.36-10.05,3.89,0,7.6,2.37,8,6.72h-4a3.89,3.89,0,0,0-4-3.2c-3.76,0-5.18,3.2-5.18,6.53s1.42,6.38,5.18,6.38c2.75,0,4.29-1.44,4.53-4.11h-4.21V33.6h8V43.9h-2.67Z"/><path class="cls-7" d="M572.78,24.85h4.16l7.95,12.78H585V24.85h3.92v19h-4.19l-7.92-12.75h-.06V43.9h-3.92Z"/><path class="cls-7" d="M592.55,24.85h8.22c4.93,0,8.64,3.12,8.64,9.42,0,5.52-2.83,9.63-8.64,9.63h-8.22Zm4.19,15.52h3.73c2.43,0,4.75-1.49,4.75-5.7,0-3.84-1.36-6.3-5.49-6.3h-3Z"/></g><polygon class="cls-3" points="583.01 354.82 542.44 354.82 522.13 372.31 542.44 389.74 583.01 389.74 603.31 372.31 583.01 354.82"/><rect class="cls-3" x="736.18" y="211.24" width="29.68" height="34.92" rx="4.94"/><rect class="cls-3" x="743.2" y="211.24" width="70.05" height="34.92"/><polygon class="cls-3" points="754 228.74 774.31 246.17 814.88 246.17 835.19 228.74 814.88 211.25 774.31 211.25 754 228.74"/><g class="cls-6"><path class="cls-7" d="M556.79,369.69c1.63.14,4-.18,4-2.32a2.46,2.46,0,0,0-2.64-2.48c-1.92,0-2.9,1.42-2.88,3.34h-3.6c.14-3.84,2.59-6.46,6.46-6.46,3,0,6.26,1.84,6.26,5.18a3.71,3.71,0,0,1-2.61,3.81v.05a4.17,4.17,0,0,1,3.31,4.24c0,3.92-3.31,6.14-6.94,6.14-4.18,0-7-2.51-6.93-6.8h3.6c.08,2,1.09,3.68,3.28,3.68a2.87,2.87,0,0,0,3-2.94c0-2.82-2.48-2.77-4.32-2.77Z"/><path class="cls-7" d="M576.24,380.82h-4.72l-6.19-19.05h4.32l4.24,13.39h.05l4.3-13.39h4.32Z"/><path class="cls-7" d="M588.43,369.69c1.63.14,4-.18,4-2.32a2.47,2.47,0,0,0-2.64-2.48c-1.93,0-2.91,1.42-2.89,3.34h-3.6c.14-3.84,2.59-6.46,6.46-6.46,3,0,6.27,1.84,6.27,5.18a3.71,3.71,0,0,1-2.62,3.81v.05a4.16,4.16,0,0,1,3.31,4.24c0,3.92-3.31,6.14-6.93,6.14-4.19,0-7-2.51-6.94-6.8h3.6c.08,2,1.1,3.68,3.28,3.68a2.87,2.87,0,0,0,3-2.94c0-2.82-2.48-2.77-4.32-2.77Z"/></g><g class="cls-6"><path class="cls-7" d="M757.1,226.42c1.63.13,4-.19,4-2.32a2.47,2.47,0,0,0-2.64-2.48c-1.92,0-2.91,1.41-2.88,3.33H752c.13-3.84,2.58-6.45,6.45-6.45,3,0,6.27,1.84,6.27,5.17a3.72,3.72,0,0,1-2.61,3.82v0a4.15,4.15,0,0,1,3.3,4.24c0,3.92-3.3,6.14-6.93,6.14-4.19,0-7-2.51-6.94-6.8h3.6c.08,2,1.1,3.68,3.28,3.68a2.88,2.88,0,0,0,3-2.94c0-2.82-2.49-2.77-4.33-2.77Z"/><path class="cls-7" d="M776.55,237.54h-4.72l-6.19-19H770l4.25,13.39h0l4.29-13.39h4.32Z"/><path class="cls-7" d="M788.75,226.42c1.62.13,4-.19,4-2.32a2.46,2.46,0,0,0-2.64-2.48c-1.92,0-2.91,1.41-2.88,3.33h-3.6c.13-3.84,2.59-6.45,6.45-6.45,3,0,6.27,1.84,6.27,5.17a3.72,3.72,0,0,1-2.61,3.82v0a4.15,4.15,0,0,1,3.3,4.24c0,3.92-3.3,6.14-6.93,6.14-4.19,0-7-2.51-6.93-6.8h3.6c.08,2,1.09,3.68,3.28,3.68a2.88,2.88,0,0,0,3-2.94c0-2.82-2.48-2.77-4.32-2.77Z"/></g><polygon class="cls-5" points="762.04 549.81 802.59 549.81 822.89 567.28 802.59 584.73 762.04 584.73 741.73 567.28 762.04 549.81"/><g class="cls-6"><path class="cls-7" d="M762.41,573.64a6.4,6.4,0,0,1-5.23,2.61c-5.86,0-9.36-4.4-9.36-9.89,0-5.66,3.5-10.06,9.36-10.06,3.9,0,7.6,2.37,8,6.72h-4a3.89,3.89,0,0,0-4-3.2c-3.76,0-5.17,3.2-5.17,6.54,0,3.17,1.41,6.37,5.17,6.37,2.75,0,4.3-1.44,4.54-4.11H757.5V565.5h8v10.3h-2.66Z"/><path class="cls-7" d="M768.9,556.75h4.16l8,12.78h0V556.75H785v19h-4.19l-7.92-12.75h0V575.8H768.9Z"/><path class="cls-7" d="M788.67,556.75h8.21c4.94,0,8.64,3.12,8.64,9.42,0,5.52-2.82,9.63-8.64,9.63h-8.21Zm4.19,15.53h3.73c2.43,0,4.75-1.5,4.75-5.71,0-3.84-1.36-6.29-5.5-6.29h-3Z"/></g><g class="cls-6"><path class="cls-7" d="M648.26,172.84c4.64,0,6.24,3.2,6.24,5a3.9,3.9,0,0,1-2.72,3.92v.06a4.34,4.34,0,0,1,3.5,4.56c0,4-3.5,5.87-7,5.87s-7.1-1.82-7.1-5.85a4.41,4.41,0,0,1,3.52-4.58v-.06a3.72,3.72,0,0,1-2.74-3.84C642,174.57,645.22,172.84,648.26,172.84Zm0,16.56a3.07,3.07,0,0,0,3.2-3.15,3,3,0,0,0-3.2-3c-1.84,0-3.31,1-3.31,3A3.14,3.14,0,0,0,648.29,189.4Zm0-8.67c1.57,0,2.8-.85,2.8-2.45a2.48,2.48,0,0,0-2.8-2.59,2.61,2.61,0,0,0-2.85,2.59C645.41,179.88,646.74,180.73,648.26,180.73Z"/></g><rect class="cls-9" x="736.43" y="17.91" width="29.68" height="34.92" rx="4.94"/><g class="cls-6"><path class="cls-7" d="M643.86,238.81h-3.79v-12.1h-4.69v-2.86c2.64.08,5-.85,5.47-3.71h3Z"/><path class="cls-7" d="M655.63,219.77c3.73,0,6.88,2.35,6.88,9.63,0,7.44-3.15,9.79-6.88,9.79s-6.83-2.35-6.83-9.79C648.8,222.12,651.92,219.77,655.63,219.77Zm0,16.3c3.09,0,3.09-4.56,3.09-6.67,0-2,0-6.51-3.09-6.51s-3,4.56-3,6.51C652.59,231.51,652.59,236.07,655.63,236.07Z"/></g><g class="cls-6"><path class="cls-7" d="M643.86,335.84h-3.79V323.73h-4.69v-2.85c2.64.08,5-.86,5.46-3.71h3Z"/><path class="cls-7" d="M656.56,331.52h-7.9v-3.47l8.11-10.88h3.39V328.4h2.48v3.12h-2.48v4.32h-3.6Zm0-9.6h-.08l-4.83,6.48h4.91Z"/></g><g class="cls-6"><path class="cls-7" d="M634.39,469.45c-.13-4.27,2.29-7.55,6.77-7.55,3.42,0,6.41,2.19,6.41,5.84,0,5.66-6,6.11-8.73,9.95h8.83V481H634c0-4.35,2.67-6.14,5.9-8.35,1.62-1.15,3.92-2.27,3.92-4.56a2.68,2.68,0,0,0-2.8-2.88c-2.24,0-3,2.32-3,4.29Z"/><path class="cls-7" d="M655.62,461.9c3.74,0,6.89,2.35,6.89,9.63,0,7.44-3.15,9.79-6.89,9.79s-6.82-2.35-6.82-9.79C648.8,464.25,651.92,461.9,655.62,461.9Zm0,16.3c3.1,0,3.1-4.56,3.1-6.67,0-1.94,0-6.51-3.1-6.51s-3,4.57-3,6.51C652.58,473.64,652.58,478.2,655.62,478.2Z"/></g><g class="cls-6"><path class="cls-7" d="M634.39,567.26c-.13-4.27,2.29-7.55,6.78-7.55,3.41,0,6.4,2.19,6.4,5.84,0,5.65-6,6.11-8.72,10h8.82v3.25H634c0-4.35,2.67-6.13,5.9-8.35,1.63-1.14,3.92-2.26,3.92-4.56A2.68,2.68,0,0,0,641,563c-2.24,0-3,2.32-3,4.3Z"/><path class="cls-7" d="M656.56,574.43h-7.9V571l8.11-10.88h3.39v11.23h2.48v3.12h-2.48v4.32h-3.6Zm0-9.6h-.08l-4.83,6.48h4.91Z"/></g><g class="cls-6"><path class="cls-7" d="M715.26,174.57c-4.4,3.86-6.77,11.71-6.86,17.31h-4.55a30.58,30.58,0,0,1,7-17h-9.95v-4h14.32Z"/></g><polygon class="cls-9" points="788.8 17.91 753.68 17.91 736.12 35.38 753.68 52.83 788.8 52.83 806.39 35.38 788.8 17.91"/><g class="cls-6"><path class="cls-7" d="M747.6,24.85h4.16l8,12.78h0V24.85h3.92v19H759.5l-7.93-12.74h-.05V43.89H747.6Z"/><path class="cls-7" d="M780.07,31.25a4.17,4.17,0,0,0-4.17-3.33c-3.76,0-5.17,3.2-5.17,6.53s1.41,6.38,5.17,6.38c2.57,0,4-1.74,4.33-4.27h4c-.43,4.77-3.68,7.79-8.38,7.79-5.86,0-9.36-4.4-9.36-9.9,0-5.65,3.5-10.05,9.36-10.05,4.17,0,7.71,2.45,8.22,6.85Z"/></g><rect class="cls-9" x="591.42" y="164.15" width="29.68" height="34.92" rx="4.94"/><polygon class="cls-9" points="568.45 164.17 603.57 164.17 621.16 181.64 603.57 199.09 568.45 199.09 550.89 181.64 568.45 164.17"/><g class="cls-6"><path class="cls-7" d="M573.82,171.11H578l7.94,12.77H586V171.11h3.92v19h-4.19L577.8,177.4h0v12.75h-3.93Z"/><path class="cls-7" d="M606.29,177.51a4.16,4.16,0,0,0-4.16-3.33c-3.76,0-5.18,3.2-5.18,6.53,0,3.17,1.42,6.38,5.18,6.38,2.56,0,4-1.74,4.32-4.27h4c-.42,4.77-3.68,7.79-8.37,7.79-5.87,0-9.36-4.4-9.36-9.9,0-5.65,3.49-10.05,9.36-10.05,4.16,0,7.71,2.45,8.21,6.85Z"/></g><rect class="cls-4" x="591.42" y="210.98" width="29.68" height="34.92" rx="4.94"/><polygon class="cls-4" points="568.45 210.99 603.57 210.99 621.16 228.46 603.57 245.91 568.45 245.91 550.89 228.46 568.45 210.99"/><g class="cls-6"><path class="cls-7" d="M592,237H587.8l-3.23-13h-.05l-3.17,13h-4.24l-5.05-19h4.19l3,13h.05l3.31-13h3.92l3.25,13.12h.05L593,217.93h4.1Z"/><path class="cls-7" d="M599,217.93h8.59c4.77,0,6.59,3,6.59,6.11s-1.82,6.11-6.59,6.11h-4.4V237H599Zm4.19,9h3.25c1.92,0,3.68-.42,3.68-2.85s-1.76-2.85-3.68-2.85H603.2Z"/></g><rect class="cls-9" x="591.46" y="305.83" width="29.68" height="34.92" rx="4.94"/><polygon class="cls-9" points="568.48 305.86 603.61 305.86 621.19 323.33 603.61 340.76 568.48 340.76 550.92 323.33 568.48 305.86"/><g class="cls-6"><path class="cls-7" d="M573.86,312.79H578l8,12.78h0V312.79h3.92v19h-4.18l-7.93-12.75h-.05v12.75h-3.92Z"/><path class="cls-7" d="M606.32,319.2a4.15,4.15,0,0,0-4.16-3.34c-3.76,0-5.17,3.2-5.17,6.54,0,3.17,1.41,6.37,5.17,6.37,2.57,0,4-1.73,4.33-4.27h4c-.43,4.78-3.68,7.79-8.38,7.79-5.86,0-9.36-4.4-9.36-9.89,0-5.66,3.5-10.06,9.36-10.06,4.16,0,7.71,2.46,8.22,6.86Z"/></g><rect class="cls-9" x="591.46" y="402.33" width="29.68" height="34.92" rx="4.94"/><polygon class="cls-9" points="568.48 402.34 603.61 402.34 621.19 419.81 603.61 437.26 568.48 437.26 550.92 419.81 568.48 402.34"/><g class="cls-6"><path class="cls-7" d="M573.86,409.28H578l8,12.78h0V409.28h3.92v19.05h-4.18l-7.93-12.75h-.05v12.75h-3.92Z"/><path class="cls-7" d="M606.32,415.69a4.15,4.15,0,0,0-4.16-3.34c-3.76,0-5.17,3.2-5.17,6.54,0,3.17,1.41,6.37,5.17,6.37,2.57,0,4-1.73,4.33-4.27h4c-.43,4.78-3.68,7.79-8.38,7.79-5.86,0-9.36-4.4-9.36-9.89,0-5.66,3.5-10.06,9.36-10.06,4.16,0,7.71,2.45,8.22,6.86Z"/></g><rect class="cls-9" x="736.37" y="403.08" width="29.68" height="34.92" rx="4.94"/><rect class="cls-9" x="591.46" y="549.8" width="29.68" height="34.92" rx="4.94"/><polygon class="cls-9" points="568.48 549.81 603.61 549.81 621.19 567.29 603.61 584.74 568.48 584.74 550.92 567.29 568.48 549.81"/><g class="cls-6"><path class="cls-7" d="M573.86,556.76H578l8,12.77h0V556.76h3.92v19h-4.18l-7.93-12.75h-.05V575.8h-3.92Z"/><path class="cls-7" d="M606.32,563.16a4.15,4.15,0,0,0-4.16-3.34c-3.76,0-5.17,3.2-5.17,6.54,0,3.17,1.41,6.37,5.17,6.37,2.57,0,4-1.73,4.33-4.27h4c-.43,4.78-3.68,7.79-8.38,7.79-5.86,0-9.36-4.4-9.36-9.89,0-5.66,3.5-10.06,9.36-10.06,4.16,0,7.71,2.46,8.22,6.86Z"/></g><polygon class="cls-9" points="788.8 164.05 753.68 164.05 736.12 181.52 753.68 198.95 788.8 198.95 806.39 181.52 788.8 164.05"/><rect class="cls-9" x="736.37" y="164.16" width="29.68" height="34.92" rx="4.94"/><g class="cls-6"><path class="cls-7" d="M747.6,171h4.16l8,12.78h0V171h3.92V190H759.5l-7.93-12.75h-.05V190H747.6Z"/><path class="cls-7" d="M780.07,177.39a4.17,4.17,0,0,0-4.17-3.34c-3.76,0-5.17,3.2-5.17,6.54,0,3.17,1.41,6.37,5.17,6.37,2.57,0,4-1.73,4.33-4.27h4c-.43,4.78-3.68,7.79-8.38,7.79-5.86,0-9.36-4.4-9.36-9.89,0-5.66,3.5-10.06,9.36-10.06,4.17,0,7.71,2.45,8.22,6.86Z"/></g><polygon class="cls-9" points="788.8 259.08 753.68 259.08 736.12 276.55 753.68 293.98 788.8 293.98 806.39 276.55 788.8 259.08"/><rect class="cls-9" x="736.37" y="259.19" width="29.68" height="34.92" rx="4.94"/><g class="cls-6"><path class="cls-7" d="M747.6,266h4.16l8,12.78h0V266h3.92v19.05H759.5l-7.93-12.75h-.05v12.75H747.6Z"/><path class="cls-7" d="M780.07,272.41a4.17,4.17,0,0,0-4.17-3.33c-3.76,0-5.17,3.2-5.17,6.54,0,3.17,1.41,6.37,5.17,6.37,2.57,0,4-1.73,4.33-4.27h4c-.43,4.78-3.68,7.79-8.38,7.79-5.86,0-9.36-4.4-9.36-9.89,0-5.66,3.5-10.06,9.36-10.06,4.17,0,7.71,2.45,8.22,6.85Z"/></g><polygon class="cls-9" points="788.8 403.18 753.68 403.18 736.12 420.65 753.68 438.1 788.8 438.1 806.39 420.65 788.8 403.18"/><g class="cls-6"><path class="cls-7" d="M747.6,410.13h4.16l8,12.77h0V410.13h3.92v19H759.5l-7.93-12.75h-.05v12.75H747.6Z"/><path class="cls-7" d="M780.07,416.53a4.17,4.17,0,0,0-4.17-3.34c-3.76,0-5.17,3.2-5.17,6.54,0,3.17,1.41,6.37,5.17,6.37,2.57,0,4-1.73,4.33-4.27h4c-.43,4.78-3.68,7.79-8.38,7.79-5.86,0-9.36-4.4-9.36-9.89,0-5.66,3.5-10.06,9.36-10.06,4.17,0,7.71,2.46,8.22,6.86Z"/></g><rect class="cls-4" x="736.37" y="356" width="29.68" height="34.92" rx="4.94"/><polygon class="cls-4" points="788.8 356.09 753.68 356.09 736.12 373.56 753.68 391.01 788.8 391.01 806.39 373.56 788.8 356.09"/><g class="cls-6"><path class="cls-7" d="M765.74,382.09h-4.16l-3.23-13h-.05l-3.18,13h-4.24l-5-19H750l3,13h.05l3.31-13h3.92l3.26,13.12h0L766.75,363h4.11Z"/><path class="cls-7" d="M772.79,363h8.58c4.78,0,6.59,3,6.59,6.11s-1.81,6.11-6.59,6.11H777v6.83h-4.18Zm4.18,9h3.26c1.92,0,3.68-.42,3.68-2.85s-1.76-2.85-3.68-2.85H777Z"/></g><g class="cls-6"><path class="cls-7" d="M703.19,335.84h-4.26v-13.6h-5.27V319c3,.09,5.66-1,6.14-4.17h3.39Z"/><path class="cls-7" d="M714.93,323.35c1.83.15,4.46-.21,4.46-2.61a2.76,2.76,0,0,0-3-2.78c-2.16,0-3.27,1.58-3.24,3.74h-4c.15-4.31,2.91-7.25,7.25-7.25,3.35,0,7,2.07,7,5.81a4.18,4.18,0,0,1-2.94,4.29v.06a4.66,4.66,0,0,1,3.72,4.76c0,4.4-3.72,6.89-7.79,6.89-4.7,0-7.88-2.82-7.79-7.64h4c.09,2.28,1.23,4.13,3.69,4.13a3.22,3.22,0,0,0,3.41-3.29c0-3.18-2.78-3.12-4.85-3.12Z"/></g><g class="cls-6"><path class="cls-7" d="M703.19,383.81h-4.26v-13.6h-5.27V367c3,.09,5.66-1,6.14-4.16h3.39Z"/><path class="cls-7" d="M723.08,366.35h-8.66l-.84,4.76.06.06a5.34,5.34,0,0,1,4.11-1.62c4.13,0,6.47,3.21,6.47,7.13a7.59,7.59,0,0,1-7.79,7.55c-4.08,0-7.7-2.25-7.79-6.65h4.25a3.35,3.35,0,0,0,3.45,3.15,3.8,3.8,0,0,0,3.62-4.05,3.61,3.61,0,0,0-3.62-3.92,3.48,3.48,0,0,0-3.21,1.68H709.3l2.07-11.59h11.71Z"/></g></g><g id="_15001" data-name="15001"><path class="cls-10" d="M407,126.35H17.08v92.57H39.82c17.91,0,32.43,14.77,32.43,33s-14.52,33-32.43,33H17.08V513.3H407Z"/><path class="cls-11" d="M303.63,199.82v-3.41a5.63,5.63,0,0,1,5.59-5.69h59.26a5.64,5.64,0,0,1,5.59,5.69v3.41a5.65,5.65,0,0,1-5.59,5.69H309.22a5.64,5.64,0,0,1-5.59-5.69"/><path class="cls-11" d="M303.63,440.4V437a5.63,5.63,0,0,1,5.59-5.69h59.26a5.64,5.64,0,0,1,5.59,5.69v3.41a5.65,5.65,0,0,1-5.59,5.69H309.22a5.64,5.64,0,0,1-5.59-5.69"/><path class="cls-12" d="M355.38,451.85h5.78a5.64,5.64,0,0,0,5.59-5.7V434.39a5.69,5.69,0,0,0-3.54-5.28V209.4a5.68,5.68,0,0,0,3.54-5.28V192.36a5.64,5.64,0,0,0-5.59-5.69h-5.78a5.59,5.59,0,0,0-5.33,4.05H327.72a5.59,5.59,0,0,0-5.33-4.05h-5.78a5.64,5.64,0,0,0-5.59,5.69v11.76a5.66,5.66,0,0,0,3.76,5.35V429a5.68,5.68,0,0,0-3.76,5.35v11.76a5.64,5.64,0,0,0,5.59,5.7h5.78a5.58,5.58,0,0,0,5.17-3.55h22.65a5.58,5.58,0,0,0,5.17,3.55"/><path class="cls-13" d="M319.82,423.14V215.5a2.88,2.88,0,0,1,2.86-2.91H354a2.88,2.88,0,0,1,2.85,2.91V423.14a2.88,2.88,0,0,1-2.85,2.91H322.68a2.88,2.88,0,0,1-2.86-2.91"/><path class="cls-14" d="M91.38,251.79v-3.54c0-28.07-22.36-50.83-49.95-50.83H17.07v21.5H39.82c17.91,0,32.43,14.77,32.43,33s-14.52,33-32.43,33H17.07v17.7H41.43c27.59,0,49.95-22.76,49.95-50.84"/><polygon class="cls-15" points="254.04 396.49 267.81 396.49 267.81 360.73 254.04 360.73 254.04 347.59 267.81 347.59 267.81 308.72 254.04 308.72 254.04 295.59 267.81 295.59 267.81 260.66 254.04 260.66 254.04 246.83 181.87 246.83 181.87 408.81 254.04 408.81 254.04 396.49"/><rect class="cls-1" x="17.08" y="126.35" width="389.94" height="386.95"/><path class="cls-15" d="M149.18,182.85v7L119.47,197v.11l29.71,8v7.09L119.47,220v.11l29.71,7.36v7l-38.85-10.91v-7L140,208.6v-.11l-29.71-8.09v-7.14Z"/><path class="cls-15" d="M138.46,238.28v6.31H110.33v-6.31Zm10.72,0v6.31h-5.87v-6.31Z"/><path class="cls-15" d="M119.36,256.22c-3.64.39-4.89,3.1-4.89,6.48,0,2.43.49,6.53,3.7,6.36s3.64-4.76,4.68-9.35,2.61-9.2,8.32-9.2c6.15,0,8.06,6.76,8.06,12,0,5.87-2.34,11.25-8.66,12v-6.59c3-.61,3.76-3,3.76-5.82,0-1.83-.44-5.2-2.89-5.2-3,0-3.53,4.65-4.51,9.3s-2.67,9.25-8.22,9.25c-6.69,0-9.14-6.87-9.14-12.79,0-7.26,3.16-12.52,9.79-12.69Z"/><path class="cls-15" d="M149.18,280.69V299.3c0,7.53-2.39,12.63-9.63,12.63-3.86,0-6.42-1.89-8.11-5.38-1.36,4.88-5,7.26-9.84,7.26-7.89,0-11.27-6.81-11.27-14V280.69ZM117,289.39v9.3c0,3.38,1.09,6.42,5.12,6.42s5.55-2.49,5.55-6.25v-9.47Zm16.49,0v8.8c0,3.1,1.36,5.32,4.62,5.32,3.65,0,4.47-2.88,4.47-6v-8.14Z"/><path class="cls-15" d="M149.18,319.68v8.69H117.52v19.27h-7.19v-28Z"/><path class="cls-15" d="M150.11,370.23c0,12.19-9,19.44-20.52,19.44-11.2,0-20.18-7.25-20.18-19.44s9-19.43,20.18-19.43C141.13,350.8,150.11,358.05,150.11,370.23Zm-33.52,0c0,7.81,6.53,10.75,13,10.75,6.81,0,13.34-2.94,13.34-10.75s-6.53-10.74-13.34-10.74C123.12,359.49,116.59,362.43,116.59,370.23Z"/><path class="cls-15" d="M136.12,422c3.87-.61,6.81-4.37,6.81-8.63,0-7.81-6.53-10.75-13.34-10.75-6.47,0-13,2.94-13,10.75,0,5.31,3.54,8.3,8.71,9v8.41c-9.74-.88-15.89-7.64-15.89-17.38,0-12.19,9-19.44,20.18-19.44,11.54,0,20.52,7.25,20.52,19.44,0,8.63-5,16-14,17.05Z"/><path class="cls-15" d="M149.18,436.63v8.69h-16.1l16.1,15.45v10.85l-15.34-15.44-23.51,16.94V462.21l17.47-11.9-5-5H110.33v-8.69Z"/><g class="cls-16"><path class="cls-11" d="M386.23,234.16v-6.54a1.74,1.74,0,0,0-1.72-1.76h-5.69a1.74,1.74,0,0,0-1.71,1.66H361.9v6.74h15.21a1.74,1.74,0,0,0,1.71,1.66h5.69a1.74,1.74,0,0,0,1.72-1.76"/><path class="cls-17" d="M356.31,233.36v-8.69a1.38,1.38,0,0,1,1.37-1.39h4.16a1.38,1.38,0,0,1,1.37,1.39v8.69a1.39,1.39,0,0,1-1.37,1.4h-4.16a1.39,1.39,0,0,1-1.37-1.4"/><path class="cls-11" d="M290.45,234.16v-6.54a1.75,1.75,0,0,1,1.73-1.76h5.68a1.73,1.73,0,0,1,1.71,1.66h15.21v6.74H299.57a1.73,1.73,0,0,1-1.71,1.66h-5.68a1.75,1.75,0,0,1-1.73-1.76"/><path class="cls-17" d="M320.37,233.36v-8.69a1.38,1.38,0,0,0-1.37-1.39h-4.16a1.38,1.38,0,0,0-1.37,1.39v8.69a1.39,1.39,0,0,0,1.37,1.4H319a1.39,1.39,0,0,0,1.37-1.4"/><path class="cls-11" d="M386.23,250.09v-6.54a1.73,1.73,0,0,0-1.72-1.75h-5.69a1.73,1.73,0,0,0-1.71,1.66H361.9v6.73h15.21a1.74,1.74,0,0,0,1.71,1.66h5.69a1.74,1.74,0,0,0,1.72-1.76"/><path class="cls-17" d="M356.31,249.3v-8.7a1.38,1.38,0,0,1,1.37-1.39h4.16a1.38,1.38,0,0,1,1.37,1.39v8.7a1.38,1.38,0,0,1-1.37,1.39h-4.16a1.39,1.39,0,0,1-1.37-1.39"/><path class="cls-11" d="M290.45,250.09v-6.54a1.74,1.74,0,0,1,1.73-1.75h5.68a1.73,1.73,0,0,1,1.71,1.66h15.21v6.73H299.57a1.73,1.73,0,0,1-1.71,1.66h-5.68a1.75,1.75,0,0,1-1.73-1.76"/><path class="cls-17" d="M320.37,249.3v-8.7a1.38,1.38,0,0,0-1.37-1.39h-4.16a1.38,1.38,0,0,0-1.37,1.39v8.7a1.39,1.39,0,0,0,1.37,1.39H319a1.38,1.38,0,0,0,1.37-1.39"/><path class="cls-11" d="M386.23,267v-6.55a1.73,1.73,0,0,0-1.72-1.75h-5.69a1.73,1.73,0,0,0-1.71,1.66H361.9v6.73h15.21a1.74,1.74,0,0,0,1.71,1.66h5.69a1.73,1.73,0,0,0,1.72-1.75"/><path class="cls-17" d="M356.31,266.18v-8.7a1.39,1.39,0,0,1,1.37-1.39h4.16a1.38,1.38,0,0,1,1.37,1.39v8.7a1.38,1.38,0,0,1-1.37,1.39h-4.16a1.38,1.38,0,0,1-1.37-1.39"/><path class="cls-11" d="M290.45,267v-6.55a1.74,1.74,0,0,1,1.73-1.75h5.68a1.73,1.73,0,0,1,1.71,1.66h15.21v6.73H299.57a1.73,1.73,0,0,1-1.71,1.66h-5.68a1.74,1.74,0,0,1-1.73-1.75"/><path class="cls-17" d="M320.37,266.18v-8.7a1.38,1.38,0,0,0-1.37-1.39h-4.16a1.39,1.39,0,0,0-1.37,1.39v8.7a1.38,1.38,0,0,0,1.37,1.39H319a1.38,1.38,0,0,0,1.37-1.39"/><path class="cls-11" d="M386.23,283.48v-6.54a1.74,1.74,0,0,0-1.72-1.76h-5.69a1.74,1.74,0,0,0-1.71,1.66H361.9v6.73h15.21a1.73,1.73,0,0,0,1.71,1.66h5.69a1.73,1.73,0,0,0,1.72-1.75"/><path class="cls-17" d="M356.31,282.68V274a1.38,1.38,0,0,1,1.37-1.39h4.16a1.38,1.38,0,0,1,1.37,1.39v8.69a1.38,1.38,0,0,1-1.37,1.39h-4.16a1.38,1.38,0,0,1-1.37-1.39"/><path class="cls-11" d="M290.45,283.48v-6.54a1.74,1.74,0,0,1,1.73-1.76h5.68a1.73,1.73,0,0,1,1.71,1.66h15.21v6.73H299.57a1.73,1.73,0,0,1-1.71,1.66h-5.68a1.74,1.74,0,0,1-1.73-1.75"/><path class="cls-17" d="M320.37,282.68V274A1.38,1.38,0,0,0,319,272.6h-4.16a1.38,1.38,0,0,0-1.37,1.39v8.69a1.38,1.38,0,0,0,1.37,1.39H319a1.38,1.38,0,0,0,1.37-1.39"/><path class="cls-11" d="M386.23,299.55V293a1.73,1.73,0,0,0-1.72-1.75h-5.69a1.73,1.73,0,0,0-1.71,1.66H361.9v6.73h15.21a1.74,1.74,0,0,0,1.71,1.66h5.69a1.74,1.74,0,0,0,1.72-1.76"/><path class="cls-17" d="M356.31,298.76v-8.7a1.38,1.38,0,0,1,1.37-1.39h4.16a1.38,1.38,0,0,1,1.37,1.39v8.7a1.38,1.38,0,0,1-1.37,1.39h-4.16a1.39,1.39,0,0,1-1.37-1.39"/><path class="cls-11" d="M290.45,299.55V293a1.74,1.74,0,0,1,1.73-1.75h5.68a1.73,1.73,0,0,1,1.71,1.66h15.21v6.73H299.57a1.73,1.73,0,0,1-1.71,1.66h-5.68a1.75,1.75,0,0,1-1.73-1.76"/><path class="cls-17" d="M320.37,298.76v-8.7a1.38,1.38,0,0,0-1.37-1.39h-4.16a1.38,1.38,0,0,0-1.37,1.39v8.7a1.39,1.39,0,0,0,1.37,1.39H319a1.38,1.38,0,0,0,1.37-1.39"/><path class="cls-11" d="M386.23,315.49v-6.55a1.73,1.73,0,0,0-1.72-1.75h-5.69a1.74,1.74,0,0,0-1.71,1.66H361.9v6.73h15.21a1.73,1.73,0,0,0,1.71,1.66h5.69a1.73,1.73,0,0,0,1.72-1.75"/><path class="cls-17" d="M356.31,314.69V306a1.39,1.39,0,0,1,1.37-1.4h4.16a1.39,1.39,0,0,1,1.37,1.4v8.69a1.38,1.38,0,0,1-1.37,1.39h-4.16a1.38,1.38,0,0,1-1.37-1.39"/><path class="cls-11" d="M290.45,315.49v-6.55a1.74,1.74,0,0,1,1.73-1.75h5.68a1.73,1.73,0,0,1,1.71,1.66h15.21v6.73H299.57a1.73,1.73,0,0,1-1.71,1.66h-5.68a1.74,1.74,0,0,1-1.73-1.75"/><path class="cls-17" d="M320.37,314.69V306a1.39,1.39,0,0,0-1.37-1.4h-4.16a1.39,1.39,0,0,0-1.37,1.4v8.69a1.38,1.38,0,0,0,1.37,1.39H319a1.38,1.38,0,0,0,1.37-1.39"/><path class="cls-11" d="M386.23,331.61v-6.54a1.74,1.74,0,0,0-1.72-1.76h-5.69a1.74,1.74,0,0,0-1.71,1.66H361.9v6.74h15.21a1.74,1.74,0,0,0,1.71,1.66h5.69a1.74,1.74,0,0,0,1.72-1.76"/><path class="cls-17" d="M356.31,330.81v-8.69a1.38,1.38,0,0,1,1.37-1.39h4.16a1.38,1.38,0,0,1,1.37,1.39v8.69a1.38,1.38,0,0,1-1.37,1.39h-4.16a1.38,1.38,0,0,1-1.37-1.39"/><path class="cls-11" d="M290.45,331.61v-6.54a1.75,1.75,0,0,1,1.73-1.76h5.68a1.73,1.73,0,0,1,1.71,1.66h15.21v6.74H299.57a1.73,1.73,0,0,1-1.71,1.66h-5.68a1.75,1.75,0,0,1-1.73-1.76"/><path class="cls-17" d="M320.37,330.81v-8.69a1.38,1.38,0,0,0-1.37-1.39h-4.16a1.38,1.38,0,0,0-1.37,1.39v8.69a1.38,1.38,0,0,0,1.37,1.39H319a1.38,1.38,0,0,0,1.37-1.39"/><path class="cls-11" d="M386.23,347.92v-6.54a1.74,1.74,0,0,0-1.72-1.76h-5.69a1.74,1.74,0,0,0-1.71,1.66H361.9V348h15.21a1.74,1.74,0,0,0,1.71,1.66h5.69a1.74,1.74,0,0,0,1.72-1.76"/><path class="cls-17" d="M356.31,347.12v-8.69a1.38,1.38,0,0,1,1.37-1.39h4.16a1.38,1.38,0,0,1,1.37,1.39v8.69a1.39,1.39,0,0,1-1.37,1.4h-4.16a1.39,1.39,0,0,1-1.37-1.4"/><path class="cls-11" d="M290.45,347.92v-6.54a1.75,1.75,0,0,1,1.73-1.76h5.68a1.73,1.73,0,0,1,1.71,1.66h15.21V348H299.57a1.73,1.73,0,0,1-1.71,1.66h-5.68a1.75,1.75,0,0,1-1.73-1.76"/><path class="cls-17" d="M320.37,347.12v-8.69A1.38,1.38,0,0,0,319,337h-4.16a1.38,1.38,0,0,0-1.37,1.39v8.69a1.39,1.39,0,0,0,1.37,1.4H319a1.39,1.39,0,0,0,1.37-1.4"/><path class="cls-11" d="M386.23,364.24v-6.55a1.73,1.73,0,0,0-1.72-1.75h-5.69a1.73,1.73,0,0,0-1.71,1.66H361.9v6.73h15.21a1.74,1.74,0,0,0,1.71,1.66h5.69a1.74,1.74,0,0,0,1.72-1.75"/><path class="cls-17" d="M356.31,363.44v-8.7a1.39,1.39,0,0,1,1.37-1.39h4.16a1.38,1.38,0,0,1,1.37,1.39v8.7a1.38,1.38,0,0,1-1.37,1.39h-4.16a1.38,1.38,0,0,1-1.37-1.39"/><path class="cls-11" d="M290.45,364.24v-6.55a1.74,1.74,0,0,1,1.73-1.75h5.68a1.73,1.73,0,0,1,1.71,1.66h15.21v6.73H299.57a1.73,1.73,0,0,1-1.71,1.66h-5.68a1.75,1.75,0,0,1-1.73-1.75"/><path class="cls-17" d="M320.37,363.44v-8.7a1.38,1.38,0,0,0-1.37-1.39h-4.16a1.39,1.39,0,0,0-1.37,1.39v8.7a1.38,1.38,0,0,0,1.37,1.39H319a1.38,1.38,0,0,0,1.37-1.39"/><path class="cls-11" d="M386.23,380.36v-6.54a1.74,1.74,0,0,0-1.72-1.76h-5.69a1.74,1.74,0,0,0-1.71,1.66H361.9v6.73h15.21a1.73,1.73,0,0,0,1.71,1.66h5.69a1.73,1.73,0,0,0,1.72-1.75"/><path class="cls-17" d="M356.31,379.56v-8.69a1.38,1.38,0,0,1,1.37-1.39h4.16a1.38,1.38,0,0,1,1.37,1.39v8.69a1.38,1.38,0,0,1-1.37,1.39h-4.16a1.38,1.38,0,0,1-1.37-1.39"/><path class="cls-11" d="M290.45,380.36v-6.54a1.75,1.75,0,0,1,1.73-1.76h5.68a1.73,1.73,0,0,1,1.71,1.66h15.21v6.73H299.57a1.73,1.73,0,0,1-1.71,1.66h-5.68a1.74,1.74,0,0,1-1.73-1.75"/><path class="cls-17" d="M320.37,379.56v-8.69a1.38,1.38,0,0,0-1.37-1.39h-4.16a1.38,1.38,0,0,0-1.37,1.39v8.69a1.38,1.38,0,0,0,1.37,1.39H319a1.38,1.38,0,0,0,1.37-1.39"/><path class="cls-11" d="M386.23,397.05v-6.54a1.74,1.74,0,0,0-1.72-1.76h-5.69a1.74,1.74,0,0,0-1.71,1.66H361.9v6.74h15.21a1.74,1.74,0,0,0,1.71,1.66h5.69a1.74,1.74,0,0,0,1.72-1.76"/><path class="cls-17" d="M356.31,396.25v-8.69a1.38,1.38,0,0,1,1.37-1.39h4.16a1.38,1.38,0,0,1,1.37,1.39v8.69a1.38,1.38,0,0,1-1.37,1.39h-4.16a1.38,1.38,0,0,1-1.37-1.39"/><path class="cls-11" d="M290.45,397.05v-6.54a1.75,1.75,0,0,1,1.73-1.76h5.68a1.73,1.73,0,0,1,1.71,1.66h15.21v6.74H299.57a1.73,1.73,0,0,1-1.71,1.66h-5.68a1.75,1.75,0,0,1-1.73-1.76"/><path class="cls-17" d="M320.37,396.25v-8.69a1.38,1.38,0,0,0-1.37-1.39h-4.16a1.38,1.38,0,0,0-1.37,1.39v8.69a1.38,1.38,0,0,0,1.37,1.39H319a1.38,1.38,0,0,0,1.37-1.39"/><path class="cls-11" d="M386.23,413.37v-6.54a1.74,1.74,0,0,0-1.72-1.76h-5.69a1.74,1.74,0,0,0-1.71,1.66H361.9v6.73h15.21a1.73,1.73,0,0,0,1.71,1.66h5.69a1.73,1.73,0,0,0,1.72-1.75"/><path class="cls-17" d="M356.31,412.57v-8.69a1.38,1.38,0,0,1,1.37-1.39h4.16a1.38,1.38,0,0,1,1.37,1.39v8.69a1.38,1.38,0,0,1-1.37,1.39h-4.16a1.38,1.38,0,0,1-1.37-1.39"/><path class="cls-11" d="M290.45,413.37v-6.54a1.75,1.75,0,0,1,1.73-1.76h5.68a1.73,1.73,0,0,1,1.71,1.66h15.21v6.73H299.57a1.73,1.73,0,0,1-1.71,1.66h-5.68a1.74,1.74,0,0,1-1.73-1.75"/><path class="cls-17" d="M320.37,412.57v-8.69a1.38,1.38,0,0,0-1.37-1.39h-4.16a1.38,1.38,0,0,0-1.37,1.39v8.69a1.38,1.38,0,0,0,1.37,1.39H319a1.38,1.38,0,0,0,1.37-1.39"/><path class="cls-17" d="M359.76,190.72c1.91,0,3.45,2.69,3.45,6s-1.54,6-3.45,6-3.45-2.69-3.45-6,1.55-6,3.45-6"/><path class="cls-17" d="M317.5,190.72c1.91,0,3.45,2.69,3.45,6s-1.54,6-3.45,6-3.44-2.69-3.44-6,1.54-6,3.44-6"/><path class="cls-17" d="M359.76,434.27c1.91,0,3.45,2.69,3.45,6s-1.54,6-3.45,6-3.45-2.69-3.45-6,1.55-6,3.45-6"/><path class="cls-17" d="M317.5,434.27c1.91,0,3.45,2.69,3.45,6s-1.54,6-3.45,6-3.44-2.69-3.44-6,1.54-6,3.44-6"/><line class="cls-18" x1="294.68" y1="217.9" x2="294.68" y2="205.51"/><polyline class="cls-18" points="294.68 196.72 294.68 179.46 380.67 179.46 380.67 217.9"/><line class="cls-18" x1="380.67" y1="421.05" x2="380.67" y2="433.45"/><polyline class="cls-18" points="380.67 442.24 380.67 459.5 294.68 459.5 294.68 421.05"/></g><rect class="cls-1" x="17.08" y="126.35" width="389.94" height="386.95"/><path class="cls-19" d="M281.09,228.8a3.48,3.48,0,0,1,3.65-3.94c2,0,3.55,1.13,3.55,3.21s-1.34,2.93-2.75,3.82-2.93,1.57-3.18,2.93h5.82V236h-7.4c.2-2.62,1.58-3.61,3.18-4.55,1.92-1.18,2.89-1.84,2.89-3.4a2,2,0,0,0-2.19-2c-1.58,0-2.25,1.43-2.21,2.76Z"/><path class="cls-19" d="M271.82,408.16a3.48,3.48,0,0,1,3.65-3.94c2,0,3.55,1.13,3.55,3.21s-1.34,2.93-2.75,3.81-2.93,1.58-3.18,2.94h5.82v1.18H271.5c.21-2.62,1.59-3.61,3.19-4.55,1.92-1.18,2.89-1.84,2.89-3.4a2,2,0,0,0-2.19-2c-1.58,0-2.25,1.43-2.21,2.76Z"/><path class="cls-19" d="M286.72,411.57h1.53v1.18h-1.53v2.61h-1.28v-2.61h-5v-1.28l5.17-7.25h1.09Zm-1.28,0v-5.45h0l-3.77,5.45Z"/><path class="cls-19" d="M393.47,236h-1.36v-8h-2.94V227c1.55,0,3-.39,3.26-2.09h1Z"/><path class="cls-19" d="M388.48,408a3.47,3.47,0,0,1,3.65-4c2,0,3.55,1.13,3.55,3.21s-1.35,2.94-2.75,3.82-2.93,1.57-3.19,2.94h5.82v1.17h-7.4c.21-2.62,1.58-3.61,3.18-4.55,1.92-1.18,2.9-1.84,2.9-3.4a2.05,2.05,0,0,0-2.19-2c-1.59,0-2.26,1.43-2.21,2.77Z"/><path class="cls-19" d="M400.16,408.81h.59a1.91,1.91,0,0,0,2.16-1.82,1.78,1.78,0,0,0-2-1.79,2.14,2.14,0,0,0-2.14,2.42h-1.36c.08-2.12,1.23-3.6,3.5-3.6,2,0,3.46.93,3.46,3a2.5,2.5,0,0,1-1.57,2.21v0a2.53,2.53,0,0,1,2.05,2.7c0,2.21-1.78,3.39-3.91,3.39-2.3,0-3.82-1.32-3.77-3.63h1.36a2.28,2.28,0,0,0,2.41,2.45,2.25,2.25,0,0,0,2.47-2.15,2.15,2.15,0,0,0-2.42-2.14,6.77,6.77,0,0,0-.81.05Z"/></g></svg>