<svg xmlns="http://www.w3.org/2000/svg" xmlns:xlink="http://www.w3.org/1999/xlink" viewBox="0 0 175.56722 82.2377"><defs><style>.cls-1,.cls-12,.cls-38,.cls-43,.cls-44,.cls-45,.cls-46{fill:none;}.cls-2{fill:#232323;}.cls-3{clip-path:url(#clip-path);}.cls-4{fill:#bf8e3e;}.cls-5{fill:#e2e6e1;}.cls-6{fill:#3d4047;}.cls-7{fill:#3d3e44;}.cls-8{fill:#b6c2cc;}.cls-9{fill:#cce0cf;}.cls-10{clip-path:url(#clip-path-2);}.cls-11{fill:#e5e5e5;}.cls-12,.cls-38,.cls-43,.cls-44,.cls-45,.cls-46{stroke:#fff;stroke-miterlimit:10;}.cls-12{stroke-width:0.36181px;}.cls-13{clip-path:url(#clip-path-3);}.cls-14{fill:#b9752b;}.cls-15{clip-path:url(#clip-path-4);}.cls-16{clip-path:url(#clip-path-5);}.cls-17{clip-path:url(#clip-path-6);}.cls-18{clip-path:url(#clip-path-7);}.cls-19{clip-path:url(#clip-path-8);}.cls-20{clip-path:url(#clip-path-9);}.cls-21{clip-path:url(#clip-path-10);}.cls-22{clip-path:url(#clip-path-11);}.cls-23{clip-path:url(#clip-path-12);}.cls-24{clip-path:url(#clip-path-13);}.cls-25{clip-path:url(#clip-path-14);}.cls-26{clip-path:url(#clip-path-15);}.cls-27{clip-path:url(#clip-path-16);}.cls-28{clip-path:url(#clip-path-17);}.cls-29{clip-path:url(#clip-path-18);}.cls-30{clip-path:url(#clip-path-19);}.cls-31{fill:#fffdf8;}.cls-32{fill:#d1d5d2;}.cls-33{fill:#919492;}.cls-34{fill:#353b3d;}.cls-35{fill:#40484a;}.cls-36{fill:#fff;}.cls-37{fill:#525a5c;}.cls-38{stroke-width:0.6524px;}.cls-39{fill:#bcc1d2;}.cls-40{fill:#a4a9b8;}.cls-41{fill:#eeefeb;}.cls-42{fill:#c1ab8e;}.cls-43{stroke-width:0.63195px;}.cls-44{stroke-width:1.04753px;}.cls-45{stroke-width:1.28376px;}.cls-46{stroke-linecap:round;stroke-width:0.64188px;}.cls-47{fill:#938e95;}.cls-48{fill:#bcafab;}.cls-49{fill:#1d1d1f;}</style><clipPath id="clip-path" transform="translate(-0.00705 2.02844)"><rect class="cls-1" y="0.00397" width="156.67327" height="78.00887"/></clipPath><clipPath id="clip-path-2" transform="translate(-0.00705 2.02844)"><rect class="cls-1" x="38.10768" y="28.77619" width="1.34416" height="2.8028"/></clipPath><clipPath id="clip-path-3" transform="translate(-0.00705 2.02844)"><rect class="cls-1" x="34.55298" y="28.77619" width="1.34416" height="2.8028"/></clipPath><clipPath id="clip-path-4" transform="translate(-0.00705 2.02844)"><rect class="cls-1" x="44.43264" y="35.60915" width="2.8028" height="1.34416"/></clipPath><clipPath id="clip-path-5" transform="translate(-0.00705 2.02844)"><rect class="cls-1" x="50.27784" y="35.60915" width="2.8028" height="1.34416"/></clipPath><clipPath id="clip-path-6" transform="translate(-0.00705 2.02844)"><rect class="cls-1" x="30.99828" y="28.77619" width="1.34416" height="2.8028"/></clipPath><clipPath id="clip-path-7" transform="translate(-0.00705 2.02844)"><rect class="cls-1" x="45.96951" y="46.47002" width="2.8028" height="1.34416"/></clipPath><clipPath id="clip-path-8" transform="translate(-0.00705 2.02844)"><rect class="cls-1" x="47.77224" y="39.05072" width="2.8028" height="1.34416"/></clipPath><clipPath id="clip-path-9" transform="translate(-0.00705 2.02844)"><rect class="cls-1" x="4.42731" y="36.70831" width="2.8028" height="1.34416"/></clipPath><clipPath id="clip-path-10" transform="translate(-0.00705 2.02844)"><rect class="cls-1" x="17.59292" y="11.99483" width="1.34416" height="2.8028"/></clipPath><clipPath id="clip-path-11" transform="translate(-0.00705 2.02844)"><rect class="cls-1" x="24.70389" y="11.99483" width="1.34416" height="2.8028"/></clipPath><clipPath id="clip-path-12" transform="translate(-0.00705 2.02844)"><rect class="cls-1" x="4.42731" y="40.07827" width="2.8028" height="1.34416"/></clipPath><clipPath id="clip-path-13" transform="translate(-0.00705 2.02844)"><rect class="cls-1" x="4.42731" y="43.44823" width="2.8028" height="1.34416"/></clipPath><clipPath id="clip-path-14" transform="translate(-0.00705 2.02844)"><rect class="cls-1" x="4.42731" y="46.81819" width="2.8028" height="1.34416"/></clipPath><clipPath id="clip-path-15" transform="translate(-0.00705 2.02844)"><rect class="cls-1" x="45.96951" y="50.20792" width="2.8028" height="1.34416"/></clipPath><clipPath id="clip-path-16" transform="translate(-0.00705 2.02844)"><rect class="cls-1" x="45.96951" y="53.94582" width="2.8028" height="1.34416"/></clipPath><clipPath id="clip-path-17" transform="translate(-0.00705 2.02844)"><rect class="cls-1" x="45.96951" y="57.68372" width="2.8028" height="1.34416"/></clipPath><clipPath id="clip-path-18" transform="translate(-0.00705 2.02844)"><rect class="cls-1" x="45.96951" y="61.42163" width="2.8028" height="1.34416"/></clipPath><clipPath id="clip-path-19" transform="translate(-0.00705 2.02844)"><rect class="cls-1" x="77.09073" y="13.26359" width="2.8028" height="1.34416"/></clipPath></defs><g id="Layer_2" data-name="Layer 2"><g id="_13800" data-name="13800"><path class="cls-2" d="M.00705,0V78.00155h156.67V0Zm139.75,1.438a4.32628,4.32628,0,1,1-4.31341,4.31326A4.32816,4.32816,0,0,1,139.75707,1.438ZM135.6748,16.81737a5.32765,5.32765,0,1,1-5.34048,5.31494A5.33084,5.33084,0,0,1,135.6748,16.81737ZM5.16778,20.82285A2.59322,2.59322,0,1,1,7.761,18.22963,2.58617,2.58617,0,0,1,5.16778,20.82285Zm15.662,54.17427a2.59306,2.59306,0,1,1,2.59306-2.5929A2.60788,2.60788,0,0,1,20.82974,74.99712Zm19.87257-66.627a2.6061,2.6061,0,1,1,2.59322-2.61892A2.608,2.608,0,0,1,40.70231,8.37014ZM107.4064,50.45181a1.34233,1.34233,0,0,1-1.33516-1.33485,1.33516,1.33516,0,1,1,2.67032,0A1.34234,1.34234,0,0,1,107.4064,50.45181Zm0-7.985a1.3424,1.3424,0,0,1-1.33516-1.33516,1.33516,1.33516,0,0,1,2.67032,0A1.3424,1.3424,0,0,1,107.4064,42.46686Zm0-7.98495a1.33516,1.33516,0,1,1,1.33516-1.33516A1.326,1.326,0,0,1,107.4064,34.48191Zm0-7.98494a1.33516,1.33516,0,1,1,1.33516-1.33516A1.326,1.326,0,0,1,107.4064,26.497Zm7.47157,28.1142a1.3372,1.3372,0,0,1-1.30946-1.33516,1.32229,1.32229,0,1,1,2.64446,0A1.34227,1.34227,0,0,1,114.878,54.61117Zm.46213-8.42153a1.32237,1.32237,0,1,1,0-2.64462,1.32237,1.32237,0,1,1,0,2.64462Zm0-8.24164a1.33516,1.33516,0,0,1,0-2.67032,1.33516,1.33516,0,0,1,0,2.67032Zm0-7.83106a1.34229,1.34229,0,0,1-1.33516-1.33516,1.32586,1.32586,0,0,1,1.33516-1.33484,1.3422,1.3422,0,0,1,1.335,1.33484A1.35942,1.35942,0,0,1,115.3401,30.11694Zm10.32132,35.86848a2.59322,2.59322,0,1,1,2.59322-2.59322A2.608,2.608,0,0,1,125.66142,65.98542Zm0-48.629a2.59322,2.59322,0,1,1,2.59322-2.59322A2.60781,2.60781,0,0,1,125.66142,17.35645Zm4.6729,40.48982a5.34049,5.34049,0,1,1,5.34048,5.34064A5.331,5.331,0,0,1,130.33432,57.84627Zm9.42275,18.8969a4.32628,4.32628,0,1,1,4.33911-4.339A4.32806,4.32806,0,0,1,139.75707,76.74317Zm8.13915-15.14842a1.3423,1.3423,0,0,1-1.33516-1.33516,1.32587,1.32587,0,0,1,1.33516-1.33485,1.3422,1.3422,0,0,1,1.335,1.33485A1.35943,1.35943,0,0,1,147.89622,61.59475Zm0-7.93355a1.32586,1.32586,0,0,1-1.33516-1.33484,1.3423,1.3423,0,0,1,1.33516-1.33516,1.35943,1.35943,0,0,1,1.335,1.33516A1.34219,1.34219,0,0,1,147.89622,53.6612Zm0-26.26566a1.335,1.335,0,1,1,0-2.67,1.335,1.335,0,0,1,0,2.67Zm0-7.93355a1.32237,1.32237,0,1,1,1.335-1.33516A1.34227,1.34227,0,0,1,147.89622,19.462Z" transform="translate(-0.00705 2.02844)"/><g class="cls-3"><path class="cls-4" d="M139.75707,64.59886a7.8052,7.8052,0,1,0,5.44329,13.40269l.07694-.07711a7.80678,7.80678,0,0,0-5.52023-13.32558Zm0,3.49179a4.32628,4.32628,0,1,1-4.31341,4.31357A4.32823,4.32823,0,0,1,139.75707,68.09065Z" transform="translate(-0.00705 2.02844)"/><path class="cls-1" d="M144.09618,72.40422a4.32628,4.32628,0,1,1-8.65252,0,4.32628,4.32628,0,0,1,8.65252,0Z" transform="translate(-0.00705 2.02844)"/><path class="cls-4" d="M144.99491,0a7.7461,7.7461,0,0,0-5.23784-2.02844A7.63282,7.63282,0,0,0,134.54509,0a7.64556,7.64556,0,0,0-2.56752,5.75122,7.79243,7.79243,0,1,0,15.58486,0A7.64556,7.64556,0,0,0,144.99491,0Zm-5.23784,10.09049a4.32628,4.32628,0,1,1,4.33911-4.33927A4.32833,4.32833,0,0,1,139.75707,10.09049Z" transform="translate(-0.00705 2.02844)"/><path class="cls-1" d="M144.09618,5.75122a4.32628,4.32628,0,1,1-8.65252,0,4.32628,4.32628,0,0,1,8.65252,0Z" transform="translate(-0.00705 2.02844)"/></g><path class="cls-4" d="M125.66142,10.09049a4.68577,4.68577,0,1,0,4.6729,4.67274A4.67869,4.67869,0,0,0,125.66142,10.09049Zm0,7.266a2.59322,2.59322,0,1,1,2.59322-2.59322A2.60781,2.60781,0,0,1,125.66142,17.35645Z" transform="translate(-0.00705 2.02844)"/><path class="cls-1" d="M128.25464,14.76323A2.606,2.606,0,1,1,125.66142,12.17,2.586,2.586,0,0,1,128.25464,14.76323Z" transform="translate(-0.00705 2.02844)"/><path class="cls-4" d="M5.16778,13.55657a4.68577,4.68577,0,1,0,4.67291,4.67306A4.65719,4.65719,0,0,0,5.16778,13.55657Zm0,7.26628A2.59322,2.59322,0,1,1,7.761,18.22963,2.58617,2.58617,0,0,1,5.16778,20.82285Z" transform="translate(-0.00705 2.02844)"/><circle class="cls-1" cx="5.16074" cy="20.25807" r="2.59322"/><path class="cls-4" d="M125.66142,58.71945a4.68562,4.68562,0,1,0,4.6729,4.67275A4.6787,4.6787,0,0,0,125.66142,58.71945Zm0,7.266a2.59322,2.59322,0,1,1,2.59322-2.59322A2.608,2.608,0,0,1,125.66142,65.98542Z" transform="translate(-0.00705 2.02844)"/><path class="cls-1" d="M128.25464,63.3922a2.606,2.606,0,1,1-2.59322-2.59322A2.58617,2.58617,0,0,1,128.25464,63.3922Z" transform="translate(-0.00705 2.02844)"/><path class="cls-4" d="M20.82974,67.73147a4.67275,4.67275,0,1,0,4.67275,4.67275A4.67883,4.67883,0,0,0,20.82974,67.73147Zm0,7.26565a2.59306,2.59306,0,1,1,2.59306-2.5929A2.60788,2.60788,0,0,1,20.82974,74.99712Z" transform="translate(-0.00705 2.02844)"/><path class="cls-1" d="M23.4228,72.40422A2.606,2.606,0,1,1,20.82974,69.811,2.58577,2.58577,0,0,1,23.4228,72.40422Z" transform="translate(-0.00705 2.02844)"/><path class="cls-4" d="M40.70231,1.07847a4.68577,4.68577,0,1,0,4.69845,4.67275A4.67327,4.67327,0,0,0,40.70231,1.07847Zm0,7.29167a2.6061,2.6061,0,1,1,2.59322-2.61892A2.608,2.608,0,0,1,40.70231,8.37014Z" transform="translate(-0.00705 2.02844)"/><path class="cls-1" d="M43.29553,5.75122A2.59322,2.59322,0,1,1,40.70231,3.158,2.60794,2.60794,0,0,1,43.29553,5.75122Z" transform="translate(-0.00705 2.02844)"/><path class="cls-4" d="M115.3401,42.46686a2.40066,2.40066,0,1,0,2.38777,2.41332A2.41048,2.41048,0,0,0,115.3401,42.46686Zm0,3.72278a1.32237,1.32237,0,1,1,0-2.64462,1.32237,1.32237,0,1,1,0,2.64462Z" transform="translate(-0.00705 2.02844)"/><path class="cls-1" d="M116.6751,44.88018a1.33717,1.33717,0,0,1-1.335,1.30946,1.32237,1.32237,0,1,1,0-2.64462A1.34247,1.34247,0,0,1,116.6751,44.88018Z" transform="translate(-0.00705 2.02844)"/><path class="cls-4" d="M115.3401,34.22523a2.38777,2.38777,0,1,0,2.38777,2.38761A2.38871,2.38871,0,0,0,115.3401,34.22523Zm0,3.72277a1.33516,1.33516,0,0,1,0-2.67032,1.33516,1.33516,0,0,1,0,2.67032Z" transform="translate(-0.00705 2.02844)"/><path class="cls-1" d="M116.6751,36.61284a1.34227,1.34227,0,0,1-1.335,1.33516,1.33516,1.33516,0,0,1,0-2.67032A1.34227,1.34227,0,0,1,116.6751,36.61284Z" transform="translate(-0.00705 2.02844)"/><path class="cls-4" d="M115.3401,26.36847a2.40066,2.40066,0,1,0,2.38777,2.41331A2.41068,2.41068,0,0,0,115.3401,26.36847Zm0,3.74847a1.34229,1.34229,0,0,1-1.33516-1.33516,1.32586,1.32586,0,0,1,1.33516-1.33484,1.3422,1.3422,0,0,1,1.335,1.33484A1.35942,1.35942,0,0,1,115.3401,30.11694Z" transform="translate(-0.00705 2.02844)"/><path class="cls-1" d="M116.6751,28.78178a1.35942,1.35942,0,0,1-1.335,1.33516,1.34229,1.34229,0,0,1-1.33516-1.33516,1.32586,1.32586,0,0,1,1.33516-1.33484A1.3422,1.3422,0,0,1,116.6751,28.78178Z" transform="translate(-0.00705 2.02844)"/><path class="cls-4" d="M147.89622,15.73922a2.4005,2.4005,0,1,0,2.38777,2.38761A2.40512,2.40512,0,0,0,147.89622,15.73922Zm0,3.72277a1.32237,1.32237,0,1,1,1.335-1.33516A1.34227,1.34227,0,0,1,147.89622,19.462Z" transform="translate(-0.00705 2.02844)"/><path class="cls-1" d="M149.23122,18.12683a1.34227,1.34227,0,0,1-1.335,1.33516,1.32237,1.32237,0,1,1,1.335-1.33516Z" transform="translate(-0.00705 2.02844)"/><path class="cls-4" d="M147.89622,23.67245a2.38793,2.38793,0,1,0,2.38777,2.38793A2.38918,2.38918,0,0,0,147.89622,23.67245Zm0,3.72309a1.335,1.335,0,1,1,0-2.67,1.335,1.335,0,0,1,0,2.67Z" transform="translate(-0.00705 2.02844)"/><path class="cls-1" d="M149.23122,26.06038a1.34227,1.34227,0,0,1-1.335,1.33516,1.335,1.335,0,1,1,0-2.67A1.3422,1.3422,0,0,1,149.23122,26.06038Z" transform="translate(-0.00705 2.02844)"/><path class="cls-4" d="M147.89622,49.93843a2.40066,2.40066,0,1,0,2.38777,2.38793A2.40539,2.40539,0,0,0,147.89622,49.93843Zm0,3.72277a1.32586,1.32586,0,0,1-1.33516-1.33484,1.3423,1.3423,0,0,1,1.33516-1.33516,1.35943,1.35943,0,0,1,1.335,1.33516A1.34219,1.34219,0,0,1,147.89622,53.6612Z" transform="translate(-0.00705 2.02844)"/><path class="cls-1" d="M149.23122,52.32636a1.34219,1.34219,0,0,1-1.335,1.33484,1.32586,1.32586,0,0,1-1.33516-1.33484,1.3423,1.3423,0,0,1,1.33516-1.33516A1.35943,1.35943,0,0,1,149.23122,52.32636Z" transform="translate(-0.00705 2.02844)"/><path class="cls-4" d="M147.89622,57.84627a2.40066,2.40066,0,1,0,2.38777,2.41332A2.41068,2.41068,0,0,0,147.89622,57.84627Zm0,3.74848a1.3423,1.3423,0,0,1-1.33516-1.33516,1.32587,1.32587,0,0,1,1.33516-1.33485,1.3422,1.3422,0,0,1,1.335,1.33485A1.35943,1.35943,0,0,1,147.89622,61.59475Z" transform="translate(-0.00705 2.02844)"/><path class="cls-1" d="M149.23122,60.25959a1.35943,1.35943,0,0,1-1.335,1.33516,1.3423,1.3423,0,0,1-1.33516-1.33516,1.32587,1.32587,0,0,1,1.33516-1.33485A1.3422,1.3422,0,0,1,149.23122,60.25959Z" transform="translate(-0.00705 2.02844)"/><path class="cls-4" d="M107.4064,22.77419a2.38762,2.38762,0,1,0,0,4.77524,2.38762,2.38762,0,1,0,0-4.77524Zm0,3.72278a1.33516,1.33516,0,1,1,1.33516-1.33516A1.326,1.326,0,0,1,107.4064,26.497Z" transform="translate(-0.00705 2.02844)"/><circle class="cls-1" cx="107.39935" cy="27.19025" r="1.33516"/><path class="cls-4" d="M107.4064,30.75882a2.38794,2.38794,0,1,0,2.38777,2.38793A2.38332,2.38332,0,0,0,107.4064,30.75882Zm0,3.72309a1.33516,1.33516,0,1,1,1.33516-1.33516A1.326,1.326,0,0,1,107.4064,34.48191Z" transform="translate(-0.00705 2.02844)"/><circle class="cls-1" cx="107.39935" cy="35.17519" r="1.33516"/><path class="cls-4" d="M107.4064,38.71838a2.40066,2.40066,0,1,0,2.38777,2.41332A2.40513,2.40513,0,0,0,107.4064,38.71838Zm0,3.74848a1.3424,1.3424,0,0,1-1.33516-1.33516,1.33516,1.33516,0,0,1,2.67032,0A1.3424,1.3424,0,0,1,107.4064,42.46686Z" transform="translate(-0.00705 2.02844)"/><circle class="cls-1" cx="107.39935" cy="43.16014" r="1.33516"/><path class="cls-4" d="M107.4064,46.70333a2.40066,2.40066,0,1,0,2.38777,2.41363A2.4054,2.4054,0,0,0,107.4064,46.70333Zm0,3.74848a1.34233,1.34233,0,0,1-1.33516-1.33485,1.33516,1.33516,0,1,1,2.67032,0A1.34234,1.34234,0,0,1,107.4064,50.45181Z" transform="translate(-0.00705 2.02844)"/><path class="cls-1" d="M108.74156,49.117a1.33516,1.33516,0,0,1-2.67032,0,1.33516,1.33516,0,1,1,2.67032,0Z" transform="translate(-0.00705 2.02844)"/><rect class="cls-5" x="18.36159" y="39.38767" width="0.8241" height="27.37204" rx="0.33847"/><rect class="cls-5" x="19.89207" y="39.38767" width="0.8241" height="27.37204" rx="0.33847"/><rect class="cls-5" x="21.42255" y="39.38767" width="0.8241" height="27.37204" rx="0.33847"/><rect class="cls-5" x="22.95303" y="39.38767" width="0.8241" height="27.37204" rx="0.33847"/><rect class="cls-5" x="24.48351" y="39.38767" width="0.8241" height="27.37204" rx="0.33847"/><rect class="cls-5" x="26.01399" y="39.38767" width="0.8241" height="27.37204" rx="0.33847"/><rect class="cls-5" x="27.54447" y="39.38767" width="0.8241" height="27.37204" rx="0.33847"/><rect class="cls-5" x="29.07495" y="39.38767" width="0.8241" height="27.37204" rx="0.33847"/><rect class="cls-5" x="30.60542" y="39.38767" width="0.8241" height="27.37204" rx="0.33847"/><rect class="cls-5" x="32.1359" y="39.38767" width="0.8241" height="27.37204" rx="0.33847"/><rect class="cls-5" x="33.66638" y="39.38767" width="0.8241" height="27.37204" rx="0.33847"/><rect class="cls-5" x="35.19686" y="39.38767" width="0.8241" height="27.37204" rx="0.33847"/><rect class="cls-5" x="27.33567" y="28.43143" width="0.8241" height="27.37204" rx="0.33847" transform="translate(69.85813 16.39817) rotate(90)"/><rect class="cls-5" x="27.33567" y="29.96191" width="0.8241" height="27.37204" rx="0.33847" transform="translate(71.38861 17.92865) rotate(90)"/><rect class="cls-5" x="27.33567" y="31.49239" width="0.8241" height="27.37204" rx="0.33847" transform="translate(72.91909 19.45913) rotate(90)"/><rect class="cls-5" x="27.33567" y="33.02287" width="0.8241" height="27.37204" rx="0.33847" transform="translate(74.44957 20.9896) rotate(90)"/><rect class="cls-5" x="27.33567" y="34.55335" width="0.8241" height="27.37204" rx="0.33847" transform="translate(75.98005 22.52008) rotate(90)"/><rect class="cls-5" x="27.33567" y="36.08383" width="0.8241" height="27.37204" rx="0.33847" transform="translate(77.51053 24.05056) rotate(90)"/><rect class="cls-5" x="27.33567" y="37.61431" width="0.8241" height="27.37204" rx="0.33847" transform="translate(79.04101 25.58104) rotate(90)"/><rect class="cls-5" x="27.33567" y="39.14479" width="0.8241" height="27.37204" rx="0.33847" transform="translate(80.57149 27.11152) rotate(90)"/><rect class="cls-5" x="27.33567" y="40.67527" width="0.8241" height="27.37204" rx="0.33847" transform="translate(82.10197 28.642) rotate(90)"/><rect class="cls-5" x="27.33567" y="42.20575" width="0.8241" height="27.37204" rx="0.33847" transform="translate(83.63245 30.17248) rotate(90)"/><rect class="cls-5" x="27.33567" y="43.73623" width="0.8241" height="27.37204" rx="0.33847" transform="translate(85.16293 31.70296) rotate(90)"/><rect class="cls-5" x="27.33567" y="45.26671" width="0.8241" height="27.37204" rx="0.33847" transform="translate(86.69341 33.23344) rotate(90)"/><rect class="cls-6" x="15.85003" y="40.82004" width="23.7813" height="24.13448" rx="0.52978"/><rect class="cls-7" x="70.62521" y="-7.01639" width="3.94322" height="25.88174" transform="translate(66.6653 80.54974) rotate(-90)"/><rect class="cls-7" x="56.6956" y="2.05152" width="7.2213" height="7.41336" rx="1.49222" transform="translate(54.541 68.09289) rotate(-90)"/><rect class="cls-8" x="58.80606" y="5.58766" width="2.10621" height="2.16223" transform="translate(53.18335 68.55638) rotate(-90)"/><rect class="cls-9" x="59.72128" y="6.64304" width="0.63345" height="0.7641" transform="translate(53.00587 69.09153) rotate(-90)"/><rect class="cls-7" x="65.06814" y="2.05152" width="7.2213" height="7.41336" rx="1.49222" transform="translate(62.91354 76.46544) rotate(-90)"/><rect class="cls-8" x="67.17861" y="5.58766" width="2.10621" height="2.16223" transform="translate(61.5559 76.92893) rotate(-90)"/><rect class="cls-9" x="68.09382" y="6.64304" width="0.63345" height="0.7641" transform="translate(61.37842 77.46408) rotate(-90)"/><rect class="cls-7" x="73.44069" y="2.05152" width="7.2213" height="7.41336" rx="1.49222" transform="translate(71.28609 84.83799) rotate(-90)"/><rect class="cls-8" x="75.55116" y="5.58766" width="2.10621" height="2.16223" transform="translate(69.92844 85.30148) rotate(-90)"/><rect class="cls-9" x="76.46637" y="6.64304" width="0.63345" height="0.7641" transform="translate(69.75096 85.83662) rotate(-90)"/><rect class="cls-7" x="81.81324" y="2.05152" width="7.2213" height="7.41336" rx="1.49222" transform="translate(79.65864 93.21053) rotate(-90)"/><rect class="cls-8" x="83.9237" y="5.58766" width="2.10621" height="2.16223" transform="translate(78.30099 93.67402) rotate(-90)"/><rect class="cls-9" x="84.83892" y="6.64304" width="0.63345" height="0.7641" transform="translate(78.12351 94.20917) rotate(-90)"/><rect class="cls-7" x="71.1048" y="60.26017" width="3.94322" height="25.88174" transform="translate(-0.13167 148.30589) rotate(-90)"/><rect class="cls-7" x="57.17519" y="69.32808" width="7.2213" height="7.41336" rx="1.49222" transform="translate(-12.25597 135.84905) rotate(-90)"/><rect class="cls-8" x="59.28566" y="72.86422" width="2.10621" height="2.16223" transform="translate(-13.61362 136.31254) rotate(-90)"/><rect class="cls-9" x="60.20087" y="73.9196" width="0.63345" height="0.7641" transform="translate(-13.7911 136.84768) rotate(-90)"/><rect class="cls-7" x="65.54774" y="69.32808" width="7.2213" height="7.41336" rx="1.49222" transform="translate(-3.88342 144.22159) rotate(-90)"/><rect class="cls-8" x="67.6582" y="72.86422" width="2.10621" height="2.16223" transform="translate(-5.24107 144.68508) rotate(-90)"/><rect class="cls-9" x="68.57342" y="73.9196" width="0.63345" height="0.7641" transform="translate(-5.41855 145.22023) rotate(-90)"/><rect class="cls-7" x="73.92028" y="69.32808" width="7.2213" height="7.41336" rx="1.49222" transform="translate(4.48912 152.59414) rotate(-90)"/><rect class="cls-8" x="76.03075" y="72.86422" width="2.10621" height="2.16223" transform="translate(3.13148 153.05763) rotate(-90)"/><rect class="cls-9" x="76.94596" y="73.9196" width="0.63345" height="0.7641" transform="translate(2.95399 153.59277) rotate(-90)"/><rect class="cls-7" x="82.29283" y="69.32808" width="7.2213" height="7.41336" rx="1.49222" transform="translate(12.86167 160.96668) rotate(-90)"/><rect class="cls-8" x="84.40329" y="72.86422" width="2.10621" height="2.16223" transform="translate(11.50402 161.43018) rotate(-90)"/><rect class="cls-9" x="85.31851" y="73.9196" width="0.63345" height="0.7641" transform="translate(11.32654 161.96532) rotate(-90)"/><g class="cls-10"><path class="cls-11" d="M39.45088,29.08712v2.181a.3111.3111,0,0,1-.31093.31082h-.71776a.31115.31115,0,0,1-.311-.31082v-2.181a.31128.31128,0,0,1,.311-.31093H39.14a.30568.30568,0,0,1,.31093.31093" transform="translate(-0.00705 2.02844)"/><rect class="cls-2" x="38.10048" y="31.56132" width="1.34427" height="1.28473"/></g><rect class="cls-12" x="37.03078" y="29.12793" width="3.44157" height="5.8452"/><g class="cls-13"><path class="cls-11" d="M35.89618,29.08712v2.181a.3111.3111,0,0,1-.31093.31082h-.71776a.31115.31115,0,0,1-.311-.31082v-2.181a.31127.31127,0,0,1,.311-.31093h.71776a.30568.30568,0,0,1,.31093.31093" transform="translate(-0.00705 2.02844)"/><rect class="cls-14" x="34.54578" y="31.56132" width="1.34427" height="1.28473"/></g><rect class="cls-12" x="33.47608" y="29.12793" width="3.44157" height="5.8452"/><g class="cls-15"><path class="cls-11" d="M46.92451,36.95235H44.74356a.31111.31111,0,0,1-.31082-.31093v-.71776a.31115.31115,0,0,1,.31082-.311h2.18095a.31128.31128,0,0,1,.31093.311v.71776a.30568.30568,0,0,1-.31093.31093" transform="translate(-0.00705 2.02844)"/><rect class="cls-14" x="45.18698" y="37.63744" width="1.28473" height="1.34427"/></g><rect class="cls-12" x="44.26876" y="33.33748" width="3.44157" height="5.8452" transform="translate(82.24257 -7.70102) rotate(90)"/><g class="cls-16"><path class="cls-11" d="M52.76971,36.95235H50.58877a.31111.31111,0,0,1-.31083-.31093v-.71776a.31116.31116,0,0,1,.31083-.311h2.18094a.31128.31128,0,0,1,.31093.311v.71776a.30568.30568,0,0,1-.31093.31093" transform="translate(-0.00705 2.02844)"/><rect class="cls-14" x="51.03218" y="37.63744" width="1.28473" height="1.34427"/></g><rect class="cls-12" x="50.11396" y="33.33748" width="3.44157" height="5.8452" transform="translate(88.08777 -13.54622) rotate(90)"/><g class="cls-17"><path class="cls-11" d="M32.34148,29.08712v2.181a.3111.3111,0,0,1-.31093.31082h-.71776a.31115.31115,0,0,1-.311-.31082v-2.181a.31127.31127,0,0,1,.311-.31093h.71776a.30568.30568,0,0,1,.31093.31093" transform="translate(-0.00705 2.02844)"/><rect class="cls-2" x="30.99108" y="31.56132" width="1.34427" height="1.28473"/></g><rect class="cls-12" x="29.92138" y="29.12793" width="3.44157" height="5.8452"/><g class="cls-18"><path class="cls-11" d="M48.46138,47.81321H46.28044a.3111.3111,0,0,1-.31083-.31093v-.71776a.31115.31115,0,0,1,.31083-.311h2.18094a.31128.31128,0,0,1,.31093.311v.71776a.30567.30567,0,0,1-.31093.31093" transform="translate(-0.00705 2.02844)"/><rect class="cls-2" x="46.72385" y="48.4983" width="1.28473" height="1.34427"/></g><rect class="cls-12" x="45.80563" y="44.19834" width="3.44157" height="5.8452" transform="translate(94.64031 1.62297) rotate(90)"/><g class="cls-19"><path class="cls-11" d="M50.26411,40.39392h-2.181a.3111.3111,0,0,1-.31082-.31093v-.71777a.31115.31115,0,0,1,.31082-.311h2.181a.31128.31128,0,0,1,.31093.311V40.083a.30568.30568,0,0,1-.31093.31093" transform="translate(-0.00705 2.02844)"/><rect class="cls-2" x="48.52658" y="41.079" width="1.28473" height="1.34427"/></g><rect class="cls-12" x="47.60835" y="36.77904" width="3.44157" height="5.8452" transform="translate(89.02374 -7.59905) rotate(90)"/><g class="cls-20"><path class="cls-11" d="M6.91918,38.0515H4.73823a.31111.31111,0,0,1-.31082-.31093v-.71776a.31115.31115,0,0,1,.31082-.311h2.181a.31128.31128,0,0,1,.31093.311v.71776a.30567.30567,0,0,1-.31093.31093" transform="translate(-0.00705 2.02844)"/><rect class="cls-2" x="5.18165" y="38.73659" width="1.28473" height="1.34427"/></g><rect class="cls-12" x="4.26343" y="34.43663" width="3.44157" height="5.8452" transform="translate(43.3364 33.40346) rotate(90)"/><g class="cls-21"><path class="cls-11" d="M17.59389,14.4867V12.30576a.31111.31111,0,0,1,.31093-.31083h.71776a.31115.31115,0,0,1,.311.31083V14.4867a.31128.31128,0,0,1-.311.31093h-.71776a.30567.30567,0,0,1-.31093-.31093" transform="translate(-0.00705 2.02844)"/><rect class="cls-2" x="17.58593" y="14.78466" width="1.34427" height="1.28473"/></g><rect class="cls-12" x="16.56538" y="10.62913" width="3.44157" height="5.8452" transform="translate(36.56527 29.13191) rotate(180)"/><rect class="cls-12" x="20.12086" y="10.62913" width="3.44157" height="5.8452" transform="translate(43.67625 29.13191) rotate(180)"/><g class="cls-22"><path class="cls-11" d="M24.70486,14.4867V12.30576a.31111.31111,0,0,1,.31093-.31083h.71776a.31116.31116,0,0,1,.311.31083V14.4867a.31128.31128,0,0,1-.311.31093h-.71776a.30568.30568,0,0,1-.31093-.31093" transform="translate(-0.00705 2.02844)"/><rect class="cls-2" x="24.6969" y="14.78466" width="1.34427" height="1.28473"/></g><rect class="cls-12" x="23.67635" y="10.62913" width="3.44157" height="5.8452" transform="translate(50.78722 29.13191) rotate(180)"/><rect class="cls-12" x="27.23183" y="10.62913" width="3.44157" height="5.8452" transform="translate(57.89819 29.13191) rotate(180)"/><g class="cls-23"><path class="cls-11" d="M6.91918,41.42146H4.73823a.31111.31111,0,0,1-.31082-.31093v-.71776a.31115.31115,0,0,1,.31082-.311h2.181a.31128.31128,0,0,1,.31093.311v.71776a.30567.30567,0,0,1-.31093.31093" transform="translate(-0.00705 2.02844)"/><rect class="cls-2" x="5.18165" y="42.10655" width="1.28473" height="1.34427"/></g><rect class="cls-12" x="4.26343" y="37.80659" width="3.44157" height="5.8452" transform="translate(46.70636 36.77342) rotate(90)"/><g class="cls-24"><path class="cls-11" d="M6.91918,44.79142H4.73823a.3111.3111,0,0,1-.31082-.31093v-.71776a.31115.31115,0,0,1,.31082-.311h2.181a.31128.31128,0,0,1,.31093.311v.71776a.30567.30567,0,0,1-.31093.31093" transform="translate(-0.00705 2.02844)"/><rect class="cls-2" x="5.18165" y="45.47651" width="1.28473" height="1.34427"/></g><rect class="cls-12" x="4.26343" y="41.17655" width="3.44157" height="5.8452" transform="translate(50.07632 40.14338) rotate(90)"/><g class="cls-25"><path class="cls-11" d="M6.91918,48.16139H4.73823a.31111.31111,0,0,1-.31082-.31094v-.71776a.31115.31115,0,0,1,.31082-.311h2.181a.31128.31128,0,0,1,.31093.311v.71776a.30568.30568,0,0,1-.31093.31094" transform="translate(-0.00705 2.02844)"/><rect class="cls-2" x="5.18165" y="48.84647" width="1.28473" height="1.34427"/></g><rect class="cls-12" x="4.26343" y="44.54651" width="3.44157" height="5.8452" transform="translate(53.44628 43.51334) rotate(90)"/><g class="cls-26"><path class="cls-11" d="M48.46138,51.55112H46.28044a.31111.31111,0,0,1-.31083-.31093v-.71777a.31115.31115,0,0,1,.31083-.311h2.18094a.31128.31128,0,0,1,.31093.311v.71777a.30568.30568,0,0,1-.31093.31093" transform="translate(-0.00705 2.02844)"/><rect class="cls-2" x="46.72385" y="52.2362" width="1.28473" height="1.34427"/></g><rect class="cls-12" x="45.80563" y="47.93624" width="3.44157" height="5.8452" transform="translate(98.37821 5.36087) rotate(90)"/><g class="cls-27"><path class="cls-11" d="M48.46138,55.289H46.28044a.31111.31111,0,0,1-.31083-.31093v-.71777a.31115.31115,0,0,1,.31083-.311h2.18094a.31128.31128,0,0,1,.31093.311v.71777a.30568.30568,0,0,1-.31093.31093" transform="translate(-0.00705 2.02844)"/><rect class="cls-2" x="46.72385" y="55.97411" width="1.28473" height="1.34427"/></g><rect class="cls-12" x="45.80563" y="51.67415" width="3.44157" height="5.8452" transform="translate(102.11611 9.09878) rotate(90)"/><g class="cls-28"><path class="cls-11" d="M48.46138,59.02692H46.28044a.31111.31111,0,0,1-.31083-.31093v-.71776a.31115.31115,0,0,1,.31083-.311h2.18094a.31127.31127,0,0,1,.31093.311V58.716a.30568.30568,0,0,1-.31093.31093" transform="translate(-0.00705 2.02844)"/><rect class="cls-2" x="46.72385" y="59.71201" width="1.28473" height="1.34427"/></g><rect class="cls-12" x="45.80563" y="55.41205" width="3.44157" height="5.8452" transform="translate(105.85401 12.83668) rotate(90)"/><g class="cls-29"><path class="cls-11" d="M48.46138,62.76482H46.28044a.31111.31111,0,0,1-.31083-.31093v-.71776a.31115.31115,0,0,1,.31083-.311h2.18094a.31127.31127,0,0,1,.31093.311v.71776a.30568.30568,0,0,1-.31093.31093" transform="translate(-0.00705 2.02844)"/><rect class="cls-2" x="46.72385" y="63.44991" width="1.28473" height="1.34427"/></g><rect class="cls-12" x="45.80563" y="59.14995" width="3.44157" height="5.8452" transform="translate(109.59192 16.57458) rotate(90)"/><path class="cls-1" d="M21.30369,11.63975h.78684a.14641.14641,0,0,1,.1464.1464v.677a.14638.14638,0,0,1-.1464.1464h-.78684a.14638.14638,0,0,1-.1464-.1464v-.677a.14641.14641,0,0,1,.1464-.1464" transform="translate(-0.00705 2.02844)"/><path class="cls-1" d="M21.30369,14.31272h.78684a.14641.14641,0,0,1,.1464.1464v.677a.14639.14639,0,0,1-.1464.1464h-.78684a.14639.14639,0,0,1-.1464-.1464v-.677a.14641.14641,0,0,1,.1464-.1464" transform="translate(-0.00705 2.02844)"/><path class="cls-1" d="M28.5592,11.63975H29.346a.14641.14641,0,0,1,.1464.1464v.677a.14638.14638,0,0,1-.1464.1464H28.5592a.14638.14638,0,0,1-.1464-.1464v-.677a.14641.14641,0,0,1,.1464-.1464" transform="translate(-0.00705 2.02844)"/><path class="cls-1" d="M28.5592,14.31272H29.346a.14641.14641,0,0,1,.1464.1464v.677a.14639.14639,0,0,1-.1464.1464H28.5592a.14639.14639,0,0,1-.1464-.1464v-.677a.14641.14641,0,0,1,.1464-.1464" transform="translate(-0.00705 2.02844)"/><g class="cls-30"><path class="cls-11" d="M77.40167,13.26456h2.18094a.31111.31111,0,0,1,.31083.31093v.71776a.31116.31116,0,0,1-.31083.311H77.40167a.31127.31127,0,0,1-.31093-.311v-.71776a.30567.30567,0,0,1,.31093-.31093" transform="translate(-0.00705 2.02844)"/><rect class="cls-2" x="77.84038" y="15.29209" width="1.28473" height="1.34427"/></g><rect class="cls-12" x="76.61585" y="11.03423" width="3.44157" height="5.8452" transform="translate(64.37276 94.32191) rotate(-90)"/><circle class="cls-31" cx="6.4192" cy="53.19077" r="1.71254"/><circle class="cls-31" cx="67.14356" cy="24.16982" r="1.71254"/><circle class="cls-31" cx="18.36159" cy="33.60743" r="1.71254"/><circle class="cls-31" cx="22.24665" cy="33.60743" r="1.71254"/><circle class="cls-31" cx="26.13172" cy="33.60743" r="1.71254"/><path class="cls-1" d="M141.01529,22.13231a5.34055,5.34055,0,1,1-5.34049-5.31494A5.33641,5.33641,0,0,1,141.01529,22.13231Z" transform="translate(-0.00705 2.02844)"/><path class="cls-1" d="M141.01529,57.84627a5.34055,5.34055,0,1,1-5.34049-5.31494A5.33648,5.33648,0,0,1,141.01529,57.84627Z" transform="translate(-0.00705 2.02844)"/><circle class="cls-31" cx="3.99603" cy="56.50681" r="1.71254"/><circle class="cls-31" cx="6.4192" cy="59.85228" r="1.71254"/><circle class="cls-31" cx="7.6473" cy="66.22821" r="1.71254"/><circle class="cls-31" cx="33.21598" cy="71.83344" r="1.71254"/><circle class="cls-31" cx="7.6473" cy="71.56964" r="1.71254"/><circle class="cls-31" cx="3.99603" cy="63.16832" r="1.71254"/><polygon class="cls-31" points="61.183 69.858 63.826 66.983 58.54 66.983 61.183 69.858"/><polygon class="cls-31" points="55.12 5.746 52.245 3.103 52.245 8.389 55.12 5.746"/><rect class="cls-32" x="82.11123" y="8.9187" width="1.95629" height="33.38972" transform="translate(108.69589 -55.44738) rotate(90)"/><rect class="cls-33" x="95.38521" y="24.87615" width="1.95629" height="1.47481" transform="translate(121.96987 -68.72137) rotate(90)"/><rect class="cls-33" x="98.18011" y="25.50213" width="1.95629" height="0.22285" transform="translate(124.76477 -71.51626) rotate(90)"/><rect class="cls-33" x="66.62849" y="25.50213" width="1.95629" height="0.22285" transform="translate(93.21315 -39.96464) rotate(90)"/><rect class="cls-33" x="69.29247" y="24.87615" width="1.95629" height="1.47481" transform="translate(95.87713 -42.62862) rotate(90)"/><rect class="cls-32" x="82.11123" y="13.00912" width="1.95629" height="33.38972" transform="translate(112.78631 -51.35696) rotate(90)"/><rect class="cls-33" x="95.38521" y="28.96657" width="1.95629" height="1.47481" transform="translate(126.06029 -64.63095) rotate(90)"/><rect class="cls-33" x="98.18011" y="29.59255" width="1.95629" height="0.22285" transform="translate(128.85519 -67.42584) rotate(90)"/><rect class="cls-33" x="66.62849" y="29.59255" width="1.95629" height="0.22285" transform="translate(97.30357 -35.87422) rotate(90)"/><rect class="cls-33" x="69.29247" y="28.96657" width="1.95629" height="1.47481" transform="translate(99.96755 -38.5382) rotate(90)"/><rect class="cls-32" x="82.11123" y="17.09954" width="1.95629" height="33.38972" transform="translate(116.87673 -47.26654) rotate(90)"/><rect class="cls-33" x="95.38521" y="33.05699" width="1.95629" height="1.47481" transform="translate(130.15071 -60.54052) rotate(90)"/><rect class="cls-33" x="98.18011" y="33.68297" width="1.95629" height="0.22285" transform="translate(132.94561 -63.33542) rotate(90)"/><rect class="cls-33" x="66.62849" y="33.68297" width="1.95629" height="0.22285" transform="translate(101.39399 -31.7838) rotate(90)"/><rect class="cls-33" x="69.29247" y="33.05699" width="1.95629" height="1.47481" transform="translate(104.05797 -34.44778) rotate(90)"/><rect class="cls-32" x="82.11123" y="21.18996" width="1.95629" height="33.38972" transform="translate(120.96715 -43.17612) rotate(90)"/><rect class="cls-33" x="95.38521" y="37.14741" width="1.95629" height="1.47481" transform="translate(134.24113 -56.4501) rotate(90)"/><rect class="cls-33" x="98.18011" y="37.77339" width="1.95629" height="0.22285" transform="translate(137.03603 -59.245) rotate(90)"/><rect class="cls-33" x="66.62849" y="37.77339" width="1.95629" height="0.22285" transform="translate(105.48441 -27.69338) rotate(90)"/><rect class="cls-33" x="69.29247" y="37.14741" width="1.95629" height="1.47481" transform="translate(108.14839 -30.35736) rotate(90)"/><rect class="cls-32" x="82.11123" y="25.28038" width="1.95629" height="33.38972" transform="translate(125.05757 -39.0857) rotate(90)"/><rect class="cls-33" x="95.38521" y="41.23783" width="1.95629" height="1.47481" transform="translate(138.33155 -52.35968) rotate(90)"/><rect class="cls-33" x="98.18011" y="41.86381" width="1.95629" height="0.22285" transform="translate(141.12645 -55.15458) rotate(90)"/><rect class="cls-33" x="66.62849" y="41.86381" width="1.95629" height="0.22285" transform="translate(109.57483 -23.60296) rotate(90)"/><rect class="cls-33" x="69.29247" y="41.23783" width="1.95629" height="1.47481" transform="translate(112.23881 -26.26694) rotate(90)"/><rect class="cls-32" x="82.11123" y="29.3708" width="1.95629" height="33.38972" transform="translate(129.14799 -34.99528) rotate(90)"/><rect class="cls-33" x="95.38521" y="45.32825" width="1.95629" height="1.47481" transform="translate(142.42197 -48.26926) rotate(90)"/><rect class="cls-33" x="98.18011" y="45.95423" width="1.95629" height="0.22285" transform="translate(145.21687 -51.06416) rotate(90)"/><rect class="cls-33" x="66.62849" y="45.95423" width="1.95629" height="0.22285" transform="translate(113.66525 -19.51254) rotate(90)"/><rect class="cls-33" x="69.29247" y="45.32825" width="1.95629" height="1.47481" transform="translate(116.32923 -22.17652) rotate(90)"/><rect class="cls-32" x="82.11123" y="33.46122" width="1.95629" height="33.38972" transform="translate(133.23841 -30.90486) rotate(90)"/><rect class="cls-33" x="95.38521" y="49.41867" width="1.95629" height="1.47481" transform="translate(146.51239 -44.17884) rotate(90)"/><rect class="cls-33" x="98.18011" y="50.04465" width="1.95629" height="0.22285" transform="translate(149.30729 -46.97374) rotate(90)"/><rect class="cls-33" x="66.62849" y="50.04465" width="1.95629" height="0.22285" transform="translate(117.75567 -15.42212) rotate(90)"/><rect class="cls-33" x="69.29247" y="49.41867" width="1.95629" height="1.47481" transform="translate(120.41965 -18.0861) rotate(90)"/><rect class="cls-32" x="82.11123" y="37.55164" width="1.95629" height="33.38972" transform="translate(137.32883 -26.81444) rotate(90)"/><rect class="cls-33" x="95.38521" y="53.50909" width="1.95629" height="1.47481" transform="translate(150.60281 -40.08842) rotate(90)"/><rect class="cls-33" x="98.18011" y="54.13507" width="1.95629" height="0.22285" transform="translate(153.39771 -42.88332) rotate(90)"/><rect class="cls-33" x="66.62849" y="54.13507" width="1.95629" height="0.22285" transform="translate(121.84609 -11.3317) rotate(90)"/><rect class="cls-33" x="69.29247" y="53.50909" width="1.95629" height="1.47481" transform="translate(124.51007 -13.99568) rotate(90)"/><rect class="cls-34" x="71.73711" y="22.81059" width="20.86707" height="38.59223" rx="1.54132"/><rect class="cls-35" x="72.03351" y="22.81059" width="20.21859" height="37.88085" rx="1.54132"/><path class="cls-4" d="M112.51574,50.8884v4.74984h4.75V50.8884Zm2.36223,3.72277a1.3372,1.3372,0,0,1-1.30946-1.33516,1.32229,1.32229,0,1,1,2.64446,0A1.34227,1.34227,0,0,1,114.878,54.61117Z" transform="translate(-0.00705 2.02844)"/><path class="cls-1" d="M116.213,53.276a1.32229,1.32229,0,1,1-2.64446,0,1.32229,1.32229,0,1,1,2.64446,0Z" transform="translate(-0.00705 2.02844)"/><path class="cls-36" d="M91.64876,1.46165h1.915a.97587.97587,0,0,1,1.03955.98.86785.86785,0,0,1-.562.89063V3.342c.3833.10449.49268.46777.51758.83056a1.85646,1.85646,0,0,0,.14893.84082h-.78077a4.25107,4.25107,0,0,1-.12451-.85058c-.05468-.373-.19873-.53711-.59179-.53711h-.78125V5.01341h-.78077Zm.78077,1.60694h.856c.353,0,.53711-.14942.53711-.50733,0-.34326-.18408-.49267-.53711-.49267h-.856Z" transform="translate(-0.00705 2.02844)"/><path class="cls-36" d="M96.31039,1.46165h.80078l1.32812,3.55176h-.811l-.26856-.791H96.03158l-.27881.791h-.79053Zm-.07471,2.17872h.91992l-.44775-1.30323h-.00977Z" transform="translate(-0.00705 2.02844)"/><path class="cls-36" d="M98.847,1.46165h.78076V2.93431L101.016,1.46165h.97461l-1.38769,1.40284,1.522,2.14892h-.97949l-1.06983-1.59668-.44775.45264v1.144H98.847Z" transform="translate(-0.00705 2.02844)"/><path class="cls-36" d="M104.14535,5.01341h-.70655V2.75511h-.87548V2.22288c.49218.01465.93994-.15917,1.01953-.6914h.5625Z" transform="translate(-0.00705 2.02844)"/><path class="cls-36" d="M106.19515,2.93919c.30322.02491.74121-.03515.74121-.43261a.45964.45964,0,0,0-.49267-.46289c-.35791,0-.542.26367-.53711.62207h-.67139a1.154,1.154,0,0,1,1.20361-1.20411,1.07438,1.07438,0,0,1,1.16895.96485.692.692,0,0,1-.48731.71142v.01026a.77424.77424,0,0,1,.6167.791,1.29822,1.29822,0,0,1-2.58691-.12451h.67187c.01465.37793.20362.68653.61182.68653a.53541.53541,0,0,0,.5669-.54737c0-.52734-.46241-.51709-.80567-.51709Z" transform="translate(-0.00705 2.02844)"/><path class="cls-36" d="M109.3138,1.46165a1.03819,1.03819,0,0,1,1.16407.93506.72876.72876,0,0,1-.50733.73145v.00976a.80979.80979,0,0,1,.65186.85059,1.16673,1.16673,0,0,1-1.30323,1.09473c-.67187,0-1.32324-.33838-1.32324-1.08936a.8235.8235,0,0,1,.65625-.856V3.12816a.69493.69493,0,0,1-.5122-.71631A1.0587,1.0587,0,0,1,109.3138,1.46165Zm.00537,3.08936a.57237.57237,0,0,0,.59668-.5874.56291.56291,0,0,0-.59668-.55713.55415.55415,0,0,0-.61718.55224A.58727.58727,0,0,0,109.31917,4.551Zm-.00537-1.6167a.47284.47284,0,1,0,0-.94043.48662.48662,0,0,0-.53222.48242A.47662.47662,0,0,0,109.3138,2.93431Z" transform="translate(-0.00705 2.02844)"/><path class="cls-36" d="M112.16976,1.46165c.69629,0,1.2832.438,1.2832,1.7959,0,1.3877-.58691,1.82569-1.2832,1.82569-.69141,0-1.27344-.438-1.27344-1.82569C110.89632,1.89964,111.47835,1.46165,112.16976,1.46165Zm0,3.03956c.57715,0,.57715-.85059.57715-1.24366,0-.36328,0-1.21386-.57715-1.21386-.57227,0-.56689.85058-.56689,1.21386C111.60287,3.65062,111.60287,4.50121,112.16976,4.50121Z" transform="translate(-0.00705 2.02844)"/><path class="cls-36" d="M115.035,1.46165c.69629,0,1.28321.438,1.28321,1.7959,0,1.3877-.58692,1.82569-1.28321,1.82569-.6914,0-1.27343-.438-1.27343-1.82569C113.76156,1.89964,114.34359,1.46165,115.035,1.46165Zm0,3.03956c.57715,0,.57715-.85059.57715-1.24366,0-.36328,0-1.21386-.57715-1.21386-.57226,0-.56689.85058-.56689,1.21386C114.4681,3.65062,114.4681,4.50121,115.035,4.50121Z" transform="translate(-0.00705 2.02844)"/><path class="cls-36" d="M121.48226,5.01341h-.88037l-1.15381-3.55176h.80566l.791,2.49707h.00977l.80078-2.49707h.80615Z" transform="translate(-0.00705 2.02844)"/><path class="cls-36" d="M124.034,1.46165h.80127l1.32812,3.55176h-.811l-.26856-.791H123.7557l-.27832.791h-.791Zm-.07422,2.17872h.91992l-.44726-1.30323h-.01026Z" transform="translate(-0.00705 2.02844)"/><path class="cls-36" d="M91.64876,6.38548H94.305v.65674H92.42953v.76123h1.72119V8.4099H92.42953v.8706h1.91552v.65674H91.64876Z" transform="translate(-0.00705 2.02844)"/><path class="cls-36" d="M96.19076,7.36546h.51709v.47266h-.51709V9.11156c0,.23877.05957.29834.29834.29834a.979.979,0,0,0,.21875-.02v.55224a2.68859,2.68859,0,0,1-.4126.02491c-.438,0-.811-.09424-.811-.61182V7.83812h-.42773V7.36546h.42773v-.771h.70655Z" transform="translate(-0.00705 2.02844)"/><path class="cls-36" d="M97.54378,6.38548h.70655V7.72386H98.265a.893.893,0,0,1,.75146-.42822c.751,0,.93994.42285.93994,1.05957v1.582h-.70654V8.4846c0-.42285-.11914-.63183-.45264-.63183-.38281,0-.54687.21435-.54687.73633V9.93724h-.70655Z" transform="translate(-0.00705 2.02844)"/><path class="cls-36" d="M101.57308,8.823c.02.45264.23389.65186.63184.65186a.58165.58165,0,0,0,.55713-.3335h.62158a1.15163,1.15163,0,0,1-1.20362.86572,1.25616,1.25616,0,0,1-1.31347-1.353,1.29261,1.29261,0,1,1,2.562.16894Zm1.14893-.44775c-.06446-.35791-.21875-.54736-.562-.54736a.55374.55374,0,0,0-.58691.54736Z" transform="translate(-0.00705 2.02844)"/><path class="cls-36" d="M104.34408,7.36546h.67138V7.843h.01026a.90391.90391,0,0,1,.8208-.54736.53708.53708,0,0,1,.1543.0249v.65674a1.31556,1.31556,0,0,0-.25391-.0249c-.52246,0-.69629.36816-.69629.82568V9.93724h-.70654Z" transform="translate(-0.00705 2.02844)"/><path class="cls-36" d="M106.77669,7.36546h.67139v.3584h.01514a.9066.9066,0,0,1,.78613-.42822c.751,0,.93994.42285.93994,1.05957v1.582h-.70654V8.4846c0-.42285-.11914-.63183-.45264-.63183-.38281,0-.54687.21435-.54687.73633V9.93724h-.70655Z" transform="translate(-0.00705 2.02844)"/><path class="cls-36" d="M110.80648,8.823c.02.45264.23389.65186.63184.65186a.58163.58163,0,0,0,.55712-.3335h.62159a1.15164,1.15164,0,0,1-1.20362.86572,1.25616,1.25616,0,0,1-1.31347-1.353,1.29261,1.29261,0,1,1,2.562.16894Zm1.14893-.44775c-.06446-.35791-.21875-.54736-.562-.54736a.55374.55374,0,0,0-.58691.54736Z" transform="translate(-0.00705 2.02844)"/><path class="cls-36" d="M114.473,7.36546h.51709v.47266H114.473V9.11156c0,.23877.05957.29834.29834.29834a.9789.9789,0,0,0,.21875-.02v.55224a2.68845,2.68845,0,0,1-.41259.02491c-.438,0-.811-.09424-.811-.61182V7.83812h-.42773V7.36546h.42773v-.771h.70654Z" transform="translate(-0.00705 2.02844)"/><path class="cls-37" d="M88.78207,30.19749v.30176l-.96485-.20459v1.17578l.96485.20118V31.97l-2.24415-.4712v-.29882l1.02784.21679V30.24144l-1.02784-.2168v-.29883Z" transform="translate(-0.00705 2.02844)"/><path class="cls-37" d="M88.119,33.66722c.35547.00928.46533-.2041.46533-.51562,0-.2168-.104-.51856-.36767-.51856-.21729,0-.30176.16016-.36182.36475l-.08154.30175c-.07569.27637-.20411.54053-.60645.54053-.46533,0-.68213-.47119-.68213-.87353,0-.541.23877-.92432.78858-.8833v.29834c-.40528-.01563-.53711.23242-.53711.59716,0,.27979.1289.563.43066.563.229,0,.311-.18261.37061-.39941l.08154-.30469a.58455.58455,0,0,1,.56592-.50293c.43408,0,.65088.418.65088.8169,0,.44043-.2168.83007-.7168.81445Z" transform="translate(-0.00705 2.02844)"/><path class="cls-37" d="M88.5306,36.13158v-.7544l-1.99268-.42139v-.29833l1.99268.42089V34.324l.25147.05371v1.81055Z" transform="translate(-0.00705 2.02844)"/><path class="cls-37" d="M86.30208,36.00218V37.574h-.15722V36.00218Z" transform="translate(-0.00705 2.02844)"/><path class="cls-37" d="M88.76644,38.68968c0,.38965-.24805.6001-.84228.6001-.4087,0-1.42383-.22315-1.42383-.9585,0-.46826.3833-.61621.86425-.61621C87.86751,37.71507,88.76644,37.99144,88.76644,38.68968Zm-2.03027-.33008c0,.49659.91748.64746,1.1123.64746.24854,0,.68213.04688.68213-.33935,0-.48438-.89551-.66992-1.21-.66992C86.96566,37.99779,86.73617,38.09544,86.73617,38.3596Z" transform="translate(-0.00705 2.02844)"/><path class="cls-37" d="M88.76644,40.50023c0,.38965-.24805.6001-.84228.6001-.4087,0-1.42383-.22315-1.42383-.9585,0-.46826.3833-.61621.86425-.61621C87.86751,39.52562,88.76644,39.802,88.76644,40.50023Zm-2.03027-.33008c0,.49658.91748.64746,1.1123.64746.24854,0,.68213.04688.68213-.33935,0-.48438-.89551-.66993-1.21-.66993C86.96566,39.80833,86.73617,39.906,86.73617,40.17015Z" transform="translate(-0.00705 2.02844)"/><path class="cls-37" d="M87.0599,42.22191v-.97754l.26367.05371,1.44287,1.31982v.22657l-1.47119-.30811v.29541l-.23535-.04687V42.489l-.522-.11279v-.26709Zm.23535-.66944v.7168l1.00928.21045v-.00635Z" transform="translate(-0.00705 2.02844)"/><path class="cls-37" d="M86.53792,43.95384v-.28271l1.69434.36133a2.361,2.361,0,0,1-.063-.5752l.21387.044a.82072.82072,0,0,0,.3833.72021v.207Z" transform="translate(-0.00705 2.02844)"/><path class="cls-37" d="M88.493,46.47435V45.5598l-.60351-.17627-.00635.00635a.64886.64886,0,0,1,.12256.39306.61152.61152,0,0,1-.67237.62549.7918.7918,0,0,1-.833-.83935.60252.60252,0,0,1,.63476-.66944v.28272a.3541.3541,0,0,0-.39892.40234.53485.53485,0,0,0,.58447.541.40184.40184,0,0,0,.44971-.44336.45633.45633,0,0,0-.21729-.396v-.23877l1.17578.3457v1.12842Z" transform="translate(-0.00705 2.02844)"/><path class="cls-37" d="M88.78207,47.86693v.32715l-2.24415.40527v-.30811l.67579-.10351v-.94629l-.67579-.39307v-.333Zm-1.3169-.49024v.77295l1.05322-.1665v-.00635Z" transform="translate(-0.00705 2.02844)"/><path class="cls-37" d="M88.78207,49.344v.86426c0,.38037-.12891.73877-.57178.73877a.59785.59785,0,0,1-.60352-.50586h-.00635c-.05957.1914-.26074.25439-.4873.22949a1.05375,1.05375,0,0,0-.5752.00293v-.311a1.007,1.007,0,0,1,.481.00635c.40235.06885.46826-.082.47754-.2168v-.78271l-.9585-.20117v-.29883Zm-1.03418.07861v.67285c0,.46827.2832.55323.44335.55323.27686,0,.33936-.21729.33936-.44043V49.5891Z" transform="translate(-0.00705 2.02844)"/><path class="cls-37" d="M81.07308,29.86253a1.28394,1.28394,0,0,1-.39111-.9458,1.25389,1.25389,0,0,1,1.39013-1.3584,1.79039,1.79039,0,0,1,1.93164,1.74024c0,.70166-.32861,1.27441-1.06152,1.27441v-.42187c.48389,0,.70606-.39063.70606-.85254a1.42477,1.42477,0,0,0-1.57618-1.31885c-.61718,0-1.03466.30225-1.03466.937,0,.67481.41748.99024,1.03466,1.14551V29.05l.355.07129v1.38086l-1.66943-.34668v-.26611Z" transform="translate(-0.00705 2.02844)"/><path class="cls-37" d="M83.92806,31.55247v1.2212c0,.53711-.18213,1.04345-.8081,1.04345a.84524.84524,0,0,1-.85254-.71484h-.00879c-.08447.27051-.36865.35937-.68848.32373a1.48828,1.48828,0,0,0-.8125.00439V32.991a1.42722,1.42722,0,0,1,.6792.00879c.56836.09766.66162-.11523.67529-.30615V31.58812l-1.35449-.28418v-.42188Zm-1.46094.11084v.9502c0,.66162.39991.78174.626.78174.39111,0,.47949-.30664.47949-.62158v-.875Z" transform="translate(-0.00705 2.02844)"/><path class="cls-37" d="M84.00374,35.89232a1.30368,1.30368,0,0,1-1.40332,1.32324A1.78538,1.78538,0,0,1,80.682,35.51048a1.25389,1.25389,0,0,1,1.39013-1.3584A1.79039,1.79039,0,0,1,84.00374,35.89232Zm-2.9663-.38184a1.41743,1.41743,0,0,0,1.563,1.28321.92477.92477,0,0,0,1.04786-.90137,1.42477,1.42477,0,0,0-1.57618-1.31885C81.45492,34.57347,81.03744,34.87572,81.03744,35.51048Z" transform="translate(-0.00705 2.02844)"/><path class="cls-37" d="M82.02767,40.282a4.11082,4.11082,0,0,1-.6084-.15967,1.24089,1.24089,0,0,1-.7373-1.23486c0-.93653.49316-1.332,1.38135-1.14991l1.86474.39551v.42139l-1.97168-.417c-.61719-.14209-.91894.13281-.91894.75,0,.69726.395.835.99023.96826l1.90039.39941V40.677Z" transform="translate(-0.00705 2.02844)"/><path class="cls-37" d="M83.92806,41.43431v1.24756c0,.6084-.293.94141-.875.94141-.395,0-.999-.2754-.999-1.21241v-.9414l-1.29639-.27491v-.42187Zm-1.51855.11084v.95459a.62314.62314,0,0,0,.64355.70166.46674.46674,0,0,0,.51953-.51953v-.89258Z" transform="translate(-0.00705 2.02844)"/><path class="cls-37" d="M82.16976,43.89622v1.2876l-.35547-.0708V43.82494Z" transform="translate(-0.00705 2.02844)"/><path class="cls-37" d="M83.57259,48.34691V47.281l-2.81494-.59521v-.42139l2.81494.59473V45.79369l.35547.07519V48.4265Z" transform="translate(-0.00705 2.02844)"/><path class="cls-37" d="M83.92806,48.8679v2.18457l-.35547-.07128v-1.7627l-1.00781-.21289v1.64258l-.355-.0708V48.92992l-1.09668-.231v1.78516l-.35547-.08008V48.19749Z" transform="translate(-0.00705 2.02844)"/><path class="cls-37" d="M83.92806,51.67162v.42187l-1.563-.333-.00879.00879,1.57178,1.794v.564L82.6224,52.59935l-1.86475,1.01709v-.46631l1.60742-.86572-.53711-.63526-1.07031-.22607v-.42187Z" transform="translate(-0.00705 2.02844)"/><path class="cls-37" d="M84.13314,55.06273a.97.97,0,1,1-.96484-.978A.96492.96492,0,0,1,84.13314,55.06273Zm-1.79736,0a.82782.82782,0,1,0,.83252-.80127A.80034.80034,0,0,0,82.33578,55.06273Zm1.3955-.37842v.43848c0,.26953-.10644.39648-.32421.39648a.29124.29124,0,0,1-.3086-.29834l-.501.32422v-.189l.4878-.30909v-.18652h-.4878v-.17627Zm-.50341.17627v.18408c0,.15576.00781.29834.187.29834.15039,0,.17383-.12988.17383-.249v-.2334Z" transform="translate(-0.00705 2.02844)"/><path class="cls-37" d="M76.99544,38.9431a.76.76,0,0,1,.75733.80127.57738.57738,0,0,1-.59375.62549c-.54395,0-.77344-.60352-1.01563-.98389a.89205.89205,0,0,0-.3833-.36426v1.15967l-.23584-.05029v-1.4209c.67285.05029.82032.65088,1.14746,1.08789a.57819.57819,0,0,0,.4712.28906.34513.34513,0,0,0,.374-.374.49942.49942,0,0,0-.52149-.48731Z" transform="translate(-0.00705 2.02844)"/><path class="cls-37" d="M75.52425,41.426v-.28272l1.69434.36133a2.36087,2.36087,0,0,1-.063-.57519l.21387.04394a.82071.82071,0,0,0,.3833.72022v.207Z" transform="translate(-0.00705 2.02844)"/><path class="cls-37" d="M75.52425,43.23607v-.28272l1.69434.36133a2.36087,2.36087,0,0,1-.063-.57519l.21387.04394a.82071.82071,0,0,0,.3833.72022v.207Z" transform="translate(-0.00705 2.02844)"/><path class="cls-37" d="M77.47933,45.75706v-.91455l-.60351-.17627-.00635.00635a.64887.64887,0,0,1,.12256.39307.61153.61153,0,0,1-.67237.62549.7918.7918,0,0,1-.833-.83936.60252.60252,0,0,1,.63476-.66943v.28271a.35412.35412,0,0,0-.39893.40235.53485.53485,0,0,0,.58448.541.40184.40184,0,0,0,.4497-.44336.45633.45633,0,0,0-.21728-.396v-.23877l1.17578.3457v1.12842Z" transform="translate(-0.00705 2.02844)"/><path class="cls-37" d="M76.28158,48.98167A.94555.94555,0,0,1,75.471,47.988a.88728.88728,0,0,1,.98389-.96142,1.26707,1.26707,0,0,1,1.36718,1.23193.75961.75961,0,0,1-.77636.855v-.29834a.49612.49612,0,0,0,.5249-.55664,1.00845,1.00845,0,0,0-1.11572-.93359c-.437,0-.73243.21386-.73243.66308a.68015.68015,0,0,0,.55909.69483Z" transform="translate(-0.00705 2.02844)"/><rect class="cls-38" x="104.05336" y="66.75029" width="12.21721" height="6.25904"/><path class="cls-39" d="M104.78859,68.96485V67.09949a1.05986,1.05986,0,0,1,.90314-1.16544h8.84943a1.05978,1.05978,0,0,1,.90292,1.16544v1.86536a1.0598,1.0598,0,0,1-.90292,1.16566h-8.84943a1.05988,1.05988,0,0,1-.90314-1.16566Z" transform="translate(-0.00705 2.02844)"/><path class="cls-40" d="M106.1144,69.12024V66.94432a.91854.91854,0,0,1,.78272-1.01027h6.43844a.91869.91869,0,0,1,.78271,1.01027v2.17592a.91891.91891,0,0,1-.78271,1.01027h-6.43844a.91875.91875,0,0,1-.78272-1.01027Z" transform="translate(-0.00705 2.02844)"/><path class="cls-41" d="M106.59589,69.66323v-3.262a.61938.61938,0,0,1,.52792-.68127h5.98505a.6193.6193,0,0,1,.52792.68127v3.262a.61941.61941,0,0,1-.52792.68137h-5.98505a.61949.61949,0,0,1-.52792-.68137Z" transform="translate(-0.00705 2.02844)"/><rect class="cls-42" x="108.08398" y="67.74834" width="4.05062" height="4.62476"/><rect class="cls-38" x="104.05336" y="73.20057" width="12.21721" height="6.25904"/><path class="cls-39" d="M104.78859,75.41513V73.54976a1.05986,1.05986,0,0,1,.90314-1.16544h8.84943a1.05978,1.05978,0,0,1,.90292,1.16544v1.86537a1.0598,1.0598,0,0,1-.90292,1.16565h-8.84943a1.05987,1.05987,0,0,1-.90314-1.16565Z" transform="translate(-0.00705 2.02844)"/><path class="cls-40" d="M106.1144,75.57051V73.39459a.91855.91855,0,0,1,.78272-1.01027h6.43844a.9187.9187,0,0,1,.78271,1.01027v2.17592a.9189.9189,0,0,1-.78271,1.01027h-6.43844a.91875.91875,0,0,1-.78272-1.01027Z" transform="translate(-0.00705 2.02844)"/><path class="cls-41" d="M106.59589,76.1135v-3.262a.61938.61938,0,0,1,.52792-.68127h5.98505a.6193.6193,0,0,1,.52792.68127v3.262a.61942.61942,0,0,1-.52792.68138h-5.98505a.6195.6195,0,0,1-.52792-.68138Z" transform="translate(-0.00705 2.02844)"/><rect class="cls-42" x="108.08398" y="74.19861" width="4.05062" height="4.62476"/><rect class="cls-43" x="91.67369" y="67.17049" width="12.21721" height="5.87272"/><path class="cls-39" d="M92.43625,68.98105V67.17556a1.02585,1.02585,0,0,1,.87415-1.128h8.5654a1.02578,1.02578,0,0,1,.87394,1.128v1.80549a1.02579,1.02579,0,0,1-.87394,1.12825H93.3104a1.02587,1.02587,0,0,1-.87415-1.12825Z" transform="translate(-0.00705 2.02844)"/><path class="cls-40" d="M93.71951,69.13145V67.02537a.88906.88906,0,0,1,.75759-.97785h6.23179a.88921.88921,0,0,1,.7576.97785v2.10608a.88942.88942,0,0,1-.7576.97785H94.4771a.88926.88926,0,0,1-.75759-.97785Z" transform="translate(-0.00705 2.02844)"/><path class="cls-41" d="M94.18554,69.657V66.4997a.5995.5995,0,0,1,.511-.6594h5.79295a.59943.59943,0,0,1,.511.6594V69.657a.59954.59954,0,0,1-.511.65951H94.69652a.59961.59961,0,0,1-.511-.65951Z" transform="translate(-0.00705 2.02844)"/><rect class="cls-2" x="95.62565" y="67.86869" width="3.92061" height="4.47633"/><path class="cls-36" d="M96.05648,67.34251h.74023v.1333a1.99236,1.99236,0,0,0-.25488.44483,2.35115,2.35115,0,0,0-.17773.69238h-.1792a2.20658,2.20658,0,0,1,.15771-.58984,2.37534,2.37534,0,0,1,.30762-.53809h-.59375Z" transform="translate(-0.00705 2.02844)"/><path class="cls-36" d="M96.88656,67.34251h.57861v.14258h-.45605l-.05127.37549.0039.00342a.292.292,0,0,1,.22657-.09668c.19628,0,.32617.15332.32617.42627,0,.2417-.10645.44482-.377.44482a.33708.33708,0,0,1-.35546-.3584h.16113c0,.06739.02539.2378.19775.2378.18311,0,.2124-.20508.2124-.33692,0-.14306-.05322-.293-.21582-.293a.19292.19292,0,0,0-.18359.12647l-.13867-.00733Z" transform="translate(-0.00705 2.02844)"/><path class="cls-36" d="M97.56039,67.3054h.42285a.34444.34444,0,0,1,.13379.65772v.00342a.2133.2133,0,0,1,.18457.21777l.01123.22363c.00537.14453.03076.18116.06933.20508h-.19384a.40162.40162,0,0,1-.044-.18848l-.01123-.20312c-.01465-.17969-.11182-.19043-.19385-.19043h-.21777v.582h-.16113Zm.16113.59375h.15918c.09521,0,.269.00147.269-.25293,0-.12988-.08447-.209-.23633-.209h-.19189Z" transform="translate(-0.00705 2.02844)"/><path class="cls-36" d="M98.40853,67.3054h.3501c.40429,0,.45752.293.45752.65381,0,.32959-.08252.65381-.44141.65381h-.36621Zm.16113,1.17579h.16846c.27832,0,.30957-.28565.30957-.52,0-.25245-.0166-.52393-.30957-.52393h-.16846Z" transform="translate(-0.00705 2.02844)"/><rect class="cls-44" x="46.13609" y="12.83871" width="20.25139" height="9.73468"/><path class="cls-39" d="M47.39548,17.17385V14.181a1.70044,1.70044,0,0,1,1.449-1.86984H63.04258A1.70033,1.70033,0,0,1,64.49124,14.181v2.99281A1.70034,1.70034,0,0,1,63.04258,19.044H48.84449a1.70046,1.70046,0,0,1-1.449-1.87018Z" transform="translate(-0.00705 2.02844)"/><path class="cls-40" d="M49.52262,17.42315V13.93208a1.47371,1.47371,0,0,1,1.25579-1.62088h10.3299a1.474,1.474,0,0,1,1.25579,1.62088v3.49107A1.4743,1.4743,0,0,1,61.10831,19.044H50.77841a1.474,1.474,0,0,1-1.25579-1.62088Z" transform="translate(-0.00705 2.02844)"/><path class="cls-41" d="M50.29513,18.29432V13.06073a.99373.99373,0,0,1,.847-1.093h9.60246a.99362.99362,0,0,1,.847,1.093v5.23359a.9938.9938,0,0,1-.847,1.09321H51.14213a.99391.99391,0,0,1-.847-1.09321Z" transform="translate(-0.00705 2.02844)"/><rect class="cls-2" x="52.68689" y="13.99605" width="6.49885" height="7.42001"/><rect class="cls-43" x="91.81223" y="71.36529" width="12.21721" height="5.87272" transform="translate(195.83463 150.63174) rotate(-180)"/><path class="cls-39" d="M103.27393,73.399V75.2045a1.02584,1.02584,0,0,1-.87416,1.128H93.83438a1.02577,1.02577,0,0,1-.87395-1.128V73.399a1.02579,1.02579,0,0,1,.87395-1.12825h8.56539a1.02586,1.02586,0,0,1,.87416,1.12825Z" transform="translate(-0.00705 2.02844)"/><path class="cls-40" d="M101.99067,73.24861v2.10608a.88905.88905,0,0,1-.75759.97784h-6.2318a.8892.8892,0,0,1-.75759-.97784V73.24861a.88942.88942,0,0,1,.75759-.97785h6.2318a.88926.88926,0,0,1,.75759.97785Z" transform="translate(-0.00705 2.02844)"/><path class="cls-41" d="M101.52463,72.72305v3.15731a.5995.5995,0,0,1-.511.6594h-5.793a.59942.59942,0,0,1-.511-.6594V72.72305a.59953.59953,0,0,1,.511-.65951h5.793a.59961.59961,0,0,1,.511.65951Z" transform="translate(-0.00705 2.02844)"/><rect class="cls-2" x="96.14983" y="74.09193" width="3.92061" height="4.47633"/><path class="cls-36" d="M99.65218,75.03685H98.912v-.1333a1.9915,1.9915,0,0,0,.25488-.44483,2.35129,2.35129,0,0,0,.17774-.69238h.17919a2.20665,2.20665,0,0,1-.15771.58985,2.3749,2.3749,0,0,1-.30762.53808h.59375Z" transform="translate(-0.00705 2.02844)"/><path class="cls-36" d="M98.8221,75.03685h-.57861v-.14258h.45606l.05127-.37549-.00391-.00341a.292.292,0,0,1-.22656.09667c-.19629,0-.32618-.15332-.32618-.42626,0-.2417.10645-.44483.377-.44483a.33709.33709,0,0,1,.35547.3584h-.16114c0-.06738-.02539-.23779-.19775-.23779-.18311,0-.2124.20507-.2124.33691,0,.14307.05322.293.21582.293a.19292.19292,0,0,0,.18359-.12647l.13867.00733Z" transform="translate(-0.00705 2.02844)"/><path class="cls-36" d="M98.14828,75.074h-.42286a.34444.34444,0,0,1-.13378-.65772v-.00341a.2133.2133,0,0,1-.18457-.21778l-.01124-.22363c-.00537-.14453-.03076-.18115-.06933-.20508h.19385a.40175.40175,0,0,1,.04394.18848l.01123.20312c.01465.17969.11182.19043.19385.19043h.21777v-.582h.16114Zm-.16114-.59375H97.828c-.09521,0-.269-.00147-.269.25293,0,.12988.08447.209.23633.209h.19189Z" transform="translate(-0.00705 2.02844)"/><path class="cls-36" d="M97.30013,75.074H96.95c-.40429,0-.45752-.293-.45752-.65381,0-.32959.08252-.65381.44141-.65381h.36621ZM97.139,73.89818h-.16846c-.27832,0-.30957.28564-.30957.52,0,.25244.0166.52392.30957.52392H97.139Z" transform="translate(-0.00705 2.02844)"/><circle class="cls-37" cx="76.59722" cy="35.08838" r="1.24447"/><polygon class="cls-31" points="29.075 2.579 3.055 2.579 3.055 5.187 12.67 5.187 15.85 7.329 19.03 5.187 29.075 5.187 29.075 2.579"/><line class="cls-45" x1="44.42559" y1="12.83871" x2="44.42559" y2="22.5734"/><polyline class="cls-46" points="120.175 65.822 101.518 65.822 101.518 16.636 119.792 16.636"/><polyline class="cls-46" points="131.094 16.636 155.464 16.636 154.7 65.822 130.827 65.822"/><rect class="cls-36" x="103.95853" y="55.44226" width="4.82609" height="2.93478" rx="0.45652"/><rect class="cls-36" x="103.95853" y="51.31959" width="4.82609" height="2.93478" rx="0.45652"/><rect class="cls-36" x="103.95853" y="47.19692" width="4.82609" height="2.93478" rx="0.45652"/><rect class="cls-36" x="103.95853" y="43.07424" width="4.82609" height="2.93478" rx="0.45652"/><rect class="cls-36" x="103.95853" y="38.95157" width="4.82609" height="2.93478" rx="0.45652"/><rect class="cls-36" x="103.95853" y="34.8289" width="4.82609" height="2.93478" rx="0.45652"/><rect class="cls-36" x="103.95853" y="30.70623" width="4.82609" height="2.93478" rx="0.45652"/><rect class="cls-36" x="103.95853" y="26.58356" width="4.82609" height="2.93478" rx="0.45652"/><rect class="cls-47" x="105.91505" y="14.73196" width="69.65217" height="52.5945" rx="1.61531"/><rect class="cls-48" x="105.91505" y="15.74786" width="69.65217" height="50.5627" rx="1.5838"/><path class="cls-49" d="M154.92592,14.732h1.30523a0,0,0,0,1,0,0v2.2479a.65261.65261,0,0,1-.65261.65261h0a.65261.65261,0,0,1-.65261-.65261V14.732a0,0,0,0,1,0,0Z"/><path class="cls-49" d="M156.05092,15.72487h17.31522a.92935.92935,0,0,1,.92935.92935v0a.08152.08152,0,0,1-.08152.08152h-18.163a.08152.08152,0,0,1-.08152-.08152v-.84783a.08152.08152,0,0,1,.08152-.08152Z"/><path class="cls-49" d="M155.52293,64.403h0a.65261.65261,0,0,1,.65261.65261v2.2479a0,0,0,0,1,0,0h-1.30523a0,0,0,0,1,0,0v-2.2479a.65261.65261,0,0,1,.65261-.65261Z"/><path class="cls-49" d="M155.99532,65.2997h18.163a.08152.08152,0,0,1,.08152.08152v0a.92935.92935,0,0,1-.92935.92935H155.99532a.08152.08152,0,0,1-.08152-.08152v-.84783A.08152.08152,0,0,1,155.99532,65.2997Z"/><path class="cls-49" d="M105.91505,26.29008h.98171a.1922.1922,0,0,1,.1922.1922V55.7718a.1922.1922,0,0,1-.1922.1922h-.98171a0,0,0,0,1,0,0V26.29008A0,0,0,0,1,105.91505,26.29008Z"/></g></g></svg>