<svg xmlns="http://www.w3.org/2000/svg" viewBox="0 0 102.72 50"><defs><style>.cls-1{fill:#bcbec0;}.cls-2{fill:#0066b3;}.cls-3{isolation:isolate;}.cls-4{fill:#fff;}</style></defs><g id="Layer_2" data-name="Layer 2"><g id="Layer_1-2" data-name="Layer 1"><g id="Layer_1_copy_2" data-name="Layer 1 copy 2"><path class="cls-1" d="M19.13,11.18H36.57V15h-13v6.62H35v3.61H23.55V36.45H19.13Z"/><path class="cls-1" d="M44.93,11.18h4.7l9.73,25.27H54.63l-2.37-6.69H42.17l-2.38,6.69H35.24ZM43.37,26.4h7.72L47.3,15.53h-.11Z"/><path class="cls-1" d="M84.64,23.82c0-7.19-4.56-13.24-12.1-13.24s-12.11,6-12.11,13.24S65,37.05,72.54,37.05a11.66,11.66,0,0,0,5.94-1.52l3.68,3.22,2.16-2.41-3.25-2.83C83.62,31.18,84.64,27.21,84.64,23.82Zm-6.62,7-3.08-2.68-2.12,2.44,2.55,2.22a6.61,6.61,0,0,1-2.83.6c-5.42,0-7.68-4.78-7.68-9.63s2.26-9.62,7.68-9.62,7.68,4.77,7.68,9.62A11,11,0,0,1,78,30.86Z"/><path class="cls-2" d="M23,36.72h-5V10.91H36v4.36H23v6.08H34.45V25.5H23Zm-4.42-.54h3.89V25H33.91V21.89H22.48V14.73h13V11.45H18.59Z"/><path class="cls-2" d="M59,36.72H53.63l-.06-.18L51.26,30H41.55l-2.37,6.69H34l.14-.36,9.76-25.45H49l.07.17ZM54,36.18h4.16L48.64,11.45H44.31L34.82,36.18h4l2.37-6.69H51.64l.06.18Zm-3.35-9.51H42.19l4-11.41h.49ZM43,26.13h7l-3.47-9.94Z"/><path class="cls-2" d="M81.38,39.13l-3.74-3.26a12,12,0,0,1-5.91,1.46c-7.28,0-12.37-5.55-12.37-13.51s5.2-13.5,12.37-13.5S84.1,16,84.1,23.82c0,4-1.28,7.56-3.44,9.69l3.24,2.81Zm-3.67-3.92.14.13,3.48,3,1.81-2-3.28-2.84.22-.21c2.18-2,3.49-5.55,3.49-9.5,0-7.63-4.87-13-11.84-13s-11.84,5.34-11.84,13,4.87,13,11.84,13a11.36,11.36,0,0,0,5.82-1.48ZM71.83,33.7h-.1c-5.87,0-8-5.33-8-9.89s2.08-9.9,8-9.9,8,5.33,8,9.9A11.25,11.25,0,0,1,77.43,31l-.18.22-3.08-2.69-1.78,2,2.66,2.32-.37.17A6.87,6.87,0,0,1,71.83,33.7Zm-.1-19.25c-5.47,0-7.41,5-7.41,9.36s1.94,9.36,7.41,9.36h.09a6.31,6.31,0,0,0,2.24-.41l-2.42-2.12,2.47-2.85,3.07,2.67a10.81,10.81,0,0,0,2-6.65C79.15,19.49,77.2,14.45,71.73,14.45Z"/><g class="cls-3"><path class="cls-2" d="M22.53,46.24c0,1.36,1.06,1.9,2.27,1.9.79,0,2-.23,2-1.29s-1.55-1.28-3.05-1.7-3.07-1-3.07-2.92c0-2.12,2-3.11,3.85-3.11,2.14,0,4.12.94,4.12,3.31H26.46c-.07-1.22-.94-1.55-2-1.55-.72,0-1.56.3-1.56,1.16s.49.91,3.07,1.56c.76.17,3,.68,3,3,0,1.88-1.47,3.29-4.27,3.29-2.28,0-4.43-1.12-4.38-3.65Z"/><path class="cls-2" d="M33.73,42a3.66,3.66,0,0,1,3.86,3.93,3.65,3.65,0,0,1-3.86,3.92,3.65,3.65,0,0,1-3.84-3.92A3.65,3.65,0,0,1,33.73,42Zm0,6.31c1.4,0,1.82-1.18,1.82-2.38s-.42-2.39-1.82-2.39-1.8,1.2-1.8,2.39S32.35,48.31,33.73,48.31Z"/><path class="cls-2" d="M39.37,43.57H38.14V42.2h1.23v-.57a2.18,2.18,0,0,1,2.49-2.26c.36,0,.73,0,1.08.05V41a6.39,6.39,0,0,0-.75,0c-.56,0-.78.23-.78.85v.44h1.41v1.37H41.41v6.08h-2Z"/><path class="cls-2" d="M46.31,42.2h1.5v1.37h-1.5v3.69c0,.69.17.86.86.86a2.58,2.58,0,0,0,.64-.06v1.6a7.6,7.6,0,0,1-1.2.07c-1.27,0-2.35-.27-2.35-1.77V43.57H43V42.2h1.23V40h2.05Z"/><path class="cls-2" d="M57.3,49.65H55.19l-1.32-5h0l-1.27,5H50.46L48.1,42.2h2.16l1.36,5.06h0l1.24-5.06h2l1.26,5h0l1.37-5h2.11Z"/><path class="cls-2" d="M60.43,44.49c.11-1.9,1.83-2.49,3.5-2.49,1.48,0,3.27.33,3.27,2.12V48a3.77,3.77,0,0,0,.26,1.66H65.38a3,3,0,0,1-.14-.72,3.43,3.43,0,0,1-2.51.92c-1.42,0-2.53-.71-2.53-2.23,0-3.39,5-1.57,5-3.24,0-.87-.6-1-1.32-1s-1.29.32-1.36,1.12ZM65.15,46a4.13,4.13,0,0,1-1.7.43c-.63.11-1.21.34-1.21,1.09s.59.95,1.26.95a1.51,1.51,0,0,0,1.65-1.71Z"/><path class="cls-2" d="M68.78,42.2h2v1.39h0A2.63,2.63,0,0,1,73.13,42a1.63,1.63,0,0,1,.45.07V44a4,4,0,0,0-.74-.07c-1.51,0-2,1.07-2,2.39v3.36h-2Z"/><path class="cls-2" d="M76.07,46.42c.06,1.31.68,1.89,1.83,1.89a1.68,1.68,0,0,0,1.61-1h1.8a3.32,3.32,0,0,1-3.48,2.51A3.63,3.63,0,0,1,74,45.93,3.73,3.73,0,0,1,77.83,42c2.53,0,3.77,2.13,3.61,4.42Zm3.33-1.29c-.19-1-.64-1.59-1.63-1.59a1.61,1.61,0,0,0-1.7,1.59Z"/></g><rect class="cls-2" x="22.63" y="25.15" width="0.4" height="0.2"/><path class="cls-2" d="M21.81,25.35H21v-.2h.81Zm-1.62,0h-.81v-.2h.81Zm-1.62,0h-.82v-.2h.82Zm-1.63,0h-.81v-.2h.81Zm-1.62,0H14.5v-.2h.82Zm-1.63,0h-.81v-.2h.81Zm-1.62,0h-.82v-.2h.82Zm-1.63,0H9.63v-.2h.81Zm-1.62,0H8v-.2h.82Zm-1.63,0H6.38v-.2h.81Zm-1.62,0H4.75v-.2h.82Zm-1.63,0H3.13v-.2h.81Z"/><rect class="cls-2" x="1.92" y="25.15" width="0.4" height="0.2"/><path class="cls-2" d="M67.83,11.28H67v-.2h.81Zm-1.61,0h-.81v-.2h.81Zm-1.61,0h-.8v-.2h.8Zm-1.61,0h-.8v-.2H63Zm-1.61,0h-.8v-.2h.8Zm-1.61,0H59v-.2h.8Zm-1.6,0h-.81v-.2h.81Zm-1.61,0h-.81v-.2h.81Zm-1.61,0h-.8v-.2H55Zm-1.61,0h-.81v-.2h.81Zm-1.61,0h-.8v-.2h.8Zm-1.61,0h-.8v-.2h.8Zm-1.61,0h-.8v-.2h.8Zm-1.6,0h-.81v-.2h.81Zm-1.61,0H44.5v-.2h.81Zm-1.61,0h-.81v-.2h.81Zm-1.61,0h-.81v-.2h.81Zm-1.61,0h-.8v-.2h.8Zm-1.61,0h-.8v-.2h.8Zm-1.61,0h-.8v-.2h.8Zm-1.61,0h-.8v-.2h.8Zm-1.6,0h-.81v-.2h.81Zm-1.61,0h-.81v-.2h.81Z"/><path class="cls-2" d="M88.91,42.78l-.61-.52.13-.16.62.52Zm-1.22-1-.62-.52.13-.16.62.52Zm-1.23-1-.62-.52L86,40l.62.52Zm-1.23-1-.61-.52.13-.15.61.51Zm-1.23-1-.61-.52.13-.15.61.52Zm-1.23-1-.61-.52.13-.15.62.52Zm-1.22-1L80.93,36l.13-.15.62.52Zm-1.23-1L79.7,35l.13-.15.62.52Zm-1.23-1-.61-.52.13-.15.61.52Zm-1.23-1-.61-.51.13-.16.61.52Zm-1.22-1L76,31.87l.13-.16.62.52Zm-1.23-1-.62-.52.13-.16.62.52Zm-1.23-1-.62-.52.13-.16.62.52Zm-1.23-1-.61-.52.13-.16.61.52Zm-1.23-1-.61-.52.13-.15.61.52Zm-1.22-1,0,0L70.6,27h0Z"/><polygon class="cls-2" points="90.06 43.62 89.07 41.7 88.9 42.63 88.01 42.95 90.06 43.62"/><rect class="cls-2" x="69.89" y="27" width="1.31" height="0.2" transform="translate(4.29 63.44) rotate(-49.76)"/><path class="cls-2" d="M5.15,36.88H4l0-.07L3.43,36a3.85,3.85,0,0,1-.66-.28l-1,.27-.85-.85.27-1a3.81,3.81,0,0,1-.27-.66L0,32.91v-1.2l.07,0,.84-.48a3.81,3.81,0,0,1,.27-.66l-.27-1,.85-.85,1,.27a3.77,3.77,0,0,1,.66-.26L4,27.76h1.2l0,.07.49.84a3.81,3.81,0,0,1,.66.27l1-.27.85.85-.27,1a3.81,3.81,0,0,1,.27.66l.91.53v1.19l-.91.54a3.19,3.19,0,0,1-.28.66l.28,1L7.35,36l-1-.27a4.58,4.58,0,0,1-.66.27Zm-1-.27H5l.5-.87h0a3.92,3.92,0,0,0,.71-.29l0,0,1,.26.63-.62-.27-1,0,0a3,3,0,0,0,.3-.71v0l0,0,.82-.49v-.89L8,31.37l0-.05a3.65,3.65,0,0,0-.29-.71l0-.05,0,0,.24-.91L7.27,29l-1,.26,0,0a3.41,3.41,0,0,0-.71-.29h0L5,28H4.11l-.5.87-.06,0a3.93,3.93,0,0,0-.7.28l-.05,0-1-.26-.63.62.26,1,0,.05a3,3,0,0,0-.3.71v.05l0,0-.82.48v.89l.87.5v.05a3,3,0,0,0,.3.71l0,0v0L1.21,35l.63.63,1-.26,0,0a4.45,4.45,0,0,0,.71.3h0Z"/><path class="cls-2" d="M4.6,34.86a2.54,2.54,0,1,1,2.54-2.54A2.54,2.54,0,0,1,4.6,34.86Zm0-4.81a2.27,2.27,0,1,0,2.27,2.27A2.27,2.27,0,0,0,4.6,30.05Z"/><path class="cls-1" d="M14.31,18.47a3.66,3.66,0,0,0,0-.81l.62-.82-.42-.95-1-.12a3.35,3.35,0,0,0-.57-.56l-.13-1-1-.39-.81.63a3.57,3.57,0,0,0-.8,0l-.8-.61-1,.4-.13,1a3.35,3.35,0,0,0-.56.57l-1,.13-.4,1,.63.81a3.57,3.57,0,0,0,0,.8l-.62.81.41,1,1,.12a3,3,0,0,0,.56.56l.14,1,1,.39.8-.63a3.66,3.66,0,0,0,.81,0l.8.62,1-.4L13,21a3.77,3.77,0,0,0,.56-.57l1-.14.4-1Zm-2.68,1.82a2.41,2.41,0,1,1,1.26-3.17v0a2.41,2.41,0,0,1-1.28,3.15Z"/><path class="cls-1" d="M25.39,6.18a2.17,2.17,0,0,0,0-.51l.4-.54-.27-.61-.66-.08a1.75,1.75,0,0,0-.36-.36l-.09-.66-.62-.27-.54.41a2.17,2.17,0,0,0-.51,0l-.54-.4-.62.27-.08.66a3.06,3.06,0,0,0-.36.36l-.65.1-.26.62.45.53a2.26,2.26,0,0,0,0,.52l-.4.53.26.62.66.08a3.06,3.06,0,0,0,.36.36l.09.65.63.27.52-.4h.51l.54.39.62-.26.08-.66a3.06,3.06,0,0,0,.36-.36l.65-.1.25-.62ZM23.66,7.37a1.55,1.55,0,1,1-1.2-2.85,1.54,1.54,0,0,1,2,.82h0A1.55,1.55,0,0,1,23.66,7.37Z"/><rect class="cls-4" x="75.55" y="19.4" width="14.52" height="0.27"/><rect class="cls-2" x="76.19" y="19.43" width="2.26" height="0.2"/><path class="cls-2" d="M97.53,28.06h-.2V21c0-.76-.89-1.37-2-1.37H83.54v-.21h11.8c1.21,0,2.19.71,2.19,1.58Z"/><path class="cls-2" d="M75.29,20.57a1,1,0,1,1,1-1A1,1,0,0,1,75.29,20.57Zm0-1.81a.77.77,0,1,0,.77.77A.78.78,0,0,0,75.29,18.76Z"/><path class="cls-2" d="M97.38,30a1,1,0,1,1,1-1A1,1,0,0,1,97.38,30Zm0-1.81a.77.77,0,1,0,0,1.54.77.77,0,0,0,0-1.54Z"/><path class="cls-1" d="M16.81,46.23H6.36a1.87,1.87,0,0,1-1.87-1.86v-12h.2v12A1.67,1.67,0,0,0,6.36,46H16.81Z"/><circle class="cls-1" cx="4.57" cy="32.1" r="0.66"/><circle class="cls-2" cx="10.65" cy="17.52" r="0.66"/><circle class="cls-2" cx="11.31" cy="33.96" r="0.66"/><circle class="cls-2" cx="23.03" cy="5.98" r="0.66"/><path class="cls-2" d="M10.89,17.71h-.27V7.87a2,2,0,0,1,2-2H23v.26H12.63a1.77,1.77,0,0,0-1.74,1.75Z"/><g class="cls-3"><path class="cls-1" d="M84.69,10.86l-2.51-.3.29-2.46L85,8.4Zm-2.21-.53,2,.24.23-1.93-2-.24ZM84.94,7.8l-2.19-.27.09-.77a3.15,3.15,0,0,1,1.74-2.29c.52-.32.94-.58,1-1.21s-.22-1.2-.94-1.28c-1.25-.15-1.49,1.15-1.54,1.55l0,.14-2.36-.29,0-.13A3.49,3.49,0,0,1,84.25,0l.53,0c2.91.35,3.45,2.34,3.33,3.33a3,3,0,0,1-1.85,2.53c-.57.31-1.06.58-1.24,1.25Zm-1.89-.5,1.65.2,0-.41a2.37,2.37,0,0,1,1.38-1.44,2.67,2.67,0,0,0,1.71-2.32c.11-.9-.39-2.7-3.1-3A3.23,3.23,0,0,0,81,3.15l1.82.22c.18-1.14.89-1.77,1.83-1.66a1.26,1.26,0,0,1,1.17,1.58c-.07.76-.59,1.07-1.13,1.41a2.88,2.88,0,0,0-1.61,2.1Z"/></g><g class="cls-3"><path class="cls-2" d="M90,14.88,87.3,12.7,89.43,10l2.73,2.17-.08.11Zm-2.36-2.22L90,14.5l1.8-2.27-2.32-1.84Zm5-1.33L90.26,9.44l.66-.82a4.36,4.36,0,0,1,3.62-1.47h.33a2.15,2.15,0,0,0,2-.75,1.77,1.77,0,0,0,.48-1.29,1.61,1.61,0,0,0-.67-1.06,1.81,1.81,0,0,0-1.34-.42A2.88,2.88,0,0,0,93.55,4.8l-.08.11L90.89,2.86l.09-.1a5,5,0,0,1,7.25-.89c3.25,2.59,2.44,5.37,1.56,6.48A4.19,4.19,0,0,1,95.69,10a3,3,0,0,0-2.5.61Zm-2-1.93,2,1.56.4-.51a3.19,3.19,0,0,1,2.7-.7,3.91,3.91,0,0,0,3.88-1.57c.82-1,1.56-3.65-1.52-6.1a4.7,4.7,0,0,0-6.79.75l2.16,1.71a3,3,0,0,1,1.89-1.18,2.14,2.14,0,0,1,1.53.48,1.88,1.88,0,0,1,.76,1.24,2,2,0,0,1-.53,1.49,2.5,2.5,0,0,1-2.38.84h-.16a4.09,4.09,0,0,0-3.42,1.38Z"/></g><polygon class="cls-1" points="7.07 46.2 6.93 46.06 7.57 45.42 15.65 45.42 15.65 45.62 7.66 45.62 7.07 46.2"/><rect class="cls-1" x="7" y="46" width="9.81" height="0.27"/><rect class="cls-1" x="9.05" y="46.7" width="7.76" height="0.13"/><polygon class="cls-1" points="15.65 47.6 9.61 47.6 9.58 47.57 8.22 46.2 8.36 46.06 9.7 47.4 15.65 47.4 15.65 47.6"/></g><g id="Layer_8" data-name="Layer 8"><rect class="cls-2" x="9.7" y="37.08" width="1.65" height="3.78"/><rect class="cls-2" x="11.64" y="38.37" width="1.65" height="2.49"/><rect class="cls-2" x="13.57" y="35.79" width="1.65" height="5.06"/><rect class="cls-2" x="9.38" y="41.11" width="6.2" height="0.3"/><path class="cls-2" d="M11.45,33.51h-.2V33.3h.2Zm0-1h-.2v-.8h.2Zm0-1.61h-.2v-.8h.2Zm0-1.6h-.2v-.81h.2Zm0-1.61h-.2v-.81h.2Zm0-1.61h-.2v-.81h.2Z"/><path class="cls-1" d="M51.27,6.59h-.16v-.2h.16Zm-.43,0h-.27v-.2h.27Zm-.54,0H50v-.2h.27Zm-.53,0H49.5v-.2h.27Zm-.54,0H49v-.2h.27Zm-.54,0h-.26v-.2h.26Zm-.53,0h-.27v-.2h.27Zm-.54,0h-.27v-.2h.27Zm-.53,0h-.27v-.2h.27Zm-.54,0h-.27v-.2h.27Zm-.54,0h-.26v-.2H46Zm-.53,0h-.27v-.2h.27Zm-.54,0h-.27v-.2h.27Zm-.54,0h-.26v-.2h.26Zm-.53,0H43.6v-.2h.27Zm-.54,0h-.27v-.2h.27Zm-.54,0h-.26v-.2h.26Zm-.53,0H42v-.2h.27Zm-.54,0h-.27v-.2h.27Zm-.53,0h-.27v-.2h.27Zm-.54,0h-.27v-.2h.27Zm-.54,0h-.26v-.2h.26Z"/><path class="cls-1" d="M68.61,6.59h-.16v-.2h.16Zm-.43,0h-.26v-.2h.26Zm-.53,0h-.27v-.2h.27Zm-.54,0h-.27v-.2h.27Zm-.53,0h-.27v-.2h.27Zm-.54,0h-.27v-.2H66Zm-.54,0h-.26v-.2h.26Zm-.53,0H64.7v-.2H65Zm-.54,0h-.27v-.2h.27Zm-.54,0h-.26v-.2h.26Zm-.53,0h-.27v-.2h.27Zm-.54,0h-.27v-.2h.27Zm-.53,0H62v-.2h.27Zm-.54,0h-.27v-.2h.27Zm-.54,0H61v-.2h.26Zm-.53,0h-.27v-.2h.27Zm-.54,0h-.27v-.2h.27Zm-.53,0h-.27v-.2h.27Zm-.54,0H58.8v-.2h.27Zm-.54,0h-.26v-.2h.26Zm-.53,0h-.27v-.2H58Zm-.54,0h-.27v-.2h.27Z"/><path class="cls-2" d="M56.77,3.7h-.2V3.54A2.28,2.28,0,0,0,52,3.33a1.76,1.76,0,0,1,.68,1.37h0a1.42,1.42,0,0,1,1.43,1.38,1.39,1.39,0,0,1-.63,1.15h3.27a1.77,1.77,0,1,0,.14-3.54h-.15Z"/><path class="cls-2" d="M53.9,6.09A1.15,1.15,0,0,0,52.71,5h-.28V4.72a1.5,1.5,0,0,0-3-.12v.13l-.13,0h-.17a1.26,1.26,0,0,0,0,2.52h3.58A1.17,1.17,0,0,0,53.9,6.09Z"/><path class="cls-2" d="M75,5.18h-.62a.09.09,0,0,0-.1.1h0v.88H69.43V5.28a.09.09,0,0,0-.1-.1h-.62a.1.1,0,0,0-.1.1V6.89a.11.11,0,0,0,.1.1H75a.11.11,0,0,0,.1-.1h0V5.28a.1.1,0,0,0-.1-.1Z"/><rect class="cls-2" x="70.77" y="0.35" width="2.18" height="0.76" rx="0.12"/><path class="cls-2" d="M70.54,4.05l1.13,1.32a.3.3,0,0,0,.4,0L73.2,4.05l1.12-1.32c.09-.11,0-.24-.2-.24H72.94V1.4a.1.1,0,0,0-.1-.1h-2a.1.1,0,0,0-.1.1V2.49H69.62c-.18,0-.29.13-.2.24Z"/><rect class="cls-2" x="34.47" y="0.49" width="2.6" height="2.06" rx="0.13"/><rect class="cls-2" x="37.79" y="5.33" width="2.6" height="2.06" rx="0.13"/><rect class="cls-2" x="34.47" y="5.33" width="2.6" height="2.06" rx="0.13"/><rect class="cls-2" x="31.16" y="5.33" width="2.6" height="2.06" rx="0.13"/><path class="cls-2" d="M39.37,3.78a.13.13,0,0,0-.14-.13H36V2.91a.13.13,0,0,0-.13-.13h-.27a.13.13,0,0,0-.14.13v.74H32.3a.13.13,0,0,0-.13.13V4.92a.13.13,0,0,0,.13.13h.27a.14.14,0,0,0,.14-.13V4.19H35.5v.74a.13.13,0,0,0,.14.13h.26A.13.13,0,0,0,36,4.93V4.19h2.79V5a.13.13,0,0,0,.13.13h.27A.13.13,0,0,0,39.37,5V3.78Z"/><path class="cls-2" d="M89.21,25.12a2.11,2.11,0,0,1,3,0h0l.08.09c.08.1.27.07.42-.08l.11-.12c.15-.15.2-.35.12-.45l-.09-.09a3,3,0,0,0-4.28,0h0l-.08.09c-.08.1,0,.3.12.45l.11.12c.15.15.34.18.42.08Z"/><path class="cls-2" d="M91.25,26.58a.77.77,0,0,1-1.08,0,.76.76,0,1,1,1.07-1.09h0A.77.77,0,0,1,91.25,26.58Z"/><path class="cls-2" d="M87.2,23.19l-.07.07c-.07.08,0,.27.14.42l.11.11c.15.14.33.2.4.11l.07-.07s0,0,0,0a4,4,0,0,1,5.63,0l.08.08.05.06c.06.07.23,0,.38-.14l.11-.11c.15-.15.22-.33.16-.4l-.06-.06-.07-.08a4.91,4.91,0,0,0-6.93,0Z"/><path class="cls-2" d="M88.69,29.46h0a5.5,5.5,0,0,0-1,.31,10,10,0,0,1-1.4.37c-.41.11-.34.6-.34.6s.16,2,.22,2.3c.3,1.55,2.54,2.81,2.54,2.81h0s2.29-1.22,2.6-2.8c.06-.34.23-2.36.23-2.36s.07-.5-.35-.6a12.19,12.19,0,0,1-1.45-.34,4.89,4.89,0,0,0-1-.29h0Zm.81.72a6.91,6.91,0,0,0,1.11.27l.35.09s0,0,0,.08v0c-.06.77-.17,2.08-.22,2.3a3.42,3.42,0,0,1-1.24,1.72,8.27,8.27,0,0,1-.85.61,7.19,7.19,0,0,1-.84-.61A3.42,3.42,0,0,1,86.59,33c0-.22-.16-1.51-.22-2.26a0,0,0,0,0,0,0v-.09l.35-.08a6.64,6.64,0,0,0,1.08-.3,6.59,6.59,0,0,1,.86-.27,7.46,7.46,0,0,1,.84.26Z"/><path class="cls-2" d="M88.68,30.1h0a3.61,3.61,0,0,0-.77.24,7.79,7.79,0,0,1-1,.29c-.3.08-.24.47-.24.47s.11,1.55.15,1.81c.23,1.22,1.88,2.19,1.88,2.19h0s1.69-1,1.92-2.19c0-.27.16-1.84.16-1.84s.06-.39-.25-.47a10,10,0,0,1-1.08-.27,3.65,3.65,0,0,0-.73-.23h0Z"/><g class="cls-3"><path class="cls-1" d="M99.09,16.8a1.73,1.73,0,0,1-1.39-.71,1.1,1.1,0,0,0-.82-.49l-.41.05L96.3,14.3l.49-.06h.1a1.84,1.84,0,0,1,1.44.67c.24.24.42.41.75.37a.73.73,0,0,0,.44-.2.55.55,0,0,0,.08-.43c-.07-.62-.71-.61-1-.58h-.14l-.17-1.45h.13a2,2,0,0,1,2.37,1.83,2.3,2.3,0,0,1-.38,1.74,1.62,1.62,0,0,1-1,.6Zm-2.22-1.47a1.34,1.34,0,0,1,1,.58,1.45,1.45,0,0,0,1.46.6,1.29,1.29,0,0,0,.86-.5,2,2,0,0,0,.33-1.54,1.76,1.76,0,0,0-1.83-1.61H98.6l.11.91h.1a1,1,0,0,1,1.06.83.84.84,0,0,1-.14.62.88.88,0,0,1-.62.3,1.11,1.11,0,0,1-1-.44,1.57,1.57,0,0,0-1.24-.59h-.09l-.21,0,.1.82Zm-2.12.59-.19-1.53,1.51-.18.18,1.53Zm.11-1.29.12,1,1-.11-.12-1Z"/></g></g><g id="Layer_4" data-name="Layer 4"><path class="cls-2" d="M96.9,32.43a3.6,3.6,0,0,0-2.26.86,3.9,3.9,0,0,0-1,3.44l1.13-1c.65-.58,1.29-1.12,1.93-1.63a18.77,18.77,0,0,0,3,2.7A2.14,2.14,0,0,1,98,38a.46.46,0,1,0,0,.22,2.34,2.34,0,0,0,1.88-1.34l.23.17S100.67,32.2,96.9,32.43Z"/><path class="cls-2" d="M94.72,40.82H96l0-1a4.26,4.26,0,0,0,.8.08,3.71,3.71,0,0,0,.88-.1l0,1h1.49a2.34,2.34,0,0,1,1.5.54v-6.7a3.56,3.56,0,0,0-3.54-3.54h-.63A3.56,3.56,0,0,0,93,34.66v7A2.37,2.37,0,0,1,94.72,40.82Zm2.15-9.2A3.63,3.63,0,0,1,100,37.05a3.23,3.23,0,0,1-3.15,2.56h0a3.24,3.24,0,0,1-3.15-2.56,3.62,3.62,0,0,1,1.34-4.95A3.58,3.58,0,0,1,96.87,31.62Z"/><path class="cls-2" d="M101.57,42.57H92.35l0-.13a2.45,2.45,0,0,1,2.33-1.72h4.47a2.45,2.45,0,0,1,2.34,1.72Zm-8.95-.2h8.67a2.26,2.26,0,0,0-2.1-1.45H94.72A2.26,2.26,0,0,0,92.62,42.37Z"/><path class="cls-1" d="M101.48,50h-9a1.24,1.24,0,0,1-1.24-1.24V43.44a1.24,1.24,0,0,1,1.24-1.24h9a1.24,1.24,0,0,1,1.24,1.24v5.32A1.24,1.24,0,0,1,101.48,50Zm-9-7.26a.71.71,0,0,0-.71.7v5.32a.7.7,0,0,0,.71.7h9a.7.7,0,0,0,.71-.7V43.44a.71.71,0,0,0-.71-.7Z"/><path class="cls-1" d="M97,44.17a1.91,1.91,0,1,0,1.9,1.91h0a1.89,1.89,0,0,0-1.9-1.9Zm0,3.56a1.66,1.66,0,1,1,1.66-1.66h0A1.66,1.66,0,0,1,97,47.73Z"/><path class="cls-1" d="M97,44.66a1.42,1.42,0,1,0,1.42,1.42h0A1.42,1.42,0,0,0,97,44.66Zm.32,2.22a.31.31,0,0,1-.29.35.32.32,0,0,1-.35-.29V46.1a.32.32,0,0,1,.35-.29.32.32,0,0,1,.29.29ZM97,45.64a.32.32,0,0,1-.32-.32A.32.32,0,0,1,97,45a.33.33,0,0,1,.32.32h0a.32.32,0,0,1-.32.32Z"/></g></g></g></svg>