<svg xmlns="http://www.w3.org/2000/svg" viewBox="0 0 410.07 429.93"><defs><style>.cls-1{fill:none;stroke:#1e1e1e;stroke-miterlimit:10;}.cls-2{fill:#1e1e1e;}.cls-3{fill:#e0ac52;}.cls-4{fill:#fff;}.cls-5{fill:#b1946d;}.cls-6{fill:#f5f7f6;}.cls-7{fill:#1f1d1f;}.cls-8{fill:#c6c6c5;}.cls-9{fill:#cfc0aa;}.cls-10{fill:#f2edde;}.cls-11{fill:#656b61;}</style></defs><g id="Layer_2" data-name="Layer 2"><g id="RAK14010"><path class="cls-1" d="M.5.5V429.43H409.57V.5ZM37.85,400.15a10.5,10.5,0,1,1,10.5-10.5A10.5,10.5,0,0,1,37.85,400.15Zm0-351.78a10.5,10.5,0,1,1,10.5-10.5A10.5,10.5,0,0,1,37.85,48.37ZM371,400.15a10.5,10.5,0,1,1,10.5-10.5A10.5,10.5,0,0,1,371,400.15Zm0-351.78a10.5,10.5,0,1,1,10.5-10.5A10.5,10.5,0,0,1,371,48.37Z"/><path class="cls-2" d="M.5.5V429.43H409.57V.5ZM37.85,400.15a10.5,10.5,0,1,1,10.5-10.5A10.5,10.5,0,0,1,37.85,400.15Zm0-351.78a10.5,10.5,0,1,1,10.5-10.5A10.5,10.5,0,0,1,37.85,48.37ZM371,400.15a10.5,10.5,0,1,1,10.5-10.5A10.5,10.5,0,0,1,371,400.15Zm0-351.78a10.5,10.5,0,1,1,10.5-10.5A10.5,10.5,0,0,1,371,48.37Z"/><path class="cls-3" d="M37.85,370.15a19.5,19.5,0,1,0,19.5,19.5A19.5,19.5,0,0,0,37.85,370.15Zm0,30a10.5,10.5,0,1,1,10.5-10.5A10.5,10.5,0,0,1,37.85,400.15Z"/><path class="cls-3" d="M37.85,18.37a19.5,19.5,0,1,0,19.5,19.5A19.5,19.5,0,0,0,37.85,18.37Zm0,30a10.5,10.5,0,1,1,10.5-10.5A10.5,10.5,0,0,1,37.85,48.37Z"/><path class="cls-3" d="M371,370.15a19.5,19.5,0,1,0,19.5,19.5A19.5,19.5,0,0,0,371,370.15Zm0,30a10.5,10.5,0,1,1,10.5-10.5A10.5,10.5,0,0,1,371,400.15Z"/><path class="cls-3" d="M371,18.37a19.5,19.5,0,1,0,19.5,19.5A19.5,19.5,0,0,0,371,18.37Zm0,30a10.5,10.5,0,1,1,10.5-10.5A10.5,10.5,0,0,1,371,48.37Z"/><path class="cls-4" d="M272.57,425.43H136V374.87h28.5a.4.4,0,1,1,0,.79h-27.7v49h135v-49H245a.4.4,0,1,1,0-.79h27.56Z"/><path class="cls-5" d="M245.89,380.11a2.29,2.29,0,0,0,1.34-2,1,1,0,0,1,1-.79h13.88a2,2,0,0,1,2.19,2.11v1.74H250.31l-4.37,4.38Z"/><path class="cls-5" d="M162.65,380.11a2.29,2.29,0,0,1-1.34-2,1,1,0,0,0-1-.79H146.46a2,2,0,0,0-2.18,2.11v1.74h13.94l4.38,4.38Z"/><path class="cls-6" d="M139.15,389h31a0,0,0,0,1,0,0v22.53a0,0,0,0,1,0,0H135.28a3.22,3.22,0,0,1-3.22-3.22V396.09A7.09,7.09,0,0,1,139.15,389Z" transform="translate(551.4 249.14) rotate(90)"/><path class="cls-6" d="M241.31,389h34.91a0,0,0,0,1,0,0v22.53a0,0,0,0,1,0,0H245a6.91,6.91,0,0,1-6.91-6.91V392.22a3.22,3.22,0,0,1,3.22-3.22Z" transform="translate(657.43 143.12) rotate(90)"/><path class="cls-7" d="M269.19,421V409.47H245.9V420H162.65V409.47H139.36V421a3.1,3.1,0,0,0,3.1,3.1H266.09A3.1,3.1,0,0,0,269.19,421Z"/><path class="cls-8" d="M245.89,409.47h15.45a1.25,1.25,0,0,0,.89-.36l1.66-1.66a1.26,1.26,0,0,0,.37-.89V382.67a1.26,1.26,0,0,0-.37-.89l-1.31-1.3a1.22,1.22,0,0,0-.88-.37H249a1.27,1.27,0,0,0-1.27,1.06A2.19,2.19,0,0,1,246.6,383a1.2,1.2,0,0,0-.71,1.14Z"/><path class="cls-8" d="M162.65,409.47H147.19a1.25,1.25,0,0,1-.88-.36l-1.66-1.66a1.26,1.26,0,0,1-.37-.89V382.67a1.26,1.26,0,0,1,.37-.89l1.3-1.3a1.26,1.26,0,0,1,.89-.37h12.69a1.26,1.26,0,0,1,1.26,1.06,2.2,2.2,0,0,0,1.15,1.84,1.2,1.2,0,0,1,.71,1.14Z"/><rect class="cls-9" x="162.65" y="379.47" width="83.24" height="40.52"/><rect class="cls-10" x="162.65" y="383.18" width="83.24" height="36.81"/><rect class="cls-4" x="232.59" y="372.97" width="17.46" height="2.96" rx="1.17" transform="translate(615.77 133.13) rotate(90)"/><path class="cls-11" d="M241.67,364.84h.25a0,0,0,0,1,0,0v3a0,0,0,0,1,0,0h-.25a.95.95,0,0,1-.95-.95v-1.07A.95.95,0,0,1,241.67,364.84Z" transform="translate(607.64 124.99) rotate(90)"/><rect class="cls-11" x="241.08" y="367.75" width="0.49" height="2.96" transform="translate(610.55 127.9) rotate(90)"/><rect class="cls-4" x="227.68" y="372.97" width="17.46" height="2.96" rx="1.17" transform="translate(610.86 138.04) rotate(90)"/><path class="cls-11" d="M236.76,364.84H237a0,0,0,0,1,0,0v3a0,0,0,0,1,0,0h-.25a.95.95,0,0,1-.95-.95v-1.07A.95.95,0,0,1,236.76,364.84Z" transform="translate(602.73 129.91) rotate(90)"/><rect class="cls-11" x="236.16" y="367.75" width="0.49" height="2.96" transform="translate(605.64 132.82) rotate(90)"/><rect class="cls-4" x="222.76" y="372.97" width="17.46" height="2.96" rx="1.17" transform="translate(605.95 142.95) rotate(90)"/><path class="cls-11" d="M231.84,364.84h.25a0,0,0,0,1,0,0v3a0,0,0,0,1,0,0h-.25a.95.95,0,0,1-.95-.95v-1.07A.95.95,0,0,1,231.84,364.84Z" transform="translate(597.81 134.82) rotate(90)"/><rect class="cls-11" x="231.25" y="367.75" width="0.49" height="2.96" transform="translate(600.72 137.73) rotate(90)"/><rect class="cls-4" x="217.85" y="372.97" width="17.46" height="2.96" rx="1.17" transform="translate(601.03 147.87) rotate(90)"/><path class="cls-11" d="M226.93,364.84h.25a0,0,0,0,1,0,0v3a0,0,0,0,1,0,0h-.25a.95.95,0,0,1-.95-.95v-1.07A.95.95,0,0,1,226.93,364.84Z" transform="translate(592.9 139.73) rotate(90)"/><rect class="cls-11" x="226.34" y="367.75" width="0.49" height="2.96" transform="translate(595.81 142.64) rotate(90)"/><rect class="cls-4" x="212.94" y="372.97" width="17.46" height="2.96" rx="1.17" transform="translate(596.12 152.78) rotate(90)"/><path class="cls-11" d="M222,364.84h.25a0,0,0,0,1,0,0v3a0,0,0,0,1,0,0H222a.95.95,0,0,1-.95-.95v-1.07a.95.95,0,0,1,.95-.95Z" transform="translate(587.98 144.65) rotate(90)"/><rect class="cls-11" x="221.42" y="367.75" width="0.49" height="2.96" transform="translate(590.9 147.56) rotate(90)"/><rect class="cls-4" x="208.02" y="372.97" width="17.46" height="2.96" rx="1.17" transform="translate(591.2 157.7) rotate(90)"/><path class="cls-11" d="M217.1,364.84h.25a0,0,0,0,1,0,0v3a0,0,0,0,1,0,0h-.25a.95.95,0,0,1-.95-.95v-1.07a.95.95,0,0,1,.95-.95Z" transform="translate(583.07 149.56) rotate(90)"/><rect class="cls-11" x="216.51" y="367.75" width="0.49" height="2.96" transform="translate(585.98 152.47) rotate(90)"/><rect class="cls-4" x="203.11" y="372.97" width="17.46" height="2.96" rx="1.17" transform="translate(586.29 162.61) rotate(90)"/><path class="cls-11" d="M212.19,364.84h.25a0,0,0,0,1,0,0v3a0,0,0,0,1,0,0h-.25a.95.95,0,0,1-.95-.95v-1.07A.95.95,0,0,1,212.19,364.84Z" transform="translate(578.16 154.48) rotate(90)"/><rect class="cls-11" x="211.59" y="367.75" width="0.49" height="2.96" transform="translate(581.07 157.39) rotate(90)"/><rect class="cls-4" x="198.19" y="372.97" width="17.46" height="2.96" rx="1.17" transform="translate(581.38 167.52) rotate(90)"/><path class="cls-11" d="M207.27,364.84h.25a0,0,0,0,1,0,0v3a0,0,0,0,1,0,0h-.25a.95.95,0,0,1-.95-.95v-1.07A.95.95,0,0,1,207.27,364.84Z" transform="translate(573.24 159.39) rotate(90)"/><rect class="cls-11" x="206.68" y="367.75" width="0.49" height="2.96" transform="translate(576.15 162.3) rotate(90)"/><rect class="cls-4" x="193.28" y="372.97" width="17.46" height="2.96" rx="1.17" transform="translate(576.46 172.44) rotate(90)"/><path class="cls-11" d="M202.36,364.84h.25a0,0,0,0,1,0,0v3a0,0,0,0,1,0,0h-.25a.95.95,0,0,1-.95-.95v-1.07A.95.95,0,0,1,202.36,364.84Z" transform="translate(568.33 164.3) rotate(90)"/><rect class="cls-11" x="201.77" y="367.75" width="0.49" height="2.96" transform="translate(571.24 167.21) rotate(90)"/><rect class="cls-4" x="188.37" y="372.97" width="17.46" height="2.96" rx="1.17" transform="translate(571.55 177.35) rotate(90)"/><path class="cls-11" d="M197.45,364.84h.25a0,0,0,0,1,0,0v3a0,0,0,0,1,0,0h-.25a.95.95,0,0,1-.95-.95v-1.07a.95.95,0,0,1,.95-.95Z" transform="translate(563.42 169.22) rotate(90)"/><rect class="cls-11" x="196.85" y="367.75" width="0.49" height="2.96" transform="translate(566.33 172.13) rotate(90)"/><rect class="cls-4" x="183.45" y="372.97" width="17.46" height="2.96" rx="1.17" transform="translate(566.64 182.26) rotate(90)"/><path class="cls-11" d="M192.53,364.84h.25a0,0,0,0,1,0,0v3a0,0,0,0,1,0,0h-.25a.95.95,0,0,1-.95-.95v-1.07a.95.95,0,0,1,.95-.95Z" transform="translate(558.5 174.13) rotate(90)"/><rect class="cls-11" x="191.94" y="367.75" width="0.49" height="2.96" transform="translate(561.41 177.04) rotate(90)"/><rect class="cls-4" x="178.54" y="372.97" width="17.46" height="2.96" rx="1.17" transform="translate(561.72 187.18) rotate(90)"/><path class="cls-11" d="M187.62,364.84h.25a0,0,0,0,1,0,0v3a0,0,0,0,1,0,0h-.25a.95.95,0,0,1-.95-.95v-1.07A.95.95,0,0,1,187.62,364.84Z" transform="translate(553.59 179.04) rotate(90)"/><rect class="cls-11" x="187.02" y="367.75" width="0.49" height="2.96" transform="translate(556.5 181.96) rotate(90)"/><rect class="cls-4" x="173.63" y="372.97" width="17.46" height="2.96" rx="1.17" transform="translate(556.81 192.09) rotate(90)"/><path class="cls-11" d="M182.7,364.84H183a0,0,0,0,1,0,0v3a0,0,0,0,1,0,0h-.25a.95.95,0,0,1-.95-.95v-1.07A.95.95,0,0,1,182.7,364.84Z" transform="translate(548.67 183.96) rotate(90)"/><rect class="cls-11" x="182.11" y="367.75" width="0.49" height="2.96" transform="translate(551.58 186.87) rotate(90)"/><rect class="cls-4" x="168.71" y="372.97" width="17.46" height="2.96" rx="1.17" transform="translate(551.89 197.01) rotate(90)"/><path class="cls-11" d="M177.79,364.84H178a0,0,0,0,1,0,0v3a0,0,0,0,1,0,0h-.25a.95.95,0,0,1-.95-.95v-1.07a.95.95,0,0,1,.95-.95Z" transform="translate(543.76 188.87) rotate(90)"/><rect class="cls-11" x="177.2" y="367.75" width="0.49" height="2.96" transform="translate(546.67 191.78) rotate(90)"/><rect class="cls-4" x="163.8" y="372.97" width="17.46" height="2.96" rx="1.17" transform="translate(546.98 201.92) rotate(90)"/><path class="cls-11" d="M172.88,364.84h.25a0,0,0,0,1,0,0v3a0,0,0,0,1,0,0h-.25a.95.95,0,0,1-.95-.95v-1.07a.95.95,0,0,1,.95-.95Z" transform="translate(538.85 193.79) rotate(90)"/><rect class="cls-11" x="172.28" y="367.75" width="0.49" height="2.96" transform="translate(541.76 196.7) rotate(90)"/><rect class="cls-4" x="158.88" y="372.97" width="17.46" height="2.96" rx="1.17" transform="translate(542.07 206.83) rotate(90)"/><path class="cls-11" d="M168,364.84h.25a0,0,0,0,1,0,0v3a0,0,0,0,1,0,0H168a.95.95,0,0,1-.95-.95v-1.07A.95.95,0,0,1,168,364.84Z" transform="translate(533.93 198.7) rotate(90)"/><rect class="cls-11" x="167.37" y="367.75" width="0.49" height="2.96" transform="translate(536.84 201.61) rotate(90)"/><circle class="cls-4" cx="33.05" cy="328.97" r="7.25"/><path class="cls-8" d="M33.05,336.83A7.86,7.86,0,1,1,40.91,329,7.87,7.87,0,0,1,33.05,336.83Zm0-14.51A6.65,6.65,0,1,0,39.69,329,6.65,6.65,0,0,0,33.05,322.32Z"/><circle class="cls-4" cx="33.05" cy="286.45" r="7.25"/><path class="cls-8" d="M33.05,294.3a7.86,7.86,0,1,1,7.86-7.85A7.87,7.87,0,0,1,33.05,294.3Zm0-14.5a6.65,6.65,0,1,0,6.64,6.65A6.65,6.65,0,0,0,33.05,279.8Z"/><circle class="cls-4" cx="33.05" cy="233.75" r="7.25"/><path class="cls-8" d="M33.05,241.61a7.86,7.86,0,1,1,7.86-7.86A7.87,7.87,0,0,1,33.05,241.61Zm0-14.5a6.64,6.64,0,1,0,6.64,6.64A6.65,6.65,0,0,0,33.05,227.11Z"/><circle class="cls-4" cx="33.05" cy="190.71" r="7.25"/><path class="cls-8" d="M33.05,198.57a7.86,7.86,0,1,1,7.86-7.86A7.87,7.87,0,0,1,33.05,198.57Zm0-14.51a6.65,6.65,0,1,0,6.64,6.65A6.65,6.65,0,0,0,33.05,184.06Z"/><circle class="cls-4" cx="33.05" cy="137.75" r="7.25"/><path class="cls-8" d="M33.05,145.61a7.86,7.86,0,1,1,7.86-7.86A7.87,7.87,0,0,1,33.05,145.61Zm0-14.5a6.64,6.64,0,1,0,6.64,6.64A6.65,6.65,0,0,0,33.05,131.11Z"/><circle class="cls-4" cx="33.05" cy="95.49" r="7.25"/><path class="cls-8" d="M33.05,103.35a7.86,7.86,0,1,1,7.86-7.86A7.87,7.87,0,0,1,33.05,103.35Zm0-14.5a6.64,6.64,0,1,0,6.64,6.64A6.65,6.65,0,0,0,33.05,88.85Z"/><circle class="cls-4" cx="94.8" cy="328.97" r="7.25"/><path class="cls-8" d="M94.8,336.83a7.86,7.86,0,1,1,7.85-7.86A7.87,7.87,0,0,1,94.8,336.83Zm0-14.51a6.65,6.65,0,1,0,6.64,6.65A6.65,6.65,0,0,0,94.8,322.32Z"/><circle class="cls-4" cx="94.8" cy="286.45" r="7.25"/><path class="cls-8" d="M94.8,294.3a7.86,7.86,0,1,1,7.85-7.85A7.86,7.86,0,0,1,94.8,294.3Zm0-14.5a6.65,6.65,0,1,0,6.64,6.65A6.65,6.65,0,0,0,94.8,279.8Z"/><circle class="cls-4" cx="94.8" cy="233.75" r="7.25"/><path class="cls-8" d="M94.8,241.61a7.86,7.86,0,1,1,7.85-7.86A7.87,7.87,0,0,1,94.8,241.61Zm0-14.5a6.64,6.64,0,1,0,6.64,6.64A6.65,6.65,0,0,0,94.8,227.11Z"/><circle class="cls-4" cx="94.8" cy="190.71" r="7.25"/><path class="cls-8" d="M94.8,198.57a7.86,7.86,0,1,1,7.85-7.86A7.87,7.87,0,0,1,94.8,198.57Zm0-14.51a6.65,6.65,0,1,0,6.64,6.65A6.65,6.65,0,0,0,94.8,184.06Z"/><circle class="cls-4" cx="94.8" cy="137.75" r="7.25"/><path class="cls-8" d="M94.8,145.61a7.86,7.86,0,1,1,7.85-7.86A7.87,7.87,0,0,1,94.8,145.61Zm0-14.5a6.64,6.64,0,1,0,6.64,6.64A6.65,6.65,0,0,0,94.8,131.11Z"/><circle class="cls-4" cx="94.8" cy="95.49" r="7.25"/><path class="cls-8" d="M94.8,103.35a7.86,7.86,0,1,1,7.85-7.86A7.87,7.87,0,0,1,94.8,103.35Zm0-14.5a6.64,6.64,0,1,0,6.64,6.64A6.65,6.65,0,0,0,94.8,88.85Z"/><circle class="cls-4" cx="128.12" cy="328.97" r="7.25"/><path class="cls-8" d="M128.12,336.83A7.86,7.86,0,1,1,136,329,7.87,7.87,0,0,1,128.12,336.83Zm0-14.51a6.65,6.65,0,1,0,6.65,6.65A6.65,6.65,0,0,0,128.12,322.32Z"/><circle class="cls-4" cx="128.12" cy="286.45" r="7.25"/><path class="cls-8" d="M128.12,294.3a7.86,7.86,0,1,1,7.86-7.85A7.87,7.87,0,0,1,128.12,294.3Zm0-14.5a6.65,6.65,0,1,0,6.65,6.65A6.65,6.65,0,0,0,128.12,279.8Z"/><circle class="cls-4" cx="128.12" cy="233.75" r="7.25"/><path class="cls-8" d="M128.12,241.61a7.86,7.86,0,1,1,7.86-7.86A7.87,7.87,0,0,1,128.12,241.61Zm0-14.5a6.64,6.64,0,1,0,6.65,6.64A6.65,6.65,0,0,0,128.12,227.11Z"/><circle class="cls-4" cx="128.12" cy="190.71" r="7.25"/><path class="cls-8" d="M128.12,198.57a7.86,7.86,0,1,1,7.86-7.86A7.87,7.87,0,0,1,128.12,198.57Zm0-14.51a6.65,6.65,0,1,0,6.65,6.65A6.65,6.65,0,0,0,128.12,184.06Z"/><circle class="cls-4" cx="128.12" cy="137.75" r="7.25"/><path class="cls-8" d="M128.12,145.61a7.86,7.86,0,1,1,7.86-7.86A7.87,7.87,0,0,1,128.12,145.61Zm0-14.5a6.64,6.64,0,1,0,6.65,6.64A6.65,6.65,0,0,0,128.12,131.11Z"/><circle class="cls-4" cx="128.12" cy="95.49" r="7.25"/><path class="cls-8" d="M128.12,103.35A7.86,7.86,0,1,1,136,95.49,7.87,7.87,0,0,1,128.12,103.35Zm0-14.5a6.64,6.64,0,1,0,6.65,6.64A6.65,6.65,0,0,0,128.12,88.85Z"/><circle class="cls-4" cx="190.26" cy="328.97" r="7.25"/><path class="cls-8" d="M190.26,336.83a7.86,7.86,0,1,1,7.86-7.86A7.87,7.87,0,0,1,190.26,336.83Zm0-14.51a6.65,6.65,0,1,0,6.65,6.65A6.65,6.65,0,0,0,190.26,322.32Z"/><circle class="cls-4" cx="190.26" cy="286.45" r="7.25"/><path class="cls-8" d="M190.26,294.3a7.86,7.86,0,1,1,7.86-7.85A7.87,7.87,0,0,1,190.26,294.3Zm0-14.5a6.65,6.65,0,1,0,6.65,6.65A6.65,6.65,0,0,0,190.26,279.8Z"/><circle class="cls-4" cx="190.26" cy="233.75" r="7.25"/><path class="cls-8" d="M190.26,241.61a7.86,7.86,0,1,1,7.86-7.86A7.87,7.87,0,0,1,190.26,241.61Zm0-14.5a6.64,6.64,0,1,0,6.65,6.64A6.65,6.65,0,0,0,190.26,227.11Z"/><circle class="cls-4" cx="190.26" cy="190.71" r="7.25"/><path class="cls-8" d="M190.26,198.57a7.86,7.86,0,1,1,7.86-7.86A7.87,7.87,0,0,1,190.26,198.57Zm0-14.51a6.65,6.65,0,1,0,6.65,6.65A6.65,6.65,0,0,0,190.26,184.06Z"/><circle class="cls-4" cx="190.26" cy="137.75" r="7.25"/><path class="cls-8" d="M190.26,145.61a7.86,7.86,0,1,1,7.86-7.86A7.87,7.87,0,0,1,190.26,145.61Zm0-14.5a6.64,6.64,0,1,0,6.65,6.64A6.65,6.65,0,0,0,190.26,131.11Z"/><circle class="cls-4" cx="190.26" cy="95.49" r="7.25"/><path class="cls-8" d="M190.26,103.35a7.86,7.86,0,1,1,7.86-7.86A7.87,7.87,0,0,1,190.26,103.35Zm0-14.5a6.64,6.64,0,1,0,6.65,6.64A6.65,6.65,0,0,0,190.26,88.85Z"/><circle class="cls-4" cx="223.59" cy="328.97" r="7.25"/><path class="cls-8" d="M223.59,336.83a7.86,7.86,0,1,1,7.86-7.86A7.87,7.87,0,0,1,223.59,336.83Zm0-14.51a6.65,6.65,0,1,0,6.64,6.65A6.65,6.65,0,0,0,223.59,322.32Z"/><circle class="cls-4" cx="223.59" cy="286.45" r="7.25"/><path class="cls-8" d="M223.59,294.3a7.86,7.86,0,1,1,7.86-7.85A7.87,7.87,0,0,1,223.59,294.3Zm0-14.5a6.65,6.65,0,1,0,6.64,6.65A6.65,6.65,0,0,0,223.59,279.8Z"/><circle class="cls-4" cx="223.59" cy="233.75" r="7.25"/><path class="cls-8" d="M223.59,241.61a7.86,7.86,0,1,1,7.86-7.86A7.87,7.87,0,0,1,223.59,241.61Zm0-14.5a6.64,6.64,0,1,0,6.64,6.64A6.65,6.65,0,0,0,223.59,227.11Z"/><circle class="cls-4" cx="223.59" cy="190.71" r="7.25"/><path class="cls-8" d="M223.59,198.57a7.86,7.86,0,1,1,7.86-7.86A7.87,7.87,0,0,1,223.59,198.57Zm0-14.51a6.65,6.65,0,1,0,6.64,6.65A6.65,6.65,0,0,0,223.59,184.06Z"/><circle class="cls-4" cx="223.59" cy="137.75" r="7.25"/><path class="cls-8" d="M223.59,145.61a7.86,7.86,0,1,1,7.86-7.86A7.87,7.87,0,0,1,223.59,145.61Zm0-14.5a6.64,6.64,0,1,0,6.64,6.64A6.65,6.65,0,0,0,223.59,131.11Z"/><circle class="cls-4" cx="223.59" cy="95.49" r="7.25"/><path class="cls-8" d="M223.59,103.35a7.86,7.86,0,1,1,7.86-7.86A7.87,7.87,0,0,1,223.59,103.35Zm0-14.5a6.64,6.64,0,1,0,6.64,6.64A6.65,6.65,0,0,0,223.59,88.85Z"/><circle class="cls-4" cx="284.63" cy="328.97" r="7.25"/><path class="cls-8" d="M284.63,336.83a7.86,7.86,0,1,1,7.86-7.86A7.87,7.87,0,0,1,284.63,336.83Zm0-14.51a6.65,6.65,0,1,0,6.65,6.65A6.65,6.65,0,0,0,284.63,322.32Z"/><circle class="cls-4" cx="284.63" cy="286.45" r="7.25"/><path class="cls-8" d="M284.63,294.3a7.86,7.86,0,1,1,7.86-7.85A7.86,7.86,0,0,1,284.63,294.3Zm0-14.5a6.65,6.65,0,1,0,6.65,6.65A6.65,6.65,0,0,0,284.63,279.8Z"/><circle class="cls-4" cx="284.63" cy="233.75" r="7.25"/><path class="cls-8" d="M284.63,241.61a7.86,7.86,0,1,1,7.86-7.86A7.87,7.87,0,0,1,284.63,241.61Zm0-14.5a6.64,6.64,0,1,0,6.65,6.64A6.65,6.65,0,0,0,284.63,227.11Z"/><circle class="cls-4" cx="284.63" cy="190.71" r="7.25"/><path class="cls-8" d="M284.63,198.57a7.86,7.86,0,1,1,7.86-7.86A7.87,7.87,0,0,1,284.63,198.57Zm0-14.51a6.65,6.65,0,1,0,6.65,6.65A6.65,6.65,0,0,0,284.63,184.06Z"/><circle class="cls-4" cx="284.63" cy="137.75" r="7.25"/><path class="cls-8" d="M284.63,145.61a7.86,7.86,0,1,1,7.86-7.86A7.87,7.87,0,0,1,284.63,145.61Zm0-14.5a6.64,6.64,0,1,0,6.65,6.64A6.65,6.65,0,0,0,284.63,131.11Z"/><circle class="cls-4" cx="284.63" cy="95.49" r="7.25"/><path class="cls-8" d="M284.63,103.35a7.86,7.86,0,1,1,7.86-7.86A7.87,7.87,0,0,1,284.63,103.35Zm0-14.5a6.64,6.64,0,1,0,6.65,6.64A6.65,6.65,0,0,0,284.63,88.85Z"/><circle class="cls-4" cx="317.96" cy="328.97" r="7.25"/><path class="cls-8" d="M318,336.83a7.86,7.86,0,1,1,7.86-7.86A7.87,7.87,0,0,1,318,336.83Zm0-14.51A6.65,6.65,0,1,0,324.6,329,6.65,6.65,0,0,0,318,322.32Z"/><circle class="cls-4" cx="317.96" cy="286.45" r="7.25"/><path class="cls-8" d="M318,294.3a7.86,7.86,0,1,1,7.86-7.85A7.87,7.87,0,0,1,318,294.3Zm0-14.5a6.65,6.65,0,1,0,6.64,6.65A6.65,6.65,0,0,0,318,279.8Z"/><circle class="cls-4" cx="317.96" cy="233.75" r="7.25"/><path class="cls-8" d="M318,241.61a7.86,7.86,0,1,1,7.86-7.86A7.87,7.87,0,0,1,318,241.61Zm0-14.5a6.64,6.64,0,1,0,6.64,6.64A6.65,6.65,0,0,0,318,227.11Z"/><circle class="cls-4" cx="317.96" cy="190.71" r="7.25"/><path class="cls-8" d="M318,198.57a7.86,7.86,0,1,1,7.86-7.86A7.87,7.87,0,0,1,318,198.57Zm0-14.51a6.65,6.65,0,1,0,6.64,6.65A6.65,6.65,0,0,0,318,184.06Z"/><circle class="cls-4" cx="317.96" cy="137.75" r="7.25"/><path class="cls-8" d="M318,145.61a7.86,7.86,0,1,1,7.86-7.86A7.87,7.87,0,0,1,318,145.61Zm0-14.5a6.64,6.64,0,1,0,6.64,6.64A6.65,6.65,0,0,0,318,131.11Z"/><circle class="cls-4" cx="317.96" cy="95.49" r="7.25"/><path class="cls-8" d="M318,103.35a7.86,7.86,0,1,1,7.86-7.86A7.87,7.87,0,0,1,318,103.35Zm0-14.5a6.64,6.64,0,1,0,6.64,6.64A6.65,6.65,0,0,0,318,88.85Z"/><circle class="cls-4" cx="381.47" cy="328.97" r="7.25"/><path class="cls-8" d="M381.47,336.83a7.86,7.86,0,1,1,7.86-7.86A7.87,7.87,0,0,1,381.47,336.83Zm0-14.51a6.65,6.65,0,1,0,6.65,6.65A6.65,6.65,0,0,0,381.47,322.32Z"/><circle class="cls-4" cx="381.47" cy="286.45" r="7.25"/><path class="cls-8" d="M381.47,294.3a7.86,7.86,0,1,1,7.86-7.85A7.87,7.87,0,0,1,381.47,294.3Zm0-14.5a6.65,6.65,0,1,0,6.65,6.65A6.65,6.65,0,0,0,381.47,279.8Z"/><circle class="cls-4" cx="381.47" cy="233.75" r="7.25"/><path class="cls-8" d="M381.47,241.61a7.86,7.86,0,1,1,7.86-7.86A7.87,7.87,0,0,1,381.47,241.61Zm0-14.5a6.64,6.64,0,1,0,6.65,6.64A6.65,6.65,0,0,0,381.47,227.11Z"/><circle class="cls-4" cx="381.47" cy="190.71" r="7.25"/><path class="cls-8" d="M381.47,198.57a7.86,7.86,0,1,1,7.86-7.86A7.87,7.87,0,0,1,381.47,198.57Zm0-14.51a6.65,6.65,0,1,0,6.65,6.65A6.65,6.65,0,0,0,381.47,184.06Z"/><circle class="cls-4" cx="381.47" cy="137.75" r="7.25"/><path class="cls-8" d="M381.47,145.61a7.86,7.86,0,1,1,7.86-7.86A7.87,7.87,0,0,1,381.47,145.61Zm0-14.5a6.64,6.64,0,1,0,6.65,6.64A6.65,6.65,0,0,0,381.47,131.11Z"/><circle class="cls-4" cx="381.47" cy="95.49" r="7.25"/><path class="cls-8" d="M381.47,103.35a7.86,7.86,0,1,1,7.86-7.86A7.87,7.87,0,0,1,381.47,103.35Zm0-14.5a6.64,6.64,0,1,0,6.65,6.64A6.65,6.65,0,0,0,381.47,88.85Z"/></g></g></svg>