<svg xmlns="http://www.w3.org/2000/svg" viewBox="0 0 410.07 429.93"><defs><style>.cls-1{fill:none;stroke:#1e1e1e;stroke-miterlimit:10;}.cls-2{fill:#1e1e1e;}.cls-3{fill:#e0ac52;}.cls-4{fill:#f5f6f7;}.cls-5{fill:#fff;}.cls-6{fill:#c0b5ab;}.cls-7{fill:#e0b372;}.cls-8{fill:#6a6669;}.cls-9{fill:#2f2d2f;}.cls-10{fill:#5b5352;}.cls-11{fill:#494548;}.cls-12{fill:#121417;}.cls-13{fill:#211f1a;}</style></defs><g id="Layer_2" data-name="Layer 2"><g id="RAK14010"><path class="cls-1" d="M.5.5V429.43H409.57V.5ZM37.85,400.15a10.5,10.5,0,1,1,10.5-10.5A10.5,10.5,0,0,1,37.85,400.15Zm0-351.78a10.5,10.5,0,1,1,10.5-10.5A10.5,10.5,0,0,1,37.85,48.37ZM371,400.15a10.5,10.5,0,1,1,10.5-10.5A10.5,10.5,0,0,1,371,400.15Zm0-351.78a10.5,10.5,0,1,1,10.5-10.5A10.5,10.5,0,0,1,371,48.37Z"/><path class="cls-2" d="M.5.5V429.43H409.57V.5ZM37.85,400.15a10.5,10.5,0,1,1,10.5-10.5A10.5,10.5,0,0,1,37.85,400.15Zm0-351.78a10.5,10.5,0,1,1,10.5-10.5A10.5,10.5,0,0,1,37.85,48.37ZM371,400.15a10.5,10.5,0,1,1,10.5-10.5A10.5,10.5,0,0,1,371,400.15Zm0-351.78a10.5,10.5,0,1,1,10.5-10.5A10.5,10.5,0,0,1,371,48.37Z"/><path class="cls-3" d="M37.85,370.15a19.5,19.5,0,1,0,19.5,19.5A19.5,19.5,0,0,0,37.85,370.15Zm0,30a10.5,10.5,0,1,1,10.5-10.5A10.5,10.5,0,0,1,37.85,400.15Z"/><path class="cls-3" d="M37.85,18.37a19.5,19.5,0,1,0,19.5,19.5A19.5,19.5,0,0,0,37.85,18.37Zm0,30a10.5,10.5,0,1,1,10.5-10.5A10.5,10.5,0,0,1,37.85,48.37Z"/><path class="cls-3" d="M371,370.15a19.5,19.5,0,1,0,19.5,19.5A19.5,19.5,0,0,0,371,370.15Zm0,30a10.5,10.5,0,1,1,10.5-10.5A10.5,10.5,0,0,1,371,400.15Z"/><path class="cls-3" d="M371,18.37a19.5,19.5,0,1,0,19.5,19.5A19.5,19.5,0,0,0,371,18.37Zm0,30a10.5,10.5,0,1,1,10.5-10.5A10.5,10.5,0,0,1,371,48.37Z"/><g id="dispose-properly"><g id="Layer_2-2" data-name="Layer 2-2"><g id="Layer_1-2" data-name="Layer 1-2"><path class="cls-4" d="M300.68,419.88a1.94,1.94,0,1,0,2.12,2.23,2.16,2.16,0,0,0,0-.36v-.2a2,2,0,0,0-2.12-1.67m.18,2.23a.45.45,0,0,1-.45-.45.44.44,0,0,1,.38-.44h0a.48.48,0,0,1,.38.2.44.44,0,0,1,0,.62.39.39,0,0,1-.26,0"/><path class="cls-4" d="M293.72,383.26H292v6.1h4.18q.66,7.13,1.31,14.26c.32,3.24.61,6.55.92,9.85l-6,6.27.94.94,5.23-5.47v1.25a5.62,5.62,0,0,0-3.17,3.26,5.69,5.69,0,1,0,10.46,4.48c.07-.16.13-.32.19-.48h11.43v4.08h3.35v-4.08a.82.82,0,0,0,.82-.74l.87-9.51,6,6.27.91-.93-6.69-7.08c.23-2.73.48-5.43.73-8.11.49-5.33,1-10.69,1.5-16l7.59-7.9-.94-.94-6.41,6.7.41-4.2h2.41v-2.5h-2.24v-.56a.73.73,0,0,0-.22-.64,11.86,11.86,0,0,0-3.55-2.24v-1.87h-3.71v.74a36.49,36.49,0,0,0-4.66-.63V372.5h-8.78v1.32a28.26,28.26,0,0,0-5.8,1.36,13.41,13.41,0,0,0-2.77,1.54,2.31,2.31,0,0,0-1.07-.78,2.23,2.23,0,0,0-2.93,1.19l-.06.17a2.34,2.34,0,0,0,1.36,3v1h1.81a18.91,18.91,0,0,0,.18,2h0l-1.92-2-3.29-3.42-.93.91Zm.76-6.18a1,1,0,0,1,.89.49.8.8,0,0,0-.22.62v.56h-1.57a1.09,1.09,0,0,1-.22-.62,1,1,0,0,1,1.05-1.05h0m17.73-2h-5.72v-1.2h5.78Zm8.64,2.37H320v-2.61h.83Zm3.59,1.07a1.61,1.61,0,0,1,0,.31h-2.08v-1.7a10.93,10.93,0,0,1,2.1,1.39m-2.23,25c-.2,2.23-.4,4.46-.63,6.7l-8.93-9.34,10.88-11.34q-.68,7-1.32,14m-3,21.25h.74v2h-.74Zm-12.39-3h0a5.7,5.7,0,0,0-5.7-5.67h-.53a21.59,21.59,0,0,0-.23-2.41l11.37-11.86L321.38,412c-.31,3.4-.6,6.7-.92,10.19H306.53a2.16,2.16,0,0,0,0-.36m-8.66,0a3,3,0,0,1,2.81-3H301a3,3,0,0,1,3,2.93v0a2.41,2.41,0,0,1,0,.38,3,3,0,0,1-5.91-.38m1.29-18.24q-.68-7-1.32-14.11h0v-1.68l4.47,4.71v1.66h1.58l6.5,6.69L300,411.91c-.25-2.84-.52-5.65-.76-8.44M304,392v-.58h8.62v1.2h-8Zm-6.69-8.78-.2-2H324c-.18,2-.38,4.06-.55,6.09l-12,12.41L305.88,394h8.2v-3.91H302.47v.42L298,385.76v-2.5h-.67m-.44-4.46a1.71,1.71,0,0,0,0-.32,11,11,0,0,1,2.85-1.71,25.72,25.72,0,0,1,5.25-1.25v1h8.78v-1.3a38.68,38.68,0,0,1,4.66.65v2.9H296.84m-1.78,5.92.78.8a22.87,22.87,0,0,0,.24,2.48h-2.52v-3.3Z"/></g></g></g><path class="cls-5" d="M105.05,367.9l28.63,59H76.32Zm0-3.22-31,63.65h62Z"/><rect class="cls-5" x="109.21" y="382.39" width="1.41" height="40.79" transform="matrix(0.49, -0.87, 0.87, 0.49, -294.74, 299.96)"/><rect class="cls-5" x="109.72" y="384.08" width="1.41" height="45.11" transform="translate(-297.84 302.36) rotate(-60.48)"/><path class="cls-5" d="M96.86,395.32l-1.26-.65a79.66,79.66,0,0,1,4.12-6.88c1.89-2.66,12.26-5,13.44-5.17l.3,1.38c-4.24.9-11.4,2.94-12.56,4.62a66.46,66.46,0,0,0-4,6.7"/><path class="cls-5" d="M114.69,405.87l-.7-1.23a5.22,5.22,0,0,0,2.51-4.77,20.13,20.13,0,0,1,1-6.48l1.36.45a18,18,0,0,0-1,5.9,6.63,6.63,0,0,1-3.32,6.13"/><path class="cls-5" d="M99.65,413.38h-.53c-2.94-.37-6.66-9.57-6.68-9.67a6.35,6.35,0,0,1,1.81-6.45l1,1a5,5,0,0,0-1.48,5c1.6,4,4.32,8.64,5.55,8.79.65,0,1,0,1.13-.2s0-.73-.58-1.41a15.91,15.91,0,0,1-3-7.28,12.63,12.63,0,0,1,1.69-3.41l1.2.72a12.24,12.24,0,0,0-1.38,2.87,16,16,0,0,0,2.69,6.07c1.2,1.51,1,2.52.7,3a2.12,2.12,0,0,1-2,.95"/><path class="cls-5" d="M105.17,416.2a1.94,1.94,0,0,1-.85-.21c-.53-.27-1.08-.9-.91-2.51.38-3.16,4.48-8.16,4.65-8.39l1.08.91a22,22,0,0,0-4.32,7.66c0,.63,0,1,.15,1a4.59,4.59,0,0,0,2.51-1.18,44.1,44.1,0,0,0,4.52-6l1.18.75a44.46,44.46,0,0,1-4.62,6.38,5.76,5.76,0,0,1-3.31,1.59"/><path class="cls-5" d="M104.72,411.12a15.67,15.67,0,0,1-5.8-2.33l.75-1.21c2.29,1.41,4.8,2.51,5.28,2.09a1.36,1.36,0,0,0,0-1,5.07,5.07,0,0,0-2.94-2.51,3.77,3.77,0,0,1-2.31-2.21,3.73,3.73,0,0,1,.75-3l1.18.75c-.38.61-.78,1.31-.58,1.89s.66.93,1.54,1.3a6.19,6.19,0,0,1,3.81,3.39,2.53,2.53,0,0,1-.27,2.16,1.43,1.43,0,0,1-.91.66h-.5"/><rect class="cls-5" x="102.36" y="371.11" width="5.65" height="1.41"/><rect class="cls-5" x="100.68" y="374.55" width="8.72" height="1.41"/><rect class="cls-5" x="98.99" y="377.99" width="12.08" height="1.41"/><rect class="cls-5" x="97.34" y="381.44" width="15.42" height="1.41"/><rect class="cls-5" x="95.93" y="384.88" width="9.14" height="1.41"/><rect class="cls-5" x="93.97" y="388.32" width="5.75" height="1.41"/><rect class="cls-5" x="92.62" y="391.78" width="4.87" height="1.41"/><rect class="cls-5" x="88.95" y="398.66" width="4.57" height="1.41"/><rect class="cls-5" x="117.48" y="398.66" width="3.67" height="1.41"/><rect class="cls-5" x="87.27" y="402.11" width="5.83" height="1.41"/><rect class="cls-5" x="116.85" y="402.11" width="5.83" height="1.41"/><rect class="cls-5" x="85.91" y="405.55" width="8.44" height="1.41"/><rect class="cls-5" x="116.1" y="405.55" width="8.39" height="1.41"/><rect class="cls-5" x="83.9" y="408.99" width="12.38" height="1.41"/><rect class="cls-5" x="111.48" y="408.99" width="4.42" height="1.41"/><path class="cls-5" d="M126.28,410.73h-4.44v-2.08h4.44Zm-3.77-.67h3.1v-.74h-3.1Z"/><rect class="cls-5" x="82.24" y="412.45" width="21.85" height="1.41"/><rect class="cls-5" x="108.92" y="412.45" width="13.29" height="1.41"/><rect class="cls-5" x="81.11" y="415.89" width="46.76" height="1.41"/><rect class="cls-5" x="78.88" y="419.33" width="52.29" height="1.41"/><rect class="cls-5" x="77.07" y="422.78" width="55.76" height="1.41"/><path class="cls-5" d="M121.86,26.75a6.69,6.69,0,0,1,2.62.47,5.71,5.71,0,0,1,2,1.3,5.51,5.51,0,0,1,1.28,1.89,6,6,0,0,1,.45,2.37,6.59,6.59,0,0,1-.83,3.33,5,5,0,0,1-2.62,2.13h0a3.47,3.47,0,0,1,1.46.73,4.19,4.19,0,0,1,1,1.19,5.62,5.62,0,0,1,.52,1.51,14.89,14.89,0,0,1,.24,1.63v1.23a6.14,6.14,0,0,0,.11,1.42,11.07,11.07,0,0,0,.24,1.4,3.09,3.09,0,0,0,.5,1.11h-4.73a8.76,8.76,0,0,1-.48-2.37,19.88,19.88,0,0,0-.28-2.72,4.32,4.32,0,0,0-1-2.57,3.71,3.71,0,0,0-2.6-.81H115v8.49h-4.73V26.75Zm-1.73,9.84a3.61,3.61,0,0,0,2.49-.74,3.09,3.09,0,0,0,.82-2.36,3,3,0,0,0-.82-2.37,3.75,3.75,0,0,0-2.49-.71h-5.22v6.13Z"/><path class="cls-5" d="M142.41,26.75l8.14,21.73h-5l-1.66-4.73h-8.11l-1.7,4.73H129.4l8.23-21.73Zm.28,13.34-2.74-8h0l-2.91,8Z"/><polygon class="cls-5" points="156.34 26.75 156.34 35.76 164.83 26.75 170.81 26.75 162.32 35.33 171.64 48.48 165.63 48.48 159.08 38.71 156.34 41.48 156.34 48.48 151.56 48.48 151.56 26.75 156.34 26.75"/><path class="cls-5" d="M88.56,31.31a7.87,7.87,0,0,1,3,.52h0s.66.31.54,1.56a1.7,1.7,0,0,1-1.75,1.66h-5.7V32.68a3.72,3.72,0,0,0-.16-1A19.07,19.07,0,0,1,88,31.08h.52"/><path class="cls-5" d="M89.2,27h1.13c.64,0,1.47.12,1.73.62a2.09,2.09,0,0,1,.21,1.51,1.89,1.89,0,0,1-.49.95,2.57,2.57,0,0,1-.33.33A10,10,0,0,0,88.63,30H87.8a20.8,20.8,0,0,0-4,.75,4.65,4.65,0,0,0-1-.59L82.25,30a10.87,10.87,0,0,1,3.57-2.37A10.25,10.25,0,0,1,89.2,27"/><path class="cls-5" d="M88.49,22.14h.45c2.62.14,3,.49,3,1.84a2.38,2.38,0,0,1-1,1.68H89.46a10.5,10.5,0,0,0-3.1.43,11.47,11.47,0,0,0-4.3,2.36,16.46,16.46,0,0,0-1.66,1.68,2.23,2.23,0,0,0-.8.47l-.22.22a3.3,3.3,0,0,0-.89-.64,2.9,2.9,0,0,0-1.19-.26,13.55,13.55,0,0,1,3.43-4.73,12.85,12.85,0,0,1,7.76-3h0"/><path class="cls-5" d="M91.56,36.18a19.55,19.55,0,0,1,.62,3.55,8,8,0,0,1-.5,3.53h0s-.26.54-1.25.54h-.31A1.74,1.74,0,0,1,88.44,42v0h0V36.4h2.25a3.67,3.67,0,0,0,1-.17"/><path class="cls-5" d="M93.5,33.91a11.08,11.08,0,0,1,2.37,3.57,9.9,9.9,0,0,1,.59,4.07V42c0,.64,0,1.47-.59,1.73a2.5,2.5,0,0,1-1,.28,4.51,4.51,0,0,1-.52,0,2,2,0,0,1-1-.49l-.3-.34a11.13,11.13,0,0,0,.33-3.64,20.77,20.77,0,0,0-.76-4,3.83,3.83,0,0,0,.59-1,2.19,2.19,0,0,0,.17-.55"/><path class="cls-5" d="M93.62,29a13.3,13.3,0,0,1,4.73,3.43,12.51,12.51,0,0,1,2.93,8.21c0,2.62-.49,3-1.86,3a2.35,2.35,0,0,1-1.66-1A13.25,13.25,0,0,0,97.43,38a11.84,11.84,0,0,0-2.37-4.33,21.54,21.54,0,0,0-1.68-1.63,2.36,2.36,0,0,0-.47-.81.84.84,0,0,0-.23-.23,3.27,3.27,0,0,0,.66-.9A3.56,3.56,0,0,0,93.6,29"/><path class="cls-5" d="M87.14,40.09v2.36a3.91,3.91,0,0,0,.19,1,20.24,20.24,0,0,1-3.55.59h-.49a7.93,7.93,0,0,1-3.05-.52h0s-.67-.33-.55-1.56a1.75,1.75,0,0,1,1.8-1.68h5.65"/><path class="cls-5" d="M88.06,44.41a4.09,4.09,0,0,0,1,.62l.55.16a11.21,11.21,0,0,1-3.6,2.37,10.23,10.23,0,0,1-3.38.64H81.54c-.64,0-1.45,0-1.71-.59a2.16,2.16,0,0,1-.21-1.52,2.37,2.37,0,0,1,.47-1l.36-.3a10.66,10.66,0,0,0,2.81.35h.83a19.75,19.75,0,0,0,4-.76"/><path class="cls-5" d="M92.51,44.39a2.74,2.74,0,0,0,2.06.92A13.21,13.21,0,0,1,91.14,50a12.7,12.7,0,0,1-7.76,3H83c-2.65,0-3-.5-3-1.85a2.33,2.33,0,0,1,1-1.6h1.49a10.49,10.49,0,0,0,3.1-.41,11.82,11.82,0,0,0,4.33-2.36c.71-.64,1.39-1.4,1.65-1.68a3.64,3.64,0,0,0,.81-.47l.21-.24"/><path class="cls-5" d="M81.44,31.38h.33a1.73,1.73,0,0,1,1.66,1.78v5.65H81.06a3.72,3.72,0,0,0-1,.16,21.31,21.31,0,0,1-.61-3.54A8.57,8.57,0,0,1,80,31.88h0s.23-.57,1.23-.57"/><path class="cls-5" d="M76.93,31.24h.52a2,2,0,0,1,.94.47l.33.36a10.92,10.92,0,0,0-.35,3.64,21,21,0,0,0,.75,4,4.24,4.24,0,0,0-.59,1,3.13,3.13,0,0,0-.16.52A11.25,11.25,0,0,1,76,37.7a9.44,9.44,0,0,1-.61-4.07v-.45c0-.66,0-1.47.59-1.73a2.14,2.14,0,0,1,1-.28"/><path class="cls-5" d="M72.34,31.64a2.38,2.38,0,0,1,1.68,1,11.94,11.94,0,0,0,.33,4.61,11.74,11.74,0,0,0,2.36,4.33,20.24,20.24,0,0,0,1.68,1.66,2.31,2.31,0,0,0,.47.8l.22.21a3.9,3.9,0,0,0-.67.9,3.56,3.56,0,0,0-.26,1.16,12.92,12.92,0,0,1-4.73-3.45,12.48,12.48,0,0,1-3-8.18c.14-2.63.5-3,1.84-3h0"/><path class="cls-5" d="M174.85,26.14a3.31,3.31,0,1,1-3.39,3.3A3.29,3.29,0,0,1,174.85,26.14Zm0,5.91a2.6,2.6,0,0,0,0-5.2,2.6,2.6,0,0,0,0,5.2Zm-1.31-4.46h1.39c.93,0,1.45.29,1.45,1.09a.92.92,0,0,1-1,1l1,1.62h-.77l-.9-1.58h-.46v1.58h-.73Zm.73,1.54h.65c.43,0,.73-.06.73-.51s-.43-.46-.76-.46h-.62Z"/><polygon class="cls-5" points="308.05 18.37 308.05 21.82 304.82 21.82 304.82 18.37 295.22 18.37 295.22 21.82 291.99 21.82 291.99 18.37 283.37 18.37 283.37 21.82 279.98 21.82 279.98 39.93 319.89 39.93 319.89 21.82 316.85 21.82 316.85 18.37 308.05 18.37"/><path class="cls-5" d="M271,42.73h1.38l1.44,6h0l1.58-6h1.41l1.56,6h0l1.46-6h1.48l-2.15,7.87h-1.46l-1.58-6.07h0l-1.61,6h-1.43Z"/><path class="cls-5" d="M282.06,42.73h1.27v1.2h-1.27Zm0,2.18h1.27V50.6h-1.27Z"/><path class="cls-5" d="M285.62,48.76a1.14,1.14,0,0,0,1.23,1h.07c.5,0,1.31,0,1.26-.74s-.93-.75-1.86-1-1.82-.53-1.82-1.7,1.34-1.63,2.39-1.63a2.18,2.18,0,0,1,2.4,1.75h-1.35c0-.6-.59-.74-1.14-.74s-1.06,0-1.06.57.94.72,1.87.91,1.84.55,1.84,1.68-1.36,1.84-2.56,1.84a2.29,2.29,0,0,1-2.51-2Z"/><path class="cls-5" d="M291.89,42.83h3.81c1.51,0,2.39.48,2.39,1.94a1.71,1.71,0,0,1-1,1.65,1.88,1.88,0,0,1,1.43,2,2.49,2.49,0,0,1-2.77,2.4h-3.83ZM293.64,46h1.75c.62,0,1.05-.29,1.05-.93s-.57-.91-1.17-.91h-1.63Zm0,3.33h1.84c.67,0,1.3-.22,1.3-1s-.51-1.13-1.25-1.13h-1.89Z"/><path class="cls-5" d="M299.67,42.83h1.72v6.48h3.88v1.46h-5.6Z"/><path class="cls-5" d="M309.75,42.64A4.11,4.11,0,1,1,305.88,47a1.34,1.34,0,0,1,0-.2,3.8,3.8,0,0,1,3.45-4.13A3.09,3.09,0,0,1,309.75,42.64Zm0,6.79c1.55,0,2.13-1.34,2.13-2.65s-.58-2.68-2.13-2.68-2.16,1.31-2.16,2.68S308.19,49.43,309.75,49.43Z"/><path class="cls-5" d="M320,45.46a1.7,1.7,0,0,0-1.73-1.36c-1.55,0-2.13,1.31-2.13,2.68s.58,2.65,2.13,2.65a1.79,1.79,0,0,0,1.8-1.77h1.67a3.32,3.32,0,0,1-3.44,3.21h0a4.12,4.12,0,0,1,0-8.23,3.19,3.19,0,0,1,3.4,2.82Z"/><path class="cls-5" d="M323,42.83h1.72v3.25l3.09-3.25h2.15l-3.11,3.11,3.37,4.78H328l-2.4-3.54-1,1v2.53h-1.73Z"/><path class="cls-5" d="M183.66,28.16h3.47A1.76,1.76,0,0,1,189,29.93a1.57,1.57,0,0,1-1,1.61v0c.69.19.89.85.94,1.5a3.33,3.33,0,0,0,.27,1.53h-1.42a7.82,7.82,0,0,1-.22-1.54c-.1-.68-.36-1-1.07-1h-1.42v2.52h-1.41Zm1.41,2.91h1.55c.64,0,1-.27,1-.92s-.34-.89-1-.89h-1.55Z"/><path class="cls-5" d="M192.45,28.16h1.45l2.41,6.43h-1.47l-.49-1.44H192l-.5,1.44H190Zm-.13,3.94H194l-.82-2.36h0Z"/><path class="cls-5" d="M197.4,28.16h1.42v2.66l2.51-2.66h1.76l-2.51,2.54,2.76,3.89h-1.78l-1.93-2.89-.81.82v2.07H197.4Z"/><path class="cls-5" d="M207.35,34.59h-1.28V30.5h-1.58v-1c.89,0,1.7-.28,1.84-1.25h1Z"/><path class="cls-5" d="M212.17,33.13h-2.66V32l2.74-3.68h1.14v3.79h.84v1.06h-.84v1.46h-1.22Zm0-3.24h0l-1.63,2.18h1.65Z"/><path class="cls-5" d="M217.4,28.16c1.26,0,2.33.79,2.33,3.25s-1.07,3.3-2.33,3.3-2.3-.79-2.3-3.3S216.15,28.16,217.4,28.16Zm0,5.5c1,0,1-1.54,1-2.25s0-2.2-1-2.2-1,1.54-1,2.2S216.38,33.66,217.4,33.66Z"/><path class="cls-5" d="M224,34.59H222.7V30.5h-1.58v-1c.89,0,1.7-.28,1.84-1.25h1Z"/><path class="cls-5" d="M228.49,28.16c1.26,0,2.32.79,2.32,3.25s-1.06,3.3-2.32,3.3-2.3-.79-2.3-3.3S227.24,28.16,228.49,28.16Zm0,5.5c1,0,1-1.54,1-2.25s0-2.2-1-2.2-1,1.54-1,2.2S227.46,33.66,228.49,33.66Z"/><path class="cls-5" d="M238.19,34.59H236.6l-2.09-6.43H236l1.43,4.52h0l1.45-4.52h1.46Z"/><path class="cls-5" d="M242.33,32.57c0,.82.43,1.18,1.15,1.18a1.05,1.05,0,0,0,1-.6h1.13a2.09,2.09,0,0,1-2.18,1.56,2.28,2.28,0,0,1-2.38-2.45,2.34,2.34,0,1,1,4.64.31Zm2.08-.81c-.12-.65-.39-1-1-1a1,1,0,0,0-1.06,1Z"/><path class="cls-5" d="M247,29.93h1.22v.87h0a1.62,1.62,0,0,1,1.48-1,.86.86,0,0,1,.28,0V31a2,2,0,0,0-.46-.05c-.94,0-1.26.67-1.26,1.5v2.1H247Z"/><path class="cls-5" d="M251.08,33.2h1.41v1.39h-1.41Z"/><path class="cls-5" d="M256,28.16h1.45l2.4,6.43h-1.47l-.48-1.44h-2.41l-.5,1.44h-1.43Zm-.14,3.94h1.67l-.81-2.36h0Z"/><path class="cls-5" d="M185.85,49.46h-2.67V48.29l2.74-3.68h1.14V48.4h.84v1.06h-.84v1.46h-1.21Zm0-3.24h0l-1.63,2.18h1.66Z"/><path class="cls-5" d="M189.2,44.49h1.27v1.37a1.45,1.45,0,0,1-1.27,1.52v-.6a.82.82,0,0,0,.59-.91h-.59Z"/><path class="cls-5" d="M193.68,47.16c.55.05,1.34-.06,1.34-.78a.83.83,0,0,0-.89-.84c-.65,0-1,.48-1,1.13h-1.22a2.09,2.09,0,0,1,2.18-2.18,2,2,0,0,1,2.12,1.74,1.25,1.25,0,0,1-.89,1.29v0A1.39,1.39,0,0,1,196.47,49a2.35,2.35,0,0,1-4.68-.22H193c0,.68.37,1.24,1.11,1.24a1,1,0,0,0,1-1c0-1-.84-.94-1.46-.94Z"/><path class="cls-5" d="M200.83,44.49h1.42v2.66l2.51-2.66h1.76L204,47l2.76,3.89H205L203.06,48l-.81.82v2.07h-1.42Z"/><path class="cls-5" d="M207.87,44.49h4.81v1.19h-3.4v1.37h3.12v1.1h-3.12v1.58h3.47v1.19h-4.88Z"/><path class="cls-5" d="M215.91,48.41l-2.37-3.92h1.59L216.64,47l1.49-2.54h1.58l-2.39,4v2.47h-1.41Z"/><path class="cls-5" d="M220.79,44.49h2.89a2.07,2.07,0,1,1,0,4.12H222.2v2.31h-1.41Zm1.41,3h1.1c.65,0,1.24-.14,1.24-1s-.59-1-1.24-1h-1.1Z"/><path class="cls-5" d="M229.08,44.49h1.45l2.41,6.43h-1.47L231,49.48h-2.4l-.5,1.44h-1.44ZM229,48.43h1.66l-.81-2.36h0Z"/><path class="cls-5" d="M234,44.49h2.78c1.66,0,2.91,1,2.91,3.18,0,1.86-.95,3.25-2.91,3.25H234Zm1.42,5.24h1.26c.82,0,1.6-.51,1.6-1.93s-.46-2.12-1.85-2.12h-1Z"/><path class="cls-5" d="M242.21,48.78c0,.86.66,1.19,1.42,1.19.49,0,1.25-.14,1.25-.8s-1-.8-1.91-1.06-1.92-.64-1.92-1.83a2.15,2.15,0,0,1,2.41-2c1.34,0,2.57.59,2.57,2.08h-1.37c0-.77-.58-1-1.27-1-.45,0-1,.19-1,.73s.31.57,1.92,1c.48.11,1.91.43,1.91,1.88,0,1.18-.92,2.06-2.68,2.06-1.42,0-2.76-.7-2.73-2.29Z"/><rect class="cls-5" x="18.4" y="151.3" width="79.63" height="26.34"/><rect class="cls-5" x="112.31" y="151.3" width="79.63" height="26.34"/><rect class="cls-5" x="212.24" y="151.3" width="79.63" height="26.34"/><rect class="cls-5" x="306.42" y="151.3" width="79.63" height="26.34"/><rect class="cls-5" x="18.4" y="246" width="79.63" height="26.34"/><rect class="cls-5" x="112.31" y="246" width="79.63" height="26.34"/><rect class="cls-5" x="212.24" y="246" width="79.63" height="26.34"/><rect class="cls-5" x="306.42" y="246" width="79.63" height="26.34"/><rect class="cls-5" x="18.4" y="343.81" width="79.63" height="26.34"/><rect class="cls-5" x="112.31" y="343.81" width="79.63" height="26.34"/><rect class="cls-5" x="212.24" y="343.81" width="79.63" height="26.34"/><rect class="cls-5" x="306.42" y="343.81" width="79.63" height="26.34"/><path class="cls-5" d="M87.89,129.22a.78.78,0,0,1-.79-.78V106a.79.79,0,0,1,1.57,0v22.43A.78.78,0,0,1,87.89,129.22Z"/><path class="cls-5" d="M25.52,129.22a.78.78,0,0,1-.79-.78V106a.79.79,0,0,1,1.57,0v22.43A.78.78,0,0,1,25.52,129.22Z"/><path class="cls-5" d="M79.29,146.83H34.65a.79.79,0,1,1,0-1.57H79.29a.79.79,0,0,1,0,1.57Z"/><path class="cls-5" d="M79.29,87.24H34.65a.78.78,0,0,1-.79-.78.79.79,0,0,1,.79-.79H79.29a.79.79,0,0,1,.78.79A.78.78,0,0,1,79.29,87.24Z"/><path class="cls-5" d="M183.31,129.22a.78.78,0,0,1-.78-.78V106a.79.79,0,0,1,1.57,0v22.43A.78.78,0,0,1,183.31,129.22Z"/><path class="cls-5" d="M120.94,129.22a.78.78,0,0,1-.78-.78V106a.79.79,0,0,1,1.57,0v22.43A.78.78,0,0,1,120.94,129.22Z"/><path class="cls-5" d="M174.71,146.83H130.07a.79.79,0,0,1,0-1.57h44.64a.79.79,0,1,1,0,1.57Z"/><path class="cls-5" d="M174.71,87.24H130.07a.78.78,0,0,1-.78-.78.79.79,0,0,1,.78-.79h44.64a.79.79,0,0,1,.79.79A.78.78,0,0,1,174.71,87.24Z"/><path class="cls-5" d="M279.19,129.22a.78.78,0,0,1-.78-.78V106a.78.78,0,0,1,.78-.78.79.79,0,0,1,.79.78v22.43A.79.79,0,0,1,279.19,129.22Z"/><path class="cls-5" d="M216.82,129.22a.78.78,0,0,1-.78-.78V106a.78.78,0,0,1,.78-.78.79.79,0,0,1,.79.78v22.43A.79.79,0,0,1,216.82,129.22Z"/><path class="cls-5" d="M270.59,146.83H226a.79.79,0,0,1,0-1.57h44.64a.79.79,0,1,1,0,1.57Z"/><path class="cls-5" d="M270.59,87.24H226a.78.78,0,0,1-.78-.78.79.79,0,0,1,.78-.79h44.64a.8.8,0,0,1,.79.79A.79.79,0,0,1,270.59,87.24Z"/><path class="cls-5" d="M375,129.22a.78.78,0,0,1-.78-.78V106a.78.78,0,0,1,.78-.78.79.79,0,0,1,.79.78v22.43A.79.79,0,0,1,375,129.22Z"/><path class="cls-5" d="M312.66,129.22a.78.78,0,0,1-.78-.78V106a.78.78,0,0,1,.78-.78.79.79,0,0,1,.79.78v22.43A.79.79,0,0,1,312.66,129.22Z"/><path class="cls-5" d="M366.43,146.83H321.79a.79.79,0,0,1,0-1.57h44.64a.79.79,0,1,1,0,1.57Z"/><path class="cls-5" d="M366.43,87.24H321.79a.78.78,0,0,1-.78-.78.79.79,0,0,1,.78-.79h44.64a.8.8,0,0,1,.79.79A.79.79,0,0,1,366.43,87.24Z"/><path class="cls-5" d="M87.89,224.79a.79.79,0,0,1-.79-.79V201.58a.79.79,0,0,1,1.57,0V224A.78.78,0,0,1,87.89,224.79Z"/><path class="cls-5" d="M25.52,224.79a.79.79,0,0,1-.79-.79V201.58a.79.79,0,0,1,1.57,0V224A.78.78,0,0,1,25.52,224.79Z"/><path class="cls-5" d="M79.29,242.4H34.65a.79.79,0,1,1,0-1.57H79.29a.79.79,0,0,1,0,1.57Z"/><path class="cls-5" d="M79.29,182.81H34.65a.79.79,0,1,1,0-1.57H79.29a.79.79,0,0,1,0,1.57Z"/><path class="cls-5" d="M183.31,224.79a.78.78,0,0,1-.78-.79V201.58a.79.79,0,0,1,1.57,0V224A.79.79,0,0,1,183.31,224.79Z"/><path class="cls-5" d="M120.94,224.79a.78.78,0,0,1-.78-.79V201.58a.79.79,0,0,1,1.57,0V224A.79.79,0,0,1,120.94,224.79Z"/><path class="cls-5" d="M174.71,242.4H130.07a.79.79,0,0,1,0-1.57h44.64a.79.79,0,1,1,0,1.57Z"/><path class="cls-5" d="M174.71,182.81H130.07a.79.79,0,0,1,0-1.57h44.64a.79.79,0,1,1,0,1.57Z"/><path class="cls-5" d="M279.19,224.79a.78.78,0,0,1-.78-.79V201.58a.78.78,0,0,1,.78-.78.79.79,0,0,1,.79.78V224A.79.79,0,0,1,279.19,224.79Z"/><path class="cls-5" d="M216.82,224.79A.78.78,0,0,1,216,224V201.58a.78.78,0,0,1,.78-.78.79.79,0,0,1,.79.78V224A.79.79,0,0,1,216.82,224.79Z"/><path class="cls-5" d="M270.59,242.4H226a.79.79,0,0,1,0-1.57h44.64a.79.79,0,1,1,0,1.57Z"/><path class="cls-5" d="M270.59,182.81H226a.79.79,0,0,1,0-1.57h44.64a.79.79,0,1,1,0,1.57Z"/><path class="cls-5" d="M375,224.79a.78.78,0,0,1-.78-.79V201.58a.78.78,0,0,1,.78-.78.79.79,0,0,1,.79.78V224A.79.79,0,0,1,375,224.79Z"/><path class="cls-5" d="M312.66,224.79a.78.78,0,0,1-.78-.79V201.58a.78.78,0,0,1,.78-.78.79.79,0,0,1,.79.78V224A.79.79,0,0,1,312.66,224.79Z"/><path class="cls-5" d="M366.43,242.4H321.79a.79.79,0,0,1,0-1.57h44.64a.79.79,0,1,1,0,1.57Z"/><path class="cls-5" d="M366.43,182.81H321.79a.79.79,0,0,1,0-1.57h44.64a.79.79,0,1,1,0,1.57Z"/><path class="cls-5" d="M87.89,321a.78.78,0,0,1-.79-.78V297.84a.79.79,0,1,1,1.57,0v22.42A.78.78,0,0,1,87.89,321Z"/><path class="cls-5" d="M25.52,321a.78.78,0,0,1-.79-.78V297.84a.79.79,0,1,1,1.57,0v22.42A.78.78,0,0,1,25.52,321Z"/><path class="cls-5" d="M79.29,338.65H34.65a.78.78,0,0,1-.79-.78.79.79,0,0,1,.79-.79H79.29a.79.79,0,0,1,.78.79A.78.78,0,0,1,79.29,338.65Z"/><path class="cls-5" d="M79.29,279.07H34.65a.79.79,0,1,1,0-1.57H79.29a.79.79,0,0,1,0,1.57Z"/><path class="cls-5" d="M183.31,321a.78.78,0,0,1-.78-.78V297.84a.79.79,0,1,1,1.57,0v22.42A.78.78,0,0,1,183.31,321Z"/><path class="cls-5" d="M120.94,321a.78.78,0,0,1-.78-.78V297.84a.79.79,0,1,1,1.57,0v22.42A.78.78,0,0,1,120.94,321Z"/><path class="cls-5" d="M174.71,338.65H130.07a.78.78,0,0,1-.78-.78.79.79,0,0,1,.78-.79h44.64a.79.79,0,0,1,.79.79A.78.78,0,0,1,174.71,338.65Z"/><path class="cls-5" d="M174.71,279.07H130.07a.79.79,0,0,1,0-1.57h44.64a.79.79,0,1,1,0,1.57Z"/><path class="cls-5" d="M279.19,321a.78.78,0,0,1-.78-.78V297.84a.78.78,0,0,1,.78-.79.79.79,0,0,1,.79.79v22.42A.79.79,0,0,1,279.19,321Z"/><path class="cls-5" d="M216.82,321a.78.78,0,0,1-.78-.78V297.84a.78.78,0,0,1,.78-.79.79.79,0,0,1,.79.79v22.42A.79.79,0,0,1,216.82,321Z"/><path class="cls-5" d="M270.59,338.65H226a.78.78,0,0,1-.78-.78.79.79,0,0,1,.78-.79h44.64a.8.8,0,0,1,.79.79A.79.79,0,0,1,270.59,338.65Z"/><path class="cls-5" d="M270.59,279.07H226a.79.79,0,0,1,0-1.57h44.64a.79.79,0,1,1,0,1.57Z"/><path class="cls-5" d="M375,321a.78.78,0,0,1-.78-.78V297.84a.78.78,0,0,1,.78-.79.79.79,0,0,1,.79.79v22.42A.79.79,0,0,1,375,321Z"/><path class="cls-5" d="M312.66,321a.78.78,0,0,1-.78-.78V297.84a.78.78,0,0,1,.78-.79.79.79,0,0,1,.79.79v22.42A.79.79,0,0,1,312.66,321Z"/><path class="cls-5" d="M366.43,338.65H321.79a.78.78,0,0,1-.78-.78.79.79,0,0,1,.78-.79h44.64a.8.8,0,0,1,.79.79A.79.79,0,0,1,366.43,338.65Z"/><path class="cls-5" d="M366.43,279.07H321.79a.79.79,0,0,1,0-1.57h44.64a.79.79,0,1,1,0,1.57Z"/><circle class="cls-3" cx="27.02" cy="95.83" r="8.83"/><circle class="cls-6" cx="27.02" cy="95.83" r="7.83"/><rect class="cls-7" x="24.51" y="93.32" width="4.98" height="4.98" rx="0.57"/><circle class="cls-3" cx="27.02" cy="138.62" r="8.83"/><circle class="cls-6" cx="27.02" cy="138.62" r="7.83"/><rect class="cls-7" x="24.51" y="136.11" width="4.98" height="4.98" rx="0.57"/><circle class="cls-3" cx="87.68" cy="95.83" r="8.83"/><circle class="cls-6" cx="87.68" cy="95.83" r="7.83"/><rect class="cls-7" x="85.17" y="93.32" width="4.98" height="4.98" rx="0.57"/><circle class="cls-3" cx="87.68" cy="138.62" r="8.83"/><circle class="cls-6" cx="87.68" cy="138.62" r="7.83"/><rect class="cls-7" x="85.17" y="136.11" width="4.98" height="4.98" rx="0.57"/><rect class="cls-8" x="29.35" y="88.94" width="56.12" height="54.39" rx="2.49"/><rect class="cls-9" x="30.13" y="89.69" width="54.56" height="52.88" rx="2.49"/><circle class="cls-10" cx="36.73" cy="96.29" r="6.1"/><circle class="cls-11" cx="36.73" cy="96.29" r="4.52"/><circle class="cls-10" cx="78.14" cy="96.29" r="6.1"/><circle class="cls-11" cx="78.14" cy="96.29" r="4.52"/><circle class="cls-10" cx="78.14" cy="135.96" r="6.1"/><circle class="cls-11" cx="78.14" cy="135.96" r="4.52"/><circle class="cls-10" cx="36.73" cy="135.96" r="6.1"/><circle class="cls-11" cx="36.73" cy="135.96" r="4.52"/><circle class="cls-12" cx="57.41" cy="116.13" r="17.99"/><circle class="cls-13" cx="57.41" cy="116.13" r="16.07"/><circle class="cls-3" cx="122.06" cy="95.83" r="8.83"/><circle class="cls-6" cx="122.06" cy="95.83" r="7.83"/><rect class="cls-7" x="119.55" y="93.32" width="4.98" height="4.98" rx="0.57"/><circle class="cls-3" cx="122.06" cy="138.62" r="8.83"/><circle class="cls-6" cx="122.06" cy="138.62" r="7.83"/><rect class="cls-7" x="119.55" y="136.11" width="4.98" height="4.98" rx="0.57"/><circle class="cls-3" cx="182.72" cy="95.83" r="8.83"/><circle class="cls-6" cx="182.72" cy="95.83" r="7.83"/><rect class="cls-7" x="180.21" y="93.32" width="4.98" height="4.98" rx="0.57"/><circle class="cls-3" cx="182.72" cy="138.62" r="8.83"/><circle class="cls-6" cx="182.72" cy="138.62" r="7.83"/><rect class="cls-7" x="180.21" y="136.11" width="4.98" height="4.98" rx="0.57"/><rect class="cls-8" x="124.39" y="88.94" width="56.12" height="54.39" rx="2.49"/><rect class="cls-9" x="125.17" y="89.69" width="54.56" height="52.88" rx="2.49"/><circle class="cls-10" cx="131.77" cy="96.29" r="6.1"/><circle class="cls-11" cx="131.77" cy="96.29" r="4.52"/><circle class="cls-10" cx="173.18" cy="96.29" r="6.1"/><circle class="cls-11" cx="173.18" cy="96.29" r="4.52"/><circle class="cls-10" cx="173.18" cy="135.96" r="6.1"/><circle class="cls-11" cx="173.18" cy="135.96" r="4.52"/><circle class="cls-10" cx="131.77" cy="135.96" r="6.1"/><circle class="cls-11" cx="131.77" cy="135.96" r="4.52"/><circle class="cls-12" cx="152.45" cy="116.13" r="17.99"/><circle class="cls-13" cx="152.45" cy="116.13" r="16.07"/><circle class="cls-3" cx="217.94" cy="95.83" r="8.83"/><circle class="cls-6" cx="217.94" cy="95.83" r="7.83"/><rect class="cls-7" x="215.43" y="93.32" width="4.98" height="4.98" rx="0.57"/><circle class="cls-3" cx="217.94" cy="138.62" r="8.83"/><circle class="cls-6" cx="217.94" cy="138.62" r="7.83"/><rect class="cls-7" x="215.43" y="136.11" width="4.98" height="4.98" rx="0.57"/><circle class="cls-3" cx="278.6" cy="95.83" r="8.83"/><circle class="cls-6" cx="278.6" cy="95.83" r="7.83"/><rect class="cls-7" x="276.09" y="93.32" width="4.98" height="4.98" rx="0.57"/><circle class="cls-3" cx="278.6" cy="138.62" r="8.83"/><circle class="cls-6" cx="278.6" cy="138.62" r="7.83"/><rect class="cls-7" x="276.09" y="136.11" width="4.98" height="4.98" rx="0.57"/><rect class="cls-8" x="220.27" y="88.94" width="56.12" height="54.39" rx="2.49"/><rect class="cls-9" x="221.04" y="89.69" width="54.56" height="52.88" rx="2.49"/><circle class="cls-10" cx="227.65" cy="96.29" r="6.1"/><circle class="cls-11" cx="227.65" cy="96.29" r="4.52"/><circle class="cls-10" cx="269.06" cy="96.29" r="6.1"/><circle class="cls-11" cx="269.06" cy="96.29" r="4.52"/><circle class="cls-10" cx="269.06" cy="135.96" r="6.1"/><circle class="cls-11" cx="269.06" cy="135.96" r="4.52"/><circle class="cls-10" cx="227.65" cy="135.96" r="6.1"/><circle class="cls-11" cx="227.65" cy="135.96" r="4.52"/><circle class="cls-12" cx="248.33" cy="116.13" r="17.99"/><circle class="cls-13" cx="248.33" cy="116.13" r="16.07"/><circle class="cls-3" cx="312.9" cy="95.83" r="8.83"/><circle class="cls-6" cx="312.9" cy="95.83" r="7.83"/><rect class="cls-7" x="310.39" y="93.32" width="4.98" height="4.98" rx="0.57"/><circle class="cls-3" cx="312.9" cy="138.62" r="8.83"/><circle class="cls-6" cx="312.9" cy="138.62" r="7.83"/><rect class="cls-7" x="310.39" y="136.11" width="4.98" height="4.98" rx="0.57"/><circle class="cls-3" cx="373.56" cy="95.83" r="8.83"/><circle class="cls-6" cx="373.56" cy="95.83" r="7.83"/><rect class="cls-7" x="371.05" y="93.32" width="4.98" height="4.98" rx="0.57"/><circle class="cls-3" cx="373.56" cy="138.62" r="8.83"/><circle class="cls-6" cx="373.56" cy="138.62" r="7.83"/><rect class="cls-7" x="371.05" y="136.11" width="4.98" height="4.98" rx="0.57"/><rect class="cls-8" x="315.22" y="88.94" width="56.12" height="54.39" rx="2.49"/><rect class="cls-9" x="316" y="89.69" width="54.56" height="52.88" rx="2.49"/><circle class="cls-10" cx="322.61" cy="96.29" r="6.1"/><circle class="cls-11" cx="322.61" cy="96.29" r="4.52"/><circle class="cls-10" cx="364.01" cy="96.29" r="6.1"/><circle class="cls-11" cx="364.01" cy="96.29" r="4.52"/><circle class="cls-10" cx="364.01" cy="135.96" r="6.1"/><circle class="cls-11" cx="364.01" cy="135.96" r="4.52"/><circle class="cls-10" cx="322.61" cy="135.96" r="6.1"/><circle class="cls-11" cx="322.61" cy="135.96" r="4.52"/><circle class="cls-12" cx="343.28" cy="116.13" r="17.99"/><circle class="cls-13" cx="343.28" cy="116.13" r="16.07"/><circle class="cls-3" cx="27.02" cy="191.4" r="8.83"/><circle class="cls-6" cx="27.02" cy="191.4" r="7.83"/><rect class="cls-7" x="24.51" y="188.89" width="4.98" height="4.98" rx="0.57"/><circle class="cls-3" cx="27.02" cy="234.19" r="8.83"/><circle class="cls-6" cx="27.02" cy="234.19" r="7.83"/><rect class="cls-7" x="24.51" y="231.68" width="4.98" height="4.98" rx="0.57"/><circle class="cls-3" cx="87.68" cy="191.4" r="8.83"/><circle class="cls-6" cx="87.68" cy="191.4" r="7.83"/><rect class="cls-7" x="85.17" y="188.89" width="4.98" height="4.98" rx="0.57"/><circle class="cls-3" cx="87.68" cy="234.19" r="8.83"/><circle class="cls-6" cx="87.68" cy="234.19" r="7.83"/><rect class="cls-7" x="85.17" y="231.68" width="4.98" height="4.98" rx="0.57"/><rect class="cls-8" x="29.35" y="184.5" width="56.12" height="54.39" rx="2.49"/><rect class="cls-9" x="30.13" y="185.26" width="54.56" height="52.88" rx="2.49"/><circle class="cls-10" cx="36.73" cy="191.86" r="6.1"/><circle class="cls-11" cx="36.73" cy="191.86" r="4.52"/><circle class="cls-10" cx="78.14" cy="191.86" r="6.1"/><circle class="cls-11" cx="78.14" cy="191.86" r="4.52"/><circle class="cls-10" cx="78.14" cy="231.53" r="6.1"/><circle class="cls-11" cx="78.14" cy="231.53" r="4.52"/><circle class="cls-10" cx="36.73" cy="231.53" r="6.1"/><circle class="cls-11" cx="36.73" cy="231.53" r="4.52"/><circle class="cls-12" cx="57.41" cy="211.7" r="17.99"/><circle class="cls-13" cx="57.41" cy="211.7" r="16.07"/><circle class="cls-3" cx="122.06" cy="191.4" r="8.83"/><circle class="cls-6" cx="122.06" cy="191.4" r="7.83"/><rect class="cls-7" x="119.55" y="188.89" width="4.98" height="4.98" rx="0.57"/><circle class="cls-3" cx="122.06" cy="234.19" r="8.83"/><circle class="cls-6" cx="122.06" cy="234.19" r="7.83"/><rect class="cls-7" x="119.55" y="231.68" width="4.98" height="4.98" rx="0.57"/><circle class="cls-3" cx="182.72" cy="191.4" r="8.83"/><circle class="cls-6" cx="182.72" cy="191.4" r="7.83"/><rect class="cls-7" x="180.21" y="188.89" width="4.98" height="4.98" rx="0.57"/><circle class="cls-3" cx="182.72" cy="234.19" r="8.83"/><circle class="cls-6" cx="182.72" cy="234.19" r="7.83"/><rect class="cls-7" x="180.21" y="231.68" width="4.98" height="4.98" rx="0.57"/><rect class="cls-8" x="124.39" y="184.5" width="56.12" height="54.39" rx="2.49"/><rect class="cls-9" x="125.17" y="185.26" width="54.56" height="52.88" rx="2.49"/><circle class="cls-10" cx="131.77" cy="191.86" r="6.1"/><circle class="cls-11" cx="131.77" cy="191.86" r="4.52"/><circle class="cls-10" cx="173.18" cy="191.86" r="6.1"/><circle class="cls-11" cx="173.18" cy="191.86" r="4.52"/><circle class="cls-10" cx="173.18" cy="231.53" r="6.1"/><circle class="cls-11" cx="173.18" cy="231.53" r="4.52"/><circle class="cls-10" cx="131.77" cy="231.53" r="6.1"/><circle class="cls-11" cx="131.77" cy="231.53" r="4.52"/><circle class="cls-12" cx="152.45" cy="211.7" r="17.99"/><circle class="cls-13" cx="152.45" cy="211.7" r="16.07"/><circle class="cls-3" cx="217.94" cy="191.4" r="8.83"/><circle class="cls-6" cx="217.94" cy="191.4" r="7.83"/><rect class="cls-7" x="215.43" y="188.89" width="4.98" height="4.98" rx="0.57"/><circle class="cls-3" cx="217.94" cy="234.19" r="8.83"/><circle class="cls-6" cx="217.94" cy="234.19" r="7.83"/><rect class="cls-7" x="215.43" y="231.68" width="4.98" height="4.98" rx="0.57"/><circle class="cls-3" cx="278.6" cy="191.4" r="8.83"/><circle class="cls-6" cx="278.6" cy="191.4" r="7.83"/><rect class="cls-7" x="276.09" y="188.89" width="4.98" height="4.98" rx="0.57"/><circle class="cls-3" cx="278.6" cy="234.19" r="8.83"/><circle class="cls-6" cx="278.6" cy="234.19" r="7.83"/><rect class="cls-7" x="276.09" y="231.68" width="4.98" height="4.98" rx="0.57"/><rect class="cls-8" x="220.27" y="184.5" width="56.12" height="54.39" rx="2.49"/><rect class="cls-9" x="221.04" y="185.26" width="54.56" height="52.88" rx="2.49"/><circle class="cls-10" cx="227.65" cy="191.86" r="6.1"/><circle class="cls-11" cx="227.65" cy="191.86" r="4.52"/><circle class="cls-10" cx="269.06" cy="191.86" r="6.1"/><circle class="cls-11" cx="269.06" cy="191.86" r="4.52"/><circle class="cls-10" cx="269.06" cy="231.53" r="6.1"/><circle class="cls-11" cx="269.06" cy="231.53" r="4.52"/><circle class="cls-10" cx="227.65" cy="231.53" r="6.1"/><circle class="cls-11" cx="227.65" cy="231.53" r="4.52"/><circle class="cls-12" cx="248.33" cy="211.7" r="17.99"/><circle class="cls-13" cx="248.33" cy="211.7" r="16.07"/><circle class="cls-3" cx="312.9" cy="191.4" r="8.83"/><circle class="cls-6" cx="312.9" cy="191.4" r="7.83"/><rect class="cls-7" x="310.39" y="188.89" width="4.98" height="4.98" rx="0.57"/><circle class="cls-3" cx="312.9" cy="234.19" r="8.83"/><circle class="cls-6" cx="312.9" cy="234.19" r="7.83"/><rect class="cls-7" x="310.39" y="231.68" width="4.98" height="4.98" rx="0.57"/><circle class="cls-3" cx="373.56" cy="191.4" r="8.83"/><circle class="cls-6" cx="373.56" cy="191.4" r="7.83"/><rect class="cls-7" x="371.05" y="188.89" width="4.98" height="4.98" rx="0.57"/><circle class="cls-3" cx="373.56" cy="234.19" r="8.83"/><circle class="cls-6" cx="373.56" cy="234.19" r="7.83"/><rect class="cls-7" x="371.05" y="231.68" width="4.98" height="4.98" rx="0.57"/><rect class="cls-8" x="315.22" y="184.5" width="56.12" height="54.39" rx="2.49"/><rect class="cls-9" x="316" y="185.26" width="54.56" height="52.88" rx="2.49"/><circle class="cls-10" cx="322.61" cy="191.86" r="6.1"/><circle class="cls-11" cx="322.61" cy="191.86" r="4.52"/><circle class="cls-10" cx="364.01" cy="191.86" r="6.1"/><circle class="cls-11" cx="364.01" cy="191.86" r="4.52"/><circle class="cls-10" cx="364.01" cy="231.53" r="6.1"/><circle class="cls-11" cx="364.01" cy="231.53" r="4.52"/><circle class="cls-10" cx="322.61" cy="231.53" r="6.1"/><circle class="cls-11" cx="322.61" cy="231.53" r="4.52"/><circle class="cls-12" cx="343.28" cy="211.7" r="17.99"/><circle class="cls-13" cx="343.28" cy="211.7" r="16.07"/><circle class="cls-3" cx="27.02" cy="287.66" r="8.83"/><circle class="cls-6" cx="27.02" cy="287.66" r="7.83"/><rect class="cls-7" x="24.51" y="285.15" width="4.98" height="4.98" rx="0.57"/><circle class="cls-3" cx="27.02" cy="330.44" r="8.83"/><circle class="cls-6" cx="27.02" cy="330.44" r="7.83"/><rect class="cls-7" x="24.51" y="327.93" width="4.98" height="4.98" rx="0.57"/><circle class="cls-3" cx="87.68" cy="287.66" r="8.83"/><circle class="cls-6" cx="87.68" cy="287.66" r="7.83"/><rect class="cls-7" x="85.17" y="285.15" width="4.98" height="4.98" rx="0.57"/><circle class="cls-3" cx="87.68" cy="330.44" r="8.83"/><circle class="cls-6" cx="87.68" cy="330.44" r="7.83"/><rect class="cls-7" x="85.17" y="327.93" width="4.98" height="4.98" rx="0.57"/><rect class="cls-8" x="29.35" y="280.76" width="56.12" height="54.39" rx="2.49"/><rect class="cls-9" x="30.13" y="281.51" width="54.56" height="52.88" rx="2.49"/><circle class="cls-10" cx="36.73" cy="288.12" r="6.1"/><circle class="cls-11" cx="36.73" cy="288.12" r="4.52"/><circle class="cls-10" cx="78.14" cy="288.12" r="6.1"/><circle class="cls-11" cx="78.14" cy="288.12" r="4.52"/><circle class="cls-10" cx="78.14" cy="327.79" r="6.1"/><circle class="cls-11" cx="78.14" cy="327.79" r="4.52"/><circle class="cls-10" cx="36.73" cy="327.79" r="6.1"/><circle class="cls-11" cx="36.73" cy="327.79" r="4.52"/><circle class="cls-12" cx="57.41" cy="307.95" r="17.99"/><circle class="cls-13" cx="57.41" cy="307.95" r="16.07"/><circle class="cls-3" cx="122.06" cy="287.66" r="8.83"/><circle class="cls-6" cx="122.06" cy="287.66" r="7.83"/><rect class="cls-7" x="119.55" y="285.15" width="4.98" height="4.98" rx="0.57"/><circle class="cls-3" cx="122.06" cy="330.44" r="8.83"/><circle class="cls-6" cx="122.06" cy="330.44" r="7.83"/><rect class="cls-7" x="119.55" y="327.93" width="4.98" height="4.98" rx="0.57"/><circle class="cls-3" cx="182.72" cy="287.66" r="8.83"/><circle class="cls-6" cx="182.72" cy="287.66" r="7.83"/><rect class="cls-7" x="180.21" y="285.15" width="4.98" height="4.98" rx="0.57"/><circle class="cls-3" cx="182.72" cy="330.44" r="8.83"/><circle class="cls-6" cx="182.72" cy="330.44" r="7.83"/><rect class="cls-7" x="180.21" y="327.93" width="4.98" height="4.98" rx="0.57"/><rect class="cls-8" x="124.39" y="280.76" width="56.12" height="54.39" rx="2.49"/><rect class="cls-9" x="125.17" y="281.51" width="54.56" height="52.88" rx="2.49"/><circle class="cls-10" cx="131.77" cy="288.12" r="6.1"/><circle class="cls-11" cx="131.77" cy="288.12" r="4.52"/><circle class="cls-10" cx="173.18" cy="288.12" r="6.1"/><circle class="cls-11" cx="173.18" cy="288.12" r="4.52"/><circle class="cls-10" cx="173.18" cy="327.79" r="6.1"/><circle class="cls-11" cx="173.18" cy="327.79" r="4.52"/><circle class="cls-10" cx="131.77" cy="327.79" r="6.1"/><circle class="cls-11" cx="131.77" cy="327.79" r="4.52"/><circle class="cls-12" cx="152.45" cy="307.95" r="17.99"/><circle class="cls-13" cx="152.45" cy="307.95" r="16.07"/><circle class="cls-3" cx="217.94" cy="287.66" r="8.83"/><circle class="cls-6" cx="217.94" cy="287.66" r="7.83"/><rect class="cls-7" x="215.43" y="285.15" width="4.98" height="4.98" rx="0.57"/><circle class="cls-3" cx="217.94" cy="330.44" r="8.83"/><circle class="cls-6" cx="217.94" cy="330.44" r="7.83"/><rect class="cls-7" x="215.43" y="327.93" width="4.98" height="4.98" rx="0.57"/><circle class="cls-3" cx="278.6" cy="287.66" r="8.83"/><circle class="cls-6" cx="278.6" cy="287.66" r="7.83"/><rect class="cls-7" x="276.09" y="285.15" width="4.98" height="4.98" rx="0.57"/><circle class="cls-3" cx="278.6" cy="330.44" r="8.83"/><circle class="cls-6" cx="278.6" cy="330.44" r="7.83"/><rect class="cls-7" x="276.09" y="327.93" width="4.98" height="4.98" rx="0.57"/><rect class="cls-8" x="220.27" y="280.76" width="56.12" height="54.39" rx="2.49"/><rect class="cls-9" x="221.04" y="281.51" width="54.56" height="52.88" rx="2.49"/><circle class="cls-10" cx="227.65" cy="288.12" r="6.1"/><circle class="cls-11" cx="227.65" cy="288.12" r="4.52"/><circle class="cls-10" cx="269.06" cy="288.12" r="6.1"/><circle class="cls-11" cx="269.06" cy="288.12" r="4.52"/><circle class="cls-10" cx="269.06" cy="327.79" r="6.1"/><circle class="cls-11" cx="269.06" cy="327.79" r="4.52"/><circle class="cls-10" cx="227.65" cy="327.79" r="6.1"/><circle class="cls-11" cx="227.65" cy="327.79" r="4.52"/><circle class="cls-12" cx="248.33" cy="307.95" r="17.99"/><circle class="cls-13" cx="248.33" cy="307.95" r="16.07"/><circle class="cls-3" cx="312.9" cy="287.66" r="8.83"/><circle class="cls-6" cx="312.9" cy="287.66" r="7.83"/><rect class="cls-7" x="310.39" y="285.15" width="4.98" height="4.98" rx="0.57"/><circle class="cls-3" cx="312.9" cy="330.44" r="8.83"/><circle class="cls-6" cx="312.9" cy="330.44" r="7.83"/><rect class="cls-7" x="310.39" y="327.93" width="4.98" height="4.98" rx="0.57"/><circle class="cls-3" cx="373.56" cy="287.66" r="8.83"/><circle class="cls-6" cx="373.56" cy="287.66" r="7.83"/><rect class="cls-7" x="371.05" y="285.15" width="4.98" height="4.98" rx="0.57"/><circle class="cls-3" cx="373.56" cy="330.44" r="8.83"/><circle class="cls-6" cx="373.56" cy="330.44" r="7.83"/><rect class="cls-7" x="371.05" y="327.93" width="4.98" height="4.98" rx="0.57"/><rect class="cls-8" x="315.22" y="280.76" width="56.12" height="54.39" rx="2.49"/><rect class="cls-9" x="316" y="281.51" width="54.56" height="52.88" rx="2.49"/><circle class="cls-10" cx="322.61" cy="288.12" r="6.1"/><circle class="cls-11" cx="322.61" cy="288.12" r="4.52"/><circle class="cls-10" cx="364.01" cy="288.12" r="6.1"/><circle class="cls-11" cx="364.01" cy="288.12" r="4.52"/><circle class="cls-10" cx="364.01" cy="327.79" r="6.1"/><circle class="cls-11" cx="364.01" cy="327.79" r="4.52"/><circle class="cls-10" cx="322.61" cy="327.79" r="6.1"/><circle class="cls-11" cx="322.61" cy="327.79" r="4.52"/><circle class="cls-12" cx="343.28" cy="307.95" r="17.99"/><circle class="cls-13" cx="343.28" cy="307.95" r="16.07"/></g></g></svg>