<svg xmlns="http://www.w3.org/2000/svg" viewBox="0 0 427.53 548.07"><defs><style>.cls-1{fill:#1e1e1e;}.cls-2{fill:#e0ac52;}.cls-3{fill:#f5f6f7;}.cls-4{fill:#fff;}.cls-5{fill:#c0b5ab;}.cls-6{fill:#e0b372;}.cls-7{fill:#6a6669;}.cls-8{fill:#2f2d2f;}.cls-9{fill:#5b5352;}.cls-10{fill:#494548;}.cls-11{fill:#121417;}.cls-12{fill:#211f1a;}</style></defs><g id="Layer_2" data-name="Layer 2"><g id="RAK14011"><path class="cls-1" d="M0,0V548.07H427.53V0ZM39.28,520.09a11,11,0,1,1,11-11A11,11,0,0,1,39.28,520.09ZM39,50.34a11,11,0,1,1,11-11A11,11,0,0,1,39,50.34Zm348.94,469.3a11,11,0,1,1,11-11A11,11,0,0,1,387.94,519.64Zm1-468.68a11,11,0,1,1,11-11A11,11,0,0,1,388.92,51Z"/><path class="cls-2" d="M39.28,488.63a20.45,20.45,0,1,0,20.45,20.45A20.45,20.45,0,0,0,39.28,488.63Zm0,31.46a11,11,0,1,1,11-11A11,11,0,0,1,39.28,520.09Z"/><path class="cls-2" d="M39,18.89A20.44,20.44,0,1,0,59.44,39.33,20.44,20.44,0,0,0,39,18.89Zm0,31.45a11,11,0,1,1,11-11A11,11,0,0,1,39,50.34Z"/><path class="cls-2" d="M387.94,488.19a20.45,20.45,0,1,0,20.45,20.45A20.44,20.44,0,0,0,387.94,488.19Zm0,31.45a11,11,0,1,1,11-11A11,11,0,0,1,387.94,519.64Z"/><path class="cls-2" d="M388.92,19.51A20.45,20.45,0,1,0,409.37,40,20.44,20.44,0,0,0,388.92,19.51Zm0,31.45a11,11,0,1,1,11-11A11,11,0,0,1,388.92,51Z"/><g id="dispose-properly"><g id="Layer_2-2" data-name="Layer 2-2"><g id="Layer_1-2" data-name="Layer 1-2"><path class="cls-3" d="M312.37,537.61a2.08,2.08,0,1,0,2.27,2.39,2.41,2.41,0,0,0,0-.38v-.21a2.11,2.11,0,0,0-2.27-1.8m.19,2.39a.48.48,0,0,1-.07-1h0a.49.49,0,0,1,.4.21.46.46,0,0,1,0,.67.45.45,0,0,1-.28,0"/><path class="cls-3" d="M304.9,498.37h-1.79v6.53h4.47q.72,7.64,1.41,15.29c.34,3.47.65,7,1,10.55l-6.43,6.73,1,1,5.6-5.86V534a6,6,0,0,0-3.4,3.49,6.1,6.1,0,0,0,11.22,4.8,5.38,5.38,0,0,0,.2-.51h12.25v4.38H334v-4.38a.89.89,0,0,0,.88-.79l.94-10.2,6.43,6.73,1-1-7.17-7.58q.38-4.38.79-8.69c.52-5.72,1-11.46,1.6-17.18l8.13-8.47-1-1-6.87,7.17.43-4.49h2.59v-2.68h-2.4v-.6a.8.8,0,0,0-.24-.7,12.85,12.85,0,0,0-3.8-2.39v-2h-4v.79a40,40,0,0,0-5-.67v-1.12h-9.41v1.41a30.24,30.24,0,0,0-6.22,1.46,13.71,13.71,0,0,0-3,1.65,2.44,2.44,0,0,0-1.14-.84,2.41,2.41,0,0,0-3.14,1.27,1.46,1.46,0,0,0-.07.19,2.51,2.51,0,0,0,1.46,3.23v1h1.94c0,.72.12,1.41.19,2.13h0l-2.06-2.13-3.52-3.66-1,1Zm.81-6.63a1.12,1.12,0,0,1,1,.53.91.91,0,0,0-.24.67v.6h-1.67a1.19,1.19,0,0,1-.24-.67,1.12,1.12,0,0,1,1.12-1.13h0m19-2.13h-6.12v-1.29h6.19Zm9.26,2.54H333v-2.8h.88Zm3.85,1.15a.91.91,0,0,1,0,.33h-2.22v-1.82a12,12,0,0,1,2.25,1.49m-2.39,26.82c-.22,2.39-.44,4.79-.67,7.18l-9.58-10,11.66-12.16q-.72,7.51-1.41,15m-3.21,22.78H333V545h-.79Zm-13.28-3.23h0a6.1,6.1,0,0,0-6.1-6.08h-.58A22.5,22.5,0,0,0,312,531l12.18-12.71,10.39,10.84c-.34,3.64-.65,7.18-1,10.91H318.64a2.41,2.41,0,0,0,0-.38m-9.29,0a3.21,3.21,0,0,1,3-3.26h.31a3.16,3.16,0,0,1,3.18,3.14v0a2.81,2.81,0,0,1,0,.41,3.18,3.18,0,0,1-6.34-.41M310.91,520q-.72-7.53-1.41-15.12h0v-1.79l4.78,5.05v1.77H316l7,7.17-11.36,12c-.27-3-.55-6.05-.82-9.05m5.12-12.25v-.62h9.24v1.29h-8.61Zm-7.17-9.4-.22-2.13h28.88c-.19,2.18-.41,4.35-.6,6.53l-12.85,13.31-6-6.25h8.78v-4.19H314.28v.46l-4.78-5.05v-2.68h-.72m-.48-4.79a1.82,1.82,0,0,0,0-.33,12.21,12.21,0,0,1,3.06-1.84,28,28,0,0,1,5.62-1.34v1.07h9.41v-1.38a38.29,38.29,0,0,1,5,.69v3.11H308.25m-1.91,6.34.83.86a24,24,0,0,0,.27,2.66h-2.71v-3.54Z"/></g></g></g><path class="cls-4" d="M109.68,482l30.4,62.69H79.18Zm0-3.41-32.9,67.57h65.78Z"/><rect class="cls-4" x="114.1" y="497.33" width="1.49" height="43.3" transform="translate(-393.35 363.21) rotate(-60.48)"/><rect class="cls-4" x="114.64" y="499.13" width="1.49" height="47.89" transform="translate(-396.64 365.76) rotate(-60.48)"/><path class="cls-4" d="M101,511.07l-1.33-.7a84.3,84.3,0,0,1,4.37-7.3c2-2.83,13-5.33,14.27-5.49l.32,1.46c-4.51,1-12.11,3.12-13.34,4.91a71.74,71.74,0,0,0-4.23,7.12"/><path class="cls-4" d="M119.92,522.27l-.74-1.31a5.53,5.53,0,0,0,2.66-5.07A21.79,21.79,0,0,1,123,509l1.44.48a19.16,19.16,0,0,0-1.06,6.27,7.05,7.05,0,0,1-3.52,6.51"/><path class="cls-4" d="M104,530.24h-.56c-3.12-.4-7.06-10.16-7.09-10.27a6.76,6.76,0,0,1,1.92-6.85l1,1.09a5.35,5.35,0,0,0-1.57,5.34c1.7,4.26,4.58,9.17,5.89,9.33.69,0,1.09,0,1.2-.21s0-.78-.61-1.5a16.84,16.84,0,0,1-3.2-7.73,13.46,13.46,0,0,1,1.78-3.63l1.28.78a12.53,12.53,0,0,0-1.46,3,16.93,16.93,0,0,0,2.85,6.45c1.28,1.6,1,2.67.74,3.15a2.25,2.25,0,0,1-2.13,1"/><path class="cls-4" d="M109.82,533.23a2,2,0,0,1-.91-.22c-.56-.29-1.15-1-1-2.66.4-3.36,4.75-8.67,4.93-8.91l1.15,1a23.5,23.5,0,0,0-4.59,8.13c0,.67,0,1,.16,1.1a4.91,4.91,0,0,0,2.67-1.26,46.87,46.87,0,0,0,4.8-6.4l1.25.8a47.87,47.87,0,0,1-4.9,6.78,6.25,6.25,0,0,1-3.52,1.68"/><path class="cls-4" d="M109.34,527.84a16.56,16.56,0,0,1-6.16-2.48l.8-1.28c2.42,1.49,5.09,2.67,5.6,2.21a1.39,1.39,0,0,0,0-1.06,5.35,5.35,0,0,0-3.12-2.67A3.36,3.36,0,0,1,104.8,517l1.26.8c-.4.64-.83,1.38-.62,2s.7,1,1.63,1.38a6.6,6.6,0,0,1,4.05,3.6,2.67,2.67,0,0,1-.29,2.3,1.51,1.51,0,0,1-1,.69h-.53"/><rect class="cls-4" x="106.83" y="485.36" width="6" height="1.49"/><rect class="cls-4" x="105.04" y="489.02" width="9.25" height="1.49"/><rect class="cls-4" x="103.26" y="492.67" width="12.83" height="1.49"/><rect class="cls-4" x="101.5" y="496.32" width="16.37" height="1.49"/><rect class="cls-4" x="100.01" y="499.98" width="9.71" height="1.49"/><rect class="cls-4" x="97.93" y="503.63" width="6.11" height="1.49"/><rect class="cls-4" x="96.49" y="507.31" width="5.17" height="1.49"/><rect class="cls-4" x="92.59" y="514.61" width="4.85" height="1.49"/><rect class="cls-4" x="122.88" y="514.61" width="3.89" height="1.49"/><rect class="cls-4" x="90.81" y="518.27" width="6.19" height="1.49"/><rect class="cls-4" x="122.22" y="518.27" width="6.19" height="1.49"/><rect class="cls-4" x="89.37" y="521.92" width="8.96" height="1.49"/><rect class="cls-4" x="121.42" y="521.92" width="8.91" height="1.49"/><rect class="cls-4" x="87.23" y="525.57" width="13.15" height="1.49"/><rect class="cls-4" x="116.51" y="525.57" width="4.69" height="1.49"/><path class="cls-4" d="M132.23,527.43h-4.72v-2.21h4.72Zm-4-.72h3.28v-.78h-3.28Z"/><rect class="cls-4" x="85.47" y="529.25" width="23.2" height="1.49"/><rect class="cls-4" x="113.79" y="529.25" width="14.11" height="1.49"/><rect class="cls-4" x="84.27" y="532.91" width="49.65" height="1.49"/><rect class="cls-4" x="81.9" y="536.56" width="55.52" height="1.49"/><rect class="cls-4" x="79.98" y="540.21" width="59.2" height="1.49"/><path class="cls-4" d="M127.53,27.79a7,7,0,0,1,2.79.51,6.16,6.16,0,0,1,2.13,1.38,5.77,5.77,0,0,1,1.36,2,6.34,6.34,0,0,1,.48,2.51,7.07,7.07,0,0,1-.88,3.54A5.33,5.33,0,0,1,130.62,40h0a3.63,3.63,0,0,1,1.56.77,4.35,4.35,0,0,1,1,1.26,5.79,5.79,0,0,1,.55,1.61,12.67,12.67,0,0,1,.26,1.73v1.31a6.33,6.33,0,0,0,.12,1.5,10.39,10.39,0,0,0,.25,1.48,3.32,3.32,0,0,0,.53,1.18h-5a9.32,9.32,0,0,1-.5-2.51,20.62,20.62,0,0,0-.31-2.89A4.56,4.56,0,0,0,128,42.71a4,4,0,0,0-2.76-.86h-5v9h-5V27.79ZM125.7,38.24a3.79,3.79,0,0,0,2.64-.78,3.33,3.33,0,0,0,.88-2.51,3.22,3.22,0,0,0-.88-2.51,3.9,3.9,0,0,0-2.64-.75h-5.55v6.5Z"/><path class="cls-4" d="M149.35,27.79,158,50.87h-5.27l-1.76-5h-8.61l-1.81,5h-5l8.74-23.08Zm.3,14.16-2.91-8.48h0L143.65,42Z"/><polygon class="cls-4" points="164.14 27.79 164.14 37.36 173.16 27.79 179.51 27.79 170.49 36.91 180.39 50.87 174.01 50.87 167.05 40.5 164.14 43.44 164.14 50.87 159.07 50.87 159.07 27.79 164.14 27.79"/><path class="cls-4" d="M92.18,32.64a8.35,8.35,0,0,1,3.21.55h0s.71.33.58,1.66a1.8,1.8,0,0,1-1.85,1.76H88.06V34.1A3.46,3.46,0,0,0,87.89,33a20.47,20.47,0,0,1,3.74-.65h.55"/><path class="cls-4" d="M92.86,28h1.2c.68,0,1.56.13,1.84.65a2.25,2.25,0,0,1,.22,1.61,1.9,1.9,0,0,1-.52,1,3.06,3.06,0,0,1-.36.36,10.72,10.72,0,0,0-3-.41h-.88a22,22,0,0,0-4.25.81,3.88,3.88,0,0,0-1.1-.63l-.55-.18a11.51,11.51,0,0,1,3.79-2.51,11,11,0,0,1,3.59-.7"/><path class="cls-4" d="M92.11,22.9h.47c2.79.15,3.17.52,3.19,2a2.51,2.51,0,0,1-1,1.78H93.13a11.34,11.34,0,0,0-3.28.45,12.26,12.26,0,0,0-4.57,2.51,18.47,18.47,0,0,0-1.76,1.78,2.42,2.42,0,0,0-.86.51l-.22.22a3.88,3.88,0,0,0-1-.68,3.15,3.15,0,0,0-1.25-.27,14.16,14.16,0,0,1,3.64-5A13.54,13.54,0,0,1,92.11,23h0"/><path class="cls-4" d="M95.37,37.81A20.94,20.94,0,0,1,96,41.58a8.66,8.66,0,0,1-.53,3.74h0s-.27.58-1.33.58h-.32A1.85,1.85,0,0,1,92.05,44v0h0V38h2.38a3.73,3.73,0,0,0,1-.18"/><path class="cls-4" d="M97.43,35.4a11.88,11.88,0,0,1,2.51,3.79,10.59,10.59,0,0,1,.63,4.32V44c0,.68,0,1.56-.63,1.83a2.64,2.64,0,0,1-1.06.3,2.53,2.53,0,0,1-.55,0,2.15,2.15,0,0,1-1-.52L97,45.24a11.68,11.68,0,0,0,.35-3.86,21.69,21.69,0,0,0-.81-4.22,3.93,3.93,0,0,0,.63-1.11,2.7,2.7,0,0,0,.18-.57"/><path class="cls-4" d="M97.55,30.15a14.41,14.41,0,0,1,5,3.64,13.34,13.34,0,0,1,3.11,8.72c0,2.78-.53,3.16-2,3.19a2.52,2.52,0,0,1-1.76-1,14.19,14.19,0,0,0-.35-4.9,12.56,12.56,0,0,0-2.51-4.59,24.5,24.5,0,0,0-1.79-1.74,2.61,2.61,0,0,0-.5-.85,1,1,0,0,0-.25-.25,3.17,3.17,0,0,0,.7-1,3.45,3.45,0,0,0,.28-1.23"/><path class="cls-4" d="M90.67,42v2.52a4.05,4.05,0,0,0,.21,1.08,21,21,0,0,1-3.77.62h-.53a8.38,8.38,0,0,1-3.24-.55h0s-.7-.35-.57-1.66a1.86,1.86,0,0,1,1.9-1.78h6"/><path class="cls-4" d="M91.65,46.55a4.43,4.43,0,0,0,1.11.65l.58.18a12,12,0,0,1-3.82,2.51,11.31,11.31,0,0,1-3.59.68H84.72c-.67,0-1.53,0-1.8-.63a2.21,2.21,0,0,1-.23-1.61,2.36,2.36,0,0,1,.5-1l.38-.32a10.75,10.75,0,0,0,3,.37h.88a22.34,22.34,0,0,0,4.21-.8"/><path class="cls-4" d="M96.37,46.52a2.88,2.88,0,0,0,2.19,1,14,14,0,0,1-3.64,5,13.52,13.52,0,0,1-8.24,3.13h-.45c-2.81,0-3.19-.52-3.21-1.95a2.51,2.51,0,0,1,1-1.71h1.58a11.1,11.1,0,0,0,3.29-.43,12.54,12.54,0,0,0,4.6-2.51c.75-.68,1.48-1.48,1.75-1.78a3.87,3.87,0,0,0,.86-.5l.22-.26"/><path class="cls-4" d="M84.62,32.71H85a1.84,1.84,0,0,1,1.76,1.89v6H84.22a4.11,4.11,0,0,0-1,.17A23.86,23.86,0,0,1,82.51,37a9.16,9.16,0,0,1,.56-3.77h0s.25-.6,1.3-.6"/><path class="cls-4" d="M79.83,32.56h.55a2.12,2.12,0,0,1,1,.51l.36.37a11.75,11.75,0,0,0-.38,3.87,22.5,22.5,0,0,0,.8,4.24,4.68,4.68,0,0,0-.63,1.11,3.5,3.5,0,0,0-.17.55,11.72,11.72,0,0,1-2.51-3.79,10,10,0,0,1-.65-4.32v-.48c0-.7,0-1.55.62-1.83a2.35,2.35,0,0,1,1.06-.3"/><path class="cls-4" d="M75,33a2.51,2.51,0,0,1,1.78,1,12.86,12.86,0,0,0,.35,4.9,12.64,12.64,0,0,0,2.51,4.59,22.73,22.73,0,0,0,1.78,1.76,2.47,2.47,0,0,0,.51.85l.22.23a3.83,3.83,0,0,0-.7.95,3.5,3.5,0,0,0-.28,1.23,13.69,13.69,0,0,1-5-3.66A13.23,13.23,0,0,1,73,36.18c.15-2.79.53-3.19,2-3.19h0"/><path class="cls-4" d="M183.8,27.15a3.51,3.51,0,1,1-3.61,3.5A3.48,3.48,0,0,1,183.8,27.15Zm0,6.27a2.76,2.76,0,1,0-2.65-2.77A2.66,2.66,0,0,0,183.8,33.42Zm-1.4-4.74h1.48c1,0,1.54.31,1.54,1.17a1,1,0,0,1-1,1l1.05,1.71h-.82l-1-1.68h-.49v1.68h-.78Zm.78,1.65h.69c.45,0,.77-.07.77-.55s-.45-.49-.81-.49h-.65Z"/><polygon class="cls-4" points="322.95 19 322.95 22.66 319.52 22.66 319.52 19 309.34 19 309.34 22.66 305.91 22.66 305.91 19 296.76 19 296.76 22.66 293.15 22.66 293.15 41.89 335.53 41.89 335.53 22.66 332.3 22.66 332.3 19 322.95 19"/><path class="cls-4" d="M283.65,44.86h1.47l1.53,6.4h0l1.67-6.4h1.5l1.65,6.4h0l1.55-6.4h1.58l-2.29,8.36h-1.55l-1.67-6.45h0l-1.71,6.4h-1.52Z"/><path class="cls-4" d="M295.36,44.86h1.35v1.27h-1.35Zm0,2.31h1.35v6h-1.35Z"/><path class="cls-4" d="M299.15,51.26a1.19,1.19,0,0,0,1.3,1.08h.07c.53,0,1.4,0,1.35-.79s-1-.78-2-1S298,50,298,48.72,299.38,47,300.49,47A2.29,2.29,0,0,1,303,48.85h-1.42c0-.64-.63-.79-1.22-.79s-1.12,0-1.12.61,1,.76,2,1,1.95.58,1.95,1.78-1.45,1.95-2.72,1.95a2.42,2.42,0,0,1-2.66-2.11Z"/><path class="cls-4" d="M305.8,45h4c1.6,0,2.54.51,2.54,2.06a1.8,1.8,0,0,1-1.11,1.75,2,2,0,0,1,1.52,2.11c0,1.7-1.45,2.54-3,2.54h-4.06Zm1.86,3.38h1.85c.66,0,1.12-.3,1.12-1s-.61-1-1.24-1h-1.73Zm0,3.53h2c.71,0,1.37-.23,1.37-1.09s-.54-1.19-1.32-1.19h-2Z"/><path class="cls-4" d="M314.06,45h1.83v6.89H320V53.4h-5.95Z"/><path class="cls-4" d="M324.76,44.76a4.37,4.37,0,1,1-4.11,4.62,1.77,1.77,0,0,1,0-.23,4,4,0,0,1,3.67-4.38Zm0,7.21c1.65,0,2.26-1.42,2.26-2.82s-.61-2.84-2.26-2.84-2.29,1.4-2.29,2.84S323.11,52,324.76,52Z"/><path class="cls-4" d="M335.68,47.76a1.79,1.79,0,0,0-1.83-1.45c-1.65,0-2.26,1.4-2.26,2.84S332.2,52,333.85,52a1.89,1.89,0,0,0,1.91-1.88h1.78a3.54,3.54,0,0,1-3.66,3.41h0a4.37,4.37,0,0,1,0-8.74,3.41,3.41,0,0,1,3.61,3Z"/><path class="cls-4" d="M338.78,45h1.83v3.46L343.89,45h2.29l-3.31,3.31,3.59,5.08h-2.32l-2.54-3.76-1.06,1.06v2.7h-1.83Z"/><path class="cls-4" d="M193.15,29.3h3.68a1.87,1.87,0,0,1,2,1.88,1.67,1.67,0,0,1-1.08,1.71v0c.74.2.95.89,1,1.59a3.58,3.58,0,0,0,.28,1.62h-1.5a8.6,8.6,0,0,1-.24-1.64c-.1-.71-.38-1-1.13-1h-1.5v2.67h-1.5Zm1.5,3.08h1.64c.68,0,1-.29,1-1s-.35-.95-1-.95h-1.64Z"/><path class="cls-4" d="M202.29,29.3h1.54l2.55,6.82h-1.56l-.51-1.52h-2.55l-.54,1.52H199.7Zm-.14,4.18h1.77l-.86-2.5h0Z"/><path class="cls-4" d="M207.36,29.3h1.5v2.82l2.66-2.82h1.87L210.73,32l2.92,4.13h-1.88l-2.05-3.07-.86.87v2.2h-1.5Z"/><path class="cls-4" d="M217.72,36.12h-1.35V31.78h-1.68v-1c.94,0,1.8-.31,1.95-1.33h1.08Z"/><path class="cls-4" d="M222.65,34.57h-2.82V33.33l2.9-3.9h1.21v4h.89v1.12h-.89v1.55h-1.29Zm0-3.44h0l-1.73,2.32h1.75Z"/><path class="cls-4" d="M228,29.3c1.34,0,2.47.84,2.47,3.44s-1.13,3.51-2.47,3.51-2.44-.84-2.44-3.51S226.69,29.3,228,29.3Zm0,5.83c1.11,0,1.11-1.63,1.11-2.39s0-2.33-1.11-2.33-1.08,1.64-1.08,2.33S226.93,35.13,228,35.13Z"/><path class="cls-4" d="M234.81,36.12h-1.36V31.78h-1.68v-1c.95,0,1.81-.31,2-1.33h1.08Z"/><path class="cls-4" d="M240.5,36.12h-1.35V31.78h-1.68v-1c.94,0,1.8-.31,1.95-1.33h1.08Z"/><path class="cls-4" d="M249.32,36.12h-1.69l-2.21-6.82H247l1.52,4.79h0L250,29.3h1.55Z"/><path class="cls-4" d="M253.53,34c0,.87.45,1.25,1.21,1.25a1.14,1.14,0,0,0,1.07-.64H257a2.21,2.21,0,0,1-2.31,1.66,2.41,2.41,0,0,1-2.52-2.6,2.48,2.48,0,1,1,4.92.33Zm2.2-.86c-.12-.69-.42-1-1.08-1a1.06,1.06,0,0,0-1.12,1Z"/><path class="cls-4" d="M258.28,31.18h1.29v.91h0A1.72,1.72,0,0,1,261.16,31a1,1,0,0,1,.3.05v1.26a2.46,2.46,0,0,0-.49-.05c-1,0-1.34.71-1.34,1.59v2.23h-1.35Z"/><path class="cls-4" d="M262.43,34.64h1.5v1.48h-1.5Z"/><path class="cls-4" d="M267.42,29.3H269l2.55,6.82H270l-.51-1.52h-2.55l-.54,1.52h-1.52Zm-.14,4.18H269l-.86-2.5h0Z"/><path class="cls-4" d="M195.47,51.91h-2.83V50.66l2.91-3.89h1.21v4h.89v1.12h-.89v1.54h-1.29Zm0-3.44h0l-1.73,2.32h1.76Z"/><path class="cls-4" d="M199,46.63h1.36V48.1A1.54,1.54,0,0,1,199,49.7v-.63a.89.89,0,0,0,.64-1H199Z"/><path class="cls-4" d="M204.59,51.91h-2.83V50.66l2.9-3.89h1.21v4h.89v1.12h-.89v1.54h-1.28Zm0-3.44h0l-1.73,2.32h1.76Z"/><path class="cls-4" d="M211.38,46.63h1.5v2.83l2.66-2.83h1.88l-2.67,2.7,2.92,4.12h-1.88l-2-3.06-.86.87v2.19h-1.5Z"/><path class="cls-4" d="M218.85,46.63H224v1.26h-3.6v1.47h3.31v1.16h-3.31v1.67H224v1.26h-5.18Z"/><path class="cls-4" d="M227.38,50.8l-2.51-4.17h1.69l1.6,2.7,1.58-2.7h1.68l-2.54,4.21v2.61h-1.5Z"/><path class="cls-4" d="M232.56,46.63h3.08a2.2,2.2,0,1,1,0,4.38h-1.58v2.44h-1.5Zm1.5,3.21h1.17c.69,0,1.32-.15,1.32-1s-.63-1-1.32-1h-1.17Z"/><path class="cls-4" d="M241.37,46.63h1.54l2.55,6.82H243.9l-.51-1.51h-2.55l-.54,1.51h-1.52Zm-.14,4.19H243l-.86-2.51h0Z"/><path class="cls-4" d="M246.63,46.63h2.94c1.77,0,3.1,1.12,3.1,3.38,0,2-1,3.44-3.1,3.44h-2.94Zm1.5,5.56h1.34c.87,0,1.7-.53,1.7-2s-.49-2.26-2-2.26h-1.07Z"/><path class="cls-4" d="M255.3,51.19c0,.91.71,1.26,1.51,1.26.53,0,1.33-.15,1.33-.85s-1-.85-2-1.13-2-.67-2-1.94,1.32-2.06,2.55-2.06c1.43,0,2.73.62,2.73,2.2h-1.45c-.05-.81-.62-1-1.34-1-.48,0-1,.2-1,.77s.33.6,2,1c.5.12,2,.45,2,2,0,1.25-1,2.19-2.83,2.19-1.51,0-2.94-.75-2.91-2.43Z"/><rect class="cls-4" x="17.69" y="158.03" width="84.54" height="27.96"/><rect class="cls-4" x="117.4" y="158.03" width="84.54" height="27.96"/><rect class="cls-4" x="223.49" y="158.03" width="84.54" height="27.96"/><rect class="cls-4" x="323.48" y="158.03" width="84.54" height="27.96"/><rect class="cls-4" x="17.69" y="258.57" width="84.54" height="27.96"/><rect class="cls-4" x="117.4" y="258.57" width="84.54" height="27.96"/><rect class="cls-4" x="223.49" y="258.57" width="84.54" height="27.96"/><rect class="cls-4" x="323.48" y="258.57" width="84.54" height="27.96"/><rect class="cls-4" x="17.69" y="358.42" width="84.54" height="27.96"/><rect class="cls-4" x="117.4" y="358.42" width="84.54" height="27.96"/><rect class="cls-4" x="223.49" y="358.42" width="84.54" height="27.96"/><rect class="cls-4" x="323.48" y="358.42" width="84.54" height="27.96"/><path class="cls-4" d="M91.47,134.59a.83.83,0,0,1-.84-.83V110a.84.84,0,0,1,1.67,0v23.81A.83.83,0,0,1,91.47,134.59Z"/><path class="cls-4" d="M25.25,134.59a.84.84,0,0,1-.84-.83V110a.84.84,0,0,1,.84-.83.83.83,0,0,1,.83.83v23.81A.83.83,0,0,1,25.25,134.59Z"/><path class="cls-4" d="M82.33,153.29H34.94a.84.84,0,0,1-.83-.84.83.83,0,0,1,.83-.83H82.33a.83.83,0,0,1,.84.83A.84.84,0,0,1,82.33,153.29Z"/><path class="cls-4" d="M82.33,90H34.94a.83.83,0,0,1,0-1.66H82.33a.83.83,0,1,1,0,1.66Z"/><path class="cls-4" d="M192.78,134.59a.84.84,0,0,1-.84-.83V110a.84.84,0,0,1,.84-.83.83.83,0,0,1,.83.83v23.81A.83.83,0,0,1,192.78,134.59Z"/><path class="cls-4" d="M126.56,134.59a.83.83,0,0,1-.83-.83V110a.83.83,0,1,1,1.66,0v23.81A.83.83,0,0,1,126.56,134.59Z"/><path class="cls-4" d="M183.65,153.29h-47.4a.84.84,0,0,1-.83-.84.83.83,0,0,1,.83-.83h47.4a.83.83,0,0,1,.83.83A.84.84,0,0,1,183.65,153.29Z"/><path class="cls-4" d="M183.65,90h-47.4a.83.83,0,1,1,0-1.66h47.4a.83.83,0,0,1,0,1.66Z"/><path class="cls-4" d="M294.57,134.59a.83.83,0,0,1-.83-.83V110a.83.83,0,0,1,.83-.83.84.84,0,0,1,.84.83v23.81A.84.84,0,0,1,294.57,134.59Z"/><path class="cls-4" d="M228.35,134.59a.83.83,0,0,1-.83-.83V110a.84.84,0,0,1,1.67,0v23.81A.83.83,0,0,1,228.35,134.59Z"/><path class="cls-4" d="M285.44,153.29H238.05a.84.84,0,0,1-.83-.84.83.83,0,0,1,.83-.83h47.39a.84.84,0,0,1,.84.83A.85.85,0,0,1,285.44,153.29Z"/><path class="cls-4" d="M285.44,90H238.05a.83.83,0,0,1,0-1.66h47.39a.83.83,0,1,1,0,1.66Z"/><path class="cls-4" d="M396.33,134.59a.83.83,0,0,1-.84-.83V110a.84.84,0,0,1,1.67,0v23.81A.83.83,0,0,1,396.33,134.59Z"/><path class="cls-4" d="M330.11,134.59a.84.84,0,0,1-.84-.83V110a.84.84,0,0,1,.84-.83.83.83,0,0,1,.83.83v23.81A.83.83,0,0,1,330.11,134.59Z"/><path class="cls-4" d="M387.19,153.29H339.8a.84.84,0,0,1-.83-.84.83.83,0,0,1,.83-.83h47.39a.83.83,0,0,1,.84.83A.84.84,0,0,1,387.19,153.29Z"/><path class="cls-4" d="M387.19,90H339.8a.83.83,0,1,1,0-1.66h47.39a.83.83,0,1,1,0,1.66Z"/><path class="cls-4" d="M91.47,236.05a.83.83,0,0,1-.84-.83v-23.8a.84.84,0,1,1,1.67,0v23.8A.83.83,0,0,1,91.47,236.05Z"/><path class="cls-4" d="M25.25,236.05a.84.84,0,0,1-.84-.83v-23.8a.84.84,0,0,1,.84-.84.83.83,0,0,1,.83.84v23.8A.83.83,0,0,1,25.25,236.05Z"/><path class="cls-4" d="M82.33,254.75H34.94a.83.83,0,0,1-.83-.83.84.84,0,0,1,.83-.84H82.33a.84.84,0,0,1,.84.84A.83.83,0,0,1,82.33,254.75Z"/><path class="cls-4" d="M82.33,191.49H34.94a.84.84,0,0,1-.83-.84.83.83,0,0,1,.83-.83H82.33a.83.83,0,0,1,.84.83A.84.84,0,0,1,82.33,191.49Z"/><path class="cls-4" d="M192.78,236.05a.84.84,0,0,1-.84-.83v-23.8a.84.84,0,0,1,.84-.84.83.83,0,0,1,.83.84v23.8A.83.83,0,0,1,192.78,236.05Z"/><path class="cls-4" d="M126.56,236.05a.83.83,0,0,1-.83-.83v-23.8a.83.83,0,1,1,1.66,0v23.8A.83.83,0,0,1,126.56,236.05Z"/><path class="cls-4" d="M183.65,254.75h-47.4a.83.83,0,0,1-.83-.83.84.84,0,0,1,.83-.84h47.4a.84.84,0,0,1,.83.84A.83.83,0,0,1,183.65,254.75Z"/><path class="cls-4" d="M183.65,191.49h-47.4a.84.84,0,0,1-.83-.84.83.83,0,0,1,.83-.83h47.4a.83.83,0,0,1,.83.83A.84.84,0,0,1,183.65,191.49Z"/><path class="cls-4" d="M294.57,236.05a.83.83,0,0,1-.83-.83v-23.8a.83.83,0,0,1,.83-.84.84.84,0,0,1,.84.84v23.8A.84.84,0,0,1,294.57,236.05Z"/><path class="cls-4" d="M228.35,236.05a.83.83,0,0,1-.83-.83v-23.8a.84.84,0,1,1,1.67,0v23.8A.83.83,0,0,1,228.35,236.05Z"/><path class="cls-4" d="M285.44,254.75H238.05a.83.83,0,0,1-.83-.83.84.84,0,0,1,.83-.84h47.39a.85.85,0,0,1,.84.84A.84.84,0,0,1,285.44,254.75Z"/><path class="cls-4" d="M285.44,191.49H238.05a.84.84,0,0,1-.83-.84.83.83,0,0,1,.83-.83h47.39a.84.84,0,0,1,.84.83A.85.85,0,0,1,285.44,191.49Z"/><path class="cls-4" d="M396.33,236.05a.83.83,0,0,1-.84-.83v-23.8a.84.84,0,1,1,1.67,0v23.8A.83.83,0,0,1,396.33,236.05Z"/><path class="cls-4" d="M330.11,236.05a.84.84,0,0,1-.84-.83v-23.8a.84.84,0,0,1,.84-.84.83.83,0,0,1,.83.84v23.8A.83.83,0,0,1,330.11,236.05Z"/><path class="cls-4" d="M387.19,254.75H339.8a.83.83,0,0,1-.83-.83.84.84,0,0,1,.83-.84h47.39a.84.84,0,0,1,.84.84A.83.83,0,0,1,387.19,254.75Z"/><path class="cls-4" d="M387.19,191.49H339.8a.84.84,0,0,1-.83-.84.83.83,0,0,1,.83-.83h47.39a.83.83,0,0,1,.84.83A.84.84,0,0,1,387.19,191.49Z"/><path class="cls-4" d="M91.47,334.25a.83.83,0,0,1-.84-.84v-23.8a.84.84,0,0,1,1.67,0v23.8A.83.83,0,0,1,91.47,334.25Z"/><path class="cls-4" d="M25.25,334.25a.84.84,0,0,1-.84-.84v-23.8a.84.84,0,0,1,.84-.83.83.83,0,0,1,.83.83v23.8A.83.83,0,0,1,25.25,334.25Z"/><path class="cls-4" d="M82.33,352.94H34.94a.83.83,0,0,1,0-1.66H82.33a.83.83,0,1,1,0,1.66Z"/><path class="cls-4" d="M82.33,289.68H34.94a.83.83,0,0,1-.83-.83.84.84,0,0,1,.83-.84H82.33a.84.84,0,0,1,.84.84A.83.83,0,0,1,82.33,289.68Z"/><path class="cls-4" d="M192.78,334.25a.84.84,0,0,1-.84-.84v-23.8a.84.84,0,0,1,.84-.83.83.83,0,0,1,.83.83v23.8A.83.83,0,0,1,192.78,334.25Z"/><path class="cls-4" d="M126.56,334.25a.83.83,0,0,1-.83-.84v-23.8a.83.83,0,0,1,1.66,0v23.8A.83.83,0,0,1,126.56,334.25Z"/><path class="cls-4" d="M183.65,352.94h-47.4a.83.83,0,1,1,0-1.66h47.4a.83.83,0,1,1,0,1.66Z"/><path class="cls-4" d="M183.65,289.68h-47.4a.83.83,0,0,1-.83-.83.84.84,0,0,1,.83-.84h47.4a.84.84,0,0,1,.83.84A.83.83,0,0,1,183.65,289.68Z"/><path class="cls-4" d="M294.57,334.25a.83.83,0,0,1-.83-.84v-23.8a.83.83,0,0,1,.83-.83.84.84,0,0,1,.84.83v23.8A.84.84,0,0,1,294.57,334.25Z"/><path class="cls-4" d="M228.35,334.25a.83.83,0,0,1-.83-.84v-23.8a.84.84,0,0,1,1.67,0v23.8A.83.83,0,0,1,228.35,334.25Z"/><path class="cls-4" d="M285.44,352.94H238.05a.83.83,0,0,1,0-1.66h47.39a.83.83,0,1,1,0,1.66Z"/><path class="cls-4" d="M285.44,289.68H238.05a.83.83,0,0,1-.83-.83.84.84,0,0,1,.83-.84h47.39a.85.85,0,0,1,.84.84A.84.84,0,0,1,285.44,289.68Z"/><path class="cls-4" d="M396.33,334.25a.83.83,0,0,1-.84-.84v-23.8a.84.84,0,0,1,1.67,0v23.8A.83.83,0,0,1,396.33,334.25Z"/><path class="cls-4" d="M330.11,334.25a.84.84,0,0,1-.84-.84v-23.8a.84.84,0,0,1,.84-.83.83.83,0,0,1,.83.83v23.8A.83.83,0,0,1,330.11,334.25Z"/><path class="cls-4" d="M387.19,352.94H339.8a.83.83,0,0,1,0-1.66h47.39a.83.83,0,1,1,0,1.66Z"/><path class="cls-4" d="M387.19,289.68H339.8a.83.83,0,0,1-.83-.83.84.84,0,0,1,.83-.84h47.39a.84.84,0,0,1,.84.84A.83.83,0,0,1,387.19,289.68Z"/><rect class="cls-4" x="17.69" y="456.79" width="84.54" height="27.96"/><rect class="cls-4" x="117.4" y="456.79" width="84.54" height="27.96"/><rect class="cls-4" x="223.49" y="456.79" width="84.54" height="27.96"/><rect class="cls-4" x="323.48" y="456.79" width="84.54" height="27.96"/><path class="cls-4" d="M91.47,432.62a.83.83,0,0,1-.84-.83V408a.84.84,0,0,1,1.67,0v23.81A.83.83,0,0,1,91.47,432.62Z"/><path class="cls-4" d="M25.25,432.62a.84.84,0,0,1-.84-.83V408a.84.84,0,0,1,.84-.83.83.83,0,0,1,.83.83v23.81A.83.83,0,0,1,25.25,432.62Z"/><path class="cls-4" d="M82.33,451.32H34.94a.84.84,0,0,1-.83-.84.83.83,0,0,1,.83-.83H82.33a.83.83,0,0,1,.84.83A.84.84,0,0,1,82.33,451.32Z"/><path class="cls-4" d="M82.33,388.05H34.94a.83.83,0,0,1,0-1.66H82.33a.83.83,0,1,1,0,1.66Z"/><path class="cls-4" d="M192.78,432.62a.84.84,0,0,1-.84-.83V408a.84.84,0,0,1,.84-.83.83.83,0,0,1,.83.83v23.81A.83.83,0,0,1,192.78,432.62Z"/><path class="cls-4" d="M126.56,432.62a.83.83,0,0,1-.83-.83V408a.83.83,0,1,1,1.66,0v23.81A.83.83,0,0,1,126.56,432.62Z"/><path class="cls-4" d="M183.65,451.32h-47.4a.84.84,0,0,1-.83-.84.83.83,0,0,1,.83-.83h47.4a.83.83,0,0,1,.83.83A.84.84,0,0,1,183.65,451.32Z"/><path class="cls-4" d="M183.65,388.05h-47.4a.83.83,0,0,1,0-1.66h47.4a.83.83,0,1,1,0,1.66Z"/><path class="cls-4" d="M294.57,432.62a.83.83,0,0,1-.83-.83V408a.83.83,0,0,1,.83-.83.84.84,0,0,1,.84.83v23.81A.84.84,0,0,1,294.57,432.62Z"/><path class="cls-4" d="M228.35,432.62a.83.83,0,0,1-.83-.83V408a.84.84,0,0,1,1.67,0v23.81A.83.83,0,0,1,228.35,432.62Z"/><path class="cls-4" d="M285.44,451.32H238.05a.84.84,0,0,1-.83-.84.83.83,0,0,1,.83-.83h47.39a.84.84,0,0,1,.84.83A.85.85,0,0,1,285.44,451.32Z"/><path class="cls-4" d="M285.44,388.05H238.05a.83.83,0,0,1,0-1.66h47.39a.83.83,0,1,1,0,1.66Z"/><path class="cls-4" d="M396.33,432.62a.83.83,0,0,1-.84-.83V408a.84.84,0,0,1,1.67,0v23.81A.83.83,0,0,1,396.33,432.62Z"/><path class="cls-4" d="M330.11,432.62a.84.84,0,0,1-.84-.83V408a.84.84,0,0,1,.84-.83.83.83,0,0,1,.83.83v23.81A.83.83,0,0,1,330.11,432.62Z"/><path class="cls-4" d="M387.19,451.32H339.8a.84.84,0,0,1-.83-.84.83.83,0,0,1,.83-.83h47.39a.83.83,0,0,1,.84.83A.84.84,0,0,1,387.19,451.32Z"/><path class="cls-4" d="M387.19,388.05H339.8a.83.83,0,0,1,0-1.66h47.39a.83.83,0,1,1,0,1.66Z"/><circle class="cls-2" cx="26.64" cy="99.15" r="9.4"/><circle class="cls-5" cx="26.64" cy="99.15" r="8.33"/><rect class="cls-6" x="23.97" y="96.48" width="5.3" height="5.3" rx="0.61"/><circle class="cls-2" cx="26.64" cy="144.67" r="9.4"/><circle class="cls-5" cx="26.64" cy="144.67" r="8.33"/><rect class="cls-6" x="23.97" y="142.01" width="5.3" height="5.3" rx="0.61"/><circle class="cls-2" cx="91.18" cy="99.15" r="9.4"/><circle class="cls-5" cx="91.18" cy="99.15" r="8.33"/><rect class="cls-6" x="88.51" y="96.48" width="5.3" height="5.3" rx="0.61"/><circle class="cls-2" cx="91.18" cy="144.67" r="9.4"/><circle class="cls-5" cx="91.18" cy="144.67" r="8.33"/><rect class="cls-6" x="88.51" y="142.01" width="5.3" height="5.3" rx="0.61"/><rect class="cls-7" x="29.11" y="91.81" width="59.71" height="57.87" rx="2.49"/><rect class="cls-8" x="29.94" y="92.61" width="58.06" height="56.26" rx="2.49"/><circle class="cls-9" cx="36.97" cy="99.64" r="6.49"/><circle class="cls-10" cx="36.97" cy="99.64" r="4.81"/><circle class="cls-9" cx="81.03" cy="99.64" r="6.49"/><circle class="cls-10" cx="81.03" cy="99.64" r="4.81"/><circle class="cls-9" cx="81.03" cy="141.85" r="6.49"/><circle class="cls-10" cx="81.03" cy="141.85" r="4.81"/><circle class="cls-9" cx="36.97" cy="141.85" r="6.49"/><circle class="cls-10" cx="36.97" cy="141.85" r="4.81"/><circle class="cls-11" cx="58.97" cy="120.75" r="19.14"/><circle class="cls-12" cx="58.97" cy="120.75" r="17.1"/><circle class="cls-2" cx="127.76" cy="99.15" r="9.4"/><circle class="cls-5" cx="127.76" cy="99.15" r="8.33"/><rect class="cls-6" x="125.09" y="96.48" width="5.3" height="5.3" rx="0.61"/><circle class="cls-2" cx="127.76" cy="144.67" r="9.4"/><circle class="cls-5" cx="127.76" cy="144.67" r="8.33"/><rect class="cls-6" x="125.09" y="142.01" width="5.3" height="5.3" rx="0.61"/><circle class="cls-2" cx="192.3" cy="99.15" r="9.4"/><circle class="cls-5" cx="192.3" cy="99.15" r="8.33"/><rect class="cls-6" x="189.64" y="96.48" width="5.3" height="5.3" rx="0.61"/><circle class="cls-2" cx="192.3" cy="144.67" r="9.4"/><circle class="cls-5" cx="192.3" cy="144.67" r="8.33"/><rect class="cls-6" x="189.64" y="142.01" width="5.3" height="5.3" rx="0.61"/><rect class="cls-7" x="130.24" y="91.81" width="59.71" height="57.87" rx="2.49"/><rect class="cls-8" x="131.06" y="92.61" width="58.06" height="56.26" rx="2.49"/><circle class="cls-9" cx="138.09" cy="99.64" r="6.49"/><circle class="cls-10" cx="138.09" cy="99.64" r="4.81"/><circle class="cls-9" cx="182.15" cy="99.64" r="6.49"/><circle class="cls-10" cx="182.15" cy="99.64" r="4.81"/><circle class="cls-9" cx="182.15" cy="141.85" r="6.49"/><circle class="cls-10" cx="182.15" cy="141.85" r="4.81"/><circle class="cls-9" cx="138.09" cy="141.85" r="6.49"/><circle class="cls-10" cx="138.09" cy="141.85" r="4.81"/><circle class="cls-11" cx="160.09" cy="120.75" r="19.14"/><circle class="cls-12" cx="160.09" cy="120.75" r="17.1"/><circle class="cls-2" cx="229.78" cy="99.15" r="9.4"/><circle class="cls-5" cx="229.78" cy="99.15" r="8.33"/><rect class="cls-6" x="227.11" y="96.48" width="5.3" height="5.3" rx="0.61"/><circle class="cls-2" cx="229.78" cy="144.67" r="9.4"/><circle class="cls-5" cx="229.78" cy="144.67" r="8.33"/><rect class="cls-6" x="227.11" y="142.01" width="5.3" height="5.3" rx="0.61"/><circle class="cls-2" cx="294.32" cy="99.15" r="9.4"/><circle class="cls-5" cx="294.32" cy="99.15" r="8.33"/><rect class="cls-6" x="291.65" y="96.48" width="5.3" height="5.3" rx="0.61"/><circle class="cls-2" cx="294.32" cy="144.67" r="9.4"/><circle class="cls-5" cx="294.32" cy="144.67" r="8.33"/><rect class="cls-6" x="291.65" y="142.01" width="5.3" height="5.3" rx="0.61"/><rect class="cls-7" x="232.25" y="91.81" width="59.71" height="57.87" rx="2.49"/><rect class="cls-8" x="233.08" y="92.61" width="58.06" height="56.26" rx="2.49"/><circle class="cls-9" cx="240.11" cy="99.64" r="6.49"/><circle class="cls-10" cx="240.11" cy="99.64" r="4.81"/><circle class="cls-9" cx="284.16" cy="99.64" r="6.49"/><circle class="cls-10" cx="284.16" cy="99.64" r="4.81"/><circle class="cls-9" cx="284.16" cy="141.85" r="6.49"/><circle class="cls-10" cx="284.16" cy="141.85" r="4.81"/><circle class="cls-9" cx="240.11" cy="141.85" r="6.49"/><circle class="cls-10" cx="240.11" cy="141.85" r="4.81"/><circle class="cls-11" cx="262.11" cy="120.75" r="19.14"/><circle class="cls-12" cx="262.11" cy="120.75" r="17.1"/><circle class="cls-2" cx="330.81" cy="99.15" r="9.4"/><circle class="cls-5" cx="330.81" cy="99.15" r="8.33"/><rect class="cls-6" x="328.14" y="96.48" width="5.3" height="5.3" rx="0.61"/><circle class="cls-2" cx="330.81" cy="144.67" r="9.4"/><circle class="cls-5" cx="330.81" cy="144.67" r="8.33"/><rect class="cls-6" x="328.14" y="142.01" width="5.3" height="5.3" rx="0.61"/><circle class="cls-2" cx="395.35" cy="99.15" r="9.4"/><circle class="cls-5" cx="395.35" cy="99.15" r="8.33"/><rect class="cls-6" x="392.68" y="96.48" width="5.3" height="5.3" rx="0.61"/><circle class="cls-2" cx="395.35" cy="144.67" r="9.4"/><circle class="cls-5" cx="395.35" cy="144.67" r="8.33"/><rect class="cls-6" x="392.68" y="142.01" width="5.3" height="5.3" rx="0.61"/><rect class="cls-7" x="333.28" y="91.81" width="59.71" height="57.87" rx="2.49"/><rect class="cls-8" x="334.11" y="92.61" width="58.06" height="56.26" rx="2.49"/><circle class="cls-9" cx="341.14" cy="99.64" r="6.49"/><circle class="cls-10" cx="341.14" cy="99.64" r="4.81"/><circle class="cls-9" cx="385.2" cy="99.64" r="6.49"/><circle class="cls-10" cx="385.2" cy="99.64" r="4.81"/><circle class="cls-9" cx="385.2" cy="141.85" r="6.49"/><circle class="cls-10" cx="385.2" cy="141.85" r="4.81"/><circle class="cls-9" cx="341.14" cy="141.85" r="6.49"/><circle class="cls-10" cx="341.14" cy="141.85" r="4.81"/><circle class="cls-11" cx="363.14" cy="120.75" r="19.14"/><circle class="cls-12" cx="363.14" cy="120.75" r="17.1"/><circle class="cls-2" cx="26.64" cy="200.56" r="9.4"/><circle class="cls-5" cx="26.64" cy="200.56" r="8.33"/><rect class="cls-6" x="23.97" y="197.89" width="5.3" height="5.3" rx="0.61"/><circle class="cls-2" cx="26.64" cy="246.08" r="9.4"/><circle class="cls-5" cx="26.64" cy="246.08" r="8.33"/><rect class="cls-6" x="23.97" y="243.41" width="5.3" height="5.3" rx="0.61"/><circle class="cls-2" cx="91.18" cy="200.56" r="9.4"/><circle class="cls-5" cx="91.18" cy="200.56" r="8.33"/><rect class="cls-6" x="88.51" y="197.89" width="5.3" height="5.3" rx="0.61"/><circle class="cls-2" cx="91.18" cy="246.08" r="9.4"/><circle class="cls-5" cx="91.18" cy="246.08" r="8.33"/><rect class="cls-6" x="88.51" y="243.41" width="5.3" height="5.3" rx="0.61"/><rect class="cls-7" x="29.11" y="193.22" width="59.71" height="57.87" rx="2.49"/><rect class="cls-8" x="29.94" y="194.02" width="58.06" height="56.26" rx="2.49"/><circle class="cls-9" cx="36.97" cy="201.05" r="6.49"/><circle class="cls-10" cx="36.97" cy="201.05" r="4.81"/><circle class="cls-9" cx="81.03" cy="201.05" r="6.49"/><circle class="cls-10" cx="81.03" cy="201.05" r="4.81"/><circle class="cls-9" cx="81.03" cy="243.26" r="6.49"/><circle class="cls-10" cx="81.03" cy="243.26" r="4.81"/><circle class="cls-9" cx="36.97" cy="243.26" r="6.49"/><circle class="cls-10" cx="36.97" cy="243.26" r="4.81"/><circle class="cls-11" cx="58.97" cy="222.15" r="19.14"/><circle class="cls-12" cx="58.97" cy="222.15" r="17.1"/><circle class="cls-2" cx="127.76" cy="200.56" r="9.4"/><circle class="cls-5" cx="127.76" cy="200.56" r="8.33"/><rect class="cls-6" x="125.09" y="197.89" width="5.3" height="5.3" rx="0.61"/><circle class="cls-2" cx="127.76" cy="246.08" r="9.4"/><circle class="cls-5" cx="127.76" cy="246.08" r="8.33"/><rect class="cls-6" x="125.09" y="243.41" width="5.3" height="5.3" rx="0.61"/><circle class="cls-2" cx="192.3" cy="200.56" r="9.4"/><circle class="cls-5" cx="192.3" cy="200.56" r="8.33"/><rect class="cls-6" x="189.64" y="197.89" width="5.3" height="5.3" rx="0.61"/><circle class="cls-2" cx="192.3" cy="246.08" r="9.4"/><circle class="cls-5" cx="192.3" cy="246.08" r="8.33"/><rect class="cls-6" x="189.64" y="243.41" width="5.3" height="5.3" rx="0.61"/><rect class="cls-7" x="130.24" y="193.22" width="59.71" height="57.87" rx="2.49"/><rect class="cls-8" x="131.06" y="194.02" width="58.06" height="56.26" rx="2.49"/><circle class="cls-9" cx="138.09" cy="201.05" r="6.49"/><circle class="cls-10" cx="138.09" cy="201.05" r="4.81"/><circle class="cls-9" cx="182.15" cy="201.05" r="6.49"/><circle class="cls-10" cx="182.15" cy="201.05" r="4.81"/><circle class="cls-9" cx="182.15" cy="243.26" r="6.49"/><circle class="cls-10" cx="182.15" cy="243.26" r="4.81"/><circle class="cls-9" cx="138.09" cy="243.26" r="6.49"/><circle class="cls-10" cx="138.09" cy="243.26" r="4.81"/><circle class="cls-11" cx="160.09" cy="222.15" r="19.14"/><circle class="cls-12" cx="160.09" cy="222.15" r="17.1"/><circle class="cls-2" cx="229.78" cy="200.56" r="9.4"/><circle class="cls-5" cx="229.78" cy="200.56" r="8.33"/><rect class="cls-6" x="227.11" y="197.89" width="5.3" height="5.3" rx="0.61"/><circle class="cls-2" cx="229.78" cy="246.08" r="9.4"/><circle class="cls-5" cx="229.78" cy="246.08" r="8.33"/><rect class="cls-6" x="227.11" y="243.41" width="5.3" height="5.3" rx="0.61"/><circle class="cls-2" cx="294.32" cy="200.56" r="9.4"/><circle class="cls-5" cx="294.32" cy="200.56" r="8.33"/><rect class="cls-6" x="291.65" y="197.89" width="5.3" height="5.3" rx="0.61"/><circle class="cls-2" cx="294.32" cy="246.08" r="9.4"/><circle class="cls-5" cx="294.32" cy="246.08" r="8.33"/><rect class="cls-6" x="291.65" y="243.41" width="5.3" height="5.3" rx="0.61"/><rect class="cls-7" x="232.25" y="193.22" width="59.71" height="57.87" rx="2.49"/><rect class="cls-8" x="233.08" y="194.02" width="58.06" height="56.26" rx="2.49"/><circle class="cls-9" cx="240.11" cy="201.05" r="6.49"/><circle class="cls-10" cx="240.11" cy="201.05" r="4.81"/><circle class="cls-9" cx="284.16" cy="201.05" r="6.49"/><circle class="cls-10" cx="284.16" cy="201.05" r="4.81"/><circle class="cls-9" cx="284.16" cy="243.26" r="6.49"/><circle class="cls-10" cx="284.16" cy="243.26" r="4.81"/><circle class="cls-9" cx="240.11" cy="243.26" r="6.49"/><circle class="cls-10" cx="240.11" cy="243.26" r="4.81"/><circle class="cls-11" cx="262.11" cy="222.15" r="19.14"/><circle class="cls-12" cx="262.11" cy="222.15" r="17.1"/><circle class="cls-2" cx="330.81" cy="200.56" r="9.4"/><circle class="cls-5" cx="330.81" cy="200.56" r="8.33"/><rect class="cls-6" x="328.14" y="197.89" width="5.3" height="5.3" rx="0.61"/><circle class="cls-2" cx="330.81" cy="246.08" r="9.4"/><circle class="cls-5" cx="330.81" cy="246.08" r="8.33"/><rect class="cls-6" x="328.14" y="243.41" width="5.3" height="5.3" rx="0.61"/><circle class="cls-2" cx="395.35" cy="200.56" r="9.4"/><circle class="cls-5" cx="395.35" cy="200.56" r="8.33"/><rect class="cls-6" x="392.68" y="197.89" width="5.3" height="5.3" rx="0.61"/><circle class="cls-2" cx="395.35" cy="246.08" r="9.4"/><circle class="cls-5" cx="395.35" cy="246.08" r="8.33"/><rect class="cls-6" x="392.68" y="243.41" width="5.3" height="5.3" rx="0.61"/><rect class="cls-7" x="333.28" y="193.22" width="59.71" height="57.87" rx="2.49"/><rect class="cls-8" x="334.11" y="194.02" width="58.06" height="56.26" rx="2.49"/><circle class="cls-9" cx="341.14" cy="201.05" r="6.49"/><circle class="cls-10" cx="341.14" cy="201.05" r="4.81"/><circle class="cls-9" cx="385.2" cy="201.05" r="6.49"/><circle class="cls-10" cx="385.2" cy="201.05" r="4.81"/><circle class="cls-9" cx="385.2" cy="243.26" r="6.49"/><circle class="cls-10" cx="385.2" cy="243.26" r="4.81"/><circle class="cls-9" cx="341.14" cy="243.26" r="6.49"/><circle class="cls-10" cx="341.14" cy="243.26" r="4.81"/><circle class="cls-11" cx="363.14" cy="222.15" r="19.14"/><circle class="cls-12" cx="363.14" cy="222.15" r="17.1"/><circle class="cls-2" cx="26.64" cy="298.75" r="9.4"/><circle class="cls-5" cx="26.64" cy="298.75" r="8.33"/><rect class="cls-6" x="23.97" y="296.08" width="5.3" height="5.3" rx="0.61"/><circle class="cls-2" cx="26.64" cy="344.27" r="9.4"/><circle class="cls-5" cx="26.64" cy="344.27" r="8.33"/><rect class="cls-6" x="23.97" y="341.6" width="5.3" height="5.3" rx="0.61"/><circle class="cls-2" cx="91.18" cy="298.75" r="9.4"/><circle class="cls-5" cx="91.18" cy="298.75" r="8.33"/><rect class="cls-6" x="88.51" y="296.08" width="5.3" height="5.3" rx="0.61"/><circle class="cls-2" cx="91.18" cy="344.27" r="9.4"/><circle class="cls-5" cx="91.18" cy="344.27" r="8.33"/><rect class="cls-6" x="88.51" y="341.6" width="5.3" height="5.3" rx="0.61"/><rect class="cls-7" x="29.11" y="291.41" width="59.71" height="57.87" rx="2.49"/><rect class="cls-8" x="29.94" y="292.21" width="58.06" height="56.26" rx="2.49"/><circle class="cls-9" cx="36.97" cy="299.24" r="6.49"/><circle class="cls-10" cx="36.97" cy="299.24" r="4.81"/><circle class="cls-9" cx="81.03" cy="299.24" r="6.49"/><circle class="cls-10" cx="81.03" cy="299.24" r="4.81"/><circle class="cls-9" cx="81.03" cy="341.45" r="6.49"/><circle class="cls-10" cx="81.03" cy="341.45" r="4.81"/><circle class="cls-9" cx="36.97" cy="341.45" r="6.49"/><circle class="cls-10" cx="36.97" cy="341.45" r="4.81"/><circle class="cls-11" cx="58.97" cy="320.34" r="19.14"/><circle class="cls-12" cx="58.97" cy="320.34" r="17.1"/><circle class="cls-2" cx="127.76" cy="298.75" r="9.4"/><circle class="cls-5" cx="127.76" cy="298.75" r="8.33"/><rect class="cls-6" x="125.09" y="296.08" width="5.3" height="5.3" rx="0.61"/><circle class="cls-2" cx="127.76" cy="344.27" r="9.4"/><circle class="cls-5" cx="127.76" cy="344.27" r="8.33"/><rect class="cls-6" x="125.09" y="341.6" width="5.3" height="5.3" rx="0.61"/><circle class="cls-2" cx="192.3" cy="298.75" r="9.4"/><circle class="cls-5" cx="192.3" cy="298.75" r="8.33"/><rect class="cls-6" x="189.64" y="296.08" width="5.3" height="5.3" rx="0.61"/><circle class="cls-2" cx="192.3" cy="344.27" r="9.4"/><circle class="cls-5" cx="192.3" cy="344.27" r="8.33"/><rect class="cls-6" x="189.64" y="341.6" width="5.3" height="5.3" rx="0.61"/><rect class="cls-7" x="130.24" y="291.41" width="59.71" height="57.87" rx="2.49"/><rect class="cls-8" x="131.06" y="292.21" width="58.06" height="56.26" rx="2.49"/><circle class="cls-9" cx="138.09" cy="299.24" r="6.49"/><circle class="cls-10" cx="138.09" cy="299.24" r="4.81"/><circle class="cls-9" cx="182.15" cy="299.24" r="6.49"/><circle class="cls-10" cx="182.15" cy="299.24" r="4.81"/><circle class="cls-9" cx="182.15" cy="341.45" r="6.49"/><circle class="cls-10" cx="182.15" cy="341.45" r="4.81"/><circle class="cls-9" cx="138.09" cy="341.45" r="6.49"/><circle class="cls-10" cx="138.09" cy="341.45" r="4.81"/><circle class="cls-11" cx="160.09" cy="320.34" r="19.14"/><circle class="cls-12" cx="160.09" cy="320.34" r="17.1"/><circle class="cls-2" cx="229.78" cy="298.75" r="9.4"/><circle class="cls-5" cx="229.78" cy="298.75" r="8.33"/><rect class="cls-6" x="227.11" y="296.08" width="5.3" height="5.3" rx="0.61"/><circle class="cls-2" cx="229.78" cy="344.27" r="9.4"/><circle class="cls-5" cx="229.78" cy="344.27" r="8.33"/><rect class="cls-6" x="227.11" y="341.6" width="5.3" height="5.3" rx="0.61"/><circle class="cls-2" cx="294.32" cy="298.75" r="9.4"/><circle class="cls-5" cx="294.32" cy="298.75" r="8.33"/><rect class="cls-6" x="291.65" y="296.08" width="5.3" height="5.3" rx="0.61"/><circle class="cls-2" cx="294.32" cy="344.27" r="9.4"/><circle class="cls-5" cx="294.32" cy="344.27" r="8.33"/><rect class="cls-6" x="291.65" y="341.6" width="5.3" height="5.3" rx="0.61"/><rect class="cls-7" x="232.25" y="291.41" width="59.71" height="57.87" rx="2.49"/><rect class="cls-8" x="233.08" y="292.21" width="58.06" height="56.26" rx="2.49"/><circle class="cls-9" cx="240.11" cy="299.24" r="6.49"/><circle class="cls-10" cx="240.11" cy="299.24" r="4.81"/><circle class="cls-9" cx="284.16" cy="299.24" r="6.49"/><circle class="cls-10" cx="284.16" cy="299.24" r="4.81"/><circle class="cls-9" cx="284.16" cy="341.45" r="6.49"/><circle class="cls-10" cx="284.16" cy="341.45" r="4.81"/><circle class="cls-9" cx="240.11" cy="341.45" r="6.49"/><circle class="cls-10" cx="240.11" cy="341.45" r="4.81"/><circle class="cls-11" cx="262.11" cy="320.34" r="19.14"/><circle class="cls-12" cx="262.11" cy="320.34" r="17.1"/><circle class="cls-2" cx="330.81" cy="298.75" r="9.4"/><circle class="cls-5" cx="330.81" cy="298.75" r="8.33"/><rect class="cls-6" x="328.14" y="296.08" width="5.3" height="5.3" rx="0.61"/><circle class="cls-2" cx="330.81" cy="344.27" r="9.4"/><circle class="cls-5" cx="330.81" cy="344.27" r="8.33"/><rect class="cls-6" x="328.14" y="341.6" width="5.3" height="5.3" rx="0.61"/><circle class="cls-2" cx="395.35" cy="298.75" r="9.4"/><circle class="cls-5" cx="395.35" cy="298.75" r="8.33"/><rect class="cls-6" x="392.68" y="296.08" width="5.3" height="5.3" rx="0.61"/><circle class="cls-2" cx="395.35" cy="344.27" r="9.4"/><circle class="cls-5" cx="395.35" cy="344.27" r="8.33"/><rect class="cls-6" x="392.68" y="341.6" width="5.3" height="5.3" rx="0.61"/><rect class="cls-7" x="333.28" y="291.41" width="59.71" height="57.87" rx="2.49"/><rect class="cls-8" x="334.11" y="292.21" width="58.06" height="56.26" rx="2.49"/><circle class="cls-9" cx="341.14" cy="299.24" r="6.49"/><circle class="cls-10" cx="341.14" cy="299.24" r="4.81"/><circle class="cls-9" cx="385.2" cy="299.24" r="6.49"/><circle class="cls-10" cx="385.2" cy="299.24" r="4.81"/><circle class="cls-9" cx="385.2" cy="341.45" r="6.49"/><circle class="cls-10" cx="385.2" cy="341.45" r="4.81"/><circle class="cls-9" cx="341.14" cy="341.45" r="6.49"/><circle class="cls-10" cx="341.14" cy="341.45" r="4.81"/><circle class="cls-11" cx="363.14" cy="320.34" r="19.14"/><circle class="cls-12" cx="363.14" cy="320.34" r="17.1"/><circle class="cls-2" cx="26.64" cy="397.12" r="9.4"/><circle class="cls-5" cx="26.64" cy="397.12" r="8.33"/><rect class="cls-6" x="23.97" y="394.45" width="5.3" height="5.3" rx="0.61"/><circle class="cls-2" cx="26.64" cy="442.64" r="9.4"/><circle class="cls-5" cx="26.64" cy="442.64" r="8.33"/><rect class="cls-6" x="23.97" y="439.98" width="5.3" height="5.3" rx="0.61"/><circle class="cls-2" cx="91.18" cy="397.12" r="9.4"/><circle class="cls-5" cx="91.18" cy="397.12" r="8.33"/><rect class="cls-6" x="88.51" y="394.45" width="5.3" height="5.3" rx="0.61"/><circle class="cls-2" cx="91.18" cy="442.64" r="9.4"/><circle class="cls-5" cx="91.18" cy="442.64" r="8.33"/><rect class="cls-6" x="88.51" y="439.98" width="5.3" height="5.3" rx="0.61"/><rect class="cls-7" x="29.11" y="389.78" width="59.71" height="57.87" rx="2.49"/><rect class="cls-8" x="29.94" y="390.58" width="58.06" height="56.26" rx="2.49"/><circle class="cls-9" cx="36.97" cy="397.61" r="6.49"/><circle class="cls-10" cx="36.97" cy="397.61" r="4.81"/><circle class="cls-9" cx="81.03" cy="397.61" r="6.49"/><circle class="cls-10" cx="81.03" cy="397.61" r="4.81"/><circle class="cls-9" cx="81.03" cy="439.82" r="6.49"/><circle class="cls-10" cx="81.03" cy="439.82" r="4.81"/><circle class="cls-9" cx="36.97" cy="439.82" r="6.49"/><circle class="cls-10" cx="36.97" cy="439.82" r="4.81"/><circle class="cls-11" cx="58.97" cy="418.72" r="19.14"/><circle class="cls-12" cx="58.97" cy="418.72" r="17.1"/><circle class="cls-2" cx="127.76" cy="397.12" r="9.4"/><circle class="cls-5" cx="127.76" cy="397.12" r="8.33"/><rect class="cls-6" x="125.09" y="394.45" width="5.3" height="5.3" rx="0.61"/><circle class="cls-2" cx="127.76" cy="442.64" r="9.4"/><circle class="cls-5" cx="127.76" cy="442.64" r="8.33"/><rect class="cls-6" x="125.09" y="439.98" width="5.3" height="5.3" rx="0.61"/><circle class="cls-2" cx="192.3" cy="397.12" r="9.4"/><circle class="cls-5" cx="192.3" cy="397.12" r="8.33"/><rect class="cls-6" x="189.64" y="394.45" width="5.3" height="5.3" rx="0.61"/><circle class="cls-2" cx="192.3" cy="442.64" r="9.4"/><circle class="cls-5" cx="192.3" cy="442.64" r="8.33"/><rect class="cls-6" x="189.64" y="439.98" width="5.3" height="5.3" rx="0.61"/><rect class="cls-7" x="130.24" y="389.78" width="59.71" height="57.87" rx="2.49"/><rect class="cls-8" x="131.06" y="390.58" width="58.06" height="56.26" rx="2.49"/><circle class="cls-9" cx="138.09" cy="397.61" r="6.49"/><circle class="cls-10" cx="138.09" cy="397.61" r="4.81"/><circle class="cls-9" cx="182.15" cy="397.61" r="6.49"/><circle class="cls-10" cx="182.15" cy="397.61" r="4.81"/><circle class="cls-9" cx="182.15" cy="439.82" r="6.49"/><circle class="cls-10" cx="182.15" cy="439.82" r="4.81"/><circle class="cls-9" cx="138.09" cy="439.82" r="6.49"/><circle class="cls-10" cx="138.09" cy="439.82" r="4.81"/><circle class="cls-11" cx="160.09" cy="418.72" r="19.14"/><circle class="cls-12" cx="160.09" cy="418.72" r="17.1"/><circle class="cls-2" cx="229.78" cy="397.12" r="9.4"/><circle class="cls-5" cx="229.78" cy="397.12" r="8.33"/><rect class="cls-6" x="227.11" y="394.45" width="5.3" height="5.3" rx="0.61"/><circle class="cls-2" cx="229.78" cy="442.64" r="9.4"/><circle class="cls-5" cx="229.78" cy="442.64" r="8.33"/><rect class="cls-6" x="227.11" y="439.98" width="5.3" height="5.3" rx="0.61"/><circle class="cls-2" cx="294.32" cy="397.12" r="9.4"/><circle class="cls-5" cx="294.32" cy="397.12" r="8.33"/><rect class="cls-6" x="291.65" y="394.45" width="5.3" height="5.3" rx="0.61"/><circle class="cls-2" cx="294.32" cy="442.64" r="9.4"/><circle class="cls-5" cx="294.32" cy="442.64" r="8.33"/><rect class="cls-6" x="291.65" y="439.98" width="5.3" height="5.3" rx="0.61"/><rect class="cls-7" x="232.25" y="389.78" width="59.71" height="57.87" rx="2.49"/><rect class="cls-8" x="233.08" y="390.58" width="58.06" height="56.26" rx="2.49"/><circle class="cls-9" cx="240.11" cy="397.61" r="6.49"/><circle class="cls-10" cx="240.11" cy="397.61" r="4.81"/><circle class="cls-9" cx="284.16" cy="397.61" r="6.49"/><circle class="cls-10" cx="284.16" cy="397.61" r="4.81"/><circle class="cls-9" cx="284.16" cy="439.82" r="6.49"/><circle class="cls-10" cx="284.16" cy="439.82" r="4.81"/><circle class="cls-9" cx="240.11" cy="439.82" r="6.49"/><circle class="cls-10" cx="240.11" cy="439.82" r="4.81"/><circle class="cls-11" cx="262.11" cy="418.72" r="19.14"/><circle class="cls-12" cx="262.11" cy="418.72" r="17.1"/><circle class="cls-2" cx="330.81" cy="397.12" r="9.4"/><circle class="cls-5" cx="330.81" cy="397.12" r="8.33"/><rect class="cls-6" x="328.14" y="394.45" width="5.3" height="5.3" rx="0.61"/><circle class="cls-2" cx="330.81" cy="442.64" r="9.4"/><circle class="cls-5" cx="330.81" cy="442.64" r="8.33"/><rect class="cls-6" x="328.14" y="439.98" width="5.3" height="5.3" rx="0.61"/><circle class="cls-2" cx="395.35" cy="397.12" r="9.4"/><circle class="cls-5" cx="395.35" cy="397.12" r="8.33"/><rect class="cls-6" x="392.68" y="394.45" width="5.3" height="5.3" rx="0.61"/><circle class="cls-2" cx="395.35" cy="442.64" r="9.4"/><circle class="cls-5" cx="395.35" cy="442.64" r="8.33"/><rect class="cls-6" x="392.68" y="439.98" width="5.3" height="5.3" rx="0.61"/><rect class="cls-7" x="333.28" y="389.78" width="59.71" height="57.87" rx="2.49"/><rect class="cls-8" x="334.11" y="390.58" width="58.06" height="56.26" rx="2.49"/><circle class="cls-9" cx="341.14" cy="397.61" r="6.49"/><circle class="cls-10" cx="341.14" cy="397.61" r="4.81"/><circle class="cls-9" cx="385.2" cy="397.61" r="6.49"/><circle class="cls-10" cx="385.2" cy="397.61" r="4.81"/><circle class="cls-9" cx="385.2" cy="439.82" r="6.49"/><circle class="cls-10" cx="385.2" cy="439.82" r="4.81"/><circle class="cls-9" cx="341.14" cy="439.82" r="6.49"/><circle class="cls-10" cx="341.14" cy="439.82" r="4.81"/><circle class="cls-11" cx="363.14" cy="418.72" r="19.14"/><circle class="cls-12" cx="363.14" cy="418.72" r="17.1"/></g></g></svg>