<svg xmlns="http://www.w3.org/2000/svg" viewBox="0 0 427.53 548.07"><defs><style>.cls-1{fill:#1e1e1e;}.cls-2{fill:#e0ac52;}.cls-3{fill:#fff;}.cls-4{fill:#c6c6c5;}.cls-5{fill:#b1946d;}.cls-6{fill:#f5f7f6;}.cls-7{fill:#1f1d1f;}.cls-8{fill:#cfc0aa;}.cls-9{fill:#f2edde;}.cls-10{fill:#656b61;}</style></defs><g id="Layer_2" data-name="Layer 2"><g id="RAK14011"><path class="cls-1" d="M0,0V548.07H427.53V0ZM39.28,520.09a11,11,0,1,1,11-11A11,11,0,0,1,39.28,520.09ZM40,51.35a11,11,0,1,1,11-11A11,11,0,0,1,40,51.35Zm348,468.29a11,11,0,1,1,11-11A11,11,0,0,1,387.94,519.64Zm1.41-468a11,11,0,1,1,11-11A11,11,0,0,1,389.35,51.68Z"/><path class="cls-2" d="M39.28,488.63a20.45,20.45,0,1,0,20.45,20.45A20.45,20.45,0,0,0,39.28,488.63Zm0,31.46a11,11,0,1,1,11-11A11,11,0,0,1,39.28,520.09Z"/><path class="cls-2" d="M40,19.9A20.45,20.45,0,1,0,60.42,40.35,20.44,20.44,0,0,0,40,19.9Zm0,31.45a11,11,0,1,1,11-11A11,11,0,0,1,40,51.35Z"/><path class="cls-2" d="M387.94,488.19a20.45,20.45,0,1,0,20.45,20.45A20.44,20.44,0,0,0,387.94,488.19Zm0,31.45a11,11,0,1,1,11-11A11,11,0,0,1,387.94,519.64Z"/><path class="cls-2" d="M389.35,20.23a20.45,20.45,0,1,0,20.44,20.44A20.45,20.45,0,0,0,389.35,20.23Zm0,31.45a11,11,0,1,1,11-11A11,11,0,0,1,389.35,51.68Z"/><circle class="cls-3" cx="34.97" cy="445.28" r="8.45"/><path class="cls-4" d="M35,454.43a9.15,9.15,0,1,1,9.15-9.15A9.16,9.16,0,0,1,35,454.43Zm0-16.89a7.74,7.74,0,1,0,7.73,7.74A7.75,7.75,0,0,0,35,437.54Z"/><circle class="cls-3" cx="34.97" cy="399.76" r="8.45"/><path class="cls-4" d="M35,408.91a9.16,9.16,0,1,1,9.15-9.15A9.17,9.17,0,0,1,35,408.91ZM35,392a7.74,7.74,0,1,0,7.73,7.74A7.75,7.75,0,0,0,35,392Z"/><circle class="cls-3" cx="34.97" cy="301.2" r="8.45"/><path class="cls-4" d="M35,310.36a9.16,9.16,0,1,1,9.15-9.16A9.17,9.17,0,0,1,35,310.36Zm0-16.9a7.74,7.74,0,1,0,7.73,7.74A7.75,7.75,0,0,0,35,293.46Z"/><circle class="cls-3" cx="34.97" cy="344.27" r="8.45"/><path class="cls-4" d="M35,353.43a9.16,9.16,0,1,1,9.15-9.16A9.17,9.17,0,0,1,35,353.43Zm0-16.89a7.74,7.74,0,1,0,7.73,7.73A7.74,7.74,0,0,0,35,336.54Z"/><circle class="cls-3" cx="34.97" cy="201.78" r="8.45"/><path class="cls-4" d="M35,210.94a9.16,9.16,0,1,1,9.15-9.16A9.17,9.17,0,0,1,35,210.94ZM35,194a7.74,7.74,0,1,0,7.73,7.74A7.75,7.75,0,0,0,35,194Z"/><circle class="cls-3" cx="34.97" cy="244.85" r="8.45"/><path class="cls-4" d="M35,254a9.16,9.16,0,1,1,9.15-9.16A9.17,9.17,0,0,1,35,254Zm0-16.89a7.74,7.74,0,1,0,7.73,7.73A7.74,7.74,0,0,0,35,237.12Z"/><circle class="cls-3" cx="34.97" cy="101.77" r="8.45"/><path class="cls-4" d="M35,110.92a9.16,9.16,0,1,1,9.15-9.15A9.17,9.17,0,0,1,35,110.92ZM35,94a7.74,7.74,0,1,0,7.73,7.74A7.75,7.75,0,0,0,35,94Z"/><circle class="cls-3" cx="34.97" cy="144.84" r="8.45"/><path class="cls-4" d="M35,154a9.15,9.15,0,1,1,9.15-9.15A9.16,9.16,0,0,1,35,154Zm0-16.89a7.74,7.74,0,1,0,7.73,7.74A7.75,7.75,0,0,0,35,137.1Z"/><circle class="cls-3" cx="100.71" cy="445.28" r="8.45"/><path class="cls-4" d="M100.71,454.43a9.15,9.15,0,1,1,9.15-9.15A9.16,9.16,0,0,1,100.71,454.43Zm0-16.89a7.74,7.74,0,1,0,7.73,7.74A7.75,7.75,0,0,0,100.71,437.54Z"/><circle class="cls-3" cx="100.71" cy="399.76" r="8.45"/><path class="cls-4" d="M100.71,408.91a9.16,9.16,0,1,1,9.15-9.15A9.17,9.17,0,0,1,100.71,408.91Zm0-16.89a7.74,7.74,0,1,0,7.73,7.74A7.75,7.75,0,0,0,100.71,392Z"/><circle class="cls-3" cx="100.71" cy="301.2" r="8.45"/><path class="cls-4" d="M100.71,310.36a9.16,9.16,0,1,1,9.15-9.16A9.17,9.17,0,0,1,100.71,310.36Zm0-16.9a7.74,7.74,0,1,0,7.73,7.74A7.75,7.75,0,0,0,100.71,293.46Z"/><circle class="cls-3" cx="100.71" cy="344.27" r="8.45"/><path class="cls-4" d="M100.71,353.43a9.16,9.16,0,1,1,9.15-9.16A9.17,9.17,0,0,1,100.71,353.43Zm0-16.89a7.74,7.74,0,1,0,7.73,7.73A7.74,7.74,0,0,0,100.71,336.54Z"/><circle class="cls-3" cx="100.71" cy="201.78" r="8.45"/><path class="cls-4" d="M100.71,210.94a9.16,9.16,0,1,1,9.15-9.16A9.17,9.17,0,0,1,100.71,210.94Zm0-16.9a7.74,7.74,0,1,0,7.73,7.74A7.75,7.75,0,0,0,100.71,194Z"/><circle class="cls-3" cx="100.71" cy="244.85" r="8.45"/><path class="cls-4" d="M100.71,254a9.16,9.16,0,1,1,9.15-9.16A9.17,9.17,0,0,1,100.71,254Zm0-16.89a7.74,7.74,0,1,0,7.73,7.73A7.74,7.74,0,0,0,100.71,237.12Z"/><circle class="cls-3" cx="100.71" cy="101.77" r="8.45"/><path class="cls-4" d="M100.71,110.92a9.16,9.16,0,1,1,9.15-9.15A9.17,9.17,0,0,1,100.71,110.92Zm0-16.89a7.74,7.74,0,1,0,7.73,7.74A7.75,7.75,0,0,0,100.71,94Z"/><circle class="cls-3" cx="100.71" cy="144.84" r="8.45"/><path class="cls-4" d="M100.71,154a9.15,9.15,0,1,1,9.15-9.15A9.16,9.16,0,0,1,100.71,154Zm0-16.89a7.74,7.74,0,1,0,7.73,7.74A7.75,7.75,0,0,0,100.71,137.1Z"/><circle class="cls-3" cx="135.53" cy="445.28" r="8.45"/><path class="cls-4" d="M135.53,454.43a9.15,9.15,0,1,1,9.16-9.15A9.16,9.16,0,0,1,135.53,454.43Zm0-16.89a7.74,7.74,0,1,0,7.74,7.74A7.75,7.75,0,0,0,135.53,437.54Z"/><circle class="cls-3" cx="135.53" cy="399.76" r="8.45"/><path class="cls-4" d="M135.53,408.91a9.16,9.16,0,1,1,9.16-9.15A9.17,9.17,0,0,1,135.53,408.91Zm0-16.89a7.74,7.74,0,1,0,7.74,7.74A7.75,7.75,0,0,0,135.53,392Z"/><circle class="cls-3" cx="135.53" cy="301.2" r="8.45"/><path class="cls-4" d="M135.53,310.36a9.16,9.16,0,1,1,9.16-9.16A9.17,9.17,0,0,1,135.53,310.36Zm0-16.9a7.74,7.74,0,1,0,7.74,7.74A7.76,7.76,0,0,0,135.53,293.46Z"/><circle class="cls-3" cx="135.53" cy="344.27" r="8.45"/><path class="cls-4" d="M135.53,353.43a9.16,9.16,0,1,1,9.16-9.16A9.17,9.17,0,0,1,135.53,353.43Zm0-16.89a7.74,7.74,0,1,0,7.74,7.73A7.75,7.75,0,0,0,135.53,336.54Z"/><circle class="cls-3" cx="135.53" cy="201.78" r="8.45"/><path class="cls-4" d="M135.53,210.94a9.16,9.16,0,1,1,9.16-9.16A9.17,9.17,0,0,1,135.53,210.94Zm0-16.9a7.74,7.74,0,1,0,7.74,7.74A7.76,7.76,0,0,0,135.53,194Z"/><circle class="cls-3" cx="135.53" cy="244.85" r="8.45"/><path class="cls-4" d="M135.53,254a9.16,9.16,0,1,1,9.16-9.16A9.17,9.17,0,0,1,135.53,254Zm0-16.89a7.74,7.74,0,1,0,7.74,7.73A7.75,7.75,0,0,0,135.53,237.12Z"/><circle class="cls-3" cx="135.53" cy="101.77" r="8.45"/><path class="cls-4" d="M135.53,110.92a9.16,9.16,0,1,1,9.16-9.15A9.17,9.17,0,0,1,135.53,110.92Zm0-16.89a7.74,7.74,0,1,0,7.74,7.74A7.75,7.75,0,0,0,135.53,94Z"/><circle class="cls-3" cx="135.53" cy="144.84" r="8.45"/><path class="cls-4" d="M135.53,154a9.15,9.15,0,1,1,9.16-9.15A9.16,9.16,0,0,1,135.53,154Zm0-16.89a7.74,7.74,0,1,0,7.74,7.74A7.75,7.75,0,0,0,135.53,137.1Z"/><circle class="cls-3" cx="199.71" cy="445.28" r="8.45"/><path class="cls-4" d="M199.71,454.43a9.15,9.15,0,1,1,9.15-9.15A9.16,9.16,0,0,1,199.71,454.43Zm0-16.89a7.74,7.74,0,1,0,7.73,7.74A7.75,7.75,0,0,0,199.71,437.54Z"/><circle class="cls-3" cx="199.71" cy="399.76" r="8.45"/><path class="cls-4" d="M199.71,408.91a9.16,9.16,0,1,1,9.15-9.15A9.17,9.17,0,0,1,199.71,408.91Zm0-16.89a7.74,7.74,0,1,0,7.73,7.74A7.75,7.75,0,0,0,199.71,392Z"/><circle class="cls-3" cx="199.71" cy="301.2" r="8.45"/><path class="cls-4" d="M199.71,310.36a9.16,9.16,0,1,1,9.15-9.16A9.17,9.17,0,0,1,199.71,310.36Zm0-16.9a7.74,7.74,0,1,0,7.73,7.74A7.75,7.75,0,0,0,199.71,293.46Z"/><circle class="cls-3" cx="199.71" cy="344.27" r="8.45"/><path class="cls-4" d="M199.71,353.43a9.16,9.16,0,1,1,9.15-9.16A9.17,9.17,0,0,1,199.71,353.43Zm0-16.89a7.74,7.74,0,1,0,7.73,7.73A7.74,7.74,0,0,0,199.71,336.54Z"/><circle class="cls-3" cx="199.71" cy="201.78" r="8.45"/><path class="cls-4" d="M199.71,210.94a9.16,9.16,0,1,1,9.15-9.16A9.17,9.17,0,0,1,199.71,210.94Zm0-16.9a7.74,7.74,0,1,0,7.73,7.74A7.75,7.75,0,0,0,199.71,194Z"/><circle class="cls-3" cx="199.71" cy="244.85" r="8.45"/><path class="cls-4" d="M199.71,254a9.16,9.16,0,1,1,9.15-9.16A9.17,9.17,0,0,1,199.71,254Zm0-16.89a7.74,7.74,0,1,0,7.73,7.73A7.74,7.74,0,0,0,199.71,237.12Z"/><circle class="cls-3" cx="199.71" cy="101.77" r="8.45"/><path class="cls-4" d="M199.71,110.92a9.16,9.16,0,1,1,9.15-9.15A9.17,9.17,0,0,1,199.71,110.92Zm0-16.89a7.74,7.74,0,1,0,7.73,7.74A7.75,7.75,0,0,0,199.71,94Z"/><circle class="cls-3" cx="199.71" cy="144.84" r="8.45"/><path class="cls-4" d="M199.71,154a9.15,9.15,0,1,1,9.15-9.15A9.16,9.16,0,0,1,199.71,154Zm0-16.89a7.74,7.74,0,1,0,7.73,7.74A7.75,7.75,0,0,0,199.71,137.1Z"/><circle class="cls-3" cx="234.53" cy="445.28" r="8.45"/><path class="cls-4" d="M234.53,454.43a9.15,9.15,0,1,1,9.16-9.15A9.16,9.16,0,0,1,234.53,454.43Zm0-16.89a7.74,7.74,0,1,0,7.74,7.74A7.75,7.75,0,0,0,234.53,437.54Z"/><circle class="cls-3" cx="234.53" cy="399.76" r="8.45"/><path class="cls-4" d="M234.53,408.91a9.16,9.16,0,1,1,9.16-9.15A9.17,9.17,0,0,1,234.53,408.91Zm0-16.89a7.74,7.74,0,1,0,7.74,7.74A7.75,7.75,0,0,0,234.53,392Z"/><circle class="cls-3" cx="234.53" cy="301.2" r="8.45"/><path class="cls-4" d="M234.53,310.36a9.16,9.16,0,1,1,9.16-9.16A9.17,9.17,0,0,1,234.53,310.36Zm0-16.9a7.74,7.74,0,1,0,7.74,7.74A7.76,7.76,0,0,0,234.53,293.46Z"/><circle class="cls-3" cx="234.53" cy="344.27" r="8.45"/><path class="cls-4" d="M234.53,353.43a9.16,9.16,0,1,1,9.16-9.16A9.17,9.17,0,0,1,234.53,353.43Zm0-16.89a7.74,7.74,0,1,0,7.74,7.73A7.75,7.75,0,0,0,234.53,336.54Z"/><circle class="cls-3" cx="234.53" cy="201.78" r="8.45"/><path class="cls-4" d="M234.53,210.94a9.16,9.16,0,1,1,9.16-9.16A9.17,9.17,0,0,1,234.53,210.94Zm0-16.9a7.74,7.74,0,1,0,7.74,7.74A7.76,7.76,0,0,0,234.53,194Z"/><circle class="cls-3" cx="234.53" cy="244.85" r="8.45"/><path class="cls-4" d="M234.53,254a9.16,9.16,0,1,1,9.16-9.16A9.17,9.17,0,0,1,234.53,254Zm0-16.89a7.74,7.74,0,1,0,7.74,7.73A7.75,7.75,0,0,0,234.53,237.12Z"/><circle class="cls-3" cx="234.53" cy="101.77" r="8.45"/><path class="cls-4" d="M234.53,110.92a9.16,9.16,0,1,1,9.16-9.15A9.17,9.17,0,0,1,234.53,110.92Zm0-16.89a7.74,7.74,0,1,0,7.74,7.74A7.75,7.75,0,0,0,234.53,94Z"/><circle class="cls-3" cx="234.53" cy="144.84" r="8.45"/><path class="cls-4" d="M234.53,154a9.15,9.15,0,1,1,9.16-9.15A9.16,9.16,0,0,1,234.53,154Zm0-16.89a7.74,7.74,0,1,0,7.74,7.74A7.75,7.75,0,0,0,234.53,137.1Z"/><circle class="cls-3" cx="298.71" cy="445.28" r="8.45"/><path class="cls-4" d="M298.71,454.43a9.15,9.15,0,1,1,9.15-9.15A9.16,9.16,0,0,1,298.71,454.43Zm0-16.89a7.74,7.74,0,1,0,7.73,7.74A7.75,7.75,0,0,0,298.71,437.54Z"/><circle class="cls-3" cx="298.71" cy="399.76" r="8.45"/><path class="cls-4" d="M298.71,408.91a9.16,9.16,0,1,1,9.15-9.15A9.17,9.17,0,0,1,298.71,408.91Zm0-16.89a7.74,7.74,0,1,0,7.73,7.74A7.75,7.75,0,0,0,298.71,392Z"/><circle class="cls-3" cx="298.71" cy="301.2" r="8.45"/><path class="cls-4" d="M298.71,310.36a9.16,9.16,0,1,1,9.15-9.16A9.17,9.17,0,0,1,298.71,310.36Zm0-16.9a7.74,7.74,0,1,0,7.73,7.74A7.75,7.75,0,0,0,298.71,293.46Z"/><circle class="cls-3" cx="298.71" cy="344.27" r="8.45"/><path class="cls-4" d="M298.71,353.43a9.16,9.16,0,1,1,9.15-9.16A9.17,9.17,0,0,1,298.71,353.43Zm0-16.89a7.74,7.74,0,1,0,7.73,7.73A7.74,7.74,0,0,0,298.71,336.54Z"/><circle class="cls-3" cx="298.71" cy="201.78" r="8.45"/><path class="cls-4" d="M298.71,210.94a9.16,9.16,0,1,1,9.15-9.16A9.17,9.17,0,0,1,298.71,210.94Zm0-16.9a7.74,7.74,0,1,0,7.73,7.74A7.75,7.75,0,0,0,298.71,194Z"/><circle class="cls-3" cx="298.71" cy="244.85" r="8.45"/><path class="cls-4" d="M298.71,254a9.16,9.16,0,1,1,9.15-9.16A9.17,9.17,0,0,1,298.71,254Zm0-16.89a7.74,7.74,0,1,0,7.73,7.73A7.74,7.74,0,0,0,298.71,237.12Z"/><circle class="cls-3" cx="298.71" cy="101.77" r="8.45"/><path class="cls-4" d="M298.71,110.92a9.16,9.16,0,1,1,9.15-9.15A9.17,9.17,0,0,1,298.71,110.92Zm0-16.89a7.74,7.74,0,1,0,7.73,7.74A7.75,7.75,0,0,0,298.71,94Z"/><circle class="cls-3" cx="298.71" cy="144.84" r="8.45"/><path class="cls-4" d="M298.71,154a9.15,9.15,0,1,1,9.15-9.15A9.16,9.16,0,0,1,298.71,154Zm0-16.89a7.74,7.74,0,1,0,7.73,7.74A7.75,7.75,0,0,0,298.71,137.1Z"/><circle class="cls-3" cx="333.53" cy="445.28" r="8.45"/><path class="cls-4" d="M333.53,454.43a9.15,9.15,0,1,1,9.16-9.15A9.16,9.16,0,0,1,333.53,454.43Zm0-16.89a7.74,7.74,0,1,0,7.74,7.74A7.75,7.75,0,0,0,333.53,437.54Z"/><circle class="cls-3" cx="333.53" cy="399.76" r="8.45"/><path class="cls-4" d="M333.53,408.91a9.16,9.16,0,1,1,9.16-9.15A9.17,9.17,0,0,1,333.53,408.91Zm0-16.89a7.74,7.74,0,1,0,7.74,7.74A7.75,7.75,0,0,0,333.53,392Z"/><circle class="cls-3" cx="333.53" cy="301.2" r="8.45"/><path class="cls-4" d="M333.53,310.36a9.16,9.16,0,1,1,9.16-9.16A9.17,9.17,0,0,1,333.53,310.36Zm0-16.9a7.74,7.74,0,1,0,7.74,7.74A7.76,7.76,0,0,0,333.53,293.46Z"/><circle class="cls-3" cx="333.53" cy="344.27" r="8.45"/><path class="cls-4" d="M333.53,353.43a9.16,9.16,0,1,1,9.16-9.16A9.17,9.17,0,0,1,333.53,353.43Zm0-16.89a7.74,7.74,0,1,0,7.74,7.73A7.75,7.75,0,0,0,333.53,336.54Z"/><circle class="cls-3" cx="333.53" cy="201.78" r="8.45"/><path class="cls-4" d="M333.53,210.94a9.16,9.16,0,1,1,9.16-9.16A9.17,9.17,0,0,1,333.53,210.94Zm0-16.9a7.74,7.74,0,1,0,7.74,7.74A7.76,7.76,0,0,0,333.53,194Z"/><circle class="cls-3" cx="333.53" cy="244.85" r="8.45"/><path class="cls-4" d="M333.53,254a9.16,9.16,0,1,1,9.16-9.16A9.17,9.17,0,0,1,333.53,254Zm0-16.89a7.74,7.74,0,1,0,7.74,7.73A7.75,7.75,0,0,0,333.53,237.12Z"/><circle class="cls-3" cx="333.53" cy="101.77" r="8.45"/><path class="cls-4" d="M333.53,110.92a9.16,9.16,0,1,1,9.16-9.15A9.17,9.17,0,0,1,333.53,110.92Zm0-16.89a7.74,7.74,0,1,0,7.74,7.74A7.75,7.75,0,0,0,333.53,94Z"/><circle class="cls-3" cx="333.53" cy="144.84" r="8.45"/><path class="cls-4" d="M333.53,154a9.15,9.15,0,1,1,9.16-9.15A9.16,9.16,0,0,1,333.53,154Zm0-16.89a7.74,7.74,0,1,0,7.74,7.74A7.75,7.75,0,0,0,333.53,137.1Z"/><circle class="cls-3" cx="398.95" cy="445.28" r="8.45"/><path class="cls-4" d="M399,454.43a9.15,9.15,0,1,1,9.15-9.15A9.15,9.15,0,0,1,399,454.43Zm0-16.89a7.74,7.74,0,1,0,7.74,7.74A7.75,7.75,0,0,0,399,437.54Z"/><circle class="cls-3" cx="398.95" cy="399.76" r="8.45"/><path class="cls-4" d="M399,408.91a9.16,9.16,0,1,1,9.15-9.15A9.16,9.16,0,0,1,399,408.91ZM399,392a7.74,7.74,0,1,0,7.74,7.74A7.75,7.75,0,0,0,399,392Z"/><circle class="cls-3" cx="398.95" cy="301.2" r="8.45"/><path class="cls-4" d="M399,310.36a9.16,9.16,0,1,1,9.15-9.16A9.16,9.16,0,0,1,399,310.36Zm0-16.9a7.74,7.74,0,1,0,7.74,7.74A7.75,7.75,0,0,0,399,293.46Z"/><circle class="cls-3" cx="398.95" cy="344.27" r="8.45"/><path class="cls-4" d="M399,353.43a9.16,9.16,0,1,1,9.15-9.16A9.16,9.16,0,0,1,399,353.43Zm0-16.89a7.74,7.74,0,1,0,7.74,7.73A7.74,7.74,0,0,0,399,336.54Z"/><circle class="cls-3" cx="398.95" cy="201.78" r="8.45"/><path class="cls-4" d="M399,210.94a9.16,9.16,0,1,1,9.15-9.16A9.16,9.16,0,0,1,399,210.94Zm0-16.9a7.74,7.74,0,1,0,7.74,7.74A7.75,7.75,0,0,0,399,194Z"/><circle class="cls-3" cx="398.95" cy="244.85" r="8.45"/><path class="cls-4" d="M399,254a9.16,9.16,0,1,1,9.15-9.16A9.16,9.16,0,0,1,399,254Zm0-16.89a7.74,7.74,0,1,0,7.74,7.73A7.74,7.74,0,0,0,399,237.12Z"/><circle class="cls-3" cx="398.95" cy="101.77" r="8.45"/><path class="cls-4" d="M399,110.92a9.16,9.16,0,1,1,9.15-9.15A9.16,9.16,0,0,1,399,110.92ZM399,94a7.74,7.74,0,1,0,7.74,7.74A7.75,7.75,0,0,0,399,94Z"/><circle class="cls-3" cx="398.95" cy="144.84" r="8.45"/><path class="cls-4" d="M399,154a9.15,9.15,0,1,1,9.15-9.15A9.15,9.15,0,0,1,399,154Zm0-16.89a7.74,7.74,0,1,0,7.74,7.74A7.75,7.75,0,0,0,399,137.1Z"/><path class="cls-3" d="M282.27,544.64H143.82V493.39h28.89a.4.4,0,1,1,0,.8H144.63v49.65H281.46V494.19H254.34a.4.4,0,1,1,0-.8h27.93Z"/><path class="cls-5" d="M255.23,498.7a2.31,2.31,0,0,0,1.35-2,1,1,0,0,1,1-.8h14.07a2,2,0,0,1,2.22,2.14v1.76H259.71l-4.44,4.44Z"/><path class="cls-5" d="M170.85,498.7a2.31,2.31,0,0,1-1.35-2,1,1,0,0,0-1-.8H154.44a2,2,0,0,0-2.21,2.14v1.76h14.14l4.43,4.44Z"/><path class="cls-6" d="M146.94,507.71h31.56a0,0,0,0,1,0,0v22.84a0,0,0,0,1,0,0H143.07a3.22,3.22,0,0,1-3.22-3.22V514.8a7.09,7.09,0,0,1,7.09-7.09Z" transform="translate(678.31 359.96) rotate(90)"/><path class="cls-6" d="M250.54,507.71H286a0,0,0,0,1,0,0v22.84a0,0,0,0,1,0,0H254.23a6.91,6.91,0,0,1-6.91-6.91V510.93A3.22,3.22,0,0,1,250.54,507.71Z" transform="translate(785.78 252.49) rotate(90)"/><path class="cls-7" d="M278.84,540.17V528.46h-23.6v10.66H170.85V528.46h-23.6v11.71a3.14,3.14,0,0,0,3.14,3.14H275.7A3.14,3.14,0,0,0,278.84,540.17Z"/><path class="cls-4" d="M255.23,528.46h15.66a1.26,1.26,0,0,0,.9-.37l1.68-1.68a1.27,1.27,0,0,0,.38-.9V501.29a1.29,1.29,0,0,0-.38-.9l-1.32-1.32a1.26,1.26,0,0,0-.9-.37H258.39a1.27,1.27,0,0,0-1.28,1.08,2.21,2.21,0,0,1-1.16,1.85,1.23,1.23,0,0,0-.72,1.16Z"/><path class="cls-4" d="M170.85,528.46H155.19a1.25,1.25,0,0,1-.9-.37l-1.69-1.68a1.31,1.31,0,0,1-.37-.9V501.29a1.32,1.32,0,0,1,.37-.9l1.33-1.32a1.26,1.26,0,0,1,.9-.37h12.86a1.28,1.28,0,0,1,1.28,1.08,2.21,2.21,0,0,0,1.16,1.85,1.23,1.23,0,0,1,.72,1.16Z"/><rect class="cls-8" x="170.85" y="498.05" width="84.37" height="41.07"/><rect class="cls-9" x="170.85" y="501.81" width="84.37" height="37.31"/><rect class="cls-3" x="241.75" y="491.46" width="17.7" height="3" rx="1.17" transform="translate(743.56 242.36) rotate(90)"/><path class="cls-10" d="M250.94,483.22h.27a0,0,0,0,1,0,0v3a0,0,0,0,1,0,0h-.27a.95.95,0,0,1-.95-.95v-1.11a.95.95,0,0,1,.95-.95Z" transform="translate(735.32 234.12) rotate(90)"/><rect class="cls-10" x="250.35" y="486.17" width="0.5" height="3" transform="translate(738.27 237.07) rotate(90)"/><rect class="cls-3" x="236.77" y="491.46" width="17.7" height="3" rx="1.17" transform="translate(738.58 247.34) rotate(90)"/><path class="cls-10" d="M246,483.22h.27a0,0,0,0,1,0,0v3a0,0,0,0,1,0,0H246a.95.95,0,0,1-.95-.95v-1.11a.95.95,0,0,1,.95-.95Z" transform="translate(730.34 239.1) rotate(90)"/><rect class="cls-10" x="245.37" y="486.17" width="0.5" height="3" transform="translate(733.29 242.05) rotate(90)"/><rect class="cls-3" x="231.79" y="491.46" width="17.7" height="3" rx="1.17" transform="translate(733.6 252.32) rotate(90)"/><path class="cls-10" d="M241,483.22h.27a0,0,0,0,1,0,0v3a0,0,0,0,1,0,0H241a.95.95,0,0,1-.95-.95v-1.11a.95.95,0,0,1,.95-.95Z" transform="translate(725.35 244.08) rotate(90)"/><rect class="cls-10" x="240.39" y="486.17" width="0.5" height="3" transform="translate(728.31 247.03) rotate(90)"/><rect class="cls-3" x="226.81" y="491.46" width="17.7" height="3" rx="1.17" transform="translate(728.62 257.3) rotate(90)"/><path class="cls-10" d="M236,483.22h.27a0,0,0,0,1,0,0v3a0,0,0,0,1,0,0H236a.95.95,0,0,1-.95-.95v-1.11A.95.95,0,0,1,236,483.22Z" transform="translate(720.37 249.06) rotate(90)"/><rect class="cls-10" x="235.41" y="486.17" width="0.5" height="3" transform="translate(723.32 252.01) rotate(90)"/><rect class="cls-3" x="221.82" y="491.46" width="17.7" height="3" rx="1.17" transform="translate(723.64 262.29) rotate(90)"/><path class="cls-10" d="M231,483.22h.27a0,0,0,0,1,0,0v3a0,0,0,0,1,0,0H231a.95.95,0,0,1-.95-.95v-1.11A.95.95,0,0,1,231,483.22Z" transform="translate(715.39 254.04) rotate(90)"/><rect class="cls-10" x="230.43" y="486.17" width="0.5" height="3" transform="translate(718.34 256.99) rotate(90)"/><rect class="cls-3" x="216.84" y="491.46" width="17.7" height="3" rx="1.17" transform="translate(718.66 267.27) rotate(90)"/><path class="cls-10" d="M226,483.22h.27a0,0,0,0,1,0,0v3a0,0,0,0,1,0,0H226a.95.95,0,0,1-.95-.95v-1.11A.95.95,0,0,1,226,483.22Z" transform="translate(710.41 259.02) rotate(90)"/><rect class="cls-10" x="225.45" y="486.17" width="0.5" height="3" transform="translate(713.36 261.97) rotate(90)"/><rect class="cls-3" x="211.86" y="491.46" width="17.7" height="3" rx="1.17" transform="translate(713.68 272.25) rotate(90)"/><path class="cls-10" d="M221.05,483.22h.27a0,0,0,0,1,0,0v3a0,0,0,0,1,0,0h-.27a.95.95,0,0,1-.95-.95v-1.11A.95.95,0,0,1,221.05,483.22Z" transform="translate(705.43 264) rotate(90)"/><rect class="cls-10" x="220.46" y="486.17" width="0.5" height="3" transform="translate(708.38 266.95) rotate(90)"/><rect class="cls-3" x="206.88" y="491.46" width="17.7" height="3" rx="1.17" transform="translate(708.7 277.23) rotate(90)"/><path class="cls-10" d="M216.07,483.22h.27a0,0,0,0,1,0,0v3a0,0,0,0,1,0,0h-.27a.95.95,0,0,1-.95-.95v-1.11A.95.95,0,0,1,216.07,483.22Z" transform="translate(700.45 268.98) rotate(90)"/><rect class="cls-10" x="215.48" y="486.17" width="0.5" height="3" transform="translate(703.4 271.93) rotate(90)"/><rect class="cls-3" x="201.9" y="491.46" width="17.7" height="3" rx="1.17" transform="translate(703.71 282.21) rotate(90)"/><path class="cls-10" d="M211.09,483.22h.27a0,0,0,0,1,0,0v3a0,0,0,0,1,0,0h-.27a.95.95,0,0,1-.95-.95v-1.11A.95.95,0,0,1,211.09,483.22Z" transform="translate(695.47 273.96) rotate(90)"/><rect class="cls-10" x="210.5" y="486.17" width="0.5" height="3" transform="translate(698.42 276.91) rotate(90)"/><rect class="cls-3" x="196.92" y="491.46" width="17.7" height="3" rx="1.17" transform="translate(698.73 287.19) rotate(90)"/><path class="cls-10" d="M206.11,483.22h.27a0,0,0,0,1,0,0v3a0,0,0,0,1,0,0h-.27a.95.95,0,0,1-.95-.95v-1.11A.95.95,0,0,1,206.11,483.22Z" transform="translate(690.49 278.95) rotate(90)"/><rect class="cls-10" x="205.52" y="486.17" width="0.5" height="3" transform="translate(693.44 281.9) rotate(90)"/><rect class="cls-3" x="191.94" y="491.46" width="17.7" height="3" rx="1.17" transform="translate(693.75 292.17) rotate(90)"/><path class="cls-10" d="M201.13,483.22h.27a0,0,0,0,1,0,0v3a0,0,0,0,1,0,0h-.27a.95.95,0,0,1-.95-.95v-1.11A.95.95,0,0,1,201.13,483.22Z" transform="translate(685.51 283.93) rotate(90)"/><rect class="cls-10" x="200.54" y="486.17" width="0.5" height="3" transform="translate(688.46 286.88) rotate(90)"/><rect class="cls-3" x="186.96" y="491.46" width="17.7" height="3" rx="1.17" transform="translate(688.77 297.15) rotate(90)"/><path class="cls-10" d="M196.15,483.22h.27a0,0,0,0,1,0,0v3a0,0,0,0,1,0,0h-.27a.95.95,0,0,1-.95-.95v-1.11A.95.95,0,0,1,196.15,483.22Z" transform="translate(680.53 288.91) rotate(90)"/><rect class="cls-10" x="195.56" y="486.17" width="0.5" height="3" transform="translate(683.48 291.86) rotate(90)"/><rect class="cls-3" x="181.98" y="491.46" width="17.7" height="3" rx="1.17" transform="translate(683.79 302.13) rotate(90)"/><path class="cls-10" d="M191.17,483.22h.27a0,0,0,0,1,0,0v3a0,0,0,0,1,0,0h-.27a.95.95,0,0,1-.95-.95v-1.11A.95.95,0,0,1,191.17,483.22Z" transform="translate(675.55 293.89) rotate(90)"/><rect class="cls-10" x="190.58" y="486.17" width="0.5" height="3" transform="translate(678.5 296.84) rotate(90)"/><rect class="cls-3" x="177" y="491.46" width="17.7" height="3" rx="1.17" transform="translate(678.81 307.11) rotate(90)"/><path class="cls-10" d="M186.19,483.22h.27a0,0,0,0,1,0,0v3a0,0,0,0,1,0,0h-.27a.95.95,0,0,1-.95-.95v-1.11A.95.95,0,0,1,186.19,483.22Z" transform="translate(670.57 298.87) rotate(90)"/><rect class="cls-10" x="185.6" y="486.17" width="0.5" height="3" transform="translate(673.52 301.82) rotate(90)"/><rect class="cls-3" x="172.02" y="491.46" width="17.7" height="3" rx="1.17" transform="translate(673.83 312.09) rotate(90)"/><path class="cls-10" d="M181.21,483.22h.27a0,0,0,0,1,0,0v3a0,0,0,0,1,0,0h-.27a.95.95,0,0,1-.95-.95v-1.11A.95.95,0,0,1,181.21,483.22Z" transform="translate(665.58 303.85) rotate(90)"/><rect class="cls-10" x="180.62" y="486.17" width="0.5" height="3" transform="translate(668.53 306.8) rotate(90)"/><rect class="cls-3" x="167.03" y="491.46" width="17.7" height="3" rx="1.17" transform="translate(668.85 317.08) rotate(90)"/><path class="cls-10" d="M176.23,483.22h.27a0,0,0,0,1,0,0v3a0,0,0,0,1,0,0h-.27a.95.95,0,0,1-.95-.95v-1.11A.95.95,0,0,1,176.23,483.22Z" transform="translate(660.6 308.83) rotate(90)"/><rect class="cls-10" x="175.64" y="486.17" width="0.5" height="3" transform="translate(663.55 311.78) rotate(90)"/></g></g></svg>