<svg id="Layer_1" data-name="Layer 1" xmlns="http://www.w3.org/2000/svg" viewBox="0 0 1158.95 1226.32"><defs><style>.cls-1{fill:#006b4d;}.cls-2{fill:#b6c2cc;}.cls-3{fill:#ece4d9;}.cls-4{fill:#dea954;}.cls-5{fill:#cbd0d8;}.cls-6{fill:#fefefe;}.cls-13,.cls-7{fill:none;}.cls-8{fill:#d5ab61;}.cls-9{fill:#006ac6;}.cls-10{fill:#97999b;}.cls-11{fill:#333;}.cls-12{fill:#271f1c;}.cls-13{stroke:#000;stroke-miterlimit:10;stroke-width:2px;}.cls-14{isolation:isolate;}.cls-15{fill:#fff;}.cls-16{fill:#339;}</style></defs><path class="cls-1" d="M1034.67,293.36v14.78a4.26,4.26,0,0,1-2.24,3.73,45.5,45.5,0,0,1-43.47-.1,4.22,4.22,0,0,1-2.19-3.7V293.36h-8v14.78a4.25,4.25,0,0,1-2.25,3.73,45.48,45.48,0,0,1-43.46-.1,4.22,4.22,0,0,1-2.19-3.7V293.36h-8v14.78a4.24,4.24,0,0,1-2.24,3.73,45.48,45.48,0,0,1-43.46-.1,4.22,4.22,0,0,1-2.19-3.7V293.36h-8v14.78a4.24,4.24,0,0,1-2.24,3.73,45.48,45.48,0,0,1-43.46-.1,4.22,4.22,0,0,1-2.19-3.7V293.36h-8v14.78a4.26,4.26,0,0,1-2.24,3.73,45.48,45.48,0,0,1-43.46-.1,4.22,4.22,0,0,1-2.19-3.7V293.36h-8v14.78a4.26,4.26,0,0,1-2.24,3.73,45.48,45.48,0,0,1-43.46-.1,4.22,4.22,0,0,1-2.19-3.7V293.36h-8v14.78a4.26,4.26,0,0,1-2.24,3.73,45.48,45.48,0,0,1-43.46-.1,4.21,4.21,0,0,1-2.2-3.7V293.36h-8v14.78a4.26,4.26,0,0,1-2.24,3.73,45.5,45.5,0,0,1-43.47-.1,4.22,4.22,0,0,1-2.19-3.7V293.36h-8v14.78a4.26,4.26,0,0,1-2.24,3.73,45.5,45.5,0,0,1-43.47-.1,4.22,4.22,0,0,1-2.19-3.7V293.36h-8v14.78a4.25,4.25,0,0,1-2.25,3.73,45.48,45.48,0,0,1-43.46-.1,4.22,4.22,0,0,1-2.19-3.7V293.36h-8v14.78a4.24,4.24,0,0,1-2.24,3.73,45.48,45.48,0,0,1-43.46-.1,4.22,4.22,0,0,1-2.19-3.7V293.36h-8v14.78a4.24,4.24,0,0,1-2.24,3.73,45.48,45.48,0,0,1-43.46-.1,4.22,4.22,0,0,1-2.19-3.7V293.36H257.81v823.25H369.94v-7.94a4.22,4.22,0,0,1,2.19-3.7,45.48,45.48,0,0,1,43.46-.1,4.25,4.25,0,0,1,2.24,3.74v8h7.68v-7.94a4.22,4.22,0,0,1,2.19-3.7h0a45.48,45.48,0,0,1,43.46-.1,4.27,4.27,0,0,1,2.24,3.74v8h7.68v-7.94a4.22,4.22,0,0,1,2.19-3.7,45.48,45.48,0,0,1,43.46-.1,4.27,4.27,0,0,1,2.24,3.74v8H763.85v-7.94A4.22,4.22,0,0,1,766,1105a45.48,45.48,0,0,1,43.46-.1,4.25,4.25,0,0,1,2.24,3.74v8h7.44v-7.94a4.21,4.21,0,0,1,2.2-3.7,45.48,45.48,0,0,1,43.46-.1,4.27,4.27,0,0,1,2.24,3.74v8h7.44v-7.94a4.22,4.22,0,0,1,2.19-3.7,45.48,45.48,0,0,1,43.46-.1,4.25,4.25,0,0,1,2.24,3.74v8h7.44v-7.94a4.21,4.21,0,0,1,2.2-3.7,45.48,45.48,0,0,1,43.46-.1,4.27,4.27,0,0,1,2.24,3.74v8h7.44v-7.94a4.22,4.22,0,0,1,2.19-3.7,45.48,45.48,0,0,1,43.46-.1,4.25,4.25,0,0,1,2.24,3.74v8h79.55V293.36Z"/><rect class="cls-2" x="320.72" y="285.13" width="113.72" height="215.24" transform="translate(-15.17 770.33) rotate(-90)"/><rect class="cls-2" x="327.09" y="424.95" width="105.6" height="58.56" transform="translate(-74.33 834.12) rotate(-90)"/><rect class="cls-3" x="308.78" y="329.34" width="141.89" height="141.89" rx="19.05" transform="translate(-20.57 780.02) rotate(-90)"/><circle class="cls-4" cx="377.83" cy="402.53" r="51.16"/><circle class="cls-3" cx="378.47" cy="402.53" r="46.54"/><circle class="cls-4" cx="379.06" cy="402.53" r="14.39"/><path class="cls-5" d="M270,550.81v537.05h830.89V325l-579.26-6.33V509.94a43.48,43.48,0,0,1-44,43.48Z"/><path class="cls-6" d="M297.9,612.14V978.65a63.84,63.84,0,0,0,63.84,63.84h652.59a54.87,54.87,0,0,0,54.87-54.86V389.18a64.55,64.55,0,0,0-64.56-64.56H650a61.92,61.92,0,0,0-61.92,61.92v159a5.27,5.27,0,0,1-5.27,5.28l-223.92.27A61.06,61.06,0,0,0,297.9,612.14Z"/><path class="cls-7" d="M840.49,1116.61h4.87a13,13,0,0,0-4.87,0Z"/><path class="cls-7" d="M1006.49,1116.61h4.88a13.06,13.06,0,0,0-4.88,0Z"/><path class="cls-7" d="M951.16,1116.61H956a13,13,0,0,0-4.87,0Z"/><path class="cls-7" d="M502.38,1116.61h4.88a13.06,13.06,0,0,0-4.88,0Z"/><path class="cls-7" d="M895.82,1116.61h4.88a13.06,13.06,0,0,0-4.88,0Z"/><path class="cls-7" d="M391.24,1116.61h4.88a13.06,13.06,0,0,0-4.88,0Z"/><path class="cls-7" d="M446.81,1116.61h4.88a13.06,13.06,0,0,0-4.88,0Z"/><path class="cls-7" d="M785.15,1116.61H790a13.06,13.06,0,0,0-4.88,0Z"/><path class="cls-7" d="M619.07,300.36a14.34,14.34,0,0,0,12.3-7H606.76A14.35,14.35,0,0,0,619.07,300.36Z"/><path class="cls-7" d="M395.38,300.36a14.36,14.36,0,0,0,12.31-7H383.07A14.36,14.36,0,0,0,395.38,300.36Z"/><path class="cls-7" d="M563.14,300.36a14.35,14.35,0,0,0,12.31-7H550.83A14.37,14.37,0,0,0,563.14,300.36Z"/><path class="cls-7" d="M507.22,300.36a14.35,14.35,0,0,0,12.31-7H494.91A14.36,14.36,0,0,0,507.22,300.36Z"/><path class="cls-7" d="M898.67,300.36a14.35,14.35,0,0,0,12.31-7H886.36A14.36,14.36,0,0,0,898.67,300.36Z"/><path class="cls-7" d="M451.3,300.36a14.35,14.35,0,0,0,12.31-7H439A14.36,14.36,0,0,0,451.3,300.36Z"/><path class="cls-7" d="M954.59,300.36a14.35,14.35,0,0,0,12.31-7H942.28A14.36,14.36,0,0,0,954.59,300.36Z"/><path class="cls-7" d="M786.83,300.36a14.36,14.36,0,0,0,12.31-7H774.52A14.36,14.36,0,0,0,786.83,300.36Z"/><path class="cls-7" d="M842.75,300.36a14.36,14.36,0,0,0,12.31-7H830.44A14.36,14.36,0,0,0,842.75,300.36Z"/><path class="cls-7" d="M675,300.36a14.36,14.36,0,0,0,12.31-7H662.68A14.35,14.35,0,0,0,675,300.36Z"/><path class="cls-7" d="M1010.51,300.36a14.35,14.35,0,0,0,12.31-7H998.2A14.37,14.37,0,0,0,1010.51,300.36Z"/><path class="cls-7" d="M730.91,300.36a14.36,14.36,0,0,0,12.31-7H718.6A14.35,14.35,0,0,0,730.91,300.36Z"/><path class="cls-8" d="M1112.3,286.32h-78.75a11.87,11.87,0,0,0-10.37,6.47c-.11.2-.24.37-.36.57a14.32,14.32,0,0,1-24.62,0c-.11-.2-.25-.37-.35-.57a11.88,11.88,0,0,0-10.37-6.47h-9.85a11.87,11.87,0,0,0-10.37,6.47c-.11.2-.24.37-.36.57a14.32,14.32,0,0,1-24.62,0c-.11-.2-.25-.37-.35-.57a11.89,11.89,0,0,0-10.37-6.47h-9.85a11.87,11.87,0,0,0-10.37,6.47c-.11.2-.24.37-.36.57a14.32,14.32,0,0,1-24.62,0c-.11-.2-.25-.37-.36-.57a11.86,11.86,0,0,0-10.36-6.47h-9.85a11.87,11.87,0,0,0-10.37,6.47c-.11.2-.24.37-.36.57a14.32,14.32,0,0,1-24.62,0c-.11-.2-.25-.37-.36-.57a11.87,11.87,0,0,0-10.37-6.47h-9.84a11.87,11.87,0,0,0-10.37,6.47c-.11.2-.25.37-.36.57a14.32,14.32,0,0,1-24.62,0c-.12-.2-.25-.37-.36-.57a11.87,11.87,0,0,0-10.37-6.47h-9.85a11.86,11.86,0,0,0-10.36,6.47c-.11.2-.25.37-.36.57a14.32,14.32,0,0,1-24.62,0c-.12-.2-.25-.37-.36-.57a11.87,11.87,0,0,0-10.37-6.47H698a11.88,11.88,0,0,0-10.37,6.47c-.1.2-.24.37-.35.57a14.32,14.32,0,0,1-24.62,0c-.12-.2-.25-.37-.36-.57A11.87,11.87,0,0,0,652,286.32H642.1a11.88,11.88,0,0,0-10.37,6.47c-.1.2-.24.37-.36.57a14.32,14.32,0,0,1-24.61,0c-.12-.2-.26-.37-.36-.57A11.87,11.87,0,0,0,596,286.32h-9.85a11.87,11.87,0,0,0-10.37,6.47c-.11.2-.24.37-.36.57a14.32,14.32,0,0,1-24.62,0c-.11-.2-.25-.37-.35-.57a11.88,11.88,0,0,0-10.37-6.47h-9.85a11.87,11.87,0,0,0-10.37,6.47c-.11.2-.24.37-.36.57a14.32,14.32,0,0,1-24.62,0c-.11-.2-.25-.37-.36-.57a11.86,11.86,0,0,0-10.36-6.47h-9.85A11.87,11.87,0,0,0,464,292.79c-.11.2-.24.37-.36.57a14.32,14.32,0,0,1-24.62,0c-.11-.2-.25-.37-.36-.57a11.86,11.86,0,0,0-10.36-6.47h-9.85a11.87,11.87,0,0,0-10.37,6.47c-.11.2-.24.37-.36.57a14.32,14.32,0,0,1-24.62,0c-.12-.2-.25-.37-.36-.57a11.87,11.87,0,0,0-10.37-6.47H254.56a4.48,4.48,0,0,0-4.48,4.49V493.6l7.73,25.9V293.36H371.64v14.71a4.22,4.22,0,0,0,2.19,3.7,45.48,45.48,0,0,0,43.46.1,4.24,4.24,0,0,0,2.24-3.73V293.36h8v14.71a4.22,4.22,0,0,0,2.19,3.7,45.48,45.48,0,0,0,43.46.1,4.24,4.24,0,0,0,2.24-3.73V293.36h8v14.71a4.22,4.22,0,0,0,2.19,3.7,45.48,45.48,0,0,0,43.46.1,4.25,4.25,0,0,0,2.25-3.73V293.36h8v14.71a4.22,4.22,0,0,0,2.19,3.7,45.5,45.5,0,0,0,43.47.1,4.26,4.26,0,0,0,2.24-3.73V293.36h8v14.71a4.22,4.22,0,0,0,2.19,3.7,45.5,45.5,0,0,0,43.47.1,4.26,4.26,0,0,0,2.24-3.73V293.36h8v14.71a4.21,4.21,0,0,0,2.2,3.7,45.48,45.48,0,0,0,43.46.1,4.26,4.26,0,0,0,2.24-3.73V293.36h8v14.71a4.22,4.22,0,0,0,2.19,3.7,45.48,45.48,0,0,0,43.46.1,4.26,4.26,0,0,0,2.24-3.73V293.36h8v14.71a4.22,4.22,0,0,0,2.19,3.7,45.48,45.48,0,0,0,43.46.1,4.26,4.26,0,0,0,2.24-3.73V293.36h8v14.71a4.22,4.22,0,0,0,2.19,3.7,45.48,45.48,0,0,0,43.46.1,4.24,4.24,0,0,0,2.24-3.73V293.36h8v14.71a4.22,4.22,0,0,0,2.19,3.7,45.48,45.48,0,0,0,43.46.1,4.24,4.24,0,0,0,2.24-3.73V293.36h8v14.71a4.22,4.22,0,0,0,2.19,3.7,45.48,45.48,0,0,0,43.46.1,4.25,4.25,0,0,0,2.25-3.73V293.36h8v14.71a4.22,4.22,0,0,0,2.19,3.7,45.5,45.5,0,0,0,43.47.1,4.26,4.26,0,0,0,2.24-3.73V293.36h78v823.25h-79.55v-8a4.25,4.25,0,0,0-2.24-3.74,45.48,45.48,0,0,0-43.46.1,4.22,4.22,0,0,0-2.19,3.7v7.94h-7.44v-8a4.27,4.27,0,0,0-2.24-3.74,45.48,45.48,0,0,0-43.46.1,4.21,4.21,0,0,0-2.2,3.7v7.94h-7.44v-8a4.25,4.25,0,0,0-2.24-3.74,45.48,45.48,0,0,0-43.46.1,4.22,4.22,0,0,0-2.19,3.7v7.94h-7.44v-8a4.27,4.27,0,0,0-2.24-3.74,45.48,45.48,0,0,0-43.46.1,4.21,4.21,0,0,0-2.2,3.7v7.94h-7.44v-8a4.25,4.25,0,0,0-2.24-3.74,45.48,45.48,0,0,0-43.46.1,4.22,4.22,0,0,0-2.19,3.7v7.94H529v-8a4.27,4.27,0,0,0-2.24-3.74,45.48,45.48,0,0,0-43.46.1,4.22,4.22,0,0,0-2.19,3.7v7.94H473.4v-8a4.27,4.27,0,0,0-2.24-3.74,45.48,45.48,0,0,0-43.46.1h0a4.22,4.22,0,0,0-2.19,3.7v7.94h-7.68v-8a4.25,4.25,0,0,0-2.24-3.74,45.48,45.48,0,0,0-43.46.1,4.22,4.22,0,0,0-2.19,3.7v7.94H257.81V900.75l-7.73,11.73v213.26a4.68,4.68,0,0,0,4.68,4.68H370.64A11.87,11.87,0,0,0,381,1124a14.39,14.39,0,0,1,10.23-7.34,13.06,13.06,0,0,1,4.88,0,14.39,14.39,0,0,1,10.23,7.34,11.87,11.87,0,0,0,10.37,6.47h9.49a11.87,11.87,0,0,0,10.37-6.47,14.39,14.39,0,0,1,10.23-7.34,13.06,13.06,0,0,1,4.88,0,14.39,14.39,0,0,1,10.23,7.34,11.87,11.87,0,0,0,10.37,6.47h9.49a11.87,11.87,0,0,0,10.37-6.47,14.39,14.39,0,0,1,10.23-7.34,13.06,13.06,0,0,1,4.88,0,14.39,14.39,0,0,1,10.23,7.34,11.87,11.87,0,0,0,10.37,6.47H764.55a11.87,11.87,0,0,0,10.37-6.47,14.39,14.39,0,0,1,10.23-7.34,13.06,13.06,0,0,1,4.88,0,14.39,14.39,0,0,1,10.23,7.34,11.87,11.87,0,0,0,10.37,6.47h9.26a11.87,11.87,0,0,0,10.37-6.47,14.39,14.39,0,0,1,10.23-7.34,13,13,0,0,1,4.87,0,14.39,14.39,0,0,1,10.23,7.34,11.88,11.88,0,0,0,10.37,6.47h9.27a11.86,11.86,0,0,0,10.36-6.47,14.39,14.39,0,0,1,10.23-7.34,13.06,13.06,0,0,1,4.88,0,14.39,14.39,0,0,1,10.23,7.34,11.87,11.87,0,0,0,10.37,6.47h9.26a11.87,11.87,0,0,0,10.37-6.47,14.39,14.39,0,0,1,10.23-7.34,13,13,0,0,1,4.87,0,14.39,14.39,0,0,1,10.23,7.34,11.88,11.88,0,0,0,10.37,6.47h9.27a11.86,11.86,0,0,0,10.36-6.47,14.39,14.39,0,0,1,10.23-7.34,13.06,13.06,0,0,1,4.88,0,14.39,14.39,0,0,1,10.23,7.34,11.87,11.87,0,0,0,10.37,6.47h80.83a2.48,2.48,0,0,0,2.47-2.48V289.29A3,3,0,0,0,1112.3,286.32Z"/><path class="cls-9" d="M679.75,400.32a11.29,11.29,0,0,1,.86,4.05c.07,1.81.19,7.28.22,8.86,1.82-.1,4.17-.21,5.74-.21s6.79-.1,14.43-.27h.49c2-.05,6.62-.77,7.23-6.54.53-5.05-2.24-6.28-2.36-6.32-1.09-.73-5.85-2-11.28-2-.61,0-1.23,0-1.86,0a73.47,73.47,0,0,0-13.47,2.4"/><path class="cls-9" d="M671.16,394.5a11.3,11.3,0,0,1,3.06.78,12.08,12.08,0,0,1,3.79,2.29,69.82,69.82,0,0,1,14.46-2.78c.93-.07,1.9-.11,2.87-.11a35.79,35.79,0,0,1,10.18,1.39,15.41,15.41,0,0,0,1.59-1.44,7.58,7.58,0,0,0,1.91-3.76,8.2,8.2,0,0,0-.82-5.87c-.87-1.66-3.15-2.5-6.76-2.5-.48,0-1,0-1.62-.05s-1.51-.06-2.4-.06a35.06,35.06,0,0,0-12.3,2.29c-5.88,2.1-11.41,7.21-14,9.82"/><path class="cls-9" d="M654,394.26a12.74,12.74,0,0,1,4.9.91,12.5,12.5,0,0,1,3.57,2.75,9,9,0,0,1,1.2-1.38,8.5,8.5,0,0,1,2.78-1.61c1.22-1.36,3.56-3.88,5.92-6a40.64,40.64,0,0,1,15.13-8.5A35.82,35.82,0,0,1,698.34,379a52.23,52.23,0,0,1,5.55.28c.88-.66,4-3.27,4-6.73-.08-5.53-2.1-6.82-11.39-7.28-9.82-.52-20.63,3.38-29.64,10.64-7.15,5.75-11.44,15-12.83,18.38"/><path class="cls-9" d="M693.46,416c.09,1.57.22,4.1.22,5.75,0,2.2.17,10,.25,13.34l0,1.57c0,2,.79,6.62,6.54,7.23.41,0,.82.07,1.23.07,4.07,0,5.08-2.4,5.09-2.42.7-1.06,2.3-6.58,2-13.15a73.31,73.31,0,0,0-2.4-13.47,11.36,11.36,0,0,1-4.06.86c-.74,0-2.87.1-8.86.22"/><path class="cls-9" d="M710.63,440.73a14.54,14.54,0,0,0,1.43,1.59,7.7,7.7,0,0,0,3.77,1.91,9.41,9.41,0,0,0,2,.22,8.25,8.25,0,0,0,3.9-1c1.67-.88,2.52-3.16,2.52-6.77,0-.44,0-.92,0-1.45V435A35.36,35.36,0,0,0,722,420.33c-2.11-5.88-7.22-11.41-9.83-14a11.21,11.21,0,0,1-.78,3.06,11.73,11.73,0,0,1-2.29,3.8,69.75,69.75,0,0,1,2.78,14.44,37.63,37.63,0,0,1-1.28,13.06"/><path class="cls-9" d="M727.45,439.1c.8,1.07,3.26,4,6.64,4,5.6-.08,6.91-2.1,7.37-11.39.48-9.83-3.39-20.63-10.64-29.64-5.75-7.15-15-11.43-18.38-12.83a12.85,12.85,0,0,1-.9,4.9,12.33,12.33,0,0,1-2.76,3.56,10.43,10.43,0,0,1,1.37,1.21,8.34,8.34,0,0,1,1.62,2.78c1.11,1,3.78,3.44,6,5.92a40.72,40.72,0,0,1,8.51,15.13c2,6.34,1.33,14.48,1.13,16.38"/><path class="cls-9" d="M690.74,428.79c-1.37.07-4,.21-5.74.21s-6.37.09-14.15.27h-.77c-2,.05-6.61.77-7.22,6.54-.53,5,2.23,6.27,2.35,6.32,1.28.85,7,2.28,13.14,1.95a72.86,72.86,0,0,0,13.48-2.39,11.36,11.36,0,0,1-.86-4.06c-.05-1.18-.13-4.15-.22-8.81Z"/><path class="cls-9" d="M666.05,446a14.08,14.08,0,0,0-1.58,1.43,7.58,7.58,0,0,0-1.91,3.77,8.08,8.08,0,0,0,.82,5.86c.87,1.67,3.14,2.51,6.75,2.51.46,0,1,0,1.56.05.8,0,1.58.06,2.46.06a35.17,35.17,0,0,0,12.31-2.29c5.86-2.1,11.4-7.21,14-9.82a11,11,0,0,1-3.07-.78,11.83,11.83,0,0,1-3.79-2.29,69.83,69.83,0,0,1-14.45,2.78c-.94.07-1.91.11-2.88.11A36.4,36.4,0,0,1,666.05,446"/><path class="cls-9" d="M667.68,462.78c-.88.66-4,3.26-4,6.72.08,5.53,2.11,6.82,11.39,7.28.54,0,1.08,0,1.63,0,9.4,0,19.52-3.84,28-10.68,7.17-5.76,11.44-15,12.84-18.38a12.85,12.85,0,0,1-4.91-.91,12.41,12.41,0,0,1-3.56-2.75,10.4,10.4,0,0,1-1.2,1.37,8.56,8.56,0,0,1-2.78,1.62c-.81.9-3.33,3.68-5.93,6a40.54,40.54,0,0,1-15.13,8.5,35.75,35.75,0,0,1-10.83,1.43,55.41,55.41,0,0,1-5.55-.28"/><path class="cls-9" d="M669.77,398.11c-4,0-5,2.32-5.1,2.42-.69,1.05-2.29,6.57-1.95,13.14a72.35,72.35,0,0,0,2.4,13.47,11.41,11.41,0,0,1,4.06-.86c.85,0,3.09-.1,8.85-.22-.07-1.28-.21-4-.21-5.74s-.09-6.61-.27-14.42v-.51c0-2-.79-6.61-6.55-7.21a9.87,9.87,0,0,0-1.22-.07"/><path class="cls-9" d="M653.7,397.65a8.14,8.14,0,0,0-3.89,1c-1.67.88-2.52,3.16-2.52,6.76,0,.49,0,1,0,1.63a35.5,35.5,0,0,0,2.23,14.7c2.1,5.85,7.22,11.39,9.83,14a11.21,11.21,0,0,1,.78-3.06,12,12,0,0,1,2.28-3.79,70.22,70.22,0,0,1-2.78-14.45,37.84,37.84,0,0,1,1.29-13.06,14.74,14.74,0,0,0-1.44-1.58,7.42,7.42,0,0,0-3.76-1.91,8.84,8.84,0,0,0-2-.23"/><path class="cls-9" d="M637.32,399c-5.53.08-6.82,2.11-7.28,11.39-.48,9.83,3.39,20.64,10.63,29.64,5.75,7.15,15,11.44,18.39,12.83A12.82,12.82,0,0,1,660,448a12.44,12.44,0,0,1,2.75-3.56,9.28,9.28,0,0,1-1.37-1.21,8.64,8.64,0,0,1-1.62-2.78c-1.11-1-3.78-3.44-6-5.92a40.86,40.86,0,0,1-8.51-15.13c-2-6.33-1.34-14.47-1.13-16.38-.79-1.06-3.25-4-6.64-4Z"/><path class="cls-9" d="M821.12,382.12a24.94,24.94,0,0,1,9.37,1.68,21.64,21.64,0,0,1,7.15,4.61,20.15,20.15,0,0,1,4.55,6.77,21.69,21.69,0,0,1,1.57,8.29,23.3,23.3,0,0,1-2.87,11.81c-1.92,3.33-5,5.85-9.37,7.59v.21a13.26,13.26,0,0,1,5.2,2.66,14.84,14.84,0,0,1,3.36,4.22,19.75,19.75,0,0,1,1.89,5.37,47,47,0,0,1,.82,5.85c.07,1.23.14,2.67.21,4.33s.2,3.36.38,5.1a34,34,0,0,0,.87,4.93,11.13,11.13,0,0,0,1.79,3.95H829a29.69,29.69,0,0,1-1.74-8.78c-.22-3.39-.54-6.64-1-9.75q-.85-6.06-3.68-8.88t-9.21-2.82h-17v30.23h-17V382.12Zm-6.07,35c3.9,0,6.82-.86,8.77-2.6s2.93-4.55,2.93-8.45q0-5.62-2.93-8.18t-8.77-2.55H796.41v21.78Z"/><path class="cls-9" d="M894.3,382.12l28.93,77.37H905.57l-5.85-17.23H870.79l-6.07,17.23H847.6l29.25-77.37Zm1,47.46-9.75-28.38h-.21l-10.08,28.38Z"/><polygon class="cls-9" points="943.91 382.12 943.91 414.2 974.14 382.12 995.38 382.12 965.15 412.68 998.3 459.49 976.96 459.49 953.66 424.71 943.91 434.57 943.91 459.49 926.9 459.49 926.9 382.12 943.91 382.12"/><rect class="cls-10" x="779.67" y="475.63" width="3.94" height="17.93"/><path class="cls-10" d="M786.94,484.41a5.75,5.75,0,0,1,3.18-3.61,7.37,7.37,0,0,1,5.44,0,5.77,5.77,0,0,1,2,1.45,6,6,0,0,1,1.21,2.16,8.54,8.54,0,0,1,.4,2.67,8.38,8.38,0,0,1-.4,2.66,6,6,0,0,1-1.21,2.15,5.47,5.47,0,0,1-2,1.43,7.37,7.37,0,0,1-5.44,0,5.6,5.6,0,0,1-2-1.43,5.81,5.81,0,0,1-1.2-2.15,8.38,8.38,0,0,1-.4-2.66,8.54,8.54,0,0,1,.4-2.67m2.17,4.77a4.52,4.52,0,0,0,.86,1.53,3.65,3.65,0,0,0,1.3.94,3.78,3.78,0,0,0,1.57.33,3.85,3.85,0,0,0,1.57-.33,3.7,3.7,0,0,0,1.29-.94,4.38,4.38,0,0,0,.87-1.53,7.23,7.23,0,0,0,0-4.19,4.47,4.47,0,0,0-.87-1.55,3.61,3.61,0,0,0-1.29-.95,3.85,3.85,0,0,0-1.57-.33,3.78,3.78,0,0,0-1.57.33,3.56,3.56,0,0,0-1.3.95,4.62,4.62,0,0,0-.86,1.55,7,7,0,0,0,0,4.19"/><polygon class="cls-10" points="798.66 478.95 798.66 475.63 813.35 475.63 813.35 478.95 807.98 478.95 807.98 493.56 804.03 493.56 804.03 478.95 798.66 478.95"/><polygon class="cls-10" points="824.93 475.63 830.58 490.7 836.25 475.63 839.51 475.63 839.51 493.56 837.26 493.56 837.26 478.64 837.21 478.64 831.6 493.56 829.57 493.56 823.97 478.64 823.92 478.64 823.92 493.56 821.66 493.56 821.66 475.63 824.93 475.63"/><path class="cls-10" d="M854.71,493.51a3,3,0,0,1-1.53.33,1.89,1.89,0,0,1-1.32-.46,2.06,2.06,0,0,1-.49-1.53,5,5,0,0,1-2,1.53,7.14,7.14,0,0,1-4.2.26,3.92,3.92,0,0,1-1.37-.63,3,3,0,0,1-.91-1.12,3.71,3.71,0,0,1-.34-1.67,3.83,3.83,0,0,1,.37-1.81,3.25,3.25,0,0,1,1-1.14,4.9,4.9,0,0,1,1.4-.67c.53-.14,1.07-.27,1.62-.37s1.15-.2,1.67-.27a11.24,11.24,0,0,0,1.4-.24,2.42,2.42,0,0,0,.95-.48,1.19,1.19,0,0,0,.35-.92,2.1,2.1,0,0,0-.26-1.13,1.77,1.77,0,0,0-.68-.65,2.68,2.68,0,0,0-.93-.3,5.84,5.84,0,0,0-1-.08,4.41,4.41,0,0,0-2.25.52,2.14,2.14,0,0,0-1,1.94H843a4.57,4.57,0,0,1,.5-2,3.75,3.75,0,0,1,1.21-1.35,5,5,0,0,1,1.72-.74,9.13,9.13,0,0,1,2.07-.22,12.76,12.76,0,0,1,1.75.12,4.69,4.69,0,0,1,1.57.52A3.07,3.07,0,0,1,853,482a3.56,3.56,0,0,1,.42,1.84v6.66a4.82,4.82,0,0,0,.09,1.1c.06.24.26.35.59.35a2.45,2.45,0,0,0,.65-.1Zm-3.46-6.65a2.65,2.65,0,0,1-1.06.43,13.48,13.48,0,0,1-1.37.23l-1.44.2a5.58,5.58,0,0,0-1.31.36,2.39,2.39,0,0,0-.94.71,2,2,0,0,0-.36,1.27,1.71,1.71,0,0,0,.21.88,1.84,1.84,0,0,0,.55.59,2.28,2.28,0,0,0,.8.32,4.13,4.13,0,0,0,.95.1,5.18,5.18,0,0,0,1.81-.28,3.68,3.68,0,0,0,1.23-.73,2.88,2.88,0,0,0,.7-.94,2.48,2.48,0,0,0,.23-1Z"/><path class="cls-10" d="M866.25,493.56V491.8h0a3.17,3.17,0,0,1-1.66,1.56,6.28,6.28,0,0,1-2.49.48,6,6,0,0,1-2.62-.55,5.36,5.36,0,0,1-1.86-1.49,6.33,6.33,0,0,1-1.12-2.16,8.9,8.9,0,0,1-.37-2.61,9.25,9.25,0,0,1,.36-2.61,6,6,0,0,1,1.11-2.15,5.31,5.31,0,0,1,1.85-1.45,5.92,5.92,0,0,1,2.6-.54,6,6,0,0,1,1.08.1,5.09,5.09,0,0,1,1.16.34,4.93,4.93,0,0,1,1.09.62,3.69,3.69,0,0,1,.87,1h0v-6.68h2.13v17.93ZM858.58,489a4.79,4.79,0,0,0,.72,1.55,3.66,3.66,0,0,0,1.26,1.08,3.79,3.79,0,0,0,1.8.4,3.64,3.64,0,0,0,1.83-.43,3.57,3.57,0,0,0,1.23-1.12,4.79,4.79,0,0,0,.69-1.56,7.68,7.68,0,0,0,.21-1.79,7.48,7.48,0,0,0-.22-1.84,4.44,4.44,0,0,0-.72-1.57,3.77,3.77,0,0,0-1.27-1.1,4,4,0,0,0-1.88-.41,3.66,3.66,0,0,0-1.84.43,3.34,3.34,0,0,0-1.2,1.13,4.85,4.85,0,0,0-.65,1.6,8.31,8.31,0,0,0-.21,1.87,6.51,6.51,0,0,0,.25,1.76"/><path class="cls-10" d="M880.94,492.73a5.87,5.87,0,0,1-3.67,1.11,6.73,6.73,0,0,1-2.69-.5,5.27,5.27,0,0,1-1.92-1.41,5.93,5.93,0,0,1-1.17-2.16,9.89,9.89,0,0,1-.44-2.74,7.82,7.82,0,0,1,.45-2.71,6.47,6.47,0,0,1,1.27-2.14,5.7,5.7,0,0,1,1.93-1.4,5.8,5.8,0,0,1,2.45-.5A5.42,5.42,0,0,1,880,481a5.78,5.78,0,0,1,1.83,1.82,7.11,7.11,0,0,1,.95,2.41,9.86,9.86,0,0,1,.21,2.49h-9.71a5.08,5.08,0,0,0,.2,1.62,3.55,3.55,0,0,0,2,2.3,4.49,4.49,0,0,0,1.83.35,3.67,3.67,0,0,0,2.22-.63,3,3,0,0,0,1.14-1.9h2.12a5.2,5.2,0,0,1-1.89,3.28m-.51-8.33a3.58,3.58,0,0,0-.78-1.17,3.66,3.66,0,0,0-1.15-.78,3.95,3.95,0,0,0-3,0,3.54,3.54,0,0,0-1.89,2,4.16,4.16,0,0,0-.33,1.42h7.46a4.54,4.54,0,0,0-.34-1.43"/><polygon class="cls-10" points="903.95 475.63 903.95 477.64 893.95 477.64 893.95 483.34 903.27 483.34 903.27 485.35 893.95 485.35 893.95 491.55 904.02 491.55 904.02 493.56 891.57 493.56 891.57 475.63 903.95 475.63"/><path class="cls-10" d="M918.18,493.51a3,3,0,0,1-1.53.33,1.89,1.89,0,0,1-1.32-.46,2.06,2.06,0,0,1-.49-1.53,5,5,0,0,1-2,1.53,7.14,7.14,0,0,1-4.2.26,3.84,3.84,0,0,1-1.37-.63,3.08,3.08,0,0,1-.92-1.12,4.5,4.5,0,0,1,0-3.48,3.25,3.25,0,0,1,1-1.14,4.78,4.78,0,0,1,1.4-.67c.53-.14,1.07-.27,1.62-.37s1.15-.2,1.67-.27a11.24,11.24,0,0,0,1.4-.24,2.42,2.42,0,0,0,.95-.48,1.19,1.19,0,0,0,.35-.92,2.2,2.2,0,0,0-.26-1.13,1.84,1.84,0,0,0-.68-.65,2.68,2.68,0,0,0-.93-.3,5.84,5.84,0,0,0-1-.08,4.47,4.47,0,0,0-2.26.52,2.15,2.15,0,0,0-1,1.94h-2.14a4.57,4.57,0,0,1,.5-2,3.75,3.75,0,0,1,1.21-1.35,5,5,0,0,1,1.72-.74,9.13,9.13,0,0,1,2.07-.22,12.87,12.87,0,0,1,1.75.12,4.76,4.76,0,0,1,1.57.52,3.07,3.07,0,0,1,1.13,1.08,3.56,3.56,0,0,1,.42,1.84v6.66a4.82,4.82,0,0,0,.09,1.1c.06.24.26.35.59.35a2.45,2.45,0,0,0,.65-.1Zm-3.46-6.65a2.65,2.65,0,0,1-1.06.43,13.48,13.48,0,0,1-1.37.23l-1.44.2a5.58,5.58,0,0,0-1.31.36,2.39,2.39,0,0,0-.94.71,2,2,0,0,0-.36,1.27,1.71,1.71,0,0,0,.21.88,1.73,1.73,0,0,0,.55.59,2.2,2.2,0,0,0,.8.32,4.07,4.07,0,0,0,1,.1,5.18,5.18,0,0,0,1.81-.28,3.68,3.68,0,0,0,1.23-.73,2.88,2.88,0,0,0,.7-.94,2.48,2.48,0,0,0,.23-1Z"/><path class="cls-10" d="M922,490.66a2.19,2.19,0,0,0,.79.78,3.44,3.44,0,0,0,1.1.41,5.88,5.88,0,0,0,1.27.13,10.09,10.09,0,0,0,1.06-.07,4.54,4.54,0,0,0,1-.28A1.9,1.9,0,0,0,928,491a1.58,1.58,0,0,0,.3-1,1.41,1.41,0,0,0-.63-1.26,5.51,5.51,0,0,0-1.56-.69c-.63-.18-1.32-.33-2.05-.48a10.43,10.43,0,0,1-2-.6,4.22,4.22,0,0,1-1.57-1.09,2.85,2.85,0,0,1-.63-2,3.11,3.11,0,0,1,.44-1.68,3.76,3.76,0,0,1,1.13-1.15,5.19,5.19,0,0,1,1.56-.65,7.23,7.23,0,0,1,1.72-.21,10.65,10.65,0,0,1,2,.18,4.84,4.84,0,0,1,1.65.66,3.4,3.4,0,0,1,1.14,1.26,4.79,4.79,0,0,1,.5,2h-2.13a2,2,0,0,0-1-1.71,3.35,3.35,0,0,0-.94-.37,5.39,5.39,0,0,0-2,0,3.31,3.31,0,0,0-.89.26,1.75,1.75,0,0,0-.66.5,1.31,1.31,0,0,0-.25.82,1.18,1.18,0,0,0,.39.91,3,3,0,0,0,1,.61,8.79,8.79,0,0,0,1.36.4l1.51.34a15.52,15.52,0,0,1,1.56.42,4.93,4.93,0,0,1,1.36.67,3.15,3.15,0,0,1,1,1,3,3,0,0,1,.37,1.56,3.59,3.59,0,0,1-.49,2,4,4,0,0,1-1.28,1.26,5.42,5.42,0,0,1-1.78.66,11.13,11.13,0,0,1-2,.19,9.16,9.16,0,0,1-2.06-.23,4.87,4.87,0,0,1-1.74-.74,3.73,3.73,0,0,1-1.2-1.35,4.73,4.73,0,0,1-.5-2h2.13a2.44,2.44,0,0,0,.33,1.19"/><path class="cls-10" d="M937.84,495.29a13.24,13.24,0,0,1-.74,1.61,4.39,4.39,0,0,1-.8,1.07,2.61,2.61,0,0,1-1,.6,3.59,3.59,0,0,1-1.24.19,6.3,6.3,0,0,1-.75-.05,3.53,3.53,0,0,1-.73-.17v-2a4.37,4.37,0,0,0,.64.21,2.71,2.71,0,0,0,.61.09,1.84,1.84,0,0,0,1.1-.32,1.9,1.9,0,0,0,.66-.89l.88-2.18-5.14-12.91h2.41l3.79,10.62h.05l3.64-10.62h2.26Z"/><path class="cls-10" d="M1021.45,392.25a10.4,10.4,0,1,1-10.37-10.12,10.18,10.18,0,0,1,10.37,10.12m-18.21,0a7.84,7.84,0,0,0,7.9,8.08,7.76,7.76,0,0,0,7.72-8,7.82,7.82,0,1,0-15.62-.06m6.24,5.3h-2.35V387.43a20.86,20.86,0,0,1,3.89-.31,6.3,6.3,0,0,1,3.51.74,2.82,2.82,0,0,1,1,2.23,2.58,2.58,0,0,1-2.1,2.34v.12a3,3,0,0,1,1.86,2.47,7.37,7.37,0,0,0,.74,2.53h-2.53a8.54,8.54,0,0,1-.81-2.47c-.18-1.11-.8-1.6-2.09-1.6h-1.11Zm.06-5.74h1.11c1.29,0,2.34-.43,2.34-1.48s-.68-1.54-2.16-1.54a5.71,5.71,0,0,0-1.29.12Z"/><path class="cls-11" d="M340.62,646.09h24.24v4.13H345.53V662h17v4.13h-17V683h-4.91Z"/><path class="cls-11" d="M396.22,657.2c-1.08-5.22-5.17-7.86-10.33-7.86-8.79,0-12.51,7.24-12.51,14.93,0,8.42,3.72,15.45,12.56,15.45,6.41,0,10.23-4.55,10.64-10.64h4.91c-1,9.25-6.61,14.77-16,14.77-11.42,0-17-8.47-17-19.21s6.09-19.43,17.46-19.43c7.7,0,14.1,4.13,15.19,12Z"/><path class="cls-11" d="M433.53,657.2c-1.09-5.22-5.17-7.86-10.34-7.86-8.78,0-12.5,7.24-12.5,14.93,0,8.42,3.72,15.45,12.56,15.45,6.4,0,10.23-4.55,10.64-10.64h4.91c-1,9.25-6.62,14.77-16,14.77-11.42,0-17.05-8.47-17.05-19.21s6.1-19.43,17.47-19.43c7.69,0,14.1,4.13,15.18,12Z"/><path class="cls-11" d="M459.47,646.09h4.91V683h-4.91Z"/><path class="cls-11" d="M472.64,646.09H485.3c11.37,0,17.72,5.73,17.72,17.56C503,676,497.6,683,485.3,683H472.64Zm4.91,32.75h8.17c3.35,0,12.4-.93,12.4-14.51,0-8.79-3.26-14.11-12.3-14.11h-8.27Z"/><path class="cls-11" d="M521.63,659.31c-.41-7.44,4-13,11.78-13,6.35,0,11.47,3.71,11.47,10.54,0,6.45-4.34,9.66-8.89,12.55-4.54,2.74-9.45,5.17-10.28,9.66h18.81V683H520.6c.67-8.63,5.11-11.89,10.28-15,6.2-3.87,9.35-6,9.35-11.16,0-4-3.2-6.61-7.08-6.61-5.11,0-7.28,4.7-7.13,9.09Z"/><path class="cls-11" d="M562.14,646.09h5.42L582,683h-5.43l-4-11.11h-15.6L552.79,683h-5.07Zm-3.67,21.64H571l-6.14-17.2h-.11Z"/><path class="cls-11" d="M585.6,646.09h24.23v4.13H590.51V662h16.94v4.13H590.51V683H585.6Z"/><path class="cls-11" d="M632.62,655.7a5.84,5.84,0,0,0-6.15-5.48c-7.44,0-8.73,8.27-8.89,13.9l.11.1c2.06-3.36,5.16-4.8,9.14-4.8,7,0,11.21,5.11,11.21,11.88,0,5.37-3,12.3-12.24,12.3-10.9,0-12.61-10-12.61-17.62,0-10.08,3-19.63,13.49-19.63,6,0,9.76,3.35,10.33,9.35Zm-14.21,15.86c0,4.54,2.79,8.16,7.6,8.16s7.38-3.77,7.38-8.11c0-4.55-2.37-8.32-7.38-8.32S618.41,667,618.41,671.56Z"/><path class="cls-11" d="M644,646.09h13.38c3.2,0,7.59,0,9.76,1.34a8.69,8.69,0,0,1,4.34,7.7,8.43,8.43,0,0,1-5.47,8.26v.11c4.54,1,7,4.34,7,8.88,0,5.38-3.92,10.6-11.21,10.6H644ZM648.9,662h9.81c5.58,0,7.86-2,7.86-5.89,0-5.17-3.57-5.84-7.86-5.84H648.9Zm0,16.89h12.29c4.29,0,6.93-2.53,6.93-6.61,0-4.81-3.88-6.15-8-6.15H648.9Z"/><path class="cls-11" d="M677.94,666.55h14.93v4.13H677.94Z"/><path class="cls-11" d="M699.48,646.09h17.36c7,0,11.21,3.72,11.21,9.66,0,4.49-1.91,8.11-6.4,9.35v.1c4.29.83,5.11,4,5.53,7.6.25,3.56.1,7.7,2.17,10.18h-5.48c-1.4-1.5-.62-5.48-1.34-9.1-.57-3.56-1.4-6.66-6.15-6.66h-12V683h-4.91Zm15.14,17c4.55,0,8.53-1.18,8.53-6.56,0-3.67-2-6.3-6.57-6.3H704.39v12.86Z"/><path class="cls-11" d="M744.9,646.09h5.43L764.74,683h-5.42l-4-11.11H739.68L735.55,683h-5.06Zm-3.67,21.64h12.51l-6.15-17.2h-.1Z"/><path class="cls-11" d="M768.36,646.09h4.91v18.39L792,646.09h6.36L782.78,661,799,683h-6.2l-13.33-18.65-6.15,5.73V683h-4.91Z"/><path class="cls-11" d="M820.44,670.52h5v3.88h-5V683h-4.13V674.4H800.24v-4.24l16.69-23.81h3.51Zm-4.13,0V652.6h-.1L804,670.52Z"/><path class="cls-11" d="M829.8,659.31c-.41-7.44,4-13,11.78-13,6.35,0,11.47,3.71,11.47,10.54,0,6.45-4.34,9.66-8.89,12.55-4.54,2.74-9.45,5.17-10.28,9.66h18.81V683H828.77c.67-8.63,5.11-11.89,10.28-15,6.2-3.87,9.35-6,9.35-11.16,0-4-3.2-6.61-7.08-6.61-5.11,0-7.28,4.7-7.13,9.09Z"/><path class="cls-11" d="M882.55,650.74c-7.38,7.28-13.38,20.82-14,32.24h-4.91c.83-12.4,6.77-23.77,14.47-31.88H858.84V647h23.71Z"/><path class="cls-11" d="M899.35,646.35c11.47,0,12.19,10.59,12.19,18.65s-.72,18.6-12.19,18.6-12.19-10.54-12.19-18.6S887.88,646.35,899.35,646.35Zm0,33.37c7.49,0,7.54-9.3,7.54-14.78s0-14.72-7.54-14.72-7.54,9.3-7.54,14.72S891.86,679.72,899.35,679.72Z"/><path class="cls-11" d="M917.75,646.09h4.9V662h19.43V646.09H947V683h-4.91v-16.9H922.65V683h-4.9Z"/><path class="cls-11" d="M340.75,723.22h17.89c7.19,0,11.56,3.83,11.56,9.95,0,4.64-2,8.36-6.6,9.64v.11c4.41.85,5.27,4.15,5.69,7.83.27,3.67.11,7.93,2.24,10.49h-5.65c-1.43-1.55-.63-5.65-1.38-9.37-.59-3.68-1.44-6.87-6.34-6.87H345.81v16.24h-5.06Zm15.6,17.52c4.69,0,8.79-1.23,8.79-6.77,0-3.78-2-6.49-6.76-6.49H345.81v13.26Z"/><path class="cls-11" d="M387.56,723.22h5.59l14.86,38h-5.59l-4.16-11.45H382.18l-4.26,11.45H372.7Zm-3.78,22.31h12.89l-6.34-17.73h-.11Z"/><path class="cls-11" d="M411.74,723.22h5.06v18.95l19.27-18.95h6.55l-16,15.33,16.67,22.69h-6.39L423.13,742l-6.33,5.91v13.32h-5.06Z"/><path class="cls-11" d="M465.42,748.4h5.11v4h-5.11v8.84h-4.26V752.4H444.59V748l17.2-24.55h3.63Zm-4.26,0V729.93h-.11L448.48,748.4Z"/><path class="cls-11" d="M475.06,736.85c-.43-7.67,4.15-13.37,12.14-13.37,6.55,0,11.82,3.84,11.82,10.87,0,6.65-4.47,9.95-9.16,12.94-4.69,2.82-9.75,5.32-10.6,10h19.39v4H474c.69-8.89,5.27-12.25,10.6-15.45,6.39-4,9.64-6.23,9.64-11.5,0-4.1-3.31-6.81-7.3-6.81-5.27,0-7.51,4.84-7.35,9.37Z"/><path class="cls-11" d="M529.43,728c-7.62,7.51-13.8,21.46-14.49,33.23h-5.06c.86-12.78,7-24.5,14.91-32.86H505v-4.26h24.45Z"/><path class="cls-11" d="M546.73,723.48c11.83,0,12.57,10.92,12.57,19.23s-.74,19.17-12.57,19.17S534.17,751,534.17,742.71,534.91,723.48,546.73,723.48Zm0,34.4c7.73,0,7.78-9.58,7.78-15.23s0-15.17-7.78-15.17S539,737.06,539,742.65,539,757.88,546.73,757.88Z"/><path class="cls-11" d="M572.4,771.78c-5.11-7.93-8.36-15.6-8.36-24.92a41.57,41.57,0,0,1,8.36-24.55h3.46a43.64,43.64,0,0,0-7,24.55,44.94,44.94,0,0,0,7,24.92Z"/><path class="cls-11" d="M579.49,723.22h5v16.34h20V723.22h5.06v38h-5.06V743.82h-20v17.42h-5Z"/><path class="cls-11" d="M613.25,771.78a43.65,43.65,0,0,0,7-24.55,44.89,44.89,0,0,0-7-24.92h3.46c5.11,7.93,8.36,15.6,8.36,24.92a41.54,41.54,0,0,1-8.36,24.55Z"/><path class="cls-11" d="M340.75,860.32H367v4.26H345.81v12.09h19.75v4.26H345.81v13.15h21.35v4.26H340.75Z"/><path class="cls-11" d="M409,884.61c0,9.63-5.44,14.64-15,14.64-9.8,0-15.6-4.53-15.6-14.64V860.32h5.06v24.29c0,6.76,3.78,10.38,10.54,10.38,6.45,0,9.91-3.62,9.91-10.38V860.32H409Z"/><path class="cls-11" d="M422.6,860.32h5.06v38H422.6Z"/><path class="cls-11" d="M479.53,870.23a6,6,0,0,0-6.34-5.65c-7.67,0-9,8.52-9.16,14.33l.11.1c2.13-3.46,5.32-5,9.42-5,7.25,0,11.56,5.27,11.56,12.25,0,5.54-3.09,12.67-12.62,12.67-11.24,0-13-10.27-13-18.16,0-10.38,3.15-20.23,13.9-20.23,6.23,0,10.07,3.46,10.65,9.64Zm-14.65,16.35c0,4.68,2.88,8.41,7.83,8.41s7.62-3.89,7.62-8.36c0-4.69-2.45-8.57-7.62-8.57S464.88,881.84,464.88,886.58Z"/><path class="cls-11" d="M507.22,860.59c11.82,0,12.57,10.91,12.57,19.22S519,899,507.22,899s-12.57-10.86-12.57-19.17S495.4,860.59,507.22,860.59Zm0,34.4c7.72,0,7.77-9.59,7.77-15.23s0-15.18-7.77-15.18-7.78,9.59-7.78,15.18S499.5,895,507.22,895Z"/><path class="cls-11" d="M549.45,879.65c-.69-3.46-3-5.48-6.82-5.48-6.55,0-8.57,5.22-8.57,10.75,0,5.12,2.29,10.07,8,10.07,4.42,0,7-2.5,7.56-6.71h4.64c-1,6.76-5.17,10.7-12.15,10.7-8.41,0-12.88-5.8-12.88-14.06s4.26-14.75,13-14.75c6.28,0,11.18,2.93,11.88,9.48Z"/><path class="cls-11" d="M586.3,865.22H571.07l-2,10.86.1.11a9.57,9.57,0,0,1,7-2.71c6.71,0,12.2,4.26,12.2,12.94,0,6.39-4.42,12.56-13.21,12.56-6.55,0-11.87-4-12-10.81h4.52c.27,3.89,3.41,6.82,7.94,6.82,4.31,0,8-3,8-9a8.18,8.18,0,0,0-8.53-8.57,9,9,0,0,0-7,3.57l-3.88-.22,3.51-19.59H586.3Z"/><path class="cls-11" d="M624,898.24a6.38,6.38,0,0,1-3.25.74c-2.35,0-3.84-1.27-3.84-4.26a12,12,0,0,1-9.69,4.26c-5,0-9.11-2.18-9.11-7.72,0-6.23,4.64-7.61,9.32-8.47,5-1,9.27-.58,9.27-4,0-4-3.3-4.58-6.12-4.58-3.84,0-6.66,1.17-6.87,5.22h-4.53c.27-6.82,5.48-9.22,11.66-9.22,4.95,0,10.33,1.12,10.33,7.57V891.9c0,2.13,0,3.09,1.44,3.09a4.55,4.55,0,0,0,1.39-.27Zm-7.35-14.11c-3.52,2.61-13.74,0-13.74,6.81,0,3,2.55,4,5.32,4,6,0,8.42-3.67,8.42-6.23Z"/><path class="cls-11" d="M644.67,860.59c8.25,0,11.45,4.79,11.45,9.64a8.66,8.66,0,0,1-5.22,7.83c4.52,1.43,6.71,4.73,6.71,9.42,0,7.3-5.54,11.5-12.52,11.5-7.24,0-12.83-3.83-12.83-11.5a9.46,9.46,0,0,1,6.6-9.42,8.46,8.46,0,0,1-5.27-7.83C633.59,864.05,638.86,860.59,644.67,860.59Zm.42,34.4c4.53,0,7.72-3.14,7.72-7.35,0-4-3.51-7.19-7.77-7.19-4.47,0-8,2.82-8,7.24S640.41,895,645.09,895Zm0-18.53c3.62,0,6.23-2.24,6.23-6.07s-2.66-5.81-6.33-5.81-6.61,2-6.61,5.81C638.38,874.49,641.42,876.46,645.09,876.46Z"/><path class="cls-11" d="M341.87,952.93h-4.64v-4h4.64v-4.1c0-4.47,2.66-6.82,7.61-6.82a11,11,0,0,1,2.93.43v3.94a8.39,8.39,0,0,0-2.56-.37c-2.18,0-3.46.69-3.46,3.09v3.83h5.33v4h-5.33v23.54h-4.52Z"/><path class="cls-11" d="M361.89,952.93h-4.63v-4h4.63v-4.1c0-4.47,2.66-6.82,7.62-6.82a10.92,10.92,0,0,1,2.92.43v3.94a8.29,8.29,0,0,0-2.55-.37c-2.19,0-3.46.69-3.46,3.09v3.83h5.32v4h-5.32v23.54h-4.53Z"/><path class="cls-11" d="M381.91,952.93h-4.63v-4h4.63v-4.1c0-4.47,2.67-6.82,7.62-6.82a11.05,11.05,0,0,1,2.93.43v3.94a8.39,8.39,0,0,0-2.56-.37c-2.18,0-3.46.69-3.46,3.09v3.83h5.32v4h-5.32v23.54h-4.53Z"/><path class="cls-11" d="M423.56,967.74c-1.23,6.12-5.54,9.37-11.77,9.37-8.79,0-12.94-6.12-13.21-14.48,0-8.31,5.43-14.33,12.94-14.33,9.75,0,12.73,9.11,12.46,15.76H403.37c-.16,4.8,2.56,9.06,8.58,9.06,3.78,0,6.33-1.76,7.13-5.38Zm-4.37-7.67a7.92,7.92,0,0,0-7.93-7.77c-4.69,0-7.62,3.51-7.89,7.77Z"/><path class="cls-11" d="M456.63,943.24c-7.62,7.51-13.79,21.46-14.49,33.23h-5.06c.85-12.78,7-24.49,14.91-32.85H432.18v-4.27h24.45Z"/><path class="cls-11" d="M485.44,948.35a6,6,0,0,0-6.34-5.64c-7.67,0-9,8.52-9.16,14.32l.11.11c2.13-3.46,5.32-4.95,9.42-4.95,7.25,0,11.56,5.27,11.56,12.25,0,5.54-3.09,12.67-12.62,12.67-11.24,0-13-10.28-13-18.16,0-10.38,3.15-20.23,13.9-20.23,6.23,0,10.07,3.46,10.65,9.63ZM470.79,964.7c0,4.69,2.88,8.42,7.83,8.42s7.62-3.89,7.62-8.36c0-4.69-2.45-8.58-7.62-8.58S470.79,960,470.79,964.7Z"/><path class="cls-11" d="M502.53,952.93H497.9v-4h4.63v-4.1c0-4.47,2.66-6.82,7.62-6.82a11.05,11.05,0,0,1,2.93.43v3.94a8.39,8.39,0,0,0-2.56-.37c-2.18,0-3.46.69-3.46,3.09v3.83h5.32v4h-5.32v23.54h-4.53Z"/><path class="cls-11" d="M545.29,976.47h-4.52v-3.73h-.11c-1.49,3-4.95,4.37-8.79,4.37-8.46,0-12.67-6.71-12.67-14.48s4.15-14.33,12.57-14.33c2.77,0,6.92,1.07,8.89,4.32h.11V938.45h4.52Zm-12.78-3.35c6.13,0,8.42-5.27,8.42-10.39,0-5.38-2.45-10.43-8.68-10.43S524,957.57,524,963C524,968.11,526.66,973.12,532.51,973.12Z"/><path class="cls-11" d="M556.69,938.45h4.53v14.22h.1c1.49-3,5-4.37,8.79-4.37,8.47,0,12.67,6.71,12.67,14.49s-4.15,14.32-12.56,14.32c-2.77,0-6.93-1.06-8.9-4.31h-.1v3.67h-4.53Zm12.78,13.85c-6.12,0-8.41,5.27-8.41,10.38,0,5.38,2.45,10.44,8.68,10.44s8.25-5.27,8.25-10.65C578,957.3,575.33,952.3,569.47,952.3Z"/><path class="cls-11" d="M591.31,952.08c-.43-7.67,4.15-13.36,12.14-13.36,6.55,0,11.82,3.83,11.82,10.86,0,6.66-4.47,10-9.16,12.94-4.69,2.82-9.75,5.33-10.6,10H614.9v4H590.24c.69-8.89,5.27-12.25,10.6-15.44,6.39-4,9.64-6.23,9.64-11.5,0-4.1-3.3-6.82-7.3-6.82-5.27,0-7.51,4.85-7.35,9.37Z"/><path class="cls-12" d="M915.31,554.63c.38-4.07.76-8.18,1.15-12.27H920v-5.24h-1.44l9.94-10.37-.82-.79-9.06,9.46-1.63,1.7-.07.08v-.08c.06-.57.11-1.13.16-1.7h1.54v-.84a2,2,0,1,0-2.31-3.08,10.75,10.75,0,0,0-2.39-1.32,24.32,24.32,0,0,0-5-1.19v-1.13h-7.55v.91a31.34,31.34,0,0,0-4,.54v-.64h-3.29v1.57a10.33,10.33,0,0,0-3,2,.69.69,0,0,0-.2.56c0,.16,0,.32,0,.49h-1.85v2.17h2.06c.12,1.2.23,2.39.34,3.6L878.71,525.7l-.83.79,13.76,14.36c.43,4.59.86,9.2,1.29,13.78q.32,3.47.64,7L878.73,577.1l.83.78,14.14-14.77.75,8.18a.7.7,0,0,0,.7.64v3.5H898v-3.5h9.85a4.89,4.89,0,1,0,6.42-6.26l.09-1.06,12.47,13,.83-.79-13.16-13.73q.39-4.27.78-8.48M918,531.81a.89.89,0,0,1,.89.89.87.87,0,0,1-.19.55h-1.33c0-.17,0-.33,0-.49a.65.65,0,0,0-.18-.53.88.88,0,0,1,.76-.42M916.77,539l.68-.71h1.3v2.84h-2.18c.07-.71.13-1.42.2-2.13m-14.06-10h5v1h-5Zm-5.31,1.69a28.12,28.12,0,0,1,4-.56v1.1H909v-.87a22.17,22.17,0,0,1,4.5,1.08,9.41,9.41,0,0,1,2.46,1.47c0,.09,0,.19,0,.28H897.4Zm-2-.88h.71v2.18h-.71Zm-3.1,3.1a9.9,9.9,0,0,1,1.81-1.18v1.46h-1.78l0-.28m.24,2.45H915.7c-.05.57-.11,1.13-.16,1.7H915v2.15l-3.88,4.05V543h-10v3.43h7l-4.8,5L893,540.66c-.16-1.76-.33-3.5-.49-5.24m17.25,8.76v.49l-.51.53h-6.91v-1ZM894.33,554.5c-.37-4-.75-8-1.13-12l9.34,9.76-7.68,8c-.18-1.93-.35-3.85-.53-5.76m2.57,20h-.62v-1.71h.62Zm10.66-4.29c0,.11,0,.21,0,.32H895.79q-.39-4.38-.8-8.75l8.34-8.71,9.77,10.2c-.06.69-.12,1.38-.19,2.07l-.46,0a4.89,4.89,0,0,0-4.89,4.89m7.44,0a2.55,2.55,0,0,1-2.55,2.55,2.51,2.51,0,0,1-1.87-.82,2.57,2.57,0,0,1-.66-1.41c0-.1,0-.21,0-.32a2.55,2.55,0,0,1,2.55-2.55l.25,0a2.53,2.53,0,0,1,2.3,2.53m-1.09-15.7c-.22,2.4-.45,4.82-.67,7.26l-9.12-9.52,5.59-5.84h1.37V545l3.88-4.05v1.44H915c-.38,4-.76,8.11-1.13,12.14"/><path class="cls-12" d="M912.62,568.55h-.17a1.67,1.67,0,1,0,1.35,2.64,1.64,1.64,0,0,0,.32-1,1.76,1.76,0,0,0-.16-.72,1.68,1.68,0,0,0-1.34-.93m-.17,2a.34.34,0,0,1-.22-.07.39.39,0,0,1-.16-.32.38.38,0,0,1,.38-.38h.06a.39.39,0,0,1-.06.77"/><rect class="cls-12" x="880.78" y="588.73" width="44.92" height="10.97"/><path class="cls-11" d="M773.67,562A21.31,21.31,0,0,0,795,583.32a22.41,22.41,0,0,0,3.31-.25v9.2a29.91,29.91,0,0,1-3.31.18,30.44,30.44,0,1,1,0-60.87,29.91,29.91,0,0,1,3.31.18V541a21.35,21.35,0,0,0-24.61,21"/><path class="cls-11" d="M826,557.45h17.58v9.19H826.05a21.31,21.31,0,0,0,20.8,16.68,21.93,21.93,0,0,0,3.56-.29v9.22a30,30,0,0,1-3.56.2,30.44,30.44,0,1,1,0-60.87,32.26,32.26,0,0,1,3.56.2V541a21.93,21.93,0,0,0-3.56-.29A21.32,21.32,0,0,0,826,557.45"/><path class="cls-11" d="M788.8,713.7h-78v78h78Zm-7,71h-64v-64h64Z"/><rect class="cls-11" x="733.8" y="736.7" width="32" height="32"/><path class="cls-11" d="M710.8,1004.7h78v-78h-78Zm7-71h64v64h-64Z"/><rect class="cls-11" x="733.8" y="949.7" width="32" height="32"/><path class="cls-11" d="M1005.8,713.7h-78v78h78Zm-7,71h-64v-64h64Z"/><rect class="cls-11" x="950.8" y="736.7" width="32" height="32"/><rect class="cls-11" x="829.8" y="716" width="10" height="10"/><polygon class="cls-11" points="815.8 736.7 817.8 736.7 817.8 749.7 827.8 749.7 827.8 726.7 819.41 726.7 817.8 726.7 815.8 726.7 815.8 716 805.8 716 805.8 736.7 809.41 736.7 815.8 736.7"/><rect class="cls-11" x="829.8" y="749.7" width="10" height="10"/><polygon class="cls-11" points="854.29 759.7 864.29 759.7 864.29 749.7 900.8 749.7 900.8 739.19 900.8 726 911.9 726 911.9 716 890.8 716 890.8 726 877.78 726 877.78 739.19 864.29 739.19 864.29 726.7 841.8 726.7 841.8 749.7 854.29 749.7 854.29 759.7"/><rect class="cls-11" x="805.8" y="749.7" width="10" height="10"/><rect class="cls-11" x="864.29" y="761.7" width="10" height="10"/><polygon class="cls-11" points="887.2 808.38 899.01 808.38 899.01 797.82 887.2 797.82 887.2 795.92 887.2 773.49 877.2 773.49 877.2 795.92 863.88 795.92 863.88 773.49 853.88 773.49 853.88 795.92 853.88 808.38 829.8 808.38 829.8 818.38 853.88 818.38 887.2 818.38 887.2 808.38"/><rect class="cls-11" x="841.8" y="761.7" width="10" height="10"/><polygon class="cls-11" points="819.41 761.7 819.41 784.13 829.41 784.13 829.41 795.92 839.8 795.92 839.8 773.49 829.41 773.49 829.41 761.7 819.41 761.7"/><polygon class="cls-11" points="829.41 797.82 815.8 797.82 815.8 785.88 805.8 785.88 805.8 797.82 805.52 797.82 805.52 807.13 829.41 807.13 829.41 797.82"/><rect class="cls-11" x="901.31" y="773.49" width="9.19" height="22.43"/><rect class="cls-11" x="924.67" y="809.53" width="9.36" height="9.36"/><rect class="cls-11" x="983.9" y="809.53" width="21.89" height="9.36"/><polygon class="cls-11" points="982.46 866.09 982.46 832.43 971.44 832.43 971.44 809.53 960.41 809.53 960.41 843.19 971.44 843.19 971.44 866.09 982.46 866.09"/><rect class="cls-11" x="995.58" y="856.07" width="10.29" height="23.13"/><rect class="cls-11" x="851.7" y="831.24" width="11.38" height="10.82"/><rect class="cls-11" x="840.16" y="901.86" width="10.31" height="9.8"/><rect class="cls-11" x="923.07" y="926.69" width="10.31" height="9.8"/><rect class="cls-11" x="982.4" y="938.63" width="10.31" height="9.8"/><polygon class="cls-11" points="995.59 915.36 981.72 915.36 981.72 903.55 971.44 903.55 971.44 924.92 974.39 924.92 974.39 925.17 995.59 925.17 995.59 935.6 1005.87 935.6 1005.87 915.36 1000.73 915.36 995.59 915.36"/><rect class="cls-11" x="911.62" y="986.16" width="8.74" height="8.31"/><rect class="cls-11" x="876.22" y="997.7" width="8.74" height="8.31"/><rect class="cls-11" x="851.92" y="997.49" width="8.31" height="8.74"/><rect class="cls-11" x="828.35" y="997.49" width="8.31" height="8.74"/><rect class="cls-11" x="804.42" y="997.49" width="8.31" height="8.74"/><path class="cls-11" d="M980.24,983.59H956.57V970.5H982v13.09h11.16V970.5H1004V961H968.88v-8.4H956.57v-49h-10.2V890.8h35.35V879.19H967.19V868.51h-8.64V856.07H948.27v12.44H934.49V856.07H924.21v23.12H937v24.37H922.27V879.29H910.9v-12.1H900.43V855.11h22.06V843.68H887.2V831.24H875.82v12.44H865.3v11.43h23.75v24.08h10.47V890.8H888.21v11h11.31v36.52H888.9v10.45h10.62v11.69H874.36V949.38H862.71V924.76h11.65V914.31h-22v13.31H816v-16h11.07v-9.8H804.64V890.34H793.26v11.52H780.93v9.8h23.71v34.21H816V935.58H852.4V949.7H840.16v9.81H852.4v14.28H840.16v9.8h34.2V970.26h14.16v13.33H897V970.26h10.72V961h15.34v22.61h11.19v23.86h10.58v-13h14.1v13H1005v-13H980.24Zm-31.88-9.42h-15V961h15Zm0-21.59H907.73V911h40.63Z"/><polygon class="cls-11" points="770.88 809.01 770.88 819.83 793.48 819.83 793.48 828.47 793.48 830.65 793.48 831.24 780.54 831.24 780.54 831.19 770.88 831.19 770.88 831.24 770.88 842.05 770.88 852.82 780.54 852.82 780.54 842.05 804.64 842.05 804.64 852.82 816.02 852.82 816.02 830.65 827.17 830.65 827.17 819.83 804.41 819.83 804.41 809.01 770.88 809.01"/><polygon class="cls-11" points="754.67 827.7 754.67 809.01 733.03 809.01 733.03 825.83 733.03 827.7 733.03 840.51 742.69 840.51 742.69 827.7 754.67 827.7"/><rect class="cls-11" x="828.78" y="831.24" width="11.38" height="22.69"/><rect class="cls-11" x="710.8" y="808.19" width="8.81" height="42.7"/><rect class="cls-11" x="816.71" y="854.77" width="11.38" height="10.99"/><rect class="cls-11" x="863.77" y="867.19" width="11.38" height="10.99"/><polygon class="cls-11" points="875.15 902.18 875.15 891.19 863.77 891.19 863.77 878.77 852.4 878.77 852.4 901.79 863.77 901.79 863.77 902.18 875.15 902.18"/><rect class="cls-11" x="876.11" y="879.19" width="11.38" height="10.99"/><rect class="cls-11" x="840.16" y="854.77" width="11.38" height="22.73"/><polygon class="cls-11" points="804.64 867.19 804.64 888.58 816.02 888.58 838.17 888.58 838.17 878.77 816.02 878.77 816.02 867.19 804.64 867.19"/><polygon class="cls-11" points="816.02 961.75 804.64 961.75 804.64 983.59 814.91 983.59 814.91 995.22 826.29 995.22 826.29 973.19 816.02 973.19 816.02 961.75"/><polygon class="cls-11" points="780.92 900.81 780.92 888.58 780.92 888.49 791.92 888.49 791.92 878.18 780.92 878.18 780.92 866.43 755.18 866.43 755.18 854.77 733.03 854.77 733.03 875.7 744.69 875.7 744.69 888.49 744.69 888.58 744.69 900.81 756.07 900.81 756.07 888.58 769.55 888.58 769.55 900.81 780.92 900.81"/><rect class="cls-11" x="722.67" y="879.36" width="8" height="8.66"/><rect class="cls-11" x="711.75" y="891.49" width="8" height="8.66"/><rect class="cls-11" x="780.93" y="854.77" width="22.31" height="10.99"/><rect class="cls-11" x="937.01" y="821.36" width="9.36" height="9.36"/><polyline class="cls-13" points="898.67 288.69 898.67 252.4 898.67 190.45 786.83 190.45"/><circle cx="898.67" cy="288.39" r="6.02"/><path d="M781,209H737.54c-3.21,0-5.84-2.37-5.84-5.26V177.17c0-2.89,2.63-5.25,5.84-5.25H781c3.21,0,5.84,2.36,5.84,5.25v26.56C786.83,206.62,784.2,209,781,209Z"/><g class="cls-14"><path class="cls-15" d="M757.32,187c2.37.18,5.8-.24,5.8-3,0-2.1-1.83-3.26-3.86-3.26-2.8,0-4.24,1.86-4.2,4.38H749.8c.2-5,3.78-8.48,9.42-8.48,4.36,0,9.15,2.42,9.15,6.8a4.91,4.91,0,0,1-3.81,5v.07a5.6,5.6,0,0,1,4.82,5.57c0,5.14-4.82,8-10.12,8-6.11,0-10.24-3.29-10.12-8.93h5.26c.11,2.66,1.59,4.83,4.78,4.83,2.5,0,4.44-1.5,4.44-3.85,0-3.71-3.62-3.64-6.3-3.64Z"/></g><polygon class="cls-16" points="687.19 170.21 640.16 170.21 616.61 190.43 640.16 210.7 687.19 210.7 710.74 190.43 687.19 170.21"/><polygon class="cls-16" points="569.12 170.21 522.1 170.21 498.55 190.43 522.1 210.7 569.12 210.7 592.67 190.43 569.12 170.21"/><polygon class="cls-16" points="657.65 170.21 551.64 170.21 498.55 190.43 551.64 210.7 657.65 210.7 710.74 190.43 657.65 170.21"/><g class="cls-14"><path class="cls-15" d="M539.9,192.13c0,6.54-3.85,9.73-10.32,9.73s-10.29-3.12-10.29-9.73v-15h5.32v15c0,2.64.67,5.25,5,5.25,3.79,0,5-1.62,5-5.25v-15h5.31Z"/><path class="cls-15" d="M551.08,177.08h5.45l9,24.2h-5.51l-1.83-5.39h-9l-1.89,5.39H541.9Zm-.51,14.85h6.26L553.78,183h-.06Z"/><path class="cls-15" d="M567.66,177.08h13c4.34,0,7.08,3,7.08,6.67,0,2.85-1.12,5-3.83,6.07v.07c2.61.71,3.35,3.19,3.52,5.66.1,1.53,0,4.41,1,5.73h-5.31c-.61-1.52-.58-3.86-.85-5.79-.37-2.55-1.35-3.67-4-3.67H573v9.46h-5.32ZM573,188h5.82c2.4,0,3.65-1,3.65-3.46s-1.25-3.36-3.65-3.36H573Z"/><path class="cls-15" d="M597.45,181.55h-7.24v-4.47H610v4.47h-7.25v19.73h-5.31Z"/><path class="cls-15" d="M611.7,186.67c-.17-5.42,2.91-9.59,8.6-9.59,4.33,0,8.12,2.78,8.12,7.42,0,7.19-7.61,7.76-11.07,12.65h11.21v4.13h-17.4c0-5.52,3.38-7.79,7.48-10.61,2.06-1.46,5-2.88,5-5.8a3.4,3.4,0,0,0-3.55-3.66c-2.84,0-3.75,2.95-3.75,5.46Z"/><path class="cls-15" d="M629.27,203.83h16.92v1.69H629.27Z"/><path class="cls-15" d="M648.53,177.08H659c6.27,0,11,4,11,12,0,7-3.59,12.24-11,12.24H648.53Zm5.31,19.73h4.74c3.08,0,6-1.9,6-7.26,0-4.88-1.73-8-7-8h-3.79Z"/><path class="cls-15" d="M673.61,177.08h18.08v4.47H678.93v5.19h11.71v4.13H678.93v5.94h13v4.47H673.61Z"/></g></svg>