<svg xmlns="http://www.w3.org/2000/svg" viewBox="0 0 738.37 475.73"><defs><style>.cls-1{fill:#7f8080;}.cls-2{fill:#333;}.cls-3{fill:#b3b3b3;}.cls-4{fill:#eb2627;}.cls-5{fill:#fed401;}.cls-6{fill:#fff;}.cls-7{isolation:isolate;}.cls-8{fill:#c0bfbf;}.cls-9{fill:#e0ac52;}.cls-11,.cls-9{opacity:0.3;}.cls-10{fill:#d3d3d3;}.cls-12{fill:#bdc2d2;}.cls-13{fill:#a4abba;}.cls-14{fill:#eeefeb;}.cls-15{fill:#221f20;}.cls-16{fill:#ebf4fb;}.cls-17{fill:#333e49;}.cls-18{fill:#222630;}.cls-19{fill:#be8e3e;}</style></defs><g id="Layer_2" data-name="Layer 2"><g id="RAK12013"><rect class="cls-1" x="668.59" y="0.01" width="25.53" height="475.72"/><rect class="cls-1" x="636.69" y="0.01" width="25.53" height="475.72"/><rect class="cls-2" x="621.85" y="24.23" width="14.82" height="17.44" rx="2.47"/><rect class="cls-3" x="639.93" y="0.01" width="22.29" height="17.44" rx="2.12"/><rect class="cls-2" x="639.93" y="23.86" width="22.29" height="17.44" rx="2.12"/><rect class="cls-4" x="639.93" y="48.45" width="22.29" height="17.44" rx="2.12"/><rect class="cls-3" x="639.93" y="73.03" width="22.29" height="17.44" rx="2.12"/><rect class="cls-3" x="639.93" y="96.54" width="22.29" height="17.44" rx="2.12"/><rect class="cls-3" x="639.93" y="120.06" width="22.29" height="17.44" rx="2.12"/><rect class="cls-3" x="639.93" y="144.36" width="22.29" height="17.44" rx="2.12"/><rect class="cls-3" x="639.93" y="168.24" width="22.29" height="17.44" rx="2.12"/><rect class="cls-3" x="639.93" y="192.33" width="22.29" height="17.44" rx="2.12"/><rect class="cls-3" x="639.93" y="216.73" width="22.29" height="17.44" rx="2.12"/><rect class="cls-3" x="639.93" y="241.93" width="22.29" height="17.44" rx="2.12"/><rect class="cls-3" x="639.93" y="265.59" width="22.29" height="17.44" rx="2.12"/><rect class="cls-3" x="668.59" y="0.01" width="22.29" height="17.44" rx="2.12"/><rect class="cls-2" x="668.59" y="23.86" width="22.29" height="17.44" rx="2.12"/><rect class="cls-3" x="668.59" y="48.45" width="22.29" height="17.44" rx="2.12"/><rect class="cls-3" x="668.59" y="73.03" width="22.29" height="17.44" rx="2.12"/><rect class="cls-3" x="668.59" y="96.54" width="22.29" height="17.44" rx="2.12"/><rect class="cls-3" x="668.59" y="120.06" width="22.29" height="17.44" rx="2.12"/><rect class="cls-3" x="668.59" y="144.36" width="22.29" height="17.44" rx="2.12"/><rect class="cls-3" x="668.59" y="168.24" width="22.29" height="17.44" rx="2.12"/><rect class="cls-3" x="668.59" y="192.33" width="22.29" height="17.44" rx="2.12"/><rect class="cls-3" x="668.59" y="216.73" width="22.29" height="17.44" rx="2.12"/><rect class="cls-3" x="668.59" y="241.93" width="22.29" height="17.44" rx="2.12"/><rect class="cls-3" x="668.59" y="265.59" width="22.29" height="17.44" rx="2.12"/><rect class="cls-3" x="668.59" y="289.24" width="22.29" height="17.44" rx="2.12"/><rect class="cls-3" x="668.59" y="312.76" width="22.29" height="17.44" rx="2.12"/><rect class="cls-3" x="668.59" y="337.06" width="22.29" height="17.44" rx="2.12"/><rect class="cls-5" x="668.59" y="360.94" width="22.29" height="17.44" rx="2.12"/><rect class="cls-3" x="668.59" y="385.03" width="22.29" height="17.44" rx="2.12"/><rect class="cls-3" x="668.59" y="409.43" width="22.29" height="17.44" rx="2.12"/><rect class="cls-3" x="668.59" y="434.64" width="22.29" height="17.44" rx="2.12"/><path class="cls-6" d="M672,297c-.07-2.39,1.29-4.23,3.8-4.23a3.32,3.32,0,0,1,3.58,3.25c0,3.18-3.36,3.43-4.87,5.59h4.94v1.82h-7.69c0-2.44,1.5-3.44,3.31-4.68.91-.65,2.2-1.27,2.2-2.56a1.51,1.51,0,0,0-1.37-1.62.74.74,0,0,0-.21,0c-1.25,0-1.65,1.3-1.65,2.4Z"/><path class="cls-6" d="M687.21,294.74h-4.33l-.42,2.38,0,0a2.63,2.63,0,0,1,2-.81,3.26,3.26,0,0,1,3.25,3.56,3.8,3.8,0,0,1-3.79,3.8h-.1c-2,0-3.84-1.12-3.88-3.32h2.12a1.67,1.67,0,0,0,1.72,1.57,1.89,1.89,0,0,0,1.81-2v-.05A1.8,1.8,0,0,0,684,298h-.18a1.74,1.74,0,0,0-1.63.84h-1.92l1-5.79h5.84Z"/><path class="cls-6" d="M672,320.12c-.07-2.4,1.29-4.23,3.8-4.23a3.32,3.32,0,0,1,3.58,3.25c0,3.17-3.36,3.42-4.87,5.58h4.94v1.82h-7.69c0-2.43,1.5-3.44,3.31-4.68.91-.64,2.2-1.27,2.2-2.56a1.51,1.51,0,0,0-1.37-1.62h-.21c-1.25,0-1.65,1.3-1.65,2.41Z"/><path class="cls-6" d="M687.47,317.92c-2.2,1.93-3.39,5.84-3.43,8.67h-2.27a15.32,15.32,0,0,1,3.51-8.5h-5v-2h7.15Z"/><path class="cls-6" d="M674.83,393c.91.08,2.23-.1,2.23-1.3a1.4,1.4,0,0,0-1.38-1.4h-.1c-1.09,0-1.63.79-1.63,1.87h-2a3.46,3.46,0,0,1,3.62-3.62c1.67,0,3.52,1,3.52,2.9a2.09,2.09,0,0,1-1.47,2.17h0a2.34,2.34,0,0,1,1.86,2.38c0,2.2-1.86,3.44-3.89,3.44-2.35,0-3.94-1.4-3.89-3.79h2c0,1.13.61,2.06,1.83,2.06a1.64,1.64,0,0,0,1.71-1.54v-.09c0-1.58-1.39-1.55-2.42-1.55Z"/><path class="cls-6" d="M683.14,393c.92.08,2.23-.1,2.23-1.3a1.39,1.39,0,0,0-1.37-1.4h-.11c-1.08,0-1.63.79-1.63,1.87h-2a3.45,3.45,0,0,1,3.62-3.62c1.67,0,3.51,1,3.51,2.9a2.09,2.09,0,0,1-1.46,2.17h0a2.33,2.33,0,0,1,1.85,2.38c0,2.2-1.85,3.44-3.89,3.44-2.35,0-3.94-1.4-3.89-3.79h2c0,1.13.62,2.06,1.84,2.06a1.64,1.64,0,0,0,1.71-1.54v-.09c0-1.58-1.39-1.55-2.43-1.55Z"/><path class="cls-6" d="M674.83,417.45c.91.08,2.23-.1,2.23-1.3a1.39,1.39,0,0,0-1.38-1.39h-.1c-1.09,0-1.63.79-1.63,1.87h-2a3.46,3.46,0,0,1,3.62-3.62c1.67,0,3.52,1,3.52,2.9a2.08,2.08,0,0,1-1.47,2.16h0a2.34,2.34,0,0,1,1.86,2.38c0,2.2-1.86,3.44-3.89,3.44-2.35,0-3.94-1.4-3.89-3.79h2c0,1.14.61,2.06,1.83,2.06a1.62,1.62,0,0,0,1.71-1.54v-.08c0-1.59-1.39-1.56-2.42-1.56Z"/><path class="cls-6" d="M687.21,415h-4.33l-.42,2.38,0,0a2.65,2.65,0,0,1,2-.8,3.27,3.27,0,0,1,3.25,3.56A3.78,3.78,0,0,1,684,423.9h-.07c-2,0-3.84-1.12-3.88-3.32h2.12a1.66,1.66,0,0,0,1.72,1.57,1.89,1.89,0,0,0,1.81-2v-.05a1.8,1.8,0,0,0-1.63-2h-.18a1.72,1.72,0,0,0-1.63.84h-1.91l1-5.8h5.84Z"/><path class="cls-6" d="M672,344.84c-.07-2.4,1.29-4.24,3.8-4.24a3.33,3.33,0,0,1,3.58,3.26c0,3.17-3.36,3.42-4.87,5.58h4.94v1.82h-7.69c0-2.44,1.5-3.44,3.31-4.68.91-.64,2.2-1.27,2.2-2.56a1.52,1.52,0,0,0-1.39-1.62h-.19c-1.25,0-1.65,1.3-1.65,2.41Z"/><path class="cls-6" d="M682.25,348.59a1.49,1.49,0,0,0,1.4,1.3c1.56,0,1.93-2,2-3.18l0,0a2.62,2.62,0,0,1-2.36,1.17,3.3,3.3,0,0,1-2.41-1.08,3.57,3.57,0,0,1-.81-2.34,3.63,3.63,0,0,1,3.66-3.82c3.17,0,4,2.76,4,5.42s-1.14,5.47-4.12,5.47a3.18,3.18,0,0,1-3.39-2.9Zm3.21-4.3a1.79,1.79,0,0,0-1.64-1.93h-.05a1.78,1.78,0,0,0-1.63,1.92,1.75,1.75,0,0,0,1.63,2,1.72,1.72,0,0,0,1.67-1.95Z"/><path class="cls-6" d="M674.83,369.3c.91.07,2.23-.11,2.23-1.3a1.39,1.39,0,0,0-1.37-1.4h-.11c-1.09,0-1.63.79-1.63,1.87h-2a3.46,3.46,0,0,1,3.62-3.62c1.67,0,3.52,1,3.52,2.91a2.07,2.07,0,0,1-1.47,2.13v0a2.34,2.34,0,0,1,1.86,2.38c0,2.2-1.86,3.44-3.89,3.44-2.35,0-3.94-1.41-3.89-3.79h2c0,1.13.61,2.07,1.83,2.07a1.64,1.64,0,0,0,1.71-1.55v-.08c0-1.59-1.39-1.56-2.42-1.56Z"/><path class="cls-6" d="M685.6,375.53h-2.13v-6.79h-2.63v-1.62c1.48.05,2.83-.48,3.07-2.08h1.69Z"/><path class="cls-6" d="M674.83,442.73c.91.07,2.23-.11,2.23-1.3a1.39,1.39,0,0,0-1.37-1.4h-.11c-1.09,0-1.63.79-1.63,1.87h-2a3.47,3.47,0,0,1,3.62-3.62c1.67,0,3.52,1,3.52,2.91a2.07,2.07,0,0,1-1.47,2.13h0a2.34,2.34,0,0,1,1.86,2.38c0,2.2-1.86,3.44-3.89,3.44-2.35,0-3.94-1.41-3.89-3.79h2c0,1.14.61,2.06,1.83,2.06a1.62,1.62,0,0,0,1.71-1.54v-.08c0-1.58-1.39-1.56-2.42-1.56Z"/><path class="cls-6" d="M687.47,440.32c-2.2,1.93-3.39,5.85-3.43,8.64h-2.27a15.29,15.29,0,0,1,3.51-8.49h-5v-2h7.15Z"/><rect class="cls-2" x="668.59" y="458.29" width="22.29" height="17.44" rx="2.12"/><rect class="cls-3" x="639.93" y="289.24" width="22.29" height="17.44" rx="2.12"/><path class="cls-6" d="M674.83,466.45c.91.08,2.23-.1,2.23-1.3a1.39,1.39,0,0,0-1.37-1.39h-.11c-1.09,0-1.63.79-1.63,1.87h-2a3.46,3.46,0,0,1,3.62-3.62c1.67,0,3.52,1,3.52,2.9a2.08,2.08,0,0,1-1.47,2.14v0a2.34,2.34,0,0,1,1.86,2.38c0,2.17-1.86,3.44-3.89,3.44-2.35,0-3.94-1.41-3.89-3.8h2c0,1.14.61,2.07,1.83,2.07a1.64,1.64,0,0,0,1.71-1.54v-.09c0-1.58-1.39-1.55-2.42-1.55Z"/><path class="cls-6" d="M682.25,470a1.5,1.5,0,0,0,1.4,1.3c1.56,0,1.93-2,2-3.19l0,0a2.65,2.65,0,0,1-2.36,1.16,3.34,3.34,0,0,1-2.41-1.08,3.56,3.56,0,0,1-.81-2.33,3.63,3.63,0,0,1,3.66-3.83c3.17,0,4,2.76,4,5.41s-1.14,5.48-4.12,5.48a3.18,3.18,0,0,1-3.39-2.9Zm3.21-4.29a1.8,1.8,0,0,0-1.69-1.95,1.73,1.73,0,0,0-1.63,1.91,1.76,1.76,0,0,0,1.63,2,1.72,1.72,0,0,0,1.67-1.94Z"/><rect class="cls-3" x="639.93" y="312.76" width="22.29" height="17.44" rx="2.12"/><rect class="cls-3" x="639.93" y="337.06" width="22.29" height="17.44" rx="2.12"/><rect class="cls-5" x="639.93" y="360.94" width="22.29" height="17.44" rx="2.12"/><rect class="cls-3" x="639.93" y="385.03" width="22.29" height="17.44" rx="2.12"/><rect class="cls-3" x="639.93" y="409.43" width="22.29" height="17.44" rx="2.12"/><rect class="cls-3" x="639.93" y="434.64" width="22.29" height="17.44" rx="2.12"/><rect class="cls-2" x="639.93" y="458.29" width="22.29" height="17.44" rx="2.12"/><path class="cls-6" d="M647.48,8.67c-.08-2.4,1.28-4.23,3.79-4.23a3.33,3.33,0,0,1,3.59,3.25c0,3.17-3.37,3.42-4.88,5.58h4.95V15.1h-7.69c0-2.44,1.49-3.44,3.3-4.69.92-.64,2.2-1.27,2.2-2.56a1.5,1.5,0,0,0-1.38-1.62.6.6,0,0,0-.19,0c-1.25,0-1.66,1.3-1.66,2.41Z"/><path class="cls-6" d="M643.32,297c-.08-2.38,1.29-4.23,3.79-4.23a3.33,3.33,0,0,1,3.59,3.28c0,3.17-3.36,3.43-4.88,5.58h4.94v1.82h-7.69c0-2.44,1.5-3.44,3.31-4.68.91-.64,2.2-1.27,2.2-2.56a1.51,1.51,0,0,0-1.37-1.62H647c-1.26,0-1.66,1.3-1.66,2.4Z"/><path class="cls-6" d="M656.88,295.69a1.5,1.5,0,0,0-1.4-1.31c-1.53,0-2,2-2,3.19l0,0a2.62,2.62,0,0,1,2.37-1.17,3.42,3.42,0,0,1,2.41,1.08,3.84,3.84,0,0,1-2.64,6.16h-.22c-3.17,0-4-2.77-4-5.42s1.14-5.47,4.12-5.47a3.18,3.18,0,0,1,3.39,2.9ZM653.67,300a1.79,1.79,0,0,0,1.64,1.94h.05a2,2,0,0,0,0-3.89,1.74,1.74,0,0,0-1.69,2Z"/><path class="cls-6" d="M646.18,369.49c.91.07,2.22-.11,2.22-1.31a1.38,1.38,0,0,0-1.37-1.39h-.11c-1.08,0-1.62.79-1.62,1.87h-2A3.47,3.47,0,0,1,646.9,365c1.68,0,3.51,1,3.51,2.9a2.07,2.07,0,0,1-1.46,2.14v0a2.32,2.32,0,0,1,1.85,2.38c0,2.2-1.85,3.44-3.88,3.44a3.55,3.55,0,0,1-3.89-3.8h2c0,1.14.61,2.07,1.84,2.07a1.63,1.63,0,0,0,1.7-1.54v-.09c0-1.58-1.39-1.55-2.42-1.55Z"/><path class="cls-6" d="M651.63,369.27c-.07-2.39,1.29-4.23,3.8-4.23a3.32,3.32,0,0,1,3.58,3.25c0,3.17-3.36,3.43-4.87,5.58h5v1.83H651.4c0-2.44,1.5-3.44,3.31-4.68.91-.65,2.2-1.27,2.2-2.56a1.52,1.52,0,0,0-1.39-1.62h-.19c-1.25,0-1.66,1.3-1.66,2.4Z"/><path class="cls-6" d="M646.18,417.64c.91.08,2.22-.1,2.22-1.3A1.37,1.37,0,0,0,647,415h-.12c-1.08,0-1.62.8-1.62,1.87h-2a3.47,3.47,0,0,1,3.62-3.62c1.68,0,3.51,1,3.51,2.91a2.07,2.07,0,0,1-1.46,2.16h0a2.33,2.33,0,0,1,1.85,2.38c0,2.2-1.85,3.44-3.88,3.44A3.55,3.55,0,0,1,643,420.3h2c0,1.14.61,2.06,1.84,2.06a1.61,1.61,0,0,0,1.7-1.54v-.08c0-1.58-1.39-1.56-2.42-1.56Z"/><path class="cls-6" d="M656.88,416.11a1.48,1.48,0,0,0-1.4-1.3c-1.53,0-2,2-2,3.18h0a2.66,2.66,0,0,1,2.37-1.16,3.32,3.32,0,0,1,2.41,1.08,3.59,3.59,0,0,1,.8,2.33,3.64,3.64,0,0,1-3.44,3.83h-.22c-3.17,0-4-2.77-4-5.42s1.14-5.48,4.12-5.48a3.2,3.2,0,0,1,3.39,2.91Zm-3.21,4.29a1.79,1.79,0,0,0,1.64,1.94h.05a2,2,0,0,0,0-3.89,1.74,1.74,0,0,0-1.69,1.95Z"/><path class="cls-6" d="M646.18,442.92c.91.07,2.22-.11,2.22-1.3a1.38,1.38,0,0,0-1.36-1.4h-.12c-1.08,0-1.62.79-1.62,1.87h-2a3.48,3.48,0,0,1,3.62-3.62c1.68,0,3.51,1,3.51,2.9a2.07,2.07,0,0,1-1.46,2.17v0A2.32,2.32,0,0,1,650.8,446c0,2.2-1.85,3.44-3.88,3.44a3.55,3.55,0,0,1-3.89-3.8h2c0,1.14.61,2.06,1.84,2.06a1.61,1.61,0,0,0,1.7-1.54V446c0-1.59-1.39-1.56-2.42-1.56Z"/><path class="cls-6" d="M655.25,438.46c2.6,0,3.5,1.79,3.5,2.81a2.2,2.2,0,0,1-1.52,2.2v0a2.43,2.43,0,0,1,2,2.55c0,2.22-2,3.29-3.92,3.29s-4-1-4-3.25a2.46,2.46,0,0,1,2-2.57v0a2.1,2.1,0,0,1-1.54-2.17C651.72,439.44,653.55,438.46,655.25,438.46Zm0,9.28a1.73,1.73,0,0,0,1.8-1.65V446a1.69,1.69,0,0,0-1.71-1.68h-.09a1.68,1.68,0,0,0-1.86,1.67,1.76,1.76,0,0,0,1.74,1.79h.14Zm0-4.87a1.43,1.43,0,1,0,.25-2.84,1.07,1.07,0,0,0-.25,0,1.46,1.46,0,0,0-1.61,1.29.86.86,0,0,0,0,.16,1.47,1.47,0,0,0,1.62,1.41Z"/><path class="cls-6" d="M647.43,469.81H643v-1.94l4.55-6.1h1.9v6.29h1.39v1.75h-1.39v2.43h-2Zm0-5.38h0l-2.71,3.63h2.74Z"/><path class="cls-6" d="M655.22,461.56c2.1,0,3.86,1.31,3.86,5.41s-1.76,5.49-3.86,5.49-3.83-1.31-3.83-5.49S653.15,461.56,655.22,461.56Zm0,9.14c1.74,0,1.74-2.56,1.74-3.74s0-3.65-1.74-3.65-1.7,2.55-1.7,3.65S653.52,470.7,655.22,470.7Z"/><path class="cls-6" d="M643.32,320.12c-.08-2.4,1.29-4.23,3.79-4.23a3.32,3.32,0,0,1,3.59,3.25c0,3.17-3.36,3.42-4.88,5.58h4.94v1.82h-7.69c0-2.43,1.5-3.44,3.31-4.68.91-.64,2.2-1.27,2.2-2.56a1.51,1.51,0,0,0-1.37-1.62H647c-1.26,0-1.66,1.3-1.66,2.41Z"/><path class="cls-6" d="M655.25,315.89c2.6,0,3.5,1.79,3.5,2.81a2.17,2.17,0,0,1-1.52,2.17v0a2.44,2.44,0,0,1,2,2.56c0,2.21-2,3.28-3.92,3.28s-4-1-4-3.25a2.47,2.47,0,0,1,2-2.57v0a2.1,2.1,0,0,1-1.54-2.17C651.72,316.86,653.55,315.89,655.25,315.89Zm0,9.28a1.73,1.73,0,0,0,1.8-1.65v-.11a1.69,1.69,0,0,0-1.71-1.68h-.09a1.67,1.67,0,0,0-1.86,1.66,1.77,1.77,0,0,0,1.75,1.79h.11Zm0-4.87a1.43,1.43,0,1,0,.25-2.84,1.07,1.07,0,0,0-.25,0,1.46,1.46,0,0,0-1.61,1.29.86.86,0,0,0,0,.16,1.48,1.48,0,0,0,1.62,1.41Z"/><path class="cls-6" d="M646.18,345.26c.91.08,2.22-.1,2.22-1.3a1.38,1.38,0,0,0-1.36-1.4h-.12c-1.08,0-1.62.79-1.62,1.87h-2a3.47,3.47,0,0,1,3.62-3.62c1.68,0,3.51,1,3.51,2.9a2.08,2.08,0,0,1-1.46,2.14v0a2.32,2.32,0,0,1,1.85,2.38c0,2.2-1.85,3.44-3.88,3.44a3.55,3.55,0,0,1-3.89-3.8h2c0,1.14.61,2.07,1.84,2.07a1.63,1.63,0,0,0,1.7-1.54v-.09c0-1.58-1.39-1.55-2.42-1.55Z"/><path class="cls-6" d="M655.22,340.79c2.1,0,3.86,1.32,3.86,5.42s-1.76,5.49-3.86,5.49-3.83-1.32-3.83-5.49S653.15,340.79,655.22,340.79Zm0,9.14c1.74,0,1.74-2.56,1.74-3.74s0-3.65-1.74-3.65-1.7,2.56-1.7,3.65S653.52,349.93,655.22,349.93Z"/><path class="cls-6" d="M646.18,393c.91.08,2.22-.1,2.22-1.3a1.39,1.39,0,0,0-1.37-1.4h-.11c-1.08,0-1.62.79-1.62,1.87h-2a3.47,3.47,0,0,1,3.62-3.62c1.68,0,3.51,1,3.51,2.9a2.07,2.07,0,0,1-1.46,2.17h0A2.32,2.32,0,0,1,650.8,396c0,2.2-1.85,3.44-3.88,3.44-2.35,0-3.93-1.4-3.89-3.79h2c0,1.13.61,2.06,1.84,2.06a1.63,1.63,0,0,0,1.7-1.54v-.09c0-1.58-1.39-1.55-2.42-1.55Z"/><path class="cls-6" d="M655.75,396.81H651.3v-1.95l4.55-6.1h1.9v6.29h1.39v1.76h-1.39v2.42h-2Zm0-5.39h0L653,395.05h2.76Z"/><path class="cls-6" d="M681.44,14.47h-2.12V7.69h-2.64V6.06c1.48.05,2.83-.48,3.07-2.08h1.69Z"/><path class="cls-6" d="M679,32.1c.91.07,2.22-.11,2.22-1.3a1.38,1.38,0,0,0-1.36-1.4h-.12c-1.08,0-1.62.79-1.62,1.87h-2a3.46,3.46,0,0,1,3.62-3.62c1.67,0,3.51,1,3.51,2.89a2.07,2.07,0,0,1-1.47,2.17v0a2.33,2.33,0,0,1,1.86,2.38c0,2.2-1.86,3.44-3.89,3.44a3.55,3.55,0,0,1-3.89-3.79h2c0,1.13.62,2.06,1.84,2.06a1.62,1.62,0,0,0,1.7-1.54.28.28,0,0,0,0-.09c0-1.58-1.4-1.55-2.43-1.55Z"/><path class="cls-6" d="M683.05,54.2h-4.33l-.42,2.37,0,0a2.64,2.64,0,0,1,2-.81,3.26,3.26,0,0,1,3.25,3.56,3.78,3.78,0,0,1-3.79,3.79h-.1c-2,0-3.84-1.12-3.89-3.31H678a1.67,1.67,0,0,0,1.72,1.56,1.88,1.88,0,0,0,1.81-2v0a1.8,1.8,0,0,0-1.63-2h-.18a1.73,1.73,0,0,0-1.62.84h-1.92l1-5.79H683Z"/><path class="cls-6" d="M678.09,107.61a1.49,1.49,0,0,0,1.41,1.3c1.55,0,1.92-2,2-3.18l0,0a2.63,2.63,0,0,1-2.37,1.16,3.34,3.34,0,0,1-2.4-1.08,3.82,3.82,0,0,1,2.85-6.17c3.17,0,4,2.77,4,5.42s-1.14,5.47-4.12,5.47a3.18,3.18,0,0,1-3.39-2.9Zm3.21-4.29a1.79,1.79,0,0,0-1.64-1.94h0a1.77,1.77,0,0,0-1.62,1.92c0,1,.5,2,1.62,2A1.73,1.73,0,0,0,681.3,103.32Z"/><path class="cls-6" d="M677.28,134.17h-2.14v-6.8h-2.62v-1.6c1.48,0,2.82-.47,3.06-2.08h1.69Z"/><path class="cls-6" d="M685.6,134.17h-2.13v-6.8h-2.63v-1.6c1.48,0,2.83-.47,3.07-2.08h1.69Z"/><path class="cls-6" d="M677.28,206.84h-2.14V200h-2.62v-1.59c1.48,0,2.82-.49,3.06-2.08h1.69Z"/><path class="cls-6" d="M687.47,198.2c-2.2,1.93-3.39,5.84-3.43,8.67h-2.27a15.32,15.32,0,0,1,3.51-8.5h-5v-2h7.15Z"/><path class="cls-6" d="M677.28,231.21h-2.14v-6.78h-2.62V222.8c1.48,0,2.82-.47,3.06-2.08h1.69Z"/><path class="cls-6" d="M682.25,228.51a1.49,1.49,0,0,0,1.4,1.3c1.56,0,1.93-2,2-3.18l0,0a2.63,2.63,0,0,1-2.36,1.18,3.35,3.35,0,0,1-2.41-1.09,3.54,3.54,0,0,1-.81-2.33,3.63,3.63,0,0,1,3.66-3.83c3.17,0,4,2.76,4,5.42s-1.14,5.47-4.12,5.47a3.18,3.18,0,0,1-3.39-2.9Zm3.21-4.29a1.79,1.79,0,0,0-1.64-1.94h-.05a2,2,0,0,0,0,3.88,1.72,1.72,0,0,0,1.67-1.94Z"/><path class="cls-6" d="M672,249.71c-.07-2.39,1.29-4.23,3.79-4.23a3.33,3.33,0,0,1,3.59,3.25c0,3.17-3.37,3.42-4.88,5.57h4.95v1.83h-7.69c0-2.44,1.5-3.44,3.31-4.68.91-.65,2.2-1.27,2.2-2.56a1.51,1.51,0,0,0-1.37-1.62.74.74,0,0,0-.21,0c-1.25,0-1.65,1.3-1.65,2.4Z"/><path class="cls-6" d="M685.6,256.16h-2.13v-6.81h-2.63v-1.62c1.48.05,2.83-.48,3.07-2.08h1.69Z"/><path class="cls-6" d="M672,273.69c-.07-2.39,1.29-4.23,3.79-4.23a3.33,3.33,0,0,1,3.59,3.25c0,3.18-3.37,3.43-4.88,5.58h4.95v1.83h-7.69c0-2.44,1.5-3.44,3.31-4.68.91-.65,2.2-1.28,2.2-2.56a1.5,1.5,0,0,0-1.37-1.62h-.21c-1.25,0-1.65,1.3-1.65,2.41Z"/><path class="cls-6" d="M683.14,273.9c.92.07,2.23-.1,2.23-1.3a1.37,1.37,0,0,0-1.37-1.39h-.11c-1.08,0-1.63.79-1.63,1.87h-2a3.45,3.45,0,0,1,3.62-3.62c1.67,0,3.51,1,3.51,2.9a2.09,2.09,0,0,1-1.46,2.14v0a2.33,2.33,0,0,1,1.85,2.38c0,2.2-1.85,3.44-3.89,3.44-2.35,0-3.94-1.41-3.89-3.8h2c0,1.14.62,2.07,1.84,2.07a1.64,1.64,0,0,0,1.71-1.54V277c0-1.59-1.39-1.55-2.43-1.55Z"/><path class="cls-6" d="M651.59,36.55h-4.43V34.61l4.55-6.1h1.9v6.27H655v1.75h-1.39V39h-2Zm0-5.38h-.05l-2.71,3.63h2.75Z"/><path class="cls-6" d="M648.63,134.81H646.5V128h-2.63v-1.63c1.48,0,2.83-.48,3.07-2.07h1.69Z"/><path class="cls-6" d="M651.63,128.36c-.07-2.39,1.29-4.23,3.8-4.23A3.32,3.32,0,0,1,659,127.4c0,3.17-3.36,3.43-4.87,5.58h5v1.83H651.4c0-2.44,1.5-3.44,3.31-4.69.91-.64,2.2-1.27,2.2-2.55a1.53,1.53,0,0,0-1.39-1.63h-.19c-1.25,0-1.66,1.3-1.66,2.41Z"/><path class="cls-6" d="M648.63,183.34H646.5v-6.78h-2.63v-1.63c1.48,0,2.83-.48,3.07-2.08h1.69Z"/><path class="cls-6" d="M656.88,175.57a1.5,1.5,0,0,0-1.4-1.31c-1.53,0-2,2-2,3.19l0,0a2.63,2.63,0,0,1,2.37-1.16,3.38,3.38,0,0,1,2.41,1.08,3.84,3.84,0,0,1-2.64,6.16h-.22c-3.17,0-4-2.77-4-5.42s1.14-5.47,4.12-5.47a3.18,3.18,0,0,1,3.39,2.9Zm-3.21,4.29a1.79,1.79,0,0,0,1.64,1.94h.05a1.77,1.77,0,0,0,1.62-1.92,1.68,1.68,0,1,0-3.31,0Z"/><path class="cls-6" d="M648.63,207.48H646.5v-6.79h-2.63v-1.6c1.48,0,2.83-.48,3.07-2.08h1.69Z"/><path class="cls-6" d="M655.25,196.79c2.6,0,3.5,1.8,3.5,2.82a2.16,2.16,0,0,1-1.52,2.19v0a2.44,2.44,0,0,1,2,2.56c0,2.22-2,3.29-3.92,3.29s-4-1-4-3.25a2.48,2.48,0,0,1,2-2.58v0a2.1,2.1,0,0,1-1.54-2.17C651.72,197.77,653.55,196.79,655.25,196.79Zm0,9.29a1.73,1.73,0,0,0,1.8-1.65v-.12a1.69,1.69,0,0,0-1.71-1.67h-.09a1.67,1.67,0,0,0-1.86,1.66,1.77,1.77,0,0,0,1.75,1.79h.11Zm0-4.88a1.42,1.42,0,1,0,.25-2.83.71.71,0,0,0-.25,0,1.45,1.45,0,0,0-1.61,1.29.81.81,0,0,0,0,.16,1.47,1.47,0,0,0,1.62,1.4Z"/><path class="cls-6" d="M643.32,250.35c-.07-2.39,1.29-4.23,3.79-4.23a3.33,3.33,0,0,1,3.59,3.28c0,3.17-3.36,3.42-4.88,5.58h4.94v1.82h-7.69c0-2.44,1.5-3.44,3.31-4.68.91-.64,2.2-1.27,2.2-2.56a1.5,1.5,0,0,0-1.37-1.62H647c-1.26,0-1.66,1.3-1.66,2.41Z"/><path class="cls-6" d="M651.63,250.35c-.07-2.39,1.29-4.23,3.8-4.23A3.33,3.33,0,0,1,659,249.4c0,3.17-3.36,3.42-4.87,5.58h5v1.82H651.4c0-2.44,1.5-3.44,3.31-4.68.91-.64,2.2-1.27,2.2-2.56a1.51,1.51,0,0,0-1.39-1.62h-.19c-1.25,0-1.66,1.3-1.66,2.41Z"/><path class="cls-6" d="M652.72,55.78a1.5,1.5,0,0,0-1.4-1.3c-1.53,0-2,2-2,3.18l0,0a2.62,2.62,0,0,1,2.36-1.17,3.34,3.34,0,0,1,2.4,1.08,3.57,3.57,0,0,1,.81,2.34,3.64,3.64,0,0,1-3.66,3.83c-3.17,0-4-2.77-4-5.42s1.14-5.48,4.12-5.48a3.2,3.2,0,0,1,3.39,2.91Zm-3.21,4.29a1.81,1.81,0,0,0,1.64,2h.05a1.77,1.77,0,0,0,1.63-1.92,1.75,1.75,0,0,0-1.63-2A1.74,1.74,0,0,0,649.51,60.07Z"/><polygon class="cls-2" points="624 24.22 603.75 24.22 593.61 32.94 603.75 41.66 624 41.66 634.15 32.94 624 24.22"/><path class="cls-6" d="M609.29,36.13a3.19,3.19,0,0,1-2.61,1.3c-2.93,0-4.67-2.17-4.67-4.94s1.74-5,4.67-5a3.81,3.81,0,0,1,4,3.36h-2a2,2,0,0,0-2-1.63c-1.87,0-2.58,1.63-2.58,3.25s.71,3.19,2.58,3.19a2,2,0,0,0,2.25-1.81,2,2,0,0,0,0-.25h-2.08V32.07h4v5.14h-1.33Z"/><path class="cls-6" d="M612.53,27.7h2.08l4,6.38h0V27.7h1.95v9.51h-2.09l-4-6.37h0v6.37h-2Z"/><path class="cls-6" d="M622.4,27.7h4.11c2.46,0,4.33,1.55,4.33,4.7,0,2.76-1.41,4.81-4.33,4.81H622.4Zm2.09,7.75h1.89c1.21,0,2.37-.74,2.37-2.85,0-1.92-.68-3.15-2.75-3.15h-1.49Z"/><rect class="cls-2" x="621.85" y="458.29" width="14.82" height="17.44" rx="2.47"/><polygon class="cls-2" points="624 458.29 603.75 458.29 593.61 467.01 603.75 475.73 624 475.73 634.15 467.01 624 458.29"/><path class="cls-6" d="M609.29,470.19a3.2,3.2,0,0,1-2.61,1.31c-2.93,0-4.67-2.2-4.67-4.94s1.74-5,4.67-5a3.81,3.81,0,0,1,4,3.36h-2a1.94,1.94,0,0,0-2-1.59c-1.87,0-2.58,1.59-2.58,3.25s.71,3.18,2.58,3.18a2,2,0,0,0,2.25-1.81,1.94,1.94,0,0,0,0-.24h-2.08v-1.56h4v5.14h-1.33Z"/><path class="cls-6" d="M612.53,461.76h2.08l4,6.38h0v-6.38h1.95v9.51h-2.09l-4-6.37h0v6.37h-2Z"/><path class="cls-6" d="M622.4,461.76h4.11c2.46,0,4.33,1.56,4.33,4.7,0,2.76-1.41,4.81-4.33,4.81H622.4Zm2.09,7.75h1.89c1.21,0,2.37-.75,2.37-2.85,0-1.92-.68-3.14-2.75-3.14h-1.49Z"/><rect class="cls-2" x="694.21" y="24.23" width="14.82" height="17.44" rx="2.47"/><polygon class="cls-2" points="707.03 24.23 727.27 24.23 737.41 32.95 727.27 41.66 707.03 41.66 696.89 32.95 707.03 24.23"/><path class="cls-6" d="M707.22,36.12a3.22,3.22,0,0,1-2.62,1.31c-2.93,0-4.67-2.17-4.67-4.94s1.74-5,4.67-5a3.79,3.79,0,0,1,4,3.36h-2a1.93,1.93,0,0,0-2-1.63c-1.88,0-2.58,1.63-2.58,3.25s.7,3.19,2.58,3.19a2.05,2.05,0,0,0,2.26-1.82,1.93,1.93,0,0,0,0-.24h-2.11V32.07h4v5.14h-1.33Z"/><path class="cls-6" d="M710.45,27.69h2.08l4,6.39h0V27.69h2V37.2h-2.08l-4-6.36h0V37.2h-2Z"/><path class="cls-6" d="M720.32,27.69h4.13c2.47,0,4.34,1.56,4.34,4.71,0,2.76-1.41,4.8-4.34,4.8h-4.1Zm2.09,7.76h1.87c1.21,0,2.37-.75,2.37-2.85,0-1.92-.68-3.15-2.75-3.15h-1.49Z"/><rect class="cls-2" x="694.21" y="458.29" width="14.82" height="17.44" rx="2.47"/><polygon class="cls-2" points="707.03 458.29 727.27 458.29 737.41 467.01 727.27 475.73 707.03 475.73 696.89 467.01 707.03 458.29"/><path class="cls-6" d="M707.22,470.19a3.21,3.21,0,0,1-2.62,1.3c-2.93,0-4.67-2.2-4.67-4.94s1.74-5,4.67-5a3.8,3.8,0,0,1,4,3.35h-2a1.94,1.94,0,0,0-2-1.6c-1.88,0-2.58,1.6-2.58,3.26s.7,3.18,2.58,3.18a2.05,2.05,0,0,0,2.26-1.82,1.85,1.85,0,0,0,0-.23h-2.11v-1.56h4v5.14h-1.33Z"/><path class="cls-6" d="M710.45,461.76h2.08l4,6.37h0v-6.37h2v9.51h-2.08l-4-6.37h0v6.37h-2Z"/><path class="cls-6" d="M720.32,461.76h4.13c2.47,0,4.34,1.55,4.34,4.69,0,2.76-1.41,4.82-4.34,4.82h-4.1Zm2.09,7.74h1.87c1.21,0,2.37-.74,2.37-2.85,0-1.91-.68-3.14-2.75-3.14h-1.49Z"/><path class="cls-6" d="M651.1,76.83c2.6,0,3.5,1.8,3.5,2.82a2.22,2.22,0,0,1-1.53,2.2h0a2.43,2.43,0,0,1,2,2.55c0,2.22-2,3.29-3.92,3.29s-4-1-4-3.25a2.46,2.46,0,0,1,2-2.57h0a2.1,2.1,0,0,1-1.55-2.17C647.56,77.8,649.39,76.83,651.1,76.83Zm0,9.29a1.71,1.71,0,0,0,1.79-1.64.53.53,0,0,0,0-.13,1.69,1.69,0,0,0-1.71-1.67h-.09a1.67,1.67,0,0,0-1.86,1.66A1.77,1.77,0,0,0,651,86.12h.1Zm0-4.88a1.42,1.42,0,1,0,.24-2.83,1,1,0,0,0-.24,0,1.46,1.46,0,0,0-1.62,1.29.81.81,0,0,0,0,.16,1.46,1.46,0,0,0,1.63,1.39Z"/><path class="cls-6" d="M648.63,111H646.5v-6.81h-2.63v-1.6c1.48,0,2.83-.48,3.07-2.08h1.69Z"/><path class="cls-6" d="M655.22,100.27c2.1,0,3.86,1.32,3.86,5.42s-1.76,5.49-3.86,5.49-3.83-1.32-3.83-5.49S653.15,100.27,655.22,100.27Zm0,9.13c1.74,0,1.74-2.55,1.74-3.73s0-3.65-1.74-3.65-1.7,2.56-1.7,3.65S653.52,109.4,655.22,109.4Z"/><path class="cls-6" d="M648.63,159.41H646.5V152.6h-2.63V151c1.48.05,2.83-.48,3.07-2.08h1.69Z"/><path class="cls-6" d="M655.75,157H651.3V155l4.55-6.1h1.9v6.3h1.39V157h-1.39v2.44h-2Zm0-5.39h0L653,155.22h2.76Z"/><path class="cls-6" d="M643.32,225.4c-.07-2.39,1.29-4.23,3.79-4.23a3.32,3.32,0,0,1,3.59,3.25c0,3.17-3.36,3.42-4.88,5.57h4.94v1.83h-7.69c0-2.44,1.5-3.44,3.31-4.68.91-.65,2.2-1.28,2.2-2.56a1.5,1.5,0,0,0-1.37-1.62H647c-1.26,0-1.66,1.3-1.66,2.41Z"/><path class="cls-6" d="M655.22,221.18c2.1,0,3.86,1.31,3.86,5.41s-1.76,5.5-3.86,5.5-3.83-1.32-3.83-5.5S653.15,221.18,655.22,221.18Zm0,9.14c1.74,0,1.74-2.56,1.74-3.75s0-3.64-1.74-3.64-1.7,2.55-1.7,3.64,0,3.74,1.7,3.74Z"/><path class="cls-6" d="M643.32,274.23c-.08-2.39,1.29-4.23,3.79-4.23a3.33,3.33,0,0,1,3.59,3.25c0,3.17-3.36,3.43-4.88,5.58h4.94v1.83h-7.69c0-2.44,1.5-3.44,3.31-4.68.91-.65,2.2-1.27,2.2-2.56a1.51,1.51,0,0,0-1.38-1.62H647c-1.26,0-1.66,1.3-1.66,2.41Z"/><path class="cls-6" d="M655.75,278.25H651.3v-1.94l4.55-6.1h1.9v6.29h1.39v1.75h-1.39v2.43h-2Zm0-5.38h0L653,276.5h2.76Z"/><path class="cls-6" d="M683.31,78.23c-2.2,1.93-3.38,5.84-3.42,8.64h-2.28a15.21,15.21,0,0,1,3.52-8.49h-5v-2h7.15Z"/><rect class="cls-3" x="621.85" y="265.59" width="14.82" height="17.44" rx="2.47"/><polygon class="cls-3" points="610.38 265.59 627.92 265.59 636.71 274.31 627.92 283.03 610.38 283.03 601.62 274.31 610.38 265.59"/><path class="cls-6" d="M613.07,269.05h2.08l4,6.38h0v-6.38h2v9.51H619l-4-6.36h0v6.36H613.1Z"/><path class="cls-6" d="M629.28,272.25a2.07,2.07,0,0,0-2.08-1.67c-1.87,0-2.58,1.63-2.58,3.25s.71,3.18,2.58,3.18a2.15,2.15,0,0,0,2.17-2.13h2a4,4,0,0,1-4.19,3.89c-2.93,0-4.67-2.2-4.67-4.94s1.74-5,4.67-5a3.86,3.86,0,0,1,4.1,3.42Z"/><rect class="cls-3" x="621.85" width="14.82" height="17.44" rx="2.47"/><polygon class="cls-3" points="610.38 0.01 627.92 0.01 636.71 8.73 627.92 17.45 610.38 17.45 601.62 8.73 610.38 0.01"/><path class="cls-6" d="M613.07,3.47h2.08l4,6.39h0V3.47h2V13H619l-4-6.37h0V13H613.1Z"/><path class="cls-6" d="M629.28,6.67A2.07,2.07,0,0,0,627.2,5c-1.87,0-2.58,1.6-2.58,3.25s.71,3.18,2.58,3.18a2.15,2.15,0,0,0,2.17-2.13h2a4,4,0,0,1-4.19,3.89c-2.93,0-4.67-2.2-4.67-4.94s1.74-5,4.67-5a3.86,3.86,0,0,1,4.1,3.42Z"/><rect class="cls-3" x="621.85" y="73.02" width="14.82" height="17.44" rx="2.47"/><polygon class="cls-3" points="610.38 73.03 627.92 73.03 636.71 81.76 627.92 90.47 610.38 90.47 601.62 81.76 610.38 73.03"/><path class="cls-6" d="M613.07,76.5h2.08l4,6.38h0V76.5h2V86H619l-4-6.36h0V86H613.1Z"/><path class="cls-6" d="M629.28,79.69A2.08,2.08,0,0,0,627.2,78c-1.87,0-2.58,1.59-2.58,3.25s.71,3.18,2.58,3.18a2.15,2.15,0,0,0,2.17-2.13h2a4,4,0,0,1-4.19,3.89c-2.93,0-4.67-2.2-4.67-4.94s1.74-5,4.67-5a3.87,3.87,0,0,1,4.1,3.43Z"/><rect class="cls-3" x="694.15" y="0.01" width="14.82" height="17.44" rx="2.47"/><polygon class="cls-3" points="720.44 0.01 702.9 0.01 694.12 8.73 702.9 17.44 720.44 17.44 729.2 8.73 720.44 0.01"/><path class="cls-6" d="M700.56,3.47h2.07l4,6.39h0V3.47h2V13h-2.09l-3.93-6.37h0V13h-2Z"/><path class="cls-6" d="M716.77,6.66A2.08,2.08,0,0,0,714.7,5c-1.88,0-2.59,1.6-2.59,3.25s.71,3.19,2.59,3.19a2.15,2.15,0,0,0,2.17-2.13h2a4,4,0,0,1-4.18,3.88c-2.93,0-4.67-2.17-4.67-4.94s1.74-5,4.67-5a3.86,3.86,0,0,1,4.1,3.42Z"/><rect class="cls-3" x="694.15" y="48.45" width="14.82" height="17.44" rx="2.47"/><polygon class="cls-3" points="720.44 48.45 702.9 48.45 694.12 57.18 702.9 65.89 720.44 65.89 729.2 57.18 720.44 48.45"/><path class="cls-6" d="M700.56,51.91h2.07l4,6.39h0V51.91h2v9.51h-2.09l-4-6.36h0v6.36h-2Z"/><path class="cls-6" d="M716.77,55.11a2.08,2.08,0,0,0-2.08-1.66c-1.88,0-2.59,1.62-2.59,3.25s.71,3.18,2.59,3.18a2.15,2.15,0,0,0,2.17-2.13h2a4,4,0,0,1-4.18,3.89c-2.93,0-4.67-2.17-4.67-4.94s1.74-5,4.67-5a3.86,3.86,0,0,1,4.1,3.42Z"/><rect class="cls-3" x="694.15" y="73.03" width="14.82" height="17.44" rx="2.47"/><polygon class="cls-3" points="720.44 73.03 702.9 73.03 694.12 81.75 702.9 90.47 720.44 90.47 729.2 81.75 720.44 73.03"/><path class="cls-6" d="M700.56,76.5h2.07l4,6.39h0V76.5h2V86h-2.09l-4-6.37h0V86h-2Z"/><path class="cls-6" d="M716.77,79.69A2.08,2.08,0,0,0,714.69,78c-1.88,0-2.59,1.59-2.59,3.25s.71,3.18,2.59,3.18a2.15,2.15,0,0,0,2.17-2.13h2a4,4,0,0,1-4.18,3.89c-2.93,0-4.67-2.17-4.67-4.94s1.74-5,4.67-5a3.86,3.86,0,0,1,4.1,3.42Z"/><rect class="cls-3" x="621.85" y="96.54" width="14.82" height="17.44" rx="2.47"/><polygon class="cls-3" points="610.38 96.54 627.92 96.54 636.71 105.27 627.92 113.98 610.38 113.98 601.62 105.27 610.38 96.54"/><path class="cls-6" d="M613.07,100h2.08l4,6.38h0V100h2v9.51H619l-4-6.37h0v6.37H613.1Z"/><path class="cls-6" d="M629.28,103.21a2.07,2.07,0,0,0-2.08-1.67c-1.87,0-2.58,1.62-2.58,3.25s.71,3.18,2.58,3.18a2.15,2.15,0,0,0,2.17-2.13h2a4,4,0,0,1-4.19,3.89c-2.93,0-4.67-2.2-4.67-4.94s1.74-5,4.67-5a3.86,3.86,0,0,1,4.1,3.42Z"/><rect class="cls-3" x="694.15" y="96.54" width="14.82" height="17.44" rx="2.47"/><polygon class="cls-3" points="720.44 96.54 702.9 96.54 694.12 105.27 702.9 113.98 720.44 113.98 729.2 105.27 720.44 96.54"/><path class="cls-6" d="M700.56,100h2.07l4,6.39h0V100h2v9.51h-2.09l-4-6.36h0v6.36h-2Z"/><path class="cls-6" d="M716.77,103.2a2.08,2.08,0,0,0-2.08-1.66c-1.88,0-2.59,1.62-2.59,3.25s.71,3.18,2.59,3.18a2.15,2.15,0,0,0,2.17-2.13h2a4,4,0,0,1-4.18,3.89c-2.93,0-4.67-2.2-4.67-4.94s1.74-5,4.67-5a3.87,3.87,0,0,1,4.1,3.43Z"/><rect class="cls-3" x="621.85" y="120.06" width="14.82" height="17.44" rx="2.47"/><polygon class="cls-3" points="610.38 120.06 627.92 120.06 636.71 128.79 627.92 137.5 610.38 137.5 601.62 128.79 610.38 120.06"/><path class="cls-6" d="M613.07,123.52h2.08l4,6.39h0v-6.39h2V133H619l-4-6.36h0V133H613.1Z"/><path class="cls-6" d="M629.28,126.72a2.08,2.08,0,0,0-2.08-1.66c-1.87,0-2.58,1.6-2.58,3.25s.71,3.19,2.58,3.19a2.15,2.15,0,0,0,2.17-2.14h2a4,4,0,0,1-4.19,3.89c-2.93,0-4.67-2.19-4.67-4.94s1.74-5,4.67-5a3.86,3.86,0,0,1,4.1,3.42Z"/><rect class="cls-3" x="694.15" y="120.06" width="14.82" height="17.44" rx="2.47"/><polygon class="cls-3" points="720.44 120.06 702.9 120.06 694.12 128.79 702.9 137.5 720.44 137.5 729.2 128.79 720.44 120.06"/><path class="cls-6" d="M700.56,123.52h2.07l4,6.39h0v-6.39h2V133h-2.09l-4-6.36h0V133h-2Z"/><path class="cls-6" d="M716.77,126.72a2.08,2.08,0,0,0-2.08-1.66c-1.88,0-2.59,1.6-2.59,3.25s.71,3.19,2.59,3.19a2.15,2.15,0,0,0,2.17-2.14h2a4,4,0,0,1-4.18,3.89c-2.93,0-4.67-2.2-4.67-4.94s1.74-5,4.67-5a3.86,3.86,0,0,1,4.1,3.42Z"/><rect class="cls-3" x="694.15" y="144.15" width="14.82" height="17.44" rx="2.47"/><polygon class="cls-3" points="720.44 144.15 702.9 144.15 694.12 152.87 702.9 161.59 720.44 161.59 729.2 152.87 720.44 144.15"/><path class="cls-6" d="M700.56,147.61h2.07l4,6.39h0v-6.39h2v9.51h-2.09l-4-6.36h0v6.36h-2Z"/><path class="cls-6" d="M716.77,150.81a2.06,2.06,0,0,0-2.08-1.66c-1.88,0-2.59,1.59-2.59,3.25s.71,3.18,2.59,3.18a2.15,2.15,0,0,0,2.17-2.13h2a4,4,0,0,1-4.18,3.89c-2.93,0-4.67-2.2-4.67-4.94s1.74-5,4.67-5a3.87,3.87,0,0,1,4.1,3.43Z"/><rect class="cls-3" x="621.85" y="168.24" width="14.82" height="17.44" rx="2.47"/><polygon class="cls-3" points="610.38 168.24 627.92 168.24 636.71 176.96 627.92 185.68 610.38 185.68 601.62 176.96 610.38 168.24"/><path class="cls-6" d="M613.07,171.71h2.08l4,6.37h0v-6.37h2v9.51H619l-4-6.37h0v6.37H613.1Z"/><path class="cls-6" d="M629.28,174.9a2.08,2.08,0,0,0-2.08-1.67c-1.87,0-2.58,1.63-2.58,3.25s.71,3.19,2.58,3.19a2.15,2.15,0,0,0,2.17-2.13h2a4,4,0,0,1-4.19,3.89c-2.93,0-4.67-2.2-4.67-5s1.74-5,4.67-5a3.87,3.87,0,0,1,4.1,3.43Z"/><rect class="cls-3" x="621.85" y="144.4" width="14.82" height="17.44" rx="2.47"/><polygon class="cls-3" points="610.38 144.4 627.92 144.4 636.71 153.12 627.92 161.83 610.38 161.83 601.62 153.12 610.38 144.4"/><path class="cls-6" d="M613.07,147.86h2.08l4,6.38h0v-6.38h2v9.51H619l-4-6.37h0v6.37H613.1Z"/><path class="cls-6" d="M629.28,151.06a2.07,2.07,0,0,0-2.08-1.67c-1.87,0-2.58,1.63-2.58,3.25s.71,3.18,2.58,3.18a2.15,2.15,0,0,0,2.17-2.13h2a4,4,0,0,1-4.19,3.9c-2.93,0-4.67-2.2-4.67-5s1.74-5,4.67-5a3.87,3.87,0,0,1,4.1,3.43Z"/><rect class="cls-3" x="694.15" y="168.24" width="14.82" height="17.44" rx="2.47"/><polygon class="cls-3" points="720.44 168.24 702.9 168.24 694.12 176.96 702.9 185.68 720.44 185.68 729.2 176.96 720.44 168.24"/><path class="cls-6" d="M700.56,171.71h2.07l4,6.37h0v-6.37h2v9.51h-2.09l-4-6.37h0v6.37h-2Z"/><path class="cls-6" d="M716.77,174.9a2.09,2.09,0,0,0-2.08-1.67c-1.88,0-2.59,1.63-2.59,3.25s.71,3.19,2.59,3.19a2.15,2.15,0,0,0,2.17-2.13h2a4,4,0,0,1-4.18,3.89c-2.93,0-4.67-2.2-4.67-5s1.74-5,4.67-5a3.87,3.87,0,0,1,4.1,3.43Z"/><rect class="cls-3" x="621.85" y="192.33" width="14.82" height="17.44" rx="2.47"/><polygon class="cls-3" points="610.38 192.33 627.92 192.33 636.71 201.05 627.92 209.76 610.38 209.76 601.62 201.05 610.38 192.33"/><path class="cls-6" d="M613.07,195.79h2.08l4,6.38h0v-6.38h2v9.51H619l-4-6.34h0v6.34H613.1Z"/><path class="cls-6" d="M629.28,199a2.07,2.07,0,0,0-2.08-1.67c-1.87,0-2.58,1.6-2.58,3.26s.71,3.18,2.58,3.18a2.15,2.15,0,0,0,2.17-2.13h2a4,4,0,0,1-4.19,3.89c-2.93,0-4.67-2.2-4.67-4.94s1.74-5,4.67-5a3.87,3.87,0,0,1,4.1,3.43Z"/><rect class="cls-3" x="694.15" y="192.33" width="14.82" height="17.44" rx="2.47"/><polygon class="cls-3" points="720.44 192.33 702.9 192.33 694.12 201.05 702.9 209.76 720.44 209.76 729.2 201.05 720.44 192.33"/><path class="cls-6" d="M700.56,195.79h2.07l4,6.38h0v-6.38h2v9.51h-2.09l-4-6.37h0v6.37h-2Z"/><path class="cls-6" d="M716.77,199a2.07,2.07,0,0,0-2.07-1.65c-1.88,0-2.59,1.59-2.59,3.25s.71,3.18,2.59,3.18a2.15,2.15,0,0,0,2.17-2.13h2a4,4,0,0,1-4.18,3.89c-2.93,0-4.67-2.2-4.67-4.94s1.74-5,4.67-5a3.87,3.87,0,0,1,4.1,3.43Z"/><rect class="cls-3" x="621.85" y="216.73" width="14.82" height="17.44" rx="2.47"/><polygon class="cls-3" points="610.38 216.73 627.92 216.73 636.71 225.45 627.92 234.16 610.38 234.16 601.62 225.45 610.38 216.73"/><path class="cls-6" d="M613.07,220.2h2.08l4,6.39h0V220.2h2v9.51H619l-4-6.37h0v6.37H613.1Z"/><path class="cls-6" d="M629.28,223.39a2.08,2.08,0,0,0-2.08-1.67c-1.87,0-2.58,1.6-2.58,3.25s.71,3.19,2.58,3.19a2.15,2.15,0,0,0,2.17-2.13h2a4,4,0,0,1-4.19,3.89c-2.93,0-4.67-2.2-4.67-4.95s1.74-5,4.67-5a3.87,3.87,0,0,1,4.1,3.43Z"/><rect class="cls-3" x="694.15" y="216.73" width="14.82" height="17.44" rx="2.47"/><polygon class="cls-3" points="720.44 216.73 702.9 216.73 694.12 225.45 702.9 234.16 720.44 234.16 729.2 225.45 720.44 216.73"/><path class="cls-6" d="M700.56,220.2h2.07l4,6.37h0V220.2h2v9.51h-2.09l-4-6.37h0v6.37h-2Z"/><path class="cls-6" d="M716.77,223.39a2.08,2.08,0,0,0-2.07-1.67c-1.88,0-2.59,1.6-2.59,3.25s.71,3.18,2.59,3.18a2.15,2.15,0,0,0,2.17-2.13h2a4,4,0,0,1-4.18,3.89c-2.93,0-4.67-2.2-4.67-4.94s1.74-5,4.67-5a3.86,3.86,0,0,1,4.1,3.42Z"/><rect class="cls-3" x="621.85" y="241.93" width="14.82" height="17.44" rx="2.47"/><polygon class="cls-3" points="610.38 241.94 627.92 241.94 636.71 250.66 627.92 259.37 610.38 259.37 601.62 250.66 610.38 241.94"/><path class="cls-6" d="M613.07,245.4h2.08l4,6.37h0V245.4h2v9.51H619l-4-6.37h0v6.37H613.1Z"/><path class="cls-6" d="M629.28,248.59a2.08,2.08,0,0,0-2.08-1.66c-1.87,0-2.58,1.63-2.58,3.25s.71,3.18,2.58,3.18a2.15,2.15,0,0,0,2.17-2.13h2a4,4,0,0,1-4.19,3.89c-2.93,0-4.67-2.2-4.67-4.94s1.74-5,4.67-5a3.86,3.86,0,0,1,4.1,3.42Z"/><rect class="cls-3" x="694.15" y="241.93" width="14.82" height="17.44" rx="2.47"/><polygon class="cls-3" points="720.44 241.94 702.9 241.94 694.12 250.66 702.9 259.37 720.44 259.37 729.2 250.66 720.44 241.94"/><path class="cls-6" d="M700.56,245.4h2.07l4,6.37h0V245.4h2v9.51h-2.09l-4-6.37h0v6.37h-2Z"/><path class="cls-6" d="M716.77,248.59a2.08,2.08,0,0,0-2.08-1.66c-1.88,0-2.59,1.63-2.59,3.25s.71,3.18,2.59,3.18a2.15,2.15,0,0,0,2.17-2.13h2a4,4,0,0,1-4.18,3.89c-2.93,0-4.67-2.2-4.67-4.94s1.74-5,4.67-5a3.86,3.86,0,0,1,4.1,3.42Z"/><rect class="cls-3" x="694.15" y="265.59" width="14.82" height="17.44" rx="2.47"/><polygon class="cls-3" points="720.44 265.59 702.9 265.59 694.12 274.31 702.9 283.03 720.44 283.03 729.2 274.31 720.44 265.59"/><path class="cls-6" d="M700.56,269.05h2.07l4,6.38h0v-6.38h2v9.51h-2.09l-4-6.36h0v6.36h-2Z"/><path class="cls-6" d="M716.77,272.25a2.07,2.07,0,0,0-2.08-1.66c-1.88,0-2.59,1.6-2.59,3.25s.71,3.18,2.59,3.18a2.15,2.15,0,0,0,2.17-2.13h2a4,4,0,0,1-4.18,3.89c-2.93,0-4.67-2.2-4.67-4.94s1.74-5,4.67-5a3.86,3.86,0,0,1,4.1,3.42Z"/><path class="cls-6" d="M700.56,269h2.07l4,6.38h0V269h2v9.51h-2.09l-4-6.36h0v6.36h-2Z"/><path class="cls-6" d="M716.77,272.24a2.06,2.06,0,0,0-2.08-1.66c-1.88,0-2.59,1.62-2.59,3.25s.71,3.18,2.59,3.18a2.15,2.15,0,0,0,2.17-2.13h2a4,4,0,0,1-4.18,3.89c-2.93,0-4.67-2.2-4.67-4.94s1.74-5,4.67-5a3.87,3.87,0,0,1,4.1,3.43Z"/><rect class="cls-3" x="621.85" y="289.24" width="14.82" height="17.44" rx="2.47"/><polygon class="cls-3" points="610.38 289.25 627.92 289.25 636.71 297.97 627.92 306.68 610.38 306.68 601.62 297.97 610.38 289.25"/><path class="cls-6" d="M613.07,292.71h2.08l4,6.38h0v-6.38h2v9.51H619l-4-6.37h0v6.37H613.1Z"/><path class="cls-6" d="M629.28,295.91a2.07,2.07,0,0,0-2.08-1.67c-1.87,0-2.58,1.62-2.58,3.25s.71,3.18,2.58,3.18a2.15,2.15,0,0,0,2.17-2.13h2a4,4,0,0,1-4.19,3.89c-2.93,0-4.67-2.2-4.67-4.94s1.74-5,4.67-5a3.87,3.87,0,0,1,4.1,3.43Z"/><rect class="cls-3" x="621.85" y="312.76" width="14.82" height="17.44" rx="2.47"/><polygon class="cls-3" points="610.38 312.77 627.92 312.77 636.71 321.49 627.92 330.2 610.38 330.2 601.62 321.49 610.38 312.77"/><path class="cls-6" d="M613.07,316.23h2.08l4,6.38h0v-6.38h2v9.51H619l-4-6.37h0v6.37H613.1Z"/><path class="cls-6" d="M629.28,319.43a2.07,2.07,0,0,0-2.08-1.67c-1.87,0-2.58,1.62-2.58,3.25s.71,3.18,2.58,3.18a2.15,2.15,0,0,0,2.17-2.13h2a4,4,0,0,1-4.19,3.89c-2.93,0-4.67-2.2-4.67-4.94s1.74-5,4.67-5a3.86,3.86,0,0,1,4.1,3.42Z"/><rect class="cls-3" x="694.15" y="289.25" width="14.82" height="17.44" rx="2.47"/><polygon class="cls-3" points="720.44 289.25 702.9 289.25 694.12 297.97 702.9 306.68 720.44 306.68 729.2 297.97 720.44 289.25"/><path class="cls-6" d="M700.56,292.71h2.07l4,6.38h0v-6.38h2v9.51h-2.09l-4-6.37h0v6.37h-2Z"/><path class="cls-6" d="M716.77,295.91a2.08,2.08,0,0,0-2.08-1.67c-1.88,0-2.59,1.6-2.59,3.25s.71,3.18,2.59,3.18a2.15,2.15,0,0,0,2.17-2.13h2a4,4,0,0,1-4.18,3.89c-2.93,0-4.67-2.2-4.67-4.94s1.74-5,4.67-5a3.86,3.86,0,0,1,4.1,3.42Z"/><path class="cls-6" d="M700.56,292.7h2.07l4,6.37h0V292.7h2v9.51h-2.09l-4-6.37h0v6.37h-2Z"/><path class="cls-6" d="M716.77,295.89a2.08,2.08,0,0,0-2.08-1.66c-1.88,0-2.59,1.63-2.59,3.25s.71,3.18,2.59,3.18a2.15,2.15,0,0,0,2.17-2.13h2a4,4,0,0,1-4.18,3.89c-2.93,0-4.67-2.2-4.67-4.94s1.74-5,4.67-5a3.86,3.86,0,0,1,4.1,3.42Z"/><rect class="cls-3" x="621.85" y="337.06" width="14.82" height="17.44" rx="2.47"/><polygon class="cls-3" points="610.38 337.06 627.92 337.06 636.71 345.79 627.92 354.5 610.38 354.5 601.62 345.79 610.38 337.06"/><path class="cls-6" d="M613.07,340.53h2.08l4,6.35h0v-6.35h2V350H619l-4-6.37h0V350H613.1Z"/><path class="cls-6" d="M629.28,343.73a2.07,2.07,0,0,0-2.08-1.67c-1.87,0-2.58,1.62-2.58,3.25s.71,3.18,2.58,3.18a2.15,2.15,0,0,0,2.17-2.13h2a4,4,0,0,1-4.19,3.89c-2.93,0-4.67-2.2-4.67-4.94s1.74-5,4.67-5a3.86,3.86,0,0,1,4.1,3.42Z"/><rect class="cls-3" x="694.15" y="337.06" width="14.82" height="17.44" rx="2.47"/><polygon class="cls-3" points="720.44 337.06 702.9 337.06 694.12 345.79 702.9 354.5 720.44 354.5 729.2 345.79 720.44 337.06"/><path class="cls-6" d="M700.56,340.53h2.07l4,6.38h0v-6.38h2V350h-2.09l-4-6.37h0V350h-2Z"/><path class="cls-6" d="M716.77,343.73a2.08,2.08,0,0,0-2.08-1.67c-1.88,0-2.59,1.62-2.59,3.25s.71,3.18,2.59,3.18a2.15,2.15,0,0,0,2.17-2.13h2a4,4,0,0,1-4.18,3.89c-2.93,0-4.67-2.2-4.67-4.94s1.74-5,4.67-5a3.86,3.86,0,0,1,4.1,3.42Z"/><rect class="cls-3" x="694.15" y="312.76" width="14.82" height="17.44" rx="2.47"/><polygon class="cls-3" points="720.44 312.76 702.9 312.76 694.12 321.49 702.9 330.2 720.44 330.2 729.2 321.49 720.44 312.76"/><path class="cls-6" d="M700.56,316.23h2.07l4,6.37h0v-6.37h2v9.52h-2.09l-4-6.36h0v6.36h-2Z"/><path class="cls-6" d="M716.77,319.42a2.08,2.08,0,0,0-2.08-1.66c-1.88,0-2.59,1.63-2.59,3.25s.71,3.18,2.59,3.18a2.15,2.15,0,0,0,2.17-2.13h2A4,4,0,0,1,714.7,326c-2.93,0-4.67-2.2-4.67-4.94s1.74-5,4.67-5a3.86,3.86,0,0,1,4.1,3.42Z"/><rect class="cls-3" x="621.85" y="409.43" width="14.82" height="17.44" rx="2.47"/><polygon class="cls-3" points="610.38 409.43 627.92 409.43 636.71 418.15 627.92 426.87 610.38 426.87 601.62 418.15 610.38 409.43"/><path class="cls-6" d="M613.07,412.9h2.08l4,6.38h0V412.9h2v9.51H619l-4-6.37h0v6.37H613.1Z"/><path class="cls-6" d="M629.28,416.09a2.08,2.08,0,0,0-2.08-1.66c-1.87,0-2.58,1.62-2.58,3.25s.71,3.18,2.58,3.18a2.15,2.15,0,0,0,2.17-2.13h2a4,4,0,0,1-4.19,3.89c-2.93,0-4.67-2.2-4.67-4.94s1.74-5,4.67-5a3.87,3.87,0,0,1,4.1,3.43Z"/><rect class="cls-3" x="694.15" y="409.43" width="14.82" height="17.44" rx="2.47"/><polygon class="cls-3" points="720.44 409.43 702.9 409.43 694.12 418.15 702.9 426.87 720.44 426.87 729.2 418.15 720.44 409.43"/><path class="cls-6" d="M700.56,412.9h2.07l4,6.38h0V412.9h2v9.51h-2.09l-4-6.37h0v6.37h-2Z"/><path class="cls-6" d="M716.77,416.09a2.08,2.08,0,0,0-2.08-1.66c-1.88,0-2.59,1.62-2.59,3.25s.71,3.18,2.59,3.18a2.15,2.15,0,0,0,2.17-2.13h2a4,4,0,0,1-4.18,3.89c-2.93,0-4.67-2.2-4.67-4.94s1.74-5,4.67-5a3.87,3.87,0,0,1,4.1,3.43Z"/><rect class="cls-3" x="621.85" y="434.64" width="14.82" height="17.44" rx="2.47"/><polygon class="cls-3" points="610.38 434.64 627.92 434.64 636.71 443.36 627.92 452.07 610.38 452.07 601.62 443.36 610.38 434.64"/><path class="cls-6" d="M613.07,438.1h2.08l4,6.38h0V438.1h2v9.51H619l-4-6.36h0v6.36H613.1Z"/><path class="cls-6" d="M629.28,441.3a2.08,2.08,0,0,0-2.08-1.67c-1.87,0-2.58,1.63-2.58,3.25s.71,3.18,2.58,3.18a2.15,2.15,0,0,0,2.17-2.13h2a4,4,0,0,1-4.19,3.9c-2.93,0-4.67-2.2-4.67-4.95s1.74-5,4.67-5a3.87,3.87,0,0,1,4.1,3.43Z"/><rect class="cls-3" x="694.15" y="434.64" width="14.82" height="17.44" rx="2.47"/><polygon class="cls-3" points="720.44 434.64 702.9 434.64 694.12 443.36 702.9 452.07 720.44 452.07 729.2 443.36 720.44 434.64"/><path class="cls-6" d="M700.56,438.1h2.07l4,6.38h0V438.1h2v9.51h-2.09l-4-6.36h0v6.36h-2Z"/><path class="cls-6" d="M716.77,441.3a2.09,2.09,0,0,0-2.08-1.67c-1.88,0-2.59,1.63-2.59,3.25s.71,3.18,2.59,3.18a2.15,2.15,0,0,0,2.17-2.13h2a4,4,0,0,1-4.18,3.9c-2.93,0-4.67-2.2-4.67-4.95s1.74-5,4.67-5a3.87,3.87,0,0,1,4.1,3.43Z"/><rect class="cls-3" x="621.85" y="385.03" width="14.82" height="17.44" rx="2.47"/><polygon class="cls-3" points="610.38 385.03 627.92 385.03 636.71 393.75 627.92 402.47 610.38 402.47 601.62 393.75 610.38 385.03"/><path class="cls-6" d="M613.07,388.5h2.08l4,6.38h0V388.5h2V398H619l-4-6.37h0V398H613.1Z"/><path class="cls-6" d="M629.28,391.7A2.07,2.07,0,0,0,627.2,390c-1.87,0-2.58,1.62-2.58,3.25s.71,3.18,2.58,3.18a2.15,2.15,0,0,0,2.17-2.13h2a4,4,0,0,1-4.19,3.89c-2.93,0-4.67-2.2-4.67-4.94s1.74-5,4.67-5a3.87,3.87,0,0,1,4.1,3.43Z"/><rect class="cls-3" x="694.15" y="385.03" width="14.82" height="17.44" rx="2.47"/><polygon class="cls-3" points="720.44 385.03 702.9 385.03 694.12 393.75 702.9 402.47 720.44 402.47 729.2 393.75 720.44 385.03"/><path class="cls-6" d="M700.56,388.5h2.07l4,6.38h0V388.5h2V398h-2.09l-4-6.37h0V398h-2Z"/><path class="cls-6" d="M716.77,391.7a2.08,2.08,0,0,0-2.08-1.67c-1.88,0-2.59,1.62-2.59,3.25s.71,3.18,2.59,3.18a2.15,2.15,0,0,0,2.17-2.13h2a4,4,0,0,1-4.18,3.89c-2.93,0-4.67-2.2-4.67-4.94s1.74-5,4.67-5a3.87,3.87,0,0,1,4.1,3.43Z"/><path class="cls-6" d="M677.28,158.75h-2.14V152h-2.62v-1.62c1.48,0,2.82-.48,3.06-2.08h1.69Z"/><path class="cls-6" d="M683.14,152.51c.92.08,2.23-.1,2.23-1.3a1.37,1.37,0,0,0-1.36-1.39h-.12c-1.08,0-1.63.79-1.63,1.87h-2a3.45,3.45,0,0,1,3.62-3.62c1.67,0,3.51,1,3.51,2.9a2.09,2.09,0,0,1-1.46,2.14v0a2.33,2.33,0,0,1,1.85,2.38c0,2.2-1.85,3.44-3.89,3.44-2.35,0-3.94-1.41-3.89-3.79h2c0,1.13.62,2.06,1.84,2.06a1.62,1.62,0,0,0,1.71-1.54v-.08c0-1.59-1.39-1.56-2.43-1.56Z"/><path class="cls-6" d="M677.28,182.71h-2.14v-6.8h-2.62v-1.6c1.48.05,2.82-.47,3.06-2.08h1.69Z"/><path class="cls-6" d="M687.21,174h-4.33l-.42,2.38,0,0a2.62,2.62,0,0,1,2-.8,3.25,3.25,0,0,1,3.25,3.56,3.78,3.78,0,0,1-3.82,3.76h-.07c-2,0-3.84-1.12-3.88-3.32h2.12a1.66,1.66,0,0,0,1.72,1.57,1.89,1.89,0,0,0,1.81-2v0a1.8,1.8,0,0,0-1.63-2h-.18a1.76,1.76,0,0,0-1.63.84h-1.91l1-5.79h5.84Z"/><path class="cls-4" d="M606.36,48.48h28c1.3,0,2.34.59,2.34,1.33V64.52c0,.74-1,1.35-2.34,1.35h-28"/><polygon class="cls-4" points="620.9 48.47 603.4 48.47 594.64 57.16 603.4 65.87 620.9 65.87 629.66 57.16 620.9 48.47"/><polygon class="cls-4" points="610.76 48.47 593.26 48.47 584.5 57.16 593.26 65.87 610.76 65.87 619.52 57.16 610.76 48.47"/><g class="cls-7"><path class="cls-6" d="M597.82,55.9c.85.07,2.08-.1,2.08-1.21a1.29,1.29,0,0,0-1.38-1.3c-1,0-1.52.74-1.51,1.74h-1.88a3.22,3.22,0,0,1,3.37-3.37c1.57,0,3.28,1,3.28,2.7a1.94,1.94,0,0,1-1.36,2v0a2.18,2.18,0,0,1,1.73,2.22c0,2-1.73,3.21-3.63,3.21a3.31,3.31,0,0,1-3.63-3.56h1.88c0,1.06.57,1.93,1.72,1.93a1.5,1.5,0,0,0,1.59-1.54c0-1.48-1.3-1.45-2.26-1.45Z"/><path class="cls-6" d="M607.14,61.72h-2.2l-2.47-7.21h2.08l1.52,4.92h0l1.52-4.92h2Z"/><path class="cls-6" d="M612.84,55.9c.85.07,2.08-.1,2.08-1.21a1.29,1.29,0,0,0-1.38-1.3A1.5,1.5,0,0,0,612,55.13h-1.89a3.24,3.24,0,0,1,3.38-3.37c1.57,0,3.28,1,3.28,2.7a1.94,1.94,0,0,1-1.37,2v0a2.18,2.18,0,0,1,1.74,2.22c0,2-1.74,3.21-3.63,3.21a3.3,3.3,0,0,1-3.63-3.56h1.88c0,1.06.57,1.93,1.72,1.93a1.5,1.5,0,0,0,1.59-1.54c0-1.48-1.3-1.45-2.26-1.45Z"/><path class="cls-6" d="M617.41,62.77h7v.7h-7Z"/><path class="cls-6" d="M626.85,58.42c0,1.32,1,1.84,2.21,1.84.76,0,1.94-.22,1.94-1.24s-1.51-1.25-3-1.65-3-1-3-2.84c0-2.05,1.93-3,3.73-3,2.08,0,4,.91,4,3.21h-2.12c-.07-1.19-.91-1.51-2-1.51-.69,0-1.5.29-1.5,1.13s.47.88,3,1.51c.74.17,3,.66,3,2.9,0,1.83-1.42,3.2-4.15,3.2-2.2,0-4.28-1.09-4.24-3.54Z"/></g><path class="cls-5" d="M636.71,363.34V376c0,1.31-.69,2.37-1.54,2.37H615.8V361h19.37c.85,0,1.54,1.06,1.54,2.37Z"/><polygon class="cls-5" points="612.85 360.95 630.32 360.95 630.29 369.64 630.32 378.35 612.85 378.35 604.11 369.64 612.85 360.95"/><path class="cls-5" d="M724.79,360.91V378.4H695.86c-.93,0-1.68-1.06-1.68-2.38V363.29c0-1.31.75-2.38,1.68-2.38Z"/><polygon class="cls-5" points="729.57 360.92 711.99 360.92 703.19 369.65 711.99 378.4 729.57 378.4 738.37 369.65 729.57 360.92"/><path class="cls-6" d="M705.15,365c2.9,0,4.62,2.18,4.62,5s-1.72,4.89-4.62,4.89a4.55,4.55,0,0,1-4.63-4.89C700.52,367.14,702.25,365,705.15,365Zm0,8.12c1.86,0,2.56-1.58,2.56-3.15s-.7-3.23-2.56-3.23-2.56,1.58-2.56,3.23S703.29,373.08,705.15,373.08Z"/><path class="cls-6" d="M719.17,371c0,2.54-1.5,3.78-4,3.78s-4-1.21-4-3.78v-5.85h2.07V371c0,1,.26,2,1.93,2,1.48,0,2-.63,2-2v-5.85h2.07Z"/><path class="cls-6" d="M723,366.93h-2.82v-1.74h7.71v1.74h-2.82v7.66H723Z"/><path class="cls-6" d="M614.79,364.6h7.09v1.75h-5v2h4.59V370h-4.59v2.33H622v1.75h-7.2Z"/><path class="cls-6" d="M623.39,364.6h2.07l4,6.36h0V364.6h2v9.48h-2.09l-3.94-6.35h0v6.35h-2Z"/><path class="cls-8" d="M0,69.55V406.18H470.09V69.55Zm66.13,46.32A19.76,19.76,0,1,1,85.89,96.11,19.75,19.75,0,0,1,66.13,115.87Zm228.3-10.11a10.66,10.66,0,1,1,10.66-10.65A10.66,10.66,0,0,1,294.43,105.76ZM375,391.34a10.66,10.66,0,1,1,10.66-10.66A10.66,10.66,0,0,1,375,391.34Zm68.91-232.5a10.66,10.66,0,1,1,10.66-10.66A10.66,10.66,0,0,1,443.94,158.84Z"/><path class="cls-9" d="M88.85,69.55H43.4a35,35,0,1,0,45.45,0ZM66.13,115.87A19.76,19.76,0,1,1,85.89,96.11,19.75,19.75,0,0,1,66.13,115.87Z"/><path class="cls-9" d="M294.43,77.66a17.45,17.45,0,1,0,17.45,17.45A17.45,17.45,0,0,0,294.43,77.66Zm0,28.1a10.66,10.66,0,1,1,10.66-10.65A10.66,10.66,0,0,1,294.43,105.76Z"/><path class="cls-9" d="M443.94,129.8a18.38,18.38,0,1,0,18.38,18.38A18.38,18.38,0,0,0,443.94,129.8Zm0,29a10.66,10.66,0,1,1,10.66-10.66A10.66,10.66,0,0,1,443.94,158.84Z"/><path class="cls-9" d="M375,362.37a18.31,18.31,0,1,0,18.31,18.31A18.31,18.31,0,0,0,375,362.37Zm0,29a10.66,10.66,0,1,1,10.66-10.66A10.66,10.66,0,0,1,375,391.34Z"/><path class="cls-10" d="M142.36,77.31l39.29,81.05H102.92Zm0-4.41L99.82,160.25h85Z"/><rect class="cls-10" x="148.07" y="97.2" width="1.93" height="55.98" transform="translate(-33.34 193.19) rotate(-60.48)"/><rect class="cls-10" x="148.77" y="99.53" width="1.93" height="61.91" transform="translate(-37.59 196.49) rotate(-60.48)"/><path class="cls-10" d="M131.12,115l-1.73-.9a108.58,108.58,0,0,1,5.66-9.44c2.58-3.66,16.82-6.9,18.44-7.1l.41,1.89c-5.82,1.24-15.65,4-17.23,6.34a93.87,93.87,0,0,0-5.48,9.21"/><path class="cls-10" d="M155.59,129.44l-1-1.69a7.2,7.2,0,0,0,3.45-6.55,27.74,27.74,0,0,1,1.44-8.9l1.86.62A24.87,24.87,0,0,0,160,121a9.14,9.14,0,0,1-4.55,8.42"/><path class="cls-10" d="M134.94,139.74h-.72c-4-.51-9.13-13.13-9.17-13.27a8.79,8.79,0,0,1,2.48-8.86l1.35,1.42a6.9,6.9,0,0,0-2,6.89c2.21,5.51,5.93,11.86,7.62,12.06.9,0,1.42,0,1.55-.27s0-1-.79-1.93a22,22,0,0,1-4.14-10,17.51,17.51,0,0,1,2.31-4.69l1.66,1a17,17,0,0,0-1.9,3.93,21.89,21.89,0,0,0,3.69,8.34c1.66,2.07,1.31,3.45,1,4.07a2.93,2.93,0,0,1-2.76,1.31"/><path class="cls-10" d="M142.53,143.6a2.61,2.61,0,0,1-1.17-.27c-.73-.38-1.49-1.24-1.24-3.45.51-4.34,6.13-11.2,6.37-11.51l1.49,1.24a30.09,30.09,0,0,0-5.93,10.51c0,.86,0,1.35.2,1.41a6.2,6.2,0,0,0,3.45-1.62,60.26,60.26,0,0,0,6.2-8.27l1.62,1a61.67,61.67,0,0,1-6.34,8.75,7.93,7.93,0,0,1-4.55,2.17"/><path class="cls-10" d="M141.91,136.64a21.27,21.27,0,0,1-8-3.21l1-1.65c3.14,1.93,6.58,3.45,7.24,2.86a1.74,1.74,0,0,0,0-1.38,6.91,6.91,0,0,0-4-3.45,4.32,4.32,0,0,1-2.14-7.2l1.62,1c-.52.83-1.07,1.8-.79,2.59s.89,1.28,2.1,1.79a8.52,8.52,0,0,1,5.24,4.66,3.44,3.44,0,0,1-.38,3,1.93,1.93,0,0,1-1.24.9h-.69"/><rect class="cls-10" x="138.67" y="81.73" width="7.76" height="1.93"/><rect class="cls-10" x="136.36" y="86.45" width="11.96" height="1.93"/><rect class="cls-10" x="134.05" y="91.17" width="16.58" height="1.93"/><rect class="cls-10" x="131.77" y="95.89" width="21.17" height="1.93"/><rect class="cls-10" x="129.84" y="100.62" width="12.55" height="1.93"/><rect class="cls-10" x="127.15" y="105.34" width="7.89" height="1.93"/><rect class="cls-10" x="125.29" y="110.1" width="6.69" height="1.93"/><rect class="cls-10" x="120.26" y="119.54" width="6.27" height="1.93"/><rect class="cls-10" x="159.42" y="119.54" width="5.03" height="1.93"/><rect class="cls-10" x="117.95" y="124.26" width="8" height="1.93"/><rect class="cls-10" x="158.56" y="124.26" width="8" height="1.93"/><rect class="cls-10" x="116.09" y="128.99" width="11.58" height="1.93"/><rect class="cls-10" x="157.52" y="128.99" width="11.51" height="1.93"/><rect class="cls-10" x="113.33" y="133.71" width="16.99" height="1.93"/><rect class="cls-10" x="151.18" y="133.71" width="6.07" height="1.93"/><path class="cls-10" d="M171.54,136.14h-6.17v-2.93h6.17Zm-5.17-1h4.17v-.93h-4.17Z"/><rect class="cls-10" x="111.06" y="138.47" width="29.99" height="1.93"/><rect class="cls-10" x="147.66" y="138.47" width="18.24" height="1.93"/><rect class="cls-10" x="109.5" y="143.19" width="64.19" height="1.93"/><rect class="cls-10" x="106.44" y="147.91" width="71.77" height="1.93"/><rect class="cls-10" x="103.96" y="152.63" width="76.53" height="1.93"/><g id="dispose-properly"><g id="Layer_2-2" data-name="Layer 2-2"><g id="Layer_1-2" data-name="Layer 1-2"><path class="cls-10" d="M216.83,150.84a2.86,2.86,0,1,0,3.12,3.28,2.26,2.26,0,0,0,0-.52v-.3a2.88,2.88,0,0,0-3.12-2.46m.26,3.28a.66.66,0,0,1-.66-.65.67.67,0,0,1,.56-.66h0a.76.76,0,0,1,.56.29.66.66,0,0,1,0,.92.53.53,0,0,1-.39,0"/><path class="cls-10" d="M206.58,97h-2.47v9h6.15q1,10.47,1.93,21c.46,4.76.89,9.63,1.35,14.49l-8.84,9.23,1.38,1.38,7.69-8.05v1.84a8.26,8.26,0,0,0-4.66,4.8,8.38,8.38,0,1,0,15.4,6.59c.1-.24.19-.47.27-.71H241.6v6h4.93v-6a1.21,1.21,0,0,0,1.21-1.09l1.29-14,8.83,9.23,1.35-1.38-9.86-10.41q.53-6,1.09-11.93c.72-7.85,1.44-15.74,2.2-23.59L263.81,91.7l-1.38-1.38L253,100.18l.59-6.18h3.55V90.32h-3.29V89.5a1.11,1.11,0,0,0-.32-1,17.64,17.64,0,0,0-5.23-3.29V82.5h-5.45v1.08a54.76,54.76,0,0,0-6.87-.92V81.12H223.07v1.94a42.4,42.4,0,0,0-8.54,2,19.16,19.16,0,0,0-4.08,2.27,3.39,3.39,0,0,0-1.57-1.15,3.28,3.28,0,0,0-4.31,1.75,2.6,2.6,0,0,0-.1.25,3.46,3.46,0,0,0,2,4.44V94h2.66A29,29,0,0,0,209.4,97h0L206.58,94l-4.83-5-1.38,1.35Zm1.11-9.1a1.54,1.54,0,0,1,1.32.72,1.21,1.21,0,0,0-.33.92v.82h-2.3a1.61,1.61,0,0,1-.33-.92,1.54,1.54,0,0,1,1.55-1.54h0m26.08-2.93h-8.41V83.16h8.51Zm12.72,3.48h-1.22V84.57h1.22ZM251.69,90a3.53,3.53,0,0,1,0,.46h-3.06V88a16.69,16.69,0,0,1,3.09,2m-3.29,36.83c-.29,3.29-.59,6.57-.92,9.86l-13.14-13.74,16-16.69q-1,10.32-1.94,20.57M244,158.1h1.09V161H244Zm-18.23-4.44h0a8.38,8.38,0,0,0-8.38-8.34h-.79a32.76,32.76,0,0,0-.33-3.55L233,124.32l14.26,14.89c-.46,5-.88,9.85-1.34,15h-20.5a4.69,4.69,0,0,0,0-.53m-12.75,0a4.41,4.41,0,0,1,4.14-4.47h.42a4.34,4.34,0,0,1,4.37,4.31v0a2.62,2.62,0,0,1,0,.56,4.37,4.37,0,0,1-8.7-.56m1.9-26.84q-1-10.35-1.94-20.76h0v-2.47l6.58,6.93v2.43h2.33l9.56,9.86-15.61,16.43c-.36-4.17-.75-8.31-1.11-12.42m7-16.82V109h12.68v1.78H222.51ZM211.8,97,211.51,94h39.65c-.26,3-.56,6-.82,9L232.7,121.27l-8.22-8.58h12.06v-5.75H219.46v.63l-6.58-6.93V97h-1m-.66-6.58a1.77,1.77,0,0,0,0-.46,16.8,16.8,0,0,1,4.21-2.52,37.9,37.9,0,0,1,7.72-1.84V87h12.91v-1.9a54.82,54.82,0,0,1,6.87,1v4.27H211.18m-2.63,8.71,1.15,1.18a34.68,34.68,0,0,0,.36,3.65h-3.71V99Z"/></g></g></g><path class="cls-10" d="M344.53,140.61a9.25,9.25,0,0,1,3.67.66,8.22,8.22,0,0,1,2.81,1.81,7.69,7.69,0,0,1,1.78,2.65,8.5,8.5,0,0,1,.63,3.3,9.24,9.24,0,0,1-1.16,4.66,7,7,0,0,1-3.67,3h0a4.78,4.78,0,0,1,2.05,1,5.82,5.82,0,0,1,1.32,1.65,8,8,0,0,1,.73,2.12,17.39,17.39,0,0,1,.33,2.28v1.72a7.8,7.8,0,0,0,.17,2,12.81,12.81,0,0,0,.33,1.95,4.24,4.24,0,0,0,.69,1.55H347.6a12.48,12.48,0,0,1-.66-3.3,27,27,0,0,0-.4-3.8,6.05,6.05,0,0,0-1.38-3.61,5.21,5.21,0,0,0-3.64-1.12h-6.61V171h-6.6V140.61Zm-2.41,13.74a5,5,0,0,0,3.47-1,4.33,4.33,0,0,0,1.15-3.31,4.2,4.2,0,0,0-1.15-3.3,5.13,5.13,0,0,0-3.47-1h-7.31v8.56Z"/><path class="cls-10" d="M373.24,140.61,384.61,171h-6.94l-2.31-6.61H364L361.65,171h-6.58l11.5-30.36Zm.4,18.63-3.83-11.17h0l-4.07,11.17Z"/><polygon class="cls-10" points="392.71 140.61 392.71 153.2 404.57 140.61 412.93 140.61 401.07 152.6 414.08 170.97 405.69 170.97 396.54 157.33 392.71 161.19 392.71 170.97 386.03 170.97 386.03 140.61 392.71 140.61"/><path class="cls-10" d="M298,147a10.87,10.87,0,0,1,4.23.73h0s.93.43.76,2.18a2.37,2.37,0,0,1-2.44,2.32h-8v-3.3a4.72,4.72,0,0,0-.24-1.39,28.42,28.42,0,0,1,4.93-.86H298"/><path class="cls-10" d="M298.9,140.9h1.58c.89,0,2,.17,2.41.86a2.91,2.91,0,0,1,.3,2.12,2.49,2.49,0,0,1-.69,1.32,3.33,3.33,0,0,1-.46.46,15,15,0,0,0-3.94-.53H297a29.64,29.64,0,0,0-5.59,1.06,6.13,6.13,0,0,0-1.45-.83l-.73-.23a15.29,15.29,0,0,1,5-3.3,14.67,14.67,0,0,1,4.73-.93"/><path class="cls-10" d="M297.91,134.16h.62c3.67.2,4.17.7,4.2,2.58a3.33,3.33,0,0,1-1.36,2.35h-2.11a14.79,14.79,0,0,0-4.33.59,16.12,16.12,0,0,0-6,3.31,23.3,23.3,0,0,0-2.32,2.34,3.52,3.52,0,0,0-1.12.66l-.3.3a4.82,4.82,0,0,0-1.25-.89,4.09,4.09,0,0,0-1.65-.37,18.63,18.63,0,0,1,4.79-6.6,17.79,17.79,0,0,1,10.84-4.13h0"/><path class="cls-10" d="M302.2,153.79a27.68,27.68,0,0,1,.86,5,11.3,11.3,0,0,1-.69,4.92h0s-.37.76-1.75.76h-.43a2.4,2.4,0,0,1-2.35-2.47v0h0v-7.83H301a5.06,5.06,0,0,0,1.39-.23"/><path class="cls-10" d="M304.91,150.62a15.45,15.45,0,0,1,3.3,5,13.73,13.73,0,0,1,.83,5.68v.63c0,.89,0,2.05-.83,2.41a3.54,3.54,0,0,1-1.38.4,4.45,4.45,0,0,1-.73,0,2.67,2.67,0,0,1-1.35-.7l-.43-.46a15.59,15.59,0,0,0,.46-5.09,29.09,29.09,0,0,0-1.06-5.55,5.51,5.51,0,0,0,.83-1.45,4.15,4.15,0,0,0,.23-.76"/><path class="cls-10" d="M305.08,143.71a18.88,18.88,0,0,1,6.6,4.79,17.49,17.49,0,0,1,4.1,11.47c0,3.67-.69,4.16-2.61,4.2a3.3,3.3,0,0,1-2.31-1.36,18.37,18.37,0,0,0-.46-6.44,16.5,16.5,0,0,0-3.31-6.05,31.47,31.47,0,0,0-2.34-2.28,3.55,3.55,0,0,0-.67-1.12,1.29,1.29,0,0,0-.33-.33,4.25,4.25,0,0,0,.93-1.26,4.49,4.49,0,0,0,.36-1.62"/><path class="cls-10" d="M296,159.24v3.31a5,5,0,0,0,.27,1.42,27.91,27.91,0,0,1-5,.82h-.69a10.91,10.91,0,0,1-4.27-.72h0s-.92-.47-.76-2.18a2.45,2.45,0,0,1,2.51-2.35H296"/><path class="cls-10" d="M297.31,165.29a5.61,5.61,0,0,0,1.45.86l.76.23a15.58,15.58,0,0,1-5,3.3,14.37,14.37,0,0,1-4.72.9h-1.59c-.89,0-2,0-2.38-.83a2.93,2.93,0,0,1-.3-2.11,3.16,3.16,0,0,1,.67-1.36l.49-.43a14.51,14.51,0,0,0,3.93.5h1.16a29.09,29.09,0,0,0,5.55-1.06"/><path class="cls-10" d="M303.52,165.26a3.86,3.86,0,0,0,2.88,1.29,18.34,18.34,0,0,1-4.79,6.6,17.75,17.75,0,0,1-10.84,4.13h-.6c-3.7,0-4.19-.69-4.23-2.57a3.32,3.32,0,0,1,1.39-2.25h2.08a14.67,14.67,0,0,0,4.33-.56,16.5,16.5,0,0,0,6.05-3.31c1-.89,1.95-2,2.31-2.34a5.14,5.14,0,0,0,1.13-.66l.29-.33"/><path class="cls-10" d="M288.06,147.08h.46a2.41,2.41,0,0,1,2.31,2.48v7.9h-3.3a5.06,5.06,0,0,0-1.39.23,32,32,0,0,1-.86-5,12.1,12.1,0,0,1,.73-4.95h0s.33-.8,1.72-.8"/><path class="cls-10" d="M281.75,146.88h.72a2.81,2.81,0,0,1,1.33.67l.46.49a15.61,15.61,0,0,0-.5,5.09,29.39,29.39,0,0,0,1.06,5.58,6.4,6.4,0,0,0-.83,1.46,5.65,5.65,0,0,0-.23.73,15.73,15.73,0,0,1-3.3-5,13.3,13.3,0,0,1-.86-5.69v-.63c0-.92,0-2,.83-2.41a2.93,2.93,0,0,1,1.38-.39"/><path class="cls-10" d="M275.34,147.45a3.28,3.28,0,0,1,2.34,1.35,16.84,16.84,0,0,0,.47,6.44,16.48,16.48,0,0,0,3.3,6,27,27,0,0,0,2.35,2.31,3.14,3.14,0,0,0,.66,1.13l.29.3a4.93,4.93,0,0,0-.92,1.25,4.49,4.49,0,0,0-.36,1.62,18,18,0,0,1-6.61-4.82,17.35,17.35,0,0,1-4.13-11.44c.19-3.66.69-4.19,2.57-4.19h0"/><path class="cls-10" d="M418.57,139.76a4.62,4.62,0,1,1-4.74,4.61A4.59,4.59,0,0,1,418.57,139.76Zm0,8.25a3.63,3.63,0,1,0-3.48-3.64A3.51,3.51,0,0,0,418.57,148Zm-1.84-6.23h1.95c1.3,0,2,.4,2,1.53a1.3,1.3,0,0,1-1.36,1.38l1.38,2.26h-1.07l-1.26-2.21h-.64V147h-1Zm1,2.16h.91c.59,0,1-.09,1-.72s-.59-.64-1.06-.64h-.86Z"/><polygon class="cls-10" points="339.18 115.39 324.62 115.39 324.62 83.04 339.18 83.04 339.18 85.04 326.62 85.04 326.62 113.39 339.18 113.39 339.18 115.39"/><polygon class="cls-10" points="466.05 115.39 451.49 115.39 451.49 113.39 464.05 113.39 464.05 85.04 451.49 85.04 451.49 83.04 466.05 83.04 466.05 115.39"/><path class="cls-10" d="M319.84,190.22h2.3v4h4.23v-4h2.3v10.45h-2.3v-4.51h-4.23v4.51h-2.3Z"/><path class="cls-10" d="M339.38,201.65l-1.48-1.35a5,5,0,0,1-2.53.62c-3.22,0-5.14-2.42-5.14-5.43s1.92-5.52,5.14-5.52,5.13,2.41,5.13,5.52a5.72,5.72,0,0,1-1.36,3.85l1.3,1.18Zm-3-4.85,1.18,1.09a3.91,3.91,0,0,0,.64-2.4c0-1.83-.77-3.59-2.83-3.59s-2.84,1.76-2.84,3.59.77,3.49,2.84,3.49c.33,0,.76,0,.92-.14l-1-.89Z"/><path class="cls-10" d="M342.06,190.22h4.72c2.61,0,3.61,1.65,3.61,3.35s-1,3.35-3.61,3.35h-2.42v3.75h-2.3Zm2.3,4.92h1.79c1.05,0,2-.24,2-1.57s-1-1.57-2-1.57h-1.79Z"/><path class="cls-10" d="M358.78,193.73a2.27,2.27,0,0,0-2.28-1.83c-2.06,0-2.84,1.76-2.84,3.59s.78,3.49,2.84,3.49a2.34,2.34,0,0,0,2.37-2.34h2.23a4.41,4.41,0,0,1-4.6,4.28c-3.22,0-5.13-2.42-5.13-5.43s1.91-5.52,5.13-5.52a4.26,4.26,0,0,1,4.51,3.76Z"/><path class="cls-10" d="M362.66,190.22h4.91c2,0,3.34.64,3.34,2.59a2.27,2.27,0,0,1-1.42,2.18,2.54,2.54,0,0,1,1.92,2.65c0,2.12-1.8,3-3.69,3h-5.06Zm2.3,4.23h2.32c.82,0,1.41-.37,1.41-1.25s-.76-1.2-1.58-1.2H365Zm0,4.43h2.45c.9,0,1.7-.29,1.7-1.37s-.66-1.5-1.65-1.5H365Z"/><path class="cls-10" d="M372.72,195.78h4.41v1.78h-4.41Z"/><path class="cls-10" d="M378.44,194.36c-.07-2.34,1.26-4.14,3.72-4.14a3.26,3.26,0,0,1,3.51,3.2c0,3.11-3.29,3.35-4.79,5.46h4.85v1.79h-7.52c0-2.39,1.46-3.37,3.23-4.58.89-.63,2.15-1.25,2.15-2.51a1.47,1.47,0,0,0-1.54-1.58c-1.22,0-1.62,1.28-1.62,2.36Z"/><path class="cls-10" d="M331.85,219a2.11,2.11,0,0,0,2,1.84c2.19,0,2.72-2.87,2.83-4.49l-.05-.05a3.68,3.68,0,0,1-3.33,1.65,4.7,4.7,0,0,1-3.39-1.52,5.05,5.05,0,0,1-1.14-3.29,5.11,5.11,0,0,1,5.16-5.4c4.48,0,5.68,3.9,5.68,7.64s-1.61,7.72-5.8,7.72A4.51,4.51,0,0,1,329,219Zm4.53-6.05a2.53,2.53,0,0,0-2.38-2.74,2.47,2.47,0,0,0-2.26,2.7c0,1.39.72,2.78,2.26,2.78S336.38,214.43,336.38,213Z"/><path class="cls-10" d="M346.61,219.4h-6.24v-2.74l6.41-8.6h2.68v8.88h2v2.46h-2v3.42h-2.85Zm0-7.59h-.06l-3.82,5.13h3.88Z"/><path class="cls-10" d="M360.22,222.82h-3.74l-4.89-15.06H355l3.35,10.59h0l3.4-10.59h3.42Z"/><path class="cls-10" d="M366.17,215.78h6.35v2.57h-6.35Z"/><path class="cls-10" d="M379.48,207.76c2.95,0,5.44,1.86,5.44,7.62s-2.49,7.74-5.44,7.74-5.4-1.86-5.4-7.74S376.55,207.76,379.48,207.76Zm0,12.89c2.44,0,2.44-3.61,2.44-5.27s0-5.15-2.44-5.15-2.41,3.61-2.41,5.15S377.07,220.65,379.48,220.65Z"/><path class="cls-10" d="M316,248.17h10.08v2.49H319v2.89h6.53v2.31H319v3.3h7.26v2.49H316Z"/><path class="cls-10" d="M332.83,258.59h-5.58v-2.45l5.74-7.7h2.39v7.94h1.76v2.21h-1.76v3.06h-2.55Zm0-6.79h-.05l-3.42,4.58h3.47Z"/><path class="cls-10" d="M344.77,251.83a1.9,1.9,0,0,0-1.78-1.64c-1.92,0-2.47,2.57-2.53,4l0,0a3.32,3.32,0,0,1,3-1.47,4.2,4.2,0,0,1,3,1.36,4.5,4.5,0,0,1,1,2.94,4.59,4.59,0,0,1-4.62,4.83c-4,0-5.08-3.49-5.08-6.83s1.44-6.91,5.19-6.91a4,4,0,0,1,4.29,3.66Zm-4.06,5.42a2.27,2.27,0,0,0,2.13,2.46,2.21,2.21,0,0,0,2-2.42c0-1.25-.64-2.49-2-2.49A2.18,2.18,0,0,0,340.71,257.25Z"/><path class="cls-10" d="M351.11,258.25a1.89,1.89,0,0,0,1.78,1.64c2,0,2.43-2.56,2.53-4l0,0a3.34,3.34,0,0,1-3,1.47,4.2,4.2,0,0,1-3-1.36,4.5,4.5,0,0,1-1-2.94,4.58,4.58,0,0,1,4.62-4.84c4,0,5.08,3.5,5.08,6.84s-1.43,6.9-5.19,6.9a4,4,0,0,1-4.28-3.66Zm4.06-5.41a2.27,2.27,0,0,0-2.13-2.46,2.21,2.21,0,0,0-2,2.42c0,1.24.64,2.49,2,2.49A2.18,2.18,0,0,0,355.17,252.84Z"/><path class="cls-10" d="M368.2,250.74c-2.77,2.44-4.27,7.38-4.32,10.91H361a19.27,19.27,0,0,1,4.43-10.72h-6.26v-2.49h9Z"/><path class="cls-10" d="M374.83,258.59h-5.59v-2.45l5.74-7.7h2.4v7.94h1.75v2.21h-1.75v3.06h-2.55Zm0-6.79h-.06l-3.41,4.58h3.47Z"/><path class="cls-10" d="M389.2,250.74c-2.78,2.44-4.27,7.38-4.33,10.91H382a19.27,19.27,0,0,1,4.43-10.72h-6.27v-2.49h9Z"/><rect class="cls-10" x="329.37" y="227.36" width="5.09" height="1"/><rect class="cls-10" x="335.32" y="229.42" width="1" height="5.09"/><rect class="cls-10" x="329.37" y="235.77" width="5.58" height="1"/><rect class="cls-10" x="327.01" y="237.45" width="1" height="5.38"/><rect class="cls-10" x="329.37" y="244.19" width="5.58" height="1"/><rect class="cls-10" x="348.43" y="228.64" width="1" height="5.87"/><rect class="cls-10" x="348.43" y="237.87" width="1" height="4.96"/><rect class="cls-10" x="353.32" y="228.64" width="1" height="5.87"/><rect class="cls-10" x="355.29" y="235.77" width="5.28" height="1"/><rect class="cls-10" x="361.44" y="228.64" width="1" height="5.87"/><rect class="cls-10" x="361.44" y="237.45" width="1" height="5.38"/><rect class="cls-10" x="373.97" y="228.64" width="1" height="5.87"/><rect class="cls-10" x="373.97" y="237.45" width="1" height="5.38"/><circle class="cls-10" cx="351.57" cy="244.2" r="1.13"/><circle class="cls-10" cx="384.44" cy="237.45" r="0.98"/><path class="cls-10" d="M423.22,221.14,419,209.68a4.35,4.35,0,0,0-2.89-2.74,6.18,6.18,0,0,0-2.21-.18s-1.56.23-.78,3l2.8,7.44s.85,2.09-.84,2.41c0,0-1.76.65-2.61-2.28l-3.43-9.18a1.8,1.8,0,0,0-1.62-1.18c-3.25-.14-11.26,0-12,.05a3,3,0,0,0-2,4l2.31,5.79a2.64,2.64,0,0,0,1.71,1.58,4.49,4.49,0,0,0,2.37-.07,12.94,12.94,0,0,1-.52,5.35s-.52,1.37,1.69,1.5c0,0,3.27.46,4.05-1.56,0,0,.39-3.59.65-4.7s1.76-1.3,2.15.91,1.76,5.31,3.46,5.39h8.8s.2,0,.5,0A3.08,3.08,0,0,0,423.22,221.14Zm-22.39-7.22s-.64.05-1-1.27c0,0-.83-1.91.69-1.91h4.25l1.08,3.18Z"/><path class="cls-10" d="M429,205a5.71,5.71,0,1,1-5.86,5.69A5.66,5.66,0,0,1,429,205Zm0,10.2a4.49,4.49,0,0,0,0-9,4.49,4.49,0,0,0,0,9Zm-2.27-7.71h2.41c1.6,0,2.5.5,2.5,1.89a1.6,1.6,0,0,1-1.68,1.71l1.71,2.79h-1.33l-1.55-2.73H428v2.73h-1.26Zm1.26,2.67h1.13c.73,0,1.25-.11,1.25-.88s-.73-.8-1.31-.8H428Z"/><path class="cls-10" d="M314.87,209.33,311,216a1.05,1.05,0,0,0,.91,1.57h7.66a1,1,0,0,0,.91-1.57l-3.83-6.64a1.05,1.05,0,0,0-1.82,0L311,216a1.05,1.05,0,0,0,.91,1.57h7.66a1,1,0,0,0,.91-1.57l-3.83-6.64A1.05,1.05,0,0,0,314.87,209.33Z"/><path class="cls-10" d="M280.07,307.4H252.86V291.79h27.21Zm-26.21-1h25.21V292.79H253.86Z"/><path class="cls-10" d="M375.55,287.32H348.34V271.71h27.21Zm-26.21-1h25.21V272.71H349.34Z"/><g class="cls-11"><path class="cls-12" d="M256.34,301.08v-2.49a1.65,1.65,0,0,1,1.65-1.65h16.07a1.62,1.62,0,0,1,1.62,1.61v2.53a1.63,1.63,0,0,1-1.59,1.65H258a1.65,1.65,0,0,1-1.65-1.65h0"/><path class="cls-13" d="M258.4,301.42v-3.11a1.46,1.46,0,0,1,1.43-1.44h11.74a1.47,1.47,0,0,1,1.43,1.44v3.11a1.43,1.43,0,0,1-1.43,1.43H259.89a1.43,1.43,0,0,1-1.43-1.43"/><path class="cls-14" d="M259.39,301.89v-4.58a1,1,0,0,1,1-1h10.83a1,1,0,0,1,1,1v4.58a1,1,0,0,1-1,1H260.36a1,1,0,0,1-1-1"/><rect class="cls-15" x="262.32" y="296.34" width="7.35" height="6.51"/></g><g class="cls-11"><path class="cls-12" d="M354,281V278.5a1.65,1.65,0,0,1,1.65-1.65h16.07a1.62,1.62,0,0,1,1.62,1.62V281a1.63,1.63,0,0,1-1.59,1.65h-16.1A1.65,1.65,0,0,1,354,281h0"/><path class="cls-13" d="M356.08,281.33v-3.11a1.45,1.45,0,0,1,1.43-1.43h11.74a1.46,1.46,0,0,1,1.43,1.43v3.11a1.43,1.43,0,0,1-1.43,1.43H357.57a1.43,1.43,0,0,1-1.43-1.43"/><path class="cls-14" d="M357.07,281.8v-4.58a1,1,0,0,1,1-1h10.83a1,1,0,0,1,1,1v4.58a1,1,0,0,1-1,1H358a1,1,0,0,1-1-1"/><rect class="cls-15" x="360" y="276.26" width="7.35" height="6.51"/></g><path class="cls-16" d="M335.52,110.67H334.4a1.84,1.84,0,0,1-1.83-1.84V89.15a1.83,1.83,0,0,1,1.83-1.84h1.12a1.84,1.84,0,0,1,1.84,1.84v19.68a1.85,1.85,0,0,1-1.84,1.84"/><path class="cls-16" d="M457.54,110.67h-1.12a1.85,1.85,0,0,1-1.84-1.84h0V89.15a1.84,1.84,0,0,1,1.84-1.84h1.12a1.83,1.83,0,0,1,1.83,1.84h0v19.68a1.84,1.84,0,0,1-1.83,1.84h0"/><path class="cls-17" d="M460.49,93.58V91.71a1.87,1.87,0,0,0-1.87-1.84h-3.81a2,2,0,0,0-1.7,1.15H338.64a1.89,1.89,0,0,0-1.74-1.15h-3.81a1.83,1.83,0,0,0-1.83,1.84v1.9a1.83,1.83,0,0,0,1.31,1.74v7.38a1.82,1.82,0,0,0-1.31,1.74v1.9a1.87,1.87,0,0,0,1.83,1.87h3.81a1.82,1.82,0,0,0,1.74-1.25H453.07a1.9,1.9,0,0,0,1.74,1.25h3.81a1.87,1.87,0,0,0,1.87-1.87v-1.9a1.88,1.88,0,0,0-1.15-1.71V95.32A1.85,1.85,0,0,0,460.49,93.58Z"/><path class="cls-18" d="M450.29,105.39H341.19c-.85,0-1.54-.43-1.54-1V94.07c0-.53.69-.95,1.54-.95h109.1c.85,0,1.54.42,1.54.95v10.3c0,.52-.69.95-1.54.95"/><path class="cls-16" d="M346.64,83.44h-2.13A.6.6,0,0,0,344,84v1.87a.53.53,0,0,0,.49.56h0v5h2.2v-5a.53.53,0,0,0,.53-.53V84a.56.56,0,0,0-.56-.56h0"/><path class="cls-19" d="M346.38,93.28h-2.82a.42.42,0,0,1-.43-.42V91.48a.43.43,0,0,1,.39-.46h2.86a.46.46,0,0,1,.46.46v1.38a.42.42,0,0,1-.43.42h0"/><path class="cls-16" d="M346.64,115h-2.13a.6.6,0,0,1-.56-.56v-1.87a.53.53,0,0,1,.49-.56h0v-5h2.2v5a.52.52,0,0,1,.53.52v1.9a.56.56,0,0,1-.56.56h0"/><path class="cls-19" d="M346.38,105.16h-2.82a.42.42,0,0,0-.43.42V107a.43.43,0,0,0,.39.46h2.86a.47.47,0,0,0,.46-.46v-1.38a.43.43,0,0,0-.43-.43h0"/><path class="cls-16" d="M351.79,83.44h-2.1a.6.6,0,0,0-.59.56v1.87a.56.56,0,0,0,.56.56h0v5h2.16v-5a.56.56,0,0,0,.56-.56h0V84a.6.6,0,0,0-.59-.56"/><path class="cls-19" d="M351.53,93.28h-2.79a.43.43,0,0,1-.46-.39V91.48a.45.45,0,0,1,.46-.46h2.79a.45.45,0,0,1,.45.46v1.38a.41.41,0,0,1-.42.42h0"/><path class="cls-16" d="M351.79,115h-2.1a.6.6,0,0,1-.59-.56v-1.87a.56.56,0,0,1,.56-.56h0v-5h2.16v5a.55.55,0,0,1,.56.55h0v1.87a.59.59,0,0,1-.59.56"/><path class="cls-19" d="M351.53,105.16h-2.79a.42.42,0,0,0-.46.39V107a.46.46,0,0,0,.46.46h2.79A.46.46,0,0,0,352,107v-1.38a.42.42,0,0,0-.42-.43h0"/><path class="cls-16" d="M357.27,83.44h-2.14a.59.59,0,0,0-.55.56v1.87a.53.53,0,0,0,.49.56h0v5h2.2v-5a.52.52,0,0,0,.52-.53V84a.56.56,0,0,0-.55-.56h0"/><path class="cls-19" d="M357,93.28h-2.82a.42.42,0,0,1-.42-.42V91.48a.42.42,0,0,1,.39-.46H357a.45.45,0,0,1,.46.46v1.38a.42.42,0,0,1-.42.42h0"/><path class="cls-16" d="M357.27,115h-2.14a.59.59,0,0,1-.55-.56v-1.87a.53.53,0,0,1,.49-.56h0v-5h2.2v5a.51.51,0,0,1,.52.52v1.9a.56.56,0,0,1-.55.56h0"/><path class="cls-19" d="M357,105.16h-2.82a.42.42,0,0,0-.42.42V107a.43.43,0,0,0,.39.46H357a.46.46,0,0,0,.46-.46v-1.38a.43.43,0,0,0-.42-.43h0"/><path class="cls-16" d="M362.61,83.44h-2.13a.6.6,0,0,0-.56.56v1.87a.53.53,0,0,0,.49.56h0v5h2.19v-5a.53.53,0,0,0,.53-.53V84a.56.56,0,0,0-.56-.56h0"/><path class="cls-19" d="M362.42,93.28h-2.83a.44.44,0,0,1-.45-.42V91.48a.45.45,0,0,1,.45-.46h2.83a.45.45,0,0,1,.45.46v1.38a.42.42,0,0,1-.42.42h0"/><path class="cls-16" d="M362.61,115h-2.13a.6.6,0,0,1-.56-.56v-1.87a.53.53,0,0,1,.42-.62.41.41,0,0,1,.11,0v-5h2.19v5a.52.52,0,0,1,.53.52v1.9a.56.56,0,0,1-.56.56h0"/><path class="cls-19" d="M362.42,105.16h-2.83a.44.44,0,0,0-.45.42V107a.46.46,0,0,0,.45.46h2.83a.46.46,0,0,0,.45-.46v-1.38a.42.42,0,0,0-.42-.43h0"/><path class="cls-16" d="M367.83,83.44H365.7a.59.59,0,0,0-.56.56v1.87a.53.53,0,0,0,.49.56h0v5h2.2v-5a.53.53,0,0,0,.53-.53,0,0,0,0,0,0,0V84a.59.59,0,0,0-.55-.56"/><path class="cls-19" d="M367.56,93.28h-2.82a.42.42,0,0,1-.45-.39s0,0,0,0V91.48a.46.46,0,0,1,.46-.46h2.82a.45.45,0,0,1,.46.46v1.38a.44.44,0,0,1-.46.42"/><path class="cls-16" d="M367.83,115H365.7a.59.59,0,0,1-.56-.56v-1.87a.53.53,0,0,1,.41-.62.38.38,0,0,1,.15,0v-5h2.19v5a.52.52,0,0,1,.53.52v1.9a.6.6,0,0,1-.56.56"/><path class="cls-19" d="M367.56,105.16h-2.82a.41.41,0,0,0-.45.39s0,0,0,0V107a.47.47,0,0,0,.46.46h2.82A.46.46,0,0,0,368,107v-1.38a.44.44,0,0,0-.46-.42"/><path class="cls-16" d="M373,83.44h-2.14a.59.59,0,0,0-.55.56v1.87a.53.53,0,0,0,.49.56h0v5H373v-5a.54.54,0,0,0,.53-.53,0,0,0,0,0,0,0V84a.56.56,0,0,0-.55-.56h0"/><path class="cls-19" d="M372.71,93.28h-2.82a.42.42,0,0,1-.42-.42V91.48a.42.42,0,0,1,.39-.46h2.85a.45.45,0,0,1,.46.46v1.38a.42.42,0,0,1-.42.42h0"/><path class="cls-16" d="M373,115h-2.14a.59.59,0,0,1-.55-.56v-1.87a.53.53,0,0,1,.49-.56h0v-5H373v5a.52.52,0,0,1,.53.52,0,0,0,0,1,0,0v1.87a.56.56,0,0,1-.55.56h0"/><path class="cls-19" d="M372.71,105.16h-2.82a.42.42,0,0,0-.42.42V107a.43.43,0,0,0,.39.46h2.85a.46.46,0,0,0,.46-.46v-1.38a.43.43,0,0,0-.42-.43h0"/><path class="cls-16" d="M378.19,83.44h-2.1a.6.6,0,0,0-.59.56v1.87a.56.56,0,0,0,.56.56v5h2.16v-5a.56.56,0,0,0,.59-.53s0,0,0,0V84a.6.6,0,0,0-.6-.56"/><path class="cls-19" d="M377.93,93.28h-2.82a.42.42,0,0,1-.43-.42V91.48a.43.43,0,0,1,.39-.46h2.86a.46.46,0,0,1,.46.46v1.38a.42.42,0,0,1-.43.42h0"/><path class="cls-16" d="M378.19,115h-2.1a.6.6,0,0,1-.59-.56v-1.87a.56.56,0,0,1,.56-.56v-5h2.16v5a.55.55,0,0,1,.56.55v1.87a.58.58,0,0,1-.59.56"/><path class="cls-19" d="M377.93,105.16h-2.82a.42.42,0,0,0-.43.42V107a.43.43,0,0,0,.39.46h2.86a.47.47,0,0,0,.46-.46v-1.38a.43.43,0,0,0-.43-.43h0"/><path class="cls-16" d="M383.47,83.44h-2.1a.6.6,0,0,0-.59.56v1.87a.56.56,0,0,0,.56.56v5h2.17v-5a.56.56,0,0,0,.55-.56V84a.59.59,0,0,0-.59-.56"/><path class="cls-19" d="M383.21,93.28h-2.79a.43.43,0,0,1-.46-.39V91.48a.46.46,0,0,1,.46-.46h2.79a.46.46,0,0,1,.46.46v1.38a.42.42,0,0,1-.43.42h0"/><path class="cls-16" d="M383.47,115h-2.1a.6.6,0,0,1-.59-.56v-1.87a.56.56,0,0,1,.56-.56v-5h2.17v5a.55.55,0,0,1,.55.55v1.87a.58.58,0,0,1-.59.56"/><path class="cls-19" d="M383.21,105.16h-2.79a.43.43,0,0,0-.46.39V107a.47.47,0,0,0,.46.46h2.79a.47.47,0,0,0,.46-.46v-1.38a.43.43,0,0,0-.43-.43h0"/><path class="cls-16" d="M388.66,83.44h-2.1A.59.59,0,0,0,386,84v1.87a.56.56,0,0,0,.55.56v5h2.14v-5a.56.56,0,0,0,.55-.56V84a.59.59,0,0,0-.55-.56"/><path class="cls-19" d="M388.66,93.28h-3a.41.41,0,0,1-.32-.42V91.48a.45.45,0,0,1,.45-.46h2.83a.45.45,0,0,1,.45.46v1.38a.42.42,0,0,1-.42.42h0"/><path class="cls-16" d="M388.66,115h-2.1a.59.59,0,0,1-.59-.56v-1.87a.56.56,0,0,1,.55-.56v-5h2.14v5a.55.55,0,0,1,.55.55v1.87a.58.58,0,0,1-.59.56"/><path class="cls-19" d="M388.66,105.16h-3a.41.41,0,0,0-.45.39,0,0,0,0,0,0,0V107a.47.47,0,0,0,.46.46h3a.46.46,0,0,0,.45-.46v-1.38a.42.42,0,0,0-.42-.43h0"/><path class="cls-16" d="M394,83.44h-2.06a.56.56,0,0,0-.56.56v1.87a.53.53,0,0,0,.49.56h0v5h2.17v-5a.51.51,0,0,0,.55-.49.08.08,0,0,0,0-.07V84a.59.59,0,0,0-.55-.56"/><path class="cls-19" d="M393.74,93.28h-2.82a.43.43,0,0,1-.46-.39V91.48a.45.45,0,0,1,.46-.46h2.82a.43.43,0,0,1,.43.42v1.42a.43.43,0,0,1-.43.42h0"/><path class="cls-16" d="M394,115h-2.06a.56.56,0,0,1-.56-.56v-1.87a.53.53,0,0,1,.41-.62.38.38,0,0,1,.15,0v-5h2.16v5a.53.53,0,0,1,.56.48v1.94a.6.6,0,0,1-.56.56"/><path class="cls-19" d="M393.74,105.16h-2.82a.42.42,0,0,0-.46.39V107a.46.46,0,0,0,.46.46h2.82a.43.43,0,0,0,.43-.43v-1.41a.43.43,0,0,0-.43-.42h0"/><path class="cls-16" d="M399.38,83.44h-2.1a.6.6,0,0,0-.59.56v1.87a.56.56,0,0,0,.56.56v5h2.16v-5a.56.56,0,0,0,.56-.56V84a.6.6,0,0,0-.59-.56"/><path class="cls-19" d="M399.12,93.28h-2.79a.43.43,0,0,1-.46-.39V91.48a.46.46,0,0,1,.46-.46h2.79a.46.46,0,0,1,.46.46v1.38a.42.42,0,0,1-.43.42h0"/><path class="cls-16" d="M399.38,115h-2.1a.6.6,0,0,1-.59-.56v-1.87a.56.56,0,0,1,.56-.56v-5h2.16v5a.55.55,0,0,1,.56.55v1.87a.59.59,0,0,1-.59.56"/><path class="cls-19" d="M399.12,105.16h-2.79a.43.43,0,0,0-.46.39V107a.47.47,0,0,0,.46.46h2.79a.47.47,0,0,0,.46-.46v-1.38a.43.43,0,0,0-.43-.43h0"/><path class="cls-16" d="M404.66,83.44h-2.1A.56.56,0,0,0,402,84v1.87a.54.54,0,0,0,.5.56h0v5h2.16v-5a.53.53,0,0,0,.56-.49V84a.59.59,0,0,0-.59-.56"/><path class="cls-19" d="M404.43,93.28h-2.65a.43.43,0,0,1-.46-.39V91.48a.45.45,0,0,1,.46-.46h2.82a.42.42,0,0,1,.42.42v1.42a.42.42,0,0,1-.42.42h0"/><path class="cls-16" d="M404.66,115h-2.1a.56.56,0,0,1-.56-.56v-1.87a.54.54,0,0,1,.5-.56h0v-5h2.16v5a.53.53,0,0,1,.56.48v1.94a.59.59,0,0,1-.59.56"/><path class="cls-19" d="M404.43,105.16h-2.65a.42.42,0,0,0-.46.39V107a.46.46,0,0,0,.46.46h2.82A.42.42,0,0,0,405,107v-1.41a.42.42,0,0,0-.42-.42h0"/><path class="cls-16" d="M410.43,83.44h-2.09a.56.56,0,0,0-.56.56v1.87a.53.53,0,0,0,.49.56h0v5h2.2v-5a.53.53,0,0,0,.53-.53,0,0,0,0,0,0,0V84a.59.59,0,0,0-.55-.56"/><path class="cls-19" d="M410.17,93.28h-2.82a.43.43,0,0,1-.46-.39V91.48a.46.46,0,0,1,.46-.46h2.82a.42.42,0,0,1,.43.42v1.42a.42.42,0,0,1-.43.42h0"/><path class="cls-16" d="M410.43,115h-2.09a.56.56,0,0,1-.56-.56v-1.87a.53.53,0,0,1,.41-.62.38.38,0,0,1,.15,0v-5h2.19v5a.52.52,0,0,1,.53.52v1.9a.6.6,0,0,1-.56.56"/><path class="cls-19" d="M410.17,105.16h-2.82a.43.43,0,0,0-.46.39V107a.47.47,0,0,0,.46.46h2.82a.43.43,0,0,0,.43-.43v-1.41a.42.42,0,0,0-.43-.42h0"/><path class="cls-16" d="M415.58,83.44h-2.13a.6.6,0,0,0-.56.56v1.87a.54.54,0,0,0,.5.56h0v5h2.2v-5a.52.52,0,0,0,.52-.53V84a.56.56,0,0,0-.56-.56"/><path class="cls-19" d="M415.32,93.28H412.5a.46.46,0,0,1-.46-.42V91.48a.46.46,0,0,1,.46-.46h2.82a.45.45,0,0,1,.46.46v1.38a.42.42,0,0,1-.42.42h0"/><path class="cls-16" d="M415.58,115h-2.13a.6.6,0,0,1-.56-.56v-1.87a.54.54,0,0,1,.5-.56h0v-5h2.2v5a.51.51,0,0,1,.52.52v1.9a.56.56,0,0,1-.56.56"/><path class="cls-19" d="M415.32,105.16H412.5a.45.45,0,0,0-.46.42V107a.47.47,0,0,0,.46.46h2.82a.46.46,0,0,0,.46-.46v-1.38a.43.43,0,0,0-.42-.43h0"/><path class="cls-16" d="M420.8,83.44h-2.1a.6.6,0,0,0-.59.56v1.87a.53.53,0,0,0,.49.56h.07v5h2.16v-5a.53.53,0,0,0,.62-.42.66.66,0,0,0,0-.14V84a.56.56,0,0,0-.56-.56"/><path class="cls-19" d="M420.54,93.28h-2.82a.42.42,0,0,1-.43-.42h0V91.48a.43.43,0,0,1,.39-.46h2.86a.46.46,0,0,1,.46.46v1.38a.42.42,0,0,1-.43.42h0"/><path class="cls-16" d="M420.8,115h-2.1a.6.6,0,0,1-.59-.56v-1.87a.53.53,0,0,1,.49-.56h.07v-5h2.16v5a.52.52,0,0,1,.53.52v1.9a.56.56,0,0,1-.56.56"/><path class="cls-19" d="M420.54,105.16h-2.82a.42.42,0,0,0-.43.42h0V107a.43.43,0,0,0,.39.46h2.86A.47.47,0,0,0,421,107v-1.38a.43.43,0,0,0-.43-.43h0"/><path class="cls-16" d="M426.08,83.44H424a.6.6,0,0,0-.59.56v1.87a.56.56,0,0,0,.56.56v5h2.16v-5a.56.56,0,0,0,.56-.56V84a.6.6,0,0,0-.59-.56"/><path class="cls-19" d="M425.82,93.28H423a.42.42,0,0,1-.43-.42h0V91.48A.43.43,0,0,1,423,91h2.86a.46.46,0,0,1,.46.46v1.38a.42.42,0,0,1-.43.42h0"/><path class="cls-16" d="M426.08,115H424a.6.6,0,0,1-.59-.56v-1.87A.56.56,0,0,1,424,112v-5h2.16v5a.55.55,0,0,1,.56.55v1.87a.59.59,0,0,1-.59.56"/><path class="cls-19" d="M425.82,105.16H423a.42.42,0,0,0-.43.42h0V107a.43.43,0,0,0,.39.46h2.86a.47.47,0,0,0,.46-.46v-1.38a.43.43,0,0,0-.43-.43h0"/><path class="cls-16" d="M431.3,83.44h-2.1a.59.59,0,0,0-.59.56v1.87a.56.56,0,0,0,.55.56v5h2.14v-5a.56.56,0,0,0,.55-.56V84a.59.59,0,0,0-.55-.56"/><path class="cls-19" d="M431.1,93.28h-2.79a.42.42,0,0,1-.29-.42V91.48a.45.45,0,0,1,.45-.46h2.79a.45.45,0,0,1,.46.46v1.38a.42.42,0,0,1-.42.42h0"/><path class="cls-16" d="M431.3,115h-2.1a.59.59,0,0,1-.59-.56v-1.87a.56.56,0,0,1,.55-.56v-5h2.14v5a.55.55,0,0,1,.55.55v1.87a.58.58,0,0,1-.59.56"/><path class="cls-19" d="M431.1,105.16h-2.79a.43.43,0,0,0-.46.39V107a.47.47,0,0,0,.46.46h2.79a.47.47,0,0,0,.46-.46v-1.38a.43.43,0,0,0-.43-.43h0"/><path class="cls-16" d="M436.58,83.44h-2A.56.56,0,0,0,434,84v1.87a.53.53,0,0,0,.49.56h0v5h2.17v-5a.51.51,0,0,0,.55-.49.08.08,0,0,0,0-.07V84a.59.59,0,0,0-.59-.56"/><path class="cls-19" d="M436.35,93.28h-2.82a.43.43,0,0,1-.46-.39V91.48a.45.45,0,0,1,.46-.46h2.82a.42.42,0,0,1,.42.42v1.42a.42.42,0,0,1-.42.42h0"/><path class="cls-16" d="M436.58,115h-2a.56.56,0,0,1-.56-.56v-1.87a.53.53,0,0,1,.41-.62.38.38,0,0,1,.15,0v-5h2.16v5a.53.53,0,0,1,.56.48v1.94a.59.59,0,0,1-.59.56"/><path class="cls-19" d="M436.35,105.16h-2.82a.42.42,0,0,0-.46.39V107a.46.46,0,0,0,.46.46h2.82a.42.42,0,0,0,.42-.43v-1.41a.42.42,0,0,0-.42-.42h0"/><path class="cls-16" d="M442,83.44h-2.1a.6.6,0,0,0-.59.56v1.87a.56.56,0,0,0,.56.56v5H442v-5a.56.56,0,0,0,.56-.56V84a.6.6,0,0,0-.59-.56"/><path class="cls-19" d="M441.73,93.28h-2.79a.43.43,0,0,1-.46-.39V91.48a.45.45,0,0,1,.46-.46h2.79a.45.45,0,0,1,.45.46v1.38a.41.41,0,0,1-.42.42h0"/><path class="cls-16" d="M442,115h-2.1a.6.6,0,0,1-.59-.56v-1.87a.56.56,0,0,1,.56-.56v-5H442v5a.55.55,0,0,1,.56.55v1.87a.59.59,0,0,1-.59.56"/><path class="cls-19" d="M441.73,105.16h-2.79a.42.42,0,0,0-.46.39V107a.46.46,0,0,0,.46.46h2.79a.46.46,0,0,0,.45-.46v-1.38a.42.42,0,0,0-.42-.43h0"/><path class="cls-16" d="M447.27,83.44h-2.1a.6.6,0,0,0-.59.56v1.87a.56.56,0,0,0,.56.56v5h2.16v-5a.56.56,0,0,0,.56-.56V84a.6.6,0,0,0-.59-.56"/><path class="cls-19" d="M447,93.28h-2.82a.43.43,0,0,1-.46-.39V91.48a.45.45,0,0,1,.46-.46H447a.43.43,0,0,1,.43.42v1.42a.43.43,0,0,1-.43.42h0"/><path class="cls-16" d="M447.27,115h-2.1a.6.6,0,0,1-.59-.56v-1.87a.56.56,0,0,1,.56-.56v-5h2.16v5a.55.55,0,0,1,.56.55v1.87a.59.59,0,0,1-.59.56"/><path class="cls-19" d="M447,105.16h-2.82a.42.42,0,0,0-.46.39V107a.46.46,0,0,0,.46.46H447a.43.43,0,0,0,.43-.43v-1.41a.43.43,0,0,0-.43-.42h0"/><path class="cls-19" d="M332.57,92.27c0-.63.88-1.15,1.93-1.15s2,.52,2,1.15-.89,1.11-2,1.11-1.93-.59-1.93-1.11"/><path class="cls-19" d="M332.57,106.07c0-.62.88-1.11,1.93-1.11s2,.49,2,1.11-.89,1.15-2,1.15-1.93-.49-1.93-1.15"/><path class="cls-19" d="M455,92.27c0-.63.85-1.15,1.93-1.15s1.94.52,1.94,1.15-.86,1.11-1.94,1.11S455,92.89,455,92.27"/><path class="cls-19" d="M455,106.07c0-.62.85-1.11,1.93-1.11s1.94.49,1.94,1.11-.86,1.15-1.94,1.15-1.93-.49-1.93-1.15"/><path class="cls-4" d="M456.47,81.64h-1.06V78.27h-1.3v-.79c.73,0,1.4-.24,1.52-1h.84Z"/><path class="cls-4" d="M453.83,118.86a1.85,1.85,0,0,1,1.89-2.1,1.65,1.65,0,0,1,1.78,1.62c0,1.58-1.67,1.7-2.43,2.77h2.46v.9h-3.81c0-1.2.74-1.7,1.63-2.32.46-.32,1.09-.63,1.09-1.26a.75.75,0,0,0-.77-.81c-.63,0-.83.65-.83,1.2Z"/><path class="cls-4" d="M335.86,78.55c.45,0,1.1,0,1.1-.65a.69.69,0,0,0-.73-.69c-.54,0-.81.4-.8.93h-1a1.73,1.73,0,0,1,1.8-1.8A1.61,1.61,0,0,1,338,77.78a1,1,0,0,1-.73,1.06v0a1.14,1.14,0,0,1,.92,1.18,1.93,1.93,0,0,1-3.85-.19h1c0,.57.3,1,.91,1a.8.8,0,0,0,.85-.82c0-.79-.69-.77-1.2-.77Z"/><path class="cls-4" d="M339.53,80.3a.76.76,0,0,0,.7.65c.77,0,1-1,1-1.58h0a1.31,1.31,0,0,1-1.17.57,1.65,1.65,0,0,1-1.2-.53,1.9,1.9,0,0,1,1.42-3.06c1.57,0,2,1.38,2,2.69s-.57,2.71-2,2.71a1.59,1.59,0,0,1-1.69-1.44Zm1.6-2.12a.9.9,0,0,0-.84-1,.87.87,0,0,0-.79,1c0,.49.25,1,.79,1A.86.86,0,0,0,341.13,78.18Z"/><path class="cls-4" d="M336.48,120.85h-2.2v-1l2.26-3h.94V120h.69v.86h-.69v1.2h-1Zm0-2.67h0L335.11,120h1.37Z"/><path class="cls-4" d="M340.34,116.76c1,0,1.92.65,1.92,2.68s-.88,2.72-1.92,2.72-1.9-.65-1.9-2.72S339.31,116.76,340.34,116.76Zm0,4.53c.86,0,.86-1.27.86-1.85s0-1.81-.86-1.81-.84,1.27-.84,1.81S339.5,121.29,340.34,121.29Z"/></g></g></svg>