<?xml version="1.0" encoding="utf-8"?>
<!-- Generator: Adobe Illustrator 26.0.1, SVG Export Plug-In . SVG Version: 6.00 Build 0)  -->
<svg version="1.1" id="Layer_1" xmlns="http://www.w3.org/2000/svg" xmlns:xlink="http://www.w3.org/1999/xlink" x="0px" y="0px"
	 viewBox="0 0 755.8 475.7" style="enable-background:new 0 0 755.8 475.7;" xml:space="preserve">
<style type="text/css">
	.st0{fill:#C0BFBF;}
	.st1{opacity:0.3;}
	.st2{fill:#E0AC52;}
	.st3{fill:#FFFFFF;}
	.st4{fill:#EBF4FB;}
	.st5{fill:#333E49;}
	.st6{fill:#222630;}
	.st7{fill:#BE8E3E;}
	.st8{fill:#C6C6C5;}
	.st9{fill:#EB2627;}
	.st10{fill:#7F8080;}
	.st11{fill:#333333;}
	.st12{fill:#B3B3B3;}
	.st13{fill:#FED401;}
</style>
<path class="st0" d="M0.6,71v335h468.9V71H0.6z M444.6,162.1c-5.8,0-10.4-4.7-10.4-10.5s4.7-10.4,10.5-10.4s10.4,4.7,10.4,10.4
	S450.4,162.1,444.6,162.1L444.6,162.1z M375.9,392.4c-5.8-0.1-10.5-4.9-10.4-10.7c0.1-5.8,4.9-10.5,10.7-10.4s10.5,4.9,10.4,10.7
	c-0.1,5.7-4.7,10.3-10.4,10.4H375.9z M296.5,107.3c-5.8,0-10.4-4.7-10.4-10.5l0,0l0,0c0-5.8,4.7-10.5,10.5-10.5s10.5,4.7,10.5,10.5
	s-4.7,10.5-10.5,10.5C296.6,107.3,296.6,107.3,296.5,107.3L296.5,107.3z M51.2,379.9c0-10.4,8.5-18.9,18.9-18.9S89,369.5,89,379.9
	s-8.5,18.9-18.9,18.9S51.2,390.3,51.2,379.9L51.2,379.9z M69.4,118c-10.4,0-18.9-8.5-18.9-18.9S59,80.2,69.4,80.2
	s18.9,8.5,18.9,18.9S79.9,118,69.4,118L69.4,118z"/>
<g class="st1">
	<path class="st2" d="M444.7,133.7C444.7,133.7,444.6,133.7,444.7,133.7c-10,0-18.1,8.1-18.1,18s8.1,18,18,18s18-8,18-17.9
		C462.7,141.8,454.6,133.7,444.7,133.7z M452.4,158.7c-3.9,4.3-10.5,4.6-14.8,0.8c-4.3-3.9-4.6-10.5-0.8-14.8l0,0l0,0
		c3.9-4.3,10.5-4.6,14.8-0.8C455.9,147.8,456.3,154.4,452.4,158.7z"/>
</g>
<g class="st1">
	<path class="st2" d="M296.5,77.2c-10.8,0-19.6,8.8-19.6,19.6l0,0l0,0c0,10.8,8.7,19.6,19.6,19.7s19.6-8.7,19.7-19.6
		C316.2,86,307.5,77.2,296.5,77.2C296.6,77.2,296.6,77.2,296.5,77.2L296.5,77.2z M296.5,107.3c-5.8,0-10.4-4.7-10.4-10.5l0,0l0,0
		c0-5.8,4.7-10.5,10.5-10.5s10.5,4.7,10.5,10.5s-4.7,10.5-10.5,10.5C296.6,107.3,296.6,107.3,296.5,107.3L296.5,107.3z"/>
</g>
<g class="st1">
	<path class="st2" d="M358.6,381.3L358.6,381.3c0,10,8.1,18.1,18.1,18.1s18.1-8.1,18.1-18.1s-8.1-18.1-18.1-18.1c0,0,0,0-0.1,0
		C366.7,363.2,358.6,371.3,358.6,381.3z M375.8,392.4c-5.8-0.1-10.5-4.9-10.4-10.7c0.1-5.8,4.9-10.5,10.7-10.4s10.5,4.9,10.4,10.7
		c-0.1,5.7-4.7,10.3-10.4,10.4H375.8z"/>
</g>
<g class="st1">
	<path class="st2" d="M41.5,79.1c-11,15.4-7.3,36.8,8.1,47.8s36.8,7.3,47.8-8.1S104.7,82,89.3,71l0,0H49.6
		C46.5,73.2,43.7,76,41.5,79.1z M50.5,99.1c0-10.4,8.5-18.9,18.9-18.9s18.9,8.5,18.9,18.9S79.8,118,69.4,118S50.5,109.6,50.5,99.1
		L50.5,99.1L50.5,99.1z"/>
</g>
<g class="st1">
	<path class="st2" d="M96.5,400.4c11.4-14.5,8.9-35.6-5.6-47s-35.6-8.9-47,5.6s-8.9,35.5,5.6,47h41.4
		C92.9,404.3,94.8,402.4,96.5,400.4z M70.4,360.6c10.5,0.1,18.9,8.6,18.9,19.1c-0.1,10.5-8.6,18.9-19.1,18.9
		c-10.5-0.1-18.9-8.6-18.9-19.1c0.1-10.4,8.5-18.8,18.9-18.9H70.4z"/>
</g>
<g id="Back_Label" class="st1">
	<path class="st3" d="M463.5,117.4h-11.7c-0.6,0-1-0.4-1-1s0.4-1,1-1h10.7V87.3h-10.7c-0.6,0-1-0.4-1-1s0.4-1,1-1h11.7
		c0.6,0,1,0.4,1,1v30.2C464.5,117,464,117.4,463.5,117.4z"/>
	<path class="st3" d="M338.1,117.4h-11.7c-0.6,0-1-0.4-1-1V86.3c0-0.6,0.4-1,1-1h11.7c0.6,0,1,0.4,1,1s-0.4,1-1,1h-10.7v28.2h10.7
		c0.6,0,1,0.4,1,1S338.7,117.4,338.1,117.4z"/>
	<circle class="st3" cx="446.9" cy="80.8" r="3.1"/>
</g>
<path class="st4" d="M334.8,112.9h-1.1c-1,0-1.9-0.8-1.9-1.8l0,0V91.2c0-1,0.8-1.9,1.8-1.9l0,0h1.1c1,0,1.9,0.8,1.9,1.8l0,0v19.8
	C336.6,112.1,335.8,112.9,334.8,112.9L334.8,112.9"/>
<path class="st4" d="M457.9,112.9h-1.1c-1,0-1.9-0.8-1.9-1.8l0,0l0,0V91.2c0-1,0.8-1.9,1.8-1.9l0,0h1.1c1,0,1.9,0.8,1.9,1.8l0,0l0,0
	v19.8C459.7,112.1,458.9,112.9,457.9,112.9L457.9,112.9L457.9,112.9"/>
<path class="st5" d="M460.8,95.6v-1.8c0-1-0.8-1.9-1.9-1.9h-3.8c-0.7,0-1.4,0.5-1.7,1.2H337.9c-0.3-0.7-1-1.2-1.8-1.2h-3.8
	c-1,0-1.9,0.8-1.9,1.9v1.9c0,0.8,0.6,1.5,1.3,1.8v7.4c-0.8,0.2-1.3,0.9-1.3,1.8v1.9c0,1,0.8,1.9,1.9,1.9h3.8c0.8,0,1.5-0.5,1.8-1.2
	h115.5c0.3,0.7,1,1.2,1.8,1.2h3.8c1,0,1.9-0.8,1.9-1.9l0,0v-1.9c0-0.8-0.5-1.4-1.1-1.7v-7.5C460.4,97.1,460.9,96.4,460.8,95.6z"/>
<path class="st6" d="M450.5,107.6h-110c-0.9,0-1.6-0.4-1.6-1V96.2c0-0.5,0.7-1,1.6-1h110c0.9,0,1.6,0.4,1.6,1v10.4
	C452.1,107.1,451.4,107.6,450.5,107.6"/>
<path class="st4" d="M346,85.4h-2.1c-0.3,0-0.5,0.3-0.6,0.6v1.9c0,0.3,0.2,0.5,0.5,0.6l0,0v5.1h2.2v-5.1c0.3,0,0.5-0.2,0.5-0.5l0,0
	v-2C346.5,85.7,346.3,85.4,346,85.4L346,85.4"/>
<path class="st7" d="M345.7,95.4h-2.9c-0.2,0-0.4-0.2-0.4-0.4v-1.4c0-0.2,0.2-0.4,0.4-0.5l0,0h2.9c0.3,0,0.5,0.2,0.5,0.5V95
	C346.2,95.2,346,95.4,345.7,95.4L345.7,95.4"/>
<path class="st4" d="M346,117.3h-2.1c-0.3,0-0.5-0.3-0.6-0.6v-1.9c0-0.3,0.2-0.5,0.5-0.6l0,0v-5.1h2.2v5c0.3,0,0.5,0.2,0.5,0.5l0,0
	v1.9C346.5,116.9,346.3,117.2,346,117.3L346,117.3"/>
<path class="st7" d="M345.7,107.3h-2.9c-0.2,0-0.4,0.2-0.4,0.4v1.4c0,0.2,0.1,0.4,0.4,0.5l0,0h2.9c0.3,0,0.5-0.2,0.5-0.5v-1.4
	C346.2,107.5,346,107.3,345.7,107.3L345.7,107.3"/>
<path class="st4" d="M351.2,85.4h-2.1c-0.3,0-0.6,0.2-0.6,0.6v1.9c0,0.3,0.3,0.6,0.6,0.6l0,0v5.1h2.2v-5.1c0.3,0,0.6-0.3,0.6-0.6
	l0,0V86C351.8,85.7,351.5,85.4,351.2,85.4"/>
<path class="st7" d="M350.9,95.4h-2.8c-0.2,0-0.4-0.1-0.5-0.4l0,0v-1.4c0-0.3,0.2-0.5,0.5-0.5h2.8c0.3,0,0.5,0.2,0.5,0.5V95
	C351.4,95.2,351.2,95.4,350.9,95.4L350.9,95.4"/>
<path class="st4" d="M351.2,117.3h-2.1c-0.3,0-0.6-0.2-0.6-0.6v-1.9c0-0.3,0.3-0.6,0.6-0.6l0,0v-5.1h2.2v5c0.3,0,0.6,0.3,0.6,0.6
	l0,0v1.9C351.8,116.9,351.5,117.2,351.2,117.3"/>
<path class="st7" d="M350.9,107.3h-2.8c-0.2,0-0.4,0.2-0.5,0.4l0,0v1.4c0,0.3,0.2,0.5,0.4,0.5l0,0h2.8c0.3,0,0.5-0.2,0.5-0.5l0,0
	v-1.4C351.4,107.5,351.2,107.3,350.9,107.3L350.9,107.3"/>
<path class="st4" d="M356.7,85.4h-2.1c-0.3,0-0.5,0.3-0.6,0.6v1.9c0,0.3,0.2,0.5,0.5,0.6l0,0v5.1h2.2v-5.1c0.3,0,0.5-0.2,0.5-0.5v-2
	C357.2,85.7,357,85.4,356.7,85.4L356.7,85.4"/>
<path class="st7" d="M356.4,95.4h-2.8c-0.2,0-0.4-0.2-0.4-0.4v-1.4c0-0.2,0.2-0.4,0.4-0.5l0,0h2.9c0.3,0,0.5,0.2,0.5,0.5V95
	C356.9,95.2,356.7,95.4,356.4,95.4L356.4,95.4"/>
<path class="st4" d="M356.7,117.3h-2.1c-0.3,0-0.5-0.3-0.6-0.6v-1.9c0-0.3,0.2-0.5,0.5-0.6l0,0v-5.1h2.2v5c0.3,0,0.5,0.2,0.5,0.5
	v1.9C357.2,116.9,357,117.2,356.7,117.3L356.7,117.3"/>
<path class="st7" d="M356.4,107.3h-2.8c-0.2,0-0.4,0.2-0.4,0.4v1.4c0,0.2,0.1,0.4,0.4,0.5l0,0h2.9c0.3,0,0.5-0.2,0.5-0.5v-1.4
	C356.9,107.5,356.7,107.3,356.4,107.3L356.4,107.3"/>
<path class="st4" d="M362.1,85.4H360c-0.3,0-0.6,0.3-0.6,0.6v1.9c0,0.3,0.2,0.5,0.5,0.6l0,0l0,0v5.1h2.2v-5.1c0.3,0,0.5-0.2,0.5-0.5
	v-2C362.6,85.7,362.4,85.4,362.1,85.4L362.1,85.4"/>
<path class="st7" d="M361.9,95.4H359c-0.2,0-0.4-0.2-0.5-0.4v-1.4c0-0.3,0.2-0.5,0.5-0.5h2.9c0.3,0,0.5,0.2,0.5,0.5V95
	C362.4,95.2,362.2,95.4,361.9,95.4L361.9,95.4"/>
<path class="st4" d="M362.1,117.3H360c-0.3,0-0.6-0.3-0.6-0.6v-1.9c0-0.3,0.1-0.6,0.4-0.6h0.1v-5h2.2v5c0.3,0,0.5,0.2,0.5,0.5v1.9
	C362.7,116.9,362.4,117.2,362.1,117.3L362.1,117.3"/>
<path class="st7" d="M361.9,107.3H359c-0.2,0-0.4,0.2-0.5,0.4v1.4c0,0.3,0.2,0.5,0.5,0.5h2.9c0.3,0,0.5-0.2,0.5-0.5v-1.4
	C362.4,107.5,362.2,107.3,361.9,107.3L361.9,107.3"/>
<path class="st4" d="M367.4,85.4h-2.1c-0.3,0-0.6,0.3-0.6,0.6v1.9c0,0.3,0.2,0.5,0.5,0.6l0,0v5.1h2.2v-5.1c0.3,0,0.5-0.2,0.5-0.5v-2
	C367.9,85.7,367.6,85.5,367.4,85.4"/>
<path class="st7" d="M367.1,95.4h-2.8c-0.2,0-0.4-0.1-0.5-0.4l0,0v-1.4c0-0.3,0.2-0.5,0.5-0.5h2.8c0.3,0,0.5,0.2,0.5,0.5V95
	C367.6,95.2,367.3,95.4,367.1,95.4L367.1,95.4"/>
<path class="st4" d="M367.4,117.3h-2.1c-0.3,0-0.6-0.3-0.6-0.6v-1.9c0-0.3,0.1-0.6,0.4-0.6h0.1v-5h2.2v5c0.3,0,0.5,0.2,0.5,0.5v1.9
	C367.9,116.9,367.7,117.2,367.4,117.3"/>
<path class="st7" d="M367.1,107.3h-2.8c-0.2,0-0.4,0.2-0.5,0.4v1.4c0,0.3,0.2,0.5,0.5,0.5l0,0h2.8c0.3,0,0.5-0.2,0.5-0.5l0,0v-1.4
	C367.5,107.5,367.3,107.3,367.1,107.3"/>
<path class="st4" d="M372.6,85.4h-2.1c-0.3,0-0.5,0.3-0.6,0.6v1.9c0,0.3,0.2,0.5,0.5,0.6l0,0v5.1h2.3v-5.1c0.3,0,0.5-0.2,0.5-0.5
	l0,0v-2C373.1,85.7,372.9,85.4,372.6,85.4L372.6,85.4"/>
<path class="st7" d="M372.3,95.4h-2.9c-0.2,0-0.4-0.2-0.4-0.4v-1.4c0-0.2,0.2-0.4,0.4-0.5l0,0h2.9c0.3,0,0.5,0.2,0.5,0.5V95
	C372.8,95.2,372.6,95.4,372.3,95.4L372.3,95.4"/>
<path class="st4" d="M372.6,117.3h-2.1c-0.3,0-0.5-0.3-0.6-0.6v-1.9c0-0.3,0.2-0.5,0.5-0.6l0,0v-5.1h2.3v5c0.3,0,0.5,0.2,0.5,0.5
	l0,0v1.9C373.1,116.9,372.9,117.2,372.6,117.3L372.6,117.3"/>
<path class="st7" d="M372.3,107.3h-2.9c-0.2,0-0.4,0.2-0.4,0.4v1.4c0,0.2,0.1,0.4,0.4,0.5l0,0h2.9c0.3,0,0.5-0.2,0.5-0.5v-1.4
	C372.8,107.5,372.6,107.3,372.3,107.3L372.3,107.3"/>
<path class="st4" d="M377.8,85.4h-2.1c-0.3,0-0.6,0.2-0.6,0.6v1.9c0,0.3,0.3,0.6,0.6,0.6v5.1h2.2v-5.1c0.3,0,0.6-0.2,0.6-0.5l0,0v-2
	C378.4,85.7,378.2,85.4,377.8,85.4"/>
<path class="st7" d="M377.6,95.4h-2.9c-0.2,0-0.4-0.2-0.4-0.4v-1.4c0-0.2,0.2-0.4,0.4-0.5l0,0h2.9c0.3,0,0.5,0.2,0.5,0.5V95
	C378,95.2,377.8,95.4,377.6,95.4L377.6,95.4"/>
<path class="st4" d="M377.8,117.3h-2.1c-0.3,0-0.6-0.2-0.6-0.6v-1.9c0-0.3,0.3-0.6,0.6-0.6v-5.1h2.2v5c0.3,0,0.6,0.3,0.6,0.6v1.9
	C378.4,116.9,378.1,117.2,377.8,117.3"/>
<path class="st7" d="M377.6,107.3h-2.9c-0.2,0-0.4,0.2-0.4,0.4v1.4c0,0.2,0.1,0.4,0.4,0.5l0,0h2.9c0.3,0,0.5-0.2,0.5-0.5v-1.4
	C378,107.5,377.8,107.3,377.6,107.3L377.6,107.3"/>
<path class="st4" d="M383.1,85.4H381c-0.3,0-0.6,0.2-0.6,0.6v1.9c0,0.3,0.3,0.6,0.6,0.6v5.1h2.2v-5.1c0.3,0,0.6-0.2,0.6-0.6V86
	C383.7,85.7,383.5,85.4,383.1,85.4"/>
<path class="st7" d="M382.9,95.4h-2.8c-0.2,0-0.4-0.2-0.5-0.4v-1.4c0-0.3,0.2-0.5,0.5-0.5h2.8c0.3,0,0.5,0.2,0.5,0.5V95
	C383.3,95.2,383.2,95.4,382.9,95.4L382.9,95.4"/>
<path class="st4" d="M383.1,117.3H381c-0.3,0-0.6-0.2-0.6-0.6v-1.9c0-0.3,0.3-0.6,0.6-0.6v-5.1h2.2v5c0.3,0,0.6,0.2,0.6,0.6v1.9
	C383.7,116.9,383.5,117.2,383.1,117.3"/>
<path class="st7" d="M382.9,107.3h-2.8c-0.2,0-0.4,0.2-0.5,0.4l0,0v1.4c0,0.3,0.2,0.5,0.5,0.5h2.8c0.3,0,0.5-0.2,0.5-0.5v-1.4
	C383.3,107.5,383.2,107.3,382.9,107.3L382.9,107.3"/>
<path class="st4" d="M388.4,85.4h-2.1c-0.3,0-0.6,0.2-0.6,0.6v1.9c0,0.3,0.3,0.6,0.6,0.6v5.1h2.1v-5.1c0.3,0,0.6-0.3,0.6-0.6V86
	C388.9,85.7,388.7,85.5,388.4,85.4"/>
<path class="st7" d="M388.4,95.4h-3c-0.2,0-0.3-0.2-0.3-0.4v-1.4c0-0.3,0.2-0.5,0.5-0.5h2.9c0.3,0,0.5,0.2,0.5,0.5V95
	C388.8,95.2,388.6,95.4,388.4,95.4L388.4,95.4"/>
<path class="st4" d="M388.4,117.3h-2.1c-0.3,0-0.6-0.2-0.6-0.6v-1.9c0-0.3,0.3-0.6,0.6-0.6v-5.1h2.1v5c0.3,0,0.6,0.3,0.6,0.6v1.9
	C388.9,116.9,388.7,117.2,388.4,117.3"/>
<path class="st7" d="M388.4,107.3h-3c-0.2,0-0.4,0.2-0.5,0.4l0,0v1.4c0,0.3,0.2,0.5,0.4,0.5l0,0h3c0.3,0,0.5-0.2,0.5-0.5v-1.4
	C388.8,107.5,388.6,107.3,388.4,107.3L388.4,107.3"/>
<path class="st4" d="M393.8,85.4h-2.1c-0.3,0-0.6,0.2-0.6,0.6v1.9c0,0.3,0.2,0.5,0.5,0.6l0,0v5.1h2.2v-5.1c0.3,0,0.5-0.2,0.6-0.5
	l0,0v-2C394.4,85.7,394.1,85.5,393.8,85.4"/>
<path class="st7" d="M393.5,95.4h-2.9c-0.2,0-0.4-0.1-0.5-0.4l0,0v-1.4c0-0.3,0.2-0.5,0.5-0.5h2.9c0.2,0,0.4,0.2,0.4,0.4v1.4
	C393.9,95.2,393.7,95.4,393.5,95.4L393.5,95.4"/>
<path class="st4" d="M393.8,117.3h-2.1c-0.3,0-0.6-0.2-0.6-0.6v-1.9c0-0.3,0.1-0.6,0.4-0.6h0.1v-5h2.2v5c0.3,0,0.5,0.2,0.6,0.5l0,0
	c0,0,0,0,0,0.1v1.9C394.4,117,394.1,117.2,393.8,117.3"/>
<path class="st7" d="M393.5,107.3h-2.9c-0.2,0-0.4,0.2-0.5,0.4l0,0v1.4c0,0.3,0.2,0.5,0.5,0.5h2.9c0.2,0,0.4-0.2,0.4-0.4v-1.4
	C393.9,107.5,393.7,107.3,393.5,107.3L393.5,107.3"/>
<path class="st4" d="M399.2,85.4h-2.1c-0.3,0-0.6,0.2-0.6,0.6v1.9c0,0.3,0.3,0.6,0.6,0.6v5.1h2.2v-5.1c0.3,0,0.6-0.3,0.6-0.6V86
	C399.8,85.7,399.5,85.4,399.2,85.4"/>
<path class="st7" d="M398.9,95.4h-2.8c-0.2,0-0.4-0.1-0.5-0.4l0,0v-1.4c0-0.3,0.2-0.5,0.5-0.5h2.8c0.3,0,0.5,0.2,0.5,0.5V95
	C399.4,95.2,399.2,95.4,398.9,95.4L398.9,95.4"/>
<path class="st4" d="M399.2,117.3h-2.1c-0.3,0-0.6-0.2-0.6-0.6v-1.9c0-0.3,0.3-0.6,0.6-0.6v-5.1h2.2v5c0.3,0,0.6,0.3,0.6,0.6v1.9
	C399.8,116.9,399.5,117.2,399.2,117.3"/>
<path class="st7" d="M398.9,107.3h-2.8c-0.2,0-0.4,0.2-0.5,0.4l0,0v1.4c0,0.3,0.2,0.5,0.5,0.5h2.8c0.3,0,0.5-0.2,0.5-0.5l0,0v-1.4
	C399.4,107.5,399.2,107.3,398.9,107.3L398.9,107.3"/>
<path class="st4" d="M404.5,85.4h-2.1c-0.3,0-0.6,0.3-0.6,0.6v1.9c0,0.3,0.2,0.5,0.5,0.6l0,0v5.1h2.2v-5.1c0.3,0,0.5-0.2,0.6-0.5
	l0,0v-2C405.1,85.7,404.8,85.4,404.5,85.4"/>
<path class="st7" d="M404.3,95.4h-2.7c-0.2,0-0.4-0.2-0.5-0.4v-1.4c0-0.3,0.2-0.5,0.5-0.5h2.9c0.2,0,0.4,0.2,0.4,0.4v1.4
	c0,0.2-0.2,0.4-0.4,0.4l0,0"/>
<path class="st4" d="M404.5,117.3h-2.1c-0.3,0-0.6-0.3-0.6-0.6v-1.9c0-0.3,0.2-0.5,0.5-0.6l0,0v-5.1h2.2v5c0.3,0,0.5,0.2,0.6,0.5
	l0,0v2C405.1,117,404.8,117.3,404.5,117.3"/>
<path class="st7" d="M404.3,107.3h-2.7c-0.2,0-0.4,0.2-0.5,0.4l0,0v1.4c0,0.3,0.2,0.5,0.5,0.5h2.9c0.2,0,0.4-0.2,0.4-0.4v-1.4
	c0-0.2-0.2-0.4-0.4-0.4l0,0"/>
<path class="st4" d="M410.3,85.4h-2.1c-0.3,0-0.6,0.3-0.6,0.6v1.9c0,0.3,0.2,0.5,0.5,0.6l0,0v5.1h2.2v-5.1c0.3,0,0.5-0.2,0.5-0.5v-2
	C410.9,85.7,410.6,85.5,410.3,85.4"/>
<path class="st7" d="M410.1,95.4h-2.8c-0.2,0-0.4-0.1-0.5-0.4l0,0v-1.4c0-0.3,0.2-0.5,0.5-0.5h2.8c0.2,0,0.4,0.2,0.4,0.4v1.4
	C410.5,95.2,410.3,95.4,410.1,95.4L410.1,95.4"/>
<path class="st4" d="M410.3,117.3h-2.1c-0.3,0-0.6-0.3-0.6-0.6v-1.9c-0.1-0.3,0.1-0.6,0.4-0.6l0,0h0.1v-5h2.2v5
	c0.3,0,0.5,0.2,0.5,0.5v1.9C411,116.9,410.7,117.2,410.3,117.3"/>
<path class="st7" d="M410.1,107.3h-2.8c-0.2,0-0.4,0.2-0.5,0.4l0,0v1.4c0,0.3,0.2,0.5,0.4,0.5l0,0h2.8c0.2,0,0.4-0.2,0.4-0.4v-1.4
	C410.5,107.5,410.3,107.3,410.1,107.3L410.1,107.3"/>
<path class="st4" d="M415.5,85.4h-2.1c-0.3,0-0.5,0.3-0.6,0.6v1.9c0,0.3,0.2,0.5,0.5,0.6l0,0l0,0v5.1h2.3v-5.1
	c0.3,0,0.5-0.2,0.5-0.5v-2C416.1,85.7,415.9,85.4,415.5,85.4C415.6,85.4,415.6,85.4,415.5,85.4"/>
<path class="st7" d="M415.3,95.4h-2.9c-0.2,0-0.4-0.2-0.5-0.4v-1.4c0-0.3,0.2-0.5,0.5-0.5h2.9c0.3,0,0.5,0.2,0.5,0.5V95
	C415.7,95.2,415.5,95.4,415.3,95.4L415.3,95.4"/>
<path class="st4" d="M415.5,117.3h-2.1c-0.3,0-0.5-0.3-0.6-0.6v-1.9c0-0.3,0.2-0.5,0.5-0.6l0,0l0,0v-5.1h2.3v5
	c0.3,0,0.5,0.2,0.5,0.5v1.9C416.1,116.9,415.9,117.2,415.5,117.3C415.6,117.2,415.6,117.2,415.5,117.3"/>
<path class="st7" d="M415.3,107.3h-2.9c-0.2,0-0.4,0.2-0.5,0.4v1.4c0,0.3,0.2,0.5,0.5,0.5h2.9c0.3,0,0.5-0.2,0.5-0.5l0,0v-1.4
	C415.7,107.5,415.5,107.3,415.3,107.3L415.3,107.3"/>
<path class="st4" d="M420.8,85.4h-2.1c-0.3,0-0.6,0.2-0.6,0.6v1.9c0,0.3,0.2,0.5,0.5,0.6l0,0l0,0v5.1h2.2v-5.1
	c0.3,0.1,0.6-0.1,0.6-0.4V88v-2C421.4,85.7,421.2,85.4,420.8,85.4C420.9,85.4,420.9,85.4,420.8,85.4"/>
<path class="st7" d="M420.5,95.4h-2.8c-0.2,0-0.4-0.2-0.4-0.4l0,0v-1.4c0-0.2,0.2-0.4,0.4-0.5h2.9c0.3,0,0.5,0.2,0.5,0.5V95
	C421,95.2,420.8,95.4,420.5,95.4C420.6,95.4,420.6,95.4,420.5,95.4L420.5,95.4"/>
<path class="st4" d="M420.8,117.3h-2.1c-0.3,0-0.6-0.2-0.6-0.6v-1.9c0-0.3,0.2-0.5,0.5-0.6l0,0l0,0v-5.1h2.2v5
	c0.3,0,0.5,0.2,0.5,0.5v1.9C421.3,116.9,421.1,117.2,420.8,117.3"/>
<path class="st7" d="M420.5,107.3h-2.8c-0.2,0-0.4,0.2-0.4,0.4l0,0v1.4c0,0.2,0.1,0.4,0.4,0.5l0,0h2.9c0.3,0,0.5-0.2,0.5-0.5l0,0
	v-1.4C421,107.5,420.8,107.3,420.5,107.3L420.5,107.3"/>
<path class="st4" d="M426.1,85.4H424c-0.3,0-0.6,0.2-0.6,0.6v1.9c0,0.3,0.3,0.6,0.6,0.6v5.1h2.2v-5.1c0.3,0,0.6-0.3,0.6-0.6V86
	C426.7,85.7,426.4,85.4,426.1,85.4"/>
<path class="st7" d="M425.9,95.4H423c-0.2,0-0.4-0.2-0.4-0.4l0,0v-1.4c0-0.2,0.2-0.4,0.4-0.5l0,0h2.9c0.3,0,0.5,0.2,0.5,0.5V95
	C426.3,95.2,426.1,95.4,425.9,95.4L425.9,95.4"/>
<path class="st4" d="M426.1,117.3H424c-0.3,0-0.6-0.2-0.6-0.6v-1.9c0-0.3,0.3-0.6,0.6-0.6v-5.1h2.2v5c0.3,0,0.6,0.3,0.6,0.6v1.9
	C426.7,116.9,426.4,117.2,426.1,117.3"/>
<path class="st7" d="M425.9,107.3H423c-0.2,0-0.4,0.2-0.4,0.4l0,0v1.4c0,0.2,0.1,0.4,0.4,0.5l0,0h2.9c0.3,0,0.5-0.2,0.5-0.5v-1.4
	C426.3,107.5,426.1,107.3,425.9,107.3L425.9,107.3"/>
<path class="st4" d="M431.4,85.4h-2.1c-0.3,0-0.6,0.2-0.6,0.6v1.9c0,0.3,0.3,0.6,0.6,0.6v5.1h2.1v-5.1c0.3,0,0.6-0.2,0.6-0.6V86
	C431.9,85.7,431.7,85.5,431.4,85.4"/>
<path class="st7" d="M431.2,95.4h-2.8c-0.2-0.1-0.3-0.2-0.3-0.4v-1.4c0-0.3,0.2-0.5,0.5-0.5h2.8c0.3,0,0.5,0.2,0.5,0.5V95
	c0,0.2-0.2,0.4-0.4,0.4l0,0l0,0"/>
<path class="st4" d="M431.4,117.3h-2.1c-0.3,0-0.6-0.2-0.6-0.6v-1.9c0-0.3,0.3-0.6,0.6-0.6v-5.1h2.1v5c0.3,0,0.6,0.2,0.6,0.6v1.9
	C431.9,116.9,431.7,117.2,431.4,117.3"/>
<path class="st7" d="M431.2,107.3h-2.8c-0.2,0-0.4,0.2-0.5,0.4l0,0v1.4c0,0.3,0.2,0.5,0.5,0.5h2.8c0.3,0,0.5-0.2,0.5-0.5v-1.4
	C431.7,107.5,431.5,107.3,431.2,107.3L431.2,107.3"/>
<path class="st4" d="M436.7,85.4h-2c-0.3,0-0.6,0.3-0.6,0.6v1.9c0,0.3,0.2,0.5,0.5,0.6l0,0l0,0v5.1h2.2v-5.1c0.3,0,0.5-0.2,0.6-0.5
	l0,0v-2C437.4,85.7,437.1,85.4,436.7,85.4"/>
<path class="st7" d="M436.5,95.4h-2.9c-0.2,0-0.4-0.2-0.5-0.4v-1.4c0-0.3,0.2-0.5,0.5-0.5h2.9c0.2,0,0.4,0.2,0.4,0.4v1.4
	C436.9,95.2,436.7,95.4,436.5,95.4L436.5,95.4"/>
<path class="st4" d="M436.7,117.3h-2c-0.3,0-0.6-0.3-0.6-0.6v-1.9c-0.1-0.3,0.1-0.6,0.4-0.6l0,0h0.1v-5h2.2v5c0.3,0,0.5,0.2,0.6,0.5
	l0,0v2c0,0.3-0.3,0.6-0.6,0.6"/>
<path class="st7" d="M436.5,107.3h-2.9c-0.2,0-0.4,0.2-0.5,0.4l0,0v1.4c0,0.3,0.2,0.5,0.5,0.5h2.9c0.2,0,0.4-0.2,0.4-0.4v-1.4
	C436.9,107.5,436.7,107.3,436.5,107.3L436.5,107.3"/>
<path class="st4" d="M442.2,85.4h-2.1c-0.3,0-0.6,0.2-0.6,0.6v1.9c0,0.3,0.3,0.6,0.6,0.6v5.1h2.2v-5.1c0.3,0,0.6-0.2,0.6-0.6V86
	C442.8,85.7,442.5,85.4,442.2,85.4"/>
<path class="st7" d="M441.9,95.4h-2.8c-0.2,0-0.4-0.2-0.5-0.4v-1.4c0-0.3,0.2-0.5,0.5-0.5h2.8c0.3,0,0.5,0.2,0.5,0.5V95
	C442.4,95.2,442.2,95.4,441.9,95.4L441.9,95.4"/>
<path class="st4" d="M442.2,117.3h-2.1c-0.3,0-0.6-0.2-0.6-0.6v-1.9c0-0.3,0.3-0.6,0.6-0.6v-5.1h2.2v5c0.3,0,0.6,0.2,0.6,0.6v1.9
	C442.8,116.9,442.5,117.2,442.2,117.3"/>
<path class="st7" d="M441.9,107.3h-2.8c-0.2,0-0.4,0.2-0.5,0.4l0,0v1.4c0,0.3,0.2,0.5,0.5,0.5h2.8c0.3,0,0.5-0.2,0.5-0.5v-1.4
	C442.4,107.5,442.2,107.3,441.9,107.3L441.9,107.3"/>
<path class="st4" d="M447.5,85.4h-2.1c-0.3,0-0.6,0.2-0.6,0.6v1.9c0,0.3,0.3,0.6,0.6,0.6v5.1h2.2v-5.1c0.3,0,0.6-0.3,0.6-0.6V86
	C448.1,85.7,447.8,85.4,447.5,85.4"/>
<path class="st7" d="M447.3,95.4h-2.9c-0.2,0-0.4-0.1-0.5-0.4l0,0v-1.4c0-0.3,0.2-0.5,0.5-0.5h2.9c0.2,0,0.4,0.2,0.4,0.4v1.4
	C447.7,95.2,447.5,95.4,447.3,95.4L447.3,95.4"/>
<path class="st4" d="M447.5,117.3h-2.1c-0.3,0-0.6-0.2-0.6-0.6v-1.9c0-0.3,0.3-0.6,0.6-0.6v-5.1h2.2v5c0.3,0,0.6,0.3,0.6,0.6v1.9
	C448.1,116.9,447.8,117.2,447.5,117.3"/>
<path class="st7" d="M447.3,107.3h-2.9c-0.2,0-0.4,0.2-0.5,0.4l0,0v1.4c0,0.3,0.2,0.5,0.5,0.5h2.9c0.2,0,0.4-0.2,0.4-0.4v-1.4
	C447.7,107.5,447.5,107.3,447.3,107.3L447.3,107.3"/>
<path class="st7" d="M331.8,94.3c0-0.6,0.9-1.2,2-1.2s2,0.5,2,1.2s-0.9,1.1-2,1.1S331.8,94.9,331.8,94.3"/>
<path class="st7" d="M331.8,108.3c0-0.6,0.9-1.1,2-1.1s2,0.5,2,1.1s-0.9,1.2-2,1.2S331.8,108.9,331.8,108.3"/>
<path class="st7" d="M455.3,94.3c0-0.6,0.9-1.2,2-1.2s2,0.5,2,1.2s-0.9,1.1-2,1.1S455.3,95,455.3,94.3"/>
<path class="st7" d="M455.3,108.3c0-0.6,0.9-1.1,2-1.1s2,0.5,2,1.1s-0.9,1.2-2,1.2S455.3,108.9,455.3,108.3"/>
<g class="st1">
	<circle class="st3" cx="116.2" cy="164.8" r="20.7"/>
	<path class="st8" d="M116.2,186.6c-12,0-21.7-9.7-21.7-21.7s9.7-21.7,21.7-21.7s21.7,9.7,21.7,21.7
		C138,176.8,128.3,186.5,116.2,186.6z M116.2,145.1c-10.9,0-19.7,8.8-19.7,19.7s8.8,19.7,19.7,19.7s19.7-8.8,19.7-19.7
		C136,153.9,127.1,145.1,116.2,145.1z"/>
</g>
<g class="st1">
	<circle class="st3" cx="116.2" cy="319" r="20.7"/>
	<path class="st8" d="M116.2,340.7c-12,0-21.7-9.7-21.7-21.7s9.7-21.7,21.7-21.7s21.7,9.7,21.7,21.7l0,0
		C138,331,128.3,340.7,116.2,340.7z M116.2,299.2c-10.9,0-19.7,8.8-19.7,19.7s8.8,19.7,19.7,19.7S136,329.9,136,319l0,0
		C136,308.1,127.1,299.3,116.2,299.2z"/>
</g>
<g class="st1">
	<circle class="st3" cx="216.4" cy="275.9" r="11.9"/>
	<path class="st8" d="M216.4,288.9c-7.1,0-12.9-5.8-12.9-12.9s5.8-12.9,12.9-12.9s12.9,5.8,12.9,12.9
		C229.3,283.1,223.6,288.8,216.4,288.9z M216.4,265c-6,0-10.9,4.9-10.9,10.9s4.9,10.9,10.9,10.9s10.9-4.9,10.9-10.9l0,0
		C227.4,269.9,222.5,265,216.4,265z"/>
</g>
<g class="st1">
	<circle class="st3" cx="216.4" cy="241.7" r="11.9"/>
	<path class="st8" d="M216.4,254.6c-7.1,0-12.9-5.8-12.9-12.9s5.8-12.9,12.9-12.9s12.9,5.8,12.9,12.9
		C229.3,248.8,223.6,254.6,216.4,254.6z M216.4,230.8c-6,0-10.9,4.9-10.9,10.9s4.9,10.9,10.9,10.9s10.9-4.9,10.9-10.9l0,0
		C227.3,235.7,222.5,230.8,216.4,230.8L216.4,230.8z"/>
</g>
<g class="st1">
	<circle class="st3" cx="216.4" cy="208.4" r="11.9"/>
	<path class="st8" d="M216.4,221.4c-7.1,0-12.9-5.8-12.9-12.9s5.8-12.9,12.9-12.9s12.9,5.8,12.9,12.9
		C229.3,215.6,223.6,221.3,216.4,221.4z M216.4,197.5c-6,0-10.9,4.9-10.9,10.9s4.9,10.9,10.9,10.9s10.9-4.9,10.9-10.9l0,0
		C227.4,202.4,222.5,197.5,216.4,197.5z"/>
</g>
<g class="st1">
	<ellipse class="st3" cx="21.8" cy="275.9" rx="11.9" ry="11.9"/>
	<path class="st8" d="M21.8,288.9c-7.1,0-12.9-5.8-12.9-12.9s5.8-13,12.9-13s12.9,5.8,12.9,12.9C34.7,283.1,28.9,288.8,21.8,288.9z
		 M21.8,265c-6,0-10.9,4.9-10.9,10.9s4.9,10.9,10.9,10.9S32.7,282,32.7,276l0,0C32.7,269.9,27.8,265,21.8,265z"/>
</g>
<g class="st1">
	<ellipse class="st3" cx="21.8" cy="208.4" rx="11.9" ry="11.9"/>
	<path class="st8" d="M21.8,221.4c-7.1,0-12.9-5.8-12.9-12.9s5.8-12.9,12.9-12.9s12.9,5.8,12.9,12.9
		C34.7,215.6,28.9,221.3,21.8,221.4z M21.8,197.5c-6,0-10.9,4.9-10.9,10.9s4.9,10.9,10.9,10.9s10.9-4.9,10.9-10.9l0,0
		C32.7,202.4,27.8,197.5,21.8,197.5z"/>
</g>
<path class="st9" d="M459.4,83h-1.1v-3.5h-1.4v-0.8c0.8,0,1.5-0.2,1.6-1.1h0.9V83z"/>
<path class="st9" d="M456.6,121.9c-0.1-1.1,0.6-2,1.7-2.2c0.1,0,0.2,0,0.3,0c1-0.1,1.8,0.6,1.9,1.6v0.1c0,1.6-1.8,1.8-2.6,2.9h2.6
	v0.9h-4c0-1.3,0.8-1.8,1.7-2.4c0.5-0.3,1.1-0.7,1.1-1.3c0-0.4-0.3-0.8-0.7-0.8h-0.1c-0.6,0-0.9,0.7-0.9,1.2L456.6,121.9z"/>
<path class="st9" d="M332.3,79.8c0.5,0,1.2-0.1,1.2-0.7c0-0.4-0.3-0.7-0.7-0.7c0,0,0,0-0.1,0c-0.6,0-0.9,0.4-0.9,1h-1
	c-0.1-1,0.7-1.9,1.7-1.9c0.1,0,0.1,0,0.2,0c0.9-0.1,1.7,0.6,1.8,1.5c0,0.5-0.3,1-0.8,1.1l0,0c0.6,0.1,1,0.6,1,1.2
	c-0.1,1.1-1,2-2.1,1.9s-2-1-1.9-2.1h1.1c0,0.6,0.3,1.1,1,1.1c0.5,0,0.9-0.3,0.9-0.8c0,0,0,0,0-0.1c0-0.8-0.7-0.8-1.3-0.8L332.3,79.8
	z"/>
<path class="st9" d="M336.1,81.6c0.1,0.4,0.4,0.6,0.7,0.7c0.8,0,1-1,1-1.7l0,0c-0.3,0.4-0.8,0.6-1.2,0.6c-0.5,0-0.9-0.2-1.3-0.6
	c-0.3-0.3-0.4-0.8-0.4-1.2c-0.1-1,0.7-1.9,1.8-2h0.1c1.7,0,2.1,1.4,2.1,2.8s-0.6,2.8-2.1,2.8c-0.9,0.1-1.7-0.6-1.8-1.5L336.1,81.6
	L336.1,81.6z M337.8,79.4c0-0.5-0.3-1-0.9-1l0,0c-0.5,0-0.9,0.5-0.8,1l0,0c0,0.5,0.3,1,0.8,1S337.8,80,337.8,79.4L337.8,79.4
	L337.8,79.4z"/>
<path class="st9" d="M332.9,124h-2.3v-1l2.4-3.2h1v3.3h0.7v0.9H334v1.3h-1.1V124z M332.9,121.2L332.9,121.2l-1.4,1.9h1.4V121.2z"/>
<path class="st9" d="M337,119.7c1.1,0,2,0.7,2,2.8s-0.9,2.8-2,2.8s-2-0.7-2-2.8S335.9,119.7,337,119.7z M337,124.5
	c0.9,0,0.9-1.3,0.9-1.9s0-1.9-0.9-1.9s-0.9,1.3-0.9,1.9S336.1,124.5,337,124.5z"/>
<g>
	<g>
		<rect x="664.8" y="0.6" class="st10" width="25.5" height="475.7"/>
	</g>
	<g>
		<rect x="632.9" y="0.6" class="st10" width="25.5" height="475.7"/>
	</g>
	<g>
		<path class="st11" d="M620.5,24.9h9.9c1.4,0,2.5,1.1,2.5,2.5v12.5c0,1.4-1.1,2.5-2.5,2.5h-9.9c-1.4,0-2.5-1.1-2.5-2.5V27.3
			C618.1,26,619.2,24.9,620.5,24.9z"/>
	</g>
	<g>
		<path class="st12" d="M638.3,0.6h18c1.2,0,2.1,0.9,2.1,2.1V16c0,1.2-0.9,2.1-2.1,2.1h-18c-1.2,0-2.1-0.9-2.1-2.1V2.8
			C636.2,1.6,637.1,0.6,638.3,0.6z"/>
	</g>
	<g>
		<path class="st11" d="M638.3,24.5h18c1.2,0,2.1,0.9,2.1,2.1v13.2c0,1.2-0.9,2.1-2.1,2.1h-18c-1.2,0-2.1-0.9-2.1-2.1V26.6
			C636.2,25.4,637.1,24.5,638.3,24.5z"/>
	</g>
	<g>
		<path class="st9" d="M638.3,49.1h18c1.2,0,2.1,0.9,2.1,2.1v13.2c0,1.2-0.9,2.1-2.1,2.1h-18c-1.2,0-2.1-0.9-2.1-2.1V51.2
			C636.2,50,637.1,49.1,638.3,49.1z"/>
	</g>
	<g>
		<path class="st12" d="M638.3,73.7h18c1.2,0,2.1,0.9,2.1,2.1V89c0,1.2-0.9,2.1-2.1,2.1h-18c-1.2,0-2.1-0.9-2.1-2.1V75.8
			C636.2,74.6,637.1,73.7,638.3,73.7z"/>
	</g>
	<g>
		<path class="st12" d="M638.3,97.2h18c1.2,0,2.1,0.9,2.1,2.1v13.2c0,1.2-0.9,2.1-2.1,2.1h-18c-1.2,0-2.1-0.9-2.1-2.1V99.3
			C636.2,98.1,637.1,97.2,638.3,97.2z"/>
	</g>
	<g>
		<path class="st12" d="M638.3,120.7h18c1.2,0,2.1,0.9,2.1,2.1V136c0,1.2-0.9,2.1-2.1,2.1h-18c-1.2,0-2.1-0.9-2.1-2.1v-13.2
			C636.2,121.6,637.1,120.7,638.3,120.7z"/>
	</g>
	<g>
		<path class="st12" d="M638.3,145h18c1.2,0,2.1,0.9,2.1,2.1v13.2c0,1.2-0.9,2.1-2.1,2.1h-18c-1.2,0-2.1-0.9-2.1-2.1v-13.2
			C636.2,145.9,637.1,145,638.3,145z"/>
	</g>
	<g>
		<path class="st12" d="M638.3,168.9h18c1.2,0,2.1,0.9,2.1,2.1v13.2c0,1.2-0.9,2.1-2.1,2.1h-18c-1.2,0-2.1-0.9-2.1-2.1V171
			C636.2,169.8,637.1,168.9,638.3,168.9z"/>
	</g>
	<g>
		<path class="st12" d="M638.3,193h18c1.2,0,2.1,0.9,2.1,2.1v13.2c0,1.2-0.9,2.1-2.1,2.1h-18c-1.2,0-2.1-0.9-2.1-2.1v-13.2
			C636.2,193.9,637.1,193,638.3,193z"/>
	</g>
	<g>
		<path class="st12" d="M638.3,217.4h18c1.2,0,2.1,0.9,2.1,2.1v13.2c0,1.2-0.9,2.1-2.1,2.1h-18c-1.2,0-2.1-0.9-2.1-2.1v-13.2
			C636.2,218.3,637.1,217.4,638.3,217.4z"/>
	</g>
	<g>
		<path class="st12" d="M638.3,242.6h18c1.2,0,2.1,0.9,2.1,2.1v13.2c0,1.2-0.9,2.1-2.1,2.1h-18c-1.2,0-2.1-0.9-2.1-2.1v-13.2
			C636.2,243.5,637.1,242.6,638.3,242.6z"/>
	</g>
	<g>
		<path class="st12" d="M638.3,266.2h18c1.2,0,2.1,0.9,2.1,2.1v13.2c0,1.2-0.9,2.1-2.1,2.1h-18c-1.2,0-2.1-0.9-2.1-2.1v-13.2
			C636.2,267.2,637.1,266.2,638.3,266.2z"/>
	</g>
	<g>
		<path class="st12" d="M666.9,0.6h18c1.2,0,2.1,0.9,2.1,2.1V16c0,1.2-0.9,2.1-2.1,2.1h-18c-1.2,0-2.1-0.9-2.1-2.1V2.8
			C664.8,1.6,665.8,0.6,666.9,0.6z"/>
	</g>
	<g>
		<path class="st11" d="M666.9,24.5h18c1.2,0,2.1,0.9,2.1,2.1v13.2c0,1.2-0.9,2.1-2.1,2.1h-18c-1.2,0-2.1-0.9-2.1-2.1V26.6
			C664.8,25.4,665.8,24.5,666.9,24.5z"/>
	</g>
	<g>
		<path class="st12" d="M666.9,49.1h18c1.2,0,2.1,0.9,2.1,2.1v13.2c0,1.2-0.9,2.1-2.1,2.1h-18c-1.2,0-2.1-0.9-2.1-2.1V51.2
			C664.8,50,665.8,49.1,666.9,49.1z"/>
	</g>
	<g>
		<path class="st12" d="M666.9,73.7h18c1.2,0,2.1,0.9,2.1,2.1V89c0,1.2-0.9,2.1-2.1,2.1h-18c-1.2,0-2.1-0.9-2.1-2.1V75.8
			C664.8,74.6,665.8,73.7,666.9,73.7z"/>
	</g>
	<g>
		<path class="st12" d="M666.9,97.2h18c1.2,0,2.1,0.9,2.1,2.1v13.2c0,1.2-0.9,2.1-2.1,2.1h-18c-1.2,0-2.1-0.9-2.1-2.1V99.3
			C664.8,98.1,665.8,97.2,666.9,97.2z"/>
	</g>
	<g>
		<path class="st12" d="M666.9,120.7h18c1.2,0,2.1,0.9,2.1,2.1V136c0,1.2-0.9,2.1-2.1,2.1h-18c-1.2,0-2.1-0.9-2.1-2.1v-13.2
			C664.8,121.6,665.8,120.7,666.9,120.7z"/>
	</g>
	<g>
		<path class="st12" d="M666.9,145h18c1.2,0,2.1,0.9,2.1,2.1v13.2c0,1.2-0.9,2.1-2.1,2.1h-18c-1.2,0-2.1-0.9-2.1-2.1v-13.2
			C664.8,145.9,665.8,145,666.9,145z"/>
	</g>
	<g>
		<path class="st12" d="M666.9,168.9h18c1.2,0,2.1,0.9,2.1,2.1v13.2c0,1.2-0.9,2.1-2.1,2.1h-18c-1.2,0-2.1-0.9-2.1-2.1V171
			C664.8,169.8,665.8,168.9,666.9,168.9z"/>
	</g>
	<g>
		<path class="st12" d="M666.9,193h18c1.2,0,2.1,0.9,2.1,2.1v13.2c0,1.2-0.9,2.1-2.1,2.1h-18c-1.2,0-2.1-0.9-2.1-2.1v-13.2
			C664.8,193.9,665.8,193,666.9,193z"/>
	</g>
	<g>
		<path class="st12" d="M666.9,217.4h18c1.2,0,2.1,0.9,2.1,2.1v13.2c0,1.2-0.9,2.1-2.1,2.1h-18c-1.2,0-2.1-0.9-2.1-2.1v-13.2
			C664.8,218.3,665.8,217.4,666.9,217.4z"/>
	</g>
	<g>
		<path class="st12" d="M666.9,242.6h18c1.2,0,2.1,0.9,2.1,2.1v13.2c0,1.2-0.9,2.1-2.1,2.1h-18c-1.2,0-2.1-0.9-2.1-2.1v-13.2
			C664.8,243.5,665.8,242.6,666.9,242.6z"/>
	</g>
	<g>
		<path class="st12" d="M666.9,266.2h18c1.2,0,2.1,0.9,2.1,2.1v13.2c0,1.2-0.9,2.1-2.1,2.1h-18c-1.2,0-2.1-0.9-2.1-2.1v-13.2
			C664.8,267.2,665.8,266.2,666.9,266.2z"/>
	</g>
	<g>
		<path class="st12" d="M666.9,289.9h18c1.2,0,2.1,0.9,2.1,2.1v13.2c0,1.2-0.9,2.1-2.1,2.1h-18c-1.2,0-2.1-0.9-2.1-2.1V292
			C664.8,290.8,665.8,289.9,666.9,289.9z"/>
	</g>
	<g>
		<path class="st12" d="M666.9,313.4h18c1.2,0,2.1,0.9,2.1,2.1v13.2c0,1.2-0.9,2.1-2.1,2.1h-18c-1.2,0-2.1-0.9-2.1-2.1v-13.2
			C664.8,314.3,665.8,313.4,666.9,313.4z"/>
	</g>
	<g>
		<path class="st12" d="M666.9,337.7h18c1.2,0,2.1,0.9,2.1,2.1V353c0,1.2-0.9,2.1-2.1,2.1h-18c-1.2,0-2.1-0.9-2.1-2.1v-13.2
			C664.8,338.6,665.8,337.7,666.9,337.7z"/>
	</g>
	<g>
		<path class="st12" d="M666.9,361.6h18c1.2,0,2.1,0.9,2.1,2.1v13.2c0,1.2-0.9,2.1-2.1,2.1h-18c-1.2,0-2.1-0.9-2.1-2.1v-13.2
			C664.8,362.5,665.8,361.6,666.9,361.6z"/>
	</g>
	<g>
		<path class="st12" d="M666.9,385.7h18c1.2,0,2.1,0.9,2.1,2.1V401c0,1.2-0.9,2.1-2.1,2.1h-18c-1.2,0-2.1-0.9-2.1-2.1v-13.2
			C664.8,386.6,665.8,385.7,666.9,385.7z"/>
	</g>
	<g>
		<path class="st12" d="M666.9,410.1h18c1.2,0,2.1,0.9,2.1,2.1v13.2c0,1.2-0.9,2.1-2.1,2.1h-18c-1.2,0-2.1-0.9-2.1-2.1v-13.2
			C664.8,411,665.8,410.1,666.9,410.1z"/>
	</g>
	<g>
		<path class="st13" d="M666.9,435.3h18c1.2,0,2.1,0.9,2.1,2.1v13.2c0,1.2-0.9,2.1-2.1,2.1h-18c-1.2,0-2.1-0.9-2.1-2.1v-13.2
			C664.8,436.2,665.8,435.3,666.9,435.3z"/>
	</g>
	<g>
		<path class="st3" d="M668.2,297.6c-0.1-2.4,1.3-4.2,3.8-4.2c1.8-0.1,3.4,1.2,3.6,3.1c0,0.1,0,0.1,0,0.2c0,3.2-3.4,3.4-4.9,5.6h4.9
			v1.8h-7.7c0-2.4,1.5-3.4,3.3-4.7c0.9-0.6,2.2-1.3,2.2-2.6c0.1-0.8-0.5-1.6-1.4-1.6l0,0c-0.1,0-0.1,0-0.2,0c-1.3,0-1.7,1.3-1.7,2.4
			L668.2,297.6z"/>
	</g>
	<g>
		<path class="st3" d="M683.4,295.4h-4.3l-0.4,2.4l0,0c0.5-0.5,1.2-0.8,2-0.8c1.8,0,3.3,1.4,3.3,3.2c0,0.1,0,0.2,0,0.3
			c0,2.1-1.7,3.8-3.8,3.8H680c-2,0-3.8-1.1-3.9-3.3h2.1c0.1,0.9,0.8,1.6,1.7,1.6c1,0,1.8-0.9,1.8-1.9c0,0,0,0,0-0.1l0,0
			c0.1-1-0.6-1.9-1.6-2H680c-0.7-0.1-1.3,0.3-1.6,0.8h-1.9l1-5.8h5.8L683.4,295.4z"/>
	</g>
	<g>
		<path class="st3" d="M668.2,320.8c-0.1-2.4,1.3-4.2,3.8-4.2c1.8-0.1,3.4,1.2,3.6,3.1c0,0.1,0,0.1,0,0.2c0,3.2-3.4,3.4-4.9,5.6h4.9
			v1.8h-7.7c0-2.4,1.5-3.4,3.3-4.7c0.9-0.6,2.2-1.3,2.2-2.6c0.1-0.8-0.5-1.6-1.4-1.6l0,0h-0.2c-1.2,0-1.7,1.3-1.7,2.4L668.2,320.8z"
			/>
	</g>
	<g>
		<path class="st3" d="M683.7,318.6c-2.2,1.9-3.4,5.8-3.4,8.7H678c0.3-3.1,1.5-6.1,3.5-8.5h-5v-2h7.2V318.6z"/>
	</g>
	<g>
		<path class="st3" d="M671.1,393.6c0.9,0.1,2.2-0.1,2.2-1.3c0-0.8-0.6-1.4-1.4-1.4l0,0h-0.1c-1.1,0-1.6,0.8-1.6,1.9h-2
			c-0.1-1.9,1.4-3.5,3.3-3.6c0.1,0,0.2,0,0.3,0c1.7,0,3.5,1,3.5,2.9c0.1,1-0.5,1.9-1.5,2.2l0,0c1.1,0.2,1.9,1.2,1.9,2.4
			c0,2.2-1.9,3.4-3.9,3.4c-2.3,0-3.9-1.4-3.9-3.8h2c0,1.1,0.6,2.1,1.8,2.1c0.9,0,1.7-0.6,1.7-1.5v-0.1c0-1.6-1.4-1.5-2.4-1.5
			L671.1,393.6z"/>
	</g>
	<g>
		<path class="st3" d="M679.4,393.6c0.9,0.1,2.2-0.1,2.2-1.3c0-0.8-0.6-1.4-1.4-1.4l0,0h-0.1c-1.1,0-1.6,0.8-1.6,1.9h-2
			c-0.1-1.9,1.4-3.5,3.3-3.6c0.1,0,0.2,0,0.3,0c1.7,0,3.5,1,3.5,2.9c0.1,1-0.5,1.9-1.5,2.2l0,0c1.1,0.2,1.9,1.2,1.8,2.4
			c0,2.2-1.8,3.4-3.9,3.4c-2.3,0-3.9-1.4-3.9-3.8h2c0,1.1,0.6,2.1,1.8,2.1c0.9,0,1.7-0.6,1.7-1.5v-0.1c0-1.6-1.4-1.5-2.4-1.5
			L679.4,393.6z"/>
	</g>
	<g>
		<path class="st3" d="M671.1,418.1c0.9,0.1,2.2-0.1,2.2-1.3c0-0.8-0.6-1.4-1.4-1.4l0,0h-0.1c-1.1,0-1.6,0.8-1.6,1.9h-2
			c-0.1-1.9,1.4-3.5,3.3-3.6c0.1,0,0.2,0,0.3,0c1.7,0,3.5,1,3.5,2.9c0.1,1-0.5,1.9-1.5,2.2l0,0c1.1,0.2,1.9,1.2,1.9,2.4
			c0,2.2-1.9,3.4-3.9,3.4c-2.3,0-3.9-1.4-3.9-3.8h2c0,1.1,0.6,2.1,1.8,2.1c0.9,0.1,1.6-0.6,1.7-1.5l0,0v-0.1c0-1.6-1.4-1.6-2.4-1.6
			L671.1,418.1z"/>
	</g>
	<g>
		<path class="st3" d="M683.4,415.6h-4.3l-0.4,2.4l0,0c0.5-0.5,1.3-0.8,2-0.8c1.8,0,3.3,1.5,3.3,3.3c0,0.1,0,0.2,0,0.3
			c0,2.1-1.7,3.8-3.8,3.8l0,0H680c-2,0-3.8-1.1-3.9-3.3h2.1c0.1,0.9,0.8,1.6,1.7,1.6c1,0,1.8-0.9,1.8-1.9c0,0,0,0,0-0.1l0,0
			c0.1-1-0.6-1.9-1.6-2l0,0H680c-0.7-0.1-1.3,0.3-1.6,0.8h-1.9l1-5.8h5.8L683.4,415.6z"/>
	</g>
	<g>
		<path class="st3" d="M668.2,345.5c-0.1-2.4,1.3-4.2,3.8-4.2c1.8-0.1,3.4,1.2,3.6,3.1c0,0.1,0,0.1,0,0.2c0,3.2-3.4,3.4-4.9,5.6h4.9
			v1.8h-7.7c0-2.4,1.5-3.4,3.3-4.7c0.9-0.6,2.2-1.3,2.2-2.6c0.1-0.8-0.5-1.6-1.4-1.6l0,0h-0.2c-1.2,0-1.7,1.3-1.7,2.4L668.2,345.5z"
			/>
	</g>
	<g>
		<path class="st3" d="M678.5,349.2c0.1,0.7,0.7,1.3,1.4,1.3c1.6,0,1.9-2,2-3.2l0,0c-0.5,0.8-1.4,1.2-2.4,1.2
			c-0.9,0-1.8-0.4-2.4-1.1c-0.5-0.7-0.8-1.5-0.8-2.3c-0.1-2,1.4-3.7,3.4-3.8c0.1,0,0.2,0,0.2,0c3.2,0,4,2.8,4,5.4s-1.1,5.5-4.1,5.5
			c-1.7,0.1-3.2-1.2-3.4-2.9L678.5,349.2z M681.7,344.9c0.1-1-0.6-1.8-1.6-1.9l0,0H680c-1,0.1-1.7,0.9-1.6,1.9l0,0
			c-0.1,1,0.5,1.8,1.5,2h0.1c0.9,0,1.7-0.8,1.7-1.8C681.7,345.1,681.7,345,681.7,344.9L681.7,344.9z"/>
	</g>
	<g>
		<path class="st3" d="M671.1,369.9c0.9,0.1,2.2-0.1,2.2-1.3c0-0.8-0.6-1.4-1.4-1.4l0,0h-0.1c-1.1,0-1.6,0.8-1.6,1.9h-2
			c-0.1-1.9,1.4-3.5,3.3-3.6c0.1,0,0.2,0,0.3,0c1.7,0,3.5,1,3.5,2.9c0.1,1-0.5,1.9-1.5,2.1l0,0c1.1,0.2,1.9,1.2,1.9,2.4
			c0,2.2-1.9,3.4-3.9,3.4c-2,0.2-3.7-1.2-3.9-3.2c0-0.2,0-0.4,0-0.6h2c0,1.1,0.6,2.1,1.8,2.1c0.9,0,1.7-0.7,1.7-1.5V373
			c0-1.6-1.4-1.6-2.4-1.6L671.1,369.9z"/>
	</g>
	<g>
		<path class="st3" d="M681.8,376.2h-2.1v-6.8h-2.6v-1.6c1.5,0,2.8-0.5,3.1-2.1h1.7v10.5H681.8z"/>
	</g>
	<g>
		<path class="st3" d="M671.1,443.4c0.9,0.1,2.2-0.1,2.2-1.3c0-0.8-0.6-1.4-1.4-1.4l0,0h-0.1c-1.1,0-1.6,0.8-1.6,1.9h-2
			c-0.1-1.9,1.4-3.5,3.3-3.6c0.1,0,0.2,0,0.3,0c1.7,0,3.5,1,3.5,2.9c0.1,1-0.5,1.9-1.5,2.1l0,0c1.1,0.2,1.9,1.2,1.9,2.4
			c0,2.2-1.9,3.4-3.9,3.4c-2,0.2-3.7-1.2-3.9-3.2c0-0.2,0-0.4,0-0.6h2c0,1.1,0.6,2.1,1.8,2.1c0.9,0.1,1.6-0.6,1.7-1.5l0,0v-0.1
			c0-1.6-1.4-1.6-2.4-1.6L671.1,443.4z"/>
	</g>
	<g>
		<path class="st3" d="M683.7,441c-2.2,1.9-3.4,5.9-3.4,8.6H678c0.3-3.1,1.5-6.1,3.5-8.5h-5v-2h7.2V441z"/>
	</g>
	<g>
		<path class="st11" d="M666.9,458.9h18c1.2,0,2.1,0.9,2.1,2.1v13.2c0,1.2-0.9,2.1-2.1,2.1h-18c-1.2,0-2.1-0.9-2.1-2.1V461
			C664.8,459.9,665.8,458.9,666.9,458.9z"/>
	</g>
	<g>
		<path class="st12" d="M638.3,289.9h18c1.2,0,2.1,0.9,2.1,2.1v13.2c0,1.2-0.9,2.1-2.1,2.1h-18c-1.2,0-2.1-0.9-2.1-2.1V292
			C636.2,290.8,637.1,289.9,638.3,289.9z"/>
	</g>
	<g>
		<path class="st3" d="M671.1,467.1c0.9,0.1,2.2-0.1,2.2-1.3c0-0.8-0.6-1.4-1.4-1.4l0,0h-0.1c-1.1,0-1.6,0.8-1.6,1.9h-2
			c-0.1-1.9,1.4-3.5,3.3-3.6c0.1,0,0.2,0,0.3,0c1.7,0,3.5,1,3.5,2.9c0.1,1-0.5,1.9-1.5,2.1l0,0c1.1,0.2,1.9,1.2,1.9,2.4
			c0,2.2-1.9,3.4-3.9,3.4c-2,0.2-3.7-1.2-3.9-3.2c0-0.2,0-0.4,0-0.6h2c0,1.1,0.6,2.1,1.8,2.1c0.9,0,1.7-0.6,1.7-1.5v-0.1
			c0-1.6-1.4-1.5-2.4-1.5L671.1,467.1z"/>
	</g>
	<g>
		<path class="st3" d="M678.5,470.6c0.1,0.7,0.7,1.3,1.4,1.3c1.6,0,1.9-2,2-3.2l0,0c-0.5,0.8-1.4,1.2-2.4,1.2
			c-0.9,0-1.8-0.4-2.4-1.1c-1.3-1.7-1-4.1,0.6-5.3c0.6-0.5,1.4-0.8,2.2-0.8c3.2,0,4,2.8,4,5.4s-1.1,5.5-4.1,5.5
			c-1.7,0.1-3.2-1.2-3.4-2.9L678.5,470.6z M681.7,466.3c0.1-1-0.6-1.9-1.6-1.9l0,0c-1,0.1-1.7,0.9-1.6,1.8v0.1c0,1,0.5,2,1.6,2
			c0.9,0,1.7-0.8,1.7-1.8C681.7,466.5,681.7,466.4,681.7,466.3L681.7,466.3z"/>
	</g>
	<g>
		<path class="st12" d="M638.3,313.4h18c1.2,0,2.1,0.9,2.1,2.1v13.2c0,1.2-0.9,2.1-2.1,2.1h-18c-1.2,0-2.1-0.9-2.1-2.1v-13.2
			C636.2,314.3,637.1,313.4,638.3,313.4z"/>
	</g>
	<g>
		<path class="st12" d="M638.3,337.7h18c1.2,0,2.1,0.9,2.1,2.1V353c0,1.2-0.9,2.1-2.1,2.1h-18c-1.2,0-2.1-0.9-2.1-2.1v-13.2
			C636.2,338.6,637.1,337.7,638.3,337.7z"/>
	</g>
	<g>
		<path class="st13" d="M638.3,361.6h18c1.2,0,2.1,0.9,2.1,2.1v13.2c0,1.2-0.9,2.1-2.1,2.1h-18c-1.2,0-2.1-0.9-2.1-2.1v-13.2
			C636.2,362.5,637.1,361.6,638.3,361.6z"/>
	</g>
	<g>
		<path class="st12" d="M638.3,385.7h18c1.2,0,2.1,0.9,2.1,2.1V401c0,1.2-0.9,2.1-2.1,2.1h-18c-1.2,0-2.1-0.9-2.1-2.1v-13.2
			C636.2,386.6,637.1,385.7,638.3,385.7z"/>
	</g>
	<g>
		<path class="st12" d="M638.3,410.1h18c1.2,0,2.1,0.9,2.1,2.1v13.2c0,1.2-0.9,2.1-2.1,2.1h-18c-1.2,0-2.1-0.9-2.1-2.1v-13.2
			C636.2,411,637.1,410.1,638.3,410.1z"/>
	</g>
	<g>
		<path class="st13" d="M638.3,435.3h18c1.2,0,2.1,0.9,2.1,2.1v13.2c0,1.2-0.9,2.1-2.1,2.1h-18c-1.2,0-2.1-0.9-2.1-2.1v-13.2
			C636.2,436.2,637.1,435.3,638.3,435.3z"/>
	</g>
	<g>
		<path class="st11" d="M638.3,458.9h18c1.2,0,2.1,0.9,2.1,2.1v13.2c0,1.2-0.9,2.1-2.1,2.1h-18c-1.2,0-2.1-0.9-2.1-2.1V461
			C636.2,459.9,637.1,458.9,638.3,458.9z"/>
	</g>
	<g>
		<path class="st3" d="M643.7,9.3c-0.1-2.4,1.3-4.2,3.8-4.2c1.8-0.1,3.4,1.2,3.6,3c0,0.1,0,0.1,0,0.2c0,3.2-3.4,3.4-4.9,5.6h5v1.8
			h-7.7c0-2.4,1.5-3.4,3.3-4.7c0.9-0.6,2.2-1.3,2.2-2.6c0.1-0.8-0.5-1.5-1.4-1.6c-0.1,0-0.1,0-0.2,0c-1.3,0-1.7,1.3-1.7,2.4
			L643.7,9.3z"/>
	</g>
	<g>
		<path class="st3" d="M639.5,297.6c-0.1-2.4,1.3-4.2,3.8-4.2c1.8-0.1,3.4,1.2,3.6,3.1c0,0.1,0,0.1,0,0.2c0,3.2-3.4,3.4-4.9,5.6h4.9
			v1.8h-7.7c0-2.4,1.5-3.4,3.3-4.7c0.9-0.6,2.2-1.3,2.2-2.6c0.1-0.8-0.5-1.6-1.4-1.6l0,0h-0.2c-1.3,0-1.7,1.3-1.7,2.4L639.5,297.6z"
			/>
	</g>
	<g>
		<path class="st3" d="M653.1,296.3c-0.1-0.7-0.7-1.3-1.4-1.3c-1.5,0-2,2-2,3.2l0,0c0.5-0.8,1.4-1.2,2.4-1.2c0.9,0,1.8,0.4,2.4,1.1
			c1.3,1.7,1,4.1-0.6,5.4c-0.6,0.5-1.3,0.7-2,0.8h-0.2c-3.2,0-4-2.8-4-5.4s1.1-5.5,4.1-5.5c1.7-0.1,3.2,1.2,3.4,2.9H653.1z
			 M649.9,300.6c-0.1,1,0.6,1.9,1.6,1.9l0,0h0.1c1-0.1,1.7-0.9,1.6-1.9l0,0c0-1-0.5-2-1.6-2c-1,0-1.7,0.8-1.7,1.8
			C649.9,300.5,649.9,300.6,649.9,300.6L649.9,300.6z"/>
	</g>
	<g>
		<path class="st3" d="M642.4,370.1c0.9,0.1,2.2-0.1,2.2-1.3c0-0.8-0.6-1.4-1.4-1.4l0,0h-0.1c-1.1,0-1.6,0.8-1.6,1.9h-2
			c-0.1-1.9,1.4-3.5,3.3-3.6c0.1,0,0.2,0,0.3,0c1.7,0,3.5,1,3.5,2.9c0.1,1-0.5,1.9-1.5,2.1l0,0c1.1,0.2,1.9,1.2,1.9,2.4
			c0,2.2-1.9,3.4-3.9,3.4c-2,0.2-3.7-1.2-3.9-3.2c0-0.2,0-0.4,0-0.6h2c0,1.1,0.6,2.1,1.8,2.1c0.9,0,1.7-0.6,1.7-1.5v-0.1
			c0-1.6-1.4-1.5-2.4-1.5L642.4,370.1z"/>
	</g>
	<g>
		<path class="st3" d="M647.9,369.9c-0.1-2.4,1.3-4.2,3.8-4.2c1.8-0.1,3.4,1.2,3.6,3.1c0,0.1,0,0.1,0,0.2c0,3.2-3.4,3.4-4.9,5.6h5
			v1.8h-7.8c0-2.4,1.5-3.4,3.3-4.7c0.9-0.6,2.2-1.3,2.2-2.6c0.1-0.8-0.5-1.6-1.4-1.6l0,0h-0.1c-1.3,0-1.7,1.3-1.7,2.4L647.9,369.9z"
			/>
	</g>
	<g>
		<path class="st3" d="M642.4,418.3c0.9,0.1,2.2-0.1,2.2-1.3c0-0.8-0.6-1.4-1.4-1.4l0,0h-0.1c-1.1,0-1.6,0.8-1.6,1.9h-2
			c-0.1-1.9,1.4-3.5,3.3-3.6c0.1,0,0.2,0,0.3,0c1.7,0,3.5,1,3.5,2.9c0.1,1-0.5,1.9-1.5,2.2l0,0c1.1,0.2,1.9,1.2,1.9,2.4
			c0,2.2-1.9,3.4-3.9,3.4c-2,0.2-3.7-1.2-3.9-3.2c0-0.2,0-0.4,0-0.6h2c0,1.1,0.6,2.1,1.8,2.1c0.9,0.1,1.7-0.6,1.7-1.5l0,0v-0.1
			c0-1.6-1.4-1.6-2.4-1.6L642.4,418.3z"/>
	</g>
	<g>
		<path class="st3" d="M653.1,416.7c-0.1-0.7-0.7-1.3-1.4-1.3c-1.5,0-2,2-2,3.2l0,0c0.5-0.8,1.4-1.2,2.4-1.2c0.9,0,1.8,0.4,2.4,1.1
			c0.5,0.7,0.8,1.5,0.8,2.3c0.1,2-1.4,3.7-3.5,3.8h-0.2c-3.2,0-4-2.8-4-5.4s1.1-5.5,4.1-5.5c1.7-0.1,3.2,1.2,3.4,2.9L653.1,416.7z
			 M649.9,421c-0.1,1,0.6,1.9,1.6,1.9l0,0h0.1c1-0.1,1.7-0.9,1.6-1.9l0,0c0-1-0.5-2-1.6-2c-1,0-1.7,0.8-1.7,1.8
			C649.9,420.9,649.9,421,649.9,421L649.9,421z"/>
	</g>
	<g>
		<path class="st3" d="M642.4,443.6c0.9,0.1,2.2-0.1,2.2-1.3c0-0.8-0.6-1.4-1.4-1.4h-0.1c-1.1,0-1.6,0.8-1.6,1.9h-2
			c-0.1-1.9,1.4-3.5,3.3-3.6c0.1,0,0.2,0,0.3,0c1.7,0,3.5,1,3.5,2.9c0.1,1-0.5,1.9-1.5,2.2l0,0c1.1,0.2,1.9,1.2,1.9,2.4
			c0,2.2-1.9,3.4-3.9,3.4c-2,0.2-3.7-1.2-3.9-3.2c0-0.2,0-0.4,0-0.6h2c0,1.1,0.6,2.1,1.8,2.1c0.9,0.1,1.7-0.6,1.7-1.5l0,0v-0.1
			c0-1.6-1.4-1.6-2.4-1.6L642.4,443.6z"/>
	</g>
	<g>
		<path class="st3" d="M651.5,439.1c2.6,0,3.5,1.8,3.5,2.8s-0.6,1.9-1.5,2.2l0,0c1.2,0.2,2.1,1.3,2,2.5c0,2.2-2,3.3-3.9,3.3
			s-4-1-4-3.2c-0.1-1.2,0.8-2.3,2-2.6l0,0c-1-0.3-1.6-1.2-1.5-2.2C647.9,440.1,649.8,439.1,651.5,439.1z M651.5,448.4
			c0.9,0,1.8-0.7,1.8-1.6l0,0v-0.1c0-0.9-0.8-1.7-1.7-1.7l0,0h-0.1c-0.9-0.1-1.7,0.5-1.9,1.5c0,0.1,0,0.1,0,0.2c0,1,0.8,1.8,1.7,1.8
			l0,0L651.5,448.4L651.5,448.4z M651.5,443.5c0.8,0.1,1.5-0.4,1.6-1.2c0.1-0.8-0.4-1.5-1.2-1.6c-0.1,0-0.2,0-0.2,0
			c-0.1,0-0.2,0-0.2,0c-0.8-0.1-1.5,0.5-1.6,1.3l0,0c0,0.1,0,0.1,0,0.2C649.9,442.9,650.6,443.6,651.5,443.5
			C651.4,443.5,651.5,443.5,651.5,443.5L651.5,443.5z"/>
	</g>
	<g>
		<path class="st3" d="M643.6,470.4h-4.4v-1.9l4.5-6.1h1.9v6.3h1.4v1.8h-1.4v2.4h-2V470.4z M643.6,465.1L643.6,465.1l-2.7,3.6h2.7
			V465.1z"/>
	</g>
	<g>
		<path class="st3" d="M651.4,462.2c2.1,0,3.9,1.3,3.9,5.4s-1.8,5.5-3.9,5.5s-3.8-1.3-3.8-5.5S649.4,462.2,651.4,462.2z
			 M651.4,471.3c1.7,0,1.7-2.6,1.7-3.7s0-3.6-1.7-3.6s-1.7,2.5-1.7,3.6S649.7,471.3,651.4,471.3z"/>
	</g>
	<g>
		<path class="st3" d="M639.5,320.8c-0.1-2.4,1.3-4.2,3.8-4.2c1.8-0.1,3.4,1.2,3.6,3c0,0.1,0,0.1,0,0.2c0,3.2-3.4,3.4-4.9,5.6h4.9
			v1.8h-7.7c0-2.4,1.5-3.4,3.3-4.7c0.9-0.6,2.2-1.3,2.2-2.6c0.1-0.8-0.5-1.6-1.4-1.6l0,0h-0.2c-1.3,0-1.7,1.3-1.7,2.4L639.5,320.8z"
			/>
	</g>
	<g>
		<path class="st3" d="M651.5,316.5c2.6,0,3.5,1.8,3.5,2.8s-0.6,1.9-1.5,2.2l0,0c1.2,0.2,2.1,1.3,2,2.6c0,2.2-2,3.3-3.9,3.3
			s-4-1-4-3.2c-0.1-1.2,0.8-2.3,2-2.6l0,0c-1-0.3-1.6-1.2-1.5-2.2C647.9,317.5,649.8,316.5,651.5,316.5z M651.5,325.8
			c0.9,0,1.8-0.7,1.8-1.6l0,0V324c0-0.9-0.8-1.7-1.7-1.7l0,0h-0.1c-0.9-0.1-1.7,0.6-1.8,1.5c0,0.1,0,0.1,0,0.2
			C649.7,325,650.5,325.8,651.5,325.8L651.5,325.8L651.5,325.8z M651.5,320.9c0.8,0.1,1.5-0.4,1.6-1.2c0.1-0.8-0.4-1.5-1.2-1.6
			c-0.1,0-0.2,0-0.2,0c-0.1,0-0.2,0-0.2,0c-0.8-0.1-1.5,0.5-1.6,1.3l0,0c0,0.1,0,0.1,0,0.2C649.9,320.4,650.6,321,651.5,320.9
			C651.5,321,651.5,321,651.5,320.9L651.5,320.9z"/>
	</g>
	<g>
		<path class="st3" d="M642.4,345.9c0.9,0.1,2.2-0.1,2.2-1.3c0-0.8-0.6-1.4-1.4-1.4h-0.1c-1.1,0-1.6,0.8-1.6,1.9h-2
			c-0.1-1.9,1.4-3.5,3.3-3.6c0.1,0,0.2,0,0.3,0c1.7,0,3.5,1,3.5,2.9c0.1,1-0.5,1.9-1.5,2.1l0,0c1.1,0.2,1.9,1.2,1.9,2.4
			c0,2.2-1.9,3.4-3.9,3.4c-2,0.2-3.7-1.2-3.9-3.2c0-0.2,0-0.4,0-0.6h2c0,1.1,0.6,2.1,1.8,2.1c0.9,0,1.7-0.6,1.7-1.5V349
			c0-1.6-1.4-1.5-2.4-1.5L642.4,345.9z"/>
	</g>
	<g>
		<path class="st3" d="M651.4,341.4c2.1,0,3.9,1.3,3.9,5.4s-1.8,5.5-3.9,5.5s-3.8-1.3-3.8-5.5S649.4,341.4,651.4,341.4z
			 M651.4,350.6c1.7,0,1.7-2.6,1.7-3.7s0-3.6-1.7-3.6s-1.7,2.6-1.7,3.6S649.7,350.6,651.4,350.6L651.4,350.6z"/>
	</g>
	<g>
		<path class="st3" d="M642.4,393.6c0.9,0.1,2.2-0.1,2.2-1.3c0-0.8-0.6-1.4-1.4-1.4h-0.1c-1.1,0-1.6,0.8-1.6,1.9h-2
			c-0.1-1.9,1.4-3.5,3.3-3.6c0.1,0,0.2,0,0.3,0c1.7,0,3.5,1,3.5,2.9c0.1,1-0.5,1.9-1.5,2.2l0,0c1.1,0.2,1.9,1.2,1.9,2.4
			c0,2.2-1.9,3.4-3.9,3.4c-2.3,0-3.9-1.4-3.9-3.8h2c0,1.1,0.6,2.1,1.8,2.1c0.9,0,1.7-0.6,1.7-1.5v-0.1c0-1.6-1.4-1.5-2.4-1.5
			L642.4,393.6z"/>
	</g>
	<g>
		<path class="st3" d="M652,397.4h-4.4v-2l4.5-6.1h1.9v6.3h1.4v1.8H654v2.4h-2V397.4z M652,392.1L652,392.1l-2.7,3.6h2.8L652,392.1z
			"/>
	</g>
	<g>
		<path class="st3" d="M677.7,15.1h-2.1V8.3H673V6.7c1.5,0.1,2.8-0.5,3.1-2.1h1.7v10.5H677.7z"/>
	</g>
	<g>
		<path class="st3" d="M675.2,32.7c0.9,0.1,2.2-0.1,2.2-1.3c0-0.8-0.6-1.4-1.4-1.4l0,0c-1.1,0-1.6,0.8-1.6,1.9h-2
			c-0.1-1.9,1.4-3.5,3.3-3.6c0.1,0,0.2,0,0.3,0c1.7,0,3.5,1,3.5,2.9c0.1,1-0.5,1.9-1.5,2.2l0,0c1.1,0.2,1.9,1.2,1.9,2.4
			c0,2.2-1.9,3.4-3.9,3.4c-2.3,0-3.9-1.4-3.9-3.8h2c0,1.1,0.6,2.1,1.8,2.1c0.9,0,1.6-0.6,1.7-1.5v-0.1c0-1.6-1.4-1.5-2.4-1.5
			L675.2,32.7z"/>
	</g>
	<g>
		<path class="st3" d="M679.3,54.8H675l-0.4,2.4l0,0c0.5-0.5,1.3-0.8,2.1-0.8c1.8,0,3.3,1.5,3.3,3.3c0,0.1,0,0.2,0,0.3
			c0,2.1-1.7,3.8-3.8,3.8H676c-2,0-3.8-1.1-3.9-3.3h2.1c0.1,0.9,0.8,1.6,1.7,1.6c1,0,1.9-0.9,1.8-2l0,0l0,0c0.1-1-0.6-1.9-1.6-2l0,0
			h-0.2c-0.7,0-1.3,0.3-1.6,0.8h-1.9l1-5.8h5.8L679.3,54.8z"/>
	</g>
	<g>
		<path class="st3" d="M674.3,108.2c0.1,0.7,0.7,1.3,1.4,1.3c1.5,0,1.9-2,2-3.2l0,0c-0.5,0.8-1.4,1.2-2.4,1.2
			c-0.9,0-1.8-0.4-2.4-1.1c-1.3-1.7-1-4.1,0.7-5.4c0.6-0.5,1.4-0.8,2.2-0.8c3.2,0,4,2.8,4,5.4s-1.1,5.5-4.1,5.5
			c-1.7,0.1-3.2-1.2-3.4-2.9H674.3z M677.5,104c0.1-1-0.7-1.9-1.6-1.9l0,0l0,0c-1,0.1-1.7,0.9-1.6,1.9l0,0c-0.1,1,0.5,1.8,1.5,2
			c0.1,0,0.1,0,0.2,0c1,0,1.7-0.9,1.7-1.8C677.6,104.1,677.5,104,677.5,104z"/>
	</g>
	<g>
		<path class="st3" d="M673.5,134.8h-2.1V128h-2.6v-1.6c1.5,0,2.8-0.5,3.1-2.1h1.7L673.5,134.8z"/>
	</g>
	<g>
		<path class="st3" d="M681.8,134.8h-2.1V128h-2.6v-1.6c1.5,0,2.8-0.5,3.1-2.1h1.7v10.5H681.8z"/>
	</g>
	<g>
		<path class="st3" d="M673.5,207.5h-2.1v-6.8h-2.6V199c1.5,0,2.8-0.5,3.1-2.1h1.7L673.5,207.5z"/>
	</g>
	<g>
		<path class="st3" d="M683.7,198.8c-2.2,1.9-3.4,5.8-3.4,8.7H678c0.3-3.1,1.5-6.1,3.5-8.5h-5v-2h7.2V198.8z"/>
	</g>
	<g>
		<path class="st3" d="M673.5,231.8h-2.1V225h-2.6v-1.6c1.5,0,2.8-0.5,3.1-2.1h1.7L673.5,231.8z"/>
	</g>
	<g>
		<path class="st3" d="M678.5,229.1c0.1,0.7,0.7,1.3,1.4,1.3c1.6,0,1.9-2,2-3.2l0,0c-0.5,0.8-1.4,1.2-2.4,1.2
			c-0.9,0-1.8-0.4-2.4-1.1c-0.5-0.7-0.8-1.5-0.8-2.3c-0.1-2,1.4-3.7,3.4-3.8c0.1,0,0.2,0,0.2,0c3.2,0,4,2.8,4,5.4s-1.1,5.5-4.1,5.5
			c-1.7,0.1-3.2-1.2-3.4-2.9L678.5,229.1z M681.7,224.9c0.1-1-0.6-1.9-1.6-1.9l0,0H680c-1.1,0.3-1.7,1.4-1.5,2.4
			c0.2,0.7,0.7,1.3,1.5,1.5c0.9,0,1.7-0.8,1.7-1.8C681.7,225,681.7,224.9,681.7,224.9L681.7,224.9z"/>
	</g>
	<g>
		<path class="st3" d="M668.2,250.3c-0.1-2.4,1.3-4.2,3.8-4.2c1.8-0.1,3.4,1.2,3.6,3c0,0.1,0,0.1,0,0.2c0,3.2-3.4,3.4-4.9,5.6h4.9
			v1.8h-7.7c0-2.4,1.5-3.4,3.3-4.7c0.9-0.6,2.2-1.3,2.2-2.6c0.1-0.8-0.5-1.6-1.4-1.6l0,0c-0.1,0-0.1,0-0.2,0c-1.3,0-1.7,1.3-1.7,2.4
			L668.2,250.3z"/>
	</g>
	<g>
		<path class="st3" d="M681.8,256.8h-2.1V250h-2.6v-1.6c1.5,0.1,2.8-0.5,3.1-2.1h1.7v10.5H681.8z"/>
	</g>
	<g>
		<path class="st3" d="M668.2,274.3c-0.1-2.4,1.3-4.2,3.8-4.2c1.8-0.1,3.4,1.2,3.6,3c0,0.1,0,0.1,0,0.2c0,3.2-3.4,3.4-4.9,5.6h4.9
			v1.8h-7.7c0-2.4,1.5-3.4,3.3-4.7c0.9-0.6,2.2-1.3,2.2-2.6c0.1-0.8-0.5-1.5-1.3-1.6l0,0h-0.2c-1.3,0-1.7,1.3-1.7,2.4L668.2,274.3z"
			/>
	</g>
	<g>
		<path class="st3" d="M679.4,274.5c0.9,0.1,2.2-0.1,2.2-1.3c0-0.8-0.6-1.4-1.4-1.4l0,0h-0.1c-1.1,0-1.6,0.8-1.6,1.9h-2
			c-0.1-1.9,1.4-3.5,3.3-3.6c0.1,0,0.2,0,0.3,0c1.7,0,3.5,1,3.5,2.9c0.1,1-0.5,1.9-1.5,2.1l0,0c1.1,0.2,1.9,1.2,1.8,2.4
			c0,2.2-1.8,3.4-3.9,3.4c-1.9,0.2-3.7-1.2-3.9-3.2c0-0.2,0-0.4,0-0.6h2c0,1.1,0.6,2.1,1.8,2.1c0.9,0,1.7-0.6,1.7-1.5v-0.1
			c0-1.6-1.4-1.5-2.4-1.5L679.4,274.5z"/>
	</g>
	<g>
		<path class="st3" d="M647.8,37.2h-4.4v-1.9l4.5-6.1h1.9v6.3h1.4v1.8h-1.4v2.5h-2V37.2z M647.8,31.8L647.8,31.8l-2.8,3.6h2.8V31.8z
			"/>
	</g>
	<g>
		<path class="st3" d="M644.9,135.4h-2.1v-6.8h-2.6V127c1.5,0,2.8-0.5,3.1-2.1h1.7v10.5H644.9z"/>
	</g>
	<g>
		<path class="st3" d="M647.9,129c-0.1-2.4,1.3-4.2,3.8-4.2c1.8-0.1,3.4,1.2,3.6,3.1c0,0.1,0,0.1,0,0.2c0,3.2-3.4,3.4-4.9,5.6h5v1.8
			h-7.8c0-2.4,1.5-3.4,3.3-4.7c0.9-0.6,2.2-1.3,2.2-2.6c0.1-0.8-0.5-1.6-1.4-1.6l0,0h-0.1c-1.3,0-1.7,1.3-1.7,2.4L647.9,129z"/>
	</g>
	<g>
		<path class="st3" d="M644.9,184h-2.1v-6.8h-2.6v-1.6c1.5,0,2.8-0.5,3.1-2.1h1.7V184H644.9z"/>
	</g>
	<g>
		<path class="st3" d="M653.1,176.2c-0.1-0.7-0.7-1.3-1.4-1.3c-1.5,0-2,2-2,3.2l0,0c0.5-0.8,1.4-1.2,2.4-1.2c0.9,0,1.8,0.4,2.4,1.1
			c1.3,1.7,1,4.1-0.6,5.4c-0.6,0.5-1.3,0.7-2,0.8h-0.2c-3.2,0-4-2.8-4-5.4s1.1-5.5,4.1-5.5c1.7-0.1,3.2,1.2,3.4,2.9H653.1z
			 M649.9,180.5c-0.1,1,0.6,1.9,1.6,1.9l0,0h0.1c1-0.1,1.7-0.9,1.6-1.9l0,0c0-1-0.5-2-1.6-2c-1,0-1.7,0.8-1.7,1.8
			C649.9,180.3,649.9,180.4,649.9,180.5L649.9,180.5z"/>
	</g>
	<g>
		<path class="st3" d="M644.9,208.1h-2.1v-6.8h-2.6v-1.6c1.5,0,2.8-0.5,3.1-2.1h1.7v10.5H644.9z"/>
	</g>
	<g>
		<path class="st3" d="M651.5,197.4c2.6,0,3.5,1.8,3.5,2.8s-0.6,1.9-1.5,2.2l0,0c1.2,0.2,2.1,1.3,2,2.6c0,2.2-2,3.3-3.9,3.3
			s-4-1-4-3.2c-0.1-1.2,0.8-2.3,2-2.6l0,0c-1-0.3-1.6-1.2-1.5-2.2C647.9,198.4,649.8,197.4,651.5,197.4z M651.5,206.7
			c0.9,0,1.8-0.7,1.8-1.6l0,0V205c0-0.9-0.8-1.7-1.7-1.7h-0.1c-0.9-0.1-1.7,0.5-1.9,1.4c0,0.1,0,0.1,0,0.2c0,1,0.7,1.8,1.7,1.8l0,0
			L651.5,206.7L651.5,206.7z M651.5,201.8c0.8,0.1,1.5-0.5,1.5-1.3c0.1-0.8-0.5-1.5-1.3-1.5l0,0c-0.1,0-0.2,0-0.2,0
			c-0.8-0.1-1.5,0.5-1.6,1.3l0,0c0,0.1,0,0.1,0,0.2C649.9,201.3,650.6,201.9,651.5,201.8C651.4,201.9,651.5,201.9,651.5,201.8
			L651.5,201.8z"/>
	</g>
	<g>
		<path class="st3" d="M639.5,251c-0.1-2.4,1.3-4.2,3.8-4.2c1.8-0.1,3.4,1.2,3.6,3.1c0,0.1,0,0.1,0,0.2c0,3.2-3.4,3.4-4.9,5.6h4.9
			v1.8h-7.7c0-2.4,1.5-3.4,3.3-4.7c0.9-0.6,2.2-1.3,2.2-2.6c0.1-0.8-0.5-1.5-1.3-1.6l0,0h-0.2c-1.3,0-1.7,1.3-1.7,2.4L639.5,251z"/>
	</g>
	<g>
		<path class="st3" d="M647.9,251c-0.1-2.4,1.3-4.2,3.8-4.2c1.8-0.1,3.4,1.2,3.6,3.1c0,0.1,0,0.1,0,0.2c0,3.2-3.4,3.4-4.9,5.6h5v1.8
			h-7.8c0-2.4,1.5-3.4,3.3-4.7c0.9-0.6,2.2-1.3,2.2-2.6c0.1-0.8-0.5-1.6-1.4-1.6l0,0h-0.1c-1.3,0-1.7,1.3-1.7,2.4L647.9,251z"/>
	</g>
	<g>
		<path class="st3" d="M649,56.4c-0.1-0.7-0.7-1.3-1.4-1.3c-1.5,0-2,2-2,3.2l0,0c0.5-0.8,1.4-1.2,2.4-1.2c0.9,0,1.8,0.4,2.4,1.1
			c1.3,1.7,1,4.1-0.7,5.4c-0.6,0.5-1.4,0.8-2.2,0.8c-3.2,0-4-2.8-4-5.4s1.2-5.4,4.2-5.4c1.7-0.1,3.2,1.2,3.4,2.9L649,56.4z
			 M645.7,60.7c-0.1,1,0.6,1.9,1.6,2l0,0l0,0c1-0.1,1.7-0.9,1.6-1.9l0,0c0.1-0.9-0.5-1.8-1.4-1.9c-0.9-0.1-1.8,0.5-1.9,1.4
			C645.7,60.4,645.7,60.6,645.7,60.7L645.7,60.7z"/>
	</g>
	<g>
		<polygon class="st11" points="620.2,24.9 600,24.9 589.8,33.6 600,42.3 620.2,42.3 630.4,33.6 		"/>
	</g>
	<g>
		<path class="st3" d="M605.5,36.8c-0.6,0.8-1.6,1.3-2.6,1.3c-2.9,0-4.7-2.2-4.7-4.9s1.7-5,4.7-5c2-0.1,3.8,1.4,4,3.4h-2
			c-0.2-1-1-1.7-2-1.6c-1.9,0-2.6,1.6-2.6,3.2c0,1.6,0.7,3.2,2.6,3.2c1.1,0.1,2.1-0.6,2.2-1.7v-0.1c0-0.1,0-0.2,0-0.2H603v-1.5h4V38
			h-1.3L605.5,36.8z"/>
	</g>
	<g>
		<path class="st3" d="M608.8,28.3h2.1l4,6.4l0,0v-6.4h2v9.5h-2.1l-4-6.4l0,0v6.4h-2V28.3z"/>
	</g>
	<g>
		<path class="st3" d="M618.6,28.3h4.1c2.5,0,4.3,1.5,4.3,4.7c0,2.8-1.4,4.8-4.3,4.8h-4.1V28.3z M620.7,36.1h1.9
			c1.2,0,2.4-0.7,2.4-2.8c0-1.9-0.7-3.1-2.7-3.1h-1.5L620.7,36.1z"/>
	</g>
	<g>
		<path class="st11" d="M620.5,458.9h9.9c1.4,0,2.5,1.1,2.5,2.5v12.5c0,1.4-1.1,2.5-2.5,2.5h-9.9c-1.4,0-2.5-1.1-2.5-2.5v-12.5
			C618.1,460,619.2,458.9,620.5,458.9z"/>
	</g>
	<g>
		<polygon class="st11" points="620.2,458.9 600,458.9 589.8,467.6 600,476.4 620.2,476.4 630.4,467.6 		"/>
	</g>
	<g>
		<path class="st3" d="M605.5,470.8c-0.6,0.8-1.6,1.3-2.6,1.3c-2.9,0-4.7-2.2-4.7-4.9s1.7-5,4.7-5c2-0.1,3.8,1.4,4,3.4h-2
			c-0.2-1-1-1.6-2-1.6c-1.9,0-2.6,1.6-2.6,3.2s0.7,3.2,2.6,3.2c1.1,0.1,2.1-0.6,2.2-1.7v-0.1c0-0.1,0-0.2,0-0.2H603v-1.6h4v5.1h-1.3
			L605.5,470.8z"/>
	</g>
	<g>
		<path class="st3" d="M608.8,462.4h2.1l4,6.4l0,0v-6.4h2v9.5h-2.1l-4-6.4l0,0v6.4h-2V462.4z"/>
	</g>
	<g>
		<path class="st3" d="M618.6,462.4h4.1c2.5,0,4.3,1.6,4.3,4.7c0,2.8-1.4,4.8-4.3,4.8h-4.1V462.4z M620.7,470.1h1.9
			c1.2,0,2.4-0.8,2.4-2.9c0-1.9-0.7-3.1-2.7-3.1h-1.5L620.7,470.1z"/>
	</g>
	<g>
		<path class="st11" d="M692.9,24.9h9.9c1.4,0,2.5,1.1,2.5,2.5v12.5c0,1.4-1.1,2.5-2.5,2.5h-9.9c-1.4,0-2.5-1.1-2.5-2.5V27.3
			C690.4,26,691.6,24.9,692.9,24.9z"/>
	</g>
	<g>
		<polygon class="st11" points="703.3,24.9 723.5,24.9 733.6,33.6 723.5,42.3 703.3,42.3 693.1,33.6 		"/>
	</g>
	<g>
		<path class="st3" d="M703.4,36.8c-0.6,0.8-1.6,1.3-2.6,1.3c-2.9,0-4.7-2.2-4.7-4.9s1.8-5,4.7-5c2-0.1,3.8,1.4,4,3.4h-2
			c-0.2-1-1-1.7-2-1.6c-1.9,0-2.6,1.6-2.6,3.2c0,1.6,0.7,3.2,2.6,3.2c1.1,0.1,2.1-0.7,2.2-1.8c0-0.1,0-0.2,0-0.2h-2v-1.5h4V38h-1.4
			L703.4,36.8z"/>
	</g>
	<g>
		<path class="st3" d="M706.7,28.3h2.1l4,6.4l0,0v-6.4h2v9.5h-2.2l-4-6.4l0,0v6.4h-2L706.7,28.3z"/>
	</g>
	<g>
		<path class="st3" d="M716.6,28.3h4.1c2.5,0,4.3,1.6,4.3,4.7c0,2.8-1.4,4.8-4.3,4.8h-4.1V28.3z M718.6,36.1h1.9
			c1.2,0,2.4-0.8,2.4-2.8c0-1.9-0.7-3.1-2.8-3.1h-1.5L718.6,36.1L718.6,36.1z"/>
	</g>
	<g>
		<path class="st11" d="M692.9,458.9h9.9c1.4,0,2.5,1.1,2.5,2.5v12.5c0,1.4-1.1,2.5-2.5,2.5h-9.9c-1.4,0-2.5-1.1-2.5-2.5v-12.5
			C690.4,460,691.6,458.9,692.9,458.9z"/>
	</g>
	<g>
		<polygon class="st11" points="703.3,458.9 723.5,458.9 733.6,467.6 723.5,476.4 703.3,476.4 693.1,467.6 		"/>
	</g>
	<g>
		<path class="st3" d="M703.4,470.8c-0.6,0.8-1.6,1.3-2.6,1.3c-2.9,0-4.7-2.2-4.7-4.9s1.8-5,4.7-5c2-0.1,3.8,1.4,4,3.4h-2
			c-0.2-1-1-1.6-2-1.6c-1.9,0-2.6,1.6-2.6,3.3s0.7,3.2,2.6,3.2c1.1,0.1,2.1-0.7,2.2-1.8c0-0.1,0-0.2,0-0.2h-2v-1.6h4v5.1h-1.4
			L703.4,470.8z"/>
	</g>
	<g>
		<path class="st3" d="M706.7,462.4h2.1l4,6.4l0,0v-6.4h2v9.5h-2.2l-4-6.4l0,0v6.4h-2L706.7,462.4z"/>
	</g>
	<g>
		<path class="st3" d="M716.6,462.4h4.1c2.5,0,4.3,1.5,4.3,4.7c0,2.8-1.4,4.8-4.3,4.8h-4.1V462.4z M718.6,470.1h1.9
			c1.2,0,2.4-0.7,2.4-2.9c0-1.9-0.7-3.1-2.8-3.1h-1.5L718.6,470.1L718.6,470.1z"/>
	</g>
	<g>
		<path class="st3" d="M647.3,77.5c2.6,0,3.5,1.8,3.5,2.8s-0.6,1.9-1.5,2.2l0,0c1.2,0.2,2.1,1.3,2,2.6c0,2.2-2,3.3-3.9,3.3
			s-4-1-4-3.2c-0.1-1.2,0.8-2.3,2-2.6l0,0c-1-0.3-1.6-1.2-1.5-2.2C643.8,78.4,645.6,77.5,647.3,77.5z M647.3,86.8
			c0.9,0,1.8-0.7,1.8-1.6l0,0V85c0-0.9-0.8-1.7-1.7-1.7h-0.1c-0.9-0.1-1.7,0.6-1.8,1.5c0,0.1,0,0.1,0,0.2
			C645.5,86,646.3,86.8,647.3,86.8C647.2,86.8,647.2,86.8,647.3,86.8C647.2,86.8,647.3,86.8,647.3,86.8z M647.3,81.9
			c0.8,0.1,1.5-0.5,1.5-1.3s-0.5-1.5-1.3-1.5c-0.1,0-0.2,0-0.2,0c-0.8-0.1-1.5,0.5-1.6,1.3l0,0c0,0.1,0,0.1,0,0.2
			C645.7,81.4,646.4,82,647.3,81.9C647.3,81.9,647.3,81.9,647.3,81.9L647.3,81.9z"/>
	</g>
	<g>
		<path class="st3" d="M644.9,111.6h-2.1v-6.8h-2.6v-1.6c1.5,0,2.8-0.5,3.1-2.1h1.7v10.5H644.9z"/>
	</g>
	<g>
		<path class="st3" d="M651.4,100.9c2.1,0,3.9,1.3,3.9,5.4s-1.8,5.5-3.9,5.5s-3.8-1.3-3.8-5.5S649.4,100.9,651.4,100.9z M651.4,110
			c1.7,0,1.7-2.6,1.7-3.7s0-3.7-1.7-3.7s-1.7,2.6-1.7,3.7S649.7,110,651.4,110z"/>
	</g>
	<g>
		<path class="st3" d="M644.9,160h-2.1v-6.8h-2.6v-1.6c1.5,0.1,2.8-0.5,3.1-2.1h1.7V160H644.9z"/>
	</g>
	<g>
		<path class="st3" d="M652,157.6h-4.4v-2l4.5-6.1h1.9v6.3h1.4v1.8H654v2.4h-2V157.6z M652,152.2L652,152.2l-2.7,3.6h2.8L652,152.2z
			"/>
	</g>
	<g>
		<path class="st3" d="M639.5,226c-0.1-2.4,1.3-4.2,3.8-4.2c1.8-0.1,3.4,1.2,3.6,3c0,0.1,0,0.1,0,0.2c0,3.2-3.4,3.4-4.9,5.6h4.9v1.8
			h-7.7c0-2.4,1.5-3.4,3.3-4.7c0.9-0.6,2.2-1.3,2.2-2.6c0.1-0.8-0.5-1.5-1.3-1.6l0,0h-0.2c-1.3,0-1.7,1.3-1.7,2.4L639.5,226z"/>
	</g>
	<g>
		<path class="st3" d="M651.4,221.8c2.1,0,3.9,1.3,3.9,5.4s-1.8,5.5-3.9,5.5s-3.8-1.3-3.8-5.5S649.4,221.8,651.4,221.8z M651.4,231
			c1.7,0,1.7-2.6,1.7-3.8s0-3.6-1.7-3.6s-1.7,2.6-1.7,3.6S649.7,230.9,651.4,231L651.4,231z"/>
	</g>
	<g>
		<path class="st3" d="M639.5,274.9c-0.1-2.4,1.3-4.2,3.8-4.2c1.8-0.1,3.4,1.2,3.6,3.1c0,0.1,0,0.1,0,0.2c0,3.2-3.4,3.4-4.9,5.6h4.9
			v1.8h-7.7c0-2.4,1.5-3.4,3.3-4.7c0.9-0.6,2.2-1.3,2.2-2.6c0.1-0.8-0.5-1.6-1.4-1.6l0,0h-0.2c-1.3,0-1.7,1.3-1.7,2.4L639.5,274.9z"
			/>
	</g>
	<g>
		<path class="st3" d="M652,278.9h-4.4V277l4.5-6.1h1.9v6.3h1.4v1.8H654v2.4h-2V278.9z M652,273.5L652,273.5l-2.7,3.6h2.8L652,273.5
			z"/>
	</g>
	<g>
		<path class="st3" d="M679.5,78.9c-2.2,1.9-3.4,5.8-3.4,8.6h-2.3c0.3-3.1,1.5-6.1,3.5-8.5h-5v-2h7.2V78.9z"/>
	</g>
	<g>
		<path class="st12" d="M620.6,266.2h9.9c1.4,0,2.5,1.1,2.5,2.5v12.5c0,1.4-1.1,2.5-2.5,2.5h-9.9c-1.4,0-2.5-1.1-2.5-2.5v-12.5
			C618.1,267.3,619.2,266.2,620.6,266.2z"/>
	</g>
	<g>
		<polygon class="st12" points="606.6,266.2 624.2,266.2 632.9,274.9 624.2,283.7 606.6,283.7 597.8,274.9 		"/>
	</g>
	<g>
		<path class="st3" d="M609.3,269.7h2.1l4,6.4l0,0v-6.4h2v9.5h-2.1l-4-6.4l0,0v6.4h-2V269.7z"/>
	</g>
	<g>
		<path class="st3" d="M625.5,272.9c-0.2-1-1.1-1.7-2.1-1.7c-1.9,0-2.6,1.6-2.6,3.2s0.7,3.2,2.6,3.2c1.2,0,2.1-0.9,2.2-2.1l0,0h2
			c-0.1,2.2-1.9,4-4.1,3.9h-0.1c-2.9,0-4.7-2.2-4.7-4.9s1.7-5,4.7-5c2.1-0.1,3.9,1.4,4.1,3.4H625.5z"/>
	</g>
	<g>
		<path class="st12" d="M620.6,0.6h9.9c1.4,0,2.5,1.1,2.5,2.5v12.5c0,1.4-1.1,2.5-2.5,2.5h-9.9c-1.4,0-2.5-1.1-2.5-2.5V3.1
			C618.1,1.7,619.2,0.6,620.6,0.6z"/>
	</g>
	<g>
		<polygon class="st12" points="606.6,0.6 624.2,0.6 632.9,9.4 624.2,18.1 606.6,18.1 597.8,9.4 		"/>
	</g>
	<g>
		<path class="st3" d="M609.3,4.1h2.1l4,6.4l0,0V4.1h2v9.5h-2.1l-4-6.4l0,0v6.4h-2V4.1z"/>
	</g>
	<g>
		<path class="st3" d="M625.5,7.3c-0.2-1-1.1-1.7-2.1-1.7c-1.9,0-2.6,1.6-2.6,3.2s0.7,3.2,2.6,3.2c1.2,0,2.2-0.9,2.2-2.1l0,0h2
			c-0.1,2.2-1.9,4-4.1,3.9h-0.1c-2.9,0-4.7-2.2-4.7-4.9s1.7-5,4.7-5c2.1-0.1,3.9,1.4,4.1,3.4C627.5,7.3,625.5,7.3,625.5,7.3z"/>
	</g>
	<g>
		<path class="st12" d="M620.6,73.7h9.9c1.4,0,2.5,1.1,2.5,2.5v12.5c0,1.4-1.1,2.5-2.5,2.5h-9.9c-1.4,0-2.5-1.1-2.5-2.5V76.1
			C618.1,74.8,619.2,73.7,620.6,73.7z"/>
	</g>
	<g>
		<polygon class="st12" points="606.6,73.7 624.2,73.7 632.9,82.4 624.2,91.1 606.6,91.1 597.8,82.4 		"/>
	</g>
	<g>
		<path class="st3" d="M609.3,77.1h2.1l4,6.4l0,0v-6.4h2v9.5h-2.1l-4-6.4l0,0v6.4h-2V77.1z"/>
	</g>
	<g>
		<path class="st3" d="M625.5,80.3c-0.2-1-1.1-1.7-2.1-1.7c-1.9,0-2.6,1.6-2.6,3.2s0.7,3.2,2.6,3.2c1.2,0,2.2-0.9,2.2-2.1h2
			c-0.1,2.2-1.9,4-4.1,3.9h-0.1c-2.9,0-4.7-2.2-4.7-4.9s1.7-5,4.7-5c2.1-0.1,3.9,1.4,4.1,3.4H625.5z"/>
	</g>
	<g>
		<path class="st12" d="M692.8,0.6h9.9c1.4,0,2.5,1.1,2.5,2.5v12.5c0,1.4-1.1,2.5-2.5,2.5h-9.9c-1.4,0-2.5-1.1-2.5-2.5V3.1
			C690.4,1.7,691.5,0.6,692.8,0.6z"/>
	</g>
	<g>
		<polygon class="st12" points="716.7,0.6 699.1,0.6 690.3,9.4 699.1,18.1 716.7,18.1 725.4,9.4 		"/>
	</g>
	<g>
		<path class="st3" d="M696.8,4.1h2.1l4,6.4l0,0V4.1h2v9.5h-2.1l-3.9-6.4l0,0v6.4h-2L696.8,4.1z"/>
	</g>
	<g>
		<path class="st3" d="M713,7.3c-0.2-1-1.1-1.7-2.1-1.7c-1.9,0-2.6,1.6-2.6,3.2s0.7,3.2,2.6,3.2c1.2,0,2.2-0.9,2.2-2.1l0,0h2
			c-0.1,2.2-1.9,3.9-4.1,3.9h-0.1c-2.9,0-4.7-2.2-4.7-4.9s1.7-5,4.7-5c2.1-0.1,3.9,1.4,4.1,3.4L713,7.3z"/>
	</g>
	<g>
		<path class="st12" d="M692.8,49.1h9.9c1.4,0,2.5,1.1,2.5,2.5v12.5c0,1.4-1.1,2.5-2.5,2.5h-9.9c-1.4,0-2.5-1.1-2.5-2.5V51.6
			C690.4,50.2,691.5,49.1,692.8,49.1z"/>
	</g>
	<g>
		<polygon class="st12" points="716.7,49.1 699.1,49.1 690.3,57.8 699.1,66.5 716.7,66.5 725.4,57.8 		"/>
	</g>
	<g>
		<path class="st3" d="M696.8,52.5h2.1l4,6.4l0,0v-6.4h2V62h-2.1l-4-6.4l0,0V62h-2V52.5z"/>
	</g>
	<g>
		<path class="st3" d="M713,55.7c-0.2-1-1.1-1.7-2.1-1.7c-1.9,0-2.6,1.6-2.6,3.2s0.7,3.2,2.6,3.2c1.2,0,2.2-0.9,2.2-2.1l0,0h2
			c-0.1,2.2-1.9,4-4.1,3.9h-0.1c-2.9,0-4.7-2.2-4.7-4.9s1.7-5,4.7-5c2.1-0.1,3.9,1.4,4.1,3.4L713,55.7z"/>
	</g>
	<g>
		<path class="st12" d="M692.8,73.7h9.9c1.4,0,2.5,1.1,2.5,2.5v12.5c0,1.4-1.1,2.5-2.5,2.5h-9.9c-1.4,0-2.5-1.1-2.5-2.5V76.1
			C690.4,74.8,691.5,73.7,692.8,73.7z"/>
	</g>
	<g>
		<polygon class="st12" points="716.7,73.7 699.1,73.7 690.3,82.4 699.1,91.1 716.7,91.1 725.4,82.4 		"/>
	</g>
	<g>
		<path class="st3" d="M696.8,77.1h2.1l4,6.4l0,0v-6.4h2v9.5h-2.1l-4-6.4l0,0v6.4h-2V77.1z"/>
	</g>
	<g>
		<path class="st3" d="M713,80.3c-0.2-1-1.1-1.7-2.1-1.7c-1.9,0-2.6,1.6-2.6,3.2s0.7,3.2,2.6,3.2c1.2,0,2.2-0.9,2.2-2.1l0,0h2
			c-0.1,2.2-1.9,4-4.1,3.9h-0.1c-2.9,0-4.7-2.2-4.7-4.9s1.7-5,4.7-5c2.1-0.1,3.9,1.4,4.1,3.4H713z"/>
	</g>
	<g>
		<path class="st12" d="M620.6,97.2h9.9c1.4,0,2.5,1.1,2.5,2.5v12.5c0,1.4-1.1,2.5-2.5,2.5h-9.9c-1.4,0-2.5-1.1-2.5-2.5V99.6
			C618.1,98.3,619.2,97.2,620.6,97.2z"/>
	</g>
	<g>
		<polygon class="st12" points="606.6,97.2 624.2,97.2 632.9,105.9 624.2,114.6 606.6,114.6 597.8,105.9 		"/>
	</g>
	<g>
		<path class="st3" d="M609.3,100.6h2.1l4,6.4l0,0v-6.4h2v9.5h-2.1l-4-6.4l0,0v6.4h-2V100.6z"/>
	</g>
	<g>
		<path class="st3" d="M625.5,103.8c-0.2-1-1.1-1.7-2.1-1.7c-1.9,0-2.6,1.6-2.6,3.2s0.7,3.2,2.6,3.2c1.2,0,2.1-0.9,2.2-2.1l0,0h2
			c-0.1,2.2-1.9,4-4.1,3.9h-0.1c-2.9,0-4.7-2.2-4.7-4.9s1.7-5,4.7-5c2.1-0.1,3.9,1.4,4.1,3.4H625.5z"/>
	</g>
	<g>
		<path class="st12" d="M692.8,97.2h9.9c1.4,0,2.5,1.1,2.5,2.5v12.5c0,1.4-1.1,2.5-2.5,2.5h-9.9c-1.4,0-2.5-1.1-2.5-2.5V99.6
			C690.4,98.3,691.5,97.2,692.8,97.2z"/>
	</g>
	<g>
		<polygon class="st12" points="716.7,97.2 699.1,97.2 690.3,105.9 699.1,114.6 716.7,114.6 725.4,105.9 		"/>
	</g>
	<g>
		<path class="st3" d="M696.8,100.6h2.1l4,6.4l0,0v-6.4h2v9.5h-2.1l-4-6.4l0,0v6.4h-2V100.6z"/>
	</g>
	<g>
		<path class="st3" d="M713,103.8c-0.2-1-1.1-1.7-2.1-1.7c-1.9,0-2.6,1.6-2.6,3.2s0.7,3.2,2.6,3.2c1.2,0,2.2-0.9,2.2-2.1l0,0h2
			c-0.1,2.2-1.9,4-4.1,3.9h-0.1c-2.9,0-4.7-2.2-4.7-4.9s1.7-5,4.7-5c2.1-0.1,3.9,1.4,4.1,3.4H713z"/>
	</g>
	<g>
		<path class="st12" d="M620.6,120.7h9.9c1.4,0,2.5,1.1,2.5,2.5v12.5c0,1.4-1.1,2.5-2.5,2.5h-9.9c-1.4,0-2.5-1.1-2.5-2.5v-12.5
			C618.1,121.8,619.2,120.7,620.6,120.7z"/>
	</g>
	<g>
		<polygon class="st12" points="606.6,120.7 624.2,120.7 632.9,129.4 624.2,138.1 606.6,138.1 597.8,129.4 		"/>
	</g>
	<g>
		<path class="st3" d="M609.3,124.2h2.1l4,6.4l0,0v-6.4h2v9.5h-2.1l-4-6.4l0,0v6.4h-2V124.2z"/>
	</g>
	<g>
		<path class="st3" d="M625.5,127.4c-0.2-1-1.1-1.7-2.1-1.7c-1.9,0-2.6,1.6-2.6,3.2s0.7,3.2,2.6,3.2c1.2,0,2.2-1,2.2-2.1l0,0h2
			c-0.1,2.2-1.9,4-4.1,3.9h-0.1c-2.9,0-4.7-2.2-4.7-4.9s1.7-5,4.7-5c2.1-0.1,3.9,1.4,4.1,3.4H625.5z"/>
	</g>
	<g>
		<path class="st12" d="M692.8,120.7h9.9c1.4,0,2.5,1.1,2.5,2.5v12.5c0,1.4-1.1,2.5-2.5,2.5h-9.9c-1.4,0-2.5-1.1-2.5-2.5v-12.5
			C690.4,121.8,691.5,120.7,692.8,120.7z"/>
	</g>
	<g>
		<polygon class="st12" points="716.7,120.7 699.1,120.7 690.3,129.4 699.1,138.1 716.7,138.1 725.4,129.4 		"/>
	</g>
	<g>
		<path class="st3" d="M696.8,124.2h2.1l4,6.4l0,0v-6.4h2v9.5h-2.1l-4-6.4l0,0v6.4h-2V124.2z"/>
	</g>
	<g>
		<path class="st3" d="M713,127.4c-0.2-1-1.1-1.7-2.1-1.7c-1.9,0-2.6,1.6-2.6,3.2s0.7,3.2,2.6,3.2c1.2,0,2.2-0.9,2.2-2.1l0,0h2
			c-0.1,2.2-1.9,4-4.1,3.9h-0.1c-2.9,0-4.7-2.2-4.7-4.9s1.7-5,4.7-5c2.1-0.1,3.9,1.4,4.1,3.4H713z"/>
	</g>
	<g>
		<path class="st12" d="M692.8,145h9.9c1.4,0,2.5,1.1,2.5,2.5V160c0,1.4-1.1,2.5-2.5,2.5h-9.9c-1.4,0-2.5-1.1-2.5-2.5v-12.5
			C690.4,146.1,691.5,145,692.8,145z"/>
	</g>
	<g>
		<polygon class="st12" points="716.7,145 699.1,145 690.3,153.7 699.1,162.4 716.7,162.4 725.4,153.7 		"/>
	</g>
	<g>
		<path class="st3" d="M696.8,148.5h2.1l4,6.4l0,0v-6.4h2v9.5h-2.1l-4-6.4l0,0v6.4h-2V148.5z"/>
	</g>
	<g>
		<path class="st3" d="M713,151.6c-0.2-1-1.1-1.7-2.1-1.7c-1.9,0-2.6,1.6-2.6,3.2s0.7,3.2,2.6,3.2c1.2,0,2.2-0.9,2.2-2.1l0,0h2
			c-0.1,2.2-1.9,4-4.1,3.9h-0.1c-2.9,0-4.7-2.2-4.7-4.9s1.7-5,4.7-5c2.1-0.1,3.9,1.4,4.1,3.4L713,151.6L713,151.6z"/>
	</g>
	<g>
		<path class="st12" d="M620.6,168.9h9.9c1.4,0,2.5,1.1,2.5,2.5v12.5c0,1.4-1.1,2.5-2.5,2.5h-9.9c-1.4,0-2.5-1.1-2.5-2.5v-12.5
			C618.1,170,619.2,168.9,620.6,168.9z"/>
	</g>
	<g>
		<polygon class="st12" points="606.6,168.9 624.2,168.9 632.9,177.6 624.2,186.3 606.6,186.3 597.8,177.6 		"/>
	</g>
	<g>
		<path class="st3" d="M609.3,172.3h2.1l4,6.4l0,0v-6.4h2v9.5h-2.1l-4-6.4l0,0v6.4h-2V172.3z"/>
	</g>
	<g>
		<path class="st3" d="M625.5,175.5c-0.2-1-1.1-1.7-2.1-1.7c-1.9,0-2.6,1.6-2.6,3.2s0.7,3.2,2.6,3.2c1.2,0,2.1-0.9,2.2-2.1h2
			c-0.1,2.2-1.9,4-4.1,3.9h-0.1c-2.9,0-4.7-2.2-4.7-5s1.7-5,4.7-5c2.1-0.1,3.9,1.4,4.1,3.4L625.5,175.5z"/>
	</g>
	<g>
		<path class="st12" d="M620.6,145h9.9c1.4,0,2.5,1.1,2.5,2.5V160c0,1.4-1.1,2.5-2.5,2.5h-9.9c-1.4,0-2.5-1.1-2.5-2.5v-12.5
			C618.1,146.1,619.2,145,620.6,145z"/>
	</g>
	<g>
		<polygon class="st12" points="606.6,145 624.2,145 632.9,153.8 624.2,162.5 606.6,162.5 597.8,153.8 		"/>
	</g>
	<g>
		<path class="st3" d="M609.3,148.5h2.1l4,6.4l0,0v-6.4h2v9.5h-2.1l-4-6.4l0,0v6.4h-2V148.5z"/>
	</g>
	<g>
		<path class="st3" d="M625.5,151.7c-0.2-1-1.1-1.7-2.1-1.7c-1.9,0-2.6,1.6-2.6,3.2s0.7,3.2,2.6,3.2c1.2,0,2.1-0.9,2.2-2.1l0,0h2
			c-0.1,2.2-1.9,4-4.1,3.9h-0.1c-2.9,0-4.7-2.2-4.7-5s1.7-5,4.7-5c2.1-0.1,3.9,1.4,4.1,3.4L625.5,151.7z"/>
	</g>
	<g>
		<path class="st12" d="M692.8,168.9h9.9c1.4,0,2.5,1.1,2.5,2.5v12.5c0,1.4-1.1,2.5-2.5,2.5h-9.9c-1.4,0-2.5-1.1-2.5-2.5v-12.5
			C690.4,170,691.5,168.9,692.8,168.9z"/>
	</g>
	<g>
		<polygon class="st12" points="716.7,168.9 699.1,168.9 690.3,177.6 699.1,186.3 716.7,186.3 725.4,177.6 		"/>
	</g>
	<g>
		<path class="st3" d="M696.8,172.3h2.1l4,6.4l0,0v-6.4h2v9.5h-2.1l-4-6.4l0,0v6.4h-2V172.3z"/>
	</g>
	<g>
		<path class="st3" d="M713,175.5c-0.2-1-1.1-1.7-2.1-1.7c-1.9,0-2.6,1.6-2.6,3.2s0.7,3.2,2.6,3.2c1.2,0,2.2-0.9,2.2-2.1l0,0h2
			c-0.1,2.2-1.9,4-4.1,3.9h-0.1c-2.9,0-4.7-2.2-4.7-5s1.7-5,4.7-5c2.1-0.1,3.9,1.4,4.1,3.4L713,175.5z"/>
	</g>
	<g>
		<path class="st12" d="M620.6,193h9.9c1.4,0,2.5,1.1,2.5,2.5V208c0,1.4-1.1,2.5-2.5,2.5h-9.9c-1.4,0-2.5-1.1-2.5-2.5v-12.5
			C618.1,194.1,619.2,193,620.6,193z"/>
	</g>
	<g>
		<polygon class="st12" points="606.6,193 624.2,193 632.9,201.7 624.2,210.4 606.6,210.4 597.8,201.7 		"/>
	</g>
	<g>
		<path class="st3" d="M609.3,196.4h2.1l4,6.4l0,0v-6.4h2v9.5h-2.1l-4-6.3l0,0v6.3h-2V196.4z"/>
	</g>
	<g>
		<path class="st3" d="M625.5,199.6c-0.2-1-1.1-1.7-2.1-1.7c-1.9,0-2.6,1.6-2.6,3.3s0.7,3.2,2.6,3.2c1.2,0,2.1-0.9,2.2-2.1h2
			c-0.1,2.2-1.9,4-4.1,3.9h-0.1c-2.9,0-4.7-2.2-4.7-4.9s1.7-5,4.7-5c2.1-0.1,3.9,1.4,4.1,3.4L625.5,199.6z"/>
	</g>
	<g>
		<path class="st12" d="M692.8,193h9.9c1.4,0,2.5,1.1,2.5,2.5V208c0,1.4-1.1,2.5-2.5,2.5h-9.9c-1.4,0-2.5-1.1-2.5-2.5v-12.5
			C690.4,194.1,691.5,193,692.8,193z"/>
	</g>
	<g>
		<polygon class="st12" points="716.7,193 699.1,193 690.3,201.7 699.1,210.4 716.7,210.4 725.4,201.7 		"/>
	</g>
	<g>
		<path class="st3" d="M696.8,196.4h2.1l4,6.4l0,0v-6.4h2v9.5h-2.1l-4-6.4l0,0v6.4h-2V196.4z"/>
	</g>
	<g>
		<path class="st3" d="M713,199.6c-0.2-1-1.1-1.7-2.1-1.6c-1.9,0-2.6,1.6-2.6,3.2s0.7,3.2,2.6,3.2c1.2,0,2.2-0.9,2.2-2.1l0,0h2
			c-0.1,2.2-1.9,4-4.1,3.9h-0.1c-2.9,0-4.7-2.2-4.7-4.9s1.7-5,4.7-5c2.1-0.1,3.9,1.4,4.1,3.4L713,199.6z"/>
	</g>
	<g>
		<path class="st12" d="M620.6,217.4h9.9c1.4,0,2.5,1.1,2.5,2.5v12.5c0,1.4-1.1,2.5-2.5,2.5h-9.9c-1.4,0-2.5-1.1-2.5-2.5v-12.5
			C618.1,218.5,619.2,217.4,620.6,217.4z"/>
	</g>
	<g>
		<polygon class="st12" points="606.6,217.4 624.2,217.4 632.9,226.1 624.2,234.8 606.6,234.8 597.8,226.1 		"/>
	</g>
	<g>
		<path class="st3" d="M609.3,220.8h2.1l4,6.4l0,0v-6.4h2v9.5h-2.1l-4-6.4l0,0v6.4h-2V220.8z"/>
	</g>
	<g>
		<path class="st3" d="M625.5,224c-0.2-1-1.1-1.7-2.1-1.7c-1.9,0-2.6,1.6-2.6,3.2s0.7,3.2,2.6,3.2c1.2,0,2.2-0.9,2.2-2.1l0,0h2
			c-0.1,2.2-1.9,4-4.1,3.9h-0.1c-2.9,0-4.7-2.2-4.7-4.9s1.7-5,4.7-5c2.1-0.1,3.9,1.4,4.1,3.4L625.5,224z"/>
	</g>
	<g>
		<path class="st12" d="M692.8,217.4h9.9c1.4,0,2.5,1.1,2.5,2.5v12.5c0,1.4-1.1,2.5-2.5,2.5h-9.9c-1.4,0-2.5-1.1-2.5-2.5v-12.5
			C690.4,218.5,691.5,217.4,692.8,217.4z"/>
	</g>
	<g>
		<polygon class="st12" points="716.7,217.4 699.1,217.4 690.3,226.1 699.1,234.8 716.7,234.8 725.4,226.1 		"/>
	</g>
	<g>
		<path class="st3" d="M696.8,220.8h2.1l4,6.4l0,0v-6.4h2v9.5h-2.1l-4-6.4l0,0v6.4h-2V220.8z"/>
	</g>
	<g>
		<path class="st3" d="M713,224c-0.2-1-1.1-1.7-2.1-1.7c-1.9,0-2.6,1.6-2.6,3.2s0.7,3.2,2.6,3.2c1.2,0,2.2-0.9,2.2-2.1l0,0h2
			c-0.1,2.2-1.9,4-4.1,3.9h-0.1c-2.9,0-4.7-2.2-4.7-4.9s1.7-5,4.7-5c2.1-0.1,3.9,1.4,4.1,3.4L713,224z"/>
	</g>
	<g>
		<path class="st12" d="M620.6,242.6h9.9c1.4,0,2.5,1.1,2.5,2.5v12.5c0,1.4-1.1,2.5-2.5,2.5h-9.9c-1.4,0-2.5-1.1-2.5-2.5V245
			C618.1,243.7,619.2,242.6,620.6,242.6z"/>
	</g>
	<g>
		<polygon class="st12" points="606.6,242.6 624.2,242.6 632.9,251.3 624.2,260 606.6,260 597.8,251.3 		"/>
	</g>
	<g>
		<path class="st3" d="M609.3,246h2.1l4,6.4l0,0V246h2v9.5h-2.1l-4-6.4l0,0v6.4h-2V246z"/>
	</g>
	<g>
		<path class="st3" d="M625.5,249.2c-0.2-1-1.1-1.7-2.1-1.7c-1.9,0-2.6,1.6-2.6,3.2s0.7,3.2,2.6,3.2c1.2,0,2.1-0.9,2.2-2.1l0,0h2
			c-0.1,2.2-1.9,4-4.1,3.9h-0.1c-2.9,0-4.7-2.2-4.7-4.9s1.7-5,4.7-5c2.1-0.1,3.9,1.4,4.1,3.4L625.5,249.2z"/>
	</g>
	<g>
		<path class="st12" d="M692.8,242.6h9.9c1.4,0,2.5,1.1,2.5,2.5v12.5c0,1.4-1.1,2.5-2.5,2.5h-9.9c-1.4,0-2.5-1.1-2.5-2.5V245
			C690.4,243.7,691.5,242.6,692.8,242.6z"/>
	</g>
	<g>
		<polygon class="st12" points="716.7,242.6 699.1,242.6 690.3,251.3 699.1,260 716.7,260 725.4,251.3 		"/>
	</g>
	<g>
		<path class="st3" d="M696.8,246h2.1l4,6.4l0,0V246h2v9.5h-2.1l-4-6.4l0,0v6.4h-2V246z"/>
	</g>
	<g>
		<path class="st3" d="M713,249.2c-0.2-1-1.1-1.7-2.1-1.7c-1.9,0-2.6,1.6-2.6,3.2s0.7,3.2,2.6,3.2c1.2,0,2.2-0.9,2.2-2.1l0,0h2
			c-0.1,2.2-1.9,4-4.1,3.9h-0.1c-2.9,0-4.7-2.2-4.7-4.9s1.7-5,4.7-5c2.1-0.1,3.9,1.4,4.1,3.4L713,249.2z"/>
	</g>
	<g>
		<path class="st12" d="M620.5,313.4h9.9c1.4,0,2.5,1.1,2.5,2.5v12.5c0,1.4-1.1,2.5-2.5,2.5h-9.9c-1.4,0-2.5-1.1-2.5-2.5v-12.5
			C618,314.5,619.2,313.4,620.5,313.4z"/>
	</g>
	<g>
		<polygon class="st12" points="606.6,313.4 624.1,313.4 632.9,322.1 624.1,330.8 606.6,330.8 597.8,322.1 		"/>
	</g>
	<g>
		<path class="st3" d="M609.3,316.9h2.1l4,6.4l0,0v-6.4h2v9.5h-2.1l-4-6.4l0,0v6.4h-2V316.9z"/>
	</g>
	<g>
		<path class="st3" d="M625.5,320.1c-0.2-1-1.1-1.7-2.1-1.7c-1.9,0-2.6,1.6-2.6,3.2s0.7,3.2,2.6,3.2c1.2,0,2.2-0.9,2.2-2.1l0,0h2
			c-0.1,2.2-1.9,4-4.1,3.9h-0.1c-2.9,0-4.7-2.2-4.7-4.9s1.7-5,4.7-5c2.1-0.1,3.9,1.4,4.1,3.4H625.5z"/>
	</g>
	<g>
		<path class="st12" d="M620.6,289.9h9.9c1.4,0,2.5,1.1,2.5,2.5v12.5c0,1.4-1.1,2.5-2.5,2.5h-9.9c-1.4,0-2.5-1.1-2.5-2.5v-12.5
			C618.1,291,619.2,289.9,620.6,289.9z"/>
	</g>
	<g>
		<polygon class="st12" points="606.6,289.9 624.2,289.9 632.9,298.6 624.2,307.3 606.6,307.3 597.8,298.6 		"/>
	</g>
	<g>
		<path class="st3" d="M609.3,293.3h2.1l4,6.4l0,0v-6.4h2v9.5h-2.1l-4-6.4l0,0v6.4h-2V293.3z"/>
	</g>
	<g>
		<path class="st3" d="M625.5,296.5c-0.2-1-1.1-1.7-2.1-1.7c-1.9,0-2.6,1.6-2.6,3.2s0.7,3.2,2.6,3.2c1.2,0,2.1-0.9,2.2-2.1l0,0h2
			c-0.1,2.2-1.9,4-4.1,3.9h-0.1c-2.9,0-4.7-2.2-4.7-4.9s1.7-5,4.7-5c2.1-0.1,3.9,1.4,4.1,3.4H625.5z"/>
	</g>
	<g>
		<path class="st12" d="M692.8,289.9h9.9c1.4,0,2.5,1.1,2.5,2.5v12.5c0,1.4-1.1,2.5-2.5,2.5h-9.9c-1.4,0-2.5-1.1-2.5-2.5v-12.5
			C690.4,291,691.5,289.9,692.8,289.9z"/>
	</g>
	<g>
		<polygon class="st12" points="716.7,289.9 699.1,289.9 690.3,298.6 699.1,307.3 716.7,307.3 725.4,298.6 		"/>
	</g>
	<g>
		<path class="st3" d="M696.8,293.3h2.1l4,6.4l0,0v-6.4h2v9.5h-2.1l-4-6.4l0,0v6.4h-2V293.3z"/>
	</g>
	<g>
		<path class="st3" d="M713,296.5c-0.2-1-1.1-1.7-2.1-1.7c-1.9,0-2.6,1.6-2.6,3.2s0.7,3.2,2.6,3.2c1.2,0,2.2-0.9,2.2-2.1l0,0h2
			c-0.1,2.2-1.9,4-4.1,3.9h-0.1c-2.9,0-4.7-2.2-4.7-4.9s1.7-5,4.7-5c2.1-0.1,3.9,1.4,4.1,3.4H713z"/>
	</g>
	<g>
		<path class="st12" d="M692.8,266.2h9.9c1.4,0,2.5,1.1,2.5,2.5v12.5c0,1.4-1.1,2.5-2.5,2.5h-9.9c-1.4,0-2.5-1.1-2.5-2.5v-12.5
			C690.4,267.3,691.5,266.2,692.8,266.2z"/>
	</g>
	<g>
		<polygon class="st12" points="716.7,266.2 699.1,266.2 690.3,274.9 699.1,283.7 716.7,283.7 725.4,274.9 		"/>
	</g>
	<g>
		<path class="st3" d="M696.8,269.7h2.1l4,6.4l0,0v-6.4h2v9.5h-2.1l-4-6.4l0,0v6.4h-2V269.7z"/>
	</g>
	<g>
		<path class="st3" d="M713,272.9c-0.2-1-1.1-1.7-2.1-1.7c-1.9,0-2.6,1.6-2.6,3.2s0.7,3.2,2.6,3.2c1.2,0,2.2-0.9,2.2-2.1l0,0h2
			c-0.1,2.2-1.9,4-4.1,3.9h-0.1c-2.9,0-4.7-2.2-4.7-4.9s1.7-5,4.7-5c2.1-0.1,3.9,1.4,4.1,3.4H713z"/>
	</g>
	<g>
		<path class="st3" d="M696.8,269.6h2.1l4,6.4l0,0v-6.4h2v9.5h-2.1l-4-6.4l0,0v6.4h-2V269.6z"/>
	</g>
	<g>
		<path class="st3" d="M713,272.9c-0.2-1-1.1-1.7-2.1-1.7c-1.9,0-2.6,1.6-2.6,3.2s0.7,3.2,2.6,3.2c1.2,0,2.2-0.9,2.2-2.1l0,0h2
			c-0.1,2.2-1.9,4-4.1,3.9h-0.1c-2.9,0-4.7-2.2-4.7-4.9s1.7-5,4.7-5c2.1-0.1,3.9,1.4,4.1,3.4H713z"/>
	</g>
	<g>
		<path class="st12" d="M620.6,337.7h9.9c1.4,0,2.5,1.1,2.5,2.5v12.5c0,1.4-1.1,2.5-2.5,2.5h-9.9c-1.4,0-2.5-1.1-2.5-2.5v-12.5
			C618.1,338.8,619.2,337.7,620.6,337.7z"/>
	</g>
	<g>
		<polygon class="st12" points="606.6,337.7 624.2,337.7 632.9,346.4 624.2,355.1 606.6,355.1 597.8,346.4 		"/>
	</g>
	<g>
		<path class="st3" d="M609.3,341.2h2.1l4,6.4l0,0v-6.4h2v9.5h-2.1l-4-6.4l0,0v6.4h-2V341.2z"/>
	</g>
	<g>
		<path class="st3" d="M625.5,344.4c-0.2-1-1.1-1.7-2.1-1.7c-1.9,0-2.6,1.6-2.6,3.2s0.7,3.2,2.6,3.2c1.2,0,2.1-0.9,2.2-2.1h2
			c-0.1,2.2-1.9,4-4.1,3.9h-0.1c-2.9,0-4.7-2.2-4.7-4.9s1.7-5,4.7-5c2.1-0.1,3.9,1.4,4.1,3.4H625.5z"/>
	</g>
	<g>
		<path class="st12" d="M692.8,337.7h9.9c1.4,0,2.5,1.1,2.5,2.5v12.5c0,1.4-1.1,2.5-2.5,2.5h-9.9c-1.4,0-2.5-1.1-2.5-2.5v-12.5
			C690.4,338.8,691.5,337.7,692.8,337.7z"/>
	</g>
	<g>
		<polygon class="st12" points="716.7,337.7 699.1,337.7 690.3,346.4 699.1,355.1 716.7,355.1 725.4,346.4 		"/>
	</g>
	<g>
		<path class="st3" d="M696.8,341.2h2.1l4,6.4l0,0v-6.4h2v9.5h-2.1l-4-6.4l0,0v6.4h-2V341.2z"/>
	</g>
	<g>
		<path class="st3" d="M713,344.4c-0.2-1-1.1-1.7-2.1-1.7c-1.9,0-2.6,1.6-2.6,3.2s0.7,3.2,2.6,3.2c1.2,0,2.2-0.9,2.2-2.1l0,0h2
			c-0.1,2.2-1.9,4-4.1,3.9h-0.1c-2.9,0-4.7-2.2-4.7-4.9s1.7-5,4.7-5c2.1-0.1,3.9,1.4,4.1,3.4H713z"/>
	</g>
	<g>
		<path class="st12" d="M692.8,361.6h9.9c1.4,0,2.5,1.1,2.5,2.5v12.5c0,1.4-1.1,2.5-2.5,2.5h-9.9c-1.4,0-2.5-1.1-2.5-2.5V364
			C690.4,362.7,691.5,361.6,692.8,361.6z"/>
	</g>
	<g>
		<polygon class="st12" points="716.7,361.6 699.1,361.6 690.3,370.3 699.1,379 716.7,379 725.4,370.3 		"/>
	</g>
	<g>
		<path class="st3" d="M696.8,365h2.1l4,6.4l0,0V365h2v9.5h-2.1l-4-6.4l0,0v6.4h-2V365z"/>
	</g>
	<g>
		<path class="st3" d="M713,368.2c-0.2-1-1.1-1.7-2.1-1.7c-1.9,0-2.6,1.6-2.6,3.2s0.7,3.2,2.6,3.2c1.2,0,2.2-0.9,2.2-2.1l0,0h2
			c-0.1,2.2-1.9,4-4.1,3.9h-0.1c-2.9,0-4.7-2.2-4.7-4.9s1.7-5,4.7-5c2.1-0.1,3.9,1.4,4.1,3.4H713z"/>
	</g>
	<g>
		<path class="st12" d="M692.8,313.4h9.9c1.4,0,2.5,1.1,2.5,2.5v12.5c0,1.4-1.1,2.5-2.5,2.5h-9.9c-1.4,0-2.5-1.1-2.5-2.5v-12.5
			C690.4,314.5,691.5,313.4,692.8,313.4z"/>
	</g>
	<g>
		<polygon class="st12" points="716.7,313.4 699.1,313.4 690.3,322.1 699.1,330.8 716.7,330.8 725.4,322.1 		"/>
	</g>
	<g>
		<path class="st3" d="M696.8,316.9h2.1l4,6.4l0,0v-6.4h2v9.5h-2.1l-4-6.4l0,0v6.4h-2V316.9z"/>
	</g>
	<g>
		<path class="st3" d="M713,320.1c-0.2-1-1.1-1.7-2.1-1.7c-1.9,0-2.6,1.6-2.6,3.2s0.7,3.2,2.6,3.2c1.2,0,2.2-0.9,2.2-2.1l0,0h2
			c-0.1,2.2-1.9,4-4.1,3.9h-0.1c-2.9,0-4.7-2.2-4.7-4.9s1.7-5,4.7-5c2.1-0.1,3.9,1.4,4.1,3.4H713z"/>
	</g>
	<g>
		<path class="st12" d="M620.6,385.7h9.9c1.4,0,2.5,1.1,2.5,2.5v12.5c0,1.4-1.1,2.5-2.5,2.5h-9.9c-1.4,0-2.5-1.1-2.5-2.5v-12.5
			C618.1,386.8,619.2,385.7,620.6,385.7z"/>
	</g>
	<g>
		<polygon class="st12" points="606.6,385.7 624.2,385.7 632.9,394.4 624.2,403.1 606.6,403.1 597.8,394.4 		"/>
	</g>
	<g>
		<path class="st3" d="M609.3,389.1h2.1l4,6.4l0,0v-6.4h2v9.5h-2.1l-4-6.4l0,0v6.4h-2V389.1z"/>
	</g>
	<g>
		<path class="st3" d="M625.5,392.3c-0.2-1-1.1-1.7-2.1-1.7c-1.9,0-2.6,1.6-2.6,3.2s0.7,3.2,2.6,3.2c1.2,0,2.1-0.9,2.2-2.1l0,0h2
			c-0.1,2.2-1.9,4-4.1,3.9h-0.1c-2.9,0-4.7-2.2-4.7-4.9s1.7-5,4.7-5c2.1-0.1,3.9,1.4,4.1,3.4H625.5z"/>
	</g>
	<g>
		<path class="st12" d="M692.8,385.7h9.9c1.4,0,2.5,1.1,2.5,2.5v12.5c0,1.4-1.1,2.5-2.5,2.5h-9.9c-1.4,0-2.5-1.1-2.5-2.5v-12.5
			C690.4,386.8,691.5,385.7,692.8,385.7z"/>
	</g>
	<g>
		<polygon class="st12" points="716.7,385.7 699.1,385.7 690.3,394.4 699.1,403.1 716.7,403.1 725.4,394.4 		"/>
	</g>
	<g>
		<path class="st3" d="M696.8,389.1h2.1l4,6.4l0,0v-6.4h2v9.5h-2.1l-4-6.4l0,0v6.4h-2V389.1z"/>
	</g>
	<g>
		<path class="st3" d="M713,392.3c-0.2-1-1.1-1.7-2.1-1.7c-1.9,0-2.6,1.6-2.6,3.2s0.7,3.2,2.6,3.2c1.2,0,2.2-0.9,2.2-2.1l0,0h2
			c-0.1,2.2-1.9,4-4.1,3.9h-0.1c-2.9,0-4.7-2.2-4.7-4.9s1.7-5,4.7-5c2.1-0.1,3.9,1.4,4.1,3.4H713z"/>
	</g>
	<g>
		<path class="st12" d="M620.6,410.1h9.9c1.4,0,2.5,1.1,2.5,2.5V425c0,1.4-1.1,2.5-2.5,2.5h-9.9c-1.4,0-2.5-1.1-2.5-2.5v-12.5
			C618.1,411.2,619.2,410.1,620.6,410.1z"/>
	</g>
	<g>
		<polygon class="st12" points="606.6,410.1 624.2,410.1 632.9,418.8 624.2,427.5 606.6,427.5 597.8,418.8 		"/>
	</g>
	<g>
		<path class="st3" d="M609.3,413.5h2.1l4,6.4l0,0v-6.4h2v9.5h-2.1l-4-6.4l0,0v6.4h-2V413.5z"/>
	</g>
	<g>
		<path class="st3" d="M625.5,416.7c-0.2-1-1.1-1.7-2.1-1.7c-1.9,0-2.6,1.6-2.6,3.2s0.7,3.2,2.6,3.2c1.2,0,2.1-0.9,2.2-2.1h2
			c-0.1,2.2-1.9,4-4.1,3.9h-0.1c-2.9,0-4.7-2.2-4.7-4.9s1.7-5,4.7-5c2.1-0.1,3.9,1.4,4.1,3.4H625.5z"/>
	</g>
	<g>
		<path class="st12" d="M692.8,410.1h9.9c1.4,0,2.5,1.1,2.5,2.5V425c0,1.4-1.1,2.5-2.5,2.5h-9.9c-1.4,0-2.5-1.1-2.5-2.5v-12.5
			C690.4,411.2,691.5,410.1,692.8,410.1z"/>
	</g>
	<g>
		<polygon class="st12" points="716.7,410.1 699.1,410.1 690.3,418.8 699.1,427.5 716.7,427.5 725.4,418.8 		"/>
	</g>
	<g>
		<path class="st3" d="M696.8,413.5h2.1l4,6.4l0,0v-6.4h2v9.5h-2.1l-4-6.4l0,0v6.4h-2V413.5z"/>
	</g>
	<g>
		<path class="st3" d="M713,416.7c-0.2-1-1.1-1.7-2.1-1.7c-1.9,0-2.6,1.6-2.6,3.2s0.7,3.2,2.6,3.2c1.2,0,2.2-0.9,2.2-2.1l0,0h2
			c-0.1,2.2-1.9,4-4.1,3.9h-0.1c-2.9,0-4.7-2.2-4.7-4.9s1.7-5,4.7-5c2.1-0.1,3.9,1.4,4.1,3.4H713z"/>
	</g>
	<g>
		<path class="st3" d="M673.5,159.4h-2.1v-6.8h-2.6V151c1.5,0,2.8-0.5,3.1-2.1h1.7L673.5,159.4z"/>
	</g>
	<g>
		<path class="st3" d="M679.4,153.1c0.9,0.1,2.2-0.1,2.2-1.3c0-0.8-0.6-1.4-1.4-1.4l0,0h-0.1c-1.1,0-1.6,0.8-1.6,1.9h-2
			c-0.1-1.9,1.4-3.5,3.3-3.6c0.1,0,0.2,0,0.3,0c1.7,0,3.5,1,3.5,2.9c0.1,1-0.5,1.9-1.5,2.1l0,0c1.1,0.2,1.9,1.2,1.8,2.4
			c0,2.2-1.8,3.4-3.9,3.4c-1.9,0.2-3.7-1.2-3.9-3.2c0-0.2,0-0.4,0-0.6h2c0,1.1,0.6,2.1,1.8,2.1c0.9,0.1,1.6-0.6,1.7-1.5l0,0v-0.1
			c0-1.6-1.4-1.6-2.4-1.6L679.4,153.1z"/>
	</g>
	<g>
		<path class="st3" d="M673.5,183.3h-2.1v-6.8h-2.6v-1.6c1.5,0.1,2.8-0.5,3.1-2.1h1.7L673.5,183.3z"/>
	</g>
	<g>
		<path class="st3" d="M683.4,174.6h-4.3l-0.4,2.4l0,0c0.5-0.5,1.2-0.8,2-0.8c1.8,0,3.3,1.4,3.3,3.2c0,0.1,0,0.2,0,0.3
			c0,2.1-1.7,3.8-3.8,3.8l0,0H680c-2,0-3.8-1.1-3.9-3.3h2.1c0.1,0.9,0.8,1.6,1.7,1.6c1,0,1.8-0.9,1.8-1.9c0,0,0,0,0-0.1l0,0
			c0.1-1-0.6-1.9-1.6-2l0,0H680c-0.7,0-1.3,0.3-1.6,0.8h-1.9l1-5.8h5.8L683.4,174.6z"/>
	</g>
	<g>
		<path class="st3" d="M728.3,303.9h6.7v0.7h-6.7V303.9z"/>
	</g>
	<g>
		<path class="st9" d="M602.6,49.1h28c1.3,0,2.3,0.6,2.3,1.3v14.7c0,0.7-1,1.3-2.3,1.3h-28"/>
	</g>
	<g>
		<polygon class="st9" points="617.2,49.1 599.7,49.1 590.9,57.8 599.7,66.5 617.2,66.5 625.9,57.8 		"/>
	</g>
	<g>
		<polygon class="st9" points="607,49.1 589.5,49.1 580.8,57.8 589.5,66.5 607,66.5 615.8,57.8 		"/>
	</g>
	<g>
		<g>
			<path class="st3" d="M594.1,56.5c0.8,0.1,2.1-0.1,2.1-1.2c0-0.7-0.6-1.3-1.3-1.3h-0.1c-1,0-1.5,0.7-1.5,1.7h-1.9
				c-0.1-1.8,1.3-3.3,3.1-3.4c0.1,0,0.2,0,0.3,0c1.6,0,3.3,1,3.3,2.7c0,0.9-0.5,1.7-1.4,2l0,0c1,0.2,1.8,1.2,1.7,2.2
				c0,2-1.7,3.2-3.6,3.2c-1.8,0.2-3.4-1.1-3.6-3c0-0.2,0-0.4,0-0.6h1.9c0,1.1,0.6,1.9,1.7,1.9c0.8,0.1,1.5-0.6,1.6-1.4v-0.1
				c0-1.5-1.3-1.5-2.3-1.5V56.5z"/>
		</g>
		<g>
			<path class="st3" d="M603.4,62.4h-2.2l-2.5-7.2h2.1l1.5,4.9l0,0l1.5-4.9h2L603.4,62.4z"/>
		</g>
		<g>
			<path class="st3" d="M609.1,56.5c0.8,0.1,2.1-0.1,2.1-1.2c0-0.7-0.6-1.3-1.3-1.3h-0.1c-0.8,0-1.5,0.6-1.5,1.5c0,0.1,0,0.2,0,0.3
				h-1.9c-0.1-1.8,1.3-3.3,3.1-3.4c0.1,0,0.2,0,0.3,0c1.6,0,3.3,1,3.3,2.7c0.1,0.9-0.5,1.7-1.4,2l0,0c1,0.2,1.8,1.2,1.7,2.2
				c0,2-1.7,3.2-3.6,3.2c-1.8,0.2-3.4-1.1-3.6-2.9c0-0.2,0-0.4,0-0.6h1.9c0,1.1,0.6,1.9,1.7,1.9c0.8,0.1,1.5-0.6,1.6-1.4v-0.1
				c0-1.5-1.3-1.5-2.3-1.5V56.5z"/>
		</g>
		<g>
			<path class="st3" d="M613.7,63.4h7v0.7h-7V63.4z"/>
		</g>
		<g>
			<path class="st3" d="M623.1,59.1c0,1.3,1,1.8,2.2,1.8c0.8,0,1.9-0.2,1.9-1.2s-1.5-1.2-3-1.7s-3-1-3-2.8c0-2,1.9-3,3.7-3
				c2.1,0,4,0.9,4,3.2h-2.1c-0.1-1.2-0.9-1.5-2-1.5c-0.7,0-1.5,0.3-1.5,1.1s0.5,0.9,3,1.5c0.7,0.2,3,0.7,3,2.9
				c0,1.8-1.4,3.2-4.2,3.2c-2.2,0-4.3-1.1-4.2-3.5H623.1z"/>
		</g>
	</g>
	<g>
		<path class="st13" d="M632.9,364v12.7c0,1.3-1,2.3-2.3,2.4l0,0h-58.5v-17.4h58.5C632,361.7,633,362.7,632.9,364L632.9,364z"/>
	</g>
	<g>
		<polygon class="st13" points="539.5,361.7 557,361.7 565.8,370.5 557,379.1 539.5,379.1 530.6,370.5 		"/>
	</g>
	<g>
		<polygon class="st13" points="545.2,361.7 574,361.7 588.6,370.5 574,379.1 545.2,379.1 530.6,370.5 		"/>
	</g>
	<g>
		<polygon class="st13" points="731.8,452.7 747.8,452.7 755.8,444 747.8,435.2 731.8,435.2 723.8,444 		"/>
	</g>
	<g>
		<path class="st13" d="M692.8,435.2h9.9c1.4,0,2.5,1.1,2.5,2.5v12.5c0,1.4-1.1,2.5-2.5,2.5h-9.9c-1.4,0-2.5-1.1-2.5-2.5v-12.5
			C690.3,436.3,691.5,435.2,692.8,435.2z"/>
	</g>
	<g>
		<polygon class="st13" points="690.3,449.1 698.1,452.7 735.7,452.7 754.4,444 735.7,435.2 698.1,435.2 690.3,438.8 		"/>
	</g>
	<g>
		<path class="st3" d="M542.2,365.7c2.6,0,4.2,2,4.2,4.5c0,2.5-1.6,4.5-4.2,4.5c-2.6,0-4.2-2-4.2-4.5
			C538,367.7,539.6,365.7,542.2,365.7z M542.2,373.1c1.7,0,2.3-1.4,2.3-2.9c0-1.5-0.6-2.9-2.3-2.9c-1.7,0-2.3,1.4-2.3,2.9
			C539.9,371.7,540.5,373.1,542.2,373.1z"/>
		<path class="st3" d="M555,371.3c0,2.3-1.4,3.4-3.7,3.4c-2.3,0-3.6-1.1-3.6-3.4v-5.3h1.9v5.3c0,0.9,0.2,1.9,1.8,1.9
			c1.3,0,1.8-0.6,1.8-1.9v-5.3h1.9V371.3z"/>
		<path class="st3" d="M558.5,367.5h-2.6v-1.6h7v1.6h-2.6v7h-1.9V367.5z"/>
		<path class="st3" d="M563.1,375.4h6v0.6h-6V375.4z"/>
		<path class="st3" d="M575.6,368.8c-0.1-0.9-0.9-1.5-1.9-1.5c-1.7,0-2.3,1.4-2.3,2.9c0,1.4,0.6,2.9,2.3,2.9c1.2,0,1.8-0.8,1.9-1.9
			h1.8c-0.2,2.1-1.7,3.5-3.8,3.5c-2.6,0-4.2-2-4.2-4.5c0-2.5,1.6-4.5,4.2-4.5c1.9,0,3.5,1.1,3.7,3.1H575.6z"/>
		<path class="st3" d="M584.5,368.8c-0.1-0.9-0.9-1.5-1.9-1.5c-1.7,0-2.3,1.4-2.3,2.9c0,1.4,0.6,2.9,2.3,2.9c1.2,0,1.8-0.8,1.9-1.9
			h1.8c-0.2,2.1-1.7,3.5-3.8,3.5c-2.6,0-4.2-2-4.2-4.5c0-2.5,1.6-4.5,4.2-4.5c1.9,0,3.5,1.1,3.7,3.1H584.5z"/>
		<path class="st3" d="M595.9,374.5H594l-1.5-5.8h0l-1.4,5.8h-1.9l-2.3-8.6h1.9l1.4,5.8h0l1.5-5.8h1.8l1.5,5.9h0l1.4-5.9h1.8
			L595.9,374.5z"/>
		<path class="st3" d="M605.2,365.7c-0.9,1.7-1.3,3.6-1.3,5.4c0,1.9,0.4,3.8,1.3,5.5h-1.4c-1-1.6-1.6-3.5-1.6-5.4
			c0-1.8,0.5-4,1.6-5.6H605.2z"/>
		<path class="st3" d="M605.9,365.9h1.9v8.6h-1.9V365.9z"/>
		<path class="st3" d="M613.3,365.7c2.6,0,4.2,2,4.2,4.5c0,2.5-1.6,4.5-4.2,4.5c-2.6,0-4.2-2-4.2-4.5
			C609.1,367.7,610.7,365.7,613.3,365.7z M613.3,373.1c1.7,0,2.3-1.4,2.3-2.9c0-1.5-0.6-2.9-2.3-2.9c-1.7,0-2.3,1.4-2.3,2.9
			C611,371.7,611.6,373.1,613.3,373.1z"/>
		<path class="st3" d="M621.7,372.6h-3.5V371l3.6-4.9h1.5v5h1.1v1.4h-1.1v1.9h-1.6V372.6z M621.7,368.2L621.7,368.2l-2.2,2.9h2.2
			V368.2z"/>
		<path class="st3" d="M624.6,376.7c0.9-1.7,1.3-3.5,1.3-5.4c0-1.9-0.4-3.8-1.3-5.5h1.4c1,1.6,1.6,3.5,1.6,5.4c0,1.8-0.5,4-1.6,5.5
			H624.6z"/>
	</g>
	<g>
		<path class="st13" d="M632.9,437.6v12.7c0,1.3-1,2.3-2.3,2.4l0,0h-58.5v-17.4h58.5C632,435.3,633,436.3,632.9,437.6L632.9,437.6z"
			/>
	</g>
	<g>
		<polygon class="st13" points="547.2,435.3 564.7,435.3 573.6,444.1 564.7,452.7 547.2,452.7 538.4,444.1 		"/>
	</g>
	<g>
		<polygon class="st13" points="558.4,435.3 578.5,435.3 588.6,444.1 578.5,452.7 558.4,452.7 548.2,444.1 		"/>
	</g>
	<g>
		<path class="st3" d="M551.1,439.3c2.6,0,4.2,2,4.2,4.5c0,2.5-1.6,4.5-4.2,4.5c-2.6,0-4.2-2-4.2-4.5
			C546.9,441.3,548.5,439.3,551.1,439.3z M551.1,446.7c1.7,0,2.3-1.4,2.3-2.9c0-1.5-0.6-2.9-2.3-2.9c-1.7,0-2.3,1.4-2.3,2.9
			C548.8,445.3,549.4,446.7,551.1,446.7z"/>
		<path class="st3" d="M563.9,444.9c0,2.3-1.4,3.4-3.7,3.4c-2.3,0-3.6-1.1-3.6-3.4v-5.3h1.9v5.3c0,0.9,0.2,1.9,1.8,1.9
			c1.3,0,1.8-0.6,1.8-1.9v-5.3h1.9V444.9z"/>
		<path class="st3" d="M567.4,441.1h-2.6v-1.6h7v1.6h-2.6v7h-1.9V441.1z"/>
		<path class="st3" d="M572,449h6v0.6h-6V449z"/>
		<path class="st3" d="M584.5,442.4c-0.1-0.9-0.9-1.5-1.9-1.5c-1.7,0-2.3,1.4-2.3,2.9c0,1.4,0.6,2.9,2.3,2.9c1.2,0,1.8-0.8,1.9-1.9
			h1.8c-0.2,2.1-1.7,3.5-3.8,3.5c-2.6,0-4.2-2-4.2-4.5c0-2.5,1.6-4.5,4.2-4.5c1.9,0,3.5,1.1,3.7,3.1H584.5z"/>
		<path class="st3" d="M595.9,448.1H594l-1.5-5.8h0l-1.4,5.8h-1.9l-2.3-8.6h1.9l1.4,5.8h0l1.5-5.8h1.8l1.5,5.9h0l1.4-5.9h1.8
			L595.9,448.1z"/>
		<path class="st3" d="M605.2,439.3c-0.9,1.7-1.3,3.6-1.3,5.4c0,1.9,0.4,3.8,1.3,5.5h-1.4c-1-1.6-1.6-3.5-1.6-5.4
			c0-1.8,0.5-4,1.6-5.6H605.2z"/>
		<path class="st3" d="M605.9,439.5h1.9v8.6h-1.9V439.5z"/>
		<path class="st3" d="M613.3,439.3c2.6,0,4.2,2,4.2,4.5c0,2.5-1.6,4.5-4.2,4.5c-2.6,0-4.2-2-4.2-4.5
			C609.1,441.3,610.7,439.3,613.3,439.3z M613.3,446.7c1.7,0,2.3-1.4,2.3-2.9c0-1.5-0.6-2.9-2.3-2.9c-1.7,0-2.3,1.4-2.3,2.9
			C611,445.3,611.6,446.7,613.3,446.7z"/>
		<path class="st3" d="M622.6,441.9c-0.1-0.6-0.5-1-1.1-1c-1.2,0-1.6,1.6-1.6,2.6l0,0c0.5-0.7,1.1-0.9,1.9-0.9
			c0.7,0,1.5,0.3,1.9,0.9c0.4,0.5,0.6,1.2,0.6,1.9c0,1.7-1.2,3.1-2.9,3.1c-2.5,0-3.2-2.2-3.2-4.3c0-2.1,0.9-4.4,3.3-4.4
			c1.5,0,2.5,0.8,2.7,2.3H622.6z M620.1,445.3c0,0.8,0.5,1.6,1.4,1.6c0.8,0,1.3-0.8,1.3-1.5c0-0.8-0.4-1.6-1.3-1.6
			C620.5,443.7,620.1,444.5,620.1,445.3z"/>
		<path class="st3" d="M624.6,450.3c0.9-1.7,1.3-3.5,1.3-5.4c0-1.9-0.4-3.8-1.3-5.5h1.4c1,1.6,1.6,3.5,1.6,5.4c0,1.8-0.5,4-1.6,5.5
			H624.6z"/>
	</g>
	<g>
		<path class="st3" d="M698.5,445.3c0,1.1,0.9,1.6,1.9,1.6c0.7,0,1.7-0.2,1.7-1.1c0-0.9-1.3-1.1-2.5-1.4c-1.3-0.3-2.6-0.9-2.6-2.4
			c0-1.8,1.7-2.6,3.2-2.6c1.8,0,3.4,0.8,3.4,2.8h-1.8c-0.1-1-0.8-1.3-1.7-1.3c-0.6,0-1.3,0.3-1.3,1c0,0.7,0.4,0.8,2.6,1.3
			c0.6,0.1,2.5,0.6,2.5,2.5c0,1.6-1.2,2.7-3.6,2.7c-1.9,0-3.7-0.9-3.6-3H698.5z"/>
		<path class="st3" d="M713.2,448.1h-1.9l-1.5-5.8h0l-1.4,5.8h-1.9l-2.3-8.6h1.9l1.4,5.8h0l1.5-5.8h1.8l1.5,5.9h0l1.4-5.9h1.8
			L713.2,448.1z"/>
		<path class="st3" d="M722.5,439.3c-0.9,1.7-1.3,3.6-1.3,5.4c0,1.9,0.4,3.8,1.3,5.5H721c-1-1.6-1.6-3.5-1.6-5.4
			c0-1.8,0.5-4,1.6-5.6H722.5z"/>
		<path class="st3" d="M723.2,439.5h1.9v8.6h-1.9V439.5z"/>
		<path class="st3" d="M730.6,439.3c2.6,0,4.2,2,4.2,4.5c0,2.5-1.6,4.5-4.2,4.5c-2.6,0-4.2-2-4.2-4.5
			C726.4,441.3,728,439.3,730.6,439.3z M730.6,446.7c1.7,0,2.3-1.4,2.3-2.9c0-1.5-0.6-2.9-2.3-2.9c-1.7,0-2.3,1.4-2.3,2.9
			C728.3,445.3,728.9,446.7,730.6,446.7z"/>
		<path class="st3" d="M741.3,441.1h-3.5l-0.3,1.9l0,0c0.5-0.5,1-0.6,1.6-0.6c1.7,0,2.6,1.3,2.6,2.9c0,1.7-1.4,3.1-3.1,3
			c-1.6,0-3.1-0.9-3.1-2.7h1.7c0.1,0.8,0.6,1.3,1.4,1.3c0.9,0,1.5-0.8,1.5-1.6c0-0.9-0.5-1.6-1.5-1.6c-0.6,0-0.9,0.2-1.3,0.7h-1.5
			l0.8-4.6h4.7V441.1z"/>
		<path class="st3" d="M741.9,450.3c0.9-1.7,1.3-3.5,1.3-5.4c0-1.9-0.4-3.8-1.3-5.5h1.4c1,1.6,1.6,3.5,1.6,5.4c0,1.8-0.5,4-1.6,5.5
			H741.9z"/>
	</g>
</g>
</svg>
