<svg xmlns="http://www.w3.org/2000/svg" xmlns:xlink="http://www.w3.org/1999/xlink" viewBox="0 0 796.49 47.9"><defs><style>.cls-1{fill:url(#radial-gradient);}.cls-2{fill:#e1d9d1;}.cls-3{fill:#918d89;}.cls-4{fill:#726e67;}.cls-5{fill:#eae4bd;}.cls-6{fill:#f1efef;}.cls-7{fill:#8d7f75;}.cls-8{fill:url(#radial-gradient-2);}.cls-9{fill:#fff;}</style><radialGradient id="radial-gradient" cx="342.93" cy="60.63" r="22.84" gradientTransform="matrix(0, -1, -2.8, 0, 945.72, 364.64)" gradientUnits="userSpaceOnUse"><stop offset="0" stop-color="#bcbab8"/><stop offset="0.65" stop-color="#918d89"/></radialGradient><radialGradient id="radial-gradient-2" cx="340.12" cy="1379.61" r="18.02" gradientTransform="matrix(0, -1, -1, 0, 1389.76, 364.64)" gradientUnits="userSpaceOnUse"><stop offset="0" stop-color="#bcbab8"/><stop offset="1" stop-color="#918d89"/></radialGradient></defs><g id="Layer_2" data-name="Layer 2"><g id="Layer_2-2" data-name="Layer 2"><g id="_5dBi_Fiber_Glass_Antenna" data-name="5dBi Fiber Glass Antenna"><g id="Layer_2-3" data-name="Layer 2"><g id="Layer_3" data-name="Layer 3"><path class="cls-1" d="M790.73,43.41s6.19-5.81,5.74-21.9c0,0,.45-15-5.74-21.51h-42.1V43.41Z"/><path class="cls-2" d="M770.21,30.7l.64-4.4H752.33v7.12h43.11s.41-1.87.54-2.8Z"/><path class="cls-2" d="M769.93,12l.75,4.54H752.12V9.38h43.11s.41,1.88.54,2.81Z"/><path class="cls-3" d="M771.7,26.3a34.16,34.16,0,0,0,0-9.79H753.19V26.3Z"/><path class="cls-4" d="M748.63,0C751.5,0,755,9.72,755,21.7s-3.48,21.71-6.35,21.71-5.19-9.72-5.19-21.71S745.77,0,748.63,0Z"/><ellipse class="cls-5" cx="20.23" cy="24.51" rx="9.51" ry="23.36"/><path class="cls-6" d="M748.16,41.89s5.37-.7,6.2-20.43c0,0-.32-18.83-6.2-20.36L21.4,3.77s-7.15,3-7.15,20.25c0,0,1.08,18,8,20.09Z"/><path class="cls-7" d="M20.23,47.89s-9.1,1.34-10.08-25.1v-.28c.1-1.84,1.31-21.18,10.08-21.34,0,0-8.17-.53-9.51,21.4v.16C10.7,24.21,10.67,46.35,20.23,47.89Z"/><path class="cls-8" d="M20.25,47.89H8.7s-4-2.59-6.57-9.54A38,38,0,0,1,0,24S.68,6,8.68,1.17H20.25S11.68-.34,10.17,22.65C10.17,22.65,10.36,47.08,20.25,47.89Z"/><path class="cls-9" d="M12.27,38.28H2.11a30.7,30.7,0,0,1-2-9.74H10.5A58.54,58.54,0,0,0,12.27,38.28Z"/><path class="cls-9" d="M.38,20.09h10s.63-6.72,1.78-9.83H2.56A44.09,44.09,0,0,0,.38,20.09Z"/><path class="cls-9" d="M18,40a27.84,27.84,0,0,1-2.95-9.45H753.53s-.92,6.25-3.09,9.41Z"/></g></g></g></g></g></svg>