<?xml version="1.0" encoding="UTF-8"?><svg id="Layer_2" xmlns="http://www.w3.org/2000/svg" xmlns:xlink="http://www.w3.org/1999/xlink" viewBox="0 0 378.14 159.13"><defs><style>.cls-1{fill:#222630;}.cls-2{fill:#b85c00;}.cls-3{fill:#fff;}.cls-4{fill:#323d49;}.cls-5{opacity:.5;}.cls-6{fill:#deaa53;}.cls-7{fill:#b2b2b2;}.cls-8{fill:#333;}.cls-9{clip-path:url(#clippath-1);}.cls-10{fill:#eaf4fc;}.cls-11{fill:#242424;}.cls-12{fill:#013a5b;}.cls-13{clip-path:url(#clippath);}.cls-14{fill:none;}.cls-15{fill:#00cd01;}.cls-16{fill:#7f7f7f;}.cls-17{fill:#d2d2d2;}.cls-18{fill:#be8e3f;}.cls-19{fill:#ec2024;}</style><clipPath id="clippath"><rect class="cls-14" x="211.02" y="41.04" width="25.4" height="69.1"/></clipPath><clipPath id="clippath-1"><rect class="cls-14" x="211.02" y="41.04" width="25.4" height="69.1"/></clipPath></defs><g id="RAK12033"><g><g><rect class="cls-16" x="322.89" y="0" width="14.35" height="159.12"/><rect class="cls-16" x="304.96" y="0" width="14.35" height="159.12"/><rect class="cls-8" x="296.61" y="0" width="8.33" height="9.8" rx="1.39" ry="1.39"/><rect class="cls-8" x="306.61" y="0" width="12.53" height="9.8" rx="1.19" ry="1.19"/><rect class="cls-7" x="306.61" y="13.42" width="12.53" height="9.8" rx="1.19" ry="1.19"/><rect class="cls-7" x="306.61" y="27.24" width="12.53" height="9.8" rx="1.19" ry="1.19"/><rect class="cls-2" x="306.61" y="41.06" width="12.53" height="9.8" rx="1.19" ry="1.19"/><rect class="cls-15" x="306.61" y="54.28" width="12.53" height="9.8" rx="1.19" ry="1.19"/><rect class="cls-15" x="306.61" y="67.5" width="12.53" height="9.8" rx="1.19" ry="1.19"/><rect class="cls-7" x="306.61" y="81.16" width="12.53" height="9.8" rx="1.19" ry="1.19"/><rect class="cls-12" x="306.61" y="94.58" width="12.53" height="9.8" rx="1.19" ry="1.19"/><rect class="cls-2" x="306.61" y="108.12" width="12.53" height="9.8" rx="1.19" ry="1.19"/><rect class="cls-7" x="306.61" y="121.84" width="12.53" height="9.8" rx="1.19" ry="1.19"/><rect class="cls-7" x="306.61" y="136.01" width="12.53" height="9.8" rx="1.19" ry="1.19"/><rect class="cls-7" x="306.61" y="149.31" width="12.53" height="9.8" rx="1.19" ry="1.19"/><rect class="cls-7" x="322.89" y="0" width="12.53" height="9.8" rx="1.19" ry="1.19"/><rect class="cls-7" x="322.89" y="13.42" width="12.53" height="9.8" rx="1.19" ry="1.19"/><rect class="cls-7" x="322.89" y="27.24" width="12.53" height="9.8" rx="1.19" ry="1.19"/><rect class="cls-2" x="322.89" y="41.06" width="12.53" height="9.8" rx="1.19" ry="1.19"/><rect class="cls-12" x="322.89" y="54.28" width="12.53" height="9.8" rx="1.19" ry="1.19"/><rect class="cls-7" x="322.89" y="67.5" width="12.53" height="9.8" rx="1.19" ry="1.19"/><rect class="cls-15" x="322.89" y="81.16" width="12.53" height="9.8" rx="1.19" ry="1.19"/><rect class="cls-15" x="322.89" y="94.58" width="12.53" height="9.8" rx="1.19" ry="1.19"/><rect class="cls-2" x="322.89" y="108.12" width="12.53" height="9.8" rx="1.19" ry="1.19"/><rect class="cls-7" x="322.89" y="121.84" width="12.53" height="9.8" rx="1.19" ry="1.19"/><rect class="cls-7" x="322.89" y="136.01" width="12.53" height="9.8" rx="1.19" ry="1.19"/><rect class="cls-8" x="322.89" y="149.31" width="12.53" height="9.8" rx="1.19" ry="1.19"/><path class="cls-3" d="M310.75,4.91c-.04-1.2,.64-2.12,1.9-2.12,.96,0,1.8,.62,1.8,1.64,0,1.59-1.69,1.71-2.45,2.79h2.48v.92h-3.85c0-1.22,.75-1.72,1.65-2.34,.46-.32,1.1-.64,1.1-1.28,.03-.41-.28-.78-.7-.81-.03,0-.06,0-.09,0-.63,0-.83,.65-.83,1.21h-1.02Z"/><path class="cls-3" d="M330.32,8.14h-1.19v-3.82h-1.48v-.91c.83,.02,1.59-.27,1.72-1.17h.95v5.89Z"/><path class="cls-3" d="M328.94,18.05c.51,.04,1.25-.06,1.25-.73,0-.43-.35-.78-.78-.77-.02,0-.04,0-.06,0-.61,0-.92,.44-.91,1.05h-1.14c.04-1.21,.82-2.03,2.04-2.03,.94,0,1.97,.58,1.97,1.63,.04,.54-.3,1.03-.82,1.2v.02c.63,.13,1.07,.7,1.04,1.34,0,1.24-1.04,1.93-2.19,1.93-1.32,0-2.21-.79-2.19-2.14h1.14c.03,.64,.35,1.15,1.03,1.15,.5,.03,.93-.35,.96-.85,0-.02,0-.05,0-.07,0-.89-.78-.87-1.36-.87v-.84Z"/><path class="cls-3" d="M331.23,30.47h-2.43l-.23,1.34,.02,.02c.3-.31,.72-.48,1.15-.46,1.15,0,1.82,.9,1.82,2,0,1.18-.96,2.13-2.14,2.12h-.04c-1.15,0-2.16-.63-2.19-1.87h1.2c.03,.51,.46,.9,.97,.88,.62,0,1.02-.55,1.02-1.14s-.38-1.1-1.02-1.1c-.36-.03-.71,.15-.9,.46h-1.08l.58-3.24h3.29v.98Z"/><path class="cls-3" d="M328.44,60.5c.05,.4,.39,.71,.79,.73,.87,0,1.08-1.15,1.13-1.79l-.02-.02c-.29,.44-.8,.69-1.33,.65-.51,0-1-.23-1.35-.6-.3-.37-.47-.83-.46-1.31,0-1.2,.82-2.15,2.07-2.15,1.78,0,2.26,1.55,2.26,3.04s-.64,3.08-2.3,3.08c-1.02,0-1.78-.59-1.91-1.63h1.12Zm1.81-2.41c0-.55-.35-1.09-.95-1.09s-.9,.54-.9,1.08,.29,1.11,.9,1.11,.95-.51,.95-1.09Z"/><g><path class="cls-3" d="M327.98,75.43h-1.19v-3.82h-1.48v-.9c.83,.03,1.59-.27,1.72-1.17h.95v5.89Z"/><path class="cls-3" d="M332.66,75.43h-1.19v-3.82h-1.48v-.9c.83,.03,1.59-.27,1.72-1.17h.95v5.89Z"/></g><g><path class="cls-3" d="M327.98,116.28h-1.19v-3.82h-1.48v-.9c.83,.03,1.59-.27,1.72-1.17h.95v5.89Z"/><path class="cls-3" d="M333.7,111.42c-1.23,1.08-1.9,3.29-1.92,4.86h-1.28c.15-1.76,.84-3.42,1.98-4.77h-2.78v-1.11h4.01v1.03Z"/></g><g><path class="cls-3" d="M327.98,129.98h-1.19v-3.82h-1.48v-.9c.83,.03,1.59-.27,1.72-1.17h.95v5.88Z"/><path class="cls-3" d="M330.77,128.47c.05,.4,.38,.71,.79,.73,.87,0,1.08-1.15,1.13-1.79l-.02-.02c-.29,.44-.8,.69-1.33,.66-.52,0-1.01-.23-1.35-.61-.3-.37-.47-.83-.46-1.31,0-1.2,.82-2.15,2.06-2.15,1.78,0,2.26,1.56,2.26,3.05s-.64,3.08-2.3,3.08c-1.02,0-1.77-.59-1.91-1.63h1.13Zm1.81-2.41c0-.55-.34-1.09-.95-1.09s-.9,.54-.9,1.08,.29,1.11,.9,1.11,.95-.51,.95-1.09h0Z"/></g><g><path class="cls-3" d="M325,140.39c-.04-1.35,.72-2.38,2.14-2.38,1.08,0,2.02,.69,2.02,1.84,0,1.78-1.89,1.93-2.75,3.13h2.78v1.03h-4.32c0-1.38,.84-1.93,1.86-2.63,.51-.36,1.24-.71,1.24-1.44,.03-.47-.31-.87-.78-.91-.03,0-.07,0-.1,0-.7,0-.93,.73-.93,1.35h-1.14Z"/><path class="cls-3" d="M332.66,144.01h-1.19v-3.82h-1.48v-.9c.83,.03,1.59-.27,1.72-1.17h.95v5.89Z"/></g><g><path class="cls-3" d="M325,153.86c-.04-1.35,.72-2.38,2.14-2.38,1.08,0,2.02,.69,2.02,1.84,0,1.78-1.89,1.92-2.75,3.13h2.78v1.03h-4.32c0-1.37,.84-1.93,1.86-2.63,.51-.36,1.24-.71,1.24-1.44,.03-.47-.31-.87-.78-.91-.03,0-.07,0-.1,0-.7,0-.93,.73-.93,1.35h-1.14Z"/><path class="cls-3" d="M331.28,153.98c.51,.04,1.25-.06,1.25-.73,0-.43-.34-.78-.77-.79-.02,0-.04,0-.06,0-.61,0-.92,.45-.91,1.05h-1.14c.04-1.21,.82-2.04,2.03-2.04,.94,0,1.98,.58,1.98,1.63,.04,.54-.3,1.04-.82,1.2v.02c.63,.13,1.07,.69,1.04,1.34,0,1.24-1.04,1.93-2.19,1.93-1.32,0-2.21-.79-2.19-2.14h1.14c.03,.64,.35,1.15,1.03,1.15,.5,.03,.93-.35,.96-.85,0-.02,0-.05,0-.07,0-.89-.78-.88-1.36-.88v-.84Z"/></g><path class="cls-3" d="M312.81,20.34h-2.22v-.97l2.28-3.05h.95v3.15h.69v.88h-.69v1.21h-1.01v-1.22Zm0-2.7h-.02l-1.35,1.82h1.38v-1.82Z"/><rect class="cls-8" x="337.29" y="149.31" width="8.33" height="9.8" rx="1.39" ry="1.39"/><g><path class="cls-3" d="M311.33,75.43h-1.06v-3.4h-1.32v-.8c.74,.02,1.42-.23,1.54-1.04h.85v5.24Z"/><path class="cls-3" d="M312.83,72.2c-.04-1.2,.64-2.12,1.9-2.12,.96,0,1.8,.62,1.8,1.64,0,1.59-1.69,1.72-2.45,2.79h2.48v.92h-3.85c0-1.22,.75-1.72,1.66-2.34,.46-.32,1.1-.64,1.1-1.28,.03-.41-.28-.78-.7-.81-.03,0-.06,0-.09,0-.63,0-.83,.65-.83,1.2h-1.02Z"/></g><g><path class="cls-3" d="M311.33,102.71h-1.06v-3.4h-1.32v-.8c.74,.02,1.42-.23,1.54-1.04h.85v5.24Z"/><path class="cls-3" d="M315.46,98.82c-.05-.36-.34-.63-.7-.65-.76,0-.98,1.02-1,1.59l.02,.02c.26-.39,.71-.62,1.18-.59,.46,0,.89,.2,1.2,.54,.27,.33,.41,.74,.41,1.17,0,1.07-.74,1.92-1.84,1.92-1.59,0-2.02-1.38-2.02-2.71s.57-2.74,2.07-2.74c.91,0,1.58,.52,1.7,1.45h-1.02Zm-1.61,2.15c0,.49,.31,.97,.85,.97s.8-.48,.8-.96-.25-.99-.8-.99-.84,.46-.84,.97h0Z"/></g><g><path class="cls-3" d="M311.33,116.28h-1.06v-3.4h-1.32v-.8c.74,.02,1.42-.23,1.54-1.04h.85v5.24Z"/><path class="cls-3" d="M314.65,110.94c1.3,0,1.75,.9,1.75,1.41,.03,.5-.29,.95-.76,1.1v.02c.6,.12,1.03,.67,.98,1.28,0,1.11-.98,1.65-1.96,1.65s-1.99-.51-1.99-1.64c-.04-.62,.38-1.16,.99-1.29v-.02c-.48-.13-.8-.58-.77-1.08,0-.94,.91-1.43,1.77-1.43Zm0,4.65c.48,.02,.88-.35,.9-.82,0-.02,0-.04,0-.06,0-.47-.38-.84-.85-.84-.02,0-.03,0-.05,0-.52,0-.92,.29-.92,.83,0,.49,.38,.89,.87,.9,.02,0,.04,0,.06,0h0Zm0-2.44c.44,0,.79-.23,.79-.69,0-.27-.13-.73-.79-.73-.4-.04-.76,.25-.8,.66,0,.02,0,.05,0,.07,0,.45,.37,.69,.8,.69h0Z"/></g><g><path class="cls-3" d="M308.67,140.78c-.04-1.2,.64-2.12,1.9-2.12,.96,0,1.8,.62,1.8,1.64,0,1.59-1.68,1.72-2.45,2.79h2.48v.92h-3.85c0-1.22,.75-1.72,1.65-2.34,.46-.32,1.1-.64,1.1-1.28,.03-.41-.28-.78-.7-.81-.03,0-.06,0-.09,0-.63,0-.83,.65-.83,1.2h-1.02Z"/><path class="cls-3" d="M312.83,140.78c-.04-1.2,.64-2.12,1.9-2.12,.96,0,1.8,.62,1.8,1.64,0,1.59-1.69,1.72-2.45,2.79h2.48v.92h-3.85c0-1.22,.75-1.72,1.66-2.34,.46-.32,1.1-.64,1.1-1.28,.03-.41-.28-.78-.7-.81-.03,0-.06,0-.09,0-.63,0-.83,.65-.83,1.2h-1.02Z"/></g><path class="cls-3" d="M313.38,31.48c-.05-.36-.34-.63-.7-.65-.76,0-.98,1.02-1,1.59v.02c.28-.39,.73-.62,1.2-.59,.46,0,.89,.2,1.2,.54,.27,.33,.41,.74,.41,1.17,0,1.07-.74,1.92-1.84,1.92-1.59,0-2.01-1.38-2.01-2.71s.57-2.74,2.06-2.74c.91,0,1.58,.52,1.7,1.45h-1Zm-1.61,2.15c0,.49,.31,.97,.85,.97s.8-.48,.8-.96-.25-.99-.8-.99-.84,.46-.84,.97h0Z"/><polygon class="cls-8" points="297.83 0 286.44 0 280.74 4.91 286.44 9.8 297.83 9.8 303.53 4.91 297.83 0"/><g><path class="cls-3" d="M289.56,6.69c-.34,.47-.89,.74-1.47,.73-1.65,0-2.63-1.23-2.63-2.78s.98-2.82,2.63-2.82c1.09,0,2.14,.67,2.26,1.89h-1.13c-.09-.54-.58-.93-1.13-.9-1.05,0-1.45,.9-1.45,1.84,0,.89,.4,1.79,1.45,1.79,.77,0,1.21-.41,1.27-1.15h-1.18v-.88h2.25v2.88h-.75l-.12-.61Z"/><path class="cls-3" d="M291.38,1.95h1.17l2.23,3.59h.01V1.95h1.1V7.3h-1.17l-2.23-3.58h-.01v3.58h-1.1V1.95Z"/><path class="cls-3" d="M296.93,1.95h2.3c1.38,0,2.43,.88,2.43,2.64,0,1.55-.79,2.7-2.43,2.7h-2.3V1.95Zm1.17,4.36h1.05c.69,0,1.33-.42,1.33-1.61,0-1.08-.38-1.77-1.54-1.77h-.84v3.38Z"/></g><polygon class="cls-8" points="344.5 149.31 355.88 149.31 361.58 154.21 355.88 159.11 344.5 159.11 338.8 154.21 344.5 149.31"/><g><path class="cls-3" d="M344.61,156c-.34,.46-.89,.74-1.46,.73-1.65,0-2.63-1.23-2.63-2.78s.98-2.82,2.63-2.82c1.09,0,2.14,.67,2.26,1.89h-1.12c-.1-.54-.58-.93-1.13-.9-1.06,0-1.45,.9-1.45,1.84,0,.89,.4,1.79,1.45,1.79,.77,0,1.2-.41,1.27-1.15h-1.18v-.88h2.25v2.89h-.75l-.12-.62Z"/><path class="cls-3" d="M346.42,151.26h1.17l2.23,3.59h.02v-3.59h1.1v5.35h-1.18l-2.22-3.58h-.02v3.58h-1.1v-5.35Z"/><path class="cls-3" d="M351.97,151.26h2.3c1.38,0,2.43,.88,2.43,2.64,0,1.55-.79,2.7-2.43,2.7h-2.3v-5.35Zm1.18,4.36h1.05c.69,0,1.33-.42,1.33-1.61,0-1.08-.38-1.77-1.54-1.77h-.84v3.38Z"/></g><path class="cls-3" d="M312.56,43.5c1.3,0,1.75,.9,1.75,1.41,.03,.5-.29,.95-.76,1.1v.03c.6,.12,1.02,.67,.98,1.28,0,1.11-.98,1.65-1.96,1.65s-1.99-.51-1.99-1.64c-.04-.62,.38-1.16,.99-1.29v-.02c-.48-.13-.8-.58-.77-1.08,0-.96,.91-1.44,1.77-1.44Zm0,4.65c.48,.02,.88-.35,.9-.82,0-.02,0-.04,0-.06,0-.47-.39-.84-.86-.84h-.04c-.52,0-.92,.29-.92,.83,0,.49,.39,.89,.88,.89,.02,0,.03,0,.05,0h0Zm0-2.43c.44,0,.79-.23,.79-.69,0-.27-.13-.73-.79-.73-.4-.04-.76,.25-.8,.66,0,.02,0,.05,0,.07,0,.45,.37,.69,.8,.69h0Z"/><rect class="cls-7" x="337.31" y="0" width="8.33" height="9.8" rx="1.39" ry="1.39"/><g><path class="cls-3" d="M311.33,62.01h-1.06v-3.4h-1.32v-.8c.74,.02,1.42-.23,1.54-1.04h.85v5.24Z"/><path class="cls-3" d="M314.63,56.67c1.05,0,1.93,.66,1.93,2.7s-.88,2.75-1.93,2.75-1.92-.66-1.92-2.75c0-2.05,.88-2.7,1.92-2.7Zm0,4.58c.87,0,.87-1.28,.87-1.87,0-.55,0-1.83-.87-1.83s-.85,1.28-.85,1.83c0,.59,0,1.87,.85,1.87Z"/></g><g><path class="cls-3" d="M311.33,89.25h-1.06v-3.4h-1.32v-.8c.74,.02,1.42-.23,1.54-1.04h.85v5.24Z"/><path class="cls-3" d="M314.89,88.03h-2.22v-.97l2.28-3.06h.95v3.15h.69v.88h-.69v1.21h-1.01v-1.21Zm0-2.69h-.02l-1.36,1.82h1.38v-1.82Z"/></g><g><path class="cls-3" d="M308.67,126.75c-.04-1.2,.64-2.12,1.9-2.12,.96,0,1.8,.61,1.8,1.64,0,1.59-1.68,1.71-2.45,2.79h2.48v.92h-3.85c0-1.22,.75-1.72,1.65-2.34,.46-.32,1.1-.64,1.1-1.28,.03-.41-.28-.78-.7-.81-.03,0-.06,0-.09,0-.63,0-.83,.65-.83,1.21h-1.02Z"/><path class="cls-3" d="M314.63,124.63c1.05,0,1.93,.66,1.93,2.7s-.88,2.75-1.93,2.75-1.92-.66-1.92-2.75c0-2.04,.88-2.7,1.92-2.7Zm0,4.57c.87,0,.87-1.28,.87-1.87,0-.55,0-1.83-.87-1.83s-.85,1.28-.85,1.83c0,.59,0,1.87,.85,1.87Z"/></g><g><path class="cls-3" d="M308.67,154.2c-.04-1.2,.64-2.12,1.9-2.12,.96,0,1.8,.62,1.8,1.64,0,1.59-1.68,1.72-2.45,2.79h2.48v.92h-3.85c0-1.22,.75-1.72,1.66-2.34,.46-.32,1.1-.64,1.1-1.28,.03-.41-.28-.78-.69-.81-.03,0-.06,0-.09,0-.63,0-.83,.65-.83,1.2h-1.02Z"/><path class="cls-3" d="M314.89,156.22h-2.22v-.97l2.28-3.05h.95v3.15h.69v.88h-.69v1.21h-1.01v-1.21Zm0-2.69h-.02l-1.35,1.82h1.38v-1.82Z"/></g><path class="cls-3" d="M331.37,43.98c-1.24,1.08-1.9,3.29-1.93,4.86h-1.27c.15-1.76,.84-3.43,1.98-4.78h-2.8v-1.11h4.02v1.03Z"/><polygon class="cls-7" points="352.01 0 342.15 0 337.22 4.91 342.15 9.81 352.01 9.81 356.95 4.91 352.01 0"/><g><path class="cls-3" d="M340.45,1.95h1.17l2.23,3.59h.02V1.95h1.1V7.3h-1.18l-2.23-3.58h-.01v3.58h-1.1V1.95Z"/><path class="cls-3" d="M349.56,3.75c-.11-.55-.6-.95-1.17-.94-1.06,0-1.45,.9-1.45,1.84,0,.89,.4,1.79,1.45,1.79,.72,0,1.12-.49,1.21-1.2h1.15c-.12,1.34-1.03,2.19-2.35,2.19-1.65,0-2.63-1.23-2.63-2.78s.98-2.82,2.63-2.82c1.17,0,2.16,.69,2.3,1.93h-1.15Z"/></g><rect class="cls-7" x="337.31" y="13.42" width="8.33" height="9.8" rx="1.39" ry="1.39"/><polygon class="cls-7" points="352.01 13.42 342.15 13.42 337.22 18.32 342.15 23.22 352.01 23.22 356.95 18.32 352.01 13.42"/><g><path class="cls-3" d="M340.45,15.36h1.17l2.23,3.59h.02v-3.59h1.1v5.35h-1.18l-2.23-3.58h-.01v3.58h-1.1v-5.35Z"/><path class="cls-3" d="M349.56,17.16c-.11-.55-.6-.95-1.17-.94-1.06,0-1.45,.9-1.45,1.84,0,.89,.4,1.79,1.45,1.79,.72,0,1.12-.49,1.21-1.2h1.15c-.12,1.34-1.03,2.19-2.35,2.19-1.65,0-2.63-1.23-2.63-2.78s.98-2.82,2.63-2.82c1.17,0,2.16,.69,2.3,1.93h-1.15Z"/></g><rect class="cls-7" x="337.31" y="27.24" width="8.33" height="9.8" rx="1.39" ry="1.39"/><polygon class="cls-7" points="352.01 27.24 342.15 27.24 337.22 32.15 342.15 37.04 352.01 37.04 356.95 32.15 352.01 27.24"/><g><path class="cls-3" d="M340.45,29.19h1.17l2.23,3.59h.02v-3.59h1.1v5.35h-1.18l-2.23-3.58h-.01v3.58h-1.1v-5.35Z"/><path class="cls-3" d="M349.56,30.99c-.11-.55-.6-.95-1.17-.94-1.06,0-1.45,.9-1.45,1.84,0,.89,.4,1.79,1.45,1.79,.72,0,1.12-.49,1.21-1.2h1.15c-.12,1.34-1.03,2.19-2.35,2.19-1.65,0-2.63-1.24-2.63-2.78s.98-2.82,2.63-2.82c1.17,0,2.16,.69,2.3,1.93h-1.15Z"/></g><rect class="cls-7" x="296.61" y="27.24" width="8.33" height="9.8" rx="1.39" ry="1.39"/><polygon class="cls-7" points="290.16 27.24 300.02 27.24 304.95 32.15 300.02 37.05 290.16 37.05 285.23 32.15 290.16 27.24"/><g><path class="cls-3" d="M291.67,29.19h1.17l2.23,3.59h.01v-3.59h1.1v5.35h-1.18l-2.23-3.58h-.02v3.58h-1.1v-5.35Z"/><path class="cls-3" d="M300.78,30.99c-.11-.55-.6-.95-1.17-.94-1.05,0-1.45,.9-1.45,1.84,0,.89,.4,1.79,1.45,1.79,.72,0,1.12-.49,1.21-1.2h1.14c-.12,1.34-1.03,2.19-2.35,2.19-1.65,0-2.63-1.23-2.63-2.78s.98-2.82,2.63-2.82c1.17,0,2.17,.69,2.3,1.93h-1.14Z"/></g><rect class="cls-7" x="296.61" y="13.62" width="8.33" height="9.8" rx="1.39" ry="1.39"/><polygon class="cls-7" points="290.16 13.63 300.02 13.63 304.95 18.53 300.02 23.43 290.16 23.43 285.23 18.53 290.16 13.63"/><g><path class="cls-3" d="M291.67,15.57h1.17l2.23,3.59h.01v-3.59h1.1v5.35h-1.18l-2.23-3.58h-.02v3.58h-1.1v-5.35Z"/><path class="cls-3" d="M300.78,17.37c-.11-.56-.61-.95-1.17-.94-1.05,0-1.45,.9-1.45,1.84,0,.89,.4,1.79,1.45,1.79,.72,0,1.12-.49,1.21-1.2h1.14c-.12,1.34-1.03,2.19-2.35,2.19-1.65,0-2.63-1.23-2.63-2.78s.98-2.82,2.63-2.82c1.17,0,2.17,.69,2.3,1.93h-1.13Z"/></g><rect class="cls-7" x="296.62" y="80.83" width="8.33" height="9.8" rx="1.39" ry="1.39"/><polygon class="cls-7" points="290.17 80.83 300.03 80.83 304.97 85.74 300.03 90.63 290.17 90.63 285.24 85.74 290.17 80.83"/><g><path class="cls-3" d="M291.68,82.78h1.17l2.23,3.59h.01v-3.59h1.1v5.35h-1.17l-2.23-3.58h-.01v3.58h-1.1v-5.35Z"/><path class="cls-3" d="M300.79,84.57c-.11-.55-.61-.95-1.17-.94-1.05,0-1.45,.9-1.45,1.84,0,.89,.4,1.79,1.45,1.79,.72,0,1.12-.49,1.21-1.2h1.14c-.12,1.34-1.03,2.19-2.35,2.19-1.65,0-2.63-1.24-2.63-2.78s.98-2.82,2.63-2.82c1.17,0,2.17,.69,2.3,1.92h-1.13Z"/></g><rect class="cls-7" x="296.62" y="121.84" width="8.33" height="9.8" rx="1.39" ry="1.39"/><polygon class="cls-7" points="290.17 121.84 300.03 121.84 304.97 126.75 300.03 131.65 290.17 131.65 285.24 126.75 290.17 121.84"/><g><path class="cls-3" d="M291.68,123.79h1.17l2.23,3.59h.01v-3.59h1.1v5.35h-1.17l-2.23-3.58h-.01v3.58h-1.1v-5.35Z"/><path class="cls-3" d="M300.79,125.59c-.11-.55-.6-.95-1.17-.94-1.05,0-1.45,.9-1.45,1.84,0,.89,.4,1.79,1.45,1.79,.72,0,1.12-.49,1.21-1.2h1.14c-.12,1.34-1.03,2.19-2.35,2.19-1.65,0-2.63-1.23-2.63-2.78s.98-2.82,2.63-2.82c1.17,0,2.17,.69,2.3,1.93h-1.13Z"/></g><rect class="cls-7" x="296.62" y="135.8" width="8.33" height="9.8" rx="1.39" ry="1.39"/><polygon class="cls-7" points="290.17 135.8 300.03 135.8 304.97 140.71 300.03 145.6 290.17 145.6 285.24 140.71 290.17 135.8"/><g><path class="cls-3" d="M291.68,137.75h1.17l2.23,3.59h.01v-3.59h1.1v5.35h-1.17l-2.23-3.58h-.01v3.58h-1.1v-5.35Z"/><path class="cls-3" d="M300.79,139.55c-.11-.55-.6-.95-1.17-.94-1.05,0-1.45,.9-1.45,1.84,0,.89,.4,1.79,1.45,1.79,.72,0,1.12-.49,1.21-1.2h1.14c-.12,1.34-1.03,2.19-2.35,2.19-1.65,0-2.63-1.23-2.63-2.78s.98-2.82,2.63-2.82c1.17,0,2.17,.69,2.3,1.93h-1.13Z"/></g><rect class="cls-7" x="296.62" y="149.31" width="8.33" height="9.8" rx="1.39" ry="1.39"/><polygon class="cls-7" points="290.17 149.31 300.03 149.31 304.97 154.21 300.03 159.11 290.17 159.11 285.24 154.21 290.17 149.31"/><g><path class="cls-3" d="M291.68,151.26h1.17l2.23,3.59h.01v-3.59h1.1v5.35h-1.17l-2.23-3.58h-.01v3.58h-1.1v-5.35Z"/><path class="cls-3" d="M300.79,153.05c-.11-.55-.6-.95-1.17-.94-1.05,0-1.45,.9-1.45,1.84,0,.89,.4,1.79,1.45,1.79,.72,0,1.12-.49,1.21-1.2h1.14c-.12,1.34-1.03,2.19-2.35,2.19-1.65,0-2.63-1.23-2.63-2.78s.98-2.82,2.63-2.82c1.17,0,2.17,.69,2.3,1.93h-1.13Z"/></g><polygon class="cls-7" points="352.01 67.7 342.15 67.7 337.22 72.61 342.15 77.5 352.01 77.5 356.95 72.61 352.01 67.7"/><rect class="cls-7" x="337.29" y="67.73" width="8.33" height="9.8" rx="1.39" ry="1.39"/><g><path class="cls-3" d="M340.45,69.65h1.17l2.23,3.59h.02v-3.59h1.1v5.35h-1.18l-2.23-3.58h-.01v3.58h-1.1v-5.35Z"/><path class="cls-3" d="M349.56,71.44c-.11-.55-.6-.95-1.17-.94-1.06,0-1.45,.9-1.45,1.84,0,.89,.4,1.79,1.45,1.79,.72,0,1.12-.49,1.21-1.2h1.15c-.12,1.34-1.03,2.19-2.35,2.19-1.65,0-2.63-1.23-2.63-2.78s.98-2.82,2.63-2.82c1.17,0,2.16,.69,2.3,1.93h-1.15Z"/></g><rect class="cls-7" x="337.29" y="121.83" width="8.33" height="9.8" rx="1.39" ry="1.39"/><polygon class="cls-7" points="352.01 121.85 342.15 121.85 337.22 126.76 342.15 131.66 352.01 131.66 356.95 126.76 352.01 121.85"/><g><path class="cls-3" d="M340.45,123.8h1.17l2.23,3.59h.02v-3.59h1.1v5.35h-1.18l-2.23-3.58h-.01v3.58h-1.1v-5.35Z"/><path class="cls-3" d="M349.56,125.6c-.11-.55-.6-.95-1.17-.94-1.06,0-1.45,.9-1.45,1.84,0,.89,.4,1.79,1.45,1.79,.72,0,1.12-.49,1.21-1.2h1.15c-.12,1.34-1.03,2.19-2.35,2.19-1.65,0-2.63-1.24-2.63-2.78s.98-2.82,2.63-2.82c1.17,0,2.16,.69,2.3,1.93h-1.15Z"/></g><rect class="cls-7" x="337.29" y="136" width="8.33" height="9.8" rx="1.39" ry="1.39"/><polygon class="cls-7" points="352.01 136.03 342.15 136.03 337.22 140.93 342.15 145.83 352.01 145.83 356.95 140.93 352.01 136.03"/><g><path class="cls-3" d="M340.45,137.97h1.17l2.23,3.59h.02v-3.59h1.1v5.35h-1.18l-2.23-3.58h-.01v3.58h-1.1v-5.35Z"/><path class="cls-3" d="M349.56,139.78c-.11-.55-.6-.95-1.17-.94-1.06,0-1.45,.9-1.45,1.84,0,.89,.4,1.79,1.45,1.79,.72,0,1.12-.49,1.21-1.2h1.15c-.12,1.34-1.03,2.19-2.35,2.19-1.65,0-2.63-1.23-2.63-2.78s.98-2.82,2.63-2.82c1.17,0,2.16,.69,2.3,1.93h-1.15Z"/></g><g><path class="cls-3" d="M327.98,89.25h-1.19v-3.82h-1.48v-.9c.83,.03,1.59-.27,1.72-1.17h.95v5.89Z"/><path class="cls-3" d="M331.28,85.74c.51,.04,1.25-.06,1.25-.73,0-.43-.34-.78-.77-.79-.02,0-.04,0-.06,0-.61,0-.92,.45-.91,1.05h-1.14c.04-1.21,.82-2.03,2.03-2.03,.94,0,1.98,.58,1.98,1.63,.04,.54-.3,1.04-.82,1.2v.02c.63,.13,1.07,.7,1.04,1.34,0,1.23-1.04,1.93-2.19,1.93-1.32,0-2.21-.79-2.19-2.14h1.14c.03,.64,.35,1.15,1.03,1.15,.5,.03,.93-.35,.96-.85,0-.02,0-.05,0-.07,0-.89-.78-.88-1.36-.88v-.84Z"/></g><g><path class="cls-3" d="M327.98,102.71h-1.19v-3.82h-1.48v-.9c.83,.03,1.59-.27,1.72-1.17h.95v5.89Z"/><path class="cls-3" d="M333.56,97.81h-2.43l-.23,1.34,.02,.02c.3-.31,.72-.48,1.15-.46,1.15,0,1.82,.9,1.82,2,0,1.18-.96,2.12-2.14,2.12h-.05c-1.15,0-2.16-.63-2.19-1.87h1.19c.03,.51,.46,.9,.97,.88,.62,0,1.02-.55,1.02-1.13s-.38-1.1-1.02-1.1c-.36-.03-.71,.15-.9,.46h-1.08l.58-3.25h3.29v1Z"/></g><rect class="cls-2" x="296.62" y="108.19" width="8.33" height="9.8" rx="1.39" ry="1.39"/><path class="cls-2" d="M273.87,108.19h23.3c3.21,0,5.81,.62,5.81,1.39v7.03c0,.77-2.6,1.39-5.81,1.39h-23.3c-3.21,0-5.81-.62-5.81-1.39v-7.03c0-.77,2.6-1.39,5.81-1.39Z"/><polygon class="cls-2" points="269.05 108.19 278.91 108.19 283.85 113.09 278.91 117.99 269.05 117.99 264.12 113.09 269.05 108.19"/><g><path class="cls-3" d="M271.16,110.15h1.2v5.44h-1.2v-5.44Z"/><path class="cls-3" d="M273.16,112.31c-.04-1.22,.65-2.16,1.93-2.16,.97,0,1.83,.62,1.83,1.67,0,1.61-1.71,1.74-2.49,2.84h2.52v.93h-3.91c0-1.24,.76-1.75,1.68-2.38,.46-.33,1.12-.65,1.12-1.3,0-.51-.33-.82-.8-.82-.64,0-.85,.66-.85,1.23h-1.04Z"/><path class="cls-3" d="M281.25,111.98c-.08-.54-.6-.95-1.19-.95-1.07,0-1.48,.91-1.48,1.87s.4,1.82,1.48,1.82c.73,0,1.14-.49,1.23-1.22h1.16c-.12,1.36-1.05,2.22-2.39,2.22-1.68,0-2.67-1.26-2.67-2.83s1-2.87,2.67-2.87c1.19,0,2.2,.7,2.35,1.96h-1.16Z"/><path class="cls-3" d="M282.74,116.16h3.81v.38h-3.81v-.38Z"/><path class="cls-3" d="M287.89,113.79c0,.72,.56,1,1.2,1,.42,0,1.06-.12,1.06-.68,0-.59-.82-.68-1.61-.9-.81-.2-1.62-.54-1.62-1.54,0-1.12,1.05-1.65,2.03-1.65,1.13,0,2.18,.5,2.18,1.75h-1.16c-.04-.65-.5-.82-1.07-.82-.38,0-.82,.16-.82,.62,0,.42,.26,.48,1.62,.82,.4,.09,1.61,.36,1.61,1.58,0,1-.78,1.74-2.26,1.74-1.2,0-2.34-.59-2.31-1.93h1.16Z"/><path class="cls-3" d="M295.63,111.98c-.08-.54-.6-.95-1.19-.95-1.07,0-1.48,.91-1.48,1.87s.4,1.82,1.48,1.82c.73,0,1.14-.49,1.23-1.22h1.16c-.12,1.36-1.05,2.22-2.39,2.22-1.68,0-2.67-1.26-2.67-2.83s1-2.87,2.67-2.87c1.19,0,2.2,.7,2.35,1.96h-1.16Z"/><path class="cls-3" d="M297.65,110.15h1.2v4.43h2.65v1h-3.85v-5.44Z"/></g><rect class="cls-2" x="337.31" y="108.19" width="8.33" height="9.8" rx="1.39" ry="1.39"/><path class="cls-2" d="M368.39,117.99h-23.3c-3.21,0-5.81-.62-5.81-1.39v-7.03c0-.77,2.6-1.39,5.81-1.39h23.3c3.21,0,5.81,.62,5.81,1.39v7.03c0,.77-2.6,1.39-5.81,1.39Z"/><polygon class="cls-2" points="373.21 117.99 363.35 117.99 358.41 113.08 363.35 108.19 373.21 108.19 378.14 113.08 373.21 117.99"/><g><path class="cls-3" d="M340.35,110.15h1.2v5.44h-1.2v-5.44Z"/><path class="cls-3" d="M342.35,112.31c-.04-1.22,.65-2.16,1.93-2.16,.97,0,1.83,.62,1.83,1.67,0,1.61-1.71,1.74-2.49,2.84h2.52v.93h-3.91c0-1.24,.76-1.75,1.68-2.38,.46-.33,1.12-.65,1.12-1.3,0-.51-.33-.82-.8-.82-.64,0-.85,.66-.85,1.23h-1.04Z"/><path class="cls-3" d="M350.45,111.98c-.08-.54-.6-.95-1.19-.95-1.07,0-1.48,.91-1.48,1.87s.4,1.82,1.48,1.82c.73,0,1.14-.49,1.23-1.22h1.16c-.12,1.36-1.05,2.22-2.39,2.22-1.68,0-2.67-1.26-2.67-2.83s1-2.87,2.67-2.87c1.19,0,2.2,.7,2.35,1.96h-1.16Z"/><path class="cls-3" d="M351.94,116.16h3.81v.38h-3.81v-.38Z"/><path class="cls-3" d="M357.08,113.79c0,.72,.56,1,1.2,1,.42,0,1.06-.12,1.06-.68,0-.59-.82-.68-1.61-.9-.81-.2-1.62-.54-1.62-1.54,0-1.12,1.05-1.65,2.03-1.65,1.13,0,2.18,.5,2.18,1.75h-1.16c-.04-.65-.5-.82-1.07-.82-.38,0-.82,.16-.82,.62,0,.42,.26,.48,1.62,.82,.4,.09,1.61,.36,1.61,1.58,0,1-.78,1.74-2.26,1.74-1.2,0-2.34-.59-2.31-1.93h1.16Z"/><path class="cls-3" d="M361.2,110.15h2.35c1.41,0,2.47,.89,2.47,2.69,0,1.58-.81,2.75-2.47,2.75h-2.35v-5.44Zm1.2,4.43h1.07c.69,0,1.36-.43,1.36-1.63,0-1.1-.39-1.8-1.57-1.8h-.85v3.43Z"/><path class="cls-3" d="M368.33,110.15h1.23l2.03,5.44h-1.24l-.41-1.21h-2.03l-.43,1.21h-1.21l2.06-5.44Zm-.11,3.33h1.41l-.69-2h-.02l-.71,2Z"/></g><rect class="cls-2" x="296.62" y="40.87" width="8.33" height="9.8" rx="1.39" ry="1.39"/><path class="cls-2" d="M273.87,40.87h23.3c3.21,0,5.81,.62,5.81,1.39v7.03c0,.77-2.6,1.39-5.81,1.39h-23.3c-3.21,0-5.81-.62-5.81-1.39v-7.03c0-.77,2.6-1.39,5.81-1.39Z"/><polygon class="cls-2" points="265.05 40.87 274.91 40.87 279.85 45.78 274.91 50.68 265.05 50.68 260.12 45.78 265.05 40.87"/><g><path class="cls-3" d="M270.16,42.84h1.2v5.44h-1.2v-5.44Z"/><path class="cls-3" d="M272.16,44.99c-.04-1.22,.65-2.16,1.93-2.16,.97,0,1.83,.62,1.83,1.67,0,1.61-1.71,1.74-2.49,2.84h2.52v.93h-3.91c0-1.24,.76-1.75,1.68-2.38,.46-.33,1.12-.65,1.12-1.3,0-.51-.33-.82-.8-.82-.64,0-.85,.66-.85,1.23h-1.04Z"/><path class="cls-3" d="M280.25,44.67c-.08-.54-.6-.95-1.19-.95-1.07,0-1.48,.91-1.48,1.87s.4,1.82,1.48,1.82c.73,0,1.14-.49,1.23-1.22h1.16c-.12,1.36-1.05,2.22-2.39,2.22-1.68,0-2.67-1.26-2.67-2.83s1-2.87,2.67-2.87c1.19,0,2.2,.7,2.35,1.96h-1.16Z"/><path class="cls-3" d="M281.74,48.85h3.81v.38h-3.81v-.38Z"/><path class="cls-3" d="M286.89,46.47c0,.72,.56,1,1.2,1,.42,0,1.06-.12,1.06-.68,0-.59-.82-.68-1.61-.9-.81-.2-1.62-.54-1.62-1.54,0-1.12,1.05-1.65,2.03-1.65,1.13,0,2.18,.5,2.18,1.75h-1.16c-.04-.65-.5-.82-1.07-.82-.38,0-.82,.16-.82,.62,0,.42,.26,.48,1.62,.82,.4,.09,1.61,.36,1.61,1.58,0,1-.78,1.74-2.26,1.74-1.2,0-2.34-.59-2.31-1.93h1.16Z"/><path class="cls-3" d="M291.01,42.84h2.35c1.41,0,2.47,.89,2.47,2.69,0,1.58-.81,2.75-2.47,2.75h-2.35v-5.44Zm1.2,4.43h1.07c.69,0,1.36-.43,1.36-1.63,0-1.1-.39-1.8-1.57-1.8h-.85v3.43Z"/><path class="cls-3" d="M298.13,42.84h1.23l2.03,5.44h-1.24l-.41-1.21h-2.03l-.43,1.21h-1.21l2.06-5.44Zm-.11,3.33h1.41l-.69-2h-.02l-.71,2Z"/></g><rect class="cls-2" x="337.31" y="40.87" width="8.33" height="9.8" rx="1.39" ry="1.39"/><path class="cls-2" d="M368.39,50.68h-23.3c-3.21,0-5.81-.62-5.81-1.39v-7.03c0-.77,2.6-1.39,5.81-1.39h23.3c3.21,0,5.81,.62,5.81,1.39v7.03c0,.77-2.6,1.39-5.81,1.39Z"/><polygon class="cls-2" points="373.21 50.67 363.35 50.67 358.41 45.77 363.35 40.87 373.21 40.87 378.14 45.77 373.21 50.67"/><g><path class="cls-3" d="M340.35,42.84h1.2v5.44h-1.2v-5.44Z"/><path class="cls-3" d="M342.35,44.99c-.04-1.22,.65-2.16,1.93-2.16,.97,0,1.83,.62,1.83,1.67,0,1.61-1.71,1.74-2.49,2.84h2.52v.93h-3.91c0-1.24,.76-1.75,1.68-2.38,.46-.33,1.12-.65,1.12-1.3,0-.51-.33-.82-.8-.82-.64,0-.85,.66-.85,1.23h-1.04Z"/><path class="cls-3" d="M350.45,44.67c-.08-.54-.6-.95-1.19-.95-1.07,0-1.48,.91-1.48,1.87s.4,1.82,1.48,1.82c.73,0,1.14-.49,1.23-1.22h1.16c-.12,1.36-1.05,2.22-2.39,2.22-1.68,0-2.67-1.26-2.67-2.83s1-2.87,2.67-2.87c1.19,0,2.2,.7,2.35,1.96h-1.16Z"/><path class="cls-3" d="M351.94,48.85h3.81v.38h-3.81v-.38Z"/><path class="cls-3" d="M357.08,46.47c0,.72,.56,1,1.2,1,.42,0,1.06-.12,1.06-.68,0-.59-.82-.68-1.61-.9-.81-.2-1.62-.54-1.62-1.54,0-1.12,1.05-1.65,2.03-1.65,1.13,0,2.18,.5,2.18,1.75h-1.16c-.04-.65-.5-.82-1.07-.82-.38,0-.82,.16-.82,.62,0,.42,.26,.48,1.62,.82,.4,.09,1.61,.36,1.61,1.58,0,1-.78,1.74-2.26,1.74-1.2,0-2.34-.59-2.31-1.93h1.16Z"/><path class="cls-3" d="M364.83,44.67c-.08-.54-.6-.95-1.19-.95-1.07,0-1.48,.91-1.48,1.87s.4,1.82,1.48,1.82c.73,0,1.14-.49,1.23-1.22h1.16c-.12,1.36-1.05,2.22-2.39,2.22-1.68,0-2.67-1.26-2.67-2.83s1-2.87,2.67-2.87c1.19,0,2.2,.7,2.35,1.96h-1.16Z"/><path class="cls-3" d="M366.84,42.84h1.2v4.43h2.65v1h-3.85v-5.44Z"/></g><rect class="cls-12" x="296.62" y="94.89" width="8.33" height="9.8" rx="1.39" ry="1.39"/><rect class="cls-12" x="287.75" y="94.89" width="15.23" height="9.8"/><polygon class="cls-12" points="288.94 94.89 277.55 94.89 271.85 99.8 277.55 104.69 288.94 104.69 294.64 99.8 288.94 94.89"/><g><path class="cls-3" d="M281.29,102.57h-1.35l-1.77-5.44h1.23l1.21,3.82h.02l1.23-3.82h1.23l-1.8,5.44Z"/><path class="cls-3" d="M287.18,98.96c-.08-.54-.6-.95-1.19-.95-1.07,0-1.48,.91-1.48,1.87s.4,1.82,1.48,1.82c.73,0,1.14-.49,1.23-1.22h1.16c-.12,1.36-1.05,2.22-2.39,2.22-1.68,0-2.67-1.26-2.67-2.83s1-2.87,2.67-2.87c1.19,0,2.2,.7,2.35,1.96h-1.16Z"/><path class="cls-3" d="M292.82,98.96c-.08-.54-.6-.95-1.19-.95-1.07,0-1.48,.91-1.48,1.87s.4,1.82,1.48,1.82c.73,0,1.14-.49,1.23-1.22h1.16c-.12,1.36-1.05,2.22-2.39,2.22-1.67,0-2.67-1.26-2.67-2.83s1-2.87,2.67-2.87c1.19,0,2.2,.7,2.35,1.96h-1.16Z"/><path class="cls-3" d="M294.31,103.14h3.81v.38h-3.81v-.38Z"/><path class="cls-3" d="M301.1,102.57h-1.08v-3.46h-1.34v-.81c.75,.02,1.44-.24,1.56-1.06h.86v5.33Z"/></g><rect class="cls-12" x="337.51" y="54.17" width="8.33" height="9.8" rx="1.39" ry="1.39"/><rect class="cls-12" x="339.97" y="54.17" width="15.07" height="9.8"/><polygon class="cls-12" points="354.3 63.97 365.69 63.97 371.39 59.06 365.69 54.17 354.3 54.17 348.6 59.06 354.3 63.97"/><g><path class="cls-3" d="M343.51,61.85h-1.35l-1.77-5.44h1.23l1.21,3.82h.02l1.23-3.82h1.23l-1.8,5.44Z"/><path class="cls-3" d="M349.4,58.24c-.08-.54-.6-.95-1.19-.95-1.07,0-1.48,.91-1.48,1.87s.4,1.82,1.48,1.82c.73,0,1.14-.49,1.23-1.22h1.16c-.12,1.36-1.05,2.22-2.39,2.22-1.68,0-2.67-1.26-2.67-2.83s1-2.87,2.67-2.87c1.19,0,2.2,.7,2.35,1.96h-1.16Z"/><path class="cls-3" d="M355.04,58.24c-.08-.54-.6-.95-1.19-.95-1.07,0-1.48,.91-1.48,1.87s.4,1.82,1.48,1.82c.73,0,1.14-.49,1.23-1.22h1.16c-.12,1.36-1.05,2.22-2.39,2.22-1.67,0-2.67-1.26-2.67-2.83s1-2.87,2.67-2.87c1.19,0,2.2,.7,2.35,1.96h-1.16Z"/><path class="cls-3" d="M356.53,62.42h3.81v.38h-3.81v-.38Z"/><path class="cls-3" d="M363.32,61.85h-1.08v-3.46h-1.34v-.81c.75,.02,1.44-.24,1.56-1.06h.86v5.33Z"/></g><polygon class="cls-15" points="345.6 86.44 350.08 91.34 359.06 91.34 363.55 86.44 359.06 81.53 350.08 81.53 345.6 86.44"/><rect class="cls-15" x="337.22" y="81.54" width="8.33" height="9.8" rx="1.39" ry="1.39"/><polygon class="cls-15" points="337.22 83.54 339.96 81.53 353.32 81.53 360 86.44 353.32 91.34 339.96 91.34 337.22 89.33 337.22 83.54"/><g><path class="cls-3" d="M340.98,83.73h1.2v5.44h-1.2v-5.44Z"/><path class="cls-3" d="M343.23,83.73h1.19l2.27,3.65h.02v-3.65h1.12v5.44h-1.2l-2.26-3.64h-.02v3.64h-1.12v-5.44Z"/><path class="cls-3" d="M350.07,84.74h-1.63v-1h4.45v1h-1.63v4.43h-1.2v-4.43Z"/><path class="cls-3" d="M355.97,89.17h-1.08v-3.46h-1.34v-.81c.75,.02,1.44-.24,1.56-1.06h.86v5.33Z"/></g><polygon class="cls-15" points="345.6 99.49 350.08 104.38 359.06 104.38 363.55 99.49 359.06 94.58 350.08 94.58 345.6 99.49"/><rect class="cls-15" x="337.22" y="94.58" width="8.33" height="9.8" rx="1.39" ry="1.39"/><polygon class="cls-15" points="337.22 96.59 339.96 94.58 353.32 94.58 360 99.49 353.32 104.38 339.96 104.38 337.22 102.38 337.22 96.59"/><g><path class="cls-3" d="M340.98,96.78h1.2v5.44h-1.2v-5.44Z"/><path class="cls-3" d="M343.23,96.78h1.19l2.27,3.65h.02v-3.65h1.12v5.44h-1.2l-2.26-3.64h-.02v3.64h-1.12v-5.44Z"/><path class="cls-3" d="M350.07,97.79h-1.63v-1h4.45v1h-1.63v4.43h-1.2v-4.43Z"/><path class="cls-3" d="M353.27,98.94c-.04-1.22,.65-2.16,1.93-2.16,.97,0,1.83,.62,1.83,1.67,0,1.61-1.71,1.74-2.49,2.84h2.52v.93h-3.91c0-1.24,.76-1.75,1.68-2.38,.46-.33,1.12-.65,1.12-1.3,0-.51-.33-.82-.8-.82-.64,0-.85,.66-.85,1.23h-1.04Z"/></g><polygon class="cls-15" points="299.46 72.69 294.97 67.79 286 67.79 281.51 72.69 286 77.6 294.97 77.6 299.46 72.69"/><rect class="cls-15" x="296.61" y="67.79" width="8.33" height="9.8" rx="1.39" ry="1.39"/><polygon class="cls-15" points="304.94 75.59 302.21 77.6 288.85 77.6 282.17 72.69 288.85 67.79 302.21 67.79 304.94 69.8 304.94 75.59"/><g><path class="cls-3" d="M286.71,69.87h1.2v5.44h-1.2v-5.44Z"/><path class="cls-3" d="M288.95,69.87h1.19l2.27,3.65h.02v-3.65h1.12v5.44h-1.2l-2.26-3.64h-.02v3.64h-1.12v-5.44Z"/><path class="cls-3" d="M295.79,70.87h-1.63v-1h4.45v1h-1.63v4.43h-1.2v-4.43Z"/><path class="cls-3" d="M301.69,75.31h-1.08v-3.46h-1.34v-.81c.75,.02,1.44-.24,1.56-1.06h.86v5.33Z"/></g><polygon class="cls-15" points="298.01 59.39 293.52 54.49 284.55 54.49 280.06 59.39 284.55 64.3 293.52 64.3 298.01 59.39"/><rect class="cls-15" x="296.61" y="54.49" width="8.33" height="9.8" rx="1.39" ry="1.39"/><polygon class="cls-15" points="304.94 62.29 302.21 64.3 288.85 64.3 282.17 59.39 288.85 54.49 302.21 54.49 304.94 56.5 304.94 62.29"/><g><path class="cls-3" d="M285.99,56.57h1.2v5.44h-1.2v-5.44Z"/><path class="cls-3" d="M288.23,56.57h1.19l2.27,3.65h.02v-3.65h1.12v5.44h-1.2l-2.26-3.64h-.02v3.64h-1.12v-5.44Z"/><path class="cls-3" d="M295.07,57.57h-1.63v-1h4.45v1h-1.63v4.43h-1.2v-4.43Z"/><path class="cls-3" d="M298.27,58.72c-.04-1.22,.65-2.16,1.93-2.16,.97,0,1.83,.62,1.83,1.67,0,1.61-1.71,1.74-2.49,2.84h2.52v.93h-3.91c0-1.24,.76-1.75,1.68-2.38,.46-.33,1.12-.65,1.12-1.3,0-.51-.33-.82-.8-.82-.64,0-.85,.66-.85,1.23h-1.04Z"/></g></g><g class="cls-5"><path class="cls-11" d="M0,25.68v24.84H14.12c.62,0,1.23,.01,1.84,.04v17.64c-.61,.02-1.22,.04-1.84,.04H0v61.29H242.13V25.68H0ZM50.34,92.8c0,3.85-3.15,6.99-6.99,6.99h-3.85c-3.85,0-6.99-3.15-6.99-6.99V43.32c0-3.85,3.15-6.99,6.99-6.99h3.85c3.85,0,6.99,3.15,6.99,6.99v49.49Z"/><path class="cls-6" d="M20.93,59.34v-.95c0-7.53-6.3-13.64-14.07-13.64H0v5.77H6.41c5.04,0,9.14,3.97,9.14,8.86,0,4.89-4.09,8.86-9.14,8.86H0v4.75H6.86c7.77,0,14.07-6.11,14.07-13.64"/></g><g><path class="cls-17" d="M235.45,113.5h-23.47c-.13,0-.24-.11-.24-.24v-10c0-.13,.11-.24,.24-.24s.24,.11,.24,.24v9.76h22.98v-9.76c0-.13,.11-.24,.24-.24s.24,.11,.24,.24v10c0,.13-.11,.24-.24,.24Z"/><path class="cls-17" d="M235.45,49.55c-.13,0-.24-.11-.24-.24v-9.76h-22.98v9.76c0,.13-.11,.24-.24,.24s-.24-.11-.24-.24v-10c0-.13,.11-.24,.24-.24h23.47c.13,0,.24,.11,.24,.24v10c0,.13-.11,.24-.24,.24Z"/><g><path class="cls-17" d="M58.92,27.66h7.47c3.02,0,4.75,1.73,4.75,4.52,0,2.06-.89,3.42-2.81,4.03v.07c1.73,.58,2.29,1.85,2.41,4.45,.12,2.69,.42,3.37,.73,3.58v.09h-1.69c-.37-.26-.47-.89-.61-3.75-.14-2.9-1.15-3.72-3.58-3.72h-5.1v7.47h-1.57V27.66Zm6.93,7.94c2.43,0,3.67-1.19,3.67-3.28s-.94-3.28-3.46-3.28h-5.57v6.55h5.36Z"/><path class="cls-17" d="M78.7,27.66h1.78l6.37,16.74h-1.69l-1.94-5.27h-7.28l-1.97,5.27h-1.59l6.32-16.74Zm4.05,10.18l-2.29-6.25c-.35-.94-.84-2.43-.84-2.43h-.05s-.44,1.43-.82,2.43l-2.34,6.25h6.34Z"/><path class="cls-17" d="M88.53,27.66h1.57v8.92l9.04-8.92h2.04l-7,6.81,7.42,9.92h-1.87l-6.62-8.85-3,2.95v5.9h-1.57V27.66Z"/><path class="cls-17" d="M105.81,32.34h-3.37v-1.03c2.36-.12,3.46-.66,3.75-3.04h1.15v16.13h-1.52v-12.05Z"/><path class="cls-17" d="M115.46,37.18c2.18-1.31,3.67-2.11,3.67-4.45,0-2.15-1.36-3.42-3.46-3.42-1.12,0-2.04,.35-2.67,1.03-.63,.7-.98,1.69-1.01,3.16h-1.54c0-1.8,.52-3.11,1.43-4.03,.96-.96,2.36-1.45,3.89-1.45,3.02,0,4.92,2.01,4.92,4.66,0,3.21-2.29,4.33-4.66,5.73-1.85,1.1-3.89,2.34-4.21,4.56h8.66v1.4h-10.39c.07-4.12,2.86-5.69,5.38-7.21Z"/><path class="cls-17" d="M122.39,36.37c0-5.2,2.32-8.36,5.95-8.36s5.92,3.11,5.92,8.36-2.11,8.36-5.95,8.36-5.92-3.25-5.92-8.36Zm10.3,0c0-4.31-1.52-7.07-4.35-7.07s-4.38,2.67-4.38,7.07,1.52,7.05,4.38,7.05,4.35-2.65,4.35-7.05Z"/><path class="cls-17" d="M135.71,39.43h1.52c.09,2.57,1.73,3.96,4.14,3.96s3.84-1.33,3.84-3.51-1.45-3.37-3.96-3.37h-1.12v-1.24h1.1c2.2,0,3.44-1.17,3.44-2.97,0-1.94-1.43-3.04-3.32-3.04-2.32,0-3.63,1.66-3.63,3.84h-1.5c.02-2.95,1.92-5.08,5.17-5.08,2.69,0,4.78,1.61,4.78,4.28,0,1.83-.98,2.93-2.41,3.49v.07c2.04,.66,3,2.08,3,4.14,0,2.93-2.2,4.73-5.36,4.73s-5.66-1.99-5.69-5.29Z"/><path class="cls-17" d="M148.1,39.43h1.52c.09,2.57,1.73,3.96,4.14,3.96s3.84-1.33,3.84-3.51-1.45-3.37-3.96-3.37h-1.12v-1.24h1.1c2.2,0,3.44-1.17,3.44-2.97,0-1.94-1.43-3.04-3.32-3.04-2.32,0-3.63,1.66-3.63,3.84h-1.5c.02-2.95,1.92-5.08,5.17-5.08,2.69,0,4.78,1.61,4.78,4.28,0,1.83-.98,2.93-2.41,3.49v.07c2.04,.66,3,2.08,3,4.14,0,2.93-2.2,4.73-5.36,4.73s-5.66-1.99-5.69-5.29Z"/><path class="cls-17" d="M170.64,27.66h1.64l4.33,12.36c.37,1.03,.89,2.76,.89,2.76h.05s.54-1.8,.91-2.83l4.35-12.29h1.59l-6.06,16.74h-1.71l-5.99-16.74Z"/><path class="cls-17" d="M186.09,27.66h6.95c1.5,0,2.72,.42,3.56,1.22,.77,.7,1.22,1.73,1.22,3,0,1.9-.87,3.04-2.55,3.63v.07c1.92,.54,3.25,1.9,3.25,4.12,0,1.36-.42,2.46-1.22,3.28-.87,.89-2.22,1.43-3.96,1.43h-7.26V27.66Zm6.93,7.35c2.04,0,3.21-1.19,3.21-3.02s-1.22-2.95-3.16-2.95h-5.41v5.97h5.36Zm.23,7.96c1.29,0,2.22-.37,2.83-.96,.54-.54,.84-1.31,.84-2.29,0-2.13-1.47-3.35-3.67-3.35h-5.59v6.6h5.59Z"/></g><g><path class="cls-17" d="M188.44,52.35c1.43-1.59,3.77-2.15,7.09-2.15,4.78,0,8.26,2.04,8.26,5.97,0,2.81-1.85,4.35-4.17,4.61v-1.52c1.64-.14,2.86-1.26,2.86-3.07,0-3.14-2.93-4.52-7.35-4.49v.05c1.66,.96,2.6,2.46,2.6,4.38,0,2.95-2.22,5.08-5.22,5.08-3.04,.02-5.43-2.11-5.43-5.13,0-1.64,.52-2.79,1.36-3.72Zm4.03,7.37c2.39,0,4-1.52,4-3.7s-1.66-3.93-4.05-3.93-4.07,1.61-4.07,3.93,1.73,3.7,4.12,3.7Z"/><path class="cls-17" d="M194.62,65.2v5.99h-1.31v-5.99h1.31Z"/><path class="cls-17" d="M204.15,80.28v1.78l-16.74,6.37v-1.69l5.27-1.94v-7.28l-5.27-1.97v-1.59l16.74,6.32Zm-10.18,4.05l6.25-2.29c.94-.35,2.43-.84,2.43-.84v-.05s-1.43-.44-2.43-.82l-6.25-2.34v6.34Z"/><path class="cls-17" d="M193.8,95.69l5.71-4.05v1.69l-4.66,3.16v.05l4.66,3.16v1.64l-5.59-3.93-6.51,4.63v-1.71l5.45-3.77v-.05l-5.45-3.72v-1.64l6.39,4.54Z"/><path class="cls-17" d="M199.51,105.82v1.45h-12.1v-1.45h12.1Zm4.63,0v1.45h-2.06v-1.45h2.06Z"/><path class="cls-17" d="M191.18,111.3v1.47c-2.04,.21-2.86,1.62-2.86,3.56s.94,3.07,2.34,3.07,1.78-.75,2.34-3.23c.56-2.46,1.15-4.42,3.49-4.42,2.01,0,3.28,1.73,3.28,4.21,0,2.88-1.45,4.21-3.58,4.49v-1.45c1.57-.16,2.39-1.24,2.39-3.04s-.89-2.76-2.01-2.76c-1.38,0-1.71,1.15-2.25,3.46-.52,2.43-1.12,4.19-3.63,4.19-2.15,0-3.6-1.73-3.6-4.54,0-3.23,1.76-4.87,4.1-5.01Z"/></g><g><path class="cls-17" d="M121.44,87.43l-61.8,30.07V57.36l61.8,30.07Zm3.37,0L58.17,55V119.86l66.65-32.43Z"/><rect class="cls-17" x="63.6" y="91.81" width="42.69" height="1.47" transform="translate(-37.44 120.88) rotate(-60.48)"/><rect class="cls-17" x="57.27" y="92.36" width="47.23" height="1.47" transform="translate(-39.97 117.62) rotate(-60.48)"/><path class="cls-17" d="M92.72,78.86l.69-1.31c.19,.1,4.56,2.41,7.21,4.3,2.79,1.99,5.16,12.86,5.42,14.09l-1.44,.3c-.94-4.44-3.08-11.94-4.83-13.19-2.56-1.83-6.99-4.17-7.04-4.2"/><path class="cls-17" d="M81.69,97.54l1.28-.74c.88,1.52,2.88,2.95,4.99,2.74,2.65-.26,6.62,1.05,6.79,1.11l-.47,1.4s-3.84-1.27-6.18-1.04c-2.86,.28-5.33-1.6-6.41-3.47"/><path class="cls-17" d="M73.82,81.8c0-.18,.01-.37,.04-.57,.38-3.07,10.02-6.96,10.12-6.99,3.56-1.43,6.63,1.77,6.76,1.91l-1.07,1.01s-2.51-2.6-5.14-1.55c-4.21,1.69-9.05,4.53-9.21,5.81-.08,.68,.05,1.09,.22,1.18,.21,.12,.75-.02,1.47-.59,1.91-1.53,6.15-3.33,7.45-3.17,1.11,.14,3.19,1.39,3.59,1.64l-.77,1.26c-.9-.55-2.42-1.37-3-1.44-.7-.08-4.51,1.39-6.35,2.86-1.58,1.26-2.63,1-3.11,.73-.65-.36-1-1.11-1-2.09"/><path class="cls-17" d="M70.89,87.57c0-.32,.06-.62,.21-.9,.28-.53,.95-1.13,2.57-.93,3.32,.4,8.56,4.67,8.78,4.85l-.93,1.14c-1.42-1.16-5.62-4.24-8.02-4.53-.66-.08-1.02,.02-1.09,.15-.19,.38,.3,1.64,1.23,2.7,1.08,1.22,4.93,3.84,6.33,4.75l-.8,1.24c-.21-.14-5.21-3.39-6.64-5.01-.69-.79-1.64-2.23-1.64-3.47"/><path class="cls-17" d="M76.21,87.11c0-1.99,2.01-5.36,2.45-6.07l1.26,.77c-1.47,2.39-2.52,5.03-2.19,5.53,.33,.19,.68,.24,1.05,.13,.86-.27,1.79-1.39,2.55-3.08,.59-1.32,1.36-2.13,2.29-2.41,1.32-.4,2.53,.37,3.18,.78l-.79,1.24c-.63-.4-1.35-.8-1.97-.62-.5,.15-.96,.69-1.37,1.6-.96,2.14-2.15,3.48-3.46,3.88-.78,.24-1.56,.14-2.27-.29-.23-.14-.54-.42-.67-.95-.04-.16-.06-.33-.06-.52"/><rect class="cls-17" x="116.62" y="84.62" width="1.47" height="5.92"/><rect class="cls-17" x="113.01" y="82.87" width="1.47" height="9.13"/><rect class="cls-17" x="109.4" y="81.11" width="1.47" height="12.64"/><rect class="cls-17" x="105.8" y="79.36" width="1.47" height="16.15"/><rect class="cls-17" x="102.19" y="77.91" width="1.47" height="9.57"/><rect class="cls-17" x="98.58" y="75.85" width="1.47" height="6.01"/><rect class="cls-17" x="94.98" y="74.42" width="1.47" height="5.11"/><rect class="cls-17" x="87.77" y="70.59" width="1.48" height="4.79"/><rect class="cls-17" x="87.77" y="100.45" width="1.48" height="3.83"/><rect class="cls-17" x="84.16" y="68.83" width="1.47" height="6.1"/><rect class="cls-17" x="84.16" y="99.8" width="1.47" height="6.1"/><rect class="cls-17" x="80.55" y="67.41" width="1.48" height="8.84"/><rect class="cls-17" x="80.55" y="99.01" width="1.48" height="8.78"/><rect class="cls-17" x="76.95" y="65.3" width="1.47" height="12.95"/><rect class="cls-17" x="76.95" y="94.17" width="1.47" height="4.64"/><rect class="cls-17" x="76.95" y="105.38" width="1.47" height="3.94"/><rect class="cls-17" x="73.34" y="63.57" width="1.48" height="22.87"/><rect class="cls-17" x="73.34" y="91.48" width="1.48" height="13.91"/><rect class="cls-17" x="69.74" y="62.38" width="1.47" height="48.95"/><rect class="cls-17" x="66.13" y="60.06" width="1.47" height="54.75"/><rect class="cls-17" x="62.52" y="58.14" width="1.47" height="58.36"/></g><g><polygon class="cls-17" points="176.36 96.19 172.03 96.19 172.03 92.13 176.36 92.13 176.36 80.1 172.03 80.1 172.03 76.08 176.36 76.08 176.36 65.29 172.03 65.29 172.03 61 149.35 61 149.35 111.06 172.03 111.06 172.03 107.25 176.36 107.25 176.36 96.19"/><path class="cls-17" d="M145.54,50.31v1.74l-7.61,1.81h0l7.61,1.99v1.81l-7.61,1.92h0l7.61,1.85v1.78l-9.96-2.56v-1.78l7.61-1.99h0l-7.61-2.03v-1.81l9.96-2.74Z"/><path class="cls-17" d="M145.54,64.21v1.56h-1.49v-1.56h1.49Zm-2.74,0v1.56h-7.11v-1.56h7.11Z"/><path class="cls-17" d="M137.9,68.73c-.92,0-1.24,.78-1.24,1.64s0,1.67,.96,1.6,.92-1.17,1.21-2.35c.28-1.17,.64-2.31,2.1-2.31s2.1,1.71,2.1,3.02-.6,2.81-2.24,2.99v-1.64c.78,0,.96-.75,.96-1.46s0-1.32-.75-1.32-.89,1.17-1.14,2.35c-.25,1.17-.68,2.31-2.1,2.31s-2.35-1.71-2.35-3.2,.82-3.16,2.49-3.2v1.56Z"/><path class="cls-17" d="M145.54,74.88v4.69c0,1.92-.6,3.2-2.45,3.2-.91,.02-1.74-.52-2.1-1.35-.29,1.14-1.35,1.9-2.52,1.81-1.99,0-2.88-1.71-2.88-3.56v-4.8h9.96Zm-4.02,2.2v2.2c0,.78,.36,1.35,1.17,1.35s1.17-.71,1.17-1.49v-2.06h-2.35Zm-4.23,0v2.35c0,.85,.28,1.6,1.32,1.6s1.42-.6,1.42-1.56v-2.38h-2.74Z"/><path class="cls-17" d="M145.54,84.69v2.2h-8.29v4.84h-1.85v-7.11l10.13,.07Z"/><path class="cls-17" d="M145.79,97.42c.03,2.67-2.11,4.86-4.78,4.89-.16,0-.32,0-.48-.02-2.7,.23-5.08-1.77-5.31-4.47-.23-2.7,1.77-5.08,4.47-5.31,.28-.02,.56-.02,.83,0,2.66-.24,5.01,1.73,5.24,4.39,.02,.17,.02,.34,.02,.52Zm-8.61,0c0,1.96,1.67,2.7,3.34,2.7s3.56-.75,3.56-2.7-1.67-2.7-3.56-2.7-3.27,.71-3.27,2.7h-.07Z"/><path class="cls-17" d="M142.2,110.44c1.03-.21,1.76-1.12,1.74-2.17,0-1.96-1.67-2.7-3.56-2.7s-3.34,.75-3.34,2.7c0,1.24,1,2.26,2.24,2.28v2.1c-2.3-.06-4.11-1.96-4.06-4.26,0-.04,0-.08,0-.11-.11-2.63,1.92-4.85,4.55-4.97,.25-.01,.5,0,.75,.03,2.66-.24,5.01,1.73,5.24,4.39,.01,.16,.02,.32,.02,.48,.15,2.15-1.41,4.04-3.56,4.3l-.04-2.06Z"/><path class="cls-17" d="M145.54,113.99v2.17h-4.12l4.12,3.91v2.74l-3.91-3.91-6.04,4.27v-2.74l4.48-2.88-1.24-1.28h-3.24v-2.28h9.96Z"/></g><path class="cls-17" d="M239.73,98.94c0-.26-.22-.05-.3,.02l-2.21,1.94c-.1,.09-.1,.23,0,.32l2.21,1.94c.08,.07,.3,.23,.3,.02v-4.25Z"/></g><g id="slot-male-connector"><g class="cls-13"><g class="cls-9"><g><path class="cls-10" d="M214.52,44.47v-.89c.02-.81,.69-1.47,1.5-1.46h15.72c.81,0,1.46,.66,1.46,1.46v.89c.02,.81-.62,1.48-1.43,1.5-.01,0-.02,0-.04,0h-15.72c-.83,0-1.5-.67-1.5-1.5h0"/><path class="cls-10" d="M214.52,107.18v-.89c0-.83,.67-1.5,1.5-1.5h15.72c.81,0,1.47,.66,1.47,1.46,0,.01,0,.02,0,.04v.89c0,.81-.66,1.46-1.46,1.46h-15.72c-.82,0-1.48-.65-1.5-1.46"/><path class="cls-4" d="M228.27,110.14h1.57c.83,0,1.5-.67,1.5-1.5h0v-3.04c0-.61-.36-1.16-.93-1.39V46.9c.56-.22,.93-.76,.93-1.36v-3c0-.83-.67-1.5-1.5-1.5h-1.5c-.66,0-1.24,.44-1.43,1.07h-6c-.18-.62-.75-1.05-1.39-1.07h-1.54c-.83,0-1.5,.67-1.5,1.5h0v3.07c.05,.59,.44,1.09,1,1.29v57.17c-.6,.2-1,.76-1,1.39v3.04c0,.83,.67,1.5,1.5,1.5h1.54c.6,0,1.14-.37,1.36-.93h6c.23,.56,.78,.93,1.39,.93"/><path class="cls-1" d="M218.84,102.68V48.58c-.02-.41,.3-.77,.71-.79,.01,0,.02,0,.04,0h8.29c.43,0,.79,.35,.79,.79v54.09c-.02,.42-.37,.75-.79,.75h-8.29c-.41,0-.75-.34-.75-.75"/><path class="cls-10" d="M236.42,53.44v-1.72c.02-.24-.16-.44-.39-.46-.01,0-.02,0-.04,0h-1.54c-.23,.02-.41,.2-.43,.43h-4.18v1.75h4.18c-.08,.24,.05,.51,.3,.58,.04,.01,.09,.02,.13,.02h1.54c.24,0,.43-.19,.43-.43,0-.01,0-.02,0-.04"/><path class="cls-18" d="M228.49,53.23v-2.25c-.06-.21,.06-.43,.27-.49,.04-.01,.08-.02,.12-.01h.96c.22,0,.39,.18,.39,.39h0v2.25c0,.2-.16,.36-.36,.36-.01,0-.03,0-.04,0h-1.07c-.2,.02-.37-.12-.39-.32,0-.01,0-.02,0-.04"/><path class="cls-10" d="M211.05,53.44v-1.72c0-.26,.21-.46,.46-.46h1.5c.24,0,.43,.19,.43,.43h4.04v1.75h-4.04c.1,.21,0,.47-.21,.57-.07,.03-.14,.05-.22,.04h-1.5c-.26,0-.46-.21-.46-.46h0"/><path class="cls-18" d="M219.13,53.23v-2.25c0-.2-.15-.37-.36-.39h-1.11c-.2,0-.36,.16-.36,.36,0,.01,0,.03,0,.04v2.25c-.02,.18,.1,.34,.28,.36,.03,0,.05,0,.08,0h.96c.2,0,.36-.16,.36-.36"/><path class="cls-10" d="M236.42,57.62v-1.75c.02-.24-.16-.44-.39-.46-.01,0-.02,0-.04,0h-1.54c-.24,.02-.43,.22-.43,.46h-4.18v1.75h4.18c.02,.23,.2,.41,.43,.43h1.54c.24,0,.43-.19,.43-.43"/><path class="cls-18" d="M228.49,57.37v-2.25c0-.2,.16-.36,.36-.36,.01,0,.03,0,.04,0h.96c.2-.02,.37,.12,.39,.32,0,.01,0,.02,0,.04v2.25c-.05,.17-.22,.28-.39,.25h-1.07c-.2,.02-.37-.12-.39-.32,0-.01,0-.02,0-.04"/><path class="cls-10" d="M211.05,57.62v-1.75c0-.26,.21-.46,.46-.46h1.5c.24,0,.43,.19,.43,.43,0,.01,0,.02,0,.04h4.04v1.75h-4.04c0,.24-.19,.43-.43,.43h-1.5c-.24,0-.45-.19-.46-.43"/><path class="cls-18" d="M219.13,57.37v-2.25c0-.2-.16-.36-.36-.36h-1.11c-.18-.02-.34,.1-.36,.28,0,.03,0,.05,0,.08v2.25c-.02,.18,.1,.34,.28,.36,.03,0,.05,0,.08,0h.96c.2,0,.36-.16,.36-.36h0"/><path class="cls-10" d="M236.42,61.98v-1.72c0-.24-.19-.43-.43-.43h-1.54c-.24,0-.43,.19-.43,.43h-4.18v1.75h4.18c.02,.23,.2,.41,.43,.43h1.54c.24,0,.43-.19,.43-.43,0-.01,0-.02,0-.04"/><path class="cls-18" d="M228.49,61.77v-2.25c0-.2,.16-.36,.36-.36,.01,0,.03,0,.04,0h.96c.2-.02,.37,.12,.39,.32,0,.01,0,.02,0,.04v2.25c0,.2-.16,.36-.36,.36-.01,0-.03,0-.04,0h-1.07c-.2,.02-.37-.12-.39-.32,0-.01,0-.02,0-.04"/><path class="cls-10" d="M211.05,61.98v-1.72c0-.24,.19-.43,.43-.43,.01,0,.02,0,.04,0h1.5c.24,0,.43,.19,.43,.43h4.04v1.75h-4.04c0,.24-.19,.43-.43,.43h-1.5c-.26,0-.46-.21-.46-.46h0"/><path class="cls-18" d="M219.13,61.77v-2.25c0-.2-.16-.36-.36-.36h-1.11c-.18-.02-.34,.1-.36,.28,0,.03,0,.05,0,.08v2.25c-.02,.18,.1,.34,.28,.36,.03,0,.05,0,.08,0h.96c.2,0,.36-.16,.36-.36h0"/><path class="cls-10" d="M236.42,66.27v-1.5c.02-.24-.16-.44-.39-.46-.01,0-.02,0-.04,0h-1.54c-.24,0-.43,.19-.43,.43h-4.18v1.75h4.18c0,.24,.19,.43,.43,.43h1.54c.24,0,.43-.19,.43-.43,0-.01,0-.02,0-.04"/><path class="cls-18" d="M228.49,66.09v-2.29c.02-.2,.19-.36,.39-.36h.96c.2,0,.37,.15,.39,.36v2.29c-.02,.2-.19,.36-.39,.36h-1.07c-.2,0-.37-.15-.39-.36"/><path class="cls-10" d="M211.05,66.27v-1.5c0-.26,.21-.46,.46-.46h1.5c.24,0,.43,.19,.43,.43h4.04v1.75h-4.04c0,.24-.19,.43-.43,.43h-1.5c-.26,0-.46-.21-.46-.46h0"/><path class="cls-18" d="M219.13,66.09v-2.29c-.02-.19-.17-.34-.36-.36h-1.11c-.2,0-.36,.16-.36,.36h0v2.29c0,.2,.16,.36,.36,.36h.96c.19-.02,.34-.17,.36-.36"/><path class="cls-10" d="M236.42,70.48v-1.71c.02-.24-.16-.44-.39-.46-.01,0-.02,0-.04,0h-1.54c-.24,0-.43,.19-.43,.43h-4.18v1.75h4.18c0,.24,.19,.43,.43,.43h1.54c.24,0,.43-.19,.43-.43"/><path class="cls-18" d="M228.49,70.27v-2.29c.02-.2,.19-.36,.39-.36h.96c.2,0,.37,.15,.39,.36v2.29c-.02,.2-.19,.36-.39,.36h-1.07c-.2,0-.37-.15-.39-.36"/><path class="cls-10" d="M211.05,70.48v-1.71c.02-.24,.22-.43,.46-.43h1.5c.24,0,.43,.19,.43,.43h4.04v1.75h-4.04c0,.24-.19,.43-.43,.43h-1.5c-.24,.02-.44-.16-.46-.39,0-.01,0-.02,0-.04"/><path class="cls-18" d="M219.13,70.27v-2.29c-.02-.19-.17-.34-.36-.36h-1.11c-.2,0-.36,.16-.36,.36h0v2.29c0,.2,.16,.36,.36,.36h.96c.19-.02,.34-.17,.36-.36"/><path class="cls-10" d="M236.42,74.63v-1.71c.02-.24-.16-.44-.39-.46-.01,0-.02,0-.04,0h-1.54c-.23,.02-.41,.2-.43,.43h-4.18v1.75h4.18c0,.24,.19,.45,.43,.46h1.54c.24,0,.43-.19,.43-.43,0-.01,0-.02,0-.04"/><path class="cls-18" d="M228.49,74.41v-2.25c.06-.16,.22-.26,.39-.25h.96c.22,0,.39,.18,.39,.39v2.25c0,.2-.16,.36-.36,.36-.01,0-.03,0-.04,0h-1.07c-.2,.02-.37-.12-.39-.32,0-.01,0-.02,0-.04"/><path class="cls-10" d="M211.05,74.63v-1.71c0-.26,.21-.46,.46-.46h1.5c.24,0,.43,.19,.43,.43h4.04v1.75h-4.04c.02,.24-.16,.44-.39,.46-.01,0-.02,0-.04,0h-1.5c-.26,0-.46-.21-.46-.46h0"/><path class="cls-18" d="M219.13,74.41v-2.25c0-.2-.15-.37-.36-.39h-1.11c-.2,0-.36,.16-.36,.36,0,.01,0,.03,0,.04v2.25c-.02,.18,.1,.34,.28,.36,.03,0,.05,0,.08,0h.96c.2,0,.36-.16,.36-.36h0"/><path class="cls-10" d="M236.42,78.81v-1.68c.02-.24-.16-.44-.39-.46-.01,0-.02,0-.04,0h-1.54c-.24,0-.43,.19-.43,.43h-4.18v1.75h4.18c0,.24,.19,.43,.43,.43h1.54c.24,0,.43-.19,.43-.43,0-.01,0-.02,0-.04"/><path class="cls-18" d="M228.49,78.59v-2.25c0-.2,.16-.36,.36-.36,.01,0,.03,0,.04,0h.96c.2-.02,.37,.12,.39,.32,0,.01,0,.02,0,.04v2.25c.04,.21-.1,.42-.31,.46-.03,0-.05,0-.08,0h-1.07c-.22,0-.39-.18-.39-.39"/><path class="cls-10" d="M211.05,78.81v-1.68c0-.26,.21-.46,.46-.46h1.5c.24,0,.43,.19,.43,.43h4.04v1.75h-4.04c0,.24-.19,.43-.43,.43h-1.5c-.26,0-.46-.21-.46-.46h0"/><path class="cls-18" d="M219.13,78.59v-2.25c0-.2-.16-.36-.36-.36h-1.11c-.18-.02-.34,.1-.36,.28,0,.03,0,.05,0,.08v2.25c-.02,.2,.12,.37,.32,.39,.01,0,.02,0,.04,0h.96c.2-.02,.36-.19,.36-.39"/><path class="cls-10" d="M236.42,83.06v-1.68c.02-.24-.16-.44-.39-.46-.01,0-.02,0-.04,0h-1.54c-.24,0-.43,.19-.43,.43h-4.18v1.75h4.18c0,.24,.19,.43,.43,.43h1.54c.24,0,.43-.19,.43-.43,0-.01,0-.02,0-.04"/><path class="cls-18" d="M228.49,82.85v-2.25c0-.2,.16-.36,.36-.36,.01,0,.03,0,.04,0h.96c.2-.02,.37,.12,.39,.32,0,.01,0,.02,0,.04v2.25c0,.22-.18,.39-.39,.39h-1.07c-.22,0-.39-.18-.39-.39h0"/><path class="cls-10" d="M211.05,83.06v-1.68c-.02-.24,.15-.44,.39-.46,.02,0,.05,0,.07,0h1.5c.24,0,.43,.19,.43,.43h4.04v1.75h-4.04c0,.24-.19,.43-.43,.43h-1.5c-.26,0-.46-.21-.46-.46"/><path class="cls-18" d="M219.13,82.85v-2.25c0-.2-.16-.36-.36-.36h-1.11c-.18-.02-.34,.1-.36,.28,0,.03,0,.05,0,.08v2.25c-.02,.2,.12,.37,.32,.39,.01,0,.02,0,.04,0h.96c.2-.02,.36-.19,.36-.39"/><path class="cls-10" d="M236.42,87.31v-1.71c0-.24-.19-.43-.43-.43h-1.54c-.24,0-.43,.19-.43,.43h-4.18v1.75h4.18c0,.24,.19,.43,.43,.43h1.54c.24,0,.43-.19,.43-.43,0-.01,0-.02,0-.04"/><path class="cls-18" d="M228.49,87.1v-2.25c0-.2,.16-.36,.36-.36,.01,0,.03,0,.04,0h.96c.2-.02,.37,.12,.39,.32,0,.01,0,.02,0,.04v2.25c0,.22-.18,.39-.39,.39h-1.07c-.22,0-.39-.18-.39-.39h0"/><path class="cls-10" d="M211.05,87.31v-1.71c0-.24,.19-.43,.43-.43,.01,0,.02,0,.04,0h1.5c.24,0,.43,.19,.43,.43h4.04v1.75h-4.04c0,.24-.19,.43-.43,.43h-1.5c-.26,0-.46-.21-.46-.46"/><path class="cls-18" d="M219.13,87.1v-2.25c0-.2-.16-.36-.36-.36h-1.11c-.18-.02-.34,.1-.36,.28,0,.03,0,.05,0,.08v2.25c-.02,.2,.12,.37,.32,.39,.01,0,.02,0,.04,0h.96c.2-.02,.36-.19,.36-.39"/><path class="cls-10" d="M236.42,91.53v-1.75c.02-.24-.16-.44-.39-.46-.01,0-.02,0-.04,0h-1.54c-.23,.02-.41,.2-.43,.43h-4.18v1.75h4.18c0,.24,.19,.45,.43,.46h1.54c.24,0,.43-.19,.43-.43,0-.01,0-.02,0-.04"/><path class="cls-18" d="M228.49,91.31v-2.25c0-.22,.18-.39,.39-.39h.96c.22,0,.39,.18,.39,.39h0v2.25c0,.2-.16,.36-.36,.36-.01,0-.03,0-.04,0h-1.07c-.2,.02-.37-.12-.39-.32,0-.01,0-.02,0-.04"/><path class="cls-10" d="M211.05,91.53v-1.75c0-.26,.21-.46,.46-.46h1.5c.24,0,.43,.19,.43,.43,0,.01,0,.02,0,.04h4.04v1.75h-4.04c.02,.24-.16,.44-.39,.46-.01,0-.02,0-.04,0h-1.5c-.26,0-.46-.21-.46-.46"/><path class="cls-18" d="M219.13,91.31v-2.25c0-.2-.15-.37-.36-.39h-1.11c-.2,0-.36,.16-.36,.36,0,.01,0,.03,0,.04v2.25c-.02,.18,.1,.34,.28,.36,.03,0,.05,0,.08,0h.96c.2,0,.36-.16,.36-.36h0"/><path class="cls-10" d="M236.42,95.85v-1.68c.02-.24-.16-.44-.39-.46-.01,0-.02,0-.04,0h-1.54c-.24,0-.43,.19-.43,.43h-4.18v1.75h4.18c0,.24,.19,.43,.43,.43h1.54c.24,0,.43-.19,.43-.43,0-.01,0-.02,0-.04"/><path class="cls-18" d="M228.49,95.67v-2.32c.02-.2,.19-.36,.39-.36h.96c.2,0,.37,.15,.39,.36v2.29c-.02,.2-.19,.36-.39,.36h-1.07c-.2,0-.37-.15-.39-.36"/><path class="cls-10" d="M211.05,95.85v-1.68c0-.26,.21-.46,.46-.46h1.5c.24,0,.43,.19,.43,.43h4.04v1.75h-4.04c0,.24-.19,.43-.43,.43h-1.5c-.24,.02-.44-.15-.46-.39,0-.02,0-.05,0-.07"/><path class="cls-18" d="M219.13,95.67v-2.32c-.02-.19-.17-.34-.36-.36h-1.11c-.2,0-.36,.16-.36,.36h0v2.29c0,.2,.16,.36,.36,.36h.96c.19-.02,.34-.17,.36-.36"/><path class="cls-10" d="M236.42,100.1v-1.68c.02-.24-.16-.44-.39-.46-.01,0-.02,0-.04,0h-1.54c-.24,0-.43,.19-.43,.43h-4.18v1.75h4.18c.04,.21,.22,.36,.43,.36h1.54c.24,0,.43-.19,.43-.43,0-.01,0-.02,0-.04"/><path class="cls-18" d="M228.49,99.93v-2.29c.02-.2,.19-.36,.39-.36h.96c.2,0,.37,.15,.39,.36v2.29c-.02,.2-.19,.36-.39,.36h-1.07c-.2,0-.37-.15-.39-.36"/><path class="cls-10" d="M211.05,100.1v-1.68c0-.26,.21-.46,.46-.46h1.5c.24,0,.43,.19,.43,.43h4.04v1.75h-4.04c0,.24-.19,.43-.43,.43h-1.5c-.24,.02-.44-.15-.46-.39,0-.02,0-.05,0-.07"/><path class="cls-18" d="M219.13,99.93v-2.29c-.02-.19-.17-.34-.36-.36h-1.11c-.2,0-.36,.16-.36,.36h0v2.29c0,.2,.16,.36,.36,.36h.96c.19-.02,.34-.17,.36-.36"/><path class="cls-18" d="M229.42,42.12c.5,0,.93,.71,.93,1.57,0,.86-.43,1.57-.93,1.57s-.93-.71-.93-1.57c0-.86,.43-1.57,.93-1.57"/><path class="cls-18" d="M218.2,42.12c.54,0,.93,.71,.93,1.57,0,.86-.39,1.57-.93,1.57-.54,0-.89-.71-.89-1.57s.39-1.57,.89-1.57"/><path class="cls-18" d="M229.42,105.57c.5,0,.93,.68,.93,1.57s-.43,1.54-.93,1.54c-.5,0-.93-.68-.93-1.54s.43-1.57,.93-1.57"/><path class="cls-18" d="M218.2,105.57c.54,0,.93,.68,.93,1.57,0,.89-.39,1.54-.93,1.54s-.89-.68-.89-1.54c0-.86,.39-1.57,.89-1.57"/></g></g></g></g><path class="cls-19" d="M238.27,100.69h-.6v-1.91h-.74v-.45c.42,.01,.79-.13,.86-.58h.47v2.94Z"/><path class="cls-19" d="M207.75,98.82c-.02-.67,.36-1.19,1.07-1.19,.54,0,1.01,.34,1.01,.92,0,.89-.94,.96-1.37,1.57h1.39v.51h-2.16c0-.68,.42-.97,.93-1.31,.26-.18,.62-.36,.62-.72,0-.28-.18-.45-.44-.45-.35,0-.47,.36-.47,.68h-.57Z"/><g><path class="cls-19" d="M236.7,49.37c-.02-.67,.36-1.19,1.07-1.19,.54,0,1.01,.34,1.01,.92,0,.89-.94,.96-1.37,1.57h1.39v.51h-2.16c0-.68,.42-.97,.93-1.31,.26-.18,.62-.36,.62-.72,0-.28-.18-.45-.44-.45-.35,0-.47,.36-.47,.68h-.57Z"/><path class="cls-19" d="M239.84,49.42c.26,.02,.63-.03,.63-.36,0-.25-.2-.39-.42-.39-.3,0-.46,.22-.45,.52h-.57c.02-.6,.41-1.02,1.02-1.02,.47,0,.99,.29,.99,.81,0,.28-.14,.52-.41,.6h0c.32,.08,.52,.34,.52,.68,0,.62-.52,.96-1.09,.96-.66,0-1.1-.39-1.09-1.07h.57c.01,.32,.17,.58,.52,.58,.27,0,.48-.18,.48-.46,0-.44-.39-.44-.68-.44v-.42Z"/></g><g><path class="cls-19" d="M205.57,49.37c-.02-.67,.36-1.19,1.07-1.19,.54,0,1.01,.34,1.01,.92,0,.89-.94,.96-1.37,1.57h1.39v.51h-2.16c0-.68,.42-.97,.93-1.31,.26-.18,.62-.36,.62-.72,0-.28-.18-.45-.44-.45-.35,0-.47,.36-.47,.68h-.57Z"/><path class="cls-19" d="M209.06,50.49h-1.24v-.55l1.28-1.71h.53v1.77h.39v.49h-.39v.68h-.57v-.68Zm0-1.51h-.01l-.76,1.02h.77v-1.02Z"/></g></g></g></svg>