<?xml version="1.0" encoding="utf-8"?>
<!-- Generator: Adobe Illustrator 26.3.1, SVG Export Plug-In . SVG Version: 6.00 Build 0)  -->
<svg version="1.1" id="Layer_2_00000170983670384687136950000006205542207955899266_"
	 xmlns="http://www.w3.org/2000/svg" xmlns:xlink="http://www.w3.org/1999/xlink" x="0px" y="0px" viewBox="0 0 245 156"
	 style="enable-background:new 0 0 245 156;" xml:space="preserve">
<style type="text/css">
	.st0{fill:#BFBFBF;}
	.st1{fill:#E9F3FB;}
	.st2{fill:#323C49;}
	.st3{fill:#222630;}
	.st4{fill:#C8B99F;}
	.st5{fill:#D2D2D2;}
	.st6{fill:#BD8C3F;}
	.st7{fill:none;stroke:#FFFFFF;stroke-width:0.6795;stroke-linecap:round;stroke-miterlimit:10;}
	.st8{fill:#7F7F7F;}
	.st9{fill:#B2B2B2;}
	.st10{fill:#333333;}
	.st11{fill:#FFFFFF;}
	.st12{fill:#B85C00;}
	.st13{fill:#FA0200;}
	.st14{enable-background:new    ;}
</style>
<path class="st0" d="M106,24.7H0v24.7h6.2c4.9,0,8.8,3.9,8.8,8.8l0,0c0,4.9-3.9,8.8-8.8,8.8H0v61h106V24.7z"/>
<path class="st1" d="M97.1,43.4v0.9c0,0.8-0.7,1.5-1.5,1.5H79.4c-0.8,0-1.5-0.7-1.5-1.5v-0.9c0-0.8,0.7-1.5,1.5-1.5h16.1
	C96.4,41.9,97.1,42.6,97.1,43.4z"/>
<path class="st1" d="M97.1,107.7v0.9c0,0.8-0.7,1.5-1.5,1.5H79.4c-0.8,0-1.5-0.7-1.5-1.5v-0.9c0-0.8,0.7-1.5,1.5-1.5h16.1
	C96.4,106.2,97.1,106.9,97.1,107.7z"/>
<path class="st2" d="M92,111.7h1.6c0.8,0,1.5-0.7,1.5-1.5V107c0-0.6-0.4-1.2-1-1.4V46.9c0.6-0.2,1-0.8,1-1.4v-3.1
	c0-0.8-0.7-1.5-1.5-1.5H92c-0.7,0-1.3,0.5-1.4,1.1h-6.1c-0.2-0.6-0.8-1.1-1.4-1.1h-1.6c-0.8,0-1.5,0.7-1.5,1.5v3.1
	c0,0.7,0.4,1.2,1,1.4v58.7c-0.6,0.2-1,0.8-1,1.4v3.1c0,0.8,0.7,1.5,1.5,1.5H83c0.6,0,1.2-0.4,1.4-0.9h6.2
	C90.8,111.3,91.3,111.7,92,111.7z"/>
<path class="st3" d="M92.4,48.5V104c0,0.4-0.3,0.8-0.8,0.8h-8.5c-0.4,0-0.8-0.3-0.8-0.8V48.5c0-0.4,0.3-0.8,0.8-0.8h8.5
	C92,47.7,92.4,48.1,92.4,48.5z"/>
<path class="st4" d="M20.2,58.2v-0.9c0-7.5-6.1-13.6-13.6-13.6H0v5.7h6.2c4.9,0,8.8,3.9,8.8,8.8l0,0c0,4.9-3.9,8.8-8.8,8.8H0v4.7
	h6.6C14.1,71.8,20.2,65.7,20.2,58.2L20.2,58.2z"/>
<polygon class="st5" points="64.4,96.9 68.2,96.9 68.2,87.3 64.4,87.3 64.4,83.8 68.2,83.8 68.2,73.4 64.4,73.4 64.4,69.9 
	68.2,69.9 68.2,60.6 64.4,60.6 64.4,56.9 44.8,56.9 44.8,100.2 64.4,100.2 "/>
<g>
	<path class="st5" d="M35.9,39.8v1.9l-8.1,1.9l0,0l8.1,2.1v1.9l-8.1,2.1l0,0l8.1,2v1.9l-10.6-2.9v-1.9l8.1-2.1l0,0l-8.1-2.2v-1.9
		L35.9,39.8L35.9,39.8z"/>
	<path class="st5" d="M33,54.6v1.7h-7.7v-1.7H33z M35.9,54.6v1.7h-1.6v-1.7H35.9z"/>
	<path class="st5" d="M27.8,59.4c-1,0.1-1.3,0.8-1.3,1.7c0,0.7,0.1,1.7,1,1.7s1-1.3,1.3-2.5s0.7-2.5,2.3-2.5c1.7,0,2.2,1.8,2.2,3.2
		c0,1.6-0.6,3-2.4,3.2v-1.8c0.8-0.2,1-0.8,1-1.6c0-0.5-0.1-1.4-0.8-1.4c-0.8,0-1,1.2-1.2,2.5c-0.3,1.2-0.7,2.5-2.2,2.5
		c-1.8,0-2.5-1.8-2.5-3.4c0-1.9,0.9-3.3,2.7-3.4L27.8,59.4L27.8,59.4z"/>
	<path class="st5" d="M35.9,65.9v5c0,2-0.7,3.4-2.6,3.4c-1.1,0-1.7-0.5-2.2-1.4c-0.4,1.3-1.4,1.9-2.7,1.9c-2.1,0-3.1-1.8-3.1-3.7V66
		h10.6V65.9z M27.2,68.3v2.5c0,0.9,0.3,1.7,1.4,1.7s1.5-0.7,1.5-1.7v-2.5H27.2z M31.6,68.3v2.4c0,0.8,0.4,1.4,1.3,1.4
		c1,0,1.2-0.8,1.2-1.6v-2.2C34.1,68.3,31.6,68.3,31.6,68.3z"/>
	<path class="st5" d="M35.9,76.4v2.3h-8.6v5.2h-2v-7.5H35.9z"/>
	<path class="st5" d="M36.2,89.9c0,3.3-2.4,5.2-5.6,5.2c-3,0-5.5-1.9-5.5-5.2c0-3.3,2.4-5.2,5.5-5.2C33.7,84.7,36.2,86.6,36.2,89.9z
		 M27.1,89.9c0,2.1,1.8,2.9,3.5,2.9c1.9,0,3.6-0.8,3.6-2.9S32.4,87,30.6,87S27.1,87.8,27.1,89.9z"/>
	<path class="st5" d="M32.4,103.7c1.1-0.2,1.9-1.2,1.9-2.3c0-2.1-1.8-2.9-3.6-2.9c-1.8,0-3.5,0.8-3.5,2.9c0,1.4,1,2.2,2.4,2.4v2.2
		c-2.6-0.2-4.3-2-4.3-4.6c0-3.3,2.4-5.2,5.5-5.2s5.6,1.9,5.6,5.2c0,2.3-1.4,4.3-3.8,4.6C32.4,105.9,32.4,103.7,32.4,103.7z"/>
	<path class="st5" d="M35.9,107.6v2.3h-4.4l4.4,4.1v2.9l-4.2-4.1l-6.4,4.5v-2.9l4.8-3.2l-1.3-1.3h-3.4v-2.3
		C25.4,107.6,35.9,107.6,35.9,107.6z"/>
</g>
<g>
	<path class="st1" d="M100.4,53.5v-1.7c0-0.3-0.2-0.5-0.5-0.5h-1.5c-0.2,0-0.4,0.2-0.5,0.4h-4.1v1.8h4.1c0,0.2,0.2,0.4,0.5,0.4h1.5
		C100.2,54,100.4,53.8,100.4,53.5z"/>
	<path class="st6" d="M94.1,51v2.3c0,0.2-0.2,0.4-0.4,0.4h-1.1c-0.2,0-0.4-0.2-0.4-0.4V51c0-0.2,0.2-0.4,0.4-0.4h1.1
		C93.9,50.6,94.1,50.8,94.1,51z"/>
	<path class="st1" d="M74.3,53.5v-1.7c0-0.3,0.2-0.5,0.5-0.5h1.5c0.2,0,0.4,0.2,0.5,0.4h4.1v1.8h-4.1c0,0.2-0.2,0.4-0.5,0.4h-1.5
		C74.5,54,74.3,53.8,74.3,53.5z"/>
	<path class="st6" d="M82.5,51v2.3c0,0.2-0.2,0.4-0.4,0.4H81c-0.2,0-0.4-0.2-0.4-0.4V51c0-0.2,0.2-0.4,0.4-0.4h1.1
		C82.3,50.6,82.5,50.8,82.5,51z"/>
</g>
<g>
	<path class="st1" d="M100.4,57.8V56c0-0.3-0.2-0.5-0.5-0.5h-1.5c-0.2,0-0.4,0.2-0.5,0.4h-4.1v1.8h4.1c0,0.2,0.2,0.4,0.5,0.4h1.5
		C100.2,58.2,100.4,58,100.4,57.8z"/>
	<path class="st6" d="M94.1,55.2v2.3c0,0.2-0.2,0.4-0.4,0.4h-1.1c-0.2,0-0.4-0.2-0.4-0.4v-2.3c0-0.2,0.2-0.4,0.4-0.4h1.1
		C93.9,54.9,94.1,55,94.1,55.2z"/>
	<path class="st1" d="M74.3,57.8V56c0-0.3,0.2-0.5,0.5-0.5h1.5c0.2,0,0.4,0.2,0.5,0.4h4.1v1.8h-4.1c0,0.2-0.2,0.4-0.5,0.4h-1.5
		C74.5,58.2,74.3,58,74.3,57.8z"/>
	<path class="st6" d="M82.5,55.2v2.3c0,0.2-0.2,0.4-0.4,0.4H81c-0.2,0-0.4-0.2-0.4-0.4v-2.3c0-0.2,0.2-0.4,0.4-0.4h1.1
		C82.3,54.9,82.5,55,82.5,55.2z"/>
</g>
<g>
	<path class="st1" d="M100.4,62.3v-1.7c0-0.3-0.2-0.5-0.5-0.5h-1.5c-0.2,0-0.4,0.2-0.5,0.4h-4.1v1.8h4.1c0,0.2,0.2,0.4,0.5,0.4h1.5
		C100.2,62.7,100.4,62.5,100.4,62.3z"/>
	<path class="st6" d="M94.1,59.7V62c0,0.2-0.2,0.4-0.4,0.4h-1.1c-0.2,0-0.4-0.2-0.4-0.4v-2.3c0-0.2,0.2-0.4,0.4-0.4h1.1
		C93.9,59.4,94.1,59.5,94.1,59.7z"/>
	<path class="st1" d="M74.3,62.3v-1.7c0-0.3,0.2-0.5,0.5-0.5h1.5c0.2,0,0.4,0.2,0.5,0.4h4.1v1.8h-4.1c0,0.2-0.2,0.4-0.5,0.4h-1.5
		C74.5,62.7,74.3,62.5,74.3,62.3z"/>
	<path class="st6" d="M82.5,59.7V62c0,0.2-0.2,0.4-0.4,0.4H81c-0.2,0-0.4-0.2-0.4-0.4v-2.3c0-0.2,0.2-0.4,0.4-0.4h1.1
		C82.3,59.4,82.5,59.5,82.5,59.7z"/>
</g>
<g>
	<path class="st1" d="M100.4,66.7V65c0-0.3-0.2-0.5-0.5-0.5h-1.5c-0.2,0-0.4,0.2-0.5,0.4h-4.1v1.8h4.1c0,0.2,0.2,0.4,0.5,0.4h1.5
		C100.2,67.1,100.4,66.9,100.4,66.7z"/>
	<path class="st6" d="M94.1,64.1v2.3c0,0.2-0.2,0.4-0.4,0.4h-1.1c-0.2,0-0.4-0.2-0.4-0.4v-2.3c0-0.2,0.2-0.4,0.4-0.4h1.1
		C93.9,63.8,94.1,63.9,94.1,64.1z"/>
	<path class="st1" d="M74.3,66.7V65c0-0.3,0.2-0.5,0.5-0.5h1.5c0.2,0,0.4,0.2,0.5,0.4h4.1v1.8h-4.1c0,0.2-0.2,0.4-0.5,0.4h-1.5
		C74.5,67.1,74.3,66.9,74.3,66.7z"/>
	<path class="st6" d="M82.5,64.1v2.3c0,0.2-0.2,0.4-0.4,0.4H81c-0.2,0-0.4-0.2-0.4-0.4v-2.3c0-0.2,0.2-0.4,0.4-0.4h1.1
		C82.3,63.8,82.5,63.9,82.5,64.1z"/>
</g>
<g>
	<path class="st1" d="M100.4,71v-1.7c0-0.3-0.2-0.5-0.5-0.5h-1.5c-0.2,0-0.4,0.2-0.5,0.4h-4.1V71h4.1c0,0.2,0.2,0.4,0.5,0.4h1.5
		C100.2,71.4,100.4,71.2,100.4,71z"/>
	<path class="st6" d="M94.1,68.4v2.3c0,0.2-0.2,0.4-0.4,0.4h-1.1c-0.2,0-0.4-0.2-0.4-0.4v-2.3c0-0.2,0.2-0.4,0.4-0.4h1.1
		C93.9,68.1,94.1,68.2,94.1,68.4z"/>
	<path class="st1" d="M74.3,71v-1.7c0-0.3,0.2-0.5,0.5-0.5h1.5c0.2,0,0.4,0.2,0.5,0.4h4.1V71h-4.1c0,0.2-0.2,0.4-0.5,0.4h-1.5
		C74.5,71.4,74.3,71.2,74.3,71z"/>
	<path class="st6" d="M82.5,68.4v2.3c0,0.2-0.2,0.4-0.4,0.4H81c-0.2,0-0.4-0.2-0.4-0.4v-2.3c0-0.2,0.2-0.4,0.4-0.4h1.1
		C82.3,68.1,82.5,68.2,82.5,68.4z"/>
</g>
<g>
	<path class="st1" d="M100.4,75.2v-1.7c0-0.3-0.2-0.5-0.5-0.5h-1.5c-0.2,0-0.4,0.2-0.5,0.4h-4.1v1.8h4.1c0,0.2,0.2,0.4,0.5,0.4h1.5
		C100.2,75.7,100.4,75.5,100.4,75.2z"/>
	<path class="st6" d="M94.1,72.7V75c0,0.2-0.2,0.4-0.4,0.4h-1.1c-0.2,0-0.4-0.2-0.4-0.4v-2.3c0-0.2,0.2-0.4,0.4-0.4h1.1
		C93.9,72.3,94.1,72.5,94.1,72.7z"/>
	<path class="st1" d="M74.3,75.2v-1.7c0-0.3,0.2-0.5,0.5-0.5h1.5c0.2,0,0.4,0.2,0.5,0.4h4.1v1.8h-4.1c0,0.2-0.2,0.4-0.5,0.4h-1.5
		C74.5,75.7,74.3,75.5,74.3,75.2z"/>
	<path class="st6" d="M82.5,72.7V75c0,0.2-0.2,0.4-0.4,0.4H81c-0.2,0-0.4-0.2-0.4-0.4v-2.3c0-0.2,0.2-0.4,0.4-0.4h1.1
		C82.3,72.3,82.5,72.5,82.5,72.7z"/>
</g>
<g>
	<path class="st1" d="M100.4,79.5v-1.7c0-0.3-0.2-0.5-0.5-0.5h-1.5c-0.2,0-0.4,0.2-0.5,0.4h-4.1v1.8h4.1c0,0.2,0.2,0.4,0.5,0.4h1.5
		C100.2,80,100.4,79.8,100.4,79.5z"/>
	<path class="st6" d="M94.1,77v2.3c0,0.2-0.2,0.4-0.4,0.4h-1.1c-0.2,0-0.4-0.2-0.4-0.4V77c0-0.2,0.2-0.4,0.4-0.4h1.1
		C93.9,76.6,94.1,76.8,94.1,77z"/>
	<path class="st1" d="M74.3,79.5v-1.7c0-0.3,0.2-0.5,0.5-0.5h1.5c0.2,0,0.4,0.2,0.5,0.4h4.1v1.8h-4.1c0,0.2-0.2,0.4-0.5,0.4h-1.5
		C74.5,80,74.3,79.8,74.3,79.5z"/>
	<path class="st6" d="M82.5,77v2.3c0,0.2-0.2,0.4-0.4,0.4H81c-0.2,0-0.4-0.2-0.4-0.4V77c0-0.2,0.2-0.4,0.4-0.4h1.1
		C82.3,76.6,82.5,76.8,82.5,77z"/>
</g>
<g>
	<path class="st1" d="M100.4,83.9v-1.7c0-0.3-0.2-0.5-0.5-0.5h-1.5c-0.2,0-0.4,0.2-0.5,0.4h-4.1v1.8h4.1c0,0.2,0.2,0.4,0.5,0.4h1.5
		C100.2,84.4,100.4,84.2,100.4,83.9z"/>
	<path class="st6" d="M94.1,81.4v2.3c0,0.2-0.2,0.4-0.4,0.4h-1.1c-0.2,0-0.4-0.2-0.4-0.4v-2.3c0-0.2,0.2-0.4,0.4-0.4h1.1
		C93.9,81,94.1,81.2,94.1,81.4z"/>
	<path class="st1" d="M74.3,83.9v-1.7c0-0.3,0.2-0.5,0.5-0.5h1.5c0.2,0,0.4,0.2,0.5,0.4h4.1v1.8h-4.1c0,0.2-0.2,0.4-0.5,0.4h-1.5
		C74.5,84.4,74.3,84.2,74.3,83.9z"/>
	<path class="st6" d="M82.5,81.4v2.3c0,0.2-0.2,0.4-0.4,0.4H81c-0.2,0-0.4-0.2-0.4-0.4v-2.3c0-0.2,0.2-0.4,0.4-0.4h1.1
		C82.3,81,82.5,81.2,82.5,81.4z"/>
</g>
<g>
	<path class="st1" d="M100.4,88.3v-1.7c0-0.3-0.2-0.5-0.5-0.5h-1.5c-0.2,0-0.4,0.2-0.5,0.4h-4.1v1.8h4.1c0,0.2,0.2,0.4,0.5,0.4h1.5
		C100.2,88.7,100.4,88.5,100.4,88.3z"/>
	<path class="st6" d="M94.1,85.7V88c0,0.2-0.2,0.4-0.4,0.4h-1.1c-0.2,0-0.4-0.2-0.4-0.4v-2.3c0-0.2,0.2-0.4,0.4-0.4h1.1
		C93.9,85.3,94.1,85.5,94.1,85.7z"/>
	<path class="st1" d="M74.3,88.3v-1.7c0-0.3,0.2-0.5,0.5-0.5h1.5c0.2,0,0.4,0.2,0.5,0.4h4.1v1.8h-4.1c0,0.2-0.2,0.4-0.5,0.4h-1.5
		C74.5,88.7,74.3,88.5,74.3,88.3z"/>
	<path class="st6" d="M82.5,85.7V88c0,0.2-0.2,0.4-0.4,0.4H81c-0.2,0-0.4-0.2-0.4-0.4v-2.3c0-0.2,0.2-0.4,0.4-0.4h1.1
		C82.3,85.3,82.5,85.5,82.5,85.7z"/>
</g>
<g>
	<path class="st1" d="M100.4,92.6v-1.7c0-0.3-0.2-0.5-0.5-0.5h-1.5c-0.2,0-0.4,0.2-0.5,0.4h-4.1v1.8h4.1c0,0.2,0.2,0.4,0.5,0.4h1.5
		C100.2,93,100.4,92.8,100.4,92.6z"/>
	<path class="st6" d="M94.1,90v2.3c0,0.2-0.2,0.4-0.4,0.4h-1.1c-0.2,0-0.4-0.2-0.4-0.4V90c0-0.2,0.2-0.4,0.4-0.4h1.1
		C93.9,89.7,94.1,89.8,94.1,90z"/>
	<path class="st1" d="M74.3,92.6v-1.7c0-0.3,0.2-0.5,0.5-0.5h1.5c0.2,0,0.4,0.2,0.5,0.4h4.1v1.8h-4.1c0,0.2-0.2,0.4-0.5,0.4h-1.5
		C74.5,93,74.3,92.8,74.3,92.6z"/>
	<path class="st6" d="M82.5,90v2.3c0,0.2-0.2,0.4-0.4,0.4H81c-0.2,0-0.4-0.2-0.4-0.4V90c0-0.2,0.2-0.4,0.4-0.4h1.1
		C82.3,89.7,82.5,89.8,82.5,90z"/>
</g>
<g>
	<path class="st1" d="M100.4,97v-1.7c0-0.3-0.2-0.5-0.5-0.5h-1.5c-0.2,0-0.4,0.2-0.5,0.4h-4.1V97h4.1c0,0.2,0.2,0.4,0.5,0.4h1.5
		C100.2,97.5,100.4,97.3,100.4,97z"/>
	<path class="st6" d="M94.1,94.5v2.3c0,0.2-0.2,0.4-0.4,0.4h-1.1c-0.2,0-0.4-0.2-0.4-0.4v-2.3c0-0.2,0.2-0.4,0.4-0.4h1.1
		C93.9,94.1,94.1,94.3,94.1,94.5z"/>
	<path class="st1" d="M74.3,97v-1.7c0-0.3,0.2-0.5,0.5-0.5h1.5c0.2,0,0.4,0.2,0.5,0.4h4.1V97h-4.1c0,0.2-0.2,0.4-0.5,0.4h-1.5
		C74.5,97.5,74.3,97.3,74.3,97z"/>
	<path class="st6" d="M82.5,94.5v2.3c0,0.2-0.2,0.4-0.4,0.4H81c-0.2,0-0.4-0.2-0.4-0.4v-2.3c0-0.2,0.2-0.4,0.4-0.4h1.1
		C82.3,94.1,82.5,94.3,82.5,94.5z"/>
</g>
<g>
	<path class="st1" d="M100.4,101.4v-1.7c0-0.3-0.2-0.5-0.5-0.5h-1.5c-0.2,0-0.4,0.2-0.5,0.4h-4.1v1.8h4.1c0,0.2,0.2,0.4,0.5,0.4h1.5
		C100.2,101.9,100.4,101.6,100.4,101.4z"/>
	<path class="st6" d="M94.1,98.8v2.3c0,0.2-0.2,0.4-0.4,0.4h-1.1c-0.2,0-0.4-0.2-0.4-0.4v-2.3c0-0.2,0.2-0.4,0.4-0.4h1.1
		C93.9,98.5,94.1,98.6,94.1,98.8z"/>
	<path class="st1" d="M74.3,101.4v-1.7c0-0.3,0.2-0.5,0.5-0.5h1.5c0.2,0,0.4,0.2,0.5,0.4h4.1v1.8h-4.1c0,0.2-0.2,0.4-0.5,0.4h-1.5
		C74.5,101.9,74.3,101.6,74.3,101.4z"/>
	<path class="st6" d="M82.5,98.8v2.3c0,0.2-0.2,0.4-0.4,0.4H81c-0.2,0-0.4-0.2-0.4-0.4v-2.3c0-0.2,0.2-0.4,0.4-0.4h1.1
		C82.3,98.5,82.5,98.6,82.5,98.8z"/>
</g>
<ellipse class="st6" cx="93.2" cy="43.5" rx="0.9" ry="1.6"/>
<ellipse class="st6" cx="81.7" cy="43.5" rx="0.9" ry="1.6"/>
<ellipse class="st6" cx="93.2" cy="108.6" rx="0.9" ry="1.6"/>
<ellipse class="st6" cx="81.7" cy="108.6" rx="0.9" ry="1.6"/>
<line class="st7" x1="75.7" y1="49.3" x2="75.7" y2="46"/>
<polyline class="st7" points="75.7,43.7 75.7,39.1 99,39.1 99,49.3 "/>
<line class="st7" x1="99" y1="103.5" x2="99" y2="106.8"/>
<polyline class="st7" points="99,109.1 99,113.7 75.7,113.7 75.7,103.5 "/>
<g>
	<rect x="185.8" class="st8" width="14.4" height="156"/>
</g>
<g>
	<g>
		<rect x="167.8" class="st8" width="14.4" height="156"/>
	</g>
</g>
<g>
	<g>
		<path class="st9" d="M170.7,146.1h10.1c0.7,0,1.2,0.5,1.2,1.2v7.4c0,0.7-0.5,1.2-1.2,1.2h-10.1c-0.7,0-1.2-0.5-1.2-1.2v-7.4
			C169.5,146.7,170,146.1,170.7,146.1z"/>
	</g>
</g>
<g>
	<path class="st10" d="M187,146.1h10.1c0.7,0,1.2,0.5,1.2,1.2v7.4c0,0.7-0.5,1.2-1.2,1.2H187c-0.7,0-1.2-0.5-1.2-1.2v-7.4
		C185.8,146.7,186.3,146.1,187,146.1z"/>
</g>
<g>
	<path class="st10" d="M166.5,0.5h-5.6c-0.1,0-0.1,0-0.1,0l0,0h-11.4l-5.7,4.9l5.7,4.9h11.4l0,0c0.1,0,0.1,0,0.2,0h5.6
		c0.8,0,1.4-0.6,1.4-1.4v-7C167.8,1.2,167.2,0.5,166.5,0.5z"/>
	<g>
		<path class="st11" d="M152.4,7.2C152.1,7.7,151.5,8,151,8c-1.6,0-2.6-1.2-2.6-2.8s1-2.8,2.6-2.8c1.1,0,2.1,0.7,2.3,1.9h-1.1
			c-0.1-0.5-0.6-0.9-1.1-0.9c-1.1,0-1.5,0.9-1.5,1.8S150,7,151.1,7c0.8,0,1.2-0.4,1.3-1.2h-1.2V4.9h2.2v2.9h-0.7L152.4,7.2
			L152.4,7.2z"/>
		<path class="st11" d="M154.3,2.5h1.2l2.2,3.6l0,0V2.5h1.1v5.3h-1.2l-2.2-3.6l0,0v3.6h-1.1V2.5z"/>
		<path class="st11" d="M159.8,2.5h2.3c1.4,0,2.4,0.9,2.4,2.6c0,1.6-0.8,2.7-2.4,2.7h-2.3V2.5z M161,6.8h1c0.7,0,1.3-0.4,1.3-1.6
			c0-1.1-0.4-1.8-1.5-1.8H161V6.8z"/>
	</g>
</g>
<g>
	<path class="st10" d="M218.7,146.1h-11.4l0,0c-0.1,0-0.2,0-0.2,0h-5.6c-0.8,0-1.4,0.6-1.4,1.4v7c0,0.8,0.6,1.4,1.4,1.4h5.6
		c0.1,0,0.2,0,0.2,0l0,0h11.4l5.7-4.9L218.7,146.1z"/>
	<g>
		<path class="st11" d="M207.5,152.8c-0.3,0.5-0.9,0.7-1.5,0.7c-1.6,0-2.6-1.2-2.6-2.8s1-2.8,2.6-2.8c1.1,0,2.1,0.7,2.3,1.9h-1.1
			c-0.1-0.5-0.6-0.9-1.1-0.9c-1.1,0-1.5,0.9-1.5,1.8c0,0.9,0.4,1.8,1.5,1.8c0.8,0,1.2-0.4,1.3-1.2h-1.2v-0.9h2.2v2.9h-0.7
			L207.5,152.8L207.5,152.8z"/>
		<path class="st11" d="M209.3,148.1h1.2l2.2,3.6l0,0v-3.6h1.1v5.3h-1.2l-2.2-3.6l0,0v3.6h-1.1V148.1L209.3,148.1z"/>
		<path class="st11" d="M214.9,148.1h2.3c1.4,0,2.4,0.9,2.4,2.6c0,1.6-0.8,2.7-2.4,2.7h-2.3V148.1z M216,152.4h1
			c0.7,0,1.3-0.4,1.3-1.6c0-1.1-0.4-1.8-1.5-1.8H216V152.4L216,152.4z"/>
	</g>
</g>
<g>
	<path class="st9" d="M214.9,0.5h-7.8H205h-3.5c-0.8,0-1.4,0.6-1.4,1.4v3.4L200,5.4l0.1,0.1V9c0,0.8,0.6,1.4,1.4,1.4h3.5h2.1h7.8
		l4.9-4.9L214.9,0.5z"/>
	<g>
		<path class="st11" d="M203.3,2.5h1.2l2.2,3.6l0,0V2.5h1.1v5.3h-1.2l-2.2-3.6l0,0v3.6h-1.1V2.5z"/>
		<path class="st11" d="M212.4,4.3c-0.1-0.6-0.6-0.9-1.2-0.9c-1.1,0-1.5,0.9-1.5,1.8s0.4,1.8,1.5,1.8c0.7,0,1.1-0.5,1.2-1.2h1.2
			c-0.1,1.3-1,2.2-2.4,2.2c-1.6,0-2.6-1.2-2.6-2.8s1-2.8,2.6-2.8c1.2,0,2.2,0.7,2.3,1.9L212.4,4.3z"/>
	</g>
</g>
<g>
	<path class="st9" d="M214.9,13.3h-7.8H205h-3.5c-0.8,0-1.4,0.6-1.4,1.4v3.4l-0.1,0.1l0.1,0.1v3.4c0,0.8,0.6,1.4,1.4,1.4h3.5h2.1
		h7.8l4.9-4.9L214.9,13.3z"/>
	<g>
		<path class="st11" d="M203.3,15.2h1.2l2.2,3.6l0,0v-3.6h1.1v5.3h-1.2l-2.2-3.6l0,0v3.6h-1.1V15.2z"/>
		<path class="st11" d="M212.4,17c-0.1-0.6-0.6-0.9-1.2-0.9c-1.1,0-1.5,0.9-1.5,1.8s0.4,1.8,1.5,1.8c0.7,0,1.1-0.5,1.2-1.2h1.2
			c-0.1,1.3-1,2.2-2.4,2.2c-1.6,0-2.6-1.2-2.6-2.8c0-1.6,1-2.8,2.6-2.8c1.2,0,2.2,0.7,2.3,1.9C213.6,17,212.4,17,212.4,17z"/>
	</g>
</g>
<g>
	<path class="st9" d="M219.8,31.5l-4.9-4.9h-7.8H205h-3.5c-0.8,0-1.4,0.6-1.4,1.4v3.4l-0.1,0.1l0.1,0.1V35c0,0.8,0.6,1.4,1.4,1.4
		h5.6l0,0h7.7L219.8,31.5z"/>
	<g>
		<path class="st11" d="M203.3,28.5h1.2l2.2,3.6l0,0v-3.6h1.1v5.3h-1.2l-2.2-3.6l0,0v3.6h-1.1C203.3,33.9,203.3,28.5,203.3,28.5z"/>
		<path class="st11" d="M212.4,30.3c-0.1-0.6-0.6-0.9-1.2-0.9c-1.1,0-1.5,0.9-1.5,1.8s0.4,1.8,1.5,1.8c0.7,0,1.1-0.5,1.2-1.2h1.2
			c-0.1,1.3-1,2.2-2.4,2.2c-1.6,0-2.6-1.2-2.6-2.8c0-1.6,1-2.8,2.6-2.8c1.2,0,2.2,0.7,2.3,1.9L212.4,30.3L212.4,30.3z"/>
	</g>
</g>
<g>
	<path class="st9" d="M167.8,31.5L167.8,31.5V28c0-0.8-0.6-1.4-1.4-1.4h-5.6l0,0H153l-4.9,4.9l4.9,4.9h9.9l0,0h3.5
		c0.8,0,1.4-0.6,1.4-1.4L167.8,31.5L167.8,31.5z"/>
	<g>
		<path class="st11" d="M154.5,28.5h1.2l2.2,3.6l0,0v-3.6h1.1v5.3h-1.2l-2.2-3.6l0,0v3.6h-1.1V28.5L154.5,28.5z"/>
		<path class="st11" d="M163.7,30.3c-0.1-0.6-0.6-0.9-1.2-0.9c-1.1,0-1.5,0.9-1.5,1.8s0.4,1.8,1.5,1.8c0.7,0,1.1-0.5,1.2-1.2h1.1
			c-0.1,1.3-1,2.2-2.4,2.2c-1.6,0-2.6-1.2-2.6-2.8c0-1.6,1-2.8,2.6-2.8c1.2,0,2.2,0.7,2.3,1.9L163.7,30.3L163.7,30.3z"/>
	</g>
</g>
<g>
	<path class="st9" d="M167.8,18.2L167.8,18.2v-3.5c0-0.8-0.6-1.4-1.4-1.4h-5.6l0,0H153l-4.9,4.9l4.9,4.9h9.9l0,0h3.5
		c0.8,0,1.4-0.6,1.4-1.4L167.8,18.2L167.8,18.2z"/>
	<g>
		<path class="st11" d="M154.5,15.2h1.2l2.2,3.6l0,0v-3.6h1.1v5.4h-1.2l-2.2-3.6l0,0v3.6h-1.1V15.2L154.5,15.2z"/>
		<path class="st11" d="M163.7,17c-0.1-0.6-0.6-1-1.2-0.9c-1.1,0-1.5,0.9-1.5,1.8s0.4,1.8,1.5,1.8c0.7,0,1.1-0.5,1.2-1.2h1.1
			c-0.1,1.3-1,2.2-2.4,2.2c-1.6,0-2.6-1.2-2.6-2.8c0-1.6,1-2.8,2.6-2.8c1.2,0,2.2,0.7,2.3,1.9H163.7z"/>
	</g>
</g>
<g>
	<path class="st9" d="M167.8,71.4L167.8,71.4v-3.5c0-0.8-0.6-1.4-1.4-1.4h-5.6l0,0H153l-4.9,4.9l4.9,4.9h9.9l0,0h3.5
		c0.8,0,1.4-0.6,1.4-1.4L167.8,71.4L167.8,71.4z"/>
	<g>
		<path class="st11" d="M154.5,68.4h1.2L158,72l0,0v-3.6h1.1v5.3h-1.2l-2.2-3.6l0,0v3.6h-1.1L154.5,68.4L154.5,68.4z"/>
		<path class="st11" d="M163.7,70.2c-0.1-0.6-0.6-0.9-1.2-0.9c-1.1,0-1.5,0.9-1.5,1.8s0.4,1.8,1.5,1.8c0.7,0,1.1-0.5,1.2-1.2h1.1
			c-0.1,1.3-1,2.2-2.4,2.2c-1.6,0-2.6-1.2-2.6-2.8c0-1.6,1-2.8,2.6-2.8c1.2,0,2.2,0.7,2.3,1.9H163.7L163.7,70.2z"/>
	</g>
</g>
<g>
	<path class="st9" d="M167.8,58L167.8,58v-3.5c0-0.8-0.6-1.4-1.4-1.4h-5.6l0,0H153l-4.9,4.9l4.9,4.9h9.9l0,0h3.5
		c0.8,0,1.4-0.6,1.4-1.4L167.8,58L167.8,58z"/>
	<g>
		<path class="st11" d="M154.5,55.1h1.2l2.2,3.6l0,0v-3.6h1.1v5.4h-1.2l-2.2-3.6l0,0v3.6h-1.1V55.1L154.5,55.1z"/>
		<path class="st11" d="M163.7,56.9c-0.1-0.6-0.6-1-1.2-0.9c-1.1,0-1.5,0.9-1.5,1.8c0,0.9,0.4,1.8,1.5,1.8c0.7,0,1.1-0.5,1.2-1.2
			h1.1c-0.1,1.3-1,2.2-2.4,2.2c-1.6,0-2.6-1.2-2.6-2.8s1-2.8,2.6-2.8c1.2,0,2.2,0.7,2.3,1.9H163.7z"/>
	</g>
</g>
<g>
	<path class="st9" d="M167.8,84.6L167.8,84.6v-3.5c0-0.8-0.6-1.4-1.4-1.4h-5.6c0,0,0,0-0.1,0h-7.8l-4.9,4.9l4.9,4.9h7.8h2h3.5
		c0.8,0,1.4-0.6,1.4-1.4L167.8,84.6L167.8,84.6z"/>
	<g>
		<path class="st11" d="M154.6,81.7h1.2l2.2,3.6l0,0v-3.6h1.1V87h-1.2l-2.2-3.6l0,0V87h-1.1V81.7L154.6,81.7z"/>
		<path class="st11" d="M163.7,83.5c-0.1-0.6-0.6-0.9-1.2-0.9c-1.1,0-1.5,0.9-1.5,1.8s0.4,1.8,1.5,1.8c0.7,0,1.1-0.5,1.2-1.2h1.1
			c-0.1,1.3-1,2.2-2.4,2.2c-1.6,0-2.6-1.2-2.6-2.8c0-1.6,1-2.8,2.6-2.8c1.2,0,2.2,0.7,2.3,1.9H163.7z"/>
	</g>
</g>
<g>
	<path class="st9" d="M167.8,124.5L167.8,124.5V121c0-0.8-0.6-1.4-1.4-1.4h-5.6l0,0H153l-4.9,4.9l4.9,4.9h9.9l0,0h3.5
		c0.8,0,1.4-0.6,1.4-1.4L167.8,124.5L167.8,124.5z"/>
	<g>
		<path class="st11" d="M154.6,121.5h1.2l2.2,3.6l0,0v-3.6h1.1v5.3h-1.2l-2.2-3.6l0,0v3.6h-1.1V121.5L154.6,121.5z"/>
		<path class="st11" d="M163.7,123.3c-0.1-0.6-0.6-0.9-1.2-0.9c-1.1,0-1.5,0.9-1.5,1.8s0.4,1.8,1.5,1.8c0.7,0,1.1-0.5,1.2-1.2h1.1
			c-0.1,1.3-1,2.2-2.4,2.2c-1.6,0-2.6-1.2-2.6-2.8c0-1.6,1-2.8,2.6-2.8c1.2,0,2.2,0.7,2.3,1.9C164.8,123.3,163.7,123.3,163.7,123.3z
			"/>
	</g>
</g>
<g>
	<path class="st9" d="M167.8,137.8L167.8,137.8v-3.5c0-0.8-0.6-1.4-1.4-1.4h-5.6l0,0H153l-4.9,4.9l4.9,4.9h9.9l0,0h3.5
		c0.8,0,1.4-0.6,1.4-1.4L167.8,137.8L167.8,137.8z"/>
	<g>
		<path class="st11" d="M154.6,134.8h1.2l2.2,3.6l0,0v-3.6h1.1v5.3h-1.2l-2.2-3.6l0,0v3.6h-1.1V134.8L154.6,134.8z"/>
		<path class="st11" d="M163.7,136.6c-0.1-0.6-0.6-0.9-1.2-0.9c-1.1,0-1.5,0.9-1.5,1.8c0,0.9,0.4,1.8,1.5,1.8c0.7,0,1.1-0.5,1.2-1.2
			h1.1c-0.1,1.3-1,2.2-2.4,2.2c-1.6,0-2.6-1.2-2.6-2.8s1-2.8,2.6-2.8c1.2,0,2.2,0.7,2.3,1.9H163.7z"/>
	</g>
</g>
<g>
	<path class="st9" d="M167.8,151L167.8,151v-3.5c0-0.8-0.6-1.4-1.4-1.4h-5.6l0,0H153l-4.9,4.9l4.9,4.9h9.9l0,0h3.5
		c0.8,0,1.4-0.6,1.4-1.4L167.8,151L167.8,151z"/>
	<g>
		<path class="st11" d="M154.6,148.1h1.2l2.2,3.6l0,0v-3.6h1.1v5.3h-1.2l-2.2-3.6l0,0v3.6h-1.1V148.1L154.6,148.1z"/>
		<path class="st11" d="M163.7,149.9c-0.1-0.6-0.6-0.9-1.2-0.9c-1.1,0-1.5,0.9-1.5,1.8c0,0.9,0.4,1.8,1.5,1.8c0.7,0,1.1-0.5,1.2-1.2
			h1.1c-0.1,1.3-1,2.2-2.4,2.2c-1.6,0-2.6-1.2-2.6-2.8s1-2.8,2.6-2.8c1.2,0,2.2,0.7,2.3,1.9H163.7z"/>
	</g>
</g>
<g>
	<path class="st9" d="M219.8,71.3l-4.9-4.9H205l0,0h-3.4c-0.8,0-1.4,0.6-1.4,1.4v3.4l-0.1,0.1l0.1,0.1v3.5c0,0.8,0.6,1.4,1.4,1.4
		h5.6c0.1,0,0.2,0,0.3,0h7.5L219.8,71.3z"/>
	<g>
		<path class="st11" d="M203.3,68.4h1.2l2.2,3.6l0,0v-3.6h1.1v5.3h-1.2l-2.2-3.6l0,0v3.6h-1.1V68.4z"/>
		<path class="st11" d="M212.4,70.2c-0.1-0.6-0.6-0.9-1.2-0.9c-1.1,0-1.5,0.9-1.5,1.8s0.4,1.8,1.5,1.8c0.7,0,1.1-0.5,1.2-1.2h1.2
			c-0.1,1.3-1,2.2-2.4,2.2c-1.6,0-2.6-1.2-2.6-2.8c0-1.6,1-2.8,2.6-2.8c1.2,0,2.2,0.7,2.3,1.9C213.6,70.2,212.4,70.2,212.4,70.2z"/>
	</g>
</g>
<g>
	<path class="st9" d="M214.9,119.6h-7.5c-0.1,0-0.2,0-0.3,0h-5.6c-0.8,0-1.4,0.6-1.4,1.4v3.5l-0.1,0.1l0.1,0.1v3.4
		c0,0.8,0.6,1.4,1.4,1.4h3.4l0,0h9.9l4.9-4.9L214.9,119.6z"/>
	<g>
		<path class="st11" d="M203.3,121.5h1.2l2.2,3.6l0,0v-3.6h1.1v5.3h-1.2l-2.2-3.6l0,0v3.6h-1.1C203.3,126.9,203.3,121.5,203.3,121.5
			z"/>
		<path class="st11" d="M212.4,123.3c-0.1-0.6-0.6-0.9-1.2-0.9c-1.1,0-1.5,0.9-1.5,1.8s0.4,1.8,1.5,1.8c0.7,0,1.1-0.5,1.2-1.2h1.2
			c-0.1,1.3-1,2.2-2.4,2.2c-1.6,0-2.6-1.2-2.6-2.8c0-1.6,1-2.8,2.6-2.8c1.2,0,2.2,0.7,2.3,1.9H212.4L212.4,123.3z"/>
	</g>
</g>
<g>
	<path class="st9" d="M214.9,132.8h-7.5c-0.1,0-0.2,0-0.3,0h-5.6c-0.8,0-1.4,0.6-1.4,1.4v3.5l-0.1,0.1l0.1,0.1v3.4
		c0,0.8,0.6,1.4,1.4,1.4h3.4l0,0h9.9l4.9-4.9L214.9,132.8z"/>
	<g>
		<path class="st11" d="M203.3,134.8h1.2l2.2,3.6l0,0v-3.6h1.1v5.3h-1.2l-2.2-3.6l0,0v3.6h-1.1V134.8z"/>
		<path class="st11" d="M212.4,136.6c-0.1-0.6-0.6-0.9-1.2-0.9c-1.1,0-1.5,0.9-1.5,1.8c0,0.9,0.4,1.8,1.5,1.8c0.7,0,1.1-0.5,1.2-1.2
			h1.2c-0.1,1.3-1,2.2-2.4,2.2c-1.6,0-2.6-1.2-2.6-2.8s1-2.8,2.6-2.8c1.2,0,2.2,0.7,2.3,1.9H212.4z"/>
	</g>
</g>
<g>
	<path class="st9" d="M214.9,79.7h-7.5c-0.1,0-0.2,0-0.3,0h-5.6c-0.8,0-1.4,0.6-1.4,1.4v3.5l-0.1,0.1l0.1,0.1v3.4
		c0,0.8,0.6,1.4,1.4,1.4h3.4l0,0h9.9l4.9-4.9L214.9,79.7z"/>
	<g>
		<path class="st11" d="M203.3,81.7h1.2l2.2,3.6l0,0v-3.6h1.1V87h-1.2l-2.2-3.6l0,0V87h-1.1V81.7z"/>
		<path class="st11" d="M212.4,83.5c-0.1-0.6-0.6-0.9-1.2-0.9c-1.1,0-1.5,0.9-1.5,1.8s0.4,1.8,1.5,1.8c0.7,0,1.1-0.5,1.2-1.2h1.2
			c-0.1,1.3-1,2.2-2.4,2.2c-1.6,0-2.6-1.2-2.6-2.8c0-1.6,1-2.8,2.6-2.8c1.2,0,2.2,0.7,2.3,1.9C213.6,83.5,212.4,83.5,212.4,83.5z"/>
	</g>
</g>
<g>
	<path class="st9" d="M214.9,93h-7.5c-0.1,0-0.2,0-0.3,0h-5.6c-0.8,0-1.4,0.6-1.4,1.4v3.5L200,98l0.1,0.1v3.4c0,0.8,0.6,1.4,1.4,1.4
		h3.4l0,0h9.9l4.9-4.9L214.9,93z"/>
	<g>
		<path class="st11" d="M203.3,94.9h1.2l2.2,3.6l0,0v-3.6h1.1v5.3h-1.2l-2.2-3.6l0,0v3.6h-1.1V94.9z"/>
		<path class="st11" d="M212.4,96.7c-0.1-0.6-0.6-0.9-1.2-0.9c-1.1,0-1.5,0.9-1.5,1.8s0.4,1.8,1.5,1.8c0.7,0,1.1-0.5,1.2-1.2h1.2
			c-0.1,1.3-1,2.2-2.4,2.2c-1.6,0-2.6-1.2-2.6-2.8c0-1.6,1-2.8,2.6-2.8c1.2,0,2.2,0.7,2.3,1.9H212.4z"/>
	</g>
</g>
<g>
	<path class="st12" d="M166.5,106.3h-5.6h-0.1c-0.2,0-0.5,0-0.7,0h-23.3c-0.1,0-0.1,0-0.2,0H128l-4.9,4.9l4.9,4.9h9.9l0,0h22.3
		c0.2,0,0.5,0,0.7,0h0.1h5.6c0.8,0,1.4-0.6,1.4-1.4v-7C167.8,106.9,167.2,106.3,166.5,106.3z"/>
	<g>
		<path class="st11" d="M130.1,108.3h1.2v5.4h-1.2V108.3z"/>
		<path class="st11" d="M132.1,110.5c0-1.2,0.7-2.2,1.9-2.2c1,0,1.8,0.6,1.8,1.7c0,1.6-1.7,1.7-2.5,2.8h2.5v0.9H132
			c0-1.2,0.8-1.8,1.7-2.4c0.5-0.3,1.1-0.6,1.1-1.3c0-0.5-0.3-0.8-0.8-0.8c-0.6,0-0.8,0.7-0.8,1.2
			C133.1,110.5,132.1,110.5,132.1,110.5z"/>
		<path class="st11" d="M140.2,110.1c-0.1-0.5-0.6-1-1.2-1c-1.1,0-1.5,0.9-1.5,1.9c0,0.9,0.4,1.8,1.5,1.8c0.7,0,1.1-0.5,1.2-1.2h1.2
			c-0.1,1.4-1.1,2.2-2.4,2.2c-1.7,0-2.7-1.3-2.7-2.8c0-1.6,1-2.9,2.7-2.9c1.2,0,2.2,0.7,2.3,2H140.2z"/>
		<path class="st11" d="M144.7,113.7h-1.1v-3.5h-1.3v-0.8c0.8,0,1.4-0.2,1.6-1.1h0.9L144.7,113.7L144.7,113.7z"/>
		<path class="st11" d="M145.9,114.3h3.8v0.4h-3.8V114.3z"/>
		<path class="st11" d="M151.1,111.9c0,0.7,0.6,1,1.2,1c0.4,0,1.1-0.1,1.1-0.7s-0.8-0.7-1.6-0.9c-0.8-0.2-1.6-0.5-1.6-1.5
			c0-1.1,1.1-1.6,2-1.6c1.1,0,2.2,0.5,2.2,1.8h-1.2c0-0.6-0.5-0.8-1.1-0.8c-0.4,0-0.8,0.2-0.8,0.6s0.3,0.5,1.6,0.8
			c0.4,0.1,1.6,0.4,1.6,1.6c0,1-0.8,1.7-2.3,1.7c-1.2,0-2.3-0.6-2.3-1.9L151.1,111.9L151.1,111.9z"/>
		<path class="st11" d="M158.8,110.1c-0.1-0.5-0.6-1-1.2-1c-1.1,0-1.5,0.9-1.5,1.9c0,0.9,0.4,1.8,1.5,1.8c0.7,0,1.1-0.5,1.2-1.2h1.2
			c-0.1,1.4-1.1,2.2-2.4,2.2c-1.7,0-2.7-1.3-2.7-2.8c0-1.6,1-2.9,2.7-2.9c1.2,0,2.2,0.7,2.3,2H158.8z"/>
		<path class="st11" d="M160.8,108.3h1.2v4.4h2.6v1h-3.8V108.3z"/>
	</g>
</g>
<g>
	<path class="st13" d="M166.5,93h-0.6h-5h-1.1h-5.3h-6.1l-5.7,4.9l5.7,4.9h6.1h5.3h1.1h5h0.6c0.8,0,1.4-0.6,1.4-1.4v-7
		C167.8,93.6,167.2,93,166.5,93z"/>
	<g>
		<path class="st11" d="M152.2,100.7h-1.3l-1.8-5.4h1.2l1.2,3.8l0,0l1.2-3.8h1.2L152.2,100.7z"/>
		<path class="st11" d="M154.5,95.3h2.3c1.4,0,2.5,0.9,2.5,2.7c0,1.6-0.8,2.7-2.5,2.7h-2.3V95.3z M155.7,99.7h1.1
			c0.7,0,1.4-0.4,1.4-1.6c0-1.1-0.4-1.8-1.6-1.8h-0.9C155.7,96.3,155.7,99.7,155.7,99.7z"/>
		<path class="st11" d="M160.1,95.3h2.3c1.4,0,2.5,0.9,2.5,2.7c0,1.6-0.8,2.7-2.5,2.7h-2.3V95.3z M161.3,99.7h1.1
			c0.7,0,1.4-0.4,1.4-1.6c0-1.1-0.4-1.8-1.6-1.8h-0.9C161.3,96.3,161.3,99.7,161.3,99.7z"/>
	</g>
</g>
<g>
	<path class="st13" d="M219.5,53.1h-5.6h-5.8H207h-4.5h-1.1c-0.8,0-1.4,0.6-1.4,1.4v7c0,0.8,0.6,1.4,1.4,1.4h1.1h4.5h1.1h5.8h5.6
		l5.7-4.9L219.5,53.1z"/>
	<g>
		<path class="st11" d="M206.4,60.9h-1.3l-1.8-5.4h1.2l1.2,3.8l0,0l1.2-3.8h1.2L206.4,60.9z"/>
		<path class="st11" d="M208.7,55.4h2.3c1.4,0,2.5,0.9,2.5,2.7c0,1.6-0.8,2.7-2.5,2.7h-2.3V55.4z M209.9,59.9h1.1
			c0.7,0,1.4-0.4,1.4-1.6c0-1.1-0.4-1.8-1.6-1.8h-0.9C209.9,56.5,209.9,59.9,209.9,59.9z"/>
		<path class="st11" d="M214.3,55.4h2.3c1.4,0,2.5,0.9,2.5,2.7c0,1.6-0.8,2.7-2.5,2.7h-2.3V55.4z M215.5,59.9h1.1
			c0.7,0,1.4-0.4,1.4-1.6c0-1.1-0.4-1.8-1.6-1.8h-0.9C215.5,56.5,215.5,59.9,215.5,59.9z"/>
	</g>
</g>
<g>
	<path class="st12" d="M244.9,111.2l-4.9-4.9h-9.9l0,0h-22.3c-0.2,0-0.5,0-0.7,0H207h-5.6c-0.8,0-1.4,0.6-1.4,1.4v7
		c0,0.8,0.6,1.4,1.4,1.4h5.6h0.1c0.2,0,0.5,0,0.7,0h23.3c0.1,0,0.1,0,0.2,0h8.6L244.9,111.2z"/>
	<g>
		<path class="st11" d="M203.3,108.3h1.2v5.4h-1.2V108.3z"/>
		<path class="st11" d="M205.3,110.5c0-1.2,0.7-2.2,1.9-2.2c1,0,1.8,0.6,1.8,1.7c0,1.6-1.7,1.7-2.5,2.8h2.5v0.9h-3.9
			c0-1.2,0.8-1.8,1.7-2.4c0.5-0.3,1.1-0.6,1.1-1.3c0-0.5-0.3-0.8-0.8-0.8c-0.6,0-0.8,0.7-0.8,1.2
			C206.3,110.5,205.3,110.5,205.3,110.5z"/>
		<path class="st11" d="M213.4,110.1c-0.1-0.5-0.6-1-1.2-1c-1.1,0-1.5,0.9-1.5,1.9c0,0.9,0.4,1.8,1.5,1.8c0.7,0,1.1-0.5,1.2-1.2h1.2
			c-0.1,1.4-1.1,2.2-2.4,2.2c-1.7,0-2.7-1.3-2.7-2.8c0-1.6,1-2.9,2.7-2.9c1.2,0,2.2,0.7,2.3,2H213.4z"/>
		<path class="st11" d="M217.9,113.7h-1.1v-3.5h-1.3v-0.8c0.8,0,1.4-0.2,1.6-1.1h0.9L217.9,113.7L217.9,113.7z"/>
		<path class="st11" d="M219.1,114.3h3.8v0.4h-3.8V114.3z"/>
		<path class="st11" d="M224.2,111.9c0,0.7,0.6,1,1.2,1c0.4,0,1.1-0.1,1.1-0.7s-0.8-0.7-1.6-0.9c-0.8-0.2-1.6-0.5-1.6-1.5
			c0-1.1,1.1-1.6,2-1.6c1.1,0,2.2,0.5,2.2,1.8h-1.2c0-0.6-0.5-0.8-1.1-0.8c-0.4,0-0.8,0.2-0.8,0.6s0.3,0.5,1.6,0.8
			c0.4,0.1,1.6,0.4,1.6,1.6c0,1-0.8,1.7-2.3,1.7c-1.2,0-2.3-0.6-2.3-1.9L224.2,111.9L224.2,111.9z"/>
		<path class="st11" d="M228.4,108.3h2.3c1.4,0,2.5,0.9,2.5,2.7c0,1.6-0.8,2.7-2.5,2.7h-2.3V108.3z M229.6,112.7h1.1
			c0.7,0,1.4-0.4,1.4-1.6c0-1.1-0.4-1.8-1.6-1.8h-0.9C229.6,109.3,229.6,112.7,229.6,112.7z"/>
		<path class="st11" d="M235.5,108.3h1.2l2,5.4h-1.2l-0.4-1.2h-2l-0.4,1.2h-1.2L235.5,108.3z M235.4,111.6h1.4l-0.7-2l0,0
			L235.4,111.6z"/>
	</g>
</g>
<g>
	<path class="st12" d="M166.5,39.9h-5.6h-0.1c-0.2,0-0.5,0-0.7,0h-23.3c-0.1,0-0.1,0-0.2,0H128l-4.9,4.9l4.9,4.9h9.9l0,0h22.3
		c0.2,0,0.5,0,0.7,0h0.1h5.6c0.8,0,1.4-0.6,1.4-1.4v-7C167.8,40.5,167.2,39.9,166.5,39.9z"/>
	<g>
		<path class="st11" d="M130.1,41.9h1.2v5.4h-1.2V41.9z"/>
		<path class="st11" d="M132.1,44c0-1.2,0.7-2.2,1.9-2.2c1,0,1.8,0.6,1.8,1.7c0,1.6-1.7,1.7-2.5,2.8h2.5v0.9H132
			c0-1.2,0.8-1.8,1.7-2.4c0.5-0.3,1.1-0.6,1.1-1.3c0-0.5-0.3-0.8-0.8-0.8c-0.6,0-0.8,0.7-0.8,1.2L132.1,44L132.1,44z"/>
		<path class="st11" d="M140.2,43.7c-0.1-0.5-0.6-1-1.2-1c-1.1,0-1.5,0.9-1.5,1.9c0,0.9,0.4,1.8,1.5,1.8c0.7,0,1.1-0.5,1.2-1.2h1.2
			c-0.1,1.4-1.1,2.2-2.4,2.2c-1.7,0-2.7-1.3-2.7-2.8c0-1.6,1-2.9,2.7-2.9c1.2,0,2.2,0.7,2.3,2H140.2z"/>
		<path class="st11" d="M144.7,47.3h-1.1v-3.5h-1.3V43c0.8,0,1.4-0.2,1.6-1.1h0.9L144.7,47.3L144.7,47.3z"/>
		<path class="st11" d="M145.9,47.9h3.8v0.4h-3.8V47.9z"/>
		<path class="st11" d="M151.1,45.5c0,0.7,0.6,1,1.2,1c0.4,0,1.1-0.1,1.1-0.7c0-0.6-0.8-0.7-1.6-0.9s-1.6-0.5-1.6-1.5
			c0-1.1,1.1-1.6,2-1.6c1.1,0,2.2,0.5,2.2,1.8h-1.2c0-0.6-0.5-0.8-1.1-0.8c-0.4,0-0.8,0.2-0.8,0.6c0,0.4,0.3,0.5,1.6,0.8
			c0.4,0.1,1.6,0.4,1.6,1.6c0,1-0.8,1.7-2.3,1.7c-1.2,0-2.3-0.6-2.3-1.9L151.1,45.5L151.1,45.5z"/>
		<path class="st11" d="M155.2,41.9h2.3c1.4,0,2.5,0.9,2.5,2.7c0,1.6-0.8,2.7-2.5,2.7h-2.3V41.9z M156.4,46.3h1.1
			c0.7,0,1.4-0.4,1.4-1.6c0-1.1-0.4-1.8-1.6-1.8h-0.9V46.3z"/>
		<path class="st11" d="M162.3,41.9h1.2l2,5.4h-1.2l-0.4-1.2h-2l-0.4,1.2h-1.2L162.3,41.9z M162.2,45.2h1.4l-0.7-2l0,0L162.2,45.2z"
			/>
	</g>
</g>
<g>
	<path class="st12" d="M244.9,44.8l-4.9-4.9h-9.9l0,0h-22.3c-0.2,0-0.5,0-0.7,0H207h-5.6c-0.8,0-1.4,0.6-1.4,1.4v7
		c0,0.8,0.6,1.4,1.4,1.4h5.6h0.1c0.2,0,0.5,0,0.7,0h23.3c0.1,0,0.1,0,0.2,0h8.6L244.9,44.8z"/>
	<g>
		<path class="st11" d="M203.3,41.9h1.2v5.4h-1.2V41.9z"/>
		<path class="st11" d="M205.3,44c0-1.2,0.7-2.2,1.9-2.2c1,0,1.8,0.6,1.8,1.7c0,1.6-1.7,1.7-2.5,2.8h2.5v0.9h-3.9
			c0-1.2,0.8-1.8,1.7-2.4c0.5-0.3,1.1-0.6,1.1-1.3c0-0.5-0.3-0.8-0.8-0.8c-0.6,0-0.8,0.7-0.8,1.2L205.3,44L205.3,44z"/>
		<path class="st11" d="M213.4,43.7c-0.1-0.5-0.6-1-1.2-1c-1.1,0-1.5,0.9-1.5,1.9c0,0.9,0.4,1.8,1.5,1.8c0.7,0,1.1-0.5,1.2-1.2h1.2
			c-0.1,1.4-1.1,2.2-2.4,2.2c-1.7,0-2.7-1.3-2.7-2.8c0-1.6,1-2.9,2.7-2.9c1.2,0,2.2,0.7,2.3,2H213.4z"/>
		<path class="st11" d="M217.9,47.3h-1.1v-3.5h-1.3V43c0.8,0,1.4-0.2,1.6-1.1h0.9L217.9,47.3L217.9,47.3z"/>
		<path class="st11" d="M219.1,47.9h3.8v0.4h-3.8V47.9z"/>
		<path class="st11" d="M224.2,45.5c0,0.7,0.6,1,1.2,1c0.4,0,1.1-0.1,1.1-0.7c0-0.6-0.8-0.7-1.6-0.9s-1.6-0.5-1.6-1.5
			c0-1.1,1.1-1.6,2-1.6c1.1,0,2.2,0.5,2.2,1.8h-1.2c0-0.6-0.5-0.8-1.1-0.8c-0.4,0-0.8,0.2-0.8,0.6c0,0.4,0.3,0.5,1.6,0.8
			c0.4,0.1,1.6,0.4,1.6,1.6c0,1-0.8,1.7-2.3,1.7c-1.2,0-2.3-0.6-2.3-1.9L224.2,45.5L224.2,45.5z"/>
		<path class="st11" d="M232,43.7c-0.1-0.5-0.6-1-1.2-1c-1.1,0-1.5,0.9-1.5,1.9c0,0.9,0.4,1.8,1.5,1.8c0.7,0,1.1-0.5,1.2-1.2h1.2
			c-0.1,1.4-1.1,2.2-2.4,2.2c-1.7,0-2.7-1.3-2.7-2.8c0-1.6,1-2.9,2.7-2.9c1.2,0,2.2,0.7,2.3,2H232z"/>
		<path class="st11" d="M234,41.9h1.2v4.4h2.6v1H234V41.9z"/>
	</g>
</g>
<g>
	<path class="st13" d="M102,100.4h-0.4v-0.3c0.2,0,0.4-0.1,0.5-0.4h0.3v2.1H102V100.4z"/>
</g>
<g>
	<path class="st13" d="M71.4,101c0.2-0.2,0.5-0.3,0.5-0.6c0-0.2-0.1-0.3-0.3-0.3c-0.2,0-0.3,0.2-0.3,0.4h-0.4c0-0.5,0.2-0.8,0.7-0.8
		c0.4,0,0.6,0.3,0.6,0.7c0,0.4-0.2,0.6-0.5,0.7c-0.1,0.1-0.3,0.2-0.4,0.4h0.9v0.3h-1.4C70.9,101.5,71.1,101.2,71.4,101z"/>
</g>
<g>
	<path class="st13" d="M102.1,52.6c0.2-0.2,0.5-0.3,0.5-0.6c0-0.2-0.1-0.3-0.3-0.3c-0.2,0-0.3,0.2-0.3,0.4h-0.4
		c0-0.5,0.2-0.8,0.7-0.8c0.4,0,0.6,0.3,0.6,0.7s-0.2,0.6-0.5,0.7c-0.1,0.1-0.3,0.2-0.4,0.4h0.9v0.3h-1.4
		C101.6,53.1,101.8,52.8,102.1,52.6z"/>
	<path class="st13" d="M103.1,52.8h0.4c0,0.2,0.1,0.4,0.4,0.4c0.2,0,0.3-0.1,0.3-0.3s-0.1-0.3-0.3-0.3h-0.1v-0.3h0.1
		c0.2,0,0.3-0.1,0.3-0.3s-0.1-0.3-0.3-0.3c-0.2,0-0.3,0.2-0.3,0.4h-0.4c0-0.4,0.2-0.7,0.7-0.7c0.4,0,0.6,0.2,0.6,0.6
		c0,0.2-0.1,0.4-0.3,0.4l0,0c0.2,0.1,0.4,0.2,0.4,0.5c0,0.4-0.3,0.6-0.7,0.6C103.3,53.5,103.1,53.2,103.1,52.8z"/>
</g>
<g>
	<path class="st13" d="M70.5,52.6c0.2-0.2,0.5-0.3,0.5-0.6c0-0.2-0.1-0.3-0.3-0.3c-0.2,0-0.3,0.2-0.3,0.4H70c0-0.5,0.2-0.8,0.7-0.8
		c0.4,0,0.6,0.3,0.6,0.7s-0.2,0.6-0.5,0.7c-0.1,0.1-0.3,0.2-0.4,0.4h0.9v0.3H70C70,53.1,70.2,52.8,70.5,52.6z"/>
	<path class="st13" d="M72.3,53h-0.9v-0.4l0.9-1.2h0.4v1.3H73V53h-0.3v0.4h-0.4C72.3,53.4,72.3,53,72.3,53z M71.8,52.7h0.6v-0.8l0,0
		L71.8,52.7L71.8,52.7z"/>
</g>
<g class="st14">
	<path class="st11" d="M188.8,151.5c0.8-0.6,1.6-1,1.6-1.8c0-0.6-0.3-1-0.9-1c-0.6,0-1,0.5-1,1.3h-1.2c0-1.4,0.7-2.3,2.2-2.3
		c1.3,0,2.1,0.9,2.1,2c0,1.2-0.8,1.7-1.5,2.2c-0.5,0.3-1,0.7-1.2,1.1h2.8v1h-4.4C187.3,152.8,188.1,152,188.8,151.5z"/>
	<path class="st11" d="M192.1,151.8h1.2c0,0.7,0.4,1.3,1.2,1.3c0.7,0,1.1-0.4,1.1-1c0-0.6-0.4-1-1.1-1h-0.4v-0.9h0.4
		c0.6,0,1-0.3,1-0.8c0-0.5-0.3-0.8-0.9-0.8c-0.7,0-1,0.5-1.1,1.1h-1.2c0-1.2,0.8-2,2.2-2c1.3,0,2.1,0.6,2.1,1.7
		c0,0.7-0.4,1.1-1.1,1.3v0c0.8,0.2,1.3,0.7,1.3,1.5c0,1.3-1.1,1.9-2.3,1.9C192.9,154.1,192.1,153.2,192.1,151.8z"/>
</g>
<g>
	<g>
		<path class="st11" d="M172.5,151.5c0.8-0.6,1.6-1,1.6-1.8c0-0.6-0.3-1-0.9-1c-0.6,0-1,0.5-1,1.3H171c0-1.4,0.7-2.3,2.2-2.3
			c1.3,0,2.1,0.9,2.1,2c0,1.2-0.8,1.7-1.5,2.2c-0.5,0.3-1,0.7-1.2,1.1h2.8v1H171C171,152.8,171.7,152,172.5,151.5z"/>
	</g>
	<g>
		<path class="st11" d="M178.6,152.6h-2.8v-1.3l2.8-3.6h1.2v3.9h0.9v1h-0.9v1.3h-1.2V152.6z M176.7,151.6h1.9v-2.4l0,0L176.7,151.6
			L176.7,151.6z"/>
	</g>
</g>
<g>
	<g>
		<path class="st9" d="M170.7,132.8h10.1c0.7,0,1.2,0.5,1.2,1.2v7.4c0,0.7-0.5,1.2-1.2,1.2h-10.1c-0.7,0-1.2-0.5-1.2-1.2V134
			C169.5,133.4,170,132.8,170.7,132.8z"/>
	</g>
</g>
<g>
	<path class="st9" d="M187,132.8h10.1c0.7,0,1.2,0.5,1.2,1.2v7.4c0,0.7-0.5,1.2-1.2,1.2H187c-0.7,0-1.2-0.5-1.2-1.2V134
		C185.8,133.4,186.3,132.8,187,132.8z"/>
</g>
<g class="st14">
	<path class="st11" d="M189.5,138.2c0.8-0.6,1.6-1,1.6-1.8c0-0.6-0.3-1-0.9-1c-0.6,0-1,0.5-1,1.3h-1.2c0-1.4,0.7-2.3,2.2-2.3
		c1.3,0,2.1,0.9,2.1,2c0,1.2-0.8,1.7-1.5,2.2c-0.5,0.3-1,0.7-1.2,1.1h2.8v1H188C188.1,139.5,188.8,138.8,189.5,138.2z"/>
	<path class="st11" d="M194.4,136.4H193v-0.8c0.8,0,1.4-0.3,1.6-1.1h1.1v6.2h-1.2V136.4z"/>
</g>
<g>
	<g>
		<path class="st11" d="M172.6,138.2c0.8-0.6,1.6-1,1.6-1.8c0-0.6-0.3-1-0.9-1c-0.6,0-1,0.5-1,1.3h-1.2c0-1.4,0.7-2.3,2.2-2.3
			c1.3,0,2.1,0.9,2.1,2c0,1.2-0.8,1.7-1.5,2.2c-0.5,0.3-1,0.7-1.2,1.1h2.8v1h-4.4C171.1,139.5,171.9,138.8,172.6,138.2z"/>
	</g>
	<g>
		<path class="st11" d="M177.5,138.2c0.8-0.6,1.6-1,1.6-1.8c0-0.6-0.3-1-0.9-1c-0.6,0-1,0.5-1,1.3H176c0-1.4,0.7-2.3,2.2-2.3
			c1.3,0,2.1,0.9,2.1,2c0,1.2-0.8,1.7-1.5,2.2c-0.5,0.3-1,0.7-1.2,1.1h2.8v1H176C176.1,139.5,176.8,138.8,177.5,138.2z"/>
	</g>
</g>
<g>
	<g>
		<path class="st9" d="M170.7,119.6h10.1c0.7,0,1.2,0.5,1.2,1.2v7.4c0,0.7-0.5,1.2-1.2,1.2h-10.1c-0.7,0-1.2-0.5-1.2-1.2v-7.4
			C169.5,120.1,170,119.6,170.7,119.6z"/>
	</g>
</g>
<g>
	<path class="st9" d="M187,119.6h10.1c0.7,0,1.2,0.5,1.2,1.2v7.4c0,0.7-0.5,1.2-1.2,1.2H187c-0.7,0-1.2-0.5-1.2-1.2v-7.4
		C185.8,120.1,186.3,119.6,187,119.6z"/>
</g>
<g class="st14">
	<path class="st11" d="M189.2,123.1h-1.4v-0.8c0.8,0,1.4-0.3,1.6-1.1h1.1v6.2h-1.2V123.1z"/>
	<path class="st11" d="M191.6,125.9h1.2c0.1,0.4,0.4,0.7,0.9,0.7c0.4,0,0.7-0.1,0.9-0.4c0.2-0.3,0.4-0.8,0.4-1.4h0
		c-0.3,0.4-0.8,0.7-1.4,0.7c-1.3,0-2.2-0.9-2.2-2.2c0-1.3,1-2.2,2.3-2.2c1.6,0,2.6,1,2.6,3.1c0,2-0.7,3.3-2.5,3.3
		C192.5,127.5,191.7,126.8,191.6,125.9z M195,123.2c0-0.7-0.5-1.2-1.2-1.2c-0.7,0-1.2,0.5-1.2,1.2c0,0.7,0.5,1.2,1.2,1.2
		C194.4,124.4,195,124,195,123.2z"/>
</g>
<g>
	<g>
		<path class="st11" d="M172.2,124.9c0.8-0.6,1.6-1,1.6-1.8c0-0.6-0.3-1-0.9-1c-0.6,0-1,0.5-1,1.3h-1.2c0-1.4,0.7-2.3,2.2-2.3
			c1.3,0,2.1,0.9,2.1,2c0,1.2-0.8,1.7-1.5,2.2c-0.5,0.3-1,0.7-1.2,1.1h2.8v1h-4.4C170.8,126.2,171.5,125.5,172.2,124.9z"/>
	</g>
	<g>
		<path class="st11" d="M175.7,124.3c0-2,1-3.2,2.6-3.2s2.6,1.2,2.6,3.2s-1,3.2-2.6,3.2S175.7,126.3,175.7,124.3z M179.6,124.3
			c0-1.3-0.4-2.2-1.3-2.2c-0.9,0-1.3,0.9-1.3,2.2c0,1.3,0.4,2.2,1.3,2.2C179.2,126.5,179.6,125.6,179.6,124.3z"/>
	</g>
</g>
<g>
	<g>
		<path class="st12" d="M170.7,106.3h10.1c0.7,0,1.2,0.5,1.2,1.2v7.4c0,0.7-0.5,1.2-1.2,1.2h-10.1c-0.7,0-1.2-0.5-1.2-1.2v-7.4
			C169.5,106.8,170,106.3,170.7,106.3z"/>
	</g>
</g>
<g>
	<path class="st12" d="M187,106.3h10.1c0.7,0,1.2,0.5,1.2,1.2v7.4c0,0.7-0.5,1.2-1.2,1.2H187c-0.7,0-1.2-0.5-1.2-1.2v-7.4
		C185.8,106.8,186.3,106.3,187,106.3z"/>
</g>
<g class="st14">
	<path class="st11" d="M189.5,109.8h-1.4V109c0.8,0,1.4-0.3,1.6-1.1h1.1v6.2h-1.2V109.8z"/>
	<path class="st11" d="M194.7,109L194.7,109l-3.1,0v-1.1h4.4v1c-1.1,1.1-2.1,2.9-2.2,5.2h-1.3C192.5,111.8,193.7,110,194.7,109z"/>
</g>
<g>
	<g>
		<path class="st11" d="M173,109.8h-1.4V109c0.8,0,1.4-0.3,1.6-1.1h1.1v6.2H173V109.8z"/>
	</g>
	<g>
		<path class="st11" d="M175.1,112.3c0-0.8,0.5-1.4,1.1-1.6l0,0c-0.5-0.3-0.9-0.6-0.9-1.2c0-1,0.9-1.6,2.2-1.6s2.2,0.6,2.2,1.6
			c0,0.6-0.3,1-0.9,1.2l0,0c0.7,0.2,1.1,0.8,1.1,1.6c0,1.3-1.1,2-2.4,2S175.1,113.5,175.1,112.3z M178.8,112.3c0-0.6-0.4-1-1.2-1
			s-1.2,0.4-1.2,1s0.5,1,1.2,1C178.3,113.2,178.8,112.8,178.8,112.3z M178.6,109.5c0-0.5-0.4-0.8-1-0.8s-1,0.3-1,0.8s0.4,0.8,1,0.8
			C178.2,110.4,178.6,110,178.6,109.5z"/>
	</g>
</g>
<g>
	<g>
		<path class="st13" d="M170.7,93h10.1c0.7,0,1.2,0.5,1.2,1.2v7.4c0,0.7-0.5,1.2-1.2,1.2h-10.1c-0.7,0-1.2-0.5-1.2-1.2v-7.4
			C169.5,93.5,170,93,170.7,93z"/>
	</g>
</g>
<g>
	<path class="st9" d="M187,93h10.1c0.7,0,1.2,0.5,1.2,1.2v7.4c0,0.7-0.5,1.2-1.2,1.2H187c-0.7,0-1.2-0.5-1.2-1.2v-7.4
		C185.8,93.5,186.3,93,187,93z"/>
</g>
<g class="st14">
	<path class="st11" d="M189.3,96.5h-1.4v-0.8c0.8,0,1.4-0.3,1.6-1.1h1.1v6.2h-1.2V96.5z"/>
	<path class="st11" d="M191.3,99h1.2c0.1,0.6,0.6,0.9,1.3,0.9c0.7,0,1.1-0.5,1.1-1.2c0-0.7-0.5-1.1-1.1-1.1c-0.5,0-0.8,0.2-1,0.4
		h-1.2l0.6-3.4h3.6v1H193l-0.2,1.3h0c0.3-0.2,0.7-0.4,1.3-0.4c1.1,0,2.1,0.8,2.1,2.2c0,1.3-1,2.2-2.4,2.2
		C192.4,100.9,191.4,100.2,191.3,99z"/>
</g>
<g>
	<g>
		<path class="st11" d="M173,96.5h-1.4v-0.8c0.8,0,1.4-0.3,1.6-1.1h1.1v6.2H173V96.5z"/>
	</g>
	<g>
		<path class="st11" d="M175.2,97.8c0-1.1,0.2-2,0.8-2.6c0.4-0.5,0.9-0.7,1.8-0.7c1.2,0,2,0.7,2.1,1.6h-1.2
			c-0.1-0.4-0.4-0.7-0.9-0.7c-0.9,0-1.3,0.7-1.3,1.8l0,0c0.3-0.4,0.7-0.6,1.5-0.6c1.1,0,2.1,0.9,2.1,2.2c0,1.3-1,2.2-2.3,2.2
			C176,100.9,175.2,99.5,175.2,97.8z M178.9,98.8c0-0.7-0.5-1.2-1.2-1.2c-0.8,0-1.2,0.5-1.2,1.2s0.5,1.2,1.2,1.2
			S178.9,99.5,178.9,98.8z"/>
	</g>
</g>
<g>
	<g>
		<path class="st9" d="M170.7,79.7h10.1c0.7,0,1.2,0.5,1.2,1.2v7.4c0,0.7-0.5,1.2-1.2,1.2h-10.1c-0.7,0-1.2-0.5-1.2-1.2v-7.4
			C169.5,80.2,170,79.7,170.7,79.7z"/>
	</g>
</g>
<g>
	<path class="st9" d="M187,79.7h10.1c0.7,0,1.2,0.5,1.2,1.2v7.4c0,0.7-0.5,1.2-1.2,1.2H187c-0.7,0-1.2-0.5-1.2-1.2v-7.4
		C185.8,80.2,186.3,79.7,187,79.7z"/>
</g>
<g class="st14">
	<path class="st11" d="M189.4,83.2H188v-0.8c0.8,0,1.4-0.3,1.6-1.1h1.1v6.2h-1.2V83.2z"/>
	<path class="st11" d="M191.4,85.4h1.2c0,0.7,0.4,1.3,1.2,1.3c0.7,0,1.1-0.4,1.1-1c0-0.6-0.4-1-1.1-1h-0.4v-0.9h0.4
		c0.6,0,1-0.3,1-0.8c0-0.5-0.3-0.8-0.9-0.8c-0.7,0-1,0.5-1.1,1.1h-1.2c0-1.2,0.8-2,2.2-2c1.3,0,2.1,0.6,2.1,1.7
		c0,0.7-0.4,1.1-1.1,1.3v0c0.8,0.2,1.3,0.7,1.3,1.5c0,1.3-1.1,1.9-2.3,1.9C192.2,87.7,191.4,86.8,191.4,85.4z"/>
</g>
<g>
	<g>
		<path class="st11" d="M173,83.2h-1.4v-0.8c0.8,0,1.4-0.3,1.6-1.1h1.1v6.2H173V83.2z"/>
	</g>
	<g>
		<path class="st11" d="M178,86.2h-2.8v-1.3l2.8-3.6h1.2v3.9h0.9v1h-0.9v1.3H178V86.2z M176.1,85.2h1.9v-2.4l0,0L176.1,85.2
			L176.1,85.2z"/>
	</g>
</g>
<g>
	<g>
		<path class="st9" d="M170.7,66.4h10.1c0.7,0,1.2,0.5,1.2,1.2V75c0,0.7-0.5,1.2-1.2,1.2h-10.1c-0.7,0-1.2-0.5-1.2-1.2v-7.4
			C169.5,67,170,66.4,170.7,66.4z"/>
	</g>
</g>
<g>
	<path class="st9" d="M187,66.4h10.1c0.7,0,1.2,0.5,1.2,1.2V75c0,0.7-0.5,1.2-1.2,1.2H187c-0.7,0-1.2-0.5-1.2-1.2v-7.4
		C185.8,67,186.3,66.4,187,66.4z"/>
</g>
<g class="st14">
	<path class="st11" d="M190.2,69.9h-1.4v-0.8c0.8,0,1.4-0.3,1.6-1.1h1.1v6.2h-1.2V69.9z"/>
	<path class="st11" d="M193.7,69.9h-1.4v-0.8c0.8,0,1.4-0.3,1.6-1.1h1.1v6.2h-1.2V69.9z"/>
</g>
<g>
	<g>
		<path class="st11" d="M173.2,69.9h-1.4v-0.8c0.8,0,1.4-0.3,1.6-1.1h1.1v6.2h-1.2v-4.3H173.2z"/>
	</g>
	<g>
		<path class="st11" d="M176.8,71.8c0.8-0.6,1.6-1,1.6-1.8c0-0.6-0.3-1-0.9-1c-0.6,0-1,0.5-1,1.3h-1.2c0-1.4,0.7-2.3,2.2-2.3
			c1.3,0,2.1,0.9,2.1,2c0,1.2-0.8,1.7-1.5,2.2c-0.5,0.3-1,0.7-1.2,1.1h2.8v1h-4.4C175.4,73.1,176.1,72.3,176.8,71.8z"/>
	</g>
</g>
<g>
	<g>
		<path class="st9" d="M170.7,53.1h10.1c0.7,0,1.2,0.5,1.2,1.2v7.4c0,0.7-0.5,1.2-1.2,1.2h-10.1c-0.7,0-1.2-0.5-1.2-1.2v-7.4
			C169.5,53.7,170,53.1,170.7,53.1z"/>
	</g>
</g>
<g>
	<path class="st13" d="M187,53.1h10.1c0.7,0,1.2,0.5,1.2,1.2v7.4c0,0.7-0.5,1.2-1.2,1.2H187c-0.7,0-1.2-0.5-1.2-1.2v-7.4
		C185.8,53.7,186.3,53.1,187,53.1z"/>
</g>
<g class="st14">
	<path class="st11" d="M189.8,59.5h1.2c0.1,0.4,0.4,0.7,0.9,0.7c0.4,0,0.7-0.1,0.9-0.4c0.2-0.3,0.4-0.8,0.4-1.4h0
		c-0.3,0.4-0.8,0.7-1.4,0.7c-1.3,0-2.2-0.9-2.2-2.2c0-1.3,1-2.2,2.3-2.2c1.6,0,2.6,1,2.6,3.1c0,2-0.7,3.3-2.5,3.3
		C190.7,61.1,190,60.4,189.8,59.5z M193.2,56.8c0-0.7-0.5-1.2-1.2-1.2c-0.7,0-1.2,0.5-1.2,1.2c0,0.7,0.5,1.2,1.2,1.2
		C192.7,58,193.2,57.5,193.2,56.8z"/>
</g>
<g>
	<g>
		<path class="st11" d="M172.8,56.6h-1.4v-0.8c0.8,0,1.4-0.3,1.6-1.1h1.1v6.2h-1.2v-4.3H172.8z"/>
	</g>
	<g>
		<path class="st11" d="M175,57.9c0-2,1-3.2,2.6-3.2s2.6,1.2,2.6,3.2s-1,3.2-2.6,3.2C176,61.1,175,59.8,175,57.9z M178.9,57.9
			c0-1.3-0.4-2.2-1.3-2.2c-0.9,0-1.3,0.9-1.3,2.2s0.4,2.2,1.3,2.2C178.5,60,178.9,59.2,178.9,57.9z"/>
	</g>
</g>
<g>
	<g>
		<path class="st12" d="M170.7,39.9h10.1c0.7,0,1.2,0.5,1.2,1.2v7.4c0,0.7-0.5,1.2-1.2,1.2h-10.1c-0.7,0-1.2-0.5-1.2-1.2V41
			C169.5,40.4,170,39.9,170.7,39.9z"/>
	</g>
</g>
<g>
	<path class="st12" d="M187,39.9h10.1c0.7,0,1.2,0.5,1.2,1.2v7.4c0,0.7-0.5,1.2-1.2,1.2H187c-0.7,0-1.2-0.5-1.2-1.2V41
		C185.8,40.4,186.3,39.9,187,39.9z"/>
</g>
<g class="st14">
	<path class="st11" d="M192.9,42.6L192.9,42.6l-3.1,0v-1.1h4.4v1c-1.1,1.1-2.1,2.9-2.2,5.2h-1.3C190.8,45.4,192,43.5,192.9,42.6z"/>
</g>
<g>
	<g>
		<path class="st11" d="M173.3,45.9c0-0.8,0.5-1.4,1.1-1.6l0,0c-0.5-0.3-0.9-0.6-0.9-1.2c0-1,0.9-1.6,2.2-1.6s2.2,0.6,2.2,1.6
			c0,0.6-0.3,1-0.9,1.2l0,0c0.7,0.2,1.1,0.8,1.1,1.6c0,1.3-1.1,2-2.4,2S173.3,47.1,173.3,45.9z M177,45.8c0-0.6-0.4-1-1.2-1
			s-1.2,0.4-1.2,1s0.5,1,1.2,1S177,46.4,177,45.8z M176.8,43.1c0-0.5-0.4-0.8-1-0.8s-1,0.3-1,0.8s0.4,0.8,1,0.8
			C176.4,43.9,176.8,43.6,176.8,43.1z"/>
	</g>
</g>
<g>
	<g>
		<path class="st9" d="M170.7,26.6h10.1c0.7,0,1.2,0.5,1.2,1.2v7.4c0,0.7-0.5,1.2-1.2,1.2h-10.1c-0.7,0-1.2-0.5-1.2-1.2v-7.4
			C169.5,27.1,170,26.6,170.7,26.6z"/>
	</g>
</g>
<g>
	<path class="st9" d="M187,26.6h10.1c0.7,0,1.2,0.5,1.2,1.2v7.4c0,0.7-0.5,1.2-1.2,1.2H187c-0.7,0-1.2-0.5-1.2-1.2v-7.4
		C185.8,27.1,186.3,26.6,187,26.6z"/>
</g>
<g class="st14">
	<path class="st11" d="M189.6,32.6h1.2c0.1,0.6,0.6,0.9,1.3,0.9c0.7,0,1.1-0.5,1.1-1.2c0-0.7-0.5-1.1-1.1-1.1c-0.5,0-0.8,0.2-1,0.4
		h-1.2l0.6-3.4h3.6v1h-2.8l-0.2,1.3h0c0.3-0.2,0.7-0.4,1.3-0.4c1.1,0,2.1,0.8,2.1,2.2c0,1.3-1,2.2-2.4,2.2
		C190.7,34.5,189.7,33.8,189.6,32.6z"/>
</g>
<g>
	<g>
		<path class="st11" d="M173.4,31.4c0-1.1,0.2-2,0.8-2.6c0.4-0.5,0.9-0.7,1.8-0.7c1.2,0,2,0.7,2.1,1.6h-1.2
			c-0.1-0.4-0.4-0.7-0.9-0.7c-0.9,0-1.3,0.7-1.3,1.8l0,0c0.3-0.4,0.7-0.6,1.5-0.6c1.1,0,2.1,0.9,2.1,2.2c0,1.3-1,2.2-2.3,2.2
			C174.2,34.5,173.4,33.1,173.4,31.4z M177.1,32.4c0-0.7-0.5-1.2-1.2-1.2c-0.8,0-1.2,0.5-1.2,1.2s0.5,1.2,1.2,1.2
			C176.6,33.6,177.1,33,177.1,32.4z"/>
	</g>
</g>
<g>
	<g>
		<path class="st9" d="M170.7,13.3h10.1c0.7,0,1.2,0.5,1.2,1.2v7.4c0,0.7-0.5,1.2-1.2,1.2h-10.1c-0.7,0-1.2-0.5-1.2-1.2v-7.4
			C169.5,13.8,170,13.3,170.7,13.3z"/>
	</g>
</g>
<g>
	<path class="st9" d="M187,13.3h10.1c0.7,0,1.2,0.5,1.2,1.2v7.4c0,0.7-0.5,1.2-1.2,1.2H187c-0.7,0-1.2-0.5-1.2-1.2v-7.4
		C185.8,13.8,186.3,13.3,187,13.3z"/>
</g>
<g class="st14">
	<path class="st11" d="M189.6,19h1.2c0,0.7,0.4,1.3,1.2,1.3c0.7,0,1.1-0.4,1.1-1c0-0.6-0.4-1-1.1-1h-0.4v-0.9h0.4c0.6,0,1-0.3,1-0.8
		c0-0.5-0.3-0.8-0.9-0.8c-0.7,0-1,0.5-1.1,1.1h-1.2c0-1.2,0.8-2,2.2-2c1.3,0,2.1,0.6,2.1,1.7c0,0.7-0.4,1.1-1.1,1.3v0
		c0.8,0.2,1.3,0.7,1.3,1.5c0,1.3-1.1,1.9-2.3,1.9C190.5,21.2,189.6,20.3,189.6,19z"/>
</g>
<g>
	<g>
		<path class="st11" d="M176.2,19.8h-2.8v-1.3l2.8-3.6h1.2v3.9h0.9v1h-0.9v1.3h-1.2V19.8z M174.3,18.8h1.9v-2.4l0,0L174.3,18.8
			L174.3,18.8z"/>
	</g>
</g>
<g>
	<g>
		<path class="st10" d="M170.7,0h10.1c0.7,0,1.2,0.5,1.2,1.2v7.4c0,0.7-0.5,1.2-1.2,1.2h-10.1c-0.7,0-1.2-0.5-1.2-1.2V1.2
			C169.5,0.5,170,0,170.7,0z"/>
	</g>
</g>
<g>
	<path class="st9" d="M187,0h10.1c0.7,0,1.2,0.5,1.2,1.2v7.4c0,0.7-0.5,1.2-1.2,1.2H187c-0.7,0-1.2-0.5-1.2-1.2V1.2
		C185.8,0.5,186.3,0,187,0z"/>
</g>
<g class="st14">
	<path class="st11" d="M191.9,3.5h-1.4V2.7c0.8,0,1.4-0.3,1.6-1.1h1.1v6.2h-1.2V3.5z"/>
</g>
<g>
	<g>
		<path class="st11" d="M175.1,5.4c0.8-0.6,1.6-1,1.6-1.8c0-0.6-0.3-1-0.9-1c-0.6,0-1,0.5-1,1.3h-1.2c0-1.4,0.7-2.3,2.2-2.3
			c1.3,0,2.1,0.9,2.1,2c0,1.2-0.8,1.7-1.5,2.2c-0.5,0.3-1,0.7-1.2,1.1h2.8v1h-4.4C173.6,6.6,174.4,5.9,175.1,5.4z"/>
	</g>
</g>
</svg>
