<svg xmlns="http://www.w3.org/2000/svg" xmlns:xlink="http://www.w3.org/1999/xlink" viewBox="0 0 364.66748 149.67012"><defs><style>.cls-1{fill:none;}.cls-2{fill:#7f7f7f;}.cls-3{fill:#fa0200;}.cls-4{fill:#355269;}.cls-5{fill:#333;}.cls-6{fill:#b2b2b2;}.cls-7{fill:#b85c00;}.cls-8{fill:#fff;}.cls-9{opacity:0.5;}.cls-10{fill:#242424;}.cls-11{fill:#dfab52;}.cls-12{fill:#a5a5a5;}.cls-13{clip-path:url(#clip-path);}.cls-14{fill:#eaf4fc;}.cls-15{fill:#323d49;}.cls-16{fill:#222630;}.cls-17{fill:#be8e3f;}.cls-18{fill:#ec2024;}</style><clipPath id="clip-path"><rect class="cls-1" x="188.49597" y="44.70695" width="22.57028" height="61.39369"/></clipPath></defs><g id="Layer_2" data-name="Layer 2"><g id="_12001" data-name="12001"><rect class="cls-2" x="310.13456" y="0.00867" width="13.49706" height="149.66145"/><rect class="cls-2" x="293.26863" y="0.00867" width="13.49706" height="149.66145"/><path class="cls-3" d="M286.72592,88.95282h5.22767A1.30422,1.30422,0,0,1,293.2578,90.257v6.612a1.30421,1.30421,0,0,1-1.30421,1.30421h-5.22767a1.30422,1.30422,0,0,1-1.30422-1.30422V90.257A1.30421,1.30421,0,0,1,286.72592,88.95282Z"/><rect class="cls-3" x="275.66906" y="88.95282" width="15.73642" height="9.22047"/><polygon class="cls-4" points="277.94 63.566 269.499 63.566 265.275 68.179 269.499 72.787 277.94 72.787 282.158 68.179 277.94 63.566"/><path class="cls-4" d="M286.73675,63.56836h5.22767a1.30422,1.30422,0,0,1,1.30422,1.30422v6.612a1.30421,1.30421,0,0,1-1.30421,1.30421h-5.22767a1.30422,1.30422,0,0,1-1.30422-1.30422v-6.612A1.30421,1.30421,0,0,1,286.73675,63.56836Z"/><polygon class="cls-4" points="293.269 65.455 290.129 63.566 274.791 63.566 267.119 68.179 274.791 72.787 290.129 72.787 293.269 70.9 293.269 65.455"/><polygon class="cls-4" points="335.535 80.946 339.753 85.554 348.196 85.554 352.418 80.946 348.196 76.333 339.753 76.333 335.535 80.946"/><path class="cls-4" d="M324.91632,76.33533H330.144a1.30422,1.30422,0,0,1,1.30422,1.30422v6.612A1.30421,1.30421,0,0,1,330.144,85.5558h-5.22767a1.30422,1.30422,0,0,1-1.30422-1.30422v-6.612A1.30421,1.30421,0,0,1,324.91632,76.33533Z"/><polygon class="cls-4" points="323.612 78.222 326.692 76.333 341.741 76.333 349.267 80.946 341.741 85.554 326.692 85.554 323.612 83.667 323.612 78.222"/><path class="cls-5" d="M286.72158.00433h5.22767a1.30422,1.30422,0,0,1,1.30422,1.30422v6.612a1.30421,1.30421,0,0,1-1.30421,1.30421h-5.22767a1.30422,1.30422,0,0,1-1.30422-1.30422v-6.612A1.30421,1.30421,0,0,1,286.72158.00433Z"/><rect class="cls-5" x="294.81766" y="0.0065" width="11.7834" height="9.22047" rx="1.12006"/><rect class="cls-6" x="294.81766" y="12.61965" width="11.7834" height="9.22047" rx="1.12006"/><rect class="cls-6" x="294.81766" y="25.62276" width="11.7834" height="9.22047" rx="1.12006"/><rect class="cls-6" x="294.81766" y="38.61721" width="11.7834" height="9.22047" rx="1.12006"/><rect class="cls-6" x="294.81766" y="51.04838" width="11.7834" height="9.22047" rx="1.12006"/><rect class="cls-4" x="294.81766" y="63.48604" width="11.7834" height="9.22047" rx="1.12006"/><rect class="cls-3" x="294.81766" y="76.33533" width="11.7834" height="9.22047" rx="1.12006"/><rect class="cls-3" x="294.81766" y="88.95932" width="11.7834" height="9.22047" rx="1.12006"/><rect class="cls-6" x="294.81766" y="101.69595" width="11.7834" height="9.22047" rx="1.12006"/><rect class="cls-6" x="294.81766" y="114.59941" width="11.7834" height="9.22047" rx="1.12006"/><rect class="cls-6" x="294.81766" y="127.92533" width="11.7834" height="9.22047" rx="1.12006"/><rect class="cls-7" x="294.81766" y="140.43232" width="11.7834" height="9.22047" rx="1.12006"/><rect class="cls-7" x="310.13456" y="0.0065" width="11.7834" height="9.22047" rx="1.12006"/><rect class="cls-6" x="310.13456" y="12.61965" width="11.7834" height="9.22047" rx="1.12006"/><rect class="cls-6" x="310.13456" y="25.62276" width="11.7834" height="9.22047" rx="1.12006"/><rect class="cls-6" x="310.13456" y="38.61721" width="11.7834" height="9.22047" rx="1.12006"/><rect class="cls-3" x="310.13456" y="51.04838" width="11.7834" height="9.22047" rx="1.12006"/><rect class="cls-3" x="310.13456" y="63.48604" width="11.7834" height="9.22047" rx="1.12006"/><rect class="cls-4" x="310.13456" y="76.33533" width="11.7834" height="9.22047" rx="1.12006"/><rect class="cls-6" x="310.13456" y="88.95932" width="11.7834" height="9.22047" rx="1.12006"/><rect class="cls-6" x="310.13456" y="101.69595" width="11.7834" height="9.22047" rx="1.12006"/><rect class="cls-6" x="310.13456" y="114.59941" width="11.7834" height="9.22047" rx="1.12006"/><rect class="cls-6" x="310.13456" y="127.92533" width="11.7834" height="9.22047" rx="1.12006"/><rect class="cls-5" x="310.13456" y="140.43232" width="11.7834" height="9.22047" rx="1.12006"/><path class="cls-8" d="M298.71512,4.62107a1.75258,1.75258,0,0,1,1.7895-1.99532,1.57011,1.57011,0,0,1,1.68984,1.54469c0,1.4927-1.58585,1.61185-2.303,2.62576h2.33112v.86658h-3.62017c0-1.14822.7041-1.62051,1.55552-2.20546.43329-.30114,1.03558-.59794,1.03558-1.20455a.70844.70844,0,0,0-.73876-.76043c-.59144,0-.78209.61311-.78209,1.13523Z"/><path class="cls-8" d="M317.11706,7.65628h-1.12222V4.06645H314.604V3.21287c.78209.02166,1.49487-.25348,1.62051-1.10057h.89258Z"/><path class="cls-8" d="M315.82152,16.97641c.481.039,1.17856-.05633,1.17856-.68894a.73009.73009,0,0,0-.73241-.72777q-.026.00007-.05186.002a.85061.85061,0,0,0-.85359.9879h-1.06806a1.83528,1.83528,0,0,1,1.91515-1.913,1.70612,1.70612,0,0,1,1.85667,1.53385,1.10275,1.10275,0,0,1-.77343,1.1244V17.31a1.22839,1.22839,0,0,1,.97924,1.25655,2.06345,2.06345,0,0,1-4.11194-.19715h1.06806c.02383.60011.325,1.08324.97274,1.08324a.85143.85143,0,0,0,.89994-.8q.002-.03327.00131-.06662c0-.83842-.73444-.82109-1.28038-.82109Z"/><path class="cls-8" d="M317.97282,28.66231h-2.28563l-.21665,1.25655.01517.01517a1.41036,1.41036,0,0,1,1.08323-.4333,1.71791,1.71791,0,0,1,1.70718,1.88266,2.004,2.004,0,0,1-2.01411,1.99379l-.04187-.00064a1.84491,1.84491,0,0,1-2.056-1.757h1.1244a.88176.88176,0,0,0,.90775.83193,1.00352,1.00352,0,0,0,.95757-1.06807.96462.96462,0,0,0-.95757-1.03557.91642.91642,0,0,0-.84493.43329h-1.01173l.54161-3.04388H317.975Z"/><path class="cls-8" d="M315.34707,56.90432a.7929.7929,0,0,0,.74309.68677c.82109,0,1.02041-1.08323,1.05941-1.68334l-.01517-.01516a1.39519,1.39519,0,0,1-1.25005.61527,1.77214,1.77214,0,0,1-1.27389-.56761,1.89127,1.89127,0,0,1-.43329-1.23489,1.9202,1.9202,0,0,1,1.94982-2.02347c1.67467,0,2.1253,1.46236,2.1253,2.86189,0,1.36054-.60012,2.89439-2.16647,2.89439a1.688,1.688,0,0,1-1.796-1.53385Zm1.70066-2.27045a.95009.95009,0,0,0-.89475-1.0269.90261.90261,0,0,0-.84492,1.01174c0,.507.26864,1.04424.84492,1.04424A.93008.93008,0,0,0,317.04773,54.63387Z"/><path class="cls-8" d="M314.92027,70.943H313.798V67.35318h-1.39087v-.84709c.78209.02383,1.49487-.25131,1.62051-1.0984h.89475Z"/><path class="cls-8" d="M319.316,70.943h-1.12223V67.35318h-1.39087v-.84709c.78209.02383,1.4927-.25131,1.62051-1.0984h.89259Z"/><path class="cls-8" d="M314.92027,109.36957H313.798v-3.58984h-1.39087v-.84491c.78209.02382,1.49487-.25348,1.62051-1.10056h.89475Z"/><path class="cls-8" d="M320.29743,104.8005a6.79666,6.79666,0,0,0-1.809,4.56907h-1.20239a8.07443,8.07443,0,0,1,1.85883-4.49108h-2.61926v-1.04424h3.77181Z"/><path class="cls-8" d="M314.92027,122.25136H313.798v-3.58983h-1.39087v-.84276c.78209.02383,1.49487-.25347,1.62051-1.10056h.89475Z"/><path class="cls-8" d="M317.546,120.828a.79075.79075,0,0,0,.74309.68894c.82109,0,1.02041-1.08323,1.05941-1.68552l-.01517-.01516a1.39739,1.39739,0,0,1-1.25.61743,1.76776,1.76776,0,0,1-1.27388-.56978,1.88913,1.88913,0,0,1-.4333-1.23272,1.9192,1.9192,0,0,1,1.93682-2.02563c1.67684,0,2.12747,1.46453,2.12747,2.86405,0,1.35838-.60011,2.89223-2.16646,2.89223a1.68583,1.68583,0,0,1-1.79384-1.53386Zm1.69851-2.26828a.95037.95037,0,0,0-.89258-1.02907.90534.90534,0,0,0-.84708,1.01174c0,.50477.26864,1.04423.84708,1.04423a.92531.92531,0,0,0,.89258-1.02691Z"/><path class="cls-8" d="M312.11253,132.03944a1.96741,1.96741,0,0,1,2.00831-2.238,1.76348,1.76348,0,0,1,1.89782,1.73317c0,1.67684-1.77867,1.81116-2.58675,2.94855H316.049v.96625h-4.06429c0-1.29988.79077-1.81983,1.74834-2.47626.48312-.34014,1.16339-.6716,1.16339-1.35187a.79513.79513,0,0,0-.83193-.85359c-.66294,0-.87741.68893-.87741,1.27388Z"/><path class="cls-8" d="M319.316,135.44728h-1.12223v-3.58983h-1.39087v-.84708c.78209.02383,1.4927-.25347,1.62051-1.0984h.89259Z"/><path class="cls-8" d="M312.11253,144.71758a1.9674,1.9674,0,0,1,2.00831-2.238,1.76347,1.76347,0,0,1,1.89782,1.73317c0,1.67467-1.77867,1.809-2.58675,2.94855H316.049v.96408h-4.06429c0-1.28905.79077-1.81767,1.74834-2.4741.48312-.34014,1.16339-.6716,1.16339-1.35187a.79513.79513,0,0,0-.83193-.85359c-.66294,0-.87741.68677-.87741,1.27172Z"/><path class="cls-8" d="M318.02047,144.82807c.481.04116,1.17639-.05416,1.17639-.68677a.73008.73008,0,0,0-.72168-.73841q-.03024-.00035-.06041.00181a.85239.85239,0,0,0-.85358.99007h-1.06807a1.8353,1.8353,0,0,1,1.913-1.91515,1.7084,1.7084,0,0,1,1.85883,1.53385,1.09841,1.09841,0,0,1-.7756,1.13089v.01734a1.22837,1.22837,0,0,1,.98142,1.25654,2.06362,2.06362,0,0,1-4.11195-.19714h1.06807c.02383.60012.325,1.08323.97274,1.08323a.8514.8514,0,0,0,.89993-.8q.002-.03327.00131-.06662c0-.83842-.7366-.82326-1.28037-.82326Z"/><path class="cls-8" d="M300.65194,19.132h-2.0863v-.91642l2.14263-2.87056h.89475v2.96589h.64994v.82542H301.603V20.2781h-.95108Zm0-2.53693h-.02166l-1.27388,1.71151h1.29988Z"/><rect class="cls-5" x="323.67928" y="140.43232" width="7.83609" height="9.22047" rx="1.30422"/><path class="cls-8" d="M299.25674,70.943h-1.00091v-3.1977h-1.23921v-.75394c.6976.02167,1.33238-.21664,1.445-.97923h.79509Z"/><path class="cls-8" d="M300.6736,67.90562a1.75027,1.75027,0,0,1,1.78733-1.99315,1.57039,1.57039,0,0,1,1.692,1.54252c0,1.49486-1.58585,1.614-2.303,2.62793h2.33112v.86658h-3.62232c0-1.14822.70627-1.62052,1.55768-2.20546.4333-.3033,1.03558-.59794,1.03558-1.20455a.70844.70844,0,0,0-.73876-.76043c-.59144,0-.78209.6131-.78209,1.13306Z"/><path class="cls-8" d="M299.25674,96.60693h-1.00091v-3.1977h-1.23921V92.6553c.6976.02166,1.33238-.21665,1.445-.97924h.79509Z"/><path class="cls-8" d="M303.14554,92.94344a.70408.70408,0,0,0-.66293-.61094c-.7171,0-.92292.95758-.94458,1.49919l.01517.01517a1.24138,1.24138,0,0,1,1.11356-.55029,1.57285,1.57285,0,0,1,1.13306.507,1.67685,1.67685,0,0,1,.3813,1.09839,1.71539,1.71539,0,0,1-1.73317,1.80467c-1.4927,0-1.89566-1.29988-1.89566-2.54993,0-1.21322.53728-2.57809,1.94982-2.57809a1.50244,1.50244,0,0,1,1.59885,1.36487ZM301.629,94.96692a.84491.84491,0,0,0,.79509.91424.80586.80586,0,0,0,.75392-.90125c0-.45062-.2383-.92941-.75392-.92941a.82329.82329,0,0,0-.79292.91642Z"/><path class="cls-8" d="M299.25674,109.36957H298.258v-3.19771h-1.24138v-.75393c.6976.02167,1.33238-.21664,1.445-.97924h.79509Z"/><path class="cls-8" d="M302.37861,104.34121a1.469,1.469,0,0,1,1.6465,1.3237,1.03125,1.03125,0,0,1-.71709,1.03557v.01517a1.14388,1.14388,0,0,1,.92291,1.20455,1.65173,1.65173,0,0,1-1.84583,1.549c-.92292,0-1.874-.47879-1.874-1.54252a1.16339,1.16339,0,0,1,.92941-1.21105v-.01517a.98359.98359,0,0,1-.72576-1.0139A1.49976,1.49976,0,0,1,302.37861,104.34121Zm0,4.37408a.81025.81025,0,0,0,.84447-.77453q.00126-.02868.00045-.0574a.79508.79508,0,0,0-.8-.79014l-.04492.00155a.779.779,0,0,0-.86659.78209.83193.83193,0,0,0,.82.84371q.02658.00038.05313-.00094Zm0-2.28995a.66977.66977,0,1,0,0-1.33238.68678.68678,0,0,0-.75064.61632q-.00323.033-.00329.06612a.67431.67431,0,0,0,.75393.64994Z"/><path class="cls-8" d="M296.75665,132.4099a1.7529,1.7529,0,0,1,1.7895-1.99315,1.56972,1.56972,0,0,1,1.68983,1.54252c0,1.49486-1.58368,1.614-2.303,2.62792h2.33112v.86659H296.644c0-1.14823.7041-1.62051,1.55551-2.20546.4333-.30331,1.03558-.59795,1.03558-1.20455a.70844.70844,0,0,0-.73876-.76044c-.59144,0-.78209.61312-.78209,1.13306Z"/><path class="cls-8" d="M300.6736,132.4099a1.75027,1.75027,0,0,1,1.78733-1.99315,1.57038,1.57038,0,0,1,1.692,1.54252c0,1.49486-1.58585,1.614-2.303,2.62792h2.33112v.86659h-3.62232c0-1.14823.70627-1.62051,1.55768-2.20546.4333-.30331,1.03558-.59795,1.03558-1.20455a.70844.70844,0,0,0-.73876-.76044c-.59144,0-.78209.61312-.78209,1.13306Z"/><path class="cls-8" d="M301.18705,29.60905a.7041.7041,0,0,0-.66293-.61311c-.7171,0-.92292.95758-.94241,1.4992l.013.01516a1.24139,1.24139,0,0,1,1.11356-.55028,1.57288,1.57288,0,0,1,1.13306.50695,1.67683,1.67683,0,0,1,.3813,1.10057,1.71358,1.71358,0,0,1-1.73317,1.8025c-1.4927,0-1.89349-1.29988-1.89349-2.54993,0-1.21105.53511-2.57809,1.93682-2.57809a1.50262,1.50262,0,0,1,1.59885,1.367Zm-1.51652,2.02131a.84687.84687,0,0,0,.79509.91642.8078.8078,0,0,0,.75392-.90342c0-.45062-.2383-.92941-.75392-.92941a.82329.82329,0,0,0-.79292.91641Z"/><polygon class="cls-5" points="286.559 0 275.848 0 270.488 4.615 275.848 9.22 286.559 9.22 291.921 4.615 286.559 0"/><path class="cls-8" d="M278.78149,6.29574a1.68765,1.68765,0,0,1-1.38.6911,2.42943,2.42943,0,0,1-2.47193-2.61275A2.44238,2.44238,0,0,1,277.40146,1.718a2.01076,2.01076,0,0,1,2.121,1.77434H278.463a1.02256,1.02256,0,0,0-1.06373-.84492c-.99224,0-1.36487.84492-1.36487,1.73317,0,.83842.37263,1.68334,1.36487,1.68334a1.0818,1.0818,0,0,0,1.19806-1.08323H277.486V4.15744h2.1123V6.86769h-.7041Z"/><path class="cls-8" d="M280.493,1.83716h1.0984l2.0928,3.37535h.013V1.83716h1.03557V6.86769h-1.10489l-2.09279-3.36885h-.013V6.86769h-1.03558Z"/><path class="cls-8" d="M285.712,1.83716h2.16646a2.20905,2.20905,0,0,1,2.28345,2.4871,2.23632,2.23632,0,0,1-2.28345,2.54343H285.712Zm1.10489,4.10112h.98358c.64994,0,1.25222-.39647,1.25222-1.51653,0-1.01607-.35962-1.66384-1.45153-1.66384h-.7886Z"/><polygon class="cls-3" points="285.175 88.953 274.464 88.953 269.104 93.572 274.464 98.173 285.175 98.173 290.537 93.572 285.175 88.953"/><path class="cls-3" d="M286.72592,76.51081h5.22767A1.30422,1.30422,0,0,1,293.2578,77.815v6.612a1.30421,1.30421,0,0,1-1.30421,1.30421h-5.22767a1.30422,1.30422,0,0,1-1.30422-1.30422V77.815A1.30421,1.30421,0,0,1,286.72592,76.51081Z"/><rect class="cls-3" x="272.91038" y="76.51081" width="18.4951" height="9.22047"/><polygon class="cls-3" points="277.524 76.511 266.813 76.511 261.453 81.13 266.813 85.731 277.524 85.731 282.886 81.13 277.524 76.511"/><path class="cls-3" d="M324.93583,51.07h5.22767a1.30422,1.30422,0,0,1,1.30422,1.30422v6.612a1.30421,1.30421,0,0,1-1.30421,1.30421h-5.22767a1.30422,1.30422,0,0,1-1.30422-1.30422v-6.612A1.30421,1.30421,0,0,1,324.93583,51.07Z"/><rect class="cls-3" x="325.48177" y="51.07004" width="18.4951" height="9.22047"/><polygon class="cls-3" points="328.335 55.689 333.697 60.288 344.408 60.288 349.768 55.689 344.408 51.07 333.697 51.07 328.335 55.689"/><path class="cls-3" d="M324.93583,63.486h5.22767a1.30422,1.30422,0,0,1,1.30422,1.30422v6.612a1.30421,1.30421,0,0,1-1.30421,1.30421h-5.22767a1.30422,1.30422,0,0,1-1.30422-1.30422v-6.612A1.30421,1.30421,0,0,1,324.93583,63.486Z"/><rect class="cls-3" x="325.48177" y="63.48604" width="18.4951" height="9.22047"/><polygon class="cls-3" points="332.118 68.105 337.48 72.704 348.191 72.704 353.55 68.105 348.191 63.486 337.48 63.486 332.118 68.105"/><path class="cls-8" d="M279.47447,92.87845c.43329.03466,1.04857-.04983,1.04857-.61311a.64992.64992,0,0,0-.64834-.65153q-.02358-.00006-.0471.00159c-.50911,0-.76909.37264-.7626.87959h-.95108a1.63691,1.63691,0,0,1,1.705-1.705,1.52247,1.52247,0,0,1,1.65518,1.367.9814.9814,0,0,1-.68893,1.0074v.01517a1.09622,1.09622,0,0,1,.86658,1.12006,1.83845,1.83845,0,0,1-3.66349-.17764h.95108c.02166.53728.28814.97274.86658.97274a.76042.76042,0,0,0,.80269-.71567q.00173-.02993.00107-.05992c0-.74527-.64994-.73227-1.14173-.73227Z"/><path class="cls-8" d="M284.609,95.81617h-1.24572l-1.63568-5.03053h1.14173l1.12006,3.53784h.01517l1.133-3.53784h1.14173Z"/><path class="cls-8" d="M287.82835,92.87845c.43329.03466,1.04858-.04983,1.04858-.61311a.64994.64994,0,0,0-.64834-.65153q-.0236-.00006-.0471.00159c-.50912,0-.7691.37264-.7626.87959h-.95108a1.6369,1.6369,0,0,1,1.705-1.705,1.52247,1.52247,0,0,1,1.65518,1.367.98138.98138,0,0,1-.68893,1.0074v.01517a1.09622,1.09622,0,0,1,.86658,1.12006,1.83845,1.83845,0,0,1-3.66349-.17764h.95108c.02166.53728.28814.97274.86658.97274a.76042.76042,0,0,0,.80269-.71567q.00174-.02993.00108-.05992c0-.74527-.64994-.73227-1.14173-.73227Z"/><path class="cls-8" d="M329.15393,54.99134c.4333.03683,1.05073-.04766,1.05073-.611a.64993.64993,0,0,0-.64819-.65168q-.02472-.00008-.0494.00174c-.507,0-.76909.37264-.76043.88176h-.95108a1.63332,1.63332,0,0,1,1.705-1.705,1.52082,1.52082,0,0,1,1.65518,1.36487.98139.98139,0,0,1-.6911,1.0074v.01517a1.09625,1.09625,0,0,1,.86659,1.12007,1.83848,1.83848,0,0,1-3.6635-.17549h.95108c.02166.53512.29031.97058.86658.97058a.75824.75824,0,0,0,.80256-.7112q.00189-.03108.00121-.06223c0-.74743-.64994-.73226-1.14173-.73226Z"/><path class="cls-8" d="M334.29062,57.92906h-1.24788l-1.63351-5.02836h1.13956l1.12006,3.53567h.01516l1.12872-3.53567h1.14173Z"/><path class="cls-8" d="M337.50781,54.99134c.4333.03683,1.05073-.04766,1.05073-.611a.64993.64993,0,0,0-.64819-.65168q-.02472-.00008-.0494.00174c-.507,0-.76909.37264-.76043.88176h-.95108a1.63333,1.63333,0,0,1,1.705-1.705,1.52082,1.52082,0,0,1,1.65518,1.36487.98139.98139,0,0,1-.6911,1.0074v.01517a1.09625,1.09625,0,0,1,.86659,1.12007,1.83848,1.83848,0,0,1-3.6635-.17549h.95759c.02166.53512.29031.97058.86658.97058a.75824.75824,0,0,0,.80256-.7112q.00189-.03108.0012-.06223c0-.74743-.64993-.73226-1.14173-.73226Z"/><polygon class="cls-5" points="330.456 140.432 341.163 140.432 346.522 145.045 341.163 149.653 330.456 149.653 325.096 145.045 330.456 140.432"/><path class="cls-8" d="M330.55563,146.72372a1.68983,1.68983,0,0,1-1.3757.68894,2.63975,2.63975,0,0,1,0-5.26884,2.01076,2.01076,0,0,1,2.121,1.77433h-1.05723a1.02474,1.02474,0,0,0-1.06373-.84493c-.99441,0-1.367.84493-1.367,1.73317,0,.83842.37263,1.68335,1.367,1.68335a1.08289,1.08289,0,0,0,1.19806-1.08323h-1.11357v-.82325h2.11231v2.7189h-.7041Z"/><path class="cls-8" d="M332.26714,142.263h1.0984l2.09713,3.37534h.01517V142.263h1.03558v5.03052h-1.10706l-2.09065-3.36668h-.0195v3.36668h-1.03558Z"/><path class="cls-8" d="M337.48616,142.263h2.16646a2.20755,2.20755,0,0,1,2.28129,2.4871,2.23476,2.23476,0,0,1-2.28129,2.54342h-2.16646Zm1.10705,4.10112h.98574c.64994,0,1.25438-.3943,1.25438-1.51653,0-1.0139-.35963-1.66384-1.45153-1.66384h-.7886Z"/><path class="cls-8" d="M300.42013,40.90933a1.469,1.469,0,0,1,1.64651,1.32371,1.02906,1.02906,0,0,1-.7171,1.03556v.02384a1.146,1.146,0,0,1,.92291,1.20455,1.65172,1.65172,0,0,1-1.84583,1.549c-.92291,0-1.874-.47879-1.874-1.54252a1.16555,1.16555,0,0,1,.9294-1.21105v-.01517a.98359.98359,0,0,1-.72576-1.0139A1.49887,1.49887,0,0,1,300.42013,40.90933Zm0,4.37409a.81026.81026,0,0,0,.84448-.77453q.00124-.02868.00045-.05739a.79726.79726,0,0,0-.80447-.79l-.04046.00139a.779.779,0,0,0-.86659.7821.83193.83193,0,0,0,.82656.83725q.02326.00015.04653-.001Zm0-2.29a.66977.66977,0,1,0,0-1.33237.68676.68676,0,0,0-.75063.61632q-.00324.033-.0033.06611a.674.674,0,0,0,.75393.64778Z"/><path class="cls-8" d="M299.25674,58.32769H298.258V55.13h-1.24138v-.75393c.6976.0195,1.33238-.21664,1.445-.97924h.79509Z"/><path class="cls-8" d="M302.36344,53.29716c.98574,0,1.81767.61961,1.81767,2.54343,0,1.965-.83193,2.58459-1.81767,2.58459s-1.8025-.61961-1.8025-2.58459C300.561,53.90811,301.38421,53.29716,302.36344,53.29716Zm0,4.30476c.81676,0,.81676-1.20455.81676-1.76133,0-.51345,0-1.718-.81676-1.718s-.80376,1.20456-.80376,1.718C301.55969,56.39737,301.55969,57.60192,302.36344,57.60192Z"/><path class="cls-8" d="M299.25674,83.94179h-1.00091v-3.1977h-1.23921v-.75394c.6976.02167,1.33238-.21664,1.445-.97923h.79509Z"/><path class="cls-8" d="M302.61042,82.80006h-2.0863v-.91425l2.14263-2.87489h.89475V81.9768h.64994v.82326h-.64994v1.14172h-.95108Zm0-2.53477h-.02166l-1.276,1.71151h1.29988Z"/><path class="cls-8" d="M296.75665,119.21614a1.7529,1.7529,0,0,1,1.7895-1.99314,1.56842,1.56842,0,0,1,1.68983,1.54252c0,1.49269-1.58368,1.61185-2.303,2.62792h2.33112V122.26H296.644c0-1.14822.7041-1.62051,1.55551-2.20329.4333-.30331,1.03558-.60011,1.03558-1.20672a.70844.70844,0,0,0-.73876-.76043c-.59144,0-.78209.61311-.78209,1.13523Z"/><path class="cls-8" d="M302.36344,117.223c.98574,0,1.81767.6196,1.81767,2.54125,0,1.96716-.83193,2.58676-1.81767,2.58676s-1.80467-.6196-1.80467-2.58676C300.55879,117.8426,301.38421,117.223,302.36344,117.223Zm0,4.30259c.81676,0,.81676-1.20455.81676-1.76134,0-.51345,0-1.718-.81676-1.718s-.80376,1.20455-.80376,1.718C301.55969,120.321,301.55969,121.52559,302.36344,121.52559Z"/><path class="cls-8" d="M296.75665,145.03605a1.75291,1.75291,0,0,1,1.7895-1.99315,1.56972,1.56972,0,0,1,1.68983,1.54252c0,1.49487-1.58368,1.614-2.303,2.62793h2.33112v.86658H296.644c0-1.14822.7041-1.62051,1.55768-2.20546.4333-.30331,1.03558-.59794,1.03558-1.20455a.70848.70848,0,0,0-.74093-.76043c-.59144,0-.78209.61311-.78209,1.133Z"/><path class="cls-8" d="M302.61042,146.93171h-2.0863v-.91641l2.14263-2.87273h.89475v2.96588h.64994v.82326h-.64994v1.14173h-.95108Zm0-2.53477h-.02166l-1.27388,1.71151h1.29988Z"/><path class="cls-8" d="M318.10714,41.36645a6.78966,6.78966,0,0,0-1.81116,4.57124h-1.19806a8.07444,8.07444,0,0,1,1.85883-4.49325h-2.63009V40.40237h3.78048Z"/><path class="cls-6" d="M324.99865,12.61965h5.22767a1.30422,1.30422,0,0,1,1.30422,1.30422v6.612a1.30421,1.30421,0,0,1-1.30421,1.30421h-5.22767a1.30422,1.30422,0,0,1-1.30422-1.30422v-6.612A1.30421,1.30421,0,0,1,324.99865,12.61965Z"/><polygon class="cls-6" points="337.523 12.62 328.251 12.62 323.612 17.232 328.251 21.84 337.523 21.84 342.166 17.232 337.523 12.62"/><path class="cls-8" d="M326.64516,14.45031h1.0984l2.09931,3.37535h.01516V14.45031h1.03558v5.03053h-1.10707l-2.0928-3.36669h-.013v3.36669h-1.03558Z"/><path class="cls-8" d="M335.21786,16.14232a1.09839,1.09839,0,0,0-1.0984-.88175c-.99441,0-1.367.84492-1.367,1.73317,0,.83842.37262,1.68334,1.367,1.68334a1.12652,1.12652,0,0,0,1.13956-1.12656h1.08324a2.11511,2.11511,0,0,1-2.212,2.056,2.42991,2.42991,0,0,1-2.47409-2.61275,2.44283,2.44283,0,0,1,2.47409-2.65609,2.04274,2.04274,0,0,1,2.16647,1.81117Z"/><path class="cls-6" d="M324.99865,25.62276h5.22767a1.30422,1.30422,0,0,1,1.30422,1.30422v6.612a1.30421,1.30421,0,0,1-1.30421,1.30421h-5.22767a1.30422,1.30422,0,0,1-1.30422-1.30422V26.927A1.30421,1.30421,0,0,1,324.99865,25.62276Z"/><polygon class="cls-6" points="337.523 25.623 328.251 25.623 323.612 30.235 328.251 34.841 337.523 34.841 342.166 30.235 337.523 25.623"/><path class="cls-8" d="M326.64516,27.45342h1.0984l2.09931,3.37318h.01516V27.45342h1.03558v5.02837h-1.10707l-2.0928-3.36669h-.013v3.36669h-1.03558Z"/><path class="cls-8" d="M335.21786,29.14326a1.09623,1.09623,0,0,0-1.0984-.87958c-.99441,0-1.367.84492-1.367,1.73317,0,.83842.37262,1.68334,1.367,1.68334a1.12652,1.12652,0,0,0,1.13956-1.12656h1.08324a2.11688,2.11688,0,0,1-2.212,2.05814,2.43168,2.43168,0,0,1-2.47409-2.61492,2.444,2.444,0,0,1,2.47409-2.65608,2.04274,2.04274,0,0,1,2.16647,1.81116Z"/><path class="cls-6" d="M286.71725,25.62059h5.22767a1.30422,1.30422,0,0,1,1.30422,1.30422v6.612a1.30421,1.30421,0,0,1-1.30421,1.30421h-5.22767a1.30422,1.30422,0,0,1-1.30422-1.30422v-6.612A1.30421,1.30421,0,0,1,286.71725,25.62059Z"/><polygon class="cls-6" points="279.347 25.623 288.622 25.623 293.262 30.237 288.622 34.843 279.347 34.843 274.711 30.237 279.347 25.623"/><path class="cls-8" d="M280.766,27.45342h1.10057l2.0993,3.37535h.013V27.45342h1.03558V32.484h-1.11358l-2.0928-3.36668h-.01517V32.484h-1.03557Z"/><path class="cls-8" d="M289.33866,29.14543a1.09622,1.09622,0,0,0-1.09839-.88175c-.99225,0-1.367.84709-1.367,1.73317,0,.83842.37479,1.68334,1.367,1.68334a1.12836,1.12836,0,0,0,1.14173-1.12656h1.07023a2.11383,2.11383,0,0,1-2.212,2.056,2.42944,2.42944,0,0,1-2.47193-2.61276,2.44351,2.44351,0,0,1,2.47193-2.65608,2.04137,2.04137,0,0,1,2.16646,1.81116Z"/><path class="cls-6" d="M286.71725,38.61721h5.22767a1.30422,1.30422,0,0,1,1.30422,1.30422v6.612a1.30421,1.30421,0,0,1-1.30421,1.30421h-5.22767a1.30422,1.30422,0,0,1-1.30422-1.30422v-6.612A1.30421,1.30421,0,0,1,286.71725,38.61721Z"/><polygon class="cls-6" points="279.347 38.619 288.622 38.619 293.262 43.232 288.622 47.84 279.347 47.84 274.711 43.232 279.347 38.619"/><path class="cls-8" d="M280.766,40.45h1.10057l2.0993,3.37535h.013V40.45h1.03558v5.03053h-1.11358l-2.0928-3.36669h-.01517v3.36669h-1.03557Z"/><path class="cls-8" d="M289.33866,42.142a1.09622,1.09622,0,0,0-1.09839-.88175c-.99225,0-1.367.84492-1.367,1.73317,0,.83842.37479,1.68335,1.367,1.68335a1.12836,1.12836,0,0,0,1.14173-1.12656h1.07023a2.11382,2.11382,0,0,1-2.212,2.056,2.63975,2.63975,0,0,1,0-5.26884,2.04137,2.04137,0,0,1,2.16646,1.81117Z"/><path class="cls-6" d="M286.71725,51.05163h5.22767a1.30422,1.30422,0,0,1,1.30422,1.30422v6.612a1.30421,1.30421,0,0,1-1.30421,1.30421h-5.22767a1.30422,1.30422,0,0,1-1.30422-1.30422v-6.612A1.30421,1.30421,0,0,1,286.71725,51.05163Z"/><polygon class="cls-6" points="279.347 51.054 288.622 51.054 293.262 55.666 288.622 60.274 279.347 60.274 274.711 55.666 279.347 51.054"/><path class="cls-8" d="M280.766,52.88446h1.10057l2.0993,3.37535h.013V52.88446h1.03558V57.915h-1.11358l-2.0928-3.36668h-.01517V57.915h-1.03557Z"/><path class="cls-8" d="M289.33866,54.57647a1.09621,1.09621,0,0,0-1.09839-.88175c-.99225,0-1.367.84492-1.367,1.73317,0,.83842.37479,1.68334,1.367,1.68334a1.12836,1.12836,0,0,0,1.14173-1.12656h1.07023a2.11382,2.11382,0,0,1-2.212,2.056,2.63975,2.63975,0,0,1,0-5.26883,2.04137,2.04137,0,0,1,2.16646,1.81116Z"/><path class="cls-6" d="M286.71724,12.81246h5.22767a1.30422,1.30422,0,0,1,1.30422,1.30422v6.612a1.30421,1.30421,0,0,1-1.30421,1.30421h-5.22767a1.30422,1.30422,0,0,1-1.30422-1.30422v-6.612A1.30421,1.30421,0,0,1,286.71724,12.81246Z"/><polygon class="cls-6" points="279.347 12.817 288.622 12.817 293.262 17.429 288.622 22.035 279.347 22.035 274.711 17.429 279.347 12.817"/><path class="cls-8" d="M280.766,14.64529h1.10057l2.0993,3.37535h.013V14.64529h1.03558V19.678h-1.11358l-2.0928-3.36669h-.01517V19.678h-1.03557Z"/><path class="cls-8" d="M289.33866,16.3373a1.09623,1.09623,0,0,0-1.10489-.88175c-.99224,0-1.367.84709-1.367,1.73317,0,.83842.37479,1.68334,1.367,1.68334a1.12834,1.12834,0,0,0,1.14173-1.12656h1.07024a2.11383,2.11383,0,0,1-2.212,2.056,2.42944,2.42944,0,0,1-2.47193-2.61275,2.44351,2.44351,0,0,1,2.47193-2.65608,2.04137,2.04137,0,0,1,2.16647,1.81116Z"/><path class="cls-6" d="M286.72592,101.49664h5.22767a1.30422,1.30422,0,0,1,1.30422,1.30422v6.612a1.30422,1.30422,0,0,1-1.30422,1.30422h-5.22766a1.30422,1.30422,0,0,1-1.30422-1.30422v-6.61205A1.30421,1.30421,0,0,1,286.72592,101.49664Z"/><polygon class="cls-6" points="279.358 101.499 288.63 101.499 293.273 106.111 288.63 110.719 279.358 110.719 274.722 106.111 279.358 101.499"/><path class="cls-8" d="M280.77681,103.32947h1.0984l2.0993,3.37534h.013v-3.37534h1.03558V108.36H283.9182l-2.0928-3.36669h-.013V108.36h-1.03558Z"/><path class="cls-8" d="M289.34951,105.02147a1.10057,1.10057,0,0,0-1.10057-.88175c-.99224,0-1.36487.84492-1.36487,1.73317,0,.83842.37263,1.68335,1.36487,1.68335a1.12835,1.12835,0,0,0,1.14173-1.12657h1.07023a2.11383,2.11383,0,0,1-2.212,2.056,2.63975,2.63975,0,0,1,0-5.26884,2.04,2.04,0,0,1,2.16646,1.81116Z"/><rect class="cls-6" x="285.42171" y="114.59724" width="7.83609" height="9.22047" rx="1.30422"/><polygon class="cls-6" points="279.358 114.599 288.63 114.599 293.273 119.212 288.63 123.82 279.358 123.82 274.722 119.212 279.358 114.599"/><path class="cls-8" d="M280.77681,116.43008h1.0984l2.0993,3.37535h.013v-3.37535h1.03558v5.03052H283.9182l-2.0928-3.36668h-.013v3.36668h-1.03558Z"/><path class="cls-8" d="M289.34951,118.12208a1.10058,1.10058,0,0,0-1.10057-.88175c-.99224,0-1.36487.84708-1.36487,1.73317,0,.83842.37263,1.68335,1.36487,1.68335a1.12835,1.12835,0,0,0,1.14173-1.12657h1.07023a2.11383,2.11383,0,0,1-2.212,2.056,2.63975,2.63975,0,0,1,0-5.26884,2.04,2.04,0,0,1,2.16646,1.81116Z"/><rect class="cls-6" x="285.42171" y="127.72384" width="7.83609" height="9.22047" rx="1.30422"/><path class="cls-6" d="M324.98348,101.69379h5.22767a1.30422,1.30422,0,0,1,1.30422,1.30422v6.612a1.30422,1.30422,0,0,1-1.30422,1.30422h-5.22766a1.30422,1.30422,0,0,1-1.30422-1.30422v-6.612A1.30421,1.30421,0,0,1,324.98348,101.69379Z"/><polygon class="cls-6" points="279.358 127.726 288.63 127.726 293.273 132.341 288.63 136.946 279.358 136.946 274.722 132.341 279.358 127.726"/><path class="cls-8" d="M280.77681,129.55667h1.0984l2.0993,3.37535h.013v-3.37535h1.03558v5.03053H283.9182l-2.0928-3.36668h-.013v3.36668h-1.03558Z"/><path class="cls-8" d="M289.34951,131.25085a1.10058,1.10058,0,0,0-1.10057-.88176c-.99224,0-1.36487.84493-1.36487,1.73317,0,.83842.37263,1.68335,1.36487,1.68335a1.12834,1.12834,0,0,0,1.14173-1.12656h1.07023a2.11382,2.11382,0,0,1-2.212,2.056,2.63975,2.63975,0,0,1,0-5.26884,2.04,2.04,0,0,1,2.16646,1.81116Z"/><rect class="cls-7" x="285.42171" y="140.43015" width="7.83609" height="9.22047" rx="1.30422"/><polygon class="cls-7" points="279.358 140.432 288.63 140.432 293.273 145.047 288.63 149.653 279.358 149.653 274.722 145.047 279.358 140.432"/><polygon class="cls-7" points="262.819 140.432 274.539 140.432 280.407 145.047 274.539 149.653 262.819 149.653 256.959 145.047 262.819 140.432"/><polygon class="cls-7" points="268.189 140.432 279.909 140.432 285.777 145.047 279.909 149.653 268.189 149.653 262.329 145.047 268.189 140.432"/><polygon class="cls-7" points="256.854 140.432 266.126 140.432 270.769 145.047 266.126 149.653 256.854 149.653 252.218 145.047 256.854 140.432"/><polygon class="cls-6" points="337.523 38.589 328.251 38.589 323.612 43.201 328.251 47.803 337.523 47.803 342.166 43.201 337.523 38.589"/><path class="cls-6" d="M324.98349,38.61721h5.22767a1.30422,1.30422,0,0,1,1.30422,1.30422v6.612a1.30421,1.30421,0,0,1-1.30421,1.30421h-5.22767a1.30422,1.30422,0,0,1-1.30422-1.30422v-6.612A1.30421,1.30421,0,0,1,324.98349,38.61721Z"/><path class="cls-8" d="M326.64516,40.41754h1.0984l2.09931,3.37535h.01516V40.41754h1.03558V45.4589h-1.10707l-2.0928-3.36885h-.013V45.4589h-1.03558Z"/><path class="cls-8" d="M335.21786,42.10738a1.09838,1.09838,0,0,0-1.0984-.87958c-.99441,0-1.367.84492-1.367,1.73317,0,.83842.37262,1.68334,1.367,1.68334a1.12838,1.12838,0,0,0,1.13956-1.12873h1.08324a2.11548,2.11548,0,0,1-2.212,2.05814,2.63961,2.63961,0,0,1,0-5.26884,2.04263,2.04263,0,0,1,2.16647,1.809Z"/><polygon class="cls-6" points="337.523 101.72 328.251 101.72 323.612 106.332 328.251 110.94 337.523 110.94 342.166 106.332 337.523 101.72"/><path class="cls-8" d="M326.64516,103.55261h1.0984l2.09931,3.37319h.01516v-3.37319h1.03558v5.03053h-1.10707l-2.0928-3.36885h-.013v3.36885h-1.03558Z"/><path class="cls-8" d="M335.21786,105.25329a1.09623,1.09623,0,0,0-1.0984-.87959c-.99441,0-1.367.84492-1.367,1.73317,0,.83625.37262,1.68335,1.367,1.68335a1.12838,1.12838,0,0,0,1.13956-1.12873h1.08324a2.11548,2.11548,0,0,1-2.212,2.05814,2.63961,2.63961,0,0,1,0-5.26884,2.04263,2.04263,0,0,1,2.16647,1.809Z"/><path class="cls-6" d="M324.98348,88.94632h5.22767a1.30422,1.30422,0,0,1,1.30422,1.30422v6.612a1.30422,1.30422,0,0,1-1.30422,1.30422h-5.22766a1.30422,1.30422,0,0,1-1.30422-1.30422v-6.612A1.30421,1.30421,0,0,1,324.98348,88.94632Z"/><polygon class="cls-6" points="337.523 88.972 328.251 88.972 323.612 93.585 328.251 98.193 337.523 98.193 342.166 93.585 337.523 88.972"/><path class="cls-8" d="M326.64516,90.80514h1.0984l2.09931,3.37319h.01516V90.80514h1.03558v5.03053h-1.10707l-2.0928-3.36885h-.013v3.36885h-1.03558Z"/><path class="cls-8" d="M335.21786,92.50582a1.09624,1.09624,0,0,0-1.0984-.87959c-.99441,0-1.367.84492-1.367,1.73317,0,.83626.37262,1.68335,1.367,1.68335A1.12838,1.12838,0,0,0,335.259,93.914h1.08324a2.11548,2.11548,0,0,1-2.212,2.05814,2.63961,2.63961,0,0,1,0-5.26884,2.04263,2.04263,0,0,1,2.16647,1.809Z"/><rect class="cls-6" x="323.67928" y="114.58424" width="7.83609" height="9.22047" rx="1.30422"/><polygon class="cls-6" points="337.523 114.61 328.251 114.61 323.612 119.223 328.251 123.831 337.523 123.831 342.166 119.223 337.523 114.61"/><path class="cls-8" d="M326.64516,116.44307h1.0984l2.09931,3.37319h.01516v-3.37319h1.03558v5.02837h-1.10707l-2.0928-3.36668h-.013v3.36668h-1.03558Z"/><path class="cls-8" d="M335.21786,118.13291a1.09623,1.09623,0,0,0-1.0984-.87958c-.99441,0-1.367.84493-1.367,1.73317,0,.83842.37262,1.68551,1.367,1.68551a1.12838,1.12838,0,0,0,1.13956-1.12873h1.08324a2.11688,2.11688,0,0,1-2.212,2.05814,2.64077,2.64077,0,0,1,0-5.271,2.04274,2.04274,0,0,1,2.16647,1.81116Z"/><rect class="cls-6" x="323.67928" y="127.91233" width="7.83609" height="9.22047" rx="1.30422"/><polygon class="cls-6" points="337.523 127.938 328.251 127.938 323.612 132.551 328.251 137.157 337.523 137.157 342.166 132.551 337.523 127.938"/><path class="cls-8" d="M326.64516,129.769h1.0984l2.09931,3.37535h.01516V129.769h1.03558v5.03052h-1.10707l-2.0928-3.36668h-.013v3.36668h-1.03558Z"/><path class="cls-8" d="M335.21786,131.46749a1.0984,1.0984,0,0,0-1.0984-.88175c-.99441,0-1.367.84493-1.367,1.73317,0,.83842.37262,1.68335,1.367,1.68335a1.12653,1.12653,0,0,0,1.13956-1.12657h1.08324a2.1151,2.1151,0,0,1-2.212,2.056,2.63961,2.63961,0,0,1,0-5.26884,2.04274,2.04274,0,0,1,2.16647,1.81116Z"/><path class="cls-8" d="M314.92027,83.94179H313.798V80.352h-1.39087V79.507c.78209.02382,1.49487-.25348,1.62051-1.10056h.89475Z"/><path class="cls-8" d="M318.02047,80.64443c.481.039,1.17639-.05416,1.17639-.68677a.7301.7301,0,0,0-.7217-.73841q-.03021-.00034-.06039.00181a.85159.85159,0,0,0-.85358.98791h-1.06807a1.83476,1.83476,0,0,1,1.913-1.913,1.7084,1.7084,0,0,1,1.85883,1.53386,1.09837,1.09837,0,0,1-.7756,1.13089v.01517a1.23055,1.23055,0,0,1,.98142,1.25871,2.06362,2.06362,0,0,1-4.11195-.19714h1.06807c.02383.60011.325,1.08323.97274,1.08323a.8514.8514,0,0,0,.89993-.8q.002-.03328.00131-.06662c0-.83842-.7366-.82326-1.28037-.82326Z"/><path class="cls-8" d="M314.92027,96.60693H313.798V93.0171h-1.39087v-.84492c.78209.02383,1.49487-.25348,1.62051-1.10056h.89475Z"/><path class="cls-8" d="M320.1696,91.9967h-2.28344l-.21665,1.25871.01733.01517a1.406,1.406,0,0,1,1.08324-.43329,1.71789,1.71789,0,0,1,1.70717,1.88265,2.00181,2.00181,0,0,1-2.01189,1.99169l-.04408-.00071a1.8433,1.8433,0,0,1-2.056-1.75483H317.481a.88391.88391,0,0,0,.90991.82975,1.00159,1.00159,0,0,0,.95758-1.0659.96462.96462,0,0,0-.95758-1.03557.91641.91641,0,0,0-.84492.43329h-1.0139l.546-3.06121h3.09155Z"/><path class="cls-8" d="M329.2236,70.57474a2.95946,2.95946,0,0,1-.8877-.11914,1.70727,1.70727,0,0,1-.62793-.34424,1.657,1.657,0,0,1-.53369-1.3125h1.11621a1.03235,1.03235,0,0,0,.22461.62842.81647.81647,0,0,0,.65967.24219.78334.78334,0,0,0,.5581-.18262.63619.63619,0,0,0,.19288-.48437.55512.55512,0,0,0-.21045-.47364,1.00578,1.00578,0,0,0-.61084-.15771h-.2876v-.82129h.25976a.91485.91485,0,0,0,.54-.144.47885.47885,0,0,0,.20362-.41748.51259.51259,0,0,0-.165-.39649.6664.6664,0,0,0-.46631-.15088.70334.70334,0,0,0-.56543.21045.88019.88019,0,0,0-.19971.52637h-1.10205a1.76338,1.76338,0,0,1,.1333-.65625,1.42961,1.42961,0,0,1,.36524-.51221,1.68483,1.68483,0,0,1,.58593-.33349,2.44552,2.44552,0,0,1,.79639-.11915,2.69,2.69,0,0,1,.72656.09131,1.67747,1.67747,0,0,1,.56153.26661,1.20273,1.20273,0,0,1,.49463.99658.88012.88012,0,0,1-.20362.60351,1.33049,1.33049,0,0,1-.52636.35791v.01416a1.26181,1.26181,0,0,1,.63525.40674,1.18506,1.18506,0,0,1,.23535.77246,1.38662,1.38662,0,0,1-.1543.66992,1.36224,1.36224,0,0,1-.418.47022,1.86784,1.86784,0,0,1-.60694.27734A2.8002,2.8002,0,0,1,329.2236,70.57474Z"/><path class="cls-8" d="M331.26608,65.44437h1.2915l.78613,2.63184q.04176.14063.08057.29492c.02588.10254.05029.19873.07373.2876q.03516.15453.07715.30175h.01416c.02832-.09814.05371-.19873.07715-.30175.02344-.08887.04785-.18506.07373-.2876q.03882-.15454.08057-.29492l.77929-2.63184h1.25635L334.207,70.46244h-1.28467Z"/><path class="cls-8" d="M337.99655,70.57474a2.95946,2.95946,0,0,1-.8877-.11914,1.70727,1.70727,0,0,1-.62793-.34424,1.65694,1.65694,0,0,1-.53369-1.3125h1.11621a1.03235,1.03235,0,0,0,.22461.62842.81645.81645,0,0,0,.65967.24219.78334.78334,0,0,0,.5581-.18262.63619.63619,0,0,0,.19288-.48437.55512.55512,0,0,0-.21045-.47364,1.00578,1.00578,0,0,0-.61084-.15771h-.2876v-.82129h.25976a.91485.91485,0,0,0,.54-.144.47885.47885,0,0,0,.20362-.41748.51259.51259,0,0,0-.165-.39649.6664.6664,0,0,0-.46631-.15088.70334.70334,0,0,0-.56543.21045.88019.88019,0,0,0-.19971.52637h-1.102a1.76338,1.76338,0,0,1,.1333-.65625,1.42949,1.42949,0,0,1,.36524-.51221,1.68483,1.68483,0,0,1,.58593-.33349,2.44552,2.44552,0,0,1,.79639-.11915,2.69,2.69,0,0,1,.72656.09131,1.67747,1.67747,0,0,1,.56153.26661,1.20273,1.20273,0,0,1,.49463.99658.88017.88017,0,0,1-.20362.60351,1.33045,1.33045,0,0,1-.52637.35791v.01416a1.26184,1.26184,0,0,1,.63526.40674,1.18506,1.18506,0,0,1,.23535.77246,1.38662,1.38662,0,0,1-.1543.66992,1.36217,1.36217,0,0,1-.418.47022,1.86769,1.86769,0,0,1-.60693.27734A2.8002,2.8002,0,0,1,337.99655,70.57474Z"/><path class="cls-8" d="M340.03219,70.93949h3.06006v.709h-3.06006Z"/><path class="cls-8" d="M345.41549,70.58158a3.56033,3.56033,0,0,1-.90918-.1084,2.06677,2.06677,0,0,1-.70166-.32324,1.51385,1.51385,0,0,1-.45605-.53321,1.63551,1.63551,0,0,1-.17188-.73339h1.249a.72044.72044,0,0,0,.28759.54736,1.22146,1.22146,0,0,0,.69532.16846,1.56388,1.56388,0,0,0,.29785-.02784.86041.86041,0,0,0,.25635-.09131.54551.54551,0,0,0,.18261-.165.41877.41877,0,0,0,.07031-.24219.39979.39979,0,0,0-.07373-.24561.59461.59461,0,0,0-.21435-.16845,1.75963,1.75963,0,0,0-.34375-.12305q-.20361-.05274-.46338-.11572-.32959-.07691-.64893-.1753a2.17181,2.17181,0,0,1-.57226-.2666,1.35931,1.35931,0,0,1-.41065-.42822,1.24072,1.24072,0,0,1-.15771-.65283,1.45664,1.45664,0,0,1,.1543-.69141,1.36653,1.36653,0,0,1,.42089-.48047,1.8541,1.8541,0,0,1,.63184-.28076,3.22349,3.22349,0,0,1,.78613-.09131,2.92737,2.92737,0,0,1,.76172.09473,1.86823,1.86823,0,0,1,.61719.28418,1.41458,1.41458,0,0,1,.42139.48095,1.58921,1.58921,0,0,1,.17871.68409h-1.21387a.62065.62065,0,0,0-.24561-.44922.92878.92878,0,0,0-.56152-.1543.9427.9427,0,0,0-.52637.12988.3918.3918,0,0,0-.19677.34034.33412.33412,0,0,0,.07373.22119.58907.58907,0,0,0,.21435.15088,2.10641,2.10641,0,0,0,.354.11572c.14306.03516.30761.07373.49511.11572q.35083.08423.67041.18945a2.11456,2.11456,0,0,1,.56495.28077,1.33172,1.33172,0,0,1,.39306.44238,1.36515,1.36515,0,0,1,.147.6665,1.45555,1.45555,0,0,1-.59277,1.21094,2.03062,2.03062,0,0,1-.65283.31592A2.91237,2.91237,0,0,1,345.41549,70.58158Z"/><path class="cls-8" d="M271.95065,83.59916a2.95912,2.95912,0,0,1-.8877-.11915,1.70726,1.70726,0,0,1-.62793-.34423,1.657,1.657,0,0,1-.53369-1.3125h1.11621a1.03232,1.03232,0,0,0,.22461.62841.81643.81643,0,0,0,.65967.24219.78333.78333,0,0,0,.55811-.18262.63622.63622,0,0,0,.19287-.48437.5551.5551,0,0,0-.21045-.47363,1.00578,1.00578,0,0,0-.61084-.15772h-.2876v-.82129h.25977a.91484.91484,0,0,0,.54-.144.47883.47883,0,0,0,.20362-.41748.51257.51257,0,0,0-.165-.39648.66633.66633,0,0,0-.46631-.15088.70334.70334,0,0,0-.56543.21045.88014.88014,0,0,0-.19971.52636h-1.10205a1.76357,1.76357,0,0,1,.1333-.65625,1.42949,1.42949,0,0,1,.36524-.5122,1.6848,1.6848,0,0,1,.58594-.3335,2.44546,2.44546,0,0,1,.79638-.11914,2.68956,2.68956,0,0,1,.72656.09131,1.67726,1.67726,0,0,1,.56153.2666,1.20273,1.20273,0,0,1,.49463.99658.88014.88014,0,0,1-.20362.60352,1.33069,1.33069,0,0,1-.52636.35791v.01416a1.26175,1.26175,0,0,1,.63525.40674,1.185,1.185,0,0,1,.23535.77246,1.38676,1.38676,0,0,1-.15429.66992,1.36233,1.36233,0,0,1-.418.47021,1.86786,1.86786,0,0,1-.60694.27735A2.80063,2.80063,0,0,1,271.95065,83.59916Z"/><path class="cls-8" d="M273.99313,78.46878h1.2915l.78614,2.63184q.04174.14063.08056.29492c.02588.10254.05029.19873.07373.2876q.03516.15454.07715.30176h.01416c.02832-.09815.05371-.19873.07715-.30176.02344-.08887.04785-.18506.07373-.2876q.03882-.15454.08057-.29492l.77929-2.63184h1.25635l-1.64941,5.01807h-1.28467Z"/><path class="cls-8" d="M280.7236,83.59916a2.95912,2.95912,0,0,1-.8877-.11915,1.70726,1.70726,0,0,1-.62793-.34423,1.657,1.657,0,0,1-.53369-1.3125h1.11621a1.03232,1.03232,0,0,0,.22461.62841.81643.81643,0,0,0,.65967.24219.78329.78329,0,0,0,.5581-.18262.63619.63619,0,0,0,.19288-.48437.5551.5551,0,0,0-.21045-.47363,1.00578,1.00578,0,0,0-.61084-.15772h-.2876v-.82129h.25976a.91485.91485,0,0,0,.54-.144.47883.47883,0,0,0,.20362-.41748.51257.51257,0,0,0-.165-.39648.66635.66635,0,0,0-.46631-.15088.70334.70334,0,0,0-.56543.21045.88014.88014,0,0,0-.19971.52636h-1.10205a1.76338,1.76338,0,0,1,.1333-.65625,1.42949,1.42949,0,0,1,.36524-.5122,1.68484,1.68484,0,0,1,.58593-.3335,2.44553,2.44553,0,0,1,.79639-.11914,2.68956,2.68956,0,0,1,.72656.09131,1.67726,1.67726,0,0,1,.56153.2666,1.20273,1.20273,0,0,1,.49463.99658.88014.88014,0,0,1-.20362.60352,1.33069,1.33069,0,0,1-.52636.35791v.01416a1.26175,1.26175,0,0,1,.63525.40674,1.185,1.185,0,0,1,.23535.77246,1.38665,1.38665,0,0,1-.1543.66992,1.36221,1.36221,0,0,1-.418.47021,1.86786,1.86786,0,0,1-.60694.27735A2.80063,2.80063,0,0,1,280.7236,83.59916Z"/><path class="cls-8" d="M282.75924,83.9639h3.06006v.709h-3.06006Z"/><path class="cls-8" d="M288.14254,83.606a3.55988,3.55988,0,0,1-.90918-.1084,2.06648,2.06648,0,0,1-.70166-.32324,1.51382,1.51382,0,0,1-.45605-.5332,1.63552,1.63552,0,0,1-.17188-.7334h1.249a.72042.72042,0,0,0,.28759.54736,1.22138,1.22138,0,0,0,.69532.16846,1.56461,1.56461,0,0,0,.29785-.02783.861.861,0,0,0,.25635-.09131.54554.54554,0,0,0,.18261-.165.41875.41875,0,0,0,.07032-.24219.39985.39985,0,0,0-.07373-.2456.59476.59476,0,0,0-.21436-.16846,1.75963,1.75963,0,0,0-.34375-.123q-.20361-.05273-.46338-.11572-.3296-.0769-.64892-.17529a2.172,2.172,0,0,1-.57227-.2666,1.35944,1.35944,0,0,1-.41065-.42823,1.24069,1.24069,0,0,1-.15771-.65283,1.45664,1.45664,0,0,1,.1543-.69141,1.36643,1.36643,0,0,1,.4209-.48046,1.85378,1.85378,0,0,1,.63183-.28077,3.22356,3.22356,0,0,1,.78613-.0913,2.9278,2.9278,0,0,1,.76172.09472,1.86843,1.86843,0,0,1,.61719.28418,1.41461,1.41461,0,0,1,.42139.481,1.58917,1.58917,0,0,1,.17871.68408h-1.21387a.62068.62068,0,0,0-.2456-.44922.92883.92883,0,0,0-.56153-.15429.94261.94261,0,0,0-.52637.12988.39178.39178,0,0,0-.19677.34033.33409.33409,0,0,0,.07373.22119.58883.58883,0,0,0,.21435.15088,2.1058,2.1058,0,0,0,.354.11572c.14306.03516.30761.07373.49511.11573q.35084.08423.67041.18945a2.11424,2.11424,0,0,1,.565.28076,1.33182,1.33182,0,0,1,.39306.44238,1.36521,1.36521,0,0,1,.147.66651,1.45559,1.45559,0,0,1-.59278,1.21093,2.03042,2.03042,0,0,1-.65283.31592A2.912,2.912,0,0,1,288.14254,83.606Z"/><path class="cls-8" d="M261.06735,147.3848a2.25031,2.25031,0,0,1-1.583-.48779,1.78437,1.78437,0,0,1-.52295-1.37207v-3.24952h1.24268v3.29151a.86427.86427,0,0,0,.1997.59668.8499.8499,0,0,0,.66358.22461.81242.81242,0,0,0,.64209-.23535.88588.88588,0,0,0,.207-.60694v-3.27051h1.24219v3.24952a1.78972,1.78972,0,0,1-.52295,1.36523A2.20732,2.20732,0,0,1,261.06735,147.3848Z"/><path class="cls-8" d="M265.05368,142.27542H266.331l1.81055,5.01807h-1.30518l-.29492-.90527h-1.7544l-.28808.90527H263.25Zm1.20019,3.2212-.37939-1.21387c-.02344-.06543-.04639-.13818-.06983-.21777s-.04443-.15674-.06347-.23145q-.03516-.12671-.063-.25977H265.664q-.03516.13331-.06983.25977c-.02392.07471-.0459.15186-.06689.23145s-.04346.15234-.0669.21777l-.38574,1.21387Z"/><path class="cls-8" d="M268.49264,142.27542H270.893a2.44612,2.44612,0,0,1,.69483.09473,1.66049,1.66049,0,0,1,.5581.27686,1.29548,1.29548,0,0,1,.36865.45312,1.39318,1.39318,0,0,1,.1333.6211,1.19011,1.19011,0,0,1-.8706,1.21386v.021a1.06578,1.06578,0,0,1,.502.32666,1.21824,1.21824,0,0,1,.228.59277,3.79787,3.79787,0,0,1,.05273.481q.01026.23511.02442.42139a2.08146,2.08146,0,0,0,.04248.30859c.01855.082.04883.12988.09082.144v.063h-1.207a.2118.2118,0,0,1-.07373-.144,2.73779,2.73779,0,0,1-.042-.28076q-.01756-.16481-.03173-.35791-.01392-.19263-.042-.38233a.873.873,0,0,0-.24218-.5332.83516.83516,0,0,0-.59278-.18262h-.75146v1.88086h-1.24219Zm2.17578,2.21778a.8304.8304,0,0,0,.55811-.16162.56289.56289,0,0,0,.186-.44922.60182.60182,0,0,0-.1792-.44922.73891.73891,0,0,0-.53662-.17529h-.96191v1.23535Z"/><path class="cls-8" d="M274.40231,143.32816h-1.46v-1.05274h4.17627v1.05274H275.6445v3.96533h-1.24219Z"/><path class="cls-8" d="M277.21676,147.77054h3.06006v.709h-3.06006Z"/><path class="cls-8" d="M280.59909,142.27542h2.40039a2.44605,2.44605,0,0,1,.69482.09473,1.66054,1.66054,0,0,1,.55811.27686,1.2957,1.2957,0,0,1,.36865.45312,1.39318,1.39318,0,0,1,.1333.6211,1.19013,1.19013,0,0,1-.87061,1.21386v.021a1.06581,1.06581,0,0,1,.502.32666,1.21824,1.21824,0,0,1,.228.59277,3.79976,3.79976,0,0,1,.05274.481q.01024.23511.02441.42139a2.08413,2.08413,0,0,0,.04248.30859c.01856.082.04883.12988.09082.144v.063h-1.207a.21184.21184,0,0,1-.07373-.144,2.74085,2.74085,0,0,1-.042-.28076q-.01758-.16481-.03174-.35791-.01392-.19263-.042-.38233a.873.873,0,0,0-.24219-.5332.83511.83511,0,0,0-.59277-.18262h-.75147v1.88086h-1.24218Zm2.17578,2.21778a.83037.83037,0,0,0,.5581-.16162.56287.56287,0,0,0,.186-.44922.60182.60182,0,0,0-.1792-.44922.73891.73891,0,0,0-.53662-.17529h-.96192v1.23535Z"/><path class="cls-8" d="M286.64938,144.66166l-1.52295-2.38624h1.41748l.84912,1.45948h.01416l.86328-1.45948h1.34766l-1.48779,2.37208,1.66308,2.646h-1.4668l-.94042-1.69824H287.372l-.97558,1.69824H284.9858Z"/><path class="cls-8" d="M328.65524,79.40921h-1.46V78.35648h4.17627v1.05273h-1.47412v3.96534h-1.24219Z"/><path class="cls-8" d="M332.68356,83.48685a2.07656,2.07656,0,0,1-.78955-.144,1.75411,1.75411,0,0,1-.99658-1.00342,2.151,2.151,0,0,1,0-1.50928,1.75419,1.75419,0,0,1,.99658-1.00342,2.236,2.236,0,0,1,1.5791,0,1.76,1.76,0,0,1,.604.39991,1.80735,1.80735,0,0,1,.38575.60351,2.15116,2.15116,0,0,1,0,1.50928,1.80729,1.80729,0,0,1-.38575.60352,1.74625,1.74625,0,0,1-.604.3999A2.07656,2.07656,0,0,1,332.68356,83.48685Zm-.00684-.814a.638.638,0,0,0,.57227-.29834,1.43624,1.43624,0,0,0,.19287-.78955,1.45727,1.45727,0,0,0-.19287-.79346.63671.63671,0,0,0-.57227-.30176.62764.62764,0,0,0-.56836.30176,1.47515,1.47515,0,0,0-.18945.79346,1.45381,1.45381,0,0,0,.18945.78955A.62886.62886,0,0,0,332.67672,82.67289Z"/><path class="cls-8" d="M336.22116,83.48a1.18123,1.18123,0,0,1-.94385-.36865,1.43194,1.43194,0,0,1-.31934-.97217V79.78128h1.13721v2.11914a.68441.68441,0,0,0,.1333.45313.50365.50365,0,0,0,.40674.15771.57346.57346,0,0,0,.46338-.20019.78377.78377,0,0,0,.16845-.52246V79.78128h1.144v3.59327h-1.09473v-.44239h-.021a1.425,1.425,0,0,1-.4458.40723A1.26517,1.26517,0,0,1,336.22116,83.48Z"/><path class="cls-8" d="M340.706,83.48685a2.04823,2.04823,0,0,1-.78613-.144,1.74833,1.74833,0,0,1-.6001-.3999,1.80848,1.80848,0,0,1-.38623-.60352,2.03741,2.03741,0,0,1-.13672-.75439,2.09172,2.09172,0,0,1,.1333-.75489,1.79073,1.79073,0,0,1,.37891-.60351,1.73821,1.73821,0,0,1,.59326-.39991,2.01267,2.01267,0,0,1,.77539-.144,2.048,2.048,0,0,1,.66357.10205,1.59614,1.59614,0,0,1,.51563.28418,1.438,1.438,0,0,1,.35107.43506,1.67,1.67,0,0,1,.1753.55469h-1.10206a.78.78,0,0,0-.1997-.38965.52834.52834,0,0,0-.38965-.144.61414.61414,0,0,0-.55469.28418,1.42643,1.42643,0,0,0-.18213.77588,1.39063,1.39063,0,0,0,.18213.76464.61563.61563,0,0,0,.55469.28077q.54712,0,.62451-.61768h1.09522a1.55962,1.55962,0,0,1-.13721.5791,1.42016,1.42016,0,0,1-.34375.47022,1.58281,1.58281,0,0,1-.5332.3125A2.03761,2.03761,0,0,1,340.706,83.48685Z"/><path class="cls-8" d="M342.77633,78.35648h1.144v1.8667h.021a1.52253,1.52253,0,0,1,.4419-.40332,1.22,1.22,0,0,1,.62451-.144,1.30674,1.30674,0,0,1,.52685.10156,1.13852,1.13852,0,0,1,.39258.28076,1.20817,1.20817,0,0,1,.24609.42822,1.71278,1.71278,0,0,1,.084.55078v2.33741h-1.144V81.26908a.72209.72209,0,0,0-.14014-.46338.50855.50855,0,0,0-.42139-.17529.56277.56277,0,0,0-.45947.21044.83742.83742,0,0,0-.17188.54737v1.98633h-1.144Z"/><path class="cls-8" d="M272.644,66.49759h-1.46V65.44486h4.17627v1.05273H273.8862v3.96533H272.644Z"/><path class="cls-8" d="M276.67233,70.57523a2.07656,2.07656,0,0,1-.78955-.144,1.75419,1.75419,0,0,1-.99658-1.00342,2.151,2.151,0,0,1,0-1.50928,1.75419,1.75419,0,0,1,.99658-1.00342,2.236,2.236,0,0,1,1.5791,0,1.75985,1.75985,0,0,1,.604.39991,1.80707,1.80707,0,0,1,.38574.60351,2.151,2.151,0,0,1,0,1.50928,1.80707,1.80707,0,0,1-.38574.60351,1.74613,1.74613,0,0,1-.604.39991A2.07656,2.07656,0,0,1,276.67233,70.57523Zm-.00684-.814a.638.638,0,0,0,.57227-.29834,1.43622,1.43622,0,0,0,.19287-.78955,1.45726,1.45726,0,0,0-.19287-.79345.63671.63671,0,0,0-.57227-.30176.62764.62764,0,0,0-.56836.30176,1.47514,1.47514,0,0,0-.18945.79345,1.45378,1.45378,0,0,0,.18945.78955A.62884.62884,0,0,0,276.66549,69.76126Z"/><path class="cls-8" d="M280.20993,70.56839a1.18123,1.18123,0,0,1-.94385-.36865,1.43194,1.43194,0,0,1-.31934-.97217V66.86966H280.084V68.9888a.68441.68441,0,0,0,.1333.45313.50365.50365,0,0,0,.40674.15771.57346.57346,0,0,0,.46338-.20019.78377.78377,0,0,0,.16845-.52246V66.86966h1.144v3.59326h-1.09473v-.44238h-.021a1.42515,1.42515,0,0,1-.4458.40723A1.26517,1.26517,0,0,1,280.20993,70.56839Z"/><path class="cls-8" d="M284.69479,70.57523a2.04823,2.04823,0,0,1-.78613-.144,1.74821,1.74821,0,0,1-.6001-.39991,1.80843,1.80843,0,0,1-.38623-.60351,2.03742,2.03742,0,0,1-.13672-.7544,2.09167,2.09167,0,0,1,.1333-.75488,1.79063,1.79063,0,0,1,.37891-.60351,1.73807,1.73807,0,0,1,.59326-.39991,2.01267,2.01267,0,0,1,.77539-.144,2.048,2.048,0,0,1,.66357.10205,1.59614,1.59614,0,0,1,.51563.28418,1.4381,1.4381,0,0,1,.35107.43506,1.66973,1.66973,0,0,1,.17529.55469H285.27a.78.78,0,0,0-.1997-.38965.52834.52834,0,0,0-.38965-.144.61414.61414,0,0,0-.55469.28418,1.42642,1.42642,0,0,0-.18213.77587,1.39065,1.39065,0,0,0,.18213.76465.61562.61562,0,0,0,.55469.28076q.54711,0,.62451-.61767h1.09522a1.55962,1.55962,0,0,1-.13721.5791,1.42012,1.42012,0,0,1-.34375.47021,1.58248,1.58248,0,0,1-.5332.3125A2.03736,2.03736,0,0,1,284.69479,70.57523Z"/><path class="cls-8" d="M286.7651,65.44486h1.144v1.8667h.021a1.52262,1.52262,0,0,1,.44189-.40332,1.2201,1.2201,0,0,1,.62452-.14405,1.30658,1.30658,0,0,1,.52685.10157,1.13852,1.13852,0,0,1,.39258.28076,1.20817,1.20817,0,0,1,.24609.42822,1.71278,1.71278,0,0,1,.084.55078v2.3374h-1.144V68.35746a.72207.72207,0,0,0-.14014-.46338.50855.50855,0,0,0-.42139-.1753.56278.56278,0,0,0-.45947.21045.83742.83742,0,0,0-.17188.54737v1.98632h-1.144Z"/><rect class="cls-7" x="323.62728" y="0.00758" width="7.83609" height="9.22047" rx="1.30422"/><polygon class="cls-7" points="337.527 9.226 328.255 9.226 323.612 4.611 328.255 0.005 337.527 0.005 342.164 4.611 337.527 9.226"/><polygon class="cls-7" points="354.066 9.226 342.346 9.226 336.478 4.611 342.346 0.005 354.066 0.005 359.926 4.611 354.066 9.226"/><polygon class="cls-7" points="348.696 9.226 336.976 9.226 331.108 4.611 336.976 0.005 348.696 0.005 354.556 4.611 348.696 9.226"/><polygon class="cls-7" points="360.031 9.226 350.759 9.226 346.116 4.611 350.759 0.005 360.031 0.005 364.667 4.611 360.031 9.226"/><path class="cls-8" d="M329.22262,6.96a2.25029,2.25029,0,0,1-1.583-.4878,1.78434,1.78434,0,0,1-.52295-1.37207V1.85062h1.24268v3.2915a.86427.86427,0,0,0,.19971.59668.84984.84984,0,0,0,.66357.22461.81237.81237,0,0,0,.64209-.23535.88582.88582,0,0,0,.207-.60693V1.85062h1.24219V5.10013a1.78973,1.78973,0,0,1-.523,1.36524A2.20729,2.20729,0,0,1,329.22262,6.96Z"/><path class="cls-8" d="M333.209,1.85062h1.27734l1.81055,5.01807h-1.30518l-.29492-.90528h-1.75439l-.28809.90528h-1.249Zm1.20019,3.22119-.37939-1.21387c-.02344-.06543-.04639-.13818-.06982-.21777s-.04444-.15674-.06348-.23144q-.03516-.12672-.063-.25977h-.01416q-.03516.13331-.06982.25977c-.02393.0747-.0459.15185-.0669.23144s-.04346.15234-.06689.21777l-.38574,1.21387Z"/><path class="cls-8" d="M336.64791,1.85062h2.40039a2.44607,2.44607,0,0,1,.69483.09473,1.66057,1.66057,0,0,1,.5581.27685,1.29557,1.29557,0,0,1,.36866.45313,1.39311,1.39311,0,0,1,.1333.62109,1.28789,1.28789,0,0,1-.21436.751,1.27778,1.27778,0,0,1-.65625.46289v.021a1.06588,1.06588,0,0,1,.502.32666,1.21828,1.21828,0,0,1,.228.59278,3.79961,3.79961,0,0,1,.05274.481q.01024.23511.02441.42139a2.08429,2.08429,0,0,0,.04248.3086c.01856.082.04883.12988.09082.144v.063h-1.207a.2119.2119,0,0,1-.07373-.144,2.74042,2.74042,0,0,1-.042-.28076q-.01758-.16479-.03174-.35791-.01392-.19263-.042-.38232a.873.873,0,0,0-.24219-.53321.83513.83513,0,0,0-.59277-.18261h-.75147V6.86869h-1.24219Zm2.17579,2.21777a.83037.83037,0,0,0,.5581-.16162.56288.56288,0,0,0,.186-.44922.60179.60179,0,0,0-.1792-.44921.73891.73891,0,0,0-.53662-.1753h-.96192V4.06839Z"/><path class="cls-8" d="M342.55758,2.90335h-1.46V1.85062h4.17627V2.90335h-1.47412V6.86869h-1.24219Z"/><path class="cls-8" d="M345.372,7.34574h3.06006v.709H345.372Z"/><path class="cls-8" d="M349.98971,2.90335h-1.46V1.85062H352.706V2.90335H351.2319V6.86869h-1.24219Z"/><path class="cls-8" d="M354.43991,4.23685,352.917,1.85062h1.41748l.84912,1.45947h.01416l.86328-1.45947h1.34766l-1.4878,2.37207,1.66309,2.646h-1.4668l-.94043-1.69825h-.01416L354.187,6.86869h-1.41065Z"/><g class="cls-9"><path class="cls-10" d="M217.14643,28.347H0V51.20911H7.34635a7.25848,7.25848,0,1,1,0,14.517H0v55.597H217.14643Z"/><path class="cls-11" d="M20.23783,58.61891h0c0-6.35787-5.2022-13.00465-11.56007-13.00465H0v5.59485H7.34635a7.25848,7.25848,0,1,1,0,14.517H0v5.89748H8.67776C15.03563,71.62355,20.23783,64.97677,20.23783,58.61891Z"/><g id="decals"><polygon class="cls-12" points="134.577 81.886 131.244 81.886 131.244 78.762 134.577 78.762 134.577 69.515 131.244 69.515 131.244 66.388 134.577 66.388 134.577 58.08 131.244 58.08 131.244 54.788 113.773 54.788 113.773 93.323 131.244 93.323 131.244 90.393 134.577 90.393 134.577 81.886"/><polygon class="cls-12" points="110.876 44.954 110.876 46.341 104.917 47.749 104.917 47.77 110.876 49.343 110.876 50.739 104.917 52.268 104.917 52.289 110.876 53.741 110.876 55.128 103.083 52.978 103.083 51.591 109.043 50.029 109.043 50.008 103.083 48.414 103.083 47.006 110.876 44.954"/><path class="cls-12" d="M110.87652,56.078v1.245h-1.17986V56.078Zm-2.15026,0v1.245H103.083V56.078Z"/><path class="cls-12" d="M104.8949,60.03246c-.73071.07679-.98205.6097-.98205,1.27525,0,.48171.09774,1.28922.74,1.25664.65624-.03258.733-.93782.94015-1.8454.19547-.91688.52359-1.81049,1.67087-1.81049,1.23336,0,1.615,1.33111,1.615,2.35737,0,1.15656-.46776,2.2154-1.736,2.35736V62.32466c.6004-.121.754-.59108.754-1.14727,0-.3607-.08842-1.02625-.57945-1.02625-.612,0-.70977.91688-.90525,1.83376-.20943.90757-.53522,1.82445-1.64992,1.82445-1.3404,0-1.83142-1.35438-1.83142-2.52258,0-1.42884.633-2.46674,1.96408-2.49932Z"/><path class="cls-12" d="M110.8765,65.22586v3.66985c0,1.4847-.4817,2.48769-1.93149,2.48769a1.69408,1.69408,0,0,1-1.62666-1.05883,1.89188,1.89188,0,0,1-1.978,1.42884c-1.58011,0-2.2573-1.34042-2.2573-2.74832V65.22586ZM107.721,66.941v1.736c0,.60971.27459,1.0472.92852,1.0472.7307,0,.89592-.56781.89592-1.17984V66.941Zm-3.30682,0v1.83376c0,.66555.21874,1.26594,1.02624,1.26594.79588,0,1.11237-.491,1.11237-1.23336V66.941Z"/><polygon class="cls-12" points="110.876 72.911 110.876 74.626 104.523 74.626 104.523 78.424 103.083 78.424 103.083 72.911 110.876 72.911"/><path class="cls-12" d="M111.06106,82.87747a4.08983,4.08983,0,1,1-4.11435-3.83276,3.78322,3.78322,0,0,1,4.11435,3.83276m-6.723,0c0,1.53821,1.31015,2.11766,2.60867,2.11766,1.366,0,2.67386-.57945,2.67386-2.11766,0-1.54056-1.30785-2.11768-2.67386-2.11768-1.29852,0-2.60867.57712-2.60867,2.11768"/><path class="cls-12" d="M108.256,93.07229a1.69965,1.69965,0,0,0,1.36368-1.70112c0-1.54054-1.31017-2.12-2.67152-2.12-1.30085,0-2.611.57946-2.611,2.12a1.74661,1.74661,0,0,0,1.74533,1.76628v1.65922a3.27824,3.27824,0,0,1-3.1858-3.4255,4.09106,4.09106,0,0,1,8.16581,0,3.16915,3.16915,0,0,1-2.80648,3.36035Z"/><polygon class="cls-12" points="110.876 95.964 110.876 97.677 107.646 97.677 110.876 100.723 110.876 102.864 107.798 99.818 103.083 103.157 103.083 101.007 106.587 98.661 105.594 97.677 103.083 97.677 103.083 95.964 110.876 95.964"/><path class="cls-12" d="M168.19812,41.66215V45.777a2.09728,2.09728,0,0,1-2.10655,2.23441,1.86575,1.86575,0,0,1-1.91315-1.20831h-.02078c-.22376.82312-1.00532,1.05807-1.78529,1.11161a3.99938,3.99938,0,0,0-1.80607.32046V46.55771a9.13235,9.13235,0,0,1,1.82845-.26771c.80074-.11748,1.154-.42754,1.154-1.27144V43.34035h-2.98241v-1.6782Zm-3.45231,1.6782v1.838c0,.75919.31966,1.15476,1.09,1.15476.73681,0,1.05807-.39557,1.05807-1.15476v-1.838Z"/><path class="cls-12" d="M168.19812,51.45647V53.177l-7.63184,2.85455V54.28864l1.699-.577V50.85791l-1.699-.59856V48.55957Zm-4.68139-.16062v1.97788l2.8002-.96217V52.29Z"/><path class="cls-12" d="M168.19812,56.68688v1.67821H165.0335l3.16462,2.98161v2.09536l-3.01438-2.98241-4.61746,3.2709V61.6248l3.43153-2.29754-.97336-.96217h-2.45817V56.68688Z"/><path class="cls-12" d="M160.56628,67.84934V66.33177h4.85241V64.45058h1.14438c-.032,1.05807.342,2.02024,1.48481,2.19125v1.20751Z"/><path class="cls-12" d="M165.17256,69.99265a2.65911,2.65911,0,0,1,3.02556,2.7147,2.38154,2.38154,0,0,1-2.3415,2.56525c-2.26477,0-2.447-2.40462-3.98613-3.49466v3.53782h-1.30421V69.82163c1.74214,0,2.45817,1.06846,3.34522,2.36228.46031.6521.90943,1.57112,1.82845,1.57112a1.07449,1.07449,0,0,0,1.154-1.122c0-.89824-.93021-1.18673-1.72136-1.18673Z"/><path class="cls-12" d="M168.19812,78.49556c0,1.496-.94139,2.75785-3.85827,2.75785-2.98241,0-3.92381-1.26185-3.92381-2.75785,0-1.48561.9414-2.73628,3.92381-2.73628C167.25673,75.75928,168.19812,77.01,168.19812,78.49556Zm-6.53062,0c0,1.23947,1.82685,1.23947,2.67235,1.23947.78,0,2.60681,0,2.60681-1.23947,0-1.22909-1.82685-1.2187-2.60681-1.2187C163.49435,77.27686,161.6675,77.27686,161.6675,78.49556Z"/><path class="cls-12" d="M168.19812,84.43321c0,1.496-.94139,2.75785-3.85827,2.75785-2.98241,0-3.92381-1.26185-3.92381-2.75785,0-1.48561.9414-2.73628,3.92381-2.73628C167.25673,81.69693,168.19812,82.9476,168.19812,84.43321Zm-6.53062,0c0,1.23947,1.82685,1.23947,2.67235,1.23947.78,0,2.60681,0,2.60681-1.23947,0-1.22909-1.82685-1.2187-2.60681-1.2187C163.49435,83.21451,161.6675,83.21451,161.6675,84.43321Z"/><path class="cls-12" d="M160.56628,91.59994V90.08237h4.85241V88.20118h1.14438c-.032,1.05807.342,2.02024,1.48481,2.19126v1.2075Z"/><path class="cls-12" d="M159.76394,93.34767v5.34389h-.53383V93.34767Z"/><path class="cls-12" d="M160.56628,102.97258V101.081l7.63184-2.47974V100.333l-5.36546,1.699v.02157l5.36546,1.72056v1.73175Z"/><path class="cls-12" d="M168.19812,108.23575v1.72056l-7.63184,2.85455v-1.74294l1.699-.577v-2.85375l-1.699-.59856v-1.69978Zm-4.68139-.16062V110.053l2.8002-.96217v-.02158Z"/><path class="cls-12" d="M151.36492,41.51431v5.01543h-1.32019V43.083H148.3969v2.9864H147.179V43.083h-2.94725V41.51431Z"/><path class="cls-12" d="M149.39583,47.32969v1.41848h-5.16408V47.32969Zm.79914,1.41848V47.32969h1.17v1.41848Z"/><path class="cls-12" d="M149.39583,49.86777v1.34816h-.71923v.03037a1.81951,1.81951,0,0,1,.85988,1.57831c0,1.508-.85029,1.88838-2.12893,1.88838h-3.1758V53.29371h2.91688c.84869,0,1.269-.23975,1.269-.90863,0-.76958-.42994-1.09882-1.47842-1.09882h-2.7075V49.86777Z"/><path class="cls-12" d="M144.561,60.75773c-.84869,0-2.28716-.31007-2.28716-2.67714,0-1.01971.48908-2.19765,1.659-2.27756v1.40809a.9527.9527,0,0,0-.70964,1.05887c0,.78875.529,1.14837,1.27863,1.13878h.67927v-.02a1.71143,1.71143,0,0,1-.79914-1.54794c0-1.55834,1.17794-2.208,2.59722-2.208a2.31317,2.31317,0,0,1,2.55727,2.21763,1.61646,1.61646,0,0,1-.82952,1.53835v.02h.68887v1.349Zm2.31752-1.349c.8391,0,1.5887-.28929,1.5887-1.20831,0-.79914-.69845-1.14917-1.46883-1.14917-.73841,0-1.54714.27011-1.54714,1.14917A1.27019,1.27019,0,0,0,146.87852,59.40877Z"/><path class="cls-12" d="M146.46936,63.06566c-.90943.04-1.309.4699-1.309,1.269a1.168,1.168,0,0,0,.66968,1.1188v1.24827a2.31144,2.31144,0,0,1-1.73734-2.41662,2.52223,2.52223,0,0,1,2.71709-2.63718,2.59014,2.59014,0,0,1,2.72669,2.63718c0,1.75812-1.47842,2.61641-3.06712,2.50692Zm.89984,2.30793c.71923-.12946,1.098-.43953,1.098-1.12839a1.11161,1.11161,0,0,0-1.098-1.17954Z"/><path class="cls-12" d="M149.39583,67.632v1.349h-.959v.01918a1.8181,1.8181,0,0,1,1.09963,1.64864,1.04046,1.04046,0,0,1-.05115.30927h-1.317a2.67411,2.67411,0,0,0,.04955-.50906c0-1.04928-.74-1.3985-1.659-1.3985h-2.32711V67.632Z"/><path class="cls-12" d="M149.39583,71.51822v1.34816h-.6585v.02078a1.70651,1.70651,0,0,1,.79915,1.53755c0,1.61907-1.309,2.34789-2.77783,2.34789-1.37773,0-2.66595-.7496-2.66595-2.268a1.83067,1.83067,0,0,1,.77837-1.548v-.02h-2.45658V71.51822Zm-2.59722,3.8359c.82951,0,1.66861-.33,1.66861-1.23868,0-.9294-.82951-1.22828-1.66861-1.22828s-1.63825.31965-1.63825,1.23867C145.16036,75.05444,145.9595,75.35412,146.79861,75.35412Z"/><path class="cls-12" d="M149.39583,77.62289v1.349h-.959V78.991a1.81809,1.81809,0,0,1,1.09963,1.64863,1.04035,1.04035,0,0,1-.05115.30927h-1.317a2.674,2.674,0,0,0,.04955-.50905c0-1.04928-.74-1.39851-1.659-1.39851h-2.32711V77.62289Z"/><path class="cls-12" d="M149.39583,81.54909v1.41849h-5.16408V81.54909Zm.79914,1.41849V81.54909h1.17v1.41849Z"/><path class="cls-12" d="M149.39583,84.08718v1.34816h-.71923v.03036a1.81954,1.81954,0,0,1,.85988,1.57832c0,1.508-.85029,1.88838-2.12893,1.88838h-3.1758V87.51311h2.91688c.84869,0,1.269-.23974,1.269-.90862,0-.76958-.42994-1.09883-1.47842-1.09883h-2.7075V84.08718Z"/><path class="cls-12" d="M149.39583,91.81012V92.849h-.94939V91.81012h-2.55726c-.47949,0-.59776.11987-.59776.59936a2.07907,2.07907,0,0,0,.03836.43953h-1.10762a5.43638,5.43638,0,0,1-.04955-.82872c0-.87906.1886-1.62865,1.22749-1.62865h3.04634v-.85909h.94939v.85909h1.54874v1.41848Z"/><path class="cls-12" d="M26.17081,109.06447h8.42938v2.08417H28.64975v2.41422h5.46136v1.92594H28.64975v2.76184h6.07671V120.334H26.17081Z"/><path class="cls-12" d="M40.54743,117.77675h-4.6718v-2.05141l4.79807-6.43951H42.678v6.64489h1.46723v1.846H42.678V120.334H40.54743Zm0-5.68192h-.048l-2.85614,3.83589h2.90409Z"/><path class="cls-12" d="M50.83883,112.12679a1.58309,1.58309,0,0,0-1.48482-1.37293c-1.60948,0-2.06659,2.1465-2.11454,3.36121l.032.032a2.77511,2.77511,0,0,1,2.49333-1.23068,3.52769,3.52769,0,0,1,2.54129,1.13638,3.7724,3.7724,0,0,1,.85188,2.46137,3.83621,3.83621,0,0,1-3.86626,4.04048c-3.34682,0-4.24666-2.91928-4.24666-5.71309,0-2.7147,1.20032-5.777,4.341-5.777a3.36868,3.36868,0,0,1,3.58337,3.06232Zm-3.39477,4.52956a1.89678,1.89678,0,0,0,1.78369,2.0522,1.84593,1.84593,0,0,0,1.68939-2.02024c0-1.04208-.537-2.08337-1.68939-2.08337A1.82512,1.82512,0,0,0,47.44406,116.65635Z"/><path class="cls-12" d="M56.45522,117.49305a1.58149,1.58149,0,0,0,1.48321,1.37294c1.64145,0,2.03623-2.14651,2.11614-3.362l-.032-.03117a2.77747,2.77747,0,0,1-2.49333,1.23149,3.53105,3.53105,0,0,1-2.54128-1.13639,3.77087,3.77087,0,0,1-.85349-2.463,3.8286,3.8286,0,0,1,3.86786-4.04048c3.34523,0,4.24506,2.92007,4.24506,5.71389,0,2.71469-1.19871,5.77622-4.34095,5.77622a3.36753,3.36753,0,0,1-3.58177-3.06153Zm3.39317-4.52955a1.89679,1.89679,0,0,0-1.78369-2.05221,1.8458,1.8458,0,0,0-1.6878,2.02024c0,1.04209.53543,2.08337,1.6878,2.08337A1.82383,1.82383,0,0,0,59.84839,112.9635Z"/><path class="cls-12" d="M71.054,111.211c-2.31912,2.03622-3.56579,6.1718-3.61374,9.123h-2.399a16.134,16.134,0,0,1,3.70963-8.96482h-5.2408v-2.08337H71.054Z"/><path class="cls-12" d="M76.90855,117.77675H72.23674v-2.05141l4.79807-6.43951h2.00426v6.64489H80.5063v1.846H79.03907V120.334H76.90855Zm0-5.68192h-.048l-2.85615,3.83589h2.9041Z"/><path class="cls-12" d="M89.23456,111.211c-2.31912,2.03622-3.56578,6.1718-3.61373,9.123h-2.399a16.134,16.134,0,0,1,3.70964-8.96482h-5.2408v-2.08337h7.54393Z"/><path class="cls-12" d="M94.429,109.70538h2.204v3.84549h4.05487v-3.84549h2.204v10.02128h-2.204v-4.32257H96.63305v4.32257H94.429Z"/><path class="cls-12" d="M112.33146,120.66726l-1.41768-1.29142a4.82183,4.82183,0,0,1-2.4278.58977c-3.0879,0-4.92594-2.31592-4.92594-5.20723,0-2.97522,1.838-5.29114,4.92594-5.29114s4.92593,2.31592,4.92593,5.29114a5.48274,5.48274,0,0,1-1.3058,3.69125L113.356,119.586Zm-2.87692-4.64543,1.13639,1.03809a3.75856,3.75856,0,0,0,.61694-2.30154c0-1.75413-.74321-3.43872-2.72189-3.43872s-2.72349,1.68459-2.72349,3.43872c0,1.67021.7448,3.354,2.72349,3.354.32285,0,.73042.01439.88385-.13985l-.93979-.85668Z"/><path class="cls-12" d="M114.0784,109.70538h4.51836c2.51252,0,3.4667,1.58631,3.4667,3.21416s-.95418,3.21417-3.4667,3.21417h-2.31432v3.593h-2.204Zm2.204,4.71576h1.71177c1.01012,0,1.93713-.22456,1.93713-1.5016s-.927-1.50159-1.93713-1.50159h-1.71177Z"/><path class="cls-12" d="M129.28613,113.07378a2.18779,2.18779,0,0,0-2.18966-1.75412c-1.97868,0-2.72348,1.68459-2.72348,3.43872,0,1.67021.7448,3.354,2.72348,3.354a2.24663,2.24663,0,0,0,2.27277-2.2456H131.503a4.21481,4.21481,0,0,1-4.40649,4.09882c-3.08789,0-4.92593-2.31592-4.92593-5.20723,0-2.97522,1.838-5.29114,4.92593-5.29114a4.07531,4.07531,0,0,1,4.32338,3.60654Z"/><path class="cls-12" d="M132.17105,109.70538h4.715c1.91,0,3.20137.61774,3.20137,2.48454a2.17951,2.17951,0,0,1-1.36174,2.09137,2.43363,2.43363,0,0,1,1.838,2.54048c0,2.03463-1.72615,2.90489-3.537,2.90489h-4.85561Zm2.204,4.05646h2.23121c.78636,0,1.34736-.35082,1.34736-1.19312,0-.94059-.73041-1.15077-1.51677-1.15077h-2.0618Zm0,4.25226h2.35748c.85509,0,1.62706-.2805,1.62706-1.31939,0-1.02451-.63132-1.43127-1.5855-1.43127h-2.399Z"/><path class="cls-12" d="M140.992,115.03888h4.22589v1.71257H140.992Z"/><path class="cls-12" d="M145.64144,113.67793c-.07032-2.2456,1.20671-3.97255,3.56419-3.97255a3.12822,3.12822,0,0,1,3.3692,3.07431c0,2.97522-3.15822,3.21337-4.59029,5.23441h4.64623v1.71256h-7.21469c0-2.28795,1.4049-3.22774,3.10229-4.3929.85668-.60335,2.06339-1.19312,2.06339-2.39983a1.41078,1.41078,0,0,0-1.47362-1.516c-1.17954,0-1.55834,1.22109-1.55834,2.26Z"/><path class="cls-12" d="M66.63313,43.25724a1.407,1.407,0,0,0,1.32019,1.2211c1.45924,0,1.80927-1.90916,1.87959-2.98961l-.02717-.028a2.47316,2.47316,0,0,1-2.21843,1.09483,3.13385,3.13385,0,0,1-2.25838-1.01092,3.354,3.354,0,0,1-.75919-2.18966,3.40485,3.40485,0,0,1,3.43952-3.593c2.97442,0,3.77517,2.59642,3.77517,5.081,0,2.41422-1.06606,5.13691-3.85988,5.13691a2.99476,2.99476,0,0,1-3.18539-2.72269Zm3.01758-4.02849A1.68643,1.68643,0,0,0,68.0652,37.4043a1.64217,1.64217,0,0,0-1.50239,1.79648c0,.92621.47789,1.85242,1.50239,1.85242A1.62234,1.62234,0,0,0,69.65071,39.22875Z"/><path class="cls-12" d="M76.74552,43.50977h-4.154V41.68532l4.26584-5.72667h1.78209v5.90888H79.9453v1.64224H78.63949v2.27357h-1.894Zm0-5.053h-.04315l-2.53969,3.41075h2.58284Z"/><path class="cls-12" d="M86.08433,45.78334H83.60059L80.34487,35.76206h2.27277l2.23281,7.04606h.02717l2.26-7.04606h2.27277Z"/><path class="cls-12" d="M90.32939,41.09555h4.22588v1.71257H90.32939Z"/><path class="cls-12" d="M99.47162,35.76206c1.96589,0,3.62172,1.23548,3.62172,5.06658,0,3.91581-1.65583,5.15129-3.62172,5.15129-1.94992,0-3.593-1.23548-3.593-5.15129C95.87866,36.99754,97.5217,35.76206,99.47162,35.76206Zm0,8.57563c1.62866,0,1.62866-2.39984,1.62866-3.50905,0-1.02451,0-3.42434-1.62866-3.42434-1.61268,0-1.59989,2.39983-1.59989,3.42434C97.87173,41.93785,97.87173,44.33769,99.47162,44.33769Z"/><path class="cls-12" d="M57.11926,33.96118a.56909.56909,0,0,1,.86043,0l3.01039,4.12629,3.01039,4.12629c.1912.26209-.04781.5897-.43022.5897H51.5287c-.38241,0-.62142-.32761-.43021-.5897l3.01039-4.12629Z"/><path class="cls-12" d="M72.57875,60.39512l2.00613-5.20863H75.311l1.72235,5.095a1.51352,1.51352,0,0,0,1.1951.65456l7.00257.057a2.70013,2.70013,0,0,0,1.57918-3.18793L83.537,48.7249s-.48364-1.54773-1.45144-1.547H80.23545s-1.3657-.07545-.6267,1.3477l2.88916,7.13031s.79731,1.60832-.44066,1.62247H80.62368s-.54512.12817-.9-.754L76.6493,48.739s-.4561-1.5556-1.22425-1.5556H65.48874a1.0355,1.0355,0,0,0-1.19338,1.34213l2.049,5.73588a2.2057,2.2057,0,0,0,1.43858.93919l2.7177.057s.52639.0853.08573.68285L68.52193,59.897s-.45438,1.05322.52725,1.16724h2.37648A1.398,1.398,0,0,0,72.57875,60.39512Zm.19376-7.8273H70.58635c-1.16767,0-1.3237-.41751-1.65119-1.31427-.19461-.68328-.48525-1.31427.23662-1.31427h4.49577s.28463-.07587.44752.30864l.60526,1.893s.192.42694-.1989.42694Z"/><path class="cls-12" d="M94.10374,49.76728a4.61842,4.61842,0,1,1-4.74231-4.49112q.06978-.00191.13958-.00169a4.5144,4.5144,0,0,1,4.60192,4.42516l.00081.06765m-8.08274,0a3.482,3.482,0,0,0,3.37224,3.58836q.06762.0021.13525.00157a3.44075,3.44075,0,0,0,3.42718-3.45428q-.00021-.0541-.00212-.10817a3.46824,3.46824,0,0,0-6.93163-.2591q-.00433.11577-.00092.23162m2.76752,2.35534H87.74825V47.62981a9.08489,9.08489,0,0,1,1.72529-.13543,2.79893,2.79893,0,0,1,1.57022.32778,1.24443,1.24443,0,0,1,.4377.9814,1.15018,1.15018,0,0,1-.93036,1.04027v.055a1.32683,1.32683,0,0,1,.82045,1.09719,3.42328,3.42328,0,0,0,.32974,1.12272H90.57858a3.8413,3.8413,0,0,1-.35722-1.0972c-.08244-.49266-.35527-.71249-.93232-.71249h-.49266ZM88.816,49.571h.49266c.57509,0,1.04223-.19628,1.04223-.65949,0-.40826-.30227-.685-.9598-.685a2.46487,2.46487,0,0,0-.57509.05692Z"/><path class="cls-12" d="M211.65165,52.54091a.87822.87822,0,0,1-.87826-.87826v-7.842H188.7889v7.842a.87826.87826,0,0,1-1.75652,0V42.94238a.87822.87822,0,0,1,.87826-.87826h23.741a.87822.87822,0,0,1,.87826.87826v8.72027A.87822.87822,0,0,1,211.65165,52.54091Z"/><path class="cls-12" d="M211.65165,108.81833h-23.741a.87822.87822,0,0,1-.87826-.87826V99.22059a.87826.87826,0,0,1,1.75652,0v7.84122h21.98449V99.22059a.87826.87826,0,0,1,1.75652,0v8.71948A.87822.87822,0,0,1,211.65165,108.81833Z"/><path class="cls-12" d="M82.98875,72.91356,27.382,99.96911V45.858Zm3.03054,0L26.05593,43.73585v58.3528Z"/><rect class="cls-12" x="30.94618" y="76.85307" width="38.41362" height="1.32615" transform="translate(-42.01167 82.97061) rotate(-60.48403)"/><rect class="cls-12" x="25.25423" y="77.34267" width="42.49552" height="1.3255" transform="translate(-44.28977 80.03934) rotate(-60.48255)"/><path class="cls-12" d="M57.14959,65.19992l.61863-1.17464a71.04176,71.04176,0,0,1,6.48393,3.87105c2.5111,1.79326,4.6437,11.56616,4.87863,12.67553l-1.29993.27407c-.84573-3.99112-2.77472-10.74651-4.34872-11.87154a70.41948,70.41948,0,0,0-6.33254-3.77447"/><path class="cls-12" d="M47.22452,82.00882l1.14852-.66563a4.96821,4.96821,0,0,0,4.4923,2.46671A18.64476,18.64476,0,0,1,58.976,84.807l-.42286,1.25814a17.5983,17.5983,0,0,0-5.55729-.93447,6.277,6.277,0,0,1-5.77133-3.12189"/><path class="cls-12" d="M40.14205,67.84858a3.81727,3.81727,0,0,1,.03393-.509c.34455-2.75907,9.01852-6.25944,9.10466-6.29338,3.20543-1.28427,5.96188,1.59227,6.07934,1.715l-.9658.911c-.02349-.02347-2.26051-2.3388-4.6202-1.39648-3.79012,1.51657-8.13885,4.07463-8.28242,5.22838-.07569.616.04437.97625.19838,1.06238.18794.10441.67867-.01826,1.326-.53509,1.715-1.373,5.53641-2.99661,6.70582-2.85044a11.7822,11.7822,0,0,1,3.23413,1.48L52.259,67.79114a11.04064,11.04064,0,0,0-2.70164-1.2947,14.96143,14.96143,0,0,0-5.7139,2.57113c-1.42261,1.13809-2.36753.90055-2.80084.65779a2.01815,2.01815,0,0,1-.90054-1.87678"/><path class="cls-12" d="M37.50619,73.036a1.68334,1.68334,0,0,1,.18794-.80659c.25059-.48029.85878-1.0154,2.3127-.84051,2.98355.36022,7.70033,4.20516,7.89871,4.367L47.065,76.78434c-1.27643-1.04673-5.05872-3.81623-7.21481-4.07464-.59254-.07311-.91882.01565-.98407.13572-.1749.33935.26885,1.47481,1.10936,2.43278a42.20918,42.20918,0,0,0,5.69824,4.27564l-.72044,1.112c-.19315-.12528-4.68545-3.0462-5.97492-4.51055a5.54334,5.54334,0,0,1-1.4722-3.11929"/><path class="cls-12" d="M42.28822,72.61912c0-1.79066,1.80891-4.82642,2.20046-5.46332l1.13025.69433c-1.32342,2.15087-2.26312,4.52623-1.97338,4.97519a1.11809,1.11809,0,0,0,.94231.11485c.77526-.24274,1.61055-1.25292,2.29184-2.77211a3.56321,3.56321,0,0,1,2.06212-2.16914,3.53363,3.53363,0,0,1,2.86348.70478l-.70739,1.1198a2.39237,2.39237,0,0,0-1.77238-.556c-.45419.13835-.86662.62386-1.23466,1.44349-.8614,1.92378-1.93683,3.12972-3.10885,3.49516a2.44118,2.44118,0,0,1-2.04385-.26363,1.3291,1.3291,0,0,1-.60037-.85618,2.03656,2.03656,0,0,1-.04958-.46723"/><rect class="cls-12" x="78.64472" y="70.38498" width="1.32602" height="5.33019"/><rect class="cls-12" x="75.40014" y="68.80575" width="1.32602" height="8.21456"/><rect class="cls-12" x="72.15296" y="67.22654" width="1.32602" height="11.373"/><rect class="cls-12" x="68.91099" y="65.64731" width="1.32602" height="14.52882"/><rect class="cls-12" x="65.6638" y="64.34219" width="1.32602" height="8.6087"/><rect class="cls-12" x="62.42183" y="62.4915" width="1.32602" height="5.4085"/><rect class="cls-12" x="59.17726" y="61.20723" width="1.32602" height="4.5941"/><rect class="cls-12" x="52.6881" y="57.75645" width="1.32863" height="4.30958"/><rect class="cls-12" x="52.6881" y="84.62406" width="1.32863" height="3.44557"/><rect class="cls-12" x="49.44353" y="56.17724" width="1.32602" height="5.48419"/><rect class="cls-12" x="49.44353" y="84.03675" width="1.32602" height="5.48419"/><rect class="cls-12" x="46.19633" y="54.90081" width="1.32863" height="7.95613"/><rect class="cls-12" x="46.19633" y="83.33196" width="1.32863" height="7.8961"/><rect class="cls-12" x="42.95437" y="52.99528" width="1.32602" height="11.65491"/><rect class="cls-12" x="42.95437" y="78.9728" width="1.32602" height="4.17123"/><rect class="cls-12" x="42.95437" y="89.06153" width="1.32602" height="3.54477"/><rect class="cls-12" x="39.70979" y="51.44216" width="1.32863" height="20.57685"/><rect class="cls-12" x="39.70979" y="76.5583" width="1.32863" height="12.51107"/><rect class="cls-12" x="36.46521" y="50.36935" width="1.32602" height="44.03804"/><rect class="cls-12" x="33.22063" y="48.28372" width="1.32602" height="49.2586"/><rect class="cls-12" x="29.97605" y="46.55834" width="1.32602" height="52.50578"/></g></g><g id="slot-male-connector"><g class="cls-13"><g class="cls-13"><path class="cls-14" d="M191.60692,47.75442v-.79361a1.33326,1.33326,0,0,1,1.33327-1.30152h13.96754a1.30153,1.30153,0,0,1,1.30152,1.30152v.79361a1.30152,1.30152,0,0,1-1.26939,1.33287q-.01607.00041-.03213.00039H192.94019a1.33326,1.33326,0,0,1-1.33327-1.33326h0"/><path class="cls-14" d="M191.60692,103.46585v-.79361a1.33326,1.33326,0,0,1,1.33327-1.33326h13.96754a1.30151,1.30151,0,0,1,1.3019,1.30113q0,.01606-.00038.03213v.79361a1.30153,1.30153,0,0,1-1.30152,1.30152H192.94019a1.33326,1.33326,0,0,1-1.33327-1.30152"/><path class="cls-15" d="M203.82852,106.10064h1.39675a1.33327,1.33327,0,0,0,1.33327-1.33327h0V102.0691a1.33327,1.33327,0,0,0-.82536-1.238V49.913a1.30154,1.30154,0,0,0,.82536-1.20629V46.04022a1.33328,1.33328,0,0,0-1.33327-1.33327H203.892a1.33328,1.33328,0,0,0-1.26978.95234h-5.33306a1.33327,1.33327,0,0,0-1.238-.95234h-1.365a1.33328,1.33328,0,0,0-1.33327,1.33327h0v2.73a1.33327,1.33327,0,0,0,.88885,1.1428v50.791a1.30152,1.30152,0,0,0-.88885,1.238v2.69827a1.33327,1.33327,0,0,0,1.33327,1.33327h1.365a1.30151,1.30151,0,0,0,1.20629-.82536h5.33306a1.33326,1.33326,0,0,0,1.238.82536"/><path class="cls-16" d="M195.448,99.46606V51.405a.66664.66664,0,0,1,.63414-.69762q.01623-.00078.0325-.00075h7.3647a.69838.69838,0,0,1,.69838.69837v48.061a.69839.69839,0,0,1-.69838.66663h-7.3647a.66664.66664,0,0,1-.66664-.66663"/><path class="cls-14" d="M211.06624,55.72226V54.19853a.38092.38092,0,0,0-.34786-.41135q-.0165-.00139-.03307-.00133h-1.365a.41267.41267,0,0,0-.38093.38093h-3.7141v1.55548h3.7141a.41268.41268,0,0,0,.38093.53966h1.365a.381.381,0,0,0,.38226-.37961q0-.01656-.00133-.03307"/><path class="cls-17" d="M204.019,55.5318V53.5319a.34918.34918,0,0,1,.34919-.44442h.8571a.34918.34918,0,0,1,.34919.34918h0v1.9999a.31751.31751,0,0,1-.34919.31745h-.95233a.31747.31747,0,0,1-.34919-.31745"/><path class="cls-14" d="M188.52771,55.72226V54.19853a.41268.41268,0,0,1,.41268-.41268h1.33327a.38093.38093,0,0,1,.38093.38093h3.58712v1.55548h-3.58712a.38094.38094,0,0,1-.38093.53966h-1.33327a.41268.41268,0,0,1-.41268-.41268h0"/><path class="cls-17" d="M195.702,55.5318V53.5319a.34919.34919,0,0,0-.31744-.34919h-.98408a.31742.31742,0,0,0-.31744.34919v1.9999a.28569.28569,0,0,0,.31744.31744h.8571a.31744.31744,0,0,0,.31744-.31744"/><path class="cls-14" d="M211.06624,59.43636V57.88088a.38092.38092,0,0,0-.34786-.41135q-.0165-.00138-.03307-.00133h-1.365a.41268.41268,0,0,0-.38093.41268h-3.7141v1.55548h3.7141a.41267.41267,0,0,0,.38093.38093h1.365a.38093.38093,0,0,0,.38093-.38093"/><path class="cls-17" d="M204.019,59.21415v-1.9999a.31751.31751,0,0,1,.34919-.31745h.8571a.31747.31747,0,0,1,.34919.31745v1.9999a.31745.31745,0,0,1-.34919.22221h-.95233a.31747.31747,0,0,1-.34919-.31745"/><path class="cls-14" d="M188.52771,59.43636V57.88088a.41268.41268,0,0,1,.41268-.41268h1.33327a.38093.38093,0,0,1,.38225.37961q.00006.01656-.00132.03307h3.58712v1.55548h-3.58712a.38093.38093,0,0,1-.38093.38093h-1.33327a.41268.41268,0,0,1-.41268-.38093"/><path class="cls-17" d="M195.702,59.21415v-1.9999a.31745.31745,0,0,0-.31744-.31745h-.98408a.2857.2857,0,0,0-.31744.31745v1.9999a.28569.28569,0,0,0,.31744.31744h.8571a.31744.31744,0,0,0,.31744-.31744h0"/><path class="cls-14" d="M211.06624,63.30918V61.78544a.38093.38093,0,0,0-.38093-.38093h-1.365a.38093.38093,0,0,0-.38093.38093h-3.7141v1.55548h3.7141a.41266.41266,0,0,0,.38093.38093h1.365a.38094.38094,0,0,0,.38226-.37961q0-.01655-.00133-.03307"/><path class="cls-17" d="M204.019,63.11871v-1.9999a.31751.31751,0,0,1,.34919-.31745h.8571a.31747.31747,0,0,1,.34919.31745v1.9999a.31742.31742,0,0,1-.34919.31744h-.95233a.31746.31746,0,0,1-.34919-.31744"/><path class="cls-14" d="M188.52771,63.30918V61.78544a.38093.38093,0,0,1,.37961-.38225q.01656-.00006.03307.00132h1.33327a.38093.38093,0,0,1,.38093.38093h3.58712v1.55548h-3.58712a.38093.38093,0,0,1-.38093.38093h-1.33327a.41268.41268,0,0,1-.41268-.41268h0"/><path class="cls-17" d="M195.702,63.11871v-1.9999a.31745.31745,0,0,0-.31744-.31745h-.98408a.2857.2857,0,0,0-.31744.31745v1.9999a.28569.28569,0,0,0,.31744.31744h.8571a.31744.31744,0,0,0,.31744-.31744h0"/><path class="cls-14" d="M211.06624,67.1185V65.78524a.38094.38094,0,0,0-.34786-.41136q-.0165-.00138-.03307-.00132h-1.365a.38093.38093,0,0,0-.38093.38093h-3.7141V67.309h3.7141a.38093.38093,0,0,0,.38093.38093h1.365a.38094.38094,0,0,0,.38226-.37961q0-.01654-.00133-.03307"/><path class="cls-17" d="M204.019,66.95978V64.92814a.3492.3492,0,0,1,.34919-.31745h.8571a.34919.34919,0,0,1,.34919.31745v2.03164a.34919.34919,0,0,1-.34919.31745h-.95233a.34919.34919,0,0,1-.34919-.31745"/><path class="cls-14" d="M188.52771,67.1185V65.78524a.41268.41268,0,0,1,.41268-.41268h1.33327a.38093.38093,0,0,1,.38093.38093h3.58712V67.309h-3.58712a.38093.38093,0,0,1-.38093.38093h-1.33327a.41268.41268,0,0,1-.41268-.41268h0"/><path class="cls-17" d="M195.702,66.95978V64.92814a.34919.34919,0,0,0-.31744-.31745h-.98408a.31745.31745,0,0,0-.31744.31745h0v2.03164a.31745.31745,0,0,0,.31744.31745h.8571a.34918.34918,0,0,0,.31744-.31745"/><path class="cls-14" d="M211.06624,70.86435V69.34062a.38093.38093,0,0,0-.34786-.41136q-.0165-.00138-.03307-.00132h-1.365a.38093.38093,0,0,0-.38093.38093h-3.7141v1.55548h3.7141a.38093.38093,0,0,0,.38093.38093h1.365a.38093.38093,0,0,0,.38093-.38093"/><path class="cls-17" d="M204.019,70.67388V68.64223a.3492.3492,0,0,1,.34919-.31744h.8571a.34919.34919,0,0,1,.34919.31744v2.03165a.34919.34919,0,0,1-.34919.31744h-.95233a.34919.34919,0,0,1-.34919-.31744"/><path class="cls-14" d="M188.52771,70.86435V69.34062a.41268.41268,0,0,1,.41268-.38094h1.33327a.38093.38093,0,0,1,.38093.38093h3.58712v1.55548h-3.58712a.38093.38093,0,0,1-.38093.38093h-1.33327a.38093.38093,0,0,1-.41135-.34786q-.00138-.0165-.00133-.03307"/><path class="cls-17" d="M195.702,70.67388V68.64223a.34919.34919,0,0,0-.31744-.31744h-.98408a.31744.31744,0,0,0-.31744.31744h0v2.03165a.31744.31744,0,0,0,.31744.31744h.8571a.34917.34917,0,0,0,.31744-.31744"/><path class="cls-14" d="M211.06624,74.5467V73.023a.38093.38093,0,0,0-.34786-.41136q-.0165-.00138-.03307-.00132h-1.365a.41266.41266,0,0,0-.38093.38093h-3.7141V74.5467h3.7141a.41267.41267,0,0,0,.38093.41267h1.365a.38093.38093,0,0,0,.38226-.3796q0-.01656-.00133-.03307"/><path class="cls-17" d="M204.019,74.35623v-1.9999a.3492.3492,0,0,1,.34919-.22221h.8571a.34919.34919,0,0,1,.34919.34919v1.9999a.31742.31742,0,0,1-.34919.31744h-.95233a.31746.31746,0,0,1-.34919-.31744"/><path class="cls-14" d="M188.52771,74.5467V73.023a.41268.41268,0,0,1,.41268-.41268h1.33327a.38093.38093,0,0,1,.38093.38093h3.58712V74.5467h-3.58712a.38093.38093,0,0,1-.34786.41135q-.0165.00138-.03307.00132h-1.33327a.41267.41267,0,0,1-.41268-.41267h0"/><path class="cls-17" d="M195.702,74.35623v-1.9999a.3492.3492,0,0,0-.31744-.34919h-.98408a.31742.31742,0,0,0-.31744.34919v1.9999a.28569.28569,0,0,0,.31744.31744h.8571a.31744.31744,0,0,0,.31744-.31744h0"/><path class="cls-14" d="M211.06624,78.26079v-1.492a.38092.38092,0,0,0-.34786-.41135q-.0165-.00138-.03307-.00132h-1.365a.38093.38093,0,0,0-.38093.38093h-3.7141v1.55547h3.7141a.38093.38093,0,0,0,.38093.38094h1.365a.381.381,0,0,0,.38226-.37961q0-.01656-.00133-.03307"/><path class="cls-17" d="M204.019,78.07032V76.07043a.31742.31742,0,0,1,.34919-.31745h.8571a.31747.31747,0,0,1,.34919.31745v1.99989a.34919.34919,0,0,1-.34919.41268h-.95233a.34919.34919,0,0,1-.34919-.34919"/><path class="cls-14" d="M188.52771,78.26079v-1.492a.41267.41267,0,0,1,.41268-.41267h1.33327a.38093.38093,0,0,1,.38093.38093h3.58712v1.55547h-3.58712a.38093.38093,0,0,1-.38093.38094h-1.33327a.41268.41268,0,0,1-.41268-.41268h0"/><path class="cls-17" d="M195.702,78.07032V76.07043a.31745.31745,0,0,0-.31744-.31745h-.98408a.2857.2857,0,0,0-.31744.31745v1.99989a.31737.31737,0,0,0,.31744.34919h.8571a.34919.34919,0,0,0,.31744-.34919"/><path class="cls-14" d="M211.06624,82.03838v-1.492a.38092.38092,0,0,0-.34786-.41135q-.0165-.00138-.03307-.00133h-1.365a.38093.38093,0,0,0-.38093.38094h-3.7141v1.55547h3.7141a.38093.38093,0,0,0,.38093.38094h1.365a.381.381,0,0,0,.38226-.3796q0-.01656-.00133-.03308"/><path class="cls-17" d="M204.019,81.84791V79.848a.31751.31751,0,0,1,.34919-.31745h.8571a.31747.31747,0,0,1,.34919.31745v1.9999a.34919.34919,0,0,1-.34919.34919h-.95233a.34919.34919,0,0,1-.34919-.34919h0"/><path class="cls-14" d="M188.52771,82.03838v-1.492a.38093.38093,0,0,1,.41268-.41268h1.33327a.38093.38093,0,0,1,.38093.38094h3.58712v1.55547h-3.58712a.38093.38093,0,0,1-.38093.38094h-1.33327a.41268.41268,0,0,1-.41268-.41268"/><path class="cls-17" d="M195.702,81.84791V79.848a.31745.31745,0,0,0-.31744-.31745h-.98408a.2857.2857,0,0,0-.31744.31745v1.9999a.31746.31746,0,0,0,.31744.34919h.8571a.34919.34919,0,0,0,.31744-.34919"/><path class="cls-14" d="M211.06624,85.816V84.29223a.38093.38093,0,0,0-.38093-.38094h-1.365a.38093.38093,0,0,0-.38093.38094h-3.7141V85.8477h3.7141a.38093.38093,0,0,0,.38093.38094h1.365a.381.381,0,0,0,.38226-.3796q0-.01656-.00133-.03308"/><path class="cls-17" d="M204.019,85.62549V83.6256a.31751.31751,0,0,1,.34919-.31745h.8571a.31747.31747,0,0,1,.34919.31745v1.99989a.34919.34919,0,0,1-.34919.34919h-.95233a.34919.34919,0,0,1-.34919-.34919h0"/><path class="cls-14" d="M188.52771,85.816V84.29223a.38094.38094,0,0,1,.37961-.38226q.01655-.00006.03307.00132h1.33327a.38093.38093,0,0,1,.38093.38094h3.58712V85.8477h-3.58712a.38093.38093,0,0,1-.38093.38094h-1.33327a.41268.41268,0,0,1-.41268-.41268"/><path class="cls-17" d="M195.702,85.62549V83.6256a.31745.31745,0,0,0-.31744-.31745h-.98408a.2857.2857,0,0,0-.31744.31745v1.99989a.31737.31737,0,0,0,.31744.34919h.8571a.34918.34918,0,0,0,.31744-.34919"/><path class="cls-14" d="M211.06624,89.5618V88.00632a.38093.38093,0,0,0-.34786-.41135q-.0165-.00137-.03307-.00132h-1.365a.41267.41267,0,0,0-.38093.38094h-3.7141v1.55547h3.7141a.41267.41267,0,0,0,.38093.41267h1.365a.38093.38093,0,0,0,.38226-.3796q0-.01656-.00133-.03307"/><path class="cls-17" d="M204.019,89.37133v-1.9999a.34919.34919,0,0,1,.34919-.34919h.8571a.34919.34919,0,0,1,.34919.34919h0v1.9999a.31742.31742,0,0,1-.34919.31744h-.95233a.31746.31746,0,0,1-.34919-.31744"/><path class="cls-14" d="M188.52771,89.5618V88.00632a.41268.41268,0,0,1,.41268-.41267h1.33327a.38093.38093,0,0,1,.38225.3796q.00006.01656-.00132.03307h3.58712V89.5618h-3.58712a.38093.38093,0,0,1-.34787.41135c-.011.00092-.022.00136-.03306.00132h-1.33327a.41268.41268,0,0,1-.41268-.41267"/><path class="cls-17" d="M195.702,89.37133v-1.9999a.3492.3492,0,0,0-.31744-.34919h-.98408a.31742.31742,0,0,0-.31744.34919v1.9999a.28569.28569,0,0,0,.31744.31744h.8571a.31744.31744,0,0,0,.31744-.31744h0"/><path class="cls-14" d="M211.06624,93.40288v-1.492a.38093.38093,0,0,0-.34786-.41135q-.0165-.00138-.03307-.00132h-1.365a.38093.38093,0,0,0-.38093.38093h-3.7141v1.55548h3.7141a.38093.38093,0,0,0,.38093.38093h1.365a.38093.38093,0,0,0,.38226-.3796q0-.01656-.00133-.03307"/><path class="cls-17" d="M204.019,93.24415V91.18076a.3492.3492,0,0,1,.34919-.31744h.8571a.34919.34919,0,0,1,.34919.31744v2.03165a.34919.34919,0,0,1-.34919.31744h-.95233a.34919.34919,0,0,1-.34919-.31744"/><path class="cls-14" d="M188.52771,93.40288v-1.492a.41268.41268,0,0,1,.41268-.41267h1.33327a.38093.38093,0,0,1,.38093.38093h3.58712v1.55548h-3.58712a.38093.38093,0,0,1-.38093.38093h-1.33327a.38093.38093,0,0,1-.41268-.41267"/><path class="cls-17" d="M195.702,93.24415V91.18076a.34919.34919,0,0,0-.31744-.31744h-.98408a.31744.31744,0,0,0-.31744.31744h0v2.03165a.31744.31744,0,0,0,.31744.31744h.8571a.34918.34918,0,0,0,.31744-.31744"/><path class="cls-14" d="M211.06624,97.18046v-1.492a.38093.38093,0,0,0-.34786-.41135q-.0165-.00138-.03307-.00132h-1.365a.38093.38093,0,0,0-.38093.38093h-3.7141v1.55548h3.7141a.38093.38093,0,0,0,.38093.31744h1.365a.381.381,0,0,0,.38226-.37961q0-.01655-.00133-.03307"/><path class="cls-17" d="M204.019,97.02174V94.9901a.3492.3492,0,0,1,.34919-.31745h.8571a.34919.34919,0,0,1,.34919.31745v2.03164a.34918.34918,0,0,1-.34919.31744h-.95233a.34918.34918,0,0,1-.34919-.31744"/><path class="cls-14" d="M188.52771,97.18046v-1.492a.41268.41268,0,0,1,.41268-.41267h1.33327a.38093.38093,0,0,1,.38093.38093h3.58712v1.55548h-3.58712a.38093.38093,0,0,1-.38093.38093h-1.33327a.38093.38093,0,0,1-.41268-.41267"/><path class="cls-17" d="M195.702,97.02174V94.9901a.34919.34919,0,0,0-.31744-.31745h-.98408a.31744.31744,0,0,0-.31744.31745h0v2.03164a.31744.31744,0,0,0,.31744.31744h.8571a.34918.34918,0,0,0,.31744-.31744"/><path class="cls-17" d="M204.84434,45.65928c.44442,0,.82535.63489.82535,1.39676s-.38093,1.39675-.82535,1.39675-.82536-.63489-.82536-1.39675.38094-1.39676.82536-1.39676"/><path class="cls-17" d="M194.87659,45.65928c.47617,0,.82536.63489.82536,1.39676s-.34919,1.39675-.82536,1.39675-.79361-.63489-.79361-1.39675.34919-1.39676.79361-1.39676"/><path class="cls-17" d="M204.84434,102.03735c.44442,0,.82535.60315.82535,1.39676s-.38093,1.365-.82535,1.365-.82536-.60315-.82536-1.365.38094-1.39676.82536-1.39676"/><path class="cls-17" d="M194.87659,102.03735c.47617,0,.82536.60315.82536,1.39676s-.34919,1.365-.82536,1.365-.79361-.60315-.79361-1.365.34919-1.39676.79361-1.39676"/></g></g></g><path class="cls-18" d="M210.80758,51.982a1.12307,1.12307,0,0,1,.10352-.25488,1.1793,1.1793,0,0,1,.15136-.21241,1.6248,1.6248,0,0,1,.19239-.18213q.19042-.16186.40869-.314a4.26869,4.26869,0,0,0,.38428-.29736.71025.71025,0,0,0,.13379-.15772.35458.35458,0,0,0,.04834-.186.37237.37237,0,0,0-.09083-.26123.34839.34839,0,0,0-.269-.09913.36277.36277,0,0,0-.2998.12549.4526.4526,0,0,0-.09082.168.92291.92291,0,0,0-.03418.24072h-.63965a1.54812,1.54812,0,0,1,.04443-.40429.91506.91506,0,0,1,.146-.29981.83313.83313,0,0,1,.33984-.2749,1.28027,1.28027,0,0,1,.5503-.10547,1.30986,1.30986,0,0,1,.44287.06885.91083.91083,0,0,1,.32177.19043.79937.79937,0,0,1,.19629.2832.89458.89458,0,0,1,.0669.34375.86374.86374,0,0,1-.03662.26123.81419.81419,0,0,1-.10108.21045,1.047,1.047,0,0,1-.148.17383c-.05517.05273-.11377.103-.17578.15185q-.093.07691-.19238.14747-.09888.071-.19629.13964c-.06445.0459-.12744.09327-.188.14161a1.6955,1.6955,0,0,0-.16406.1499v.0039h1.20605v.5625H210.7651A1.31831,1.31831,0,0,1,210.80758,51.982Z"/><path class="cls-18" d="M214.26559,52.36039a1.692,1.692,0,0,1-.51172-.06885.98483.98483,0,0,1-.3623-.19824.95594.95594,0,0,1-.30762-.75684h.64355a.59618.59618,0,0,0,.1294.3623.47153.47153,0,0,0,.38037.13965.45063.45063,0,0,0,.32178-.10547.36554.36554,0,0,0,.11132-.27929.31925.31925,0,0,0-.12158-.273.58088.58088,0,0,0-.352-.09131h-.166v-.47314h.1499a.53.53,0,0,0,.31152-.083.27664.27664,0,0,0,.11719-.24073.2952.2952,0,0,0-.09522-.22851.38265.38265,0,0,0-.269-.08691.404.404,0,0,0-.32568.12109.5081.5081,0,0,0-.11524.30371h-.63525a1.01165,1.01165,0,0,1,.07666-.37842.82852.82852,0,0,1,.21045-.29541.97118.97118,0,0,1,.33789-.19238,1.41173,1.41173,0,0,1,.45947-.06885,1.55136,1.55136,0,0,1,.41895.05274.98035.98035,0,0,1,.32373.1538.71465.71465,0,0,1,.21045.24707.70549.70549,0,0,1,.0747.32764.507.507,0,0,1-.11718.34766.767.767,0,0,1-.30371.20654v.0083a.72786.72786,0,0,1,.36621.23438.68379.68379,0,0,1,.13574.44531.77022.77022,0,0,1-.33008.65771,1.08424,1.08424,0,0,1-.3501.15967A1.61166,1.61166,0,0,1,214.26559,52.36039Z"/><path class="cls-18" d="M185.57467,52.27835a1.12307,1.12307,0,0,1,.10352-.25488,1.17887,1.17887,0,0,1,.15136-.2124,1.6248,1.6248,0,0,1,.19239-.18213q.19042-.16186.40869-.314a4.26685,4.26685,0,0,0,.38428-.29737.71021.71021,0,0,0,.13379-.15771.35461.35461,0,0,0,.04833-.186.37238.37238,0,0,0-.09082-.26123.34838.34838,0,0,0-.269-.09912.36274.36274,0,0,0-.2998.12549.4526.4526,0,0,0-.09082.168.92278.92278,0,0,0-.03418.24072h-.63965a1.5482,1.5482,0,0,1,.04443-.4043.915.915,0,0,1,.146-.2998.83313.83313,0,0,1,.33984-.2749,1.28008,1.28008,0,0,1,.55029-.10547,1.30988,1.30988,0,0,1,.44288.06885.91068.91068,0,0,1,.32177.19043.79937.79937,0,0,1,.19629.2832.89454.89454,0,0,1,.0669.34375.86374.86374,0,0,1-.03662.26123.81419.81419,0,0,1-.10108.21045,1.0478,1.0478,0,0,1-.148.17383c-.05517.05273-.11377.103-.17578.15185q-.093.07691-.19238.14746-.09888.07106-.19629.13965c-.06445.0459-.12744.09326-.188.1416a1.69807,1.69807,0,0,0-.16406.1499v.00391H187.685v.5625h-2.15283A1.31847,1.31847,0,0,1,185.57467,52.27835Z"/><path class="cls-18" d="M189.12985,51.9766h-1.291v-.627l1.28272-1.5581h.67187V51.459h.40039v.51758h-.40039v.61523h-.66357Zm0-.51758v-.95117h-.0083l-.76905.94287v.0083Z"/><path class="cls-18" d="M212.94284,100.2808h-.59522v-.46094a.89042.89042,0,0,0,.48193-.144.61212.61212,0,0,0,.25489-.41846h.542v2.7959h-.68359Z"/><path class="cls-18" d="M183.86129,101.73978a1.12307,1.12307,0,0,1,.10352-.25488,1.17843,1.17843,0,0,1,.15137-.2124,1.62389,1.62389,0,0,1,.19238-.18213q.19043-.16186.40869-.314a4.26362,4.26362,0,0,0,.38428-.29736.71025.71025,0,0,0,.13379-.15772.35458.35458,0,0,0,.04834-.186.37241.37241,0,0,0-.09082-.26123.34841.34841,0,0,0-.269-.09912.36276.36276,0,0,0-.2998.12548.45268.45268,0,0,0-.09082.168.92293.92293,0,0,0-.03418.24073h-.63965a1.5482,1.5482,0,0,1,.04443-.4043.91506.91506,0,0,1,.146-.29981.8332.8332,0,0,1,.33984-.2749,1.28027,1.28027,0,0,1,.5503-.10547,1.30986,1.30986,0,0,1,.44287.06885.91089.91089,0,0,1,.32177.19043.79945.79945,0,0,1,.19629.2832.89458.89458,0,0,1,.0669.34375.86369.86369,0,0,1-.03662.26123.814.814,0,0,1-.10108.21045,1.047,1.047,0,0,1-.148.17383c-.05517.05274-.11377.103-.17578.15186q-.093.0769-.19238.14746-.09888.071-.19629.13965c-.06445.0459-.12744.09326-.188.1416a1.698,1.698,0,0,0-.16406.1499v.00391h1.20605v.5625h-2.15283A1.31832,1.31832,0,0,1,183.86129,101.73978Z"/></g></g></svg>