<svg xmlns="http://www.w3.org/2000/svg" viewBox="0 0 831.02539 342.22917"><defs><style>.cls-1{fill:#006ac6;}.cls-2{fill:#70b5e8;}.cls-3{fill:#4eb76e;}.cls-4,.cls-5,.cls-6,.cls-8{fill:none;stroke-miterlimit:10;}.cls-4,.cls-5,.cls-6{stroke:#70b5e8;}.cls-5{stroke-width:1.04819px;}.cls-6{stroke-width:0.99681px;}.cls-7{fill:#fff;}.cls-8{stroke:#97999b;}.cls-9{fill:#97999b;}</style></defs><g id="Layer_2" data-name="Layer 2"><g id="RAK3172-SIP"><rect class="cls-1" x="188.2623" width="524.51531" height="342.22917" rx="25.5193"/><rect class="cls-2" x="221.03848" y="156.54334" width="259.82609" height="139.51037" rx="17.05953"/><rect class="cls-3" x="219.73413" y="50.11892" width="108.26087" height="61.1087" rx="8.77174"/><rect class="cls-3" x="358.77761" y="50.11892" width="108.26087" height="61.1087" rx="8.77174"/><rect class="cls-3" x="528.21239" y="188.09298" width="153.84783" height="77.01168" rx="11.73877"/><line class="cls-4" x1="273.86462" y1="111.22761" x2="273.86462" y2="152.95521"/><polygon class="cls-2" points="271.371 152.226 273.865 156.543 276.358 152.226 271.371 152.226"/><line class="cls-4" x1="412.90808" y1="111.22761" x2="412.90808" y2="152.95521"/><polygon class="cls-2" points="410.415 152.226 412.908 156.543 415.401 152.226 410.415 152.226"/><line class="cls-5" x1="524.45142" y1="211.532" x2="478.42407" y2="211.532"/><polygon class="cls-2" points="523.687 208.919 528.212 211.532 523.687 214.145 523.687 208.919"/><line class="cls-6" x1="528.2124" y1="242.55525" x2="484.44128" y2="242.55525"/><polygon class="cls-2" points="485.168 240.07 480.865 242.555 485.168 245.04 485.168 240.07"/><path class="cls-7" d="M249.81152,76.07075a7.047,7.047,0,0,1-2.30664-.34668,4.41346,4.41346,0,0,1-1.66308-.99023,4.21165,4.21165,0,0,1-1.00977-1.55371,5.91984,5.91984,0,0,1-.36621-2.01953H247.04a4.70287,4.70287,0,0,0,.19726,1.11816,2.4205,2.4205,0,0,0,.47559.87109,2.05184,2.05184,0,0,0,.81152.56446,3.20015,3.20015,0,0,0,1.18848.19824,2.52941,2.52941,0,0,0,1.76172-.57422,2.08043,2.08043,0,0,0,.63379-1.623,1.96022,1.96022,0,0,0-.624-1.54492,2.7453,2.7453,0,0,0-1.8711-.55469h-.83105V67.57661h.77148a2.555,2.555,0,0,0,1.584-.46484,1.57747,1.57747,0,0,0,.61425-1.33692,1.7004,1.7004,0,0,0-.51465-1.29687,1.97053,1.97053,0,0,0-1.40625-.48535,2.16326,2.16326,0,0,0-1.74218.67383,2.75348,2.75348,0,0,0-.61328,1.74218h-2.57422a5.51036,5.51036,0,0,1,.36621-1.83105,3.84467,3.84467,0,0,1,.95019-1.40625,4.39687,4.39687,0,0,1,1.52442-.91113,6.11626,6.11626,0,0,1,2.08886-.32618,6.62128,6.62128,0,0,1,1.9209.25782,4.46373,4.46373,0,0,1,1.46485.73242,3.20577,3.20577,0,0,1,.94043,1.14844,3.44645,3.44645,0,0,1,.32715,1.52441,2.5376,2.5376,0,0,1-.65333,1.831,4.00378,4.00378,0,0,1-1.66308,1.01954v.04a3.77577,3.77577,0,0,1,2.0293,1.14843,3.3231,3.3231,0,0,1,.72265,2.25684,3.97925,3.97925,0,0,1-.40625,1.84082,3.71476,3.71476,0,0,1-1.09863,1.30762,4.85818,4.85818,0,0,1-1.624.77148A7.38323,7.38323,0,0,1,249.81152,76.07075Z" transform="translate(-0.19727)"/><path class="cls-7" d="M256.24609,74.01118a6.53361,6.53361,0,0,1,.752-1.44531,7.40422,7.40422,0,0,1,1.03027-1.1875q.57421-.53468,1.14844-.99023.63281-.49512,1.27636-.9502a11.39527,11.39527,0,0,0,1.14844-.9209,4.53232,4.53232,0,0,0,.82227-.99023,2.23509,2.23509,0,0,0,.3164-1.17774,2.3236,2.3236,0,0,0-.48535-1.53418,1.70948,1.70948,0,0,0-1.3955-.584,1.94221,1.94221,0,0,0-1.60352.71289,3.345,3.345,0,0,0-.61426,2.03906h-2.53418a5.3885,5.3885,0,0,1,1.19824-3.68261A4.54988,4.54988,0,0,1,260.919,61.934a5.23464,5.23464,0,0,1,1.96972.34668,4.17463,4.17463,0,0,1,1.44531.94043,4.02062,4.02062,0,0,1,.89063,1.38575,4.553,4.553,0,0,1,.30762,1.66308,4.46347,4.46347,0,0,1-.29688,1.68262,4.64809,4.64809,0,0,1-.78223,1.29687,6.734,6.734,0,0,1-1.09863,1.01954q-.61522.457-1.22754.87207-.397.25633-.8125.54394-.416.28711-.78222.59375a6.86408,6.86408,0,0,0-.66309.63379,3.57915,3.57915,0,0,0-.47461.64355h6.25586v2.21778h-9.74121A5.64967,5.64967,0,0,1,256.24609,74.01118Z" transform="translate(-0.19727)"/><path class="cls-7" d="M267.31348,61.61763h2.87109v5.64258l5.44531-5.64258h3.56348l-5.54395,5.66211,5.90039,8.49414h-3.36621l-4.55371-6.61328-1.44531,1.46484v5.14844h-2.87109Z" transform="translate(-0.19727)"/><path class="cls-7" d="M283.13281,66.94282h.05957a3.925,3.925,0,0,1,1.22754-1.207,3.35173,3.35173,0,0,1,1.72266-.39648,3.48957,3.48957,0,0,1,1.43554.28711,3.23439,3.23439,0,0,1,1.09864.792,3.68828,3.68828,0,0,1,.71289,1.19824,4.36135,4.36135,0,0,1,.25683,1.52442v6.63281H286.9541V69.53657a1.9548,1.9548,0,0,0-.45508-1.3457,1.65078,1.65078,0,0,0-1.30664-.51465,1.90692,1.90692,0,0,0-1.47558.64258,2.42351,2.42351,0,0,0-.584,1.69336v5.76172h-2.69238V61.61763h2.69238Z" transform="translate(-0.19727)"/><path class="cls-7" d="M290.97363,73.71431l5.22657-5.91992v-.05957h-4.63282V65.61665h7.76074v2.1582L294.2207,73.5561v.05957h5.36524v2.15821h-8.61231Z" transform="translate(-0.19727)"/><path class="cls-7" d="M248.7627,99.82954a6.83554,6.83554,0,0,1-2.74219-.54394,6.28619,6.28619,0,0,1-2.15821-1.52442,7.08623,7.08623,0,0,1-1.40625-2.3164,8.2758,8.2758,0,0,1-.50488-2.94043,8.78379,8.78379,0,0,1,.47559-2.9209A7.02671,7.02671,0,0,1,243.7832,87.228a6.17762,6.17762,0,0,1,2.1377-1.56445,6.8242,6.8242,0,0,1,2.82129-.56446,6.94582,6.94582,0,0,1,2.33691.36621,5.49387,5.49387,0,0,1,1.77149,1.00977,4.89242,4.89242,0,0,1,1.17871,1.51465,5.6555,5.6555,0,0,1,.55371,1.88086h-2.85059a2.81107,2.81107,0,0,0-.9707-1.71192,3.05074,3.05074,0,0,0-2.01953-.64355,3.5759,3.5759,0,0,0-1.71192.38574A3.422,3.422,0,0,0,245.832,88.9604a4.83192,4.83192,0,0,0-.71289,1.584,7.75539,7.75539,0,0,0-.2373,1.96,7.0672,7.0672,0,0,0,.26757,2,4.80169,4.80169,0,0,0,.77149,1.57324,3.46065,3.46065,0,0,0,2.8418,1.39648,3.15461,3.15461,0,0,0,2.08886-.68359,2.69165,2.69165,0,0,0,.96-1.81152h2.81153a5.06878,5.06878,0,0,1-.45508,1.81152,4.94258,4.94258,0,0,1-1.10938,1.53516,5.40689,5.40689,0,0,1-1.77148,1.09863A6.962,6.962,0,0,1,248.7627,99.82954Z" transform="translate(-0.19727)"/><path class="cls-7" d="M258.4834,90.99946h.05957a3.82848,3.82848,0,0,1,1.0293-1.30664,2.35924,2.35924,0,0,1,1.46582-.43554,1.941,1.941,0,0,1,.63281.0791v2.35644h-.0586a2.79506,2.79506,0,0,0-2.17871.57422,2.85989,2.85989,0,0,0-.85058,2.31641v4.94922h-2.69336V89.37544h2.59375Z" transform="translate(-0.19727)"/><path class="cls-7" d="M263.15625,100.74067h.9502a1.52079,1.52079,0,0,0,1.1582-.376,1.43578,1.43578,0,0,0,.34668-1.00977,2.85538,2.85538,0,0,0-.04-.44531,5.22745,5.22745,0,0,0-.12793-.56445q-.08936-.31641-.23828-.74317-.14794-.4248-.36621-.999l-2.73242-7.22754h2.832l1.5039,4.57422c.0791.2373.15528.48535.22852.74219q.10839.38671.207.72265.09962.37647.21777.75293h.04q.07911-.37645.17774-.75293c.05273-.22363.11621-.46484.18847-.72265.07227-.25684.14844-.50489.22754-.74219l1.42578-4.57422h2.71289l-3.54492,10.415a10.70093,10.70093,0,0,1-.60351,1.43555,3.40058,3.40058,0,0,1-.71289.95019,2.39288,2.39288,0,0,1-.9502.52442,4.76748,4.76748,0,0,1-1.31641.1582h-1.584Z" transform="translate(-0.19727)"/><path class="cls-7" d="M276.79785,99.82954a5.3094,5.3094,0,0,1-3.42578-.97949,3.5403,3.5403,0,0,1-1.32617-2.60352H274.541a1.79661,1.79661,0,0,0,.72265,1.28711,2.60778,2.60778,0,0,0,1.49414.39551,2.51226,2.51226,0,0,0,1.376-.3164.97316.97316,0,0,0,.48535-.85157.76046.76046,0,0,0-.22754-.57422,1.74107,1.74107,0,0,0-.59375-.35644,5.04108,5.04108,0,0,0-.85156-.22754q-.48486-.08936-1-.18848c-.46191-.09179-.90723-.19824-1.33594-.3164a3.94535,3.94535,0,0,1-1.14844-.51465,2.57335,2.57335,0,0,1-.8125-.8711,2.72573,2.72573,0,0,1-.30664-1.36621,3.04139,3.04139,0,0,1,.31739-1.43554,2.87548,2.87548,0,0,1,.88086-1.00977,3.96581,3.96581,0,0,1,1.3164-.60449,6.3746,6.3746,0,0,1,1.624-.19727,4.72533,4.72533,0,0,1,3.10839.91016,3.53483,3.53483,0,0,1,1.24707,2.45508h-2.43554a1.51454,1.51454,0,0,0-.59375-1.15821,2.98414,2.98414,0,0,0-2.63379-.03906.92431.92431,0,0,0-.47461.84082.63363.63363,0,0,0,.2373.52539,2.04591,2.04591,0,0,0,.624.31641,5.50771,5.50771,0,0,0,.89062.208q.50538.0791,1.04.19824.63282.1377,1.27637.31641a3.961,3.961,0,0,1,1.1582.52441,2.64114,2.64114,0,0,1,.832.91113,2.95546,2.95546,0,0,1,.31641,1.45508,2.92,2.92,0,0,1-.31641,1.376,2.96886,2.96886,0,0,1-.88086,1.01953,4.24631,4.24631,0,0,1-1.34668.64355A6.20019,6.20019,0,0,1,276.79785,99.82954Z" transform="translate(-0.19727)"/><path class="cls-7" d="M281.49023,89.37544h1.40528v-3.167h2.63379v3.167h1.74218v1.78223H285.5293v5.38574a.95857.95857,0,0,0,.27636.792,1.15225,1.15225,0,0,0,.7334.21777h.51465a2.04718,2.04718,0,0,0,.27734-.01953v1.9795a4.27786,4.27786,0,0,1-.43554.01953c-.14551.01367-.32422.0205-.53516.0205h-.71289a4.47455,4.47455,0,0,1-.97949-.10937,2.45982,2.45982,0,0,1-.88184-.38574,2.04526,2.04526,0,0,1-.64258-.75293,2.54051,2.54051,0,0,1-.248-1.1875v-5.96h-1.40528Z" transform="translate(-0.19727)"/><path class="cls-7" d="M295.15039,99.53267a1.349,1.349,0,0,1-.19727-.47461,5.18391,5.18391,0,0,1-.11914-.65332h-.03906a3.64682,3.64682,0,0,1-.44629.54394,2.37147,2.37147,0,0,1-.59375.42578,3.49291,3.49291,0,0,1-.82129.28711,5.13407,5.13407,0,0,1-1.1289.10938,3.96293,3.96293,0,0,1-2.55371-.792,2.792,2.792,0,0,1-.99024-2.31739,2.8772,2.8772,0,0,1,.31641-1.40527,2.73123,2.73123,0,0,1,.87109-.9502,4.42143,4.42143,0,0,1,1.29688-.584,12.11055,12.11055,0,0,1,1.59375-.32715,11.41446,11.41446,0,0,0,1.86133-.376.765.765,0,0,0,.59472-.77247,1.05453,1.05453,0,0,0-.42578-.88086,2.08308,2.08308,0,0,0-1.27734-.32617,2.42079,2.42079,0,0,0-1.42578.34571,1.39574,1.39574,0,0,0-.53418,1.0791h-2.39551a3.23574,3.23574,0,0,1,.29687-1.27637,3.05,3.05,0,0,1,.81153-1.05957,4.07753,4.07753,0,0,1,1.34668-.73242,5.95849,5.95849,0,0,1,1.91992-.27735,4.56492,4.56492,0,0,1,3.27734.98047,3.692,3.692,0,0,1,.999,2.76172v5.167q0,1.14844.35644,1.40625v.09864ZM292.458,97.88911a2.86884,2.86884,0,0,0,1.01953-.168,2.45357,2.45357,0,0,0,.75293-.43554,1.80742,1.80742,0,0,0,.46484-.61328,1.725,1.725,0,0,0,.15821-.72266V94.42427a3.0858,3.0858,0,0,1-.86133.34668q-.50391.12891-1.01953.24805a5.3833,5.3833,0,0,0-1.584.55371A1.11854,1.11854,0,0,0,290.874,96.603a1.10556,1.10556,0,0,0,.43555.999A2.04835,2.04835,0,0,0,292.458,97.88911Z" transform="translate(-0.19727)"/><path class="cls-7" d="M299.12988,85.37642h2.69336V99.53267h-2.69336Z" transform="translate(-0.19727)"/><path class="cls-7" d="M300.07715,234.96724a7.16289,7.16289,0,0,1-4.46485-1.21778,4.33872,4.33872,0,0,1-1.65234-3.47461h2.81152a2.51063,2.51063,0,0,0,.91016,1.83106,3.88681,3.88681,0,0,0,2.27734.54492,5.31053,5.31053,0,0,0,1.04883-.09961,2.81488,2.81488,0,0,0,.8711-.3164,1.77643,1.77643,0,0,0,.60449-.56446,1.50155,1.50155,0,0,0,.22754-.84179,1.401,1.401,0,0,0-.248-.85157,1.91708,1.91708,0,0,0-.70215-.56347,5.65444,5.65444,0,0,0-1.09961-.39649q-.64307-.167-1.45508-.34668-.95067-.21679-1.83105-.48437a5.571,5.571,0,0,1-1.54492-.72266,3.48812,3.48812,0,0,1-1.06836-1.16894,3.63627,3.63627,0,0,1-.40625-1.82129,3.96984,3.96984,0,0,1,.40625-1.84082,3.768,3.768,0,0,1,1.12793-1.32715,5.08358,5.08358,0,0,1,1.71289-.80176,8.36154,8.36154,0,0,1,2.17773-.26758,6.12027,6.12027,0,0,1,3.85157,1.12891,4.33972,4.33972,0,0,1,1.61328,3.28711h-2.752a2.15182,2.15182,0,0,0-.87109-1.60449,3.139,3.139,0,0,0-1.86133-.53418,3.35486,3.35486,0,0,0-1.86133.45507,1.38787,1.38787,0,0,0-.69238,1.208,1.29468,1.29468,0,0,0,.1875.72266,1.61006,1.61006,0,0,0,.57422.50488,4.26765,4.26765,0,0,0,.96.376c.38281.10644.83887.21777,1.36621.33691q1.08984.2373,2.04981.52442a6.34309,6.34309,0,0,1,1.68261.76269,3.498,3.498,0,0,1,1.13868,1.208,3.778,3.778,0,0,1,.416,1.88086,4.25071,4.25071,0,0,1-.416,1.91015,3.97506,3.97506,0,0,1-1.14844,1.40625,5.26087,5.26087,0,0,1-1.74219.86133A7.79415,7.79415,0,0,1,300.07715,234.96724Z" transform="translate(-0.19727)"/><path class="cls-7" d="M305.97754,220.4936H317.3623v2.416h-4.25683v11.74023h-2.87109V222.90962h-4.25684Z" transform="translate(-0.19727)"/><path class="cls-7" d="M318.80762,220.4936h4.03906l2,7.1084q.17724.67238.3457,1.34571.16846.67381.28711,1.22754.13917.65331.25781,1.248h.03907c.08008-.39648.165-.8125.25781-1.248q.11865-.55373.26758-1.22754.14794-.67238.34668-1.34571l1.999-7.1084h4.09863v14.15625h-2.67285v-8.11718c0-.29.00293-.6045.00977-.94043q.01024-.50538.0498-.96094.019-.51416.05957-1.0293h-.04q-.0996.49512-.19824.97071c-.06543.27636-.13476.56738-.208.87109q-.10839.45556-.207.85059l-2.43554,8.35546h-2.752l-2.376-8.35546c-.07911-.26368-.15235-.54688-.21778-.85059-.0664-.30371-.13281-.59473-.19824-.87109q-.09962-.47608-.19824-.97071h-.03906q.019.51563.05957,1.0293.019.45556.03906.96094c.01269.33593.01953.65039.01953.94043v8.11718h-2.63281Z" transform="translate(-0.19727)"/><path class="cls-7" d="M339.47754,234.94673a7.0479,7.0479,0,0,1-2.30664-.3457,4.439,4.439,0,0,1-1.66309-.99024,4.2155,4.2155,0,0,1-1.00976-1.55469,5.91492,5.91492,0,0,1-.36621-2.01953h2.57421a4.72013,4.72013,0,0,0,.19727,1.11914,2.42867,2.42867,0,0,0,.47559.8711,2.06163,2.06163,0,0,0,.81152.56445,3.20087,3.20087,0,0,0,1.18848.19727,2.52473,2.52473,0,0,0,1.76171-.57422,2.07759,2.07759,0,0,0,.63379-1.62305,1.95667,1.95667,0,0,0-.624-1.54394,2.74022,2.74022,0,0,0-1.87109-.55469h-.83106v-2.03906h.77149a2.54921,2.54921,0,0,0,1.584-.46582,1.57443,1.57443,0,0,0,.61426-1.33594,1.699,1.699,0,0,0-.51465-1.29688,1.97053,1.97053,0,0,0-1.40625-.48535,2.166,2.166,0,0,0-1.74219.67285,2.75781,2.75781,0,0,0-.61328,1.74219h-2.57422a5.51086,5.51086,0,0,1,.36621-1.831,3.83278,3.83278,0,0,1,.9502-1.40528,4.38193,4.38193,0,0,1,1.52441-.91113,6.11575,6.11575,0,0,1,2.08887-.32715,6.655,6.655,0,0,1,1.9209.25781,4.50194,4.50194,0,0,1,1.46484.73243,3.22236,3.22236,0,0,1,.94043,1.14843,3.44933,3.44933,0,0,1,.32715,1.52442,2.54165,2.54165,0,0,1-.65332,1.832,4.01378,4.01378,0,0,1-1.66309,1.01953v.03906a3.78812,3.78812,0,0,1,2.0293,1.14844,3.32478,3.32478,0,0,1,.72266,2.25684,3.98336,3.98336,0,0,1-.40625,1.84179,3.70279,3.70279,0,0,1-1.09864,1.30664,4.85943,4.85943,0,0,1-1.624.77246A7.42289,7.42289,0,0,1,339.47754,234.94673Z" transform="translate(-0.19727)"/><path class="cls-7" d="M345.91211,232.88814a6.51166,6.51166,0,0,1,.752-1.44532,7.41087,7.41087,0,0,1,1.03028-1.18847q.57421-.53467,1.14843-.98926.63282-.49512,1.27637-.95117a11.39464,11.39464,0,0,0,1.14844-.91992,4.57823,4.57823,0,0,0,.82226-.99024,2.23508,2.23508,0,0,0,.31641-1.17773,2.32636,2.32636,0,0,0-.48535-1.53516,1.7124,1.7124,0,0,0-1.39551-.584,1.945,1.945,0,0,0-1.60351.71289,3.347,3.347,0,0,0-.61426,2.03906h-2.53418a5.38846,5.38846,0,0,1,1.19824-3.68262A4.55316,4.55316,0,0,1,350.585,220.81a5.25384,5.25384,0,0,1,1.96973.34668A4.20265,4.20265,0,0,1,354,222.09712a4.02976,4.02976,0,0,1,.89062,1.38574,4.55816,4.55816,0,0,1,.30762,1.66406,4.46721,4.46721,0,0,1-.29687,1.68262,4.66289,4.66289,0,0,1-.78223,1.29688,6.822,6.822,0,0,1-1.09863,1.01953q-.61524.45557-1.22754.87109-.397.25782-.8125.54492-.416.28711-.78223.59375a6.86394,6.86394,0,0,0-.66308.63379,3.54413,3.54413,0,0,0-.47461.64356h6.25586v2.21679H345.5752A5.6431,5.6431,0,0,1,345.91211,232.88814Z" transform="translate(-0.19727)"/><path class="cls-7" d="M355.99023,220.4936h2.92969l1.8418,7.02832q.09814.457.208,1,.10839.54494.208,1,.09814.53467.19727,1.08887h.04q.11865-.51416.21777-1.02929.09814-.45558.208-.98047.10841-.52442.22754-.999l1.54394-7.1084h2.77247l1.54394,7.0879q.09961.47607.21777,1,.11867.5244.21778.98046.0996.51417.21777,1.04883h.04q.11865-.53466.23731-1.08887.09813-.45557.22753-1.00976.12891-.55371.22754-1.00977l1.78223-7.00879h2.83105l-4.03906,14.15625h-2.67285l-1.72266-7.583q-.09814-.39552-.17773-.83106-.07909-.43651-.1582-.8125-.08057-.43506-.15918-.87109H364.959q-.06.43652-.13867.87109-.06006.37647-.13867.8125-.07909.43506-.17773.83106l-1.74317,7.583H360.1084Z" transform="translate(-0.19727)"/><path class="cls-7" d="M375.11523,220.4936h2.8711v11.76075h6.65234v2.3955h-9.52344Z" transform="translate(-0.19727)"/><path class="cls-7" d="M386.18262,220.4936h10.415v2.416h-7.54395v3.167H395.667v2.35645h-6.61328v3.82129h7.60254v2.3955H386.18262Z" transform="translate(-0.19727)"/><path class="cls-7" d="M403.07227,234.94673a7.25885,7.25885,0,0,1-2.08887-.28711,5.13976,5.13976,0,0,1-1.67383-.831,4.339,4.339,0,0,1-1.70215-3.09864h2.65332a2.08394,2.08394,0,0,0,.92969,1.48438,3.34069,3.34069,0,0,0,1.82227.47558,2.37582,2.37582,0,0,0,1.84082-.73242,2.5888,2.5888,0,0,0,.67382-1.82129,2.34969,2.34969,0,0,0-.72265-1.85156,2.59881,2.59881,0,0,0-1.792-.64355,3.26423,3.26423,0,0,0-1.34668.25781,2.50665,2.50665,0,0,0-.8711.59375h-2.59375l1.30664-7.40528h7.999v2.23731h-6.11817l-.51465,2.93066h.04a3.28828,3.28828,0,0,1,1.15821-.624,5.3894,5.3894,0,0,1,1.65332-.22754,4.66513,4.66513,0,0,1,1.72168.32715,4.4279,4.4279,0,0,1,2.49511,2.43457,4.97233,4.97233,0,0,1,.376,1.9707,4.56269,4.56269,0,0,1-1.51465,3.46485,5.10768,5.10768,0,0,1-1.66309.98925A5.88532,5.88532,0,0,1,403.07227,234.94673Z" transform="translate(-0.19727)"/><path class="cls-7" d="M550.39062,220.4936h6.49415a5.76556,5.76556,0,0,1,1.87109.28711,4.26473,4.26473,0,0,1,1.43555.80176,3.5577,3.5577,0,0,1,.92089,1.23731,3.87625,3.87625,0,0,1,.32618,1.61425,3.71891,3.71891,0,0,1-.61328,2.14747,3.35252,3.35252,0,0,1-1.9795,1.27734v.05957a2.88459,2.88459,0,0,1,1.49414.9209,3.64537,3.64537,0,0,1,.66309,1.92969q.07909.75293.10937,1.39648.02931.64306.07911,1.13867a4.16126,4.16126,0,0,0,.14843.81152.593.593,0,0,0,.27735.39551v.13867h-2.752c-.09277-.03906-.165-.16113-.21777-.36621a5.5061,5.5061,0,0,1-.12891-.76172q-.0498-.45557-.08886-1.00976-.03956-.55518-.0791-1.12891a2.6708,2.6708,0,0,0-.7627-1.792,2.84158,2.84158,0,0,0-2.00977-.624h-2.3164v5.68261h-2.8711Zm2.8711,6.25684h3.04883a2.48268,2.48268,0,0,0,1.76269-.54492,1.83714,1.83714,0,0,0,.57422-1.39551,1.96467,1.96467,0,0,0-.55469-1.43555,2.29451,2.29451,0,0,0-1.70312-.56445h-3.12793Z" transform="translate(-0.19727)"/><path class="cls-7" d="M563.28027,220.4936H573.417v2.43555h-7.26562v3.40527h6.15722v2.45508h-6.15722v5.86035h-2.8711Z" transform="translate(-0.19727)"/><path class="cls-7" d="M578.36719,220.4936h10.13672v2.43555h-7.26563v3.40527h6.15723v2.45508h-6.15723v5.86035h-2.87109Z" transform="translate(-0.19727)"/><path class="cls-7" d="M591.90918,226.11665h.05957a3.82848,3.82848,0,0,1,1.0293-1.30664,2.35924,2.35924,0,0,1,1.46582-.43555,1.941,1.941,0,0,1,.63281.07911V226.81h-.05859a2.795,2.795,0,0,0-2.17871.57422,2.85986,2.85986,0,0,0-.85059,2.31641v4.94921h-2.69336V224.49263h2.59375Z" transform="translate(-0.19727)"/><path class="cls-7" d="M600.7793,234.94673a5.438,5.438,0,0,1-2.15821-.415,5.12913,5.12913,0,0,1-1.67285-1.13867,5.074,5.074,0,0,1-1.08886-1.70313,5.94084,5.94084,0,0,1,0-4.21679,5.03654,5.03654,0,0,1,2.76171-2.8418,5.81885,5.81885,0,0,1,4.31641,0,5.03659,5.03659,0,0,1,2.76172,2.8418,5.94084,5.94084,0,0,1,0,4.21679,5.07419,5.07419,0,0,1-1.08887,1.70313,5.12913,5.12913,0,0,1-1.67285,1.13867A5.43792,5.43792,0,0,1,600.7793,234.94673Zm0-2.05859a2.21751,2.21751,0,0,0,1.91015-.91114,3.97278,3.97278,0,0,0,.66407-2.3955,4.01841,4.01841,0,0,0-.66407-2.40528,2.4415,2.4415,0,0,0-3.82031,0,4.01847,4.01847,0,0,0-.66406,2.40528,3.97285,3.97285,0,0,0,.66406,2.3955A2.21635,2.21635,0,0,0,600.7793,232.88814Z" transform="translate(-0.19727)"/><path class="cls-7" d="M609.96582,225.87935h.05957a3.55372,3.55372,0,0,1,1.23731-1.248,3.87263,3.87263,0,0,1,3.208-.12793,3.23472,3.23472,0,0,1,1.09864.792,3.67335,3.67335,0,0,1,.71289,1.19727,4.36541,4.36541,0,0,1,.25683,1.52441v6.63281h-2.69238v-6.23632a1.95738,1.95738,0,0,0-.45508-1.34668,1.654,1.654,0,0,0-1.30664-.51465,1.90773,1.90773,0,0,0-1.47558.64355,2.41934,2.41934,0,0,0-.584,1.69239v5.76171H607.333V224.49263h2.63281Z" transform="translate(-0.19727)"/><path class="cls-7" d="M617.41113,224.49263h1.40528v-3.167h2.63379v3.167h1.74218v1.78222H621.4502v5.38575a.95857.95857,0,0,0,.27636.792,1.15223,1.15223,0,0,0,.7334.21777h.51465a2.04718,2.04718,0,0,0,.27734-.01953v1.97949a4.275,4.275,0,0,1-.43554.01953c-.14551.01368-.32422.02051-.53516.02051h-.71289a4.47516,4.47516,0,0,1-.97949-.10937,2.45982,2.45982,0,0,1-.88184-.38574,2.04534,2.04534,0,0,1-.64258-.75293,2.54054,2.54054,0,0,1-.248-1.1875v-5.96h-1.40528Z" transform="translate(-0.19727)"/><path class="cls-7" d="M628.12109,220.4936h10.415v2.416h-7.54394v3.167h6.61328v2.35645h-6.61328v3.82129h7.60254v2.3955H628.12109Z" transform="translate(-0.19727)"/><path class="cls-7" d="M642.793,225.87935h.05957a3.54572,3.54572,0,0,1,1.2373-1.248,3.87045,3.87045,0,0,1,3.207-.12793,3.23458,3.23458,0,0,1,1.09863.792,3.65638,3.65638,0,0,1,.71289,1.19727,4.343,4.343,0,0,1,.25781,1.52441v6.63281h-2.69238v-6.23632a1.9579,1.9579,0,0,0-.45606-1.34668,1.654,1.654,0,0,0-1.30664-.51465,1.90574,1.90574,0,0,0-1.47461.64355,2.41938,2.41938,0,0,0-.584,1.69239v5.76171h-2.69336V224.49263H642.793Z" transform="translate(-0.19727)"/><path class="cls-7" d="M654.83105,234.94673a4.00994,4.00994,0,0,1-1.74316-.376,3.85729,3.85729,0,0,1-1.35547-1.06933,5.05328,5.05328,0,0,1-.88183-1.69239,7.35907,7.35907,0,0,1-.31641-2.22753,7.12365,7.12365,0,0,1,.31641-2.17774,4.99319,4.99319,0,0,1,.90136-1.69336,4.24912,4.24912,0,0,1,1.376-1.09863,3.84148,3.84148,0,0,1,1.74219-.39551,3.25994,3.25994,0,0,1,1.76172.43555,3.58623,3.58623,0,0,1,1.10937,1.06836h.05957V220.4936h2.69238v14.15625h-2.59375v-1.32617h-.04a3.37915,3.37915,0,0,1-3.02833,1.62305Zm.59375-2.25684a2.12938,2.12938,0,0,0,1.82129-.82129,3.64134,3.64134,0,0,0,.61329-2.22753,6.3496,6.3496,0,0,0-.12793-1.32715,3.0412,3.0412,0,0,0-.40625-1.01953,1.93977,1.93977,0,0,0-.72266-.66309,2.31388,2.31388,0,0,0-1.09863-.2373,1.85294,1.85294,0,0,0-1.67286.89062,4.22166,4.22166,0,0,0-.56445,2.29688,4.04044,4.04044,0,0,0,.55469,2.29687A1.82079,1.82079,0,0,0,655.4248,232.68989Z" transform="translate(-0.19727)"/><path class="cls-7" d="M389.42578,76.36763a7.047,7.047,0,0,1-2.30664-.34668,4.42118,4.42118,0,0,1-1.66309-.99024,4.22391,4.22391,0,0,1-1.00976-1.55371,5.94293,5.94293,0,0,1-.36621-2.01953h2.57422a4.70246,4.70246,0,0,0,.19726,1.11817,2.4205,2.4205,0,0,0,.47559.87109,2.05164,2.05164,0,0,0,.81152.56445,3.2035,3.2035,0,0,0,1.18848.19824,2.532,2.532,0,0,0,1.76269-.57421,2.07986,2.07986,0,0,0,.63282-1.62305,1.96278,1.96278,0,0,0-.62305-1.54492,2.747,2.747,0,0,0-1.87109-.55469h-.832V67.87349h.77149a2.553,2.553,0,0,0,1.584-.46485,1.57492,1.57492,0,0,0,.61426-1.33691,1.69693,1.69693,0,0,0-.51465-1.29688,1.97053,1.97053,0,0,0-1.40625-.48535,2.16329,2.16329,0,0,0-1.74219.67383,2.75362,2.75362,0,0,0-.61328,1.74219h-2.57422a5.51072,5.51072,0,0,1,.36622-1.83106,3.84467,3.84467,0,0,1,.95019-1.40625,4.39235,4.39235,0,0,1,1.52539-.91113,6.11076,6.11076,0,0,1,2.08789-.32617,6.62168,6.62168,0,0,1,1.9209.25781,4.47854,4.47854,0,0,1,1.46582.73242,3.203,3.203,0,0,1,.93945,1.14844,3.433,3.433,0,0,1,.32715,1.52442,2.53763,2.53763,0,0,1-.65332,1.831,4.00366,4.00366,0,0,1-1.66308,1.01953v.04a3.77208,3.77208,0,0,1,2.02929,1.14844,3.323,3.323,0,0,1,.72266,2.25683,3.99133,3.99133,0,0,1-.40527,1.84082,3.7276,3.7276,0,0,1-1.09961,1.30762,4.86216,4.86216,0,0,1-1.623.77149A7.39605,7.39605,0,0,1,389.42578,76.36763Z" transform="translate(-0.19727)"/><path class="cls-7" d="M395.86133,74.30806a6.451,6.451,0,0,1,.75195-1.44531,7.35007,7.35007,0,0,1,1.0293-1.1875q.57422-.53468,1.14844-.99024.63281-.49512,1.27734-.95019a11.62431,11.62431,0,0,0,1.14844-.9209,4.55488,4.55488,0,0,0,.82129-.99024,2.23586,2.23586,0,0,0,.31738-1.17773,2.31873,2.31873,0,0,0-.48633-1.53418,1.70948,1.70948,0,0,0-1.39551-.584,1.94223,1.94223,0,0,0-1.60351.71289,3.3513,3.3513,0,0,0-.61426,2.03907h-2.5332a5.38806,5.38806,0,0,1,1.19726-3.68262,4.55126,4.55126,0,0,1,3.61328-1.36621,5.23968,5.23968,0,0,1,1.97071.34668,4.18388,4.18388,0,0,1,1.44531.94043,4.04923,4.04923,0,0,1,.89062,1.38574,4.5725,4.5725,0,0,1,.30664,1.66309,4.46342,4.46342,0,0,1-.29687,1.68261,4.64852,4.64852,0,0,1-.78223,1.29688,6.695,6.695,0,0,1-1.09863,1.01953q-.61524.457-1.22754.87207c-.26465.1709-.53418.35254-.81152.544s-.53907.38964-.78321.59375a6.73757,6.73757,0,0,0-.6621.63378,3.53978,3.53978,0,0,0-.47559.64356h6.25683v2.21777h-9.74218A5.64924,5.64924,0,0,1,395.86133,74.30806Z" transform="translate(-0.19727)"/><path class="cls-7" d="M406.92773,61.9145h4.03907l2,7.10742q.17871.67383.34668,1.34668.16845.67238.28711,1.22754.13915.65332.25683,1.24707h.04q.11865-.59325.25684-1.24707.12012-.55517.26758-1.22754.1494-.67381.34765-1.34668l1.999-7.10742h4.09864V76.07075h-2.67383V67.95259q0-.43506.01074-.94043c.00684-.33594.02246-.65625.04981-.96.01269-.34278.03222-.68653.05859-1.0293h-.03906q-.09962.49512-.19824.96973c-.06543.27734-.13575.56738-.208.87109s-.1416.58789-.207.85156l-2.43555,8.35547h-2.75195l-2.377-8.35547c-.07812-.26367-.15136-.54785-.21679-.85156q-.09962-.45556-.19922-.87109-.09814-.47462-.19727-.96973h-.03906c.01172.34277.03223.68652.05859,1.0293.01367.30371.02637.624.04.96q.019.50537.01953.94043v8.11816h-2.63379Z" transform="translate(-0.19727)"/><path class="cls-7" d="M425.51953,67.2397h.05859a3.93751,3.93751,0,0,1,1.22852-1.207,3.35173,3.35173,0,0,1,1.72266-.39649,3.48973,3.48973,0,0,1,1.43554.28711,3.23066,3.23066,0,0,1,1.09766.792,3.65431,3.65431,0,0,1,.71289,1.19825,4.33886,4.33886,0,0,1,.25781,1.52441v6.63281h-2.69238v-6.2373a1.95065,1.95065,0,0,0-.45605-1.3457,1.64808,1.64808,0,0,0-1.30665-.51465,1.90487,1.90487,0,0,0-1.4746.64257,2.42353,2.42353,0,0,0-.584,1.69336v5.76172h-2.69336V61.9145h2.69336Z" transform="translate(-0.19727)"/><path class="cls-7" d="M433.35938,74.01118l5.22753-5.91992v-.05957h-4.63379V65.91353h7.76172v2.1582L436.60742,73.853v.05957h5.36524v2.1582h-8.61328Z" transform="translate(-0.19727)"/><path class="cls-7" d="M388.08008,85.67329h11.38379v2.416H395.207V99.82954h-2.87109V88.08931h-4.25586Z" transform="translate(-0.19727)"/><path class="cls-7" d="M406.41406,100.12642a6.83536,6.83536,0,0,1-2.74218-.54395,6.27688,6.27688,0,0,1-2.15821-1.52441,7.053,7.053,0,0,1-1.40625-2.31641,8.2755,8.2755,0,0,1-.50488-2.94043,8.784,8.784,0,0,1,.47558-2.9209,7.04137,7.04137,0,0,1,1.35547-2.35547,6.19056,6.19056,0,0,1,2.13868-1.56445,6.82091,6.82091,0,0,1,2.82128-.56445,6.94992,6.94992,0,0,1,2.33692.36621,5.4938,5.4938,0,0,1,1.77148,1.00976,4.87474,4.87474,0,0,1,1.17774,1.51465,5.63446,5.63446,0,0,1,.55469,1.88086h-2.85157a2.80988,2.80988,0,0,0-.96972-1.71191,3.05256,3.05256,0,0,0-2.01954-.64356,3.57306,3.57306,0,0,0-1.71191.38575,3.422,3.422,0,0,0-1.19824,1.05957,4.812,4.812,0,0,0-.71289,1.584,7.75493,7.75493,0,0,0-.23731,1.96,7.06709,7.06709,0,0,0,.26758,2,4.8015,4.8015,0,0,0,.77149,1.57324,3.46059,3.46059,0,0,0,2.84179,1.39649,3.15187,3.15187,0,0,0,2.08789-.6836,2.68877,2.68877,0,0,0,.96094-1.81152h2.81055a5.04835,5.04835,0,0,1-.45508,1.81152,4.92369,4.92369,0,0,1-1.1084,1.53516,5.40115,5.40115,0,0,1-1.77246,1.09863A6.95272,6.95272,0,0,1,406.41406,100.12642Z" transform="translate(-0.19727)"/><path class="cls-7" d="M416.80859,92.42525l-4.2373-6.752h3.22754l2.61328,4.47461h.03906l2.61328-4.47461h3.12891l-4.1582,6.73145,4.69336,7.4248h-3.34668l-2.89063-5.167h-.04l-2.92969,5.167h-3.2871Z" transform="translate(-0.19727)"/><path class="cls-7" d="M431.20215,100.14692a6.99384,6.99384,0,0,1-2.83106-.55468,6.25959,6.25959,0,0,1-2.1582-1.53418,6.75492,6.75492,0,0,1-1.36719-2.33692,9.34294,9.34294,0,0,1,0-5.87988,6.863,6.863,0,0,1,1.36719-2.34668,6.20779,6.20779,0,0,1,2.1582-1.54394,7.47708,7.47708,0,0,1,5.65235,0,6.24294,6.24294,0,0,1,2.14844,1.54394,6.84339,6.84339,0,0,1,1.36523,2.34668,9.32466,9.32466,0,0,1,0,5.87988,6.73579,6.73579,0,0,1-1.36523,2.33692,6.2954,6.2954,0,0,1-2.14844,1.53418A6.93,6.93,0,0,1,431.20215,100.14692Zm.01953-2.35644a3.54533,3.54533,0,0,0,1.69238-.38574,3.50509,3.50509,0,0,0,1.208-1.05957,4.708,4.708,0,0,0,.72266-1.59375,8.33819,8.33819,0,0,0,0-3.9502,4.83234,4.83234,0,0,0-.72266-1.59375,3.4736,3.4736,0,0,0-1.208-1.06933,3.54521,3.54521,0,0,0-1.69238-.38575,3.60174,3.60174,0,0,0-1.70215.38575,3.5381,3.5381,0,0,0-1.22851,1.06933,4.8616,4.8616,0,0,0-.74219,1.59375,7.98734,7.98734,0,0,0,0,3.9502,4.73426,4.73426,0,0,0,.74219,1.59375,3.47918,3.47918,0,0,0,2.93066,1.44531Z" transform="translate(-0.19727)"/><path class="cls-7" d="M503.44727,73.46333h10.69726a10.95785,10.95785,0,0,1,3.09668.42188,7.4414,7.4414,0,0,1,2.48731,1.23535,5.74938,5.74938,0,0,1,1.6416,2.01758,6.18978,6.18978,0,0,1,.59472,2.76855,5.30435,5.30435,0,0,1-3.8789,5.41113v.09375a4.74135,4.74135,0,0,1,2.23633,1.4541,5.43869,5.43869,0,0,1,1.0166,2.64356,17.27851,17.27851,0,0,1,.23437,2.14258q.04688,1.04883.10938,1.877a9.492,9.492,0,0,0,.18847,1.376c.083.36523.21875.57812.40625.64062v.28223h-5.37988a.93441.93441,0,0,1-.32812-.6416,12.58578,12.58578,0,0,1-.18848-1.251q-.07764-.73389-.14063-1.59473-.063-.86132-.1875-1.70507a3.89621,3.89621,0,0,0-1.0791-2.377,3.73087,3.73087,0,0,0-2.64258-.81347h-3.34667v8.38281h-5.53711Zm9.69628,9.88379a3.70319,3.70319,0,0,0,2.48731-.71973,2.51009,2.51009,0,0,0,.8291-2.001,2.68457,2.68457,0,0,0-.79785-2.002,3.28957,3.28957,0,0,0-2.39258-.78222h-4.28515v5.50488Z" transform="translate(-0.19727)"/><path class="cls-7" d="M531.22168,73.46333H536.915l8.06934,22.36426H539.167l-1.31347-4.03516H530.0332L528.751,95.82759h-5.56739Zm5.34863,14.35645-1.68847-5.41114c-.1045-.292-.209-.61425-.3125-.96972q-.1582-.53028-.28223-1.03223-.15673-.5625-.28125-1.15723h-.0625q-.15673.59474-.3125,1.15723-.15673.501-.29785,1.03223c-.09375.35547-.19239.67773-.29688.96972l-1.71972,5.41114Z" transform="translate(-0.19727)"/><path class="cls-7" d="M546.54785,73.46333H552.085v8.10059l7.69434-8.10059h6.56836l-8.57032,8.97656,9.07032,13.3877H560.4043l-6.44336-9.665-1.876,1.9707v7.69434h-5.53711Z" transform="translate(-0.19727)"/><path class="cls-7" d="M576.3877,96.32759a13.12068,13.12068,0,0,1-3.957-.53125,7.60992,7.60992,0,0,1-2.79882-1.5332,7.38725,7.38725,0,0,1-2.37793-5.84864h4.97363a4.60411,4.60411,0,0,0,1.001,2.79883,3.63579,3.63579,0,0,0,2.94043,1.0791,3.48662,3.48662,0,0,0,2.48632-.8125,2.83173,2.83173,0,0,0,.86035-2.1582,2.46919,2.46919,0,0,0-.93847-2.11133,4.47806,4.47806,0,0,0-2.72168-.7041h-1.28223V82.84712h1.15723a4.09324,4.09324,0,0,0,2.40918-.6416,2.13634,2.13634,0,0,0,.90625-1.86133,2.28308,2.28308,0,0,0-.73438-1.7666,2.97252,2.97252,0,0,0-2.08007-.67285,3.12788,3.12788,0,0,0-2.51856.93847,3.91924,3.91924,0,0,0-.89062,2.34571h-4.91114a7.80853,7.80853,0,0,1,.59473-2.92481,6.36593,6.36593,0,0,1,1.626-2.2832,7.51251,7.51251,0,0,1,2.6123-1.48535,10.90175,10.90175,0,0,1,3.54981-.53223,12.03536,12.03536,0,0,1,3.2373.40723A7.525,7.525,0,0,1,582.0332,75.559a5.35232,5.35232,0,0,1,2.20508,4.44141,3.92819,3.92819,0,0,1-.90723,2.69043,5.93915,5.93915,0,0,1-2.3457,1.59473v.0625a5.61927,5.61927,0,0,1,2.83106,1.81445,5.27685,5.27685,0,0,1,1.04785,3.44043,6.16344,6.16344,0,0,1-.68848,2.9873,6.09391,6.09391,0,0,1-1.86133,2.09571,8.33009,8.33009,0,0,1-2.70507,1.23535A12.54282,12.54282,0,0,1,576.3877,96.32759Z" transform="translate(-0.19727)"/><path class="cls-7" d="M590.96387,82.12739h-4.59766V78.562a6.907,6.907,0,0,0,3.72168-1.11035,4.73,4.73,0,0,0,1.9707-3.2373H596.25V95.82759h-5.28613Z" transform="translate(-0.19727)"/><path class="cls-7" d="M602.583,90.33833a26.72364,26.72364,0,0,1,1.81445-4.72363,26.27448,26.27448,0,0,1,2.33008-3.83106,27.95262,27.95262,0,0,1,2.377-2.84668v-.0625H598.78223V74.40181h15.85839v4.0664a24.016,24.016,0,0,0-2.70507,3.26856,26.39235,26.39235,0,0,0-3.957,8.80469,25.63488,25.63488,0,0,0-.71973,5.28613h-5.50488A22.61664,22.61664,0,0,1,602.583,90.33833Z" transform="translate(-0.19727)"/><path class="cls-7" d="M616.002,93.40278a8.74349,8.74349,0,0,1,.79785-1.96972,9.13793,9.13793,0,0,1,1.17286-1.64258,12.72356,12.72356,0,0,1,1.48535-1.40723q1.47071-1.251,3.15918-2.42383a33.37061,33.37061,0,0,0,2.97168-2.2998,5.41582,5.41582,0,0,0,1.03222-1.21973,2.74284,2.74284,0,0,0,.375-1.43847,2.869,2.869,0,0,0-.70312-2.01758,2.68716,2.68716,0,0,0-2.08008-.7666,2.80085,2.80085,0,0,0-2.31543.96972,3.47262,3.47262,0,0,0-.70312,1.29786,7.12278,7.12278,0,0,0-.26563,1.86132h-4.94238a12.01444,12.01444,0,0,1,.34375-3.12793,7.02907,7.02907,0,0,1,1.126-2.31445,6.44429,6.44429,0,0,1,2.62793-2.127,9.92213,9.92213,0,0,1,4.25391-.81348,10.14645,10.14645,0,0,1,3.42481.53223,7.06323,7.06323,0,0,1,2.48632,1.46972,6.25121,6.25121,0,0,1,1.51758,2.18946,6.91374,6.91374,0,0,1,.51563,2.65918,6.702,6.702,0,0,1-.28125,2.01758,6.18327,6.18327,0,0,1-.78223,1.626,8.31517,8.31517,0,0,1-1.1416,1.34473q-.64161.61083-1.36035,1.17383-.72071.59325-1.48633,1.1416-.76611.54639-1.5166,1.0791-.75.53173-1.4541,1.09473a12.42535,12.42535,0,0,0-1.26758,1.15722v.03125h9.32129v4.34766H615.67383A10.0037,10.0037,0,0,1,616.002,93.40278Z" transform="translate(-0.19727)"/><path class="cls-7" d="M634.00293,85.78657h8.50781v4.37891h-8.50781Z" transform="translate(-0.19727)"/><path class="cls-7" d="M654.23926,96.35884a15.79919,15.79919,0,0,1-4.05078-.48438,9.19326,9.19326,0,0,1-3.12793-1.43945,6.76449,6.76449,0,0,1-2.03321-2.377,7.28881,7.28881,0,0,1-.7666-3.26856h5.56836a3.2005,3.2005,0,0,0,1.28223,2.43946,5.431,5.431,0,0,0,3.09668.751,6.88617,6.88617,0,0,0,1.3291-.125,3.79834,3.79834,0,0,0,1.1416-.40625,2.418,2.418,0,0,0,.81348-.73535,1.85585,1.85585,0,0,0,.3125-1.0791,1.77534,1.77534,0,0,0-.32813-1.09473,2.64081,2.64081,0,0,0-.9541-.751,7.90662,7.90662,0,0,0-1.5332-.54688q-.90673-.23437-2.06348-.5166-1.47071-.34278-2.89355-.78125a9.70456,9.70456,0,0,1-2.54981-1.18945,6.02807,6.02807,0,0,1-1.8291-1.90723,5.50984,5.50984,0,0,1-.7041-2.90918,6.48922,6.48922,0,0,1,.68848-3.081,6.09075,6.09075,0,0,1,1.876-2.14258,8.29854,8.29854,0,0,1,2.81543-1.251,14.43794,14.43794,0,0,1,3.50293-.40625,13.12405,13.12405,0,0,1,3.39453.42188,8.36992,8.36992,0,0,1,2.752,1.2666,6.31421,6.31421,0,0,1,1.87695,2.14258,7.12745,7.12745,0,0,1,.79785,3.0498h-5.41113a2.76529,2.76529,0,0,0-1.09473-2.00195,4.1459,4.1459,0,0,0-2.50293-.68848,4.19966,4.19966,0,0,0-2.3457.5791,1.75039,1.75039,0,0,0-.876,1.5166,1.47833,1.47833,0,0,0,.32813.98536,2.6241,2.6241,0,0,0,.9541.67285,9.351,9.351,0,0,0,1.58008.51562q.95361.23585,2.20507.5166,1.563.375,2.98731.84473a9.32041,9.32041,0,0,1,2.51758,1.251,5.8997,5.8997,0,0,1,1.75195,1.9707,6.08313,6.08313,0,0,1,.65625,2.9707,6.67637,6.67637,0,0,1-.70312,3.11231,6.60222,6.60222,0,0,1-1.93946,2.2832,8.98186,8.98186,0,0,1-2.90918,1.4082A12.93119,12.93119,0,0,1,654.23926,96.35884Z" transform="translate(-0.19727)"/><path class="cls-7" d="M665.68652,73.46333h5.53711V95.82759h-5.53711Z" transform="translate(-0.19727)"/><path class="cls-7" d="M674.28809,73.46333h10.07226a10.72684,10.72684,0,0,1,3.56543.53125,6.8909,6.8909,0,0,1,2.5332,1.5332,6.62745,6.62745,0,0,1,1.67383,2.40821,8.06986,8.06986,0,0,1,.5791,3.09668,7.92854,7.92854,0,0,1-.53222,2.94043,6.62609,6.62609,0,0,1-1.5166,2.31445,6.95091,6.95091,0,0,1-2.39356,1.5166,8.55161,8.55161,0,0,1-3.127.54785H679.919v7.47559h-5.63086Zm9.72753,10.50977a3.13512,3.13512,0,0,0,2.31543-.81348,2.91734,2.91734,0,0,0,.8125-2.1582,2.761,2.761,0,0,0-.8125-2.11133,3.25059,3.25059,0,0,0-2.31543-.7666H679.919V83.9731Z" transform="translate(-0.19727)"/><path d="M104.36035,294.44185a7.904,7.904,0,0,1-2.59375-.38575,5.24934,5.24934,0,0,1-1.85156-1.06933,4.636,4.636,0,0,1-1.1377-1.61328,5.90309,5.90309,0,0,1-.456-2h1.74219q.35742,3.64307,4.376,3.64258a5.19256,5.19256,0,0,0,1.35645-.168,3.19779,3.19779,0,0,0,1.06933-.49512,2.23749,2.23749,0,0,0,.69239-.83106,2.59928,2.59928,0,0,0,.248-1.1582,2.1832,2.1832,0,0,0-.30761-1.208,2.43123,2.43123,0,0,0-.86035-.792,5.61246,5.61246,0,0,0-1.33692-.52441q-.78222-.208-1.73242-.42578-.93018-.19776-1.77246-.46582a5.51725,5.51725,0,0,1-1.47461-.70313,3.27524,3.27524,0,0,1-1.00977-1.09863,3.35245,3.35245,0,0,1-.376-1.67285,3.44682,3.44682,0,0,1,.34668-1.56446,3.35021,3.35021,0,0,1,.97949-1.17773,4.57641,4.57641,0,0,1,1.52441-.74219,7.04136,7.04136,0,0,1,1.96-.25781,7.12675,7.12675,0,0,1,2.28711.32715,4.483,4.483,0,0,1,1.59375.90039,4.00379,4.00379,0,0,1,.99024,1.39648,6.97824,6.97824,0,0,1,.49511,1.791h-1.68261a3.32606,3.32606,0,0,0-1.13867-2.27637,3.89149,3.89149,0,0,0-2.50489-.75293,4.09459,4.09459,0,0,0-2.3164.585,1.91007,1.91007,0,0,0-.8711,1.69239,1.72719,1.72719,0,0,0,.27735,1,2.31056,2.31056,0,0,0,.77148.69238,4.68822,4.68822,0,0,0,1.17871.46582q.68262.17871,1.47461.33691,1.02978.21679,1.98047.48438a6.11738,6.11738,0,0,1,1.68262.74316,3.55387,3.55387,0,0,1,1.168,1.23731,4.40188,4.40188,0,0,1,.0498,3.71191,3.66427,3.66427,0,0,1-1.0791,1.29688,5.01991,5.01991,0,0,1-1.64356.80175A7.48618,7.48618,0,0,1,104.36035,294.44185Z" transform="translate(-0.19727)"/><path d="M110.26074,280.00825h1.86035l2.23731,9.207q.0996.356.18848.78125.08935.42627.168.78223.07911.416.17871.832h.03907c.0664-.29.13183-.58105.19824-.87109.06641-.251.13184-.51465.19824-.792q.09815-.416.19824-.77246l2.55371-9.167h1.9209l2.47461,9.167c.06543.2373.12891.498.1875.78222.05957.28418.12207.55078.18848.80176.06641.291.13184.57422.19824.85156h.03906c.06641-.29.13184-.58105.19825-.87109.0664-.251.125-.51172.17871-.78223q.07762-.40577.17773-.74219l2.35645-9.207h1.80175L123.8623,294.1645h-1.70214l-2.59375-9.97851q-.09962-.31641-.17871-.6836-.07911-.36474-.15821-.70214c-.05273-.251-.1123-.50782-.17871-.77247h-.03906c-.06641.26465-.126.52149-.17871.77247q-.07911.3369-.168.70214-.08936.36768-.18848.6836l-2.77148,9.97851h-1.78223Z" transform="translate(-0.19727)"/><path d="M129.40625,280.00825h5.14746a6.91853,6.91853,0,0,1,2.78223.51465,5.166,5.166,0,0,1,1.95019,1.45508,6.31468,6.31468,0,0,1,1.15821,2.25781,10.30295,10.30295,0,0,1,.38574,2.90039,9.61843,9.61843,0,0,1-.40625,2.88086,6.10163,6.10163,0,0,1-1.207,2.2168,5.36629,5.36629,0,0,1-2,1.42578,7.16852,7.16852,0,0,1-2.80176.50488h-5.00879Zm4.94922,12.59278a5.28188,5.28188,0,0,0,2.12891-.38672,3.6962,3.6962,0,0,0,1.44531-1.09864,4.556,4.556,0,0,0,.82129-1.72265,9.13057,9.13057,0,0,0,.25781-2.25684,10.09044,10.09044,0,0,0-.23828-2.27734,4.77062,4.77062,0,0,0-.77149-1.76172,3.589,3.589,0,0,0-1.39648-1.13867,4.9232,4.9232,0,0,0-2.1084-.40625H131.1875V292.601Z" transform="translate(-0.19727)"/><line class="cls-8" x1="153.14832" y1="287.93251" x2="180.40686" y2="287.93251"/><polygon class="cls-9" points="153.878 290.426 149.56 287.933 153.878 285.439 153.878 290.426"/><polygon class="cls-9" points="179.677 290.426 183.995 287.933 179.677 285.439 179.677 290.426"/><path d="M96.28223,250.41548h5.90039a5.02676,5.02676,0,0,1,1.96972.35644,3.78026,3.78026,0,0,1,2.09864,2.208,4.35262,4.35262,0,0,1,.248,1.49414,4.09289,4.09289,0,0,1-1.11914,3.05957,4.763,4.763,0,0,1-3.45508,1.09864H98.06445v5.93945H96.28223Zm1.78222,6.77148h3.72168a3.088,3.088,0,0,0,2.22754-.70312,2.56355,2.56355,0,0,0,.72266-1.93067,2.4461,2.4461,0,0,0-.74219-1.93945,3.08686,3.08686,0,0,0-2.1084-.6543H98.06445Z" transform="translate(-0.19727)"/><path d="M107.37012,250.41548h1.86035l2.2373,9.207q.09962.356.18848.78125.08935.42627.168.78223.07909.416.17871.832h.03906c.06641-.29.13184-.58106.19824-.8711.06641-.251.13184-.51464.19825-.792q.09815-.416.19824-.77246l2.55371-9.167h1.9209l2.47461,9.167c.06543.23731.1289.498.1875.78223.05957.28418.12207.55078.18847.80176.06641.291.13184.57421.19825.85156h.03906c.0664-.29.13183-.58106.19824-.8711.06641-.251.125-.51171.17871-.78222q.07764-.40577.17774-.74219l2.35644-9.207h1.80176l-3.94043,14.15625h-1.70215l-2.59375-9.97852q-.0996-.31639-.17871-.68359-.07909-.36474-.1582-.70215c-.05274-.251-.11231-.50781-.17871-.77246h-.03907c-.0664.26465-.126.52149-.17871.77246q-.07909.33692-.168.70215-.08936.36768-.18847.68359l-2.77149,9.97852h-1.78222Z" transform="translate(-0.19727)"/><path d="M126.51562,250.41548H128.792l4.59375,11.76074h.03906l4.55469-11.76074h2.31641v14.15625h-1.70313v-11.6416h-.04c-.0791.21094-.15136.42285-.21777.63379q-.09814.27686-.207.584-.10986.30615-.208.56445l-3.88086,9.85938h-1.36621l-3.88086-9.85938q-.0996-.27831-.208-.57421-.10839-.29738-.208-.57422c-.06543-.21094-.1377-.42285-.21778-.63379h-.03906v11.6416h-1.60352Z" transform="translate(-0.19727)"/><line class="cls-8" x1="153.14832" y1="258.34016" x2="183.995" y2="258.34016"/><polygon class="cls-9" points="153.878 260.833 149.56 258.34 153.878 255.847 153.878 260.833"/><path d="M106.61719,220.82271h2l5.22656,14.15625h-1.94043l-1.50391-4.31641h-5.64355l-1.52441,4.31641h-1.82129Zm-1.34668,8.39453h4.63379l-1.624-4.751q-.0996-.29736-.208-.64355-.10841-.34717-.208-.64356-.09815-.35742-.21778-.71289h-.03906c-.0791.22461-.15234.45508-.21777.69238q-.09962.29737-.21777.65332c-.07911.23829-.15235.45606-.21778.6543Z" transform="translate(-0.19727)"/><path d="M115.36816,220.82271h5.14746a6.9152,6.9152,0,0,1,2.78223.51464,5.15851,5.15851,0,0,1,1.9502,1.45508,6.29916,6.29916,0,0,1,1.1582,2.25782,10.26736,10.26736,0,0,1,.38574,2.90039,9.61919,9.61919,0,0,1-.40527,2.88086,6.08884,6.08884,0,0,1-1.208,2.21679,5.35824,5.35824,0,0,1-2,1.42578,7.1667,7.1667,0,0,1-2.80078.50489h-5.00977Zm4.9502,12.59277a5.2769,5.2769,0,0,0,2.12793-.38672,3.69627,3.69627,0,0,0,1.44531-1.09863,4.55725,4.55725,0,0,0,.82227-1.72266,9.179,9.179,0,0,0,.25683-2.25683,10.14943,10.14943,0,0,0-.2373-2.27735,4.77179,4.77179,0,0,0-.77246-1.76172,3.586,3.586,0,0,0-1.39551-1.13867,4.92623,4.92623,0,0,0-2.1084-.40625h-3.30664v11.04883Z" transform="translate(-0.19727)"/><path d="M135.00879,235.2563a6.6786,6.6786,0,0,1-2.73242-.544,5.9669,5.9669,0,0,1-2.08887-1.52539,6.9894,6.9894,0,0,1-1.33594-2.33593,8.88,8.88,0,0,1-.47558-2.96,8.99488,8.99488,0,0,1,.45605-2.91016,6.85656,6.85656,0,0,1,1.31641-2.33691,6.18464,6.18464,0,0,1,2.1084-1.56348,6.69836,6.69836,0,0,1,2.831-.57422,6.94858,6.94858,0,0,1,2.23731.33594,5.19532,5.19532,0,0,1,1.70312.94043,4.9158,4.9158,0,0,1,1.1582,1.43554,5.41659,5.41659,0,0,1,.584,1.80176h-1.74219a3.538,3.538,0,0,0-1.27734-2.14844,4.18369,4.18369,0,0,0-2.70215-.82128,4.6101,4.6101,0,0,0-2.06934.44531,4.44684,4.44684,0,0,0-1.52441,1.22754,5.38006,5.38006,0,0,0-.94043,1.85156,8.0938,8.0938,0,0,0-.31738,2.31641,7.69559,7.69559,0,0,0,.34668,2.376,5.45951,5.45951,0,0,0,.98046,1.83106,4.32189,4.32189,0,0,0,1.53418,1.17871,4.75192,4.75192,0,0,0,2.00977.415,4.4476,4.4476,0,0,0,1.75195-.31641,3.67175,3.67175,0,0,0,1.24805-.85156,3.80449,3.80449,0,0,0,.78125-1.24707,5.16463,5.16463,0,0,0,.33691-1.48535h1.76172a5.65842,5.65842,0,0,1-.48437,2.14843,5.29405,5.29405,0,0,1-5.45508,3.31641Z" transform="translate(-0.19727)"/><line class="cls-8" x1="180.40686" y1="228.74721" x2="149.56018" y2="228.74721"/><polygon class="cls-9" points="179.677 226.254 183.995 228.747 179.677 231.24 179.677 226.254"/><path d="M6.07812,102.44966H7.999l3.48438,10.5332q.0791.25782.16894.57422c.05957.21094.12207.416.1875.61328.06641.23828.13184.47559.19825.71289h.04c.06543-.2373.13184-.47461.19727-.71289q.09961-.29589.17871-.623a3.87985,3.87985,0,0,1,.17774-.56446l3.44531-10.5332h1.86133l-4.96973,14.15625h-1.96Z" transform="translate(-0.19727)"/><path d="M19.46289,102.44966h5.999a4.48235,4.48235,0,0,1,3.40528,1.22754,3.22928,3.22928,0,0,1,.67285,1.05957,3.68064,3.68064,0,0,1,.23828,1.35644,2.88167,2.88167,0,0,1-.60449,1.91016,3.46882,3.46882,0,0,1-1.67285,1.05957v.05957a4.42267,4.42267,0,0,1,1.11914.42481,3.485,3.485,0,0,1,.91015.71289,3.11991,3.11991,0,0,1,.6045,1,3.61982,3.61982,0,0,1,.21777,1.28711A4.13126,4.13126,0,0,1,30.085,114.062a3.62227,3.62227,0,0,1-.76269,1.19825,4.06211,4.06211,0,0,1-1.49415.98925,5.528,5.528,0,0,1-2.0498.35645H19.46289Zm5.78125,6.05859a3.0791,3.0791,0,0,0,2.0293-.60351,2.10849,2.10849,0,0,0,.72265-1.71289,2.03865,2.03865,0,0,0-.66308-1.61328,2.70786,2.70786,0,0,0-1.85156-.585H21.24414v4.51465Zm.45508,6.49414a3.10968,3.10968,0,0,0,2.21777-.71289,2.60615,2.60615,0,0,0-.208-3.623,3.369,3.369,0,0,0-2.1289-.65332H21.24414v4.98925Z" transform="translate(-0.19727)"/><path d="M36.292,102.44966h1.999l5.22753,14.15625H41.57812l-1.50488-4.31641H34.43066l-1.52441,4.31641H31.084Zm-1.34668,8.39453h4.63281l-1.623-4.751q-.09962-.29736-.208-.64355-.10986-.34717-.208-.64356-.0996-.35742-.21777-.71289h-.04q-.11865.33692-.21777.69239c-.06543.19824-.13868.416-.21778.65332q-.11865.35742-.21777.65429Z" transform="translate(-0.19727)"/><path d="M42.37012,102.44966h11.207v1.56445H48.86426v12.5918H47.083v-12.5918H42.37012Z" transform="translate(-0.19727)"/><path d="M60.31836,117.02192a15.0955,15.0955,0,0,1-.91113-2.08886,15.588,15.588,0,0,1-.61426-2.32617,14.48081,14.48081,0,0,1-.22754-2.63379,12.24525,12.24525,0,0,1,.23828-2.45508,13.10065,13.10065,0,0,1,.64258-2.19727,15.51723,15.51723,0,0,1,.9209-1.94043,18.04579,18.04579,0,0,1,1.08886-1.70312H62.7627a18.467,18.467,0,0,0-1.65332,3.76172,14.84987,14.84987,0,0,0-.66309,4.53418,20.19641,20.19641,0,0,0,.14844,2.49511,16.77132,16.77132,0,0,0,.44629,2.28711,16.3147,16.3147,0,0,0,.73242,2.12793q.43506,1.02979.98926,2.05957H61.45605Q60.8423,118.01119,60.31836,117.02192Z" transform="translate(-0.19727)"/><path d="M67.65332,102.44966h9.60254v1.56445H69.43457v4.415h6.51465V109.934H69.43457v6.67188H67.65332Z" transform="translate(-0.19727)"/><path d="M82.34375,116.88325a4.80365,4.80365,0,0,1-2.05957-.42578,4.67568,4.67568,0,0,1-1.55371-1.1582,5.19594,5.19594,0,0,1-.99024-1.71289,6.46348,6.46348,0,0,1,0-4.17676,5.186,5.186,0,0,1,.99024-1.71289,4.689,4.689,0,0,1,1.55371-1.1582,5.19413,5.19413,0,0,1,4.11914,0,4.689,4.689,0,0,1,1.55371,1.1582,5.0489,5.0489,0,0,1,.98047,1.71289,6.6592,6.6592,0,0,1,0,4.17676,5.05825,5.05825,0,0,1-.98047,1.71289,4.67568,4.67568,0,0,1-1.55371,1.1582A4.80365,4.80365,0,0,1,82.34375,116.88325Zm0-1.34668a3.07076,3.07076,0,0,0,1.42578-.3164,3.01864,3.01864,0,0,0,1.0293-.86133,3.76693,3.76693,0,0,0,.624-1.27734,6.13129,6.13129,0,0,0,0-3.167,3.88944,3.88944,0,0,0-.624-1.28711,2.97147,2.97147,0,0,0-1.0293-.87109,3.07085,3.07085,0,0,0-1.42578-.31738,3.13208,3.13208,0,0,0-1.43555.31738,2.943,2.943,0,0,0-1.03906.87109,3.88944,3.88944,0,0,0-.624,1.28711,6.13129,6.13129,0,0,0,0,3.167,3.76693,3.76693,0,0,0,.624,1.27734,2.98911,2.98911,0,0,0,1.03906.86133A3.13195,3.13195,0,0,0,82.34375,115.53657Z" transform="translate(-0.19727)"/><path d="M90.48145,108.07271h.03906a4.16765,4.16765,0,0,1,1.2373-1.28711,3.13123,3.13123,0,0,1,1.81153-.53418,1.77014,1.77014,0,0,1,.35644.02929,2.12479,2.12479,0,0,1,.29688.08887v1.54492h-.0586a1.73376,1.73376,0,0,0-.32715-.0791,2.92286,2.92286,0,0,0-.38574-.02051,2.97515,2.97515,0,0,0-1.1289.21778,3.02781,3.02781,0,0,0-.9502.61425,2.76816,2.76816,0,0,0-.65332.98047,3.41029,3.41029,0,0,0-.2373,1.2959v5.68262h-1.6045V106.36958h1.6045Z" transform="translate(-0.19727)"/><path d="M99.05371,102.44966H105.667a5.01094,5.01094,0,0,1,1.70215.27734,3.71683,3.71683,0,0,1,1.31738.792,3.6625,3.6625,0,0,1,.85059,1.22753,4.34388,4.34388,0,0,1-.27637,3.78125,3.36847,3.36847,0,0,1-1.87109,1.30664v.05958a3.30959,3.30959,0,0,1,.90039.48535,2.32679,2.32679,0,0,1,.60449.72265,3.6386,3.6386,0,0,1,.35547,1.01953,11.127,11.127,0,0,1,.17871,1.376q.05859.85107.12891,1.40625a6.95394,6.95394,0,0,0,.1582.89063,2.575,2.575,0,0,0,.17773.50488.56006.56006,0,0,0,.18848.22754v.0791h-1.9209a.66321.66321,0,0,1-.1875-.2666,2.27455,2.27455,0,0,1-.11914-.51563q-.0498-.3457-.09863-.91992-.0498-.57422-.10938-1.46582a3.19627,3.19627,0,0,0-.77148-2.1875,3.011,3.011,0,0,0-2.09961-.624h-3.93945v5.97949H99.05371Zm1.78223,6.73144h4.19726a3.16115,3.16115,0,0,0,2.22754-.69238,2.473,2.473,0,0,0,.74219-1.90137,2.62805,2.62805,0,0,0-.65332-1.95019,3.10384,3.10384,0,0,0-2.21777-.64356h-4.2959Z" transform="translate(-0.19727)"/><path d="M110.81445,102.44966h11.207v1.56445h-4.71289v12.5918h-1.78125v-12.5918h-4.71289Z" transform="translate(-0.19727)"/><path d="M128.99023,116.88325a6.6755,6.6755,0,0,1-2.73242-.54394,5.96677,5.96677,0,0,1-2.08886-1.52539A7.00788,7.00788,0,0,1,122.832,112.478a8.90475,8.90475,0,0,1-.47461-2.96,9.02144,9.02144,0,0,1,.45508-2.91016,6.87266,6.87266,0,0,1,1.31641-2.33691,6.18842,6.18842,0,0,1,2.10937-1.56348,6.69213,6.69213,0,0,1,2.83106-.57422,6.953,6.953,0,0,1,2.2373.33594,5.19053,5.19053,0,0,1,1.70215.94043,4.90007,4.90007,0,0,1,1.1582,1.43555,5.37239,5.37239,0,0,1,.584,1.80175h-1.74219a3.53206,3.53206,0,0,0-1.27637-2.14843,4.18645,4.18645,0,0,0-2.70312-.82129,4.606,4.606,0,0,0-2.06836.44531,4.44135,4.44135,0,0,0-1.52539,1.22754,5.397,5.397,0,0,0-.94043,1.85156,8.12876,8.12876,0,0,0-.31641,2.31641,7.66676,7.66676,0,0,0,.34668,2.376,5.45789,5.45789,0,0,0,.97949,1.831,4.32512,4.32512,0,0,0,1.53516,1.17871,4.74722,4.74722,0,0,0,2.00879.415,4.44928,4.44928,0,0,0,1.75293-.31641,3.66738,3.66738,0,0,0,1.24707-.85156,3.80671,3.80671,0,0,0,.78222-1.24707,5.1972,5.1972,0,0,0,.33692-1.48535h1.76172a5.66034,5.66034,0,0,1-.48535,2.14844,5.29384,5.29384,0,0,1-5.45411,3.3164Z" transform="translate(-0.19727)"/><path d="M137.02832,116.88325a16.46693,16.46693,0,0,0,1.17773-4.415,20.009,20.009,0,0,0,.14844-2.49511,14.85018,14.85018,0,0,0-.66308-4.53418,18.46811,18.46811,0,0,0-1.65332-3.76172h1.30664q.55517.79248,1.0791,1.70312a14.64724,14.64724,0,0,1,.93066,1.94043,13.10247,13.10247,0,0,1,.64356,2.19727,12.31815,12.31815,0,0,1,.2373,2.45508,14.39394,14.39394,0,0,1-.22754,2.63379,15.58749,15.58749,0,0,1-.61328,2.32617,15.33466,15.33466,0,0,1-.91113,2.08886q-.52441.99024-1.13867,1.9209h-1.30664Q136.59326,117.913,137.02832,116.88325Z" transform="translate(-0.19727)"/><line class="cls-8" x1="180.40686" y1="110.37434" x2="149.56018" y2="110.37434"/><polygon class="cls-9" points="179.677 107.881 183.995 110.374 179.677 112.868 179.677 107.881"/><path d="M.19727,72.85689H2.11816l3.48438,10.5332q.07909.25635.16894.57324c.05957.21192.12207.416.1875.61426.06641.2373.13184.47558.19825.71289h.04c.06543-.23731.13183-.47559.19726-.71289q.09962-.29736.17871-.624a3.86379,3.86379,0,0,1,.17774-.56348l3.44531-10.5332h1.86133L7.08789,87.01314h-1.96Z" transform="translate(-0.19727)"/><path d="M13.582,72.85689h5.14746a6.90179,6.90179,0,0,1,2.78223.51464,5.14589,5.14589,0,0,1,1.95019,1.45508,6.31018,6.31018,0,0,1,1.15821,2.25684,10.3029,10.3029,0,0,1,.38574,2.90039,9.61387,9.61387,0,0,1-.40625,2.88086,6.10607,6.10607,0,0,1-1.207,2.21777,5.37707,5.37707,0,0,1-2,1.42578,7.1862,7.1862,0,0,1-2.80176.50489H13.582Zm4.94922,12.59179a5.29909,5.29909,0,0,0,2.12891-.38574,3.70755,3.70755,0,0,0,1.44531-1.09961,4.54436,4.54436,0,0,0,.82129-1.72168,9.13868,9.13868,0,0,0,.25781-2.25781,10.08779,10.08779,0,0,0-.23828-2.27637,4.77519,4.77519,0,0,0-.77149-1.76269,3.58674,3.58674,0,0,0-1.39648-1.1377,4.9232,4.9232,0,0,0-2.1084-.40625H15.36328V85.44868Z" transform="translate(-0.19727)"/><path d="M27.124,72.85689h5.14746a6.89853,6.89853,0,0,1,2.78223.51464,5.13845,5.13845,0,0,1,1.9502,1.45508,6.29471,6.29471,0,0,1,1.1582,2.25684,10.26741,10.26741,0,0,1,.38574,2.90039,9.6146,9.6146,0,0,1-.40527,2.88086,6.09324,6.09324,0,0,1-1.208,2.21777,5.36918,5.36918,0,0,1-2,1.42578,7.18456,7.18456,0,0,1-2.80078.50489H27.124Zm4.9502,12.59179a5.29416,5.29416,0,0,0,2.12793-.38574,3.70755,3.70755,0,0,0,1.44531-1.09961,4.54567,4.54567,0,0,0,.82227-1.72168,9.18763,9.18763,0,0,0,.25683-2.25781,10.14668,10.14668,0,0,0-.2373-2.27637,4.77661,4.77661,0,0,0-.77246-1.76269,3.58375,3.58375,0,0,0-1.39551-1.1377,4.92623,4.92623,0,0,0-2.1084-.40625H28.90625V85.44868Z" transform="translate(-0.19727)"/><path d="M44.05273,72.85689h1.999L51.2793,87.01314H49.33887L47.834,82.69673H42.19141L40.667,87.01314H38.84473Zm-1.34668,8.39453h4.63282l-1.623-4.752c-.06641-.19824-.13574-.41211-.208-.64355q-.10986-.3457-.208-.64356-.0996-.356-.21777-.71289h-.04q-.11865.33692-.21777.69336c-.06543.19825-.13867.416-.21777.65332s-.15137.45508-.21778.65332Z" transform="translate(-0.19727)"/><path d="M57.7832,87.42915a15.33425,15.33425,0,0,1-.91113-2.08887,15.60157,15.60157,0,0,1-.61328-2.32714,14.384,14.384,0,0,1-.22754-2.63282,12.30385,12.30385,0,0,1,.2373-2.45507,13.08686,13.08686,0,0,1,.64356-2.19825,15.44657,15.44657,0,0,1,.9209-1.94043,17.95743,17.95743,0,0,1,1.08887-1.70215h1.30664a18.4675,18.4675,0,0,0-1.65332,3.76172,14.84091,14.84091,0,0,0-.66309,4.53418,19.99306,19.99306,0,0,0,.14844,2.49414,16.487,16.487,0,0,0,1.17773,4.416q.43506,1.02832.99024,2.05859H58.92188Q58.30811,88.41891,57.7832,87.42915Z" transform="translate(-0.19727)"/><path d="M65.11816,72.85689H74.7207v1.56347H66.90039v4.415h6.51367v1.50488H66.90039v6.67286H65.11816Z" transform="translate(-0.19727)"/><path d="M79.80859,87.29048A4.81062,4.81062,0,0,1,77.75,86.8647a4.683,4.683,0,0,1-1.55469-1.1582,5.17692,5.17692,0,0,1-.98926-1.7129,6.46658,6.46658,0,0,1,0-4.17773,5.17678,5.17678,0,0,1,.98926-1.71289A4.683,4.683,0,0,1,77.75,76.94478a5.19176,5.19176,0,0,1,4.11816,0,4.69284,4.69284,0,0,1,1.55469,1.1582,5.05612,5.05612,0,0,1,.97949,1.71289,6.64382,6.64382,0,0,1,0,4.17773,5.05626,5.05626,0,0,1-.97949,1.7129,4.69284,4.69284,0,0,1-1.55469,1.1582A4.81817,4.81817,0,0,1,79.80859,87.29048Zm0-1.34668a3.06786,3.06786,0,0,0,1.42579-.31641,3.033,3.033,0,0,0,1.03027-.86132,3.8015,3.8015,0,0,0,.623-1.27735,6.13527,6.13527,0,0,0,0-3.168,3.91633,3.91633,0,0,0-.623-1.28711,2.9852,2.9852,0,0,0-1.03027-.87109,3.06786,3.06786,0,0,0-1.42579-.31641,3.12482,3.12482,0,0,0-1.43457.31641,2.95647,2.95647,0,0,0-1.04.87109,3.87806,3.87806,0,0,0-.623,1.28711,6.135,6.135,0,0,0,0,3.168,3.76509,3.76509,0,0,0,.623,1.27735,3.00314,3.00314,0,0,0,1.04.86132A3.12482,3.12482,0,0,0,79.80859,85.9438Z" transform="translate(-0.19727)"/><path d="M87.94629,78.479h.04a4.16429,4.16429,0,0,1,1.2373-1.28614,3.132,3.132,0,0,1,1.81153-.53515,1.70483,1.70483,0,0,1,.35644.03027,2.034,2.034,0,0,1,.29688.08887v1.54394h-.05957a1.88971,1.88971,0,0,0-.32618-.0791,3.16041,3.16041,0,0,0-.38671-.01953,2.95535,2.95535,0,0,0-1.12793.21777,3.02974,3.02974,0,0,0-.95118.61328,2.81224,2.81224,0,0,0-.65332.98047,3.41534,3.41534,0,0,0-.2373,1.29688v5.68262H86.34277V76.77681h1.60352Z" transform="translate(-0.19727)"/><path d="M100.59766,72.85689h2l5.22656,14.15625h-1.94043l-1.50391-4.31641H98.73633l-1.52442,4.31641H95.39062ZM99.251,81.25142h4.63379l-1.624-4.752c-.0664-.19824-.13574-.41211-.208-.64355q-.10839-.3457-.208-.64356-.09814-.356-.21778-.71289h-.03906c-.0791.22461-.15234.45606-.21777.69336q-.09962.29738-.21778.65332c-.0791.23731-.15234.45508-.21777.65332Z" transform="translate(-0.19727)"/><path d="M109.34961,72.85689h5.14746a6.90182,6.90182,0,0,1,2.78223.51464,5.146,5.146,0,0,1,1.95019,1.45508,6.31018,6.31018,0,0,1,1.15821,2.25684,10.3029,10.3029,0,0,1,.38574,2.90039,9.61387,9.61387,0,0,1-.40625,2.88086,6.10607,6.10607,0,0,1-1.207,2.21777,5.37715,5.37715,0,0,1-2,1.42578,7.18623,7.18623,0,0,1-2.80176.50489h-5.00879Zm4.94922,12.59179a5.299,5.299,0,0,0,2.1289-.38574,3.70751,3.70751,0,0,0,1.44532-1.09961,4.54451,4.54451,0,0,0,.82129-1.72168,9.13868,9.13868,0,0,0,.25781-2.25781,10.08779,10.08779,0,0,0-.23828-2.27637,4.77535,4.77535,0,0,0-.77149-1.76269,3.58674,3.58674,0,0,0-1.39648-1.1377,4.9232,4.9232,0,0,0-2.1084-.40625h-3.30664V85.44868Z" transform="translate(-0.19727)"/><path d="M128.99023,87.29048a6.65982,6.65982,0,0,1-2.73242-.54492,5.96428,5.96428,0,0,1-2.08886-1.52442,7.00793,7.00793,0,0,1-1.33692-2.33593,8.90889,8.90889,0,0,1-.47461-2.96,9.02747,9.02747,0,0,1,.45508-2.91114,6.86822,6.86822,0,0,1,1.31641-2.33594,6.17842,6.17842,0,0,1,2.10937-1.56445,6.69213,6.69213,0,0,1,2.83106-.57422,6.92551,6.92551,0,0,1,2.2373.33692,5.19035,5.19035,0,0,1,1.70215.94043,4.87492,4.87492,0,0,1,1.1582,1.43554,5.36537,5.36537,0,0,1,.584,1.80176h-1.74219a3.52938,3.52938,0,0,0-1.27637-2.14844,4.18088,4.18088,0,0,0-2.70312-.82129,4.60584,4.60584,0,0,0-2.06836.44532,4.44112,4.44112,0,0,0-1.52539,1.22754,5.401,5.401,0,0,0-.94043,1.85058,8.13561,8.13561,0,0,0-.31641,2.31739,7.656,7.656,0,0,0,.34668,2.375,5.46289,5.46289,0,0,0,.97949,1.832A4.33372,4.33372,0,0,0,127.04,85.31a4.73289,4.73289,0,0,0,2.00879.416,4.44928,4.44928,0,0,0,1.75293-.31641,3.6814,3.6814,0,0,0,1.24707-.85156,3.8112,3.8112,0,0,0,.78222-1.248,5.18331,5.18331,0,0,0,.33692-1.48437h1.76172a5.66432,5.66432,0,0,1-.48535,2.14843,5.297,5.297,0,0,1-5.45411,3.31641Z" transform="translate(-0.19727)"/><path d="M137.02832,87.29048a16.487,16.487,0,0,0,1.17773-4.416,19.99306,19.99306,0,0,0,.14844-2.49414,14.84122,14.84122,0,0,0-.66308-4.53418,18.4686,18.4686,0,0,0-1.65332-3.76172h1.30664q.55517.7925,1.0791,1.70215a14.70626,14.70626,0,0,1,.93066,1.94043,13.08686,13.08686,0,0,1,.64356,2.19825,12.30385,12.30385,0,0,1,.2373,2.45507,14.38314,14.38314,0,0,1-.22754,2.63282,15.60035,15.60035,0,0,1-.61328,2.32714,15.33425,15.33425,0,0,1-.91113,2.08887q-.52441.98877-1.13867,1.91992h-1.30664Q136.59326,88.31929,137.02832,87.29048Z" transform="translate(-0.19727)"/><line class="cls-8" x1="180.40686" y1="80.78084" x2="149.56018" y2="80.78084"/><polygon class="cls-9" points="179.677 78.288 183.995 80.781 179.677 83.274 179.677 78.288"/><path d="M102.47852,43.26411h1.92187l3.48438,10.53321q.07909.25633.168.57324c.05957.21191.12207.416.1875.61426.06641.2373.13282.47558.19922.71289h.03907c.0664-.23731.13183-.47559.19726-.71289q.09961-.29738.17871-.624a3.74287,3.74287,0,0,1,.17871-.56347l3.44532-10.53321h1.86035l-4.96973,14.15625h-1.96Z" transform="translate(-0.19727)"/><path d="M115.86328,43.26411h5.14746a6.89853,6.89853,0,0,1,2.78223.51465,5.13831,5.13831,0,0,1,1.95019,1.45508,6.29452,6.29452,0,0,1,1.15821,2.25683,10.303,10.303,0,0,1,.38574,2.9004,9.58292,9.58292,0,0,1-.40625,2.88085,6.07717,6.07717,0,0,1-1.207,2.21778,5.37707,5.37707,0,0,1-2,1.42578,7.18457,7.18457,0,0,1-2.80078.50488h-5.00977Zm4.94922,12.5918a5.29926,5.29926,0,0,0,2.12891-.38574,3.70774,3.70774,0,0,0,1.44531-1.09961,4.54551,4.54551,0,0,0,.82226-1.72168,9.18712,9.18712,0,0,0,.25684-2.25781,10.14662,10.14662,0,0,0-.2373-2.27637,4.77651,4.77651,0,0,0-.77247-1.7627,3.58363,3.58363,0,0,0-1.3955-1.13769,4.92784,4.92784,0,0,0-2.10938-.40625h-3.30664V55.85591Z" transform="translate(-0.19727)"/><path d="M129.40625,43.26411h5.14648a6.90343,6.90343,0,0,1,2.78321.51465,5.135,5.135,0,0,1,1.94922,1.45508,6.27912,6.27912,0,0,1,1.1582,2.25683,10.26669,10.26669,0,0,1,.38672,2.9004,9.61376,9.61376,0,0,1-.40625,2.88085,6.106,6.106,0,0,1-1.207,2.21778,5.37715,5.37715,0,0,1-2,1.42578,7.1862,7.1862,0,0,1-2.80176.50488h-5.00879Zm4.94922,12.5918a5.29929,5.29929,0,0,0,2.12891-.38574,3.722,3.722,0,0,0,1.44531-1.09961,4.55893,4.55893,0,0,0,.82129-1.72168,9.18714,9.18714,0,0,0,.25683-2.25781,10.08994,10.08994,0,0,0-.2373-2.27637,4.76067,4.76067,0,0,0-.77246-1.7627,3.5767,3.5767,0,0,0-1.39551-1.13769,4.9232,4.9232,0,0,0-2.1084-.40625H131.1875V55.85591Z" transform="translate(-0.19727)"/><line class="cls-8" x1="180.40686" y1="51.18831" x2="149.56018" y2="51.18831"/><polygon class="cls-9" points="179.677 48.695 183.995 51.188 179.677 53.681 179.677 48.695"/><path d="M97.84668,205.604a8.23731,8.23731,0,0,1-2.1582-.26758,4.65724,4.65724,0,0,1-1.71289-.8418,3.94079,3.94079,0,0,1-1.1377-1.48437,5.26549,5.26549,0,0,1-.416-2.19825v-9.582H94.2041v9.4043a3.24924,3.24924,0,0,0,.96973,2.63281,4.13546,4.13546,0,0,0,2.73242.8125,3.92078,3.92078,0,0,0,2.63281-.8125,3.28475,3.28475,0,0,0,.95117-2.63281v-9.4043h1.78125v9.582a5.15563,5.15563,0,0,1-.42578,2.19825,3.99729,3.99729,0,0,1-1.1582,1.48437,4.74833,4.74833,0,0,1-1.72266.8418A8.07816,8.07816,0,0,1,97.84668,205.604Z" transform="translate(-0.19727)"/><path d="M109.46875,191.22993h1.999l5.22754,14.15625h-1.94043l-1.50488-4.3164h-5.64258l-1.52441,4.3164h-1.82227Zm-1.34668,8.39453h4.63281l-1.623-4.75195c-.06641-.19824-.13575-.41211-.208-.64355q-.10986-.3457-.208-.64356-.09961-.356-.21777-.71289h-.04q-.11865.33691-.21778.69336c-.06543.19824-.13867.416-.21777.65332s-.15137.45508-.21777.65332Z" transform="translate(-0.19727)"/><path d="M118.21973,191.22993H124.833a5.01109,5.01109,0,0,1,1.70215.27637,3.73132,3.73132,0,0,1,1.31738.792,3.67237,3.67237,0,0,1,.85058,1.22754,4.346,4.346,0,0,1-.27636,3.78223,3.378,3.378,0,0,1-1.8711,1.30664v.05957a3.33506,3.33506,0,0,1,.90039.48437,2.33809,2.33809,0,0,1,.6045.72266,3.6458,3.6458,0,0,1,.35547,1.02051,11.07846,11.07846,0,0,1,.17871,1.376q.05859.85108.1289,1.40528a6.89034,6.89034,0,0,0,.15821.89062,2.55142,2.55142,0,0,0,.17773.50489.57089.57089,0,0,0,.18848.22851v.0791h-1.9209a.67357.67357,0,0,1-.1875-.26758,2.26234,2.26234,0,0,1-.11914-.51464c-.03321-.23047-.06641-.53809-.09863-.9209q-.04981-.57422-.10938-1.46485a3.19241,3.19241,0,0,0-.77148-2.1875,3.011,3.011,0,0,0-2.09961-.624H120.002v5.97949h-1.78222Zm1.78222,6.73145h4.19727a3.15676,3.15676,0,0,0,2.22754-.69336,2.47087,2.47087,0,0,0,.74219-1.90039,2.62654,2.62654,0,0,0-.65333-1.9502,3.10381,3.10381,0,0,0-2.21777-.64355H120.002Z" transform="translate(-0.19727)"/><path d="M129.98047,191.22993h11.20605v1.56348h-4.71191v12.59277h-1.78223V192.79341h-4.71191Z" transform="translate(-0.19727)"/><line class="cls-8" x1="153.14832" y1="199.15376" x2="180.40686" y2="199.15376"/><polygon class="cls-9" points="153.878 201.647 149.56 199.154 153.878 196.661 153.878 201.647"/><polygon class="cls-9" points="179.677 201.647 183.995 199.154 179.677 196.661 179.677 201.647"/><path d="M113.42773,161.63618H115.209v14.15625h-1.78125Z" transform="translate(-0.19727)"/><path d="M117.71387,173.46626a5.99537,5.99537,0,0,1,1.1875-1.67285,9.057,9.057,0,0,1,1.60449-1.25781q.88036-.54346,1.77148-1.0586.67383-.37645,1.19825-.72265a5.48757,5.48757,0,0,0,.90039-.73243,2.807,2.807,0,0,0,.57422-.84179,2.97481,2.97481,0,0,0-.59375-3.08887,2.95992,2.95992,0,0,0-2.15821-.77246,3.15419,3.15419,0,0,0-1.24707.22852,2.69553,2.69553,0,0,0-.91113.623,2.72527,2.72527,0,0,0-.584,1.04981,5.89833,5.89833,0,0,0-.1875,1.66308h-1.74316a6.257,6.257,0,0,1,.32715-2.17773,3.9889,3.9889,0,0,1,2.52441-2.45508,5.93023,5.93023,0,0,1,1.96-.31738,5.44176,5.44176,0,0,1,1.8711.30664,4.19008,4.19008,0,0,1,1.43554.86133,3.76333,3.76333,0,0,1,.91114,1.31738,4.31906,4.31906,0,0,1,.3164,1.67285,3.71013,3.71013,0,0,1-1.168,2.87109,6.735,6.735,0,0,1-1.25781.94043q-.72216.42481-1.53418.88086-.55517.29737-1.14843.66309a10.726,10.726,0,0,0-1.11817.792,6.03624,6.03624,0,0,0-.9209.9209,2.73491,2.73491,0,0,0-.53515,1.04883h7.40527v1.584h-9.4043A5.88532,5.88532,0,0,1,117.71387,173.46626Z" transform="translate(-0.19727)"/><path d="M135.00879,176.06978a6.67531,6.67531,0,0,1-2.73242-.54395,5.9669,5.9669,0,0,1-2.08887-1.52539,7.00786,7.00786,0,0,1-1.33691-2.33594,8.90466,8.90466,0,0,1-.47461-2.96,9.02138,9.02138,0,0,1,.45507-2.91015,6.87288,6.87288,0,0,1,1.31641-2.33692,6.18844,6.18844,0,0,1,2.10938-1.56347,6.6919,6.6919,0,0,1,2.831-.57422,6.95307,6.95307,0,0,1,2.23731.33593,5.19048,5.19048,0,0,1,1.70214.94043,4.90027,4.90027,0,0,1,1.15821,1.43555,5.37243,5.37243,0,0,1,.584,1.80176h-1.74219A3.532,3.532,0,0,0,137.751,163.685a4.18655,4.18655,0,0,0-2.70313-.82129,4.606,4.606,0,0,0-2.06836.44531,4.44145,4.44145,0,0,0-1.52539,1.22754,5.39732,5.39732,0,0,0-.94043,1.85157,8.12869,8.12869,0,0,0-.3164,2.3164,7.66637,7.66637,0,0,0,.34668,2.376,5.45754,5.45754,0,0,0,.97949,1.83105,4.32508,4.32508,0,0,0,1.53515,1.17871,4.74725,4.74725,0,0,0,2.00879.415,4.44943,4.44943,0,0,0,1.75293-.3164,3.66744,3.66744,0,0,0,1.24707-.85157,3.80673,3.80673,0,0,0,.78223-1.24707,5.19711,5.19711,0,0,0,.33691-1.48535h1.76172a5.66015,5.66015,0,0,1-.48535,2.14844,5.29383,5.29383,0,0,1-5.4541,3.31641Z" transform="translate(-0.19727)"/><line class="cls-8" x1="153.14832" y1="169.56129" x2="180.40686" y2="169.56129"/><polygon class="cls-9" points="153.878 172.054 149.56 169.561 153.878 167.068 153.878 172.054"/><polygon class="cls-9" points="179.677 172.054 183.995 169.561 179.677 167.068 179.677 172.054"/><path d="M119.24805,146.477a7.871,7.871,0,0,1-2.59278-.38672,5.21151,5.21151,0,0,1-1.85156-1.06933,4.61676,4.61676,0,0,1-1.13867-1.61328,5.89673,5.89673,0,0,1-.45508-2h1.74219q.35595,3.64306,4.376,3.64355a5.22635,5.22635,0,0,0,1.35547-.168,3.19764,3.19764,0,0,0,1.06934-.49511,2.23555,2.23555,0,0,0,.69336-.832,2.59907,2.59907,0,0,0,.24707-1.1582,2.19353,2.19353,0,0,0-.30664-1.208,2.461,2.461,0,0,0-.86133-.792,5.62065,5.62065,0,0,0-1.33594-.52441q-.78369-.208-1.73242-.42578-.93164-.19776-1.77246-.46485a5.5627,5.5627,0,0,1-1.47461-.70312,3.26516,3.26516,0,0,1-1.00976-1.09864,3.3547,3.3547,0,0,1-.377-1.67285,3.444,3.444,0,0,1,.34668-1.56445,3.353,3.353,0,0,1,.98047-1.17773,4.56839,4.56839,0,0,1,1.52441-.74317,7.90664,7.90664,0,0,1,4.24708.06934,4.50166,4.50166,0,0,1,1.59374.90136,4.01007,4.01007,0,0,1,.98926,1.39551A6.908,6.908,0,0,1,124,136.1811h-1.68262a3.32238,3.32238,0,0,0-1.13867-2.27734,3.89578,3.89578,0,0,0-2.50391-.75195,4.106,4.106,0,0,0-2.31738.584,1.9123,1.9123,0,0,0-.87109,1.69238,1.73231,1.73231,0,0,0,.27734,1,2.3164,2.3164,0,0,0,.77246.69336,4.69524,4.69524,0,0,0,1.17774.46485q.68408.17871,1.47558.33691,1.02833.21827,1.9795.48535a6.103,6.103,0,0,1,1.68261.74219,3.56557,3.56557,0,0,1,1.16895,1.23731,4.39916,4.39916,0,0,1,.04883,3.71289,3.65414,3.65414,0,0,1-1.07911,1.29687,5.024,5.024,0,0,1-1.64257.80176A7.49338,7.49338,0,0,1,119.24805,146.477Z" transform="translate(-0.19727)"/><path d="M126.49512,132.04341h5.89941a5.032,5.032,0,0,1,1.9707.35547,3.78829,3.78829,0,0,1,2.09864,2.208,4.35816,4.35816,0,0,1,.24707,1.49511,4.0939,4.0939,0,0,1-1.11817,3.0586,4.763,4.763,0,0,1-3.45507,1.09863h-3.86133v5.94043h-1.78125Zm1.78125,6.77051H131.999a3.08949,3.08949,0,0,0,2.22754-.70215,2.57023,2.57023,0,0,0,.72266-1.93067,2.45019,2.45019,0,0,0-.74219-1.94043,3.0926,3.0926,0,0,0-2.10937-.65332h-3.82129Z" transform="translate(-0.19727)"/><path d="M138.47363,132.04341h1.78125v14.15625h-1.78125Z" transform="translate(-0.19727)"/><line class="cls-8" x1="153.14832" y1="139.96754" x2="180.40686" y2="139.96754"/><polygon class="cls-9" points="153.878 142.461 149.56 139.968 153.878 137.474 153.878 142.461"/><polygon class="cls-9" points="179.677 142.461 183.995 139.968 179.677 137.474 179.677 142.461"/><path d="M760.916,221.22407h6.49414a5.76556,5.76556,0,0,1,1.87109.28711,4.24805,4.24805,0,0,1,1.43555.80176,3.54886,3.54886,0,0,1,.9209,1.23731,3.87182,3.87182,0,0,1,.32617,1.61328,3.722,3.722,0,0,1-.61328,2.14843,3.36147,3.36147,0,0,1-1.9795,1.27735v.05859a2.89085,2.89085,0,0,1,1.49414.9209,3.65229,3.65229,0,0,1,.66309,1.93066q.07909.75294.10938,1.39551.0293.64453.0791,1.13867a4.16152,4.16152,0,0,0,.14843.81153.59283.59283,0,0,0,.27735.39648v.13867h-2.752c-.09277-.04-.165-.16211-.21777-.36621a5.548,5.548,0,0,1-.1289-.76269c-.03321-.30371-.0625-.63965-.08887-1.00977q-.03955-.55371-.0791-1.1289a2.66616,2.66616,0,0,0-.7627-1.791,2.84152,2.84152,0,0,0-2.00976-.624h-2.31641v5.68261H760.916Zm2.87109,6.25586h3.04883a2.48258,2.48258,0,0,0,1.76269-.54394,1.83924,1.83924,0,0,0,.57422-1.39649,1.96776,1.96776,0,0,0-.55469-1.43554,2.29425,2.29425,0,0,0-1.70312-.56348h-3.12793Z" transform="translate(-0.19727)"/><path d="M773.80566,221.22407h10.13672v2.43457h-7.26562v3.40625H782.834V229.52h-6.15722v5.86035h-2.8711Z" transform="translate(-0.19727)"/><path d="M784.417,237.02388h8.47461v1.68262H784.417Z" transform="translate(-0.19727)"/><path d="M797.84082,221.22407h2.9707l4.98926,14.15625h-2.99023l-.9502-3.00976H796.752l-.93066,3.00976h-2.91016Zm-.415,8.94922H801.167l-1.2666-4.0791a6.14553,6.14553,0,0,1-.18848-.65332c-.05859-.251-.12207-.48828-.1875-.71289q-.0996-.3955-.19824-.81152h-.04q-.11865.416-.21777.81152-.09814.33691-.1875.71289a6.14553,6.14553,0,0,1-.18848.65332Z" transform="translate(-0.19727)"/><path d="M806.98828,221.22407h2.91113l4.71192,7.89942q.15821.29736.33691.64355c.11817.23145.23047.44531.33594.64356.11914.2373.22461.46875.31738.69238h.03906c-.01269-.27637-.02636-.56055-.03906-.85059q-.0205-.37645-.03027-.80175-.01026-.42627-.00977-.80274v-7.42383h2.83106v14.15625h-2.77149L810.79,227.559a5.98525,5.98525,0,0,1-.34668-.623c-.11231-.23145-.2207-.44532-.32617-.64356q-.17871-.356-.33692-.69336h-.04c.01368.291.02637.58106.04.8711q.019.37645.0293.80175.01026.42627.01074.80176v7.30664h-2.832Z" transform="translate(-0.19727)"/><path d="M819.83789,221.22407h11.38477v2.415h-4.25684v11.74121h-2.87109V223.63911h-4.25684Z" transform="translate(-0.19727)"/><line class="cls-8" x1="720.53967" y1="229.4947" x2="747.79822" y2="229.4947"/><polygon class="cls-9" points="721.269 231.988 716.952 229.495 721.269 227.002 721.269 231.988"/><polygon class="cls-9" points="747.069 231.988 751.386 229.495 747.069 227.002 747.069 231.988"/></g></g></svg>