<svg xmlns="http://www.w3.org/2000/svg" viewBox="0 0 133.79 79.2"><defs><style>.cls-1{opacity:0.4;}.cls-2{fill:#242424;}.cls-3{fill:#bf8f3e;}.cls-4{fill:#c9bfb4;}.cls-5{fill:#d6d6d6;}.cls-6{fill:#fff;}.cls-7{fill:#ebf4fb;}.cls-8{fill:#333e49;}.cls-9{fill:#222630;}.cls-10{fill:#be8e3e;}.cls-11{fill:#ee3224;}.cls-12{fill:#a43b3a;}.cls-13{fill:#fdd407;}.cls-14{fill:#b3b3b3;}.cls-15{fill:#7f8080;}.cls-16{fill:#333;}.cls-17{fill:#eb2627;}.cls-18{fill:#fed401;}</style></defs><g id="Layer_2" data-name="Layer 2"><g id="Layer_1-2" data-name="Layer 1"><g id="RAK12004_Pinout"><g class="cls-1"><path class="cls-2" d="M0,16.1v47H65v-47ZM9.11,61.91a2.67,2.67,0,1,1,2.66-2.67A2.66,2.66,0,0,1,9.11,61.91ZM9.2,22.38a2.63,2.63,0,1,1,2.62-2.63A2.62,2.62,0,0,1,9.2,22.38ZM41,21a1.43,1.43,0,1,1,1.42-1.43A1.43,1.43,0,0,1,41,21Zm11.2,40a1.43,1.43,0,1,1,1.42-1.42A1.42,1.42,0,0,1,52.21,61ZM61.7,28.64a1.43,1.43,0,1,1,1.41-1.42A1.42,1.42,0,0,1,61.7,28.64Z"/><path class="cls-3" d="M41,16.62a3,3,0,1,0,3,3A3,3,0,0,0,41,16.62ZM41,21a1.43,1.43,0,1,1,1.42-1.43A1.43,1.43,0,0,1,41,21Z"/><path class="cls-3" d="M61.7,24.6a2.62,2.62,0,1,0,2.59,2.62A2.61,2.61,0,0,0,61.7,24.6Zm0,4a1.43,1.43,0,1,1,1.41-1.42A1.42,1.42,0,0,1,61.7,28.64Z"/><path class="cls-3" d="M52.21,56.71a2.88,2.88,0,1,0,2.86,2.88A2.87,2.87,0,0,0,52.21,56.71Zm0,4.3a1.43,1.43,0,1,1,1.42-1.42A1.42,1.42,0,0,1,52.21,61Z"/><path class="cls-3" d="M11.76,63.1a4.69,4.69,0,1,0-5.29,0ZM9.11,56.56a2.65,2.65,0,1,1-2.63,2.65A2.65,2.65,0,0,1,9.11,56.56Z"/><path class="cls-3" d="M12.65,16.1H5.9a4.81,4.81,0,1,0,6.75,0ZM9.2,22.38a2.63,2.63,0,1,1,2.62-2.63A2.62,2.62,0,0,1,9.2,22.38Z"/><circle class="cls-4" cx="11.67" cy="28.99" r="1.5"/><circle class="cls-4" cx="22.24" cy="24.61" r="1.5"/><circle class="cls-4" cx="32.8" cy="28.99" r="1.5"/><circle class="cls-4" cx="32.8" cy="50.25" r="1.5"/><circle class="cls-4" cx="22.25" cy="54.64" r="1.5"/><circle class="cls-4" cx="11.77" cy="50.25" r="1.5"/><circle class="cls-4" cx="7.49" cy="39.64" r="1.5"/><rect class="cls-5" x="21.32" y="24.32" width="1.85" height="0.59" rx="0.19"/><rect class="cls-6" x="21.43" y="24.32" width="1.62" height="0.59" rx="0.19"/><rect class="cls-5" x="31.92" y="28.7" width="1.85" height="0.59" rx="0.19" transform="translate(30.12 -14.73) rotate(45)"/><rect class="cls-6" x="32.04" y="28.7" width="1.62" height="0.59" rx="0.19" transform="translate(30.12 -14.73) rotate(45)"/><rect class="cls-5" x="10.74" y="28.7" width="1.85" height="0.59" rx="0.19" transform="translate(40.42 41.25) rotate(135)"/><rect class="cls-6" x="10.86" y="28.7" width="1.62" height="0.59" rx="0.19" transform="translate(40.42 41.25) rotate(135)"/><rect class="cls-5" x="6.56" y="39.34" width="1.85" height="0.59" rx="0.19" transform="translate(47.13 32.15) rotate(90)"/><rect class="cls-6" x="6.68" y="39.34" width="1.62" height="0.59" rx="0.19" transform="translate(47.13 32.15) rotate(90)"/><rect class="cls-5" x="10.85" y="49.95" width="1.85" height="0.59" rx="0.19" transform="translate(38.98 6.39) rotate(45)"/><rect class="cls-6" x="10.96" y="49.95" width="1.62" height="0.59" rx="0.19" transform="translate(38.98 6.39) rotate(45)"/><rect class="cls-5" x="21.33" y="54.34" width="1.85" height="0.59" rx="0.19"/><rect class="cls-6" x="21.44" y="54.34" width="1.62" height="0.59" rx="0.19"/><rect class="cls-5" x="32" y="49.95" width="1.85" height="0.59" rx="0.19" transform="translate(-25.89 38) rotate(-45)"/><rect class="cls-6" x="32.11" y="49.95" width="1.62" height="0.59" rx="0.19" transform="translate(-25.89 38) rotate(-45)"/></g><path class="cls-7" d="M46.44,21.85h-.16a.27.27,0,0,1-.26-.27V18.8a.26.26,0,0,1,.26-.26h.16a.26.26,0,0,1,.26.25h0v2.78a.27.27,0,0,1-.26.27h0"/><path class="cls-7" d="M63.73,21.85h-.15a.27.27,0,0,1-.27-.27h0V18.8a.26.26,0,0,1,.26-.26h.16a.25.25,0,0,1,.26.24v2.8a.26.26,0,0,1-.25.27h0"/><path class="cls-8" d="M64.16,19.41v-.26a.26.26,0,0,0-.26-.26h-.54a.3.3,0,0,0-.25.17H46.88a.27.27,0,0,0-.25-.17h-.54a.25.25,0,0,0-.25.25h0v.26a.27.27,0,0,0,.18.26v1.07a.27.27,0,0,0-.18.25v.27a.25.25,0,0,0,.25.27h.54a.26.26,0,0,0,.25-.18H63.11a.27.27,0,0,0,.25.18h.54a.26.26,0,0,0,.26-.26h0V21a.28.28,0,0,0-.16-.23V19.66A.26.26,0,0,0,64.16,19.41Z"/><path class="cls-9" d="M62.71,21.09H47.24c-.12,0-.22-.06-.22-.14V19.48c0-.07.1-.13.22-.13H62.71c.13,0,.22.06.22.13V21c0,.08-.09.14-.22.14"/><path class="cls-7" d="M48,18h-.29a.07.07,0,0,0-.08.08h0v.26a.06.06,0,0,0,.06.08h0v.72H48v-.72a.08.08,0,0,0,.08-.08h0v-.26A.08.08,0,0,0,48,18h0"/><path class="cls-10" d="M48,19.37h-.4a.06.06,0,0,1-.06-.06v-.2a.06.06,0,0,1,.06-.06H48a.09.09,0,0,1,.07.06v.2a.09.09,0,0,1-.07.06"/><path class="cls-7" d="M48,22.47h-.29a.08.08,0,0,1-.08-.08h0v-.27a.07.07,0,0,1,.08-.05v-.75H48v.75a.08.08,0,0,1,.08.08h0v.26a.08.08,0,0,1-.08.08h0"/><path class="cls-10" d="M48,21.06h-.4s-.06,0-.06.07v.19a.05.05,0,0,0,0,.06H48a.07.07,0,0,0,.07-.06v-.19a.08.08,0,0,0-.07-.07"/><path class="cls-7" d="M48.74,18h-.29a.07.07,0,0,0-.08.08h0v.26s0,.08.06.08h0v.72h.31v-.72a.07.07,0,0,0,.08-.08h0v-.26a.07.07,0,0,0-.08-.08h0"/><path class="cls-10" d="M48.71,19.37h-.4a.06.06,0,0,1-.06-.06v-.2a.06.06,0,0,1,.06-.06h.4a.06.06,0,0,1,.06.06v.2a.06.06,0,0,1-.06.06"/><path class="cls-7" d="M48.74,22.47h-.29a.08.08,0,0,1-.07-.08v-.27a.06.06,0,0,1,.06-.05v-.75h.31v.75a.07.07,0,0,1,.08.08h0v.26a.07.07,0,0,1-.08.08h0"/><path class="cls-10" d="M48.71,21.06h-.4a.07.07,0,0,0-.06.07v.19a.06.06,0,0,0,0,.06h.41a.06.06,0,0,0,.06-.06h0v-.19s0-.07-.06-.07"/><path class="cls-7" d="M49.52,18h-.3a.08.08,0,0,0-.08.08h0v.26a.08.08,0,0,0,.08.08h0v.72h.31v-.72a.07.07,0,0,0,.07-.07h0v-.26a.07.07,0,0,0-.08-.08h0"/><path class="cls-10" d="M49.48,19.37h-.39a.07.07,0,0,1-.07-.06v-.2a.06.06,0,0,1,.06-.06h.4s.07,0,.07.05h0v.2a.07.07,0,0,1-.07.06"/><path class="cls-7" d="M49.52,22.47h-.3a.09.09,0,0,1-.08-.08h0v-.27a.08.08,0,0,1,.08-.05v-.75h.31v.75a.07.07,0,0,1,.07.07h0v.26a.07.07,0,0,1-.08.08h0"/><path class="cls-10" d="M49.48,21.06h-.39a.07.07,0,0,0-.07.07v.19a.06.06,0,0,0,0,.06h.41a.05.05,0,0,0,.07-.05h0v-.19a.07.07,0,0,0-.07-.07"/><path class="cls-7" d="M50.28,18H50a.07.07,0,0,0-.08.08h0v.26a.07.07,0,0,0,.08.08h0v.72h.31v-.72a.06.06,0,0,0,.06-.08h0v-.26a.07.07,0,0,0-.08-.08h0"/><path class="cls-10" d="M50.24,19.37h-.39a.07.07,0,0,1-.07-.06v-.2a.06.06,0,0,1,.06-.06h.4a.08.08,0,0,1,.07.05h0v.2a.07.07,0,0,1-.07.06"/><path class="cls-7" d="M50.28,22.47H50a.08.08,0,0,1-.08-.08h0v-.27a.08.08,0,0,1,.08-.05v-.75h.31v.75a.07.07,0,0,1,.07.07h0v.26a.07.07,0,0,1-.08.08h0"/><path class="cls-10" d="M50.24,21.06h-.39a.07.07,0,0,0-.07.07v.19a.06.06,0,0,0,0,.06h.41s.06,0,.07-.05h0v-.19a.07.07,0,0,0-.07-.07"/><path class="cls-7" d="M51,18h-.3a.08.08,0,0,0-.08.08h0v.26a.08.08,0,0,0,.08.08h0v.72H51v-.72a.07.07,0,0,0,.08-.08h0v-.26A.07.07,0,0,0,51,18h0"/><path class="cls-10" d="M51,19.37h-.39a.07.07,0,0,1-.07-.06v-.2a.06.06,0,0,1,.06-.06H51s.07,0,.07.05h0v.2a.07.07,0,0,1-.07.06"/><path class="cls-7" d="M51,22.47h-.3a.09.09,0,0,1-.08-.08h0v-.27a.07.07,0,0,1,.09-.05v-.75H51v.75a.07.07,0,0,1,.08.08h0v.26a.08.08,0,0,1-.08.06"/><path class="cls-10" d="M51,21.06h-.39a.07.07,0,0,0-.07.07v.19a.06.06,0,0,0,.05.06H51a.05.05,0,0,0,.07-.05h0v-.19a.07.07,0,0,0-.07-.07"/><path class="cls-7" d="M51.75,18h-.3a.07.07,0,0,0-.08.08h0v.26a.07.07,0,0,0,.08.08h0v.72h.3v-.72a.07.07,0,0,0,.08-.08h0v-.26a.07.07,0,0,0-.08-.08h0"/><path class="cls-10" d="M51.71,19.37h-.39a.07.07,0,0,1-.07-.06v-.2a.06.06,0,0,1,.06-.06h.4a.08.08,0,0,1,.07.05h0v.2a.07.07,0,0,1-.07.06"/><path class="cls-7" d="M51.75,22.47h-.3a.08.08,0,0,1-.08-.08h0v-.27a.08.08,0,0,1,.08-.05v-.75h.3v.75a.07.07,0,0,1,.08.08h0v.26a.07.07,0,0,1-.08.08h0"/><path class="cls-10" d="M51.71,21.06h-.39a.07.07,0,0,0-.07.07v.19a.06.06,0,0,0,0,.06h.41s.06,0,.07-.05h0v-.19a.07.07,0,0,0-.07-.07"/><path class="cls-7" d="M52.49,18h-.3a.07.07,0,0,0-.08.08h0v.26a.07.07,0,0,0,.08.08h0v.72h.31v-.72a.07.07,0,0,0,.07-.07h0v-.26a.08.08,0,0,0-.08-.08h0"/><path class="cls-10" d="M52.46,19.37h-.4a.07.07,0,0,1-.07-.06v-.2a.07.07,0,0,1,.07-.06h.4a.06.06,0,0,1,.06.06v.2a.06.06,0,0,1-.06.06"/><path class="cls-7" d="M52.49,22.47h-.3a.08.08,0,0,1-.08-.08h0v-.27a.08.08,0,0,1,.08-.05v-.75h.31v.75a.07.07,0,0,1,.07.07h0v.26a.08.08,0,0,1-.08.08h0"/><path class="cls-10" d="M52.46,21.06h-.4a.07.07,0,0,0-.07.07v.19a.07.07,0,0,0,.07.06h.4a.06.06,0,0,0,.06-.06h0v-.19a.07.07,0,0,0-.06-.07"/><path class="cls-7" d="M53.24,18h-.3a.08.08,0,0,0-.08.08h0v.26a.08.08,0,0,0,.07.08h0v.72h.31v-.72a.07.07,0,0,0,.08-.08h0v-.26a.07.07,0,0,0-.08-.08h0"/><path class="cls-10" d="M53.2,19.37h-.39a.07.07,0,0,1-.07-.06v-.2a.06.06,0,0,1,.06-.06h.4a.07.07,0,0,1,.07.06v.2a.07.07,0,0,1-.07.06"/><path class="cls-7" d="M53.24,22.47h-.3a.09.09,0,0,1-.08-.08h0v-.27a.08.08,0,0,1,.07-.05v-.75h.31v.75a.07.07,0,0,1,.08.08h0v.26a.07.07,0,0,1-.08.08h0"/><path class="cls-10" d="M53.2,21.06h-.39a.07.07,0,0,0-.07.07v.19a.06.06,0,0,0,0,.06h.41a.07.07,0,0,0,.07-.06v-.19a.07.07,0,0,0-.07-.07"/><path class="cls-7" d="M54,18h-.3a.07.07,0,0,0-.08.07h0v.26a.07.07,0,0,0,.07.08h0v.72H54v-.72a.07.07,0,0,0,.08-.08h0v-.26A.07.07,0,0,0,54,18h0"/><path class="cls-10" d="M54,19.37h-.4a.06.06,0,0,1-.06-.06v-.2a.06.06,0,0,1,.06-.06H54a.06.06,0,0,1,.06.06v.2a.06.06,0,0,1-.06.06"/><path class="cls-7" d="M54,22.47h-.3a.08.08,0,0,1-.08-.08h0v-.27a.08.08,0,0,1,.07-.05v-.75H54v.75a.07.07,0,0,1,.08.08h0v.26a.07.07,0,0,1-.08.08h0"/><path class="cls-10" d="M54,21.06h-.4a.07.07,0,0,0-.06.07v.19a.06.06,0,0,0,.06.06H54a.05.05,0,0,0,.06-.06h0v-.19s0-.07-.06-.07"/><path class="cls-7" d="M54.73,18h-.3a.08.08,0,0,0-.08.08h0v.26a.08.08,0,0,0,.07.08h0v.72h.31v-.72a.07.07,0,0,0,.08-.08h0v-.26a.07.07,0,0,0-.08-.08h0"/><path class="cls-10" d="M54.69,19.37h-.38a.06.06,0,0,1-.06-.06v-.2a.06.06,0,0,1,.06-.06h.4a.07.07,0,0,1,.07.06v.2a.07.07,0,0,1-.07.06"/><path class="cls-7" d="M54.73,22.47h-.3a.09.09,0,0,1-.08-.08h0v-.27a.08.08,0,0,1,.07-.05v-.75h.31v.75a.07.07,0,0,1,.08.08h0v.26a.07.07,0,0,1-.08.08h0"/><path class="cls-10" d="M54.69,21.06h-.38a.07.07,0,0,0-.06.07v.19a.07.07,0,0,0,0,.08s0,0,0,0h.4a.07.07,0,0,0,.07-.06v-.21a.07.07,0,0,0-.07-.07"/><path class="cls-7" d="M55.5,18h-.31a.07.07,0,0,0-.07.08h0v.26a.07.07,0,0,0,.07.08h0v.72h.31v-.72a.08.08,0,0,0,.08-.08h0v-.26A.08.08,0,0,0,55.5,18h0"/><path class="cls-10" d="M55.46,19.37h-.4a.06.06,0,0,1-.06-.06v-.2a.06.06,0,0,1,.06-.06h.4a.06.06,0,0,1,.06.05h0v.2a.06.06,0,0,1-.06.06"/><path class="cls-7" d="M55.5,22.47h-.31a.08.08,0,0,1-.07-.08h0v-.27a.08.08,0,0,1,.07-.05v-.75h.31v.75a.08.08,0,0,1,.08.08h0v.26a.08.08,0,0,1-.08.08h0"/><path class="cls-10" d="M55.46,21.06h-.4a.07.07,0,0,0-.06.07v.19a.05.05,0,0,0,0,.06h.41a.05.05,0,0,0,.06-.05h0v-.19a.07.07,0,0,0-.06-.07"/><path class="cls-7" d="M56.24,18H56a.07.07,0,0,0-.08.08h0v.26a.06.06,0,0,0,.06.08h0v.72h.31v-.72a.08.08,0,0,0,.08-.08h0v-.26a.08.08,0,0,0-.08-.08h0"/><path class="cls-10" d="M56.21,19.37h-.4a.06.06,0,0,1-.06-.06v-.2a.06.06,0,0,1,.06-.06h.4a.09.09,0,0,1,.07.06v.2a.09.09,0,0,1-.07.06"/><path class="cls-7" d="M56.24,22.47H56a.08.08,0,0,1-.08-.08h0v-.27a.08.08,0,0,1,.07-.05v-.75h.31v.75a.08.08,0,0,1,.08.08h0v.26a.08.08,0,0,1-.08.08h0"/><path class="cls-10" d="M56.21,21.06h-.4s-.06,0-.06.07v.19a.05.05,0,0,0,0,.06h.41a.07.07,0,0,0,.07-.06v-.19a.08.08,0,0,0-.07-.07"/><path class="cls-7" d="M57.06,18h-.3a.07.07,0,0,0-.08.08h0v.26a.07.07,0,0,0,.08.08h0v.72h.31v-.72a.07.07,0,0,0,.07-.07h0v-.26a.08.08,0,0,0-.08-.08h0"/><path class="cls-10" d="M57,19.37h-.39a.07.07,0,0,1-.07-.06v-.2a.07.07,0,0,1,.07-.06H57a.08.08,0,0,1,.07.05h0v.2a.07.07,0,0,1-.07.06"/><path class="cls-7" d="M57.06,22.47h-.3a.08.08,0,0,1-.08-.08h0v-.27a.08.08,0,0,1,.08-.05v-.75h.31v.75a.07.07,0,0,1,.07.07h0v.26a.08.08,0,0,1-.08.08h0"/><path class="cls-10" d="M57,21.06h-.39a.07.07,0,0,0-.07.07v.19a.07.07,0,0,0,.07.06H57s.06,0,.07-.05h0v-.19a.07.07,0,0,0-.07-.07"/><path class="cls-7" d="M57.79,18h-.3a.08.08,0,0,0-.08.08h0v.26a.08.08,0,0,0,.08.08h0v.72h.31v-.72a.07.07,0,0,0,.07-.07h0v-.26a.07.07,0,0,0-.08-.08h0"/><path class="cls-10" d="M57.75,19.37h-.39a.07.07,0,0,1-.07-.06v-.2a.07.07,0,0,1,.07-.06h.39a.07.07,0,0,1,.07.05h0v.2a.07.07,0,0,1-.07.06"/><path class="cls-7" d="M57.79,22.47h-.3a.09.09,0,0,1-.08-.08h0v-.27a.08.08,0,0,1,.08-.05v-.75h.31v.75a.07.07,0,0,1,.07.07h0v.26a.07.07,0,0,1-.08.08h0"/><path class="cls-10" d="M57.75,21.06h-.39a.07.07,0,0,0-.07.07v.19a.07.07,0,0,0,.07.06h.39a.05.05,0,0,0,.07-.05h0v-.19a.07.07,0,0,0-.07-.07"/><path class="cls-7" d="M58.53,18h-.26a.08.08,0,0,0-.09.07h0v.26a.08.08,0,0,0,.08.08h0v.72h.31v-.72a.07.07,0,0,0,.07-.07h0v-.26a.07.07,0,0,0-.08-.08h0"/><path class="cls-10" d="M58.5,19.37h-.4a.07.07,0,0,1-.07-.06v-.2a.07.07,0,0,1,.07-.06h.4a.06.06,0,0,1,.06.06v.2a.06.06,0,0,1-.06.06"/><path class="cls-7" d="M58.53,22.47h-.26a.09.09,0,0,1-.09-.08h0v-.27a.12.12,0,0,1,0-.05v-.75h.31v.75a.07.07,0,0,1,.07.07h0v.26a.08.08,0,0,1-.08.08h0"/><path class="cls-10" d="M58.5,21.06h-.4a.07.07,0,0,0-.07.07v.19a.07.07,0,0,0,.07.06h.4a.06.06,0,0,0,.06-.06h0v-.19a.07.07,0,0,0-.06-.07"/><path class="cls-7" d="M59.28,18H59a.08.08,0,0,0-.08.08h0v.26a.08.08,0,0,0,.08.08h0v.72h.31v-.72a.07.07,0,0,0,.07-.07h0v-.26a.07.07,0,0,0-.08-.08h0"/><path class="cls-10" d="M59.24,19.37h-.39a.07.07,0,0,1-.07-.06v-.2a.06.06,0,0,1,.06-.06h.4s.07,0,.07.05h0v.2a.07.07,0,0,1-.07.06"/><path class="cls-7" d="M59.28,22.47H59s-.06,0,0-.08v-.27s0,0,0-.05v-.75h.31v.75a.07.07,0,0,1,.07.07h0v.26a.07.07,0,0,1-.08.08h0"/><path class="cls-10" d="M59.24,21.06h-.39a.07.07,0,0,0-.07.07v.19a.06.06,0,0,0,0,.06h.41a.05.05,0,0,0,.07-.05h0v-.19a.07.07,0,0,0-.07-.07"/><path class="cls-7" d="M60,18h-.3a.08.08,0,0,0-.08.08h0v.26a.08.08,0,0,0,.07.08h0v.72H60v-.72a.07.07,0,0,0,.08-.08h0v-.26A.07.07,0,0,0,60,18h0"/><path class="cls-10" d="M60,19.37h-.41a.06.06,0,0,1-.06-.06v-.2a.06.06,0,0,1,.06-.06H60a.06.06,0,0,1,.06.06v.2a.06.06,0,0,1-.06.06"/><path class="cls-7" d="M60,22.47h-.3a.09.09,0,0,1-.08-.08h0v-.27a.08.08,0,0,1,.07-.05v-.75H60v.75a.07.07,0,0,1,.08.08h0v.26a.07.07,0,0,1-.08.08h0"/><path class="cls-10" d="M60,21.06h-.41s-.06,0-.06.07v.19a.05.05,0,0,0,0,.08s0,0,0,0H60a.06.06,0,0,0,.06-.06v-.21a.07.07,0,0,0-.06-.07"/><path class="cls-7" d="M60.77,18h-.3a.08.08,0,0,0-.08.08h0v.26a.08.08,0,0,0,.08.08h0v.72h.3v-.72a.07.07,0,0,0,.08-.08h0v-.26a.07.07,0,0,0-.08-.08h0"/><path class="cls-10" d="M60.73,19.37h-.39a.07.07,0,0,1-.07-.06v-.2a.06.06,0,0,1,.06-.06h.4s.07,0,.07.05h0v.2a.07.07,0,0,1-.07.06"/><path class="cls-7" d="M60.77,22.47h-.3a.09.09,0,0,1-.08-.08h0v-.27a.08.08,0,0,1,.08-.05v-.75h.3v.75a.07.07,0,0,1,.08.08h0v.26a.07.07,0,0,1-.08.08h0"/><path class="cls-10" d="M60.73,21.06h-.39a.07.07,0,0,0-.07.07v.19a.06.06,0,0,0,0,.06h.41a.05.05,0,0,0,.07-.05h0v-.19a.07.07,0,0,0-.07-.07"/><path class="cls-7" d="M61.56,18h-.33a.07.07,0,0,0-.07.08h0v.26a.07.07,0,0,0,.07.08h0v.72h.33v-.72a.08.08,0,0,0,.08-.07h0v-.26a.08.08,0,0,0-.08-.08"/><path class="cls-10" d="M61.5,19.37h-.4a.06.06,0,0,1-.06-.06v-.2a.06.06,0,0,1,.06-.06h.4a.06.06,0,0,1,.06.05h0v.2a.06.06,0,0,1-.06.06"/><path class="cls-7" d="M61.56,22.47h-.33a.08.08,0,0,1-.07-.08h0v-.27a.08.08,0,0,1,.07-.05v-.75h.33v.75a.08.08,0,0,1,.08.07h0v.26a.1.1,0,0,1-.08.06"/><path class="cls-10" d="M61.5,21.06h-.4a.07.07,0,0,0-.06.07v.19a.06.06,0,0,0,.06.06h.4a.05.05,0,0,0,.06-.05s0,0,0,0v-.19s0-.07-.06-.07"/><path class="cls-7" d="M62.29,18H62a.07.07,0,0,0-.08.08h0v.26a.06.06,0,0,0,.06.08h0v.72h.31v-.72a.08.08,0,0,0,.08-.08h0v-.26a.08.08,0,0,0-.08-.08h0"/><path class="cls-10" d="M62.22,19.37h-.39a.07.07,0,0,1-.07-.06v-.2a.06.06,0,0,1,.06-.06h.4a.07.07,0,0,1,.07.06v.2a.07.07,0,0,1-.07.06"/><path class="cls-7" d="M62.29,22.47H62a.08.08,0,0,1-.08-.08h0v-.27a.08.08,0,0,1,.07-.05v-.75h.31v.75a.08.08,0,0,1,.08.08h0v.26a.08.08,0,0,1-.08.08h0"/><path class="cls-10" d="M62.22,21.06h-.39a.07.07,0,0,0-.07.07v.19a.06.06,0,0,0,.05.06h.41a.07.07,0,0,0,.07-.06v-.19a.07.07,0,0,0-.07-.07"/><path class="cls-10" d="M46,19.21c0-.09.13-.16.28-.16s.27.07.27.16-.12.16-.27.16S46,19.3,46,19.21"/><path class="cls-10" d="M46,21.2c0-.09.13-.17.28-.17s.27.08.27.17-.12.16-.27.16S46,21.28,46,21.2"/><path class="cls-10" d="M63.38,19.21c0-.09.12-.16.28-.16s.27.07.27.16-.12.16-.27.16-.28-.07-.28-.16"/><path class="cls-10" d="M63.38,21.2c0-.09.12-.17.28-.17s.27.08.27.17-.12.16-.27.16-.28-.08-.28-.16"/><path class="cls-11" d="M64.1,18.12h-.17v-.54h-.21v-.13c.12,0,.23,0,.25-.16h.13Z"/><path class="cls-11" d="M63.68,22.54a.29.29,0,0,1,.3-.33.27.27,0,0,1,.29.26c0,.25-.27.27-.39.44h.39v.15h-.61c0-.2.12-.28.26-.38s.18-.1.18-.2a.13.13,0,0,0-.13-.13c-.1,0-.13.1-.13.19Z"/><path class="cls-11" d="M45.66,17.62c.07,0,.18,0,.18-.1a.11.11,0,0,0-.12-.11.13.13,0,0,0-.13.15h-.16a.28.28,0,0,1,.29-.29.26.26,0,0,1,.28.23.16.16,0,0,1-.12.17h0a.19.19,0,0,1,.15.19.31.31,0,0,1-.62,0h.16c0,.09,0,.17.15.17a.13.13,0,0,0,.13-.13c0-.13-.11-.13-.19-.13Z"/><path class="cls-11" d="M46.25,17.91a.12.12,0,0,0,.11.1c.13,0,.16-.16.16-.25h0a.22.22,0,0,1-.19.1.28.28,0,0,1-.19-.09.31.31,0,0,1-.07-.18.3.3,0,0,1,.3-.31c.25,0,.32.22.32.43s-.09.44-.33.44a.26.26,0,0,1-.27-.23Zm.26-.34a.15.15,0,0,0-.14-.16.14.14,0,0,0-.13.15c0,.08,0,.16.13.16A.14.14,0,0,0,46.51,17.57Z"/><path class="cls-11" d="M45.76,22.86h-.35v-.15l.36-.49h.15v.5H46v.14h-.11v.2h-.16Zm0-.43h0l-.22.29h.22Z"/><path class="cls-11" d="M46.38,22.21c.17,0,.31.1.31.43s-.14.43-.31.43-.31-.1-.31-.43S46.21,22.21,46.38,22.21Zm0,.72c.14,0,.14-.2.14-.29s0-.29-.14-.29-.14.2-.14.29S46.24,22.93,46.38,22.93Z"/><polygon class="cls-12" points="104.59 2.9 107.5 2.9 108.97 1.45 107.5 0 104.59 0 103.13 1.45 104.59 2.9"/><path class="cls-12" d="M110.94,0h-3.47l-2,1.46,2,1.45h3.47c.29,0,.53-.18.53-.39V.39C111.47.18,111.23,0,110.94,0Z"/><rect class="cls-12" x="105.23" width="3.88" height="2.9" transform="translate(214.33 2.91) rotate(180)"/><path class="cls-6" d="M105.6,2.41h-.4l-.52-1.6h.37l.35,1.12h0l.36-1.12h.36Z"/><path class="cls-6" d="M106.27.81H107c.3,0,.51.1.51.4a.36.36,0,0,1-.22.33.39.39,0,0,1,.29.41c0,.32-.27.46-.56.46h-.78Zm.35.65H107c.13,0,.22-.06.22-.19s-.12-.19-.25-.19h-.33Zm0,.68H107c.14,0,.26-.05.26-.21s-.1-.23-.25-.23h-.39Z"/><path class="cls-6" d="M108.29.81h.36l.6,1.6h-.36l-.12-.36h-.6l-.13.36h-.35Zm0,1h.42l-.21-.59h0Z"/><path class="cls-6" d="M109.75,1.1h-.48V.81h1.31V1.1h-.48V2.41h-.35Z"/><polygon class="cls-12" points="127.91 0.17 124.99 0.17 123.53 1.63 124.99 3.08 127.91 3.08 129.37 1.63 127.91 0.17"/><path class="cls-12" d="M121.55,3.07H125l2-1.45L125,.17h-3.48c-.29,0-.52.17-.52.39V2.69C121,2.9,121.26,3.07,121.55,3.07Z"/><rect class="cls-12" x="123.39" y="0.17" width="3.88" height="2.9"/><path class="cls-6" d="M123,2.41h-.4l-.52-1.6h.36l.36,1.12h0l.36-1.12h.37Z"/><path class="cls-6" d="M123.64.81h.75c.31,0,.51.1.51.4a.35.35,0,0,1-.21.33A.4.4,0,0,1,125,2c0,.32-.28.46-.57.46h-.77Zm.35.65h.36a.18.18,0,0,0,.21-.19c0-.15-.11-.19-.24-.19H124Zm0,.68h.38c.13,0,.26-.05.26-.21s-.1-.23-.26-.23H124Z"/><path class="cls-6" d="M125.66.81H126l.6,1.6h-.37l-.12-.36h-.6l-.12.36h-.36Zm0,1H126l-.2-.59h0Z"/><path class="cls-6" d="M127.12,1.1h-.48V.81H128V1.1h-.48V2.41h-.35Z"/><path class="cls-13" d="M124.42,75.25h-2.71c-.37,0-.67-.18-.67-.41V72.76c0-.23.3-.42.67-.42h2.71c.37,0,.67.19.67.42v2.08C125.09,75.07,124.79,75.25,124.42,75.25Z"/><polygon class="cls-13" points="129.25 75.25 126.33 75.25 124.87 73.8 126.33 72.34 129.25 72.34 130.71 73.8 129.25 75.25"/><rect class="cls-13" x="123.79" y="72.34" width="4.88" height="2.91"/><path class="cls-6" d="M122.52,73h.36l.59,1.58h-.36l-.12-.35h-.59l-.13.35h-.35Zm0,1h.41l-.2-.58h0Z"/><path class="cls-6" d="M123.61,73H124v1.29h.77v.29h-1.12Z"/><path class="cls-6" d="M124.93,73h1.18v.29h-.84v.34H126v.27h-.77v.39h.86v.29h-1.2Z"/><path class="cls-6" d="M126.36,73h.86a.44.44,0,0,1,.46.44.38.38,0,0,1-.25.39h0c.17,0,.22.21.23.37a.79.79,0,0,0,.07.37h-.35a2,2,0,0,1-.06-.38c0-.16-.09-.24-.26-.24h-.35v.62h-.35Zm.35.72h.38c.16,0,.24-.07.24-.23s-.08-.22-.24-.22h-.38Z"/><path class="cls-6" d="M128.32,73.25h-.48V73h1.3v.29h-.48v1.29h-.34Z"/><rect class="cls-14" x="121.04" y="68.23" width="2.47" height="2.91" rx="0.41"/><polygon class="cls-14" points="125.42 71.13 122.5 71.13 121.03 69.68 122.5 68.23 125.42 68.23 126.88 69.68 125.42 71.13"/><path class="cls-6" d="M122.22,68.81h.35l.66,1.06h0V68.81h.32v1.58h-.34l-.66-1.06h0v1.06h-.33Z"/><path class="cls-6" d="M124.91,69.34a.34.34,0,0,0-.34-.28c-.32,0-.43.27-.43.54s.11.54.43.54a.36.36,0,0,0,.36-.36h.34a.67.67,0,0,1-.7.65.83.83,0,0,1,0-1.66.63.63,0,0,1,.68.57Z"/><rect class="cls-14" x="121.04" y="64.21" width="2.47" height="2.91" rx="0.41"/><polygon class="cls-14" points="125.42 67.11 122.5 67.11 121.03 65.66 122.5 64.21 125.42 64.21 126.88 65.66 125.42 67.11"/><path class="cls-6" d="M122.22,64.79h.35l.66,1.06h0V64.79h.32v1.58h-.34l-.66-1.06h0v1.06h-.33Z"/><path class="cls-6" d="M124.91,65.32a.34.34,0,0,0-.34-.28c-.32,0-.43.27-.43.55s.11.53.43.53a.36.36,0,0,0,.36-.36h.34a.67.67,0,0,1-.7.65.77.77,0,0,1-.78-.82.78.78,0,0,1,.78-.84.63.63,0,0,1,.68.57Z"/><rect class="cls-14" x="121.04" y="60.09" width="2.47" height="2.91" rx="0.41"/><polygon class="cls-14" points="125.42 62.99 122.5 62.99 121.03 61.54 122.5 60.09 125.42 60.09 126.88 61.54 125.42 62.99"/><path class="cls-6" d="M122.22,60.66h.35l.66,1.07h0V60.66h.32v1.59h-.34l-.66-1.06h0v1.06h-.33Z"/><path class="cls-6" d="M124.91,61.2a.33.33,0,0,0-.34-.28c-.32,0-.43.27-.43.54s.11.53.43.53a.36.36,0,0,0,.36-.35h.34a.67.67,0,0,1-.7.65.83.83,0,0,1,0-1.66.63.63,0,0,1,.68.57Z"/><rect class="cls-14" x="121.04" y="56.14" width="2.47" height="2.91" rx="0.41"/><polygon class="cls-14" points="125.42 59.04 122.5 59.04 121.03 57.59 122.5 56.14 125.42 56.14 126.88 57.59 125.42 59.04"/><path class="cls-6" d="M122.22,56.71h.35l.66,1.07h0V56.71h.32V58.3h-.34l-.66-1.06h0V58.3h-.33Z"/><path class="cls-6" d="M124.91,57.25a.34.34,0,0,0-.34-.28c-.32,0-.43.27-.43.54s.11.53.43.53a.36.36,0,0,0,.36-.35h.34a.67.67,0,0,1-.7.65.83.83,0,0,1,0-1.66.63.63,0,0,1,.68.57Z"/><rect class="cls-14" x="121.04" y="52.07" width="2.47" height="2.91" rx="0.41"/><polygon class="cls-14" points="125.42 54.97 122.5 54.97 121.03 53.52 122.5 52.07 125.42 52.07 126.88 53.52 125.42 54.97"/><path class="cls-6" d="M122.22,52.64h.35l.66,1.07h0V52.64h.32v1.59h-.34l-.66-1.06h0v1.06h-.33Z"/><path class="cls-6" d="M124.91,53.18a.34.34,0,0,0-.34-.28c-.32,0-.43.27-.43.54s.11.53.43.53a.36.36,0,0,0,.36-.35h.34a.67.67,0,0,1-.7.65.83.83,0,0,1,0-1.66.63.63,0,0,1,.68.57Z"/><rect class="cls-14" x="121.04" y="32.02" width="2.47" height="2.91" rx="0.41"/><polygon class="cls-14" points="125.42 34.92 122.5 34.92 121.03 33.47 122.5 32.02 125.42 32.02 126.88 33.47 125.42 34.92"/><path class="cls-6" d="M122.22,32.59h.35l.66,1.07h0V32.59h.32v1.59h-.34l-.66-1.06h0v1.06h-.33Z"/><path class="cls-6" d="M124.91,33.13a.34.34,0,0,0-.34-.28c-.32,0-.43.27-.43.54s.11.53.43.53a.36.36,0,0,0,.36-.35h.34a.67.67,0,0,1-.7.65.83.83,0,0,1,0-1.66.63.63,0,0,1,.68.57Z"/><rect class="cls-14" x="121.04" y="28.01" width="2.47" height="2.91" rx="0.41"/><polygon class="cls-14" points="125.42 30.91 122.5 30.91 121.03 29.46 122.5 28.01 125.42 28.01 126.88 29.46 125.42 30.91"/><path class="cls-6" d="M122.22,28.59h.35l.66,1.06h0V28.59h.32v1.58h-.34l-.66-1.06h0v1.06h-.33Z"/><path class="cls-6" d="M124.91,29.12a.34.34,0,0,0-.34-.28c-.32,0-.43.27-.43.54s.11.54.43.54a.36.36,0,0,0,.36-.36h.34a.67.67,0,0,1-.7.65.83.83,0,0,1,0-1.66.63.63,0,0,1,.68.57Z"/><rect class="cls-14" x="121.04" y="24.03" width="2.47" height="2.91" rx="0.41"/><polygon class="cls-14" points="125.42 26.94 122.5 26.94 121.03 25.48 122.5 24.03 125.42 24.03 126.88 25.48 125.42 26.94"/><path class="cls-6" d="M122.22,24.61h.35l.66,1.06h0V24.61h.32v1.58h-.34l-.66-1.06h0v1.06h-.33Z"/><path class="cls-6" d="M124.91,25.14a.33.33,0,0,0-.34-.27c-.32,0-.43.26-.43.54s.11.53.43.53.33-.14.36-.36h.34a.67.67,0,0,1-.7.65.76.76,0,0,1-.78-.82.78.78,0,0,1,.78-.84.64.64,0,0,1,.68.57Z"/><rect class="cls-14" x="121.04" y="20.01" width="2.47" height="2.91" rx="0.41"/><polygon class="cls-14" points="125.42 22.92 122.5 22.92 121.03 21.46 122.5 20.01 125.42 20.01 126.88 21.46 125.42 22.92"/><path class="cls-6" d="M122.22,20.59h.35l.66,1.06h0V20.59h.32v1.59h-.34l-.66-1.07h0v1.07h-.33Z"/><path class="cls-6" d="M124.91,21.13a.33.33,0,0,0-.34-.28c-.32,0-.43.26-.43.54s.11.53.43.53.33-.14.36-.36h.34a.67.67,0,0,1-.7.65.76.76,0,0,1-.78-.82.78.78,0,0,1,.78-.84.64.64,0,0,1,.68.57Z"/><rect class="cls-14" x="121.04" y="16.15" width="2.47" height="2.91" rx="0.41"/><polygon class="cls-14" points="125.42 19.05 122.5 19.05 121.03 17.6 122.5 16.15 125.42 16.15 126.88 17.6 125.42 19.05"/><path class="cls-6" d="M122.22,16.72h.35l.66,1.07h0V16.72h.32v1.59h-.34l-.66-1.06h0v1.06h-.33Z"/><path class="cls-6" d="M124.91,17.26a.33.33,0,0,0-.34-.28c-.32,0-.43.27-.43.54s.11.53.43.53a.36.36,0,0,0,.36-.35h.34a.67.67,0,0,1-.7.65.83.83,0,0,1,0-1.66.63.63,0,0,1,.68.57Z"/><rect class="cls-14" x="121.04" y="12.24" width="2.47" height="2.91" rx="0.41"/><polygon class="cls-14" points="125.42 15.15 122.5 15.15 121.03 13.7 122.5 12.24 125.42 12.24 126.88 13.7 125.42 15.15"/><path class="cls-6" d="M122.22,12.82h.35l.66,1.07h0V12.82h.32v1.59h-.34l-.66-1.06h0v1.06h-.33Z"/><path class="cls-6" d="M124.91,13.36a.33.33,0,0,0-.34-.28c-.32,0-.43.27-.43.54s.11.53.43.53a.36.36,0,0,0,.36-.35h.34a.67.67,0,0,1-.7.64.76.76,0,0,1-.78-.82.78.78,0,0,1,.78-.84.64.64,0,0,1,.68.57Z"/><rect class="cls-14" x="121.04" y="48.18" width="2.47" height="2.91" rx="0.41"/><polygon class="cls-14" points="125.42 51.08 122.5 51.08 121.03 49.63 122.5 48.18 125.42 48.18 126.88 49.63 125.42 51.08"/><path class="cls-6" d="M122.22,48.76h.35l.66,1.06h0V48.76h.32v1.58h-.34l-.66-1.06h0v1.06h-.33Z"/><path class="cls-6" d="M124.91,49.29a.34.34,0,0,0-.34-.28c-.32,0-.43.27-.43.55s.11.53.43.53a.36.36,0,0,0,.36-.36h.34a.67.67,0,0,1-.7.65.77.77,0,0,1-.78-.82.78.78,0,0,1,.78-.84.63.63,0,0,1,.68.57Z"/><rect class="cls-14" x="121.04" y="44.21" width="2.47" height="2.91" rx="0.41"/><polygon class="cls-14" points="125.42 47.12 122.5 47.12 121.03 45.66 122.5 44.21 125.42 44.21 126.88 45.66 125.42 47.12"/><path class="cls-6" d="M122.22,44.79h.35l.66,1.06h0V44.79h.32v1.59h-.34l-.66-1.07h0v1.07h-.33Z"/><path class="cls-6" d="M124.91,45.33a.33.33,0,0,0-.34-.28c-.32,0-.43.26-.43.54s.11.53.43.53a.36.36,0,0,0,.36-.35h.34a.67.67,0,0,1-.7.64.76.76,0,0,1-.78-.82.78.78,0,0,1,.78-.84.64.64,0,0,1,.68.57Z"/><rect class="cls-14" x="121.04" y="40.29" width="2.47" height="2.91" rx="0.41"/><polygon class="cls-14" points="125.42 43.19 122.5 43.19 121.03 41.74 122.5 40.29 125.42 40.29 126.88 41.74 125.42 43.19"/><path class="cls-6" d="M122.22,40.87h.35l.66,1.06h0V40.87h.32v1.58h-.34l-.66-1.06h0v1.06h-.33Z"/><path class="cls-6" d="M124.91,41.4a.34.34,0,0,0-.34-.28c-.32,0-.43.27-.43.54s.11.54.43.54a.36.36,0,0,0,.36-.36h.34a.67.67,0,0,1-.7.65.83.83,0,0,1,0-1.66.63.63,0,0,1,.68.57Z"/><path class="cls-6" d="M105,26.35h1.12v.11H105Z"/><rect class="cls-14" x="109" y="23.99" width="2.47" height="2.91" rx="0.41"/><polygon class="cls-14" points="107.09 23.99 110.01 23.99 111.47 25.44 110.01 26.89 107.09 26.89 105.63 25.44 107.09 23.99"/><path class="cls-6" d="M107.54,24.56h.35l.66,1.07h0V24.56h.32v1.59h-.35l-.66-1.06h0v1.06h-.32Z"/><path class="cls-6" d="M110.23,25.1a.34.34,0,0,0-.34-.28c-.32,0-.43.27-.43.54s.11.53.43.53a.36.36,0,0,0,.36-.35h.34a.68.68,0,0,1-.7.65.77.77,0,0,1-.78-.83.78.78,0,0,1,.78-.84.65.65,0,0,1,.68.58Z"/><path class="cls-6" d="M105,30.37h1.12v.11H105Z"/><rect class="cls-14" x="109" y="28.01" width="2.47" height="2.91" rx="0.41"/><polygon class="cls-14" points="107.09 28.01 110.01 28.01 111.47 29.46 110.01 30.91 107.09 30.91 105.63 29.46 107.09 28.01"/><path class="cls-6" d="M107.54,28.58h.35l.66,1.07h0V28.58h.32v1.59h-.35l-.66-1.06h0v1.06h-.32Z"/><path class="cls-6" d="M110.23,29.12a.34.34,0,0,0-.34-.28c-.32,0-.43.27-.43.54s.11.53.43.53a.36.36,0,0,0,.36-.35h.34a.68.68,0,0,1-.7.65.83.83,0,0,1,0-1.66.64.64,0,0,1,.68.57Z"/><path class="cls-6" d="M105,34.41h1.12v.11H105Z"/><rect class="cls-14" x="109" y="32.05" width="2.47" height="2.91" rx="0.41"/><polygon class="cls-14" points="107.09 32.05 110.01 32.05 111.47 33.5 110.01 34.95 107.09 34.95 105.63 33.5 107.09 32.05"/><path class="cls-6" d="M107.54,32.63h.35l.66,1.06h0V32.63h.32v1.58h-.35l-.66-1.06h0v1.06h-.32Z"/><path class="cls-6" d="M110.23,33.16a.35.35,0,0,0-.34-.28c-.32,0-.43.27-.43.54s.11.54.43.54a.36.36,0,0,0,.36-.36h.34a.67.67,0,0,1-.7.65.83.83,0,0,1,0-1.66.64.64,0,0,1,.68.57Z"/><rect class="cls-14" x="109" y="20.01" width="2.47" height="2.91" rx="0.41"/><polygon class="cls-14" points="107.09 20.01 110.01 20.01 111.47 21.47 110.01 22.92 107.09 22.92 105.63 21.47 107.09 20.01"/><path class="cls-6" d="M107.54,20.59h.35l.66,1.06h0V20.59h.32v1.58h-.35l-.66-1.06h0v1.06h-.32Z"/><path class="cls-6" d="M110.23,21.12a.33.33,0,0,0-.34-.27c-.32,0-.43.26-.43.54s.11.53.43.53a.36.36,0,0,0,.36-.36h.34a.67.67,0,0,1-.7.65.76.76,0,0,1-.78-.82.78.78,0,0,1,.78-.84.65.65,0,0,1,.68.57Z"/><path class="cls-6" d="M105,18.36h1.12v.11H105Z"/><rect class="cls-14" x="109" y="16.07" width="2.47" height="2.91" rx="0.41"/><polygon class="cls-14" points="107.09 16.07 110.01 16.07 111.47 17.52 110.01 18.98 107.09 18.98 105.63 17.52 107.09 16.07"/><path class="cls-6" d="M107.54,16.65h.35l.66,1.06h0V16.65h.32v1.58h-.35l-.66-1.06h0v1.06h-.32Z"/><path class="cls-6" d="M110.23,17.18a.35.35,0,0,0-.34-.28c-.32,0-.43.27-.43.55s.11.53.43.53a.36.36,0,0,0,.36-.36h.34a.67.67,0,0,1-.7.65.77.77,0,0,1-.78-.82.78.78,0,0,1,.78-.84.64.64,0,0,1,.68.57Z"/><rect class="cls-14" x="109" y="12.16" width="2.47" height="2.91" rx="0.41"/><polygon class="cls-14" points="107.09 12.16 110.01 12.16 111.47 13.61 110.01 15.06 107.09 15.06 105.63 13.61 107.09 12.16"/><path class="cls-6" d="M107.54,12.74h.35l.66,1.06h0V12.74h.32v1.58h-.35l-.66-1.06h0v1.06h-.32Z"/><path class="cls-6" d="M110.23,13.27a.35.35,0,0,0-.34-.28c-.32,0-.43.27-.43.54s.11.54.43.54a.36.36,0,0,0,.36-.36h.34a.67.67,0,0,1-.7.65.83.83,0,0,1,0-1.66.64.64,0,0,1,.68.57Z"/><rect class="cls-14" x="109" y="8.07" width="2.47" height="2.91" rx="0.41"/><polygon class="cls-14" points="107.09 8.07 110.01 8.07 111.47 9.52 110.01 10.97 107.09 10.97 105.63 9.52 107.09 8.07"/><path class="cls-6" d="M107.54,8.64h.35l.66,1.07h0V8.64h.32v1.59h-.35l-.66-1.06h0v1.06h-.32Z"/><path class="cls-6" d="M110.23,9.18a.34.34,0,0,0-.34-.28c-.32,0-.43.27-.43.54s.11.53.43.53a.36.36,0,0,0,.36-.35h.34a.67.67,0,0,1-.7.65.77.77,0,0,1-.78-.83.77.77,0,0,1,.78-.83.64.64,0,0,1,.68.57Z"/><path class="cls-6" d="M105,58.5h1.12v.11H105Z"/><rect class="cls-14" x="109" y="56.14" width="2.47" height="2.91" rx="0.41"/><polygon class="cls-14" points="107.09 56.14 110.01 56.14 111.47 57.59 110.01 59.04 107.09 59.04 105.63 57.59 107.09 56.14"/><path class="cls-6" d="M107.54,56.71h.35l.66,1.07h0V56.71h.32V58.3h-.35l-.66-1.06h0V58.3h-.32Z"/><path class="cls-6" d="M110.23,57.25a.34.34,0,0,0-.34-.28c-.32,0-.43.27-.43.54s.11.53.43.53a.36.36,0,0,0,.36-.35h.34a.68.68,0,0,1-.7.65.83.83,0,0,1,0-1.66.64.64,0,0,1,.68.57Z"/><path class="cls-6" d="M105,62.45h1.12v.11H105Z"/><rect class="cls-14" x="109" y="60.09" width="2.47" height="2.91" rx="0.41"/><polygon class="cls-14" points="107.09 60.09 110.01 60.09 111.47 61.54 110.01 62.99 107.09 62.99 105.63 61.54 107.09 60.09"/><path class="cls-6" d="M107.54,60.66h.35l.66,1.07h0V60.66h.32v1.59h-.35l-.66-1.06h0v1.06h-.32Z"/><path class="cls-6" d="M110.23,61.2a.34.34,0,0,0-.34-.28c-.32,0-.43.27-.43.54s.11.53.43.53a.36.36,0,0,0,.36-.35h.34a.68.68,0,0,1-.7.65.83.83,0,0,1,0-1.66.64.64,0,0,1,.68.57Z"/><path class="cls-6" d="M105,66.5h1.12v.11H105Z"/><rect class="cls-14" x="109" y="64.14" width="2.47" height="2.91" rx="0.41"/><polygon class="cls-14" points="107.09 64.14 110.01 64.14 111.47 65.59 110.01 67.04 107.09 67.04 105.63 65.59 107.09 64.14"/><path class="cls-6" d="M107.54,64.71h.35l.66,1.07h0V64.71h.32V66.3h-.35l-.66-1.06h0V66.3h-.32Z"/><path class="cls-6" d="M110.23,65.25a.34.34,0,0,0-.34-.28c-.32,0-.43.27-.43.54s.11.53.43.53a.36.36,0,0,0,.36-.35h.34a.67.67,0,0,1-.7.65.83.83,0,0,1,0-1.66.64.64,0,0,1,.68.57Z"/><path class="cls-6" d="M105,70.52h1.12v.11H105Z"/><rect class="cls-14" x="109" y="68.16" width="2.47" height="2.91" rx="0.41"/><polygon class="cls-14" points="107.09 68.16 110.01 68.16 111.47 69.61 110.01 71.06 107.09 71.06 105.63 69.61 107.09 68.16"/><path class="cls-6" d="M107.54,68.74h.35l.66,1.06h0V68.74h.32v1.58h-.35l-.66-1.06h0v1.06h-.32Z"/><path class="cls-6" d="M110.23,69.27a.35.35,0,0,0-.34-.28c-.32,0-.43.27-.43.54s.11.53.43.53a.36.36,0,0,0,.36-.35h.34a.67.67,0,0,1-.7.65.83.83,0,0,1,0-1.66.64.64,0,0,1,.68.57Z"/><rect class="cls-14" x="109" y="52.07" width="2.47" height="2.91" rx="0.41"/><polygon class="cls-14" points="107.09 52.07 110.01 52.07 111.47 53.52 110.01 54.97 107.09 54.97 105.63 53.52 107.09 52.07"/><path class="cls-6" d="M107.54,52.64h.35l.66,1.07h0V52.64h.32v1.59h-.35l-.66-1.06h0v1.06h-.32Z"/><path class="cls-6" d="M110.23,53.18a.34.34,0,0,0-.34-.28c-.32,0-.43.27-.43.54s.11.53.43.53a.36.36,0,0,0,.36-.35h.34a.68.68,0,0,1-.7.65.83.83,0,0,1,0-1.66.64.64,0,0,1,.68.57Z"/><path class="cls-6" d="M105,50.46h1.12v.11H105Z"/><rect class="cls-14" x="109" y="48.16" width="2.47" height="2.91" rx="0.41"/><polygon class="cls-14" points="107.09 48.16 110.01 48.16 111.47 49.62 110.01 51.07 107.09 51.07 105.63 49.62 107.09 48.16"/><path class="cls-6" d="M107.54,48.74h.35l.66,1.06h0V48.74h.32v1.58h-.35l-.66-1.06h0v1.06h-.32Z"/><path class="cls-6" d="M110.23,49.27a.33.33,0,0,0-.34-.27c-.32,0-.43.26-.43.54s.11.53.43.53a.36.36,0,0,0,.36-.36h.34a.67.67,0,0,1-.7.65.76.76,0,0,1-.78-.82.78.78,0,0,1,.78-.84.65.65,0,0,1,.68.57Z"/><rect class="cls-14" x="109" y="44.21" width="2.47" height="2.91" rx="0.41"/><polygon class="cls-14" points="107.09 44.21 110.01 44.21 111.47 45.67 110.01 47.12 107.09 47.12 105.63 45.67 107.09 44.21"/><path class="cls-6" d="M107.54,44.79h.35l.66,1.06h0V44.79h.32v1.58h-.35l-.66-1.06h0v1.06h-.32Z"/><path class="cls-6" d="M110.23,45.32a.33.33,0,0,0-.34-.27c-.32,0-.43.26-.43.54s.11.53.43.53.33-.14.36-.36h.34a.67.67,0,0,1-.7.65.76.76,0,0,1-.78-.82.78.78,0,0,1,.78-.84.65.65,0,0,1,.68.57Z"/><rect class="cls-14" x="109" y="40.28" width="2.47" height="2.91" rx="0.41"/><polygon class="cls-14" points="107.09 40.28 110.01 40.28 111.47 41.73 110.01 43.18 107.09 43.18 105.63 41.73 107.09 40.28"/><path class="cls-6" d="M107.54,40.85h.35l.66,1.07h0V40.85h.32v1.59h-.35l-.66-1.06h0v1.06h-.32Z"/><path class="cls-6" d="M110.23,41.39a.34.34,0,0,0-.34-.28c-.32,0-.43.27-.43.54s.11.53.43.53a.36.36,0,0,0,.36-.35h.34a.68.68,0,0,1-.7.65.83.83,0,0,1,0-1.66.64.64,0,0,1,.68.57Z"/><rect class="cls-15" x="116.78" width="4.25" height="79.19"/><rect class="cls-15" x="111.47" width="4.25" height="79.19"/><rect class="cls-16" x="109" y="4.04" width="2.47" height="2.9" rx="0.41"/><rect class="cls-12" x="112.01" width="3.71" height="2.9" rx="0.35"/><rect class="cls-16" x="112.01" y="3.97" width="3.71" height="2.9" rx="0.35"/><rect class="cls-14" x="112.01" y="8.07" width="3.71" height="2.9" rx="0.35"/><rect class="cls-14" x="112.01" y="12.16" width="3.71" height="2.9" rx="0.35"/><rect class="cls-14" x="112.01" y="16.07" width="3.71" height="2.9" rx="0.35"/><rect class="cls-14" x="112.01" y="19.99" width="3.71" height="2.9" rx="0.35"/><rect class="cls-14" x="112.01" y="24.03" width="3.71" height="2.9" rx="0.35"/><rect class="cls-14" x="112.01" y="28.01" width="3.71" height="2.9" rx="0.35"/><rect class="cls-14" x="112.01" y="32.02" width="3.71" height="2.9" rx="0.35"/><rect class="cls-13" x="112.01" y="36.08" width="3.71" height="2.9" rx="0.35"/><rect class="cls-14" x="112.01" y="40.28" width="3.71" height="2.9" rx="0.35"/><rect class="cls-14" x="112.01" y="44.21" width="3.71" height="2.9" rx="0.35"/><rect class="cls-12" x="116.78" width="3.71" height="2.9" rx="0.35"/><rect class="cls-16" x="116.78" y="3.97" width="3.71" height="2.9" rx="0.35"/><rect class="cls-17" x="116.78" y="8.07" width="3.71" height="2.9" rx="0.35"/><rect class="cls-14" x="116.78" y="12.16" width="3.71" height="2.9" rx="0.35"/><rect class="cls-14" x="116.78" y="16.07" width="3.71" height="2.9" rx="0.35"/><rect class="cls-14" x="116.78" y="19.99" width="3.71" height="2.9" rx="0.35"/><rect class="cls-14" x="116.78" y="24.03" width="3.71" height="2.9" rx="0.35"/><rect class="cls-14" x="116.78" y="28.01" width="3.71" height="2.9" rx="0.35"/><rect class="cls-14" x="116.78" y="32.02" width="3.71" height="2.9" rx="0.35"/><rect class="cls-13" x="116.78" y="36.08" width="3.71" height="2.9" rx="0.35"/><rect class="cls-14" x="116.78" y="40.28" width="3.71" height="2.9" rx="0.35"/><rect class="cls-14" x="116.78" y="44.21" width="3.71" height="2.9" rx="0.35"/><rect class="cls-14" x="116.78" y="48.15" width="3.71" height="2.9" rx="0.35"/><rect class="cls-14" x="116.78" y="52.07" width="3.71" height="2.9" rx="0.35"/><rect class="cls-14" x="116.78" y="56.11" width="3.71" height="2.9" rx="0.35"/><rect class="cls-14" x="116.78" y="60.09" width="3.71" height="2.9" rx="0.35"/><rect class="cls-14" x="116.78" y="64.1" width="3.71" height="2.9" rx="0.35"/><rect class="cls-14" x="116.78" y="68.16" width="3.71" height="2.9" rx="0.35"/><rect class="cls-13" x="116.78" y="72.36" width="3.71" height="2.9" rx="0.35"/><path class="cls-6" d="M117.35,49.45a.62.62,0,0,1,.63-.71.55.55,0,0,1,.59.55c0,.52-.56.57-.81.93h.83v.3h-1.28c0-.41.24-.57.55-.78.15-.11.36-.21.36-.43A.26.26,0,0,0,118,49h0c-.21,0-.28.22-.28.4Z"/><path class="cls-6" d="M119.88,49.07h-.72l-.07.39h0a.48.48,0,0,1,.34-.14.55.55,0,0,1,.54.6.63.63,0,0,1-.63.63h0a.59.59,0,0,1-.65-.56H119a.28.28,0,0,0,.28.27.33.33,0,0,0,.31-.33h0a.32.32,0,0,0-.28-.33h0a.3.3,0,0,0-.27.14h-.32l.18-1h1Z"/><path class="cls-6" d="M117.35,53.29a.61.61,0,0,1,.63-.7.54.54,0,0,1,.59.54c0,.53-.56.57-.81.93h.83v.3h-1.28c0-.4.24-.57.55-.78.15-.11.36-.21.36-.42a.25.25,0,0,0-.23-.27h0c-.21,0-.28.21-.28.4Z"/><path class="cls-6" d="M119.92,52.93a2.17,2.17,0,0,0-.57,1.44H119a2.56,2.56,0,0,1,.58-1.42h-.82v-.32h1.18Z"/><path class="cls-6" d="M117.82,65.42c.15,0,.37,0,.37-.21A.23.23,0,0,0,118,65h0c-.18,0-.27.14-.27.32h-.34a.58.58,0,0,1,.6-.61.55.55,0,0,1,.59.49.35.35,0,0,1-.25.36h0a.38.38,0,0,1,.31.39.6.6,0,0,1-.65.58.59.59,0,0,1-.64-.64h.33c0,.19.1.35.31.35a.27.27,0,0,0,.28-.26h0c0-.27-.23-.26-.4-.26Z"/><path class="cls-6" d="M119.21,65.42c.15,0,.37,0,.37-.21a.24.24,0,0,0-.23-.24h0c-.18,0-.27.14-.27.32h-.34a.59.59,0,0,1,.61-.61.54.54,0,0,1,.58.49.36.36,0,0,1-.24.36h0a.4.4,0,0,1,.31.39.65.65,0,0,1-1.3-.06H119c0,.19.1.35.3.35a.28.28,0,0,0,.29-.26h0c0-.27-.23-.26-.41-.26Z"/><path class="cls-6" d="M117.82,69.5c.15,0,.37,0,.37-.22a.23.23,0,0,0-.23-.23h0c-.18,0-.27.13-.27.31h-.34a.57.57,0,0,1,.6-.6.54.54,0,0,1,.59.48.35.35,0,0,1-.25.36h0a.39.39,0,0,1,.31.4.6.6,0,0,1-.65.57.58.58,0,0,1-.64-.63h.33c0,.19.1.34.31.34a.27.27,0,0,0,.28-.26h0c0-.26-.23-.26-.4-.26Z"/><path class="cls-6" d="M119.88,69.08h-.72l-.07.4h0a.43.43,0,0,1,.34-.13.54.54,0,0,1,.54.59.64.64,0,0,1-.64.63h0a.59.59,0,0,1-.65-.55H119a.28.28,0,0,0,.28.26.33.33,0,0,0,.31-.33h0a.3.3,0,0,0-.28-.32h0a.28.28,0,0,0-.27.14h-.31l.17-1h1Z"/><path class="cls-6" d="M117.35,57.41a.62.62,0,0,1,.63-.71.55.55,0,0,1,.59.54c0,.53-.56.57-.81.93h.83v.31h-1.28c0-.41.24-.58.55-.78.15-.11.36-.21.36-.43A.25.25,0,0,0,118,57h0c-.21,0-.28.22-.28.4Z"/><path class="cls-6" d="M119.06,58a.25.25,0,0,0,.23.22c.26,0,.32-.34.33-.53h0a.45.45,0,0,1-.39.2.62.62,0,0,1-.41-.18.61.61,0,0,1-.13-.39.6.6,0,0,1,.61-.64c.53,0,.67.46.67.9s-.19.91-.68.91a.53.53,0,0,1-.57-.48Zm.53-.71a.31.31,0,0,0-.27-.33h0a.29.29,0,0,0-.27.32c0,.16.08.33.27.33a.28.28,0,0,0,.28-.32Z"/><path class="cls-6" d="M117.82,61.48c.15,0,.37,0,.37-.22A.23.23,0,0,0,118,61h0c-.18,0-.27.13-.27.31h-.34a.57.57,0,0,1,.6-.6.54.54,0,0,1,.59.48.35.35,0,0,1-.25.36h0a.39.39,0,0,1,.31.4.59.59,0,0,1-.65.57.58.58,0,0,1-.64-.63h.33c0,.19.1.34.31.34a.26.26,0,0,0,.28-.25v0c0-.26-.23-.26-.4-.26Z"/><path class="cls-6" d="M119.61,62.52h-.35V61.39h-.44v-.27c.25,0,.47-.08.51-.35h.28Z"/><path class="cls-6" d="M117.82,73.7c.15,0,.37,0,.37-.21a.23.23,0,0,0-.23-.24h0c-.18,0-.27.14-.27.32h-.34a.57.57,0,0,1,.6-.61.54.54,0,0,1,.59.49.34.34,0,0,1-.25.35h0a.39.39,0,0,1,.31.4.59.59,0,0,1-.65.57.58.58,0,0,1-.64-.63h.33c0,.19.1.34.31.34a.26.26,0,0,0,.28-.25v0c0-.26-.23-.26-.4-.26Z"/><path class="cls-6" d="M119.92,73.3a2.19,2.19,0,0,0-.57,1.44H119a2.53,2.53,0,0,1,.58-1.41h-.82V73h1.18Z"/><rect class="cls-16" x="116.78" y="76.29" width="3.71" height="2.9" rx="0.35"/><rect class="cls-14" x="112.01" y="48.15" width="3.71" height="2.9" rx="0.35"/><path class="cls-6" d="M117.82,77.65c.15,0,.37,0,.37-.21a.23.23,0,0,0-.23-.24h0c-.18,0-.27.14-.27.32h-.34a.57.57,0,0,1,.6-.61.54.54,0,0,1,.59.49.34.34,0,0,1-.25.35h0a.38.38,0,0,1,.31.39.6.6,0,0,1-.65.57.58.58,0,0,1-.64-.63h.33c0,.19.1.35.31.35a.28.28,0,0,0,.28-.26h0c0-.27-.23-.26-.4-.26Z"/><path class="cls-6" d="M119.06,78.24a.25.25,0,0,0,.23.22c.26,0,.32-.34.33-.53h0a.45.45,0,0,1-.39.2.58.58,0,0,1-.41-.18.68.68,0,0,1-.13-.39.6.6,0,0,1,.61-.64c.53,0,.67.46.67.9s-.19.91-.68.91a.53.53,0,0,1-.57-.48Zm.53-.71a.3.3,0,0,0-.28-.33.29.29,0,0,0-.27.32c0,.16.08.33.27.33a.28.28,0,0,0,.28-.32Z"/><rect class="cls-14" x="112.01" y="52.07" width="3.71" height="2.9" rx="0.35"/><rect class="cls-14" x="112.01" y="56.11" width="3.71" height="2.9" rx="0.35"/><rect class="cls-14" x="112.01" y="60.09" width="3.71" height="2.9" rx="0.35"/><rect class="cls-14" x="112.01" y="64.1" width="3.71" height="2.9" rx="0.35"/><rect class="cls-14" x="112.01" y="68.16" width="3.71" height="2.9" rx="0.35"/><rect class="cls-18" x="112.01" y="72.36" width="3.71" height="2.9" rx="0.35"/><rect class="cls-16" x="112.01" y="76.29" width="3.71" height="2.9" rx="0.35"/><path class="cls-6" d="M113.27,1.45a.62.62,0,0,1,.63-.71.56.56,0,0,1,.6.54c0,.53-.56.57-.82.93h.83v.31h-1.28c0-.41.25-.58.55-.78s.36-.22.36-.43a.24.24,0,0,0-.23-.27h0c-.21,0-.27.22-.27.4Z"/><path class="cls-6" d="M112.58,49.45a.62.62,0,0,1,.63-.71.55.55,0,0,1,.59.55c0,.53-.56.57-.81.93h.82v.3h-1.28c0-.4.25-.57.55-.78s.37-.21.37-.42a.25.25,0,0,0-.23-.27h0c-.21,0-.28.21-.28.4Z"/><path class="cls-6" d="M114.83,49.22a.24.24,0,0,0-.23-.21c-.25,0-.33.34-.33.53h0a.44.44,0,0,1,.39-.19.58.58,0,0,1,.41.18.61.61,0,0,1,.13.39.6.6,0,0,1-.57.63h0c-.53,0-.67-.47-.67-.91s.19-.91.68-.91a.54.54,0,0,1,.57.49Zm-.53.72a.29.29,0,0,0,.27.32h0a.29.29,0,0,0,.27-.32c0-.16-.08-.32-.27-.32a.28.28,0,0,0-.28.32Z"/><path class="cls-6" d="M113.05,61.51c.15,0,.37,0,.37-.22a.23.23,0,0,0-.23-.23h0c-.18,0-.27.13-.27.31h-.34a.57.57,0,0,1,.6-.6.54.54,0,0,1,.59.48.35.35,0,0,1-.25.36h0a.39.39,0,0,1,.31.4.65.65,0,0,1-1.29-.06h.33c0,.19.11.34.31.34a.26.26,0,0,0,.28-.25v0c0-.26-.23-.25-.4-.25Z"/><path class="cls-6" d="M114,61.47a.62.62,0,0,1,.63-.7.55.55,0,0,1,.6.54c0,.53-.56.57-.81.93h.82v.3h-1.28c0-.4.25-.57.55-.77s.37-.22.37-.43a.25.25,0,0,0-.23-.27h0c-.21,0-.28.22-.28.4Z"/><path class="cls-6" d="M113.05,69.53c.15,0,.37,0,.37-.22a.23.23,0,0,0-.23-.23h0c-.18,0-.27.13-.27.31h-.34a.57.57,0,0,1,.6-.6.54.54,0,0,1,.59.48.35.35,0,0,1-.25.36h0a.39.39,0,0,1,.31.4.59.59,0,0,1-.64.57.58.58,0,0,1-.65-.63h.33c0,.19.11.34.31.34a.26.26,0,0,0,.28-.25v0c0-.26-.23-.26-.4-.26Z"/><path class="cls-6" d="M114.83,69.27a.25.25,0,0,0-.23-.22c-.25,0-.33.34-.33.53h0a.44.44,0,0,1,.39-.19.58.58,0,0,1,.41.18.65.65,0,0,1-.44,1h0c-.53,0-.67-.46-.67-.91s.19-.91.68-.91a.54.54,0,0,1,.57.49Zm-.53.72a.3.3,0,0,0,.27.32h0a.29.29,0,0,0,.27-.32c0-.16-.08-.33-.27-.33s-.28.15-.28.33Z"/><path class="cls-6" d="M113.05,73.73c.15,0,.37,0,.37-.21a.23.23,0,0,0-.23-.23s0,0,0,0c-.18,0-.27.13-.27.31h-.34a.58.58,0,0,1,.6-.61.55.55,0,0,1,.59.49.35.35,0,0,1-.25.36h0a.39.39,0,0,1,.31.4.59.59,0,0,1-.64.57.58.58,0,0,1-.65-.63h.33c0,.19.11.34.31.34a.26.26,0,0,0,.28-.25v0c0-.26-.23-.26-.4-.26Z"/><path class="cls-6" d="M114.56,73a.52.52,0,0,1,.59.47.38.38,0,0,1-.26.37h0a.41.41,0,0,1,.33.43.58.58,0,0,1-.65.54c-.33,0-.67-.17-.67-.54a.42.42,0,0,1,.33-.43h0a.35.35,0,0,1-.26-.36A.54.54,0,0,1,114.56,73Zm0,1.55a.3.3,0,0,0,.3-.28v0a.29.29,0,0,0-.28-.28h0a.28.28,0,0,0-.31.28.3.3,0,0,0,.29.3h0Zm0-.81a.23.23,0,0,0,.26-.23.24.24,0,0,0-.22-.25h0a.26.26,0,0,0-.27.22v0a.25.25,0,0,0,.27.23Z"/><path class="cls-6" d="M113.26,78.21h-.74v-.32l.76-1h.32v1h.23v.29h-.23v.4h-.34Zm0-.9h0l-.45.61h.46Z"/><path class="cls-6" d="M114.56,76.84c.35,0,.64.22.64.9s-.29.91-.64.91-.64-.22-.64-.91S114.21,76.84,114.56,76.84Zm0,1.52c.29,0,.29-.43.29-.62s0-.61-.29-.61-.29.42-.29.61S114.27,78.36,114.56,78.36Z"/><path class="cls-6" d="M112.58,53.29a.61.61,0,0,1,.63-.7.54.54,0,0,1,.59.54c0,.53-.56.57-.81.93h.82v.3h-1.28c0-.4.25-.57.55-.78s.37-.21.37-.42a.25.25,0,0,0-.23-.27h0c-.21,0-.28.21-.28.4Z"/><path class="cls-6" d="M114.56,52.59a.52.52,0,0,1,.59.47.38.38,0,0,1-.26.36h0a.41.41,0,0,1,.33.43.58.58,0,0,1-.65.54c-.33,0-.67-.16-.67-.54a.41.41,0,0,1,.33-.42h0a.35.35,0,0,1-.26-.36C114,52.75,114.28,52.59,114.56,52.59Zm0,1.54a.28.28,0,0,0,.3-.27v0a.28.28,0,0,0-.28-.28h0a.28.28,0,0,0-.31.28.29.29,0,0,0,.29.29h0Zm0-.81a.23.23,0,0,0,.26-.23.23.23,0,0,0-.22-.24h0a.25.25,0,0,0-.27.22v0a.26.26,0,0,0,.27.24Z"/><path class="cls-6" d="M113.05,57.48c.15,0,.37,0,.37-.22a.23.23,0,0,0-.23-.23h0c-.18,0-.27.13-.27.31h-.34a.57.57,0,0,1,.6-.6.54.54,0,0,1,.59.48.35.35,0,0,1-.25.36h0a.39.39,0,0,1,.31.4.59.59,0,0,1-.64.57.58.58,0,0,1-.65-.63h.33c0,.19.11.34.31.34a.26.26,0,0,0,.28-.25v0c0-.26-.23-.26-.4-.26Z"/><path class="cls-6" d="M114.56,56.73c.35,0,.64.22.64.9s-.29.92-.64.92-.64-.22-.64-.92S114.21,56.73,114.56,56.73Zm0,1.52c.29,0,.29-.42.29-.62s0-.61-.29-.61-.29.43-.29.61S114.27,58.25,114.56,58.25Z"/><path class="cls-6" d="M113.05,65.42c.15,0,.37,0,.37-.21a.23.23,0,0,0-.23-.24h0c-.18,0-.27.14-.27.32h-.34a.58.58,0,0,1,.6-.61.55.55,0,0,1,.59.49.35.35,0,0,1-.25.36h0a.38.38,0,0,1,.31.39.65.65,0,0,1-1.29-.06h.33c0,.19.11.35.31.35a.26.26,0,0,0,.28-.26h0c0-.27-.23-.26-.4-.26Z"/><path class="cls-6" d="M114.64,66.06h-.74v-.33l.76-1H115v1h.23v.29H115v.4h-.34Zm0-.9h0l-.45.61h.45Z"/><path class="cls-6" d="M118.92,2.41h-.35V1.28h-.44V1c.25,0,.47-.08.51-.34h.28Z"/><path class="cls-6" d="M118.51,5.35c.15,0,.37,0,.37-.22a.22.22,0,0,0-.22-.23h0c-.18,0-.27.13-.27.31H118a.57.57,0,0,1,.6-.6.54.54,0,0,1,.59.48.35.35,0,0,1-.25.36h0a.37.37,0,0,1,.31.39A.65.65,0,0,1,118,5.79h.33c0,.19.11.35.31.35a.27.27,0,0,0,.28-.26v0c0-.26-.23-.25-.4-.25Z"/><path class="cls-6" d="M119.19,9h-.72l-.07.4h0a.43.43,0,0,1,.35-.14.54.54,0,0,1,.54.59.64.64,0,0,1-.63.64h0A.59.59,0,0,1,118,10h.36a.27.27,0,0,0,.28.26.3.3,0,0,0,.3-.32h0a.3.3,0,0,0-.27-.33h0a.3.3,0,0,0-.27.14H118l.18-1h1Z"/><path class="cls-6" d="M118.36,17.92a.25.25,0,0,0,.24.21c.26,0,.32-.34.33-.53h0a.45.45,0,0,1-.4.19.57.57,0,0,1-.4-.18.61.61,0,0,1-.13-.39.6.6,0,0,1,.61-.64c.53,0,.67.47.67.91s-.19.91-.69.91a.53.53,0,0,1-.56-.49Zm.54-.72a.3.3,0,0,0-.27-.32h0a.29.29,0,0,0-.27.32c0,.16.08.33.27.33A.3.3,0,0,0,118.9,17.2Z"/><path class="cls-6" d="M118.23,22.34h-.36V21.21h-.43v-.27a.44.44,0,0,0,.51-.35h.28Z"/><path class="cls-6" d="M119.61,22.34h-.35V21.21h-.44v-.27c.25,0,.47-.08.51-.35h.28Z"/><path class="cls-6" d="M118.23,34.43h-.36V33.3h-.43V33c.24,0,.47-.08.51-.35h.28Z"/><path class="cls-6" d="M119.92,33a2.17,2.17,0,0,0-.57,1.44H119a2.59,2.59,0,0,1,.58-1.42h-.82V32.7h1.18Z"/><path class="cls-6" d="M118.23,38.49h-.36V37.36h-.43v-.27c.24,0,.47-.08.51-.34h.28Z"/><path class="cls-6" d="M119.06,38a.25.25,0,0,0,.23.22c.26,0,.32-.34.33-.53h0a.45.45,0,0,1-.39.2.58.58,0,0,1-.41-.18.61.61,0,0,1-.13-.39.6.6,0,0,1,.61-.64c.53,0,.67.46.67.9s-.19.92-.68.92a.55.55,0,0,1-.57-.49Zm.53-.71a.31.31,0,0,0-.27-.33h0a.29.29,0,0,0-.27.32c0,.16.08.33.27.33a.28.28,0,0,0,.28-.32Z"/><path class="cls-6" d="M117.35,41.57a.61.61,0,0,1,.63-.7.55.55,0,0,1,.59.54c0,.53-.56.57-.81.93h.83v.3h-1.28c0-.41.24-.57.55-.78.15-.11.36-.21.36-.43a.26.26,0,0,0-.23-.27h0c-.21,0-.28.22-.28.4Z"/><path class="cls-6" d="M119.61,42.64h-.35V41.51h-.44v-.27c.25,0,.47-.08.51-.34h.28Z"/><path class="cls-6" d="M117.35,45.56a.61.61,0,0,1,.63-.7.55.55,0,0,1,.59.54c0,.53-.56.57-.81.93h.83v.3h-1.28c0-.4.24-.57.55-.78.15-.1.36-.21.36-.42a.25.25,0,0,0-.23-.27h0c-.21,0-.28.21-.28.4Z"/><path class="cls-6" d="M119.21,45.6c.15,0,.37,0,.37-.22a.23.23,0,0,0-.23-.23h0c-.18,0-.27.13-.27.31h-.34a.58.58,0,0,1,.61-.6.54.54,0,0,1,.58.48.36.36,0,0,1-.24.36h0a.41.41,0,0,1,.31.4.6.6,0,0,1-.65.57.59.59,0,0,1-.65-.63H119a.3.3,0,0,0,.3.34.27.27,0,0,0,.29-.25v0c0-.26-.23-.26-.41-.26Z"/><path class="cls-6" d="M114,6.09h-.73V5.76l.75-1h.32v1h.23v.29h-.23v.41H114Zm0-.9h0l-.45.61H114Z"/><path class="cls-6" d="M113.46,22.44h-.35V21.31h-.44V21c.24,0,.47-.08.51-.34h.28Z"/><path class="cls-6" d="M114,21.37a.61.61,0,0,1,.63-.7.55.55,0,0,1,.6.54c0,.53-.56.57-.81.93h.82v.3h-1.28c0-.4.25-.57.55-.78s.37-.21.37-.42a.25.25,0,0,0-.23-.27h0c-.21,0-.28.21-.28.4Z"/><path class="cls-6" d="M113.46,30.52h-.35V29.39h-.44v-.27c.24,0,.47-.08.51-.34h.28Z"/><path class="cls-6" d="M114.83,29.23a.25.25,0,0,0-.23-.22c-.25,0-.33.34-.33.53h0a.45.45,0,0,1,.39-.2.62.62,0,0,1,.41.18.61.61,0,0,1,.13.39.61.61,0,0,1-.57.64h0c-.53,0-.67-.46-.67-.9s.19-.91.68-.91a.53.53,0,0,1,.57.48Zm-.53.71a.3.3,0,0,0,.27.33h0a.29.29,0,0,0,.27-.32c0-.16-.08-.33-.27-.33a.28.28,0,0,0-.28.32Z"/><path class="cls-6" d="M113.46,34.54h-.35V33.41h-.44v-.27c.24,0,.47-.07.51-.34h.28Z"/><path class="cls-6" d="M114.56,32.76a.52.52,0,0,1,.59.47.38.38,0,0,1-.26.37h0a.41.41,0,0,1,.33.43.58.58,0,0,1-.65.54c-.33,0-.67-.16-.67-.54a.43.43,0,0,1,.33-.43h0a.35.35,0,0,1-.26-.36A.54.54,0,0,1,114.56,32.76Zm0,1.55a.3.3,0,0,0,.3-.28v0a.29.29,0,0,0-.28-.28h0a.27.27,0,0,0-.31.27.3.3,0,0,0,.29.3h0Zm0-.81a.23.23,0,0,0,.26-.23.24.24,0,0,0-.22-.25h0a.24.24,0,0,0-.27.21v0a.25.25,0,0,0,.27.23Z"/><path class="cls-6" d="M112.58,41.68a.62.62,0,0,1,.63-.71.55.55,0,0,1,.59.55c0,.53-.56.57-.81.93h.82v.3h-1.28c0-.4.25-.57.55-.78s.37-.21.37-.42a.25.25,0,0,0-.23-.27h0c-.21,0-.28.21-.28.4Z"/><path class="cls-6" d="M114,41.68a.62.62,0,0,1,.63-.71.56.56,0,0,1,.6.55c0,.53-.56.57-.81.93h.82v.3h-1.28c0-.4.25-.57.55-.78s.37-.21.37-.42a.25.25,0,0,0-.23-.27h0c-.21,0-.28.21-.28.4Z"/><path class="cls-6" d="M114.14,9.29a.25.25,0,0,0-.23-.22c-.26,0-.33.34-.34.53h0a.45.45,0,0,1,.39-.2.58.58,0,0,1,.4.18.62.62,0,0,1,.14.39.61.61,0,0,1-.61.64c-.53,0-.67-.46-.67-.9s.19-.91.68-.91a.53.53,0,0,1,.57.48Zm-.53.71a.3.3,0,0,0,.27.33h0a.33.33,0,0,0,0-.65A.28.28,0,0,0,113.61,10Z"/><polygon class="cls-16" points="109.36 4.03 105.99 4.03 104.3 5.49 105.99 6.94 109.36 6.94 111.05 5.49 109.36 4.03"/><path class="cls-6" d="M106.91,6a.52.52,0,0,1-.43.21.76.76,0,0,1-.78-.82.77.77,0,0,1,.78-.83.62.62,0,0,1,.66.55h-.33a.33.33,0,0,0-.33-.27c-.32,0-.43.27-.43.54s.11.53.43.53a.33.33,0,0,0,.37-.3v0h-.34V5.34h.66V6.2H107Z"/><path class="cls-6" d="M107.45,4.61h.35l.66,1.07h0V4.61h.33V6.2h-.35l-.66-1.06h0V6.2h-.32Z"/><path class="cls-6" d="M109.09,4.61h.69a.7.7,0,0,1,.72.79.71.71,0,0,1-.72.8h-.69Zm.35,1.29h.32c.2,0,.39-.12.39-.47s-.11-.52-.46-.52h-.25Z"/><rect class="cls-16" x="109" y="76.29" width="2.47" height="2.9" rx="0.41"/><polygon class="cls-16" points="109.36 76.29 105.99 76.29 104.3 77.75 105.99 79.2 109.36 79.2 111.05 77.75 109.36 76.29"/><path class="cls-6" d="M106.91,78.27a.53.53,0,0,1-.43.22.76.76,0,0,1-.78-.82.77.77,0,0,1,.78-.84.63.63,0,0,1,.66.56h-.33a.32.32,0,0,0-.33-.26c-.32,0-.43.26-.43.54s.11.53.43.53a.34.34,0,0,0,.37-.3v0h-.34V77.6h.66v.85H107Z"/><path class="cls-6" d="M107.45,76.87h.35l.66,1.06h0V76.87h.33v1.58h-.35l-.66-1.06h0v1.06h-.32Z"/><path class="cls-6" d="M109.09,76.87h.69a.69.69,0,0,1,.72.78.71.71,0,0,1-.72.8h-.69Zm.35,1.29h.32c.2,0,.39-.12.39-.47s-.11-.53-.46-.53h-.25Z"/><rect class="cls-16" x="121.05" y="4.04" width="2.47" height="2.9" rx="0.41"/><polygon class="cls-16" points="123.18 4.04 126.55 4.04 128.24 5.49 126.55 6.94 123.18 6.94 121.49 5.49 123.18 4.04"/><path class="cls-6" d="M123.21,6a.55.55,0,0,1-.43.21.76.76,0,0,1-.78-.82.78.78,0,0,1,.78-.84.64.64,0,0,1,.67.56h-.34a.32.32,0,0,0-.33-.27c-.32,0-.43.27-.43.54s.11.53.43.53a.33.33,0,0,0,.37-.3s0,0,0,0h-.35V5.34h.67V6.2h-.23Z"/><path class="cls-6" d="M123.75,4.61h.35l.66,1.07h0V4.61h.33V6.2h-.35l-.66-1.06h0V6.2h-.32Z"/><path class="cls-6" d="M125.39,4.61h.69a.7.7,0,0,1,.72.79.71.71,0,0,1-.72.8h-.68Zm.35,1.29h.31c.21,0,.4-.12.4-.47s-.12-.52-.46-.52h-.25Z"/><rect class="cls-16" x="121.05" y="76.29" width="2.47" height="2.9" rx="0.41"/><polygon class="cls-16" points="123.18 76.29 126.55 76.29 128.24 77.75 126.55 79.2 123.18 79.2 121.49 77.75 123.18 76.29"/><path class="cls-6" d="M123.21,78.27a.53.53,0,0,1-.43.22.83.83,0,0,1,0-1.66.64.64,0,0,1,.67.56h-.34a.33.33,0,0,0-.33-.27c-.32,0-.43.27-.43.55s.11.53.43.53a.34.34,0,0,0,.37-.31v0h-.35v-.26h.67v.86h-.23Z"/><path class="cls-6" d="M123.75,76.87h.35l.66,1.06h0V76.87h.33v1.58h-.35l-.66-1.06h0v1.06h-.32Z"/><path class="cls-6" d="M125.39,76.87h.69a.69.69,0,0,1,.72.78c0,.46-.23.8-.72.8h-.68Zm.35,1.29h.31c.21,0,.4-.12.4-.47s-.12-.53-.46-.53h-.25Z"/><path class="cls-6" d="M113.87,12.79a.52.52,0,0,1,.58.47.36.36,0,0,1-.25.37h0a.41.41,0,0,1,.33.42.59.59,0,0,1-.66.55c-.32,0-.66-.17-.66-.54a.41.41,0,0,1,.33-.43h0a.35.35,0,0,1-.26-.36A.53.53,0,0,1,113.87,12.79Zm0,1.55a.29.29,0,0,0,.3-.27v0a.27.27,0,0,0-.28-.27h0a.27.27,0,0,0-.31.27.29.29,0,0,0,.29.3Zm0-.81a.23.23,0,0,0,.26-.23.24.24,0,0,0-.22-.25h0a.24.24,0,0,0-.27.21v0c0,.15.12.23.27.23Z"/><path class="cls-6" d="M113.46,18.47h-.35V17.34h-.44v-.27c.24,0,.47-.08.51-.34h.28Z"/><path class="cls-6" d="M114.56,16.69c.35,0,.64.22.64.91s-.29.91-.64.91-.64-.22-.64-.91S114.21,16.69,114.56,16.69Zm0,1.52c.29,0,.29-.42.29-.62s0-.6-.29-.6-.29.42-.29.6S114.27,18.21,114.56,18.21Z"/><path class="cls-6" d="M113.46,26.54h-.35V25.41h-.44v-.27a.44.44,0,0,0,.51-.35h.28Z"/><path class="cls-6" d="M114.64,26.13h-.74v-.32l.76-1H115v1.05h.23v.29H115v.41h-.34Zm0-.89h0l-.45.6h.45Z"/><path class="cls-6" d="M112.58,37.52a.61.61,0,0,1,.63-.7.54.54,0,0,1,.59.54c0,.53-.56.57-.81.93h.82v.3h-1.28c0-.4.25-.57.55-.78s.37-.21.37-.42a.25.25,0,0,0-.23-.27h0c-.21,0-.28.21-.28.4Z"/><path class="cls-6" d="M114.56,36.82c.35,0,.64.22.64.9s-.29.92-.64.92-.64-.22-.64-.92S114.21,36.82,114.56,36.82Zm0,1.52c.29,0,.29-.42.29-.62s0-.61-.29-.61-.29.43-.29.61,0,.62.29.62Z"/><path class="cls-6" d="M112.58,45.65a.61.61,0,0,1,.63-.7.54.54,0,0,1,.59.54c0,.53-.56.57-.81.93h.82v.3h-1.28c0-.4.25-.57.55-.78s.37-.21.37-.42a.25.25,0,0,0-.23-.27h0c-.21,0-.28.22-.28.4Z"/><path class="cls-6" d="M114.64,46.32h-.74V46l.76-1H115V46h.23v.29H115v.41h-.34Zm0-.89h0l-.45.6h.45Z"/><path class="cls-6" d="M119.23,13a2.21,2.21,0,0,0-.57,1.44h-.38a2.54,2.54,0,0,1,.59-1.41H118v-.33h1.19Z"/><path class="cls-6" d="M118.23,26.43h-.36V25.3h-.43V25a.44.44,0,0,0,.51-.35h.28Z"/><path class="cls-6" d="M119.21,25.39c.15,0,.37,0,.37-.22a.23.23,0,0,0-.23-.23h0c-.18,0-.27.13-.27.31h-.34a.58.58,0,0,1,.61-.6.54.54,0,0,1,.58.48.35.35,0,0,1-.24.36h0a.39.39,0,0,1,.31.39.65.65,0,0,1-1.3-.06H119c0,.19.1.35.3.35a.28.28,0,0,0,.29-.26h0c0-.27-.23-.26-.41-.26Z"/><path class="cls-6" d="M118.23,30.42h-.36V29.29h-.43V29a.44.44,0,0,0,.51-.35h.28Z"/><path class="cls-6" d="M119.88,29h-.72l-.07.4h0a.41.41,0,0,1,.34-.14.54.54,0,0,1,.54.59.64.64,0,0,1-.64.63h0a.59.59,0,0,1-.65-.55H119a.28.28,0,0,0,.28.26.32.32,0,0,0,.31-.33h0a.3.3,0,0,0-.28-.32h0a.28.28,0,0,0-.27.14h-.31l.17-1h1Z"/><polygon class="cls-17" points="121.5 9.52 122.96 10.98 125.88 10.98 127.34 9.52 125.88 8.07 122.96 8.07 121.5 9.52"/><path class="cls-17" d="M121,8.07h4.32a.43.43,0,0,1,.43.43v2.06a.43.43,0,0,1-.43.43H121a0,0,0,0,1,0,0V8.07A0,0,0,0,1,121,8.07Z" transform="translate(246.82 19.05) rotate(-180)"/><path class="cls-6" d="M122.45,9.32c.14,0,.33,0,.33-.19a.2.2,0,0,0-.2-.21h0c-.16,0-.24.12-.24.28H122a.52.52,0,0,1,.54-.54.47.47,0,0,1,.52.43.3.3,0,0,1-.22.31h0a.35.35,0,0,1,.27.36A.58.58,0,0,1,122,9.7h.3c0,.17.09.31.27.31a.25.25,0,0,0,.25-.23v0c0-.23-.2-.23-.36-.23Z"/><path class="cls-6" d="M123.93,10.24h-.35l-.39-1.14h.33l.24.78h0L124,9.1h.31Z"/><path class="cls-6" d="M124.84,9.32c.13,0,.33,0,.33-.19a.21.21,0,0,0-.21-.21h0a.24.24,0,0,0-.24.28h-.3a.51.51,0,0,1,.54-.54.47.47,0,0,1,.52.43.3.3,0,0,1-.22.31h0a.35.35,0,0,1,.27.36.58.58,0,0,1-1.15-.06h.3c0,.17.09.31.27.31a.24.24,0,0,0,.25-.23v0c0-.23-.2-.23-.36-.23Z"/><path class="cls-13" d="M111.2,72.35a.27.27,0,0,1,.27.28V75a.28.28,0,0,1-.28.28h-3.5l-1.9-1.45,1.9-1.45h3.51Z"/><polygon class="cls-13" points="110.34 73.8 108.88 72.35 105.96 72.35 104.5 73.8 105.96 75.25 108.88 75.25 110.34 73.8"/><path class="cls-6" d="M107.11,73.06h1.19v.3h-.84v.34h.77V74h-.77v.39h.86v.29h-1.21Z"/><path class="cls-6" d="M108.56,73.06h.34l.67,1.07h0V73.06h.33v1.59h-.35l-.66-1.06h0v1.06h-.32Z"/><path class="cls-18" d="M121.28,36.07h9.19a.28.28,0,0,1,.25.3v2.32a.28.28,0,0,1-.25.3h-9.19a.28.28,0,0,1-.25-.3V36.37A.28.28,0,0,1,121.28,36.07Z"/><polygon class="cls-18" points="132.33 36.08 129.39 36.08 127.93 37.53 129.39 38.99 132.33 38.99 133.79 37.53 132.33 36.08"/><path class="cls-6" d="M122,36.68h.35v1.59H122Z"/><path class="cls-6" d="M122.55,37.31a.55.55,0,0,1,.57-.63.49.49,0,0,1,.53.48c0,.48-.5.51-.73.83h.74v.28h-1.15c0-.37.23-.52.5-.7s.32-.19.32-.38a.22.22,0,0,0-.23-.24c-.19,0-.25.19-.25.36Z"/><path class="cls-6" d="M124.92,37.21a.35.35,0,0,0-.35-.28c-.31,0-.43.27-.43.55s.12.53.43.53a.34.34,0,0,0,.36-.35h.34a.67.67,0,0,1-.7.65.84.84,0,0,1,0-1.67.64.64,0,0,1,.69.57Z"/><path class="cls-6" d="M126.23,38.27h-.32v-1h-.39V37c.22,0,.42-.07.46-.31h.25v1.56Z"/><path class="cls-6" d="M126.6,38.43h1.11v.11H126.6Z"/><path class="cls-6" d="M128.1,37.74c0,.21.17.29.35.29s.31,0,.31-.2-.24-.19-.47-.26-.47-.16-.47-.45.3-.48.59-.48.64.14.64.51h-.34c0-.19-.15-.24-.31-.24s-.24.05-.24.18.07.14.47.24c.12,0,.47.11.47.46s-.22.51-.66.51-.68-.17-.68-.56Z"/><path class="cls-6" d="M129.31,36.68H130a.7.7,0,0,1,.73.78.72.72,0,0,1-.73.81h-.68Zm.35,1.29H130c.2,0,.39-.12.39-.47s-.11-.53-.45-.53h-.25v1Z"/><path class="cls-6" d="M131.39,36.68h.36l.6,1.59H132l-.12-.36h-.59l-.13.36h-.35Zm0,1h.41l-.2-.58h0Z"/><rect class="cls-18" x="100.32" y="36.08" width="11.16" height="2.92" rx="0.3"/><polygon class="cls-18" points="98.95 37.54 100.41 39 103.35 39 104.81 37.54 103.35 36.08 100.41 36.08 98.95 37.54"/><path class="cls-6" d="M100.41,36.68h.35v1.59h-.35Z"/><path class="cls-6" d="M101,37.31a.56.56,0,0,1,.56-.63.5.5,0,0,1,.54.49c0,.47-.5.51-.73.83h.74v.27H101c0-.36.22-.51.49-.69s.33-.19.33-.38a.22.22,0,0,0-.23-.24c-.19,0-.25.19-.25.35Z"/><path class="cls-6" d="M103.37,37.22a.36.36,0,0,0-.35-.28c-.31,0-.43.27-.43.55s.11.53.43.53a.36.36,0,0,0,.36-.36h.34a.67.67,0,0,1-.7.65.83.83,0,0,1,0-1.66.63.63,0,0,1,.68.57Z"/><path class="cls-6" d="M104.68,38.27h-.32v-1H104V37c.22,0,.42-.07.45-.3h.26v1.55Z"/><path class="cls-6" d="M105,38.44h1.12v.11H105Z"/><path class="cls-6" d="M106.55,37.75c0,.21.16.29.35.29s.31,0,.31-.2-.24-.2-.47-.26-.48-.16-.48-.45.31-.48.6-.48.63.14.63.51h-.33c0-.19-.15-.24-.32-.24s-.24,0-.24.18.08.14.48.24c.11,0,.47.1.47.46s-.23.51-.66.51-.69-.17-.68-.56Z"/><path class="cls-6" d="M108.81,37.22a.34.34,0,0,0-.34-.28c-.32,0-.44.27-.44.55s.12.53.44.53a.36.36,0,0,0,.36-.36h.34a.67.67,0,0,1-.7.65.83.83,0,0,1,0-1.66.64.64,0,0,1,.68.57Z"/><path class="cls-6" d="M109.4,36.68h.35V38h.78v.29H109.4Z"/></g></g></g></svg>