<svg xmlns="http://www.w3.org/2000/svg" viewBox="0 0 459.87 445.16"><defs><style>.cls-1,.cls-2,.cls-3{fill:none;stroke-linejoin:round;}.cls-1{stroke:#000;stroke-width:0.71px;}.cls-2{stroke:#ed1c24;stroke-width:0.5px;}.cls-3{stroke:#333;stroke-width:2px;}</style></defs><g id="_3_ALL_AXES" data-name="3_ALL_AXES"><path class="cls-1" d="M347.36,236.63a3.55,3.55,0,1,1-3.54,3.54A3.54,3.54,0,0,1,347.36,236.63Z"/><path class="cls-1" d="M347.36,215.51a3.4,3.4,0,1,1-3.4,3.4A3.4,3.4,0,0,1,347.36,215.51Z"/><path class="cls-1" d="M347.36,314.72a3.4,3.4,0,1,1-3.4,3.4A3.4,3.4,0,0,1,347.36,314.72Z"/><path class="cls-1" d="M341.69,108.51a3.4,3.4,0,1,1-3.4,3.4A3.4,3.4,0,0,1,341.69,108.51Z"/><path class="cls-1" d="M341.69,421.72a3.4,3.4,0,1,1-3.4,3.4A3.4,3.4,0,0,1,341.69,421.72Z"/><path class="cls-1" d="M256,427.39a3.4,3.4,0,1,1-3.4,3.4A3.4,3.4,0,0,1,256,427.39Z"/><path class="cls-1" d="M234.69,102.84a3.41,3.41,0,1,1-3.4,3.4A3.4,3.4,0,0,1,234.69,102.84Z"/><path class="cls-1" d="M142.57,427.39a3.4,3.4,0,1,1-3.4,3.4A3.4,3.4,0,0,1,142.57,427.39Z"/><path class="cls-1" d="M135.49,102.84a3.41,3.41,0,1,1-3.41,3.4A3.41,3.41,0,0,1,135.49,102.84Z"/><path class="cls-1" d="M95.63,98.28v.17H91.1l1.35,0C93.51,98.38,94.57,98.34,95.63,98.28Z"/><rect class="cls-1" x="76.32" y="92.21" width="19.13" height="1.42"/><path class="cls-1" d="M91.1,98.45H76.64c1.41-.07,2.82-.11,4.23-.15l5.49-.15L91.72,98c1.31,0,2.61-.08,3.91-.15v.42c-1.06.06-2.12.1-3.18.13Z"/><path class="cls-1" d="M88.8,96.67l-8.55.23c-1.37,0-2.75.09-4.12.16v-.43c1,0,1.93-.08,2.89-.11L83,96.4l8.56-.23c1.37,0,2.74-.08,4.11-.15v.42c-1,0-1.92.09-2.89.12Z"/><path class="cls-1" d="M76.13,97.72v-.66c1.37-.07,2.75-.12,4.12-.16l8.55-.23,3.94-.11c1,0,1.93-.07,2.89-.12v.48h0c-.32,0-.65.06-1,.08L93,97.08l-2.26.09L88,97.25h-.22L84,97.37h-.23l-2.66.09-2.27.08-1.69.08C76.78,97.65,76.45,97.67,76.13,97.72Z"/><path class="cls-1" d="M77,91.51H94.74a.72.72,0,0,1,.5.2.75.75,0,0,1,.21.5H76.32a.68.68,0,0,1,.7-.7Z"/><path class="cls-1" d="M76.13,98.45h262a17,17,0,0,1,17,17V421.58a17,17,0,0,1-17,17H32a17,17,0,0,1-17-17V115.46a17,17,0,0,1,17-17ZM350.9,240.17a3.54,3.54,0,1,0-3.54,3.55A3.54,3.54,0,0,0,350.9,240.17Zm-.14-21.26a3.4,3.4,0,1,0-3.4,3.4A3.4,3.4,0,0,0,350.76,218.91Zm0,99.21a3.4,3.4,0,1,0-3.4,3.4A3.4,3.4,0,0,0,350.76,318.12Zm-5.67-206.21a3.4,3.4,0,1,0-3.4,3.4A3.4,3.4,0,0,0,345.09,111.91Zm0,313.21a3.4,3.4,0,1,0-3.4,3.4A3.4,3.4,0,0,0,345.09,425.12Zm-4.39-15.59v-282a14.6,14.6,0,0,0-14.6-14.59h-282a14.59,14.59,0,0,0-14.6,14.59v282a14.6,14.6,0,0,0,14.6,14.6h282A14.6,14.6,0,0,0,340.7,409.53Zm-81.35,21.26a3.4,3.4,0,1,0-3.4,3.4A3.4,3.4,0,0,0,259.35,430.79ZM238.09,106.24a3.4,3.4,0,1,0-3.4,3.41A3.4,3.4,0,0,0,238.09,106.24ZM146,430.79a3.4,3.4,0,1,0-3.4,3.4A3.4,3.4,0,0,0,146,430.79Zm-7.08-324.55a3.41,3.41,0,1,0-3.4,3.41A3.41,3.41,0,0,0,138.89,106.24Zm-107,5.67a3.41,3.41,0,1,0-3.4,3.4A3.41,3.41,0,0,0,31.89,111.91Zm0,313.21a3.41,3.41,0,1,0-3.4,3.4A3.4,3.4,0,0,0,31.89,425.12Zm-5.53-156.6a3.55,3.55,0,1,0-3.54,3.54A3.55,3.55,0,0,0,26.36,268.52Zm-.14-49.61a3.4,3.4,0,1,0-3.4,3.4A3.4,3.4,0,0,0,26.22,218.91Zm0,99.21a3.4,3.4,0,1,0-3.4,3.4A3.4,3.4,0,0,0,26.22,318.12Z"/><path class="cls-1" d="M76.13,95.88v-.64c1.43,0,2.85-.08,4.27-.11L86.2,95l5.64-.11c1.27,0,2.53,0,3.79-.11v.27h0a3.87,3.87,0,0,1-.49.05l-.76,0c-.74,0-1.49.08-2.23.1l-3,.1-3.33.1-3.33.1-3,.1-2.21.1-.75.06A3.87,3.87,0,0,0,76.13,95.88Z"/><path class="cls-1" d="M76.13,93.82l.19-.19H95.45l.18.19v1c-1.26.06-2.52.08-3.79.11L86.2,95l-5.8.11c-1.42,0-2.84.06-4.27.11v-.77c.83-.11,1.67-.17,2.5-.22L82.35,94H76.13Z"/><path class="cls-1" d="M76.13,94.32V94h6.22l-3.72.23c-.83,0-1.67.11-2.5.22Z"/><path class="cls-1" d="M76.64,98.45h-.51V98h0a8.26,8.26,0,0,1,1-.08l1.69-.09,2.27-.08,2.65-.09H84l3.87-.12h.23l2.66-.09L93,97.37l1.69-.09c.32,0,.64,0,1-.08v.66c-1.3.07-2.6.11-3.91.15l-5.36.14-5.49.15C79.46,98.34,78.05,98.38,76.64,98.45Z"/><path class="cls-1" d="M76.13,96.63v-.47h0a4.23,4.23,0,0,1,.5,0l.76,0c.74,0,1.48-.08,2.23-.1l3-.1,3.33-.1,3.33-.1,2.94-.1,2.22-.1.75,0,.48,0V96c-1.37.07-2.74.11-4.11.15L83,96.4,79,96.52C78.06,96.55,77.1,96.58,76.13,96.63Z"/><path class="cls-1" d="M76.13,96.16v-.28a3.87,3.87,0,0,1,.49,0l.75-.06,2.21-.1,3-.1,3.33-.1,3.33-.1,3-.1c.74,0,1.49,0,2.23-.1l.76,0a3.87,3.87,0,0,0,.49-.05h0v.29l-.48,0-.75,0-2.22.1-2.94.1-3.33.1-3.33.1-3,.1c-.75,0-1.49.05-2.23.1l-.76,0a4.23,4.23,0,0,0-.5,0Z"/><path class="cls-1" d="M76.13,98v-.28c.32,0,.65-.07,1-.09l1.69-.08,2.27-.08,2.66-.09H84l3.87-.11H88l2.66-.08L93,97.08,94.65,97c.32,0,.65,0,1-.08h0v.28c-.32,0-.64.06-1,.08L93,97.37l-2.27.08-2.66.09h-.23L84,97.66h-.22l-2.65.09-2.27.08-1.69.09a8.26,8.26,0,0,0-1,.08Z"/><path class="cls-1" d="M28.49,108.51a3.4,3.4,0,1,1-3.41,3.4A3.41,3.41,0,0,1,28.49,108.51Z"/><path class="cls-1" d="M28.49,421.72a3.4,3.4,0,1,1-3.41,3.4A3.4,3.4,0,0,1,28.49,421.72Z"/><path class="cls-1" d="M22.82,265a3.55,3.55,0,1,1-3.55,3.55A3.55,3.55,0,0,1,22.82,265Z"/><path class="cls-1" d="M22.82,215.51a3.4,3.4,0,1,1-3.4,3.4A3.4,3.4,0,0,1,22.82,215.51Z"/><path class="cls-1" d="M22.82,314.72a3.4,3.4,0,1,1-3.4,3.4A3.4,3.4,0,0,1,22.82,314.72Z"/><line class="cls-2" x1="335.75" y1="98.45" x2="438.59" y2="98.45"/><line class="cls-2" x1="335.75" y1="438.58" x2="438.59" y2="438.58"/><line class="cls-2" x1="326.1" y1="424.13" x2="386.53" y2="424.13"/><line class="cls-2" x1="326.1" y1="112.91" x2="386.53" y2="112.91"/><line class="cls-3" x1="376.16" y1="112.91" x2="376.16" y2="424.13"/><line class="cls-3" x1="428.01" y1="98.45" x2="428.01" y2="438.58"/><path d="M386.25,286.4a2.48,2.48,0,0,1-2.83-2.58,2.28,2.28,0,0,1,2.3-2.51c1.42,0,2.12.95,2.75,1.94s1.13,2.07,2.12,2.25v-4.11h.84v5.23a3.79,3.79,0,0,1-3.28-2.25c-.84-1.35-1.32-2-2.44-2a1.45,1.45,0,0,0-1.44,1.54c0,1.12,1,1.6,2,1.57Z"/><path d="M383.42,277.46c0-2.51,2.31-2.66,4.08-2.66s4.07.15,4.07,2.66-2.31,2.67-4.07,2.67S383.42,280,383.42,277.46Zm7.3,0c0-1.63-2-1.65-3.23-1.65s-3.22,0-3.22,1.65,2,1.66,3.22,1.66S390.72,279.1,390.72,277.46Z"/><path d="M384.4,269v3.23l2.31.43,0,0a2,2,0,0,1-.58-1.49,2.49,2.49,0,0,1,2.75-2.59,2.62,2.62,0,0,1,2.67,2.8,2.36,2.36,0,0,1-2.3,2.56v-1a1.59,1.59,0,0,0,1.45-1.69,1.69,1.69,0,0,0-1.9-1.7,1.74,1.74,0,0,0-1.82,1.81,1.93,1.93,0,0,0,.76,1.5l-.05.82-4.16-.74v-4Z"/><path d="M385.59,267.31v-.9h.86v0a2.13,2.13,0,0,1-1-1.89,1.53,1.53,0,0,1,1-1.61,2.1,2.1,0,0,1-1-1.83c0-1.17.49-1.94,1.7-1.94h4.28v1H387.6c-.72,0-1.3.19-1.3,1.13a1.4,1.4,0,0,0,1.49,1.52h3.64v1H387.6c-.76,0-1.3.24-1.3,1.1a1.58,1.58,0,0,0,1.49,1.56h3.64v1Z"/><path d="M385.59,257.67v-.91h.86v0a2.11,2.11,0,0,1-1-1.89,1.52,1.52,0,0,1,1-1.6,2.12,2.12,0,0,1-1-1.83c0-1.17.49-1.95,1.7-1.95h4.28v1H387.6c-.72,0-1.3.19-1.3,1.13a1.41,1.41,0,0,0,1.49,1.53h3.64v1H387.6c-.76,0-1.3.24-1.3,1.1a1.58,1.58,0,0,0,1.49,1.56h3.64v1Z"/><path d="M437.25,286.4a2.49,2.49,0,0,1-2.84-2.58,2.29,2.29,0,0,1,2.31-2.51c1.41,0,2.11.95,2.75,1.94s1.13,2.07,2.11,2.25v-4.11h.85v5.23a3.77,3.77,0,0,1-3.28-2.25c-.85-1.35-1.32-2-2.44-2a1.46,1.46,0,0,0-1.45,1.54c0,1.12,1,1.6,2,1.57Z"/><path d="M439.7,275.87v-1.09h.85v1.09h1.88v.9h-1.88v3.52h-.92l-5.22-3.65v-.77Zm0,.9h-3.92v0l3.92,2.67Z"/><path d="M434.41,271.18c0-2.51,2.32-2.67,4.09-2.67s4.07.16,4.07,2.67-2.31,2.67-4.07,2.67S434.41,273.69,434.41,271.18Zm7.31,0c0-1.64-2-1.65-3.24-1.65s-3.22,0-3.22,1.65,2,1.65,3.22,1.65S441.72,272.82,441.72,271.18Z"/><path d="M436.58,267.31v-.9h.86v0a2.15,2.15,0,0,1-1-1.89,1.53,1.53,0,0,1,1-1.61,2.11,2.11,0,0,1-1-1.83c0-1.17.48-1.94,1.69-1.94h4.29v1H438.6c-.73,0-1.3.19-1.3,1.13a1.4,1.4,0,0,0,1.49,1.52h3.64v1H438.6c-.76,0-1.3.24-1.3,1.1a1.58,1.58,0,0,0,1.49,1.56h3.64v1Z"/><path d="M436.58,257.67v-.91h.86v0a2.13,2.13,0,0,1-1-1.89,1.53,1.53,0,0,1,1-1.6,2.14,2.14,0,0,1-1-1.83c0-1.17.48-1.95,1.69-1.95h4.29v1H438.6c-.73,0-1.3.19-1.3,1.13a1.41,1.41,0,0,0,1.49,1.53h3.64v1H438.6c-.76,0-1.3.24-1.3,1.1a1.58,1.58,0,0,0,1.49,1.56h3.64v1Z"/><line class="cls-2" x1="15.03" y1="115.67" x2="15.03" y2="12.84"/><line class="cls-2" x1="355.16" y1="115.67" x2="355.16" y2="12.84"/><line class="cls-2" x1="340.71" y1="125.32" x2="340.71" y2="64.89"/><line class="cls-2" x1="29.49" y1="125.32" x2="29.49" y2="64.89"/><line class="cls-3" x1="29.49" y1="75.26" x2="340.71" y2="75.26"/><line class="cls-3" x1="15.03" y1="23.42" x2="355.16" y2="23.42"/><path d="M166.82,11.09a2.48,2.48,0,0,1,2.58-2.84,2.28,2.28,0,0,1,2.51,2.31c0,1.41-.95,2.11-1.95,2.74s-2.07,1.13-2.25,2.12h4.12v.85h-5.24A3.79,3.79,0,0,1,168.84,13c1.36-.85,2-1.33,2-2.45a1.45,1.45,0,0,0-1.55-1.44c-1.12,0-1.59,1-1.56,2Z"/><path d="M177.34,13.54h1.09v.85h-1.09v1.88h-.9V14.39h-3.52v-.93l3.66-5.21h.76Zm-.9,0V9.62h0l-2.67,3.92Z"/><path d="M182,8.25c2.51,0,2.66,2.32,2.66,4.08s-.15,4.07-2.66,4.07-2.67-2.3-2.67-4.07S179.53,8.25,182,8.25Zm0,7.3c1.64,0,1.65-2,1.65-3.23s0-3.22-1.65-3.22-1.65,2-1.65,3.22S180.4,15.55,182,15.55Z"/><path d="M185.9,10.42h.91v.86h0a2.11,2.11,0,0,1,1.89-1,1.53,1.53,0,0,1,1.6,1,2.15,2.15,0,0,1,1.84-1c1.16,0,1.94.49,1.94,1.7v4.29h-1V12.43c0-.72-.19-1.3-1.13-1.3a1.42,1.42,0,0,0-1.53,1.5v3.64h-1V12.43c0-.75-.24-1.3-1.1-1.3a1.58,1.58,0,0,0-1.56,1.5v3.64h-1Z"/><path d="M195.55,10.42h.9v.86h0a2.12,2.12,0,0,1,1.89-1,1.54,1.54,0,0,1,1.61,1,2.12,2.12,0,0,1,1.83-1c1.16,0,1.94.49,1.94,1.7v4.29h-1V12.43c0-.72-.19-1.3-1.13-1.3a1.41,1.41,0,0,0-1.52,1.5v3.64h-1V12.43c0-.75-.23-1.3-1.09-1.3a1.58,1.58,0,0,0-1.56,1.5v3.64h-1Z"/><path d="M166.82,62.08a2.48,2.48,0,0,1,2.58-2.83,2.28,2.28,0,0,1,2.51,2.3c0,1.42-.95,2.12-1.95,2.75s-2.07,1.13-2.25,2.11h4.12v.85h-5.24A3.79,3.79,0,0,1,168.84,64c1.36-.84,2-1.32,2-2.44a1.46,1.46,0,0,0-1.55-1.45c-1.12,0-1.59,1-1.56,2Z"/><path d="M175.75,59.25c2.51,0,2.67,2.31,2.67,4.08s-.16,4.07-2.67,4.07-2.67-2.31-2.67-4.07S173.24,59.25,175.75,59.25Zm0,7.3c1.64,0,1.65-2,1.65-3.23s0-3.23-1.65-3.23-1.65,2-1.65,3.23S174.11,66.55,175.75,66.55Z"/><path d="M184.21,60.23H181l-.43,2.31,0,0a2,2,0,0,1,1.49-.58,2.5,2.5,0,0,1,2.59,2.75,2.62,2.62,0,0,1-2.81,2.67,2.35,2.35,0,0,1-2.55-2.3h1a1.58,1.58,0,0,0,1.68,1.45,1.69,1.69,0,0,0,1.7-1.9,1.73,1.73,0,0,0-1.81-1.82,1.91,1.91,0,0,0-1.49.76l-.83-.05.75-4.16h4Z"/><path d="M185.9,61.42h.91v.86h0a2.11,2.11,0,0,1,1.89-1,1.52,1.52,0,0,1,1.6,1,2.13,2.13,0,0,1,1.84-1c1.16,0,1.94.49,1.94,1.7v4.28h-1V63.43c0-.72-.19-1.3-1.13-1.3a1.41,1.41,0,0,0-1.53,1.49v3.64h-1V63.43c0-.76-.24-1.3-1.1-1.3a1.58,1.58,0,0,0-1.56,1.49v3.64h-1Z"/><path d="M195.55,61.42h.9v.86h0a2.12,2.12,0,0,1,1.89-1,1.53,1.53,0,0,1,1.61,1,2.1,2.1,0,0,1,1.83-1c1.16,0,1.94.49,1.94,1.7v4.28h-1V63.43c0-.72-.19-1.3-1.13-1.3a1.4,1.4,0,0,0-1.52,1.49v3.64h-1V63.43c0-.76-.23-1.3-1.09-1.3a1.58,1.58,0,0,0-1.56,1.49v3.64h-1Z"/></g></svg>