<svg xmlns="http://www.w3.org/2000/svg" viewBox="0 0 704.9 368.13"><defs><style>.cls-1{fill:#b3b3b3;}.cls-2,.cls-22,.cls-23{fill:#454242;}.cls-13,.cls-2,.cls-20,.cls-24,.cls-6{opacity:0.5;}.cls-3{fill:#afafaf;}.cls-4{fill:#848484;}.cls-5,.cls-6{fill:none;}.cls-5{stroke:#707274;}.cls-20,.cls-5,.cls-6{stroke-miterlimit:10;}.cls-6{stroke:#454242;}.cls-15,.cls-7{fill:#cecece;}.cls-8{fill:#fff;}.cls-9{fill:#979b9c;}.cls-10{fill:#707274;}.cls-11{fill:#999;}.cls-12{fill:#e1e0dd;}.cls-13{fill:#363635;}.cls-14{fill:#898a8a;}.cls-15,.cls-21{opacity:0.2;}.cls-16{fill:#ecc299;}.cls-17{fill:#3a3a3a;}.cls-18{fill:#deaa53;}.cls-19{fill:#d89535;}.cls-20,.cls-24{fill:#616368;}.cls-20{stroke:#686868;}.cls-23{opacity:0.3;}.cls-25{fill:#5d5b5a;}.cls-26{fill:#534f4f;}</style></defs><g id="Layer_3" data-name="Layer 3"><path class="cls-1" d="M683,143,430,54.29l-188,128.89,2.17,17.6s-15-8.59-17.27-8.59-9.49,2.52-9.49,2.52l3.19,9.1,25.15,9.74.12.9,1.41,32.13s-.83,4.65,7.49,7l175.94,75.1L492.58,354s9.87,6.77,18-3.87L647,219.74l9.42-8.51a10.59,10.59,0,0,0,3.61-7.88c0-5,1.2-15.43,1.2-15.43l30.22-28.87,1.4-7.7S692,146.06,683,143Z"/><ellipse class="cls-2" cx="460.46" cy="315.08" rx="11.61" ry="17.54" transform="translate(-95.93 356.68) rotate(-38.66)"/><path class="cls-3" d="M269.57,227s-9.05,2.29-8.54,10.37,5.55,19.55,14.07,22.13c0,0,3.22.91,4.51,0,0,0-.26,2.84,3.23,3s9.93.9,12.13-5.8,2.84-13.89-1.87-20Z"/><polygon class="cls-4" points="279.61 259.48 278.83 230.79 276.3 229.75 277.96 259.88 279.61 259.48"/><path class="cls-4" d="M287.35,262.54a12,12,0,0,0,6.59-10.8c.12-8-16.85-31.3-32.11-18.81,0,0,1.32-4.39,7.74-6l23.53,9.69s4.67,5.06,3.51,11.72C296.61,248.39,297,261.7,287.35,262.54Z"/><path class="cls-5" d="M252.77,197.42l82.58,32.9a3.74,3.74,0,0,1,3.62-2.84c3,0,5.68,2.39,3.22,5.49l153.29,63s9.87,5.16,14-.58l3.29-3.61s-5.48.13-3.8-3.55a4,4,0,0,1,6.06-1.94,3.21,3.21,0,0,1,1.36,1.62l93-84.2s-5.16-.51-3.23-4.19,7.65-2.13,7.65-.29l48-43.07s4.06-2.9-.78-4.84l-84-29.44a4.2,4.2,0,0,1-5.29,1.7s-4.64-1.55-1.8-3.74l1.54-.64L477.42,85.94s-.81,3.48-6.13,1.45c0,0-3.4-2.77,1.34-3.64l-44.4-15.52S317.29,122.45,316.77,124,252.77,197.42,252.77,197.42Z"/><path class="cls-6" d="M247.22,201.41l108.52,44.78,142.45,58.07s11.23,2.71,17-2.52,97.54-89.22,97.54-89.22l57.29-53.62s11.81-7.16-1.54-13.74l-241.94-85L252.77,175.1Z"/><path class="cls-7" d="M692.82,151.35h0c.45,3.53-2.63,6.46-2.63,6.46L523.48,313.16c-9.8,9-27.87,2.32-27.87,2.32L327.1,245.42s-95.42-40.07-101.59-42c-3.64-1.14-5.21-2.48-5.89-3.39l-4.06-.49s-.93,5,5,7.3,206.17,84.9,206.17,84.9L499,321.94s13.42,4.38,21.93-2.33l113.29-105.8,56-53.68S693.9,158.31,692.82,151.35Z"/><ellipse class="cls-8" cx="314.42" cy="234.51" rx="3.87" ry="2.83"/><ellipse class="cls-8" cx="403.65" cy="271.09" rx="3.87" ry="2.83"/><ellipse class="cls-8" cx="508.23" cy="309.49" rx="3.87" ry="2.83"/><ellipse class="cls-8" cx="576.66" cy="253.08" rx="3.87" ry="2.83"/><ellipse class="cls-8" cx="604.28" cy="228.31" rx="3.87" ry="2.83"/><ellipse class="cls-8" cx="631.37" cy="203.27" rx="3.87" ry="2.83"/><ellipse class="cls-8" cx="680.66" cy="150.76" rx="3.87" ry="2.83"/><ellipse class="cls-8" cx="581.77" cy="111.76" rx="2.85" ry="2.09"/><ellipse class="cls-8" cx="486.45" cy="78.19" rx="2.85" ry="2.09"/><ellipse class="cls-9" cx="473.9" cy="85.55" rx="1.42" ry="1.04"/><ellipse class="cls-9" cx="573.22" cy="120.91" rx="1.42" ry="1.04"/><ellipse class="cls-9" cx="609.99" cy="200.44" rx="1.74" ry="1.28"/><ellipse class="cls-9" cx="512.44" cy="288.97" rx="1.74" ry="1.28"/><ellipse class="cls-9" cx="339.32" cy="230.4" rx="1.74" ry="1.28"/><path class="cls-5" d="M569.09,120.91l-2,55.41s1.16,4.65,7.55,0l46.83,16.08"/><polygon class="cls-10" points="578 121.97 575.13 173.52 577 121.93 578 121.97"/><path class="cls-5" d="M470,85.55,468,141s1.16,4.65,7.55,0l91.59,33.43"/><polygon class="cls-10" points="478.87 86.61 475.99 138.16 477.87 86.57 478.87 86.61"/><polygon class="cls-10" points="357.24 107.71 358.37 159.32 356.24 107.74 357.24 107.71"/><polygon class="cls-10" points="293.88 153.59 295.01 205.21 292.88 153.63 293.88 153.59"/><polygon class="cls-10" points="302.87 153.59 304 205.21 301.87 153.63 302.87 153.59"/><path class="cls-4" d="M582.43,162.73a15.3,15.3,0,0,1,3.24-11.62,14.9,14.9,0,0,0-4.9,13.28c1,8.28,10,15.36,17.29,14.51,3.38-.39,8.05-4.28,8.05-4.28a12.21,12.21,0,0,1-6.39,2.62C592.38,178.09,583.39,171,582.43,162.73Z"/><path class="cls-11" d="M608.9,163.54c-1-8.28-9.31-16.13-16.64-15.28a12.42,12.42,0,0,0-6.59,2.85,15.3,15.3,0,0,0-3.24,11.62c1,8.28,10,15.36,17.29,14.51a12.21,12.21,0,0,0,6.39-2.62A14.58,14.58,0,0,0,608.9,163.54Z"/><path class="cls-4" d="M534.94,145.14a14,14,0,0,1,2.74-10.27,13.48,13.48,0,0,0-4.14,11.73c.81,7.32,8.41,13.57,14.61,12.82,2.86-.34,6.8-3.78,6.8-3.78a10.13,10.13,0,0,1-5.4,2.32C543.35,158.71,535.75,152.46,534.94,145.14Z"/><path class="cls-11" d="M557.31,145.86c-.81-7.32-7.87-14.25-14.06-13.5a10.26,10.26,0,0,0-5.57,2.51,14,14,0,0,0-2.74,10.27c.81,7.32,8.41,13.57,14.61,12.82a10.13,10.13,0,0,0,5.4-2.32A13.32,13.32,0,0,0,557.31,145.86Z"/><path class="cls-4" d="M436.84,108.11a11.58,11.58,0,0,1,2.46-8.81,11.27,11.27,0,0,0-3.71,10.07c.72,6.28,7.54,11.65,13.1,11,2.57-.3,6.11-3.25,6.11-3.25a9.29,9.29,0,0,1-4.85,2C444.39,119.76,437.57,114.39,436.84,108.11Z"/><path class="cls-11" d="M456.91,108.72c-.73-6.28-7.06-12.23-12.62-11.59a9.38,9.38,0,0,0-5,2.17,11.58,11.58,0,0,0-2.46,8.81c.73,6.28,7.55,11.65,13.11,11a9.29,9.29,0,0,0,4.85-2A11.1,11.1,0,0,0,456.91,108.72Z"/><path class="cls-12" d="M483.62,129.25a14,14,0,0,1,12.72-15.41c7.72-.63,16.14,7.26,16.8,15.37s-4.29,14-12,14.68S484.27,137.35,483.62,129.25Z"/><path class="cls-13" d="M484.58,130.3a10.14,10.14,0,0,1,9.25-11.2c5.62-.46,11.74,5.28,12.22,11.17s-3.12,10.22-8.74,10.68S485.06,136.2,484.58,130.3Z"/><polyline class="cls-5" points="416.52 70.45 417.48 119.17 466.06 138.16"/><path class="cls-5" d="M363.87,117.29l1.36,42.19s1.54,7.17-6.78,5l-53.61,42.19s-.8,7.35-8,5.23"/><path class="cls-10" d="M376.84,150.35c2.33-2.27,4.74-4.46,7.15-6.63s4.87-4.3,7.33-6.42,4.95-4.21,7.48-6.25l3.79-3.07c1.29-1,2.55-2,3.86-3-1.16,1.14-2.36,2.24-3.54,3.35l-3.61,3.28c-2.41,2.18-4.87,4.3-7.33,6.42s-5,4.21-7.48,6.25S379.44,148.39,376.84,150.35Z"/><ellipse class="cls-14" cx="439.48" cy="331.99" rx="7.62" ry="10.88" transform="translate(-111.09 347.28) rotate(-38.66)"/><path class="cls-14" d="M431.47,324.86l1.88-3.86,15.49-14s6.29-3.39,13.74,3.19,3.19,16.07,3.19,16.07l-18.09,13.93-1.81.62"/><ellipse class="cls-2" cx="439.48" cy="331.99" rx="4.88" ry="6.97" transform="translate(-111.09 347.28) rotate(-38.66)"/><path class="cls-15" d="M433,321.72s8.41-4,13.47,2.1a12.81,12.81,0,0,1,2.56,5.84S444.79,318.48,433,321.72Z"/><path class="cls-16" d="M548.26,180.19s15.29-12.45,22.71-13.42,12.38-1.54,21.22,1.75,18.63,9.8,19.54,16.71-14.89,23.29-23.47,28.83-44.84,31.49-44.84,31.49l-55.37,47.39-3.74-1.54s52.3-46.08,54-47l55.07-37.55S608.77,193,609,185.29c0,0-3.35-7.74-10.71-10.9s-24.77-14.13-47.87,7.67h-2.19Z"/><path class="cls-17" d="M544.52,183.18l3.74-3s2,.52,2.19,1.87l-3.55,3.23s-3-2.94-2.7-2.53"/><ellipse class="cls-18" cx="536.02" cy="193.64" rx="3.34" ry="4.94" transform="translate(20.07 435.74) rotate(-45)"/><path class="cls-18" d="M532.53,190.15s1.21-1.89,1.92-1.89,0-.84,2.39-2.78a39.85,39.85,0,0,1,5.1-3.42s3.67,1,4.58,1.81c1.74,1.61,1.74,6.28,1.74,6.28s-5.36,4.88-7.1,5.08c0,0-.75,1.78-2,2.2"/><ellipse class="cls-19" cx="536.02" cy="193.64" rx="3.09" ry="4.57" transform="translate(20.07 435.74) rotate(-45)"/><path class="cls-20" d="M296.64,198.39c-.12-.58,2.78-9.7,2.78-9.7l115.16-86.88a25.31,25.31,0,0,1,4.18.77c2,.58,163.78,60.92,163.78,60.92s2-.93,2.08,2.25,0,10.57,0,10.57l-111.2,97.61-.19,2.46L584.66,179v9.72L473.67,287l1.61.66L584.66,191v9.41l-102.2,90.21L342.19,233s2.29-4-1.13-5.07c0,0-4.51-2.22-5.71,2.42L296.64,214.9Z"/><g class="cls-21"><polygon class="cls-22" points="299.42 188.69 343.99 205.8 366.26 214.38 388.48 223.1 477.36 257.99 476.85 258.07 584.29 165.37 585.12 164.66 585.12 165.75 585.16 200.44 585.16 200.66 584.99 200.81 533.89 245.92 508.35 268.48 482.65 290.86 482.52 290.98 482.36 290.91 472.16 286.63 472.02 286.57 472.03 286.43 472.81 271.09 472.82 271.07 472.82 271.06 477.18 259.88 472.99 271.12 472.99 271.1 472.44 286.45 472.31 286.25 482.57 290.38 482.27 290.43 507.68 267.71 533.23 245.17 584.33 200.06 584.16 200.44 584.12 165.75 584.95 166.13 477.51 258.83 477.28 259.03 477 258.92 388.12 224.04 365.89 215.32 343.73 206.46 299.42 188.69"/></g><path class="cls-23" d="M296.64,198.39l176.26,72.7-.67,15.35L342.19,233s2.39-3.61-1.13-5.07c0,0-4.51-1.93-5.71,2.42L296.64,214.9l.16-17.4"/><polygon class="cls-24" points="584.62 176.32 473.42 273.93 473.23 276.39 584.66 178.97 584.66 188.69 473.68 287.03 475.28 287.69 584.66 190.46 584.62 176.32"/></g><g id="Layer_2" data-name="Layer 2"><path class="cls-25" d="M31,145.16c12-1.55,87.48-13.16,181.55,15.49,0,0,22.45,8.12,30.19,3.87s66.19-67.75,99.87-86.71,73.94-39.87,73.94-39.87,5-1.35.05-2.35c-7.06-1.44-14-2.69-17.86-2.88,0,0-49.94-4.71-181-7.81a35.23,35.23,0,0,0-22.07,5.16S47.17,120.1,23,142.16h0S19,146.71,31,145.16Z"/><path class="cls-26" d="M261.68,178.45,437.42,48.77s5.74-2.81,4-7h0a9.15,9.15,0,0,0-2.77-1.2s-11.17-2.72-22.11-5c5,1-.05,2.35-.05,2.35s-40.26,20.9-73.94,39.87-92.13,82.45-99.87,86.71-30.19-3.87-30.19-3.87C118.45,132,43,143.61,31,145.16s-8-3-8-3a22.86,22.86,0,0,0-2.44,2.49s-17,11.35-15,19.09l231,24.78S245.42,190.84,261.68,178.45Z"/><path class="cls-22" d="M11.23,176.52,231.1,201.29s20.51,4.65,34.45-8.9L443.61,58.45S446.42,57,445.16,52l-2.32-8.71a3.52,3.52,0,0,0-1.39-1.51h0c1.71,4.21-4,7-4,7L261.68,178.45c-16.26,12.39-25.16,10.07-25.16,10.07l-231-24.78S5,175.82,11.23,176.52Z"/></g></svg>