<?xml version="1.0" encoding="UTF-8"?><svg id="_9018" xmlns="http://www.w3.org/2000/svg" viewBox="0 0 1000 1000"><defs><style>.cls-1{fill:#6f7985;}.cls-2{font-family:NHaasGroteskDSPro-75Bd, 'Neue Haas Grotesk Display Pro';font-size:33.36px;}.cls-2,.cls-3{fill:#fff;}.cls-4{fill:#e9d197;}.cls-5{fill:#e4e9ad;}.cls-6{fill:#343235;}.cls-7{fill:#dbdbdb;}.cls-8{fill:#ca9a2c;}.cls-9{fill:#b6c2cc;}.cls-10{fill:#323134;}.cls-11{fill:#fed10d;}.cls-12,.cls-13{font-family:NHaasGroteskDSPro-55Rg, 'Neue Haas Grotesk Display Pro';font-size:37.09px;}.cls-12,.cls-14{fill:#231f20;}.cls-15{fill:#deaa53;}.cls-16{stroke-width:.83px;}.cls-16,.cls-17,.cls-18,.cls-19,.cls-20,.cls-21,.cls-22{fill:none;}.cls-16,.cls-18,.cls-19,.cls-20,.cls-21{stroke:#fff;stroke-linecap:round;stroke-linejoin:round;}.cls-23{fill:#f3e2c1;}.cls-24{fill:#131313;}.cls-25{fill:#f4ede6;}.cls-26{fill:#0a0a0a;}.cls-27{fill:#e0e0e0;}.cls-28{fill:#ccd3cf;}.cls-29{fill:#f7f1e5;}.cls-30{fill:#a5a8a6;}.cls-31{fill:#feec4e;}.cls-17{stroke:#231f20;}.cls-17,.cls-22{stroke-miterlimit:10;stroke-width:2px;}.cls-32{fill:#a3988f;}.cls-33{fill:#dcd1a2;}.cls-34{fill:#eaeaea;}.cls-35{fill:#a4a9b8;}.cls-13,.cls-36{fill:#ed1c24;}.cls-37{fill:#cecbc2;}.cls-18{stroke-width:.62px;}.cls-19{stroke-width:1.05px;}.cls-38{fill:#292929;}.cls-39{fill:#78695e;}.cls-40{fill:#bcc1d2;}.cls-20{stroke-width:1.01px;}.cls-41{fill:#e2b12d;}.cls-21{stroke-width:.5px;}.cls-42{fill:#ba8436;}.cls-43{fill:#baaea6;}.cls-44{fill:#eeefeb;}.cls-45{fill:#a09c9f;}.cls-46{fill:#fffefe;}.cls-22{stroke:#ed1c24;}.cls-47{fill:#9b8e83;}.cls-48{fill:#f2f2f2;}</style></defs><g><g><path class="cls-38" d="M515.07,40.89H223.53c-16.31,0-29.53,13.22-29.53,29.53V584.22c.09,1.28,.83,4.24,5.65,5.99,0,0,20.6,9.32,20.6,25.61v57.09s-.78,16.21-16.05,20.05c0,0-9.58,1.64-10.2,14.02v216.94c0,16.31,13.22,29.53,29.53,29.53h291.54c16.31,0,29.53-13.22,29.53-29.53v-139.45c0-16.31,13.22-29.53,29.53-29.53h200.37c16.31,0,29.53-13.22,29.53-29.53V268.92c0-16.31-13.22-29.53-29.53-29.53h-200.37c-16.31,0-29.53-13.22-29.53-29.53V70.42c0-16.31-13.22-29.53-29.53-29.53Zm44.95,648.04c13.22,0,23.93,10.71,23.93,23.93,0,13.22-10.71,23.93-23.93,23.93-13.22,0-23.93-10.72-23.93-23.93s10.72-23.93,23.93-23.93Zm183.09,0c13.22,0,23.93,10.71,23.93,23.93,0,13.22-10.71,23.93-23.93,23.93-13.22,0-23.93-10.72-23.93-23.93,0-13.22,10.72-23.93,23.93-23.93Zm-183.09-428.39c13.22,0,23.93,10.71,23.93,23.93,0,13.22-10.71,23.93-23.93,23.93-13.22,0-23.93-10.71-23.93-23.93,0-13.22,10.72-23.93,23.93-23.93Zm183.09,0c13.22,0,23.93,10.71,23.93,23.93,0,13.22-10.71,23.93-23.93,23.93-13.22,0-23.93-10.71-23.93-23.93,0-13.22,10.72-23.93,23.93-23.93Z"/><path class="cls-15" d="M743.11,672.86c-22.09,0-40,17.91-40,40,0,22.09,17.91,40,40,40,22.09,0,40-17.91,40-40,0-22.09-17.91-40-40-40Zm0,16.07c13.22,0,23.93,10.72,23.93,23.93,0,13.22-10.71,23.93-23.93,23.93s-23.93-10.72-23.93-23.93c0-13.22,10.72-23.93,23.93-23.93Z"/><path class="cls-15" d="M743.11,244.68c-21.98,0-39.8,17.82-39.8,39.8,0,21.98,17.82,39.8,39.8,39.8,21.98,0,39.8-17.82,39.8-39.8,0-21.98-17.82-39.8-39.8-39.8Zm0,15.86c13.22,0,23.93,10.71,23.93,23.93s-10.71,23.93-23.93,23.93-23.93-10.72-23.93-23.93,10.72-23.93,23.93-23.93Z"/><path class="cls-15" d="M560.02,673.19c-21.91,0-39.67,17.76-39.67,39.67,0,21.91,17.76,39.67,39.67,39.67,21.91,0,39.67-17.76,39.67-39.67,0-21.91-17.76-39.67-39.67-39.67Zm0,15.74c13.22,0,23.93,10.72,23.93,23.93,0,13.22-10.71,23.93-23.93,23.93-13.22,0-23.93-10.72-23.93-23.93s10.72-23.93,23.93-23.93Z"/><path class="cls-15" d="M560.02,245.02c-21.79,0-39.46,17.67-39.46,39.46,0,21.79,17.67,39.46,39.46,39.46,21.79,0,39.46-17.67,39.46-39.46,0-21.79-17.67-39.46-39.46-39.46Zm0,15.53c13.22,0,23.93,10.71,23.93,23.93,0,13.22-10.71,23.93-23.93,23.93-13.22,0-23.93-10.72-23.93-23.93,0-13.22,10.72-23.93,23.93-23.93Z"/></g><g><rect class="cls-21" x="225.5" y="83.74" width="61.15" height="34.94" rx=".9" ry=".9" transform="translate(357.29 -154.86) rotate(90)"/><rect class="cls-21" x="275.21" y="152.7" width="61.15" height="34.94" rx=".9" ry=".9" transform="translate(475.96 -135.62) rotate(90)"/><rect class="cls-21" x="437.86" y="270.33" width="61.15" height="34.94" rx=".9" ry=".9" transform="translate(936.87 575.6) rotate(-180)"/><rect class="cls-21" x="374.64" y="560.07" width="58.23" height="31.41" rx=".84" ry=".84" transform="translate(807.5 1151.54) rotate(-180)"/><rect class="cls-21" x="615.24" y="360.44" width="59.33" height="31.06" rx=".52" ry=".52" transform="translate(1020.88 -268.93) rotate(90)"/><rect class="cls-21" x="707.04" y="352.05" width="59.33" height="31.06" rx=".52" ry=".52" transform="translate(1104.29 -369.12) rotate(90)"/><rect class="cls-21" x="719.18" y="440.4" width="59.33" height="31.06" rx=".52" ry=".52"/><rect class="cls-21" x="695.39" y="471.46" width="87.52" height="40.14" rx=".72" ry=".72"/><rect class="cls-21" x="627.79" y="428.25" width="59.33" height="31.06" rx=".52" ry=".52" transform="translate(1101.23 -213.67) rotate(90)"/><rect class="cls-21" x="552.3" y="346.31" width="59.33" height="59.33" rx=".72" ry=".72" transform="translate(957.93 -205.98) rotate(90)"/><path class="cls-21" d="M647.33,473.45h-36.37c-1.77,0-3.21-1.44-3.21-3.21v-54.56h28.56"/><rect class="cls-21" x="621.53" y="459.66" width="35.66" height="63.23" rx=".42" ry=".42" transform="translate(1130.64 -148.09) rotate(90)"/><polyline class="cls-21" points="607.75 504.13 552.3 504.13 552.3 391.74"/><path class="cls-21" d="M459.64,601.46v-114.82h92.65v111.88s1.22,11.33-11.33,11.33"/><polyline class="cls-21" points="462.42 609.85 518.99 609.85 518.99 640.84 462.42 640.84"/><rect class="cls-21" x="534.01" y="594.83" width="30.99" height="61.03" rx=".59" ry=".59" transform="translate(1174.85 75.84) rotate(90)"/><rect class="cls-21" x="596.12" y="594.83" width="30.99" height="61.03" rx=".59" ry=".59" transform="translate(1236.97 13.72) rotate(90)"/><rect class="cls-21" x="722.01" y="547.31" width="30.99" height="57.2" rx=".57" ry=".57"/><line class="cls-21" x1="691.49" y1="604.51" x2="601.64" y2="604.51"/><line class="cls-21" x1="696.63" y1="509.11" x2="665.15" y2="509.11"/><line class="cls-21" x1="437.87" y1="598.52" x2="349.26" y2="598.52"/><rect class="cls-21" x="381.61" y="621.32" width="53.66" height="137.91" rx=".54" ry=".54" transform="translate(1098.72 281.84) rotate(90)"/><rect class="cls-3" x="461.47" y="681.45" width="58.5" height="16.57" rx=".35" ry=".35" transform="translate(1180.46 199.01) rotate(90)"/><line class="cls-16" x1="534.81" y1="848.57" x2="499.01" y2="848.57"/><line class="cls-16" x1="534.81" y1="906.53" x2="499.01" y2="906.53"/><line class="cls-20" x1="305.79" y1="66.89" x2="358.04" y2="66.89"/><line class="cls-20" x1="205.05" y1="64.76" x2="234.9" y2="64.76"/><line class="cls-16" x1="459.64" y1="730.01" x2="374.64" y2="730.01"/><line class="cls-16" x1="516.91" y1="866.47" x2="516.91" y2="830.66"/><line class="cls-19" x1="354.5" y1="217.73" x2="309.33" y2="217.73"/><line class="cls-19" x1="331.91" y1="240.32" x2="331.91" y2="195.14"/><line class="cls-18" x1="339.49" y1="757.57" x2="312.75" y2="757.57"/><line class="cls-18" x1="326.12" y1="770.94" x2="326.12" y2="744.2"/><line class="cls-18" x1="317.29" y1="625.34" x2="290.55" y2="625.34"/><line class="cls-18" x1="303.92" y1="638.71" x2="303.92" y2="611.98"/><rect class="cls-21" x="361.47" y="814.18" width="139.21" height="119.25" rx="1.01" ry="1.01" transform="translate(1304.89 442.74) rotate(90)"/><rect class="cls-21" x="347.71" y="59.8" width="181.85" height="156.56" rx="1.32" ry="1.32" transform="translate(576.71 -300.56) rotate(90)"/><path class="cls-3" d="M344.4,876.16c0,2.57,1.76,.5,2.43-.21l17.92-19.13c.8-.86,.8-2.25,0-3.1l-17.92-19.13c-.67-.72-2.43-2.28-2.43-.21v41.8Z"/><path class="cls-3" d="M328.87,126.86c0,2.57,1.76,.5,2.43-.21l17.92-19.13c.8-.86,.8-2.25,0-3.1l-17.92-19.13c-.67-.72-2.43-2.28-2.43-.21v41.8Z"/><line class="cls-21" x1="545.2" y1="384.31" x2="545.2" y2="433.02"/><line class="cls-21" x1="448.48" y1="384.31" x2="448.48" y2="402.19"/><line class="cls-21" x1="448.48" y1="417.59" x2="448.48" y2="435.47"/><polyline class="cls-18" points="297.26 564.02 297.26 548.25 208.24 548.25 208.24 575.77"/><polyline class="cls-18" points="297.26 710.87 297.26 726.64 208.24 726.64 208.24 699.12"/><line class="cls-18" x1="239.71" y1="746.5" x2="239.71" y2="797.81"/><line class="cls-18" x1="239.71" y1="859.1" x2="239.71" y2="910.41"/><rect class="cls-3" x="216.57" y="820.98" width="9.41" height="34.11" rx=".16" ry=".16" transform="translate(1059.31 616.76) rotate(90)"/><circle class="cls-3" cx="442.45" cy="453.15" r="10.9"/><circle class="cls-3" cx="537.92" cy="478.12" r="6.97"/><circle class="cls-3" cx="562.46" cy="510.51" r="6.5"/><circle class="cls-3" cx="340.73" cy="583.16" r="15.36"/><line class="cls-21" x1="513.23" y1="602.02" x2="493.3" y2="602.02"/><line class="cls-21" x1="354.5" y1="257.53" x2="297.26" y2="257.53"/><line class="cls-21" x1="210.59" y1="257.53" x2="200.06" y2="257.53"/><line class="cls-21" x1="416.24" y1="287.8" x2="416.24" y2="304.57"/><line class="cls-21" x1="354.5" y1="537.98" x2="297.26" y2="537.98"/><line class="cls-21" x1="210.59" y1="537.98" x2="200.06" y2="537.98"/><line class="cls-21" x1="416.24" y1="497.16" x2="416.24" y2="480.39"/><text class="cls-2" transform="translate(634.44 309.6) rotate(-90)"><tspan x="0" y="0">M1</tspan></text><text class="cls-2" transform="translate(687.89 309.6) rotate(-90)"><tspan x="0" y="0">M4</tspan></text><text class="cls-2" transform="translate(634.44 733.78) rotate(-90)"><tspan x="0" y="0">M2</tspan></text><text class="cls-2" transform="translate(687.89 733.78) rotate(-90)"><tspan x="0" y="0">M3</tspan></text><path class="cls-3" d="M792.96,281.46c0-17.69-9.28-33.21-23.21-42.06h-9.08c16.44,6.89,28.03,23.14,28.03,42.06,0,25.14-20.46,45.6-45.6,45.6s-45.6-20.46-45.6-45.6c0-18.92,11.59-35.17,28.03-42.06h-9.08c-13.92,8.85-23.21,24.38-23.21,42.06,0,27.49,22.36,49.85,49.85,49.85s49.85-22.36,49.85-49.85Z"/><path class="cls-3" d="M609.87,281.46c0-17.69-9.28-33.21-23.21-42.06h-9.08c16.44,6.89,28.03,23.14,28.03,42.06,0,25.14-20.46,45.6-45.6,45.6s-45.61-20.46-45.61-45.6,20.46-45.6,45.61-45.6c.23,0,.44,.06,.67,.07-2.14-1.12-4.12-2.46-5.91-4.04-25.04,2.63-44.62,23.85-44.62,49.57,0,27.49,22.37,49.85,49.86,49.85s49.85-22.36,49.85-49.85Z"/><path class="cls-3" d="M574.46,754.82h6.94c16.81-8.02,28.48-25.14,28.48-44.97,0-27.49-22.36-49.85-49.85-49.85s-49.86,22.36-49.86,49.85,21.47,48.87,48.18,49.77c4.65-3.01,10.16-4.8,16.11-4.8Zm-60.04-44.97c0-25.15,20.46-45.6,45.61-45.6s45.6,20.46,45.6,45.6-20.46,45.6-45.6,45.6-45.61-20.46-45.61-45.6Z"/><path class="cls-3" d="M737.96,754.92c-22.69-2.6-40.44-21.7-40.44-45.08,0-25.15,20.46-45.6,45.6-45.6s45.6,20.46,45.6,45.6c0,23.38-17.75,42.48-40.44,45.08h15.99c16.93-7.98,28.7-25.16,28.7-45.08,0-27.49-22.36-49.85-49.85-49.85s-49.85,22.36-49.85,49.85c0,19.92,11.77,37.1,28.7,45.08h15.99Z"/></g><g><path class="cls-40" d="M726.52,459.84v-7.82c0-2.7,1.69-4.88,3.78-4.88h37.08c2.09,0,3.78,2.19,3.78,4.88v7.82c0,2.7-1.69,4.88-3.78,4.88h-37.08c-2.09,0-3.78-2.19-3.78-4.88"/><path class="cls-35" d="M731.26,460.49v-9.12c0-2.34,1.47-4.23,3.28-4.23h26.98c1.81,0,3.28,1.9,3.28,4.23v9.12c0,2.34-1.47,4.23-3.28,4.23h-26.98c-1.81,0-3.28-1.9-3.28-4.23"/><path class="cls-44" d="M733.53,462.77v-13.67c0-1.58,.99-2.85,2.21-2.85h25.08c1.22,0,2.21,1.28,2.21,2.85v13.67c0,1.58-.99,2.86-2.21,2.86h-25.08c-1.22,0-2.21-1.28-2.21-2.86"/><rect class="cls-15" x="740.32" y="446.24" width="16.97" height="19.38"/></g><g><path class="cls-40" d="M462.87,629.25v-7.82c0-2.7,1.69-4.88,3.78-4.88h37.08c2.09,0,3.78,2.19,3.78,4.88v7.82c0,2.7-1.69,4.88-3.78,4.88h-37.08c-2.09,0-3.78-2.19-3.78-4.88"/><path class="cls-35" d="M467.62,629.9v-9.12c0-2.34,1.47-4.23,3.28-4.23h26.98c1.81,0,3.28,1.9,3.28,4.23v9.12c0,2.34-1.47,4.23-3.28,4.23h-26.98c-1.81,0-3.28-1.9-3.28-4.23"/><path class="cls-44" d="M469.88,632.18v-13.67c0-1.58,.99-2.85,2.21-2.85h25.08c1.22,0,2.21,1.28,2.21,2.85v13.67c0,1.58-.99,2.86-2.21,2.86h-25.08c-1.22,0-2.21-1.28-2.21-2.86"/><rect class="cls-15" x="476.67" y="615.65" width="16.97" height="19.38"/></g><g><path class="cls-40" d="M381.43,579.68v-7.82c0-2.7,1.69-4.88,3.78-4.88h37.08c2.09,0,3.78,2.19,3.78,4.88v7.82c0,2.7-1.69,4.88-3.78,4.88h-37.08c-2.09,0-3.78-2.19-3.78-4.88"/><path class="cls-35" d="M386.17,580.33v-9.12c0-2.34,1.47-4.23,3.28-4.23h26.98c1.81,0,3.28,1.9,3.28,4.23v9.12c0,2.34-1.47,4.23-3.28,4.23h-26.98c-1.81,0-3.28-1.9-3.28-4.23"/><path class="cls-44" d="M388.44,582.61v-13.67c0-1.58,.99-2.85,2.21-2.85h25.08c1.22,0,2.21,1.28,2.21,2.85v13.67c0,1.58-.99,2.86-2.21,2.86h-25.08c-1.22,0-2.21-1.28-2.21-2.86"/><rect class="cls-15" x="395.23" y="566.08" width="16.97" height="19.38"/></g><g><path class="cls-40" d="M741.42,389.91h-7.82c-2.7,0-4.88-1.69-4.88-3.78v-37.08c0-2.09,2.19-3.78,4.88-3.78h7.82c2.7,0,4.88,1.69,4.88,3.78v37.08c0,2.09-2.19,3.78-4.88,3.78"/><path class="cls-35" d="M742.07,385.17h-9.12c-2.34,0-4.23-1.47-4.23-3.28v-26.98c0-1.81,1.9-3.28,4.23-3.28h9.12c2.34,0,4.23,1.47,4.23,3.28v26.98c0,1.81-1.9,3.28-4.23,3.28"/><path class="cls-44" d="M744.34,382.9h-13.67c-1.58,0-2.85-.99-2.85-2.21v-25.08c0-1.22,1.28-2.21,2.85-2.21h13.67c1.58,0,2.86,.99,2.86,2.21v25.08c0,1.22-1.28,2.21-2.86,2.21"/><rect class="cls-15" x="727.82" y="359.14" width="19.38" height="16.97"/></g><g><path class="cls-40" d="M648.81,398.3h-7.82c-2.7,0-4.88-1.69-4.88-3.78v-37.08c0-2.09,2.19-3.78,4.88-3.78h7.82c2.7,0,4.88,1.69,4.88,3.78v37.08c0,2.09-2.19,3.78-4.88,3.78"/><path class="cls-35" d="M649.46,393.55h-9.12c-2.34,0-4.23-1.47-4.23-3.28v-26.98c0-1.81,1.9-3.28,4.23-3.28h9.12c2.34,0,4.23,1.47,4.23,3.28v26.98c0,1.81-1.9,3.28-4.23,3.28"/><path class="cls-44" d="M651.74,391.29h-13.67c-1.58,0-2.85-.99-2.85-2.21v-25.08c0-1.22,1.28-2.21,2.85-2.21h13.67c1.58,0,2.86,.99,2.86,2.21v25.08c0,1.22-1.28,2.21-2.86,2.21"/><rect class="cls-15" x="635.21" y="367.52" width="19.38" height="16.97"/></g><g><path class="cls-40" d="M600.14,398.3h-7.82c-2.7,0-4.88-1.69-4.88-3.78v-37.08c0-2.09,2.19-3.78,4.88-3.78h7.82c2.7,0,4.88,1.69,4.88,3.78v37.08c0,2.09-2.19,3.78-4.88,3.78"/><path class="cls-35" d="M600.79,393.55h-9.12c-2.34,0-4.23-1.47-4.23-3.28v-26.98c0-1.81,1.9-3.28,4.23-3.28h9.12c2.34,0,4.23,1.47,4.23,3.28v26.98c0,1.81-1.9,3.28-4.23,3.28"/><path class="cls-44" d="M603.06,391.29h-13.67c-1.58,0-2.85-.99-2.85-2.21v-25.08c0-1.22,1.28-2.21,2.85-2.21h13.67c1.58,0,2.86,.99,2.86,2.21v25.08c0,1.22-1.28,2.21-2.86,2.21"/><rect class="cls-15" x="586.54" y="367.52" width="19.38" height="16.97"/></g><g><path class="cls-40" d="M572.88,398.3h-7.82c-2.7,0-4.88-1.69-4.88-3.78v-37.08c0-2.09,2.19-3.78,4.88-3.78h7.82c2.7,0,4.88,1.69,4.88,3.78v37.08c0,2.09-2.19,3.78-4.88,3.78"/><path class="cls-35" d="M573.53,393.55h-9.12c-2.34,0-4.23-1.47-4.23-3.28v-26.98c0-1.81,1.9-3.28,4.23-3.28h9.12c2.34,0,4.23,1.47,4.23,3.28v26.98c0,1.81-1.9,3.28-4.23,3.28"/><path class="cls-44" d="M575.8,391.29h-13.67c-1.58,0-2.85-.99-2.85-2.21v-25.08c0-1.22,1.28-2.21,2.85-2.21h13.67c1.58,0,2.86,.99,2.86,2.21v25.08c0,1.22-1.28,2.21-2.86,2.21"/><rect class="cls-15" x="559.28" y="367.52" width="19.38" height="16.97"/></g><g><path class="cls-40" d="M733.55,553.34h7.91c2.73,0,4.94,1.71,4.94,3.83v37.52c0,2.11-2.21,3.83-4.94,3.83h-7.91c-2.73,0-4.94-1.71-4.94-3.83v-37.52c0-2.11,2.21-3.83,4.94-3.83"/><path class="cls-35" d="M732.89,558.14h9.23c2.37,0,4.28,1.49,4.28,3.32v27.3c0,1.83-1.92,3.32-4.28,3.32h-9.23c-2.36,0-4.28-1.49-4.28-3.32v-27.3c0-1.83,1.92-3.32,4.28-3.32"/><path class="cls-44" d="M730.59,560.44h13.83c1.6,0,2.89,1,2.89,2.24v25.38c0,1.24-1.29,2.24-2.89,2.24h-13.83c-1.6,0-2.89-1-2.89-2.24v-25.38c0-1.24,1.29-2.24,2.89-2.24"/><rect class="cls-26" x="727.7" y="567.3" width="19.61" height="17.17"/></g><g><path class="cls-40" d="M653.26,421.98h7.91c2.73,0,4.94,1.71,4.94,3.83v37.52c0,2.11-2.21,3.83-4.94,3.83h-7.91c-2.73,0-4.94-1.71-4.94-3.83v-37.52c0-2.11,2.21-3.83,4.94-3.83"/><path class="cls-35" d="M652.6,426.78h9.23c2.37,0,4.28,1.49,4.28,3.32v27.3c0,1.83-1.92,3.32-4.28,3.32h-9.23c-2.36,0-4.28-1.49-4.28-3.32v-27.3c0-1.83,1.92-3.32,4.28-3.32"/><path class="cls-44" d="M650.3,429.07h13.83c1.6,0,2.89,1,2.89,2.24v25.38c0,1.24-1.29,2.24-2.89,2.24h-13.83c-1.6,0-2.89-1-2.89-2.24v-25.38c0-1.24,1.29-2.24,2.89-2.24"/><rect class="cls-26" x="647.41" y="435.94" width="19.61" height="17.17"/></g><g><path class="cls-40" d="M620.55,421.98h7.91c2.73,0,4.94,1.71,4.94,3.83v37.52c0,2.11-2.21,3.83-4.94,3.83h-7.91c-2.73,0-4.94-1.71-4.94-3.83v-37.52c0-2.11,2.21-3.83,4.94-3.83"/><path class="cls-35" d="M619.89,426.78h9.23c2.37,0,4.28,1.49,4.28,3.32v27.3c0,1.83-1.92,3.32-4.28,3.32h-9.23c-2.36,0-4.28-1.49-4.28-3.32v-27.3c0-1.83,1.92-3.32,4.28-3.32"/><path class="cls-44" d="M617.58,429.07h13.83c1.6,0,2.89,1,2.89,2.24v25.38c0,1.24-1.29,2.24-2.89,2.24h-13.83c-1.6,0-2.89-1-2.89-2.24v-25.38c0-1.24,1.29-2.24,2.89-2.24"/><rect class="cls-26" x="614.7" y="435.94" width="19.61" height="17.17"/></g><g><path class="cls-40" d="M301.84,147.58h7.91c2.73,0,4.94,1.71,4.94,3.83v37.52c0,2.11-2.21,3.83-4.94,3.83h-7.91c-2.73,0-4.94-1.71-4.94-3.83v-37.52c0-2.11,2.21-3.83,4.94-3.83"/><path class="cls-35" d="M301.18,152.38h9.23c2.37,0,4.28,1.49,4.28,3.32v27.3c0,1.83-1.92,3.32-4.28,3.32h-9.23c-2.36,0-4.28-1.49-4.28-3.32v-27.3c0-1.83,1.92-3.32,4.28-3.32"/><path class="cls-44" d="M298.87,154.67h13.83c1.6,0,2.89,1,2.89,2.24v25.38c0,1.24-1.29,2.24-2.89,2.24h-13.83c-1.6,0-2.89-1-2.89-2.24v-25.38c0-1.24,1.29-2.24,2.89-2.24"/><rect class="cls-26" x="295.99" y="161.54" width="19.61" height="17.17"/></g><g><path class="cls-40" d="M252.12,78.63h7.91c2.73,0,4.94,1.71,4.94,3.83v37.52c0,2.11-2.21,3.83-4.94,3.83h-7.91c-2.73,0-4.94-1.71-4.94-3.83v-37.52c0-2.11,2.21-3.83,4.94-3.83"/><path class="cls-35" d="M251.46,83.43h9.23c2.37,0,4.28,1.49,4.28,3.32v27.3c0,1.83-1.92,3.32-4.28,3.32h-9.23c-2.36,0-4.28-1.49-4.28-3.32v-27.3c0-1.83,1.92-3.32,4.28-3.32"/><path class="cls-44" d="M249.16,85.72h13.83c1.6,0,2.89,1,2.89,2.24v25.38c0,1.24-1.29,2.24-2.89,2.24h-13.83c-1.6,0-2.89-1-2.89-2.24v-25.38c0-1.24,1.29-2.24,2.89-2.24"/><rect class="cls-26" x="246.27" y="92.59" width="19.61" height="17.17"/></g><g><path class="cls-40" d="M618.06,494.36v-7.91c0-2.73,1.71-4.94,3.83-4.94h37.52c2.11,0,3.83,2.21,3.83,4.94v7.91c0,2.73-1.71,4.94-3.83,4.94h-37.52c-2.11,0-3.83-2.21-3.83-4.94"/><path class="cls-35" d="M622.86,495.02v-9.23c0-2.37,1.49-4.28,3.32-4.28h27.3c1.83,0,3.32,1.92,3.32,4.28v9.23c0,2.36-1.49,4.28-3.32,4.28h-27.3c-1.83,0-3.32-1.92-3.32-4.28"/><path class="cls-44" d="M625.15,497.32v-13.83c0-1.6,1-2.89,2.24-2.89h25.38c1.24,0,2.24,1.29,2.24,2.89v13.83c0,1.6-1,2.89-2.24,2.89h-25.38c-1.24,0-2.24-1.29-2.24-2.89"/><rect class="cls-26" x="632.02" y="480.6" width="17.17" height="19.61"/></g><g><path class="cls-40" d="M588,629.3v-7.91c0-2.73,1.71-4.94,3.83-4.94h37.52c2.11,0,3.83,2.21,3.83,4.94v7.91c0,2.73-1.71,4.94-3.83,4.94h-37.52c-2.11,0-3.83-2.21-3.83-4.94"/><path class="cls-35" d="M592.8,629.96v-9.23c0-2.37,1.49-4.28,3.32-4.28h27.3c1.83,0,3.32,1.92,3.32,4.28v9.23c0,2.36-1.49,4.28-3.32,4.28h-27.3c-1.83,0-3.32-1.92-3.32-4.28"/><path class="cls-44" d="M595.09,632.26v-13.83c0-1.6,1-2.89,2.24-2.89h25.38c1.24,0,2.24,1.29,2.24,2.89v13.83c0,1.6-1,2.89-2.24,2.89h-25.38c-1.24,0-2.24-1.29-2.24-2.89"/><rect class="cls-26" x="601.96" y="615.54" width="17.17" height="19.61"/></g><g><path class="cls-40" d="M526.92,629.3v-7.91c0-2.73,1.71-4.94,3.83-4.94h37.52c2.11,0,3.83,2.21,3.83,4.94v7.91c0,2.73-1.71,4.94-3.83,4.94h-37.52c-2.11,0-3.83-2.21-3.83-4.94"/><path class="cls-35" d="M531.72,629.96v-9.23c0-2.37,1.49-4.28,3.32-4.28h27.3c1.83,0,3.32,1.92,3.32,4.28v9.23c0,2.36-1.49,4.28-3.32,4.28h-27.3c-1.83,0-3.32-1.92-3.32-4.28"/><path class="cls-44" d="M534.01,632.26v-13.83c0-1.6,1-2.89,2.24-2.89h25.38c1.24,0,2.24,1.29,2.24,2.89v13.83c0,1.6-1,2.89-2.24,2.89h-25.38c-1.24,0-2.24-1.29-2.24-2.89"/><rect class="cls-26" x="540.88" y="615.54" width="17.17" height="19.61"/></g><g><path class="cls-40" d="M444.68,291.75v-7.91c0-2.73,1.71-4.94,3.83-4.94h37.52c2.11,0,3.83,2.21,3.83,4.94v7.91c0,2.73-1.71,4.94-3.83,4.94h-37.52c-2.11,0-3.83-2.21-3.83-4.94"/><path class="cls-35" d="M449.48,292.41v-9.23c0-2.37,1.49-4.28,3.32-4.28h27.3c1.83,0,3.32,1.92,3.32,4.28v9.23c0,2.36-1.49,4.28-3.32,4.28h-27.3c-1.83,0-3.32-1.92-3.32-4.28"/><path class="cls-44" d="M451.77,294.71v-13.83c0-1.6,1-2.89,2.24-2.89h25.38c1.24,0,2.24,1.29,2.24,2.89v13.83c0,1.6-1,2.89-2.24,2.89h-25.38c-1.24,0-2.24-1.29-2.24-2.89"/><rect class="cls-26" x="458.64" y="277.99" width="17.17" height="19.61"/></g><g><rect class="cls-34" x="726.07" y="453.85" width="26.16" height="75.36" rx=".5" ry=".5" transform="translate(1230.68 -247.62) rotate(90)"/><g><rect class="cls-42" x="723.49" y="463.85" width="31.31" height="55.36" rx=".44" ry=".44" transform="translate(1230.68 -247.62) rotate(90)"/><rect class="cls-15" x="724.04" y="464.83" width="30.21" height="53.41" rx=".42" ry=".42" transform="translate(1230.68 -247.62) rotate(90)"/></g></g><g><rect class="cls-3" x="387.27" y="627" width="41.44" height="127.17" rx=".36" ry=".36" transform="translate(1098.57 282.6) rotate(90)"/><rect class="cls-26" x="387.89" y="648.26" width="45.26" height="84.66" rx=".34" ry=".34" transform="translate(1101.1 280.07) rotate(90)"/><rect class="cls-6" x="389.18" y="648.26" width="42.67" height="84.66" rx=".33" ry=".33" transform="translate(1101.1 280.07) rotate(90)"/><path class="cls-27" d="M351.55,683.93h19.97v12.94c0,.21-.17,.37-.37,.37h-19.22c-.21,0-.37-.17-.37-.37v-12.94h0Z" transform="translate(1052.12 329.05) rotate(90)"/><path class="cls-27" d="M449.66,683.93h19.97v12.94c0,.21-.17,.37-.37,.37h-19.22c-.21,0-.37-.17-.37-.37v-12.94h0Z" transform="translate(-230.94 1150.23) rotate(-90)"/></g><g><rect class="cls-3" x="396.25" y="698.76" width="41.44" height="127.17" rx=".36" ry=".36" transform="translate(1179.31 345.38) rotate(90)"/><rect class="cls-26" x="396.87" y="720.02" width="45.26" height="84.66" rx=".34" ry=".34" transform="translate(1181.85 342.84) rotate(90)"/><rect class="cls-6" x="398.17" y="720.02" width="42.67" height="84.66" rx=".33" ry=".33" transform="translate(1181.85 342.84) rotate(90)"/></g><g><rect class="cls-3" x="372.85" y="567.17" width="41.44" height="127.17" rx=".36" ry=".36" transform="translate(1024.32 237.19) rotate(90)"/><rect class="cls-26" x="373.47" y="588.43" width="45.26" height="84.66" rx=".34" ry=".34" transform="translate(1026.86 234.65) rotate(90)"/><rect class="cls-6" x="374.77" y="588.43" width="42.67" height="84.66" rx=".33" ry=".33" transform="translate(1026.86 234.65) rotate(90)"/></g><g><g><rect class="cls-3" x="479.97" y="538.98" width="108.88" height="22.19" rx=".52" ry=".52" transform="translate(1084.48 15.66) rotate(90)"/><rect class="cls-3" x="423.12" y="538.98" width="108.88" height="22.19" rx=".52" ry=".52" transform="translate(1027.63 72.51) rotate(90)"/><path class="cls-3" d="M517.08,533.24v-33.22c0-2.42-1.96-4.38-4.38-4.38h-13.42c-2.42,0-4.38,1.96-4.38,4.38v33.22h22.19Z"/></g><g><rect class="cls-26" x="478.96" y="505.8" width="54.05" height="85.89" rx=".6" ry=".6" transform="translate(1054.73 42.76) rotate(90)"/><rect class="cls-6" x="481.42" y="505.8" width="49.13" height="85.89" rx=".57" ry=".57" transform="translate(1054.73 42.76) rotate(90)"/></g></g><g><g><rect class="cls-3" x="470.28" y="403.03" width="108.88" height="22.19" rx=".52" ry=".52" transform="translate(938.84 -110.6) rotate(90)"/><rect class="cls-3" x="413.42" y="403.03" width="108.88" height="22.19" rx=".52" ry=".52" transform="translate(881.98 -53.74) rotate(90)"/><path class="cls-3" d="M507.38,397.29v-33.22c0-2.42-1.96-4.38-4.38-4.38h-13.42c-2.42,0-4.38,1.96-4.38,4.38v33.22h22.19Z"/><path class="cls-3" d="M485.2,431.04v33.22c0,2.42,1.96,4.38,4.38,4.38h13.42c2.42,0,4.38-1.96,4.38-4.38v-33.22h-22.19Z"/></g><g><rect class="cls-26" x="469.26" y="369.85" width="54.05" height="85.89" rx=".6" ry=".6" transform="translate(909.08 -83.5) rotate(90)"/><rect class="cls-6" x="471.72" y="369.85" width="49.13" height="85.89" rx=".57" ry=".57" transform="translate(909.08 -83.5) rotate(90)"/></g></g><g><ellipse class="cls-33" cx="229.52" cy="591.89" rx="6.61" ry="7.37"/><ellipse class="cls-33" cx="229.52" cy="684.06" rx="6.61" ry="7.37"/><rect class="cls-9" x="220.84" y="569.6" width="32.3" height="29.28"/><rect class="cls-9" x="220.65" y="679.91" width="32.3" height="29.28"/><rect class="cls-9" x="266.92" y="585.66" width="48.54" height="17.38"/><rect class="cls-9" x="266.92" y="673.86" width="48.54" height="17.38"/><path class="cls-1" d="M204.22,661.96v-45.14c12.09-.94,23.99-1.89,36.08-2.83v50.05c-11.9-.57-23.99-1.32-36.08-2.08Z"/><rect class="cls-5" x="240.29" y="586.98" width="38.34" height="104.07"/><rect class="cls-5" x="230.28" y="581.88" width="37.78" height="112.76"/><path class="cls-25" d="M264.66,674.81v-70.45c0-1.89,1.51-3.4,3.4-3.4h13.41c1.89,0,3.4,1.51,3.4,3.4v70.45c0,1.89-1.51,3.4-3.4,3.4h-13.41c-1.89,0-3.4-1.51-3.4-3.4Z"/><rect class="cls-25" x="234.81" y="580.18" width="36.64" height="117.1"/></g><g><g><rect class="cls-40" x="648.14" y="534.02" width="77.76" height="43.75" rx=".27" ry=".27" transform="translate(1242.92 -131.13) rotate(90)"/><rect class="cls-40" x="566.74" y="534.02" width="77.76" height="43.75" rx=".27" ry=".27" transform="translate(1161.52 -49.73) rotate(90)"/></g><g><path class="cls-44" d="M596.12,578.4v-45.01c0-5.19,3.26-9.4,7.28-9.4h82.58c4.02,0,7.28,4.21,7.28,9.4v45.01c0,5.19-3.26,9.4-7.28,9.4h-82.58c-4.02,0-7.28-4.21-7.28-9.4"/><rect class="cls-26" x="618.47" y="523.99" width="55.89" height="63.81"/></g></g><g><path class="cls-29" d="M476.26,938.84h-89.95c-2.94,0-5.35-2.41-5.35-5.35v-119.43c0-2.94,2.41-5.35,5.35-5.35h89.95c2.94,0,5.35,2.41,5.35,5.35v119.43c0,2.94-2.41,5.35-5.35,5.35"/><path class="cls-23" d="M467.44,928.1h-72.29c-2.22,0-4.03-1.81-4.03-4.03v-101.38c0-2.22,1.81-4.03,4.03-4.03h72.29c2.22,0,4.03,1.81,4.03,4.03v101.38c0,2.22-1.81,4.03-4.03,4.03"/><rect class="cls-4" x="425.6" y="818.62" width="7.48" height="109.48"/><path class="cls-3" d="M451.23,852.46c0,3.5-2.84,6.34-6.34,6.34s-6.34-2.84-6.34-6.34,2.84-6.34,6.34-6.34,6.34,2.84,6.34,6.34"/><path class="cls-3" d="M451.23,895.94c0,3.5-2.84,6.34-6.34,6.34s-6.34-2.84-6.34-6.34,2.84-6.34,6.34-6.34,6.34,2.84,6.34,6.34"/><rect class="cls-23" x="436.92" y="808.71" width="19.52" height="15.88"/></g><g><path class="cls-15" d="M398.46,279.65h12.24c10.42,0,18.95-8.53,18.95-18.95s-8.53-18.95-18.95-18.95h-31.15c-10.42,0-18.95,8.53-18.95,18.95,0,.88,.14,1.73,.26,2.58-.12,.85-.26,1.7-.26,2.58v13.47c0,10.42,8.53,18.95,18.95,18.95s18.74-8.35,18.92-18.63Z"/><path class="cls-3" d="M397.06,277.26h10.91c9.29,0,16.9-7.6,16.9-16.9s-7.6-16.9-16.9-16.9h-27.78c-9.29,0-16.9,7.6-16.9,16.9,0,.79,.13,1.54,.23,2.3-.11,.76-.23,1.51-.23,2.3v12.01c0,9.29,7.6,16.9,16.9,16.9s16.71-7.45,16.87-16.61Z"/></g><g><path class="cls-15" d="M398.46,505.3h12.24c10.42,0,18.95,8.53,18.95,18.95,0,10.42-8.53,18.95-18.95,18.95h-31.15c-10.42,0-18.95-8.53-18.95-18.95,0-.88,.14-1.73,.26-2.58-.12-.85-.26-1.7-.26-2.58v-13.47c0-10.42,8.53-18.95,18.95-18.95,10.31,0,18.74,8.35,18.92,18.63Z"/><path class="cls-3" d="M397.06,507.7h10.91c9.29,0,16.9,7.6,16.9,16.9,0,9.29-7.6,16.9-16.9,16.9h-27.78c-9.29,0-16.9-7.6-16.9-16.9,0-.79,.13-1.54,.23-2.3-.11-.76-.23-1.51-.23-2.3v-12.01c0-9.29,7.6-16.9,16.9-16.9,9.19,0,16.71,7.45,16.87,16.61Z"/></g><g><rect class="cls-15" x="235.53" y="223.1" width="37.9" height="75.2" rx="2.23" ry="2.23" transform="translate(515.18 6.23) rotate(90)"/><rect class="cls-3" x="237.68" y="227.37" width="33.6" height="66.66" rx="1.98" ry="1.98" transform="translate(515.18 6.23) rotate(90)"/></g><g><rect class="cls-15" x="235.53" y="487.9" width="37.9" height="75.2" rx="2.23" ry="2.23" transform="translate(779.98 271.03) rotate(90)"/><rect class="cls-3" x="237.68" y="492.18" width="33.6" height="66.66" rx="1.98" ry="1.98" transform="translate(779.98 271.03) rotate(90)"/></g><rect class="cls-43" x="308.03" y="335.71" width="8.42" height="14.56" transform="translate(655.23 30.75) rotate(90)"/><rect class="cls-43" x="308.03" y="442.56" width="8.42" height="14.56" transform="translate(762.08 137.6) rotate(90)"/><g><rect class="cls-48" x="351.68" y="64.72" width="173.5" height="146.71" rx="1.63" ry="1.63" transform="translate(576.5 -300.35) rotate(90)"/><g><g><rect class="cls-27" x="367.09" y="77.75" width="142.67" height="120.64" rx="1.34" ry="1.34" transform="translate(576.5 -300.35) rotate(90)"/><rect class="cls-27" x="355.79" y="131.56" width="31.59" height="13.03" transform="translate(509.66 -233.51) rotate(90)"/></g><rect class="cls-37" x="361.71" y="131.56" width="142.67" height="13.03" transform="translate(571.12 -294.97) rotate(90)"/></g><g><rect class="cls-45" x="403.48" y="99.86" width="13.45" height="11.79" rx=".23" ry=".23" transform="translate(515.96 -304.45) rotate(90)"/><rect class="cls-7" x="404.14" y="100.43" width="12.14" height="10.64" rx=".21" ry=".21" transform="translate(515.96 -304.45) rotate(90)"/></g><g><rect class="cls-45" x="403.48" y="160.47" width="13.45" height="11.79" rx=".23" ry=".23" transform="translate(576.57 -243.84) rotate(90)"/><rect class="cls-7" x="404.14" y="161.05" width="12.14" height="10.64" rx=".21" ry=".21" transform="translate(576.57 -243.84) rotate(90)"/></g></g><g><path class="cls-8" d="M213.8,75.22h-7.46v61.69h7.47c.05-2.58,2.13-4.65,4.68-4.65s4.63,2.07,4.68,4.65h7.47v-61.69h-7.46c0,2.62-2.1,4.75-4.69,4.75s-4.69-2.12-4.69-4.75"/><rect class="cls-30" x="202.09" y="75.22" width="4.26" height="61.69"/><rect class="cls-41" x="202.08" y="80.81" width="32.82" height="50.52"/><path class="cls-11" d="M213.53,89.25h-7.89v33.65h7.9c.05-1.41,2.25-2.54,4.95-2.54s4.9,1.13,4.95,2.54h7.9v-33.65h-7.89c0,1.43-2.22,2.59-4.96,2.59s-4.96-1.16-4.96-2.59"/><path class="cls-41" d="M218.49,97.52c4.67,0,8.46,3.83,8.46,8.55s-3.79,8.56-8.46,8.56-8.45-3.83-8.45-8.56,3.78-8.55,8.45-8.55"/><path class="cls-31" d="M218.49,99.58c3.54,0,6.41,2.91,6.41,6.5s-2.87,6.49-6.41,6.49-6.41-2.91-6.41-6.49,2.87-6.5,6.41-6.5"/></g><g><path class="cls-8" d="M213.8,744.21h-7.46v61.69h7.47c.05-2.58,2.13-4.65,4.68-4.65s4.63,2.07,4.68,4.65h7.47v-61.69h-7.46c0,2.62-2.1,4.75-4.69,4.75s-4.69-2.12-4.69-4.75"/><rect class="cls-30" x="202.09" y="744.2" width="4.26" height="61.69"/><rect class="cls-41" x="202.08" y="749.79" width="32.82" height="50.52"/><path class="cls-11" d="M213.53,758.23h-7.89v33.65h7.9c.05-1.41,2.25-2.54,4.95-2.54s4.9,1.13,4.95,2.54h7.9v-33.65h-7.89c0,1.43-2.22,2.59-4.96,2.59s-4.96-1.16-4.96-2.59"/><path class="cls-41" d="M218.49,766.5c4.67,0,8.46,3.83,8.46,8.55s-3.79,8.56-8.46,8.56-8.45-3.83-8.45-8.56,3.78-8.55,8.45-8.55"/><path class="cls-31" d="M218.49,768.56c3.54,0,6.41,2.91,6.41,6.5s-2.87,6.49-6.41,6.49-6.41-2.91-6.41-6.49,2.87-6.5,6.41-6.5"/></g><g><path class="cls-8" d="M213.8,853.91h-7.46v61.69h7.47c.05-2.58,2.13-4.65,4.68-4.65s4.63,2.07,4.68,4.65h7.47v-61.69h-7.46c0,2.62-2.1,4.75-4.69,4.75s-4.69-2.12-4.69-4.75"/><rect class="cls-30" x="202.09" y="853.91" width="4.26" height="61.69"/><rect class="cls-41" x="202.08" y="859.49" width="32.82" height="50.52"/><path class="cls-11" d="M213.53,867.93h-7.89v33.65h7.9c.05-1.41,2.25-2.54,4.95-2.54s4.9,1.13,4.95,2.54h7.9v-33.65h-7.89c0,1.43-2.22,2.59-4.96,2.59s-4.96-1.16-4.96-2.59"/><path class="cls-41" d="M218.49,876.2c4.67,0,8.46,3.83,8.46,8.55s-3.79,8.56-8.46,8.56-8.45-3.83-8.45-8.56,3.78-8.55,8.45-8.55"/><path class="cls-31" d="M218.49,878.26c3.54,0,6.41,2.91,6.41,6.5s-2.87,6.49-6.41,6.49-6.41-2.91-6.41-6.49,2.87-6.5,6.41-6.5"/></g><g><g><g><rect class="cls-6" x="381.58" y="271.53" width="22.15" height="39.09" rx=".57" ry=".57" transform="translate(683.73 -101.58) rotate(90)"/><rect class="cls-6" x="381.58" y="474.48" width="22.15" height="39.09" rx=".57" ry=".57" transform="translate(886.68 101.36) rotate(90)"/><rect class="cls-6" x="286.87" y="377.32" width="202.95" height="30.46" transform="translate(780.89 4.2) rotate(90)"/></g><g><rect class="cls-24" x="384.4" y="275.22" width="16.52" height="37.29" rx=".48" ry=".48" transform="translate(686.53 -98.79) rotate(90)"/><rect class="cls-24" x="384.4" y="472.56" width="16.52" height="37.29" rx=".48" ry=".48" transform="translate(883.87 98.55) rotate(90)"/><rect class="cls-24" x="295.85" y="378.02" width="185.38" height="29.06" transform="translate(781.09 4) rotate(90)"/></g></g><g><rect class="cls-46" x="404.05" y="310.47" width="11.29" height="34.93" rx=".16" ry=".16" transform="translate(737.63 -81.76) rotate(90)"/><rect class="cls-28" x="397.54" y="313.2" width="9.67" height="29.46" rx=".56" ry=".56" transform="translate(730.31 -74.44) rotate(90)"/></g><g><rect class="cls-46" x="404.05" y="296.37" width="11.29" height="34.93" rx=".16" ry=".16" transform="translate(723.53 -95.86) rotate(90)"/><rect class="cls-28" x="397.72" y="298.93" width="9.67" height="29.82" rx=".57" ry=".57" transform="translate(716.39 -88.71) rotate(90)"/></g><g><rect class="cls-46" x="404.05" y="324.85" width="11.29" height="34.93" rx=".16" ry=".16" transform="translate(752.01 -67.38) rotate(90)"/><rect class="cls-28" x="397.72" y="327.4" width="9.67" height="29.82" rx=".57" ry=".57" transform="translate(744.86 -60.23) rotate(90)"/></g><g><rect class="cls-46" x="404.05" y="339.08" width="11.29" height="34.93" rx=".16" ry=".16" transform="translate(766.24 -53.15) rotate(90)"/><rect class="cls-28" x="397.72" y="341.64" width="9.67" height="29.82" rx=".57" ry=".57" transform="translate(759.09 -46) rotate(90)"/></g><g><rect class="cls-46" x="404.05" y="353.18" width="11.29" height="34.93" rx=".16" ry=".16" transform="translate(780.34 -39.05) rotate(90)"/><rect class="cls-28" x="397.72" y="355.73" width="9.67" height="29.82" rx=".57" ry=".57" transform="translate(773.19 -31.91) rotate(90)"/></g><g><rect class="cls-46" x="404.05" y="367.56" width="11.29" height="34.93" rx=".16" ry=".16" transform="translate(794.72 -24.67) rotate(90)"/><rect class="cls-28" x="397.72" y="370.11" width="9.67" height="29.82" rx=".57" ry=".57" transform="translate(787.57 -17.53) rotate(90)"/></g><g><rect class="cls-46" x="404.05" y="382.45" width="11.29" height="34.93" rx=".16" ry=".16" transform="translate(809.61 -9.78) rotate(90)"/><rect class="cls-28" x="397.72" y="385.01" width="9.67" height="29.82" rx=".57" ry=".57" transform="translate(802.47 -2.63) rotate(90)"/></g><g><rect class="cls-46" x="404.05" y="396.55" width="11.29" height="34.93" rx=".16" ry=".16" transform="translate(823.71 4.32) rotate(90)"/><rect class="cls-28" x="397.72" y="399.11" width="9.67" height="29.82" rx=".57" ry=".57" transform="translate(816.57 11.47) rotate(90)"/></g><g><rect class="cls-46" x="404.05" y="410.93" width="11.29" height="34.93" rx=".16" ry=".16" transform="translate(838.09 18.7) rotate(90)"/><rect class="cls-28" x="397.72" y="413.49" width="9.67" height="29.82" rx=".57" ry=".57" transform="translate(830.94 25.85) rotate(90)"/></g><g><rect class="cls-46" x="404.05" y="425.31" width="11.29" height="34.93" rx=".16" ry=".16" transform="translate(852.48 33.09) rotate(90)"/><rect class="cls-28" x="397.72" y="427.87" width="9.67" height="29.82" rx=".57" ry=".57" transform="translate(845.33 40.23) rotate(90)"/></g><g><rect class="cls-46" x="404.05" y="439.41" width="11.29" height="34.93" rx=".16" ry=".16" transform="translate(866.58 47.19) rotate(90)"/><rect class="cls-28" x="397.72" y="441.97" width="9.67" height="29.82" rx=".57" ry=".57" transform="translate(859.43 54.33) rotate(90)"/></g><g><rect class="cls-46" x="404.05" y="453.79" width="11.29" height="34.93" rx=".16" ry=".16" transform="translate(880.95 61.56) rotate(90)"/><rect class="cls-28" x="397.72" y="456.35" width="9.67" height="29.82" rx=".57" ry=".57" transform="translate(873.81 68.71) rotate(90)"/></g><g><rect class="cls-24" x="384.4" y="275.22" width="16.52" height="37.29" rx=".48" ry=".48" transform="translate(686.53 -98.79) rotate(90)"/><rect class="cls-24" x="384.4" y="472.56" width="16.52" height="37.29" rx=".48" ry=".48" transform="translate(883.87 98.55) rotate(90)"/><rect class="cls-24" x="295.85" y="378.02" width="185.38" height="29.06" transform="translate(781.09 4) rotate(90)"/></g></g><g><path class="cls-32" d="M402.73,521.4v-52.59h-7.55c-2.55,0-4.63-2.08-4.63-4.63s2.08-4.63,4.63-4.63h7.55c7.21-4.99,6.93-18.81,0-23.56h-7.55c-2.55,0-4.63-2.08-4.63-4.63s2.08-4.63,4.63-4.63h7.55v-66.03h-7.55c-2.55,0-4.63-2.08-4.63-4.63s2.08-4.63,4.63-4.63h7.55c7.35-2.36,7.63-20.11,0-23.56h-7.55c-2.55,0-4.63-2.08-4.63-4.63s2.08-4.63,4.63-4.63h7.55v-52.59c0-4.14-3.38-7.52-7.52-7.52H174.79c-4.14,0-7.52,3.39-7.52,7.52v255.35c0,4.14,3.39,7.52,7.52,7.52h220.41c4.14,0,7.52-3.39,7.52-7.52Z"/><g><rect class="cls-10" x="354.96" y="311.05" width="22.57" height="14.73" rx=".43" ry=".43" transform="translate(684.66 -47.83) rotate(90)"/><rect class="cls-10" x="354.96" y="341.9" width="22.57" height="14.73" rx=".43" ry=".43" transform="translate(715.51 -16.98) rotate(90)"/><rect class="cls-10" x="354.96" y="372.75" width="22.57" height="14.73" rx=".43" ry=".43" transform="translate(746.36 13.87) rotate(90)"/><rect class="cls-10" x="354.96" y="403.6" width="22.57" height="14.73" rx=".43" ry=".43" transform="translate(777.2 44.72) rotate(90)"/><rect class="cls-10" x="354.96" y="434.45" width="22.57" height="14.73" rx=".43" ry=".43" transform="translate(808.05 75.57) rotate(90)"/><rect class="cls-10" x="354.96" y="465.3" width="22.57" height="14.73" rx=".43" ry=".43" transform="translate(838.9 106.42) rotate(90)"/></g><rect class="cls-39" x="305.8" y="335.71" width="21.63" height="14.56" rx=".18" ry=".18" transform="translate(659.61 26.38) rotate(90)"/><rect class="cls-39" x="305.8" y="442.56" width="21.63" height="14.56" rx=".18" ry=".18" transform="translate(766.45 133.23) rotate(90)"/><g><path class="cls-47" d="M390.55,358.67c0,2.37,2.08,4.31,4.63,4.31h7.55v-2.27h-7.55c-2.07,0-3.77-1.4-4.36-3.29-.13,.4-.27,.81-.27,1.25Z"/><path class="cls-47" d="M390.55,428.78c0,.44,.14,.85,.27,1.25,.59-1.88,2.29-3.29,4.36-3.29h7.55v-2.27h-7.55c-2.55,0-4.63,1.94-4.63,4.31Z"/><path class="cls-47" d="M402.73,455.03h-7.55c-2.55,0-4.63,1.94-4.63,4.31,0,.88,.36,1.65,.85,2.34,.83-1.24,2.18-2.12,3.78-2.12h7.55c4.07-2.82,5.67-8.43,5.12-13.65-.42,3.67-2.05,7.15-5.12,9.12Z"/><path class="cls-47" d="M402.73,521.4v-8.79c0,3.85-3.38,7.01-7.52,7.01H174.79c-4.14,0-7.52-3.15-7.52-7.01v8.79c0,4.14,3.39,7.52,7.52,7.52h220.41c4.14,0,7.52-3.39,7.52-7.52Z"/><path class="cls-47" d="M174.79,267.82h220.41c4.14,0,7.52,3.15,7.52,7.01v-8.79c0-4.14-3.38-7.52-7.52-7.52H174.79c-4.14,0-7.52,3.39-7.52,7.52v8.79c0-3.85,3.39-7.01,7.52-7.01Z"/><path class="cls-47" d="M390.55,328.11c0,2.37,2.08,4.31,4.63,4.31h7.55c3.3,1.39,5.03,5.29,5.44,9.43,.53-5.68-1.18-12.03-5.44-13.96h-7.55c-1.6,0-2.95-.87-3.78-2.12-.49,.68-.85,1.46-.85,2.34Z"/></g></g><g><g><rect class="cls-3" x="556.38" y="450.09" width="79.22" height="8.94" rx=".53" ry=".53" transform="translate(1050.56 -141.42) rotate(90)"/><rect class="cls-3" x="540.6" y="450.09" width="79.22" height="8.94" rx=".53" ry=".53" transform="translate(1034.78 -125.64) rotate(90)"/><rect class="cls-3" x="524.82" y="450.09" width="79.22" height="8.94" rx=".53" ry=".53" transform="translate(1019 -109.86) rotate(90)"/></g><rect class="cls-26" x="548.3" y="431.89" width="63.81" height="45.34" rx=".36" ry=".36" transform="translate(1034.78 -125.64) rotate(90)"/><rect class="cls-6" x="549.89" y="431.89" width="60.65" height="45.34" rx=".36" ry=".36" transform="translate(1034.78 -125.64) rotate(90)"/></g></g><g><line class="cls-22" x1="469.23" y1="852.46" x2="639.05" y2="852.46"/><polygon class="cls-36" points="471.13 858.94 459.9 852.46 471.13 845.98 471.13 858.94"/></g><g><line class="cls-17" x1="469.23" y1="895.94" x2="639.05" y2="895.94"/><polygon class="cls-14" points="471.13 902.42 459.9 895.94 471.13 889.46 471.13 902.42"/></g><text class="cls-13" transform="translate(652.75 864.78)"><tspan x="0" y="0">+</tspan></text><text class="cls-12" transform="translate(656.31 906.51)"><tspan x="0" y="0">-</tspan></text><g><line class="cls-17" x1="469.23" y1="116.85" x2="639.05" y2="116.85"/><polygon class="cls-14" points="471.13 123.34 459.9 116.85 471.13 110.37 471.13 123.34"/></g><g><line class="cls-22" x1="469.23" y1="160.33" x2="639.05" y2="160.33"/><polygon class="cls-36" points="471.13 166.81 459.9 160.33 471.13 153.85 471.13 166.81"/></g><text class="cls-12" transform="translate(654.82 126.2)"><tspan x="0" y="0">-</tspan></text><text class="cls-13" transform="translate(651.26 172.39)"><tspan x="0" y="0">+</tspan></text><g><path class="cls-36" d="M688.97,878.96h3.26c.44,4.49,3.19,6.82,8.2,6.82,3.67,0,6.3-1.67,6.3-4.97,0-3.63-3.19-4.49-7.93-5.52-4.67-1.04-8.68-2.37-8.68-7.38,0-4.38,3.63-7.01,9.01-7.01,6.64,0,9.38,3.37,10.05,8.27h-3.15c-.48-3.78-2.93-5.67-6.82-5.67-3.6,0-5.97,1.52-5.97,4.26,0,3,2.97,3.89,6.93,4.67,5.15,1.04,9.86,2.3,9.86,8.27,0,4.97-4.04,7.75-9.75,7.75-7.45,0-11.01-4.15-11.31-9.49Z"/><path class="cls-36" d="M712.33,878.37c0-5.56,3.56-10.09,9.27-10.09s9.23,4.52,9.23,10.09-3.49,10.08-9.23,10.08-9.27-4.52-9.27-10.08Zm15.42,0c0-4.23-2.08-7.6-6.15-7.6s-6.19,3.37-6.19,7.6,2.11,7.56,6.19,7.56,6.15-3.34,6.15-7.56Z"/><path class="cls-36" d="M733.96,861.42h3v26.51h-3v-26.51Z"/><path class="cls-36" d="M752.91,885.26h-.04c-1.15,1.48-3.11,3.04-6.38,3.04-3.63,0-6.49-1.71-6.49-5.34,0-4.52,3.56-5.45,8.34-6.19,2.71-.41,4.6-.67,4.6-2.74s-1.56-3.37-4.3-3.37c-3.11,0-4.67,1.34-4.78,4.23h-2.89c.11-3.71,2.56-6.49,7.64-6.49,4.08,0,7.08,1.52,7.08,6.08v9.12c0,1.56,.37,2.41,2.04,2.04h.11v2.19c-.37,.15-.85,.3-1.63,.3-1.97,0-3-.89-3.3-2.86Zm.07-4.41v-3.26c-1,.63-2.74,1.11-4.38,1.41-3,.56-5.41,1.07-5.41,3.89,0,2.56,2,3.11,3.97,3.11,4,0,5.82-2.93,5.82-5.15Z"/><path class="cls-36" d="M763.07,871.95h.07c1.15-1.85,3.15-3.41,5.71-3.41,.56,0,.85,.08,1.22,.22v2.89h-.11c-.44-.15-.74-.19-1.33-.19-2.97,0-5.56,2.23-5.56,5.82v10.64h-3v-19.17h3v3.19Z"/><path class="cls-36" d="M779.13,861.42h11.05c2.78,0,4.93,.93,6.3,2.56,1.11,1.3,1.78,3.04,1.78,5.04,0,4.86-2.78,7.79-8.56,7.79h-7.23v11.12h-3.34v-26.51Zm3.34,12.68h6.97c3.74,0,5.52-1.89,5.52-4.93,0-3.19-1.96-4.86-5.34-4.86h-7.16v9.79Z"/><path class="cls-36" d="M812.06,885.26h-.04c-1.15,1.48-3.11,3.04-6.38,3.04-3.63,0-6.49-1.71-6.49-5.34,0-4.52,3.56-5.45,8.34-6.19,2.71-.41,4.6-.67,4.6-2.74s-1.56-3.37-4.3-3.37c-3.11,0-4.67,1.34-4.78,4.23h-2.89c.11-3.71,2.56-6.49,7.64-6.49,4.08,0,7.08,1.52,7.08,6.08v9.12c0,1.56,.37,2.41,2.04,2.04h.11v2.19c-.37,.15-.85,.3-1.63,.3-1.97,0-3-.89-3.3-2.86Zm.07-4.41v-3.26c-1,.63-2.74,1.11-4.38,1.41-3,.56-5.41,1.07-5.41,3.89,0,2.56,2,3.11,3.97,3.11,4,0,5.82-2.93,5.82-5.15Z"/><path class="cls-36" d="M822.22,871.28h.07c1.37-1.82,3.3-2.97,6.08-2.97,4,0,6.45,2.19,6.45,6.15v13.46h-3v-13.2c0-2.48-1.63-3.89-4.34-3.89-3.04,0-5.26,2.15-5.26,5.3v11.79h-3v-19.17h3v2.52Z"/><path class="cls-36" d="M837.73,878.37c0-5.56,3.63-10.09,9.09-10.09,5.75,0,8.82,4.45,8.82,10.79h-14.83c.22,3.89,2.34,6.86,6.19,6.86,2.78,0,4.63-1.33,5.3-3.93h2.93c-.89,4.12-3.89,6.45-8.23,6.45-5.86,0-9.27-4.52-9.27-10.08Zm3.15-1.56h11.53c-.19-3.82-2.15-6.16-5.6-6.16s-5.49,2.67-5.93,6.16Z"/><path class="cls-36" d="M858.68,861.42h3v26.51h-3v-26.51Z"/></g><g><path class="cls-36" d="M690.64,125.01h11.23c2.78,0,4.89,.74,6.38,2.3,1.07,1.11,1.71,2.63,1.71,4.52,0,2.93-1.63,4.75-4.26,5.56v.11c3,.7,5.34,2.85,5.34,6.41,0,2.04-.7,3.78-1.93,5.08-1.48,1.59-3.78,2.52-6.64,2.52h-11.83v-26.51Zm10.83,11.35c3.23,0,5.15-1.59,5.15-4.34,0-2.56-1.74-4.12-4.71-4.12h-7.93v8.45h7.49Zm.85,12.16c1.89,0,3.26-.48,4.15-1.33,.74-.78,1.19-1.82,1.19-3.08,0-3.3-2.34-4.93-5.56-4.93h-8.12v9.34h8.34Z"/><path class="cls-36" d="M725.83,148.85h-.04c-1.15,1.48-3.11,3.04-6.38,3.04-3.63,0-6.49-1.71-6.49-5.34,0-4.52,3.56-5.45,8.34-6.19,2.71-.41,4.6-.67,4.6-2.74s-1.56-3.37-4.3-3.37c-3.11,0-4.67,1.34-4.78,4.23h-2.89c.11-3.71,2.56-6.49,7.64-6.49,4.08,0,7.08,1.52,7.08,6.08v9.12c0,1.56,.37,2.41,2.04,2.04h.11v2.19c-.37,.15-.85,.3-1.63,.3-1.97,0-3-.89-3.3-2.86Zm.07-4.41v-3.26c-1,.63-2.74,1.11-4.38,1.41-3,.56-5.41,1.07-5.41,3.89,0,2.56,2,3.11,3.97,3.11,4,0,5.82-2.93,5.82-5.15Z"/><path class="cls-36" d="M731.4,132.35h2.78v-6.04h3v6.04h3.71v2.45h-3.71v12.46c0,1.33,.7,1.78,1.93,1.78,.59,0,1.26-.15,1.59-.26h.11v2.6c-.7,.15-1.52,.26-2.41,.26-2.45,0-4.23-1-4.23-3.71v-13.13h-2.78v-2.45Z"/><path class="cls-36" d="M742.23,132.35h2.78v-6.04h3v6.04h3.71v2.45h-3.71v12.46c0,1.33,.7,1.78,1.93,1.78,.59,0,1.26-.15,1.59-.26h.11v2.6c-.7,.15-1.52,.26-2.41,.26-2.45,0-4.23-1-4.23-3.71v-13.13h-2.78v-2.45Z"/><path class="cls-36" d="M753.58,141.96c0-5.56,3.63-10.09,9.09-10.09,5.75,0,8.82,4.45,8.82,10.79h-14.83c.22,3.89,2.34,6.86,6.19,6.86,2.78,0,4.63-1.33,5.3-3.93h2.93c-.89,4.12-3.89,6.45-8.23,6.45-5.86,0-9.27-4.52-9.27-10.08Zm3.15-1.56h11.53c-.19-3.82-2.15-6.16-5.6-6.16s-5.49,2.67-5.93,6.16Z"/><path class="cls-36" d="M777.42,135.54h.07c1.15-1.85,3.15-3.41,5.71-3.41,.56,0,.85,.08,1.22,.22v2.89h-.11c-.44-.15-.74-.19-1.33-.19-2.97,0-5.56,2.23-5.56,5.82v10.64h-3v-19.17h3v3.19Z"/><path class="cls-36" d="M786.88,157.45v-2.67h.15c.41,.22,1.04,.41,2.04,.41,1.26,0,2.11-.48,2.85-2.34l.74-1.89-7.49-18.61h3.26l4.52,11.94c.59,1.6,1.3,3.74,1.3,3.74h.07s.67-2.15,1.26-3.74l4.38-11.94h3.19l-8.19,20.73c-1.56,3.97-3.04,4.78-5.38,4.78-1.15,0-1.89-.08-2.71-.41Z"/></g></svg>