<?xml version="1.0" encoding="UTF-8"?><svg id="_9012" xmlns="http://www.w3.org/2000/svg" viewBox="0 0 1000 1000"><defs><style>.cls-1{fill:#6f7985;}.cls-2,.cls-3{fill:#fff;}.cls-4{fill:#e9d197;}.cls-5{fill:#e4e9ad;}.cls-6{fill:#343235;}.cls-7{fill:#dbdbdb;}.cls-8{fill:#ca9a2c;}.cls-9{fill:#b6c2cc;}.cls-10{fill:#323134;}.cls-11{fill:#fed10d;}.cls-12{fill:#deaa53;}.cls-13{stroke-width:.83px;}.cls-13,.cls-14,.cls-15,.cls-16,.cls-17{stroke:#fff;stroke-linecap:round;stroke-linejoin:round;}.cls-13,.cls-14,.cls-15,.cls-16,.cls-17,.cls-18{fill:none;}.cls-19{fill:#f3e2c1;}.cls-20{fill:#131313;}.cls-21{fill:#f4ede6;}.cls-22{fill:#0a0a0a;}.cls-23{fill:#e0e0e0;}.cls-24{fill:#ccd3cf;}.cls-3{font-family:NHaasGroteskDSPro-75Bd, 'Neue Haas Grotesk Display Pro';font-size:31.05px;}.cls-25{fill:#f7f1e5;}.cls-26{fill:#a5a8a6;}.cls-27{fill:#feec4e;}.cls-28{fill:#a3988f;}.cls-29{fill:#dcd1a2;}.cls-30{fill:#eaeaea;}.cls-31{fill:#a4a9b8;}.cls-32{fill:#cecbc2;}.cls-14{stroke-width:.62px;}.cls-15{stroke-width:1.05px;}.cls-33{fill:#292929;}.cls-34{fill:#ed1c24;}.cls-35{fill:#78695e;}.cls-36{fill:#bcc1d2;}.cls-16{stroke-width:1.01px;}.cls-37{fill:#e2b12d;}.cls-17{stroke-width:.5px;}.cls-38{fill:#ba8436;}.cls-39{fill:#baaea6;}.cls-40{fill:#eeefeb;}.cls-41{fill:#a09c9f;}.cls-42{fill:#fffefe;}.cls-18{stroke:#ed1c24;stroke-miterlimit:10;stroke-width:2px;}.cls-43{fill:#9b8e83;}.cls-44{fill:#f2f2f2;}</style></defs><g><g><path class="cls-33" d="M700.41,73.97H429.02c-15.18,0-27.49,12.31-27.49,27.49v478.29c.08,1.19,.78,3.95,5.26,5.57,0,0,19.17,8.67,19.17,23.84v53.14s-.73,15.09-14.94,18.66c0,0-8.92,1.53-9.49,13.05v201.95c0,15.18,12.31,27.49,27.49,27.49h271.39c15.18,0,27.49-12.31,27.49-27.49v-129.81c0-15.18,12.31-27.49,27.49-27.49h186.52c15.18,0,27.49-12.31,27.49-27.49V286.24c0-15.18-12.31-27.49-27.49-27.49h-186.52c-15.18,0-27.49-12.31-27.49-27.49V101.46c0-15.18-12.31-27.49-27.49-27.49Zm41.85,603.26c12.3,0,22.28,9.97,22.28,22.28,0,12.3-9.97,22.28-22.28,22.28-12.3,0-22.28-9.97-22.28-22.28,0-12.3,9.97-22.28,22.28-22.28Zm170.44,0c12.3,0,22.28,9.97,22.28,22.28,0,12.3-9.97,22.28-22.28,22.28-12.3,0-22.28-9.97-22.28-22.28,0-12.3,9.97-22.28,22.28-22.28Zm-170.44-398.78c12.3,0,22.28,9.97,22.28,22.28,0,12.3-9.97,22.28-22.28,22.28s-22.28-9.97-22.28-22.28c0-12.3,9.97-22.28,22.28-22.28Zm170.44,0c12.3,0,22.28,9.97,22.28,22.28s-9.97,22.28-22.28,22.28c-12.3,0-22.28-9.97-22.28-22.28,0-12.3,9.97-22.28,22.28-22.28Z"/><path class="cls-12" d="M912.7,662.27c-20.57,0-37.24,16.67-37.24,37.24,0,20.57,16.67,37.24,37.24,37.24,20.57,0,37.24-16.67,37.24-37.24,0-20.57-16.67-37.24-37.24-37.24Zm0,14.96c12.3,0,22.28,9.97,22.28,22.28,0,12.3-9.97,22.28-22.28,22.28-12.3,0-22.28-9.97-22.28-22.28,0-12.3,9.97-22.28,22.28-22.28Z"/><path class="cls-12" d="M912.7,263.68c-20.46,0-37.05,16.59-37.05,37.05,0,20.46,16.59,37.05,37.05,37.05,20.46,0,37.05-16.59,37.05-37.05,0-20.46-16.59-37.05-37.05-37.05Zm0,14.77c12.3,0,22.28,9.97,22.28,22.28s-9.97,22.28-22.28,22.28c-12.3,0-22.28-9.97-22.28-22.28,0-12.3,9.97-22.28,22.28-22.28Z"/><path class="cls-12" d="M742.26,662.58c-20.39,0-36.93,16.53-36.93,36.93,0,20.39,16.53,36.93,36.93,36.93,20.39,0,36.93-16.53,36.93-36.93,0-20.39-16.53-36.93-36.93-36.93Zm0,14.65c12.3,0,22.28,9.97,22.28,22.28,0,12.3-9.97,22.28-22.28,22.28-12.3,0-22.28-9.97-22.28-22.28s9.97-22.28,22.28-22.28Z"/><path class="cls-12" d="M742.26,263.99c-20.29,0-36.73,16.45-36.73,36.73,0,20.29,16.45,36.73,36.73,36.73,20.29,0,36.73-16.45,36.73-36.73,0-20.29-16.45-36.73-36.73-36.73Zm0,14.46c12.3,0,22.28,9.97,22.28,22.28,0,12.3-9.97,22.28-22.28,22.28-12.3,0-22.28-9.97-22.28-22.28,0-12.3,9.97-22.28,22.28-22.28Z"/></g><g><rect class="cls-17" x="430.86" y="113.86" width="56.93" height="32.53" rx=".9" ry=".9" transform="translate(589.44 -329.19) rotate(90)"/><rect class="cls-17" x="477.13" y="178.05" width="56.93" height="32.53" rx=".9" ry=".9" transform="translate(699.91 -311.28) rotate(90)"/><rect class="cls-17" x="628.54" y="287.55" width="56.93" height="32.53" rx=".9" ry=".9" transform="translate(1314 607.63) rotate(-180)"/><rect class="cls-17" x="569.69" y="557.27" width="54.2" height="29.24" rx=".84" ry=".84" transform="translate(1193.58 1143.78) rotate(-180)"/><rect class="cls-17" x="793.66" y="371.44" width="55.23" height="28.92" rx=".52" ry=".52" transform="translate(1207.17 -435.38) rotate(90)"/><rect class="cls-17" x="879.12" y="363.63" width="55.23" height="28.92" rx=".52" ry=".52" transform="translate(1284.82 -528.64) rotate(90)"/><rect class="cls-17" x="890.42" y="445.87" width="55.23" height="28.92" rx=".52" ry=".52"/><rect class="cls-17" x="868.27" y="474.79" width="81.48" height="37.37" rx=".72" ry=".72"/><rect class="cls-17" x="805.34" y="434.56" width="55.23" height="28.92" rx=".52" ry=".52" transform="translate(1281.98 -383.94) rotate(90)"/><rect class="cls-17" x="735.07" y="358.28" width="55.23" height="55.23" rx=".72" ry=".72" transform="translate(1148.58 -376.78) rotate(90)"/><path class="cls-17" d="M823.53,476.63h-33.86c-1.65,0-2.99-1.34-2.99-2.99v-50.79h26.58"/><rect class="cls-17" x="799.52" y="463.8" width="33.2" height="58.86" rx=".42" ry=".42" transform="translate(1309.35 -322.89) rotate(90)"/><polyline class="cls-17" points="786.69 505.2 735.07 505.2 735.07 400.57"/><path class="cls-17" d="M648.82,595.8v-106.88h86.25v104.15s1.13,10.55-10.55,10.55"/><polyline class="cls-17" points="651.4 603.61 704.07 603.61 704.07 632.46 651.4 632.46"/><rect class="cls-17" x="718.04" y="589.63" width="28.85" height="56.81" rx=".59" ry=".59" transform="translate(1350.51 -114.44) rotate(90)"/><rect class="cls-17" x="775.87" y="589.63" width="28.85" height="56.81" rx=".59" ry=".59" transform="translate(1408.33 -172.26) rotate(90)"/><rect class="cls-17" x="893.05" y="545.39" width="28.85" height="53.25" rx=".57" ry=".57"/><line class="cls-17" x1="864.65" y1="598.64" x2="781" y2="598.64"/><line class="cls-17" x1="869.43" y1="509.83" x2="840.12" y2="509.83"/><line class="cls-17" x1="628.55" y1="593.06" x2="546.06" y2="593.06"/><rect class="cls-17" x="576.17" y="614.29" width="49.96" height="128.38" rx=".54" ry=".54" transform="translate(1279.63 77.33) rotate(90)"/><rect class="cls-2" x="650.52" y="670.26" width="54.46" height="15.42" rx=".35" ry=".35" transform="translate(1355.72 .22) rotate(90)"/><line class="cls-13" x1="718.79" y1="825.83" x2="685.46" y2="825.83"/><line class="cls-13" x1="718.79" y1="879.79" x2="685.46" y2="879.79"/><line class="cls-16" x1="505.6" y1="98.17" x2="554.23" y2="98.17"/><line class="cls-16" x1="411.82" y1="96.19" x2="439.61" y2="96.19"/><line class="cls-13" x1="648.82" y1="715.46" x2="569.69" y2="715.46"/><line class="cls-13" x1="702.13" y1="842.5" x2="702.13" y2="809.17"/><line class="cls-15" x1="550.94" y1="238.59" x2="508.89" y2="238.59"/><line class="cls-15" x1="529.92" y1="259.62" x2="529.92" y2="217.56"/><line class="cls-14" x1="536.96" y1="741.13" x2="512.08" y2="741.13"/><line class="cls-14" x1="524.52" y1="753.57" x2="524.52" y2="728.68"/><line class="cls-14" x1="516.3" y1="618.04" x2="491.41" y2="618.04"/><line class="cls-14" x1="503.85" y1="630.48" x2="503.85" y2="605.59"/><rect class="cls-17" x="557.43" y="793.83" width="129.59" height="111.01" rx="1.01" ry="1.01" transform="translate(1471.56 227.11) rotate(90)"/><rect class="cls-17" x="544.62" y="91.57" width="169.28" height="145.74" rx="1.32" ry="1.32" transform="translate(793.7 -464.82) rotate(90)"/><path class="cls-2" d="M541.54,851.52c0,2.39,1.64,.47,2.26-.2l16.68-17.81c.75-.8,.75-2.09,0-2.89l-16.68-17.81c-.62-.67-2.26-2.12-2.26-.2v38.91Z"/><path class="cls-2" d="M527.08,154c0,2.39,1.64,.47,2.26-.2l16.68-17.81c.75-.8,.75-2.09,0-2.89l-16.68-17.81c-.62-.67-2.26-2.12-2.26-.2v38.91Z"/><line class="cls-17" x1="728.46" y1="393.65" x2="728.46" y2="439.01"/><line class="cls-17" x1="638.43" y1="393.65" x2="638.43" y2="410.31"/><line class="cls-17" x1="638.43" y1="424.63" x2="638.43" y2="441.29"/><polyline class="cls-14" points="497.66 560.95 497.66 546.26 414.78 546.26 414.78 571.89"/><polyline class="cls-14" points="497.66 697.65 497.66 712.33 414.78 712.33 414.78 686.71"/><line class="cls-14" x1="444.09" y1="730.82" x2="444.09" y2="778.59"/><line class="cls-14" x1="444.09" y1="835.63" x2="444.09" y2="883.41"/><rect class="cls-2" x="422.54" y="800.15" width="8.76" height="31.76" rx=".16" ry=".16" transform="translate(1242.95 389.11) rotate(90)"/><circle class="cls-2" cx="632.81" cy="457.75" r="10.14"/><circle class="cls-2" cx="721.69" cy="480.98" r="6.49"/><circle class="cls-2" cx="744.53" cy="511.13" r="6.05"/><circle class="cls-2" cx="538.13" cy="578.77" r="14.3"/><line class="cls-17" x1="698.7" y1="596.32" x2="680.15" y2="596.32"/><line class="cls-17" x1="550.94" y1="275.63" x2="497.66" y2="275.63"/><line class="cls-17" x1="416.98" y1="275.63" x2="407.17" y2="275.63"/><line class="cls-17" x1="608.41" y1="303.82" x2="608.41" y2="319.43"/><line class="cls-17" x1="550.94" y1="536.71" x2="497.66" y2="536.71"/><line class="cls-17" x1="416.98" y1="536.71" x2="407.17" y2="536.71"/><line class="cls-17" x1="608.41" y1="498.71" x2="608.41" y2="483.1"/><text class="cls-3" transform="translate(811.53 324.11) rotate(-90)"><tspan x="0" y="0">M1</tspan></text><text class="cls-3" transform="translate(861.29 324.11) rotate(-90)"><tspan x="0" y="0">M4</tspan></text><text class="cls-3" transform="translate(811.53 718.98) rotate(-90)"><tspan x="0" y="0">M2</tspan></text><text class="cls-3" transform="translate(861.29 718.98) rotate(-90)"><tspan x="0" y="0">M3</tspan></text><path class="cls-2" d="M959.1,297.91c0-16.47-8.64-30.92-21.6-39.16h-8.45c15.31,6.42,26.09,21.55,26.09,39.16,0,23.4-19.04,42.45-42.45,42.45s-42.45-19.04-42.45-42.45c0-17.61,10.79-32.74,26.09-39.16h-8.45c-12.96,8.24-21.6,22.69-21.6,39.16,0,25.59,20.81,46.41,46.41,46.41s46.41-20.82,46.41-46.41Z"/><path class="cls-2" d="M788.67,297.91c0-16.47-8.64-30.92-21.6-39.16h-8.45c15.31,6.42,26.09,21.55,26.09,39.16,0,23.4-19.04,42.45-42.45,42.45s-42.45-19.04-42.45-42.45,19.04-42.45,42.45-42.45c.21,0,.41,.06,.62,.06-1.99-1.04-3.83-2.29-5.5-3.76-23.31,2.45-41.53,22.2-41.53,46.15,0,25.59,20.82,46.41,46.41,46.41s46.41-20.82,46.41-46.41Z"/><path class="cls-2" d="M755.7,738.56h6.46c15.65-7.47,26.51-23.4,26.51-41.87,0-25.59-20.81-46.41-46.41-46.41s-46.41,20.82-46.41,46.41,19.98,45.5,44.85,46.33c4.33-2.8,9.46-4.47,15-4.47Zm-55.89-41.87c0-23.41,19.04-42.45,42.45-42.45s42.45,19.04,42.45,42.45-19.04,42.45-42.45,42.45-42.45-19.04-42.45-42.45Z"/><path class="cls-2" d="M907.9,738.66c-21.12-2.42-37.65-20.2-37.65-41.97,0-23.41,19.04-42.45,42.45-42.45s42.45,19.04,42.45,42.45c0,21.76-16.52,39.55-37.65,41.97h14.89c15.76-7.43,26.72-23.42,26.72-41.97,0-25.59-20.81-46.41-46.41-46.41s-46.41,20.82-46.41,46.41c0,18.55,10.96,34.54,26.72,41.97h14.89Z"/></g><g><path class="cls-36" d="M897.25,463.97v-7.28c0-2.51,1.58-4.55,3.52-4.55h34.52c1.95,0,3.52,2.04,3.52,4.55v7.28c0,2.51-1.58,4.55-3.52,4.55h-34.52c-1.95,0-3.52-2.04-3.52-4.55"/><path class="cls-31" d="M901.67,464.57v-8.49c0-2.18,1.37-3.94,3.05-3.94h25.12c1.69,0,3.05,1.76,3.05,3.94v8.49c0,2.18-1.37,3.94-3.05,3.94h-25.12c-1.69,0-3.05-1.77-3.05-3.94"/><path class="cls-40" d="M903.78,466.69v-12.73c0-1.47,.92-2.66,2.06-2.66h23.35c1.14,0,2.06,1.19,2.06,2.66v12.73c0,1.47-.92,2.66-2.06,2.66h-23.35c-1.14,0-2.06-1.19-2.06-2.66"/><rect class="cls-12" x="910.1" y="451.31" width="15.8" height="18.04"/></g><g><path class="cls-36" d="M651.82,621.67v-7.28c0-2.51,1.58-4.55,3.52-4.55h34.52c1.95,0,3.52,2.04,3.52,4.55v7.28c0,2.51-1.58,4.55-3.52,4.55h-34.52c-1.95,0-3.52-2.04-3.52-4.55"/><path class="cls-31" d="M656.24,622.28v-8.49c0-2.18,1.37-3.94,3.05-3.94h25.12c1.69,0,3.05,1.76,3.05,3.94v8.49c0,2.18-1.37,3.94-3.05,3.94h-25.12c-1.69,0-3.05-1.77-3.05-3.94"/><path class="cls-40" d="M658.35,624.4v-12.73c0-1.47,.92-2.66,2.06-2.66h23.35c1.14,0,2.06,1.19,2.06,2.66v12.73c0,1.47-.92,2.66-2.06,2.66h-23.35c-1.14,0-2.06-1.19-2.06-2.66"/><rect class="cls-12" x="664.67" y="609.02" width="15.8" height="18.04"/></g><g><path class="cls-36" d="M576.01,575.53v-7.28c0-2.51,1.58-4.55,3.52-4.55h34.52c1.95,0,3.52,2.04,3.52,4.55v7.28c0,2.51-1.58,4.55-3.52,4.55h-34.52c-1.95,0-3.52-2.04-3.52-4.55"/><path class="cls-31" d="M580.43,576.13v-8.49c0-2.18,1.37-3.94,3.05-3.94h25.12c1.69,0,3.05,1.76,3.05,3.94v8.49c0,2.18-1.37,3.94-3.05,3.94h-25.12c-1.69,0-3.05-1.77-3.05-3.94"/><path class="cls-40" d="M582.54,578.25v-12.73c0-1.47,.92-2.66,2.06-2.66h23.35c1.14,0,2.06,1.19,2.06,2.66v12.73c0,1.47-.92,2.66-2.06,2.66h-23.35c-1.14,0-2.06-1.19-2.06-2.66"/><rect class="cls-12" x="588.86" y="562.87" width="15.8" height="18.04"/></g><g><path class="cls-36" d="M911.12,398.87h-7.28c-2.51,0-4.55-1.58-4.55-3.52v-34.52c0-1.95,2.04-3.52,4.55-3.52h7.28c2.51,0,4.55,1.58,4.55,3.52v34.52c0,1.95-2.04,3.52-4.55,3.52"/><path class="cls-31" d="M911.72,394.45h-8.49c-2.18,0-3.94-1.37-3.94-3.05v-25.12c0-1.69,1.76-3.05,3.94-3.05h8.49c2.18,0,3.94,1.37,3.94,3.05v25.12c0,1.69-1.77,3.05-3.94,3.05"/><path class="cls-40" d="M913.84,392.34h-12.73c-1.47,0-2.66-.92-2.66-2.06v-23.35c0-1.14,1.19-2.06,2.66-2.06h12.73c1.47,0,2.66,.92,2.66,2.06v23.35c0,1.14-1.19,2.06-2.66,2.06"/><rect class="cls-12" x="898.46" y="370.22" width="18.04" height="15.8"/></g><g><path class="cls-36" d="M824.91,406.68h-7.28c-2.51,0-4.55-1.58-4.55-3.52v-34.52c0-1.95,2.04-3.52,4.55-3.52h7.28c2.51,0,4.55,1.58,4.55,3.52v34.52c0,1.95-2.04,3.52-4.55,3.52"/><path class="cls-31" d="M825.52,402.26h-8.49c-2.18,0-3.94-1.37-3.94-3.05v-25.12c0-1.69,1.76-3.05,3.94-3.05h8.49c2.18,0,3.94,1.37,3.94,3.05v25.12c0,1.69-1.77,3.05-3.94,3.05"/><path class="cls-40" d="M827.64,400.15h-12.73c-1.47,0-2.66-.92-2.66-2.06v-23.35c0-1.14,1.19-2.06,2.66-2.06h12.73c1.47,0,2.66,.92,2.66,2.06v23.35c0,1.14-1.19,2.06-2.66,2.06"/><rect class="cls-12" x="812.25" y="378.03" width="18.04" height="15.8"/></g><g><path class="cls-36" d="M779.6,406.68h-7.28c-2.51,0-4.55-1.58-4.55-3.52v-34.52c0-1.95,2.04-3.52,4.55-3.52h7.28c2.51,0,4.55,1.58,4.55,3.52v34.52c0,1.95-2.04,3.52-4.55,3.52"/><path class="cls-31" d="M780.21,402.26h-8.49c-2.18,0-3.94-1.37-3.94-3.05v-25.12c0-1.69,1.76-3.05,3.94-3.05h8.49c2.18,0,3.94,1.37,3.94,3.05v25.12c0,1.69-1.77,3.05-3.94,3.05"/><path class="cls-40" d="M782.33,400.15h-12.73c-1.47,0-2.66-.92-2.66-2.06v-23.35c0-1.14,1.19-2.06,2.66-2.06h12.73c1.47,0,2.66,.92,2.66,2.06v23.35c0,1.14-1.19,2.06-2.66,2.06"/><rect class="cls-12" x="766.95" y="378.03" width="18.04" height="15.8"/></g><g><path class="cls-36" d="M754.23,406.68h-7.28c-2.51,0-4.55-1.58-4.55-3.52v-34.52c0-1.95,2.04-3.52,4.55-3.52h7.28c2.51,0,4.55,1.58,4.55,3.52v34.52c0,1.95-2.04,3.52-4.55,3.52"/><path class="cls-31" d="M754.83,402.26h-8.49c-2.18,0-3.94-1.37-3.94-3.05v-25.12c0-1.69,1.76-3.05,3.94-3.05h8.49c2.18,0,3.94,1.37,3.94,3.05v25.12c0,1.69-1.77,3.05-3.94,3.05"/><path class="cls-40" d="M756.95,400.15h-12.73c-1.47,0-2.66-.92-2.66-2.06v-23.35c0-1.14,1.19-2.06,2.66-2.06h12.73c1.47,0,2.66,.92,2.66,2.06v23.35c0,1.14-1.19,2.06-2.66,2.06"/><rect class="cls-12" x="741.57" y="378.03" width="18.04" height="15.8"/></g><g><path class="cls-36" d="M903.8,551.01h7.36c2.54,0,4.6,1.6,4.6,3.56v34.93c0,1.97-2.06,3.56-4.6,3.56h-7.36c-2.54,0-4.6-1.6-4.6-3.56v-34.93c0-1.97,2.06-3.56,4.6-3.56"/><path class="cls-31" d="M903.19,555.48h8.59c2.2,0,3.99,1.38,3.99,3.09v25.41c0,1.71-1.78,3.09-3.99,3.09h-8.59c-2.2,0-3.99-1.38-3.99-3.09v-25.41c0-1.71,1.79-3.09,3.99-3.09"/><path class="cls-40" d="M901.04,557.61h12.87c1.49,0,2.69,.93,2.69,2.08v23.62c0,1.15-1.2,2.08-2.69,2.08h-12.87c-1.49,0-2.69-.93-2.69-2.08v-23.62c0-1.15,1.2-2.08,2.69-2.08"/><rect class="cls-22" x="898.35" y="564.01" width="18.25" height="15.99"/></g><g><path class="cls-36" d="M829.05,428.72h7.36c2.54,0,4.6,1.6,4.6,3.56v34.93c0,1.97-2.06,3.56-4.6,3.56h-7.36c-2.54,0-4.6-1.6-4.6-3.56v-34.93c0-1.97,2.06-3.56,4.6-3.56"/><path class="cls-31" d="M828.44,433.19h8.59c2.2,0,3.99,1.38,3.99,3.09v25.41c0,1.71-1.78,3.09-3.99,3.09h-8.59c-2.2,0-3.99-1.38-3.99-3.09v-25.41c0-1.71,1.79-3.09,3.99-3.09"/><path class="cls-40" d="M826.3,435.32h12.87c1.49,0,2.69,.93,2.69,2.08v23.62c0,1.15-1.2,2.08-2.69,2.08h-12.87c-1.49,0-2.69-.93-2.69-2.08v-23.62c0-1.15,1.2-2.08,2.69-2.08"/><rect class="cls-22" x="823.61" y="441.72" width="18.25" height="15.99"/></g><g><path class="cls-36" d="M798.6,428.72h7.36c2.54,0,4.6,1.6,4.6,3.56v34.93c0,1.97-2.06,3.56-4.6,3.56h-7.36c-2.54,0-4.6-1.6-4.6-3.56v-34.93c0-1.97,2.06-3.56,4.6-3.56"/><path class="cls-31" d="M797.99,433.19h8.59c2.2,0,3.99,1.38,3.99,3.09v25.41c0,1.71-1.78,3.09-3.99,3.09h-8.59c-2.2,0-3.99-1.38-3.99-3.09v-25.41c0-1.71,1.79-3.09,3.99-3.09"/><path class="cls-40" d="M795.84,435.32h12.87c1.49,0,2.69,.93,2.69,2.08v23.62c0,1.15-1.2,2.08-2.69,2.08h-12.87c-1.49,0-2.69-.93-2.69-2.08v-23.62c0-1.15,1.2-2.08,2.69-2.08"/><rect class="cls-22" x="793.16" y="441.72" width="18.25" height="15.99"/></g><g><path class="cls-36" d="M501.92,173.29h7.36c2.54,0,4.6,1.6,4.6,3.56v34.93c0,1.97-2.06,3.56-4.6,3.56h-7.36c-2.54,0-4.6-1.6-4.6-3.56v-34.93c0-1.97,2.06-3.56,4.6-3.56"/><path class="cls-31" d="M501.3,177.76h8.59c2.2,0,3.99,1.38,3.99,3.09v25.41c0,1.71-1.78,3.09-3.99,3.09h-8.59c-2.2,0-3.99-1.38-3.99-3.09v-25.41c0-1.71,1.79-3.09,3.99-3.09"/><path class="cls-40" d="M499.16,179.89h12.87c1.49,0,2.69,.93,2.69,2.08v23.62c0,1.15-1.2,2.08-2.69,2.08h-12.87c-1.49,0-2.69-.93-2.69-2.08v-23.62c0-1.15,1.2-2.08,2.69-2.08"/><rect class="cls-22" x="496.47" y="186.28" width="18.25" height="15.99"/></g><g><path class="cls-36" d="M455.64,109.1h7.36c2.54,0,4.6,1.6,4.6,3.56v34.93c0,1.97-2.06,3.56-4.6,3.56h-7.36c-2.54,0-4.6-1.6-4.6-3.56v-34.93c0-1.97,2.06-3.56,4.6-3.56"/><path class="cls-31" d="M455.02,113.57h8.59c2.2,0,3.99,1.38,3.99,3.09v25.41c0,1.71-1.78,3.09-3.99,3.09h-8.59c-2.2,0-3.99-1.38-3.99-3.09v-25.41c0-1.71,1.79-3.09,3.99-3.09"/><path class="cls-40" d="M452.88,115.7h12.87c1.49,0,2.69,.93,2.69,2.08v23.62c0,1.15-1.2,2.08-2.69,2.08h-12.87c-1.49,0-2.69-.93-2.69-2.08v-23.62c0-1.15,1.2-2.08,2.69-2.08"/><rect class="cls-22" x="450.19" y="122.1" width="18.25" height="15.99"/></g><g><path class="cls-36" d="M796.29,496.11v-7.36c0-2.54,1.6-4.6,3.56-4.6h34.93c1.97,0,3.56,2.06,3.56,4.6v7.36c0,2.54-1.6,4.6-3.56,4.6h-34.93c-1.97,0-3.56-2.06-3.56-4.6"/><path class="cls-31" d="M800.76,496.72v-8.59c0-2.2,1.38-3.99,3.09-3.99h25.41c1.71,0,3.09,1.78,3.09,3.99v8.59c0,2.2-1.38,3.99-3.09,3.99h-25.41c-1.71,0-3.09-1.79-3.09-3.99"/><path class="cls-40" d="M802.89,498.86v-12.87c0-1.49,.93-2.69,2.08-2.69h23.62c1.15,0,2.08,1.2,2.08,2.69v12.87c0,1.49-.93,2.69-2.08,2.69h-23.62c-1.15,0-2.08-1.2-2.08-2.69"/><rect class="cls-22" x="809.29" y="483.3" width="15.99" height="18.25"/></g><g><path class="cls-36" d="M768.3,621.72v-7.36c0-2.54,1.6-4.6,3.56-4.6h34.93c1.97,0,3.56,2.06,3.56,4.6v7.36c0,2.54-1.6,4.6-3.56,4.6h-34.93c-1.97,0-3.56-2.06-3.56-4.6"/><path class="cls-31" d="M772.77,622.33v-8.59c0-2.2,1.38-3.99,3.09-3.99h25.41c1.71,0,3.09,1.78,3.09,3.99v8.59c0,2.2-1.38,3.99-3.09,3.99h-25.41c-1.71,0-3.09-1.79-3.09-3.99"/><path class="cls-40" d="M774.91,624.47v-12.87c0-1.49,.93-2.69,2.08-2.69h23.62c1.15,0,2.08,1.2,2.08,2.69v12.87c0,1.49-.93,2.69-2.08,2.69h-23.62c-1.15,0-2.08-1.2-2.08-2.69"/><rect class="cls-22" x="781.3" y="608.91" width="15.99" height="18.25"/></g><g><path class="cls-36" d="M711.44,621.72v-7.36c0-2.54,1.6-4.6,3.56-4.6h34.93c1.97,0,3.56,2.06,3.56,4.6v7.36c0,2.54-1.6,4.6-3.56,4.6h-34.93c-1.97,0-3.56-2.06-3.56-4.6"/><path class="cls-31" d="M715.91,622.33v-8.59c0-2.2,1.38-3.99,3.09-3.99h25.41c1.71,0,3.09,1.78,3.09,3.99v8.59c0,2.2-1.38,3.99-3.09,3.99h-25.41c-1.71,0-3.09-1.79-3.09-3.99"/><path class="cls-40" d="M718.05,624.47v-12.87c0-1.49,.93-2.69,2.08-2.69h23.62c1.15,0,2.08,1.2,2.08,2.69v12.87c0,1.49-.93,2.69-2.08,2.69h-23.62c-1.15,0-2.08-1.2-2.08-2.69"/><rect class="cls-22" x="724.44" y="608.91" width="15.99" height="18.25"/></g><g><path class="cls-36" d="M634.89,307.5v-7.36c0-2.54,1.6-4.6,3.56-4.6h34.93c1.97,0,3.56,2.06,3.56,4.6v7.36c0,2.54-1.6,4.6-3.56,4.6h-34.93c-1.97,0-3.56-2.06-3.56-4.6"/><path class="cls-31" d="M639.36,308.11v-8.59c0-2.2,1.38-3.99,3.09-3.99h25.41c1.71,0,3.09,1.78,3.09,3.99v8.59c0,2.2-1.38,3.99-3.09,3.99h-25.41c-1.71,0-3.09-1.79-3.09-3.99"/><path class="cls-40" d="M641.49,310.25v-12.87c0-1.49,.93-2.69,2.08-2.69h23.62c1.15,0,2.08,1.2,2.08,2.69v12.87c0,1.49-.93,2.69-2.08,2.69h-23.62c-1.15,0-2.08-1.2-2.08-2.69"/><rect class="cls-22" x="647.89" y="294.69" width="15.99" height="18.25"/></g><g><rect class="cls-30" x="896.83" y="458.4" width="24.35" height="70.15" rx=".5" ry=".5" transform="translate(1402.48 -415.54) rotate(90)"/><g><rect class="cls-38" x="894.43" y="467.7" width="29.15" height="51.54" rx=".44" ry=".44" transform="translate(1402.48 -415.54) rotate(90)"/><rect class="cls-12" x="894.95" y="468.61" width="28.12" height="49.72" rx=".42" ry=".42" transform="translate(1402.48 -415.54) rotate(90)"/></g></g><g><rect class="cls-2" x="581.44" y="619.58" width="38.57" height="118.38" rx=".36" ry=".36" transform="translate(1279.49 78.04) rotate(90)"/><rect class="cls-22" x="582.02" y="639.36" width="42.13" height="78.81" rx=".34" ry=".34" transform="translate(1281.85 75.68) rotate(90)"/><rect class="cls-6" x="583.23" y="639.36" width="39.72" height="78.81" rx=".33" ry=".33" transform="translate(1281.85 75.68) rotate(90)"/><path class="cls-23" d="M548.19,672.57h18.59v12.02c0,.21-.17,.37-.37,.37h-17.84c-.21,0-.37-.17-.37-.37v-12.02h0Z" transform="translate(1236.25 121.28) rotate(90)"/><path class="cls-23" d="M639.52,672.57h18.59v12.02c0,.21-.17,.37-.37,.37h-17.84c-.21,0-.37-.17-.37-.37v-12.02h0Z" transform="translate(-29.95 1327.58) rotate(-90)"/></g><g><rect class="cls-2" x="589.8" y="686.38" width="38.57" height="118.38" rx=".36" ry=".36" transform="translate(1354.66 136.48) rotate(90)"/><rect class="cls-22" x="590.39" y="706.17" width="42.13" height="78.81" rx=".34" ry=".34" transform="translate(1357.02 134.12) rotate(90)"/><rect class="cls-6" x="591.59" y="706.17" width="39.72" height="78.81" rx=".33" ry=".33" transform="translate(1357.02 134.12) rotate(90)"/></g><g><rect class="cls-2" x="568.02" y="563.88" width="38.57" height="118.38" rx=".36" ry=".36" transform="translate(1210.38 35.76) rotate(90)"/><rect class="cls-22" x="568.6" y="583.67" width="42.13" height="78.81" rx=".34" ry=".34" transform="translate(1212.74 33.4) rotate(90)"/><rect class="cls-6" x="569.81" y="583.67" width="39.72" height="78.81" rx=".33" ry=".33" transform="translate(1212.74 33.4) rotate(90)"/></g><g><g><rect class="cls-2" x="667.74" y="537.64" width="101.36" height="20.65" rx=".52" ry=".52" transform="translate(1266.38 -170.46) rotate(90)"/><rect class="cls-2" x="614.82" y="537.64" width="101.36" height="20.65" rx=".52" ry=".52" transform="translate(1213.46 -117.53) rotate(90)"/><path class="cls-2" d="M702.28,532.29v-30.93c0-2.25-1.83-4.08-4.08-4.08h-12.5c-2.25,0-4.08,1.83-4.08,4.08v30.93h20.65Z"/></g><g><rect class="cls-22" x="666.8" y="506.75" width="50.32" height="79.96" rx=".6" ry=".6" transform="translate(1238.69 -145.23) rotate(90)"/><rect class="cls-6" x="669.09" y="506.75" width="45.74" height="79.96" rx=".57" ry=".57" transform="translate(1238.69 -145.23) rotate(90)"/></g></g><g><g><rect class="cls-2" x="658.72" y="411.08" width="101.36" height="20.65" rx=".52" ry=".52" transform="translate(1130.8 -287.99) rotate(90)"/><rect class="cls-2" x="605.79" y="411.08" width="101.36" height="20.65" rx=".52" ry=".52" transform="translate(1077.88 -235.06) rotate(90)"/><path class="cls-2" d="M693.26,405.74v-30.93c0-2.25-1.83-4.08-4.08-4.08h-12.5c-2.25,0-4.08,1.83-4.08,4.08v30.93h20.65Z"/><path class="cls-2" d="M672.61,437.16v30.93c0,2.25,1.83,4.08,4.08,4.08h12.5c2.25,0,4.08-1.83,4.08-4.08v-30.93h-20.65Z"/></g><g><rect class="cls-22" x="657.77" y="380.19" width="50.32" height="79.96" rx=".6" ry=".6" transform="translate(1103.11 -262.76) rotate(90)"/><rect class="cls-6" x="660.06" y="380.19" width="45.74" height="79.96" rx=".57" ry=".57" transform="translate(1103.11 -262.76) rotate(90)"/></g></g><g><ellipse class="cls-29" cx="434.6" cy="586.89" rx="6.15" ry="6.86"/><ellipse class="cls-29" cx="434.6" cy="672.69" rx="6.15" ry="6.86"/><rect class="cls-9" x="426.51" y="566.15" width="30.07" height="27.25"/><rect class="cls-9" x="426.34" y="668.83" width="30.07" height="27.25"/><rect class="cls-9" x="469.41" y="581.09" width="45.19" height="16.18"/><rect class="cls-9" x="469.41" y="663.2" width="45.19" height="16.18"/><path class="cls-1" d="M411.04,652.12v-42.02c11.25-.88,22.33-1.76,33.58-2.64v46.59c-11.08-.53-22.33-1.23-33.58-1.93Z"/><rect class="cls-5" x="444.62" y="582.32" width="35.69" height="96.88"/><rect class="cls-5" x="435.3" y="577.57" width="35.16" height="104.97"/><path class="cls-21" d="M467.3,664.08v-65.58c0-1.76,1.41-3.16,3.16-3.16h12.48c1.76,0,3.16,1.41,3.16,3.16v65.58c0,1.76-1.41,3.16-3.16,3.16h-12.48c-1.76,0-3.16-1.41-3.16-3.16Z"/><rect class="cls-21" x="439.52" y="575.99" width="34.11" height="109.01"/></g><g><g><rect class="cls-36" x="824.29" y="533.02" width="72.39" height="40.73" rx=".27" ry=".27" transform="translate(1413.87 -307.1) rotate(90)"/><rect class="cls-36" x="748.51" y="533.02" width="72.39" height="40.73" rx=".27" ry=".27" transform="translate(1338.09 -231.32) rotate(90)"/></g><g><path class="cls-40" d="M775.86,574.33v-41.9c0-4.83,3.04-8.75,6.78-8.75h76.87c3.75,0,6.78,3.92,6.78,8.75v41.9c0,4.83-3.03,8.75-6.78,8.75h-76.87c-3.74,0-6.78-3.92-6.78-8.75"/><rect class="cls-22" x="796.67" y="523.68" width="52.02" height="59.4"/></g></g><g><path class="cls-25" d="M664.29,909.87h-83.73c-2.74,0-4.98-2.24-4.98-4.98v-111.17c0-2.74,2.24-4.98,4.98-4.98h83.73c2.74,0,4.98,2.24,4.98,4.98v111.17c0,2.74-2.24,4.98-4.98,4.98"/><path class="cls-19" d="M656.07,899.87h-67.3c-2.06,0-3.75-1.69-3.75-3.75v-94.38c0-2.06,1.69-3.75,3.75-3.75h67.3c2.07,0,3.75,1.69,3.75,3.75v94.38c0,2.06-1.69,3.75-3.75,3.75"/><rect class="cls-4" x="617.12" y="797.96" width="6.97" height="101.92"/><path class="cls-2" d="M640.99,829.46c0,3.26-2.64,5.9-5.9,5.9s-5.91-2.64-5.91-5.9,2.64-5.9,5.91-5.9,5.9,2.64,5.9,5.9"/><path class="cls-2" d="M640.99,869.93c0,3.26-2.64,5.9-5.9,5.9s-5.91-2.64-5.91-5.9,2.64-5.9,5.91-5.9,5.9,2.64,5.9,5.9"/><rect class="cls-19" x="627.66" y="788.73" width="18.17" height="14.78"/></g><g><path class="cls-12" d="M591.86,296.23h11.39c9.7,0,17.64-7.94,17.64-17.64s-7.94-17.64-17.64-17.64h-29c-9.7,0-17.64,7.94-17.64,17.64,0,.82,.13,1.61,.24,2.4-.11,.79-.24,1.58-.24,2.4v12.54c0,9.7,7.94,17.64,17.64,17.64s17.45-7.78,17.61-17.34Z"/><path class="cls-2" d="M590.56,294.01h10.15c8.65,0,15.73-7.08,15.73-15.73s-7.08-15.73-15.73-15.73h-25.86c-8.65,0-15.73,7.08-15.73,15.73,0,.73,.12,1.43,.22,2.14-.1,.71-.22,1.41-.22,2.14v11.18c0,8.65,7.08,15.73,15.73,15.73s15.55-6.93,15.7-15.46Z"/></g><g><path class="cls-12" d="M591.86,506.29h11.39c9.7,0,17.64,7.94,17.64,17.64,0,9.7-7.94,17.64-17.64,17.64h-29c-9.7,0-17.64-7.94-17.64-17.64,0-.82,.13-1.61,.24-2.4-.11-.79-.24-1.58-.24-2.4v-12.54c0-9.7,7.94-17.64,17.64-17.64,9.6,0,17.45,7.78,17.61,17.34Z"/><path class="cls-2" d="M590.56,508.52h10.15c8.65,0,15.73,7.08,15.73,15.73,0,8.65-7.08,15.73-15.73,15.73h-25.86c-8.65,0-15.73-7.08-15.73-15.73,0-.73,.12-1.43,.22-2.14-.1-.71-.22-1.41-.22-2.14v-11.18c0-8.65,7.08-15.73,15.73-15.73,8.56,0,15.55,6.93,15.7,15.46Z"/></g><g><rect class="cls-12" x="440.19" y="243.59" width="35.28" height="70.01" rx="2.23" ry="2.23" transform="translate(736.42 -179.24) rotate(90)"/><rect class="cls-2" x="442.19" y="247.57" width="31.27" height="62.05" rx="1.98" ry="1.98" transform="translate(736.42 -179.24) rotate(90)"/></g><g><rect class="cls-12" x="440.19" y="490.09" width="35.28" height="70.01" rx="2.23" ry="2.23" transform="translate(982.92 67.27) rotate(90)"/><rect class="cls-2" x="442.19" y="494.07" width="31.27" height="62.05" rx="1.98" ry="1.98" transform="translate(982.92 67.27) rotate(90)"/></g><rect class="cls-39" x="507.68" y="348.42" width="7.84" height="13.55" transform="translate(866.79 -156.4) rotate(90)"/><rect class="cls-39" x="507.68" y="447.88" width="7.84" height="13.55" transform="translate(966.26 -56.94) rotate(90)"/><g><rect class="cls-44" x="548.31" y="96.15" width="161.51" height="136.57" rx="1.63" ry="1.63" transform="translate(793.5 -464.63) rotate(90)"/><g><g><rect class="cls-23" x="562.66" y="108.28" width="132.81" height="112.3" rx="1.34" ry="1.34" transform="translate(793.5 -464.63) rotate(90)"/><rect class="cls-23" x="552.15" y="158.37" width="29.4" height="12.13" transform="translate(731.28 -402.41) rotate(90)"/></g><rect class="cls-32" x="557.65" y="158.37" width="132.81" height="12.13" transform="translate(788.5 -459.62) rotate(90)"/></g><g><rect class="cls-41" x="596.54" y="128.86" width="12.52" height="10.97" rx=".23" ry=".23" transform="translate(737.15 -468.45) rotate(90)"/><rect class="cls-7" x="597.15" y="129.4" width="11.3" height="9.9" rx=".21" ry=".21" transform="translate(737.15 -468.45) rotate(90)"/></g><g><rect class="cls-41" x="596.54" y="185.29" width="12.52" height="10.97" rx=".23" ry=".23" transform="translate(793.57 -412.02) rotate(90)"/><rect class="cls-7" x="597.15" y="185.82" width="11.3" height="9.9" rx=".21" ry=".21" transform="translate(793.57 -412.02) rotate(90)"/></g></g><g><path class="cls-8" d="M419.97,105.93h-6.94v57.43h6.95c.05-2.4,1.98-4.33,4.36-4.33s4.31,1.93,4.36,4.33h6.95v-57.43h-6.94c0,2.44-1.95,4.42-4.36,4.42s-4.36-1.98-4.36-4.42"/><rect class="cls-26" x="409.06" y="105.93" width="3.97" height="57.43"/><rect class="cls-37" x="409.05" y="111.13" width="30.55" height="47.03"/><path class="cls-11" d="M419.71,118.98h-7.35v31.32h7.36c.05-1.31,2.09-2.36,4.61-2.36s4.56,1.05,4.61,2.36h7.35v-31.32h-7.35c0,1.33-2.07,2.41-4.62,2.41s-4.62-1.08-4.62-2.41"/><path class="cls-37" d="M424.33,126.68c4.35,0,7.87,3.57,7.87,7.96s-3.53,7.97-7.87,7.97-7.87-3.57-7.87-7.97,3.52-7.96,7.87-7.96"/><path class="cls-27" d="M424.33,128.6c3.3,0,5.97,2.71,5.97,6.05s-2.68,6.04-5.97,6.04-5.97-2.71-5.97-6.04,2.67-6.05,5.97-6.05"/></g><g><path class="cls-8" d="M419.97,728.68h-6.94v57.43h6.95c.05-2.4,1.98-4.33,4.36-4.33s4.31,1.93,4.36,4.33h6.95v-57.43h-6.94c0,2.44-1.95,4.42-4.36,4.42s-4.36-1.98-4.36-4.42"/><rect class="cls-26" x="409.06" y="728.68" width="3.97" height="57.43"/><rect class="cls-37" x="409.05" y="733.88" width="30.55" height="47.03"/><path class="cls-11" d="M419.71,741.74h-7.35v31.32h7.36c.05-1.31,2.09-2.36,4.61-2.36s4.56,1.05,4.61,2.36h7.35v-31.32h-7.35c0,1.33-2.07,2.41-4.62,2.41s-4.62-1.08-4.62-2.41"/><path class="cls-37" d="M424.33,749.43c4.35,0,7.87,3.57,7.87,7.96s-3.53,7.97-7.87,7.97-7.87-3.57-7.87-7.97,3.52-7.96,7.87-7.96"/><path class="cls-27" d="M424.33,751.35c3.3,0,5.97,2.71,5.97,6.05s-2.68,6.04-5.97,6.04-5.97-2.71-5.97-6.04,2.67-6.05,5.97-6.05"/></g><g><path class="cls-8" d="M419.97,830.81h-6.94v57.43h6.95c.05-2.4,1.98-4.33,4.36-4.33s4.31,1.93,4.36,4.33h6.95v-57.43h-6.94c0,2.44-1.95,4.42-4.36,4.42s-4.36-1.98-4.36-4.42"/><rect class="cls-26" x="409.06" y="830.8" width="3.97" height="57.43"/><rect class="cls-37" x="409.05" y="836" width="30.55" height="47.03"/><path class="cls-11" d="M419.71,843.86h-7.35v31.32h7.36c.05-1.31,2.09-2.36,4.61-2.36s4.56,1.05,4.61,2.36h7.35v-31.32h-7.35c0,1.33-2.07,2.41-4.62,2.41s-4.62-1.08-4.62-2.41"/><path class="cls-37" d="M424.33,851.56c4.35,0,7.87,3.57,7.87,7.96s-3.53,7.97-7.87,7.97-7.87-3.57-7.87-7.97,3.52-7.96,7.87-7.96"/><path class="cls-27" d="M424.33,853.48c3.3,0,5.97,2.71,5.97,6.05s-2.68,6.04-5.97,6.04-5.97-2.71-5.97-6.04,2.67-6.05,5.97-6.05"/></g><g><g><g><rect class="cls-6" x="576.15" y="288.67" width="20.62" height="36.39" rx=".57" ry=".57" transform="translate(893.33 -279.6) rotate(90)"/><rect class="cls-6" x="576.15" y="477.59" width="20.62" height="36.39" rx=".57" ry=".57" transform="translate(1082.25 -90.67) rotate(90)"/><rect class="cls-6" x="487.98" y="387.15" width="188.92" height="28.36" transform="translate(983.77 -181.12) rotate(90)"/></g><g><rect class="cls-20" x="578.77" y="292.11" width="15.38" height="34.71" rx=".48" ry=".48" transform="translate(895.93 -276.99) rotate(90)"/><rect class="cls-20" x="578.77" y="475.81" width="15.38" height="34.71" rx=".48" ry=".48" transform="translate(1079.63 -93.29) rotate(90)"/><rect class="cls-20" x="496.35" y="387.8" width="172.57" height="27.05" transform="translate(983.96 -181.3) rotate(90)"/></g></g><g><rect class="cls-42" x="597.06" y="324.92" width="10.51" height="32.52" rx=".16" ry=".16" transform="translate(943.5 -261.14) rotate(90)"/><rect class="cls-24" x="591" y="327.46" width="9" height="27.43" rx=".56" ry=".56" transform="translate(936.68 -254.33) rotate(90)"/></g><g><rect class="cls-42" x="597.06" y="311.79" width="10.51" height="32.52" rx=".16" ry=".16" transform="translate(930.38 -274.27) rotate(90)"/><rect class="cls-24" x="591.17" y="314.18" width="9" height="27.76" rx=".57" ry=".57" transform="translate(923.72 -267.61) rotate(90)"/></g><g><rect class="cls-42" x="597.06" y="338.3" width="10.51" height="32.52" rx=".16" ry=".16" transform="translate(956.88 -247.76) rotate(90)"/><rect class="cls-24" x="591.17" y="340.68" width="9" height="27.76" rx=".57" ry=".57" transform="translate(950.23 -241.11) rotate(90)"/></g><g><rect class="cls-42" x="597.06" y="351.55" width="10.51" height="32.52" rx=".16" ry=".16" transform="translate(970.13 -234.51) rotate(90)"/><rect class="cls-24" x="591.17" y="353.93" width="9" height="27.76" rx=".57" ry=".57" transform="translate(963.48 -227.86) rotate(90)"/></g><g><rect class="cls-42" x="597.06" y="364.68" width="10.51" height="32.52" rx=".16" ry=".16" transform="translate(983.26 -221.39) rotate(90)"/><rect class="cls-24" x="591.17" y="367.06" width="9" height="27.76" rx=".57" ry=".57" transform="translate(976.6 -214.73) rotate(90)"/></g><g><rect class="cls-42" x="597.06" y="378.06" width="10.51" height="32.52" rx=".16" ry=".16" transform="translate(996.64 -208) rotate(90)"/><rect class="cls-24" x="591.17" y="380.44" width="9" height="27.76" rx=".57" ry=".57" transform="translate(989.99 -201.35) rotate(90)"/></g><g><rect class="cls-42" x="597.06" y="391.93" width="10.51" height="32.52" rx=".16" ry=".16" transform="translate(1010.51 -194.13) rotate(90)"/><rect class="cls-24" x="591.17" y="394.31" width="9" height="27.76" rx=".57" ry=".57" transform="translate(1003.86 -187.48) rotate(90)"/></g><g><rect class="cls-42" x="597.06" y="405.05" width="10.51" height="32.52" rx=".16" ry=".16" transform="translate(1023.63 -181.01) rotate(90)"/><rect class="cls-24" x="591.17" y="407.43" width="9" height="27.76" rx=".57" ry=".57" transform="translate(1016.98 -174.36) rotate(90)"/></g><g><rect class="cls-42" x="597.06" y="418.44" width="10.51" height="32.52" rx=".16" ry=".16" transform="translate(1037.02 -167.62) rotate(90)"/><rect class="cls-24" x="591.17" y="420.82" width="9" height="27.76" rx=".57" ry=".57" transform="translate(1030.37 -160.97) rotate(90)"/></g><g><rect class="cls-42" x="597.06" y="431.83" width="10.51" height="32.52" rx=".16" ry=".16" transform="translate(1050.41 -154.23) rotate(90)"/><rect class="cls-24" x="591.17" y="434.21" width="9" height="27.76" rx=".57" ry=".57" transform="translate(1043.76 -147.58) rotate(90)"/></g><g><rect class="cls-42" x="597.06" y="444.95" width="10.51" height="32.52" rx=".16" ry=".16" transform="translate(1063.53 -141.11) rotate(90)"/><rect class="cls-24" x="591.17" y="447.33" width="9" height="27.76" rx=".57" ry=".57" transform="translate(1056.88 -134.46) rotate(90)"/></g><g><rect class="cls-42" x="597.06" y="458.34" width="10.51" height="32.52" rx=".16" ry=".16" transform="translate(1076.92 -127.72) rotate(90)"/><rect class="cls-24" x="591.17" y="460.72" width="9" height="27.76" rx=".57" ry=".57" transform="translate(1070.27 -121.07) rotate(90)"/></g><g><rect class="cls-20" x="578.77" y="292.11" width="15.38" height="34.71" rx=".48" ry=".48" transform="translate(895.93 -276.99) rotate(90)"/><rect class="cls-20" x="578.77" y="475.81" width="15.38" height="34.71" rx=".48" ry=".48" transform="translate(1079.63 -93.29) rotate(90)"/><rect class="cls-20" x="496.35" y="387.8" width="172.57" height="27.05" transform="translate(983.96 -181.3) rotate(90)"/></g></g><g><path class="cls-28" d="M595.83,521.27v-48.95h-7.02c-2.37,0-4.31-1.94-4.31-4.31s1.94-4.31,4.31-4.31h7.02c6.71-4.65,6.45-17.51,0-21.93h-7.02c-2.37,0-4.31-1.94-4.31-4.31s1.94-4.31,4.31-4.31h7.02v-61.47h-7.02c-2.37,0-4.31-1.94-4.31-4.31s1.94-4.31,4.31-4.31h7.02c6.84-2.2,7.1-18.72,0-21.93h-7.02c-2.37,0-4.31-1.94-4.31-4.31s1.94-4.31,4.31-4.31h7.02v-48.95c0-3.85-3.15-7-7-7h-205.18c-3.85,0-7,3.15-7,7v237.71c0,3.85,3.15,7,7,7h205.18c3.85,0,7-3.15,7-7Z"/><g><rect class="cls-10" x="551.37" y="325.46" width="21.01" height="13.71" rx=".43" ry=".43" transform="translate(894.19 -229.55) rotate(90)"/><rect class="cls-10" x="551.37" y="354.18" width="21.01" height="13.71" rx=".43" ry=".43" transform="translate(922.91 -200.84) rotate(90)"/><rect class="cls-10" x="551.37" y="382.9" width="21.01" height="13.71" rx=".43" ry=".43" transform="translate(951.62 -172.12) rotate(90)"/><rect class="cls-10" x="551.37" y="411.61" width="21.01" height="13.71" rx=".43" ry=".43" transform="translate(980.34 -143.4) rotate(90)"/><rect class="cls-10" x="551.37" y="440.33" width="21.01" height="13.71" rx=".43" ry=".43" transform="translate(1009.06 -114.69) rotate(90)"/><rect class="cls-10" x="551.37" y="469.05" width="21.01" height="13.71" rx=".43" ry=".43" transform="translate(1037.77 -85.97) rotate(90)"/></g><rect class="cls-35" x="505.6" y="348.42" width="20.14" height="13.55" rx=".18" ry=".18" transform="translate(870.87 -160.48) rotate(90)"/><rect class="cls-35" x="505.6" y="447.88" width="20.14" height="13.55" rx=".18" ry=".18" transform="translate(970.33 -61.01) rotate(90)"/><g><path class="cls-43" d="M584.5,369.79c0,2.21,1.94,4.01,4.31,4.01h7.02v-2.12h-7.02c-1.93,0-3.51-1.31-4.05-3.06-.12,.37-.25,.75-.25,1.16Z"/><path class="cls-43" d="M584.5,435.05c0,.41,.13,.79,.25,1.16,.55-1.75,2.13-3.06,4.05-3.06h7.02v-2.12h-7.02c-2.37,0-4.31,1.81-4.31,4.01Z"/><path class="cls-43" d="M595.83,459.49h-7.02c-2.37,0-4.31,1.81-4.31,4.01,0,.82,.33,1.54,.79,2.18,.77-1.16,2.03-1.97,3.52-1.97h7.02c3.79-2.62,5.28-7.85,4.77-12.71-.39,3.42-1.91,6.65-4.77,8.49Z"/><path class="cls-43" d="M595.83,521.27v-8.18c0,3.59-3.15,6.52-7,6.52h-205.18c-3.85,0-7-2.93-7-6.52v8.18c0,3.85,3.15,7,7,7h205.18c3.85,0,7-3.15,7-7Z"/><path class="cls-43" d="M383.65,285.22h205.18c3.85,0,7,2.93,7,6.52v-8.18c0-3.85-3.15-7-7-7h-205.18c-3.85,0-7,3.15-7,7v8.18c0-3.59,3.15-6.52,7-6.52Z"/><path class="cls-43" d="M584.5,341.34c0,2.21,1.94,4.01,4.31,4.01h7.02c3.07,1.29,4.69,4.93,5.07,8.78,.49-5.28-1.1-11.2-5.07-13h-7.02c-1.49,0-2.74-.81-3.52-1.97-.46,.64-.79,1.36-.79,2.18Z"/></g></g><g><g><rect class="cls-2" x="738.87" y="454.9" width="73.75" height="8.33" rx=".53" ry=".53" transform="translate(1234.8 -316.68) rotate(90)"/><rect class="cls-2" x="724.18" y="454.9" width="73.75" height="8.33" rx=".53" ry=".53" transform="translate(1220.11 -301.99) rotate(90)"/><rect class="cls-2" x="709.49" y="454.9" width="73.75" height="8.33" rx=".53" ry=".53" transform="translate(1205.42 -287.3) rotate(90)"/></g><rect class="cls-22" x="731.35" y="437.95" width="59.4" height="42.21" rx=".36" ry=".36" transform="translate(1220.11 -301.99) rotate(90)"/><rect class="cls-6" x="732.82" y="437.95" width="56.46" height="42.21" rx=".36" ry=".36" transform="translate(1220.11 -301.99) rotate(90)"/></g></g><g><line class="cls-18" x1="602.35" y1="849.33" x2="338.61" y2="849.33"/><polygon class="cls-34" points="600.45 842.85 611.68 849.33 600.45 855.82 600.45 842.85"/></g><g><line class="cls-18" x1="600.67" y1="163.36" x2="338.61" y2="163.36"/><polygon class="cls-34" points="598.78 156.88 610 163.36 598.78 169.84 598.78 156.88"/></g><g><line class="cls-18" x1="452.14" y1="630.48" x2="338.61" y2="630.48"/><polygon class="cls-34" points="450.24 624 461.47 630.48 450.24 636.96 450.24 624"/></g><g><line class="cls-18" x1="464.31" y1="400.57" x2="338.61" y2="400.57"/><polygon class="cls-34" points="462.41 394.09 473.63 400.57 462.41 407.05 462.41 394.09"/></g><g><path class="cls-34" d="M40.72,148.76h10.46c2.59,0,4.56,.69,5.94,2.14,1,1.04,1.59,2.45,1.59,4.21,0,2.73-1.52,4.42-3.97,5.18v.1c2.8,.66,4.97,2.66,4.97,5.97,0,1.9-.66,3.52-1.8,4.73-1.38,1.48-3.52,2.35-6.18,2.35h-11.01v-24.68Zm10.08,10.56c3,0,4.8-1.48,4.8-4.04,0-2.38-1.62-3.83-4.38-3.83h-7.39v7.87h6.97Zm.79,11.32c1.76,0,3.04-.45,3.87-1.24,.69-.73,1.1-1.69,1.1-2.87,0-3.07-2.17-4.59-5.18-4.59h-7.56v8.7h7.77Z"/><path class="cls-34" d="M73.48,170.95h-.04c-1.07,1.38-2.9,2.83-5.94,2.83-3.38,0-6.04-1.59-6.04-4.97,0-4.21,3.31-5.07,7.77-5.76,2.52-.38,4.28-.62,4.28-2.55s-1.45-3.14-4-3.14c-2.9,0-4.35,1.24-4.45,3.94h-2.69c.1-3.45,2.38-6.04,7.11-6.04,3.8,0,6.59,1.41,6.59,5.66v8.49c0,1.45,.35,2.24,1.9,1.9h.1v2.04c-.35,.14-.79,.28-1.52,.28-1.83,0-2.8-.83-3.07-2.66Zm.07-4.11v-3.04c-.93,.59-2.55,1.04-4.07,1.31-2.8,.52-5.04,1-5.04,3.62,0,2.38,1.86,2.9,3.69,2.9,3.73,0,5.42-2.73,5.42-4.8Z"/><path class="cls-34" d="M78.66,155.59h2.59v-5.63h2.8v5.63h3.45v2.28h-3.45v11.6c0,1.24,.66,1.66,1.8,1.66,.55,0,1.17-.14,1.48-.24h.1v2.42c-.66,.14-1.41,.24-2.24,.24-2.28,0-3.93-.93-3.93-3.45v-12.22h-2.59v-2.28Z"/><path class="cls-34" d="M88.74,155.59h2.59v-5.63h2.8v5.63h3.45v2.28h-3.45v11.6c0,1.24,.66,1.66,1.8,1.66,.55,0,1.17-.14,1.48-.24h.1v2.42c-.66,.14-1.41,.24-2.24,.24-2.28,0-3.93-.93-3.93-3.45v-12.22h-2.59v-2.28Z"/><path class="cls-34" d="M99.31,164.53c0-5.18,3.38-9.39,8.46-9.39,5.35,0,8.21,4.14,8.21,10.04h-13.81c.21,3.62,2.17,6.39,5.76,6.39,2.59,0,4.31-1.24,4.94-3.66h2.73c-.83,3.83-3.63,6.01-7.66,6.01-5.45,0-8.63-4.21-8.63-9.39Zm2.93-1.45h10.74c-.17-3.55-2-5.73-5.21-5.73s-5.11,2.49-5.52,5.73Z"/><path class="cls-34" d="M121.51,158.56h.07c1.07-1.73,2.93-3.18,5.31-3.18,.52,0,.79,.07,1.14,.21v2.69h-.1c-.41-.14-.69-.17-1.24-.17-2.76,0-5.18,2.07-5.18,5.42v9.91h-2.8v-17.85h2.8v2.97Z"/><path class="cls-34" d="M130.31,178.96v-2.49h.14c.38,.21,.97,.38,1.9,.38,1.17,0,1.97-.45,2.66-2.18l.69-1.76-6.97-17.33h3.04l4.21,11.11c.55,1.48,1.21,3.49,1.21,3.49h.07s.62-2,1.17-3.49l4.07-11.11h2.97l-7.63,19.29c-1.45,3.69-2.83,4.45-5,4.45-1.07,0-1.76-.07-2.52-.38Z"/><path class="cls-34" d="M152.41,161.08c0-7.25,4.35-12.87,11.7-12.87,5.76,0,9.25,3.31,9.91,7.87h-3.04c-.59-3.07-3.04-5.18-6.94-5.18-5.42,0-8.46,4.38-8.46,10.18s3.35,10.11,8.49,10.11c4.66,0,6.87-3.17,7.18-6.8h3.07c-.04,2.45-1.21,5.21-2.97,6.94-1.73,1.69-4.25,2.59-7.39,2.59-7.01,0-11.56-5.35-11.56-12.84Z"/><path class="cls-34" d="M176.4,164.53c0-5.18,3.31-9.39,8.63-9.39s8.59,4.21,8.59,9.39-3.24,9.39-8.59,9.39-8.63-4.21-8.63-9.39Zm14.36,0c0-3.94-1.93-7.08-5.73-7.08s-5.76,3.14-5.76,7.08,1.97,7.04,5.76,7.04,5.73-3.11,5.73-7.04Z"/><path class="cls-34" d="M199.22,157.94h.07c1.28-1.69,3.07-2.76,5.66-2.76,3.73,0,6.01,2.04,6.01,5.73v12.53h-2.8v-12.29c0-2.31-1.52-3.63-4.04-3.63-2.83,0-4.9,2-4.9,4.94v10.98h-2.8v-17.85h2.8v2.35Z"/><path class="cls-34" d="M217.45,157.94h.07c1.28-1.69,3.07-2.76,5.66-2.76,3.73,0,6.01,2.04,6.01,5.73v12.53h-2.8v-12.29c0-2.31-1.52-3.63-4.04-3.63-2.83,0-4.9,2-4.9,4.94v10.98h-2.8v-17.85h2.8v2.35Z"/><path class="cls-34" d="M231.88,164.53c0-5.18,3.38-9.39,8.46-9.39,5.35,0,8.21,4.14,8.21,10.04h-13.81c.21,3.62,2.17,6.39,5.76,6.39,2.59,0,4.31-1.24,4.94-3.66h2.73c-.83,3.83-3.63,6.01-7.66,6.01-5.45,0-8.63-4.21-8.63-9.39Zm2.93-1.45h10.74c-.17-3.55-2-5.73-5.21-5.73s-5.11,2.49-5.52,5.73Z"/><path class="cls-34" d="M250.28,164.53c0-5.18,3.31-9.39,8.63-9.39,4.21,0,7.01,2.42,7.63,6.21h-2.83c-.41-2.42-2.11-3.9-4.8-3.9-3.8,0-5.76,3.14-5.76,7.08s1.97,7.04,5.76,7.04c2.9,0,4.62-1.66,4.87-4.42h2.76c-.38,4.28-3.18,6.76-7.63,6.76-5.32,0-8.63-4.21-8.63-9.39Z"/><path class="cls-34" d="M268.06,155.59h2.59v-5.63h2.8v5.63h3.45v2.28h-3.45v11.6c0,1.24,.66,1.66,1.8,1.66,.55,0,1.17-.14,1.48-.24h.1v2.42c-.66,.14-1.41,.24-2.24,.24-2.28,0-3.93-.93-3.93-3.45v-12.22h-2.59v-2.28Z"/><path class="cls-34" d="M278.63,164.53c0-5.18,3.31-9.39,8.63-9.39s8.59,4.21,8.59,9.39-3.24,9.39-8.59,9.39-8.63-4.21-8.63-9.39Zm14.36,0c0-3.94-1.93-7.08-5.73-7.08s-5.76,3.14-5.76,7.08,1.97,7.04,5.76,7.04,5.73-3.11,5.73-7.04Z"/><path class="cls-34" d="M301.45,158.56h.07c1.07-1.73,2.93-3.18,5.31-3.18,.52,0,.79,.07,1.14,.21v2.69h-.1c-.41-.14-.69-.17-1.24-.17-2.76,0-5.18,2.07-5.18,5.42v9.91h-2.8v-17.85h2.8v2.97Z"/></g><g><path class="cls-34" d="M213.62,406.18v-16.71h3.11v16.4c0,4.21,2.38,6.01,6.45,6.01s6.25-1.8,6.25-6.01v-16.4h3.11v16.71c0,5.97-4.18,8.35-9.46,8.35s-9.46-2.38-9.46-8.35Z"/><path class="cls-34" d="M235.54,405.8h3.04c.41,4.18,2.97,6.35,7.63,6.35,3.42,0,5.87-1.55,5.87-4.63,0-3.38-2.97-4.18-7.39-5.14-4.35-.97-8.08-2.21-8.08-6.87,0-4.07,3.38-6.52,8.39-6.52,6.18,0,8.73,3.14,9.35,7.7h-2.93c-.45-3.52-2.73-5.28-6.35-5.28-3.35,0-5.56,1.41-5.56,3.97,0,2.8,2.76,3.62,6.45,4.35,4.8,.97,9.18,2.14,9.18,7.7,0,4.63-3.76,7.21-9.08,7.21-6.94,0-10.25-3.87-10.53-8.84Z"/><path class="cls-34" d="M258.71,389.47h10.46c2.59,0,4.56,.69,5.94,2.14,1,1.04,1.59,2.45,1.59,4.21,0,2.73-1.52,4.42-3.97,5.18v.1c2.8,.66,4.97,2.66,4.97,5.97,0,1.9-.66,3.52-1.8,4.73-1.38,1.48-3.52,2.35-6.18,2.35h-11.01v-24.68Zm10.08,10.56c3,0,4.8-1.48,4.8-4.04,0-2.38-1.62-3.83-4.38-3.83h-7.39v7.87h6.97Zm.79,11.32c1.76,0,3.04-.45,3.87-1.24,.69-.73,1.1-1.69,1.1-2.87,0-3.07-2.17-4.59-5.18-4.59h-7.56v8.7h7.77Z"/><path class="cls-34" d="M285.5,401.8c0-7.25,4.35-12.87,11.7-12.87,5.76,0,9.25,3.31,9.91,7.87h-3.04c-.59-3.07-3.04-5.18-6.94-5.18-5.42,0-8.46,4.38-8.46,10.18s3.35,10.11,8.49,10.11c4.66,0,6.87-3.17,7.18-6.8h3.07c-.04,2.45-1.21,5.21-2.97,6.94-1.73,1.69-4.25,2.59-7.39,2.59-7.01,0-11.56-5.35-11.56-12.84Z"/></g><g><path class="cls-34" d="M224.6,615.14h11.53c4.35,0,7.28,2.73,7.28,6.77,0,3-1.31,5.14-4.28,6.11v.1c2.52,.9,3.31,2.62,3.55,6.28,.28,3.97,.69,4.97,1.14,5.28v.14h-3.35c-.52-.45-.62-1.38-.9-5.52-.24-3.62-1.69-4.9-5-4.9h-6.87v10.42h-3.11v-24.68Zm3.11,11.74h7.32c3.45,0,5.18-1.72,5.18-4.52,0-3-1.38-4.52-5-4.52h-7.49v9.04Z"/><path class="cls-34" d="M245.59,630.92c0-5.18,3.38-9.39,8.46-9.39,5.35,0,8.21,4.14,8.21,10.04h-13.81c.21,3.62,2.17,6.39,5.76,6.39,2.59,0,4.31-1.24,4.94-3.66h2.73c-.83,3.83-3.63,6.01-7.66,6.01-5.45,0-8.63-4.21-8.63-9.39Zm2.93-1.45h10.74c-.17-3.55-2-5.73-5.21-5.73s-5.11,2.49-5.52,5.73Z"/><path class="cls-34" d="M263.85,634.02h2.86c.38,3.11,2.45,3.97,5.11,3.97,2.93,0,4.14-1.28,4.14-2.93,0-2-1.38-2.52-4.66-3.21-3.52-.73-6.66-1.45-6.66-5.35,0-2.97,2.28-4.9,6.42-4.9,4.42,0,6.59,2.11,7.01,5.59h-2.87c-.28-2.35-1.55-3.38-4.21-3.38s-3.59,1.14-3.59,2.55c0,1.93,1.73,2.31,4.8,2.93,3.59,.72,6.59,1.52,6.59,5.63,0,3.59-2.93,5.42-7.04,5.42-4.9,0-7.63-2.31-7.9-6.32Z"/><path class="cls-34" d="M280.84,630.92c0-5.18,3.38-9.39,8.46-9.39,5.35,0,8.21,4.14,8.21,10.04h-13.81c.21,3.62,2.17,6.39,5.76,6.39,2.59,0,4.31-1.24,4.94-3.66h2.73c-.83,3.83-3.63,6.01-7.66,6.01-5.45,0-8.63-4.21-8.63-9.39Zm2.93-1.45h10.74c-.17-3.55-2-5.73-5.21-5.73s-5.11,2.49-5.52,5.73Z"/><path class="cls-34" d="M298.76,621.98h2.59v-5.63h2.8v5.63h3.45v2.28h-3.45v11.6c0,1.24,.66,1.66,1.8,1.66,.55,0,1.17-.14,1.48-.24h.1v2.42c-.66,.14-1.41,.24-2.24,.24-2.28,0-3.93-.93-3.93-3.45v-12.22h-2.59v-2.28Z"/></g><g><path class="cls-34" d="M69.41,851.36h3.04c.41,4.18,2.97,6.35,7.63,6.35,3.42,0,5.87-1.55,5.87-4.63,0-3.38-2.97-4.18-7.39-5.14-4.35-.97-8.08-2.21-8.08-6.87,0-4.07,3.38-6.52,8.39-6.52,6.18,0,8.73,3.14,9.35,7.7h-2.93c-.45-3.52-2.73-5.28-6.35-5.28-3.35,0-5.56,1.41-5.56,3.97,0,2.8,2.76,3.62,6.45,4.35,4.8,.97,9.18,2.14,9.18,7.7,0,4.63-3.76,7.21-9.08,7.21-6.94,0-10.25-3.87-10.53-8.84Z"/><path class="cls-34" d="M91.16,850.81c0-5.18,3.31-9.39,8.63-9.39s8.59,4.21,8.59,9.39-3.24,9.39-8.59,9.39-8.63-4.21-8.63-9.39Zm14.36,0c0-3.94-1.93-7.08-5.73-7.08s-5.76,3.14-5.76,7.08,1.97,7.04,5.76,7.04,5.73-3.11,5.73-7.04Z"/><path class="cls-34" d="M111.29,835.04h2.8v24.68h-2.8v-24.68Z"/><path class="cls-34" d="M128.93,857.23h-.04c-1.07,1.38-2.9,2.83-5.94,2.83-3.38,0-6.04-1.59-6.04-4.97,0-4.21,3.31-5.07,7.77-5.76,2.52-.38,4.28-.62,4.28-2.55s-1.45-3.14-4-3.14c-2.9,0-4.35,1.24-4.45,3.94h-2.69c.1-3.45,2.38-6.04,7.11-6.04,3.8,0,6.59,1.41,6.59,5.66v8.49c0,1.45,.35,2.24,1.9,1.9h.1v2.04c-.35,.14-.79,.28-1.52,.28-1.83,0-2.8-.83-3.07-2.66Zm.07-4.11v-3.04c-.93,.59-2.55,1.04-4.07,1.31-2.8,.52-5.04,1-5.04,3.62,0,2.38,1.86,2.9,3.69,2.9,3.73,0,5.42-2.73,5.42-4.8Z"/><path class="cls-34" d="M138.39,844.84h.07c1.07-1.73,2.93-3.18,5.31-3.18,.52,0,.79,.07,1.14,.21v2.69h-.1c-.41-.14-.69-.17-1.24-.17-2.76,0-5.18,2.07-5.18,5.42v9.91h-2.8v-17.85h2.8v2.97Z"/><path class="cls-34" d="M152.41,847.36c0-7.25,4.35-12.87,11.7-12.87,5.76,0,9.25,3.31,9.91,7.87h-3.04c-.59-3.07-3.04-5.18-6.94-5.18-5.42,0-8.46,4.38-8.46,10.18s3.35,10.11,8.49,10.11c4.66,0,6.87-3.17,7.18-6.8h3.07c-.04,2.45-1.21,5.21-2.97,6.94-1.73,1.69-4.25,2.59-7.39,2.59-7.01,0-11.56-5.35-11.56-12.84Z"/><path class="cls-34" d="M176.4,850.81c0-5.18,3.31-9.39,8.63-9.39s8.59,4.21,8.59,9.39-3.24,9.39-8.59,9.39-8.63-4.21-8.63-9.39Zm14.36,0c0-3.94-1.93-7.08-5.73-7.08s-5.76,3.14-5.76,7.08,1.97,7.04,5.76,7.04,5.73-3.11,5.73-7.04Z"/><path class="cls-34" d="M199.22,844.22h.07c1.28-1.69,3.07-2.76,5.66-2.76,3.73,0,6.01,2.04,6.01,5.73v12.53h-2.8v-12.29c0-2.31-1.52-3.63-4.04-3.63-2.83,0-4.9,2-4.9,4.94v10.98h-2.8v-17.85h2.8v2.35Z"/><path class="cls-34" d="M217.45,844.22h.07c1.28-1.69,3.07-2.76,5.66-2.76,3.73,0,6.01,2.04,6.01,5.73v12.53h-2.8v-12.29c0-2.31-1.52-3.63-4.04-3.63-2.83,0-4.9,2-4.9,4.94v10.98h-2.8v-17.85h2.8v2.35Z"/><path class="cls-34" d="M231.88,850.81c0-5.18,3.38-9.39,8.46-9.39,5.35,0,8.21,4.14,8.21,10.04h-13.81c.21,3.62,2.17,6.39,5.76,6.39,2.59,0,4.31-1.24,4.94-3.66h2.73c-.83,3.83-3.63,6.01-7.66,6.01-5.45,0-8.63-4.21-8.63-9.39Zm2.93-1.45h10.74c-.17-3.55-2-5.73-5.21-5.73s-5.11,2.49-5.52,5.73Z"/><path class="cls-34" d="M250.28,850.81c0-5.18,3.31-9.39,8.63-9.39,4.21,0,7.01,2.42,7.63,6.21h-2.83c-.41-2.42-2.11-3.9-4.8-3.9-3.8,0-5.76,3.14-5.76,7.08s1.97,7.04,5.76,7.04c2.9,0,4.62-1.66,4.87-4.42h2.76c-.38,4.28-3.18,6.76-7.63,6.76-5.32,0-8.63-4.21-8.63-9.39Z"/><path class="cls-34" d="M268.06,841.87h2.59v-5.63h2.8v5.63h3.45v2.28h-3.45v11.6c0,1.24,.66,1.66,1.8,1.66,.55,0,1.17-.14,1.48-.24h.1v2.42c-.66,.14-1.41,.24-2.24,.24-2.28,0-3.93-.93-3.93-3.45v-12.22h-2.59v-2.28Z"/><path class="cls-34" d="M278.63,850.81c0-5.18,3.31-9.39,8.63-9.39s8.59,4.21,8.59,9.39-3.24,9.39-8.59,9.39-8.63-4.21-8.63-9.39Zm14.36,0c0-3.94-1.93-7.08-5.73-7.08s-5.76,3.14-5.76,7.08,1.97,7.04,5.76,7.04,5.73-3.11,5.73-7.04Z"/><path class="cls-34" d="M301.45,844.84h.07c1.07-1.73,2.93-3.18,5.31-3.18,.52,0,.79,.07,1.14,.21v2.69h-.1c-.41-.14-.69-.17-1.24-.17-2.76,0-5.18,2.07-5.18,5.42v9.91h-2.8v-17.85h2.8v2.97Z"/></g></svg>