<svg id="Layer_1" data-name="Layer 1" xmlns="http://www.w3.org/2000/svg" xmlns:xlink="http://www.w3.org/1999/xlink" viewBox="0 0 2000 2000"><defs><style>.cls-1,.cls-204,.cls-211,.cls-212,.cls-220,.cls-221,.cls-222,.cls-225{fill:none;}.cls-2{clip-path:url(#clip-path);}.cls-3{fill:#242424;}.cls-4{clip-path:url(#clip-path-3);}.cls-5{fill:#b6c2cc;}.cls-6{clip-path:url(#clip-path-4);}.cls-7{fill:#d4dad2;}.cls-8{fill:#7e7a6f;}.cls-9{fill:#ded2c8;}.cls-10{fill:#e9e8dd;}.cls-11{fill:#6f737b;}.cls-12{fill:#7e7f74;}.cls-13{fill:#b7b7b1;}.cls-14{fill:#8a9fa1;}.cls-15{fill:#474c58;}.cls-16{fill:#fff;}.cls-17{fill:#fff7dc;}.cls-18{fill:#bb955a;}.cls-19{fill:#c8c9b3;}.cls-20{fill:#735535;}.cls-21{clip-path:url(#clip-path-6);}.cls-22{fill:url(#linear-gradient);}.cls-23{clip-path:url(#clip-path-7);}.cls-24{fill:url(#linear-gradient-2);}.cls-25{clip-path:url(#clip-path-8);}.cls-26{fill:url(#linear-gradient-3);}.cls-27{clip-path:url(#clip-path-9);}.cls-28{fill:url(#linear-gradient-4);}.cls-29{clip-path:url(#clip-path-10);}.cls-30{fill:url(#linear-gradient-5);}.cls-31{clip-path:url(#clip-path-11);}.cls-32{fill:url(#linear-gradient-6);}.cls-33{clip-path:url(#clip-path-12);}.cls-34{fill:url(#linear-gradient-7);}.cls-35{clip-path:url(#clip-path-13);}.cls-36{fill:url(#linear-gradient-8);}.cls-37{clip-path:url(#clip-path-14);}.cls-38{fill:url(#linear-gradient-9);}.cls-39{clip-path:url(#clip-path-15);}.cls-40{fill:url(#linear-gradient-10);}.cls-41{clip-path:url(#clip-path-16);}.cls-42{fill:url(#linear-gradient-11);}.cls-43{clip-path:url(#clip-path-17);}.cls-44{fill:url(#linear-gradient-12);}.cls-45{clip-path:url(#clip-path-18);}.cls-46{fill:url(#linear-gradient-13);}.cls-47{clip-path:url(#clip-path-19);}.cls-48{fill:url(#linear-gradient-14);}.cls-49{clip-path:url(#clip-path-20);}.cls-50{fill:url(#linear-gradient-15);}.cls-51{clip-path:url(#clip-path-21);}.cls-52{fill:url(#linear-gradient-16);}.cls-53{clip-path:url(#clip-path-22);}.cls-54{fill:url(#linear-gradient-17);}.cls-55{clip-path:url(#clip-path-23);}.cls-56{fill:url(#linear-gradient-18);}.cls-57{fill:#232323;}.cls-58{clip-path:url(#clip-path-25);}.cls-59{fill:url(#linear-gradient-19);}.cls-60{clip-path:url(#clip-path-26);}.cls-61{fill:url(#linear-gradient-20);}.cls-62{clip-path:url(#clip-path-27);}.cls-63{fill:url(#linear-gradient-21);}.cls-64{clip-path:url(#clip-path-28);}.cls-65{fill:url(#linear-gradient-22);}.cls-66{clip-path:url(#clip-path-29);}.cls-67{fill:url(#linear-gradient-23);}.cls-68{clip-path:url(#clip-path-30);}.cls-69{fill:url(#linear-gradient-24);}.cls-70{clip-path:url(#clip-path-31);}.cls-71{fill:url(#linear-gradient-25);}.cls-72{clip-path:url(#clip-path-32);}.cls-73{fill:url(#linear-gradient-26);}.cls-74{clip-path:url(#clip-path-33);}.cls-75{fill:url(#linear-gradient-27);}.cls-76{clip-path:url(#clip-path-34);}.cls-77{fill:url(#linear-gradient-28);}.cls-78{clip-path:url(#clip-path-35);}.cls-79{fill:url(#linear-gradient-29);}.cls-80{clip-path:url(#clip-path-36);}.cls-81{fill:url(#linear-gradient-30);}.cls-82{clip-path:url(#clip-path-37);}.cls-83{fill:url(#linear-gradient-31);}.cls-84{clip-path:url(#clip-path-38);}.cls-85{fill:url(#linear-gradient-32);}.cls-86{clip-path:url(#clip-path-39);}.cls-87{fill:url(#linear-gradient-33);}.cls-88{clip-path:url(#clip-path-40);}.cls-89{fill:url(#linear-gradient-34);}.cls-90{clip-path:url(#clip-path-41);}.cls-91{fill:url(#linear-gradient-35);}.cls-92{clip-path:url(#clip-path-42);}.cls-93{fill:url(#linear-gradient-36);}.cls-94{clip-path:url(#clip-path-44);}.cls-95{fill:url(#linear-gradient-37);}.cls-96{clip-path:url(#clip-path-45);}.cls-97{fill:url(#linear-gradient-38);}.cls-98{clip-path:url(#clip-path-46);}.cls-99{fill:url(#linear-gradient-39);}.cls-100{clip-path:url(#clip-path-47);}.cls-101{fill:url(#linear-gradient-40);}.cls-102{clip-path:url(#clip-path-48);}.cls-103{fill:url(#linear-gradient-41);}.cls-104{clip-path:url(#clip-path-49);}.cls-105{fill:url(#linear-gradient-42);}.cls-106{clip-path:url(#clip-path-50);}.cls-107{fill:url(#linear-gradient-43);}.cls-108{clip-path:url(#clip-path-51);}.cls-109{fill:url(#linear-gradient-44);}.cls-110{clip-path:url(#clip-path-52);}.cls-111{fill:url(#linear-gradient-45);}.cls-112{clip-path:url(#clip-path-53);}.cls-113{fill:url(#linear-gradient-46);}.cls-114{clip-path:url(#clip-path-54);}.cls-115{fill:url(#linear-gradient-47);}.cls-116{clip-path:url(#clip-path-55);}.cls-117{fill:url(#linear-gradient-48);}.cls-118{clip-path:url(#clip-path-56);}.cls-119{fill:url(#linear-gradient-49);}.cls-120{clip-path:url(#clip-path-57);}.cls-121{fill:url(#linear-gradient-50);}.cls-122{clip-path:url(#clip-path-58);}.cls-123{fill:url(#linear-gradient-51);}.cls-124{clip-path:url(#clip-path-59);}.cls-125{fill:url(#linear-gradient-52);}.cls-126{clip-path:url(#clip-path-60);}.cls-127{fill:url(#linear-gradient-53);}.cls-128{clip-path:url(#clip-path-61);}.cls-129{fill:url(#linear-gradient-54);}.cls-130{clip-path:url(#clip-path-63);}.cls-131{fill:url(#linear-gradient-55);}.cls-132{clip-path:url(#clip-path-64);}.cls-133{fill:url(#linear-gradient-56);}.cls-134{clip-path:url(#clip-path-65);}.cls-135{fill:url(#linear-gradient-57);}.cls-136{clip-path:url(#clip-path-66);}.cls-137{fill:url(#linear-gradient-58);}.cls-138{clip-path:url(#clip-path-67);}.cls-139{fill:url(#linear-gradient-59);}.cls-140{clip-path:url(#clip-path-68);}.cls-141{fill:url(#linear-gradient-60);}.cls-142{clip-path:url(#clip-path-69);}.cls-143{fill:url(#linear-gradient-61);}.cls-144{clip-path:url(#clip-path-70);}.cls-145{fill:url(#linear-gradient-62);}.cls-146{clip-path:url(#clip-path-71);}.cls-147{fill:url(#linear-gradient-63);}.cls-148{clip-path:url(#clip-path-72);}.cls-149{fill:url(#linear-gradient-64);}.cls-150{clip-path:url(#clip-path-73);}.cls-151{fill:url(#linear-gradient-65);}.cls-152{clip-path:url(#clip-path-74);}.cls-153{fill:url(#linear-gradient-66);}.cls-154{clip-path:url(#clip-path-75);}.cls-155{fill:url(#linear-gradient-67);}.cls-156{clip-path:url(#clip-path-76);}.cls-157{fill:url(#linear-gradient-68);}.cls-158{clip-path:url(#clip-path-77);}.cls-159{fill:url(#linear-gradient-69);}.cls-160{clip-path:url(#clip-path-78);}.cls-161{fill:url(#linear-gradient-70);}.cls-162{clip-path:url(#clip-path-79);}.cls-163{fill:url(#linear-gradient-71);}.cls-164{clip-path:url(#clip-path-80);}.cls-165{fill:url(#linear-gradient-72);}.cls-166{clip-path:url(#clip-path-82);}.cls-167{fill:url(#linear-gradient-73);}.cls-168{clip-path:url(#clip-path-83);}.cls-169{fill:url(#linear-gradient-74);}.cls-170{clip-path:url(#clip-path-84);}.cls-171{fill:url(#linear-gradient-75);}.cls-172{clip-path:url(#clip-path-85);}.cls-173{fill:url(#linear-gradient-76);}.cls-174{clip-path:url(#clip-path-86);}.cls-175{fill:url(#linear-gradient-77);}.cls-176{clip-path:url(#clip-path-87);}.cls-177{fill:url(#linear-gradient-78);}.cls-178{clip-path:url(#clip-path-88);}.cls-179{fill:url(#linear-gradient-79);}.cls-180{clip-path:url(#clip-path-89);}.cls-181{fill:url(#linear-gradient-80);}.cls-182{clip-path:url(#clip-path-90);}.cls-183{fill:url(#linear-gradient-81);}.cls-184{clip-path:url(#clip-path-91);}.cls-185{fill:url(#linear-gradient-82);}.cls-186{clip-path:url(#clip-path-92);}.cls-187{fill:url(#linear-gradient-83);}.cls-188{clip-path:url(#clip-path-93);}.cls-189{fill:url(#linear-gradient-84);}.cls-190{clip-path:url(#clip-path-94);}.cls-191{fill:url(#linear-gradient-85);}.cls-192{clip-path:url(#clip-path-95);}.cls-193{fill:url(#linear-gradient-86);}.cls-194{clip-path:url(#clip-path-96);}.cls-195{fill:url(#linear-gradient-87);}.cls-196{clip-path:url(#clip-path-97);}.cls-197{fill:url(#linear-gradient-88);}.cls-198{clip-path:url(#clip-path-98);}.cls-199{fill:url(#linear-gradient-89);}.cls-200{clip-path:url(#clip-path-99);}.cls-201{fill:url(#linear-gradient-90);}.cls-202{clip-path:url(#clip-path-101);}.cls-203{fill:#bf8f3e;}.cls-204,.cls-211,.cls-212{stroke:#fff;}.cls-204,.cls-220,.cls-221,.cls-222,.cls-223,.cls-224,.cls-225{stroke-miterlimit:10;}.cls-204{stroke-width:2.96px;}.cls-205{clip-path:url(#clip-path-103);}.cls-206{clip-path:url(#clip-path-105);}.cls-207{fill:#c1903f;}.cls-208{fill:#e5e5e5;}.cls-209{fill:#242117;}.cls-210{fill:#eaf0e8;}.cls-211,.cls-212{stroke-linejoin:round;stroke-width:5px;}.cls-212{stroke-linecap:round;}.cls-213{fill:#665239;}.cls-214,.cls-223,.cls-224{fill:red;}.cls-215{isolation:isolate;}.cls-216{fill:#00a7db;}.cls-217{fill:#333;}.cls-218{fill:#7373ff;}.cls-219{fill:#ffd400;}.cls-220{stroke:#00a7db;}.cls-220,.cls-221,.cls-222,.cls-223,.cls-224,.cls-225{stroke-width:3px;}.cls-221{stroke:#7373ff;}.cls-222{stroke:#ffd400;}.cls-223{stroke:#333;}.cls-224,.cls-225{stroke:red;}</style><clipPath id="clip-path"><rect class="cls-1" x="699.91" y="229.52" width="977.38" height="1540.97"/></clipPath><clipPath id="clip-path-3"><rect class="cls-1" x="699.91" y="1044.35" width="387.93" height="523.58"/></clipPath><clipPath id="clip-path-4"><rect class="cls-1" x="699.91" y="1044.35" width="387.93" height="523.58"/></clipPath><clipPath id="clip-path-6"><rect class="cls-1" x="1147.43" y="1514.25" width="37.04" height="19.91" rx="5.67"/></clipPath><linearGradient id="linear-gradient" x1="-2046.64" x2="-2045.64" gradientTransform="matrix(0, 19.91, 19.91, 0, 1165.95, 42259.74)" gradientUnits="userSpaceOnUse"><stop offset="0" stop-color="#fff"/><stop offset="0.96" stop-color="#232428"/><stop offset="1" stop-color="#232428"/></linearGradient><clipPath id="clip-path-7"><rect class="cls-1" x="1155.29" y="1472.74" width="22.77" height="27.78"/></clipPath><linearGradient id="linear-gradient-2" x1="-2046.64" y1="0" x2="-2045.64" y2="0" gradientTransform="matrix(0, 27.78, 27.78, 0, 1166.68, 58335.9)" xlink:href="#linear-gradient"/><clipPath id="clip-path-8"><path class="cls-1" d="M1166,1518.1a13.43,13.43,0,1,0-13-13.42,13.19,13.19,0,0,0,13,13.42"/></clipPath><linearGradient id="linear-gradient-3" x1="-2046.64" y1="0" x2="-2045.64" y2="0" gradientTransform="matrix(0, 26.84, 26.84, 0, 1165.95, 56420.3)" xlink:href="#linear-gradient"/><clipPath id="clip-path-9"><rect class="cls-1" x="1205.9" y="1514.25" width="37.05" height="19.91" rx="5.67"/></clipPath><linearGradient id="linear-gradient-4" x1="-2046.64" y1="0" x2="-2045.64" y2="0" gradientTransform="matrix(0, 19.91, 19.91, 0, 1224.42, 42259.74)" xlink:href="#linear-gradient"/><clipPath id="clip-path-10"><rect class="cls-1" x="1213.76" y="1472.74" width="22.77" height="27.78"/></clipPath><linearGradient id="linear-gradient-5" x1="-2046.64" y1="0" x2="-2045.64" y2="0" gradientTransform="matrix(0, 27.78, 27.78, 0, 1225.14, 58335.9)" xlink:href="#linear-gradient"/><clipPath id="clip-path-11"><path class="cls-1" d="M1224.42,1518.1a13.43,13.43,0,1,0-13-13.42,13.19,13.19,0,0,0,13,13.42"/></clipPath><linearGradient id="linear-gradient-6" x1="-2046.64" y1="0" x2="-2045.64" y2="0" gradientTransform="matrix(0, 26.84, 26.84, 0, 1224.42, 56420.3)" xlink:href="#linear-gradient"/><clipPath id="clip-path-12"><rect class="cls-1" x="1264.87" y="1514.25" width="37.04" height="19.91" rx="5.67"/></clipPath><linearGradient id="linear-gradient-7" x1="-2046.64" y1="0" x2="-2045.64" y2="0" gradientTransform="matrix(0, 19.91, 19.91, 0, 1283.39, 42259.74)" xlink:href="#linear-gradient"/><clipPath id="clip-path-13"><rect class="cls-1" x="1272.73" y="1472.74" width="22.78" height="27.78"/></clipPath><linearGradient id="linear-gradient-8" x1="-2046.64" y1="0" x2="-2045.64" y2="0" gradientTransform="matrix(0, 27.78, 27.78, 0, 1284.11, 58335.9)" xlink:href="#linear-gradient"/><clipPath id="clip-path-14"><path class="cls-1" d="M1283.39,1518.1a13.43,13.43,0,1,0-13-13.42,13.19,13.19,0,0,0,13,13.42"/></clipPath><linearGradient id="linear-gradient-9" x1="-2046.64" y1="0" x2="-2045.64" y2="0" gradientTransform="matrix(0, 26.84, 26.84, 0, 1283.39, 56420.3)" xlink:href="#linear-gradient"/><clipPath id="clip-path-15"><rect class="cls-1" x="1147.43" y="1317.5" width="37.04" height="19.91" rx="5.67"/></clipPath><linearGradient id="linear-gradient-10" x1="-2046.64" y1="0" x2="-2045.64" y2="0" gradientTransform="translate(1165.95 -39408.08) rotate(-90) scale(19.91)" xlink:href="#linear-gradient"/><clipPath id="clip-path-16"><rect class="cls-1" x="1155.29" y="1351.14" width="22.77" height="27.78"/></clipPath><linearGradient id="linear-gradient-11" x1="-2046.64" y1="0" x2="-2045.64" y2="0" gradientTransform="translate(1166.68 -55484.24) rotate(-90) scale(27.78)" xlink:href="#linear-gradient"/><clipPath id="clip-path-17"><path class="cls-1" d="M1166,1360.4a13.43,13.43,0,1,0-13-13.42,13.19,13.19,0,0,0,13,13.42"/></clipPath><linearGradient id="linear-gradient-12" x1="-2046.64" y1="0" x2="-2045.64" y2="0" gradientTransform="translate(1165.95 -53568.64) rotate(-90) scale(26.84)" xlink:href="#linear-gradient"/><clipPath id="clip-path-18"><rect class="cls-1" x="1205.9" y="1317.5" width="37.05" height="19.91" rx="5.67"/></clipPath><linearGradient id="linear-gradient-13" x1="-2046.64" y1="0" x2="-2045.64" y2="0" gradientTransform="translate(1224.42 -39408.08) rotate(-90) scale(19.91)" xlink:href="#linear-gradient"/><clipPath id="clip-path-19"><rect class="cls-1" x="1213.76" y="1351.14" width="22.77" height="27.78"/></clipPath><linearGradient id="linear-gradient-14" x1="-2046.64" y1="0" x2="-2045.64" y2="0" gradientTransform="translate(1225.14 -55484.24) rotate(-90) scale(27.78)" xlink:href="#linear-gradient"/><clipPath id="clip-path-20"><path class="cls-1" d="M1224.42,1360.4a13.43,13.43,0,1,0-13-13.42,13.19,13.19,0,0,0,13,13.42"/></clipPath><linearGradient id="linear-gradient-15" x1="-2046.64" y1="0" x2="-2045.64" y2="0" gradientTransform="translate(1224.42 -53568.64) rotate(-90) scale(26.84)" xlink:href="#linear-gradient"/><clipPath id="clip-path-21"><rect class="cls-1" x="1264.87" y="1317.5" width="37.04" height="19.91" rx="5.67"/></clipPath><linearGradient id="linear-gradient-16" x1="-2046.64" y1="0" x2="-2045.64" y2="0" gradientTransform="translate(1283.39 -39408.08) rotate(-90) scale(19.91)" xlink:href="#linear-gradient"/><clipPath id="clip-path-22"><rect class="cls-1" x="1272.73" y="1351.14" width="22.78" height="27.78"/></clipPath><linearGradient id="linear-gradient-17" x1="-2046.64" y1="0" x2="-2045.64" y2="0" gradientTransform="translate(1284.11 -55484.24) rotate(-90) scale(27.78)" xlink:href="#linear-gradient"/><clipPath id="clip-path-23"><path class="cls-1" d="M1283.39,1360.4a13.43,13.43,0,1,0-13-13.42,13.19,13.19,0,0,0,13,13.42"/></clipPath><linearGradient id="linear-gradient-18" x1="-2046.64" y1="0" x2="-2045.64" y2="0" gradientTransform="translate(1283.39 -53568.64) rotate(-90) scale(26.84)" xlink:href="#linear-gradient"/><clipPath id="clip-path-25"><rect class="cls-1" x="1127.73" y="1260.05" width="37.04" height="19.91" rx="5.67"/></clipPath><linearGradient id="linear-gradient-19" x1="-2046.64" y1="0" x2="-2045.64" y2="0" gradientTransform="matrix(0, 19.91, 19.91, 0, 1146.25, 42005.54)" xlink:href="#linear-gradient"/><clipPath id="clip-path-26"><rect class="cls-1" x="1135.59" y="1218.53" width="22.77" height="27.78"/></clipPath><linearGradient id="linear-gradient-20" x1="-2046.64" y1="0" x2="-2045.64" y2="0" gradientTransform="matrix(0, 27.78, 27.78, 0, 1146.97, 58081.7)" xlink:href="#linear-gradient"/><clipPath id="clip-path-27"><path class="cls-1" d="M1146.25,1263.89a13.42,13.42,0,1,0-13-13.41,13.18,13.18,0,0,0,13,13.41"/></clipPath><linearGradient id="linear-gradient-21" x1="-2046.64" y1="0" x2="-2045.64" y2="0" gradientTransform="matrix(0, 26.84, 26.84, 0, 1146.25, 56166.1)" xlink:href="#linear-gradient"/><clipPath id="clip-path-28"><rect class="cls-1" x="1186.19" y="1260.05" width="37.04" height="19.91" rx="5.67"/></clipPath><linearGradient id="linear-gradient-22" x1="-2046.64" y1="0" x2="-2045.64" y2="0" gradientTransform="matrix(0, 19.91, 19.91, 0, 1204.71, 42005.54)" xlink:href="#linear-gradient"/><clipPath id="clip-path-29"><rect class="cls-1" x="1194.05" y="1218.53" width="22.77" height="27.78"/></clipPath><linearGradient id="linear-gradient-23" x1="-2046.64" y1="0" x2="-2045.64" y2="0" gradientTransform="matrix(0, 27.78, 27.78, 0, 1205.44, 58081.7)" xlink:href="#linear-gradient"/><clipPath id="clip-path-30"><path class="cls-1" d="M1204.71,1263.89a13.42,13.42,0,1,0-12.94-13.41,13.18,13.18,0,0,0,12.94,13.41"/></clipPath><linearGradient id="linear-gradient-24" x1="-2046.64" y1="0" x2="-2045.64" y2="0" gradientTransform="matrix(0, 26.84, 26.84, 0, 1204.71, 56166.1)" xlink:href="#linear-gradient"/><clipPath id="clip-path-31"><rect class="cls-1" x="1245.16" y="1260.05" width="37.04" height="19.91" rx="5.67"/></clipPath><linearGradient id="linear-gradient-25" x1="-2046.64" y1="0" x2="-2045.64" y2="0" gradientTransform="matrix(0, 19.91, 19.91, 0, 1263.68, 42005.54)" xlink:href="#linear-gradient"/><clipPath id="clip-path-32"><rect class="cls-1" x="1253.02" y="1218.53" width="22.77" height="27.78"/></clipPath><linearGradient id="linear-gradient-26" x1="-2046.64" y1="0" x2="-2045.64" y2="0" gradientTransform="matrix(0, 27.78, 27.78, 0, 1264.41, 58081.7)" xlink:href="#linear-gradient"/><clipPath id="clip-path-33"><path class="cls-1" d="M1263.68,1263.89a13.42,13.42,0,1,0-12.94-13.41,13.18,13.18,0,0,0,12.94,13.41"/></clipPath><linearGradient id="linear-gradient-27" x1="-2046.64" y1="0" x2="-2045.64" y2="0" gradientTransform="matrix(0, 26.84, 26.84, 0, 1263.68, 56166.1)" xlink:href="#linear-gradient"/><clipPath id="clip-path-34"><rect class="cls-1" x="1127.73" y="1063.3" width="37.04" height="19.91" rx="5.67"/></clipPath><linearGradient id="linear-gradient-28" x1="-2046.64" y1="0" x2="-2045.64" y2="0" gradientTransform="translate(1146.25 -39662.28) rotate(-90) scale(19.91)" xlink:href="#linear-gradient"/><clipPath id="clip-path-35"><rect class="cls-1" x="1135.59" y="1096.94" width="22.77" height="27.78"/></clipPath><linearGradient id="linear-gradient-29" x1="-2046.64" y1="0" x2="-2045.64" y2="0" gradientTransform="translate(1146.97 -55738.44) rotate(-90) scale(27.78)" xlink:href="#linear-gradient"/><clipPath id="clip-path-36"><path class="cls-1" d="M1146.25,1106.2a13.42,13.42,0,1,0-13-13.42,13.19,13.19,0,0,0,13,13.42"/></clipPath><linearGradient id="linear-gradient-30" x1="-2046.64" y1="0" x2="-2045.64" y2="0" gradientTransform="translate(1146.25 -53822.84) rotate(-90) scale(26.84)" xlink:href="#linear-gradient"/><clipPath id="clip-path-37"><rect class="cls-1" x="1186.19" y="1063.3" width="37.04" height="19.91" rx="5.67"/></clipPath><linearGradient id="linear-gradient-31" x1="-2046.64" y1="0" x2="-2045.64" y2="0" gradientTransform="translate(1204.71 -39662.28) rotate(-90) scale(19.91)" xlink:href="#linear-gradient"/><clipPath id="clip-path-38"><rect class="cls-1" x="1194.05" y="1096.94" width="22.77" height="27.78"/></clipPath><linearGradient id="linear-gradient-32" x1="-2046.64" y1="0" x2="-2045.64" y2="0" gradientTransform="translate(1205.44 -55738.44) rotate(-90) scale(27.78)" xlink:href="#linear-gradient"/><clipPath id="clip-path-39"><path class="cls-1" d="M1204.71,1106.2a13.42,13.42,0,1,0-12.94-13.42,13.19,13.19,0,0,0,12.94,13.42"/></clipPath><linearGradient id="linear-gradient-33" x1="-2046.64" y1="0" x2="-2045.64" y2="0" gradientTransform="translate(1204.71 -53822.84) rotate(-90) scale(26.84)" xlink:href="#linear-gradient"/><clipPath id="clip-path-40"><rect class="cls-1" x="1245.16" y="1063.3" width="37.04" height="19.91" rx="5.67"/></clipPath><linearGradient id="linear-gradient-34" x1="-2046.64" y1="0" x2="-2045.64" y2="0" gradientTransform="translate(1263.68 -39662.28) rotate(-90) scale(19.91)" xlink:href="#linear-gradient"/><clipPath id="clip-path-41"><rect class="cls-1" x="1253.02" y="1096.94" width="22.77" height="27.78"/></clipPath><linearGradient id="linear-gradient-35" x1="-2046.64" y1="0" x2="-2045.64" y2="0" gradientTransform="translate(1264.41 -55738.44) rotate(-90) scale(27.78)" xlink:href="#linear-gradient"/><clipPath id="clip-path-42"><path class="cls-1" d="M1263.68,1106.2a13.42,13.42,0,1,0-12.94-13.42,13.19,13.19,0,0,0,12.94,13.42"/></clipPath><linearGradient id="linear-gradient-36" x1="-2046.64" y1="0" x2="-2045.64" y2="0" gradientTransform="translate(1263.68 -53822.84) rotate(-90) scale(26.84)" xlink:href="#linear-gradient"/><clipPath id="clip-path-44"><rect class="cls-1" x="1334.63" y="1260.05" width="37.04" height="19.91" rx="5.67"/></clipPath><linearGradient id="linear-gradient-37" x1="-2046.64" y1="0" x2="-2045.64" y2="0" gradientTransform="matrix(0, 19.91, 19.91, 0, 1353.16, 42005.54)" xlink:href="#linear-gradient"/><clipPath id="clip-path-45"><rect class="cls-1" x="1342.49" y="1218.53" width="22.78" height="27.78"/></clipPath><linearGradient id="linear-gradient-38" x1="-2046.64" y1="0" x2="-2045.64" y2="0" gradientTransform="matrix(0, 27.78, 27.78, 0, 1353.88, 58081.7)" xlink:href="#linear-gradient"/><clipPath id="clip-path-46"><path class="cls-1" d="M1353.15,1263.89a13.42,13.42,0,1,0-12.94-13.41,13.18,13.18,0,0,0,12.94,13.41"/></clipPath><linearGradient id="linear-gradient-39" x1="-2046.64" y1="0" x2="-2045.64" y2="0" gradientTransform="matrix(0, 26.84, 26.84, 0, 1353.16, 56166.1)" xlink:href="#linear-gradient"/><clipPath id="clip-path-47"><rect class="cls-1" x="1393.1" y="1260.05" width="37.05" height="19.91" rx="5.67"/></clipPath><linearGradient id="linear-gradient-40" x1="-2046.64" y1="0" x2="-2045.64" y2="0" gradientTransform="matrix(0, 19.91, 19.91, 0, 1411.62, 42005.54)" xlink:href="#linear-gradient"/><clipPath id="clip-path-48"><rect class="cls-1" x="1400.96" y="1218.53" width="22.77" height="27.78"/></clipPath><linearGradient id="linear-gradient-41" x1="-2046.64" y1="0" x2="-2045.64" y2="0" gradientTransform="matrix(0, 27.78, 27.78, 0, 1412.35, 58081.7)" xlink:href="#linear-gradient"/><clipPath id="clip-path-49"><path class="cls-1" d="M1411.62,1263.89a13.42,13.42,0,1,0-12.95-13.41,13.18,13.18,0,0,0,12.95,13.41"/></clipPath><linearGradient id="linear-gradient-42" x1="-2046.64" y1="0" x2="-2045.64" y2="0" gradientTransform="matrix(0, 26.84, 26.84, 0, 1411.62, 56166.1)" xlink:href="#linear-gradient"/><clipPath id="clip-path-50"><rect class="cls-1" x="1452.07" y="1260.05" width="37.04" height="19.91" rx="5.67"/></clipPath><linearGradient id="linear-gradient-43" x1="-2046.64" y1="0" x2="-2045.64" y2="0" gradientTransform="matrix(0, 19.91, 19.91, 0, 1470.59, 42005.54)" xlink:href="#linear-gradient"/><clipPath id="clip-path-51"><rect class="cls-1" x="1459.93" y="1218.53" width="22.78" height="27.78"/></clipPath><linearGradient id="linear-gradient-44" x1="-2046.64" y1="0" x2="-2045.64" y2="0" gradientTransform="matrix(0, 27.78, 27.78, 0, 1471.31, 58081.7)" xlink:href="#linear-gradient"/><clipPath id="clip-path-52"><path class="cls-1" d="M1470.59,1263.89a13.42,13.42,0,1,0-12.95-13.41,13.18,13.18,0,0,0,12.95,13.41"/></clipPath><linearGradient id="linear-gradient-45" x1="-2046.64" y1="0" x2="-2045.64" y2="0" gradientTransform="matrix(0, 26.84, 26.84, 0, 1470.59, 56166.1)" xlink:href="#linear-gradient"/><clipPath id="clip-path-53"><rect class="cls-1" x="1334.63" y="1063.3" width="37.04" height="19.91" rx="5.67"/></clipPath><linearGradient id="linear-gradient-46" x1="-2046.64" y1="0" x2="-2045.64" y2="0" gradientTransform="translate(1353.16 -39662.28) rotate(-90) scale(19.91)" xlink:href="#linear-gradient"/><clipPath id="clip-path-54"><rect class="cls-1" x="1342.49" y="1096.94" width="22.78" height="27.78"/></clipPath><linearGradient id="linear-gradient-47" x1="-2046.64" y1="0" x2="-2045.64" y2="0" gradientTransform="translate(1353.88 -55738.44) rotate(-90) scale(27.78)" xlink:href="#linear-gradient"/><clipPath id="clip-path-55"><path class="cls-1" d="M1353.15,1106.2a13.42,13.42,0,1,0-12.94-13.42,13.19,13.19,0,0,0,12.94,13.42"/></clipPath><linearGradient id="linear-gradient-48" x1="-2046.64" y1="0" x2="-2045.64" y2="0" gradientTransform="translate(1353.16 -53822.84) rotate(-90) scale(26.84)" xlink:href="#linear-gradient"/><clipPath id="clip-path-56"><rect class="cls-1" x="1393.1" y="1063.3" width="37.05" height="19.91" rx="5.67"/></clipPath><linearGradient id="linear-gradient-49" x1="-2046.64" y1="0" x2="-2045.64" y2="0" gradientTransform="translate(1411.62 -39662.28) rotate(-90) scale(19.91)" xlink:href="#linear-gradient"/><clipPath id="clip-path-57"><rect class="cls-1" x="1400.96" y="1096.94" width="22.77" height="27.78"/></clipPath><linearGradient id="linear-gradient-50" x1="-2046.64" y1="0" x2="-2045.64" y2="0" gradientTransform="translate(1412.35 -55738.44) rotate(-90) scale(27.78)" xlink:href="#linear-gradient"/><clipPath id="clip-path-58"><path class="cls-1" d="M1411.62,1106.2a13.42,13.42,0,1,0-12.95-13.42,13.19,13.19,0,0,0,12.95,13.42"/></clipPath><linearGradient id="linear-gradient-51" x1="-2046.64" y1="0" x2="-2045.64" y2="0" gradientTransform="translate(1411.62 -53822.84) rotate(-90) scale(26.84)" xlink:href="#linear-gradient"/><clipPath id="clip-path-59"><rect class="cls-1" x="1452.07" y="1063.3" width="37.04" height="19.91" rx="5.67"/></clipPath><linearGradient id="linear-gradient-52" x1="-2046.64" y1="0" x2="-2045.64" y2="0" gradientTransform="translate(1470.59 -39662.28) rotate(-90) scale(19.91)" xlink:href="#linear-gradient"/><clipPath id="clip-path-60"><rect class="cls-1" x="1459.93" y="1096.94" width="22.78" height="27.78"/></clipPath><linearGradient id="linear-gradient-53" x1="-2046.64" y1="0" x2="-2045.64" y2="0" gradientTransform="translate(1471.31 -55738.44) rotate(-90) scale(27.78)" xlink:href="#linear-gradient"/><clipPath id="clip-path-61"><path class="cls-1" d="M1470.59,1106.2a13.42,13.42,0,1,0-12.95-13.42,13.19,13.19,0,0,0,12.95,13.42"/></clipPath><linearGradient id="linear-gradient-54" x1="-2046.64" y1="0" x2="-2045.64" y2="0" gradientTransform="translate(1470.59 -53822.84) rotate(-90) scale(26.84)" xlink:href="#linear-gradient"/><clipPath id="clip-path-63"><rect class="cls-1" x="1142.51" y="917.18" width="37.04" height="19.91" rx="5.67"/></clipPath><linearGradient id="linear-gradient-55" x1="-2046.64" y1="0" x2="-2045.64" y2="0" gradientTransform="matrix(0, 19.91, 19.91, 0, 1161.03, 41662.66)" xlink:href="#linear-gradient"/><clipPath id="clip-path-64"><rect class="cls-1" x="1150.36" y="875.66" width="22.78" height="27.78"/></clipPath><linearGradient id="linear-gradient-56" x1="-2046.64" y1="0" x2="-2045.64" y2="0" gradientTransform="matrix(0, 27.78, 27.78, 0, 1161.75, 57738.82)" xlink:href="#linear-gradient"/><clipPath id="clip-path-65"><path class="cls-1" d="M1161,921a13.43,13.43,0,1,0-13-13.42A13.19,13.19,0,0,0,1161,921"/></clipPath><linearGradient id="linear-gradient-57" x1="-2046.64" y1="0" x2="-2045.64" y2="0" gradientTransform="matrix(0, 26.84, 26.84, 0, 1161.03, 55823.22)" xlink:href="#linear-gradient"/><clipPath id="clip-path-66"><rect class="cls-1" x="1200.97" y="917.18" width="37.05" height="19.91" rx="5.67"/></clipPath><linearGradient id="linear-gradient-58" x1="-2046.64" y1="0" x2="-2045.64" y2="0" gradientTransform="matrix(0, 19.91, 19.91, 0, 1219.49, 41662.66)" xlink:href="#linear-gradient"/><clipPath id="clip-path-67"><rect class="cls-1" x="1208.83" y="875.66" width="22.77" height="27.78"/></clipPath><linearGradient id="linear-gradient-59" x1="-2046.64" y1="0" x2="-2045.64" y2="0" gradientTransform="matrix(0, 27.78, 27.78, 0, 1220.22, 57738.82)" xlink:href="#linear-gradient"/><clipPath id="clip-path-68"><path class="cls-1" d="M1219.49,921a13.43,13.43,0,1,0-12.94-13.42A13.19,13.19,0,0,0,1219.49,921"/></clipPath><linearGradient id="linear-gradient-60" x1="-2046.64" y1="0" x2="-2045.64" y2="0" gradientTransform="matrix(0, 26.84, 26.84, 0, 1219.49, 55823.22)" xlink:href="#linear-gradient"/><clipPath id="clip-path-69"><rect class="cls-1" x="1259.94" y="917.18" width="37.05" height="19.91" rx="5.67"/></clipPath><linearGradient id="linear-gradient-61" x1="-2046.64" y1="0" x2="-2045.64" y2="0" gradientTransform="matrix(0, 19.91, 19.91, 0, 1278.46, 41662.66)" xlink:href="#linear-gradient"/><clipPath id="clip-path-70"><rect class="cls-1" x="1267.8" y="875.66" width="22.78" height="27.78"/></clipPath><linearGradient id="linear-gradient-62" x1="-2046.64" y1="0" x2="-2045.64" y2="0" gradientTransform="matrix(0, 27.78, 27.78, 0, 1279.19, 57738.82)" xlink:href="#linear-gradient"/><clipPath id="clip-path-71"><path class="cls-1" d="M1278.46,921a13.43,13.43,0,1,0-13-13.42,13.19,13.19,0,0,0,13,13.42"/></clipPath><linearGradient id="linear-gradient-63" x1="-2046.64" y1="0" x2="-2045.64" y2="0" gradientTransform="matrix(0, 26.84, 26.84, 0, 1278.46, 55823.22)" xlink:href="#linear-gradient"/><clipPath id="clip-path-72"><rect class="cls-1" x="1142.51" y="720.42" width="37.04" height="19.91" rx="5.67"/></clipPath><linearGradient id="linear-gradient-64" x1="-2046.64" y1="0" x2="-2045.64" y2="0" gradientTransform="translate(1161.03 -40005.15) rotate(-90) scale(19.91)" xlink:href="#linear-gradient"/><clipPath id="clip-path-73"><rect class="cls-1" x="1150.36" y="754.07" width="22.78" height="27.78"/></clipPath><linearGradient id="linear-gradient-65" x1="-2046.64" y1="0" x2="-2045.64" y2="0" gradientTransform="translate(1161.75 -56081.31) rotate(-90) scale(27.78)" xlink:href="#linear-gradient"/><clipPath id="clip-path-74"><path class="cls-1" d="M1161,763.33a13.43,13.43,0,1,0-13-13.42,13.19,13.19,0,0,0,13,13.42"/></clipPath><linearGradient id="linear-gradient-66" x1="-2046.64" y1="0" x2="-2045.64" y2="0" gradientTransform="translate(1161.03 -54165.71) rotate(-90) scale(26.84)" xlink:href="#linear-gradient"/><clipPath id="clip-path-75"><rect class="cls-1" x="1200.97" y="720.42" width="37.05" height="19.91" rx="5.67"/></clipPath><linearGradient id="linear-gradient-67" x1="-2046.64" y1="0" x2="-2045.64" y2="0" gradientTransform="translate(1219.49 -40005.15) rotate(-90) scale(19.91)" xlink:href="#linear-gradient"/><clipPath id="clip-path-76"><rect class="cls-1" x="1208.83" y="754.07" width="22.77" height="27.78"/></clipPath><linearGradient id="linear-gradient-68" x1="-2046.64" y1="0" x2="-2045.64" y2="0" gradientTransform="translate(1220.22 -56081.31) rotate(-90) scale(27.78)" xlink:href="#linear-gradient"/><clipPath id="clip-path-77"><path class="cls-1" d="M1219.49,763.33a13.43,13.43,0,1,0-12.94-13.42,13.19,13.19,0,0,0,12.94,13.42"/></clipPath><linearGradient id="linear-gradient-69" x1="-2046.64" y1="0" x2="-2045.64" y2="0" gradientTransform="translate(1219.49 -54165.71) rotate(-90) scale(26.84)" xlink:href="#linear-gradient"/><clipPath id="clip-path-78"><rect class="cls-1" x="1259.94" y="720.42" width="37.05" height="19.91" rx="5.67"/></clipPath><linearGradient id="linear-gradient-70" x1="-2046.64" y1="0" x2="-2045.64" y2="0" gradientTransform="translate(1278.46 -40005.15) rotate(-90) scale(19.91)" xlink:href="#linear-gradient"/><clipPath id="clip-path-79"><rect class="cls-1" x="1267.8" y="754.07" width="22.78" height="27.78"/></clipPath><linearGradient id="linear-gradient-71" x1="-2046.64" y1="0" x2="-2045.64" y2="0" gradientTransform="translate(1279.19 -56081.31) rotate(-90) scale(27.78)" xlink:href="#linear-gradient"/><clipPath id="clip-path-80"><path class="cls-1" d="M1278.46,763.33a13.43,13.43,0,1,0-13-13.42,13.19,13.19,0,0,0,13,13.42"/></clipPath><linearGradient id="linear-gradient-72" x1="-2046.64" y1="0" x2="-2045.64" y2="0" gradientTransform="translate(1278.46 -54165.71) rotate(-90) scale(26.84)" xlink:href="#linear-gradient"/><clipPath id="clip-path-82"><rect class="cls-1" x="1142.51" y="670.86" width="37.04" height="19.91" rx="5.67"/></clipPath><linearGradient id="linear-gradient-73" x1="-2046.64" y1="0" x2="-2045.64" y2="0" gradientTransform="matrix(0, 19.91, 19.91, 0, 1161.03, 41416.34)" xlink:href="#linear-gradient"/><clipPath id="clip-path-83"><rect class="cls-1" x="1150.36" y="629.34" width="22.78" height="27.78"/></clipPath><linearGradient id="linear-gradient-74" x1="-2046.64" y1="0" x2="-2045.64" y2="0" gradientTransform="matrix(0, 27.78, 27.78, 0, 1161.75, 57492.5)" xlink:href="#linear-gradient"/><clipPath id="clip-path-84"><path class="cls-1" d="M1161,674.7a13.43,13.43,0,1,0-13-13.42,13.19,13.19,0,0,0,13,13.42"/></clipPath><linearGradient id="linear-gradient-75" x1="-2046.64" y1="0" x2="-2045.64" y2="0" gradientTransform="matrix(0, 26.84, 26.84, 0, 1161.03, 55576.9)" xlink:href="#linear-gradient"/><clipPath id="clip-path-85"><rect class="cls-1" x="1200.97" y="670.86" width="37.05" height="19.91" rx="5.67"/></clipPath><linearGradient id="linear-gradient-76" x1="-2046.64" y1="0" x2="-2045.64" y2="0" gradientTransform="matrix(0, 19.91, 19.91, 0, 1219.49, 41416.34)" xlink:href="#linear-gradient"/><clipPath id="clip-path-86"><rect class="cls-1" x="1208.83" y="629.34" width="22.77" height="27.78"/></clipPath><linearGradient id="linear-gradient-77" x1="-2046.64" y1="0" x2="-2045.64" y2="0" gradientTransform="matrix(0, 27.78, 27.78, 0, 1220.22, 57492.5)" xlink:href="#linear-gradient"/><clipPath id="clip-path-87"><path class="cls-1" d="M1219.49,674.7a13.43,13.43,0,1,0-12.94-13.42,13.19,13.19,0,0,0,12.94,13.42"/></clipPath><linearGradient id="linear-gradient-78" x1="-2046.64" y1="0" x2="-2045.64" y2="0" gradientTransform="matrix(0, 26.84, 26.84, 0, 1219.49, 55576.9)" xlink:href="#linear-gradient"/><clipPath id="clip-path-88"><rect class="cls-1" x="1259.94" y="670.86" width="37.05" height="19.91" rx="5.67"/></clipPath><linearGradient id="linear-gradient-79" x1="-2046.64" y1="0" x2="-2045.64" y2="0" gradientTransform="matrix(0, 19.91, 19.91, 0, 1278.46, 41416.34)" xlink:href="#linear-gradient"/><clipPath id="clip-path-89"><rect class="cls-1" x="1267.8" y="629.34" width="22.78" height="27.78"/></clipPath><linearGradient id="linear-gradient-80" x1="-2046.64" y1="0" x2="-2045.64" y2="0" gradientTransform="matrix(0, 27.78, 27.78, 0, 1279.19, 57492.5)" xlink:href="#linear-gradient"/><clipPath id="clip-path-90"><path class="cls-1" d="M1278.46,674.7a13.43,13.43,0,1,0-13-13.42,13.19,13.19,0,0,0,13,13.42"/></clipPath><linearGradient id="linear-gradient-81" x1="-2046.64" y1="0" x2="-2045.64" y2="0" gradientTransform="matrix(0, 26.84, 26.84, 0, 1278.46, 55576.9)" xlink:href="#linear-gradient"/><clipPath id="clip-path-91"><rect class="cls-1" x="1142.51" y="474.11" width="37.04" height="19.9" rx="5.67"/></clipPath><linearGradient id="linear-gradient-82" x1="-2046.64" y1="0" x2="-2045.64" y2="0" gradientTransform="translate(1161.03 -40251.47) rotate(-90) scale(19.91)" xlink:href="#linear-gradient"/><clipPath id="clip-path-92"><rect class="cls-1" x="1150.36" y="507.75" width="22.78" height="27.78"/></clipPath><linearGradient id="linear-gradient-83" x1="-2046.64" y1="0" x2="-2045.64" y2="0" gradientTransform="translate(1161.75 -56327.63) rotate(-90) scale(27.78)" xlink:href="#linear-gradient"/><clipPath id="clip-path-93"><path class="cls-1" d="M1161,517a13.43,13.43,0,1,0-13-13.42A13.19,13.19,0,0,0,1161,517"/></clipPath><linearGradient id="linear-gradient-84" x1="-2046.64" y1="0" x2="-2045.64" y2="0" gradientTransform="translate(1161.03 -54412.03) rotate(-90) scale(26.84)" xlink:href="#linear-gradient"/><clipPath id="clip-path-94"><rect class="cls-1" x="1200.97" y="474.11" width="37.05" height="19.9" rx="5.67"/></clipPath><linearGradient id="linear-gradient-85" x1="-2046.64" y1="0" x2="-2045.64" y2="0" gradientTransform="translate(1219.49 -40251.47) rotate(-90) scale(19.91)" xlink:href="#linear-gradient"/><clipPath id="clip-path-95"><rect class="cls-1" x="1208.83" y="507.75" width="22.77" height="27.78"/></clipPath><linearGradient id="linear-gradient-86" x1="-2046.64" y1="0" x2="-2045.64" y2="0" gradientTransform="translate(1220.22 -56327.63) rotate(-90) scale(27.78)" xlink:href="#linear-gradient"/><clipPath id="clip-path-96"><path class="cls-1" d="M1219.49,517a13.43,13.43,0,1,0-12.94-13.42A13.19,13.19,0,0,0,1219.49,517"/></clipPath><linearGradient id="linear-gradient-87" x1="-2046.64" y1="0" x2="-2045.64" y2="0" gradientTransform="translate(1219.49 -54412.03) rotate(-90) scale(26.84)" xlink:href="#linear-gradient"/><clipPath id="clip-path-97"><rect class="cls-1" x="1259.94" y="474.11" width="37.05" height="19.9" rx="5.67"/></clipPath><linearGradient id="linear-gradient-88" x1="-2046.64" y1="0" x2="-2045.64" y2="0" gradientTransform="translate(1278.46 -40251.47) rotate(-90) scale(19.91)" xlink:href="#linear-gradient"/><clipPath id="clip-path-98"><rect class="cls-1" x="1267.8" y="507.75" width="22.78" height="27.78"/></clipPath><linearGradient id="linear-gradient-89" x1="-2046.64" y1="0" x2="-2045.64" y2="0" gradientTransform="translate(1279.19 -56327.63) rotate(-90) scale(27.78)" xlink:href="#linear-gradient"/><clipPath id="clip-path-99"><path class="cls-1" d="M1278.46,517a13.43,13.43,0,1,0-13-13.42,13.19,13.19,0,0,0,13,13.42"/></clipPath><linearGradient id="linear-gradient-90" x1="-2046.64" y1="0" x2="-2045.64" y2="0" gradientTransform="translate(1278.46 -54412.03) rotate(-90) scale(26.84)" xlink:href="#linear-gradient"/><clipPath id="clip-path-101"><rect class="cls-1" x="796.81" y="1579.41" width="155.55" height="155.55"/></clipPath><clipPath id="clip-path-103"><rect class="cls-1" x="1473.53" y="1334.65" width="155.55" height="155.55"/></clipPath><clipPath id="clip-path-105"><rect class="cls-1" x="1158.32" y="268.59" width="155.55" height="155.55"/></clipPath></defs><g id="RAK5804_Front" data-name="RAK5804 Front"><g class="cls-2"><g class="cls-2"><path class="cls-3" d="M788.9,1770.48h841.43A35.48,35.48,0,0,0,1665.8,1735V265a35.48,35.48,0,0,0-35.47-35.47H788.9A35.47,35.47,0,0,0,753.43,265V1735a35.47,35.47,0,0,0,35.47,35.47M918.73,1652a44.34,44.34,0,1,1-39.58-39.59A44.34,44.34,0,0,1,918.73,1652m678.93-244a47.3,47.3,0,1,1-43.3-43.31,47.31,47.31,0,0,1,43.3,43.31M1281.07,342.78a45,45,0,1,1-41.2-41.2,45,45,0,0,1,41.2,41.2"/></g><g class="cls-4"><rect class="cls-5" x="1037.13" y="1215.49" width="47.68" height="25"/><rect class="cls-5" x="1037.13" y="1255.61" width="47.68" height="25"/><rect class="cls-5" x="1037.13" y="1295.72" width="47.68" height="25"/><rect class="cls-5" x="1037.13" y="1335.83" width="47.68" height="25"/><rect class="cls-5" x="1037.13" y="1375.94" width="47.68" height="25"/></g><g class="cls-6"><path class="cls-7" d="M924.74,1567.93H851.6a16.08,16.08,0,0,1-16-16v-491.5a16.09,16.09,0,0,1,16-16.05h73.14a16.1,16.1,0,0,1,16,16.05v491.5a16.09,16.09,0,0,1-16,16"/><path class="cls-8" d="M920.93,1556.52h-63a16.1,16.1,0,0,1-16.05-16V1073.07a16.11,16.11,0,0,1,16.05-16h63a16.1,16.1,0,0,1,16.05,16v467.41a16.09,16.09,0,0,1-16.05,16"/><path class="cls-8" d="M1087.84,1157.5a34.23,34.23,0,1,1-34.22-34.23,34.22,34.22,0,0,1,34.22,34.23"/><path class="cls-7" d="M1078.93,1156.84a26,26,0,1,1-26-26,26,26,0,0,1,26,26"/><path class="cls-8" d="M1087.84,1456.05a34.23,34.23,0,1,1-34.22-34.23,34.22,34.22,0,0,1,34.22,34.23"/><path class="cls-7" d="M1078.93,1455.4a26,26,0,1,1-26-26,26,26,0,0,1,26,26"/><polygon class="cls-9" points="741.74 1092.09 714.75 1076.68 715.65 1061.28 741.74 1076.04 741.74 1092.09"/><polygon class="cls-9" points="741.74 1518.05 714.75 1533.45 715.65 1548.86 741.74 1534.1 741.74 1518.05"/><path class="cls-9" d="M857.55,1505.81H716a16.09,16.09,0,0,1-16-16V1130.12a16.1,16.1,0,0,1,16-16h141.6a16.1,16.1,0,0,1,16,16v359.65a16.09,16.09,0,0,1-16,16"/><path class="cls-10" d="M1031.23,1537.5H743.84a16.09,16.09,0,0,1-16-16V1092.08a16.09,16.09,0,0,1,16-16h287.39a16.09,16.09,0,0,1,16,16v429.38a16.09,16.09,0,0,1-16,16"/><path class="cls-11" d="M874.29,1177.46H806a5.33,5.33,0,0,1-5.32-5.32v-35a5.34,5.34,0,0,1,5.32-5.32h68.27a5.34,5.34,0,0,1,5.32,5.32v35a5.33,5.33,0,0,1-5.32,5.32"/><path class="cls-12" d="M822,1191.72H792.07a5.33,5.33,0,0,1-5.32-5.32v-57.82a5.33,5.33,0,0,1,5.32-5.31H822a5.33,5.33,0,0,1,5.32,5.31v57.82a5.33,5.33,0,0,1-5.32,5.32"/><path class="cls-11" d="M874.29,1478.87H806a5.33,5.33,0,0,1-5.32-5.32v-35a5.34,5.34,0,0,1,5.32-5.32h68.27a5.34,5.34,0,0,1,5.32,5.32v35a5.33,5.33,0,0,1-5.32,5.32"/><path class="cls-12" d="M822,1493.13H792.07a5.33,5.33,0,0,1-5.32-5.32V1430a5.33,5.33,0,0,1,5.32-5.31H822a5.33,5.33,0,0,1,5.32,5.31v57.82a5.33,5.33,0,0,1-5.32,5.32"/><rect class="cls-13" x="1007.97" y="1131.82" width="39.3" height="130.58"/><path class="cls-13" d="M1012.67,1223.73H979.82a6.73,6.73,0,0,1-6.71-6.71v-27.5a6.73,6.73,0,0,1,6.71-6.71h32.85a6.73,6.73,0,0,1,6.71,6.71V1217a6.73,6.73,0,0,1-6.71,6.71"/><path class="cls-14" d="M1002.57,1215.49H984.22a5.42,5.42,0,0,1-5.41-5.4V1200a5.42,5.42,0,0,1,5.41-5.4h18.35a5.42,5.42,0,0,1,5.41,5.4v10.12a5.42,5.42,0,0,1-5.41,5.4"/><path class="cls-15" d="M1046.25,1187.92h-24.58a2.29,2.29,0,0,1-2.28-2.29v-51.52a2.29,2.29,0,0,1,2.28-2.29h24.58a2.3,2.3,0,0,1,2.29,2.29v51.52a2.3,2.3,0,0,1-2.29,2.29"/><path class="cls-14" d="M1012.67,1268.11h-12.56a6.74,6.74,0,0,1-6.72-6.72V1132.83a6.74,6.74,0,0,1,6.72-6.71h12.56a6.73,6.73,0,0,1,6.71,6.71v128.56a6.73,6.73,0,0,1-6.71,6.72"/><rect class="cls-14" x="1016.85" y="1131.82" width="20.29" height="130.58"/><rect class="cls-13" x="1007.97" y="1344.82" width="39.3" height="130.58"/><path class="cls-13" d="M1012.67,1383.49H979.82a6.73,6.73,0,0,0-6.71,6.71v27.5a6.73,6.73,0,0,0,6.71,6.71h32.85a6.73,6.73,0,0,0,6.71-6.71v-27.5a6.73,6.73,0,0,0-6.71-6.71"/><path class="cls-14" d="M1002.57,1391.73H984.22a5.42,5.42,0,0,0-5.41,5.4v10.11a5.43,5.43,0,0,0,5.41,5.41h18.35a5.43,5.43,0,0,0,5.41-5.41v-10.11a5.42,5.42,0,0,0-5.41-5.4"/><path class="cls-15" d="M1046.25,1419.3h-24.58a2.29,2.29,0,0,0-2.28,2.29v51.52a2.29,2.29,0,0,0,2.28,2.29h24.58a2.3,2.3,0,0,0,2.29-2.29v-51.52a2.3,2.3,0,0,0-2.29-2.29"/><path class="cls-14" d="M1012.67,1339.11h-12.56a6.75,6.75,0,0,0-6.72,6.72v128.56a6.74,6.74,0,0,0,6.72,6.71h12.56a6.73,6.73,0,0,0,6.71-6.71V1345.83a6.74,6.74,0,0,0-6.71-6.72"/><rect class="cls-14" x="1016.85" y="1344.82" width="20.29" height="130.58"/></g><g class="cls-2"><path class="cls-16" d="M1000.24,909.48v24.88a5.54,5.54,0,0,1-5.54,5.54H952.58a5.54,5.54,0,0,1-5.54-5.54V909.48a5.54,5.54,0,0,1,5.54-5.54H994.7a5.54,5.54,0,0,1,5.54,5.54"/><path class="cls-16" d="M1000.24,846.42V871.3a5.54,5.54,0,0,1-5.54,5.54H952.58A5.54,5.54,0,0,1,947,871.3V846.42a5.54,5.54,0,0,1,5.54-5.54H994.7a5.54,5.54,0,0,1,5.54,5.54"/><path class="cls-16" d="M1000.24,783.36v24.88a5.54,5.54,0,0,1-5.54,5.54H952.58a5.54,5.54,0,0,1-5.54-5.54V783.36a5.54,5.54,0,0,1,5.54-5.54H994.7a5.54,5.54,0,0,1,5.54,5.54"/><path class="cls-16" d="M1000.24,720.31v24.88a5.55,5.55,0,0,1-5.54,5.54H952.58a5.55,5.55,0,0,1-5.54-5.54V720.31a5.54,5.54,0,0,1,5.54-5.55H994.7a5.54,5.54,0,0,1,5.54,5.55"/><path class="cls-16" d="M1000.24,657.25v24.88a5.54,5.54,0,0,1-5.54,5.54H952.58a5.54,5.54,0,0,1-5.54-5.54V657.25a5.54,5.54,0,0,1,5.54-5.54H994.7a5.54,5.54,0,0,1,5.54,5.54"/><path class="cls-16" d="M1000.24,594.19v24.88a5.54,5.54,0,0,1-5.54,5.54H952.58a5.54,5.54,0,0,1-5.54-5.54V594.19a5.54,5.54,0,0,1,5.54-5.54H994.7a5.54,5.54,0,0,1,5.54,5.54"/><path class="cls-16" d="M1000.24,531.13V556a5.54,5.54,0,0,1-5.54,5.54H952.58A5.54,5.54,0,0,1,947,556V531.13a5.54,5.54,0,0,1,5.54-5.54H994.7a5.54,5.54,0,0,1,5.54,5.54"/><path class="cls-16" d="M1000.24,468.08V493a5.55,5.55,0,0,1-5.54,5.55H952.58A5.55,5.55,0,0,1,947,493V468.08a5.54,5.54,0,0,1,5.54-5.55H994.7a5.54,5.54,0,0,1,5.54,5.55"/><path class="cls-16" d="M1000.24,405V429.9a5.54,5.54,0,0,1-5.54,5.54H952.58A5.54,5.54,0,0,1,947,429.9V405a5.54,5.54,0,0,1,5.54-5.54H994.7a5.54,5.54,0,0,1,5.54,5.54"/><path class="cls-16" d="M1000.24,342v24.88a5.54,5.54,0,0,1-5.54,5.54H952.58a5.54,5.54,0,0,1-5.54-5.54V342a5.54,5.54,0,0,1,5.54-5.54H994.7a5.54,5.54,0,0,1,5.54,5.54"/><path class="cls-17" d="M758.36,237.73v774.75a4.27,4.27,0,0,0,4.27,4.27H932.42a4.27,4.27,0,0,0,4.27-4.27v-20A21.35,21.35,0,0,1,958,971.1a4.27,4.27,0,0,0,4.27-4.27V284.36a4.27,4.27,0,0,0-4.27-4.27,21.34,21.34,0,0,1-21.35-21.34v-21a4.27,4.27,0,0,0-4.27-4.27H762.63a4.27,4.27,0,0,0-4.27,4.27"/><path class="cls-18" d="M810.91,296.52h-7.56v662.1h8.83a8.74,8.74,0,0,1,8.74,8.74v9.73h50v-9.73a8.74,8.74,0,0,1,8.74-8.74h53.08V296.52H874.29a7.56,7.56,0,0,1-7.55-7.56V275.5H818.46V289a7.56,7.56,0,0,1-7.55,7.56"/><rect class="cls-19" x="823.39" y="903.2" width="21.18" height="14.04"/><rect class="cls-19" x="823.39" y="841.12" width="21.18" height="14.04"/><rect class="cls-19" x="823.39" y="779.05" width="21.18" height="14.04"/><rect class="cls-19" x="823.39" y="716.98" width="21.18" height="14.04"/><rect class="cls-19" x="823.39" y="654.91" width="21.18" height="14.04"/><rect class="cls-19" x="823.39" y="592.83" width="21.18" height="14.04"/><rect class="cls-19" x="823.39" y="530.76" width="21.18" height="14.04"/><rect class="cls-19" x="823.39" y="468.69" width="21.18" height="14.04"/><rect class="cls-19" x="823.39" y="406.62" width="21.18" height="14.04"/><rect class="cls-19" x="823.39" y="344.55" width="21.18" height="14.04"/><rect class="cls-20" x="890.88" y="841.12" width="21.18" height="14.04"/><rect class="cls-20" x="890.88" y="779.05" width="21.18" height="14.04"/><rect class="cls-20" x="890.88" y="716.98" width="21.18" height="14.04"/><rect class="cls-20" x="890.88" y="654.91" width="21.18" height="14.04"/><rect class="cls-20" x="890.88" y="592.83" width="21.18" height="14.04"/><rect class="cls-20" x="890.88" y="530.76" width="21.18" height="14.04"/><rect class="cls-20" x="890.88" y="468.69" width="21.18" height="14.04"/><rect class="cls-20" x="890.88" y="406.62" width="21.18" height="14.04"/><rect class="cls-20" x="890.88" y="344.55" width="21.18" height="14.04"/><path class="cls-16" d="M1435.41,356.49V331.61a5.55,5.55,0,0,1,5.54-5.54h42.12a5.55,5.55,0,0,1,5.54,5.54v24.88a5.55,5.55,0,0,1-5.54,5.55H1441a5.55,5.55,0,0,1-5.54-5.55"/><path class="cls-16" d="M1435.41,419.55V394.67a5.54,5.54,0,0,1,5.54-5.54h42.12a5.54,5.54,0,0,1,5.54,5.54v24.88a5.54,5.54,0,0,1-5.54,5.54H1441a5.54,5.54,0,0,1-5.54-5.54"/><path class="cls-16" d="M1435.41,482.61V457.73a5.54,5.54,0,0,1,5.54-5.54h42.12a5.54,5.54,0,0,1,5.54,5.54v24.88a5.54,5.54,0,0,1-5.54,5.54H1441a5.54,5.54,0,0,1-5.54-5.54"/><path class="cls-16" d="M1435.41,545.67V520.79a5.55,5.55,0,0,1,5.54-5.55h42.12a5.55,5.55,0,0,1,5.54,5.55v24.88a5.54,5.54,0,0,1-5.54,5.54H1441a5.54,5.54,0,0,1-5.54-5.54"/><path class="cls-16" d="M1435.41,608.72V583.84a5.54,5.54,0,0,1,5.54-5.54h42.12a5.54,5.54,0,0,1,5.54,5.54v24.88a5.55,5.55,0,0,1-5.54,5.55H1441a5.55,5.55,0,0,1-5.54-5.55"/><path class="cls-16" d="M1435.41,671.78V646.9a5.54,5.54,0,0,1,5.54-5.54h42.12a5.54,5.54,0,0,1,5.54,5.54v24.88a5.54,5.54,0,0,1-5.54,5.54H1441a5.54,5.54,0,0,1-5.54-5.54"/><path class="cls-16" d="M1435.41,734.84V710a5.54,5.54,0,0,1,5.54-5.54h42.12a5.54,5.54,0,0,1,5.54,5.54v24.88a5.54,5.54,0,0,1-5.54,5.54H1441a5.54,5.54,0,0,1-5.54-5.54"/><path class="cls-16" d="M1435.41,797.89V773a5.55,5.55,0,0,1,5.54-5.55h42.12a5.55,5.55,0,0,1,5.54,5.55v24.87a5.54,5.54,0,0,1-5.54,5.55H1441a5.54,5.54,0,0,1-5.54-5.55"/><path class="cls-16" d="M1435.41,861V836.07a5.54,5.54,0,0,1,5.54-5.54h42.12a5.54,5.54,0,0,1,5.54,5.54V861a5.55,5.55,0,0,1-5.54,5.55H1441a5.55,5.55,0,0,1-5.54-5.55"/><path class="cls-16" d="M1435.41,924V899.13a5.54,5.54,0,0,1,5.54-5.54h42.12a5.54,5.54,0,0,1,5.54,5.54V924a5.54,5.54,0,0,1-5.54,5.54H1441a5.54,5.54,0,0,1-5.54-5.54"/><path class="cls-17" d="M1677.29,1028.24V253.49a4.27,4.27,0,0,0-4.27-4.27H1503.23a4.27,4.27,0,0,0-4.27,4.27v20a21.35,21.35,0,0,1-21.35,21.34,4.27,4.27,0,0,0-4.27,4.27V981.61a4.27,4.27,0,0,0,4.27,4.27,21.35,21.35,0,0,1,21.35,21.34v21a4.27,4.27,0,0,0,4.27,4.27H1673a4.27,4.27,0,0,0,4.27-4.27"/><path class="cls-18" d="M1624.74,969.46h7.56V307.35h-8.83a8.74,8.74,0,0,1-8.74-8.74v-9.73h-50v9.73a8.74,8.74,0,0,1-8.74,8.74H1502.9V969.46h58.45a7.55,7.55,0,0,1,7.56,7.55v13.47h48.28V977a7.55,7.55,0,0,1,7.55-7.55"/><rect class="cls-19" x="1591.08" y="348.73" width="21.18" height="14.04"/><rect class="cls-19" x="1591.08" y="410.81" width="21.18" height="14.04"/><rect class="cls-19" x="1591.08" y="472.88" width="21.18" height="14.04"/><rect class="cls-19" x="1591.08" y="534.95" width="21.18" height="14.04"/><rect class="cls-19" x="1591.08" y="597.02" width="21.18" height="14.04"/><rect class="cls-19" x="1591.08" y="659.1" width="21.18" height="14.04"/><rect class="cls-19" x="1591.08" y="721.17" width="21.18" height="14.04"/><rect class="cls-19" x="1591.08" y="783.24" width="21.18" height="14.04"/><rect class="cls-19" x="1591.08" y="845.31" width="21.18" height="14.04"/><rect class="cls-19" x="1591.08" y="907.38" width="21.18" height="14.04"/><rect class="cls-20" x="1523.59" y="410.81" width="21.18" height="14.04"/><rect class="cls-20" x="1523.59" y="472.88" width="21.18" height="14.04"/><rect class="cls-20" x="1523.59" y="534.95" width="21.18" height="14.04"/><rect class="cls-20" x="1523.59" y="597.02" width="21.18" height="14.04"/><rect class="cls-20" x="1523.59" y="659.1" width="21.18" height="14.04"/><rect class="cls-20" x="1523.59" y="721.17" width="21.18" height="14.04"/><rect class="cls-20" x="1523.59" y="783.24" width="21.18" height="14.04"/><rect class="cls-20" x="1523.59" y="845.31" width="21.18" height="14.04"/><rect class="cls-20" x="1523.59" y="907.38" width="21.18" height="14.04"/></g><g class="cls-21"><rect class="cls-22" x="1147.43" y="1514.25" width="37.04" height="19.91"/></g><g class="cls-23"><rect class="cls-24" x="1155.29" y="1472.74" width="22.77" height="27.78"/></g><g class="cls-25"><rect class="cls-26" x="1153.01" y="1491.26" width="25.89" height="26.84"/></g><g class="cls-27"><rect class="cls-28" x="1205.9" y="1514.25" width="37.05" height="19.91"/></g><g class="cls-29"><rect class="cls-30" x="1213.76" y="1472.74" width="22.77" height="27.78"/></g><g class="cls-31"><rect class="cls-32" x="1211.47" y="1491.26" width="25.89" height="26.84"/></g><g class="cls-33"><rect class="cls-34" x="1264.87" y="1514.25" width="37.04" height="19.91"/></g><g class="cls-35"><rect class="cls-36" x="1272.73" y="1472.74" width="22.78" height="27.78"/></g><g class="cls-37"><rect class="cls-38" x="1270.44" y="1491.26" width="25.89" height="26.84"/></g><g class="cls-39"><rect class="cls-40" x="1147.43" y="1317.5" width="37.04" height="19.91"/></g><g class="cls-41"><rect class="cls-42" x="1155.29" y="1351.14" width="22.77" height="27.78"/></g><g class="cls-43"><rect class="cls-44" x="1153.01" y="1333.56" width="25.89" height="26.84"/></g><g class="cls-45"><rect class="cls-46" x="1205.9" y="1317.5" width="37.05" height="19.91"/></g><g class="cls-47"><rect class="cls-48" x="1213.76" y="1351.14" width="22.77" height="27.78"/></g><g class="cls-49"><rect class="cls-50" x="1211.47" y="1333.56" width="25.89" height="26.84"/></g><g class="cls-51"><rect class="cls-52" x="1264.87" y="1317.5" width="37.04" height="19.91"/></g><g class="cls-53"><rect class="cls-54" x="1272.73" y="1351.14" width="22.78" height="27.78"/></g><g class="cls-55"><rect class="cls-56" x="1270.44" y="1333.56" width="25.89" height="26.84"/></g><g class="cls-2"><path class="cls-57" d="M1307.16,1384.09v83.67a4.92,4.92,0,0,1-4.92,4.91h-157.5a4.91,4.91,0,0,1-4.92-4.91v-83.67a4.91,4.91,0,0,1,4.92-4.91h157.5a4.92,4.92,0,0,1,4.92,4.91"/></g><g class="cls-58"><rect class="cls-59" x="1127.73" y="1260.05" width="37.04" height="19.91"/></g><g class="cls-60"><rect class="cls-61" x="1135.59" y="1218.53" width="22.77" height="27.78"/></g><g class="cls-62"><rect class="cls-63" x="1133.3" y="1237.06" width="25.89" height="26.84"/></g><g class="cls-64"><rect class="cls-65" x="1186.19" y="1260.05" width="37.04" height="19.91"/></g><g class="cls-66"><rect class="cls-67" x="1194.05" y="1218.53" width="22.77" height="27.78"/></g><g class="cls-68"><rect class="cls-69" x="1191.77" y="1237.06" width="25.89" height="26.84"/></g><g class="cls-70"><rect class="cls-71" x="1245.16" y="1260.05" width="37.04" height="19.91"/></g><g class="cls-72"><rect class="cls-73" x="1253.02" y="1218.53" width="22.77" height="27.78"/></g><g class="cls-74"><rect class="cls-75" x="1250.74" y="1237.06" width="25.89" height="26.84"/></g><g class="cls-76"><rect class="cls-77" x="1127.73" y="1063.3" width="37.04" height="19.91"/></g><g class="cls-78"><rect class="cls-79" x="1135.59" y="1096.94" width="22.77" height="27.78"/></g><g class="cls-80"><rect class="cls-81" x="1133.3" y="1079.37" width="25.89" height="26.84"/></g><g class="cls-82"><rect class="cls-83" x="1186.19" y="1063.3" width="37.04" height="19.91"/></g><g class="cls-84"><rect class="cls-85" x="1194.05" y="1096.94" width="22.77" height="27.78"/></g><g class="cls-86"><rect class="cls-87" x="1191.77" y="1079.37" width="25.89" height="26.84"/></g><g class="cls-88"><rect class="cls-89" x="1245.16" y="1063.3" width="37.04" height="19.91"/></g><g class="cls-90"><rect class="cls-91" x="1253.02" y="1096.94" width="22.77" height="27.78"/></g><g class="cls-92"><rect class="cls-93" x="1250.74" y="1079.37" width="25.89" height="26.84"/></g><g class="cls-2"><path class="cls-57" d="M1287.45,1129.89v83.67a4.91,4.91,0,0,1-4.91,4.91H1125a4.91,4.91,0,0,1-4.91-4.91v-83.67A4.91,4.91,0,0,1,1125,1125h157.51a4.91,4.91,0,0,1,4.91,4.91"/></g><g class="cls-94"><rect class="cls-95" x="1334.63" y="1260.05" width="37.04" height="19.91"/></g><g class="cls-96"><rect class="cls-97" x="1342.49" y="1218.53" width="22.78" height="27.78"/></g><g class="cls-98"><rect class="cls-99" x="1340.21" y="1237.06" width="25.89" height="26.84"/></g><g class="cls-100"><rect class="cls-101" x="1393.1" y="1260.05" width="37.05" height="19.91"/></g><g class="cls-102"><rect class="cls-103" x="1400.96" y="1218.53" width="22.77" height="27.78"/></g><g class="cls-104"><rect class="cls-105" x="1398.67" y="1237.06" width="25.89" height="26.84"/></g><g class="cls-106"><rect class="cls-107" x="1452.07" y="1260.05" width="37.04" height="19.91"/></g><g class="cls-108"><rect class="cls-109" x="1459.93" y="1218.53" width="22.78" height="27.78"/></g><g class="cls-110"><rect class="cls-111" x="1457.64" y="1237.06" width="25.89" height="26.84"/></g><g class="cls-112"><rect class="cls-113" x="1334.63" y="1063.3" width="37.04" height="19.91"/></g><g class="cls-114"><rect class="cls-115" x="1342.49" y="1096.94" width="22.78" height="27.78"/></g><g class="cls-116"><rect class="cls-117" x="1340.21" y="1079.37" width="25.89" height="26.84"/></g><g class="cls-118"><rect class="cls-119" x="1393.1" y="1063.3" width="37.05" height="19.91"/></g><g class="cls-120"><rect class="cls-121" x="1400.96" y="1096.94" width="22.77" height="27.78"/></g><g class="cls-122"><rect class="cls-123" x="1398.67" y="1079.37" width="25.89" height="26.84"/></g><g class="cls-124"><rect class="cls-125" x="1452.07" y="1063.3" width="37.04" height="19.91"/></g><g class="cls-126"><rect class="cls-127" x="1459.93" y="1096.94" width="22.78" height="27.78"/></g><g class="cls-128"><rect class="cls-129" x="1457.64" y="1079.37" width="25.89" height="26.84"/></g><g class="cls-2"><path class="cls-57" d="M1494.36,1129.89v83.67a4.91,4.91,0,0,1-4.92,4.91h-157.5a4.91,4.91,0,0,1-4.91-4.91v-83.67a4.91,4.91,0,0,1,4.91-4.91h157.5a4.91,4.91,0,0,1,4.92,4.91"/></g><g class="cls-130"><rect class="cls-131" x="1142.51" y="917.18" width="37.04" height="19.91"/></g><g class="cls-132"><rect class="cls-133" x="1150.36" y="875.66" width="22.78" height="27.78"/></g><g class="cls-134"><rect class="cls-135" x="1148.08" y="894.18" width="25.89" height="26.84"/></g><g class="cls-136"><rect class="cls-137" x="1200.97" y="917.18" width="37.05" height="19.91"/></g><g class="cls-138"><rect class="cls-139" x="1208.83" y="875.66" width="22.77" height="27.78"/></g><g class="cls-140"><rect class="cls-141" x="1206.55" y="894.18" width="25.89" height="26.84"/></g><g class="cls-142"><rect class="cls-143" x="1259.94" y="917.18" width="37.05" height="19.91"/></g><g class="cls-144"><rect class="cls-145" x="1267.8" y="875.66" width="22.78" height="27.78"/></g><g class="cls-146"><rect class="cls-147" x="1265.51" y="894.18" width="25.89" height="26.84"/></g><g class="cls-148"><rect class="cls-149" x="1142.51" y="720.42" width="37.04" height="19.91"/></g><g class="cls-150"><rect class="cls-151" x="1150.36" y="754.07" width="22.78" height="27.78"/></g><g class="cls-152"><rect class="cls-153" x="1148.08" y="736.49" width="25.89" height="26.84"/></g><g class="cls-154"><rect class="cls-155" x="1200.97" y="720.42" width="37.05" height="19.91"/></g><g class="cls-156"><rect class="cls-157" x="1208.83" y="754.07" width="22.77" height="27.78"/></g><g class="cls-158"><rect class="cls-159" x="1206.55" y="736.49" width="25.89" height="26.84"/></g><g class="cls-160"><rect class="cls-161" x="1259.94" y="720.42" width="37.05" height="19.91"/></g><g class="cls-162"><rect class="cls-163" x="1267.8" y="754.07" width="22.78" height="27.78"/></g><g class="cls-164"><rect class="cls-165" x="1265.51" y="736.49" width="25.89" height="26.84"/></g><g class="cls-2"><path class="cls-57" d="M1302.23,787v83.66a4.92,4.92,0,0,1-4.92,4.92h-157.5a4.91,4.91,0,0,1-4.91-4.92V787a4.91,4.91,0,0,1,4.91-4.92h157.5a4.92,4.92,0,0,1,4.92,4.92"/></g><g class="cls-166"><rect class="cls-167" x="1142.51" y="670.86" width="37.04" height="19.91"/></g><g class="cls-168"><rect class="cls-169" x="1150.36" y="629.34" width="22.78" height="27.78"/></g><g class="cls-170"><rect class="cls-171" x="1148.08" y="647.86" width="25.89" height="26.84"/></g><g class="cls-172"><rect class="cls-173" x="1200.97" y="670.86" width="37.05" height="19.91"/></g><g class="cls-174"><rect class="cls-175" x="1208.83" y="629.34" width="22.77" height="27.78"/></g><g class="cls-176"><rect class="cls-177" x="1206.55" y="647.86" width="25.89" height="26.84"/></g><g class="cls-178"><rect class="cls-179" x="1259.94" y="670.86" width="37.05" height="19.91"/></g><g class="cls-180"><rect class="cls-181" x="1267.8" y="629.34" width="22.78" height="27.78"/></g><g class="cls-182"><rect class="cls-183" x="1265.51" y="647.86" width="25.89" height="26.84"/></g><g class="cls-184"><rect class="cls-185" x="1142.51" y="474.11" width="37.04" height="19.9"/></g><g class="cls-186"><rect class="cls-187" x="1150.36" y="507.75" width="22.78" height="27.78"/></g><g class="cls-188"><rect class="cls-189" x="1148.08" y="490.17" width="25.89" height="26.84"/></g><g class="cls-190"><rect class="cls-191" x="1200.97" y="474.11" width="37.05" height="19.9"/></g><g class="cls-192"><rect class="cls-193" x="1208.83" y="507.75" width="22.77" height="27.78"/></g><g class="cls-194"><rect class="cls-195" x="1206.55" y="490.17" width="25.89" height="26.84"/></g><g class="cls-196"><rect class="cls-197" x="1259.94" y="474.11" width="37.05" height="19.9"/></g><g class="cls-198"><rect class="cls-199" x="1267.8" y="507.75" width="22.78" height="27.78"/></g><g class="cls-200"><rect class="cls-201" x="1265.51" y="490.17" width="25.89" height="26.84"/></g><g class="cls-2"><path class="cls-57" d="M1302.23,540.7v83.66a4.92,4.92,0,0,1-4.92,4.92h-157.5a4.91,4.91,0,0,1-4.91-4.92V540.7a4.91,4.91,0,0,1,4.91-4.92h157.5a4.92,4.92,0,0,1,4.92,4.92"/></g><g class="cls-202"><path class="cls-203" d="M796.81,1657.19a77.78,77.78,0,1,0,77.77-77.78,77.77,77.77,0,0,0-77.77,77.78m125.07,0a47.29,47.29,0,1,1-47.3-47.29,47.3,47.3,0,0,1,47.3,47.29"/></g><g class="cls-2"><path class="cls-204" d="M875.11,1565a93.11,93.11,0,1,1-93.1,93.11A93.11,93.11,0,0,1,875.11,1565Z"/></g><g class="cls-205"><path class="cls-203" d="M1473.53,1412.43a77.77,77.77,0,1,0,77.77-77.77,77.77,77.77,0,0,0-77.77,77.77m125.06,0a47.29,47.29,0,1,1-47.29-47.29,47.29,47.29,0,0,1,47.29,47.29"/></g><g class="cls-2"><path class="cls-204" d="M1551.83,1322.14a93.11,93.11,0,1,1-93.11,93.11A93.11,93.11,0,0,1,1551.83,1322.14Z"/></g><g class="cls-206"><path class="cls-203" d="M1158.32,346.36a77.78,77.78,0,1,0,77.78-77.77,77.77,77.77,0,0,0-77.78,77.77m125.07,0a47.29,47.29,0,1,1-47.29-47.29,47.29,47.29,0,0,1,47.29,47.29"/></g><g class="cls-2"><path class="cls-204" d="M1236.63,254.15a93.11,93.11,0,1,1-93.11,93.11A93.11,93.11,0,0,1,1236.63,254.15Z"/><path class="cls-207" d="M1051.15,264.17a31,31,0,1,1-31,31,31,31,0,0,1,31-31"/><path class="cls-207" d="M1577.29,1235.64a31,31,0,1,1-31,31,31,31,0,0,1,31-31"/><path class="cls-207" d="M1254.12,1563.74a31,31,0,1,1-31,31,31,31,0,0,1,31-31"/><path class="cls-16" d="M1422.48,1588.92h28c1.91,0,3.48,2,3.48,4.36V1618c0,2.4-1.57,4.36-3.48,4.36h-28c-1.92,0-3.48-2-3.48-4.36v-24.68c0-2.39,1.56-4.36,3.48-4.36"/><path class="cls-16" d="M1422.48,1537h28c1.91,0,3.48,2,3.48,4.36V1566c0,2.39-1.57,4.36-3.48,4.36h-28c-1.92,0-3.48-2-3.48-4.36v-24.68c0-2.39,1.56-4.36,3.48-4.36"/><path class="cls-208" d="M1421.93,1610.26V1551c0-4.73,3.07-8.45,6.74-8.45h15.57c3.77,0,6.74,3.85,6.74,8.45v59.29c0,4.72-3.07,8.45-6.74,8.45h-15.57c-3.76.12-6.74-3.73-6.74-8.45"/><rect class="cls-209" x="1421.91" y="1563.21" width="29.15" height="34.92"/><path class="cls-16" d="M1396.49,1598.72v15.11a8.53,8.53,0,0,1-8.54,8.53h-15.11a8.53,8.53,0,0,1-8.54-8.53v-15.11a8.54,8.54,0,0,1,8.54-8.54H1388a8.54,8.54,0,0,1,8.54,8.54"/><path class="cls-16" d="M1396.49,1543.87V1559a8.54,8.54,0,0,1-8.54,8.54h-15.11a8.54,8.54,0,0,1-8.54-8.54v-15.11a8.54,8.54,0,0,1,8.54-8.54H1388a8.54,8.54,0,0,1,8.54,8.54"/><path class="cls-16" d="M1503.55,1598.72v15.11a8.53,8.53,0,0,1-8.54,8.53h-15.1a8.53,8.53,0,0,1-8.54-8.53v-15.11a8.54,8.54,0,0,1,8.54-8.54H1495a8.54,8.54,0,0,1,8.54,8.54"/><path class="cls-16" d="M1503.55,1543.87V1559a8.54,8.54,0,0,1-8.54,8.54h-15.1a8.54,8.54,0,0,1-8.54-8.54v-15.11a8.54,8.54,0,0,1,8.54-8.54H1495a8.54,8.54,0,0,1,8.54,8.54"/><path class="cls-16" d="M1612.92,1675.9V1691a8.54,8.54,0,0,1-8.54,8.54h-15.11a8.54,8.54,0,0,1-8.54-8.54v-15.1a8.54,8.54,0,0,1,8.54-8.54h15.11a8.54,8.54,0,0,1,8.54,8.54"/><path class="cls-16" d="M1612.92,1621.05v15.11a8.54,8.54,0,0,1-8.54,8.54h-15.11a8.55,8.55,0,0,1-8.54-8.54v-15.11a8.54,8.54,0,0,1,8.54-8.54h15.11a8.54,8.54,0,0,1,8.54,8.54"/><path class="cls-210" d="M1274.48,998a25.13,25.13,0,1,1-25.13,25.12A25.12,25.12,0,0,1,1274.48,998"/><path class="cls-210" d="M1339.51,1302.15a25.13,25.13,0,1,1-25.13,25.12,25.12,25.12,0,0,1,25.13-25.12"/><path class="cls-210" d="M1147.87,939.9A25.13,25.13,0,1,1,1122.75,965a25.12,25.12,0,0,1,25.12-25.12"/><path class="cls-210" d="M995.64,943.35a25.13,25.13,0,1,1-25.12,25.12,25.12,25.12,0,0,1,25.12-25.12"/><path class="cls-210" d="M1112.89,663.53a25.13,25.13,0,1,1-25.12,25.12,25.13,25.13,0,0,1,25.12-25.12"/><path class="cls-210" d="M1382.86,339.87A25.13,25.13,0,1,1,1357.73,365a25.12,25.12,0,0,1,25.13-25.12"/><rect class="cls-211" x="1353.96" y="1513.82" width="162.08" height="119.71"/><rect class="cls-211" x="1570.88" y="1590.84" width="61.74" height="119.22"/><line class="cls-212" x1="1119.46" y1="880.54" x2="1119.46" y2="762.55"/><line class="cls-212" x1="1310.11" y1="879.8" x2="1310.11" y2="762.55"/><line class="cls-212" x1="1312.08" y1="637.91" x2="1312.08" y2="519.19"/><line class="cls-212" x1="1117.33" y1="637.75" x2="1117.33" y2="518.69"/><line class="cls-212" x1="1104.52" y1="1223.66" x2="1104.52" y2="1106.74"/><line class="cls-212" x1="1304.2" y1="1219.06" x2="1304.2" y2="1106.74"/><line class="cls-212" x1="1312.74" y1="1220.37" x2="1312.74" y2="1104.77"/><line class="cls-212" x1="1510.61" y1="1221.93" x2="1510.61" y2="1180.8"/><line class="cls-212" x1="1513.08" y1="1152.96" x2="1513.08" y2="1107.64"/><line class="cls-212" x1="1323.41" y1="1475.48" x2="1323.41" y2="1434.34"/><line class="cls-212" x1="1325.88" y1="1406.51" x2="1325.88" y2="1361.18"/><polyline class="cls-212" points="1659.39 1085.72 1515.54 1085.72 1515.54 1039.41"/><line class="cls-212" x1="1128.82" y1="1473.92" x2="1128.82" y2="1357.32"/></g><path class="cls-213" d="M1280.69,1429.42a6.51,6.51,0,0,0-1-.05h-.9c-3.61,0-6.77,2-6.77,5.81s2.71,5.72,6.32,5.72c4.61,0,6.72-3.56,6.72-7.72h4.27c-.25,6.77-3.87,11.49-11,11.49-6.17,0-10.84-3-10.84-9.54a8,8,0,0,1,4.92-7.07v-.1c-4.37-1-6.42-4.37-6.42-8.63,0-7.07,5.57-10.84,12.24-10.84,7.22,0,12,4.22,11.84,11.59h-4.27c-.15-4.61-2.7-7.82-7.57-7.82-4.17,0-7.73,2.61-7.73,6.87,0,4.46,3.36,6.82,7.58,6.82a20.87,20.87,0,0,0,2.56-.15Z"/><path class="cls-213" d="M1249,1417.67c-.35-3.46-3.11-5.41-6.52-5.41-5.22,0-7.78,4.51-8,13.74l.1.1a9.33,9.33,0,0,1,8.23-4.91c7.28,0,11.24,4.86,11.24,11.89,0,6.82-4.82,11.59-11.69,11.59-6.62,0-12.19-3.57-12.19-17,0-12.29,3.71-19.17,12.34-19.17,6,0,10.24,3.06,10.79,9.18Zm-6.47,23.23c5.07,0,7-4.06,7-8.42,0-3.87-2.91-7.53-7-7.53-4.46,0-7.27,3.61-7.27,7.83S1237.74,1440.9,1242.51,1440.9Z"/><path class="cls-213" d="M1213.06,1417.67c-.35-3.46-3.11-5.41-6.52-5.41-5.22,0-7.78,4.51-8,13.74l.1.1a9.33,9.33,0,0,1,8.23-4.91c7.28,0,11.24,4.86,11.24,11.89,0,6.82-4.82,11.59-11.69,11.59-6.62,0-12.19-3.57-12.19-17,0-12.29,3.71-19.17,12.34-19.17,6,0,10.24,3.06,10.79,9.18Zm-6.47,23.23c5.07,0,7-4.06,7-8.42,0-3.87-2.91-7.53-7-7.53-4.46,0-7.27,3.61-7.27,7.83S1201.82,1440.9,1206.59,1440.9Z"/><path class="cls-213" d="M1258.54,1174.31a5.44,5.44,0,0,0-.88,0h-.83c-3.34,0-6.26,1.85-6.26,5.37s2.5,5.28,5.84,5.28c4.26,0,6.2-3.29,6.2-7.13h3.94c-.23,6.25-3.56,10.6-10.14,10.6-5.7,0-10-2.73-10-8.79a7.38,7.38,0,0,1,4.53-6.53v-.1c-4-.88-5.92-4-5.92-8,0-6.53,5.14-10,11.3-10,6.67,0,11.07,3.88,10.93,10.69h-3.94c-.14-4.26-2.5-7.22-7-7.22-3.85,0-7.14,2.41-7.14,6.34,0,4.12,3.11,6.3,7,6.3a19.58,19.58,0,0,0,2.36-.14Z"/><path class="cls-213" d="M1229.32,1163.47c-.32-3.2-2.87-5-6-5-4.82,0-7.18,4.17-7.41,12.69l.09.09a8.6,8.6,0,0,1,7.6-4.54c6.71,0,10.37,4.49,10.37,11,0,6.3-4.45,10.69-10.79,10.69-6.11,0-11.25-3.28-11.25-15.69,0-11.35,3.42-17.69,11.39-17.69,5.51,0,9.45,2.82,10,8.47Zm-6,21.44c4.67,0,6.43-3.75,6.43-7.78,0-3.56-2.68-7-6.48-7-4.12,0-6.72,3.34-6.72,7.23S1219,1184.91,1223.35,1184.91Z"/><path class="cls-213" d="M1196.21,1163.47c-.32-3.2-2.87-5-6-5-4.82,0-7.18,4.17-7.41,12.69l.09.09a8.6,8.6,0,0,1,7.6-4.54c6.71,0,10.37,4.49,10.37,11,0,6.3-4.45,10.69-10.79,10.69-6.11,0-11.25-3.28-11.25-15.69,0-11.35,3.42-17.69,11.39-17.69,5.51,0,9.45,2.82,10,8.47Zm-6,21.44c4.67,0,6.43-3.75,6.43-7.78,0-3.56-2.68-7-6.48-7-4.12,0-6.72,3.34-6.72,7.23S1185.84,1184.91,1190.24,1184.91Z"/><path class="cls-213" d="M1459.6,1176.25a5.44,5.44,0,0,0-.88,0h-.83c-3.33,0-6.25,1.86-6.25,5.38s2.5,5.28,5.83,5.28c4.26,0,6.21-3.29,6.21-7.14h3.94c-.23,6.26-3.57,10.61-10.15,10.61-5.69,0-10-2.73-10-8.8A7.39,7.39,0,0,1,1452,1175v-.09c-4-.88-5.93-4-5.93-8,0-6.53,5.14-10,11.3-10,6.67,0,11.07,3.89,10.93,10.7h-3.94c-.13-4.26-2.5-7.23-7-7.23-3.84,0-7.13,2.41-7.13,6.35,0,4.12,3.1,6.3,7,6.3a19.46,19.46,0,0,0,2.36-.14Z"/><path class="cls-213" d="M1430.34,1165.41c-.32-3.19-2.87-5-6-5-4.82,0-7.18,4.17-7.41,12.69l.09.09a8.62,8.62,0,0,1,7.6-4.53c6.71,0,10.37,4.49,10.37,11,0,6.3-4.45,10.7-10.79,10.7-6.11,0-11.25-3.29-11.25-15.7,0-11.35,3.42-17.69,11.39-17.69,5.51,0,9.45,2.82,10,8.47Zm-6,21.45c4.68,0,6.44-3.76,6.44-7.78,0-3.57-2.68-6.95-6.48-6.95-4.12,0-6.72,3.33-6.72,7.22S1420,1186.86,1424.36,1186.86Z"/><path class="cls-213" d="M1397.23,1165.41c-.33-3.19-2.87-5-6-5-4.82,0-7.18,4.17-7.41,12.69l.09.09a8.62,8.62,0,0,1,7.6-4.53c6.71,0,10.37,4.49,10.37,11,0,6.3-4.45,10.7-10.79,10.7-6.11,0-11.25-3.29-11.25-15.7,0-11.35,3.42-17.69,11.39-17.69,5.51,0,9.45,2.82,10,8.47Zm-6,21.45c4.68,0,6.44-3.76,6.44-7.78,0-3.57-2.68-6.95-6.48-6.95-4.12,0-6.72,3.33-6.72,7.22S1386.85,1186.86,1391.25,1186.86Z"/><path class="cls-213" d="M1172.84,821.56a5.44,5.44,0,0,0,.88.05h.83c3.34,0,6.26-1.86,6.26-5.38s-2.5-5.28-5.84-5.28c-4.26,0-6.2,3.29-6.2,7.14h-3.94c.23-6.26,3.56-10.61,10.14-10.61,5.7,0,10,2.73,10,8.8a7.39,7.39,0,0,1-4.54,6.53v.09c4,.88,5.93,4,5.93,8,0,6.53-5.14,10-11.3,10-6.67,0-11.07-3.89-10.93-10.7h3.94c.14,4.26,2.5,7.23,7,7.23,3.85,0,7.13-2.41,7.13-6.35,0-4.12-3.1-6.3-7-6.3a19.58,19.58,0,0,0-2.36.14Z"/><path class="cls-213" d="M1202.06,832.4c.32,3.19,2.87,5,6,5,4.82,0,7.18-4.17,7.41-12.69l-.09-.09a8.62,8.62,0,0,1-7.6,4.53c-6.71,0-10.37-4.49-10.37-11,0-6.3,4.45-10.7,10.79-10.7,6.11,0,11.25,3.29,11.25,15.7,0,11.35-3.42,17.69-11.39,17.69-5.51,0-9.45-2.82-10-8.47Zm6-21.45c-4.67,0-6.43,3.76-6.43,7.78,0,3.57,2.68,6.95,6.48,6.95,4.12,0,6.72-3.33,6.72-7.22S1212.43,811,1208,811Z"/><path class="cls-213" d="M1235.17,832.4c.32,3.19,2.87,5,6,5,4.82,0,7.18-4.17,7.41-12.69l-.09-.09a8.62,8.62,0,0,1-7.6,4.53c-6.71,0-10.37-4.49-10.37-11,0-6.3,4.44-10.7,10.79-10.7,6.11,0,11.25,3.29,11.25,15.7,0,11.35-3.42,17.69-11.39,17.69-5.51,0-9.45-2.82-10-8.47Zm6-21.45c-4.67,0-6.43,3.76-6.43,7.78,0,3.57,2.68,6.95,6.48,6.95,4.12,0,6.72-3.33,6.72-7.22S1245.54,811,1241.14,811Z"/><path class="cls-213" d="M1172.84,577.19a5.44,5.44,0,0,0,.88,0h.83c3.34,0,6.26-1.85,6.26-5.37s-2.5-5.28-5.84-5.28c-4.26,0-6.2,3.29-6.2,7.13h-3.94c.23-6.25,3.56-10.6,10.14-10.6,5.7,0,10,2.73,10,8.79a7.37,7.37,0,0,1-4.54,6.53v.1c4,.88,5.93,4,5.93,8,0,6.53-5.14,10-11.3,10-6.67,0-11.07-3.89-10.93-10.69h3.94c.14,4.26,2.5,7.22,7,7.22,3.85,0,7.13-2.41,7.13-6.34,0-4.12-3.1-6.3-7-6.3a19.58,19.58,0,0,0-2.36.14Z"/><path class="cls-213" d="M1202.06,588c.32,3.2,2.87,5,6,5,4.82,0,7.18-4.17,7.41-12.69l-.09-.09a8.6,8.6,0,0,1-7.6,4.54c-6.71,0-10.37-4.49-10.37-11,0-6.3,4.45-10.69,10.79-10.69,6.11,0,11.25,3.28,11.25,15.69,0,11.35-3.42,17.69-11.39,17.69-5.51,0-9.45-2.82-10-8.47Zm6-21.44c-4.67,0-6.43,3.75-6.43,7.78,0,3.56,2.68,6.94,6.48,6.94,4.12,0,6.72-3.33,6.72-7.22S1212.43,566.59,1208,566.59Z"/><path class="cls-213" d="M1235.17,588c.32,3.2,2.87,5,6,5,4.82,0,7.18-4.17,7.41-12.69l-.09-.09a8.6,8.6,0,0,1-7.6,4.54c-6.71,0-10.37-4.49-10.37-11,0-6.3,4.44-10.69,10.79-10.69,6.11,0,11.25,3.28,11.25,15.69,0,11.35-3.42,17.69-11.39,17.69-5.51,0-9.45-2.82-10-8.47Zm6-21.44c-4.67,0-6.43,3.75-6.43,7.78,0,3.56,2.68,6.94,6.48,6.94,4.12,0,6.72-3.33,6.72-7.22S1245.54,566.59,1241.14,566.59Z"/><g class="cls-2"><path class="cls-16" d="M1578,1763.32H1094.4a7,7,0,0,1-7-7v-52.74a7,7,0,0,1,7-7h158.67a27.9,27.9,0,0,0,14.38-4l58.91-35.34a15.13,15.13,0,0,1,15.63,0l57.89,35.22a28,28,0,0,0,14.53,4.07H1578a7,7,0,0,1,7,7v52.74a7,7,0,0,1-7,7"/></g></g></g><polygon class="cls-214" points="448.16 886.45 499.6 886.45 525.34 911.99 499.6 937.59 448.16 937.59 422.42 911.99 448.16 886.45"/><path class="cls-214" d="M553.45,937.59H489.21L453,912l36.24-25.54h64.24c4.51,0,8.16,2.59,8.16,5.79v39.55C561.61,935,558,937.59,553.45,937.59Z"/><g class="cls-215"><path class="cls-16" d="M463.7,924.5h-6.92l-9.06-27.9h6.33l6.21,19.62h.08l6.29-19.62H473Z"/><path class="cls-16" d="M475.35,896.6h13.12c5.32,0,8.92,1.72,8.92,6.92a6.06,6.06,0,0,1-3.8,5.82c3.44,1,5.12,3.59,5.12,7.07,0,5.67-4.8,8.09-9.84,8.09H475.35Zm6.13,11.29h6.21c2.19,0,3.76-1,3.76-3.32,0-2.62-2-3.2-4.23-3.2h-5.74Zm0,11.84h6.57c2.38,0,4.53-.78,4.53-3.67s-1.76-4-4.42-4h-6.68Z"/><path class="cls-16" d="M510.47,896.6h6.3l10.43,27.9h-6.37l-2.11-6.21H508.28l-2.18,6.21h-6.22Zm-.58,17.12h7.23l-3.52-10.24h-.08Z"/><path class="cls-16" d="M535.79,901.76h-8.36V896.6h22.86v5.16h-8.36V924.5h-6.14Z"/></g><path class="cls-216" d="M654.23,382.06H598.71a7.48,7.48,0,0,1-7.46-7.46V336.86a7.49,7.49,0,0,1,7.46-7.46h55.52a7.48,7.48,0,0,1,7.46,7.46V374.6A7.47,7.47,0,0,1,654.23,382.06Z"/><g class="cls-215"><path class="cls-16" d="M618.32,371.62h-7.07V349H602.5v-5.32c4.92.15,9.4-1.59,10.2-6.91h5.62Z"/><path class="cls-16" d="M640.25,336.1c7,0,12.84,4.38,12.84,18,0,13.88-5.87,18.25-12.84,18.25s-12.73-4.37-12.73-18.25C627.52,340.48,633.34,336.1,640.25,336.1Zm0,30.39c5.77,0,5.77-8.5,5.77-12.43,0-3.63,0-12.14-5.77-12.14s-5.67,8.51-5.67,12.14C634.58,358,634.58,366.49,640.25,366.49Z"/></g><polygon class="cls-217" points="448.16 762.89 499.6 762.89 525.34 788.43 499.6 814.03 448.16 814.03 422.42 788.43 448.16 762.89"/><path class="cls-217" d="M553.45,814H489.21L453,788.44l36.24-25.55h64.24c4.51,0,8.16,2.59,8.16,5.79v39.56C561.61,811.44,558,814,553.45,814Z"/><g class="cls-215"><path class="cls-16" d="M484.54,797.78a9.41,9.41,0,0,1-7.66,3.83c-8.6,0-13.72-6.45-13.72-14.5,0-8.28,5.12-14.73,13.72-14.73,5.7,0,11.14,3.48,11.76,9.85h-5.86a5.68,5.68,0,0,0-5.9-4.69c-5.51,0-7.58,4.69-7.58,9.57,0,4.65,2.07,9.34,7.58,9.34,4,0,6.29-2.11,6.64-6h-6.17v-4.57h11.72v15.08h-3.91Z"/><path class="cls-16" d="M494,773h6.1l11.64,18.72h.08V773h5.74v27.9h-6.13l-11.61-18.67h-.08v18.67H494Z"/><path class="cls-16" d="M523,773h12c7.23,0,12.66,4.57,12.66,13.8,0,8.09-4.14,14.1-12.66,14.1H523Zm6.14,22.75h5.47c3.56,0,7-2.19,7-8.37,0-5.62-2-9.22-8-9.22h-4.38Z"/></g><path class="cls-218" d="M654.23,505H598.71a7.49,7.49,0,0,1-7.46-7.46V459.76a7.49,7.49,0,0,1,7.46-7.47h55.52a7.48,7.48,0,0,1,7.46,7.47V497.5A7.48,7.48,0,0,1,654.23,505Z"/><g class="cls-215"><path class="cls-16" d="M626.52,459c8.66,0,11.64,6,11.64,9.35a7.29,7.29,0,0,1-5.07,7.31v.1c4.18.95,6.52,4.13,6.52,8.51,0,7.36-6.52,10.94-13,10.94-6.71,0-13.23-3.38-13.23-10.89,0-4.43,2.44-7.56,6.57-8.56v-.1c-3.39-.94-5.13-3.73-5.13-7.16C614.78,462.23,620.85,459,626.52,459Zm.05,30.89a5.72,5.72,0,0,0,6-5.87c0-3.33-2.68-5.57-6-5.57s-6.17,1.94-6.17,5.52A5.87,5.87,0,0,0,626.57,489.89Zm-.05-16.17c2.94,0,5.23-1.59,5.23-4.57,0-1.79-.85-4.83-5.23-4.83-2.83,0-5.32,1.69-5.32,4.83C621.2,472.13,623.69,473.72,626.52,473.72Z"/></g><polygon class="cls-214" points="448.16 822.84 499.6 822.84 525.34 848.39 499.6 873.98 448.16 873.98 422.42 848.39 448.16 822.84"/><path class="cls-214" d="M553.45,874H489.21L453,848.39l36.24-25.55h64.24c4.51,0,8.16,2.6,8.16,5.8v39.55C561.61,871.39,558,874,553.45,874Z"/><g class="cls-215"><path class="cls-16" d="M491.64,844.6c2.38.2,5.82-.27,5.82-3.4a3.61,3.61,0,0,0-3.87-3.63c-2.81,0-4.26,2.07-4.22,4.88H484.1c.19-5.63,3.79-9.46,9.45-9.46,4.38,0,9.19,2.7,9.19,7.59a5.43,5.43,0,0,1-3.83,5.58v.08a6.09,6.09,0,0,1,4.84,6.22c0,5.74-4.84,9-10.16,9-6.13,0-10.27-3.67-10.16-10h5.28c.12,3,1.6,5.39,4.81,5.39a4.2,4.2,0,0,0,4.45-4.3c0-4.14-3.63-4.06-6.33-4.06Z"/><path class="cls-16" d="M520.13,860.9h-6.92L504.14,833h6.33l6.22,19.62h.08L523.06,833h6.33Z"/><path class="cls-16" d="M538,844.6c2.39.2,5.83-.27,5.83-3.4a3.61,3.61,0,0,0-3.87-3.63c-2.82,0-4.26,2.07-4.22,4.88h-5.28c.2-5.63,3.79-9.46,9.46-9.46,4.37,0,9.18,2.7,9.18,7.59a5.43,5.43,0,0,1-3.83,5.58v.08a6.09,6.09,0,0,1,4.85,6.22c0,5.74-4.85,9-10.16,9-6.14,0-10.28-3.67-10.16-10h5.27c.12,3,1.6,5.39,4.81,5.39a4.2,4.2,0,0,0,4.45-4.3c0-4.14-3.63-4.06-6.33-4.06Z"/></g><path class="cls-218" d="M654.23,443.25H598.71a7.49,7.49,0,0,1-7.46-7.46V398.05a7.48,7.48,0,0,1,7.46-7.46h55.52a7.47,7.47,0,0,1,7.46,7.46v37.74A7.48,7.48,0,0,1,654.23,443.25Z"/><g class="cls-215"><path class="cls-16" d="M621,423.85a5,5,0,0,0,4.68,4.33c5.17,0,6.42-6.76,6.66-10.59l-.1-.1a8.76,8.76,0,0,1-7.86,3.88,11.1,11.1,0,0,1-8-3.58,11.91,11.91,0,0,1-2.69-7.76c0-7.12,4.87-12.74,12.19-12.74,10.54,0,13.38,9.2,13.38,18,0,8.55-3.78,18.21-13.68,18.21-6,0-10.5-3.49-11.29-9.66Zm10.7-14.27c0-3.23-2-6.47-5.62-6.47-3.39,0-5.33,3.19-5.33,6.37s1.69,6.57,5.33,6.57S631.7,413,631.7,409.58Z"/></g><polygon class="cls-219" points="363.05 701.89 414.49 701.89 440.23 727.43 414.49 753.03 363.05 753.03 337.31 727.43 363.05 701.89"/><path class="cls-219" d="M388.77,753H542.14c10.75,0,19.47-2.6,19.47-5.79V707.68c0-3.2-8.72-5.79-19.47-5.79H388.77Z"/><g class="cls-215"><path class="cls-16" d="M372.54,712h6.14v27.9h-6.14Z"/><path class="cls-16" d="M382.82,723.1c-.2-6.25,3.36-11.06,9.92-11.06,5,0,9.38,3.21,9.38,8.56,0,8.28-8.79,8.95-12.78,14.58h12.94v4.76H382.19c0-6.37,3.91-9,8.64-12.23,2.38-1.68,5.74-3.32,5.74-6.68a3.93,3.93,0,0,0-4.1-4.22c-3.28,0-4.34,3.4-4.34,6.29Z"/><path class="cls-16" d="M424.39,721.42a6.08,6.08,0,0,0-6.09-4.88c-5.51,0-7.58,4.69-7.58,9.57,0,4.65,2.07,9.34,7.58,9.34,3.75,0,5.86-2.54,6.33-6.25h5.94c-.63,7-5.39,11.41-12.27,11.41-8.6,0-13.72-6.45-13.72-14.5,0-8.28,5.12-14.73,13.72-14.73,6.09,0,11.29,3.59,12,10Z"/><path class="cls-16" d="M447.37,739.94h-5.55V722.2h-6.88V718c3.87.12,7.39-1.25,8-5.43h4.42Z"/><path class="cls-16" d="M453.78,742.87h19.53v2H453.78Z"/><path class="cls-16" d="M480.19,730.68c0,3.71,2.89,5.16,6.18,5.16,2.15,0,5.43-.63,5.43-3.48,0-3.05-4.22-3.48-8.29-4.61s-8.32-2.77-8.32-7.93c0-5.75,5.39-8.44,10.43-8.44,5.83,0,11.18,2.54,11.18,9h-5.94c-.2-3.33-2.54-4.22-5.51-4.22-2,0-4.22.82-4.22,3.16,0,2.15,1.33,2.46,8.32,4.22,2.07.47,8.29,1.84,8.29,8.13,0,5.12-4,9-11.61,9-6.17,0-12-3.05-11.88-9.93Z"/><path class="cls-16" d="M520,721.42a6.09,6.09,0,0,0-6.1-4.88c-5.51,0-7.58,4.69-7.58,9.57,0,4.65,2.07,9.34,7.58,9.34,3.76,0,5.86-2.54,6.33-6.25h5.94c-.62,7-5.39,11.41-12.27,11.41-8.59,0-13.71-6.45-13.71-14.5,0-8.28,5.12-14.73,13.71-14.73,6.1,0,11.3,3.59,12,10Z"/><path class="cls-16" d="M530.32,712h6.14v22.75h13.6v5.15H530.32Z"/></g><path class="cls-216" d="M654.23,566.94H598.71a7.49,7.49,0,0,1-7.46-7.46V521.74a7.49,7.49,0,0,1,7.46-7.46h55.52a7.48,7.48,0,0,1,7.46,7.46v37.74A7.48,7.48,0,0,1,654.23,566.94Z"/><g class="cls-215"><path class="cls-16" d="M638.36,527.75c-7.31,6.42-11.24,19.45-11.39,28.75h-7.56a50.85,50.85,0,0,1,11.69-28.25H614.59v-6.57h23.77Z"/></g><polygon class="cls-219" points="363.05 638.89 414.49 638.89 440.23 664.43 414.49 690.03 363.05 690.03 337.31 664.43 363.05 638.89"/><path class="cls-219" d="M388.77,690H542.14c10.75,0,19.47-2.6,19.47-5.8V644.68c0-3.2-8.72-5.79-19.47-5.79H388.77Z"/><g class="cls-215"><path class="cls-16" d="M368.67,649h6.14v27.9h-6.14Z"/><path class="cls-16" d="M379,660.1c-.2-6.25,3.36-11.06,9.92-11.06,5,0,9.38,3.2,9.38,8.56,0,8.28-8.79,8.95-12.78,14.57h12.94v4.77H378.32c0-6.37,3.91-9,8.64-12.23,2.38-1.68,5.74-3.32,5.74-6.68a3.93,3.93,0,0,0-4.1-4.22c-3.28,0-4.34,3.4-4.34,6.29Z"/><path class="cls-16" d="M420.53,658.42a6.09,6.09,0,0,0-6.1-4.89c-5.51,0-7.58,4.69-7.58,9.58,0,4.65,2.07,9.34,7.58,9.34,3.75,0,5.86-2.54,6.33-6.26h5.94c-.63,7-5.39,11.42-12.27,11.42-8.6,0-13.72-6.45-13.72-14.5,0-8.29,5.12-14.73,13.72-14.73,6.1,0,11.29,3.59,12,10Z"/><path class="cls-16" d="M443.5,676.94H438V659.2h-6.88V655c3.87.12,7.39-1.25,8-5.43h4.42Z"/><path class="cls-16" d="M449.91,679.87h19.54v2H449.91Z"/><path class="cls-16" d="M476.32,667.68c0,3.71,2.9,5.16,6.18,5.16,2.15,0,5.43-.63,5.43-3.48,0-3.05-4.22-3.48-8.29-4.61s-8.32-2.78-8.32-7.93c0-5.75,5.39-8.44,10.44-8.44,5.82,0,11.17,2.54,11.17,9H487c-.19-3.32-2.54-4.22-5.51-4.22-2,0-4.22.82-4.22,3.17,0,2.15,1.33,2.46,8.32,4.22,2.08.47,8.29,1.84,8.29,8.13,0,5.12-4,9-11.61,9-6.17,0-12-3.05-11.88-9.93Z"/><path class="cls-16" d="M497.5,649h12c7.23,0,12.66,4.57,12.66,13.79,0,8.09-4.14,14.11-12.66,14.11h-12Zm6.14,22.74h5.47c3.55,0,6.95-2.19,6.95-8.36,0-5.63-2-9.22-8-9.22h-4.37Z"/><path class="cls-16" d="M534.08,649h6.29l10.43,27.9h-6.37l-2.11-6.21H531.89l-2.19,6.21h-6.21Zm-.59,17.12h7.23l-3.52-10.24h-.08Z"/></g><path class="cls-216" d="M654.23,628.79H598.71a7.49,7.49,0,0,1-7.46-7.46V583.59a7.48,7.48,0,0,1,7.46-7.46h55.52a7.47,7.47,0,0,1,7.46,7.46v37.74A7.48,7.48,0,0,1,654.23,628.79Z"/><g class="cls-215"><path class="cls-16" d="M632,592.48a5,5,0,0,0-4.68-4.33c-5.07,0-6.52,6.77-6.67,10.6l.1.1a8.75,8.75,0,0,1,7.86-3.88,11.11,11.11,0,0,1,8,3.58,11.89,11.89,0,0,1,2.69,7.76c0,7.11-4.93,12.73-12.19,12.73-10.55,0-13.38-9.2-13.38-18,0-8.56,3.78-18.21,13.68-18.21,6,0,10.49,3.48,11.29,9.65Zm-10.7,14.28c0,3.23,2,6.46,5.62,6.46,3.38,0,5.32-3.18,5.32-6.36s-1.69-6.57-5.32-6.57S621.25,603.33,621.25,606.76Z"/></g><polygon class="cls-216" points="335.81 576.89 387.24 576.89 412.98 602.43 387.24 628.03 335.81 628.03 310.07 602.43 335.81 576.89"/><path class="cls-216" d="M381.81,628H541.36c11.18,0,20.25-2.6,20.25-5.8V582.68c0-3.2-9.07-5.79-20.25-5.79H381.81Z"/><g class="cls-215"><path class="cls-16" d="M348.74,587h6.14v27.9h-6.14Z"/><path class="cls-16" d="M372.77,586.38c8.6,0,13.72,6.44,13.72,14.73,0,8-5.12,14.5-13.72,14.5s-13.71-6.45-13.71-14.5C359.06,592.82,364.18,586.38,372.77,586.38Zm0,24.07c5.51,0,7.59-4.69,7.59-9.34,0-4.89-2.08-9.58-7.59-9.58s-7.58,4.69-7.58,9.58C365.19,605.76,367.27,610.45,372.77,610.45Z"/><path class="cls-16" d="M403.29,614.94h-5.55V597.2h-6.87V593c3.86.12,7.38-1.25,8-5.43h4.41Z"/><path class="cls-16" d="M412.08,608.92h6.14v6c0,3.6-2.78,6-6.1,6.49v-2.82a3.58,3.58,0,0,0,2.78-3.67h-2.82Z"/><path class="cls-16" d="M454.29,611.78a9.41,9.41,0,0,1-7.66,3.83c-8.6,0-13.72-6.45-13.72-14.5,0-8.29,5.12-14.73,13.72-14.73,5.7,0,11.13,3.47,11.76,9.84h-5.86a5.69,5.69,0,0,0-5.9-4.69c-5.51,0-7.58,4.69-7.58,9.58,0,4.65,2.07,9.34,7.58,9.34,4,0,6.29-2.11,6.64-6H447.1v-4.57h11.72v15.08h-3.91Z"/><path class="cls-16" d="M463.78,587h12.58c7,0,9.65,4.42,9.65,9s-2.65,9-9.65,9h-6.45v10h-6.13Zm6.13,13.13h4.77c2.82,0,5.39-.63,5.39-4.18s-2.57-4.18-5.39-4.18h-4.77Z"/><path class="cls-16" d="M489.84,587H496v27.9h-6.14Z"/><path class="cls-16" d="M513.87,586.38c8.6,0,13.72,6.44,13.72,14.73,0,8-5.12,14.5-13.72,14.5s-13.71-6.45-13.71-14.5C500.16,592.82,505.28,586.38,513.87,586.38Zm0,24.07c5.51,0,7.58-4.69,7.58-9.34,0-4.89-2.07-9.58-7.58-9.58s-7.58,4.69-7.58,9.58C506.29,605.76,508.36,610.45,513.87,610.45Z"/><path class="cls-16" d="M544.39,614.94h-5.55V597.2H532V593c3.87.12,7.39-1.25,8-5.43h4.42Z"/></g><path class="cls-219" d="M654.23,690.79H598.71a7.49,7.49,0,0,1-7.46-7.46V645.59a7.48,7.48,0,0,1,7.46-7.46h55.52a7.47,7.47,0,0,1,7.46,7.46v37.74A7.48,7.48,0,0,1,654.23,690.79Z"/><g class="cls-215"><path class="cls-16" d="M637.52,651.35H623.14l-1.39,7.91.1.1a8.85,8.85,0,0,1,6.81-2.69c6.87,0,10.75,5.32,10.75,11.84a12.62,12.62,0,0,1-12.94,12.54c-6.76,0-12.78-3.74-12.93-11h7.06a5.56,5.56,0,0,0,5.72,5.23c3.69,0,6-3.24,6-6.72s-2.24-6.52-6-6.52a5.77,5.77,0,0,0-5.32,2.79h-6.36l3.43-19.25h19.45Z"/></g><polygon class="cls-216" points="335.81 515.04 387.24 515.04 412.98 540.59 387.24 566.18 335.81 566.18 310.07 540.59 335.81 515.04"/><path class="cls-216" d="M381.81,566.18H541.36c11.18,0,20.25-2.59,20.25-5.79V520.83c0-3.2-9.07-5.79-20.25-5.79H381.81Z"/><g class="cls-215"><path class="cls-16" d="M348.74,525.19h6.14v27.9h-6.14Z"/><path class="cls-16" d="M372.77,524.53c8.6,0,13.72,6.45,13.72,14.73,0,8-5.12,14.5-13.72,14.5s-13.71-6.45-13.71-14.5C359.06,531,364.18,524.53,372.77,524.53Zm0,24.07c5.51,0,7.59-4.69,7.59-9.34,0-4.88-2.08-9.57-7.59-9.57s-7.58,4.69-7.58,9.57C365.19,543.91,367.27,548.6,372.77,548.6Z"/><path class="cls-16" d="M396.88,536.8c2.39.19,5.83-.27,5.83-3.4a3.61,3.61,0,0,0-3.87-3.64c-2.82,0-4.26,2.08-4.22,4.89h-5.28c.2-5.63,3.79-9.46,9.46-9.46,4.38,0,9.18,2.7,9.18,7.58a5.44,5.44,0,0,1-3.83,5.59v.08a6.08,6.08,0,0,1,4.85,6.21c0,5.75-4.85,9-10.16,9-6.14,0-10.28-3.67-10.16-10H394c.12,3,1.61,5.39,4.81,5.39a4.2,4.2,0,0,0,4.45-4.3c0-4.14-3.63-4.06-6.33-4.06Z"/><path class="cls-16" d="M412.08,547.08h6.14v6c0,3.6-2.78,6-6.1,6.49v-2.81a3.59,3.59,0,0,0,2.78-3.68h-2.82Z"/><path class="cls-16" d="M454.29,549.93a9.41,9.41,0,0,1-7.66,3.83c-8.6,0-13.72-6.45-13.72-14.5,0-8.28,5.12-14.73,13.72-14.73,5.7,0,11.13,3.48,11.76,9.85h-5.86a5.69,5.69,0,0,0-5.9-4.69c-5.51,0-7.58,4.69-7.58,9.57,0,4.65,2.07,9.34,7.58,9.34,4,0,6.29-2.11,6.64-6H447.1V538h11.72v15.08h-3.91Z"/><path class="cls-16" d="M463.78,525.19h12.58c7,0,9.65,4.42,9.65,8.95s-2.65,9-9.65,9h-6.45v10h-6.13Zm6.13,13.13h4.77c2.82,0,5.39-.62,5.39-4.18S477.5,530,474.68,530h-4.77Z"/><path class="cls-16" d="M489.84,525.19H496v27.9h-6.14Z"/><path class="cls-16" d="M513.87,524.53c8.6,0,13.72,6.45,13.72,14.73,0,8-5.12,14.5-13.72,14.5s-13.71-6.45-13.71-14.5C500.16,531,505.28,524.53,513.87,524.53Zm0,24.07c5.51,0,7.58-4.69,7.58-9.34,0-4.88-2.07-9.57-7.58-9.57s-7.58,4.69-7.58,9.57C506.29,543.91,508.36,548.6,513.87,548.6Z"/><path class="cls-16" d="M538,536.8c2.39.19,5.83-.27,5.83-3.4a3.61,3.61,0,0,0-3.87-3.64c-2.82,0-4.26,2.08-4.22,4.89h-5.28c.2-5.63,3.79-9.46,9.46-9.46,4.37,0,9.18,2.7,9.18,7.58a5.44,5.44,0,0,1-3.83,5.59v.08a6.08,6.08,0,0,1,4.85,6.21c0,5.75-4.85,9-10.16,9-6.14,0-10.28-3.67-10.16-10h5.27c.12,3,1.6,5.39,4.81,5.39a4.2,4.2,0,0,0,4.45-4.3c0-4.14-3.63-4.06-6.33-4.06Z"/></g><path class="cls-219" d="M654.23,753.79H598.71a7.49,7.49,0,0,1-7.46-7.46V708.59a7.49,7.49,0,0,1,7.46-7.46h55.52a7.48,7.48,0,0,1,7.46,7.46v37.74A7.48,7.48,0,0,1,654.23,753.79Z"/><g class="cls-215"><path class="cls-16" d="M628.16,735.29H613.44v-6.46l15.12-20.3h6.32v20.94h4.63v5.82h-4.63v8.06h-6.72Zm0-17.91H628l-9,12.09h9.15Z"/></g><path class="cls-217" d="M654.23,814.79H598.71a7.49,7.49,0,0,1-7.46-7.46V769.59a7.49,7.49,0,0,1,7.46-7.46h55.52a7.48,7.48,0,0,1,7.46,7.46v37.74A7.48,7.48,0,0,1,654.23,814.79Z"/><g class="cls-215"><path class="cls-16" d="M624,783.61c3,.25,7.41-.35,7.41-4.33,0-3-2.34-4.62-4.93-4.62-3.58,0-5.42,2.63-5.37,6.21h-6.71c.25-7.16,4.82-12,12-12,5.58,0,11.69,3.44,11.69,9.66,0,3.33-1.64,6.16-4.87,7.11v.1a7.74,7.74,0,0,1,6.17,7.91c0,7.31-6.17,11.44-12.94,11.44-7.81,0-13.08-4.68-12.93-12.69h6.72c.14,3.78,2,6.87,6.11,6.87a5.36,5.36,0,0,0,5.68-5.47c0-5.28-4.63-5.18-8.06-5.18Z"/></g><polygon class="cls-218" points="335.81 391.35 387.24 391.35 412.98 416.89 387.24 442.49 335.81 442.49 310.07 416.89 335.81 391.35"/><path class="cls-218" d="M381.81,442.49H541.36c11.18,0,20.25-2.6,20.25-5.8V397.14c0-3.2-9.07-5.79-20.25-5.79H381.81Z"/><g class="cls-215"><path class="cls-16" d="M377.93,418.85c0,7.54-4.45,11.22-11.91,11.22s-11.88-3.6-11.88-11.22V401.5h6.13v17.35c0,3,.78,6.06,5.75,6.06,4.37,0,5.78-1.88,5.78-6.06V401.5h6.13Z"/><path class="cls-16" d="M390.83,401.5h6.29l10.43,27.9h-6.37l-2.11-6.21H388.64l-2.19,6.21h-6.21Zm-.59,17.12h7.23L394,408.38h-.07Z"/><path class="cls-16" d="M410,401.5h15c5,0,8.17,3.48,8.17,7.7,0,3.28-1.29,5.74-4.42,7v.08c3,.82,3.87,3.67,4.06,6.53.12,1.76,0,5.08,1.18,6.6h-6.14c-.7-1.76-.66-4.45-1-6.68-.42-2.93-1.56-4.22-4.65-4.22h-6.13v10.9H410Zm6.14,12.62h6.72c2.77,0,4.22-1.17,4.22-4s-1.45-3.87-4.22-3.87h-6.72Z"/><path class="cls-16" d="M444.36,406.66H436V401.5h22.86v5.16H450.5V429.4h-6.14Z"/><path class="cls-16" d="M460.81,412.56c-.2-6.25,3.36-11.06,9.93-11.06,5,0,9.37,3.2,9.37,8.56,0,8.28-8.79,8.95-12.77,14.57h12.93v4.77H460.18c0-6.37,3.91-9,8.64-12.23,2.38-1.68,5.74-3.32,5.74-6.68a3.92,3.92,0,0,0-4.1-4.22c-3.28,0-4.34,3.4-4.34,6.29Z"/><path class="cls-16" d="M481.09,432.33h19.54v2H481.09Z"/><path class="cls-16" d="M509.5,406.66h-8.36V401.5H524v5.16h-8.37V429.4H509.5Z"/><path class="cls-16" d="M534,414.79l-9-13.29h7.11l5.47,8.91,5.67-8.91H550l-8.95,13.33,9.73,14.57h-7.31l-6.09-9.65-6.22,9.65h-6.91Z"/></g><polygon class="cls-218" points="335.81 453.06 387.24 453.06 412.98 478.6 387.24 504.19 335.81 504.19 310.07 478.6 335.81 453.06"/><path class="cls-218" d="M381.81,504.2H541.36c11.18,0,20.25-2.6,20.25-5.8V458.85c0-3.2-9.07-5.79-20.25-5.79H381.81Z"/><g class="cls-215"><path class="cls-16" d="M373.6,480.56c0,7.54-4.46,11.21-11.92,11.21s-11.88-3.59-11.88-11.21V463.21h6.13v17.35c0,3.05.79,6.06,5.75,6.06,4.38,0,5.78-1.88,5.78-6.06V463.21h6.14Z"/><path class="cls-16" d="M386.49,463.21h6.29l10.44,27.9h-6.37l-2.11-6.21H384.3l-2.19,6.21H375.9Zm-.59,17.11h7.23l-3.51-10.23h-.08Z"/><path class="cls-16" d="M405.64,463.21h15c5,0,8.17,3.48,8.17,7.7,0,3.28-1.29,5.74-4.42,7V478c3,.82,3.87,3.67,4.07,6.53.11,1.75,0,5.08,1.17,6.6h-6.14c-.7-1.76-.66-4.46-1-6.68-.43-2.93-1.57-4.22-4.65-4.22h-6.14v10.9h-6.13Zm6.13,12.62h6.72c2.78,0,4.22-1.17,4.22-4s-1.44-3.86-4.22-3.86h-6.72Z"/><path class="cls-16" d="M440,468.37h-8.36v-5.16h22.86v5.16h-8.36v22.74H440Z"/><path class="cls-16" d="M456.47,474.27c-.19-6.25,3.36-11.06,9.93-11.06,5,0,9.38,3.2,9.38,8.56,0,8.28-8.8,9-12.78,14.57h12.93v4.77H455.85c0-6.37,3.91-9,8.63-12.23,2.39-1.68,5.75-3.32,5.75-6.68a3.93,3.93,0,0,0-4.11-4.22c-3.28,0-4.33,3.4-4.33,6.29Z"/><path class="cls-16" d="M476.75,494h19.54V496H476.75Z"/><path class="cls-16" d="M499,463.21h15c5,0,8.17,3.48,8.17,7.7,0,3.28-1.29,5.74-4.42,7V478c3,.82,3.87,3.67,4.07,6.53.11,1.75,0,5.08,1.17,6.6h-6.14c-.7-1.76-.66-4.46-1-6.68-.43-2.93-1.57-4.22-4.65-4.22h-6.14v10.9H499Zm6.13,12.62h6.72c2.78,0,4.22-1.17,4.22-4s-1.44-3.86-4.22-3.86h-6.72Z"/><path class="cls-16" d="M534,476.49l-9-13.28h7.11l5.47,8.91,5.67-8.91H550l-8.95,13.32,9.73,14.58h-7.31l-6.09-9.65-6.22,9.65h-6.91Z"/></g><path class="cls-214" d="M654.23,874.74H598.71a7.48,7.48,0,0,1-7.46-7.46V829.54a7.49,7.49,0,0,1,7.46-7.46h55.52a7.48,7.48,0,0,1,7.46,7.46v37.74A7.47,7.47,0,0,1,654.23,874.74Z"/><g class="cls-215"><path class="cls-16" d="M614.49,842.86c-.25-8,4.27-14.07,12.63-14.07,6.37,0,11.94,4.08,11.94,10.89,0,10.55-11.19,11.39-16.27,18.55h16.47v6.07H613.69c0-8.1,5-11.44,11-15.57,3-2.14,7.32-4.22,7.32-8.5a5,5,0,0,0-5.23-5.37c-4.18,0-5.52,4.32-5.52,8Z"/></g><polygon class="cls-216" points="335.81 330.15 387.24 330.15 412.98 355.7 387.24 381.29 335.81 381.29 310.07 355.7 335.81 330.15"/><path class="cls-216" d="M381.81,381.29H541.36c11.18,0,20.25-2.59,20.25-5.79V336c0-3.2-9.07-5.8-20.25-5.8H381.81Z"/><g class="cls-215"><path class="cls-16" d="M348.74,340.31h6.14v27.9h-6.14Z"/><path class="cls-16" d="M372.77,339.64c8.6,0,13.72,6.45,13.72,14.74,0,8.05-5.12,14.49-13.72,14.49s-13.71-6.44-13.71-14.49C359.06,346.09,364.18,339.64,372.77,339.64Zm0,24.07c5.51,0,7.59-4.68,7.59-9.33,0-4.89-2.08-9.58-7.59-9.58s-7.58,4.69-7.58,9.58C365.19,359,367.27,363.71,372.77,363.71Z"/><path class="cls-16" d="M400.17,361.88H388.6V356.8l11.88-15.95h5v16.46h3.64v4.57h-3.64v6.33h-5.27Zm0-14.07h-.12l-7.07,9.5h7.19Z"/><path class="cls-16" d="M412.08,362.19h6.14v6c0,3.59-2.78,6-6.1,6.49v-2.82a3.58,3.58,0,0,0,2.78-3.67h-2.82Z"/><path class="cls-16" d="M454.29,365a9.38,9.38,0,0,1-7.66,3.83c-8.6,0-13.72-6.44-13.72-14.49,0-8.29,5.12-14.74,13.72-14.74,5.7,0,11.13,3.48,11.76,9.85h-5.86a5.69,5.69,0,0,0-5.9-4.69c-5.51,0-7.58,4.69-7.58,9.58,0,4.65,2.07,9.33,7.58,9.33,4,0,6.29-2.11,6.64-6H447.1v-4.58h11.72v15.09h-3.91Z"/><path class="cls-16" d="M463.78,340.31h12.58c7,0,9.65,4.41,9.65,8.95s-2.65,8.95-9.65,8.95h-6.45v10h-6.13Zm6.13,13.13h4.77c2.82,0,5.39-.63,5.39-4.18s-2.57-4.18-5.39-4.18h-4.77Z"/><path class="cls-16" d="M489.84,340.31H496v27.9h-6.14Z"/><path class="cls-16" d="M513.87,339.64c8.6,0,13.72,6.45,13.72,14.74,0,8.05-5.12,14.49-13.72,14.49s-13.71-6.44-13.71-14.49C500.16,346.09,505.28,339.64,513.87,339.64Zm0,24.07c5.51,0,7.58-4.68,7.58-9.33,0-4.89-2.07-9.58-7.58-9.58s-7.58,4.69-7.58,9.58C506.29,359,508.36,363.71,513.87,363.71Z"/><path class="cls-16" d="M541.27,361.88H529.7V356.8l11.88-15.95h5v16.46h3.63v4.57h-3.63v6.33h-5.27Zm0-14.07h-.12l-7.08,9.5h7.2Z"/></g><path class="cls-214" d="M654.23,938.35H598.71a7.49,7.49,0,0,1-7.46-7.46V893.15a7.48,7.48,0,0,1,7.46-7.46h55.52a7.47,7.47,0,0,1,7.46,7.46v37.74A7.48,7.48,0,0,1,654.23,938.35Z"/><g class="cls-215"><path class="cls-16" d="M632.14,927.91h-7.06V905.33h-8.75V900c4.92.15,9.4-1.59,10.19-6.91h5.62Z"/></g><rect class="cls-216" x="810.72" y="336.06" width="37.8" height="37.8" rx="8.43"/><rect class="cls-218" x="810.72" y="397.99" width="37.8" height="37.8" rx="8.43"/><rect class="cls-218" x="810.72" y="459.91" width="37.8" height="37.8" rx="8.43"/><rect class="cls-216" x="810.72" y="521.84" width="37.8" height="37.8" rx="8.43"/><rect class="cls-216" x="810.72" y="583.76" width="37.8" height="37.8" rx="8.43"/><rect class="cls-219" x="810.72" y="645.69" width="37.8" height="37.8" rx="8.43"/><rect class="cls-219" x="810.72" y="707.61" width="37.8" height="37.8" rx="8.43"/><rect class="cls-217" x="810.72" y="769.54" width="37.8" height="37.8" rx="8.43"/><rect class="cls-214" x="810.72" y="831.46" width="37.8" height="37.8" rx="8.43"/><rect class="cls-214" x="810.72" y="893.39" width="37.8" height="37.8" rx="8.43"/><line class="cls-220" x1="659.58" y1="354.96" x2="829.62" y2="354.96"/><line class="cls-221" x1="659.58" y1="416.89" x2="829.62" y2="416.89"/><line class="cls-221" x1="659.58" y1="476.88" x2="829.62" y2="476.88"/><line class="cls-220" x1="659.58" y1="540.74" x2="829.62" y2="540.74"/><line class="cls-220" x1="660.86" y1="602.66" x2="830.89" y2="602.66"/><line class="cls-222" x1="660.86" y1="664.59" x2="830.89" y2="664.59"/><line class="cls-222" x1="660.86" y1="726.51" x2="830.89" y2="726.51"/><line class="cls-223" x1="660.86" y1="788.44" x2="830.89" y2="788.44"/><line class="cls-224" x1="660.86" y1="850.36" x2="830.89" y2="850.36"/><line class="cls-225" x1="660.86" y1="912.29" x2="830.89" y2="912.29"/></svg>
