<svg id="Layer_1" data-name="Layer 1" xmlns="http://www.w3.org/2000/svg" xmlns:xlink="http://www.w3.org/1999/xlink" viewBox="0 0 1856.26 2006.71"><defs><style>.cls-1,.cls-204,.cls-211,.cls-212,.cls-220,.cls-221,.cls-222,.cls-223,.cls-224{fill:none;}.cls-2{clip-path:url(#clip-path);}.cls-3{fill:#242424;}.cls-4{clip-path:url(#clip-path-3);}.cls-5{fill:#b6c2cc;}.cls-6{clip-path:url(#clip-path-4);}.cls-7{fill:#d4dad2;}.cls-8{fill:#7e7a6f;}.cls-9{fill:#ded2c8;}.cls-10{fill:#e9e8dd;}.cls-11{fill:#6f737b;}.cls-12{fill:#7e7f74;}.cls-13{fill:#b7b7b1;}.cls-14{fill:#8a9fa1;}.cls-15{fill:#474c58;}.cls-16{fill:#fff;}.cls-17{fill:#fff7dc;}.cls-18{fill:#bb955a;}.cls-19{fill:#c8c9b3;}.cls-20{fill:#735535;}.cls-21{clip-path:url(#clip-path-6);}.cls-22{fill:url(#linear-gradient);}.cls-23{clip-path:url(#clip-path-7);}.cls-24{fill:url(#linear-gradient-2);}.cls-25{clip-path:url(#clip-path-8);}.cls-26{fill:url(#linear-gradient-3);}.cls-27{clip-path:url(#clip-path-9);}.cls-28{fill:url(#linear-gradient-4);}.cls-29{clip-path:url(#clip-path-10);}.cls-30{fill:url(#linear-gradient-5);}.cls-31{clip-path:url(#clip-path-11);}.cls-32{fill:url(#linear-gradient-6);}.cls-33{clip-path:url(#clip-path-12);}.cls-34{fill:url(#linear-gradient-7);}.cls-35{clip-path:url(#clip-path-13);}.cls-36{fill:url(#linear-gradient-8);}.cls-37{clip-path:url(#clip-path-14);}.cls-38{fill:url(#linear-gradient-9);}.cls-39{clip-path:url(#clip-path-15);}.cls-40{fill:url(#linear-gradient-10);}.cls-41{clip-path:url(#clip-path-16);}.cls-42{fill:url(#linear-gradient-11);}.cls-43{clip-path:url(#clip-path-17);}.cls-44{fill:url(#linear-gradient-12);}.cls-45{clip-path:url(#clip-path-18);}.cls-46{fill:url(#linear-gradient-13);}.cls-47{clip-path:url(#clip-path-19);}.cls-48{fill:url(#linear-gradient-14);}.cls-49{clip-path:url(#clip-path-20);}.cls-50{fill:url(#linear-gradient-15);}.cls-51{clip-path:url(#clip-path-21);}.cls-52{fill:url(#linear-gradient-16);}.cls-53{clip-path:url(#clip-path-22);}.cls-54{fill:url(#linear-gradient-17);}.cls-55{clip-path:url(#clip-path-23);}.cls-56{fill:url(#linear-gradient-18);}.cls-57{fill:#232323;}.cls-58{clip-path:url(#clip-path-25);}.cls-59{fill:url(#linear-gradient-19);}.cls-60{clip-path:url(#clip-path-26);}.cls-61{fill:url(#linear-gradient-20);}.cls-62{clip-path:url(#clip-path-27);}.cls-63{fill:url(#linear-gradient-21);}.cls-64{clip-path:url(#clip-path-28);}.cls-65{fill:url(#linear-gradient-22);}.cls-66{clip-path:url(#clip-path-29);}.cls-67{fill:url(#linear-gradient-23);}.cls-68{clip-path:url(#clip-path-30);}.cls-69{fill:url(#linear-gradient-24);}.cls-70{clip-path:url(#clip-path-31);}.cls-71{fill:url(#linear-gradient-25);}.cls-72{clip-path:url(#clip-path-32);}.cls-73{fill:url(#linear-gradient-26);}.cls-74{clip-path:url(#clip-path-33);}.cls-75{fill:url(#linear-gradient-27);}.cls-76{clip-path:url(#clip-path-34);}.cls-77{fill:url(#linear-gradient-28);}.cls-78{clip-path:url(#clip-path-35);}.cls-79{fill:url(#linear-gradient-29);}.cls-80{clip-path:url(#clip-path-36);}.cls-81{fill:url(#linear-gradient-30);}.cls-82{clip-path:url(#clip-path-37);}.cls-83{fill:url(#linear-gradient-31);}.cls-84{clip-path:url(#clip-path-38);}.cls-85{fill:url(#linear-gradient-32);}.cls-86{clip-path:url(#clip-path-39);}.cls-87{fill:url(#linear-gradient-33);}.cls-88{clip-path:url(#clip-path-40);}.cls-89{fill:url(#linear-gradient-34);}.cls-90{clip-path:url(#clip-path-41);}.cls-91{fill:url(#linear-gradient-35);}.cls-92{clip-path:url(#clip-path-42);}.cls-93{fill:url(#linear-gradient-36);}.cls-94{clip-path:url(#clip-path-44);}.cls-95{fill:url(#linear-gradient-37);}.cls-96{clip-path:url(#clip-path-45);}.cls-97{fill:url(#linear-gradient-38);}.cls-98{clip-path:url(#clip-path-46);}.cls-99{fill:url(#linear-gradient-39);}.cls-100{clip-path:url(#clip-path-47);}.cls-101{fill:url(#linear-gradient-40);}.cls-102{clip-path:url(#clip-path-48);}.cls-103{fill:url(#linear-gradient-41);}.cls-104{clip-path:url(#clip-path-49);}.cls-105{fill:url(#linear-gradient-42);}.cls-106{clip-path:url(#clip-path-50);}.cls-107{fill:url(#linear-gradient-43);}.cls-108{clip-path:url(#clip-path-51);}.cls-109{fill:url(#linear-gradient-44);}.cls-110{clip-path:url(#clip-path-52);}.cls-111{fill:url(#linear-gradient-45);}.cls-112{clip-path:url(#clip-path-53);}.cls-113{fill:url(#linear-gradient-46);}.cls-114{clip-path:url(#clip-path-54);}.cls-115{fill:url(#linear-gradient-47);}.cls-116{clip-path:url(#clip-path-55);}.cls-117{fill:url(#linear-gradient-48);}.cls-118{clip-path:url(#clip-path-56);}.cls-119{fill:url(#linear-gradient-49);}.cls-120{clip-path:url(#clip-path-57);}.cls-121{fill:url(#linear-gradient-50);}.cls-122{clip-path:url(#clip-path-58);}.cls-123{fill:url(#linear-gradient-51);}.cls-124{clip-path:url(#clip-path-59);}.cls-125{fill:url(#linear-gradient-52);}.cls-126{clip-path:url(#clip-path-60);}.cls-127{fill:url(#linear-gradient-53);}.cls-128{clip-path:url(#clip-path-61);}.cls-129{fill:url(#linear-gradient-54);}.cls-130{clip-path:url(#clip-path-63);}.cls-131{fill:url(#linear-gradient-55);}.cls-132{clip-path:url(#clip-path-64);}.cls-133{fill:url(#linear-gradient-56);}.cls-134{clip-path:url(#clip-path-65);}.cls-135{fill:url(#linear-gradient-57);}.cls-136{clip-path:url(#clip-path-66);}.cls-137{fill:url(#linear-gradient-58);}.cls-138{clip-path:url(#clip-path-67);}.cls-139{fill:url(#linear-gradient-59);}.cls-140{clip-path:url(#clip-path-68);}.cls-141{fill:url(#linear-gradient-60);}.cls-142{clip-path:url(#clip-path-69);}.cls-143{fill:url(#linear-gradient-61);}.cls-144{clip-path:url(#clip-path-70);}.cls-145{fill:url(#linear-gradient-62);}.cls-146{clip-path:url(#clip-path-71);}.cls-147{fill:url(#linear-gradient-63);}.cls-148{clip-path:url(#clip-path-72);}.cls-149{fill:url(#linear-gradient-64);}.cls-150{clip-path:url(#clip-path-73);}.cls-151{fill:url(#linear-gradient-65);}.cls-152{clip-path:url(#clip-path-74);}.cls-153{fill:url(#linear-gradient-66);}.cls-154{clip-path:url(#clip-path-75);}.cls-155{fill:url(#linear-gradient-67);}.cls-156{clip-path:url(#clip-path-76);}.cls-157{fill:url(#linear-gradient-68);}.cls-158{clip-path:url(#clip-path-77);}.cls-159{fill:url(#linear-gradient-69);}.cls-160{clip-path:url(#clip-path-78);}.cls-161{fill:url(#linear-gradient-70);}.cls-162{clip-path:url(#clip-path-79);}.cls-163{fill:url(#linear-gradient-71);}.cls-164{clip-path:url(#clip-path-80);}.cls-165{fill:url(#linear-gradient-72);}.cls-166{clip-path:url(#clip-path-82);}.cls-167{fill:url(#linear-gradient-73);}.cls-168{clip-path:url(#clip-path-83);}.cls-169{fill:url(#linear-gradient-74);}.cls-170{clip-path:url(#clip-path-84);}.cls-171{fill:url(#linear-gradient-75);}.cls-172{clip-path:url(#clip-path-85);}.cls-173{fill:url(#linear-gradient-76);}.cls-174{clip-path:url(#clip-path-86);}.cls-175{fill:url(#linear-gradient-77);}.cls-176{clip-path:url(#clip-path-87);}.cls-177{fill:url(#linear-gradient-78);}.cls-178{clip-path:url(#clip-path-88);}.cls-179{fill:url(#linear-gradient-79);}.cls-180{clip-path:url(#clip-path-89);}.cls-181{fill:url(#linear-gradient-80);}.cls-182{clip-path:url(#clip-path-90);}.cls-183{fill:url(#linear-gradient-81);}.cls-184{clip-path:url(#clip-path-91);}.cls-185{fill:url(#linear-gradient-82);}.cls-186{clip-path:url(#clip-path-92);}.cls-187{fill:url(#linear-gradient-83);}.cls-188{clip-path:url(#clip-path-93);}.cls-189{fill:url(#linear-gradient-84);}.cls-190{clip-path:url(#clip-path-94);}.cls-191{fill:url(#linear-gradient-85);}.cls-192{clip-path:url(#clip-path-95);}.cls-193{fill:url(#linear-gradient-86);}.cls-194{clip-path:url(#clip-path-96);}.cls-195{fill:url(#linear-gradient-87);}.cls-196{clip-path:url(#clip-path-97);}.cls-197{fill:url(#linear-gradient-88);}.cls-198{clip-path:url(#clip-path-98);}.cls-199{fill:url(#linear-gradient-89);}.cls-200{clip-path:url(#clip-path-99);}.cls-201{fill:url(#linear-gradient-90);}.cls-202{clip-path:url(#clip-path-101);}.cls-203{fill:#bf8f3e;}.cls-204,.cls-211,.cls-212{stroke:#fff;}.cls-204,.cls-220,.cls-221,.cls-222,.cls-223,.cls-224{stroke-miterlimit:10;}.cls-204{stroke-width:2.96px;}.cls-205{clip-path:url(#clip-path-103);}.cls-206{clip-path:url(#clip-path-105);}.cls-207{fill:#c1903f;}.cls-208{fill:#e5e5e5;}.cls-209{fill:#242117;}.cls-210{fill:#eaf0e8;}.cls-211,.cls-212{stroke-linejoin:round;stroke-width:5px;}.cls-212{stroke-linecap:round;}.cls-213{fill:#665239;}.cls-214{fill:#ffd400;}.cls-215{isolation:isolate;}.cls-216{fill:red;}.cls-217{fill:#333;}.cls-218{fill:#00a7db;}.cls-219{fill:#7373ff;}.cls-220{stroke:red;}.cls-220,.cls-221,.cls-222,.cls-223,.cls-224{stroke-width:3px;}.cls-221{stroke:#333;}.cls-222{stroke:#00a7db;}.cls-223{stroke:#7373ff;}.cls-224{stroke:#ffd400;}</style><clipPath id="clip-path"><rect class="cls-1" x="175.99" y="232.87" width="977.38" height="1540.97"/></clipPath><clipPath id="clip-path-3"><rect class="cls-1" x="175.99" y="1047.7" width="387.93" height="523.58"/></clipPath><clipPath id="clip-path-4"><rect class="cls-1" x="175.99" y="1047.7" width="387.93" height="523.58"/></clipPath><clipPath id="clip-path-6"><rect class="cls-1" x="623.52" y="1517.61" width="37.04" height="19.91" rx="5.67"/></clipPath><linearGradient id="linear-gradient" x1="-4171.06" y1="-32.23" x2="-4170.06" y2="-32.23" gradientTransform="matrix(0, 19.91, 19.91, 0, 1283.61, 84557.22)" gradientUnits="userSpaceOnUse"><stop offset="0" stop-color="#fff"/><stop offset="0.96" stop-color="#232428"/><stop offset="1" stop-color="#232428"/></linearGradient><clipPath id="clip-path-7"><rect class="cls-1" x="631.38" y="1476.09" width="22.77" height="27.78"/></clipPath><linearGradient id="linear-gradient-2" x1="-4171.06" y1="-32.23" x2="-4170.06" y2="-32.23" gradientTransform="matrix(0, 27.78, 27.78, 0, 1538.12, 117363.65)" xlink:href="#linear-gradient"/><clipPath id="clip-path-8"><path class="cls-1" d="M642,1521.45A13.43,13.43,0,1,0,629.09,1508,13.19,13.19,0,0,0,642,1521.45"/></clipPath><linearGradient id="linear-gradient-3" x1="-4171.06" y1="-32.23" x2="-4170.06" y2="-32.23" gradientTransform="matrix(0, 26.84, 26.84, 0, 1506.94, 113440.42)" xlink:href="#linear-gradient"/><clipPath id="clip-path-9"><rect class="cls-1" x="681.98" y="1517.61" width="37.05" height="19.91" rx="5.67"/></clipPath><linearGradient id="linear-gradient-4" x1="-4171.06" y1="-32.23" x2="-4170.06" y2="-32.23" gradientTransform="matrix(0, 19.91, 19.91, 0, 1342.07, 84557.22)" xlink:href="#linear-gradient"/><clipPath id="clip-path-10"><rect class="cls-1" x="689.84" y="1476.09" width="22.77" height="27.78"/></clipPath><linearGradient id="linear-gradient-5" x1="-4171.06" y1="-32.23" x2="-4170.06" y2="-32.23" gradientTransform="matrix(0, 27.78, 27.78, 0, 1596.58, 117363.65)" xlink:href="#linear-gradient"/><clipPath id="clip-path-11"><path class="cls-1" d="M700.51,1521.45a13.43,13.43,0,1,0-13-13.42,13.19,13.19,0,0,0,13,13.42"/></clipPath><linearGradient id="linear-gradient-6" x1="-4171.06" y1="-32.23" x2="-4170.06" y2="-32.23" gradientTransform="matrix(0, 26.84, 26.84, 0, 1565.4, 113440.42)" xlink:href="#linear-gradient"/><clipPath id="clip-path-12"><rect class="cls-1" x="740.95" y="1517.61" width="37.04" height="19.91" rx="5.67"/></clipPath><linearGradient id="linear-gradient-7" x1="-4171.06" y1="-32.23" x2="-4170.06" y2="-32.23" gradientTransform="matrix(0, 19.91, 19.91, 0, 1401.04, 84557.22)" xlink:href="#linear-gradient"/><clipPath id="clip-path-13"><rect class="cls-1" x="748.81" y="1476.09" width="22.78" height="27.78"/></clipPath><linearGradient id="linear-gradient-8" x1="-4171.06" y1="-32.23" x2="-4170.06" y2="-32.23" gradientTransform="matrix(0, 27.78, 27.78, 0, 1655.55, 117363.65)" xlink:href="#linear-gradient"/><clipPath id="clip-path-14"><path class="cls-1" d="M759.47,1521.45A13.43,13.43,0,1,0,746.53,1508a13.19,13.19,0,0,0,12.94,13.42"/></clipPath><linearGradient id="linear-gradient-9" x1="-4171.06" y1="-32.23" x2="-4170.06" y2="-32.23" gradientTransform="matrix(0, 26.84, 26.84, 0, 1624.37, 113440.42)" xlink:href="#linear-gradient"/><clipPath id="clip-path-15"><rect class="cls-1" x="623.52" y="1320.85" width="37.04" height="19.91" rx="5.67"/></clipPath><linearGradient id="linear-gradient-10" x1="-4171.06" y1="-32.23" x2="-4170.06" y2="-32.23" gradientTransform="translate(1283.61 -81698.85) rotate(-90) scale(19.91)" xlink:href="#linear-gradient"/><clipPath id="clip-path-16"><rect class="cls-1" x="631.38" y="1354.5" width="22.77" height="27.78"/></clipPath><linearGradient id="linear-gradient-11" x1="-4171.06" y1="-32.23" x2="-4170.06" y2="-32.23" gradientTransform="translate(1538.12 -114505.28) rotate(-90) scale(27.78)" xlink:href="#linear-gradient"/><clipPath id="clip-path-17"><path class="cls-1" d="M642,1363.76a13.43,13.43,0,1,0-12.95-13.42A13.19,13.19,0,0,0,642,1363.76"/></clipPath><linearGradient id="linear-gradient-12" x1="-4171.06" y1="-32.23" x2="-4170.06" y2="-32.23" gradientTransform="translate(1506.94 -110582.05) rotate(-90) scale(26.84)" xlink:href="#linear-gradient"/><clipPath id="clip-path-18"><rect class="cls-1" x="681.98" y="1320.85" width="37.05" height="19.91" rx="5.67"/></clipPath><linearGradient id="linear-gradient-13" x1="-4171.06" y1="-32.23" x2="-4170.06" y2="-32.23" gradientTransform="translate(1342.07 -81698.85) rotate(-90) scale(19.91)" xlink:href="#linear-gradient"/><clipPath id="clip-path-19"><rect class="cls-1" x="689.84" y="1354.5" width="22.77" height="27.78"/></clipPath><linearGradient id="linear-gradient-14" x1="-4171.06" y1="-32.23" x2="-4170.06" y2="-32.23" gradientTransform="translate(1596.58 -114505.28) rotate(-90) scale(27.78)" xlink:href="#linear-gradient"/><clipPath id="clip-path-20"><path class="cls-1" d="M700.51,1363.76a13.43,13.43,0,1,0-13-13.42,13.19,13.19,0,0,0,13,13.42"/></clipPath><linearGradient id="linear-gradient-15" x1="-4171.06" y1="-32.23" x2="-4170.06" y2="-32.23" gradientTransform="translate(1565.4 -110582.05) rotate(-90) scale(26.84)" xlink:href="#linear-gradient"/><clipPath id="clip-path-21"><rect class="cls-1" x="740.95" y="1320.85" width="37.04" height="19.91" rx="5.67"/></clipPath><linearGradient id="linear-gradient-16" x1="-4171.06" y1="-32.23" x2="-4170.06" y2="-32.23" gradientTransform="translate(1401.04 -81698.85) rotate(-90) scale(19.91)" xlink:href="#linear-gradient"/><clipPath id="clip-path-22"><rect class="cls-1" x="748.81" y="1354.5" width="22.78" height="27.78"/></clipPath><linearGradient id="linear-gradient-17" x1="-4171.06" y1="-32.23" x2="-4170.06" y2="-32.23" gradientTransform="translate(1655.55 -114505.28) rotate(-90) scale(27.78)" xlink:href="#linear-gradient"/><clipPath id="clip-path-23"><path class="cls-1" d="M759.47,1363.76a13.43,13.43,0,1,0-12.94-13.42,13.19,13.19,0,0,0,12.94,13.42"/></clipPath><linearGradient id="linear-gradient-18" x1="-4171.06" y1="-32.23" x2="-4170.06" y2="-32.23" gradientTransform="translate(1624.37 -110582.05) rotate(-90) scale(26.84)" xlink:href="#linear-gradient"/><clipPath id="clip-path-25"><rect class="cls-1" x="603.81" y="1263.41" width="37.04" height="19.91" rx="5.67"/></clipPath><linearGradient id="linear-gradient-19" x1="-4171.06" y1="-32.23" x2="-4170.06" y2="-32.23" gradientTransform="matrix(0, 19.91, 19.91, 0, 1263.9, 84303.02)" xlink:href="#linear-gradient"/><clipPath id="clip-path-26"><rect class="cls-1" x="611.67" y="1221.89" width="22.77" height="27.78"/></clipPath><linearGradient id="linear-gradient-20" x1="-4171.06" y1="-32.23" x2="-4170.06" y2="-32.23" gradientTransform="matrix(0, 27.78, 27.78, 0, 1518.41, 117109.45)" xlink:href="#linear-gradient"/><clipPath id="clip-path-27"><path class="cls-1" d="M622.33,1267.25a13.43,13.43,0,1,0-12.94-13.42,13.19,13.19,0,0,0,12.94,13.42"/></clipPath><linearGradient id="linear-gradient-21" x1="-4171.06" y1="-32.23" x2="-4170.06" y2="-32.23" gradientTransform="matrix(0, 26.84, 26.84, 0, 1487.23, 113186.22)" xlink:href="#linear-gradient"/><clipPath id="clip-path-28"><rect class="cls-1" x="662.28" y="1263.41" width="37.04" height="19.91" rx="5.67"/></clipPath><linearGradient id="linear-gradient-22" x1="-4171.06" y1="-32.23" x2="-4170.06" y2="-32.23" gradientTransform="matrix(0, 19.91, 19.91, 0, 1322.37, 84303.02)" xlink:href="#linear-gradient"/><clipPath id="clip-path-29"><rect class="cls-1" x="670.14" y="1221.89" width="22.77" height="27.78"/></clipPath><linearGradient id="linear-gradient-23" x1="-4171.06" y1="-32.23" x2="-4170.06" y2="-32.23" gradientTransform="matrix(0, 27.78, 27.78, 0, 1576.88, 117109.45)" xlink:href="#linear-gradient"/><clipPath id="clip-path-30"><path class="cls-1" d="M680.8,1267.25a13.43,13.43,0,1,0-12.95-13.42,13.19,13.19,0,0,0,12.95,13.42"/></clipPath><linearGradient id="linear-gradient-24" x1="-4171.06" y1="-32.23" x2="-4170.06" y2="-32.23" gradientTransform="matrix(0, 26.84, 26.84, 0, 1545.7, 113186.22)" xlink:href="#linear-gradient"/><clipPath id="clip-path-31"><rect class="cls-1" x="721.25" y="1263.41" width="37.04" height="19.91" rx="5.67"/></clipPath><linearGradient id="linear-gradient-25" x1="-4171.06" y1="-32.23" x2="-4170.06" y2="-32.23" gradientTransform="matrix(0, 19.91, 19.91, 0, 1381.34, 84303.02)" xlink:href="#linear-gradient"/><clipPath id="clip-path-32"><rect class="cls-1" x="729.11" y="1221.89" width="22.77" height="27.78"/></clipPath><linearGradient id="linear-gradient-26" x1="-4171.06" y1="-32.23" x2="-4170.06" y2="-32.23" gradientTransform="matrix(0, 27.78, 27.78, 0, 1635.84, 117109.45)" xlink:href="#linear-gradient"/><clipPath id="clip-path-33"><path class="cls-1" d="M739.77,1267.25a13.43,13.43,0,1,0-12.95-13.42,13.19,13.19,0,0,0,12.95,13.42"/></clipPath><linearGradient id="linear-gradient-27" x1="-4171.06" y1="-32.23" x2="-4170.06" y2="-32.23" gradientTransform="matrix(0, 26.84, 26.84, 0, 1604.67, 113186.22)" xlink:href="#linear-gradient"/><clipPath id="clip-path-34"><rect class="cls-1" x="603.81" y="1066.65" width="37.04" height="19.91" rx="5.67"/></clipPath><linearGradient id="linear-gradient-28" x1="-4171.06" y1="-32.23" x2="-4170.06" y2="-32.23" gradientTransform="translate(1263.9 -81953.05) rotate(-90) scale(19.91)" xlink:href="#linear-gradient"/><clipPath id="clip-path-35"><rect class="cls-1" x="611.67" y="1100.3" width="22.77" height="27.78"/></clipPath><linearGradient id="linear-gradient-29" x1="-4171.06" y1="-32.23" x2="-4170.06" y2="-32.23" gradientTransform="translate(1518.41 -114759.48) rotate(-90) scale(27.78)" xlink:href="#linear-gradient"/><clipPath id="clip-path-36"><path class="cls-1" d="M622.33,1109.56a13.43,13.43,0,1,0-12.94-13.42,13.19,13.19,0,0,0,12.94,13.42"/></clipPath><linearGradient id="linear-gradient-30" x1="-4171.06" y1="-32.23" x2="-4170.06" y2="-32.23" gradientTransform="translate(1487.23 -110836.25) rotate(-90) scale(26.84)" xlink:href="#linear-gradient"/><clipPath id="clip-path-37"><rect class="cls-1" x="662.28" y="1066.65" width="37.04" height="19.91" rx="5.67"/></clipPath><linearGradient id="linear-gradient-31" x1="-4171.06" y1="-32.23" x2="-4170.06" y2="-32.23" gradientTransform="translate(1322.37 -81953.05) rotate(-90) scale(19.91)" xlink:href="#linear-gradient"/><clipPath id="clip-path-38"><rect class="cls-1" x="670.14" y="1100.3" width="22.77" height="27.78"/></clipPath><linearGradient id="linear-gradient-32" x1="-4171.06" y1="-32.23" x2="-4170.06" y2="-32.23" gradientTransform="translate(1576.88 -114759.48) rotate(-90) scale(27.78)" xlink:href="#linear-gradient"/><clipPath id="clip-path-39"><path class="cls-1" d="M680.8,1109.56a13.43,13.43,0,1,0-12.95-13.42,13.19,13.19,0,0,0,12.95,13.42"/></clipPath><linearGradient id="linear-gradient-33" x1="-4171.06" y1="-32.23" x2="-4170.06" y2="-32.23" gradientTransform="translate(1545.7 -110836.25) rotate(-90) scale(26.84)" xlink:href="#linear-gradient"/><clipPath id="clip-path-40"><rect class="cls-1" x="721.25" y="1066.65" width="37.04" height="19.91" rx="5.67"/></clipPath><linearGradient id="linear-gradient-34" x1="-4171.06" y1="-32.23" x2="-4170.06" y2="-32.23" gradientTransform="translate(1381.34 -81953.05) rotate(-90) scale(19.91)" xlink:href="#linear-gradient"/><clipPath id="clip-path-41"><rect class="cls-1" x="729.11" y="1100.3" width="22.77" height="27.78"/></clipPath><linearGradient id="linear-gradient-35" x1="-4171.06" y1="-32.23" x2="-4170.06" y2="-32.23" gradientTransform="translate(1635.84 -114759.48) rotate(-90) scale(27.78)" xlink:href="#linear-gradient"/><clipPath id="clip-path-42"><path class="cls-1" d="M739.77,1109.56a13.43,13.43,0,1,0-12.95-13.42,13.19,13.19,0,0,0,12.95,13.42"/></clipPath><linearGradient id="linear-gradient-36" x1="-4171.06" y1="-32.23" x2="-4170.06" y2="-32.23" gradientTransform="translate(1604.67 -110836.25) rotate(-90) scale(26.84)" xlink:href="#linear-gradient"/><clipPath id="clip-path-44"><rect class="cls-1" x="810.72" y="1263.41" width="37.04" height="19.91" rx="5.67"/></clipPath><linearGradient id="linear-gradient-37" x1="-4171.06" y1="-32.23" x2="-4170.06" y2="-32.23" gradientTransform="matrix(0, 19.91, 19.91, 0, 1470.81, 84303.02)" xlink:href="#linear-gradient"/><clipPath id="clip-path-45"><rect class="cls-1" x="818.58" y="1221.89" width="22.78" height="27.78"/></clipPath><linearGradient id="linear-gradient-38" x1="-4171.06" y1="-32.23" x2="-4170.06" y2="-32.23" gradientTransform="matrix(0, 27.78, 27.78, 0, 1725.32, 117109.45)" xlink:href="#linear-gradient"/><clipPath id="clip-path-46"><path class="cls-1" d="M829.24,1267.25a13.43,13.43,0,1,0-13-13.42,13.19,13.19,0,0,0,13,13.42"/></clipPath><linearGradient id="linear-gradient-39" x1="-4171.06" y1="-32.23" x2="-4170.06" y2="-32.23" gradientTransform="matrix(0, 26.84, 26.84, 0, 1694.14, 113186.22)" xlink:href="#linear-gradient"/><clipPath id="clip-path-47"><rect class="cls-1" x="869.18" y="1263.41" width="37.05" height="19.91" rx="5.67"/></clipPath><linearGradient id="linear-gradient-40" x1="-4171.06" y1="-32.23" x2="-4170.06" y2="-32.23" gradientTransform="matrix(0, 19.91, 19.91, 0, 1529.27, 84303.02)" xlink:href="#linear-gradient"/><clipPath id="clip-path-48"><rect class="cls-1" x="877.04" y="1221.89" width="22.77" height="27.78"/></clipPath><linearGradient id="linear-gradient-41" x1="-4171.06" y1="-32.23" x2="-4170.06" y2="-32.23" gradientTransform="matrix(0, 27.78, 27.78, 0, 1783.78, 117109.45)" xlink:href="#linear-gradient"/><clipPath id="clip-path-49"><path class="cls-1" d="M887.71,1267.25a13.43,13.43,0,1,0-13-13.42,13.19,13.19,0,0,0,13,13.42"/></clipPath><linearGradient id="linear-gradient-42" x1="-4171.06" y1="-32.23" x2="-4170.06" y2="-32.23" gradientTransform="matrix(0, 26.84, 26.84, 0, 1752.6, 113186.22)" xlink:href="#linear-gradient"/><clipPath id="clip-path-50"><rect class="cls-1" x="928.15" y="1263.41" width="37.04" height="19.91" rx="5.67"/></clipPath><linearGradient id="linear-gradient-43" x1="-4171.06" y1="-32.23" x2="-4170.06" y2="-32.23" gradientTransform="matrix(0, 19.91, 19.91, 0, 1588.24, 84303.02)" xlink:href="#linear-gradient"/><clipPath id="clip-path-51"><rect class="cls-1" x="936.01" y="1221.89" width="22.78" height="27.78"/></clipPath><linearGradient id="linear-gradient-44" x1="-4171.06" y1="-32.23" x2="-4170.06" y2="-32.23" gradientTransform="matrix(0, 27.78, 27.78, 0, 1842.75, 117109.45)" xlink:href="#linear-gradient"/><clipPath id="clip-path-52"><path class="cls-1" d="M946.68,1267.25a13.43,13.43,0,1,0-12.95-13.42,13.19,13.19,0,0,0,12.95,13.42"/></clipPath><linearGradient id="linear-gradient-45" x1="-4171.06" y1="-32.23" x2="-4170.06" y2="-32.23" gradientTransform="matrix(0, 26.84, 26.84, 0, 1811.57, 113186.22)" xlink:href="#linear-gradient"/><clipPath id="clip-path-53"><rect class="cls-1" x="810.72" y="1066.65" width="37.04" height="19.91" rx="5.67"/></clipPath><linearGradient id="linear-gradient-46" x1="-4171.06" y1="-32.23" x2="-4170.06" y2="-32.23" gradientTransform="translate(1470.81 -81953.05) rotate(-90) scale(19.91)" xlink:href="#linear-gradient"/><clipPath id="clip-path-54"><rect class="cls-1" x="818.58" y="1100.3" width="22.78" height="27.78"/></clipPath><linearGradient id="linear-gradient-47" x1="-4171.06" y1="-32.23" x2="-4170.06" y2="-32.23" gradientTransform="translate(1725.32 -114759.48) rotate(-90) scale(27.78)" xlink:href="#linear-gradient"/><clipPath id="clip-path-55"><path class="cls-1" d="M829.24,1109.56a13.43,13.43,0,1,0-13-13.42,13.19,13.19,0,0,0,13,13.42"/></clipPath><linearGradient id="linear-gradient-48" x1="-4171.06" y1="-32.23" x2="-4170.06" y2="-32.23" gradientTransform="translate(1694.14 -110836.25) rotate(-90) scale(26.84)" xlink:href="#linear-gradient"/><clipPath id="clip-path-56"><rect class="cls-1" x="869.18" y="1066.65" width="37.05" height="19.91" rx="5.67"/></clipPath><linearGradient id="linear-gradient-49" x1="-4171.06" y1="-32.23" x2="-4170.06" y2="-32.23" gradientTransform="translate(1529.27 -81953.05) rotate(-90) scale(19.91)" xlink:href="#linear-gradient"/><clipPath id="clip-path-57"><rect class="cls-1" x="877.04" y="1100.3" width="22.77" height="27.78"/></clipPath><linearGradient id="linear-gradient-50" x1="-4171.06" y1="-32.23" x2="-4170.06" y2="-32.23" gradientTransform="translate(1783.78 -114759.48) rotate(-90) scale(27.78)" xlink:href="#linear-gradient"/><clipPath id="clip-path-58"><path class="cls-1" d="M887.71,1109.56a13.43,13.43,0,1,0-13-13.42,13.19,13.19,0,0,0,13,13.42"/></clipPath><linearGradient id="linear-gradient-51" x1="-4171.06" y1="-32.23" x2="-4170.06" y2="-32.23" gradientTransform="translate(1752.6 -110836.25) rotate(-90) scale(26.84)" xlink:href="#linear-gradient"/><clipPath id="clip-path-59"><rect class="cls-1" x="928.15" y="1066.65" width="37.04" height="19.91" rx="5.67"/></clipPath><linearGradient id="linear-gradient-52" x1="-4171.06" y1="-32.23" x2="-4170.06" y2="-32.23" gradientTransform="translate(1588.24 -81953.05) rotate(-90) scale(19.91)" xlink:href="#linear-gradient"/><clipPath id="clip-path-60"><rect class="cls-1" x="936.01" y="1100.3" width="22.78" height="27.78"/></clipPath><linearGradient id="linear-gradient-53" x1="-4171.06" y1="-32.23" x2="-4170.06" y2="-32.23" gradientTransform="translate(1842.75 -114759.48) rotate(-90) scale(27.78)" xlink:href="#linear-gradient"/><clipPath id="clip-path-61"><path class="cls-1" d="M946.68,1109.56a13.43,13.43,0,1,0-12.95-13.42,13.19,13.19,0,0,0,12.95,13.42"/></clipPath><linearGradient id="linear-gradient-54" x1="-4171.06" y1="-32.23" x2="-4170.06" y2="-32.23" gradientTransform="translate(1811.57 -110836.25) rotate(-90) scale(26.84)" xlink:href="#linear-gradient"/><clipPath id="clip-path-63"><rect class="cls-1" x="618.59" y="920.53" width="37.04" height="19.91" rx="5.67"/></clipPath><linearGradient id="linear-gradient-55" x1="-4171.06" y1="-32.23" x2="-4170.06" y2="-32.23" gradientTransform="matrix(0, 19.91, 19.91, 0, 1278.68, 83960.14)" xlink:href="#linear-gradient"/><clipPath id="clip-path-64"><rect class="cls-1" x="626.45" y="879.01" width="22.78" height="27.78"/></clipPath><linearGradient id="linear-gradient-56" x1="-4171.06" y1="-32.23" x2="-4170.06" y2="-32.23" gradientTransform="matrix(0, 27.78, 27.78, 0, 1533.19, 116766.57)" xlink:href="#linear-gradient"/><clipPath id="clip-path-65"><path class="cls-1" d="M637.11,924.37A13.42,13.42,0,1,0,624.17,911a13.18,13.18,0,0,0,12.94,13.41"/></clipPath><linearGradient id="linear-gradient-57" x1="-4171.06" y1="-32.23" x2="-4170.06" y2="-32.23" gradientTransform="matrix(0, 26.84, 26.84, 0, 1502.01, 112843.34)" xlink:href="#linear-gradient"/><clipPath id="clip-path-66"><rect class="cls-1" x="677.06" y="920.53" width="37.05" height="19.91" rx="5.67"/></clipPath><linearGradient id="linear-gradient-58" x1="-4171.06" y1="-32.23" x2="-4170.06" y2="-32.23" gradientTransform="matrix(0, 19.91, 19.91, 0, 1337.15, 83960.14)" xlink:href="#linear-gradient"/><clipPath id="clip-path-67"><rect class="cls-1" x="684.92" y="879.01" width="22.77" height="27.78"/></clipPath><linearGradient id="linear-gradient-59" x1="-4171.06" y1="-32.23" x2="-4170.06" y2="-32.23" gradientTransform="matrix(0, 27.78, 27.78, 0, 1591.65, 116766.57)" xlink:href="#linear-gradient"/><clipPath id="clip-path-68"><path class="cls-1" d="M695.58,924.37a13.42,13.42,0,1,0-13-13.41,13.18,13.18,0,0,0,13,13.41"/></clipPath><linearGradient id="linear-gradient-60" x1="-4171.06" y1="-32.23" x2="-4170.06" y2="-32.23" gradientTransform="matrix(0, 26.84, 26.84, 0, 1560.48, 112843.34)" xlink:href="#linear-gradient"/><clipPath id="clip-path-69"><rect class="cls-1" x="736.02" y="920.53" width="37.05" height="19.91" rx="5.67"/></clipPath><linearGradient id="linear-gradient-61" x1="-4171.06" y1="-32.23" x2="-4170.06" y2="-32.23" gradientTransform="matrix(0, 19.91, 19.91, 0, 1396.11, 83960.14)" xlink:href="#linear-gradient"/><clipPath id="clip-path-70"><rect class="cls-1" x="743.88" y="879.01" width="22.78" height="27.78"/></clipPath><linearGradient id="linear-gradient-62" x1="-4171.06" y1="-32.23" x2="-4170.06" y2="-32.23" gradientTransform="matrix(0, 27.78, 27.78, 0, 1650.62, 116766.57)" xlink:href="#linear-gradient"/><clipPath id="clip-path-71"><path class="cls-1" d="M754.55,924.37A13.42,13.42,0,1,0,741.6,911a13.18,13.18,0,0,0,12.95,13.41"/></clipPath><linearGradient id="linear-gradient-63" x1="-4171.06" y1="-32.23" x2="-4170.06" y2="-32.23" gradientTransform="matrix(0, 26.84, 26.84, 0, 1619.45, 112843.34)" xlink:href="#linear-gradient"/><clipPath id="clip-path-72"><rect class="cls-1" x="618.59" y="723.78" width="37.04" height="19.91" rx="5.67"/></clipPath><linearGradient id="linear-gradient-64" x1="-4171.06" y1="-32.23" x2="-4170.06" y2="-32.23" gradientTransform="translate(1278.68 -82295.92) rotate(-90) scale(19.91)" xlink:href="#linear-gradient"/><clipPath id="clip-path-73"><rect class="cls-1" x="626.45" y="757.42" width="22.78" height="27.78"/></clipPath><linearGradient id="linear-gradient-65" x1="-4171.06" y1="-32.23" x2="-4170.06" y2="-32.23" gradientTransform="translate(1533.19 -115102.35) rotate(-90) scale(27.78)" xlink:href="#linear-gradient"/><clipPath id="clip-path-74"><path class="cls-1" d="M637.11,766.68a13.43,13.43,0,1,0-12.94-13.42,13.19,13.19,0,0,0,12.94,13.42"/></clipPath><linearGradient id="linear-gradient-66" x1="-4171.06" y1="-32.23" x2="-4170.06" y2="-32.23" gradientTransform="translate(1502.01 -111179.12) rotate(-90) scale(26.84)" xlink:href="#linear-gradient"/><clipPath id="clip-path-75"><rect class="cls-1" x="677.06" y="723.78" width="37.05" height="19.91" rx="5.67"/></clipPath><linearGradient id="linear-gradient-67" x1="-4171.06" y1="-32.23" x2="-4170.06" y2="-32.23" gradientTransform="translate(1337.15 -82295.92) rotate(-90) scale(19.91)" xlink:href="#linear-gradient"/><clipPath id="clip-path-76"><rect class="cls-1" x="684.92" y="757.42" width="22.77" height="27.78"/></clipPath><linearGradient id="linear-gradient-68" x1="-4171.06" y1="-32.23" x2="-4170.06" y2="-32.23" gradientTransform="translate(1591.65 -115102.35) rotate(-90) scale(27.78)" xlink:href="#linear-gradient"/><clipPath id="clip-path-77"><path class="cls-1" d="M695.58,766.68a13.43,13.43,0,1,0-13-13.42,13.19,13.19,0,0,0,13,13.42"/></clipPath><linearGradient id="linear-gradient-69" x1="-4171.06" y1="-32.23" x2="-4170.06" y2="-32.23" gradientTransform="translate(1560.48 -111179.12) rotate(-90) scale(26.84)" xlink:href="#linear-gradient"/><clipPath id="clip-path-78"><rect class="cls-1" x="736.02" y="723.78" width="37.05" height="19.91" rx="5.67"/></clipPath><linearGradient id="linear-gradient-70" x1="-4171.06" y1="-32.23" x2="-4170.06" y2="-32.23" gradientTransform="translate(1396.11 -82295.92) rotate(-90) scale(19.91)" xlink:href="#linear-gradient"/><clipPath id="clip-path-79"><rect class="cls-1" x="743.88" y="757.42" width="22.78" height="27.78"/></clipPath><linearGradient id="linear-gradient-71" x1="-4171.06" y1="-32.23" x2="-4170.06" y2="-32.23" gradientTransform="translate(1650.62 -115102.35) rotate(-90) scale(27.78)" xlink:href="#linear-gradient"/><clipPath id="clip-path-80"><path class="cls-1" d="M754.55,766.68a13.43,13.43,0,1,0-12.95-13.42,13.19,13.19,0,0,0,12.95,13.42"/></clipPath><linearGradient id="linear-gradient-72" x1="-4171.06" y1="-32.23" x2="-4170.06" y2="-32.23" gradientTransform="translate(1619.45 -111179.12) rotate(-90) scale(26.84)" xlink:href="#linear-gradient"/><clipPath id="clip-path-82"><rect class="cls-1" x="618.59" y="674.21" width="37.04" height="19.91" rx="5.67"/></clipPath><linearGradient id="linear-gradient-73" x1="-4171.06" y1="-32.23" x2="-4170.06" y2="-32.23" gradientTransform="matrix(0, 19.91, 19.91, 0, 1278.68, 83713.82)" xlink:href="#linear-gradient"/><clipPath id="clip-path-83"><rect class="cls-1" x="626.45" y="632.7" width="22.78" height="27.78"/></clipPath><linearGradient id="linear-gradient-74" x1="-4171.06" y1="-32.23" x2="-4170.06" y2="-32.23" gradientTransform="matrix(0, 27.78, 27.78, 0, 1533.19, 116520.26)" xlink:href="#linear-gradient"/><clipPath id="clip-path-84"><path class="cls-1" d="M637.11,678.06a13.43,13.43,0,1,0-12.94-13.42,13.19,13.19,0,0,0,12.94,13.42"/></clipPath><linearGradient id="linear-gradient-75" x1="-4171.06" y1="-32.23" x2="-4170.06" y2="-32.23" gradientTransform="matrix(0, 26.84, 26.84, 0, 1502.01, 112597.02)" xlink:href="#linear-gradient"/><clipPath id="clip-path-85"><rect class="cls-1" x="677.06" y="674.21" width="37.05" height="19.91" rx="5.67"/></clipPath><linearGradient id="linear-gradient-76" x1="-4171.06" y1="-32.23" x2="-4170.06" y2="-32.23" gradientTransform="matrix(0, 19.91, 19.91, 0, 1337.15, 83713.82)" xlink:href="#linear-gradient"/><clipPath id="clip-path-86"><rect class="cls-1" x="684.92" y="632.7" width="22.77" height="27.78"/></clipPath><linearGradient id="linear-gradient-77" x1="-4171.06" y1="-32.23" x2="-4170.06" y2="-32.23" gradientTransform="matrix(0, 27.78, 27.78, 0, 1591.65, 116520.26)" xlink:href="#linear-gradient"/><clipPath id="clip-path-87"><path class="cls-1" d="M695.58,678.06a13.43,13.43,0,1,0-13-13.42,13.19,13.19,0,0,0,13,13.42"/></clipPath><linearGradient id="linear-gradient-78" x1="-4171.06" y1="-32.23" x2="-4170.06" y2="-32.23" gradientTransform="matrix(0, 26.84, 26.84, 0, 1560.48, 112597.02)" xlink:href="#linear-gradient"/><clipPath id="clip-path-88"><rect class="cls-1" x="736.02" y="674.21" width="37.05" height="19.91" rx="5.67"/></clipPath><linearGradient id="linear-gradient-79" x1="-4171.06" y1="-32.23" x2="-4170.06" y2="-32.23" gradientTransform="matrix(0, 19.91, 19.91, 0, 1396.11, 83713.82)" xlink:href="#linear-gradient"/><clipPath id="clip-path-89"><rect class="cls-1" x="743.88" y="632.7" width="22.78" height="27.78"/></clipPath><linearGradient id="linear-gradient-80" x1="-4171.06" y1="-32.23" x2="-4170.06" y2="-32.23" gradientTransform="matrix(0, 27.78, 27.78, 0, 1650.62, 116520.26)" xlink:href="#linear-gradient"/><clipPath id="clip-path-90"><path class="cls-1" d="M754.55,678.06a13.43,13.43,0,1,0-12.95-13.42,13.19,13.19,0,0,0,12.95,13.42"/></clipPath><linearGradient id="linear-gradient-81" x1="-4171.06" y1="-32.23" x2="-4170.06" y2="-32.23" gradientTransform="matrix(0, 26.84, 26.84, 0, 1619.45, 112597.02)" xlink:href="#linear-gradient"/><clipPath id="clip-path-91"><rect class="cls-1" x="618.59" y="477.46" width="37.04" height="19.9" rx="5.67"/></clipPath><linearGradient id="linear-gradient-82" x1="-4171.06" y1="-32.23" x2="-4170.06" y2="-32.23" gradientTransform="translate(1278.68 -82542.24) rotate(-90) scale(19.91)" xlink:href="#linear-gradient"/><clipPath id="clip-path-92"><rect class="cls-1" x="626.45" y="511.1" width="22.78" height="27.78"/></clipPath><linearGradient id="linear-gradient-83" x1="-4171.06" y1="-32.23" x2="-4170.06" y2="-32.23" gradientTransform="translate(1533.19 -115348.67) rotate(-90) scale(27.78)" xlink:href="#linear-gradient"/><clipPath id="clip-path-93"><path class="cls-1" d="M637.11,520.36A13.42,13.42,0,1,0,624.17,507a13.18,13.18,0,0,0,12.94,13.41"/></clipPath><linearGradient id="linear-gradient-84" x1="-4171.06" y1="-32.23" x2="-4170.06" y2="-32.23" gradientTransform="translate(1502.01 -111425.44) rotate(-90) scale(26.84)" xlink:href="#linear-gradient"/><clipPath id="clip-path-94"><rect class="cls-1" x="677.06" y="477.46" width="37.05" height="19.9" rx="5.67"/></clipPath><linearGradient id="linear-gradient-85" x1="-4171.06" y1="-32.23" x2="-4170.06" y2="-32.23" gradientTransform="translate(1337.15 -82542.24) rotate(-90) scale(19.91)" xlink:href="#linear-gradient"/><clipPath id="clip-path-95"><rect class="cls-1" x="684.92" y="511.1" width="22.77" height="27.78"/></clipPath><linearGradient id="linear-gradient-86" x1="-4171.06" y1="-32.23" x2="-4170.06" y2="-32.23" gradientTransform="translate(1591.65 -115348.67) rotate(-90) scale(27.78)" xlink:href="#linear-gradient"/><clipPath id="clip-path-96"><path class="cls-1" d="M695.58,520.36a13.42,13.42,0,1,0-13-13.41,13.18,13.18,0,0,0,13,13.41"/></clipPath><linearGradient id="linear-gradient-87" x1="-4171.06" y1="-32.23" x2="-4170.06" y2="-32.23" gradientTransform="translate(1560.48 -111425.44) rotate(-90) scale(26.84)" xlink:href="#linear-gradient"/><clipPath id="clip-path-97"><rect class="cls-1" x="736.02" y="477.46" width="37.05" height="19.9" rx="5.67"/></clipPath><linearGradient id="linear-gradient-88" x1="-4171.06" y1="-32.23" x2="-4170.06" y2="-32.23" gradientTransform="translate(1396.11 -82542.24) rotate(-90) scale(19.91)" xlink:href="#linear-gradient"/><clipPath id="clip-path-98"><rect class="cls-1" x="743.88" y="511.1" width="22.78" height="27.78"/></clipPath><linearGradient id="linear-gradient-89" x1="-4171.06" y1="-32.23" x2="-4170.06" y2="-32.23" gradientTransform="translate(1650.62 -115348.67) rotate(-90) scale(27.78)" xlink:href="#linear-gradient"/><clipPath id="clip-path-99"><path class="cls-1" d="M754.55,520.36A13.42,13.42,0,1,0,741.6,507a13.18,13.18,0,0,0,12.95,13.41"/></clipPath><linearGradient id="linear-gradient-90" x1="-4171.06" y1="-32.23" x2="-4170.06" y2="-32.23" gradientTransform="translate(1619.45 -111425.44) rotate(-90) scale(26.84)" xlink:href="#linear-gradient"/><clipPath id="clip-path-101"><rect class="cls-1" x="272.9" y="1582.77" width="155.55" height="155.55"/></clipPath><clipPath id="clip-path-103"><rect class="cls-1" x="949.61" y="1338.01" width="155.55" height="155.55"/></clipPath><clipPath id="clip-path-105"><rect class="cls-1" x="634.41" y="271.94" width="155.55" height="155.55"/></clipPath></defs><g id="RAK5804_Front" data-name="RAK5804 Front"><g class="cls-2"><g class="cls-2"><path class="cls-3" d="M265,1773.84h841.42a35.47,35.47,0,0,0,35.47-35.47v-1470a35.47,35.47,0,0,0-35.47-35.47H265a35.47,35.47,0,0,0-35.47,35.47v1470A35.47,35.47,0,0,0,265,1773.84m129.83-118.45a44.35,44.35,0,1,1-39.59-39.59,44.36,44.36,0,0,1,39.59,39.59m678.93-244a47.3,47.3,0,1,1-43.31-43.3,47.31,47.31,0,0,1,43.31,43.3M757.15,346.14a45,45,0,1,1-41.2-41.2,45,45,0,0,1,41.2,41.2"/></g><g class="cls-4"><rect class="cls-5" x="513.22" y="1218.85" width="47.68" height="25"/><rect class="cls-5" x="513.22" y="1258.96" width="47.68" height="25"/><rect class="cls-5" x="513.22" y="1299.07" width="47.68" height="25"/><rect class="cls-5" x="513.22" y="1339.18" width="47.68" height="25"/><rect class="cls-5" x="513.22" y="1379.29" width="47.68" height="25"/></g><g class="cls-6"><path class="cls-7" d="M400.82,1571.29H327.69a16.09,16.09,0,0,1-16-16V1063.75a16.09,16.09,0,0,1,16-16h73.13a16.09,16.09,0,0,1,16.05,16v491.49a16.09,16.09,0,0,1-16.05,16"/><path class="cls-8" d="M397,1559.88H334a16.09,16.09,0,0,1-16-16.05v-467.4a16.09,16.09,0,0,1,16-16h63a16.09,16.09,0,0,1,16.05,16v467.4A16.09,16.09,0,0,1,397,1559.88"/><path class="cls-8" d="M563.93,1160.85a34.23,34.23,0,1,1-34.23-34.23,34.24,34.24,0,0,1,34.23,34.23"/><path class="cls-7" d="M555,1160.2a26,26,0,1,1-26-26,26,26,0,0,1,26,26"/><path class="cls-8" d="M563.93,1459.41a34.23,34.23,0,1,1-34.23-34.23,34.24,34.24,0,0,1,34.23,34.23"/><path class="cls-7" d="M555,1458.75a26,26,0,1,1-26-26,26,26,0,0,1,26,26"/><polygon class="cls-9" points="217.83 1095.44 190.84 1080.04 191.74 1064.64 217.83 1079.39 217.83 1095.44"/><polygon class="cls-9" points="217.83 1521.41 190.84 1536.81 191.74 1552.21 217.83 1537.45 217.83 1521.41"/><path class="cls-9" d="M333.63,1509.17H192a16.09,16.09,0,0,1-16-16.05V1133.47a16.09,16.09,0,0,1,16-16H333.63a16.09,16.09,0,0,1,16.05,16v359.65a16.09,16.09,0,0,1-16.05,16.05"/><path class="cls-10" d="M507.32,1540.86H219.93a16.1,16.1,0,0,1-16.05-16V1095.44a16.09,16.09,0,0,1,16.05-16H507.32a16.08,16.08,0,0,1,16,16v429.37a16.09,16.09,0,0,1-16,16"/><path class="cls-11" d="M350.38,1180.82H282.1a5.35,5.35,0,0,1-5.32-5.33v-35a5.34,5.34,0,0,1,5.32-5.32h68.28a5.33,5.33,0,0,1,5.32,5.32v35a5.34,5.34,0,0,1-5.32,5.33"/><path class="cls-12" d="M298.08,1195.08H268.16a5.34,5.34,0,0,1-5.32-5.32v-57.82a5.34,5.34,0,0,1,5.32-5.32h29.92a5.35,5.35,0,0,1,5.33,5.32v57.82a5.35,5.35,0,0,1-5.33,5.32"/><path class="cls-11" d="M350.38,1482.23H282.1a5.35,5.35,0,0,1-5.32-5.33v-35a5.34,5.34,0,0,1,5.32-5.32h68.28a5.33,5.33,0,0,1,5.32,5.32v35a5.34,5.34,0,0,1-5.32,5.33"/><path class="cls-12" d="M298.08,1496.49H268.16a5.34,5.34,0,0,1-5.32-5.32v-57.82a5.33,5.33,0,0,1,5.32-5.32h29.92a5.34,5.34,0,0,1,5.33,5.32v57.82a5.35,5.35,0,0,1-5.33,5.32"/><rect class="cls-13" x="484.06" y="1135.18" width="39.3" height="130.58"/><path class="cls-13" d="M488.76,1227.09H455.91a6.72,6.72,0,0,1-6.71-6.71v-27.5a6.72,6.72,0,0,1,6.71-6.71h32.85a6.73,6.73,0,0,1,6.71,6.71v27.5a6.73,6.73,0,0,1-6.71,6.71"/><path class="cls-14" d="M478.66,1218.85H460.3a5.42,5.42,0,0,1-5.4-5.41v-10.11a5.42,5.42,0,0,1,5.4-5.4h18.36a5.42,5.42,0,0,1,5.4,5.4v10.11a5.42,5.42,0,0,1-5.4,5.41"/><path class="cls-15" d="M522.34,1191.28H497.76a2.3,2.3,0,0,1-2.29-2.3v-51.51a2.3,2.3,0,0,1,2.29-2.29h24.58a2.3,2.3,0,0,1,2.29,2.29V1189a2.3,2.3,0,0,1-2.29,2.3"/><path class="cls-14" d="M488.76,1271.46H476.2a6.73,6.73,0,0,1-6.72-6.71V1136.18a6.73,6.73,0,0,1,6.72-6.71h12.56a6.73,6.73,0,0,1,6.71,6.71v128.57a6.73,6.73,0,0,1-6.71,6.71"/><rect class="cls-14" x="492.93" y="1135.18" width="20.29" height="130.58"/><rect class="cls-13" x="484.06" y="1348.17" width="39.3" height="130.58"/><path class="cls-13" d="M488.76,1386.84H455.91a6.72,6.72,0,0,0-6.71,6.71v27.5a6.72,6.72,0,0,0,6.71,6.71h32.85a6.73,6.73,0,0,0,6.71-6.71v-27.5a6.73,6.73,0,0,0-6.71-6.71"/><path class="cls-14" d="M478.66,1395.08H460.3a5.42,5.42,0,0,0-5.4,5.41v10.11a5.42,5.42,0,0,0,5.4,5.4h18.36a5.42,5.42,0,0,0,5.4-5.4v-10.11a5.42,5.42,0,0,0-5.4-5.41"/><path class="cls-15" d="M522.34,1422.65H497.76a2.3,2.3,0,0,0-2.29,2.29v51.52a2.3,2.3,0,0,0,2.29,2.29h24.58a2.3,2.3,0,0,0,2.29-2.29v-51.52a2.3,2.3,0,0,0-2.29-2.29"/><path class="cls-14" d="M488.76,1342.47H476.2a6.73,6.73,0,0,0-6.72,6.71v128.57a6.73,6.73,0,0,0,6.72,6.71h12.56a6.73,6.73,0,0,0,6.71-6.71V1349.18a6.73,6.73,0,0,0-6.71-6.71"/><rect class="cls-14" x="492.93" y="1348.17" width="20.29" height="130.58"/></g><g class="cls-2"><path class="cls-16" d="M476.33,912.83v24.88a5.54,5.54,0,0,1-5.54,5.54H428.67a5.54,5.54,0,0,1-5.55-5.54V912.83a5.54,5.54,0,0,1,5.55-5.54h42.12a5.54,5.54,0,0,1,5.54,5.54"/><path class="cls-16" d="M476.33,849.78v24.87a5.55,5.55,0,0,1-5.54,5.55H428.67a5.55,5.55,0,0,1-5.55-5.55V849.78a5.54,5.54,0,0,1,5.55-5.55h42.12a5.54,5.54,0,0,1,5.54,5.55"/><path class="cls-16" d="M476.33,786.72V811.6a5.54,5.54,0,0,1-5.54,5.54H428.67a5.54,5.54,0,0,1-5.55-5.54V786.72a5.55,5.55,0,0,1,5.55-5.55h42.12a5.55,5.55,0,0,1,5.54,5.55"/><path class="cls-16" d="M476.33,723.66v24.88a5.54,5.54,0,0,1-5.54,5.54H428.67a5.54,5.54,0,0,1-5.55-5.54V723.66a5.54,5.54,0,0,1,5.55-5.54h42.12a5.54,5.54,0,0,1,5.54,5.54"/><path class="cls-16" d="M476.33,660.6v24.88a5.54,5.54,0,0,1-5.54,5.54H428.67a5.54,5.54,0,0,1-5.55-5.54V660.6a5.54,5.54,0,0,1,5.55-5.54h42.12a5.54,5.54,0,0,1,5.54,5.54"/><path class="cls-16" d="M476.33,597.55v24.87a5.55,5.55,0,0,1-5.54,5.55H428.67a5.55,5.55,0,0,1-5.55-5.55V597.55a5.54,5.54,0,0,1,5.55-5.55h42.12a5.54,5.54,0,0,1,5.54,5.55"/><path class="cls-16" d="M476.33,534.49v24.88a5.54,5.54,0,0,1-5.54,5.54H428.67a5.54,5.54,0,0,1-5.55-5.54V534.49a5.54,5.54,0,0,1,5.55-5.54h42.12a5.54,5.54,0,0,1,5.54,5.54"/><path class="cls-16" d="M476.33,471.43v24.88a5.54,5.54,0,0,1-5.54,5.54H428.67a5.54,5.54,0,0,1-5.55-5.54V471.43a5.54,5.54,0,0,1,5.55-5.54h42.12a5.54,5.54,0,0,1,5.54,5.54"/><path class="cls-16" d="M476.33,408.37v24.88a5.54,5.54,0,0,1-5.54,5.54H428.67a5.54,5.54,0,0,1-5.55-5.54V408.37a5.54,5.54,0,0,1,5.55-5.54h42.12a5.54,5.54,0,0,1,5.54,5.54"/><path class="cls-16" d="M476.33,345.31v24.88a5.55,5.55,0,0,1-5.54,5.55H428.67a5.55,5.55,0,0,1-5.55-5.55V345.31a5.54,5.54,0,0,1,5.55-5.54h42.12a5.54,5.54,0,0,1,5.54,5.54"/><path class="cls-17" d="M234.44,241.08v774.76a4.27,4.27,0,0,0,4.27,4.26h169.8a4.27,4.27,0,0,0,4.27-4.26v-20a21.35,21.35,0,0,1,21.35-21.35,4.27,4.27,0,0,0,4.27-4.27V287.72a4.27,4.27,0,0,0-4.27-4.27,21.35,21.35,0,0,1-21.35-21.35v-21a4.27,4.27,0,0,0-4.27-4.27H238.71a4.27,4.27,0,0,0-4.27,4.27"/><path class="cls-18" d="M287,299.87h-7.55V962h8.83a8.74,8.74,0,0,1,8.74,8.75v9.73h50v-9.73a8.75,8.75,0,0,1,8.75-8.75h53.08V299.87H350.38a7.56,7.56,0,0,1-7.56-7.55V278.85H294.55v13.47a7.56,7.56,0,0,1-7.56,7.55"/><rect class="cls-19" x="299.47" y="906.55" width="21.18" height="14.04"/><rect class="cls-19" x="299.47" y="844.48" width="21.18" height="14.04"/><rect class="cls-19" x="299.47" y="782.41" width="21.18" height="14.04"/><rect class="cls-19" x="299.47" y="720.33" width="21.18" height="14.04"/><rect class="cls-19" x="299.47" y="658.26" width="21.18" height="14.04"/><rect class="cls-19" x="299.47" y="596.19" width="21.18" height="14.04"/><rect class="cls-19" x="299.47" y="534.12" width="21.18" height="14.04"/><rect class="cls-19" x="299.47" y="472.05" width="21.18" height="14.04"/><rect class="cls-19" x="299.47" y="409.97" width="21.18" height="14.04"/><rect class="cls-19" x="299.47" y="347.9" width="21.18" height="14.04"/><rect class="cls-20" x="366.96" y="844.48" width="21.18" height="14.04"/><rect class="cls-20" x="366.96" y="782.41" width="21.18" height="14.04"/><rect class="cls-20" x="366.96" y="720.33" width="21.18" height="14.04"/><rect class="cls-20" x="366.96" y="658.26" width="21.18" height="14.04"/><rect class="cls-20" x="366.96" y="596.19" width="21.18" height="14.04"/><rect class="cls-20" x="366.96" y="534.12" width="21.18" height="14.04"/><rect class="cls-20" x="366.96" y="472.05" width="21.18" height="14.04"/><rect class="cls-20" x="366.96" y="409.97" width="21.18" height="14.04"/><rect class="cls-20" x="366.96" y="347.9" width="21.18" height="14.04"/><path class="cls-16" d="M911.49,359.85V335a5.54,5.54,0,0,1,5.54-5.54h42.12a5.54,5.54,0,0,1,5.54,5.54v24.88a5.54,5.54,0,0,1-5.54,5.54H917a5.54,5.54,0,0,1-5.54-5.54"/><path class="cls-16" d="M911.49,422.91V398a5.55,5.55,0,0,1,5.54-5.55h42.12a5.55,5.55,0,0,1,5.54,5.55v24.88a5.54,5.54,0,0,1-5.54,5.54H917a5.54,5.54,0,0,1-5.54-5.54"/><path class="cls-16" d="M911.49,486V461.08a5.55,5.55,0,0,1,5.54-5.54h42.12a5.55,5.55,0,0,1,5.54,5.54V486a5.55,5.55,0,0,1-5.54,5.55H917a5.55,5.55,0,0,1-5.54-5.55"/><path class="cls-16" d="M911.49,549V524.14A5.54,5.54,0,0,1,917,518.6h42.12a5.54,5.54,0,0,1,5.54,5.54V549a5.54,5.54,0,0,1-5.54,5.54H917a5.54,5.54,0,0,1-5.54-5.54"/><path class="cls-16" d="M911.49,612.08V587.2a5.54,5.54,0,0,1,5.54-5.54h42.12a5.54,5.54,0,0,1,5.54,5.54v24.88a5.54,5.54,0,0,1-5.54,5.54H917a5.54,5.54,0,0,1-5.54-5.54"/><path class="cls-16" d="M911.49,675.14V650.26a5.54,5.54,0,0,1,5.54-5.54h42.12a5.54,5.54,0,0,1,5.54,5.54v24.88a5.54,5.54,0,0,1-5.54,5.54H917a5.54,5.54,0,0,1-5.54-5.54"/><path class="cls-16" d="M911.49,738.19V713.31a5.55,5.55,0,0,1,5.54-5.54h42.12a5.55,5.55,0,0,1,5.54,5.54v24.88a5.54,5.54,0,0,1-5.54,5.54H917a5.54,5.54,0,0,1-5.54-5.54"/><path class="cls-16" d="M911.49,801.25V776.37a5.54,5.54,0,0,1,5.54-5.54h42.12a5.54,5.54,0,0,1,5.54,5.54v24.88a5.54,5.54,0,0,1-5.54,5.54H917a5.54,5.54,0,0,1-5.54-5.54"/><path class="cls-16" d="M911.49,864.31V839.43a5.54,5.54,0,0,1,5.54-5.54h42.12a5.54,5.54,0,0,1,5.54,5.54v24.88a5.54,5.54,0,0,1-5.54,5.54H917a5.54,5.54,0,0,1-5.54-5.54"/><path class="cls-16" d="M911.49,927.37V902.49a5.55,5.55,0,0,1,5.54-5.55h42.12a5.55,5.55,0,0,1,5.54,5.55v24.88a5.54,5.54,0,0,1-5.54,5.54H917a5.54,5.54,0,0,1-5.54-5.54"/><path class="cls-17" d="M1153.37,1031.6V256.85a4.27,4.27,0,0,0-4.26-4.27H979.31a4.27,4.27,0,0,0-4.27,4.27v20a21.35,21.35,0,0,1-21.35,21.35,4.27,4.27,0,0,0-4.27,4.27V985a4.27,4.27,0,0,0,4.27,4.27A21.35,21.35,0,0,1,975,1010.58v21a4.27,4.27,0,0,0,4.27,4.27h169.8a4.27,4.27,0,0,0,4.26-4.27"/><path class="cls-18" d="M1100.83,972.81h7.55V310.71h-8.83a8.74,8.74,0,0,1-8.74-8.75v-9.73h-50V302a8.75,8.75,0,0,1-8.75,8.75H979v662.1h58.46a7.55,7.55,0,0,1,7.55,7.55v13.47h48.28V980.36a7.56,7.56,0,0,1,7.56-7.55"/><rect class="cls-19" x="1067.16" y="352.09" width="21.18" height="14.04"/><rect class="cls-19" x="1067.16" y="414.16" width="21.18" height="14.04"/><rect class="cls-19" x="1067.16" y="476.23" width="21.18" height="14.04"/><rect class="cls-19" x="1067.16" y="538.31" width="21.18" height="14.04"/><rect class="cls-19" x="1067.16" y="600.38" width="21.18" height="14.04"/><rect class="cls-19" x="1067.16" y="662.45" width="21.18" height="14.04"/><rect class="cls-19" x="1067.16" y="724.52" width="21.18" height="14.04"/><rect class="cls-19" x="1067.16" y="786.59" width="21.18" height="14.04"/><rect class="cls-19" x="1067.16" y="848.67" width="21.18" height="14.04"/><rect class="cls-19" x="1067.16" y="910.74" width="21.18" height="14.04"/><rect class="cls-20" x="999.67" y="414.16" width="21.18" height="14.04"/><rect class="cls-20" x="999.67" y="476.23" width="21.18" height="14.04"/><rect class="cls-20" x="999.67" y="538.31" width="21.18" height="14.04"/><rect class="cls-20" x="999.67" y="600.38" width="21.18" height="14.04"/><rect class="cls-20" x="999.67" y="662.45" width="21.18" height="14.04"/><rect class="cls-20" x="999.67" y="724.52" width="21.18" height="14.04"/><rect class="cls-20" x="999.67" y="786.59" width="21.18" height="14.04"/><rect class="cls-20" x="999.67" y="848.67" width="21.18" height="14.04"/><rect class="cls-20" x="999.67" y="910.74" width="21.18" height="14.04"/></g><g class="cls-21"><rect class="cls-22" x="623.52" y="1517.61" width="37.04" height="19.91"/></g><g class="cls-23"><rect class="cls-24" x="631.38" y="1476.09" width="22.77" height="27.78"/></g><g class="cls-25"><rect class="cls-26" x="629.09" y="1494.61" width="25.89" height="26.84"/></g><g class="cls-27"><rect class="cls-28" x="681.98" y="1517.61" width="37.05" height="19.91"/></g><g class="cls-29"><rect class="cls-30" x="689.84" y="1476.09" width="22.77" height="27.78"/></g><g class="cls-31"><rect class="cls-32" x="687.56" y="1494.61" width="25.89" height="26.84"/></g><g class="cls-33"><rect class="cls-34" x="740.95" y="1517.61" width="37.04" height="19.91"/></g><g class="cls-35"><rect class="cls-36" x="748.81" y="1476.09" width="22.78" height="27.78"/></g><g class="cls-37"><rect class="cls-38" x="746.53" y="1494.61" width="25.89" height="26.84"/></g><g class="cls-39"><rect class="cls-40" x="623.52" y="1320.85" width="37.04" height="19.91"/></g><g class="cls-41"><rect class="cls-42" x="631.38" y="1354.5" width="22.77" height="27.78"/></g><g class="cls-43"><rect class="cls-44" x="629.09" y="1336.92" width="25.89" height="26.84"/></g><g class="cls-45"><rect class="cls-46" x="681.98" y="1320.85" width="37.05" height="19.91"/></g><g class="cls-47"><rect class="cls-48" x="689.84" y="1354.5" width="22.77" height="27.78"/></g><g class="cls-49"><rect class="cls-50" x="687.56" y="1336.92" width="25.89" height="26.84"/></g><g class="cls-51"><rect class="cls-52" x="740.95" y="1320.85" width="37.04" height="19.91"/></g><g class="cls-53"><rect class="cls-54" x="748.81" y="1354.5" width="22.78" height="27.78"/></g><g class="cls-55"><rect class="cls-56" x="746.53" y="1336.92" width="25.89" height="26.84"/></g><g class="cls-2"><path class="cls-57" d="M783.24,1387.45v83.66a4.91,4.91,0,0,1-4.91,4.92H620.82a4.91,4.91,0,0,1-4.91-4.92v-83.66a4.91,4.91,0,0,1,4.91-4.92H778.33a4.91,4.91,0,0,1,4.91,4.92"/></g><g class="cls-58"><rect class="cls-59" x="603.81" y="1263.41" width="37.04" height="19.91"/></g><g class="cls-60"><rect class="cls-61" x="611.67" y="1221.89" width="22.77" height="27.78"/></g><g class="cls-62"><rect class="cls-63" x="609.39" y="1240.41" width="25.89" height="26.84"/></g><g class="cls-64"><rect class="cls-65" x="662.28" y="1263.41" width="37.04" height="19.91"/></g><g class="cls-66"><rect class="cls-67" x="670.14" y="1221.89" width="22.77" height="27.78"/></g><g class="cls-68"><rect class="cls-69" x="667.85" y="1240.41" width="25.89" height="26.84"/></g><g class="cls-70"><rect class="cls-71" x="721.25" y="1263.41" width="37.04" height="19.91"/></g><g class="cls-72"><rect class="cls-73" x="729.11" y="1221.89" width="22.77" height="27.78"/></g><g class="cls-74"><rect class="cls-75" x="726.82" y="1240.41" width="25.89" height="26.84"/></g><g class="cls-76"><rect class="cls-77" x="603.81" y="1066.65" width="37.04" height="19.91"/></g><g class="cls-78"><rect class="cls-79" x="611.67" y="1100.3" width="22.77" height="27.78"/></g><g class="cls-80"><rect class="cls-81" x="609.39" y="1082.72" width="25.89" height="26.84"/></g><g class="cls-82"><rect class="cls-83" x="662.28" y="1066.65" width="37.04" height="19.91"/></g><g class="cls-84"><rect class="cls-85" x="670.14" y="1100.3" width="22.77" height="27.78"/></g><g class="cls-86"><rect class="cls-87" x="667.85" y="1082.72" width="25.89" height="26.84"/></g><g class="cls-88"><rect class="cls-89" x="721.25" y="1066.65" width="37.04" height="19.91"/></g><g class="cls-90"><rect class="cls-91" x="729.11" y="1100.3" width="22.77" height="27.78"/></g><g class="cls-92"><rect class="cls-93" x="726.82" y="1082.72" width="25.89" height="26.84"/></g><g class="cls-2"><path class="cls-57" d="M763.54,1133.25v83.66a4.92,4.92,0,0,1-4.92,4.92H601.12a4.92,4.92,0,0,1-4.92-4.92v-83.66a4.92,4.92,0,0,1,4.92-4.92h157.5a4.92,4.92,0,0,1,4.92,4.92"/></g><g class="cls-94"><rect class="cls-95" x="810.72" y="1263.41" width="37.04" height="19.91"/></g><g class="cls-96"><rect class="cls-97" x="818.58" y="1221.89" width="22.78" height="27.78"/></g><g class="cls-98"><rect class="cls-99" x="816.29" y="1240.41" width="25.89" height="26.84"/></g><g class="cls-100"><rect class="cls-101" x="869.18" y="1263.41" width="37.05" height="19.91"/></g><g class="cls-102"><rect class="cls-103" x="877.04" y="1221.89" width="22.77" height="27.78"/></g><g class="cls-104"><rect class="cls-105" x="874.76" y="1240.41" width="25.89" height="26.84"/></g><g class="cls-106"><rect class="cls-107" x="928.15" y="1263.41" width="37.04" height="19.91"/></g><g class="cls-108"><rect class="cls-109" x="936.01" y="1221.89" width="22.78" height="27.78"/></g><g class="cls-110"><rect class="cls-111" x="933.73" y="1240.41" width="25.89" height="26.84"/></g><g class="cls-112"><rect class="cls-113" x="810.72" y="1066.65" width="37.04" height="19.91"/></g><g class="cls-114"><rect class="cls-115" x="818.58" y="1100.3" width="22.78" height="27.78"/></g><g class="cls-116"><rect class="cls-117" x="816.29" y="1082.72" width="25.89" height="26.84"/></g><g class="cls-118"><rect class="cls-119" x="869.18" y="1066.65" width="37.05" height="19.91"/></g><g class="cls-120"><rect class="cls-121" x="877.04" y="1100.3" width="22.77" height="27.78"/></g><g class="cls-122"><rect class="cls-123" x="874.76" y="1082.72" width="25.89" height="26.84"/></g><g class="cls-124"><rect class="cls-125" x="928.15" y="1066.65" width="37.04" height="19.91"/></g><g class="cls-126"><rect class="cls-127" x="936.01" y="1100.3" width="22.78" height="27.78"/></g><g class="cls-128"><rect class="cls-129" x="933.73" y="1082.72" width="25.89" height="26.84"/></g><g class="cls-2"><path class="cls-57" d="M970.44,1133.25v83.66a4.91,4.91,0,0,1-4.91,4.92H808a4.92,4.92,0,0,1-4.92-4.92v-83.66a4.92,4.92,0,0,1,4.92-4.92h157.5a4.91,4.91,0,0,1,4.91,4.92"/></g><g class="cls-130"><rect class="cls-131" x="618.59" y="920.53" width="37.04" height="19.91"/></g><g class="cls-132"><rect class="cls-133" x="626.45" y="879.01" width="22.78" height="27.78"/></g><g class="cls-134"><rect class="cls-135" x="624.17" y="897.54" width="25.89" height="26.84"/></g><g class="cls-136"><rect class="cls-137" x="677.06" y="920.53" width="37.05" height="19.91"/></g><g class="cls-138"><rect class="cls-139" x="684.92" y="879.01" width="22.77" height="27.78"/></g><g class="cls-140"><rect class="cls-141" x="682.63" y="897.54" width="25.89" height="26.84"/></g><g class="cls-142"><rect class="cls-143" x="736.02" y="920.53" width="37.05" height="19.91"/></g><g class="cls-144"><rect class="cls-145" x="743.88" y="879.01" width="22.78" height="27.78"/></g><g class="cls-146"><rect class="cls-147" x="741.6" y="897.54" width="25.89" height="26.84"/></g><g class="cls-148"><rect class="cls-149" x="618.59" y="723.78" width="37.04" height="19.91"/></g><g class="cls-150"><rect class="cls-151" x="626.45" y="757.42" width="22.78" height="27.78"/></g><g class="cls-152"><rect class="cls-153" x="624.17" y="739.84" width="25.89" height="26.84"/></g><g class="cls-154"><rect class="cls-155" x="677.06" y="723.78" width="37.05" height="19.91"/></g><g class="cls-156"><rect class="cls-157" x="684.92" y="757.42" width="22.77" height="27.78"/></g><g class="cls-158"><rect class="cls-159" x="682.63" y="739.84" width="25.89" height="26.84"/></g><g class="cls-160"><rect class="cls-161" x="736.02" y="723.78" width="37.05" height="19.91"/></g><g class="cls-162"><rect class="cls-163" x="743.88" y="757.42" width="22.78" height="27.78"/></g><g class="cls-164"><rect class="cls-165" x="741.6" y="739.84" width="25.89" height="26.84"/></g><g class="cls-2"><path class="cls-57" d="M778.31,790.37V874A4.91,4.91,0,0,1,773.4,879H615.9A4.91,4.91,0,0,1,611,874V790.37a4.91,4.91,0,0,1,4.92-4.91H773.4a4.91,4.91,0,0,1,4.91,4.91"/></g><g class="cls-166"><rect class="cls-167" x="618.59" y="674.21" width="37.04" height="19.91"/></g><g class="cls-168"><rect class="cls-169" x="626.45" y="632.7" width="22.78" height="27.78"/></g><g class="cls-170"><rect class="cls-171" x="624.17" y="651.22" width="25.89" height="26.84"/></g><g class="cls-172"><rect class="cls-173" x="677.06" y="674.21" width="37.05" height="19.91"/></g><g class="cls-174"><rect class="cls-175" x="684.92" y="632.7" width="22.77" height="27.78"/></g><g class="cls-176"><rect class="cls-177" x="682.63" y="651.22" width="25.89" height="26.84"/></g><g class="cls-178"><rect class="cls-179" x="736.02" y="674.21" width="37.05" height="19.91"/></g><g class="cls-180"><rect class="cls-181" x="743.88" y="632.7" width="22.78" height="27.78"/></g><g class="cls-182"><rect class="cls-183" x="741.6" y="651.22" width="25.89" height="26.84"/></g><g class="cls-184"><rect class="cls-185" x="618.59" y="477.46" width="37.04" height="19.9"/></g><g class="cls-186"><rect class="cls-187" x="626.45" y="511.1" width="22.78" height="27.78"/></g><g class="cls-188"><rect class="cls-189" x="624.17" y="493.53" width="25.89" height="26.84"/></g><g class="cls-190"><rect class="cls-191" x="677.06" y="477.46" width="37.05" height="19.9"/></g><g class="cls-192"><rect class="cls-193" x="684.92" y="511.1" width="22.77" height="27.78"/></g><g class="cls-194"><rect class="cls-195" x="682.63" y="493.53" width="25.89" height="26.84"/></g><g class="cls-196"><rect class="cls-197" x="736.02" y="477.46" width="37.05" height="19.9"/></g><g class="cls-198"><rect class="cls-199" x="743.88" y="511.1" width="22.78" height="27.78"/></g><g class="cls-200"><rect class="cls-201" x="741.6" y="493.53" width="25.89" height="26.84"/></g><g class="cls-2"><path class="cls-57" d="M778.31,544.05v83.67a4.91,4.91,0,0,1-4.91,4.91H615.9a4.91,4.91,0,0,1-4.92-4.91V544.05a4.91,4.91,0,0,1,4.92-4.91H773.4a4.91,4.91,0,0,1,4.91,4.91"/></g><g class="cls-202"><path class="cls-203" d="M272.9,1660.54a77.77,77.77,0,1,0,77.77-77.77,77.77,77.77,0,0,0-77.77,77.77m125.06,0a47.29,47.29,0,1,1-47.29-47.29A47.29,47.29,0,0,1,398,1660.54"/></g><g class="cls-2"><path class="cls-204" d="M351.2,1568.33a93.11,93.11,0,1,1-93.11,93.1A93.11,93.11,0,0,1,351.2,1568.33Z"/></g><g class="cls-205"><path class="cls-203" d="M949.61,1415.78a77.78,77.78,0,1,0,77.78-77.77,77.77,77.77,0,0,0-77.78,77.77m125.07,0a47.29,47.29,0,1,1-47.29-47.29,47.29,47.29,0,0,1,47.29,47.29"/></g><g class="cls-2"><path class="cls-204" d="M1027.92,1325.5a93.11,93.11,0,1,1-93.11,93.11A93.11,93.11,0,0,1,1027.92,1325.5Z"/></g><g class="cls-206"><path class="cls-203" d="M634.41,349.72A77.77,77.77,0,1,0,712.18,272a77.77,77.77,0,0,0-77.77,77.77m125.06,0a47.29,47.29,0,1,1-47.29-47.29,47.29,47.29,0,0,1,47.29,47.29"/></g><g class="cls-2"><path class="cls-204" d="M712.71,257.5a93.11,93.11,0,1,1-93.11,93.11A93.11,93.11,0,0,1,712.71,257.5Z"/><path class="cls-207" d="M527.23,267.52a31,31,0,1,1-31,31,31,31,0,0,1,31-31"/><path class="cls-207" d="M1053.37,1239a31,31,0,1,1-31,31,31,31,0,0,1,31-31"/><path class="cls-207" d="M730.2,1567.1a31,31,0,1,1-31,31,31,31,0,0,1,31-31"/><path class="cls-16" d="M898.56,1592.28h28c1.91,0,3.47,2,3.47,4.36v24.67c0,2.4-1.56,4.36-3.47,4.36h-28c-1.91,0-3.48-2-3.48-4.36v-24.67c0-2.4,1.57-4.36,3.48-4.36"/><path class="cls-16" d="M898.56,1540.33h28c1.91,0,3.47,2,3.47,4.36v24.67c0,2.4-1.56,4.36-3.47,4.36h-28c-1.91,0-3.48-2-3.48-4.36v-24.67c0-2.4,1.57-4.36,3.48-4.36"/><path class="cls-208" d="M898,1613.61v-59.29c0-4.72,3.08-8.45,6.75-8.45h15.57c3.76,0,6.74,3.86,6.74,8.45v59.29c0,4.73-3.08,8.45-6.74,8.45H904.76c-3.77.12-6.75-3.72-6.75-8.45"/><rect class="cls-209" x="897.99" y="1566.57" width="29.15" height="34.92"/><path class="cls-16" d="M872.57,1602.07v15.11a8.54,8.54,0,0,1-8.54,8.54h-15.1a8.54,8.54,0,0,1-8.54-8.54v-15.11a8.54,8.54,0,0,1,8.54-8.54H864a8.54,8.54,0,0,1,8.54,8.54"/><path class="cls-16" d="M872.57,1547.22v15.11a8.54,8.54,0,0,1-8.54,8.54h-15.1a8.54,8.54,0,0,1-8.54-8.54v-15.11a8.53,8.53,0,0,1,8.54-8.53H864a8.53,8.53,0,0,1,8.54,8.53"/><path class="cls-16" d="M979.64,1602.07v15.11a8.54,8.54,0,0,1-8.54,8.54H956a8.54,8.54,0,0,1-8.54-8.54v-15.11a8.55,8.55,0,0,1,8.54-8.54H971.1a8.54,8.54,0,0,1,8.54,8.54"/><path class="cls-16" d="M979.64,1547.22v15.11a8.54,8.54,0,0,1-8.54,8.54H956a8.54,8.54,0,0,1-8.54-8.54v-15.11a8.54,8.54,0,0,1,8.54-8.53H971.1a8.53,8.53,0,0,1,8.54,8.53"/><path class="cls-16" d="M1089,1679.25v15.11a8.54,8.54,0,0,1-8.54,8.54h-15.1a8.54,8.54,0,0,1-8.54-8.54v-15.11a8.54,8.54,0,0,1,8.54-8.54h15.1a8.54,8.54,0,0,1,8.54,8.54"/><path class="cls-16" d="M1089,1624.4v15.11a8.54,8.54,0,0,1-8.54,8.54h-15.1a8.54,8.54,0,0,1-8.54-8.54V1624.4a8.53,8.53,0,0,1,8.54-8.53h15.1a8.53,8.53,0,0,1,8.54,8.53"/><path class="cls-210" d="M750.56,1001.38a25.13,25.13,0,1,1-25.12,25.13,25.13,25.13,0,0,1,25.12-25.13"/><path class="cls-210" d="M815.59,1305.5a25.13,25.13,0,1,1-25.12,25.13,25.12,25.12,0,0,1,25.12-25.13"/><path class="cls-210" d="M624,943.25a25.13,25.13,0,1,1-25.13,25.13A25.13,25.13,0,0,1,624,943.25"/><path class="cls-210" d="M471.73,946.7a25.13,25.13,0,1,1-25.12,25.13,25.12,25.12,0,0,1,25.12-25.13"/><path class="cls-210" d="M589,666.88A25.13,25.13,0,1,1,563.85,692,25.13,25.13,0,0,1,589,666.88"/><path class="cls-210" d="M858.94,343.22a25.13,25.13,0,1,1-25.12,25.13,25.13,25.13,0,0,1,25.12-25.13"/><rect class="cls-211" x="830.04" y="1517.17" width="162.08" height="119.71"/><rect class="cls-211" x="1046.97" y="1594.19" width="61.74" height="119.22"/><line class="cls-212" x1="595.55" y1="883.89" x2="595.55" y2="765.91"/><line class="cls-212" x1="786.2" y1="883.15" x2="786.2" y2="765.9"/><line class="cls-212" x1="788.17" y1="641.27" x2="788.17" y2="522.54"/><line class="cls-212" x1="593.41" y1="641.1" x2="593.41" y2="522.05"/><line class="cls-212" x1="580.6" y1="1227.01" x2="580.6" y2="1110.09"/><line class="cls-212" x1="780.29" y1="1222.41" x2="780.29" y2="1110.09"/><line class="cls-212" x1="788.82" y1="1223.73" x2="788.82" y2="1108.12"/><line class="cls-212" x1="986.7" y1="1225.29" x2="986.7" y2="1184.15"/><line class="cls-212" x1="989.16" y1="1156.32" x2="989.16" y2="1111"/><line class="cls-212" x1="799.5" y1="1478.83" x2="799.5" y2="1437.7"/><line class="cls-212" x1="801.96" y1="1409.86" x2="801.96" y2="1364.54"/><polyline class="cls-212" points="1135.48 1089.07 991.63 1089.07 991.63 1042.77"/><line class="cls-212" x1="604.91" y1="1477.27" x2="604.91" y2="1360.68"/></g><path class="cls-213" d="M756.77,1432.77a6.38,6.38,0,0,0-.95,0h-.9c-3.62,0-6.78,2-6.78,5.82s2.71,5.72,6.32,5.72c4.62,0,6.73-3.56,6.73-7.73h4.26c-.25,6.78-3.86,11.49-11,11.49-6.17,0-10.83-3-10.83-9.53a8,8,0,0,1,4.91-7.08v-.1c-4.36-1-6.42-4.36-6.42-8.63,0-7.07,5.57-10.83,12.24-10.83,7.23,0,12,4.21,11.85,11.59h-4.27c-.15-4.62-2.71-7.83-7.58-7.83-4.16,0-7.72,2.61-7.72,6.87,0,4.47,3.36,6.83,7.57,6.83a20.63,20.63,0,0,0,2.56-.15Z"/><path class="cls-213" d="M725.07,1421c-.35-3.46-3.11-5.42-6.52-5.42-5.22,0-7.78,4.52-8,13.75l.1.1a9.31,9.31,0,0,1,8.23-4.92c7.27,0,11.23,4.87,11.23,11.89,0,6.82-4.81,11.59-11.68,11.59-6.63,0-12.2-3.56-12.2-17,0-12.29,3.72-19.16,12.35-19.16,6,0,10.23,3.06,10.78,9.18Zm-6.47,23.23c5.06,0,7-4.07,7-8.43,0-3.86-2.91-7.53-7-7.53-4.47,0-7.28,3.62-7.28,7.83C711.27,1440.5,713.83,1444.26,718.6,1444.26Z"/><path class="cls-213" d="M689.15,1421c-.35-3.46-3.11-5.42-6.52-5.42-5.22,0-7.78,4.52-8,13.75l.1.1a9.31,9.31,0,0,1,8.23-4.92c7.27,0,11.23,4.87,11.23,11.89,0,6.82-4.81,11.59-11.68,11.59-6.63,0-12.2-3.56-12.2-17,0-12.29,3.72-19.16,12.35-19.16,6,0,10.23,3.06,10.78,9.18Zm-6.47,23.23c5.06,0,7-4.07,7-8.43,0-3.86-2.91-7.53-7-7.53-4.47,0-7.28,3.62-7.28,7.83C675.35,1440.5,677.91,1444.26,682.68,1444.26Z"/><path class="cls-213" d="M734.62,1177.66a6.71,6.71,0,0,0-.87,0h-.84c-3.33,0-6.25,1.85-6.25,5.37s2.5,5.28,5.84,5.28c4.25,0,6.2-3.29,6.2-7.13h3.94c-.23,6.25-3.57,10.6-10.14,10.6-5.7,0-10-2.73-10-8.8a7.39,7.39,0,0,1,4.54-6.53v-.09c-4-.88-5.93-4-5.93-8,0-6.53,5.14-10,11.3-10,6.67,0,11.07,3.89,10.93,10.7h-3.94c-.13-4.26-2.5-7.23-7-7.23-3.84,0-7.13,2.41-7.13,6.35,0,4.12,3.1,6.3,7,6.3a19.46,19.46,0,0,0,2.36-.14Z"/><path class="cls-213" d="M705.4,1166.83c-.32-3.2-2.87-5-6-5-4.81,0-7.17,4.17-7.41,12.69l.1.1a8.6,8.6,0,0,1,7.59-4.54c6.72,0,10.38,4.49,10.38,11,0,6.3-4.45,10.7-10.79,10.7-6.12,0-11.26-3.29-11.26-15.7,0-11.34,3.43-17.69,11.39-17.69,5.52,0,9.45,2.83,10,8.48Zm-6,21.44c4.68,0,6.44-3.75,6.44-7.78,0-3.57-2.69-7-6.49-7-4.12,0-6.71,3.34-6.71,7.23S695,1188.27,699.43,1188.27Z"/><path class="cls-213" d="M672.29,1166.83c-.32-3.2-2.87-5-6-5-4.82,0-7.18,4.17-7.41,12.69l.09.1a8.6,8.6,0,0,1,7.59-4.54c6.72,0,10.38,4.49,10.38,11,0,6.3-4.45,10.7-10.79,10.7-6.12,0-11.26-3.29-11.26-15.7,0-11.34,3.43-17.69,11.4-17.69,5.51,0,9.44,2.83,10,8.48Zm-6,21.44c4.68,0,6.44-3.75,6.44-7.78,0-3.57-2.69-7-6.48-7-4.13,0-6.72,3.34-6.72,7.23S661.92,1188.27,666.32,1188.27Z"/><path class="cls-213" d="M935.69,1179.61a5.44,5.44,0,0,0-.88,0H934c-3.34,0-6.26,1.85-6.26,5.37s2.51,5.28,5.84,5.28c4.26,0,6.21-3.29,6.21-7.13h3.93c-.23,6.25-3.56,10.61-10.14,10.61-5.7,0-10-2.74-10-8.8a7.37,7.37,0,0,1,4.54-6.53v-.1c-4-.88-5.93-4-5.93-8,0-6.53,5.14-10,11.3-10,6.67,0,11.07,3.89,10.93,10.69h-3.94c-.14-4.26-2.5-7.22-7-7.22-3.85,0-7.13,2.41-7.13,6.34,0,4.13,3.1,6.3,7,6.3a17.72,17.72,0,0,0,2.36-.14Z"/><path class="cls-213" d="M906.42,1168.77c-.32-3.2-2.87-5-6-5-4.81,0-7.17,4.17-7.41,12.69l.1.09a8.6,8.6,0,0,1,7.59-4.54c6.72,0,10.38,4.49,10.38,11,0,6.3-4.45,10.7-10.8,10.7-6.11,0-11.25-3.29-11.25-15.7,0-11.35,3.43-17.69,11.39-17.69,5.51,0,9.45,2.82,10,8.47Zm-6,21.44c4.68,0,6.44-3.75,6.44-7.78,0-3.56-2.69-6.94-6.49-6.94-4.12,0-6.71,3.33-6.71,7.22S896.05,1190.21,900.45,1190.21Z"/><path class="cls-213" d="M873.31,1168.77c-.32-3.2-2.87-5-6-5-4.81,0-7.17,4.17-7.41,12.69l.1.09a8.6,8.6,0,0,1,7.59-4.54c6.72,0,10.38,4.49,10.38,11,0,6.3-4.45,10.7-10.8,10.7-6.11,0-11.25-3.29-11.25-15.7,0-11.35,3.43-17.69,11.39-17.69,5.51,0,9.45,2.82,10,8.47Zm-6,21.44c4.68,0,6.44-3.75,6.44-7.78,0-3.56-2.69-6.94-6.49-6.94-4.12,0-6.71,3.33-6.71,7.22S862.94,1190.21,867.34,1190.21Z"/><path class="cls-213" d="M648.93,824.91a5.44,5.44,0,0,0,.88.05h.83c3.33,0,6.25-1.85,6.25-5.37s-2.5-5.28-5.83-5.28c-4.26,0-6.21,3.29-6.21,7.13h-3.94c.24-6.25,3.57-10.6,10.15-10.6,5.69,0,10,2.73,10,8.79a7.37,7.37,0,0,1-4.54,6.53v.1c4,.88,5.93,4,5.93,8,0,6.53-5.14,10-11.3,10-6.67,0-11.07-3.89-10.93-10.7h3.94c.13,4.26,2.5,7.22,7,7.22,3.84,0,7.13-2.41,7.13-6.34,0-4.12-3.1-6.3-7-6.3a19.46,19.46,0,0,0-2.36.14Z"/><path class="cls-213" d="M678.15,835.75c.32,3.2,2.87,5,6,5,4.81,0,7.17-4.17,7.41-12.69l-.1-.09a8.6,8.6,0,0,1-7.59,4.54c-6.72,0-10.38-4.49-10.38-11,0-6.29,4.45-10.69,10.8-10.69,6.11,0,11.25,3.28,11.25,15.69,0,11.35-3.43,17.7-11.39,17.7-5.51,0-9.45-2.83-10-8.48Zm6-21.44c-4.68,0-6.44,3.75-6.44,7.78,0,3.57,2.69,6.95,6.49,6.95,4.12,0,6.71-3.34,6.71-7.23S688.52,814.31,684.12,814.31Z"/><path class="cls-213" d="M711.26,835.75c.32,3.2,2.87,5,6,5,4.81,0,7.17-4.17,7.41-12.69l-.1-.09a8.6,8.6,0,0,1-7.59,4.54c-6.72,0-10.38-4.49-10.38-11,0-6.29,4.45-10.69,10.79-10.69,6.12,0,11.26,3.28,11.26,15.69,0,11.35-3.43,17.7-11.39,17.7-5.52,0-9.45-2.83-10-8.48Zm6-21.44c-4.68,0-6.44,3.75-6.44,7.78,0,3.57,2.69,6.95,6.49,6.95,4.12,0,6.71-3.34,6.71-7.23S721.63,814.31,717.23,814.31Z"/><path class="cls-213" d="M648.93,580.55a6.78,6.78,0,0,0,.88,0h.83c3.33,0,6.25-1.85,6.25-5.37s-2.5-5.28-5.83-5.28c-4.26,0-6.21,3.29-6.21,7.14h-3.94c.24-6.26,3.57-10.61,10.15-10.61,5.69,0,10,2.73,10,8.8a7.39,7.39,0,0,1-4.54,6.53v.09c4,.88,5.93,4,5.93,8,0,6.53-5.14,10-11.3,10-6.67,0-11.07-3.89-10.93-10.7h3.94c.13,4.26,2.5,7.23,7,7.23,3.84,0,7.13-2.41,7.13-6.35,0-4.12-3.1-6.3-7-6.3a19.46,19.46,0,0,0-2.36.14Z"/><path class="cls-213" d="M678.15,591.39c.32,3.19,2.87,5,6,5,4.81,0,7.17-4.17,7.41-12.69l-.1-.09a8.61,8.61,0,0,1-7.59,4.53c-6.72,0-10.38-4.49-10.38-11,0-6.3,4.45-10.7,10.8-10.7,6.11,0,11.25,3.29,11.25,15.7,0,11.35-3.43,17.69-11.39,17.69-5.51,0-9.45-2.82-10-8.47Zm6-21.45c-4.68,0-6.44,3.75-6.44,7.78,0,3.57,2.69,6.95,6.49,6.95,4.12,0,6.71-3.33,6.71-7.22S688.52,569.94,684.12,569.94Z"/><path class="cls-213" d="M711.26,591.39c.32,3.19,2.87,5,6,5,4.81,0,7.17-4.17,7.41-12.69l-.1-.09a8.61,8.61,0,0,1-7.59,4.53c-6.72,0-10.38-4.49-10.38-11,0-6.3,4.45-10.7,10.79-10.7,6.12,0,11.26,3.29,11.26,15.7,0,11.35-3.43,17.69-11.39,17.69-5.52,0-9.45-2.82-10-8.47Zm6-21.45c-4.68,0-6.44,3.75-6.44,7.78,0,3.57,2.69,6.95,6.49,6.95,4.12,0,6.71-3.33,6.71-7.22S721.63,569.94,717.23,569.94Z"/><g class="cls-2"><path class="cls-16" d="M1054.05,1766.68H570.49a7,7,0,0,1-7-7V1707a7,7,0,0,1,7-7H729.16a27.94,27.94,0,0,0,14.38-4l58.91-35.35a15.11,15.11,0,0,1,15.63,0L876,1695.94A28,28,0,0,0,890.5,1700h163.55a7,7,0,0,1,7,7v52.73a7,7,0,0,1-7,7"/></g></g></g><polygon class="cls-214" points="1540.1 822.74 1488.43 822.74 1462.57 848.41 1488.43 874.12 1540.1 874.12 1565.96 848.41 1540.1 822.74"/><path class="cls-214" d="M1514.26,874.12H1360.17c-10.8,0-19.56-2.6-19.56-5.82V828.56c0-3.21,8.76-5.82,19.56-5.82h154.09Z"/><g class="cls-215"><path class="cls-16" d="M1351.16,833.31h6.17v28h-6.17Z"/><path class="cls-16" d="M1361.49,844.42c-.2-6.28,3.38-11.11,10-11.11,5,0,9.42,3.22,9.42,8.6,0,8.32-8.83,9-12.84,14.64h13v4.79h-20.18c0-6.39,3.93-9,8.68-12.28,2.39-1.69,5.77-3.34,5.77-6.72a4,4,0,0,0-4.12-4.24c-3.3,0-4.36,3.42-4.36,6.32Z"/><path class="cls-16" d="M1403.26,842.74a6.11,6.11,0,0,0-6.12-4.91c-5.54,0-7.62,4.71-7.62,9.62,0,4.67,2.08,9.38,7.62,9.38,3.77,0,5.88-2.55,6.36-6.28h6c-.62,7-5.41,11.46-12.32,11.46-8.64,0-13.78-6.48-13.78-14.56,0-8.33,5.14-14.8,13.78-14.8,6.12,0,11.34,3.61,12.09,10.09Z"/><path class="cls-16" d="M1412.41,844.42c-.2-6.28,3.37-11.11,10-11.11,5,0,9.42,3.22,9.42,8.6,0,8.32-8.83,9-12.84,14.64h13v4.79h-20.18c0-6.39,3.93-9,8.68-12.28,2.39-1.69,5.77-3.34,5.77-6.72a4,4,0,0,0-4.13-4.24c-3.29,0-4.35,3.42-4.35,6.32Z"/><path class="cls-16" d="M1432.78,864.29h19.63v2h-19.63Z"/><path class="cls-16" d="M1459.32,852c0,3.73,2.91,5.18,6.2,5.18,2.16,0,5.46-.63,5.46-3.49,0-3.06-4.24-3.5-8.32-4.63s-8.37-2.79-8.37-8c0-5.78,5.42-8.48,10.49-8.48,5.85,0,11.23,2.55,11.23,9h-6c-.2-3.34-2.55-4.24-5.54-4.24-2,0-4.24.82-4.24,3.18,0,2.15,1.34,2.47,8.36,4.24,2.09.47,8.33,1.84,8.33,8.16,0,5.14-4,9-11.66,9-6.21,0-12.06-3.06-11.94-10Z"/><path class="cls-16" d="M1499.29,842.74a6.13,6.13,0,0,0-6.13-4.91c-5.54,0-7.62,4.71-7.62,9.62,0,4.67,2.08,9.38,7.62,9.38,3.77,0,5.89-2.55,6.36-6.28h6c-.63,7-5.42,11.46-12.33,11.46-8.64,0-13.78-6.48-13.78-14.56,0-8.33,5.14-14.8,13.78-14.8,6.13,0,11.35,3.61,12.09,10.09Z"/><path class="cls-16" d="M1509.69,833.31h6.16v22.85h13.66v5.18h-19.82Z"/></g><path class="cls-214" d="M1317.2,872.85h-55.79a7.51,7.51,0,0,1-7.49-7.5V827.44a7.51,7.51,0,0,1,7.49-7.5h55.79a7.51,7.51,0,0,1,7.49,7.5v37.91A7.51,7.51,0,0,1,1317.2,872.85Z"/><g class="cls-215"><path class="cls-16" d="M1283.73,853.36a5,5,0,0,0,4.7,4.35c5.2,0,6.45-6.8,6.7-10.65l-.1-.1a8.8,8.8,0,0,1-7.9,3.9,11.18,11.18,0,0,1-8.05-3.6,12,12,0,0,1-2.69-7.79c0-7.15,4.89-12.8,12.24-12.8,10.59,0,13.44,9.25,13.44,18.09,0,8.6-3.8,18.29-13.74,18.29-6,0-10.54-3.49-11.34-9.69ZM1294.48,839c0-3.25-2-6.5-5.65-6.5-3.4,0-5.35,3.2-5.35,6.4s1.7,6.59,5.35,6.59C1292.63,845.51,1294.48,842.47,1294.48,839Z"/></g><polygon class="cls-214" points="1540.1 882.79 1488.43 882.79 1462.57 908.46 1488.43 934.17 1540.1 934.17 1565.96 908.46 1540.1 882.79"/><path class="cls-214" d="M1514.26,934.17H1360.17c-10.8,0-19.56-2.61-19.56-5.82V888.61c0-3.21,8.76-5.82,19.56-5.82h154.09Z"/><g class="cls-215"><path class="cls-16" d="M1351.16,893.36h6.17v28h-6.17Z"/><path class="cls-16" d="M1361.49,904.47c-.2-6.28,3.38-11.11,10-11.11,5,0,9.42,3.22,9.42,8.6,0,8.32-8.83,9-12.84,14.64h13v4.79h-20.18c0-6.4,3.93-9,8.68-12.29,2.39-1.68,5.77-3.33,5.77-6.71a4,4,0,0,0-4.12-4.24c-3.3,0-4.36,3.42-4.36,6.32Z"/><path class="cls-16" d="M1403.26,902.78a6.11,6.11,0,0,0-6.12-4.9c-5.54,0-7.62,4.71-7.62,9.61,0,4.68,2.08,9.39,7.62,9.39,3.77,0,5.88-2.55,6.36-6.28h6c-.62,7-5.41,11.46-12.32,11.46-8.64,0-13.78-6.48-13.78-14.57,0-8.32,5.14-14.8,13.78-14.8,6.12,0,11.34,3.61,12.09,10.09Z"/><path class="cls-16" d="M1412.41,904.47c-.2-6.28,3.37-11.11,10-11.11,5,0,9.42,3.22,9.42,8.6,0,8.32-8.83,9-12.84,14.64h13v4.79h-20.18c0-6.4,3.93-9,8.68-12.29,2.39-1.68,5.77-3.33,5.77-6.71a4,4,0,0,0-4.13-4.24c-3.29,0-4.35,3.42-4.35,6.32Z"/><path class="cls-16" d="M1432.78,924.34h19.63v2h-19.63Z"/><path class="cls-16" d="M1459.32,912.09c0,3.73,2.91,5.18,6.2,5.18,2.16,0,5.46-.63,5.46-3.49,0-3.07-4.24-3.5-8.32-4.64s-8.37-2.78-8.37-8c0-5.77,5.42-8.48,10.49-8.48,5.85,0,11.23,2.55,11.23,9h-6c-.2-3.33-2.55-4.24-5.54-4.24-2,0-4.24.83-4.24,3.18,0,2.16,1.34,2.48,8.36,4.24,2.09.47,8.33,1.85,8.33,8.17,0,5.14-4,9-11.66,9-6.21,0-12.06-3.06-11.94-10Z"/><path class="cls-16" d="M1480.6,893.36h12.09c7.26,0,12.72,4.59,12.72,13.86,0,8.13-4.16,14.17-12.72,14.17H1480.6Zm6.16,22.85h5.5c3.57,0,7-2.2,7-8.4,0-5.66-2-9.27-8.09-9.27h-4.4Z"/><path class="cls-16" d="M1517.34,893.36h6.32l10.49,28h-6.4l-2.12-6.24h-10.49l-2.19,6.24h-6.25Zm-.59,17.2H1524l-3.54-10.29h-.07Z"/></g><path class="cls-214" d="M1317.2,932.9h-55.79a7.52,7.52,0,0,1-7.49-7.5V887.48a7.51,7.51,0,0,1,7.49-7.49h55.79a7.51,7.51,0,0,1,7.49,7.49V925.4A7.52,7.52,0,0,1,1317.2,932.9Z"/><g class="cls-215"><path class="cls-16" d="M1281,922.4h-7.09V899.71h-8.8v-5.34c4.95.15,9.45-1.6,10.25-7H1281Z"/><path class="cls-16" d="M1303.07,886.72c7,0,12.89,4.4,12.89,18,0,13.94-5.89,18.34-12.89,18.34s-12.79-4.4-12.79-18.34C1290.28,891.12,1296.13,886.72,1303.07,886.72Zm0,30.53c5.8,0,5.8-8.54,5.8-12.49,0-3.65,0-12.19-5.8-12.19s-5.7,8.54-5.7,12.19C1297.37,908.71,1297.37,917.25,1303.07,917.25Z"/></g><polygon class="cls-216" points="1453.73 340.68 1402.06 340.68 1376.2 366.35 1402.06 392.06 1453.73 392.06 1479.6 366.35 1453.73 340.68"/><path class="cls-216" d="M1348,392.06h64.55l36.4-25.71-36.4-25.67H1348c-4.52,0-8.19,2.61-8.19,5.82v39.74C1339.76,389.46,1343.43,392.06,1348,392.06Z"/><g class="cls-215"><path class="cls-16" d="M1364.51,381.36h-7l-9.11-28h6.36l6.25,19.71h.08l6.32-19.71h6.36Z"/><path class="cls-16" d="M1376.21,353.33h13.19c5.34,0,8.95,1.72,8.95,6.95a6.09,6.09,0,0,1-3.81,5.85c3.46,1,5.15,3.61,5.15,7.1,0,5.7-4.83,8.13-9.9,8.13h-13.58Zm6.16,11.34h6.25c2.2,0,3.77-1,3.77-3.33,0-2.63-2.05-3.22-4.24-3.22h-5.78Zm0,11.9h6.6c2.39,0,4.55-.79,4.55-3.69s-1.76-4-4.43-4h-6.72Z"/><path class="cls-16" d="M1411.5,353.33h6.32l10.49,28h-6.4l-2.12-6.24H1409.3l-2.19,6.24h-6.25Zm-.59,17.19h7.27l-3.54-10.28h-.07Z"/><path class="cls-16" d="M1436.94,358.51h-8.4v-5.18h23v5.18h-8.4v22.85h-6.17Z"/></g><path class="cls-216" d="M1317,391.55h-55.78a7.52,7.52,0,0,1-7.5-7.49V346.14a7.53,7.53,0,0,1,7.5-7.5H1317a7.53,7.53,0,0,1,7.5,7.5v37.92A7.52,7.52,0,0,1,1317,391.55Z"/><g class="cls-215"><path class="cls-16" d="M1294.76,381.06h-7.1V358.37h-8.79V353c5,.15,9.44-1.59,10.24-6.94h5.65Z"/></g><polygon class="cls-217" points="1453.73 463.66 1402.06 463.66 1376.2 489.32 1402.06 515.04 1453.73 515.04 1479.6 489.32 1453.73 463.66"/><path class="cls-217" d="M1348,515h64.55l36.4-25.71-36.4-25.67H1348c-4.52,0-8.19,2.61-8.19,5.82v39.74C1339.76,512.43,1343.43,515,1348,515Z"/><g class="cls-215"><path class="cls-16" d="M1371.42,499.08a9.41,9.41,0,0,1-7.69,3.85c-8.64,0-13.78-6.48-13.78-14.56,0-8.33,5.14-14.81,13.78-14.81,5.73,0,11.19,3.5,11.81,9.9h-5.88a5.72,5.72,0,0,0-5.93-4.71c-5.54,0-7.62,4.71-7.62,9.62,0,4.67,2.08,9.38,7.62,9.38,4,0,6.32-2.12,6.67-6.05h-6.2v-4.59H1376v15.15h-3.93Z"/><path class="cls-16" d="M1381,474.23h6.13l11.7,18.81h.07V474.23h5.77v28h-6.16l-11.66-18.76h-.08v18.76H1381Z"/><path class="cls-16" d="M1410.05,474.23h12.09c7.27,0,12.72,4.59,12.72,13.86,0,8.13-4.16,14.17-12.72,14.17h-12.09Zm6.16,22.85h5.5c3.57,0,7-2.2,7-8.4,0-5.65-2-9.27-8.09-9.27h-4.4Z"/></g><path class="cls-217" d="M1317,513.77h-55.78a7.53,7.53,0,0,1-7.5-7.5V468.35a7.52,7.52,0,0,1,7.5-7.49H1317a7.52,7.52,0,0,1,7.5,7.49v37.92A7.53,7.53,0,0,1,1317,513.77Z"/><g class="cls-215"><path class="cls-16" d="M1286.56,482.43c3,.25,7.45-.35,7.45-4.34,0-3-2.35-4.65-5-4.65-3.6,0-5.44,2.65-5.4,6.24h-6.74c.25-7.19,4.85-12.09,12.09-12.09,5.6,0,11.75,3.45,11.75,9.7,0,3.34-1.65,6.19-4.9,7.14v.1a7.77,7.77,0,0,1,6.19,8c0,7.34-6.19,11.49-13,11.49-7.84,0-13.14-4.7-13-12.74h6.75c.15,3.8,2,6.89,6.14,6.89a5.37,5.37,0,0,0,5.7-5.49c0-5.3-4.65-5.2-8.1-5.2Z"/></g><polygon class="cls-216" points="1453.73 403.61 1402.06 403.61 1376.2 429.28 1402.06 454.99 1453.73 454.99 1479.6 429.28 1453.73 403.61"/><path class="cls-216" d="M1348,455h64.55l36.4-25.71-36.4-25.67H1348c-4.52,0-8.19,2.61-8.19,5.82v39.74C1339.76,452.39,1343.43,455,1348,455Z"/><g class="cls-215"><path class="cls-16" d="M1357.41,425.84c2.39.2,5.85-.27,5.85-3.41a3.63,3.63,0,0,0-3.89-3.65c-2.83,0-4.28,2.08-4.24,4.9h-5.3c.2-5.65,3.81-9.5,9.5-9.5,4.4,0,9.23,2.71,9.23,7.62a5.46,5.46,0,0,1-3.85,5.61v.08a6.12,6.12,0,0,1,4.87,6.24c0,5.78-4.87,9-10.21,9-6.16,0-10.33-3.69-10.21-10h5.3c.12,3,1.61,5.42,4.83,5.42a4.23,4.23,0,0,0,4.48-4.32c0-4.16-3.65-4.08-6.36-4.08Z"/><path class="cls-16" d="M1386,442.22h-7l-9.11-28h6.36l6.24,19.71h.08l6.32-19.71h6.36Z"/><path class="cls-16" d="M1404,425.84c2.39.2,5.85-.27,5.85-3.41a3.63,3.63,0,0,0-3.89-3.65c-2.83,0-4.28,2.08-4.24,4.9h-5.3c.19-5.65,3.81-9.5,9.5-9.5,4.4,0,9.23,2.71,9.23,7.62a5.46,5.46,0,0,1-3.85,5.61v.08a6.12,6.12,0,0,1,4.87,6.24c0,5.78-4.87,9-10.21,9-6.16,0-10.33-3.69-10.21-10h5.3c.12,3,1.61,5.42,4.83,5.42a4.23,4.23,0,0,0,4.48-4.32c0-4.16-3.66-4.08-6.36-4.08Z"/></g><path class="cls-216" d="M1316.55,453.72h-55.78a7.52,7.52,0,0,1-7.5-7.5V408.31a7.52,7.52,0,0,1,7.5-7.5h55.78a7.51,7.51,0,0,1,7.49,7.5v37.91A7.51,7.51,0,0,1,1316.55,453.72Z"/><g class="cls-215"><path class="cls-16" d="M1276.54,421.69c-.25-8,4.29-14.15,12.69-14.15,6.4,0,12,4.1,12,10.95,0,10.59-11.24,11.44-16.34,18.64h16.54v6.09h-25.68c0-8.14,5-11.49,11-15.64,3-2.15,7.35-4.24,7.35-8.54a5,5,0,0,0-5.25-5.4c-4.2,0-5.55,4.35-5.55,8.05Z"/></g><polygon class="cls-218" points="1451.3 523.71 1399.63 523.71 1373.77 549.37 1399.63 575.09 1451.3 575.09 1477.16 549.37 1451.3 523.71"/><path class="cls-218" d="M1415.54,575.09h-67.25c-4.71,0-8.53-2.61-8.53-5.82V529.53c0-3.22,3.82-5.82,8.53-5.82h67.25Z"/><g class="cls-215"><path class="cls-16" d="M1351.16,534.28h6.17v22.85H1371v5.18h-19.83Z"/><path class="cls-16" d="M1374.44,534.28h21v5.18h-14.8v6h13.58v4.79h-13.58v6.87h15.11v5.18h-21.28Z"/><path class="cls-16" d="M1399.88,534.28H1412c7.26,0,12.72,4.59,12.72,13.86,0,8.12-4.17,14.17-12.72,14.17h-12.1Zm6.17,22.85h5.49c3.58,0,7-2.2,7-8.4,0-5.66-2-9.27-8.09-9.27h-4.39Z"/><path class="cls-16" d="M1441.65,562.31h-5.57V544.49h-6.91v-4.21c3.89.12,7.42-1.25,8-5.45h4.43Z"/></g><polygon class="cls-218" points="1451.3 583.3 1399.63 583.3 1373.77 608.97 1399.63 634.68 1451.3 634.68 1477.16 608.97 1451.3 583.3"/><path class="cls-218" d="M1415.54,634.68h-67.25c-4.71,0-8.53-2.6-8.53-5.82V589.12c0-3.21,3.82-5.82,8.53-5.82h67.25Z"/><g class="cls-215"><path class="cls-16" d="M1351.16,593.87h6.17v22.85H1371v5.19h-19.83Z"/><path class="cls-16" d="M1374.44,593.87h21v5.19h-14.8v6h13.58v4.79h-13.58v6.87h15.11v5.19h-21.28Z"/><path class="cls-16" d="M1399.88,593.87H1412c7.26,0,12.72,4.6,12.72,13.86,0,8.13-4.17,14.18-12.72,14.18h-12.1Zm6.17,22.85h5.49c3.58,0,7-2.2,7-8.4,0-5.65-2-9.26-8.09-9.26h-4.39Z"/><path class="cls-16" d="M1427.72,605c-.2-6.28,3.37-11.11,10-11.11,5,0,9.42,3.22,9.42,8.6,0,8.32-8.83,9-12.84,14.65h13v4.79h-20.18c0-6.4,3.92-9,8.67-12.29,2.4-1.69,5.78-3.34,5.78-6.72a4,4,0,0,0-4.13-4.24c-3.29,0-4.35,3.42-4.35,6.32Z"/></g><path class="cls-218" d="M1316.55,573.82h-55.78a7.52,7.52,0,0,1-7.5-7.5V528.4a7.51,7.51,0,0,1,7.5-7.49h55.78a7.51,7.51,0,0,1,7.49,7.49v37.92A7.52,7.52,0,0,1,1316.55,573.82Z"/><g class="cls-215"><path class="cls-16" d="M1290.28,555.22h-14.79v-6.49l15.19-20.39H1297v21h4.64v5.84H1297v8.1h-6.75Zm0-18h-.15l-9.05,12.15h9.2Z"/></g><path class="cls-218" d="M1316.55,634.17h-55.78a7.51,7.51,0,0,1-7.5-7.49V588.76a7.51,7.51,0,0,1,7.5-7.49h55.78a7.51,7.51,0,0,1,7.49,7.49v37.92A7.51,7.51,0,0,1,1316.55,634.17Z"/><g class="cls-215"><path class="cls-16" d="M1299.67,594.55h-14.44l-1.4,7.94.1.1a8.9,8.9,0,0,1,6.85-2.7c6.89,0,10.79,5.35,10.79,11.9a12.66,12.66,0,0,1-13,12.59c-6.8,0-12.84-3.75-13-11.1h7.09a5.59,5.59,0,0,0,5.75,5.25c3.7,0,6-3.25,6-6.74,0-3.65-2.25-6.55-6-6.55a5.8,5.8,0,0,0-5.35,2.8h-6.39l3.44-19.34h19.54Z"/></g><polygon class="cls-219" points="1654.41 644.27 1602.73 644.27 1576.87 669.93 1602.73 695.65 1654.41 695.65 1680.27 669.93 1654.41 644.27"/><path class="cls-219" d="M1614.9,695.65H1370.75c-17.12,0-31-2.61-31-5.82V650.09c0-3.21,13.87-5.82,31-5.82H1614.9Z"/><g class="cls-215"><path class="cls-16" d="M1358.82,654.84h6.32l10.48,28h-6.4l-2.12-6.24h-10.48l-2.2,6.24h-6.24Zm-.59,17.2h7.26L1362,661.75h-.08Z"/><path class="cls-16" d="M1378.06,654.84h6.16v28h-6.16Z"/><path class="cls-16" d="M1389.64,654.84h6.12l11.7,18.81h.08V654.84h5.77v28h-6.16l-11.66-18.76h-.08v18.76h-5.77Z"/><path class="cls-16" d="M1431.41,682.87h-5.58V665.05h-6.91v-4.2c3.89.12,7.42-1.26,8-5.46h4.44Z"/><path class="cls-16" d="M1440.24,676.83h6.16v6c0,3.61-2.78,6-6.12,6.52v-2.83a3.58,3.58,0,0,0,2.79-3.69h-2.83Z"/><path class="cls-16" d="M1470,654.84h6.32l10.48,28h-6.4l-2.12-6.24h-10.48l-2.2,6.24h-6.24Zm-.59,17.2h7.26l-3.53-10.29h-.08Z"/><path class="cls-16" d="M1489.27,654.84h12.1c7.26,0,12.72,4.59,12.72,13.86,0,8.13-4.17,14.17-12.72,14.17h-12.1Zm6.17,22.85h5.49c3.58,0,7-2.2,7-8.4,0-5.65-2-9.27-8.09-9.27h-4.39Z"/><path class="cls-16" d="M1537.05,664.26a6.11,6.11,0,0,0-6.12-4.9c-5.54,0-7.62,4.71-7.62,9.61,0,4.68,2.08,9.39,7.62,9.39,3.77,0,5.89-2.55,6.36-6.28h6c-.63,7-5.42,11.46-12.33,11.46-8.64,0-13.78-6.48-13.78-14.57,0-8.32,5.14-14.8,13.78-14.8,6.12,0,11.34,3.61,12.09,10.09Z"/><path class="cls-16" d="M1558.37,654.84h6.16v28h-6.16Z"/><path class="cls-16" d="M1569.36,662.57h5.3v2.83h.12A7.16,7.16,0,0,1,1581,662c5.93,0,7.42,3.33,7.42,8.36v12.48h-5.57V671.41c0-3.34-.95-5-3.58-5-3,0-4.31,1.69-4.31,5.81v10.64h-5.58Z"/><path class="cls-16" d="M1592.64,662.57h5.3v2.6h.08a6.7,6.7,0,0,1,6-3.14c6.36,0,9.23,5.14,9.23,10.91,0,5.42-2.94,10.48-8.91,10.48a7.23,7.23,0,0,1-6.09-3.06h-.08V690h-5.57Zm15.08,10.21c0-3.26-1.3-6.55-4.87-6.55s-4.83,3.25-4.83,6.55,1.25,6.44,4.87,6.44S1607.72,676.08,1607.72,672.78Z"/><path class="cls-16" d="M1635.67,682.87h-5.3v-2.82h-.12a7.16,7.16,0,0,1-6.2,3.37c-5.93,0-7.42-3.33-7.42-8.36V662.57h5.57V674c0,3.34.94,5,3.57,5,3,0,4.32-1.69,4.32-5.82V662.57h5.58Z"/><path class="cls-16" d="M1647,662.57h4.09v3.73H1647v10.06c0,1.88.47,2.35,2.36,2.35a7.72,7.72,0,0,0,1.73-.16v4.36a21.06,21.06,0,0,1-3.26.2c-3.46,0-6.4-.75-6.4-4.83v-12H1638v-3.73h3.38v-6.08H1647Z"/></g><path class="cls-219" d="M1316.55,694.38h-55.78a7.52,7.52,0,0,1-7.5-7.5V649a7.51,7.51,0,0,1,7.5-7.49h55.78A7.51,7.51,0,0,1,1324,649v37.92A7.52,7.52,0,0,1,1316.55,694.38Z"/><g class="cls-215"><path class="cls-16" d="M1294.08,657.9a5,5,0,0,0-4.7-4.35c-5.1,0-6.55,6.8-6.7,10.64l.1.1c2-2.8,4.5-3.89,7.9-3.89a11.13,11.13,0,0,1,8,3.59,12,12,0,0,1,2.7,7.8c0,7.15-4.94,12.79-12.24,12.79-10.6,0-13.44-9.24-13.44-18.09,0-8.59,3.8-18.29,13.74-18.29,6,0,10.54,3.5,11.34,9.7Zm-10.75,14.34c0,3.25,2.05,6.5,5.65,6.5,3.4,0,5.35-3.2,5.35-6.4s-1.7-6.6-5.35-6.6S1283.33,668.79,1283.33,672.24Z"/></g><polygon class="cls-218" points="1566.61 704.63 1514.94 704.63 1489.08 730.29 1514.94 756.01 1566.61 756.01 1592.47 730.29 1566.61 704.63"/><path class="cls-218" d="M1520.4,756H1360.1c-11.23,0-20.34-2.61-20.34-5.82V710.45c0-3.21,9.11-5.82,20.34-5.82h160.3Z"/><g class="cls-215"><path class="cls-16" d="M1351.16,715.2h6.17v28h-6.17Z"/><path class="cls-16" d="M1375.31,714.53c8.64,0,13.78,6.48,13.78,14.8,0,8.09-5.14,14.57-13.78,14.57s-13.78-6.48-13.78-14.57C1361.53,721,1366.67,714.53,1375.31,714.53Zm0,24.19c5.53,0,7.61-4.71,7.61-9.39,0-4.9-2.08-9.62-7.61-9.62s-7.62,4.72-7.62,9.62C1367.69,734,1369.77,738.72,1375.31,738.72Z"/><path class="cls-16" d="M1392,726.31c-.2-6.28,3.38-11.11,10-11.11,5,0,9.43,3.22,9.43,8.6,0,8.32-8.84,9-12.84,14.64h13v4.79H1391.4c0-6.4,3.93-9,8.68-12.29,2.4-1.69,5.77-3.33,5.77-6.71a4,4,0,0,0-4.12-4.24c-3.3,0-4.36,3.42-4.36,6.32Z"/><path class="cls-16" d="M1414.8,737.19H1421v6c0,3.61-2.78,6-6.12,6.52v-2.83a3.58,3.58,0,0,0,2.79-3.69h-2.83Z"/><path class="cls-16" d="M1457.2,740.05a9.41,9.41,0,0,1-7.69,3.85c-8.64,0-13.78-6.48-13.78-14.57,0-8.32,5.14-14.8,13.78-14.8,5.73,0,11.19,3.5,11.81,9.9h-5.88a5.72,5.72,0,0,0-5.93-4.72c-5.54,0-7.62,4.72-7.62,9.62,0,4.68,2.08,9.39,7.62,9.39,4,0,6.32-2.12,6.67-6.05H1450v-4.59h11.78v15.15h-3.93Z"/><path class="cls-16" d="M1466.74,715.2h12.64c7,0,9.7,4.44,9.7,9s-2.67,9-9.7,9h-6.48v10.05h-6.16Zm6.16,13.19h4.79c2.83,0,5.42-.63,5.42-4.2s-2.59-4.2-5.42-4.2h-4.79Z"/><path class="cls-16" d="M1492.92,715.2h6.17v28h-6.17Z"/><path class="cls-16" d="M1517.07,714.53c8.64,0,13.78,6.48,13.78,14.8,0,8.09-5.14,14.57-13.78,14.57s-13.78-6.48-13.78-14.57C1503.29,721,1508.43,714.53,1517.07,714.53Zm0,24.19c5.54,0,7.62-4.71,7.62-9.39,0-4.9-2.08-9.62-7.62-9.62s-7.62,4.72-7.62,9.62C1509.45,734,1511.53,738.72,1517.07,738.72Z"/><path class="cls-16" d="M1533.79,726.31c-.2-6.28,3.38-11.11,10-11.11,5,0,9.43,3.22,9.43,8.6,0,8.32-8.84,9-12.84,14.64h13v4.79h-20.18c0-6.4,3.93-9,8.68-12.29,2.4-1.69,5.77-3.33,5.77-6.71a4,4,0,0,0-4.12-4.24c-3.3,0-4.36,3.42-4.36,6.32Z"/></g><path class="cls-218" d="M1316.55,754.74h-55.78a7.52,7.52,0,0,1-7.5-7.5V709.32a7.51,7.51,0,0,1,7.5-7.49h55.78a7.51,7.51,0,0,1,7.49,7.49v37.92A7.52,7.52,0,0,1,1316.55,754.74Z"/><g class="cls-215"><path class="cls-16" d="M1300.52,715.36c-7.34,6.44-11.29,19.54-11.44,28.88h-7.6a51.07,51.07,0,0,1,11.75-28.38h-16.59v-6.6h23.88Z"/></g><polygon class="cls-218" points="1442.62 765.24 1390.95 765.24 1365.09 790.9 1390.95 816.62 1442.62 816.62 1468.48 790.9 1442.62 765.24"/><path class="cls-218" d="M1436.36,816.62h-84.28c-5.91,0-10.7-2.61-10.7-5.82V771.06c0-3.22,4.79-5.82,10.7-5.82h84.28Z"/><g class="cls-215"><path class="cls-16" d="M1373,793.71c0,3.73,2.91,5.18,6.2,5.18,2.16,0,5.46-.63,5.46-3.5,0-3.06-4.24-3.49-8.32-4.63s-8.36-2.79-8.36-8c0-5.77,5.41-8.48,10.48-8.48,5.85,0,11.23,2.55,11.23,9h-6c-.2-3.34-2.55-4.24-5.54-4.24-2,0-4.24.83-4.24,3.18,0,2.16,1.34,2.47,8.37,4.24,2.08.47,8.32,1.85,8.32,8.17,0,5.14-4,9-11.66,9-6.2,0-12-3.06-11.94-10Z"/><path class="cls-16" d="M1421,803h-6.12l-4.75-19.08h-.08L1405.38,803h-6.24l-7.42-28h6.16l4.44,19.08h.08l4.86-19.08H1413l4.79,19.32h.07l4.6-19.32h6Z"/><path class="cls-16" d="M1444.05,803h-5.58V785.19h-6.91V781c3.89.11,7.42-1.26,8-5.46h4.44Z"/></g><path class="cls-218" d="M1315.3,814.52h-55.78a7.53,7.53,0,0,1-7.5-7.5V769.1a7.52,7.52,0,0,1,7.5-7.49h55.78a7.51,7.51,0,0,1,7.5,7.49V807A7.52,7.52,0,0,1,1315.3,814.52Z"/><g class="cls-215"><path class="cls-16" d="M1287.38,768.34c8.7,0,11.7,6,11.7,9.4a7.32,7.32,0,0,1-5.1,7.34v.1c4.2,1,6.55,4.15,6.55,8.55,0,7.39-6.55,11-13.1,11-6.74,0-13.29-3.4-13.29-10.94,0-4.45,2.45-7.6,6.6-8.6v-.1c-3.4-1-5.15-3.75-5.15-7.19C1275.59,771.59,1281.69,768.34,1287.38,768.34Zm0,31a5.75,5.75,0,0,0,6-5.89c0-3.35-2.7-5.6-6-5.6s-6.19,2-6.19,5.55A5.89,5.89,0,0,0,1287.43,799.37Zm0-16.24c2.95,0,5.25-1.6,5.25-4.6,0-1.79-.85-4.84-5.25-4.84-2.84,0-5.34,1.7-5.34,4.84S1284.54,783.13,1287.38,783.13Z"/></g><rect class="cls-216" x="1060.91" y="339.42" width="37.8" height="37.8" rx="8.43"/><rect class="cls-216" x="1060.91" y="401.34" width="37.8" height="37.8" rx="8.43"/><rect class="cls-217" x="1060.91" y="463.27" width="37.8" height="37.8" rx="8.43"/><rect class="cls-218" x="1060.91" y="525.19" width="37.8" height="37.8" rx="8.43"/><rect class="cls-218" x="1060.91" y="587.12" width="37.8" height="37.8" rx="8.43"/><rect class="cls-219" x="1060.91" y="649.04" width="37.8" height="37.8" rx="8.43"/><rect class="cls-218" x="1060.91" y="710.97" width="37.8" height="37.8" rx="8.43"/><rect class="cls-218" x="1060.91" y="772.89" width="37.8" height="37.8" rx="8.43"/><rect class="cls-214" x="1060.91" y="834.82" width="37.8" height="37.8" rx="8.43"/><rect class="cls-214" x="1060.91" y="896.74" width="37.8" height="37.8" rx="8.43"/><line class="cls-220" x1="1078.97" y1="358.32" x2="1249" y2="358.32"/><line class="cls-220" x1="1078.97" y1="420.24" x2="1249" y2="420.24"/><line class="cls-221" x1="1078.97" y1="480.23" x2="1249" y2="480.23"/><line class="cls-222" x1="1078.97" y1="544.09" x2="1249" y2="544.09"/><line class="cls-222" x1="1080.25" y1="606.02" x2="1250.28" y2="606.02"/><line class="cls-223" x1="1080.25" y1="667.94" x2="1250.28" y2="667.94"/><line class="cls-222" x1="1080.25" y1="729.87" x2="1250.28" y2="729.87"/><line class="cls-222" x1="1080.25" y1="791.79" x2="1250.28" y2="791.79"/><line class="cls-224" x1="1080.25" y1="853.72" x2="1250.28" y2="853.72"/><line class="cls-224" x1="1080.25" y1="915.64" x2="1250.28" y2="915.64"/></svg>
