<svg xmlns="http://www.w3.org/2000/svg" xmlns:xlink="http://www.w3.org/1999/xlink" viewBox="0 0 94.01 59.89"><defs><style>.cls-1,.cls-12,.cls-20{fill:none;}.cls-2{fill:#7f8080;}.cls-3{fill:#ed1c24;}.cls-4{fill:#333;}.cls-5{fill:#b3b3b3;}.cls-6{fill:#fed401;}.cls-7{fill:#895aa5;}.cls-8{fill:#42a095;}.cls-16,.cls-9{fill:#fff;}.cls-10{fill:#242424;}.cls-10,.cls-12,.cls-13,.cls-16,.cls-17,.cls-18,.cls-19,.cls-20{opacity:0.4;}.cls-11{fill:#cbbb99;}.cls-14{clip-path:url(#clip-path);}.cls-15{clip-path:url(#clip-path-3);}.cls-17{fill:#a4abba;}.cls-18{fill:#eeefeb;}.cls-19{fill:#c8ac8c;}.cls-20{stroke:#fff;stroke-miterlimit:10;stroke-width:0.5px;}.cls-21{clip-path:url(#clip-path-5);}.cls-22{fill:#ebf4fb;}.cls-23{fill:#333e49;}.cls-24{fill:#222630;}.cls-25{fill:#be8e3e;}.cls-26{fill:#ee3224;}</style><clipPath id="clip-path"><rect class="cls-1" x="9.8" y="17.91" width="1.64" height="1.83"/></clipPath><clipPath id="clip-path-3"><rect class="cls-1" x="9.8" y="20.46" width="1.64" height="1.83"/></clipPath><clipPath id="clip-path-5"><rect class="cls-1" x="20.09" y="20.13" width="7.11" height="19.34"/></clipPath></defs><g id="Layer_2" data-name="Layer 2"><g id="Layer_1-2" data-name="Layer 1"><g id="RAK12002_Pinouts"><rect class="cls-2" x="73.68" width="5.4" height="59.89"/><rect class="cls-2" x="66.94" width="5.4" height="59.89"/><rect class="cls-3" x="63.8" y="35.59" width="3.14" height="3.69" rx="0.52"/><rect class="cls-3" x="58.79" y="35.59" width="7.4" height="3.69"/><rect class="cls-4" x="63.79" width="3.14" height="3.69" rx="0.52"/><rect class="cls-4" x="67.56" width="4.72" height="3.69" rx="0.45"/><rect class="cls-5" x="67.56" y="5.05" width="4.72" height="3.69" rx="0.45"/><rect class="cls-5" x="67.56" y="10.25" width="4.72" height="3.69" rx="0.45"/><rect class="cls-6" x="67.56" y="15.45" width="4.72" height="3.69" rx="0.45"/><rect class="cls-7" x="67.56" y="20.42" width="4.72" height="3.69" rx="0.45"/><rect class="cls-8" x="67.56" y="25.4" width="4.72" height="3.69" rx="0.45"/><rect class="cls-5" x="67.56" y="30.54" width="4.72" height="3.69" rx="0.45"/><rect class="cls-5" x="67.56" y="35.59" width="4.72" height="3.69" rx="0.45"/><rect class="cls-6" x="67.56" y="40.69" width="4.72" height="3.69" rx="0.45"/><rect class="cls-5" x="67.56" y="45.86" width="4.72" height="3.69" rx="0.45"/><rect class="cls-5" x="67.56" y="51.19" width="4.72" height="3.69" rx="0.45"/><rect class="cls-5" x="67.56" y="56.19" width="4.72" height="3.69" rx="0.45"/><rect class="cls-5" x="73.68" width="4.72" height="3.69" rx="0.45"/><rect class="cls-5" x="73.68" y="5.05" width="4.72" height="3.69" rx="0.45"/><rect class="cls-5" x="73.68" y="10.25" width="4.72" height="3.69" rx="0.45"/><rect class="cls-6" x="73.68" y="15.45" width="4.72" height="3.69" rx="0.45"/><rect class="cls-3" x="73.68" y="20.42" width="4.72" height="3.69" rx="0.45"/><rect class="cls-5" x="73.68" y="25.4" width="4.72" height="3.69" rx="0.45"/><rect class="cls-8" x="73.68" y="30.54" width="4.72" height="3.69" rx="0.45"/><rect class="cls-7" x="73.68" y="35.59" width="4.72" height="3.69" rx="0.45"/><rect class="cls-6" x="73.68" y="40.69" width="4.72" height="3.69" rx="0.45"/><rect class="cls-5" x="73.68" y="45.86" width="4.72" height="3.69" rx="0.45"/><rect class="cls-5" x="73.68" y="51.19" width="4.72" height="3.69" rx="0.45"/><rect class="cls-4" x="73.68" y="56.19" width="4.72" height="3.69" rx="0.45"/><path class="cls-9" d="M69.11,1.85a.71.71,0,0,1,.72-.8.63.63,0,0,1,.68.62c0,.6-.64.64-.92,1.05h.93v.35H69.07c0-.46.28-.65.62-.89.18-.12.42-.24.42-.48a.29.29,0,0,0-.27-.3h0c-.24,0-.31.24-.31.45Z"/><path class="cls-9" d="M76.48,3.06H76V1.63h-.56V1.29c.32,0,.6-.11.65-.44h.36Z"/><path class="cls-9" d="M76,6.79c.19,0,.47,0,.47-.27a.29.29,0,0,0-.29-.29h0a.33.33,0,0,0-.34.39h-.43a.74.74,0,0,1,.77-.76.68.68,0,0,1,.74.61.45.45,0,0,1-.31.45h0a.49.49,0,0,1,.39.5.82.82,0,0,1-1.64-.08h.42c0,.24.13.43.39.43a.33.33,0,0,0,.36-.32v0c0-.34-.29-.33-.51-.33Z"/><path class="cls-9" d="M76.82,11.47h-.91l-.09.5h0a.54.54,0,0,1,.43-.17.68.68,0,0,1,.68.75.8.8,0,0,1-.8.8h0a.74.74,0,0,1-.82-.71h.45a.36.36,0,0,0,.36.34.4.4,0,0,0,.38-.43.39.39,0,0,0-.38-.42.36.36,0,0,0-.34.18h-.4l.21-1.22h1.24Z"/><path class="cls-9" d="M75.77,22.77a.32.32,0,0,0,.3.27c.33,0,.41-.43.42-.67h0a.58.58,0,0,1-.5.25.7.7,0,0,1-.51-.23.74.74,0,0,1-.18-.49.77.77,0,0,1,.78-.81c.67,0,.85.58.85,1.14s-.24,1.16-.86,1.16a.67.67,0,0,1-.72-.61Zm.68-.91a.38.38,0,0,0-.36-.41.36.36,0,0,0-.34.4c0,.21.11.42.34.42A.37.37,0,0,0,76.45,21.86Z"/><path class="cls-9" d="M75.6,28.39h-.45V27h-.56v-.34c.32,0,.6-.1.65-.44h.36Z"/><path class="cls-9" d="M77.36,28.39h-.45V27h-.56v-.34c.32,0,.6-.1.65-.44h.36Z"/><path class="cls-9" d="M75.6,43.76h-.45V42.33h-.56V42c.32,0,.6-.1.65-.44h.36Z"/><path class="cls-9" d="M77.75,41.93A2.75,2.75,0,0,0,77,43.76h-.48A3.11,3.11,0,0,1,77.29,42H76.24v-.42h1.51Z"/><path class="cls-9" d="M75.6,48.92h-.45V47.48h-.56v-.34c.32,0,.6-.1.65-.44h.36Z"/><path class="cls-9" d="M76.65,48.35a.3.3,0,0,0,.3.27c.33,0,.41-.43.42-.67h0a.58.58,0,0,1-.5.25.7.7,0,0,1-.51-.23.74.74,0,0,1-.18-.49.77.77,0,0,1,.78-.81c.67,0,.85.58.85,1.14S77.57,49,76.94,49a.68.68,0,0,1-.72-.61Zm.68-.91A.38.38,0,0,0,77,47a.36.36,0,0,0-.34.4c0,.21.11.42.34.42a.37.37,0,0,0,.36-.41Z"/><path class="cls-9" d="M74.48,52.83a.78.78,0,0,1,.8-.89.71.71,0,0,1,.76.69c0,.67-.71.73-1,1.18h1v.39H74.42c0-.52.32-.73.7-1,.2-.14.47-.27.47-.54a.32.32,0,0,0-.29-.34h0c-.27,0-.35.27-.35.51Z"/><path class="cls-9" d="M77.36,54.2h-.45V52.76h-.56v-.34c.32,0,.6-.1.65-.44h.36Z"/><path class="cls-9" d="M74.48,57.91a.79.79,0,0,1,.8-.9.71.71,0,0,1,.76.7c0,.67-.71.72-1,1.18h1v.38H74.42c0-.51.32-.73.7-1,.2-.13.47-.27.47-.54a.32.32,0,0,0-.29-.34h0c-.27,0-.35.27-.35.51Z"/><path class="cls-9" d="M76.84,58c.19,0,.47,0,.47-.27a.3.3,0,0,0-.29-.3h0a.34.34,0,0,0-.34.4h-.43A.73.73,0,0,1,77,57a.69.69,0,0,1,.75.62.45.45,0,0,1-.31.45h0a.49.49,0,0,1,.39.5.82.82,0,0,1-1.64-.08h.42c0,.24.13.43.39.43a.34.34,0,0,0,.36-.32v0c0-.34-.29-.33-.51-.33Z"/><path class="cls-9" d="M69.89,7.66h-.84V7.29l.86-1.15h.36V7.33h.26v.33h-.26v.45h-.38Zm0-1h0l-.51.69h.52Z"/><rect class="cls-4" x="79.1" y="56.19" width="3.14" height="3.69" rx="0.52"/><path class="cls-9" d="M69.33,28.39h-.4V27.11h-.49V26.8c.27,0,.53-.08.57-.39h.32Z"/><path class="cls-9" d="M69.9,27.17a.7.7,0,0,1,.71-.8.63.63,0,0,1,.68.62c0,.6-.63.65-.92,1.05h.93v.35H69.85c0-.46.29-.65.63-.88.17-.13.41-.24.41-.49a.29.29,0,0,0-.26-.3h0c-.23,0-.31.24-.31.45Z"/><path class="cls-9" d="M69.33,38.66h-.4V37.38h-.49v-.31c.27,0,.53-.08.57-.39h.32Z"/><path class="cls-9" d="M70.89,37.19a.29.29,0,0,0-.27-.25c-.28,0-.37.39-.38.6h0a.5.5,0,0,1,.45-.22.65.65,0,0,1,.45.2.65.65,0,0,1,.15.44.69.69,0,0,1-.69.73c-.6,0-.76-.53-.76-1s.21-1,.78-1a.61.61,0,0,1,.64.55Zm-.61.81a.34.34,0,0,0,.32.36.32.32,0,0,0,.3-.36c0-.18-.09-.37-.3-.37a.33.33,0,0,0-.32.37Z"/><path class="cls-9" d="M69.33,43.76h-.4V42.48h-.49v-.3c.27,0,.53-.09.57-.39h.32Z"/><path class="cls-9" d="M70.58,41.75a.59.59,0,0,1,.66.53.4.4,0,0,1-.29.41h0a.45.45,0,0,1,.37.48.66.66,0,0,1-.74.62c-.37,0-.75-.19-.75-.61a.48.48,0,0,1,.38-.49h0a.38.38,0,0,1-.3-.4A.6.6,0,0,1,70.58,41.75Zm0,1.75a.32.32,0,0,0,.34-.31v0a.32.32,0,0,0-.32-.32h0a.32.32,0,0,0-.35.32.33.33,0,0,0,.33.33Zm0-.92c.17,0,.3-.08.3-.26a.26.26,0,0,0-.3-.27.29.29,0,0,0-.3.25v0a.27.27,0,0,0,.3.26Z"/><path class="cls-9" d="M68.33,53a.71.71,0,0,1,.72-.8.63.63,0,0,1,.67.62c0,.6-.63.65-.92,1.05h.93v.35H68.29c0-.46.28-.65.62-.88.17-.12.41-.24.41-.48a.28.28,0,0,0-.26-.31h0c-.24,0-.32.25-.32.45Z"/><path class="cls-9" d="M69.9,53a.7.7,0,0,1,.71-.8.63.63,0,0,1,.68.62c0,.6-.63.65-.92,1.05h.93v.35H69.85c0-.46.29-.65.63-.88.17-.12.41-.24.41-.48a.29.29,0,0,0-.26-.31h0c-.23,0-.31.25-.31.45Z"/><path class="cls-9" d="M70.1,11.85a.28.28,0,0,0-.26-.25c-.29,0-.37.39-.38.6h0a.5.5,0,0,1,.44-.22.63.63,0,0,1,.46.2.71.71,0,0,1,.15.44.68.68,0,0,1-.7.72c-.59,0-.75-.52-.75-1s.21-1,.77-1a.6.6,0,0,1,.64.55Zm-.6.81a.33.33,0,0,0,.32.36.32.32,0,0,0,.3-.36.31.31,0,1,0-.62,0Z"/><polygon class="cls-4" points="64.25 0 59.96 0 57.82 1.85 59.96 3.69 64.25 3.69 66.4 1.85 64.25 0"/><path class="cls-9" d="M61.14,2.52a.68.68,0,0,1-.55.28,1,1,0,0,1-1-1,1,1,0,0,1,1-1.06.79.79,0,0,1,.84.71H61a.41.41,0,0,0-.43-.34c-.39,0-.54.34-.54.69s.15.68.54.68A.43.43,0,0,0,61.06,2h-.44V1.66h.84V2.75h-.28Z"/><path class="cls-9" d="M61.82.74h.44l.84,1.35h0V.74h.41v2h-.44L62.24,1.4h0V2.75h-.41Z"/><path class="cls-9" d="M63.91.74h.87a.88.88,0,0,1,.91,1,.9.9,0,0,1-.91,1h-.87Zm.44,1.64h.4c.26,0,.5-.16.5-.61s-.15-.67-.58-.67h-.32Z"/><polygon class="cls-3" points="62.9 35.59 58.62 35.59 56.47 37.44 58.62 39.28 62.9 39.28 65.05 37.44 62.9 35.59"/><rect class="cls-3" x="79.09" y="20.43" width="3.14" height="3.69" rx="0.52"/><rect class="cls-3" x="79.83" y="20.43" width="7.4" height="3.69"/><polygon class="cls-3" points="80.97 22.28 83.11 24.12 87.4 24.12 89.54 22.28 87.4 20.43 83.11 20.43 80.97 22.28"/><path class="cls-9" d="M60.13,37.16c.18,0,.42,0,.42-.24a.25.25,0,0,0-.26-.26h0c-.2,0-.3.15-.3.35h-.38a.65.65,0,0,1,.68-.68.6.6,0,0,1,.66.54.39.39,0,0,1-.27.41h0a.44.44,0,0,1,.34.45.73.73,0,0,1-1.46-.07h.38c0,.22.11.39.35.39a.31.31,0,0,0,.32-.29v0c0-.3-.26-.29-.46-.29Z"/><path class="cls-9" d="M62.19,38.34h-.5l-.66-2h.46l.45,1.41h0l.45-1.41h.46Z"/><path class="cls-9" d="M63.48,37.16c.17,0,.42,0,.42-.24a.26.26,0,0,0-.26-.26h0c-.21,0-.31.15-.31.35h-.38a.66.66,0,0,1,.68-.68.61.61,0,0,1,.67.54.4.4,0,0,1-.28.41h0a.45.45,0,0,1,.35.45.74.74,0,0,1-1.47-.07h.38c0,.22.12.39.35.39a.3.3,0,0,0,.32-.29v0c0-.3-.26-.29-.46-.29Z"/><path class="cls-9" d="M81.3,22c.17,0,.42,0,.42-.24a.26.26,0,0,0-.26-.26h0c-.21,0-.31.15-.31.35h-.38a.65.65,0,0,1,.68-.68.61.61,0,0,1,.67.54.41.41,0,0,1-.28.41h0a.45.45,0,0,1,.35.45.74.74,0,0,1-1.47-.07h.38c0,.22.12.39.35.39a.3.3,0,0,0,.32-.28v0c0-.3-.26-.29-.46-.29Z"/><path class="cls-9" d="M83.35,23.18h-.5l-.65-2h.45l.45,1.41h0l.45-1.41H84Z"/><path class="cls-9" d="M84.64,22c.17,0,.42,0,.42-.24a.26.26,0,0,0-.26-.26h0a.3.3,0,0,0-.3.35h-.39a.66.66,0,0,1,.69-.68.61.61,0,0,1,.66.54.4.4,0,0,1-.28.41h0a.45.45,0,0,1,.35.45.67.67,0,0,1-.73.65A.68.68,0,0,1,84,22.5h.39c0,.22.11.39.34.39a.3.3,0,0,0,.32-.28,0,0,0,0,0,0,0c0-.3-.26-.29-.46-.29Z"/><polygon class="cls-4" points="81.82 56.19 86.1 56.19 88.25 58.04 86.1 59.88 81.82 59.88 79.67 58.04 81.82 56.19"/><path class="cls-9" d="M81.86,58.71a.68.68,0,0,1-.55.28,1.06,1.06,0,0,1,0-2.11.79.79,0,0,1,.84.71h-.42a.4.4,0,0,0-.42-.34c-.4,0-.55.34-.55.69s.15.68.55.68a.44.44,0,0,0,.48-.44h-.45v-.33h.84v1.09H81.9Z"/><path class="cls-9" d="M82.54,56.93H83l.84,1.35h0V56.93h.41v2H83.8L83,57.59h0v1.35h-.41Z"/><path class="cls-9" d="M84.63,56.93h.87a.88.88,0,0,1,.91,1,.9.9,0,0,1-.91,1h-.87Zm.44,1.64h.4c.26,0,.5-.16.5-.61s-.14-.67-.58-.67h-.32Z"/><path class="cls-9" d="M69.8,16.37a.59.59,0,0,1,.66.53.42.42,0,0,1-.29.41h0a.46.46,0,0,1,.37.48.66.66,0,0,1-.74.62c-.37,0-.75-.19-.75-.61a.47.47,0,0,1,.37-.49h0a.38.38,0,0,1-.29-.4A.6.6,0,0,1,69.8,16.37Zm0,1.75a.31.31,0,0,0,.33-.31,0,0,0,0,0,0,0,.33.33,0,0,0-.33-.31h0a.31.31,0,0,0-.35.31.34.34,0,0,0,.33.34Zm0-.92a.26.26,0,0,0,.29-.26.25.25,0,0,0-.29-.27.26.26,0,0,0-.3.24v0a.27.27,0,0,0,.3.26Z"/><rect class="cls-5" x="79.11" width="3.14" height="3.69" rx="0.52"/><path class="cls-9" d="M69.33,23.34h-.4V22.06h-.49v-.3c.27,0,.53-.09.57-.4h.32Z"/><path class="cls-9" d="M70.57,21.32c.4,0,.73.25.73,1s-.33,1-.73,1-.72-.25-.72-1S70.18,21.32,70.57,21.32Zm0,1.73c.33,0,.33-.49.33-.71s0-.69-.33-.69-.32.49-.32.69S70.25,23.05,70.57,23.05Z"/><path class="cls-9" d="M69.33,33.59h-.4V32.31h-.49V32c.27,0,.53-.09.57-.4h.32Z"/><path class="cls-9" d="M70.67,33.13h-.83v-.37l.86-1.15h.35V32.8h.26v.33h-.26v.46h-.38Zm0-1h0l-.51.68h.52Z"/><path class="cls-9" d="M68.33,47.7a.7.7,0,0,1,.72-.79.62.62,0,0,1,.67.61c0,.6-.63.65-.92,1h.93v.35H68.29c0-.46.28-.65.62-.88.17-.12.41-.24.41-.48a.28.28,0,0,0-.26-.31h0c-.24,0-.32.25-.32.46Z"/><path class="cls-9" d="M70.57,46.91c.4,0,.73.24.73,1s-.33,1-.73,1-.72-.25-.72-1S70.18,46.91,70.57,46.91Zm0,1.72c.33,0,.33-.49.33-.71s0-.69-.33-.69-.32.49-.32.69S70.25,48.63,70.57,48.63Z"/><path class="cls-9" d="M68.33,58a.7.7,0,0,1,.72-.79.62.62,0,0,1,.67.61c0,.6-.63.65-.92,1.06h.93v.34H68.29c0-.46.28-.65.62-.88.17-.12.41-.24.41-.48a.28.28,0,0,0-.26-.31h0c-.24,0-.32.25-.32.46Z"/><path class="cls-9" d="M70.67,58.79h-.83v-.36l.86-1.15h.35v1.18h.26v.33h-.26v.46h-.38Zm0-1h0l-.5.68h.52Z"/><path class="cls-9" d="M76.87,16.55a2.75,2.75,0,0,0-.72,1.83h-.48a3.31,3.31,0,0,1,.74-1.8h-1v-.42h1.51Z"/><polygon class="cls-5" points="84.64 0 80.93 0 79.08 1.85 80.93 3.69 84.64 3.69 86.5 1.85 84.64 0"/><path class="cls-9" d="M80.29.74h.44l.84,1.35h0V.74H82v2h-.44L80.71,1.4h0V2.75h-.42Z"/><path class="cls-9" d="M83.72,1.41a.44.44,0,0,0-.44-.35c-.4,0-.54.34-.54.69s.14.68.54.68A.46.46,0,0,0,83.74,2h.43a.84.84,0,0,1-.88.82,1,1,0,0,1-1-1,1,1,0,0,1,1-1.06.81.81,0,0,1,.86.72Z"/><rect class="cls-5" x="79.11" y="5.05" width="3.14" height="3.69" rx="0.52"/><polygon class="cls-5" points="84.64 5.05 80.93 5.05 79.08 6.9 80.93 8.74 84.64 8.74 86.5 6.9 84.64 5.05"/><path class="cls-9" d="M80.29,5.78h.44l.84,1.35h0V5.78H82v2h-.44l-.84-1.35h0V7.8h-.42Z"/><path class="cls-9" d="M83.72,6.46a.43.43,0,0,0-.44-.35c-.4,0-.54.33-.54.69s.14.67.54.67A.46.46,0,0,0,83.74,7h.43a.84.84,0,0,1-.88.83,1,1,0,0,1-1-1,1,1,0,0,1,1-1.06.81.81,0,0,1,.86.72Z"/><rect class="cls-5" x="79.11" y="10.25" width="3.14" height="3.69" rx="0.52"/><polygon class="cls-5" points="84.64 10.25 80.93 10.25 79.08 12.1 80.93 13.94 84.64 13.94 86.5 12.1 84.64 10.25"/><path class="cls-9" d="M80.29,11h.44l.84,1.35h0V11H82v2h-.44l-.84-1.35h0V13h-.42Z"/><path class="cls-9" d="M83.72,11.66a.44.44,0,0,0-.44-.35c-.4,0-.54.34-.54.69s.14.68.54.68a.46.46,0,0,0,.46-.45h.43a.84.84,0,0,1-.88.82,1,1,0,0,1-1-1.05,1,1,0,0,1,1-1.06.81.81,0,0,1,.86.73Z"/><rect class="cls-5" x="63.79" y="10.25" width="3.14" height="3.69" rx="0.52"/><polygon class="cls-5" points="61.36 10.25 65.08 10.25 66.93 12.1 65.08 13.94 61.36 13.94 59.51 12.1 61.36 10.25"/><path class="cls-9" d="M61.93,11h.44l.84,1.35h0V11h.41v2h-.44l-.84-1.35h0V13h-.41Z"/><path class="cls-9" d="M65.36,11.66a.43.43,0,0,0-.44-.35c-.39,0-.54.34-.54.69s.15.68.54.68a.46.46,0,0,0,.46-.45h.43a.85.85,0,0,1-.89.82,1,1,0,0,1-1-1.05,1,1,0,0,1,1-1.06.82.82,0,0,1,.87.73Z"/><rect class="cls-5" x="63.79" y="5.13" width="3.14" height="3.69" rx="0.52"/><polygon class="cls-5" points="61.36 5.13 65.08 5.13 66.93 6.97 65.08 8.82 61.36 8.82 59.51 6.97 61.36 5.13"/><path class="cls-9" d="M61.93,5.86h.44l.84,1.35h0V5.86h.41v2h-.44l-.84-1.34h0V7.87h-.41Z"/><path class="cls-9" d="M65.36,6.54a.45.45,0,0,0-.44-.36c-.4,0-.55.34-.55.7s.15.67.55.67a.46.46,0,0,0,.46-.45h.43a.85.85,0,0,1-.89.82,1,1,0,0,1-1-1,1,1,0,0,1,1-1.06.82.82,0,0,1,.87.72Z"/><rect class="cls-5" x="63.8" y="30.42" width="3.14" height="3.69" rx="0.52"/><polygon class="cls-5" points="61.37 30.42 65.08 30.42 66.94 32.27 65.08 34.11 61.37 34.11 59.51 32.27 61.37 30.42"/><path class="cls-9" d="M61.94,31.15h.44l.84,1.35h0V31.15h.42v2h-.45l-.83-1.34h0v1.34h-.41Z"/><path class="cls-9" d="M65.37,31.83a.44.44,0,0,0-.44-.35c-.4,0-.55.33-.55.69s.15.67.55.67a.44.44,0,0,0,.45-.45h.43a.84.84,0,0,1-.88.83,1.06,1.06,0,0,1,0-2.11.81.81,0,0,1,.86.72Z"/><rect class="cls-5" x="63.8" y="45.85" width="3.14" height="3.69" rx="0.52"/><polygon class="cls-5" points="61.37 45.85 65.08 45.85 66.94 47.7 65.08 49.55 61.37 49.55 59.51 47.7 61.37 45.85"/><path class="cls-9" d="M61.94,46.59h.44l.84,1.35h0V46.59h.42v2h-.45l-.83-1.35h0V48.6h-.41Z"/><path class="cls-9" d="M65.37,47.26a.46.46,0,0,0-.44-.35c-.4,0-.55.34-.55.7s.15.67.55.67a.44.44,0,0,0,.45-.45h.43a.84.84,0,0,1-.88.82,1,1,0,0,1-1-1,1,1,0,0,1,1-1.07.81.81,0,0,1,.86.73Z"/><rect class="cls-5" x="63.8" y="51.11" width="3.14" height="3.69" rx="0.52"/><polygon class="cls-5" points="61.37 51.11 65.08 51.11 66.94 52.95 65.08 54.8 61.37 54.8 59.51 52.95 61.37 51.11"/><path class="cls-9" d="M61.94,51.84h.44l.84,1.35h0V51.84h.42v2h-.45l-.83-1.34h0v1.34h-.41Z"/><path class="cls-9" d="M65.37,52.52a.44.44,0,0,0-.44-.35c-.4,0-.55.33-.55.69s.15.67.55.67a.44.44,0,0,0,.45-.45h.43a.84.84,0,0,1-.88.82,1.05,1.05,0,0,1,0-2.1.81.81,0,0,1,.86.72Z"/><rect class="cls-5" x="63.8" y="56.19" width="3.14" height="3.69" rx="0.52"/><polygon class="cls-5" points="61.37 56.19 65.08 56.19 66.94 58.04 65.08 59.88 61.37 59.88 59.51 58.04 61.37 56.19"/><path class="cls-9" d="M61.94,56.93h.44l.84,1.35h0V56.93h.42v2h-.45l-.83-1.35h0v1.35h-.41Z"/><path class="cls-9" d="M65.37,57.6a.45.45,0,0,0-.44-.35c-.4,0-.55.34-.55.69s.15.68.55.68a.45.45,0,0,0,.45-.45h.43a.84.84,0,0,1-.88.82,1.06,1.06,0,0,1,0-2.11.81.81,0,0,1,.86.72Z"/><polygon class="cls-5" points="84.64 25.48 80.93 25.48 79.08 27.32 80.93 29.16 84.64 29.16 86.5 27.32 84.64 25.48"/><rect class="cls-5" x="79.1" y="25.49" width="3.14" height="3.69" rx="0.52"/><path class="cls-9" d="M80.29,26.21h.44l.84,1.35h0V26.21H82v2h-.44l-.84-1.34h0v1.34h-.42Z"/><path class="cls-9" d="M83.72,26.89a.45.45,0,0,0-.44-.36c-.4,0-.54.34-.54.7s.14.67.54.67a.46.46,0,0,0,.46-.45h.43a.84.84,0,0,1-.88.82,1,1,0,0,1-1-1,1,1,0,0,1,1-1.07.81.81,0,0,1,.86.73Z"/><rect class="cls-5" x="79.1" y="45.85" width="3.14" height="3.69" rx="0.52"/><polygon class="cls-5" points="84.64 45.86 80.93 45.86 79.08 47.7 80.93 49.55 84.64 49.55 86.5 47.7 84.64 45.86"/><path class="cls-9" d="M80.29,46.59h.44l.84,1.35h0V46.59H82v2h-.44l-.84-1.35h0v1.35h-.42Z"/><path class="cls-9" d="M83.72,47.27a.43.43,0,0,0-.44-.35c-.4,0-.54.34-.54.69s.14.68.54.68.42-.19.46-.46h.43a.84.84,0,0,1-.88.83,1.06,1.06,0,0,1,0-2.11.81.81,0,0,1,.86.72Z"/><rect class="cls-5" x="79.1" y="51.18" width="3.14" height="3.69" rx="0.52"/><polygon class="cls-5" points="84.64 51.19 80.93 51.19 79.08 53.04 80.93 54.88 84.64 54.88 86.5 53.04 84.64 51.19"/><path class="cls-9" d="M80.29,51.93h.44l.84,1.35h0V51.93H82v2h-.44l-.84-1.35h0v1.35h-.42Z"/><path class="cls-9" d="M83.72,52.61a.45.45,0,0,0-.44-.36c-.4,0-.54.34-.54.7s.14.67.54.67a.46.46,0,0,0,.46-.45h.43a.84.84,0,0,1-.88.82,1,1,0,0,1-1-1,1,1,0,0,1,1-1.07.81.81,0,0,1,.86.73Z"/><path class="cls-9" d="M75.6,33.59h-.45V32.15h-.56v-.34c.32,0,.6-.1.65-.44h.36Z"/><path class="cls-9" d="M76.84,32.27c.19,0,.47,0,.47-.28A.29.29,0,0,0,77,31.7h0a.34.34,0,0,0-.34.39h-.43a.73.73,0,0,1,.76-.76.69.69,0,0,1,.75.61.45.45,0,0,1-.31.45h0a.5.5,0,0,1,.39.5.82.82,0,0,1-1.64-.07h.42c0,.24.13.43.39.43a.34.34,0,0,0,.36-.32v0c0-.33-.29-.33-.51-.33Z"/><path class="cls-9" d="M75.6,38.66h-.45V37.22h-.56v-.34c.32,0,.6-.1.65-.44h.36Z"/><path class="cls-9" d="M77.7,36.81h-.91l-.09.5h0a.54.54,0,0,1,.43-.17.69.69,0,0,1,.68.75.8.8,0,0,1-.8.8h0a.74.74,0,0,1-.82-.71h.44a.37.37,0,0,0,.37.34.4.4,0,0,0,.38-.43.38.38,0,0,0-.38-.41.35.35,0,0,0-.34.17h-.41l.22-1.23H77.7Z"/><path class="cls-6" d="M79.35,15.44H89.43c.15,0,.27.17.27.38v2.92c0,.21-.12.37-.27.37H79.35c-.15,0-.27-.16-.27-.37V15.82C79.08,15.61,79.2,15.44,79.35,15.44Z"/><polygon class="cls-6" points="91.55 15.45 87.86 15.45 86.01 17.28 87.86 19.12 91.55 19.12 93.4 17.28 91.55 15.45"/><path class="cls-6" d="M66.93,15.83v2.92a.35.35,0,0,1-.33.37H54.33a.35.35,0,0,1-.33-.37V15.83a.36.36,0,0,1,.33-.38H66.6A.36.36,0,0,1,66.93,15.83Z"/><polygon class="cls-6" points="52.29 17.29 54.14 19.13 57.83 19.13 59.68 17.29 57.83 15.46 54.14 15.46 52.29 17.29"/><path class="cls-9" d="M54.23,16.2h.44v2h-.44Z"/><path class="cls-9" d="M55,17a.7.7,0,0,1,.71-.8.63.63,0,0,1,.68.62c0,.59-.63.64-.92,1h.93v.34H54.92c0-.45.28-.64.62-.87.18-.12.42-.24.42-.48a.29.29,0,0,0-.3-.31c-.23,0-.31.25-.31.46Z"/><path class="cls-9" d="M58,16.88a.44.44,0,0,0-.44-.35c-.4,0-.55.33-.55.68s.15.67.55.67a.44.44,0,0,0,.45-.44h.43a.84.84,0,0,1-.88.81,1,1,0,0,1,0-2.09.8.8,0,0,1,.86.72Z"/><path class="cls-9" d="M58.55,18.42H60v.14h-1.4Z"/><path class="cls-9" d="M60.45,17.54c0,.27.2.37.44.37s.39,0,.39-.25-.3-.25-.6-.33-.59-.2-.59-.57.38-.61.75-.61.8.19.8.65h-.43c0-.24-.18-.3-.39-.3s-.31.06-.31.22.1.18.6.31c.15,0,.6.13.6.58s-.29.64-.84.64S60,18,60,17.54Z"/><path class="cls-9" d="M62,16.2h.86a.88.88,0,0,1,.91,1,.9.9,0,0,1-.91,1H62Zm.44,1.64h.39c.25,0,.5-.16.5-.6s-.15-.67-.58-.67h-.31v1.27Z"/><path class="cls-9" d="M64.59,16.2H65l.75,2h-.45l-.16-.45h-.75l-.15.45h-.45Zm0,1.23h.52l-.25-.73h0Z"/><path class="cls-9" d="M80.25,16.21h.44v2h-.44Z"/><path class="cls-9" d="M81,17a.7.7,0,0,1,.71-.8.63.63,0,0,1,.68.62c0,.59-.64.64-.92,1h.93v.34H80.94c0-.45.28-.64.62-.87.17-.12.42-.24.42-.48a.29.29,0,0,0-.3-.31c-.23,0-.31.25-.31.46Z"/><path class="cls-9" d="M84,16.89a.44.44,0,0,0-.43-.36c-.4,0-.55.34-.55.69s.15.67.55.67a.44.44,0,0,0,.45-.45h.43a.84.84,0,0,1-.88.82,1,1,0,0,1,0-2.09.81.81,0,0,1,.86.72Z"/><path class="cls-9" d="M84.51,18.43h1.4v.14h-1.4Z"/><path class="cls-9" d="M86.4,17.55c0,.27.21.37.45.37s.39,0,.39-.25-.31-.25-.6-.33-.6-.2-.6-.57a.67.67,0,0,1,.75-.61c.42,0,.81.19.81.65h-.43c0-.24-.18-.3-.4-.3s-.3.06-.3.22.1.18.6.31c.15,0,.59.13.59.58s-.28.64-.83.64S86,18,86,17.55Z"/><path class="cls-9" d="M89.26,16.89a.44.44,0,0,0-.44-.36c-.39,0-.54.34-.54.69s.14.67.54.67a.46.46,0,0,0,.46-.45h.42a.84.84,0,0,1-.88.82,1,1,0,0,1,0-2.09.8.8,0,0,1,.86.72Z"/><path class="cls-9" d="M90,16.21h.44v1.63h1v.37H90Z"/><path class="cls-6" d="M79.38,40.67H89.54c.15,0,.27.17.27.38V44c0,.21-.12.38-.27.38H79.38c-.15,0-.28-.17-.28-.38V41.05C79.1,40.84,79.23,40.67,79.38,40.67Z"/><polygon class="cls-6" points="91.67 40.67 87.95 40.67 86.09 42.52 87.95 44.37 91.67 44.37 93.53 42.52 91.67 40.67"/><path class="cls-6" d="M66.94,41.06V44a.36.36,0,0,1-.33.38H54.24a.36.36,0,0,1-.33-.38V41.06a.36.36,0,0,1,.33-.38H66.61A.36.36,0,0,1,66.94,41.06Z"/><polygon class="cls-6" points="52.19 42.53 54.05 44.38 57.77 44.38 59.63 42.53 57.77 40.68 54.05 40.68 52.19 42.53"/><path class="cls-9" d="M80.26,41.43h.45v2h-.45Z"/><path class="cls-9" d="M81,42.23a.7.7,0,0,1,.71-.8.63.63,0,0,1,.68.62c0,.6-.63.65-.92,1.06h.93v.34H81c0-.46.28-.65.63-.88.17-.12.41-.24.41-.49a.28.28,0,0,0-.3-.3c-.23,0-.31.24-.31.45Z"/><path class="cls-9" d="M84,42.11a.43.43,0,0,0-.44-.35c-.4,0-.55.34-.55.69s.15.68.55.68a.46.46,0,0,0,.46-.45h.43a.85.85,0,0,1-.89.82,1.06,1.06,0,0,1,0-2.11.82.82,0,0,1,.87.72Z"/><path class="cls-9" d="M84.61,43.66H86v.15H84.61Z"/><path class="cls-9" d="M86.52,42.78c0,.27.21.37.45.37s.39,0,.39-.25-.3-.25-.6-.33-.6-.2-.6-.57.39-.61.75-.61.81.18.81.65h-.43c0-.24-.18-.31-.39-.31s-.31.06-.31.23.1.18.6.3c.15,0,.6.14.6.59s-.29.65-.84.65-.86-.22-.86-.72Z"/><path class="cls-9" d="M88.05,41.43h.87a.89.89,0,0,1,.92,1,.9.9,0,0,1-.92,1h-.87Zm.45,1.65h.39c.26,0,.5-.16.5-.61s-.14-.66-.58-.66H88.5v1.27Z"/><path class="cls-9" d="M90.7,41.43h.45l.76,2h-.46L91.29,43h-.75l-.16.45h-.45Zm0,1.24h.52l-.26-.74h0Z"/><path class="cls-8" d="M79.38,30.54H89.54c.15,0,.27.17.27.38v2.94c0,.21-.12.38-.27.38H79.38c-.15,0-.28-.17-.28-.38V30.92C79.1,30.71,79.23,30.54,79.38,30.54Z"/><polygon class="cls-8" points="92.15 30.53 88.43 30.53 86.57 32.38 88.43 34.23 92.15 34.23 94.01 32.38 92.15 30.53"/><path class="cls-9" d="M54.56,41.44H55v2h-.45Z"/><path class="cls-9" d="M55.3,42.24a.71.71,0,0,1,.72-.8.63.63,0,0,1,.68.62c0,.6-.63.65-.92,1.06h.93v.34H55.26c0-.46.28-.65.62-.88.18-.12.42-.24.42-.49a.28.28,0,0,0-.3-.3c-.23,0-.31.24-.31.45Z"/><path class="cls-9" d="M58.31,42.12a.43.43,0,0,0-.44-.35c-.4,0-.55.34-.55.69s.15.68.55.68.42-.19.46-.46h.43a.85.85,0,0,1-.89.83,1.06,1.06,0,0,1,0-2.11.82.82,0,0,1,.87.72Z"/><path class="cls-9" d="M58.85,43.67h1.41v.15H58.85Z"/><path class="cls-9" d="M60.76,42.79c0,.27.21.37.45.37s.39,0,.39-.25-.31-.25-.6-.33-.6-.2-.6-.57.39-.61.75-.61.81.18.81.65h-.43c0-.24-.18-.31-.4-.31s-.3.06-.3.23.09.18.6.3c.15,0,.6.14.6.59s-.29.65-.84.65-.87-.22-.86-.72Z"/><path class="cls-9" d="M63.64,42.12a.45.45,0,0,0-.45-.35c-.39,0-.54.34-.54.69s.15.68.54.68a.45.45,0,0,0,.46-.46h.43a.85.85,0,0,1-.89.83,1.06,1.06,0,0,1,0-2.11.81.81,0,0,1,.87.72Z"/><path class="cls-9" d="M64.38,41.44h.45v1.65h1v.37H64.38Z"/><polygon class="cls-7" points="85.87 35.72 82.15 35.72 80.29 37.57 82.15 39.42 85.87 39.42 87.73 37.57 85.87 35.72"/><rect class="cls-7" x="79.1" y="35.72" width="6.67" height="3.7" rx="0.15"/><path class="cls-9" d="M80.45,36.65h.44v2h-.44Z"/><path class="cls-9" d="M81.27,36.65h.44L82.55,38h0V36.65H83v2h-.44l-.84-1.35h0v1.35h-.42Z"/><path class="cls-9" d="M83.8,37h-.6v-.37h1.64V37h-.6v1.64H83.8Z"/><polygon class="cls-7" points="60.16 20.5 63.88 20.5 65.74 22.35 63.88 24.2 60.16 24.2 58.3 22.35 60.16 20.5"/><rect class="cls-7" x="60.26" y="20.5" width="6.67" height="3.7" rx="0.15" transform="translate(127.19 44.7) rotate(-180)"/><path class="cls-9" d="M61.35,21.43h.44v2h-.44Z"/><path class="cls-9" d="M62.18,21.43h.43l.84,1.35h0V21.43h.41v2h-.44l-.84-1.34h0v1.34h-.41Z"/><path class="cls-9" d="M64.7,21.8h-.6v-.37h1.64v.37h-.6v1.64H64.7Z"/><path class="cls-9" d="M82,32.15a.43.43,0,0,0-.43-.35c-.4,0-.55.34-.55.69s.15.67.55.67a.44.44,0,0,0,.45-.45h.43a.85.85,0,0,1-.88.82,1.05,1.05,0,0,1,0-2.1.81.81,0,0,1,.86.72Z"/><path class="cls-9" d="M82.71,31.48h.44v1.63h1v.37H82.71Z"/><path class="cls-9" d="M84.37,31.48h.44v.83l.78-.83h.55l-.78.79.86,1.21h-.55l-.61-.9-.25.26v.64h-.44Z"/><path class="cls-9" d="M87.29,31.43a1.05,1.05,0,1,1-1,1.06A1,1,0,0,1,87.29,31.43Zm0,1.73c.4,0,.55-.34.55-.67s-.15-.69-.55-.69-.54.34-.54.69S86.9,33.16,87.29,33.16Z"/><path class="cls-9" d="M90.28,32.72c0,.55-.32.81-.86.81a.74.74,0,0,1-.85-.81V31.48H89v1.24c0,.22.06.44.41.44s.42-.14.42-.44V31.48h.44Z"/><path class="cls-9" d="M91.1,31.85h-.6v-.37h1.64v.37h-.6v1.63H91.1Z"/><path class="cls-8" d="M66.69,25.55H56.53c-.15,0-.27.17-.27.38v2.94c0,.21.12.38.27.38H66.69c.15,0,.27-.17.27-.38V25.93C67,25.72,66.84,25.55,66.69,25.55Z"/><polygon class="cls-8" points="53.92 25.55 57.64 25.55 59.5 27.39 57.64 29.25 53.92 29.25 52.05 27.39 53.92 25.55"/><path class="cls-9" d="M55.56,27.17a.45.45,0,0,0-.44-.36c-.4,0-.55.34-.55.69s.15.67.55.67a.44.44,0,0,0,.45-.45H56a.84.84,0,0,1-.88.82,1,1,0,0,1-1-1,1,1,0,0,1,1-1.06.81.81,0,0,1,.86.73Z"/><path class="cls-9" d="M56.3,26.49h.44v1.64h1v.37H56.3Z"/><path class="cls-9" d="M58,26.49h.44v.83l.79-.83h.55l-.79.79.86,1.22h-.55l-.6-.91-.26.26v.65H58Z"/><path class="cls-9" d="M60.89,26.44a1,1,0,0,1,1,1.06,1,1,0,1,1-2,0A1,1,0,0,1,60.89,26.44Zm0,1.73c.39,0,.54-.33.54-.67s-.15-.69-.54-.69-.55.34-.55.69S60.49,28.17,60.89,28.17Z"/><path class="cls-9" d="M63.87,27.74a.74.74,0,0,1-.85.8c-.55,0-.86-.25-.86-.8V26.49h.44v1.25c0,.22.06.43.42.43s.41-.13.41-.43V26.49h.44Z"/><path class="cls-9" d="M64.69,26.86h-.6v-.37h1.65v.37h-.6V28.5h-.45Z"/><path class="cls-10" d="M28.36,15.77V44.12H0V28.84H1.84a3.88,3.88,0,0,0,4-3.75v-.26a3.88,3.88,0,0,0-4-3.75H0V15.77Z"/><path class="cls-11" d="M5.83,24.86v.26a3.86,3.86,0,0,1-4,3.72H0V27.27H1.7a2.43,2.43,0,1,0,0-4.84H0v-1.3H1.84a3.88,3.88,0,0,1,4,3.73"/><rect class="cls-12" x="5.3" y="23.38" width="11.01" height="18.55"/><g id="square" class="cls-13"><g class="cls-14"><g class="cls-14"><path class="cls-9" d="M11.44,18.15v1.34a.25.25,0,0,1-.25.25H10a.26.26,0,0,1-.24-.25V18.15a.24.24,0,0,1,.24-.24h1.15a.26.26,0,0,1,.25.24"/></g></g></g><g id="square-2" class="cls-13"><g class="cls-15"><g class="cls-15"><path class="cls-9" d="M11.44,20.71V22a.25.25,0,0,1-.25.25H10A.26.26,0,0,1,9.8,22V20.71a.26.26,0,0,1,.24-.25h1.15a.25.25,0,0,1,.25.25"/></g></g></g><path class="cls-16" d="M7.18,17.63h.63a.4.4,0,0,1,.39.4v3.86a.4.4,0,0,1-.39.4H7.18a.4.4,0,0,1-.4-.4V18a.4.4,0,0,1,.4-.4"/><path class="cls-17" d="M7.12,18.13h.74a.34.34,0,0,1,.34.34h0v2.81a.34.34,0,0,1-.34.34H7.12a.34.34,0,0,1-.34-.34h0V18.47a.34.34,0,0,1,.34-.34h0"/><path class="cls-18" d="M7,18.36H8.12a.24.24,0,0,1,.24.23v2.62a.23.23,0,0,1-.23.23H7a.23.23,0,0,1-.23-.23V18.59A.23.23,0,0,1,7,18.36"/><rect class="cls-19" x="6.78" y="19.07" width="1.57" height="1.77"/><polygon class="cls-16" points="16.05 34.99 15.01 34.99 15.01 34.01 16.05 34.01 16.05 31.13 15.01 31.13 15.01 30.15 16.05 30.15 16.05 27.55 15.01 27.55 15.01 26.53 9.56 26.53 9.56 38.56 15.01 38.56 15.01 37.65 16.05 37.65 16.05 34.99"/><path class="cls-16" d="M8.61,23.41v.45l-1.94.45h0l1.94.51v.45l-1.94.5h0l1.94.47v.45L6.08,26v-.43L8,25.05H8l-1.93-.52v-.46Z"/><path class="cls-16" d="M8.61,26.94v.41H8.22v-.41Zm-.7,0v.41H6.08v-.41Z"/><path class="cls-16" d="M6.67,28.09c-.24,0-.32.2-.32.41s0,.42.24.41.23-.3.3-.6.17-.54.54-.54.53.43.53.76a.7.7,0,0,1-.57.77v-.43c.2,0,.25-.19.25-.37s0-.33-.19-.33-.23.3-.29.59-.18.6-.54.6S6,28.92,6,28.54a.73.73,0,0,1,.64-.81Z"/><path class="cls-16" d="M8.61,29.65v1.19c0,.48-.16.81-.63.81a.56.56,0,0,1-.53-.34.61.61,0,0,1-.64.46c-.51,0-.73-.44-.73-.89V29.65Zm-1,.56v.56c0,.2.09.34.3.34s.29-.18.29-.38v-.52Zm-1.07,0v.56c0,.22.07.41.33.41s.36-.16.36-.4v-.6Z"/><path class="cls-16" d="M8.61,32.14v.56H6.54v1.23H6.08V32.14Z"/><path class="cls-16" d="M8.67,35.37a1.22,1.22,0,0,1-1.22,1.24H7.36a1.24,1.24,0,1,1,0-2.48h0a1.24,1.24,0,0,1,1.31,1.15Zm-2.19,0c0,.5.43.69.85.69s.87-.19.87-.69-.43-.69-.87-.69S6.48,34.87,6.48,35.37Z"/><path class="cls-16" d="M7.76,38.67a.54.54,0,0,0,.44-.55c0-.5-.43-.69-.87-.69s-.85.19-.85.69a.56.56,0,0,0,.55.57h0v.54a1.06,1.06,0,0,1-1-1.11,1.22,1.22,0,0,1,1.2-1.24h.11A1.24,1.24,0,0,1,8.7,38v.13a1,1,0,0,1-.9,1.09h0Z"/><path class="cls-16" d="M8.61,39.61v.55h-1l1,1v.69l-1-1L6.08,41.93v-.7l1.13-.76-.32-.32H6.08V39.6Z"/><path class="cls-16" d="M14.27,17.22v.87a.45.45,0,0,1-.43.47h0a.4.4,0,0,1-.41-.25h0c0,.17-.22.22-.39.23a.87.87,0,0,0-.39.07v-.35a1.34,1.34,0,0,1,.4-.06c.17,0,.25-.09.25-.27v-.35h-.65v-.36Zm-.75.36V18c0,.16.07.25.24.25S14,18.12,14,18v-.38Z"/><path class="cls-16" d="M13.82,19.58a.22.22,0,0,0,.2-.21c0-.23-.31-.3-.49-.31h0a.4.4,0,0,1,.18.36.53.53,0,0,1-.17.36.58.58,0,0,1-.36.12.56.56,0,0,1-.59-.51v0c0-.48.43-.61.83-.61s.85.17.85.62a.48.48,0,0,1-.45.51h0Zm-.66-.49a.28.28,0,0,0-.3.26h0a.28.28,0,0,0,.29.24c.16,0,.31-.08.31-.24a.26.26,0,0,0-.28-.26Z"/><path class="cls-16" d="M18.89,23.11v1a.52.52,0,0,1-.49.55h0a.46.46,0,0,1-.48-.3h0c0,.21-.25.27-.45.28a1,1,0,0,0-.47.13v-.45a1.84,1.84,0,0,1,.47-.06c.2,0,.29-.11.29-.32v-.42H17v-.41Zm-.87.41V24c0,.19.08.29.28.29s.26-.1.26-.29v-.46Z"/><path class="cls-16" d="M18.89,25.77v.42L17,26.9v-.43l.4-.13v-.71l-.43-.15v-.42Zm-1.18,0v.49l.71-.24h0Z"/><path class="cls-16" d="M18.89,27.26v.42h-.8l.8.74v.52l-.76-.74L17,29v-.52l.87-.57-.24-.24H17v-.42Z"/><path class="cls-16" d="M17,30.27v-.38h1.23v-.47h.29c0,.27.09.51.38.55v.3Z"/><path class="cls-16" d="M18.13,31a.67.67,0,0,1,.75.57.38.38,0,0,1,0,.1.6.6,0,0,1-.56.64h0c-.57,0-.62-.6-1-.87v.88H17V31c.45,0,.63.26.85.58s.23.39.46.39a.27.27,0,0,0,.29-.23v0c0-.23-.23-.3-.43-.3Z"/><path class="cls-16" d="M18.89,33.39c0,.37-.23.68-1,.68s-1-.31-1-.68.23-.68,1-.68S18.89,33,18.89,33.39Zm-1.65,0c0,.31.47.31.68.31s.66,0,.66-.31-.46-.3-.66-.3S17.24,33.09,17.24,33.39Z"/><path class="cls-16" d="M18.89,35.1c0,.37-.23.69-1,.69s-1-.32-1-.69.23-.68,1-.68S18.89,34.77,18.89,35.1Zm-1.65,0c0,.31.47.31.68.31s.66,0,.66-.31-.46-.3-.66-.3S17.24,34.77,17.24,35.1Z"/><path class="cls-16" d="M18.13,36.28a.67.67,0,0,1,.75.57.41.41,0,0,1,0,.11.6.6,0,0,1-.56.64h0c-.57,0-.62-.6-1-.87v.88H17V36.24c.45,0,.63.27.85.59.12.16.23.39.46.39a.27.27,0,0,0,.29-.25v0c0-.22-.23-.29-.43-.29Z"/><path class="cls-16" d="M17,40.42V40l1.93-.61v.43l-1.35.42h0l1.35.43v.43Z"/><path class="cls-16" d="M18.89,41.45v.89c0,.36-.12.61-.47.61a.43.43,0,0,1-.41-.26.47.47,0,0,1-.49.35c-.39,0-.56-.33-.56-.67v-.92Zm-.78.42v.42c0,.15.07.25.23.25s.22-.14.22-.28v-.39Zm-.82,0v.44c0,.16.06.31.26.31s.27-.12.27-.3v-.45Z"/><rect class="cls-16" x="16.52" y="37.82" width="0.51" height="1.45" rx="0.09"/><path class="cls-16" d="M4.9,18.27a.41.41,0,0,0,.34-.41c0-.38-.32-.52-.66-.52s-.65.14-.65.52a.45.45,0,0,0,.43.43v.4a.79.79,0,0,1-.79-.79v0a.91.91,0,0,1,.91-.93h.09a.93.93,0,0,1,1,.86v.07a.78.78,0,0,1-.7.82Z"/><path class="cls-16" d="M3.62,19.66v-.38H4.85v-.46h.29c0,.26.09.5.37.54v.3Z"/><path class="cls-16" d="M22.8,42.44a.63.63,0,0,1-.06-1.26h.17v.38h-.09c-.18,0-.32,0-.32.24s.18.22.32.22h1.3v.42Z"/><path class="cls-16" d="M22.19,43.49v-.38h1.23v-.46h.29c0,.26.08.5.37.54v.3Z"/><path class="cls-16" d="M4.24,30.56a.55.55,0,0,1-.47.62h0a.4.4,0,0,1-.4-.27h0a.43.43,0,0,1-.46.34.61.61,0,0,1-.59-.65v0c0-.36.18-.71.59-.71a.44.44,0,0,1,.46.35h0a.37.37,0,0,1,.39-.27.55.55,0,0,1,.51.6Zm-1.67,0a.31.31,0,0,0,.3.32h0a.33.33,0,0,0,0-.65.31.31,0,0,0-.32.3Zm.87,0a.26.26,0,0,0,.52,0,.27.27,0,0,0-.25-.29h0a.25.25,0,0,0-.25.27Z"/><path class="cls-16" d="M3.48,31.65a.67.67,0,0,1,.75.57.38.38,0,0,1,0,.1.6.6,0,0,1-.56.64h0c-.57,0-.62-.6-1-.87V33H2.36V31.61c.44,0,.62.26.84.58s.23.4.46.4a.29.29,0,0,0,.3-.26v0c0-.23-.24-.3-.44-.3Z"/><path class="cls-16" d="M3.72,34.32A.27.27,0,0,0,4,34.07c0-.27-.37-.35-.58-.36h0a.45.45,0,0,1,.22.42.6.6,0,0,1-.2.43A.71.71,0,0,1,3,34.7a.65.65,0,0,1-.69-.61v0c0-.56.5-.72,1-.72s1,.21,1,.73a.58.58,0,0,1-.52.61ZM3,33.75a.33.33,0,0,0-.36.3h0a.32.32,0,0,0,.35.28c.18,0,.36-.09.36-.28A.31.31,0,0,0,3,33.77H3Z"/><path class="cls-16" d="M2.36,36.07v-.38H3.54v-.47h.29a.47.47,0,0,0,.37.55h0v.3Z"/><path class="cls-16" d="M4.24,37.5c0,.37-.23.68-1,.68s-1-.31-1-.68.24-.68,1-.68S4.24,37.13,4.24,37.5Zm-1.65,0c0,.31.47.31.68.31s.66,0,.66-.31-.46-.31-.66-.31S2.59,37.19,2.59,37.5Z"/><path class="cls-16" d="M4.24,39.23c0,.38-.23.69-1,.69s-1-.31-1-.69.24-.68,1-.68S4.24,38.86,4.24,39.23Zm-1.65,0c0,.31.47.31.68.31s.66,0,.66-.31-.46-.3-.66-.3S2.59,38.93,2.59,39.23Z"/><path class="cls-16" d="M2.36,41.28V40.9H3.54v-.47h.29a.48.48,0,0,0,.38.55v.3Z"/><path class="cls-16" d="M4.24,42.15v1a.52.52,0,0,1-.49.55h0a.49.49,0,0,1-.48-.3h0c0,.21-.25.26-.45.28a1,1,0,0,0-.42.09v-.4a2.32,2.32,0,0,1,.46-.07c.2,0,.29-.1.29-.31v-.42H2.36v-.42Zm-.87.42V43c0,.19.08.29.28.29s.27-.1.27-.29v-.46Z"/><rect class="cls-20" x="6.04" y="17.37" width="5.99" height="5.99" rx="0.2"/><line class="cls-20" x1="9.04" y1="17.37" x2="9.04" y2="23.36"/><path class="cls-16" d="M27.65,36.52a.23.23,0,0,0,0,.31l.3.3s.19.23.31-.1a1.26,1.26,0,0,0,0-.72s-.1-.3-.31-.12Z"/><path class="cls-9" d="M19.73,22.66V19.37h8v3.29a.25.25,0,0,1-.5,0V19.87h-7v2.79a.25.25,0,0,1-.5,0Z"/><path class="cls-9" d="M19.73,37.53v3.3h8v-3.3a.25.25,0,0,0-.5,0v2.8h-7v-2.8a.25.25,0,0,0-.5,0Z"/><g id="slot-male-connector"><g class="cls-21"><g class="cls-21"><path class="cls-22" d="M21.07,21.09v-.25a.42.42,0,0,1,.42-.41h4.4a.41.41,0,0,1,.41.41v.25a.41.41,0,0,1-.4.42H21.49a.42.42,0,0,1-.42-.42h0"/><path class="cls-22" d="M21.07,38.64v-.25a.42.42,0,0,1,.42-.42h4.4a.41.41,0,0,1,.41.41h0v.25a.41.41,0,0,1-.41.41h-4.4a.42.42,0,0,1-.42-.41"/><path class="cls-23" d="M24.92,39.47h.44a.42.42,0,0,0,.42-.42h0V38.2a.41.41,0,0,0-.26-.39v-16a.4.4,0,0,0,.26-.38v-.84a.42.42,0,0,0-.42-.42h-.42a.42.42,0,0,0-.4.3H22.86a.43.43,0,0,0-.39-.3H22a.42.42,0,0,0-.42.42h0v.86a.41.41,0,0,0,.28.36v16a.41.41,0,0,0-.28.39V39a.42.42,0,0,0,.42.42h.43a.4.4,0,0,0,.38-.26h1.68a.42.42,0,0,0,.39.26"/><path class="cls-24" d="M22.28,37.38V22.24a.21.21,0,0,1,.2-.22h2.33a.22.22,0,0,1,.22.22V37.38a.22.22,0,0,1-.22.21H22.49a.21.21,0,0,1-.21-.21"/><path class="cls-22" d="M27.2,23.6v-.48a.12.12,0,0,0-.11-.13h-.44a.13.13,0,0,0-.12.12H25.36v.49h1.17a.13.13,0,0,0,.08.16h.47a.12.12,0,0,0,.12-.12h0"/><path class="cls-25" d="M25,23.54v-.63a.11.11,0,0,1,.08-.14h.3a.11.11,0,0,1,.11.11h0v.63a.1.1,0,0,1-.1.1h-.31a.1.1,0,0,1-.11-.09h0"/><path class="cls-22" d="M20.1,23.6v-.48a.13.13,0,0,1,.13-.13h.42a.12.12,0,0,1,.12.12H21.9v.49H20.77a.12.12,0,0,1-.06.16h-.48a.13.13,0,0,1-.13-.13h0"/><path class="cls-25" d="M22.36,23.54v-.63a.1.1,0,0,0-.1-.11H22a.09.09,0,0,0-.1.1h0v.63a.09.09,0,0,0,.08.1h.29a.1.1,0,0,0,.1-.1"/><path class="cls-22" d="M27.2,24.77v-.49a.12.12,0,0,0-.11-.13h-.44a.12.12,0,0,0-.12.13H25.36v.49h1.17a.14.14,0,0,0,.12.12h.43a.12.12,0,0,0,.12-.12"/><path class="cls-25" d="M25,24.7v-.63a.09.09,0,0,1,.1-.1h.28a.1.1,0,0,1,.11.09h0v.63a.09.09,0,0,1-.11.07h-.3a.1.1,0,0,1-.11-.09h0"/><path class="cls-22" d="M20.1,24.77v-.49a.13.13,0,0,1,.13-.13h.42a.12.12,0,0,1,.12.12H21.9v.49H20.77a.12.12,0,0,1-.12.12h-.42a.13.13,0,0,1-.13-.12"/><path class="cls-25" d="M22.36,24.7v-.63a.09.09,0,0,0-.1-.1H22a.09.09,0,0,0-.1.08v.65a.09.09,0,0,0,.08.1h.29a.1.1,0,0,0,.1-.1h0"/><path class="cls-22" d="M27.2,26v-.48a.12.12,0,0,0-.12-.12h-.43a.12.12,0,0,0-.12.12H25.36V26h1.17a.14.14,0,0,0,.12.12h.43A.12.12,0,0,0,27.2,26h0"/><path class="cls-25" d="M25,25.93V25.3a.09.09,0,0,1,.1-.1h.28a.1.1,0,0,1,.11.09h0v.63a.1.1,0,0,1-.1.1h-.31a.1.1,0,0,1-.11-.09h0"/><path class="cls-22" d="M20.1,26v-.48a.12.12,0,0,1,.12-.12h.43a.12.12,0,0,1,.12.12H21.9V26H20.77a.12.12,0,0,1-.12.12h-.42A.13.13,0,0,1,20.1,26h0"/><path class="cls-25" d="M22.36,25.93V25.3a.09.09,0,0,0-.1-.1H22a.09.09,0,0,0-.1.08v.65a.09.09,0,0,0,.08.1h.29a.1.1,0,0,0,.1-.1h0"/><path class="cls-22" d="M27.2,27.19v-.42a.12.12,0,0,0-.11-.13h-.44a.12.12,0,0,0-.12.12H25.36v.49h1.17a.12.12,0,0,0,.12.12h.43a.12.12,0,0,0,.12-.12h0"/><path class="cls-25" d="M25,27.14V26.5a.11.11,0,0,1,.11-.1h.27a.11.11,0,0,1,.11.1v.64a.11.11,0,0,1-.11.1h-.3a.11.11,0,0,1-.11-.1"/><path class="cls-22" d="M20.1,27.19v-.42a.13.13,0,0,1,.13-.13h.42a.12.12,0,0,1,.12.12H21.9v.49H20.77a.12.12,0,0,1-.12.12h-.42a.13.13,0,0,1-.13-.13h0"/><path class="cls-25" d="M22.36,27.14V26.5a.11.11,0,0,0-.1-.1H22a.09.09,0,0,0-.1.1h0v.64a.1.1,0,0,0,.1.1h.27a.11.11,0,0,0,.1-.1"/><path class="cls-22" d="M27.2,28.37v-.48a.12.12,0,0,0-.11-.13h-.44a.12.12,0,0,0-.12.12H25.36v.49h1.17a.12.12,0,0,0,.12.12h.43a.12.12,0,0,0,.12-.12"/><path class="cls-25" d="M25,28.31v-.64a.11.11,0,0,1,.11-.1h.27a.11.11,0,0,1,.11.1v.64a.11.11,0,0,1-.11.1h-.3a.11.11,0,0,1-.11-.1"/><path class="cls-22" d="M20.1,28.37v-.48a.13.13,0,0,1,.13-.12h.42a.12.12,0,0,1,.12.12H21.9v.49H20.77a.12.12,0,0,1-.12.12h-.42a.12.12,0,0,1-.13-.11h0"/><path class="cls-25" d="M22.36,28.31v-.64a.11.11,0,0,0-.1-.1H22a.09.09,0,0,0-.1.1h0v.64a.1.1,0,0,0,.1.1h.27a.11.11,0,0,0,.1-.1"/><path class="cls-22" d="M27.2,29.53v-.48a.12.12,0,0,0-.11-.13h-.44a.13.13,0,0,0-.12.12H25.36v.49h1.17a.13.13,0,0,0,.12.13h.43a.12.12,0,0,0,.12-.12h0"/><path class="cls-25" d="M25,29.47v-.63a.11.11,0,0,1,.11-.07h.27a.11.11,0,0,1,.11.11v.63a.1.1,0,0,1-.1.1h-.31a.1.1,0,0,1-.11-.09h0"/><path class="cls-22" d="M20.1,29.53v-.48a.13.13,0,0,1,.13-.13h.42a.12.12,0,0,1,.12.12H21.9v.49H20.77a.12.12,0,0,1-.11.13h-.43a.13.13,0,0,1-.13-.13h0"/><path class="cls-25" d="M22.36,29.47v-.63a.1.1,0,0,0-.1-.11H22a.09.09,0,0,0-.1.1h0v.63a.09.09,0,0,0,.08.1h.29a.1.1,0,0,0,.1-.1h0"/><path class="cls-22" d="M27.2,30.7v-.47a.12.12,0,0,0-.11-.13h-.44a.12.12,0,0,0-.12.12H25.36v.49h1.17a.12.12,0,0,0,.12.12h.43a.12.12,0,0,0,.12-.12h0"/><path class="cls-25" d="M25,30.64V30a.09.09,0,0,1,.1-.1h.28a.1.1,0,0,1,.11.09h0v.63a.11.11,0,0,1-.09.13h-.32a.11.11,0,0,1-.11-.11"/><path class="cls-22" d="M20.1,30.7v-.47a.13.13,0,0,1,.13-.13h.42a.12.12,0,0,1,.12.12H21.9v.49H20.77a.12.12,0,0,1-.12.12h-.42a.13.13,0,0,1-.13-.13h0"/><path class="cls-25" d="M22.36,30.64V30a.09.09,0,0,0-.1-.1H22a.09.09,0,0,0-.1.08v.65a.1.1,0,0,0,.09.11h.28a.11.11,0,0,0,.1-.11"/><path class="cls-22" d="M27.2,31.89v-.47a.12.12,0,0,0-.11-.13h-.44a.12.12,0,0,0-.12.12H25.36v.49h1.17a.12.12,0,0,0,.12.12h.43a.12.12,0,0,0,.12-.12h0"/><path class="cls-25" d="M25,31.83V31.2a.09.09,0,0,1,.1-.1h.28a.1.1,0,0,1,.11.09h0v.63a.11.11,0,0,1-.11.11h-.3a.11.11,0,0,1-.11-.11h0"/><path class="cls-22" d="M20.1,31.89v-.47a.12.12,0,0,1,.11-.13h.44a.12.12,0,0,1,.12.12H21.9v.49H20.77a.12.12,0,0,1-.12.12h-.42a.13.13,0,0,1-.13-.13"/><path class="cls-25" d="M22.36,31.83V31.2a.09.09,0,0,0-.1-.1H22a.09.09,0,0,0-.1.08v.65a.1.1,0,0,0,.09.11h.28a.11.11,0,0,0,.1-.11"/><path class="cls-22" d="M27.2,33.08V32.6a.12.12,0,0,0-.12-.12h-.43a.12.12,0,0,0-.12.12H25.36v.49h1.17a.12.12,0,0,0,.12.12h.43a.12.12,0,0,0,.12-.12h0"/><path class="cls-25" d="M25,33v-.63a.09.09,0,0,1,.1-.1h.28a.1.1,0,0,1,.11.09h0V33a.11.11,0,0,1-.11.11h-.3A.11.11,0,0,1,25,33h0"/><path class="cls-22" d="M20.1,33.08V32.6a.12.12,0,0,1,.12-.12h.43a.12.12,0,0,1,.12.12H21.9v.49H20.77a.12.12,0,0,1-.12.12h-.42a.13.13,0,0,1-.13-.13"/><path class="cls-25" d="M22.36,33v-.63a.09.09,0,0,0-.1-.1H22a.09.09,0,0,0-.1.08V33a.1.1,0,0,0,.09.11h.28a.11.11,0,0,0,.1-.11"/><path class="cls-22" d="M27.2,34.26v-.49a.12.12,0,0,0-.11-.13h-.44a.13.13,0,0,0-.12.12H25.36v.49h1.17a.13.13,0,0,0,.12.13h.43a.12.12,0,0,0,.12-.12h0"/><path class="cls-25" d="M25,34.2v-.63a.11.11,0,0,1,.11-.11h.27a.11.11,0,0,1,.11.11h0v.63a.1.1,0,0,1-.1.1h-.31a.1.1,0,0,1-.11-.09h0"/><path class="cls-22" d="M20.1,34.26v-.49a.13.13,0,0,1,.13-.13h.42a.12.12,0,0,1,.12.12H21.9v.49H20.77a.12.12,0,0,1-.11.13h-.43a.13.13,0,0,1-.13-.13"/><path class="cls-25" d="M22.36,34.2v-.63a.1.1,0,0,0-.1-.11H22a.09.09,0,0,0-.1.1h0v.63a.09.09,0,0,0,.08.1h.29a.1.1,0,0,0,.1-.1h0"/><path class="cls-22" d="M27.2,35.47V35a.12.12,0,0,0-.11-.13h-.44a.12.12,0,0,0-.12.12H25.36v.49h1.17a.12.12,0,0,0,.12.12h.43a.12.12,0,0,0,.12-.12h0"/><path class="cls-25" d="M25,35.42v-.65a.11.11,0,0,1,.11-.1h.27a.11.11,0,0,1,.11.1v.64a.11.11,0,0,1-.11.1h-.3a.11.11,0,0,1-.11-.1"/><path class="cls-22" d="M20.1,35.47V35a.13.13,0,0,1,.13-.13h.42a.12.12,0,0,1,.12.12H21.9v.49H20.77a.12.12,0,0,1-.12.12h-.42a.12.12,0,0,1-.13-.11v0"/><path class="cls-25" d="M22.36,35.42v-.65a.11.11,0,0,0-.1-.1H22a.09.09,0,0,0-.1.1h0v.64a.1.1,0,0,0,.1.1h.27a.11.11,0,0,0,.1-.1"/><path class="cls-22" d="M27.2,36.66v-.47a.12.12,0,0,0-.11-.13h-.44a.12.12,0,0,0-.12.12H25.36v.49h1.17a.12.12,0,0,0,.12.1h.43a.12.12,0,0,0,.12-.12h0"/><path class="cls-25" d="M25,36.61V36a.11.11,0,0,1,.11-.1h.27a.11.11,0,0,1,.11.1v.64a.11.11,0,0,1-.11.1h-.3a.11.11,0,0,1-.11-.1"/><path class="cls-22" d="M20.1,36.66v-.47a.13.13,0,0,1,.13-.13h.42a.12.12,0,0,1,.12.12H21.9v.49H20.77a.12.12,0,0,1-.12.12h-.42a.12.12,0,0,1-.13-.11v0"/><path class="cls-25" d="M22.36,36.61V36a.11.11,0,0,0-.1-.1H22a.09.09,0,0,0-.1.1h0v.64a.1.1,0,0,0,.1.1h.27a.11.11,0,0,0,.1-.1"/><path class="cls-25" d="M25.24,20.43c.14,0,.26.2.26.44s-.12.44-.26.44-.26-.2-.26-.44.12-.44.26-.44"/><path class="cls-25" d="M22.1,20.43c.15,0,.26.2.26.44s-.11.44-.26.44-.25-.2-.25-.44.11-.44.25-.44"/><path class="cls-25" d="M25.24,38.19c.14,0,.26.19.26.44s-.12.43-.26.43-.26-.19-.26-.43.12-.44.26-.44"/><path class="cls-25" d="M22.1,38.19c.15,0,.26.19.26.44s-.11.43-.26.43-.25-.19-.25-.43.11-.44.25-.44"/></g></g></g><path class="cls-26" d="M27.29,39.05H27.1v-.59h-.23v-.14c.13,0,.25,0,.27-.18h.15Z"/><path class="cls-26" d="M19.83,38.49a.33.33,0,0,1,.34-.37.29.29,0,0,1,.31.29c0,.27-.29.3-.43.48h.44v.16h-.68c0-.21.13-.3.29-.41s.19-.11.19-.22a.12.12,0,0,0-.13-.14c-.11,0-.15.11-.15.21Z"/><path class="cls-26" d="M26.46,20.71a.32.32,0,0,1,.33-.37.29.29,0,0,1,.32.28c0,.28-.3.3-.43.49h.43v.16h-.67c0-.21.13-.3.29-.41s.19-.11.19-.22a.13.13,0,0,0-.14-.14c-.11,0-.14.11-.14.21Z"/><path class="cls-26" d="M27.43,20.73c.08,0,.2,0,.2-.12a.12.12,0,0,0-.13-.12.14.14,0,0,0-.14.16h-.18a.3.3,0,0,1,.32-.31.28.28,0,0,1,.31.25.2.2,0,0,1-.13.19h0a.21.21,0,0,1,.16.21.31.31,0,0,1-.34.3.31.31,0,0,1-.34-.33h.18c0,.1.05.18.16.18a.15.15,0,0,0,.15-.15c0-.14-.12-.13-.22-.13Z"/><path class="cls-26" d="M19.47,20.71a.32.32,0,0,1,.33-.37.29.29,0,0,1,.32.28c0,.28-.3.3-.43.49h.43v.16h-.67c0-.21.13-.3.29-.41s.19-.11.19-.22a.13.13,0,0,0-.14-.14c-.11,0-.14.11-.14.21Z"/><path class="cls-26" d="M20.56,21.06h-.39v-.17l.4-.54h.16v.56h.13v.15h-.13v.21h-.17Zm0-.47h0l-.23.32h.24Z"/></g></g></g></svg>