<svg xmlns="http://www.w3.org/2000/svg" xmlns:xlink="http://www.w3.org/1999/xlink" viewBox="0 0 833.44 547.49"><defs><style>.cls-1,.cls-35,.cls-36,.cls-4{fill:none;}.cls-2{fill:#242424;}.cls-3{fill:#fff;}.cls-36,.cls-4{stroke:#fff;}.cls-35,.cls-36,.cls-4{stroke-miterlimit:10;}.cls-5{fill:#c9c9c9;}.cls-6{fill:#303030;}.cls-7{fill:#3d3d3c;}.cls-8{fill:#5a5b5b;}.cls-9{fill:#6c6d6d;}.cls-10{fill:#c2c2c2;}.cls-11{fill:#e8ba54;}.cls-12,.cls-13{fill:#8b6833;}.cls-12{opacity:0.51;}.cls-12,.cls-39{isolation:isolate;}.cls-14{fill:#a5aaba;}.cls-15{clip-path:url(#clip-path);}.cls-16{fill:#f1cc69;}.cls-17{fill:#008860;}.cls-18{fill:#e5e4e4;}.cls-19{fill:#020202;}.cls-20{fill:#231f20;}.cls-21{clip-path:url(#clip-path-2);}.cls-22{fill:#e5e5e5;}.cls-23{fill:#232323;}.cls-24{clip-path:url(#clip-path-4);}.cls-25{fill:#bdc2d2;}.cls-26{fill:#a4abba;}.cls-27{fill:#eeefeb;}.cls-28{fill:#c8ac8c;}.cls-29{clip-path:url(#clip-path-6);}.cls-30{clip-path:url(#clip-path-8);}.cls-31{fill:#fdd407;}.cls-32{fill:#373c95;}.cls-33{fill:#6c71b5;}.cls-34{fill:#a43c3b;}.cls-35{stroke:#020202;}.cls-35,.cls-36{stroke-width:2px;}.cls-37{fill:#333;}.cls-38{fill:#ec2727;}.cls-40{fill:#a43b3a;}.cls-41{fill:#f37677;}</style><clipPath id="clip-path"><path class="cls-1" d="M406.59,137.84H362.1v72.34h31.59V174s.61-9.37,12.9-7C406.92,142.54,406.59,137.84,406.59,137.84Z"/></clipPath><clipPath id="clip-path-2"><rect class="cls-1" x="465.61" y="507.31" width="12.71" height="5.92"/></clipPath><clipPath id="clip-path-4"><rect class="cls-1" x="485.07" y="507.35" width="17.9" height="5.84"/></clipPath><clipPath id="clip-path-6"><rect class="cls-1" x="485.07" y="496.52" width="17.9" height="5.84"/></clipPath><clipPath id="clip-path-8"><rect class="cls-1" x="463.86" y="496.52" width="17.9" height="5.84"/></clipPath></defs><g id="Layer_2" data-name="Layer 2"><g id="Layer_1-2" data-name="Layer 1"><g id="Layer_1-2-2" data-name="Layer 1-2"><path class="cls-2" d="M570.62,230.56h0v-.21h-.13l-80.76-92.51H347.58l-93.17,92.51h-.17V547.49H570.68Z"/><g id="RAK3272s_Top-Label" data-name="RAK3272s Top-Label"><path class="cls-3" d="M291.48,546.15H256.64V252.07h34.84Zm-32.88-2h30.9V254.07H258.6Z"/><path class="cls-3" d="M568.34,546.15H533.5V252.07h34.84Zm-32.88-2h30.9V254.07h-30.9Z"/><ellipse class="cls-3" cx="487.04" cy="268.47" rx="5.39" ry="5.52"/><path class="cls-3" d="M275.65,244c0,1.38-.36,3.63-3.48,3.63a3.17,3.17,0,0,1-3.44-2.86,2.26,2.26,0,0,1,0-.45v-.93h2.06v.48c0,1,.25,1.78,1.33,1.78s1.22-1,1.22-1.75v-7.23h2.3Z"/><path class="cls-3" d="M284,238.61h-4.23l-.42,2.39h0a2.56,2.56,0,0,1,2-.81c2.06,0,3.17,1.6,3.17,3.57a3.77,3.77,0,0,1-3.73,3.78h-.09a3.45,3.45,0,0,1-3.77-3.07c0-.07,0-.15,0-.23H279a1.65,1.65,0,0,0,1.69,1.57,1.88,1.88,0,0,0,1.78-2h0a1.78,1.78,0,0,0-1.57-2h-.2a1.67,1.67,0,0,0-1.56.84h-1.85l1-5.8H284Z"/><path class="cls-3" d="M337.93,180.41c0,1.38-.36,3.63-3.48,3.63a3.18,3.18,0,0,1-3.44-2.88,3.23,3.23,0,0,1,0-.44v-.93h2.06v.48c0,1,.24,1.79,1.32,1.79s1.22-1,1.22-1.76v-7.23h2.3Z"/><path class="cls-3" d="M342.27,177.53c.9.07,2.19-.11,2.19-1.31a1.36,1.36,0,0,0-1.33-1.39H343c-1,0-1.6.79-1.58,1.87h-2a3.44,3.44,0,0,1,3.55-3.63,3.19,3.19,0,0,1,3.43,2.91v0a2.1,2.1,0,0,1-1.45,2.15h0a2.32,2.32,0,0,1,1.83,2.38,3.82,3.82,0,0,1-7.62-.37h2a1.82,1.82,0,0,0,1.79,2.07,1.59,1.59,0,0,0,1.67-1.52.29.29,0,0,0,0-.13c0-1.59-1.36-1.56-2.37-1.56Z"/><path class="cls-3" d="M428.62,261.43c0,2.9-1.67,4.31-4.46,4.31s-4.45-1.38-4.45-4.31v-6.66H422v6.66c0,1.17.28,2.33,2.15,2.33,1.64,0,2.16-.72,2.16-2.33v-6.66h2.3Z"/><path class="cls-3" d="M435.32,265.48h-2.06v-6.81h-2.57v-1.6c1.45,0,2.77-.48,3-2.09h1.66Z"/><path class="cls-3" d="M550.91,246.53c0,1.38-.37,3.63-3.49,3.63a3.17,3.17,0,0,1-3.43-2.85,3.53,3.53,0,0,1,0-.46v-.93h2.06v.48c0,1,.25,1.78,1.34,1.78s1.22-1,1.22-1.75V239.2h2.3Z"/><path class="cls-3" d="M556.51,247.48h-4.34v-1.95l4.45-6.12h1.86v6.31h1.36v1.76h-1.36v2.43h-2Zm0-5.4h0l-2.66,3.64h2.7Z"/><rect class="cls-4" x="462.33" y="493.91" width="42.23" height="22.38"/><line class="cls-4" x1="483.45" y1="516.29" x2="483.45" y2="493.91"/><line class="cls-4" x1="462.33" y1="505.1" x2="504.57" y2="505.1"/><path class="cls-3" d="M325.05,486.72h-22.9V443.17a1,1,0,0,1,.66-1.26,1,1,0,0,1,1.3.64.94.94,0,0,1,0,.62v41.55h20.94a1,1,0,1,1,0,2Z"/><path class="cls-3" d="M303.13,371.68a1,1,0,0,1-1-.86V285.24h24.62a.93.93,0,0,1,1,.81.92.92,0,0,1-.83,1H304.06v83.73A1,1,0,0,1,303.13,371.68Z"/><path class="cls-3" d="M516.18,325.73a.94.94,0,0,1-1-.88V287h-17a.9.9,0,0,1-1-.78.88.88,0,0,1,.8-1h19.11v39.61A.94.94,0,0,1,516.18,325.73Z"/><path class="cls-3" d="M517,486.34H498.06a1,1,0,1,1,0-2H515V442.79a1,1,0,0,1,.66-1.26,1,1,0,0,1,1.3.64.94.94,0,0,1,0,.62Z"/><path class="cls-3" d="M468.93,519.62a1.88,1.88,0,0,0-1.89-1.55c-1.7,0-2.35,1.49-2.35,3s.65,3,2.35,3c1.17,0,1.81-.8,2-2h1.84a3.66,3.66,0,0,1-3.7,3.62H467c-2.66,0-4.24-2-4.24-4.6s1.58-4.68,4.24-4.68a3.55,3.55,0,0,1,3.73,3.19Z"/><path class="cls-3" d="M474.07,520.33c.73.06,1.8-.09,1.8-1.08a1.14,1.14,0,0,0-1.12-1.15h-.07c-.86,0-1.31.65-1.3,1.55h-1.63a2.83,2.83,0,0,1,2.69-3h.23a2.64,2.64,0,0,1,2.85,2.39v0a1.74,1.74,0,0,1-1.19,1.78h0a1.93,1.93,0,0,1,1.51,2,3.14,3.14,0,0,1-3.39,2.82,3.1,3.1,0,0,1-2.91-3.13h1.64a1.51,1.51,0,0,0,1.48,1.71,1.34,1.34,0,0,0,1.39-1.26.34.34,0,0,0,0-.1c0-1.32-1.12-1.29-2-1.29Z"/><path class="cls-3" d="M489.11,519.62a1.91,1.91,0,0,0-1.89-1.55c-1.71,0-2.35,1.49-2.35,3s.64,3,2.35,3c1.17,0,1.81-.8,2-2H491a3.66,3.66,0,0,1-3.7,3.62h-.1c-2.66,0-4.24-2-4.24-4.6s1.58-4.68,4.24-4.68A3.55,3.55,0,0,1,491,519.6Z"/><path class="cls-3" d="M496.23,525.5h-1.72v-5.63h-2.12v-1.33c1.2,0,2.29-.39,2.47-1.72h1.37Z"/><path class="cls-3" d="M463.17,528.48h4.66a2.42,2.42,0,0,1,2.53,2.29v.16a2.18,2.18,0,0,1-1.37,2.22h0c.94.26,1.2,1.17,1.27,2.07a4.6,4.6,0,0,0,.36,2.1h-1.91a10.94,10.94,0,0,1-.3-2.12c-.13-.93-.48-1.34-1.44-1.34h-1.9v3.46h-1.9Zm1.9,4h2.06a1.14,1.14,0,0,0,1.31-.92,1,1,0,0,0,0-.35c0-.85-.45-1.22-1.31-1.22h-2.06Z"/><path class="cls-3" d="M475.82,537.34H474.1v-5.63H472v-1.33a2.12,2.12,0,0,0,2.47-1.65.15.15,0,0,1,0-.07h1.37Z"/><path class="cls-3" d="M489.11,531.46a1.91,1.91,0,0,0-1.89-1.55c-1.71,0-2.35,1.49-2.35,3s.64,3,2.35,3c1.17,0,1.81-.8,2-2H491a3.66,3.66,0,0,1-3.7,3.62h-.1c-2.66,0-4.24-2-4.24-4.6s1.58-4.68,4.24-4.68a3.53,3.53,0,0,1,3.73,3.19Z"/><path class="cls-3" d="M491.94,532c-.06-2,1-3.51,3.09-3.51a2.73,2.73,0,0,1,2.9,2.54,1.08,1.08,0,0,1,0,.18c0,2.63-2.71,2.84-3.95,4.63h4v1.51h-6.18c0-2,1.21-2.85,2.67-3.88.75-.54,1.79-1.06,1.79-2.12a1.23,1.23,0,0,0-1.13-1.33H495c-1,0-1.34,1.08-1.34,2Z"/></g><rect class="cls-5" x="483.06" y="275.8" width="9.37" height="15.14"/><rect class="cls-5" x="469.19" y="275.82" width="9.37" height="15.14"/><rect class="cls-5" x="455.96" y="275.83" width="9.37" height="15.14"/><rect class="cls-5" x="442" y="275.79" width="9.37" height="15.14"/><rect class="cls-5" x="429.1" y="275.79" width="9.37" height="15.14"/><rect class="cls-5" x="483.37" y="476.45" width="9.37" height="15.14"/><rect class="cls-5" x="469.5" y="476.47" width="9.37" height="15.14"/><rect class="cls-5" x="456.27" y="476.43" width="9.37" height="15.14"/><rect class="cls-5" x="442.31" y="476.44" width="9.37" height="15.14"/><rect class="cls-5" x="429.41" y="476.44" width="9.37" height="15.14"/><rect class="cls-5" x="295.84" y="415.98" width="15.6" height="9.1"/><rect class="cls-5" x="295.88" y="403.12" width="15.6" height="9.1"/><rect class="cls-5" x="295.87" y="389.57" width="15.6" height="9.1"/><rect class="cls-5" x="295.87" y="377.05" width="15.6" height="9.1"/><rect class="cls-5" x="506.55" y="416.15" width="15.6" height="9.1"/><rect class="cls-5" x="506.59" y="403.29" width="15.6" height="9.1"/><rect class="cls-5" x="506.58" y="390.44" width="15.6" height="9.1"/><rect class="cls-5" x="506.58" y="377.92" width="15.6" height="9.1"/><rect class="cls-5" x="506.55" y="365.4" width="15.6" height="9.1"/><rect class="cls-5" x="506.59" y="352.88" width="15.6" height="9.1"/><rect class="cls-5" x="506.58" y="339.33" width="15.6" height="9.1"/><rect class="cls-5" x="506.58" y="326.81" width="15.6" height="9.1"/><rect class="cls-5" x="416.21" y="275.79" width="9.37" height="15.14"/><rect class="cls-5" x="402.48" y="275.78" width="9.37" height="15.14"/><rect class="cls-5" x="389.38" y="275.82" width="9.37" height="15.14"/><rect class="cls-5" x="376.28" y="275.81" width="9.37" height="15.14"/><rect class="cls-5" x="362.13" y="275.79" width="9.37" height="15.14"/><rect class="cls-5" x="349.02" y="275.78" width="9.37" height="15.14"/><rect class="cls-5" x="335.91" y="275.83" width="9.37" height="15.14"/><rect class="cls-5" x="362.12" y="476.43" width="9.37" height="15.14"/><rect class="cls-5" x="349.01" y="476.43" width="9.37" height="15.14"/><rect class="cls-5" x="335.89" y="476.48" width="9.37" height="15.14"/><rect class="cls-6" x="541.32" y="259.02" width="15.82" height="271.59"/><path class="cls-7" d="M560.67,446.81H540.39a4.31,4.31,0,0,1-4.36-4.22V422.15a4.31,4.31,0,0,1,4.36-4.23h20.28a4.3,4.3,0,0,1,4.35,4.23v20.44A4.3,4.3,0,0,1,560.67,446.81Z"/><path class="cls-8" d="M556.42,442.21H543.8a4.3,4.3,0,0,1-4.35-4.23V425.2A4.3,4.3,0,0,1,543.8,421h12.62a4.3,4.3,0,0,1,4.35,4.23V438a4.26,4.26,0,0,1-4.31,4.21Z"/><rect class="cls-9" x="542.64" y="426.37" width="8.44" height="8.4"/><rect class="cls-10" x="544.19" y="428.3" width="5.02" height="3.91"/><path class="cls-7" d="M560.67,479.4H540.39a4.31,4.31,0,0,1-4.36-4.23V454.73a4.29,4.29,0,0,1,4.36-4.22h20.28a4.3,4.3,0,0,1,4.35,4.22v20.44a4.27,4.27,0,0,1-4.3,4.23Z"/><path class="cls-8" d="M556.42,475.6H543.8a4.3,4.3,0,0,1-4.35-4.23V458.59a4.3,4.3,0,0,1,4.35-4.23h12.62a4.3,4.3,0,0,1,4.35,4.23v12.78A4.3,4.3,0,0,1,556.42,475.6Z"/><rect class="cls-9" x="542.64" y="459.01" width="8.44" height="8.4"/><rect class="cls-10" x="544.19" y="461.1" width="5.02" height="3.91"/><path class="cls-7" d="M561.28,512H541a4.29,4.29,0,0,1-4.35-4.23h0v-20.4a4.29,4.29,0,0,1,4.35-4.22h20.29a4.29,4.29,0,0,1,4.34,4.22v20.44A4.36,4.36,0,0,1,561.28,512Z"/><path class="cls-8" d="M556.42,507.6H543.8a4.3,4.3,0,0,1-4.35-4.23V490.58a4.29,4.29,0,0,1,4.35-4.22h12.62a4.29,4.29,0,0,1,4.35,4.22v12.79A4.3,4.3,0,0,1,556.42,507.6Z"/><rect class="cls-9" x="542.64" y="491.6" width="8.44" height="8.4"/><rect class="cls-10" x="544.19" y="493.9" width="5.02" height="3.91"/><path class="cls-7" d="M560.67,544.63H540.39A4.31,4.31,0,0,1,536,540.4V520a4.31,4.31,0,0,1,4.36-4.23h20.28A4.3,4.3,0,0,1,565,520v20.4a4.27,4.27,0,0,1-4.3,4.23Z"/><path class="cls-8" d="M556.42,540.4H543.8a4.3,4.3,0,0,1-4.35-4.23V523.38a4.29,4.29,0,0,1,4.35-4.22h12.62a4.29,4.29,0,0,1,4.35,4.22v12.79a4.26,4.26,0,0,1-4.29,4.23Z"/><rect class="cls-9" x="542.64" y="524.24" width="8.44" height="8.4"/><rect class="cls-10" x="544.19" y="526.49" width="5.02" height="3.91"/><path class="cls-7" d="M560.67,313.15H540.39a4.31,4.31,0,0,1-4.36-4.23V288.48a4.29,4.29,0,0,1,4.36-4.22h20.28a4.3,4.3,0,0,1,4.35,4.22v20.44A4.3,4.3,0,0,1,560.67,313.15Z"/><path class="cls-8" d="M556.42,308.6H543.8a4.29,4.29,0,0,1-4.35-4.22V291.59a4.3,4.3,0,0,1,4.35-4.23h12.62a4.3,4.3,0,0,1,4.35,4.23v12.79A4.29,4.29,0,0,1,556.42,308.6Z"/><rect class="cls-9" x="542.64" y="292.77" width="8.44" height="8.4"/><rect class="cls-10" x="544.19" y="294.64" width="5.02" height="3.91"/><path class="cls-7" d="M560.26,281.47H540a4.3,4.3,0,0,1-4.35-4.23V256.8a4.3,4.3,0,0,1,4.35-4.23h20.29a4.29,4.29,0,0,1,4.34,4.23v20.44A4.29,4.29,0,0,1,560.26,281.47Z"/><path class="cls-8" d="M556.06,276.92H543.38a4.29,4.29,0,0,1-4.34-4.23V259.9a4.29,4.29,0,0,1,4.34-4.22h12.68a4.29,4.29,0,0,1,4.35,4.22v12.79A4.3,4.3,0,0,1,556.06,276.92Z"/><rect class="cls-9" x="542.23" y="261.08" width="8.44" height="8.4"/><rect class="cls-10" x="543.77" y="262.95" width="5.02" height="3.91"/><path class="cls-7" d="M560.67,345.74H540.39a4.31,4.31,0,0,1-4.36-4.23V321.07a4.31,4.31,0,0,1,4.36-4.23h20.28a4.31,4.31,0,0,1,4.35,4.23v20.44a4.27,4.27,0,0,1-4.3,4.23Z"/><path class="cls-8" d="M556.42,341.94H543.8a4.3,4.3,0,0,1-4.35-4.23V324.92a4.29,4.29,0,0,1,4.35-4.22h12.62a4.29,4.29,0,0,1,4.35,4.22v12.79a4.26,4.26,0,0,1-4.29,4.23Z"/><rect class="cls-9" x="542.64" y="325.35" width="8.44" height="8.4"/><rect class="cls-10" x="544.19" y="327.44" width="5.02" height="3.91"/><path class="cls-7" d="M561.28,378.38H541a4.3,4.3,0,0,1-4.35-4.23V353.71a4.3,4.3,0,0,1,4.35-4.23h20.29a4.29,4.29,0,0,1,4.34,4.23v20.44A4.36,4.36,0,0,1,561.28,378.38Z"/><path class="cls-8" d="M556.42,373.94H543.8a4.3,4.3,0,0,1-4.35-4.23V356.92a4.3,4.3,0,0,1,4.35-4.23h12.62a4.3,4.3,0,0,1,4.35,4.23v12.79a4.26,4.26,0,0,1-4.29,4.23Z"/><rect class="cls-9" x="542.64" y="357.99" width="8.44" height="8.4"/><rect class="cls-10" x="544.19" y="360.24" width="5.02" height="3.91"/><path class="cls-7" d="M560.67,411H540.39a4.31,4.31,0,0,1-4.36-4.22V386.3a4.31,4.31,0,0,1,4.36-4.23h20.28A4.3,4.3,0,0,1,565,386.3v20.49a4.25,4.25,0,0,1-4.28,4.21Z"/><path class="cls-8" d="M556.42,406.74H543.8a4.3,4.3,0,0,1-4.35-4.23V389.72a4.3,4.3,0,0,1,4.35-4.23h12.62a4.3,4.3,0,0,1,4.35,4.23v12.79a4.26,4.26,0,0,1-4.29,4.23Z"/><rect class="cls-9" x="542.64" y="390.58" width="8.44" height="8.4"/><rect class="cls-10" x="544.19" y="392.82" width="5.02" height="3.91"/><rect class="cls-6" x="267.55" y="259.02" width="15.82" height="271.59"/><path class="cls-7" d="M259.66,442.59V422.15a4.31,4.31,0,0,1,4.36-4.23H284.3a4.32,4.32,0,0,1,4.36,4.23v20.44a4.31,4.31,0,0,1-4.36,4.22H264A4.31,4.31,0,0,1,259.66,442.59Z"/><path class="cls-8" d="M263.9,438V425.2a4.32,4.32,0,0,1,4.36-4.2h12.62a4.32,4.32,0,0,1,4.36,4.23V438a4.29,4.29,0,0,1-4.36,4.23H268.26A4.28,4.28,0,0,1,263.9,438Z"/><rect class="cls-9" x="273.61" y="426.37" width="8.44" height="8.4"/><rect class="cls-10" x="275.48" y="428.3" width="5.02" height="3.91"/><path class="cls-7" d="M259.66,475.17V454.73a4.31,4.31,0,0,1,4.36-4.22H284.3a4.3,4.3,0,0,1,4.36,4.22v20.44a4.32,4.32,0,0,1-4.36,4.23H264a4.27,4.27,0,0,1-4.36-4.19Z"/><path class="cls-8" d="M263.9,471.37V458.59a4.32,4.32,0,0,1,4.36-4.23h12.62a4.29,4.29,0,0,1,4.36,4.23h0v12.78a4.29,4.29,0,0,1-4.36,4.23H268.26A4.32,4.32,0,0,1,263.9,471.37Z"/><rect class="cls-9" x="273.61" y="459.01" width="8.44" height="8.4"/><rect class="cls-10" x="275.48" y="461.1" width="5.02" height="3.91"/><path class="cls-7" d="M259.06,507.81V487.37a4.3,4.3,0,0,1,4.35-4.22h20.28a4.3,4.3,0,0,1,4.36,4.22v20.44a4.31,4.31,0,0,1-4.36,4.19H263.41A4.37,4.37,0,0,1,259.06,507.81Z"/><path class="cls-8" d="M263.9,503.37V490.58a4.31,4.31,0,0,1,4.36-4.22h12.62a4.3,4.3,0,0,1,4.36,4.22v12.79a4.29,4.29,0,0,1-4.36,4.23H268.26A4.32,4.32,0,0,1,263.9,503.37Z"/><rect class="cls-9" x="273.61" y="491.6" width="8.44" height="8.4"/><rect class="cls-10" x="275.48" y="493.9" width="5.02" height="3.91"/><path class="cls-7" d="M259.66,540.4V520a4.31,4.31,0,0,1,4.36-4.23H284.3a4.32,4.32,0,0,1,4.36,4.23v20.4a4.32,4.32,0,0,1-4.36,4.23H264a4.27,4.27,0,0,1-4.36-4.19Z"/><path class="cls-8" d="M263.9,536.17V523.38a4.31,4.31,0,0,1,4.36-4.22h12.62a4.3,4.3,0,0,1,4.36,4.22v12.79a4.29,4.29,0,0,1-4.36,4.23H268.26a4.28,4.28,0,0,1-4.36-4.19Z"/><rect class="cls-9" x="273.61" y="524.24" width="8.44" height="8.4"/><rect class="cls-10" x="275.48" y="526.49" width="5.02" height="3.91"/><path class="cls-7" d="M259.66,308.92V288.48a4.31,4.31,0,0,1,4.36-4.22H284.3a4.3,4.3,0,0,1,4.36,4.22v20.44a4.32,4.32,0,0,1-4.36,4.23H264A4.31,4.31,0,0,1,259.66,308.92Z"/><path class="cls-8" d="M263.9,304.38V291.59a4.32,4.32,0,0,1,4.36-4.23h12.62a4.32,4.32,0,0,1,4.36,4.23v12.79a4.3,4.3,0,0,1-4.36,4.22H268.26A4.31,4.31,0,0,1,263.9,304.38Z"/><rect class="cls-9" x="273.61" y="292.77" width="8.44" height="8.4"/><rect class="cls-10" x="275.48" y="294.64" width="5.02" height="3.91"/><path class="cls-7" d="M260.08,277.24V256.8a4.3,4.3,0,0,1,4.35-4.23h20.28a4.31,4.31,0,0,1,4.36,4.23v20.44a4.31,4.31,0,0,1-4.36,4.23H264.43A4.31,4.31,0,0,1,260.08,277.24Z"/><path class="cls-8" d="M264.33,272.69V259.9a4.29,4.29,0,0,1,4.33-4.22H281.3a4.3,4.3,0,0,1,4.35,4.22v12.79a4.3,4.3,0,0,1-4.35,4.23H268.66A4.3,4.3,0,0,1,264.33,272.69Z"/><rect class="cls-9" x="274.02" y="261.08" width="8.44" height="8.4"/><rect class="cls-10" x="275.89" y="262.95" width="5.02" height="3.91"/><path class="cls-7" d="M259.66,341.51V321.07a4.31,4.31,0,0,1,4.36-4.23H284.3a4.32,4.32,0,0,1,4.36,4.23v20.44a4.32,4.32,0,0,1-4.36,4.23H264a4.27,4.27,0,0,1-4.36-4.19Z"/><path class="cls-8" d="M263.9,337.71V324.92a4.31,4.31,0,0,1,4.36-4.22h12.62a4.3,4.3,0,0,1,4.36,4.22v12.79a4.29,4.29,0,0,1-4.36,4.23H268.26a4.28,4.28,0,0,1-4.36-4.19Z"/><rect class="cls-9" x="273.61" y="325.35" width="8.44" height="8.4"/><rect class="cls-10" x="275.48" y="327.44" width="5.02" height="3.91"/><path class="cls-7" d="M259.06,374.15V353.71a4.31,4.31,0,0,1,4.35-4.23h20.28a4.31,4.31,0,0,1,4.36,4.23v20.44a4.31,4.31,0,0,1-4.36,4.23H263.41A4.36,4.36,0,0,1,259.06,374.15Z"/><path class="cls-8" d="M263.9,369.71V356.92a4.32,4.32,0,0,1,4.36-4.23h12.62a4.32,4.32,0,0,1,4.36,4.23v12.79a4.32,4.32,0,0,1-4.36,4.23H268.26a4.28,4.28,0,0,1-4.36-4.19Z"/><rect class="cls-9" x="273.61" y="357.99" width="8.44" height="8.4"/><rect class="cls-10" x="275.48" y="360.24" width="5.02" height="3.91"/><path class="cls-7" d="M259.66,406.79V386.3a4.31,4.31,0,0,1,4.36-4.23H284.3a4.32,4.32,0,0,1,4.36,4.23v20.44a4.31,4.31,0,0,1-4.35,4.26H264a4.26,4.26,0,0,1-4.36-4.15Z"/><path class="cls-8" d="M263.9,402.51V389.72a4.32,4.32,0,0,1,4.36-4.23h12.62a4.32,4.32,0,0,1,4.36,4.23v12.79a4.32,4.32,0,0,1-4.36,4.23H268.26a4.28,4.28,0,0,1-4.36-4.19Z"/><rect class="cls-9" x="273.61" y="390.58" width="8.44" height="8.4"/><rect class="cls-10" x="275.48" y="392.82" width="5.02" height="3.91"/><path class="cls-11" d="M457.41,3.64V123.55a3.71,3.71,0,0,1-3.75,3.64H383a3.69,3.69,0,0,1-3.74-3.64V3.64A3.69,3.69,0,0,1,383,0h70.61A3.76,3.76,0,0,1,457.41,3.64Z"/><path class="cls-11" d="M463.48,72.45v4.82a1.16,1.16,0,0,1-1.16,1.12H374.46a1.14,1.14,0,0,1-1.16-1.12h0V72.45a1.14,1.14,0,0,1,1.16-1.12h87.92A1.14,1.14,0,0,1,463.48,72.45Z"/><path class="cls-11" d="M463.48,63.67v4.82a1.15,1.15,0,0,1-1.16,1.12H374.46a1.14,1.14,0,0,1-1.16-1.12h0V63.67a1.15,1.15,0,0,1,1.16-1.12h87.92A1.19,1.19,0,0,1,463.48,63.67Z"/><path class="cls-11" d="M463.48,55v4.82a1.15,1.15,0,0,1-1.16,1.07H374.46a1.14,1.14,0,0,1-1.16-1.12h0V55a1.14,1.14,0,0,1,1.16-1.12h87.92a1.11,1.11,0,0,1,1.1,1.11Z"/><path class="cls-11" d="M463.48,46.18V51a1.16,1.16,0,0,1-1.16,1.12H374.46A1.15,1.15,0,0,1,373.3,51V46.18a1.15,1.15,0,0,1,1.16-1.13h87.92A1.19,1.19,0,0,1,463.48,46.18Z"/><path class="cls-11" d="M463.48,37.4v4.82a1.15,1.15,0,0,1-1.16,1.12H374.46a1.14,1.14,0,0,1-1.16-1.12h0V37.4a1.14,1.14,0,0,1,1.16-1.12h87.92A1.19,1.19,0,0,1,463.48,37.4Z"/><path class="cls-11" d="M463.48,28.68V33.5a1.16,1.16,0,0,1-1.16,1.12H374.46a1.14,1.14,0,0,1-1.16-1.12h0V28.68a1.14,1.14,0,0,1,1.16-1.12h87.92A1.14,1.14,0,0,1,463.48,28.68Z"/><path class="cls-11" d="M463.48,19.9v4.82a1.15,1.15,0,0,1-1.16,1.12H374.46a1.14,1.14,0,0,1-1.16-1.12h0V19.9a1.15,1.15,0,0,1,1.16-1.12h87.92A1.19,1.19,0,0,1,463.48,19.9Z"/><path class="cls-12" d="M457.17,18.83H379.52a.24.24,0,0,1-.26-.22,0,0,0,0,1,0,0V17.34a.24.24,0,0,1,.23-.27h77.68a.26.26,0,0,1,.28.25v1.25A.28.28,0,0,1,457.17,18.83Z"/><path class="cls-12" d="M457.17,27.56H379.52a.26.26,0,0,1-.27-.24,0,0,0,0,1,0,0V26.06a.24.24,0,0,1,.23-.27h77.68a.26.26,0,0,1,.28.25v1.25A.3.3,0,0,1,457.17,27.56Z"/><path class="cls-12" d="M457.17,36.33H379.52a.26.26,0,0,1-.27-.24,0,0,0,0,1,0,0V34.83a.23.23,0,0,1,.22-.26h77.69a.26.26,0,0,1,.28.23v1.26A.3.3,0,0,1,457.17,36.33Z"/><path class="cls-12" d="M457.17,45.11H379.52a.26.26,0,0,1-.27-.24,0,0,0,0,1,0,0V43.61a.24.24,0,0,1,.23-.27h77.68a.26.26,0,0,1,.28.25v1.25A.35.35,0,0,1,457.17,45.11Z"/><path class="cls-12" d="M457.17,53.83H379.52a.26.26,0,0,1-.27-.24,0,0,0,0,1,0,0V52.33a.24.24,0,0,1,.23-.27h77.68a.26.26,0,0,1,.28.25v1.25A.3.3,0,0,1,457.17,53.83Z"/><path class="cls-12" d="M457.17,62.6H379.52a.24.24,0,0,1-.26-.22,0,0,0,0,1,0,0V61.11a.24.24,0,0,1,.23-.27h77.68a.26.26,0,0,1,.28.25v1.25A.28.28,0,0,1,457.17,62.6Z"/><path class="cls-12" d="M457.17,71.33H379.52a.26.26,0,0,1-.27-.24,0,0,0,0,1,0,0V69.83a.24.24,0,0,1,.23-.27h77.68a.26.26,0,0,1,.28.25v1.25A.3.3,0,0,1,457.17,71.33Z"/><path class="cls-12" d="M457.17,80.1H379.52a.26.26,0,0,1-.27-.24,0,0,0,0,1,0,0V78.6a.23.23,0,0,1,.22-.26h77.69a.26.26,0,0,1,.28.23v1.26A.3.3,0,0,1,457.17,80.1Z"/><rect class="cls-13" x="369.65" y="116.18" width="95.57" height="22.15"/><path id="SVGID" class="cls-14" d="M432.22,137.84h44.53v72.34H445.12V174s-.61-9.37-12.9-7C431.89,142.54,432.22,137.84,432.22,137.84Z"/><path id="SVGID-2" class="cls-14" d="M406.59,137.84H362.1v72.34h31.59V174s.61-9.37,12.9-7C406.92,142.54,406.59,137.84,406.59,137.84Z"/><g class="cls-15"><rect class="cls-14" x="393.69" y="132.38" width="51.48" height="47.03"/></g><rect class="cls-13" x="415.63" y="137.84" width="7.06" height="72.34"/><rect class="cls-14" x="413.57" y="167.43" width="10.6" height="42.81"/><path class="cls-16" d="M511.77,421.27a4.45,4.45,0,0,1,2.74-4.07v-4.88a4.4,4.4,0,0,1-2.36-5.86,4.55,4.55,0,0,1,2.36-2.29v-4.46a4.4,4.4,0,0,1-2.36-5.86,4.55,4.55,0,0,1,2.36-2.29v-4.69a4.4,4.4,0,0,1-2.36-5.86,4.55,4.55,0,0,1,2.36-2.29V374.3a4.4,4.4,0,0,1-2.36-5.86,4.55,4.55,0,0,1,2.36-2.29v-4.88a4.4,4.4,0,0,1-2.36-5.86,4.55,4.55,0,0,1,2.36-2.29v-4.45a4.41,4.41,0,0,1-2.35-5.88,4.51,4.51,0,0,1,2.35-2.28v-4.68a4.4,4.4,0,0,1-2.36-5.86,4.55,4.55,0,0,1,2.36-2.29V292.47a4.94,4.94,0,0,0-4.78-5.12H491.31a3.82,3.82,0,0,1-4.74,2.46,3.76,3.76,0,0,1-2.53-2.46h-6.12a3.83,3.83,0,0,1-4.73,2.48,3.74,3.74,0,0,1-2.55-2.48h-6.12a3.83,3.83,0,0,1-4.75,2.46,3.72,3.72,0,0,1-2.52-2.46h-6.07a3.83,3.83,0,0,1-4.75,2.46,3.72,3.72,0,0,1-2.52-2.46h-6.12A3.84,3.84,0,0,1,433,289.8a3.76,3.76,0,0,1-2.53-2.46h-6.12a3.82,3.82,0,0,1-4.74,2.46,3.76,3.76,0,0,1-2.53-2.46H411a3.83,3.83,0,0,1-4.73,2.48,3.77,3.77,0,0,1-2.55-2.48h-6.29a3.83,3.83,0,0,1-4.75,2.46,3.76,3.76,0,0,1-2.53-2.46H384.2a3.83,3.83,0,0,1-4.74,2.46,3.74,3.74,0,0,1-2.53-2.46h-6.18A3.83,3.83,0,0,1,366,289.8a3.76,3.76,0,0,1-2.53-2.46h-6.11a3.84,3.84,0,0,1-4.75,2.46,3.76,3.76,0,0,1-2.53-2.46h-6a3.83,3.83,0,0,1-4.75,2.46,3.76,3.76,0,0,1-2.53-2.46H310.34a5.21,5.21,0,0,0-5.28,5.13h0v84.46a4.4,4.4,0,0,1,2.35,5.86,4.49,4.49,0,0,1-2.35,2.29v4.69a4.4,4.4,0,0,1,2.35,5.86,4.49,4.49,0,0,1-2.35,2.29v4.46a4.4,4.4,0,0,1,2.35,5.86,4.49,4.49,0,0,1-2.35,2.29v4.87a4.4,4.4,0,0,1,2.35,5.86,4.49,4.49,0,0,1-2.35,2.29V479a5.21,5.21,0,0,0,5.28,5.13h26.57a3.75,3.75,0,0,1,3.47-2.24,3.67,3.67,0,0,1,3.48,2.19h6.28a3.77,3.77,0,0,1,3.49-2.24,3.69,3.69,0,0,1,3.47,2.24h6.33a3.77,3.77,0,0,1,3.47-2.24,3.7,3.7,0,0,1,3.48,2.24h60.08a3.75,3.75,0,0,1,3.47-2.24,3.71,3.71,0,0,1,3.48,2.24H444a3.73,3.73,0,0,1,3.47-2.24,3.69,3.69,0,0,1,3.47,2.24h6.4a3.73,3.73,0,0,1,3.47-2.24,3.69,3.69,0,0,1,3.47,2.24h6.4a3.73,3.73,0,0,1,3.47-2.24,3.69,3.69,0,0,1,3.47,2.24H484a3.73,3.73,0,0,1,3.47-2.24,3.69,3.69,0,0,1,3.47,2.24h18.24a5.21,5.21,0,0,0,5.29-5.13h0v-53.6A4.47,4.47,0,0,1,511.77,421.27Z"/><path class="cls-17" d="M511.77,419a4.46,4.46,0,0,1,2.91-4.14v-4.74a4.4,4.4,0,0,1-2.61-5.74,4.53,4.53,0,0,1,2.61-2.54v-4.33a4.4,4.4,0,0,1-2.61-5.74,4.53,4.53,0,0,1,2.61-2.54v-4.56a4.4,4.4,0,0,1-2.61-5.74,4.53,4.53,0,0,1,2.61-2.54V372.1a4.4,4.4,0,0,1-2.61-5.74,4.53,4.53,0,0,1,2.61-2.54V359a4.4,4.4,0,0,1-2.61-5.74,4.53,4.53,0,0,1,2.61-2.54v-4.33a4.4,4.4,0,0,1-2.61-5.74,4.53,4.53,0,0,1,2.61-2.54V333.6a4.41,4.41,0,0,1-2.6-5.76,4.53,4.53,0,0,1,2.6-2.53V292.47a5.28,5.28,0,0,0-5.4-5.13H494a4.66,4.66,0,0,1-5.64,3.28,4.59,4.59,0,0,1-3.38-3.28h-4.67a4.67,4.67,0,0,1-5.64,3.28,4.59,4.59,0,0,1-3.38-3.28h-4.66a4.67,4.67,0,0,1-5.64,3.28,4.59,4.59,0,0,1-3.38-3.28h-4.67a4.67,4.67,0,0,1-5.64,3.28,4.59,4.59,0,0,1-3.38-3.28h-4.66a4.67,4.67,0,0,1-5.64,3.28,4.59,4.59,0,0,1-3.38-3.28h-4.67a4.67,4.67,0,0,1-5.64,3.28,4.59,4.59,0,0,1-3.38-3.28h-4.65a4.66,4.66,0,0,1-5.64,3.28,4.59,4.59,0,0,1-3.38-3.28h-4.51a4.65,4.65,0,0,1-5.6,3.3,4.57,4.57,0,0,1-3.4-3.3h-4.68a4.65,4.65,0,0,1-5.63,3.28,4.58,4.58,0,0,1-3.38-3.28H371a4.65,4.65,0,0,1-5.61,3.3,4.57,4.57,0,0,1-3.39-3.3h-4.7a4.65,4.65,0,0,1-5.63,3.28,4.58,4.58,0,0,1-3.38-3.28h-4.67a4.65,4.65,0,0,1-5.61,3.3,4.57,4.57,0,0,1-3.39-3.3H310.29a5.28,5.28,0,0,0-5.4,5.13v83a4.41,4.41,0,0,1,2.59,5.77,4.54,4.54,0,0,1-2.59,2.51v4.56a4.41,4.41,0,0,1,2.59,5.77,4.54,4.54,0,0,1-2.59,2.51V401a4.41,4.41,0,0,1,2.59,5.77,4.54,4.54,0,0,1-2.59,2.51V414a4.41,4.41,0,0,1,2.59,5.77,4.54,4.54,0,0,1-2.59,2.51V479a5.28,5.28,0,0,0,5.4,5.13h24.3a4.64,4.64,0,0,1,5.56-3.34,4.54,4.54,0,0,1,3.44,3.34h4.63a4.63,4.63,0,0,1,5.56-3.34,4.54,4.54,0,0,1,3.44,3.34h4.63a4.63,4.63,0,0,1,5.54-3.37,4.57,4.57,0,0,1,3.47,3.37h59.29a4.64,4.64,0,0,1,5.55-3.37,4.59,4.59,0,0,1,3.47,3.37h4.61a4.64,4.64,0,0,1,5.55-3.37,4.59,4.59,0,0,1,3.47,3.37h4.61a4.64,4.64,0,0,1,5.55-3.37,4.56,4.56,0,0,1,3.46,3.37h4.63a4.64,4.64,0,0,1,5.56-3.34,4.54,4.54,0,0,1,3.44,3.34h4.63a4.63,4.63,0,0,1,5.56-3.34,4.54,4.54,0,0,1,3.44,3.34h15.61a5.28,5.28,0,0,0,5.4-5.13V423.11A4.45,4.45,0,0,1,511.77,419Z"/><path class="cls-18" d="M368.11,361.32c0,1.54-3.28,2.13-4.81,2.13l-36.21.17a6.32,6.32,0,0,0-6.5,6.13v95.3a6.51,6.51,0,0,0,6.5,6.51H499.41a6.52,6.52,0,0,0,6.49-6.51v-161a6.48,6.48,0,0,0-6.46-6.51H375.21a7,7,0,0,0-7,6.51"/><path class="cls-3" d="M368.05,355.7V304.51s.47-4.85,5-4.85H499.21s4.58-.09,4.58,4.43V467a3.71,3.71,0,0,1-3.78,3.67H335.68s-7.05.08-7.05-6.86v-93.7s.81-5.32,5.48-5.32H363s4.92-.08,4.92-4.77Z"/><path class="cls-19" d="M392,332.74a3,3,0,0,1,.26,1.22c0,.54.07,2.19.08,2.67.56,0,1.29-.07,1.79-.07s2.06,0,4.47-.08h.15a2.12,2.12,0,0,0,2.25-2v0c.16-1.52-.7-1.89-.73-1.9a8.91,8.91,0,0,0-3.5-.61,5.61,5.61,0,0,0-.58,0,22.81,22.81,0,0,0-4.19.72"/><path class="cls-19" d="M389.29,331a4,4,0,0,1,.95.24,3.73,3.73,0,0,1,1.17.69,22.09,22.09,0,0,1,4.49-.84h.9a11.25,11.25,0,0,1,3.16.42,5.24,5.24,0,0,0,.5-.44,2.26,2.26,0,0,0,.58-1.14,2.4,2.4,0,0,0-.24-1.76c-.28-.5-1-.76-2.07-.76h-1.24a11,11,0,0,0-3.82.69,12.75,12.75,0,0,0-4.34,3"/><path class="cls-19" d="M384,330.91a4.22,4.22,0,0,1,1.53.27,3.94,3.94,0,0,1,1.11.83,3.6,3.6,0,0,1,.37-.41,2.87,2.87,0,0,1,.87-.49c.38-.41,1.1-1.17,1.83-1.82a12.83,12.83,0,0,1,4.7-2.56,11.59,11.59,0,0,1,3.37-.43,12.38,12.38,0,0,1,1.72.08,2.78,2.78,0,0,0,1.23-2c0-1.67-.65-2.06-3.53-2.2a14.26,14.26,0,0,0-9.21,3.21,14.79,14.79,0,0,0-4,5.54"/><path class="cls-19" d="M396.21,337.48c0,.47.07,1.23.07,1.73,0,.67.05,3,.08,4v.48a2.1,2.1,0,0,0,2,2.17h.4c1.26,0,1.57-.72,1.57-.72a8.57,8.57,0,0,0,.61-4,20.86,20.86,0,0,0-.74-4.06,3.64,3.64,0,0,1-1.26.26l-2.75.07"/><path class="cls-19" d="M401.55,344.92a4,4,0,0,0,.44.48,2.33,2.33,0,0,0,1.16.58,3.26,3.26,0,0,0,.62.06,2.56,2.56,0,0,0,1.21-.31c.52-.26.78-1,.78-2v-.49a10.31,10.31,0,0,0-.69-4.43A12.65,12.65,0,0,0,402,334.6a3.37,3.37,0,0,1-.25.93,3.47,3.47,0,0,1-.71,1.14,21.64,21.64,0,0,1,.87,4.35,11.38,11.38,0,0,1-.39,3.94"/><path class="cls-19" d="M406.77,344.43a2.82,2.82,0,0,0,2.06,1.2c1.74,0,2.14-.64,2.29-3.43a13.39,13.39,0,0,0-3.31-8.94,15.16,15.16,0,0,0-5.71-3.87,3,3,0,0,1-1.13,2.55,2.93,2.93,0,0,1,.42.37,2.45,2.45,0,0,1,.51.83,22.18,22.18,0,0,1,1.87,1.79,12.1,12.1,0,0,1,2.64,4.56,13.28,13.28,0,0,1,.36,4.94"/><path class="cls-19" d="M395.37,341.32c-.43,0-1.26.06-1.8.06l-4.38.08H389a2.14,2.14,0,0,0-2.25,2h0c-.16,1.52.69,1.89.73,1.9a9.48,9.48,0,0,0,4.12.59,22.81,22.81,0,0,0,4.19-.72,3.23,3.23,0,0,1-.27-1.22c0-.36,0-1.26-.06-2.66Z"/><path class="cls-19" d="M387.7,346.49a5.12,5.12,0,0,0-.49.44,2.22,2.22,0,0,0-.6,1.14,2.4,2.4,0,0,0,.26,1.76c.27.51,1,.76,2.06.76h1.25a11.09,11.09,0,0,0,3.83-.69,13,13,0,0,0,4.33-3,3.39,3.39,0,0,1-.95-.23,3.67,3.67,0,0,1-1.18-.69,22.79,22.79,0,0,1-4.49.84h-.89a11.63,11.63,0,0,1-3.16-.42"/><path class="cls-19" d="M388.21,351.57a2.76,2.76,0,0,0-1.24,2c0,1.66.65,2.06,3.53,2.19H391a14.42,14.42,0,0,0,8.7-3.21,14.91,14.91,0,0,0,4-5.55,3.93,3.93,0,0,1-1.52-.27,4,4,0,0,1-1.12-.83,2.05,2.05,0,0,1-.37.41,2.53,2.53,0,0,1-.86.49c-.25.27-1,1.11-1.84,1.82a12.66,12.66,0,0,1-4.69,2.57,11.6,11.6,0,0,1-3.36.42,16.56,16.56,0,0,1-1.73-.08"/><path class="cls-19" d="M388.86,332.07c-1.26,0-1.58.7-1.59.73a8.83,8.83,0,0,0-.61,4,21.66,21.66,0,0,0,.75,4.06,3.62,3.62,0,0,1,1.26-.25c.27,0,1,0,2.75-.07,0-.39-.06-1.21-.06-1.74s0-2-.08-4.34v-.16a2.13,2.13,0,0,0-2.06-2.17h-.38"/><path class="cls-19" d="M383.86,331.93a2.68,2.68,0,0,0-1.21.31c-.52.27-.78,1-.78,2v.49a10.36,10.36,0,0,0,.69,4.44,12.61,12.61,0,0,0,3.09,4.2,2.92,2.92,0,0,1,.25-.92,3.62,3.62,0,0,1,.71-1.15,19.49,19.49,0,0,1-.86-4.35,10.92,10.92,0,0,1,.39-3.94,5.11,5.11,0,0,0-.45-.48,2.39,2.39,0,0,0-1.16-.57,2.56,2.56,0,0,0-.62-.07"/><path class="cls-19" d="M378.77,332.34c-1.71,0-2.06.64-2.25,3.44a13.42,13.42,0,0,0,3.29,8.94,15.26,15.26,0,0,0,5.72,3.86,3.56,3.56,0,0,1,.28-1.47,3.7,3.7,0,0,1,.85-1.08,3.62,3.62,0,0,1-.42-.36,2.78,2.78,0,0,1-.51-.84,19.39,19.39,0,0,1-1.87-1.79,12.3,12.3,0,0,1-2.65-4.55,13.49,13.49,0,0,1-.35-4.94,2.84,2.84,0,0,0-2.06-1.21Z"/><path class="cls-19" d="M435.85,327.25a8.06,8.06,0,0,1,2.92.51,6.93,6.93,0,0,1,2.22,1.39,5.92,5.92,0,0,1,1.41,2,6.28,6.28,0,0,1,.49,2.49,6.86,6.86,0,0,1-.9,3.56,5.62,5.62,0,0,1-2.91,2.29v.06a4.19,4.19,0,0,1,1.62.81,4.5,4.5,0,0,1,1,1.27,5.53,5.53,0,0,1,.59,1.62,14.93,14.93,0,0,1,.26,1.76,10.41,10.41,0,0,0,.06,1.3c.06.5.06,1,.12,1.54a9.39,9.39,0,0,0,.27,1.48,3.22,3.22,0,0,0,.56,1.2H438.3a8.61,8.61,0,0,1-.53-2.65c-.07-1-.18-2-.31-2.94a4.57,4.57,0,0,0-1.15-2.68,4,4,0,0,0-2.86-.85h-5.27v9.12h-5.29V327.25ZM434,337.8a4,4,0,0,0,2.73-.78,3.19,3.19,0,0,0,.91-2.55,3,3,0,0,0-.91-2.47,4.18,4.18,0,0,0-2.73-.76h-5.77v6.56Z"/><path class="cls-19" d="M458.58,327.25l9,23.33h-5.49l-1.82-5.2h-9l-1.88,5.2h-5.32l9.09-23.33Zm.3,14.31-3-8.56h-.06l-3.09,8.56Z"/><polygon class="cls-19" points="473.99 327.25 473.99 336.92 483.38 327.25 489.97 327.25 480.59 336.46 490.88 350.58 484.25 350.58 477.01 340.09 473.99 343.06 473.99 350.58 468.7 350.58 468.7 327.25 473.99 327.25"/><g id="cert-ukca"><g id="Layer_2-2" data-name="Layer 2-2"><g id="Layer_4" data-name="Layer 4"><path class="cls-19" d="M448.46,432.66h-6.65a7.62,7.62,0,0,1-7.77-7.45v-14.1h5v14a2.72,2.72,0,0,0,2.81,2.62h6.5a2.71,2.71,0,0,0,2.8-2.62h0v-14h5.05v14.1a7.64,7.64,0,0,1-7.78,7.45Z"/><polygon class="cls-19" points="482.51 411.11 475.99 411.11 465.32 419.26 465.32 411.11 460.27 411.11 460.27 432.66 465.32 432.66 465.32 424.45 475.99 432.66 482.48 432.66 468.44 421.86 482.51 411.11 482.51 411.11"/><path class="cls-19" d="M456.24,458.13H441.72a7.68,7.68,0,0,1-7.67-7.62V444.2a7.66,7.66,0,0,1,7.67-7.62h14.53v4.89H441.82a2.71,2.71,0,0,0-2.69,2.73v6.31a2.7,2.7,0,0,0,2.69,2.72h14.43Z"/><path class="cls-19" d="M465.31,448.33v-4.24a2.74,2.74,0,0,1,2.81-2.62h6.5a2.74,2.74,0,0,1,2.81,2.62v4.24Zm9.37-11.75h-6.63a7.63,7.63,0,0,0-7.79,7.42v14.1h5v-4.9h12.11v4.9h5V444a7.63,7.63,0,0,0-7.79-7.45Z"/></g></g></g><path class="cls-19" d="M447.4,376.11a6.44,6.44,0,0,0,6.53,6.34h0a7.13,7.13,0,0,0,1-.07v2.74a9.26,9.26,0,0,1-10-8.32,9.13,9.13,0,0,1,8-9.68,10.13,10.13,0,0,1,2.06,0v2.74a6.49,6.49,0,0,0-7.46,5.22,6.19,6.19,0,0,0-.08,1.05"/><path class="cls-19" d="M463.45,374.75h5.39v2.74h-5.38a6.48,6.48,0,0,0,6.37,5,6.8,6.8,0,0,0,1.1-.09v2.75a9.28,9.28,0,0,1-10.36-7.95,9.13,9.13,0,0,1,8.19-10.05h0a8.75,8.75,0,0,1,2.17,0v2.74a6.8,6.8,0,0,0-1.1-.09,6.49,6.49,0,0,0-6.38,5"/><path class="cls-20" d="M345.45,376.55h5.36c2.17,0,3.48,1.11,3.48,2.9a2.63,2.63,0,0,1-2,2.8h0c1.33.25,1.58,1.21,1.71,2.28s0,2.31.67,3.06H353c-.44-.45-.19-1.65-.41-2.73s-.44-2-1.91-2H347v4.73h-1.5Zm4.68,5.1c1.41,0,2.63-.36,2.63-2a1.74,1.74,0,0,0-1.61-1.9,1.7,1.7,0,0,0-.45,0H347v3.86Z"/><path class="cls-20" d="M360.46,376.55h1.66l4.47,11.07h-1.68l-1.25-3.34h-4.82l-1.28,3.34H356ZM359.31,383h3.87l-1.91-5.16h0Z"/><path class="cls-20" d="M368.67,376.55h1.51v5.52l5.78-5.52h2L373.12,381l5,6.61h-1.91l-4.12-5.6-1.91,1.72v3.88h-1.51Z"/><path class="cls-20" d="M382.51,381.34a1.61,1.61,0,0,0,.31,0h.29a1.92,1.92,0,0,0,2.14-1.66.61.61,0,0,0,0-.14,1.76,1.76,0,0,0-1.74-1.79,1.72,1.72,0,0,0-.32,0,2.12,2.12,0,0,0-2.14,2.39H379.7c.08-2.1,1.23-3.55,3.5-3.55,2,0,3.45.91,3.45,2.94a2.49,2.49,0,0,1-1.56,2.19h0a2.5,2.5,0,0,1,2.06,2.66c0,2.19-1.78,3.35-3.9,3.35-2.29,0-3.82-1.3-3.77-3.58h1.36a2.24,2.24,0,0,0,2.09,2.41,1.74,1.74,0,0,0,.32,0,2.25,2.25,0,0,0,2.46-2v-.12a2.12,2.12,0,0,0-2.13-2.12,1.41,1.41,0,0,0-.29,0,5.48,5.48,0,0,0-.81,0Z"/><path class="cls-20" d="M394.56,387.62H393.2v-7.88h-2.93v-1.05c1.54,0,3-.39,3.25-2.06h1Z"/><path class="cls-20" d="M406.84,377.94a16.09,16.09,0,0,0-4.33,9.68H401a15.59,15.59,0,0,1,4.47-9.57h-6v-1.24h7.32Z"/><path class="cls-20" d="M409.26,380.52a3.42,3.42,0,0,1,2.94-3.86,4.06,4.06,0,0,1,.7,0,3.2,3.2,0,0,1,3.53,2.78c0,.13,0,.25,0,.38,0,1.94-1.34,2.9-2.74,3.77s-2.92,1.55-3.18,2.89h5.82v1.17h-7.4c.21-2.59,1.58-3.57,3.18-4.5C414,382,415,381.31,415,379.77a2,2,0,0,0-2.06-2h-.12c-1.59,0-2.26,1.41-2.21,2.73Z"/><path class="cls-20" d="M345,394.46h2.61c2.34,0,3.65,1.15,3.65,3.52s-1.11,3.87-3.65,3.87H345Zm1,6.56h1.68c.69,0,2.56-.19,2.56-2.91,0-1.76-.67-2.82-2.53-2.82H346Z"/><path class="cls-20" d="M357.25,400.15a2.17,2.17,0,0,1-2.31,1.85c-1.76,0-2.59-1.19-2.64-2.81a2.6,2.6,0,0,1,2.43-2.78h.16c1.95,0,2.55,1.77,2.5,3.07h-4.12a1.62,1.62,0,0,0,1.72,1.75,1.32,1.32,0,0,0,1.43-1Zm-.86-1.49a1.58,1.58,0,0,0-1.6-1.51,1.55,1.55,0,0,0-1.58,1.51h3.18Z"/><path class="cls-20" d="M361,401.85h-1L358,396.5h1l1.55,4.46h0l1.5-4.46H363Z"/><path class="cls-20" d="M364.22,394.46h5.25v.83h-4.24v2.34h3.95v.83h-3.95V401h4.27v.83h-5.28Z"/><path class="cls-20" d="M380.18,399.18a2.6,2.6,0,0,1-2.35,2.85,2.66,2.66,0,0,1-.63,0c-2,0-3.1-.88-3.1-2.84v-4.72h1v4.72a1.83,1.83,0,0,0,1.69,2h.37a1.8,1.8,0,0,0,2-1.57,1.54,1.54,0,0,0,0-.43v-4.72h1Z"/><path class="cls-20" d="M382.06,394.46h1v7.39h-1Z"/><path class="cls-20" d="M386.22,397.65h-1.15V396.5h1.17Zm-1.15,3.05h1.17v1.15h-1.17Z"/><path class="cls-20" d="M393.4,394.46h1.12l3,7.39h-1.1l-.84-2.23h-3.21l-.86,2.23h-1Zm-.75,4.33h2.57L394,395.35h0Z"/><path class="cls-20" d="M403.8,396.68a2,2,0,0,0-2.13-1.57c-1.81,0-2.58,1.45-2.58,3s.77,3.09,2.59,3.09a2.14,2.14,0,0,0,2.2-2.05v-.08h1a3.06,3.06,0,0,1-3.09,3h-.2c-2.36,0-3.52-1.7-3.52-3.85s1.25-3.89,3.6-3.89a2.89,2.89,0,0,1,3.09,2.4Z"/><path class="cls-20" d="M409.31,401.85h-.9v-5.26h-2v-.7c1,0,2-.26,2.17-1.38h.69Z"/><path class="cls-20" d="M412.49,394.46h5v.83h-4v2.34H417v.83h-3.5v3.39h-1Z"/><path class="cls-20" d="M420.94,394.51c2.37,0,2.52,2.12,2.52,3.73s-.15,3.73-2.52,3.73-2.51-2.11-2.51-3.73S418.59,394.51,420.94,394.51Zm0,6.68c1.55,0,1.56-1.86,1.56-3s0-2.94-1.56-2.94-1.55,1.86-1.55,2.94S419.4,401.19,420.94,401.19Z"/><path class="cls-20" d="M425.55,400.08a1.27,1.27,0,0,0,1.38,1.11c1.11,0,1.66-.93,1.71-2.83h0a2,2,0,0,1-1.75,1,2.25,2.25,0,0,1-2.4-2.08,1.51,1.51,0,0,1,0-.37,2.33,2.33,0,0,1,2.27-2.39H427c1.41,0,2.6.73,2.6,3.51,0,2.53-.8,4-2.63,4a2.06,2.06,0,0,1-2.28-1.77s0-.08,0-.12Zm1.37-4.79c-1,0-1.48.83-1.48,1.73a1.53,1.53,0,0,0,1.76,1.23,1.49,1.49,0,0,0,1.26-1.71A1.52,1.52,0,0,0,426.92,395.29Z"/><path class="cls-20" d="M431.08,394.46h5v.83h-4v2.34h3.49v.83H432.1v3.39h-1Z"/><path class="cls-20" d="M437.42,394.46h5v.83h-4v2.34h3.49v.83h-3.49v3.39h-1Z"/><path class="cls-20" d="M443.78,394.46h5v.83h-4v2.34h3.49v.83h-3.49v3.39h-1Z"/><path class="cls-20" d="M450.07,394.46h5.25v.83h-4.25v2.34h4v.83h-4V401h4.28v.83h-5.28Z"/><path class="cls-20" d="M458.91,394.51c2.37,0,2.52,2.12,2.52,3.73s-.14,3.76-2.52,3.76-2.51-2.11-2.51-3.73S456.56,394.51,458.91,394.51Zm0,6.68c1.55,0,1.56-1.86,1.56-3s0-2.94-1.56-2.94-1.55,1.86-1.55,2.94S457.37,401.19,458.91,401.19Z"/><path class="cls-20" d="M467.09,395.41h-3l-.41,2.11h0a1.94,1.94,0,0,1,1.41-.53,2.33,2.33,0,0,1,2.46,2.17,2,2,0,0,1,0,.35,2.43,2.43,0,0,1-2.42,2.45h-.22a2.21,2.21,0,0,1-2.41-2v-.13h.91a1.5,1.5,0,0,0,1.6,1.32,1.58,1.58,0,0,0,1.61-1.54c0-.06,0-.13,0-.19a1.62,1.62,0,0,0-1.55-1.67h-.16a1.8,1.8,0,0,0-1.4.69h-.79l.7-3.81h3.73Z"/><path class="cls-20" d="M468.69,397.11a2.29,2.29,0,0,1,2-2.58,2.16,2.16,0,0,1,.44,0,2.14,2.14,0,0,1,2.36,1.87,1.93,1.93,0,0,1,0,.24,2.94,2.94,0,0,1-1.83,2.51c-.94.55-2,1-2.13,1.94h3.89v.78H468.5a3.46,3.46,0,0,1,2.13-3c1.27-.78,1.92-1.22,1.92-2.24a1.34,1.34,0,0,0-1.37-1.32h-.09a1.58,1.58,0,0,0-1.47,1.82Z"/><path class="cls-20" d="M475.19,394.46H478a4.81,4.81,0,0,1,2.06.27,1.75,1.75,0,0,1,.89,1.54,1.68,1.68,0,0,1-1.13,1.65h0a1.73,1.73,0,0,1,1.46,1.78,2.15,2.15,0,0,1-2.17,2.13h-3.83Zm1,3.17h2.06c1.15,0,1.62-.39,1.62-1.17,0-1-.73-1.17-1.62-1.17h-2.06Zm0,3.39h2.54a1.28,1.28,0,0,0,1.42-1.11,1.62,1.62,0,0,0,0-.22c0-1-.8-1.23-1.65-1.23h-2.32Z"/><path class="cls-20" d="M482.34,397.11a2.29,2.29,0,0,1,2-2.58,2.16,2.16,0,0,1,.44,0,2.14,2.14,0,0,1,2.35,1.88,1.77,1.77,0,0,1,0,.23,2.92,2.92,0,0,1-1.83,2.51c-.94.55-1.95,1-2.12,1.94h3.87v.78h-4.94a3.48,3.48,0,0,1,2.12-3c1.28-.78,1.93-1.22,1.93-2.24a1.35,1.35,0,0,0-1.38-1.32h-.07a1.59,1.59,0,0,0-1.48,1.82Z"/><path class="cls-20" d="M488.84,394.46h5.25v.83h-4.24v2.34h3.95v.83h-3.95V401h4.27v.83h-5.28Z"/><path class="cls-19" d="M384,426.66H368.58v-15H384Zm-14.43-1H383v-13h-13.4Z"/><path class="cls-19" d="M384,457.68H368.58v-15H384Zm-14.43-1H383v-13h-13.4Z"/><path class="cls-19" d="M416.5,426.66H401.05v-15H416.5Zm-14.42-1h13.39v-13H402.08Z"/><rect class="cls-19" x="373.85" y="416.77" width="4.89" height="4.75"/><rect class="cls-19" x="373.85" y="447.79" width="4.89" height="4.75"/><rect class="cls-19" x="406.32" y="416.77" width="4.89" height="4.75"/><rect class="cls-19" x="387.31" y="411.49" width="3.13" height="10.76"/><rect class="cls-19" x="387.31" y="413.14" width="6.53" height="2.64"/><rect class="cls-19" x="387.31" y="417.43" width="6.53" height="2.48"/><rect class="cls-19" x="393.83" y="419.91" width="3.92" height="3.81"/><rect class="cls-19" x="396.6" y="423.72" width="1.16" height="4.84"/><rect class="cls-19" x="387.31" y="424.55" width="2.72" height="4.01"/><rect class="cls-19" x="391.89" y="423.72" width="1.94" height="3.04"/><rect class="cls-19" x="390.03" y="426.57" width="6.57" height="1.99"/><rect class="cls-19" x="383.02" y="428.56" width="4.29" height="2.41"/><rect class="cls-19" x="390.12" y="428.56" width="3.37" height="3.27"/><rect class="cls-19" x="390.12" y="431.52" width="1.94" height="1.88"/><rect class="cls-19" x="375.89" y="431.52" width="2.17" height="2.11"/><rect class="cls-19" x="378.06" y="429.51" width="2.07" height="2.01"/><rect class="cls-19" x="371.57" y="429.24" width="4.32" height="2.28"/><rect class="cls-19" x="369.25" y="433.63" width="6.62" height="2.18"/><rect class="cls-19" x="375.89" y="435.81" width="2.35" height="2.01"/><rect class="cls-19" x="373.85" y="437.82" width="2.04" height="2.77"/><rect class="cls-19" x="368.91" y="437.82" width="2.04" height="2.77"/><rect class="cls-19" x="378.24" y="437.82" width="6.62" height="2.34"/><rect class="cls-19" x="383.02" y="433.4" width="5.85" height="2.41"/><rect class="cls-19" x="388.87" y="433.4" width="1.26" height="0.64"/><rect class="cls-19" x="392.07" y="433.4" width="1.77" height="6.27"/><rect class="cls-19" x="387.31" y="435.81" width="1.57" height="1.81"/><rect class="cls-19" x="389.75" y="437.62" width="2.31" height="2.05"/><rect class="cls-19" x="396.6" y="430.83" width="2.34" height="4.42"/><rect class="cls-19" x="398.93" y="430.83" width="2.17" height="2.34"/><rect class="cls-19" x="401.1" y="428.71" width="2.38" height="2.11"/><rect class="cls-19" x="403.48" y="430.83" width="2.38" height="2.31"/><rect class="cls-19" x="401.1" y="433.13" width="2.38" height="1.48"/><rect class="cls-19" x="398.93" y="435.25" width="4.15" height="2.77"/><rect class="cls-19" x="401.36" y="434.6" width="1.49" height="0.64"/><rect class="cls-19" x="405.86" y="433.14" width="2.72" height="2.27"/><rect class="cls-19" x="405.86" y="428.38" width="10.84" height="2.44"/><rect class="cls-19" x="408.58" y="430.83" width="2.38" height="2.31"/><rect class="cls-19" x="412.83" y="430.83" width="3.87" height="1.85"/><rect class="cls-19" x="410.96" y="432.56" width="3.79" height="1.7"/><rect class="cls-19" x="412.87" y="434.27" width="1.9" height="5.4"/><rect class="cls-19" x="405.86" y="436.97" width="5.1" height="4.95"/><rect class="cls-19" x="410.96" y="439.67" width="1.9" height="4.71"/><rect class="cls-19" x="403.67" y="444.38" width="7.29" height="2.09"/><rect class="cls-19" x="406.09" y="446.47" width="2.41" height="2.01"/><rect class="cls-19" x="410.96" y="446.47" width="1.9" height="2.01"/><rect class="cls-19" x="412.87" y="444.38" width="2.43" height="2.09"/><rect class="cls-19" x="415.3" y="441.62" width="2.31" height="2.76"/><rect class="cls-19" x="388.23" y="439.67" width="1.52" height="4.65"/><rect class="cls-19" x="389.75" y="442.57" width="2.21" height="2.15"/><rect class="cls-19" x="390.46" y="444.73" width="1.6" height="6.54"/><rect class="cls-19" x="387.97" y="446.83" width="2.5" height="2"/><rect class="cls-19" x="392.07" y="446.83" width="2.33" height="2.26"/><rect class="cls-19" x="394.4" y="449.09" width="2.36" height="2.18"/><rect class="cls-19" x="396.76" y="451.27" width="2.11" height="1.86"/><rect class="cls-19" x="401.25" y="451.27" width="2.14" height="2.08"/><rect class="cls-19" x="392.07" y="451.27" width="2.33" height="2.36"/><rect class="cls-19" x="394.4" y="453.63" width="2.19" height="3.76"/><rect class="cls-19" x="399.69" y="453.35" width="1.56" height="4.04"/><rect class="cls-19" x="390.54" y="455.63" width="9.16" height="1.77"/><rect class="cls-19" x="390.54" y="453.63" width="3.86" height="2"/><rect class="cls-19" x="387.2" y="451.27" width="3.34" height="2.36"/><rect class="cls-19" x="388.31" y="453.63" width="2.23" height="2"/><rect class="cls-19" x="391.98" y="439.67" width="3.9" height="5.06"/><rect class="cls-19" x="394.4" y="444.73" width="2.36" height="2.1"/><rect class="cls-19" x="395.87" y="441.92" width="7.8" height="2.46"/><rect class="cls-19" x="399.32" y="444.32" width="3.63" height="4.16"/><rect class="cls-19" x="398.93" y="439.76" width="2.42" height="2.16"/><rect class="cls-19" x="404.44" y="455.37" width="8.43" height="2.02"/><rect class="cls-19" x="412.87" y="452.74" width="5.01" height="2.63"/><rect class="cls-19" x="408.51" y="448.48" width="2.46" height="2.25"/><rect class="cls-19" x="412.87" y="448.48" width="2.5" height="2.43"/><rect class="cls-19" x="415.36" y="450.91" width="2.5" height="1.83"/><rect class="cls-19" x="415.1" y="455.37" width="2.76" height="2.38"/><path class="cls-20" d="M347.63,458.1a10.05,10.05,0,0,1-2.06-5.8,9.51,9.51,0,0,1,2.06-5.72h.83a9.91,9.91,0,0,0-1.69,5.72,10.18,10.18,0,0,0,1.69,5.8Z"/><path class="cls-20" d="M351.07,446.79h4a2.62,2.62,0,1,1,0,5.24h-2.79v3.62h-1.22Zm1.26,4.21h2.38c1.38,0,2-.57,2-1.62s-.61-1.62-2-1.62h-2.38Z"/><path class="cls-20" d="M360.06,458.1a9.9,9.9,0,0,0,1.69-5.71,10.19,10.19,0,0,0-1.69-5.81h.83a10.11,10.11,0,0,1,2.06,5.81,9.48,9.48,0,0,1-2.06,5.71Z"/><rect class="cls-13" x="380.49" y="137.84" width="11.93" height="46.16"/><rect class="cls-13" x="446.65" y="137.84" width="11.93" height="46.16"/><ellipse class="cls-13" cx="419.05" cy="174" rx="5.87" ry="5.7"/><rect class="cls-13" x="413.18" y="137.84" width="11.74" height="36.17"/><g id="r-01"><g class="cls-21"><g class="cls-21"><path class="cls-22" d="M467,507.32h9.9a1.38,1.38,0,0,1,1.4,1.36h0v3.16a1.39,1.39,0,0,1-1.4,1.37H467a1.41,1.41,0,0,1-1.41-1.37v-3.16a1.37,1.37,0,0,1,1.37-1.37h0"/><rect class="cls-23" x="469.05" y="507.31" width="5.83" height="5.92"/></g></g></g><g id="Artwork_6" data-name="Artwork 6"><g class="cls-24"><g class="cls-24"><path class="cls-25" d="M485.07,511.72v-2.35a1.49,1.49,0,0,1,1.5-1.48h14.9a1.5,1.5,0,0,1,1.52,1.48h0v2.35a1.5,1.5,0,0,1-1.52,1.48H486.58a1.49,1.49,0,0,1-1.51-1.47h0"/><path class="cls-26" d="M487,511.92v-2.75a1.3,1.3,0,0,1,1.32-1.28H499.1a1.3,1.3,0,0,1,1.32,1.28v2.75a1.3,1.3,0,0,1-1.32,1.28H488.28a1.32,1.32,0,0,1-1.32-1.28"/><path class="cls-27" d="M487.88,512.33v-4.12a.88.88,0,0,1,.89-.86h10.05a.89.89,0,0,1,.89.86v4.12a.89.89,0,0,1-.89.87H488.77a.87.87,0,0,1-.89-.86h0"/><rect class="cls-28" x="490.6" y="507.35" width="6.81" height="5.84"/></g></g></g><g id="Artwork_6-2" data-name="Artwork 6-2"><g class="cls-29"><g class="cls-29"><path class="cls-25" d="M485.07,500.89v-2.35a1.49,1.49,0,0,1,1.5-1.48h14.9a1.5,1.5,0,0,1,1.52,1.48h0v2.35a1.5,1.5,0,0,1-1.52,1.48H486.58a1.49,1.49,0,0,1-1.51-1.47h0"/><path class="cls-26" d="M487,501.09v-2.75a1.3,1.3,0,0,1,1.32-1.28H499.1a1.3,1.3,0,0,1,1.32,1.28v2.75a1.3,1.3,0,0,1-1.32,1.28H488.28a1.32,1.32,0,0,1-1.32-1.28"/><path class="cls-27" d="M487.88,501.5v-4.12a.88.88,0,0,1,.89-.86h10.05a.89.89,0,0,1,.89.86v4.12a.89.89,0,0,1-.89.87H488.77a.87.87,0,0,1-.89-.86h0"/><rect class="cls-28" x="490.6" y="496.52" width="6.81" height="5.84"/></g></g></g><g id="Artwork_6-3" data-name="Artwork 6-3"><g class="cls-30"><g class="cls-30"><path class="cls-25" d="M463.86,500.89v-2.35a1.49,1.49,0,0,1,1.5-1.48h14.89a1.49,1.49,0,0,1,1.51,1.47h0v2.35a1.49,1.49,0,0,1-1.5,1.48H465.41a1.49,1.49,0,0,1-1.51-1.47h0"/><path class="cls-26" d="M465.76,501.09v-2.75a1.3,1.3,0,0,1,1.3-1.28h10.83a1.3,1.3,0,0,1,1.32,1.28v2.75a1.3,1.3,0,0,1-1.32,1.28H467.07a1.31,1.31,0,0,1-1.31-1.28"/><path class="cls-27" d="M466.67,501.5v-4.12a.88.88,0,0,1,.89-.86h10.05a.88.88,0,0,1,.89.86v4.12a.89.89,0,0,1-.88.87H467.56a.87.87,0,0,1-.89-.86h0"/><rect class="cls-28" x="469.39" y="496.52" width="6.81" height="5.84"/></g></g></g><rect class="cls-3" x="326.84" y="302.6" width="28.14" height="8.17"/><rect class="cls-3" x="326.84" y="337.47" width="28.14" height="8.17"/><path class="cls-3" d="M317.22,317.2H326a3.22,3.22,0,0,1,3.26,3.17v7.82a3.22,3.22,0,0,1-3.26,3.17h-8.73a3.22,3.22,0,0,1-3.26-3.17v-7.82A3.22,3.22,0,0,1,317.22,317.2Z"/><ellipse class="cls-2" cx="342.1" cy="324.28" rx="7.62" ry="7.4"/></g><rect class="cls-31" x="707.36" y="381.08" width="77.25" height="28.42"/><polygon class="cls-31" points="729.24 381.11 700.66 381.11 686.36 395.3 700.66 409.53 729.24 409.53 743.54 395.3 729.24 381.11"/><polygon class="cls-31" points="784.32 381.11 755.74 381.11 741.44 395.3 755.74 409.53 784.32 409.53 798.63 395.3 784.32 381.11"/><path class="cls-3" d="M709.47,397.31c0,2.06,1.6,2.86,3.43,2.86,1.19,0,3-.34,3-1.93s-2.35-1.93-4.61-2.56-4.62-1.54-4.62-4.41c0-3.19,3-4.71,5.8-4.71,3.23,0,6.21,1.42,6.21,5h-3.31c-.1-1.85-1.4-2.35-3.06-2.35-1.08,0-2.34.46-2.34,1.76s.74,1.35,4.62,2.34c1.15.27,4.61,1,4.61,4.52,0,2.85-2.22,5-6.45,5-3.43,0-6.67-1.69-6.61-5.51Z"/><path class="cls-3" d="M736,402.45h-3.37L730,391.91H730l-2.59,10.54H723.9L719.8,387h3.43l2.45,10.56h.05L728.42,387h3.19l2.64,10.69h0L736.84,387h3.36Z"/><path class="cls-3" d="M741.73,387h6.69c4,0,7,2.54,7,7.67,0,4.49-2.3,7.83-7,7.83h-6.69Zm3.42,12.64h3c2,0,3.87-1.21,3.87-4.65,0-3.12-1.11-5.12-4.47-5.12h-2.43Z"/><path class="cls-3" d="M757.83,387h3.4v15.48h-3.4Z"/><path class="cls-3" d="M771.18,386.62c4.77,0,7.62,3.58,7.62,8.18s-2.85,8.08-7.62,8.08-7.62-3.58-7.62-8.08S766.4,386.62,771.18,386.62Zm0,13.37c3.06,0,4.21-2.6,4.21-5.19s-1.15-5.32-4.21-5.32S767,392.09,767,394.8s1.15,5.16,4.21,5.16Z"/><rect class="cls-31" x="707.36" y="415.71" width="77.25" height="28.42"/><polygon class="cls-31" points="784.32 415.75 755.74 415.75 741.44 429.94 755.74 444.17 784.32 444.17 798.63 429.94 784.32 415.75"/><polygon class="cls-31" points="729.24 415.75 700.66 415.75 686.36 429.94 700.66 444.17 729.24 444.17 743.54 429.94 729.24 415.75"/><path class="cls-3" d="M704.66,432c0,2.06,1.6,2.87,3.42,2.87,1.2,0,3-.35,3-1.94s-2.35-1.93-4.61-2.56-4.62-1.54-4.62-4.41c0-3.19,3-4.71,5.79-4.71,3.24,0,6.22,1.41,6.22,5h-3.31c-.11-1.84-1.41-2.34-3.06-2.34-1.09,0-2.34.46-2.34,1.76s.74,1.34,4.62,2.35c1.15.25,4.6,1,4.6,4.51,0,2.84-2.21,5-6.44,5-3.44,0-6.67-1.69-6.61-5.51Z"/><path class="cls-3" d="M731.19,437.09h-3.36l-2.63-10.55h0l-2.6,10.55H719.1L715,421.61h3.41l2.45,10.55h0l2.69-10.55h3.19l2.64,10.68h.05L732,421.61h3.37Z"/><path class="cls-3" d="M747.26,426.8a3.36,3.36,0,0,0-3.37-2.69c-3.06,0-4.21,2.6-4.21,5.32s1.15,5.19,4.21,5.19c2.08,0,3.25-1.41,3.52-3.48h3.3a6.52,6.52,0,0,1-6.82,6.34c-4.78,0-7.62-3.58-7.62-8.08s2.84-8.19,7.62-8.19c3.37,0,6.28,2,6.69,5.58Z"/><path class="cls-3" d="M753,421.59h3.41v12.64H764v2.86H753Z"/><path class="cls-3" d="M765.89,421.59h3.41V428l6.06-6.43h4.25l-6.06,6.12,6.65,9.38h-4.28l-4.67-7-2,2v5h-3.41Z"/><rect class="cls-32" x="711.66" y="448.56" width="105.5" height="28.42"/><polygon class="cls-32" points="818.34 448.57 789.76 448.57 775.46 462.75 789.76 476.98 818.34 476.98 832.65 462.75 818.34 448.57"/><polygon class="cls-32" points="729.24 448.6 700.66 448.6 686.36 462.79 700.66 477.01 729.24 477.01 743.54 462.79 729.24 448.6"/><path class="cls-3" d="M716.09,464.75c0,4.19-2.47,6.23-6.62,6.23s-6.6-2-6.6-6.23v-9.64h3.41v9.64c0,1.7.43,3.37,3.19,3.37,2.43,0,3.21-1.05,3.21-3.37v-9.64h3.41Z"/><path class="cls-3" d="M723.26,455.11h3.49l5.8,15.48H729l-1.17-3.46H722l-1.21,3.46h-3.46Zm-.33,9.51h4l-2-5.69h0Z"/><path class="cls-3" d="M733.9,455.11h8.36a4.25,4.25,0,0,1,4.53,4.28,3.79,3.79,0,0,1-2.45,3.89v0c1.67.45,2.15,2,2.26,3.63.07,1,0,2.82.67,3.66h-3.41a18.27,18.27,0,0,1-.54-3.71c-.24-1.62-.87-2.34-2.58-2.34h-3.41v6.05h-3.41Zm3.4,7H741c1.54,0,2.35-.68,2.35-2.22s-.81-2.15-2.35-2.15h-3.71Z"/><path class="cls-3" d="M753,458h-4.65v-2.87h12.7V458h-4.65v12.63H753Z"/><path class="cls-3" d="M762.6,461.21c-.11-3.47,1.87-6.15,5.52-6.15,2.78,0,5.21,1.78,5.21,4.76,0,4.6-4.89,5-7.1,8.07h7.19v2.65H762.28c0-3.54,2.17-5,4.8-6.8,1.35-.93,3.19-1.84,3.19-3.71a2.18,2.18,0,0,0-2-2.34H768c-1.82,0-2.41,1.89-2.41,3.5Z"/><path class="cls-3" d="M775.17,472.24H786v1.09H775.17Z"/><path class="cls-3" d="M791,458h-4.64v-2.87H799V458h-4.65v12.63h-3.41Z"/><path class="cls-3" d="M804.59,462.5l-5-7.41h4l3,5,3.14-5h3.74l-5,7.41,5.38,8.07h-4l-3.37-5.38L803,470.57h-3.84Z"/><rect class="cls-32" x="711.66" y="481.41" width="105.5" height="28.42"/><polygon class="cls-32" points="819.13 481.44 790.55 481.44 776.25 495.63 790.55 509.86 819.13 509.86 833.44 495.63 819.13 481.44"/><polygon class="cls-32" points="729.24 481.44 700.66 481.44 686.36 495.63 700.66 509.86 729.24 509.86 743.54 495.63 729.24 481.44"/><path class="cls-3" d="M716.09,497.6c0,4.19-2.47,6.23-6.62,6.23s-6.6-2-6.6-6.23V488h3.41v9.64c0,1.7.43,3.37,3.19,3.37,2.43,0,3.21-1.05,3.21-3.37V488h3.41Z"/><path class="cls-3" d="M723.26,488h3.49l5.8,15.48H729L727.84,500H722l-1.21,3.45h-3.46Zm-.33,9.51h4l-2-5.69h0Z"/><path class="cls-3" d="M733.9,488h8.36a4.25,4.25,0,0,1,4.53,4.28,3.79,3.79,0,0,1-2.45,3.89v0c1.67.45,2.15,2,2.26,3.63.07,1,0,2.82.67,3.66h-3.41a18.27,18.27,0,0,1-.54-3.71c-.24-1.63-.87-2.34-2.58-2.34h-3.41v6h-3.41Zm3.4,7H741c1.54,0,2.35-.68,2.35-2.22s-.81-2.15-2.35-2.15h-3.71Z"/><path class="cls-3" d="M753,490.83h-4.65V488h12.7v2.87h-4.65v12.63H753Z"/><path class="cls-3" d="M775.46,505.09h10.86v1.09H775.46Z"/><path class="cls-3" d="M787.84,488h8.36a4.26,4.26,0,0,1,4.54,4.28,3.8,3.8,0,0,1-2.46,3.89v0c1.67.45,2.15,2,2.26,3.63.07,1,0,2.82.67,3.66h-3.4a19,19,0,0,1-.55-3.71c-.23-1.63-.87-2.34-2.58-2.34H791.2v6h-3.36Zm3.41,7H795c1.54,0,2.34-.68,2.34-2.22s-.8-2.15-2.34-2.15H791.2Z"/><path class="cls-3" d="M807.29,495.35l-5-7.41h4l3,4.95,3.15-4.95h3.73l-5,7.41,5.39,8.07h-4L809.18,498l-3.44,5.38h-3.85Z"/><path class="cls-3" d="M762.6,494.11c-.11-3.47,1.87-6.14,5.52-6.14,2.78,0,5.21,1.77,5.21,4.75,0,4.6-4.89,5-7.1,8.07h7.19v2.65H762.28c0-3.54,2.17-5,4.8-6.8,1.35-.93,3.19-1.84,3.19-3.71a2.18,2.18,0,0,0-2-2.34H768c-1.82,0-2.41,1.89-2.41,3.5Z"/><rect class="cls-33" x="47.04" y="316.52" width="85.92" height="28.42"/><polygon class="cls-33" points="136.15 316.55 107.56 316.55 93.26 330.75 107.56 344.97 136.15 344.97 150.45 330.75 136.15 316.55"/><polygon class="cls-33" points="64.63 316.55 36.05 316.55 21.74 330.75 36.05 344.97 64.63 344.97 78.93 330.75 64.63 316.55"/><path class="cls-3" d="M46.7,332.75c0,2.07,1.61,2.87,3.43,2.87,1.2,0,3-.35,3-1.93s-2.34-1.93-4.6-2.57-4.63-1.54-4.63-4.41c0-3.19,3-4.71,5.8-4.71,3.23,0,6.21,1.41,6.21,5h-3.3c-.11-1.85-1.41-2.35-3.06-2.35-1.09,0-2.35.46-2.35,1.76s.74,1.35,4.62,2.34c1.15.27,4.61,1,4.61,4.52,0,2.84-2.22,5-6.45,5-3.43,0-6.66-1.69-6.6-5.51Z"/><path class="cls-3" d="M58.47,322.4h7c3.89,0,5.39,2.45,5.39,5s-1.48,5-5.39,5H61.88v5.56H58.47Zm3.41,7.29h2.65c1.56,0,3-.34,3-2.32s-1.43-2.33-3-2.33H61.88Z"/><path class="cls-3" d="M73,322.4h3.41v15.48H73Z"/><path class="cls-3" d="M77.86,339.53H88.72v1.08H77.86Z"/><path class="cls-3" d="M100.55,327.6a3.36,3.36,0,0,0-3.36-2.7c-3.07,0-4.22,2.61-4.22,5.32s1.15,5.19,4.22,5.19c2.08,0,3.25-1.41,3.51-3.47H104a6.52,6.52,0,0,1-6.81,6.34c-4.78,0-7.62-3.59-7.62-8.08S92.41,322,97.19,322c3.36,0,6.27,2,6.68,5.58Z"/><path class="cls-3" d="M106.31,322.4h3.43V335h7.56v2.87h-11Z"/><path class="cls-3" d="M119.16,322.4h3.41v6.42l6.06-6.42h4.26l-6.06,6.12,6.64,9.38h-4.28L124.55,331l-2,2v5h-3.43Z"/><rect class="cls-33" x="65.69" y="348.79" width="67.27" height="28.42"/><polygon class="cls-33" points="136.15 348.82 107.56 348.82 93.26 363.02 107.56 377.24 136.15 377.24 150.45 363.02 136.15 348.82"/><polygon class="cls-33" points="77.82 348.82 49.24 348.82 34.93 363.02 49.24 377.24 77.82 377.24 92.12 363.02 77.82 348.82"/><path class="cls-3" d="M60.83,365c0,2.06,1.61,2.86,3.44,2.86,1.19,0,3-.35,3-1.93s-2.34-1.93-4.6-2.56-4.63-1.54-4.63-4.41c0-3.19,3-4.71,5.8-4.71,3.24,0,6.21,1.4,6.21,5h-3.3c-.11-1.85-1.41-2.35-3.06-2.35-1.09,0-2.35.46-2.35,1.76S62.09,360,66,361c1.15.26,4.6,1,4.6,4.51,0,2.84-2.21,5-6.45,5-3.42,0-6.66-1.7-6.59-5.52Z"/><path class="cls-3" d="M72.6,354.67h7c3.89,0,5.39,2.45,5.39,5s-1.48,5-5.39,5H76v5.56H72.6ZM76,362h2.65c1.57,0,3-.34,3-2.32s-1.42-2.32-3-2.32H76Z"/><path class="cls-3" d="M87.09,354.67h3.4v15.48h-3.4Z"/><path class="cls-3" d="M92,371.8h10.86v1.09H92Z"/><path class="cls-3" d="M114.68,359.87a3.35,3.35,0,0,0-3.36-2.69c-3.06,0-4.21,2.6-4.21,5.31s1.15,5.19,4.21,5.19c2.08,0,3.26-1.41,3.51-3.47h3.31a6.52,6.52,0,0,1-6.82,6.34c-4.78,0-7.62-3.59-7.62-8.08s2.84-8.18,7.62-8.18c3.36,0,6.27,2,6.68,5.58Z"/><path class="cls-3" d="M123.3,365.45c0,2.05,1.59,2.84,3.4,2.84,1.18,0,3-.34,3-1.91s-2.32-1.92-4.56-2.54-4.58-1.53-4.58-4.37c0-3.16,3-4.65,5.74-4.65,3.21,0,6.16,1.4,6.16,4.95h-3.27c-.11-1.83-1.4-2.32-3-2.32-1.07,0-2.32.45-2.32,1.74s.73,1.36,4.58,2.33c1.14.25,4.56,1,4.56,4.47,0,2.82-2.19,4.93-6.39,4.93-3.4,0-6.6-1.68-6.54-5.47Z"/><polygon class="cls-34" points="752.5 315.72 723.92 315.72 709.62 329.92 723.92 344.14 752.5 344.14 766.81 329.92 752.5 315.72"/><polygon class="cls-34" points="729.24 315.72 700.66 315.72 686.36 329.92 700.66 344.14 729.24 344.14 743.54 329.92 729.24 315.72"/><path class="cls-3" d="M706,321.56h8.36a4.27,4.27,0,0,1,4.55,4.28,3.79,3.79,0,0,1-2.46,3.89v0c1.67.46,2.15,2,2.25,3.63.07,1,0,2.82.68,3.66H716a18.27,18.27,0,0,1-.54-3.7c-.24-1.63-.87-2.35-2.59-2.35h-3.4v6.05H706Zm3.42,7h3.73c1.54,0,2.34-.68,2.34-2.22s-.8-2.15-2.34-2.15H709.4Z"/><path class="cls-3" d="M724,331.92c0,2.06,1.6,2.87,3.43,2.87,1.19,0,3-.35,3-1.93s-2.35-1.94-4.61-2.57-4.62-1.54-4.62-4.41c0-3.19,3-4.71,5.79-4.71,3.24,0,6.22,1.42,6.22,5h-3.31c-.11-1.85-1.4-2.35-3.06-2.35-1.08,0-2.34.46-2.34,1.76s.74,1.35,4.62,2.35c1.15.26,4.61,1,4.61,4.52,0,2.84-2.22,5-6.45,5-3.44,0-6.67-1.69-6.61-5.51Z"/><path class="cls-3" d="M739.21,324.43h-4.65v-2.87h12.7v2.87h-4.69v12.63h-3.36Z"/><rect class="cls-33" x="38.07" y="284.24" width="85.92" height="28.42"/><polygon class="cls-33" points="136.15 284.28 107.56 284.28 93.26 298.47 107.56 312.7 136.15 312.7 150.45 298.47 136.15 284.28"/><polygon class="cls-33" points="55.65 284.28 27.07 284.28 12.76 298.47 27.07 312.7 55.65 312.7 69.95 298.47 55.65 284.28"/><path class="cls-3" d="M37.72,300.48c0,2.06,1.61,2.87,3.43,2.87,1.2,0,3-.35,3-1.94s-2.34-1.93-4.6-2.56-4.63-1.54-4.63-4.41c0-3.19,3-4.71,5.8-4.71,3.24,0,6.21,1.41,6.21,5h-3.3c-.11-1.84-1.41-2.34-3.06-2.34-1.09,0-2.35.46-2.35,1.76s.74,1.34,4.62,2.35c1.16.25,4.61,1,4.61,4.51,0,2.84-2.22,5-6.45,5-3.43,0-6.66-1.69-6.6-5.51Z"/><path class="cls-3" d="M49.49,290.12h7c3.89,0,5.39,2.46,5.39,5s-1.48,5-5.39,5H52.9v5.55H49.49Zm3.41,7.3h2.65c1.56,0,3-.35,3-2.33s-1.43-2.32-3-2.32H52.9Z"/><path class="cls-3" d="M64,290.12h3.41V305.6H64Z"/><path class="cls-3" d="M68.88,307.25H79.74v1.09H68.88Z"/><path class="cls-3" d="M81.24,290.12H86l3.63,10.66h0l3.42-10.66h4.8V305.6H94.74v-11h0l-3.8,11H88.27l-3.8-10.88h0v10.88H81.24Z"/><path class="cls-3" d="M100.93,290.12h3.41V305.6h-3.41Z"/><path class="cls-3" d="M109.66,300.48c0,2.06,1.61,2.87,3.43,2.87,1.19,0,3-.35,3-1.94s-2.35-1.93-4.61-2.56-4.62-1.54-4.62-4.41c0-3.19,3-4.71,5.8-4.71,3.23,0,6.21,1.41,6.21,5h-3.32c-.11-1.84-1.41-2.34-3.06-2.34-1.09,0-2.35.46-2.35,1.76s.74,1.34,4.63,2.35c1.15.25,4.6,1,4.6,4.51,0,2.84-2.21,5-6.45,5-3.43,0-6.67-1.69-6.6-5.51Z"/><path class="cls-3" d="M128.36,289.75c4.78,0,7.62,3.59,7.62,8.18s-2.84,8.08-7.62,8.08-7.62-3.58-7.62-8.08S123.6,289.75,128.36,289.75Zm0,13.37c3.06,0,4.21-2.6,4.21-5.19s-1.15-5.31-4.21-5.31-4.22,2.6-4.22,5.31S125.32,303.12,128.36,303.12Z"/><path class="cls-19" d="M160,255.73h22.07a3,3,0,0,1,3,3v15a3,3,0,0,1-3,3H160a3,3,0,0,1-3-3v-15A3,3,0,0,1,160,255.73Z"/><line class="cls-35" x1="279.09" y1="265.41" x2="178.64" y2="265.41"/><line class="cls-36" x1="279.09" y1="265.41" x2="269.65" y2="265.41"/><path class="cls-3" d="M279,262.88a2.53,2.53,0,1,1-2.53,2.53,2.53,2.53,0,0,1,2.53-2.53Z"/><path class="cls-19" d="M160.47,452.24h22.06a3,3,0,0,1,3,3v15a3,3,0,0,1-3,3H160.47a3,3,0,0,1-3-3v-15A3,3,0,0,1,160.47,452.24Z"/><line class="cls-35" x1="279.55" y1="461.92" x2="179.1" y2="461.92"/><line class="cls-36" x1="279.55" y1="461.92" x2="270.11" y2="461.92"/><path class="cls-3" d="M279.43,459.39a2.53,2.53,0,1,1-2.53,2.53,2.53,2.53,0,0,1,2.53-2.53Z"/><path class="cls-19" d="M160.47,518.7h22.06a3,3,0,0,1,3,3v15a3,3,0,0,1-3,3H160.47a3,3,0,0,1-3-3v-15A3,3,0,0,1,160.47,518.7Z"/><line class="cls-35" x1="279.55" y1="528.38" x2="179.1" y2="528.38"/><line class="cls-36" x1="279.55" y1="528.38" x2="270.11" y2="528.38"/><path class="cls-3" d="M279.43,525.85a2.53,2.53,0,1,1-2.53,2.53,2.54,2.54,0,0,1,2.53-2.53Z"/><path class="cls-19" d="M160.47,485.47h22.06a3,3,0,0,1,3,3v15a3,3,0,0,1-3,3H160.47a3,3,0,0,1-3-3v-15A3,3,0,0,1,160.47,485.47Z"/><line class="cls-35" x1="279.55" y1="495.15" x2="179.1" y2="495.15"/><line class="cls-36" x1="279.55" y1="495.15" x2="270.11" y2="495.15"/><path class="cls-3" d="M279.43,492.62a2.53,2.53,0,1,1-2.53,2.53,2.53,2.53,0,0,1,2.53-2.53Z"/><rect class="cls-33" x="38.07" y="251.97" width="85.92" height="28.42"/><polygon class="cls-33" points="136.15 252 107.56 252 93.26 266.2 107.56 280.42 136.15 280.42 150.45 266.2 136.15 252"/><polygon class="cls-33" points="55.65 252 27.07 252 12.76 266.2 27.07 280.42 55.65 280.42 69.95 266.2 55.65 252"/><path class="cls-3" d="M37.72,268.2c0,2.07,1.61,2.87,3.43,2.87,1.2,0,3-.34,3-1.93s-2.34-1.93-4.6-2.56-4.63-1.54-4.63-4.41c0-3.19,3-4.71,5.8-4.71,3.24,0,6.21,1.41,6.21,5h-3.3c-.11-1.84-1.41-2.34-3.06-2.34-1.09,0-2.35.45-2.35,1.76s.74,1.34,4.62,2.34c1.16.26,4.61,1,4.61,4.52,0,2.84-2.22,5-6.45,5-3.43,0-6.66-1.7-6.6-5.52Z"/><path class="cls-3" d="M49.49,257.86h7c3.89,0,5.39,2.45,5.39,5s-1.48,5-5.39,5H52.9v5.54H49.49Zm3.41,7.29h2.65c1.56,0,3-.35,3-2.32s-1.43-2.33-3-2.33H52.9Z"/><path class="cls-3" d="M64,257.86h3.41v15.48H64Z"/><path class="cls-3" d="M68.88,275H79.74v1.08H68.88Z"/><path class="cls-3" d="M81.24,257.86H86l3.63,10.66h0l3.42-10.66h4.8v15.48H94.74v-11h0l-3.8,11H88.27l-3.8-10.88h0v10.87H81.24Z"/><path class="cls-3" d="M107.88,257.48c4.77,0,7.62,3.58,7.62,8.18s-2.85,8.08-7.62,8.08-7.62-3.58-7.62-8.08S103.1,257.48,107.88,257.48Zm0,13.37c3.06,0,4.21-2.6,4.21-5.19s-1.15-5.31-4.21-5.31-4.21,2.6-4.21,5.31,1.13,5.19,4.21,5.19Z"/><path class="cls-3" d="M120.15,268.2c0,2.07,1.6,2.87,3.43,2.87,1.19,0,3-.34,3-1.93s-2.34-1.93-4.59-2.56-4.63-1.54-4.63-4.41c0-3.19,3-4.71,5.8-4.71,3.23,0,6.2,1.41,6.2,5h-3.29c-.11-1.84-1.42-2.34-3.07-2.34-1.08,0-2.34.45-2.34,1.76s.73,1.34,4.63,2.34c1.15.26,4.6,1,4.6,4.52,0,2.84-2.22,5-6.45,5-3.43,0-6.67-1.7-6.6-5.52Z"/><path class="cls-3" d="M131.92,257.86h3.41v15.48h-3.41Z"/><path class="cls-19" d="M160,287.71h22.07a3,3,0,0,1,3,3v15a3,3,0,0,1-3,3H160a3,3,0,0,1-3-3v-15A3,3,0,0,1,160,287.71Z"/><line class="cls-35" x1="279.09" y1="298.07" x2="178.64" y2="298.07"/><line class="cls-36" x1="279.09" y1="298.07" x2="269.65" y2="298.07"/><path class="cls-3" d="M279,295.54a2.53,2.53,0,1,1-2.53,2.53,2.53,2.53,0,0,1,2.53-2.53Z"/><path class="cls-19" d="M160.47,319.69h22.06a3,3,0,0,1,3,3v15a3,3,0,0,1-3,3H160.47a3,3,0,0,1-3-3v-15A3,3,0,0,1,160.47,319.69Z"/><line class="cls-35" x1="279.55" y1="329.37" x2="179.1" y2="329.37"/><line class="cls-36" x1="279.55" y1="329.37" x2="270.11" y2="329.37"/><path class="cls-3" d="M279.43,326.84a2.53,2.53,0,1,1-2.53,2.53,2.53,2.53,0,0,1,2.53-2.53Z"/><path class="cls-19" d="M160,351.67h22.07a3,3,0,0,1,3,3v15a3,3,0,0,1-3,3H160a3,3,0,0,1-3-3v-15A3,3,0,0,1,160,351.67Z"/><line class="cls-35" x1="279.09" y1="362.03" x2="178.64" y2="362.03"/><line class="cls-36" x1="279.09" y1="362.03" x2="269.65" y2="362.03"/><path class="cls-3" d="M279,359.5a2.53,2.53,0,1,1-2.53,2.53A2.53,2.53,0,0,1,279,359.5Z"/><polygon class="cls-31" points="729.24 283.03 700.66 283.03 686.36 297.23 700.66 311.45 729.24 311.45 743.54 297.23 729.24 283.03"/><rect class="cls-31" x="717.87" y="283.15" width="70.12" height="28.3"/><polygon class="cls-31" points="814.59 283.03 786 283.03 771.69 297.23 786 311.45 814.59 311.45 828.89 297.23 814.59 283.03"/><path class="cls-3" d="M705.45,288.85h3.41v15.48h-3.41Z"/><path class="cls-3" d="M711.15,295c-.11-3.48,1.87-6.15,5.52-6.15,2.78,0,5.21,1.78,5.21,4.75,0,4.61-4.88,5-7.1,8.08H722v2.65H710.84c0-3.54,2.16-5,4.8-6.8,1.34-.93,3.19-1.85,3.19-3.71a2.21,2.21,0,0,0-2-2.35h-.27c-1.82,0-2.41,1.89-2.41,3.5Z"/><path class="cls-3" d="M739.9,295c-.11-3.48,1.87-6.15,5.51-6.15,2.78,0,5.21,1.78,5.21,4.75,0,4.61-4.88,5-7.1,8.08h7.19v2.65H739.58c0-3.54,2.17-5,4.8-6.8,1.34-.93,3.19-1.85,3.19-3.71a2.2,2.2,0,0,0-2-2.35h-.26c-1.83,0-2.41,1.89-2.41,3.5Z"/><path class="cls-3" d="M734.26,294.09a3.36,3.36,0,0,0-3.36-2.69c-3.07,0-4.22,2.6-4.22,5.32s1.15,5.19,4.22,5.19c2.08,0,3.25-1.41,3.51-3.48h3.3a6.52,6.52,0,0,1-6.81,6.34c-4.78,0-7.63-3.58-7.63-8.07s2.85-8.19,7.63-8.19c3.36,0,6.27,2,6.68,5.58Z"/><path class="cls-3" d="M752,305.49h10.86v1.08H752Z"/><path class="cls-3" d="M766.71,298.71c0,2.06,1.61,2.86,3.43,2.86,1.2,0,3-.34,3-1.93s-2.35-1.93-4.6-2.55-4.63-1.55-4.63-4.41c0-3.19,3-4.72,5.8-4.72,3.23,0,6.21,1.42,6.21,5h-3.31c-.1-1.85-1.4-2.34-3-2.34-1.09,0-2.35.45-2.35,1.75s.74,1.35,4.62,2.35c1.15.26,4.61,1,4.61,4.51,0,2.85-2.22,5-6.45,5-3.43,0-6.66-1.7-6.6-5.52Z"/><path class="cls-3" d="M788.82,293.56a3.37,3.37,0,0,0-3.37-2.69c-3.06,0-4.21,2.61-4.21,5.32s1.15,5.19,4.21,5.19c2.09,0,3.26-1.41,3.52-3.47h3.3a6.52,6.52,0,0,1-6.82,6.34c-4.77,0-7.62-3.58-7.62-8.08s2.85-8.19,7.62-8.19c3.37,0,6.28,2,6.69,5.58Z"/><path class="cls-3" d="M794.57,288.32H798V301h7.56v2.87h-11Z"/><path class="cls-19" d="M678.06,308.07H656a3,3,0,0,1-3-3v-15a3,3,0,0,1,3-3h22.06a3,3,0,0,1,3,3v15A3,3,0,0,1,678.06,308.07Z"/><line class="cls-35" x1="547.34" y1="296.17" x2="658.57" y2="296.17"/><line class="cls-36" x1="547.34" y1="296.17" x2="563.5" y2="296.17"/><path class="cls-3" d="M547.47,298.7a2.53,2.53,0,1,1,2.53-2.53,2.53,2.53,0,0,1-2.53,2.53Z"/><path class="cls-19" d="M678.06,341.11H656a3,3,0,0,1-3-3v-15a3,3,0,0,1,3-3h22.06a3,3,0,0,1,3,3v15A3,3,0,0,1,678.06,341.11Z"/><line class="cls-35" x1="547.34" y1="329.22" x2="658.57" y2="329.22"/><line class="cls-36" x1="547.34" y1="329.22" x2="563.5" y2="329.22"/><path class="cls-3" d="M547.47,331.75a2.54,2.54,0,1,1,2.53-2.53,2.53,2.53,0,0,1-2.53,2.53Z"/><path class="cls-19" d="M678.06,374.15H656a3,3,0,0,1-3-3v-15a3,3,0,0,1,3-3h22.06a3,3,0,0,1,3,3v15A3,3,0,0,1,678.06,374.15Z"/><line class="cls-35" x1="547.34" y1="362.26" x2="658.57" y2="362.26"/><line class="cls-36" x1="547.34" y1="362.26" x2="563.5" y2="362.26"/><path class="cls-3" d="M547.47,364.79a2.53,2.53,0,1,1,2.53-2.53,2.53,2.53,0,0,1-2.53,2.53Z"/><path class="cls-19" d="M678.06,407.2H656a3,3,0,0,1-3-3v-15a3,3,0,0,1,3-3h22.06a3,3,0,0,1,3,3v15A3,3,0,0,1,678.06,407.2Z"/><line class="cls-35" x1="547.34" y1="395.3" x2="658.57" y2="395.3"/><line class="cls-36" x1="547.34" y1="395.3" x2="563.5" y2="395.3"/><path class="cls-3" d="M547.47,397.83A2.53,2.53,0,1,1,550,395.3a2.53,2.53,0,0,1-2.53,2.53Z"/><path class="cls-19" d="M678.06,442.45H656a3,3,0,0,1-3-3v-15a3,3,0,0,1,3-3h22.06a3,3,0,0,1,3,3v15A3,3,0,0,1,678.06,442.45Z"/><line class="cls-35" x1="547.34" y1="430.56" x2="658.57" y2="430.56"/><line class="cls-36" x1="547.34" y1="430.56" x2="563.5" y2="430.56"/><path class="cls-3" d="M547.47,433.09a2.53,2.53,0,1,1,2.53-2.53,2.53,2.53,0,0,1-2.53,2.53Z"/><path class="cls-19" d="M678.06,475.12H656a3,3,0,0,1-3-3v-15a3,3,0,0,1,3-3h22.06a3,3,0,0,1,3,3v15A3,3,0,0,1,678.06,475.12Z"/><line class="cls-35" x1="547.34" y1="463.23" x2="658.57" y2="463.23"/><line class="cls-36" x1="547.34" y1="463.23" x2="563.5" y2="463.23"/><path class="cls-3" d="M547.47,465.76a2.53,2.53,0,1,1,2.53-2.53,2.53,2.53,0,0,1-2.53,2.53Z"/><path class="cls-19" d="M678.06,507.79H656a3,3,0,0,1-3-3v-15a3,3,0,0,1,3-3h22.06a3,3,0,0,1,3,3v15A3,3,0,0,1,678.06,507.79Z"/><line class="cls-35" x1="547.34" y1="495.89" x2="658.57" y2="495.89"/><line class="cls-36" x1="547.34" y1="495.89" x2="563.5" y2="495.89"/><path class="cls-3" d="M547.47,498.43a2.54,2.54,0,1,1,2.53-2.54,2.54,2.54,0,0,1-2.53,2.54Z"/><path class="cls-19" d="M678.06,540.46H656a3,3,0,0,1-3-3v-15a3,3,0,0,1,3-3h22.06a3,3,0,0,1,3,3v15A3,3,0,0,1,678.06,540.46Z"/><line class="cls-35" x1="547.34" y1="528.56" x2="658.57" y2="528.56"/><line class="cls-36" x1="547.34" y1="528.56" x2="563.5" y2="528.56"/><path class="cls-3" d="M547.47,531.09a2.53,2.53,0,1,1,2.53-2.53,2.53,2.53,0,0,1-2.53,2.53Z"/><polygon class="cls-31" points="729.24 250.35 700.66 250.35 686.36 264.54 700.66 278.76 729.24 278.76 743.54 264.54 729.24 250.35"/><rect class="cls-31" x="717.87" y="250.47" width="70.12" height="28.3"/><polygon class="cls-31" points="814.43 250.35 785.84 250.35 771.53 264.54 785.84 278.76 814.43 278.76 828.73 264.54 814.43 250.35"/><path class="cls-3" d="M705.45,256.19h3.41v15.48h-3.41Z"/><path class="cls-3" d="M711.15,262.33c-.11-3.47,1.87-6.14,5.52-6.14,2.78,0,5.21,1.78,5.21,4.76,0,4.6-4.88,5-7.1,8.08H722v2.64H710.84c0-3.53,2.16-5,4.8-6.79,1.34-.94,3.19-1.85,3.19-3.72a2.18,2.18,0,0,0-2-2.34h-.28c-1.82,0-2.41,1.89-2.41,3.49Z"/><path class="cls-3" d="M739.9,262.33c-.11-3.47,1.87-6.14,5.51-6.14,2.78,0,5.21,1.78,5.21,4.76,0,4.6-4.88,5-7.1,8.08h7.19v2.64H739.58c0-3.53,2.17-5,4.8-6.79,1.34-.94,3.19-1.85,3.19-3.72a2.18,2.18,0,0,0-2-2.34h-.27c-1.83,0-2.41,1.89-2.41,3.49Z"/><path class="cls-3" d="M734.26,261.4a3.35,3.35,0,0,0-3.36-2.69c-3.07,0-4.22,2.6-4.22,5.31s1.15,5.19,4.22,5.19c2.08,0,3.25-1.4,3.51-3.47h3.3a6.52,6.52,0,0,1-6.81,6.34c-4.78,0-7.63-3.58-7.63-8.08s2.85-8.18,7.63-8.18c3.36,0,6.27,2,6.68,5.58Z"/><path class="cls-3" d="M751.82,273.32h10.85v1.09H751.82Z"/><path class="cls-3" d="M766.5,266.55c0,2.06,1.61,2.87,3.42,2.87,1.2,0,3-.35,3-1.94s-2.35-1.93-4.61-2.56-4.62-1.54-4.62-4.41c0-3.19,3-4.71,5.79-4.71,3.24,0,6.22,1.41,6.22,5h-3.31c-.11-1.84-1.41-2.34-3-2.34-1.1,0-2.35.46-2.35,1.76s.74,1.34,4.62,2.35c1.15.25,4.6,1,4.6,4.51,0,2.84-2.21,5-6.44,5-3.44,0-6.67-1.69-6.61-5.51Z"/><path class="cls-3" d="M778.26,256.19H785c4,0,7,2.54,7,7.67,0,4.49-2.3,7.83-7,7.83h-6.69Zm3.42,12.64h3c2,0,3.86-1.22,3.86-4.65,0-3.12-1.1-5.12-4.47-5.12h-2.43Z"/><path class="cls-3" d="M798.59,256.19h3.5l5.79,15.48h-3.54l-1.17-3.45h-5.8l-1.21,3.45H792.7Zm-.33,9.51h4L800.35,260h-.05Z"/><path class="cls-19" d="M678.06,277.28H656a3,3,0,0,1-3-3v-15a3,3,0,0,1,3-3h22.06a3,3,0,0,1,3,3v15A3,3,0,0,1,678.06,277.28Z"/><line class="cls-35" x1="547.34" y1="264.56" x2="658.57" y2="264.56"/><line class="cls-36" x1="547.34" y1="264.56" x2="563.5" y2="264.56"/><path class="cls-3" d="M547.47,267.09a2.54,2.54,0,1,1,2.53-2.53A2.53,2.53,0,0,1,547.47,267.09Z"/><polygon class="cls-37" points="136.15 449.16 107.56 449.16 93.26 463.36 107.56 477.58 136.15 477.58 150.45 463.36 136.15 449.16"/><polygon class="cls-37" points="118.46 449.16 89.88 449.16 75.58 463.36 89.88 477.58 118.46 477.58 132.77 463.36 118.46 449.16"/><path class="cls-3" d="M102.69,468.75a5.19,5.19,0,0,1-4.26,2.13c-4.77,0-7.62-3.58-7.62-8.08s2.85-8.18,7.62-8.18c3.17,0,6.19,1.93,6.54,5.47h-3.26a3.15,3.15,0,0,0-3.28-2.6c-3.06,0-4.21,2.6-4.21,5.31S95.37,468,98.43,468a3.34,3.34,0,0,0,3.7-3.36H98.69v-2.54h6.52v8.43H103Z"/><path class="cls-3" d="M108,455h3.36l6.47,10.4h0V455h3.2v15.48h-3.41l-6.45-10.38h0v10.38H108Z"/><path class="cls-3" d="M124.06,455h6.68c4,0,7,2.54,7,7.66,0,4.5-2.3,7.84-7,7.84h-6.68Zm3.4,12.64h3c2,0,3.86-1.22,3.86-4.65,0-3.13-1.1-5.12-4.47-5.12h-2.44Z"/><polygon class="cls-37" points="746.92 348.41 718.34 348.41 704.04 362.6 718.34 376.83 746.92 376.83 761.23 362.6 746.92 348.41"/><polygon class="cls-37" points="729.24 348.41 700.66 348.41 686.36 362.6 700.66 376.83 729.24 376.83 743.54 362.6 729.24 348.41"/><path class="cls-3" d="M713.47,368a5.23,5.23,0,0,1-4.26,2.13c-4.78,0-7.62-3.58-7.62-8.08s2.84-8.18,7.62-8.18c3.17,0,6.19,1.93,6.53,5.47h-3.25a3.17,3.17,0,0,0-3.28-2.61c-3.07,0-4.22,2.61-4.22,5.32s1.15,5.19,4.22,5.19a3.33,3.33,0,0,0,3.69-3.37h-3.43v-2.53H716v8.43h-2.18Z"/><path class="cls-3" d="M718.77,354.29h3.37l6.47,10.4h0v-10.4h3.19v15.48h-3.41L722,359.39h0v10.38h-3.17Z"/><path class="cls-3" d="M734.83,354.29h6.69c4,0,7,2.54,7,7.66,0,4.5-2.29,7.84-7,7.84h-6.69Zm3.41,12.63h3c2,0,3.87-1.21,3.87-4.64,0-3.13-1.11-5.12-4.47-5.12h-2.44Z"/><rect class="cls-32" x="18.32" y="416.03" width="98.22" height="28.42"/><polygon class="cls-32" points="42.88 416.05 14.3 416.05 0 430.25 14.3 444.47 42.88 444.47 57.19 430.25 42.88 416.05"/><polygon class="cls-32" points="136.15 416.06 107.56 416.06 93.26 430.26 107.56 444.48 136.15 444.48 150.45 430.26 136.15 416.06"/><path class="cls-3" d="M33,431.36c0,4.19-2.47,6.23-6.62,6.23s-6.6-2-6.6-6.23v-9.64h3.41v9.64c0,1.7.43,3.37,3.19,3.37,2.43,0,3.21-1.05,3.21-3.37v-9.64H33Z"/><path class="cls-3" d="M40.15,421.72h3.49l5.8,15.48H45.9l-1.17-3.46h-5.8l-1.21,3.46H34.26Zm-.33,9.51h4l-2-5.68h0Z"/><path class="cls-3" d="M50.79,421.72h8.36A4.25,4.25,0,0,1,63.68,426a3.79,3.79,0,0,1-2.45,3.89v0c1.67.45,2.15,2,2.26,3.63.07,1,0,2.82.67,3.66H60.75a18.27,18.27,0,0,1-.54-3.71c-.24-1.62-.87-2.34-2.58-2.34H54.22v6.05H50.81Zm3.4,7h3.74c1.54,0,2.35-.68,2.35-2.22s-.81-2.15-2.35-2.15H54.22Z"/><path class="cls-3" d="M69.9,424.59H65.25v-2.87H78v2.87H73.3v12.63H69.9Z"/><path class="cls-3" d="M86.75,437.22H83.66v-9.85H79.84v-2.32c2.15.06,4.11-.68,4.45-3h2.46Z"/><path class="cls-3" d="M90.31,438.85h10.85v1.09H90.31Z"/><path class="cls-3" d="M106.09,424.59h-4.64v-2.87h12.68v2.87h-4.65v12.63h-3.41Z"/><path class="cls-3" d="M119.73,429.11l-5-7.41h4l3,4.95,3.14-4.95h3.74l-5,7.41,5.38,8.07h-4l-3.37-5.38-3.45,5.38h-3.84Z"/><rect class="cls-32" x="18.32" y="381.05" width="98.22" height="28.42"/><polygon class="cls-32" points="136.15 381.08 107.56 381.08 93.26 395.28 107.56 409.5 136.15 409.5 150.45 395.28 136.15 381.08"/><polygon class="cls-32" points="42.88 381.07 14.3 381.07 0 395.26 14.3 409.49 42.88 409.49 57.19 395.26 42.88 381.07"/><path class="cls-3" d="M33,396.61c0,4.19-2.47,6.23-6.62,6.23s-6.6-2-6.6-6.23V387h3.41v9.64c0,1.7.43,3.36,3.19,3.36,2.43,0,3.21-1,3.21-3.36V387H33Z"/><path class="cls-3" d="M40.15,387h3.49l5.8,15.48H45.9L44.73,399h-5.8l-1.21,3.45H34.26Zm-.33,9.51h4l-2-5.69h0Z"/><path class="cls-3" d="M50.79,387h8.36a4.25,4.25,0,0,1,4.53,4.27,3.8,3.8,0,0,1-2.45,3.9v0c1.67.45,2.15,2,2.26,3.62.07,1,0,2.82.67,3.67H60.75a18.27,18.27,0,0,1-.54-3.71c-.24-1.63-.87-2.35-2.58-2.35H54.22v6.06H50.81Zm3.4,7h3.74c1.54,0,2.35-.67,2.35-2.21s-.81-2.15-2.35-2.15H54.22Z"/><path class="cls-3" d="M69.9,389.84H65.25V387H78v2.87H73.3v12.63H69.9Z"/><path class="cls-3" d="M86.75,402.47H83.66v-9.86H79.84v-2.32c2.15.07,4.11-.67,4.45-3h2.46Z"/><path class="cls-3" d="M90.31,404.1h10.85v1.08H90.31Z"/><path class="cls-3" d="M102.69,387h8.36a4.26,4.26,0,0,1,4.54,4.27,3.81,3.81,0,0,1-2.46,3.9v0c1.67.45,2.15,2,2.26,3.62.06,1,0,2.82.67,3.67h-3.41a18.27,18.27,0,0,1-.54-3.71c-.24-1.63-.87-2.35-2.59-2.35h-3.47v6.06h-3.36Zm3.41,7h3.73c1.55,0,2.35-.67,2.35-2.21s-.8-2.15-2.35-2.15h-3.78Z"/><path class="cls-3" d="M122.14,394.35l-5-7.4h4l3,4.95,3.15-4.95H131l-5,7.4,5.38,8.08h-4L124,397.05l-3.45,5.38h-3.84Z"/><path class="cls-19" d="M182.54,439.94H160.47a3,3,0,0,1-3-3V422a3,3,0,0,1,3-3h22.07a3,3,0,0,1,3,3v15a3,3,0,0,1-3,3Z"/><line class="cls-35" x1="278.35" y1="430.38" x2="177.9" y2="430.38"/><line class="cls-36" x1="278.35" y1="430.38" x2="268.91" y2="430.38"/><path class="cls-3" d="M278.22,427.85a2.53,2.53,0,1,1-2.53,2.53,2.54,2.54,0,0,1,2.53-2.53Z"/><path class="cls-19" d="M182.54,404.58H160.47a3,3,0,0,1-3-3v-15a3,3,0,0,1,3-3h22.07a3,3,0,0,1,3,3v15A3,3,0,0,1,182.54,404.58Z"/><line class="cls-35" x1="278.35" y1="395.29" x2="177.9" y2="395.29"/><line class="cls-36" x1="278.35" y1="395.29" x2="268.91" y2="395.29"/><path class="cls-3" d="M278.22,392.76a2.53,2.53,0,1,1-2.53,2.53,2.54,2.54,0,0,1,2.53-2.53Z"/><polygon class="cls-38" points="136.14 514.96 107.56 514.96 93.25 529.15 107.56 543.38 136.14 543.38 150.45 529.15 136.14 514.96"/><polygon class="cls-38" points="116.07 514.96 87.49 514.96 73.18 529.15 87.49 543.38 116.07 543.38 130.37 529.15 116.07 514.96"/><g class="cls-39"><path class="cls-3" d="M93.35,527.74c1.46.11,3.56-.17,3.56-2.09a2.21,2.21,0,0,0-2.37-2.22c-1.72,0-2.6,1.27-2.58,3H88.73c.12-3.45,2.32-5.79,5.79-5.79,2.68,0,5.62,1.65,5.62,4.64a3.33,3.33,0,0,1-2.34,3.42v0a3.73,3.73,0,0,1,3,3.8c0,3.52-3,5.51-6.23,5.51-3.75,0-6.29-2.25-6.22-6.1h3.23c.08,1.81,1,3.3,3,3.3a2.57,2.57,0,0,0,2.72-2.63c0-2.54-2.22-2.49-3.87-2.49Z"/><path class="cls-3" d="M102.63,534h3.75v3.68h-3.75Z"/><path class="cls-3" d="M113.3,527.74c1.46.11,3.56-.17,3.56-2.09a2.21,2.21,0,0,0-2.37-2.22c-1.72,0-2.6,1.27-2.58,3h-3.23c.12-3.45,2.32-5.79,5.79-5.79,2.68,0,5.62,1.65,5.62,4.64a3.33,3.33,0,0,1-2.34,3.42v0a3.72,3.72,0,0,1,3,3.8c0,3.52-3,5.51-6.22,5.51-3.75,0-6.29-2.25-6.22-6.1h3.23c.08,1.81,1,3.3,3,3.3a2.57,2.57,0,0,0,2.72-2.63c0-2.54-2.22-2.49-3.87-2.49Z"/><path class="cls-3" d="M130.74,537.71H126.5L121,520.63h3.88l3.8,12h.05l3.85-12h3.88Z"/></g><polygon class="cls-40" points="92.28 482.05 59.25 482.05 42.71 496.25 59.25 510.48 92.28 510.48 108.82 496.25 92.28 482.05"/><polygon class="cls-40" points="133.91 482.05 100.88 482.05 84.34 496.25 100.88 510.48 133.91 510.48 150.45 496.25 133.91 482.05"/><path class="cls-3" d="M56.79,487.69h7.3c3,0,5,1,5,3.85a3.34,3.34,0,0,1-2.11,3.23,3.77,3.77,0,0,1,2.86,3.93c0,3.16-2.68,4.49-5.48,4.49H56.79ZM60.2,494h3.45c1.22,0,2.09-.54,2.09-1.84,0-1.46-1.13-1.78-2.34-1.78H60.19Zm0,6.59h3.65c1.33,0,2.52-.43,2.52-2s-1-2.22-2.45-2.22H60.2Z"/><rect class="cls-40" x="71.41" y="482.05" width="49.63" height="28.43"/><path class="cls-3" d="M79,487.33c4.78,0,7.63,3.58,7.63,8.19s-2.85,8.06-7.63,8.06-7.63-3.59-7.63-8.06S74.26,487.33,79,487.33Zm0,13.38c3.07,0,4.21-2.61,4.21-5.19s-1.14-5.33-4.21-5.33-4.22,2.61-4.22,5.33S76,500.71,79,500.71Z"/><path class="cls-3" d="M95.94,487.33c4.78,0,7.63,3.58,7.63,8.19s-2.85,8.06-7.63,8.06-7.62-3.59-7.62-8.06S91.16,487.33,95.94,487.33Zm0,13.38c3.07,0,4.22-2.61,4.22-5.19s-1.15-5.33-4.22-5.33-4.21,2.61-4.21,5.33S92.88,500.71,95.94,500.71Z"/><path class="cls-3" d="M109.33,490.56h-4.65v-2.87h12.71v2.87h-4.65v12.65h-3.41Z"/><path class="cls-3" d="M126.56,487.14c3.22,0,5.92,2,5.92,8.28s-2.7,8.41-5.92,8.41-5.87-2-5.87-8.41S123.38,487.14,126.56,487.14Zm0,14c2.67,0,2.67-3.92,2.67-5.73s0-5.6-2.67-5.6-2.61,3.92-2.61,5.6S124,501.15,126.56,501.15Z"/><polygon class="cls-41" points="736.07 514.22 702.94 514.22 686.36 528.46 702.94 542.74 736.07 542.74 752.65 528.46 736.07 514.22"/><path class="cls-3" d="M699.19,520.18h7c3.9,0,5.38,2.47,5.38,5s-1.48,5-5.38,5h-3.6v5.58h-3.42Zm3.42,7.32h2.66c1.57,0,3-.35,3-2.33s-1.44-2.33-3-2.33h-2.66Z"/><path class="cls-3" d="M718,520.18h3.51l5.82,15.56h-3.55l-1.18-3.47h-5.78l-1.22,3.47H712.1Zm-.32,9.54h4L719.75,524h0Z"/><path class="cls-3" d="M734.35,520c3.81,0,5.13,2.63,5.13,4.12a3.21,3.21,0,0,1-2.24,3.22v0a3.56,3.56,0,0,1,2.87,3.75c0,3.24-2.87,4.82-5.74,4.82s-5.83-1.49-5.83-4.8a3.63,3.63,0,0,1,2.89-3.77v0a3,3,0,0,1-2.25-3.15C729.18,521.42,731.85,520,734.35,520Zm0,13.61A2.52,2.52,0,0,0,737,531a2.48,2.48,0,0,0-2.63-2.46,2.44,2.44,0,0,0-2.72,2.43A2.59,2.59,0,0,0,734.37,533.6Zm0-7.12a2.08,2.08,0,1,0,0-4.14,2.14,2.14,0,0,0-2.35,2.12A2.1,2.1,0,0,0,734.35,526.48Z"/></g></g></svg>