<svg xmlns="http://www.w3.org/2000/svg" viewBox="0 0 398.29 548.09"><defs><style>.cls-1{fill:#1e1e1e;}.cls-2{fill:#e0ac52;}.cls-3{fill:#f5f6f7;}.cls-4{fill:#fff;}.cls-5{fill:#b1946d;}.cls-6{fill:#f5f7f6;}.cls-7{fill:#1f1d1f;}.cls-8{fill:#c6c6c5;}.cls-9{fill:#cfc0aa;}.cls-10{fill:#f2edde;}.cls-11{fill:#656b61;}</style></defs><g id="Layer_2" data-name="Layer 2"><g id="RAK14009"><path class="cls-1" d="M0,0V548.09H398.29V0ZM49.05,35A13.89,13.89,0,1,1,35.16,48.91,13.89,13.89,0,0,1,49.05,35Zm.13,476.89A13.9,13.9,0,1,1,63.07,498,13.89,13.89,0,0,1,49.18,511.91ZM351.7,35a13.89,13.89,0,1,1-13.89,13.89A13.89,13.89,0,0,1,351.7,35Zm.13,476.89A13.9,13.9,0,1,1,365.72,498,13.89,13.89,0,0,1,351.83,511.91Z"/><path class="cls-2" d="M49.05,23.22a25.7,25.7,0,1,0,25.7,25.69A25.69,25.69,0,0,0,49.05,23.22Zm0,39.58A13.89,13.89,0,1,1,62.94,48.91,13.89,13.89,0,0,1,49.05,62.8Z"/><path class="cls-2" d="M351.7,23.22a25.7,25.7,0,1,0,25.7,25.69A25.69,25.69,0,0,0,351.7,23.22Zm0,39.58a13.89,13.89,0,1,1,13.9-13.89A13.89,13.89,0,0,1,351.7,62.8Z"/><path class="cls-2" d="M49.18,473.77A24.25,24.25,0,1,0,73.42,498,24.25,24.25,0,0,0,49.18,473.77Zm0,38.14A13.9,13.9,0,1,1,63.07,498,13.89,13.89,0,0,1,49.18,511.91Z"/><path class="cls-2" d="M351.83,473.77A24.25,24.25,0,1,0,376.07,498,24.25,24.25,0,0,0,351.83,473.77Zm0,38.14A13.9,13.9,0,1,1,365.72,498,13.89,13.89,0,0,1,351.83,511.91Z"/><g id="dispose-properly"><g id="Layer_2-2" data-name="Layer 2-2"><g id="Layer_1-2" data-name="Layer 1-2"><path class="cls-3" d="M122.4,77.31a2.54,2.54,0,1,0,2.78,2.92,3.69,3.69,0,0,0,0-.47V79.5a2.57,2.57,0,0,0-2.78-2.19m.23,2.92a.59.59,0,0,1-.09-1.17h0a.65.65,0,0,1,.5.26.59.59,0,0,1,0,.82.53.53,0,0,1-.35,0"/><path class="cls-3" d="M113.28,29.36h-2.2v8h5.47q.89,9.33,1.73,18.68c.4,4.24.78,8.57,1.19,12.9l-7.86,8.21,1.23,1.23,6.84-7.16v1.63A7.56,7.56,0,1,0,129.24,83c.08-.21.16-.42.23-.63h15v5.35h4.39V82.34a1.09,1.09,0,0,0,1.08-1l1.14-12.45,7.86,8.21,1.2-1.23-8.77-9.26c.31-3.57.64-7.11,1-10.62.64-7,1.28-14,2-21l9.94-10.35L163,23.45l-8.39,8.77.52-5.49h3.16V23.45h-2.92v-.73a1,1,0,0,0-.3-.85A15.49,15.49,0,0,0,150.41,19V16.49h-4.86v1a48.22,48.22,0,0,0-6.11-.82V15.27H128V17a37.5,37.5,0,0,0-7.6,1.79,16.64,16.64,0,0,0-3.62,2,3.07,3.07,0,0,0-1.41-1,2.93,2.93,0,0,0-3.83,1.55l-.09.23a3.08,3.08,0,0,0,1.79,3.95v1.26h2.37a25.6,25.6,0,0,0,.23,2.6h0l-2.51-2.6L109,22.28l-1.23,1.2Zm1-8.1a1.38,1.38,0,0,1,1.17.64,1.08,1.08,0,0,0-.29.82v.73H113.1a1.41,1.41,0,0,1-.29-.82,1.37,1.37,0,0,1,1.37-1.37h0m23.22-2.6h-7.49V17.08h7.57Zm11.31,3.1h-1.08V18.34h1.08Zm4.71,1.4a2.81,2.81,0,0,1,0,.41H150.7V21.35a14.68,14.68,0,0,1,2.75,1.81m-2.93,32.77c-.26,2.93-.52,5.85-.82,8.78L138,52.48l14.24-14.85q-.88,9.18-1.73,18.3m-3.91,27.84h1v2.6h-1Zm-16.23-4h0a7.46,7.46,0,0,0-7.46-7.42h-.7a27.9,27.9,0,0,0-.29-3.16l14.88-15.53L149.5,67c-.41,4.44-.79,8.77-1.2,13.33H130.06a3.69,3.69,0,0,0,0-.47m-11.35,0a3.93,3.93,0,0,1,3.69-4h.38a3.87,3.87,0,0,1,3.89,3.83v0a4.17,4.17,0,0,1,0,.5,3.89,3.89,0,0,1-7.75-.5m1.69-23.88q-.87-9.21-1.72-18.48h0V35.15l5.85,6.17v2.16h2.07l8.51,8.77L121.43,66.87c-.32-3.71-.67-7.4-1-11.05m6.26-15v-.76H138v1.58H127.46Zm-8.78-11.49-.26-2.6H153c-.23,2.66-.5,5.32-.73,8L136.52,51l-7.31-7.63h10.73V38.25h-15.2v.55l-5.85-6.17V29.36H118m-.58-5.85a2.8,2.8,0,0,0,0-.41,14.83,14.83,0,0,1,3.74-2.25A34.54,34.54,0,0,1,128,19.21v1.32h11.49v-1.7a48.53,48.53,0,0,1,6.11.85v3.8H117.37M115,31.23l1,1.05a32.49,32.49,0,0,0,.32,3.25h-3.3V31.2Z"/></g></g></g><path class="cls-4" d="M260,10.69l34.8,71.76H225.12Zm0-3.91L222.37,84.13h75.3Z"/><rect class="cls-4" x="265.09" y="28.3" width="1.71" height="49.57" transform="translate(88.71 258.35) rotate(-60.48)"/><rect class="cls-4" x="265.71" y="30.36" width="1.71" height="54.82" transform="translate(84.95 261.27) rotate(-60.48)"/><path class="cls-4" d="M250.08,44l-1.52-.79a95.78,95.78,0,0,1,5-8.37c2.29-3.23,14.9-6.1,16.33-6.28l.37,1.68c-5.16,1.09-13.86,3.57-15.26,5.61A80.72,80.72,0,0,0,250.14,44"/><path class="cls-4" d="M271.76,56.84l-.86-1.49a6.35,6.35,0,0,0,3.05-5.8,24.55,24.55,0,0,1,1.29-7.88l1.64.55a22.17,22.17,0,0,0-1.22,7.17,8,8,0,0,1-4,7.45"/><path class="cls-4" d="M253.47,66h-.64c-3.57-.46-8.09-11.63-8.12-11.75a7.76,7.76,0,0,1,2.2-7.85l1.19,1.25a6.12,6.12,0,0,0-1.8,6.11c1.95,4.88,5.25,10.5,6.74,10.68.8,0,1.26,0,1.38-.24s0-.89-.7-1.71a19.31,19.31,0,0,1-3.67-8.85,15.3,15.3,0,0,1,2-4.15l1.46.88a14.9,14.9,0,0,0-1.68,3.48,19.58,19.58,0,0,0,3.27,7.39c1.47,1.83,1.16,3.05.86,3.6A2.62,2.62,0,0,1,253.56,66"/><path class="cls-4" d="M260.19,69.39a2.34,2.34,0,0,1-1-.25c-.64-.33-1.31-1.1-1.1-3,.46-3.85,5.43-9.92,5.65-10.19L265,57a26.85,26.85,0,0,0-5.25,9.31c0,.77,0,1.19.18,1.26A5.58,5.58,0,0,0,263,66.12a54.39,54.39,0,0,0,5.49-7.32l1.43.91a54.78,54.78,0,0,1-5.61,7.75,7.1,7.1,0,0,1-4,1.93"/><path class="cls-4" d="M259.64,63.22a18.78,18.78,0,0,1-7-2.84l.91-1.46c2.78,1.71,5.83,3,6.41,2.53a1.52,1.52,0,0,0,0-1.22,6.09,6.09,0,0,0-3.57-3,4.64,4.64,0,0,1-2.81-2.69,4.55,4.55,0,0,1,.92-3.69l1.43.91c-.45.74-.94,1.59-.7,2.29s.8,1.13,1.86,1.59a7.53,7.53,0,0,1,4.64,4.12,3.06,3.06,0,0,1-.33,2.63,1.71,1.71,0,0,1-1.1.79h-.61"/><rect class="cls-4" x="256.77" y="14.6" width="6.87" height="1.71"/><rect class="cls-4" x="254.72" y="18.78" width="10.59" height="1.71"/><rect class="cls-4" x="252.68" y="22.96" width="14.68" height="1.71"/><rect class="cls-4" x="250.66" y="27.14" width="18.74" height="1.71"/><rect class="cls-4" x="248.95" y="31.32" width="11.11" height="1.71"/><rect class="cls-4" x="246.57" y="35.51" width="6.99" height="1.71"/><rect class="cls-4" x="244.93" y="39.72" width="5.92" height="1.71"/><rect class="cls-4" x="240.47" y="48.08" width="5.56" height="1.71"/><rect class="cls-4" x="275.14" y="48.08" width="4.46" height="1.71"/><rect class="cls-4" x="238.42" y="52.26" width="7.08" height="1.71"/><rect class="cls-4" x="274.38" y="52.26" width="7.08" height="1.71"/><rect class="cls-4" x="236.78" y="56.45" width="10.26" height="1.71"/><rect class="cls-4" x="273.47" y="56.45" width="10.2" height="1.71"/><rect class="cls-4" x="234.33" y="60.63" width="15.05" height="1.71"/><rect class="cls-4" x="267.85" y="60.63" width="5.37" height="1.71"/><path class="cls-4" d="M285.84,62.75h-5.4V60.22h5.4Zm-4.58-.82H285V61h-3.76Z"/><rect class="cls-4" x="232.32" y="64.84" width="26.56" height="1.71"/><rect class="cls-4" x="264.74" y="64.84" width="16.15" height="1.71"/><rect class="cls-4" x="230.95" y="69.02" width="56.84" height="1.71"/><rect class="cls-4" x="228.23" y="73.2" width="63.55" height="1.71"/><rect class="cls-4" x="226.03" y="77.38" width="67.76" height="1.71"/><path class="cls-4" d="M289.78,543H119.54V478.85h35.52a.5.5,0,0,1,.5.5.5.5,0,0,1-.5.5H120.54V542H288.78V479.85H255.43a.5.5,0,0,1-.5-.5.5.5,0,0,1,.5-.5h34.35Z"/><path class="cls-5" d="M257.79,484.94a2.89,2.89,0,0,0,1.71-2.5,1.24,1.24,0,0,1,1.23-1h17.71a2.51,2.51,0,0,1,2.79,2.69v2.22H263.44l-5.58,5.58Z"/><path class="cls-5" d="M151.62,484.94a2.89,2.89,0,0,1-1.71-2.5,1.24,1.24,0,0,0-1.23-1H131a2.51,2.51,0,0,0-2.79,2.69v2.22H146l5.59,5.58Z"/><path class="cls-6" d="M119.69,496.29h41.54a0,0,0,0,1,0,0V525a0,0,0,0,1,0,0H115.82a3.22,3.22,0,0,1-3.22-3.22V503.38A7.09,7.09,0,0,1,119.69,496.29Z" transform="translate(647.58 373.74) rotate(90)"/><path class="cls-6" d="M251.07,496.29h45.41a0,0,0,0,1,0,0V525a0,0,0,0,1,0,0H254.76a6.91,6.91,0,0,1-6.91-6.91V499.51a3.22,3.22,0,0,1,3.22-3.22Z" transform="translate(782.83 238.5) rotate(90)"/><path class="cls-7" d="M287.52,537.13V522.4H257.81v13.42H151.62V522.4H121.91v14.73a4,4,0,0,0,4,4H283.56A4,4,0,0,0,287.52,537.13Z"/><path class="cls-8" d="M257.79,522.4h19.72a1.59,1.59,0,0,0,1.13-.47l2.12-2.11a1.61,1.61,0,0,0,.47-1.14V488.21a1.59,1.59,0,0,0-.47-1.13l-1.67-1.67a1.61,1.61,0,0,0-1.13-.47H261.77a1.62,1.62,0,0,0-1.61,1.36,2.76,2.76,0,0,1-1.46,2.34,1.56,1.56,0,0,0-.91,1.46Z"/><path class="cls-8" d="M151.62,522.4H131.9a1.61,1.61,0,0,1-1.13-.47l-2.12-2.11a1.61,1.61,0,0,1-.47-1.14V488.21a1.59,1.59,0,0,1,.47-1.13l1.67-1.67a1.61,1.61,0,0,1,1.13-.47h16.19a1.61,1.61,0,0,1,1.61,1.36,2.76,2.76,0,0,0,1.46,2.34,1.56,1.56,0,0,1,.91,1.46Z"/><rect class="cls-9" x="151.62" y="484.13" width="106.18" height="51.68"/><rect class="cls-10" x="151.62" y="488.86" width="106.18" height="46.95"/><rect class="cls-4" x="240.83" y="475.84" width="22.28" height="3.77" rx="1.21" transform="translate(729.7 225.75) rotate(90)"/><path class="cls-11" d="M252.42,465.46h.32a0,0,0,0,1,0,0v3.77a0,0,0,0,1,0,0h-.32a1.21,1.21,0,0,1-1.21-1.21v-1.36A1.21,1.21,0,0,1,252.42,465.46Z" transform="translate(719.32 215.38) rotate(90)"/><rect class="cls-11" x="251.66" y="469.18" width="0.63" height="3.77" transform="translate(723.04 219.09) rotate(90)"/><rect class="cls-4" x="234.57" y="475.84" width="22.28" height="3.77" rx="1.21" transform="translate(723.43 232.02) rotate(90)"/><path class="cls-11" d="M246.15,465.46h.32a0,0,0,0,1,0,0v3.77a0,0,0,0,1,0,0h-.32a1.21,1.21,0,0,1-1.21-1.21v-1.36A1.21,1.21,0,0,1,246.15,465.46Z" transform="translate(713.05 221.64) rotate(90)"/><rect class="cls-11" x="245.39" y="469.18" width="0.63" height="3.77" transform="translate(716.77 225.36) rotate(90)"/><rect class="cls-4" x="228.3" y="475.84" width="22.28" height="3.77" rx="1.21" transform="translate(717.16 238.29) rotate(90)"/><path class="cls-11" d="M239.88,465.46h.32a0,0,0,0,1,0,0v3.77a0,0,0,0,1,0,0h-.32a1.21,1.21,0,0,1-1.21-1.21v-1.36A1.21,1.21,0,0,1,239.88,465.46Z" transform="translate(706.79 227.91) rotate(90)"/><rect class="cls-11" x="239.12" y="469.18" width="0.63" height="3.77" transform="translate(710.5 231.62) rotate(90)"/><rect class="cls-4" x="222.03" y="475.84" width="22.28" height="3.77" rx="1.21" transform="translate(710.89 244.56) rotate(90)"/><path class="cls-11" d="M233.61,465.46h.32a0,0,0,0,1,0,0v3.77a0,0,0,0,1,0,0h-.32a1.21,1.21,0,0,1-1.21-1.21v-1.36A1.21,1.21,0,0,1,233.61,465.46Z" transform="translate(700.52 234.18) rotate(90)"/><rect class="cls-11" x="232.85" y="469.18" width="0.63" height="3.77" transform="translate(704.23 237.89) rotate(90)"/><rect class="cls-4" x="215.76" y="475.84" width="22.28" height="3.77" rx="1.21" transform="translate(704.63 250.82) rotate(90)"/><path class="cls-11" d="M227.34,465.46h.32a0,0,0,0,1,0,0v3.77a0,0,0,0,1,0,0h-.32a1.21,1.21,0,0,1-1.21-1.21v-1.36A1.21,1.21,0,0,1,227.34,465.46Z" transform="translate(694.25 240.45) rotate(90)"/><rect class="cls-11" x="226.59" y="469.18" width="0.63" height="3.77" transform="translate(697.96 244.16) rotate(90)"/><rect class="cls-4" x="209.49" y="475.84" width="22.28" height="3.77" rx="1.21" transform="translate(698.36 257.09) rotate(90)"/><path class="cls-11" d="M221.08,465.46h.32a0,0,0,0,1,0,0v3.77a0,0,0,0,1,0,0h-.32a1.21,1.21,0,0,1-1.21-1.21v-1.36A1.21,1.21,0,0,1,221.08,465.46Z" transform="translate(687.98 246.72) rotate(90)"/><rect class="cls-11" x="220.32" y="469.18" width="0.63" height="3.77" transform="translate(691.7 250.43) rotate(90)"/><rect class="cls-4" x="203.23" y="475.84" width="22.28" height="3.77" rx="1.21" transform="translate(692.09 263.36) rotate(90)"/><path class="cls-11" d="M214.81,465.46h.32a0,0,0,0,1,0,0v3.77a0,0,0,0,1,0,0h-.32A1.21,1.21,0,0,1,213.6,468v-1.36A1.21,1.21,0,0,1,214.81,465.46Z" transform="translate(681.71 252.98) rotate(90)"/><rect class="cls-11" x="214.05" y="469.18" width="0.63" height="3.77" transform="translate(685.43 256.7) rotate(90)"/><rect class="cls-4" x="196.96" y="475.84" width="22.28" height="3.77" rx="1.21" transform="translate(685.82 269.63) rotate(90)"/><path class="cls-11" d="M208.54,465.46h.32a0,0,0,0,1,0,0v3.77a0,0,0,0,1,0,0h-.32a1.21,1.21,0,0,1-1.21-1.21v-1.36A1.21,1.21,0,0,1,208.54,465.46Z" transform="translate(675.45 259.25) rotate(90)"/><rect class="cls-11" x="207.78" y="469.18" width="0.63" height="3.77" transform="translate(679.16 262.97) rotate(90)"/><rect class="cls-4" x="190.69" y="475.84" width="22.28" height="3.77" rx="1.21" transform="translate(679.55 275.9) rotate(90)"/><path class="cls-11" d="M202.27,465.46h.32a0,0,0,0,1,0,0v3.77a0,0,0,0,1,0,0h-.32a1.21,1.21,0,0,1-1.21-1.21v-1.36A1.21,1.21,0,0,1,202.27,465.46Z" transform="translate(669.18 265.52) rotate(90)"/><rect class="cls-11" x="201.51" y="469.18" width="0.63" height="3.77" transform="translate(672.89 269.23) rotate(90)"/><rect class="cls-4" x="184.42" y="475.84" width="22.28" height="3.77" rx="1.21" transform="translate(673.29 282.16) rotate(90)"/><path class="cls-11" d="M196,465.46h.32a0,0,0,0,1,0,0v3.77a0,0,0,0,1,0,0H196A1.21,1.21,0,0,1,194.8,468v-1.36A1.21,1.21,0,0,1,196,465.46Z" transform="translate(662.91 271.79) rotate(90)"/><rect class="cls-11" x="195.25" y="469.18" width="0.63" height="3.77" transform="translate(666.62 275.5) rotate(90)"/><rect class="cls-4" x="178.15" y="475.84" width="22.28" height="3.77" rx="1.21" transform="translate(667.02 288.43) rotate(90)"/><path class="cls-11" d="M189.74,465.46h.32a0,0,0,0,1,0,0v3.77a0,0,0,0,1,0,0h-.32a1.21,1.21,0,0,1-1.21-1.21v-1.36A1.21,1.21,0,0,1,189.74,465.46Z" transform="translate(656.64 278.06) rotate(90)"/><rect class="cls-11" x="188.98" y="469.18" width="0.63" height="3.77" transform="translate(660.35 281.77) rotate(90)"/><rect class="cls-4" x="171.89" y="475.84" width="22.28" height="3.77" rx="1.21" transform="translate(660.75 294.7) rotate(90)"/><path class="cls-11" d="M183.47,465.46h.32a0,0,0,0,1,0,0v3.77a0,0,0,0,1,0,0h-.32a1.21,1.21,0,0,1-1.21-1.21v-1.36a1.21,1.21,0,0,1,1.21-1.21Z" transform="translate(650.37 284.32) rotate(90)"/><rect class="cls-11" x="182.71" y="469.18" width="0.63" height="3.77" transform="translate(654.09 288.04) rotate(90)"/><rect class="cls-4" x="165.62" y="475.84" width="22.28" height="3.77" rx="1.21" transform="translate(654.48 300.97) rotate(90)"/><path class="cls-11" d="M177.2,465.46h.32a0,0,0,0,1,0,0v3.77a0,0,0,0,1,0,0h-.32A1.21,1.21,0,0,1,176,468v-1.36A1.21,1.21,0,0,1,177.2,465.46Z" transform="translate(644.11 290.59) rotate(90)"/><rect class="cls-11" x="176.44" y="469.18" width="0.63" height="3.77" transform="translate(647.82 294.31) rotate(90)"/><rect class="cls-4" x="159.35" y="475.84" width="22.28" height="3.77" rx="1.21" transform="translate(648.21 307.24) rotate(90)"/><path class="cls-11" d="M170.93,465.46h.32a0,0,0,0,1,0,0v3.77a0,0,0,0,1,0,0h-.32a1.21,1.21,0,0,1-1.21-1.21v-1.36A1.21,1.21,0,0,1,170.93,465.46Z" transform="translate(637.84 296.86) rotate(90)"/><rect class="cls-11" x="170.17" y="469.18" width="0.63" height="3.77" transform="translate(641.55 300.57) rotate(90)"/><rect class="cls-4" x="153.08" y="475.84" width="22.28" height="3.77" rx="1.21" transform="translate(641.94 313.5) rotate(90)"/><path class="cls-11" d="M164.66,465.46H165a0,0,0,0,1,0,0v3.77a0,0,0,0,1,0,0h-.32a1.21,1.21,0,0,1-1.21-1.21v-1.36A1.21,1.21,0,0,1,164.66,465.46Z" transform="translate(631.57 303.13) rotate(90)"/><rect class="cls-11" x="163.91" y="469.18" width="0.63" height="3.77" transform="translate(635.28 306.84) rotate(90)"/><rect class="cls-4" x="146.81" y="475.84" width="22.28" height="3.77" rx="1.21" transform="translate(635.68 319.77) rotate(90)"/><path class="cls-11" d="M158.4,465.46h.32a0,0,0,0,1,0,0v3.77a0,0,0,0,1,0,0h-.32a1.21,1.21,0,0,1-1.21-1.21v-1.36A1.21,1.21,0,0,1,158.4,465.46Z" transform="translate(625.3 309.4) rotate(90)"/><rect class="cls-11" x="157.64" y="469.18" width="0.63" height="3.77" transform="translate(629.01 313.11) rotate(90)"/><circle class="cls-4" cx="43.21" cy="120.89" r="11.87"/><path class="cls-8" d="M43.21,133.76a12.87,12.87,0,1,1,12.87-12.87A12.88,12.88,0,0,1,43.21,133.76Zm0-23.75a10.88,10.88,0,1,0,10.88,10.88A10.88,10.88,0,0,0,43.21,110Z"/><circle class="cls-4" cx="43.21" cy="177.83" r="11.87"/><path class="cls-8" d="M43.21,190.69a12.87,12.87,0,1,1,12.87-12.86A12.88,12.88,0,0,1,43.21,190.69Zm0-23.74a10.88,10.88,0,1,0,10.88,10.88A10.88,10.88,0,0,0,43.21,167Z"/><circle class="cls-4" cx="43.21" cy="243.7" r="11.87"/><path class="cls-8" d="M43.21,256.56A12.87,12.87,0,1,1,56.08,243.7,12.88,12.88,0,0,1,43.21,256.56Zm0-23.74A10.88,10.88,0,1,0,54.09,243.7,10.88,10.88,0,0,0,43.21,232.82Z"/><circle class="cls-4" cx="43.21" cy="299.28" r="11.87"/><path class="cls-8" d="M43.21,312.15a12.87,12.87,0,1,1,12.87-12.87A12.88,12.88,0,0,1,43.21,312.15Zm0-23.74a10.88,10.88,0,1,0,10.88,10.87A10.87,10.87,0,0,0,43.21,288.41Z"/><circle class="cls-4" cx="43.21" cy="365.28" r="11.87"/><path class="cls-8" d="M43.21,378.15a12.87,12.87,0,1,1,12.87-12.87A12.88,12.88,0,0,1,43.21,378.15Zm0-23.74a10.88,10.88,0,1,0,10.88,10.87A10.88,10.88,0,0,0,43.21,354.41Z"/><circle class="cls-4" cx="43.21" cy="420.83" r="11.87"/><path class="cls-8" d="M43.21,433.69a12.87,12.87,0,1,1,12.87-12.86A12.88,12.88,0,0,1,43.21,433.69Zm0-23.74a10.88,10.88,0,1,0,10.88,10.88A10.88,10.88,0,0,0,43.21,410Z"/><circle class="cls-4" cx="123.03" cy="120.89" r="11.87"/><path class="cls-8" d="M123,133.76a12.87,12.87,0,1,1,12.86-12.87A12.88,12.88,0,0,1,123,133.76ZM123,110a10.88,10.88,0,1,0,10.87,10.88A10.89,10.89,0,0,0,123,110Z"/><circle class="cls-4" cx="123.03" cy="177.83" r="11.87"/><path class="cls-8" d="M123,190.69a12.87,12.87,0,1,1,12.86-12.86A12.88,12.88,0,0,1,123,190.69ZM123,167a10.88,10.88,0,1,0,10.87,10.88A10.89,10.89,0,0,0,123,167Z"/><circle class="cls-4" cx="123.03" cy="243.7" r="11.87"/><path class="cls-8" d="M123,256.56a12.87,12.87,0,1,1,12.86-12.86A12.88,12.88,0,0,1,123,256.56Zm0-23.74A10.88,10.88,0,1,0,133.9,243.7,10.89,10.89,0,0,0,123,232.82Z"/><circle class="cls-4" cx="123.03" cy="299.28" r="11.87"/><path class="cls-8" d="M123,312.15a12.87,12.87,0,1,1,12.86-12.87A12.88,12.88,0,0,1,123,312.15Zm0-23.74a10.88,10.88,0,1,0,10.87,10.87A10.88,10.88,0,0,0,123,288.41Z"/><circle class="cls-4" cx="123.03" cy="365.28" r="11.87"/><path class="cls-8" d="M123,378.15a12.87,12.87,0,1,1,12.86-12.87A12.88,12.88,0,0,1,123,378.15Zm0-23.74a10.88,10.88,0,1,0,10.87,10.87A10.89,10.89,0,0,0,123,354.41Z"/><circle class="cls-4" cx="123.03" cy="420.83" r="11.87"/><path class="cls-8" d="M123,433.69a12.87,12.87,0,1,1,12.86-12.86A12.88,12.88,0,0,1,123,433.69ZM123,410a10.88,10.88,0,1,0,10.87,10.88A10.89,10.89,0,0,0,123,410Z"/><circle class="cls-4" cx="166.11" cy="120.89" r="11.87"/><path class="cls-8" d="M166.11,133.76A12.87,12.87,0,1,1,179,120.89,12.88,12.88,0,0,1,166.11,133.76Zm0-23.75A10.88,10.88,0,1,0,177,120.89,10.89,10.89,0,0,0,166.11,110Z"/><circle class="cls-4" cx="166.11" cy="177.83" r="11.87"/><path class="cls-8" d="M166.11,190.69A12.87,12.87,0,1,1,179,177.83,12.88,12.88,0,0,1,166.11,190.69Zm0-23.74A10.88,10.88,0,1,0,177,177.83,10.89,10.89,0,0,0,166.11,167Z"/><circle class="cls-4" cx="166.11" cy="243.7" r="11.87"/><path class="cls-8" d="M166.11,256.56A12.87,12.87,0,1,1,179,243.7,12.88,12.88,0,0,1,166.11,256.56Zm0-23.74A10.88,10.88,0,1,0,177,243.7,10.89,10.89,0,0,0,166.11,232.82Z"/><circle class="cls-4" cx="166.11" cy="299.28" r="11.87"/><path class="cls-8" d="M166.11,312.15A12.87,12.87,0,1,1,179,299.28,12.88,12.88,0,0,1,166.11,312.15Zm0-23.74A10.88,10.88,0,1,0,177,299.28,10.88,10.88,0,0,0,166.11,288.41Z"/><circle class="cls-4" cx="166.11" cy="365.28" r="11.87"/><path class="cls-8" d="M166.11,378.15A12.87,12.87,0,1,1,179,365.28,12.88,12.88,0,0,1,166.11,378.15Zm0-23.74A10.88,10.88,0,1,0,177,365.28,10.89,10.89,0,0,0,166.11,354.41Z"/><circle class="cls-4" cx="166.11" cy="420.83" r="11.87"/><path class="cls-8" d="M166.11,433.69A12.87,12.87,0,1,1,179,420.83,12.88,12.88,0,0,1,166.11,433.69Zm0-23.74A10.88,10.88,0,1,0,177,420.83,10.89,10.89,0,0,0,166.11,410Z"/><circle class="cls-4" cx="243.25" cy="120.89" r="11.87"/><path class="cls-8" d="M243.25,133.76a12.87,12.87,0,1,1,12.86-12.87A12.88,12.88,0,0,1,243.25,133.76Zm0-23.75a10.88,10.88,0,1,0,10.87,10.88A10.89,10.89,0,0,0,243.25,110Z"/><circle class="cls-4" cx="243.25" cy="177.83" r="11.87"/><path class="cls-8" d="M243.25,190.69a12.87,12.87,0,1,1,12.86-12.86A12.88,12.88,0,0,1,243.25,190.69Zm0-23.74a10.88,10.88,0,1,0,10.87,10.88A10.89,10.89,0,0,0,243.25,167Z"/><circle class="cls-4" cx="243.25" cy="243.7" r="11.87"/><path class="cls-8" d="M243.25,256.56a12.87,12.87,0,1,1,12.86-12.86A12.88,12.88,0,0,1,243.25,256.56Zm0-23.74a10.88,10.88,0,1,0,10.87,10.88A10.89,10.89,0,0,0,243.25,232.82Z"/><circle class="cls-4" cx="243.25" cy="299.28" r="11.87"/><path class="cls-8" d="M243.25,312.15a12.87,12.87,0,1,1,12.86-12.87A12.88,12.88,0,0,1,243.25,312.15Zm0-23.74a10.88,10.88,0,1,0,10.87,10.87A10.88,10.88,0,0,0,243.25,288.41Z"/><circle class="cls-4" cx="243.25" cy="365.28" r="11.87"/><path class="cls-8" d="M243.25,378.15a12.87,12.87,0,1,1,12.86-12.87A12.88,12.88,0,0,1,243.25,378.15Zm0-23.74a10.88,10.88,0,1,0,10.87,10.87A10.89,10.89,0,0,0,243.25,354.41Z"/><circle class="cls-4" cx="243.25" cy="420.83" r="11.87"/><path class="cls-8" d="M243.25,433.69a12.87,12.87,0,1,1,12.86-12.86A12.88,12.88,0,0,1,243.25,433.69Zm0-23.74a10.88,10.88,0,1,0,10.87,10.88A10.89,10.89,0,0,0,243.25,410Z"/><circle class="cls-4" cx="286.54" cy="120.89" r="11.87"/><path class="cls-8" d="M286.54,133.76a12.87,12.87,0,1,1,12.87-12.87A12.88,12.88,0,0,1,286.54,133.76Zm0-23.75a10.88,10.88,0,1,0,10.88,10.88A10.89,10.89,0,0,0,286.54,110Z"/><circle class="cls-4" cx="286.54" cy="177.83" r="11.87"/><path class="cls-8" d="M286.54,190.69a12.87,12.87,0,1,1,12.87-12.86A12.88,12.88,0,0,1,286.54,190.69Zm0-23.74a10.88,10.88,0,1,0,10.88,10.88A10.89,10.89,0,0,0,286.54,167Z"/><circle class="cls-4" cx="286.54" cy="243.7" r="11.87"/><path class="cls-8" d="M286.54,256.56a12.87,12.87,0,1,1,12.87-12.86A12.88,12.88,0,0,1,286.54,256.56Zm0-23.74a10.88,10.88,0,1,0,10.88,10.88A10.89,10.89,0,0,0,286.54,232.82Z"/><circle class="cls-4" cx="286.54" cy="299.28" r="11.87"/><path class="cls-8" d="M286.54,312.15a12.87,12.87,0,1,1,12.87-12.87A12.88,12.88,0,0,1,286.54,312.15Zm0-23.74a10.88,10.88,0,1,0,10.88,10.87A10.88,10.88,0,0,0,286.54,288.41Z"/><circle class="cls-4" cx="286.54" cy="365.28" r="11.87"/><path class="cls-8" d="M286.54,378.15a12.87,12.87,0,1,1,12.87-12.87A12.88,12.88,0,0,1,286.54,378.15Zm0-23.74a10.88,10.88,0,1,0,10.88,10.87A10.89,10.89,0,0,0,286.54,354.41Z"/><circle class="cls-4" cx="286.54" cy="420.83" r="11.87"/><path class="cls-8" d="M286.54,433.69a12.87,12.87,0,1,1,12.87-12.86A12.88,12.88,0,0,1,286.54,433.69Zm0-23.74a10.88,10.88,0,1,0,10.88,10.88A10.89,10.89,0,0,0,286.54,410Z"/><circle class="cls-4" cx="365.6" cy="120.89" r="11.87"/><path class="cls-8" d="M365.6,133.76a12.87,12.87,0,1,1,12.86-12.87A12.88,12.88,0,0,1,365.6,133.76Zm0-23.75a10.88,10.88,0,1,0,10.87,10.88A10.89,10.89,0,0,0,365.6,110Z"/><circle class="cls-4" cx="365.6" cy="177.83" r="11.87"/><path class="cls-8" d="M365.6,190.69a12.87,12.87,0,1,1,12.86-12.86A12.88,12.88,0,0,1,365.6,190.69Zm0-23.74a10.88,10.88,0,1,0,10.87,10.88A10.89,10.89,0,0,0,365.6,167Z"/><circle class="cls-4" cx="365.6" cy="243.7" r="11.87"/><path class="cls-8" d="M365.6,256.56a12.87,12.87,0,1,1,12.86-12.86A12.88,12.88,0,0,1,365.6,256.56Zm0-23.74a10.88,10.88,0,1,0,10.87,10.88A10.89,10.89,0,0,0,365.6,232.82Z"/><circle class="cls-4" cx="365.6" cy="299.28" r="11.87"/><path class="cls-8" d="M365.6,312.15a12.87,12.87,0,1,1,12.86-12.87A12.88,12.88,0,0,1,365.6,312.15Zm0-23.74a10.88,10.88,0,1,0,10.87,10.87A10.88,10.88,0,0,0,365.6,288.41Z"/><circle class="cls-4" cx="365.6" cy="365.28" r="11.87"/><path class="cls-8" d="M365.6,378.15a12.87,12.87,0,1,1,12.86-12.87A12.88,12.88,0,0,1,365.6,378.15Zm0-23.74a10.88,10.88,0,1,0,10.87,10.87A10.89,10.89,0,0,0,365.6,354.41Z"/><circle class="cls-4" cx="365.6" cy="420.83" r="11.87"/><path class="cls-8" d="M365.6,433.69a12.87,12.87,0,1,1,12.86-12.86A12.88,12.88,0,0,1,365.6,433.69Zm0-23.74a10.88,10.88,0,1,0,10.87,10.88A10.89,10.89,0,0,0,365.6,410Z"/></g></g></svg>