<svg xmlns="http://www.w3.org/2000/svg" xmlns:xlink="http://www.w3.org/1999/xlink" viewBox="0 0 860.9 595.41"><defs><style>.cls-1,.cls-17{fill:none;}.cls-2{fill:#7f7f7f;}.cls-3{fill:#fa0200;}.cls-4{fill:#333;}.cls-5{fill:#b2b2b2;}.cls-6{fill:#235cad;}.cls-7{isolation:isolate;}.cls-8{fill:#fff;}.cls-9{fill:#bfbfbf;}.cls-10{fill:#e9f3fa;}.cls-11{fill:#414954;}.cls-12{fill:#373940;}.cls-13{fill:#c8b99f;}.cls-14{fill:#d2d2d2;}.cls-15{clip-path:url(#clip-path);}.cls-16{fill:#be904b;}.cls-17{stroke:#fff;stroke-linecap:round;stroke-miterlimit:10;stroke-width:2.8px;}.cls-18{fill:#ec2024;}</style><clipPath id="clip-path"><rect class="cls-1" x="11.62" y="126.4" width="388.33" height="386.86"/></clipPath></defs><g id="Layer_7" data-name="Layer 7"><rect class="cls-2" x="696.07" y="17.91" width="51.12" height="566.89"/><rect class="cls-2" x="632.19" y="17.91" width="51.12" height="566.89"/><rect class="cls-3" x="602.46" y="354.82" width="29.68" height="34.92" rx="4.94"/><rect class="cls-3" x="555.08" y="354.82" width="70.05" height="34.92"/><rect class="cls-4" x="602.45" y="17.9" width="29.68" height="34.92" rx="4.94"/><rect class="cls-4" x="638.05" y="17.91" width="44.63" height="34.92" rx="4.24"/><rect class="cls-5" x="638.05" y="65.68" width="44.63" height="34.92" rx="4.24"/><rect class="cls-5" x="638.05" y="114.93" width="44.63" height="34.92" rx="4.24"/><rect class="cls-5" x="638.05" y="164.16" width="44.63" height="34.92" rx="4.24"/><rect class="cls-6" x="638.05" y="211.24" width="44.63" height="34.92" rx="4.24"/><rect class="cls-6" x="638.05" y="258.35" width="44.63" height="34.92" rx="4.24"/><rect class="cls-5" x="638.05" y="307.02" width="44.63" height="34.92" rx="4.24"/><rect class="cls-3" x="638.05" y="354.84" width="44.63" height="34.92" rx="4.24"/><rect class="cls-5" x="638.05" y="403.09" width="44.63" height="34.92" rx="4.24"/><rect class="cls-5" x="638.05" y="451.96" width="44.63" height="34.92" rx="4.24"/><rect class="cls-5" x="638.05" y="502.43" width="44.63" height="34.92" rx="4.24"/><rect class="cls-5" x="638.05" y="549.81" width="44.63" height="34.92" rx="4.24"/><rect class="cls-5" x="696.07" y="17.91" width="44.63" height="34.92" rx="4.24"/><rect class="cls-5" x="696.07" y="65.68" width="44.63" height="34.92" rx="4.24"/><rect class="cls-5" x="696.07" y="114.93" width="44.63" height="34.92" rx="4.24"/><rect class="cls-5" x="696.07" y="164.16" width="44.63" height="34.92" rx="4.24"/><rect class="cls-3" x="696.07" y="211.24" width="44.63" height="34.92" rx="4.24"/><rect class="cls-5" x="696.07" y="258.35" width="44.63" height="34.92" rx="4.24"/><rect class="cls-6" x="696.07" y="307.02" width="44.63" height="34.92" rx="4.24"/><rect class="cls-6" x="696.07" y="354.84" width="44.63" height="34.92" rx="4.24"/><rect class="cls-5" x="696.07" y="403.09" width="44.63" height="34.92" rx="4.24"/><rect class="cls-5" x="696.07" y="451.96" width="44.63" height="34.92" rx="4.24"/><rect class="cls-5" x="696.07" y="502.43" width="44.63" height="34.92" rx="4.24"/><rect class="cls-4" x="696.07" y="549.81" width="44.63" height="34.92" rx="4.24"/><g class="cls-7"><path class="cls-8" d="M652.81,35.39c-.13-4.27,2.3-7.55,6.78-7.55,3.41,0,6.4,2.19,6.4,5.84,0,5.66-6,6.11-8.72,10h8.83v3.25H652.39c0-4.34,2.66-6.13,5.89-8.34,1.63-1.15,3.92-2.27,3.92-4.56a2.69,2.69,0,0,0-2.8-2.89c-2.24,0-3,2.33-3,4.3Z"/></g><g class="cls-7"><path class="cls-8" d="M722.52,46.88h-4.25V33.29H713V30.08c3,.09,5.66-1,6.14-4.16h3.38Z"/></g><g class="cls-7"><path class="cls-8" d="M717.61,82.18c1.83.15,4.46-.21,4.46-2.6a2.76,2.76,0,0,0-3-2.79c-2.16,0-3.27,1.59-3.24,3.75h-4c.15-4.32,2.91-7.25,7.25-7.25,3.35,0,7,2.06,7,5.81a4.17,4.17,0,0,1-2.94,4.28v.06a4.67,4.67,0,0,1,3.72,4.76c0,4.41-3.72,6.89-7.79,6.89-4.7,0-7.88-2.81-7.79-7.64h4c.09,2.28,1.23,4.14,3.69,4.14a3.22,3.22,0,0,0,3.41-3.3c0-3.17-2.78-3.11-4.85-3.11Z"/></g><g class="cls-7"><path class="cls-8" d="M725.76,126.45H717.1l-.84,4.76.06.06a5.34,5.34,0,0,1,4.11-1.62c4.13,0,6.47,3.21,6.47,7.13a7.6,7.6,0,0,1-7.79,7.55c-4.08,0-7.7-2.25-7.79-6.65h4.25a3.34,3.34,0,0,0,3.45,3.14,3.79,3.79,0,0,0,3.62-4,3.59,3.59,0,0,0-3.62-3.92,3.47,3.47,0,0,0-3.21,1.67H712l2.07-11.59h11.71Z"/></g><g class="cls-7"><path class="cls-8" d="M715.81,233.42a3,3,0,0,0,2.82,2.61c3.11,0,3.86-4.07,4-6.38l-.06-.06a5.25,5.25,0,0,1-4.73,2.34,6.69,6.69,0,0,1-4.82-2.16,7.16,7.16,0,0,1-1.62-4.67c0-4.29,2.94-7.67,7.34-7.67,6.35,0,8.06,5.54,8.06,10.84,0,5.15-2.28,11-8.24,11-3.63,0-6.32-2.09-6.8-5.81Zm6.44-8.59c0-2-1.22-3.9-3.38-3.9s-3.21,1.92-3.21,3.84,1,3.95,3.21,3.95S722.25,226.89,722.25,224.83Z"/></g><g class="cls-7"><path class="cls-8" d="M714.19,286.6h-4.25V273h-5.27v-3.2c3,.09,5.66-1,6.14-4.17h3.38Z"/><path class="cls-8" d="M730.85,286.6H726.6V273h-5.27v-3.2c3,.09,5.66-1,6.14-4.17h3.38Z"/></g><g class="cls-7"><path class="cls-8" d="M714.19,432.15h-4.25V418.56h-5.27v-3.21c3,.09,5.66-1,6.14-4.16h3.38Z"/><path class="cls-8" d="M734.59,414.84c-4.4,3.87-6.76,11.71-6.85,17.31h-4.56a30.65,30.65,0,0,1,7-17h-9.94v-3.95h14.31Z"/></g><g class="cls-7"><path class="cls-8" d="M714.19,481h-4.25v-13.6h-5.27v-3.21c3,.09,5.66-.95,6.14-4.16h3.38Z"/><path class="cls-8" d="M724.14,475.56a3,3,0,0,0,2.82,2.6c3.11,0,3.86-4.07,4-6.38l-.06-.06a5.27,5.27,0,0,1-4.73,2.34,6.71,6.71,0,0,1-4.83-2.16,7.19,7.19,0,0,1-1.61-4.67c0-4.28,2.93-7.67,7.34-7.67,6.35,0,8,5.54,8,10.84s-2.27,11-8.23,11c-3.63,0-6.32-2.1-6.8-5.81Zm6.44-8.6c0-1.95-1.23-3.89-3.38-3.89S724,465,724,466.9s1,4,3.21,4S730.58,469,730.58,467Z"/></g><g class="cls-7"><path class="cls-8" d="M703.56,518c-.15-4.8,2.58-8.48,7.61-8.48,3.83,0,7.19,2.46,7.19,6.56,0,6.35-6.74,6.86-9.8,11.17h9.92v3.66h-15.4c0-4.89,3-6.89,6.62-9.38,1.83-1.29,4.4-2.54,4.4-5.12a3,3,0,0,0-3.14-3.24c-2.52,0-3.32,2.61-3.32,4.83Z"/><path class="cls-8" d="M730.85,530.93H726.6v-13.6h-5.27v-3.21c3,.09,5.66-1,6.14-4.16h3.38Z"/></g><g class="cls-7"><path class="cls-8" d="M703.56,566c-.15-4.79,2.58-8.47,7.61-8.47,3.83,0,7.19,2.45,7.19,6.56,0,6.35-6.74,6.85-9.8,11.17h9.92V579h-15.4c0-4.88,3-6.89,6.62-9.37,1.83-1.29,4.4-2.55,4.4-5.12a3,3,0,0,0-3.14-3.24c-2.52,0-3.32,2.61-3.32,4.82Z"/><path class="cls-8" d="M725.94,566.46c1.83.15,4.46-.21,4.46-2.6a2.77,2.77,0,0,0-3-2.79c-2.16,0-3.27,1.59-3.24,3.75h-4c.15-4.32,2.9-7.25,7.25-7.25,3.35,0,7,2.06,7,5.81a4.16,4.16,0,0,1-2.93,4.28v.06a4.66,4.66,0,0,1,3.71,4.76c0,4.41-3.71,6.89-7.78,6.89-4.71,0-7.88-2.81-7.79-7.64h4c.09,2.28,1.23,4.14,3.69,4.14a3.23,3.23,0,0,0,3.41-3.3c0-3.17-2.78-3.11-4.85-3.11Z"/></g><g class="cls-7"><path class="cls-8" d="M660.15,90.35h-7.9V86.88L660.36,76h3.39V87.23h2.48v3.12h-2.48v4.32h-3.6Zm0-9.6h-.08l-4.83,6.48h4.91Z"/></g><rect class="cls-4" x="747.38" y="549.81" width="29.68" height="34.92" rx="4.94"/><g class="cls-7"><path class="cls-8" d="M654.86,286.6h-3.78V274.49h-4.7v-2.85c2.64.08,5-.86,5.47-3.71h3Z"/><path class="cls-8" d="M660.23,275.1c-.13-4.26,2.29-7.54,6.78-7.54,3.41,0,6.4,2.18,6.4,5.84,0,5.65-6,6.1-8.72,10h8.82v3.25H659.8c0-4.35,2.67-6.14,5.9-8.35,1.63-1.15,3.92-2.27,3.92-4.56a2.68,2.68,0,0,0-2.8-2.88c-2.24,0-3,2.32-3,4.29Z"/></g><g class="cls-7"><path class="cls-8" d="M654.86,383.81h-3.78V371.7h-4.7v-2.85c2.64.08,5-.85,5.47-3.71h3Z"/><path class="cls-8" d="M669.59,369.94a2.67,2.67,0,0,0-2.5-2.32c-2.73,0-3.5,3.63-3.58,5.68l0,.06a4.69,4.69,0,0,1,4.22-2.08,5.92,5.92,0,0,1,4.29,1.92,6.33,6.33,0,0,1,1.44,4.16,6.49,6.49,0,0,1-6.53,6.83c-5.66,0-7.18-4.94-7.18-9.66s2-9.76,7.34-9.76a5.68,5.68,0,0,1,6.05,5.17Zm-5.73,7.66a3.21,3.21,0,0,0,3,3.47c1.82,0,2.86-1.71,2.86-3.42s-.91-3.52-2.86-3.52S663.86,375.76,663.86,377.6Z"/></g><g class="cls-7"><path class="cls-8" d="M654.87,432.15h-3.79v-12.1h-4.69v-2.86c2.64.08,5-.85,5.46-3.71h3Z"/><path class="cls-8" d="M666.69,413.11c4.64,0,6.24,3.2,6.24,5a3.92,3.92,0,0,1-2.72,3.92v.05a4.34,4.34,0,0,1,3.49,4.56c0,3.95-3.49,5.87-7,5.87s-7.09-1.82-7.09-5.84a4.41,4.41,0,0,1,3.52-4.59v-.05a3.73,3.73,0,0,1-2.75-3.84C660.39,414.84,663.65,413.11,666.69,413.11Zm0,16.56a3.06,3.06,0,0,0,3.2-3.14,3,3,0,0,0-3.2-3c-1.84,0-3.3,1-3.3,3A3.14,3.14,0,0,0,666.71,429.67Zm0-8.66c1.57,0,2.8-.86,2.8-2.46a2.48,2.48,0,0,0-2.8-2.59,2.62,2.62,0,0,0-2.86,2.59C663.83,420.15,665.17,421,666.69,421Z"/></g><g class="cls-7"><path class="cls-8" d="M645.4,519.43c-.14-4.27,2.29-7.55,6.77-7.55,3.42,0,6.4,2.19,6.4,5.84,0,5.66-6,6.11-8.72,9.95h8.83v3.26H645c0-4.35,2.67-6.14,5.89-8.35,1.63-1.15,3.93-2.27,3.93-4.56a2.69,2.69,0,0,0-2.81-2.88c-2.24,0-3,2.32-3,4.29Z"/><path class="cls-8" d="M660.23,519.43c-.13-4.27,2.29-7.55,6.78-7.55,3.41,0,6.4,2.19,6.4,5.84,0,5.66-6,6.11-8.72,9.95h8.82v3.26H659.8c0-4.35,2.67-6.14,5.9-8.35,1.63-1.15,3.92-2.27,3.92-4.56a2.68,2.68,0,0,0-2.8-2.88c-2.24,0-3,2.32-3,4.29Z"/></g><g class="cls-7"><path class="cls-8" d="M662.18,130a2.68,2.68,0,0,0-2.51-2.32c-2.72,0-3.5,3.63-3.58,5.68l.06,0a4.7,4.7,0,0,1,4.21-2.08,6,6,0,0,1,4.3,1.92,6.81,6.81,0,0,1-5.1,11c-5.65,0-7.17-4.93-7.17-9.65s2-9.77,7.33-9.77a5.7,5.7,0,0,1,6.06,5.18Zm-5.74,7.65a3.2,3.2,0,0,0,3,3.47c1.82,0,2.86-1.71,2.86-3.41s-.91-3.52-2.86-3.52S656.44,135.85,656.44,137.69Z"/></g><polygon class="cls-4" points="606.77 17.89 566.2 17.89 545.9 35.36 566.2 52.81 606.77 52.81 627.08 35.36 606.77 17.89"/><g class="cls-7"><path class="cls-8" d="M577.3,41.73a6.4,6.4,0,0,1-5.22,2.62c-5.87,0-9.37-4.4-9.37-9.9,0-5.65,3.5-10.05,9.37-10.05,3.89,0,7.6,2.37,8,6.72h-4a3.87,3.87,0,0,0-4-3.2c-3.76,0-5.18,3.2-5.18,6.53s1.42,6.38,5.18,6.38c2.74,0,4.29-1.44,4.53-4.11H572.4V33.6h8V43.9h-2.67Z"/><path class="cls-8" d="M583.79,24.85H588l7.95,12.78H596V24.85h3.92v19h-4.18l-7.92-12.75h-.06V43.9h-3.92Z"/><path class="cls-8" d="M603.56,24.85h8.22c4.93,0,8.64,3.12,8.64,9.42,0,5.52-2.83,9.63-8.64,9.63h-8.22Zm4.19,15.52h3.73c2.43,0,4.75-1.49,4.75-5.7,0-3.84-1.36-6.3-5.49-6.3h-3Z"/></g><polygon class="cls-3" points="594.01 354.82 553.45 354.82 533.14 372.31 553.45 389.74 594.01 389.74 614.32 372.31 594.01 354.82"/><rect class="cls-3" x="747.19" y="211.24" width="29.68" height="34.92" rx="4.94"/><rect class="cls-3" x="754.2" y="211.24" width="70.05" height="34.92"/><polygon class="cls-3" points="765.01 228.74 785.32 246.17 825.89 246.17 846.2 228.74 825.89 211.25 785.32 211.25 765.01 228.74"/><g class="cls-7"><path class="cls-8" d="M567.8,369.69c1.62.14,4-.18,4-2.32a2.46,2.46,0,0,0-2.64-2.48c-1.92,0-2.91,1.42-2.88,3.34h-3.6c.13-3.84,2.59-6.46,6.45-6.46,3,0,6.27,1.84,6.27,5.18a3.72,3.72,0,0,1-2.61,3.81v.05a4.17,4.17,0,0,1,3.31,4.24c0,3.92-3.31,6.14-6.94,6.14-4.19,0-7-2.51-6.93-6.8h3.6c.08,2,1.09,3.68,3.28,3.68a2.88,2.88,0,0,0,3-2.94c0-2.82-2.48-2.77-4.32-2.77Z"/><path class="cls-8" d="M587.25,380.82h-4.73l-6.18-19.05h4.32l4.24,13.39H585l4.3-13.39h4.32Z"/><path class="cls-8" d="M599.44,369.69c1.63.14,4-.18,4-2.32a2.46,2.46,0,0,0-2.64-2.48c-1.92,0-2.9,1.42-2.88,3.34h-3.6c.14-3.84,2.59-6.46,6.46-6.46,3,0,6.26,1.84,6.26,5.18a3.72,3.72,0,0,1-2.61,3.81v.05a4.17,4.17,0,0,1,3.31,4.24c0,3.92-3.31,6.14-6.94,6.14-4.18,0-7-2.51-6.93-6.8h3.6c.08,2,1.09,3.68,3.28,3.68a2.87,2.87,0,0,0,3-2.94c0-2.82-2.48-2.77-4.32-2.77Z"/></g><g class="cls-7"><path class="cls-8" d="M768.11,226.42c1.63.13,4-.19,4-2.32a2.47,2.47,0,0,0-2.64-2.48c-1.93,0-2.91,1.41-2.89,3.33H763c.14-3.84,2.59-6.45,6.46-6.45,3,0,6.27,1.84,6.27,5.17a3.72,3.72,0,0,1-2.62,3.82v0a4.15,4.15,0,0,1,3.31,4.24c0,3.92-3.31,6.14-6.93,6.14-4.19,0-7-2.51-6.94-6.8h3.6c.08,2,1.1,3.68,3.28,3.68a2.87,2.87,0,0,0,3-2.94c0-2.82-2.48-2.77-4.32-2.77Z"/><path class="cls-8" d="M787.56,237.54h-4.72l-6.19-19H781l4.24,13.39h.06l4.29-13.39h4.32Z"/><path class="cls-8" d="M799.75,226.42c1.63.13,4-.19,4-2.32a2.47,2.47,0,0,0-2.64-2.48c-1.92,0-2.91,1.41-2.88,3.33h-3.6c.13-3.84,2.58-6.45,6.45-6.45,3,0,6.27,1.84,6.27,5.17a3.72,3.72,0,0,1-2.62,3.82v0a4.15,4.15,0,0,1,3.31,4.24c0,3.92-3.31,6.14-6.93,6.14-4.19,0-7-2.51-6.94-6.8h3.6c.08,2,1.1,3.68,3.28,3.68a2.87,2.87,0,0,0,3-2.94c0-2.82-2.48-2.77-4.32-2.77Z"/></g><polygon class="cls-4" points="773.05 549.81 813.59 549.81 833.9 567.28 813.59 584.73 773.05 584.73 752.74 567.28 773.05 549.81"/><g class="cls-7"><path class="cls-8" d="M773.42,573.64a6.41,6.41,0,0,1-5.23,2.61c-5.87,0-9.36-4.4-9.36-9.89,0-5.66,3.49-10.06,9.36-10.06,3.89,0,7.6,2.37,8,6.72h-4a3.89,3.89,0,0,0-4-3.2c-3.76,0-5.17,3.2-5.17,6.54,0,3.17,1.41,6.37,5.17,6.37,2.75,0,4.29-1.44,4.54-4.11h-4.22V565.5h8v10.3h-2.66Z"/><path class="cls-8" d="M779.91,556.75h4.16L792,569.53h.06V556.75H796v19H791.8l-7.92-12.75h0V575.8h-3.92Z"/><path class="cls-8" d="M799.68,556.75h8.21c4.93,0,8.64,3.12,8.64,9.42,0,5.52-2.83,9.63-8.64,9.63h-8.21Zm4.18,15.53h3.74c2.42,0,4.74-1.5,4.74-5.71,0-3.84-1.36-6.29-5.49-6.29h-3Z"/></g><g class="cls-7"><path class="cls-8" d="M659.27,172.84c4.64,0,6.24,3.2,6.24,5a3.9,3.9,0,0,1-2.72,3.92v.06a4.33,4.33,0,0,1,3.49,4.56c0,4-3.49,5.87-7,5.87s-7.09-1.82-7.09-5.85a4.41,4.41,0,0,1,3.52-4.58v-.06a3.72,3.72,0,0,1-2.75-3.84C653,174.57,656.23,172.84,659.27,172.84Zm0,16.56a3.07,3.07,0,0,0,3.21-3.15,3,3,0,0,0-3.21-3c-1.84,0-3.3,1-3.3,3A3.14,3.14,0,0,0,659.29,189.4Zm0-8.67c1.57,0,2.8-.85,2.8-2.45a2.48,2.48,0,0,0-2.8-2.59,2.62,2.62,0,0,0-2.86,2.59C656.41,179.88,657.75,180.73,659.27,180.73Z"/></g><rect class="cls-5" x="747.43" y="17.91" width="29.68" height="34.92" rx="4.94"/><g class="cls-7"><path class="cls-8" d="M654.87,238.81h-3.79v-12.1h-4.69v-2.86c2.64.08,5-.85,5.46-3.71h3Z"/><path class="cls-8" d="M666.63,219.77c3.74,0,6.89,2.35,6.89,9.63,0,7.44-3.15,9.79-6.89,9.79s-6.82-2.35-6.82-9.79C659.81,222.12,662.93,219.77,666.63,219.77Zm0,16.3c3.1,0,3.1-4.56,3.1-6.67,0-2,0-6.51-3.1-6.51s-3,4.56-3,6.51C663.59,231.51,663.59,236.07,666.63,236.07Z"/></g><g class="cls-7"><path class="cls-8" d="M654.86,335.84h-3.78V323.73h-4.7v-2.85c2.64.08,5-.86,5.47-3.71h3Z"/><path class="cls-8" d="M667.57,331.52h-7.9v-3.47l8.11-10.88h3.39V328.4h2.48v3.12h-2.48v4.32h-3.6Zm0-9.6h-.08l-4.83,6.48h4.91Z"/></g><g class="cls-7"><path class="cls-8" d="M645.4,469.45c-.14-4.27,2.29-7.55,6.77-7.55,3.42,0,6.4,2.19,6.4,5.84,0,5.66-6,6.11-8.72,9.95h8.83V481H645c0-4.35,2.67-6.14,5.89-8.35,1.63-1.15,3.93-2.27,3.93-4.56a2.69,2.69,0,0,0-2.81-2.88c-2.24,0-3,2.32-3,4.29Z"/><path class="cls-8" d="M666.63,461.9c3.74,0,6.88,2.35,6.88,9.63,0,7.44-3.14,9.79-6.88,9.79s-6.83-2.35-6.83-9.79C659.8,464.25,662.92,461.9,666.63,461.9Zm0,16.3c3.1,0,3.1-4.56,3.1-6.67,0-1.94,0-6.51-3.1-6.51s-3,4.57-3,6.51C663.59,473.64,663.59,478.2,666.63,478.2Z"/></g><g class="cls-7"><path class="cls-8" d="M645.4,567.26c-.13-4.27,2.29-7.55,6.77-7.55,3.42,0,6.4,2.19,6.4,5.84,0,5.65-6,6.11-8.72,10h8.83v3.25H645c0-4.35,2.67-6.13,5.9-8.35,1.62-1.14,3.92-2.26,3.92-4.56A2.69,2.69,0,0,0,652,563c-2.24,0-3,2.32-3,4.3Z"/><path class="cls-8" d="M667.57,574.43h-7.9V571l8.11-10.88h3.39v11.23h2.48v3.12h-2.48v4.32h-3.6Zm0-9.6h-.08l-4.83,6.48h4.91Z"/></g><g class="cls-7"><path class="cls-8" d="M726.27,174.57c-4.41,3.86-6.77,11.71-6.86,17.31h-4.56a30.65,30.65,0,0,1,7-17H712v-4h14.32Z"/></g><polygon class="cls-5" points="799.81 17.91 764.69 17.91 747.12 35.38 764.69 52.83 799.81 52.83 817.39 35.38 799.81 17.91"/><g class="cls-7"><path class="cls-8" d="M758.61,24.85h4.16l8,12.78h0V24.85h3.92v19H770.5l-7.92-12.74h-.05V43.89h-3.92Z"/><path class="cls-8" d="M791.07,31.25a4.15,4.15,0,0,0-4.16-3.33c-3.76,0-5.17,3.2-5.17,6.53s1.41,6.38,5.17,6.38c2.56,0,4-1.74,4.32-4.27h4.06c-.43,4.77-3.68,7.79-8.38,7.79-5.87,0-9.36-4.4-9.36-9.9,0-5.65,3.49-10.05,9.36-10.05,4.16,0,7.71,2.45,8.22,6.85Z"/></g><rect class="cls-5" x="747.43" y="65.68" width="29.68" height="34.92" rx="4.94"/><polygon class="cls-5" points="799.81 65.68 764.69 65.68 747.12 83.16 764.69 100.61 799.81 100.61 817.39 83.16 799.81 65.68"/><g class="cls-7"><path class="cls-8" d="M758.61,72.63h4.16l8,12.77h0V72.63h3.92v19H770.5l-7.92-12.75h-.05V91.67h-3.92Z"/><path class="cls-8" d="M791.07,79a4.15,4.15,0,0,0-4.16-3.34c-3.76,0-5.17,3.21-5.17,6.54,0,3.17,1.41,6.37,5.17,6.37,2.56,0,4-1.73,4.32-4.26h4.06c-.43,4.77-3.68,7.79-8.38,7.79-5.87,0-9.36-4.41-9.36-9.9,0-5.66,3.49-10.06,9.36-10.06,4.16,0,7.71,2.46,8.22,6.86Z"/></g><rect class="cls-5" x="747.43" y="114.93" width="29.68" height="34.92" rx="4.94"/><polygon class="cls-5" points="799.81 114.93 764.69 114.93 747.12 132.41 764.69 149.86 799.81 149.86 817.39 132.41 799.81 114.93"/><g class="cls-7"><path class="cls-8" d="M758.61,121.88h4.16l8,12.77h0V121.88h3.92v19H770.5l-7.92-12.75h-.05v12.75h-3.92Z"/><path class="cls-8" d="M791.07,128.28a4.15,4.15,0,0,0-4.16-3.34c-3.76,0-5.17,3.2-5.17,6.54,0,3.17,1.41,6.37,5.17,6.37,2.56,0,4-1.73,4.32-4.26h4.06c-.43,4.77-3.68,7.78-8.38,7.78-5.87,0-9.36-4.4-9.36-9.89,0-5.66,3.49-10.06,9.36-10.06,4.16,0,7.71,2.46,8.22,6.86Z"/></g><rect class="cls-5" x="602.43" y="114.93" width="29.68" height="34.92" rx="4.94"/><polygon class="cls-5" points="579.46 114.94 614.58 114.94 632.16 132.41 614.58 149.86 579.46 149.86 561.89 132.41 579.46 114.94"/><g class="cls-7"><path class="cls-8" d="M584.83,121.88H589l8,12.78h0V121.88h3.93v19.05h-4.19l-7.92-12.75h-.06v12.75h-3.92Z"/><path class="cls-8" d="M617.3,128.28a4.16,4.16,0,0,0-4.16-3.33c-3.76,0-5.18,3.2-5.18,6.53s1.42,6.38,5.18,6.38c2.56,0,4-1.74,4.32-4.27h4c-.42,4.78-3.68,7.79-8.37,7.79-5.87,0-9.37-4.4-9.37-9.9s3.5-10,9.37-10c4.16,0,7.71,2.45,8.21,6.85Z"/></g><rect class="cls-5" x="602.43" y="164.15" width="29.68" height="34.92" rx="4.94"/><polygon class="cls-5" points="579.46 164.17 614.58 164.17 632.16 181.64 614.58 199.09 579.46 199.09 561.89 181.64 579.46 164.17"/><g class="cls-7"><path class="cls-8" d="M584.83,171.11H589l8,12.77h0V171.11h3.93v19h-4.19l-7.92-12.75h-.06v12.75h-3.92Z"/><path class="cls-8" d="M617.3,177.51a4.16,4.16,0,0,0-4.16-3.33c-3.76,0-5.18,3.2-5.18,6.53,0,3.17,1.42,6.38,5.18,6.38,2.56,0,4-1.74,4.32-4.27h4c-.42,4.77-3.68,7.79-8.37,7.79-5.87,0-9.37-4.4-9.37-9.9,0-5.65,3.5-10.05,9.37-10.05,4.16,0,7.71,2.45,8.21,6.85Z"/></g><rect class="cls-6" x="602.43" y="209.97" width="29.68" height="34.92" rx="4.94"/><polygon class="cls-6" points="565.45 209.97 600.58 209.97 618.16 227.44 600.58 244.89 565.45 244.89 547.89 227.44 565.45 209.97"/><polygon class="cls-6" points="579.46 209.97 614.58 209.97 632.16 227.44 614.58 244.89 579.46 244.89 561.89 227.44 579.46 209.97"/><g class="cls-7"><path class="cls-8" d="M572.83,216.91h14.24v3.52H577v4.08h9.23v3.26H577v4.66h10.27V236H572.83Z"/><path class="cls-8" d="M590.12,216.91h4.16l8,12.78h0V216.91h3.92v19H602l-7.93-12.74H594V236h-3.92Z"/><path class="cls-8" d="M618.51,236h-3.79v-12.1H610V221c2.64.08,5-.85,5.47-3.71h3Z"/></g><rect class="cls-6" x="602.43" y="259.07" width="29.68" height="34.92" rx="4.94"/><polygon class="cls-6" points="565.45 259.07 600.58 259.07 618.16 276.54 600.58 293.99 565.45 293.99 547.89 276.54 565.45 259.07"/><polygon class="cls-6" points="579.46 259.07 614.58 259.07 632.16 276.54 614.58 293.99 579.46 293.99 561.89 276.54 579.46 259.07"/><g class="cls-7"><path class="cls-8" d="M572.83,266h14.24v3.52H577v4.08h9.23v3.25H577v4.67h10.27v3.52H572.83Z"/><path class="cls-8" d="M590.12,266h4.16l8,12.77h0V266h3.92v19H602l-7.93-12.75H594v12.75h-3.92Z"/><path class="cls-8" d="M609,273.56c-.14-4.27,2.29-7.55,6.77-7.55,3.42,0,6.4,2.18,6.4,5.84,0,5.65-6,6.11-8.72,9.95h8.83v3.25H608.61c0-4.35,2.67-6.13,5.9-8.35,1.62-1.14,3.92-2.26,3.92-4.56a2.69,2.69,0,0,0-2.8-2.88c-2.25,0-3,2.32-3,4.3Z"/></g><rect class="cls-6" x="747.15" y="305.85" width="29.68" height="34.92" rx="4.94"/><polygon class="cls-6" points="813.8 305.85 778.68 305.85 761.1 323.32 778.68 340.77 813.8 340.77 831.37 323.32 813.8 305.85"/><polygon class="cls-6" points="799.8 305.85 764.68 305.85 747.09 323.32 764.68 340.77 799.8 340.77 817.36 323.32 799.8 305.85"/><g class="cls-7"><path class="cls-8" d="M759.92,312.79h14.24v3.52h-10v4.08h9.22v3.26h-9.22v4.66h10.26v3.52H759.92Z"/><path class="cls-8" d="M777.21,312.79h4.16l7.94,12.78h.06V312.79h3.92v19H789.1l-7.92-12.75h0v12.75h-3.92Z"/><path class="cls-8" d="M796.12,320.34c-.13-4.27,2.3-7.55,6.78-7.55,3.41,0,6.4,2.19,6.4,5.84,0,5.66-6,6.11-8.72,9.95h8.82v3.25H795.7c0-4.34,2.66-6.13,5.89-8.35,1.63-1.14,3.92-2.26,3.92-4.56a2.68,2.68,0,0,0-2.8-2.88c-2.24,0-3,2.32-3,4.3Z"/></g><rect class="cls-6" x="747.26" y="354.84" width="29.68" height="34.92" rx="4.94"/><polygon class="cls-6" points="813.91 354.84 778.79 354.84 761.2 372.31 778.79 389.76 813.91 389.76 831.48 372.31 813.91 354.84"/><polygon class="cls-6" points="799.91 354.84 764.79 354.84 747.2 372.31 764.79 389.76 799.91 389.76 817.47 372.31 799.91 354.84"/><g class="cls-7"><path class="cls-8" d="M760,361.78h14.24v3.52H764.21v4.09h9.23v3.25h-9.23v4.67h10.27v3.52H760Z"/><path class="cls-8" d="M777.31,361.78h4.17l7.94,12.78h.06V361.78h3.92v19.05h-4.19l-7.92-12.75h-.06v12.75h-3.92Z"/><path class="cls-8" d="M805.7,380.83h-3.79V368.72h-4.69v-2.86c2.64.08,5-.85,5.47-3.7h3Z"/></g><rect class="cls-5" x="602.43" y="66.41" width="29.68" height="34.92" rx="4.94"/><polygon class="cls-5" points="579.46 66.43 614.58 66.43 632.16 83.9 614.58 101.35 579.46 101.35 561.89 83.9 579.46 66.43"/><g class="cls-7"><path class="cls-8" d="M584.83,73.37H589l8,12.77h0V73.37h3.93v19h-4.19l-7.92-12.75h-.06V92.41h-3.92Z"/><path class="cls-8" d="M617.3,79.77a4.16,4.16,0,0,0-4.16-3.33c-3.76,0-5.18,3.2-5.18,6.53,0,3.17,1.42,6.37,5.18,6.37,2.56,0,4-1.73,4.32-4.26h4c-.42,4.77-3.68,7.79-8.37,7.79-5.87,0-9.37-4.41-9.37-9.9,0-5.65,3.5-10.06,9.37-10.06,4.16,0,7.71,2.46,8.21,6.86Z"/></g><rect class="cls-5" x="602.46" y="305.83" width="29.68" height="34.92" rx="4.94"/><polygon class="cls-5" points="579.49 305.86 614.62 305.86 632.2 323.33 614.62 340.76 579.49 340.76 561.93 323.33 579.49 305.86"/><g class="cls-7"><path class="cls-8" d="M584.87,312.79H589l8,12.78h0V312.79H601v19h-4.19l-7.92-12.75h-.05v12.75h-3.92Z"/><path class="cls-8" d="M617.33,319.2a4.15,4.15,0,0,0-4.16-3.34c-3.76,0-5.17,3.2-5.17,6.54,0,3.17,1.41,6.37,5.17,6.37,2.56,0,4-1.73,4.32-4.27h4.06c-.43,4.78-3.68,7.79-8.38,7.79-5.87,0-9.36-4.4-9.36-9.89,0-5.66,3.49-10.06,9.36-10.06,4.16,0,7.71,2.46,8.22,6.86Z"/></g><rect class="cls-5" x="602.46" y="402.33" width="29.68" height="34.92" rx="4.94"/><polygon class="cls-5" points="579.49 402.34 614.62 402.34 632.2 419.81 614.62 437.26 579.49 437.26 561.93 419.81 579.49 402.34"/><g class="cls-7"><path class="cls-8" d="M584.87,409.28H589l8,12.78h0V409.28H601v19.05h-4.19l-7.92-12.75h-.05v12.75h-3.92Z"/><path class="cls-8" d="M617.33,415.69a4.15,4.15,0,0,0-4.16-3.34c-3.76,0-5.17,3.2-5.17,6.54,0,3.17,1.41,6.37,5.17,6.37,2.56,0,4-1.73,4.32-4.27h4.06c-.43,4.78-3.68,7.79-8.38,7.79-5.87,0-9.36-4.4-9.36-9.89,0-5.66,3.49-10.06,9.36-10.06,4.16,0,7.71,2.45,8.22,6.86Z"/></g><rect class="cls-5" x="602.46" y="451.95" width="29.68" height="34.92" rx="4.94"/><polygon class="cls-5" points="579.49 451.96 614.62 451.96 632.2 469.43 614.62 486.88 579.49 486.88 561.93 469.43 579.49 451.96"/><g class="cls-7"><path class="cls-8" d="M584.87,458.91H589l8,12.77h0V458.91H601v19h-4.19l-7.92-12.75h-.05V478h-3.92Z"/><path class="cls-8" d="M617.33,465.31a4.15,4.15,0,0,0-4.16-3.33c-3.76,0-5.17,3.2-5.17,6.53,0,3.17,1.41,6.37,5.17,6.37,2.56,0,4-1.73,4.32-4.26h4.06c-.43,4.77-3.68,7.78-8.38,7.78-5.87,0-9.36-4.4-9.36-9.89,0-5.65,3.49-10.06,9.36-10.06,4.16,0,7.71,2.46,8.22,6.86Z"/></g><rect class="cls-5" x="602.46" y="501.67" width="29.68" height="34.92" rx="4.94"/><rect class="cls-5" x="747.38" y="403.08" width="29.68" height="34.92" rx="4.94"/><polygon class="cls-5" points="579.49 501.68 614.62 501.68 632.2 519.16 614.62 536.61 579.49 536.61 561.93 519.16 579.49 501.68"/><g class="cls-7"><path class="cls-8" d="M584.87,508.63H589l8,12.77h0V508.63H601v19h-4.19l-7.92-12.75h-.05v12.75h-3.92Z"/><path class="cls-8" d="M617.33,515a4.15,4.15,0,0,0-4.16-3.34c-3.76,0-5.17,3.2-5.17,6.54,0,3.17,1.41,6.37,5.17,6.37,2.56,0,4-1.73,4.32-4.27h4.06c-.43,4.78-3.68,7.79-8.38,7.79-5.87,0-9.36-4.4-9.36-9.89,0-5.66,3.49-10.06,9.36-10.06,4.16,0,7.71,2.46,8.22,6.86Z"/></g><rect class="cls-5" x="602.46" y="549.8" width="29.68" height="34.92" rx="4.94"/><polygon class="cls-5" points="579.49 549.81 614.62 549.81 632.2 567.29 614.62 584.74 579.49 584.74 561.93 567.29 579.49 549.81"/><g class="cls-7"><path class="cls-8" d="M584.87,556.76H589l8,12.77h0V556.76H601v19h-4.19l-7.92-12.75h-.05V575.8h-3.92Z"/><path class="cls-8" d="M617.33,563.16a4.15,4.15,0,0,0-4.16-3.34c-3.76,0-5.17,3.2-5.17,6.54,0,3.17,1.41,6.37,5.17,6.37,2.56,0,4-1.73,4.32-4.27h4.06c-.43,4.78-3.68,7.79-8.38,7.79-5.87,0-9.36-4.4-9.36-9.89,0-5.66,3.49-10.06,9.36-10.06,4.16,0,7.71,2.46,8.22,6.86Z"/></g><polygon class="cls-5" points="799.81 164.05 764.69 164.05 747.12 181.52 764.69 198.95 799.81 198.95 817.39 181.52 799.81 164.05"/><rect class="cls-5" x="747.38" y="164.16" width="29.68" height="34.92" rx="4.94"/><g class="cls-7"><path class="cls-8" d="M758.61,171h4.16l8,12.78h0V171h3.92V190H770.5l-7.92-12.75h-.05V190h-3.92Z"/><path class="cls-8" d="M791.07,177.39a4.15,4.15,0,0,0-4.16-3.34c-3.76,0-5.17,3.2-5.17,6.54,0,3.17,1.41,6.37,5.17,6.37,2.56,0,4-1.73,4.32-4.27h4.06c-.43,4.78-3.68,7.79-8.38,7.79-5.87,0-9.36-4.4-9.36-9.89,0-5.66,3.49-10.06,9.36-10.06,4.16,0,7.71,2.45,8.22,6.86Z"/></g><polygon class="cls-5" points="799.81 259.08 764.69 259.08 747.12 276.55 764.69 293.98 799.81 293.98 817.39 276.55 799.81 259.08"/><rect class="cls-5" x="747.38" y="259.19" width="29.68" height="34.92" rx="4.94"/><g class="cls-7"><path class="cls-8" d="M758.61,266h4.16l8,12.78h0V266h3.92v19.05H770.5l-7.92-12.75h-.05v12.75h-3.92Z"/><path class="cls-8" d="M791.07,272.41a4.15,4.15,0,0,0-4.16-3.33c-3.76,0-5.17,3.2-5.17,6.54,0,3.17,1.41,6.37,5.17,6.37,2.56,0,4-1.73,4.32-4.27h4.06c-.43,4.78-3.68,7.79-8.38,7.79-5.87,0-9.36-4.4-9.36-9.89,0-5.66,3.49-10.06,9.36-10.06,4.16,0,7.71,2.45,8.22,6.85Z"/></g><polygon class="cls-5" points="799.81 403.18 764.69 403.18 747.12 420.65 764.69 438.1 799.81 438.1 817.39 420.65 799.81 403.18"/><g class="cls-7"><path class="cls-8" d="M758.61,410.13h4.16l8,12.77h0V410.13h3.92v19H770.5l-7.92-12.75h-.05v12.75h-3.92Z"/><path class="cls-8" d="M791.07,416.53a4.15,4.15,0,0,0-4.16-3.34c-3.76,0-5.17,3.2-5.17,6.54,0,3.17,1.41,6.37,5.17,6.37,2.56,0,4-1.73,4.32-4.27h4.06c-.43,4.78-3.68,7.79-8.38,7.79-5.87,0-9.36-4.4-9.36-9.89,0-5.66,3.49-10.06,9.36-10.06,4.16,0,7.71,2.46,8.22,6.86Z"/></g><rect class="cls-5" x="747.38" y="451.91" width="29.68" height="34.92" rx="4.94"/><polygon class="cls-5" points="799.81 452 764.69 452 747.12 469.48 764.69 486.93 799.81 486.93 817.39 469.48 799.81 452"/><g class="cls-7"><path class="cls-8" d="M758.61,459h4.16l8,12.78h0V459h3.92v19H770.5l-7.92-12.74h-.05V478h-3.92Z"/><path class="cls-8" d="M791.07,465.35a4.15,4.15,0,0,0-4.16-3.33c-3.76,0-5.17,3.2-5.17,6.53s1.41,6.38,5.17,6.38c2.56,0,4-1.74,4.32-4.27h4.06c-.43,4.77-3.68,7.79-8.38,7.79-5.87,0-9.36-4.4-9.36-9.9,0-5.65,3.49-10.05,9.36-10.05,4.16,0,7.71,2.45,8.22,6.85Z"/></g><rect class="cls-5" x="747.38" y="502.39" width="29.68" height="34.92" rx="4.94"/><polygon class="cls-5" points="799.81 502.48 764.69 502.48 747.12 519.96 764.69 537.4 799.81 537.4 817.39 519.96 799.81 502.48"/><g class="cls-7"><path class="cls-8" d="M758.61,509.43h4.16l8,12.78h0V509.43h3.92v19H770.5l-7.92-12.74h-.05v12.74h-3.92Z"/><path class="cls-8" d="M791.07,515.83a4.15,4.15,0,0,0-4.16-3.33c-3.76,0-5.17,3.2-5.17,6.53s1.41,6.38,5.17,6.38c2.56,0,4-1.74,4.32-4.27h4.06c-.43,4.77-3.68,7.79-8.38,7.79-5.87,0-9.36-4.4-9.36-9.9s3.49-10,9.36-10c4.16,0,7.71,2.45,8.22,6.85Z"/></g><g class="cls-7"><path class="cls-8" d="M714.19,335.84h-4.25v-13.6h-5.27V319c3,.09,5.66-1,6.14-4.17h3.38Z"/><path class="cls-8" d="M725.94,323.35c1.83.15,4.46-.21,4.46-2.61a2.77,2.77,0,0,0-3-2.78c-2.16,0-3.27,1.58-3.24,3.74h-4c.15-4.31,2.9-7.25,7.25-7.25,3.35,0,7,2.07,7,5.81a4.17,4.17,0,0,1-2.93,4.29v.06a4.65,4.65,0,0,1,3.71,4.76c0,4.4-3.71,6.89-7.78,6.89-4.71,0-7.88-2.82-7.79-7.64h4c.09,2.28,1.23,4.13,3.69,4.13a3.22,3.22,0,0,0,3.41-3.29c0-3.18-2.78-3.12-4.85-3.12Z"/></g><g class="cls-7"><path class="cls-8" d="M714.19,383.81h-4.25v-13.6h-5.27V367c3,.09,5.66-1,6.14-4.16h3.38Z"/><path class="cls-8" d="M734.09,366.35h-8.66l-.84,4.76.06.06a5.33,5.33,0,0,1,4.1-1.62c4.14,0,6.47,3.21,6.47,7.13a7.58,7.58,0,0,1-7.78,7.55c-4.08,0-7.7-2.25-7.79-6.65h4.25a3.35,3.35,0,0,0,3.45,3.15,3.8,3.8,0,0,0,3.62-4.05,3.61,3.61,0,0,0-3.62-3.92,3.48,3.48,0,0,0-3.21,1.68h-3.83l2.06-11.59h11.72Z"/></g></g><g id="_19002" data-name="19002"><path class="cls-9" d="M399.94,126.4H11.62v92.54H34.27c17.83,0,32.29,14.77,32.29,33s-14.46,33-32.29,33H11.62V513.26H399.94Z"/><path class="cls-10" d="M297,199.85v-3.41a5.63,5.63,0,0,1,5.57-5.69h59a5.63,5.63,0,0,1,5.57,5.69v3.41a5.64,5.64,0,0,1-5.57,5.69h-59a5.64,5.64,0,0,1-5.57-5.69"/><path class="cls-10" d="M297,440.37V437a5.64,5.64,0,0,1,5.57-5.69h59a5.64,5.64,0,0,1,5.57,5.69v3.41a5.64,5.64,0,0,1-5.57,5.69h-59a5.64,5.64,0,0,1-5.57-5.69"/><path class="cls-11" d="M348.53,451.81h5.75a5.62,5.62,0,0,0,5.57-5.69V434.37a5.66,5.66,0,0,0-3.53-5.28V209.43a5.67,5.67,0,0,0,3.53-5.28V192.39a5.63,5.63,0,0,0-5.57-5.69h-5.75a5.57,5.57,0,0,0-5.31,4.05H321a5.58,5.58,0,0,0-5.31-4.05h-5.75a5.63,5.63,0,0,0-5.57,5.69v11.76a5.67,5.67,0,0,0,3.74,5.35V429a5.66,5.66,0,0,0-3.74,5.35v11.75a5.62,5.62,0,0,0,5.57,5.69h5.75a5.56,5.56,0,0,0,5.15-3.54h22.56a5.56,5.56,0,0,0,5.15,3.54"/><path class="cls-12" d="M313.11,423.12V215.53a2.88,2.88,0,0,1,2.85-2.91h31.2a2.87,2.87,0,0,1,2.84,2.91V423.12a2.87,2.87,0,0,1-2.84,2.9H316a2.88,2.88,0,0,1-2.85-2.9"/><path class="cls-13" d="M85.62,251.81v-3.54c0-28.07-22.27-50.82-49.75-50.82H11.62v21.49H34.27c17.83,0,32.29,14.77,32.29,33s-14.46,33-32.29,33H11.62v17.7H35.87c27.48,0,49.75-22.75,49.75-50.82"/><rect class="cls-1" x="11.62" y="126.4" width="388.33" height="386.86"/><polygon class="cls-14" points="243.45 360.41 257.16 360.41 257.16 324.66 243.45 324.66 243.45 311.53 257.16 311.53 257.16 272.66 243.45 272.66 243.45 259.53 257.16 259.53 257.16 224.62 243.45 224.62 243.45 210.79 171.58 210.79 171.58 372.73 243.45 372.73 243.45 360.41"/><path class="cls-14" d="M139,146.82v7L109.44,161v.11l29.59,8v7.09l-29.59,7.75V184L139,191.38v7l-38.7-10.9v-7l29.59-7.92v-.11l-29.59-8.08v-7.14Z"/><path class="cls-14" d="M139,202.24v6.31h-5.85v-6.31Zm-10.68,0v6.31h-28v-6.31Z"/><path class="cls-14" d="M109.33,220.17c-3.63.39-4.88,3.1-4.88,6.48,0,2.44.49,6.53,3.69,6.37s3.63-4.76,4.66-9.36,2.6-9.19,8.29-9.19c6.13,0,8,6.75,8,12,0,5.87-2.33,11.23-8.62,11.95V231.8c3-.61,3.74-3,3.74-5.81,0-1.83-.43-5.21-2.87-5.21-3,0-3.52,4.65-4.5,9.3s-2.65,9.25-8.18,9.25c-6.67,0-9.1-6.87-9.1-12.79,0-7.25,3.14-12.51,9.75-12.68Z"/><path class="cls-14" d="M139,244.64v18.6c0,7.53-2.38,12.62-9.59,12.62-3.85,0-6.4-1.88-8.08-5.36-1.35,4.87-5,7.25-9.81,7.25-7.86,0-11.22-6.81-11.22-13.95V244.64Zm-15.66,8.7v8.8c0,3.1,1.35,5.31,4.6,5.31,3.63,0,4.45-2.88,4.45-6v-8.13Zm-16.42,0v9.29c0,3.38,1.08,6.43,5.09,6.43s5.53-2.49,5.53-6.26v-9.46Z"/><path class="cls-14" d="M139,283.62v8.69H107.49v19.26h-7.16V283.62Z"/><path class="cls-14" d="M140,334.16c0,12.18-8.94,19.43-20.43,19.43-11.17,0-20.11-7.25-20.11-19.43s8.94-19.43,20.11-19.43C131,314.73,140,322,140,334.16Zm-33.38,0c0,7.81,6.5,10.74,13,10.74,6.77,0,13.28-2.93,13.28-10.74s-6.51-10.74-13.28-10.74C113.07,323.42,106.57,326.36,106.57,334.16Z"/><path class="cls-14" d="M126,385.87c3.85-.61,6.78-4.38,6.78-8.64,0-7.8-6.51-10.74-13.28-10.74-6.45,0-13,2.94-13,10.74,0,5.32,3.52,8.31,8.67,9v8.41c-9.7-.88-15.83-7.64-15.83-17.38,0-12.18,8.94-19.43,20.11-19.43,11.49,0,20.43,7.25,20.43,19.43,0,8.64-5,16-13.93,17Z"/><path class="cls-14" d="M139,400.54v8.69H123l16,15.45v10.85l-15.28-15.45L100.33,437V426.11l17.4-11.9-4.93-5H100.33v-8.69Z"/><g class="cls-15"><path class="cls-10" d="M379.25,234.18v-6.54a1.74,1.74,0,0,0-1.72-1.76h-5.66a1.72,1.72,0,0,0-1.7,1.66H355v6.74h15.15a1.72,1.72,0,0,0,1.7,1.66h5.66a1.74,1.74,0,0,0,1.72-1.76"/><path class="cls-16" d="M349.45,233.38v-8.69a1.38,1.38,0,0,1,1.37-1.39H355a1.37,1.37,0,0,1,1.36,1.39v8.69a1.38,1.38,0,0,1-1.36,1.4h-4.14a1.39,1.39,0,0,1-1.37-1.4"/><path class="cls-10" d="M283.87,234.18v-6.54a1.74,1.74,0,0,1,1.71-1.76h5.67a1.72,1.72,0,0,1,1.69,1.66h15.15v6.74H292.94a1.72,1.72,0,0,1-1.69,1.66h-5.67a1.74,1.74,0,0,1-1.71-1.76"/><path class="cls-16" d="M313.66,233.38v-8.69a1.37,1.37,0,0,0-1.36-1.39h-4.15a1.37,1.37,0,0,0-1.36,1.39v8.69a1.38,1.38,0,0,0,1.36,1.4h4.15a1.38,1.38,0,0,0,1.36-1.4"/><path class="cls-10" d="M379.25,250.11v-6.54a1.74,1.74,0,0,0-1.72-1.76h-5.66a1.72,1.72,0,0,0-1.7,1.66H355v6.74h15.15a1.72,1.72,0,0,0,1.7,1.66h5.66a1.74,1.74,0,0,0,1.72-1.76"/><path class="cls-16" d="M349.45,249.31v-8.69a1.38,1.38,0,0,1,1.37-1.39H355a1.37,1.37,0,0,1,1.36,1.39v8.69A1.37,1.37,0,0,1,355,250.7h-4.14a1.38,1.38,0,0,1-1.37-1.39"/><path class="cls-10" d="M283.87,250.11v-6.54a1.74,1.74,0,0,1,1.71-1.76h5.67a1.72,1.72,0,0,1,1.69,1.66h15.15v6.74H292.94a1.72,1.72,0,0,1-1.69,1.66h-5.67a1.74,1.74,0,0,1-1.71-1.76"/><path class="cls-16" d="M313.66,249.31v-8.69a1.37,1.37,0,0,0-1.36-1.39h-4.15a1.37,1.37,0,0,0-1.36,1.39v8.69a1.37,1.37,0,0,0,1.36,1.39h4.15a1.37,1.37,0,0,0,1.36-1.39"/><path class="cls-10" d="M379.25,267v-6.54a1.74,1.74,0,0,0-1.72-1.76h-5.66a1.72,1.72,0,0,0-1.7,1.66H355v6.73h15.15a1.72,1.72,0,0,0,1.7,1.66h5.66a1.73,1.73,0,0,0,1.72-1.75"/><path class="cls-16" d="M349.45,266.19V257.5a1.38,1.38,0,0,1,1.37-1.39H355a1.37,1.37,0,0,1,1.36,1.39v8.69a1.37,1.37,0,0,1-1.36,1.39h-4.14a1.38,1.38,0,0,1-1.37-1.39"/><path class="cls-10" d="M283.87,267v-6.54a1.74,1.74,0,0,1,1.71-1.76h5.67a1.72,1.72,0,0,1,1.69,1.66h15.15v6.73H292.94a1.71,1.71,0,0,1-1.69,1.66h-5.67a1.73,1.73,0,0,1-1.71-1.75"/><path class="cls-16" d="M313.66,266.19V257.5a1.37,1.37,0,0,0-1.36-1.39h-4.15a1.37,1.37,0,0,0-1.36,1.39v8.69a1.37,1.37,0,0,0,1.36,1.39h4.15a1.37,1.37,0,0,0,1.36-1.39"/><path class="cls-10" d="M379.25,283.49V277a1.74,1.74,0,0,0-1.72-1.76h-5.66a1.72,1.72,0,0,0-1.7,1.66H355v6.73h15.15a1.72,1.72,0,0,0,1.7,1.66h5.66a1.73,1.73,0,0,0,1.72-1.75"/><path class="cls-16" d="M349.45,282.69V274a1.38,1.38,0,0,1,1.37-1.39H355a1.37,1.37,0,0,1,1.36,1.39v8.69a1.37,1.37,0,0,1-1.36,1.39h-4.14a1.38,1.38,0,0,1-1.37-1.39"/><path class="cls-10" d="M283.87,283.49V277a1.74,1.74,0,0,1,1.71-1.76h5.67a1.72,1.72,0,0,1,1.69,1.66h15.15v6.73H292.94a1.71,1.71,0,0,1-1.69,1.66h-5.67a1.73,1.73,0,0,1-1.71-1.75"/><path class="cls-16" d="M313.66,282.69V274a1.37,1.37,0,0,0-1.36-1.39h-4.15a1.37,1.37,0,0,0-1.36,1.39v8.69a1.37,1.37,0,0,0,1.36,1.39h4.15a1.37,1.37,0,0,0,1.36-1.39"/><path class="cls-10" d="M379.25,299.56V293a1.74,1.74,0,0,0-1.72-1.76h-5.66a1.72,1.72,0,0,0-1.7,1.66H355v6.73h15.15a1.72,1.72,0,0,0,1.7,1.66h5.66a1.73,1.73,0,0,0,1.72-1.75"/><path class="cls-16" d="M349.45,298.76v-8.69a1.38,1.38,0,0,1,1.37-1.39H355a1.37,1.37,0,0,1,1.36,1.39v8.69a1.37,1.37,0,0,1-1.36,1.39h-4.14a1.38,1.38,0,0,1-1.37-1.39"/><path class="cls-10" d="M283.87,299.56V293a1.74,1.74,0,0,1,1.71-1.76h5.67a1.72,1.72,0,0,1,1.69,1.66h15.15v6.73H292.94a1.71,1.71,0,0,1-1.69,1.66h-5.67a1.73,1.73,0,0,1-1.71-1.75"/><path class="cls-16" d="M313.66,298.76v-8.69a1.37,1.37,0,0,0-1.36-1.39h-4.15a1.37,1.37,0,0,0-1.36,1.39v8.69a1.37,1.37,0,0,0,1.36,1.39h4.15a1.37,1.37,0,0,0,1.36-1.39"/><path class="cls-10" d="M379.25,315.49V309a1.74,1.74,0,0,0-1.72-1.76h-5.66a1.72,1.72,0,0,0-1.7,1.66H355v6.73h15.15a1.72,1.72,0,0,0,1.7,1.66h5.66a1.73,1.73,0,0,0,1.72-1.75"/><path class="cls-16" d="M349.45,314.69V306a1.38,1.38,0,0,1,1.37-1.39H355a1.37,1.37,0,0,1,1.36,1.39v8.69a1.37,1.37,0,0,1-1.36,1.39h-4.14a1.38,1.38,0,0,1-1.37-1.39"/><path class="cls-10" d="M283.87,315.49V309a1.74,1.74,0,0,1,1.71-1.76h5.67a1.72,1.72,0,0,1,1.69,1.66h15.15v6.73H292.94a1.71,1.71,0,0,1-1.69,1.66h-5.67a1.73,1.73,0,0,1-1.71-1.75"/><path class="cls-16" d="M313.66,314.69V306a1.37,1.37,0,0,0-1.36-1.39h-4.15a1.37,1.37,0,0,0-1.36,1.39v8.69a1.37,1.37,0,0,0,1.36,1.39h4.15a1.37,1.37,0,0,0,1.36-1.39"/><path class="cls-10" d="M379.25,331.61v-6.54a1.74,1.74,0,0,0-1.72-1.76h-5.66a1.72,1.72,0,0,0-1.7,1.66H355v6.73h15.15a1.72,1.72,0,0,0,1.7,1.66h5.66a1.73,1.73,0,0,0,1.72-1.75"/><path class="cls-16" d="M349.45,330.81v-8.69a1.38,1.38,0,0,1,1.37-1.39H355a1.37,1.37,0,0,1,1.36,1.39v8.69A1.37,1.37,0,0,1,355,332.2h-4.14a1.38,1.38,0,0,1-1.37-1.39"/><path class="cls-10" d="M283.87,331.61v-6.54a1.74,1.74,0,0,1,1.71-1.76h5.67a1.72,1.72,0,0,1,1.69,1.66h15.15v6.73H292.94a1.71,1.71,0,0,1-1.69,1.66h-5.67a1.73,1.73,0,0,1-1.71-1.75"/><path class="cls-16" d="M313.66,330.81v-8.69a1.37,1.37,0,0,0-1.36-1.39h-4.15a1.37,1.37,0,0,0-1.36,1.39v8.69a1.37,1.37,0,0,0,1.36,1.39h4.15a1.37,1.37,0,0,0,1.36-1.39"/><path class="cls-10" d="M379.25,347.92v-6.55a1.74,1.74,0,0,0-1.72-1.75h-5.66a1.72,1.72,0,0,0-1.7,1.66H355V348h15.15a1.72,1.72,0,0,0,1.7,1.66h5.66a1.74,1.74,0,0,0,1.72-1.75"/><path class="cls-16" d="M349.45,347.12v-8.69a1.38,1.38,0,0,1,1.37-1.39H355a1.37,1.37,0,0,1,1.36,1.39v8.69a1.37,1.37,0,0,1-1.36,1.39h-4.14a1.38,1.38,0,0,1-1.37-1.39"/><path class="cls-10" d="M283.87,347.92v-6.55a1.74,1.74,0,0,1,1.71-1.75h5.67a1.72,1.72,0,0,1,1.69,1.66h15.15V348H292.94a1.72,1.72,0,0,1-1.69,1.66h-5.67a1.74,1.74,0,0,1-1.71-1.75"/><path class="cls-16" d="M313.66,347.12v-8.69A1.37,1.37,0,0,0,312.3,337h-4.15a1.37,1.37,0,0,0-1.36,1.39v8.69a1.37,1.37,0,0,0,1.36,1.39h4.15a1.37,1.37,0,0,0,1.36-1.39"/><path class="cls-10" d="M379.25,364.23v-6.55a1.73,1.73,0,0,0-1.72-1.75h-5.66a1.72,1.72,0,0,0-1.7,1.66H355v6.73h15.15a1.72,1.72,0,0,0,1.7,1.66h5.66a1.74,1.74,0,0,0,1.72-1.75"/><path class="cls-16" d="M349.45,363.43v-8.69a1.39,1.39,0,0,1,1.37-1.4H355a1.38,1.38,0,0,1,1.36,1.4v8.69a1.38,1.38,0,0,1-1.36,1.39h-4.14a1.38,1.38,0,0,1-1.37-1.39"/><path class="cls-10" d="M283.87,364.23v-6.55a1.73,1.73,0,0,1,1.71-1.75h5.67a1.72,1.72,0,0,1,1.69,1.66h15.15v6.73H292.94a1.72,1.72,0,0,1-1.69,1.66h-5.67a1.74,1.74,0,0,1-1.71-1.75"/><path class="cls-16" d="M313.66,363.43v-8.69a1.38,1.38,0,0,0-1.36-1.4h-4.15a1.38,1.38,0,0,0-1.36,1.4v8.69a1.38,1.38,0,0,0,1.36,1.39h4.15a1.38,1.38,0,0,0,1.36-1.39"/><path class="cls-10" d="M379.25,380.34V373.8a1.73,1.73,0,0,0-1.72-1.75h-5.66a1.72,1.72,0,0,0-1.7,1.66H355v6.73h15.15a1.72,1.72,0,0,0,1.7,1.66h5.66a1.74,1.74,0,0,0,1.72-1.76"/><path class="cls-16" d="M349.45,379.55v-8.7a1.38,1.38,0,0,1,1.37-1.39H355a1.38,1.38,0,0,1,1.36,1.39v8.7a1.38,1.38,0,0,1-1.36,1.39h-4.14a1.38,1.38,0,0,1-1.37-1.39"/><path class="cls-10" d="M283.87,380.34V373.8a1.73,1.73,0,0,1,1.71-1.75h5.67a1.71,1.71,0,0,1,1.69,1.66h15.15v6.73H292.94a1.72,1.72,0,0,1-1.69,1.66h-5.67a1.74,1.74,0,0,1-1.71-1.76"/><path class="cls-16" d="M313.66,379.55v-8.7a1.38,1.38,0,0,0-1.36-1.39h-4.15a1.38,1.38,0,0,0-1.36,1.39v8.7a1.38,1.38,0,0,0,1.36,1.39h4.15a1.38,1.38,0,0,0,1.36-1.39"/><path class="cls-10" d="M379.25,397v-6.54a1.73,1.73,0,0,0-1.72-1.75h-5.66a1.72,1.72,0,0,0-1.7,1.66H355v6.73h15.15a1.72,1.72,0,0,0,1.7,1.66h5.66a1.74,1.74,0,0,0,1.72-1.76"/><path class="cls-16" d="M349.45,396.23v-8.69a1.38,1.38,0,0,1,1.37-1.39H355a1.37,1.37,0,0,1,1.36,1.39v8.69a1.38,1.38,0,0,1-1.36,1.4h-4.14a1.39,1.39,0,0,1-1.37-1.4"/><path class="cls-10" d="M283.87,397v-6.54a1.73,1.73,0,0,1,1.71-1.75h5.67a1.71,1.71,0,0,1,1.69,1.66h15.15v6.73H292.94a1.72,1.72,0,0,1-1.69,1.66h-5.67a1.74,1.74,0,0,1-1.71-1.76"/><path class="cls-16" d="M313.66,396.23v-8.69a1.37,1.37,0,0,0-1.36-1.39h-4.15a1.37,1.37,0,0,0-1.36,1.39v8.69a1.38,1.38,0,0,0,1.36,1.4h4.15a1.38,1.38,0,0,0,1.36-1.4"/><path class="cls-10" d="M379.25,413.35v-6.54a1.74,1.74,0,0,0-1.72-1.76h-5.66a1.72,1.72,0,0,0-1.7,1.66H355v6.73h15.15a1.72,1.72,0,0,0,1.7,1.66h5.66a1.73,1.73,0,0,0,1.72-1.75"/><path class="cls-16" d="M349.45,412.55v-8.69a1.38,1.38,0,0,1,1.37-1.39H355a1.37,1.37,0,0,1,1.36,1.39v8.69a1.37,1.37,0,0,1-1.36,1.39h-4.14a1.38,1.38,0,0,1-1.37-1.39"/><path class="cls-10" d="M283.87,413.35v-6.54a1.74,1.74,0,0,1,1.71-1.76h5.67a1.72,1.72,0,0,1,1.69,1.66h15.15v6.73H292.94a1.71,1.71,0,0,1-1.69,1.66h-5.67a1.73,1.73,0,0,1-1.71-1.75"/><path class="cls-16" d="M313.66,412.55v-8.69a1.37,1.37,0,0,0-1.36-1.39h-4.15a1.37,1.37,0,0,0-1.36,1.39v8.69a1.37,1.37,0,0,0,1.36,1.39h4.15a1.37,1.37,0,0,0,1.36-1.39"/><path class="cls-16" d="M352.89,190.75c1.9,0,3.43,2.69,3.43,6s-1.53,6-3.43,6-3.43-2.69-3.43-6,1.53-6,3.43-6"/><path class="cls-16" d="M310.81,190.75c1.89,0,3.43,2.69,3.43,6s-1.54,6-3.43,6-3.44-2.69-3.44-6,1.54-6,3.44-6"/><path class="cls-16" d="M352.89,434.24c1.9,0,3.43,2.69,3.43,6s-1.53,6-3.43,6-3.43-2.69-3.43-6,1.53-6,3.43-6"/><path class="cls-16" d="M310.81,434.24c1.89,0,3.43,2.69,3.43,6s-1.54,6-3.43,6-3.44-2.69-3.44-6,1.54-6,3.44-6"/><line class="cls-17" x1="288.07" y1="217.93" x2="288.07" y2="205.54"/><polyline class="cls-17" points="288.07 196.75 288.07 179.5 373.71 179.5 373.71 217.93"/><line class="cls-17" x1="373.71" y1="421.03" x2="373.71" y2="433.42"/><polyline class="cls-17" points="373.71 442.21 373.71 459.46 288.07 459.46 288.07 421.03"/></g><rect class="cls-1" x="11.62" y="126.4" width="388.33" height="386.86"/><path class="cls-14" d="M47,467.85c8.24,0,11.07,5.81,11.07,9.1a7.09,7.09,0,0,1-4.82,7.11v.09c4,.92,6.2,4,6.2,8.28,0,7.15-6.2,10.64-12.4,10.64-6.39,0-12.59-3.29-12.59-10.6,0-4.3,2.32-7.35,6.25-8.32v-.09c-3.22-.92-4.87-3.63-4.87-7C35.8,471,41.57,467.85,47,467.85Zm0,30a5.5,5.5,0,0,0,5.68-5.71A5.4,5.4,0,0,0,47,486.77c-3.26,0-5.87,1.88-5.87,5.36A5.64,5.64,0,0,0,47,497.89Zm0-15.72c2.79,0,5-1.55,5-4.45,0-1.74-.8-4.69-5-4.69-2.69,0-5.06,1.64-5.06,4.69C41.9,480.62,44.27,482.17,47,482.17Z"/><path class="cls-14" d="M67.5,481.54c-.24-7.74,4.07-13.69,12-13.69,6,0,11.35,4,11.35,10.6,0,10.25-10.64,11.07-15.47,18H91.06v5.9H66.74c0-7.89,4.73-11.13,10.46-15.14,2.88-2.08,7-4.11,7-8.27,0-3.24-2.08-5.23-5-5.23-4,0-5.25,4.21-5.25,7.79Z"/><path class="cls-14" d="M116.09,477.24a4.79,4.79,0,0,0-4.45-4.21c-4.83,0-6.2,6.58-6.34,10.3l.09.1a8.28,8.28,0,0,1,7.48-3.78,10.48,10.48,0,0,1,7.62,3.49,11.72,11.72,0,0,1,2.55,7.54c0,6.92-4.68,12.39-11.59,12.39-10,0-12.73-8.95-12.73-17.51,0-8.32,3.6-17.71,13-17.71,5.73,0,10,3.39,10.75,9.39Zm-10.18,13.88c0,3.14,1.94,6.29,5.35,6.29,3.22,0,5.06-3.1,5.06-6.19s-1.6-6.39-5.06-6.39S105.91,487.78,105.91,491.12Z"/><path class="cls-14" d="M148.26,502.39h-6.72v-22h-8.32v-5.18c4.68.15,8.94-1.54,9.69-6.72h5.35Z"/><path class="cls-14" d="M174.8,467.85c6.63,0,12.21,4.26,12.21,17.46,0,13.5-5.58,17.76-12.21,17.76s-12.11-4.26-12.11-17.76C162.69,472.11,168.23,467.85,174.8,467.85Zm0,29.56c5.49,0,5.49-8.27,5.49-12.1,0-3.53,0-11.8-5.49-11.8s-5.39,8.27-5.39,11.8C169.41,489.14,169.41,497.41,174.8,497.41Z"/><path class="cls-14" d="M206.79,467.85c6.62,0,12.21,4.26,12.21,17.46,0,13.5-5.59,17.76-12.21,17.76s-12.11-4.26-12.11-17.76C194.68,472.11,200.21,467.85,206.79,467.85Zm0,29.56c5.49,0,5.49-8.27,5.49-12.1,0-3.53,0-11.8-5.49-11.8s-5.4,8.27-5.4,11.8C201.39,489.14,201.39,497.41,206.79,497.41Z"/><path class="cls-14" d="M244.21,502.39h-6.72v-22h-8.32v-5.18c4.68.15,8.94-1.54,9.7-6.72h5.34Z"/><path class="cls-14" d="M260.91,467.85h7.39L282.4,491h.09V467.85h7v34.54H282L268,479.27h-.09v23.12h-7Z"/><path class="cls-18" d="M273.8,228.8a3.47,3.47,0,0,1,3.65-3.94c2,0,3.55,1.13,3.55,3.21s-1.35,2.93-2.75,3.82-2.93,1.57-3.19,2.93h5.82V236h-7.4c.21-2.62,1.58-3.61,3.18-4.55,1.92-1.18,2.9-1.84,2.9-3.4a2,2,0,0,0-2.19-2c-1.59,0-2.26,1.43-2.21,2.76Z"/><path class="cls-18" d="M264.53,408.16a3.47,3.47,0,0,1,3.65-3.94c2,0,3.55,1.13,3.55,3.21s-1.35,2.93-2.75,3.81-2.93,1.58-3.19,2.94h5.82v1.18h-7.4c.21-2.62,1.58-3.61,3.18-4.55,1.92-1.18,2.9-1.84,2.9-3.4a2,2,0,0,0-2.19-2c-1.59,0-2.26,1.43-2.21,2.76Z"/><path class="cls-18" d="M279.42,411.57H281v1.18h-1.54v2.61h-1.28v-2.61h-5v-1.28l5.16-7.25h1.09Zm-1.28,0v-5.45h0l-3.77,5.45Z"/><path class="cls-18" d="M386.17,236h-1.36v-8h-2.94V227c1.55,0,3-.39,3.27-2.09h1Z"/><path class="cls-18" d="M381.19,408a3.47,3.47,0,0,1,3.64-4c2,0,3.55,1.13,3.55,3.21s-1.34,2.94-2.75,3.82-2.93,1.57-3.18,2.94h5.82v1.17h-7.4c.2-2.62,1.58-3.61,3.18-4.55,1.92-1.18,2.89-1.84,2.89-3.4a2,2,0,0,0-2.19-2c-1.58,0-2.25,1.43-2.2,2.77Z"/><path class="cls-18" d="M392.86,408.81h.59c1.16,0,2.16-.62,2.16-1.82a1.78,1.78,0,0,0-2-1.79,2.14,2.14,0,0,0-2.14,2.42H390.1c.08-2.12,1.23-3.6,3.5-3.6,2,0,3.45.93,3.45,3a2.5,2.5,0,0,1-1.57,2.21v0a2.52,2.52,0,0,1,2,2.7c0,2.21-1.77,3.39-3.9,3.39-2.3,0-3.82-1.32-3.77-3.63h1.36a2.27,2.27,0,0,0,2.41,2.45,2.24,2.24,0,0,0,2.46-2.15,2.15,2.15,0,0,0-2.41-2.14,7.08,7.08,0,0,0-.82.05Z"/></g></svg>