<svg xmlns="http://www.w3.org/2000/svg" xmlns:xlink="http://www.w3.org/1999/xlink" viewBox="0 0 514.42 1349.28"><defs><style>.cls-1,.cls-21{fill:none;}.cls-17,.cls-18,.cls-19,.cls-2,.cls-20{isolation:isolate;}.cls-3{fill:#242424;}.cls-4{fill:#e8ba54;}.cls-5,.cls-6{fill:#896733;}.cls-5{opacity:0.51;}.cls-6{opacity:0.18;}.cls-7{fill:#e8ce90;opacity:0.32;mix-blend-mode:lighten;}.cls-8{fill:#bf8f3e;}.cls-9{fill:#fff;}.cls-10{fill:#00684d;}.cls-11{fill:#00a769;}.cls-12{fill:#d9dcdd;}.cls-13{fill:#c9cccd;}.cls-14{fill:#675f5f;}.cls-15{fill:#c19639;}.cls-16,.cls-17,.cls-20{fill:#333;}.cls-17{font-size:16.87px;}.cls-17,.cls-19{font-family:HelveticaNeueLTPro-Lt, Helvetica Neue LT Pro;}.cls-18{font-size:23.88px;font-family:HelveticaNeueLTPro-Roman, Helvetica Neue LT Pro;}.cls-19{font-size:16.75px;}.cls-20{font-size:27.79px;font-family:HelveticaNeueLTPro-Ex, Helvetica Neue LT Pro;}.cls-21{stroke:#333;stroke-miterlimit:10;stroke-width:4px;}.cls-22{clip-path:url(#clip-path);}.cls-23{clip-path:url(#clip-path-2);}.cls-24{fill:#e5e5e5;}.cls-25{fill:#232323;}.cls-26{clip-path:url(#clip-path-3);}.cls-27{clip-path:url(#clip-path-4);}.cls-28{clip-path:url(#clip-path-5);}.cls-29{clip-path:url(#clip-path-6);}.cls-30{clip-path:url(#clip-path-7);}.cls-31{clip-path:url(#clip-path-8);}.cls-32{clip-path:url(#clip-path-9);}.cls-33{clip-path:url(#clip-path-10);}.cls-34{clip-path:url(#clip-path-11);}.cls-35{clip-path:url(#clip-path-12);}.cls-36{clip-path:url(#clip-path-13);}.cls-37{clip-path:url(#clip-path-14);}.cls-38{clip-path:url(#clip-path-15);}.cls-39{clip-path:url(#clip-path-16);}.cls-40{fill:#d1d5d2;}.cls-41{fill:#a5a8a6;}.cls-42{fill:#353b3d;}.cls-43{fill:#40484a;}.cls-44{clip-path:url(#clip-path-17);}.cls-45{clip-path:url(#clip-path-18);}.cls-46{fill:#b9752b;}.cls-47{clip-path:url(#clip-path-19);}.cls-48{clip-path:url(#clip-path-20);}.cls-49{clip-path:url(#clip-path-21);}.cls-50{clip-path:url(#clip-path-22);}.cls-51{clip-path:url(#clip-path-23);}.cls-52{clip-path:url(#clip-path-24);}.cls-53{clip-path:url(#clip-path-25);}.cls-54{clip-path:url(#clip-path-26);}.cls-55{fill:#c3bfb6;}.cls-56{fill:#f4f4ee;}.cls-57{fill:#c9c7bc;}.cls-58{fill:#ded2c8;}.cls-59{fill:#e9e8dd;}.cls-60{fill:#6f737b;}.cls-61{fill:#7e7f74;}.cls-62{fill:#8a9fa1;}</style><clipPath id="clip-path"><rect class="cls-1" x="192.2" y="262.84" width="17.52" height="39.59"/></clipPath><clipPath id="clip-path-2"><rect class="cls-1" x="192.2" y="262.84" width="17.52" height="39.59"/></clipPath><clipPath id="clip-path-3"><rect class="cls-1" x="154.5" y="262.84" width="17.52" height="39.59"/></clipPath><clipPath id="clip-path-4"><rect class="cls-1" x="154.5" y="262.84" width="17.52" height="39.59"/></clipPath><clipPath id="clip-path-5"><rect class="cls-1" x="138.86" y="883.99" width="20.64" height="49.47"/></clipPath><clipPath id="clip-path-6"><rect class="cls-1" x="138.86" y="883.99" width="20.64" height="49.47"/></clipPath><clipPath id="clip-path-7"><rect class="cls-1" x="171.64" y="883.99" width="20.64" height="49.47"/></clipPath><clipPath id="clip-path-8"><rect class="cls-1" x="171.64" y="883.99" width="20.64" height="49.47"/></clipPath><clipPath id="clip-path-9"><rect class="cls-1" x="208.55" y="883.99" width="20.64" height="49.47"/></clipPath><clipPath id="clip-path-10"><rect class="cls-1" x="208.55" y="883.99" width="20.64" height="49.47"/></clipPath><clipPath id="clip-path-11"><rect class="cls-1" x="242.24" y="883.99" width="20.64" height="49.47"/></clipPath><clipPath id="clip-path-12"><rect class="cls-1" x="242.24" y="883.99" width="20.64" height="49.47"/></clipPath><clipPath id="clip-path-13"><rect class="cls-1" x="386.71" y="1125.7" width="37.36" height="17.09"/></clipPath><clipPath id="clip-path-14"><rect class="cls-1" x="386.71" y="1125.7" width="37.36" height="17.09"/></clipPath><clipPath id="clip-path-15"><rect class="cls-1" x="392.11" y="1255.13" width="17.09" height="37.36"/></clipPath><clipPath id="clip-path-16"><rect class="cls-1" x="392.11" y="1255.13" width="17.09" height="37.36"/></clipPath><clipPath id="clip-path-17"><rect class="cls-1" x="277.8" y="885.56" width="18.03" height="48.91"/></clipPath><clipPath id="clip-path-18"><rect class="cls-1" x="277.8" y="885.56" width="18.03" height="48.9"/></clipPath><clipPath id="clip-path-19"><rect class="cls-1" x="369" y="992.85" width="43.52" height="18.61"/></clipPath><clipPath id="clip-path-20"><rect class="cls-1" x="369" y="992.86" width="43.52" height="18.61"/></clipPath><clipPath id="clip-path-21"><rect class="cls-1" x="385" y="1157.52" width="43.52" height="18.61"/></clipPath><clipPath id="clip-path-22"><rect class="cls-1" x="385" y="1157.52" width="43.52" height="18.61"/></clipPath><clipPath id="clip-path-23"><rect class="cls-1" x="342.88" y="314.96" width="16.12" height="43.52"/></clipPath><clipPath id="clip-path-24"><rect class="cls-1" x="342.89" y="314.96" width="16.12" height="43.52"/></clipPath><clipPath id="clip-path-25"><rect class="cls-1" x="139" y="951.76" width="22.81" height="61.85"/></clipPath><clipPath id="clip-path-26"><rect class="cls-1" x="139" y="951.76" width="22.8" height="61.84"/></clipPath></defs><g class="cls-2"><g id="Layer_2" data-name="Layer 2"><g id="Layer_1-2" data-name="Layer 1"><path class="cls-3" d="M514.42,1273.31V257.49a51.13,51.13,0,0,0-51.13-51.12h-406A51.12,51.12,0,0,0,6.21,257.49V1273.31a51.12,51.12,0,0,0,51.12,51.12h406A51.13,51.13,0,0,0,514.42,1273.31ZM23,259.81A26.22,26.22,0,1,1,49.24,286,26.21,26.21,0,0,1,23,259.81Zm425.58,1a26.62,26.62,0,1,1,26.62,26.62A26.62,26.62,0,0,1,448.61,260.82ZM31.64,1269a28.44,28.44,0,1,1,28.43,28.44A28.43,28.43,0,0,1,31.64,1269Zm400,0a29,29,0,1,1,29,29A29,29,0,0,1,431.65,1269Z"/><rect class="cls-4" x="221.85" y="229.09" width="84.07" height="26.32" transform="translate(21.64 506.13) rotate(-90)"/><rect class="cls-4" x="366.9" y="229.09" width="84.07" height="26.32" transform="translate(166.69 651.18) rotate(-90)"/><rect class="cls-4" x="294.3" y="227.36" width="84.07" height="19.36" rx="1.51" transform="translate(99.29 573.38) rotate(-90)"/><rect class="cls-4" x="319.72" y="103.48" width="32.93" height="170.93" transform="translate(147.25 525.13) rotate(-90)"/><rect class="cls-4" x="243.02" y="38.14" width="188.94" height="112.67" rx="5.25" transform="translate(243.02 431.96) rotate(-90)"/><rect class="cls-4" x="332.4" y="46.15" width="10.4" height="130.01" rx="1.57" transform="translate(226.44 448.75) rotate(-90)"/><rect class="cls-4" x="332.4" y="33.15" width="10.4" height="130.01" rx="1.57" transform="translate(239.44 435.75) rotate(-90)"/><rect class="cls-4" x="332.4" y="20.15" width="10.4" height="130.01" rx="1.57" transform="translate(252.44 422.75) rotate(-90)"/><rect class="cls-4" x="332.4" y="7.15" width="10.4" height="130.01" rx="1.57" transform="translate(265.44 409.75) rotate(-90)"/><rect class="cls-4" x="332.4" y="-5.85" width="10.4" height="130.01" rx="1.57" transform="translate(278.44 396.75) rotate(-90)"/><rect class="cls-4" x="332.4" y="-18.85" width="10.4" height="130.01" rx="1.57" transform="translate(291.45 383.75) rotate(-90)"/><rect class="cls-4" x="332.4" y="-31.85" width="10.4" height="130.01" rx="1.57" transform="translate(304.45 370.75) rotate(-90)"/><rect class="cls-5" x="281.33" y="25.35" width="112.63" height="2.6" rx="0.36"/><rect class="cls-5" x="281.33" y="38.35" width="112.63" height="2.6" rx="0.36"/><rect class="cls-5" x="281.33" y="51.35" width="112.63" height="2.6" rx="0.36"/><rect class="cls-5" x="281.33" y="64.35" width="112.63" height="2.6" rx="0.36"/><rect class="cls-5" x="281.33" y="77.35" width="112.63" height="2.6" rx="0.36"/><rect class="cls-5" x="281.33" y="90.35" width="112.63" height="2.6" rx="0.36"/><rect class="cls-5" x="281.33" y="103.35" width="112.63" height="2.6" rx="0.36"/><rect class="cls-5" x="281.33" y="116.36" width="112.63" height="2.6" rx="0.36"/><rect class="cls-6" x="327.69" width="17.99" height="172.47"/><rect class="cls-7" x="345.67" width="17.99" height="172.47"/><rect class="cls-7" x="308.45" width="17.99" height="172.47"/><path class="cls-8" d="M494.72,360.06A17.73,17.73,0,1,1,477,341.9,17.95,17.95,0,0,1,494.72,360.06ZM477,373.33a13.29,13.29,0,1,0-13-13.27A13.11,13.11,0,0,0,477,373.33Z"/><path class="cls-9" d="M490,360.06a13,13,0,1,1-13-13.3A13.11,13.11,0,0,1,490,360.06Z"/><path class="cls-8" d="M479.8,1207.37a16.11,16.11,0,0,1-2.8.25,16.31,16.31,0,0,1-2.81-.25H459.53v-15a17.13,17.13,0,0,1-.25-2.88,16.84,16.84,0,0,1,.25-2.87v-15.27h35.19v36Zm-2.8-4.61a13.29,13.29,0,1,0-13-13.29A13.13,13.13,0,0,0,477,1202.76Z"/><path class="cls-9" d="M490,1189.47a13,13,0,1,1-13-13.28A13.13,13.13,0,0,1,490,1189.47Z"/><path class="cls-8" d="M494.72,1134.38A17.73,17.73,0,1,1,477,1116.22,17.95,17.95,0,0,1,494.72,1134.38ZM477,1147.67a13.3,13.3,0,1,0-13-13.29A13.13,13.13,0,0,0,477,1147.67Z"/><path class="cls-9" d="M490,1134.38a13,13,0,1,1-13-13.3A13.13,13.13,0,0,1,490,1134.38Z"/><path class="cls-8" d="M494.72,1079.07A17.73,17.73,0,1,1,477,1060.91,17.95,17.95,0,0,1,494.72,1079.07ZM477,1092.36a13.3,13.3,0,1,0-13-13.29A13.13,13.13,0,0,0,477,1092.36Z"/><path class="cls-9" d="M490,1079.07a13,13,0,1,1-13-13.3A13.13,13.13,0,0,1,490,1079.07Z"/><path class="cls-8" d="M494.72,1023.76A17.73,17.73,0,1,1,477,1005.6,17.95,17.95,0,0,1,494.72,1023.76ZM477,1037.05a13.3,13.3,0,1,0-13-13.29A13.13,13.13,0,0,0,477,1037.05Z"/><path class="cls-9" d="M490,1023.76a13,13,0,1,1-13-13.3A13.13,13.13,0,0,1,490,1023.76Z"/><path class="cls-8" d="M41.5,987.15a18.58,18.58,0,0,1-2.81.25,18.45,18.45,0,0,1-2.8-.25H21.23v-15a17.34,17.34,0,0,1,0-5.75V951.09H56.4v36.06Zm-2.81-4.63a13.29,13.29,0,1,0-13-13.28A13.13,13.13,0,0,0,38.69,982.52Z"/><path class="cls-8" d="M494.72,968.45A17.73,17.73,0,1,1,477,950.29,17.95,17.95,0,0,1,494.72,968.45ZM477,981.74a13.3,13.3,0,1,0-13-13.29A13.13,13.13,0,0,0,477,981.74Z"/><path class="cls-9" d="M51.66,969.24a13,13,0,1,1-13-13.29A13.13,13.13,0,0,1,51.66,969.24Z"/><path class="cls-9" d="M490,968.45a13,13,0,1,1-13-13.3A13.13,13.13,0,0,1,490,968.45Z"/><path class="cls-8" d="M494.72,913.14A17.73,17.73,0,1,1,477,895,17.95,17.95,0,0,1,494.72,913.14ZM477,926.43a13.3,13.3,0,1,0-13-13.29A13.13,13.13,0,0,0,477,926.43Z"/><path class="cls-8" d="M56.4,912.11a17.92,17.92,0,0,1-17.71,18.14,18.16,18.16,0,0,1,0-36.3A17.93,17.93,0,0,1,56.4,912.11ZM38.69,925.39a13.29,13.29,0,1,0-13-13.28A13.13,13.13,0,0,0,38.69,925.39Z"/><path class="cls-9" d="M490,913.14a13,13,0,1,1-13-13.3A13.13,13.13,0,0,1,490,913.14Z"/><path class="cls-9" d="M51.66,912.11a13,13,0,1,1-13-13.3A13.13,13.13,0,0,1,51.66,912.11Z"/><path class="cls-8" d="M494.72,857.83A17.73,17.73,0,1,1,477,839.67,17.95,17.95,0,0,1,494.72,857.83ZM477,871.12a13.3,13.3,0,1,0-13-13.29A13.13,13.13,0,0,0,477,871.12Z"/><path class="cls-8" d="M56.4,856.92a17.94,17.94,0,0,1-17.71,18.16,18.16,18.16,0,0,1,0-36.31A17.93,17.93,0,0,1,56.4,856.92Zm-17.71,13.3a13.3,13.3,0,1,0-13-13.3A13.14,13.14,0,0,0,38.69,870.22Z"/><path class="cls-9" d="M490,857.83a13,13,0,1,1-13-13.3A13.13,13.13,0,0,1,490,857.83Z"/><path class="cls-9" d="M51.66,856.92a13,13,0,1,1-13-13.29A13.14,13.14,0,0,1,51.66,856.92Z"/><path class="cls-8" d="M261.64,840.25a15.81,15.81,0,0,1-5.6,0H241.37v-15a16.71,16.71,0,0,1,0-5.76V804.19h35.19v36.06Zm-2.8-4.62a13.29,13.29,0,1,0-13-13.29A13.13,13.13,0,0,0,258.84,835.63Z"/><path class="cls-8" d="M221.81,822.34a17.72,17.72,0,1,1-17.72-18.15A18,18,0,0,1,221.81,822.34Zm-17.72,13.29a13.29,13.29,0,1,0-13-13.29A13.14,13.14,0,0,0,204.09,835.63Z"/><path class="cls-8" d="M167.06,822.34a17.72,17.72,0,1,1-17.71-18.15A17.95,17.95,0,0,1,167.06,822.34Zm-17.71,13.29a13.29,13.29,0,1,0-13-13.29A13.13,13.13,0,0,0,149.35,835.63Z"/><path class="cls-8" d="M112.32,822.34A17.72,17.72,0,1,1,94.6,804.19,18,18,0,0,1,112.32,822.34ZM94.6,835.63a13.29,13.29,0,1,0-13-13.29A13.13,13.13,0,0,0,94.6,835.63Z"/><ellipse class="cls-9" cx="258.84" cy="822.34" rx="12.97" ry="13.29"/><ellipse class="cls-9" cx="204.09" cy="822.34" rx="12.97" ry="13.29"/><ellipse class="cls-9" cx="149.35" cy="822.34" rx="12.97" ry="13.29"/><ellipse class="cls-9" cx="94.6" cy="822.34" rx="12.97" ry="13.29"/><path class="cls-8" d="M494.72,802.52A17.73,17.73,0,1,1,477,784.36,17.95,17.95,0,0,1,494.72,802.52ZM477,815.81a13.3,13.3,0,1,0-13-13.29A13.13,13.13,0,0,0,477,815.81Z"/><path class="cls-8" d="M56.4,801.75a17.94,17.94,0,0,1-17.71,18.16,18.16,18.16,0,0,1,0-36.31A17.92,17.92,0,0,1,56.4,801.75ZM38.69,815a13.29,13.29,0,1,0-13-13.28A13.13,13.13,0,0,0,38.69,815Z"/><path class="cls-9" d="M490,802.52a13,13,0,1,1-13-13.3A13.13,13.13,0,0,1,490,802.52Z"/><path class="cls-9" d="M51.66,801.75a13,13,0,1,1-13-13.29A13.13,13.13,0,0,1,51.66,801.75Z"/><path class="cls-8" d="M494.72,747.21A17.73,17.73,0,1,1,477,729.05,17.94,17.94,0,0,1,494.72,747.21ZM477,760.5a13.3,13.3,0,1,0-13-13.29A13.13,13.13,0,0,0,477,760.5Z"/><path class="cls-8" d="M56.4,746.57a17.92,17.92,0,0,1-17.71,18.15,18.16,18.16,0,0,1,0-36.31A17.94,17.94,0,0,1,56.4,746.57ZM38.69,759.86a13.29,13.29,0,1,0-13-13.29A13.13,13.13,0,0,0,38.69,759.86Z"/><path class="cls-9" d="M490,747.21a13,13,0,1,1-13-13.3A13.13,13.13,0,0,1,490,747.21Z"/><path class="cls-9" d="M51.66,746.57a13,13,0,1,1-13-13.28A13.13,13.13,0,0,1,51.66,746.57Z"/><path class="cls-8" d="M494.72,691.9A17.73,17.73,0,1,1,477,673.74,17.94,17.94,0,0,1,494.72,691.9ZM477,705.19a13.29,13.29,0,1,0-13-13.29A13.13,13.13,0,0,0,477,705.19Z"/><path class="cls-8" d="M56.4,691.4a17.94,17.94,0,0,1-17.71,18.16,18.17,18.17,0,0,1,0-36.32A17.94,17.94,0,0,1,56.4,691.4ZM38.69,704.69a13.29,13.29,0,1,0-13-13.29A13.13,13.13,0,0,0,38.69,704.69Z"/><path class="cls-9" d="M490,691.9a13,13,0,1,1-13-13.28A13.13,13.13,0,0,1,490,691.9Z"/><path class="cls-9" d="M51.66,691.4a13,13,0,1,1-13-13.29A13.13,13.13,0,0,1,51.66,691.4Z"/><path class="cls-8" d="M494.72,636.59A17.73,17.73,0,1,1,477,618.43,17.93,17.93,0,0,1,494.72,636.59ZM477,649.88a13.29,13.29,0,1,0-13-13.29A13.13,13.13,0,0,0,477,649.88Z"/><path class="cls-8" d="M56.4,636.21a17.93,17.93,0,0,1-17.71,18.16,18.16,18.16,0,0,1,0-36.3A17.92,17.92,0,0,1,56.4,636.21Zm-17.71,13.3a13.29,13.29,0,1,0-13-13.3A13.14,13.14,0,0,0,38.69,649.51Z"/><path class="cls-9" d="M490,636.59a13,13,0,1,1-13-13.28A13.13,13.13,0,0,1,490,636.59Z"/><path class="cls-9" d="M51.66,636.21a13,13,0,1,1-13-13.27A13.14,13.14,0,0,1,51.66,636.21Z"/><path class="cls-8" d="M494.72,581.28A17.72,17.72,0,1,1,477,563.14,17.94,17.94,0,0,1,494.72,581.28ZM477,594.57a13.29,13.29,0,1,0-13-13.29A13.13,13.13,0,0,0,477,594.57Z"/><path class="cls-8" d="M56.4,581.05A17.93,17.93,0,0,1,38.69,599.2a18.16,18.16,0,0,1,0-36.31A17.93,17.93,0,0,1,56.4,581.05ZM38.69,594.34a13.3,13.3,0,1,0-13-13.29A13.13,13.13,0,0,0,38.69,594.34Z"/><path class="cls-9" d="M490,581.28A13,13,0,1,1,477,568,13.13,13.13,0,0,1,490,581.28Z"/><path class="cls-9" d="M51.66,581.05a13,13,0,1,1-13-13.3A13.13,13.13,0,0,1,51.66,581.05Z"/><path class="cls-8" d="M494.72,526A17.73,17.73,0,1,1,477,507.83,17.94,17.94,0,0,1,494.72,526ZM477,539.26A13.29,13.29,0,1,0,464,526,13.11,13.11,0,0,0,477,539.26Z"/><path class="cls-8" d="M56.4,525.88A17.92,17.92,0,0,1,38.69,544a18.16,18.16,0,0,1,0-36.3A17.93,17.93,0,0,1,56.4,525.88ZM38.69,539.15a13.29,13.29,0,1,0-13-13.27A13.12,13.12,0,0,0,38.69,539.15Z"/><path class="cls-9" d="M490,526a13,13,0,1,1-13-13.3A13.11,13.11,0,0,1,490,526Z"/><path class="cls-9" d="M51.66,525.88a13,13,0,1,1-13-13.3A13.12,13.12,0,0,1,51.66,525.88Z"/><path class="cls-8" d="M56.4,470.69a17.94,17.94,0,0,1-17.71,18.16,18.16,18.16,0,0,1,0-36.31A17.93,17.93,0,0,1,56.4,470.69ZM38.69,484a13.29,13.29,0,1,0-13-13.29A13.13,13.13,0,0,0,38.69,484Z"/><path class="cls-8" d="M494.72,470.68A17.73,17.73,0,1,1,477,452.52,17.94,17.94,0,0,1,494.72,470.68ZM477,484a13.29,13.29,0,1,0-13-13.27A13.11,13.11,0,0,0,477,484Z"/><path class="cls-9" d="M51.66,470.69a13,13,0,1,1-13-13.29A13.13,13.13,0,0,1,51.66,470.69Z"/><path class="cls-9" d="M490,470.68a13,13,0,1,1-13-13.3A13.11,13.11,0,0,1,490,470.68Z"/><path class="cls-8" d="M56.4,415.52a17.94,17.94,0,0,1-17.71,18.16,18.16,18.16,0,0,1,0-36.31A17.92,17.92,0,0,1,56.4,415.52Zm-17.71,13.3a13.3,13.3,0,1,0-13-13.3A13.14,13.14,0,0,0,38.69,428.82Z"/><path class="cls-8" d="M494.72,415.37A17.73,17.73,0,1,1,477,397.21,17.95,17.95,0,0,1,494.72,415.37ZM477,428.64a13.29,13.29,0,1,0-13-13.27A13.11,13.11,0,0,0,477,428.64Z"/><path class="cls-9" d="M51.66,415.52a13,13,0,1,1-13-13.29A13.14,13.14,0,0,1,51.66,415.52Z"/><path class="cls-9" d="M490,415.37a13,13,0,1,1-13-13.3A13.11,13.11,0,0,1,490,415.37Z"/><path class="cls-8" d="M56.4,360.34a17.92,17.92,0,0,1-17.71,18.15,18.16,18.16,0,0,1,0-36.31A17.94,17.94,0,0,1,56.4,360.34ZM38.69,373.63a13.29,13.29,0,1,0-13-13.29A13.13,13.13,0,0,0,38.69,373.63Z"/><path class="cls-9" d="M51.66,360.34a13,13,0,1,1-13-13.28A13.13,13.13,0,0,1,51.66,360.34Z"/><path class="cls-8" d="M96.13,1269a36.06,36.06,0,1,0-36.06,36.06A36.05,36.05,0,0,0,96.13,1269Zm-64.49,0a28.44,28.44,0,1,1,28.43,28.44A28.43,28.43,0,0,1,31.64,1269Z"/><path class="cls-8" d="M497.24,1269a36.06,36.06,0,1,0-36.06,36.06A36.06,36.06,0,0,0,497.24,1269Zm-64.49,0a28.44,28.44,0,1,1,28.43,28.44A28.43,28.43,0,0,1,432.75,1269Z"/><polygon class="cls-10" points="432.59 743.02 432.59 421.11 414.25 402.88 92.67 402.88 92.67 743.02 432.59 743.02"/><polygon class="cls-11" points="146.91 739.34 146.91 726.03 211.2 726.03 211.2 730.95 399.05 730.95 399.05 739.34 429.8 739.34 429.8 425.13 411.68 407.13 291.15 407.13 291.15 410.94 126.78 410.94 126.78 407.13 97.48 407.13 97.48 739.34 146.91 739.34"/><rect class="cls-12" x="109.67" y="420.01" width="303.35" height="303.35"/><path class="cls-13" d="M122.31,425.14H400.5a7.49,7.49,0,0,1,7.49,7.49V710.82a7.49,7.49,0,0,1-7.49,7.49H122.31a7.49,7.49,0,0,1-7.5-7.49V432.63A7.49,7.49,0,0,1,122.31,425.14Z"/><path class="cls-14" d="M127.56,426.59H397.48a7.25,7.25,0,0,1,7.27,7.27v272a7.25,7.25,0,0,1-7.27,7.27H127.56a7.26,7.26,0,0,1-7.27-7.27v-272A7.41,7.41,0,0,1,127.56,426.59Z"/><path class="cls-9" d="M148.25,430.39h232a24.48,24.48,0,0,1,24.49,24.49V681.53A24.48,24.48,0,0,1,380.26,706h-232a24.48,24.48,0,0,1-24.49-24.48V454.88A24.48,24.48,0,0,1,148.25,430.39Z"/><path class="cls-15" d="M133.82,398a6,6,0,0,0,11.86,0h6v10.85h-24.6V398Z"/><path class="cls-15" d="M86.86,554.73a6,6,0,0,1,0,11.85v6H97.71V548H86.86Z"/><path class="cls-15" d="M86.86,527.11a6,6,0,0,1,0,11.85v6H97.71V520.4H86.86Z"/><path class="cls-15" d="M86.86,499.49a6,6,0,0,1,0,11.85v6H97.71v-24.6H86.86Z"/><path class="cls-15" d="M86.86,471.76a6,6,0,0,1,0,11.85v6H97.71v-24.6H86.86Z"/><path class="cls-16" d="M353.65,481a3.71,3.71,0,0,1-2,.45c-.9,0-3.47.11-4.36.11,0,.67.11,2,.11,2.91s0,3.13.11,6.82v.22a3.36,3.36,0,0,0,3.24,3.58c2.46.23,3.13-1.12,3.13-1.23a13.24,13.24,0,0,0,1-5.37v-.89A32.8,32.8,0,0,0,353.65,481Z"/><path class="cls-16" d="M356.11,476.91a5.63,5.63,0,0,1-.33,1.78,6.16,6.16,0,0,1-1.12,1.79A33.6,33.6,0,0,1,356,487.3v1.35a15,15,0,0,1-.67,4.8,2.63,2.63,0,0,0,.78.79,3.81,3.81,0,0,0,1.9.89,4.17,4.17,0,0,0,2.91-.45c.78-.44,1.23-1.56,1.23-3.35v-1.9a15.81,15.81,0,0,0-1.12-5.82C360,480.82,357.34,478,356.11,476.91Z"/><path class="cls-16" d="M356.22,469a6.89,6.89,0,0,1-.44,2.46,6.09,6.09,0,0,1-1.46,1.79,2,2,0,0,1,.78.67,3.33,3.33,0,0,1,.79,1.34c.22.22,1.67,1.45,2.9,2.79a18.94,18.94,0,0,1,4,7.05,16,16,0,0,1,.67,5c0,1.34-.11,2.35-.11,2.68a4.62,4.62,0,0,0,3.35,2c2.69,0,3.36-1.12,3.58-5.48.22-4.7-1.68-9.84-5-14.09-2.91-3.69-7.6-5.7-9.06-6.26Z"/><path class="cls-16" d="M346.27,487.64c-.67,0-2,.11-2.91.11s-4.47.11-6.26.11h-.78a3.37,3.37,0,0,0-3.58,3.25v.56a2.66,2.66,0,0,0,1.23,2.57,13.18,13.18,0,0,0,6.26.89,32.8,32.8,0,0,0,6.6-1.23,3.77,3.77,0,0,1-.45-2C346.38,491.55,346.38,490.44,346.27,487.64Z"/><path class="cls-16" d="M334.42,495.69a2.61,2.61,0,0,0-.78.78,3.74,3.74,0,0,0-.9,1.9,3.17,3.17,0,0,0-.11,1,3.9,3.9,0,0,0,.45,1.9c.44.78,1.56,1.23,3.35,1.23h.78a19.39,19.39,0,0,0,7.05-1,21.27,21.27,0,0,0,6.93-4.91,6.28,6.28,0,0,1-1.79-.34,4.48,4.48,0,0,1-1.79-1.12,34.5,34.5,0,0,1-6.82,1.34A19.45,19.45,0,0,1,334.42,495.69Z"/><path class="cls-16" d="M335.2,503.63a4.53,4.53,0,0,0-2,3.35c0,2.8,1.12,3.47,5.48,3.69a21.19,21.19,0,0,0,14.09-5,23.13,23.13,0,0,0,6.15-8.94,6.67,6.67,0,0,1-2.46-.45,4.84,4.84,0,0,1-1.79-1.45,2.12,2.12,0,0,1-.67.78,3.38,3.38,0,0,1-1.35.78c-.33.34-1.56,1.68-2.79,2.91a18.92,18.92,0,0,1-7.05,4A23.06,23.06,0,0,1,335.2,503.63Z"/><path class="cls-16" d="M340.34,486.63c0-.67-.11-2-.11-2.9,0-1.12-.11-4.81-.11-6.71v-.34a3.37,3.37,0,0,0-3.24-3.58c-2.57-.22-3.13,1.23-3.13,1.23a13.84,13.84,0,0,0-.9,6.27,34.16,34.16,0,0,0,1.23,6.59,3.86,3.86,0,0,1,2-.44c.78,0,3-.12,4.13-.12Z"/><path class="cls-16" d="M332.29,474.89a2.49,2.49,0,0,0-.78-.78,3.73,3.73,0,0,0-1.9-.89,4.16,4.16,0,0,0-2.91.44c-.78.45-1.23,1.57-1.23,3.36v1.9a16,16,0,0,0,1.12,5.81,21.34,21.34,0,0,0,4.92,6.94,5.4,5.4,0,0,1,.34-1.79,4.22,4.22,0,0,1,1.12-1.79,33.38,33.38,0,0,1-1.35-6.82v-1.35A15.12,15.12,0,0,1,332.29,474.89Z"/><path class="cls-16" d="M324.24,475.56a4.65,4.65,0,0,0-3.35-2c-2.68,0-3.36,1.12-3.58,5.48-.22,4.7,1.68,9.84,5,14.09a23,23,0,0,0,9,6.15h0a6.67,6.67,0,0,1,.45-2.46,4.81,4.81,0,0,1,1.45-1.79,4.23,4.23,0,0,1-.78-.67,3.59,3.59,0,0,1-.79-1.34,29.71,29.71,0,0,1-2.9-2.8,19.12,19.12,0,0,1-4-7,16,16,0,0,1-.67-5C324.13,476.91,324.24,475.9,324.24,475.56Z"/><path class="cls-16" d="M354.77,476.57a2.66,2.66,0,0,0-1.23-2.57,13.13,13.13,0,0,0-6.26-.9,34.28,34.28,0,0,0-6.6,1.23,3.84,3.84,0,0,1,.45,2c0,.44,0,1.45.11,4.36.56,0,2-.11,2.91-.11s3.13,0,6.82-.12h.22a3.36,3.36,0,0,0,3.58-3.24Z"/><path class="cls-16" d="M355,469.08a4,4,0,0,0-.44-1.9c-.45-.78-1.57-1.23-3.36-1.23h-.78a19.81,19.81,0,0,0-7.05,1,21.28,21.28,0,0,0-6.93,4.92,6.28,6.28,0,0,1,1.79.34,4.33,4.33,0,0,1,1.79,1.12,32.74,32.74,0,0,1,6.82-1.34,16.3,16.3,0,0,1,6.15.67,2.66,2.66,0,0,0,.78-.79,3.71,3.71,0,0,0,.9-1.9A1,1,0,0,0,355,469.08Z"/><path class="cls-16" d="M354.32,461.36c0-2.68-1.12-3.35-5.48-3.57a21.19,21.19,0,0,0-14.09,5,23.06,23.06,0,0,0-6.15,8.94,5,5,0,0,1,2.46.45,4.75,4.75,0,0,1,1.79,1.45,4.65,4.65,0,0,1,.67-.78,3.38,3.38,0,0,1,1.35-.78,27.93,27.93,0,0,1,2.79-2.91,18.92,18.92,0,0,1,7-4c3-1,7-.56,7.71-.56a4.36,4.36,0,0,0,1.9-3.25Z"/><path class="cls-16" d="M365.5,545.22a12.12,12.12,0,0,1-.89,4.7,10,10,0,0,1-2.35,3.58,10.34,10.34,0,0,1-7.6,3.13,11.17,11.17,0,0,1-5.93-1.45,9.51,9.51,0,0,1-3.8-4.7h-.11a7.13,7.13,0,0,1-1.34,2.57,8,8,0,0,1-2.13,1.68,9.69,9.69,0,0,1-2.68,1c-1,.22-2,.33-2.91.44-.67,0-1.34.11-2.24.11a22.43,22.43,0,0,0-2.57.23,15.34,15.34,0,0,0-2.46.45,5.43,5.43,0,0,0-2,.89v-8.61a15.62,15.62,0,0,1,4.47-.89c1.79-.12,3.36-.23,4.92-.45,2-.34,3.58-.9,4.47-1.9a6.71,6.71,0,0,0,1.46-4.7V532.7H326.48v-8.5h39Zm-17.66-3a6.46,6.46,0,0,0,1.34,4.47,5.47,5.47,0,0,0,4.25,1.45,5.18,5.18,0,0,0,4.13-1.45c.9-1,1.23-2.46,1.23-4.47v-9.4h-11Z"/><path class="cls-16" d="M365.5,582.24l-39,14.64v-8.94L335.2,585V570.38l-8.72-3v-8.61l39,14.65Zm-23.93.44,14.32-4.92v-.11l-14.32-5.14Z"/><path class="cls-16" d="M365.5,607.17H349.29l16.21,15.32v10.73L350.07,617.9l-23.59,16.78V623.94L344,612.2l-5-4.92H326.37v-8.61H365.5Z"/><text class="cls-17" transform="translate(310.44 524.16) rotate(90)">IoT Made Easy</text><g class="cls-2"><text class="cls-18" transform="translate(200.63 537.09) rotate(90)">DevEUI:</text><text class="cls-19" transform="translate(172.01 537.09) rotate(90)">60C5A8FFFE7892A0</text><text class="cls-2"/></g><text class="cls-20" transform="translate(277.73 460.85) rotate(90)">RAK4260 (H)</text><path class="cls-15" d="M379,745.6a6,6,0,0,1,11.86,0h6V734.75h-24.6V745.6Z"/><path class="cls-15" d="M351.41,745.6a6,6,0,0,1,11.86,0h6V734.75H344.71V745.6Z"/><path class="cls-15" d="M323.68,745.6a6,6,0,0,1,11.86,0h6V734.75H317V745.6Z"/><path class="cls-15" d="M296.07,745.6a6,6,0,0,1,11.85,0h6V734.75h-24.6V745.6Z"/><path class="cls-15" d="M268.45,745.6a6,6,0,0,1,11.85,0h6V734.75h-24.6V745.6Z"/><path class="cls-15" d="M240.72,745.6a6,6,0,0,1,11.85,0h6V734.75H234V745.6Z"/><path class="cls-15" d="M213.1,745.6a6,6,0,0,1,11.85,0h6V734.75h-24.6V745.6Z"/><path class="cls-15" d="M185.37,745.6a6,6,0,0,1,11.85,0h6V734.75h-24.6V745.6Z"/><path class="cls-15" d="M157.75,745.6a6,6,0,0,1,11.85,0h6V734.75H151V745.6Z"/><path class="cls-15" d="M355.1,398A6,6,0,0,0,367,398h6v10.85H348.4V398Z"/><path class="cls-15" d="M327.49,398a6,6,0,0,0,11.85,0h6v10.85h-24.6V398Z"/><path class="cls-15" d="M299.87,398a6,6,0,0,0,11.85,0h6v10.85h-24.6V398Z"/><path class="cls-15" d="M272.14,398A6,6,0,0,0,284,398h6v10.85h-24.6V398Z"/><path class="cls-15" d="M244.52,398a6,6,0,0,0,11.85,0h6v10.85h-24.6V398Z"/><path class="cls-15" d="M216.79,398a6,6,0,0,0,11.85,0h6v10.85h-24.6V398Z"/><path class="cls-15" d="M189.17,398A6,6,0,0,0,201,398h6v10.85h-24.6V398Z"/><path class="cls-15" d="M161.44,398a6,6,0,0,0,11.85,0h6v10.85h-24.6V398Z"/><path class="cls-15" d="M435.28,661.18a6,6,0,0,0,0,11.85v6H424.43v-24.6h10.85Z"/><path class="cls-15" d="M435.28,633.45a6,6,0,0,0,0,11.85v6H424.43v-24.6h10.85Z"/><path class="cls-15" d="M435.28,605.83a6,6,0,0,0,0,11.85v6H424.43v-24.6h10.85Z"/><path class="cls-15" d="M435.28,578.21a6,6,0,0,0,0,11.85v6H424.43V571.5h10.85Z"/><path class="cls-15" d="M435.28,550.48a6,6,0,0,0,0,11.85v6H424.43v-24.6h10.85Z"/><path class="cls-15" d="M435.28,522.86a6,6,0,0,0,0,11.85v6H424.43v-24.6h10.85Z"/><path class="cls-15" d="M435.28,495.13a6,6,0,0,0,0,11.85v6H424.43v-24.6h10.85Z"/><path class="cls-15" d="M435.28,467.51a6,6,0,0,0,0,11.86v6H424.43V460.8h10.85Z"/><path class="cls-15" d="M435.28,439.78a6,6,0,0,0,0,11.86v6H424.43v-24.6h10.85Z"/><path class="cls-15" d="M86.86,693.16a6,6,0,0,1,0,11.85v6H97.71v-24.6H86.86Z"/><path class="cls-15" d="M86.86,665.43a6,6,0,0,1,0,11.85v6H97.71v-24.6H86.86Z"/><path class="cls-15" d="M86.86,637.81a6,6,0,0,1,0,11.85v6H97.71V631.1H86.86Z"/><path class="cls-15" d="M86.86,610.08a6,6,0,0,1,0,11.85v6H97.71v-24.6H86.86Z"/><path class="cls-15" d="M86.86,582.46a6,6,0,0,1,0,11.85v6H97.71v-24.6H86.86Z"/><rect class="cls-21" x="218.39" y="503.57" width="23.18" height="23.18"/><rect class="cls-16" x="225.68" y="509.77" width="10.01" height="10.01"/><rect class="cls-21" x="218.45" y="456.12" width="23.18" height="23.18"/><rect class="cls-16" x="225.66" y="462.33" width="10.01" height="10.01"/><rect class="cls-21" x="170.85" y="456.07" width="23.18" height="23.18"/><rect class="cls-16" x="178.06" y="462.34" width="10.01" height="10.01"/><rect class="cls-16" x="239.32" y="497.08" width="2.31" height="2.31"/><rect class="cls-16" x="236.6" y="490.28" width="2.31" height="2.31"/><rect class="cls-16" x="211.57" y="490.28" width="2.31" height="2.31"/><rect class="cls-16" x="178.09" y="513.63" width="2.31" height="2.31"/><rect class="cls-16" x="170.8" y="509.78" width="2.31" height="2.31"/><rect class="cls-16" x="170.79" y="503.46" width="2.31" height="2.31"/><rect class="cls-16" x="232.64" y="497.05" width="2.31" height="2.31"/><rect class="cls-16" x="198.25" y="466.41" width="2.31" height="2.31"/><rect class="cls-16" x="218.41" y="490.21" width="2.31" height="2.31"/><rect class="cls-16" x="235.67" y="483.24" width="5.93" height="2.77"/><rect class="cls-16" x="211.59" y="520.71" width="3.08" height="5.24"/><rect class="cls-16" x="208.73" y="523.91" width="5.16" height="2"/><rect class="cls-16" x="198.08" y="473.25" width="2.69" height="52.67"/><rect class="cls-16" x="188.1" y="520.7" width="2.31" height="5.24"/><rect class="cls-16" x="189.25" y="520.7" width="10.78" height="2.62"/><rect class="cls-16" x="184.53" y="523.93" width="5.39" height="2"/><rect class="cls-16" x="170.8" y="493.6" width="2.31" height="5.77"/><rect class="cls-16" x="204.55" y="510.89" width="6.78" height="5"/><rect class="cls-16" x="198.07" y="513.66" width="8.47" height="2.31"/><rect class="cls-16" x="205.32" y="463.25" width="2.62" height="56.52"/><rect class="cls-16" x="184.48" y="490.26" width="15.55" height="2.31"/><rect class="cls-16" x="188.05" y="483.3" width="2.31" height="8.78"/><rect class="cls-16" x="198.23" y="483.28" width="13.32" height="6.08"/><rect class="cls-16" x="198.1" y="493.08" width="13.24" height="2.69"/><rect class="cls-16" x="198.81" y="499.58" width="9.09" height="3.08"/><rect class="cls-16" x="198.83" y="506.87" width="7.7" height="2.46"/><rect class="cls-16" x="211.35" y="500.25" width="3.31" height="12.47"/><rect class="cls-16" x="205.26" y="502.71" width="7.7" height="3.08"/><rect class="cls-16" x="205.97" y="479.24" width="5.62" height="8.39"/><rect class="cls-16" x="211.6" y="473.29" width="3.08" height="6.01"/><rect class="cls-16" x="221.85" y="493.4" width="6.78" height="5.93"/><rect class="cls-16" x="214.71" y="496.47" width="10.55" height="3.08"/><rect class="cls-16" x="225.22" y="483.76" width="3.39" height="15.63"/><rect class="cls-16" x="221.79" y="483.28" width="6.08" height="6.08"/><rect class="cls-16" x="194.57" y="483.23" width="31.11" height="2.77"/><rect class="cls-16" x="205.27" y="463.24" width="9.39" height="2.31"/><rect class="cls-16" x="208.7" y="456.12" width="5.93" height="2.54"/><rect class="cls-16" x="212.72" y="456.08" width="1.92" height="9.86"/><rect class="cls-16" x="198.83" y="456.13" width="2.69" height="6.24"/><rect class="cls-16" x="198.89" y="459.2" width="5.85" height="3.16"/><rect class="cls-16" x="170.77" y="483.28" width="10.24" height="5.31"/><rect class="cls-16" x="170.79" y="486.53" width="13.71" height="2.23"/><rect class="cls-16" x="174.17" y="485.95" width="3.46" height="6.62"/><rect class="cls-16" x="177.65" y="503.42" width="9.55" height="5.93"/><rect class="cls-16" x="187.14" y="496.37" width="3.77" height="9.39"/><rect class="cls-16" x="188.08" y="499.6" width="5.93" height="3.08"/><rect class="cls-16" x="194.65" y="506.89" width="4.77" height="6.54"/><rect class="cls-16" x="190.98" y="506.43" width="8.47" height="2.93"/><rect class="cls-16" x="188.1" y="512.69" width="6.54" height="3.23"/><rect class="cls-16" x="187.19" y="509.42" width="3.85" height="6.54"/><rect class="cls-16" x="184.47" y="509.32" width="4.62" height="3.31"/><rect class="cls-16" x="177.61" y="493.06" width="3.39" height="16.32"/><rect class="cls-16" x="174.27" y="500.22" width="5" height="2.46"/><rect class="cls-16" x="174.25" y="506.44" width="5" height="2.93"/><rect class="cls-16" x="177.61" y="519.76" width="2.77" height="6.16"/><rect class="cls-16" x="171.35" y="516.95" width="2.85" height="9.01"/><rect class="cls-16" x="171.38" y="516.93" width="6.24" height="2.85"/><rect class="cls-16" x="171.39" y="523.34" width="9.01" height="2.62"/><g id="Resistor"><g class="cls-22"><g class="cls-23"><path class="cls-24" d="M192.21,298v-30.8a4.24,4.24,0,0,1,4-4.4h9.36a4.24,4.24,0,0,1,4,4.4V298a4.23,4.23,0,0,1-4,4.39h-9.36a4.15,4.15,0,0,1-4-4.39"/><rect class="cls-25" x="192.2" y="273.6" width="17.52" height="18.15"/></g></g></g><g id="Resistor-2" data-name="Resistor"><g class="cls-26"><g class="cls-27"><path class="cls-24" d="M154.51,298v-30.8a4.24,4.24,0,0,1,4.05-4.4h9.36a4.24,4.24,0,0,1,4.05,4.4V298a4.23,4.23,0,0,1-4.05,4.39h-9.36a4.15,4.15,0,0,1-4.05-4.39"/><rect class="cls-25" x="154.5" y="273.6" width="17.52" height="18.15"/></g></g></g><g id="Resistor-3" data-name="Resistor"><g class="cls-28"><g class="cls-29"><path class="cls-24" d="M138.88,928V889.48c0-3.07,2.17-5.49,4.77-5.49h11c2.67,0,4.78,2.5,4.78,5.49V928c0,3.07-2.18,5.49-4.78,5.49h-11c-2.67.08-4.77-2.42-4.77-5.49"/><rect class="cls-25" x="138.86" y="897.43" width="20.64" height="22.68"/></g></g></g><g id="Resistor-4" data-name="Resistor"><g class="cls-30"><g class="cls-31"><path class="cls-24" d="M171.66,928V889.48c0-3.07,2.18-5.49,4.77-5.49h11c2.66,0,4.77,2.5,4.77,5.49V928c0,3.07-2.18,5.49-4.77,5.49h-11c-2.67.08-4.77-2.42-4.77-5.49"/><rect class="cls-25" x="171.64" y="897.43" width="20.64" height="22.68"/></g></g></g><g id="Resistor-5" data-name="Resistor"><g class="cls-32"><g class="cls-33"><path class="cls-24" d="M208.57,928V889.48c0-3.07,2.18-5.49,4.77-5.49h11c2.67,0,4.77,2.5,4.77,5.49V928c0,3.07-2.18,5.49-4.77,5.49h-11c-2.66.08-4.77-2.42-4.77-5.49"/><rect class="cls-25" x="208.55" y="897.43" width="20.64" height="22.68"/></g></g></g><g id="Resistor-6" data-name="Resistor"><g class="cls-34"><g class="cls-35"><path class="cls-24" d="M242.26,928V889.48c0-3.07,2.18-5.49,4.77-5.49h11c2.67,0,4.77,2.5,4.77,5.49V928c0,3.07-2.17,5.49-4.77,5.49H247c-2.66.08-4.77-2.42-4.77-5.49"/><rect class="cls-25" x="242.24" y="897.43" width="20.64" height="22.68"/></g></g></g><g id="Resistor-7" data-name="Resistor"><g class="cls-36"><g class="cls-37"><path class="cls-24" d="M419.92,1142.77H390.85a4.05,4.05,0,0,1-4.14-4v-9.13a4.05,4.05,0,0,1,4.14-4h29.07a4.06,4.06,0,0,1,4.15,4v9.13a4,4,0,0,1-4.15,4"/><rect class="cls-25" x="396.86" y="1125.69" width="17.12" height="17.09"/></g></g></g><g id="Resistor-8" data-name="Resistor"><g class="cls-38"><g class="cls-39"><path class="cls-24" d="M409.19,1259.28v29.06a4.06,4.06,0,0,1-4,4.15h-9.12a4.06,4.06,0,0,1-3.95-4.15v-29.06a4.06,4.06,0,0,1,3.95-4.15h9.12a4,4,0,0,1,4,4.15"/><rect class="cls-25" x="392.11" y="1265.22" width="17.09" height="17.12"/></g></g></g><rect class="cls-40" x="229.7" y="960.35" width="16.4" height="10.81" transform="translate(1203.66 727.85) rotate(90)"/><rect class="cls-40" x="166.76" y="960.35" width="16.4" height="10.81" transform="translate(1140.71 790.8) rotate(90)"/><rect class="cls-40" x="198.02" y="934.72" width="8.71" height="62.58" transform="translate(1168.38 763.64) rotate(90)"/><rect class="cls-41" x="173.53" y="962.64" width="8.71" height="6.74" transform="translate(1143.9 788.12) rotate(90)"/><rect class="cls-41" x="224.77" y="962.64" width="8.71" height="6.74" transform="translate(1195.14 736.88) rotate(90)"/><rect class="cls-40" x="166.76" y="980.65" width="16.4" height="10.81" transform="translate(1161.01 811.1) rotate(90)"/><rect class="cls-40" x="186.78" y="966.26" width="8.71" height="40.11" transform="translate(1177.45 795.17) rotate(90)"/><rect class="cls-41" x="173.53" y="982.94" width="8.71" height="6.74" transform="translate(1164.2 808.42) rotate(90)"/><rect class="cls-40" x="229.7" y="1002.07" width="16.4" height="10.81" transform="translate(1245.37 769.57) rotate(90)"/><rect class="cls-40" x="166.76" y="1002.07" width="16.4" height="10.81" transform="translate(1182.43 832.51) rotate(90)"/><rect class="cls-40" x="198.02" y="976.44" width="8.71" height="62.58" transform="translate(1210.1 805.35) rotate(90)"/><rect class="cls-41" x="173.53" y="1004.35" width="8.71" height="6.74" transform="translate(1185.61 829.84) rotate(90)"/><rect class="cls-41" x="224.77" y="1004.35" width="8.71" height="6.74" transform="translate(1236.85 778.6) rotate(90)"/><rect class="cls-42" x="170.73" y="969.46" width="68.87" height="35.21" rx="2.07" transform="translate(1192.23 781.9) rotate(90)"/><rect class="cls-43" x="171.13" y="973.53" width="64.98" height="27.69" rx="2.07" transform="translate(1190.99 783.76) rotate(90)"/><rect class="cls-40" x="377.16" y="1023.06" width="16.4" height="11.93"/><rect class="cls-40" x="377.16" y="1092.55" width="16.4" height="11.93"/><rect class="cls-40" x="381.26" y="1033.7" width="8.71" height="69.08"/><rect class="cls-41" x="381.26" y="1091.55" width="8.71" height="7.44"/><rect class="cls-41" x="381.26" y="1034.99" width="8.71" height="7.44"/><rect class="cls-40" x="397.46" y="1092.55" width="16.4" height="11.93"/><rect class="cls-40" x="401.56" y="1058.51" width="8.71" height="44.27"/><rect class="cls-41" x="401.56" y="1091.55" width="8.71" height="7.44"/><rect class="cls-40" x="418.88" y="1023.06" width="16.4" height="11.93"/><rect class="cls-40" x="418.88" y="1092.55" width="16.4" height="11.93"/><rect class="cls-40" x="422.98" y="1033.7" width="8.71" height="69.08"/><rect class="cls-41" x="422.98" y="1091.55" width="8.71" height="7.44"/><rect class="cls-41" x="422.98" y="1034.99" width="8.71" height="7.44"/><rect class="cls-42" x="372.23" y="1045.73" width="68.87" height="38.87" rx="2.17"/><rect class="cls-43" x="374.49" y="1051.59" width="64.98" height="30.57" rx="2.17"/><rect class="cls-40" x="267.52" y="1034.88" width="16.4" height="11.93"/><rect class="cls-40" x="271.62" y="998.69" width="8.71" height="46.43"/><rect class="cls-41" x="271.62" y="1033.88" width="8.71" height="7.44"/><rect class="cls-40" x="287.83" y="977.86" width="16.4" height="11.93" transform="translate(592.05 1967.65) rotate(180)"/><rect class="cls-40" x="291.42" y="979.55" width="8.71" height="44.27" transform="translate(591.54 2003.38) rotate(180)"/><rect class="cls-41" x="291.42" y="983.34" width="8.71" height="7.44" transform="translate(591.54 1974.13) rotate(180)"/><rect class="cls-40" x="309.24" y="1034.88" width="16.4" height="11.93"/><rect class="cls-40" x="313.34" y="998.69" width="8.71" height="46.43"/><rect class="cls-41" x="313.34" y="1033.88" width="8.71" height="7.44"/><rect class="cls-42" x="262.6" y="996.92" width="68.87" height="30.01" rx="1.91"/><rect class="cls-43" x="264.85" y="1001.44" width="64.98" height="23.6" rx="1.91"/><g id="Capacitor"><g class="cls-44"><g class="cls-45"><path class="cls-9" d="M279.6,915.33H294c1,0,1.8,1.12,1.8,2.5V932c0,1.37-.81,2.49-1.8,2.49H279.6c-1,0-1.79-1.12-1.79-2.49V917.83c0-1.38.8-2.5,1.79-2.5"/><path class="cls-9" d="M279.6,885.56H294c1,0,1.8,1.12,1.8,2.5V902.2c0,1.37-.81,2.5-1.8,2.5H279.6c-1,0-1.79-1.13-1.79-2.5V888.06c0-1.38.8-2.5,1.79-2.5"/><path class="cls-24" d="M279.32,927.55v-34c0-2.71,1.58-4.84,3.47-4.84h8c1.94,0,3.48,2.2,3.48,4.84v34c0,2.71-1.59,4.85-3.48,4.85h-8c-1.94.07-3.47-2.14-3.47-4.85"/><rect class="cls-46" x="279.31" y="900.6" width="15.03" height="20.01"/></g></g></g><g id="Capacitor-2" data-name="Capacitor"><g class="cls-47"><g class="cls-48"><path class="cls-9" d="M395.49,1009.61v-14.9a2.07,2.07,0,0,1,2.22-1.85h12.58a2.07,2.07,0,0,1,2.22,1.85v14.9a2.07,2.07,0,0,1-2.22,1.85H397.71a2.07,2.07,0,0,1-2.22-1.85"/><path class="cls-9" d="M369,1009.61v-14.9a2.07,2.07,0,0,1,2.22-1.85H383.8a2.07,2.07,0,0,1,2.22,1.85v14.9a2.07,2.07,0,0,1-2.22,1.85H371.22a2.07,2.07,0,0,1-2.22-1.85"/><path class="cls-24" d="M406.36,1009.9H376.13c-2.41,0-4.31-1.63-4.31-3.59V998c0-2,2-3.58,4.31-3.58h30.23c2.41,0,4.31,1.63,4.31,3.58v8.28c.06,2-1.9,3.59-4.31,3.59"/><rect class="cls-46" x="382.38" y="994.4" width="17.81" height="15.51"/></g></g></g><g id="Capacitor-3" data-name="Capacitor"><g class="cls-49"><g class="cls-50"><path class="cls-9" d="M411.49,1174.28v-14.91a2.07,2.07,0,0,1,2.22-1.85h12.58a2.07,2.07,0,0,1,2.22,1.85v14.91a2.07,2.07,0,0,1-2.22,1.85H413.71a2.07,2.07,0,0,1-2.22-1.85"/><path class="cls-9" d="M385,1174.28v-14.91a2.07,2.07,0,0,1,2.22-1.85H399.8a2.07,2.07,0,0,1,2.22,1.85v14.91a2.07,2.07,0,0,1-2.22,1.85H387.22a2.07,2.07,0,0,1-2.22-1.85"/><path class="cls-24" d="M422.36,1174.57H392.13c-2.41,0-4.31-1.64-4.31-3.59v-8.28c0-2,2-3.59,4.31-3.59h30.23c2.41,0,4.31,1.64,4.31,3.59V1171c.06,2-1.9,3.59-4.31,3.59"/><rect class="cls-46" x="398.38" y="1159.07" width="17.81" height="15.51"/></g></g></g><g id="Capacitor-4" data-name="Capacitor"><g class="cls-51"><g class="cls-52"><path class="cls-9" d="M357.4,332H344.49c-.88,0-1.61-1-1.61-2.22V317.19c0-1.23.73-2.23,1.61-2.23H357.4c.88,0,1.6,1,1.6,2.23v12.58c0,1.22-.72,2.22-1.6,2.22"/><path class="cls-9" d="M357.4,358.48H344.49c-.88,0-1.61-1-1.61-2.22V343.67c0-1.22.73-2.22,1.61-2.22H357.4c.88,0,1.6,1,1.6,2.22v12.59c0,1.22-.72,2.22-1.6,2.22"/><path class="cls-24" d="M357.65,321.11v30.23c0,2.41-1.42,4.31-3.11,4.31h-7.17c-1.74,0-3.11-2-3.11-4.31V321.11c0-2.41,1.42-4.31,3.11-4.31h7.17c1.74-.06,3.11,1.9,3.11,4.31"/><rect class="cls-46" x="344.23" y="327.29" width="13.43" height="17.81"/></g></g></g><g id="Capacitor-5" data-name="Capacitor"><g class="cls-53"><g class="cls-54"><path class="cls-9" d="M159.54,976H141.27c-1.25,0-2.27-1.42-2.27-3.16V954.92c0-1.73,1-3.16,2.27-3.16h18.27c1.24,0,2.26,1.43,2.26,3.16V972.8c0,1.74-1,3.16-2.26,3.16"/><path class="cls-9" d="M159.54,1013.61H141.27c-1.25,0-2.27-1.42-2.27-3.16V992.57c0-1.74,1-3.16,2.27-3.16h18.27c1.24,0,2.26,1.42,2.26,3.16v17.88c0,1.74-1,3.16-2.26,3.16"/><path class="cls-24" d="M159.89,960.5v43c0,3.42-2,6.12-4.4,6.12H145.34c-2.45,0-4.39-2.79-4.39-6.12v-43c0-3.42,2-6.12,4.39-6.12h10.15c2.46-.09,4.4,2.7,4.4,6.12"/><rect class="cls-46" x="140.9" y="969.29" width="19.01" height="25.31"/></g></g></g><rect class="cls-55" x="123.52" y="1252.68" width="22.49" height="48.34" rx="5.25" transform="translate(269.54 2553.69) rotate(180)"/><rect class="cls-56" x="123.52" y="1259.6" width="22.49" height="34.36" transform="translate(269.54 2553.56) rotate(180)"/><rect class="cls-55" x="235.86" y="1104.47" width="17.56" height="40.41" rx="5.25" transform="translate(1369.32 880.04) rotate(90)"/><rect class="cls-56" x="235.81" y="1110.32" width="17.56" height="28.73" transform="translate(1369.27 880.09) rotate(90)"/><rect class="cls-55" x="98.62" y="885.84" width="28.55" height="48.34" rx="5.25" transform="translate(225.78 1820.02) rotate(180)"/><rect class="cls-56" x="98.62" y="892.77" width="28.55" height="34.36" transform="translate(225.78 1819.9) rotate(180)"/><rect class="cls-55" x="396.35" y="345.64" width="12.5" height="31.43" rx="2.83" transform="translate(763.95 -41.25) rotate(90)"/><rect class="cls-56" x="396.31" y="350.18" width="12.5" height="22.34" transform="translate(763.91 -41.21) rotate(90)"/><rect class="cls-57" x="352.99" y="858.76" width="138.8" height="7.25" rx="3.63" transform="translate(1284.78 439.99) rotate(90)"/><rect class="cls-57" x="269.83" y="858.76" width="138.8" height="7.25" rx="3.63" transform="translate(1201.61 523.16) rotate(90)"/><polygon class="cls-40" points="428.84 889.63 428.84 837.14 405.23 813.55 353.6 813.55 332.78 835.24 332.78 893.13 353.47 914.38 403.79 914.38 428.84 889.63"/><polygon class="cls-41" points="421.12 885.5 421.12 841.46 401.3 821.65 357.98 821.65 340.5 839.85 340.5 888.44 357.87 906.28 400.1 906.28 421.12 885.5"/><polygon class="cls-40" points="413.77 881.58 413.77 845.56 397.57 829.37 362.14 829.37 347.85 844.25 347.85 883.98 362.05 898.57 396.58 898.57 413.77 881.58"/><ellipse class="cls-8" cx="382.11" cy="865.08" rx="23.38" ry="24.54"/><polygon class="cls-58" points="180.11 1336.5 177.83 1344.71 174.63 1344.71 177.03 1336.5 180.11 1336.5"/><polygon class="cls-58" points="350.56 1344.71 348.28 1336.5 345.08 1336.5 347.48 1344.71 350.56 1344.71"/><path class="cls-58" d="M189.63,1343.09v-54.68a6.16,6.16,0,0,1,6.14-6.19H333.39a6.16,6.16,0,0,1,6.13,6.19v54.68a6.16,6.16,0,0,1-6.13,6.19H195.77A6.16,6.16,0,0,1,189.63,1343.09Z"/><path class="cls-59" d="M175.07,1332.33v-111a6.17,6.17,0,0,1,6.14-6.19h164.3a6.17,6.17,0,0,1,6.14,6.19v111a6.16,6.16,0,0,1-6.14,6.19H181.21A6.16,6.16,0,0,1,175.07,1332.33Z"/><path class="cls-60" d="M196.41,1308.3v-26.36a2.06,2.06,0,0,1,2.05-2.06h13.38a2.05,2.05,0,0,1,2,2.06v26.36a2,2,0,0,1-2,2.06H198.46A2.05,2.05,0,0,1,196.41,1308.3Z"/><path class="cls-60" d="M313.77,1308.3v-26.36a2.05,2.05,0,0,1,2-2.06h13.38a2.05,2.05,0,0,1,2,2.06v26.36a2,2,0,0,1-2,2.06H315.81A2,2,0,0,1,313.77,1308.3Z"/><path class="cls-61" d="M193.15,1313.69v-11.54a2,2,0,0,1,2-2.06H217.3a2,2,0,0,1,2,2.06v11.54a2,2,0,0,1-2,2.06H195.19A2,2,0,0,1,193.15,1313.69Z"/><path class="cls-60" d="M299.75,1243.58v-26.36a2.05,2.05,0,0,1,2-2.06h13.38a2.05,2.05,0,0,1,2,2.06v26.36a2,2,0,0,1-2,2.06H301.79A2,2,0,0,1,299.75,1243.58Z"/><path class="cls-60" d="M327.91,1250.12H301.79a1.85,1.85,0,0,1-2-1.55v-10.19a1.84,1.84,0,0,1,2-1.55h26.12a1.84,1.84,0,0,1,2,1.55v10.19A1.85,1.85,0,0,1,327.91,1250.12Z"/><path class="cls-60" d="M228.12,1250.12H202a1.86,1.86,0,0,1-2-1.55v-10.19a1.85,1.85,0,0,1,2-1.55h26.12a1.84,1.84,0,0,1,2,1.55v10.19A1.85,1.85,0,0,1,228.12,1250.12Z"/><path class="cls-60" d="M276.42,1237.05H250.3a1.85,1.85,0,0,1-2-1.56v-10.18a1.84,1.84,0,0,1,2-1.55h26.12a1.84,1.84,0,0,1,2,1.55v10.18A1.85,1.85,0,0,1,276.42,1237.05Z"/><path class="cls-60" d="M212.7,1243.58v-26.36a2.05,2.05,0,0,1,2-2.06h13.38a2.05,2.05,0,0,1,2,2.06v26.36a2,2,0,0,1-2,2.06H214.74A2,2,0,0,1,212.7,1243.58Z"/><path class="cls-61" d="M308.48,1313.69v-11.54a2,2,0,0,1,2-2.06h22.11a2,2,0,0,1,2,2.06v11.54a2,2,0,0,1-2,2.06H310.52A2,2,0,0,1,308.48,1313.69Z"/><rect class="cls-62" x="238.38" y="1215.16" width="49.96" height="7.84"/><rect class="cls-43" x="94.68" y="296.38" width="40.68" height="66.79" rx="3.93"/><rect class="cls-43" x="251.81" y="1041.17" width="43.85" height="71.01" rx="3.93" transform="translate(-802.94 1350.41) rotate(-90)"/><path class="cls-57" d="M15.77,1009.32H126.46c4.59,0,8.31,4.21,8.31,9.39v167.12c0,5.18-3.72,9.39-8.31,9.39H15.77c-4.59,0-8.32-4.21-8.32-9.39V1018.71C7.45,1013.53,11.18,1009.32,15.77,1009.32Z"/><path class="cls-59" d="M8,1017.63h107.1c4.44,0,8,4,8,9v159.65c0,5-3.6,9-8,9H8c-4.44,0-8-4-8-9V1026.6C0,1021.65,3.6,1017.63,8,1017.63Z"/><rect class="cls-57" x="89.02" y="1009.34" width="16.33" height="75.17" rx="3.21" transform="translate(1144.11 949.74) rotate(90)"/><rect class="cls-57" x="5.89" y="1032.88" width="16.33" height="28.1" transform="translate(1060.98 1032.88) rotate(90)"/><rect class="cls-57" x="89.02" y="1125.25" width="16.33" height="75.17" rx="3.21" transform="translate(1260.02 1065.66) rotate(90)"/></g></g></g></svg>