<svg xmlns="http://www.w3.org/2000/svg" xmlns:xlink="http://www.w3.org/1999/xlink" viewBox="0 0 1608.51 1204.09"><defs><style>.cls-1{fill:#fbb03b;}.cls-2{fill:#242424;}.cls-3{clip-path:url(#clip-path);}.cls-4{clip-path:url(#clip-path-2);}.cls-5{fill:#c9c9c9;}.cls-6{fill:#303030;}.cls-7{fill:#3b3b3b;}.cls-8{fill:#595959;}.cls-9{fill:#6b6b6b;}.cls-10{fill:#c2c2c2;}.cls-11{fill:#a6a6a6;}.cls-12{fill:#e5e5e5;}.cls-13{fill:#907b5a;}.cls-14{fill:#00936a;stroke:#f3d17e;}.cls-14,.cls-20,.cls-25,.cls-27,.cls-28,.cls-38,.cls-39{stroke-miterlimit:10;}.cls-14,.cls-38,.cls-39{stroke-width:2px;}.cls-15{fill:#e8e8e8;}.cls-16{fill:#fff;}.cls-17{fill:#2a64cf;}.cls-18{fill:#ccc8c3;}.cls-19{fill:#2b2b2b;}.cls-20{fill:url(#linear-gradient);stroke:url(#linear-gradient-2);}.cls-21{fill:url(#linear-gradient-3);}.cls-22{fill:#ede3b8;}.cls-23{fill:#dea954;}.cls-24{fill:#e3c281;}.cls-25{fill:url(#linear-gradient-4);stroke:url(#linear-gradient-5);}.cls-26{fill:url(#linear-gradient-6);}.cls-27,.cls-38,.cls-39{fill:none;}.cls-27,.cls-28,.cls-38{stroke:#000;}.cls-27,.cls-28{stroke-width:4px;}.cls-29{fill:#bcbec0;}.cls-30{fill:#ff7676;}.cls-31{isolation:isolate;}.cls-32{fill:#5c5cff;}.cls-33{fill:#ffd400;}.cls-34{fill:#339;}.cls-35{fill:#a33a3a;}.cls-36{fill:red;}.cls-37{fill:#333;}.cls-39{stroke:#fff;}</style><clipPath id="clip-path"><path class="cls-1" d="M836.73,335h78.45V470.71H859.52V402.86s-1.06-17.51-22.79-13.13C836.2,343.76,836.73,335,836.73,335Z"/></clipPath><clipPath id="clip-path-2"><path class="cls-1" d="M791.55,335H713.11V470.71h55.65V402.86s1.06-17.51,22.79-13.13C792.09,343.76,791.55,335,791.55,335Z"/></clipPath><linearGradient id="linear-gradient" x1="1811.17" y1="1018.83" x2="1811.17" y2="967.28" gradientTransform="translate(-343.61 2384.37) rotate(-90)" gradientUnits="userSpaceOnUse"><stop offset="0" stop-color="#fff"/><stop offset="0.95" stop-color="#d5d7d8"/><stop offset="1" stop-color="#cfcfcf"/></linearGradient><linearGradient id="linear-gradient-2" x1="1762.39" y1="993.05" x2="1860.45" y2="993.05" gradientTransform="translate(-343.61 2384.37) rotate(-90)" gradientUnits="userSpaceOnUse"><stop offset="0" stop-color="#fff"/><stop offset="0.27" stop-color="#cfcfcf"/><stop offset="0.95" stop-color="#d5d7d8"/></linearGradient><linearGradient id="linear-gradient-3" x1="1798.95" y1="1020.92" x2="1825.49" y2="1020.92" gradientTransform="translate(1698.23 -1240.07) rotate(90)" gradientUnits="userSpaceOnUse"><stop offset="0" stop-color="#fff"/><stop offset="1" stop-color="#cfcfcf"/></linearGradient><linearGradient id="linear-gradient-4" x1="1811.17" y1="937.98" x2="1811.17" y2="886.44" gradientTransform="matrix(0, -1, -1, 0, 1833.08, 2384.37)" xlink:href="#linear-gradient"/><linearGradient id="linear-gradient-5" x1="1762.39" y1="912.21" x2="1860.45" y2="912.21" gradientTransform="matrix(0, -1, -1, 0, 1833.08, 2384.37)" xlink:href="#linear-gradient-2"/><linearGradient id="linear-gradient-6" x1="1798.95" y1="940.07" x2="1825.49" y2="940.07" gradientTransform="matrix(0, -1, -1, 0, 1833.08, 2384.37)" xlink:href="#linear-gradient-3"/></defs><g id="Layer_10" data-name="Layer 10"><path class="cls-2" d="M1089.22,508.89h0v-.35h-.3L942.42,335.65H684.51l-169,172.89h-.34v592.67h574.09V508.89Z"/><path class="cls-1" d="M836.73,335h78.45V470.71H859.52V402.86s-1.06-17.51-22.79-13.13C836.2,343.76,836.73,335,836.73,335Z"/><g class="cls-3"><rect class="cls-1" x="768.77" y="324.77" width="90.75" height="88.17"/></g><path class="cls-1" d="M791.55,335H713.11V470.71h55.65V402.86s1.06-17.51,22.79-13.13C792.09,343.76,791.55,335,791.55,335Z"/><g class="cls-4"><rect class="cls-1" x="768.77" y="324.77" width="90.75" height="88.17"/></g><rect class="cls-1" x="807.44" y="335" width="12.41" height="135.71"/><rect class="cls-1" x="807.44" y="390.47" width="12.41" height="80.24"/><rect class="cls-5" x="582.72" y="595.77" width="34.89" height="20.96"/><rect class="cls-5" x="582.72" y="626.81" width="34.89" height="20.96"/><rect class="cls-5" x="582.72" y="656.46" width="34.89" height="20.96"/><rect class="cls-5" x="582.72" y="687.72" width="34.89" height="20.96"/><rect class="cls-5" x="582.72" y="716.6" width="34.89" height="20.96"/><rect class="cls-5" x="582.72" y="745.48" width="34.89" height="20.96"/><rect class="cls-5" x="582.72" y="776.2" width="34.89" height="20.96"/><rect class="cls-5" x="582.72" y="805.55" width="34.89" height="20.96"/><rect class="cls-5" x="582.72" y="834.9" width="34.89" height="20.96"/><rect class="cls-5" x="582.72" y="866.56" width="34.89" height="20.96"/><rect class="cls-5" x="582.72" y="895.94" width="34.89" height="20.96"/><rect class="cls-5" x="582.72" y="925.31" width="34.89" height="20.96"/><rect class="cls-5" x="582.72" y="955.18" width="34.89" height="20.96"/><rect class="cls-5" x="664.51" y="1060.99" width="34.89" height="20.96" transform="translate(1753.42 389.51) rotate(90)"/><rect class="cls-5" x="694.72" y="1060.99" width="34.89" height="20.96" transform="translate(1783.63 359.31) rotate(90)"/><rect class="cls-5" x="724.97" y="1060.99" width="34.89" height="20.96" transform="translate(1813.88 329.05) rotate(90)"/><rect class="cls-5" x="755.85" y="1060.99" width="34.89" height="20.96" transform="translate(1844.76 298.17) rotate(90)"/><rect class="cls-5" x="785.79" y="1060.99" width="34.89" height="20.96" transform="translate(1874.7 268.24) rotate(90)"/><rect class="cls-5" x="816.05" y="1060.99" width="34.89" height="20.96" transform="translate(1904.96 237.97) rotate(90)"/><rect class="cls-5" x="846.86" y="1060.99" width="34.89" height="20.96" transform="translate(1935.77 207.16) rotate(90)"/><rect class="cls-5" x="878.06" y="1060.99" width="34.89" height="20.96" transform="translate(1966.97 175.97) rotate(90)"/><rect class="cls-5" x="664.51" y="493.14" width="34.89" height="20.96" transform="translate(1185.58 -178.33) rotate(90)"/><rect class="cls-5" x="694.72" y="493.14" width="34.89" height="20.96" transform="translate(1215.79 -208.54) rotate(90)"/><rect class="cls-5" x="724.97" y="493.14" width="34.89" height="20.96" transform="translate(1246.04 -238.79) rotate(90)"/><rect class="cls-5" x="755.85" y="493.14" width="34.89" height="20.96" transform="translate(1276.92 -269.67) rotate(90)"/><rect class="cls-5" x="785.79" y="493.14" width="34.89" height="20.96" transform="translate(1306.86 -299.61) rotate(90)"/><rect class="cls-5" x="816.05" y="493.14" width="34.89" height="20.96" transform="translate(1337.12 -329.87) rotate(90)"/><rect class="cls-5" x="846.86" y="493.14" width="34.89" height="20.96" transform="translate(1367.93 -360.68) rotate(90)"/><rect class="cls-5" x="878.06" y="493.14" width="34.89" height="20.96" transform="translate(1399.13 -391.88) rotate(90)"/><rect class="cls-5" x="955.23" y="595.77" width="34.89" height="20.96"/><rect class="cls-5" x="955.23" y="626.81" width="34.89" height="20.96"/><rect class="cls-5" x="955.23" y="656.46" width="34.89" height="20.96"/><rect class="cls-5" x="955.23" y="687.72" width="34.89" height="20.96"/><rect class="cls-5" x="955.23" y="716.6" width="34.89" height="20.96"/><rect class="cls-5" x="955.23" y="745.48" width="34.89" height="20.96"/><rect class="cls-5" x="955.23" y="776.2" width="34.89" height="20.96"/><rect class="cls-5" x="955.23" y="805.55" width="34.89" height="20.96"/><rect class="cls-5" x="955.23" y="834.9" width="34.89" height="20.96"/><rect class="cls-5" x="955.23" y="866.56" width="34.89" height="20.96"/><rect class="cls-5" x="955.23" y="895.94" width="34.89" height="20.96"/><rect class="cls-5" x="955.23" y="925.31" width="34.89" height="20.96"/><rect class="cls-5" x="955.23" y="955.18" width="34.89" height="20.96"/><circle class="cls-1" cx="601.64" cy="481.13" r="11.81"/><circle class="cls-1" cx="600.16" cy="1077.1" r="11.81"/><circle class="cls-1" cx="976.46" cy="443.32" r="11.81"/><rect class="cls-6" x="524.66" y="624.71" width="28.71" height="437.41"/><rect class="cls-7" x="515.13" y="851.44" width="52.57" height="53.97" rx="7.89"/><rect class="cls-8" x="521.32" y="857.19" width="38.68" height="39.7" rx="7.89"/><rect class="cls-9" x="527.12" y="867.3" width="15.33" height="15.74"/><rect class="cls-10" x="529.88" y="870.82" width="9.13" height="7.32"/><rect class="cls-7" x="515.13" y="912.4" width="52.57" height="53.97" rx="7.89"/><rect class="cls-8" x="521.32" y="919.53" width="38.68" height="39.7" rx="7.89"/><rect class="cls-9" x="527.12" y="928.26" width="15.33" height="15.74"/><rect class="cls-10" x="529.88" y="932.13" width="9.13" height="7.32"/><rect class="cls-7" x="516.16" y="973.35" width="52.57" height="53.97" rx="7.89"/><rect class="cls-8" x="521.32" y="979.33" width="38.68" height="39.7" rx="7.89"/><rect class="cls-9" x="527.12" y="989.21" width="15.33" height="15.74"/><rect class="cls-10" x="529.88" y="993.42" width="9.13" height="7.32"/><rect class="cls-7" x="515.13" y="1034.3" width="52.57" height="53.97" rx="7.89"/><rect class="cls-8" x="521.32" y="1040.66" width="38.68" height="39.7" rx="7.89"/><rect class="cls-9" x="527.12" y="1050.16" width="15.33" height="15.74"/><rect class="cls-10" x="529.88" y="1054.38" width="9.13" height="7.32"/><rect class="cls-7" x="515.13" y="601.67" width="52.57" height="53.97" rx="7.89"/><rect class="cls-8" x="521.32" y="607.42" width="38.68" height="39.7" rx="7.89"/><rect class="cls-9" x="527.12" y="617.53" width="15.33" height="15.74"/><rect class="cls-10" x="529.88" y="621.05" width="9.13" height="7.32"/><rect class="cls-7" x="515.13" y="662.62" width="52.57" height="53.97" rx="7.89"/><rect class="cls-8" x="521.32" y="669.75" width="38.68" height="39.7" rx="7.89"/><rect class="cls-9" x="527.12" y="678.48" width="15.33" height="15.74"/><rect class="cls-10" x="529.88" y="682.36" width="9.13" height="7.32"/><rect class="cls-7" x="516.16" y="723.58" width="52.57" height="53.97" rx="7.89"/><rect class="cls-8" x="521.32" y="729.56" width="38.68" height="39.7" rx="7.89"/><rect class="cls-9" x="527.12" y="739.44" width="15.33" height="15.74"/><rect class="cls-10" x="529.88" y="743.65" width="9.13" height="7.32"/><rect class="cls-7" x="515.13" y="784.53" width="52.57" height="53.97" rx="7.89"/><rect class="cls-8" x="521.32" y="790.89" width="38.68" height="39.7" rx="7.89"/><rect class="cls-9" x="527.12" y="800.39" width="15.33" height="15.74"/><rect class="cls-10" x="529.88" y="804.6" width="9.13" height="7.32"/><rect class="cls-6" x="1045.13" y="624.71" width="28.71" height="437.41"/><rect class="cls-7" x="1035.61" y="851.44" width="52.57" height="53.97" rx="7.89"/><rect class="cls-8" x="1041.8" y="857.19" width="38.68" height="39.7" rx="7.89"/><rect class="cls-9" x="1047.6" y="867.3" width="15.33" height="15.74"/><rect class="cls-10" x="1050.36" y="870.82" width="9.13" height="7.32"/><rect class="cls-7" x="1035.61" y="912.4" width="52.57" height="53.97" rx="7.89"/><rect class="cls-8" x="1041.8" y="919.53" width="38.68" height="39.7" rx="7.89"/><rect class="cls-9" x="1047.6" y="928.26" width="15.33" height="15.74"/><rect class="cls-10" x="1050.36" y="932.13" width="9.13" height="7.32"/><rect class="cls-7" x="1036.64" y="973.35" width="52.57" height="53.97" rx="7.89"/><rect class="cls-8" x="1041.8" y="979.33" width="38.68" height="39.7" rx="7.89"/><rect class="cls-9" x="1047.6" y="989.21" width="15.33" height="15.74"/><rect class="cls-10" x="1050.36" y="993.42" width="9.13" height="7.32"/><rect class="cls-7" x="1035.61" y="1034.3" width="52.57" height="53.97" rx="7.89"/><rect class="cls-8" x="1041.8" y="1040.66" width="38.68" height="39.7" rx="7.89"/><rect class="cls-9" x="1047.6" y="1050.16" width="15.33" height="15.74"/><rect class="cls-10" x="1050.36" y="1054.38" width="9.13" height="7.32"/><rect class="cls-7" x="1035.61" y="601.67" width="52.57" height="53.97" rx="7.89"/><rect class="cls-8" x="1041.8" y="607.42" width="38.68" height="39.7" rx="7.89"/><rect class="cls-9" x="1047.6" y="617.53" width="15.33" height="15.74"/><rect class="cls-10" x="1050.36" y="621.05" width="9.13" height="7.32"/><rect class="cls-7" x="1035.61" y="662.62" width="52.57" height="53.97" rx="7.89"/><rect class="cls-8" x="1041.8" y="669.75" width="38.68" height="39.7" rx="7.89"/><rect class="cls-9" x="1047.6" y="678.48" width="15.33" height="15.74"/><rect class="cls-10" x="1050.36" y="682.36" width="9.13" height="7.32"/><rect class="cls-6" x="1010.77" y="464.75" width="28.71" height="64.96" transform="translate(-72.09 804.2) rotate(-41.51)"/><rect class="cls-7" x="981.72" y="447.28" width="52.57" height="53.97" rx="7.89" transform="translate(-61.17 787.1) rotate(-41.51)"/><rect class="cls-8" x="987.19" y="453.88" width="38.68" height="39.7" rx="7.89" transform="translate(-61.19 785.98) rotate(-41.51)"/><rect class="cls-11" x="993.22" y="468.35" width="15.33" height="15.74" transform="translate(-64.25 782.87) rotate(-41.51)"/><rect class="cls-10" x="995.61" y="472.27" width="9.13" height="7.32" transform="translate(-64.24 782.33) rotate(-41.51)"/><rect class="cls-7" x="1022.12" y="492.93" width="52.57" height="53.97" rx="7.89" transform="translate(-81.28 825.33) rotate(-41.51)"/><rect class="cls-8" x="1028.5" y="500.56" width="38.68" height="39.7" rx="7.89" transform="translate(-81.75 825.08) rotate(-41.51)"/><rect class="cls-11" x="1033.61" y="514" width="15.33" height="15.74" transform="translate(-84.36 821.1) rotate(-41.51)"/><rect class="cls-10" x="1036.24" y="518.18" width="9.13" height="7.32" transform="translate(-84.46 820.78) rotate(-41.51)"/><rect class="cls-7" x="1036.64" y="723.58" width="52.57" height="53.97" rx="7.89"/><rect class="cls-8" x="1041.8" y="729.56" width="38.68" height="39.7" rx="7.89"/><rect class="cls-9" x="1047.6" y="739.44" width="15.33" height="15.74"/><rect class="cls-10" x="1050.36" y="743.65" width="9.13" height="7.32"/><rect class="cls-7" x="1035.61" y="784.53" width="52.57" height="53.97" rx="7.89"/><rect class="cls-8" x="1041.8" y="790.89" width="38.68" height="39.7" rx="7.89"/><rect class="cls-9" x="1047.6" y="800.39" width="15.33" height="15.74"/><rect class="cls-10" x="1050.36" y="804.6" width="9.13" height="7.32"/><path class="cls-12" d="M1018.52,1064.7H996.85a3.09,3.09,0,0,1-3.09-3.09v-7.13a3.09,3.09,0,0,1,3.09-3.09h21.67a3.09,3.09,0,0,1,3.09,3.09v7.13A3,3,0,0,1,1018.52,1064.7Z"/><rect class="cls-8" x="1001.32" y="1051.36" width="12.77" height="13.36"/><path class="cls-12" d="M1018.52,1087H996.85a3.09,3.09,0,0,1-3.09-3.09v-7.14a3.1,3.1,0,0,1,3.09-3.09h21.67a3.09,3.09,0,0,1,3.09,3.09V1084A3,3,0,0,1,1018.52,1087Z"/><rect class="cls-13" x="1001.32" y="1073.69" width="12.77" height="13.36"/><path class="cls-12" d="M1018.52,1040H996.85a3.08,3.08,0,0,1-3.09-3.08v-7.14a3.1,3.1,0,0,1,3.09-3.09h21.67a3.09,3.09,0,0,1,3.09,3.09V1037A3,3,0,0,1,1018.52,1040Z"/><rect class="cls-13" x="1001.32" y="1026.7" width="12.77" height="13.36"/><path class="cls-12" d="M1015.44,1014.13H999.93a2.21,2.21,0,0,1-2.21-2.21v-5.11a2.22,2.22,0,0,1,2.21-2.21h15.51a2.22,2.22,0,0,1,2.21,2.21v5.11A2.18,2.18,0,0,1,1015.44,1014.13Z"/><rect class="cls-13" x="1003.13" y="1004.58" width="9.14" height="9.56"/></g><g id="Layer_6" data-name="Layer 6"><path class="cls-14" d="M673.81,512.3h-58.7a5.78,5.78,0,0,0-5.79,5.78v81.61a8.32,8.32,0,0,1,0,15.42v14.43a8.32,8.32,0,0,1,0,15.42v14.43a8.32,8.32,0,0,1,0,15.42v14.43a8.32,8.32,0,0,1,0,15.42v14.43a8.32,8.32,0,0,1,0,15.42v14.43a8.33,8.33,0,0,1,0,15.43v14.42a8.33,8.33,0,0,1,0,15.43v14.42a8.33,8.33,0,0,1,0,15.43v14.42a8.33,8.33,0,0,1,0,15.43v14.43a8.32,8.32,0,0,1,0,15.42V898.2a8.32,8.32,0,0,1,0,15.42v14.43a8.32,8.32,0,0,1,0,15.42V957.9a8.32,8.32,0,0,1,0,15.42v82a5.78,5.78,0,0,0,5.79,5.78H674a8.33,8.33,0,0,1,14.81,0h15.69a8.33,8.33,0,0,1,14.81,0H735a8.33,8.33,0,0,1,14.81,0h15.7a8.33,8.33,0,0,1,14.81,0H796a8.33,8.33,0,0,1,14.81,0h15.69a8.33,8.33,0,0,1,14.81,0H857a8.33,8.33,0,0,1,14.81,0h15.69a8.33,8.33,0,0,1,14.81,0H962a5.78,5.78,0,0,0,5.78-5.78V973.66a8.32,8.32,0,0,1,0-16.1V943.81a8.32,8.32,0,0,1,0-16.1V914a8.32,8.32,0,0,1,0-16.11V884.11a8.32,8.32,0,0,1,0-16.11V854.26a8.32,8.32,0,0,1,0-16.11V824.41a8.32,8.32,0,0,1,0-16.11V794.56a8.32,8.32,0,0,1,0-16.11V764.71a8.32,8.32,0,0,1,0-16.11V734.86a8.32,8.32,0,0,1,0-16.11V705a8.32,8.32,0,0,1,0-16.11V675.15a8.32,8.32,0,0,1,0-16.1V645.3a8.32,8.32,0,0,1,0-16.1V615.45a8.32,8.32,0,0,1,0-16.1V518.08A5.78,5.78,0,0,0,962,512.3H902.45a8.32,8.32,0,0,1-15.13,0H872a8.32,8.32,0,0,1-15.13,0H841.45a8.32,8.32,0,0,1-15.13,0H811a8.32,8.32,0,0,1-15.13,0H780.45a8.32,8.32,0,0,1-15.13,0H750a8.33,8.33,0,0,1-15.14,0H719.44a8.32,8.32,0,0,1-15.13,0H688.94a8.32,8.32,0,0,1-15.13,0Z"/><path class="cls-15" d="M726.18,537.91V644.19H635.73a7,7,0,0,0-7,7V1037a7,7,0,0,0,7,7H943a7,7,0,0,0,7-7V651.21a7,7,0,0,0-7-7H845.45V537.91a6.88,6.88,0,0,0-6.87-6.87H733.06A6.88,6.88,0,0,0,726.18,537.91Z"/><rect class="cls-16" x="636.5" y="657.67" width="299.2" height="369.02" rx="23.4"/><path class="cls-17" d="M674.92,968.59a5.72,5.72,0,0,1,2.4-.55c1,0,4.08-.1,5.13-.12,0-.83-.14-2.4-.14-3.39s-.06-3.68-.16-8v-.28a4,4,0,0,0-3.82-4.22c-3-.32-3.68,1.37-3.72,1.43a15.44,15.44,0,0,0-1.13,6.36c0,.33,0,.69,0,1.05A43.44,43.44,0,0,0,674.92,968.59Z"/><path class="cls-17" d="M672,973.55a5.53,5.53,0,0,1,.46-2.06,6.62,6.62,0,0,1,1.3-2.14,40.18,40.18,0,0,1-1.58-8.13c0-.51-.06-1.05-.06-1.58a19.37,19.37,0,0,1,.79-5.71,11.55,11.55,0,0,0-.87-1,4.43,4.43,0,0,0-2.2-1.11,4.83,4.83,0,0,0-3.41.48c-1,.51-1.5,1.84-1.5,3.94,0,.28,0,.58,0,.89s0,.85,0,1.35a19.76,19.76,0,0,0,1.29,6.91C667.42,968.93,670.57,972.2,672,973.55Z"/><path class="cls-17" d="M671.87,982.9a7.13,7.13,0,0,1,.5-2.9,6.79,6.79,0,0,1,1.66-2.08,4.31,4.31,0,0,1-1.8-2.31c-.32-.28-2-1.79-3.39-3.31a22.39,22.39,0,0,1-4.69-8.36,19.9,19.9,0,0,1-.78-6,31.46,31.46,0,0,1,.16-3.15c-.31-.46-1.84-2.4-3.94-2.36-3.19,0-4,1.27-4.24,6.54-.28,5.52,1.94,11.62,6,16.64,3.39,4.22,8.88,6.63,10.58,7.31C671.87,982.94,671.87,982.92,671.87,982.9Z"/><path class="cls-17" d="M683.62,960.89c.79,0,2.38-.14,3.39-.14,1.19,0,5.25-.08,7.43-.14l.87,0a4,4,0,0,0,4.22-3.82c0-.24,0-.48,0-.7,0-2.37-1.41-3-1.47-3a16.76,16.76,0,0,0-7.41-1.11,41.27,41.27,0,0,0-7.76,1.41,5.67,5.67,0,0,1,.55,2.4C683.5,956.23,683.54,957.52,683.62,960.89Z"/><path class="cls-17" d="M697.61,951.34a9.67,9.67,0,0,0,1-.87,4.47,4.47,0,0,0,1.11-2.2,5.72,5.72,0,0,0,.12-1.13,4.78,4.78,0,0,0-.6-2.26c-.53-1-1.84-1.51-3.94-1.51-.24,0-.52,0-.81,0h-.1a20,20,0,0,0-8.26,1.25c-3.51,1.27-6.78,4.4-8.15,5.83a5.83,5.83,0,0,1,2.06.45,6.26,6.26,0,0,1,2.14,1.31,39.38,39.38,0,0,1,8.13-1.58A21,21,0,0,1,697.61,951.34Z"/><path class="cls-17" d="M696.72,942c.53-.38,2.35-1.84,2.35-3.9,0-3.25-1.27-4.05-6.53-4.3-5.53-.28-11.59,1.9-16.65,6-4.2,3.39-6.63,8.87-7.31,10.58a7.57,7.57,0,0,1,2.94.49,7.23,7.23,0,0,1,2.08,1.67,4.6,4.6,0,0,1,.79-.93,4.46,4.46,0,0,1,1.52-.88c.38-.41,1.83-2,3.31-3.38a22.69,22.69,0,0,1,8.36-4.7A25.08,25.08,0,0,1,696.72,942Z"/><path class="cls-17" d="M690.69,962c0,.83.14,2.39.14,3.38,0,1.27.1,5.73.14,7.89v.43a4,4,0,0,0,3.82,4.22c3,.32,3.73-1.4,3.73-1.42a16.77,16.77,0,0,0,1.11-7.41,41.56,41.56,0,0,0-1.41-7.77,5.58,5.58,0,0,1-2.4.56c-.91,0-3.6.1-4.91.12Z"/><path class="cls-17" d="M700.24,976a7.92,7.92,0,0,0,.87,1,4.39,4.39,0,0,0,2.2,1.11,4.7,4.7,0,0,0,3.39-.47c1-.54,1.51-1.84,1.51-3.94,0-.26,0-.56,0-.9s0-.85,0-1.34a19.8,19.8,0,0,0-1.29-6.92c-1.27-3.5-4.4-6.77-5.83-8.14a6,6,0,0,1-.45,2.08,6.37,6.37,0,0,1-1.31,2.14,39.09,39.09,0,0,1,1.58,8.12q.06.81.06,1.59A19.56,19.56,0,0,1,700.24,976Z"/><path class="cls-17" d="M709.63,975.09c.32.46,1.84,2.38,3.94,2.36,3.19,0,4-1.27,4.24-6.54.26-5.53-1.94-11.63-6-16.64-3.39-4.22-8.87-6.64-10.58-7.31v0a7.16,7.16,0,0,1-.49,2.89,6.83,6.83,0,0,1-1.67,2.08,5.5,5.5,0,0,1,.93.79,4.48,4.48,0,0,1,.88,1.53c.51.46,2.08,1.88,3.38,3.33A22.69,22.69,0,0,1,709,966a20.16,20.16,0,0,1,.77,6A27.06,27.06,0,0,1,709.63,975.09Z"/><path class="cls-17" d="M673.64,973.88c0,2.38,1.4,3,1.46,3a16.67,16.67,0,0,0,7.41,1.11,41.38,41.38,0,0,0,7.77-1.4,5.62,5.62,0,0,1-.56-2.4c0-.48-.06-1.74-.12-5.13-.65,0-2.33.14-3.38.14s-3.69.06-8.05.16h-.27a4,4,0,0,0-4.22,3.82A3.94,3.94,0,0,0,673.64,973.88Z"/><path class="cls-17" d="M673.38,982.82a4.92,4.92,0,0,0,.59,2.26c.54,1,1.86,1.5,3.94,1.5l.9,0a19.77,19.77,0,0,0,8.26-1.25c3.5-1.26,6.77-4.39,8.14-5.82a5.65,5.65,0,0,1-2.06-.46,6.18,6.18,0,0,1-2.14-1.3,39.87,39.87,0,0,1-8.12,1.58,20.69,20.69,0,0,1-7.29-.73,7.16,7.16,0,0,0-1,.87,4.35,4.35,0,0,0-1.11,2.2A5.8,5.8,0,0,0,673.38,982.82Z"/><path class="cls-17" d="M674.13,992c0,3.19,1.27,4,6.54,4.24,5.53.28,11.59-1.9,16.64-6,4.22-3.39,6.64-8.88,7.31-10.58a7.29,7.29,0,0,1-2.93-.5,6.82,6.82,0,0,1-2.08-1.66,5.14,5.14,0,0,1-.79.93,4.59,4.59,0,0,1-1.53.87c-.46.52-1.88,2.08-3.31,3.39a22.39,22.39,0,0,1-8.36,4.69,25,25,0,0,1-9.11.62c-.54.37-2.36,1.84-2.36,3.9V992Z"/><path class="cls-17" d="M663.92,894.27a14.45,14.45,0,0,1,1-5.41,12.81,12.81,0,0,1,2.66-4.14,11.6,11.6,0,0,1,3.91-2.64,12.53,12.53,0,0,1,4.79-.91,13.27,13.27,0,0,1,6.81,1.66,10.4,10.4,0,0,1,4.38,5.42h.13a7.3,7.3,0,0,1,1.54-3,8.85,8.85,0,0,1,2.43-2,11,11,0,0,1,3.1-1.1,28.15,28.15,0,0,1,3.39-.46l2.49-.12c1,0,2-.13,2.94-.23a17.68,17.68,0,0,0,2.84-.5,6.49,6.49,0,0,0,2.3-1v9.84a17.27,17.27,0,0,1-5.07,1c-2,.12-3.84.3-5.64.57a8.66,8.66,0,0,0-5.13,2.13q-1.62,1.64-1.62,5.31v9.84H708.6v9.83H663.92Zm20.22,3.51a7.5,7.5,0,0,0-1.5-5.07c-1-1.14-2.64-1.68-4.89-1.68s-3.75.56-4.72,1.68a7.56,7.56,0,0,0-1.46,5.07v10.77h12.57Z"/><path class="cls-17" d="M663.92,852l44.7-16.71v10.2l-10,3.39v16.71l10,3.5V879l-44.7-16.89Zm27.42-.55-16.41,5.64v.12L691.34,863Z"/><path class="cls-17" d="M663.92,823.36h18.54l-18.54-17.47V793.63l17.64,17.46,27-19.15v12.33l-20.1,13.47,5.7,5.64h14.4v9.83H663.92Z"/><path class="cls-18" d="M714.54,917v-3h13.85v3Z"/><path class="cls-18" d="M723.38,902.52c2.87,0,5.3,1.68,5.3,4.73s-2.43,4.73-5.3,4.73-5.29-1.69-5.29-4.73S720.51,902.52,723.38,902.52Zm0,8.24c2.12,0,4.27-1.18,4.27-3.51s-2.15-3.51-4.27-3.51-4.26,1.18-4.26,3.51S721.27,910.76,723.38,910.76Z"/><path class="cls-18" d="M717.1,897.46v4.15h-2.56V890.26h2.56v4.15h11.29v3.05Z"/><path class="cls-18" d="M714.54,883.26v-1.94l12.14-4.79-12.14-4.77v-1.94h13.85v1.32h-12v0l12,4.73v1.24l-12,4.75v0h12v1.32Z"/><path class="cls-18" d="M721.44,867.42c-2.34-.14-3.35-1.75-3.35-4.06,0-1.76.52-3.68,3.22-3.68h5.31c.49,0,.74-.23.74-.72a.94.94,0,0,0-.08-.39h1a3.39,3.39,0,0,1,.08.8c0,1.24-.72,1.43-1.75,1.43v0a3.83,3.83,0,0,1,2,3.65c0,1.86-.91,3.35-2.93,3.35-2.79,0-2.91-2.73-3.22-5.37-.1-1-.27-1.57-1.36-1.57-1.65,0-2,1.16-2,2.62s.69,2.62,2.32,2.67Zm1.48-6.52v0c.29.15.39.7.44,1,.37,2.07.37,4.65,2.31,4.65a2.07,2.07,0,0,0,2-2.23,3.22,3.22,0,0,0-3.14-3.49Z"/><path class="cls-18" d="M728.39,848.43v1.13h-1.9v0a3.93,3.93,0,0,1,2.19,3.56c0,3.05-2.45,4.5-5.3,4.5s-5.29-1.45-5.29-4.5a3.57,3.57,0,0,1,2.19-3.47v0h-5.74v-1.22Zm-.74,4.73c0-2.58-2.19-3.51-4.27-3.51s-4.26.93-4.26,3.51c0,2.33,2.19,3.28,4.26,3.28S727.65,855.49,727.65,853.16Z"/><path class="cls-18" d="M723.71,845.39c1.79,0,3.94-1,3.94-3.3a3,3,0,0,0-2.56-3.14v-1.22c2.27.52,3.59,1.82,3.59,4.36,0,3.18-2.45,4.52-5.3,4.52-2.63,0-5.29-1.34-5.29-4.52s2.81-4.5,5.62-4.4Zm-1-6.48c-1.84.06-3.56,1.22-3.56,3.18s1.74,3.08,3.56,3.3Z"/><path class="cls-18" d="M714.54,830.42v-9.57h1.12v8.25h5v-7.72h1.12v7.72h5.47v-8.34h1.13v9.66Z"/><path class="cls-18" d="M721.44,819.27c-2.34-.14-3.35-1.75-3.35-4.06,0-1.76.52-3.68,3.22-3.68h5.31c.49,0,.74-.23.74-.72a.94.94,0,0,0-.08-.39h1a3.39,3.39,0,0,1,.08.8c0,1.24-.72,1.43-1.75,1.43v0a3.82,3.82,0,0,1,2,3.65c0,1.86-.91,3.35-2.93,3.35-2.79,0-2.91-2.73-3.22-5.37-.1-1-.27-1.57-1.36-1.57-1.65,0-2,1.16-2,2.62s.69,2.62,2.32,2.67Zm1.48-6.52v0c.29.15.39.7.44,1,.37,2.07.37,4.65,2.31,4.65a2.08,2.08,0,0,0,2-2.23,3.22,3.22,0,0,0-3.14-3.49Z"/><path class="cls-18" d="M721.31,803.09c-1.51.06-2.19,1.22-2.19,2.62,0,1.09.42,2.37,1.72,2.37,1.07,0,1.48-1.23,1.69-2.08l.37-1.63c.21-1.39,1-2.85,2.77-2.85,2.17,0,3,2.15,3,4,0,2.34-1.07,3.89-3.53,4.11v-1.22a2.64,2.64,0,0,0,2.5-2.95c0-1.17-.5-2.74-1.9-2.74-1.16,0-1.55,1.09-1.82,2.19l-.35,1.58c-.41,1.59-1,2.79-2.68,2.79-2,0-2.81-2-2.81-3.76,0-2,1-3.57,3.22-3.67Z"/><path class="cls-18" d="M718.38,800.88v-1.3l8.53-3.29-8.53-3.09V792l11.54,4.34c1.69.72,2.17,1.11,2.17,2.64a3.12,3.12,0,0,1-.1.93h-1a4.68,4.68,0,0,0,.09-.83c0-1.09-.64-1.34-1.57-1.75l-1.14-.42Z"/><path class="cls-19" d="M691.34,776.17a14.25,14.25,0,0,0,14.25-14.26c0-.43,0-.86-.06-1.28h-4.26a10.86,10.86,0,0,1,.09,1.28,10,10,0,0,1-20,0,7.79,7.79,0,0,1,.09-1.28h-4.27c0,.42-.06.85-.06,1.28A14.27,14.27,0,0,0,691.34,776.17Z"/><path class="cls-19" d="M681.32,740a7.84,7.84,0,0,1,.09-1.29h-4.27q-.06.63-.06,1.29a14.26,14.26,0,1,0,28.51,0q0-.66-.06-1.29h-4.26a10.88,10.88,0,0,1,.09,1.29,10,10,0,0,1-7.9,9.79v-8.29h-4.25v8.29A10,10,0,0,1,681.32,740Z"/><path class="cls-19" d="M698.45,684.75a12.48,12.48,0,1,1-14.41.12l-1.86-2.56a15.65,15.65,0,0,0,7.53,28.25v6.34H679.28v-7.69L676,706.77v13.41h30.38l-2.2-3.26H693v-6.34a15.65,15.65,0,0,0,7.27-28.44Z"/><path class="cls-19" d="M685.53,695a5.76,5.76,0,0,1,2.45-4.71l-1.83-2.54a8.93,8.93,0,1,0,10.3-.07l-1.78,2.58a5.8,5.8,0,1,1-9.14,4.74Z"/><path class="cls-19" d="M735.29,693l-8.39-.78v-2.45h-3.58v1l-7.1-6.8-.53.57,6.46,6.19,1.17,1.12,0,0h0l-1.17-.11v-1h-.57a1.37,1.37,0,1,0-2.1,1.58,6.8,6.8,0,0,0-.91,1.63,16.56,16.56,0,0,0-.81,3.41H717v5.16h.63a19.33,19.33,0,0,0,.37,2.75h-.44v2.25h1.07a7.12,7.12,0,0,0,1.34,2.08.49.49,0,0,0,.38.14l.34,0v1.27h1.48v-1.41l2.47-.24L715.51,718l.53.57,9.83-9.41,9.42-.88,4.77-.44L750.66,718l.54-.57-10.11-9.67,5.6-.51a.48.48,0,0,0,.43-.48h2.4v-2h-2.4v-6.73a3.35,3.35,0,1,0-4.28-4.39l-.72-.07,8.9-8.53-.54-.56-9.39,9Zm-15.61-1.8a.61.61,0,0,1,.61-.61.6.6,0,0,1,.38.13v.91l-.34,0a.44.44,0,0,0-.36.12A.62.62,0,0,1,719.68,691.18Zm4.94.8-.48-.46v-.89h1.94v1.49Zm-6.81,9.62v-3.4h.7v3.4Zm1.15,3.63a18.89,18.89,0,0,1-.38-2.75h.75v-5.16h-.6a16.12,16.12,0,0,1,.74-3.08,6.52,6.52,0,0,1,1-1.68l.19,0v12.65Zm-.6,1.37v-.49h1.49v.49Zm2.12,2.12a6.62,6.62,0,0,1-.81-1.24h1v1.22Zm1.67-.16V692.72l1.17.11v.4h1.47l2.77,2.65h-.24v6.83h2.35v-4.82l3.42,3.29-7.35,7Zm6-11.8h.34l.36.35v4.72h-.7Zm7.07,10.57-8.23.77,6.68-6.39,5.49,5.26Zm13.66-1.75V706h-1.16v-.42Zm-2.93-7.3h.22v8.06l-6,.55-5.95-5.7,7-6.69,1.42.13c0,.11,0,.21,0,.32A3.34,3.34,0,0,0,745.94,698.28Zm0-5.09a1.75,1.75,0,0,1,1.75,1.75,1.72,1.72,0,0,1-.57,1.28,1.75,1.75,0,0,1-1,.45h-.22a1.74,1.74,0,0,1-1.74-1.74.91.91,0,0,1,0-.17,1.71,1.71,0,0,1,.38-.94A1.76,1.76,0,0,1,745.94,693.19Zm-10.73.75,5,.46-6.51,6.24-4-3.82v-.94h-1l-2.77-2.65h1v-.06Z"/><path class="cls-19" d="M744.81,694.82a.49.49,0,0,0,0,.12,1.14,1.14,0,0,0,1.14,1.14l.22,0a1.15,1.15,0,0,0,.93-1.12,1.12,1.12,0,0,0-.48-.92,1.08,1.08,0,0,0-.67-.22,1.17,1.17,0,0,0-.49.11A1.14,1.14,0,0,0,744.81,694.82Zm1.4.12a.27.27,0,0,1-.05.15.27.27,0,0,1-.48-.15v0a.27.27,0,0,1,.53,0Z"/><rect class="cls-19" x="758.62" y="685.88" width="7.5" height="30.72"/><polyline class="cls-20" points="623.67 621.98 623.67 524.41 675.22 524.41 675.22 621.98"/><rect class="cls-21" x="653.38" y="558.88" width="47.87" height="26.54" transform="translate(1354.62 1144.3) rotate(180)"/><rect class="cls-22" x="620.7" y="540.07" width="64.32" height="64.32" rx="6.11" transform="translate(1305.72 1144.45) rotate(180)"/><circle class="cls-23" cx="653.66" cy="572.58" r="23.19"/><circle class="cls-24" cx="653.66" cy="572.58" r="20.43"/><circle class="cls-23" cx="653.66" cy="572.58" r="6.52"/><polyline class="cls-25" points="946.65 621.98 946.65 524.41 895.1 524.41 895.1 621.98"/><rect class="cls-26" x="869.08" y="558.88" width="47.87" height="26.54"/><rect class="cls-22" x="885.3" y="540.07" width="64.32" height="64.32" rx="6.11"/><circle class="cls-23" cx="916.66" cy="572.58" r="23.19"/><circle class="cls-24" cx="916.66" cy="572.58" r="20.43"/><circle class="cls-23" cx="916.66" cy="572.58" r="6.52"/><g id="Layer_7" data-name="Layer 7"><rect class="cls-27" x="782.24" y="974.77" width="33.32" height="33.32" transform="translate(-192.53 1790.33) rotate(-90)"/><rect class="cls-28" x="789.82" y="982.34" width="18.17" height="18.17" transform="translate(-192.53 1790.33) rotate(-90)"/><rect class="cls-27" x="883.14" y="974.77" width="33.32" height="33.32" transform="translate(-91.63 1891.23) rotate(-90)"/><rect class="cls-28" x="890.71" y="982.34" width="18.17" height="18.17" transform="translate(-91.63 1891.23) rotate(-90)"/><rect class="cls-27" x="782.24" y="874.48" width="33.32" height="33.32" transform="translate(-92.24 1690.05) rotate(-90)"/><rect class="cls-28" x="789.82" y="882.06" width="18.17" height="18.17" transform="translate(-92.24 1690.05) rotate(-90)"/><rect x="783.63" y="952.93" width="4.4" height="9.95" transform="translate(-172.08 1743.73) rotate(-90)"/><rect x="793.46" y="957.44" width="6.02" height="11.34" transform="translate(-166.64 1759.58) rotate(-90)"/><rect x="802.4" y="954.52" width="5.32" height="5.85" transform="translate(-152.38 1762.51) rotate(-90)"/><rect x="787.62" y="946.86" width="12.03" height="5.67" transform="translate(-156.05 1743.33) rotate(-90)"/><rect x="785.65" y="938.87" width="6.02" height="15.62" transform="translate(-158.02 1735.34) rotate(-90)"/><rect x="777.79" y="941.65" width="11.11" height="4.98" transform="translate(-160.8 1727.48) rotate(-90)"/><rect x="797.2" y="927.79" width="5.32" height="16.26" transform="translate(-136.06 1735.78) rotate(-90)"/><rect x="796.85" y="938.55" width="16.43" height="5.85" transform="translate(-136.41 1746.54) rotate(-90)"/><rect x="791.21" y="927.65" width="16.2" height="5.67" transform="translate(-131.18 1729.79) rotate(-90)"/><rect x="791.67" y="916.54" width="4.63" height="16.31" transform="translate(-130.71 1718.68) rotate(-90)"/><rect x="782.82" y="924.35" width="6.25" height="11.57" transform="translate(-144.19 1716.08) rotate(-90)"/><rect x="807.23" y="911.04" width="6.25" height="16.43" transform="translate(-108.9 1729.62) rotate(-90)"/><rect x="805.3" y="918.83" width="10.88" height="5.49" transform="translate(-110.84 1732.31) rotate(-90)"/><rect x="832.92" y="907.57" width="6.25" height="45.13" transform="translate(-94.09 1766.18) rotate(-90)"/><rect x="813.83" y="927.13" width="16.2" height="6.71" transform="translate(-108.56 1752.41) rotate(-90)"/><rect x="825.05" y="916.37" width="6.25" height="5.79" transform="translate(-91.09 1747.43) rotate(-90)"/><rect x="813.48" y="938.58" width="5.09" height="5.09" transform="translate(-125.1 1757.15) rotate(-90)"/><rect x="816.6" y="946.1" width="10.64" height="6.71" transform="translate(-127.53 1771.39) rotate(-90)"/><rect x="826.79" y="945.53" width="10.64" height="7.87" transform="translate(-117.35 1781.57) rotate(-90)"/><rect x="819.35" y="938.09" width="5.32" height="28.06" transform="translate(-130.11 1774.14) rotate(-90)"/><rect x="813.48" y="961.03" width="5.09" height="5.09" transform="translate(-147.55 1779.6) rotate(-90)"/><rect x="822.97" y="952" width="10.41" height="5.79" transform="translate(-126.72 1783.07) rotate(-90)"/><rect x="827.77" y="930.31" width="11.57" height="4.98" transform="translate(-99.24 1766.35) rotate(-90)"/><rect x="841.77" y="932.86" width="5.55" height="17.01" transform="translate(-96.81 1785.91) rotate(-90)"/><rect x="839.05" y="929.67" width="16.66" height="11.34" transform="translate(-87.96 1782.72) rotate(-90)"/><rect x="835.23" y="947.95" width="18.63" height="5.67" transform="translate(-106.24 1795.34) rotate(-90)"/><rect x="852.3" y="943.15" width="5.21" height="28.69" transform="translate(-102.6 1812.4) rotate(-90)"/><rect x="845.3" y="957.44" width="21.98" height="6.48" transform="translate(-104.39 1816.97) rotate(-90)"/><rect x="855.83" y="946.91" width="11.57" height="6.02" transform="translate(-88.31 1811.54) rotate(-90)"/><rect x="861.04" y="935.46" width="10.88" height="5.55" transform="translate(-71.76 1804.71) rotate(-90)"/><rect x="866.99" y="945.93" width="11.22" height="6.71" transform="translate(-76.68 1821.89) rotate(-90)"/><rect x="846.77" y="904.54" width="50.74" height="5.79" transform="translate(-35.28 1779.57) rotate(-90)"/><rect x="870.03" y="870.63" width="5.38" height="28.23" transform="translate(-12.03 1757.47) rotate(-90)"/><rect x="875.18" y="875.78" width="17.3" height="6.02" transform="translate(5.04 1762.62) rotate(-90)"/><rect x="850.04" y="890.45" width="11.57" height="5.55" transform="translate(-37.4 1749.05) rotate(-90)"/><rect x="858.61" y="893.69" width="16.43" height="16.43" transform="translate(-35.08 1768.72) rotate(-90)"/><rect x="860.14" y="886.54" width="16.95" height="7.98" transform="translate(-21.92 1759.15) rotate(-90)"/><rect x="878.16" y="880.15" width="5.32" height="32.4" transform="translate(-15.53 1777.17) rotate(-90)"/><rect x="880.82" y="904.1" width="6.02" height="6.02" transform="translate(-23.28 1790.94) rotate(-90)"/><rect x="846.86" y="909.83" width="6.6" height="16.89" transform="translate(-68.12 1768.44) rotate(-90)"/><rect x="861.21" y="918.97" width="5.44" height="10.64" transform="translate(-60.37 1788.22) rotate(-90)"/><rect x="861.96" y="918.1" width="10.88" height="6.94" transform="translate(-54.17 1788.97) rotate(-90)"/><rect x="849.64" y="890.51" width="6.02" height="33.21" transform="translate(-54.46 1759.76) rotate(-90)"/><rect x="842.52" y="898.2" width="9.72" height="11.34" transform="translate(-56.49 1751.25) rotate(-90)"/><rect x="849.87" y="906.24" width="6.25" height="11.22" transform="translate(-58.86 1764.85) rotate(-90)"/><rect x="827.65" y="895.71" width="10.88" height="5.9" transform="translate(-65.57 1731.76) rotate(-90)"/><rect x="842" y="865.51" width="5.09" height="17.01" transform="translate(-29.47 1718.57) rotate(-90)"/><rect x="858.61" y="870.55" width="6.02" height="6.02" transform="translate(-11.94 1735.17) rotate(-90)"/><rect x="869.25" y="870.55" width="6.02" height="6.02" transform="translate(-1.3 1745.81) rotate(-90)"/><rect x="847.41" y="870.86" width="5.49" height="16.89" transform="translate(-29.15 1729.47) rotate(-90)"/><rect x="822.13" y="885.21" width="11.17" height="4.86" transform="translate(-59.93 1715.35) rotate(-90)"/><rect x="833.64" y="873.7" width="5.38" height="22.1" transform="translate(-48.42 1721.08) rotate(-90)"/><rect x="822.27" y="969.13" width="11.8" height="5.79" transform="translate(-143.85 1800.2) rotate(-90)"/><rect x="822.51" y="986.25" width="10.41" height="4.86" transform="translate(-160.97 1816.4) rotate(-90)"/><rect x="828.06" y="980.7" width="5.21" height="10.76" transform="translate(-155.42 1816.74) rotate(-90)"/><rect x="839.31" y="1003.18" width="5.09" height="11.05" transform="translate(-166.84 1850.56) rotate(-90)"/><rect x="830.66" y="1000.52" width="5.67" height="5.67" transform="translate(-169.85 1836.85) rotate(-90)"/><rect x="849.49" y="997.04" width="17.36" height="11.05" transform="translate(-144.4 1860.74) rotate(-90)"/><rect x="861.67" y="979.6" width="21.87" height="6.71" transform="translate(-110.35 1855.56) rotate(-90)"/><rect x="863.35" y="966.12" width="5.9" height="5.9" transform="translate(-102.77 1835.37) rotate(-90)"/><rect x="863.93" y="982.96" width="5.73" height="5.73" transform="translate(-119.03 1852.61) rotate(-90)"/><rect x="842.06" y="982.96" width="5.21" height="16.66" transform="translate(-146.62 1835.95) rotate(-90)"/><rect x="838.63" y="991.76" width="11.83" height="5.67" transform="translate(-150.05 1839.15) rotate(-90)"/><rect x="847.21" y="966.76" width="5.55" height="27.89" transform="translate(-130.71 1830.68) rotate(-90)"/><rect x="838.76" y="963.4" width="5.9" height="11.34" transform="translate(-127.36 1810.78) rotate(-90)"/><rect x="850.39" y="980.47" width="5.21" height="11.22" transform="translate(-133.09 1839.07) rotate(-90)"/><rect x="858.66" y="988.63" width="5.21" height="5.32" transform="translate(-130.02 1852.55) rotate(-90)"/><rect x="861.18" y="996.46" width="6.25" height="23.31" transform="translate(-143.82 1872.43) rotate(-90)"/><rect x="855.55" y="974.73" width="11.8" height="5.7" transform="translate(-116.12 1839.03) rotate(-90)"/><rect x="846.28" y="972.77" width="7.87" height="5.67" transform="translate(-125.39 1825.83) rotate(-90)"/><rect x="833.64" y="971.47" width="10.47" height="5.67" transform="translate(-135.43 1813.18) rotate(-90)"/><rect x="878.68" y="957.96" width="5.44" height="10.88" transform="translate(-82 1844.8) rotate(-90)"/><rect x="895.4" y="957.56" width="5.09" height="11.11" transform="translate(-65.17 1861.06) rotate(-90)"/><rect x="867.34" y="935.63" width="44.55" height="5.55" transform="translate(-48.79 1828.02) rotate(-90)"/><rect x="895.23" y="935.63" width="5.32" height="32.98" transform="translate(-54.23 1850.01) rotate(-90)"/><rect x="875.56" y="955.19" width="6.25" height="5.44" transform="translate(-79.23 1836.59) rotate(-90)"/><rect x="905.99" y="946.39" width="6.13" height="22.22" transform="translate(-48.45 1866.55) rotate(-90)"/><rect x="909.17" y="938.47" width="5.32" height="16.66" transform="translate(-34.97 1858.63) rotate(-90)"/><rect x="911.28" y="936.18" width="6.48" height="11.28" transform="translate(-27.3 1856.34) rotate(-90)"/><rect x="887.47" y="940.38" width="12.55" height="8.27" transform="translate(-50.76 1838.26) rotate(-90)"/><rect x="881.4" y="938.24" width="5.44" height="5.44" transform="translate(-56.84 1825.07) rotate(-90)"/><rect x="897.97" y="932.71" width="5.44" height="5.61" transform="translate(-34.82 1836.21) rotate(-90)"/><rect x="889.27" y="924.58" width="6.25" height="11.11" transform="translate(-37.74 1822.53) rotate(-90)"/><rect x="875.04" y="932.22" width="6.36" height="6.36" transform="translate(-57.18 1813.62) rotate(-90)"/><rect x="879.92" y="903.61" width="5.44" height="30.49" transform="translate(-36.21 1801.5) rotate(-90)"/><rect x="881.4" y="920.01" width="7" height="7" transform="translate(-38.61 1808.41) rotate(-90)"/><rect x="881.23" y="904.85" width="27.89" height="5.55" transform="translate(-12.46 1802.8) rotate(-90)"/><rect x="906.32" y="884.82" width="11.02" height="16.66" transform="translate(18.68 1804.98) rotate(-90)"/><rect x="900.86" y="879.49" width="21.68" height="5.64" transform="translate(29.39 1794.02) rotate(-90)"/><rect x="906.48" y="862.88" width="5.09" height="22.27" transform="translate(35.01 1783.04) rotate(-90)"/><rect x="903.5" y="874.48" width="7.83" height="7.83" transform="translate(29.02 1785.81) rotate(-90)"/><rect x="911.6" y="907.57" width="6.02" height="11.11" transform="translate(1.48 1827.73) rotate(-90)"/><rect x="900.49" y="901.56" width="6.02" height="11.11" transform="translate(-3.61 1810.61) rotate(-90)"/><rect x="898.87" y="899.94" width="14.81" height="5.55" transform="translate(3.56 1808.99) rotate(-90)"/><rect x="906.22" y="918.85" width="5.44" height="10.88" transform="translate(-15.36 1833.23) rotate(-90)"/><rect x="911.48" y="924.58" width="6.25" height="11.11" transform="translate(-15.53 1844.74) rotate(-90)"/></g><g id="Layer_8" data-name="Layer 8"><path class="cls-19" d="M742.55,1004.48V994.41h1.72v8h4.87v-7h1.72v7h7v2Z"/><path class="cls-19" d="M747.17,981.38a4,4,0,0,0-3.27,4.29c0,3.65,3,5.2,6.21,5.2,3.5,0,6.42-1.55,6.42-5.22,0-2.66-1.89-4.25-4.42-4.42v-2c3.84.4,6.14,2.74,6.14,6.63,0,4.74-3.52,7.09-8,7.09s-8.07-2.54-8.07-7.26c0-3.2,1.71-5.86,5-6.31Z"/><path class="cls-19" d="M747.17,965.87a4,4,0,0,0-3.27,4.3c0,3.65,3,5.19,6.21,5.19,3.5,0,6.42-1.54,6.42-5.21,0-2.67-1.89-4.26-4.42-4.43v-2c3.84.41,6.14,2.75,6.14,6.64,0,4.74-3.52,7.08-8,7.08s-8.07-2.53-8.07-7.25c0-3.2,1.71-5.87,5-6.32Z"/><path class="cls-19" d="M742.55,955.09v-2h15.33v2Z"/><path class="cls-19" d="M742.55,949.62v-5.26c0-4.73,2.39-7.37,7.3-7.37,5.13,0,8,2.26,8,7.37v5.26Zm13.61-2v-3.39c0-1.4-.38-5.16-6-5.16-3.65,0-5.86,1.36-5.86,5.11v3.44Z"/><path class="cls-19" d="M749.17,932v2.38h-2.39V932Zm6.33,2.38V932h2.38v2.38Z"/><path class="cls-19" d="M748.05,929.26c-3.09.17-5.39-1.67-5.39-4.89,0-2.64,1.55-4.77,4.38-4.77s4,1.8,5.22,3.69,2.14,3.93,4,4.28v-7.82h1.61v9.94c-3.58-.28-4.94-2.12-6.22-4.27-1.61-2.58-2.52-3.89-4.64-3.89a2.77,2.77,0,0,0-2.75,2.94c0,2.13,2,3,3.78,3Z"/><path class="cls-19" d="M742.55,912.43v-2.26l15.33-6v2.26l-4.61,1.67v6.49l4.61,1.71v2.11Zm9,1.52v-5.19l-7.15,2.55v0Z"/><path class="cls-19" d="M742.55,902.68V892.61h1.72v8h4.87v-7h1.72v7h7v2Z"/><path class="cls-19" d="M746.55,883.14a2.43,2.43,0,0,0-2.28,2.56c0,3.09,3.44,3.62,5.78,3.69l0,0a4.13,4.13,0,0,1-2-3.8c0-2.92,2.13-4.66,4.94-4.66a4.8,4.8,0,0,1,5.11,5.08c0,4.53-4.14,5.24-7.32,5.24-4.19,0-8.16-1.26-8.16-5.6a3.94,3.94,0,0,1,3.89-4.29Zm6.59,5.9a3.12,3.12,0,1,0,0-6.22c-1.89,0-3.46,1-3.46,3.07S751.23,889,753.14,889Z"/><path class="cls-19" d="M742.55,878.42v-5.57c0-1.33,0-3.15.56-4.05a3.62,3.62,0,0,1,3.2-1.81,3.5,3.5,0,0,1,3.43,2.28h0a3.52,3.52,0,0,1,3.69-2.92,4.38,4.38,0,0,1,4.4,4.66v7.41Zm6.59-2V872.3c0-2.32-.81-3.27-2.44-3.27-2.15,0-2.43,1.49-2.43,3.27v4.08Zm7,0v-5.11a2.6,2.6,0,0,0-2.74-2.88c-2,0-2.56,1.61-2.56,3.33v4.66Z"/><path class="cls-19" d="M751.05,864.31V858.1h1.72v6.21Z"/><path class="cls-19" d="M742.55,855.35v-7.21c0-2.9,1.55-4.66,4-4.66a3.63,3.63,0,0,1,3.88,2.66h0c.34-1.78,1.67-2.12,3.15-2.29s3.2-.05,4.23-.91v2.28c-.62.58-2.27.26-3.78.56s-2.77.58-2.77,2.55v5h6.55v2Zm7.07-6.29c0-1.89-.5-3.54-2.73-3.54a2.42,2.42,0,0,0-2.62,2.73v5.06h5.35Z"/><path class="cls-19" d="M742.55,836.48v-2.25l15.33-6v2.25l-4.61,1.67v6.49l4.61,1.72v2.1Zm9,1.52v-5.19l-7.15,2.55v0Z"/><path class="cls-19" d="M742.55,826.73v-2h7.65l-7.65-7.77v-2.64l6.19,6.46,9.14-6.72v2.58l-7.75,5.54,2.38,2.55h5.37v2Z"/><path class="cls-19" d="M752.71,805.09V803h1.61v2.06h3.56v1.72h-3.56v6.67h-1.76l-9.9-6.93v-1.46Zm0,1.72h-7.45v0l7.45,5.07Z"/><path class="cls-19" d="M746.55,793.26a2.42,2.42,0,0,0-2.28,2.55c0,3.09,3.44,3.63,5.78,3.69l0,0a4.13,4.13,0,0,1-2-3.8c0-2.92,2.13-4.66,4.94-4.66a4.81,4.81,0,0,1,5.11,5.09c0,4.53-4.14,5.24-7.32,5.24-4.19,0-8.16-1.27-8.16-5.6a4,4,0,0,1,3.89-4.3Zm6.59,5.9a3.13,3.13,0,1,0,0-6.23c-1.89,0-3.46,1-3.46,3.07A3.13,3.13,0,0,0,753.14,799.16Z"/><path class="cls-19" d="M742.66,784.24c0-4.77,4.4-5.07,7.75-5.07s7.73.3,7.73,5.07-4.38,5.07-7.73,5.07S742.66,789,742.66,784.24Zm13.87,0c0-3.11-3.87-3.14-6.14-3.14s-6.12,0-6.12,3.14,3.86,3.13,6.12,3.13S756.53,787.35,756.53,784.24Z"/><path class="cls-19" d="M742.66,772.3c0-4.77,4.4-5.07,7.75-5.07s7.73.3,7.73,5.07-4.38,5.07-7.73,5.07S742.66,777.06,742.66,772.3Zm13.87,0c0-3.11-3.87-3.14-6.14-3.14s-6.12,0-6.12,3.14,3.86,3.13,6.12,3.13S756.53,775.41,756.53,772.3Z"/><path class="cls-19" d="M762.13,762c-3.2,2.06-6.29,3.37-10,3.37a16.72,16.72,0,0,1-9.89-3.37v-1.4a17.6,17.6,0,0,0,9.89,2.84,18.09,18.09,0,0,0,10-2.84Z"/><path class="cls-19" d="M742.55,759.09v-2h6.59V749h-6.59v-2h15.33v2h-7v8.07h7v2Z"/><path class="cls-19" d="M762.13,745.48a17.59,17.59,0,0,0-9.89-2.83,18.08,18.08,0,0,0-10,2.83v-1.4c3.2-2.06,6.29-3.37,10-3.37a16.72,16.72,0,0,1,9.89,3.37Z"/><path class="cls-19" d="M782.4,858.89v-9.36c0-3.77,2-6,5.21-6,2.43,0,4.38,1,5,3.45h.06c.44-2.31,2.17-2.76,4.09-3s4.16-.06,5.5-1.17v3c-.81.76-3,.34-4.91.73s-3.6.75-3.6,3.32v6.46h8.51v2.65Zm9.17-8.17c0-2.45-.64-4.6-3.54-4.6-2,0-3.4,1.06-3.4,3.54v6.58h6.94Z"/><path class="cls-19" d="M782.4,834.39v-2.93l19.91-7.78v2.93l-6,2.18v8.41l6,2.23v2.74Zm11.68,2v-6.75l-9.28,3.32V833Z"/><path class="cls-19" d="M782.4,821.73v-2.64h9.92L782.4,809v-3.43l8,8.4,11.88-8.73v3.35l-10.07,7.19,3.1,3.32h7v2.64Z"/><path class="cls-19" d="M795.59,793.63V791h2.09v2.67h4.63v2.23h-4.63v8.67h-2.29l-12.85-9v-1.9Zm0,2.23h-9.68v.06l9.68,6.58Z"/><path class="cls-19" d="M787.59,778.27a3.16,3.16,0,0,0-3,3.32c0,4,4.46,4.71,7.5,4.8l.06-.06a5.35,5.35,0,0,1-2.6-4.93c0-3.8,2.76-6,6.42-6,2.89,0,6.63,1.61,6.63,6.6,0,5.89-5.38,6.81-9.51,6.81-5.43,0-10.59-1.65-10.59-7.28,0-3.26,1.81-5.27,5.05-5.58Zm8.55,7.67c2.46,0,4.41-1.51,4.41-4.1s-2-4-4.38-4-4.49,1.28-4.49,4S793.66,785.94,796.14,785.94Z"/><path class="cls-19" d="M782.54,766.57c0-6.19,5.72-6.58,10.06-6.58s10,.39,10,6.58-5.69,6.58-10,6.58S782.54,772.76,782.54,766.57Zm18,0c0-4.05-5-4.07-8-4.07s-8,0-8,4.07,5,4.07,8,4.07S800.55,770.61,800.55,766.57Z"/><path class="cls-19" d="M782.54,751.07c0-6.19,5.72-6.58,10.06-6.58s10,.39,10,6.58-5.69,6.58-10,6.58S782.54,757.26,782.54,751.07Zm18,0c0-4-5-4.07-8-4.07s-8,0-8,4.07,5,4.07,8,4.07S800.55,755.11,800.55,751.07Z"/><path class="cls-19" d="M807.83,737.63c-4.16,2.68-8.17,4.38-13.05,4.38a21.74,21.74,0,0,1-12.85-4.38v-1.81a22.79,22.79,0,0,0,12.85,3.68,23.51,23.51,0,0,0,13.05-3.68Z"/><path class="cls-19" d="M782.4,733.93v-2.65H791V720.8H782.4v-2.65h19.91v2.65h-9.12v10.48h9.12v2.65Z"/><path class="cls-19" d="M807.83,716.25A22.9,22.9,0,0,0,795,712.57a23.46,23.46,0,0,0-13,3.68v-1.81c4.15-2.68,8.16-4.38,13-4.38a21.77,21.77,0,0,1,12.86,4.38Z"/><path class="cls-19" d="M822.57,859.43V849.05h1.69v8.38H829v-7.81h1.69v7.81h5.19V849h1.69v10.44Z"/><path class="cls-19" d="M832.17,834.58c3.81,0,5.79,2.14,5.79,5.91s-1.79,6.17-5.79,6.17h-9.6v-2h9.6c2.67,0,4.1-1.5,4.1-4.17s-1.43-3.91-4.1-3.91h-9.6v-2Z"/><path class="cls-19" d="M822.57,831.3v-2h15v2Z"/><path class="cls-19" d="M829.06,823.5v2.33h-2.34V823.5Zm6.2,2.33V823.5h2.34v2.33Z"/><path class="cls-19" d="M826.49,807.17a2.37,2.37,0,0,0-2.23,2.5c0,3,3.36,3.56,5.66,3.62l0,0a4,4,0,0,1-2-3.72c0-2.87,2.09-4.57,4.84-4.57a4.71,4.71,0,0,1,5,5c0,4.44-4.06,5.13-7.17,5.13-4.11,0-8-1.24-8-5.49a3.87,3.87,0,0,1,3.81-4.21ZM833,813a3.06,3.06,0,1,0,0-6.11c-1.85,0-3.39,1-3.39,3A3.07,3.07,0,0,0,833,813Z"/><path class="cls-19" d="M822.68,798.33c0-4.67,4.31-5,7.6-5s7.57.29,7.57,5-4.29,5-7.57,5S822.68,803,822.68,798.33Zm13.59,0c0-3.05-3.78-3.07-6-3.07s-6,0-6,3.07,3.79,3.08,6,3.08S836.27,801.39,836.27,798.33Z"/><path class="cls-19" d="M830.21,783.76a2.5,2.5,0,0,0-2.16,2.69c0,2.59,2.06,3.39,4.25,3.39,2,0,4-.91,4-3.18a2.79,2.79,0,0,0-2.65-3v-1.83a4.5,4.5,0,0,1,4.23,4.8c0,3.32-2.29,5.09-5.55,5.09s-5.83-1.68-5.83-5.13c0-2.49,1.15-4.42,3.74-4.7Z"/><path class="cls-19" d="M824.51,771.3v6l4.29.8,0,0a3.8,3.8,0,0,1-1.07-2.78c0-2.65,1.69-4.82,5.11-4.82a4.87,4.87,0,0,1,5,5.22c0,2.59-1.58,4.69-4.27,4.76v-1.79a2.94,2.94,0,0,0,2.69-3.14c0-1.7-1.18-3.15-3.53-3.15a3.23,3.23,0,0,0-3.39,3.36,3.56,3.56,0,0,0,1.41,2.78l-.08,1.54-7.75-1.39V771.3Z"/><path class="cls-19" d="M837.56,758.51a2.54,2.54,0,0,1,.29,1.29c0,.92-.5,1.51-1.68,1.51a4.75,4.75,0,0,1,1.68,3.83c0,2-.86,3.6-3.05,3.6-2.46,0-3-1.83-3.35-3.68s-.23-3.67-1.59-3.67c-1.58,0-1.81,1.31-1.81,2.42,0,1.52.46,2.63,2.06,2.72v1.79c-2.7-.11-3.64-2.17-3.64-4.61,0-2,.44-4.08,3-4.08h5.59c.84,0,1.22,0,1.22-.57a1.89,1.89,0,0,0-.1-.55ZM832,761.42c1,1.38,0,5.42,2.69,5.42,1.18,0,1.6-1,1.6-2.1,0-2.36-1.45-3.32-2.46-3.32Z"/><path class="cls-19" d="M822.68,752.45c0-3.26,1.89-4.52,3.81-4.52a3.42,3.42,0,0,1,3.09,2.06,3.58,3.58,0,0,1,3.73-2.65c2.88,0,4.54,2.19,4.54,4.95s-1.51,5.07-4.54,5.07a3.75,3.75,0,0,1-3.73-2.61,3.34,3.34,0,0,1-3.09,2.08C824.05,756.83,822.68,754.75,822.68,752.45Zm6.27-.16a2.28,2.28,0,0,0-2.4-2.47,2.23,2.23,0,0,0-2.29,2.51,2.33,2.33,0,0,0,2.29,2.61A2.37,2.37,0,0,0,829,752.29Zm7.32,0a2.89,2.89,0,0,0-2.9-3.06,3,3,0,0,0-2.84,3.08,2.9,2.9,0,0,0,2.86,3.15A2.86,2.86,0,0,0,836.27,752.29Z"/><path class="cls-19" d="M852,859v1.83h-1.58V859h-1.62c-1.77,0-2.7-1.05-2.7-3a4.57,4.57,0,0,1,.17-1.15h1.56a3.17,3.17,0,0,0-.15,1c0,.86.27,1.36,1.22,1.36h1.52v-2.1H852v2.1h9.3V859Z"/><path class="cls-19" d="M852,852.76v1.83h-1.58v-1.83h-1.62c-1.77,0-2.7-1-2.7-3a4.65,4.65,0,0,1,.17-1.16h1.56a3.26,3.26,0,0,0-.15,1c0,.86.27,1.37,1.22,1.37h1.52v-2.11H852V851h9.3v1.79Z"/><path class="cls-19" d="M852,846.53v1.83h-1.58v-1.83h-1.62c-1.77,0-2.7-1-2.7-3a4.65,4.65,0,0,1,.17-1.16h1.56a3.26,3.26,0,0,0-.15,1c0,.87.27,1.37,1.22,1.37h1.52v-2.1H852v2.1h9.3v1.79Z"/><path class="cls-19" d="M857.81,831.76a4.36,4.36,0,0,1,3.71,4.65c0,3.47-2.42,5.11-5.73,5.22s-5.66-2.15-5.66-5.11c0-3.85,3.6-5,6.23-4.93v8.15a3.21,3.21,0,0,0,3.58-3.39,2.58,2.58,0,0,0-2.13-2.82Zm-3,1.73a3.13,3.13,0,0,0,0,6.25Z"/><path class="cls-19" d="M848.14,820.38a22,22,0,0,0,13.13,5.72v2a21.29,21.29,0,0,1-13-5.89V830H846.6v-9.66Z"/><path class="cls-19" d="M848.18,809.5v6l4.29.8,0,0a3.8,3.8,0,0,1-1.07-2.78c0-2.65,1.68-4.82,5.11-4.82a4.87,4.87,0,0,1,5,5.22c0,2.59-1.58,4.69-4.27,4.76v-1.79a3,3,0,0,0,2.69-3.14c0-1.7-1.18-3.15-3.54-3.15a3.22,3.22,0,0,0-3.38,3.36,3.55,3.55,0,0,0,1.41,2.78l-.09,1.54-7.74-1.39V809.5Z"/><path class="cls-19" d="M856.19,798.88v-2h1.58v2h3.5v1.68h-3.5v6.55h-1.72l-9.7-6.8v-1.43Zm0,1.68h-7.3v.05l7.3,5Z"/><path class="cls-19" d="M848.14,785.29A22,22,0,0,0,861.27,791v2a21.29,21.29,0,0,1-13-5.89V795H846.6v-9.66Z"/><path class="cls-19" d="M846.35,778.56c0-3.26,1.89-4.52,3.8-4.52a3.43,3.43,0,0,1,3.1,2.06,3.57,3.57,0,0,1,3.72-2.65c2.89,0,4.55,2.19,4.55,4.94s-1.52,5.07-4.55,5.07a3.73,3.73,0,0,1-3.72-2.61,3.35,3.35,0,0,1-3.1,2.09C847.71,782.94,846.35,780.85,846.35,778.56Zm6.27-.17a2.28,2.28,0,0,0-2.4-2.46,2.23,2.23,0,0,0-2.3,2.5,2.33,2.33,0,0,0,2.3,2.61A2.37,2.37,0,0,0,852.62,778.39Zm7.32,0a2.88,2.88,0,0,0-2.9-3,3,3,0,0,0-2.84,3.07,2.9,2.9,0,0,0,2.86,3.16A2.87,2.87,0,0,0,859.94,778.39Z"/><path class="cls-19" d="M861.27,765.12v1.79H850.58v3.87h-1.43c0-2-.53-3.89-2.8-4.29v-1.37Z"/></g><path class="cls-29" d="M538.55,581.92c0,1.89-1,3.84-4.15,3.84-2.61,0-4.08-1.44-4.08-4.09v-.87h1.86v.59c0,1.63.44,2.79,2.26,2.79s2.24-1,2.24-2.53V571.39h1.87Z"/><path class="cls-29" d="M550.09,573.16a20.66,20.66,0,0,0-5.35,12.26h-1.86a19.84,19.84,0,0,1,5.5-12.12h-7.31v-1.58h9Z"/><path class="cls-29" d="M573.22,635.53h-1.07v-6.41h-2.32v-.85c1.23,0,2.34-.32,2.57-1.68h.82Z"/><path class="cls-29" d="M1069.29,503.09l-.69-.81,4.85-4.17-1.51-1.76.65-.56c.79.93,1.76,1.56,3,.86l.53.62Z"/><path class="cls-29" d="M1029.86,448.5a2.78,2.78,0,0,1,4.28.12,2.55,2.55,0,0,1-.13,3.8c-1.19,1-2.48.73-3.73.35s-2.46-.93-3.43-.36l3,3.47-.71.62-3.81-4.42a4.21,4.21,0,0,1,4.41-.48c1.7.53,2.61.76,3.55-.05a1.62,1.62,0,0,0,.1-2.36,1.9,1.9,0,0,0-2.82.13Z"/><path class="cls-29" d="M572.18,1062.53c2,0,2.71,1.13,2.71,2.28a2,2,0,0,1-1.24,1.85,2.15,2.15,0,0,1,1.59,2.23,2.71,2.71,0,0,1-3,2.73c-1.72,0-3-.91-3-2.73a2.26,2.26,0,0,1,1.56-2.23,2,2,0,0,1-1.24-1.85A2.38,2.38,0,0,1,572.18,1062.53Zm.1,8.14a1.73,1.73,0,0,0,1.83-1.74,1.77,1.77,0,0,0-1.84-1.7,1.74,1.74,0,0,0-1.89,1.72A1.71,1.71,0,0,0,572.28,1070.67Zm0-4.38a1.36,1.36,0,0,0,1.47-1.44,1.34,1.34,0,0,0-1.5-1.38,1.4,1.4,0,0,0-1.56,1.38A1.42,1.42,0,0,0,572.28,1066.29Z"/><path class="cls-29" d="M1031.39,635.53h-1.07v-6.41H1028v-.85c1.22,0,2.33-.32,2.57-1.68h.82Z"/><path class="cls-29" d="M1030.34,1062.53c2,0,2.71,1.13,2.71,2.28a2,2,0,0,1-1.23,1.85,2.15,2.15,0,0,1,1.59,2.23,2.72,2.72,0,0,1-3,2.73c-1.71,0-3-.91-3-2.73a2.25,2.25,0,0,1,1.56-2.23,2,2,0,0,1-1.25-1.85A2.38,2.38,0,0,1,1030.34,1062.53Zm.1,8.14a1.73,1.73,0,0,0,1.83-1.74,1.76,1.76,0,0,0-1.84-1.7,1.74,1.74,0,0,0-1.89,1.72A1.71,1.71,0,0,0,1030.44,1070.67Zm0-4.38a1.37,1.37,0,0,0,1.48-1.44,1.34,1.34,0,0,0-1.5-1.38,1.4,1.4,0,0,0-1.57,1.38A1.42,1.42,0,0,0,1030.44,1066.29Z"/><path class="cls-29" d="M1011.51,626.19c-1.89,0-3.84-1-3.84-4.14,0-2.62,1.44-4.09,4.09-4.09h.87v1.87H1012c-1.64,0-2.79.43-2.79,2.26s1,2.24,2.53,2.24H1022v1.86Z"/><path class="cls-29" d="M1021.94,633.09c0,3-1.77,4.23-3.56,4.23a3.19,3.19,0,0,1-2.88-1.93,3.35,3.35,0,0,1-3.48,2.48c-2.7,0-4.25-2-4.25-4.62s1.42-4.73,4.25-4.73a3.5,3.5,0,0,1,3.48,2.43,3.11,3.11,0,0,1,2.88-1.94C1020.66,629,1021.94,631,1021.94,633.09Zm-12.69.16a2.69,2.69,0,0,0,2.71,2.85,2.76,2.76,0,0,0,2.65-2.87,2.71,2.71,0,0,0-2.67-3A2.68,2.68,0,0,0,1009.25,633.25Zm6.83,0a2.13,2.13,0,0,0,2.25,2.3,2.08,2.08,0,0,0,2.14-2.34,2.18,2.18,0,0,0-2.14-2.43A2.21,2.21,0,0,0,1016.08,633.25Z"/><path class="cls-29" d="M1011.68,544.83c-1.49,1.15-3.65,1.53-5.56-1-1.59-2.07-1.35-4.12.76-5.73l.68-.53,1.14,1.48-.47.36c-1.29,1-2,2-.84,3.49s2.15,1.18,3.38.24l8.14-6.24,1.13,1.48Z"/><path class="cls-29" d="M1018.61,551.83l1.15,1.49-1.17.9-1.15-1.5-2.59,2-1-1.25,2.59-2-3.72-4.85,1.28-1,11-.48.81,1.06Zm-1-1.25,5.41-4.15,0,0-8.23.47Z"/></g><g id="Layer_11" data-name="Layer 11"><polygon class="cls-30" points="263.21 723.91 220.75 723.91 199.5 745 220.75 766.13 263.21 766.13 284.46 745 263.21 723.91"/><rect class="cls-30" x="222.69" y="723.86" width="46.17" height="42.22"/><polygon class="cls-30" points="305.69 723.91 263.23 723.91 241.98 745 263.23 766.13 305.69 766.13 326.94 745 305.69 723.91"/><g class="cls-31"><path class="cls-16" d="M224.91,732.6h5l9.61,15.45h.06V732.6h4.74v23H239.3l-9.58-15.42h-.07v15.42h-4.74Z"/><path class="cls-16" d="M248.82,732.6H265v4.25H253.88v5.33h9.65v3.93h-9.65v9.52h-5.06Z"/><path class="cls-16" d="M283.3,740.34a5,5,0,0,0-5-4c-4.55,0-6.26,3.87-6.26,7.9,0,3.84,1.71,7.71,6.26,7.71,3.09,0,4.84-2.1,5.22-5.16h4.91c-.52,5.77-4.45,9.42-10.13,9.42-7.1,0-11.32-5.33-11.32-12,0-6.84,4.22-12.16,11.32-12.16,5,0,9.32,3,9.93,8.29Z"/><path class="cls-16" d="M302.27,755.63h-4.58V741H292v-3.45c3.19.1,6.1-1,6.61-4.48h3.65Z"/></g><rect class="cls-30" x="222.69" y="786.59" width="46.17" height="42.22"/><polygon class="cls-30" points="305.69 786.63 263.23 786.63 241.98 807.72 263.23 828.85 305.69 828.85 326.94 807.72 305.69 786.63"/><polygon class="cls-30" points="263.21 786.63 220.75 786.63 199.5 807.72 220.75 828.85 263.21 828.85 284.46 807.72 263.21 786.63"/><g class="cls-31"><path class="cls-16" d="M224.91,795.32h5l9.61,15.45h.06V795.32h4.74v23H239.3l-9.58-15.42h-.07v15.42h-4.74Z"/><path class="cls-16" d="M248.82,795.32H265v4.26H253.88v5.32h9.65v3.93h-9.65v9.52h-5.06Z"/><path class="cls-16" d="M283.3,803.06a5,5,0,0,0-5-4c-4.55,0-6.26,3.87-6.26,7.9,0,3.84,1.71,7.71,6.26,7.71,3.09,0,4.84-2.1,5.22-5.16h4.91c-.52,5.77-4.45,9.42-10.13,9.42-7.1,0-11.32-5.33-11.32-12,0-6.84,4.22-12.16,11.32-12.16,5,0,9.32,3,9.93,8.29Z"/><path class="cls-16" d="M290.82,804.45c-.16-5.17,2.77-9.13,8.19-9.13,4.13,0,7.74,2.64,7.74,7.06,0,6.84-7.26,7.39-10.55,12h10.68v3.94H290.3c0-5.26,3.23-7.42,7.13-10.1,2-1.38,4.74-2.74,4.74-5.51a3.25,3.25,0,0,0-3.39-3.49c-2.7,0-3.58,2.81-3.58,5.2Z"/></g><polygon class="cls-32" points="305.69 665.28 269.42 665.28 263.23 665.28 226.96 665.28 205.71 686.38 226.96 707.5 263.23 707.5 269.42 707.5 305.69 707.5 326.94 686.38 305.69 665.28"/><g class="cls-31"><path class="cls-16" d="M225,673.67h10.39c5.77,0,8,3.64,8,7.39s-2.2,7.38-8,7.38h-5.32v8.26H225Zm5.07,10.84H234c2.32,0,4.45-.52,4.45-3.45s-2.13-3.45-4.45-3.45h-3.93Z"/><path class="cls-16" d="M253.23,673.67c4.51,0,8.32,2.84,8.32,11.64,0,9-3.81,11.84-8.32,11.84S245,694.31,245,685.31C245,676.51,248.74,673.67,253.23,673.67Zm0,19.71c3.74,0,3.74-5.52,3.74-8.07,0-2.35,0-7.87-3.74-7.87s-3.68,5.52-3.68,7.87C249.55,687.86,249.55,693.38,253.23,693.38Z"/><path class="cls-16" d="M264.16,691.73h5.07v5h-5.07Z"/><path class="cls-16" d="M283.84,696.7h-4.58V682.06h-5.68v-3.45c3.2.09,6.1-1,6.62-4.49h3.64Z"/><path class="cls-16" d="M294.55,690.9a3.23,3.23,0,0,0,3,2.8c3.36,0,4.16-4.39,4.33-6.87l-.07-.06a5.69,5.69,0,0,1-5.1,2.51,7.21,7.21,0,0,1-5.19-2.32,7.74,7.74,0,0,1-1.74-5c0-4.62,3.16-8.26,7.9-8.26,6.84,0,8.68,6,8.68,11.68,0,5.55-2.45,11.8-8.87,11.8-3.9,0-6.81-2.25-7.32-6.25Zm6.94-9.26c0-2.1-1.33-4.2-3.65-4.2s-3.45,2.07-3.45,4.13,1.1,4.26,3.45,4.26S301.49,683.86,301.49,681.64Z"/></g><polygon class="cls-32" points="305.69 603.6 269.42 603.6 263.23 603.6 226.96 603.6 205.71 624.69 226.96 645.82 263.23 645.82 269.42 645.82 305.69 645.82 326.94 624.69 305.69 603.6"/><g class="cls-31"><path class="cls-16" d="M225,612h10.39c5.77,0,8,3.65,8,7.39s-2.2,7.39-8,7.39h-5.32V635H225Zm5.07,10.84H234c2.32,0,4.45-.51,4.45-3.45s-2.13-3.45-4.45-3.45h-3.93Z"/><path class="cls-16" d="M253.23,612c4.51,0,8.32,2.84,8.32,11.65,0,9-3.81,11.84-8.32,11.84S245,632.63,245,623.63C245,614.82,248.74,612,253.23,612Zm0,19.71c3.74,0,3.74-5.51,3.74-8.06,0-2.36,0-7.87-3.74-7.87s-3.68,5.51-3.68,7.87C249.55,626.18,249.55,631.69,253.23,631.69Z"/><path class="cls-16" d="M264.16,630.05h5.07v5h-5.07Z"/><path class="cls-16" d="M283.84,635h-4.58V620.37h-5.68v-3.45c3.2.1,6.1-1,6.62-4.49h3.64Z"/><path class="cls-16" d="M298.13,612c5.61,0,7.55,3.87,7.55,6.07a4.73,4.73,0,0,1-3.29,4.74v.06a5.25,5.25,0,0,1,4.22,5.52c0,4.77-4.22,7.1-8.45,7.1s-8.58-2.2-8.58-7.07a5.34,5.34,0,0,1,4.26-5.55v-.06a4.51,4.51,0,0,1-3.32-4.65C290.52,614.08,294.45,612,298.13,612Zm0,20a3.71,3.71,0,0,0,3.87-3.81,3.65,3.65,0,0,0-3.87-3.61c-2.22,0-4,1.25-4,3.58A3.81,3.81,0,0,0,298.16,632Zm0-10.49c1.9,0,3.39-1,3.39-3,0-1.16-.55-3.13-3.39-3.13a3.15,3.15,0,0,0-3.45,3.13C294.68,620.5,296.29,621.53,298.13,621.53Z"/></g><rect class="cls-33" x="168.13" y="1037.38" width="128.33" height="42.22"/><polygon class="cls-33" points="200.63 1037.43 158.16 1037.43 136.91 1058.52 158.16 1079.65 200.63 1079.65 221.88 1058.52 200.63 1037.43"/><polygon class="cls-33" points="309.74 1037.43 267.28 1037.43 246.03 1058.52 267.28 1079.65 309.74 1079.65 330.99 1058.52 309.74 1037.43"/><g class="cls-31"><path class="cls-16" d="M170.36,1046.11h5.06v23h-5.06Z"/><path class="cls-16" d="M178.84,1055.24c-.16-5.16,2.77-9.13,8.19-9.13,4.13,0,7.74,2.65,7.74,7.07,0,6.84-7.25,7.38-10.54,12H194.9v3.93H178.32c0-5.25,3.23-7.41,7.13-10.09,2-1.39,4.74-2.74,4.74-5.52a3.24,3.24,0,0,0-3.38-3.48c-2.71,0-3.58,2.8-3.58,5.19Z"/><path class="cls-16" d="M213.16,1053.85a5,5,0,0,0-5-4c-4.55,0-6.26,3.87-6.26,7.91,0,3.83,1.71,7.71,6.26,7.71,3.1,0,4.84-2.1,5.23-5.17h4.9c-.52,5.78-4.45,9.42-10.13,9.42-7.1,0-11.32-5.32-11.32-12,0-6.84,4.22-12.17,11.32-12.17,5,0,9.32,3,9.94,8.29Z"/><path class="cls-16" d="M219.49,1071.56h16.12v1.62H219.49Z"/><path class="cls-16" d="M241.29,1061.5c0,3.06,2.39,4.26,5.1,4.26,1.77,0,4.48-.52,4.48-2.87,0-2.52-3.48-2.87-6.84-3.81s-6.87-2.29-6.87-6.55c0-4.74,4.45-7,8.62-7,4.8,0,9.22,2.1,9.22,7.42h-4.9c-.16-2.74-2.1-3.48-4.55-3.48-1.61,0-3.48.68-3.48,2.61s1.09,2,6.87,3.49c1.71.38,6.84,1.51,6.84,6.71,0,4.22-3.29,7.38-9.58,7.38-5.1,0-9.91-2.51-9.81-8.19Z"/><path class="cls-16" d="M258.78,1046.11h9.93c6,0,10.45,3.78,10.45,11.39,0,6.68-3.42,11.64-10.45,11.64h-9.93Zm5.06,18.78h4.52c2.93,0,5.74-1.81,5.74-6.91,0-4.64-1.65-7.61-6.65-7.61h-3.61Z"/><path class="cls-16" d="M289,1046.11h5.19l8.62,23h-5.26l-1.74-5.12h-8.62l-1.8,5.12h-5.13Zm-.48,14.13h6l-2.9-8.45h-.06Z"/></g><rect class="cls-33" x="168.13" y="977.18" width="128.33" height="42.22"/><polygon class="cls-33" points="309.74 977.23 267.28 977.23 246.03 998.32 267.28 1019.45 309.74 1019.45 330.99 998.32 309.74 977.23"/><polygon class="cls-33" points="200.63 977.23 158.16 977.23 136.91 998.32 158.16 1019.45 200.63 1019.45 221.88 998.32 200.63 977.23"/><g class="cls-31"><path class="cls-16" d="M170.36,985.91h5.06v23h-5.06Z"/><path class="cls-16" d="M178.84,995c-.16-5.16,2.77-9.13,8.19-9.13,4.13,0,7.74,2.65,7.74,7.07,0,6.84-7.25,7.38-10.54,12H194.9v3.93H178.32c0-5.25,3.23-7.41,7.13-10.09,2-1.39,4.74-2.74,4.74-5.52a3.24,3.24,0,0,0-3.38-3.48c-2.71,0-3.58,2.8-3.58,5.19Z"/><path class="cls-16" d="M213.16,993.65a5,5,0,0,0-5-4c-4.55,0-6.26,3.87-6.26,7.91,0,3.83,1.71,7.71,6.26,7.71,3.1,0,4.84-2.1,5.23-5.17h4.9c-.52,5.78-4.45,9.42-10.13,9.42-7.1,0-11.32-5.32-11.32-12,0-6.84,4.22-12.17,11.32-12.17,5,0,9.32,3,9.94,8.29Z"/><path class="cls-16" d="M219.49,1011.36h16.12V1013H219.49Z"/><path class="cls-16" d="M241.29,1001.3c0,3.06,2.39,4.26,5.1,4.26,1.77,0,4.48-.52,4.48-2.87,0-2.52-3.48-2.87-6.84-3.81s-6.87-2.29-6.87-6.55c0-4.74,4.45-7,8.62-7,4.8,0,9.22,2.1,9.22,7.42h-4.9c-.16-2.74-2.1-3.48-4.55-3.48-1.61,0-3.48.68-3.48,2.61s1.09,2,6.87,3.49c1.71.38,6.84,1.51,6.84,6.71,0,4.22-3.29,7.38-9.58,7.38-5.1,0-9.91-2.51-9.81-8.19Z"/><path class="cls-16" d="M274.13,993.65a5,5,0,0,0-5-4c-4.55,0-6.26,3.87-6.26,7.91,0,3.83,1.71,7.71,6.26,7.71,3.1,0,4.84-2.1,5.22-5.17h4.91c-.52,5.78-4.45,9.42-10.13,9.42-7.1,0-11.32-5.32-11.32-12,0-6.84,4.22-12.17,11.32-12.17,5,0,9.32,3,9.93,8.29Z"/><path class="cls-16" d="M282.68,985.91h5.06v18.78H299v4.25H282.68Z"/></g><rect class="cls-33" x="196.19" y="853.75" width="114.76" height="42.22"/><polygon class="cls-33" points="228.68 853.8 186.22 853.8 164.97 874.89 186.22 896.02 228.68 896.02 249.93 874.89 228.68 853.8"/><polygon class="cls-33" points="310.51 853.8 268.05 853.8 246.8 874.89 268.05 896.02 310.51 896.02 331.76 874.89 310.51 853.8"/><g class="cls-31"><path class="cls-16" d="M201.86,877.87c0,3.07,2.39,4.26,5.1,4.26,1.78,0,4.49-.52,4.49-2.87,0-2.52-3.49-2.87-6.84-3.81s-6.87-2.29-6.87-6.55c0-4.74,4.45-7,8.61-7,4.8,0,9.22,2.09,9.22,7.42h-4.9c-.16-2.75-2.1-3.49-4.55-3.49-1.61,0-3.48.68-3.48,2.62,0,1.77,1.1,2,6.87,3.48,1.71.39,6.84,1.52,6.84,6.71,0,4.22-3.29,7.39-9.58,7.39-5.1,0-9.91-2.52-9.81-8.2Z"/><path class="cls-16" d="M241.28,885.52h-5l-3.9-15.68h-.07l-3.83,15.68h-5.13l-6.1-23h5.06l3.65,15.67H226l4-15.67h4.75l3.93,15.87h.07l3.77-15.87h5Z"/><path class="cls-16" d="M249.8,862.49h9.94c6,0,10.45,3.77,10.45,11.38,0,6.68-3.42,11.65-10.45,11.65H249.8Zm5.07,18.77h4.51c2.94,0,5.74-1.81,5.74-6.9,0-4.65-1.64-7.62-6.64-7.62h-3.61Z"/><path class="cls-16" d="M273.7,862.49h5.07v23H273.7Z"/><path class="cls-16" d="M293.54,861.94c7.1,0,11.33,5.32,11.33,12.16,0,6.64-4.23,12-11.33,12s-11.32-5.33-11.32-12C282.22,867.26,286.45,861.94,293.54,861.94Zm0,19.87c4.55,0,6.26-3.87,6.26-7.71,0-4-1.71-7.9-6.26-7.9s-6.25,3.87-6.25,7.9C287.29,877.94,289,881.81,293.54,881.81Z"/></g><rect class="cls-33" x="196.19" y="914.74" width="114.76" height="42.22"/><polygon class="cls-33" points="310.51 914.78 268.05 914.78 246.8 935.87 268.05 957 310.51 957 331.76 935.87 310.51 914.78"/><polygon class="cls-33" points="228.68 914.78 186.22 914.78 164.97 935.87 186.22 957 228.68 957 249.93 935.87 228.68 914.78"/><g class="cls-31"><path class="cls-16" d="M201.86,938.85c0,3.07,2.39,4.26,5.1,4.26,1.78,0,4.49-.51,4.49-2.87s-3.49-2.87-6.84-3.8-6.87-2.29-6.87-6.55c0-4.74,4.45-7,8.61-7,4.8,0,9.22,2.1,9.22,7.42h-4.9c-.16-2.74-2.1-3.48-4.55-3.48-1.61,0-3.48.67-3.48,2.61,0,1.77,1.1,2,6.87,3.48,1.71.39,6.84,1.52,6.84,6.71,0,4.23-3.29,7.39-9.58,7.39-5.1,0-9.91-2.52-9.81-8.2Z"/><path class="cls-16" d="M241.28,946.5h-5l-3.9-15.68h-.07l-3.83,15.68h-5.13l-6.1-23h5.06l3.65,15.68H226l4-15.68h4.75l3.93,15.87h.07l3.77-15.87h5Z"/><path class="cls-16" d="M265.16,931.21a5,5,0,0,0-5-4c-4.55,0-6.25,3.87-6.25,7.9,0,3.84,1.7,7.71,6.25,7.71,3.1,0,4.84-2.1,5.23-5.16h4.9c-.51,5.77-4.45,9.42-10.13,9.42-7.09,0-11.32-5.32-11.32-12,0-6.84,4.23-12.16,11.32-12.16,5,0,9.33,3,9.94,8.29Z"/><path class="cls-16" d="M273.7,923.47h5.07v18.77H290v4.26H273.7Z"/><path class="cls-16" d="M292.83,923.47h5.07V933l9-9.55h6.32l-9,9.09,9.87,13.94h-6.35l-6.94-10.35-2.9,2.93v7.42h-5.07Z"/></g><rect class="cls-34" x="1310.62" y="665.22" width="156.73" height="42.22"/><polygon class="cls-34" points="1496.47 665.27 1454.01 665.27 1432.76 686.36 1454.01 707.49 1496.47 707.49 1517.72 686.36 1496.47 665.27"/><polygon class="cls-34" points="1336.73 665.27 1294.27 665.27 1273.02 686.36 1294.27 707.49 1336.73 707.49 1357.98 686.36 1336.73 665.27"/><g class="cls-31"><path class="cls-16" d="M1326.2,688.27c0,6.23-3.68,9.26-9.84,9.26s-9.8-3-9.8-9.26V674h5.06v14.32c0,2.52.65,5,4.74,5,3.62,0,4.78-1.54,4.78-5V674h5.06Z"/><path class="cls-16" d="M1334,689.34c0,3.06,2.39,4.26,5.09,4.26,1.78,0,4.49-.52,4.49-2.87,0-2.52-3.49-2.88-6.84-3.81s-6.87-2.29-6.87-6.55c0-4.74,4.45-7,8.61-7,4.81,0,9.23,2.1,9.23,7.42h-4.91c-.16-2.74-2.09-3.48-4.54-3.48-1.62,0-3.49.68-3.49,2.61,0,1.78,1.1,2,6.87,3.49,1.71.38,6.84,1.51,6.84,6.7,0,4.23-3.29,7.39-9.58,7.39-5.1,0-9.9-2.51-9.8-8.19Z"/><path class="cls-16" d="M1357.78,674h5.2l8.61,23h-5.26l-1.74-5.13H1356l-1.81,5.13H1349Zm-.48,14.13h6l-2.91-8.45h-.06Z"/><path class="cls-16" d="M1373.59,674H1386c4.13,0,6.74,2.87,6.74,6.36,0,2.71-1.06,4.74-3.64,5.77v.06c2.48.68,3.19,3,3.35,5.39.1,1.45,0,4.2,1,5.45h-5.07c-.58-1.45-.54-3.67-.8-5.51-.36-2.42-1.29-3.49-3.84-3.49h-5.07v9h-5.06Zm5.06,10.42h5.55c2.29,0,3.49-1,3.49-3.29s-1.2-3.19-3.49-3.19h-5.55Z"/><path class="cls-16" d="M1402,678.21h-6.91V674h18.87v4.26H1407V697H1402Z"/><path class="cls-16" d="M1427,697h-4.58V682.34h-5.68v-3.45c3.19.09,6.1-1,6.61-4.49H1427Z"/><path class="cls-16" d="M1432.3,699.4h16.13V701H1432.3Z"/><path class="cls-16" d="M1455.75,678.21h-6.9V674h18.87v4.26h-6.9V697h-5.07Z"/><path class="cls-16" d="M1476,684.92l-7.42-11h5.87l4.52,7.36,4.68-7.36h5.54l-7.38,11,8,12h-6l-5-8-5.12,8H1468Z"/></g><rect class="cls-34" x="1310.62" y="726.51" width="156.73" height="42.22"/><polygon class="cls-34" points="1496.47 726.56 1454.01 726.56 1432.76 747.65 1454.01 768.78 1496.47 768.78 1517.72 747.65 1496.47 726.56"/><polygon class="cls-34" points="1336.73 726.56 1294.27 726.56 1273.02 747.65 1294.27 768.78 1336.73 768.78 1357.98 747.65 1336.73 726.56"/><g class="cls-31"><path class="cls-16" d="M1326.2,749.56c0,6.23-3.68,9.26-9.84,9.26s-9.8-3-9.8-9.26V735.24h5.06v14.32c0,2.52.65,5,4.74,5,3.62,0,4.78-1.54,4.78-5V735.24h5.06Z"/><path class="cls-16" d="M1334,750.63c0,3.06,2.39,4.26,5.09,4.26,1.78,0,4.49-.52,4.49-2.87,0-2.52-3.49-2.88-6.84-3.81s-6.87-2.29-6.87-6.55c0-4.74,4.45-7,8.61-7,4.81,0,9.23,2.1,9.23,7.42h-4.91c-.16-2.74-2.09-3.48-4.54-3.48-1.62,0-3.49.68-3.49,2.61,0,1.78,1.1,2,6.87,3.49,1.71.38,6.84,1.51,6.84,6.71,0,4.22-3.29,7.38-9.58,7.38-5.1,0-9.9-2.51-9.8-8.19Z"/><path class="cls-16" d="M1357.78,735.24h5.2l8.61,23h-5.26l-1.74-5.13H1356l-1.81,5.13H1349Zm-.48,14.13h6l-2.91-8.45h-.06Z"/><path class="cls-16" d="M1373.59,735.24H1386c4.13,0,6.74,2.87,6.74,6.36,0,2.71-1.06,4.74-3.64,5.77v.07c2.48.67,3.19,3,3.35,5.38.1,1.45,0,4.2,1,5.45h-5.07c-.58-1.45-.54-3.67-.8-5.51-.36-2.42-1.29-3.49-3.84-3.49h-5.07v9h-5.06Zm5.06,10.42h5.55c2.29,0,3.49-1,3.49-3.29s-1.2-3.19-3.49-3.19h-5.55Z"/><path class="cls-16" d="M1402,739.5h-6.91v-4.26h18.87v4.26H1407v18.77H1402Z"/><path class="cls-16" d="M1427,758.27h-4.58V743.63h-5.68v-3.45c3.19.09,6.1-1,6.61-4.49H1427Z"/><path class="cls-16" d="M1432.3,760.69h16.13v1.62H1432.3Z"/><path class="cls-16" d="M1450.66,735.24h12.41c4.13,0,6.75,2.87,6.75,6.36,0,2.71-1.07,4.74-3.65,5.77v.07c2.49.67,3.19,3,3.36,5.38.09,1.45,0,4.2,1,5.45h-5.06c-.58-1.45-.55-3.67-.81-5.51-.35-2.42-1.29-3.49-3.84-3.49h-5.06v9h-5.06Zm5.06,10.42h5.55c2.29,0,3.48-1,3.48-3.29s-1.19-3.19-3.48-3.19h-5.55Z"/><path class="cls-16" d="M1479.59,746.21l-7.42-11H1478l4.52,7.36,4.68-7.36h5.54l-7.38,11,8,12h-6l-5-8-5.13,8h-5.71Z"/></g><rect class="cls-33" x="1296.68" y="975.77" width="125.83" height="42.22"/><polygon class="cls-33" points="1443.74 975.82 1401.28 975.82 1380.03 996.9 1401.28 1018.03 1443.74 1018.03 1464.99 996.9 1443.74 975.82"/><polygon class="cls-33" points="1334.25 975.82 1291.79 975.82 1270.54 996.9 1291.79 1018.03 1334.25 1018.03 1355.5 996.9 1334.25 975.82"/><g class="cls-31"><path class="cls-16" d="M1296.4,984.5h12.42c4.13,0,6.74,2.87,6.74,6.35,0,2.71-1.06,4.75-3.64,5.78v.06c2.48.68,3.19,3,3.35,5.39.1,1.45,0,4.19,1,5.45h-5.07c-.58-1.45-.54-3.68-.8-5.51-.36-2.42-1.29-3.49-3.84-3.49h-5.07v9h-5.06Zm5.06,10.42H1307c2.29,0,3.49-1,3.49-3.29s-1.2-3.19-3.49-3.19h-5.55Z"/><path class="cls-16" d="M1323,1000.31c.13,2.93,1.52,4.22,4.1,4.22a3.77,3.77,0,0,0,3.61-2.16h4c-1.29,4-4,5.61-7.8,5.61-5.26,0-8.52-3.61-8.52-8.77,0-5,3.45-8.81,8.52-8.81,5.67,0,8.45,4.78,8.09,9.91Zm7.45-2.91c-.42-2.32-1.42-3.55-3.64-3.55a3.59,3.59,0,0,0-3.81,3.55Z"/><path class="cls-16" d="M1341.27,1002.11c0,2,1.74,2.81,3.52,2.81,1.29,0,3-.52,3-2.13,0-1.39-1.94-1.9-5.2-2.58-2.67-.61-5.29-1.48-5.29-4.45,0-4.26,3.68-5.36,7.26-5.36s7,1.23,7.36,5.33h-4.36c-.13-1.78-1.48-2.26-3.13-2.26-1,0-2.55.16-2.55,1.55,0,1.64,2.62,1.87,5.2,2.48s5.29,1.58,5.29,4.68c0,4.38-3.84,5.8-7.62,5.8s-7.67-1.45-7.83-5.87Z"/><path class="cls-16" d="M1358.82,1000.31c.13,2.93,1.52,4.22,4.1,4.22a3.78,3.78,0,0,0,3.61-2.16h4c-1.29,4-4,5.61-7.81,5.61-5.25,0-8.51-3.61-8.51-8.77,0-5,3.45-8.81,8.51-8.81,5.68,0,8.46,4.78,8.1,9.91Zm7.45-2.91c-.42-2.32-1.42-3.55-3.64-3.55a3.59,3.59,0,0,0-3.81,3.55Z"/><path class="cls-16" d="M1373.56,990.85h4.36V994h.06a5.85,5.85,0,0,1,5.32-3.55,3.61,3.61,0,0,1,1,.16v4.26a8.85,8.85,0,0,0-1.64-.16c-3.39,0-4.52,2.39-4.52,5.36v7.51h-4.58Z"/><path class="cls-16" d="M1395.34,1007.53h-5.1l-5.71-16.68h4.81l3.51,11.39h.07l3.51-11.39H1401Z"/><path class="cls-16" d="M1406.66,1000.31c.13,2.93,1.51,4.22,4.1,4.22a3.78,3.78,0,0,0,3.61-2.16h4c-1.29,4-4,5.61-7.81,5.61-5.25,0-8.51-3.61-8.51-8.77,0-5,3.45-8.81,8.51-8.81,5.68,0,8.46,4.78,8.1,9.91Zm7.45-2.91c-.42-2.32-1.42-3.55-3.64-3.55a3.59,3.59,0,0,0-3.81,3.55Z"/><path class="cls-16" d="M1433.3,1005.4h-.06a5.5,5.5,0,0,1-5.07,2.58c-5,0-7.48-4.29-7.48-8.93,0-4.49,2.48-8.65,7.39-8.65a5.72,5.72,0,0,1,4.93,2.49h.07V984.5h4.58v23h-4.36Zm-4-11.55c-3,0-4,2.62-4,5.33s1.2,5.35,4,5.35c3,0,3.94-2.64,3.94-5.39S1432.27,993.85,1429.3,993.85Z"/></g><rect class="cls-33" x="1293.98" y="914.4" width="128.53" height="42.22"/><polygon class="cls-33" points="1443.74 914.44 1401.28 914.44 1380.03 935.53 1401.28 956.66 1443.74 956.66 1464.99 935.53 1443.74 914.44"/><polygon class="cls-33" points="1334.51 914.44 1292.05 914.44 1270.8 935.53 1292.05 956.66 1334.51 956.66 1355.76 935.53 1334.51 914.44"/><g class="cls-31"><path class="cls-16" d="M1296.4,923.13h12.42c4.13,0,6.74,2.87,6.74,6.35,0,2.71-1.06,4.74-3.64,5.78v.06c2.48.68,3.19,3,3.35,5.39.1,1.45,0,4.19,1,5.45h-5.07c-.58-1.45-.54-3.68-.8-5.52-.36-2.42-1.29-3.48-3.84-3.48h-5.07v9h-5.06Zm5.06,10.42H1307c2.29,0,3.49-1,3.49-3.29s-1.2-3.2-3.49-3.2h-5.55Z"/><path class="cls-16" d="M1323,938.93c.13,2.94,1.52,4.23,4.1,4.23a3.77,3.77,0,0,0,3.61-2.16h4c-1.29,4-4,5.61-7.8,5.61-5.26,0-8.52-3.61-8.52-8.77,0-5,3.45-8.81,8.52-8.81,5.67,0,8.45,4.78,8.09,9.9Zm7.45-2.9c-.42-2.32-1.42-3.55-3.64-3.55A3.59,3.59,0,0,0,1323,936Z"/><path class="cls-16" d="M1341.27,940.74c0,2,1.74,2.81,3.52,2.81,1.29,0,3-.52,3-2.13,0-1.39-1.94-1.91-5.2-2.58-2.67-.62-5.29-1.49-5.29-4.45,0-4.26,3.68-5.36,7.26-5.36s7,1.23,7.36,5.32h-4.36c-.13-1.77-1.48-2.25-3.13-2.25-1,0-2.55.16-2.55,1.54,0,1.65,2.62,1.87,5.2,2.49s5.29,1.58,5.29,4.68c0,4.38-3.84,5.8-7.62,5.8s-7.67-1.45-7.83-5.87Z"/><path class="cls-16" d="M1358.82,938.93c.13,2.94,1.52,4.23,4.1,4.23a3.78,3.78,0,0,0,3.61-2.16h4c-1.29,4-4,5.61-7.81,5.61-5.25,0-8.51-3.61-8.51-8.77,0-5,3.45-8.81,8.51-8.81,5.68,0,8.46,4.78,8.1,9.9Zm7.45-2.9c-.42-2.32-1.42-3.55-3.64-3.55a3.59,3.59,0,0,0-3.81,3.55Z"/><path class="cls-16" d="M1373.56,929.48h4.36v3.1h.06a5.85,5.85,0,0,1,5.32-3.55,3.61,3.61,0,0,1,1,.16v4.26a8.07,8.07,0,0,0-1.64-.16c-3.39,0-4.52,2.39-4.52,5.35v7.52h-4.58Z"/><path class="cls-16" d="M1395.34,946.16h-5.1l-5.71-16.68h4.81l3.51,11.39h.07l3.51-11.39H1401Z"/><path class="cls-16" d="M1406.66,938.93c.13,2.94,1.51,4.23,4.1,4.23a3.78,3.78,0,0,0,3.61-2.16h4c-1.29,4-4,5.61-7.81,5.61-5.25,0-8.51-3.61-8.51-8.77,0-5,3.45-8.81,8.51-8.81,5.68,0,8.46,4.78,8.1,9.9Zm7.45-2.9c-.42-2.32-1.42-3.55-3.64-3.55a3.59,3.59,0,0,0-3.81,3.55Z"/><path class="cls-16" d="M1433.3,944h-.06a5.5,5.5,0,0,1-5.07,2.58c-5,0-7.48-4.29-7.48-8.93,0-4.49,2.48-8.65,7.39-8.65a5.72,5.72,0,0,1,4.93,2.49h.07v-8.39h4.58v23h-4.36Zm-4-11.55c-3,0-4,2.62-4,5.33s1.2,5.35,4,5.35c3,0,3.94-2.65,3.94-5.39S1432.27,932.48,1429.3,932.48Z"/></g><rect class="cls-35" x="1296.68" y="852.1" width="150.94" height="42.22"/><polygon class="cls-35" points="1478.32 852.15 1435.86 852.15 1414.61 873.24 1435.86 894.37 1478.32 894.37 1499.57 873.24 1478.32 852.15"/><polygon class="cls-35" points="1335.95 852.15 1293.49 852.15 1272.23 873.24 1293.49 894.37 1335.95 894.37 1357.2 873.24 1335.95 852.15"/><g class="cls-31"><path class="cls-16" d="M1296.4,860.84h7.13l5.39,15.83h.06l5.1-15.83h7.13v23h-4.75V867.55h-.06l-5.65,16.32h-3.9l-5.64-16.16h-.07v16.16h-4.74Z"/><path class="cls-16" d="M1341,868.58a5,5,0,0,0-5-4c-4.55,0-6.26,3.87-6.26,7.9,0,3.84,1.71,7.71,6.26,7.71,3.1,0,4.84-2.1,5.23-5.16h4.9c-.52,5.77-4.45,9.42-10.13,9.42-7.1,0-11.32-5.33-11.32-12,0-6.84,4.22-12.16,11.32-12.16,5,0,9.32,3,9.94,8.29Z"/><path class="cls-16" d="M1369.11,875.16c0,6.22-3.68,9.26-9.84,9.26s-9.8-3-9.8-9.26V860.84h5.06v14.32c0,2.51.64,5,4.74,5,3.61,0,4.78-1.55,4.78-5V860.84h5.06Z"/><path class="cls-16" d="M1371.24,886.29h16.13v1.61h-16.13Z"/><path class="cls-16" d="M1389.59,860.84h5l9.61,15.45h.06V860.84h4.75v23H1404l-9.58-15.42h-.06v15.42h-4.75Z"/><path class="cls-16" d="M1413.5,860.84h12.42c4.13,0,6.74,2.87,6.74,6.35,0,2.71-1.06,4.74-3.65,5.78V873c2.49.68,3.2,3,3.36,5.39.1,1.45,0,4.19,1,5.45h-5.07c-.58-1.45-.55-3.68-.8-5.52-.36-2.42-1.29-3.48-3.84-3.48h-5.07v9h-5.06Zm5.06,10.42h5.55c2.29,0,3.49-1,3.49-3.29s-1.2-3.2-3.49-3.2h-5.55Z"/><path class="cls-16" d="M1440.24,876.22c0,3.07,2.39,4.26,5.1,4.26,1.77,0,4.48-.52,4.48-2.87,0-2.52-3.48-2.87-6.84-3.81s-6.87-2.29-6.87-6.54c0-4.75,4.45-7,8.61-7,4.81,0,9.23,2.09,9.23,7.42h-4.9c-.16-2.74-2.1-3.49-4.55-3.49-1.61,0-3.49.68-3.49,2.62,0,1.77,1.1,2,6.88,3.48,1.71.39,6.83,1.52,6.83,6.71,0,4.23-3.29,7.39-9.58,7.39-5.09,0-9.9-2.52-9.8-8.2Z"/><path class="cls-16" d="M1462.82,865.09h-6.9v-4.25h18.87v4.25h-6.9v18.78h-5.07Z"/></g><polygon class="cls-36" points="1361.5 503.02 1319.04 503.02 1297.79 524.12 1319.04 545.24 1361.5 545.24 1382.75 524.12 1361.5 503.02"/><polygon class="cls-36" points="1331.67 503.02 1289.21 503.02 1267.96 524.12 1289.21 545.24 1331.67 545.24 1352.92 524.12 1331.67 503.02"/><g class="cls-31"><path class="cls-16" d="M1307,534.74h-5.71l-7.48-23h5.23l5.13,16.19h.06l5.19-16.19h5.23Z"/><path class="cls-16" d="M1316.65,511.71h9.93c6,0,10.45,3.77,10.45,11.39,0,6.67-3.42,11.64-10.45,11.64h-9.93Zm5.06,18.77h4.52c2.93,0,5.74-1.8,5.74-6.9,0-4.64-1.65-7.61-6.65-7.61h-3.61Z"/><path class="cls-16" d="M1340.55,511.71h9.94c6,0,10.45,3.77,10.45,11.39,0,6.67-3.42,11.64-10.45,11.64h-9.94Zm5.07,18.77h4.51c2.94,0,5.74-1.8,5.74-6.9,0-4.64-1.64-7.61-6.64-7.61h-3.61Z"/></g><polygon class="cls-36" points="1365.88 603.42 1323.41 603.42 1302.16 624.51 1323.41 645.64 1365.88 645.64 1387.13 624.51 1365.88 603.42"/><polygon class="cls-36" points="1336.05 603.42 1293.59 603.42 1272.34 624.51 1293.59 645.64 1336.05 645.64 1357.3 624.51 1336.05 603.42"/><g class="cls-31"><path class="cls-16" d="M1311.41,635.13h-5.71l-7.48-23h5.22l5.13,16.19h.07l5.19-16.19h5.23Z"/><path class="cls-16" d="M1321,612.1H1331c6,0,10.45,3.78,10.45,11.39,0,6.68-3.42,11.64-10.45,11.64H1321Zm5.07,18.78h4.52c2.93,0,5.74-1.81,5.74-6.91,0-4.64-1.65-7.61-6.65-7.61h-3.61Z"/><path class="cls-16" d="M1344.93,612.1h9.93c6,0,10.46,3.78,10.46,11.39,0,6.68-3.42,11.64-10.46,11.64h-9.93Zm5.06,18.78h4.52c2.93,0,5.74-1.81,5.74-6.91,0-4.64-1.64-7.61-6.64-7.61H1350Z"/></g><polygon class="cls-37" points="1359.62 454.14 1317.16 454.14 1295.91 475.23 1317.16 496.36 1359.62 496.36 1380.87 475.23 1359.62 454.14"/><polygon class="cls-37" points="1333.35 454.14 1290.89 454.14 1269.64 475.23 1290.89 496.36 1333.35 496.36 1354.6 475.23 1333.35 454.14"/><g class="cls-31"><path class="cls-16" d="M1309.91,483.24a7.73,7.73,0,0,1-6.32,3.16c-7.1,0-11.32-5.32-11.32-12,0-6.84,4.22-12.16,11.32-12.16,4.71,0,9.19,2.87,9.71,8.12h-4.84a4.69,4.69,0,0,0-4.87-3.87c-4.55,0-6.26,3.87-6.26,7.91,0,3.83,1.71,7.71,6.26,7.71,3.32,0,5.19-1.75,5.48-5H1304V473.4h9.67v12.46h-3.22Z"/><path class="cls-16" d="M1317.75,462.82h5l9.62,15.45h.06V462.82h4.74v23h-5.06l-9.58-15.42h-.07v15.42h-4.74Z"/><path class="cls-16" d="M1341.65,462.82h9.94c6,0,10.45,3.78,10.45,11.39,0,6.68-3.42,11.65-10.45,11.65h-9.94Zm5.07,18.78h4.52c2.93,0,5.74-1.81,5.74-6.91,0-4.64-1.65-7.61-6.65-7.61h-3.61Z"/></g><polygon class="cls-37" points="1362.22 784.44 1319.76 784.44 1298.51 805.53 1319.76 826.66 1362.22 826.66 1383.47 805.53 1362.22 784.44"/><polygon class="cls-37" points="1335.95 784.44 1293.49 784.44 1272.23 805.53 1293.49 826.66 1335.95 826.66 1357.2 805.53 1335.95 784.44"/><g class="cls-31"><path class="cls-16" d="M1312.51,813.55a7.76,7.76,0,0,1-6.32,3.16c-7.1,0-11.33-5.32-11.33-12,0-6.84,4.23-12.16,11.33-12.16,4.71,0,9.19,2.87,9.71,8.13h-4.84a4.69,4.69,0,0,0-4.87-3.87c-4.55,0-6.26,3.87-6.26,7.9,0,3.84,1.71,7.71,6.26,7.71,3.32,0,5.19-1.74,5.48-5h-5.1v-3.77h9.68v12.45H1313Z"/><path class="cls-16" d="M1320.35,793.13h5l9.61,15.45h.07V793.13h4.74v23h-5.06l-9.58-15.42h-.07v15.42h-4.74Z"/><path class="cls-16" d="M1344.25,793.13h9.94c6,0,10.45,3.77,10.45,11.38,0,6.68-3.42,11.65-10.45,11.65h-9.94Zm5.07,18.77h4.51c2.94,0,5.74-1.81,5.74-6.9,0-4.65-1.64-7.61-6.64-7.61h-3.61Z"/></g><polygon class="cls-37" points="1362.1 1037.17 1319.64 1037.17 1298.39 1058.26 1319.64 1079.39 1362.1 1079.39 1383.35 1058.26 1362.1 1037.17"/><polygon class="cls-37" points="1335.83 1037.17 1293.37 1037.17 1272.12 1058.26 1293.37 1079.39 1335.83 1079.39 1357.08 1058.26 1335.83 1037.17"/><g class="cls-31"><path class="cls-16" d="M1312.39,1066.27a7.76,7.76,0,0,1-6.32,3.16c-7.1,0-11.32-5.32-11.32-12,0-6.83,4.22-12.16,11.32-12.16,4.71,0,9.19,2.87,9.71,8.13h-4.84a4.69,4.69,0,0,0-4.87-3.87c-4.55,0-6.26,3.87-6.26,7.9,0,3.84,1.71,7.71,6.26,7.71,3.32,0,5.19-1.74,5.48-5h-5.1v-3.78h9.68v12.45h-3.22Z"/><path class="cls-16" d="M1320.23,1045.85h5l9.61,15.45h.07v-15.45h4.74v23h-5.06l-9.58-15.42H1325v15.42h-4.74Z"/><path class="cls-16" d="M1344.13,1045.85h9.94c6,0,10.45,3.78,10.45,11.39,0,6.68-3.42,11.64-10.45,11.64h-9.94Zm5.07,18.78h4.51c2.94,0,5.75-1.81,5.75-6.91,0-4.64-1.65-7.61-6.65-7.61h-3.61Z"/></g><path d="M1253.68,491.77H1220.9a4.42,4.42,0,0,1-4.4-4.41V465.08a4.42,4.42,0,0,1,4.4-4.41h32.78a4.42,4.42,0,0,1,4.41,4.41v22.28A4.42,4.42,0,0,1,1253.68,491.77Z"/><g class="cls-31"><path class="cls-16" d="M1230.2,472.94c-.15-4.7,2.53-8.32,7.46-8.32,3.76,0,7,2.41,7,6.44,0,6.22-6.61,6.72-9.6,10.95h9.72v3.59h-15.1c0-4.79,2.94-6.76,6.49-9.2,1.79-1.26,4.32-2.49,4.32-5a3,3,0,0,0-3.08-3.17c-2.47,0-3.26,2.55-3.26,4.73Z"/></g><path d="M1253.68,536.71H1220.9a4.42,4.42,0,0,1-4.4-4.41V510a4.41,4.41,0,0,1,4.4-4.4h32.78a4.42,4.42,0,0,1,4.41,4.4V532.3A4.42,4.42,0,0,1,1253.68,536.71Z"/><g class="cls-31"><path class="cls-16" d="M1240.63,530.55h-4.17V517.22h-5.17v-3.15c2.91.09,5.55-.94,6-4.08h3.32Z"/></g><path d="M1253.68,763.19H1220.9a4.42,4.42,0,0,1-4.4-4.41V736.5a4.41,4.41,0,0,1,4.4-4.4h32.78a4.42,4.42,0,0,1,4.41,4.4v22.28A4.42,4.42,0,0,1,1253.68,763.19Z"/><g class="cls-31"><path class="cls-16" d="M1235.81,744.78c1.79.15,4.38-.21,4.38-2.56a2.71,2.71,0,0,0-2.91-2.73c-2.11,0-3.2,1.56-3.17,3.67h-4c.15-4.23,2.85-7.1,7.11-7.1,3.29,0,6.9,2,6.9,5.69a4.08,4.08,0,0,1-2.88,4.2V746a4.57,4.57,0,0,1,3.65,4.67c0,4.32-3.65,6.76-7.64,6.76-4.61,0-7.73-2.76-7.64-7.49h4c.09,2.23,1.2,4,3.61,4a3.16,3.16,0,0,0,3.35-3.23c0-3.11-2.73-3-4.76-3Z"/></g><path d="M1253.68,888.78H1220.9a4.41,4.41,0,0,1-4.4-4.4V862.1a4.42,4.42,0,0,1,4.4-4.41h32.78a4.42,4.42,0,0,1,4.41,4.41v22.28A4.42,4.42,0,0,1,1253.68,888.78Z"/><g class="cls-31"><path class="cls-16" d="M1243.8,865.5h-8.49l-.82,4.68.06.05a5.23,5.23,0,0,1,4-1.58c4.06,0,6.35,3.14,6.35,7a7.44,7.44,0,0,1-7.64,7.4c-4,0-7.55-2.2-7.64-6.52h4.17a3.28,3.28,0,0,0,3.38,3.08,3.72,3.72,0,0,0,3.56-4,3.54,3.54,0,0,0-3.56-3.85,3.39,3.39,0,0,0-3.14,1.65h-3.76l2-11.37h11.48Z"/></g><path d="M1253.68,949.62H1220.9a4.42,4.42,0,0,1-4.4-4.41V922.93a4.42,4.42,0,0,1,4.4-4.41h32.78a4.42,4.42,0,0,1,4.41,4.41v22.28A4.42,4.42,0,0,1,1253.68,949.62Z"/><g class="cls-31"><path class="cls-16" d="M1240.31,928.16a2.94,2.94,0,0,0-2.76-2.55c-3,0-3.85,4-3.94,6.25l.06.06a5.17,5.17,0,0,1,4.64-2.29,6.56,6.56,0,0,1,4.73,2.12,7,7,0,0,1,1.59,4.58c0,4.2-2.91,7.52-7.2,7.52-6.23,0-7.9-5.44-7.9-10.64s2.23-10.75,8.08-10.75a6.27,6.27,0,0,1,6.66,5.7Zm-6.32,8.43c0,1.91,1.21,3.82,3.32,3.82s3.14-1.88,3.14-3.76-1-3.88-3.14-3.88S1234,934.56,1234,936.59Z"/></g><path d="M1253.68,823.3H1220.9a4.42,4.42,0,0,1-4.4-4.41V796.61a4.42,4.42,0,0,1,4.4-4.41h32.78a4.42,4.42,0,0,1,4.41,4.41v22.28A4.42,4.42,0,0,1,1253.68,823.3Z"/><g class="cls-31"><path class="cls-16" d="M1238.28,812.38h-8.7v-3.82l8.93-12h3.73V809H1245v3.43h-2.74v4.76h-4Zm0-10.57h-.09l-5.32,7.14h5.41Z"/></g><path d="M1253.68,1012.45H1220.9a4.42,4.42,0,0,1-4.4-4.41V985.76a4.42,4.42,0,0,1,4.4-4.41h32.78a4.42,4.42,0,0,1,4.41,4.41V1008A4.42,4.42,0,0,1,1253.68,1012.45Z"/><g class="cls-31"><path class="cls-16" d="M1244.1,989.29c-4.32,3.79-6.64,11.48-6.73,17h-4.46a30,30,0,0,1,6.9-16.69h-9.75V985.7h14Z"/></g><path d="M1253.68,1073.82H1220.9a4.41,4.41,0,0,1-4.4-4.4v-22.28a4.42,4.42,0,0,1,4.4-4.41h32.78a4.42,4.42,0,0,1,4.41,4.41v22.28A4.42,4.42,0,0,1,1253.68,1073.82Z"/><g class="cls-31"><path class="cls-16" d="M1237.11,1046.67c5.11,0,6.87,3.53,6.87,5.53a4.3,4.3,0,0,1-3,4.31v.06a4.78,4.78,0,0,1,3.85,5c0,4.34-3.85,6.46-7.69,6.46s-7.82-2-7.82-6.44a4.86,4.86,0,0,1,3.88-5v-.06a4.09,4.09,0,0,1-3-4.23C1230.17,1048.58,1233.76,1046.67,1237.11,1046.67Zm0,18.24a3.38,3.38,0,0,0,3.52-3.46,3.32,3.32,0,0,0-3.52-3.29c-2,0-3.65,1.14-3.65,3.26A3.47,3.47,0,0,0,1237.14,1064.91Zm0-9.54c1.73,0,3.08-.94,3.08-2.7,0-1.06-.5-2.85-3.08-2.85a2.87,2.87,0,0,0-3.15,2.85C1234,1054.43,1235.43,1055.37,1237.11,1055.37Z"/></g><line class="cls-38" x1="1059.42" y1="476.22" x2="1226" y2="476.22"/><line class="cls-39" x1="1005.26" y1="475.93" x2="1061.14" y2="475.93"/><circle class="cls-16" cx="1005.45" cy="475.93" r="3.76"/><line class="cls-38" x1="1056.67" y1="522.49" x2="1226" y2="522.49"/><line class="cls-39" x1="1044.48" y1="522.49" x2="1088.18" y2="522.49"/><path class="cls-16" d="M1044.67,526.25a3.76,3.76,0,1,1,3.76-3.76A3.76,3.76,0,0,1,1044.67,526.25Z"/><line class="cls-38" x1="1060.75" y1="747.64" x2="1226" y2="747.64"/><circle cx="1060.94" cy="747.64" r="3.76"/><line class="cls-39" x1="1060.75" y1="747.64" x2="1089.22" y2="747.64"/><path class="cls-16" d="M1060.94,751.4a3.76,3.76,0,1,1,3.76-3.76A3.76,3.76,0,0,1,1060.94,751.4Z"/><line class="cls-38" x1="1060.75" y1="807.75" x2="1226" y2="807.75"/><circle cx="1060.94" cy="807.75" r="3.76"/><line class="cls-38" x1="1060.75" y1="807.75" x2="1226" y2="807.75"/><circle cx="1060.94" cy="807.75" r="3.76"/><line class="cls-39" x1="1060.75" y1="807.75" x2="1089.22" y2="807.75"/><path class="cls-16" d="M1060.94,811.51a3.76,3.76,0,1,1,3.76-3.76A3.76,3.76,0,0,1,1060.94,811.51Z"/><path d="M1253.68,641H1220.9a4.41,4.41,0,0,1-4.4-4.4V614.32a4.42,4.42,0,0,1,4.4-4.41h32.78a4.42,4.42,0,0,1,4.41,4.41V636.6A4.42,4.42,0,0,1,1253.68,641Z"/><g class="cls-31"><path class="cls-16" d="M1240.63,634.84h-4.17V621.51h-5.17v-3.15c2.91.09,5.55-.94,6-4.08h3.32Z"/></g><path d="M1253.68,701.11H1220.9a4.42,4.42,0,0,1-4.4-4.41V674.42a4.41,4.41,0,0,1,4.4-4.4h32.78a4.42,4.42,0,0,1,4.41,4.4V696.7A4.42,4.42,0,0,1,1253.68,701.11Z"/><g class="cls-31"><path class="cls-16" d="M1230.2,682.29c-.15-4.69,2.53-8.31,7.46-8.31,3.76,0,7,2.41,7,6.43,0,6.23-6.61,6.73-9.6,11h9.72V695h-15.1c0-4.78,2.94-6.75,6.49-9.19,1.79-1.26,4.32-2.5,4.32-5a3,3,0,0,0-3.08-3.17c-2.47,0-3.26,2.55-3.26,4.72Z"/></g><line class="cls-38" x1="1060.75" y1="625.46" x2="1226" y2="625.46"/><circle cx="1060.94" cy="625.46" r="3.76"/><line class="cls-39" x1="1060.75" y1="625.46" x2="1089.22" y2="625.46"/><path class="cls-16" d="M1060.94,629.22a3.76,3.76,0,1,1,3.76-3.76A3.76,3.76,0,0,1,1060.94,629.22Z"/><line class="cls-38" x1="1060.75" y1="685.56" x2="1226" y2="685.56"/><circle cx="1060.94" cy="685.56" r="3.76"/><line class="cls-38" x1="1060.75" y1="685.56" x2="1226" y2="685.56"/><circle cx="1060.94" cy="685.56" r="3.76"/><line class="cls-39" x1="1060.75" y1="685.56" x2="1089.22" y2="685.56"/><path class="cls-16" d="M1060.94,689.32a3.76,3.76,0,1,1,3.76-3.76A3.76,3.76,0,0,1,1060.94,689.32Z"/><line class="cls-38" x1="1060.75" y1="874.41" x2="1226" y2="874.41"/><circle cx="1060.94" cy="874.41" r="3.76"/><line class="cls-39" x1="1060.75" y1="874.41" x2="1089.22" y2="874.41"/><path class="cls-16" d="M1060.94,878.17a3.76,3.76,0,1,1,3.76-3.76A3.76,3.76,0,0,1,1060.94,878.17Z"/><line class="cls-38" x1="1060.75" y1="935.53" x2="1226" y2="935.53"/><circle cx="1060.94" cy="935.53" r="3.76"/><line class="cls-39" x1="1060.75" y1="935.53" x2="1089.22" y2="935.53"/><path class="cls-16" d="M1060.94,939.29a3.76,3.76,0,1,1,3.76-3.76A3.76,3.76,0,0,1,1060.94,939.29Z"/><line class="cls-38" x1="1060.75" y1="996.9" x2="1226" y2="996.9"/><circle cx="1060.94" cy="996.9" r="3.76"/><line class="cls-39" x1="1060.75" y1="996.9" x2="1089.22" y2="996.9"/><path class="cls-16" d="M1060.94,1000.66a3.76,3.76,0,1,1,3.76-3.76A3.76,3.76,0,0,1,1060.94,1000.66Z"/><line class="cls-38" x1="1060.75" y1="1058.43" x2="1226" y2="1058.43"/><circle cx="1060.94" cy="1058.43" r="3.76"/><line class="cls-39" x1="1060.75" y1="1058.43" x2="1089.22" y2="1058.43"/><path class="cls-16" d="M1060.94,1062.19a3.76,3.76,0,1,1,3.76-3.76A3.76,3.76,0,0,1,1060.94,1062.19Z"/><path d="M377.45,640.08H344.66a4.41,4.41,0,0,1-4.4-4.4V613.4a4.42,4.42,0,0,1,4.4-4.41h32.79a4.42,4.42,0,0,1,4.4,4.41v22.28A4.41,4.41,0,0,1,377.45,640.08Z"/><g class="cls-31"><path class="cls-16" d="M364.39,633.91h-4.17V620.58h-5.17v-3.14c2.91.08,5.55-.94,6-4.09h3.32Z"/></g><path d="M377.45,700.45H344.66a4.41,4.41,0,0,1-4.4-4.4V673.77a4.42,4.42,0,0,1,4.4-4.41h32.79a4.42,4.42,0,0,1,4.4,4.41v22.28A4.41,4.41,0,0,1,377.45,700.45Z"/><g class="cls-31"><path class="cls-16" d="M354,681.64c-.14-4.7,2.53-8.31,7.46-8.31,3.76,0,7.05,2.4,7.05,6.43,0,6.23-6.61,6.72-9.6,11h9.72v3.59h-15.1c0-4.79,2.94-6.76,6.49-9.2,1.8-1.26,4.32-2.49,4.32-5a3,3,0,0,0-3.08-3.17c-2.47,0-3.26,2.55-3.26,4.73Z"/></g><path d="M377.45,763.2H344.66a4.42,4.42,0,0,1-4.4-4.41V736.51a4.41,4.41,0,0,1,4.4-4.4h32.79a4.41,4.41,0,0,1,4.4,4.4v22.28A4.42,4.42,0,0,1,377.45,763.2Z"/><g class="cls-31"><path class="cls-16" d="M359.57,744.79c1.79.15,4.38-.21,4.38-2.56A2.71,2.71,0,0,0,361,739.5c-2.11,0-3.2,1.56-3.17,3.67h-4c.15-4.22,2.85-7.1,7.11-7.1,3.29,0,6.91,2,6.91,5.7A4.1,4.1,0,0,1,365,746v0a4.57,4.57,0,0,1,3.64,4.67c0,4.32-3.64,6.76-7.64,6.76-4.61,0-7.72-2.76-7.64-7.49h4c.09,2.23,1.2,4,3.61,4a3.16,3.16,0,0,0,3.35-3.23c0-3.11-2.73-3-4.76-3Z"/></g><path d="M377.45,887.79H344.66a4.41,4.41,0,0,1-4.4-4.4V861.11a4.42,4.42,0,0,1,4.4-4.41h32.79a4.42,4.42,0,0,1,4.4,4.41v22.28A4.41,4.41,0,0,1,377.45,887.79Z"/><g class="cls-31"><path class="cls-16" d="M367.56,864.52h-8.49l-.82,4.67.06,0a5.25,5.25,0,0,1,4-1.58c4.06,0,6.35,3.14,6.35,7a7.44,7.44,0,0,1-7.64,7.4c-4,0-7.55-2.2-7.64-6.52h4.18a3.27,3.27,0,0,0,3.37,3.08,3.72,3.72,0,0,0,3.56-4A3.53,3.53,0,0,0,361,870.8a3.4,3.4,0,0,0-3.14,1.65h-3.76l2-11.37h11.48Z"/></g><path d="M377.45,949.63H344.66a4.42,4.42,0,0,1-4.4-4.41V922.94a4.42,4.42,0,0,1,4.4-4.41h32.79a4.42,4.42,0,0,1,4.4,4.41v22.28A4.42,4.42,0,0,1,377.45,949.63Z"/><g class="cls-31"><path class="cls-16" d="M364.07,928.17a2.93,2.93,0,0,0-2.76-2.55c-3,0-3.85,4-3.94,6.25l.06.06a5.18,5.18,0,0,1,4.64-2.29,6.54,6.54,0,0,1,4.73,2.12,7,7,0,0,1,1.59,4.58c0,4.2-2.91,7.52-7.2,7.52-6.23,0-7.9-5.44-7.9-10.64s2.23-10.75,8.08-10.75c3.55,0,6.2,2.06,6.67,5.7Zm-6.32,8.43c0,1.91,1.21,3.82,3.32,3.82s3.15-1.88,3.15-3.76-1-3.88-3.15-3.88S357.75,934.58,357.75,936.6Z"/></g><path d="M377.45,823.31H344.66a4.42,4.42,0,0,1-4.4-4.41V796.62a4.42,4.42,0,0,1,4.4-4.41h32.79a4.42,4.42,0,0,1,4.4,4.41V818.9A4.42,4.42,0,0,1,377.45,823.31Z"/><g class="cls-31"><path class="cls-16" d="M362,812.39h-8.69v-3.82l8.93-12H366V809h2.73v3.43H366v4.76h-4Zm0-10.57H362L356.64,809H362Z"/></g><path d="M377.45,1012.46H344.66a4.42,4.42,0,0,1-4.4-4.41V985.77a4.41,4.41,0,0,1,4.4-4.4h32.79a4.41,4.41,0,0,1,4.4,4.4v22.28A4.42,4.42,0,0,1,377.45,1012.46Z"/><g class="cls-31"><path class="cls-16" d="M367.86,989.3c-4.32,3.79-6.64,11.48-6.73,17h-4.46a30,30,0,0,1,6.9-16.69h-9.75v-3.87h14Z"/></g><path d="M377.45,1073.83H344.66a4.41,4.41,0,0,1-4.4-4.4v-22.28a4.42,4.42,0,0,1,4.4-4.41h32.79a4.42,4.42,0,0,1,4.4,4.41v22.28A4.41,4.41,0,0,1,377.45,1073.83Z"/><g class="cls-31"><path class="cls-16" d="M360.87,1046.68c5.11,0,6.87,3.53,6.87,5.53a4.3,4.3,0,0,1-3,4.31v.06a4.79,4.79,0,0,1,3.84,5c0,4.34-3.84,6.46-7.69,6.46s-7.82-2-7.82-6.44a4.86,4.86,0,0,1,3.88-5.05v-.06a4.09,4.09,0,0,1-3-4.23C353.94,1048.59,357.52,1046.68,360.87,1046.68Zm0,18.24a3.38,3.38,0,0,0,3.52-3.46,3.32,3.32,0,0,0-3.52-3.29c-2,0-3.64,1.14-3.64,3.26A3.46,3.46,0,0,0,360.9,1064.92Zm0-9.54c1.73,0,3.08-.94,3.08-2.7,0-1.06-.5-2.85-3.08-2.85a2.87,2.87,0,0,0-3.14,2.85C357.73,1054.44,359.19,1055.38,360.87,1055.38Z"/></g><line class="cls-38" x1="533.97" y1="1058.45" x2="377.92" y2="1058.45"/><line class="cls-39" x1="530.4" y1="1058.45" x2="514.31" y2="1058.45"/><path class="cls-16" d="M530.21,1054.69a3.76,3.76,0,1,1-3.76,3.76A3.76,3.76,0,0,1,530.21,1054.69Z"/><line class="cls-38" x1="530.88" y1="996.75" x2="377.92" y2="996.75"/><path d="M530.69,993a3.76,3.76,0,1,1-3.76,3.76A3.76,3.76,0,0,1,530.69,993Z"/><line class="cls-39" x1="530.88" y1="996.75" x2="514.31" y2="996.75"/><path class="cls-16" d="M530.69,993a3.76,3.76,0,1,1-3.76,3.76A3.76,3.76,0,0,1,530.69,993Z"/><line class="cls-38" x1="530.4" y1="935.33" x2="377.92" y2="935.33"/><path d="M530.21,931.57a3.76,3.76,0,1,1-3.76,3.76A3.76,3.76,0,0,1,530.21,931.57Z"/><line class="cls-39" x1="530.4" y1="935.33" x2="515.13" y2="935.33"/><path class="cls-16" d="M530.21,931.57a3.76,3.76,0,1,1-3.76,3.76A3.76,3.76,0,0,1,530.21,931.57Z"/><line class="cls-38" x1="530.4" y1="874.22" x2="377.92" y2="874.22"/><path d="M530.21,870.46a3.76,3.76,0,1,1-3.76,3.76A3.76,3.76,0,0,1,530.21,870.46Z"/><line class="cls-38" x1="530.4" y1="874.22" x2="377.92" y2="874.22"/><path d="M530.21,870.46a3.76,3.76,0,1,1-3.76,3.76A3.76,3.76,0,0,1,530.21,870.46Z"/><line class="cls-39" x1="530.4" y1="874.22" x2="515.13" y2="874.22"/><path class="cls-16" d="M530.21,870.46a3.76,3.76,0,1,1-3.76,3.76A3.76,3.76,0,0,1,530.21,870.46Z"/><line class="cls-38" x1="530.4" y1="808.56" x2="377.92" y2="808.56"/><path d="M530.21,804.8a3.76,3.76,0,1,1-3.76,3.76A3.76,3.76,0,0,1,530.21,804.8Z"/><line class="cls-39" x1="530.4" y1="808.56" x2="515.13" y2="808.56"/><path class="cls-16" d="M530.21,804.8a3.76,3.76,0,1,1-3.76,3.76A3.76,3.76,0,0,1,530.21,804.8Z"/><line class="cls-38" x1="530.4" y1="747.44" x2="377.92" y2="747.44"/><path d="M530.21,743.68a3.76,3.76,0,1,1-3.76,3.76A3.76,3.76,0,0,1,530.21,743.68Z"/><line class="cls-39" x1="530.4" y1="747.44" x2="515.13" y2="747.44"/><path class="cls-16" d="M530.21,743.68a3.76,3.76,0,1,1-3.76,3.76A3.76,3.76,0,0,1,530.21,743.68Z"/><line class="cls-38" x1="530.4" y1="686.07" x2="377.92" y2="686.07"/><path d="M530.21,682.31a3.76,3.76,0,1,1-3.76,3.76A3.76,3.76,0,0,1,530.21,682.31Z"/><line class="cls-39" x1="530.4" y1="686.07" x2="515.13" y2="686.07"/><path class="cls-16" d="M530.21,682.31a3.76,3.76,0,1,1-3.76,3.76A3.76,3.76,0,0,1,530.21,682.31Z"/><line class="cls-38" x1="530.4" y1="624.54" x2="377.92" y2="624.54"/><path d="M530.21,620.78a3.76,3.76,0,1,1-3.76,3.76A3.76,3.76,0,0,1,530.21,620.78Z"/><line class="cls-39" x1="530.4" y1="624.54" x2="515.13" y2="624.54"/><path class="cls-16" d="M530.21,620.78a3.76,3.76,0,1,1-3.76,3.76A3.76,3.76,0,0,1,530.21,620.78Z"/></g></svg>