<?xml version="1.0" encoding="UTF-8"?>
<svg id="Layer_2" data-name="Layer 2" xmlns="http://www.w3.org/2000/svg" viewBox="0 0 594.7 722.69">
  <defs>
    <style>
      .cls-1 {
        fill: #a6762a;
      }

      .cls-1, .cls-2, .cls-3, .cls-4, .cls-5, .cls-6, .cls-7, .cls-8, .cls-9, .cls-10, .cls-11, .cls-12, .cls-13, .cls-14, .cls-15 {
        stroke-width: 0px;
      }

      .cls-2 {
        fill: #666;
      }

      .cls-16 {
        font-family: Arial-BoldMT, Arial;
        font-size: 30.75px;
        font-weight: 700;
        isolation: isolate;
      }

      .cls-3 {
        fill: #1b1e22;
      }

      .cls-4 {
        fill: #26292e;
      }

      .cls-5 {
        fill: #fff200;
      }

      .cls-6 {
        fill: #956725;
      }

      .cls-7 {
        fill: #e5d1b0;
      }

      .cls-8 {
        fill: #121318;
      }

      .cls-9 {
        fill: #b68f31;
      }

      .cls-10 {
        fill: #31383b;
      }

      .cls-11 {
        fill: #1b1c20;
      }

      .cls-12 {
        fill: #4f5b5b;
      }

      .cls-13 {
        fill: #4c5059;
      }

      .cls-14 {
        fill: #ffeeb6;
      }

      .cls-17 {
        fill: none;
        stroke: #fff200;
        stroke-miterlimit: 12.97;
        stroke-width: 1.44px;
      }

      .cls-15 {
        fill: #1e2628;
      }
    </style>
  </defs>
  <g id="Layer_1-2" data-name="Layer 1">
    <g>
      <rect class="cls-4" x="4.18" y="50.01" width="589.65" height="411.36"/>
      <rect class="cls-13" x="4.18" y="50.01" width="17.44" height="411.36"/>
      <rect class="cls-13" x="565.87" y="50.01" width="17.44" height="411.36"/>
      <circle class="cls-1" cx="134.05" cy="108.25" r="45.83"/>
      <circle class="cls-9" cx="134.05" cy="108.25" r="38.34"/>
      <circle class="cls-6" cx="134.05" cy="108.25" r="35.31"/>
      <circle class="cls-14" cx="134.05" cy="108.25" r="29.98"/>
      <circle class="cls-7" cx="134.05" cy="108.25" r="23.21"/>
      <circle class="cls-6" cx="134.05" cy="108.25" r="6.2"/>
      <path class="cls-11" d="M379.65,406.6h-132.75c-8.07,0-14.56-6.49-14.56-14.56v-34.59c0-8.07,6.49-14.56,14.56-14.56h132.75c8.07,0,14.56,6.49,14.56,14.56v34.59c0,8.07-6.49,14.56-14.56,14.56Z"/>
      <path class="cls-8" d="M367.69,394.5h-109.54c-7.93,0-14.27-6.34-14.27-14.27v-14.56h138.08v14.56c0,7.78-6.34,14.27-14.27,14.27Z"/>
      <rect class="cls-12" x="244.02" y="356.3" width="138.08" height="9.37"/>
      <rect class="cls-15" x="244.02" y="369.99" width="138.08" height="9.37"/>
      <circle class="cls-8" cx="448.69" cy="329.49" r="6.63"/>
      <circle class="cls-8" cx="472.18" cy="329.49" r="6.63"/>
      <circle class="cls-3" cx="134.05" cy="266.36" r="43.24"/>
      <circle class="cls-10" cx="134.05" cy="266.36" r="33.01"/>
      <circle class="cls-3" cx="454.89" cy="266.36" r="43.24"/>
      <circle class="cls-10" cx="454.89" cy="266.36" r="33.01"/>
      <circle class="cls-3" cx="454.89" cy="108.25" r="43.24"/>
      <circle class="cls-10" cx="454.89" cy="108.25" r="33.01"/>
      <rect class="cls-4" width="85.62" height="50.16"/>
      <rect class="cls-4" x="502.6" width="92.1" height="50.16"/>
      <rect class="cls-4" x="85.76" y="34.02" width="442.78" height="16"/>
      <rect class="cls-4" x="108.53" width="18.31" height="50.16"/>
      <rect class="cls-4" x="153.94" width="18.31" height="50.16"/>
      <rect class="cls-4" x="199.34" width="18.31" height="50.16"/>
      <rect class="cls-4" x="374.17" width="18.31" height="50.16"/>
      <rect class="cls-4" x="286.83" width="18.31" height="50.16"/>
      <rect class="cls-4" x="419.58" width="18.31" height="50.16"/>
      <rect class="cls-4" x="465.12" width="18.31" height="50.16"/>
      <rect class="cls-4" x="247.33" width="95.27" height="13.12"/>
      <rect class="cls-4" y="460.37" width="85.62" height="50.16"/>
      <rect class="cls-4" x="502.6" y="460.37" width="92.1" height="50.16"/>
      <rect class="cls-4" x="85.76" y="460.37" width="442.78" height="16"/>
      <rect class="cls-4" x="108.53" y="460.37" width="18.31" height="50.16"/>
      <rect class="cls-4" x="153.94" y="460.37" width="18.31" height="50.16"/>
      <rect class="cls-4" x="199.34" y="460.37" width="18.31" height="50.16"/>
      <rect class="cls-4" x="374.17" y="460.37" width="18.31" height="50.16"/>
      <rect class="cls-4" x="286.83" y="460.37" width="18.31" height="50.16"/>
      <rect class="cls-4" x="419.58" y="460.37" width="18.31" height="50.16"/>
      <rect class="cls-4" x="465.12" y="460.37" width="18.31" height="50.16"/>
      <rect class="cls-4" x="247.33" y="497.26" width="95.27" height="13.12"/>
      <path class="cls-2" d="M268.38,674.69h-5.77v-3.46h15.57v3.46h-5.77v15.57h-4.18v-15.57h.14Z"/>
      <path class="cls-2" d="M280.49,671.09h13.4v3.46h-9.22v4.47h7.93v3.32h-7.93v7.93h-4.18v-19.17Z"/>
      <path class="cls-2" d="M316.38,677.58c-.29-1.87-2.16-3.32-4.18-3.32-3.75,0-5.19,3.17-5.19,6.49s1.44,6.34,5.19,6.34c2.59,0,4.04-1.73,4.32-4.32h4.04c-.43,4.76-3.75,7.78-8.36,7.78-5.91,0-9.37-4.47-9.37-9.95s3.46-10.09,9.37-10.09c4.18,0,7.64,2.45,8.22,6.92l-4.04.14Z"/>
      <path class="cls-2" d="M322.86,680.6c.14-3.46,3.32-4.61,6.49-4.61,2.74,0,6.05.58,6.05,3.89v7.21c0,1.3.14,2.45.43,3.03h-3.89c-.14-.43-.29-.86-.29-1.3-1.15,1.3-2.88,1.73-4.61,1.73-2.59,0-4.76-1.3-4.76-4.18,0-6.2,9.37-2.88,9.22-6.05,0-1.59-1.15-1.87-2.45-1.87-1.44,0-2.31.58-2.45,2.02h-3.75v.14ZM331.65,683.49c-.58.58-2.02.58-3.17.86-1.15.14-2.31.58-2.31,2.02s1.15,1.73,2.31,1.73c3.03,0,3.03-2.31,3.03-3.17v-1.44h.14Z"/>
      <path class="cls-2" d="M338.43,676.42h3.6v2.59c.72-1.73,2.45-2.88,4.47-2.88.29,0,.58,0,.86.14v3.46c-.29-.14-.86-.14-1.3-.14-2.74,0-3.75,2.02-3.75,4.47v6.2h-3.75l-.14-13.84Z"/>
      <path class="cls-2" d="M358.61,688.39c-.86,1.44-2.45,2.16-4.18,2.16-4.18,0-6.2-3.6-6.2-7.35s2.02-7.21,6.05-7.21c1.59,0,3.17.72,4.04,2.02v-6.92h3.75v19.03h-3.6v-1.73h.14ZM355.29,678.87c-2.45,0-3.32,2.16-3.32,4.47,0,2.16,1.01,4.47,3.32,4.47,2.45,0,3.32-2.16,3.32-4.47-.14-2.31-.86-4.47-3.32-4.47Z"/>
      <path class="cls-2" d="M302.68,708.71c-.29-2.74-2.02-3.89-4.76-3.89-2.16,0-4.32.72-4.32,3.32,0,4.76,12.25,1.44,12.25,8.94,0,4.04-4.04,5.62-7.5,5.62-4.32,0-7.93-2.16-7.93-6.77h2.45c0,3.17,2.59,4.61,5.48,4.61,2.31,0,4.76-.72,4.76-3.46,0-5.19-12.25-1.73-12.25-8.79,0-3.89,3.46-5.62,6.92-5.62,3.89,0,6.92,1.87,7.06,6.05h-2.16Z"/>
      <rect class="cls-2" x="308.59" y="703.09" width="2.31" height="19.03"/>
      <path class="cls-2" d="M320.41,708.13c4.32,0,6.63,3.17,6.63,7.21s-2.31,7.21-6.63,7.21-6.63-3.17-6.63-7.21c-.14-4.04,2.16-7.21,6.63-7.21ZM320.41,720.53c2.31,0,4.32-1.87,4.32-5.19s-1.87-5.19-4.32-5.19c-2.31,0-4.32,1.87-4.32,5.19s1.87,5.19,4.32,5.19Z"/>
      <path class="cls-2" d="M332.81,708.42h2.74v2.02h-2.74v8.5c0,1.01.29,1.3,1.73,1.3h1.01v2.02h-1.73c-2.31,0-3.32-.43-3.32-3.03v-8.79h-2.31v-2.02h2.31v-4.18h2.31v4.18Z"/>
      <g>
        <path class="cls-17" d="M312.92,415.97v231.48"/>
        <path class="cls-5" d="M307.58,647.16c0,3.03,2.45,5.48,5.48,5.48s5.48-2.45,5.48-5.48-2.45-5.48-5.48-5.48-5.48,2.45-5.48,5.48Z"/>
      </g>
      <text class="cls-16" transform="translate(372.76 600.92)"><tspan x="0" y="0">Status LEDs</tspan></text>
      <g>
        <path class="cls-17" d="M460.65,344.19v210.44"/>
        <ellipse class="cls-5" cx="460.65" cy="554.2" rx="5.48" ry="7.06"/>
      </g>
      <rect class="cls-17" x="428.22" y="316.66" width="64.86" height="27.53"/>
    </g>
  </g>
</svg>