<?xml version="1.0" encoding="utf-8"?>
<!-- Generator: Adobe Illustrator 26.0.1, SVG Export Plug-In . SVG Version: 6.00 Build 0)  -->
<svg version="1.1" id="Layer_1" xmlns="http://www.w3.org/2000/svg" xmlns:xlink="http://www.w3.org/1999/xlink" x="0px" y="0px"
	 viewBox="0 0 644.7 475.7" style="enable-background:new 0 0 644.7 475.7;" xml:space="preserve">
<style type="text/css">
	.st0{fill:#C0BFBF;}
	.st1{opacity:0.3;}
	.st2{fill:#E0AC52;}
	.st3{fill:#D3D3D3;}
	.st4{fill:none;}
	.st5{fill:#EBF4FB;}
	.st6{fill:#333E49;}
	.st7{fill:#222630;}
	.st8{fill:#BE8E3E;}
	.st9{fill:#96908A;}
	.st10{fill:#C0B5AB;}
	.st11{fill:#FFFFFF;}
	.st12{fill:#7F8080;}
	.st13{fill:#333333;}
	.st14{fill:#B3B3B3;}
	.st15{fill:#EB2627;}
	.st16{fill:#6B70B4;}
</style>
<g>
	<g>
		<path class="st0" d="M379.4,123.7H0v228.4h379.4V123.7z M290.5,312.4L290.5,312.4c6.3,0,11.4,5.1,11.4,11.4s-5.1,11.4-11.4,11.4
			s-11.4-5.1-11.4-11.4c0,0,0,0,0,0C279.1,317.5,284.2,312.4,290.5,312.4z M25.7,234.7c6.3,0,11.4,5.1,11.4,11.3
			c0,6.3-5.1,11.4-11.3,11.4s-11.4-5.1-11.4-11.4c0,0,0,0,0,0C14.3,239.8,19.4,234.7,25.7,234.7z M352.1,141.5
			c6.3,0,11.4,5.1,11.4,11.4c0,6.3-5.1,11.4-11.4,11.4c-6.3,0-11.4-5.1-11.4-11.4c0,0,0,0,0,0C340.8,146.6,345.9,141.5,352.1,141.5z
			"/>
	</g>
	<g class="st1">
		<g>
			<path class="st2" d="M25.7,225.1L25.7,225.1c-11.7,0-21.1,9.4-21,21s9.4,21,21,21s21-9.4,21-21C46.6,234.5,37.2,225.1,25.7,225.1
				z M25.7,234.7c6.3,0,11.4,5.1,11.4,11.3c0,6.3-5.1,11.4-11.3,11.4s-11.4-5.1-11.4-11.4c0,0,0,0,0,0
				C14.3,239.8,19.4,234.7,25.7,234.7z"/>
		</g>
	</g>
	<g class="st1">
		<g>
			<path class="st2" d="M311.2,323.2c0-11.5-9.4-20.9-20.9-20.8s-20.9,9.4-20.8,20.9c0,11.5,9.4,20.9,20.9,20.8
				C301.9,344.1,311.2,334.8,311.2,323.2L311.2,323.2z M290.1,312.2c6.3,0,11.4,5.1,11.4,11.4c0,6.3-5.1,11.4-11.4,11.4
				c-6.3,0-11.4-5.1-11.4-11.4c0,0,0,0,0,0C278.7,317.3,283.8,312.2,290.1,312.2C290.1,312.2,290.1,312.2,290.1,312.2L290.1,312.2z"
				/>
		</g>
	</g>
	<g class="st1">
		<g>
			<path class="st2" d="M372.5,152.4c0-11.5-9.3-20.8-20.8-20.7c0,0,0,0,0,0l0,0c-11.5,0-20.8,9.4-20.8,20.9s9.4,20.8,20.9,20.8
				C363.2,173.2,372.5,163.9,372.5,152.4L372.5,152.4z M340.5,152.6v-0.1c0-6.3,5.2-11.4,11.5-11.3c6.3,0,11.4,5.2,11.3,11.5
				c0,6.3-5.1,11.3-11.4,11.3C345.6,164,340.6,158.9,340.5,152.6C340.6,152.7,340.6,152.6,340.5,152.6L340.5,152.6z"/>
		</g>
	</g>
	<g id="Back_Labels">
		<g>
			<path class="st3" d="M142.2,207.7c1.4,0,2.9,0.2,4.2,0.8c1.2,0.5,2.3,1.2,3.2,2.1c0.9,0.9,1.5,1.9,2,3c0.5,1.2,0.7,2.5,0.7,3.8
				c0,1.9-0.4,3.7-1.3,5.4c-1,1.6-2.5,2.8-4.2,3.4l0,0c0.9,0.2,1.7,0.6,2.4,1.2c0.6,0.5,1.1,1.2,1.5,1.9c0.4,0.8,0.7,1.6,0.8,2.4
				c0.2,0.9,0.3,1.7,0.4,2.6v2c0,0.8,0,1.5,0.2,2.3c0.1,0.8,0.2,1.5,0.4,2.2c0.1,0.6,0.4,1.2,0.8,1.8h-7.5c-0.4-1.2-0.7-2.5-0.8-3.8
				c-0.1-1.5-0.2-2.9-0.4-4.4c-0.1-1.5-0.6-3-1.6-4.1c-1.2-1-2.7-1.4-4.2-1.3h-7.6v13.6h-7.6v-34.8H142.2z M139.4,223.5
				c1.4,0.1,2.9-0.3,4-1.2c1-1,1.4-2.4,1.3-3.8c0.1-1.4-0.4-2.8-1.3-3.8c-1.1-0.9-2.6-1.3-4-1.1H131v9.8L139.4,223.5z"/>
		</g>
		<g>
			<path class="st3" d="M175.1,207.7l13.1,34.9h-8l-2.6-7.6h-13l-2.7,7.6h-7.6l13.2-34.9L175.1,207.7z M175.6,229.1l-4.4-12.8l0,0
				l-4.7,12.8L175.6,229.1z"/>
		</g>
		<g>
			<polygon class="st3" points="197.5,207.7 197.5,222.2 211.1,207.7 220.7,207.7 207.1,221.5 222,242.6 212.4,242.6 201.9,226.9 
				197.5,231.4 197.5,242.6 189.8,242.6 189.8,207.7 			"/>
		</g>
		<g>
			<path class="st3" d="M88.8,215c1.7,0,3.3,0.2,4.8,0.8l0,0c0,0,1.1,0.5,0.9,2.5c0,1.5-1.3,2.7-2.8,2.7h-9.1v-3.8
				c0-0.5-0.1-1.1-0.3-1.6c1.8-0.5,3.7-0.8,5.7-1h0.8"/>
		</g>
		<g>
			<path class="st3" d="M89.8,208.1h1.8c1,0,2.4,0.2,2.8,1c0.4,0.7,0.5,1.6,0.3,2.4c-0.1,0.6-0.4,1.1-0.8,1.5
				c-0.2,0.2-0.3,0.4-0.5,0.5c-1.5-0.4-3-0.6-4.5-0.6h-1.3c-2.2,0.2-4.3,0.6-6.4,1.2c-0.5-0.4-1.1-0.7-1.7-0.9l-0.8-0.3
				c1.6-1.6,3.6-2.9,5.7-3.8C86.1,208.5,87.9,208.1,89.8,208.1"/>
		</g>
		<g>
			<path class="st3" d="M88.7,200.3h0.7c4.2,0.2,4.8,0.8,4.8,3c-0.1,1.1-0.7,2-1.6,2.7h-2.4c-1.7,0-3.4,0.2-5,0.7
				c-2.5,0.8-4.9,2-6.9,3.8c-0.9,0.8-1.8,1.7-2.7,2.7c-0.5,0.2-0.9,0.4-1.3,0.8l-0.3,0.3c-0.4-0.4-0.9-0.7-1.4-1
				c-0.6-0.3-1.2-0.4-1.9-0.4c1.3-2.9,3.1-5.5,5.5-7.6c3.5-2.9,7.9-4.6,12.4-4.8l0,0"/>
		</g>
		<g>
			<path class="st3" d="M93.6,222.9c0.5,1.9,0.8,3.8,1,5.7c0.2,1.9-0.1,3.8-0.8,5.6l0,0c0,0-0.4,0.9-2,0.9h-0.5
				c-1.5,0-2.7-1.3-2.7-2.8c0,0,0,0,0,0l0,0l0,0v-9h3.6c0.5,0,1.1-0.1,1.6-0.3"/>
		</g>
		<g>
			<path class="st3" d="M96.7,219.2c1.6,1.6,2.9,3.6,3.8,5.7c0.8,2.1,1.1,4.3,1,6.5v0.7c0,1,0,2.4-1,2.8c-0.5,0.3-1,0.4-1.6,0.5
				c-0.3,0-0.6,0-0.8,0c-0.6-0.1-1.1-0.4-1.6-0.8l-0.5-0.5c0.5-1.9,0.7-3.9,0.5-5.8c-0.2-2.2-0.6-4.3-1.2-6.4c0.4-0.5,0.8-1.1,1-1.7
				c0.1-0.3,0.2-0.6,0.3-0.9"/>
		</g>
		<g>
			<path class="st3" d="M96.9,211.3c2.9,1.3,5.5,3.1,7.6,5.5c3.1,3.7,4.8,8.4,4.7,13.2c0,4.2-0.8,4.8-3,4.8c-1.1-0.1-2-0.7-2.7-1.6
				c0.3-2.5,0.1-5-0.5-7.4c-0.8-2.6-2.1-4.9-3.8-6.9c-0.9-0.9-1.7-1.8-2.7-2.6c-0.2-0.5-0.4-0.9-0.8-1.3c-0.1-0.1-0.2-0.3-0.4-0.4
				c0.4-0.4,0.8-0.9,1.1-1.4C96.7,212.6,96.8,212,96.9,211.3"/>
		</g>
		<g>
			<path class="st3" d="M86.5,229.1v3.8c0,0.6,0.1,1.1,0.3,1.6c-1.9,0.5-3.8,0.8-5.7,0.9h-0.8c-1.7,0.1-3.3-0.2-4.9-0.8l0,0
				c0,0-1.1-0.5-0.9-2.5c0.1-1.5,1.3-2.7,2.9-2.7h9.1"/>
		</g>
		<g>
			<path class="st3" d="M88,236.1c0.5,0.4,1.1,0.8,1.7,1l0.9,0.3c-1.7,1.6-3.6,2.9-5.8,3.8c-1.7,0.6-3.6,1-5.4,1h-1.8
				c-1,0-2.3,0-2.7-1c-0.4-0.7-0.5-1.6-0.3-2.4c0.1-0.6,0.4-1.1,0.8-1.6l0.6-0.5c1.5,0.4,3,0.6,4.5,0.6h1.3
				C83.8,237,85.9,236.6,88,236.1"/>
		</g>
		<g>
			<path class="st3" d="M95.1,236c0.8,0.9,2,1.5,3.3,1.5c-1.2,2.9-3.1,5.5-5.5,7.6c-3.5,2.9-7.9,4.6-12.4,4.7h-0.7
				c-4.2,0-4.8-0.8-4.9-3c0.2-1,0.7-2,1.6-2.6h2.4c1.7,0,3.4-0.2,5-0.6c2.6-0.8,4.9-2.1,6.9-3.8c0.9-0.8,1.8-1.7,2.7-2.7
				c0.5-0.2,0.9-0.4,1.3-0.8L95.1,236"/>
		</g>
		<g>
			<path class="st3" d="M77.3,215.1h0.5c1.5,0.1,2.7,1.3,2.7,2.9v9.1h-3.8c-0.5,0-1.1,0.1-1.6,0.3c-0.5-1.9-0.8-3.8-1-5.7
				c-0.1-1.9,0.2-3.8,0.8-5.6l0,0c0,0,0.4-0.9,2-0.9"/>
		</g>
		<g>
			<path class="st3" d="M70.1,214.9h0.8c0.6,0.1,1.1,0.4,1.5,0.8l0.5,0.6c-0.5,1.9-0.7,3.9-0.6,5.8c0.2,2.2,0.6,4.3,1.2,6.4
				c-0.4,0.5-0.8,1.1-1,1.7c-0.1,0.3-0.2,0.6-0.3,0.8c-1.6-1.6-2.9-3.6-3.8-5.7c-0.8-2.1-1.1-4.3-1-6.5V218c0-1.1,0-2.4,1-2.8
				c0.5-0.3,1-0.4,1.6-0.5"/>
		</g>
		<g>
			<path class="st3" d="M62.8,215.6c1.1,0.1,2.1,0.7,2.7,1.6c-0.3,2.5-0.1,5,0.5,7.4c0.8,2.6,2.1,4.9,3.8,6.9
				c0.8,0.9,1.7,1.8,2.7,2.7c0.2,0.5,0.4,0.9,0.8,1.3l0.3,0.3c-0.4,0.4-0.8,0.9-1.1,1.4c-0.2,0.6-0.4,1.2-0.4,1.9
				c-2.9-1.2-5.5-3.1-7.6-5.5c-3.1-3.7-4.8-8.3-4.7-13.1C60,216.2,60.6,215.6,62.8,215.6L62.8,215.6"/>
		</g>
		<g>
			<path class="st3" d="M227.2,206.8c2.9,0.1,5.2,2.5,5.1,5.4s-2.5,5.2-5.4,5.1c-2.9-0.1-5.2-2.4-5.1-5.3c0-2.9,2.3-5.3,5.2-5.3
				C227,206.7,227.1,206.7,227.2,206.8z M227.2,216.2c2.3-0.1,4.1-2.1,4-4.4c-0.1-2.1-1.8-3.9-4-4c-2.3,0.1-4.1,2.1-4,4.4
				C223.3,214.4,225,216.1,227.2,216.2z M225.1,209.1h2.2c1.5,0,2.3,0.5,2.3,1.8c0.1,0.8-0.6,1.5-1.4,1.6c-0.1,0-0.1,0-0.2,0
				l1.6,2.6h-1.2l-1.4-2.5h-0.7v2.5h-1.2L225.1,209.1z M226.2,211.5h1.1c0.7,0,1.2-0.1,1.2-0.8s-0.7-0.7-1.2-0.7h-1L226.2,211.5z"/>
		</g>
		<g id="dispose-properly">
			<g id="Layer_2-2">
				<g id="Layer_1-2">
					<g>
						<path class="st3" d="M70.5,275.2c-0.2-1.8-1.8-3.1-3.6-2.9c-1.8,0.2-3.1,1.8-2.9,3.6c0.2,1.5,1.3,2.7,2.8,2.9
							c0.2,0,0.4,0,0.6,0h0.3C69.4,278.6,70.7,277,70.5,275.2 M66.7,275.5c0-0.4,0.4-0.7,0.8-0.7c0.3,0,0.6,0.3,0.7,0.6l0,0
							c0,0.3-0.1,0.5-0.3,0.6c-0.3,0.3-0.8,0.3-1.1,0c-0.1-0.1-0.1-0.3,0-0.5"/>
					</g>
					<g>
						<path class="st3" d="M132.7,263.4v-2.9h-10.4v7.1c-8.1,0.8-16.2,1.5-24.3,2.2c-5.5,0.5-11.1,1-16.7,1.5l-10.7-10.2l-1.6,1.6
							l9.3,8.9h-2.1c-1-2.5-3-4.5-5.6-5.4c-4.9-2-10.6,0.3-12.6,5.3c-2,4.9,0.2,10.4,5,12.5c0.3,0.1,0.5,0.2,0.8,0.3v19.4h-7v5.7h7
							c0,0.7,0.5,1.3,1.2,1.4l16.2,1.5l-10.7,10.2l1.6,1.6l12-11.4c4.6,0.4,9.2,0.8,13.8,1.2c9.1,0.8,18.2,1.7,27.3,2.5l13.4,12.9
							l1.6-1.6L129,317l7.1,0.7v4.1h4.2V318h1c0.4,0.1,0.8-0.1,1.1-0.4c1.6-1.8,2.9-3.8,3.8-6h3.2v-6.3h-1.2
							c0.5-2.6,0.9-5.3,1.1-7.9h1.7v-15h-2.2c-0.4-3.4-1.2-6.7-2.3-9.9c-0.7-1.7-1.6-3.3-2.6-4.7c0.6-0.5,1.1-1.1,1.3-1.8
							c0.8-1.9,0-4.2-2-5c0,0,0,0,0,0l-0.3-0.1c-2.1-0.8-4.3,0.3-5.1,2.3h-1.6v3.1c-1.1,0-2.2,0.2-3.4,0.3l0,0l3.4-3.3l5.8-5.6
							l-1.6-1.6L132.7,263.4z M143.2,264.7c0,0.6-0.3,1.2-0.8,1.5c-0.3-0.3-0.7-0.4-1.1-0.4h-1v-2.7c0.8-0.6,1.9-0.5,2.5,0.3
							c0.3,0.3,0.4,0.7,0.4,1.1l0,0 M146.6,294.7V285h2.1v9.8L146.6,294.7z M142.6,309.4V308h4.4v1.4L142.6,309.4z M140.8,315.5
							c-0.2,0-0.4,0-0.5,0V312h2.9C142.5,313.3,141.7,314.5,140.8,315.5 M98.2,311.8c-3.8-0.3-7.6-0.7-11.4-1.1l15.9-15.2L122,314
							C114,313.2,106.1,312.5,98.2,311.8 M62.1,306.6v1.2h-3.4v-1.2H62.1z M67.2,285.6L67.2,285.6c5.3,0,9.6-4.3,9.6-9.7V275
							c1.4,0,2.7-0.2,4.1-0.4l20.2,19.3l-17.2,16.5c-5.8-0.5-11.4-1-17.3-1.6v-23.7h0.6 M67.2,270.4c2.7,0,5,2.1,5.2,4.8v0.5
							c0,2.8-2.2,5-4.9,5c0,0,0,0-0.1,0l0,0c-0.2,0-0.4,0-0.7,0c-2.8-0.2-4.9-2.6-4.7-5.4c0.2-2.8,2.6-4.9,5.4-4.7 M98.4,272.9
							c8-0.8,16-1.5,24-2.2h2.8l-8,7.6h-2.8v2.7L103,292l-19-18c4.8-0.4,9.6-0.9,14.3-1.3 M117.8,280.8h1v14.6h-2v-13.7L117.8,280.8
							z M132.7,269.4l3.4-0.3v45.8c-3.5-0.3-6.9-0.6-10.4-1l-21.1-20.4l9.9-9.5V298h6.6v-19.7h-0.7l8-7.6h4.2L132.7,269.4
							 M140.3,268.8c0.2,0,0.4,0,0.5,0c1.2,1.5,2.2,3.1,2.9,4.9c1,2.9,1.7,5.9,2.1,8.9h-1.7v14.9h2.2c-0.2,2.7-0.6,5.3-1.1,7.9h-4.9
							L140.3,268.8 M130.3,265.7l-1.4,1.3c-1.4,0.1-2.8,0.2-4.2,0.4v-4.3h5.6L130.3,265.7z"/>
					</g>
				</g>
			</g>
		</g>
		<g>
			<path class="st3" d="M264.6,292l-87,42.2v-84.5L264.6,292z M269.4,292l-93.8-45.7v91.3L269.4,292z"/>
		</g>
		<g>
			
				<rect x="183.2" y="298.1" transform="matrix(0.4927 -0.8702 0.8702 0.4927 -152.1521 337.3248)" class="st3" width="60.1" height="2.1"/>
		</g>
		<g>
			
				<rect x="174.3" y="298.9" transform="matrix(0.4927 -0.8702 0.8702 0.4927 -155.691 332.7585)" class="st3" width="66.4" height="2.1"/>
		</g>
		<g>
			<path class="st3" d="M224.2,279.9l1-1.9c3.5,1.8,6.9,3.9,10.1,6.1c3.9,2.8,7.4,18.1,7.6,19.8l-2,0.4c-1.3-6.2-4.3-16.8-6.8-18.5
				C231,283.7,227.7,281.8,224.2,279.9"/>
		</g>
		<g>
			<path class="st3" d="M208.7,306.2l1.8-1c1.5,2.4,4.2,3.9,7,3.7c3.2,0,6.5,0.5,9.5,1.5l-0.7,2c-2.8-1-5.7-1.5-8.7-1.5
				c-3.7,0.2-7.2-1.7-9-4.9"/>
		</g>
		<g>
			<path class="st3" d="M197.6,284v-0.8c0.6-4.3,14.1-9.8,14.2-9.9c3.4-1,7.1,0.1,9.5,2.7l-1.5,1.4c-1.9-2.1-4.7-2.9-7.4-2.2
				c-5.9,2.4-12.7,6.4-12.9,8.2c0,1,0,1.5,0.3,1.7s1.1,0,2.1-0.9c3.1-2.4,6.8-3.9,10.7-4.4c1.8,0.6,3.5,1.4,5,2.5l-1.1,1.8
				c-1.3-0.8-2.7-1.5-4.2-2c-3.2,0.7-6.3,2-9,4c-2.2,1.8-3.7,1.4-4.4,1c-1-0.6-1.6-1.8-1.4-3"/>
		</g>
		<g>
			<path class="st3" d="M193.5,292.2c0-0.4,0.1-0.9,0.3-1.3c0.4-0.8,1.3-1.6,3.7-1.3c4.7,0.6,12,6.6,12.4,6.9l-1.3,1.6
				c-3.3-2.9-7.1-5-11.3-6.4c-0.9,0-1.4,0-1.5,0.2c0.2,1.4,0.8,2.7,1.7,3.7c2.8,2.5,5.7,4.7,8.9,6.7l-1.1,1.8
				c-3.3-2-6.5-4.3-9.4-6.8c-1.3-1.3-2.1-3-2.3-4.9"/>
		</g>
		<g>
			<path class="st3" d="M201,291.5c0.5-3,1.7-5.9,3.4-8.5l1.8,1.1c-2.1,3.4-3.7,7.1-3.1,7.8c0.5,0.2,1,0.2,1.5,0
				c1.8-0.9,3.1-2.5,3.7-4.3c0.5-1.6,1.7-2.8,3.2-3.4c1.6-0.3,3.2,0.1,4.5,1.1l-1.1,1.7c-0.9-0.6-1.9-1.1-2.8-0.9s-1.4,1-1.9,2.3
				c-0.8,2.5-2.6,4.6-5,5.6c-1.1,0.3-2.2,0.2-3.2-0.4c-0.5-0.3-0.9-0.8-1-1.3L201,291.5"/>
		</g>
		<g>
			<rect x="257.8" y="288" class="st3" width="2.1" height="8.3"/>
		</g>
		<g>
			<rect x="252.8" y="285.6" class="st3" width="2.1" height="12.8"/>
		</g>
		<g>
			<rect x="247.7" y="283.1" class="st3" width="2.1" height="17.8"/>
		</g>
		<g>
			<rect x="242.6" y="280.6" class="st3" width="2.1" height="22.7"/>
		</g>
		<g>
			<rect x="237.6" y="278.6" class="st3" width="2.1" height="13.5"/>
		</g>
		<g>
			<rect x="232.5" y="275.7" class="st3" width="2.1" height="8.5"/>
		</g>
		<g>
			<rect x="227.4" y="273.7" class="st3" width="2.1" height="7.2"/>
		</g>
		<g>
			<rect x="217.2" y="268.3" class="st3" width="2.1" height="6.7"/>
		</g>
		<g>
			<rect x="217.2" y="310.3" class="st3" width="2.1" height="5.4"/>
		</g>
		<g>
			<rect x="212.2" y="265.8" class="st3" width="2.1" height="8.6"/>
		</g>
		<g>
			<rect x="212.2" y="309.4" class="st3" width="2.1" height="8.6"/>
		</g>
		<g>
			<rect x="207.1" y="263.8" class="st3" width="2.1" height="12.4"/>
		</g>
		<g>
			<rect x="207.1" y="308.3" class="st3" width="2.1" height="12.4"/>
		</g>
		<g>
			<rect x="202" y="260.8" class="st3" width="2.1" height="18.2"/>
		</g>
		<g>
			<rect x="202" y="301.5" class="st3" width="2.1" height="6.5"/>
		</g>
		<g>
			<rect x="202" y="317.2" class="st3" width="2.1" height="5.5"/>
		</g>
		<g>
			<rect x="196.9" y="258.4" class="st3" width="2.1" height="32.2"/>
		</g>
		<g>
			<rect x="196.9" y="297.7" class="st3" width="2.1" height="19.6"/>
		</g>
		<g>
			<rect x="191.9" y="256.7" class="st3" width="2.1" height="68.9"/>
		</g>
		<g>
			<rect x="186.8" y="253.4" class="st3" width="2.1" height="77"/>
		</g>
		<g>
			<rect x="181.7" y="250.8" class="st3" width="2.1" height="82.1"/>
		</g>
		<g>
			<polygon class="st3" points="196.7,188.7 176.6,188.7 176.6,186.7 194.7,186.7 194.7,161.9 196.7,161.9 			"/>
		</g>
		<g>
			<polygon class="st3" points="84,188.7 64.3,188.7 64.3,161.9 66.3,161.9 66.3,186.7 84,186.7 			"/>
		</g>
		<g>
			<line class="st4" x1="175.6" y1="130.6" x2="85.3" y2="130.6"/>
		</g>
		<g>
			<polygon class="st3" points="365.7,203.9 364.7,203.9 364.7,190.8 329.4,190.8 329.4,203.9 328.4,203.9 328.4,189.8 365.7,189.8 
							"/>
		</g>
		<g>
			<polygon class="st3" points="365.7,346.3 328.4,346.3 328.4,330.6 329.4,330.6 329.4,345.3 364.7,345.3 364.7,330.6 365.7,330.6 
							"/>
		</g>
	</g>
	<g>
		<path class="st5" d="M332.5,196.1v-1.3c0-1.2,1-2.2,2.2-2.2l0,0h23.2c1.2,0,2.2,1,2.2,2.2l0,0v1.3c0,1.2-1,2.2-2.2,2.2l0,0h-23.2
			C333.5,198.3,332.5,197.3,332.5,196.1L332.5,196.1"/>
	</g>
	<g>
		<path class="st5" d="M332.5,339.7v-1.3c0-1.2,1-2.2,2.2-2.2l0,0h23.2c1.2,0,2.2,1,2.2,2.2l0,0l0,0v1.3c0,1.2-1,2.2-2.2,2.2l0,0
			h-23.2C333.5,341.9,332.5,340.9,332.5,339.7L332.5,339.7L332.5,339.7"/>
	</g>
	<g>
		<path class="st6" d="M352.6,343.2h2.2c1.2,0,2.1-1,2.2-2.2v-4.5c0-0.9-0.6-1.6-1.4-2V199.8c0.8-0.3,1.4-1.2,1.4-2.1v-4.5
			c0-1.2-1-2.2-2.2-2.2h-2.2c-0.9,0-1.8,0.6-2,1.6h-8.7c-0.3-0.9-1.1-1.5-2-1.6h-2.2c-1.2,0-2.2,1-2.2,2.2v4.5
			c0,0.9,0.6,1.8,1.5,2.1v134.7c-0.8,0.3-1.4,1.1-1.5,2v4.5c0,1.2,1,2.2,2.2,2.2h0h2.2c0.9,0,1.7-0.5,2-1.4h8.8
			C351,342.7,351.8,343.2,352.6,343.2z"/>
	</g>
	<g>
		<path class="st7" d="M338.7,331.2V202.8c0-1,0.5-1.8,1.1-1.8h12.2c0.6,0,1.1,0.8,1.1,1.8v128.4c0,1-0.5,1.8-1.1,1.8h-12.1
			C339.3,333,338.8,332.2,338.7,331.2"/>
	</g>
	<g>
		<path class="st5" d="M364.6,209.2v-2.5c0-0.4-0.3-0.6-0.6-0.7h-2.2c-0.3,0-0.6,0.2-0.7,0.6l0,0h-5.9v2.6h5.9
			c0,0.3,0.3,0.6,0.6,0.6h2.2C364.3,209.8,364.6,209.5,364.6,209.2L364.6,209.2"/>
	</g>
	<g>
		<path class="st8" d="M353,208.9v-3.3c0-0.3,0.2-0.5,0.5-0.5h1.6c0.3,0,0.5,0.2,0.5,0.4c0,0,0,0,0,0v3.4c0,0.3-0.2,0.5-0.5,0.5l0,0
			h-1.6C353.2,209.4,353,209.2,353,208.9L353,208.9"/>
	</g>
	<g>
		<path class="st5" d="M327.4,209.2v-2.5c0-0.4,0.3-0.6,0.6-0.7h2.2c0.3,0,0.6,0.2,0.7,0.6c0,0,0,0,0,0l0,0h5.9v2.6H331
			c0,0.3-0.3,0.6-0.6,0.6h-2.2C327.8,209.8,327.5,209.5,327.4,209.2L327.4,209.2"/>
	</g>
	<g>
		<path class="st8" d="M339,208.9v-3.3c0-0.3-0.2-0.5-0.5-0.5h-1.6c-0.3,0-0.5,0.2-0.5,0.5c0,0,0,0,0,0v3.4c0,0.3,0.2,0.5,0.5,0.5
			l0,0h1.6C338.8,209.5,339,209.2,339,208.9L339,208.9"/>
	</g>
	<g>
		<path class="st5" d="M364.6,215.3v-2.5c0-0.4-0.3-0.7-0.6-0.7h-2.2c-0.4,0-0.7,0.3-0.7,0.7l0,0h-5.9v2.5h5.9
			c0,0.4,0.3,0.7,0.7,0.7l0,0h2.2C364.3,216,364.6,215.6,364.6,215.3"/>
	</g>
	<g>
		<path class="st8" d="M353,215v-3.3c0-0.3,0.2-0.5,0.5-0.5c0,0,0,0,0,0h1.7c0.3,0,0.5,0.2,0.5,0.5l0,0v3.3c0,0.3-0.2,0.5-0.5,0.5
			l0,0h-1.6C353.2,215.5,353,215.3,353,215L353,215"/>
	</g>
	<g>
		<path class="st5" d="M327.4,215.3v-2.5c0-0.4,0.3-0.7,0.6-0.7h2.2c0.4,0,0.7,0.3,0.7,0.7l0,0h5.9v2.5H331c0,0.4-0.3,0.7-0.7,0.7
			l0,0h-2.2C327.8,215.9,327.5,215.6,327.4,215.3"/>
	</g>
	<g>
		<path class="st8" d="M339,215v-3.3c0-0.3-0.2-0.5-0.4-0.5c0,0,0,0,0,0h-1.7c-0.3,0-0.5,0.2-0.5,0.5l0,0v3.3c0,0.3,0.2,0.5,0.5,0.5
			l0,0h1.6C338.8,215.5,339,215.3,339,215L339,215"/>
	</g>
	<g>
		<path class="st5" d="M364.6,221.7v-2.5c0-0.4-0.3-0.6-0.6-0.6h-2.2c-0.3,0-0.6,0.2-0.7,0.6l0,0h-5.9v2.6h5.9
			c0,0.3,0.3,0.6,0.6,0.6h2.2C364.3,222.3,364.6,222,364.6,221.7L364.6,221.7"/>
	</g>
	<g>
		<path class="st8" d="M353,221.4v-3.3c0-0.3,0.2-0.5,0.5-0.5h1.6c0.3,0,0.5,0.2,0.5,0.5c0,0,0,0,0,0v3.4c0,0.3-0.2,0.5-0.5,0.5l0,0
			h-1.6C353.2,222,353,221.7,353,221.4L353,221.4"/>
	</g>
	<g>
		<path class="st5" d="M327.4,221.7v-2.5c0-0.4,0.3-0.6,0.6-0.6h2.2c0.3,0,0.6,0.2,0.7,0.6c0,0,0,0,0,0l0,0h5.9v2.6H331
			c0,0.3-0.3,0.6-0.6,0.6h-2.2C327.8,222.3,327.5,222,327.4,221.7L327.4,221.7"/>
	</g>
	<g>
		<path class="st8" d="M339,221.4v-3.3c0-0.3-0.2-0.5-0.5-0.5h-1.6c-0.3,0-0.5,0.2-0.5,0.5v3.4c0,0.3,0.2,0.5,0.5,0.5l0,0h1.6
			C338.8,222,339,221.7,339,221.4C339,221.5,339,221.5,339,221.4L339,221.4"/>
	</g>
	<g>
		<path class="st5" d="M364.6,228v-2.5c0-0.4-0.3-0.6-0.6-0.6h-2.2c-0.3,0-0.6,0.2-0.7,0.6l0,0h-5.9v2.6h5.9c0,0.3,0.3,0.6,0.6,0.6
			h2.2C364.3,228.6,364.6,228.3,364.6,228L364.6,228"/>
	</g>
	<g>
		<path class="st8" d="M353,227.8v-3.3c0-0.3,0.2-0.5,0.5-0.5h1.6c0.3,0,0.5,0.2,0.5,0.5l0,0v3.3c0,0.3-0.2,0.5-0.5,0.5l0,0h-1.6
			C353.2,228.3,353,228.1,353,227.8L353,227.8"/>
	</g>
	<g>
		<path class="st5" d="M327.4,228v-2.5c0-0.4,0.3-0.6,0.6-0.6h2.2c0.3-0.1,0.6,0.1,0.7,0.5c0,0,0,0,0,0c0,0,0,0.1,0,0.1h5.8v2.6H331
			c0,0.3-0.3,0.6-0.6,0.6h-2.2C327.8,228.7,327.5,228.4,327.4,228L327.4,228"/>
	</g>
	<g>
		<path class="st8" d="M339,227.8v-3.3c0-0.3-0.2-0.5-0.5-0.5h-1.6c-0.3,0-0.5,0.2-0.5,0.5l0,0v3.3c0,0.3,0.2,0.5,0.5,0.5l0,0h1.6
			C338.8,228.3,339,228.1,339,227.8C339,227.8,339,227.8,339,227.8L339,227.8"/>
	</g>
	<g>
		<path class="st5" d="M364.6,234.1v-2.5c0-0.4-0.3-0.6-0.6-0.7h-2.2c-0.3,0-0.6,0.2-0.7,0.6l0,0h-5.9v2.6h5.9
			c0,0.3,0.3,0.6,0.6,0.6h2.2C364.3,234.8,364.5,234.5,364.6,234.1"/>
	</g>
	<g>
		<path class="st8" d="M353,233.8v-3.3c0-0.3,0.2-0.5,0.5-0.5c0,0,0,0,0,0h1.7c0.3,0,0.5,0.2,0.5,0.5l0,0v3.3c0,0.3-0.2,0.5-0.5,0.5
			l0,0h-1.6C353.2,234.4,353,234.1,353,233.8"/>
	</g>
	<g>
		<path class="st5" d="M327.4,234.1v-2.5c0-0.4,0.3-0.6,0.6-0.7h2.2c0.3-0.1,0.7,0.2,0.7,0.5c0,0.1,0,0.1,0,0.2h5.8v2.6H331
			c0,0.3-0.3,0.6-0.6,0.6c0,0,0,0,0,0h-2.2C327.8,234.8,327.5,234.5,327.4,234.1"/>
	</g>
	<g>
		<path class="st8" d="M339,233.8v-3.3c0-0.3-0.2-0.5-0.4-0.5c0,0,0,0,0,0h-1.7c-0.3,0-0.5,0.2-0.5,0.5l0,0v3.3
			c0,0.3,0.2,0.5,0.5,0.5l0,0h1.6C338.8,234.4,339,234.1,339,233.8"/>
	</g>
	<g>
		<path class="st5" d="M364.6,240.2v-2.5c0-0.4-0.3-0.6-0.6-0.7h-2.2c-0.3,0-0.6,0.2-0.7,0.6l0,0h-5.9v2.6h5.9
			c0,0.3,0.3,0.6,0.6,0.6h2.2C364.3,240.8,364.6,240.5,364.6,240.2L364.6,240.2"/>
	</g>
	<g>
		<path class="st8" d="M353,239.9v-3.3c0-0.3,0.2-0.5,0.5-0.5h1.6c0.3,0,0.5,0.2,0.5,0.5c0,0,0,0,0,0v3.4c0,0.3-0.2,0.5-0.5,0.5l0,0
			h-1.6C353.2,240.4,353,240.2,353,239.9L353,239.9"/>
	</g>
	<g>
		<path class="st5" d="M327.4,240.2v-2.5c0-0.4,0.3-0.6,0.6-0.7h2.2c0.3,0,0.6,0.2,0.7,0.6c0,0,0,0,0,0l0,0h5.9v2.6H331
			c0,0.3-0.3,0.6-0.6,0.6h-2.2C327.8,240.8,327.5,240.5,327.4,240.2L327.4,240.2"/>
	</g>
	<g>
		<path class="st8" d="M339,239.9v-3.3c0-0.3-0.2-0.5-0.5-0.5h-1.6c-0.3,0-0.5,0.2-0.5,0.5c0,0,0,0,0,0v3.4c0,0.3,0.2,0.5,0.5,0.5
			l0,0h1.6C338.8,240.4,339,240.2,339,239.9C339,239.9,339,239.9,339,239.9L339,239.9"/>
	</g>
	<g>
		<path class="st5" d="M364.6,246.3v-2.5c0-0.4-0.3-0.7-0.6-0.7h-2.2c-0.4,0-0.7,0.3-0.7,0.7l0,0h-5.9v2.5h5.9
			c0,0.4,0.3,0.7,0.6,0.7h2.2C364.3,247.1,364.6,246.7,364.6,246.3"/>
	</g>
	<g>
		<path class="st8" d="M353,246v-3.3c0-0.3,0.2-0.5,0.5-0.5c0,0,0,0,0,0h1.6c0.3,0,0.5,0.2,0.5,0.5c0,0,0,0,0,0v3.4
			c0,0.3-0.2,0.5-0.5,0.5l0,0h-1.6C353.2,246.5,353,246.3,353,246L353,246"/>
	</g>
	<g>
		<path class="st5" d="M327.4,246.3v-2.5c0-0.4,0.3-0.7,0.6-0.7h2.2c0.4,0,0.7,0.3,0.7,0.7l0,0h5.9v2.5H331c0,0.4-0.3,0.7-0.7,0.7
			l0,0h-2.2C327.8,247,327.5,246.7,327.4,246.3"/>
	</g>
	<g>
		<path class="st8" d="M339,246v-3.3c0-0.3-0.2-0.5-0.5-0.5c0,0,0,0,0,0h-1.6c-0.3,0-0.5,0.2-0.5,0.5v3.4c0,0.3,0.2,0.5,0.5,0.5l0,0
			h1.6C338.8,246.5,339,246.3,339,246L339,246"/>
	</g>
	<g>
		<path class="st5" d="M364.6,252.6v-2.5c0-0.4-0.3-0.7-0.6-0.7h-2.2c-0.4,0-0.7,0.3-0.7,0.7h-5.9v2.6h5.9c0,0.4,0.3,0.7,0.7,0.6
			h2.2C364.3,253.2,364.6,252.9,364.6,252.6"/>
	</g>
	<g>
		<path class="st8" d="M353,252.2V249c0-0.3,0.2-0.5,0.5-0.5c0,0,0,0,0,0h1.7c0.3,0,0.5,0.2,0.5,0.5l0,0v3.3c0,0.3-0.2,0.5-0.5,0.5
			l0,0h-1.6C353.2,252.8,353,252.6,353,252.2L353,252.2"/>
	</g>
	<g>
		<path class="st5" d="M327.4,252.6v-2.5c0-0.4,0.3-0.7,0.6-0.7h2.2c0.4,0,0.7,0.3,0.7,0.7h5.9v2.6H331c0,0.4-0.3,0.7-0.7,0.6h-2.2
			C327.8,253.2,327.5,252.9,327.4,252.6"/>
	</g>
	<g>
		<path class="st8" d="M339,252.2V249c0-0.3-0.2-0.5-0.4-0.5c0,0,0,0,0,0h-1.7c-0.3,0-0.5,0.2-0.5,0.5l0,0v3.3
			c0,0.3,0.2,0.5,0.5,0.5l0,0h1.6C338.8,252.8,339,252.6,339,252.2C339,252.3,339,252.3,339,252.2L339,252.2"/>
	</g>
	<g>
		<path class="st5" d="M364.6,258.7v-2.5c0-0.4-0.3-0.7-0.6-0.7h-2.2c-0.4,0-0.7,0.3-0.7,0.7h-5.9v2.5h5.9c0,0.4,0.3,0.7,0.7,0.6
			h2.2C364.3,259.3,364.5,259,364.6,258.7"/>
	</g>
	<g>
		<path class="st8" d="M353,258.7v-3.5c0.1-0.2,0.3-0.4,0.5-0.4h1.6c0.3,0,0.5,0.2,0.5,0.5l0,0v3.3c0,0.3-0.2,0.5-0.5,0.5
			c0,0,0,0,0,0h-1.6C353.2,259.2,353,259,353,258.7L353,258.7"/>
	</g>
	<g>
		<path class="st5" d="M327.4,258.7v-2.5c0-0.4,0.3-0.7,0.6-0.7h2.2c0.4,0,0.7,0.3,0.7,0.7h5.9v2.5H331c0,0.4-0.3,0.7-0.7,0.6h-2.2
			C327.8,259.3,327.5,259,327.4,258.7"/>
	</g>
	<g>
		<path class="st8" d="M339,258.7v-3.5c0-0.3-0.2-0.5-0.5-0.5c0,0,0,0,0,0h-1.7c-0.3,0-0.5,0.2-0.5,0.5l0,0v3.5
			c0,0.3,0.2,0.5,0.5,0.5c0,0,0,0,0,0h1.6C338.8,259.2,339,259,339,258.7L339,258.7"/>
	</g>
	<g>
		<path class="st5" d="M364.6,265v-2.4c0-0.4-0.3-0.7-0.6-0.7c0,0,0,0,0,0h-2.2c-0.3,0-0.6,0.2-0.7,0.6l0,0h-5.9v2.5h5.9
			c0,0.3,0.2,0.6,0.6,0.7c0,0,0,0,0,0h2.3C364.3,265.6,364.5,265.4,364.6,265"/>
	</g>
	<g>
		<path class="st8" d="M353,264.6v-3.3c0-0.3,0.2-0.5,0.5-0.5c0,0,0,0,0,0h1.7c0.3,0,0.5,0.2,0.5,0.5c0,0,0,0,0,0v3.3
			c0,0.3-0.2,0.5-0.5,0.5h-1.7C353.2,265.1,353,264.9,353,264.6L353,264.6"/>
	</g>
	<g>
		<path class="st5" d="M327.4,265v-2.4c0-0.4,0.3-0.7,0.6-0.7c0,0,0,0,0,0h2.2c0.3-0.1,0.7,0.2,0.7,0.5c0,0,0,0,0,0
			c0,0.1,0,0.1,0,0.2h5.8v2.5H331c0,0.3-0.2,0.6-0.6,0.7c0,0,0,0,0,0h-2.3c-0.4,0-0.6-0.3-0.7-0.7"/>
	</g>
	<g>
		<path class="st8" d="M339,264.6v-3.3c0-0.3-0.2-0.5-0.4-0.5c0,0,0,0,0,0h-1.7c-0.3,0-0.5,0.2-0.5,0.5c0,0,0,0,0,0v3.3
			c0,0.3,0.2,0.5,0.5,0.5h1.7C338.8,265.1,339,264.9,339,264.6L339,264.6"/>
	</g>
	<g>
		<path class="st5" d="M364.6,271.3v-2.5c0-0.4-0.3-0.7-0.6-0.7h-2.2c-0.4,0-0.7,0.3-0.7,0.7h-5.9v2.5h5.9c0,0.4,0.3,0.7,0.7,0.6
			h2.2C364.3,272,364.6,271.6,364.6,271.3"/>
	</g>
	<g>
		<path class="st8" d="M353,271v-3.3c0-0.3,0.2-0.5,0.5-0.5c0,0,0,0,0,0h1.7c0.3,0,0.5,0.2,0.5,0.5c0,0,0,0,0,0v3.3
			c0,0.3-0.2,0.5-0.5,0.5c0,0,0,0,0,0h-1.6C353.2,271.5,353,271.3,353,271L353,271"/>
	</g>
	<g>
		<path class="st5" d="M327.4,271.3v-2.5c0-0.4,0.3-0.7,0.6-0.7h2.2c0.4,0,0.7,0.3,0.7,0.7h5.9v2.5H331c0,0.4-0.3,0.7-0.7,0.6h-2.2
			C327.8,272,327.5,271.6,327.4,271.3"/>
	</g>
	<g>
		<path class="st8" d="M339,271v-3.3c0-0.3-0.2-0.5-0.4-0.5c0,0,0,0,0,0h-1.7c-0.3,0-0.5,0.2-0.5,0.5c0,0,0,0,0,0v3.3
			c0,0.3,0.2,0.5,0.5,0.5c0,0,0,0,0,0h1.6C338.8,271.5,339,271.3,339,271C339,271,339,271,339,271L339,271"/>
	</g>
	<g>
		<path class="st5" d="M364.6,277.5V275c0-0.4-0.3-0.7-0.6-0.7h-2.2c-0.3,0-0.6,0.2-0.7,0.6l0,0h-5.9v2.5h5.9c0,0.3,0.2,0.6,0.6,0.7
			h2.3C364.3,278.1,364.6,277.8,364.6,277.5"/>
	</g>
	<g>
		<path class="st8" d="M353,277.2v-3.1c0-0.3,0.2-0.5,0.4-0.5c0,0,0,0,0,0h1.7c0.3,0,0.5,0.2,0.5,0.5c0,0,0,0,0,0v3.3
			c0,0.3-0.2,0.5-0.5,0.5c0,0,0,0,0,0h-1.7c-0.3,0-0.5-0.2-0.5-0.5c0,0,0,0,0,0l0,0"/>
	</g>
	<g>
		<path class="st5" d="M327.4,277.5V275c0-0.4,0.3-0.7,0.6-0.7h2.2c0.3,0,0.6,0.2,0.7,0.6c0,0,0,0,0,0l0,0h5.9v2.5H331
			c0,0.3-0.2,0.6-0.6,0.7h-2.3C327.8,278.1,327.5,277.8,327.4,277.5"/>
	</g>
	<g>
		<path class="st8" d="M339,277.2v-3.1c0-0.3-0.2-0.5-0.4-0.5c0,0,0,0,0,0h-1.7c-0.3,0-0.5,0.2-0.5,0.5c0,0,0,0,0,0v3.3
			c0,0.3,0.2,0.5,0.5,0.5c0,0,0,0,0,0h1.7c0.3,0,0.5-0.2,0.5-0.5c0,0,0,0,0,0l0,0"/>
	</g>
	<g>
		<path class="st5" d="M364.6,284.3v-2.5c0-0.4-0.3-0.6-0.6-0.6h-2.2c-0.3,0-0.6,0.2-0.7,0.6c0,0,0,0,0,0l0,0h-5.9v2.6h5.9
			c0,0.3,0.3,0.6,0.6,0.6h2.2C364.3,284.9,364.5,284.6,364.6,284.3"/>
	</g>
	<g>
		<path class="st8" d="M353,284v-3.3c0-0.3,0.2-0.5,0.5-0.5c0,0,0,0,0,0h1.7c0.3,0,0.5,0.2,0.5,0.5c0,0,0,0,0,0v3.3
			c0,0.3-0.2,0.5-0.5,0.5c0,0,0,0,0,0h-1.7C353.2,284.5,353,284.3,353,284C353,284,353,284,353,284L353,284"/>
	</g>
	<g>
		<path class="st5" d="M327.4,284.3v-2.5c0-0.4,0.3-0.6,0.6-0.6h2.2c0.3-0.1,0.7,0.2,0.7,0.5c0,0,0,0,0,0c0,0.1,0,0.1,0,0.2h5.8v2.6
			H331c0,0.3-0.3,0.6-0.6,0.6h-2.2C327.8,285,327.5,284.7,327.4,284.3"/>
	</g>
	<g>
		<path class="st8" d="M339,284v-3.3c0-0.3-0.2-0.5-0.4-0.5c0,0,0,0,0,0h-1.7c-0.3,0-0.5,0.2-0.5,0.5c0,0,0,0,0,0v3.3
			c0,0.3,0.2,0.5,0.5,0.5c0,0,0,0,0,0h1.7C338.8,284.5,339,284.3,339,284C339,284,339,284,339,284L339,284"/>
	</g>
	<g>
		<path class="st5" d="M364.6,290.3v-2.5c0-0.4-0.3-0.6-0.6-0.6h-2.2c-0.3,0-0.6,0.2-0.7,0.6l0,0h-5.9v2.6h5.9
			c0,0.3,0.3,0.6,0.6,0.6h2.2C364.3,291,364.6,290.7,364.6,290.3C364.6,290.3,364.6,290.3,364.6,290.3"/>
	</g>
	<g>
		<path class="st8" d="M353,290v-3.3c0-0.3,0.2-0.5,0.5-0.5h1.6c0.3,0,0.5,0.3,0.5,0.5v3.3c0,0.3-0.2,0.5-0.5,0.5c0,0,0,0,0,0h-1.6
			C353.2,290.5,353,290.3,353,290C353,290,353,290,353,290L353,290"/>
	</g>
	<g>
		<path class="st5" d="M327.4,290.3v-2.5c0-0.4,0.3-0.6,0.6-0.6h2.2c0.3,0,0.6,0.2,0.7,0.6c0,0,0,0,0,0l0,0h5.9v2.6H331
			c0,0.3-0.3,0.6-0.6,0.6h-2.2C327.8,291,327.5,290.7,327.4,290.3L327.4,290.3"/>
	</g>
	<g>
		<path class="st8" d="M339,290v-3.3c0-0.3-0.2-0.5-0.5-0.5h-1.6c-0.3,0-0.5,0.3-0.5,0.5v3.3c0,0.3,0.2,0.5,0.5,0.5c0,0,0,0,0,0h1.6
			C338.8,290.5,339,290.3,339,290C339,290,339,290,339,290L339,290"/>
	</g>
	<g>
		<path class="st5" d="M364.6,296.5V294c0-0.4-0.3-0.7-0.6-0.7h-2.2c-0.3,0-0.6,0.2-0.7,0.6c0,0,0,0,0,0v0.1h-5.9v2.5h5.9
			c-0.1,0.3,0.2,0.7,0.5,0.7c0.1,0,0.1,0,0.2,0h2.2c0.4,0,0.6-0.3,0.6-0.6"/>
	</g>
	<g>
		<path class="st8" d="M353,296.2v-3.3c0-0.3,0.2-0.5,0.5-0.5h1.6c0.3,0,0.5,0.2,0.5,0.5c0,0,0,0,0,0v3.4c0,0.3-0.2,0.5-0.5,0.5
			c0,0,0,0,0,0h-1.6C353.2,296.7,353,296.5,353,296.2L353,296.2"/>
	</g>
	<g>
		<path class="st5" d="M327.4,296.5V294c0-0.4,0.3-0.7,0.6-0.7h2.2c0.3,0,0.6,0.2,0.7,0.6c0,0,0,0,0,0v0.1h5.9v2.5H331
			c0,0.3-0.3,0.6-0.6,0.6h-2.2C327.8,297.2,327.5,296.9,327.4,296.5"/>
	</g>
	<g>
		<path class="st8" d="M339,296.2v-3.3c0-0.3-0.2-0.5-0.5-0.5h-1.6c-0.3,0-0.5,0.2-0.5,0.5v3.4c0,0.3,0.2,0.5,0.5,0.5c0,0,0,0,0,0
			h1.6C338.8,296.7,339,296.5,339,296.2C339,296.2,339,296.2,339,296.2L339,296.2"/>
	</g>
	<g>
		<path class="st5" d="M364.6,302.7v-2.5c0-0.4-0.3-0.7-0.6-0.7h-2.2c-0.4,0-0.7,0.3-0.7,0.6h-5.9v2.5h5.9c0,0.4,0.3,0.7,0.7,0.7
			h2.2C364.3,303.4,364.6,303.1,364.6,302.7"/>
	</g>
	<g>
		<path class="st8" d="M353,302.4v-3.3c0-0.3,0.2-0.5,0.5-0.5c0,0,0,0,0,0h1.6c0.3,0,0.5,0.2,0.5,0.5c0,0,0,0,0,0v3.4
			c0,0.3-0.2,0.5-0.5,0.5h-1.6C353.2,302.9,353,302.7,353,302.4L353,302.4"/>
	</g>
	<g>
		<path class="st5" d="M327.4,302.7v-2.5c0-0.4,0.3-0.7,0.6-0.7h2.2c0.4,0,0.7,0.3,0.7,0.6h5.9v2.5H331c0,0.4-0.3,0.7-0.7,0.7h-2.2
			C327.8,303.4,327.5,303.1,327.4,302.7"/>
	</g>
	<g>
		<path class="st8" d="M339,302.4v-3.3c0-0.3-0.2-0.5-0.5-0.5c0,0,0,0,0,0h-1.6c-0.3,0-0.5,0.2-0.5,0.5v3.4c0,0.3,0.2,0.5,0.5,0.5
			h1.6C338.8,302.9,339,302.7,339,302.4C339,302.4,339,302.4,339,302.4L339,302.4"/>
	</g>
	<g>
		<path class="st5" d="M364.6,308.8v-2.5c0-0.4-0.3-0.7-0.6-0.7h-2.2c-0.4,0-0.7,0.3-0.7,0.6h-5.9v2.5h5.9c0,0.4,0.3,0.7,0.7,0.7
			h2.2C364.3,309.5,364.5,309.2,364.6,308.8"/>
	</g>
	<g>
		<path class="st8" d="M353,308.6v-3.3c0.1-0.2,0.3-0.4,0.5-0.4h1.6c0.3,0,0.5,0.2,0.5,0.5c0,0,0,0,0,0v3.3c0,0.3-0.2,0.5-0.5,0.5
			c0,0,0,0,0,0h-1.6c-0.3,0-0.5-0.2-0.5-0.5l0,0"/>
	</g>
	<g>
		<path class="st5" d="M327.4,308.8v-2.5c0-0.4,0.3-0.7,0.6-0.7h2.2c0.4,0,0.7,0.3,0.7,0.6h5.9v2.5H331c0,0.4-0.3,0.7-0.7,0.7h-2.2
			C327.8,309.5,327.5,309.2,327.4,308.8"/>
	</g>
	<g>
		<path class="st8" d="M339,308.6v-3.3c0-0.3-0.2-0.5-0.4-0.5c0,0,0,0,0,0h-1.7c-0.3,0-0.5,0.2-0.5,0.5c0,0,0,0,0,0v3.3
			c0,0.3,0.2,0.5,0.5,0.5c0,0,0,0,0,0h1.6C338.8,309.1,339,308.9,339,308.6C339,308.6,339,308.6,339,308.6L339,308.6"/>
	</g>
	<g>
		<path class="st5" d="M364.6,315v-2.4c0-0.4-0.3-0.7-0.6-0.7h-2.2c-0.3,0-0.6,0.2-0.7,0.6l0,0h-5.9v2.5h5.9c0,0.3,0.2,0.6,0.6,0.6
			h2.3C364.3,315.8,364.6,315.4,364.6,315"/>
	</g>
	<g>
		<path class="st8" d="M353,314.8v-3.3c0-0.3,0.2-0.5,0.4-0.5c0,0,0,0,0,0h1.7c0.3,0,0.5,0.2,0.5,0.5c0,0,0,0,0,0v3.3
			c0,0.3-0.2,0.5-0.5,0.5c0,0,0,0,0,0h-1.7C353.2,315.3,353,315.1,353,314.8C353,314.8,353,314.8,353,314.8L353,314.8"/>
	</g>
	<g>
		<path class="st5" d="M327.4,315v-2.4c0-0.4,0.3-0.7,0.6-0.7h2.2c0.3-0.1,0.7,0.2,0.7,0.5c0,0.1,0,0.1,0,0.2h5.8v2.5H331
			c0,0.3-0.2,0.6-0.6,0.6h-2.3c-0.4,0-0.7-0.3-0.7-0.7"/>
	</g>
	<g>
		<path class="st8" d="M339,314.8v-3.3c0-0.3-0.2-0.5-0.4-0.5c0,0,0,0,0,0h-1.7c-0.3,0-0.5,0.2-0.5,0.5c0,0,0,0,0,0v3.3
			c0,0.3,0.2,0.5,0.5,0.5c0,0,0,0,0,0h1.7C338.8,315.3,339,315.1,339,314.8C339,314.8,339,314.8,339,314.8L339,314.8"/>
	</g>
	<g>
		<path class="st5" d="M364.6,321.4v-2.5c0-0.4-0.3-0.7-0.6-0.7h-2.2c-0.4,0-0.7,0.3-0.7,0.6h-5.9v2.5h5.9c0,0.4,0.3,0.7,0.7,0.7
			h2.2C364.3,322.1,364.6,321.8,364.6,321.4"/>
	</g>
	<g>
		<path class="st8" d="M353,321.1v-3.3c0-0.3,0.2-0.5,0.5-0.5h1.7c0.3,0,0.5,0.2,0.5,0.5c0,0,0,0,0,0v3.3c0,0.3-0.2,0.5-0.5,0.5
			c0,0,0,0,0,0h-1.6C353.2,321.6,353,321.4,353,321.1L353,321.1"/>
	</g>
	<g>
		<path class="st5" d="M327.4,321.4v-2.5c0-0.4,0.3-0.7,0.6-0.7h2.2c0.4,0,0.7,0.3,0.7,0.6h5.9v2.5H331c0,0.4-0.3,0.7-0.7,0.7h-2.2
			C327.8,322.1,327.5,321.8,327.4,321.4"/>
	</g>
	<g>
		<path class="st8" d="M339,321.1v-3.3c0-0.3-0.2-0.5-0.5-0.5c0,0,0,0,0,0h-1.7c-0.3,0-0.5,0.2-0.5,0.5c0,0,0,0,0,0v3.3
			c0,0.3,0.2,0.5,0.5,0.5c0,0,0,0,0,0h1.6C338.8,321.6,339,321.4,339,321.1C339,321.1,339,321.1,339,321.1L339,321.1"/>
	</g>
	<g>
		<path class="st5" d="M364.6,327.6v-2.5c0-0.4-0.3-0.7-0.6-0.7h-2.2c-0.4,0-0.7,0.3-0.7,0.7l0,0h-5.9v2.5h5.9
			c0,0.4,0.3,0.7,0.7,0.7l0,0h2.2C364.3,328.3,364.6,328,364.6,327.6"/>
	</g>
	<g>
		<path class="st8" d="M353,327.4V324c0-0.3,0.2-0.5,0.5-0.5c0,0,0,0,0,0h1.7c0.3,0,0.5,0.2,0.5,0.5c0,0,0,0,0,0v3.3
			c0,0.3-0.2,0.5-0.5,0.5h-1.7C353.2,327.8,353,327.6,353,327.4L353,327.4"/>
	</g>
	<g>
		<path class="st5" d="M327.4,327.6v-2.5c0-0.4,0.3-0.7,0.6-0.7h2.2c0.4,0,0.7,0.3,0.7,0.7l0,0h5.9v2.5H331c0,0.4-0.3,0.7-0.7,0.7
			l0,0h-2.2C327.8,328.3,327.5,328,327.4,327.6"/>
	</g>
	<g>
		<path class="st8" d="M339,327.4V324c0-0.3-0.2-0.5-0.4-0.5c0,0,0,0,0,0h-1.7c-0.3,0-0.5,0.2-0.5,0.5c0,0,0,0,0,0v3.3
			c0,0.3,0.2,0.5,0.5,0.5h1.7C338.8,327.8,339,327.6,339,327.4L339,327.4"/>
	</g>
	<g>
		<path class="st8" d="M354.2,192.7c0.7,0,1.4,1,1.4,2.3s-0.6,2.3-1.4,2.3s-1.3-1-1.3-2.3S353.6,192.7,354.2,192.7"/>
	</g>
	<g>
		<path class="st8" d="M337.9,192.7c0.7,0,1.3,1,1.3,2.3s-0.6,2.3-1.3,2.3s-1.4-1-1.4-2.3S337.2,192.7,337.9,192.7"/>
	</g>
	<g>
		<path class="st8" d="M354.2,336.7c0.7,0,1.4,1,1.4,2.3s-0.6,2.3-1.4,2.3s-1.3-1-1.3-2.3S353.4,336.7,354.2,336.7"/>
	</g>
	<g>
		<path class="st8" d="M337.9,336.7c0.7,0,1.3,1,1.3,2.3s-0.6,2.3-1.3,2.3s-1.4-1-1.4-2.3S337.2,336.7,337.9,336.7"/>
	</g>
	<g class="st1">
		<g>
			<circle class="st9" cx="229.9" cy="145.9" r="12.3"/>
		</g>
		<g>
			<circle class="st10" cx="229.9" cy="145.9" r="10.9"/>
		</g>
		<g>
			<path class="st2" d="M227.2,142.4h5.4c0.4,0,0.8,0.4,0.8,0.8v5.4c0,0.4-0.4,0.8-0.8,0.8h-5.4c-0.4,0-0.8-0.4-0.8-0.8v-5.4
				C226.4,142.8,226.8,142.4,227.2,142.4z"/>
		</g>
		<g>
			<circle class="st9" cx="271.8" cy="145.9" r="12.3"/>
		</g>
		<g>
			<circle class="st10" cx="271.8" cy="145.9" r="10.9"/>
		</g>
		<g>
			<path class="st2" d="M269.1,142.4h5.3c0.4,0,0.8,0.4,0.8,0.8v5.4c0,0.4-0.4,0.8-0.8,0.8h-5.3c-0.4,0-0.8-0.4-0.8-0.8v-5.4
				C268.4,142.8,268.7,142.4,269.1,142.4z"/>
		</g>
		<g>
			<circle class="st9" cx="229.9" cy="185.5" r="12.3"/>
		</g>
		<g>
			<circle class="st10" cx="229.9" cy="185.5" r="10.9"/>
		</g>
		<g>
			<path class="st2" d="M227.2,182h5.4c0.4,0,0.8,0.4,0.8,0.8v5.4c0,0.4-0.4,0.8-0.8,0.8h-5.4c-0.4,0-0.8-0.4-0.8-0.8v-5.4
				C226.4,182.4,226.8,182,227.2,182z"/>
		</g>
		<g>
			<circle class="st9" cx="271.8" cy="185.5" r="12.3"/>
		</g>
		<g>
			<circle class="st10" cx="271.8" cy="185.5" r="10.9"/>
		</g>
		<g>
			<path class="st2" d="M269.1,182h5.3c0.4,0,0.8,0.4,0.8,0.8v5.4c0,0.4-0.4,0.8-0.8,0.8h-5.3c-0.4,0-0.8-0.4-0.8-0.8v-5.4
				C268.4,182.4,268.7,182,269.1,182z"/>
		</g>
		<g>
			<path class="st2" d="M198,129.3v28.9l0,0h-17.5c-1.1,0-2-0.9-2-2v-24.9c0-1.1,0.9-2,2-2H198L198,129.3z"/>
		</g>
		<g>
			<path class="st11" d="M198,129.3v11.5c0,0.9-0.7,1.6-1.6,1.6h0h-9.9c-0.9,0-1.6-0.7-1.6-1.6v0v-9.9c0-0.9,0.7-1.6,1.6-1.6h0
				L198,129.3L198,129.3z"/>
		</g>
		<g>
			<path class="st11" d="M184.8,156.6v-9.9c0-0.9,0.7-1.6,1.6-1.6h0h9.9c0.9,0,1.6,0.7,1.6,1.6v0v11.5l0,0h-11.5
				C185.5,158.2,184.8,157.5,184.8,156.6C184.8,156.6,184.8,156.6,184.8,156.6z"/>
		</g>
		<g>
			<path class="st2" d="M82.1,130v24.8c0,1.1-0.9,2-2,2H62.6l0,0V128l0,0h17.5C81.2,128,82.1,128.9,82.1,130
				C82.1,130,82.1,130,82.1,130z"/>
		</g>
		<g>
			<path class="st11" d="M75.7,129.6v9.9c0,0.9-0.7,1.6-1.6,1.6l0,0h-9.9c-0.9,0-1.6-0.7-1.6-1.6c0,0,0,0,0,0V128l0,0h11.5
				C75,128,75.7,128.7,75.7,129.6L75.7,129.6z"/>
		</g>
		<g>
			<path class="st11" d="M62.6,156.9v-11.5c0-0.9,0.7-1.6,1.6-1.6l0,0h9.9c0.9,0,1.6,0.7,1.6,1.6c0,0,0,0,0,0v9.9
				c0,0.9-0.7,1.6-1.6,1.6l0,0L62.6,156.9C62.6,156.9,62.6,156.9,62.6,156.9z"/>
		</g>
		<g>
			<path class="st11" d="M96.1,172v21.8c0,0.6-0.5,1.2-1.2,1.2h-6c-0.6,0-1.2-0.5-1.2-1.2V172c0-0.6,0.5-1.2,1.2-1.2h6
				C95.6,170.9,96.1,171.4,96.1,172z"/>
		</g>
		<g>
			<path class="st11" d="M111.5,172v21.8c0,0.6-0.5,1.2-1.2,1.2h-6c-0.6,0-1.2-0.5-1.2-1.2V172c0-0.6,0.5-1.2,1.2-1.2h6
				C111,170.9,111.5,171.4,111.5,172z"/>
		</g>
		<g>
			<path class="st11" d="M126.8,172v21.8c0,0.6-0.5,1.2-1.2,1.2h-6c-0.6,0-1.2-0.5-1.2-1.2V172c0-0.6,0.5-1.2,1.2-1.2h6
				C126.3,170.9,126.8,171.4,126.8,172z"/>
		</g>
		<g>
			<path class="st11" d="M142.1,172v21.8c0,0.6-0.5,1.2-1.2,1.2h-6c-0.6,0-1.2-0.5-1.2-1.2V172c0-0.6,0.5-1.2,1.2-1.2h6
				C141.6,170.9,142.1,171.4,142.1,172z"/>
		</g>
		<g>
			<path class="st11" d="M157.5,172v21.8c0,0.6-0.5,1.2-1.2,1.2h-6c-0.6,0-1.2-0.5-1.2-1.2V172c0-0.6,0.5-1.2,1.2-1.2h6
				C156.9,170.9,157.5,171.4,157.5,172z"/>
		</g>
		<g>
			<path class="st11" d="M172.8,172v21.8c0,0.6-0.5,1.2-1.2,1.2h-6c-0.6,0-1.2-0.5-1.2-1.2V172c0-0.6,0.5-1.2,1.2-1.2h6
				C172.3,170.9,172.8,171.4,172.8,172z"/>
		</g>
	</g>
	<g>
		<rect x="574.6" y="0" class="st12" width="25.5" height="475.7"/>
	</g>
	<g>
		<rect x="542.7" y="0" class="st12" width="25.5" height="475.7"/>
	</g>
	<g>
		<path class="st13" d="M530.3,24.2h9.9c1.4,0,2.5,1.1,2.5,2.5v12.5c0,1.4-1.1,2.5-2.5,2.5h-9.9c-1.4,0-2.5-1.1-2.5-2.5V26.7
			C527.9,25.3,529,24.2,530.3,24.2z"/>
	</g>
	<g>
		<path class="st14" d="M548.1,0h18c1.2,0,2.1,0.9,2.1,2.1v13.2c0,1.2-0.9,2.1-2.1,2.1h-18c-1.2,0-2.1-0.9-2.1-2.1V2.1
			C545.9,1,546.9,0,548.1,0z"/>
	</g>
	<g>
		<path class="st13" d="M548.1,23.9h18c1.2,0,2.1,0.9,2.1,2.1v13.2c0,1.2-0.9,2.1-2.1,2.1h-18c-1.2,0-2.1-0.9-2.1-2.1V26
			C545.9,24.8,546.9,23.9,548.1,23.9z"/>
	</g>
	<g>
		<path class="st15" d="M548.1,48.5h18c1.2,0,2.1,0.9,2.1,2.1v13.2c0,1.2-0.9,2.1-2.1,2.1h-18c-1.2,0-2.1-0.9-2.1-2.1V50.6
			C545.9,49.4,546.9,48.5,548.1,48.5z"/>
	</g>
	<g>
		<path class="st14" d="M548.1,73h18c1.2,0,2.1,0.9,2.1,2.1v13.2c0,1.2-0.9,2.1-2.1,2.1h-18c-1.2,0-2.1-0.9-2.1-2.1V75.2
			C545.9,74,546.9,73,548.1,73z"/>
	</g>
	<g>
		<path class="st14" d="M548.1,96.5h18c1.2,0,2.1,0.9,2.1,2.1v13.2c0,1.2-0.9,2.1-2.1,2.1h-18c-1.2,0-2.1-0.9-2.1-2.1V98.7
			C545.9,97.5,546.9,96.5,548.1,96.5z"/>
	</g>
	<g>
		<path class="st14" d="M548.1,120.1h18c1.2,0,2.1,0.9,2.1,2.1v13.2c0,1.2-0.9,2.1-2.1,2.1h-18c-1.2,0-2.1-0.9-2.1-2.1v-13.2
			C545.9,121,546.9,120.1,548.1,120.1z"/>
	</g>
	<g>
		<path class="st14" d="M548.1,144.4h18c1.2,0,2.1,0.9,2.1,2.1v13.2c0,1.2-0.9,2.1-2.1,2.1h-18c-1.2,0-2.1-0.9-2.1-2.1v-13.2
			C545.9,145.3,546.9,144.4,548.1,144.4z"/>
	</g>
	<g>
		<path class="st14" d="M548.1,168.2h18c1.2,0,2.1,0.9,2.1,2.1v13.2c0,1.2-0.9,2.1-2.1,2.1h-18c-1.2,0-2.1-0.9-2.1-2.1v-13.2
			C545.9,169.2,546.9,168.2,548.1,168.2z"/>
	</g>
	<g>
		<path class="st14" d="M548.1,192.3h18c1.2,0,2.1,0.9,2.1,2.1v13.2c0,1.2-0.9,2.1-2.1,2.1h-18c-1.2,0-2.1-0.9-2.1-2.1v-13.2
			C545.9,193.3,546.9,192.3,548.1,192.3z"/>
	</g>
	<g>
		<path class="st14" d="M548.1,216.7h18c1.2,0,2.1,0.9,2.1,2.1v13.2c0,1.2-0.9,2.1-2.1,2.1h-18c-1.2,0-2.1-0.9-2.1-2.1v-13.2
			C545.9,217.7,546.9,216.7,548.1,216.7z"/>
	</g>
	<g>
		<path class="st16" d="M548.1,241.9h18c1.2,0,2.1,0.9,2.1,2.1v13.2c0,1.2-0.9,2.1-2.1,2.1h-18c-1.2,0-2.1-0.9-2.1-2.1V244
			C545.9,242.9,546.9,241.9,548.1,241.9z"/>
	</g>
	<g>
		<path class="st14" d="M548.1,265.6h18c1.2,0,2.1,0.9,2.1,2.1v13.2c0,1.2-0.9,2.1-2.1,2.1h-18c-1.2,0-2.1-0.9-2.1-2.1v-13.2
			C545.9,266.5,546.9,265.6,548.1,265.6z"/>
	</g>
	<g>
		<path class="st14" d="M576.7,0h18c1.2,0,2.1,0.9,2.1,2.1v13.2c0,1.2-0.9,2.1-2.1,2.1h-18c-1.2,0-2.1-0.9-2.1-2.1V2.1
			C574.6,1,575.5,0,576.7,0z"/>
	</g>
	<g>
		<path class="st13" d="M576.7,23.9h18c1.2,0,2.1,0.9,2.1,2.1v13.2c0,1.2-0.9,2.1-2.1,2.1h-18c-1.2,0-2.1-0.9-2.1-2.1V26
			C574.6,24.8,575.5,23.9,576.7,23.9z"/>
	</g>
	<g>
		<path class="st14" d="M576.7,48.5h18c1.2,0,2.1,0.9,2.1,2.1v13.2c0,1.2-0.9,2.1-2.1,2.1h-18c-1.2,0-2.1-0.9-2.1-2.1V50.6
			C574.6,49.4,575.5,48.5,576.7,48.5z"/>
	</g>
	<g>
		<path class="st14" d="M576.7,73h18c1.2,0,2.1,0.9,2.1,2.1v13.2c0,1.2-0.9,2.1-2.1,2.1h-18c-1.2,0-2.1-0.9-2.1-2.1V75.2
			C574.6,74,575.5,73,576.7,73z"/>
	</g>
	<g>
		<path class="st14" d="M576.7,96.5h18c1.2,0,2.1,0.9,2.1,2.1v13.2c0,1.2-0.9,2.1-2.1,2.1h-18c-1.2,0-2.1-0.9-2.1-2.1V98.7
			C574.6,97.5,575.5,96.5,576.7,96.5z"/>
	</g>
	<g>
		<path class="st14" d="M576.7,120.1h18c1.2,0,2.1,0.9,2.1,2.1v13.2c0,1.2-0.9,2.1-2.1,2.1h-18c-1.2,0-2.1-0.9-2.1-2.1v-13.2
			C574.6,121,575.5,120.1,576.7,120.1z"/>
	</g>
	<g>
		<path class="st14" d="M576.7,144.4h18c1.2,0,2.1,0.9,2.1,2.1v13.2c0,1.2-0.9,2.1-2.1,2.1h-18c-1.2,0-2.1-0.9-2.1-2.1v-13.2
			C574.6,145.3,575.5,144.4,576.7,144.4z"/>
	</g>
	<g>
		<path class="st14" d="M576.7,168.2h18c1.2,0,2.1,0.9,2.1,2.1v13.2c0,1.2-0.9,2.1-2.1,2.1h-18c-1.2,0-2.1-0.9-2.1-2.1v-13.2
			C574.6,169.2,575.5,168.2,576.7,168.2z"/>
	</g>
	<g>
		<path class="st14" d="M576.7,192.3h18c1.2,0,2.1,0.9,2.1,2.1v13.2c0,1.2-0.9,2.1-2.1,2.1h-18c-1.2,0-2.1-0.9-2.1-2.1v-13.2
			C574.6,193.3,575.5,192.3,576.7,192.3z"/>
	</g>
	<g>
		<path class="st14" d="M576.7,216.7h18c1.2,0,2.1,0.9,2.1,2.1v13.2c0,1.2-0.9,2.1-2.1,2.1h-18c-1.2,0-2.1-0.9-2.1-2.1v-13.2
			C574.6,217.7,575.5,216.7,576.7,216.7z"/>
	</g>
	<g>
		<path class="st14" d="M576.7,241.9h18c1.2,0,2.1,0.9,2.1,2.1v13.2c0,1.2-0.9,2.1-2.1,2.1h-18c-1.2,0-2.1-0.9-2.1-2.1V244
			C574.6,242.9,575.5,241.9,576.7,241.9z"/>
	</g>
	<g>
		<path class="st14" d="M576.7,265.6h18c1.2,0,2.1,0.9,2.1,2.1v13.2c0,1.2-0.9,2.1-2.1,2.1h-18c-1.2,0-2.1-0.9-2.1-2.1v-13.2
			C574.6,266.5,575.5,265.6,576.7,265.6z"/>
	</g>
	<g>
		<path class="st14" d="M576.7,289.2h18c1.2,0,2.1,0.9,2.1,2.1v13.2c0,1.2-0.9,2.1-2.1,2.1h-18c-1.2,0-2.1-0.9-2.1-2.1v-13.2
			C574.6,290.2,575.5,289.2,576.7,289.2z"/>
	</g>
	<g>
		<path class="st14" d="M576.7,312.8h18c1.2,0,2.1,0.9,2.1,2.1v13.2c0,1.2-0.9,2.1-2.1,2.1h-18c-1.2,0-2.1-0.9-2.1-2.1v-13.2
			C574.6,313.7,575.5,312.8,576.7,312.8z"/>
	</g>
	<g>
		<path class="st14" d="M576.7,337.1h18c1.2,0,2.1,0.9,2.1,2.1v13.2c0,1.2-0.9,2.1-2.1,2.1h-18c-1.2,0-2.1-0.9-2.1-2.1v-13.2
			C574.6,338,575.5,337.1,576.7,337.1z"/>
	</g>
	<g>
		<path class="st14" d="M576.7,360.9h18c1.2,0,2.1,0.9,2.1,2.1v13.2c0,1.2-0.9,2.1-2.1,2.1h-18c-1.2,0-2.1-0.9-2.1-2.1v-13.2
			C574.6,361.9,575.5,360.9,576.7,360.9z"/>
	</g>
	<g>
		<path class="st14" d="M576.7,385h18c1.2,0,2.1,0.9,2.1,2.1v13.2c0,1.2-0.9,2.1-2.1,2.1h-18c-1.2,0-2.1-0.9-2.1-2.1v-13.2
			C574.6,386,575.5,385,576.7,385z"/>
	</g>
	<g>
		<path class="st14" d="M576.7,409.4h18c1.2,0,2.1,0.9,2.1,2.1v13.2c0,1.2-0.9,2.1-2.1,2.1h-18c-1.2,0-2.1-0.9-2.1-2.1v-13.2
			C574.6,410.4,575.5,409.4,576.7,409.4z"/>
	</g>
	<g>
		<path class="st14" d="M576.7,434.6h18c1.2,0,2.1,0.9,2.1,2.1V450c0,1.2-0.9,2.1-2.1,2.1h-18c-1.2,0-2.1-0.9-2.1-2.1v-13.2
			C574.6,435.6,575.5,434.6,576.7,434.6z"/>
	</g>
	<g>
		<path class="st11" d="M578,297c-0.1-2.4,1.3-4.2,3.8-4.2c1.8-0.1,3.4,1.2,3.6,3.1c0,0.1,0,0.1,0,0.2c0,3.2-3.4,3.4-4.9,5.6h5v1.8
			h-7.7c0-2.4,1.5-3.4,3.3-4.7c0.9-0.6,2.2-1.3,2.2-2.6c0.1-0.8-0.5-1.6-1.4-1.6c0,0,0,0,0,0c-0.1,0-0.1,0-0.2,0
			c-1.3,0-1.7,1.3-1.7,2.4L578,297z"/>
	</g>
	<g>
		<path class="st11" d="M593.2,294.7h-4.3l-0.4,2.4l0,0c0.5-0.5,1.2-0.8,2-0.8c1.8,0,3.3,1.5,3.3,3.3c0,0.1,0,0.2,0,0.3
			c0,2.1-1.7,3.8-3.8,3.8h-0.1c-2,0-3.8-1.1-3.9-3.3h2.1c0,0.9,0.8,1.6,1.7,1.6c1,0,1.9-0.9,1.8-2c0,0,0,0,0,0v0
			c0.1-1-0.6-1.9-1.6-1.9c0,0,0,0,0,0h-0.2c-0.7-0.1-1.3,0.3-1.6,0.8h-1.9l1-5.8h5.8L593.2,294.7z"/>
	</g>
	<g>
		<path class="st11" d="M578,320.1c-0.1-2.4,1.3-4.2,3.8-4.2c1.8-0.1,3.4,1.2,3.6,3c0,0.1,0,0.1,0,0.2c0,3.2-3.4,3.4-4.9,5.6h5v1.8
			h-7.7c0-2.4,1.5-3.4,3.3-4.7c0.9-0.6,2.2-1.3,2.2-2.6c0.1-0.8-0.5-1.6-1.4-1.6c0,0,0,0,0,0h-0.2c-1.2,0-1.7,1.3-1.7,2.4L578,320.1
			z"/>
	</g>
	<g>
		<path class="st11" d="M593.5,317.9c-2.2,1.9-3.4,5.8-3.4,8.7h-2.3c0.3-3.1,1.5-6.1,3.5-8.5h-5v-2h7.1L593.5,317.9z"/>
	</g>
	<g>
		<path class="st11" d="M580.8,393c0.9,0.1,2.2-0.1,2.2-1.3c0-0.8-0.6-1.4-1.4-1.4h-0.1c-1.1,0-1.6,0.8-1.6,1.9h-2
			c-0.1-1.9,1.4-3.5,3.3-3.6c0.1,0,0.2,0,0.3,0c1.7,0,3.5,1,3.5,2.9c0.1,1-0.5,1.9-1.5,2.2l0,0c1.1,0.2,1.9,1.2,1.8,2.4
			c0,2.2-1.8,3.4-3.9,3.4c-2.3,0-3.9-1.4-3.9-3.8h2c0,1.1,0.6,2.1,1.8,2.1c0.9,0,1.7-0.6,1.7-1.5v-0.1c0-1.6-1.4-1.5-2.4-1.5
			L580.8,393z"/>
	</g>
	<g>
		<path class="st11" d="M589.2,393c0.9,0.1,2.2-0.1,2.2-1.3c0-0.8-0.6-1.4-1.4-1.4h0h-0.1c-1.1,0-1.6,0.8-1.6,1.9h-2
			c-0.1-1.9,1.4-3.5,3.3-3.6c0.1,0,0.2,0,0.3,0c1.7,0,3.5,1,3.5,2.9c0.1,1-0.5,1.9-1.5,2.2l0,0c1.1,0.2,1.9,1.2,1.9,2.4
			c0,2.2-1.9,3.4-3.9,3.4c-2.3,0-3.9-1.4-3.9-3.8h2c0,1.1,0.6,2.1,1.8,2.1c0.9,0,1.7-0.6,1.7-1.5c0,0,0,0,0,0c0,0,0-0.1,0-0.1
			c0-1.6-1.4-1.5-2.4-1.5L589.2,393z"/>
	</g>
	<g>
		<path class="st11" d="M580.8,417.5c0.9,0.1,2.2-0.1,2.2-1.3c0-0.8-0.6-1.4-1.4-1.4h0h-0.1c-1.1,0-1.6,0.8-1.6,1.9h-2
			c-0.1-1.9,1.4-3.5,3.3-3.6c0.1,0,0.2,0,0.3,0c1.7,0,3.5,1,3.5,2.9c0.1,1-0.5,1.9-1.5,2.2l0,0c1.1,0.2,1.9,1.2,1.8,2.4
			c0,2.2-1.8,3.4-3.9,3.4c-2.3,0-3.9-1.4-3.9-3.8h2c0,1.1,0.6,2.1,1.8,2.1c0.9,0.1,1.7-0.6,1.7-1.5c0,0,0,0,0,0v-0.1
			c0-1.6-1.4-1.6-2.4-1.6L580.8,417.5z"/>
	</g>
	<g>
		<path class="st11" d="M593.2,415h-4.3l-0.4,2.4l0,0c0.5-0.5,1.3-0.8,2-0.8c1.8,0,3.3,1.5,3.3,3.3c0,0.1,0,0.2,0,0.3
			c0,2.1-1.7,3.7-3.7,3.8h-0.1c-2,0-3.8-1.1-3.9-3.3h2.1c0,0.9,0.8,1.6,1.7,1.6c1,0,1.9-0.9,1.8-2c0,0,0,0,0,0v0
			c0.1-1-0.6-1.9-1.6-2c0,0,0,0,0,0h-0.2c-0.7-0.1-1.3,0.3-1.6,0.8h-1.9l1-5.8h5.8L593.2,415z"/>
	</g>
	<g>
		<path class="st11" d="M578,344.8c-0.1-2.4,1.3-4.2,3.8-4.2c1.8-0.1,3.4,1.2,3.6,3.1c0,0.1,0,0.1,0,0.2c0,3.2-3.4,3.4-4.9,5.6h5
			v1.8h-7.7c0-2.4,1.5-3.4,3.3-4.7c0.9-0.6,2.2-1.3,2.2-2.6c0.1-0.8-0.5-1.6-1.4-1.6c0,0,0,0,0,0h-0.2c-1.2,0-1.7,1.3-1.7,2.4
			L578,344.8z"/>
	</g>
	<g>
		<path class="st11" d="M588.3,348.6c0.1,0.7,0.7,1.3,1.4,1.3c1.5,0,1.9-2,2-3.2l0,0c-0.5,0.8-1.4,1.2-2.4,1.2
			c-0.9,0-1.8-0.4-2.4-1.1c-0.5-0.7-0.8-1.5-0.8-2.3c-0.1-2,1.4-3.7,3.4-3.8c0.1,0,0.2,0,0.2,0c3.2,0,4,2.8,4,5.4s-1.1,5.5-4.1,5.5
			c-1.7,0.1-3.2-1.2-3.4-2.9L588.3,348.6z M591.5,344.3c0.1-1-0.7-1.8-1.6-1.9c0,0,0,0,0,0h0c-1,0.1-1.7,0.9-1.6,1.9c0,0,0,0,0,0
			c-0.1,1,0.5,1.8,1.5,2c0.1,0,0.1,0,0.2,0c1,0,1.7-0.8,1.7-1.8C591.5,344.4,591.5,344.4,591.5,344.3L591.5,344.3z"/>
	</g>
	<g>
		<path class="st11" d="M580.8,369.3c0.9,0.1,2.2-0.1,2.2-1.3c0-0.8-0.6-1.4-1.4-1.4c0,0,0,0,0,0h-0.1c-1.1,0-1.6,0.8-1.6,1.9h-2
			c-0.1-1.9,1.4-3.5,3.3-3.6c0.1,0,0.2,0,0.3,0c1.7,0,3.5,1,3.5,2.9c0.1,1-0.5,1.8-1.5,2.1l0,0c1.1,0.2,1.9,1.2,1.8,2.4
			c0,2.2-1.8,3.4-3.9,3.4c-2,0.2-3.7-1.2-3.9-3.2c0-0.2,0-0.4,0-0.6h2c0,1.1,0.6,2.1,1.8,2.1c0.9,0,1.7-0.7,1.7-1.5v-0.1
			c0-1.6-1.4-1.6-2.4-1.6L580.8,369.3z"/>
	</g>
	<g>
		<path class="st11" d="M591.6,375.5h-2.1v-6.8h-2.6v-1.6c1.5,0,2.8-0.5,3.1-2.1h1.7V375.5z"/>
	</g>
	<g>
		<path class="st11" d="M580.8,442.7c0.9,0.1,2.2-0.1,2.2-1.3c0-0.8-0.6-1.4-1.4-1.4c0,0,0,0,0,0h-0.1c-1.1,0-1.6,0.8-1.6,1.9h-2
			c-0.1-1.9,1.4-3.5,3.3-3.6c0.1,0,0.2,0,0.3,0c1.7,0,3.5,1,3.5,2.9c0.1,1-0.5,1.8-1.5,2.1l0,0c1.1,0.2,1.9,1.2,1.8,2.4
			c0,2.2-1.8,3.4-3.9,3.4c-2,0.2-3.7-1.2-3.9-3.2c0-0.2,0-0.4,0-0.6h2c0,1.1,0.6,2.1,1.8,2.1c0.9,0.1,1.7-0.6,1.7-1.5c0,0,0,0,0,0
			v-0.1c0-1.6-1.4-1.6-2.4-1.6L580.8,442.7z"/>
	</g>
	<g>
		<path class="st11" d="M593.5,440.3c-2.2,1.9-3.4,5.9-3.4,8.6h-2.3c0.3-3.1,1.5-6.1,3.5-8.5h-5v-2h7.1L593.5,440.3z"/>
	</g>
	<g>
		<path class="st13" d="M576.7,458.3h18c1.2,0,2.1,0.9,2.1,2.1v13.2c0,1.2-0.9,2.1-2.1,2.1h-18c-1.2,0-2.1-0.9-2.1-2.1v-13.2
			C574.6,459.2,575.5,458.3,576.7,458.3z"/>
	</g>
	<g>
		<path class="st14" d="M548.1,289.2h18c1.2,0,2.1,0.9,2.1,2.1v13.2c0,1.2-0.9,2.1-2.1,2.1h-18c-1.2,0-2.1-0.9-2.1-2.1v-13.2
			C545.9,290.2,546.9,289.2,548.1,289.2z"/>
	</g>
	<g>
		<path class="st11" d="M580.8,466.5c0.9,0.1,2.2-0.1,2.2-1.3c0-0.8-0.6-1.4-1.3-1.4c0,0,0,0,0,0h-0.1c-1.1,0-1.6,0.8-1.6,1.9h-2
			c-0.1-1.9,1.4-3.5,3.3-3.6c0.1,0,0.2,0,0.3,0c1.7,0,3.5,1,3.5,2.9c0.1,1-0.5,1.9-1.5,2.1l0,0c1.1,0.2,1.9,1.2,1.8,2.4
			c0,2.2-1.8,3.4-3.9,3.4c-2,0.2-3.7-1.2-3.9-3.2c0-0.2,0-0.4,0-0.6h2c0,1.1,0.6,2.1,1.8,2.1c0.9,0,1.7-0.6,1.7-1.5v-0.1
			c0-1.6-1.4-1.5-2.4-1.5L580.8,466.5z"/>
	</g>
	<g>
		<path class="st11" d="M588.3,470c0.1,0.7,0.7,1.3,1.4,1.3c1.5,0,1.9-2,2-3.2l0,0c-0.5,0.8-1.4,1.2-2.4,1.2c-0.9,0-1.8-0.4-2.4-1.1
			c-1.3-1.7-1-4.1,0.7-5.4c0.6-0.5,1.4-0.8,2.2-0.8c3.2,0,4,2.8,4,5.4s-1.1,5.5-4.1,5.5c-1.7,0.1-3.2-1.2-3.4-2.9L588.3,470z
			 M591.5,465.7c0.1-1-0.6-1.9-1.6-1.9c0,0,0,0,0,0c-1,0-1.7,0.9-1.6,1.8c0,0,0,0.1,0,0.1c-0.1,1,0.5,1.9,1.5,2c0,0,0.1,0,0.1,0
			c1,0,1.7-0.8,1.7-1.8C591.5,465.8,591.5,465.8,591.5,465.7L591.5,465.7z"/>
	</g>
	<g>
		<path class="st14" d="M548.1,312.8h18c1.2,0,2.1,0.9,2.1,2.1v13.2c0,1.2-0.9,2.1-2.1,2.1h-18c-1.2,0-2.1-0.9-2.1-2.1v-13.2
			C545.9,313.7,546.9,312.8,548.1,312.8z"/>
	</g>
	<g>
		<path class="st14" d="M548.1,337.1h18c1.2,0,2.1,0.9,2.1,2.1v13.2c0,1.2-0.9,2.1-2.1,2.1h-18c-1.2,0-2.1-0.9-2.1-2.1v-13.2
			C545.9,338,546.9,337.1,548.1,337.1z"/>
	</g>
	<g>
		<path class="st16" d="M548.1,360.9h18c1.2,0,2.1,0.9,2.1,2.1v13.2c0,1.2-0.9,2.1-2.1,2.1h-18c-1.2,0-2.1-0.9-2.1-2.1v-13.2
			C545.9,361.9,546.9,360.9,548.1,360.9z"/>
	</g>
	<g>
		<path class="st14" d="M548.1,385h18c1.2,0,2.1,0.9,2.1,2.1v13.2c0,1.2-0.9,2.1-2.1,2.1h-18c-1.2,0-2.1-0.9-2.1-2.1v-13.2
			C545.9,386,546.9,385,548.1,385z"/>
	</g>
	<g>
		<path class="st14" d="M548.1,409.4h18c1.2,0,2.1,0.9,2.1,2.1v13.2c0,1.2-0.9,2.1-2.1,2.1h-18c-1.2,0-2.1-0.9-2.1-2.1v-13.2
			C545.9,410.4,546.9,409.4,548.1,409.4z"/>
	</g>
	<g>
		<path class="st14" d="M548.1,434.6h18c1.2,0,2.1,0.9,2.1,2.1V450c0,1.2-0.9,2.1-2.1,2.1h-18c-1.2,0-2.1-0.9-2.1-2.1v-13.2
			C545.9,435.6,546.9,434.6,548.1,434.6z"/>
	</g>
	<g>
		<path class="st13" d="M548.1,458.3h18c1.2,0,2.1,0.9,2.1,2.1v13.2c0,1.2-0.9,2.1-2.1,2.1h-18c-1.2,0-2.1-0.9-2.1-2.1v-13.2
			C545.9,459.2,546.9,458.3,548.1,458.3z"/>
	</g>
	<g>
		<path class="st11" d="M553.5,8.7c-0.1-2.4,1.3-4.2,3.8-4.2c1.8-0.1,3.4,1.2,3.6,3c0,0.1,0,0.1,0,0.2c0,3.2-3.4,3.4-4.9,5.6h5v1.8
			h-7.7c0-2.4,1.5-3.4,3.3-4.7c0.9-0.6,2.2-1.3,2.2-2.6c0.1-0.8-0.5-1.6-1.4-1.6c0,0,0,0,0,0c-0.1,0-0.1,0-0.2,0
			c-1.2,0-1.7,1.3-1.7,2.4L553.5,8.7z"/>
	</g>
	<g>
		<path class="st11" d="M549.3,297c-0.1-2.4,1.3-4.2,3.8-4.2c1.8-0.1,3.4,1.2,3.6,3.1c0,0.1,0,0.1,0,0.2c0,3.2-3.4,3.4-4.9,5.6h4.9
			v1.8h-7.7c0-2.4,1.5-3.4,3.3-4.7c0.9-0.6,2.2-1.3,2.2-2.6c0.1-0.8-0.5-1.5-1.4-1.6H553c-1.2,0-1.7,1.3-1.7,2.4L549.3,297z"/>
	</g>
	<g>
		<path class="st11" d="M562.9,295.7c-0.1-0.7-0.7-1.3-1.4-1.3c-1.5,0-2,2-2,3.2l0,0c0.5-0.8,1.4-1.2,2.4-1.2c0.9,0,1.8,0.4,2.4,1.1
			c0.5,0.7,0.8,1.5,0.8,2.3c0.1,2-1.4,3.7-3.4,3.8c0,0,0,0,0,0h-0.2c-3.2,0-4-2.8-4-5.4s1.1-5.5,4.1-5.5c1.7-0.1,3.2,1.2,3.4,2.9
			L562.9,295.7z M559.7,300c-0.1,1,0.7,1.9,1.6,1.9c0,0,0,0,0,0l0,0c1.1-0.3,1.7-1.3,1.5-2.4c-0.2-0.7-0.7-1.3-1.5-1.5
			c-1,0-1.7,0.8-1.7,1.8C559.6,299.9,559.6,300,559.7,300L559.7,300z"/>
	</g>
	<g>
		<path class="st11" d="M552.2,369.5c0.9,0.1,2.2-0.1,2.2-1.3c0-0.8-0.6-1.4-1.4-1.4h0h-0.1c-1.1,0-1.6,0.8-1.6,1.9h-2
			c-0.1-1.9,1.4-3.5,3.3-3.6c0.1,0,0.2,0,0.3,0c1.7,0,3.5,1,3.5,2.9c0.1,1-0.5,1.9-1.5,2.1l0,0c1.1,0.2,1.9,1.2,1.8,2.4
			c0,2.2-1.8,3.4-3.9,3.4c-2.3,0-3.9-1.4-3.9-3.8h2c0,1.1,0.6,2.1,1.8,2.1c0.9,0,1.7-0.6,1.7-1.5v-0.1c0-1.6-1.4-1.5-2.4-1.5V369.5z
			"/>
	</g>
	<g>
		<path class="st11" d="M557.6,369.3c-0.1-2.4,1.3-4.2,3.8-4.2c1.8-0.1,3.4,1.2,3.6,3.1c0,0.1,0,0.1,0,0.2c0,3.2-3.4,3.4-4.9,5.6h5
			v1.8h-7.7c0-2.4,1.5-3.4,3.3-4.7c0.9-0.6,2.2-1.3,2.2-2.6c0.1-0.8-0.5-1.6-1.4-1.6c0,0,0,0,0,0h-0.2c-1.3,0-1.7,1.3-1.7,2.4
			L557.6,369.3z"/>
	</g>
	<g>
		<path class="st11" d="M552.2,417.6c0.9,0.1,2.2-0.1,2.2-1.3c0-0.8-0.7-1.4-1.4-1.3h-0.1c-1.1,0-1.6,0.8-1.6,1.9h-2
			c-0.1-1.9,1.4-3.5,3.3-3.6c0.1,0,0.2,0,0.3,0c1.7,0,3.5,1,3.5,2.9c0.1,1-0.5,1.9-1.5,2.2l0,0c1.1,0.2,1.9,1.2,1.8,2.4
			c0,2.2-1.8,3.4-3.9,3.4c-2.3,0-3.9-1.4-3.9-3.8h2c0,1.1,0.6,2.1,1.8,2.1c0.9,0.1,1.7-0.6,1.7-1.5c0,0,0,0,0,0v-0.1
			c0-1.6-1.4-1.6-2.4-1.6L552.2,417.6z"/>
	</g>
	<g>
		<path class="st11" d="M562.9,416.1c-0.1-0.7-0.7-1.3-1.4-1.3c-1.5,0-2,2-2,3.2l0,0c0.5-0.8,1.4-1.2,2.4-1.2c0.9,0,1.8,0.4,2.4,1.1
			c0.5,0.7,0.8,1.5,0.8,2.3c0.1,2-1.4,3.7-3.5,3.8h-0.2c-3.2,0-4-2.8-4-5.4s1.1-5.5,4.1-5.5c1.7-0.1,3.2,1.2,3.4,2.9L562.9,416.1z
			 M559.7,420.4c-0.1,1,0.7,1.9,1.6,1.9c0,0,0,0,0,0l0,0c1.1-0.3,1.7-1.3,1.5-2.4c-0.2-0.7-0.7-1.3-1.5-1.5c-1,0-1.7,0.8-1.7,1.8
			C559.6,420.3,559.6,420.3,559.7,420.4L559.7,420.4z"/>
	</g>
	<g>
		<path class="st11" d="M552.2,442.9c0.9,0.1,2.2-0.1,2.2-1.3c0-0.8-0.6-1.4-1.4-1.4c0,0,0,0,0,0h-0.1c-1.1,0-1.6,0.8-1.6,1.9h-2
			c-0.1-1.9,1.4-3.5,3.3-3.6c0.1,0,0.2,0,0.3,0c1.7,0,3.5,1,3.5,2.9c0.1,1-0.5,1.9-1.5,2.2l0,0c1.1,0.2,1.9,1.2,1.8,2.4
			c0,2.2-1.8,3.4-3.9,3.4c-2.3,0-3.9-1.4-3.9-3.8h2c0,1.1,0.6,2.1,1.8,2.1c0.9,0.1,1.7-0.6,1.7-1.5c0,0,0,0,0,0V446
			c0-1.6-1.4-1.6-2.4-1.6V442.9z"/>
	</g>
	<g>
		<path class="st11" d="M561.3,438.5c2.6,0,3.5,1.8,3.5,2.8c0,1-0.6,1.9-1.5,2.2l0,0c1.2,0.2,2.1,1.3,2,2.5c0,2.2-2,3.3-3.9,3.3
			s-4-1-4-3.2c-0.1-1.2,0.8-2.3,2-2.6l0,0c-1-0.3-1.6-1.2-1.5-2.2C557.7,439.4,559.5,438.5,561.3,438.5z M561.3,447.7
			c0.9,0,1.8-0.7,1.8-1.6c0,0,0,0,0,0V446c0-0.9-0.8-1.7-1.7-1.7c0,0,0,0,0,0h-0.1c-0.9-0.1-1.8,0.6-1.9,1.5c0,0.1,0,0.1,0,0.2
			c0,1,0.8,1.8,1.7,1.8c0,0,0,0,0,0L561.3,447.7L561.3,447.7z M561.3,442.9c0.8,0.1,1.5-0.4,1.6-1.2c0.1-0.8-0.4-1.5-1.2-1.6
			c-0.1,0-0.2,0-0.2,0c-0.1,0-0.2,0-0.2,0c-0.8-0.1-1.5,0.5-1.6,1.3c0,0,0,0.1,0,0.2C559.7,442.3,560.4,442.9,561.3,442.9
			C561.2,442.9,561.2,442.9,561.3,442.9L561.3,442.9z"/>
	</g>
	<g>
		<path class="st11" d="M553.4,469.8H549v-1.9l4.5-6.1h1.9v6.3h1.4v1.8h-1.4v2.4h-2L553.4,469.8z M553.4,464.4L553.4,464.4l-2.8,3.6
			h2.8L553.4,464.4z"/>
	</g>
	<g>
		<path class="st11" d="M561.2,461.6c2.1,0,3.9,1.3,3.9,5.4s-1.8,5.5-3.9,5.5s-3.8-1.3-3.8-5.5S559.2,461.6,561.2,461.6z
			 M561.2,470.7c1.7,0,1.7-2.6,1.7-3.7s0-3.6-1.7-3.6s-1.7,2.5-1.7,3.6S559.5,470.7,561.2,470.7z"/>
	</g>
	<g>
		<path class="st11" d="M549.3,320.1c-0.1-2.4,1.3-4.2,3.8-4.2c1.8-0.1,3.4,1.2,3.6,3.1c0,0.1,0,0.1,0,0.2c0,3.2-3.4,3.4-4.9,5.6
			h4.9v1.8h-7.7c0-2.4,1.5-3.4,3.3-4.7c0.9-0.6,2.2-1.3,2.2-2.6c0.1-0.8-0.5-1.5-1.4-1.6H553c-1.2,0-1.7,1.3-1.7,2.4L549.3,320.1z"
			/>
	</g>
	<g>
		<path class="st11" d="M561.3,315.9c2.6,0,3.5,1.8,3.5,2.8c0,1-0.6,1.9-1.5,2.2l0,0c1.2,0.2,2.1,1.3,2,2.6c0,2.2-2,3.3-3.9,3.3
			s-4-1-4-3.2c-0.1-1.2,0.8-2.3,2-2.6l0,0c-1-0.3-1.6-1.2-1.5-2.2C557.7,316.9,559.5,315.9,561.3,315.9z M561.3,325.2
			c0.9,0,1.8-0.7,1.8-1.6c0,0,0,0,0,0v-0.1c0-0.9-0.8-1.7-1.7-1.7c0,0,0,0,0,0h-0.1c-0.9-0.1-1.7,0.6-1.8,1.5c0,0.1,0,0.1,0,0.2
			c0,1,0.8,1.8,1.7,1.8c0,0,0,0,0,0L561.3,325.2L561.3,325.2z M561.3,320.3c0.8,0.1,1.5-0.4,1.6-1.2c0.1-0.8-0.4-1.5-1.2-1.6
			c-0.1,0-0.2,0-0.2,0c-0.1,0-0.2,0-0.2,0c-0.8-0.1-1.5,0.5-1.6,1.3c0,0,0,0.1,0,0.2C559.7,319.7,560.4,320.4,561.3,320.3
			C561.2,320.3,561.2,320.3,561.3,320.3L561.3,320.3z"/>
	</g>
	<g>
		<path class="st11" d="M552.2,345.3c0.9,0.1,2.2-0.1,2.2-1.3c0-0.8-0.6-1.4-1.4-1.4c0,0,0,0,0,0h-0.1c-1.1,0-1.6,0.8-1.6,1.9h-2
			c-0.1-1.9,1.4-3.5,3.3-3.6c0.1,0,0.2,0,0.3,0c1.7,0,3.5,1,3.5,2.9c0.1,1-0.5,1.9-1.5,2.1l0,0c1.1,0.2,1.9,1.2,1.8,2.4
			c0,2.2-1.8,3.4-3.9,3.4c-2.3,0-3.9-1.4-3.9-3.8h2c0,1.1,0.6,2.1,1.8,2.1c0.9,0,1.7-0.6,1.7-1.5v-0.1c0-1.6-1.4-1.5-2.4-1.5V345.3z
			"/>
	</g>
	<g>
		<path class="st11" d="M561.2,340.8c2.1,0,3.9,1.3,3.9,5.4s-1.8,5.5-3.9,5.5s-3.8-1.3-3.8-5.5S559.2,340.8,561.2,340.8z
			 M561.2,349.9c1.7,0,1.7-2.6,1.7-3.7s0-3.6-1.7-3.6s-1.7,2.6-1.7,3.6S559.5,349.9,561.2,349.9L561.2,349.9z"/>
	</g>
	<g>
		<path class="st11" d="M552.2,393c0.9,0.1,2.2-0.1,2.2-1.3c0-0.8-0.6-1.4-1.4-1.4h0h-0.1c-1.1,0-1.6,0.8-1.6,1.9h-2
			c-0.1-1.9,1.4-3.5,3.3-3.6c0.1,0,0.2,0,0.3,0c1.7,0,3.5,1,3.5,2.9c0.1,1-0.5,1.9-1.5,2.2l0,0c1.1,0.2,1.9,1.2,1.8,2.4
			c0,2.2-1.8,3.4-3.9,3.4c-2.3,0-3.9-1.4-3.9-3.8h2c0,1.1,0.6,2.1,1.8,2.1c0.9,0,1.7-0.6,1.7-1.5v-0.1c0-1.6-1.4-1.5-2.4-1.5V393z"
			/>
	</g>
	<g>
		<path class="st11" d="M561.8,396.8h-4.4v-2l4.5-6.1h1.9v6.3h1.4v1.8h-1.4v2.4h-2L561.8,396.8z M561.8,391.4L561.8,391.4L559,395
			h2.8V391.4z"/>
	</g>
	<g>
		<path class="st11" d="M587.5,14.5h-2.1V7.7h-2.6V6.1c1.5,0.1,2.8-0.5,3.1-2.1h1.7V14.5z"/>
	</g>
	<g>
		<path class="st11" d="M585,32.1c0.9,0.1,2.2-0.1,2.2-1.3c0-0.8-0.6-1.4-1.4-1.4c0,0,0,0,0,0h-0.1c-1.1,0-1.6,0.8-1.6,1.9h-2
			c-0.1-1.9,1.4-3.5,3.3-3.6c0.1,0,0.2,0,0.3,0c1.7,0,3.5,1,3.5,2.9c0.1,1-0.5,1.9-1.5,2.2l0,0c1.1,0.2,1.9,1.2,1.9,2.4
			c0,2.2-1.9,3.4-3.9,3.4c-2.3,0-3.9-1.4-3.9-3.8h2c0,1.1,0.6,2.1,1.8,2.1c0.9,0,1.7-0.6,1.7-1.5c0,0,0,0,0,0v-0.1
			c0-1.6-1.4-1.5-2.4-1.5L585,32.1z"/>
	</g>
	<g>
		<path class="st11" d="M589.1,54.2h-4.3l-0.4,2.4l0,0c0.5-0.5,1.2-0.8,2-0.8c1.8,0,3.3,1.5,3.3,3.3c0,0.1,0,0.2,0,0.3
			c0,2.1-1.7,3.8-3.8,3.8h-0.1c-2,0-3.8-1.1-3.9-3.3h2.2c0.1,0.9,0.8,1.6,1.7,1.6c1,0,1.9-0.9,1.8-2c0,0,0,0,0,0l0,0
			c0.1-1-0.6-1.9-1.6-2c0,0,0,0,0,0h-0.2c-0.7,0-1.3,0.3-1.6,0.8h-1.9l1-5.8h5.8L589.1,54.2z"/>
	</g>
	<g>
		<path class="st11" d="M584.1,107.6c0.1,0.7,0.7,1.3,1.4,1.3c1.6,0,1.9-2,2-3.2l0,0c-0.5,0.8-1.4,1.2-2.4,1.2
			c-0.9,0-1.8-0.4-2.4-1.1c-0.5-0.7-0.8-1.5-0.8-2.3c-0.1-2,1.4-3.7,3.4-3.8c0.1,0,0.2,0,0.3,0c3.2,0,4,2.8,4,5.4s-1.1,5.5-4.1,5.5
			c-1.7,0.1-3.2-1.2-3.4-2.9L584.1,107.6z M587.3,103.3c0.1-1-0.6-1.9-1.6-1.9c0,0,0,0,0,0l0,0c-1,0.1-1.7,0.9-1.6,1.9c0,0,0,0,0,0
			c0,1,0.5,2,1.6,2c1,0,1.7-0.9,1.7-1.8C587.3,103.4,587.3,103.4,587.3,103.3z"/>
	</g>
	<g>
		<path class="st11" d="M583.3,134.2h-2.1v-6.8h-2.6v-1.6c1.5,0,2.8-0.5,3.1-2.1h1.7L583.3,134.2z"/>
	</g>
	<g>
		<path class="st11" d="M591.6,134.2h-2.1v-6.8h-2.6v-1.6c1.5,0,2.8-0.5,3.1-2.1h1.7V134.2z"/>
	</g>
	<g>
		<path class="st11" d="M583.3,206.8h-2.1V200h-2.6v-1.6c1.5,0,2.8-0.5,3.1-2.1h1.7L583.3,206.8z"/>
	</g>
	<g>
		<path class="st11" d="M593.5,198.2c-2.2,1.9-3.4,5.8-3.4,8.7h-2.3c0.3-3.1,1.5-6.1,3.5-8.5h-5v-2h7.1L593.5,198.2z"/>
	</g>
	<g>
		<path class="st11" d="M583.3,231.2h-2.1v-6.8h-2.6v-1.6c1.5,0,2.8-0.5,3.1-2.1h1.7L583.3,231.2z"/>
	</g>
	<g>
		<path class="st11" d="M588.3,228.5c0.1,0.7,0.7,1.3,1.4,1.3c1.5,0,1.9-2,2-3.2l0,0c-0.5,0.8-1.4,1.2-2.4,1.2
			c-0.9,0-1.8-0.4-2.4-1.1c-0.5-0.7-0.8-1.5-0.8-2.3c-0.1-2,1.4-3.7,3.4-3.8c0.1,0,0.2,0,0.3,0c3.2,0,4,2.8,4,5.4s-1.1,5.5-4.1,5.5
			c-1.7,0.1-3.2-1.2-3.4-2.9L588.3,228.5z M591.5,224.2c0.1-1-0.6-1.9-1.6-1.9c0,0,0,0,0,0h0c-1.1,0.3-1.7,1.4-1.5,2.4
			c0.2,0.7,0.7,1.3,1.5,1.5c1,0,1.7-0.8,1.7-1.8C591.5,224.3,591.5,224.3,591.5,224.2L591.5,224.2z"/>
	</g>
	<g>
		<path class="st11" d="M578,249.7c-0.1-2.4,1.3-4.2,3.8-4.2c1.8-0.1,3.4,1.2,3.6,3.1c0,0.1,0,0.1,0,0.2c0,3.2-3.4,3.4-4.9,5.6h5
			v1.8h-7.7c0-2.4,1.5-3.4,3.3-4.7c0.9-0.6,2.2-1.3,2.2-2.6c0.1-0.8-0.5-1.6-1.4-1.6c0,0,0,0,0,0c-0.1,0-0.1,0-0.2,0
			c-1.3,0-1.7,1.3-1.7,2.4L578,249.7z"/>
	</g>
	<g>
		<path class="st11" d="M591.6,256.2h-2.1v-6.8h-2.6v-1.6c1.5,0.1,2.8-0.5,3.1-2.1h1.7V256.2z"/>
	</g>
	<g>
		<path class="st11" d="M578,273.7c-0.1-2.4,1.3-4.2,3.8-4.2c1.8-0.1,3.4,1.2,3.6,3.1c0,0.1,0,0.1,0,0.2c0,3.2-3.4,3.4-4.9,5.6h5
			v1.8h-7.7c0-2.4,1.5-3.4,3.3-4.7c0.9-0.6,2.2-1.3,2.2-2.6c0.1-0.8-0.5-1.5-1.3-1.6c0,0,0,0,0,0h-0.2c-1.3,0-1.7,1.3-1.7,2.4
			L578,273.7z"/>
	</g>
	<g>
		<path class="st11" d="M589.2,273.9c0.9,0.1,2.2-0.1,2.2-1.3c0-0.8-0.6-1.4-1.3-1.4c0,0,0,0,0,0h-0.1c-1.1,0-1.6,0.8-1.6,1.9h-2
			c-0.1-1.9,1.4-3.5,3.3-3.6c0.1,0,0.2,0,0.3,0c1.7,0,3.5,1,3.5,2.9c0.1,1-0.5,1.9-1.5,2.1l0,0c1.1,0.2,1.9,1.2,1.9,2.4
			c0,2.2-1.9,3.4-3.9,3.4c-2.3,0-3.9-1.4-3.9-3.8h2c0,1.1,0.6,2.1,1.8,2.1c0.9,0,1.7-0.6,1.7-1.5c0,0,0,0,0,0c0,0,0-0.1,0-0.1
			c0-1.6-1.4-1.5-2.4-1.5L589.2,273.9z"/>
	</g>
	<g>
		<path class="st11" d="M557.6,36.5h-4.4v-1.9l4.5-6.1h1.9v6.3h1.4v1.8h-1.4V39h-2V36.5z M557.6,31.2L557.6,31.2l-2.8,3.6h2.8
			L557.6,31.2z"/>
	</g>
	<g>
		<path class="st11" d="M554.6,134.8h-2.1V128h-2.6v-1.6c1.5,0,2.8-0.5,3.1-2.1h1.7V134.8z"/>
	</g>
	<g>
		<path class="st11" d="M557.6,128.4c-0.1-2.4,1.3-4.2,3.8-4.2c1.8-0.1,3.4,1.2,3.6,3.1c0,0.1,0,0.1,0,0.2c0,3.2-3.4,3.4-4.9,5.6h5
			v1.8h-7.7c0-2.4,1.5-3.4,3.3-4.7c0.9-0.6,2.2-1.3,2.2-2.6c0.1-0.8-0.5-1.6-1.4-1.6c0,0,0,0,0,0h-0.2c-1.3,0-1.7,1.3-1.7,2.4
			L557.6,128.4z"/>
	</g>
	<g>
		<path class="st11" d="M554.6,183.3h-2.1v-6.8h-2.6v-1.6c1.5,0,2.8-0.5,3.1-2.1h1.7V183.3z"/>
	</g>
	<g>
		<path class="st11" d="M562.9,175.6c-0.1-0.7-0.7-1.3-1.4-1.3c-1.5,0-2,2-2,3.2l0,0c0.5-0.8,1.4-1.2,2.4-1.2c0.9,0,1.8,0.4,2.4,1.1
			c0.5,0.7,0.8,1.5,0.8,2.3c0.1,2-1.4,3.7-3.5,3.8h-0.2c-3.2,0-4-2.8-4-5.4s1.1-5.5,4.1-5.5c1.7-0.1,3.2,1.2,3.4,2.9L562.9,175.6z
			 M559.7,179.9c-0.1,1,0.7,1.9,1.6,1.9c0,0,0,0,0,0l0,0c1-0.1,1.7-0.9,1.6-1.9c0,0,0,0,0,0c0.1-0.9-0.5-1.8-1.4-1.9
			c-0.9-0.1-1.8,0.5-1.9,1.4C559.6,179.5,559.6,179.7,559.7,179.9L559.7,179.9z"/>
	</g>
	<g>
		<path class="st11" d="M554.6,207.5h-2.1v-6.8h-2.6v-1.6c1.5,0,2.8-0.5,3.1-2.1h1.7V207.5z"/>
	</g>
	<g>
		<path class="st11" d="M561.3,196.8c2.6,0,3.5,1.8,3.5,2.8c0.1,1-0.6,1.9-1.5,2.2l0,0c1.2,0.2,2.1,1.3,2,2.6c0,2.2-2,3.3-3.9,3.3
			s-4-1-4-3.2c-0.1-1.2,0.8-2.3,2-2.6l0,0c-1-0.3-1.6-1.2-1.5-2.2C557.7,197.8,559.5,196.8,561.3,196.8z M561.3,206.1
			c0.9,0,1.8-0.7,1.8-1.6c0,0,0,0,0,0v-0.1c0-0.9-0.8-1.7-1.7-1.7c0,0,0,0,0,0h-0.1c-0.9-0.1-1.7,0.6-1.8,1.5c0,0.1,0,0.1,0,0.2
			c0,1,0.8,1.8,1.7,1.8L561.3,206.1L561.3,206.1z M561.3,201.2c0.8,0.1,1.5-0.5,1.5-1.3c0.1-0.8-0.5-1.5-1.3-1.5l0,0
			c-0.1,0-0.2,0-0.2,0c-0.8-0.1-1.5,0.5-1.6,1.3c0,0,0,0,0,0c0,0.1,0,0.1,0,0.2C559.7,200.6,560.4,201.3,561.3,201.2
			C561.2,201.2,561.2,201.2,561.3,201.2L561.3,201.2z"/>
	</g>
	<g>
		<path class="st11" d="M549.3,250.4c-0.1-2.4,1.3-4.2,3.8-4.2c1.8-0.1,3.4,1.2,3.6,3.1c0,0.1,0,0.1,0,0.2c0,3.2-3.4,3.4-4.9,5.6
			h4.9v1.8h-7.7c0-2.4,1.5-3.4,3.3-4.7c0.9-0.6,2.2-1.3,2.2-2.6c0.1-0.8-0.5-1.5-1.3-1.6c0,0,0,0,0,0H553c-1.2,0-1.7,1.3-1.7,2.4
			L549.3,250.4z"/>
	</g>
	<g>
		<path class="st11" d="M557.6,250.4c-0.1-2.4,1.3-4.2,3.8-4.2c1.8-0.1,3.4,1.2,3.6,3.1c0,0.1,0,0.1,0,0.2c0,3.2-3.4,3.4-4.9,5.6h5
			v1.8h-7.7c0-2.4,1.5-3.4,3.3-4.7c0.9-0.6,2.2-1.3,2.2-2.6c0.1-0.8-0.5-1.6-1.4-1.6c0,0,0,0,0,0h-0.2c-1.3,0-1.7,1.3-1.7,2.4H557.6
			z"/>
	</g>
	<g>
		<path class="st11" d="M558.7,55.8c-0.1-0.7-0.7-1.3-1.4-1.3c-1.5,0-2,2-2,3.2l0,0c0.5-0.8,1.4-1.2,2.4-1.2c0.9,0,1.8,0.4,2.4,1.1
			c0.5,0.7,0.8,1.5,0.8,2.3c0.1,2-1.4,3.7-3.4,3.8c-0.1,0-0.1,0-0.2,0c-3.2,0-4-2.8-4-5.4s1.1-5.5,4.1-5.5c1.7-0.1,3.2,1.2,3.4,2.9
			L558.7,55.8z M555.5,60.1c-0.1,1,0.6,1.9,1.6,2c0,0,0,0,0.1,0h0c1.1-0.3,1.7-1.3,1.5-2.4c-0.2-0.7-0.7-1.3-1.5-1.5
			c-1,0-1.7,0.8-1.7,1.8C555.5,60,555.5,60,555.5,60.1L555.5,60.1z"/>
	</g>
	<g>
		<polygon class="st13" points="530,24.2 509.8,24.2 499.6,32.9 509.8,41.7 530,41.7 540.2,32.9 		"/>
	</g>
	<g>
		<path class="st11" d="M515.3,36.1c-0.6,0.8-1.6,1.3-2.6,1.3c-2.9,0-4.7-2.2-4.7-4.9s1.7-5,4.7-5c2-0.1,3.8,1.4,4,3.4h-2
			c-0.2-1-1-1.7-2-1.6c-1.9,0-2.6,1.6-2.6,3.2s0.7,3.2,2.6,3.2c1.1,0.1,2.1-0.6,2.2-1.7c0,0,0-0.1,0-0.1c0-0.1,0-0.2,0-0.2h-2.1
			v-1.5h4v5.1h-1.3L515.3,36.1z"/>
	</g>
	<g>
		<path class="st11" d="M518.5,27.7h2.1l4,6.4l0,0v-6.4h2v9.5h-2.1l-4-6.4l0,0v6.4h-2L518.5,27.7z"/>
	</g>
	<g>
		<path class="st11" d="M528.4,27.7h4.1c2.5,0,4.3,1.5,4.3,4.7c0,2.8-1.4,4.8-4.3,4.8h-4.1V27.7z M530.5,35.5h1.9
			c1.2,0,2.4-0.7,2.4-2.8c0-1.9-0.7-3.1-2.7-3.1h-1.5L530.5,35.5z"/>
	</g>
	<g>
		<path class="st13" d="M530.3,458.3h9.9c1.4,0,2.5,1.1,2.5,2.5v12.5c0,1.4-1.1,2.5-2.5,2.5h-9.9c-1.4,0-2.5-1.1-2.5-2.5v-12.5
			C527.9,459.4,529,458.3,530.3,458.3z"/>
	</g>
	<g>
		<polygon class="st13" points="530,458.3 509.8,458.3 499.6,467 509.8,475.7 530,475.7 540.2,467 		"/>
	</g>
	<g>
		<path class="st11" d="M515.3,470.2c-0.6,0.8-1.6,1.3-2.6,1.3c-2.9,0-4.7-2.2-4.7-4.9s1.7-5,4.7-5c2-0.1,3.8,1.4,4,3.4h-2
			c-0.2-1-1-1.6-2-1.6c-1.9,0-2.6,1.6-2.6,3.2s0.7,3.2,2.6,3.2c1.1,0.1,2.1-0.6,2.2-1.7c0,0,0-0.1,0-0.1c0-0.1,0-0.2,0-0.2h-2.1
			v-1.6h4v5.1h-1.3L515.3,470.2z"/>
	</g>
	<g>
		<path class="st11" d="M518.5,461.8h2.1l4,6.4l0,0v-6.4h2v9.5h-2.1l-4-6.4l0,0v6.4h-2L518.5,461.8z"/>
	</g>
	<g>
		<path class="st11" d="M528.4,461.8h4.1c2.5,0,4.3,1.6,4.3,4.7c0,2.8-1.4,4.8-4.3,4.8h-4.1V461.8z M530.5,469.5h1.9
			c1.2,0,2.4-0.8,2.4-2.9c0-1.9-0.7-3.1-2.7-3.1h-1.5L530.5,469.5z"/>
	</g>
	<g>
		<path class="st13" d="M602.7,24.2h9.9c1.4,0,2.5,1.1,2.5,2.5v12.5c0,1.4-1.1,2.5-2.5,2.5h-9.9c-1.4,0-2.5-1.1-2.5-2.5V26.7
			C600.2,25.3,601.3,24.2,602.7,24.2z"/>
	</g>
	<g>
		<polygon class="st13" points="613,24.2 633.3,24.2 643.4,33 633.3,41.7 613,41.7 602.9,33 		"/>
	</g>
	<g>
		<path class="st11" d="M613.2,36.1c-0.6,0.8-1.6,1.3-2.6,1.3c-2.9,0-4.7-2.2-4.7-4.9s1.7-5,4.7-5c2-0.1,3.8,1.4,4,3.4h-2
			c-0.2-1-1-1.7-2-1.6c-1.9,0-2.6,1.6-2.6,3.2s0.7,3.2,2.6,3.2c1.1,0.1,2.1-0.7,2.3-1.8c0,0,0,0,0,0c0-0.1,0-0.2,0-0.2h-2.1v-1.5h4
			v5.1h-1.3L613.2,36.1z"/>
	</g>
	<g>
		<path class="st11" d="M616.5,27.7h2.1l4,6.4l0,0v-6.4h2v9.5h-2.1l-4-6.4l0,0v6.4h-2L616.5,27.7z"/>
	</g>
	<g>
		<path class="st11" d="M626.3,27.7h4.1c2.5,0,4.3,1.6,4.3,4.7c0,2.8-1.4,4.8-4.3,4.8h-4.1L626.3,27.7z M628.4,35.5h1.9
			c1.2,0,2.4-0.8,2.4-2.8c0-1.9-0.7-3.1-2.8-3.1h-1.5V35.5z"/>
	</g>
	<g>
		<path class="st13" d="M602.7,458.3h9.9c1.4,0,2.5,1.1,2.5,2.5v12.5c0,1.4-1.1,2.5-2.5,2.5h-9.9c-1.4,0-2.5-1.1-2.5-2.5v-12.5
			C600.2,459.4,601.3,458.3,602.7,458.3z"/>
	</g>
	<g>
		<polygon class="st13" points="613,458.3 633.3,458.3 643.4,467 633.3,475.7 613,475.7 602.9,467 		"/>
	</g>
	<g>
		<path class="st11" d="M613.2,470.2c-0.6,0.8-1.6,1.3-2.6,1.3c-2.9,0-4.7-2.2-4.7-4.9s1.7-5,4.7-5c2-0.1,3.8,1.4,4,3.4h-2
			c-0.2-1-1-1.6-2-1.6c-1.9,0-2.6,1.6-2.6,3.3s0.7,3.2,2.6,3.2c1.1,0.1,2.1-0.7,2.3-1.8c0,0,0,0,0,0c0-0.1,0-0.2,0-0.2h-2.1v-1.6h4
			v5.1h-1.3L613.2,470.2z"/>
	</g>
	<g>
		<path class="st11" d="M616.5,461.8h2.1l4,6.4l0,0v-6.4h2v9.5h-2.1l-4-6.4l0,0v6.4h-2L616.5,461.8z"/>
	</g>
	<g>
		<path class="st11" d="M626.3,461.8h4.1c2.5,0,4.3,1.5,4.3,4.7c0,2.8-1.4,4.8-4.3,4.8h-4.1L626.3,461.8z M628.4,469.5h1.9
			c1.2,0,2.4-0.7,2.4-2.9c0-1.9-0.7-3.1-2.8-3.1h-1.5V469.5z"/>
	</g>
	<g>
		<path class="st11" d="M557.1,76.8c2.6,0,3.5,1.8,3.5,2.8c0,1-0.6,1.9-1.5,2.2l0,0c1.2,0.2,2.1,1.3,2,2.6c0,2.2-2,3.3-3.9,3.3
			s-4-1-4-3.2c-0.1-1.2,0.8-2.3,2-2.6l0,0c-1-0.3-1.6-1.2-1.5-2.2C553.6,77.8,555.4,76.8,557.1,76.8z M557.1,86.1
			c0.9,0,1.8-0.7,1.8-1.6c0,0,0,0,0,0v-0.1c0-0.9-0.8-1.7-1.7-1.7c0,0,0,0,0,0h-0.1c-0.9-0.1-1.7,0.6-1.8,1.5c0,0.1,0,0.1,0,0.2
			c0,1,0.8,1.8,1.7,1.8C557,86.1,557,86.1,557.1,86.1L557.1,86.1z M557.1,81.2c0.8,0.1,1.5-0.5,1.5-1.3s-0.5-1.5-1.3-1.5
			c-0.1,0-0.2,0-0.2,0c-0.8-0.1-1.5,0.5-1.6,1.3c0,0,0,0,0,0c0,0.1,0,0.1,0,0.2c0,0.8,0.7,1.4,1.5,1.4
			C557,81.3,557.1,81.3,557.1,81.2L557.1,81.2z"/>
	</g>
	<g>
		<path class="st11" d="M554.6,111h-2.1v-6.8h-2.6v-1.6c1.5,0,2.8-0.5,3.1-2.1h1.7V111z"/>
	</g>
	<g>
		<path class="st11" d="M561.2,100.3c2.1,0,3.9,1.3,3.9,5.4s-1.8,5.5-3.9,5.5s-3.8-1.3-3.8-5.5S559.2,100.3,561.2,100.3z
			 M561.2,109.4c1.7,0,1.7-2.6,1.7-3.7s0-3.7-1.7-3.7s-1.7,2.6-1.7,3.7S559.5,109.4,561.2,109.4z"/>
	</g>
	<g>
		<path class="st11" d="M554.6,159.4h-2.1v-6.8h-2.6V151c1.5,0.1,2.8-0.5,3.1-2.1h1.7V159.4z"/>
	</g>
	<g>
		<path class="st11" d="M561.8,157h-4.4v-2l4.5-6.1h1.9v6.3h1.4v1.8h-1.4v2.4h-2L561.8,157z M561.8,151.6L561.8,151.6l-2.8,3.6h2.8
			V151.6z"/>
	</g>
	<g>
		<path class="st11" d="M549.3,225.4c-0.1-2.4,1.3-4.2,3.8-4.2c1.8-0.1,3.4,1.2,3.6,3.1c0,0.1,0,0.1,0,0.2c0,3.2-3.4,3.4-4.9,5.6
			h4.9v1.8h-7.7c0-2.4,1.5-3.4,3.3-4.7c0.9-0.6,2.2-1.3,2.2-2.6c0.1-0.8-0.5-1.5-1.3-1.6c0,0,0,0,0,0H553c-1.2,0-1.7,1.3-1.7,2.4
			L549.3,225.4z"/>
	</g>
	<g>
		<path class="st11" d="M561.2,221.2c2.1,0,3.9,1.3,3.9,5.4s-1.8,5.5-3.9,5.5s-3.8-1.3-3.8-5.5S559.2,221.2,561.2,221.2z
			 M561.2,230.3c1.7,0,1.7-2.6,1.7-3.8s0-3.6-1.7-3.6s-1.7,2.6-1.7,3.6S559.5,230.3,561.2,230.3L561.2,230.3z"/>
	</g>
	<g>
		<path class="st11" d="M549.3,274.2c-0.1-2.4,1.3-4.2,3.8-4.2c1.8-0.1,3.4,1.2,3.6,3.1c0,0.1,0,0.1,0,0.2c0,3.2-3.4,3.4-4.9,5.6
			h4.9v1.8h-7.7c0-2.4,1.5-3.4,3.3-4.7c0.9-0.6,2.2-1.3,2.2-2.6c0.1-0.8-0.5-1.6-1.4-1.6c0,0,0,0,0,0H553c-1.2,0-1.7,1.3-1.7,2.4
			L549.3,274.2z"/>
	</g>
	<g>
		<path class="st11" d="M561.8,278.2h-4.4v-1.9l4.5-6.1h1.9v6.3h1.4v1.8h-1.4v2.4h-2L561.8,278.2z M561.8,272.9L561.8,272.9
			l-2.8,3.6h2.8V272.9z"/>
	</g>
	<g>
		<path class="st11" d="M589.3,78.2c-2.2,1.9-3.4,5.8-3.4,8.6h-2.3c0.3-3.1,1.5-6.1,3.5-8.5h-5v-2h7.2L589.3,78.2z"/>
	</g>
	<g>
		<path class="st14" d="M530.3,265.6h9.9c1.4,0,2.5,1.1,2.5,2.5v12.5c0,1.4-1.1,2.5-2.5,2.5h-9.9c-1.4,0-2.5-1.1-2.5-2.5v-12.5
			C527.9,266.7,529,265.6,530.3,265.6z"/>
	</g>
	<g>
		<polygon class="st14" points="516.4,265.6 533.9,265.6 542.7,274.3 533.9,283 516.4,283 507.6,274.3 		"/>
	</g>
	<g>
		<path class="st11" d="M519.1,269h2.1l4,6.4l0,0V269h2v9.5H525l-4-6.4l0,0v6.4h-2L519.1,269z"/>
	</g>
	<g>
		<path class="st11" d="M535.3,272.2c-0.2-1-1.1-1.7-2.1-1.7c-1.9,0-2.6,1.6-2.6,3.2s0.7,3.2,2.6,3.2c1.2,0,2.2-0.9,2.2-2.1
			c0,0,0,0,0,0h2c-0.1,2.2-1.9,4-4.1,3.9c0,0-0.1,0-0.1,0c-2.9,0-4.7-2.2-4.7-4.9s1.8-5,4.7-5c2.1-0.1,3.9,1.4,4.1,3.4H535.3z"/>
	</g>
	<g>
		<path class="st14" d="M530.3,289.2h9.9c1.4,0,2.5,1.1,2.5,2.5v12.5c0,1.4-1.1,2.5-2.5,2.5h-9.9c-1.4,0-2.5-1.1-2.5-2.5v-12.5
			C527.8,290.3,529,289.2,530.3,289.2z"/>
	</g>
	<g>
		<polygon class="st14" points="516.4,289.2 533.9,289.2 542.7,298 533.9,306.7 516.4,306.7 507.6,298 		"/>
	</g>
	<g>
		<path class="st11" d="M519.1,292.7h2.1l4,6.4l0,0v-6.4h2v9.5H525l-4-6.4l0,0v6.4h-2L519.1,292.7z"/>
	</g>
	<g>
		<path class="st11" d="M535.3,295.9c-0.2-1-1.1-1.7-2.1-1.7c-1.9,0-2.6,1.6-2.6,3.2s0.7,3.2,2.6,3.2c1.2,0,2.2-0.9,2.2-2.1
			c0,0,0,0,0,0h2c-0.1,2.2-1.9,4-4.1,3.9c0,0-0.1,0-0.1,0c-2.9,0-4.7-2.2-4.7-4.9s1.8-5,4.7-5c2.1-0.1,3.9,1.4,4.1,3.4L535.3,295.9z
			"/>
	</g>
	<g>
		<path class="st14" d="M530.3,312.8h9.9c1.4,0,2.5,1.1,2.5,2.5v12.5c0,1.4-1.1,2.5-2.5,2.5h-9.9c-1.4,0-2.5-1.1-2.5-2.5v-12.5
			C527.9,313.9,529,312.8,530.3,312.8z"/>
	</g>
	<g>
		<polygon class="st14" points="516.4,312.8 533.9,312.8 542.7,321.5 533.9,330.2 516.4,330.2 507.6,321.5 		"/>
	</g>
	<g>
		<path class="st11" d="M519.1,316.2h2.1l4,6.4l0,0v-6.4h2v9.5H525l-4-6.4l0,0v6.4h-2L519.1,316.2z"/>
	</g>
	<g>
		<path class="st11" d="M535.3,319.4c-0.2-1-1.1-1.7-2.1-1.7c-1.9,0-2.6,1.6-2.6,3.2s0.7,3.2,2.6,3.2c1.2,0,2.2-0.9,2.2-2.1
			c0,0,0,0,0,0h2c-0.1,2.2-1.9,4-4.1,3.9c0,0-0.1,0-0.1,0c-2.9,0-4.7-2.2-4.7-4.9s1.8-5,4.7-5c2.1-0.1,3.9,1.4,4.1,3.4H535.3z"/>
	</g>
	<g>
		<path class="st14" d="M530.3,0h9.9c1.4,0,2.5,1.1,2.5,2.5V15c0,1.4-1.1,2.5-2.5,2.5h-9.9c-1.4,0-2.5-1.1-2.5-2.5V2.5
			C527.9,1.1,529,0,530.3,0z"/>
	</g>
	<g>
		<polygon class="st14" points="516.4,0 533.9,0 542.7,8.7 533.9,17.5 516.4,17.5 507.6,8.7 		"/>
	</g>
	<g>
		<path class="st11" d="M519.1,3.5h2.1l4,6.4l0,0V3.5h2V13H525l-4-6.4l0,0V13h-2L519.1,3.5z"/>
	</g>
	<g>
		<path class="st11" d="M535.3,6.7c-0.2-1-1.1-1.7-2.1-1.7c-1.9,0-2.6,1.6-2.6,3.2s0.7,3.2,2.6,3.2c1.2,0,2.2-0.9,2.2-2.1
			c0,0,0,0,0,0h2c-0.1,2.2-1.9,4-4.1,3.9c0,0-0.1,0-0.1,0c-2.9,0-4.7-2.2-4.7-4.9s1.8-5,4.7-5c2.1-0.1,3.9,1.4,4.1,3.4H535.3z"/>
	</g>
	<g>
		<path class="st14" d="M530.3,73h9.9c1.4,0,2.5,1.1,2.5,2.5V88c0,1.4-1.1,2.5-2.5,2.5h-9.9c-1.4,0-2.5-1.1-2.5-2.5V75.5
			C527.9,74.1,529,73,530.3,73z"/>
	</g>
	<g>
		<polygon class="st14" points="516.4,73 533.9,73 542.7,81.8 533.9,90.5 516.4,90.5 507.6,81.8 		"/>
	</g>
	<g>
		<path class="st11" d="M519.1,76.5h2.1l4,6.4l0,0v-6.4h2V86H525l-4-6.4l0,0V86h-2L519.1,76.5z"/>
	</g>
	<g>
		<path class="st11" d="M535.3,79.7c-0.2-1-1.1-1.7-2.1-1.7c-1.9,0-2.6,1.6-2.6,3.2s0.7,3.2,2.6,3.2c1.2,0,2.2-0.9,2.2-2.1
			c0,0,0,0,0,0h2c-0.1,2.2-1.9,4-4.1,3.9c0,0-0.1,0-0.1,0c-2.9,0-4.7-2.2-4.7-4.9s1.8-5,4.7-5c2.1-0.1,3.9,1.4,4.1,3.4L535.3,79.7z"
			/>
	</g>
	<g>
		<path class="st14" d="M602.6,0h9.9c1.4,0,2.5,1.1,2.5,2.5V15c0,1.4-1.1,2.5-2.5,2.5h-9.9c-1.4,0-2.5-1.1-2.5-2.5V2.5
			C600.2,1.1,601.3,0,602.6,0z"/>
	</g>
	<g>
		<polygon class="st14" points="626.4,0 608.9,0 600.1,8.7 608.9,17.4 626.4,17.4 635.2,8.7 		"/>
	</g>
	<g>
		<path class="st11" d="M606.6,3.5h2.1l4,6.4l0,0V3.5h2V13h-2.1l-3.9-6.4l0,0V13h-2L606.6,3.5z"/>
	</g>
	<g>
		<path class="st11" d="M622.8,6.7c-0.2-1-1.1-1.7-2.1-1.7c-1.9,0-2.6,1.6-2.6,3.2s0.7,3.2,2.6,3.2c1.2,0,2.1-0.9,2.2-2.1
			c0,0,0,0,0,0h2c-0.1,2.2-1.9,3.9-4.1,3.9c0,0,0,0-0.1,0c-2.9,0-4.7-2.2-4.7-4.9s1.7-5,4.7-5c2.1-0.1,3.9,1.4,4.1,3.4L622.8,6.7z"
			/>
	</g>
	<g>
		<path class="st14" d="M602.6,48.5h9.9c1.4,0,2.5,1.1,2.5,2.5v12.5c0,1.4-1.1,2.5-2.5,2.5h-9.9c-1.4,0-2.5-1.1-2.5-2.5V50.9
			C600.2,49.6,601.3,48.5,602.6,48.5z"/>
	</g>
	<g>
		<polygon class="st14" points="626.4,48.5 608.9,48.5 600.1,57.2 608.9,65.9 626.4,65.9 635.2,57.2 		"/>
	</g>
	<g>
		<path class="st11" d="M606.6,51.9h2.1l4,6.4l0,0v-6.4h2v9.5h-2.1l-4-6.4l0,0v6.4h-2L606.6,51.9z"/>
	</g>
	<g>
		<path class="st11" d="M622.8,55.1c-0.2-1-1.1-1.7-2.1-1.7c-1.9,0-2.6,1.6-2.6,3.2s0.7,3.2,2.6,3.2c1.2,0,2.1-0.9,2.2-2.1
			c0,0,0,0,0,0h2c-0.1,2.2-1.9,4-4.1,3.9c0,0-0.1,0-0.1,0c-2.9,0-4.7-2.2-4.7-4.9s1.7-5,4.7-5c2.1-0.1,3.9,1.4,4.1,3.4L622.8,55.1z"
			/>
	</g>
	<g>
		<path class="st14" d="M602.6,73h9.9c1.4,0,2.5,1.1,2.5,2.5V88c0,1.4-1.1,2.5-2.5,2.5h-9.9c-1.4,0-2.5-1.1-2.5-2.5V75.5
			C600.2,74.1,601.3,73,602.6,73z"/>
	</g>
	<g>
		<polygon class="st14" points="626.4,73 608.9,73 600.1,81.8 608.9,90.5 626.4,90.5 635.2,81.8 		"/>
	</g>
	<g>
		<path class="st11" d="M606.6,76.5h2.1l4,6.4l0,0v-6.4h2V86h-2.1l-4-6.4l0,0V86h-2L606.6,76.5z"/>
	</g>
	<g>
		<path class="st11" d="M622.8,79.7c-0.2-1-1.1-1.7-2.1-1.7c-1.9,0-2.6,1.6-2.6,3.2s0.7,3.2,2.6,3.2c1.2,0,2.1-0.9,2.2-2.1
			c0,0,0,0,0,0h2c-0.1,2.2-1.9,4-4.1,3.9c0,0-0.1,0-0.1,0c-2.9,0-4.7-2.2-4.7-4.9s1.7-5,4.7-5c2.1-0.1,3.9,1.4,4.1,3.4L622.8,79.7z"
			/>
	</g>
	<g>
		<path class="st14" d="M530.3,96.5h9.9c1.4,0,2.5,1.1,2.5,2.5v12.5c0,1.4-1.1,2.5-2.5,2.5h-9.9c-1.4,0-2.5-1.1-2.5-2.5V99
			C527.9,97.6,529,96.5,530.3,96.5z"/>
	</g>
	<g>
		<polygon class="st14" points="516.4,96.5 533.9,96.5 542.7,105.3 533.9,114 516.4,114 507.6,105.3 		"/>
	</g>
	<g>
		<path class="st11" d="M519.1,100h2.1l4,6.4l0,0V100h2v9.5H525l-4-6.4l0,0v6.4h-2L519.1,100z"/>
	</g>
	<g>
		<path class="st11" d="M535.3,103.2c-0.2-1-1.1-1.7-2.1-1.7c-1.9,0-2.6,1.6-2.6,3.2s0.7,3.2,2.6,3.2c1.2,0,2.2-0.9,2.2-2.1
			c0,0,0,0,0,0h2c-0.1,2.2-1.9,4-4.1,3.9c0,0-0.1,0-0.1,0c-2.9,0-4.7-2.2-4.7-4.9s1.8-5,4.7-5c2.1-0.1,3.9,1.4,4.1,3.4H535.3z"/>
	</g>
	<g>
		<path class="st14" d="M602.6,96.5h9.9c1.4,0,2.5,1.1,2.5,2.5v12.5c0,1.4-1.1,2.5-2.5,2.5h-9.9c-1.4,0-2.5-1.1-2.5-2.5V99
			C600.2,97.6,601.3,96.5,602.6,96.5z"/>
	</g>
	<g>
		<polygon class="st14" points="626.4,96.5 608.9,96.5 600.1,105.3 608.9,114 626.4,114 635.2,105.3 		"/>
	</g>
	<g>
		<path class="st11" d="M606.6,100h2.1l4,6.4l0,0V100h2v9.5h-2.1l-4-6.4l0,0v6.4h-2L606.6,100z"/>
	</g>
	<g>
		<path class="st11" d="M622.8,103.2c-0.2-1-1.1-1.7-2.1-1.7c-1.9,0-2.6,1.6-2.6,3.2s0.7,3.2,2.6,3.2c1.2,0,2.1-0.9,2.2-2.1
			c0,0,0,0,0,0h2c-0.1,2.2-1.9,4-4.1,3.9c0,0-0.1,0-0.1,0c-2.9,0-4.7-2.2-4.7-4.9s1.7-5,4.7-5c2.1-0.1,3.9,1.4,4.1,3.4L622.8,103.2z
			"/>
	</g>
	<g>
		<path class="st14" d="M530.3,120.1h9.9c1.4,0,2.5,1.1,2.5,2.5V135c0,1.4-1.1,2.5-2.5,2.5h-9.9c-1.4,0-2.5-1.1-2.5-2.5v-12.5
			C527.9,121.2,529,120.1,530.3,120.1z"/>
	</g>
	<g>
		<polygon class="st14" points="516.4,120.1 533.9,120.1 542.7,128.8 533.9,137.5 516.4,137.5 507.6,128.8 		"/>
	</g>
	<g>
		<path class="st11" d="M519.1,123.5h2.1l4,6.4l0,0v-6.4h2v9.5H525l-4-6.4l0,0v6.4h-2L519.1,123.5z"/>
	</g>
	<g>
		<path class="st11" d="M535.3,126.7c-0.2-1-1.1-1.7-2.1-1.7c-1.9,0-2.6,1.6-2.6,3.2c0,1.6,0.7,3.2,2.6,3.2c1.2,0,2.2-0.9,2.2-2.1
			c0,0,0,0,0,0h2c-0.1,2.2-1.9,4-4.1,3.9c0,0-0.1,0-0.1,0c-2.9,0-4.7-2.2-4.7-4.9s1.8-5,4.7-5c2.1-0.1,3.9,1.4,4.1,3.4L535.3,126.7z
			"/>
	</g>
	<g>
		<path class="st14" d="M602.6,120.1h9.9c1.4,0,2.5,1.1,2.5,2.5V135c0,1.4-1.1,2.5-2.5,2.5h-9.9c-1.4,0-2.5-1.1-2.5-2.5v-12.5
			C600.2,121.2,601.3,120.1,602.6,120.1z"/>
	</g>
	<g>
		<polygon class="st14" points="626.4,120.1 608.9,120.1 600.1,128.8 608.9,137.5 626.4,137.5 635.2,128.8 		"/>
	</g>
	<g>
		<path class="st11" d="M606.6,123.5h2.1l4,6.4l0,0v-6.4h2v9.5h-2.1l-4-6.4l0,0v6.4h-2L606.6,123.5z"/>
	</g>
	<g>
		<path class="st11" d="M622.8,126.7c-0.2-1-1.1-1.7-2.1-1.7c-1.9,0-2.6,1.6-2.6,3.2c0,1.6,0.7,3.2,2.6,3.2c1.2,0,2.2-1,2.2-2.1v0h2
			c-0.1,2.2-1.9,4-4.1,3.9c0,0-0.1,0-0.1,0c-2.9,0-4.7-2.2-4.7-4.9s1.7-5,4.7-5c2.1-0.1,3.9,1.4,4.1,3.4L622.8,126.7z"/>
	</g>
	<g>
		<path class="st14" d="M602.6,144.4h9.9c1.4,0,2.5,1.1,2.5,2.5v12.5c0,1.4-1.1,2.5-2.5,2.5h-9.9c-1.4,0-2.5-1.1-2.5-2.5v-12.5
			C600.2,145.5,601.3,144.4,602.6,144.4z"/>
	</g>
	<g>
		<polygon class="st14" points="626.4,144.4 608.9,144.4 600.1,153.1 608.9,161.8 626.4,161.8 635.2,153.1 		"/>
	</g>
	<g>
		<path class="st11" d="M606.6,147.8h2.1l4,6.4l0,0v-6.4h2v9.5h-2.1l-4-6.4l0,0v6.4h-2L606.6,147.8z"/>
	</g>
	<g>
		<path class="st11" d="M622.8,151c-0.2-1-1.1-1.7-2.1-1.7c-1.9,0-2.6,1.6-2.6,3.3s0.7,3.2,2.6,3.2c1.2,0,2.1-0.9,2.2-2.1h2
			c-0.1,2.2-1.9,4-4.1,3.9c0,0-0.1,0-0.1,0c-2.9,0-4.7-2.2-4.7-4.9s1.7-5,4.7-5c2.1-0.1,3.9,1.4,4.1,3.4L622.8,151z"/>
	</g>
	<g>
		<path class="st14" d="M530.3,168.2h9.9c1.4,0,2.5,1.1,2.5,2.5v12.5c0,1.4-1.1,2.5-2.5,2.5h-9.9c-1.4,0-2.5-1.1-2.5-2.5v-12.5
			C527.9,169.3,529,168.2,530.3,168.2z"/>
	</g>
	<g>
		<polygon class="st14" points="516.4,168.2 533.9,168.2 542.7,177 533.9,185.7 516.4,185.7 507.6,177 		"/>
	</g>
	<g>
		<path class="st11" d="M519.1,171.7h2.1l4,6.4l0,0v-6.4h2v9.5H525l-4-6.4l0,0v6.4h-2L519.1,171.7z"/>
	</g>
	<g>
		<path class="st11" d="M535.3,174.9c-0.2-1-1.1-1.7-2.1-1.7c-1.9,0-2.6,1.6-2.6,3.2s0.7,3.2,2.6,3.2c1.2,0,2.2-0.9,2.2-2.1
			c0,0,0,0,0,0h2c-0.1,2.2-1.9,4-4.1,3.9c0,0-0.1,0-0.1,0c-2.9,0-4.7-2.2-4.7-5s1.8-5,4.7-5c2.1-0.1,3.9,1.4,4.1,3.4L535.3,174.9z"
			/>
	</g>
	<g>
		<path class="st14" d="M530.3,144.4h9.9c1.4,0,2.5,1.1,2.5,2.5v12.5c0,1.4-1.1,2.5-2.5,2.5h-9.9c-1.4,0-2.5-1.1-2.5-2.5v-12.5
			C527.9,145.5,529,144.4,530.3,144.4z"/>
	</g>
	<g>
		<polygon class="st14" points="516.4,144.4 533.9,144.4 542.7,153.1 533.9,161.8 516.4,161.8 507.6,153.1 		"/>
	</g>
	<g>
		<path class="st11" d="M519.1,147.9h2.1l4,6.4l0,0v-6.4h2v9.5H525l-4-6.4l0,0v6.4h-2L519.1,147.9z"/>
	</g>
	<g>
		<path class="st11" d="M535.3,151.1c-0.2-1-1.1-1.7-2.1-1.7c-1.9,0-2.6,1.6-2.6,3.2s0.7,3.2,2.6,3.2c1.2,0,2.2-0.9,2.2-2.1
			c0,0,0,0,0,0h2c-0.1,2.2-1.9,4-4.1,3.9c0,0-0.1,0-0.1,0c-2.9,0-4.7-2.2-4.7-5s1.8-5,4.7-5c2.1-0.1,3.9,1.4,4.1,3.4L535.3,151.1z"
			/>
	</g>
	<g>
		<path class="st14" d="M602.6,168.2h9.9c1.4,0,2.5,1.1,2.5,2.5v12.5c0,1.4-1.1,2.5-2.5,2.5h-9.9c-1.4,0-2.5-1.1-2.5-2.5v-12.5
			C600.2,169.3,601.3,168.2,602.6,168.2z"/>
	</g>
	<g>
		<polygon class="st14" points="626.4,168.2 608.9,168.2 600.1,177 608.9,185.7 626.4,185.7 635.2,177 		"/>
	</g>
	<g>
		<path class="st11" d="M606.6,171.7h2.1l4,6.4l0,0v-6.4h2v9.5h-2.1l-4-6.4l0,0v6.4h-2L606.6,171.7z"/>
	</g>
	<g>
		<path class="st11" d="M622.8,174.9c-0.2-1-1.1-1.7-2.1-1.7c-1.9,0-2.6,1.6-2.6,3.2s0.7,3.2,2.6,3.2c1.2,0,2.1-0.9,2.2-2.1h2
			c-0.1,2.2-1.9,4-4.1,3.9c0,0-0.1,0-0.1,0c-2.9,0-4.7-2.2-4.7-5s1.7-5,4.7-5c2.1-0.1,3.9,1.4,4.1,3.4L622.8,174.9z"/>
	</g>
	<g>
		<path class="st14" d="M530.3,192.3h9.9c1.4,0,2.5,1.1,2.5,2.5v12.5c0,1.4-1.1,2.5-2.5,2.5h-9.9c-1.4,0-2.5-1.1-2.5-2.5v-12.5
			C527.9,193.4,529,192.3,530.3,192.3z"/>
	</g>
	<g>
		<polygon class="st14" points="516.4,192.3 533.9,192.3 542.7,201.1 533.9,209.8 516.4,209.8 507.6,201.1 		"/>
	</g>
	<g>
		<path class="st11" d="M519.1,195.8h2.1l4,6.4l0,0v-6.4h2v9.5H525l-4-6.3l0,0v6.3h-2L519.1,195.8z"/>
	</g>
	<g>
		<path class="st11" d="M535.3,199c-0.2-1-1.1-1.7-2.1-1.7c-1.9,0-2.6,1.6-2.6,3.3s0.7,3.2,2.6,3.2c1.2,0,2.2-0.9,2.2-2.1
			c0,0,0,0,0,0h2c-0.1,2.2-1.9,4-4.1,3.9c0,0-0.1,0-0.1,0c-2.9,0-4.7-2.2-4.7-4.9s1.8-5,4.7-5c2.1-0.1,3.9,1.4,4.1,3.4L535.3,199z"
			/>
	</g>
	<g>
		<path class="st14" d="M602.6,192.3h9.9c1.4,0,2.5,1.1,2.5,2.5v12.5c0,1.4-1.1,2.5-2.5,2.5h-9.9c-1.4,0-2.5-1.1-2.5-2.5v-12.5
			C600.2,193.4,601.3,192.3,602.6,192.3z"/>
	</g>
	<g>
		<polygon class="st14" points="626.4,192.3 608.9,192.3 600.1,201.1 608.9,209.8 626.4,209.8 635.2,201.1 		"/>
	</g>
	<g>
		<path class="st11" d="M606.6,195.8h2.1l4,6.4l0,0v-6.4h2v9.5h-2.1l-4-6.4l0,0v6.4h-2L606.6,195.8z"/>
	</g>
	<g>
		<path class="st11" d="M622.8,199c-0.2-1-1.1-1.7-2.1-1.6c-1.9,0-2.6,1.6-2.6,3.2s0.7,3.2,2.6,3.2c1.2,0,2.1-0.9,2.2-2.1
			c0,0,0,0,0,0h2c-0.1,2.2-1.9,4-4.1,3.9c0,0-0.1,0-0.1,0c-2.9,0-4.7-2.2-4.7-4.9s1.7-5,4.7-5c2.1-0.1,3.9,1.4,4.1,3.4L622.8,199z"
			/>
	</g>
	<g>
		<path class="st14" d="M530.3,216.7h9.9c1.4,0,2.5,1.1,2.5,2.5v12.5c0,1.4-1.1,2.5-2.5,2.5h-9.9c-1.4,0-2.5-1.1-2.5-2.5v-12.5
			C527.9,217.8,529,216.7,530.3,216.7z"/>
	</g>
	<g>
		<polygon class="st14" points="516.4,216.7 533.9,216.7 542.7,225.4 533.9,234.2 516.4,234.2 507.6,225.4 		"/>
	</g>
	<g>
		<path class="st11" d="M519.1,220.2h2.1l4,6.4l0,0v-6.4h2v9.5H525l-4-6.4l0,0v6.4h-2L519.1,220.2z"/>
	</g>
	<g>
		<path class="st11" d="M535.3,223.4c-0.2-1-1.1-1.7-2.1-1.7c-1.9,0-2.6,1.6-2.6,3.2s0.7,3.2,2.6,3.2c1.2,0,2.2-0.9,2.2-2.1
			c0,0,0,0,0,0h2c-0.1,2.2-1.9,4-4.1,3.9c0,0-0.1,0-0.1,0c-2.9,0-4.7-2.2-4.7-4.9s1.8-5,4.7-5c2.1-0.1,3.9,1.4,4.1,3.4L535.3,223.4z
			"/>
	</g>
	<g>
		<path class="st16" d="M530.3,241.9h9.9c1.4,0,2.5,1.1,2.5,2.5v12.5c0,1.4-1.1,2.5-2.5,2.5h-9.9c-1.4,0-2.5-1.1-2.5-2.5v-12.5
			C527.9,243,529,241.9,530.3,241.9z"/>
	</g>
	<g>
		<polygon class="st16" points="516.4,241.9 533.9,241.9 542.7,250.7 533.9,259.4 516.4,259.4 507.6,250.7 		"/>
	</g>
	<g>
		<polygon class="st16" points="506.1,241.9 523.6,241.9 532.4,250.7 523.6,259.4 506.1,259.4 497.3,250.7 		"/>
	</g>
	<g>
		<path class="st14" d="M602.6,216.7h9.9c1.4,0,2.5,1.1,2.5,2.5v12.5c0,1.4-1.1,2.5-2.5,2.5h-9.9c-1.4,0-2.5-1.1-2.5-2.5v-12.5
			C600.2,217.8,601.3,216.7,602.6,216.7z"/>
	</g>
	<g>
		<polygon class="st14" points="626.4,216.7 608.9,216.7 600.1,225.4 608.9,234.2 626.4,234.2 635.2,225.4 		"/>
	</g>
	<g>
		<path class="st11" d="M606.6,220.2h2.1l4,6.4l0,0v-6.4h2v9.5h-2.1l-4-6.4l0,0v6.4h-2L606.6,220.2z"/>
	</g>
	<g>
		<path class="st11" d="M622.8,223.4c-0.2-1-1.1-1.7-2.1-1.7c-1.9,0-2.6,1.6-2.6,3.2s0.7,3.2,2.6,3.2c1.2,0,2.1-0.9,2.2-2.1
			c0,0,0,0,0,0h2c-0.1,2.2-1.9,4-4.1,3.9c0,0-0.1,0-0.1,0c-2.9,0-4.7-2.2-4.7-4.9s1.7-5,4.7-5c2.1-0.1,3.9,1.4,4.1,3.4L622.8,223.4z
			"/>
	</g>
	<g>
		<path class="st14" d="M602.6,241.9h9.9c1.4,0,2.5,1.1,2.5,2.5v12.5c0,1.4-1.1,2.5-2.5,2.5h-9.9c-1.4,0-2.5-1.1-2.5-2.5v-12.5
			C600.2,243,601.3,241.9,602.6,241.9z"/>
	</g>
	<g>
		<polygon class="st14" points="626.4,241.9 608.9,241.9 600.1,250.7 608.9,259.4 626.4,259.4 635.2,250.7 		"/>
	</g>
	<g>
		<path class="st11" d="M606.6,245.4h2.1l4,6.4l0,0v-6.4h2v9.5h-2.1l-4-6.4l0,0v6.4h-2L606.6,245.4z"/>
	</g>
	<g>
		<path class="st11" d="M622.8,248.6c-0.2-1-1.1-1.7-2.1-1.7c-1.9,0-2.6,1.6-2.6,3.2s0.7,3.2,2.6,3.2c1.2,0,2.1-0.9,2.2-2.1
			c0,0,0,0,0,0h2c-0.1,2.2-1.9,4-4.1,3.9c0,0-0.1,0-0.1,0c-2.9,0-4.7-2.2-4.7-4.9s1.7-5,4.7-5c2.1-0.1,3.9,1.4,4.1,3.4L622.8,248.6z
			"/>
	</g>
	<g>
		<path class="st14" d="M602.6,265.6h9.9c1.4,0,2.5,1.1,2.5,2.5v12.5c0,1.4-1.1,2.5-2.5,2.5h-9.9c-1.4,0-2.5-1.1-2.5-2.5v-12.5
			C600.2,266.7,601.3,265.6,602.6,265.6z"/>
	</g>
	<g>
		<polygon class="st14" points="626.4,265.6 608.9,265.6 600.1,274.3 608.9,283 626.4,283 635.2,274.3 		"/>
	</g>
	<g>
		<path class="st11" d="M606.6,269h2.1l4,6.4l0,0V269h2v9.5h-2.1l-4-6.4l0,0v6.4h-2L606.6,269z"/>
	</g>
	<g>
		<path class="st11" d="M622.8,272.2c-0.2-1-1.1-1.7-2.1-1.7c-1.9,0-2.6,1.6-2.6,3.2s0.7,3.2,2.6,3.2c1.2,0,2.1-0.9,2.2-2.1
			c0,0,0,0,0,0h2c-0.1,2.2-1.9,4-4.1,3.9c0,0-0.1,0-0.1,0c-2.9,0-4.7-2.2-4.7-4.9s1.7-5,4.7-5c2.1-0.1,3.9,1.4,4.1,3.4L622.8,272.2z
			"/>
	</g>
	<g>
		<path class="st11" d="M606.6,269h2.1l4,6.4l0,0V269h2v9.5h-2.1l-4-6.4l0,0v6.4h-2L606.6,269z"/>
	</g>
	<g>
		<path class="st11" d="M622.8,272.2c-0.2-1-1.1-1.7-2.1-1.7c-1.9,0-2.6,1.6-2.6,3.2s0.7,3.2,2.6,3.2c1.2,0,2.1-0.9,2.2-2.1
			c0,0,0,0,0,0h2c-0.1,2.2-1.9,4-4.1,3.9c0,0-0.1,0-0.1,0c-2.9,0-4.7-2.2-4.7-4.9s1.7-5,4.7-5c2.1-0.1,3.9,1.4,4.1,3.4L622.8,272.2z
			"/>
	</g>
	<g>
		<path class="st14" d="M602.6,289.2h9.9c1.4,0,2.5,1.1,2.5,2.5v12.5c0,1.4-1.1,2.5-2.5,2.5h-9.9c-1.4,0-2.5-1.1-2.5-2.5v-12.5
			C600.2,290.3,601.3,289.2,602.6,289.2z"/>
	</g>
	<g>
		<polygon class="st14" points="626.4,289.2 608.9,289.2 600.1,298 608.9,306.7 626.4,306.7 635.2,298 		"/>
	</g>
	<g>
		<path class="st11" d="M606.6,292.7h2.1l4,6.4l0,0v-6.4h2v9.5h-2.1l-4-6.4l0,0v6.4h-2L606.6,292.7z"/>
	</g>
	<g>
		<path class="st11" d="M622.8,295.9c-0.2-1-1.1-1.7-2.1-1.7c-1.9,0-2.6,1.6-2.6,3.2s0.7,3.2,2.6,3.2c1.2,0,2.1-0.9,2.2-2.1
			c0,0,0,0,0,0h2c-0.1,2.2-1.9,4-4.1,3.9c0,0-0.1,0-0.1,0c-2.9,0-4.7-2.2-4.7-4.9s1.7-5,4.7-5c2.1-0.1,3.9,1.4,4.1,3.4L622.8,295.9z
			"/>
	</g>
	<g>
		<path class="st11" d="M606.6,292.7h2.1l4,6.4l0,0v-6.4h2v9.5h-2.1l-4-6.4l0,0v6.4h-2L606.6,292.7z"/>
	</g>
	<g>
		<path class="st11" d="M622.8,295.9c-0.2-1-1.1-1.7-2.1-1.7c-1.9,0-2.6,1.6-2.6,3.2s0.7,3.2,2.6,3.2c1.2,0,2.1-0.9,2.2-2.1
			c0,0,0,0,0,0h2c-0.1,2.2-1.9,4-4.1,3.9c0,0-0.1,0-0.1,0c-2.9,0-4.7-2.2-4.7-4.9s1.7-5,4.7-5c2.1-0.1,3.9,1.4,4.1,3.4L622.8,295.9z
			"/>
	</g>
	<g>
		<path class="st14" d="M530.3,337.1h9.9c1.4,0,2.5,1.1,2.5,2.5V352c0,1.4-1.1,2.5-2.5,2.5h-9.9c-1.4,0-2.5-1.1-2.5-2.5v-12.5
			C527.9,338.2,529,337.1,530.3,337.1z"/>
	</g>
	<g>
		<polygon class="st14" points="516.4,337.1 533.9,337.1 542.7,345.8 533.9,354.5 516.4,354.5 507.6,345.8 		"/>
	</g>
	<g>
		<path class="st11" d="M519.1,340.5h2.1l4,6.4l0,0v-6.4h2v9.5H525l-4-6.4l0,0v6.4h-2L519.1,340.5z"/>
	</g>
	<g>
		<path class="st11" d="M535.3,343.7c-0.2-1-1.1-1.7-2.1-1.7c-1.9,0-2.6,1.6-2.6,3.2s0.7,3.2,2.6,3.2c1.2,0,2.2-0.9,2.2-2.1
			c0,0,0,0,0,0h2c-0.1,2.2-1.9,4-4.1,3.9c0,0-0.1,0-0.1,0c-2.9,0-4.7-2.2-4.7-4.9s1.8-5,4.7-5c2.1-0.1,3.9,1.4,4.1,3.4H535.3z"/>
	</g>
	<g>
		<path class="st14" d="M602.6,337.1h9.9c1.4,0,2.5,1.1,2.5,2.5V352c0,1.4-1.1,2.5-2.5,2.5h-9.9c-1.4,0-2.5-1.1-2.5-2.5v-12.5
			C600.2,338.2,601.3,337.1,602.6,337.1z"/>
	</g>
	<g>
		<polygon class="st14" points="626.4,337.1 608.9,337.1 600.1,345.8 608.9,354.5 626.4,354.5 635.2,345.8 		"/>
	</g>
	<g>
		<path class="st11" d="M606.6,340.5h2.1l4,6.4l0,0v-6.4h2v9.5h-2.1l-4-6.4l0,0v6.4h-2L606.6,340.5z"/>
	</g>
	<g>
		<path class="st11" d="M622.8,343.7c-0.2-1-1.1-1.7-2.1-1.7c-1.9,0-2.6,1.6-2.6,3.2s0.7,3.2,2.6,3.2c1.2,0,2.1-0.9,2.2-2.1h2
			c-0.1,2.2-1.9,4-4.1,3.9c0,0-0.1,0-0.1,0c-2.9,0-4.7-2.2-4.7-4.9s1.7-5,4.7-5c2.1-0.1,3.9,1.4,4.1,3.4H622.8z"/>
	</g>
	<g>
		<path class="st14" d="M602.6,360.9h9.9c1.4,0,2.5,1.1,2.5,2.5v12.5c0,1.4-1.1,2.5-2.5,2.5h-9.9c-1.4,0-2.5-1.1-2.5-2.5v-12.5
			C600.2,362,601.3,360.9,602.6,360.9z"/>
	</g>
	<g>
		<polygon class="st14" points="626.4,360.9 608.9,360.9 600.1,369.7 608.9,378.4 626.4,378.4 635.2,369.7 		"/>
	</g>
	<g>
		<path class="st11" d="M606.6,364.4h2.1l4,6.4l0,0v-6.4h2v9.5h-2.1l-4-6.4l0,0v6.4h-2L606.6,364.4z"/>
	</g>
	<g>
		<path class="st11" d="M622.8,367.6c-0.2-1-1.1-1.7-2.1-1.7c-1.9,0-2.6,1.6-2.6,3.2s0.7,3.2,2.6,3.2c1.2,0,2.1-0.9,2.2-2.1h2
			c-0.1,2.2-1.9,4-4.1,3.9c0,0-0.1,0-0.1,0c-2.9,0-4.7-2.2-4.7-4.9s1.7-5,4.7-5c2.1-0.1,3.9,1.4,4.1,3.4L622.8,367.6z"/>
	</g>
	<g>
		<path class="st14" d="M602.6,312.8h9.9c1.4,0,2.5,1.1,2.5,2.5v12.5c0,1.4-1.1,2.5-2.5,2.5h-9.9c-1.4,0-2.5-1.1-2.5-2.5v-12.5
			C600.2,313.9,601.3,312.8,602.6,312.8z"/>
	</g>
	<g>
		<polygon class="st14" points="626.4,312.8 608.9,312.8 600.1,321.5 608.9,330.2 626.4,330.2 635.2,321.5 		"/>
	</g>
	<g>
		<path class="st11" d="M606.6,316.2h2.1l4,6.4l0,0v-6.4h2v9.5h-2.1l-4-6.4l0,0v6.4h-2L606.6,316.2z"/>
	</g>
	<g>
		<path class="st11" d="M622.8,319.4c-0.2-1-1.1-1.7-2.1-1.7c-1.9,0-2.6,1.6-2.6,3.2s0.7,3.2,2.6,3.2c1.2,0,2.1-0.9,2.2-2.1
			c0,0,0,0,0,0h2c-0.1,2.2-1.9,4-4.1,3.9c0,0-0.1,0-0.1,0c-2.9,0-4.7-2.2-4.7-4.9s1.7-5,4.7-5c2.1-0.1,3.9,1.4,4.1,3.4L622.8,319.4z
			"/>
	</g>
	<g>
		<path class="st14" d="M530.3,385h9.9c1.4,0,2.5,1.1,2.5,2.5V400c0,1.4-1.1,2.5-2.5,2.5h-9.9c-1.4,0-2.5-1.1-2.5-2.5v-12.5
			C527.9,386.1,529,385,530.3,385z"/>
	</g>
	<g>
		<polygon class="st14" points="516.4,385 533.9,385 542.7,393.8 533.9,402.5 516.4,402.5 507.6,393.8 		"/>
	</g>
	<g>
		<path class="st11" d="M519.1,388.5h2.1l4,6.4l0,0v-6.4h2v9.5H525l-4-6.4l0,0v6.4h-2L519.1,388.5z"/>
	</g>
	<g>
		<path class="st11" d="M535.3,391.7c-0.2-1-1.1-1.7-2.1-1.7c-1.9,0-2.6,1.6-2.6,3.2s0.7,3.2,2.6,3.2c1.2,0,2.2-0.9,2.2-2.1
			c0,0,0,0,0,0h2c-0.1,2.2-1.9,4-4.1,3.9c0,0-0.1,0-0.1,0c-2.9,0-4.7-2.2-4.7-4.9s1.8-5,4.7-5c2.1-0.1,3.9,1.4,4.1,3.4L535.3,391.7z
			"/>
	</g>
	<g>
		<path class="st14" d="M602.6,385h9.9c1.4,0,2.5,1.1,2.5,2.5V400c0,1.4-1.1,2.5-2.5,2.5h-9.9c-1.4,0-2.5-1.1-2.5-2.5v-12.5
			C600.2,386.1,601.3,385,602.6,385z"/>
	</g>
	<g>
		<polygon class="st14" points="626.4,385 608.9,385 600.1,393.8 608.9,402.5 626.4,402.5 635.2,393.8 		"/>
	</g>
	<g>
		<path class="st11" d="M606.6,388.5h2.1l4,6.4l0,0v-6.4h2v9.5h-2.1l-4-6.4l0,0v6.4h-2L606.6,388.5z"/>
	</g>
	<g>
		<path class="st11" d="M622.8,391.7c-0.2-1-1.1-1.7-2.1-1.7c-1.9,0-2.6,1.6-2.6,3.2s0.7,3.2,2.6,3.2c1.2,0,2.1-0.9,2.2-2.1
			c0,0,0,0,0,0h2c-0.1,2.2-1.9,4-4.1,3.9c0,0-0.1,0-0.1,0c-2.9,0-4.7-2.2-4.7-4.9s1.7-5,4.7-5c2.1-0.1,3.9,1.4,4.1,3.4L622.8,391.7z
			"/>
	</g>
	<g>
		<path class="st14" d="M530.3,409.4h9.9c1.4,0,2.5,1.1,2.5,2.5v12.5c0,1.4-1.1,2.5-2.5,2.5h-9.9c-1.4,0-2.5-1.1-2.5-2.5v-12.5
			C527.9,410.5,529,409.4,530.3,409.4z"/>
	</g>
	<g>
		<polygon class="st14" points="516.4,409.4 533.9,409.4 542.7,418.1 533.9,426.9 516.4,426.9 507.6,418.1 		"/>
	</g>
	<g>
		<path class="st11" d="M519.1,412.9h2.1l4,6.4l0,0v-6.4h2v9.5H525l-4-6.4l0,0v6.4h-2L519.1,412.9z"/>
	</g>
	<g>
		<path class="st11" d="M535.3,416.1c-0.2-1-1.1-1.7-2.1-1.7c-1.9,0-2.6,1.6-2.6,3.2s0.7,3.2,2.6,3.2c1.2,0,2.2-0.9,2.2-2.1
			c0,0,0,0,0,0h2c-0.1,2.2-1.9,4-4.1,3.9c0,0-0.1,0-0.1,0c-2.9,0-4.7-2.2-4.7-4.9s1.8-5,4.7-5c2.1-0.1,3.9,1.4,4.1,3.4L535.3,416.1z
			"/>
	</g>
	<g>
		<path class="st14" d="M602.6,409.4h9.9c1.4,0,2.5,1.1,2.5,2.5v12.5c0,1.4-1.1,2.5-2.5,2.5h-9.9c-1.4,0-2.5-1.1-2.5-2.5v-12.5
			C600.2,410.5,601.3,409.4,602.6,409.4z"/>
	</g>
	<g>
		<polygon class="st14" points="626.4,409.4 608.9,409.4 600.1,418.1 608.9,426.9 626.4,426.9 635.2,418.1 		"/>
	</g>
	<g>
		<path class="st11" d="M606.6,412.9h2.1l4,6.4l0,0v-6.4h2v9.5h-2.1l-4-6.4l0,0v6.4h-2L606.6,412.9z"/>
	</g>
	<g>
		<path class="st11" d="M622.8,416.1c-0.2-1-1.1-1.7-2.1-1.7c-1.9,0-2.6,1.6-2.6,3.2s0.7,3.2,2.6,3.2c1.2,0,2.1-0.9,2.2-2.1h2
			c-0.1,2.2-1.9,4-4.1,3.9c0,0-0.1,0-0.1,0c-2.9,0-4.7-2.2-4.7-4.9s1.7-5,4.7-5c2.1-0.1,3.9,1.4,4.1,3.4L622.8,416.1z"/>
	</g>
	<g>
		<path class="st14" d="M530.3,434.6h9.9c1.4,0,2.5,1.1,2.5,2.5v12.5c0,1.4-1.1,2.5-2.5,2.5h-9.9c-1.4,0-2.5-1.1-2.5-2.5v-12.5
			C527.9,435.7,529,434.6,530.3,434.6z"/>
	</g>
	<g>
		<polygon class="st14" points="516.4,434.6 533.9,434.6 542.7,443.4 533.9,452.1 516.4,452.1 507.6,443.4 		"/>
	</g>
	<g>
		<path class="st11" d="M519.1,438.1h2.1l4,6.4l0,0v-6.4h2v9.5H525l-4-6.4l0,0v6.4h-2L519.1,438.1z"/>
	</g>
	<g>
		<path class="st11" d="M535.3,441.3c-0.2-1-1.1-1.7-2.1-1.7c-1.9,0-2.6,1.6-2.6,3.2s0.7,3.2,2.6,3.2c1.2,0,2.2-0.9,2.2-2.1
			c0,0,0,0,0,0h2c-0.1,2.2-1.9,4-4.1,3.9c0,0-0.1,0-0.1,0c-2.9,0-4.7-2.2-4.7-5s1.8-5,4.7-5c2.1-0.1,3.9,1.4,4.1,3.4L535.3,441.3z"
			/>
	</g>
	<g>
		<path class="st14" d="M602.6,434.6h9.9c1.4,0,2.5,1.1,2.5,2.5v12.5c0,1.4-1.1,2.5-2.5,2.5h-9.9c-1.4,0-2.5-1.1-2.5-2.5v-12.5
			C600.2,435.7,601.3,434.6,602.6,434.6z"/>
	</g>
	<g>
		<polygon class="st14" points="626.4,434.6 608.9,434.6 600.1,443.4 608.9,452.1 626.4,452.1 635.2,443.4 		"/>
	</g>
	<g>
		<path class="st11" d="M606.6,438.1h2.1l4,6.4l0,0v-6.4h2v9.5h-2.1l-4-6.4l0,0v6.4h-2L606.6,438.1z"/>
	</g>
	<g>
		<path class="st11" d="M622.8,441.3c-0.2-1-1.1-1.7-2.1-1.7c-1.9,0-2.6,1.6-2.6,3.2s0.7,3.2,2.6,3.2c1.2,0,2.1-0.9,2.2-2.1
			c0,0,0,0,0,0h2c-0.1,2.2-1.9,4-4.1,3.9c0,0-0.1,0-0.1,0c-2.9,0-4.7-2.2-4.7-5s1.7-5,4.7-5c2.1-0.1,3.9,1.4,4.1,3.4L622.8,441.3z"
			/>
	</g>
	<g>
		<path class="st11" d="M583.3,158.8h-2.1V152h-2.6v-1.6c1.5,0,2.8-0.5,3.1-2.1h1.7L583.3,158.8z"/>
	</g>
	<g>
		<path class="st11" d="M589.2,152.5c0.9,0.1,2.2-0.1,2.2-1.3c0-0.8-0.6-1.4-1.3-1.4c0,0,0,0,0,0h-0.1c-1.1,0-1.6,0.8-1.6,1.9h-2
			c-0.1-1.9,1.4-3.5,3.3-3.6c0.1,0,0.2,0,0.3,0c1.7,0,3.5,1,3.5,2.9c0.1,1-0.5,1.9-1.5,2.1l0,0c1.1,0.2,1.9,1.2,1.9,2.4
			c0,2.2-1.9,3.4-3.9,3.4c-2.3,0-3.9-1.4-3.9-3.8h2c0,1.1,0.6,2.1,1.8,2.1c0.9,0.1,1.6-0.6,1.7-1.5c0,0,0,0,0,0c0,0,0-0.1,0-0.1
			c0-1.6-1.4-1.6-2.4-1.6L589.2,152.5z"/>
	</g>
	<g>
		<path class="st11" d="M583.3,182.7h-2.1v-6.8h-2.6v-1.6c1.5,0.1,2.8-0.5,3.1-2.1h1.7L583.3,182.7z"/>
	</g>
	<g>
		<path class="st11" d="M593.2,174h-4.3l-0.4,2.4l0,0c0.5-0.5,1.2-0.8,2-0.8c1.8,0,3.3,1.4,3.3,3.2c0,0.1,0,0.2,0,0.3
			c0,2.1-1.7,3.8-3.8,3.8c0,0,0,0,0,0h-0.1c-2,0-3.8-1.1-3.9-3.3h2.1c0,0.9,0.8,1.6,1.7,1.6c1,0,1.9-0.9,1.8-2c0,0,0,0,0,0l0,0
			c0.1-1-0.6-1.9-1.6-2c0,0,0,0,0,0h-0.2c-0.7,0-1.3,0.3-1.6,0.8h-1.9l1-5.8h5.8L593.2,174z"/>
	</g>
	<g>
		<path class="st11" d="M638,303.2h6.7v0.7H638V303.2z"/>
	</g>
	<g>
		<path class="st15" d="M512.4,48.5h28c1.3,0,2.3,0.6,2.3,1.3v14.7c0,0.7-1,1.3-2.3,1.3h-28"/>
	</g>
	<g>
		<polygon class="st15" points="526.9,48.5 509.4,48.5 500.6,57.1 509.4,65.8 526.9,65.8 535.7,57.1 		"/>
	</g>
	<g>
		<polygon class="st15" points="516.8,48.5 499.3,48.5 490.5,57.1 499.3,65.8 516.8,65.8 525.5,57.1 		"/>
	</g>
	<g>
		<g>
			<path class="st11" d="M503.8,55.9c0.9,0.1,2.1-0.1,2.1-1.2c0-0.7-0.6-1.3-1.3-1.3c0,0-0.1,0-0.1,0c-1,0-1.5,0.7-1.5,1.8h-1.9
				c-0.1-1.8,1.3-3.3,3.1-3.4c0.1,0,0.2,0,0.3,0c1.6,0,3.3,1,3.3,2.7c0.1,0.9-0.5,1.7-1.4,2l0,0c1,0.2,1.8,1.2,1.7,2.2
				c0,2-1.7,3.2-3.6,3.2c-1.8,0.2-3.4-1.1-3.6-2.9c0-0.2,0-0.4,0-0.6h1.9c0,1.1,0.6,1.9,1.7,1.9c0.8,0.1,1.5-0.6,1.6-1.4
				c0,0,0-0.1,0-0.1c0-1.5-1.3-1.5-2.3-1.5L503.8,55.9z"/>
		</g>
		<g>
			<path class="st11" d="M513.2,61.7H511l-2.5-7.2h2.1l1.5,4.9l0,0l1.5-4.9h2L513.2,61.7z"/>
		</g>
		<g>
			<path class="st11" d="M518.8,55.9c0.8,0.1,2.1-0.1,2.1-1.2c0-0.7-0.6-1.3-1.3-1.3c0,0-0.1,0-0.1,0c-1,0-1.5,0.7-1.5,1.8h-1.9
				c-0.1-1.8,1.3-3.3,3.1-3.4c0.1,0,0.2,0,0.3,0c1.6,0,3.3,1,3.3,2.7c0.1,0.9-0.5,1.7-1.4,2l0,0c1,0.2,1.8,1.2,1.7,2.2
				c0,2-1.7,3.2-3.6,3.2c-1.8,0.2-3.4-1.1-3.6-3c0-0.2,0-0.4,0-0.6h1.9c0,1.1,0.6,1.9,1.7,1.9c0.8,0.1,1.5-0.6,1.6-1.4
				c0,0,0-0.1,0-0.1c0-1.5-1.3-1.5-2.3-1.5V55.9z"/>
		</g>
		<g>
			<path class="st11" d="M523.4,62.8h7v0.7h-7V62.8z"/>
		</g>
		<g>
			<path class="st11" d="M532.9,58.4c0,1.3,1,1.8,2.2,1.8c0.8,0,1.9-0.2,1.9-1.2s-1.5-1.2-3-1.7s-3-1-3-2.8c0-2.1,1.9-3,3.7-3
				c2.1,0,4,0.9,4,3.2h-2.1c-0.1-1.2-0.9-1.5-2-1.5c-0.7,0-1.5,0.3-1.5,1.1s0.5,0.9,3,1.5c0.7,0.2,3,0.7,3,2.9
				c0,1.8-1.4,3.2-4.2,3.2c-2.2,0-4.3-1.1-4.2-3.5L532.9,58.4z"/>
		</g>
	</g>
	<g>
		<path class="st11" d="M511.9,245.3h2.2l3.6,9.7h-2.2l-0.7-2.2h-3.6l-0.8,2.2h-2.2L511.9,245.3z M511.7,251.3h2.5l-1.2-3.6l0,0
			L511.7,251.3z"/>
	</g>
	<g>
		<path class="st11" d="M518.6,245.3h2.1v9.7h-2.1V245.3z"/>
	</g>
	<g>
		<path class="st11" d="M522.6,245.3h2.1l4,6.5l0,0v-6.5h2v9.7h-2.1l-4-6.5l0,0v6.5h-2L522.6,245.3z"/>
	</g>
	<g>
		<path class="st11" d="M537,255h-1.9v-6.2h-2.4v-1.5c1.3,0,2.6-0.4,2.8-1.9h1.5V255z"/>
	</g>
	<g>
		<path class="st16" d="M530.3,360.9h9.9c1.4,0,2.5,1.1,2.5,2.5v12.5c0,1.4-1.1,2.5-2.5,2.5h-9.9c-1.4,0-2.5-1.1-2.5-2.5v-12.5
			C527.9,362,529,360.9,530.3,360.9z"/>
	</g>
	<g>
		<path class="st16" d="M488.9,360.9h43c5.9,0,10.8,1.1,10.8,2.5v12.5c0,1.4-4.8,2.5-10.8,2.5h-43c-5.9,0-10.8-1.1-10.8-2.5v-12.5
			C478.2,362,483,360.9,488.9,360.9z"/>
	</g>
	<g>
		<polygon class="st16" points="474.9,360.9 492.5,360.9 501.3,369.7 492.5,378.4 474.9,378.4 466.2,369.7 		"/>
	</g>
	<g>
		<path class="st15" d="M370.8,334.2h-1v-3.4h-1.3v-0.8c0.7,0,1.4-0.2,1.5-1h0.8L370.8,334.2z"/>
	</g>
	<g>
		<path class="st15" d="M322.4,331c-0.1-1,0.6-1.9,1.6-2.1c0.1,0,0.2,0,0.3,0c0.9-0.1,1.7,0.6,1.8,1.5c0,0,0,0.1,0,0.1
			c0,1.6-1.7,1.7-2.4,2.8h2.5v0.9h-3.8c0-1.2,0.7-1.7,1.6-2.3c0.5-0.3,1.1-0.6,1.1-1.3c0-0.4-0.3-0.8-0.7-0.8c0,0-0.1,0-0.1,0
			c-0.6,0-0.8,0.6-0.8,1.2L322.4,331z"/>
	</g>
	<g>
		<path class="st15" d="M367.6,199c0.5,0,1.1-0.1,1.1-0.6c0-0.4-0.3-0.7-0.7-0.7c0,0,0,0-0.1,0c-0.5,0-0.8,0.4-0.8,0.9h-1
			c0-1,0.7-1.8,1.7-1.8c0,0,0.1,0,0.1,0c0.9-0.1,1.7,0.6,1.7,1.4c0,0.5-0.3,0.9-0.7,1.1l0,0c0.6,0.1,0.9,0.6,0.9,1.2
			c-0.1,1.1-1.1,1.8-2.1,1.7c-1-0.1-1.7-0.9-1.7-1.9h1c0,0.6,0.3,1,0.9,1c0.4,0,0.8-0.3,0.8-0.7c0,0,0,0,0-0.1
			c0-0.8-0.7-0.8-1.2-0.8L367.6,199z"/>
	</g>
	<g>
		<path class="st15" d="M371.2,200.7c0.1,0.4,0.3,0.6,0.7,0.6c0.8,0,1-1,1-1.6l0,0c-0.3,0.4-0.7,0.6-1.2,0.6c-0.5,0-0.9-0.2-1.2-0.5
			c-0.6-0.8-0.5-2,0.3-2.7c0.3-0.2,0.7-0.4,1.1-0.4c1.6,0,2,1.4,2,2.7s-0.6,2.7-2,2.7c-0.9,0.1-1.6-0.6-1.7-1.4L371.2,200.7z
			 M372.8,198.6c0.1-0.5-0.3-0.9-0.8-1c0,0,0,0,0,0c-0.5,0-0.8,0.4-0.8,0.9c0,0,0,0.1,0,0.1c0,0.5,0.2,1,0.8,1
			c0.5,0,0.9-0.4,0.9-0.9C372.9,198.7,372.8,198.6,372.8,198.6z"/>
	</g>
	<g>
		<path class="st15" d="M322.3,200.9h-2.2v-1l2.2-3h0.9v3.1h0.7v0.9h-0.7v1.2h-1L322.3,200.9z M322.3,198.2L322.3,198.2L321,200h1.4
			L322.3,198.2z"/>
	</g>
	<g>
		<path class="st15" d="M326.2,196.8c1,0,1.9,0.7,1.9,2.7s-0.9,2.7-1.9,2.7s-1.9-0.6-1.9-2.7S325.2,196.8,326.2,196.8z M326.2,201.3
			c0.9,0,0.9-1.3,0.9-1.9s0-1.8-0.9-1.8s-0.9,1.3-0.9,1.8S325.4,201.3,326.2,201.3z"/>
	</g>
	<g>
		<path class="st11" d="M482,364.3c2.9,0,4.6,2.2,4.6,5c0,2.7-1.7,4.9-4.6,4.9c-2.9,0-4.6-2.2-4.6-4.9
			C477.3,366.5,479,364.3,482,364.3z M482,372.5c1.9,0,2.6-1.6,2.6-3.2c0-1.7-0.7-3.2-2.6-3.2s-2.6,1.6-2.6,3.2
			C479.4,370.9,480.1,372.5,482,372.5z"/>
		<path class="st11" d="M496,370.4c0,2.6-1.5,3.8-4,3.8c-2.6,0-4-1.2-4-3.8v-5.9h2.1v5.9c0,1,0.3,2.1,1.9,2.1c1.5,0,2-0.6,2-2.1
			v-5.9h2.1V370.4z"/>
		<path class="st11" d="M499.9,366.3h-2.8v-1.7h7.7v1.7H502v7.7h-2.1V366.3z"/>
		<path class="st11" d="M512.7,364.3c-1,1.9-1.4,3.9-1.4,6c0,2.1,0.4,4.2,1.4,6.1h-1.6c-1.1-1.8-1.7-3.9-1.7-6c0-2,0.6-4.4,1.7-6.1
			H512.7z"/>
		<path class="st11" d="M513.5,364.5h2.1v9.4h-2.1V364.5z"/>
		<path class="st11" d="M521.7,364.3c2.9,0,4.6,2.2,4.6,5c0,2.7-1.7,4.9-4.6,4.9c-2.9,0-4.6-2.2-4.6-4.9
			C517,366.5,518.7,364.3,521.7,364.3z M521.7,372.5c1.9,0,2.6-1.6,2.6-3.2c0-1.7-0.7-3.2-2.6-3.2s-2.6,1.6-2.6,3.2
			C519.1,370.9,519.8,372.5,521.7,372.5z"/>
		<path class="st11" d="M530.9,371.8H527v-1.7l4-5.4h1.7v5.6h1.2v1.5h-1.2v2.1h-1.8V371.8z M530.9,367.1L530.9,367.1l-2.4,3.2h2.4
			V367.1z"/>
		<path class="st11" d="M534.1,376.4c1-1.9,1.4-3.9,1.4-6c0-2.1-0.4-4.2-1.4-6.1h1.6c1.1,1.8,1.7,3.9,1.7,6c0,2-0.6,4.5-1.7,6.1
			H534.1z"/>
	</g>
</g>
</svg>
