<svg xmlns="http://www.w3.org/2000/svg" xmlns:xlink="http://www.w3.org/1999/xlink" viewBox="0 0 1440 1440"><defs><style>.cls-1{fill:#414a49;}.cls-2{fill:#fff;}.cls-3{clip-path:url(#clip-path);}.cls-4{fill:#e5e5e5;}.cls-5{fill:#fff9dd;}.cls-6{fill:#dea954;}.cls-7{fill:#e5d9b7;}.cls-8{fill:#fffff1;}.cls-9{fill:#bcbdad;opacity:0.35;}.cls-10{fill:#84897b;opacity:0.69;}.cls-11{fill:#c0c0b0;opacity:0.65;}.cls-12{fill:#f6fafa;}.cls-13,.cls-20,.cls-21,.cls-22,.cls-23{fill:#0e1115;}.cls-14{fill:#236e8a;}.cls-15{fill:#31535c;opacity:0.56;}.cls-16{fill:#595959;}.cls-17{fill:#a1a8a3;}.cls-18{font-size:65.99px;}.cls-18,.cls-19{fill:#f3f7f6;}.cls-18,.cls-19,.cls-22,.cls-23{font-family:HelveticaNeueLTPro-Roman, Helvetica Neue LT Pro;}.cls-19{font-size:56.73px;}.cls-20{font-size:65.48px;}.cls-20,.cls-21{font-family:HelveticaNeueLTPro-Ex, Helvetica Neue LT Pro;}.cls-21{font-size:55.78px;}.cls-22{font-size:53.68px;}.cls-23{font-size:55.09px;}.cls-24,.cls-27,.cls-28{fill:none;}.cls-24{stroke:#283131;}.cls-24,.cls-27{stroke-miterlimit:10;}.cls-25{fill:#283131;}.cls-26{font-size:51.68px;font-family:HelveticaNeueLTPro-Lt, Helvetica Neue LT Pro;}.cls-27{stroke:#cbc9be;stroke-width:0.5px;}</style><clipPath id="clip-path" transform="translate(-1)"><rect class="cls-1" x="340" y="241.77" width="933.92" height="1095.11"/></clipPath></defs><title>RAK813 Board Dimension</title><g id="Layer_8" data-name="Layer 8"><rect class="cls-2" width="1440" height="1440"/></g><g id="Layer_5" data-name="Layer 5"><rect class="cls-1" x="339" y="241.77" width="933.92" height="1095.11"/><g class="cls-3"><circle class="cls-2" cx="925.56" cy="237.42" r="22.12"/><circle class="cls-2" cx="1272.92" cy="445.64" r="22.12"/><circle class="cls-2" cx="1272.92" cy="525.15" r="22.12"/><circle class="cls-2" cx="1272.92" cy="604.65" r="22.12"/><circle class="cls-2" cx="1272.92" cy="684.16" r="22.12"/><circle class="cls-2" cx="1272.92" cy="763.66" r="22.12"/><circle class="cls-2" cx="1272.92" cy="843.17" r="22.12"/><circle class="cls-2" cx="1272.92" cy="922.67" r="22.12"/><circle class="cls-2" cx="1272.92" cy="1002.18" r="22.12"/><circle class="cls-2" cx="1272.92" cy="1081.68" r="22.12"/><circle class="cls-2" cx="1272.92" cy="1161.19" r="22.12"/><circle class="cls-2" cx="339" cy="445.64" r="22.12"/><circle class="cls-2" cx="339" cy="525.15" r="22.12"/><circle class="cls-2" cx="339" cy="604.65" r="22.12"/><circle class="cls-2" cx="339" cy="684.16" r="22.12"/><circle class="cls-2" cx="339" cy="763.66" r="22.12"/><circle class="cls-2" cx="339" cy="843.17" r="22.12"/><circle class="cls-2" cx="339" cy="922.67" r="22.12"/><circle class="cls-2" cx="339" cy="1002.18" r="22.12"/><circle class="cls-2" cx="339" cy="1081.68" r="22.12"/><circle class="cls-2" cx="339" cy="1161.19" r="22.12"/><circle class="cls-2" cx="527.15" cy="1336.88" r="22.12"/><circle class="cls-2" cx="604.22" cy="1336.88" r="22.12"/><circle class="cls-2" cx="681.29" cy="1336.88" r="22.12"/><circle class="cls-2" cx="758.36" cy="1336.88" r="22.12"/><circle class="cls-2" cx="835.43" cy="1336.88" r="22.12"/><circle class="cls-2" cx="912.5" cy="1336.88" r="22.12"/><circle class="cls-2" cx="989.57" cy="1336.88" r="22.12"/><circle class="cls-2" cx="1066.65" cy="1336.88" r="22.12"/><circle class="cls-2" cx="1009.98" cy="237.42" r="22.12"/><circle class="cls-2" cx="844.95" cy="235.76" r="22.12"/><circle class="cls-2" cx="772" cy="235.76" r="22.12"/><circle class="cls-2" cx="1094.39" cy="237.42" r="22.12"/></g><rect class="cls-4" x="797.18" y="265.27" width="85.25" height="161.36"/><rect class="cls-4" x="754.14" y="325.73" width="79.17" height="43.9"/><rect class="cls-5" x="780.97" y="294.37" width="106.37" height="106.37" rx="14.28"/><circle class="cls-6" cx="832.48" cy="346.14" r="38.35"/><circle class="cls-7" cx="832.48" cy="346.62" r="34.89"/><circle class="cls-6" cx="832.48" cy="347.06" r="10.79"/><rect class="cls-4" x="1131.64" y="265.27" width="85.25" height="161.36"/><rect class="cls-4" x="1088.59" y="325.73" width="79.17" height="43.9"/><rect class="cls-5" x="1115.42" y="294.37" width="106.37" height="106.37" rx="14.28"/><circle class="cls-6" cx="1166.93" cy="346.14" r="38.35"/><circle class="cls-7" cx="1166.93" cy="346.62" r="34.89"/><circle class="cls-6" cx="1166.93" cy="347.06" r="10.79"/><rect class="cls-8" x="361.13" y="445.64" width="849.54" height="872.61"/><rect class="cls-9" x="369.16" y="454.65" width="827.9" height="855.82"/><polygon class="cls-10" points="1210.67 445.64 1197.07 454.65 1197.07 1310.47 1210.67 1318.26 1210.67 445.64"/><polygon class="cls-11" points="361.13 445.64 369.17 454.65 1197.07 454.65 1210.67 445.64 361.13 445.64"/><rect class="cls-12" x="393.72" y="619.78" width="793.9" height="445.4" rx="54.4"/><path class="cls-13" d="M515.34,701.58a9.79,9.79,0,0,1,1.13,4.18c.13,1.78.44,7.18.54,9,1.46-.13,4.21-.4,6-.47s6.49-.34,14.12-.79l.49,0c2-.11,6.77-1,7.18-7,.36-5.26-2.65-6.4-2.75-6.47-1.11-.69-5.87-1.77-11.27-1.58-.6,0-1.22,0-1.85.11A75.3,75.3,0,0,0,515.34,701.58Z" transform="translate(-1)"/><path class="cls-13" d="M506.43,696.74a9.84,9.84,0,0,1,3.66.67,11.71,11.71,0,0,1,3.85,2.16,68.92,68.92,0,0,1,14.19-3.32c.91-.1,1.85-.17,2.79-.2a34,34,0,0,1,10.09,1,17.23,17.23,0,0,0,1.69-1.59,7.76,7.76,0,0,0,1.81-4,8.36,8.36,0,0,0-1.06-6c-1-1.71-3.34-2.54-7-2.4-.49,0-1,0-1.57,0-.7,0-1.51,0-2.38,0a34.74,34.74,0,0,0-12.08,2.71C514.26,688.38,508.71,694.14,506.43,696.74Z" transform="translate(-1)"/><path class="cls-13" d="M490,697.13a12.63,12.63,0,0,1,5.13.69,11.7,11.7,0,0,1,3.76,2.79,9.92,9.92,0,0,1,1.34-1.69,8.09,8.09,0,0,1,2.63-1.63c.47-.58,3-3.6,5.6-6.18a39.47,39.47,0,0,1,14.42-8.8,34.9,34.9,0,0,1,10.48-1.75,53.46,53.46,0,0,1,5.55.08c.79-.59,4.1-3.4,3.9-7.1-.28-5.61-2.49-6.92-11.78-7-9.75-.13-20.35,4.17-28.91,11.57-7.21,6.24-11.11,16.06-12.19,19.1C489.89,697.13,489.93,697.13,490,697.13Z" transform="translate(-1)"/><path class="cls-13" d="M529.46,716.39c.13,1.39.4,4.18.47,6,.07,2.1.48,9.24.72,13.07l.09,1.54c.11,2,1,6.77,7,7.18.42,0,.84,0,1.22,0,4.18-.15,5.17-2.67,5.21-2.77.65-1.07,2-6.57,1.47-13.12a73.92,73.92,0,0,0-3-13.58,9.65,9.65,0,0,1-4.18,1.13C537.65,715.88,535.39,716,529.46,716.39Z" transform="translate(-1)"/><path class="cls-13" d="M547.18,740.39a12.74,12.74,0,0,0,1.6,1.69,7.69,7.69,0,0,0,3.94,1.81,9.91,9.91,0,0,0,2,.14,8.56,8.56,0,0,0,3.94-1.19c1.71-1,2.53-3.34,2.4-7,0-.42,0-.91,0-1.43v-.18a34.64,34.64,0,0,0-2.73-14.46c-2.46-6.09-8.18-11.64-10.78-14a10,10,0,0,1-.67,3.65,11.06,11.06,0,0,1-2.16,3.85,70.34,70.34,0,0,1,3.32,14.2A37.06,37.06,0,0,1,547.18,740.39Z" transform="translate(-1)"/><path class="cls-13" d="M563.61,738.22c.7.92,3.4,4,7,3.9,5.71-.28,7-2.5,7.14-11.79.13-9.75-4.09-20.28-11.57-28.91-6.23-7.17-16.05-11.11-19.09-12.18a13.08,13.08,0,0,1-.69,5.19,12.47,12.47,0,0,1-2.79,3.77,9.77,9.77,0,0,1,1.69,1.33,8,8,0,0,1,1.63,2.63c.76.64,3.68,3.08,6.18,5.61a40.05,40.05,0,0,1,8.8,14.41C564.2,728.42,563.73,736.68,563.61,738.22Z" transform="translate(-1)"/><path class="cls-13" d="M527.93,728.91c-1.46.13-4.21.4-5.95.47-2.23.08-10.07.54-13.87.75l-.77,0c-2,.11-6.77,1.05-7.18,7-.36,5.29,2.72,6.47,2.75,6.46,1.22.76,6.89,2,13.12,1.48a73.92,73.92,0,0,0,13.58-3,10,10,0,0,1-1.14-4.18c-.12-1.6-.4-6.34-.52-8.64Z" transform="translate(-1)"/><path class="cls-13" d="M504,746.62a15.12,15.12,0,0,0-1.68,1.6,7.77,7.77,0,0,0-1.81,3.94,8.27,8.27,0,0,0,1,5.94c1,1.71,3.34,2.53,7,2.39.45,0,1,0,1.57,0s1.5,0,2.37,0a34.78,34.78,0,0,0,12.09-2.71c6.09-2.46,11.64-8.18,14-10.78a10.1,10.1,0,0,1-3.69-.67,11,11,0,0,1-3.85-2.16,69.3,69.3,0,0,1-14.2,3.31c-.94.11-1.88.18-2.79.21A34.57,34.57,0,0,1,504,746.62Z" transform="translate(-1)"/><path class="cls-13" d="M506.14,763.1c-.78.58-4.07,3.39-3.89,7.09.27,5.61,2.48,6.93,11.78,7,9.74.1,20.34-4.17,28.91-11.57,7.21-6.24,11.11-16,12.18-19.1h-.07a12.47,12.47,0,0,1-5.12-.69,12,12,0,0,1-3.77-2.79,10.2,10.2,0,0,1-1.34,1.69,7.77,7.77,0,0,1-2.63,1.63,82.34,82.34,0,0,1-5.64,6.18,39.88,39.88,0,0,1-14.41,8.8,35.22,35.22,0,0,1-10.48,1.75A51,51,0,0,1,506.14,763.1Z" transform="translate(-1)"/><path class="cls-13" d="M505.94,699.65c-4.18.16-5.17,2.67-5.2,2.78-.66,1.07-2,6.57-1.48,13.11a73,73,0,0,0,3,13.58,9.83,9.83,0,0,1,4.18-1.13c.84-.07,3.07-.22,9-.54-.11-1.15-.4-4.11-.46-6-.06-1.61-.35-6.49-.8-14.15l0-.49c-.11-2-1-6.77-7-7.18A7.15,7.15,0,0,0,505.94,699.65Z" transform="translate(-1)"/><path class="cls-13" d="M490.2,699.78a8.44,8.44,0,0,0-3.94,1.19c-1.71,1-2.53,3.37-2.39,7,0,.48,0,1,0,1.57A34.81,34.81,0,0,0,486.62,724c2.46,6.09,8.18,11.64,10.78,14a10,10,0,0,1,.67-3.65,10.66,10.66,0,0,1,2.16-3.85,68.73,68.73,0,0,1-3.31-14.2,36.5,36.5,0,0,1,.82-12.88,16,16,0,0,0-1.6-1.69,7.76,7.76,0,0,0-3.95-1.81A10,10,0,0,0,490.2,699.78Z" transform="translate(-1)"/><path class="cls-13" d="M474.17,701.69c-5.61.28-6.93,2.49-7,11.78-.13,9.75,4.1,20.28,11.57,28.91,6.24,7.21,16.05,11.11,19.1,12.19a12.94,12.94,0,0,1,.68-5.2,12.22,12.22,0,0,1,2.79-3.77,8.34,8.34,0,0,1-1.69-1.33,7.86,7.86,0,0,1-1.63-2.63c-.94-.77-3.78-3.18-6.18-5.6a39.47,39.47,0,0,1-8.8-14.42c-2.26-6.24-1.79-14.49-1.67-16-.7-.92-3.4-4-7-3.9h-.11Z" transform="translate(-1)"/><path class="cls-13" d="M484.88,781.38a11.71,11.71,0,0,1,4.47.8,10.46,10.46,0,0,1,3.41,2.19,9.51,9.51,0,0,1,2.18,3.23,10.33,10.33,0,0,1,.75,3.95,10.91,10.91,0,0,1-1.37,5.62,8.61,8.61,0,0,1-4.47,3.62v.1a6.13,6.13,0,0,1,2.48,1.27,7.1,7.1,0,0,1,1.6,2,9,9,0,0,1,.91,2.56,22,22,0,0,1,.38,2.79c0,.59.07,1.27.1,2.06s.1,1.61.19,2.43a13.28,13.28,0,0,0,.42,2.34,5.12,5.12,0,0,0,.85,1.89h-8.12a14.08,14.08,0,0,1-.82-4.18c-.1-1.63-.25-3.17-.47-4.66a7.18,7.18,0,0,0-1.75-4.23,6.08,6.08,0,0,0-4.39-1.34h-8.11v14.41H465V781.38ZM482,798.06a6.19,6.19,0,0,0,4.18-1.24,5.1,5.1,0,0,0,1.39-4,4.94,4.94,0,0,0-1.39-3.9,6.3,6.3,0,0,0-4.18-1.21H473.1v10.38Z" transform="translate(-1)"/><path class="cls-13" d="M519.77,781.38l13.79,36.88h-8.42L522.35,810H508.56l-2.9,8.22H497.5l13.94-36.88Zm.45,22.62-4.65-13.54h-.1L510.67,804Z" transform="translate(-1)"/><path class="cls-13" d="M543.4,781.38v15.29l14.41-15.29h10.12l-14.41,14.55,15.8,22.31H559.14L548,801.66l-4.65,4.7v11.88h-8.11V781.38Z" transform="translate(-1)"/><path d="M572.65,940.94v7.89c-.23,1.7-.42,3.41-.7,5.1A55.94,55.94,0,0,1,555.26,986c-13.81,13.22-30.34,18.43-49.22,15.65a54.67,54.67,0,0,1-32.45-17c-12.7-13.45-17.83-29.53-15.44-47.82a54.67,54.67,0,0,1,18.45-34.68c14.21-12.6,30.84-17.13,49.5-13.74a55.28,55.28,0,0,1,30.89,17,56.27,56.27,0,0,1,14.83,29.7C572.16,937.05,572.38,939,572.65,940.94ZM472.52,922.47a48.09,48.09,0,0,0,77.67,55.27c-2.23-1.58-4.47-3.13-6.65-4.76a4.09,4.09,0,0,0-2.94-.9,12.16,12.16,0,0,1-9.75-3.16l-1.82-1.7v4.07h-6.59v-1.2c0-3.73,0-7.47,0-11.2a1.81,1.81,0,0,0-.58-1.29q-7-5-14-10a1.4,1.4,0,0,0-1.17-.06,17.42,17.42,0,0,1-7.71,1.73c-3.11,0-6.23,0-9.34,0h-1.22v21.81h-7.53v-1.3q0-20.19,0-40.37c0-.41-.06-1-.32-1.21C477.88,926.26,475.2,924.38,472.52,922.47Zm6-8.8a5.22,5.22,0,0,0,3.34,1.3c5.77-.2,11.55-.1,17.33-.06a16.67,16.67,0,0,1,3.59.4c8.12,1.87,13.39,9.25,12.72,17.86-.15,2-.59,4.06-.91,6.17l7.87,5.6V915h6.65v24.1l1.17-1.39a11.59,11.59,0,0,1,5-3.42,15.09,15.09,0,0,1,18.46,8.29c2.36,5.28,2.4,10.8,1.39,16.38a18.82,18.82,0,0,1-2.92,7.17l4.37,3.11c11.21-18,9.31-46.38-12.53-62.85A48,48,0,0,0,478.49,913.67ZM546.34,962c.21-.41.4-.72.54-1.06a20.42,20.42,0,0,0,1.36-11.27,14,14,0,0,0-2.56-6.7,8.53,8.53,0,0,0-12.39-1.35,12.76,12.76,0,0,0-4,7.64c0,.3.31.8.61,1,3.05,2.21,6.12,4.38,9.19,6.56Zm-38.67-27.52c0-1.37,0-2.53,0-3.69.21-5.83-3.85-9-8.27-9.31-3-.25-6.08-.13-9.12-.17-.25,0-.5,0-1,.1Zm-19.26-.65v9.29c4.06-.27,8.07.38,12.32-.53Z" transform="translate(-1)"/><rect class="cls-14" x="376.41" y="257.89" width="18.13" height="87.49"/><rect class="cls-14" x="451.66" y="298.69" width="18.13" height="61.98"/><rect class="cls-14" x="443.59" y="191.7" width="18.13" height="150.51" transform="translate(718.62 -185.71) rotate(90)"/><rect class="cls-14" x="478.95" y="316.24" width="18.13" height="70.72" transform="translate(838.62 -136.42) rotate(90)"/><rect class="cls-14" x="508.78" y="257.89" width="18.13" height="102.78"/><rect class="cls-15" x="370.17" y="247" width="167.18" height="129.32"/><path class="cls-4" d="M703.83,359.13H669.45c-2.74,0-4.91-1.84-4.91-4v-9.28c0-2.25,2.24-4,4.91-4h34.38c2.74,0,4.9,1.83,4.9,4v9.28C708.81,357.35,706.57,359.13,703.83,359.13Z" transform="translate(-1)"/><rect class="cls-16" x="675.55" y="341.76" width="20.26" height="17.38"/><path class="cls-4" d="M1073.32,359.13h-34.39c-2.74,0-4.9-1.84-4.9-4v-9.28c0-2.25,2.24-4,4.9-4h34.39c2.74,0,4.9,1.83,4.9,4v9.28C1078.29,357.35,1076.06,359.13,1073.32,359.13Z" transform="translate(-1)"/><rect class="cls-17" x="1045.04" y="341.76" width="20.26" height="17.38"/><circle class="cls-4" cx="736.16" cy="349.83" r="8.02"/><text class="cls-18" transform="translate(543.77 315.52)">LoRa</text><text class="cls-18" transform="translate(698.98 293.54) scale(0.58)">®</text><text class="cls-18" transform="translate(729.76 315.52)">B</text><text class="cls-19" transform="translate(487.86 421.35)">rakwireless</text><text class="cls-20" transform="translate(616.31 722.99)">LoRa</text><text class="cls-20" transform="translate(794.49 701.18) scale(0.58)">®</text><text class="cls-20" transform="translate(825.03 722.99)"><tspan xml:space="preserve"> Module</tspan></text><text class="cls-21" transform="translate(667.69 813.45)">BLE+LoRa</text><text class="cls-21" transform="translate(970.73 794.87) scale(0.58)">®</text><text class="cls-22" transform="translate(646.16 977.13)">P/N: RAK813</text><text class="cls-23" transform="translate(702.07 874.06)">868MHz</text></g><g id="Layer_6" data-name="Layer 6"><line class="cls-24" x1="1270.49" y1="135.62" x2="341.91" y2="135.62"/><polygon class="cls-25" points="1263.86 127.44 1262.5 128.9 1269.72 135.62 1262.5 142.33 1263.86 143.79 1272.66 135.62 1263.86 127.44"/><polygon class="cls-25" points="348.54 127.44 349.9 128.9 342.68 135.62 349.9 142.33 348.54 143.79 339.74 135.62 348.54 127.44"/><text class="cls-26" transform="translate(736.16 100.15)">23 mm</text><line class="cls-27" x1="1272.66" y1="97.15" x2="1272.66" y2="181.49"/><line class="cls-27" x1="339.27" y1="97.15" x2="339.27" y2="181.49"/><line class="cls-28" x1="923.58" y1="201.69" x2="935.59" y2="201.69"/><text class="cls-26" transform="translate(197.58 887.32) rotate(-90)">27.20 mm</text><line class="cls-24" x1="233.05" y1="244.05" x2="233.05" y2="1334.16"/><polygon class="cls-25" points="224.87 250.67 226.33 252.04 233.05 244.81 239.76 252.04 241.23 250.67 233.05 241.88 224.87 250.67"/><polygon class="cls-25" points="224.87 1327.53 226.33 1326.17 233.05 1333.39 239.76 1326.17 241.23 1327.53 233.05 1336.33 224.87 1327.53"/><line class="cls-27" x1="194.58" y1="241.88" x2="278.92" y2="241.88"/><line class="cls-27" x1="194.58" y1="1336.88" x2="278.92" y2="1336.88"/><line class="cls-28" x1="299.12" y1="590.95" x2="299.12" y2="578.95"/></g></svg>