<svg id="Layer_1" data-name="Layer 1" xmlns="http://www.w3.org/2000/svg" viewBox="0 0 1052.55 624.77"><defs><style>.cls-1,.cls-2,.cls-3,.cls-8{fill:none;stroke-miterlimit:10;}.cls-1,.cls-2,.cls-3{stroke:#bcbdbd;stroke-width:2px;}.cls-2{stroke-dasharray:25.19 25.19;}.cls-3{stroke-dasharray:25.13 25.13;}.cls-4{fill:#006ac6;}.cls-5{fill:#ff9e1b;}.cls-6{fill:#fff;}.cls-7{fill:#333;}.cls-8{stroke:#97999b;stroke-width:6px;}.cls-9{fill:#97999b;}</style></defs><polyline class="cls-1" points="990.97 578.21 990.97 590.71 978.47 590.71"/><line class="cls-2" x1="953.28" y1="590.71" x2="59.16" y2="590.71"/><polyline class="cls-1" points="46.56 590.71 34.06 590.71 34.06 578.21"/><line class="cls-3" x1="34.06" y1="553.08" x2="34.06" y2="63"/><polyline class="cls-1" points="34.06 50.44 34.06 37.94 46.56 37.94"/><line class="cls-2" x1="71.75" y1="37.94" x2="965.87" y2="37.94"/><polyline class="cls-1" points="978.47 37.94 990.97 37.94 990.97 50.44"/><line class="cls-3" x1="990.97" y1="75.57" x2="990.97" y2="565.64"/><rect class="cls-4" x="491.64" y="96.77" width="356.88" height="301.94" rx="5.42"/><rect class="cls-4" x="224.11" y="172.74" width="38.34" height="21.27" rx="5.42"/><rect class="cls-5" x="491.64" y="469.71" width="168.77" height="63.48" rx="5.42"/><rect class="cls-5" x="217.04" y="211.24" width="117.68" height="106.84" rx="5.42"/><rect class="cls-5" x="217.04" y="96.77" width="117.68" height="52.65" rx="5.42"/><path class="cls-6" d="M526.64,498.94a3.83,3.83,0,0,0,.57,0h.54c2.16,0,4-1.2,4-3.48s-1.62-3.42-3.78-3.42c-2.76,0-4,2.13-4,4.62h-2.55c.15-4.05,2.31-6.87,6.57-6.87,3.69,0,6.48,1.77,6.48,5.7a4.79,4.79,0,0,1-2.94,4.23v.06c2.61.57,3.84,2.61,3.84,5.16,0,4.23-3.33,6.48-7.32,6.48-4.32,0-7.17-2.52-7.08-6.93h2.55c.09,2.76,1.62,4.68,4.53,4.68,2.49,0,4.62-1.56,4.62-4.11s-2-4.08-4.53-4.08a12.35,12.35,0,0,0-1.53.09Z"/><path class="cls-6" d="M538.1,497.35c-.24-4.32,2.34-7.53,6.84-7.53,3.69,0,6.66,2.16,6.66,6.12,0,3.75-2.52,5.61-5.16,7.29s-5.49,3-6,5.61h10.92v2.25H537.5c.39-5,3-6.9,6-8.7,3.6-2.25,5.43-3.51,5.43-6.48a3.88,3.88,0,0,0-4.11-3.84c-3,0-4.23,2.73-4.14,5.28Z"/><path class="cls-6" d="M556,507.76h3.33v3.33H556Z"/><path class="cls-6" d="M577.07,492.37c-4.29,4.23-7.77,12.09-8.16,18.72h-2.85a30.4,30.4,0,0,1,8.4-18.51H563.3v-2.4h13.77Z"/><path class="cls-6" d="M590.9,495.25a3.39,3.39,0,0,0-3.57-3.18c-4.32,0-5.07,4.8-5.16,8.07l.06.06a5.77,5.77,0,0,1,5.31-2.79c4.08,0,6.51,3,6.51,6.9,0,3.12-1.74,7.14-7.11,7.14-6.33,0-7.32-5.79-7.32-10.23,0-5.85,1.77-11.4,7.83-11.4,3.51,0,5.67,1.95,6,5.43Zm-8.25,9.21c0,2.64,1.62,4.74,4.41,4.74s4.29-2.19,4.29-4.71-1.38-4.83-4.29-4.83S582.65,501.79,582.65,504.46Z"/><path class="cls-6" d="M603.35,489.82c4.65,0,6.45,2.7,6.45,5.43a4.87,4.87,0,0,1-2.94,4.41,5.1,5.1,0,0,1,3.78,5.31c0,4.11-3.12,6.48-7,6.48-4.08,0-7.23-2.16-7.23-6.48a5.33,5.33,0,0,1,3.72-5.31,4.76,4.76,0,0,1-3-4.41C597.11,491.77,600.08,489.82,603.35,489.82Zm.24,19.38a4.11,4.11,0,0,0,4.35-4.14,4.21,4.21,0,0,0-4.38-4.05c-2.52,0-4.5,1.59-4.5,4.08S601,509.2,603.59,509.2Zm0-10.44a3.25,3.25,0,0,0,3.51-3.42c0-2.16-1.5-3.27-3.57-3.27s-3.72,1.14-3.72,3.27C599.81,497.65,601.52,498.76,603.59,498.76Z"/><path class="cls-6" d="M614.18,489.67H617v10.68l10.86-10.68h3.69l-9,8.64,9.39,12.78h-3.6l-7.74-10.83L617,503.59v7.5h-2.85Z"/><rect class="cls-5" x="679.74" y="469.71" width="168.77" height="63.48" rx="5.42"/><path class="cls-6" d="M696.75,498.94a3.83,3.83,0,0,0,.57,0h.54c2.16,0,4-1.2,4-3.48s-1.62-3.42-3.78-3.42c-2.76,0-4,2.13-4,4.62h-2.55c.15-4.05,2.31-6.87,6.57-6.87,3.69,0,6.48,1.77,6.48,5.7a4.79,4.79,0,0,1-2.94,4.23v.06c2.61.57,3.84,2.61,3.84,5.16,0,4.23-3.33,6.48-7.32,6.48-4.32,0-7.17-2.52-7.08-6.93h2.55c.09,2.76,1.62,4.68,4.53,4.68,2.49,0,4.62-1.56,4.62-4.11s-2-4.08-4.53-4.08a12.35,12.35,0,0,0-1.53.09Z"/><path class="cls-6" d="M708.21,497.35c-.24-4.32,2.34-7.53,6.84-7.53,3.69,0,6.66,2.16,6.66,6.12,0,3.75-2.52,5.61-5.16,7.29s-5.49,3-6,5.61H721.5v2.25H707.61c.39-5,3-6.9,6-8.7,3.6-2.25,5.43-3.51,5.43-6.48a3.88,3.88,0,0,0-4.11-3.84c-3,0-4.23,2.73-4.14,5.28Z"/><path class="cls-6" d="M726,489.67h3.9l6.75,18,6.78-18h3.9v21.42h-2.7V493.27h-.06l-6.69,17.82h-2.43l-6.69-17.82h-.06v17.82H726Z"/><path class="cls-6" d="M765.24,492.07H758.1v-2.4h17.13v2.4h-7.14v19h-2.85Z"/><path class="cls-6" d="M792.66,496.12c-.63-3-3-4.56-6-4.56-5.1,0-7.26,4.2-7.26,8.67,0,4.89,2.16,9,7.29,9,3.72,0,5.94-2.64,6.18-6.18h2.85c-.57,5.37-3.84,8.58-9.27,8.58-6.63,0-9.9-4.92-9.9-11.16s3.54-11.28,10.14-11.28c4.47,0,8.19,2.4,8.82,7Z"/><path class="cls-6" d="M804.36,500.08l-7.05-10.41h3.42l5.34,8.37,5.58-8.37h3.18l-7.08,10.41,7.53,11H811.8L806,502.24l-5.94,8.85h-3.21Z"/><path class="cls-6" d="M826.65,489.16c6.81,0,10.26,5.37,10.26,11.22s-3.45,11.22-10.26,11.22-10.26-5.37-10.26-11.22S819.84,489.16,826.65,489.16Zm0,20c5.22,0,7.41-4.5,7.41-8.82s-2.19-8.82-7.41-8.82-7.41,4.5-7.41,8.82S821.43,509.2,826.65,509.2Z"/><path class="cls-6" d="M578.4,171.43c-.33-3.09-2.34-4.38-5.31-4.38-2.43,0-4.8.87-4.8,3.66,0,5.28,13.71,1.56,13.71,10,0,4.56-4.47,6.39-8.37,6.39-4.8,0-8.85-2.37-8.85-7.56h2.7c0,3.6,3,5.16,6.24,5.16,2.58,0,5.43-.81,5.43-3.9,0-5.88-13.71-2-13.71-9.87,0-4.32,3.84-6.27,7.77-6.27,4.38,0,7.74,2.07,7.89,6.78Z"/><path class="cls-6" d="M590.31,167.56h-7.14v-2.4H600.3v2.4h-7.14v19h-2.85Z"/><path class="cls-6" d="M602.73,165.16h3.9l6.75,18,6.77-18h3.91v21.42h-2.7V168.76h-.07l-6.68,17.82h-2.43l-6.69-17.82h-.06v17.82h-2.7Z"/><path class="cls-6" d="M633,174.43a3.76,3.76,0,0,0,.56,0h.55c2.16,0,4-1.2,4-3.48s-1.61-3.42-3.77-3.42c-2.76,0-4,2.13-4,4.62h-2.55c.15-4.05,2.31-6.87,6.57-6.87,3.68,0,6.48,1.77,6.48,5.7a4.8,4.8,0,0,1-2.94,4.23v.06c2.6.57,3.84,2.61,3.84,5.16,0,4.23-3.33,6.48-7.32,6.48-4.32,0-7.17-2.52-7.08-6.93h2.55c.09,2.76,1.61,4.68,4.53,4.68,2.49,0,4.62-1.56,4.62-4.11s-2-4.08-4.54-4.08a12.18,12.18,0,0,0-1.52.09Z"/><path class="cls-6" d="M644.46,172.84c-.24-4.32,2.34-7.53,6.84-7.53,3.68,0,6.65,2.16,6.65,6.12,0,3.75-2.51,5.61-5.16,7.29s-5.48,3-6,5.61h10.92v2.25H643.86c.39-5,3-6.9,6-8.7,3.61-2.25,5.43-3.51,5.43-6.48a3.87,3.87,0,0,0-4.1-3.84c-3,0-4.23,2.73-4.14,5.28Z"/><path class="cls-6" d="M681.51,186.58h-3l-4.89-18h-.06l-5,18h-3l-5.49-21.42h2.91l4.2,17.82h.06l4.8-17.82h3.08L680,183h0l4.36-17.82h2.84Z"/><path class="cls-6" d="M689.94,165.16h2.84v19h11.34v2.4H689.94Z"/><path class="cls-6" d="M706.62,165.16H721.4v2.4H709.47v6.81H720.6v2.4H709.47v7.41h12v2.4H706.62Z"/><path class="cls-6" d="M736.7,167.92h-8.58L727,174l.06.06a5.4,5.4,0,0,1,4-1.53c3.78,0,6.87,2.4,6.87,7.29,0,3.6-2.49,7.08-7.43,7.08-3.7,0-6.7-2.25-6.79-6.09h2.55a4.19,4.19,0,0,0,4.47,3.84c2.44,0,4.5-1.68,4.5-5a4.61,4.61,0,0,0-4.8-4.83,5.07,5.07,0,0,0-4,2l-2.18-.12,2-11h10.5Z"/><path class="cls-6" d="M756.69,171.61c-.63-3-3-4.56-6-4.56-5.1,0-7.26,4.2-7.26,8.67,0,4.89,2.16,9,7.29,9,3.72,0,5.93-2.64,6.18-6.18h2.84c-.56,5.37-3.84,8.58-9.26,8.58-6.63,0-9.9-4.92-9.9-11.16s3.54-11.28,10.14-11.28c4.47,0,8.18,2.4,8.81,7Z"/><path class="cls-6" d="M767,178.42l-5.39-7.35h3.26l3.72,5.43,3.87-5.43h3.06l-5.34,7.14,6,8.37h-3.27l-4.32-6.42-4.31,6.42h-3.1Z"/><path class="cls-7" d="M918.65,93.51c0,5.43-3.06,8.25-8.43,8.25s-8.79-2.55-8.79-8.25V79.83h2.85V93.51c0,3.81,2.13,5.85,5.94,5.85,3.63,0,5.58-2,5.58-5.85V79.83h2.85Z"/><path class="cls-7" d="M929,79.83h3.15l8.37,21.42H937.4l-2.34-6.45H926l-2.4,6.45h-2.94ZM926.9,92.4h7.26l-3.57-10h-.06Z"/><path class="cls-7" d="M942.65,79.83h10.08c4,0,6.51,2.16,6.51,5.61,0,2.61-1.11,4.71-3.72,5.43v.06c2.49.48,3,2.34,3.21,4.41s.06,4.47,1.26,5.91h-3.18c-.81-.87-.36-3.18-.78-5.28s-.81-3.87-3.57-3.87h-7v9.15h-2.85Zm8.79,9.87c2.64,0,4.95-.69,4.95-3.81,0-2.13-1.14-3.66-3.81-3.66H945.5V89.7Z"/><path class="cls-7" d="M968.06,82.23h-7.14v-2.4h17.13v2.4h-7.14v19h-2.85Z"/><path class="cls-6" d="M246.39,111.32h2.85v21.42h-2.85Z"/><path class="cls-6" d="M254,111.32h9.39c4.29,0,6.56,2.34,6.56,6.33s-2.27,6.36-6.56,6.33h-6.54v8.76H254Zm2.85,10.26h5.58c3.24,0,4.68-1.38,4.68-3.93s-1.44-3.93-4.68-3.93h-5.58Z"/><path class="cls-6" d="M273.48,111.32h14.78v2.4H276.32v6.81h11.13v2.4H276.32v7.41h12v2.4H273.48Z"/><path class="cls-6" d="M296.9,121.73l-7-10.41h3.41l5.34,8.37,5.58-8.37h3.18l-7.08,10.41,7.53,11h-3.48l-5.76-8.85-5.93,8.85h-3.21Z"/><path class="cls-7" d="M120.47,55.21h10.08c4,0,6.51,2.16,6.51,5.61,0,2.61-1.11,4.71-3.72,5.43v.06c2.49.48,3,2.34,3.21,4.41s.06,4.47,1.26,5.91h-3.18c-.81-.87-.36-3.18-.78-5.28s-.81-3.87-3.57-3.87h-7v9.15h-2.85Zm8.79,9.87c2.64,0,5-.69,5-3.81,0-2.13-1.14-3.66-3.81-3.66h-7.08v7.47Z"/><path class="cls-7" d="M141,55.21h14.07v2.4H143.87v6.81h9.84v2.4h-9.84v9.81H141Z"/><path class="cls-7" d="M166.58,55.21H176c4.29,0,6.57,2.34,6.57,6.33s-2.28,6.36-6.57,6.33h-6.54v8.76h-2.85Zm2.85,10.26H175c3.24,0,4.68-1.38,4.68-3.93s-1.44-3.93-4.68-3.93h-5.58Z"/><path class="cls-7" d="M191.84,55.21H195l8.37,21.42h-3.15l-2.34-6.45h-9.06l-2.4,6.45h-2.94Zm-2.13,12.57H197l-3.57-10h-.06Z"/><path class="cls-7" d="M205.46,55.21h7.35c6.6,0,10.29,3.33,10.29,10.2,0,7.17-3.15,11.22-10.29,11.22h-7.35Zm2.85,19h4.74c1.95,0,7.2-.54,7.2-8.43,0-5.1-1.89-8.19-7.14-8.19h-4.8Z"/><path class="cls-6" d="M243.28,176.36c4,0,4.28,3.72,4.28,6.54s-.26,6.52-4.28,6.52S239,185.73,239,182.9,239.26,176.36,243.28,176.36Zm0,11.7c2.63,0,2.65-3.26,2.65-5.18s0-5.16-2.65-5.16-2.64,3.26-2.64,5.16S240.65,188.06,243.28,188.06Z"/><path class="cls-6" d="M235.14,252.89h3l11.28,17.37h.06V252.89h2.7v21.42h-3.12L237.9,257.12h-.06v17.19h-2.7Z"/><path class="cls-6" d="M256.83,252.89H270.9v2.4H259.68v6.81h9.84v2.4h-9.84v9.81h-2.85Z"/><path class="cls-6" d="M286.44,259.16c-.33-3.09-2.34-4.38-5.31-4.38-2.43,0-4.8.87-4.8,3.66,0,5.28,13.71,1.56,13.71,10,0,4.56-4.47,6.39-8.37,6.39-4.8,0-8.85-2.37-8.85-7.56h2.7c0,3.6,3,5.16,6.24,5.16,2.58,0,5.43-.81,5.43-3.9,0-5.88-13.71-2-13.71-9.87,0-4.32,3.84-6.27,7.77-6.27,4.38,0,7.74,2.07,7.89,6.78Z"/><path class="cls-6" d="M312.84,274.31h-3l-4.89-18h-.06l-4.95,18h-3l-5.49-21.42h2.91l4.2,17.82h.06l4.8-17.82h3.09l4.74,17.82h.06l4.35-17.82h2.85Z"/><line class="cls-8" x1="576.02" y1="469.71" x2="576.02" y2="407.32"/><polygon class="cls-9" points="582.01 409.07 576.02 398.71 570.04 409.07 582.01 409.07"/><line class="cls-8" x1="334.72" y1="250.63" x2="483.02" y2="250.63"/><polygon class="cls-9" points="481.27 256.61 491.64 250.63 481.27 244.64 481.27 256.61"/><line class="cls-8" x1="275.88" y1="211.2" x2="275.88" y2="158.03"/><polygon class="cls-9" points="281.86 159.78 275.88 149.42 269.89 159.78 281.86 159.78"/><polyline class="cls-8" points="110.32 46.55 110.32 99.72 110.32 183.38 224.11 183.38"/><polygon class="cls-9" points="104.34 48.3 110.32 37.94 116.31 48.3 104.34 48.3"/><line class="cls-8" x1="491.64" y1="278.7" x2="343.33" y2="278.7"/><polygon class="cls-9" points="345.08 272.72 334.71 278.7 345.08 284.69 345.08 272.72"/><line class="cls-8" x1="1022.56" y1="110.93" x2="860.04" y2="110.93"/><polygon class="cls-9" points="1020.8 104.94 1031.17 110.93 1020.8 116.91 1020.8 104.94"/><polygon class="cls-9" points="861.79 104.94 851.43 110.93 861.79 116.91 861.79 104.94"/><path class="cls-7" d="M934.43,131.94h2.85v21.42h-2.85Z"/><path class="cls-7" d="M941.06,139.62c-.24-4.32,2.34-7.53,6.84-7.53,3.69,0,6.66,2.16,6.66,6.12,0,3.75-2.52,5.61-5.16,7.29s-5.49,3-6,5.61h10.92v2.25H940.46c.39-5,3-6.9,6-8.7,3.6-2.25,5.43-3.51,5.43-6.48a3.88,3.88,0,0,0-4.11-3.84c-3,0-4.23,2.73-4.14,5.28Z"/><path class="cls-7" d="M973.82,138.39c-.63-3-3-4.56-6-4.56-5.1,0-7.26,4.2-7.26,8.67,0,4.89,2.16,9,7.29,9,3.72,0,5.94-2.64,6.18-6.18h2.85c-.57,5.37-3.84,8.58-9.27,8.58-6.63,0-9.9-4.92-9.9-11.16s3.54-11.28,10.14-11.28c4.47,0,8.19,2.4,8.82,7Z"/><line class="cls-8" x1="1022.56" y1="163.03" x2="860.04" y2="163.03"/><polygon class="cls-9" points="1020.8 157.05 1031.17 163.03 1020.8 169.02 1020.8 157.05"/><polygon class="cls-9" points="861.79 157.05 851.43 163.03 861.79 169.02 861.79 157.05"/><path class="cls-7" d="M924,180.79h3.15l8.37,21.42h-3.15l-2.34-6.45H921l-2.4,6.45h-2.94Zm-2.13,12.57h7.26l-3.57-10h-.06Z"/><path class="cls-7" d="M937.64,180.79H945c6.6,0,10.29,3.33,10.29,10.2,0,7.17-3.15,11.22-10.29,11.22h-7.35Zm2.85,19h4.74c1.95,0,7.2-.54,7.2-8.43,0-5.1-1.89-8.19-7.14-8.19h-4.8Z"/><path class="cls-7" d="M973.82,187.24c-.63-3-3-4.56-6-4.56-5.1,0-7.26,4.2-7.26,8.67,0,4.89,2.16,9,7.29,9,3.72,0,5.94-2.64,6.18-6.18h2.85c-.57,5.37-3.84,8.58-9.27,8.58-6.63,0-9.9-4.92-9.9-11.16s3.54-11.28,10.14-11.28c4.47,0,8.19,2.4,8.82,7Z"/><line class="cls-8" x1="1022.56" y1="211.89" x2="860.04" y2="211.89"/><polygon class="cls-9" points="1020.8 205.9 1031.17 211.89 1020.8 217.87 1020.8 205.9"/><polygon class="cls-9" points="861.79 205.9 851.43 211.89 861.79 217.87 861.79 205.9"/><path class="cls-7" d="M904.22,250.81a8.55,8.55,0,0,1-6.87,3.18c-6.39,0-10.2-5.19-10.2-10.8,0-6.24,3.42-11.64,10.2-11.64,4.65,0,8.43,2.1,9.21,7.11h-2.85c-.57-3.24-3.15-4.71-6.36-4.71-5.19,0-7.35,4.53-7.35,9.09s2.58,8.55,7.35,8.55c4.44,0,7-3.06,6.87-7h-6.84v-2.4h9.39v11.28H905Z"/><path class="cls-7" d="M911,232.06h9.39c4.29,0,6.57,2.34,6.57,6.33s-2.28,6.36-6.57,6.33h-6.54v8.76H911Zm2.85,10.26h5.58c3.24,0,4.68-1.38,4.68-3.93s-1.44-3.93-4.68-3.93h-5.58Z"/><path class="cls-7" d="M930.53,232.06h2.85v21.42h-2.85Z"/><path class="cls-7" d="M947.24,231.55c6.81,0,10.26,5.37,10.26,11.22S954.05,254,947.24,254,937,248.62,937,242.77,940.43,231.55,947.24,231.55Zm0,20c5.22,0,7.41-4.5,7.41-8.82s-2.19-8.82-7.41-8.82-7.41,4.5-7.41,8.82S942,251.59,947.24,251.59Z"/><path class="cls-7" d="M973.37,238.33C973,235.24,971,234,968.06,234c-2.43,0-4.8.87-4.8,3.66,0,5.28,13.71,1.56,13.71,10,0,4.56-4.47,6.39-8.37,6.39-4.8,0-8.85-2.37-8.85-7.56h2.7c0,3.6,3,5.16,6.24,5.16,2.58,0,5.43-.81,5.43-3.9,0-5.88-13.71-2-13.71-9.87,0-4.32,3.84-6.27,7.77-6.27,4.38,0,7.74,2.07,7.89,6.78Z"/><line class="cls-8" x1="1022.56" y1="263.15" x2="860.04" y2="263.15"/><polygon class="cls-9" points="1020.8 257.17 1031.17 263.15 1020.8 269.14 1020.8 257.17"/><polygon class="cls-9" points="861.79 257.17 851.43 263.15 861.79 269.14 861.79 257.17"/><path class="cls-7" d="M946.16,288.33c-.33-3.09-2.34-4.38-5.31-4.38-2.43,0-4.8.87-4.8,3.66,0,5.28,13.71,1.56,13.71,10,0,4.56-4.47,6.39-8.37,6.39-4.8,0-8.85-2.37-8.85-7.56h2.7c0,3.6,3,5.16,6.24,5.16,2.58,0,5.43-.81,5.43-3.9,0-5.88-13.71-2-13.71-9.87,0-4.32,3.84-6.27,7.77-6.27,4.38,0,7.74,2.07,7.89,6.78Z"/><path class="cls-7" d="M953.21,282.06h9.39c4.29,0,6.57,2.34,6.57,6.33s-2.28,6.36-6.57,6.33h-6.54v8.76h-2.85Zm2.85,10.26h5.58c3.24,0,4.68-1.38,4.68-3.93s-1.44-3.93-4.68-3.93h-5.58Z"/><path class="cls-7" d="M972.77,282.06h2.85v21.42h-2.85Z"/><line class="cls-8" x1="1022.56" y1="313.15" x2="860.04" y2="313.15"/><polygon class="cls-9" points="1020.8 307.17 1031.17 313.15 1020.8 319.14 1020.8 307.17"/><polygon class="cls-9" points="861.79 307.17 851.43 313.15 861.79 319.14 861.79 307.17"/><path class="cls-7" d="M932.93,342.5a3.83,3.83,0,0,0,.57,0H934c2.16,0,4.05-1.2,4.05-3.48s-1.62-3.42-3.78-3.42c-2.76,0-4,2.13-4,4.62h-2.55c.15-4.05,2.31-6.87,6.57-6.87,3.69,0,6.48,1.77,6.48,5.7a4.79,4.79,0,0,1-2.94,4.23v.06c2.61.57,3.84,2.61,3.84,5.16,0,4.23-3.33,6.48-7.32,6.48-4.32,0-7.17-2.53-7.08-6.93h2.55c.09,2.76,1.62,4.68,4.53,4.68,2.49,0,4.62-1.57,4.62-4.11s-2-4.08-4.53-4.08a12.35,12.35,0,0,0-1.53.09Z"/><path class="cls-7" d="M953.84,354.65H950.6L943,333.23h3.09l6.12,18.57h.06l6.18-18.57h3Z"/><path class="cls-7" d="M967.94,342.5a3.83,3.83,0,0,0,.57,0h.54c2.16,0,4.05-1.2,4.05-3.48s-1.62-3.42-3.78-3.42c-2.76,0-4,2.13-4,4.62h-2.55c.15-4.05,2.31-6.87,6.57-6.87,3.69,0,6.48,1.77,6.48,5.7a4.79,4.79,0,0,1-2.94,4.23v.06c2.61.57,3.84,2.61,3.84,5.16,0,4.23-3.33,6.48-7.32,6.48-4.32,0-7.17-2.53-7.08-6.93h2.55c.09,2.76,1.62,4.68,4.53,4.68,2.49,0,4.62-1.57,4.62-4.11s-2-4.08-4.53-4.08a12.35,12.35,0,0,0-1.53.09Z"/><line class="cls-8" x1="1022.56" y1="364.32" x2="860.04" y2="364.32"/><polygon class="cls-9" points="1020.8 358.34 1031.17 364.32 1020.8 370.31 1020.8 358.34"/><polygon class="cls-9" points="861.79 358.34 851.43 364.32 861.79 370.31 861.79 358.34"/><line class="cls-8" x1="764.13" y1="469.71" x2="764.13" y2="407.32"/><polygon class="cls-9" points="770.11 409.07 764.13 398.71 758.14 409.07 770.11 409.07"/></svg>