<svg xmlns="http://www.w3.org/2000/svg" xmlns:xlink="http://www.w3.org/1999/xlink" viewBox="0 0 1663.2 1480"><defs><style>.cls-1,.cls-18,.cls-19,.cls-9{fill:none;}.cls-2{fill:#242424;}.cls-3,.cls-6{fill:#deaa53;}.cls-4{fill:#fff;}.cls-5{fill:#b2b2b2;}.cls-10,.cls-6{isolation:isolate;}.cls-6{opacity:0.8;}.cls-7{fill:#e5e5e5;}.cls-8{fill:#f2f2f2;}.cls-9{stroke:#deaa53;stroke-width:11px;}.cls-18,.cls-19,.cls-9{stroke-miterlimit:10;}.cls-11{fill:#896200;}.cls-12{fill:#333;}.cls-13{fill:#232323;}.cls-14{fill:#d4d4d4;}.cls-15{fill:#c1c3c2;}.cls-16{fill:#3e3f40;}.cls-17{fill:#bfbfbf;}.cls-18{stroke:#333;}.cls-18,.cls-19{stroke-width:3px;}.cls-19{stroke:#fff800;}.cls-20{fill:#fff800;}.cls-21{clip-path:url(#clip-path);}.cls-22{clip-path:url(#clip-path-2);}</style><clipPath id="clip-path"><rect class="cls-1" x="1114.92" y="814.46" width="522.48" height="39.28"/></clipPath><clipPath id="clip-path-2"><rect class="cls-1" x="1106.6" y="667.86" width="515.13" height="146.89"/></clipPath></defs><g id="Layer_2" data-name="Layer 2"><g id="Layer_1-2" data-name="Layer 1"><path class="cls-2" d="M263.8,1396.7a17.88,17.88,0,0,1,17.9-17.9h2.1a18,18,0,0,1,17.9,17.9V1480H700.4a8.24,8.24,0,0,0,8.2-8.2v-58.7c0-13.3,13.1-19.5,13.1-19.5h28.1a15.41,15.41,0,0,0,15.4-15.4h0V198.6a15.41,15.41,0,0,0-15.4-15.4H15.4A15.41,15.41,0,0,0,0,198.6V1378.1a15.41,15.41,0,0,0,15.4,15.4H34.6c17.8,0,19.3,20.7,19.3,20.7v57.6a8.24,8.24,0,0,0,8.2,8.2H263.7v-83.3Z"/><rect class="cls-3" x="5.7" y="189" width="136.7" height="136.7"/><circle class="cls-4" cx="76" cy="257.4" r="34.2" transform="translate(-187.64 307.67) rotate(-84.35)"/><rect class="cls-3" x="620.4" y="189" width="136.7" height="136.7"/><circle class="cls-4" cx="690.7" cy="257.5" r="34.2"/><path class="cls-5" d="M242.6,281.3v-8.6a3.37,3.37,0,0,0-3.4-3.4H219.3a3.37,3.37,0,0,0-3.4,3.4h0v8.6Z"/><rect class="cls-6" x="221" y="194.2" width="16.5" height="80.2"/><rect class="cls-7" x="177.3" y="199" width="104.1" height="59"/><path class="cls-8" d="M214.6,202.6h30a19,19,0,0,1,18.9,18.9v25.7a19,19,0,0,1-18.9,18.9h-30a19,19,0,0,1-18.9-18.9V221.5A19,19,0,0,1,214.6,202.6Z"/><circle class="cls-9" cx="229.4" cy="231.9" r="24"/><circle class="cls-3" cx="229.4" cy="231.9" r="6.8"/><path class="cls-5" d="M546.6,281.3v-8.6a3.4,3.4,0,0,0-3.5-3.4H523.2a3.52,3.52,0,0,0-3.5,3.4v8.6Z"/><rect class="cls-6" x="525" y="194.2" width="16.5" height="80.2"/><rect class="cls-7" x="481.4" y="199" width="104.1" height="59"/><path class="cls-8" d="M518.6,202.6h30a19,19,0,0,1,18.9,18.9v25.7a19,19,0,0,1-18.9,18.9h-30a19,19,0,0,1-18.9-18.9V221.5A19,19,0,0,1,518.6,202.6Z"/><circle class="cls-9" cx="533.4" cy="231.9" r="24"/><circle class="cls-3" cx="533.4" cy="231.9" r="6.8"/><g class="cls-10"><path class="cls-4" d="M612.7,241.7a8.23,8.23,0,0,1,3,6.6c0,6.1-5,9.8-10.3,9.8-6,0-11.1-3.3-11.1-9.8,0-4.5,2-8.1,6.8-8.8v2.7c-3.1.5-4.5,3-4.5,6.1,0,5,4.3,7,8.7,7s8.2-2.5,8.2-7a6.22,6.22,0,0,0-6.7-6.6v6.5h-2.3v-9h10.8v1.7Z"/><path class="cls-4" d="M594.8,235.2v-9c0-4.1,2.2-6.3,6.1-6.3s6.1,2.2,6.1,6.3v6.3h8.4v2.7Zm9.8-2.7v-5.3c0-3.1-1.3-4.5-3.8-4.5s-3.8,1.4-3.8,4.5v5.3Z"/><path class="cls-4" d="M600.8,204.8c-3,.3-4.2,2.2-4.2,5.1,0,2.3.8,4.6,3.5,4.6,5.1,0,1.5-13.1,9.6-13.1,4.4,0,6.1,4.3,6.1,8,0,4.6-2.3,8.5-7.2,8.5v-2.6c3.4,0,4.9-2.9,4.9-6,0-2.5-.8-5.2-3.7-5.2-5.6,0-1.9,13.1-9.4,13.1-4.1,0-6-3.7-6-7.4,0-4.2,2-7.4,6.5-7.6l-.1,2.6Z"/></g><g class="cls-10"><path class="cls-4" d="M298.8,311.6v-3.8h25.6V292.5h3.2v19.1Z"/><path class="cls-4" d="M306.3,280.7c0-6.6,4.8-10.1,11-10.1s10.9,3.5,10.9,10.1-4.8,10.1-10.9,10.1S306.3,287.3,306.3,280.7Zm18.8,0c0-3.6-2.8-6.5-7.9-6.5s-7.9,2.9-7.9,6.5,2.9,6.5,7.9,6.5S325.1,284.3,325.1,280.7Z"/><path class="cls-4" d="M298.8,265.9V252.3c0-5.5,2.9-8.8,7.6-8.8,3.5,0,6.3,1.5,7.3,5h.1c.6-3.4,3.2-4,5.9-4.3s6-.1,8-1.7v4.3c-1.2,1.1-4.3.5-7.1,1.1-2.8.4-5.2,1.1-5.2,4.8v9.4h12.3v3.8Zm13.3-11.8c0-3.6-.9-6.7-5.1-6.7-2.9,0-4.9,1.5-4.9,5.1V262h10.1v-7.9Z"/><path class="cls-4" d="M327.6,220.3a4.63,4.63,0,0,1,.6,2.5c0,1.8-1,2.9-3.2,2.9a9,9,0,0,1,3.2,7.4c0,3.8-1.7,6.9-5.9,6.9-4.7,0-5.8-3.5-6.4-7.1-.8-3.8-.4-7-3.1-7-3,0-3.5,2.5-3.5,4.6,0,2.9.9,5.1,4,5.2v3.4c-5.2-.2-7-4.2-7-8.9,0-3.8.8-7.8,5.7-7.8h10.8c1.6,0,2.3,0,2.3-1.1a5.16,5.16,0,0,0-.2-1.1h2.7Zm-10.7,5.6c2,2.7,0,10.4,5.2,10.4,2.3,0,3.1-1.9,3.1-4,0-4.5-2.8-6.4-4.7-6.4Z"/></g><g class="cls-10"><path class="cls-4" d="M297.1,210.3a8.75,8.75,0,1,1,8.7,8.8A8.73,8.73,0,0,1,297.1,210.3Zm16.2,0a7.45,7.45,0,1,0-7.5,7.2A7.18,7.18,0,0,0,313.3,210.3Zm-12.6,3.4v-4c0-2.4,1-3.6,2.9-3.6s2.6,1.2,2.8,2.7l4.5-2.9v1.7l-4.4,2.8v1.7h4.4v1.6Zm4.6-1.6v-1.7c0-1.4-.1-2.7-1.7-2.7-1.4,0-1.6,1.2-1.6,2.3v2.1Z"/></g><path class="cls-11" d="M708.7,1411.7v60a8.24,8.24,0,0,1-8.2,8.2H301.7v-68.1Z"/><path class="cls-11" d="M54,1471.8v-57.6a20,20,0,0,0-.4-2.4H263.8V1480H62.2A8.24,8.24,0,0,1,54,1471.8Z"/><path class="cls-7" d="M352.3,310.9v-27c0-2.1,1.3-3.9,2.8-3.9h6.5c1.6,0,2.8,1.8,2.8,3.9v27c0,2.2-1.3,3.8-2.8,3.8h-6.5C353.5,314.7,352.3,313.1,352.3,310.9Z"/><rect class="cls-12" x="352.2" y="289.4" width="12.2" height="15.9"/><path class="cls-7" d="M377.3,310.9v-27c0-2.1,1.3-3.9,2.8-3.9h6.5c1.6,0,2.8,1.8,2.8,3.9v27c0,2.2-1.3,3.8-2.8,3.8h-6.5C378.6,314.7,377.3,313.1,377.3,310.9Z"/><rect class="cls-12" x="377.3" y="289.4" width="12.2" height="15.9"/><path class="cls-7" d="M402.4,310.9v-27c0-2.1,1.3-3.9,2.8-3.9h6.5c1.6,0,2.8,1.8,2.8,3.9v27c0,2.2-1.3,3.8-2.8,3.8h-6.5C403.7,314.7,402.4,313.1,402.4,310.9Z"/><rect class="cls-12" x="402.4" y="289.4" width="12.2" height="15.9"/><path class="cls-7" d="M231.8,309.7h21.6c1.7,0,3.1,1.1,3.1,2.3v5.4c0,1.3-1.4,2.3-3.1,2.3H231.8c-1.7,0-3.1-1.1-3.1-2.3V312C228.7,310.8,230.1,309.7,231.8,309.7Z"/><rect class="cls-13" x="237.1" y="309.7" width="11.5" height="10.1"/><rect class="cls-7" x="338.7" y="208.9" width="24" height="58.1"/><rect class="cls-14" x="338.7" y="216.1" width="24" height="8.6"/><rect class="cls-14" x="338.7" y="251.2" width="24" height="8.6"/><path class="cls-3" d="M362.7,226v23.9c0,2.9-2,5.3-4.4,5.3H343.2c-2.5,0-4.5-2.4-4.5-5.3V226c0-2.9,2-5.3,4.5-5.3h15.1C360.7,220.7,362.7,223.1,362.7,226Z"/><rect class="cls-7" x="371.5" y="208.9" width="24" height="58.1"/><rect class="cls-14" x="371.5" y="216.1" width="24" height="8.6"/><rect class="cls-14" x="371.5" y="251.2" width="24" height="8.6"/><path class="cls-3" d="M395.4,226v23.9c0,2.9-2,5.3-4.4,5.3H375.9c-2.5,0-4.4-2.4-4.4-5.3V226c0-2.9,2-5.3,4.4-5.3H391C393.4,220.7,395.4,223.1,395.4,226Z"/><rect class="cls-7" x="404.2" y="208.9" width="24" height="58.1"/><rect class="cls-14" x="404.2" y="216.1" width="24" height="8.6"/><rect class="cls-14" x="404.2" y="251.2" width="24" height="8.6"/><path class="cls-3" d="M428.2,226v23.9c0,2.9-2,5.3-4.5,5.3H408.6c-2.5,0-4.4-2.4-4.4-5.3V226c0-2.9,2-5.3,4.4-5.3h15.1C426.2,220.7,428.2,223.1,428.2,226Z"/><path class="cls-15" d="M12.4,354.9v865.9a10.71,10.71,0,0,0,10.7,10.7h133v130.4a9.65,9.65,0,0,0,9.7,9.7H747.4a9.65,9.65,0,0,0,9.7-9.7V354.9a10.86,10.86,0,0,0-10.7-10.8H23.1A10.86,10.86,0,0,0,12.4,354.9Z"/><path class="cls-3" d="M221,1476.4h6.5s0-4.8,3.9-4.8v-61.5c-3.9,0-3.9-4.8-3.9-4.8H221c0,4.7-3.9,4.8-3.9,4.8v61.5S221,1471.7,221,1476.4Z"/><path class="cls-3" d="M200.9,1476.4h6.5s0-4.8,3.9-4.8v-61.5c-3.9,0-3.9-4.8-3.9-4.8h-6.5c0,4.7-3.9,4.8-3.9,4.8v61.5S200.9,1471.7,200.9,1476.4Z"/><path class="cls-3" d="M180.8,1476.4h6.5s0-4.8,3.9-4.8v-61.5c-3.9,0-3.9-4.8-3.9-4.8h-6.5c0,4.7-3.9,4.8-3.9,4.8v61.5S180.8,1471.7,180.8,1476.4Z"/><path class="cls-3" d="M160.7,1476.4h6.5s0-4.8,3.9-4.8v-61.5c-3.9,0-3.9-4.8-3.9-4.8h-6.5c0,4.7-3.9,4.8-3.9,4.8v61.5S160.7,1471.7,160.7,1476.4Z"/><path class="cls-3" d="M140.6,1476.4h6.5s0-4.8,3.9-4.8v-61.5c-3.9,0-3.9-4.8-3.9-4.8h-6.5c0,4.7-3.9,4.8-3.9,4.8v61.5S140.6,1471.7,140.6,1476.4Z"/><path class="cls-3" d="M120.5,1476.4H127s0-4.8,3.9-4.8v-61.5c-3.9,0-3.9-4.8-3.9-4.8h-6.5c0,4.7-3.9,4.8-3.9,4.8v61.5S120.5,1471.7,120.5,1476.4Z"/><path class="cls-3" d="M100.4,1476.4h6.5s0-4.8,3.9-4.8v-61.5c-3.9,0-3.9-4.8-3.9-4.8h-6.5c0,4.7-3.9,4.8-3.9,4.8v61.5S100.4,1471.7,100.4,1476.4Z"/><path class="cls-3" d="M80.3,1476.4h6.5s0-4.8,3.9-4.8v-61.5c-3.9,0-3.9-4.8-3.9-4.8H80.3c0,4.7-3.9,4.8-3.9,4.8v61.5S80.3,1471.7,80.3,1476.4Z"/><path class="cls-3" d="M464.8,1476.4h6.6s0-4.8,3.9-4.8v-61.5c-3.9,0-3.9-4.8-3.9-4.8h-6.5c0,4.7-3.9,4.8-3.9,4.8v61.5S464.8,1471.7,464.8,1476.4Z"/><path class="cls-3" d="M444.7,1476.4h6.5s0-4.8,3.9-4.8v-61.5c-3.9,0-3.9-4.8-3.9-4.8h-6.5c0,4.7-3.9,4.8-3.9,4.8v61.5S444.7,1471.7,444.7,1476.4Z"/><path class="cls-3" d="M424.6,1476.4h6.5s0-4.8,3.9-4.8v-61.5c-3.9,0-3.9-4.8-3.9-4.8h-6.5c0,4.7-3.9,4.8-3.9,4.8v61.5S424.6,1471.7,424.6,1476.4Z"/><path class="cls-3" d="M404.5,1476.4H411s0-4.8,3.9-4.8v-61.5c-3.9,0-3.9-4.8-3.9-4.8h-6.5c0,4.7-3.9,4.8-3.9,4.8v61.5S404.5,1471.7,404.5,1476.4Z"/><path class="cls-3" d="M384.4,1476.4h6.5s0-4.8,3.9-4.8v-61.5c-3.9,0-3.9-4.8-3.9-4.8h-6.5c0,4.7-3.9,4.8-3.9,4.8v61.5S384.4,1471.7,384.4,1476.4Z"/><path class="cls-3" d="M364.3,1476.4h6.5s0-4.8,3.9-4.8v-61.5c-3.9,0-3.9-4.8-3.9-4.8h-6.5c0,4.7-3.9,4.8-3.9,4.8v61.5S364.3,1471.7,364.3,1476.4Z"/><path class="cls-3" d="M344.2,1476.4h6.5s0-4.8,3.9-4.8v-61.5c-3.9,0-3.9-4.8-3.9-4.8h-6.5c0,4.7-3.9,4.8-3.9,4.8v61.5S344.2,1471.7,344.2,1476.4Z"/><path class="cls-3" d="M324.1,1476.4h6.5s0-4.8,3.9-4.8v-61.5c-3.9,0-3.9-4.8-3.9-4.8h-6.5c0,4.7-3.9,4.8-3.9,4.8v61.5S324.1,1471.7,324.1,1476.4Z"/><path class="cls-3" d="M626.7,1476.4h6.5s0-4.8,3.9-4.8v-61.5c-3.9,0-3.9-4.8-3.9-4.8h-6.5c0,4.7-3.9,4.8-3.9,4.8v61.5S626.7,1471.7,626.7,1476.4Z"/><path class="cls-3" d="M647.6,1476.4h6.5s0-4.8,3.9-4.8v-61.5c-3.9,0-3.9-4.8-3.9-4.8h-6.5c0,4.7-3.9,4.8-3.9,4.8v61.5S647.6,1471.7,647.6,1476.4Z"/><path class="cls-3" d="M667.9,1476.4h6.5s0-4.8,3.9-4.8v-61.5c-3.9,0-3.9-4.8-3.9-4.8h-6.5c0,4.7-3.9,4.8-3.9,4.8v61.5S667.9,1471.7,667.9,1476.4Z"/><path class="cls-3" d="M606.6,1476.4h6.5s0-4.8,3.9-4.8v-61.5c-3.9,0-3.9-4.8-3.9-4.8h-6.5c0,4.7-3.9,4.8-3.9,4.8v61.5C602.6,1471.6,606.6,1471.7,606.6,1476.4Z"/><path class="cls-3" d="M586.5,1476.4H593s0-4.8,3.9-4.8v-61.5c-3.9,0-3.9-4.8-3.9-4.8h-6.5c0,4.7-3.9,4.8-3.9,4.8v61.5S586.5,1471.7,586.5,1476.4Z"/><path class="cls-3" d="M566.4,1476.4h6.5s0-4.8,3.9-4.8v-61.5c-3.9,0-3.9-4.8-3.9-4.8h-6.5c0,4.7-3.9,4.8-3.9,4.8v61.5S566.4,1471.7,566.4,1476.4Z"/><path class="cls-3" d="M546.3,1476.4h6.5s0-4.8,3.9-4.8v-61.5c-3.9,0-3.9-4.8-3.9-4.8h-6.5c0,4.7-3.9,4.8-3.9,4.8v61.5S546.3,1471.7,546.3,1476.4Z"/><path class="cls-3" d="M526.2,1476.4h6.5s0-4.8,3.9-4.8v-61.5c-3.9,0-3.9-4.8-3.9-4.8h-6.5c0,4.7-3.9,4.8-3.9,4.8v61.5S526.2,1471.7,526.2,1476.4Z"/><path class="cls-3" d="M506.1,1476.4h6.5s0-4.8,3.9-4.8v-61.5c-3.9,0-3.9-4.8-3.9-4.8h-6.5c0,4.7-3.9,4.8-3.9,4.8v61.5S506.1,1471.7,506.1,1476.4Z"/><path class="cls-3" d="M486,1476.4h6.5s0-4.8,3.9-4.8v-61.5c-3.9,0-3.9-4.8-3.9-4.8H486c0,4.7-3.9,4.8-3.9,4.8v61.5S486,1471.7,486,1476.4Z"/><path class="cls-2" d="M1399.4,1396.7a18,18,0,0,0-17.9-17.9h-2.1a18,18,0,0,0-17.9,17.9V1480H962.8a8.24,8.24,0,0,1-8.2-8.2v-58.7c0-13.3-13.1-19.6-13.1-19.6H913.4a15.41,15.41,0,0,1-15.4-15.4h0V198.6a15.41,15.41,0,0,1,15.4-15.4h734.4a15.41,15.41,0,0,1,15.4,15.4h0V1378.1a15.41,15.41,0,0,1-15.4,15.4h-19.2c-17.8,0-19.3,20.7-19.3,20.7v57.6a8.24,8.24,0,0,1-8.2,8.2H1399.4Z"/><rect class="cls-3" x="1515" y="189" width="136.7" height="136.7"/><circle class="cls-4" cx="1581.5" cy="257.4" r="34.2"/><rect class="cls-3" x="900.3" y="189" width="136.7" height="136.7"/><circle class="cls-4" cx="966.8" cy="257.4" r="34.2"/><circle class="cls-3" cx="1612.3" cy="1335.7" r="13.8"/><circle class="cls-3" cx="1585" cy="390.2" r="13.8"/><circle class="cls-3" cx="935.1" cy="377.2" r="13.8"/><path class="cls-7" d="M1512.4,1339.1h-27c-2.2,0-3.8-1.3-3.8-2.8v-6.6c0-1.6,1.8-2.8,3.8-2.8h27c2.2,0,3.8,1.3,3.8,2.8v6.5C1516.2,1337.8,1514.5,1339.1,1512.4,1339.1Z"/><rect class="cls-12" x="1490.9" y="1326.9" width="15.9" height="12.2"/><path class="cls-7" d="M1410.9,1005.9v-27c0-2.2,1.3-3.8,2.8-3.8h6.5c1.6,0,2.8,1.8,2.8,3.8v27c0,2.2-1.3,3.8-2.8,3.8h-6.5C1412.2,1009.7,1410.9,1008,1410.9,1005.9Z"/><rect class="cls-12" x="1410.9" y="984.4" width="12.2" height="15.9"/><path class="cls-7" d="M1458.3,935.9v-27c0-2.2,1.3-3.8,2.8-3.8h6.5c1.6,0,2.8,1.8,2.8,3.8v27c0,2.2-1.3,3.8-2.8,3.8h-6.5C1459.6,939.7,1458.3,938,1458.3,935.9Z"/><rect class="cls-12" x="1458.3" y="914.4" width="12.2" height="15.9"/><path class="cls-7" d="M1517.2,581.6v-27c0-2.2,1.3-3.8,2.8-3.8h6.6c1.6,0,2.8,1.8,2.8,3.8v27c0,2.2-1.3,3.8-2.8,3.8H1520C1518.5,585.5,1517.2,583.8,1517.2,581.6Z"/><rect class="cls-12" x="1517.2" y="560.1" width="12.2" height="15.9"/><path class="cls-7" d="M1591.6,975.6v-27c0-2.2,1.3-3.8,2.8-3.8h6.5c1.6,0,2.8,1.8,2.8,3.8v27c0,2.2-1.3,3.9-2.8,3.9h-6.6C1592.9,979.5,1591.6,977.8,1591.6,975.6Z"/><rect class="cls-12" x="1591.6" y="954.1" width="12.2" height="15.9"/><path class="cls-7" d="M1591.6,1031.6v-27c0-2.2,1.3-3.8,2.8-3.8h6.5c1.6,0,2.8,1.8,2.8,3.8v27c0,2.2-1.3,3.8-2.8,3.8h-6.6C1592.9,1035.5,1591.6,1033.8,1591.6,1031.6Z"/><rect class="cls-12" x="1591.6" y="1010.2" width="12.2" height="15.9"/><path class="cls-7" d="M1489.6,1040.6v-27c0-2.2,1.3-3.9,2.8-3.9h6.6c1.6,0,2.8,1.8,2.8,3.9v27c0,2.2-1.3,3.8-2.8,3.8h-6.5C1490.8,1044.4,1489.6,1042.7,1489.6,1040.6Z"/><rect class="cls-12" x="1489.5" y="1019.1" width="12.2" height="15.9"/><path class="cls-7" d="M1359.3,910.3h-27.2a3.74,3.74,0,0,1-3.9-3.4v-7.8a3.68,3.68,0,0,1,3.9-3.4h27.2a3.74,3.74,0,0,1,3.9,3.4v7.8A3.61,3.61,0,0,1,1359.3,910.3Z"/><rect class="cls-12" x="1337.7" y="895.8" width="16" height="14.6"/><path class="cls-7" d="M1380.9,583.3h-27.2a3.74,3.74,0,0,1-3.9-3.4v-7.8a3.74,3.74,0,0,1,3.9-3.4h27.2a3.74,3.74,0,0,1,3.9,3.4v7.8A3.74,3.74,0,0,1,1380.9,583.3Z"/><rect class="cls-12" x="1359.3" y="568.8" width="16" height="14.6"/><path class="cls-7" d="M1304,473h-27.2a3.74,3.74,0,0,1-3.9-3.4v-7.8a3.74,3.74,0,0,1,3.9-3.4H1304a3.74,3.74,0,0,1,3.9,3.4v7.8A3.74,3.74,0,0,1,1304,473Z"/><rect class="cls-12" x="1282.4" y="458.5" width="16" height="14.6"/><path class="cls-7" d="M1304,346.3h-27.2a3.74,3.74,0,0,1-3.9-3.4v-7.8a3.74,3.74,0,0,1,3.9-3.4H1304a3.74,3.74,0,0,1,3.9,3.4v7.8A3.74,3.74,0,0,1,1304,346.3Z"/><rect class="cls-12" x="1282.4" y="331.8" width="16" height="14.6"/><path class="cls-7" d="M1083.6,333h-27.2a3.74,3.74,0,0,1-3.9-3.4v-7.8a3.74,3.74,0,0,1,3.9-3.4h27.2a3.74,3.74,0,0,1,3.9,3.4v7.8A3.62,3.62,0,0,1,1083.6,333Z"/><rect class="cls-12" x="1062.1" y="318.4" width="16" height="14.6"/><path class="cls-7" d="M1380.9,605h-27.2a3.74,3.74,0,0,1-3.9-3.4v-7.8a3.74,3.74,0,0,1,3.9-3.4h27.2a3.74,3.74,0,0,1,3.9,3.4v7.8A3.74,3.74,0,0,1,1380.9,605Z"/><rect class="cls-12" x="1359.3" y="590.4" width="16" height="14.6"/><path class="cls-7" d="M1380.9,626.6h-27.2a3.74,3.74,0,0,1-3.9-3.4v-7.8a3.74,3.74,0,0,1,3.9-3.4h27.2a3.74,3.74,0,0,1,3.9,3.4v7.8A3.74,3.74,0,0,1,1380.9,626.6Z"/><rect class="cls-12" x="1359.3" y="612.1" width="16" height="14.6"/><path class="cls-7" d="M1298.1,919.6V898a2.91,2.91,0,0,1,2.7-3.1h6.4a2.91,2.91,0,0,1,2.7,3.1v21.6a2.91,2.91,0,0,1-2.7,3.1h-6.3A2.87,2.87,0,0,1,1298.1,919.6Z"/><rect class="cls-3" x="1298.1" y="902.9" width="11.8" height="11.5"/><path class="cls-7" d="M1413.7,954.1V932.5c0-1.7,1.1-3.1,2.3-3.1h5.4c1.3,0,2.3,1.4,2.3,3.1v21.6c0,1.7-1.1,3.1-2.3,3.1H1416C1414.8,957.2,1413.7,955.9,1413.7,954.1Z"/><rect class="cls-3" x="1413.7" y="937.3" width="10.1" height="11.5"/><path class="cls-7" d="M1458.9,976.2v-24c0-1.9,1.2-3.4,2.6-3.4h6c1.4,0,2.6,1.6,2.6,3.4v24c0,1.9-1.2,3.4-2.6,3.4h-6C1460,979.6,1458.9,978.1,1458.9,976.2Z"/><rect class="cls-3" x="1458.9" y="957.6" width="11.1" height="12.7"/><path class="cls-7" d="M1540.9,578.9V557.3c0-1.7,1.1-3.1,2.3-3.1h5.4c1.3,0,2.3,1.4,2.3,3.1v21.6c0,1.7-1.1,3.1-2.3,3.1h-5.4C1542,582,1540.9,580.6,1540.9,578.9Z"/><rect class="cls-3" x="1540.9" y="562.1" width="10.1" height="11.5"/><path class="cls-7" d="M1409.4,551.2V529.6c0-1.7,1.1-3.1,2.3-3.1h5.4c1.3,0,2.3,1.4,2.3,3.1v21.6c0,1.7-1.1,3.1-2.3,3.1h-5.4C1410.4,554.3,1409.4,553,1409.4,551.2Z"/><rect class="cls-3" x="1409.3" y="534.4" width="10.1" height="11.5"/><path class="cls-7" d="M1126.5,394.3V372.7c0-1.7,1-3.1,2.3-3.1h5.4c1.3,0,2.3,1.4,2.3,3.1v21.6c0,1.7-1.1,3.1-2.3,3.1h-5.4C1127.5,397.4,1126.5,396.1,1126.5,394.3Z"/><rect class="cls-3" x="1126.5" y="377.5" width="10.1" height="11.5"/><path class="cls-7" d="M1409.4,600.8V579.1c0-1.7,1.1-3.1,2.3-3.1h5.4c1.3,0,2.3,1.4,2.3,3.1v21.7c0,1.7-1.1,3.1-2.3,3.1h-5.4C1410.4,603.9,1409.4,602.5,1409.4,600.8Z"/><rect class="cls-3" x="1409.3" y="584" width="10.1" height="11.5"/><path class="cls-7" d="M1409.4,650.3V628.7c0-1.7,1.1-3.1,2.3-3.1h5.4c1.3,0,2.3,1.4,2.3,3.1v21.6c0,1.7-1.1,3.1-2.3,3.1h-5.4C1410.4,653.4,1409.4,652,1409.4,650.3Z"/><rect class="cls-3" x="1409.3" y="633.5" width="10.1" height="11.5"/><path class="cls-7" d="M1519.6,597.7h21.6c1.7,0,3.1,1.1,3.1,2.3v5.4c0,1.3-1.4,2.3-3.1,2.3h-21.6c-1.7,0-3.1-1.1-3.1-2.3V600A2.93,2.93,0,0,1,1519.6,597.7Z"/><rect class="cls-3" x="1525" y="597.7" width="11.5" height="10.1"/><path class="cls-7" d="M1134.2,297.6h21.6c1.7,0,3.1,1.1,3.1,2.3v5.4c0,1.3-1.4,2.3-3.1,2.3h-21.6c-1.7,0-3.1-1-3.1-2.3v-5.4C1131.1,298.6,1132.4,297.6,1134.2,297.6Z"/><rect class="cls-3" x="1139.5" y="297.6" width="11.5" height="10.1"/><path class="cls-7" d="M1437.8,974.8h6.7a3.37,3.37,0,0,1,3.4,3.4v8.6a3.37,3.37,0,0,1-3.4,3.4h-6.7a3.37,3.37,0,0,1-3.4-3.4v-8.6A3.37,3.37,0,0,1,1437.8,974.8Z"/><path class="cls-7" d="M1437.8,994.4h6.7a3.37,3.37,0,0,1,3.4,3.4v8.6a3.37,3.37,0,0,1-3.4,3.4h-6.7a3.37,3.37,0,0,1-3.4-3.4v-8.6A3.37,3.37,0,0,1,1437.8,994.4Z"/><path class="cls-7" d="M938.8,1223.9h6.8a2.43,2.43,0,0,1,2.4,2.4v8.8a2.43,2.43,0,0,1-2.4,2.4h-6.8a2.43,2.43,0,0,1-2.4-2.4v-8.8A2.43,2.43,0,0,1,938.8,1223.9Z"/><path class="cls-7" d="M938.8,1246.3h6.8a2.43,2.43,0,0,1,2.4,2.4v8.8a2.43,2.43,0,0,1-2.4,2.4h-6.8a2.43,2.43,0,0,1-2.4-2.4v-8.8A2.37,2.37,0,0,1,938.8,1246.3Z"/><path class="cls-7" d="M964.5,1223.9h6.8a2.43,2.43,0,0,1,2.4,2.4v8.8a2.43,2.43,0,0,1-2.4,2.4h-6.8a2.43,2.43,0,0,1-2.4-2.4v-8.8A2.43,2.43,0,0,1,964.5,1223.9Z"/><path class="cls-7" d="M964.5,1246.3h6.8a2.43,2.43,0,0,1,2.4,2.4v8.8a2.43,2.43,0,0,1-2.4,2.4h-6.8a2.43,2.43,0,0,1-2.4-2.4v-8.8A2.37,2.37,0,0,1,964.5,1246.3Z"/><path class="cls-7" d="M996,1223.9h6.8a2.43,2.43,0,0,1,2.4,2.4v8.8a2.43,2.43,0,0,1-2.4,2.4H996a2.43,2.43,0,0,1-2.4-2.4v-8.8A2.37,2.37,0,0,1,996,1223.9Z"/><path class="cls-7" d="M996,1246.3h6.8a2.43,2.43,0,0,1,2.4,2.4v8.8a2.43,2.43,0,0,1-2.4,2.4H996a2.43,2.43,0,0,1-2.4-2.4v-8.8A2.31,2.31,0,0,1,996,1246.3Z"/><path class="cls-7" d="M1020.4,1171.3h8.8a2.43,2.43,0,0,1,2.4,2.4v6.8a2.43,2.43,0,0,1-2.4,2.4h-8.8a2.43,2.43,0,0,1-2.4-2.4v-6.8A2.37,2.37,0,0,1,1020.4,1171.3Z"/><path class="cls-7" d="M998,1171.3h8.8a2.43,2.43,0,0,1,2.4,2.4v6.8a2.43,2.43,0,0,1-2.4,2.4H998a2.43,2.43,0,0,1-2.4-2.4v-6.8A2.43,2.43,0,0,1,998,1171.3Z"/><path class="cls-7" d="M1057.3,1127.6h6.8a2.43,2.43,0,0,1,2.4,2.4v8.8a2.43,2.43,0,0,1-2.4,2.4h-6.8a2.43,2.43,0,0,1-2.4-2.4V1130A2.43,2.43,0,0,1,1057.3,1127.6Z"/><path class="cls-7" d="M1057.3,1150h6.8a2.43,2.43,0,0,1,2.4,2.4v8.8a2.43,2.43,0,0,1-2.4,2.4h-6.8a2.43,2.43,0,0,1-2.4-2.4v-8.8A2.37,2.37,0,0,1,1057.3,1150Z"/><path class="cls-7" d="M1099.7,1119.2h8.6a2.35,2.35,0,0,1,2.3,2.4v6.9a2.35,2.35,0,0,1-2.3,2.4h-8.6a2.29,2.29,0,0,1-2.3-2.4v-6.9a2.29,2.29,0,0,1,2.3-2.4Z"/><path class="cls-7" d="M1121.5,1119.2h8.6a2.29,2.29,0,0,1,2.3,2.4h0v6.9a2.35,2.35,0,0,1-2.3,2.4h-8.6a2.29,2.29,0,0,1-2.3-2.4v-6.9a2.35,2.35,0,0,1,2.3-2.4Z"/><path class="cls-7" d="M1150.6,1176.2v-8.6a2.29,2.29,0,0,1,2.4-2.3h6.9a2.35,2.35,0,0,1,2.4,2.3v8.6a2.29,2.29,0,0,1-2.4,2.3H1153a2.35,2.35,0,0,1-2.4-2.3Z"/><path class="cls-7" d="M1150.6,1154.3v-8.6a2.29,2.29,0,0,1,2.4-2.3h6.9a2.35,2.35,0,0,1,2.4,2.3v8.6a2.35,2.35,0,0,1-2.4,2.3H1153A2.29,2.29,0,0,1,1150.6,1154.3Z"/><path class="cls-7" d="M1122.3,1199.3h-8.6a2.35,2.35,0,0,1-2.3-2.4h0v-6.8a2.35,2.35,0,0,1,2.3-2.4h8.6a2.35,2.35,0,0,1,2.3,2.4h0v6.8a2.23,2.23,0,0,1-2.3,2.4Z"/><path class="cls-7" d="M1100.5,1199.3h-8.6a2.29,2.29,0,0,1-2.3-2.4v-6.8a2.35,2.35,0,0,1,2.3-2.4h8.6a2.29,2.29,0,0,1,2.3,2.4v6.8A2.29,2.29,0,0,1,1100.5,1199.3Z"/><path class="cls-7" d="M1264,971.2h7a3.16,3.16,0,0,1,3.2,3.2v8.9a3.16,3.16,0,0,1-3.2,3.2h-7a3.16,3.16,0,0,1-3.2-3.2v-8.9A3.16,3.16,0,0,1,1264,971.2Z"/><path class="cls-7" d="M1264,990.8h7a3.16,3.16,0,0,1,3.2,3.2v8.9a3.16,3.16,0,0,1-3.2,3.2h-7a3.16,3.16,0,0,1-3.2-3.2V994A3.16,3.16,0,0,1,1264,990.8Z"/><path class="cls-7" d="M1158.8,559.7v8.8a1.54,1.54,0,0,1-1.6,1.4h-8.6a1.48,1.48,0,0,1-1.6-1.4v-8.8a1.54,1.54,0,0,1,1.6-1.4h8.6A1.62,1.62,0,0,1,1158.8,559.7Z"/><path class="cls-7" d="M1185.9,559.7v8.8a1.54,1.54,0,0,1-1.6,1.4h-8.6a1.48,1.48,0,0,1-1.6-1.4v-8.8a1.54,1.54,0,0,1,1.6-1.4h8.6A1.62,1.62,0,0,1,1185.9,559.7Z"/><path class="cls-7" d="M1048.8,665.1v8.8a1.54,1.54,0,0,1-1.6,1.4h-8.6a1.48,1.48,0,0,1-1.6-1.4v-8.8a1.54,1.54,0,0,1,1.6-1.4h8.6A1.55,1.55,0,0,1,1048.8,665.1Z"/><path class="cls-7" d="M1075.9,665.1v8.8a1.54,1.54,0,0,1-1.6,1.4h-8.6a1.48,1.48,0,0,1-1.6-1.4v-8.8a1.54,1.54,0,0,1,1.6-1.4h8.6A1.62,1.62,0,0,1,1075.9,665.1Z"/><path class="cls-7" d="M1213.6,559.7v8.8a1.54,1.54,0,0,1-1.6,1.4h-8.6a1.48,1.48,0,0,1-1.6-1.4v-8.8a1.54,1.54,0,0,1,1.6-1.4h8.6A1.62,1.62,0,0,1,1213.6,559.7Z"/><path class="cls-7" d="M1240.7,559.7v8.8a1.54,1.54,0,0,1-1.6,1.4h-8.6a1.48,1.48,0,0,1-1.6-1.4v-8.8a1.54,1.54,0,0,1,1.6-1.4h8.6A1.62,1.62,0,0,1,1240.7,559.7Z"/><rect class="cls-7" x="1082.9" y="426.6" width="127" height="127"/><path class="cls-16" d="M1090.9,431.7h110.9a4,4,0,0,1,4,4V544.4a4,4,0,0,1-4,4H1090.9a4,4,0,0,1-4-4V435.7A4.08,4.08,0,0,1,1090.9,431.7Z"/><path class="cls-7" d="M1148.5,407.8h10a2.69,2.69,0,0,1,2.7,2.7v8.2a2.69,2.69,0,0,1-2.7,2.7h-10a2.69,2.69,0,0,1-2.7-2.7v-8.2A2.69,2.69,0,0,1,1148.5,407.8Z"/><path class="cls-7" d="M1128.9,407.8h10a2.69,2.69,0,0,1,2.7,2.7v8.2a2.69,2.69,0,0,1-2.7,2.7h-10a2.69,2.69,0,0,1-2.7-2.7v-8.2A2.69,2.69,0,0,1,1128.9,407.8Z"/><path class="cls-7" d="M1148.5,342.4h10a2.69,2.69,0,0,1,2.7,2.7v8.2a2.69,2.69,0,0,1-2.7,2.7h-10a2.69,2.69,0,0,1-2.7-2.7v-8.2A2.69,2.69,0,0,1,1148.5,342.4Z"/><path class="cls-7" d="M1128.9,342.4h10a2.69,2.69,0,0,1,2.7,2.7v8.2a2.69,2.69,0,0,1-2.7,2.7h-10a2.69,2.69,0,0,1-2.7-2.7v-8.2A2.69,2.69,0,0,1,1128.9,342.4Z"/><path class="cls-7" d="M1128.9,319h10a2.69,2.69,0,0,1,2.7,2.7v8.2a2.69,2.69,0,0,1-2.7,2.7h-10a2.69,2.69,0,0,1-2.7-2.7v-8.2A2.69,2.69,0,0,1,1128.9,319Z"/><path class="cls-7" d="M1104.4,319h10a2.69,2.69,0,0,1,2.7,2.7v8.2a2.69,2.69,0,0,1-2.7,2.7h-10a2.69,2.69,0,0,1-2.7-2.7v-8.2A2.69,2.69,0,0,1,1104.4,319Z"/><path class="cls-7" d="M1294.5,417.8H1306a1.9,1.9,0,0,1,1.9,1.9v9.7a1.9,1.9,0,0,1-1.9,1.9h-11.5a1.9,1.9,0,0,1-1.9-1.9v-9.6A1.86,1.86,0,0,1,1294.5,417.8Z"/><path class="cls-7" d="M1274.8,417.8h11.5a1.9,1.9,0,0,1,1.9,1.9v9.7a1.9,1.9,0,0,1-1.9,1.9h-11.5a1.9,1.9,0,0,1-1.9-1.9v-9.6A2,2,0,0,1,1274.8,417.8Z"/><path class="cls-7" d="M1294.5,368H1306a1.9,1.9,0,0,1,1.9,1.9v9.7a1.9,1.9,0,0,1-1.9,1.9h-11.5a1.9,1.9,0,0,1-1.9-1.9v-9.7A1.84,1.84,0,0,1,1294.5,368Z"/><path class="cls-7" d="M1274.8,368h11.5a1.9,1.9,0,0,1,1.9,1.9v9.7a1.9,1.9,0,0,1-1.9,1.9h-11.5a1.9,1.9,0,0,1-1.9-1.9v-9.7A2,2,0,0,1,1274.8,368Z"/><path class="cls-17" d="M1624.1,1203.4V1226c0,1.7-1.7,3-3.7,3h-14.7c-2,0-3.7-1.3-3.7-3v-22.6c0-1.7,1.7-3,3.7-3h14.7C1622.4,1200.4,1624.1,1201.7,1624.1,1203.4Z"/><path class="cls-17" d="M1570.8,1203.4V1226c0,1.7-1.7,3-3.7,3h-14.7c-2,0-3.7-1.3-3.7-3v-22.6c0-1.7,1.7-3,3.7-3h14.7C1569.2,1200.4,1570.8,1201.7,1570.8,1203.4Z"/><path class="cls-7" d="M1610.2,1228h-46.8c-2,0-3.6-1.3-3.6-2.9v-20.6c0-1.6,1.6-2.9,3.6-2.9h46.9c2,0,3.6,1.3,3.6,2.9v20.6c0,1.6-1.6,2.9-3.7,2.9Z"/><rect class="cls-3" x="1574.4" y="1201.5" width="24.8" height="26.5"/><path class="cls-17" d="M1525,1138.6h-23.1c-1.7,0-3.1-1.7-3.1-3.7v-14.7c0-2,1.4-3.7,3.1-3.7H1525c1.7,0,3.1,1.7,3.1,3.7v14.7C1528.1,1136.9,1526.7,1138.6,1525,1138.6Z"/><path class="cls-17" d="M1525,1085.2h-23.1c-1.7,0-3.1-1.7-3.1-3.7v-14.7c0-2,1.4-3.7,3.1-3.7H1525c1.7,0,3.1,1.7,3.1,3.7v14.7C1528.1,1083.6,1526.7,1085.2,1525,1085.2Z"/><path class="cls-7" d="M1499.9,1124.7v-46.9c0-2,1.3-3.6,3-3.6h21c1.7,0,3,1.6,3,3.6v46.9c0,2-1.3,3.6-3,3.6h-21c-1.6,0-3-1.6-3-3.6Z"/><rect class="cls-3" x="1499.9" y="1088.9" width="27.1" height="24.8"/><path class="cls-17" d="M1522.6,1219.1h-23.1c-1.7,0-3.1-1.7-3.1-3.7v-14.7c0-2,1.4-3.7,3.1-3.7h23.1c1.7,0,3.1,1.7,3.1,3.7v14.7C1525.6,1217.5,1524.2,1219.1,1522.6,1219.1Z"/><path class="cls-17" d="M1522.6,1165.9h-23.1c-1.7,0-3.1-1.7-3.1-3.7v-14.7c0-2.1,1.4-3.7,3.1-3.7h23.1c1.7,0,3.1,1.7,3.1,3.7v14.7C1525.6,1164.2,1524.2,1165.9,1522.6,1165.9Z"/><path class="cls-7" d="M1497.4,1205.3v-46.9c0-2,1.3-3.6,3-3.6h21c1.6,0,3,1.6,3,3.6v46.9c0,2-1.3,3.6-3,3.6h-21c-1.6,0-3-1.6-3-3.6Z"/><rect class="cls-3" x="1497.5" y="1169.5" width="27.1" height="24.8"/><path class="cls-17" d="M1610.7,1175.7h-31.3c-2.3,0-4.2-2.3-4.2-5.2v-20.7c0-2.9,1.9-5.2,4.2-5.2h31.3c2.3,0,4.2,2.3,4.2,5.2v20.8C1614.8,1173.4,1613,1175.7,1610.7,1175.7Z"/><path class="cls-17" d="M1610.7,1100.5h-31.3c-2.3,0-4.2-2.3-4.2-5.2v-20.8c0-2.9,1.9-5.2,4.2-5.2h31.3c2.3,0,4.2,2.3,4.2,5.2v20.8C1614.8,1098.2,1613,1100.5,1610.7,1100.5Z"/><path class="cls-7" d="M1576.6,1156.2V1090c0-2.8,1.8-5.1,4-5.1h28.5c2.2,0,4,2.3,4,5.1v66.2c0,2.8-1.8,5.1-4,5.1h-28.5c-2.2,0-4-2.3-4-5.1Z"/><rect class="cls-3" x="1576.6" y="1105.6" width="36.7" height="35"/><path class="cls-17" d="M1568.5,515.4h26a3.48,3.48,0,0,1,3.5,3.5v13.7a3.48,3.48,0,0,1-3.5,3.5h-26a3.48,3.48,0,0,1-3.5-3.5V518.9A3.54,3.54,0,0,1,1568.5,515.4Z"/><path class="cls-17" d="M1568.5,465.8h26a3.48,3.48,0,0,1,3.5,3.5V483a3.48,3.48,0,0,1-3.5,3.5h-26a3.48,3.48,0,0,1-3.5-3.5V469.3A3.48,3.48,0,0,1,1568.5,465.8Z"/><path class="cls-7" d="M1566.2,523.1V479.4a3.37,3.37,0,0,1,3.4-3.4h23.7a3.37,3.37,0,0,1,3.4,3.4v43.7a3.37,3.37,0,0,1-3.4,3.4h-23.7a3.37,3.37,0,0,1-3.4-3.4Z"/><rect class="cls-3" x="1566.2" y="489.8" width="30.5" height="23.1"/><path class="cls-17" d="M1030.7,532.4h-20.3a2.91,2.91,0,0,1-2.7-3.1V517a2.91,2.91,0,0,1,2.7-3.1h20.3a2.91,2.91,0,0,1,2.7,3.1v12.3a2.91,2.91,0,0,1-2.7,3.1Z"/><path class="cls-17" d="M1030.7,487.8h-20.3a2.91,2.91,0,0,1-2.7-3.1V472.4a2.91,2.91,0,0,1,2.7-3.1h20.3a2.91,2.91,0,0,1,2.7,3.1v12.3A2.91,2.91,0,0,1,1030.7,487.8Z"/><path class="cls-7" d="M1008.6,520.8V481.6a2.87,2.87,0,0,1,2.6-3h18.6a2.87,2.87,0,0,1,2.6,3v39.2a2.87,2.87,0,0,1-2.6,3h-18.6a2.68,2.68,0,0,1-2.6-3Z"/><rect class="cls-3" x="1008.6" y="490.8" width="23.8" height="20.7"/><path class="cls-17" d="M1370.8,1058.8h13.7a3.48,3.48,0,0,1,3.5,3.5v26a3.48,3.48,0,0,1-3.5,3.5h-13.7a3.48,3.48,0,0,1-3.5-3.5v-26A3.54,3.54,0,0,1,1370.8,1058.8Z"/><path class="cls-17" d="M1420.5,1058.8h13.7a3.48,3.48,0,0,1,3.5,3.5v26a3.48,3.48,0,0,1-3.5,3.5h-13.7a3.48,3.48,0,0,1-3.5-3.5v-26A3.54,3.54,0,0,1,1420.5,1058.8Z"/><path class="cls-7" d="M1380.2,1060h43.7a3.37,3.37,0,0,1,3.4,3.4v23.7a3.35,3.35,0,0,1-3.3,3.4h-43.7a3.35,3.35,0,0,1-3.4-3.3h0v-23.7a3.32,3.32,0,0,1,3.3-3.5Z"/><rect class="cls-12" x="1390.5" y="1060" width="23.1" height="30.5"/><path class="cls-17" d="M1229.5,1058.8h13.7a3.48,3.48,0,0,1,3.5,3.5v26a3.48,3.48,0,0,1-3.5,3.5h-13.7a3.48,3.48,0,0,1-3.5-3.5v-26A3.48,3.48,0,0,1,1229.5,1058.8Z"/><path class="cls-17" d="M1279.2,1058.8h13.7a3.48,3.48,0,0,1,3.5,3.5v26a3.48,3.48,0,0,1-3.5,3.5h-13.7a3.48,3.48,0,0,1-3.5-3.5v-26A3.48,3.48,0,0,1,1279.2,1058.8Z"/><path class="cls-7" d="M1238.9,1060h43.7a3.37,3.37,0,0,1,3.4,3.4v23.7a3.37,3.37,0,0,1-3.4,3.4h-43.7a3.35,3.35,0,0,1-3.4-3.3h0v-23.7a3.4,3.4,0,0,1,3.4-3.5Z"/><rect class="cls-12" x="1249.2" y="1060" width="23.1" height="30.5"/><path class="cls-7" d="M1592.6,1266.6h-23.8a3.48,3.48,0,0,1-3.5-3.5h0v-6.5a3.54,3.54,0,0,1,3.5-3.5h23.8a3.54,3.54,0,0,1,3.5,3.5v6.5a3.61,3.61,0,0,1-3.5,3.5Z"/><rect class="cls-3" x="1573.6" y="1253" width="14.1" height="13.5"/><path class="cls-7" d="M1428.9,1131.5h-23.8a3.48,3.48,0,0,1-3.5-3.5h0v-6.5a3.54,3.54,0,0,1,3.5-3.5h23.8a3.54,3.54,0,0,1,3.5,3.5h0v6.5a3.42,3.42,0,0,1-3.5,3.5Z"/><rect class="cls-3" x="1409.9" y="1118" width="14.1" height="13.5"/><path class="cls-7" d="M1444.4,1031.1h-23.8a3.48,3.48,0,0,1-3.5-3.5h0v-6.5a3.54,3.54,0,0,1,3.5-3.5h23.8a3.54,3.54,0,0,1,3.5,3.5h0v6.5a3.48,3.48,0,0,1-3.5,3.5Z"/><rect class="cls-12" x="1425.5" y="1017.6" width="14.1" height="13.5"/><path class="cls-7" d="M1446,1191.8h-23.8a3.54,3.54,0,0,1-3.5-3.5v-6.5a3.54,3.54,0,0,1,3.5-3.5H1446a3.54,3.54,0,0,1,3.5,3.5h0v6.5a3.48,3.48,0,0,1-3.5,3.5Z"/><rect class="cls-3" x="1427.1" y="1178.2" width="14.1" height="13.5"/><path class="cls-7" d="M1446,1235.7h-23.8a3.54,3.54,0,0,1-3.5-3.5h0v-6.5a3.54,3.54,0,0,1,3.5-3.5H1446a3.48,3.48,0,0,1,3.5,3.5h0v6.5a3.48,3.48,0,0,1-3.5,3.5Z"/><rect class="cls-3" x="1427.1" y="1222.2" width="14.1" height="13.5"/><path class="cls-7" d="M1285.5,1172.9h-23.8a3.54,3.54,0,0,1-3.5-3.5v-6.5a3.54,3.54,0,0,1,3.5-3.5h23.8a3.54,3.54,0,0,1,3.5,3.5v6.5a3.48,3.48,0,0,1-3.5,3.5Z"/><rect class="cls-3" x="1266.6" y="1159.4" width="14.1" height="13.5"/><path class="cls-7" d="M1285.5,1198.6h-23.8a3.54,3.54,0,0,1-3.5-3.5h0v-6.5a3.54,3.54,0,0,1,3.5-3.5h23.8a3.54,3.54,0,0,1,3.5,3.5v6.5a3.48,3.48,0,0,1-3.5,3.5Z"/><rect class="cls-3" x="1266.6" y="1185.1" width="14.1" height="13.5"/><path class="cls-7" d="M1052.3,806.3h-26.8a3.69,3.69,0,0,1-3.9-3.5v-6.5a3.76,3.76,0,0,1,3.9-3.5h26.8a3.69,3.69,0,0,1,3.9,3.5v6.5a3.7,3.7,0,0,1-3.9,3.5Z"/><rect class="cls-3" x="1031" y="792.8" width="15.9" height="13.5"/><path class="cls-7" d="M1036,841.7v26.8c0,2.2-1.3,3.9-2.9,3.9h-5.4c-1.6,0-2.9-1.8-2.9-3.9V841.7c0-2.2,1.3-3.9,2.9-3.9h5.4c1.6-.1,2.9,1.7,2.9,3.9Z"/><rect class="cls-12" x="1024.8" y="847.1" width="11.2" height="15.9"/><path class="cls-7" d="M1036,888.5v26.8c0,2.2-1.3,3.9-2.9,3.9h-5.4c-1.6,0-2.9-1.8-2.9-3.9V888.5c0-2.2,1.3-3.9,2.9-3.9h5.4c1.6,0,2.9,1.7,2.9,3.9Z"/><rect class="cls-12" x="1024.8" y="894" width="11.2" height="15.9"/><path class="cls-7" d="M1285.5,1222.9h-23.8a3.54,3.54,0,0,1-3.5-3.5h0v-6.5a3.54,3.54,0,0,1,3.5-3.5h23.8a3.54,3.54,0,0,1,3.5,3.5v6.5a3.48,3.48,0,0,1-3.5,3.5Z"/><rect class="cls-3" x="1266.6" y="1209.4" width="14.1" height="13.5"/><path class="cls-7" d="M1285.5,1248.6h-23.8a3.54,3.54,0,0,1-3.5-3.5v-6.5a3.54,3.54,0,0,1,3.5-3.5h23.8a3.54,3.54,0,0,1,3.5,3.5v6.5a3.48,3.48,0,0,1-3.5,3.5Z"/><rect class="cls-3" x="1266.6" y="1235.1" width="14.1" height="13.5"/><path class="cls-7" d="M1391.6,1309.2v-23.8a3.54,3.54,0,0,1,3.5-3.5h6.5a3.54,3.54,0,0,1,3.5,3.5v23.8a3.54,3.54,0,0,1-3.5,3.5h-6.5a3.54,3.54,0,0,1-3.5-3.5Z"/><rect class="cls-3" x="1391.6" y="1290.2" width="13.5" height="14.1"/><path class="cls-7" d="M1316.4,1146.5v-23.8a3.54,3.54,0,0,1,3.5-3.5h6.5a3.48,3.48,0,0,1,3.5,3.5h0v23.8a3.54,3.54,0,0,1-3.5,3.5h-6.5a3.54,3.54,0,0,1-3.5-3.5Z"/><rect class="cls-3" x="1316.3" y="1127.5" width="13.5" height="14.1"/><path class="cls-7" d="M946.1,1193.9v-23.8a3.48,3.48,0,0,1,3.5-3.5h6.5a3.54,3.54,0,0,1,3.5,3.5v23.8a3.54,3.54,0,0,1-3.5,3.5h-6.5a3.48,3.48,0,0,1-3.5-3.5Z"/><rect class="cls-3" x="946" y="1174.9" width="13.5" height="14.1"/><path class="cls-7" d="M949.9,1140.7v-23.8a3.54,3.54,0,0,1,3.5-3.5h6.5a3.54,3.54,0,0,1,3.5,3.5v23.8a3.54,3.54,0,0,1-3.5,3.5h-6.5a3.48,3.48,0,0,1-3.5-3.5Z"/><rect class="cls-3" x="949.9" y="1121.8" width="13.5" height="14.1"/><path class="cls-7" d="M1070.1,1119.2h-23.8a3.54,3.54,0,0,1-3.5-3.5h0v-6.5a3.54,3.54,0,0,1,3.5-3.5h23.8a3.48,3.48,0,0,1,3.5,3.5h0v6.5a3.54,3.54,0,0,1-3.5,3.5Z"/><rect class="cls-3" x="1051.1" y="1105.7" width="14.1" height="13.5"/><path class="cls-7" d="M1070.1,1097.2h-23.8a3.54,3.54,0,0,1-3.5-3.5h0v-6.5a3.54,3.54,0,0,1,3.5-3.5h23.8a3.48,3.48,0,0,1,3.5,3.5h0v6.6a3.39,3.39,0,0,1-3.5,3.4Z"/><rect class="cls-3" x="1051.1" y="1083.7" width="14.1" height="13.5"/><path class="cls-7" d="M1104.1,1032v23.8a3.54,3.54,0,0,1-3.5,3.5h-6.5a3.54,3.54,0,0,1-3.5-3.5V1032a3.54,3.54,0,0,1,3.5-3.5h6.5a3.48,3.48,0,0,1,3.5,3.5Z"/><rect class="cls-3" x="1090.6" y="1036.9" width="13.5" height="14.1"/><path class="cls-7" d="M1076.6,1032v23.8a3.54,3.54,0,0,1-3.5,3.5h-6.5a3.54,3.54,0,0,1-3.5-3.5V1032a3.54,3.54,0,0,1,3.5-3.5h6.5a3.42,3.42,0,0,1,3.5,3.5Z"/><rect class="cls-3" x="1063.1" y="1036.9" width="13.5" height="14.1"/><path class="cls-7" d="M1374,1017.6h23.8a3.54,3.54,0,0,1,3.5,3.5h0v6.5a3.54,3.54,0,0,1-3.5,3.5H1374a3.54,3.54,0,0,1-3.5-3.5v-6.5a3.48,3.48,0,0,1,3.5-3.5Z"/><rect class="cls-3" x="1378.8" y="1017.6" width="14.1" height="13.5"/><path class="cls-7" d="M1465.2,1115.7v-23.8a3.54,3.54,0,0,1,3.5-3.5h6.5a3.54,3.54,0,0,1,3.5,3.5v23.8a3.54,3.54,0,0,1-3.5,3.5h-6.5a3.61,3.61,0,0,1-3.5-3.5Z"/><rect class="cls-3" x="1465.2" y="1096.7" width="13.5" height="14.1"/><path class="cls-7" d="M1286,1003.6v-27c0-2.2,1.3-3.8,2.8-3.8h6.5c1.6,0,2.8,1.8,2.8,3.8v27c0,2.2-1.3,3.8-2.8,3.8h-6.5C1287.3,1007.5,1286,1005.8,1286,1003.6Z"/><rect class="cls-12" x="1286" y="982.1" width="12.2" height="15.9"/><path class="cls-7" d="M1124.1,589.2v-27c0-2.2,1.3-3.8,2.8-3.8h6.5c1.6,0,2.8,1.8,2.8,3.8v27c0,2.2-1.3,3.8-2.8,3.8h-6.5C1125.4,593,1124.1,591.3,1124.1,589.2Z"/><rect class="cls-12" x="1124.1" y="567.7" width="12.2" height="15.9"/><path class="cls-7" d="M1087.5,589.7v-27c0-2.2,1.3-3.8,2.8-3.8h6.5c1.6,0,2.8,1.8,2.8,3.8v27c0,2.2-1.3,3.9-2.8,3.9h-6.5C1088.7,593.5,1087.5,591.9,1087.5,589.7Z"/><rect class="cls-12" x="1087.4" y="568.2" width="12.2" height="15.9"/><path class="cls-7" d="M1067.2,589.7v-27c0-2.2,1.3-3.8,2.8-3.8h6.5c1.6,0,2.8,1.8,2.8,3.8v27c0,2.2-1.3,3.9-2.8,3.9H1070C1068.5,593.5,1067.2,591.9,1067.2,589.7Z"/><rect class="cls-12" x="1067.1" y="568.2" width="12.2" height="15.9"/><path class="cls-7" d="M1046.9,589.7v-27c0-2.2,1.3-3.8,2.8-3.8h6.5c1.6,0,2.8,1.8,2.8,3.8v27c0,2.2-1.3,3.9-2.8,3.9h-6.5C1048.2,593.5,1046.9,591.9,1046.9,589.7Z"/><rect class="cls-12" x="1046.8" y="568.2" width="12.2" height="15.9"/><path class="cls-7" d="M1026.6,589.7v-27c0-2.2,1.3-3.8,2.8-3.8h6.5c1.6,0,2.8,1.8,2.8,3.8v27c0,2.2-1.3,3.9-2.8,3.9h-6.6C1027.9,593.5,1026.6,591.9,1026.6,589.7Z"/><rect class="cls-12" x="1026.6" y="568.2" width="12.2" height="15.9"/><path class="cls-7" d="M989.4,529.2h-27c-2.2,0-3.8-1.3-3.8-2.8v-6.6c0-1.6,1.8-2.8,3.8-2.8h27c2.2,0,3.8,1.3,3.8,2.8v6.5C993.2,527.9,991.5,529.2,989.4,529.2Z"/><rect class="cls-12" x="967.9" y="517" width="15.9" height="12.2"/><path class="cls-7" d="M1277.9,1029.3h-23.8a3.54,3.54,0,0,1-3.5-3.5v-6.5a3.54,3.54,0,0,1,3.5-3.5h23.8a3.54,3.54,0,0,1,3.5,3.5v6.5a3.48,3.48,0,0,1-3.5,3.5Z"/><rect class="cls-12" x="1259" y="1015.8" width="14.1" height="13.5"/><path class="cls-7" d="M1214.6,1033.4v-23.8a3.54,3.54,0,0,1,3.5-3.5h6.5a3.54,3.54,0,0,1,3.5,3.5v23.8a3.54,3.54,0,0,1-3.5,3.5h-6.5a3.42,3.42,0,0,1-3.5-3.5Z"/><rect class="cls-3" x="1214.5" y="1014.4" width="13.5" height="14.1"/><path class="cls-7" d="M1263.2,948.5V924.7a3.54,3.54,0,0,1,3.5-3.5h6.5a3.54,3.54,0,0,1,3.5,3.5v23.8a3.54,3.54,0,0,1-3.5,3.5h-6.5a3.54,3.54,0,0,1-3.5-3.5Z"/><rect class="cls-3" x="1263.2" y="929.5" width="13.5" height="14.1"/><path class="cls-7" d="M1566,580.5V556.7a3.54,3.54,0,0,1,3.5-3.5h6.5a3.54,3.54,0,0,1,3.5,3.5v23.8a3.54,3.54,0,0,1-3.5,3.5h-6.5a3.54,3.54,0,0,1-3.5-3.5Z"/><rect class="cls-3" x="1566" y="561.5" width="13.5" height="14.1"/><path class="cls-7" d="M1539.2,529.4V505.6a3.54,3.54,0,0,1,3.5-3.5h6.5a3.54,3.54,0,0,1,3.5,3.5v23.8a3.54,3.54,0,0,1-3.5,3.5h-6.5a3.48,3.48,0,0,1-3.5-3.5Z"/><rect class="cls-3" x="1539.2" y="510.4" width="13.5" height="14.1"/><path class="cls-7" d="M1516.6,529.4V505.6a3.48,3.48,0,0,1,3.5-3.5h6.5a3.54,3.54,0,0,1,3.5,3.5v23.8a3.54,3.54,0,0,1-3.5,3.5h-6.5a3.48,3.48,0,0,1-3.5-3.5Z"/><rect class="cls-3" x="1516.5" y="510.4" width="13.5" height="14.1"/><path class="cls-7" d="M1001.2,587.6V563.8a3.54,3.54,0,0,1,3.5-3.5h6.5a3.54,3.54,0,0,1,3.5,3.5v23.8a3.54,3.54,0,0,1-3.5,3.5h-6.5a3.48,3.48,0,0,1-3.5-3.5Z"/><rect class="cls-3" x="1001.2" y="568.6" width="13.5" height="14.1"/><path class="cls-7" d="M1048.9,516.8V493a3.48,3.48,0,0,1,3.5-3.5h6.5a3.54,3.54,0,0,1,3.5,3.5h0v23.8a3.54,3.54,0,0,1-3.5,3.5h-6.5a3.48,3.48,0,0,1-3.5-3.5Z"/><rect class="cls-3" x="1048.9" y="497.8" width="13.5" height="14.1"/><path class="cls-7" d="M1368.4,1309.2v-23.8a3.54,3.54,0,0,1,3.5-3.5h6.5a3.54,3.54,0,0,1,3.5,3.5v23.8a3.54,3.54,0,0,1-3.5,3.5h-6.5a3.54,3.54,0,0,1-3.5-3.5Z"/><rect class="cls-12" x="1368.3" y="1290.2" width="13.5" height="14.1"/><path class="cls-7" d="M1317.1,1311.9v-23.8a3.54,3.54,0,0,1,3.5-3.5h6.5a3.54,3.54,0,0,1,3.5,3.5v23.8a3.54,3.54,0,0,1-3.5,3.5h-6.5a3.48,3.48,0,0,1-3.5-3.5Z"/><rect class="cls-3" x="1317.1" y="1292.9" width="13.5" height="14.1"/><path class="cls-7" d="M1293.9,1311.9v-23.8a3.54,3.54,0,0,1,3.5-3.5h6.5a3.54,3.54,0,0,1,3.5,3.5v23.8a3.48,3.48,0,0,1-3.5,3.5h-6.5a3.48,3.48,0,0,1-3.5-3.5Z"/><rect class="cls-3" x="1293.9" y="1292.9" width="13.5" height="14.1"/><path class="cls-7" d="M1268.8,1311.9v-23.8a3.54,3.54,0,0,1,3.5-3.5h6.5a3.54,3.54,0,0,1,3.5,3.5v23.8a3.54,3.54,0,0,1-3.5,3.5h-6.5a3.48,3.48,0,0,1-3.5-3.5Z"/><rect class="cls-12" x="1268.8" y="1292.9" width="13.5" height="14.1"/><path class="cls-7" d="M1241.6,1320.2v-23.8a3.48,3.48,0,0,1,3.5-3.5h6.5a3.54,3.54,0,0,1,3.5,3.5h0v23.8a3.54,3.54,0,0,1-3.5,3.5h-6.5a3.54,3.54,0,0,1-3.5-3.5Z"/><rect class="cls-3" x="1241.6" y="1301.3" width="13.5" height="14.1"/><path class="cls-11" d="M954.6,1411.8v60a8.24,8.24,0,0,0,8.2,8.2h398.7v-68.2Z"/><path class="cls-11" d="M1609.2,1471.8v-57.6a20,20,0,0,1,.4-2.4H1399.4V1480H1601a8.17,8.17,0,0,0,8.2-8.2Z"/><path class="cls-3" d="M1440.9,1401.8h-6.5s0,4.8-3.9,4.8v61.5c3.9,0,3.9,4.8,3.9,4.8h6.5c0-4.7,3.9-4.8,3.9-4.8v-61.5S1440.9,1406.5,1440.9,1401.8Z"/><path class="cls-3" d="M1461,1401.8h-6.5s0,4.8-3.9,4.8v61.5c3.9,0,3.9,4.8,3.9,4.8h6.5c0-4.7,3.9-4.8,3.9-4.8v-61.5S1461,1406.5,1461,1401.8Z"/><path class="cls-3" d="M1481.1,1401.8h-6.5s0,4.8-3.9,4.8v61.5c3.9,0,3.9,4.8,3.9,4.8h6.5c0-4.7,3.9-4.8,3.9-4.8v-61.5S1481.1,1406.5,1481.1,1401.8Z"/><path class="cls-3" d="M1501.2,1401.8h-6.5s0,4.8-3.9,4.8v61.5c3.9,0,3.9,4.8,3.9,4.8h6.5c0-4.7,3.9-4.8,3.9-4.8v-61.5S1501.2,1406.5,1501.2,1401.8Z"/><path class="cls-3" d="M1521.3,1401.8h-6.5s0,4.8-3.9,4.8v61.5c3.9,0,3.9,4.8,3.9,4.8h6.5c0-4.7,3.9-4.8,3.9-4.8v-61.5S1521.3,1406.5,1521.3,1401.8Z"/><path class="cls-3" d="M1541.4,1401.8h-6.5s0,4.8-3.9,4.8v61.5c3.9,0,3.9,4.8,3.9,4.8h6.5c0-4.7,3.9-4.8,3.9-4.8v-61.5S1541.4,1406.5,1541.4,1401.8Z"/><path class="cls-3" d="M1561.5,1401.8H1555s0,4.8-3.9,4.8v61.5c3.9,0,3.9,4.8,3.9,4.8h6.5c0-4.7,3.9-4.8,3.9-4.8v-61.5S1561.5,1406.5,1561.5,1401.8Z"/><path class="cls-3" d="M1581.6,1401.8h-6.5s0,4.8-3.9,4.8v61.5c3.9,0,3.9,4.8,3.9,4.8h6.5c0-4.7,3.9-4.8,3.9-4.8v-61.5S1581.6,1406.5,1581.6,1401.8Z"/><path class="cls-3" d="M1197.1,1401.8h-6.5s0,4.8-3.9,4.8v61.5c3.9,0,3.9,4.8,3.9,4.8h6.5c0-4.7,3.9-4.8,3.9-4.8v-61.5S1197.1,1406.5,1197.1,1401.8Z"/><path class="cls-3" d="M1217.2,1401.8h-6.5s0,4.8-3.9,4.8v61.5c3.9,0,3.9,4.8,3.9,4.8h6.5c0-4.7,3.9-4.8,3.9-4.8v-61.5S1217.2,1406.5,1217.2,1401.8Z"/><path class="cls-3" d="M1237.2,1401.8h-6.5s0,4.8-3.9,4.8v61.5c3.9,0,3.9,4.8,3.9,4.8h6.5c0-4.7,3.9-4.8,3.9-4.8v-61.5C1241.2,1406.6,1237.2,1406.5,1237.2,1401.8Z"/><path class="cls-3" d="M1257.4,1401.8h-6.5s0,4.8-3.9,4.8v61.5c3.9,0,3.9,4.8,3.9,4.8h6.5c0-4.7,3.9-4.8,3.9-4.8v-61.5S1257.4,1406.5,1257.4,1401.8Z"/><path class="cls-3" d="M1277.5,1401.8H1271s0,4.8-3.9,4.8v61.5c3.9,0,3.9,4.8,3.9,4.8h6.5c0-4.7,3.9-4.8,3.9-4.8v-61.5S1277.5,1406.5,1277.5,1401.8Z"/><path class="cls-3" d="M1297.6,1401.8h-6.5s0,4.8-3.9,4.8v61.5c3.9,0,3.9,4.8,3.9,4.8h6.5c0-4.7,3.9-4.8,3.9-4.8v-61.5S1297.6,1406.5,1297.6,1401.8Z"/><path class="cls-3" d="M1317.6,1401.8h-6.5s0,4.8-3.9,4.8v61.5c3.9,0,3.9,4.8,3.9,4.8h6.5c0-4.7,3.9-4.8,3.9-4.8v-61.5C1321.6,1406.6,1317.6,1406.5,1317.6,1401.8Z"/><path class="cls-3" d="M1337.7,1401.8h-6.5s0,4.8-3.9,4.8v61.5c3.9,0,3.9,4.8,3.9,4.8h6.5c0-4.7,3.9-4.8,3.9-4.8v-61.5S1337.7,1406.5,1337.7,1401.8Z"/><path class="cls-3" d="M1035.2,1401.8h-6.5s0,4.8-3.9,4.8v61.5c3.9,0,3.9,4.8,3.9,4.8h6.5c0-4.7,3.9-4.8,3.9-4.8v-61.5S1035.2,1406.5,1035.2,1401.8Z"/><path class="cls-3" d="M1014.3,1401.8h-6.5s0,4.8-3.9,4.8v61.5c3.9,0,3.9,4.8,3.9,4.8h6.5c0-4.7,3.9-4.8,3.9-4.8v-61.5S1014.3,1406.5,1014.3,1401.8Z"/><path class="cls-3" d="M994,1401.8h-6.6s0,4.8-3.9,4.8v61.5c3.9,0,3.9,4.8,3.9,4.8h6.5c0-4.7,3.9-4.8,3.9-4.8v-61.5S994,1406.5,994,1401.8Z"/><path class="cls-3" d="M1055.3,1401.8h-6.5s-.1,4.8-3.9,4.8v61.5c3.9,0,3.9,4.8,3.9,4.8h6.5c0-4.7,3.9-4.8,3.9-4.8v-61.5S1055.3,1406.5,1055.3,1401.8Z"/><path class="cls-3" d="M1075.4,1401.8h-6.5s0,4.8-3.9,4.8v61.5c3.9,0,3.9,4.8,3.9,4.8h6.5c0-4.7,3.9-4.8,3.9-4.8v-61.5S1075.4,1406.5,1075.4,1401.8Z"/><path class="cls-3" d="M1095.5,1401.8H1089s0,4.8-3.9,4.8v61.5c3.9,0,3.9,4.8,3.9,4.8h6.5c0-4.7,3.9-4.8,3.9-4.8v-61.5S1095.5,1406.5,1095.5,1401.8Z"/><path class="cls-3" d="M1115.6,1401.8h-6.5s0,4.8-3.9,4.8v61.5c3.9,0,3.9,4.8,3.9,4.8h6.5c0-4.7,3.9-4.8,3.9-4.8v-61.5S1115.6,1406.5,1115.6,1401.8Z"/><path class="cls-3" d="M1135.7,1401.8h-6.5s0,4.8-3.9,4.8v61.5c3.9,0,3.9,4.8,3.9,4.8h6.5c0-4.7,3.9-4.8,3.9-4.8v-61.5S1135.7,1406.5,1135.7,1401.8Z"/><path class="cls-3" d="M1155.8,1401.8h-6.5s0,4.8-3.9,4.8v61.5c3.9,0,3.9,4.8,3.9,4.8h6.5c0-4.7,3.9-4.8,3.9-4.8v-61.5S1155.8,1406.5,1155.8,1401.8Z"/><path class="cls-3" d="M1175.9,1401.8h-6.5s0,4.8-3.9,4.8v61.5c3.9,0,3.9,4.8,3.9,4.8h6.5c0-4.7,3.9-4.8,3.9-4.8v-61.5S1175.9,1406.5,1175.9,1401.8Z"/><path class="cls-7" d="M1564.2,955.6h6c1.3,0,2.5,2,2.5,4.3v20.5c0,2.4-1.1,4.3-2.5,4.3h-6c-1.3,0-2.5-1.9-2.5-4.3V959.9C1561.7,957.5,1562.9,955.6,1564.2,955.6Z"/><path class="cls-7" d="M1548.4,955.6h6c1.3,0,2.5,2,2.5,4.3v20.5c0,2.4-1.1,4.3-2.5,4.3h-6c-1.3,0-2.5-1.9-2.5-4.3V959.9C1546,957.5,1547.1,955.6,1548.4,955.6Z"/><path class="cls-7" d="M1532.6,955.6h6c1.3,0,2.5,2,2.5,4.3v20.5c0,2.4-1.1,4.3-2.5,4.3h-6c-1.3,0-2.5-1.9-2.5-4.3V959.9C1530.2,957.5,1531.3,955.6,1532.6,955.6Z"/><path class="cls-7" d="M1516.8,955.6h6c1.3,0,2.5,2,2.5,4.3v20.5c0,2.4-1.1,4.3-2.5,4.3h-6c-1.3,0-2.5-1.9-2.5-4.3V959.9C1514.4,957.5,1515.5,955.6,1516.8,955.6Z"/><path class="cls-7" d="M1564.2,1012.1h6c1.3,0,2.5,2.4,2.5,5.2v24.8c0,2.9-1.1,5.2-2.5,5.2h-6c-1.3,0-2.5-2.4-2.5-5.2v-24.8C1561.7,1014.5,1562.9,1012.1,1564.2,1012.1Z"/><path class="cls-7" d="M1548.4,1012.1h6c1.3,0,2.5,2.4,2.5,5.2v24.8c0,2.9-1.1,5.2-2.5,5.2h-6c-1.3,0-2.5-2.4-2.5-5.2v-24.8C1546,1014.5,1547.1,1012.1,1548.4,1012.1Z"/><path class="cls-7" d="M1532.6,1012.1h6c1.3,0,2.5,2.4,2.5,5.2v24.8c0,2.9-1.1,5.2-2.5,5.2h-6c-1.3,0-2.5-2.4-2.5-5.2v-24.8C1530.2,1014.5,1531.3,1012.1,1532.6,1012.1Z"/><path class="cls-7" d="M1516.8,1012.1h6c1.3,0,2.5,2.4,2.5,5.2v24.8c0,2.9-1.1,5.2-2.5,5.2h-6c-1.3,0-2.5-2.4-2.5-5.2v-24.8C1514.4,1014.5,1515.5,1012.1,1516.8,1012.1Z"/><rect class="cls-13" x="1510.4" y="971.3" width="66.1" height="58.4"/><g class="cls-10"><path class="cls-4" d="M1326.9,431.3c.3,3.3,3,5.2,6.2,5.2,5,0,7.4-4.3,7.7-13.2l-.1-.1a8.89,8.89,0,0,1-7.9,4.7c-7,0-10.8-4.7-10.8-11.4,0-6.5,4.6-11.1,11.2-11.1,6.3,0,11.7,3.4,11.7,16.3,0,11.8-3.6,18.3-11.8,18.3-5.7,0-9.8-2.9-10.3-8.8l4.1.1Zm6.2-22.3c-4.8,0-6.7,3.9-6.7,8.1,0,3.7,2.8,7.2,6.7,7.2,4.3,0,7-3.5,7-7.5C1340.1,412.6,1337.6,409,1333.1,409Z"/><path class="cls-4" d="M1364.2,439.5h-4.1V415.1h-8.8v-3.3c4.7,0,8.9-1.2,9.8-6.4h3.1Z"/><path class="cls-4" d="M1396.4,409.6h-13.7l-1.8,9.8.1.1a8.44,8.44,0,0,1,6.3-2.4c6,0,11,3.8,11,11.7,0,5.8-4,11.3-11.9,11.3-5.9,0-10.7-3.6-10.8-9.7h4.1c.2,3.5,3.1,6.1,7.2,6.1,3.9,0,7.2-2.7,7.2-8.1a7.35,7.35,0,0,0-7.7-7.7,8,8,0,0,0-6.3,3.2l-3.5-.2,3.2-17.7h16.8v3.6Z"/><path class="cls-4" d="M1404.4,405.2h6.2l10.8,28.8,10.8-28.8h6.2v34.3h-4.3V411h-.1l-10.7,28.5h-3.9L1408.7,411h-.1v28.5h-4.3l.1-34.3Z"/><path class="cls-4" d="M1446.1,405.2h4.6v14.7h18V405.2h4.6v34.3h-4.6V423.8h-18v15.7h-4.6Z"/><path class="cls-4" d="M1478,436.3l15-18.1h-14v-3.6h19.3v2.8l-15.2,18.4h15.8v3.6H1478v-3.1Z"/></g><g class="cls-10"><path class="cls-4" d="M1333.6,452.3c7.4,0,10.3,4.3,10.3,8.7a7.88,7.88,0,0,1-4.7,7.1c4.1,1.3,6,4.3,6,8.5,0,6.6-5,10.4-11.3,10.4-6.5,0-11.6-3.5-11.6-10.4a8.5,8.5,0,0,1,6-8.5,7.71,7.71,0,0,1-4.8-7.1C1323.6,455.4,1328.3,452.3,1333.6,452.3Zm.3,31c4.1,0,7-2.8,7-6.6a6.8,6.8,0,0,0-7-6.5c-4,0-7.2,2.5-7.2,6.5S1329.7,483.3,1333.9,483.3Zm0-16.7c3.3,0,5.6-2,5.6-5.5s-2.4-5.2-5.7-5.2-6,1.8-6,5.2C1327.9,464.8,1330.6,466.6,1333.9,466.6Z"/><path class="cls-4" d="M1367,461a5.39,5.39,0,0,0-5.7-5.1c-6.9,0-8.1,7.7-8.3,12.9l.1.1a9.28,9.28,0,0,1,8.5-4.5c6.5,0,10.4,4.8,10.4,11,0,5-2.8,11.4-11.4,11.4-10.1,0-11.7-9.3-11.7-16.4,0-9.4,2.8-18.2,12.5-18.2,5.6,0,9.1,3.1,9.6,8.7l-4,.1Zm-13.2,14.7c0,4.2,2.6,7.6,7.1,7.6s6.9-3.5,6.9-7.5c0-4.2-2.2-7.7-6.9-7.7S1353.8,471.5,1353.8,475.7Z"/><path class="cls-4" d="M1380.3,478.1c.3,3.3,3,5.2,6.2,5.2,5,0,7.4-4.3,7.7-13.2l-.1-.1a8.89,8.89,0,0,1-7.9,4.7c-7,0-10.8-4.7-10.8-11.4,0-6.5,4.6-11.1,11.2-11.1,6.3,0,11.7,3.4,11.7,16.3,0,11.8-3.6,18.3-11.8,18.3-5.7,0-9.8-2.9-10.3-8.8l4.1.1Zm6.2-22.2c-4.8,0-6.7,3.9-6.7,8.1,0,3.7,2.8,7.2,6.7,7.2,4.3,0,7-3.5,7-7.5C1393.5,459.5,1391,455.9,1386.5,455.9Z"/><path class="cls-4" d="M1404.4,452.1h6.2l10.8,28.8,10.8-28.8h6.2v34.3h-4.3V457.8h-.1l-10.7,28.5h-3.9l-10.7-28.5h-.1v28.5h-4.3l.1-34.2Z"/><path class="cls-4" d="M1446.1,452.1h4.6v14.7h18V452.1h4.6v34.3h-4.6V470.7h-18v15.7h-4.6Z"/><path class="cls-4" d="M1478,483.2l15-18.1h-14v-3.6h19.3v2.8l-15.2,18.4h15.8v3.6H1478v-3.1Z"/></g><g class="cls-10"><path class="cls-4" d="M1344,320.4c-.5-4.9-3.7-7-8.5-7-3.9,0-7.7,1.4-7.7,5.9,0,8.4,21.9,2.5,21.9,16,0,7.3-7.2,10.2-13.4,10.2-7.7,0-14.2-3.8-14.2-12.1h4.3c0,5.8,4.8,8.3,10,8.3,4.1,0,8.7-1.3,8.7-6.2,0-9.4-21.9-3.2-21.9-15.8,0-6.9,6.1-10,12.4-10,7,0,12.4,3.3,12.6,10.8H1344v-.1Z"/><path class="cls-4" d="M1363.5,327l-11.3-16.7h5.5l8.5,13.4,8.9-13.4h5.1L1368.9,327l12,17.6h-5.6l-9.2-14.2-9.5,14.2h-5.1Z"/><path class="cls-4" d="M1398,344.6h-4.1V320.2h-8.8v-3.3c4.7,0,8.9-1.2,9.8-6.4h3.1Z"/><path class="cls-4" d="M1418,325.2h1.8c3.5,0,6.5-1.9,6.5-5.6s-2.6-5.5-6-5.5c-4.4,0-6.4,3.4-6.4,7.4h-4.1c.2-6.5,3.7-11,10.5-11,5.9,0,10.4,2.8,10.4,9.1a7.8,7.8,0,0,1-4.7,6.8v.1c4.2.9,6.1,4.2,6.1,8.3,0,6.8-5.3,10.4-11.7,10.4-6.9,0-11.5-4-11.3-11.1h4.1c.1,4.4,2.6,7.5,7.2,7.5,4,0,7.4-2.5,7.4-6.6,0-4.3-3.2-6.5-7.2-6.5a17.72,17.72,0,0,0-2.4.1v-3.4Z"/><path class="cls-4" d="M1447.6,310.6c10.7,0,11.3,9.8,11.3,17.3s-.7,17.3-11.3,17.3-11.3-9.8-11.3-17.3S1437,310.6,1447.6,310.6Zm0,31c7,0,7-8.6,7-13.7s0-13.7-7-13.7-7,8.6-7,13.7S1440.7,341.6,1447.6,341.6Z"/><path class="cls-4" d="M1471.4,325.2h1.8c3.5,0,6.5-1.9,6.5-5.6s-2.6-5.5-6-5.5c-4.4,0-6.4,3.4-6.4,7.4h-4.1c.2-6.5,3.7-11,10.5-11,5.9,0,10.4,2.8,10.4,9.1a7.8,7.8,0,0,1-4.7,6.8v.1c4.2.9,6.1,4.2,6.1,8.3,0,6.8-5.3,10.4-11.7,10.4-6.9,0-11.5-4-11.3-11.1h4.1c.1,4.4,2.6,7.5,7.2,7.5,4,0,7.4-2.5,7.4-6.6,0-4.3-3.2-6.5-7.2-6.5a17.72,17.72,0,0,0-2.4.1v-3.4Z"/></g><g class="cls-10"><path class="cls-4" d="M1344,366.7c-.5-4.9-3.7-7-8.5-7-3.9,0-7.7,1.4-7.7,5.9,0,8.4,21.9,2.5,21.9,16,0,7.3-7.2,10.2-13.4,10.2-7.7,0-14.2-3.8-14.2-12.1h4.3c0,5.8,4.8,8.3,10,8.3,4.1,0,8.7-1.3,8.7-6.2,0-9.4-21.9-3.2-21.9-15.8,0-6.9,6.1-10,12.4-10,7,0,12.4,3.3,12.6,10.8H1344v-.1Z"/><path class="cls-4" d="M1363.5,373.4l-11.3-16.7h5.5l8.5,13.4,8.9-13.4h5.1l-11.3,16.7,12,17.6h-5.6l-9.2-14.2-9.5,14.2h-5.1Z"/><path class="cls-4" d="M1398,391h-4.1V366.6h-8.8v-3.3c4.7,0,8.9-1.2,9.8-6.4h3.1Z"/><path class="cls-4" d="M1418,371.5h1.8c3.5,0,6.5-1.9,6.5-5.6s-2.6-5.5-6-5.5c-4.4,0-6.4,3.4-6.4,7.4h-4.1c.2-6.5,3.7-11,10.5-11,5.9,0,10.4,2.8,10.4,9.1a7.8,7.8,0,0,1-4.7,6.8v.1c4.2.9,6.1,4.2,6.1,8.3,0,6.8-5.3,10.4-11.7,10.4-6.9,0-11.5-4-11.3-11.1h4.1c.1,4.4,2.6,7.5,7.2,7.5,4,0,7.4-2.5,7.4-6.6,0-4.3-3.2-6.5-7.2-6.5a17.72,17.72,0,0,0-2.4.1v-3.4Z"/><path class="cls-4" d="M1447.6,356.9c10.7,0,11.3,9.8,11.3,17.3s-.7,17.3-11.3,17.3-11.3-9.8-11.3-17.3S1437,356.9,1447.6,356.9Zm0,31.1c7,0,7-8.6,7-13.7s0-13.7-7-13.7-7,8.6-7,13.7S1440.7,388,1447.6,388Z"/><path class="cls-4" d="M1463.1,369c-.4-6.9,3.7-12,10.9-12,5.9,0,10.7,3.5,10.7,9.8,0,6-4,9-8.3,11.7-4.2,2.5-8.8,4.8-9.6,9h17.5v3.6h-22.2c.6-8,4.8-11,9.6-13.9,5.8-3.6,8.7-5.6,8.7-10.4,0-3.7-3-6.1-6.6-6.1-4.8,0-6.8,4.4-6.6,8.4l-4.1-.1Z"/></g><line class="cls-18" x1="229.2" y1="176.8" x2="229.2" y2="80"/><polygon class="cls-12" points="233.7 175.4 229.2 183.2 224.7 175.4 233.7 175.4"/><path class="cls-12" d="M232.6,80.2a3.4,3.4,0,1,0-3.4,3.4h0a3.5,3.5,0,0,0,3.4-3.4Z"/><g class="cls-10"><path class="cls-12" d="M122.5.5h3.3V22.4h13.1v2.8H122.6V.5Z"/><path class="cls-12" d="M148.9,6.9c5.7,0,8.7,4.1,8.7,9.4s-3,9.3-8.7,9.3-8.7-4.1-8.7-9.3S143.3,6.9,148.9,6.9Zm0,16.1c3.1,0,5.6-2.4,5.6-6.7s-2.5-6.8-5.6-6.8-5.6,2.5-5.6,6.8S145.9,23,148.9,23Z"/><path class="cls-12" d="M161.5.5h11.6c4.7,0,7.5,2.5,7.5,6.5,0,3-1.3,5.4-4.3,6.3v.1c2.9.6,3.4,2.7,3.7,5.1s.1,5.1,1.5,6.8h-3.7c-.9-1-.4-3.7-.9-6.1s-.9-4.5-4.1-4.5h-8V25.2h-3.3V.5Zm10.2,11.4c3,0,5.7-.8,5.7-4.4,0-2.5-1.3-4.2-4.4-4.2h-8.2v8.6Z"/><path class="cls-12" d="M200.5,25.1a4.06,4.06,0,0,1-2.1.5c-1.5,0-2.5-.8-2.5-2.8a7.93,7.93,0,0,1-6.3,2.8c-3.2,0-5.9-1.4-5.9-5,0-4,3-4.9,6-5.5,3.2-.7,6-.4,6-2.6,0-2.6-2.1-3-4-3-2.5,0-4.3.8-4.5,3.4h-2.8c.2-4.4,3.6-6,7.6-6,3.2,0,6.7.7,6.7,4.9V21c0,1.4,0,2,.9,2a2.92,2.92,0,0,0,.9-.2ZM195.8,16c-2.3,1.7-8.9,0-8.9,4.4,0,1.9,1.7,2.6,3.5,2.6,3.9,0,5.5-2.4,5.5-4V16Z"/><path class="cls-12" d="M220,.5h3.6l9.6,24.7h-3.6l-2.7-7.4H216.5l-2.8,7.4h-3.3ZM217.6,15H226L221.9,3.5h-.1Z"/><path class="cls-12" d="M235.2,7.3H238v2.8h.1a6.11,6.11,0,0,1,5.8-3.2c4.7,0,6.1,2.7,6.1,6.5V25.1h-2.9V13a3.36,3.36,0,0,0-3.6-3.6c-3.6,0-5.3,2.4-5.3,5.6V25.1h-2.9V7.3Z"/><path class="cls-12" d="M258.5,7.3h3.6V9.9h-3.6V21c0,1.4.4,1.6,2.2,1.6H262v2.6h-2.2c-3,0-4.2-.6-4.2-3.9V9.9h-3V7.3h3V1.9h2.9V7.3Z"/><path class="cls-12" d="M280.6,19.5c-.8,4-3.6,6.1-7.6,6.1-5.7,0-8.4-4-8.6-9.4,0-5.4,3.5-9.3,8.4-9.3,6.3,0,8.3,5.9,8.1,10.2H267.5c-.1,3.1,1.7,5.9,5.6,5.9,2.5,0,4.1-1.1,4.6-3.5Zm-2.9-4.9a5.1,5.1,0,0,0-10.2,0Z"/><path class="cls-12" d="M283.9,7.3h2.8v2.8h.1a6.11,6.11,0,0,1,5.8-3.2c4.7,0,6.1,2.7,6.1,6.5V25.1h-2.9V13a3.36,3.36,0,0,0-3.6-3.6c-3.6,0-5.3,2.4-5.3,5.6V25.1H284V7.3Z"/><path class="cls-12" d="M303.1,7.3h2.8v2.8h.1a6.11,6.11,0,0,1,5.8-3.2c4.7,0,6.1,2.7,6.1,6.5V25.1H315V13a3.36,3.36,0,0,0-3.6-3.6c-3.6,0-5.3,2.4-5.3,5.6V25.1h-2.9V7.3Z"/><path class="cls-12" d="M338.1,25.1a4.06,4.06,0,0,1-2.1.5c-1.5,0-2.5-.8-2.5-2.8a7.93,7.93,0,0,1-6.3,2.8c-3.2,0-5.9-1.4-5.9-5,0-4,3-4.9,6-5.5,3.2-.7,6-.4,6-2.6,0-2.6-2.1-3-4-3-2.5,0-4.3.8-4.5,3.4h-2.9c.2-4.4,3.6-6,7.6-6,3.2,0,6.7.7,6.7,4.9V21c0,1.4,0,2,.9,2a2.92,2.92,0,0,0,.9-.2l.1,2.3ZM333.3,16c-2.3,1.7-8.9,0-8.9,4.4,0,1.9,1.7,2.6,3.5,2.6,3.9,0,5.5-2.4,5.5-4V16Z"/></g><g class="cls-10"><path class="cls-12" d="M198.7,36.5h10.8c4.9,0,7.6,2.7,7.6,7.3s-2.6,7.3-7.6,7.3H202V61.2h-3.3ZM202,48.4h6.4c3.7,0,5.4-1.6,5.4-4.5s-1.7-4.5-5.4-4.5H202Z"/><path class="cls-12" d="M228.3,42.9c5.7,0,8.7,4.1,8.7,9.4s-3,9.3-8.7,9.3-8.7-4.1-8.7-9.3S222.7,42.9,228.3,42.9Zm0,16.1c3.1,0,5.6-2.4,5.6-6.7s-2.5-6.8-5.6-6.8-5.6,2.5-5.6,6.8S225.3,59,228.3,59Z"/></g><g class="cls-10"><path class="cls-12" d="M240.4,43.3h2.8v3.8h.1c1.4-2.9,3.4-4.3,6.6-4.2V46c-4.7,0-6.5,2.7-6.5,7.2v7.9h-3Z"/><path class="cls-12" d="M257.8,43.3h3.6v2.6h-3.6V57c0,1.4.4,1.6,2.2,1.6h1.3v2.6h-2.2c-3,0-4.2-.6-4.2-3.9V45.9h-3V43.3h3V37.9h2.9v5.4Z"/></g><line class="cls-18" x1="533.6" y1="176.8" x2="533.6" y2="80"/><polygon class="cls-12" points="538.1 175.4 533.6 183.2 529.1 175.4 538.1 175.4"/><path class="cls-12" d="M537,80.2a3.4,3.4,0,1,0-3.4,3.4h0a3.5,3.5,0,0,0,3.4-3.4Z"/><g class="cls-10"><path class="cls-12" d="M450.5,22.1a9.65,9.65,0,0,1-7.9,3.7c-7.4,0-11.7-6-11.7-12.4,0-7.2,3.9-13.4,11.7-13.4,5.4,0,9.7,2.4,10.6,8.2h-3.3c-.7-3.7-3.6-5.4-7.3-5.4-6,0-8.5,5.2-8.5,10.5,0,5.1,3,9.8,8.5,9.8,5.1,0,8.1-3.5,7.9-8h-7.9V12.3h10.8v13h-2.1Z"/><path class="cls-12" d="M458.3.5h10.8c4.9,0,7.6,2.7,7.6,7.3s-2.6,7.3-7.6,7.3h-7.5V25.2h-3.3Zm3.2,11.9h6.4c3.7,0,5.4-1.6,5.4-4.5s-1.7-4.5-5.4-4.5h-6.4Z"/><path class="cls-12" d="M494.9,7.8c-.4-3.6-2.7-5-6.1-5-2.8,0-5.5,1-5.5,4.2,0,6.1,15.8,1.8,15.8,11.5,0,5.3-5.1,7.4-9.6,7.4-5.5,0-10.2-2.7-10.2-8.7h3.1c0,4.1,3.5,5.9,7.2,5.9,3,0,6.3-.9,6.3-4.5,0-6.8-15.8-2.3-15.8-11.4,0-5,4.4-7.2,8.9-7.2,5,0,8.9,2.4,9.1,7.8Z"/><path class="cls-12" d="M519.3.5h3.6l9.6,24.7h-3.6l-2.7-7.4H515.8L513,25.2h-3.4ZM516.9,15h8.4L521.2,3.5h-.1Z"/><path class="cls-12" d="M534.5,7.3h2.8v2.8h.1a6.11,6.11,0,0,1,5.8-3.2c4.7,0,6.1,2.7,6.1,6.5V25.1h-2.9V13a3.36,3.36,0,0,0-3.6-3.6c-3.6,0-5.3,2.4-5.3,5.6V25.1h-2.9V7.3Z"/><path class="cls-12" d="M557.8,7.3h3.6V9.9h-3.6V21c0,1.4.4,1.6,2.2,1.6h1.3v2.6h-2.2c-3,0-4.2-.6-4.2-3.9V9.9h-3V7.3h3V1.9h2.9Z"/><path class="cls-12" d="M579.8,19.5c-.8,4-3.6,6.1-7.6,6.1-5.7,0-8.4-4-8.6-9.4,0-5.4,3.5-9.3,8.4-9.3,6.3,0,8.3,5.9,8.1,10.2H566.7c-.1,3.1,1.7,5.9,5.6,5.9,2.5,0,4.1-1.1,4.6-3.5ZM577,14.6a5.1,5.1,0,0,0-10.2,0Z"/><path class="cls-12" d="M583.1,7.3h2.8v2.8h.1a6.11,6.11,0,0,1,5.8-3.2c4.7,0,6.1,2.7,6.1,6.5V25.1H595V13a3.36,3.36,0,0,0-3.6-3.6c-3.6,0-5.3,2.4-5.3,5.6V25.1h-2.9l-.1-17.8Z"/><path class="cls-12" d="M602.3,7.3h2.8v2.8h.1A6.11,6.11,0,0,1,611,6.9c4.7,0,6.1,2.7,6.1,6.5V25.1h-2.9V13a3.36,3.36,0,0,0-3.6-3.6c-3.6,0-5.3,2.4-5.3,5.6V25.1h-2.9l-.1-17.8Z"/><path class="cls-12" d="M637.4,25.1a4.06,4.06,0,0,1-2.1.5c-1.5,0-2.5-.8-2.5-2.8a7.93,7.93,0,0,1-6.3,2.8c-3.2,0-5.9-1.4-5.9-5,0-4,3-4.9,6-5.5,3.2-.7,6-.4,6-2.6,0-2.6-2.1-3-4-3-2.5,0-4.3.8-4.5,3.4h-2.9c.2-4.4,3.6-6,7.6-6,3.2,0,6.7.7,6.7,4.9V21c0,1.4,0,2,.9,2a2.92,2.92,0,0,0,.9-.2l.1,2.3ZM632.6,16c-2.3,1.7-8.9,0-8.9,4.4,0,1.9,1.7,2.6,3.5,2.6,3.9,0,5.5-2.4,5.5-4l-.1-3Z"/></g><g class="cls-10"><path class="cls-12" d="M503.1,36.5h10.8c4.9,0,7.6,2.7,7.6,7.3s-2.6,7.3-7.6,7.3h-7.5V61.2h-3.3Zm3.3,11.9h6.4c3.7,0,5.4-1.6,5.4-4.5s-1.7-4.5-5.4-4.5h-6.4Z"/><path class="cls-12" d="M532.7,42.9c5.7,0,8.7,4.1,8.7,9.4s-3,9.3-8.7,9.3-8.7-4.1-8.7-9.3S527.1,42.9,532.7,42.9Zm0,16.1c3.1,0,5.6-2.4,5.6-6.7s-2.5-6.8-5.6-6.8-5.6,2.5-5.6,6.8S529.7,59,532.7,59Z"/></g><g class="cls-10"><path class="cls-12" d="M544.8,43.3h2.8v3.8h.1c1.4-2.9,3.4-4.3,6.6-4.2V46c-4.7,0-6.5,2.7-6.5,7.2v7.9h-2.9l-.1-17.8Z"/><path class="cls-12" d="M562.2,43.3h3.6v2.6h-3.6V57c0,1.4.4,1.6,2.2,1.6h1.3v2.6h-2.2c-3,0-4.2-.6-4.2-3.9V45.9h-3V43.3h3V37.9h2.9Z"/></g><path class="cls-4" d="M1077.68,214.32H1097c7.76,0,12.47,4.14,12.47,10.75,0,5-2.13,9-7.13,10.4v.12c4.77.92,5.69,4.48,6.15,8.45.29,4,.12,8.56,2.42,11.32h-6.1c-1.55-1.67-.69-6.09-1.49-10.11-.63-4-1.55-7.42-6.84-7.42h-13.34v17.53h-5.46Zm16.85,18.91c5,0,9.48-1.32,9.48-7.3,0-4.08-2.19-7-7.3-7h-13.57v14.31Z"/><path class="cls-4" d="M1128.21,214.32h6l16,41h-6L1139.77,243h-17.36l-4.6,12.36h-5.63Zm-4.08,24.09H1138l-6.84-19.15h-.11Z"/><path class="cls-4" d="M1154.31,214.32h5.46v20.46l20.81-20.46h7.07l-17.3,16.56,18,24.48h-6.9l-14.83-20.75-6.84,6.38v14.37h-5.46Z"/><path class="cls-4" d="M1215.19,219.61h-16.44l-2.18,11.73.11.11c1.78-2,4.83-2.93,7.59-2.93,7.24,0,13.16,4.6,13.16,14,0,6.89-4.77,13.56-14.25,13.56-7.07,0-12.82-4.31-13-11.67h4.88c.29,4.2,3.68,7.36,8.57,7.36,4.65,0,8.62-3.22,8.62-9.66a8.83,8.83,0,0,0-9.2-9.25,9.7,9.7,0,0,0-7.59,3.85l-4.19-.23,3.79-21.15h20.12Z"/><path class="cls-4" d="M1240.6,255.36h-4.89v-29.2h-10.57v-3.91c5.57,0,10.63-1.43,11.72-7.64h3.74Z"/><path class="cls-4" d="M1276.18,241.51h5.52v4.31h-5.52v9.54h-4.6v-9.54h-17.87v-4.71l18.57-26.5h3.9Zm-4.6,0V221.56h-.11l-13.56,19.95Z"/><path class="cls-4" d="M1307.86,225a6.49,6.49,0,0,0-6.84-6.09c-8.28,0-9.72,9.2-9.89,15.46l.12.12c2.3-3.74,5.74-5.35,10.17-5.35,7.82,0,12.47,5.69,12.47,13.22,0,6-3.33,13.68-13.62,13.68-12.13,0-14-11.09-14-19.6,0-11.21,3.39-21.84,15-21.84,6.72,0,10.86,3.73,11.49,10.4Zm-15.81,17.65c0,5.06,3.11,9.08,8.45,9.08s8.22-4.2,8.22-9c0-5.06-2.64-9.26-8.22-9.26S1292.05,237.54,1292.05,242.66Z"/><path class="cls-4" d="M1352.64,255.36h-6.21l-14.48-41h5.92l11.73,35.58h.11l11.84-35.58h5.69Z"/><path class="cls-4" d="M1396.16,245.94c-1.32,6.61-6,10.11-12.7,10.11-9.49,0-14-6.61-14.26-15.63,0-9,5.86-15.46,14-15.46,10.52,0,13.74,9.82,13.45,17h-22.25c-.17,5.17,2.76,9.77,9.26,9.77,4.08,0,6.84-1.9,7.7-5.8Zm-4.71-8.28c-.29-4.66-3.68-8.39-8.57-8.39-5.06,0-8.22,3.79-8.51,8.39Z"/><path class="cls-4" d="M1401.51,225.64h4.6v6.27h.11c2.36-4.83,5.63-7.13,10.92-6.95v5.17c-7.87,0-10.75,4.42-10.75,12v13.22h-4.88Z"/><path class="cls-4" d="M1437.9,249h6.38v6.38h-6.38Z"/><path class="cls-4" d="M1464.74,214.32h6l16,41h-6L1476.29,243h-17.35l-4.6,12.36h-5.64Zm-4.08,24.09h13.91l-6.84-19.15h-.11Z"/><line class="cls-18" x1="1147" y1="183.2" x2="1147" y2="80"/><path class="cls-12" d="M1150.4,80.2a3.4,3.4,0,1,0-3.4,3.4,3.44,3.44,0,0,0,3.4-3.4Z"/><g class="cls-10"><path class="cls-12" d="M1132.6,55.7a9.65,9.65,0,0,1-7.9,3.7c-7.4,0-11.7-6-11.7-12.4,0-7.2,3.9-13.4,11.7-13.4,5.4,0,9.7,2.4,10.6,8.2H1132c-.7-3.7-3.6-5.4-7.3-5.4-6,0-8.5,5.2-8.5,10.5,0,5.1,3,9.8,8.5,9.8,5.1,0,8.1-3.5,7.9-8h-7.9V45.8h10.8v13h-2.1Z"/><path class="cls-12" d="M1140.4,34.1h10.8c4.9,0,7.6,2.7,7.6,7.3s-2.6,7.3-7.6,7.3h-7.5V58.8h-3.3Zm3.3,11.8h6.4c3.7,0,5.4-1.6,5.4-4.5s-1.7-4.5-5.4-4.5h-6.4Z"/><path class="cls-12" d="M1177,41.3c-.4-3.6-2.7-5-6.1-5-2.8,0-5.5,1-5.5,4.2,0,6.1,15.8,1.8,15.8,11.5,0,5.3-5.1,7.4-9.6,7.4-5.5,0-10.2-2.7-10.2-8.7h3.1c0,4.1,3.5,5.9,7.2,5.9,3,0,6.3-.9,6.3-4.5,0-6.8-15.8-2.3-15.8-11.4,0-5,4.4-7.2,8.9-7.2,5,0,8.9,2.4,9.1,7.8Z"/></g><line class="cls-19" x1="1147" y1="183.2" x2="1147" y2="494.6"/><path class="cls-20" d="M1143.6,494.5a3.4,3.4,0,1,0,3.4-3.4,3.37,3.37,0,0,0-3.4,3.4Z"/><path class="cls-4" d="M45.5,349.2H724a27.7,27.7,0,0,1,27.7,27.7V922.7A27.7,27.7,0,0,1,724,950.4H45.5a27.7,27.7,0,0,1-27.7-27.7V376.9A27.7,27.7,0,0,1,45.5,349.2Z"/><rect x="321.7" y="793.2" width="10.8" height="10.9"/><rect x="321.7" y="782.3" width="10.8" height="10.9"/><rect x="321.7" y="771.4" width="10.8" height="10.9"/><rect x="321.7" y="760.6" width="10.8" height="10.9"/><rect x="321.7" y="749.7" width="10.8" height="10.9"/><rect x="321.7" y="738.8" width="10.8" height="10.9"/><rect x="321.7" y="717.1" width="10.8" height="10.9"/><rect x="321.7" y="684.5" width="10.8" height="10.9"/><rect x="321.7" y="651.9" width="10.8" height="10.9"/><rect x="321.7" y="641" width="10.8" height="10.9"/><rect x="321.7" y="630.1" width="10.8" height="10.9"/><rect x="321.7" y="619.3" width="10.8" height="10.9"/><rect x="321.7" y="608.4" width="10.8" height="10.9"/><rect x="321.7" y="597.5" width="10.8" height="10.9"/><rect x="321.7" y="586.7" width="10.8" height="10.9"/><rect x="310.9" y="771.4" width="10.8" height="10.9"/><rect x="310.9" y="760.6" width="10.8" height="10.9"/><rect x="310.9" y="728" width="10.8" height="10.9"/><rect x="310.9" y="717.1" width="10.8" height="10.9"/><rect x="310.9" y="706.2" width="10.8" height="10.9"/><rect x="310.9" y="695.4" width="10.8" height="10.9"/><rect x="310.9" y="684.5" width="10.8" height="10.9"/><rect x="310.9" y="673.6" width="10.8" height="10.9"/><rect x="310.9" y="651.9" width="10.8" height="10.9"/><rect x="310.9" y="586.7" width="10.8" height="10.9"/><rect x="300.1" y="804.1" width="10.8" height="10.9"/><rect x="300.1" y="782.3" width="10.8" height="10.9"/><rect x="300.1" y="760.6" width="10.8" height="10.9"/><rect x="300.1" y="738.8" width="10.8" height="10.9"/><rect x="300.1" y="673.6" width="10.8" height="10.9"/><rect x="300.1" y="651.9" width="10.8" height="10.9"/><rect x="300.1" y="630.1" width="10.8" height="10.9"/><rect x="300.1" y="619.3" width="10.8" height="10.9"/><rect x="300.1" y="608.4" width="10.8" height="10.9"/><rect x="300.1" y="586.7" width="10.8" height="10.9"/><rect x="289.3" y="804.1" width="10.8" height="10.9"/><rect x="289.3" y="793.2" width="10.8" height="10.9"/><rect x="289.3" y="749.7" width="10.8" height="10.9"/><rect x="289.3" y="738.8" width="10.8" height="10.9"/><rect x="289.3" y="728" width="10.8" height="10.9"/><rect x="289.3" y="684.5" width="10.8" height="10.9"/><rect x="289.3" y="651.9" width="10.8" height="10.9"/><rect x="289.3" y="630.1" width="10.8" height="10.9"/><rect x="289.3" y="619.3" width="10.8" height="10.9"/><rect x="289.3" y="608.4" width="10.8" height="10.9"/><rect x="289.3" y="586.7" width="10.8" height="10.9"/><rect x="278.6" y="782.3" width="10.8" height="10.9"/><rect x="278.6" y="738.8" width="10.8" height="10.9"/><rect x="278.6" y="706.2" width="10.8" height="10.9"/><rect x="278.6" y="673.6" width="10.8" height="10.9"/><rect x="278.6" y="651.9" width="10.8" height="10.9"/><rect x="278.6" y="630.1" width="10.8" height="10.9"/><rect x="278.6" y="619.3" width="10.8" height="10.9"/><rect x="278.6" y="608.4" width="10.8" height="10.9"/><rect x="278.6" y="586.7" width="10.8" height="10.9"/><rect x="267.8" y="793.2" width="10.8" height="10.9"/><rect x="267.8" y="749.7" width="10.8" height="10.9"/><rect x="267.8" y="728" width="10.8" height="10.9"/><rect x="267.8" y="717.1" width="10.8" height="10.9"/><rect x="267.8" y="695.4" width="10.8" height="10.9"/><rect x="267.8" y="673.6" width="10.8" height="10.9"/><rect x="267.8" y="651.9" width="10.8" height="10.9"/><rect x="267.8" y="586.7" width="10.8" height="10.9"/><rect x="257" y="793.2" width="10.8" height="10.9"/><rect x="257" y="771.4" width="10.8" height="10.9"/><rect x="257" y="760.6" width="10.8" height="10.9"/><rect x="257" y="749.7" width="10.8" height="10.9"/><rect x="257" y="738.8" width="10.8" height="10.9"/><rect x="257" y="728" width="10.8" height="10.9"/><rect x="257" y="717.1" width="10.8" height="10.9"/><rect x="257" y="706.2" width="10.8" height="10.9"/><rect x="257" y="695.4" width="10.8" height="10.9"/><rect x="257" y="684.5" width="10.8" height="10.9"/><rect x="257" y="673.6" width="10.8" height="10.9"/><rect x="257" y="651.9" width="10.8" height="10.9"/><rect x="257" y="641" width="10.8" height="10.9"/><rect x="257" y="630.1" width="10.8" height="10.9"/><rect x="257" y="619.3" width="10.8" height="10.9"/><rect x="257" y="608.4" width="10.8" height="10.9"/><rect x="257" y="597.5" width="10.8" height="10.9"/><rect x="257" y="586.7" width="10.8" height="10.9"/><rect x="246.2" y="793.2" width="10.8" height="10.9"/><rect x="246.2" y="782.3" width="10.8" height="10.9"/><rect x="246.2" y="760.6" width="10.8" height="10.9"/><rect x="246.2" y="717.1" width="10.8" height="10.9"/><rect x="246.2" y="706.2" width="10.8" height="10.9"/><rect x="246.2" y="695.4" width="10.8" height="10.9"/><rect x="235.4" y="782.3" width="10.8" height="10.9"/><rect x="235.4" y="760.6" width="10.8" height="10.9"/><rect x="235.4" y="738.8" width="10.8" height="10.9"/><rect x="235.4" y="706.2" width="10.8" height="10.9"/><rect x="235.4" y="673.6" width="10.8" height="10.9"/><rect x="235.4" y="651.9" width="10.8" height="10.9"/><rect x="235.4" y="630.1" width="10.8" height="10.9"/><rect x="235.4" y="619.3" width="10.8" height="10.9"/><rect x="235.4" y="597.5" width="10.8" height="10.9"/><rect x="235.4" y="586.7" width="10.8" height="10.9"/><rect x="224.6" y="804.1" width="10.8" height="10.9"/><rect x="224.6" y="793.2" width="10.8" height="10.9"/><rect x="224.6" y="749.7" width="10.8" height="10.9"/><rect x="224.6" y="738.8" width="10.8" height="10.9"/><rect x="224.6" y="728" width="10.8" height="10.9"/><rect x="224.6" y="717.1" width="10.8" height="10.9"/><rect x="224.6" y="695.4" width="10.8" height="10.9"/><rect x="224.6" y="684.5" width="10.8" height="10.9"/><rect x="224.6" y="673.6" width="10.8" height="10.9"/><rect x="224.6" y="630.1" width="10.8" height="10.9"/><rect x="224.6" y="608.4" width="10.8" height="10.9"/><rect x="213.8" y="804.1" width="10.8" height="10.9"/><rect x="213.8" y="749.7" width="10.8" height="10.9"/><rect x="213.8" y="738.8" width="10.8" height="10.9"/><rect x="213.8" y="706.2" width="10.8" height="10.9"/><rect x="213.8" y="695.4" width="10.8" height="10.9"/><rect x="213.8" y="684.5" width="10.8" height="10.9"/><rect x="213.8" y="673.6" width="10.8" height="10.9"/><rect x="213.8" y="651.9" width="10.8" height="10.9"/><rect x="213.8" y="641" width="10.8" height="10.9"/><rect x="213.8" y="630.1" width="10.8" height="10.9"/><rect x="213.8" y="608.4" width="10.8" height="10.9"/><rect x="213.8" y="597.5" width="10.8" height="10.9"/><rect x="213.8" y="586.7" width="10.8" height="10.9"/><rect x="203" y="793.2" width="10.8" height="10.9"/><rect x="203" y="738.8" width="10.8" height="10.9"/><rect x="203" y="728" width="10.8" height="10.9"/><rect x="203" y="717.1" width="10.8" height="10.9"/><rect x="203" y="706.2" width="10.8" height="10.9"/><rect x="203" y="684.5" width="10.8" height="10.9"/><rect x="203" y="641" width="10.8" height="10.9"/><rect x="203" y="630.1" width="10.8" height="10.9"/><rect x="192.2" y="804.1" width="10.8" height="10.9"/><rect x="192.2" y="793.2" width="10.8" height="10.9"/><rect x="192.2" y="771.4" width="10.8" height="10.9"/><rect x="192.2" y="738.8" width="10.8" height="10.9"/><rect x="192.2" y="728" width="10.8" height="10.9"/><rect x="192.2" y="717.1" width="10.8" height="10.9"/><rect x="192.2" y="684.5" width="10.8" height="10.9"/><rect x="192.2" y="662.8" width="10.8" height="10.9"/><rect x="192.2" y="651.9" width="10.8" height="10.9"/><rect x="192.2" y="641" width="10.8" height="10.9"/><rect x="192.2" y="630.1" width="10.8" height="10.9"/><rect x="192.2" y="608.4" width="10.8" height="10.9"/><rect x="192.2" y="597.5" width="10.8" height="10.9"/><rect x="181.5" y="706.2" width="10.8" height="10.9"/><rect x="181.5" y="673.6" width="10.8" height="10.9"/><rect x="170.7" y="804.1" width="10.8" height="10.9"/><rect x="170.7" y="793.2" width="10.8" height="10.9"/><rect x="170.7" y="782.3" width="10.8" height="10.9"/><rect x="170.7" y="771.4" width="10.8" height="10.9"/><rect x="170.7" y="760.6" width="10.8" height="10.9"/><rect x="170.7" y="749.7" width="10.8" height="10.9"/><rect x="170.7" y="738.8" width="10.8" height="10.9"/><rect x="170.7" y="717.1" width="10.8" height="10.9"/><rect x="170.7" y="695.4" width="10.8" height="10.9"/><rect x="170.7" y="673.6" width="10.8" height="10.9"/><rect x="170.7" y="651.9" width="10.8" height="10.9"/><rect x="170.7" y="641" width="10.8" height="10.9"/><rect x="170.7" y="630.1" width="10.8" height="10.9"/><rect x="170.7" y="619.3" width="10.8" height="10.9"/><rect x="170.7" y="608.4" width="10.8" height="10.9"/><rect x="170.7" y="597.5" width="10.8" height="10.9"/><rect x="170.7" y="586.7" width="10.8" height="10.9"/><rect x="159.9" y="804.1" width="10.8" height="10.9"/><rect x="159.9" y="738.8" width="10.8" height="10.9"/><rect x="159.9" y="695.4" width="10.8" height="10.9"/><rect x="159.9" y="651.9" width="10.8" height="10.9"/><rect x="159.9" y="586.7" width="10.8" height="10.9"/><rect x="149.1" y="804.1" width="10.8" height="10.9"/><rect x="149.1" y="782.3" width="10.8" height="10.9"/><rect x="149.1" y="771.4" width="10.8" height="10.9"/><rect x="149.1" y="760.6" width="10.8" height="10.9"/><rect x="149.1" y="738.8" width="10.8" height="10.9"/><rect x="149.1" y="706.2" width="10.8" height="10.9"/><rect x="149.1" y="695.4" width="10.8" height="10.9"/><rect x="149.1" y="651.9" width="10.8" height="10.9"/><rect x="149.1" y="630.1" width="10.8" height="10.9"/><rect x="149.1" y="619.3" width="10.8" height="10.9"/><rect x="149.1" y="608.4" width="10.8" height="10.9"/><rect x="149.1" y="586.7" width="10.8" height="10.9"/><rect x="138.3" y="804.1" width="10.8" height="10.9"/><rect x="138.3" y="782.3" width="10.8" height="10.9"/><rect x="138.3" y="771.4" width="10.8" height="10.9"/><rect x="138.3" y="760.6" width="10.8" height="10.9"/><rect x="138.3" y="738.8" width="10.8" height="10.9"/><rect x="138.3" y="695.4" width="10.8" height="10.9"/><rect x="138.3" y="673.6" width="10.8" height="10.9"/><rect x="138.3" y="651.9" width="10.8" height="10.9"/><rect x="138.3" y="630.1" width="10.8" height="10.9"/><rect x="138.3" y="619.3" width="10.8" height="10.9"/><rect x="138.3" y="608.4" width="10.8" height="10.9"/><rect x="138.3" y="586.7" width="10.8" height="10.9"/><rect x="127.5" y="804.1" width="10.8" height="10.9"/><rect x="127.5" y="782.3" width="10.8" height="10.9"/><rect x="127.5" y="771.4" width="10.8" height="10.9"/><rect x="127.5" y="760.6" width="10.8" height="10.9"/><rect x="127.5" y="738.8" width="10.8" height="10.9"/><rect x="127.5" y="695.4" width="10.8" height="10.9"/><rect x="127.5" y="651.9" width="10.8" height="10.9"/><rect x="127.5" y="630.1" width="10.8" height="10.9"/><rect x="127.5" y="619.3" width="10.8" height="10.9"/><rect x="127.5" y="608.4" width="10.8" height="10.9"/><rect x="127.5" y="586.7" width="10.8" height="10.9"/><rect x="116.7" y="804.1" width="10.8" height="10.9"/><rect x="116.7" y="738.8" width="10.8" height="10.9"/><rect x="116.7" y="706.2" width="10.8" height="10.9"/><rect x="116.7" y="695.4" width="10.8" height="10.9"/><rect x="116.7" y="673.6" width="10.8" height="10.9"/><rect x="116.7" y="651.9" width="10.8" height="10.9"/><rect x="116.7" y="586.7" width="10.8" height="10.9"/><rect x="105.9" y="804.1" width="10.8" height="10.9"/><rect x="105.9" y="793.2" width="10.8" height="10.9"/><rect x="105.9" y="782.3" width="10.8" height="10.9"/><rect x="105.9" y="771.4" width="10.8" height="10.9"/><rect x="105.9" y="760.6" width="10.8" height="10.9"/><rect x="105.9" y="749.7" width="10.8" height="10.9"/><rect x="105.9" y="738.8" width="10.8" height="10.9"/><rect x="105.9" y="706.2" width="10.8" height="10.9"/><rect x="105.9" y="695.4" width="10.8" height="10.9"/><rect x="105.9" y="684.5" width="10.8" height="10.9"/><rect x="105.9" y="673.6" width="10.8" height="10.9"/><rect x="105.9" y="651.9" width="10.8" height="10.9"/><rect x="105.9" y="641" width="10.8" height="10.9"/><rect x="105.9" y="630.1" width="10.8" height="10.9"/><rect x="105.9" y="619.3" width="10.8" height="10.9"/><rect x="105.9" y="608.4" width="10.8" height="10.9"/><rect x="105.9" y="597.5" width="10.8" height="10.9"/><rect x="105.9" y="586.7" width="10.8" height="10.9"/><path d="M620.7,398.5a16.06,16.06,0,0,1,6.1,1.1,15.66,15.66,0,0,1,4.7,3,12.3,12.3,0,0,1,3,4.4,14,14,0,0,1,1,5.4,14.92,14.92,0,0,1-1.9,7.7,11.8,11.8,0,0,1-6.1,4.9v.1a9.08,9.08,0,0,1,3.4,1.7,11.33,11.33,0,0,1,2.2,2.7,11.18,11.18,0,0,1,1.2,3.5c.2,1.3.4,2.5.5,3.8,0,.8.1,1.7.1,2.8a18.41,18.41,0,0,0,.3,3.3,16.47,16.47,0,0,0,.6,3.2,6.82,6.82,0,0,0,1.2,2.6H626a18.59,18.59,0,0,1-1.1-5.7,61.23,61.23,0,0,0-.6-6.3,10.05,10.05,0,0,0-2.4-5.7,8.12,8.12,0,0,0-6-1.8H604.8v19.6H593.7V398.5Zm-4,22.8a7.89,7.89,0,0,0,5.7-1.7,7,7,0,0,0,1.9-5.5,6.5,6.5,0,0,0-1.9-5.3,8.93,8.93,0,0,0-5.7-1.7H604.6v14.2Z"/><path d="M668.2,398.5,687,448.8H675.5l-3.8-11.2H652.9L649,448.8H637.9l19-50.3Zm.7,30.8-6.4-18.5h-.1l-6.6,18.5Z"/><polygon points="700.5 398.5 700.5 419.3 720.1 398.5 733.9 398.5 714.3 418.3 735.8 448.8 722 448.8 706.8 426.2 700.5 432.6 700.5 448.8 689.4 448.8 689.4 398.5 700.5 398.5"/><path d="M540.3,399.2h2.6c1.5,0,3.4.2,4,1.4a4.77,4.77,0,0,1,.5,3.5,4.59,4.59,0,0,1-1.1,2.2,2.7,2.7,0,0,1-.8.7,20.35,20.35,0,0,0-6.5-.8,12.1,12.1,0,0,0-1.9.1,48.29,48.29,0,0,0-9.2,1.8,7.22,7.22,0,0,0-2.4-1.4,5.64,5.64,0,0,0-1.2-.4,25.88,25.88,0,0,1,8.3-5.6,19.58,19.58,0,0,1,7.7-1.5"/><path d="M538.6,388h1.1c6.1.3,6.9,1.1,7,4.3a5.49,5.49,0,0,1-2.3,3.9,25,25,0,0,0-3.5-.2,25.39,25.39,0,0,0-7.2.9,27.46,27.46,0,0,0-10,5.6c-1.6,1.5-3.2,3.2-3.8,3.9a7.24,7.24,0,0,0-1.9,1.1l-.5.5a8,8,0,0,0-2.1-1.5,6.6,6.6,0,0,0-2.7-.6,30.46,30.46,0,0,1,7.9-11.1,29.69,29.69,0,0,1,18-6.8h0"/><path d="M545.8,420.5a45.35,45.35,0,0,1,1.4,8.2,19,19,0,0,1-1.2,8.2v.2c0,.1-.6,1.3-2.9,1.3h-.7a4,4,0,0,1-3.8-4.2v-1.1c-.1-2.4-.2-7.3-.2-8.7,0-.9-.1-2.2-.1-3.3,3.4-.1,4.7-.1,5.2-.1a18.92,18.92,0,0,0,2.3-.5"/><path d="M550.2,415.2a25.88,25.88,0,0,1,5.6,8.3,23.14,23.14,0,0,1,1.4,9.4V434c0,1.5-.2,3.4-1.4,4a4.65,4.65,0,0,1-2.3.6,4.87,4.87,0,0,1-1.2-.1,4.59,4.59,0,0,1-2.2-1.1,2.7,2.7,0,0,1-.7-.8,26.38,26.38,0,0,0,.8-8.4,57.32,57.32,0,0,0-1.7-9.2,7.22,7.22,0,0,0,1.4-2.4,7,7,0,0,1,.3-1.4"/><path d="M550.5,403.8a31.7,31.7,0,0,1,11.2,7.9,28.53,28.53,0,0,1,6.8,18.9c-.3,6.1-1.1,6.9-4.3,7a5.49,5.49,0,0,1-3.8-2.3,29.68,29.68,0,0,0-.8-10.7,27.46,27.46,0,0,0-5.6-10,41,41,0,0,0-3.9-3.8,7.24,7.24,0,0,0-1.1-1.9c-.2-.2-.3-.4-.5-.5a8,8,0,0,0,1.5-2.1,15.77,15.77,0,0,0,.5-2.5"/><path d="M535.5,429.3c0,1.6.1,4.3.1,5.3a8.52,8.52,0,0,0,.4,2.3,45.35,45.35,0,0,1-8.2,1.4h-1.1a17.42,17.42,0,0,1-7.1-1.2l-.1-.1h-.1c-.1,0-1.5-.7-1.3-3.6a4.08,4.08,0,0,1,4.1-3.9h.6c1.9-.1,7.6-.2,9.2-.2a20.42,20.42,0,0,0,3.5,0"/><path d="M537.6,439.6A7.22,7.22,0,0,0,540,441a5.64,5.64,0,0,0,1.2.4,25.88,25.88,0,0,1-8.3,5.6,23.47,23.47,0,0,1-7.8,1.5h-2.6c-1.5,0-3.4-.2-4-1.4a4.77,4.77,0,0,1-.5-3.5,4.59,4.59,0,0,1,1.1-2.2,2.7,2.7,0,0,1,.8-.7,23.72,23.72,0,0,0,6.5.9,12.1,12.1,0,0,0,1.9-.1,90,90,0,0,0,9.3-1.9"/><path d="M547.9,439.5a6.66,6.66,0,0,0,4.8,2.1,31.7,31.7,0,0,1-7.9,11.2,29.18,29.18,0,0,1-17.9,6.8h-1c-6.1-.3-6.9-1.1-7-4.3a5.49,5.49,0,0,1,2.3-3.9,25,25,0,0,0,3.5.2,29.59,29.59,0,0,0,7.2-.9,27.46,27.46,0,0,0,10-5.6c1.6-1.5,3.2-3.2,3.8-3.9a5.24,5.24,0,0,0,1.9-1.1.86.86,0,0,1,.3-.6"/><path d="M522.3,409.4h.7a4,4,0,0,1,3.8,4.2v.4c.1,5.1.2,8.3.2,9.4s.1,2.4.1,3.3c-3.4.1-4.8.1-5.3.1a8.52,8.52,0,0,0-2.3.4,45.35,45.35,0,0,1-1.4-8.2,19,19,0,0,1,1.2-8.2v-.2a3.54,3.54,0,0,1,3-1.2"/><path d="M511.9,409.1c.4,0,.8.1,1.2.1a3.86,3.86,0,0,1,2.2,1.1,2.7,2.7,0,0,1,.7.8,26.38,26.38,0,0,0-.8,8.4,48.29,48.29,0,0,0,1.8,9.2,7.22,7.22,0,0,0-1.4,2.4,5.64,5.64,0,0,0-.4,1.2,25.88,25.88,0,0,1-5.6-8.3,23.14,23.14,0,0,1-1.4-9.4v-1.1c0-1.5.2-3.4,1.4-4a8.52,8.52,0,0,1,2.3-.4"/><path d="M501.3,410a5.49,5.49,0,0,1,3.8,2.3,29.68,29.68,0,0,0,.8,10.7,27.46,27.46,0,0,0,5.6,10,42.87,42.87,0,0,0,3.9,3.8,7.24,7.24,0,0,0,1.1,1.9c.2.2.3.4.5.5a8,8,0,0,0-1.5,2.1,6.6,6.6,0,0,0-.6,2.7,29.57,29.57,0,0,1-11.1-8,28.53,28.53,0,0,1-6.8-18.9c.2-6.3,1.1-7.1,4.3-7.1h0"/><g class="cls-10"><path d="M33,409.66h3.42v22.82H50.06v2.88H33Z"/><path d="M60.57,416.32c5.91,0,9,4.28,9,9.75s-3.13,9.72-9,9.72-9-4.28-9-9.72S54.67,416.32,60.57,416.32Zm0,16.77c3.21,0,5.8-2.52,5.8-7S63.78,419,60.57,419s-5.79,2.56-5.79,7.05S57.37,433.09,60.57,433.09Z"/><path d="M73.71,409.66h12.1c4.86,0,7.81,2.59,7.81,6.73,0,3.13-1.33,5.65-4.46,6.52V423c3,.57,3.56,2.81,3.85,5.29s.07,5.36,1.51,7.09H90.7c-1-1-.43-3.81-.93-6.33s-1-4.65-4.29-4.65H77.13v11H73.71ZM84.26,421.5c3.17,0,5.94-.83,5.94-4.57,0-2.55-1.37-4.39-4.57-4.39h-8.5v9Z"/><path d="M114.36,435.29a4.37,4.37,0,0,1-2.2.5c-1.58,0-2.59-.86-2.59-2.88a8.13,8.13,0,0,1-6.55,2.88c-3.39,0-6.16-1.47-6.16-5.22,0-4.21,3.13-5.14,6.3-5.72,3.35-.68,6.26-.39,6.26-2.73,0-2.7-2.23-3.1-4.14-3.1-2.59,0-4.49.79-4.64,3.53H97.58c.18-4.61,3.71-6.23,7.89-6.23,3.34,0,7,.76,7,5.11V431c0,1.44,0,2.08,1,2.08a3,3,0,0,0,.94-.18Zm-5-9.54c-2.38,1.76-9.29,0-9.29,4.61,0,2,1.73,2.73,3.6,2.73,4,0,5.69-2.48,5.69-4.21Z"/><path d="M145.78,417.4c-.75-3.64-3.6-5.47-7.2-5.47-6.11,0-8.71,5-8.71,10.4,0,5.87,2.6,10.76,8.75,10.76,4.46,0,7.13-3.16,7.42-7.41h3.41c-.68,6.44-4.6,10.29-11.12,10.29-8,0-11.88-5.9-11.88-13.39s4.25-13.53,12.17-13.53c5.36,0,9.83,2.88,10.58,8.35Z"/><path d="M161.23,416.32c5.9,0,9,4.28,9,9.75s-3.13,9.72-9,9.72-9-4.28-9-9.72S155.32,416.32,161.23,416.32Zm0,16.77c3.2,0,5.79-2.52,5.79-7s-2.59-7.05-5.79-7.05-5.8,2.56-5.8,7.05S158,433.09,161.23,433.09Z"/><path d="M173.86,416.75h2.88v2.95h.08a6.43,6.43,0,0,1,6-3.38c4.9,0,6.41,2.81,6.41,6.8v12.24h-3.06v-12.6a3.49,3.49,0,0,0-3.78-3.74c-3.71,0-5.51,2.48-5.51,5.83v10.51h-3.06Z"/><path d="M206.51,422.73a4.3,4.3,0,0,0-4.6-3.71c-4.43,0-5.8,3.53-5.8,7.27,0,3.46,1.55,6.8,5.44,6.8,3,0,4.71-1.69,5.11-4.53h3.13c-.68,4.57-3.49,7.23-8.21,7.23-5.68,0-8.71-3.92-8.71-9.5s2.88-10,8.79-10c4.24,0,7.55,2,8,6.41Z"/><path d="M229.09,429.46c-.83,4.14-3.75,6.33-8,6.33-5.94,0-8.75-4.14-8.93-9.79,0-5.61,3.68-9.68,8.75-9.68,6.59,0,8.6,6.15,8.42,10.65H215.44c-.1,3.24,1.73,6.12,5.8,6.12,2.55,0,4.28-1.18,4.82-3.63Zm-3-5.19a5.35,5.35,0,0,0-5.36-5.25,5.28,5.28,0,0,0-5.33,5.25Z"/><path d="M232.54,416.75h2.88v2.95h.08a6.43,6.43,0,0,1,6-3.38c4.9,0,6.41,2.81,6.41,6.8v12.24h-3.06v-12.6a3.49,3.49,0,0,0-3.78-3.74c-3.71,0-5.51,2.48-5.51,5.83v10.51h-3.06Z"/><path d="M256.81,416.75h3.7v2.7h-3.7V431c0,1.44.39,1.65,2.3,1.65h1.4v2.7h-2.33c-3.17,0-4.43-.65-4.43-4.07V419.45h-3.17v-2.7h3.17v-5.58h3.06Z"/><path d="M263.79,416.75h2.88v3.92h.07c1.48-3,3.53-4.46,6.84-4.35v3.24c-4.93,0-6.73,2.77-6.73,7.52v8.28h-3.06Z"/><path d="M292.37,435.29a4.33,4.33,0,0,1-2.19.5c-1.59,0-2.59-.86-2.59-2.88a8.15,8.15,0,0,1-6.56,2.88c-3.38,0-6.15-1.47-6.15-5.22,0-4.21,3.13-5.14,6.3-5.72,3.35-.68,6.26-.39,6.26-2.73,0-2.7-2.23-3.1-4.14-3.1-2.59,0-4.5.79-4.64,3.53H275.6c.18-4.61,3.71-6.23,7.88-6.23,3.35,0,7,.76,7,5.11V431c0,1.44,0,2.08,1,2.08a3,3,0,0,0,.93-.18Zm-5-9.54c-2.38,1.76-9.29,0-9.29,4.61,0,2,1.73,2.73,3.6,2.73,4,0,5.69-2.48,5.69-4.21Z"/><path d="M299.47,416.75h3.7v2.7h-3.7V431c0,1.44.39,1.65,2.3,1.65h1.4v2.7h-2.34c-3.16,0-4.42-.65-4.42-4.07V419.45h-3.17v-2.7h3.17v-5.58h3.06Z"/><path d="M314.58,416.32c5.91,0,9,4.28,9,9.75s-3.13,9.72-9,9.72-9-4.28-9-9.72S308.68,416.32,314.58,416.32Zm0,16.77c3.21,0,5.8-2.52,5.8-7s-2.59-7.05-5.8-7.05-5.79,2.56-5.79,7.05S311.38,433.09,314.58,433.09Z"/><path d="M327.11,416.75H330v3.92h.08c1.47-3,3.52-4.46,6.83-4.35v3.24c-4.93,0-6.73,2.77-6.73,7.52v8.28h-3.06Z"/><path d="M349.79,409.66h4.68l8.1,21.6,8.14-21.6h4.68v25.7h-3.24V414h-.08l-8,21.38h-2.92l-8-21.38H353v21.38h-3.24Z"/><path d="M388.6,416.32c5.9,0,9,4.28,9,9.75s-3.14,9.72-9,9.72-9-4.28-9-9.72S382.7,416.32,388.6,416.32Zm0,16.77c3.2,0,5.8-2.52,5.8-7s-2.6-7.05-5.8-7.05-5.8,2.56-5.8,7.05S385.4,433.09,388.6,433.09Z"/><path d="M417.87,435.36h-3.06v-2.52h-.07c-1,2.05-3.35,3-5.94,3-5.73,0-8.57-4.53-8.57-9.79s2.81-9.68,8.49-9.68c1.88,0,4.68.72,6,2.92h.07v-9.58h3.06Zm-8.64-2.27c4.14,0,5.68-3.56,5.68-7,0-3.63-1.65-7.05-5.86-7.05s-5.58,3.56-5.58,7.2C403.47,429.71,405.27,433.09,409.23,433.09Z"/><path d="M438,435.36h-2.88v-2.95H435a6.45,6.45,0,0,1-6.05,3.38c-4.89,0-6.41-2.8-6.41-6.8V416.75h3.06v12.6a3.49,3.49,0,0,0,3.78,3.74c3.71,0,5.51-2.48,5.51-5.83V416.75H438Z"/><path d="M442.78,409.66h3.06v25.7h-3.06Z"/><path d="M466.47,429.46c-.83,4.14-3.75,6.33-8,6.33-5.94,0-8.75-4.14-8.93-9.79,0-5.61,3.68-9.68,8.75-9.68,6.59,0,8.6,6.15,8.42,10.65H452.82c-.1,3.24,1.73,6.12,5.8,6.12,2.55,0,4.28-1.18,4.82-3.63Zm-3-5.19a5.35,5.35,0,0,0-5.36-5.25,5.28,5.28,0,0,0-5.33,5.25Z"/></g><g class="cls-10"><path d="M33.11,509.66h4.68l8.1,21.6L54,509.66H58.7v25.7H55.46V514h-.07l-8,21.38H44.45l-8-21.38h-.07v21.38H33.11Z"/><path d="M75.26,509.05c8.17,0,12.31,6.44,12.31,13.46S83.43,536,75.26,536,63,529.53,63,522.51,67.09,509.05,75.26,509.05Zm0,24c6.26,0,8.89-5.4,8.89-10.58s-2.63-10.58-8.89-10.58-8.89,5.4-8.89,10.58S69,533.09,75.26,533.09Z"/><path d="M91.75,509.66h8.82c7.92,0,12.35,4,12.35,12.24,0,8.6-3.78,13.46-12.35,13.46H91.75Zm3.42,22.82h5.69c2.34,0,8.64-.65,8.64-10.11,0-6.12-2.27-9.83-8.57-9.83H95.17Z"/><path d="M117.09,509.66h17.75v2.88H120.51v8.17h13.36v2.88H120.51v8.89H135v2.88H117.09Z"/><path d="M139.09,509.66h3.42v22.82h13.6v2.88h-17Z"/><path d="M163.28,520.75h-4v-4h4Zm-4,10.62h4v4h-4Z"/><path d="M169.11,509.66h12.1c4.86,0,7.81,2.59,7.81,6.73,0,3.13-1.33,5.65-4.46,6.52V523c3,.57,3.56,2.81,3.85,5.29s.07,5.36,1.51,7.09H186.1c-1-1-.43-3.81-.93-6.33s-1-4.65-4.29-4.65h-8.35v11h-3.42Zm10.55,11.84c3.17,0,5.94-.83,5.94-4.57,0-2.55-1.37-4.39-4.57-4.39h-8.5v9Z"/><path d="M200.76,509.66h3.78l10,25.7H210.8L208,527.62H197.12l-2.88,7.74h-3.53Zm-2.56,15.08h8.71l-4.28-12h-.07Z"/><path d="M217.1,509.66h3.42v12.81l13-12.81H238L227.14,520l11.27,15.33h-4.32l-9.29-13-4.28,4v9H217.1Z"/><path d="M255.22,513H244.93l-1.37,7.35.07.07a6.47,6.47,0,0,1,4.75-1.84c4.54,0,8.25,2.88,8.25,8.75,0,4.32-3,8.49-8.93,8.49-4.43,0-8-2.7-8.14-7.3h3.06c.18,2.62,2.31,4.6,5.37,4.6,2.91,0,5.4-2,5.4-6a5.53,5.53,0,0,0-5.76-5.8,6.05,6.05,0,0,0-4.75,2.41l-2.63-.14,2.37-13.25h12.6Z"/><path d="M271.14,535.36h-3.06V517.08h-6.63v-2.45c3.49,0,6.66-.9,7.35-4.79h2.34Z"/><path d="M293.42,526.69h3.45v2.7h-3.45v6h-2.88v-6h-11.2v-3L291,509.84h2.45Zm-2.88,0V514.2h-.07L282,526.69Z"/><path d="M313.26,516.36a4.07,4.07,0,0,0-4.29-3.82c-5.18,0-6.08,5.76-6.19,9.68l.07.08a6.92,6.92,0,0,1,6.37-3.35c4.9,0,7.81,3.56,7.81,8.28,0,3.74-2.08,8.56-8.53,8.56-7.59,0-8.78-6.94-8.78-12.27,0-7,2.12-13.68,9.4-13.68,4.21,0,6.8,2.34,7.2,6.52Zm-9.9,11c0,3.16,1.94,5.68,5.29,5.68s5.15-2.62,5.15-5.65-1.66-5.79-5.15-5.79S303.36,524.2,303.36,527.41Z"/></g><g class="cls-10"><path d="M42.93,878.38c5.58,0,7.74,3.24,7.74,6.51a5.86,5.86,0,0,1-3.53,5.3,6.12,6.12,0,0,1,4.54,6.37c0,4.93-3.74,7.77-8.46,7.77-4.89,0-8.67-2.59-8.67-7.77A6.38,6.38,0,0,1,39,890.19a5.72,5.72,0,0,1-3.56-5.3C35.45,880.72,39,878.38,42.93,878.38Zm.29,23.25a4.93,4.93,0,0,0,5.22-5,5,5,0,0,0-5.26-4.85c-3,0-5.39,1.9-5.39,4.89S40.05,901.63,43.22,901.63Zm0-12.52A3.91,3.91,0,0,0,47.43,885c0-2.59-1.8-3.92-4.28-3.92s-4.46,1.37-4.46,3.92C38.69,887.77,40.74,889.11,43.22,889.11Z"/><path d="M56.69,887.41c-.29-5.18,2.8-9,8.2-9,4.43,0,8,2.59,8,7.34,0,4.5-3,6.73-6.19,8.75s-6.58,3.6-7.16,6.73h13.1v2.7H56c.46-6,3.56-8.28,7.16-10.44,4.32-2.7,6.51-4.21,6.51-7.77a4.65,4.65,0,0,0-4.93-4.61c-3.56,0-5.07,3.27-5,6.33Z"/><path d="M92,884.89a4.07,4.07,0,0,0-4.28-3.81c-5.19,0-6.09,5.76-6.19,9.68l.07.07A6.92,6.92,0,0,1,88,887.48c4.89,0,7.81,3.57,7.81,8.28,0,3.75-2.09,8.57-8.53,8.57-7.6,0-8.78-7-8.78-12.27,0-7,2.12-13.68,9.39-13.68,4.21,0,6.8,2.34,7.2,6.51Zm-9.9,11.05c0,3.17,2,5.69,5.29,5.69S92.54,899,92.54,896c0-3.17-1.66-5.79-5.15-5.79S82.1,892.74,82.1,895.94Z"/><path d="M100.68,887.41c-.29-5.18,2.81-9,8.2-9,4.43,0,8,2.59,8,7.34,0,4.5-3,6.73-6.2,8.75s-6.58,3.6-7.16,6.73h13.1v2.7H100c.47-6,3.56-8.28,7.16-10.44,4.32-2.7,6.52-4.21,6.52-7.77a4.65,4.65,0,0,0-4.94-4.61c-3.56,0-5.07,3.27-5,6.33Z"/><path d="M131.1,878.38c8,0,8.49,7.38,8.49,13s-.5,13-8.49,13-8.5-7.34-8.5-13S123.11,878.38,131.1,878.38Zm0,23.25c5.22,0,5.25-6.48,5.25-10.29s0-10.26-5.25-10.26-5.26,6.48-5.26,10.26S125.88,901.63,131.1,901.63Z"/><path d="M153.09,878.38c8,0,8.5,7.38,8.5,13s-.51,13-8.5,13-8.49-7.34-8.49-13S145.1,878.38,153.09,878.38Zm0,23.25c5.22,0,5.26-6.48,5.26-10.29s0-10.26-5.26-10.26-5.25,6.48-5.25,10.26S147.87,901.63,153.09,901.63Z"/><path d="M174.87,878.2h3.78l10,25.7h-3.78l-2.81-7.74H171.24l-2.88,7.74h-3.53Zm-2.55,15.08H181l-4.29-12h-.07Z"/><path d="M200.22,878.38c5.58,0,7.74,3.24,7.74,6.51a5.87,5.87,0,0,1-3.53,5.3,6.11,6.11,0,0,1,4.53,6.37c0,4.93-3.74,7.77-8.46,7.77-4.89,0-8.67-2.59-8.67-7.77a6.38,6.38,0,0,1,4.46-6.37,5.72,5.72,0,0,1-3.56-5.3C192.73,880.72,196.29,878.38,200.22,878.38Zm.28,23.25a4.93,4.93,0,0,0,5.22-5,5,5,0,0,0-5.25-4.85c-3,0-5.4,1.9-5.4,4.89S197.34,901.63,200.5,901.63Zm0-12.52a3.91,3.91,0,0,0,4.22-4.11c0-2.59-1.8-3.92-4.29-3.92S196,882.45,196,885C196,887.77,198,889.11,200.5,889.11Z"/><path d="M227.29,884.89a4.07,4.07,0,0,0-4.29-3.81c-5.18,0-6.08,5.76-6.19,9.68l.08.07a6.92,6.92,0,0,1,6.37-3.35c4.89,0,7.81,3.57,7.81,8.28,0,3.75-2.09,8.57-8.53,8.57-7.6,0-8.79-7-8.79-12.27,0-7,2.13-13.68,9.4-13.68,4.21,0,6.8,2.34,7.2,6.51Zm-9.9,11.05c0,3.17,1.94,5.69,5.29,5.69s5.15-2.63,5.15-5.65c0-3.17-1.66-5.79-5.15-5.79S217.39,892.74,217.39,895.94Z"/><path d="M244.39,878.38c8,0,8.49,7.38,8.49,13s-.5,13-8.49,13-8.5-7.34-8.5-13S236.4,878.38,244.39,878.38Zm0,23.25c5.22,0,5.25-6.48,5.25-10.29s0-10.26-5.25-10.26-5.26,6.48-5.26,10.26S239.17,901.63,244.39,901.63Z"/><path d="M269.19,903.9h-3.06V885.61h-6.62v-2.44c3.49,0,6.66-.9,7.34-4.79h2.34Z"/><path d="M288.38,878.38c8,0,8.5,7.38,8.5,13s-.51,13-8.5,13-8.49-7.34-8.49-13S280.39,878.38,288.38,878.38Zm0,23.25c5.22,0,5.26-6.48,5.26-10.29s0-10.26-5.26-10.26-5.25,6.48-5.25,10.26S283.16,901.63,288.38,901.63Z"/><path d="M318.69,881.44c-5.15,5.07-9.32,14.5-9.79,22.46h-3.42a36.51,36.51,0,0,1,10.08-22.21H302.17v-2.88h16.52Z"/><path d="M335.18,903.9h-3.06V885.61H325.5v-2.44c3.49,0,6.66-.9,7.34-4.79h2.34Z"/><path d="M346,887.41c-.29-5.18,2.8-9,8.2-9,4.43,0,8,2.59,8,7.34,0,4.5-3,6.73-6.19,8.75s-6.58,3.6-7.16,6.73h13.1v2.7H345.23c.46-6,3.56-8.28,7.16-10.44,4.32-2.7,6.51-4.21,6.51-7.77a4.65,4.65,0,0,0-4.93-4.61c-3.56,0-5.07,3.27-5,6.33Z"/><path d="M381.44,895.23h3.46v2.69h-3.46v6h-2.88v-6H367.37V895L379,878.38h2.45Zm-2.88,0v-12.5h-.07l-8.5,12.5Z"/><path d="M403.26,884.89a4.07,4.07,0,0,0-4.29-3.81c-5.18,0-6.08,5.76-6.19,9.68l.07.07a6.92,6.92,0,0,1,6.37-3.35c4.9,0,7.82,3.57,7.82,8.28,0,3.75-2.09,8.57-8.54,8.57-7.59,0-8.78-7-8.78-12.27,0-7,2.13-13.68,9.4-13.68,4.21,0,6.8,2.34,7.2,6.51Zm-9.9,11.05c0,3.17,1.94,5.69,5.29,5.69S403.8,899,403.8,896c0-3.17-1.66-5.79-5.15-5.79S393.36,892.74,393.36,895.94Z"/><path d="M425.43,895.23h3.46v2.69h-3.46v6h-2.88v-6H411.36V895L423,878.38h2.45Zm-2.88,0v-12.5h-.07L414,895.23Z"/></g><g class="cls-10"><path d="M499.81,878.2h4.67l8.1,21.6,8.14-21.6h4.68v25.7h-3.24V882.52h-.07l-8,21.38h-2.92l-8-21.38H503V903.9h-3.23Z"/><path d="M536.09,878.2h3.78l10,25.7h-3.78l-2.8-7.74H532.46l-2.88,7.74h-3.53Zm-2.55,15.08h8.71l-4.29-12h-.07Z"/><path d="M550.46,878.2h8.82c7.91,0,12.34,4,12.34,12.24,0,8.6-3.78,13.46-12.34,13.46h-8.82ZM553.88,901h5.68c2.34,0,8.64-.65,8.64-10.12,0-6.11-2.27-9.82-8.56-9.82h-5.76Z"/><path d="M573.82,878.2h17.75v2.88H577.24v8.17h13.35v2.88H577.24V901h14.43v2.88H573.82Z"/><path d="M602,878.2h3.42v25.7H602Z"/><path d="M609.17,878.2h3.64L626.34,899h.07V878.2h3.24v25.7h-3.74l-13.43-20.63h-.07V903.9h-3.24Z"/><path d="M659.32,885.94c-.76-3.64-3.6-5.47-7.2-5.47-6.12,0-8.71,5-8.71,10.4,0,5.87,2.59,10.76,8.74,10.76,4.47,0,7.13-3.17,7.42-7.41H663c-.69,6.44-4.61,10.29-11.12,10.29-8,0-11.88-5.9-11.88-13.39s4.24-13.53,12.16-13.53c5.37,0,9.83,2.88,10.59,8.35Z"/><path d="M665.26,878.2h3.42v11h13.53v-11h3.42v25.7h-3.42V892.13H668.68V903.9h-3.42Z"/><path d="M689.41,878.2h3.42v25.7h-3.42Z"/><path d="M696.58,878.2h3.63L713.75,899h.07V878.2h3.24v25.7h-3.74l-13.43-20.63h-.07V903.9h-3.24Z"/><path d="M727.61,878.2h3.78l10,25.7h-3.78l-2.81-7.74H724l-2.88,7.74h-3.52Zm-2.56,15.08h8.71l-4.28-12h-.07Z"/></g><g class="cls-10"><path d="M398,517.18c-.4-3.7-2.81-5.25-6.37-5.25-2.92,0-5.76,1-5.76,4.39,0,6.34,16.45,1.87,16.45,12,0,5.47-5.37,7.66-10.05,7.66-5.76,0-10.61-2.84-10.61-9.07h3.23c0,4.32,3.6,6.19,7.49,6.19,3.1,0,6.52-1,6.52-4.68,0-7-16.45-2.41-16.45-11.84,0-5.18,4.6-7.52,9.32-7.52,5.26,0,9.29,2.48,9.47,8.13Z"/><path d="M408.48,509.66h11.27c5.14,0,7.88,2.81,7.88,7.6s-2.74,7.63-7.88,7.59H411.9v10.51h-3.42ZM411.9,522h6.69c3.89,0,5.62-1.65,5.62-4.71s-1.73-4.72-5.62-4.72H411.9Z"/><path d="M433.93,509.66h3.42v25.7h-3.42Z"/></g><g class="cls-10"><path d="M585.85,787.57c-.29-5.18,2.81-9,8.21-9,4.43,0,8,2.59,8,7.34,0,4.5-3,6.73-6.19,8.75s-6.59,3.6-7.17,6.73H601.8v2.7H585.13c.47-6,3.56-8.28,7.16-10.44,4.32-2.7,6.52-4.21,6.52-7.78a4.65,4.65,0,0,0-4.93-4.61c-3.57,0-5.08,3.28-5,6.34Z"/><path d="M619.08,804.06H616V785.77H609.4v-2.45c3.49,0,6.65-.9,7.34-4.78h2.34Z"/><path d="M645.18,781.67h-10.3L633.51,789l.08.07a6.44,6.44,0,0,1,4.75-1.83c4.53,0,8.24,2.88,8.24,8.74,0,4.32-3,8.5-8.93,8.5-4.42,0-8-2.7-8.13-7.31h3.06a5,5,0,0,0,5.36,4.61c2.92,0,5.4-2,5.4-6a5.52,5.52,0,0,0-5.76-5.79,6.07,6.07,0,0,0-4.75,2.41l-2.63-.15L632.58,779h12.6Z"/></g><path d="M577.7,646.4a29.13,29.13,0,0,0,29.1,29.1,34,34,0,0,0,4.5-.3v12.6a41.54,41.54,0,0,1-9-82.6,45.11,45.11,0,0,1,9,0v12.6A29.15,29.15,0,0,0,578,642.1,30,30,0,0,0,577.7,646.4Z"/><path d="M649.2,640.2h24v12.6h-24a29.19,29.19,0,0,0,28.4,22.8,27,27,0,0,0,4.9-.4v12.6a41.58,41.58,0,1,1-9.6-82.6,38.55,38.55,0,0,1,9.6,0v12.6a26.29,26.29,0,0,0-4.9-.4A28.92,28.92,0,0,0,649.2,640.2Z"/><path d="M538.73,409.81a16.68,16.68,0,0,1,7,1.2h.2c.1,0,1.5.7,1.2,3.6a3.93,3.93,0,0,1-4.1,3.8h-.4c-5,.1-8.3.2-9.4.2-.9,0-2.2.1-3.3.1,0-1.5-.1-4.3-.1-5.3a8.52,8.52,0,0,0-.4-2.3,45.35,45.35,0,0,1,8.2-1.4,4.48,4.48,0,0,0,1.1.1"/><rect class="cls-1" x="553.4" y="579.5" width="135.9" height="135.9"/><g class="cls-21"><polygon class="cls-4" points="1144.09 829.13 1139.27 846.71 1139.18 846.71 1134.92 829.13 1129.64 829.13 1125.2 846.71 1125.1 846.71 1120.47 829.13 1114.92 829.13 1122.26 852.67 1127.77 852.67 1132.12 835.18 1132.21 835.18 1136.61 852.67 1141.98 852.67 1149.41 829.13 1144.09 829.13"/><polygon class="cls-4" points="1179.68 829.13 1174.87 846.71 1174.78 846.71 1170.51 829.13 1165.23 829.13 1160.78 846.71 1160.69 846.71 1156.06 829.13 1150.51 829.13 1157.85 852.67 1163.35 852.67 1167.72 835.18 1167.81 835.18 1172.21 852.67 1177.57 852.67 1185 829.13 1179.68 829.13"/><polygon class="cls-4" points="1215.27 829.13 1210.46 846.71 1210.36 846.71 1206.1 829.13 1200.82 829.13 1196.38 846.71 1196.28 846.71 1191.65 829.13 1186.1 829.13 1193.44 852.67 1198.94 852.67 1203.3 835.18 1203.39 835.18 1207.79 852.67 1213.16 852.67 1220.59 829.13 1215.27 829.13"/><rect class="cls-4" x="1221.73" y="846.53" width="6.37" height="6.14"/><path class="cls-4" d="M1233.85,815.26h20.92c7,0,11.36,4.8,11.36,10.62,0,4.52-1.8,7.92-6.14,9.64v.11c4.18,1.14,5.38,5.07,5.64,9,.17,2.42.06,7,1.63,9.11h-8.54c-1-2.43-.92-6.15-1.36-9.22-.59-4-2.16-5.82-6.46-5.82h-8.52v15h-8.53Zm8.53,17.41h9.34c3.86,0,5.86-1.62,5.86-5.5s-2-5.34-5.86-5.34h-9.34Z"/><path class="cls-4" d="M1283.54,815.26h8.74l14.51,38.48h-8.85l-2.94-8.57h-14.5l-3,8.57h-8.64Zm-.81,23.61h10l-4.89-14.12h-.11Z"/><polygon class="cls-4" points="1310.04 815.26 1318.58 815.26 1318.58 831.21 1333.73 815.26 1344.38 815.26 1329.22 830.46 1345.84 853.74 1335.14 853.74 1323.46 836.44 1318.58 841.35 1318.58 853.74 1310.04 853.74 1310.04 815.26"/><polygon class="cls-4" points="1345.64 824.61 1351.91 824.61 1357.16 844.49 1357.26 844.49 1362.29 824.61 1368.26 824.61 1373.09 844.49 1373.19 844.49 1378.65 824.61 1384.66 824.61 1376.26 851.23 1370.18 851.23 1365.2 831.46 1365.09 831.46 1360.17 851.23 1353.94 851.23 1345.64 824.61"/><path class="cls-4" d="M1388.5,814.46h5.92V820h-5.92Zm0,10.14h5.92v26.63h-5.92Z"/><path class="cls-4" d="M1400.75,824.61h5.55v5.15h.11c.67-2.84,4.25-5.87,7.84-5.87a14,14,0,0,1,2.24.15v5.68a14.49,14.49,0,0,0-2.54-.26c-4,0-7.27,3.19-7.27,9.12v12.7h-5.91Z"/><path class="cls-4" d="M1422.6,839.43c0,4.17,2.29,7.88,7.21,7.88,3.48,0,5.51-1.49,6.54-4.43H1442c-1.25,5.82-6.34,9.07-12.15,9.07-8.46,0-13.13-5.77-13.13-14,0-7.56,5-14,13-14,8.46,0,13.65,7.57,12.7,15.55Zm13.81-3.86c-.27-3.74-2.71-7.06-6.73-7.06a7,7,0,0,0-7.06,7.06Z"/><rect class="cls-4" x="1446.89" y="814.46" width="5.92" height="36.77"/><path class="cls-4" d="M1463.74,839.43c0,4.17,2.29,7.88,7.22,7.88,3.48,0,5.5-1.49,6.54-4.43h5.6c-1.24,5.82-6.33,9.07-12.14,9.07-8.46,0-13.13-5.77-13.13-14,0-7.56,5-14,13-14,8.46,0,13.65,7.57,12.67,15.55Zm13.81-3.86c-.26-3.74-2.7-7.06-6.72-7.06a7,7,0,0,0-7.06,7.06Z"/><path class="cls-4" d="M1492.35,842.69c.36,3.45,2.91,4.63,6.07,4.63,2.28,0,6.12-.47,6-3.51s-4.49-3.44-8.78-4.42-8.61-2.47-8.61-7.88c0-5.82,6.34-7.62,11.21-7.62,5.5,0,10.53,2.24,11.2,8.22h-6.18c-.56-2.84-2.8-3.56-5.44-3.56-1.71,0-4.88.41-4.88,2.73,0,2.88,4.36,3.35,8.72,4.28s8.66,2.52,8.66,7.77c0,6.33-6.43,8.66-12,8.66-6.81,0-11.73-3-11.89-9.27Z"/><path class="cls-4" d="M1519.18,842.69c.36,3.45,2.91,4.63,6.07,4.63,2.28,0,6.12-.47,6-3.51s-4.48-3.44-8.76-4.42-8.66-2.47-8.66-7.88c0-5.82,6.34-7.62,11.21-7.62,5.5,0,10.53,2.24,11.21,8.22H1530c-.57-2.84-2.8-3.56-5.45-3.56-1.71,0-4.88.41-4.88,2.73,0,2.88,4.36,3.35,8.72,4.28s8.67,2.52,8.67,7.77c0,6.33-6.44,8.66-12,8.66-6.8,0-11.73-3-11.88-9.27Z"/><rect class="cls-4" x="1542.01" y="844.28" width="7.22" height="6.96"/><path class="cls-4" d="M1566.49,835.13c-.41-2.91-2.48-4.41-5.42-4.41-2.7,0-6.51,1.49-6.51,8.55,0,3.92,1.75,8.06,6.29,8.06,3.07,0,5.13-2,5.64-5.37h5.23c-1,6.14-4.77,9.47-10.87,9.47-7.47,0-11.51-5.23-11.51-12.16,0-7.1,3.89-12.65,11.69-12.65,5.5,0,10.18,2.73,10.69,8.51Z"/><path class="cls-4" d="M1574.78,839c0-7.15,4.41-12.38,12-12.38s12,5.23,12,12.38-4.4,12.43-12,12.43-12-5.23-12-12.43m18.68,0c0-4-2.06-8.28-6.72-8.28S1580,835,1580,839s2.07,8.33,6.73,8.33,6.72-4.23,6.72-8.33"/><path class="cls-4" d="M1603,827.26h5v3.28h.13a7.94,7.94,0,0,1,7.3-3.92c2.89,0,5.59,1.23,6.65,3.92a8.57,8.57,0,0,1,7.43-3.92c5,0,7.93,2.24,7.93,7.92v16.25h-5.23V837c0-3.78-.22-6.32-4.31-6.32-3.52,0-5,2.28-5,6.28v13.79h-5.23v-15.1c0-3.28-1-5-4.18-5-2.7,0-5.17,2.24-5.17,6.1v14H1603Z"/></g><g class="cls-22"><path class="cls-4" d="M1172.07,714.08a14.79,14.79,0,0,1,1.13,5.33c.1,2.38.25,9.58.3,11.67,2.39-.14,5.48-.29,7.55-.29s9-.12,19-.35h.66c2.59-.06,8.7-1,9.5-8.61.71-6.65-2.94-8.22-3.09-8.32-1.44-.94-7.71-2.63-14.86-2.63-.8,0-1.61,0-2.43.06-6.5.34-14.2,2.25-17.74,3.16"/><path class="cls-4" d="M1160.77,706.44a14.67,14.67,0,0,1,4,1,15.8,15.8,0,0,1,5,3,91.87,91.87,0,0,1,19-3.66c1.24-.09,2.51-.13,3.78-.13a47.09,47.09,0,0,1,13.4,1.82,21.9,21.9,0,0,0,2.09-1.88,10,10,0,0,0,2.51-5,10.72,10.72,0,0,0-1.07-7.71c-1.15-2.19-4.15-3.3-8.89-3.3-.65,0-1.36,0-2.15-.07s-2-.07-3.15-.07a46.11,46.11,0,0,0-16.18,3c-7.75,2.76-15,9.49-18.38,12.92"/><path class="cls-4" d="M1138.2,706.11a16.74,16.74,0,0,1,6.45,1.19,16.38,16.38,0,0,1,4.69,3.62,13.57,13.57,0,0,1,1.58-1.81,11.33,11.33,0,0,1,3.67-2.12c1.61-1.8,4.68-5.12,7.79-8a53.48,53.48,0,0,1,19.91-11.2,47.11,47.11,0,0,1,14.26-1.87,71,71,0,0,1,7.29.36c1.17-.87,5.3-4.29,5.23-8.84-.11-7.28-2.77-9-15-9.58-12.92-.7-27.15,4.44-39,14-9.4,7.56-15,19.73-16.89,24.2"/><path class="cls-4" d="M1190.12,734.77c.12,2.06.29,5.39.29,7.56,0,2.9.23,13.17.32,17.56l0,2.07c.07,2.59,1,8.71,8.62,9.5a12.32,12.32,0,0,0,1.61.1c5.36,0,6.69-3.15,6.72-3.18.92-1.39,3-8.66,2.58-17.3a97.67,97.67,0,0,0-3.16-17.73,15.06,15.06,0,0,1-5.34,1.13c-1,0-3.78.13-11.66.29"/><path class="cls-4" d="M1212.71,767.26a19.7,19.7,0,0,0,1.89,2.09,10,10,0,0,0,5,2.52,13.26,13.26,0,0,0,2.59.29,11,11,0,0,0,5.13-1.36c2.2-1.16,3.31-4.16,3.31-8.9,0-.58,0-1.22,0-1.92v-.23a46.55,46.55,0,0,0-2.92-19.34c-2.78-7.73-9.51-15-12.94-18.37a14.42,14.42,0,0,1-1,4,15.44,15.44,0,0,1-3,5,93.24,93.24,0,0,1,3.66,19,49.88,49.88,0,0,1-1.69,17.19"/><path class="cls-4" d="M1234.85,765.12c1.05,1.4,4.29,5.23,8.74,5.23,7.36-.11,9.09-2.77,9.71-14.94.63-12.94-4.48-27.16-14-39-7.57-9.42-19.73-15-24.19-16.89a16.74,16.74,0,0,1-1.19,6.45,16.24,16.24,0,0,1-3.63,4.69,13.57,13.57,0,0,1,1.81,1.58,11.17,11.17,0,0,1,2.13,3.67,108.69,108.69,0,0,1,7.94,7.79,53.42,53.42,0,0,1,11.21,19.91c2.67,8.35,1.76,19,1.5,21.56"/><path class="cls-4" d="M1186.56,751.54c-1.81.1-5.31.29-7.56.29s-8.39.12-18.62.34h-1c-2.58.06-8.7,1-9.5,8.61-.7,6.62,2.94,8.22,3.09,8.31,1.68,1.12,9.23,3,17.3,2.57,6.5-.33,14.19-2.24,17.74-3.15a14.59,14.59,0,0,1-1.13-5.33c-.07-1.56-.17-5.47-.3-11.61Z"/><path class="cls-4" d="M1154.05,774.14A18.58,18.58,0,0,0,1152,776a10,10,0,0,0-2.51,5,10.72,10.72,0,0,0,1.07,7.71c1.15,2.2,4.14,3.31,8.89,3.31.62,0,1.31,0,2.06.06,1,0,2.08.08,3.23.08a46.26,46.26,0,0,0,16.21-3c7.71-2.77,15-9.49,18.36-12.93a14.84,14.84,0,0,1-4-1,15.47,15.47,0,0,1-5-3,91.22,91.22,0,0,1-19,3.66c-1.23.09-2.51.14-3.78.14a47.81,47.81,0,0,1-13.4-1.82"/><path class="cls-4" d="M1156.2,796.27c-1.17.87-5.31,4.29-5.23,8.85.11,7.28,2.77,9,15,9.58.75,0,1.43,0,2.15,0,12.37,0,25.68-5,36.86-14,9.43-7.59,15-19.74,16.89-24.2a16.78,16.78,0,0,1-6.46-1.18,16.07,16.07,0,0,1-4.68-3.63,13.57,13.57,0,0,1-1.58,1.81,11.39,11.39,0,0,1-3.66,2.12c-1.06,1.19-4.38,4.84-7.8,8a53.56,53.56,0,0,1-19.91,11.21,47.42,47.42,0,0,1-14.26,1.87c-3.46,0-6.28-.26-7.3-.36"/><path class="cls-4" d="M1158.91,711.18c-5.31,0-6.65,3-6.72,3.18-.91,1.38-3,8.65-2.57,17.29a97.88,97.88,0,0,0,3.16,17.73,14.87,14.87,0,0,1,5.39-1.1c1.13,0,4.07-.14,11.65-.29-.09-1.68-.27-5.28-.27-7.56,0-2.13-.13-8.7-.36-19v-.67c-.07-2.59-1-8.7-8.62-9.5-.54,0-1.08-.08-1.61-.08"/><path class="cls-4" d="M1137.8,710.57a10.68,10.68,0,0,0-5.12,1.36c-2.2,1.17-3.32,4.16-3.32,8.9,0,.65,0,1.35-.06,2.14a46.74,46.74,0,0,0,2.93,19.35c2.76,7.71,9.5,15,12.93,18.37a15.21,15.21,0,0,1,1-4,15.58,15.58,0,0,1,3-5,91.81,91.81,0,0,1-3.66-19,50.09,50.09,0,0,1,1.68-17.19,17.84,17.84,0,0,0-1.88-2.1,10,10,0,0,0-4.95-2.51,13.26,13.26,0,0,0-2.59-.29"/><path class="cls-4" d="M1116.23,712.42c-7.26.1-9,2.76-9.58,14.94-.62,12.94,4.49,27.16,14,39,7.57,9.4,19.74,15,24.2,16.88a16.93,16.93,0,0,1,1.19-6.45,16.42,16.42,0,0,1,3.63-4.69,12.43,12.43,0,0,1-1.81-1.58,11,11,0,0,1-2.12-3.66,107,107,0,0,1-8-7.8,53.42,53.42,0,0,1-11.21-19.91c-2.67-8.32-1.76-19-1.5-21.55-1-1.41-4.27-5.23-8.72-5.23Z"/><path class="cls-4" d="M1358.11,690.14a32.53,32.53,0,0,1,12.33,2.24,28.3,28.3,0,0,1,9.42,6.06,26.12,26.12,0,0,1,6,8.91,28.52,28.52,0,0,1,2.07,10.91,30.63,30.63,0,0,1-3.78,15.54q-3.78,6.57-12.33,10v.28a17.4,17.4,0,0,1,6.84,3.5,19.53,19.53,0,0,1,4.42,5.56,26.06,26.06,0,0,1,2.5,7.06,62.53,62.53,0,0,1,1.07,7.7c.09,1.62.18,3.51.28,5.7s.26,4.43.5,6.73a44.65,44.65,0,0,0,1.15,6.48,14.63,14.63,0,0,0,2.35,5.23h-22.42a39.28,39.28,0,0,1-2.27-11.55q-.43-6.72-1.29-12.83-1.14-8-4.85-11.7T1348,752.21h-22.41V792h-22.41V690.14Zm-8,46.06q7.71,0,11.55-3.43t3.85-11.12c0-4.94-1.28-8.52-3.85-10.77s-6.41-3.35-11.55-3.34H1325.6V736.2Z"/><path class="cls-4" d="M1454.42,690.14,1492.52,792h-23.28l-7.69-22.68h-38.11l-8,22.68H1393l38.5-101.81Zm1.28,62.45-12.83-37.36h-.28l-13.27,37.36Z"/><polygon class="cls-4" points="1519.7 690.14 1519.7 732.34 1559.49 690.14 1587.44 690.14 1547.65 730.35 1591.29 791.95 1563.19 791.95 1532.54 746.18 1519.7 759.16 1519.7 791.95 1497.32 791.95 1497.32 690.14 1519.7 690.14"/><path class="cls-4" d="M1621.74,703.45a13.69,13.69,0,1,1-14-13.32h.41a13.38,13.38,0,0,1,13.64,13.12v.2m-24,0a10.31,10.31,0,0,0,10.4,10.63c5.84,0,10.15-4.7,10.15-10.55s-4.31-10.72-10.23-10.72a10.35,10.35,0,0,0-10.32,10.64m8.22,7h-3.08V697.11a27.38,27.38,0,0,1,5.11-.4,8.3,8.3,0,0,1,4.63,1,3.66,3.66,0,0,1,1.3,2.92c0,1.5-1.14,2.6-2.76,3.09v.16c1.3.49,2,1.5,2.43,3.25a10,10,0,0,0,1,3.33h-3.33a11.82,11.82,0,0,1-1.06-3.24c-.24-1.5-1-2.12-2.76-2.12H1606Zm.08-7.55h1.49c1.71,0,3.09-.57,3.09-2,0-1.22-.9-2-2.85-2a7.48,7.48,0,0,0-1.7.16Z"/></g></g></g></svg>