<svg xmlns="http://www.w3.org/2000/svg" viewBox="0 0 914.67 1403.58"><defs><style>.cls-1,.cls-16,.cls-9{fill:none;stroke-miterlimit:10;}.cls-1,.cls-16{stroke:#333;}.cls-1{stroke-width:0.75px;}.cls-2{fill:#242424;}.cls-3,.cls-6{fill:#deaa53;}.cls-4{fill:#fff;}.cls-5{fill:#b2b2b2;}.cls-10,.cls-6{isolation:isolate;}.cls-6{opacity:0.8;}.cls-7{fill:#e5e5e5;}.cls-8{fill:#f2f2f2;}.cls-9{stroke:#deaa53;stroke-width:11px;}.cls-11{fill:#896200;}.cls-12{fill:#333;}.cls-13{fill:#232323;}.cls-14{fill:#d4d4d4;}.cls-15{fill:#c1c3c2;}.cls-16{stroke-width:2px;}</style></defs><g id="Layer_2" data-name="Layer 2"><g id="Layer_1-2" data-name="Layer 1"><line class="cls-1" x1="181.5" y1="1403.2" x2="73.9" y2="1403.2"/><path class="cls-2" d="M412.9,1319.9a18,18,0,0,1,17.9-17.9h2.1a18,18,0,0,1,17.9,17.9v83.3H849.5a8.24,8.24,0,0,0,8.2-8.2v-58.7c0-13.3,13.1-19.5,13.1-19.5h28.1a15.41,15.41,0,0,0,15.4-15.4h0V121.8a15.41,15.41,0,0,0-15.4-15.4H164.5a15.41,15.41,0,0,0-15.4,15.4V1301.3a15.41,15.41,0,0,0,15.4,15.4h19.2c17.8,0,19.3,20.7,19.3,20.7V1395a8.24,8.24,0,0,0,8.2,8.2H412.8v-83.3Z"/><rect class="cls-3" x="154.8" y="112.2" width="136.7" height="136.7"/><circle class="cls-4" cx="225.04" cy="180.62" r="34.2" transform="translate(-39.39 296.13) rotate(-62.35)"/><rect class="cls-3" x="769.5" y="112.2" width="136.7" height="136.7"/><circle class="cls-4" cx="839.8" cy="180.6" r="34.2"/><path class="cls-5" d="M391.7,204.4v-8.6a3.37,3.37,0,0,0-3.4-3.4H368.4a3.44,3.44,0,0,0-3.4,3.4v8.6Z"/><rect class="cls-6" x="370.1" y="117.3" width="16.5" height="80.2"/><rect class="cls-7" x="326.4" y="122.1" width="104.1" height="58.9"/><path class="cls-8" d="M363.7,125.8h30a19,19,0,0,1,18.9,18.9v25.7a19,19,0,0,1-18.9,18.9h-30a19,19,0,0,1-18.9-18.9V144.7A18.88,18.88,0,0,1,363.7,125.8Z"/><circle class="cls-9" cx="378.5" cy="155.1" r="24"/><circle class="cls-3" cx="378.5" cy="155.1" r="6.8"/><path class="cls-5" d="M695.7,204.4v-8.6a3.4,3.4,0,0,0-3.5-3.4H672.3a3.37,3.37,0,0,0-3.4,3.4v8.6Z"/><rect class="cls-6" x="674.1" y="117.3" width="16.5" height="80.2"/><rect class="cls-7" x="630.5" y="122.1" width="104.1" height="58.9"/><path class="cls-8" d="M667.7,125.8h30a19,19,0,0,1,18.9,18.9v25.7a19,19,0,0,1-18.9,18.9h-30a19,19,0,0,1-18.9-18.9V144.7A18.88,18.88,0,0,1,667.7,125.8Z"/><circle class="cls-9" cx="682.5" cy="155.1" r="24"/><circle class="cls-3" cx="682.5" cy="155.1" r="6.8"/><g class="cls-10"><path class="cls-4" d="M761.8,164.8a8.23,8.23,0,0,1,3,6.6c0,6.1-5,9.8-10.3,9.8-6,0-11.1-3.3-11.1-9.8,0-4.5,2-8.1,6.8-8.8v2.7c-3.1.5-4.5,3-4.5,6.1,0,5,4.3,7,8.7,7s8.2-2.5,8.2-7a6.22,6.22,0,0,0-6.7-6.6v6.5h-2.3v-9h10.8V164Z"/><path class="cls-4" d="M743.9,158.4v-9c0-4.1,2.2-6.3,6.1-6.3s6.1,2.2,6.1,6.3v6.3h8.4v2.7Zm9.8-2.7v-5.3c0-3.1-1.3-4.5-3.8-4.5s-3.8,1.4-3.8,4.5v5.3Z"/><path class="cls-4" d="M749.9,127.9c-3,.3-4.2,2.2-4.2,5.1,0,2.3.8,4.6,3.5,4.6,5.1,0,1.5-13.1,9.6-13.1,4.4,0,6.1,4.3,6.1,8,0,4.6-2.3,8.5-7.2,8.5v-2.6c3.4,0,4.9-2.9,4.9-6,0-2.5-.8-5.2-3.7-5.2-5.6,0-1.9,13.1-9.4,13.1-4.1,0-6-3.7-6-7.4,0-4.2,2-7.4,6.5-7.6l-.1,2.6Z"/></g><g class="cls-10"><path class="cls-4" d="M447.9,234.8V231h25.6V215.7h3.2v19.1Z"/><path class="cls-4" d="M455.4,203.9c0-6.6,4.8-10.1,11-10.1s10.9,3.5,10.9,10.1S472.5,214,466.4,214,455.4,210.5,455.4,203.9Zm18.8,0c0-3.6-2.8-6.5-7.9-6.5s-7.9,2.9-7.9,6.5,2.9,6.5,7.9,6.5S474.2,207.5,474.2,203.9Z"/><path class="cls-4" d="M447.9,189.1V175.5c0-5.5,2.9-8.8,7.6-8.8,3.5,0,6.3,1.5,7.3,5h.1c.6-3.4,3.2-4,5.9-4.3s6-.1,8-1.7V170c-1.2,1.1-4.3.5-7.1,1.1-2.8.4-5.2,1.1-5.2,4.8v9.4h12.3v3.8Zm13.3-11.8c0-3.6-.9-6.7-5.1-6.7-2.9,0-4.9,1.5-4.9,5.1v9.5h10.1v-7.9Z"/><path class="cls-4" d="M476.7,143.5a4.63,4.63,0,0,1,.6,2.5c0,1.8-1,2.9-3.2,2.9a9,9,0,0,1,3.2,7.4c0,3.8-1.7,6.9-5.9,6.9-4.7,0-5.8-3.5-6.4-7.1-.8-3.8-.4-7-3.1-7-3,0-3.5,2.5-3.5,4.6,0,2.9.9,5.1,4,5.2v3.4c-5.2-.2-7-4.2-7-8.9,0-3.8.8-7.8,5.7-7.8h10.8c1.6,0,2.3,0,2.3-1.1a5.16,5.16,0,0,0-.2-1.1h2.7v.1ZM466,149.1c2,2.7,0,10.4,5.2,10.4,2.3,0,3.1-1.9,3.1-4,0-4.5-2.8-6.4-4.7-6.4Z"/></g><g class="cls-10"><path class="cls-4" d="M446.2,133.5a8.75,8.75,0,1,1,8.7,8.8A8.73,8.73,0,0,1,446.2,133.5Zm16.2,0a7.45,7.45,0,1,0-7.5,7.2A7.18,7.18,0,0,0,462.4,133.5Zm-12.6,3.4v-4c0-2.4,1-3.6,2.9-3.6s2.6,1.2,2.8,2.7l4.5-2.9v1.7l-4.4,2.8v1.7H460v1.6Zm4.6-1.6v-1.7c0-1.4-.1-2.7-1.7-2.7-1.4,0-1.6,1.2-1.6,2.3v2.1Z"/></g><path class="cls-11" d="M857.8,1334.9v60a8.24,8.24,0,0,1-8.2,8.2H450.8v-68.2Z"/><path class="cls-11" d="M203.1,1394.9v-57.6a20,20,0,0,0-.4-2.4H412.9v68.2H211.3A8.17,8.17,0,0,1,203.1,1394.9Z"/><path class="cls-7" d="M501.4,234.1v-27c0-2.1,1.3-3.9,2.8-3.9h6.5c1.6,0,2.8,1.8,2.8,3.9v27c0,2.1-1.3,3.9-2.8,3.9h-6.5C502.6,237.9,501.4,236.2,501.4,234.1Z"/><rect class="cls-12" x="501.3" y="212.6" width="12.2" height="15.9"/><path class="cls-7" d="M526.5,234.1v-27c0-2.1,1.3-3.9,2.8-3.9h6.5c1.6,0,2.8,1.8,2.8,3.9v27c0,2.1-1.3,3.9-2.8,3.9h-6.5C527.7,237.9,526.5,236.2,526.5,234.1Z"/><rect class="cls-12" x="526.4" y="212.6" width="12.2" height="15.9"/><path class="cls-7" d="M551.5,234.1v-27c0-2.1,1.3-3.9,2.8-3.9h6.5c1.6,0,2.8,1.8,2.8,3.9v27c0,2.1-1.3,3.9-2.8,3.9h-6.5C552.8,237.9,551.5,236.2,551.5,234.1Z"/><rect class="cls-12" x="551.5" y="212.6" width="12.2" height="15.9"/><path class="cls-7" d="M380.9,232.9h21.6c1.7,0,3.1,1.1,3.1,2.3v5.4c0,1.3-1.4,2.3-3.1,2.3H380.9c-1.7,0-3.1-1.1-3.1-2.3v-5.4C377.8,234,379.2,232.9,380.9,232.9Z"/><rect class="cls-13" x="386.2" y="232.9" width="11.5" height="10.1"/><rect class="cls-7" x="487.8" y="132.1" width="24" height="58.1"/><rect class="cls-14" x="487.8" y="139.3" width="24" height="8.6"/><rect class="cls-14" x="487.8" y="174.4" width="24" height="8.6"/><path class="cls-3" d="M511.8,149.2v23.9c0,2.9-2,5.3-4.5,5.3h-15c-2.5,0-4.4-2.4-4.4-5.3V149.2c0-2.9,2-5.3,4.4-5.3h15.1C509.8,143.9,511.8,146.3,511.8,149.2Z"/><rect class="cls-7" x="520.6" y="132.1" width="24" height="58.1"/><rect class="cls-14" x="520.6" y="139.3" width="24" height="8.6"/><rect class="cls-14" x="520.6" y="174.4" width="24" height="8.6"/><path class="cls-3" d="M544.5,149.2v23.9c0,2.9-2,5.3-4.4,5.3H525c-2.5,0-4.5-2.4-4.5-5.3V149.2c0-2.9,2-5.3,4.5-5.3h15.1C542.5,143.9,544.5,146.3,544.5,149.2Z"/><rect class="cls-7" x="553.3" y="132.1" width="24" height="58.1"/><rect class="cls-14" x="553.3" y="139.3" width="24" height="8.6"/><rect class="cls-14" x="553.3" y="174.4" width="24" height="8.6"/><path class="cls-3" d="M577.3,149.2v23.9c0,2.9-2,5.3-4.4,5.3H557.8c-2.5,0-4.4-2.4-4.4-5.3V149.2c0-2.9,2-5.3,4.4-5.3h15.1C575.3,143.9,577.3,146.3,577.3,149.2Z"/><path class="cls-15" d="M161.5,278v865.9a10.71,10.71,0,0,0,10.7,10.7h133V1285a9.65,9.65,0,0,0,9.7,9.7H896.6a9.65,9.65,0,0,0,9.7-9.7V278a10.71,10.71,0,0,0-10.7-10.7H172.2A10.71,10.71,0,0,0,161.5,278Z"/><path class="cls-3" d="M370.1,1399.5h6.5s0-4.8,3.9-4.8v-61.5c-3.9,0-3.9-4.8-3.9-4.8h-6.5c0,4.7-3.9,4.8-3.9,4.8v61.5S370.1,1394.8,370.1,1399.5Z"/><path class="cls-3" d="M350,1399.5h6.5s0-4.8,3.9-4.8v-61.5c-3.9,0-3.9-4.8-3.9-4.8H350c0,4.7-3.9,4.8-3.9,4.8v61.5S350,1394.8,350,1399.5Z"/><path class="cls-3" d="M329.9,1399.5h6.5s0-4.8,3.9-4.8v-61.5c-3.9,0-3.9-4.8-3.9-4.8h-6.5c0,4.7-3.9,4.8-3.9,4.8v61.5S329.9,1394.8,329.9,1399.5Z"/><path class="cls-3" d="M309.8,1399.5h6.5s0-4.8,3.9-4.8v-61.5c-3.9,0-3.9-4.8-3.9-4.8h-6.5c0,4.7-3.9,4.8-3.9,4.8v61.5S309.8,1394.8,309.8,1399.5Z"/><path class="cls-3" d="M289.7,1399.5h6.5s0-4.8,3.9-4.8v-61.5c-3.9,0-3.9-4.8-3.9-4.8h-6.5c0,4.7-3.9,4.8-3.9,4.8v61.5S289.7,1394.8,289.7,1399.5Z"/><path class="cls-3" d="M269.6,1399.5h6.5s0-4.8,3.9-4.8v-61.5c-3.9,0-3.9-4.8-3.9-4.8h-6.5c0,4.7-3.9,4.8-3.9,4.8v61.5S269.6,1394.8,269.6,1399.5Z"/><path class="cls-3" d="M249.5,1399.5H256s0-4.8,3.9-4.8v-61.5c-3.9,0-3.9-4.8-3.9-4.8h-6.5c0,4.7-3.9,4.8-3.9,4.8v61.5S249.5,1394.8,249.5,1399.5Z"/><path class="cls-3" d="M229.4,1399.5h6.5s0-4.8,3.9-4.8v-61.5c-3.9,0-3.9-4.8-3.9-4.8h-6.5c0,4.7-3.9,4.8-3.9,4.8v61.5S229.4,1394.8,229.4,1399.5Z"/><path class="cls-3" d="M613.9,1399.5h6.5s0-4.8,3.9-4.8v-61.5c-3.9,0-3.9-4.8-3.9-4.8h-6.5c0,4.7-3.9,4.8-3.9,4.8v61.5S613.9,1394.8,613.9,1399.5Z"/><path class="cls-3" d="M593.8,1399.5h6.5s0-4.8,3.9-4.8v-61.5c-3.9,0-3.9-4.8-3.9-4.8h-6.5c0,4.7-3.9,4.8-3.9,4.8v61.5S593.8,1394.8,593.8,1399.5Z"/><path class="cls-3" d="M573.7,1399.5h6.6s0-4.8,3.9-4.8v-61.5c-3.9,0-3.9-4.8-3.9-4.8h-6.5c0,4.7-3.9,4.8-3.9,4.8v61.5S573.7,1394.8,573.7,1399.5Z"/><path class="cls-3" d="M553.6,1399.5h6.5s0-4.8,3.9-4.8v-61.5c-3.9,0-3.9-4.8-3.9-4.8h-6.5c0,4.7-3.9,4.8-3.9,4.8v61.5S553.6,1394.8,553.6,1399.5Z"/><path class="cls-3" d="M533.5,1399.5H540s0-4.8,3.9-4.8v-61.5c-3.9,0-3.9-4.8-3.9-4.8h-6.5c0,4.7-3.9,4.8-3.9,4.8v61.5S533.5,1394.8,533.5,1399.5Z"/><path class="cls-3" d="M513.4,1399.5h6.5s0-4.8,3.9-4.8v-61.5c-3.9,0-3.9-4.8-3.9-4.8h-6.5c0,4.7-3.9,4.8-3.9,4.8v61.5S513.4,1394.8,513.4,1399.5Z"/><path class="cls-3" d="M493.3,1399.5h6.5s0-4.8,3.9-4.8v-61.5c-3.9,0-3.9-4.8-3.9-4.8h-6.5c0,4.7-3.9,4.8-3.9,4.8v61.5S493.3,1394.8,493.3,1399.5Z"/><path class="cls-3" d="M473.2,1399.5h6.5s0-4.8,3.9-4.8v-61.5c-3.9,0-3.9-4.8-3.9-4.8h-6.5c0,4.7-3.9,4.8-3.9,4.8v61.5S473.2,1394.8,473.2,1399.5Z"/><path class="cls-3" d="M775.8,1399.5h6.5s0-4.8,3.9-4.8v-61.5c-3.9,0-3.9-4.8-3.9-4.8h-6.5c0,4.7-3.9,4.8-3.9,4.8v61.5S775.8,1394.8,775.8,1399.5Z"/><path class="cls-3" d="M796.7,1399.5h6.6s0-4.8,3.9-4.8v-61.5c-3.9,0-3.9-4.8-3.9-4.8h-6.5c0,4.7-3.9,4.8-3.9,4.8v61.5C792.8,1394.7,796.7,1394.8,796.7,1399.5Z"/><path class="cls-3" d="M817,1399.5h6.5s0-4.8,3.9-4.8v-61.5c-3.9,0-3.9-4.8-3.9-4.8H817c0,4.7-3.9,4.8-3.9,4.8v61.5S817,1394.8,817,1399.5Z"/><path class="cls-3" d="M755.7,1399.5h6.5s0-4.8,3.9-4.8v-61.5c-3.9,0-3.9-4.8-3.9-4.8h-6.5c0,4.7-3.9,4.8-3.9,4.8v61.5S755.7,1394.8,755.7,1399.5Z"/><path class="cls-3" d="M735.6,1399.5h6.5s0-4.8,3.9-4.8v-61.5c-3.9,0-3.9-4.8-3.9-4.8h-6.5c0,4.7-3.9,4.8-3.9,4.8v61.5S735.6,1394.8,735.6,1399.5Z"/><path class="cls-3" d="M715.5,1399.5H722s0-4.8,3.9-4.8v-61.5c-3.9,0-3.9-4.8-3.9-4.8h-6.5c0,4.7-3.9,4.8-3.9,4.8v61.5S715.5,1394.8,715.5,1399.5Z"/><path class="cls-3" d="M695.4,1399.5h6.5s0-4.8,3.9-4.8v-61.5c-3.9,0-3.9-4.8-3.9-4.8h-6.5c0,4.7-3.9,4.8-3.9,4.8v61.5S695.4,1394.8,695.4,1399.5Z"/><path class="cls-3" d="M675.3,1399.5h6.5s0-4.8,3.9-4.8v-61.5c-3.9,0-3.9-4.8-3.9-4.8h-6.5c0,4.7-3.9,4.8-3.9,4.8v61.5S675.3,1394.8,675.3,1399.5Z"/><path class="cls-3" d="M655.2,1399.5h6.5s0-4.8,3.9-4.8v-61.5c-3.9,0-3.9-4.8-3.9-4.8h-6.5c0,4.7-3.9,4.8-3.9,4.8v61.5S655.2,1394.8,655.2,1399.5Z"/><path class="cls-3" d="M635.1,1399.5h6.5s0-4.8,3.9-4.8v-61.5c-3.9,0-3.9-4.8-3.9-4.8h-6.5c0,4.7-3.9,4.8-3.9,4.8v61.5S635.1,1394.8,635.1,1399.5Z"/><line class="cls-1" x1="914.3" y1="73.5" x2="914.3" y2="30.4"/><line class="cls-1" x1="149.1" y1="73.5" x2="149.1" y2="30.4"/><line class="cls-16" x1="149.1" y1="52" x2="914.3" y2="52"/><g class="cls-10"><path class="cls-12" d="M466.1,15.5a3.75,3.75,0,0,0,1,.1h.9c3.7,0,6.9-2,6.9-5.9s-2.7-5.8-6.4-5.8c-4.7,0-6.8,3.6-6.8,7.8h-4.4C457.6,4.8,461.2.1,468.4.1c6.3,0,11,3,11,9.7a8.2,8.2,0,0,1-5,7.2v.1c4.4,1,6.5,4.4,6.5,8.7,0,7.2-5.6,11-12.4,11-7.3,0-12.1-4.3-12-11.7h4.3c.2,4.7,2.7,7.9,7.7,7.9,4.2,0,7.8-2.6,7.8-7s-3.4-6.9-7.7-6.9a21.12,21.12,0,0,0-2.6.2V15.5Z"/><path class="cls-12" d="M500,0c11.3,0,12,10.4,12,18.3s-.7,18.3-12,18.3-12-10.4-12-18.3S488.7,0,500,0Zm0,32.9c7.4,0,7.4-9.1,7.4-14.5S507.3,3.9,500,3.9s-7.4,9.1-7.4,14.5S492.6,32.9,500,32.9Z"/><path class="cls-12" d="M519.9,9.8H524v3.9h.1a9.59,9.59,0,0,1,8.5-4.5c3.3,0,6.2,1.2,7.2,4.5A9.65,9.65,0,0,1,548,9.2c5.2,0,8.7,2.2,8.7,7.6V36.1h-4.3V18.8c0-3.3-.9-5.8-5.1-5.8s-6.9,2.6-6.9,6.7V36.1h-4.3V18.8c0-3.4-1.1-5.8-4.9-5.8a7.08,7.08,0,0,0-7,6.7V36.1h-4.3Z"/><path class="cls-12" d="M565.8,9.8h4.1v3.9h.1a9.59,9.59,0,0,1,8.5-4.5c3.3,0,6.2,1.2,7.2,4.5a9.65,9.65,0,0,1,8.2-4.5c5.2,0,8.7,2.2,8.7,7.6V36.1h-4.3V18.8c0-3.3-.9-5.8-5.1-5.8s-6.9,2.6-6.9,6.7V36.1H582V18.8c0-3.4-1.1-5.8-4.9-5.8a7.08,7.08,0,0,0-7,6.7V36.1h-4.3Z"/></g><line class="cls-1" x1="117" y1="106.4" x2="74" y2="106.4"/><line class="cls-16" x1="95.5" y1="1403.2" x2="95.5" y2="106.4"/><g class="cls-10"><path class="cls-12" d="M4.4,846.7v14.5l10.4,1.9.1-.1a9.12,9.12,0,0,1-2.6-6.7c0-6.4,4.1-11.6,12.4-11.6,6.1,0,12,4.2,12,12.6,0,6.3-3.8,11.3-10.3,11.5v-4.3c3.7-.3,6.5-3.3,6.5-7.6,0-4.1-2.8-7.6-8.5-7.6a7.85,7.85,0,0,0-8.2,8.1,8.68,8.68,0,0,0,3.4,6.7l-.2,3.7L.7,864.4V846.6l3.7.1Z"/><path class="cls-12" d="M0,825.7c0-11.3,10.4-12,18.3-12s18.3.7,18.3,12-10.4,12-18.3,12S0,837,0,825.7Zm32.8,0c0-7.4-9.1-7.4-14.5-7.4s-14.5.1-14.5,7.4,9.1,7.4,14.5,7.4S32.8,833.1,32.8,825.7Z"/><path class="cls-12" d="M30.4,804.8v-5.6H36v5.6Z"/><path class="cls-12" d="M27.4,785.5c3.5-.4,5.5-3.2,5.5-6.6,0-5.3-4.6-7.9-13.9-8.1l-.1.1a9.48,9.48,0,0,1,5,8.3c0,7.4-4.9,11.4-12,11.4C5,790.6.2,785.7.2,778.8c0-6.7,3.6-12.4,17.2-12.4,12.5,0,19.4,3.8,19.4,12.5,0,6-3.1,10.4-9.3,10.9l-.1-4.3ZM3.8,779c0,5.1,4.1,7.1,8.5,7.1,3.9,0,7.6-2.9,7.6-7.1,0-4.5-3.7-7.4-7.9-7.4C7.6,771.6,3.8,774.1,3.8,779Z"/><path class="cls-12" d="M9.2,740.5a5.71,5.71,0,0,0-5.4,6c0,7.3,8.1,8.6,13.7,8.7l.1-.1c-3.3-2-4.7-5.1-4.7-9,0-6.9,5-11,11.7-11,5.3,0,12.1,2.9,12.1,12,0,10.7-9.8,12.4-17.3,12.4-9.9,0-19.3-3-19.3-13.3,0-5.9,3.3-9.6,9.2-10.2l-.1,4.5Zm15.6,14c4.5,0,8-2.7,8-7.5s-3.7-7.3-8-7.3c-4.5,0-8.2,2.3-8.2,7.3C16.7,751.8,20.3,754.5,24.8,754.5Z"/><path class="cls-12" d="M9.8,727.5v-4.1h3.9v-.1a9.59,9.59,0,0,1-4.5-8.5c0-3.3,1.2-6.2,4.5-7.2a9.65,9.65,0,0,1-4.5-8.2c0-5.2,2.2-8.7,7.6-8.7H36.1V695H18.8c-3.3,0-5.8.9-5.8,5.1s2.6,6.9,6.7,6.9H36.1v4.3H18.8c-3.4,0-5.8,1.1-5.8,4.9a7.08,7.08,0,0,0,6.7,7H36.1v4.3Z"/><path class="cls-12" d="M9.8,681.6v-4.1h3.9v-.1a9.59,9.59,0,0,1-4.5-8.5c0-3.3,1.2-6.2,4.5-7.2a9.65,9.65,0,0,1-4.5-8.2c0-5.2,2.2-8.7,7.6-8.7H36.1v4.3H18.8c-3.3,0-5.8.9-5.8,5.1s2.6,6.9,6.7,6.9H36.1v4.3H18.8c-3.4,0-5.8,1.1-5.8,4.9a7.08,7.08,0,0,0,6.7,7H36.1v4.3Z"/></g><path class="cls-4" d="M194.65,276.35h678.5a27.7,27.7,0,0,1,27.7,27.7v545.8a27.7,27.7,0,0,1-27.7,27.7H194.65a27.7,27.7,0,0,1-27.7-27.7V304.05A27.7,27.7,0,0,1,194.65,276.35Z"/><rect x="470.85" y="720.35" width="10.8" height="10.9"/><rect x="470.85" y="709.45" width="10.8" height="10.9"/><rect x="470.85" y="698.55" width="10.8" height="10.9"/><rect x="470.85" y="687.75" width="10.8" height="10.9"/><rect x="470.85" y="676.85" width="10.8" height="10.9"/><rect x="470.85" y="665.95" width="10.8" height="10.9"/><rect x="470.85" y="644.25" width="10.8" height="10.9"/><rect x="470.85" y="611.65" width="10.8" height="10.9"/><rect x="470.85" y="579.05" width="10.8" height="10.9"/><rect x="470.85" y="568.15" width="10.8" height="10.9"/><rect x="470.85" y="557.25" width="10.8" height="10.9"/><rect x="470.85" y="546.45" width="10.8" height="10.9"/><rect x="470.85" y="535.55" width="10.8" height="10.9"/><rect x="470.85" y="524.65" width="10.8" height="10.9"/><rect x="470.85" y="513.85" width="10.8" height="10.9"/><rect x="460.05" y="698.55" width="10.8" height="10.9"/><rect x="460.05" y="687.75" width="10.8" height="10.9"/><rect x="460.05" y="655.15" width="10.8" height="10.9"/><rect x="460.05" y="644.25" width="10.8" height="10.9"/><rect x="460.05" y="633.35" width="10.8" height="10.9"/><rect x="460.05" y="622.55" width="10.8" height="10.9"/><rect x="460.05" y="611.65" width="10.8" height="10.9"/><rect x="460.05" y="600.75" width="10.8" height="10.9"/><rect x="460.05" y="579.05" width="10.8" height="10.9"/><rect x="460.05" y="513.85" width="10.8" height="10.9"/><rect x="449.25" y="731.25" width="10.8" height="10.9"/><rect x="449.25" y="709.45" width="10.8" height="10.9"/><rect x="449.25" y="687.75" width="10.8" height="10.9"/><rect x="449.25" y="665.95" width="10.8" height="10.9"/><rect x="449.25" y="600.75" width="10.8" height="10.9"/><rect x="449.25" y="579.05" width="10.8" height="10.9"/><rect x="449.25" y="557.25" width="10.8" height="10.9"/><rect x="449.25" y="546.45" width="10.8" height="10.9"/><rect x="449.25" y="535.55" width="10.8" height="10.9"/><rect x="449.25" y="513.85" width="10.8" height="10.9"/><rect x="438.45" y="731.25" width="10.8" height="10.9"/><rect x="438.45" y="720.35" width="10.8" height="10.9"/><rect x="438.45" y="676.85" width="10.8" height="10.9"/><rect x="438.45" y="665.95" width="10.8" height="10.9"/><rect x="438.45" y="655.15" width="10.8" height="10.9"/><rect x="438.45" y="611.65" width="10.8" height="10.9"/><rect x="438.45" y="579.05" width="10.8" height="10.9"/><rect x="438.45" y="557.25" width="10.8" height="10.9"/><rect x="438.45" y="546.45" width="10.8" height="10.9"/><rect x="438.45" y="535.55" width="10.8" height="10.9"/><rect x="438.45" y="513.85" width="10.8" height="10.9"/><rect x="427.75" y="709.45" width="10.8" height="10.9"/><rect x="427.75" y="665.95" width="10.8" height="10.9"/><rect x="427.75" y="633.35" width="10.8" height="10.9"/><rect x="427.75" y="600.75" width="10.8" height="10.9"/><rect x="427.75" y="579.05" width="10.8" height="10.9"/><rect x="427.75" y="557.25" width="10.8" height="10.9"/><rect x="427.75" y="546.45" width="10.8" height="10.9"/><rect x="427.75" y="535.55" width="10.8" height="10.9"/><rect x="427.75" y="513.85" width="10.8" height="10.9"/><rect x="416.95" y="720.35" width="10.8" height="10.9"/><rect x="416.95" y="676.85" width="10.8" height="10.9"/><rect x="416.95" y="655.15" width="10.8" height="10.9"/><rect x="416.95" y="644.25" width="10.8" height="10.9"/><rect x="416.95" y="622.55" width="10.8" height="10.9"/><rect x="416.95" y="600.75" width="10.8" height="10.9"/><rect x="416.95" y="579.05" width="10.8" height="10.9"/><rect x="416.95" y="513.85" width="10.8" height="10.9"/><rect x="406.15" y="720.35" width="10.8" height="10.9"/><rect x="406.15" y="698.55" width="10.8" height="10.9"/><rect x="406.15" y="687.75" width="10.8" height="10.9"/><rect x="406.15" y="676.85" width="10.8" height="10.9"/><rect x="406.15" y="665.95" width="10.8" height="10.9"/><rect x="406.15" y="655.15" width="10.8" height="10.9"/><rect x="406.15" y="644.25" width="10.8" height="10.9"/><rect x="406.15" y="633.35" width="10.8" height="10.9"/><rect x="406.15" y="622.55" width="10.8" height="10.9"/><rect x="406.15" y="611.65" width="10.8" height="10.9"/><rect x="406.15" y="600.75" width="10.8" height="10.9"/><rect x="406.15" y="579.05" width="10.8" height="10.9"/><rect x="406.15" y="568.15" width="10.8" height="10.9"/><rect x="406.15" y="557.25" width="10.8" height="10.9"/><rect x="406.15" y="546.45" width="10.8" height="10.9"/><rect x="406.15" y="535.55" width="10.8" height="10.9"/><rect x="406.15" y="524.65" width="10.8" height="10.9"/><rect x="406.15" y="513.85" width="10.8" height="10.9"/><rect x="395.35" y="720.35" width="10.8" height="10.9"/><rect x="395.35" y="709.45" width="10.8" height="10.9"/><rect x="395.35" y="687.75" width="10.8" height="10.9"/><rect x="395.35" y="644.25" width="10.8" height="10.9"/><rect x="395.35" y="633.35" width="10.8" height="10.9"/><rect x="395.35" y="622.55" width="10.8" height="10.9"/><rect x="384.55" y="709.45" width="10.8" height="10.9"/><rect x="384.55" y="687.75" width="10.8" height="10.9"/><rect x="384.55" y="665.95" width="10.8" height="10.9"/><rect x="384.55" y="633.35" width="10.8" height="10.9"/><rect x="384.55" y="600.75" width="10.8" height="10.9"/><rect x="384.55" y="579.05" width="10.8" height="10.9"/><rect x="384.55" y="557.25" width="10.8" height="10.9"/><rect x="384.55" y="546.45" width="10.8" height="10.9"/><rect x="384.55" y="524.65" width="10.8" height="10.9"/><rect x="384.55" y="513.85" width="10.8" height="10.9"/><rect x="373.75" y="731.25" width="10.8" height="10.9"/><rect x="373.75" y="720.35" width="10.8" height="10.9"/><rect x="373.75" y="676.85" width="10.8" height="10.9"/><rect x="373.75" y="665.95" width="10.8" height="10.9"/><rect x="373.75" y="655.15" width="10.8" height="10.9"/><rect x="373.75" y="644.25" width="10.8" height="10.9"/><rect x="373.75" y="622.55" width="10.8" height="10.9"/><rect x="373.75" y="611.65" width="10.8" height="10.9"/><rect x="373.75" y="600.75" width="10.8" height="10.9"/><rect x="373.75" y="557.25" width="10.8" height="10.9"/><rect x="373.75" y="535.55" width="10.8" height="10.9"/><rect x="362.95" y="731.25" width="10.8" height="10.9"/><rect x="362.95" y="676.85" width="10.8" height="10.9"/><rect x="362.95" y="665.95" width="10.8" height="10.9"/><rect x="362.95" y="633.35" width="10.8" height="10.9"/><rect x="362.95" y="622.55" width="10.8" height="10.9"/><rect x="362.95" y="611.65" width="10.8" height="10.9"/><rect x="362.95" y="600.75" width="10.8" height="10.9"/><rect x="362.95" y="579.05" width="10.8" height="10.9"/><rect x="362.95" y="568.15" width="10.8" height="10.9"/><rect x="362.95" y="557.25" width="10.8" height="10.9"/><rect x="362.95" y="535.55" width="10.8" height="10.9"/><rect x="362.95" y="524.65" width="10.8" height="10.9"/><rect x="362.95" y="513.85" width="10.8" height="10.9"/><rect x="352.15" y="720.35" width="10.8" height="10.9"/><rect x="352.15" y="665.95" width="10.8" height="10.9"/><rect x="352.15" y="655.15" width="10.8" height="10.9"/><rect x="352.15" y="644.25" width="10.8" height="10.9"/><rect x="352.15" y="633.35" width="10.8" height="10.9"/><rect x="352.15" y="611.65" width="10.8" height="10.9"/><rect x="352.15" y="568.15" width="10.8" height="10.9"/><rect x="352.15" y="557.25" width="10.8" height="10.9"/><rect x="341.35" y="731.25" width="10.8" height="10.9"/><rect x="341.35" y="720.35" width="10.8" height="10.9"/><rect x="341.35" y="698.55" width="10.8" height="10.9"/><rect x="341.35" y="665.95" width="10.8" height="10.9"/><rect x="341.35" y="655.15" width="10.8" height="10.9"/><rect x="341.35" y="644.25" width="10.8" height="10.9"/><rect x="341.35" y="611.65" width="10.8" height="10.9"/><rect x="341.35" y="589.95" width="10.8" height="10.9"/><rect x="341.35" y="579.05" width="10.8" height="10.9"/><rect x="341.35" y="568.15" width="10.8" height="10.9"/><rect x="341.35" y="557.25" width="10.8" height="10.9"/><rect x="341.35" y="535.55" width="10.8" height="10.9"/><rect x="341.35" y="524.65" width="10.8" height="10.9"/><rect x="330.65" y="633.35" width="10.8" height="10.9"/><rect x="330.65" y="600.75" width="10.8" height="10.9"/><rect x="319.85" y="731.25" width="10.8" height="10.9"/><rect x="319.85" y="720.35" width="10.8" height="10.9"/><rect x="319.85" y="709.45" width="10.8" height="10.9"/><rect x="319.85" y="698.55" width="10.8" height="10.9"/><rect x="319.85" y="687.75" width="10.8" height="10.9"/><rect x="319.85" y="676.85" width="10.8" height="10.9"/><rect x="319.85" y="665.95" width="10.8" height="10.9"/><rect x="319.85" y="644.25" width="10.8" height="10.9"/><rect x="319.85" y="622.55" width="10.8" height="10.9"/><rect x="319.85" y="600.75" width="10.8" height="10.9"/><rect x="319.85" y="579.05" width="10.8" height="10.9"/><rect x="319.85" y="568.15" width="10.8" height="10.9"/><rect x="319.85" y="557.25" width="10.8" height="10.9"/><rect x="319.85" y="546.45" width="10.8" height="10.9"/><rect x="319.85" y="535.55" width="10.8" height="10.9"/><rect x="319.85" y="524.65" width="10.8" height="10.9"/><rect x="319.85" y="513.85" width="10.8" height="10.9"/><rect x="309.05" y="731.25" width="10.8" height="10.9"/><rect x="309.05" y="665.95" width="10.8" height="10.9"/><rect x="309.05" y="622.55" width="10.8" height="10.9"/><rect x="309.05" y="579.05" width="10.8" height="10.9"/><rect x="309.05" y="513.85" width="10.8" height="10.9"/><rect x="298.25" y="731.25" width="10.8" height="10.9"/><rect x="298.25" y="709.45" width="10.8" height="10.9"/><rect x="298.25" y="698.55" width="10.8" height="10.9"/><rect x="298.25" y="687.75" width="10.8" height="10.9"/><rect x="298.25" y="665.95" width="10.8" height="10.9"/><rect x="298.25" y="633.35" width="10.8" height="10.9"/><rect x="298.25" y="622.55" width="10.8" height="10.9"/><rect x="298.25" y="579.05" width="10.8" height="10.9"/><rect x="298.25" y="557.25" width="10.8" height="10.9"/><rect x="298.25" y="546.45" width="10.8" height="10.9"/><rect x="298.25" y="535.55" width="10.8" height="10.9"/><rect x="298.25" y="513.85" width="10.8" height="10.9"/><rect x="287.45" y="731.25" width="10.8" height="10.9"/><rect x="287.45" y="709.45" width="10.8" height="10.9"/><rect x="287.45" y="698.55" width="10.8" height="10.9"/><rect x="287.45" y="687.75" width="10.8" height="10.9"/><rect x="287.45" y="665.95" width="10.8" height="10.9"/><rect x="287.45" y="622.55" width="10.8" height="10.9"/><rect x="287.45" y="600.75" width="10.8" height="10.9"/><rect x="287.45" y="579.05" width="10.8" height="10.9"/><rect x="287.45" y="557.25" width="10.8" height="10.9"/><rect x="287.45" y="546.45" width="10.8" height="10.9"/><rect x="287.45" y="535.55" width="10.8" height="10.9"/><rect x="287.45" y="513.85" width="10.8" height="10.9"/><rect x="276.65" y="731.25" width="10.8" height="10.9"/><rect x="276.65" y="709.45" width="10.8" height="10.9"/><rect x="276.65" y="698.55" width="10.8" height="10.9"/><rect x="276.65" y="687.75" width="10.8" height="10.9"/><rect x="276.65" y="665.95" width="10.8" height="10.9"/><rect x="276.65" y="622.55" width="10.8" height="10.9"/><rect x="276.65" y="579.05" width="10.8" height="10.9"/><rect x="276.65" y="557.25" width="10.8" height="10.9"/><rect x="276.65" y="546.45" width="10.8" height="10.9"/><rect x="276.65" y="535.55" width="10.8" height="10.9"/><rect x="276.65" y="513.85" width="10.8" height="10.9"/><rect x="265.85" y="731.25" width="10.8" height="10.9"/><rect x="265.85" y="665.95" width="10.8" height="10.9"/><rect x="265.85" y="633.35" width="10.8" height="10.9"/><rect x="265.85" y="622.55" width="10.8" height="10.9"/><rect x="265.85" y="600.75" width="10.8" height="10.9"/><rect x="265.85" y="579.05" width="10.8" height="10.9"/><rect x="265.85" y="513.85" width="10.8" height="10.9"/><rect x="255.05" y="731.25" width="10.8" height="10.9"/><rect x="255.05" y="720.35" width="10.8" height="10.9"/><rect x="255.05" y="709.45" width="10.8" height="10.9"/><rect x="255.05" y="698.55" width="10.8" height="10.9"/><rect x="255.05" y="687.75" width="10.8" height="10.9"/><rect x="255.05" y="676.85" width="10.8" height="10.9"/><rect x="255.05" y="665.95" width="10.8" height="10.9"/><rect x="255.05" y="633.35" width="10.8" height="10.9"/><rect x="255.05" y="622.55" width="10.8" height="10.9"/><rect x="255.05" y="611.65" width="10.8" height="10.9"/><rect x="255.05" y="600.75" width="10.8" height="10.9"/><rect x="255.05" y="579.05" width="10.8" height="10.9"/><rect x="255.05" y="568.15" width="10.8" height="10.9"/><rect x="255.05" y="557.25" width="10.8" height="10.9"/><rect x="255.05" y="546.45" width="10.8" height="10.9"/><rect x="255.05" y="535.55" width="10.8" height="10.9"/><rect x="255.05" y="524.65" width="10.8" height="10.9"/><rect x="255.05" y="513.85" width="10.8" height="10.9"/><path d="M769.85,325.65a16.06,16.06,0,0,1,6.1,1.1,15.66,15.66,0,0,1,4.7,3,12.3,12.3,0,0,1,3,4.4,14,14,0,0,1,1,5.4,14.92,14.92,0,0,1-1.9,7.7,11.8,11.8,0,0,1-6.1,4.9v.1a9.08,9.08,0,0,1,3.4,1.7,11.33,11.33,0,0,1,2.2,2.7,11.18,11.18,0,0,1,1.2,3.5c.2,1.3.4,2.5.5,3.8,0,.8.1,1.7.1,2.8a18.41,18.41,0,0,0,.3,3.3,16.47,16.47,0,0,0,.6,3.2,6.82,6.82,0,0,0,1.2,2.6h-11a18.59,18.59,0,0,1-1.1-5.7,61.23,61.23,0,0,0-.6-6.3,10.05,10.05,0,0,0-2.4-5.7,8.12,8.12,0,0,0-6-1.8H754V376h-11.1v-50.3Zm-4,22.8a7.89,7.89,0,0,0,5.7-1.7,7,7,0,0,0,1.9-5.5,6.5,6.5,0,0,0-1.9-5.3,8.93,8.93,0,0,0-5.7-1.7h-12.1v14.2Z"/><path d="M817.35,325.65l18.8,50.3h-11.5l-3.8-11.2h-18.8l-3.9,11.2h-11.1l19-50.3Zm.7,30.8-6.4-18.5h-.1l-6.6,18.5Z"/><polygon points="849.65 325.65 849.65 346.45 869.25 325.65 883.05 325.65 863.45 345.45 884.95 375.95 871.15 375.95 855.95 353.35 849.65 359.75 849.65 375.95 838.55 375.95 838.55 325.65 849.65 325.65"/><path d="M689.45,326.35h2.6c1.5,0,3.4.2,4,1.4a4.77,4.77,0,0,1,.5,3.5,4.59,4.59,0,0,1-1.1,2.2,2.7,2.7,0,0,1-.8.7,20.35,20.35,0,0,0-6.5-.8,12.1,12.1,0,0,0-1.9.1,48.29,48.29,0,0,0-9.2,1.8,7.22,7.22,0,0,0-2.4-1.4,5.64,5.64,0,0,0-1.2-.4,25.88,25.88,0,0,1,8.3-5.6,19.58,19.58,0,0,1,7.7-1.5"/><path d="M687.75,315.15h1.1c6.1.3,6.9,1.1,7,4.3a5.49,5.49,0,0,1-2.3,3.9,25,25,0,0,0-3.5-.2,25.39,25.39,0,0,0-7.2.9,27.46,27.46,0,0,0-10,5.6c-1.6,1.5-3.2,3.2-3.8,3.9a7.24,7.24,0,0,0-1.9,1.1l-.5.5a8,8,0,0,0-2.1-1.5,6.6,6.6,0,0,0-2.7-.6,30.46,30.46,0,0,1,7.9-11.1,29.69,29.69,0,0,1,18-6.8h0"/><path d="M695,347.65a45.35,45.35,0,0,1,1.4,8.2,19,19,0,0,1-1.2,8.2v.2c0,.1-.6,1.3-2.9,1.3h-.7a4,4,0,0,1-3.8-4.2v-1.1c-.1-2.4-.2-7.3-.2-8.7,0-.9-.1-2.2-.1-3.3,3.4-.1,4.7-.1,5.2-.1a18.92,18.92,0,0,0,2.3-.5"/><path d="M699.35,342.35a25.88,25.88,0,0,1,5.6,8.3,23.14,23.14,0,0,1,1.4,9.4v1.1c0,1.5-.2,3.4-1.4,4a4.65,4.65,0,0,1-2.3.6,4.87,4.87,0,0,1-1.2-.1,4.59,4.59,0,0,1-2.2-1.1,2.7,2.7,0,0,1-.7-.8,26.38,26.38,0,0,0,.8-8.4,57.32,57.32,0,0,0-1.7-9.2,7.22,7.22,0,0,0,1.4-2.4,7,7,0,0,1,.3-1.4"/><path d="M699.65,331a31.7,31.7,0,0,1,11.2,7.9,28.53,28.53,0,0,1,6.8,18.9c-.3,6.1-1.1,6.9-4.3,7a5.49,5.49,0,0,1-3.8-2.3,29.68,29.68,0,0,0-.8-10.7,27.46,27.46,0,0,0-5.6-10,41,41,0,0,0-3.9-3.8,7.24,7.24,0,0,0-1.1-1.9c-.2-.2-.3-.4-.5-.5a8,8,0,0,0,1.5-2.1,15.77,15.77,0,0,0,.5-2.5"/><path d="M684.65,356.45c0,1.6.1,4.3.1,5.3a8.52,8.52,0,0,0,.4,2.3,45.35,45.35,0,0,1-8.2,1.4h-1.1a17.42,17.42,0,0,1-7.1-1.2l-.1-.1h-.1c-.1,0-1.5-.7-1.3-3.6a4.08,4.08,0,0,1,4.1-3.9h.6c1.9-.1,7.6-.2,9.2-.2a20.42,20.42,0,0,0,3.5,0"/><path d="M686.75,366.75a7.22,7.22,0,0,0,2.4,1.4,5.64,5.64,0,0,0,1.2.4,25.88,25.88,0,0,1-8.3,5.6,23.47,23.47,0,0,1-7.8,1.5h-2.6c-1.5,0-3.4-.2-4-1.4a4.77,4.77,0,0,1-.5-3.5,4.59,4.59,0,0,1,1.1-2.2,2.7,2.7,0,0,1,.8-.7,23.72,23.72,0,0,0,6.5.9,12.1,12.1,0,0,0,1.9-.1,90,90,0,0,0,9.3-1.9"/><path d="M697.05,366.65a6.66,6.66,0,0,0,4.8,2.1A31.7,31.7,0,0,1,694,380a29.18,29.18,0,0,1-17.9,6.8h-1c-6.1-.3-6.9-1.1-7-4.3a5.49,5.49,0,0,1,2.3-3.9,25,25,0,0,0,3.5.2,29.59,29.59,0,0,0,7.2-.9,27.46,27.46,0,0,0,10-5.6c1.6-1.5,3.2-3.2,3.8-3.9a5.24,5.24,0,0,0,1.9-1.1.86.86,0,0,1,.3-.6"/><path d="M671.45,336.55h.7a4,4,0,0,1,3.8,4.2v.4c.1,5.1.2,8.3.2,9.4s.1,2.4.1,3.3c-3.4.1-4.8.1-5.3.1a8.52,8.52,0,0,0-2.3.4,45.35,45.35,0,0,1-1.4-8.2,19,19,0,0,1,1.2-8.2v-.2a3.54,3.54,0,0,1,3-1.2"/><path d="M661.05,336.25c.4,0,.8.1,1.2.1a3.86,3.86,0,0,1,2.2,1.1,2.7,2.7,0,0,1,.7.8,26.38,26.38,0,0,0-.8,8.4,48.29,48.29,0,0,0,1.8,9.2,7.22,7.22,0,0,0-1.4,2.4,5.64,5.64,0,0,0-.4,1.2,25.88,25.88,0,0,1-5.6-8.3,23.14,23.14,0,0,1-1.4-9.4v-1.1c0-1.5.2-3.4,1.4-4a8.52,8.52,0,0,1,2.3-.4"/><path d="M650.45,337.15a5.49,5.49,0,0,1,3.8,2.3,29.68,29.68,0,0,0,.8,10.7,27.46,27.46,0,0,0,5.6,10,42.87,42.87,0,0,0,3.9,3.8,7.24,7.24,0,0,0,1.1,1.9c.2.2.3.4.5.5a8,8,0,0,0-1.5,2.1,6.6,6.6,0,0,0-.6,2.7,29.57,29.57,0,0,1-11.1-8,28.53,28.53,0,0,1-6.8-18.9c.2-6.3,1.1-7.1,4.3-7.1h0"/><g class="cls-10"><path d="M182.18,336.81h3.42v22.83h13.61v2.88h-17Z"/><path d="M209.72,343.47c5.91,0,9,4.29,9,9.76s-3.13,9.72-9,9.72-9-4.29-9-9.72S203.82,343.47,209.72,343.47Zm0,16.78c3.21,0,5.8-2.52,5.8-7s-2.59-7.06-5.8-7.06-5.79,2.56-5.79,7.06S206.52,360.25,209.72,360.25Z"/><path d="M222.86,336.81H235c4.86,0,7.81,2.6,7.81,6.74,0,3.13-1.33,5.65-4.46,6.51v.07c3,.58,3.56,2.81,3.85,5.29s.07,5.37,1.51,7.1h-3.82c-1-1-.43-3.82-.93-6.34s-1-4.64-4.29-4.64h-8.35v11h-3.42Zm10.55,11.85c3.17,0,5.94-.83,5.94-4.57,0-2.56-1.37-4.4-4.57-4.4h-8.5v9Z"/><path d="M263.51,362.44a4.26,4.26,0,0,1-2.2.51c-1.58,0-2.59-.87-2.59-2.88a8.16,8.16,0,0,1-6.55,2.88c-3.39,0-6.16-1.48-6.16-5.22,0-4.21,3.13-5.15,6.3-5.73,3.35-.68,6.26-.39,6.26-2.73,0-2.7-2.23-3.1-4.14-3.1-2.59,0-4.49.8-4.64,3.53h-3.06c.18-4.61,3.71-6.23,7.88-6.23,3.35,0,7,.76,7,5.11v9.58c0,1.44,0,2.09,1,2.09a3,3,0,0,0,.94-.18Zm-5-9.53c-2.38,1.76-9.29,0-9.29,4.6,0,2,1.73,2.74,3.6,2.74,4,0,5.69-2.49,5.69-4.21Z"/><path d="M294.93,344.55c-.75-3.63-3.6-5.47-7.2-5.47-6.12,0-8.71,5-8.71,10.41,0,5.86,2.59,10.76,8.75,10.76,4.46,0,7.13-3.17,7.42-7.42h3.41c-.68,6.45-4.6,10.3-11.12,10.3-8,0-11.88-5.91-11.88-13.39s4.25-13.54,12.17-13.54c5.36,0,9.83,2.88,10.58,8.35Z"/><path d="M310.38,343.47c5.9,0,9,4.29,9,9.76s-3.13,9.72-9,9.72-9-4.29-9-9.72S304.47,343.47,310.38,343.47Zm0,16.78c3.2,0,5.79-2.52,5.79-7s-2.59-7.06-5.79-7.06-5.8,2.56-5.8,7.06S307.17,360.25,310.38,360.25Z"/><path d="M323,343.91h2.88v2.95H326a6.42,6.42,0,0,1,6-3.39c4.9,0,6.41,2.81,6.41,6.81v12.24h-3.06v-12.6a3.49,3.49,0,0,0-3.78-3.75c-3.71,0-5.51,2.49-5.51,5.83v10.52H323Z"/><path d="M355.66,349.88a4.3,4.3,0,0,0-4.6-3.71c-4.43,0-5.8,3.53-5.8,7.27,0,3.46,1.55,6.81,5.44,6.81,3,0,4.71-1.69,5.11-4.54h3.13c-.68,4.57-3.49,7.24-8.21,7.24-5.68,0-8.71-3.93-8.71-9.51s2.88-10,8.79-10c4.24,0,7.55,2,8,6.41Z"/><path d="M378.24,356.61c-.83,4.14-3.75,6.34-8,6.34-5.94,0-8.75-4.14-8.93-9.79,0-5.62,3.68-9.69,8.75-9.69,6.59,0,8.6,6.16,8.42,10.66H364.59c-.1,3.24,1.73,6.12,5.8,6.12,2.55,0,4.28-1.19,4.82-3.64Zm-3-5.18a5.35,5.35,0,0,0-5.36-5.26,5.28,5.28,0,0,0-5.33,5.26Z"/><path d="M381.69,343.91h2.88v2.95h.08a6.42,6.42,0,0,1,6-3.39c4.9,0,6.41,2.81,6.41,6.81v12.24H394v-12.6a3.49,3.49,0,0,0-3.78-3.75c-3.71,0-5.51,2.49-5.51,5.83v10.52h-3.06Z"/><path d="M406,343.91h3.7v2.7H406v11.55c0,1.44.39,1.66,2.3,1.66h1.4v2.7h-2.34c-3.16,0-4.42-.65-4.42-4.07V346.61h-3.17v-2.7h3.17v-5.58H406Z"/><path d="M412.94,343.91h2.88v3.92h.07c1.48-3,3.53-4.46,6.84-4.36v3.24c-4.93,0-6.73,2.78-6.73,7.53v8.28h-3.06Z"/><path d="M441.52,362.44a4.22,4.22,0,0,1-2.19.51c-1.59,0-2.59-.87-2.59-2.88a8.18,8.18,0,0,1-6.56,2.88c-3.38,0-6.15-1.48-6.15-5.22,0-4.21,3.13-5.15,6.3-5.73,3.35-.68,6.26-.39,6.26-2.73,0-2.7-2.23-3.1-4.14-3.1-2.59,0-4.5.8-4.64,3.53h-3.06c.18-4.61,3.71-6.23,7.88-6.23,3.35,0,7,.76,7,5.11v9.58c0,1.44,0,2.09,1,2.09a3,3,0,0,0,.93-.18Zm-5-9.53c-2.38,1.76-9.29,0-9.29,4.6,0,2,1.73,2.74,3.6,2.74,4,0,5.69-2.49,5.69-4.21Z"/><path d="M448.62,343.91h3.7v2.7h-3.7v11.55c0,1.44.39,1.66,2.3,1.66h1.4v2.7H450c-3.16,0-4.42-.65-4.42-4.07V346.61h-3.17v-2.7h3.17v-5.58h3.06Z"/><path d="M463.73,343.47c5.91,0,9,4.29,9,9.76s-3.13,9.72-9,9.72-9-4.29-9-9.72S457.83,343.47,463.73,343.47Zm0,16.78c3.21,0,5.8-2.52,5.8-7s-2.59-7.06-5.8-7.06-5.79,2.56-5.79,7.06S460.53,360.25,463.73,360.25Z"/><path d="M476.26,343.91h2.88v3.92h.08c1.47-3,3.52-4.46,6.83-4.36v3.24c-4.93,0-6.73,2.78-6.73,7.53v8.28h-3.06Z"/><path d="M498.94,336.81h4.68l8.1,21.6,8.14-21.6h4.68v25.71H521.3V341.13h-.08l-8,21.39h-2.92l-8-21.39h-.08v21.39h-3.24Z"/><path d="M537.75,343.47c5.9,0,9,4.29,9,9.76s-3.14,9.72-9,9.72-9-4.29-9-9.72S531.85,343.47,537.75,343.47Zm0,16.78c3.2,0,5.8-2.52,5.8-7s-2.6-7.06-5.8-7.06-5.79,2.56-5.79,7.06S534.55,360.25,537.75,360.25Z"/><path d="M567,362.52H564V360h-.08c-1,2.05-3.34,2.95-5.93,2.95-5.73,0-8.57-4.54-8.57-9.79s2.81-9.69,8.49-9.69c1.88,0,4.68.72,6,2.92H564v-9.58H567Zm-8.64-2.27c4.14,0,5.68-3.57,5.68-7,0-3.64-1.65-7.06-5.86-7.06s-5.58,3.57-5.58,7.2S554.42,360.25,558.38,360.25Z"/><path d="M587.14,362.52h-2.88v-3h-.07a6.44,6.44,0,0,1-6.05,3.39c-4.89,0-6.41-2.81-6.41-6.81V343.91h3.06V356.5a3.49,3.49,0,0,0,3.78,3.75c3.71,0,5.51-2.49,5.51-5.83V343.91h3.06Z"/><path d="M591.93,336.81H595v25.71h-3.06Z"/><path d="M615.62,356.61c-.83,4.14-3.75,6.34-8,6.34-5.94,0-8.75-4.14-8.93-9.79,0-5.62,3.68-9.69,8.75-9.69,6.59,0,8.6,6.16,8.42,10.66H602c-.1,3.24,1.73,6.12,5.8,6.12,2.55,0,4.28-1.19,4.82-3.64Zm-3-5.18a5.35,5.35,0,0,0-5.36-5.26,5.28,5.28,0,0,0-5.33,5.26Z"/></g><g class="cls-10"><path d="M182.26,436.81h4.68l8.09,21.6,8.14-21.6h4.68v25.71h-3.24V441.13h-.07l-8,21.39h-2.92l-8-21.39h-.07v21.39h-3.24Z"/><path d="M224.41,436.2c8.17,0,12.31,6.45,12.31,13.46s-4.14,13.47-12.31,13.47-12.31-6.45-12.31-13.47S216.24,436.2,224.41,436.2Zm0,24.05c6.26,0,8.89-5.4,8.89-10.59s-2.63-10.58-8.89-10.58-8.89,5.4-8.89,10.58S218.15,460.25,224.41,460.25Z"/><path d="M240.9,436.81h8.82c7.92,0,12.35,4,12.35,12.24,0,8.61-3.78,13.47-12.35,13.47H240.9Zm3.42,22.83H250c2.34,0,8.64-.65,8.64-10.12,0-6.12-2.27-9.83-8.57-9.83h-5.76Z"/><path d="M266.24,436.81H284v2.88H269.66v8.18H283v2.87H269.66v8.9H284.1v2.88H266.24Z"/><path d="M288.24,436.81h3.42v22.83h13.6v2.88h-17Z"/><path d="M312.43,447.9h-4v-4h4Zm-4,10.62h4v4h-4Z"/><path d="M318.26,436.81h12.1c4.86,0,7.81,2.6,7.81,6.74,0,3.13-1.33,5.65-4.46,6.51v.07c3,.58,3.56,2.81,3.85,5.29s.07,5.37,1.51,7.1h-3.82c-1-1-.43-3.82-.93-6.34s-1-4.64-4.29-4.64h-8.35v11h-3.42Zm10.55,11.85c3.17,0,5.94-.83,5.94-4.57,0-2.56-1.37-4.4-4.57-4.4h-8.5v9Z"/><path d="M349.91,436.81h3.78l10,25.71H360l-2.81-7.74H346.27l-2.88,7.74h-3.53Zm-2.56,15.09h8.71l-4.28-12h-.07Z"/><path d="M366.25,436.81h3.42v12.82l13-12.82h4.43l-10.84,10.37,11.27,15.34h-4.32l-9.29-13-4.28,4v9h-3.42Z"/><path d="M404.37,440.13H394.08l-1.37,7.34.07.07a6.47,6.47,0,0,1,4.75-1.83c4.54,0,8.25,2.87,8.25,8.74,0,4.32-3,8.5-8.93,8.5-4.43,0-8-2.7-8.14-7.31h3.06c.18,2.63,2.31,4.61,5.37,4.61s5.4-2,5.4-6.05a5.53,5.53,0,0,0-5.76-5.79,6.05,6.05,0,0,0-4.75,2.41l-2.63-.15,2.37-13.24h12.6Z"/><path d="M420.29,462.52h-3.06V444.23H410.6v-2.45c3.49,0,6.66-.9,7.35-4.79h2.34Z"/><path d="M442.57,453.84H446v2.7h-3.45v6h-2.88v-6h-11.2v-3L440.12,437h2.45Zm-2.88,0V441.35h-.07l-8.5,12.49Z"/><path d="M462.41,443.51a4.08,4.08,0,0,0-4.29-3.82c-5.18,0-6.08,5.76-6.19,9.69l.07.07a6.92,6.92,0,0,1,6.37-3.35c4.9,0,7.81,3.56,7.81,8.28,0,3.74-2.08,8.57-8.53,8.57-7.59,0-8.78-6.95-8.78-12.28,0-7,2.12-13.68,9.4-13.68,4.21,0,6.8,2.34,7.2,6.52Zm-9.9,11.05c0,3.17,1.94,5.69,5.29,5.69s5.15-2.63,5.15-5.65c0-3.17-1.66-5.8-5.15-5.8S452.51,451.36,452.51,454.56Z"/></g><g class="cls-10"><path d="M192.08,805.53c5.58,0,7.74,3.24,7.74,6.52a5.84,5.84,0,0,1-3.53,5.29,6.12,6.12,0,0,1,4.54,6.37c0,4.93-3.74,7.78-8.46,7.78-4.89,0-8.67-2.6-8.67-7.78a6.4,6.4,0,0,1,4.46-6.37,5.71,5.71,0,0,1-3.56-5.29C184.6,807.87,188.16,805.53,192.08,805.53Zm.29,23.26a4.93,4.93,0,0,0,5.22-5,5.05,5.05,0,0,0-5.26-4.86c-3,0-5.39,1.91-5.39,4.89S189.2,828.79,192.37,828.79Zm0-12.53a3.9,3.9,0,0,0,4.21-4.1c0-2.6-1.8-3.93-4.28-3.93s-4.46,1.37-4.46,3.93C187.84,814.93,189.89,816.26,192.37,816.26Z"/><path d="M205.84,814.57c-.29-5.19,2.8-9,8.2-9,4.43,0,8,2.59,8,7.35,0,4.49-3,6.73-6.19,8.74s-6.58,3.6-7.16,6.73h13.1v2.7H205.12c.46-6,3.56-8.28,7.16-10.43,4.32-2.71,6.51-4.22,6.51-7.78a4.65,4.65,0,0,0-4.93-4.61c-3.56,0-5.07,3.28-5,6.34Z"/><path d="M241.15,812.05a4.07,4.07,0,0,0-4.28-3.82c-5.19,0-6.09,5.76-6.19,9.68l.07.08a6.92,6.92,0,0,1,6.37-3.35c4.89,0,7.81,3.56,7.81,8.28,0,3.74-2.09,8.57-8.53,8.57-7.6,0-8.78-7-8.78-12.28,0-7,2.12-13.68,9.39-13.68,4.21,0,6.8,2.34,7.2,6.52Zm-9.9,11.05c0,3.17,1.95,5.69,5.29,5.69s5.15-2.63,5.15-5.66-1.66-5.79-5.15-5.79S231.25,819.9,231.25,823.1Z"/><path d="M249.83,814.57c-.29-5.19,2.81-9,8.2-9,4.43,0,8,2.59,8,7.35,0,4.49-3,6.73-6.2,8.74s-6.58,3.6-7.16,6.73h13.1v2.7H249.11c.47-6,3.56-8.28,7.16-10.43,4.32-2.71,6.52-4.22,6.52-7.78a4.66,4.66,0,0,0-4.94-4.61c-3.56,0-5.07,3.28-5,6.34Z"/><path d="M280.25,805.53c8,0,8.49,7.38,8.49,13s-.5,13-8.49,13-8.5-7.35-8.5-13S272.26,805.53,280.25,805.53Zm0,23.26c5.22,0,5.25-6.48,5.25-10.3s0-10.26-5.25-10.26S275,814.71,275,818.49,275,828.79,280.25,828.79Z"/><path d="M302.24,805.53c8,0,8.5,7.38,8.5,13s-.51,13-8.5,13-8.49-7.35-8.49-13S294.25,805.53,302.24,805.53Zm0,23.26c5.22,0,5.26-6.48,5.26-10.3s0-10.26-5.26-10.26S297,814.71,297,818.49,297,828.79,302.24,828.79Z"/><path d="M324,805.35h3.78l10,25.7h-3.77l-2.81-7.74H320.39l-2.88,7.74H314Zm-2.55,15.08h8.71l-4.29-12h-.07Z"/><path d="M349.37,805.53c5.58,0,7.74,3.24,7.74,6.52a5.86,5.86,0,0,1-3.53,5.29,6.11,6.11,0,0,1,4.53,6.37c0,4.93-3.74,7.78-8.46,7.78-4.89,0-8.67-2.6-8.67-7.78a6.4,6.4,0,0,1,4.46-6.37,5.71,5.71,0,0,1-3.56-5.29C341.88,807.87,345.44,805.53,349.37,805.53Zm.28,23.26a4.93,4.93,0,0,0,5.22-5,5,5,0,0,0-5.25-4.86c-3,0-5.4,1.91-5.4,4.89S346.49,828.79,349.65,828.79Zm0-12.53a3.91,3.91,0,0,0,4.22-4.1c0-2.6-1.8-3.93-4.29-3.93s-4.46,1.37-4.46,3.93C345.12,814.93,347.17,816.26,349.65,816.26Z"/><path d="M376.44,812.05a4.07,4.07,0,0,0-4.29-3.82c-5.18,0-6.08,5.76-6.19,9.68l.08.08a6.91,6.91,0,0,1,6.37-3.35c4.89,0,7.81,3.56,7.81,8.28,0,3.74-2.09,8.57-8.53,8.57-7.6,0-8.79-7-8.79-12.28,0-7,2.13-13.68,9.4-13.68,4.21,0,6.8,2.34,7.2,6.52Zm-9.9,11.05c0,3.17,1.94,5.69,5.29,5.69s5.15-2.63,5.15-5.66-1.66-5.79-5.15-5.79S366.54,819.9,366.54,823.1Z"/><path d="M393.54,805.53c8,0,8.49,7.38,8.49,13s-.5,13-8.49,13-8.5-7.35-8.5-13S385.55,805.53,393.54,805.53Zm0,23.26c5.22,0,5.25-6.48,5.25-10.3s0-10.26-5.25-10.26-5.26,6.48-5.26,10.26S388.32,828.79,393.54,828.79Z"/><path d="M418.34,831.05h-3.06V812.77h-6.62v-2.45c3.49,0,6.66-.9,7.34-4.79h2.34Z"/><path d="M437.53,805.53c8,0,8.5,7.38,8.5,13s-.51,13-8.5,13-8.49-7.35-8.49-13S429.54,805.53,437.53,805.53Zm0,23.26c5.22,0,5.26-6.48,5.26-10.3s0-10.26-5.26-10.26-5.25,6.48-5.25,10.26S432.31,828.79,437.53,828.79Z"/><path d="M467.84,808.59c-5.15,5.08-9.32,14.51-9.79,22.46h-3.42a36.54,36.54,0,0,1,10.08-22.21H451.32V806h16.52Z"/><path d="M484.33,831.05h-3.06V812.77h-6.62v-2.45c3.49,0,6.66-.9,7.34-4.79h2.34Z"/><path d="M495.1,814.57c-.29-5.19,2.8-9,8.2-9,4.43,0,8,2.59,8,7.35,0,4.49-3,6.73-6.19,8.74s-6.58,3.6-7.16,6.73H511v2.7H494.38c.46-6,3.56-8.28,7.16-10.43,4.32-2.71,6.51-4.22,6.51-7.78a4.65,4.65,0,0,0-4.93-4.61c-3.56,0-5.07,3.28-5,6.34Z"/><path d="M530.59,822.38h3.46v2.7h-3.46v6h-2.88v-6H516.52v-3l11.62-16.6h2.45Zm-2.88,0V809.89h-.07l-8.5,12.49Z"/><path d="M552.41,812.05a4.07,4.07,0,0,0-4.29-3.82c-5.18,0-6.08,5.76-6.19,9.68l.07.08a6.92,6.92,0,0,1,6.37-3.35c4.9,0,7.82,3.56,7.82,8.28,0,3.74-2.09,8.57-8.54,8.57-7.59,0-8.78-7-8.78-12.28,0-7,2.13-13.68,9.4-13.68,4.21,0,6.8,2.34,7.2,6.52Zm-9.9,11.05c0,3.17,1.94,5.69,5.29,5.69s5.15-2.63,5.15-5.66-1.66-5.79-5.15-5.79S542.51,819.9,542.51,823.1Z"/><path d="M574.58,822.38H578v2.7h-3.46v6H571.7v-6H560.51v-3l11.62-16.6h2.45Zm-2.88,0V809.89h-.07l-8.49,12.49Z"/></g><g class="cls-10"><path d="M649,805.35h4.67l8.1,21.6,8.14-21.6h4.68v25.7h-3.24V809.67h-.07l-8,21.38h-2.92l-8-21.38h-.08v21.38H649Z"/><path d="M685.24,805.35H689l10,25.7h-3.78l-2.8-7.74H681.61l-2.88,7.74H675.2Zm-2.55,15.08h8.71l-4.29-12H687Z"/><path d="M699.61,805.35h8.81c7.92,0,12.35,4,12.35,12.24,0,8.6-3.78,13.46-12.35,13.46h-8.81ZM703,828.17h5.68c2.34,0,8.64-.64,8.64-10.11,0-6.12-2.27-9.83-8.56-9.83H703Z"/><path d="M723,805.35h17.75v2.88H726.39v8.17h13.35v2.88H726.39v8.89h14.43v2.88H723Z"/><path d="M751.16,805.35h3.42v25.7h-3.42Z"/><path d="M758.32,805.35H762l13.53,20.84h.07V805.35h3.24v25.7h-3.74l-13.43-20.62h-.07v20.62h-3.24Z"/><path d="M808.47,813.09c-.76-3.63-3.6-5.47-7.2-5.47-6.12,0-8.71,5-8.71,10.4,0,5.87,2.59,10.77,8.74,10.77,4.47,0,7.13-3.17,7.42-7.42h3.42c-.69,6.44-4.61,10.3-11.12,10.3-8,0-11.88-5.91-11.88-13.39s4.24-13.54,12.16-13.54c5.37,0,9.83,2.88,10.59,8.35Z"/><path d="M814.41,805.35h3.42v11h13.53v-11h3.42v25.7h-3.42V819.28H817.83v11.77h-3.42Z"/><path d="M838.56,805.35H842v25.7h-3.42Z"/><path d="M845.73,805.35h3.63l13.54,20.84H863V805.35h3.24v25.7h-3.74L849,810.43H849v20.62h-3.24Z"/><path d="M876.76,805.35h3.78l10,25.7H886.8L884,823.31H873.12l-2.88,7.74h-3.52Zm-2.56,15.08h8.71l-4.28-12h-.07Z"/></g><g class="cls-10"><path d="M547.19,444.34c-.4-3.71-2.81-5.26-6.37-5.26-2.92,0-5.76,1.05-5.76,4.39,0,6.34,16.45,1.88,16.45,12,0,5.47-5.37,7.67-10,7.67-5.75,0-10.61-2.85-10.61-9.07h3.24c0,4.32,3.59,6.19,7.48,6.19,3.1,0,6.52-1,6.52-4.68,0-7.06-16.45-2.41-16.45-11.84,0-5.19,4.6-7.53,9.32-7.53,5.26,0,9.29,2.49,9.47,8.14Z"/><path d="M557.63,436.81H568.9c5.14,0,7.88,2.81,7.88,7.6S574,452,568.9,452h-7.85v10.52h-3.42Zm3.42,12.31h6.69c3.89,0,5.62-1.65,5.62-4.71s-1.73-4.72-5.62-4.72h-6.69Z"/><path d="M583.08,436.81h3.42v25.71h-3.42Z"/></g><g class="cls-10"><path d="M735,714.72c-.29-5.18,2.81-9,8.21-9,4.43,0,8,2.59,8,7.34,0,4.5-3,6.73-6.19,8.75s-6.59,3.6-7.17,6.73H751v2.7H734.28c.47-6,3.56-8.28,7.16-10.44,4.32-2.7,6.52-4.21,6.52-7.77a4.65,4.65,0,0,0-4.93-4.61c-3.56,0-5.08,3.27-5,6.33Z"/><path d="M768.23,731.21h-3.06V712.92h-6.62v-2.44c3.49,0,6.65-.9,7.34-4.79h2.34Z"/><path d="M794.33,708.82H784l-1.36,7.34.07.08a6.44,6.44,0,0,1,4.75-1.84c4.53,0,8.24,2.88,8.24,8.75,0,4.32-3,8.49-8.93,8.49-4.42,0-8-2.7-8.13-7.31h3.06a5,5,0,0,0,5.36,4.61c2.92,0,5.4-2,5.4-6.05a5.53,5.53,0,0,0-5.76-5.79,6.07,6.07,0,0,0-4.75,2.41l-2.63-.14,2.38-13.25h12.6Z"/></g><path d="M726.85,573.55a29.13,29.13,0,0,0,29.1,29.1,34,34,0,0,0,4.5-.3V615a41.54,41.54,0,0,1-9-82.6,45.11,45.11,0,0,1,9,0V545a29.15,29.15,0,0,0-33.3,24.3A30,30,0,0,0,726.85,573.55Z"/><path d="M798.35,567.35h24V580h-24a29.19,29.19,0,0,0,28.4,22.8,27,27,0,0,0,4.9-.4V615a41.58,41.58,0,1,1-9.6-82.6,38.55,38.55,0,0,1,9.6,0V545a26.29,26.29,0,0,0-4.9-.4A28.92,28.92,0,0,0,798.35,567.35Z"/><path d="M687.88,337a16.68,16.68,0,0,1,7,1.2h.2c.1,0,1.5.7,1.2,3.6a3.93,3.93,0,0,1-4.1,3.8h-.4c-5,.1-8.3.2-9.4.2-.9,0-2.2.1-3.3.1,0-1.5-.1-4.3-.1-5.3a8.52,8.52,0,0,0-.4-2.3,45.35,45.35,0,0,1,8.2-1.4,4.48,4.48,0,0,0,1.1.1"/></g></g></svg>