<svg xmlns="http://www.w3.org/2000/svg" xmlns:xlink="http://www.w3.org/1999/xlink" viewBox="0 0 875.94 642.83"><defs><style>.cls-1,.cls-14,.cls-7{fill:none;}.cls-2{fill:url(#linear-gradient);}.cls-3{fill:#fdfeff;}.cls-4{fill:#f0f0f1;}.cls-5{fill:#9a9b9c;}.cls-6{fill:#e1e2e3;}.cls-7{stroke:#171719;stroke-width:4px;}.cls-11,.cls-14,.cls-7{stroke-miterlimit:10;}.cls-8{fill:#343735;}.cls-9{fill:#555957;}.cls-10{fill:#464d4c;}.cls-11{fill:#dcd0cb;stroke-width:0.25px;}.cls-11,.cls-14{stroke:#000;}.cls-12{fill:#d8d9d9;}.cls-13{fill:#404345;}.cls-14{stroke-width:0.5px;}.cls-15{font-size:3.51px;font-family:HelveticaNeueLTPro-Lt, Helvetica Neue LT Pro;}.cls-15,.cls-51{fill:#bcbec0;}.cls-16{fill:#e4f0ed;}.cls-17{fill:#dde8e5;}.cls-18{clip-path:url(#clip-path);}.cls-19{fill:#f6f6f6;}.cls-20{fill:#787878;}.cls-21{fill:#555656;}.cls-22{fill:#b0b0b0;}.cls-23{fill:#d1dbd8;}.cls-24{fill:#b0b6b3;}.cls-25{fill:#adb3b1;}.cls-26{fill:#8f9694;}.cls-27{fill:#c7cfcc;}.cls-28{fill:#bab9ba;}.cls-29{fill:#edeeef;}.cls-30{font-size:16.8px;fill:#256bb4;}.cls-30,.cls-51,.cls-53,.cls-54{font-family:HelveticaNeueLTPro-Roman, Helvetica Neue LT Pro;}.cls-31,.cls-52{font-family:HelveticaNeueLTPro-Bd, Helvetica Neue LT Pro;}.cls-31{letter-spacing:0em;}.cls-32{fill:#b7bdbb;}.cls-33{fill:#f1f2f5;}.cls-34{fill:#fff;}.cls-35{fill:#565151;}.cls-36{fill:#888989;}.cls-37{fill:#e1e3e5;}.cls-38{fill:#e6e7e7;}.cls-39{fill:#7b7a7a;}.cls-40{fill:#646666;}.cls-41{fill:#c5c4bf;}.cls-42{fill:#b5b5b0;}.cls-43{fill:#93938f;}.cls-44{fill:#aaaba7;}.cls-45{fill:#6f6f70;}.cls-46{fill:#878888;}.cls-47{fill:#b0b1b2;}.cls-48{fill:#828282;}.cls-49{fill:#9b9b9b;}.cls-50{fill:#252525;}.cls-51,.cls-52{font-size:14px;}.cls-52{fill:#939598;}.cls-53{letter-spacing:0em;}.cls-55{fill:#1c1f21;}.cls-56{fill:#373a3c;}.cls-57{fill:#171719;}.cls-58,.cls-61{fill:#b3b3b3;}.cls-58{opacity:0.39;}.cls-59{fill:#3e3f45;}.cls-60{fill:#f0efef;}.cls-62{fill:#919c9c;}.cls-63{fill:#1a66a7;}.cls-64{isolation:isolate;}</style><linearGradient id="linear-gradient" x1="764.79" y1="243.44" x2="877.98" y2="240.21" gradientUnits="userSpaceOnUse"><stop offset="0.03" stop-color="#757575"/><stop offset="0.12" stop-color="#929292"/><stop offset="0.27" stop-color="#bfbfbf"/><stop offset="0.39" stop-color="#dbdbdb"/><stop offset="0.46" stop-color="#e6e6e6"/><stop offset="0.62" stop-color="#c8c8c8"/><stop offset="0.96" stop-color="#7d7d7d"/><stop offset="1" stop-color="#757575"/></linearGradient><clipPath id="clip-path"><path class="cls-1" d="M292.4,456.42a43.3,43.3,0,0,1-33.7,0V320.94h33.7Z"/></clipPath></defs><g id="Layer_2" data-name="Layer 2"><g id="PoE_Injector_copy" data-name="PoE Injector copy"><rect class="cls-2" x="780.43" y="185.33" width="68.61" height="113.36" rx="6.3"/><rect class="cls-3" x="786.21" y="192.25" width="58.64" height="101.08" rx="6.3"/><rect class="cls-4" x="788.68" y="196.52" width="53.61" height="92.41" rx="6.3"/><circle class="cls-5" cx="818.68" cy="196.91" r="3.15"/><path class="cls-6" d="M821.38,195.63a3,3,0,0,1-5.1,3"/><path class="cls-6" d="M816,198.16a3,3,0,0,1,5.1-3"/><rect class="cls-5" x="799.96" y="211.38" width="32.64" height="62.04" rx="2.42"/><rect class="cls-4" x="801.23" y="212.75" width="30.09" height="59.56" rx="2.42"/><path class="cls-7" d="M517,382.85V264.11c0-3.12,3.72-5.65,8.3-5.65h281"/><path class="cls-8" d="M808.61,253.21l-2.1,1.91h-1.39a.79.79,0,0,0-.7.86v4.76a.79.79,0,0,0,.7.86h1.39l2.1,2.1h.93V253.21Z"/><rect class="cls-9" x="487.38" y="405.63" width="59.51" height="3.55"/><path class="cls-10" d="M488.6,405.63h57.08a1.22,1.22,0,0,1,1.22,1.22v39.57a2.24,2.24,0,0,1-2.24,2.24h-55a2.24,2.24,0,0,1-2.24-2.24V406.85A1.22,1.22,0,0,1,488.6,405.63Z"/><polygon class="cls-9" points="546.89 405.63 487.38 405.63 492.76 375.99 541.51 375.99 546.89 405.63"/><rect class="cls-11" x="498.24" y="420.05" width="39.05" height="16.11"/><path class="cls-12" d="M11.32,313.21h4.74a0,0,0,0,1,0,0v107a0,0,0,0,1,0,0H11.32a4.74,4.74,0,0,1-4.74-4.74v-97.5A4.74,4.74,0,0,1,11.32,313.21Z"/><polygon class="cls-13" points="513.8 424.4 513.8 421.74 503.81 421.74 503.81 424.4 500.57 424.4 500.57 433.93 517.03 433.93 517.03 424.4 513.8 424.4"/><polygon class="cls-13" points="532.09 424.4 532.09 421.74 522.1 421.74 522.1 424.4 518.86 424.4 518.86 433.93 535.32 433.93 535.32 424.4 532.09 424.4"/><line class="cls-14" x1="487.38" y1="428.47" x2="498.24" y2="428.47"/><line class="cls-14" x1="537.3" y1="428.47" x2="546.89" y2="428.47"/><text class="cls-15" transform="matrix(1.76, 0.02, -0.07, 1, 503.76, 402.56)">PoE</text><text class="cls-15" transform="matrix(1.76, 0.02, -0.07, 1, 522.38, 402.55)">LAN</text><path class="cls-7" d="M259,281l-9.75,16a9.65,9.65,0,0,0-1.42,5V514.2a9.67,9.67,0,0,1-9.67,9.68h-53a9.68,9.68,0,0,1-9.68-9.68V440.85"/><path class="cls-16" d="M225.6,232.55a50.26,50.26,0,0,1,100.51,0"/><path class="cls-16" d="M275.85,182.3a50.26,50.26,0,0,1,50.26,50.25"/><path class="cls-17" d="M225.6,232.55a50.25,50.25,0,0,1,50.25-50.25v50.25H225.6"/><g class="cls-18"><path class="cls-19" d="M292.4,456.42a43.3,43.3,0,0,1-33.7,0V320.94h33.7Z"/><rect class="cls-20" x="258.7" y="320.94" width="16.85" height="140.94"/><rect class="cls-21" x="283.98" y="320.94" width="8.43" height="140.94"/><rect class="cls-22" x="262.45" y="320.94" width="4.68" height="140.94"/></g><rect class="cls-23" x="253.43" y="260" width="44.26" height="60.94"/><rect class="cls-24" x="253.43" y="260" width="22.13" height="60.94"/><rect class="cls-25" x="290.7" y="260" width="6.98" height="60.94"/><path class="cls-26" d="M297.68,260H253.43a74.4,74.4,0,0,1-18.73-17.87h83.07A58.18,58.18,0,0,1,297.68,260Z"/><path class="cls-27" d="M326,242.13H225.6V227c15.77-1.07,32.6-1.71,50.38-1.7s34.37.63,50,1.7Z"/><path class="cls-28" d="M199.66,321.06H3.83A3.83,3.83,0,0,0,0,324.89V408.5a3.83,3.83,0,0,0,3.83,3.83H199.66a3.84,3.84,0,0,0,3.83-3.83V324.89A3.84,3.84,0,0,0,199.66,321.06ZM11.32,391.7a2,2,0,0,1-2,2H9.23v4.21a2.68,2.68,0,0,1-5.36,0v-4.21H3.74a2,2,0,0,1-1.95-2h0a2,2,0,0,1,2-1.95h.13v-4.22a2.68,2.68,0,0,1,5.36,0v4.22h.13a2,2,0,0,1,2,1.95Zm0-49a2,2,0,0,1-2,2H9.23v4.21a2.68,2.68,0,0,1-5.36,0v-4.21H3.74a2,2,0,0,1-1.95-2h0a2,2,0,0,1,2-2h.13v-4.21a2.68,2.68,0,0,1,5.36,0v4.21h.13a2,2,0,0,1,2,2Zm189.19,49a2,2,0,0,1-2,2h-.12v4.21a2.69,2.69,0,0,1-5.37,0v-4.21h-.12a2,2,0,0,1-2-2h0a2,2,0,0,1,2-1.95h.12v-4.22a2.69,2.69,0,0,1,5.37,0v4.22h.12a2,2,0,0,1,2,1.95Zm0-49a2,2,0,0,1-2,2h-.12v4.21a2.69,2.69,0,0,1-5.37,0v-4.21h-.12a2,2,0,0,1-2-2h0a2,2,0,0,1,2-2h.12v-4.21a2.69,2.69,0,0,1,5.37,0v4.21h.12a2,2,0,0,1,2,2Z"/><rect class="cls-29" x="6.55" y="313.21" width="187.23" height="106.98" rx="4.74"/><path class="cls-12" d="M191.63,313.21h2.16a0,0,0,0,1,0,0v107a0,0,0,0,1,0,0h-2.16a4.74,4.74,0,0,1-4.74-4.74v-97.5A4.74,4.74,0,0,1,191.63,313.21Z" transform="translate(380.68 733.39) rotate(180)"/><text class="cls-30" transform="translate(66.89 371.08)">RAK<tspan class="cls-31" x="33.61" y="0">7240</tspan></text><rect class="cls-32" x="19.52" y="281.15" width="13.37" height="32.05"/><rect class="cls-32" x="16.06" y="247.31" width="20.71" height="34.82"/><rect class="cls-33" x="16.06" y="18.07" width="20.71" height="229.24"/><path class="cls-33" d="M20.46,0H32.32a4.4,4.4,0,0,1,4.4,4.4V18.32a0,0,0,0,1,0,0H16.06a0,0,0,0,1,0,0V4.4A4.4,4.4,0,0,1,20.46,0Z"/><rect class="cls-34" x="21.01" width="6.93" height="313.21"/><rect class="cls-35" x="23.3" y="247.31" width="2.29" height="65.9"/><rect class="cls-36" x="19.52" y="286.57" width="13.32" height="13.32"/><rect class="cls-35" x="16.06" y="279.28" width="20.71" height="2.85"/><rect class="cls-37" x="16.06" y="13.07" width="20.66" height="5"/><rect class="cls-32" x="94.86" y="281.15" width="13.37" height="32.05"/><rect class="cls-32" x="91.39" y="247.31" width="20.71" height="34.82"/><rect class="cls-33" x="91.39" y="18.07" width="20.71" height="229.24"/><path class="cls-33" d="M95.79,0h11.86a4.4,4.4,0,0,1,4.4,4.4V18.32a0,0,0,0,1,0,0H91.39a0,0,0,0,1,0,0V4.4A4.4,4.4,0,0,1,95.79,0Z"/><rect class="cls-34" x="96.34" width="6.93" height="313.21"/><rect class="cls-35" x="98.63" y="247.31" width="2.29" height="65.9"/><rect class="cls-36" x="94.86" y="286.57" width="13.32" height="13.32"/><rect class="cls-35" x="91.39" y="279.28" width="20.71" height="2.85"/><rect class="cls-37" x="91.39" y="13.07" width="20.66" height="5"/><rect class="cls-32" x="169.65" y="294.01" width="13.37" height="19.2"/><rect class="cls-32" x="166.18" y="273.73" width="20.71" height="20.86"/><rect class="cls-33" x="166.18" y="136.42" width="20.71" height="137.31"/><path class="cls-33" d="M170.59,125.6h11.86a4.4,4.4,0,0,1,4.4,4.4v6.57a0,0,0,0,1,0,0H166.18a0,0,0,0,1,0,0V130A4.4,4.4,0,0,1,170.59,125.6Z"/><rect class="cls-34" x="171.14" y="125.6" width="6.93" height="187.61"/><rect class="cls-35" x="173.43" y="273.73" width="2.29" height="39.47"/><rect class="cls-36" x="169.65" y="297.25" width="13.32" height="7.98"/><rect class="cls-35" x="166.18" y="292.89" width="20.71" height="1.71"/><rect class="cls-37" x="166.18" y="133.43" width="20.66" height="2.99"/><rect class="cls-32" x="25.36" y="420.19" width="13.37" height="19.2" transform="translate(64.1 859.57) rotate(180)"/><rect class="cls-32" x="21.49" y="438.8" width="20.71" height="20.86" transform="translate(63.69 898.46) rotate(180)"/><rect class="cls-33" x="21.49" y="459.66" width="20.71" height="137.31" transform="translate(63.69 1056.64) rotate(180)"/><path class="cls-33" d="M25.94,596.83H37.8a4.4,4.4,0,0,1,4.4,4.4v6.57a0,0,0,0,1,0,0H21.54a0,0,0,0,1,0,0v-6.57A4.4,4.4,0,0,1,25.94,596.83Z" transform="translate(63.73 1204.62) rotate(180)"/><rect class="cls-34" x="30.31" y="420.19" width="6.93" height="187.61" transform="translate(67.56 1027.98) rotate(180)"/><rect class="cls-35" x="32.67" y="420.19" width="2.29" height="39.47" transform="translate(67.62 879.85) rotate(180)"/><rect class="cls-36" x="25.41" y="428.17" width="13.32" height="7.98" transform="translate(64.14 864.31) rotate(180)"/><rect class="cls-35" x="21.49" y="438.8" width="20.71" height="1.71" transform="translate(63.69 879.31) rotate(180)"/><rect class="cls-37" x="21.54" y="596.98" width="20.66" height="2.99" transform="translate(63.73 1196.94) rotate(180)"/><path class="cls-38" d="M167.3,420.08h14.47a0,0,0,0,1,0,0v18a2.72,2.72,0,0,1-2.72,2.72h-9a2.72,2.72,0,0,1-2.72-2.72v-18A0,0,0,0,1,167.3,420.08Z"/><rect class="cls-39" x="170.02" y="420.08" width="5.45" height="20.77"/><path class="cls-39" d="M178.19,420.08h3.57a0,0,0,0,1,0,0v17.19a3.57,3.57,0,0,1-3.57,3.57h0a0,0,0,0,1,0,0V420.08A0,0,0,0,1,178.19,420.08Z"/><rect class="cls-40" x="167.3" y="428.08" width="14.47" height="9.02"/><rect class="cls-41" x="54.89" y="420.19" width="26.55" height="6.32"/><rect class="cls-42" x="56.3" y="427.25" width="23.62" height="20.19" rx="10.09"/><rect class="cls-43" x="54.89" y="420.19" width="6.32" height="6.32"/><rect class="cls-44" x="58.13" y="426.51" width="18.71" height="3.16"/><rect class="cls-43" x="75.13" y="420.19" width="6.32" height="6.32"/><rect class="cls-41" x="54.89" y="429.68" width="26.55" height="11.38" rx="2.04"/><path class="cls-43" d="M56.94,429.68h4.27a0,0,0,0,1,0,0v11.38a0,0,0,0,1,0,0H56.94a2,2,0,0,1-2-2v-7.29A2,2,0,0,1,56.94,429.68Z"/><path class="cls-43" d="M75.13,429.68H79.4a2,2,0,0,1,2,2V439a2,2,0,0,1-2,2H75.13a0,0,0,0,1,0,0V429.68A0,0,0,0,1,75.13,429.68Z"/><rect class="cls-45" x="84.57" y="420.19" width="25.53" height="0.57"/><path class="cls-46" d="M87.64,420.76H107a3.06,3.06,0,0,1,3.06,3.06v.7a0,0,0,0,1,0,0H84.57a0,0,0,0,1,0,0v-.7A3.06,3.06,0,0,1,87.64,420.76Z" transform="translate(194.68 845.29) rotate(180)"/><rect class="cls-47" x="92.81" y="420.76" width="8.94" height="3.77"/><rect class="cls-45" x="114.26" y="420.19" width="25.53" height="0.57"/><path class="cls-46" d="M117.32,420.76h19.4a3.06,3.06,0,0,1,3.06,3.06v.7a0,0,0,0,1,0,0H114.26a0,0,0,0,1,0,0v-.7A3.06,3.06,0,0,1,117.32,420.76Z" transform="translate(254.04 845.29) rotate(180)"/><rect class="cls-47" x="122.49" y="420.76" width="8.94" height="3.77"/><path class="cls-48" d="M43.15,420.21H50.3a0,0,0,0,1,0,0v1.37a2.14,2.14,0,0,1-2.14,2.14H45.29a2.14,2.14,0,0,1-2.14-2.14v-1.37A0,0,0,0,1,43.15,420.21Z"/><rect class="cls-49" x="45.32" y="420.21" width="2.49" height="3.51"/><path class="cls-48" d="M151,420.21h7.15a0,0,0,0,1,0,0v0a1.76,1.76,0,0,1-1.76,1.76h-3.64a1.76,1.76,0,0,1-1.76-1.76v0A0,0,0,0,1,151,420.21Z"/><rect class="cls-49" x="153.19" y="420.21" width="2.49" height="1.76"/><rect class="cls-50" x="806.48" y="250.19" width="23.49" height="17.36" rx="4.48" transform="translate(1077.09 -559.35) rotate(90)"/><text class="cls-51" transform="translate(558.69 424.53)">PoE Injector</text><text class="cls-52" transform="translate(633.88 276.42)">110<tspan class="cls-53" x="23.35" y="0">V - </tspan><tspan x="45.14" y="0">220</tspan><tspan class="cls-53" x="68.49" y="0">V</tspan></text><text class="cls-52" transform="translate(190.34 631.82)">48<tspan class="cls-54" x="15.57" y="0">V (PoE)</tspan></text><rect class="cls-55" x="502.29" y="427.69" width="13.02" height="7.13"/><polygon class="cls-56" points="500.57 424.4 502.29 427.69 502.29 434.82 500.57 433.93 500.57 424.4"/><polygon class="cls-56" points="517.03 424.4 515.32 427.69 515.32 434.82 517.03 433.93 517.03 424.4"/><rect class="cls-55" x="520.65" y="427.69" width="13.02" height="7.13"/><polygon class="cls-56" points="518.93 424.4 520.65 427.69 520.65 434.82 518.93 433.93 518.93 424.4"/><polygon class="cls-56" points="535.39 424.4 533.68 427.69 533.68 434.82 535.39 433.93 535.39 424.4"/><path class="cls-7" d="M67.22,447.44V621.53c0,10.66,7.17,19.3,16,19.3H494.4c8,0,14.4-7.77,14.4-17.35V431.26"/><path class="cls-7" d="M684.66,567.13H533.31a6.14,6.14,0,0,1-6.15-6.14V433"/><rect class="cls-57" x="810.88" y="218.53" width="2.72" height="8.68"/><rect class="cls-57" x="820.47" y="218.53" width="2.72" height="8.68"/><path class="cls-57" d="M817,228.87h0a1.36,1.36,0,0,1,1.36,1.36v3.15a0,0,0,0,1,0,0h-2.72a0,0,0,0,1,0,0v-3.15A1.36,1.36,0,0,1,817,228.87Z"/></g><g id="LAN_Router" data-name="LAN Router"><rect class="cls-58" x="687.87" y="523.63" width="186.65" height="118.61" rx="5.49"/><rect class="cls-59" x="684.66" y="521.14" width="186.65" height="118.61" rx="5.49"/><path class="cls-59" d="M867.3,521H689.39a4.37,4.37,0,0,1-4.37-4.37l-3.92-80.4c-.41-3.21.89-4.63,8.29-4.63H867.3c8.64,0,8.64,1.68,8.64,4.09l-4.27,80.94A4.37,4.37,0,0,1,867.3,521Z"/><path class="cls-34" d="M862.48,515.9H695.28a4,4,0,0,1-4.11-3.79l-3.68-69.85c-.39-2.79.83-4,7.79-4h167.2c8.12,0,8.12,1.47,8.12,3.56l-4,70.32A4,4,0,0,1,862.48,515.9Z"/><rect class="cls-60" x="684.66" y="521.14" width="186.65" height="112.7" rx="5.49"/><path class="cls-61" d="M862.24,593.42H695a4,4,0,0,1-4-4v-59.1a4,4,0,0,1,4-4H862.24a4,4,0,0,1,4,4v59.1A4,4,0,0,1,862.24,593.42ZM695,527a3.29,3.29,0,0,0-3.28,3.29v59.1a3.29,3.29,0,0,0,3.28,3.29H862.24a3.29,3.29,0,0,0,3.28-3.29v-59.1a3.29,3.29,0,0,0-3.28-3.29Z"/><path class="cls-62" d="M797.39,630.87H763.93a7.77,7.77,0,0,1-7.76-7.76V604.39a7.77,7.77,0,0,1,7.76-7.76h33.46a7.77,7.77,0,0,1,7.76,7.76v18.72A7.77,7.77,0,0,1,797.39,630.87Zm-33.46-33.35a6.88,6.88,0,0,0-6.87,6.87v18.72a6.88,6.88,0,0,0,6.87,6.87h33.46a6.88,6.88,0,0,0,6.87-6.87V604.39a6.88,6.88,0,0,0-6.87-6.87Z"/><rect class="cls-59" x="788.86" y="576.21" width="8.82" height="10.82" rx="2"/><rect class="cls-59" x="800.29" y="576.21" width="8.82" height="10.82" rx="2"/><rect class="cls-59" x="811.51" y="576.21" width="8.82" height="10.82" rx="2"/><rect class="cls-59" x="824.52" y="582.77" width="8.82" height="4.26" rx="0.86"/><rect class="cls-59" x="836.97" y="582.77" width="8.82" height="4.26" rx="0.86"/><rect class="cls-59" x="836.97" y="576.01" width="8.82" height="4.26" rx="0.89"/><rect class="cls-59" x="849.13" y="582.77" width="8.82" height="4.26" rx="0.86"/><rect class="cls-59" x="709.92" y="576.21" width="8.82" height="10.82" rx="2"/><rect class="cls-59" x="698.7" y="576.21" width="8.82" height="10.82" rx="2"/><rect class="cls-59" x="698.7" y="565.34" width="20.03" height="8.82" rx="2.12"/><rect class="cls-59" x="833.87" y="565.34" width="25.24" height="8.82" rx="2.02"/><rect class="cls-59" x="845.22" y="553.86" width="13.89" height="8.82" rx="2.62"/><rect class="cls-59" x="716.1" y="553.86" width="13.89" height="8.82" rx="1.94"/><rect class="cls-59" x="698.7" y="553.86" width="13.89" height="8.82" rx="2.12"/><rect class="cls-59" x="721.18" y="565.34" width="8.82" height="8.82" rx="1.94"/><rect class="cls-59" x="732.58" y="565.34" width="8.82" height="8.82" rx="1.94"/><rect class="cls-59" x="743.77" y="565.34" width="8.82" height="8.82" rx="1.94"/><rect class="cls-59" x="754.77" y="565.34" width="8.82" height="8.82" rx="1.94"/><rect class="cls-59" x="766.17" y="565.34" width="8.82" height="8.82" rx="1.94"/><rect class="cls-59" x="777.37" y="565.34" width="8.82" height="8.82" rx="1.94"/><rect class="cls-59" x="788.99" y="565.34" width="8.82" height="8.82" rx="1.94"/><rect class="cls-59" x="800.39" y="565.34" width="8.82" height="8.82" rx="1.94"/><rect class="cls-59" x="811.6" y="565.34" width="8.82" height="8.82" rx="1.94"/><rect class="cls-59" x="822.92" y="565.34" width="8.82" height="8.82" rx="1.94"/><rect class="cls-59" x="732.33" y="553.86" width="8.82" height="8.82" rx="1.94"/><rect class="cls-59" x="743.73" y="553.86" width="8.82" height="8.82" rx="1.94"/><rect class="cls-59" x="754.77" y="553.86" width="8.82" height="8.82" rx="1.94"/><rect class="cls-59" x="765.92" y="553.86" width="8.82" height="8.82" rx="1.94"/><rect class="cls-59" x="777.32" y="553.86" width="8.82" height="8.82" rx="1.94"/><rect class="cls-59" x="788.52" y="553.86" width="8.82" height="8.82" rx="1.94"/><rect class="cls-59" x="800.15" y="553.86" width="8.82" height="8.82" rx="1.94"/><rect class="cls-59" x="811.54" y="553.86" width="8.82" height="8.82" rx="1.94"/><rect class="cls-59" x="822.75" y="553.86" width="8.82" height="8.82" rx="1.94"/><rect class="cls-59" x="834.07" y="553.86" width="8.82" height="8.82" rx="2.23"/><rect class="cls-59" x="721.33" y="542.91" width="8.82" height="8.82" rx="4.41"/><rect class="cls-59" x="732.73" y="542.91" width="8.82" height="8.82" rx="0.93"/><rect class="cls-59" x="721.33" y="542.91" width="8.82" height="8.82" rx="0.93"/><rect class="cls-59" x="710.09" y="542.91" width="8.82" height="8.82" rx="0.93"/><rect class="cls-59" x="698.7" y="542.91" width="8.82" height="8.82" rx="2.12"/><rect class="cls-59" x="698.7" y="534.15" width="8.82" height="6.16" rx="2.05"/><rect class="cls-59" x="709.92" y="534.15" width="8.82" height="6.16" rx="2.05"/><rect class="cls-59" x="721.14" y="534.15" width="8.82" height="6.16" rx="2.05"/><rect class="cls-59" x="732.35" y="534.15" width="8.82" height="6.16" rx="2.05"/><rect class="cls-59" x="743.57" y="534.15" width="8.82" height="6.16" rx="2.05"/><rect class="cls-59" x="754.78" y="534.15" width="8.82" height="6.16" rx="2.05"/><rect class="cls-59" x="766" y="534.15" width="8.82" height="6.16" rx="2.05"/><rect class="cls-59" x="777.22" y="534.15" width="8.82" height="6.16" rx="2.05"/><rect class="cls-59" x="788.43" y="534.15" width="8.82" height="6.16" rx="2.05"/><rect class="cls-59" x="799.65" y="534.15" width="8.82" height="6.16" rx="2.05"/><rect class="cls-59" x="810.86" y="534.15" width="8.82" height="6.16" rx="2.05"/><rect class="cls-59" x="822.08" y="534.15" width="8.82" height="6.16" rx="2.05"/><rect class="cls-59" x="833.29" y="534.15" width="11.36" height="6.16" rx="2.05"/><rect class="cls-59" x="847.75" y="534.15" width="11.36" height="6.16" rx="2.05"/><rect class="cls-59" x="743.77" y="542.91" width="8.82" height="8.82" rx="0.93"/><rect class="cls-59" x="754.92" y="542.91" width="8.82" height="8.82" rx="0.93"/><rect class="cls-59" x="766.32" y="542.91" width="8.82" height="8.82" rx="0.93"/><path class="cls-59" d="M780.19,542.91h3.47a2.67,2.67,0,0,1,2.67,2.67v4.91a1.24,1.24,0,0,1-1.24,1.24h-4.91a2.67,2.67,0,0,1-2.67-2.67v-3.47A2.67,2.67,0,0,1,780.19,542.91Z"/><rect class="cls-59" x="789.14" y="542.91" width="8.82" height="8.82" rx="1.24"/><rect class="cls-59" x="800.54" y="542.91" width="8.82" height="8.82" rx="1.24"/><rect class="cls-59" x="811.75" y="542.91" width="8.82" height="8.82" rx="1.24"/><rect class="cls-59" x="823.07" y="542.91" width="8.82" height="8.82" rx="1.24"/><rect class="cls-59" x="834.07" y="542.91" width="11.15" height="8.82" rx="2.23"/><rect class="cls-59" x="847.96" y="542.91" width="11.15" height="8.82" rx="2.23"/><rect class="cls-59" x="721.36" y="576.21" width="8.82" height="10.82" rx="2"/><rect class="cls-59" x="732.58" y="576.21" width="8.82" height="10.82" rx="2"/><rect class="cls-59" x="743.78" y="576.21" width="42.41" height="10.82" rx="2.15"/><path class="cls-63" d="M747,469.74h1c.94,0,1.55.18,1.79.54a1.51,1.51,0,0,1,.24,1.26,1.54,1.54,0,0,1-.49.82l-.21.17a.61.61,0,0,1-.35.11h-.14a10.58,10.58,0,0,0-2.31-.21q-.37,0-.72,0a20.83,20.83,0,0,0-3.38.55l-.15,0A.65.65,0,0,1,742,473a4.09,4.09,0,0,0-.78-.34l-.05,0a.41.41,0,0,1-.18-.73,9.87,9.87,0,0,1,2.92-1.61A10.82,10.82,0,0,1,747,469.74Z"/><path class="cls-63" d="M751.19,471.29a.57.57,0,0,1,.22,0,12.12,12.12,0,0,1,4.12,2.41,8.44,8.44,0,0,1,2.81,6.12c-.07,1.95-.42,2.41-1.89,2.44a2.38,2.38,0,0,1-1.62-.7.38.38,0,0,1-.14-.32,7.49,7.49,0,0,0-.36-3.21,8.32,8.32,0,0,0-2.18-3.07c-.55-.47-1.18-.94-1.46-1.14a.37.37,0,0,1-.13-.15,1.63,1.63,0,0,0-.37-.48.4.4,0,0,1-.05-.61,1.93,1.93,0,0,0,.36-.45,1.46,1.46,0,0,0,.17-.51A.49.49,0,0,1,751.19,471.29Z"/><g class="cls-64"><path class="cls-63" d="M745.6,479.31v.08c0,.48.06,1.48.09,1.81a2,2,0,0,0,.08.48.43.43,0,0,1-.38.53,18.68,18.68,0,0,1-2.92.43l-.46,0a8.4,8.4,0,0,1-2.89-.4,1.18,1.18,0,0,1-.67-1.37,1.73,1.73,0,0,1,1.87-1.43h.2l3.55-.09C744.52,479.37,745.22,479.33,745.6,479.31Z"/><path class="cls-63" d="M732,473.32a2.45,2.45,0,0,1,1.65.71.35.35,0,0,1,.13.32,7.66,7.66,0,0,0,.37,3.2,8.21,8.21,0,0,0,2.18,3.07c.53.46,1.16.92,1.45,1.13a.52.52,0,0,1,.14.16,1.6,1.6,0,0,0,.36.47.39.39,0,0,1,0,.61,2.24,2.24,0,0,0-.35.46,1.48,1.48,0,0,0-.17.5.5.5,0,0,1-.52.38.57.57,0,0,1-.22,0,12.12,12.12,0,0,1-4.12-2.41,8.48,8.48,0,0,1-2.81-6.13C730.19,473.8,730.54,473.35,732,473.32Z"/><path class="cls-63" d="M736.09,473a3.16,3.16,0,0,1,.51,0,2.2,2.2,0,0,1,1,.4l.21.17a.39.39,0,0,1,.12.4,6.52,6.52,0,0,0-.21,2.49,12.48,12.48,0,0,0,.69,2.77.38.38,0,0,1-.07.38,2.44,2.44,0,0,0-.41.64l0,0a.52.52,0,0,1-.49.29.58.58,0,0,1-.4-.14,8.15,8.15,0,0,1-2-2.4,6.27,6.27,0,0,1-.63-3.05c0-.11,0-.23,0-.33,0-.77.2-1.26.65-1.46A2.44,2.44,0,0,1,736.09,473Z"/></g><path class="cls-63" d="M746.18,482.57a.59.59,0,0,1,.32.08,3.82,3.82,0,0,0,.78.34h0c.37.12.48.51.19.73a9.9,9.9,0,0,1-2.92,1.61,10.27,10.27,0,0,1-3.1.5c-.23,0-.42,0-.61,0h-.4c-1,0-1.54-.17-1.79-.54a1.48,1.48,0,0,1-.24-1.25,1.54,1.54,0,0,1,.48-.81l.21-.17a.64.64,0,0,1,.35-.12l.14,0a11.26,11.26,0,0,0,2.31.21l.72,0a21.62,21.62,0,0,0,3.37-.55A.39.39,0,0,1,746.18,482.57Z"/><path class="cls-63" d="M750.23,482.58a.63.63,0,0,1,.35.11,2.27,2.27,0,0,0,.56.29,3.64,3.64,0,0,0,1.3.17,9.87,9.87,0,0,1-3.19,4,13.23,13.23,0,0,1-7.06,2.28h-.4c-2.37-.07-2.93-.36-3-1.54a1.83,1.83,0,0,1,.86-1.35.61.61,0,0,1,.33-.1h0c.24,0,.61,0,1.06,0h.15a10.46,10.46,0,0,0,6.42-2.08c.57-.44,1.13-.95,1.39-1.19a.45.45,0,0,1,.19-.11,1.79,1.79,0,0,0,.58-.3A.64.64,0,0,1,750.23,482.58Z"/><path class="cls-63" d="M751,475a.58.58,0,0,1,.4.14,8.15,8.15,0,0,1,2,2.4,6.08,6.08,0,0,1,.62,3v.33c0,.78-.2,1.27-.65,1.47a2.6,2.6,0,0,1-1,.23,3.08,3.08,0,0,1-.51,0,2.2,2.2,0,0,1-1-.4l-.21-.18a.37.37,0,0,1-.12-.39,6.6,6.6,0,0,0,.21-2.5,12.63,12.63,0,0,0-.69-2.77.36.36,0,0,1,.07-.38,2.73,2.73,0,0,0,.41-.64l0,0A.53.53,0,0,1,751,475Z"/><path class="cls-63" d="M746.46,472.93a8.51,8.51,0,0,1,2.88.39,1.18,1.18,0,0,1,.67,1.37,1.74,1.74,0,0,1-1.87,1.44H748c-2,.05-3.2.09-3.61.09s-.65,0-1,0h0a.5.5,0,0,1-.54-.42c0-.5-.05-1.18-.07-1.45a2.08,2.08,0,0,0-.08-.48.43.43,0,0,1,.38-.53A21.24,21.24,0,0,1,746,473Z"/><path class="cls-63" d="M746.27,466.23h.42c2.38.07,2.94.36,3,1.54a1.75,1.75,0,0,1-.85,1.35.59.59,0,0,1-.34.1h-.05c-.26,0-.7,0-1.21,0a11.24,11.24,0,0,0-2.69.31,10.78,10.78,0,0,0-3.73,1.78c-.59.45-1.16,1-1.39,1.18a.52.52,0,0,1-.19.12,2.19,2.19,0,0,0-.57.29.62.62,0,0,1-.39.14.68.68,0,0,1-.36-.1,2.42,2.42,0,0,0-.55-.3,4,4,0,0,0-1.31-.17,9.87,9.87,0,0,1,3.2-3.93A13,13,0,0,1,746.27,466.23Z"/><path class="cls-63" d="M749.07,476.54a.53.53,0,0,1,.53.32,12,12,0,0,1,.53,2.4,5.23,5.23,0,0,1-.44,2.75s-.28.54-1.35.55H748c-1.52-.12-1.74-1.12-1.76-1.54v-.32c0-.81-.11-2.31-.12-2.75,0-.23,0-.53,0-.8a.48.48,0,0,1,.51-.47l1.76-.06a3.25,3.25,0,0,0,.59-.06Z"/><path class="cls-63" d="M740.12,473.05a1.56,1.56,0,0,1,.31,0c1.52.11,1.74,1.12,1.76,1.54v.1c.08,1.61.12,2.64.13,3s0,.54,0,.8a.48.48,0,0,1-.52.47l-1.75.05a4.35,4.35,0,0,0-.59.07h-.12a.55.55,0,0,1-.53-.33,11.54,11.54,0,0,1-.53-2.4,5.21,5.21,0,0,1,.44-2.74S739.05,473.07,740.12,473.05Z"/><path class="cls-63" d="M783.16,484.9c.12.28-.13.58-.5.59l-3.07,0a.53.53,0,0,1-.52-.31,5.49,5.49,0,0,1-.34-1.52c-.07-.71-.16-1.38-.29-2a2.93,2.93,0,0,0-1-1.84,3.71,3.71,0,0,0-2.35-.57l-3.8,0a.48.48,0,0,0-.52.44l.11,5.43a.5.5,0,0,1-.53.45l-3.26,0a.5.5,0,0,1-.54-.44L766.26,470a.47.47,0,0,1,.52-.44l10.07-.1a7.73,7.73,0,0,1,2.39.32,5.92,5.92,0,0,1,1.84.95,4.3,4.3,0,0,1,1.2,1.4,3.91,3.91,0,0,1,.43,1.72,4.07,4.07,0,0,1-.68,2.47,4.4,4.4,0,0,1-2.35,1.6,4.7,4.7,0,0,1,1.33.59,3.47,3.47,0,0,1,.88.87,3.43,3.43,0,0,1,.5,1.12,7.48,7.48,0,0,1,.23,1.22c0,.26,0,.56.08.9a10.12,10.12,0,0,0,.12,1.06,5.43,5.43,0,0,0,.24,1A1.86,1.86,0,0,0,783.16,484.9Zm-5.48-8.74a2,2,0,0,0,.7-1.77,1.94,1.94,0,0,0-.77-1.7,3.89,3.89,0,0,0-2.25-.51l-4.2,0a.5.5,0,0,0-.53.45l.08,3.66a.49.49,0,0,0,.54.43l4.21,0a3.81,3.81,0,0,0,2.22-.56"/><path class="cls-63" d="M802.88,484.7c.13.29-.12.6-.49.6l-3.34,0a.54.54,0,0,1-.51-.29l-1.31-3a.54.54,0,0,0-.51-.29l-6.6.06a.56.56,0,0,0-.5.3l-1.23,3a.52.52,0,0,1-.5.3l-3.2,0c-.37,0-.64-.3-.51-.59l6.72-15.33a.54.54,0,0,1,.49-.29l3.71,0a.54.54,0,0,1,.5.28Zm-7.72-5.57c.37,0,.62-.3.5-.59l-2.35-5.32h-.06l-2.19,5.36c-.12.29.14.59.51.59l3.59,0"/><path class="cls-63" d="M819.88,469c.48,0,.73.47.4.75l-6.36,5.42a.39.39,0,0,0,0,.57l7.75,8.69c.26.29,0,.69-.42.7l-4.11,0a.58.58,0,0,1-.44-.19l-5.55-6.57a.58.58,0,0,0-.44-.19.63.63,0,0,0-.38.14l-1.84,1.56a.41.41,0,0,0-.14.31l.09,4.58a.49.49,0,0,1-.53.45l-3.26,0a.5.5,0,0,1-.54-.43l-.32-15.26a.5.5,0,0,1,.53-.44l3.27,0a.48.48,0,0,1,.54.43l.11,5.15a.51.51,0,0,0,.55.43.56.56,0,0,0,.38-.14l6.49-5.82A.57.57,0,0,1,816,469Z"/></g></g></svg>