<svg xmlns="http://www.w3.org/2000/svg" xmlns:xlink="http://www.w3.org/1999/xlink" viewBox="0 0 875.76 642.83"><defs><style>.cls-1,.cls-11{fill:none;}.cls-2,.cls-6{fill:#b3b3b3;}.cls-2{opacity:0.39;}.cls-3{fill:#3e3f45;}.cls-4{fill:#fff;}.cls-5{fill:#f0efef;}.cls-7{fill:#919c9c;}.cls-8{fill:#1a66a7;}.cls-9{isolation:isolate;}.cls-10{fill:#d8d9d9;}.cls-11{stroke:#171719;stroke-width:4px;}.cls-11,.cls-55{stroke-miterlimit:10;}.cls-12{fill:#e4f0ed;}.cls-13{fill:#dde8e5;}.cls-14{clip-path:url(#clip-path);}.cls-15{fill:#f6f6f6;}.cls-16{fill:#787878;}.cls-17{fill:#555656;}.cls-18{fill:#b0b0b0;}.cls-19{fill:#d1dbd8;}.cls-20{fill:#b0b6b3;}.cls-21{fill:#adb3b1;}.cls-22{fill:#8f9694;}.cls-23{fill:#c7cfcc;}.cls-24{fill:#bab9ba;}.cls-25{fill:#edeeef;}.cls-26{font-size:16.8px;fill:#256bb4;}.cls-26,.cls-46,.cls-62,.cls-63{font-family:HelveticaNeueLTPro-Roman, Helvetica Neue LT Pro;}.cls-27,.cls-45{font-family:HelveticaNeueLTPro-Bd, Helvetica Neue LT Pro;}.cls-27{letter-spacing:0em;}.cls-28{fill:#b7bdbb;}.cls-29{fill:#f1f2f5;}.cls-30{fill:#565151;}.cls-31{fill:#888989;}.cls-32{fill:#e1e3e5;}.cls-33{fill:#e6e7e7;}.cls-34{fill:#7b7a7a;}.cls-35{fill:#646666;}.cls-36{fill:#c5c4bf;}.cls-37{fill:#b5b5b0;}.cls-38{fill:#93938f;}.cls-39{fill:#aaaba7;}.cls-40{fill:#6f6f70;}.cls-41{fill:#878888;}.cls-42{fill:#b0b1b2;}.cls-43{fill:#828282;}.cls-44{fill:#9b9b9b;}.cls-45,.cls-62{font-size:14px;}.cls-45{fill:#939598;}.cls-47{fill:url(#linear-gradient);}.cls-48{fill:#fdfeff;}.cls-49{fill:#f0f0f1;}.cls-50{fill:#9a9b9c;}.cls-51{fill:#e1e2e3;}.cls-52{fill:#171719;}.cls-53{fill:#555957;}.cls-54{fill:#464d4c;}.cls-55{fill:#dcd0cb;stroke:#000;stroke-width:0.25px;}.cls-56{fill:#404345;}.cls-57{font-size:3.51px;font-family:HelveticaNeueLTPro-Lt, Helvetica Neue LT Pro;}.cls-57,.cls-62{fill:#bcbec0;}.cls-58{fill:url(#linear-gradient-2);}.cls-59{fill:#343735;}.cls-60{fill:#2a2d2d;}.cls-61{fill:#1c1f21;}.cls-63{letter-spacing:0em;}.cls-64{fill:#373a3c;}.cls-65{fill:#252525;}</style><clipPath id="clip-path"><path class="cls-1" d="M292.4,456.42a43.3,43.3,0,0,1-33.7,0V320.94h33.7Z"/></clipPath><linearGradient id="linear-gradient" x1="770.11" y1="236.23" x2="883.3" y2="233" gradientUnits="userSpaceOnUse"><stop offset="0.03" stop-color="#757575"/><stop offset="0.12" stop-color="#929292"/><stop offset="0.27" stop-color="#bfbfbf"/><stop offset="0.39" stop-color="#dbdbdb"/><stop offset="0.46" stop-color="#e6e6e6"/><stop offset="0.62" stop-color="#c8c8c8"/><stop offset="0.96" stop-color="#7d7d7d"/><stop offset="1" stop-color="#757575"/></linearGradient><linearGradient id="linear-gradient-2" x1="768.89" y1="234.15" x2="882.08" y2="230.92" xlink:href="#linear-gradient"/></defs><g id="Layer_2" data-name="Layer 2"><g id="PoE_Injector" data-name="PoE Injector"><rect class="cls-2" x="687.7" y="523.17" width="186.65" height="118.61" rx="5.49"/><rect class="cls-3" x="684.49" y="520.67" width="186.65" height="118.61" rx="5.49"/><path class="cls-3" d="M867.12,520.5H689.21a4.37,4.37,0,0,1-4.36-4.37l-3.92-80.41c-.41-3.2.89-4.63,8.28-4.63H867.12c8.64,0,8.64,1.68,8.64,4.1l-4.27,80.94A4.37,4.37,0,0,1,867.12,520.5Z"/><path class="cls-4" d="M862.3,515.44H695.1a4,4,0,0,1-4.11-3.8l-3.68-69.85c-.38-2.78.84-4,7.79-4H862.3c8.12,0,8.12,1.46,8.12,3.56l-4,70.31A4,4,0,0,1,862.3,515.44Z"/><rect class="cls-5" x="684.49" y="520.67" width="186.65" height="112.7" rx="5.49"/><path class="cls-6" d="M862.06,593H694.81a4,4,0,0,1-4-4V529.85a4,4,0,0,1,4-4H862.06a4,4,0,0,1,4,4V589A4,4,0,0,1,862.06,593ZM694.81,526.57a3.29,3.29,0,0,0-3.29,3.28V589a3.29,3.29,0,0,0,3.29,3.28H862.06a3.29,3.29,0,0,0,3.29-3.28V529.85a3.29,3.29,0,0,0-3.29-3.28Z"/><path class="cls-7" d="M797.21,630.41H763.75a7.77,7.77,0,0,1-7.76-7.76V603.92a7.77,7.77,0,0,1,7.76-7.76h33.46a7.77,7.77,0,0,1,7.76,7.76v18.73A7.77,7.77,0,0,1,797.21,630.41Zm-33.46-33.36a6.87,6.87,0,0,0-6.86,6.87v18.73a6.88,6.88,0,0,0,6.86,6.87h33.46a6.88,6.88,0,0,0,6.87-6.87V603.92a6.88,6.88,0,0,0-6.87-6.87Z"/><rect class="cls-3" x="788.68" y="575.75" width="8.82" height="10.82" rx="2"/><rect class="cls-3" x="800.12" y="575.75" width="8.82" height="10.82" rx="2"/><rect class="cls-3" x="811.34" y="575.75" width="8.82" height="10.82" rx="2"/><rect class="cls-3" x="824.35" y="582.31" width="8.82" height="4.26" rx="0.86"/><rect class="cls-3" x="836.79" y="582.31" width="8.82" height="4.26" rx="0.86"/><rect class="cls-3" x="836.79" y="575.54" width="8.82" height="4.26" rx="0.89"/><rect class="cls-3" x="848.95" y="582.31" width="8.82" height="4.26" rx="0.86"/><rect class="cls-3" x="709.74" y="575.75" width="8.82" height="10.82" rx="2"/><rect class="cls-3" x="698.53" y="575.75" width="8.82" height="10.82" rx="2"/><rect class="cls-3" x="698.53" y="564.88" width="20.03" height="8.82" rx="2.12"/><rect class="cls-3" x="833.7" y="564.88" width="25.24" height="8.82" rx="2.02"/><rect class="cls-3" x="845.05" y="553.39" width="13.89" height="8.82" rx="2.62"/><rect class="cls-3" x="715.93" y="553.39" width="13.89" height="8.82" rx="1.94"/><rect class="cls-3" x="698.53" y="553.39" width="13.89" height="8.82" rx="2.12"/><rect class="cls-3" x="721" y="564.88" width="8.82" height="8.82" rx="1.94"/><rect class="cls-3" x="732.4" y="564.88" width="8.82" height="8.82" rx="1.94"/><rect class="cls-3" x="743.59" y="564.88" width="8.82" height="8.82" rx="1.94"/><rect class="cls-3" x="754.59" y="564.88" width="8.82" height="8.82" rx="1.94"/><rect class="cls-3" x="765.99" y="564.88" width="8.82" height="8.82" rx="1.94"/><rect class="cls-3" x="777.2" y="564.88" width="8.82" height="8.82" rx="1.94"/><rect class="cls-3" x="788.82" y="564.88" width="8.82" height="8.82" rx="1.94"/><rect class="cls-3" x="800.21" y="564.88" width="8.82" height="8.82" rx="1.94"/><rect class="cls-3" x="811.42" y="564.88" width="8.82" height="8.82" rx="1.94"/><rect class="cls-3" x="822.74" y="564.88" width="8.82" height="8.82" rx="1.94"/><rect class="cls-3" x="732.16" y="553.39" width="8.82" height="8.82" rx="1.94"/><rect class="cls-3" x="743.55" y="553.39" width="8.82" height="8.82" rx="1.94"/><rect class="cls-3" x="754.59" y="553.39" width="8.82" height="8.82" rx="1.94"/><rect class="cls-3" x="765.75" y="553.39" width="8.82" height="8.82" rx="1.94"/><rect class="cls-3" x="777.14" y="553.39" width="8.82" height="8.82" rx="1.94"/><rect class="cls-3" x="788.35" y="553.39" width="8.82" height="8.82" rx="1.94"/><rect class="cls-3" x="799.97" y="553.39" width="8.82" height="8.82" rx="1.94"/><rect class="cls-3" x="811.37" y="553.39" width="8.82" height="8.82" rx="1.94"/><rect class="cls-3" x="822.57" y="553.39" width="8.82" height="8.82" rx="1.94"/><rect class="cls-3" x="833.89" y="553.39" width="8.82" height="8.82" rx="2.23"/><rect class="cls-3" x="721.15" y="542.44" width="8.82" height="8.82" rx="4.41"/><rect class="cls-3" x="732.55" y="542.44" width="8.82" height="8.82" rx="0.93"/><rect class="cls-3" x="721.15" y="542.44" width="8.82" height="8.82" rx="0.93"/><rect class="cls-3" x="709.92" y="542.44" width="8.82" height="8.82" rx="0.93"/><rect class="cls-3" x="698.53" y="542.44" width="8.82" height="8.82" rx="2.12"/><rect class="cls-3" x="698.53" y="533.69" width="8.82" height="6.16" rx="2.05"/><rect class="cls-3" x="709.74" y="533.69" width="8.82" height="6.16" rx="2.05"/><rect class="cls-3" x="720.96" y="533.69" width="8.82" height="6.16" rx="2.05"/><rect class="cls-3" x="732.18" y="533.69" width="8.82" height="6.16" rx="2.05"/><rect class="cls-3" x="743.39" y="533.69" width="8.82" height="6.16" rx="2.05"/><rect class="cls-3" x="754.61" y="533.69" width="8.82" height="6.16" rx="2.05"/><rect class="cls-3" x="765.82" y="533.69" width="8.82" height="6.16" rx="2.05"/><rect class="cls-3" x="777.04" y="533.69" width="8.82" height="6.16" rx="2.05"/><rect class="cls-3" x="788.26" y="533.69" width="8.82" height="6.16" rx="2.05"/><rect class="cls-3" x="799.47" y="533.69" width="8.82" height="6.16" rx="2.05"/><rect class="cls-3" x="810.69" y="533.69" width="8.82" height="6.16" rx="2.05"/><rect class="cls-3" x="821.9" y="533.69" width="8.82" height="6.16" rx="2.05"/><rect class="cls-3" x="833.12" y="533.69" width="11.36" height="6.16" rx="2.05"/><rect class="cls-3" x="847.58" y="533.69" width="11.36" height="6.16" rx="2.05"/><rect class="cls-3" x="743.59" y="542.44" width="8.82" height="8.82" rx="0.93"/><rect class="cls-3" x="754.74" y="542.44" width="8.82" height="8.82" rx="0.93"/><rect class="cls-3" x="766.14" y="542.44" width="8.82" height="8.82" rx="0.93"/><path class="cls-3" d="M780,542.44h3.47a2.67,2.67,0,0,1,2.67,2.67V550a1.24,1.24,0,0,1-1.24,1.24H780a2.67,2.67,0,0,1-2.67-2.67v-3.47A2.67,2.67,0,0,1,780,542.44Z"/><rect class="cls-3" x="788.97" y="542.44" width="8.82" height="8.82" rx="1.24"/><rect class="cls-3" x="800.37" y="542.44" width="8.82" height="8.82" rx="1.24"/><rect class="cls-3" x="811.57" y="542.44" width="8.82" height="8.82" rx="1.24"/><rect class="cls-3" x="822.89" y="542.44" width="8.82" height="8.82" rx="1.24"/><rect class="cls-3" x="833.89" y="542.44" width="11.15" height="8.82" rx="2.23"/><rect class="cls-3" x="847.79" y="542.44" width="11.15" height="8.82" rx="2.23"/><rect class="cls-3" x="721.18" y="575.75" width="8.82" height="10.82" rx="2"/><rect class="cls-3" x="732.4" y="575.75" width="8.82" height="10.82" rx="2"/><rect class="cls-3" x="743.61" y="575.75" width="42.41" height="10.82" rx="2.15"/><path class="cls-8" d="M746.81,469.28h.61c.14,0,.28,0,.4,0,.95,0,1.55.18,1.79.54a1.51,1.51,0,0,1,.24,1.26,1.54,1.54,0,0,1-.48.81l-.22.17a.58.58,0,0,1-.34.12l-.14,0a11.38,11.38,0,0,0-2.32-.21l-.71,0a20.22,20.22,0,0,0-3.38.56h-.15a.61.61,0,0,1-.32-.08,3.58,3.58,0,0,0-.78-.34h0a.41.41,0,0,1-.19-.73,9.85,9.85,0,0,1,2.93-1.62A10.61,10.61,0,0,1,746.81,469.28Z"/><path class="cls-8" d="M751,470.82a.62.62,0,0,1,.23,0,12.33,12.33,0,0,1,4.11,2.41,8.51,8.51,0,0,1,2.82,6.13c-.08,2-.43,2.41-1.89,2.43a2.41,2.41,0,0,1-1.63-.7.4.4,0,0,1-.13-.32,7.33,7.33,0,0,0-.37-3.2,8.14,8.14,0,0,0-2.17-3.07c-.55-.48-1.19-.94-1.46-1.14a.52.52,0,0,1-.14-.16,1.51,1.51,0,0,0-.36-.47.39.39,0,0,1,0-.61,2.28,2.28,0,0,0,.36-.46,1.72,1.72,0,0,0,.16-.5A.53.53,0,0,1,751,470.82Z"/><g class="cls-9"><path class="cls-8" d="M745.42,478.84v.08c0,.49.07,1.48.09,1.82a2.16,2.16,0,0,0,.09.48.44.44,0,0,1-.38.53,21.57,21.57,0,0,1-2.93.43h-.45a8.57,8.57,0,0,1-2.9-.39,1.18,1.18,0,0,1-.67-1.37,1.73,1.73,0,0,1,1.88-1.43h.19l3.55-.09C744.34,478.91,745.05,478.86,745.42,478.84Z"/><path class="cls-8" d="M731.8,472.85a2.48,2.48,0,0,1,1.66.71.42.42,0,0,1,.13.32,7.45,7.45,0,0,0,.36,3.2,8.24,8.24,0,0,0,2.18,3.07c.54.46,1.16.93,1.46,1.14a.43.43,0,0,1,.14.16,1.51,1.51,0,0,0,.36.47.4.4,0,0,1,0,.61,1.93,1.93,0,0,0-.36.45,1.69,1.69,0,0,0-.16.51.53.53,0,0,1-.52.38.93.93,0,0,1-.23,0,12,12,0,0,1-4.11-2.42,8.49,8.49,0,0,1-2.82-6.12C730,473.34,730.37,472.88,731.8,472.85Z"/><path class="cls-8" d="M735.91,472.53a4.75,4.75,0,0,1,.51,0,2.15,2.15,0,0,1,1,.4l.21.18a.37.37,0,0,1,.13.39,6.54,6.54,0,0,0-.21,2.49,11.8,11.8,0,0,0,.69,2.77.37.37,0,0,1-.08.39,2.53,2.53,0,0,0-.41.64v0a.55.55,0,0,1-.5.28.56.56,0,0,1-.39-.13,8.18,8.18,0,0,1-2-2.4,6.23,6.23,0,0,1-.62-3.05v-.33c0-.77.21-1.26.65-1.47A2.64,2.64,0,0,1,735.91,472.53Z"/></g><path class="cls-8" d="M746,482.1a.56.56,0,0,1,.31.09,4.09,4.09,0,0,0,.78.34h0a.41.41,0,0,1,.18.73,9.7,9.7,0,0,1-2.91,1.6,10.77,10.77,0,0,1-3.11.51h-1c-.94,0-1.54-.18-1.78-.54a1.45,1.45,0,0,1-.24-1.25,1.47,1.47,0,0,1,.48-.82l.21-.17a.61.61,0,0,1,.35-.11h.14a11.1,11.1,0,0,0,2.31.21l.71,0a20.83,20.83,0,0,0,3.38-.55Z"/><path class="cls-8" d="M750.05,482.12a.65.65,0,0,1,.36.1,2.88,2.88,0,0,0,.55.3,3.94,3.94,0,0,0,1.31.17,9.82,9.82,0,0,1-3.2,3.94,13.11,13.11,0,0,1-7.06,2.28h-.39c-2.38-.07-2.94-.36-3-1.54a1.78,1.78,0,0,1,.85-1.35.68.68,0,0,1,.34-.11h0c.23,0,.61,0,1,0h.15a11.12,11.12,0,0,0,2.69-.31,10.92,10.92,0,0,0,3.74-1.78c.57-.43,1.13-.94,1.39-1.18a.52.52,0,0,1,.19-.12,2,2,0,0,0,.57-.29A.59.59,0,0,1,750.05,482.12Z"/><path class="cls-8" d="M750.87,474.54a.61.61,0,0,1,.39.13,8,8,0,0,1,2,2.4,6.14,6.14,0,0,1,.63,3.05v0a3,3,0,0,0,0,.3c0,.78-.21,1.26-.65,1.46a2.51,2.51,0,0,1-1,.23,2.91,2.91,0,0,1-.51,0,2.16,2.16,0,0,1-1-.41,1.2,1.2,0,0,1-.21-.17.4.4,0,0,1-.13-.4,6.54,6.54,0,0,0,.21-2.49,12.75,12.75,0,0,0-.69-2.78.36.36,0,0,1,.08-.38,3.1,3.1,0,0,0,.41-.64v0A.55.55,0,0,1,750.87,474.54Z"/><path class="cls-8" d="M746.29,472.47a8.49,8.49,0,0,1,2.87.39,1.18,1.18,0,0,1,.68,1.37,1.73,1.73,0,0,1-1.88,1.43h-.12l-3.62.1-1,0h0a.49.49,0,0,1-.54-.42c0-.5-.06-1.17-.07-1.44a2.58,2.58,0,0,0-.09-.48.44.44,0,0,1,.38-.53,19.86,19.86,0,0,1,2.92-.44Z"/><path class="cls-8" d="M746.1,465.76h.42c2.37.08,2.93.36,3,1.54a1.77,1.77,0,0,1-.86,1.35.55.55,0,0,1-.34.11h0c-.27,0-.7,0-1.22,0a10.46,10.46,0,0,0-6.42,2.08c-.58.45-1.15,1-1.38,1.19a.45.45,0,0,1-.19.11,2.3,2.3,0,0,0-.58.3.61.61,0,0,1-.74,0,2.47,2.47,0,0,0-.56-.29,3.67,3.67,0,0,0-1.3-.17,9.86,9.86,0,0,1,3.19-3.94A13.16,13.16,0,0,1,746.1,465.76Z"/><path class="cls-8" d="M748.89,476.07a.53.53,0,0,1,.53.33,12.36,12.36,0,0,1,.54,2.4,5.18,5.18,0,0,1-.45,2.74s-.27.55-1.34.56h-.32c-1.52-.12-1.73-1.12-1.75-1.55l0-.32c0-.8-.11-2.3-.12-2.74a8,8,0,0,0-.05-.81.49.49,0,0,1,.52-.46l1.76-.06a3.07,3.07,0,0,0,.58-.07Z"/><path class="cls-8" d="M739.94,472.59h.32c1.52.12,1.73,1.12,1.75,1.54v.11c.08,1.61.13,2.63.14,3s0,.54,0,.8a.48.48,0,0,1-.51.47c-1.12,0-1.57,0-1.76.05a4.33,4.33,0,0,0-.58.06l-.13,0a.53.53,0,0,1-.52-.33,11.66,11.66,0,0,1-.54-2.4,5,5,0,0,1,.45-2.74S738.87,472.6,739.94,472.59Z"/><path class="cls-8" d="M783,484.44c.13.28-.13.58-.49.58l-3.08,0a.56.56,0,0,1-.52-.3,6,6,0,0,1-.34-1.52c-.07-.71-.16-1.38-.29-2a2.93,2.93,0,0,0-1-1.84,3.77,3.77,0,0,0-2.35-.56l-3.79,0a.49.49,0,0,0-.53.44l.11,5.43a.48.48,0,0,1-.52.44l-3.26,0a.5.5,0,0,1-.55-.43l-.31-15.26a.48.48,0,0,1,.53-.44l10.07-.1a7.47,7.47,0,0,1,2.39.33,6,6,0,0,1,1.84.94,4.36,4.36,0,0,1,1.19,1.4,4,4,0,0,1,.44,1.73,4.09,4.09,0,0,1-.69,2.47,4.42,4.42,0,0,1-2.35,1.6,4.62,4.62,0,0,1,1.34.59,3.27,3.27,0,0,1,.87.87,3.62,3.62,0,0,1,.51,1.11,10.87,10.87,0,0,1,.23,1.22c0,.26,0,.56.07.9s.07.71.12,1.07a5.62,5.62,0,0,0,.24,1A2.6,2.6,0,0,0,783,484.44Zm-5.48-8.75a2,2,0,0,0,.71-1.77,2,2,0,0,0-.78-1.7,4,4,0,0,0-2.24-.5l-4.21,0a.48.48,0,0,0-.52.44l.07,3.67a.51.51,0,0,0,.55.43l4.2,0a3.73,3.73,0,0,0,2.22-.57"/><path class="cls-8" d="M802.7,484.24c.14.28-.11.59-.49.59l-3.34,0a.57.57,0,0,1-.51-.29l-1.3-3a.56.56,0,0,0-.52-.3l-6.59.07a.52.52,0,0,0-.5.3l-1.23,3a.54.54,0,0,1-.5.3l-3.2,0c-.38,0-.64-.3-.52-.59l6.72-15.33a.54.54,0,0,1,.5-.29l3.7,0a.55.55,0,0,1,.51.28ZM795,478.67c.37,0,.62-.31.49-.59l-2.35-5.32h0l-2.2,5.36c-.12.29.15.58.52.58l3.59,0"/><path class="cls-8" d="M819.71,468.52c.47,0,.72.46.39.74l-6.36,5.43a.37.37,0,0,0,0,.56l7.75,8.7c.26.28,0,.69-.42.69l-4.11,0a.55.55,0,0,1-.45-.19l-5.54-6.56a.62.62,0,0,0-.83-.06l-1.83,1.57a.39.39,0,0,0-.15.31l.09,4.58a.48.48,0,0,1-.52.44l-3.26,0a.52.52,0,0,1-.55-.44l-.31-15.25a.49.49,0,0,1,.53-.45l3.26,0a.51.51,0,0,1,.55.43l.11,5.15a.5.5,0,0,0,.54.44.54.54,0,0,0,.38-.15l6.49-5.81a.58.58,0,0,1,.39-.14Z"/></g><g id="Layer_10" data-name="Layer 10"><path class="cls-10" d="M11.32,313.21h4.74a0,0,0,0,1,0,0v107a0,0,0,0,1,0,0H11.32a4.74,4.74,0,0,1-4.74-4.74v-97.5A4.74,4.74,0,0,1,11.32,313.21Z"/><path class="cls-11" d="M259,281l-9.75,16a9.65,9.65,0,0,0-1.42,5V514.2a9.67,9.67,0,0,1-9.67,9.68h-53a9.68,9.68,0,0,1-9.68-9.68V440.85"/><path class="cls-12" d="M225.6,232.55a50.26,50.26,0,0,1,100.51,0"/><path class="cls-12" d="M275.85,182.3a50.26,50.26,0,0,1,50.26,50.25"/><path class="cls-13" d="M225.6,232.55a50.25,50.25,0,0,1,50.25-50.25v50.25H225.6"/><g class="cls-14"><path class="cls-15" d="M292.4,456.42a43.3,43.3,0,0,1-33.7,0V320.94h33.7Z"/><rect class="cls-16" x="258.7" y="320.94" width="16.85" height="140.94"/><rect class="cls-17" x="283.98" y="320.94" width="8.43" height="140.94"/><rect class="cls-18" x="262.45" y="320.94" width="4.68" height="140.94"/></g><rect class="cls-19" x="253.43" y="260" width="44.26" height="60.94"/><rect class="cls-20" x="253.43" y="260" width="22.13" height="60.94"/><rect class="cls-21" x="290.7" y="260" width="6.98" height="60.94"/><path class="cls-22" d="M297.68,260H253.43a74.4,74.4,0,0,1-18.73-17.87h83.07A58.18,58.18,0,0,1,297.68,260Z"/><path class="cls-23" d="M326,242.13H225.6V227c15.77-1.07,32.6-1.71,50.38-1.7s34.37.63,50,1.7Z"/><path class="cls-24" d="M199.66,321.06H3.83A3.83,3.83,0,0,0,0,324.89V408.5a3.83,3.83,0,0,0,3.83,3.83H199.66a3.84,3.84,0,0,0,3.83-3.83V324.89A3.84,3.84,0,0,0,199.66,321.06ZM11.32,391.7a2,2,0,0,1-2,2H9.23v4.21a2.68,2.68,0,0,1-5.36,0v-4.21H3.74a2,2,0,0,1-1.95-2h0a2,2,0,0,1,2-1.95h.13v-4.22a2.68,2.68,0,0,1,5.36,0v4.22h.13a2,2,0,0,1,2,1.95Zm0-49a2,2,0,0,1-2,2H9.23v4.21a2.68,2.68,0,0,1-5.36,0v-4.21H3.74a2,2,0,0,1-1.95-2h0a2,2,0,0,1,2-2h.13v-4.21a2.68,2.68,0,0,1,5.36,0v4.21h.13a2,2,0,0,1,2,2Zm189.19,49a2,2,0,0,1-2,2h-.12v4.21a2.69,2.69,0,0,1-5.37,0v-4.21h-.12a2,2,0,0,1-2-2h0a2,2,0,0,1,2-1.95h.12v-4.22a2.69,2.69,0,0,1,5.37,0v4.22h.12a2,2,0,0,1,2,1.95Zm0-49a2,2,0,0,1-2,2h-.12v4.21a2.69,2.69,0,0,1-5.37,0v-4.21h-.12a2,2,0,0,1-2-2h0a2,2,0,0,1,2-2h.12v-4.21a2.69,2.69,0,0,1,5.37,0v4.21h.12a2,2,0,0,1,2,2Z"/><rect class="cls-25" x="6.55" y="313.21" width="187.23" height="106.98" rx="4.74"/><path class="cls-10" d="M191.63,313.21h2.16a0,0,0,0,1,0,0v107a0,0,0,0,1,0,0h-2.16a4.74,4.74,0,0,1-4.74-4.74v-97.5A4.74,4.74,0,0,1,191.63,313.21Z" transform="translate(380.68 733.39) rotate(180)"/><text class="cls-26" transform="translate(66.89 371.08)">RAK<tspan class="cls-27" x="33.61" y="0">7240</tspan></text><rect class="cls-28" x="19.52" y="281.15" width="13.37" height="32.05"/><rect class="cls-28" x="16.06" y="247.31" width="20.71" height="34.82"/><rect class="cls-29" x="16.06" y="18.07" width="20.71" height="229.24"/><path class="cls-29" d="M20.46,0H32.32a4.4,4.4,0,0,1,4.4,4.4V18.32a0,0,0,0,1,0,0H16.06a0,0,0,0,1,0,0V4.4A4.4,4.4,0,0,1,20.46,0Z"/><rect class="cls-4" x="21.01" width="6.93" height="313.21"/><rect class="cls-30" x="23.3" y="247.31" width="2.29" height="65.9"/><rect class="cls-31" x="19.52" y="286.57" width="13.32" height="13.32"/><rect class="cls-30" x="16.06" y="279.28" width="20.71" height="2.85"/><rect class="cls-32" x="16.06" y="13.07" width="20.66" height="5"/><rect class="cls-28" x="94.86" y="281.15" width="13.37" height="32.05"/><rect class="cls-28" x="91.39" y="247.31" width="20.71" height="34.82"/><rect class="cls-29" x="91.39" y="18.07" width="20.71" height="229.24"/><path class="cls-29" d="M95.79,0h11.86a4.4,4.4,0,0,1,4.4,4.4V18.32a0,0,0,0,1,0,0H91.39a0,0,0,0,1,0,0V4.4A4.4,4.4,0,0,1,95.79,0Z"/><rect class="cls-4" x="96.34" width="6.93" height="313.21"/><rect class="cls-30" x="98.63" y="247.31" width="2.29" height="65.9"/><rect class="cls-31" x="94.86" y="286.57" width="13.32" height="13.32"/><rect class="cls-30" x="91.39" y="279.28" width="20.71" height="2.85"/><rect class="cls-32" x="91.39" y="13.07" width="20.66" height="5"/><rect class="cls-28" x="169.65" y="294.01" width="13.37" height="19.2"/><rect class="cls-28" x="166.18" y="273.73" width="20.71" height="20.86"/><rect class="cls-29" x="166.18" y="136.42" width="20.71" height="137.31"/><path class="cls-29" d="M170.59,125.6h11.86a4.4,4.4,0,0,1,4.4,4.4v6.57a0,0,0,0,1,0,0H166.18a0,0,0,0,1,0,0V130A4.4,4.4,0,0,1,170.59,125.6Z"/><rect class="cls-4" x="171.14" y="125.6" width="6.93" height="187.61"/><rect class="cls-30" x="173.43" y="273.73" width="2.29" height="39.47"/><rect class="cls-31" x="169.65" y="297.25" width="13.32" height="7.98"/><rect class="cls-30" x="166.18" y="292.89" width="20.71" height="1.71"/><rect class="cls-32" x="166.18" y="133.43" width="20.66" height="2.99"/><rect class="cls-28" x="25.36" y="420.19" width="13.37" height="19.2" transform="translate(64.1 859.57) rotate(180)"/><rect class="cls-28" x="21.49" y="438.8" width="20.71" height="20.86" transform="translate(63.69 898.46) rotate(180)"/><rect class="cls-29" x="21.49" y="459.66" width="20.71" height="137.31" transform="translate(63.69 1056.64) rotate(180)"/><path class="cls-29" d="M25.94,596.83H37.8a4.4,4.4,0,0,1,4.4,4.4v6.57a0,0,0,0,1,0,0H21.54a0,0,0,0,1,0,0v-6.57A4.4,4.4,0,0,1,25.94,596.83Z" transform="translate(63.73 1204.62) rotate(180)"/><rect class="cls-4" x="30.31" y="420.19" width="6.93" height="187.61" transform="translate(67.56 1027.98) rotate(180)"/><rect class="cls-30" x="32.67" y="420.19" width="2.29" height="39.47" transform="translate(67.62 879.85) rotate(180)"/><rect class="cls-31" x="25.41" y="428.17" width="13.32" height="7.98" transform="translate(64.14 864.31) rotate(180)"/><rect class="cls-30" x="21.49" y="438.8" width="20.71" height="1.71" transform="translate(63.69 879.31) rotate(180)"/><rect class="cls-32" x="21.54" y="596.98" width="20.66" height="2.99" transform="translate(63.73 1196.94) rotate(180)"/><path class="cls-33" d="M167.3,420.08h14.47a0,0,0,0,1,0,0v18a2.72,2.72,0,0,1-2.72,2.72h-9a2.72,2.72,0,0,1-2.72-2.72v-18A0,0,0,0,1,167.3,420.08Z"/><rect class="cls-34" x="170.02" y="420.08" width="5.45" height="20.77"/><path class="cls-34" d="M178.19,420.08h3.57a0,0,0,0,1,0,0v17.19a3.57,3.57,0,0,1-3.57,3.57h0a0,0,0,0,1,0,0V420.08A0,0,0,0,1,178.19,420.08Z"/><rect class="cls-35" x="167.3" y="428.08" width="14.47" height="9.02"/><rect class="cls-36" x="54.89" y="420.19" width="26.55" height="6.32"/><rect class="cls-37" x="56.3" y="427.25" width="23.62" height="20.19" rx="10.09"/><rect class="cls-38" x="54.89" y="420.19" width="6.32" height="6.32"/><rect class="cls-39" x="58.13" y="426.51" width="18.71" height="3.16"/><rect class="cls-38" x="75.13" y="420.19" width="6.32" height="6.32"/><rect class="cls-36" x="54.89" y="429.68" width="26.55" height="11.38" rx="2.04"/><path class="cls-38" d="M56.94,429.68h4.27a0,0,0,0,1,0,0v11.38a0,0,0,0,1,0,0H56.94a2,2,0,0,1-2-2v-7.29A2,2,0,0,1,56.94,429.68Z"/><path class="cls-38" d="M75.13,429.68H79.4a2,2,0,0,1,2,2V439a2,2,0,0,1-2,2H75.13a0,0,0,0,1,0,0V429.68A0,0,0,0,1,75.13,429.68Z"/><rect class="cls-40" x="84.57" y="420.19" width="25.53" height="0.57"/><path class="cls-41" d="M87.64,420.76H107a3.06,3.06,0,0,1,3.06,3.06v.7a0,0,0,0,1,0,0H84.57a0,0,0,0,1,0,0v-.7A3.06,3.06,0,0,1,87.64,420.76Z" transform="translate(194.68 845.29) rotate(180)"/><rect class="cls-42" x="92.81" y="420.76" width="8.94" height="3.77"/><rect class="cls-40" x="114.26" y="420.19" width="25.53" height="0.57"/><path class="cls-41" d="M117.32,420.76h19.4a3.06,3.06,0,0,1,3.06,3.06v.7a0,0,0,0,1,0,0H114.26a0,0,0,0,1,0,0v-.7A3.06,3.06,0,0,1,117.32,420.76Z" transform="translate(254.04 845.29) rotate(180)"/><rect class="cls-42" x="122.49" y="420.76" width="8.94" height="3.77"/><path class="cls-43" d="M43.15,420.21H50.3a0,0,0,0,1,0,0v1.37a2.14,2.14,0,0,1-2.14,2.14H45.29a2.14,2.14,0,0,1-2.14-2.14v-1.37A0,0,0,0,1,43.15,420.21Z"/><rect class="cls-44" x="45.32" y="420.21" width="2.49" height="3.51"/><path class="cls-43" d="M151,420.21h7.15a0,0,0,0,1,0,0v0a1.76,1.76,0,0,1-1.76,1.76h-3.64a1.76,1.76,0,0,1-1.76-1.76v0A0,0,0,0,1,151,420.21Z"/><rect class="cls-44" x="153.19" y="420.21" width="2.49" height="1.76"/><text class="cls-45" transform="translate(190.34 631.82)">48<tspan class="cls-46" x="15.57" y="0">V (PoE)</tspan></text></g><g id="Layer_11" data-name="Layer 11"><rect class="cls-47" x="785.75" y="178.12" width="68.61" height="113.36" rx="6.3"/><rect class="cls-48" x="791.53" y="185.04" width="58.64" height="101.08" rx="6.3"/><rect class="cls-49" x="794" y="189.31" width="53.61" height="92.41" rx="6.3"/><circle class="cls-50" cx="824" cy="189.7" r="3.15"/><path class="cls-51" d="M826.7,188.42a3,3,0,0,1-5.11,3"/><path class="cls-51" d="M821.33,191a3,3,0,0,1,5.1-3"/><rect class="cls-50" x="805.28" y="204.17" width="32.64" height="62.04" rx="2.42"/><rect class="cls-49" x="806.55" y="205.54" width="30.09" height="59.56" rx="2.42"/><rect class="cls-52" x="816.19" y="211.32" width="2.72" height="8.68"/><rect class="cls-52" x="825.79" y="211.32" width="2.72" height="8.68"/><path class="cls-52" d="M822.34,221.66h0A1.36,1.36,0,0,1,823.7,223v3.15a0,0,0,0,1,0,0H821a0,0,0,0,1,0,0V223A1.36,1.36,0,0,1,822.34,221.66Z"/><rect class="cls-53" x="344.3" y="415.98" width="59.51" height="3.55"/><path class="cls-54" d="M345.52,416h57.08a1.22,1.22,0,0,1,1.22,1.22v39.57a2.24,2.24,0,0,1-2.24,2.24h-55a2.24,2.24,0,0,1-2.24-2.24V417.2A1.22,1.22,0,0,1,345.52,416Z"/><polygon class="cls-53" points="403.81 415.98 344.3 415.98 349.68 386.34 398.43 386.34 403.81 415.98"/><rect class="cls-55" x="355.16" y="430.4" width="39.05" height="16.11"/><polygon class="cls-56" points="370.71 434.75 370.71 432.09 360.73 432.09 360.73 434.75 357.49 434.75 357.49 444.28 373.95 444.28 373.95 434.75 370.71 434.75"/><polygon class="cls-56" points="389 434.75 389 432.09 379.02 432.09 379.02 434.75 375.78 434.75 375.78 444.28 392.24 444.28 392.24 434.75 389 434.75"/><text class="cls-57" transform="matrix(1.76, 0.02, -0.07, 1, 360.67, 412.9)">PoE</text><text class="cls-57" transform="matrix(1.76, 0.02, -0.07, 1, 379.3, 412.9)">LAN</text><rect class="cls-58" x="784.53" y="176.05" width="68.61" height="113.36" rx="6.3"/><rect class="cls-48" x="790.31" y="182.97" width="58.64" height="101.08" rx="6.3"/><rect class="cls-49" x="792.78" y="187.23" width="53.61" height="92.41" rx="6.3"/><circle class="cls-50" cx="822.78" cy="187.62" r="3.15"/><path class="cls-51" d="M825.48,186.35a3,3,0,0,1-5.11,3"/><path class="cls-51" d="M820.11,188.87a3,3,0,0,1,5.1-3"/><rect class="cls-50" x="804.06" y="202.09" width="32.64" height="62.04" rx="2.42"/><rect class="cls-49" x="805.33" y="203.47" width="30.09" height="59.56" rx="2.42"/><rect class="cls-52" x="814.98" y="209.25" width="2.72" height="8.68"/><rect class="cls-52" x="824.57" y="209.25" width="2.72" height="8.68"/><path class="cls-52" d="M821.12,219.59h0a1.36,1.36,0,0,1,1.36,1.36v3.15a0,0,0,0,1,0,0h-2.72a0,0,0,0,1,0,0v-3.15A1.36,1.36,0,0,1,821.12,219.59Z"/><rect class="cls-52" x="770.31" y="231.49" width="72.51" height="33.7" rx="5.45"/><rect class="cls-52" x="749.21" y="246.88" width="11.53" height="3.7"/><path class="cls-59" d="M768.57,241.06l-3.92,2.9h-2.6a1.31,1.31,0,0,0-1.31,1.31v7.25a1.31,1.31,0,0,0,1.31,1.31h2.6l3.92,3.19h1.74v-16Z"/><rect class="cls-59" x="753.93" y="244.45" width="4.98" height="9.19" rx="1.66"/><rect class="cls-53" x="595.35" y="416.83" width="59.51" height="3.55"/><path class="cls-60" d="M442.71,416.83H654.86a0,0,0,0,1,0,0v37.45a5.59,5.59,0,0,1-5.59,5.59h-201a5.59,5.59,0,0,1-5.59-5.59V416.83A0,0,0,0,1,442.71,416.83Z"/><path class="cls-54" d="M654.86,416.83H442.71l16.89-26.09a7.78,7.78,0,0,1,6.53-3.55H631.44a7.78,7.78,0,0,1,6.53,3.55Z"/><rect class="cls-55" x="493.27" y="431.25" width="113.28" height="16.11"/><polygon class="cls-56" points="583.05 435.6 583.05 432.94 573.07 432.94 573.07 435.6 569.83 435.6 569.83 445.13 586.29 445.13 586.29 435.6 583.05 435.6"/><polygon class="cls-56" points="601.34 435.6 601.34 432.94 591.36 432.94 591.36 435.6 588.12 435.6 588.12 445.13 604.58 445.13 604.58 435.6 601.34 435.6"/><polygon class="cls-61" points="545.97 435.6 545.97 432.94 535.99 432.94 535.99 435.6 532.75 435.6 532.75 445.13 549.21 445.13 549.21 435.6 545.97 435.6"/><polygon class="cls-61" points="564.26 435.6 564.26 432.94 554.28 432.94 554.28 435.6 551.04 435.6 551.04 445.13 567.5 445.13 567.5 435.6 564.26 435.6"/><polygon class="cls-61" points="508.89 435.6 508.89 432.94 498.91 432.94 498.91 435.6 495.67 435.6 495.67 445.13 512.13 445.13 512.13 435.6 508.89 435.6"/><polygon class="cls-61" points="527.18 435.6 527.18 432.94 517.2 432.94 517.2 435.6 513.96 435.6 513.96 445.13 530.42 445.13 530.42 435.6 527.18 435.6"/><path class="cls-11" d="M503.9,387.19V253.52c0-2.46,2.7-4.46,6-4.46H749.21"/><path class="cls-59" d="M744.31,246.28v5.81a.93.93,0,0,0,.85.92l5.93.54a.92.92,0,0,0,1-.92V245.5a.91.91,0,0,0-1-.91l-5.94.78A.93.93,0,0,0,744.31,246.28Z"/><text class="cls-62" transform="translate(522.19 378.56)">LAN Router</text><text class="cls-45" transform="translate(631.47 206.92)">110<tspan class="cls-63" x="23.35" y="0">V</tspan><tspan x="31.91" y="0"> </tspan><tspan class="cls-46" x="35.8" y="0">-</tspan><tspan x="41.24" y="0" xml:space="preserve"> 220</tspan><tspan class="cls-63" x="68.49" y="0">V</tspan></text><rect class="cls-61" x="359.21" y="438.05" width="13.02" height="7.13"/><polygon class="cls-64" points="357.49 434.76 359.21 438.05 359.21 445.18 357.49 444.29 357.49 434.76"/><polygon class="cls-64" points="373.95 434.76 372.23 438.05 372.23 445.18 373.95 444.29 373.95 434.76"/><rect class="cls-61" x="377.5" y="438.05" width="13.02" height="7.13"/><polygon class="cls-64" points="375.78 434.76 377.5 438.05 377.5 445.18 375.78 444.29 375.78 434.76"/><polygon class="cls-64" points="392.24 434.76 390.52 438.05 390.52 445.18 392.24 444.29 392.24 434.76"/><rect class="cls-61" x="589.75" y="438.84" width="13.02" height="7.13"/><polygon class="cls-64" points="588.12 435.55 589.84 438.84 589.84 445.96 588.12 445.08 588.12 435.55"/><polygon class="cls-64" points="604.58 435.55 602.86 438.84 602.86 445.96 604.58 445.08 604.58 435.55"/><rect class="cls-61" x="571.46" y="438.84" width="13.02" height="7.13"/><polygon class="cls-64" points="569.83 435.55 571.55 438.84 571.55 445.96 569.83 445.08 569.83 435.55"/><polygon class="cls-64" points="586.29 435.55 584.57 438.84 584.57 445.96 586.29 445.08 586.29 435.55"/><path class="cls-11" d="M578.06,442.27V552.11c0,3.39-1.1,6.14-2.46,6.14H484.12"/><path class="cls-11" d="M596.35,442.27V552.11c0,3.39,1.1,6.14,2.46,6.14h85.68"/><path class="cls-11" d="M383.74,442.27V552.11c0,3.39,1.32,6.14,2.95,6.14h110"/><path class="cls-11" d="M374,386.34V225c0-4.31,2.51-7.79,5.61-7.79h432.1"/><path class="cls-59" d="M813.75,212l-2.09,1.91h-1.4a.79.79,0,0,0-.7.86v4.76a.79.79,0,0,0,.7.86h1.4l2.09,2.1h.93V212Z"/><rect class="cls-65" x="811.62" y="208.98" width="23.49" height="17.36" rx="4.48" transform="translate(1041.03 -605.7) rotate(90)"/><path class="cls-11" d="M67.22,447.44V621.53c0,10.66,4.85,19.3,10.83,19.3H356c5.38,0,9.74-7.77,9.74-17.35V441.61"/></g></g></svg>