<svg xmlns="http://www.w3.org/2000/svg" xmlns:xlink="http://www.w3.org/1999/xlink" viewBox="0 0 96.50136 43.86002"><defs><style>.cls-1,.cls-13{fill:none;}.cls-2{fill:#7f7f7f;}.cls-3{fill:#333;}.cls-4{fill:#b2b2b2;}.cls-5{fill:#ec2024;}.cls-6{fill:#fff200;}.cls-12,.cls-7{fill:#fff;}.cls-8{fill:#242424;}.cls-10,.cls-12,.cls-13,.cls-15,.cls-16,.cls-8,.cls-9{opacity:0.5;}.cls-9{fill:#deaa53;}.cls-11{clip-path:url(#clip-path);}.cls-13{stroke:#fff;stroke-miterlimit:10;stroke-width:0.05574px;}.cls-14{fill:#f5f6f7;}.cls-15{fill:#c8c8c3;}.cls-16{fill:#f5fdf8;}.cls-17{fill:#eaf4fb;}.cls-18{fill:#323c49;}.cls-19{fill:#212630;}.cls-20{fill:#be8d3f;}</style><clipPath id="clip-path"><rect class="cls-1" x="4.77896" y="3.90861" width="9.38628" height="15.81307"/></clipPath></defs><g id="Layer_2" data-name="Layer 2"><g id="Layer_1-2" data-name="Layer 1"><rect class="cls-2" x="87.93246" y="0.0005" width="2.35343" height="43.85952"/><rect class="cls-2" x="84.99204" y="0.0005" width="2.35343" height="43.85952"/><rect class="cls-3" x="83.62274" y="2.23354" width="1.3663" height="1.60759" rx="0.2273"/><rect class="cls-4" x="85.29078" width="2.0547" height="1.60759" rx="0.19533"/><rect class="cls-3" x="85.29078" y="2.19957" width="2.0547" height="1.60759" rx="0.19533"/><rect class="cls-5" x="85.29078" y="4.46658" width="2.0547" height="1.60759" rx="0.19533"/><rect class="cls-4" x="85.29078" y="6.73259" width="2.0547" height="1.60759" rx="0.19533"/><rect class="cls-4" x="85.29078" y="8.90019" width="2.0547" height="1.60759" rx="0.19533"/><rect class="cls-4" x="85.29078" y="11.06879" width="2.0547" height="1.60759" rx="0.19533"/><rect class="cls-4" x="85.29078" y="13.30932" width="2.0547" height="1.60759" rx="0.19533"/><rect class="cls-4" x="85.29078" y="15.51039" width="2.0547" height="1.60759" rx="0.19533"/><rect class="cls-4" x="85.29078" y="17.73144" width="2.0547" height="1.60759" rx="0.19533"/><rect class="cls-6" x="85.29078" y="19.98097" width="2.0547" height="1.60759" rx="0.19533"/><rect class="cls-4" x="85.29078" y="22.30493" width="2.0547" height="1.60759" rx="0.19533"/><rect class="cls-4" x="85.29078" y="24.48552" width="2.0547" height="1.60759" rx="0.19533"/><rect class="cls-4" x="87.93246" width="2.0547" height="1.60759" rx="0.19533"/><rect class="cls-3" x="87.93246" y="2.19957" width="2.0547" height="1.60759" rx="0.19533"/><rect class="cls-4" x="87.93246" y="4.46658" width="2.0547" height="1.60759" rx="0.19533"/><rect class="cls-4" x="87.93246" y="6.73259" width="2.0547" height="1.60759" rx="0.19533"/><rect class="cls-4" x="87.93246" y="8.90019" width="2.0547" height="1.60759" rx="0.19533"/><rect class="cls-4" x="87.93246" y="11.06879" width="2.0547" height="1.60759" rx="0.19533"/><rect class="cls-4" x="87.93246" y="13.30932" width="2.0547" height="1.60759" rx="0.19533"/><rect class="cls-4" x="87.93246" y="15.51039" width="2.0547" height="1.60759" rx="0.19533"/><rect class="cls-4" x="87.93246" y="17.73144" width="2.0547" height="1.60759" rx="0.19533"/><rect class="cls-6" x="87.93246" y="19.98097" width="2.0547" height="1.60759" rx="0.19533"/><rect class="cls-4" x="87.93246" y="22.30493" width="2.0547" height="1.60759" rx="0.19533"/><rect class="cls-4" x="87.93246" y="24.48552" width="2.0547" height="1.60759" rx="0.19533"/><rect class="cls-4" x="87.93246" y="26.6666" width="2.0547" height="1.60759" rx="0.19533"/><rect class="cls-4" x="87.93246" y="28.8352" width="2.0547" height="1.60759" rx="0.19533"/><rect class="cls-4" x="87.93246" y="31.07574" width="2.0547" height="1.60759" rx="0.19533"/><rect class="cls-4" x="87.93246" y="33.2768" width="2.0547" height="1.60759" rx="0.19533"/><rect class="cls-4" x="87.93246" y="35.49786" width="2.0547" height="1.60759" rx="0.19533"/><rect class="cls-4" x="87.93246" y="37.74738" width="2.0547" height="1.60759" rx="0.19533"/><rect class="cls-4" x="87.93246" y="40.07134" width="2.0547" height="1.60759" rx="0.19533"/><path class="cls-7" d="M88.24419,27.383a.34308.34308,0,0,1,.34969-.39016.30725.30725,0,0,1,.33121.30223c0,.29225-.31022.31573-.4496.51405h.4566v.16835h-.70888c0-.2248.13788-.31722.30473-.43162.08393-.05945.20283-.1174.20283-.23579a.13889.13889,0,0,0-.14488-.14987c-.11589,0-.15286.1199-.15286.22181Z"/><path class="cls-7" d="M89.65146,27.17366h-.39965l-.03847.21931v.0025a.24982.24982,0,0,1,.18884-.07444.30008.30008,0,0,1,.29973.32821.34969.34969,0,0,1-.34957.34981l-.00911-.00011a.32278.32278,0,0,1-.35869-.30624h.19583a.15436.15436,0,0,0,.15886.14488.17486.17486,0,0,0,.16708-.18229l-.00023-.004a.16635.16635,0,0,0-.15123-.18021q-.00778-.00067-.01562-.00063a.16038.16038,0,0,0-.14987.07743H89.013l.09491-.53353h.54353Z"/><path class="cls-7" d="M88.24419,29.5141a.34285.34285,0,0,1,.34969-.39015.30682.30682,0,0,1,.33121.29973c0,.29275-.31022.31623-.4496.51455h.4566v.16835h-.70888c0-.2248.13788-.31722.30473-.43162.08393-.05945.20283-.11739.20283-.23579a.13889.13889,0,0,0-.14488-.14987c-.11589,0-.15286.1199-.15286.22181Z"/><path class="cls-7" d="M89.67294,29.31028a1.18529,1.18529,0,0,0-.31572.7993h-.20981a1.40972,1.40972,0,0,1,.32421-.78331h-.4581v-.18184h.65942Z"/><path class="cls-7" d="M88.50746,36.23171c.08442.007.20582-.00949.20582-.1199a.12738.12738,0,0,0-.12653-.12823l-.01035.00035c-.09991,0-.14987.07293-.14987.17235H88.2407a.31889.31889,0,0,1,.33371-.33371.29738.29738,0,0,1,.32371.26726.19234.19234,0,0,1-.13488.19983h0a.2148.2148,0,0,1,.17085.21931.35977.35977,0,0,1-.71687-.03248h.18533c.0045.10491.057.19034.16986.19034a.14987.14987,0,0,0,.15717-.14219l.00019-.00768c0-.14637-.12839-.14338-.2238-.14338Z"/><path class="cls-7" d="M89.27429,36.23171c.08392.007.20531-.00949.20531-.1199a.12688.12688,0,0,0-.12552-.12823l-.01085.00035c-.09992,0-.14987.07293-.14987.17235H89.007a.31944.31944,0,0,1,.33371-.33371.29787.29787,0,0,1,.32422.26726.19234.19234,0,0,1-.13538.19983h0a.21479.21479,0,0,1,.17184.21831.36.36,0,0,1-.71737-.03247h.18633c.004.1049.05645.19033.16936.19033a.14987.14987,0,0,0,.15717-.14219l.00019-.00768c0-.14637-.12839-.14337-.2233-.14337Z"/><path class="cls-7" d="M88.50746,38.48773c.08442.0065.20582-.01.20582-.12039a.12739.12739,0,0,0-.12653-.12824l-.01035.00035c-.09991,0-.14987.07294-.14987.17235H88.2407a.3189.3189,0,0,1,.33371-.33371.29738.29738,0,0,1,.32371.26727.19182.19182,0,0,1-.13488.19982v.003a.21381.21381,0,0,1,.17085.21881.35977.35977,0,0,1-.71687-.03247h.18533c.0045.1049.057.19033.16986.19033a.14987.14987,0,0,0,.15717-.14219l.00019-.00768c0-.14637-.12839-.14337-.2238-.14337Z"/><path class="cls-7" d="M89.65146,38.25643h-.39965l-.03847.21931v.003a.24531.24531,0,0,1,.18834-.07244.3014.3014,0,0,1,.29973.32822.34969.34969,0,0,1-.35206.3473l-.00662-.00011A.32272.32272,0,0,1,88.984,38.776h.19583a.15436.15436,0,0,0,.15886.14437.17435.17435,0,0,0,.1671-.1813l-.00025-.00453a.16635.16635,0,0,0-.15123-.18021q-.00778-.00069-.01562-.00063a.16034.16034,0,0,0-.14987.07743h-.17634l.09491-.534h.544Z"/><path class="cls-7" d="M88.24419,31.7921a.34285.34285,0,0,1,.34969-.39015.30682.30682,0,0,1,.33121.29973c0,.29275-.31022.31573-.4496.51455h.4566v.16835h-.70888c0-.2248.13788-.31722.30473-.43162.08393-.05945.20283-.11739.20283-.23579a.13889.13889,0,0,0-.14488-.14987c-.11589,0-.15286.1199-.15286.22181Z"/><path class="cls-7" d="M89.19136,32.1383a.13838.13838,0,0,0,.12989.1199c.14337,0,.17784-.18734.18483-.29374l-.00449-.0025a.24228.24228,0,0,1-.21781.1079A.30821.30821,0,0,1,89.062,31.97a.32776.32776,0,0,1-.07444-.21531.33421.33421,0,0,1,.33771-.35269c.29224,0,.37068.25477.37068.49956s-.10441.50456-.37917.50456a.29376.29376,0,0,1-.31273-.26727Zm.29674-.39565a.16554.16554,0,0,0-.15586-.17934.15914.15914,0,0,0-.14987.17634.155.155,0,1,0,.30573.003Z"/><path class="cls-7" d="M88.50746,34.04713c.08442.007.20582-.00949.20582-.1199a.12738.12738,0,0,0-.126-.12873l-.01085.00034c-.09991,0-.14987.07294-.14987.17235H88.2407a.31889.31889,0,0,1,.33371-.3337.29776.29776,0,0,1,.32371.26776.19134.19134,0,0,1-.13488.19683v.003a.21479.21479,0,0,1,.17085.2193.35977.35977,0,0,1-.71687-.03247h.18533c.0045.10491.057.19033.16986.19033a.14987.14987,0,0,0,.15717-.14218l.00019-.00769c0-.14587-.12839-.14337-.2238-.14337Z"/><path class="cls-7" d="M89.50159,34.62212h-.19583v-.626H89.063V33.8463c.13638.004.26077-.04446.28276-.19183h.15586Z"/><path class="cls-7" d="M88.50746,40.81719c.08442.007.20582-.00949.20582-.1199a.12738.12738,0,0,0-.126-.12873l-.01085.00034c-.09991,0-.14987.07344-.14987.17235H88.2407a.31889.31889,0,0,1,.33371-.3337.29776.29776,0,0,1,.32371.26776.19234.19234,0,0,1-.13488.19983h0a.2148.2148,0,0,1,.17085.2193.35977.35977,0,0,1-.71687-.03247h.18533c.0045.10491.057.19033.16986.19033a.14986.14986,0,0,0,.15717-.14218l.00019-.00768c0-.14588-.12839-.14338-.2238-.14338Z"/><path class="cls-7" d="M89.67294,40.59538a1.18288,1.18288,0,0,0-.31572.7968h-.20981a1.41129,1.41129,0,0,1,.32421-.78331h-.4581V40.427h.65942Z"/><rect class="cls-3" x="87.93246" y="42.25193" width="2.0547" height="1.60759" rx="0.19533"/><rect class="cls-4" x="85.29078" y="26.6666" width="2.0547" height="1.60759" rx="0.19533"/><path class="cls-7" d="M88.50746,43.00477c.08442.007.20582-.00949.20582-.1199a.12738.12738,0,0,0-.126-.12873l-.01085.00034c-.09991,0-.14987.07294-.14987.17235H88.2407a.31889.31889,0,0,1,.33371-.3337.29776.29776,0,0,1,.32371.26776.19134.19134,0,0,1-.13488.19683v.003a.21479.21479,0,0,1,.17085.2193.35977.35977,0,0,1-.71687-.03247h.18533c.0045.10441.057.19033.16986.19033a.14987.14987,0,0,0,.15717-.14218l.00019-.00768c0-.14638-.12839-.14338-.2238-.14338Z"/><path class="cls-7" d="M89.19136,43.33148a.13838.13838,0,0,0,.12989.1199c.14337,0,.17784-.18734.18483-.29374l-.003-.0025a.2433.2433,0,0,1-.21781.10741.30626.30626,0,0,1-.2218-.09992.32622.32622,0,0,1-.07443-.21481.33435.33435,0,0,1,.3377-.35319c.29224,0,.37068.25528.37068.49956s-.10441.50506-.37917.50506a.29423.29423,0,0,1-.31272-.26776Zm.29674-.39565a.16554.16554,0,0,0-.15586-.17934.15941.15941,0,0,0-.14987.17634.16258.16258,0,0,0,.14987.18235.16071.16071,0,0,0,.15586-.17935Z"/><rect class="cls-4" x="85.29078" y="28.8352" width="2.0547" height="1.60759" rx="0.19533"/><rect class="cls-4" x="85.29078" y="31.07574" width="2.0547" height="1.60759" rx="0.19533"/><rect class="cls-4" x="85.29078" y="33.2768" width="2.0547" height="1.60759" rx="0.19533"/><rect class="cls-4" x="85.29078" y="35.49786" width="2.0547" height="1.60759" rx="0.19533"/><rect class="cls-4" x="85.29078" y="37.74738" width="2.0547" height="1.60759" rx="0.19533"/><rect class="cls-4" x="85.29078" y="40.07134" width="2.0547" height="1.60759" rx="0.19533"/><rect class="cls-3" x="85.29078" y="42.25193" width="2.0547" height="1.60759" rx="0.19533"/><path class="cls-7" d="M85.98567.7988a.34285.34285,0,0,1,.3497-.39016.30682.30682,0,0,1,.33121.29974c0,.29274-.31023.31572-.44961.51455h.4566v.16835H85.9647c0-.2248.13788-.31722.30473-.43162.08393-.05945.20282-.1174.20282-.2358A.13882.13882,0,0,0,86.32738.574c-.1159,0-.15287.11989-.15287.2218Z"/><path class="cls-7" d="M85.605,27.383a.34282.34282,0,0,1,.34969-.39016.3071.3071,0,0,1,.33071.30223c0,.29225-.31023.31573-.44961.51405h.4561v.16835h-.70838c0-.2248.13788-.31722.30474-.43162.08392-.05945.20232-.1174.20232-.23579a.13838.13838,0,0,0-.14437-.14987c-.1159,0-.15337.1199-.15337.22181Z"/><path class="cls-7" d="M86.85391,27.26058a.13788.13788,0,0,0-.12938-.11989c-.14088,0-.18084.18733-.18484.29324v.003a.24279.24279,0,0,1,.21831-.10741.30873.30873,0,0,1,.2218.09991.33023.33023,0,0,1,.07444.21531.33382.33382,0,0,1-.33771.35319c-.29224,0-.37117-.25527-.37117-.49956s.1049-.50455.37916-.50455a.29424.29424,0,0,1,.31323.26776Zm-.29624.39565a.16584.16584,0,0,0,.15153.179l.00433.00031a.1616.1616,0,0,0,.14737-.17684c0-.08843-.047-.18185-.14737-.18185a.16264.16264,0,0,0-.15685.17934Z"/><path class="cls-7" d="M85.86578,34.06461c.08442.007.20532-.01.20532-.11989a.1274.1274,0,0,0-.12606-.1287l-.01032.00031c-.09992,0-.14987.07294-.14987.17235h-.18634a.31944.31944,0,0,1,.33371-.33371.29757.29757,0,0,1,.32422.26727.19182.19182,0,0,1-.13488.19982v.003a.21431.21431,0,0,1,.17085.21931.3598.3598,0,0,1-.71687-.033h.18583c.004.10441.05645.18983.16985.18983a.14987.14987,0,0,0,.1567-.14271l.00017-.00716c0-.14637-.12789-.14337-.22331-.14337Z"/><path class="cls-7" d="M86.36934,34.04513A.34259.34259,0,0,1,86.719,33.655a.30666.30666,0,0,1,.33071.29974c0,.29274-.31022.31572-.4496.51455h.4536v.16835h-.70888c0-.2248.13788-.31722.30473-.43162.08443-.05945.20283-.1174.20283-.23579a.13834.13834,0,0,0-.14488-.14987c-.11589,0-.15287.11989-.15287.2218Z"/><path class="cls-7" d="M85.86578,38.50622c.08442.007.20532-.0095.20532-.1199a.1274.1274,0,0,0-.12606-.1287l-.01032.00031c-.09992,0-.14987.07344-.14987.17235h-.18634a.31945.31945,0,0,1,.33371-.33371.29794.29794,0,0,1,.32422.26777.19232.19232,0,0,1-.13488.19982h0a.21481.21481,0,0,1,.17085.21931.35977.35977,0,0,1-.71687-.03247h.18583c.004.10491.05645.19033.16985.19033a.14987.14987,0,0,0,.1567-.14271l.00017-.00716c0-.14587-.12789-.14337-.22331-.14337Z"/><path class="cls-7" d="M86.85391,38.36284a.13737.13737,0,0,0-.12938-.11989c-.14088,0-.18084.18733-.18484.29374h.003a.24231.24231,0,0,1,.21781-.10741.30723.30723,0,0,1,.2218.09991.32926.32926,0,0,1,.07444.21481.33382.33382,0,0,1-.33771.35319c-.29224,0-.37117-.25527-.37117-.49956s.1049-.50505.37916-.50505a.29474.29474,0,0,1,.31323.26776Zm-.29624.39565a.16555.16555,0,0,0,.15586.17935.15757.15757,0,0,0,.14737-.17635c0-.08792-.047-.18234-.14737-.18234a.16291.16291,0,0,0-.15685.17934Z"/><path class="cls-7" d="M85.86578,40.83467c.08442.007.20532-.01.20532-.11989a.12739.12739,0,0,0-.12606-.1287l-.01032.00031c-.09992,0-.14987.07294-.14987.17235h-.18634a.31944.31944,0,0,1,.33371-.33371.29794.29794,0,0,1,.32422.26776.19134.19134,0,0,1-.13488.19683v.003a.21481.21481,0,0,1,.17085.21931.35977.35977,0,0,1-.71687-.03247h.18583c.004.1044.05645.19033.16985.19033a.14987.14987,0,0,0,.1567-.14271l.00017-.00716c0-.14637-.12789-.14337-.22331-.14337Z"/><path class="cls-7" d="M86.704,40.425a.28731.28731,0,0,1,.32222.25927.20233.20233,0,0,1-.14038.20283v.00249a.22431.22431,0,0,1,.18034.23579.32328.32328,0,0,1-.36118.30374c-.18084,0-.36668-.09392-.36668-.29974a.2278.2278,0,0,1,.18184-.23729v-.0025a.19282.19282,0,0,1-.14187-.19982A.29251.29251,0,0,1,86.704,40.425Zm0,.85625a.15886.15886,0,0,0,.16575-.15166l.00011-.0112a.15687.15687,0,0,0-.15909-.15461l-.00677.00025a.15364.15364,0,0,0-.17085.15336.16286.16286,0,0,0,.16166.164Zm0-.44961a.13139.13139,0,1,0,0-.26077.13489.13489,0,0,0-.149.11907l-.00084.01482a.13353.13353,0,0,0,.14987.12838Z"/><path class="cls-7" d="M85.98168,43.3145h-.40815v-.17935l.41914-.5625H86.168v.57949h.1279v.16136H86.168v.2233h-.18633Zm0-.49657h-.004l-.24978.33521h.25378Z"/><path class="cls-7" d="M86.70005,42.55267c.19283,0,.35569.12139.35569.49956,0,.38466-.16286.50605-.35569.50605s-.35319-.12139-.35319-.50605C86.34686,42.67456,86.50821,42.55267,86.70005,42.55267Zm0,.84276c.15986,0,.15986-.2358.15986-.3447,0-.09992,0-.33671-.15986-.33671s-.15736.23579-.15736.33671c0,.1094,0,.3452.15736.3452Z"/><path class="cls-7" d="M85.605,29.5141a.34258.34258,0,0,1,.34969-.39015.30709.30709,0,0,1,.33121.29973c0,.29275-.31073.31623-.44961.51455h.4566v.16835H85.584c0-.2248.13788-.31722.30473-.43162.08393-.05945.20283-.11739.20283-.23579a.1389.1389,0,0,0-.14488-.14987c-.11589,0-.15336.1199-.15336.22181Z"/><path class="cls-7" d="M86.704,29.123a.28731.28731,0,0,1,.32222.25927.20233.20233,0,0,1-.14038.20282v.0025a.22431.22431,0,0,1,.18034.23579.32291.32291,0,0,1-.36118.30323c-.18084,0-.36668-.09341-.36668-.29973a.2278.2278,0,0,1,.18184-.23729V29.587a.19283.19283,0,0,1-.14187-.19983A.2938.2938,0,0,1,86.704,29.123Zm0,.85625a.15886.15886,0,0,0,.16575-.15166l.00011-.0112a.15637.15637,0,0,0-.16-.15261L86.704,29.664a.15364.15364,0,0,0-.17085.15337.16287.16287,0,0,0,.16366.162Zm0-.44961a.13139.13139,0,1,0,0-.26077.13488.13488,0,0,0-.149.11906l-.00084.01482a.13353.13353,0,0,0,.14987.12839Z"/><path class="cls-7" d="M85.86578,31.82858c.08442.007.20532-.0095.20532-.1199A.1274.1274,0,0,0,85.945,31.58l-.01032.00031c-.09992,0-.14987.07344-.14987.17285h-.18634a.31985.31985,0,0,1,.33371-.33421.29794.29794,0,0,1,.32422.26777.19232.19232,0,0,1-.13488.19982h0a.21481.21481,0,0,1,.17085.21931.35977.35977,0,0,1-.71687-.03247h.18583c.004.10491.05645.19033.16985.19033a.14987.14987,0,0,0,.1567-.14271l.00017-.00716c0-.14587-.12789-.14337-.22331-.14337Z"/><path class="cls-7" d="M86.70005,31.41893c.19283,0,.35569.1214.35569.49957,0,.38466-.16286.50605-.35569.50605s-.35319-.12139-.35319-.50605C86.34686,31.54033,86.50821,31.41893,86.70005,31.41893Zm0,.84276c.15986,0,.15986-.23579.15986-.34469,0-.09992,0-.33671-.15986-.33671s-.15736.23579-.15736.33671C86.54269,32.0259,86.54269,32.26169,86.70005,32.26169Z"/><path class="cls-7" d="M85.86578,36.23171c.08442.007.20532-.00949.20532-.1199a.12689.12689,0,0,0-.12553-.12823l-.01085.00035c-.09992,0-.14987.07293-.14987.17235h-.18634a.31944.31944,0,0,1,.33371-.33371.29756.29756,0,0,1,.32422.26726.19234.19234,0,0,1-.13488.19983h0a.21481.21481,0,0,1,.17085.21931.35977.35977,0,0,1-.71687-.03248h.18583c.004.10491.05645.19034.16985.19034a.14987.14987,0,0,0,.1567-.14271l.00017-.00716c0-.14637-.12789-.14338-.22331-.14338Z"/><path class="cls-7" d="M86.74851,36.5834h-.40815v-.17934l.41913-.56251h.17485V36.422h.12839v.16136h-.12839v.22431h-.18583Zm0-.49606H86.744l-.24978.33471H86.748Z"/><path class="cls-7" d="M89.11693,1.33383H88.9211v-.626h-.24229V.56051c.13638.004.26027-.04446.28226-.19183h.15586Z"/><path class="cls-7" d="M88.89113,2.9589c.08392.007.20531-.00949.20531-.11989a.12739.12739,0,0,0-.12606-.1287l-.01031.00031c-.09992,0-.14987.07294-.14987.17235h-.18634a.31945.31945,0,0,1,.33371-.33371.29825.29825,0,0,1,.32422.26777.19184.19184,0,0,1-.13538.19683v.003a.21431.21431,0,0,1,.17085.21931.35977.35977,0,0,1-.71688-.03247h.18634c.004.10441.05645.19033.16935.19033a.14987.14987,0,0,0,.15718-.14218l.00018-.00769c0-.14637-.12838-.14337-.2233-.14337Z"/><path class="cls-7" d="M89.2658,4.99662h-.39965l-.039.2188.003.003A.24529.24529,0,0,1,89.019,5.144a.3014.3014,0,0,1,.29973.32821.3497.3497,0,0,1-.34959.3498l-.00859-.00011a.32256.32256,0,0,1-.35869-.30623h.19583a.15386.15386,0,0,0,.15836.14487.17486.17486,0,0,0,.16708-.18228l-.00023-.00405a.16585.16585,0,0,0-.15018-.18017.16267.16267,0,0,0-.01667-.00067.15984.15984,0,0,0-.14987.07743h-.17634l.09491-.53353h.539Z"/><path class="cls-7" d="M88.8082,9.9208a.13837.13837,0,0,0,.12988.12039c.14338,0,.17785-.18784.18434-.29374l-.0025-.003a.24231.24231,0,0,1-.21781.10741.30973.30973,0,0,1-.2223-.09992.35222.35222,0,0,1,.26377-.5685c.29224,0,.37067.25528.37067.49956,0,.2368-.1049.50456-.37916.50456a.29474.29474,0,0,1-.31323-.26776Zm.29673-.39566A.16635.16635,0,0,0,88.9524,9.346l-.00333-.00023a.18224.18224,0,0,0,0,.35869.16046.16046,0,0,0,.15587-.17935Z"/><path class="cls-7" d="M88.73376,12.36915h-.19583V11.7432h-.24278v-.14987c.13638.00449.26077-.044.28275-.19133h.15586Z"/><path class="cls-7" d="M89.50159,12.36915h-.19583V11.7432H89.063v-.14987c.13638.00449.26077-.044.28276-.19133h.15586Z"/><path class="cls-7" d="M88.73376,19.06927h-.19583v-.62595h-.24278V18.296c.13638.004.26077-.044.28275-.19183h.15586Z"/><path class="cls-7" d="M89.67294,18.274a1.18284,1.18284,0,0,0-.31572.7968h-.20981a1.40835,1.40835,0,0,1,.32421-.78282h-.4581v-.18383h.65942Z"/><path class="cls-7" d="M88.73376,21.3158h-.19583v-.62645h-.24278v-.14987c.13638.004.26077-.044.28275-.19183h.15586Z"/><path class="cls-7" d="M89.19136,21.06752a.13838.13838,0,0,0,.12989.11989c.14337,0,.17784-.18733.18483-.29374l-.003-.003a.24179.24179,0,0,1-.21781.10791.30927.30927,0,0,1-.2218-.09992.3302.3302,0,0,1-.07443-.21531.33421.33421,0,0,1,.3377-.35269c.29224,0,.37068.25478.37068.49956s-.10441.50456-.37917.50456a.29374.29374,0,0,1-.31272-.26726Zm.29674-.39566a.16554.16554,0,0,0-.15586-.17934.1573.1573,0,0,0-.14737.17635c0,.08842.04646.18184.14737.18184A.16145.16145,0,0,0,89.4881,20.67186Z"/><path class="cls-7" d="M88.24419,23.0198a.34282.34282,0,0,1,.34969-.39015.3074.3074,0,0,1,.33121.29973c0,.29225-.31022.31573-.4496.51405h.4566v.16835h-.70888c0-.2248.13788-.31722.30473-.43162.08393-.05945.20283-.1174.20283-.23579a.13889.13889,0,0,0-.14488-.14987c-.11589,0-.15336.11989-.15336.22181Z"/><path class="cls-7" d="M89.50159,23.61628h-.19583v-.62595H89.063v-.14987c.13638.004.26077-.04446.28276-.19183h.15586Z"/><path class="cls-7" d="M88.24419,25.23286a.3426.3426,0,0,1,.34969-.39016.3071.3071,0,0,1,.33121.29974c0,.29224-.31022.31572-.4496.51405h.4566v.16835h-.70888c0-.2248.13788-.31722.30473-.43162.08393-.05945.20283-.1174.20283-.23579a.13889.13889,0,0,0-.14488-.14987c-.11589,0-.15336.11989-.15336.2218Z"/><path class="cls-7" d="M89.27429,25.25234c.08392.007.20531-.01.20531-.11989a.12739.12739,0,0,0-.12606-.1287l-.01031.00031c-.09992,0-.14987.07294-.14987.17235H89.007a.31945.31945,0,0,1,.33371-.33371A.29787.29787,0,0,1,89.665,25.11a.19183.19183,0,0,1-.13538.19732v.003a.21481.21481,0,0,1,.17135.21931.36007.36007,0,0,1-.71738-.033h.18634c.004.10441.05645.19033.16985.19033a.14986.14986,0,0,0,.1567-.14271l.00016-.00716c0-.14637-.12789-.14337-.2233-.14337Z"/><path class="cls-7" d="M86.36484,3.36954H85.9547V3.1902l.41913-.56251h.17535v.5805h.12839v.16135h-.12839v.22331h-.18634Zm0-.49656h-.004l-.24978.33521h.25378Z"/><path class="cls-7" d="M86.09208,12.42909h-.19583v-.627H85.655v-.14737c.13638.004.26077-.04446.28276-.19183h.15586Z"/><path class="cls-7" d="M86.36884,11.83362a.34333.34333,0,0,1,.34969-.39016.307.307,0,0,1,.33071.29974c0,.29224-.31022.31572-.4496.51405h.4541v.17184h-.70888c0-.2248.13788-.31722.30473-.43162.08443-.05945.20283-.11739.20283-.23579a.13841.13841,0,0,0-.14488-.14987c-.11589,0-.15287.1199-.15287.22181Z"/><path class="cls-7" d="M86.09208,16.90317h-.19583v-.62745H85.655v-.14737c.13638.004.26077-.04446.28276-.19183h.15586Z"/><path class="cls-7" d="M86.85391,16.1863a.13788.13788,0,0,0-.12938-.1199c-.14088,0-.18084.18734-.18484.29325v.003a.2428.2428,0,0,1,.21831-.1074.30869.30869,0,0,1,.2218.09991.33023.33023,0,0,1,.07444.21531.33522.33522,0,0,1-.33771.35319c-.29224,0-.37117-.25527-.37117-.49956s.1049-.50456.37916-.50456a.29425.29425,0,0,1,.31323.26777Zm-.29624.39565a.16585.16585,0,0,0,.15153.179l.00433.0003a.1616.1616,0,0,0,.14737-.17684c0-.08842-.047-.18184-.14737-.18184a.16264.16264,0,0,0-.15685.17934Z"/><path class="cls-7" d="M86.09208,19.12872h-.19583v-.62595H85.655V18.3529c.13638.00449.26077-.044.28276-.19133h.15586Z"/><path class="cls-7" d="M86.704,18.14408a.28751.28751,0,0,1,.32272.25927.20231.20231,0,0,1-.14038.20282v.0025a.22431.22431,0,0,1,.18034.2358.32291.32291,0,0,1-.36118.30323c-.18084,0-.36668-.09342-.36668-.29974a.2278.2278,0,0,1,.18184-.23729v-.0025a.19282.19282,0,0,1-.14187-.19982A.29173.29173,0,0,1,86.704,18.14408Zm0,.85625a.15836.15836,0,0,0,.16527-.15114l.00009-.01172a.15586.15586,0,0,0-.15707-.15465l-.00829.00029a.15364.15364,0,0,0-.17085.15336.16236.16236,0,0,0,.16063.16407l.01022-.00021Zm0-.44961a.13146.13146,0,1,0,0-.26077.13488.13488,0,0,0-.149.11906l-.00084.01482a.13353.13353,0,0,0,.14987.12839Z"/><path class="cls-7" d="M85.605,23.08125a.34259.34259,0,0,1,.34969-.39016.30666.30666,0,0,1,.33071.29974c0,.29224-.31023.31572-.44961.51455h.4561v.16785h-.70838c0-.2243.13788-.31672.30474-.43112.08392-.05945.20232-.1174.20232-.2363a.13831.13831,0,0,0-.14437-.14986c-.1159,0-.15337.12039-.15337.2223Z"/><path class="cls-7" d="M86.36884,23.08125a.3431.3431,0,0,1,.34969-.39016.30666.30666,0,0,1,.33071.29974c0,.29224-.31022.31572-.4496.51455h.4541v.16785h-.70888c0-.2243.13788-.31672.30473-.43112.08443-.05945.20283-.1174.20283-.2363a.13889.13889,0,0,0-.1273-.14957.13749.13749,0,0,0-.01758-.00029c-.11589,0-.15287.12039-.15287.2223Z"/><path class="cls-7" d="M86.46975,5.14249a.13788.13788,0,0,0-.12938-.1199c-.14088,0-.18084.18734-.18484.29375h0a.2438.2438,0,0,1,.21781-.10741.30821.30821,0,0,1,.2223.09991.32926.32926,0,0,1,.07444.21481.33522.33522,0,0,1-.33771.35319c-.29274,0-.37117-.25527-.37117-.49956s.1049-.50506.37916-.50506a.29476.29476,0,0,1,.31323.26777Zm-.29624.39565a.16586.16586,0,0,0,.1515.17907l.00386.00027a.18223.18223,0,0,0,0-.35868A.16033.16033,0,0,0,86.17351,5.53814Z"/><polygon class="cls-3" points="83.822 2.233 81.954 2.233 81.02 3.037 81.954 3.84 83.822 3.84 84.757 3.037 83.822 2.233"/><path class="cls-7" d="M82.46576,3.33058A.29571.29571,0,0,1,82.225,3.451a.42378.42378,0,0,1-.43112-.4556.43.43,0,0,1,.43112-.46309.3509.3509,0,0,1,.36967.30923h-.18433a.17884.17884,0,0,0-.18534-.14987c-.17334,0-.23829.14987-.23829.29974,0,.14587.065.29324.23829.29324a.18877.18877,0,0,0,.20882-.18884h-.19433V2.95591h.36817V3.43h-.12289Z"/><path class="cls-7" d="M82.764,2.55326h.19333l.36568.588h0v-.588h.18384V3.43h-.19233l-.36518-.587h0V3.43h-.18085Z"/><path class="cls-7" d="M83.6742,2.55326h.37817a.38547.38547,0,0,1,.39965.43312.39036.39036,0,0,1-.39965.44361H83.6742Zm.19283.71437h.17185c.1119,0,.21881-.06844.21881-.26277,0-.17684-.063-.28974-.25328-.28974H83.867Z"/><rect class="cls-3" x="83.62274" y="42.25243" width="1.3663" height="1.60759" rx="0.2273"/><polygon class="cls-3" points="83.822 42.252 81.954 42.252 81.02 43.056 81.954 43.86 83.822 43.86 84.757 43.056 83.822 42.252"/><path class="cls-7" d="M82.46576,43.352a.29572.29572,0,0,1-.24078.1204.42352.42352,0,0,1-.43112-.4556.42972.42972,0,0,1,.43112-.4631.35093.35093,0,0,1,.36967.30973h-.18433A.17834.17834,0,0,0,82.225,42.716c-.17334,0-.23829.14737-.23829.29974s.065.29374.23829.29374a.18879.18879,0,0,0,.20882-.18933h-.19433v-.14388h.36817v.47409h-.12289Z"/><path class="cls-7" d="M82.764,42.57215h.19333l.36568.58848h0v-.58848h.18384v.87673h-.19233l-.36518-.587h0v.587h-.18085Z"/><path class="cls-7" d="M83.6742,42.57215h.37817a.38588.38588,0,0,1,.39965.43362.39.39,0,0,1-.39965.44311H83.6742Zm.19283.71487h.17185c.1119,0,.21881-.06894.21881-.26277,0-.17684-.063-.28974-.25328-.28974H83.867Z"/><rect class="cls-3" x="90.29439" y="42.25193" width="1.3663" height="1.60759" rx="0.2273"/><polygon class="cls-3" points="91.476 42.252 93.343 42.252 94.278 43.056 93.343 43.86 91.476 43.86 90.542 43.056 91.476 42.252"/><path class="cls-7" d="M91.49334,43.349a.29524.29524,0,0,1-.24079.12039.46031.46031,0,0,1,0-.9187.35094.35094,0,0,1,.36968.30973h-.18384a.17935.17935,0,0,0-.18584-.14986c-.17284,0-.23829.14986-.23829.29973,0,.14587.06545.29324.23829.29324a.18832.18832,0,0,0,.20771-.16672.18561.18561,0,0,0,.00111-.02211h-.19383v-.14388h.36818v.47409h-.12289Z"/><path class="cls-7" d="M91.79208,42.57165h.19133l.36617.588h0v-.588h.18035v.87673H92.3371l-.36469-.587h0v.587h-.18034Z"/><path class="cls-7" d="M92.70228,42.57165h.37816a.38586.38586,0,0,1,.39965.43362.39018.39018,0,0,1-.39965.44311h-.37816Zm.19233.71437H93.067c.11141,0,.21831-.06844.21831-.26277,0-.17684-.06244-.28974-.25278-.28974H92.8946Z"/><rect class="cls-3" x="90.29439" y="2.19957" width="1.3663" height="1.60759" rx="0.2273"/><polygon class="cls-3" points="91.476 2.2 93.343 2.2 94.278 3.004 93.343 3.807 91.476 3.807 90.542 3.004 91.476 2.2"/><path class="cls-7" d="M91.49334,3.29661a.29521.29521,0,0,1-.24079.12039.42368.42368,0,0,1-.43062-.4556.42591.42591,0,0,1,.43062-.46309.35093.35093,0,0,1,.36968.30973h-.18384a.17935.17935,0,0,0-.18584-.14987c-.17284,0-.23829.14987-.23829.29973,0,.14588.06545.29325.23829.29325a.18833.18833,0,0,0,.20771-.16673.18551.18551,0,0,0,.00111-.02211h-.19383V2.91844h.36818v.47408h-.12289Z"/><path class="cls-7" d="M91.79208,2.51929h.19133l.36617.588h0v-.588h.18035V3.396H92.3371l-.36469-.587h0v.587h-.18034Z"/><path class="cls-7" d="M92.70228,2.51929h.37816a.38587.38587,0,0,1,.39965.43362.39018.39018,0,0,1-.39965.44311h-.37816Zm.19233.71437H93.067c.11141,0,.21831-.06844.21831-.26277,0-.17684-.06244-.28974-.25278-.28974H92.8946Z"/><path class="cls-7" d="M86.31938,7.08378a.28785.28785,0,0,1,.32272.25928.20284.20284,0,0,1-.14088.20282h0a.2248.2248,0,0,1,.18085.23579.32355.32355,0,0,1-.36119.30374c-.18034,0-.36618-.09192-.36618-.30224a.2278.2278,0,0,1,.18184-.23729h0a.19233.19233,0,0,1-.14187-.19983A.29225.29225,0,0,1,86.31938,7.08378Zm0,.85625a.15835.15835,0,0,0,.16527-.15113l.00009-.01172a.15637.15637,0,0,0-.15809-.15462l-.00727.00025a.15339.15339,0,0,0-.17085.15337.16237.16237,0,0,0,.16105.16366l.0113-.00031Zm0-.4496a.13146.13146,0,1,0,0-.26077.13487.13487,0,0,0-.149.11906l-.00084.01482a.13557.13557,0,0,0,.14987.12789Z"/><path class="cls-7" d="M86.09208,10.231h-.19583V9.60208H85.655V9.4547c.13638.004.26077-.044.28276-.19183h.15586Z"/><path class="cls-7" d="M86.70005,9.24389c.19283,0,.35569.12139.35569.49956,0,.38466-.16286.50606-.35569.50606s-.35319-.1214-.35319-.50606C86.34686,9.36528,86.50821,9.24389,86.70005,9.24389Zm0,.84226c.15986,0,.15986-.23579.15986-.3447,0-.09991,0-.3362-.15986-.3362s-.15736.23579-.15736.3362C86.54269,9.85036,86.54269,10.08615,86.70005,10.08615Z"/><path class="cls-7" d="M86.09208,14.69461h-.19583v-.626H85.655v-.14737c.13638.004.26077-.04447.28276-.19184h.15586Z"/><path class="cls-7" d="M86.74851,14.4713h-.40865V14.292l.41963-.56251h.17485v.58049h.12839v.16136h-.12839v.22331h-.18583Zm0-.49656H86.744l-.24978.3352H86.748Z"/><path class="cls-7" d="M85.605,20.78027a.34282.34282,0,0,1,.34969-.39016.3071.3071,0,0,1,.33071.30224c0,.29224-.31023.31572-.44961.514h.4561v.16836h-.70838c0-.22481.13788-.31723.30474-.43163.08392-.05944.20232-.11739.20232-.23579a.13838.13838,0,0,0-.14437-.14987c-.1159,0-.15337.1199-.15337.22181Z"/><path class="cls-7" d="M86.70005,20.39011c.19283,0,.35569.12139.35569.49956,0,.38466-.16286.50606-.35569.50606s-.35319-.1214-.35319-.50606C86.34686,20.5115,86.50821,20.39011,86.70005,20.39011Zm0,.84276c.15986,0,.15986-.23579.15986-.3447,0-.09991,0-.3367-.15986-.3367s-.15736.23579-.15736.3367c0,.10891,0,.3447.15736.3447Z"/><path class="cls-7" d="M85.605,25.28282a.34259.34259,0,0,1,.34969-.39016.30666.30666,0,0,1,.33071.29974c0,.29274-.31023.31572-.44961.51454h.4561v.16836h-.70838c0-.22481.13788-.31722.30474-.43163.08392-.05944.20232-.11739.20232-.23579a.13838.13838,0,0,0-.14437-.14987c-.1159,0-.15337.1199-.15337.22181Z"/><path class="cls-7" d="M86.74851,25.654h-.40865v-.17934l.41963-.563h.17485v.581h.12839V25.654h-.12839v.2233h-.18583Zm0-.49656H86.744l-.24978.3352H86.748Z"/><path class="cls-7" d="M89.28928,7.21167a1.20126,1.20126,0,0,0-.31573.7993h-.20931a1.40779,1.40779,0,0,1,.32372-.78331h-.4576V7.04532h.65892Z"/><rect class="cls-4" x="83.62374" y="24.48552" width="1.3663" height="1.60759" rx="0.2273"/><polygon class="cls-4" points="82.566 24.486 84.183 24.486 84.993 25.29 84.183 26.094 82.566 26.094 81.758 25.29 82.566 24.486"/><path class="cls-7" d="M82.81346,24.80524h.19383l.36567.588h0v-.588h.18034V25.682H83.361l-.36518-.587h0v.587H82.815Z"/><path class="cls-7" d="M84.30615,25.1a.19086.19086,0,0,0-.19133-.15337c-.17335,0-.23829.14737-.23829.29974,0,.14587.06494.29324.23829.29324a.19792.19792,0,0,0,.19982-.19633h.18684a.36933.36933,0,0,1-.38566.35869.46027.46027,0,0,1,0-.91869.35664.35664,0,0,1,.37816.31572Z"/><rect class="cls-4" x="83.62374" y="26.6661" width="1.3663" height="1.60759" rx="0.2273"/><polygon class="cls-4" points="82.566 26.667 84.183 26.667 84.993 27.471 84.183 28.274 82.566 28.274 81.758 27.471 82.566 26.667"/><path class="cls-7" d="M82.81346,26.98632h.19383l.36567.588h0v-.588h.18034v.87923H83.361l-.36518-.587h0v.587H82.815Z"/><path class="cls-7" d="M84.30615,27.28106a.19134.19134,0,0,0-.19133-.15386c-.17335,0-.23829.14737-.23829.29973,0,.14588.06494.29325.23829.29325a.19825.19825,0,0,0,.19982-.19633h.18684a.36932.36932,0,0,1-.38566.35868.46027.46027,0,0,1,0-.91869.35664.35664,0,0,1,.37816.31572Z"/><rect class="cls-4" x="83.62374" y="28.8347" width="1.3663" height="1.60759" rx="0.2273"/><polygon class="cls-4" points="82.566 28.835 84.183 28.835 84.993 29.639 84.183 30.443 82.566 30.443 81.758 29.639 82.566 28.835"/><path class="cls-7" d="M82.81346,29.15442h.19383l.36567.58848h0v-.58848h.18034v.87723H83.361l-.36518-.587h0v.587H82.815Z"/><path class="cls-7" d="M84.30615,29.44916a.19132.19132,0,0,0-.19133-.15336c-.17335,0-.23829.14987-.23829.29973s.06494.29375.23829.29375a.19825.19825,0,0,0,.19982-.19633h.18684a.36892.36892,0,0,1-.38566.35818.4222.4222,0,0,1-.43112-.4556.428.428,0,0,1,.43112-.46259.35661.35661,0,0,1,.37816.31522Z"/><rect class="cls-4" x="83.62374" width="1.3663" height="1.60759" rx="0.2273"/><polygon class="cls-4" points="82.566 0 84.183 0 84.993 0.805 84.183 1.608 82.566 1.608 81.758 0.805 82.566 0"/><path class="cls-7" d="M82.81346.31972h.19383l.36567.588h0v-.588h.18034v.87673H83.361l-.36518-.587h0v.587H82.815Z"/><path class="cls-7" d="M84.30615.61446A.19084.19084,0,0,0,84.11482.4611c-.17335,0-.23829.14737-.23829.29973,0,.14587.06494.29325.23829.29325a.19793.19793,0,0,0,.19982-.19633h.18684a.36933.36933,0,0,1-.38566.35868.42378.42378,0,0,1-.43112-.4556.426.426,0,0,1,.43112-.46309A.35664.35664,0,0,1,84.494.61346Z"/><rect class="cls-4" x="83.62374" y="6.73259" width="1.3663" height="1.60759" rx="0.2273"/><polygon class="cls-4" points="82.566 6.733 84.183 6.733 84.993 7.537 84.183 8.341 82.566 8.341 81.758 7.537 82.566 6.733"/><path class="cls-7" d="M82.81346,7.05231h.19383l.36567.588h0v-.588h.18034V7.929H83.361l-.36518-.587h0v.587H82.815Z"/><path class="cls-7" d="M84.30615,7.34705a.19084.19084,0,0,0-.19133-.15336c-.17335,0-.23829.14987-.23829.29974,0,.14587.06494.29324.23829.29324a.19792.19792,0,0,0,.19982-.19633h.18684a.36933.36933,0,0,1-.38566.35869.46027.46027,0,0,1,0-.9187.35664.35664,0,0,1,.37816.31572Z"/><rect class="cls-4" x="90.2889" y="6.73259" width="1.3663" height="1.60759" rx="0.2273"/><polygon class="cls-4" points="92.712 6.733 91.096 6.733 90.286 7.537 91.096 8.34 92.712 8.34 93.521 7.537 92.712 6.733"/><path class="cls-7" d="M90.87938,7.05231h.19183l.36567.588h0v-.588h.18085V7.929H91.4249l-.36469-.587h0v.587h-.18084Z"/><path class="cls-7" d="M92.37407,7.34705a.19134.19134,0,0,0-.19133-.15386c-.17335,0-.23829.14737-.23829.29974s.06494.29374.23829.29374a.19794.19794,0,0,0,.19982-.19633h.18684a.36892.36892,0,0,1-.38566.35819.42352.42352,0,0,1-.43112-.4556.4293.4293,0,0,1,.43112-.4626.35663.35663,0,0,1,.37816.31573Z"/><rect class="cls-4" x="90.2889" y="4.46658" width="1.3663" height="1.60759" rx="0.2273"/><polygon class="cls-4" points="92.712 4.467 91.096 4.467 90.286 5.271 91.096 6.074 92.712 6.074 93.521 5.271 92.712 4.467"/><path class="cls-7" d="M90.87938,4.7863h.19183l.36567.588h0v-.588h.18085V5.663H91.4249l-.36469-.587h0v.587h-.18084Z"/><path class="cls-7" d="M92.37407,5.081a.19134.19134,0,0,0-.19133-.15386c-.17335,0-.23829.14737-.23829.29973s.06494.29375.23829.29375a.19794.19794,0,0,0,.19982-.19633h.18684a.36892.36892,0,0,1-.38566.35819.42352.42352,0,0,1-.43112-.4556.4293.4293,0,0,1,.43112-.4626A.35663.35663,0,0,1,92.5619,5.08Z"/><rect class="cls-4" x="90.2889" y="0.04746" width="1.3663" height="1.60759" rx="0.2273"/><polygon class="cls-4" points="92.712 0.047 91.096 0.047 90.286 0.852 91.096 1.655 92.712 1.655 93.521 0.852 92.712 0.047"/><path class="cls-7" d="M90.87938.36718h.19183l.36567.588h0v-.588h.18085v.87673H91.4249l-.36469-.587h0v.587h-.18084Z"/><path class="cls-7" d="M92.37407.66192a.19136.19136,0,0,0-.19133-.15387c-.17335,0-.23829.14738-.23829.29974s.06494.29374.23829.29374a.19794.19794,0,0,0,.19982-.19632h.18684a.36892.36892,0,0,1-.38566.35818.42352.42352,0,0,1-.43112-.4556A.42929.42929,0,0,1,92.18374.3452a.35663.35663,0,0,1,.37816.31572Z"/><rect class="cls-4" x="83.62374" y="8.89969" width="1.3663" height="1.60759" rx="0.2273"/><polygon class="cls-4" points="82.566 8.901 84.183 8.901 84.993 9.705 84.183 10.508 82.566 10.508 81.758 9.705 82.566 8.901"/><path class="cls-7" d="M82.81346,9.21991h.19383l.36567.588h0v-.588h.18034v.87673H83.361l-.36518-.587h0v.587H82.815Z"/><path class="cls-7" d="M84.30615,9.51465a.19134.19134,0,0,0-.19133-.15386c-.17335,0-.23829.14737-.23829.29973,0,.14588.06494.29325.23829.29325a.19825.19825,0,0,0,.19982-.19633h.18684a.36932.36932,0,0,1-.38566.35868.46027.46027,0,0,1,0-.91869.35664.35664,0,0,1,.37816.31572Z"/><rect class="cls-4" x="90.2889" y="8.90019" width="1.3663" height="1.60759" rx="0.2273"/><polygon class="cls-4" points="92.712 8.9 91.096 8.9 90.286 9.704 91.096 10.508 92.712 10.508 93.521 9.704 92.712 8.9"/><path class="cls-7" d="M90.87938,9.21941h.19183l.36567.58848h0V9.21941h.18085v.87673H91.4249l-.36469-.587h0v.587h-.18084Z"/><path class="cls-7" d="M92.37407,9.51415a.19132.19132,0,0,0-.19133-.15336c-.17335,0-.23829.14737-.23829.29973s.06494.29375.23829.29375a.198.198,0,0,0,.19982-.19683h.18684a.369.369,0,0,1-.38566.35868.42352.42352,0,0,1-.43112-.4556.42971.42971,0,0,1,.43112-.46309.357.357,0,0,1,.37816.31572Z"/><rect class="cls-4" x="83.62374" y="11.06879" width="1.3663" height="1.60759" rx="0.2273"/><polygon class="cls-4" points="82.566 11.069 84.183 11.069 84.993 11.873 84.183 12.676 82.566 12.676 81.758 11.873 82.566 11.069"/><path class="cls-7" d="M82.81346,11.388h.19383l.36567.58848h0V11.388h.18034v.87673H83.361l-.36467-.585h0v.587h-.18084Z"/><path class="cls-7" d="M84.30615,11.68275a.19134.19134,0,0,0-.19133-.15337c-.17335,0-.23829.14737-.23829.29974s.06494.29374.23829.29374a.19835.19835,0,0,0,.19982-.19682h.18684a.369.369,0,0,1-.38566.35868.42352.42352,0,0,1-.43112-.4556.42971.42971,0,0,1,.43112-.46309.357.357,0,0,1,.37816.31572Z"/><rect class="cls-4" x="90.2889" y="11.06879" width="1.3663" height="1.60759" rx="0.2273"/><polygon class="cls-4" points="92.712 11.069 91.096 11.069 90.286 11.873 91.096 12.676 92.712 12.676 93.521 11.873 92.712 11.069"/><path class="cls-7" d="M90.87938,11.388h.19183l.36567.58848h0V11.388h.18085v.87673H91.4249l-.36469-.587h0v.587h-.18084Z"/><path class="cls-7" d="M92.37407,11.68275a.19134.19134,0,0,0-.19133-.15337c-.17335,0-.23829.14737-.23829.29974s.06494.29374.23829.29374a.198.198,0,0,0,.19982-.19682h.18684a.36932.36932,0,0,1-.38566.35868.42352.42352,0,0,1-.43112-.4556.42971.42971,0,0,1,.43112-.46309.357.357,0,0,1,.37816.31572Z"/><rect class="cls-4" x="90.2889" y="13.31232" width="1.3663" height="1.60759" rx="0.2273"/><polygon class="cls-4" points="92.712 13.312 91.096 13.312 90.286 14.117 91.096 14.92 92.712 14.92 93.521 14.117 92.712 13.312"/><path class="cls-7" d="M90.87938,13.63154h.19183l.36567.58848h0v-.58848h.18085v.87673H91.4249l-.36469-.587h0v.587h-.18084Z"/><path class="cls-7" d="M92.37407,13.92778a.19134.19134,0,0,0-.19133-.15337c-.17335,0-.23829.14987-.23829.29974s.06494.29374.23829.29374a.198.198,0,0,0,.19982-.19682h.18684a.36932.36932,0,0,1-.38566.35868.42352.42352,0,0,1-.43112-.4556.42971.42971,0,0,1,.43112-.46309.35663.35663,0,0,1,.37816.31572Z"/><rect class="cls-4" x="83.62374" y="15.51039" width="1.3663" height="1.60759" rx="0.2273"/><polygon class="cls-4" points="82.566 15.51 84.183 15.51 84.993 16.315 84.183 17.118 82.566 17.118 81.758 16.315 82.566 15.51"/><path class="cls-7" d="M82.81346,15.83011h.19383l.36567.588h0v-.588h.18034v.87673H83.361l-.36518-.587h0v.587H82.815Z"/><path class="cls-7" d="M84.30615,16.12585a.19134.19134,0,0,0-.19133-.15386c-.17335,0-.23829.14987-.23829.29973,0,.14588.06494.29325.23829.29325a.19825.19825,0,0,0,.19982-.19633h.18684a.36932.36932,0,0,1-.38566.35868.42378.42378,0,0,1-.43112-.4556.43.43,0,0,1,.43112-.46309.35664.35664,0,0,1,.37816.31572Z"/><rect class="cls-4" x="83.62374" y="13.31232" width="1.3663" height="1.60759" rx="0.2273"/><polygon class="cls-4" points="82.566 13.312 84.183 13.312 84.993 14.117 84.183 14.92 82.566 14.92 81.758 14.117 82.566 13.312"/><path class="cls-7" d="M82.81346,13.63154h.19383L83.373,14.22h0v-.58848h.18034v.87673H83.361l-.36518-.587h0v.587H82.815Z"/><path class="cls-7" d="M84.30615,13.92778a.19134.19134,0,0,0-.19133-.15337c-.17335,0-.23829.14987-.23829.29974s.06494.29374.23829.29374a.19835.19835,0,0,0,.19982-.19682h.18684a.36933.36933,0,0,1-.38566.35868.42352.42352,0,0,1-.43112-.4556.42971.42971,0,0,1,.43112-.46309.35664.35664,0,0,1,.37816.31572Z"/><rect class="cls-4" x="90.2889" y="15.51039" width="1.3663" height="1.60759" rx="0.2273"/><polygon class="cls-4" points="92.712 15.51 91.096 15.51 90.286 16.315 91.096 17.118 92.712 17.118 93.521 16.315 92.712 15.51"/><path class="cls-7" d="M90.87938,15.83011h.19183l.36567.588h0v-.588h.18085v.87673H91.4249l-.36469-.587h0v.587h-.18084Z"/><path class="cls-7" d="M92.37407,16.12585a.19134.19134,0,0,0-.19133-.15386c-.17335,0-.23829.14987-.23829.29973,0,.14588.06494.29325.23829.29325a.19794.19794,0,0,0,.19982-.19633h.18684a.36932.36932,0,0,1-.38566.35868.42378.42378,0,0,1-.43112-.4556.43.43,0,0,1,.43112-.46309.35663.35663,0,0,1,.37816.31572Z"/><rect class="cls-4" x="83.62374" y="17.73144" width="1.3663" height="1.60759" rx="0.2273"/><polygon class="cls-4" points="82.566 17.731 84.183 17.731 84.993 18.536 84.183 19.339 82.566 19.339 81.758 18.536 82.566 17.731"/><path class="cls-7" d="M82.81346,18.05066h.19383l.36567.58849h0v-.58849h.18034v.87723H83.361l-.36518-.587h0v.587H82.815Z"/><path class="cls-7" d="M84.30615,18.3454a.19132.19132,0,0,0-.19133-.15336c-.17335,0-.23829.14737-.23829.29973s.06494.29375.23829.29375a.19825.19825,0,0,0,.19982-.19633h.18684a.36892.36892,0,0,1-.38566.35819.42352.42352,0,0,1-.43112-.4556.4293.4293,0,0,1,.43112-.4626.35661.35661,0,0,1,.37816.31523Z"/><rect class="cls-4" x="90.2889" y="17.73144" width="1.3663" height="1.60759" rx="0.2273"/><polygon class="cls-4" points="92.712 17.731 91.096 17.731 90.286 18.536 91.096 19.339 92.712 19.339 93.521 18.536 92.712 17.731"/><path class="cls-7" d="M90.87938,18.05066h.19183l.36567.58849h0v-.58849h.18085v.87723H91.4249l-.36469-.587h0v.587h-.18084Z"/><path class="cls-7" d="M92.37407,18.3454a.19132.19132,0,0,0-.19133-.15336c-.17335,0-.23829.14737-.23829.29973s.06494.29375.23829.29375a.19794.19794,0,0,0,.19982-.19633h.18684a.36892.36892,0,0,1-.38566.35819.42352.42352,0,0,1-.43112-.4556.4293.4293,0,0,1,.43112-.4626.35661.35661,0,0,1,.37816.31523Z"/><rect class="cls-4" x="83.62374" y="22.30493" width="1.3663" height="1.60759" rx="0.2273"/><polygon class="cls-4" points="82.566 22.305 84.183 22.305 84.993 23.109 84.183 23.913 82.566 23.913 81.758 23.109 82.566 22.305"/><path class="cls-7" d="M82.81346,22.62415h.19383l.36567.58848h0v-.58848h.18034v.87673H83.361l-.36518-.587h0v.587H82.815Z"/><path class="cls-7" d="M84.30615,22.91989a.19134.19134,0,0,0-.19133-.15337c-.17335,0-.23829.14738-.23829.29974s.06494.29374.23829.29374a.19835.19835,0,0,0,.19982-.19682h.18684a.36933.36933,0,0,1-.38566.35868.42378.42378,0,0,1-.43112-.4556.43.43,0,0,1,.43112-.46309.35664.35664,0,0,1,.37816.31572Z"/><rect class="cls-4" x="90.2889" y="22.30493" width="1.3663" height="1.60759" rx="0.2273"/><polygon class="cls-4" points="92.712 22.305 91.096 22.305 90.286 23.109 91.096 23.913 92.712 23.913 93.521 23.109 92.712 22.305"/><path class="cls-7" d="M90.87938,22.62415h.19183l.36567.58848h0v-.58848h.18085v.87673H91.4249l-.36469-.587h0v.587h-.18084Z"/><path class="cls-7" d="M92.37407,22.91989a.19134.19134,0,0,0-.19133-.15337c-.17335,0-.23829.14738-.23829.29974s.06494.29374.23829.29374a.198.198,0,0,0,.19982-.19682h.18684a.36932.36932,0,0,1-.38566.35868.42378.42378,0,0,1-.43112-.4556.43.43,0,0,1,.43112-.46309.35663.35663,0,0,1,.37816.31572Z"/><rect class="cls-4" x="90.2889" y="24.48602" width="1.3663" height="1.60759" rx="0.2273"/><polygon class="cls-4" points="92.712 24.486 91.096 24.486 90.286 25.29 91.096 26.094 92.712 26.094 93.521 25.29 92.712 24.486"/><path class="cls-7" d="M90.87938,24.80524h.19183l.36567.58848h0v-.58848h.18085V25.682H91.4249l-.36469-.587h0v.587h-.18084Z"/><path class="cls-7" d="M92.37407,25.1a.19134.19134,0,0,0-.19133-.15337c-.17335,0-.23829.14737-.23829.29974s.06494.29374.23829.29374a.198.198,0,0,0,.19982-.19683h.18684a.36933.36933,0,0,1-.38566.35869.42352.42352,0,0,1-.43112-.4556.42971.42971,0,0,1,.43112-.46309.35663.35663,0,0,1,.37816.31572Z"/><path class="cls-7" d="M90.87938,24.80424h.19183l.36567.58848h0v-.58848h.18085V25.681H91.4249l-.36469-.587h0v.587h-.18084Z"/><path class="cls-7" d="M92.37407,25.099a.19085.19085,0,0,0-.19133-.15337c-.17335,0-.23829.14987-.23829.29974s.06494.29374.23829.29374a.198.198,0,0,0,.19982-.19683h.18684a.36933.36933,0,0,1-.38566.35869.46027.46027,0,0,1,0-.9187.35664.35664,0,0,1,.37816.31573Z"/><rect class="cls-4" x="90.2889" y="26.6666" width="1.3663" height="1.60759" rx="0.2273"/><polygon class="cls-4" points="92.712 26.667 91.096 26.667 90.286 27.471 91.096 28.274 92.712 28.274 93.521 27.471 92.712 26.667"/><path class="cls-7" d="M90.87938,26.98632h.19183l.36567.588h0v-.588h.18085v.87923H91.4249l-.36469-.587h0v.587h-.18084Z"/><path class="cls-7" d="M92.37407,27.28106a.19134.19134,0,0,0-.19133-.15386c-.17335,0-.23829.14737-.23829.29973,0,.14588.06494.29325.23829.29325a.19794.19794,0,0,0,.19982-.19633h.18684a.36932.36932,0,0,1-.38566.35868.46027.46027,0,0,1,0-.91869.35663.35663,0,0,1,.37816.31572Z"/><path class="cls-7" d="M90.87938,26.98532h.19183l.36567.588h0v-.588h.18085v.87673H91.4249l-.36469-.587h0v.587h-.18084Z"/><path class="cls-7" d="M92.37407,27.28007a.19135.19135,0,0,0-.19133-.15387c-.17335,0-.23829.14737-.23829.29974,0,.14587.06494.29324.23829.29324a.19794.19794,0,0,0,.19982-.19633h.18684a.36933.36933,0,0,1-.38566.35869.46027.46027,0,0,1,0-.9187.35663.35663,0,0,1,.37816.31573Z"/><rect class="cls-4" x="83.62374" y="31.07574" width="1.3663" height="1.60759" rx="0.2273"/><polygon class="cls-4" points="82.566 31.076 84.183 31.076 84.993 31.88 84.183 32.683 82.566 32.683 81.758 31.88 82.566 31.076"/><path class="cls-7" d="M82.81346,31.395h.19383l.36567.588h0v-.588h.18034v.87673H83.361l-.36518-.587h0v.587H82.815Z"/><path class="cls-7" d="M84.30615,31.6897a.19084.19084,0,0,0-.19133-.15337c-.17335,0-.23829.14737-.23829.29974,0,.14587.06494.29324.23829.29324a.19792.19792,0,0,0,.19982-.19633h.18684a.36933.36933,0,0,1-.38566.35869.46027.46027,0,0,1,0-.9187.35664.35664,0,0,1,.37816.31573Z"/><rect class="cls-4" x="83.62374" y="33.2868" width="1.3663" height="1.60759" rx="0.2273"/><polygon class="cls-4" points="82.566 33.287 84.183 33.287 84.993 34.091 84.183 34.894 82.566 34.894 81.758 34.091 82.566 33.287"/><path class="cls-7" d="M82.81346,33.606h.19383l.36567.588h0v-.588h.18034v.87673H83.361l-.36518-.587h0v.587H82.815Z"/><path class="cls-7" d="M84.30615,33.90076a.19084.19084,0,0,0-.19133-.15337c-.17335,0-.23829.14737-.23829.29974,0,.14587.06494.29324.23829.29324a.19792.19792,0,0,0,.19982-.19633h.18684a.36933.36933,0,0,1-.38566.35869.46027.46027,0,0,1,0-.9187.35664.35664,0,0,1,.37816.31573Z"/><rect class="cls-4" x="90.2889" y="31.07574" width="1.3663" height="1.60759" rx="0.2273"/><polygon class="cls-4" points="92.712 31.076 91.096 31.076 90.286 31.88 91.096 32.683 92.712 32.683 93.521 31.88 92.712 31.076"/><path class="cls-7" d="M90.87938,31.395h.19183l.36567.588h0v-.588h.18085v.87673H91.4249l-.36469-.587h0v.587h-.18084Z"/><path class="cls-7" d="M92.37407,31.6897a.19083.19083,0,0,0-.19133-.15337c-.17335,0-.23829.14737-.23829.29974,0,.14587.06494.29324.23829.29324a.19762.19762,0,0,0,.19982-.19633h.18684a.36933.36933,0,0,1-.38566.35869.46027.46027,0,0,1,0-.9187.35663.35663,0,0,1,.37816.31573Z"/><rect class="cls-4" x="90.2889" y="33.2768" width="1.3663" height="1.60759" rx="0.2273"/><polygon class="cls-4" points="92.712 33.277 91.096 33.277 90.286 34.081 91.096 34.884 92.712 34.884 93.521 34.081 92.712 33.277"/><path class="cls-7" d="M90.87938,33.596h.19183l.36567.588h0v-.588h.18085v.87673H91.4249l-.36469-.587h0v.587h-.18084Z"/><path class="cls-7" d="M92.37407,33.89076a.19083.19083,0,0,0-.19133-.15336c-.17335,0-.23829.14737-.23829.29974,0,.14587.06494.29324.23829.29324a.19762.19762,0,0,0,.19982-.19633h.18684a.36933.36933,0,0,1-.38566.35869.46027.46027,0,0,1,0-.9187.35663.35663,0,0,1,.37816.31572Z"/><rect class="cls-4" x="90.2889" y="28.8352" width="1.3663" height="1.60759" rx="0.2273"/><polygon class="cls-4" points="92.712 28.835 91.096 28.835 90.286 29.639 91.096 30.443 92.712 30.443 93.521 29.639 92.712 28.835"/><path class="cls-7" d="M90.87938,29.15442h.19183l.36567.58848h0v-.58848h.18085v.87673H91.4249l-.36469-.587h0v.587h-.18084Z"/><path class="cls-7" d="M92.37407,29.44916a.19083.19083,0,0,0-.19133-.15336c-.17335,0-.23829.14987-.23829.29973s.06494.29375.23829.29375a.198.198,0,0,0,.19982-.19683h.18684a.36932.36932,0,0,1-.38566.35868.42378.42378,0,0,1-.43112-.4556.43.43,0,0,1,.43112-.46309.35663.35663,0,0,1,.37816.31572Z"/><rect class="cls-4" x="83.62374" y="35.49786" width="1.3663" height="1.60759" rx="0.2273"/><polygon class="cls-4" points="82.566 35.498 84.183 35.498 84.993 36.302 84.183 37.105 82.566 37.105 81.758 36.302 82.566 35.498"/><path class="cls-7" d="M82.81346,35.81707h.19383l.36567.58849h0v-.58849h.18034v.87723H83.361l-.36467-.586h0v.587h-.18084Z"/><path class="cls-7" d="M84.30615,36.11182a.19133.19133,0,0,0-.19133-.15337c-.17335,0-.23829.14987-.23829.29974s.06494.29374.23829.29374a.19825.19825,0,0,0,.19982-.19633h.18684a.36892.36892,0,0,1-.38566.35819.42221.42221,0,0,1-.43112-.4556.428.428,0,0,1,.43112-.4626.35661.35661,0,0,1,.37816.31523Z"/><rect class="cls-4" x="90.2889" y="35.49786" width="1.3663" height="1.60759" rx="0.2273"/><polygon class="cls-4" points="92.712 35.498 91.096 35.498 90.286 36.302 91.096 37.105 92.712 37.105 93.521 36.302 92.712 35.498"/><path class="cls-7" d="M90.87938,35.81707h.19183l.36567.58849h0v-.58849h.18085v.87723H91.4249l-.36469-.587h0v.587h-.18084Z"/><path class="cls-7" d="M92.37407,36.11182a.19133.19133,0,0,0-.19133-.15337c-.17335,0-.23829.14987-.23829.29974s.06494.29374.23829.29374a.19794.19794,0,0,0,.19982-.19633h.18684a.36892.36892,0,0,1-.38566.35819.42221.42221,0,0,1-.43112-.4556.428.428,0,0,1,.43112-.4626.35661.35661,0,0,1,.37816.31523Z"/><rect class="cls-4" x="83.62374" y="37.74738" width="1.3663" height="1.60759" rx="0.2273"/><polygon class="cls-4" points="82.566 37.747 84.183 37.747 84.993 38.552 84.183 39.355 82.566 39.355 81.758 38.552 82.566 37.747"/><path class="cls-7" d="M82.81346,38.0671h.19383l.36567.588h0v-.588h.18034v.87673H83.361l-.36467-.58748h0v.587h-.18084Z"/><path class="cls-7" d="M84.30615,38.36184a.19134.19134,0,0,0-.19133-.15386c-.17335,0-.23829.14986-.23829.29973,0,.14587.06494.29324.23829.29324a.19824.19824,0,0,0,.19982-.19632h.18684a.36932.36932,0,0,1-.38566.35868.42378.42378,0,0,1-.43112-.4556.43.43,0,0,1,.43112-.46309.35664.35664,0,0,1,.37816.31572Z"/><rect class="cls-4" x="90.2889" y="37.74738" width="1.3663" height="1.60759" rx="0.2273"/><polygon class="cls-4" points="92.712 37.747 91.096 37.747 90.286 38.552 91.096 39.355 92.712 39.355 93.521 38.552 92.712 37.747"/><path class="cls-7" d="M90.87938,38.0671h.19183l.36567.588h0v-.588h.18085v.87673H91.4249l-.36469-.587h0v.587h-.18084Z"/><path class="cls-7" d="M92.37407,38.36184a.19134.19134,0,0,0-.19133-.15386c-.17335,0-.23829.14986-.23829.29973,0,.14587.06494.29324.23829.29324a.19794.19794,0,0,0,.19982-.19632h.18684a.36932.36932,0,0,1-.38566.35868.42378.42378,0,0,1-.43112-.4556.43.43,0,0,1,.43112-.46309.35663.35663,0,0,1,.37816.31572Z"/><rect class="cls-4" x="83.62374" y="40.07134" width="1.3663" height="1.60759" rx="0.2273"/><polygon class="cls-4" points="82.566 40.071 84.183 40.071 84.993 40.876 84.183 41.679 82.566 41.679 81.758 40.876 82.566 40.071"/><path class="cls-7" d="M82.81346,40.39106h.19383l.36567.588h0v-.588h.18034v.87673H83.361l-.36467-.58748h0v.587h-.18084Z"/><path class="cls-7" d="M84.30615,40.6858a.19134.19134,0,0,0-.19133-.15386c-.17335,0-.23829.14987-.23829.29973,0,.14588.06494.29325.23829.29325a.19825.19825,0,0,0,.19982-.19633h.18684a.36932.36932,0,0,1-.38566.35868.42378.42378,0,0,1-.43112-.4556.43.43,0,0,1,.43112-.46309.35664.35664,0,0,1,.37816.31572Z"/><rect class="cls-4" x="90.2889" y="40.07134" width="1.3663" height="1.60759" rx="0.2273"/><polygon class="cls-4" points="92.712 40.071 91.096 40.071 90.286 40.876 91.096 41.679 92.712 41.679 93.521 40.876 92.712 40.071"/><path class="cls-7" d="M90.87938,40.39106h.19183l.36567.588h0v-.588h.18085v.87673H91.4249l-.36469-.587h0v.587h-.18084Z"/><path class="cls-7" d="M92.37407,40.6858a.19134.19134,0,0,0-.19133-.15386c-.17335,0-.23829.14987-.23829.29973,0,.14588.06494.29325.23829.29325a.19794.19794,0,0,0,.19982-.19633h.18684a.36932.36932,0,0,1-.38566.35868.42378.42378,0,0,1-.43112-.4556.43.43,0,0,1,.43112-.46309.35663.35663,0,0,1,.37816.31572Z"/><path class="cls-7" d="M88.73376,14.63566h-.19583v-.62595h-.24278v-.14987c.13638.0045.26077-.044.28275-.19133h.15586Z"/><path class="cls-7" d="M89.27429,14.06066c.08392.007.20531-.00949.20531-.11989a.12739.12739,0,0,0-.12606-.1287l-.01031.00031c-.09992,0-.14987.07294-.14987.17235H89.007a.31945.31945,0,0,1,.33371-.33371.29825.29825,0,0,1,.32422.26777.19134.19134,0,0,1-.13538.19683v.003a.21481.21481,0,0,1,.17135.21931.36.36,0,0,1-.71738-.03247h.18634c.004.10491.05645.19033.16985.19033a.14986.14986,0,0,0,.1567-.14271l.00016-.00716c0-.14637-.12789-.14337-.2233-.14337Z"/><path class="cls-7" d="M88.73376,16.84422h-.19583v-.62645h-.24278V16.0704c.13638.004.26077-.044.28275-.19183h.15586Z"/><path class="cls-7" d="M89.65146,16.03993h-.39965l-.03847.21931v.003a.24579.24579,0,0,1,.18934-.07443.30036.30036,0,0,1,.29973.32821.34968.34968,0,0,1-.35206.3473l-.00662-.0001a.32272.32272,0,0,1-.35869-.30573h.19583a.15436.15436,0,0,0,.15886.14437.17436.17436,0,0,0,.1671-.18131l-.00025-.00453a.16585.16585,0,0,0-.16685-.18084.16038.16038,0,0,0-.14987.07743h-.17634l.09541-.534h.54253Z"/><path class="cls-5" d="M84.62281,4.555H83.15387c-.20227,0-.36623.10177-.36623.2273v1.153c0,.12554.164.2273.36623.2273h1.46894c.20227,0,.36623-.10176.36623-.2273V4.7823C84.989,4.65677,84.82508,4.555,84.62281,4.555Z"/><polygon class="cls-5" points="80.947 4.555 82.563 4.555 83.373 5.359 82.563 6.163 80.947 6.163 80.138 5.359 80.947 4.555"/><polygon class="cls-5" points="81.568 4.555 83.184 4.555 83.994 5.359 83.184 6.163 81.568 6.163 80.759 5.359 81.568 4.555"/><path class="cls-7" d="M81.30963,5.24417c.07227.00586.17725-.00879.17725-.10352a.10993.10993,0,0,0-.11768-.11084c-.08594,0-.12988.063-.1289.14893h-.16065a.27637.27637,0,0,1,.28809-.28809.25705.25705,0,0,1,.27978.23047.16527.16527,0,0,1-.1167.17041V5.294a.18491.18491,0,0,1,.14746.18946.31048.31048,0,0,1-.61865-.02979h.16065c.00341.09033.04882.16406.14648.16406a.12822.12822,0,0,0,.13574-.13086c0-.12646-.11084-.124-.19287-.124Z"/><path class="cls-7" d="M82.1778,5.74026h-.21045l-.27588-.84961h.19238l.18945.59717h.00244l.19141-.59717H82.46Z"/><path class="cls-7" d="M82.72321,5.24417c.07226.00586.17724-.00879.17724-.10352a.10993.10993,0,0,0-.11767-.11084c-.08594,0-.12989.063-.12891.14893h-.16064a.27609.27609,0,0,1,.28808-.28809.25706.25706,0,0,1,.27979.23047.16528.16528,0,0,1-.1167.17041V5.294a.18492.18492,0,0,1,.14746.18946.31048.31048,0,0,1-.61865-.02979h.16064c.00342.09033.04883.16406.14648.16406a.12822.12822,0,0,0,.13575-.13086c0-.12646-.11084-.124-.19287-.124Z"/><path class="cls-7" d="M83.11481,5.82962H83.71v.05957h-.59521Z"/><path class="cls-7" d="M83.92047,5.458c0,.11328.08789.15722.188.15722.06543,0,.16553-.019.16553-.10595,0-.09278-.12842-.106-.25244-.14014-.126-.03125-.25342-.085-.25342-.2417,0-.17529.16406-.25732.31787-.25732.17724,0,.34033.07763.34033.27392h-.18115c-.00586-.10107-.07715-.12842-.16748-.12842-.05957,0-.12842.02491-.12842.09619,0,.06543.04.0752.25342.12842.063.01465.252.05616.252.24756,0,.15625-.12109.27246-.353.27246-.18847,0-.36572-.09277-.3623-.30224Z"/><path class="cls-6" d="M84.61632,19.981H83.14738c-.20226,0-.36623.10177-.36623.2273v1.153c0,.12553.164.2273.36623.2273h1.46894c.20227,0,.36624-.10177.36624-.2273v-1.153C84.98256,20.08274,84.81859,19.981,84.61632,19.981Z"/><polygon class="cls-6" points="79.576 19.981 81.192 19.981 82.002 20.785 81.192 21.589 79.576 21.589 78.767 20.785 79.576 19.981"/><polygon class="cls-6" points="80.946 19.981 83.185 19.981 84.307 20.785 83.185 21.589 80.946 21.589 79.826 20.785 80.946 19.981"/><path class="cls-6" d="M90.65213,21.58855h1.46894c.20227,0,.36624-.10177.36624-.2273v-1.153c0-.12553-.164-.2273-.36624-.2273H90.65213c-.20226,0-.36623.10177-.36623.2273v1.153C90.2859,21.48678,90.44987,21.58855,90.65213,21.58855Z"/><polygon class="cls-6" points="95.693 21.589 94.076 21.589 93.266 20.784 94.076 19.981 95.693 19.981 96.501 20.784 95.693 21.589"/><polygon class="cls-6" points="94.322 21.589 92.083 21.589 90.962 20.784 92.083 19.981 94.322 19.981 95.443 20.784 94.322 21.589"/><path class="cls-7" d="M91.19785,20.69661a.29587.29587,0,0,1,.30225-.33643.26518.26518,0,0,1,.28564.26026c0,.25244-.26758.273-.38916.44433h.394v.145h-.61181c0-.19385.11914-.27392.26318-.37256.07275-.05127.1748-.10107.1748-.20361a.11958.11958,0,0,0-.125-.12842c-.10009,0-.13183.10352-.13183.19141Z"/><path class="cls-7" d="M92.46543,20.64583a.18507.18507,0,0,0-.18555-.14893c-.16748,0-.231.14258-.231.29151,0,.1416.06348.28466.231.28466a.19078.19078,0,0,0,.19287-.19043h.18115a.35749.35749,0,0,1-.374.34717.446.446,0,0,1,0-.89013.34554.34554,0,0,1,.3667.30615Z"/><path class="cls-7" d="M93.24131,20.92757c0,.11328.08789.15722.188.15722.06543,0,.16553-.019.16553-.10595,0-.09278-.12842-.106-.25244-.14014-.126-.03125-.25342-.085-.25342-.2417,0-.17529.16407-.25732.31787-.25732.17725,0,.34034.07763.34034.27392H93.566c-.00586-.10107-.07715-.12842-.16748-.12842-.05957,0-.1289.02491-.1289.09619,0,.06543.04052.0752.2539.12842.063.01465.252.05615.252.24756,0,.15625-.1211.27246-.35352.27246-.188,0-.36523-.09277-.36133-.30224Z"/><path class="cls-7" d="M93.8873,20.36018h.3667a.37266.37266,0,0,1,.38574.41993.37777.37777,0,0,1-.38574.42968h-.3667Zm.187.69239h.16651c.1084,0,.21191-.06641.21191-.2544,0-.17139-.06054-.28125-.24512-.28125h-.1333Z"/><path class="cls-7" d="M95.003,20.36018h.1914l.31787.84961H95.318l-.064-.18945h-.31787l-.06689.18945h-.189Zm-.01807.521h.22021l-.10742-.31152h-.002Z"/><path class="cls-7" d="M90.85722,20.36018h.187v.84961h-.187Z"/><path class="cls-7" d="M80.31894,20.69661a.29587.29587,0,0,1,.30225-.33643.26518.26518,0,0,1,.28564.26026c0,.25244-.26758.273-.38916.44433h.39405v.145H80.2999c0-.19385.11914-.27392.26318-.37256.07276-.05127.17481-.10107.17481-.20361a.11959.11959,0,0,0-.125-.12842c-.1001,0-.13184.10352-.13184.19141Z"/><path class="cls-7" d="M81.58652,20.64583a.18506.18506,0,0,0-.18555-.14893c-.16748,0-.231.14258-.231.29151,0,.1416.06347.28466.231.28466a.19078.19078,0,0,0,.19287-.19043H81.775a.3575.3575,0,0,1-.374.34717.446.446,0,0,1,0-.89013.34554.34554,0,0,1,.3667.30615Z"/><path class="cls-7" d="M82.3624,20.92757c0,.11328.08789.15722.188.15722.06543,0,.16552-.019.16552-.10595,0-.09278-.12841-.106-.25244-.14014-.126-.03125-.25341-.085-.25341-.2417,0-.17529.16406-.25732.31787-.25732.17724,0,.34033.07763.34033.27392h-.18115c-.00586-.10107-.07715-.12842-.16748-.12842-.05957,0-.12891.02491-.12891.09619,0,.06543.04053.0752.25391.12842.063.01465.25195.05615.25195.24756,0,.15625-.12109.27246-.35352.27246-.188,0-.36523-.09277-.36132-.30224Z"/><path class="cls-7" d="M83.5748,20.64583a.18506.18506,0,0,0-.18555-.14893c-.16748,0-.231.14258-.231.29151,0,.1416.06347.28466.231.28466a.19079.19079,0,0,0,.19288-.19043h.18115a.3575.3575,0,0,1-.374.34717.446.446,0,0,1,0-.89013.34554.34554,0,0,1,.3667.30615Z"/><path class="cls-7" d="M83.8917,20.36018h.187v.69239h.41406v.15722H83.8917Z"/><path class="cls-7" d="M79.97907,20.36018h.187v.84961h-.187Z"/><path class="cls-8" d="M62.017,2.63876H.30212A.30211.30211,0,0,0,0,2.94089V40.9191a.30215.30215,0,0,0,.30212.30218H62.017a.30215.30215,0,0,0,.30212-.30218V2.94089A.30211.30211,0,0,0,62.017,2.63876ZM4.23657,25.69357a2.03522,2.03522,0,1,1,2.03522-2.03522A2.03521,2.03521,0,0,1,4.23657,25.69357ZM47.82214,38.6553a2.03522,2.03522,0,1,1,2.03528-2.03522A2.03521,2.03521,0,0,1,47.82214,38.6553Zm10.18512-28.816A2.03522,2.03522,0,1,1,60.04248,7.804,2.03521,2.03521,0,0,1,58.00726,9.83926Z"/><path class="cls-9" d="M47.82214,33.10538a3.51471,3.51471,0,1,0,3.51471,3.5147A3.51473,3.51473,0,0,0,47.82214,33.10538Zm0,5.54992a2.03522,2.03522,0,1,1,2.03528-2.03522A2.03521,2.03521,0,0,1,47.82214,38.6553Z"/><path class="cls-9" d="M4.23657,20.14364a3.51471,3.51471,0,1,0,3.51471,3.51471A3.51474,3.51474,0,0,0,4.23657,20.14364Zm0,5.54993a2.03522,2.03522,0,1,1,2.03522-2.03522A2.03521,2.03521,0,0,1,4.23657,25.69357Z"/><path class="cls-9" d="M58.00726,4.28934A3.51471,3.51471,0,1,0,61.522,7.804,3.51473,3.51473,0,0,0,58.00726,4.28934Zm0,5.54992A2.03522,2.03522,0,1,1,60.04248,7.804,2.03521,2.03521,0,0,1,58.00726,9.83926Z"/><g id="Layer_2-2" data-name="Layer 2-2" class="cls-10"><g id="Layer_1-2-2" data-name="Layer 1-2"><path class="cls-7" d="M51.16684,18.47579a1.84621,1.84621,0,0,1-.12376.6918,1.58976,1.58976,0,0,1-.34.5279,1.46485,1.46485,0,0,1-.5017.33446,1.59412,1.59412,0,0,1-.61319.11651,1.71806,1.71806,0,0,1-.87185-.21239,1.33227,1.33227,0,0,1-.55744-.69123h-.01617a.95486.95486,0,0,1-.19566.38352,1.06746,1.06746,0,0,1-.31162.24807,1.46484,1.46484,0,0,1-.39522.13992,3.42024,3.42024,0,0,1-.432.05574c-.0903.00558-.19733.01059-.32.01617s-.24751.01505-.37516.02843a2.43562,2.43562,0,0,0-.364.063.85924.85924,0,0,0-.29043.13267V19.06056a2.23921,2.23921,0,0,1,.64775-.12822q.37627-.02341.71911-.07135a1.13326,1.13326,0,0,0,.65555-.27371.93428.93428,0,0,0,.20793-.67952V16.65462H45.45915V15.39925h5.70769Zm-2.58377-.44595a.951.951,0,0,0,.19177.64719.79881.79881,0,0,0,.62378.21629.7626.7626,0,0,0,.60371-.21629.96208.96208,0,0,0,.18953-.64719V16.65462H48.58475Z"/><path class="cls-7" d="M51.16684,23.87633l-5.70769,2.13391V24.70637l1.27265-.43314V22.14156l-1.271-.446V20.43076l5.706,2.15843Zm-3.50132.0747,2.09488-.72468v-.01226l-2.09488-.74364Z"/><polygon class="cls-7" points="51.169 27.536 48.803 27.536 51.169 29.766 51.169 31.333 48.914 29.103 45.461 31.549 45.461 29.975 48.027 28.256 47.3 27.536 45.461 27.536 45.461 26.281 51.169 26.281 51.169 27.536"/><path class="cls-7" d="M50.60605,33.04966a.81833.81833,0,1,1,.79546-.84057l0,.0005v.02453a.79938.79938,0,0,1-.78346.815l-.00031,0h-.0117m0-1.43208a.61708.61708,0,0,0-.63605.59754v.024a.60928.60928,0,0,0,.6115.60706h.0212a.61362.61362,0,1,0,.04571-1.22638h-.04069m-.41753.49055v-.18452h.79436a1.60544,1.60544,0,0,1,.024.30548.49674.49674,0,0,1-.05574.27873.223.223,0,0,1-.17616.07525.204.204,0,0,1-.18451-.16723h-.00948a.23411.23411,0,0,1-.19455.14493.62047.62047,0,0,0-.199.05575v-.199a.68556.68556,0,0,1,.19454-.063c.08752-.0145.126-.063.126-.16724v-.08752Zm.45209.00446v.08752c0,.102.03456.18451.11706.18451.07192,0,.121-.05574.121-.16723a.44952.44952,0,0,0-.01-.102Z"/><path class="cls-7" d="M49.95049,9.17927a2.0474,2.0474,0,0,1-.136.79882L49.81,9.98533v.00614c-.00334.00724-.08138.17448-.41306.14159a.45378.45378,0,0,1-.43649-.47041l0-.00008V9.6124c-.01227-.56358-.02007-.941-.02007-1.063,0-.102-.00558-.24806-.01282-.37293.17448-.00334.48832-.01059.60092-.01505A.948.948,0,0,0,49.79,8.11566a5.20128,5.20128,0,0,1,.16.92926c.00279.04571.00391.09031.00391.13435"/><path class="cls-7" d="M51.09325,9.35152c0,.06522,0,.12319-.00445.17448a1.21519,1.21519,0,0,0-.00335.12208c0,.16723-.02731.38408-.1572.45265a.54349.54349,0,0,1-.39746.05574.49664.49664,0,0,1-.25308-.12765.92426.92426,0,0,1-.08362-.09087,2.739,2.739,0,0,0,.09644-.73973,2.12471,2.12471,0,0,0-.00725-.21573,5.21556,5.21556,0,0,0-.199-1.04967,1.07436,1.07436,0,0,0,.20235-.41028,2.87533,2.87533,0,0,1,.63883.93985,2.52636,2.52636,0,0,1,.16724.88913"/><path class="cls-7" d="M52.36144,9.16031c0,.03958,0,.07972-.00278.11985-.03457.6918-.12877.78489-.4861.791a.6132.6132,0,0,1-.44094-.257c.00669-.07024.019-.21685.019-.39412A2.71316,2.71316,0,0,0,51.343,8.609a3.0604,3.0604,0,0,0-.63939-1.135c-.16723-.1834-.36345-.364-.43983-.43258a.66255.66255,0,0,0-.12542-.21071q-.02651-.02922-.05575-.05575a.747.747,0,0,0,.23915-.54351,3.48743,3.48743,0,0,1,1.2654.902,3.33962,3.33962,0,0,1,.77652,2.03133h0"/><path class="cls-7" d="M48.67227,9.977a5.145,5.145,0,0,1-.92927.1611,2.1968,2.1968,0,0,1-.93093-.131l-.00725-.00446h-.00669c-.00557-.00278-.14549-.06745-.14549-.32777a.61373.61373,0,0,1,.00446-.08474.45432.45432,0,0,1,.47148-.43648h.12666c.26813-.00557.82669-.01784.98333-.01784.10146,0,.24751-.00668.37293-.01337.00836.38185.01282.5357.01505.59368a.94327.94327,0,0,0,.04571.26088"/><path class="cls-7" d="M49.26762,10.477a2.90382,2.90382,0,0,1-.9393.64051,2.5703,2.5703,0,0,1-1.06361.16h-.12152c-.16723,0-.38408-.02731-.45264-.15775a.55743.55743,0,0,1-.07024-.26368.6728.6728,0,0,1,.015-.13322.49546.49546,0,0,1,.12877-.25364.84068.84068,0,0,1,.08975-.08306,2.87671,2.87671,0,0,0,.956.08584,5.22159,5.22159,0,0,0,1.04576-.19789.97829.97829,0,0,0,.27371.15776.89244.89244,0,0,0,.13713.044"/><path class="cls-7" d="M50.56368,10.50933a3.48281,3.48281,0,0,1-.90195,1.26652,3.27388,3.27388,0,0,1-2.14951.77318c-.69179-.034-.78544-.12989-.79046-.49167a.60485.60485,0,0,1,.25587-.43481,3.40025,3.40025,0,0,0,1.20966-.08919,3.05384,3.05384,0,0,0,1.13552-.63883c.189-.17448.37293-.37349.432-.43983a.69358.69358,0,0,0,.21127-.12542q.0293-.02789.05574-.05853a.89833.89833,0,0,0,.23636.17169.8886.8886,0,0,0,.306.06857"/><path class="cls-7" d="M47.66663,8.808c-.1834.0039-.48943.01115-.59981.01561a.943.943,0,0,0-.26144.04571,5.1446,5.1446,0,0,1-.16054-.92927c0-.04348-.00335-.0864-.00335-.12932a2.04967,2.04967,0,0,1,.13658-.80161l.00557-.00669V6.99631c.00279-.00725.08473-.17448.41251-.14271a.45432.45432,0,0,1,.4376.47045v.0686c.00613.21462.02174.86627.02174,1.04577,0,.10592.00724.2581.01282.37237"/><path class="cls-7" d="M46.5077,9.055a.99575.99575,0,0,0-.15887.2737.95732.95732,0,0,0-.04348.13714,2.90218,2.90218,0,0,1-.63883-.9393,2.543,2.543,0,0,1-.16724-.89192c0-.0641,0-.12152.00446-.17448,0-.044.00279-.08361.00279-.12041,0-.16723.02731-.38352.15776-.45208a.54569.54569,0,0,1,.39746-.05575.5018.5018,0,0,1,.25308.12821.85351.85351,0,0,1,.08361.09031,2.78723,2.78723,0,0,0-.097.73973,1.87489,1.87489,0,0,0,.00836.21629A5.21608,5.21608,0,0,0,46.50993,9.055"/><path class="cls-7" d="M46.51328,10.21835a.74751.74751,0,0,0-.2397.54239,3.47512,3.47512,0,0,1-1.26708-.9025,3.34086,3.34086,0,0,1-.776-2.03357v-.116c.03457-.69123.12933-.78488.48666-.791a.61322.61322,0,0,1,.44094.257c-.00725.06968-.01952.21685-.01952.39412a2.74908,2.74908,0,0,0,.10759.81331,3.066,3.066,0,0,0,.63939,1.13552c.16724.18284.364.364.44038.43257a.64342.64342,0,0,0,.12487.21016.754.754,0,0,0,.06076.05575"/><path class="cls-7" d="M49.93321,7.31182a.53691.53691,0,0,1-.00446.08473.45433.45433,0,0,1-.471.437l-.00008,0h-.04794c-.58086.01282-.94766.01951-1.0625.01951s-.26869.00781-.37293.01282c-.00836-.39021-.01282-.54128-.01561-.60037a.92243.92243,0,0,0-.04571-.26088,5.15065,5.15065,0,0,1,.92982-.16054,2.174,2.174,0,0,1,.93038.13267l.00613.0039H49.786c.00558,0,.14661.06745.14661.32778"/><path class="cls-7" d="M49.96721,6.12669a.67429.67429,0,0,1-.0156.13379.5017.5017,0,0,1-.12822.25308.9111.9111,0,0,1-.0903.08362,2.86408,2.86408,0,0,0-.956-.08864,5.15866,5.15866,0,0,0-1.04856.19845.999.999,0,0,0-.27315-.15831.91322.91322,0,0,0-.13713-.044,2.89862,2.89862,0,0,1,.93874-.63883,2.55863,2.55863,0,0,1,1.06472-.1611h.12264c.16724,0,.38353.02787.45265.15831a.56417.56417,0,0,1,.07024.26312"/><path class="cls-7" d="M49.863,4.92428a.61321.61321,0,0,1-.257.43537,3.36143,3.36143,0,0,0-1.2091.08863,3.056,3.056,0,0,0-1.135.63883c-.17894.16278-.354.35287-.43258.44039a.67825.67825,0,0,0-.21071.12486.63079.63079,0,0,0-.05575.05575.90623.90623,0,0,0-.23636-.17392.88165.88165,0,0,0-.30659-.06857,3.47617,3.47617,0,0,1,.90362-1.257,3.27836,3.27836,0,0,1,2.15007-.77318c.69346.034.78934.12877.78934.48442v.00725"/></g></g><g class="cls-10"><g class="cls-11"><polygon class="cls-7" points="14.165 13.606 13.403 13.606 13.403 12.891 14.165 12.891 14.165 10.776 13.403 10.776 13.403 10.062 14.165 10.062 14.165 8.161 13.403 8.161 13.403 7.408 9.407 7.408 9.407 16.223 13.403 16.223 13.403 15.552 14.165 15.552 14.165 13.606"/><g class="cls-11"><path class="cls-7" d="M7.5963,3.92645v.38241l-1.645.39021v.00781l1.645.43425v.38519l-1.645.422v.00613l1.645.40081v.3824L5.44512,6.144V5.76156l1.645-.4309V5.32007l-1.645-.43983V4.49Z"/><path class="cls-7" d="M7.5963,6.94279v.344h-.325v-.344Zm-.59313,0v.344H5.44233v-.344Z"/><path class="cls-7" d="M5.9457,7.91944c-.20235.02118-.27148.16723-.27148.35231,0,.13267.02732.35565.20515.34673s.20179-.25921.25865-.50951.14494-.5017.461-.5017c.3406,0,.446.36736.446.65054,0,.31942-.12932.61319-.47884.6511V8.55326c.16723-.03345.20792-.16278.20792-.31663,0-.09923-.024-.28319-.16-.28319-.16723,0-.19566.25308-.24973.50616s-.14772.50171-.45488.50171c-.3707,0-.50616-.37349-.50616-.69625,0-.39468.17448-.68065.5424-.68956Z"/><path class="cls-7" d="M7.5963,9.25118V10.2635c0,.40972-.13267.68677-.53292.68677a.46767.46767,0,0,1-.44931-.2921.523.523,0,0,1-.54518.39467c-.437,0-.62378-.3707-.62378-.75924V9.25118Zm-.87073.47327v.47885c0,.16723.07581.28931.25642.28931.2018,0,.247-.15664.247-.32555V9.72389Zm-.91254,0v.50616c0,.1834.0602.349.28318.349s.30715-.13546.30715-.34V9.72389Z"/><path class="cls-7" d="M7.5963,11.37226v.47327H5.84313v1.04856h-.398V11.37226Z"/><path class="cls-7" d="M7.64759,14.12326A1.04606,1.04606,0,0,1,6.51207,15.1824a1.06071,1.06071,0,1,1,0-2.11829A1.04761,1.04761,0,0,1,7.64759,14.12326Zm-1.85574,0c0,.42477.36178.58476.72022.58476.37627,0,.73806-.16.73806-.58476s-.36179-.58421-.73806-.58421c-.35844,0-.72134.15943-.72134.58421Z"/><path class="cls-7" d="M6.87329,16.9378a.46994.46994,0,0,0,.37684-.47048c0-.42478-.36179-.58421-.73806-.58421-.35844,0-.72022.15943-.72022.58421a.4827.4827,0,0,0,.48219.48832v.461a.90565.90565,0,0,1-.88021-.94766,1.04092,1.04092,0,0,1,1.11824-1.05915A1.04513,1.04513,0,0,1,7.64759,16.469a.87584.87584,0,0,1-.7743.92815Z"/><path class="cls-7" d="M7.5963,17.73606v.47328H6.70438L7.5963,19.05v.59034l-.84955-.84063-1.30163.922V19.128l.96716-.64775L6.138,18.20934H5.44511v-.47327Z"/></g></g></g><path class="cls-12" d="M36.94918,32.05462,21.93437,39.35717V24.75208Zm.81721,0L21.57927,24.174V39.92632Z"/><rect class="cls-12" x="22.89734" y="33.1096" width="10.36794" height="0.35565" transform="translate(-14.7213 41.3217) rotate(-60.48)"/><rect class="cls-12" x="21.36224" y="33.24267" width="11.47001" height="0.35565" transform="translate(-15.33628 40.53288) rotate(-60.48)"/><path class="cls-12" d="M29.975,29.967l.16-.31106A17.19179,17.19179,0,0,1,31.91154,30.695c.684.48888,1.25258,3.12783,1.32393,3.42049l-.35565.08027c-.23078-1.08367-.74586-2.90541-1.17064-3.20754-.6221-.446-1.69686-1.01232-1.70578-1.02124"/><path class="cls-12" d="M27.292,34.50683l.26646-.15107a1.36687,1.36687,0,0,0,1.21691.66894,4.71359,4.71359,0,0,1,1.64391.26646l-.116.33781a4.72242,4.72242,0,0,0-1.50121-.24862,1.688,1.688,0,0,1-1.55471-.844"/><path class="cls-12" d="M25.38161,30.68665V30.5445c.08864-.74642,2.43437-1.6885,2.46113-1.69742a1.60043,1.60043,0,0,1,1.63443.46212l-.25754.24862s-.61319-.63047-1.24366-.37293c-1.03072.40861-2.20358,1.09259-2.23926,1.40365,0,.16723,0,.26646.05574.29322s.18675,0,.35565-.15107a4.06937,4.06937,0,0,1,1.77324-.7637,3.19694,3.19694,0,0,1,.89191.39969l-.18674.30213a2.91559,2.91559,0,0,0-.72858-.34673,3.94776,3.94776,0,0,0-1.53744.69291c-.39021.30213-.63939.24026-.76426.17782a.56022.56022,0,0,1-.2397-.50616"/><path class="cls-12" d="M24.67087,32.08138a.43985.43985,0,0,1,.05574-.2135c.06188-.13323.23079-.27538.62156-.23079a5.98307,5.98307,0,0,1,2.12721,1.18179l-.23078.27538a5.45961,5.45961,0,0,0-1.94326-1.10207c-.16,0-.24918,0-.267.04459a1.17126,1.17126,0,0,0,.30213.64887,10.36808,10.36808,0,0,0,1.53688,1.15447l-.19511.30214A11.64839,11.64839,0,0,1,25.07,32.92535a1.47562,1.47562,0,0,1-.39969-.844"/><path class="cls-12" d="M25.95913,31.97491a3.84633,3.84633,0,0,1,.59535-1.475l.30213.18675a2.809,2.809,0,0,0-.53347,1.34121.2954.2954,0,0,0,.25809,0c.21295-.06187.43481-.33781.62156-.74642a.97834.97834,0,0,1,.55131-.58643.89191.89191,0,0,1,.77318.19567l-.18674.30213a.64945.64945,0,0,0-.4794-.15107c-.12487,0-.23135.16724-.33782.39021a1.57311,1.57311,0,0,1-.85289.96885.63944.63944,0,0,1-.55076-.07136.36291.36291,0,0,1-.16-.23078v-.12431"/><rect class="cls-12" x="35.77631" y="31.37064" width="0.35565" height="1.43933"/><rect class="cls-12" x="34.89666" y="30.94419" width="0.35565" height="2.22087"/><rect class="cls-12" x="34.02593" y="30.51775" width="0.35565" height="3.0654"/><rect class="cls-12" x="33.14628" y="30.0913" width="0.35565" height="3.91829"/><rect class="cls-12" x="32.27555" y="29.73565" width="0.35565" height="2.3279"/><rect class="cls-12" x="31.3959" y="29.23841" width="0.35565" height="1.45716"/><rect class="cls-12" x="30.52517" y="28.89167" width="0.35565" height="1.24366"/><rect class="cls-12" x="28.76642" y="27.95907" width="0.35565" height="1.16395"/><rect class="cls-12" x="28.76642" y="35.20865" width="0.35565" height="0.93261"/><rect class="cls-12" x="27.89569" y="27.53262" width="0.35565" height="1.48392"/><rect class="cls-12" x="27.89569" y="35.05759" width="0.35565" height="1.48392"/><rect class="cls-12" x="27.01605" y="27.18589" width="0.35565" height="2.15007"/><rect class="cls-12" x="27.01605" y="34.86192" width="0.35565" height="2.13223"/><rect class="cls-12" x="26.14531" y="26.67973" width="0.35565" height="3.14511"/><rect class="cls-12" x="26.14531" y="33.68905" width="0.35565" height="1.12827"/><rect class="cls-13" x="26.14531" y="36.40772" width="0.35565" height="0.95937"/><rect class="cls-12" x="25.26566" y="26.25328" width="0.35565" height="5.55272"/><rect class="cls-12" x="25.26566" y="33.03183" width="0.35565" height="3.37589"/><rect class="cls-12" x="24.39493" y="25.96899" width="0.35565" height="11.88754"/><rect class="cls-12" x="23.51584" y="25.40039" width="0.35565" height="13.29119"/><rect class="cls-12" x="22.63619" y="24.93827" width="0.35565" height="14.17084"/><g id="Layer_2-2-2" data-name="Layer 2-2-2" class="cls-10"><g id="Layer_1-2-2-2" data-name="Layer 1-2-2"><path class="cls-14" d="M5.1151,30.88677a.52567.52567,0,0,1-.46435.57808H4.59836a.4121.4121,0,0,1-.1048,0,.52511.52511,0,1,1,.62155-.56916m-.63939.0524v.07024a.12264.12264,0,0,0,.17337,0h0a.13044.13044,0,0,0,.05574-.09644h0A.10535.10535,0,0,0,4.6,30.81654H4.59055a.12207.12207,0,0,0-.12207.12208v.00055"/><path class="cls-14" d="M16.18877,27.80577l.2542.25364-.92815.87519-.534.51675h0l.534-.0524v-.48163h.26256a.63047.63047,0,0,1,1.18178.43759.59314.59314,0,0,1-.21852.28876,3.35688,3.35688,0,0,1,.422.75311,7.38,7.38,0,0,1,.36791,1.567h.35677v2.44217h-.28876a8.57279,8.57279,0,0,1-.16723,1.26094h.20124v1.04187h-.49a3.26272,3.26272,0,0,1-.62155.95379.209.209,0,0,1-.175.06131h-.14884v.58644h-.68287v-.64775l-1.13886-.1048,1.8117,1.75094-.25364.25363-2.12721-2.12721c-1.44434-.13155-2.89872-.27147-4.37707-.40247-.72468-.07024-1.46218-.13156-2.19745-.2018l-1.90814,1.8301-.2542-.24528L6.759,36.78734,4.23769,36.5599a.21907.21907,0,0,1-.20124-.21908H2.93326v-.87519H4.03645v-3.0994a1.53188,1.53188,0,1,1,.90473-2.92714,1.70078,1.70078,0,0,1,1.04745.94041h.34171L4.85088,28.9608l.26255-.27873,1.698,1.6166c.87574-.0786,1.75094-.16724,2.62668-.24528,1.27767-.11149,2.57317-.23636,3.8514-.35844V28.5756h1.69129v.446Zm.45543,1.35682a.2737.2737,0,0,0-.44595-.21907v.42031h.14883a.22631.22631,0,0,1,.16724.06132.27091.27091,0,0,0,.13155-.24528m.8752,4.79738V32.412h-.32388v1.59318Zm-.25364,2.29334v-.21852h-.68455v.24472Zm-.97163.97162a3.14535,3.14535,0,0,0,.36736-.56859h-.45488v.58811h.08752M9.495,36.64017c1.25147.11149,2.51241.22744,3.7728.35008l-3.066-2.93272-2.46,2.41485c.56915.08752,1.17064.08752,1.75094.16724M3.207,35.82519v.2018h.534v-.2018Zm1.34846-3.35248H4.45007v3.702c.87574.08752,1.83957.16723,2.75768.25363l2.73149-2.62612-3.2042-3.066-.64775.053v.14884a1.53243,1.53243,0,0,1-1.53186,1.53186h0m0-2.33737a.80551.80551,0,0,0-.10536,1.6021h.10536a.7966.7966,0,0,0,.79659-.79659h0V30.8589a.80551.80551,0,0,0-.79659-.72468m4.9373.35008-2.28554.21016,2.99405,2.86248L12.03078,31.806v-.42868h.45543l1.26931-1.21691h-.45544c-1.2693.12264-2.54753.23636-3.80791.359m2.9238,1.45326v2.13558h.315V31.77088H12.5821Zm2.53861-1.97v.184h-.68287l-1.27822,1.18179H13.105v3.14288H12.01907V32.29655l-1.5759,1.50511,3.42607,3.23709,1.64558.15776V29.91515l-.534.0524m1.21691-.11149v5.82809h.78042a8.655,8.655,0,0,0,.175-1.26038h-.34171V32.05128h.27147a7.24348,7.24348,0,0,0-.33446-1.41814,2.994,2.994,0,0,0-.4638-.77039h-.08752m-1.6021-.87519h-.87519v.65611c.22744,0,.45488-.04348.67395-.06132l.21908-.2096Z"/></g></g><circle class="cls-15" cx="32.2748" cy="11.61137" r="2.48677"/><rect class="cls-16" x="31.21361" y="10.77356" width="1.39027" height="1.39027" rx="0.36903"/><circle class="cls-15" cx="25.62" cy="11.61099" r="2.48677"/><rect class="cls-16" x="24.55938" y="10.77356" width="1.39027" height="1.39027" rx="0.36903"/><circle class="cls-15" cx="18.96576" cy="11.60999" r="2.48677"/><rect class="cls-16" x="17.90459" y="10.77356" width="1.39027" height="1.39027" rx="0.36903"/><path class="cls-12" d="M31.09265,17.48856a.898.898,0,0,1-.36624-.733,1.40118,1.40118,0,0,1,2.79671,0A1.06852,1.06852,0,0,1,32.581,17.881v-.56079a.5413.5413,0,0,0,.446-.56469c0-.52679-.446-.72468-.91589-.72468-.44595,0-.89191.19845-.89191.72468a.5748.5748,0,0,0,.57584.636v-.5881h.4376V17.925H30.7894V17.551Z"/><path class="cls-12" d="M33.45956,18.39719v.58309l-1.79107,1.11489V20.103h1.79107v.54685H30.79v-.58531l1.78717-1.11044v-.00724H30.79v-.54965Z"/><path class="cls-12" d="M33.45956,21.1677v1.15447a1.171,1.171,0,0,1-1.32,1.21189A1.18678,1.18678,0,0,1,30.79,22.32217V21.1677Zm-2.174.587v.52345c0,.34059.2096.66559.80049.66559.5385,0,.88244-.19065.88244-.76984v-.4192Z"/><path class="cls-12" d="M24.75058,16.80346V16.139l2.66906-.86794V15.877l-1.87748.5948V16.479l1.87748.60316v.60594Z"/><path class="cls-12" d="M27.41964,17.915v.587H24.74947v-.587Z"/><path class="cls-12" d="M27.41964,19.01763v.58365l-1.79108,1.11489v.00725h1.79108v.54964H24.74947v-.58755l1.78773-1.11043v-.00781H24.74947v-.54964Z"/><path class="cls-12" d="M25.895,22.854v.74419h-.40024V22.854h-.74419v-.39969h.74418V21.709H25.895v.74419h.74419v.39969Z"/><path class="cls-12" d="M17.67325,16.80346V16.139l2.66682-.86794V15.877l-1.87692.5948V16.479l1.87692.60316v.60594Z"/><path class="cls-12" d="M20.34007,17.915v.587H17.67046v-.587Z"/><path class="cls-12" d="M20.34007,19.01763v.58365L18.549,20.71617v.00725h1.79107v.54964H17.67046v-.58755l1.78717-1.11043v-.00781H17.67046v-.54964Z"/><path class="cls-12" d="M18.92193,21.72849V22.854h-.456V21.72849Z"/><path class="cls-17" d="M59.57145,39.14924v.223a.37125.37125,0,0,1-.37126.37125H55.26462a.37126.37126,0,0,1-.37126-.37125v-.223a.37127.37127,0,0,1,.37126-.37126h3.93557a.37126.37126,0,0,1,.37126.37126"/><path class="cls-17" d="M59.57145,15.18965v.223a.37126.37126,0,0,1-.37126.37126H55.26462a.37126.37126,0,0,1-.37126-.37126h0v-.223a.37126.37126,0,0,1,.37126-.37126h3.93557a.37126.37126,0,0,1,.37126.37126"/><path class="cls-18" d="M56.00658,14.55026h-.4008c-.21406,0-.38742.24472-.38742.5463v.68733a.41408.41408,0,0,0,.24527.41139V38.45187c-.14326.08027-.24527.09533-.24527.32611v.68343c0,.30157.17336.54629.38742.54629h.4008c.17448,0,.32054-.16723.369-.39021h1.54747c.0485.223.19455.39021.36959.39021h.39969c.21406,0,.38742-.24472.38742-.54629v-.679c0-.23859-.11149-.24639-.26032-.32109V16.20476a.41816.41816,0,0,0,.26311-.42087v-.68733c0-.30158-.17336-.5463-.38742-.5463H58.2949a.4132.4132,0,0,0-.35844.34H56.36669a.41154.41154,0,0,0-.35788-.34"/><path class="cls-19" d="M58.46938,17.30516V37.24c0,.15385-.08863.27872-.19789.27872h-2.1707c-.11149,0-.19845-.12487-.19845-.27872V17.30516c0-.15441.08863-.27872.19845-.27872H58.2726c.11149,0,.1979.12486.1979.27872"/><path class="cls-17" d="M54.08562,36.9083v.427a.11429.11429,0,0,0,.11149.11149h.37795a.1115.1115,0,0,0,.11149-.10815H55.7011v-.43927H54.691a.11149.11149,0,0,0-.11149-.10814h-.378a.11428.11428,0,0,0-.11149.11149"/><path class="cls-20" d="M56.07236,36.96015v.56748a.09086.09086,0,0,1-.09086.09086h-.27872a.09086.09086,0,0,1-.09087-.09086h0v-.56748a.09086.09086,0,0,1,.09086-.09086h.27873a.09086.09086,0,0,1,.09086.09086h0"/><path class="cls-17" d="M60.44608,36.9083v.427a.11428.11428,0,0,1-.11149.11149h-.37794a.1115.1115,0,0,1-.11149-.10815h-1.0101v-.43927H59.8407a.11149.11149,0,0,1,.11149-.10814h.37962a.11428.11428,0,0,1,.11149.11149"/><path class="cls-20" d="M58.34284,36.96015v.56748a.09086.09086,0,0,0,.09086.09086h.27873a.09086.09086,0,0,0,.09086-.09086h0v-.56748a.09086.09086,0,0,0-.09086-.09086H58.4337a.09086.09086,0,0,0-.09086.09086h0"/><path class="cls-17" d="M54.08562,35.86811v.427a.11429.11429,0,0,0,.11149.11428h.37795a.11149.11149,0,0,0,.11149-.10815H55.7011v-.4387H54.691a.11148.11148,0,0,0-.11149-.1087h-.378a.11427.11427,0,0,0-.11149.11483"/><path class="cls-20" d="M56.07236,35.92051V36.488a.09087.09087,0,0,1-.09086.09087h-.27872a.09087.09087,0,0,1-.09087-.09087h0v-.56748a.09086.09086,0,0,1,.09086-.09086h.27873a.09086.09086,0,0,1,.09086.09086h0"/><path class="cls-17" d="M60.44608,35.86811v.427a.11427.11427,0,0,1-.11149.11428h-.37794a.11149.11149,0,0,1-.11149-.10815h-1.0101v-.4387H59.8407a.11148.11148,0,0,1,.11149-.1087h.37962a.11427.11427,0,0,1,.11149.11483"/><path class="cls-20" d="M58.34284,35.92051V36.488a.09087.09087,0,0,0,.09086.09087h.27873a.09087.09087,0,0,0,.09086-.09087h0v-.56748a.09086.09086,0,0,0-.09086-.09086H58.4337a.09086.09086,0,0,0-.09086.09086h0"/><path class="cls-17" d="M54.08562,34.7666v.427a.11427.11427,0,0,0,.11149.11483h.37795a.11148.11148,0,0,0,.11149-.11149H55.7011v-.43926H54.691a.11149.11149,0,0,0-.11149-.10815h-.378a.11429.11429,0,0,0-.11149.11149"/><path class="cls-20" d="M56.07236,34.819v.56692a.09086.09086,0,0,1-.09086.09086h-.27872a.09086.09086,0,0,1-.09087-.09086h0V34.819a.09087.09087,0,0,1,.09086-.09087h.27873a.09087.09087,0,0,1,.09086.09087h0"/><path class="cls-17" d="M60.44608,34.7666v.427a.11426.11426,0,0,1-.11149.11483h-.37794a.11148.11148,0,0,1-.11149-.11149h-1.0101v-.43926H59.8407a.11149.11149,0,0,1,.11149-.10815h.37962a.11429.11429,0,0,1,.11149.11149"/><path class="cls-20" d="M58.34284,34.819v.56692a.09086.09086,0,0,0,.09086.09086h.27873a.09086.09086,0,0,0,.09086-.09086h0V34.819a.09087.09087,0,0,0-.09086-.09087H58.4337a.09087.09087,0,0,0-.09086.09087h0"/><path class="cls-17" d="M54.08562,33.68961v.427a.11428.11428,0,0,0,.11149.11484h.37795a.1115.1115,0,0,0,.11149-.10815H55.7011v-.43982H54.691a.11149.11149,0,0,0-.11149-.10815h-.378a.11429.11429,0,0,0-.11149.11149"/><path class="cls-20" d="M56.07236,33.742v.56525a.0903.0903,0,0,1-.0903.09031h-.27928a.09031.09031,0,0,1-.09087-.08975V33.742a.09086.09086,0,0,1,.09086-.09086h.27873a.09086.09086,0,0,1,.09086.09086h0"/><path class="cls-17" d="M60.44608,33.68961v.427a.11428.11428,0,0,1-.11149.11484h-.37794a.1115.1115,0,0,1-.11149-.10815h-1.0101v-.43982H59.8407a.11149.11149,0,0,1,.11149-.10815h.37962a.11429.11429,0,0,1,.11149.11149"/><path class="cls-20" d="M58.3473,33.742v.56525a.09031.09031,0,0,0,.09031.09031h.27928a.09031.09031,0,0,0,.0864-.09031V33.742a.09086.09086,0,0,0-.09086-.09086H58.4337a.09086.09086,0,0,0-.09086.09086h0"/><path class="cls-17" d="M54.08562,32.6405v.42756a.11428.11428,0,0,0,.11149.11427h.37795a.11149.11149,0,0,0,.11149-.10814H55.7011v-.43927H54.691a.11149.11149,0,0,0-.11149-.10814h-.378a.11429.11429,0,0,0-.11149.11428"/><path class="cls-20" d="M56.07236,32.69067v.56748a.09032.09032,0,0,1-.0903.09031l-.00056,0h-.27872a.09031.09031,0,0,1-.09087-.08974v-.568a.09086.09086,0,0,1,.09086-.09086h.27873a.09086.09086,0,0,1,.09086.09086h0"/><path class="cls-17" d="M60.44608,32.6405v.42756a.11426.11426,0,0,1-.11149.11427h-.37794a.11149.11149,0,0,1-.11149-.10814h-1.0101v-.43927H59.8407a.11149.11149,0,0,1,.11149-.10814h.37962a.11428.11428,0,0,1,.11149.11428"/><path class="cls-20" d="M58.34284,32.69067v.56748a.09032.09032,0,0,0,.0903.09031l.00056,0h.27873a.0903.0903,0,0,0,.09086-.08974v-.568a.09086.09086,0,0,0-.09086-.09086H58.4337a.09086.09086,0,0,0-.09086.09086h0"/><path class="cls-17" d="M54.08562,31.60086v.427a.11428.11428,0,0,0,.11149.11484h.37795a.11149.11149,0,0,0,.11149-.1087H55.7011v-.43927H54.691a.1115.1115,0,0,0-.11149-.10815h-.378a.11429.11429,0,0,0-.11149.11428"/><path class="cls-20" d="M56.07236,31.65326v.56692a.09086.09086,0,0,1-.09086.09087h-.27872a.09087.09087,0,0,1-.09087-.09087h0v-.56692a.09086.09086,0,0,1,.09086-.09086h.27873a.09086.09086,0,0,1,.09086.09086h0"/><path class="cls-17" d="M60.44608,31.60086v.427a.11428.11428,0,0,1-.11149.11484h-.37794a.11148.11148,0,0,1-.11149-.1087h-1.0101v-.43927H59.8407a.1115.1115,0,0,1,.11149-.10815h.37962a.11429.11429,0,0,1,.11149.11428"/><path class="cls-20" d="M58.34284,31.65326v.56692a.09086.09086,0,0,0,.09086.09087h.27873a.09086.09086,0,0,0,.09086-.09087h0v-.56692a.09086.09086,0,0,0-.09086-.09086H58.4337a.09086.09086,0,0,0-.09086.09086h0"/><path class="cls-17" d="M54.08562,30.549v.427a.11428.11428,0,0,0,.11149.11149h.37795a.11149.11149,0,0,0,.11149-.10814H55.7011v-.43983H54.691a.11149.11149,0,0,0-.11149-.10814h-.378a.11428.11428,0,0,0-.11149.11483"/><path class="cls-20" d="M56.07236,30.6008v.56748a.09086.09086,0,0,1-.09086.09087h-.27872a.09087.09087,0,0,1-.09087-.09087h0V30.6008a.09086.09086,0,0,1,.09086-.09086h.27873a.09086.09086,0,0,1,.09086.09086h0"/><path class="cls-17" d="M60.44608,30.549v.427a.11427.11427,0,0,1-.11149.11149h-.37794a.11149.11149,0,0,1-.11149-.10814h-1.0101v-.43983H59.8407a.11149.11149,0,0,1,.11149-.10814h.37962a.11428.11428,0,0,1,.11149.11483"/><path class="cls-20" d="M58.34284,30.6008v.56748a.09086.09086,0,0,0,.09086.09087h.27873a.09086.09086,0,0,0,.09086-.09087h0V30.6008a.09086.09086,0,0,0-.09086-.09086H58.4337a.09086.09086,0,0,0-.09086.09086h0"/><path class="cls-17" d="M54.08562,29.48424v.427a.11429.11429,0,0,0,.11149.11428h.37795a.1115.1115,0,0,0,.11149-.10815H55.7011V29.4781H54.691a.11149.11149,0,0,0-.11149-.11149h-.378a.11428.11428,0,0,0-.11149.11484"/><path class="cls-20" d="M56.07236,29.53608v.56748a.09086.09086,0,0,1-.09086.09086h-.27872a.09086.09086,0,0,1-.09087-.09086h0v-.56748a.09031.09031,0,0,1,.09031-.09031h.27928a.09031.09031,0,0,1,.09086.08975v.00056"/><path class="cls-17" d="M60.44608,29.48424v.427a.11428.11428,0,0,1-.11149.11428h-.37794a.1115.1115,0,0,1-.11149-.10815h-1.0101V29.4781H59.8407a.11149.11149,0,0,1,.11149-.11149h.37962a.11428.11428,0,0,1,.11149.11484"/><path class="cls-20" d="M58.34284,29.53608v.56748a.09086.09086,0,0,0,.09086.09086h.27873a.09086.09086,0,0,0,.09086-.09086h0v-.56748a.0903.0903,0,0,0-.0903-.09031H58.4337a.09031.09031,0,0,0-.09086.08975v.00056"/><path class="cls-17" d="M54.08562,28.41952v.42477a.11428.11428,0,0,0,.11149.11484h.37795a.11149.11149,0,0,0,.11149-.11149H55.7011v-.43927H54.691a.1115.1115,0,0,0-.11149-.10815h-.378a.11429.11429,0,0,0-.11149.11149"/><path class="cls-20" d="M56.07236,28.47192v.56692a.09086.09086,0,0,1-.09086.09086h-.27872a.09086.09086,0,0,1-.09087-.09086h0v-.56692a.09087.09087,0,0,1,.09086-.09087h.27873a.09087.09087,0,0,1,.09086.09087h0"/><path class="cls-17" d="M60.44608,28.41952v.42477a.11428.11428,0,0,1-.11149.11484h-.37794a.11149.11149,0,0,1-.11149-.11149h-1.0101v-.43927H59.8407a.1115.1115,0,0,1,.11149-.10815h.37962a.11429.11429,0,0,1,.11149.11149"/><path class="cls-20" d="M58.34284,28.47192v.56692a.09086.09086,0,0,0,.09086.09086h.27873a.09086.09086,0,0,0,.09086-.09086h0v-.56692a.09087.09087,0,0,0-.09086-.09087H58.4337a.09087.09087,0,0,0-.09086.09087h0"/><path class="cls-17" d="M54.08562,27.36762v.427a.11429.11429,0,0,0,.11149.11428h.37795a.1115.1115,0,0,0,.11149-.10815H55.7011v-.43927H54.691a.11149.11149,0,0,0-.11149-.1087h-.378a.11428.11428,0,0,0-.11149.11484"/><path class="cls-20" d="M56.07236,27.41946v.56748a.09086.09086,0,0,1-.09086.09086h-.27872a.09086.09086,0,0,1-.09087-.09086h0v-.56748a.09086.09086,0,0,1,.09086-.09086h.27873a.09086.09086,0,0,1,.09086.09086h0"/><path class="cls-17" d="M60.44608,27.36762v.427a.11428.11428,0,0,1-.11149.11428h-.37794a.1115.1115,0,0,1-.11149-.10815h-1.0101v-.43927H59.8407a.11148.11148,0,0,1,.11149-.1087h.37962a.11428.11428,0,0,1,.11149.11484"/><path class="cls-20" d="M58.34284,27.41946v.56748a.09086.09086,0,0,0,.09086.09086h.27873a.09086.09086,0,0,0,.09086-.09086h0v-.56748a.09086.09086,0,0,0-.09086-.09086H58.4337a.09086.09086,0,0,0-.09086.09086h0"/><path class="cls-17" d="M54.08562,26.28v.427a.11429.11429,0,0,0,.11149.11428h.37795a.11149.11149,0,0,0,.11149-.10815H55.7011v-.43982H54.691a.1115.1115,0,0,0-.11149-.10815h-.378a.11428.11428,0,0,0-.11149.11484"/><path class="cls-20" d="M56.07236,26.33021v.56748a.09086.09086,0,0,1-.09086.09086h-.27872a.09086.09086,0,0,1-.09087-.09086h0v-.56748a.09086.09086,0,0,1,.09086-.09086h.27873a.09086.09086,0,0,1,.09086.09086h0"/><path class="cls-17" d="M60.44608,26.28v.427a.11427.11427,0,0,1-.11149.11428h-.37794a.11149.11149,0,0,1-.11149-.10815h-1.0101v-.43982H59.8407a.1115.1115,0,0,1,.11149-.10815h.37962a.11428.11428,0,0,1,.11149.11484"/><path class="cls-20" d="M58.34284,26.33021v.56748a.09086.09086,0,0,0,.09086.09086h.27873a.09086.09086,0,0,0,.09086-.09086h0v-.56748a.09086.09086,0,0,0-.09086-.09086H58.4337a.09086.09086,0,0,0-.09086.09086h0"/><path class="cls-17" d="M54.08562,25.21309v.427a.11427.11427,0,0,0,.11149.11483h.37795a.11149.11149,0,0,0,.11149-.1087H55.7011V25.207H54.691a.11149.11149,0,0,0-.11149-.10814h-.378a.11428.11428,0,0,0-.11149.11428"/><path class="cls-20" d="M56.07236,25.26493v.56915a.09086.09086,0,0,1-.09086.09087h-.27872a.09087.09087,0,0,1-.09087-.09087h0v-.56915a.09088.09088,0,0,1,.09087-.09031h.27872a.09087.09087,0,0,1,.09086.09031"/><path class="cls-17" d="M60.44608,25.21309v.427a.11426.11426,0,0,1-.11149.11483h-.37794a.11148.11148,0,0,1-.11149-.1087h-1.0101V25.207H59.8407a.11149.11149,0,0,1,.11149-.10814h.37962a.11427.11427,0,0,1,.11149.11428"/><path class="cls-20" d="M58.3473,25.26493v.56915a.09086.09086,0,0,0,.09086.09087h.27873a.09087.09087,0,0,0,.0864-.09087v-.56915a.09087.09087,0,0,0-.09086-.09031H58.4337a.09087.09087,0,0,0-.09086.09031"/><path class="cls-20" d="M55.74235,15.91823c-.15385,0-.27872-.2174-.27872-.48609s.12487-.48609.27872-.48609.27873.2174.27873.48609-.12487.48609-.27873.48609"/><path class="cls-20" d="M58.55634,15.91823c-.15385,0-.27872-.2174-.27872-.48609s.12487-.48609.27872-.48609.27872.2174.27872.48609-.12486.48609-.27872.48609"/><path class="cls-20" d="M55.74235,39.72006c-.15385,0-.27872-.218-.27872-.48665s.12487-.48609.27872-.48609.27873.218.27873.48609-.12487.48665-.27873.48665"/><path class="cls-20" d="M58.55634,39.72006c-.15385,0-.27872-.218-.27872-.48665s.12487-.48609.27872-.48609.27872.218.27872.48609-.12486.48665-.27872.48665"/><rect class="cls-1" x="54.08562" y="22.70235" width="6.36046" height="17.30536"/><rect class="cls-1" x="54.08562" y="22.70235" width="6.36046" height="17.30536"/><path class="cls-17" d="M53.96912,24.19352v.427a.11427.11427,0,0,0,.11149.11149h.38073a.11149.11149,0,0,0,.11149-.10814H55.5846V24.1846H54.57451a.1115.1115,0,0,0-.11149-.1087h-.37795a.11427.11427,0,0,0-.11149.11483"/><path class="cls-20" d="M56.07236,24.24536v.56748a.09087.09087,0,0,1-.09086.09087h-.27872a.09087.09087,0,0,1-.09087-.09087h0v-.56748a.09086.09086,0,0,1,.09086-.09086h.27873a.09086.09086,0,0,1,.09086.09086h0"/><path class="cls-17" d="M60.32958,24.19352v.427a.11428.11428,0,0,1-.11428.11149h-.37739a.11149.11149,0,0,1-.11149-.10814H58.71633V24.1846h1.00786a.11428.11428,0,0,1,.11149-.1087h.37962a.11428.11428,0,0,1,.11428.11427v.00056"/><path class="cls-20" d="M58.34284,24.24536v.56748a.09087.09087,0,0,0,.09086.09087h.27873a.09087.09087,0,0,0,.09086-.09087h0v-.56748a.09086.09086,0,0,0-.09086-.09086H58.4337a.09086.09086,0,0,0-.09086.09086h0"/><path class="cls-17" d="M53.96912,23.15332v.427a.11427.11427,0,0,0,.11149.11483h.38073a.11149.11149,0,0,0,.11149-.10814H55.5846v-.43983H54.57451a.11149.11149,0,0,0-.11149-.10814h-.37795a.11427.11427,0,0,0-.11149.11427"/><path class="cls-20" d="M56.07236,23.20572v.56581a.09086.09086,0,0,1-.09086.09087h-.27872a.09087.09087,0,0,1-.09087-.09087h0v-.56581a.09086.09086,0,0,1,.09086-.09086h.27873a.09086.09086,0,0,1,.09086.09086h0"/><path class="cls-17" d="M60.32958,23.15332v.427a.11428.11428,0,0,1-.11372.11483h-.37795a.11149.11149,0,0,1-.11149-.10814H58.71633v-.43983h1.00786a.11149.11149,0,0,1,.11149-.10814h.37962a.11428.11428,0,0,1,.11428.11427"/><path class="cls-20" d="M58.34284,23.20572v.56581a.09086.09086,0,0,0,.09086.09087h.27873a.09086.09086,0,0,0,.09086-.09087h0v-.56581a.09086.09086,0,0,0-.09086-.09086H58.4337a.09086.09086,0,0,0-.09086.09086h0"/><path class="cls-17" d="M53.96912,22.09919v.427a.11149.11149,0,0,0,.10867.11424l.00282,0h.38073a.11149.11149,0,0,0,.11149-.10814H55.5846v-.43927H54.57451a.1115.1115,0,0,0-.11149-.1087h-.37795a.11428.11428,0,0,0-.11149.11483"/><path class="cls-20" d="M56.07236,22.15494v.56748a.09086.09086,0,0,1-.09086.09086h-.27872a.09086.09086,0,0,1-.09087-.09086h0v-.56748a.09087.09087,0,0,1,.09086-.09087h.27873a.09087.09087,0,0,1,.09086.09087h0"/><path class="cls-17" d="M60.32958,22.09919v.427a.11148.11148,0,0,1-.10863.11427h-.383a.11149.11149,0,0,1-.11149-.10814H58.71633v-.43927h1.00786a.11428.11428,0,0,1,.11149-.1087h.37962a.11428.11428,0,0,1,.11428.11427v.00056"/><path class="cls-20" d="M58.34284,22.15494v.56748a.09086.09086,0,0,0,.09086.09086h.27873a.09086.09086,0,0,0,.09086-.09086h0v-.56748a.09087.09087,0,0,0-.09086-.09087H58.4337a.09087.09087,0,0,0-.09086.09087h0"/><path class="cls-17" d="M53.96912,21.0367v.427a.11428.11428,0,0,0,.11149.11483h.38073a.11148.11148,0,0,0,.11149-.11149H55.5846v-.43927H54.57451a.11149.11149,0,0,0-.11149-.10814h-.37795a.11427.11427,0,0,0-.11149.11427"/><path class="cls-20" d="M56.07236,21.0891V21.656a.09086.09086,0,0,1-.09086.09086h-.27872a.09086.09086,0,0,1-.09087-.09086h0V21.0891a.09086.09086,0,0,1,.09086-.09086h.27873a.09086.09086,0,0,1,.09086.09086h0"/><path class="cls-17" d="M60.32958,21.0367v.427a.11428.11428,0,0,1-.11372.11483h-.37795a.11428.11428,0,0,1-.11149-.11149H58.71633v-.43927h1.00786a.11149.11149,0,0,1,.11149-.10814h.37962a.11428.11428,0,0,1,.11428.11427"/><path class="cls-20" d="M58.34284,21.0891V21.656a.09086.09086,0,0,0,.09086.09086h.27873a.09086.09086,0,0,0,.09086-.09086h0V21.0891a.09086.09086,0,0,0-.09086-.09086H58.4337a.09086.09086,0,0,0-.09086.09086h0"/><path class="cls-17" d="M53.96912,19.972v.427a.11428.11428,0,0,0,.11149.11484h.38073a.1115.1115,0,0,0,.11149-.10815H55.5846v-.43982H54.57451a.1115.1115,0,0,0-.11149-.10815h-.37795a.11428.11428,0,0,0-.11149.11149"/><path class="cls-20" d="M56.07236,20.02438v.56971a.09086.09086,0,0,1-.09086.09086h-.27872a.09086.09086,0,0,1-.09087-.09086h0v-.56971a.09086.09086,0,0,1,.09086-.09086h.27873a.09086.09086,0,0,1,.09086.09086h0"/><path class="cls-17" d="M60.32958,19.972v.427a.11428.11428,0,0,1-.11372.11484h-.37795a.1115.1115,0,0,1-.11149-.10815H58.71633v-.43982h1.00786a.1115.1115,0,0,1,.11149-.10815h.37962a.11429.11429,0,0,1,.11428.11149"/><path class="cls-20" d="M58.34284,20.02438v.56971a.09086.09086,0,0,0,.09086.09086h.27873a.09086.09086,0,0,0,.09086-.09086h0v-.56971a.09086.09086,0,0,0-.09086-.09086H58.4337a.09086.09086,0,0,0-.09086.09086h0"/><path class="cls-17" d="M53.96912,18.92175v.427a.11149.11149,0,0,0,.10867.11424l.00282,0h.38073a.11149.11149,0,0,0,.11149-.10814H55.5846v-.43927H54.57451a.1115.1115,0,0,0-.11149-.1087h-.37795a.11427.11427,0,0,0-.11149.11483"/><path class="cls-20" d="M56.07236,18.97192v.56748a.09087.09087,0,0,1-.09086.09087h-.27872a.09087.09087,0,0,1-.09087-.09087h0v-.56748a.09086.09086,0,0,1,.09086-.09086h.27873a.09086.09086,0,0,1,.09086.09086h0"/><path class="cls-17" d="M60.32958,18.92175v.427a.11149.11149,0,0,1-.10863.11427h-.383a.11149.11149,0,0,1-.11149-.10814H58.71633v-.43927h1.00786a.11427.11427,0,0,1,.11149-.1087h.37962a.11428.11428,0,0,1,.11428.11427v.00056"/><path class="cls-20" d="M58.34284,18.97192v.56748a.09087.09087,0,0,0,.09086.09087h.27873a.09087.09087,0,0,0,.09086-.09087h0v-.56748a.09086.09086,0,0,0-.09086-.09086H58.4337a.09086.09086,0,0,0-.09086.09086h0"/><path class="cls-17" d="M53.96912,17.83083v.427a.11428.11428,0,0,0,.11149.11428h.38073a.11149.11149,0,0,0,.11149-.10815H55.5846V17.8247H54.57451A.1115.1115,0,0,0,54.463,17.716h-.37795a.11428.11428,0,0,0-.11149.11484"/><path class="cls-20" d="M56.07236,17.88267v.56748a.09087.09087,0,0,1-.09086.09087h-.27872a.09087.09087,0,0,1-.09087-.09087h0v-.56748a.09086.09086,0,0,1,.09086-.09086h.27873a.09086.09086,0,0,1,.09086.09086h0"/><path class="cls-17" d="M60.32958,17.83083v.427a.11428.11428,0,0,1-.11428.11428h-.37739a.11149.11149,0,0,1-.11149-.10815H58.71633V17.8247h1.00786a.11429.11429,0,0,1,.11149-.10871h.37962a.11429.11429,0,0,1,.11428.11428v.00056"/><path class="cls-20" d="M58.34284,17.88267v.56748a.09087.09087,0,0,0,.09086.09087h.27873a.09087.09087,0,0,0,.09086-.09087h0v-.56748a.09086.09086,0,0,0-.09086-.09086H58.4337a.09086.09086,0,0,0-.09086.09086h0"/><path class="cls-17" d="M53.96912,16.76555v.42812a.11427.11427,0,0,0,.11149.11483h.38073a.11149.11149,0,0,0,.11149-.10814H55.5846v-.43983H54.57451a.11149.11149,0,0,0-.11149-.10814h-.37795a.11427.11427,0,0,0-.11149.11427"/><path class="cls-20" d="M56.07236,16.818v.56748a.09087.09087,0,0,1-.09086.09031h-.27872a.09088.09088,0,0,1-.09087-.09031V16.818a.09086.09086,0,0,1,.09086-.09086h.27873a.09086.09086,0,0,1,.09086.09086h0"/><path class="cls-17" d="M60.32958,16.76555v.42812a.11429.11429,0,0,1-.11428.11149h-.37739a.11428.11428,0,0,1-.11149-.10815H58.71633v-.43982h1.00786a.1115.1115,0,0,1,.11149-.10815h.37962a.11429.11429,0,0,1,.11428.11428"/><path class="cls-20" d="M58.34284,16.818v.56748a.09087.09087,0,0,0,.09086.09031h.27873a.09087.09087,0,0,0,.09086-.09031V16.818a.09086.09086,0,0,0-.09086-.09086H58.4337a.09086.09086,0,0,0-.09086.09086h0"/><path class="cls-5" d="M60.72614,15.86575c.07226.00586.17724-.00879.17724-.10351a.10992.10992,0,0,0-.11767-.11084c-.08594,0-.12989.063-.12891.14892h-.16065a.2761.2761,0,0,1,.28809-.28808.25706.25706,0,0,1,.27979.23046.16528.16528,0,0,1-.1167.17041v.00245a.18491.18491,0,0,1,.14746.18945.31048.31048,0,0,1-.61865-.02979h.16064c.00342.09034.04883.16407.14648.16407a.12822.12822,0,0,0,.13575-.13086c0-.12647-.11084-.124-.19287-.124Z"/><path class="cls-5" d="M61.31647,16.14749a.11839.11839,0,0,0,.11181.10352c.12354,0,.15332-.16163.15918-.25342l-.00244-.00244a.20858.20858,0,0,1-.188.09277.26562.26562,0,0,1-.1914-.08545.2854.2854,0,0,1-.06446-.18555.28856.28856,0,0,1,.29151-.30468c.25244,0,.32031.22021.32031.43066,0,.20459-.09033.43555-.32715.43555a.25406.25406,0,0,1-.27051-.231Zm.25586-.34131a.143.143,0,0,0-.13477-.15478.13919.13919,0,0,0-.12744.15234c0,.07861.04053.15723.12744.15723A.138.138,0,0,0,61.57233,15.80618Z"/><path class="cls-5" d="M61.252,38.9053h-.16894v-.54053H60.8736v-.127c.11816.00342.22509-.03808.24414-.16553H61.252Z"/><path class="cls-5" d="M52.73492,16.16849h-.35205V16.0137l.36182-.48535h.15137v.501h.11035v.13916h-.11035v.19287h-.16114Zm0-.42823h-.00341l-.21534.28907h.21875Z"/><path class="cls-5" d="M53.355,15.51175c.16651,0,.30713.10449.30713.42968,0,.332-.14062.43653-.30713.43653-.16553,0-.30469-.10449-.30469-.43653C53.05035,15.61624,53.18951,15.51175,53.355,15.51175Zm0,.72705c.13819,0,.13819-.20362.13819-.29737,0-.08691,0-.29052-.13819-.29052-.13672,0-.13574.20361-.13574.29052C53.2193,16.03518,53.2193,16.2388,53.355,16.2388Z"/><path class="cls-5" d="M52.73883,38.39212a.29587.29587,0,0,1,.30225-.33643.26489.26489,0,0,1,.28564.26026c0,.25244-.26758.273-.38916.44433h.394v.145h-.61181c0-.19385.11914-.27392.26318-.37256.07276-.05127.17481-.10107.17481-.20361a.11959.11959,0,0,0-.125-.12842c-.1001,0-.13184.10352-.13184.19141Z"/></g></g></svg>